<?xml version="1.0" encoding="UTF-8"?>
<svg xmlns="http://www.w3.org/2000/svg" width="1600" height="1100" viewBox="0 0 1600 1100" role="img" aria-labelledby="title desc">
  <title id="title">United Arab Emirates Physical Study Map</title>
  <desc id="desc">Made with Natural Earth. Free vector and raster map data @ naturalearthdata.com.</desc>
  <defs>
    <linearGradient id="terrain" x1="0" x2="1" y1="0" y2="1">
      <stop offset="0%" stop-color="#6c8c53" />
      <stop offset="42%" stop-color="#d5c487" />
      <stop offset="72%" stop-color="#b88b5f" />
      <stop offset="100%" stop-color="#f1f5ee" />
    </linearGradient>
    <filter id="softShadow" x="-10%" y="-10%" width="120%" height="120%">
      <feDropShadow dx="0" dy="10" stdDeviation="12" flood-color="#0f172a" flood-opacity="0.16" />
    </filter>
    <style>
      .neighbor { fill: #ffffff; stroke: #94a3b8; stroke-width: 1.2; opacity: 0.72; }
      .country { fill: url(#terrain); stroke: #1f2937; stroke-width: 4; filter: url(#softShadow); }
      .admin1 { fill: none; stroke: #64748b; stroke-width: 1.1; stroke-dasharray: 6 7; opacity: 0.75; }
      .river { fill: none; stroke: #1d9bd1; stroke-width: 3; stroke-linecap: round; opacity: 0.88; }
      .lake { fill: #8ed1ea; stroke: #0ea5e9; stroke-width: 1.5; opacity: 0.8; }
      .city circle { fill: #ef4444; stroke: #ffffff; stroke-width: 2; }
      .city text, .terrain-label { fill: #172033; font: 700 24px system-ui, sans-serif; paint-order: stroke; stroke: #ffffff; stroke-width: 5; stroke-linejoin: round; }
      .map-title { fill: #0f172a; font: 800 46px system-ui, sans-serif; }
      .map-subtitle { fill: #475569; font: 600 24px system-ui, sans-serif; }
      .footer { fill: #64748b; font: 500 18px system-ui, sans-serif; }
    </style>
  </defs>
  <rect width="100%" height="100%" fill="#d8edf0" />
  <rect x="40" y="40" width="1520" height="1020" rx="32" fill="#ffffff" opacity="0.54" />
  <path class="neighbor" d="M 389.2 523.1 L 380.6 429.1 L 415.5 361.3 L 450.8 347.4 L 489.9 387.9 L 492.2 463.6 L 464.1 539.6 L 428.3 548.8 L 389.2 523.1 Z" />
<path class="neighbor" d="M 957.7 787.7 L 961.1 735.6 L 998.8 682.1 L 999.1 629.3 L 1057.6 603.8 L 1034.7 585.9 L 1045.4 501.7 L 1111.4 501.2 L 1169.3 589.5 L 1241.5 636.4 L 1336.3 653.3 L 1412.9 676.8 L 1471.2 751 L 1506 793.9 L 1552.3 810.3 L 1552.1 839.1 L 1505 916.1 L 1484.4 952.4 L 1429.9 993.8 L 1381.7 1082.3 L 1323 1075.5 L 1296.2 1106.4 L 1275.4 1171.9 L 1291.3 1258.3 L 1279.1 1274.2 L 1219.6 1273.8 L 1138.9 1322.1 L 1126.3 1385 L 1096.7 1412.3 L 1016.3 1411.3 L 965.7 1443.8 L 966.3 1496.1 L 903.8 1531.9 L 832.5 1519.8 L 746 1563.4 L 686.3 1570.7 L 644.1 1480.4 L 543 1267 L 930.8 1137.8 L 1017 879.2 L 957.7 787.7 Z M 1093.8 399.1 L 1069.2 355 L 1106.9 311 L 1122.8 322.2 L 1110.7 375.6 L 1093.8 399.1 Z" />
<path class="neighbor" d="M 99.3 -145.4 L 27.8 -213.4 L 26.5 -282.2 L -14.8 -282.2 L 6.4 -375.8 L -60.1 -474.1 L -218.5 -544.9 L -308 -667.8 L -278.1 -768.7 L -213 -813.3 L -222.7 -888.8 L -307.5 -927.6 L -391.3 -1081.8 L -391.3 -1081.8 L -462 -1185.4 L -436.7 -1225.4 L -477 -1373.7 L -388.5 -1410.5 L -368 -1361.7 L -302.7 -1302 L -214 -1284.9 L -167.2 -1288.7 L -14.8 -1384 L 33.7 -1393.6 L 71.9 -1355.6 L 27.3 -1291.7 L 107.9 -1224 L 140.1 -1230.4 L 181 -1135.1 L 303.6 -1108.2 L 393.3 -1043.3 L 577.1 -1021 L 779 -1055.3 L 791.4 -1085.5 L 905 -1110.5 L 996.9 -1184.4 L 1083.4 -1180.7 L 1140.1 -1204.7 L 1232 -1192.8 L 1375 -1127.3 L 1478.2 -1113.2 L 1625.9 -998.7 L 1722.3 -994.1 L 1733.7 -885.3 L 1681 -724.2 L 1645.4 -630.1 L 1701.7 -611.1 L 1646.4 -540.3 L 1688.8 -437.1 L 1698.9 -355 L 1796.8 -333.2 L 1807.4 -250 L 1690.1 -132.8 L 1754.1 -64.8 L 1806.2 13.2 L 1929.8 70.1 L 1933.3 183.9 L 1995.2 204.8 L 2005.9 264.4 L 1819.4 331.1 L 1770.7 481.3 L 1527.5 442.3 L 1386.6 412.6 L 1240.7 395.8 L 1185.6 237.3 L 1123.7 214.4 L 1024.3 237.5 L 894 300 L 736 257.2 L 605.5 157.8 L 481 121 L 394.7 -1.7 L 299.3 -174 L 229.8 -153.1 L 147.6 -195.9 L 99.3 -145.4 Z" />
<path class="neighbor" d="M -1660.2 -71.7 L -1516.4 -51.2 L -1460.5 -90.9 L -1429.6 -137.5 L -1330.9 -155.4 L -1309.7 -198.7 L -1266.9 -220.6 L -1395.7 -349.9 L -1136.9 -414.8 L -1112.2 -434.2 L -956.5 -399.2 L -763.9 -308.7 L -399.4 -48.8 L -159.1 -38.4 L -43.9 -26 L -11.7 35.6 L 79.7 32.3 L 130.3 143.8 L 193.9 173.3 L 216.1 218.7 L 304.2 273 L 312 326.4 L 299.1 369.4 L 315.5 412.8 L 352.6 449.1 L 369.8 491.5 L 389.2 523.1 L 428.3 548.8 L 464.1 539.6 L 488.6 589 L 493.6 618.9 L 543.1 749.8 L 931.7 815 L 957.7 787.7 L 1017 879.2 L 930.8 1137.8 L 543 1267 L 170.3 1316.6 L 49.6 1374.8 L -43 1510.5 L -103.3 1532 L -135.7 1488.9 L -185.2 1495.4 L -310.2 1482.5 L -333.9 1469.6 L -483.1 1472.5 L -518.1 1484.2 L -571.2 1450.6 L -605.4 1514.1 L -592.2 1568.6 L -648.9 1609.9 L -665.7 1554.7 L -704.7 1515.8 L -714.7 1464.2 L -781.4 1417.9 L -850.3 1309.5 L -886.8 1204.2 L -976.2 1115.2 L -1033.9 1094 L -1119.5 970.8 L -1134.4 880.9 L -1128.9 804.3 L -1203.1 661 L -1263.7 610.5 L -1333.5 583.8 L -1376 509.7 L -1368.9 480.5 L -1404.9 413.5 L -1442.6 384.6 L -1493.1 288.5 L -1571.8 184.2 L -1637.7 95.4 L -1702.1 96.1 L -1682 25.1 L -1676.2 -20.1 L -1660.2 -71.7 Z" />

<path class="country" d="M 488.6 589 L 511.6 582.7 L 516.4 618.1 L 617.6 597.8 L 724.5 601.1 L 802.6 605 L 891.1 517.6 L 987.5 434.7 L 1069.2 355 L 1093.8 399.1 L 1111.4 501.2 L 1045.4 501.7 L 1034.7 585.9 L 1057.6 603.8 L 999.1 629.3 L 998.8 682.1 L 961.1 735.6 L 957.7 787.7 L 931.7 815 L 543.1 749.8 L 493.6 618.9 L 488.6 589 Z" />


<g class="city"><circle cx="482.6208172170641" cy="454.3947139762755" r="5" /><text x="494.6208172170641" y="458.3947139762755">Doha</text></g>
<g class="city"><circle cx="967.887675649063" cy="463.6559453435083" r="5" /><text x="979.887675649063" y="467.6559453435083">Dubai</text></g>
<g class="city"><circle cx="1367.50029506682" cy="674.3272420301049" r="5" /><text x="1379.50029506682" y="678.3272420301049">Muscat</text></g>
<g class="city"><circle cx="848.9160650113703" cy="560.3774101338875" r="5" /><text x="860.9160650113703" y="564.3774101338875">Abu Dhabi</text></g>
<g class="city"><circle cx="359.82767535680614" cy="331.64500595191953" r="5" /><text x="371.82767535680614" y="335.64500595191953">Manama</text></g>
<g class="city"><circle cx="1095.2404654074903" cy="206.5240173150832" r="5" /><text x="1107.2404654074903" y="210.5240173150832">Bandar-e-Abbas</text></g>
<text class="map-title" x="80" y="105">United Arab Emirates Physical Study Map</text>
<text class="map-subtitle" x="80" y="145">Landmark: Burj Khalifa | Study terrain and water systems</text>
  <text class="footer" x="80" y="1036">Made with Natural Earth. Free vector and raster map data @ naturalearthdata.com.</text>
</svg>
