<?xml version="1.0" encoding="UTF-8"?>
<svg xmlns="http://www.w3.org/2000/svg" width="1600" height="1100" viewBox="0 0 1600 1100" role="img" aria-labelledby="title desc">
  <title id="title">Afghanistan Physical Study Map</title>
  <desc id="desc">Made with Natural Earth. Free vector and raster map data @ naturalearthdata.com.</desc>
  <defs>
    <linearGradient id="terrain" x1="0" x2="1" y1="0" y2="1">
      <stop offset="0%" stop-color="#6c8c53" />
      <stop offset="42%" stop-color="#d5c487" />
      <stop offset="72%" stop-color="#b88b5f" />
      <stop offset="100%" stop-color="#f1f5ee" />
    </linearGradient>
    <filter id="softShadow" x="-10%" y="-10%" width="120%" height="120%">
      <feDropShadow dx="0" dy="10" stdDeviation="12" flood-color="#0f172a" flood-opacity="0.16" />
    </filter>
    <style>
      .neighbor { fill: #ffffff; stroke: #94a3b8; stroke-width: 1.2; opacity: 0.72; }
      .country { fill: url(#terrain); stroke: #1f2937; stroke-width: 4; filter: url(#softShadow); }
      .admin1 { fill: none; stroke: #64748b; stroke-width: 1.1; stroke-dasharray: 6 7; opacity: 0.75; }
      .river { fill: none; stroke: #1d9bd1; stroke-width: 3; stroke-linecap: round; opacity: 0.88; }
      .lake { fill: #8ed1ea; stroke: #0ea5e9; stroke-width: 1.5; opacity: 0.8; }
      .city circle { fill: #ef4444; stroke: #ffffff; stroke-width: 2; }
      .city text, .terrain-label { fill: #172033; font: 700 24px system-ui, sans-serif; paint-order: stroke; stroke: #ffffff; stroke-width: 5; stroke-linejoin: round; }
      .map-title { fill: #0f172a; font: 800 46px system-ui, sans-serif; }
      .map-subtitle { fill: #475569; font: 600 24px system-ui, sans-serif; }
      .footer { fill: #64748b; font: 500 18px system-ui, sans-serif; }
    </style>
  </defs>
  <rect width="100%" height="100%" fill="#d8edf0" />
  <rect x="40" y="40" width="1520" height="1020" rx="32" fill="#ffffff" opacity="0.54" />
  <path class="neighbor" d="M 1747.2 -158.1 L 1710.2 -125.8 L 1669.9 -121.3 L 1667.6 -72.6 L 1640.6 -50.7 L 1544.3 -66.7 L 1509.3 20.2 L 1484.5 31 L 1388.3 50.4 L 1432 134.7 L 1398.7 147.4 L 1402.6 175 L 1372.7 167.9 L 1348.4 150.5 L 1276.3 145.4 L 1195.9 144.1 L 1178.2 149.4 L 1109.1 129 L 1081.6 139 L 1074 167.7 L 994.2 151 L 962.2 157.8 L 951.4 179.1 L 923.5 188.1 L 859.5 221.9 L 838.3 256.6 L 820.2 256.9 L 806.9 233.9 L 745.2 232.4 L 735.3 192.6 L 711.7 192.3 L 715.3 143.6 L 657.2 108.1 L 574 111.9 L 517.1 119 L 470.7 75.3 L 431 56.9 L 355.8 22.1 L 346.7 17.9 L 221.8 46.6 L 223.7 225.6 L 198.8 227.9 L 164.8 189.9 L 132 176.3 L 76.9 186.4 L 55.5 202.5 L 52.8 190.7 L 64.7 170.5 L 55.4 153.6 L -0.8 137 L -22.7 93.4 L -49.5 81.2 L -51.1 65.4 L -3.9 70 L -2.1 34.5 L 39.2 26.6 L 81.6 33.8 L 90.4 -13.5 L 81.7 -43.5 L 33.1 -41.2 L -8.1 -53 L -64.3 -31.7 L -109.6 -21.5 L -134.2 -29.3 L -129.3 -54.3 L -160.2 -86.7 L -196.3 -85.4 L -237.5 -118.3 L -209.4 -155.1 L -223.6 -165 L -184.9 -218.3 L -135 -190.2 L -128.9 -225.6 L -28.8 -278.4 L 47.1 -279.7 L 154 -246 L 211.5 -226.4 L 263 -246.9 L 339.9 -247.9 L 402 -222.7 L 416.1 -237.1 L 484.3 -235 L 496.4 -258 L 417.8 -291.4 L 464.4 -315 L 455.3 -328.2 L 501.9 -340.9 L 466.8 -374.1 L 489.1 -390.7 L 670.7 -407.6 L 694.4 -419.6 L 815.8 -437.5 L 859.4 -457.6 L 946.7 -447.1 L 961.9 -396.8 L 1012.6 -408.7 L 1074.9 -392.1 L 1070.9 -365.6 L 1117.5 -368.4 L 1239.1 -414.2 L 1221.4 -399 L 1283.3 -361.5 L 1391.7 -238.2 L 1417.6 -263.6 L 1484.4 -235.7 L 1554.2 -248.1 L 1581 -239.4 L 1604.3 -211.4 L 1638.3 -201.9 L 1658.9 -181.3 L 1721.4 -187.8 L 1747.2 -158.1 Z" />
<path class="neighbor" d="M 223.7 225.6 L 221.8 46.6 L 346.7 17.9 L 355.8 22.1 L 431 56.9 L 470.7 75.3 L 517.1 119 L 574 111.9 L 657.2 108.1 L 715.3 143.6 L 711.7 192.3 L 735.3 192.6 L 745.2 232.4 L 806.9 233.9 L 820.2 256.9 L 838.3 256.6 L 859.5 221.9 L 923.5 188.1 L 951.4 179.1 L 965.8 183.9 L 925.1 215.3 L 960.9 233.6 L 995.4 221.5 L 1053 247 L 990.8 282 L 953.9 277.2 L 933.9 278.5 L 926.9 265 L 937 242.5 L 872.1 253.8 L 856.7 284.9 L 833.6 311.7 L 793.1 309.4 L 780.5 330.8 L 816.2 342.4 L 826.6 378.5 L 799.4 427.6 L 762.8 417.4 L 735.7 417.1 L 737.1 387.4 L 672.5 366.6 L 621.7 342.8 L 590.1 320 L 534.6 286.5 L 510.7 236.4 L 494.4 227.6 L 442 229.8 L 423.4 219.9 L 418.2 181.2 L 352.8 155.5 L 311.9 183.7 L 270.5 200.5 L 278.4 224.9 L 223.7 225.6 Z" />
<path class="neighbor" d="M 6181.3 -1220.2 L 6243.2 -1240.4 L 6243.2 -1207.3 L 6189.9 -1204.8 L 6181.3 -1220.2 Z M -109.6 -21.5 L -131.7 7.3 L -178.8 15.3 L -227 65.4 L -182.9 111.4 L -187.7 144.1 L -134.7 201.3 L -134.7 201.3 L -163.6 220.8 L -172 233.2 L -193.4 229.9 L -226.8 200.4 L -240.4 198.8 L -270.9 187.5 L -285.8 167.6 L -331.1 157.5 L -360.5 165.1 L -369 156.1 L -435.1 132.8 L -506.5 124.9 L -547.5 116.6 L -553.5 122.4 L -615.3 81.4 L -670.7 63.1 L -712.6 34.5 L -677.3 26.8 L -637 -13.8 L -664.2 -33 L -592.6 -52.8 L -593.9 -63.4 L -637.5 -55.6 L -636 -77.2 L -610.9 -90.7 L -564 -94.3 L -556.3 -110.5 L -567.1 -137.2 L -547.4 -162.6 L -547.9 -176.9 L -619.5 -192.7 L -647.8 -192.2 L -677.8 -214.9 L -715 -207.2 L -776.7 -224.3 L -775.6 -233.8 L -792.9 -254.8 L -831.6 -257.2 L -835.6 -272.3 L -823.5 -282.1 L -854.5 -309.6 L -904.8 -304.9 L -919.5 -307.3 L -931.8 -296.3 L -949.9 -298.2 L -949.9 -298.2 L -961.9 -329.3 L -973.3 -345.4 L -963.9 -350 L -924.8 -348.3 L -905.9 -358.9 L -919.9 -371.8 L -952.6 -380.4 L -949.7 -389.1 L -969.4 -398 L -999.8 -429.8 L -989.4 -442.9 L -994.2 -465.6 L -1041.6 -477.2 L -1067.1 -471.4 L -1074 -483.5 L -1125.1 -495.6 L -1140.7 -524.3 L -1144.8 -547.8 L -1168.2 -559 L -1147.4 -574.4 L -1161.8 -619.7 L -1127.3 -647.6 L -1134.6 -656.1 L -1134.6 -656.1 L -1079.4 -682.9 L -1130.3 -706 L -1130.3 -706 L -1026.4 -767.9 L -981.3 -796 L -963 -820.7 L -1034.9 -854 L -1015 -885.6 L -1058.7 -921.7 L -1026 -963.3 L -1082.5 -1018.6 L -1037.7 -1055.2 L -1112 -1087.5 L -1104.9 -1121.5 L -1065.7 -1126 L -983.2 -1145.4 L -983.2 -1145.4 L -933.1 -1162.3 L -853.4 -1133 L -720.5 -1121.4 L -537.1 -1066.5 L -499.8 -1043.5 L -496.6 -1011.2 L -550.5 -985.7 L -629.8 -972.7 L -846.4 -1009.6 L -882.1 -1003.4 L -802.9 -967.9 L -799.8 -945.4 L -796.7 -895.8 L -734.2 -881 L -696.3 -868.4 L -690 -891.9 L -719.2 -912.8 L -688.3 -931.2 L -571 -901 L -530.1 -912.8 L -562.8 -948.3 L -449.7 -995.9 L -404.9 -993.1 L -359.6 -976.1 L -331.3 -1009.5 L -371.8 -1038.4 L -348 -1067.4 L -383.7 -1097.5 L -248 -1081.9 L -220.2 -1054.8 L -281.7 -1048.8 L -281.3 -1021.8 L -243.1 -1005.2 L -168.2 -1015.7 L -156.3 -1046.6 L -54.9 -1069.8 L 114.5 -1111.4 L 151.1 -1109 L 103.2 -1079.6 L 163.4 -1074.5 L 198.2 -1091.1 L 289.1 -1092.4 L 361.2 -1112.6 L 416.5 -1083.3 L 471.7 -1115.5 L 420.8 -1143.6 L 446 -1159.6 L 589.4 -1144.9 L 656.6 -1129.7 L 832.5 -1074.3 L 864.9 -1099.7 L 815.6 -1125.4 L 814.2 -1135.6 L 755.7 -1140.4 L 771.7 -1163.4 L 745.7 -1201.3 L 744.3 -1216.8 L 833.8 -1260.8 L 865.7 -1304.9 L 901.8 -1314.4 L 1030.2 -1301.6 L 1040.4 -1274.6 L 994.4 -1235.3 L 1024.6 -1219.8 L 1040.2 -1185.9 L 1029.1 -1119.4 L 1082.7 -1089.6 L 1061.9 -1057.2 L 966.8 -988.3 L 1022.3 -981.1 L 1041.6 -998.6 L 1095 -1011.1 L 1107.9 -1035.1 L 1149.9 -1058.2 L 1121.6 -1085.8 L 1144.2 -1117.8 L 1091.1 -1121.8 L 1079.5 -1148.8 L 1118.2 -1197.5 L 1055.2 -1237.1 L 1142 -1269.8 L 1130.8 -1304.3 L 1155 -1305.4 L 1180.5 -1278.5 L 1161.4 -1231.7 L 1213.3 -1222.8 L 1191.2 -1257.8 L 1272.4 -1276.9 L 1373.1 -1279.5 L 1462.8 -1251.8 L 1419.6 -1292.2 L 1414.8 -1343.9 L 1499.2 -1353.7 L 1615.9 -1351.6 L 1721.1 -1357.9 L 1681.6 -1383.3 L 1737.8 -1415.2 L 1793.6 -1416.5 L 1887.9 -1440.6 L 2016.1 -1447.1 L 2032.3 -1460.4 L 2159.7 -1464.9 L 2199.4 -1454 L 2308.3 -1479.8 L 2397.5 -1479 L 2410.9 -1499.9 L 2457.2 -1520.6 L 2571.8 -1540.5 L 2655 -1524.7 L 2589 -1512.8 L 2698.9 -1505.3 L 2712 -1481.4 L 2756.3 -1493.2 L 2898.2 -1492.5 L 3007.6 -1468.9 L 3046.6 -1450.7 L 3034.5 -1425.4 L 2980.8 -1411.1 L 2853.3 -1384.1 L 2816.8 -1369.7 L 2877 -1362.9 L 2948.8 -1350.7 L 2992.5 -1359.9 L 3017.2 -1328.7 L 3038.6 -1341.3 L 3116.2 -1349 L 3271.9 -1341 L 3283.7 -1318.3 L 3486.6 -1311.1 L 3489.4 -1348.1 L 3592.4 -1339.7 L 3669.8 -1339.9 L 3748.2 -1314.4 L 3770.5 -1283.3 L 3741.8 -1263 L 3802.8 -1224.8 L 3879.1 -1205.1 L 3925.9 -1256 L 4003.8 -1234.2 L 4086.5 -1247.2 L 4180.4 -1232.3 L 4216.2 -1245.9 L 4295.6 -1239.1 L 4260.5 -1284.1 L 4324.6 -1305.2 L 4762.9 -1273.6 L 4804.3 -1244.8 L 4931.3 -1207.8 L 5127.3 -1216.9 L 5223.9 -1208.9 L 5264.3 -1188.9 L 5258.4 -1153.4 L 5318.2 -1139.6 L 5383.1 -1149.5 L 5469.2 -1150.8 L 5560.8 -1141.3 L 5652.8 -1146.6 L 5737.3 -1103.5 L 5797.5 -1119 L 5758.2 -1150 L 5779.9 -1171.6 L 5934.7 -1158 L 6035.6 -1160.9 L 6175.2 -1137.8 L 6243.2 -1116.6 L 6243.2 -923.2 L 6242.8 -923 L 6180.4 -901.6 L 6117.5 -905.2 L 6161.3 -879.4 L 6190.2 -839.4 L 6212.6 -826.3 L 6218.2 -806.2 L 6205.7 -793.4 L 6115.2 -804 L 5979.6 -767.4 L 5936.5 -761.8 L 5862.2 -727.7 L 5791.7 -697.9 L 5773.9 -675.8 L 5704.5 -709.4 L 5578 -671.3 L 5556 -689.3 L 5509.2 -668.5 L 5444.3 -675.2 L 5428.7 -643.3 L 5370.4 -596.3 L 5372.2 -576.7 L 5427.4 -565.8 L 5420.9 -495.2 L 5375.9 -493.4 L 5355.1 -452.8 L 5375.3 -431.9 L 5290.4 -407.1 L 5273.6 -351.7 L 5201.2 -339.8 L 5186.7 -290.5 L 5116.7 -245.3 L 5098.8 -278.7 L 5078 -349.6 L 5050.9 -457.4 L 5074.2 -524.7 L 5115.2 -553.7 L 5117.7 -576.3 L 5193.1 -587.2 L 5279.8 -648.3 L 5363.4 -698.2 L 5450.6 -736.9 L 5489.6 -805.3 L 5430.7 -801.3 L 5401.5 -761.3 L 5278.4 -708 L 5238.7 -767.7 L 5113.4 -751.2 L 4991.9 -669.8 L 5032 -640.1 L 4923.7 -627.4 L 4848.6 -622.4 L 4852.2 -657.5 L 4776.7 -664.9 L 4716.6 -641 L 4568.2 -649.4 L 4408.6 -635 L 4251.3 -540.2 L 4065.4 -425.8 L 4141.8 -419.7 L 4165.7 -389.3 L 4212.8 -378.5 L 4243.9 -402.7 L 4297.1 -399.6 L 4367.2 -346.2 L 4368.8 -304.9 L 4330.9 -256.4 L 4326.8 -198.5 L 4304.9 -120.9 L 4231.8 -50.6 L 4215.5 -17.1 L 4149.6 39.5 L 4084.2 95.5 L 4052.9 124.2 L 3988.2 152.6 L 3957.6 153.3 L 3927.1 129.7 L 3862 165.2 L 3854.4 181.3 L 3854.4 181.3 L 3854.4 181.3 L 3854.4 181.3 L 3847.6 172.8 L 3847.6 172.8 L 3847.3 148.2 L 3872.1 146.9 L 3879.1 89.5 L 3866.3 48 L 3908 30.8 L 3966.9 39.4 L 3999.5 -7.8 L 4016.2 -61 L 4035 -78.7 L 4060.5 -122.4 L 3980.3 -108.1 L 3938.2 -88.9 L 3864.5 -89 L 3844.8 -134.6 L 3787.4 -169.1 L 3702.9 -184.6 L 3684.9 -232.1 L 3668 -262 L 3649.8 -282.8 L 3619.8 -331.8 L 3577.2 -349.7 L 3504.6 -364.1 L 3440.2 -362.8 L 3379.9 -354 L 3339.9 -329.9 L 3366.5 -318.4 L 3367.1 -291.6 L 3340.1 -276 L 3296.3 -224.5 L 3296.7 -203.2 L 3228.3 -172.5 L 3170.1 -190.8 L 3112.2 -186.8 L 3086.8 -203 L 3057.7 -208.3 L 2986.6 -174.1 L 2922.7 -166.1 L 2878.1 -154 L 2816.9 -161.9 L 2771.9 -161.4 L 2742.5 -186.2 L 2695 -209.6 L 2646.3 -215.9 L 2584.9 -209.6 L 2539.1 -200.6 L 2470.1 -221 L 2460.9 -257.4 L 2403.8 -269.9 L 2359.7 -275.5 L 2305.4 -295.6 L 2255.1 -245.3 L 2274.8 -216.7 L 2227.6 -182.9 L 2157.5 -195.1 L 2109 -196.9 L 2076.6 -219.6 L 2026 -220.3 L 1983.8 -235.2 L 1909.9 -212.3 L 1817.3 -170.5 L 1766.2 -162.1 L 1747.2 -158.1 L 1721.4 -187.8 L 1658.9 -181.3 L 1638.3 -201.9 L 1604.3 -211.4 L 1581 -239.4 L 1554.2 -248.1 L 1484.4 -235.7 L 1417.6 -263.6 L 1391.7 -238.2 L 1283.3 -361.5 L 1221.4 -399 L 1239.1 -414.2 L 1117.5 -368.4 L 1070.9 -365.6 L 1074.9 -392.1 L 1012.6 -408.7 L 961.9 -396.8 L 946.7 -447.1 L 859.4 -457.6 L 815.8 -437.5 L 694.4 -419.6 L 670.7 -407.6 L 489.1 -390.7 L 466.8 -374.1 L 501.9 -340.9 L 455.3 -328.2 L 464.4 -315 L 417.8 -291.4 L 496.4 -258 L 484.3 -235 L 416.1 -237.1 L 402 -222.7 L 339.9 -247.9 L 263 -246.9 L 211.5 -226.4 L 154 -246 L 47.1 -279.7 L -28.8 -278.4 L -128.9 -225.6 L -135 -190.2 L -184.9 -218.3 L -223.6 -165 L -209.4 -155.1 L -237.5 -118.3 L -196.3 -85.4 L -160.2 -86.7 L -129.3 -54.3 L -134.2 -29.3 L -109.6 -21.5 Z M 2058.6 -1701.9 L 2163.6 -1712.9 L 2257.9 -1688.4 L 2369.7 -1641.5 L 2357.7 -1597.9 L 2251.8 -1591.8 L 2116.6 -1605.8 L 2036.1 -1624.4 L 1998.8 -1659.2 L 1932.6 -1668.8 L 2058.6 -1701.9 Z M 2498.3 -1617.3 L 2621.4 -1589.8 L 2606.9 -1570 L 2333.4 -1551.3 L 2422 -1615 L 2461.9 -1620.5 L 2498.3 -1617.3 Z M 4245.2 -1464.7 L 4373.3 -1462.6 L 4548.7 -1436.8 L 4510.6 -1400.8 L 4331.7 -1402.1 L 4251.2 -1390.7 L 4155.1 -1422.2 L 4181.1 -1455.6 L 4245.2 -1464.7 Z M 4700.9 -1426.3 L 4822.7 -1413.6 L 4766.6 -1394.4 L 4689.1 -1398.8 L 4598.9 -1417.9 L 4610.5 -1433.6 L 4700.9 -1426.3 Z M 4295.3 -1330.4 L 4341.3 -1349.6 L 4402 -1354.1 L 4470.9 -1335.5 L 4476.8 -1322.8 L 4403.2 -1322.4 L 4303.7 -1327.9 L 4295.3 -1330.4 Z M -316 -1680.8 L -221.3 -1689.7 L -147.6 -1690.2 L -137.7 -1677.2 L -109.8 -1688.8 L -64 -1696.8 L 7.9 -1686.2 L -10.8 -1678.8 L -76 -1672.4 L -119.6 -1668.7 L -126.4 -1660.7 L -183.1 -1652.7 L -235.7 -1664.2 L -208 -1679.3 L -316 -1680.8 Z M -1389.4 -406.3 L -1478.6 -405.5 L -1538.4 -411 L -1527.3 -432.4 L -1460.4 -448.1 L -1409.5 -439.6 L -1388.1 -431.9 L -1393.3 -418.7 L -1389.4 -406.3 Z M 104.3 -1348.9 L 220.5 -1391.5 L 207.4 -1413.5 L 315.9 -1439.1 L 476.1 -1470.3 L 637.7 -1479.4 L 720.8 -1497.4 L 815.2 -1503.7 L 849 -1484.5 L 816.4 -1469.4 L 644.4 -1445.3 L 496.2 -1422.2 L 345.4 -1376 L 273.1 -1328.6 L 197 -1282 L 206.9 -1241.6 L 299.8 -1201.8 L 271.1 -1197.6 L 112.5 -1203.9 L 99.6 -1225.4 L 11.8 -1238.5 L 4.7 -1264.7 L 54.3 -1275.1 L 52.7 -1301.5 L 148.9 -1342.9 L 104.3 -1348.9 Z M 4443.3 -376 L 4460.1 -329.3 L 4458.9 -281.5 L 4478.9 -232.5 L 4527.8 -146.6 L 4455.9 -162.6 L 4426.1 -92.5 L 4473.4 -42.7 L 4472 -8.8 L 4435.2 -38.1 L 4403.4 -0.5 L 4394.4 -41.2 L 4399.9 -88.5 L 4394.3 -140.9 L 4405.5 -177.6 L 4407.7 -242.5 L 4379.3 -290.2 L 4383.6 -356.5 L 4428.4 -378.8 L 4409.1 -401.3 L 4430.7 -408.1 L 4443.3 -376 Z M -10982.1 -1031.3 L -10986.3 -1001.1 L -10953.6 -989 L -10964.8 -1024.3 L -10833.1 -1017.1 L -10738.1 -971.6 L -10786.2 -950.5 L -10865.7 -945.5 L -10866.9 -898.1 L -10886.4 -888 L -10931.8 -889.4 L -10968.8 -906.3 L -11033.3 -920.5 L -11044.2 -941.5 L -11093.5 -949.5 L -11148.7 -943.2 L -11175 -960.2 L -11164.5 -978.2 L -11222.6 -966.7 L -11200.7 -943.8 L -11228.3 -923.2 L -11228.3 -1116.6 L -11109.4 -1079.5 L -10982.1 -1031.3 Z M -11164.9 -1210.2 L -11228.3 -1207.3 L -11228.3 -1240.4 L -11222 -1242.5 L -11180.9 -1242.4 L -11110.7 -1228.5 L -11114.9 -1221.9 L -11164.9 -1210.2 Z M -869.8 -0.8 L -857.1 -12.8 L -822.6 -2.4 L -806.9 -0.5 L -800.6 9.1 L -793.3 10.6 L -792.9 14.8 L -769.2 26.5 L -719.7 23.6 L -729.2 40.9 L -782.3 49.3 L -848.2 77.4 L -875.2 67.5 L -864.5 44.7 L -917.5 30.5 L -908.9 21.2 L -862.5 5.1 L -869.8 -0.8 Z" />
<path class="neighbor" d="M 10.7 1053.7 L 19.3 1051.3 L 21.1 1064.6 L 59.1 1057 L 99.2 1058.2 L 128.6 1059.7 L 161.8 1026.9 L 198 995.7 L 228.7 965.8 L 237.9 982.4 L 244.5 1020.7 L 219.7 1020.9 L 215.7 1052.5 L 224.3 1059.2 L 202.4 1068.8 L 202.2 1088.6 L 188.1 1108.7 L 186.8 1128.3 L 177 1138.5 L 31.1 1114.1 L 12.5 1064.9 L 10.7 1053.7 Z" />
<path class="neighbor" d="M 186.8 1128.3 L 188.1 1108.7 L 202.2 1088.6 L 202.4 1068.8 L 224.3 1059.2 L 215.7 1052.5 L 219.7 1020.9 L 244.5 1020.7 L 266.2 1053.9 L 293.3 1071.5 L 328.9 1077.8 L 357.7 1086.7 L 379.6 1114.5 L 392.7 1130.6 L 410 1136.7 L 409.9 1147.6 L 392.3 1176.5 L 384.5 1190.1 L 364.1 1205.6 L 346 1238.9 L 324 1236.3 L 313.9 1247.9 L 306.1 1272.5 L 312 1305 L 307.5 1310.9 L 285.1 1310.8 L 254.8 1328.9 L 250.1 1352.5 L 239 1362.8 L 208.8 1362.4 L 189.8 1374.6 L 190 1394.2 L 166.6 1407.7 L 139.8 1403.1 L 107.3 1419.5 L 84.9 1422.2 L 69.1 1388.3 L 31.1 1308.2 L 176.7 1259.7 L 209 1162.6 L 186.8 1128.3 Z M 237.9 982.4 L 228.7 965.8 L 242.8 949.3 L 248.8 953.5 L 244.2 973.6 L 237.9 982.4 Z" />
<path class="neighbor" d="M 2230.9 858.8 L 2234.6 877.2 L 2217.6 886.1 L 2221.5 915.9 L 2186.8 907.1 L 2124 940.7 L 2125.5 968.5 L 2098.7 1009.2 L 2096.3 1032.8 L 2074.6 1072.8 L 2036.7 1061.8 L 2034.8 1112 L 2023.8 1128.5 L 2029 1149.1 L 2005 1160.6 L 1979.5 1083.7 L 1966.1 1083.8 L 1958.1 1114.8 L 1931.6 1089.7 L 1946.5 1062.1 L 1968.2 1059.3 L 1990.6 1018.2 L 1962.6 1009.9 L 1917.6 1010.6 L 1871.5 1004 L 1867.2 970.2 L 1844 967.8 L 1805.6 946.8 L 1788.4 979.8 L 1823.5 1005.5 L 1793.1 1023.5 L 1782.3 1041.2 L 1812.2 1054.2 L 1804 1083.5 L 1820.8 1120 L 1828.3 1159.9 L 1821.4 1177.7 L 1788.4 1177.1 L 1728.5 1187.1 L 1731.3 1223.6 L 1705.4 1252.3 L 1635.6 1285 L 1581.3 1342.1 L 1544.8 1372.7 L 1496.4 1404.5 L 1496.3 1426.8 L 1472.1 1438.8 L 1428.4 1456.2 L 1405.8 1458.7 L 1391.2 1495.7 L 1401.3 1558.9 L 1403.9 1599.1 L 1383.3 1645.2 L 1383.1 1727.7 L 1358 1730 L 1335.9 1767.1 L 1350.7 1783 L 1306.4 1796.8 L 1290.1 1829.8 L 1270.6 1843.8 L 1224.6 1798.4 L 1202.2 1730.5 L 1183.6 1681.5 L 1166.6 1658.6 L 1140.8 1612 L 1128.7 1551.3 L 1120.3 1520.9 L 1076.2 1454.3 L 1056.1 1360.2 L 1041.6 1298.1 L 1041.7 1239.3 L 1032.3 1193.9 L 961.7 1222.9 L 927.5 1217.1 L 864.1 1158.3 L 887.4 1140.8 L 873.1 1121.7 L 816.2 1080.5 L 848.5 1048.2 L 955.3 1048.3 L 945.7 1006.6 L 918.4 982 L 912.9 944.6 L 881.1 922.9 L 934.6 872 L 990.9 875.7 L 1041.7 824.8 L 1072.1 775.5 L 1119.2 726.8 L 1118.5 692.2 L 1159.9 664.2 L 1120.7 640.2 L 1103.9 607.4 L 1086.7 564.8 L 1110.5 543.9 L 1184.1 555.8 L 1238.2 548.5 L 1285 507.8 L 1337.2 564.6 L 1332.3 604.2 L 1351.6 629.1 L 1350 653.8 L 1315.2 647.3 L 1328.8 700.8 L 1376.5 731.6 L 1443.9 765.5 L 1413.1 787.5 L 1394.3 832.9 L 1441.3 851.3 L 1487.1 875.1 L 1550.4 902.3 L 1616.9 908.6 L 1644.9 933.3 L 1682.4 937.9 L 1740.8 949.2 L 1781.2 948.4 L 1786.7 929.2 L 1780.3 898.4 L 1784.1 877.4 L 1813.7 867.2 L 1817.8 905.5 L 1818.8 915.2 L 1862.9 933.6 L 1893.4 926 L 1934.4 929.3 L 1974 927.8 L 1977.4 898 L 1957.6 882.5 L 1996.8 876.5 L 2041 840.4 L 2096.9 809.5 L 2137.6 821.4 L 2172.2 800.9 L 2195 831.1 L 2178.6 851.5 L 2230.9 858.8 Z" />
<path class="neighbor" d="M 1784.1 877.4 L 1780.3 898.4 L 1786.7 929.2 L 1781.2 948.4 L 1740.8 949.2 L 1682.4 937.9 L 1644.9 933.3 L 1616.9 908.6 L 1550.4 902.3 L 1487.1 875.1 L 1441.3 851.3 L 1394.3 832.9 L 1413.1 787.5 L 1443.9 765.5 L 1464 753.9 L 1502.9 768.8 L 1551.9 800.4 L 1579.2 807.4 L 1595.5 830.7 L 1633.2 840.3 L 1672.6 861.6 L 1727.5 872.7 L 1784.1 877.4 Z" />
<path class="neighbor" d="M 1285 507.8 L 1238.2 548.5 L 1184.1 555.8 L 1110.5 543.9 L 1086.7 564.8 L 1103.9 607.4 L 1120.7 640.2 L 1159.9 664.2 L 1118.5 692.2 L 1119.2 726.8 L 1072.1 775.5 L 1041.7 824.8 L 990.9 875.7 L 934.6 872 L 881.1 922.9 L 912.9 944.6 L 918.4 982 L 945.7 1006.6 L 955.3 1048.3 L 848.5 1048.2 L 816.2 1080.5 L 780.6 1068.3 L 766.1 1033.4 L 728.6 996.4 L 639.2 1005.5 L 560.4 1006.5 L 492 1013.3 L 510.3 956.9 L 580.3 931.8 L 576.3 909.5 L 553.1 901.6 L 551.7 858.9 L 505.3 837.5 L 485.8 808.2 L 461.8 782.7 L 543.1 807.5 L 591.7 800.2 L 620.7 806.4 L 630.5 795.7 L 664.3 800 L 727.4 779.8 L 729.1 738.5 L 756.1 711.1 L 792.2 711.1 L 797.5 697.6 L 834.6 691.2 L 852.6 695.8 L 871.6 682.1 L 868.9 653 L 889.5 623.7 L 920.4 611.4 L 901.3 579.3 L 947.5 580.8 L 960.8 563.3 L 958.8 544.7 L 983 524.3 L 977.4 500.2 L 965.9 479.6 L 994.3 458.5 L 1046.4 448.3 L 1102.1 442.6 L 1126.7 433.7 L 1155 428.2 L 1190.9 450.8 L 1205.2 488.1 L 1285 507.8 Z" />
<path class="neighbor" d="M 799.4 427.6 L 826.6 378.5 L 816.2 342.4 L 780.5 330.8 L 793.1 309.4 L 833.6 311.7 L 856.7 284.9 L 872.1 253.8 L 937 242.5 L 926.9 265 L 933.9 278.5 L 953.9 277.2 L 936.1 292.2 L 883.3 284.1 L 878.7 312 L 931.3 308.3 L 991.3 324 L 1083 316.7 L 1095.3 361.6 L 1111.3 356.7 L 1140.8 367.8 L 1139.1 386.6 L 1146.4 414.3 L 1096.3 414.2 L 1062.9 410.6 L 1032.6 432.4 L 1011.1 437.2 L 994.2 447.4 L 975 431.5 L 979.5 390.7 L 964.8 388.4 L 970.1 373.6 L 943.8 362.5 L 922.9 379.4 L 917.8 399 L 910.3 406.1 L 881.3 405.1 L 865.7 427.3 L 849.3 418 L 814.2 433.5 L 799.4 427.6 Z" />
<path class="neighbor" d="M 951.4 179.1 L 962.2 157.8 L 994.2 151 L 1074 167.7 L 1081.6 139 L 1109.1 129 L 1178.2 149.4 L 1195.9 144.1 L 1276.3 145.4 L 1348.4 150.5 L 1372.7 167.9 L 1402.6 175 L 1395.8 186 L 1319.3 212.3 L 1302 231.5 L 1239.8 237.3 L 1221.4 268.3 L 1170 261.8 L 1136.5 271.3 L 1090.2 294.2 L 1096.9 305.6 L 1083 316.7 L 991.3 324 L 931.3 308.3 L 878.7 312 L 883.3 284.1 L 936.1 292.2 L 953.9 277.2 L 990.8 282 L 1053 247 L 995.4 221.5 L 960.9 233.6 L 925.1 215.3 L 965.8 183.9 L 951.4 179.1 Z" />
<path class="neighbor" d="M 55.5 202.5 L 76.9 186.4 L 132 176.3 L 164.8 189.9 L 198.8 227.9 L 223.7 225.6 L 278.4 224.9 L 270.5 200.5 L 311.9 183.7 L 352.8 155.5 L 418.2 181.2 L 423.4 219.9 L 442 229.8 L 494.4 227.6 L 510.7 236.4 L 534.6 286.5 L 590.1 320 L 621.7 342.8 L 672.5 366.6 L 737.1 387.4 L 735.7 417.1 L 721.1 415.6 L 698.2 402.6 L 690.6 419.9 L 649.7 429.2 L 640 468.1 L 612.7 482.8 L 574.3 490.1 L 564.2 512.1 L 527.6 518.6 L 478.1 500.2 L 473.9 459.3 L 437.7 457.6 L 382.2 414.6 L 343.5 409.3 L 289.8 384.7 L 255.3 380.2 L 234 389.3 L 201.5 387.9 L 167 415.6 L 124.4 425 L 115.3 390.7 L 122.4 339.9 L 84.5 323.5 L 97 290.3 L 64.8 287.4 L 75.5 246.5 L 121.3 258.4 L 163.9 242.9 L 128.6 213.8 L 114.7 186 L 75.6 198.4 L 70.6 234 L 55.5 202.5 Z" />
<path class="neighbor" d="M -135.5 777.9 L -162.3 752.4 L -162.8 726.6 L -178.3 726.6 L -170.3 691.4 L -195.3 654.6 L -254.8 628 L -288.4 581.8 L -277.2 544 L -252.7 527.2 L -256.4 498.9 L -288.2 484.3 L -319.7 426.4 L -319.7 426.4 L -346.2 387.5 L -336.7 372.5 L -351.9 316.8 L -318.6 303 L -310.9 321.3 L -286.4 343.7 L -253.1 350.2 L -235.5 348.7 L -178.3 312.9 L -160.1 309.3 L -145.8 323.6 L -162.5 347.6 L -132.2 373 L -120.2 370.6 L -104.8 406.4 L -58.8 416.5 L -25.1 440.8 L 43.9 449.2 L 119.7 436.4 L 124.4 425 L 167 415.6 L 201.5 387.9 L 234 389.3 L 255.3 380.2 L 289.8 384.7 L 343.5 409.3 L 382.2 414.6 L 437.7 457.6 L 473.9 459.3 L 478.1 500.2 L 458.3 560.7 L 445 596 L 466.1 603.1 L 445.4 629.7 L 461.3 668.5 L 465.1 699.3 L 501.8 707.4 L 505.8 738.7 L 461.8 782.7 L 485.8 808.2 L 505.3 837.5 L 551.7 858.9 L 553.1 901.6 L 576.3 909.5 L 580.3 931.8 L 510.3 956.9 L 492 1013.3 L 400.7 998.6 L 347.8 987.4 L 293 981.1 L 272.3 921.6 L 249.1 913 L 211.8 921.7 L 162.9 945.2 L 103.6 929.1 L 54.6 891.8 L 7.8 878 L -24.6 831.9 L -60.4 767.2 L -86.5 775.1 L -117.3 759 L -135.5 777.9 Z" />
<path class="neighbor" d="M 2820.5 1347.2 L 2780.7 1332.1 L 2779.3 1290.4 L 2803.2 1268.4 L 2856.2 1254.8 L 2884.1 1255.9 L 2895 1274.5 L 2873.6 1295.8 L 2862.4 1323.8 L 2820.5 1347.2 Z M 1402.6 175 L 1398.7 147.4 L 1432 134.7 L 1388.3 50.4 L 1484.5 31 L 1509.3 20.2 L 1544.3 -66.7 L 1640.6 -50.7 L 1667.6 -72.6 L 1669.9 -121.3 L 1710.2 -125.8 L 1747.2 -158.1 L 1766.2 -162.1 L 1778.9 -128.3 L 1819.7 -102.5 L 1888.9 -84.3 L 1922.4 -45.2 L 1903.7 11.5 L 1921.2 32.5 L 1978.9 40.8 L 2044.2 47.6 L 2102.9 77.8 L 2132.9 83.2 L 2155 128 L 2183.5 156.8 L 2237 155.7 L 2337.1 166.5 L 2401.7 159.8 L 2449.6 167 L 2521.4 196.5 L 2580.1 196.5 L 2601.6 211.5 L 2658.1 185.5 L 2736.5 168.6 L 2809.2 166.8 L 2865.9 149.7 L 2900.8 123.7 L 2934.7 107.4 L 2926.9 91.4 L 2911.4 72.7 L 2936.9 41.5 L 2964.2 45.9 L 3014.1 55.7 L 3062.4 29.9 L 3136.4 11.1 L 3172 -21 L 3206.1 -34.8 L 3276.6 -41.2 L 3314.9 -35.7 L 3320.2 -53 L 3276.3 -86.9 L 3237.3 -102.4 L 3200 -84.5 L 3152.1 -92.1 L 3124.7 -85.9 L 3112.2 -105.8 L 3146.4 -154.2 L 3170.1 -190.8 L 3228.3 -172.5 L 3296.7 -203.2 L 3296.3 -224.5 L 3340.1 -276 L 3367.1 -291.6 L 3366.5 -318.4 L 3339.9 -329.9 L 3379.9 -354 L 3440.2 -362.8 L 3504.6 -364.1 L 3577.2 -349.7 L 3619.8 -331.8 L 3649.8 -282.8 L 3668 -262 L 3684.9 -232.1 L 3702.9 -184.6 L 3787.4 -169.1 L 3844.8 -134.6 L 3864.5 -89 L 3938.2 -88.9 L 3980.3 -108.1 L 4060.5 -122.4 L 4035 -78.7 L 4016.2 -61 L 3999.5 -7.8 L 3966.9 39.4 L 3908 30.8 L 3866.3 48 L 3879.1 89.5 L 3872.1 146.9 L 3847.3 148.2 L 3847.6 172.8 L 3816.3 144.2 L 3797 171.4 L 3722 192.3 L 3729.6 217.9 L 3687.7 216.1 L 3664.6 200.9 L 3631.3 235.3 L 3577.8 261.4 L 3538.3 292.5 L 3470.4 306.7 L 3434.7 329.3 L 3382.4 342.6 L 3408.2 320.1 L 3398.1 301.2 L 3436.5 268.6 L 3410.9 243.1 L 3368.6 260.3 L 3313.8 294 L 3283.9 325.4 L 3236.3 327.7 L 3211.5 350.3 L 3237.1 383.2 L 3276.8 391.1 L 3278.4 412.9 L 3316.8 427.1 L 3371.2 392.4 L 3414.3 411.3 L 3445.7 412.6 L 3453.6 438 L 3384.8 451.6 L 3362.2 477.8 L 3315 502.1 L 3290.1 536.1 L 3342.3 562.8 L 3361.4 610.5 L 3390.9 655 L 3423.9 692.3 L 3423.1 728.3 L 3392.6 741.6 L 3404.2 767.5 L 3432.8 782.5 L 3425.3 822 L 3413 860.5 L 3385.9 864.9 L 3350.5 917.4 L 3311.1 981.1 L 3266.1 1039 L 3199.3 1083.8 L 3131.8 1124.7 L 3077.1 1130.2 L 3047.5 1151.8 L 3030.7 1136 L 3003.2 1160.2 L 2935.4 1184.5 L 2884.1 1191.9 L 2867.5 1243.2 L 2840.6 1246 L 2827.9 1210.8 L 2839.4 1192 L 2774.3 1176.5 L 2751.3 1184.4 L 2702.5 1171.8 L 2679.3 1152.1 L 2687 1124.1 L 2642.7 1115.2 L 2619.3 1097 L 2577.9 1122.9 L 2530.7 1128.5 L 2492 1128.2 L 2466 1140.1 L 2440.8 1147.2 L 2448.1 1202.7 L 2422.3 1201.4 L 2417.9 1190 L 2416.4 1169.9 L 2380.8 1184.1 L 2359.8 1175.1 L 2323.8 1156.9 L 2337.9 1116.6 L 2307.2 1107.2 L 2295.6 1062.5 L 2244.4 1070.6 L 2250.2 1013 L 2296.2 972.5 L 2298.1 932.4 L 2296.7 895.3 L 2275.5 883.7 L 2259.3 855.2 L 2230.9 858.8 L 2178.6 851.5 L 2195 831.1 L 2172.2 800.9 L 2137.6 821.4 L 2096.9 809.5 L 2041 840.4 L 1996.8 876.5 L 1957.6 882.5 L 1936.4 869.5 L 1910.8 868.3 L 1876.1 857.1 L 1849.9 869.4 L 1817.8 905.5 L 1813.7 867.2 L 1784.1 877.4 L 1727.5 872.7 L 1672.6 861.6 L 1633.2 840.3 L 1595.5 830.7 L 1579.2 807.4 L 1551.9 800.4 L 1502.9 768.8 L 1464 753.9 L 1443.9 765.5 L 1376.5 731.6 L 1328.8 700.8 L 1315.2 647.3 L 1350 653.8 L 1351.6 629.1 L 1332.3 604.2 L 1337.2 564.6 L 1285 507.8 L 1205.2 488.1 L 1190.9 450.8 L 1155 428.2 L 1146.4 414.3 L 1139.1 386.6 L 1140.8 367.8 L 1111.3 356.7 L 1095.3 361.6 L 1083 316.7 L 1096.9 305.6 L 1090.2 294.2 L 1136.5 271.3 L 1170 261.8 L 1221.4 268.3 L 1239.8 237.3 L 1302 231.5 L 1319.3 212.3 L 1395.8 186 L 1402.6 175 Z" />
<path class="neighbor" d="M -796.1 805.6 L -742.1 813.3 L -721.1 798.4 L -709.5 780.9 L -672.4 774.2 L -664.5 758 L -648.4 749.7 L -696.8 701.2 L -599.6 676.8 L -590.3 669.5 L -531.9 682.7 L -459.6 716.6 L -322.7 814.2 L -232.5 818.1 L -189.2 822.8 L -177.2 845.9 L -142.8 844.7 L -123.8 886.5 L -100 897.6 L -91.6 914.6 L -58.6 935 L -55.6 955.1 L -60.5 971.2 L -54.3 987.5 L -40.4 1001.1 L -33.9 1017.1 L -26.6 1029 L -12 1038.6 L 1.5 1035.1 L 10.7 1053.7 L 12.5 1064.9 L 31.1 1114.1 L 177 1138.5 L 186.8 1128.3 L 209 1162.6 L 176.7 1259.7 L 31.1 1308.2 L -108.8 1326.8 L -154.1 1348.7 L -188.9 1399.6 L -211.6 1407.7 L -223.7 1391.6 L -242.3 1394 L -289.2 1389.1 L -298.1 1384.3 L -354.1 1385.4 L -367.3 1389.8 L -387.2 1377.2 L -400.1 1401 L -395.1 1421.5 L -416.4 1437 L -422.7 1416.2 L -437.3 1401.6 L -441.1 1382.3 L -466.1 1364.9 L -492 1324.2 L -505.7 1284.6 L -539.3 1251.2 L -560.9 1243.3 L -593 1197 L -598.7 1163.3 L -596.6 1134.5 L -624.4 1080.7 L -647.2 1061.8 L -673.4 1051.7 L -689.4 1023.9 L -686.7 1012.9 L -700.2 987.8 L -714.4 977 L -733.3 940.8 L -762.9 901.7 L -787.6 868.4 L -811.8 868.6 L -804.2 842 L -802.1 825 L -796.1 805.6 Z" />
<path class="lake" d="M 1307.6 163.5 L 1307.1 164.6 L 1300.6 165.3 L 1293.6 168.4 L 1286.7 171.2 L 1285.7 172.5 L 1285.8 174.2 L 1279.2 180.3 L 1273.3 182.3 L 1269.4 183.2 L 1251 183.8 L 1245.5 183.6 L 1240.6 182.8 L 1223.9 177.9 L 1216.8 176.5 L 1211.8 176 L 1208.6 176.1 L 1206.9 173.1 L 1206.3 170.9 L 1206.9 169.7 L 1217.8 168.3 L 1232.1 164.6 L 1242.7 162.3 L 1253.6 160.6 L 1260.8 159.5 L 1270.4 160.4 L 1277.6 158 L 1296 156.7 L 1305 156.4 L 1300.3 159.4 L 1298.7 160.9 L 1299.5 162.5 L 1307.6 163.5 L 1307.6 163.5 L 1307.6 163.5 Z" />
<path class="lake" d="M 315.7 203 L 313.4 206.6 L 307 209.7 L 299.3 211.7 L 294.6 212.5 L 290.5 212.7 L 285.8 208.9 L 282.2 204.9 L 279.4 205 L 276.8 205.4 L 276.4 203 L 278.3 193.5 L 282.6 183 L 287 177.3 L 292.8 175.8 L 300.4 179.4 L 304.2 184.7 L 303.5 186.9 L 304.4 188.8 L 306.9 191.5 L 307.7 196.3 L 314.8 199.9 L 315.7 203 L 315.7 203 L 315.7 203 Z" />
<path class="lake" d="M 1064.4 203.7 L 1063.2 203.9 L 1060.1 204.4 L 1055.5 203.8 L 1048.9 203.9 L 1042.5 204.6 L 1034.7 208.4 L 1033.5 208.2 L 1032.6 207.2 L 1033.7 206.5 L 1035.2 205.2 L 1036.1 203.3 L 1035.1 200.6 L 1033.7 198.1 L 1035 196.9 L 1041.4 197 L 1047.4 197.9 L 1050.8 199 L 1054.4 200.3 L 1061.9 201.7 L 1064.8 202.9 L 1064.4 203.7 L 1064.4 203.7 L 1064.4 203.7 Z" />
<path class="lake" d="M 1453.5 743.5 L 1452.6 744.5 L 1450.9 744.9 L 1448.8 744.7 L 1446.2 743.6 L 1444.6 742.3 L 1445.8 741 L 1447.5 739.4 L 1447.5 735.4 L 1448.2 733 L 1449.9 732.5 L 1451.9 733.7 L 1452.8 734.7 L 1452.9 736.1 L 1450.8 737.8 L 1452 740 L 1453.5 742.3 L 1453.5 743.5 L 1453.5 743.5 L 1453.5 743.5 L 1453.5 743.5 Z" />
<path class="lake" d="M 1466.9 740.4 L 1465.3 742.6 L 1462.5 744.8 L 1459.6 745.7 L 1457.5 744.8 L 1456.6 742.4 L 1456.8 737.6 L 1458.4 736.6 L 1460.8 736.8 L 1464 737.6 L 1466.4 738.8 L 1466.9 740.4 L 1466.9 740.4 L 1466.9 740.4 L 1466.9 740.4 Z" />
<path class="lake" d="M 807.2 228.2 L 807.2 228.2 L 807.2 228.2 L 807.2 228.2 L 815.5 230.9 L 819.4 231.4 L 826.7 232.7 L 829.7 235.4 L 827.2 236.8 L 821.2 238 L 814.2 238.2 L 808.8 235.7 L 804.4 229.6 L 807.2 228.2 Z" />
<path class="lake" d="M 1204.1 682.2 L 1204.1 682.2 L 1204.1 682.2 L 1204.1 682.2 L 1199.8 681.8 L 1194.6 678.7 L 1192.9 674.4 L 1192.7 670.6 L 1195 669.9 L 1200.5 673.8 L 1204.2 679.2 L 1204.1 682.2 Z" />
<path class="lake" d="M 1314.4 583.2 L 1314.4 583.2 L 1314.4 583.2 L 1314.4 583.2 L 1316.7 581.5 L 1324.9 589.2 L 1329.7 592.5 L 1339.5 592.8 L 1340.3 593.7 L 1337.3 595 L 1328.6 595.9 L 1319.7 587.5 L 1314.4 583.2 Z" />
<path class="country" d="M 735.7 417.1 L 762.8 417.4 L 799.4 427.6 L 814.2 433.5 L 849.3 418 L 865.7 427.3 L 881.3 405.1 L 910.3 406.1 L 917.8 399 L 922.9 379.4 L 943.8 362.5 L 970.1 373.6 L 964.8 388.4 L 979.5 390.7 L 975 431.5 L 994.2 447.4 L 1011.1 437.2 L 1032.6 432.4 L 1062.9 410.6 L 1096.3 414.2 L 1146.4 414.3 L 1155 428.2 L 1126.7 433.7 L 1102.1 442.6 L 1046.4 448.3 L 994.3 458.5 L 965.9 479.6 L 977.4 500.2 L 983 524.3 L 958.8 544.7 L 960.8 563.3 L 947.5 580.8 L 901.3 579.3 L 920.4 611.4 L 889.5 623.7 L 868.9 653 L 871.6 682.1 L 852.6 695.8 L 834.6 691.2 L 797.5 697.6 L 792.2 711.1 L 756.1 711.1 L 729.1 738.5 L 727.4 779.8 L 664.3 800 L 630.5 795.7 L 620.7 806.4 L 591.7 800.2 L 543.1 807.5 L 461.8 782.7 L 505.8 738.7 L 501.8 707.4 L 465.1 699.3 L 461.3 668.5 L 445.4 629.7 L 466.1 603.1 L 445 596 L 458.3 560.7 L 478.1 500.2 L 527.6 518.6 L 564.2 512.1 L 574.3 490.1 L 612.7 482.8 L 640 468.1 L 649.7 429.2 L 690.6 419.9 L 698.2 402.6 L 721.1 415.6 L 735.7 417.1 Z" />

<path class="river" d="M 1039.7 550.1 L 1042.2 562.2 L 1042.9 567.7 L 1042.4 570.6 L 1040.6 573.1 L 1036 576.1" />
<path class="river" d="M 1064.8 202.9 L 1047 202.2 L 1039.1 203.5 L 1033.5 208.2" />
<path class="river" d="M 1452.8 736 L 1448.2 733 M 1233 706 L 1231.9 709.7 L 1230.6 711.4 L 1228.4 712.4 L 1224.8 711 L 1217 705.4" />
<path class="river" d="M 921.9 267.9 L 920.1 271.1 L 913.7 273 L 896.3 275.8 M 829.7 235.4 L 816 234.3 L 810.1 232.5 L 807.7 230.2 L 807.2 228.2 M 504.8 -3.1 L 495.2 -7.4" />
<path class="river" d="M 817.9 433.6 L 810.9 437.1 L 805.6 436 L 799.6 431.6 L 796.3 427.9 L 795.6 425 L 793 423.6 L 788.6 423.9 L 785.6 423.2 L 784.2 421.7 L 780.5 422.1 L 774.6 424.5 L 768.6 423.3 L 762.4 418.4 L 750.7 416.6 L 733.4 417.9 L 715.8 414.5 L 697.8 406.4 L 685.3 401.6 L 678.4 400.1 L 672.7 396 L 668.4 389.2 L 657.5 381.9 L 640.1 374.1 L 626.7 365.2 L 617.2 355 L 611.2 347.3 L 608.8 342.2 L 600.1 335.2 L 585 326.3 L 574.6 321.6 L 568.9 320.9 L 565.6 318.2 L 564.9 313.3 L 559.9 308.1 L 550.9 302.5 L 544.2 296.6 L 537.8 287.3 L 534.6 273 L 530.9 266.4 L 525.6 262.8 L 521 255.9 L 517.3 245.7 L 514.2 239.1 L 511.7 236 L 506.7 232.6 L 499.2 228.9 L 492 227.1 L 485.2 227.3 L 480.7 226 L 478.3 223.1 L 469.4 216.9 L 453.8 207.5 L 444.9 200.5 L 442.7 195.9 L 439.7 193.1 L 436 192 L 433.5 190.1 L 432.2 187.2 L 429.2 184.1 L 424.3 180.7 L 416.9 177.9 L 407 175.4 L 399.3 171.8 L 393.9 167 L 389.6 164.2 L 386.5 163.3 L 385.4 161.3 L 386.3 158.2 L 385.3 155.9 L 382.3 154.5 L 381 152.8 L 381.6 150.7 L 380.7 148.1 L 378.4 145.2 L 377.6 142.2 L 378.2 139.4 L 377.6 136.1 L 375.8 132.3 L 375.4 129.5 L 375.5 129.2 M 375.6 129.3 L 375.5 129.2 M 375.5 129.2 L 376.3 127.7 L 375.6 125.1 L 373.4 121.8 L 372.6 119.3 L 373.2 117.6 L 375.9 116.2 L 380.7 115.3 L 383.2 112.8 L 383.4 108.7 L 381 104.4 L 376 99.8 L 374.8 96.4 L 377.3 94.2 L 383.2 91.7 L 397.1 87.8 M 375.5 129.2 L 371 122.9 L 370.5 118 L 372.4 112.3 L 371.7 108 L 368.5 105 L 362.6 102.8 L 354.1 101.2 L 350 97.5 L 350.2 91.7 L 347.1 85.1 L 337.6 74.3" />
<path class="river" d="M 1008.5 717 L 1008.5 720.2 L 1006.7 723.5 L 1001.5 730.3 L 990.6 744.6 L 986.1 746.1 L 981.2 749.7 L 974.3 755.9 L 968.6 764.4 L 963.9 775.1 L 961.6 782.7 L 961.6 787.2 L 959.5 791.4 L 955.6 795.2 L 954 798.4 L 955 801 L 954.9 803.9 L 953.9 807.1 L 952.6 809.6 L 951 811.4 L 948.9 812.2 L 946.3 812.1 L 943.4 814.3 L 940.2 818.8 L 937.9 821.1 L 934.4 821.8 M 1265.5 663.1 L 1250.9 655.2 L 1241.5 648.5 L 1233.1 644.8 L 1222.7 641.6 L 1217.1 636.5 L 1216.4 629.3 L 1212.3 622.9 L 1204.7 617 L 1196.8 613.1 L 1188.8 611.2 L 1184.2 610.8 L 1183.1 612 L 1183.5 614 L 1185.6 616.8 L 1186.2 619 L 1185.6 620.5 L 1180.2 621.4 L 1170 621.8 L 1162.3 620.4 L 1156.9 617.1 L 1153.2 616.8 L 1151.2 619.6 L 1147.3 620.5 L 1141.4 619.8 L 1138 622.8 L 1137.1 629.7 L 1127.1 639 L 1107.9 651 L 1091.2 659.3 L 1076.9 664 L 1066.5 670.2 L 1057 682.1 L 1049 689.1 L 1043.2 691.9 L 1036.8 693 L 1030 695.7 L 1022.8 700 L 1017.9 703.7 L 1015.3 706.7 L 1013.7 709.9 L 1013.3 713.4 L 1011.9 715.6 L 1008.5 717" />
<path class="river" d="M 1850.2 1149.3 L 1847.4 1138.6 L 1844.8 1134.4 L 1841.3 1132.6 M 1841.3 1132.6 L 1839.4 1134.8 L 1839.2 1141 L 1840.7 1147.7 L 1843.9 1154.9 L 1845.1 1159.8 L 1843.9 1164 L 1843.8 1168.2 L 1843.1 1172.9 L 1843.9 1176.2 M 1799.6 1114.8 L 1796.9 1120.5 L 1795.1 1127 L 1794.9 1132.1 L 1792.3 1136 L 1787.2 1138.6 L 1783.9 1142.7 L 1782.5 1152.1 M 1799.6 1114.8 L 1803.4 1115.3 L 1807.3 1115.3 L 1811.3 1116.4 L 1814.9 1118.2 L 1818.1 1121 L 1819.1 1123.7 L 1818.2 1126.3 L 1819.3 1128.7 L 1822.4 1130.7 L 1825.4 1137.8 L 1829.2 1149.3 L 1829.5 1153.6 L 1829.3 1158.1 M 1878.9 1086.3 L 1880 1097.6 L 1881.5 1101.9 L 1884.1 1104.1 L 1886.4 1105.5 L 1887.1 1107.4 L 1888.2 1108.5 L 1889.8 1109.8 L 1890 1111.5 L 1890.6 1113.4 L 1892.9 1116 L 1892.8 1120.1 L 1894.4 1125 L 1896.4 1126.2 M 1832.1 1066 L 1837.4 1074.9 L 1841.4 1078.6 L 1845.3 1080.4 L 1848.5 1083 L 1851 1086.4 L 1852 1088.6 L 1851.5 1089.9 L 1852.3 1090.7 L 1854.7 1091 L 1855.8 1092.6 L 1855.8 1095.5 L 1856.6 1097.8 L 1857.5 1099.5 L 1857.7 1101.9 L 1858.8 1103.3 L 1861.2 1104.8 L 1861.7 1107.6 L 1863.9 1113.1 L 1871.7 1121.9 L 1875.7 1129.4 L 1876 1135.3 L 1874.6 1140 M 1832.1 1066 L 1836.5 1068.9 L 1840.4 1068.9 L 1845.2 1070.4 L 1850.9 1073.2 L 1856.1 1074.2 L 1863.1 1073 M 1797.5 1046.7 L 1803 1052.9 L 1804.1 1055.5 L 1803.8 1057.5 L 1805.1 1059.3 L 1808.1 1060.8 L 1809.4 1062.7 L 1809.1 1065 L 1811.7 1067.1 L 1817.3 1069.1 L 1820.2 1072.6 L 1820.4 1077.6 L 1818.9 1081.8 L 1815.7 1085.1 L 1815.3 1088.4 L 1817.6 1091.6 L 1819.6 1092.7 L 1821.2 1093.6 L 1822.2 1095.2 L 1823.2 1096.5 L 1826.2 1098 L 1826.9 1101.3 L 1828.1 1105.1 L 1831.1 1108.6 L 1832.3 1112.1 L 1831.6 1115.6 L 1832.3 1119.3 L 1834.2 1123.4 L 1836.9 1126.3 L 1839.8 1128.3 L 1840.1 1128.5 L 1839.9 1129.7 L 1841.3 1132.6 M 1797.5 1046.7 L 1802.4 1048.8 L 1809.4 1049.8 L 1813.4 1052.2 L 1814.3 1056.2 L 1815.6 1058.6 L 1817.4 1059.4 L 1819.9 1059.2 L 1823.2 1058.1 L 1827.2 1060.3 L 1832.1 1066 M 1774.4 1025.5 L 1775.3 1033.3 L 1779.2 1039.3 L 1786.7 1046.7 L 1789.8 1054.2 L 1788.4 1061.7 L 1788.2 1068.3 L 1789.3 1073.8 L 1788.7 1078.2 L 1787.1 1080.1 L 1788.6 1083.2 L 1791.4 1085.6 L 1793 1087.8 L 1795 1088.4 L 1795.8 1091.8 L 1795.3 1097.9 L 1796.5 1101.7 L 1799.1 1103.1 L 1800.9 1105.1 L 1801.8 1107.6 L 1800.5 1112.8 L 1799.6 1114.8 M 1774.4 1025.5 L 1775.6 1029 L 1778.2 1033.5 L 1782.1 1038.9 L 1785.3 1042 L 1789.2 1043.2 L 1792.2 1042.3 L 1794.6 1043.6 L 1797.5 1046.7 M 1382.3 731.3 L 1381.3 733.8 L 1381.7 736.2 L 1383.2 739.4 L 1383.4 741.4 L 1381.9 742.9 L 1377.6 748 L 1373.8 749.1 L 1369.2 747.7 L 1364.3 749.3 L 1356.7 756.3 L 1352.7 759.8 L 1349.2 760.6 L 1344.7 759.8 L 1338.5 760.2 L 1330.6 761.8 L 1325.4 764.6 L 1322.7 768.8 L 1318.2 770 L 1311.7 768.4 L 1306.6 769.9 L 1302.8 774.5 L 1301.2 779.8 L 1301.8 785.7 L 1299.7 790.3 L 1294.9 793.5 L 1294 799.1 L 1297.1 806.8 L 1298.1 814.1 L 1297 821 L 1297.7 828.6 L 1301.5 841.3 L 1304.7 846.1 L 1306.1 849.9 L 1306.7 854.4 L 1309.3 859.2 L 1313.8 864.3 L 1322.2 870.2 L 1334.4 876.6 L 1342.7 880 L 1346.9 880.2 L 1349.6 881.8 L 1350.8 884.9 L 1353.8 887 L 1358.9 888.1 L 1363.1 889.9 L 1366.6 892.4 L 1370.1 897.3 L 1373.6 904.6 L 1377 909.4 L 1382.1 912.9 L 1386.2 913.9 L 1389.9 918.8 L 1394.5 927.9 L 1401.5 937.1 L 1410.9 946.2 L 1416.4 953.1 L 1418.1 957.7 L 1421.6 961.8 L 1426.9 965.3 L 1432.1 966.7 L 1437.5 965.9 L 1444.5 969.1 L 1453.2 976.1 L 1457.7 980.9 L 1457.8 983.5 L 1460.7 985.7 L 1466.3 987.6 L 1470 989.7 L 1471.8 991.9 L 1475.2 992.8 L 1480.1 992.4 L 1482.5 993.4 L 1482.4 997 L 1489.1 1001.9 L 1492.9 1003.2 L 1495.9 1002.7 L 1497.5 1003.8 L 1497.6 1004.5 L 1498 1005.2 L 1498.7 1005.3 L 1499.4 1005.1 L 1500.4 1004.3 L 1501.6 1004.4 L 1502.5 1005.9 L 1503.8 1006.1 L 1505.5 1004.9 L 1508.2 1005.6 L 1511.9 1008.1 L 1513.8 1008.1 L 1514.4 1007.2 L 1515.4 1006.5 L 1517.1 1006.4 L 1525.2 1010.1 L 1529.7 1010.2 L 1533.9 1007.9 L 1536.4 1005.5 L 1537.2 1002.7 L 1539.2 1001 L 1542.3 1000.3 L 1543.3 998.8 L 1542.1 996.3 L 1542.3 994.2 L 1543.8 992.3 L 1547.3 991.9 L 1552.7 992.9 L 1556.9 994.4 L 1559.3 995.5 L 1560.5 994.6 L 1560.5 992.9 L 1560.7 991.1 L 1564.7 988.7 L 1568.1 987.6 L 1570.2 988.4 L 1572.1 990.8 L 1574.6 991.9 L 1577.6 991.7 L 1582.1 989 L 1588.1 983.9 L 1592.4 982 L 1595.1 983.4 L 1597.9 983 L 1600.8 981 L 1604.9 980.8 L 1610.3 982.5 L 1614.9 982.7 L 1618.6 981.2 L 1624.2 980.8 L 1631.7 981.4 L 1638.4 983.9 L 1644.3 988.3 L 1649.1 990.7 L 1652.7 991.1 L 1654.8 991 L 1657 990.6 L 1659.6 990.7 L 1662.6 993.1 L 1666.5 994.1 L 1670.8 993 L 1675.4 994.6 L 1680.2 998.8 L 1685.9 1001.3 L 1692.7 1002.3 L 1699.2 1000.5 L 1705.4 995.8 L 1708.9 995.3 L 1709.5 999 L 1711.1 1001.7 L 1713.6 1003.7 L 1717.2 1003.5 L 1722 1001.2 L 1728 1001.5 L 1735.3 1004.4 L 1740.3 1004.1 L 1743.1 1000.5 L 1746.7 998.5 L 1751.3 997.9 L 1754.8 999.3 L 1757.5 1002.5 L 1761 1004.6 L 1765.3 1005.5 L 1767.5 1007.7 L 1767.6 1011 L 1769.7 1013.9 L 1773.9 1016.4 L 1775.4 1019.2 L 1774.3 1022.3 L 1774.4 1025.5" />
<path class="river" d="M 497.2 715.9 L 504.5 725.2 L 507.5 735.5 L 508.7 749.9 L 517.9 759.3 L 535 763.9 L 549.7 765.1 L 561.9 762.8 L 574.4 757.8 L 587.1 750 L 597.1 746.7 L 604.4 748.1 L 609 748.3 L 611 747.4 L 613.6 744.4 L 616.7 739.5 L 619.3 732.1 L 621.6 722.2 L 624.9 714.3 L 629.4 708.1 L 631.5 702.2 L 631.2 697.8 L 632.4 694 L 635.5 690.5 L 644.6 684.8 L 652.4 677.4 L 658.7 668.5 L 665.1 663.3 L 671.5 661.7 L 678.1 653.7 L 685 639.4 L 692.1 630.6 L 702.9 625.6 L 707.5 622.9 L 711.3 619 L 716.1 613 L 719.9 609.7 L 722.9 609.3 L 725.6 607.4 L 727.8 604.1 L 732.5 600.4 L 739.6 596.4 L 745.9 594 L 751.3 593.3 L 757.1 590.4 L 763.3 585.2 L 767.4 582.6 L 769.6 582.5 L 770.4 580.8 L 769.8 577.5 L 770.2 575 L 772 572.6 L 783.2 565.4 L 794.7 561.1 L 817.9 555.4 L 822.5 556.4 L 825.9 555.6 L 831.4 552.5" />
<path class="river" d="M 800.8 1070.3 L 804 1065.5 M 790.4 1069.5 L 793.6 1067.7 L 793.7 1065.5 L 793.7 1062.4 M 804 1065.5 L 807.6 1065.2 L 808.4 1066 L 808.8 1068.8 L 809.7 1070.8 L 809.4 1072.9 M 804 1065.5 L 803.9 1062.9 L 797.9 1062.7 L 796 1063 L 793.7 1062.4 M 793.7 1062.4 L 791.1 1060.5 M 1377.1 655.8 L 1362.3 641.2 M 1362.7 641.5 L 1358 634.6 L 1352.1 629 L 1343.6 622.3 L 1336.9 619.6 L 1332.2 620.8 L 1324 618.7 L 1304.8 609.5 L 1301.8 607.2 L 1300.3 604.9 L 1300.2 602.5 L 1296.7 598.7 L 1289.6 593.5 L 1282.8 587.2 L 1276.4 579.7 L 1270.1 575.1 L 1260.9 572.5 L 1242.8 566.3 L 1233.8 561.5 L 1227.9 556.1 L 1221.6 552 L 1214.7 549.2 L 1209.7 545.9 L 1206.6 542 L 1205.4 538.5 L 1206 535.4 L 1202.7 531.4 L 1195.6 526.3 L 1191.1 521.6 L 1189.2 517.3 L 1185.7 515.5 L 1180.7 516.2 L 1174.9 514.4 L 1168.3 510.2 L 1164.5 506.9 L 1163.5 504.5 L 1160.1 503.1 L 1154.4 502.7 L 1147.4 501 L 1139.1 498.1 L 1134.7 495.2 L 1134.2 492.3 L 1132.8 491.1 L 1130.5 491.6 L 1129.4 495.5 L 1129.5 502.6 L 1126.7 507.5 L 1121.2 510.1 L 1115.4 511.6 L 1109.5 511.9 L 1101.6 510.6 L 1091.9 507.6 L 1081.6 506 L 1070.8 505.6 L 1064.9 508.9 L 1063.9 515.7 L 1058.8 521.8 L 1049.6 527.2 L 1044.7 531.5 L 1044 534.7 L 1045.2 537.2 L 1048.1 539.2 L 1047.6 541 L 1043.7 542.6 L 1041.2 545 L 1039.7 550.1 M 1036 576.1 L 1033.4 578.7 L 1030.5 579.5 L 1026.4 579.4 L 1021.7 580.3 L 1016.2 582.3 L 1013.3 585.4 L 1013.2 589.5 L 1011.3 591.3 L 1007.8 590.8 L 1005.2 591 L 1003.6 592.1 L 1001.1 596.5 L 997.6 604.3 L 993.9 609.1 L 990.2 610.7 L 988.2 615.5 L 988.1 623.4 L 984.8 629.1 L 978.2 632.5 L 973.8 636.7 L 970.4 643.9 L 969.9 653.9 L 966.5 662.2 L 956.6 677.4 L 946.5 698.2 L 943.5 711.3 L 944.9 729.7 L 942 735 L 942.3 739.6 L 944.6 745.3 L 944.9 750.8 L 943.1 756.3 L 943.1 764.1 L 944.8 774.2 L 943.1 782.9 L 938 790.1 L 936.5 796.2 L 938.6 801.1 L 938.8 805.8 L 937 810.2 L 936.3 814.4 L 936.6 818.2 L 934.4 821.8 L 929.6 825.3 L 926.2 827 L 923.9 827 L 918.6 830.9 L 910.2 838.6 L 902.8 843.5 L 896.4 845.7 L 890.8 849.9 L 886.3 856.2 L 882.1 859.5 L 878.4 860 L 876 861.1 L 875 863.1 L 873.4 863.8 L 871.2 863.4 L 868.2 864.6 L 864.4 867.4 L 861.3 868.7 L 859 868.5 L 857.4 869.5 L 856.5 871.7 L 855.2 872.7 L 853.3 872.4 L 852.7 873.6 L 853.4 876.4 L 852.6 878.6 L 850.5 880.1 L 850.5 881.5 L 852.8 883 L 853.7 884.2 L 853.2 885.1 L 847.7 887.1 L 844.6 886.1 L 841.8 883.1 L 840.1 882.6 L 839.4 884.5 L 835.4 886.6 L 828.3 888.9 L 824 890.7 L 822.5 892.2 L 822.2 895.2 L 823 899.6 L 822 902 L 819.2 902.2 L 817 903.4 L 815.5 905.4 L 815.4 907.2 L 816.7 908.8 L 816.1 909.9 L 813.5 910.6 L 812.4 912.1 L 812.9 914.3 L 810.7 917 L 805.8 920.1 L 803.3 924.4 L 803 932.5 L 802.3 944.9 L 802.7 950.6 L 804 953.9 L 806.7 956.7 L 810.9 959.2 L 813.3 961.7 L 813.9 964.2 L 817.4 968.6 L 823.7 974.7 L 826 978.5 L 824.2 979.9 L 824.5 981.7 L 827 983.9 L 826.9 986.9 L 824.2 990.9 L 823.3 995.5 L 824.1 1000.8 L 824 1004.4 L 822.8 1006.1 L 823.1 1007.7 L 824.7 1009.4 L 824.7 1010.3 L 822.8 1010.6 L 821.5 1012.7 L 820.7 1016.6 L 819.5 1018.1 L 818 1017.2 L 816.5 1018.3 L 815.1 1021.6 L 813.3 1023.2 L 810.9 1023.4 L 808.8 1028.7 L 806.9 1039.2 L 804.5 1044.7 L 801.5 1045.3 L 800.3 1046.4 L 801 1048 L 800.3 1048.9 L 798.2 1049.1 L 797.7 1050.2 L 798.8 1051.9 L 797.3 1054 L 793.2 1056.3 L 791.1 1058.5 L 791 1060.5 L 789.5 1061.8 L 784.9 1062.6 L 781.1 1063.6" />
<path class="river" d="M 1506.5 754.4 L 1522.1 756.7 L 1527.1 756.4 L 1530 758.1 L 1532.6 761.7 L 1543.6 768.3 L 1572.5 782.5 L 1580.5 786 L 1583.3 788.4 L 1583.5 790.9 L 1584.8 793 L 1587.2 794.5 L 1593.3 796 L 1603.1 797.4 L 1608.4 801 L 1609.2 806.7 L 1614.9 810.6 L 1625.6 812.8 L 1633.3 812.2 L 1638.2 808.8 L 1643.6 807.7 L 1652.5 809.6 L 1661.4 813 L 1674.7 813.4 L 1695.5 812 L 1716.8 812.8 L 1738.7 815.7 L 1752.6 816.8 L 1761.8 815.6" />
<path class="river" d="M 1033.5 208.2 L 1018.7 216.4 L 1012.5 222.3 L 1010 228.6 L 1004.3 234.9 L 995.4 241.1 L 982.2 245.1 L 964.5 246.7 L 958.1 248.2 L 956.2 249.2 L 954.5 249.8 L 951.5 250.4 L 946.6 252.4 L 938.6 257 L 921.9 267.9 M 1280.2 197.9 L 1291.8 198.4 L 1293.8 200 L 1288.1 204.1 L 1281.4 210.3 L 1277.1 213 L 1272.8 214.5 L 1257.9 215.4 L 1232.3 215.8 L 1214.7 216.6 L 1200.3 218.7 L 1190.1 218.2 L 1183.6 219.1 L 1177.3 221.1 L 1170.5 221.3 L 1163.4 219.6 L 1150.5 218.9 L 1132.1 219.1 L 1119.9 220 L 1114.2 221.6 L 1107.5 221.1 L 1100 218.4 L 1096.2 215.4 L 1096 211.9 L 1095 209 L 1093.3 206.8 L 1089 204.6 L 1082.1 202.5 L 1075.1 201.8 L 1064.7 202.9" />
<path class="river" d="M 1079.6 413 L 1073.6 411.8 L 1068.9 412.2 L 1060.5 414.8 L 1045.2 421.7 L 1038.5 426.3 L 1033.6 433.3" />
<path class="river" d="M 1033.6 433.3 L 1019.1 435.5 L 1009.2 439.5 L 998.9 446 L 992.1 449.5 L 988.8 450 L 985.5 449.4 L 982.2 447.6 L 979 442.2 L 974.2 428.5 L 977.7 405.4 L 979.7 396.1 L 981.4 392.7 L 981.5 390.5 L 980 389.4 L 976.9 389.4 L 972.1 390.7 L 968.7 390.9 L 966.7 390.1 L 966.9 385.8 L 969.4 377.9 L 965.6 371.2 L 955.7 365.9 L 947.3 364 L 940.4 365.6 L 934.6 369.9 L 929.8 376.8 L 924.9 382.5 L 919.9 386.9 L 916.3 389 L 915.1 389.8 L 914.4 391.7 L 917 397.5 L 916.9 402.4 L 913.8 406.4 L 910.5 408.3 L 906.8 408.1 L 903.9 407.2 L 901.8 405.5 L 896 405.1 L 886.5 405.8 L 880 407.8 L 876.5 411 L 875.5 415.3 L 877 420.6 L 876.3 424.6 L 873.3 427.4 L 870.9 429 L 869 429.4 L 864.9 427 L 858.6 421.7 L 854.2 418.9 L 851.9 418.5 L 850.6 418.7 L 849.1 419.3 L 848.3 420 L 847.6 421.5 L 845.6 422.1 L 842.7 421.7 L 840.1 422.1 L 838.5 423.8 L 834.1 425.8 L 826.4 428 L 822.1 430.4 L 821.4 432.9 L 820.3 434 L 817.9 433.6" />
<path class="river" d="M 1469.6 704 L 1465.2 706.2 L 1462.8 706.4 L 1460.2 704.9 L 1452.7 699.9 L 1449.4 696.6 L 1447.8 693.5 L 1447.6 689.8 L 1448.9 685.7 L 1451.5 682.2 L 1455.6 679.4 L 1456.3 677.2 L 1453.5 675.7 L 1452.2 673.4 L 1452.2 670.4 L 1450.7 666.5 L 1447.6 661.6 L 1439.9 657 L 1427.6 652.6 L 1415.9 650.5 L 1405 650.5 L 1393.9 651.9 L 1377.1 655.8" />
<path class="river" d="M 1456.8 737.6 L 1452.8 735.9 M 1448.2 733 L 1432.4 723.2 L 1425.5 720 L 1420.5 720 L 1415.9 722.6 L 1413 723.3 L 1410.3 722.8 L 1404.3 719.8 L 1395.2 714.4 L 1389 709.6 L 1386 705.2 L 1380.1 702.5 L 1371.3 701.6 L 1363.6 699.1 L 1356.8 695.2 L 1349.7 693.4 L 1342.6 693.6 L 1337.7 692 L 1335.1 688.5 L 1332.3 686.3 L 1329.3 685.2 L 1324.6 686.8 L 1318.2 691 L 1314.9 694 L 1314.5 695.8 L 1312.6 696.7 L 1308.9 696.7 L 1306.7 697.7 L 1306 699.6 L 1300.4 700 L 1289.9 699 L 1281.1 701 L 1274 706.1 L 1268.4 708.6 L 1264.3 708.5 L 1261.5 709.5 L 1260.1 711.5 L 1257.5 712.9 L 1253.9 713.7 L 1248.8 712.6 L 1242 709.5 L 1238.7 707.4 L 1238.8 706.3 L 1237.3 705.8 L 1233 706 M 1217 705.4 L 1214.5 706.1 L 1213.8 707.1 L 1214.1 708.6 L 1221.8 718.9 L 1223.4 723.3 L 1221.4 725.7 L 1213.3 726.4 L 1199.2 725.3 L 1185.7 725.2 L 1172.9 726.1 L 1162.1 724.2 L 1153.3 719.4 L 1146.6 717.3 L 1141.8 717.9 L 1134.1 721.4 L 1123.5 727.8 L 1117.3 731 L 1115.3 731 L 1109.3 737.1 L 1099.2 749.2 L 1089.4 756.8 L 1074.8 761.4 L 1068.8 763.3 L 1066.1 765 L 1064.6 767.1 L 1063.3 767.6 L 1062.1 766.6 L 1057.9 768.4 L 1050.6 773 L 1043.4 776.3 L 1036.2 778.5 L 1032.4 780.4 L 1032 782 L 1028.6 782.7 L 1022.4 782.4 L 1016.7 784.4 L 1011.5 788.7 L 1009.1 791.9 L 1009.6 793.8 L 1007.6 795.9 L 1003.2 798 L 997.1 799.3 L 989.5 799.7 L 984.8 801 L 983.1 803.1 L 980.6 804.4 L 977.4 804.9 L 973.5 804.4 L 968.8 802.9 L 963.4 802.9 L 953.9 807.1" />
<path class="river" d="M 896.3 275.8 L 889.4 274.4 L 883.4 275.2 L 876.2 277.7 L 870.6 278.1 L 866.7 276.5 L 863.5 272.7 L 861 266.7 L 860.4 262.9 L 860.7 261.1 L 860.1 260 L 857.1 257.1 L 847.2 250.4 L 841.7 245.5 L 840.4 242.4 L 837.2 239.5 L 829.7 235.4 M 807.2 228.2 L 808 226.7 L 811 224.2 L 811.8 218.1 L 810.1 208.6 L 810.9 200.1 L 814.1 192.5 L 816.6 188.1 L 817.4 187.2 L 817.7 185.6 L 816.9 184.7 L 816.7 183.2 L 820 180.5 L 821.4 177.3 L 821.1 173.7 L 819.9 170.5 L 817.9 167.7 L 817.7 165.1 L 819.4 162.8 L 820 159.8 L 819.5 156.3 L 818.7 154.7 L 818.5 153.5 L 817.3 152 L 814.2 150 L 813.4 147.9 L 813.9 146.1 L 811.9 143.9 L 804.1 142 L 799.8 137.6 L 798.8 130.8 L 797.4 126.9 L 795.5 125.8 L 794 126.1 L 792.7 127.4 L 791.1 126.8 L 790.4 124.6 L 788.4 123.2 L 785.7 123.1 L 784 121.2 L 783.6 117.6 L 780.6 112.9 L 775.2 107 L 771.6 104.1 L 769.9 104.1 L 768.5 102.7 L 767.6 100.1 L 764.3 97.4 L 758.5 94.8 L 754.3 94.5 L 751.8 96.6 L 747.9 96.9 L 742.8 95.7 L 739.8 95.5 L 737.7 94.5 L 736.4 90 L 734.5 87.6 L 732 87.3 L 730.8 86.2 L 731 84.4 L 729.1 81.9 L 725.1 78.9 L 723.3 77 L 719.7 74.3 L 711.5 72.8 L 709.3 70.2 L 708.5 68.8 L 706.5 66.6 L 702.5 63.9 L 700.5 61.6 L 700.4 59.9 L 697.8 58.6 L 691.9 58.2 L 686 55.3 L 680 50 L 673.2 46.8 L 665.5 45.8 L 660.3 45.8 L 657.4 46.9 L 651.5 46.3 L 642.7 43.9 L 636.1 40.9 L 631.7 37.3 L 629.7 35.1 L 628.9 33.3 L 626.1 32.8 L 624.2 30.8 L 623.1 27.3 L 618.9 24.8 L 611.7 23.1 L 607.8 21.6 L 607.1 20.2 L 607.5 18.9 L 609 17.6 L 607.5 15.7 L 603 13.4 L 601.4 11.8 L 598.9 11.6 L 581.3 15.6 L 571 15.7 L 565.2 12.4 L 560.1 11.5 L 555.7 12.9 L 552 12.9 L 549.1 11.5 L 547.2 9.6 L 546.3 7.2 L 543.9 6.9 L 539.9 8.9 L 534.7 9.6 L 528.4 8.9 L 522.6 10 L 517.4 12.6 L 511.4 12.2 L 504.8 8.7 L 502 6 L 503.1 4 L 504.9 2.6 L 507.5 1.9 L 507.8 0.3 L 504.8 -3.1 M 495.2 -7.4 L 480.7 -4.6 L 472.4 -4.9 L 462 -8.8" />
<path class="river" d="M 1433.1 266.4 L 1439.8 263.9 L 1444.8 263.1 L 1450.3 263.2 L 1455.1 261.2 L 1459.4 257.1 L 1465 254.8 L 1472.2 254.2 L 1477.8 252.6 L 1482 249.8 L 1492.9 246.1 L 1510.6 241.2 L 1523.4 240.3 L 1531.3 243.5 L 1539.6 244 L 1548.2 241.9 L 1557.7 240.6 L 1567.9 240.1 L 1574.1 240.5 L 1576.1 241.8 L 1579.1 240.7 L 1582.9 237.2 L 1588.5 234.2 L 1596 231.7 L 1607.2 231.1 L 1622.2 232.4 L 1631.9 234.3 L 1636.4 236.8 L 1643.2 239.2 L 1652.4 241.3 L 1662.6 240.9 L 1673.8 237.9 L 1683 237.1 L 1690.2 238.5 L 1697.4 238.7 L 1704.8 237.7 L 1705.7 235.7 L 1700.2 232.6 L 1697.9 230.5 L 1699.2 228.8 L 1699.7 227 L 1699 226.7 L 1697.4 227.2 L 1694.1 226.1 L 1689.1 223.5 L 1684.1 222 L 1679.2 221.7 L 1675.2 219.9 L 1672.1 216.5 L 1670.8 212.8 L 1671.2 208.9 L 1672.9 206.2 L 1675.7 204.7 L 1679.9 204 L 1685.3 204.1 L 1689.2 203.1 L 1691.5 201 L 1696 200.8 L 1702.7 202.4 L 1709 202.5 L 1717.7 200.5" />
<path class="river" d="M 1309.4 730 L 1296.4 738.6 L 1292.3 746.8 L 1290.1 749.3 L 1288.6 748.6 L 1283.9 749.6 L 1276.2 752.3 L 1272.3 755.4 L 1272.1 760.9 L 1270 764.6 L 1265.9 768.2 L 1259 773.1 L 1253.5 780.6 L 1249.3 790.9 L 1248 796.8 L 1249.5 798.6 L 1249.6 800.2 L 1249 801.1 L 1248.9 802.2 L 1250.2 803.4 L 1251.4 806.4 L 1251.1 813.7 L 1251.9 819.7 L 1254.1 824.6 L 1255.1 829.8 L 1255.2 835.3 L 1256.5 840.1 L 1260.3 846.2 L 1266.5 850.8 L 1268.1 853.3 L 1267.4 855.2 L 1267.9 857.8 L 1269.7 861 L 1269.7 864.3 L 1268 867.6 L 1268.5 872.2 L 1271.2 878.3 L 1273.9 881.3 L 1276.5 881.3 L 1277.5 883.6 L 1276.6 888.3 L 1276.8 890.8 L 1278 891.2 L 1278.4 892.3 L 1277.9 894.1 L 1278.9 897.3 L 1281.5 902 L 1284.3 905.2 L 1287.1 906.9 L 1289 907.2 L 1290.1 906.1 L 1291.3 905.9 L 1292.6 906.7 L 1293.5 908.1 L 1293.9 910.2 L 1296.2 911.1 L 1300.5 910.8 L 1302.8 912 L 1303.1 914.5 L 1305 915.3 L 1307.1 914.8 L 1307.9 915.4 L 1308.1 916.2 L 1308.8 917 L 1311.5 917.2 L 1314.1 918.8 L 1316.6 921.9 L 1317.6 922.3 L 1318.2 921.9 L 1319.3 922 L 1322.5 924.3 L 1325.1 925.1 L 1327.2 924.3 L 1330.7 925.8 L 1335.6 929.6 L 1338.9 931.5 L 1340.8 931.5 L 1342.6 933.5 L 1344.6 937.5 L 1348 940.4 L 1353.1 942.2 L 1354.2 943.7 L 1354.2 945 L 1353.7 945.6 L 1354.4 946.9 L 1355.1 947.5 L 1356.6 947.8 L 1361 947.3 L 1364.4 948.3 L 1365.4 950.5 L 1366.6 951.1 L 1367.5 951.3 L 1367.9 952.3 L 1367.6 953.7 L 1370.2 956.7 L 1376 961 L 1380.5 963.3 L 1383.6 963.7 L 1385.7 963.1 L 1386.7 962.4 L 1387.4 962.4 L 1387.9 963.9 L 1389.5 965 L 1392.4 965.1 L 1393.9 966 L 1393.9 967.7 L 1395.5 969.5 L 1400.2 972.4 L 1411.4 973.9 L 1415.4 974.8 L 1415.9 975.7 L 1415.4 976.5 L 1413.7 977.3 L 1415.4 979.1 L 1420.6 982 L 1424.8 983 L 1428 982.1 L 1430.9 982.2 L 1433.5 983.3 L 1435.1 984.6 L 1435.8 986.4 L 1437 987.1 L 1438.8 986.8 L 1439.6 987.7 L 1439.4 989.7 L 1441.4 991.3 L 1445.4 992.5 L 1447.3 994.5 L 1447.1 997.3 L 1449.3 999.2 L 1454 1000.3 L 1456.8 1001.6 L 1457.9 1003 L 1461.4 1002.7 L 1467.5 1000.7 L 1472.2 1000 L 1475.5 1000.7 L 1477.5 1000 L 1478.3 997.9 L 1479.6 996.9 L 1482.4 996.9" />
<path class="river" d="M 1269.9 506.5 L 1275.3 503.5 L 1277.6 501.1 L 1278.8 497 L 1272.8 490.2 L 1273.4 484.6 L 1278.6 478.1 L 1278.4 473.7 L 1272.9 471.4 L 1269.2 468.3 L 1267.2 464.3 L 1261.8 462 L 1252.7 461.3 L 1245.2 461.8 L 1239.1 463.7 L 1233.8 464.4 L 1229.4 464 L 1221.1 462.3 L 1218.4 460.5 L 1217 457.8 L 1212.4 454.7 L 1204.7 451.4 L 1198.7 446.5 L 1194.4 440 L 1193.3 434.1 L 1195.5 428.8 L 1195.3 424.4 L 1193 421.4 L 1193.5 420.5 L 1194.4 420 L 1196.2 420.3 L 1198.6 420.8 L 1202.8 419.6 L 1206.2 416.1 L 1207 409.3 L 1205 399.1 L 1206.4 392.2 L 1211.1 388.6 L 1215.4 386.6 L 1219.1 386.5 L 1221.2 387.2 L 1221.7 388.7 L 1224.8 390.1 L 1230.6 391.2 L 1240.8 386.3 L 1255.6 375.2 L 1262.3 366.7 L 1261 360.8 L 1263.3 354.3 L 1269.2 347.4 L 1272 342.2 L 1271.6 338.9 L 1272.5 335.7 L 1274.7 332.5 L 1276.9 330.8 L 1279 330.5 L 1283.3 327.7 L 1289.9 322.3 L 1298.8 317 L 1310.1 311.8 L 1322.4 308.6 L 1335.7 307.4 L 1346.4 305.6 L 1354.3 303 L 1370.4 295.8 L 1394.7 283.8 L 1408.3 275.8 L 1411.2 271.6 L 1417.8 268.7 L 1433.1 266.4" />
<g class="city"><circle cx="1255.4621794802567" cy="838.8447385909035" r="5" /><text x="1267.4621794802567" y="842.8447385909035">Delhi</text></g>
<g class="city"><circle cx="758.4972970549154" cy="1023.2654390093292" r="5" /><text x="770.4972970549154" y="1027.2654390093292">Karachi</text></g>
<g class="city"><circle cx="1115.6917572171155" cy="698.589047354548" r="5" /><text x="1127.6917572171155" y="702.589047354548">Lahore</text></g>
<g class="city"><circle cx="864.9396073631004" cy="555.0942985583063" r="5" /><text x="876.9396073631004" y="559.0942985583063">Kabul</text></g>
<g class="city"><circle cx="1405.4249002604174" cy="946.099615997651" r="5" /><text x="1417.4249002604174" y="950.099615997651">Kanpur</text></g>
<g class="city"><circle cx="1186.5463172672278" cy="923.7199757642009" r="5" /><text x="1198.5463172672278" y="927.7199757642009">Jaipur</text></g>
<g class="city"><circle cx="1434.3014374010827" cy="926.9276332815161" r="5" /><text x="1446.3014374010827" y="930.9276332815161">Lucknow</text></g>
<g class="city"><circle cx="398.39112598992773" cy="470.00212446028945" r="5" /><text x="410.39112598992773" y="474.00212446028945">Mashhad</text></g>
<text class="map-title" x="80" y="105">Afghanistan Physical Study Map</text>
<text class="map-subtitle" x="80" y="145">Landmark: Band-e Amir | Study terrain and water systems</text>
  <text class="footer" x="80" y="1036">Made with Natural Earth. Free vector and raster map data @ naturalearthdata.com.</text>
</svg>
