<?xml version="1.0" encoding="UTF-8"?>
<svg xmlns="http://www.w3.org/2000/svg" width="1600" height="1100" viewBox="0 0 1600 1100" role="img" aria-labelledby="title desc">
  <title id="title">Angola Political Study Map</title>
  <desc id="desc">Made with Natural Earth. Free vector and raster map data @ naturalearthdata.com.</desc>
  <defs>
    <linearGradient id="terrain" x1="0" x2="1" y1="0" y2="1">
      <stop offset="0%" stop-color="#6c8c53" />
      <stop offset="42%" stop-color="#d5c487" />
      <stop offset="72%" stop-color="#b88b5f" />
      <stop offset="100%" stop-color="#f1f5ee" />
    </linearGradient>
    <filter id="softShadow" x="-10%" y="-10%" width="120%" height="120%">
      <feDropShadow dx="0" dy="10" stdDeviation="12" flood-color="#0f172a" flood-opacity="0.16" />
    </filter>
    <style>
      .neighbor { fill: #ffffff; stroke: #94a3b8; stroke-width: 1.2; opacity: 0.72; }
      .country { fill: #f7f1df; stroke: #1f2937; stroke-width: 4; filter: url(#softShadow); }
      .admin1 { fill: none; stroke: #64748b; stroke-width: 1.1; stroke-dasharray: 6 7; opacity: 0.75; }
      .river { fill: none; stroke: #1d9bd1; stroke-width: 3; stroke-linecap: round; opacity: 0.88; }
      .lake { fill: #8ed1ea; stroke: #0ea5e9; stroke-width: 1.5; opacity: 0.8; }
      .city circle { fill: #ef4444; stroke: #ffffff; stroke-width: 2; }
      .city text, .terrain-label { fill: #172033; font: 700 24px system-ui, sans-serif; paint-order: stroke; stroke: #ffffff; stroke-width: 5; stroke-linejoin: round; }
      .map-title { fill: #0f172a; font: 800 46px system-ui, sans-serif; }
      .map-subtitle { fill: #475569; font: 600 24px system-ui, sans-serif; }
      .footer { fill: #64748b; font: 500 18px system-ui, sans-serif; }
    </style>
  </defs>
  <rect width="100%" height="100%" fill="#eaf3f8" />
  <rect x="40" y="40" width="1520" height="1020" rx="32" fill="#ffffff" opacity="0.54" />
  <path class="neighbor" d="M 6327.8 751.5 L 6327.8 768.1 L 6306.1 776.5 L 6284.3 783.7 L 6280 771 L 6297 764 L 6307.8 762.1 L 6327.8 751.5 Z M 6263.9 800.5 L 6272.3 794.9 L 6284.1 804.7 L 6278.5 822.5 L 6257.3 827.2 L 6238.5 823 L 6235.2 808 L 6248.4 796.3 L 6263.9 800.5 Z M -5938.5 749.9 L -5942.8 766.3 L -5945.6 768.1 L -5945.6 751.5 L -5938.5 749.9 Z" />
<path class="neighbor" d="M 1347 236.1 L 1352.7 239.8 L 1476.4 309.3 L 1478.7 329.1 L 1527.6 363.1 L 1511.9 405.1 L 1513.9 424.5 L 1535.7 436.9 L 1536.7 445.8 L 1527.4 466.3 L 1529.3 476.7 L 1527.1 493 L 1539 514.4 L 1553.1 548 L 1565.6 555.4 L 1565.6 555.4 L 1538.5 575.2 L 1501.2 588.4 L 1480.8 587.9 L 1468.6 598.1 L 1444.9 599 L 1436 603.3 L 1395 593.7 L 1369.3 596.4 L 1359.8 550.1 L 1348.2 534.2 L 1341.4 524.8 L 1308 518.4 L 1288.6 508.2 L 1266.9 502.4 L 1253.4 496.7 L 1239.1 488 L 1239.1 488 L 1220.7 445.1 L 1200.9 426 L 1194.1 406.2 L 1197.5 388.5 L 1191.4 357.1 L 1205.5 355.5 L 1217.9 343.1 L 1231.1 325.4 L 1239.5 318.2 L 1239.2 307.1 L 1231.9 299.4 L 1229.9 286 L 1229.9 286 L 1239.7 281.7 L 1241.7 261.6 L 1228.2 242.4 L 1240.1 238.3 L 1277.5 238.7 L 1347 236.1 Z" />
<path class="neighbor" d="M 1191.4 357.1 L 1197.5 388.5 L 1194.1 406.2 L 1200.9 426 L 1220.7 445.1 L 1239.1 488 L 1239.1 488 L 1225.7 484.6 L 1179.9 490.3 L 1170.8 494.4 L 1161 516.2 L 1168.7 531.2 L 1162.6 571.6 L 1158.4 605.8 L 1167.6 611.8 L 1191.4 625.1 L 1200.8 618.9 L 1203.6 655.7 L 1177.6 655.4 L 1163.5 636.6 L 1151 622.1 L 1124.9 617.3 L 1117.2 599.5 L 1096.4 610.2 L 1069.1 605.5 L 1057.7 590 L 1036 586.9 L 1020.1 587.7 L 1018.1 577.1 L 1006.3 576.2 L 990.8 574.2 L 969.7 579.3 L 954.9 578.5 L 946.4 581.6 L 948.3 541 L 936.9 528.4 L 934.4 507.4 L 939.4 486.9 L 932.5 473.7 L 931.9 452.3 L 890.5 452.6 L 893.5 440.3 L 876.1 440.4 L 874.2 446.3 L 853.1 447.6 L 844.5 467.5 L 839.4 476 L 820.6 471.2 L 809.3 476 L 786.8 478.8 L 773.7 460.9 L 765.9 449.9 L 756.1 429.5 L 747.7 404.1 L 647.1 403.6 L 635.2 407.7 L 625.3 407.1 L 611.2 411.7 L 606.4 401.1 L 615.1 397.5 L 616.2 382.6 L 621.7 373.9 L 634.2 366.7 L 643.1 370.2 L 654.8 357.1 L 673.3 357.5 L 675.5 367.1 L 688.3 373.1 L 708.3 351.8 L 728.2 335.1 L 736.8 324.2 L 735.7 296.2 L 750.5 263 L 766.1 245.5 L 788.5 229.1 L 792.5 218.2 L 793.3 205.7 L 798.9 193.8 L 797.1 174.5 L 801.3 144.3 L 808 123 L 818.2 104.8 L 820.2 84.2 L 823.3 60.4 L 836.6 43.1 L 854.8 32.2 L 882.9 43.7 L 904.6 56.3 L 929.5 59.7 L 955 66.3 L 965.1 45.7 L 969.8 43.1 L 985.4 46.5 L 1023.3 29.5 L 1036.8 36.7 L 1047.8 35.7 L 1052.9 27.4 L 1065.6 24.5 L 1091.2 28.1 L 1113.1 28.9 L 1124.4 25.3 L 1145 53.4 L 1160.3 57.5 L 1169.5 51.8 L 1185.2 54.1 L 1204.2 46.8 L 1212.3 61.4 L 1242.3 84.1 L 1242.3 84.1 L 1240.3 123.9 L 1253.9 128.5 L 1243 140.6 L 1229.9 149.7 L 1216.8 167.5 L 1209.7 183.3 L 1207.7 210.7 L 1199.8 223.7 L 1199.5 249.4 L 1189.7 258.9 L 1188.5 279.2 L 1183.8 281.8 L 1180.6 300.5 L 1189.2 316 L 1191.4 357.1 Z" />
<path class="neighbor" d="M 748.3 1178 L 764.7 1161.1 L 778.1 1170.4 L 783.9 1185 L 799.2 1187.5 L 820.6 1193.9 L 838.9 1191.4 L 869.4 1174 L 869.4 1048.1 L 878.6 1053.2 L 898.8 1085.6 L 895.7 1106.4 L 903.3 1118.4 L 927.7 1114.9 L 944.8 1099.7 L 960.9 1089.4 L 969.2 1073.1 L 985.9 1065.2 L 1000.2 1069.3 L 1016.5 1078.9 L 1044.3 1080.5 L 1066.1 1072.6 L 1069.5 1062 L 1075.5 1045.7 L 1094.1 1042.9 L 1104.3 1030.1 L 1115.7 1007.4 L 1146.3 982 L 1194.5 956.8 L 1208.4 957.2 L 1224.9 963 L 1236.4 958.9 L 1254.5 962.3 L 1270.8 1010.3 L 1279.7 1034.5 L 1273.6 1072.5 L 1276.5 1084.8 L 1259.3 1078.5 L 1249.5 1081 L 1246.3 1090.9 L 1237 1103.7 L 1237.3 1115.5 L 1257.6 1133.9 L 1277.6 1130.3 L 1284.5 1115.1 L 1310.4 1115.4 L 1301.9 1140.2 L 1297.8 1168.6 L 1289 1183.9 L 1265.7 1201.2 L 1259.1 1206.1 L 1244.6 1223.4 L 1235.1 1240.9 L 1215.8 1265.4 L 1177.3 1300.5 L 1153.2 1321 L 1127.4 1336.5 L 1091.8 1349.7 L 1074.4 1351.5 L 1070 1361 L 1049.3 1355.9 L 1032.4 1362.4 L 995.5 1355.8 L 974.8 1360 L 960.7 1358.2 L 925.6 1371.7 L 896.5 1377.1 L 875.4 1390 L 859.9 1390.8 L 845.5 1378.6 L 833.9 1378 L 819.3 1362.8 L 817.6 1367.5 L 813.1 1358.3 L 813.3 1338.4 L 802.2 1315.5 L 813.2 1309.3 L 812.3 1283.1 L 790 1251.2 L 772.9 1222.3 L 772.8 1222.2 L 748.3 1178 Z M 1179.1 1190.9 L 1164.2 1180.4 L 1148.2 1187.3 L 1129.8 1200.7 L 1111.6 1222.2 L 1137.2 1248.5 L 1149.4 1245.1 L 1155.6 1234.2 L 1174.6 1228.9 L 1180.4 1217.7 L 1190.9 1201.2 L 1179.1 1190.9 Z" />
<path class="neighbor" d="M -1570.1 62 L -1590.2 93.2 L -1600.7 118.3 L -1613.8 131.3 L -1630.1 133.7 L -1634.7 124.1 L -1642.4 122.7 L -1652.9 131.9 L -1667.8 124.9 L -1659.1 110.5 L -1656.1 94.9 L -1650.1 80.3 L -1663.5 60.1 L -1666.2 36.8 L -1648.5 7.4 L -1636.9 11.2 L -1611.8 19.3 L -1575.7 48 L -1570.1 62 Z M 402 -1482.7 L 418.1 -1473.7 L 467.2 -1467.5 L 450 -1444.1 L 445.7 -1419.8 L 436.3 -1414 L 420.8 -1417.1 L 421.9 -1408.5 L 396.9 -1389.3 L 396.4 -1373.9 L 412.7 -1379.2 L 424.4 -1364.3 L 423 -1354.6 L 433 -1341.8 L 421.2 -1331.4 L 430 -1305.1 L 448.5 -1300.7 L 444.6 -1285.9 L 413.7 -1266.7 L 346.5 -1275.9 L 296.8 -1264.9 L 292.9 -1244.3 L 253.4 -1239.9 L 215 -1255.3 L 202.6 -1248 L 139.9 -1263.5 L 126.3 -1276.7 L 143.9 -1297.2 L 150.4 -1365.1 L 115.2 -1400.9 L 90.1 -1418.1 L 38 -1431.2 L 34.5 -1456.1 L 78.7 -1463.5 L 136 -1454.7 L 125.2 -1493.3 L 157.4 -1478.7 L 236.7 -1505.3 L 247 -1533.2 L 276.8 -1540.1 L 281.7 -1528.1 L 297.6 -1527.5 L 313.4 -1513.9 L 337.2 -1497.8 L 354.7 -1500.4 L 384.5 -1484.9 L 392.2 -1481.9 L 402 -1482.7 Z M 489.3 -1249.6 L 511.2 -1262.6 L 517 -1233.4 L 505.8 -1207.1 L 490.3 -1214 L 482.4 -1236.9 L 489.3 -1249.6 Z" />
<path class="neighbor" d="M 1254.5 962.3 L 1236.4 958.9 L 1224.9 963 L 1208.4 957.2 L 1194.5 956.8 L 1172.8 941.4 L 1146.4 936.2 L 1136.4 914.6 L 1136.3 902.6 L 1121.7 898.9 L 1083.1 861.4 L 1072.4 841.7 L 1065.6 835.6 L 1052.4 808.4 L 1090.5 812.1 L 1101.6 816 L 1113.1 815.3 L 1132 793.2 L 1161.7 765.1 L 1173.9 762.5 L 1178 750.6 L 1197.4 737.1 L 1223.2 732.4 L 1225.4 745.1 L 1253.9 744.4 L 1269.7 751.6 L 1277 760.1 L 1293.3 762.5 L 1311 773.5 L 1311 816.7 L 1304.4 840.3 L 1302.9 865.8 L 1308.4 875.9 L 1304.6 895.9 L 1299.4 899 L 1290.4 923.6 L 1254.5 962.3 Z" />
<path class="neighbor" d="M 1194.5 956.8 L 1146.3 982 L 1115.7 1007.4 L 1104.3 1030.1 L 1094.1 1042.9 L 1075.5 1045.7 L 1069.5 1062 L 1066.1 1072.6 L 1044.3 1080.5 L 1016.5 1078.9 L 1000.2 1069.3 L 985.9 1065.2 L 969.2 1073.1 L 960.9 1089.4 L 944.8 1099.7 L 927.7 1114.9 L 903.3 1118.4 L 895.7 1106.4 L 898.8 1085.6 L 878.6 1053.2 L 869.4 1048.1 L 869.4 948.6 L 903 947.4 L 904 826 L 929.4 824.8 L 981.9 812.9 L 995 827 L 1016.7 813.6 L 1027.1 813.5 L 1046.3 805.8 L 1052.4 808.4 L 1065.6 835.6 L 1072.4 841.7 L 1083.1 861.4 L 1121.7 898.9 L 1136.3 902.6 L 1136.4 914.6 L 1146.4 936.2 L 1172.8 941.4 L 1194.5 956.8 Z" />
<path class="neighbor" d="M 869.4 1048.1 L 869.4 1174 L 838.9 1191.4 L 820.6 1193.9 L 799.2 1187.5 L 783.9 1185 L 778.1 1170.4 L 764.7 1161.1 L 748.3 1178 L 723 1152.2 L 709.7 1127.3 L 702.1 1094.1 L 693.7 1069.4 L 682.3 1016.9 L 681.6 976.1 L 677.2 957.5 L 663.9 943.5 L 646.3 915.3 L 628.4 874.4 L 621 853 L 593.2 819.7 L 591.2 793.6 L 607.6 787.1 L 628 781.3 L 650.1 782.3 L 670.4 797.7 L 675.6 795.3 L 813.7 793.8 L 837.4 810.2 L 919.9 815 L 982.6 801.1 L 1010.5 793.4 L 1032.6 795.3 L 1046 803 L 1046.3 805.8 L 1027.1 813.5 L 1016.7 813.6 L 995 827 L 981.9 812.9 L 929.4 824.8 L 904 826 L 903 947.4 L 869.4 948.6 L 869.4 1048.1 Z" />
<path class="neighbor" d="M 685.3 -234.7 L 698.9 -212.9 L 701.1 -190.3 L 699.9 -167.6 L 718.4 -136.6 L 699.4 -137 L 689.8 -134.5 L 674.2 -138 L 666.8 -121.9 L 687 -102 L 701.8 -96.2 L 706.6 -82.1 L 717.4 -58.6 L 712 -49.3 L 694.9 -14.8 L 686.7 -8.6 L 684.1 17.8 L 687.5 32.2 L 684.7 42.3 L 700.8 60.2 L 703.7 72.4 L 716.3 90 L 731.9 101 L 733.4 116.5 L 737 126.4 L 734.6 144.8 L 707.5 136.7 L 679.9 127.7 L 636.9 126.4 L 632.7 124.5 L 612.5 128.9 L 591.8 124.4 L 575.5 126.6 L 520.1 125.8 L 525 98.9 L 511.7 76.4 L 496.2 70.6 L 489.2 55.3 L 480.5 50.4 L 480.9 41 L 489.7 16.9 L 505.9 -16 L 515.8 -16.3 L 536.1 -36.3 L 549 -36.8 L 568.1 -22.8 L 591.5 -34.3 L 594.7 -48.5 L 602.4 -62.2 L 607.7 -79.5 L 625.9 -93.5 L 632.8 -117.4 L 640 -125 L 644.8 -142.7 L 653.8 -164.5 L 682.6 -190.8 L 684.4 -202.2 L 688.1 -208.3 L 674.6 -221.9 L 675.7 -232.8 L 685.3 -234.7 Z" />
<path class="neighbor" d="M 1124.4 25.3 L 1113.1 28.9 L 1091.2 28.1 L 1065.6 24.5 L 1052.9 27.4 L 1047.8 35.7 L 1036.8 36.7 L 1023.3 29.5 L 985.4 46.5 L 969.8 43.1 L 965.1 45.7 L 955 66.3 L 929.5 59.7 L 904.6 56.3 L 882.9 43.7 L 854.8 32.2 L 836.6 43.1 L 823.3 60.4 L 820.2 84.2 L 798.3 82.3 L 775.2 76.6 L 754.9 94.7 L 737 126.4 L 733.4 116.5 L 731.9 101 L 716.3 90 L 703.7 72.4 L 700.8 60.2 L 684.7 42.3 L 687.5 32.2 L 684.1 17.8 L 686.7 -8.6 L 694.9 -14.8 L 712 -49.3 L 740.2 -51.9 L 746.5 -60.7 L 752.1 -60 L 760.7 -52.3 L 803.6 -65.3 L 818.1 -78.6 L 835.8 -90.6 L 832.5 -102.6 L 842.1 -105.7 L 875 -103.6 L 907.1 -119.4 L 931.7 -156.6 L 949 -170.4 L 970.6 -176.2 L 974.5 -161.6 L 994.1 -140.3 L 994.2 -126.4 L 988.7 -112.2 L 990.9 -101.6 L 1002.7 -91.8 L 1028.7 -76.9 L 1047.3 -63.1 L 1047.7 -52 L 1070.6 -34.2 L 1084.8 -19.5 L 1093.4 1 L 1118.9 14.4 L 1124.4 25.3 Z" />
<path class="neighbor" d="M 820.2 84.2 L 818.2 104.8 L 808 123 L 801.3 144.3 L 797.1 174.5 L 798.9 193.8 L 793.3 205.7 L 792.5 218.2 L 788.5 229.1 L 766.1 245.5 L 750.5 263 L 735.7 296.2 L 736.8 324.2 L 728.2 335.1 L 708.3 351.8 L 688.3 373.1 L 675.5 367.1 L 673.3 357.5 L 654.8 357.1 L 643.1 370.2 L 634.2 366.7 L 621.4 355 L 611.1 360.7 L 597.3 375.5 L 569.3 339.3 L 595.3 320.5 L 582.4 298 L 594.1 289.4 L 617.1 285.2 L 619.8 270.1 L 638 286.5 L 668.1 287.9 L 678.6 271.8 L 682.9 249.2 L 679.2 222.5 L 663.1 202.4 L 677.8 162.9 L 669.3 156.1 L 643.9 158.9 L 634.4 141.3 L 636.9 126.4 L 679.9 127.7 L 707.5 136.7 L 734.6 144.8 L 737 126.4 L 754.9 94.7 L 775.2 76.6 L 798.3 82.3 L 820.2 84.2 Z" />
<path class="neighbor" d="M 575.5 126.6 L 591.8 124.4 L 612.5 128.9 L 632.7 124.5 L 636.9 126.4 L 634.4 141.3 L 643.9 158.9 L 669.3 156.1 L 677.8 162.9 L 663.1 202.4 L 679.2 222.5 L 682.9 249.2 L 678.6 271.8 L 668.1 287.9 L 638 286.5 L 619.8 270.1 L 617.1 285.2 L 594.1 289.4 L 582.4 298 L 595.3 320.5 L 569.3 339.3 L 534.3 304.9 L 511.8 276.8 L 491.1 241.6 L 492.1 230.3 L 499.6 219.4 L 507.9 194.5 L 514.7 169.3 L 526.2 167.3 L 575.8 167.6 L 575.5 126.6 Z" />
<path class="neighbor" d="M 520.1 125.8 L 575.5 126.6 L 575.8 167.6 L 526.2 167.3 L 514.7 169.3 L 508.4 164.1 L 520.1 125.8 Z" />
<path class="neighbor" d="M 1239.1 488 L 1253.4 496.7 L 1266.9 502.4 L 1288.6 508.2 L 1308 518.4 L 1324.1 533.6 L 1332.7 562.5 L 1326.9 571.8 L 1320.1 599.4 L 1326.6 627.7 L 1315.9 639.5 L 1305.5 671.2 L 1323.5 680 L 1220 708.1 L 1223.2 732.4 L 1197.4 737.1 L 1178 750.6 L 1173.9 762.5 L 1161.7 765.1 L 1132 793.2 L 1113.1 815.3 L 1101.6 816 L 1090.5 812.1 L 1052.4 808.4 L 1046.3 805.8 L 1046 803 L 1032.6 795.3 L 1010.5 793.4 L 982.6 801.1 L 960.3 779.8 L 937.3 751.9 L 938.9 643.4 L 1009.9 643.9 L 1007 632.1 L 1012.1 619.3 L 1006.1 603.3 L 1009.9 586.8 L 1006.3 576.2 L 1018.1 577.1 L 1020.1 587.7 L 1036 586.9 L 1057.7 590 L 1069.1 605.5 L 1096.4 610.2 L 1117.2 599.5 L 1124.9 617.3 L 1151 622.1 L 1163.5 636.6 L 1177.6 655.4 L 1203.6 655.7 L 1200.8 618.9 L 1191.4 625.1 L 1167.6 611.8 L 1158.4 605.8 L 1162.6 571.6 L 1168.7 531.2 L 1161 516.2 L 1170.8 494.4 L 1179.9 490.3 L 1225.7 484.6 L 1239.1 488 Z" />
<path class="neighbor" d="M 1369.3 596.4 L 1395 593.7 L 1436 603.3 L 1444.9 599 L 1468.6 598.1 L 1480.8 587.9 L 1501.2 588.4 L 1538.5 575.2 L 1565.6 555.4 L 1565.6 555.4 L 1565.6 555.4 L 1571.1 570.7 L 1569.7 604.7 L 1573.9 634.6 L 1575.3 687.9 L 1581.3 704.6 L 1571.1 728.9 L 1557.9 752.6 L 1536.1 773.8 L 1505 786.7 L 1466.6 803.3 L 1428 839.9 L 1414.9 846.1 L 1391.1 870.3 L 1377.1 878.2 L 1374.2 902.5 L 1390.4 928.3 L 1397.1 948.3 L 1397.5 958.5 L 1403.5 956.8 L 1402.6 990.2 L 1397 1006.1 L 1405.1 1011.9 L 1400 1026.1 L 1385.7 1038.2 L 1357.6 1049.8 L 1316.6 1068.2 L 1301.7 1080.8 L 1304.6 1095.2 L 1313.3 1097.5 L 1310.4 1115.4 L 1284.5 1115.1 L 1281.6 1100.1 L 1276.5 1084.8 L 1273.6 1072.5 L 1279.7 1034.5 L 1270.8 1010.3 L 1254.5 962.3 L 1290.4 923.6 L 1299.4 899 L 1304.6 895.9 L 1308.4 875.9 L 1302.9 865.8 L 1304.4 840.3 L 1311 816.7 L 1311 773.5 L 1293.3 762.5 L 1277 760.1 L 1269.7 751.6 L 1253.9 744.4 L 1225.4 745.1 L 1223.2 732.4 L 1220 708.1 L 1323.5 680 L 1343.1 696.4 L 1352.5 693.3 L 1365.9 701.9 L 1367.9 715.6 L 1360.7 731.4 L 1363.3 755.4 L 1385.5 776.5 L 1395.9 752.8 L 1410.7 745.7 L 1407.8 701.8 L 1393.5 677.2 L 1381.2 666.2 L 1369.3 666.7 L 1359.8 622.4 L 1369.3 596.4 Z" />
<path class="neighbor" d="M 1229.9 286 L 1231.9 299.4 L 1239.2 307.1 L 1239.5 318.2 L 1231.1 325.4 L 1217.9 343.1 L 1205.5 355.5 L 1191.4 357.1 L 1189.2 316 L 1180.6 300.5 L 1201.3 303.2 L 1211.8 283.8 L 1229.9 286 Z" />
<path class="neighbor" d="M 1347 236.1 L 1277.5 238.7 L 1240.1 238.3 L 1228.2 242.4 L 1207.8 252.9 L 1199.5 249.4 L 1199.8 223.7 L 1207.7 210.7 L 1209.7 183.3 L 1216.8 167.5 L 1229.9 149.7 L 1243 140.6 L 1253.9 128.5 L 1240.3 123.9 L 1242.3 84.1 L 1242.3 84.1 L 1256.4 74.8 L 1278 82.4 L 1305.5 74.4 L 1329.5 74.5 L 1350.4 58.8 L 1366.6 82.5 L 1370.6 99.6 L 1385.6 138.7 L 1373.2 163.6 L 1356.4 186.1 L 1346.6 200 L 1347 236.1 Z" />
<path class="neighbor" d="M 1228.2 242.4 L 1241.7 261.6 L 1239.7 281.7 L 1229.9 286 L 1229.9 286 L 1211.8 283.8 L 1201.3 303.2 L 1180.6 300.5 L 1183.8 281.8 L 1188.5 279.2 L 1189.7 258.9 L 1199.5 249.4 L 1207.8 252.9 L 1228.2 242.4 Z" />

<path class="country" d="M 634.2 366.7 L 621.7 373.9 L 616.2 382.6 L 615.1 397.5 L 606.4 401.1 L 597.3 375.5 L 611.1 360.7 L 621.4 355 L 634.2 366.7 Z M 611.2 411.7 L 625.3 407.1 L 635.2 407.7 L 647.1 403.6 L 747.7 404.1 L 756.1 429.5 L 765.9 449.9 L 773.7 460.9 L 786.8 478.8 L 809.3 476 L 820.6 471.2 L 839.4 476 L 844.5 467.5 L 853.1 447.6 L 874.2 446.3 L 876.1 440.4 L 893.5 440.3 L 890.5 452.6 L 931.9 452.3 L 932.5 473.7 L 939.4 486.9 L 934.4 507.4 L 936.9 528.4 L 948.3 541 L 946.4 581.6 L 954.9 578.5 L 969.7 579.3 L 990.8 574.2 L 1006.3 576.2 L 1009.9 586.8 L 1006.1 603.3 L 1012.1 619.3 L 1007 632.1 L 1009.9 643.9 L 938.9 643.4 L 937.3 751.9 L 960.3 779.8 L 982.6 801.1 L 919.9 815 L 837.4 810.2 L 813.7 793.8 L 675.6 795.3 L 670.4 797.7 L 650.1 782.3 L 628 781.3 L 607.6 787.1 L 591.2 793.6 L 587.9 772.1 L 592.7 742.1 L 604.4 710.9 L 606.2 696.3 L 617.3 665.6 L 625.4 651.6 L 645 629.3 L 655.9 614.1 L 659.5 588.9 L 657.7 569.5 L 647.5 557.4 L 638.4 536.7 L 630.1 516.2 L 631.9 509.1 L 642.4 495.6 L 632 462.7 L 625 439.9 L 608 418.3 L 611.2 411.7 Z" />


<g class="city"><circle cx="713.1666883204907" cy="351.24144707922767" r="5" /><text x="725.1666883204907" y="355.24144707922767">Kinshasa</text></g>
<g class="city"><circle cx="642.2352312335647" cy="504.95063002251675" r="5" /><text x="654.2352312335647" y="508.95063002251675">Luanda</text></g>
<g class="city"><circle cx="712.1342922975705" cy="348.8366141532407" r="5" /><text x="724.1342922975705" y="352.8366141532407">Brazzaville</text></g>
<g class="city"><circle cx="1127.90630621363" cy="601.8332679518785" r="5" /><text x="1139.90630621363" y="605.8332679518785">Lubumbashi</text></g>
<g class="city"><circle cx="1155.2933364352778" cy="729.2248073075244" r="5" /><text x="1167.2933364352778" y="733.2248073075244">Lusaka</text></g>
<g class="city"><circle cx="995.62576722537" cy="413.3005441570139" r="5" /><text x="1007.62576722537" y="417.3005441570139">Mbuji-Mayi</text></g>
<g class="city"><circle cx="728.3392482983097" cy="638.3111584835347" r="5" /><text x="740.3392482983097" y="642.3111584835347">Huambo</text></g>
<g class="city"><circle cx="1215.8830709811361" cy="270.2325542872977" r="5" /><text x="1227.8830709811361" y="274.2325542872977">Kigali</text></g>
<text class="map-title" x="80" y="105">Angola Political Study Map</text>
<text class="map-subtitle" x="80" y="145">Capital: Luanda | Continent: Africa</text>
  <text class="footer" x="80" y="1036">Made with Natural Earth. Free vector and raster map data @ naturalearthdata.com.</text>
</svg>
