<?xml version="1.0" encoding="UTF-8"?>
<svg xmlns="http://www.w3.org/2000/svg" width="1600" height="1100" viewBox="0 0 1600 1100" role="img" aria-labelledby="title desc">
  <title id="title">Argentina Physical Study Map</title>
  <desc id="desc">Made with Natural Earth. Free vector and raster map data @ naturalearthdata.com.</desc>
  <defs>
    <linearGradient id="terrain" x1="0" x2="1" y1="0" y2="1">
      <stop offset="0%" stop-color="#6c8c53" />
      <stop offset="42%" stop-color="#d5c487" />
      <stop offset="72%" stop-color="#b88b5f" />
      <stop offset="100%" stop-color="#f1f5ee" />
    </linearGradient>
    <filter id="softShadow" x="-10%" y="-10%" width="120%" height="120%">
      <feDropShadow dx="0" dy="10" stdDeviation="12" flood-color="#0f172a" flood-opacity="0.16" />
    </filter>
    <style>
      .neighbor { fill: #ffffff; stroke: #94a3b8; stroke-width: 1.2; opacity: 0.72; }
      .country { fill: url(#terrain); stroke: #1f2937; stroke-width: 4; filter: url(#softShadow); }
      .admin1 { fill: none; stroke: #64748b; stroke-width: 1.1; stroke-dasharray: 6 7; opacity: 0.75; }
      .river { fill: none; stroke: #1d9bd1; stroke-width: 3; stroke-linecap: round; opacity: 0.88; }
      .lake { fill: #8ed1ea; stroke: #0ea5e9; stroke-width: 1.5; opacity: 0.8; }
      .city circle { fill: #ef4444; stroke: #ffffff; stroke-width: 2; }
      .city text, .terrain-label { fill: #172033; font: 700 24px system-ui, sans-serif; paint-order: stroke; stroke: #ffffff; stroke-width: 5; stroke-linejoin: round; }
      .map-title { fill: #0f172a; font: 800 46px system-ui, sans-serif; }
      .map-subtitle { fill: #475569; font: 600 24px system-ui, sans-serif; }
      .footer { fill: #64748b; font: 500 18px system-ui, sans-serif; }
    </style>
  </defs>
  <rect width="100%" height="100%" fill="#d8edf0" />
  <rect x="40" y="40" width="1520" height="1020" rx="32" fill="#ffffff" opacity="0.54" />
  <path class="neighbor" d="M 4152.1 275.6 L 4152.1 282.4 L 4143.4 285.7 L 4134.6 288.6 L 4132.8 283.5 L 4139.7 280.7 L 4144 279.9 L 4152.1 275.6 Z M 4126.3 295.4 L 4129.7 293.2 L 4134.5 297.1 L 4132.2 304.3 L 4123.7 306.2 L 4116.1 304.5 L 4114.7 298.5 L 4120.1 293.7 L 4126.3 295.4 Z M -800.5 275 L -802.2 281.6 L -803.3 282.4 L -803.3 275.6 L -800.5 275 Z" />
<path class="neighbor" d="M 729.6 779 L 729.6 809.8 L 744.4 809.8 L 752.7 810.1 L 748.1 815.7 L 736.3 820 L 729.5 819.5 L 721.4 818.4 L 711.4 814.3 L 697 812.3 L 679.7 804.6 L 665.6 797.2 L 646.6 781.8 L 658 784.7 L 677.3 793.9 L 695.6 798.8 L 702.7 792.5 L 707.1 783.1 L 719.8 777.4 L 729.6 779 Z M 716.5 296.5 L 723.2 305.8 L 725 315.8 L 732.3 321.6 L 727.9 334.9 L 735.3 350.3 L 740.7 369.3 L 750.7 367.4 L 752.3 370.9 L 747.6 385.2 L 732.6 392 L 733 414.9 L 730.2 419.3 L 734.3 424.7 L 724.6 433.3 L 715.6 446.2 L 710.6 458.7 L 711.9 472.1 L 703.5 486.2 L 709.8 510 L 713.4 512.5 L 713.3 525.2 L 705.5 538.6 L 705.8 550.1 L 695.4 559.1 L 695.4 571.7 L 699.6 585.2 L 691.4 590.2 L 687.7 602.4 L 684.5 616.5 L 686.8 633.3 L 681.2 636.1 L 684.5 652 L 690.7 657.2 L 686.1 663 L 692.5 665.8 L 694 670.9 L 688 673.5 L 689.5 681.6 L 684.4 699.9 L 677.1 711.6 L 678.7 718.6 L 674.4 727.3 L 663.8 733.4 L 665 747.9 L 669.9 752.9 L 679 752.1 L 678.8 762.4 L 684.5 770.4 L 717.7 772.2 L 730.5 774.4 L 718.2 774.3 L 711.6 777.7 L 699.2 782.6 L 697 795.5 L 691.1 795.8 L 675.6 791.3 L 659.9 781.8 L 659.9 781.8 L 642.7 773.9 L 638.4 765.2 L 642.3 757.1 L 635.4 747.9 L 633.6 724.5 L 639.5 711.2 L 654 700.6 L 633.1 696.6 L 646.2 684.4 L 650.9 661.6 L 666.2 666.4 L 673.4 637.9 L 664.2 634.2 L 659.9 651.4 L 651.2 649.5 L 655.5 629.8 L 660.2 604.3 L 666.5 594.9 L 662.6 581.4 L 661.4 565.9 L 667.2 565.5 L 675.7 543.3 L 685.2 521.2 L 691 500.7 L 687.9 480.1 L 692 468.7 L 690.3 451.8 L 698.4 434.9 L 700.8 408.3 L 705.3 379.7 L 709.6 349 L 708.6 326.4 L 705.7 307 L 712.8 303.5 L 716.5 296.5 Z" />
<path class="neighbor" d="M 832 768.2 L 848.5 759.9 L 860.2 763.4 L 868.4 757.9 L 879.5 764.1 L 875.3 768.9 L 856.7 773 L 850.5 768.2 L 838.8 774.4 L 832 768.2 Z" />
<path class="neighbor" d="M 881.2 470.4 L 890.1 468.9 L 903.9 479.6 L 909 479.2 L 923.2 488 L 934 495.6 L 942 505 L 935.9 511.5 L 939.7 519.3 L 933.7 528 L 918.2 535.6 L 908 532.9 L 900.6 534.3 L 887.9 528.4 L 878.5 528.9 L 870.1 521.2 L 871.2 512.3 L 874.2 509.3 L 874 495.6 L 877.7 481.4 L 881.2 470.4 Z" />
<path class="neighbor" d="M 939.7 519.3 L 935.9 511.5 L 942 505 L 934 495.6 L 923.2 488 L 909 479.2 L 903.9 479.6 L 890.1 468.9 L 881.2 470.4 L 899.5 451.6 L 915.1 438.3 L 924.3 432.7 L 935.9 425.1 L 936.2 414.1 L 929.3 406.1 L 922.5 408.8 L 925.2 400.8 L 927 392.7 L 927 385.1 L 922.1 382.6 L 916.9 384.9 L 911.8 384.2 L 910.2 378.9 L 908.9 366.3 L 906.3 362.2 L 897 358.5 L 891.4 361.2 L 876.9 358.5 L 877.8 339.9 L 873.7 332.2 L 878 329.4 L 876.7 321.5 L 880.5 315.5 L 882.9 304.6 L 879.7 296.1 L 872.1 292.2 L 870.7 286.8 L 872.7 278.8 L 846.3 278.3 L 841 262.2 L 845 262 L 844.8 256.1 L 842.2 252.1 L 841.6 244.1 L 833.6 240 L 824.9 240.2 L 819.2 236.2 L 809.9 233.4 L 804.5 228.3 L 789.1 226 L 774.1 213.7 L 775.2 204.5 L 773.5 199.2 L 775 188.9 L 757 191.2 L 749.7 196.3 L 737.7 201.9 L 734.6 206.1 L 727.5 206.4 L 717.3 205.2 L 709.5 207.6 L 703.3 206 L 704.2 185.1 L 692.9 193.2 L 680.8 192.9 L 675.5 185.5 L 666.4 184.7 L 669.3 178.8 L 661.7 170.4 L 655.9 158 L 659.6 155.5 L 659.6 149.7 L 667.9 145.7 L 666.5 138.3 L 670 133.5 L 671 127.1 L 686.8 117.7 L 698 115.1 L 699.9 113 L 712.3 113.6 L 718.5 75.9 L 718.8 69.9 L 716.6 62 L 710.5 57 L 710.6 47 L 718.4 44.8 L 721.1 46.2 L 721.6 40.9 L 713.5 39.5 L 713.3 30.9 L 740.2 31.2 L 744.7 26.4 L 748.5 30.8 L 751.2 38.9 L 753.8 37.2 L 761.4 44.5 L 772.1 43.6 L 774.8 39.4 L 785 36.2 L 790.7 33.9 L 792.3 28.1 L 802.1 24.2 L 801.4 21.3 L 789.7 20.1 L 787.8 11.4 L 788.3 2.2 L 782.2 -1.4 L 784.8 -2.6 L 795 -0.9 L 805.9 2.6 L 809.9 -0.7 L 819.8 -2.8 L 835.2 -8 L 840.2 -13.2 L 838.4 -17.1 L 845.5 -17.7 L 848.7 -14.5 L 847 -8.5 L 851.7 -6.4 L 854.8 0 L 851 4.8 L 848.8 16.5 L 852.4 23.5 L 853.4 29.9 L 861.8 36.3 L 868.6 37 L 870.1 34.3 L 874.4 33.7 L 880.7 31.3 L 885.2 27.7 L 892.8 28.8 L 896.1 28.3 L 903.6 29.5 L 904.8 26.6 L 902.5 23.9 L 903.9 19.9 L 909.5 21.1 L 916 19.7 L 923.8 22.7 L 929.9 25.5 L 934.1 21.8 L 937.2 22.3 L 939.1 26.2 L 945.7 25.2 L 950.9 20 L 955.2 9.9 L 963.3 -2.7 L 968 -3.4 L 971.4 4.2 L 979.1 28.3 L 986.5 30.6 L 986.9 40.1 L 976.5 51.4 L 980.8 55.6 L 1005.1 57.7 L 1005.6 71.5 L 1016.1 62.5 L 1033.4 67.4 L 1056.3 75.8 L 1063 83.9 L 1060.7 91.5 L 1076.7 87.3 L 1103.5 94.6 L 1124.1 94 L 1144.4 105.4 L 1162 120.8 L 1172.6 124.8 L 1184.4 125.4 L 1189.4 129.7 L 1194 147.2 L 1196.3 155.6 L 1190.8 178.3 L 1183.8 187.3 L 1164.4 206.5 L 1155.7 222 L 1145.5 233.9 L 1142 234.2 L 1138.2 244.3 L 1139.2 270.1 L 1135.3 291.4 L 1133.9 300.4 L 1129.5 305.9 L 1127.1 324.3 L 1113.1 342.2 L 1110.8 356.4 L 1099.6 362.4 L 1096.4 370.7 L 1081.5 370.6 L 1059.8 375.9 L 1050.1 382 L 1034.7 386.1 L 1018.5 397 L 1006.8 410.7 L 1004.8 421 L 1007.1 428.6 L 1004.6 442.5 L 1001.4 449.2 L 991.8 456.8 L 976.5 481 L 964.4 491.9 L 955.1 498.3 L 948.8 511.4 L 939.7 519.3 Z" />
<path class="neighbor" d="M 717.3 205.2 L 727.5 206.4 L 734.6 206.1 L 737.7 201.9 L 749.7 196.3 L 757 191.2 L 775 188.9 L 773.5 199.2 L 775.2 204.5 L 774.1 213.7 L 789.1 226 L 804.5 228.3 L 809.9 233.4 L 819.2 236.2 L 824.9 240.2 L 833.6 240 L 841.6 244.1 L 842.2 252.1 L 844.8 256.1 L 845 262 L 841 262.2 L 846.3 278.3 L 872.7 278.8 L 870.7 286.8 L 872.1 292.2 L 879.7 296.1 L 882.9 304.6 L 880.5 315.5 L 876.7 321.5 L 878 329.4 L 873.7 332.2 L 873.5 328 L 860.7 320.9 L 847.9 320.7 L 823.9 324.7 L 817.3 336.8 L 816.9 344.3 L 811.5 360.7 L 809.3 357.8 L 793.6 357.2 L 788.2 368.3 L 780.1 358.4 L 762.1 355 L 750.7 367.4 L 740.7 369.3 L 735.3 350.3 L 727.9 334.9 L 732.3 321.6 L 725 315.8 L 723.2 305.8 L 716.5 296.5 L 725.1 281.6 L 719.2 270 L 722.4 265.4 L 719.9 260.3 L 725.3 253.4 L 725.6 241.7 L 726.2 232 L 729.2 227.4 L 717.3 205.2 Z" />
<path class="neighbor" d="M 712.3 113.6 L 699.9 113 L 698 115.1 L 686.8 117.7 L 671 127.1 L 670 133.5 L 666.5 138.3 L 667.9 145.7 L 659.6 149.7 L 659.6 155.5 L 655.9 158 L 661.7 170.4 L 669.3 178.8 L 666.4 184.7 L 675.5 185.5 L 680.8 192.9 L 692.9 193.2 L 704.2 185.1 L 703.3 206 L 709.5 207.6 L 717.3 205.2 L 729.2 227.4 L 726.2 232 L 725.6 241.7 L 725.3 253.4 L 719.9 260.3 L 722.4 265.4 L 719.2 270 L 725.1 281.6 L 716.5 296.5 L 712.8 303.5 L 705.7 307 L 691.9 299.1 L 690.7 293.5 L 663.4 279.7 L 638.7 264.6 L 628.1 256.1 L 622.4 244.8 L 624.7 240.8 L 613 222.7 L 599.4 197.3 L 586.4 169.9 L 580.8 163.6 L 576.5 153.5 L 565.8 144.5 L 556 138.9 L 560.4 132.8 L 553.8 119.7 L 558 110 L 569 101.3 L 570.6 107.1 L 566.7 110.4 L 567.1 115.4 L 572.8 114.3 L 578.3 115.8 L 584.1 122.7 L 591.9 117.1 L 594.5 107.8 L 602.9 95.8 L 619.5 90.4 L 634.5 76 L 638.8 67 L 636.9 56.6 L 640.5 55.3 L 649.7 61.8 L 654.1 68.3 L 660.5 71.8 L 668.6 86.3 L 678.8 88 L 686.4 84.3 L 691.4 86.7 L 699.6 85.5 L 710.2 92 L 701.3 106 L 705.4 106.3 L 712.3 113.6 Z" />
<path class="neighbor" d="M 873.7 332.2 L 877.8 339.9 L 876.9 358.5 L 891.4 361.2 L 897 358.5 L 906.3 362.2 L 908.9 366.3 L 910.2 378.9 L 911.8 384.2 L 916.9 384.9 L 922.1 382.6 L 927 385.1 L 927 392.7 L 925.2 400.8 L 922.5 408.8 L 920.2 420.9 L 907.7 431.5 L 896.8 433.7 L 881.4 431.6 L 867.5 427.8 L 881.1 406.9 L 879.1 400.8 L 864.9 395.5 L 848.1 385.3 L 836.8 383.2 L 811.5 360.7 L 816.9 344.3 L 817.3 336.8 L 823.9 324.7 L 847.9 320.7 L 860.7 320.9 L 873.5 328 L 873.7 332.2 Z" />
<path class="neighbor" d="M 1004.6 1128.8 L 1011.6 1128.8 L 1032.1 1125.8 L 1052.8 1128.8 L 1069.8 1134.7 L 1075.7 1143.1 L 1077.4 1149 L 1077.9 1156 L 1056.6 1160.4 L 1034.2 1163.9 L 1008.3 1167.1 L 979.5 1169.8 L 946.9 1169 L 928.8 1164.4 L 931.2 1158.7 L 960.6 1155 L 972.5 1150.4 L 981.1 1144.4 L 987.3 1139.3 L 995.7 1134.5 L 1004.6 1128.8 L 1004.6 1128.8 Z M 761.9 1159.2 L 792.9 1159.7 L 822.6 1161.1 L 832.8 1155.4 L 840.1 1150.6 L 854.4 1156.2 L 850.3 1163.3 L 846.3 1169.5 L 817.4 1167.6 L 786.7 1168.4 L 769.4 1163.8 L 769.4 1163.3 L 761.9 1159.2 Z M 656.9 1035.5 L 656.9 1035.5 L 666.4 1033.9 L 682.3 1034.4 L 686.3 1027.4 L 687.1 1022.3 L 686.9 1011.2 L 694.7 1004.8 L 707.3 1002.6 L 714.6 1007.7 L 717.9 1012.9 L 723.8 1019.1 L 728.4 1025 L 732.1 1031.2 L 733.8 1037.4 L 731.3 1042.8 L 727.6 1047.9 L 711.4 1049.8 L 696 1052.5 L 678 1052.2 L 684.7 1046.8 L 668.5 1048.7 L 653.2 1050.6 L 642.6 1046.6 L 641.8 1040.9 L 656.9 1035.5 Z M 265.8 1044.1 L 265.8 1044.1 L 274.4 1041.7 L 291.9 1043.6 L 311.9 1044.6 L 327 1046.5 L 342.1 1044.9 L 350.2 1052.7 L 339.4 1051.7 L 322.7 1052.2 L 305.7 1051.7 L 287.1 1052.5 L 273.1 1049.8 L 265.8 1044.1 Z M -13.5 1068.4 L -13.5 1068.4 L -10.6 1063.8 L 5.9 1066.2 L 23.7 1068.4 L 40.1 1066 L 32.3 1070.8 L 19.4 1074.3 L 0.2 1073.2 L -13.5 1068.4 Z M -77.7 1065.7 L -77.7 1065.7 L -67.7 1062.7 L -54 1066 L -32.9 1071.4 L -41 1070.8 L -58.8 1069.5 L -77.7 1065.7 Z M -579.1 1136.4 L -579.1 1136.4 L -570.8 1131.2 L -545.2 1133.4 L -531.4 1137.7 L -520.9 1142.6 L -517.1 1148.8 L -543.6 1150.7 L -561.6 1145.8 L -569.7 1140.9 L -570.2 1140.1 L -579.1 1136.4 Z M 4152.1 1220.6 L 4152.1 1293.3 L -803.3 1293.3 L -803.3 1220.6 L -802.5 1220.7 L -790.4 1212.7 L -765.6 1217 L -764 1216.5 L -749.4 1212.1 L -747.6 1212.3 L -745.9 1212.4 L -726 1218.1 L -708.6 1212.4 L -705.5 1211.6 L -665 1209.2 L -651.9 1212.4 L -645.5 1214 L -624.7 1218.6 L -585.6 1222.1 L -554.6 1226.4 L -501.5 1229.7 L -461.9 1225.9 L -403.4 1228.6 L -370.2 1232.9 L -333.8 1228.9 L -295.5 1225.1 L -292.5 1218.6 L -346.7 1218.1 L -391.2 1214.8 L -402.8 1209.4 L -439.8 1206.5 L -437.3 1200.3 L -432.2 1194.6 L -427.1 1189.5 L -429.8 1183.8 L -452.7 1180 L -463.2 1175.2 L -484.5 1170.9 L -451.1 1171.7 L -419.3 1169.5 L -399.3 1174.1 L -374.8 1170.1 L -352.1 1164.9 L -341.1 1160.3 L -345.9 1154.7 L -363.7 1150.9 L -383.9 1146.9 L -412.3 1146 L -437.1 1144.2 L -463.7 1142.8 L -472.6 1137.7 L -490.4 1133.4 L -501.2 1128.5 L -505.5 1112.9 L -498.8 1114.2 L -486.4 1118.5 L -463.7 1117.2 L -441.9 1115.3 L -430.6 1121.2 L -408.7 1119.9 L -390.4 1116.9 L -373.2 1113.1 L -357.5 1108.6 L -336.8 1107.2 L -337.3 1102.1 L -342.2 1097 L -338.1 1092.1 L -320.3 1089.7 L -312.2 1094.3 L -291.2 1091.6 L -275.3 1088.1 L -255.6 1087.8 L -237 1086.4 L -218.4 1083.2 L -203.6 1080.2 L -186.9 1077.3 L -176.1 1078.1 L -166.6 1079.2 L -146.2 1077.3 L -127.8 1079.7 L -108.9 1079.4 L -90.9 1077.5 L -72.3 1078.9 L -51.8 1080.2 L -32.6 1079.7 L -12.7 1080 L 7.8 1080.2 L 26.7 1079.7 L 40.7 1075.6 L 57.4 1073.5 L 74.7 1076.5 L 91.1 1074 L 105.9 1069.2 L 114.8 1073.5 L 119.7 1078.3 L 128.6 1082.9 L 142.9 1078.9 L 159.3 1084 L 177.9 1085.6 L 193.8 1089.4 L 213.2 1088.6 L 230.8 1086.2 L 251.5 1086.7 L 270.1 1088.6 L 289 1091 L 296.3 1085.1 L 287.4 1080.5 L 280.6 1075.6 L 262.8 1074.6 L 255 1069.4 L 252.1 1064.3 L 247.2 1054.1 L 257.7 1056 L 275.8 1056.8 L 293.6 1056 L 309.7 1058.1 L 323.8 1062.2 L 329.7 1067 L 348.3 1067.8 L 366.1 1065.9 L 385 1063.2 L 402 1061.6 L 416 1064.9 L 434.3 1063.8 L 446.2 1053.3 L 457.2 1059.5 L 473.1 1061.9 L 490.4 1060.5 L 501.7 1065.9 L 519.8 1066.5 L 536.5 1068.1 L 552.9 1071.1 L 563.7 1065.9 L 569.1 1061.1 L 582.9 1066.5 L 601.7 1065.1 L 615.7 1068.1 L 625.2 1072.7 L 643.5 1071.3 L 657.8 1068.4 L 671.8 1064.9 L 688.5 1063 L 708 1061.3 L 725.5 1059.5 L 739 1056.5 L 747 1052.2 L 750.3 1046.2 L 748.7 1040.6 L 744.3 1035.2 L 739.5 1029.8 L 735.2 1024.4 L 731.7 1019.5 L 730.9 1014.1 L 732.2 1008.8 L 738.7 1003.6 L 744.1 998 L 746.2 992.6 L 743.5 986.6 L 741.9 981.2 L 748.7 975 L 756.2 971 L 765.1 965.9 L 774.5 961.5 L 785.6 957.5 L 791 951.6 L 798.5 947.8 L 807.2 944.3 L 820.4 943.5 L 829 939.2 L 838.7 936.5 L 850 934.8 L 860 931.3 L 867.8 927 L 878.6 925.4 L 886.7 928.9 L 881.6 933.5 L 867.6 937.5 L 861.6 940.5 L 851.4 938.4 L 840.1 939.7 L 830.6 942.9 L 820.6 946.4 L 813.9 950.5 L 812 955.9 L 812.8 961 L 819.3 965.6 L 809.9 968.8 L 796.9 969.9 L 789.4 974.5 L 781.3 978.8 L 772.7 984.7 L 770.5 989.9 L 775.4 995.5 L 782.6 999.9 L 794 1003.1 L 804.5 1007.4 L 810.1 1012.8 L 813.1 1017.9 L 817.1 1023.3 L 823.6 1027.9 L 827.7 1033 L 829.5 1045.7 L 833.6 1050.8 L 834.7 1056.2 L 839 1061.6 L 837.1 1068.9 L 829.5 1074.6 L 821.5 1079.2 L 803.1 1081 L 796.9 1085.9 L 788.6 1090.5 L 767.8 1095.6 L 749.5 1097.8 L 732.2 1100.7 L 713.6 1103.7 L 702.6 1109.4 L 680.5 1109.9 L 656.2 1109.4 L 634.3 1110.4 L 611.2 1110.4 L 615.5 1115.8 L 636.5 1118.3 L 651.9 1122 L 660.5 1126.9 L 645.1 1131.2 L 621.4 1129.9 L 601.7 1133.4 L 600.9 1139 L 600.4 1144.4 L 616.6 1149 L 619.5 1154.1 L 637 1159.3 L 666.2 1161.4 L 691 1165.2 L 710.6 1169.5 L 735.7 1173.8 L 770 1176 L 803.7 1179.8 L 827.1 1183.8 L 852.7 1188.4 L 866.2 1194.9 L 872.9 1200 L 889.7 1195.1 L 912.3 1191.1 L 936.3 1186.8 L 964.9 1183.3 L 989.4 1179.5 L 1023.7 1179.2 L 1057.4 1181.1 L 1085.1 1184.3 L 1094 1178.4 L 1113.2 1174.4 L 1147.9 1174.1 L 1175.2 1171.1 L 1201.1 1168.2 L 1229.6 1166.3 L 1260.1 1163.8 L 1281.4 1160.3 L 1271.7 1155.5 L 1265.8 1150.6 L 1265.8 1145.5 L 1239.1 1146 L 1210.8 1148.2 L 1183.8 1148.2 L 1180 1143.1 L 1181.9 1132.8 L 1188.1 1129.9 L 1207.8 1126.6 L 1231 1123.4 L 1247.7 1119.3 L 1264.4 1115.3 L 1276.8 1109.9 L 1295.7 1107.5 L 1314.3 1105.6 L 1323.7 1104.5 L 1345 1104 L 1365.2 1102.1 L 1382.2 1099.4 L 1398.9 1096.1 L 1414 1092.9 L 1433.2 1088.6 L 1445.3 1084 L 1458.3 1080 L 1462.3 1074.6 L 1447.7 1071.3 L 1452.6 1065.7 L 1461.8 1061.3 L 1476 1058.7 L 1491.1 1055.4 L 1505.2 1051.1 L 1516 1045.7 L 1522.7 1039.2 L 1532.7 1035.5 L 1549.1 1036.3 L 1555.9 1040.8 L 1572.3 1041.4 L 1572.8 1036.3 L 1579.8 1030.9 L 1594.7 1032.2 L 1598.2 1037.3 L 1614.6 1038.2 L 1632.4 1035.7 L 1649.7 1034.1 L 1665.3 1034.9 L 1671.2 1040.6 L 1686.3 1036 L 1700.4 1033.6 L 1716 1031.7 L 1731.4 1029.8 L 1745.4 1026.6 L 1760.8 1024.4 L 1772.6 1021.4 L 1781 1016.6 L 1791.2 1020.1 L 1805.5 1018.2 L 1815.5 1024.7 L 1823.3 1029.5 L 1838.9 1026.8 L 1845.1 1021.4 L 1859.2 1017.7 L 1877.2 1018.5 L 1882.6 1023.6 L 1893.9 1018.5 L 1908.8 1016.8 L 1924.9 1016.3 L 1939.5 1016.6 L 1954.9 1018.2 L 1969.7 1019 L 1976.2 1023.6 L 1985.1 1027.6 L 2000.2 1025.2 L 2016.3 1024.7 L 2032 1024.7 L 2047.3 1024.4 L 2061.1 1022.5 L 2075.6 1020.9 L 2087.8 1017.1 L 2100.7 1014.7 L 2114.7 1013.3 L 2125.3 1009.6 L 2132.8 1002 L 2140.6 997.4 L 2154.9 999.6 L 2160.3 1004.4 L 2172.2 1007.7 L 2186.5 1006.6 L 2196.2 1011.4 L 2206.4 1015 L 2220.4 1011.7 L 2225.3 1005.8 L 2237.7 1003.4 L 2252 998.8 L 2265.4 996.9 L 2281.6 994.2 L 2292.4 991.2 L 2303.7 988 L 2314.5 985 L 2327.5 986.6 L 2339.9 981.8 L 2348.8 978 L 2361.7 978.3 L 2373 975 L 2375.7 970.2 L 2387.3 966.4 L 2398.6 963.7 L 2412.4 961.5 L 2425.1 960.5 L 2437.2 961.3 L 2450.1 962.6 L 2461.2 966.4 L 2462.5 972.3 L 2474.7 976.9 L 2483 980.7 L 2499.5 982.3 L 2508.6 986.1 L 2520 989.9 L 2533.2 990.7 L 2544.2 988 L 2556.1 982.3 L 2569 985.3 L 2582.5 986.9 L 2595.4 988.5 L 2608.9 989.6 L 2622.7 989.6 L 2634 1003.9 L 2633.5 1007.4 L 2631.8 1013.6 L 2618.6 1017.1 L 2607.8 1022.2 L 2609.7 1027.6 L 2625.1 1027.4 L 2623.2 1032.8 L 2616.2 1037.9 L 2609.7 1043.5 L 2620.2 1047.9 L 2636.2 1049.2 L 2652.1 1046.8 L 2659.6 1041.4 L 2664.2 1036.3 L 2671.7 1031.9 L 2680.4 1027.9 L 2683.9 1023 L 2691.2 1016.3 L 2699.8 1015 L 2715.4 1014.4 L 2729.2 1012.8 L 2743.2 1010.6 L 2749.9 1005.2 L 2754 1000.1 L 2763.4 995 L 2776.9 991.5 L 2788.5 988.8 L 2796 984.2 L 2803.8 981.8 L 2813.8 979.6 L 2827.6 981 L 2840 979.6 L 2853.5 978 L 2868.5 978.8 L 2878.5 975 L 2885.5 965.9 L 2890.7 969.6 L 2897.1 976.1 L 2908.7 978.8 L 2921.9 979.9 L 2935.1 978.3 L 2949.2 979.4 L 2962.1 979.6 L 2970.7 978.3 L 2982.3 979.1 L 2992.8 982 L 3005.2 980.2 L 3020.1 980.2 L 3032.7 978.3 L 3047 980.2 L 3056.2 975.6 L 3063.2 971 L 3072.6 967.2 L 3089.9 957 L 3098.8 958.9 L 3109.3 962.6 L 3118.5 967.5 L 3136 975.8 L 3149.5 976.1 L 3162.1 976.1 L 3177 974.5 L 3191.8 972.6 L 3203.1 968.8 L 3212.6 964.8 L 3227.9 964.2 L 3238.2 961.3 L 3249 964 L 3256 968.3 L 3265.7 972.6 L 3280.8 972.1 L 3290.2 975.6 L 3306.7 979.1 L 3323.9 980.4 L 3338.2 979.4 L 3349 975 L 3358.1 970.7 L 3370.6 969.6 L 3383 971.5 L 3397.2 972.9 L 3410.2 970.7 L 3422.6 970.7 L 3434.7 972.1 L 3447.4 973.4 L 3459.8 971 L 3474.6 968.8 L 3488.6 968.3 L 3504.3 968.3 L 3516.9 966.9 L 3529.3 965.9 L 3533.1 959.1 L 3533.7 953.5 L 3542.3 957.2 L 3544.7 963.4 L 3549.3 969.1 L 3555 973.7 L 3566.6 976.1 L 3582.2 975.3 L 3600.3 975 L 3612.7 974.2 L 3630.7 974.2 L 3643.7 974 L 3661.7 974.5 L 3677.1 975.6 L 3686.8 979.9 L 3684.1 985 L 3693 989.1 L 3707.8 992.3 L 3723.2 995.8 L 3741 998.2 L 3759.6 1000.4 L 3773.6 1002.5 L 3789.2 1002.8 L 3798.1 998.2 L 3810.3 1002 L 3820.8 1006.3 L 3832.9 1009.6 L 3849.6 1010.9 L 3865.5 1012.5 L 3872.3 1017.9 L 3887.9 1021.2 L 3898.4 1026 L 3913.8 1028.2 L 3929.7 1027.9 L 3944.5 1028.7 L 3961 1028.4 L 3977.4 1029.5 L 3992.8 1031.4 L 4007.1 1034.6 L 4021.4 1037.3 L 4031.1 1041.4 L 4029.5 1046.8 L 4022.2 1051.6 L 4016 1057.8 L 4011.1 1062.7 L 4004.7 1068.4 L 3986.6 1070.5 L 3978.5 1075.4 L 3960.7 1078.3 L 3954.5 1083.7 L 3945.1 1088.9 L 3935.1 1093.2 L 3929.4 1098.8 L 3925.9 1104 L 3924.6 1110.2 L 3924.9 1115.3 L 3932.7 1120.7 L 3935.6 1125.8 L 3942.1 1130.7 L 3967.7 1132.6 L 3973.1 1138.5 L 3948.3 1140.6 L 3927.3 1143.6 L 3901.1 1144.2 L 3889.5 1152 L 3887.1 1158.5 L 3881.2 1163.6 L 3873.9 1168.7 L 3892.2 1173.3 L 3899.2 1179 L 3911.1 1184.1 L 3927.8 1188.7 L 3947 1193 L 3967.7 1197.3 L 3999.3 1201.6 L 4006.3 1208.4 L 4045.9 1211.3 L 4048.6 1212.4 L 4058.8 1216.4 L 4096.9 1212.9 L 4128.4 1217.3 L 4152.1 1220.6 Z" />
<path class="lake" d="M 719.6 277.8 L 719.1 277.5 L 718.6 277.3 L 717.9 277.2 L 717.9 276.9 L 718.4 276.3 L 718.6 275.5 L 718.4 275.1 L 717.9 274.9 L 716.9 274.6 L 716 274.3 L 715.4 273.9 L 715.1 273.6 L 714.7 273.4 L 714.3 273.2 L 713.8 272.7 L 713.4 272.4 L 713.1 272.2 L 712.9 272.3 L 712.8 272.5 L 712.9 272.8 L 713 273.1 L 713.1 273.4 L 713.1 273.6 L 713 273.6 L 712.8 273.6 L 712.5 273.5 L 712.3 273.3 L 711.9 273.1 L 711.4 272.8 L 710.9 272.5 L 710.7 272.4 L 710.6 272.1 L 710.5 271.6 L 710.6 271 L 710.8 270.7 L 711.1 270.3 L 711.4 269.8 L 711.9 269.7 L 712.7 270 L 713.3 270.5 L 713.6 270.5 L 713.3 269.7 L 712.6 268.3 L 711.8 266.8 L 711.7 266.4 L 712 266.1 L 712.8 265.7 L 713 265.4 L 713.1 265.2 L 713.6 265.1 L 714.1 264.9 L 714.4 264.7 L 715.1 264.6 L 716 265.7 L 717.1 266.1 L 718.4 267.5 L 719 267.7 L 719.6 268 L 720.5 269.5 L 720.9 269.6 L 721.5 270 L 722 270.3 L 722.3 270.5 L 722.6 270.9 L 723.2 271.5 L 724.1 271.9 L 724.4 272.6 L 724.4 273.5 L 724.7 273.7 L 725.9 273.9 L 726.9 274 L 727.4 274.3 L 727.2 274.6 L 727 275 L 726.6 275.4 L 726.1 275.9 L 726.4 276.6 L 726.9 277.3 L 727.8 277.5 L 728.8 277.7 L 729.6 277.8 L 730.2 278 L 730.2 278.5 L 730.3 278.7 L 730.3 278.9 L 729.9 279 L 729.3 279.1 L 728.8 279.2 L 728.6 279.4 L 728.6 279.7 L 728.2 280 L 727.5 280.3 L 726.5 280.4 L 725.9 280.6 L 725.6 280.9 L 726 281.1 L 726.4 281.6 L 726.5 281.9 L 726.6 282.3 L 726.5 282.5 L 726.4 282.8 L 725.9 282.8 L 725.4 282.7 L 724.5 282.3 L 723.9 282 L 723.5 281.9 L 723.2 281.4 L 723.9 280.5 L 724.1 279.7 L 724 279.1 L 724 278.6 L 724.5 278.2 L 725.3 277.8 L 725.9 278 L 726.2 278 L 726.1 277.5 L 725.3 277.1 L 724.4 276.2 L 723.5 275.8 L 723.2 275.9 L 723.1 276.5 L 722.9 277.2 L 722.7 277.9 L 722.1 278.2 L 721.5 278.2 L 720.9 278.2 L 720.1 278.1 L 719.6 277.8 L 719.6 277.8 L 719.6 277.8 L 719.6 277.8 Z" />
<path class="lake" d="M 670 622.8 L 669.7 622 L 669.6 620.9 L 669.9 620.1 L 670.7 619.1 L 671.6 618.5 L 672.6 618.7 L 673.6 619.2 L 674.5 620.2 L 675.1 621.4 L 674.6 621.8 L 673.3 621.6 L 671.2 622.9 L 670 622.8 L 670 622.8 L 670 622.8 L 670 622.8 Z" />
<path class="lake" d="M 817.8 478.1 L 815.3 479 L 813.1 479.3 L 810.9 480.1 L 809.8 479.1 L 809.1 478.5 L 808.1 477.8 L 807.5 477 L 808.1 476.4 L 809.6 476 L 811 475.5 L 811.5 475 L 812.1 474.6 L 815.1 475.1 L 815.3 474.9 L 815.8 475 L 817 475.5 L 817.7 476.7 L 817.8 478.1 L 817.8 478.1 L 817.8 478.1 Z" />
<path class="lake" d="M 683.5 745.8 L 683.3 746.1 L 681.7 746.4 L 679.5 746.9 L 677.2 747 L 675.1 746.8 L 674 746.6 L 672.4 746.7 L 669.9 747.6 L 669.5 748.5 L 670.1 749.2 L 671.5 749.2 L 672.4 749.1 L 672.5 749.4 L 671.6 750.1 L 670.6 751.2 L 670.2 751.3 L 669.4 749.8 L 668 747.8 L 667.2 747.3 L 666.5 747.3 L 665.8 747.5 L 665.6 747.3 L 666.6 746.4 L 669.1 746.7 L 669.9 746.3 L 669.8 745.8 L 668.9 745.5 L 667.3 744.8 L 666.3 745 L 665.5 745.6 L 665.4 745.3 L 665.7 744.4 L 665.6 743.7 L 666.1 743.2 L 666.7 742.8 L 666.9 742.5 L 667.7 743.2 L 668.7 744.6 L 670.3 745.2 L 672.3 745.4 L 673.2 745.3 L 677.2 745.1 L 681.7 744.6 L 682.8 745 L 683.5 745.8 L 683.5 745.8 L 683.5 745.8 Z" />
<path class="lake" d="M 679.6 608.7 L 679.7 609.1 L 679.5 609.2 L 678.7 609.2 L 677 609.1 L 675.8 608.8 L 675.6 608.3 L 675.7 607.9 L 676 607.4 L 677.4 606.9 L 678.8 606.8 L 679.2 607.1 L 679.5 607.4 L 679.6 607.7 L 679.6 608.1 L 679.6 608.7 L 679.6 608.7 L 679.6 608.7 Z" />
<path class="lake" d="M 679.1 739.4 L 676.6 738.5 L 674.8 737.8 L 673.5 737.8 L 672.9 738 L 671.9 738 L 670.3 738.2 L 669.1 738.2 L 669.1 738.1 L 669.5 737.8 L 669.9 737.4 L 670 737.1 L 669.7 736.6 L 669.3 736 L 669.7 735.6 L 670.5 735 L 671.2 735 L 672.1 735.6 L 676.1 736.6 L 679.7 737.4 L 680.4 737.6 L 681.5 738.2 L 681.9 738.7 L 681.9 739.1 L 681.7 739.4 L 681.4 739.6 L 680.8 739.8 L 679.1 739.4 L 679.1 739.4 L 679.1 739.4 L 679.1 739.4 Z" />
<path class="lake" d="M 928.6 394.6 L 927.9 394.8 L 927 395.2 L 926.8 395.6 L 926.8 396.1 L 927.5 396.9 L 928 397.5 L 927.6 397.4 L 926.8 397.1 L 926.2 397.1 L 925.9 397.5 L 925.7 397.9 L 925.7 398.4 L 926.4 399.1 L 926.7 399.7 L 926.5 400.2 L 926.3 400.5 L 925.9 400.7 L 925.9 401.1 L 927.1 401.6 L 928.3 401.9 L 927.4 402.2 L 926.4 402.6 L 925.8 402.8 L 925.1 402.9 L 925.1 403.2 L 925.5 403.7 L 925.2 404 L 924.3 403.9 L 923.8 404.1 L 923.4 404.4 L 923.1 404.7 L 922.7 404.6 L 922.3 404.3 L 922.3 402.8 L 922.7 402.3 L 923.5 401.8 L 923.9 401.2 L 923.8 400.7 L 923.4 400.5 L 923.1 400.4 L 923.1 400.2 L 922.5 400 L 921.1 399.8 L 920.7 399.5 L 921.3 399.2 L 922.7 399.2 L 923.8 399.3 L 924 398.8 L 924.1 398.1 L 923.8 397.7 L 921.8 397.3 L 920.1 396.9 L 920.5 396.8 L 921.4 396.9 L 922.7 397 L 923.8 396.9 L 924.5 396.5 L 924.7 395.9 L 923.9 395.2 L 924.3 394.6 L 925.6 394.3 L 925.8 393.9 L 925.7 393.4 L 925.3 392.8 L 925.3 392.3 L 925.7 391.8 L 925.6 391.1 L 925.8 390.6 L 926.5 390.4 L 926.8 389.9 L 926.8 389.3 L 926.3 388.5 L 926 387.7 L 926.2 387.1 L 926.3 386.5 L 926.6 386.1 L 927.4 385.7 L 927.2 386.8 L 927.3 387.9 L 927.6 388.8 L 927.5 391.3 L 927.5 393.7 L 928.1 394.3 L 928.6 394.6 L 928.6 394.6 L 928.6 394.6 L 928.6 394.6 Z" />
<path class="lake" d="M 950.4 503 L 950.1 503.7 L 949.5 504.6 L 949.1 505.4 L 948.5 506.1 L 948 507 L 947.5 507.4 L 946.9 507.6 L 946.3 507.5 L 945.7 506.8 L 945.2 506.3 L 944.6 506 L 943.9 506.1 L 943 506.6 L 942.4 508.1 L 941.7 509.5 L 940.8 509.8 L 940.4 509.9 L 940 510 L 939.6 510.4 L 939.2 510.9 L 938.8 512 L 938.6 513.6 L 938.8 515.2 L 938.6 516 L 938.1 516.3 L 937.8 516.4 L 937.6 516.3 L 937.4 516.2 L 937.2 515.8 L 937 515.4 L 936.9 514.7 L 936.9 513.8 L 936.8 512.8 L 936.5 512.1 L 936.3 511.4 L 936.2 510.6 L 936.6 509.8 L 937.3 509.1 L 938.3 508.2 L 939.2 508.1 L 940 507.7 L 940.4 507.1 L 940.5 506.4 L 940.5 505.9 L 940.7 505.4 L 941.2 505.1 L 941.8 504.7 L 942.4 504.3 L 942.9 503.9 L 943.6 503.5 L 944.4 503.2 L 945 502.3 L 945.4 501.4 L 946.5 500.9 L 947.4 500.3 L 947.5 499.7 L 947.7 499.2 L 947.9 498.6 L 948.3 498 L 948.7 497.7 L 948.9 497.8 L 949.1 498.2 L 949.1 499.8 L 949.6 500.4 L 950 501.2 L 950.4 501.8 L 950.5 502.4 L 950.4 503 L 950.4 503 L 950.4 503 L 950.4 503 Z" />
<path class="lake" d="M 694.8 694.9 L 694.2 695.4 L 691.9 695.6 L 688.4 695.1 L 686.3 694.5 L 683.3 694.8 L 679.7 695.7 L 675.7 697.9 L 672.6 699.7 L 672.1 700.2 L 671.9 700.8 L 671.5 701.4 L 670.9 701.6 L 671.3 700.2 L 672.4 698.5 L 673.6 697.7 L 674.2 696.8 L 673.7 695.8 L 673.3 694.7 L 673.8 694.5 L 674.4 695.4 L 675.2 696 L 676.7 695.9 L 680 694.7 L 683.5 693.7 L 685.1 692.9 L 684.9 692.4 L 685.1 692.1 L 685.4 692 L 686.7 692.2 L 688.4 691.8 L 688.7 692 L 689.1 692.6 L 691 693.3 L 692.8 693.7 L 694 694.3 L 694.8 694.9 L 694.8 694.9 L 694.8 694.9 L 694.8 694.9 Z" />
<path class="lake" d="M 990.1 115.3 L 990.1 115.3 L 990.1 115.3 L 990.1 115.3 L 988.7 115.2 L 988.5 114.9 L 988 114 L 988.1 113.6 L 988.7 113.1 L 988.7 112.2 L 988.8 111.9 L 989.5 111.1 L 989.6 110.3 L 990 109.9 L 990 109 L 990.1 107.5 L 990.4 107.3 L 991.3 107.4 L 991.7 109 L 992.4 111.3 L 992.7 112.6 L 992.7 113.1 L 993 113.4 L 993.7 114.5 L 994 115.8 L 993.9 116.3 L 995.1 117.8 L 995.8 118.9 L 995.5 119.5 L 996 120.6 L 995.9 121 L 995.1 121.7 L 995.2 122.5 L 996 125.6 L 997.5 127.1 L 1000.4 127.1 L 1000.8 127.5 L 1000.3 127.9 L 997.6 128.6 L 996 127.4 L 995.1 125.8 L 994.2 123.9 L 992.6 121.2 L 992.3 119.7 L 991.7 118.5 L 990.6 118 L 990.1 117.7 L 990.6 117 L 990.9 116.2 L 990.6 115.6 L 990.1 115.3 Z" />
<path class="lake" d="M 1055.3 313 L 1055.3 313 L 1055.3 313 L 1055.3 313 L 1055.8 313.2 L 1055.9 313.6 L 1056.3 313.8 L 1056.1 314 L 1055.4 313.9 L 1054.3 313.6 L 1053.3 313.7 L 1053.2 313.9 L 1053.3 314.5 L 1053.9 316.1 L 1053.7 316.7 L 1053.4 316.4 L 1052.8 315.3 L 1052.2 315.4 L 1052 315.5 L 1050.7 315.6 L 1049.5 316.1 L 1049.5 315.2 L 1049.6 315 L 1051.5 314.8 L 1052.1 314.4 L 1052.3 313.7 L 1052 312.6 L 1051.7 312.7 L 1051.6 313.8 L 1051.1 314 L 1050.3 313.7 L 1050.3 313.3 L 1051 312.8 L 1051.4 311.6 L 1051.4 310.8 L 1051.1 310.9 L 1050 311.3 L 1049.8 311 L 1050.2 310.8 L 1050.4 310.5 L 1050.9 309.7 L 1050.6 309.1 L 1049.9 309 L 1049.5 309.5 L 1049.1 309.9 L 1048.4 310 L 1047.9 310.3 L 1048 309.8 L 1048.4 308.8 L 1049 308.2 L 1050.1 307.7 L 1050.1 307.2 L 1050.4 306.4 L 1050.4 306 L 1049.7 305.9 L 1050 305.5 L 1051 305 L 1051.3 305.1 L 1051.8 305.4 L 1051.5 306.3 L 1051 307.9 L 1051.4 308.8 L 1052 309 L 1052.3 309.3 L 1052.4 310.1 L 1052.5 310.6 L 1052.9 310.5 L 1053.1 310.6 L 1053.1 311.1 L 1052.8 311.7 L 1052.9 312.4 L 1053.6 312.9 L 1054.5 312.7 L 1054.7 312.2 L 1055 312.4 L 1055.1 312.8 L 1055.3 313 Z" />
<path class="lake" d="M 966.6 335.6 L 966.6 335.6 L 966.6 335.6 L 966.6 335.6 L 966.5 335.2 L 966.7 334.9 L 966.9 334.7 L 966.3 333.7 L 966.5 333.3 L 967.1 333.6 L 968 333.6 L 968.6 333.3 L 969.9 333.3 L 970.2 333.1 L 970 332.3 L 970.3 331.8 L 970.9 332.2 L 971.3 332.2 L 971.7 331.2 L 971.7 330 L 971.7 326.8 L 972 325.9 L 972.4 325.2 L 972.8 326 L 973 328.6 L 973.1 329.5 L 975 328.8 L 976.9 327.6 L 978.1 327.3 L 976.9 329.1 L 975.2 329.7 L 974.5 330.2 L 973.3 331 L 972.6 332.1 L 972.7 333 L 973.3 333.4 L 973.6 334.2 L 972.6 334 L 971.9 334.3 L 971.1 334.4 L 970.8 334.4 L 970.3 334.6 L 969.5 334.8 L 969 335.2 L 969.9 336.1 L 971.5 336.8 L 971.5 337.1 L 969.7 336.6 L 968.2 335.8 L 967.4 336 L 966.9 335.9 L 966.6 335.6 Z" />
<path class="lake" d="M 674.9 614.1 L 674.9 614.1 L 674.9 614.1 L 674.9 614.1 L 675.8 613.6 L 677.9 613.6 L 678.3 613.9 L 678.2 614.2 L 676.9 614.8 L 675.4 614.6 L 674.9 614.1 Z" />
<path class="lake" d="M 729 679.7 L 729 679.7 L 729 679.7 L 729 679.7 L 729.2 680.2 L 729.5 680.9 L 730.1 681.5 L 730.5 681.7 L 730.6 682.3 L 730.1 682.8 L 728.6 683 L 726.7 682.8 L 725.7 681.2 L 725.1 680.1 L 724.9 678.4 L 725 677.8 L 725.5 677.5 L 726.3 678 L 726.5 679.3 L 726.9 679.6 L 727.3 679.6 L 727.8 678.9 L 728.7 679 L 729 679.7 Z" />
<path class="country" d="M 729.6 779 L 734.9 785.4 L 741.8 795.7 L 759.7 804 L 779 807.4 L 772.8 814.3 L 759.7 815 L 752.7 810.1 L 744.4 809.8 L 729.6 809.8 L 729.6 779 Z M 881.2 470.4 L 877.7 481.4 L 874 495.6 L 874.2 509.3 L 871.2 512.3 L 870.1 521.2 L 869.2 528.4 L 886.7 540.2 L 884.8 549.7 L 893.4 555.7 L 892.7 562.4 L 879.5 580.1 L 859.1 587.5 L 831.4 590.3 L 816.3 588.9 L 819.2 597.2 L 816.4 607.5 L 818.9 614.4 L 810.7 619.2 L 796.6 621.1 L 783.3 616.1 L 778 619.7 L 779.9 633.4 L 789.2 637.6 L 796.8 633.2 L 800.9 640.4 L 788.2 644.6 L 777.2 653.2 L 775.1 667 L 771.9 674.4 L 758.9 674.5 L 748.1 681.5 L 744.1 691.8 L 757.7 701.9 L 770.8 704.7 L 766.1 717 L 749.8 724.8 L 740.9 740.9 L 728.3 746.4 L 722.7 752.8 L 727.1 767.1 L 736.3 775.1 L 730.5 774.4 L 717.7 772.2 L 684.5 770.4 L 678.8 762.4 L 679 752.1 L 669.9 752.9 L 665 747.9 L 663.8 733.4 L 674.4 727.3 L 678.7 718.6 L 677.1 711.6 L 684.4 699.9 L 689.5 681.6 L 688 673.5 L 694 670.9 L 692.5 665.8 L 686.1 663 L 690.7 657.2 L 684.5 652 L 681.2 636.1 L 686.8 633.3 L 684.5 616.5 L 687.7 602.4 L 691.4 590.2 L 699.6 585.2 L 695.4 571.7 L 695.4 559.1 L 705.8 550.1 L 705.5 538.6 L 713.3 525.2 L 713.4 512.5 L 709.8 510 L 703.5 486.2 L 711.9 472.1 L 710.6 458.7 L 715.6 446.2 L 724.6 433.3 L 734.3 424.7 L 730.2 419.3 L 733 414.9 L 732.6 392 L 747.6 385.2 L 752.3 370.9 L 750.7 367.4 L 762.1 355 L 780.1 358.4 L 788.2 368.3 L 793.6 357.2 L 809.3 357.8 L 811.5 360.7 L 836.8 383.2 L 848.1 385.3 L 864.9 395.5 L 879.1 400.8 L 881.1 406.9 L 867.5 427.8 L 881.4 431.6 L 896.8 433.7 L 907.7 431.5 L 920.2 420.9 L 922.5 408.8 L 929.3 406.1 L 936.2 414.1 L 935.9 425.1 L 924.3 432.7 L 915.1 438.3 L 899.5 451.6 L 881.2 470.4 Z" />

<path class="river" d="M 1063.4 349.9 L 1060.2 347.9 M 1052.1 344.8 L 1051.5 344.7 L 1051.2 344.5 L 1050.3 344 L 1048.9 343.7 L 1047 342.4 L 1044.8 340.2 L 1043.3 339.2 L 1042.5 339.6 L 1041.9 339.6 L 1041.5 339.2 L 1040.1 339 L 1036.7 339 M 1026.4 333.7 L 1031 336.4 L 1032.7 337.5 L 1033.1 338.4 M 972.4 331.2 L 978.1 327.3 M 994.6 329.5 L 981.1 327.8" />
<path class="river" d="M 979.4 316.3 L 979.3 315.4 L 979.8 314.3 L 981.1 312.8 L 982.7 311.7 L 984.8 311.1 L 986.7 310.7 L 989 310.7 M 1010.5 306.9 L 1000.6 306.7 L 998.4 307.6 M 1021.3 304.6 L 1016.6 307.5 L 1014.6 308.4 L 1013.4 308.2" />
<path class="river" d="M 922.7 404.6 L 924.6 401.6 L 925.1 400.3 L 924.8 399.5 L 925.4 396.8 L 926.8 392.1 L 927.2 389.1 L 926.7 387.6 L 926.7 386.6 L 927.4 385.7 M 959.5 349.4 L 959.2 350 L 958.7 350.3 L 957.9 350.6 L 957.6 351.2 L 957.7 352.1 L 956.9 353.4 L 955.2 355.1 L 953.9 356.7 L 953.1 358.3 L 950.8 360.2 L 945.4 363.6 M 972.4 325.2 L 972.4 331.2 L 971.5 332.8 L 970.1 334 L 966.9 335.9" />
<path class="river" d="M 1053.7 316.7 L 1052.5 313.3 L 1052.2 310.4 L 1051.5 309.1 L 1050.5 308.6 L 1050.3 307.5 L 1051.4 305 M 1080.4 207.9 L 1081.7 205.7 L 1083.2 204.3 L 1085.5 203 L 1087.5 200.9 L 1089.4 198 L 1090.2 195.9 L 1090.1 194.5 L 1090.7 193.4 L 1092.1 192.4 L 1093.4 190.9 L 1094.5 188.9 L 1097.5 187.9 L 1102.4 187.9 L 1105.4 187.7 L 1106.5 187.2 L 1107.6 186.2 L 1108.6 184.6 L 1110 183.9 L 1112.5 184.4" />
<path class="river" d="M 990.4 107.3 L 991.1 112.4 L 992.4 117.1 L 994.5 122.8 L 996 126.3 L 997 127.5 L 998.3 127.9 L 1000.8 127.5" />
<path class="river" d="M 943.3 300.2 L 941.9 294.1 L 942.1 292.6 L 942.7 291.4 L 943.8 289.8 L 944.4 288.4 L 944.5 287.2 L 945.6 285.9 L 947.7 284.4 L 949.2 282.6 L 950.1 280.6 L 951.1 279.2 L 952.1 278.6 L 952.6 277.7 L 952.5 276.6 L 952.9 275.9 L 953.6 275.5 L 954.4 274.8 L 955.1 273.8 L 956.7 273 L 959.1 272.2 L 960.7 271.2 L 961.4 270 L 961.6 269.1 L 961.5 268.6 L 961.7 268.1 L 962.3 267.7 L 962.8 266.5 L 963.2 264.5 L 964.2 262.9 L 965.9 261.6 L 967.2 261.3 L 968.4 261 L 969 261 L 969.8 260.6 L 970.8 258.7 L 972.7 253.6 L 973.2 250 L 973.6 248.7 L 974.2 248.5 L 974.4 247.1 L 974.3 244.5 L 975.1 241.8 L 977 239.1 L 977.9 236.9 L 977.9 235.2 L 978.3 233.6 L 979.5 231.3 L 978.3 230.9 L 977.7 230.2 L 977.1 228.8 L 977 227.3 L 977.5 225.7 L 977.4 223.6 L 976.9 221.2 L 976.8 219.5 L 977.1 218.6 L 977 217.6 L 976.3 216.2 L 977 214.9 L 976.9 213.8 L 976.3 212.5 L 976.4 210.7 L 977.3 208.1 L 977.7 205.9 L 977.9 203 L 977.9 201.6 L 978.5 199.9 L 979.9 197.5 L 980.6 195.7 L 980.7 194.6 L 981.5 192.6 L 983.7 188.4 L 985 184.2 L 986.4 181.4 L 988.5 178.7 L 990.2 176.9 L 991.5 176.1 L 993 174.3 L 994.7 171.3 L 996 168.7 L 996.8 166.5 L 997.3 164.5 L 997.5 162.8 L 996.9 161.2 L 995.3 159.8 L 995.2 157.9 L 996.6 155.4 L 997.2 153.1 L 997 150.9 L 998.8 148.9 L 1002.6 147 L 1004.7 145.3 L 1005.1 143.8 L 1005.7 142.8 L 1006.4 142.2 L 1007.2 141.9 L 1008 142 L 1008.3 141.3 L 1008 139.9 L 1008.3 139 L 1009.3 138.6 L 1009.6 138 L 1009.2 137.2 L 1009.4 136.6 L 1010.2 136.3 L 1010.3 135.5 L 1009.8 134.3 L 1010.1 133.3 L 1011.2 132.6 L 1011.5 131.8 L 1011 131.1 L 1010.5 130.6 L 1009.9 130.5 L 1009.3 130 L 1008.7 129.1 L 1007.9 128.8 L 1006.6 128.9 L 1005.4 128.8 L 1003.7 128.2 L 1000.8 127.5" />
<path class="river" d="M 979.5 231.3 L 980.7 228.2 L 982.1 226.4 L 983.9 225 L 984.7 224 L 984.5 223.3 L 984.6 222.5 L 985.3 220.9 L 985.6 220.5 L 986.1 220.4 L 986.8 220.6 L 987.3 220.1 L 987.5 218.9 L 987.4 217.9 L 987 217.1 L 987.1 215.4 L 987.6 212.8 L 987.7 211.4 L 987.2 211.1 L 987.1 210.2 L 987.2 208.9 L 987 207.4 L 986.5 205.9 L 986.4 202.8 L 986.8 198.1 L 986.6 194.8 L 986 192.7 L 985.5 191.6 L 984.9 191.5 L 984.4 191.1 L 984 190.4 L 983.7 189.6 L 983.7 188.4" />
<path class="river" d="M 693.8 588.1 L 695.3 587.1 L 695.3 585.8 L 693.8 583.2 L 692.9 582.4 L 692.5 581.4 L 692.4 579.9 L 691.5 578.7 L 689.8 577.6 L 688.5 576.4 L 687.6 575.1 L 686.7 574.2 L 685.6 573.7 L 684.4 573.6 L 683 573.9 L 682.1 573.7 L 681.3 572.8 L 679.8 572 L 678.4 571.6 L 676.7 571.5 L 675.4 571.1 L 674.5 570.5 L 673.8 569.4 L 673.1 567.7 L 672.2 566.6 L 671 566.2 L 670.4 565.4 L 670.1 564 L 669.5 562.8 L 668.7 561.7 L 668 561.1 L 667.7 561" />
<path class="river" d="M 694 654.4 L 695.8 654.7 L 696.9 654.1 L 698.4 651.8 M 698.5 651.8 L 699.7 647.7 L 700.6 646.1 L 701.6 645.7 L 702.2 645.1 L 702.4 644.1 L 702.9 643.2 L 703.7 642.2 L 704.5 641.6 L 705.2 641.2 L 707.5 641.1 L 711.2 641.3 L 713.8 641.5 L 715.2 641.7 L 717.6 643.9 L 721.1 648 L 722.8 650.6 L 722.5 651.8 L 722.5 652.5 L 723 653.1 L 724.9 654.4 L 726 655.6 L 726.7 657 L 727.8 657.6 L 729.2 657.4 L 730.8 657.5 L 732.7 658 L 737 657.7 L 747.2 656.2 L 747.9 656.2 L 748.5 656.6 L 749 657.3 L 749.9 657.8 L 751.2 658 L 753.8 657.9 L 758.7 657.4 L 759.1 657.3 L 759.6 656.9 L 759.6 656.6 L 759.5 656.1 L 759.8 655.7 L 761 654.9 L 762.1 654.3 L 764.4 653.5 L 766.1 652.7 L 767.2 651.8 L 768.7 651.2 L 770.6 651.1 L 772.1 650.8 L 773.1 650.3 L 774.9 650.3 L 779 651" />
<path class="river" d="M 780.1 588.6 L 785.2 589.1 L 788 589.6 L 790.3 590.3 L 793.6 591.8 L 797.9 594.3 L 800.9 595.7 L 802.6 595.9 L 804.2 596.5 L 805.9 597.5 L 808.3 598.2 L 811.4 598.5 L 813.8 599.7 L 816.7 602.6 L 817.1 603 L 817.5 603.4 M 706.7 540.2 L 707.8 544.4 L 708.5 546.2 L 709.8 547.4 L 712.7 548.1 L 714.1 549.5 L 715 551.9 L 715.4 553.6 L 715.1 554.5 L 715 555.6 L 715.3 557 L 715 558.2 L 714.3 559.2 L 713.8 560.8 L 713.5 562.8 L 713.6 564.1 L 714.2 564.7 L 715 565.2 L 716 565.8 L 718.2 566.2 L 721.5 566.4 L 723.5 567.1 L 724.4 568.2 L 726.4 569.1 L 729.5 569.6 L 731.5 570.2 L 732.1 570.9 L 734.6 571.5 L 738.9 572 L 741.3 572.9 L 742 574 L 741.8 575.1 L 740.7 576.2 L 740.2 577.1 L 740.3 577.9 L 740.8 578.3 L 741.6 578.5 L 742.6 579.2 L 743.9 580.5 L 745.8 581 L 748.4 580.8 L 750.1 581.3 L 750.8 582.5 L 752.2 583.6 L 755.4 584.7 L 756.9 585.3 L 757.6 585.9 L 758 586.8 L 758.7 587.3 L 759.9 587.5 L 764.9 587.7 L 767.4 588 L 769.2 588.5 L 770.6 588.7 L 771.5 588.4 L 772.6 588.4 L 773.9 588.9 L 775.9 589 L 780 588.6 M 95.2 -396 L 94.3 -393.8 L 93.6 -393 L 92.8 -392.8 L 92 -391.8 L 91.1 -390.1 L 90.1 -388.9 L 89.1 -388.4 L 88.7 -387.7 L 88.7 -386.8 L 88.8 -386.6 L 89 -386.6 L 89.3 -386.5 L 89.7 -385.8 L 90.1 -385.5 L 90.9 -385.5 L 91.3 -385.3 L 91.7 -384.9 L 92.3 -384.6 M 102.9 -417 L 100.6 -415.5 L 99.4 -414.2 L 98.2 -412.2 L 98.3 -410.6 L 98.3 -409.2 L 98 -408.1 L 97.5 -407.1 L 96.9 -406.2 L 96.2 -405.7 L 95.5 -405.5 L 95.3 -404.3 L 95.5 -402.1 L 96.2 -400.8 L 97.6 -400.3 L 98.4 -399.6 L 98.7 -398.6 L 98.6 -397.6 L 98.1 -396.6 L 97.1 -396.1 L 95.2 -396 M 97 -432.2 L 96.8 -427.3 L 96.8 -426 L 97.5 -424.5 L 99.7 -421.7 L 99.9 -421 M 95 -441.3 L 95.1 -440.8 L 95.7 -439.9 L 95.7 -438.5 L 95.8 -437.4 L 96.2 -436.7 L 96.3 -436 M 120.6 -444.9 L 116.1 -442.8 L 114.9 -441.7 L 114.5 -441 L 114.5 -438.8 L 114 -437.8 L 113.1 -437.8 L 111 -438.3 L 110.2 -438.7 M 139.9 -453.9 L 138.3 -452.8 L 137.1 -451.4 L 135.6 -449.3 L 134.7 -447.8 L 134.4 -446.8 L 134.6 -445.5 L 135.1 -443.9 L 135 -442.8 L 134.2 -442.2 L 132.8 -442.1 L 130.7 -442.5 L 129.2 -443.2 L 128.3 -444.1 L 127.5 -444.5 L 126.9 -444.2 L 126.4 -444.2 L 125.9 -444.6 L 125.8 -445 L 126.2 -445.6 L 126.3 -446.1 L 126 -446.4 L 125.4 -446.6 L 124.5 -446.6 L 123.2 -446.2 L 120.6 -444.9 M 217.2 -498.4 L 215.5 -497.9 L 213.6 -497.4 L 211.4 -497.4 L 209.8 -497 L 208.6 -496.4 L 207.1 -495.1 L 206.5 -494.7 L 206 -494.6 L 205.3 -495 L 204.4 -495.1 L 203.2 -494.8 L 201.9 -493.8 L 200.5 -492 L 199.7 -491.2 L 198.3 -490.7 L 194.1 -490.3 L 191.4 -490.3 L 189.9 -490 L 188.5 -489.4 L 186.3 -488 L 184.4 -486.7 L 183.4 -484.8 L 181.8 -483.7 L 180.1 -483.6 L 176.7 -484.9 L 175.8 -485.1 L 174.6 -485.1 L 173.3 -484.3 L 171.3 -482.8 L 170.3 -481.5 L 169.8 -479.8 L 169 -478.7 L 168 -478.3 L 167.1 -477.6 L 166.3 -476.6 L 165.8 -476.2 L 165.5 -476.3 L 165.3 -476.1 L 165.1 -475.3 L 164.8 -474.8 L 164.3 -474.8 L 164 -474.3 L 163.8 -473.4 L 163.2 -472.4 L 161.6 -470.9 L 158.4 -468.1 L 156.8 -467.2 L 155.2 -467.2 M 217.4 -501.7 L 217.8 -499.1 L 217.8 -498.7" />
<path class="river" d="M 922.7 260.7 L 926.2 259.5 L 927.6 258.7 L 928.2 257.9 L 929.2 257.6 L 930.5 258 L 931.5 258.1 L 932.5 257.7 L 935.8 255.3 L 937.8 251.9 L 939.7 246.7 L 941.1 243.6 L 942.1 242.4 L 942.6 241.4 L 942.6 240.7 L 943.7 238.2 L 945.9 233.7 L 946.5 230.8 L 945.6 229.4 L 945.2 228.5 L 945.5 228.1 L 944.8 226.8 L 943.1 224.6 L 941.9 223.3 L 941.1 222.9 L 940.3 221.9 L 939.5 220.3 L 938.5 219.2 L 937.5 218.5 L 936.9 217.5 L 936.6 216.2 L 937 214.7 L 938.7 212" />
<path class="river" d="M 747.1 500.4 L 748.9 504.2 L 749.4 506 L 749.1 507 L 749.3 509.3 L 749.8 512.9 L 751.4 516.8 L 754.2 521.2 L 755.6 523.8 L 755.5 524.6 L 755.2 525.2 L 754.8 525.5 L 754.6 526.2 L 754.7 527.3 L 755 528.6 L 755.5 530.2 L 756.3 531.8 L 757.4 533.4 L 758.2 535.2 L 758.7 537 L 758.5 541 L 757.7 547.1 L 756.5 551.1 L 755 552.9 L 754.4 555.5 L 754.9 558.8 L 754.9 561 L 754.5 562.3 L 754.5 563.6 L 755 565.2 L 754.9 566.2 L 754.4 566.5 L 755.1 567.2 L 756.9 568.3 L 758.4 569.4 L 759.6 570.6 L 760.8 571.3 L 762 571.3 L 763 572.1 L 763.6 573.7 L 765 574.8 L 767.1 575.3 L 768.3 576.4 L 768.6 578 L 768.4 578.9 L 767.7 579.2 L 767.1 579.8 L 766.6 580.7 L 767.1 581.4 L 768.5 582 L 769.4 582.6 L 769.8 583.4 L 771 584.3 L 772.8 585.4 L 775.3 586.6 L 780.1 588.6" />
<path class="river" d="M 1062.5 359.4 L 1064.5 358 L 1065.9 356.6 L 1067.2 354.9 L 1067.9 353.6 L 1067.9 353 L 1067.8 352.6 L 1067.4 352.6 L 1067 352 L 1066.4 350.8 L 1065.4 350.1 L 1063.4 349.9 M 1060.2 347.9 L 1059.3 346.8 L 1058.6 346.4 L 1057.7 346.3 L 1056.9 346 L 1056.1 345.3 L 1055.4 345.3 L 1054.6 345.8 L 1053.9 346 L 1053.3 345.9 L 1052.7 345.5 L 1052.1 344.8 M 1036.7 339 L 1033.1 338.4 M 1026.4 333.7 L 1022.9 331.4 L 1021.5 330.3 L 1021.1 329.8 L 1020.3 329.7 L 1019.2 330 L 1018.4 330.1 L 1017.9 329.7 L 1017.1 329.5 L 1016.2 329.5 L 1015.6 329.9 L 1015.6 330.5 L 1014.9 330.9 L 1013.8 330.9 L 1013 331.4 L 1012.2 331.4 L 1011.2 330.9 L 1010.2 331.1 L 1008.7 331.7 L 1003.8 331.8 L 1002.5 332 L 1001.8 333 L 1001.5 334.9 L 1001 335.7 L 1000.6 335.4 L 1000.2 334.4 L 1000 332.7 L 999.4 332.4 L 998.3 333.3 L 997.6 333.8 L 997.1 333.8 L 996.6 333.2 L 996 331.8 L 995.9 330.8 L 996.3 330 L 996.1 329.6 L 994.6 329.5 M 981.1 327.8 L 980.2 327 L 979.4 326.9 L 978.1 327.3 M 796.8 316.4 L 798.7 317 L 799.4 316.7 L 799.6 315.7 L 800.3 315 L 801.5 314.7 L 802.9 313.9 L 804.5 312.7 L 806.2 310.7 L 807.9 308.1 L 809.1 305 L 810.3 299.5 L 810.1 296.7 L 810.3 294.9 L 810.7 293.1 L 810.8 291.8 L 810.5 291.1 L 809.6 290.6 L 808.3 290.1 L 807.2 288.9 L 806.4 286.8 L 803.6 284.8 L 798.9 282.8 L 796.1 280.9 L 795.2 279.2 L 793.9 278 L 792.2 277.4 L 791.2 276.8 L 791 276.2 L 789.3 275.1 L 784.3 272.8 M 761.4 296.4 L 765.6 300.4 L 766.4 301.6 L 767 301.9 L 767.7 301.9 L 768.7 302.4 L 770.8 304 L 774.3 307.4 L 775.7 309 L 776.2 310.2 L 777 310.9 L 778.2 311.1 L 779 310.9 L 779.4 310.2 L 780.3 309.7 L 781.5 309.2 L 783 309.5 L 784.7 310.8 L 786.1 311.2 L 787.4 310.8 L 788.7 311.7 L 790.1 314 L 791.2 315.4 L 792.1 315.8 L 792.7 316.6 L 793.1 317.8 L 793.6 318.3 L 794.2 318.2 L 794.7 317.7 L 795 316.8 L 795.6 316.4 L 796.9 316.4" />
<path class="river" d="M 779.2 218.5 L 779.1 217.3 L 778.4 216.1 L 778.1 216 L 777.7 216.2 L 777.4 216.4 L 777.1 216.2 L 777 215.7 L 777.2 214.8 L 776.8 213.9 L 775.8 212.9 L 775.2 211.9 L 775.2 210.9 L 774.9 210.2 L 774.5 209.9 L 774.3 209.3 L 774.2 208.4 L 774.5 207.4 L 775.2 206.2 L 775.1 204.4 L 774.1 202 L 773.6 200.2 L 773.5 199.1 L 773.6 198.3 L 774.2 197.5" />
<path class="river" d="M 1034.3 334.2 L 1036.8 334.6 L 1039.9 334.6 L 1041.2 334.4 L 1041.7 334.2 L 1041.9 333.9 L 1041.7 333.5 L 1042 333 L 1042.6 332.2 L 1043.7 331.7 L 1045.1 331.6 L 1046.1 330.7 L 1046.7 329 L 1047.3 328 L 1048 327.6 L 1048.2 327 L 1047.9 326.3 L 1048.1 325.5 L 1048.9 324.6 L 1049.5 323.2 L 1050.1 321.3 L 1051.1 319.9 L 1052.5 319.1 L 1053.3 318.2 L 1053.7 316.7" />
<path class="river" d="M 861.3 254.5 L 861.7 252.3 L 861.7 250.6 L 861.2 247.7 L 861.7 246.9 L 861.9 244.7 L 862 240.9 L 862.3 238.5 L 862.8 237.4 L 863.2 233.4 L 863.4 226.5 L 864.1 222.1 L 865.3 220.5 L 865.9 218.6 L 866 216.5 L 866.4 214.9 L 867 214 L 867.4 212.8 L 867.5 211.5 L 867.3 210.9 L 866.8 210.4 L 866.7 209.1 L 866.9 205.5" />
<path class="river" d="M 774.2 197.5 L 775.3 195.6 L 775.5 194.1 L 775.2 192.5 L 775.1 191.2 L 775.4 190.4 L 775 189.2 L 774 187.8 L 773.8 186.8 L 774.7 186 L 776.4 185.9 L 779.1 186.4 L 780.8 186.4 L 781.5 186 L 781.9 185.2 L 782 184.1 L 782.4 183.5 L 783 183.4 L 783.8 182.8 L 784.8 181.5 L 786.1 180.9 L 787.6 180.9 L 788.7 180.3 L 789.5 179.1 L 790.4 178.4 L 791.7 178 L 792.3 177.5 L 792.4 176.8 L 792.9 176.1 L 794 175.4 L 794.5 174.6 L 794.6 173.8 L 795.5 173.1 L 797.2 172.5 L 798.4 172.2 L 799.3 172.5 L 799.7 172.2 L 799.4 171.6 L 799.7 171 L 800.4 170.5 L 801.2 169.5 L 802.5 167.2 L 803.8 167.6 L 805.4 167 L 808.7 165.1 L 809 163.8 L 808.6 161.9 L 807.5 158.8 L 807.5 155.7 L 808.6 152.5 L 809.6 150.9 L 810.5 150.8 L 811.5 149.9 L 812.5 148.4 L 813.7 147.6 L 815 147.4 L 815.9 147 L 816.2 146.4 L 816.2 145.8 L 815.9 145.3 L 816.2 144.5 L 817 143.3 L 817.5 142.1 L 817.7 140.9 L 818.4 140.2 L 819.2 140.1 L 819.7 140.1 L 820.2 140.1 L 822.3 140.3 L 823.1 140 L 823.3 139.1 L 824 138.2 L 825 137.4 L 825.5 136.7 L 825.5 136.1 L 825.8 135.7 L 826.3 135.6 L 826.5 135.4 L 826.2 135.1 L 827.2 134.8 L 829.4 134.7 L 830.7 134.1 L 831.2 132.9 L 833.1 131.8 L 836.6 130.6 L 838.4 129.5 L 838.5 128.4 L 839.6 127.3 L 841.2 126.5 L 842.2 126 L 842.6 125.7 L 843.1 125.3 L 843.5 124.7 L 844.9 123 L 846.1 122.1 L 847 122.2 L 848 121.9 L 848.9 121.3 L 849.4 120.4 L 849.4 119.4 L 849.7 118.8 L 850.1 117.7 L 851.4 115.5 L 852.6 114.6 L 853.3 114.5 L 854 114.6 L 854.3 114.6 L 854.7 114.4 L 855.1 114.2 L 855.5 113.9 L 856.4 113 L 857.3 111.7 L 857.7 110.2 L 858.8 108.9 L 860.4 107.8 L 861.1 106.8 L 861 105.7 L 862.3 104 L 866.5 100.5" />
<path class="river" d="M 681 222.2 L 682 220.5 L 682 219.1 L 681.4 217.4 L 681.7 216.1 L 682.9 215.3 L 684.2 215 L 686.4 215.2 L 688.7 215.4 L 689.7 215.8 L 690.1 216.4 L 691.6 217.6 L 694 219.2 L 695.9 220.8 L 697.1 222.3 L 698.3 223.2 L 699.5 223.5 L 700.5 224.2 L 701.3 225.3 L 702.7 226.4 L 704.8 227.4 L 706.4 227.9 L 707.6 227.9 L 708.4 227.8 L 708.7 227.4 L 709.2 227.5 L 710.5 227.7 L 714 228.7 L 716.6 228.8 L 718.3 228 L 719.2 227.4 L 719.9 227.3 L 720.3 227.5 L 720.9 227.7 L 721.4 227.6 L 721.6 227.3 L 722 227.2 L 722.4 227.5 L 723.1 227.6 L 723.7 227.1 L 724.5 227 L 725.3 227.3 L 726.5 227.2 L 729 226.5 L 730 225.6 L 730.7 225.3 L 731.4 225.4 L 732.1 224.8 L 732.7 223.6 L 733.5 222.7 L 734.5 222.1 L 735.1 221.3 L 735.3 220.4 L 736.2 219.7 L 737.7 219.3 L 738.7 218.2 L 739.2 216.5 L 740 215.6 L 741 215.4 L 741.8 214.6 L 742.6 213.4 L 743.3 212.7 L 744 212.5 L 745 212.8 L 746.1 213.4 L 747.2 213.5 L 748.1 213 L 748.8 212.3 L 749.4 211.4 L 750.4 210.8 L 752.5 210.6 L 752.7 209.9 L 753.3 209.7 L 754.4 209.7 L 754.8 209.4 L 755.1 208.9 L 755.6 209.1 L 756.6 208.7 L 758.1 207.7 L 759.3 207.2 L 760.2 207.2 L 760.8 206.7 L 761.2 206.3 L 761.5 206.1 L 762.1 206 L 762.9 205.2 L 763.7 205.2 L 764.3 205.3 L 764.8 205 L 765 204.4 L 765 204 L 764.6 203.8 L 764.7 203.5 L 765.4 203.2 L 766.1 203.1 L 766.9 203.2 L 767.2 202.9 L 767.3 202.1 L 767.6 201.7 L 768.4 201.7 L 768.9 201.3 L 769.1 200.4 L 769.5 199.9 L 770.1 200 L 771.3 199.4 L 774.2 197.5" />
<path class="river" d="M 784.3 272.8 L 783.5 272 L 782.8 270.3 L 782 267.4 L 781.2 265.4 L 780.3 264.2 L 779.7 263.1 L 779.4 262.1 L 779.4 261.3 L 779.7 260.7 L 779.4 259.5 L 778.5 257.6 L 778.5 257.1 L 778.8 256.8 L 779.3 255.7 L 780 253.3 L 780 251.7 L 779.4 250.7 L 779.1 249.9 L 779.2 249.3 L 778.8 248.4 L 778 247.1 L 777.4 246.5 L 776.9 246.5 L 776.8 246 L 776.9 245.2 L 776.5 244.2 L 775.5 243 L 775.5 240.8 L 776.5 237.5 L 777 236.2 L 777.1 235.4 L 777.8 235 L 778 234.2 L 778.3 233.7 L 778.9 233.4 L 779.3 232.6 L 779.4 231.2 L 778.9 229.2 L 777.8 226.6 L 777.3 225 L 777.6 224.6 L 777.6 224.3 L 777.3 223.9 L 777.3 223.7 L 777.7 223.3 L 777.7 222.9 L 777.3 221.9 L 777.5 221.4 L 778 221.2 L 778.1 220.8 L 777.9 220 L 778.1 219.5 L 778.8 219 L 779.2 218.5" />
<path class="river" d="M 619.7 190.9 L 618.4 187.2 L 617.7 184.9 L 617.7 183.4 L 618.1 181.9 L 616.7 180 L 613.5 177.5 L 611.4 175.2 L 610.5 173 L 609.7 171.8 L 609.1 171.4 L 608.5 170.4 L 607.8 168.8 L 607.1 167.6 L 606.3 166.8 L 605.9 165.4 L 605.9 163.4 L 604.6 159.5 L 602 153.7 L 600.6 149.9 L 600.4 148.2 L 599.8 146.3 L 598.8 144.4 L 597.7 143 L 596.5 142.3 L 595.6 141.2 L 594.5 139.1 L 592.9 138.3 L 591.9 137.3 L 590.8 135.9 L 591 133.8 L 592.4 131 L 593.4 129.4 L 594.1 129 L 594.4 128.2 L 594.4 126.9 L 594.7 126 L 595.4 125.7 L 595.7 124.9 L 595.4 123.7 L 595.5 122.8 L 595.9 122.3 L 596.1 121.5 L 596.1 120.6 L 596.5 120 L 597.4 119.8 L 597.9 119.3 L 597.9 118.5 L 598.5 118.2 L 599.5 118.4 L 601.3 117.8 L 604 116.3 L 605.9 115.5 L 607.1 115.5 L 608 115.7 L 608.6 116.2 L 608.9 116.8 L 608.8 117.6 L 609.1 118 L 609.8 118.1 L 609.9 118.4 L 609.7 118.5 L 609.8 118.9 L 610.2 119.6 L 610.6 119.6 L 610.9 119 L 612.1 119.3 L 614.4 120.3 L 616.8 120.9 L 619.2 120.9 L 620.4 121.1 L 620.6 121.5 L 621.2 121.9 L 622.2 122.3 L 623.4 122.4 L 624.9 122.3 L 625.9 122.5 L 626.3 123.3 L 630.4 123.8 L 632 123.9 L 632.6 123.6 L 633 123.7 L 633.3 124.1 L 634.3 123.4 L 635.9 121.4 L 638.4 120.3 L 642 119.9 L 644.1 119 L 644.8 117.8 L 645.8 116.8 L 647.2 116.1 L 648.2 116.2 L 649 117.1 L 650.1 117.9 L 651.5 118.5 L 652.4 118.3 L 652.8 117.2 L 653.3 116.4 L 654.1 116.1 L 655 116.1 L 656.3 116.3 L 657.3 116.8 L 658.1 117.7 L 659.6 117.5 L 662.8 115.7" />
<path class="river" d="M 708.9 498.2 L 710.2 499.6 L 711.2 499.8 L 712.4 499.5 L 713.1 498.8 L 713.5 497.7 L 713.6 496.9 L 713.4 496.4 L 713.8 495.4 L 715 493.2 L 716.5 492 L 717.4 490.7 L 718.3 489.1 L 718.7 487.5 L 718.7 485.4 L 718.8 485.1" />
<path class="river" d="M 738.2 591 L 741.7 592 L 743.9 592.3 L 745.9 592.3 L 747.8 592.5 L 749.6 593 L 752.3 593.1 L 755.8 592.7 L 758.6 592.7 L 760.8 592.9 L 762.8 593.4 L 764.7 594.2 L 766.8 594.7 L 769.1 594.9 L 771 595.9 L 772.5 597.6 L 773.7 599.5 L 774.6 601.5 L 776.4 602.7 L 779.2 603.2 L 781 603.8 L 782.1 604.7 L 783.4 605.4 L 784.9 605.9 L 786.5 606.2 L 788.3 606.1 L 791.1 607.4 L 794.7 610 L 797 611.3 L 798 611.5 L 799.3 612.4 L 801.8 614.8 L 804.8 615.3 L 806.8 616.5 L 809.1 618.1 L 810 619.5 M 706.2 26.1 L 711.3 25.4 L 715.2 24.8 L 717.3 24.1 L 719.1 23.3 L 721.1 23.2 L 723.5 23.8 L 725.5 24 L 727.2 24 L 728.7 23.3 L 730.1 22 L 731.5 21.7 L 733.1 22.5 L 734.5 21.8 L 736 19.6 L 736.8 18.6 L 737.1 18.8 L 737.4 18.6 L 737.8 17.8 L 739 16.9 L 740.3 16 L 741.6 15.5 L 742.9 15.9 L 743.6 16 L 743.9 16.4 L 744.3 17.4 L 744.8 17.6 L 745.4 18.1 L 746.7 19.2 L 747.8 20.5 L 748.6 21 L 749.2 21.6 L 749.4 22.4 L 749.2 23.2 L 749.8 25 L 750.3 25.6 L 750.6 26.2 L 750.3 26.9 L 750.9 27.8 L 752.3 31.3 L 752.4 32.4 L 752.7 32.9 L 753.1 34.4 L 753.7 35.8 L 753.6 36.7 L 753.8 37.6 L 754 40.4 L 753.8 41.6 L 753.2 42 L 752 42.3 L 750.2 42.2 L 748.9 43.9 L 747.7 48.9 L 748.3 52.3 L 749.4 54.4 L 751.1 56.2 L 752.3 56.9 L 753.2 56.7 L 755.3 57.5 L 758.5 59.1 L 760.8 59.7 L 762 59.2 L 763.5 58.9 L 765.4 58.9 L 766.7 58.6 L 767.3 58.2 L 768.1 58.1 L 769 58.5 L 770.3 58.6 L 771.9 58.5 L 773.5 58.8 L 776.1 60 L 779.6 60.8 L 782.4 60.7 L 787.5 59.5 L 791.3 58.8 L 793.8 58.7 L 796.2 58.9 L 798.5 59.7 L 800.6 61.2 L 802.9 62.5 L 806.8 64.1 L 808.9 66.5 L 810.9 68 L 815 70.2 L 821.9 73.4 L 822.6 73.6 L 823.7 73.6 L 824.8 73.8 L 826.2 74.4 L 827.3 75.5 L 828.2 77.1 L 828.7 78.4 L 828.7 79.4 L 829.8 81 L 832 83 L 832.8 84.1 L 833.4 85 L 834.2 87 L 836 89.6 L 840.6 94.7 L 842.3 96.2 L 843.5 96.7 L 844.9 96.7 L 846.3 97.1 L 847.8 97.8 L 848.8 98 L 849.9 97.5" />
<path class="river" d="M 699.8 557.3 L 701.2 562.5 L 701.9 564.8 L 701.9 565.8 L 701.5 566.3 L 701.2 566.9 L 701.2 567.7 L 701.5 568.3 L 702.2 568.7 L 703.8 569 L 706.3 569.1 L 708.1 569.6 L 709 570.3 L 709.8 571.2 L 710.3 572.2 L 710.9 572.8 L 711.8 573 L 712.4 574.3 L 712.8 576.8 L 713.5 578.6 L 714.4 579.7 L 715 580.9 L 715.1 582.2 L 716.3 583.5 L 718.4 585 L 720.1 585.7 L 721.5 585.8 L 723.2 585 L 725.1 583.5 L 726.7 582.7 L 727.8 582.6 L 730.1 583.7 L 733.5 586 L 736 588.1 L 738.2 591" />
<path class="river" d="M 1054.3 371.8 L 1048 375.3 L 1046.6 375.9 L 1045.2 376 L 1043.3 376 L 1042.1 376.1 L 1041.7 376.5 L 1041.3 376.5 L 1040.9 376.2 L 1041.1 375.3 L 1042 373.8 L 1043.1 372.8 L 1044.4 372.4 L 1045.8 371.6 L 1047.2 370.4 L 1048.8 369.6 L 1050.7 369.1 L 1052.7 367.9 L 1054.7 366 L 1056.8 364.8 L 1059 364.5 L 1059.8 364.5 L 1060.6 364.7 L 1061.5 364.4 L 1063.7 363.3 L 1065.2 363.2 L 1065.9 364 L 1066.6 364.3 L 1067.4 363.9 L 1068.2 363.9 L 1068.9 364.2 L 1070.8 363.3 L 1073.8 361.4 L 1076.6 360 L 1080.5 358.6 M 1080.6 358.6 L 1092.4 353.4 L 1096.4 351.8 L 1098.3 351.6 L 1099.3 352.1 L 1100.6 352.2 L 1102 352.1 L 1103.6 352.4 L 1105.3 353.4 L 1107.1 353.4 L 1109.7 352" />
<path class="river" d="M 1036.9 318.4 L 1033.5 314 L 1034.1 313.2 L 1034.1 312.8 L 1033.8 312.5 L 1033.8 312 L 1034 311.2 L 1033.8 310 L 1033.1 308.4 L 1031.6 307.1 L 1029.3 306.2 L 1027.5 305.8 L 1026.5 306.1 L 1025.3 305.4 L 1024.2 303.8 L 1023 303.4 L 1021.3 304.6 M 1013.4 308.2 L 1010.5 306.9 M 998.4 307.6 L 997.4 307.8 L 996.5 308.7 L 995.3 310.3 L 994.2 310.5 L 993.2 309.4 L 992.3 309.3 L 991.5 310.1 L 990.6 310.5 L 989 310.7" />
<path class="river" d="M 859.7 519.8 L 861.1 520 L 863.2 520.9 L 865.9 522.4 L 867.9 523 L 870.1 522.4 M 843.1 511.1 L 844.6 512.3 L 850.5 516.1 L 854.7 518.1 L 857.3 518.5 L 858.3 518.9 L 858.9 519.4 L 859.7 519.8 M 843.1 511.1 L 847 512.1 L 849.2 512.4 L 850.9 512.2 L 853.1 513.1 L 855.8 515.1 L 857.7 517 L 859.7 519.8 M 843.1 511.1 L 843.1 511.1 M 867.7 430.5 L 864.8 432.2 L 863.9 433.2 L 864.3 434.5 L 864.7 436 L 864.6 437.5 L 864.1 439.5 L 863.2 441 L 861.8 441.9 L 861 443.9 L 861 447 L 860.6 450 L 859.6 453 L 859.6 453.4 L 859.4 454.1 L 859.1 454.5 L 858.7 454.8 L 858.1 455.1 L 856.2 456 L 855 457.1 L 854.5 458.3 L 853.9 460.5 L 853.3 463.7 L 853.2 466 L 853.8 467.4 L 853.8 468.9 L 853.3 470.6 L 853.2 472.1 L 853.6 473.2 L 853.6 474.7 L 853.5 475.7 L 853.5 476.6 L 853.2 477.3 L 853 477.9 L 852.1 478.9 L 847.6 484.9 L 844.3 488.8 L 842.3 490.4 L 840.5 490.8 L 839.3 491.8 L 838.8 493.2 L 838.8 494.4 L 839.2 495.4 L 839.1 496.8 L 838.5 499.6 L 838.1 502.1 L 838.2 503.8 L 838.9 505.7 L 839.8 507.6 L 841 509.5 L 843.1 511.1 L 843.1 511.1 M 922.7 404.6 L 922.4 412.4 L 921.7 416.6 L 920.7 419.7 L 919.7 421.3 L 918.8 421.5 L 918.2 422 L 917.8 422.8 L 917.1 423.5 L 916.1 424 L 915.5 424.6 L 915.4 425.2 L 914.4 425.6 L 912.5 425.8 L 911.4 426.3 L 911.1 427.1 L 910.5 427.7 L 909.5 428.2 L 909.1 429 L 909.1 430.1 L 908.6 431.1 L 907.5 431.8 L 906.4 431.9 L 905.5 431.1 L 904.2 430.6 L 902.6 430.4 L 901.3 430.6 L 900.2 431.2 L 899.3 432.2 L 898.4 433.5 L 897.5 433.8 L 896.5 432.8 L 895.2 432.6 L 893.7 432.9 L 892.5 432.8 L 891.5 432.2 L 890.1 432.1 L 888.2 432.6 L 884.4 432.1 L 878.6 430.5 L 873.7 429.9 L 867.7 430.5 M 934 375.7 L 932.3 376.7 L 931.1 378.9 L 930.4 382.4 L 929.4 384.5 L 927.4 385.7 L 930.2 384.9 L 931.2 382.6 L 932.2 379 L 933 376.9 L 934 375.7 M 945.4 363.6 L 943.2 366.1 L 941.1 367.7 L 938.2 369 L 936.3 371.1 L 935.3 373.8 L 934 375.7 M 966.9 335.9 L 965 337.5 L 964.2 339 L 963.8 340.9 L 962.8 342.8 L 961.2 344.6 L 960.4 346.1 L 960.6 347.1 L 960.4 348.1 L 959.5 349.4 M 979.4 316.3 L 978.8 317.2 L 978.2 317.6 L 977.3 317.6 L 976.3 318.2 L 975.2 319.3 L 974.5 320.3 L 974.2 321.2 L 974.1 321.8 L 974.2 322 L 974 322.3 L 973.4 322.4 L 972.9 323.1 L 972.4 325.2 M 916.3 251.6 L 911.4 252.1 L 906.3 254.7 L 903.5 255.9 L 901.2 256.6 L 899.2 257.9 L 897.5 260 L 896.7 261.5 L 896.7 262.4 L 897.4 263.3 L 898.9 264.2 L 899.8 265.5 L 900 267 L 900.7 268.3 L 901.9 269.3 L 902.3 270.3 L 901.9 271.2 L 901.7 272 L 901.9 272.6 L 902.6 273.3 L 903.9 274.1 L 904.7 274.8 L 905.1 275.7 L 904.8 276.5 L 904 277.4 L 903.9 278.2 L 904.3 279 L 904 279.7 L 903.1 280.4 L 901.7 281 L 899.8 281.4 L 898.3 282.5 L 897.2 284.3 L 896.3 285.5 L 895.5 286 L 895 286.7 L 894.8 287.6 L 894.9 288.4 L 895.4 289.4 L 892.7 293.8 L 891.3 295.6 L 890 296.7 L 888.7 298.6 L 887 299.7 L 884.7 300.5 L 883.8 302.9 L 884.5 306.7 L 884.2 309.1 L 883 310.1 L 882.2 311.4 L 882 312.8 L 881.4 313.8 L 880.6 314.3 L 880.3 314.9 L 880.6 315.7 L 881.7 316.3 L 883.6 316.6 L 884.7 317 L 885.1 317.4 L 885.6 319.2 L 885.6 320.1 L 885.5 320.9 L 885 321.7 L 884.2 322.7 L 883.9 323.3 L 884.2 323.5 L 884.1 324.1 L 883.5 325 L 882.6 325.6 L 881.4 325.9 L 880.8 326.4 L 880.8 326.9 L 880 327.9 L 878.3 329.4 L 876.5 330.6 L 874.7 331.6 L 874 332.2 L 874.2 332.6 L 874.2 332.9 L 874 333.2 L 874.4 334 L 875.6 335.1 L 876.2 336.6 L 876.2 338.4 L 876.5 339.2 L 876.9 339.1 L 877.3 339.2 L 877.7 339.6 L 877.6 340 L 877.1 340.5 L 877.1 340.8 L 877.7 341.1 L 877.7 341.5 L 877.4 342 L 877.5 342.4 L 878.2 342.7 L 878.5 343.7 L 878.3 345.2 L 878 346.3 L 877.6 347 L 877.5 347.5 L 877.8 347.9 L 877.7 348.7 L 877 349.9 L 876.9 351.2 L 877.3 352.4 L 877.1 354.4 L 876.3 358.6 L 876.4 360.3 L 877 361.3 L 877.9 362.2 L 878.6 363.6 L 878.9 365.4 L 878.5 366.5 L 877.4 367 L 877.3 367.7 L 878.4 368.6 L 878.9 369.7 L 878.9 370.8 L 880 372.2 L 882.1 374 L 883.2 375.9 L 883.5 377.9 L 884.2 379.5 L 885.4 380.6 L 885.7 381.8 L 885.3 383.1 L 885.7 384.5 L 886.9 385.8 L 887.4 386.7 L 887.2 387.1 L 887.4 387.9 L 888.2 389.2 L 888.7 390.4 L 888.8 391.4 L 888.6 392.4 L 888 393.6 L 888.1 394.8 L 887.7 395.7 L 886.8 396.6 L 886.5 397.4 L 886.9 398.1 L 886.7 398.4 L 886.1 398.4 L 885.4 398.8 L 884.4 399.7 L 883.6 400.1 L 882.9 400.1 L 882.1 400.7 L 881 402 L 880.9 403.1 L 881.7 404.2 L 882 405.1 L 881.9 406 L 881.2 406.8 L 879.8 407.8 L 879.4 408.2 L 879.4 408.6 L 879 409.4 L 877.9 411.1 L 877.6 411.9 L 877.5 412.5 L 876.8 413.1 L 874.9 414.3 L 874.5 414.8 L 874.4 415.5 L 874.1 415.8 L 873.9 416 L 873.5 416.6 L 873.2 417.6 L 873.2 418.9 L 873.4 420.5 L 873.4 421 L 873 421.3 L 872.7 421.7 L 872.6 422.4 L 872.3 423 L 871.6 423.3 L 871.4 423.7 L 871.6 424.2 L 871.1 424.6 L 870 425.1 L 869.3 425.7 L 869.1 426.5 L 868.5 427.3 L 867.5 428 L 867.2 428.8 L 867.7 430.5" />
<path class="river" d="M 759.8 321.1 L 760.6 320.2 L 760.8 319.7 L 760.6 319.2 L 760.9 318.7 L 761.8 318.3 L 763 318.8 L 764.7 320.4 L 766.2 321 L 768.3 320.7 L 768.9 319.4 L 770 318.6 L 771.6 317.7 L 773.3 318 L 774.8 319.5 L 776.2 320.5 L 777.3 321 L 778.6 321.2 L 780 321.1 L 781.9 323.5 L 784.1 328.3 L 785.3 331.9 L 785.5 334.4 L 786.6 335.8 L 788.3 336.3 L 789.6 337.8 L 790.5 340.6 L 791.6 342.2 L 792.8 342.6 L 793.8 343.6 L 794.5 345.2 L 795.6 346 L 797.1 346 L 799.6 346.9 L 803.2 348.6 L 805.5 350 L 806.6 351 L 807.5 352.3 L 808.5 354.6 L 809.7 358 L 810.7 359.5 L 811.8 360.3 L 812.3 360.9 L 812.3 361.3 L 813.5 362.1 L 815.8 363.4 L 818 365.7 L 820 369.3 L 821.9 371.9 L 823.7 373.6 L 825.4 374.8 L 826.9 375.5 L 827.7 376 L 827.8 376.5 L 829.2 377.4 L 831.8 378.7 L 833.5 380.1 L 834.3 381.5 L 836.9 382.9 L 841.5 384.3 L 844.9 385 L 847 385 L 850 386.1 L 853.9 388.5 L 856.3 390.2 L 857.1 391.1 L 859.7 392.6 L 866 395.7 L 868.9 396.4 L 870.2 397.1 L 871 398 L 871.8 398.3 L 872.5 398 L 874.1 398.3 L 876.6 399.3 L 878.5 400.5 L 880.9 403.1" />
<path class="river" d="M 677.4 203.8 L 678.5 204.6 L 680.3 204.5 L 684.5 203.5 L 686 202 L 687.6 201.2 L 689.6 200.7 L 691.8 199.6 L 694.1 198 L 695.2 197 L 695 196.6 L 695.3 196.1 L 696 195.7 L 696.6 194.6 L 696.9 192.7 L 698 190.9 L 700 189.2 L 701.1 187.9 L 701.2 187.1 L 701.8 186.6 L 702.6 186.3 L 703.3 185.4 L 703.7 184 L 704.6 182.9 L 706 182 L 706.7 181.3 L 706.8 180.6 L 707.7 180.1 L 709.4 179.5 L 710.9 179.4 L 712.1 179.8 L 712.9 179.7 L 713.4 179.3 L 714.1 179 L 715.5 179 L 716.1 179.2 L 716.4 179 L 716.7 178.5 L 717.1 178.4 L 717.8 178.4 L 718.8 177.9 L 720.1 176.6 L 722 175.6 L 724.4 174.8 L 725.7 174.7 L 726.1 174.9 L 726.4 175.2 L 727 175.4 L 727.7 175.2 L 728.6 175.5 L 729.6 176.7 L 730.2 177.7 L 730.3 178.4 L 730.6 178.7 L 731.2 178.6 L 731.6 178.8 L 731.9 179.2 L 732.8 179.3 L 734.3 179 L 735.4 179 L 735.8 179.3 L 736.9 179 L 739.4 177.6 L 745 175.3 L 746.9 174 L 747.1 172.9 L 746.9 172.5 L 746.6 172.3 L 746.6 172 L 746.7 171.3 L 746.6 170.9 L 746.4 170.7 L 746.5 170.4 L 747.2 169.8 L 747.3 169.3 L 747.1 168.9 L 747.2 168.7 L 747.4 168.1 L 748.5 166.7 L 748.9 165.6 L 748.7 164.8 L 749.4 163.8 L 750.9 162.4 L 751.5 161.8 L 751.5 161.5 L 751.8 161.3 L 752.1 161.3 L 752.4 161 L 752.6 160.5 L 753.2 160.1 L 754.3 159.8 L 755 159.9 L 755.4 160.3 L 756 160.1 L 756.8 159.4 L 757.6 159.2 L 758.4 159.5 L 758.9 159.3 L 759 158.8 L 759.6 158.3 L 760.7 157.8 L 761.3 158 L 761.4 158.6 L 761.8 158.8 L 762.6 158.6 L 763.2 158.9 L 763.6 159.6 L 764.2 159.9 L 764.9 159.9 L 765.3 160.2 L 765.6 160.4 L 766.5 160.1 L 767.1 160.2 L 767.5 160.5 L 767.9 160.5 L 768.2 160.2 L 768.8 160.2 L 769.5 160.4 L 770.4 160.3 L 770.7 159.9 L 771.1 159.7 L 771.7 159.7 L 772.2 159.5 L 772.5 159.1 L 772.9 159 L 773.5 159 L 773.8 158.8 L 773.7 158.6 L 774 158.4 L 774.4 158.4 L 774.5 158.2 L 774.4 157.9 L 774.6 157.6 L 775.5 157 L 776.5 156.5 L 777 156.4 L 777.4 156.7 L 777.6 156.3 L 777.6 155.3 L 778 155.1 L 778.3 155.1 L 779.2 155.3 L 779.8 155.1 L 780 154.5 L 780.2 154.4 L 780.6 154.3 L 781.4 154.6 L 782.5 154.3 L 783.9 153.3 L 784.5 152.6 L 784.4 152.3 L 784.5 152.1 L 784.9 152 L 785 151.9 L 785 151.7 L 785.4 151.5 L 785.4 151.1 L 784.7 149.9 L 784.7 149.1 L 785.4 148.7 L 785.6 148.4 L 785.3 148.1 L 785.2 147.7 L 785.4 147 L 785.8 146.7 L 786.6 146.7 L 787.1 146.4 L 787.2 145.8 L 787.7 145.3 L 788.7 144.9 L 789.3 143.6 L 789.8 140.5 L 789.2 137.4 L 788.5 136.2 L 787.5 135.7 L 787.2 135.2 L 787.7 134.8 L 788 134.1 L 788 133.3 L 788.3 132.9 L 788.9 132.8 L 789.1 132.4 L 789 131.9 L 789.4 131.5 L 790.4 131.5 L 790.9 131.6 L 790.9 132 L 791.2 132.2 L 791.7 132.3 L 792.1 132.1 L 792.4 131.6 L 793.2 131.4 L 794.4 131.4 L 795.4 131.9 L 796 132.8 L 796.9 133.2 L 798.1 133 L 798.5 133.2 L 798.4 133.7 L 798.6 134.2 L 799.1 134.5 L 799.7 134.3 L 800.6 133.7 L 801.3 133.5 L 801.9 133.8 L 803 133.4 L 804.6 132.3 L 805 132.4 L 805.2 132.7 L 805.5 133.2 L 806.2 133.3 L 806.5 133 L 806.3 131.9 L 806.5 131.2 L 807.1 131 L 807.3 130.6 L 807.5 129.8 L 807.8 129.6 L 808.1 129.3 L 808.5 129.3 L 809.2 129.2 L 809.5 128.7 L 809.5 127.1 L 809.4 126.2 L 809.1 125.9 L 809.3 125.4 L 810.1 124.8 L 810.4 124.1 L 810.2 123.6 L 810.6 122.9 L 811.3 122.5 L 811.9 122.6 L 812.5 122.4 L 812.7 122.1 L 812.8 121.6 L 813.4 121.3 L 813.9 121.4 L 814.4 121.1 L 814.6 120.7 L 814.4 120.2 L 814.7 119.8 L 815.5 119.4 L 816.6 119.2 L 818 119.4 L 819.4 118.7 L 819.9 118.2 L 820.5 117.7 L 820.7 116.9 L 820.4 116.2 L 820.6 115.6 L 821.1 115.4 L 822 115.2 L 822.7 114.8 L 823 114 L 823.8 113.4 L 825.3 112.9 L 826.9 111.5 L 828.6 109.2 L 829.1 107.2 L 828.3 105.1" />
<path class="river" d="M 767.7 387.7 L 768.4 390.6 L 767.9 392.1 L 768.2 393.7 L 769.2 395.7 L 770.7 397.6 L 772.8 399.2 L 773.8 400.5 L 773.8 401.3 L 774.4 401.8 L 775.7 402.2 L 776.8 401.7 L 777.9 400.6 L 779 400.2 L 780 400.7 L 780.7 401.4 L 781.1 402.3 L 782 403 L 783.5 403.4 L 785.1 403.1 L 787 402.1 L 788.3 401.1 L 789.2 400.2 L 789.9 399.8 L 790.7 400 L 791.8 401.7 L 793.3 405 L 794.1 407 L 794.1 407.9 L 794.8 409.5 L 796.4 411.9 L 797 413.6 L 796.6 414.7 L 796.8 416.6 L 797.7 419.2 L 797.9 421.4 L 797.5 423.4 L 797.4 425.3 L 797.7 427 L 798.3 429 L 799.3 431 L 799.7 432.7 L 799.5 434.6 L 799.3 435.3 L 799.9 436.8 L 801.2 439.3 L 802.8 441.3 L 804.6 442.8 L 805.6 444 L 805.7 444.9 L 806.4 445.6 L 807.5 446.1 L 808.8 447.1 L 810.2 448.5 L 811.4 450.6 L 812.3 453.5 L 814 455.8 L 816.5 457.6 L 818.7 458.6 L 820.6 458.9 L 822.4 458.7 L 823.9 457.8 L 825 457.8 L 825.8 458.6 L 827.7 459.5 L 830.8 460.6 L 833.8 461.9 L 836.7 463.5 L 838.3 464.7 L 838.6 465.4 L 838.8 466.9 L 838.6 469.1 L 838.8 470.5 L 839.3 471 L 839.4 472.2 L 839.3 474 L 839.5 475.4 L 840 476.3 L 840.1 477 L 839.9 477.5 L 839.1 477.9 L 837.9 478.3 L 837.2 478.9 L 837 480.2 L 837.4 482.2 L 837.1 483.6 L 836.2 485 L 836.2 485.9 L 837.1 486.1 L 837.6 487.3 L 837.9 489.6 L 837.8 491.3 L 837.2 492.4 L 837.3 493.3 L 838.8 494.4" />
<path class="river" d="M 718.8 485.1 L 719.1 485 L 722.1 484.9 L 723.5 485.3 L 724.2 486 L 724.5 486.9 L 724.6 487.8 L 725.4 488.3 L 727 488.5 L 728.8 488.3 L 730.9 487.8 L 732.2 487.7 L 732.6 488.2 L 733.3 489.1 L 733.4 490.2 L 733.3 491.9 L 733.6 493.4 L 734.3 494.7 L 734.5 495.6 L 734.6 496 L 735.3 496.1 L 737.1 496 L 738.7 496.5 L 740 497.7 L 741.9 498.4 L 744.3 498.7 L 745.9 499.2 L 747.1 500.3 M 507.5 -98.6 L 511.4 -97.5 L 513.3 -96.7 L 514.6 -95.6 L 515.3 -94.8 L 515.4 -94.2 L 515.8 -93.9 L 516.8 -93.9 L 519.2 -93.3 L 520.7 -93.4 L 522.1 -94 L 522.8 -94.7 L 523.1 -95.8 M 489.1 -113.6 L 492.4 -112.1" />
<path class="river" d="M 683.5 745.8 L 692.1 745.6 L 695.5 745.7 L 696.7 746 L 697.9 745.9 L 699.1 745.5 L 701.6 745.5 L 705.4 746 L 707.5 746 L 708 745.6 L 708.7 745.3 L 710 745.3 L 713.2 745.3 L 714.7 744.9 L 715.5 744.1 L 717.5 743.9 L 720.5 744.3 L 722.7 744.1 L 724.4 743 L 724.9 742.8" />
<path class="river" d="M 1051.3 305.1 L 1051.6 304 L 1051.9 303.7 L 1052.3 303.7 L 1052.8 302.7 L 1053.2 300.7 L 1053.8 299.5 L 1054.6 299.1 L 1054.8 298.4 L 1054.6 297.3 L 1054.9 295.6 L 1055.7 293.3 L 1056.5 291.5 L 1057.4 290.3 L 1056.7 287.7 L 1054.6 283.6 L 1053.7 281.4 L 1054.2 280.8 L 1054.4 279.1 L 1054.3 274.6 L 1056 274.2 L 1056.9 273.6 L 1057.4 272.7 L 1058.5 271.9 L 1061 270.7 L 1065 267.3 L 1066.6 265.2 L 1067.1 263.5 L 1068 261.7 L 1069.1 259.9 L 1070 257.5 L 1070.6 254.5 L 1071.5 252.3 L 1072.5 250.7 L 1073.5 248 L 1074.4 244.2 L 1075.2 241.9 L 1075.9 241.1 L 1076.2 239 L 1076.2 235.8 L 1076.4 233.5 L 1076.8 232.4 L 1077.8 230.9 L 1079.2 229.3 L 1079.6 227.3 L 1079 225.2 L 1078.8 223.7 L 1079.3 222.7 L 1079 221.4 L 1078 219.8 L 1077.7 218.7 L 1078 218.1 L 1077.9 217 L 1077.4 215.4 L 1077.5 214.3 L 1078.2 213.8 L 1079 212.1 L 1080.4 207.9 M 1112.5 184.4 L 1114.5 184.9 L 1116.2 184.6 L 1118.1 183.8 L 1119.4 182.4 L 1120 180.4 L 1120.9 179.8 L 1121.7 179.7 L 1122.7 179.6 L 1123.7 179.2 L 1124.5 178.7 L 1125 178.1 L 1125.3 177.3 L 1125.4 176.3 L 1126.1 175.7 L 1127.4 175.5 L 1128.1 174.9 L 1128.1 174 L 1129.3 173.1 L 1131.5 172.3 L 1133 172.4 L 1134 173.4 L 1136.3 174.5 L 1139.8 175.6 L 1141.6 176.7 L 1142.1 176.9 L 1142.8 176.9 L 1143.3 176.5 L 1143.8 176 L 1144.4 176.1 L 1144.7 176.7 L 1144.7 177.8 L 1145.4 178.4 L 1146.7 178.5 L 1147.3 179 L 1147.1 179.8 L 1147.4 181.2 L 1148.3 183.1 L 1152.2 185.8 L 1162.6 190.6 L 1164.8 191.5 L 1165.7 192.3 L 1165.9 193.3 L 1166.7 194.2 L 1168.2 195.2 L 1169.2 195.7 L 1169.9 195.6 L 1170.5 196.2 L 1170.9 197.2 L 1171.4 197.8 L 1172.2 197.8 L 1172.7 198.1 L 1173.2 198.9" />
<path class="river" d="M 866.9 205.5 L 867.9 201.3 L 868.9 199.3 L 870.4 198.2 L 871.7 195.9 L 872.6 192.5 L 872.9 189.4 L 872.5 186.7 L 871.2 184.9 L 869 183.9 L 867.6 182.5 L 867.2 180.9 L 867.2 179.3 L 867.8 177.9 L 868.9 176.4 L 870.7 175 L 871.1 174.1 L 870.1 173.8 L 870.1 171.8 L 871.1 168.1 L 871.5 165.3 L 871.1 163.3 L 871.5 161.6 L 872.4 160.1 L 872.9 158.7 L 872.9 157.5 L 873.2 156.5 L 874.1 155.5 L 874 154.5 L 872.9 152.8 L 870.7 150.1 L 869.7 148 L 870 146.4 L 870.9 144.9 L 872.3 143.6 L 874 142.8 L 876 142.3 L 877.8 141.4 L 879.4 140.3 L 880.4 138.8 L 880.8 137 L 883 134.6 L 887 131.5 L 889.2 129.3 L 889.5 127.8 L 890.2 126.7 L 891.2 125.9 L 892.2 124.1 L 893.2 121.4 L 894.1 119.8 L 894.9 119.3 L 895.8 119.2 L 897 119.5 L 898.1 119.1 L 899 118.1 L 899.6 116.9 L 899.8 115.5 L 901.4 114.1 L 903.4 113.1 L 904.3 112.7 L 906.5 111.3 L 908 109.9 L 909.5 108.1 L 911.9 104.4 L 914.1 99.6 L 915.3 95.5 L 916.2 90.5 L 917.4 87.8 L 918.8 87.4 L 920.1 87.3 L 922.3 87.8" />
<path class="river" d="M 997.4 273.7 L 996.4 271.5 L 995.1 270.9 L 993.9 269.7 L 992.3 267.5 L 991.7 265.7 L 992.1 264.3 L 992.8 263.2 L 993.8 262.6 L 995 261.1 L 996.4 258.8 L 997.8 257.5 L 999 257 L 999.8 255.8 L 1000 253.9 L 1000 252.5 L 999.7 251.7 L 999.8 251.1 L 1000.3 250.5 L 1002.7 248.9 L 1003.8 248.7 L 1004.7 249.2 L 1005.4 249.3 L 1006.1 249 L 1008.4 247.1 L 1009 246.1 L 1008.9 245.2 L 1009.2 244.8 L 1009.9 245 L 1010.7 244.7 L 1011.5 244 L 1012.1 242.9 L 1012.3 241.6 L 1012 240.5 L 1011.1 239.9 L 1010.9 238 L 1011.4 234.8 L 1011.2 232 L 1009.7 228.2 L 1010.4 226.7 L 1010.4 226.1 L 1010.1 225.8 L 1010 225.3 L 1010.1 224.8 L 1009.4 223.9 L 1007.9 222.8 L 1006.4 220.1 L 1004.8 214.7 L 1004.7 213.3 L 1005.4 212.3 L 1006.6 211.2 L 1006.9 209.4 L 1006.2 207.4 L 1006.4 205.6 L 1007.6 204 L 1007.9 202.2 L 1007.5 200.2 L 1007.4 198 L 1007.6 195.7 L 1008.1 194.1 L 1008.7 193 L 1008.9 192.1 L 1008.6 191.4 L 1008.6 190.9 L 1009 190.4 L 1008.9 189.4 L 1008.3 187.8 L 1008.2 186 L 1008.4 183.9 L 1009.4 181 L 1011.2 177.2 L 1011.9 174.5 L 1011.7 173 L 1011.8 171.8 L 1012.2 171 L 1012.1 169.7 L 1011.5 167.8 L 1011.4 166.6 L 1011.8 166.1 L 1012.5 165.8 L 1013.5 165.6 L 1014.2 164.6 L 1014.5 162.9 L 1015.6 161.6 L 1017.5 160.6 L 1018.5 159.5 L 1018.7 158.2 L 1019.3 157.2 L 1020.2 156.4 L 1020.6 155.7 L 1020.4 155 L 1019.9 154.8 L 1019 155 L 1018.2 154.7 L 1017.6 153.9 L 1017.6 153.4 L 1018.3 153.1 L 1019.1 152.4 L 1020 151.2 L 1021 148 L 1021.8 142.9 L 1022 138.1 L 1021.3 133.6 L 1020.7 131 L 1020.3 130.3 L 1019 129.6 L 1016.9 128.9 L 1015.7 128.1 L 1015.3 127.2 L 1014.3 126.8 L 1012.8 126.9 L 1011.3 126.6 L 1009.8 125.9 L 1008.5 125.6 L 1007.4 125.8 L 1006.5 126.3 L 1005.8 127.3 L 1005 127.8 L 1003.7 128.2 M 990.4 107.3 L 991 100.7 L 990.8 97 L 990.1 93.9 L 990 92.1 L 990.7 91.3 L 991.2 91" />
<path class="river" d="M 687.9 265.6 L 688 263.9 L 688.3 263.3 L 688.8 263.2 L 688.8 262.5 L 688.6 261.3 L 688.9 260.1 L 690.2 258.1 L 690.8 256.7 L 690.8 255 L 690.3 252.5 L 689.9 250.8 L 689.5 250 L 688.8 249.4 L 687.8 249 L 686.9 247.7 L 686.1 245.7 L 684.5 244.6 L 682.2 244.3 L 680.1 243.6 L 678.3 242.3 L 675.7 241 L 672.5 239.6 L 670.2 239.1 L 668.9 239.5 L 667.8 239.6 L 666.5 239.2 L 663 235.8 L 661.8 234.3 L 661.9 233.4 L 661.5 232 L 660.7 230.1 L 659.7 228.5 L 658.4 227.2 L 656.9 225.1 L 655.3 222 L 655 219.8 L 655.9 218.4 L 655.3 215.8 L 653.2 211.9 L 652.2 209.4 L 652.2 208.5 L 653 208 L 654.4 208 L 656 208.5 L 657.8 209.4 L 659 209.8 L 659.6 209.6 L 659.6 208.6 L 659 206.6 L 658.9 204.7 L 659.2 203 L 658.5 201.5 L 656.8 200.4 L 655.7 199.1 L 655.4 197.7 L 655.3 196.4 L 655.6 195.3 L 655.5 194.9 L 655.2 194.7 L 655.1 194.5 L 655.2 193.9 L 655.5 193.5 L 655.7 193.1 L 655.6 192.9 L 655.4 192.8 L 655 192.3 L 654.8 191.6 L 655 191.2 L 655.6 191.2 L 656 190.9 L 656.3 190.2 L 655.7 189.8 L 654.4 189.8 L 653.7 188.9 L 653.6 187.3 L 653.3 186.1 L 652.9 185.3 L 652.4 185.1 L 652.1 185.1 L 651.9 184.9 L 651.8 184.6 L 651.4 184.1 L 650.5 183.4 L 650.2 182.4 L 650.4 181 L 650.1 180.3 L 649.6 179.9 L 649.4 179.6 L 649.5 179.2 L 649.5 178.9 L 649.2 178.8 L 648.4 176.3 L 648.8 174.7 L 650.2 173.1 L 651.2 172.4 L 651.8 172.6 L 652.1 172.2 L 652.1 171.2 L 651.7 170.9 L 650.9 171.3 L 650.3 171.3 L 649.7 170.9 L 649.3 170.7 L 648.9 170.7 L 648.8 170.4 L 648.8 169 L 648.4 168.2 L 647.8 167.9 L 647.5 167.4 L 647.7 166.9 L 647.6 166.7 L 647.1 166.8 L 647 166.4 L 647.2 165.6 L 647 165 L 646.6 164.5 L 646.1 164.3 L 645.8 164.3 L 645.5 164.1 L 645.8 163.8 L 645.6 163.5 L 644.5 163 L 643.9 163 L 643.8 163.5 L 643.4 163.5 L 642.7 162.9 L 642.5 162.4 L 642.7 161.9 L 642.5 161.2 L 641.8 160.1 L 641.8 159.8 L 642.1 159.7 L 642.3 159.4 L 641.8 158.5 L 641.8 157.7 L 642.2 156.9 L 641.7 155.9 L 640.3 154.7 L 639.3 154.1 L 638.7 154.3 L 638.5 154.1 L 638.6 153.6 L 638.3 153.4 L 638.1 153 L 638.4 152.6 L 639.9 151.5 L 640.1 151 L 640.1 150.7 L 639.7 150.3 L 639.9 149.5 L 640.8 148.4 L 640.8 147.4 L 640.2 146.2 L 640.2 145.5 L 640.5 145.1 L 640.3 144.4 L 639.8 143.9 L 639.6 143.3 L 639.9 142.8 L 639.9 141.8 L 639.4 140.3 L 639.5 139.2 L 640.2 138.5 L 640.6 138.5 L 640.9 138.6 L 641.1 138.5 L 641.3 138.1 L 641.8 137.9 L 642.5 138.1 L 643.5 137.8 L 644.8 136.8 L 645.4 136.9 L 645.8 136.9 L 646.2 136.7 L 646.2 136.3 L 646.9 135.2 L 648.1 133.7 L 649.1 133.3 L 649.8 133.9 L 650.3 134 L 650.5 133.5 L 650.8 133.5 L 651.2 133.6 L 651.5 133.5 L 651.8 132.5 L 652.4 131.9 L 653.1 131.6 L 653.3 131.3 L 653.2 131 L 653.3 130.6 L 653.5 130.4 L 653.5 130 L 653.4 129.8 L 653.4 129.6 L 653.6 129.3 L 653.6 129 L 653.5 128.7 L 653.7 128.4 L 654.3 128 L 654.5 127.5 L 654.4 126.3 L 654.6 125 L 655.1 123.7 L 655.4 123.6 L 655.8 123.6 L 656.3 124.2 L 657.1 124.1 L 658.3 123.2 L 658.9 122.4 L 659 121.9 L 659.3 121.7 L 659.7 121.7 L 659.8 121.4 L 659.6 120.9 L 659.9 120.1 L 660.8 119.3 L 661.4 119.2 L 661.8 119.1 L 661.9 118.8 L 661.8 118.4 L 662 117.9 L 662.8 117.1 L 662.8 116.7 L 662.6 116.6 L 662.5 116.3 L 662.8 115.7" />
<g class="city"><circle cx="1032.5614424575724" cy="378.73698002465153" r="5" /><text x="1044.5614424575724" y="382.73698002465153">São Paulo</text></g>
<g class="city"><circle cx="870.0561460112891" cy="530.8968468496776" r="5" /><text x="882.0561460112891" y="534.8968468496776">Buenos Aires</text></g>
<g class="city"><circle cx="613.7557344627949" cy="220.29075528559866" r="5" /><text x="625.7557344627949" y="224.29075528559866">Lima</text></g>
<g class="city"><circle cx="701.8734900587083" cy="514.7845841528842" r="5" /><text x="713.8734900587083" y="518.7845841528842">Santiago</text></g>
<g class="city"><circle cx="1069.8652584903384" cy="328.58148334011116" r="5" /><text x="1081.8652584903384" y="332.58148334011116">Belo Horizonte</text></g>
<g class="city"><circle cx="969.5859249996035" cy="468.09127411260323" r="5" /><text x="981.5859249996035" y="472.09127411260323">Porto Alegre</text></g>
<g class="city"><circle cx="1014.7901746051268" cy="271.708145895183" r="5" /><text x="1026.7901746051268" y="275.708145895183">Brasília</text></g>
<g class="city"><circle cx="995.4646269685306" cy="404.35853495558786" r="5" /><text x="1007.4646269685306" y="408.35853495558786">Curitiba</text></g>
<text class="map-title" x="80" y="105">Argentina Physical Study Map</text>
<text class="map-subtitle" x="80" y="145">Landmark: Iguazu Falls | Study terrain and water systems</text>
  <text class="footer" x="80" y="1036">Made with Natural Earth. Free vector and raster map data @ naturalearthdata.com.</text>
</svg>
