<?xml version="1.0" encoding="UTF-8"?>
<svg xmlns="http://www.w3.org/2000/svg" width="1600" height="1100" viewBox="0 0 1600 1100" role="img" aria-labelledby="title desc">
  <title id="title">Argentina Political Study Map</title>
  <desc id="desc">Made with Natural Earth. Free vector and raster map data @ naturalearthdata.com.</desc>
  <defs>
    <linearGradient id="terrain" x1="0" x2="1" y1="0" y2="1">
      <stop offset="0%" stop-color="#6c8c53" />
      <stop offset="42%" stop-color="#d5c487" />
      <stop offset="72%" stop-color="#b88b5f" />
      <stop offset="100%" stop-color="#f1f5ee" />
    </linearGradient>
    <filter id="softShadow" x="-10%" y="-10%" width="120%" height="120%">
      <feDropShadow dx="0" dy="10" stdDeviation="12" flood-color="#0f172a" flood-opacity="0.16" />
    </filter>
    <style>
      .neighbor { fill: #ffffff; stroke: #94a3b8; stroke-width: 1.2; opacity: 0.72; }
      .country { fill: #f7f1df; stroke: #1f2937; stroke-width: 4; filter: url(#softShadow); }
      .admin1 { fill: none; stroke: #64748b; stroke-width: 1.1; stroke-dasharray: 6 7; opacity: 0.75; }
      .river { fill: none; stroke: #1d9bd1; stroke-width: 3; stroke-linecap: round; opacity: 0.88; }
      .lake { fill: #8ed1ea; stroke: #0ea5e9; stroke-width: 1.5; opacity: 0.8; }
      .city circle { fill: #ef4444; stroke: #ffffff; stroke-width: 2; }
      .city text, .terrain-label { fill: #172033; font: 700 24px system-ui, sans-serif; paint-order: stroke; stroke: #ffffff; stroke-width: 5; stroke-linejoin: round; }
      .map-title { fill: #0f172a; font: 800 46px system-ui, sans-serif; }
      .map-subtitle { fill: #475569; font: 600 24px system-ui, sans-serif; }
      .footer { fill: #64748b; font: 500 18px system-ui, sans-serif; }
    </style>
  </defs>
  <rect width="100%" height="100%" fill="#eaf3f8" />
  <rect x="40" y="40" width="1520" height="1020" rx="32" fill="#ffffff" opacity="0.54" />
  <path class="neighbor" d="M 4152.1 275.6 L 4152.1 282.4 L 4143.4 285.7 L 4134.6 288.6 L 4132.8 283.5 L 4139.7 280.7 L 4144 279.9 L 4152.1 275.6 Z M 4126.3 295.4 L 4129.7 293.2 L 4134.5 297.1 L 4132.2 304.3 L 4123.7 306.2 L 4116.1 304.5 L 4114.7 298.5 L 4120.1 293.7 L 4126.3 295.4 Z M -800.5 275 L -802.2 281.6 L -803.3 282.4 L -803.3 275.6 L -800.5 275 Z" />
<path class="neighbor" d="M 729.6 779 L 729.6 809.8 L 744.4 809.8 L 752.7 810.1 L 748.1 815.7 L 736.3 820 L 729.5 819.5 L 721.4 818.4 L 711.4 814.3 L 697 812.3 L 679.7 804.6 L 665.6 797.2 L 646.6 781.8 L 658 784.7 L 677.3 793.9 L 695.6 798.8 L 702.7 792.5 L 707.1 783.1 L 719.8 777.4 L 729.6 779 Z M 716.5 296.5 L 723.2 305.8 L 725 315.8 L 732.3 321.6 L 727.9 334.9 L 735.3 350.3 L 740.7 369.3 L 750.7 367.4 L 752.3 370.9 L 747.6 385.2 L 732.6 392 L 733 414.9 L 730.2 419.3 L 734.3 424.7 L 724.6 433.3 L 715.6 446.2 L 710.6 458.7 L 711.9 472.1 L 703.5 486.2 L 709.8 510 L 713.4 512.5 L 713.3 525.2 L 705.5 538.6 L 705.8 550.1 L 695.4 559.1 L 695.4 571.7 L 699.6 585.2 L 691.4 590.2 L 687.7 602.4 L 684.5 616.5 L 686.8 633.3 L 681.2 636.1 L 684.5 652 L 690.7 657.2 L 686.1 663 L 692.5 665.8 L 694 670.9 L 688 673.5 L 689.5 681.6 L 684.4 699.9 L 677.1 711.6 L 678.7 718.6 L 674.4 727.3 L 663.8 733.4 L 665 747.9 L 669.9 752.9 L 679 752.1 L 678.8 762.4 L 684.5 770.4 L 717.7 772.2 L 730.5 774.4 L 718.2 774.3 L 711.6 777.7 L 699.2 782.6 L 697 795.5 L 691.1 795.8 L 675.6 791.3 L 659.9 781.8 L 659.9 781.8 L 642.7 773.9 L 638.4 765.2 L 642.3 757.1 L 635.4 747.9 L 633.6 724.5 L 639.5 711.2 L 654 700.6 L 633.1 696.6 L 646.2 684.4 L 650.9 661.6 L 666.2 666.4 L 673.4 637.9 L 664.2 634.2 L 659.9 651.4 L 651.2 649.5 L 655.5 629.8 L 660.2 604.3 L 666.5 594.9 L 662.6 581.4 L 661.4 565.9 L 667.2 565.5 L 675.7 543.3 L 685.2 521.2 L 691 500.7 L 687.9 480.1 L 692 468.7 L 690.3 451.8 L 698.4 434.9 L 700.8 408.3 L 705.3 379.7 L 709.6 349 L 708.6 326.4 L 705.7 307 L 712.8 303.5 L 716.5 296.5 Z" />
<path class="neighbor" d="M 832 768.2 L 848.5 759.9 L 860.2 763.4 L 868.4 757.9 L 879.5 764.1 L 875.3 768.9 L 856.7 773 L 850.5 768.2 L 838.8 774.4 L 832 768.2 Z" />
<path class="neighbor" d="M 881.2 470.4 L 890.1 468.9 L 903.9 479.6 L 909 479.2 L 923.2 488 L 934 495.6 L 942 505 L 935.9 511.5 L 939.7 519.3 L 933.7 528 L 918.2 535.6 L 908 532.9 L 900.6 534.3 L 887.9 528.4 L 878.5 528.9 L 870.1 521.2 L 871.2 512.3 L 874.2 509.3 L 874 495.6 L 877.7 481.4 L 881.2 470.4 Z" />
<path class="neighbor" d="M 939.7 519.3 L 935.9 511.5 L 942 505 L 934 495.6 L 923.2 488 L 909 479.2 L 903.9 479.6 L 890.1 468.9 L 881.2 470.4 L 899.5 451.6 L 915.1 438.3 L 924.3 432.7 L 935.9 425.1 L 936.2 414.1 L 929.3 406.1 L 922.5 408.8 L 925.2 400.8 L 927 392.7 L 927 385.1 L 922.1 382.6 L 916.9 384.9 L 911.8 384.2 L 910.2 378.9 L 908.9 366.3 L 906.3 362.2 L 897 358.5 L 891.4 361.2 L 876.9 358.5 L 877.8 339.9 L 873.7 332.2 L 878 329.4 L 876.7 321.5 L 880.5 315.5 L 882.9 304.6 L 879.7 296.1 L 872.1 292.2 L 870.7 286.8 L 872.7 278.8 L 846.3 278.3 L 841 262.2 L 845 262 L 844.8 256.1 L 842.2 252.1 L 841.6 244.1 L 833.6 240 L 824.9 240.2 L 819.2 236.2 L 809.9 233.4 L 804.5 228.3 L 789.1 226 L 774.1 213.7 L 775.2 204.5 L 773.5 199.2 L 775 188.9 L 757 191.2 L 749.7 196.3 L 737.7 201.9 L 734.6 206.1 L 727.5 206.4 L 717.3 205.2 L 709.5 207.6 L 703.3 206 L 704.2 185.1 L 692.9 193.2 L 680.8 192.9 L 675.5 185.5 L 666.4 184.7 L 669.3 178.8 L 661.7 170.4 L 655.9 158 L 659.6 155.5 L 659.6 149.7 L 667.9 145.7 L 666.5 138.3 L 670 133.5 L 671 127.1 L 686.8 117.7 L 698 115.1 L 699.9 113 L 712.3 113.6 L 718.5 75.9 L 718.8 69.9 L 716.6 62 L 710.5 57 L 710.6 47 L 718.4 44.8 L 721.1 46.2 L 721.6 40.9 L 713.5 39.5 L 713.3 30.9 L 740.2 31.2 L 744.7 26.4 L 748.5 30.8 L 751.2 38.9 L 753.8 37.2 L 761.4 44.5 L 772.1 43.6 L 774.8 39.4 L 785 36.2 L 790.7 33.9 L 792.3 28.1 L 802.1 24.2 L 801.4 21.3 L 789.7 20.1 L 787.8 11.4 L 788.3 2.2 L 782.2 -1.4 L 784.8 -2.6 L 795 -0.9 L 805.9 2.6 L 809.9 -0.7 L 819.8 -2.8 L 835.2 -8 L 840.2 -13.2 L 838.4 -17.1 L 845.5 -17.7 L 848.7 -14.5 L 847 -8.5 L 851.7 -6.4 L 854.8 0 L 851 4.8 L 848.8 16.5 L 852.4 23.5 L 853.4 29.9 L 861.8 36.3 L 868.6 37 L 870.1 34.3 L 874.4 33.7 L 880.7 31.3 L 885.2 27.7 L 892.8 28.8 L 896.1 28.3 L 903.6 29.5 L 904.8 26.6 L 902.5 23.9 L 903.9 19.9 L 909.5 21.1 L 916 19.7 L 923.8 22.7 L 929.9 25.5 L 934.1 21.8 L 937.2 22.3 L 939.1 26.2 L 945.7 25.2 L 950.9 20 L 955.2 9.9 L 963.3 -2.7 L 968 -3.4 L 971.4 4.2 L 979.1 28.3 L 986.5 30.6 L 986.9 40.1 L 976.5 51.4 L 980.8 55.6 L 1005.1 57.7 L 1005.6 71.5 L 1016.1 62.5 L 1033.4 67.4 L 1056.3 75.8 L 1063 83.9 L 1060.7 91.5 L 1076.7 87.3 L 1103.5 94.6 L 1124.1 94 L 1144.4 105.4 L 1162 120.8 L 1172.6 124.8 L 1184.4 125.4 L 1189.4 129.7 L 1194 147.2 L 1196.3 155.6 L 1190.8 178.3 L 1183.8 187.3 L 1164.4 206.5 L 1155.7 222 L 1145.5 233.9 L 1142 234.2 L 1138.2 244.3 L 1139.2 270.1 L 1135.3 291.4 L 1133.9 300.4 L 1129.5 305.9 L 1127.1 324.3 L 1113.1 342.2 L 1110.8 356.4 L 1099.6 362.4 L 1096.4 370.7 L 1081.5 370.6 L 1059.8 375.9 L 1050.1 382 L 1034.7 386.1 L 1018.5 397 L 1006.8 410.7 L 1004.8 421 L 1007.1 428.6 L 1004.6 442.5 L 1001.4 449.2 L 991.8 456.8 L 976.5 481 L 964.4 491.9 L 955.1 498.3 L 948.8 511.4 L 939.7 519.3 Z" />
<path class="neighbor" d="M 717.3 205.2 L 727.5 206.4 L 734.6 206.1 L 737.7 201.9 L 749.7 196.3 L 757 191.2 L 775 188.9 L 773.5 199.2 L 775.2 204.5 L 774.1 213.7 L 789.1 226 L 804.5 228.3 L 809.9 233.4 L 819.2 236.2 L 824.9 240.2 L 833.6 240 L 841.6 244.1 L 842.2 252.1 L 844.8 256.1 L 845 262 L 841 262.2 L 846.3 278.3 L 872.7 278.8 L 870.7 286.8 L 872.1 292.2 L 879.7 296.1 L 882.9 304.6 L 880.5 315.5 L 876.7 321.5 L 878 329.4 L 873.7 332.2 L 873.5 328 L 860.7 320.9 L 847.9 320.7 L 823.9 324.7 L 817.3 336.8 L 816.9 344.3 L 811.5 360.7 L 809.3 357.8 L 793.6 357.2 L 788.2 368.3 L 780.1 358.4 L 762.1 355 L 750.7 367.4 L 740.7 369.3 L 735.3 350.3 L 727.9 334.9 L 732.3 321.6 L 725 315.8 L 723.2 305.8 L 716.5 296.5 L 725.1 281.6 L 719.2 270 L 722.4 265.4 L 719.9 260.3 L 725.3 253.4 L 725.6 241.7 L 726.2 232 L 729.2 227.4 L 717.3 205.2 Z" />
<path class="neighbor" d="M 712.3 113.6 L 699.9 113 L 698 115.1 L 686.8 117.7 L 671 127.1 L 670 133.5 L 666.5 138.3 L 667.9 145.7 L 659.6 149.7 L 659.6 155.5 L 655.9 158 L 661.7 170.4 L 669.3 178.8 L 666.4 184.7 L 675.5 185.5 L 680.8 192.9 L 692.9 193.2 L 704.2 185.1 L 703.3 206 L 709.5 207.6 L 717.3 205.2 L 729.2 227.4 L 726.2 232 L 725.6 241.7 L 725.3 253.4 L 719.9 260.3 L 722.4 265.4 L 719.2 270 L 725.1 281.6 L 716.5 296.5 L 712.8 303.5 L 705.7 307 L 691.9 299.1 L 690.7 293.5 L 663.4 279.7 L 638.7 264.6 L 628.1 256.1 L 622.4 244.8 L 624.7 240.8 L 613 222.7 L 599.4 197.3 L 586.4 169.9 L 580.8 163.6 L 576.5 153.5 L 565.8 144.5 L 556 138.9 L 560.4 132.8 L 553.8 119.7 L 558 110 L 569 101.3 L 570.6 107.1 L 566.7 110.4 L 567.1 115.4 L 572.8 114.3 L 578.3 115.8 L 584.1 122.7 L 591.9 117.1 L 594.5 107.8 L 602.9 95.8 L 619.5 90.4 L 634.5 76 L 638.8 67 L 636.9 56.6 L 640.5 55.3 L 649.7 61.8 L 654.1 68.3 L 660.5 71.8 L 668.6 86.3 L 678.8 88 L 686.4 84.3 L 691.4 86.7 L 699.6 85.5 L 710.2 92 L 701.3 106 L 705.4 106.3 L 712.3 113.6 Z" />
<path class="neighbor" d="M 873.7 332.2 L 877.8 339.9 L 876.9 358.5 L 891.4 361.2 L 897 358.5 L 906.3 362.2 L 908.9 366.3 L 910.2 378.9 L 911.8 384.2 L 916.9 384.9 L 922.1 382.6 L 927 385.1 L 927 392.7 L 925.2 400.8 L 922.5 408.8 L 920.2 420.9 L 907.7 431.5 L 896.8 433.7 L 881.4 431.6 L 867.5 427.8 L 881.1 406.9 L 879.1 400.8 L 864.9 395.5 L 848.1 385.3 L 836.8 383.2 L 811.5 360.7 L 816.9 344.3 L 817.3 336.8 L 823.9 324.7 L 847.9 320.7 L 860.7 320.9 L 873.5 328 L 873.7 332.2 Z" />
<path class="neighbor" d="M 1004.6 1128.8 L 1011.6 1128.8 L 1032.1 1125.8 L 1052.8 1128.8 L 1069.8 1134.7 L 1075.7 1143.1 L 1077.4 1149 L 1077.9 1156 L 1056.6 1160.4 L 1034.2 1163.9 L 1008.3 1167.1 L 979.5 1169.8 L 946.9 1169 L 928.8 1164.4 L 931.2 1158.7 L 960.6 1155 L 972.5 1150.4 L 981.1 1144.4 L 987.3 1139.3 L 995.7 1134.5 L 1004.6 1128.8 L 1004.6 1128.8 Z M 761.9 1159.2 L 792.9 1159.7 L 822.6 1161.1 L 832.8 1155.4 L 840.1 1150.6 L 854.4 1156.2 L 850.3 1163.3 L 846.3 1169.5 L 817.4 1167.6 L 786.7 1168.4 L 769.4 1163.8 L 769.4 1163.3 L 761.9 1159.2 Z M 656.9 1035.5 L 656.9 1035.5 L 666.4 1033.9 L 682.3 1034.4 L 686.3 1027.4 L 687.1 1022.3 L 686.9 1011.2 L 694.7 1004.8 L 707.3 1002.6 L 714.6 1007.7 L 717.9 1012.9 L 723.8 1019.1 L 728.4 1025 L 732.1 1031.2 L 733.8 1037.4 L 731.3 1042.8 L 727.6 1047.9 L 711.4 1049.8 L 696 1052.5 L 678 1052.2 L 684.7 1046.8 L 668.5 1048.7 L 653.2 1050.6 L 642.6 1046.6 L 641.8 1040.9 L 656.9 1035.5 Z M 265.8 1044.1 L 265.8 1044.1 L 274.4 1041.7 L 291.9 1043.6 L 311.9 1044.6 L 327 1046.5 L 342.1 1044.9 L 350.2 1052.7 L 339.4 1051.7 L 322.7 1052.2 L 305.7 1051.7 L 287.1 1052.5 L 273.1 1049.8 L 265.8 1044.1 Z M -13.5 1068.4 L -13.5 1068.4 L -10.6 1063.8 L 5.9 1066.2 L 23.7 1068.4 L 40.1 1066 L 32.3 1070.8 L 19.4 1074.3 L 0.2 1073.2 L -13.5 1068.4 Z M -77.7 1065.7 L -77.7 1065.7 L -67.7 1062.7 L -54 1066 L -32.9 1071.4 L -41 1070.8 L -58.8 1069.5 L -77.7 1065.7 Z M -579.1 1136.4 L -579.1 1136.4 L -570.8 1131.2 L -545.2 1133.4 L -531.4 1137.7 L -520.9 1142.6 L -517.1 1148.8 L -543.6 1150.7 L -561.6 1145.8 L -569.7 1140.9 L -570.2 1140.1 L -579.1 1136.4 Z M 4152.1 1220.6 L 4152.1 1293.3 L -803.3 1293.3 L -803.3 1220.6 L -802.5 1220.7 L -790.4 1212.7 L -765.6 1217 L -764 1216.5 L -749.4 1212.1 L -747.6 1212.3 L -745.9 1212.4 L -726 1218.1 L -708.6 1212.4 L -705.5 1211.6 L -665 1209.2 L -651.9 1212.4 L -645.5 1214 L -624.7 1218.6 L -585.6 1222.1 L -554.6 1226.4 L -501.5 1229.7 L -461.9 1225.9 L -403.4 1228.6 L -370.2 1232.9 L -333.8 1228.9 L -295.5 1225.1 L -292.5 1218.6 L -346.7 1218.1 L -391.2 1214.8 L -402.8 1209.4 L -439.8 1206.5 L -437.3 1200.3 L -432.2 1194.6 L -427.1 1189.5 L -429.8 1183.8 L -452.7 1180 L -463.2 1175.2 L -484.5 1170.9 L -451.1 1171.7 L -419.3 1169.5 L -399.3 1174.1 L -374.8 1170.1 L -352.1 1164.9 L -341.1 1160.3 L -345.9 1154.7 L -363.7 1150.9 L -383.9 1146.9 L -412.3 1146 L -437.1 1144.2 L -463.7 1142.8 L -472.6 1137.7 L -490.4 1133.4 L -501.2 1128.5 L -505.5 1112.9 L -498.8 1114.2 L -486.4 1118.5 L -463.7 1117.2 L -441.9 1115.3 L -430.6 1121.2 L -408.7 1119.9 L -390.4 1116.9 L -373.2 1113.1 L -357.5 1108.6 L -336.8 1107.2 L -337.3 1102.1 L -342.2 1097 L -338.1 1092.1 L -320.3 1089.7 L -312.2 1094.3 L -291.2 1091.6 L -275.3 1088.1 L -255.6 1087.8 L -237 1086.4 L -218.4 1083.2 L -203.6 1080.2 L -186.9 1077.3 L -176.1 1078.1 L -166.6 1079.2 L -146.2 1077.3 L -127.8 1079.7 L -108.9 1079.4 L -90.9 1077.5 L -72.3 1078.9 L -51.8 1080.2 L -32.6 1079.7 L -12.7 1080 L 7.8 1080.2 L 26.7 1079.7 L 40.7 1075.6 L 57.4 1073.5 L 74.7 1076.5 L 91.1 1074 L 105.9 1069.2 L 114.8 1073.5 L 119.7 1078.3 L 128.6 1082.9 L 142.9 1078.9 L 159.3 1084 L 177.9 1085.6 L 193.8 1089.4 L 213.2 1088.6 L 230.8 1086.2 L 251.5 1086.7 L 270.1 1088.6 L 289 1091 L 296.3 1085.1 L 287.4 1080.5 L 280.6 1075.6 L 262.8 1074.6 L 255 1069.4 L 252.1 1064.3 L 247.2 1054.1 L 257.7 1056 L 275.8 1056.8 L 293.6 1056 L 309.7 1058.1 L 323.8 1062.2 L 329.7 1067 L 348.3 1067.8 L 366.1 1065.9 L 385 1063.2 L 402 1061.6 L 416 1064.9 L 434.3 1063.8 L 446.2 1053.3 L 457.2 1059.5 L 473.1 1061.9 L 490.4 1060.5 L 501.7 1065.9 L 519.8 1066.5 L 536.5 1068.1 L 552.9 1071.1 L 563.7 1065.9 L 569.1 1061.1 L 582.9 1066.5 L 601.7 1065.1 L 615.7 1068.1 L 625.2 1072.7 L 643.5 1071.3 L 657.8 1068.4 L 671.8 1064.9 L 688.5 1063 L 708 1061.3 L 725.5 1059.5 L 739 1056.5 L 747 1052.2 L 750.3 1046.2 L 748.7 1040.6 L 744.3 1035.2 L 739.5 1029.8 L 735.2 1024.4 L 731.7 1019.5 L 730.9 1014.1 L 732.2 1008.8 L 738.7 1003.6 L 744.1 998 L 746.2 992.6 L 743.5 986.6 L 741.9 981.2 L 748.7 975 L 756.2 971 L 765.1 965.9 L 774.5 961.5 L 785.6 957.5 L 791 951.6 L 798.5 947.8 L 807.2 944.3 L 820.4 943.5 L 829 939.2 L 838.7 936.5 L 850 934.8 L 860 931.3 L 867.8 927 L 878.6 925.4 L 886.7 928.9 L 881.6 933.5 L 867.6 937.5 L 861.6 940.5 L 851.4 938.4 L 840.1 939.7 L 830.6 942.9 L 820.6 946.4 L 813.9 950.5 L 812 955.9 L 812.8 961 L 819.3 965.6 L 809.9 968.8 L 796.9 969.9 L 789.4 974.5 L 781.3 978.8 L 772.7 984.7 L 770.5 989.9 L 775.4 995.5 L 782.6 999.9 L 794 1003.1 L 804.5 1007.4 L 810.1 1012.8 L 813.1 1017.9 L 817.1 1023.3 L 823.6 1027.9 L 827.7 1033 L 829.5 1045.7 L 833.6 1050.8 L 834.7 1056.2 L 839 1061.6 L 837.1 1068.9 L 829.5 1074.6 L 821.5 1079.2 L 803.1 1081 L 796.9 1085.9 L 788.6 1090.5 L 767.8 1095.6 L 749.5 1097.8 L 732.2 1100.7 L 713.6 1103.7 L 702.6 1109.4 L 680.5 1109.9 L 656.2 1109.4 L 634.3 1110.4 L 611.2 1110.4 L 615.5 1115.8 L 636.5 1118.3 L 651.9 1122 L 660.5 1126.9 L 645.1 1131.2 L 621.4 1129.9 L 601.7 1133.4 L 600.9 1139 L 600.4 1144.4 L 616.6 1149 L 619.5 1154.1 L 637 1159.3 L 666.2 1161.4 L 691 1165.2 L 710.6 1169.5 L 735.7 1173.8 L 770 1176 L 803.7 1179.8 L 827.1 1183.8 L 852.7 1188.4 L 866.2 1194.9 L 872.9 1200 L 889.7 1195.1 L 912.3 1191.1 L 936.3 1186.8 L 964.9 1183.3 L 989.4 1179.5 L 1023.7 1179.2 L 1057.4 1181.1 L 1085.1 1184.3 L 1094 1178.4 L 1113.2 1174.4 L 1147.9 1174.1 L 1175.2 1171.1 L 1201.1 1168.2 L 1229.6 1166.3 L 1260.1 1163.8 L 1281.4 1160.3 L 1271.7 1155.5 L 1265.8 1150.6 L 1265.8 1145.5 L 1239.1 1146 L 1210.8 1148.2 L 1183.8 1148.2 L 1180 1143.1 L 1181.9 1132.8 L 1188.1 1129.9 L 1207.8 1126.6 L 1231 1123.4 L 1247.7 1119.3 L 1264.4 1115.3 L 1276.8 1109.9 L 1295.7 1107.5 L 1314.3 1105.6 L 1323.7 1104.5 L 1345 1104 L 1365.2 1102.1 L 1382.2 1099.4 L 1398.9 1096.1 L 1414 1092.9 L 1433.2 1088.6 L 1445.3 1084 L 1458.3 1080 L 1462.3 1074.6 L 1447.7 1071.3 L 1452.6 1065.7 L 1461.8 1061.3 L 1476 1058.7 L 1491.1 1055.4 L 1505.2 1051.1 L 1516 1045.7 L 1522.7 1039.2 L 1532.7 1035.5 L 1549.1 1036.3 L 1555.9 1040.8 L 1572.3 1041.4 L 1572.8 1036.3 L 1579.8 1030.9 L 1594.7 1032.2 L 1598.2 1037.3 L 1614.6 1038.2 L 1632.4 1035.7 L 1649.7 1034.1 L 1665.3 1034.9 L 1671.2 1040.6 L 1686.3 1036 L 1700.4 1033.6 L 1716 1031.7 L 1731.4 1029.8 L 1745.4 1026.6 L 1760.8 1024.4 L 1772.6 1021.4 L 1781 1016.6 L 1791.2 1020.1 L 1805.5 1018.2 L 1815.5 1024.7 L 1823.3 1029.5 L 1838.9 1026.8 L 1845.1 1021.4 L 1859.2 1017.7 L 1877.2 1018.5 L 1882.6 1023.6 L 1893.9 1018.5 L 1908.8 1016.8 L 1924.9 1016.3 L 1939.5 1016.6 L 1954.9 1018.2 L 1969.7 1019 L 1976.2 1023.6 L 1985.1 1027.6 L 2000.2 1025.2 L 2016.3 1024.7 L 2032 1024.7 L 2047.3 1024.4 L 2061.1 1022.5 L 2075.6 1020.9 L 2087.8 1017.1 L 2100.7 1014.7 L 2114.7 1013.3 L 2125.3 1009.6 L 2132.8 1002 L 2140.6 997.4 L 2154.9 999.6 L 2160.3 1004.4 L 2172.2 1007.7 L 2186.5 1006.6 L 2196.2 1011.4 L 2206.4 1015 L 2220.4 1011.7 L 2225.3 1005.8 L 2237.7 1003.4 L 2252 998.8 L 2265.4 996.9 L 2281.6 994.2 L 2292.4 991.2 L 2303.7 988 L 2314.5 985 L 2327.5 986.6 L 2339.9 981.8 L 2348.8 978 L 2361.7 978.3 L 2373 975 L 2375.7 970.2 L 2387.3 966.4 L 2398.6 963.7 L 2412.4 961.5 L 2425.1 960.5 L 2437.2 961.3 L 2450.1 962.6 L 2461.2 966.4 L 2462.5 972.3 L 2474.7 976.9 L 2483 980.7 L 2499.5 982.3 L 2508.6 986.1 L 2520 989.9 L 2533.2 990.7 L 2544.2 988 L 2556.1 982.3 L 2569 985.3 L 2582.5 986.9 L 2595.4 988.5 L 2608.9 989.6 L 2622.7 989.6 L 2634 1003.9 L 2633.5 1007.4 L 2631.8 1013.6 L 2618.6 1017.1 L 2607.8 1022.2 L 2609.7 1027.6 L 2625.1 1027.4 L 2623.2 1032.8 L 2616.2 1037.9 L 2609.7 1043.5 L 2620.2 1047.9 L 2636.2 1049.2 L 2652.1 1046.8 L 2659.6 1041.4 L 2664.2 1036.3 L 2671.7 1031.9 L 2680.4 1027.9 L 2683.9 1023 L 2691.2 1016.3 L 2699.8 1015 L 2715.4 1014.4 L 2729.2 1012.8 L 2743.2 1010.6 L 2749.9 1005.2 L 2754 1000.1 L 2763.4 995 L 2776.9 991.5 L 2788.5 988.8 L 2796 984.2 L 2803.8 981.8 L 2813.8 979.6 L 2827.6 981 L 2840 979.6 L 2853.5 978 L 2868.5 978.8 L 2878.5 975 L 2885.5 965.9 L 2890.7 969.6 L 2897.1 976.1 L 2908.7 978.8 L 2921.9 979.9 L 2935.1 978.3 L 2949.2 979.4 L 2962.1 979.6 L 2970.7 978.3 L 2982.3 979.1 L 2992.8 982 L 3005.2 980.2 L 3020.1 980.2 L 3032.7 978.3 L 3047 980.2 L 3056.2 975.6 L 3063.2 971 L 3072.6 967.2 L 3089.9 957 L 3098.8 958.9 L 3109.3 962.6 L 3118.5 967.5 L 3136 975.8 L 3149.5 976.1 L 3162.1 976.1 L 3177 974.5 L 3191.8 972.6 L 3203.1 968.8 L 3212.6 964.8 L 3227.9 964.2 L 3238.2 961.3 L 3249 964 L 3256 968.3 L 3265.7 972.6 L 3280.8 972.1 L 3290.2 975.6 L 3306.7 979.1 L 3323.9 980.4 L 3338.2 979.4 L 3349 975 L 3358.1 970.7 L 3370.6 969.6 L 3383 971.5 L 3397.2 972.9 L 3410.2 970.7 L 3422.6 970.7 L 3434.7 972.1 L 3447.4 973.4 L 3459.8 971 L 3474.6 968.8 L 3488.6 968.3 L 3504.3 968.3 L 3516.9 966.9 L 3529.3 965.9 L 3533.1 959.1 L 3533.7 953.5 L 3542.3 957.2 L 3544.7 963.4 L 3549.3 969.1 L 3555 973.7 L 3566.6 976.1 L 3582.2 975.3 L 3600.3 975 L 3612.7 974.2 L 3630.7 974.2 L 3643.7 974 L 3661.7 974.5 L 3677.1 975.6 L 3686.8 979.9 L 3684.1 985 L 3693 989.1 L 3707.8 992.3 L 3723.2 995.8 L 3741 998.2 L 3759.6 1000.4 L 3773.6 1002.5 L 3789.2 1002.8 L 3798.1 998.2 L 3810.3 1002 L 3820.8 1006.3 L 3832.9 1009.6 L 3849.6 1010.9 L 3865.5 1012.5 L 3872.3 1017.9 L 3887.9 1021.2 L 3898.4 1026 L 3913.8 1028.2 L 3929.7 1027.9 L 3944.5 1028.7 L 3961 1028.4 L 3977.4 1029.5 L 3992.8 1031.4 L 4007.1 1034.6 L 4021.4 1037.3 L 4031.1 1041.4 L 4029.5 1046.8 L 4022.2 1051.6 L 4016 1057.8 L 4011.1 1062.7 L 4004.7 1068.4 L 3986.6 1070.5 L 3978.5 1075.4 L 3960.7 1078.3 L 3954.5 1083.7 L 3945.1 1088.9 L 3935.1 1093.2 L 3929.4 1098.8 L 3925.9 1104 L 3924.6 1110.2 L 3924.9 1115.3 L 3932.7 1120.7 L 3935.6 1125.8 L 3942.1 1130.7 L 3967.7 1132.6 L 3973.1 1138.5 L 3948.3 1140.6 L 3927.3 1143.6 L 3901.1 1144.2 L 3889.5 1152 L 3887.1 1158.5 L 3881.2 1163.6 L 3873.9 1168.7 L 3892.2 1173.3 L 3899.2 1179 L 3911.1 1184.1 L 3927.8 1188.7 L 3947 1193 L 3967.7 1197.3 L 3999.3 1201.6 L 4006.3 1208.4 L 4045.9 1211.3 L 4048.6 1212.4 L 4058.8 1216.4 L 4096.9 1212.9 L 4128.4 1217.3 L 4152.1 1220.6 Z" />

<path class="country" d="M 729.6 779 L 734.9 785.4 L 741.8 795.7 L 759.7 804 L 779 807.4 L 772.8 814.3 L 759.7 815 L 752.7 810.1 L 744.4 809.8 L 729.6 809.8 L 729.6 779 Z M 881.2 470.4 L 877.7 481.4 L 874 495.6 L 874.2 509.3 L 871.2 512.3 L 870.1 521.2 L 869.2 528.4 L 886.7 540.2 L 884.8 549.7 L 893.4 555.7 L 892.7 562.4 L 879.5 580.1 L 859.1 587.5 L 831.4 590.3 L 816.3 588.9 L 819.2 597.2 L 816.4 607.5 L 818.9 614.4 L 810.7 619.2 L 796.6 621.1 L 783.3 616.1 L 778 619.7 L 779.9 633.4 L 789.2 637.6 L 796.8 633.2 L 800.9 640.4 L 788.2 644.6 L 777.2 653.2 L 775.1 667 L 771.9 674.4 L 758.9 674.5 L 748.1 681.5 L 744.1 691.8 L 757.7 701.9 L 770.8 704.7 L 766.1 717 L 749.8 724.8 L 740.9 740.9 L 728.3 746.4 L 722.7 752.8 L 727.1 767.1 L 736.3 775.1 L 730.5 774.4 L 717.7 772.2 L 684.5 770.4 L 678.8 762.4 L 679 752.1 L 669.9 752.9 L 665 747.9 L 663.8 733.4 L 674.4 727.3 L 678.7 718.6 L 677.1 711.6 L 684.4 699.9 L 689.5 681.6 L 688 673.5 L 694 670.9 L 692.5 665.8 L 686.1 663 L 690.7 657.2 L 684.5 652 L 681.2 636.1 L 686.8 633.3 L 684.5 616.5 L 687.7 602.4 L 691.4 590.2 L 699.6 585.2 L 695.4 571.7 L 695.4 559.1 L 705.8 550.1 L 705.5 538.6 L 713.3 525.2 L 713.4 512.5 L 709.8 510 L 703.5 486.2 L 711.9 472.1 L 710.6 458.7 L 715.6 446.2 L 724.6 433.3 L 734.3 424.7 L 730.2 419.3 L 733 414.9 L 732.6 392 L 747.6 385.2 L 752.3 370.9 L 750.7 367.4 L 762.1 355 L 780.1 358.4 L 788.2 368.3 L 793.6 357.2 L 809.3 357.8 L 811.5 360.7 L 836.8 383.2 L 848.1 385.3 L 864.9 395.5 L 879.1 400.8 L 881.1 406.9 L 867.5 427.8 L 881.4 431.6 L 896.8 433.7 L 907.7 431.5 L 920.2 420.9 L 922.5 408.8 L 929.3 406.1 L 936.2 414.1 L 935.9 425.1 L 924.3 432.7 L 915.1 438.3 L 899.5 451.6 L 881.2 470.4 Z" />


<g class="city"><circle cx="1032.5614424575724" cy="378.73698002465153" r="5" /><text x="1044.5614424575724" y="382.73698002465153">São Paulo</text></g>
<g class="city"><circle cx="870.0561460112891" cy="530.8968468496776" r="5" /><text x="882.0561460112891" y="534.8968468496776">Buenos Aires</text></g>
<g class="city"><circle cx="613.7557344627949" cy="220.29075528559866" r="5" /><text x="625.7557344627949" y="224.29075528559866">Lima</text></g>
<g class="city"><circle cx="701.8734900587083" cy="514.7845841528842" r="5" /><text x="713.8734900587083" y="518.7845841528842">Santiago</text></g>
<g class="city"><circle cx="1069.8652584903384" cy="328.58148334011116" r="5" /><text x="1081.8652584903384" y="332.58148334011116">Belo Horizonte</text></g>
<g class="city"><circle cx="969.5859249996035" cy="468.09127411260323" r="5" /><text x="981.5859249996035" y="472.09127411260323">Porto Alegre</text></g>
<g class="city"><circle cx="1014.7901746051268" cy="271.708145895183" r="5" /><text x="1026.7901746051268" y="275.708145895183">Brasília</text></g>
<g class="city"><circle cx="995.4646269685306" cy="404.35853495558786" r="5" /><text x="1007.4646269685306" y="408.35853495558786">Curitiba</text></g>
<text class="map-title" x="80" y="105">Argentina Political Study Map</text>
<text class="map-subtitle" x="80" y="145">Capital: Buenos Aires | Continent: South America</text>
  <text class="footer" x="80" y="1036">Made with Natural Earth. Free vector and raster map data @ naturalearthdata.com.</text>
</svg>
