<?xml version="1.0" encoding="UTF-8"?>
<svg xmlns="http://www.w3.org/2000/svg" width="1600" height="1100" viewBox="0 0 1600 1100" role="img" aria-labelledby="title desc">
  <title id="title">Australia Political Study Map</title>
  <desc id="desc">Made with Natural Earth. Free vector and raster map data @ naturalearthdata.com.</desc>
  <defs>
    <linearGradient id="terrain" x1="0" x2="1" y1="0" y2="1">
      <stop offset="0%" stop-color="#6c8c53" />
      <stop offset="42%" stop-color="#d5c487" />
      <stop offset="72%" stop-color="#b88b5f" />
      <stop offset="100%" stop-color="#f1f5ee" />
    </linearGradient>
    <filter id="softShadow" x="-10%" y="-10%" width="120%" height="120%">
      <feDropShadow dx="0" dy="10" stdDeviation="12" flood-color="#0f172a" flood-opacity="0.16" />
    </filter>
    <style>
      .neighbor { fill: #ffffff; stroke: #94a3b8; stroke-width: 1.2; opacity: 0.72; }
      .country { fill: #f7f1df; stroke: #1f2937; stroke-width: 4; filter: url(#softShadow); }
      .admin1 { fill: none; stroke: #64748b; stroke-width: 1.1; stroke-dasharray: 6 7; opacity: 0.75; }
      .river { fill: none; stroke: #1d9bd1; stroke-width: 3; stroke-linecap: round; opacity: 0.88; }
      .lake { fill: #8ed1ea; stroke: #0ea5e9; stroke-width: 1.5; opacity: 0.8; }
      .city circle { fill: #ef4444; stroke: #ffffff; stroke-width: 2; }
      .city text, .terrain-label { fill: #172033; font: 700 24px system-ui, sans-serif; paint-order: stroke; stroke: #ffffff; stroke-width: 5; stroke-linejoin: round; }
      .map-title { fill: #0f172a; font: 800 46px system-ui, sans-serif; }
      .map-subtitle { fill: #475569; font: 600 24px system-ui, sans-serif; }
      .footer { fill: #64748b; font: 500 18px system-ui, sans-serif; }
    </style>
  </defs>
  <rect width="100%" height="100%" fill="#eaf3f8" />
  <rect x="40" y="40" width="1520" height="1020" rx="32" fill="#ffffff" opacity="0.54" />
  <path class="neighbor" d="M 1449.5 430.3 L 1449.5 437.1 L 1440.6 440.6 L 1431.7 443.5 L 1429.9 438.3 L 1436.9 435.5 L 1441.3 434.7 L 1449.5 430.3 Z M 1423.3 450.4 L 1426.8 448.1 L 1431.6 452.1 L 1429.3 459.4 L 1420.6 461.3 L 1412.9 459.6 L 1411.6 453.5 L 1417 448.7 L 1423.3 450.4 Z M -3570.9 429.7 L -3572.7 436.4 L -3573.8 437.1 L -3573.8 430.3 L -3570.9 429.7 Z" />
<path class="neighbor" d="M 905.3 242.4 L 929.5 252 L 955.3 260 L 964.9 267.2 L 972.7 274.2 L 974.8 282.4 L 998.1 291 L 1001.4 298.4 L 988.6 299.9 L 991.7 309.2 L 1004.1 318.4 L 1013.2 333.2 L 1021.2 332.7 L 1020.6 338.9 L 1031.4 341.3 L 1027.2 343.9 L 1042.1 349.8 L 1040.5 353.8 L 1031.3 354.8 L 1027.8 351.2 L 1015.8 349.6 L 1001.8 347.5 L 990.9 338.6 L 983 330.9 L 975.7 318.7 L 957.5 312.6 L 945.7 316.6 L 937.2 321.2 L 939 331.5 L 928 336.3 L 920.2 333.9 L 905.8 333.4 L 905.5 287.9 L 905.3 242.4 Z M 1067.7 257.2 L 1073 261.7 L 1074.7 268.9 L 1070.3 272.6 L 1067.7 264.4 L 1064.4 259 L 1058.1 254.4 L 1050.2 248.5 L 1040.1 244.4 L 1044 241 L 1051.5 244.9 L 1056.3 248 L 1062.1 251.4 L 1067.7 257.2 Z M 1049 287.6 L 1041.4 291 L 1034.2 294.3 L 1026.8 294.3 L 1015.4 290.2 L 1007.4 286.3 L 1008.6 282 L 1021.1 284.1 L 1028.7 283 L 1030.8 276.3 L 1032.8 275.9 L 1034.2 283.3 L 1042.1 282.3 L 1046.1 277.5 L 1053.9 272.5 L 1052.3 264.3 L 1060.7 264 L 1063.5 266.3 L 1063.2 274.1 L 1058.5 282.6 L 1051.2 283.7 L 1049 287.6 Z M 1097.3 280.7 L 1101.5 283.8 L 1108.3 292.7 L 1114.9 297.4 L 1112.9 301.3 L 1109 302.7 L 1103 297.3 L 1096.9 288.5 L 1093.9 277.8 L 1095.8 276.5 L 1097.3 280.7 Z" />
<path class="neighbor" d="M 905.3 242.4 L 905.5 287.9 L 905.8 333.4 L 893.3 321.9 L 879.2 319.1 L 875.7 323.1 L 858.1 323.5 L 864 312.2 L 872.8 308.3 L 869.1 293.1 L 862.4 281.4 L 835.4 269.6 L 823.9 268.4 L 802.9 255.5 L 798.8 262.3 L 793.4 263.5 L 790.3 258.4 L 790.2 252.4 L 779.6 245.5 L 794.6 240.5 L 804.5 240.7 L 803.4 237 L 783 237 L 777.4 228.7 L 765 226.1 L 759.1 219.2 L 777.9 215.8 L 785 211.3 L 807.4 217 L 809.6 222.2 L 813.5 244.8 L 828 253.1 L 839.6 238.3 L 855.6 229.9 L 868 229.9 L 880 234.8 L 890.3 239.8 L 905.3 242.4 Z M 681.6 330.2 L 683 333 L 683.3 337.2 L 674.2 347.6 L 662.2 350.7 L 660.5 349 L 661.8 344.3 L 667.8 335.8 L 681.6 330.2 Z M 810.5 302.4 L 809.2 291.8 L 811.7 286.8 L 814.6 282.1 L 817.8 286.2 L 817.7 292.9 L 810.5 302.4 Z M 582.7 148.4 L 574.8 161 L 585 174.2 L 582.6 180.6 L 598.3 193.6 L 581.7 195.2 L 577.1 204.7 L 577.7 217.4 L 564.3 226.9 L 563.9 240.8 L 558.5 262.1 L 556.5 257.2 L 540.6 263.4 L 535.1 254.9 L 525.1 254.1 L 518.2 249.7 L 501.6 254.7 L 496.5 247.9 L 487.4 248.7 L 475.9 247.1 L 473.7 228.4 L 466.8 224.5 L 460.1 212.6 L 458.1 200.3 L 459.7 187.4 L 468 178.1 L 470.4 187.5 L 479.9 195.4 L 488.9 192.5 L 497.8 193.5 L 505.9 186.5 L 512.6 185.2 L 525.8 189.2 L 537.2 186.2 L 544.4 166.8 L 549.7 161.9 L 554.6 146 L 570.6 146.1 L 582.7 148.4 Z M 743 245.2 L 758.4 249.3 L 763.5 260 L 751.7 254.2 L 740 253.1 L 732.1 254 L 722.5 253.5 L 725.8 245.8 L 743 245.2 Z M 708.2 259 L 698.6 256.5 L 695.8 250.5 L 709.9 249.8 L 713.4 254.4 L 708.2 259 Z M 723 175.8 L 724 183.4 L 732.2 184.6 L 733.5 190.3 L 732.8 202.5 L 725.6 201.2 L 723.4 209.7 L 729.2 217 L 725.3 218.7 L 719.7 209.9 L 715.5 192 L 718.3 180.9 L 723 175.8 Z M 653.1 193.9 L 669.2 193.3 L 683 183.2 L 685.4 186.3 L 674.2 200.2 L 663.7 202.9 L 650.3 200.1 L 627 200.8 L 614.8 202.8 L 612.8 213.4 L 625.3 225.8 L 632.9 219.5 L 658.9 214.7 L 657.7 221.2 L 651.7 219.1 L 645.6 227.3 L 633.3 232.7 L 646.5 250.6 L 644 255.4 L 656.5 271.5 L 656.4 280.7 L 648.9 284.8 L 643.5 279.9 L 650.2 268.4 L 636.5 273.8 L 633 270 L 634.9 264.6 L 624.8 256.4 L 625.8 242.8 L 616.5 247 L 617.7 263.3 L 618.3 283.3 L 609.4 285.3 L 603.4 281.2 L 607.4 268.4 L 605.3 254.9 L 599.4 254.8 L 595.1 245.2 L 600.8 236.1 L 602.8 225 L 609.8 204 L 612.8 198.2 L 624.6 187.9 L 635.5 192 L 653.1 193.9 Z M 616.4 349.3 L 597.9 339.5 L 610.9 336.8 L 618.2 341 L 623.1 345.3 L 622.3 349 L 616.4 349.3 Z M 631 325.3 L 640.3 324.2 L 652.8 319.1 L 650.7 326.8 L 629.8 330.8 L 611.2 329.1 L 611.2 324 L 622.2 321.1 L 631 325.3 Z M 588 322.8 L 596.6 321.7 L 600.1 327.6 L 583.9 330.4 L 574.3 332.3 L 566.8 332.2 L 571.6 324.1 L 579.2 324 L 583 319.1 L 588 322.8 Z M 451.6 295.8 L 453.5 300.7 L 480.3 302.1 L 483.3 296.4 L 509.2 303.1 L 514.3 312.1 L 535.2 314.7 L 552.3 322.9 L 536.4 328.3 L 521.1 322.6 L 508.4 323 L 494 322 L 480.9 319.5 L 464.7 314.2 L 454.5 312.8 L 448.7 314.5 L 423.3 308.8 L 420.8 302.8 L 408.1 301.7 L 417.6 288.4 L 434.6 289.2 L 445.8 294.7 L 451.6 295.8 Z M 394.2 221.3 L 396.5 231 L 401.4 238.8 L 411.6 240 L 418.4 248.9 L 414.9 266.2 L 414.4 287.8 L 398.9 288.1 L 387.2 276.4 L 369.3 265 L 363.3 256.6 L 352.7 245.2 L 345.8 234.7 L 335.2 215.2 L 322.9 203.6 L 318.8 191.6 L 313.7 180.7 L 301.1 171.9 L 293.8 160 L 283.3 152.2 L 268.7 136.8 L 267.5 129.7 L 276.5 130.2 L 298.1 132.9 L 310.4 146.6 L 321.2 156 L 328.9 161.8 L 342.1 176.8 L 356.3 177.1 L 368.1 186.6 L 376.1 198.3 L 386.8 204.7 L 381.2 216.1 L 389.2 220.9 L 394.2 221.3 Z" />
<path class="neighbor" d="M 681.6 330.2 L 683.2 326.9 L 695.2 323.8 L 705 323.3 L 709.3 321.6 L 714.6 323.3 L 709.5 327.1 L 695 333.2 L 683.3 337.2 L 683 333 L 681.6 330.2 Z" />
<path class="neighbor" d="M 1271.1 427.9 L 1279.9 435.9 L 1275.3 437.7 L 1270.6 431.6 L 1271.1 427.9 Z M 1265.2 424.8 L 1263.2 420.9 L 1262.9 410.2 L 1269.6 414.5 L 1271.9 425.8 L 1268.1 424 L 1265.2 424.8 Z" />
<path class="neighbor" d="M 406 7 L 392.9 5 L 374.9 7.6 L 366 19.2 L 369.3 36.1 L 356.7 29.7 L 344.8 29.9 L 346.8 19 L 334.6 19.1 L 333.5 34.4 L 325.9 54.8 L 321.4 67.1 L 322.3 77.2 L 331.4 77.7 L 337.1 90.4 L 339.6 102.5 L 347.4 110.5 L 355.8 112.1 L 363.1 119.3 L 358.5 125.1 L 349.3 126.7 L 348.2 119.6 L 336.8 113.4 L 334.4 115.9 L 328.9 110.6 L 326.5 103.7 L 319.1 95.8 L 312.3 89.2 L 310 97.4 L 307.4 89.6 L 308.9 80.9 L 313 67.5 L 319.8 53.2 L 327.4 40.2 L 322 27.5 L 322.2 21 L 320.6 13.2 L 311.3 2.1 L 308 -4.9 L 312.8 -7.5 L 317.9 -19.6 L 312.2 -28.8 L 303.3 -39 L 296.6 -51.2 L 302.5 -53.8 L 308.8 -68.9 L 318.7 -69.5 L 326.8 -75.5 L 334.8 -78.8 L 340.9 -74.5 L 341.7 -66.1 L 351.1 -65.4 L 347.6 -50.7 L 348 -38.2 L 362.7 -46.5 L 366.9 -44.1 L 375 -44.5 L 377.8 -49.3 L 388.4 -48.4 L 399 -37.1 L 399.9 -23.3 L 411.2 -11.1 L 410.6 0.7 L 406 7 Z" />
<path class="neighbor" d="M 1251.1 500.3 L 1262.5 508.9 L 1269.8 515.4 L 1264.5 518.7 L 1256.8 514.9 L 1246.8 508.6 L 1237.8 501.3 L 1228.6 491.4 L 1226.6 486.7 L 1232.6 486.9 L 1240.5 491.6 L 1246.6 496.4 L 1251.1 500.3 Z" />
<path class="neighbor" d="M 1200 352.4 L 1203.9 357.2 L 1194.1 357.1 L 1188.8 348.5 L 1197.2 351.9 L 1200 352.4 Z M 1193.9 340.1 L 1191.7 342.7 L 1181.4 330.6 L 1178.5 322.2 L 1183.2 322.2 L 1188.3 333.4 L 1193.9 340.1 Z M 1182.3 343.9 L 1176.9 344.2 L 1168.3 342.8 L 1165.4 340.7 L 1166.3 335.1 L 1175.5 337.3 L 1180 340.2 L 1182.3 343.9 Z M 1165.4 318 L 1168.7 322.5 L 1169.3 325.3 L 1158.3 319.4 L 1150.7 314.3 L 1145.4 309.7 L 1147.5 308.3 L 1153.9 311.6 L 1165.4 318 Z M 1130.5 304.1 L 1136.1 308.7 L 1133.3 309.5 L 1127.2 306.3 L 1121.5 300.5 L 1122.2 298.2 L 1130.5 304.1 Z" />
<path class="neighbor" d="M 1406 765.2 L 1400.8 772.7 L 1393.8 782.3 L 1383.1 787.8 L 1380.7 784.2 L 1374.8 782.2 L 1382.9 770.7 L 1378.3 763 L 1363.3 757.4 L 1363.7 752.4 L 1373.8 747.5 L 1376.1 736.8 L 1375.5 727.7 L 1369.8 718.4 L 1370.2 715.9 L 1363.5 710.2 L 1352.6 697.8 L 1346.7 687.9 L 1351.9 686.9 L 1359.5 694.6 L 1370.4 698.2 L 1374.3 710.7 L 1384.4 725.3 L 1384.7 715.8 L 1391 719.6 L 1393.1 730.2 L 1404.3 734.7 L 1413.7 735.8 L 1421.7 730.5 L 1428.8 732.1 L 1425.4 744.5 L 1421.2 752.7 L 1410.5 752.4 L 1406.8 756.6 L 1408.1 762.6 L 1406 765.2 Z M 1305.3 813.9 L 1317.3 806.6 L 1325.6 799.3 L 1331.8 788.9 L 1337.1 785.4 L 1339.2 777.6 L 1349 771.2 L 1352.1 777.1 L 1355.3 782.9 L 1365.2 777.2 L 1369.2 783.1 L 1369.2 789 L 1364 795.4 L 1354.9 805.7 L 1347.8 811.3 L 1352.9 818.1 L 1342.2 818.2 L 1330.2 823.5 L 1326.5 832.6 L 1318.6 846.7 L 1307.6 853 L 1300.6 857 L 1287.8 856.7 L 1278.7 852.1 L 1263.6 851.1 L 1261.2 846 L 1268.7 835.6 L 1286.3 821.8 L 1295.3 819.2 L 1305.3 813.9 Z" />
<path class="neighbor" d="M 623.9 28.9 L 616.8 18.2 L 628.7 18.7 L 633.6 23.8 L 629.9 35.8 L 623.9 28.9 Z M 648.4 66.9 L 651.9 63 L 653.4 54.3 L 661.1 53.5 L 658.8 62.9 L 669.2 49.4 L 667.8 62.7 L 662.8 67.3 L 658.5 76.1 L 654.1 80.2 L 645.5 70.6 L 648.4 66.9 Z M 701.2 88.7 L 702.7 98 L 703.5 105.8 L 698.7 118.6 L 693.6 104.4 L 687.1 111.4 L 691.6 121.7 L 687.6 128.3 L 671.1 120.2 L 667.2 110.1 L 671.5 103.4 L 662.6 96.8 L 658.3 102.6 L 651.7 102.1 L 641.4 109.9 L 639.1 105.8 L 644.5 94 L 653.3 90.1 L 660.9 84.8 L 665.9 91.2 L 676.5 87.3 L 678.7 81.1 L 688.6 80.7 L 687.8 69.9 L 699.1 76.6 L 700.3 83.6 L 701.2 88.7 Z M 591.4 76.1 L 572.8 89.4 L 579.7 79.6 L 589.8 71 L 598.1 61.4 L 605.4 47.5 L 607.9 58.9 L 598.7 66.6 L 591.4 76.1 Z M 644.9 -48.2 L 642.6 -42.4 L 647.4 -32.4 L 643.7 -20.8 L 635.5 -16.2 L 633.3 -4.9 L 636.4 6.2 L 643.8 7.7 L 650 6.1 L 667.4 13.8 L 666.1 21.4 L 670.6 24.8 L 669.2 31.2 L 658.3 24.4 L 653.1 17 L 649.5 22.2 L 640.7 13.8 L 628 15.9 L 621 12.8 L 621.7 7 L 626.1 3.5 L 621.9 0.2 L 620.1 5.3 L 613.2 -2.8 L 611.2 -8.8 L 610.6 -22.2 L 616.3 -17.6 L 617.7 -39.4 L 622.3 -52.1 L 630.7 -52.1 L 639.3 -48.1 L 643.6 -51.7 L 644.9 -48.2 Z M 640.7 46.8 L 638.5 40.2 L 646.9 44.5 L 655.8 44.5 L 655.5 50.3 L 649.1 56.3 L 640.2 60.5 L 639.7 54 L 640.7 46.8 Z M 689 36.4 L 693 52 L 682.2 48.3 L 682.5 53 L 685.9 61.6 L 679.3 64.7 L 678.7 54.9 L 674.5 54.2 L 672.3 45.7 L 680.5 46.9 L 680.3 41.6 L 671.8 30.9 L 685.2 31.2 L 689 36.4 Z" />
<path class="neighbor" d="M 334.4 115.9 L 336.8 113.4 L 348.2 119.6 L 349.3 126.7 L 358.5 125.1 L 363.1 119.3 L 366.3 120.6 L 374.5 129.1 L 380.4 138.4 L 381.2 147.8 L 379.7 154.1 L 381 158.9 L 382.1 167.2 L 387 171 L 392.5 183.4 L 392.2 188.1 L 382.3 189 L 369.1 178.7 L 352.6 167.6 L 351 160.5 L 342.9 151.2 L 341 139.6 L 335.9 132 L 337.5 121.9 L 334.4 115.9 Z M 582.7 148.4 L 570.6 146.1 L 554.6 146 L 549.7 161.9 L 544.4 166.8 L 537.2 186.2 L 525.8 189.2 L 512.6 185.2 L 505.9 186.5 L 497.8 193.5 L 488.9 192.5 L 479.9 195.4 L 470.4 187.5 L 468 178.1 L 478.3 182.9 L 489 180.3 L 491.8 168.5 L 497.8 165.9 L 514.5 162.9 L 524.5 151.8 L 531.4 143 L 537.7 150.2 L 540.7 145.5 L 547.3 145.9 L 548.2 137 L 548.8 130.1 L 559.5 120.4 L 566.6 109.5 L 572.2 109.5 L 579.4 116.5 L 580 122.6 L 589.2 126.5 L 600.8 130.7 L 599.9 136.1 L 590.5 136.8 L 593 143.7 L 582.7 148.4 Z" />
<path class="neighbor" d="M 548.8 130.1 L 548.2 137 L 547.3 145.9 L 540.7 145.5 L 537.7 150.2 L 531.4 143 L 536.9 137.8 L 548.8 130.1 Z" />

<path class="country" d="M 998.6 775.6 L 1007 776.5 L 1008 793.1 L 1003.2 797.9 L 1001.8 809.1 L 996.9 805.3 L 987.2 815 L 984.3 814.3 L 975.7 813.8 L 967.1 801.9 L 965.2 792.7 L 957.2 780.5 L 957.5 774.1 L 966.7 775.3 L 980.1 780.2 L 987.7 778.2 L 998.6 775.6 Z M 698.1 655.7 L 683.3 662.8 L 671.2 666 L 668.5 673.4 L 663.3 679 L 651.5 679.4 L 642.7 680.6 L 630.4 678.1 L 620.4 679.6 L 610.8 680.2 L 602.5 687.7 L 598.4 687 L 591.4 691 L 584.7 695.4 L 574.5 694.9 L 565.2 694.9 L 550.4 686 L 542.9 683.3 L 543.2 675.3 L 550.1 673.4 L 552.5 670.2 L 552 665.2 L 553.7 655.5 L 552.1 647.2 L 544.7 633.1 L 542.5 625.2 L 543.1 617.2 L 537.5 608.1 L 537.1 604 L 531 598.5 L 529.2 587.6 L 521.3 576.5 L 519.3 570.6 L 525.5 576.6 L 520.7 563.6 L 527.7 567.7 L 531.8 573.1 L 531.6 566 L 524.7 555 L 523.3 550.6 L 520.1 546.4 L 521.6 538.3 L 524.5 534.9 L 526.4 527.9 L 524.9 519.8 L 530.6 509.7 L 531.7 520.3 L 537.6 510.7 L 548.9 506.1 L 555.7 500.1 L 566.4 495 L 572.7 493.9 L 576.6 495.6 L 587.6 490.4 L 596 488.9 L 598.1 485.8 L 601.8 484.6 L 609.5 484.9 L 624.2 480.8 L 631.8 474.6 L 635.4 467.1 L 643.5 460.1 L 644.2 454.5 L 644.5 446.9 L 654.3 435.1 L 660.2 447.1 L 666.1 444.3 L 661.1 437.7 L 665.5 431 L 671.7 434 L 673.4 423.4 L 681 416.5 L 684.4 411 L 691.4 408.6 L 691.6 404.7 L 697.7 406.3 L 698 402.8 L 704.1 400.8 L 710.9 399 L 721.2 405.4 L 728.9 413.6 L 737.6 413.7 L 746.5 415 L 743.6 407.4 L 750.2 396.2 L 756.5 392.5 L 754.4 389 L 760.4 381.1 L 768.9 376.1 L 776 377.8 L 787.7 375.2 L 787.5 368 L 777.3 363.5 L 784.7 361.4 L 793.9 364.9 L 801.3 370.6 L 813.1 374.2 L 817.1 372.8 L 825.7 377.1 L 833.9 373.1 L 839.1 374.3 L 842.4 371.6 L 848.8 378.5 L 845.1 386 L 839.8 391.6 L 835 392.1 L 836.6 397.6 L 832.5 404.6 L 827.6 411.5 L 828.5 415.4 L 839.6 423.1 L 850.4 427.6 L 857.6 432.4 L 867.7 440.7 L 871.6 440.7 L 878.9 444.2 L 881 448.5 L 894.3 453.3 L 903.6 448.5 L 906.3 441 L 909.1 434.8 L 910.8 427.2 L 915.1 416.1 L 913.2 409.3 L 914.2 405.3 L 912.5 397.3 L 914.4 386.8 L 917 383.9 L 914.9 379.3 L 918.2 371.9 L 920.9 364.2 L 921.2 360.2 L 926.4 355 L 930.4 361.8 L 931.3 370.6 L 934.8 372.3 L 935.4 378.1 L 940.5 385.2 L 941.5 393.1 L 941 398.2 L 946.1 409.1 L 955 403.9 L 959.6 409.8 L 966.3 415.2 L 964.9 421.4 L 967.9 433.4 L 970 440.4 L 973.5 442.1 L 977.3 454 L 975.9 461.2 L 980.5 470.7 L 995.6 478 L 1005.4 484.6 L 1014.8 490.7 L 1013 494.1 L 1021 502.8 L 1026.4 517.9 L 1032 514.8 L 1037.6 520.9 L 1041 518.7 L 1043.4 533.5 L 1053.3 542.1 L 1059.8 547.4 L 1070.7 558.7 L 1074.6 569.9 L 1075 577.9 L 1074 586.5 L 1080.7 598.4 L 1079.9 610.7 L 1077.5 617.2 L 1073.7 629.6 L 1074 637.6 L 1071.2 647.6 L 1065.1 660.3 L 1054.7 667.2 L 1049.6 678 L 1045 684.9 L 1040.8 696.9 L 1035.5 703.9 L 1031.9 714.3 L 1030.1 723.9 L 1030.8 728.4 L 1022.8 733.2 L 1007.2 733.7 L 994.3 739.4 L 987.9 744.8 L 979.5 750.8 L 967.9 744.7 L 959.4 742.2 L 961.6 734.9 L 953.9 737.6 L 941.7 747.7 L 929.6 743.9 L 921.7 741.7 L 913.8 740.7 L 900.2 736.6 L 891.2 728 L 888.6 717.5 L 885.4 710.4 L 878.5 704.7 L 865.1 703.1 L 869.7 696.3 L 866.3 685.9 L 859.5 695.6 L 847.1 698.2 L 854.4 690.4 L 856.5 682.4 L 861.9 675.5 L 860.8 665.2 L 849.4 677.1 L 840.7 681.9 L 835.4 693 L 824.5 687.2 L 824.9 679.8 L 816.2 669.7 L 808.8 664.5 L 811.4 661.3 L 793.5 652.8 L 783.7 652.4 L 770.3 645.6 L 745.3 646.9 L 727.3 651.9 L 711.4 656.6 L 698.1 655.7 Z" />
<path class="admin1" d="M 516.4 568.3 L 516.7 568.6 L 517.1 569.7 L 516.8 570.3 L 514.1 565.9 L 513.3 562.9 L 513.9 562.4 L 514.3 562.2 L 515.9 566.4 L 516.4 567.3 L 516.4 568.3 Z M 547.4 495.6 L 548.6 494.5 L 548.9 495.2 L 548.7 496.2 L 547.9 497.3 L 546.9 497.1 L 546.8 496.5 L 547.4 495.6 Z M 675.8 419.2 L 676 419.8 L 676.5 420.4 L 676.4 421.1 L 675.9 421.4 L 675.4 421.3 L 675.4 420.8 L 674.8 420.2 L 675.1 419.5 L 675.3 419.2 L 675.8 419.2 Z M 684.8 408.1 L 684.7 409.2 L 684.8 409.6 L 683.9 410.4 L 683.3 409.7 L 683.7 408.4 L 684.3 407.9 L 684.8 408.1 Z M 737.9 568.9 L 737.9 648.4 L 737.1 648.5 L 731.5 651.1 L 724.8 653.6 L 719.4 654.8 L 714.4 656.3 L 711.1 656.8 L 706.9 657 L 697.9 656.2 L 694.8 656.8 L 690 659.7 L 688.5 660.4 L 685.8 661.2 L 678.7 665 L 675.4 665.8 L 673.3 666 L 671.5 666.8 L 669.8 668.4 L 667.6 672.8 L 666.2 674.9 L 663.2 678.3 L 661.2 679.4 L 659.2 679.2 L 657 680.4 L 655.1 679.2 L 653.5 678.9 L 651 679 L 642.3 680.4 L 641 678.8 L 639.4 678.6 L 636.4 678.6 L 631.9 678.1 L 623.6 678.8 L 619.7 679.4 L 618.1 680 L 615.2 679.7 L 610.2 680.2 L 608.5 681.1 L 607.2 682 L 604.6 685.7 L 601.8 686.9 L 599.4 687 L 596.9 687.3 L 591.6 690.8 L 586.3 694.3 L 584.4 694.7 L 582.4 695.3 L 579.8 695.6 L 578.5 695.9 L 572.4 695 L 568.5 694.9 L 563.7 694.3 L 559.5 692.6 L 556.3 691.7 L 552.6 687.9 L 550.4 686.5 L 546.4 684.8 L 545.2 684.9 L 544.3 685.3 L 542.6 684.1 L 542.6 682.6 L 542.1 681.3 L 542.2 677.8 L 542.4 673.8 L 543.9 674.7 L 545 675.6 L 547.5 675.5 L 549.7 674 L 550.9 671.8 L 552 669.3 L 551.9 666.6 L 551.1 662 L 551.6 661 L 552.4 660.6 L 552.6 658.3 L 552.8 651.1 L 552.2 648.4 L 548.8 642.9 L 546.6 638.2 L 545 636 L 543.6 632.6 L 542.4 627.8 L 542.1 625.3 L 541.7 620.9 L 542.1 618.3 L 541.9 616.8 L 540.5 612.8 L 537.3 609 L 536.8 607.6 L 536.8 606.1 L 536 604.4 L 533.5 601 L 530.8 598 L 530.4 596.5 L 529.9 590.5 L 528.9 587.7 L 524.5 580.8 L 519.2 574.8 L 517.8 572.3 L 517.2 571.5 L 517.5 571.4 L 518.1 571.7 L 518.8 572.3 L 519.1 572.3 L 519.4 571.8 L 519.4 570.7 L 519.6 570.1 L 520 570.4 L 520.6 571.7 L 522.2 575 L 522.7 576.7 L 524.8 577.2 L 525.5 576.8 L 526.3 575.9 L 526.5 573.6 L 525.4 572.5 L 524.4 572.1 L 522.8 570.3 L 521.8 567.5 L 520.1 564.9 L 520.1 564 L 520.9 563.3 L 522.1 563.7 L 523.3 565.2 L 524.5 566.6 L 524.3 569 L 524.1 569.7 L 524.2 570.2 L 524.7 570.7 L 525.3 571.2 L 525.9 570.5 L 526.5 569.1 L 526.9 569.3 L 527.7 572.5 L 528.4 573.4 L 529.8 574.4 L 531 573.6 L 531.6 573 L 531.4 570.7 L 531.7 568.5 L 531.5 566.9 L 528.4 562.6 L 525.6 557.3 L 524 554.7 L 522.5 550.7 L 521.6 549.3 L 520.4 547.1 L 520.4 544.6 L 520.5 542.9 L 521.4 539.2 L 522.3 537.3 L 525.2 532.9 L 525.3 531 L 525.3 529.6 L 525.7 527.4 L 525.7 525.9 L 525.3 524.5 L 524.1 522 L 525.7 517.8 L 528 512.3 L 528.9 511.5 L 530.3 510.7 L 530.5 511.9 L 529.8 515.7 L 530.8 517.6 L 530.5 519.9 L 531.4 519.5 L 532.8 519.1 L 533.8 517.9 L 534.4 516.8 L 537 512.3 L 538.4 510.7 L 540.5 509.4 L 544.8 508 L 548.9 506 L 550.8 504.2 L 553.3 502.5 L 555 500.8 L 556.6 499.6 L 564.9 495.2 L 566.3 494.3 L 568.1 494.2 L 570.3 494.4 L 572.3 494.2 L 574.5 495.2 L 576.1 495.3 L 579.9 494.2 L 582 493.2 L 585.6 491.1 L 587.1 490.4 L 590.8 489.8 L 594.8 488.9 L 599.8 485.1 L 603.3 485.4 L 606.5 485.7 L 609 484.6 L 615 483.9 L 618.3 483 L 624.5 480.5 L 626.2 479.7 L 628.7 477.9 L 630.9 475.7 L 633.1 472.7 L 634.4 470.1 L 635 468.7 L 636.3 466.5 L 637.2 464.8 L 637.9 464 L 640.3 462.8 L 643.8 459.5 L 645 458.9 L 645.2 457.8 L 644.4 457.2 L 643.5 456.9 L 642.8 453.4 L 642.2 451 L 642.2 449.3 L 642.4 447.7 L 643.8 445.2 L 644.8 444.2 L 646.2 442.9 L 647.5 442.6 L 648.5 441.5 L 650.2 440.4 L 650.9 439.3 L 652 437.1 L 653 435.4 L 653.7 435.5 L 655.2 439.4 L 656.1 441.4 L 657.8 443.9 L 659.5 447.4 L 660.8 449.1 L 661.5 450.1 L 662 450.6 L 662.1 449.9 L 662 449.1 L 662.6 446.4 L 662.3 444.5 L 662.4 443.8 L 662.7 443.5 L 663.4 443.7 L 664.6 444.7 L 665.3 445.1 L 665.7 445 L 665.7 443.3 L 666.3 442.2 L 666.1 441.5 L 665 441.5 L 664.5 440.6 L 663.6 439.5 L 662.6 438.7 L 661.4 436.9 L 661 436.2 L 661.5 435.9 L 662.2 436 L 662.9 435.2 L 663.1 434.2 L 662.6 432.5 L 663.2 431.9 L 664.3 432.1 L 666.1 434.7 L 666.9 434.5 L 667.5 433.4 L 668.7 433.1 L 669.9 433.3 L 670.7 434.1 L 672.3 434.8 L 674.4 434.7 L 675.5 434.9 L 677.7 434.8 L 678.9 435 L 678.6 434.6 L 677.4 434.1 L 676 434 L 674.4 434.1 L 673.7 433.6 L 673.5 432.2 L 673.9 431.3 L 674.1 430.8 L 675.2 431 L 676.1 431 L 676.2 429.7 L 676.6 428.5 L 677.1 427.6 L 677.1 426.7 L 676.5 426.9 L 675.1 429 L 674.4 427.3 L 673.4 426 L 673.6 424.2 L 674.2 422.3 L 675.1 422.1 L 675.9 422.4 L 677.1 421.3 L 677.7 420.5 L 677.6 419.8 L 677.7 419.3 L 678.6 419.4 L 681.6 421.1 L 682.3 422 L 682.9 421.6 L 683.1 420.7 L 683.1 419.7 L 682.4 419.9 L 680.8 419.8 L 680.4 419.2 L 680.5 418.8 L 679.8 417.7 L 680.8 417 L 681.7 416.9 L 682.4 416.4 L 682.4 415.8 L 682.6 415.5 L 683.1 415.9 L 684.7 416.1 L 686.3 416.9 L 687 417.1 L 687.3 416.7 L 687.4 415.7 L 685.4 414.7 L 685.4 413.7 L 684.5 412.6 L 684.5 411.5 L 685.8 410.5 L 686 409.6 L 686.7 409.3 L 688.1 409.3 L 689.1 408.5 L 690.1 408.2 L 690.4 406.5 L 690.4 405.4 L 690.8 405.1 L 691.9 405.6 L 691.5 406.9 L 691.5 408.2 L 691.3 408.9 L 691.7 408.8 L 691.9 408.5 L 692.3 407.7 L 693.5 408 L 693.7 408.9 L 693.9 409.8 L 694.5 410.1 L 695.2 408.8 L 696.3 408.4 L 696.2 406.7 L 696.6 405.4 L 696.7 404.5 L 697.4 404.1 L 697.5 403.1 L 697 402.4 L 696.7 401.2 L 697.6 400.9 L 698.6 401.5 L 699.2 403.1 L 699.6 403.8 L 700.2 403.4 L 700.5 402.4 L 701.6 401.8 L 702.7 402.6 L 703.9 403.7 L 705.5 402.7 L 706.9 400.9 L 706.7 399.7 L 706.8 398.5 L 708.6 397.9 L 710 398.4 L 711.3 399.6 L 714 400.6 L 716.3 401.9 L 717.4 402.8 L 719.3 404.2 L 720.6 405.7 L 722.3 408.3 L 726.4 411.4 L 726.7 412 L 726.1 413 L 725.6 414.4 L 725 416.7 L 724.9 420 L 725.5 419.8 L 726.1 418.6 L 726.7 418.8 L 727.4 419.6 L 727.5 418.9 L 727.1 418.4 L 726.3 416.9 L 726.3 416 L 726.9 415.4 L 727.9 414.6 L 728.9 414.1 L 729.5 413.6 L 729.6 413.1 L 730.6 412.5 L 731.9 412.3 L 732.8 412.4 L 737.9 413.6 L 737.9 568.9 Z" />
<path class="admin1" d="M 737.9 568.9 L 737.9 413.6 L 738.7 413.8 L 740.2 415.3 L 740.3 417.1 L 740.9 417.7 L 741.2 416.6 L 741.1 414.1 L 741.6 413.7 L 743.2 414 L 744.3 414.5 L 745.8 416.1 L 746 416.9 L 746.7 417.4 L 746.9 416.7 L 746.6 415.6 L 746.4 414.4 L 746.7 413.4 L 748.5 413.3 L 749.7 413.1 L 749.1 412.6 L 748.4 412.5 L 747.1 411.5 L 746.3 410.5 L 747.6 409.5 L 747.6 409.3 L 746.3 409.3 L 744.6 408.3 L 743.1 407 L 744.3 404.5 L 746.5 402 L 747.8 401.2 L 747.9 400.4 L 748.5 398.9 L 748.9 397.6 L 749 396.6 L 749.6 395.5 L 750.9 394.5 L 752.8 394.2 L 753.7 393.8 L 754.6 392.9 L 755.4 391.8 L 753.7 389.6 L 753.8 388.4 L 754.1 386.9 L 756.2 385.9 L 757.4 383.2 L 758.1 382.8 L 759.8 382.9 L 760.4 382.6 L 760.3 380.4 L 760.5 379.6 L 761.2 379.3 L 762.1 379.6 L 762.6 380.5 L 763.9 381.4 L 764.3 380.9 L 764.1 379.9 L 764 378.7 L 765.1 378.4 L 766.1 378.4 L 766.2 377.4 L 766 376.6 L 766.4 376.2 L 768.8 376.1 L 769.5 375.2 L 769.8 374.5 L 770.1 374.9 L 770.5 376.5 L 771.9 377.4 L 775.9 377.5 L 778.1 376.8 L 779.1 377.2 L 780.6 377.5 L 782.3 376.8 L 783.2 376.2 L 784.9 376.9 L 785.4 377.7 L 785.9 376 L 786.8 375.5 L 787.9 375.1 L 789.1 375.4 L 789.7 375.3 L 788.5 374.1 L 788.6 373 L 788.5 371.3 L 788.7 369.8 L 789.1 368.7 L 786.3 366.5 L 783.6 366.2 L 781.6 366.6 L 780.7 366.3 L 778.9 364.5 L 777.2 363.9 L 777.1 363.4 L 779.2 362.2 L 780 362.4 L 781.2 363.6 L 781.9 364 L 782.5 363.9 L 782.8 363 L 783.4 362.5 L 784.4 362.7 L 787.5 364.7 L 789.2 366.7 L 790.1 366.2 L 791.7 365.1 L 793.1 365.3 L 794 365.9 L 795.3 368.3 L 796.2 369.5 L 798.6 369.8 L 799.8 370.2 L 801.1 371 L 802.8 371 L 806.3 371.2 L 809.6 372.7 L 810.9 373.7 L 812.5 373.9 L 813.4 374.3 L 815.1 374.4 L 817.8 373.4 L 819 374.3 L 819.5 375 L 822 376.3 L 824.6 376.7 L 826.5 375.4 L 829.2 374.4 L 831.1 373 L 832.6 372.3 L 833.9 371.1 L 834.4 371.2 L 833.3 372.3 L 833.2 372.9 L 834.1 373.2 L 834 373.5 L 832.8 374.3 L 831.4 375.7 L 831.4 376.5 L 831.9 377 L 832.6 376.8 L 833.5 376.1 L 834.7 375.7 L 835.6 376.3 L 836 378.2 L 836.7 379.5 L 838.2 379.7 L 839.2 379.6 L 840.1 377.8 L 839.6 376.3 L 839 376 L 839.3 375.4 L 841.7 372.9 L 843.1 373 L 844 375.4 L 845.6 376.7 L 847.2 376.6 L 848 377 L 848.7 378.5 L 843 384.5 L 842.7 385.2 L 843.5 386.3 L 843.8 387.6 L 842 390.7 L 841.3 390.8 L 840.6 390 L 839.6 389.5 L 838.8 389.8 L 837.8 390.1 L 834.5 391.8 L 834.5 396.2 L 835.4 398.8 L 834.9 400.6 L 833.9 403.6 L 832.8 404.8 L 832 405.5 L 829.1 409.7 L 828.2 410.7 L 827.2 412.1 L 827.5 413.4 L 827.9 414.4 L 829 415.4 L 833.2 417.7 L 835.1 419.2 L 838.4 421.1 L 839.1 422.4 L 839.6 423.4 L 842 424.6 L 843.7 425.3 L 844.2 425.1 L 844.5 424.9 L 844.9 424.9 L 845.4 425 L 845.3 425.9 L 845.1 426.4 L 845.3 427.1 L 846.5 427.9 L 848.4 427.9 L 849.5 427.7 L 850.7 428.6 L 851.8 429.2 L 853.7 430.3 L 856.8 431.7 L 859.3 432.6 L 862.2 436 L 863.5 437.2 L 863.5 437.2 L 863.5 568.9 L 737.9 568.9 Z M 850.4 424.7 L 850.5 425.7 L 850.8 426.3 L 850.2 426.9 L 849.4 426.3 L 849.3 425.6 L 848.7 425.4 L 849 424.7 L 849.3 424.5 L 849.6 423.7 L 850.4 424.7 Z M 843.7 422.9 L 844.1 423 L 843.8 424.2 L 842.9 424.3 L 842.7 424.2 L 842.5 423.6 L 842.8 423 L 843.7 422.9 Z M 847.3 423 L 847.8 422.5 L 847.9 423.7 L 847.6 424.1 L 847.3 424.2 L 847.3 423 Z M 848.6 404 L 848.8 404.1 L 848.5 404.9 L 848 405.6 L 846.2 405.3 L 844.6 405.4 L 841.9 404.8 L 840.6 404.7 L 840.2 404.4 L 841 403.9 L 841.5 403.3 L 841.3 401.6 L 841.4 399.6 L 843 398.6 L 843.7 397.6 L 844.7 397 L 845.3 397 L 845.2 397.7 L 845.5 398.8 L 846.1 399.3 L 846.7 399.3 L 847.3 398 L 847.7 398.2 L 848 398.5 L 848.2 399.1 L 847.3 400 L 846.9 400.2 L 846.5 400.7 L 845.9 402.5 L 846 403.1 L 846.5 403.7 L 847.9 404.2 L 848.6 404 Z M 838.5 396.8 L 839.1 397.4 L 839.4 398.6 L 838.8 399 L 838.5 399.2 L 837.2 398.9 L 837.2 398.4 L 837.4 398 L 837.8 397.8 L 838.5 396.8 Z M 841.8 366.4 L 842.2 366.1 L 842.1 366.7 L 840.8 367.8 L 840.2 368 L 838 369.1 L 839.3 367.7 L 841.8 366.4 Z M 759.9 369.9 L 760.2 370.4 L 760.3 371 L 758.8 371.3 L 756.2 370.4 L 753.6 371.1 L 752.9 371.1 L 752.4 370.6 L 752.8 369.1 L 753.7 369.4 L 754.6 368.8 L 754.4 367.2 L 753.9 366.3 L 755.3 364.7 L 755.9 364.3 L 756.5 364.3 L 757.1 365.5 L 757.2 366.7 L 757.8 367.9 L 758.2 369.1 L 759.4 369.4 L 759.9 369.9 Z M 772.4 365 L 773 365.4 L 773.3 365.7 L 772.3 366.7 L 772.2 367.8 L 771.1 367.8 L 769.8 369.5 L 765.1 372.6 L 760.8 370 L 758.9 368.3 L 757.7 365.9 L 757.5 363.9 L 756.9 362.6 L 757.2 362.3 L 757.4 362.1 L 757.8 362.2 L 759 363.5 L 759.6 363.9 L 760.4 364.9 L 762.3 365 L 764.5 363.9 L 765.6 364.4 L 766.1 364.3 L 767.7 363.3 L 768.8 363 L 769.5 362.3 L 770.2 363.1 L 771.9 364 L 772.4 365 Z M 845.7 360 L 846.4 359.8 L 845.9 362.3 L 843.9 364.9 L 842.9 365.8 L 842.8 365.1 L 843.3 364.6 L 844.6 362.6 L 845.1 362.1 L 845.4 361.8 L 845.7 361.1 L 845.7 360 Z M 788 359.6 L 788 361.1 L 788.5 362 L 788 363.9 L 787.7 364.1 L 786.6 361.9 L 786.9 361.2 L 786.5 360.1 L 787.2 360 L 787.8 359.2 L 788 359.6 Z" />
<path class="admin1" d="M 737.9 648.4 L 737.9 568.9 L 863.5 568.9 L 905.3 568.9 L 905.3 610.8 L 905.6 681.2 L 905.2 680.8 L 904.8 680.6 L 904.8 737.4 L 900.1 736.8 L 896.8 734.9 L 894.3 731.4 L 889.6 727.3 L 888.3 725.9 L 887.7 724.4 L 887.7 723.3 L 888.3 721.1 L 889.2 718.9 L 889.3 717.7 L 887.6 713.7 L 885 709.8 L 883.9 708.6 L 880.8 706.1 L 877.9 704.1 L 877.2 703.1 L 877 702.6 L 878.3 702.9 L 879 702.1 L 879.9 701.8 L 880.6 702.9 L 881.4 703 L 881.5 701.3 L 881.9 700.5 L 881.6 700.1 L 881.3 699.8 L 880.1 699.4 L 878.7 700 L 877.6 700.7 L 876.2 701.3 L 875.6 702 L 874.2 702 L 873.6 702.2 L 870.7 703.5 L 868.9 703.5 L 866 703.1 L 866.9 701.3 L 868.1 700.3 L 869 699.1 L 870.6 694.9 L 870.3 691.2 L 869.5 689.7 L 867.1 686.7 L 866 684.8 L 864.7 682.9 L 864 684 L 863.6 685.2 L 862.3 686.9 L 861.7 690.7 L 859.1 696.5 L 857.4 696.6 L 855.9 696.3 L 853.3 697 L 851.5 697.8 L 849.9 697.8 L 849 698.1 L 847.9 697.9 L 849.7 693.3 L 851.3 693.5 L 853 693.3 L 853.8 693.4 L 854.9 693.3 L 855.8 691.2 L 856.4 688.9 L 856 687.4 L 855.9 685.9 L 856.2 684.1 L 856.4 682.8 L 858.6 678.6 L 860.4 676.4 L 862.5 674.7 L 862.2 673 L 861.6 671 L 861.4 669.4 L 862.4 668.9 L 863.3 667.9 L 862.2 663.4 L 861.5 662.1 L 860.4 660.7 L 860.4 662.5 L 860.5 664.1 L 859 666.3 L 857 667.9 L 855.6 669.3 L 854.4 672.6 L 852.8 675.4 L 851.3 676.4 L 850 676.6 L 848.6 677.1 L 846.5 678.2 L 844.4 679.1 L 842.9 680.3 L 841.5 681 L 837.2 686.5 L 835.2 688.4 L 834.8 689.2 L 834 689.8 L 834.2 690.7 L 834.8 691.3 L 835.5 693.7 L 835.1 694.3 L 834.4 694 L 832.6 692.6 L 831.5 693.1 L 830.6 693.7 L 828.3 691.1 L 827.3 690.5 L 826.1 689.5 L 824.8 688.7 L 824.2 688.6 L 823.3 688.7 L 823.4 688 L 824 687.5 L 824.6 687.4 L 825.7 688.2 L 826.9 688.9 L 827.5 689 L 827.8 688.7 L 826.7 685.8 L 825.9 683.3 L 825.6 682.5 L 824.6 680 L 824.2 679.3 L 822.2 677.5 L 820 675.3 L 819.4 672.8 L 818.7 671.2 L 817.6 670.2 L 816.1 669.3 L 811.8 668.9 L 810 666.3 L 809 663.1 L 809.8 662.9 L 810.8 662.8 L 811.1 661.8 L 810.9 660.3 L 806.6 658.4 L 804.6 656.4 L 802.9 655.5 L 801.4 655.2 L 799.3 655.3 L 796.6 655.2 L 790.3 652 L 788.8 651.9 L 784.2 652.9 L 782.7 652.8 L 775.8 648.4 L 771.2 646.4 L 769.7 646 L 767.8 645.6 L 766.2 646.1 L 765 646.6 L 762.7 647.1 L 753.6 646.8 L 745.8 647.5 L 740.5 647.9 L 737.9 648.4 Z M 862.4 704.6 L 864.1 705.1 L 865.2 706.4 L 864.4 707.1 L 863.6 707.2 L 861.1 706.6 L 858.8 707 L 858.2 707.6 L 857.7 708.8 L 855.7 709.5 L 854.8 708.8 L 852.4 708.2 L 851.5 709 L 849.8 708.8 L 848.3 709.1 L 846.1 708.9 L 843.7 707.6 L 843.1 706.9 L 843.6 705.8 L 844.4 705 L 850.8 703.8 L 854.1 702.8 L 856.9 703 L 857.6 703.2 L 858.3 703.7 L 857.8 704.6 L 857.8 704.8 L 861.1 705.1 L 862.4 704.6 Z" />
<path class="admin1" d="M 863.5 568.9 L 863.5 437.2 L 863.5 437.2 L 864.4 438 L 866.8 439.4 L 870.5 440.4 L 872.2 440.3 L 874.9 441.4 L 877.5 441.9 L 878.9 443.5 L 879.4 444.8 L 879.5 445.7 L 880.9 447.9 L 883.5 448.7 L 887 450.9 L 889.9 451.9 L 890.6 452.5 L 891.8 453.2 L 894.3 453.2 L 898.5 452.1 L 900.4 450.9 L 902.9 449.1 L 904.1 446 L 904.8 443.6 L 908.4 438.4 L 909.4 435.9 L 910.3 432.5 L 911 430.4 L 910.8 428.1 L 911.6 423.9 L 913.4 418.2 L 914 416.2 L 913.7 413.4 L 912.6 408 L 913.1 406.2 L 913.6 403.6 L 912.8 401.8 L 912 400.5 L 911.9 398.7 L 912.7 395.3 L 913.5 393.5 L 914.3 391.2 L 913.9 386.7 L 915.5 385.2 L 916.2 384.4 L 917.5 384.4 L 918.1 384.8 L 918.3 383.9 L 917.7 383.1 L 917.5 382.1 L 917.2 381.7 L 916.4 381.5 L 915.7 381 L 914.7 380.4 L 914.9 378.5 L 916.5 374.7 L 917.4 373.2 L 918 373.9 L 918.7 374.3 L 918.8 373.3 L 918.6 372.1 L 919.8 368.4 L 921.2 363.4 L 921.6 358.9 L 923.8 358 L 924.9 356.9 L 925.6 355.5 L 926.8 355.5 L 927.7 356.1 L 927.1 357.1 L 927 357.9 L 929.3 359.8 L 930.1 361.2 L 930.5 362.6 L 930.9 363.9 L 931.1 365.7 L 931.1 368.5 L 931.4 371.1 L 932.3 371.9 L 933 372.5 L 934.1 372.5 L 935.7 372.9 L 935.3 374.6 L 934.7 376 L 934.6 376.7 L 934.7 377.8 L 935.9 378.6 L 936.7 379.1 L 937.2 380.5 L 938.8 382.5 L 938.7 383.9 L 939.6 385.5 L 940.3 388.9 L 940.6 391.8 L 941.4 393.7 L 940.9 397.9 L 941.4 399.6 L 942.2 401 L 943.1 403.8 L 943.8 406.4 L 944.7 407.1 L 946.6 407.9 L 948.6 407 L 950.1 405.7 L 951.6 405.4 L 953.8 404.7 L 955.3 406.4 L 956.2 408.4 L 959.9 410.9 L 962 412.5 L 963.6 413.4 L 965.1 414.7 L 965 415.9 L 964.6 416.8 L 965 418.3 L 965.2 420 L 964.9 422.1 L 966 425.2 L 966.3 427.7 L 967.5 430.2 L 967.4 432.7 L 967.2 433.7 L 967.1 435.1 L 967.9 436.8 L 968.8 438.1 L 970 439.5 L 971.6 441.7 L 972.8 442.1 L 973.8 442.1 L 973.7 444.3 L 975.8 448.7 L 976.8 452.2 L 976.1 457 L 975.4 459.8 L 975.5 461.1 L 978.2 464.4 L 979.7 465 L 979.4 466.6 L 979.2 469 L 980.4 470.9 L 981.8 472.4 L 983.3 473.2 L 984.7 473.9 L 986.6 474.5 L 989 474.8 L 990.3 475.9 L 990.9 476.7 L 992.9 477 L 993.8 476.9 L 994.9 476.5 L 995.6 477.1 L 996.1 477.9 L 997.2 479.9 L 999.4 482 L 1000.9 482.3 L 1001.8 483.4 L 1003 483.7 L 1004.1 483.8 L 1005.6 484.6 L 1008.1 486.4 L 1010.3 486.7 L 1011.3 487.2 L 1013.6 489.3 L 1014.4 490.3 L 1015.3 491.9 L 1014.2 492.1 L 1013.2 491.7 L 1012.5 493.3 L 1014 495.5 L 1015.7 497 L 1017.8 498.6 L 1019.8 500.9 L 1020.3 502.7 L 1020.8 503.3 L 1021.5 505.8 L 1023.3 507.2 L 1023.3 509.8 L 1024.2 513.5 L 1025.2 516.7 L 1025.9 517.7 L 1026.7 519.3 L 1027.7 519.1 L 1028.4 518.6 L 1029.8 520.1 L 1030.5 520.8 L 1030.9 520.4 L 1030.1 517.4 L 1030.6 515.7 L 1031.2 515.5 L 1031.9 515.4 L 1032.9 516.8 L 1034.1 518.3 L 1036.5 519.7 L 1038.4 520.9 L 1039 520.9 L 1038.7 519.9 L 1038.8 518.5 L 1039.6 518.2 L 1040.3 519 L 1041.5 521.2 L 1041.8 525.7 L 1041.8 529.5 L 1042.6 533.5 L 1043.9 534.5 L 1044.7 535.5 L 1046.1 536.8 L 1047 538 L 1048.1 538.6 L 1051.8 541.2 L 1052.9 541.5 L 1054.5 541.6 L 1056.4 542.7 L 1057.4 543.8 L 1059.6 547.9 L 1060.6 549.4 L 1062.7 550.8 L 1063.7 551.2 L 1065.1 552.2 L 1065.7 553.6 L 1065.8 554.5 L 1066.6 556 L 1067.9 557.8 L 1069.8 558.8 L 1071.5 561 L 1071.6 564.6 L 1072.5 566.4 L 1073.1 567.1 L 1074.5 567.9 L 1075 568.4 L 1073.9 573.2 L 1075 582.6 L 1074.4 585.6 L 1075.5 588.5 L 1078.1 593.6 L 1078.7 595.4 L 1079.1 597.5 L 1079.9 598.9 L 1078.1 600.1 L 1075.4 600.4 L 1074.4 601.7 L 1070.6 601.4 L 1069.3 601.8 L 1067.3 600.9 L 1066.7 601.3 L 1065.7 600.5 L 1064.5 601.6 L 1062.9 602.2 L 1061.8 602.9 L 1061.1 602.9 L 1058.3 604.3 L 1058.9 605.7 L 1059.7 606.7 L 1059.1 609 L 1057.9 609.7 L 1056.8 609.7 L 1056.3 610.4 L 1055.4 610 L 1055 609.2 L 1052.6 610.2 L 1052.2 611.3 L 1051.5 612 L 1050.3 612.7 L 1049.5 612.2 L 1049.1 610.5 L 1048 609.4 L 1046.5 608.7 L 1045.6 608.1 L 1045.5 607.4 L 1044.6 606.7 L 1042.8 606.1 L 1040.8 605.8 L 1037.4 605.9 L 1035.6 604.7 L 1033 604.6 L 1028.8 605.3 L 1026.4 605.4 L 1025.2 604.7 L 1024.1 604.9 L 1023.4 605.3 L 1023 606 L 1021.6 606.9 L 1019.3 608.1 L 1018.1 609 L 1017.7 609.8 L 1016.8 610.6 L 1016.6 610.8 L 905.3 610.8 L 905.3 568.9 L 863.5 568.9 Z M 1080.3 589 L 1079.1 592.8 L 1078.7 592.7 L 1078.3 592.2 L 1078.3 589.9 L 1078.8 588.5 L 1080 588.8 L 1080.3 589 Z M 1078.8 583.3 L 1079.2 583.4 L 1078.7 585.7 L 1078.9 587.3 L 1078.6 587.5 L 1078 586.2 L 1077.8 584.8 L 1078 583.6 L 1078.8 583.3 Z M 1076.7 551.3 L 1076.9 553.8 L 1077.7 554.7 L 1077.6 555.9 L 1074.7 562.1 L 1073.9 564.5 L 1073.8 565.5 L 1073.5 565.8 L 1072.8 565.1 L 1072.4 562.7 L 1072.7 561.2 L 1073.5 559.9 L 1073.6 559.2 L 1073.3 557.7 L 1075.4 556 L 1075.9 555.1 L 1076.1 553.9 L 1075.3 552.6 L 1074.7 552.4 L 1075.3 551.7 L 1075.8 551.3 L 1076.3 551.2 L 1076.7 551.3 Z M 1048 535.4 L 1048.7 536.4 L 1049 537.1 L 1048.5 537.7 L 1048.2 537.9 L 1047.4 537.4 L 1045.3 534.5 L 1045.7 533.5 L 1046.9 533.9 L 1047.3 534.3 L 1047.8 534.2 L 1048.2 534.5 L 1048 535.4 Z M 1037.7 516.1 L 1038.1 516.3 L 1038.5 517.4 L 1038.1 517.6 L 1037.7 517.7 L 1037.3 517.4 L 1037.6 516.9 L 1037.7 516.1 Z M 1029.6 513.8 L 1029.9 515.2 L 1029.9 515.8 L 1029.4 516.2 L 1029.1 515.2 L 1029.1 514.2 L 1029.6 513.8 Z M 1016.7 487.4 L 1017 488.3 L 1017.6 489.1 L 1017.5 489.3 L 1017.2 489.4 L 1016.7 489.4 L 1016.1 489.2 L 1016.7 487.4 Z M 1016 486.2 L 1016.5 485.8 L 1016.3 487.1 L 1016 487.3 L 1015.7 487.4 L 1015.3 487.2 L 1015.6 486.6 L 1016 486.2 Z M 978.9 460.5 L 979.2 461.9 L 979.8 462.9 L 979.6 463.6 L 979.2 464.1 L 978.3 463.6 L 977.7 462.4 L 976.7 461.4 L 976.4 460.8 L 977.7 460.9 L 978.3 460.7 L 978.5 460.5 L 978.9 460.5 Z M 884.3 443.2 L 885.2 443.9 L 885.3 444.7 L 883.8 444.9 L 883.3 445.2 L 883.1 444.6 L 883.8 444 L 884.3 443.2 Z M 885.6 434.9 L 885.8 435 L 887.1 436.6 L 885.2 436.8 L 884.5 437.4 L 883.4 438.6 L 882.8 438.4 L 882.3 439.1 L 881.3 439.4 L 880.7 439.4 L 879.6 439.7 L 879.4 439.4 L 879.7 438.1 L 880.6 436.8 L 881.5 435.9 L 883.8 435.5 L 885.6 434.9 Z M 921.1 354.6 L 922 353.9 L 923.1 355.5 L 921.9 356.3 L 921.2 355.9 L 921 355 L 921.1 354.6 Z M 922.3 347.8 L 923.4 347.6 L 924 348.4 L 923.1 349.2 L 922.3 349 L 922 348.5 L 922.3 347.8 Z M 921.3 346.4 L 921.9 346.9 L 921.6 347.8 L 921.2 348.2 L 920.6 347.4 L 921.3 346.4 Z" />
<path class="admin1" d="M 993.4 810.1 L 993.8 811 L 994 811.7 L 993.3 813.1 L 992.2 812.9 L 991.2 813.1 L 990.5 812.2 L 990.5 811.9 L 991.3 812.1 L 991.6 811.8 L 991.8 811.4 L 992.1 811.3 L 992.3 810.8 L 993 810 L 993.4 810.1 Z M 993.9 807.3 L 994.6 807.8 L 995.1 809.5 L 994.2 809.5 L 993.9 809.4 L 993.7 808.7 L 993.1 808.4 L 993.5 808.2 L 993.6 807.7 L 993.9 807.3 Z M 1004 800.5 L 1005 800.8 L 1005.3 801.3 L 1004.4 801.7 L 1004.4 802.1 L 1003.6 802.2 L 1003.4 802.2 L 1003.4 801.4 L 1003.3 801.1 L 1004 800.5 Z M 1007.7 793.7 L 1007.6 794.4 L 1007.7 795.2 L 1007.6 795.8 L 1007 795.8 L 1006.8 795.3 L 1006.9 794.6 L 1006.8 794.1 L 1006.5 793.6 L 1005.5 793.1 L 1005.8 792.8 L 1006.3 792.5 L 1005.9 791.8 L 1005.3 792.4 L 1004.9 793.2 L 1005.1 793.4 L 1004.7 793.6 L 1003.9 794.6 L 1003.3 795.8 L 1003 797 L 1003.1 798.3 L 1002.6 799.3 L 1001.9 800.2 L 1001.7 801.4 L 1001.8 803.6 L 1002.4 805.6 L 1002.7 808.3 L 1002.2 808.7 L 1000.7 808.9 L 1000 809.2 L 998.8 807.9 L 998.1 806.4 L 998.6 805.9 L 999.8 806.2 L 1000.2 805.9 L 1000.3 805.5 L 1000.2 805.1 L 998.7 804.4 L 997 804 L 996.5 804.4 L 996.7 805.8 L 996.5 806.1 L 995.3 806.6 L 994.7 804.7 L 993.2 803.2 L 993.2 803.9 L 993.9 805.1 L 993.8 805.6 L 993.5 806.3 L 992.9 806.6 L 992.6 807.1 L 992.6 807.9 L 992.4 809.2 L 991.4 809.7 L 989 808.3 L 988.8 808.8 L 988.8 809.2 L 990.1 810 L 989.5 810.6 L 989.1 811.3 L 988.4 813.2 L 987.3 814.7 L 986.7 814.8 L 984.8 814.5 L 982.7 813.2 L 980.8 813.4 L 977.7 813.3 L 975.7 813.8 L 975.2 812.4 L 974.8 811.8 L 975 811.4 L 976.6 811.1 L 978.2 811.1 L 978 810.6 L 977.5 810.4 L 976.8 810.5 L 974.7 810 L 973.3 810.2 L 972.3 809.6 L 970.6 807.2 L 969.6 806.1 L 969 805.7 L 968.3 805.5 L 967.9 805.1 L 964.8 799.8 L 964.4 798.5 L 963.9 795.4 L 966.3 796.9 L 967.2 797.9 L 967.6 799.1 L 968.5 797.6 L 968.3 797.1 L 966.1 795.4 L 965.8 794.9 L 965.7 794.2 L 965.2 794.9 L 964.4 794.9 L 964.7 793.7 L 964.4 792.5 L 961.9 789.8 L 959.9 787.2 L 958 784.1 L 957.8 783.7 L 957.8 783 L 956.9 780.9 L 956.4 779.3 L 956.2 778 L 957.1 775.2 L 957.2 773.7 L 958.6 774.4 L 961.7 775.3 L 963.3 775.3 L 964.2 775 L 965.1 775 L 966 775.8 L 967.1 776.3 L 967.9 776.2 L 968.6 776.3 L 969.1 776.9 L 970.7 777.4 L 971.3 777.7 L 971.9 778.2 L 972.6 778.6 L 976.6 779.9 L 979.5 780.5 L 983.1 780.2 L 984.1 779.9 L 985.2 779.3 L 986 779.8 L 986.9 780.6 L 986.7 779.8 L 987 779.1 L 987.9 778.5 L 988.9 778.1 L 990.5 778.2 L 992.1 778 L 992.8 777.7 L 993.5 777.6 L 994.4 778 L 995.4 778.3 L 996 777.7 L 997.1 776.5 L 997.7 776.1 L 1000.4 776.4 L 1001.2 776.5 L 1002.5 775.2 L 1003.4 775.2 L 1006 776.2 L 1007.1 777.5 L 1006.9 779.8 L 1007 780.7 L 1007.2 781.5 L 1007.3 783.1 L 1007 784.7 L 1007 786 L 1007.1 787.3 L 1007 789.6 L 1007.4 791.2 L 1007.2 792.2 L 1007.2 792.7 L 1007.5 793.2 L 1007.7 793.7 Z M 1006 771.3 L 1006.3 771.5 L 1005.6 772.6 L 1004.7 771.9 L 1004.6 771.6 L 1005.7 771.3 L 1006 771.3 Z M 958.1 770.4 L 958.2 770.4 L 958.1 771.4 L 957.6 772.5 L 957.1 771.1 L 957.6 770.8 L 958.1 770.4 Z M 1008.8 769.4 L 1009.6 770.3 L 1008.6 771.1 L 1007.9 771.2 L 1007.4 770.3 L 1006 770.7 L 1004.4 770.6 L 1003.2 769.9 L 1003.1 769.6 L 1003.8 769.3 L 1005.7 769.3 L 1007.5 768.6 L 1008.8 769.4 Z M 1006.5 765.7 L 1007.5 766.3 L 1007.3 766.7 L 1007.1 766.7 L 1005.9 767.5 L 1004.4 767.9 L 1004 767.6 L 1003.6 767.3 L 1003.3 766.7 L 1001.4 764.5 L 1001.7 763.9 L 1001.2 763 L 1000.3 763 L 999.7 762.5 L 1000.7 761.9 L 1002 760.5 L 1003 760.9 L 1005.5 763.4 L 1006.7 763.8 L 1007.1 764.1 L 1007 765.2 L 1006.5 765.7 Z M 948.8 761.3 L 948.6 762.5 L 949.1 763.6 L 948.7 764.6 L 947.6 765.4 L 946.1 765.9 L 945.7 766 L 945.4 765.2 L 945.6 764.1 L 944.9 762.9 L 945.3 761.8 L 945.2 760.6 L 945.5 760.1 L 946.3 759.5 L 946.4 758.5 L 947.2 758.4 L 948.4 759.2 L 948.8 761.3 Z" />
<path class="admin1" d="M 904.8 737.4 L 904.8 680.6 L 905.2 680.8 L 905.6 681.2 L 906.6 681.5 L 908 681.6 L 909.7 682.1 L 911.8 683.1 L 913.5 683.2 L 914.6 682.5 L 915.9 682.1 L 918.2 682.2 L 921.4 683 L 922.8 683.7 L 923.3 684.6 L 923.8 685.1 L 924.5 685.2 L 924.7 686 L 924.7 687.3 L 925.2 688.8 L 926.3 690.5 L 927.2 691.4 L 927.9 691.5 L 928.5 690.9 L 929.1 689.6 L 929.6 688.9 L 930 688.8 L 930.6 689 L 931.2 689.7 L 932.7 690.2 L 936.3 690.8 L 937.7 691.6 L 938.2 692.9 L 938.3 695 L 938.5 696.3 L 938.8 696.9 L 939.6 697.4 L 940.7 697.8 L 941.3 698.4 L 941.4 699.1 L 943.2 700.3 L 946.7 701.9 L 949.4 703.4 L 951.2 704.7 L 952.4 706 L 953.1 707.1 L 954.5 708.4 L 956.5 709.7 L 958.3 710.2 L 959.9 710 L 960.6 709.5 L 960.3 708.9 L 960.3 708.2 L 960.6 707.4 L 961.2 706.9 L 962.3 706.5 L 964.2 706.3 L 967.1 706.2 L 969.3 706.6 L 970.8 707.5 L 972.5 708.2 L 975.6 708.7 L 978.1 709.3 L 979.6 709.2 L 980.7 708.9 L 981.6 708.4 L 983.3 708.5 L 985.5 709.3 L 987.6 709.9 L 989.7 709.9 L 990.4 709.2 L 991.2 709 L 992.8 709.2 L 993.5 709.4 L 993.9 709.2 L 994.2 708.5 L 994.7 708.1 L 995.4 707.8 L 996 707.9 L 996.5 708.2 L 997.3 708.2 L 998.4 707.8 L 999.7 707.9 L 1002 708.7 L 1002.6 709.1 L 1003.4 711 L 1005 716.1 L 1005.7 717.2 L 1005.2 718.7 L 1004.8 719.3 L 1006 719.7 L 1030.1 729.4 L 1029.9 729.8 L 1028.2 730.1 L 1026.8 731 L 1024.8 732.6 L 1023.6 733.2 L 1021.1 733.6 L 1016.1 733.4 L 1006.6 734 L 1004.8 734.4 L 1001.2 735.5 L 997.8 737.2 L 994.5 739.4 L 987 745.6 L 981.1 746.3 L 980 746.3 L 979.1 746.1 L 978.1 746.5 L 978.1 747.3 L 979 748.1 L 979.8 748.9 L 981 747.8 L 981.6 748.1 L 981.8 750 L 981.8 751.2 L 981.4 751.9 L 980.6 752.4 L 979.8 752.1 L 979.7 751.4 L 978.6 749.8 L 977.3 748.5 L 976 748 L 975.3 748.5 L 974.2 749 L 973.2 747.2 L 972.1 745.7 L 970.8 745.5 L 969.6 745.5 L 968.6 744.9 L 966.6 743.8 L 967 743 L 967.6 742.2 L 968.7 741.9 L 968.3 740.7 L 967.7 739.8 L 966.2 739.5 L 965.2 739.7 L 964.6 740.4 L 963.8 741.7 L 960.5 743.4 L 959 742.5 L 957.2 741.1 L 958 741.2 L 959.9 741.2 L 961.4 740 L 962 739.2 L 962.8 737.7 L 961.8 736.5 L 960.9 735.7 L 959.6 735 L 954.7 737.5 L 953.6 737.8 L 952.7 738.3 L 954.4 738.7 L 955.4 738.6 L 956.4 739.3 L 954.7 740.3 L 953.4 740.6 L 951.7 741.2 L 948.6 742.8 L 944.5 746.1 L 942.8 747.1 L 940.7 747.8 L 937.9 747 L 936.4 746.7 L 934.4 745.4 L 931 744.5 L 927.8 742.7 L 925.6 741.8 L 924.1 741.6 L 921.9 742 L 918.2 740.3 L 915.4 740.2 L 913.6 741.8 L 912.2 741.7 L 911.2 741.4 L 908.3 738.8 L 905.4 737.5 L 904.8 737.4 Z M 965.5 743.2 L 966 743.9 L 966.1 744.1 L 964.9 743.6 L 962.9 743.7 L 964.1 742.8 L 965.1 743 L 965.5 743.2 Z M 967.1 740.8 L 967.9 741.3 L 965.8 742.3 L 965 741.8 L 965.1 741.1 L 965.2 740.8 L 967.1 740.8 Z" />
<path class="admin1" d="M 1022.6 699.1 L 1022.1 699.5 L 1020.8 699.4 L 1019.5 699.9 L 1018.9 700.7 L 1019 701.6 L 1018.7 702.7 L 1018.1 703 L 1018.4 706.1 L 1017.6 707.3 L 1016.2 706.9 L 1015.5 706 L 1015.4 704.9 L 1014.8 705 L 1014 704.4 L 1013.8 703.4 L 1013.7 701.4 L 1014.5 698.9 L 1018.4 696.6 L 1019.6 697 L 1019.6 697.6 L 1020.5 698.3 L 1022.6 699.1 Z" />
<path class="admin1" d="M 1039.4 697.2 L 1039.7 696.6 L 1040.7 696.2 L 1040.7 696.2 L 1040.9 696.4 L 1040.8 696.7 L 1040.5 697 L 1039.7 697 L 1039.4 697.2 Z" />
<path class="admin1" d="M 905.6 681.2 L 905.3 610.8 L 1016.6 610.8 L 1016.8 610.6 L 1017.7 609.8 L 1018.1 609 L 1019.3 608.1 L 1021.6 606.9 L 1023 606 L 1023.4 605.3 L 1024.1 604.9 L 1025.2 604.7 L 1026.4 605.4 L 1028.8 605.3 L 1033 604.6 L 1035.6 604.7 L 1037.4 605.9 L 1040.8 605.8 L 1042.8 606.1 L 1044.6 606.7 L 1045.5 607.4 L 1045.6 608.1 L 1046.5 608.7 L 1048 609.4 L 1049.1 610.5 L 1049.5 612.2 L 1050.3 612.7 L 1051.5 612 L 1052.2 611.3 L 1052.6 610.2 L 1055 609.2 L 1055.4 610 L 1056.3 610.4 L 1056.8 609.7 L 1057.9 609.7 L 1059.1 609 L 1059.7 606.7 L 1058.9 605.7 L 1058.3 604.3 L 1061.1 602.9 L 1061.8 602.9 L 1062.9 602.2 L 1064.5 601.6 L 1065.7 600.5 L 1066.7 601.3 L 1067.3 600.9 L 1069.3 601.8 L 1070.6 601.4 L 1074.4 601.7 L 1075.4 600.4 L 1078.1 600.1 L 1079.9 598.9 L 1080.8 600.2 L 1080.7 604.3 L 1081.3 606.2 L 1081.2 608.8 L 1079.2 611.5 L 1077.6 614.8 L 1077.6 617.7 L 1076.5 623.2 L 1075.9 624.7 L 1075.4 627 L 1073.2 632.6 L 1073.1 634.8 L 1073.4 637.4 L 1073 639.9 L 1072.5 641.6 L 1072 644.8 L 1069.7 649.7 L 1066.6 653.3 L 1066.4 656 L 1066 657.3 L 1065.3 658.8 L 1063.4 660.4 L 1062.2 661.1 L 1061.8 662.1 L 1060.7 662.1 L 1060.7 662.4 L 1061.4 662.7 L 1061.1 663.2 L 1058.1 664.1 L 1056.2 665.2 L 1054.2 668 L 1053.3 669.4 L 1052.2 670.8 L 1051.6 671.5 L 1051.3 672.2 L 1050.9 673.9 L 1049.8 674.2 L 1048.9 674.7 L 1049.3 676.4 L 1048.9 678.3 L 1048.7 679.5 L 1048.2 680.4 L 1047.6 680.1 L 1047.2 680.2 L 1046.6 680.6 L 1047.5 680.8 L 1048.1 681 L 1046.1 682.8 L 1044.3 684.7 L 1043.8 686 L 1043 687.5 L 1042.3 691 L 1041.8 693 L 1042.2 694.4 L 1042.1 694.7 L 1041.7 694.8 L 1041.4 694.6 L 1040.6 695.1 L 1040.4 695.6 L 1040.7 696.2 L 1040.7 696.2 L 1039.7 696.6 L 1039.4 697.2 L 1038.8 697.5 L 1036.1 702.7 L 1034.9 704 L 1033.6 706.1 L 1033.1 708.1 L 1032.7 710.2 L 1032.2 713.7 L 1031.8 716.1 L 1030.7 718.6 L 1030.3 720.3 L 1030.2 723.5 L 1030.7 726 L 1030.4 727.3 L 1030.3 728.6 L 1030.1 729.4 L 1006 719.7 L 1004.8 719.3 L 1005.2 718.7 L 1005.7 717.2 L 1005 716.1 L 1003.4 711 L 1002.6 709.1 L 1002 708.7 L 999.7 707.9 L 998.4 707.8 L 997.3 708.2 L 996.5 708.2 L 996 707.9 L 995.4 707.8 L 994.7 708.1 L 994.2 708.5 L 993.9 709.2 L 993.5 709.4 L 992.8 709.2 L 991.2 709 L 990.4 709.2 L 989.7 709.9 L 987.6 709.9 L 985.5 709.3 L 983.3 708.5 L 981.6 708.4 L 980.7 708.9 L 979.6 709.2 L 978.1 709.3 L 975.6 708.7 L 972.5 708.2 L 970.8 707.5 L 969.3 706.6 L 967.1 706.2 L 964.2 706.3 L 962.3 706.5 L 961.2 706.9 L 960.6 707.4 L 960.3 708.2 L 960.3 708.9 L 960.6 709.5 L 959.9 710 L 958.3 710.2 L 956.5 709.7 L 954.5 708.4 L 953.1 707.1 L 952.4 706 L 951.2 704.7 L 949.4 703.4 L 946.7 701.9 L 943.2 700.3 L 941.4 699.1 L 941.3 698.4 L 940.7 697.8 L 939.6 697.4 L 938.8 696.9 L 938.5 696.3 L 938.3 695 L 938.2 692.9 L 937.7 691.6 L 936.3 690.8 L 932.7 690.2 L 931.2 689.7 L 930.6 689 L 930 688.8 L 929.6 688.9 L 929.1 689.6 L 928.5 690.9 L 927.9 691.5 L 927.2 691.4 L 926.3 690.5 L 925.2 688.8 L 924.7 687.3 L 924.7 686 L 924.5 685.2 L 923.8 685.1 L 923.3 684.6 L 922.8 683.7 L 921.4 683 L 918.2 682.2 L 915.9 682.1 L 914.6 682.5 L 913.5 683.2 L 911.8 683.1 L 909.7 682.1 L 908 681.6 L 906.6 681.5 L 905.6 681.2 Z M 1022.6 699.1 L 1020.5 698.3 L 1019.6 697.6 L 1019.6 697 L 1018.4 696.6 L 1014.5 698.9 L 1013.7 701.4 L 1013.8 703.4 L 1014 704.4 L 1014.8 705 L 1015.4 704.9 L 1015.5 706 L 1016.2 706.9 L 1017.6 707.3 L 1018.4 706.1 L 1018.1 703 L 1018.7 702.7 L 1019 701.6 L 1018.9 700.7 L 1019.5 699.9 L 1020.8 699.4 L 1022.1 699.5 L 1022.6 699.1 Z" />

<g class="city"><circle cx="428.461504650901" cy="292.2686204755501" r="5" /><text x="440.461504650901" y="296.2686204755501">Jakarta</text></g>
<g class="city"><circle cx="386.9688526300304" cy="188.07082169181234" r="5" /><text x="398.9688526300304" y="192.07082169181234">Singapore</text></g>
<g class="city"><circle cx="1047.7926705457871" cy="678.7679109199967" r="5" /><text x="1059.7926705457871" y="682.7679109199967">Sydney</text></g>
<g class="city"><circle cx="960.7295116232099" cy="733.8387519648408" r="5" /><text x="972.7295116232099" y="737.8387519648408">Melbourne</text></g>
<g class="city"><circle cx="511.0862617104425" cy="307.2661972514994" r="5" /><text x="523.0862617104425" y="311.2661972514994">Surabaya</text></g>
<g class="city"><circle cx="337.7893037856021" cy="130.60106436821408" r="5" /><text x="349.7893037856021" y="134.60106436821408">George Town</text></g>
<g class="city"><circle cx="438.79518944297615" cy="303.09118347763126" r="5" /><text x="450.79518944297615" y="307.09118347763126">Bandung</text></g>
<g class="city"><circle cx="314.3294846381674" cy="156.15976956059913" r="5" /><text x="326.3294846381674" y="160.15976956059913">Medan</text></g>
<text class="map-title" x="80" y="105">Australia Political Study Map</text>
<text class="map-subtitle" x="80" y="145">Capital: Canberra | Continent: Oceania</text>
  <text class="footer" x="80" y="1036">Made with Natural Earth. Free vector and raster map data @ naturalearthdata.com.</text>
</svg>
