<?xml version="1.0" encoding="UTF-8"?>
<svg xmlns="http://www.w3.org/2000/svg" width="1600" height="1100" viewBox="0 0 1600 1100" role="img" aria-labelledby="title desc">
  <title id="title">Australia Physical Study Map</title>
  <desc id="desc">Made with Natural Earth. Free vector and raster map data @ naturalearthdata.com.</desc>
  <defs>
    <linearGradient id="terrain" x1="0" x2="1" y1="0" y2="1">
      <stop offset="0%" stop-color="#6c8c53" />
      <stop offset="42%" stop-color="#d5c487" />
      <stop offset="72%" stop-color="#b88b5f" />
      <stop offset="100%" stop-color="#f1f5ee" />
    </linearGradient>
    <filter id="softShadow" x="-10%" y="-10%" width="120%" height="120%">
      <feDropShadow dx="0" dy="10" stdDeviation="12" flood-color="#0f172a" flood-opacity="0.16" />
    </filter>
    <style>
      .neighbor { fill: #ffffff; stroke: #94a3b8; stroke-width: 1.2; opacity: 0.72; }
      .country { fill: url(#terrain); stroke: #1f2937; stroke-width: 4; filter: url(#softShadow); }
      .admin1 { fill: none; stroke: #64748b; stroke-width: 1.1; stroke-dasharray: 6 7; opacity: 0.75; }
      .river { fill: none; stroke: #1d9bd1; stroke-width: 3; stroke-linecap: round; opacity: 0.88; }
      .lake { fill: #8ed1ea; stroke: #0ea5e9; stroke-width: 1.5; opacity: 0.8; }
      .city circle { fill: #ef4444; stroke: #ffffff; stroke-width: 2; }
      .city text, .terrain-label { fill: #172033; font: 700 24px system-ui, sans-serif; paint-order: stroke; stroke: #ffffff; stroke-width: 5; stroke-linejoin: round; }
      .map-title { fill: #0f172a; font: 800 46px system-ui, sans-serif; }
      .map-subtitle { fill: #475569; font: 600 24px system-ui, sans-serif; }
      .footer { fill: #64748b; font: 500 18px system-ui, sans-serif; }
    </style>
  </defs>
  <rect width="100%" height="100%" fill="#d8edf0" />
  <rect x="40" y="40" width="1520" height="1020" rx="32" fill="#ffffff" opacity="0.54" />
  <path class="neighbor" d="M 1449.5 430.3 L 1449.5 437.1 L 1440.6 440.6 L 1431.7 443.5 L 1429.9 438.3 L 1436.9 435.5 L 1441.3 434.7 L 1449.5 430.3 Z M 1423.3 450.4 L 1426.8 448.1 L 1431.6 452.1 L 1429.3 459.4 L 1420.6 461.3 L 1412.9 459.6 L 1411.6 453.5 L 1417 448.7 L 1423.3 450.4 Z M -3570.9 429.7 L -3572.7 436.4 L -3573.8 437.1 L -3573.8 430.3 L -3570.9 429.7 Z" />
<path class="neighbor" d="M 905.3 242.4 L 929.5 252 L 955.3 260 L 964.9 267.2 L 972.7 274.2 L 974.8 282.4 L 998.1 291 L 1001.4 298.4 L 988.6 299.9 L 991.7 309.2 L 1004.1 318.4 L 1013.2 333.2 L 1021.2 332.7 L 1020.6 338.9 L 1031.4 341.3 L 1027.2 343.9 L 1042.1 349.8 L 1040.5 353.8 L 1031.3 354.8 L 1027.8 351.2 L 1015.8 349.6 L 1001.8 347.5 L 990.9 338.6 L 983 330.9 L 975.7 318.7 L 957.5 312.6 L 945.7 316.6 L 937.2 321.2 L 939 331.5 L 928 336.3 L 920.2 333.9 L 905.8 333.4 L 905.5 287.9 L 905.3 242.4 Z M 1067.7 257.2 L 1073 261.7 L 1074.7 268.9 L 1070.3 272.6 L 1067.7 264.4 L 1064.4 259 L 1058.1 254.4 L 1050.2 248.5 L 1040.1 244.4 L 1044 241 L 1051.5 244.9 L 1056.3 248 L 1062.1 251.4 L 1067.7 257.2 Z M 1049 287.6 L 1041.4 291 L 1034.2 294.3 L 1026.8 294.3 L 1015.4 290.2 L 1007.4 286.3 L 1008.6 282 L 1021.1 284.1 L 1028.7 283 L 1030.8 276.3 L 1032.8 275.9 L 1034.2 283.3 L 1042.1 282.3 L 1046.1 277.5 L 1053.9 272.5 L 1052.3 264.3 L 1060.7 264 L 1063.5 266.3 L 1063.2 274.1 L 1058.5 282.6 L 1051.2 283.7 L 1049 287.6 Z M 1097.3 280.7 L 1101.5 283.8 L 1108.3 292.7 L 1114.9 297.4 L 1112.9 301.3 L 1109 302.7 L 1103 297.3 L 1096.9 288.5 L 1093.9 277.8 L 1095.8 276.5 L 1097.3 280.7 Z" />
<path class="neighbor" d="M 905.3 242.4 L 905.5 287.9 L 905.8 333.4 L 893.3 321.9 L 879.2 319.1 L 875.7 323.1 L 858.1 323.5 L 864 312.2 L 872.8 308.3 L 869.1 293.1 L 862.4 281.4 L 835.4 269.6 L 823.9 268.4 L 802.9 255.5 L 798.8 262.3 L 793.4 263.5 L 790.3 258.4 L 790.2 252.4 L 779.6 245.5 L 794.6 240.5 L 804.5 240.7 L 803.4 237 L 783 237 L 777.4 228.7 L 765 226.1 L 759.1 219.2 L 777.9 215.8 L 785 211.3 L 807.4 217 L 809.6 222.2 L 813.5 244.8 L 828 253.1 L 839.6 238.3 L 855.6 229.9 L 868 229.9 L 880 234.8 L 890.3 239.8 L 905.3 242.4 Z M 681.6 330.2 L 683 333 L 683.3 337.2 L 674.2 347.6 L 662.2 350.7 L 660.5 349 L 661.8 344.3 L 667.8 335.8 L 681.6 330.2 Z M 810.5 302.4 L 809.2 291.8 L 811.7 286.8 L 814.6 282.1 L 817.8 286.2 L 817.7 292.9 L 810.5 302.4 Z M 582.7 148.4 L 574.8 161 L 585 174.2 L 582.6 180.6 L 598.3 193.6 L 581.7 195.2 L 577.1 204.7 L 577.7 217.4 L 564.3 226.9 L 563.9 240.8 L 558.5 262.1 L 556.5 257.2 L 540.6 263.4 L 535.1 254.9 L 525.1 254.1 L 518.2 249.7 L 501.6 254.7 L 496.5 247.9 L 487.4 248.7 L 475.9 247.1 L 473.7 228.4 L 466.8 224.5 L 460.1 212.6 L 458.1 200.3 L 459.7 187.4 L 468 178.1 L 470.4 187.5 L 479.9 195.4 L 488.9 192.5 L 497.8 193.5 L 505.9 186.5 L 512.6 185.2 L 525.8 189.2 L 537.2 186.2 L 544.4 166.8 L 549.7 161.9 L 554.6 146 L 570.6 146.1 L 582.7 148.4 Z M 743 245.2 L 758.4 249.3 L 763.5 260 L 751.7 254.2 L 740 253.1 L 732.1 254 L 722.5 253.5 L 725.8 245.8 L 743 245.2 Z M 708.2 259 L 698.6 256.5 L 695.8 250.5 L 709.9 249.8 L 713.4 254.4 L 708.2 259 Z M 723 175.8 L 724 183.4 L 732.2 184.6 L 733.5 190.3 L 732.8 202.5 L 725.6 201.2 L 723.4 209.7 L 729.2 217 L 725.3 218.7 L 719.7 209.9 L 715.5 192 L 718.3 180.9 L 723 175.8 Z M 653.1 193.9 L 669.2 193.3 L 683 183.2 L 685.4 186.3 L 674.2 200.2 L 663.7 202.9 L 650.3 200.1 L 627 200.8 L 614.8 202.8 L 612.8 213.4 L 625.3 225.8 L 632.9 219.5 L 658.9 214.7 L 657.7 221.2 L 651.7 219.1 L 645.6 227.3 L 633.3 232.7 L 646.5 250.6 L 644 255.4 L 656.5 271.5 L 656.4 280.7 L 648.9 284.8 L 643.5 279.9 L 650.2 268.4 L 636.5 273.8 L 633 270 L 634.9 264.6 L 624.8 256.4 L 625.8 242.8 L 616.5 247 L 617.7 263.3 L 618.3 283.3 L 609.4 285.3 L 603.4 281.2 L 607.4 268.4 L 605.3 254.9 L 599.4 254.8 L 595.1 245.2 L 600.8 236.1 L 602.8 225 L 609.8 204 L 612.8 198.2 L 624.6 187.9 L 635.5 192 L 653.1 193.9 Z M 616.4 349.3 L 597.9 339.5 L 610.9 336.8 L 618.2 341 L 623.1 345.3 L 622.3 349 L 616.4 349.3 Z M 631 325.3 L 640.3 324.2 L 652.8 319.1 L 650.7 326.8 L 629.8 330.8 L 611.2 329.1 L 611.2 324 L 622.2 321.1 L 631 325.3 Z M 588 322.8 L 596.6 321.7 L 600.1 327.6 L 583.9 330.4 L 574.3 332.3 L 566.8 332.2 L 571.6 324.1 L 579.2 324 L 583 319.1 L 588 322.8 Z M 451.6 295.8 L 453.5 300.7 L 480.3 302.1 L 483.3 296.4 L 509.2 303.1 L 514.3 312.1 L 535.2 314.7 L 552.3 322.9 L 536.4 328.3 L 521.1 322.6 L 508.4 323 L 494 322 L 480.9 319.5 L 464.7 314.2 L 454.5 312.8 L 448.7 314.5 L 423.3 308.8 L 420.8 302.8 L 408.1 301.7 L 417.6 288.4 L 434.6 289.2 L 445.8 294.7 L 451.6 295.8 Z M 394.2 221.3 L 396.5 231 L 401.4 238.8 L 411.6 240 L 418.4 248.9 L 414.9 266.2 L 414.4 287.8 L 398.9 288.1 L 387.2 276.4 L 369.3 265 L 363.3 256.6 L 352.7 245.2 L 345.8 234.7 L 335.2 215.2 L 322.9 203.6 L 318.8 191.6 L 313.7 180.7 L 301.1 171.9 L 293.8 160 L 283.3 152.2 L 268.7 136.8 L 267.5 129.7 L 276.5 130.2 L 298.1 132.9 L 310.4 146.6 L 321.2 156 L 328.9 161.8 L 342.1 176.8 L 356.3 177.1 L 368.1 186.6 L 376.1 198.3 L 386.8 204.7 L 381.2 216.1 L 389.2 220.9 L 394.2 221.3 Z" />
<path class="neighbor" d="M 681.6 330.2 L 683.2 326.9 L 695.2 323.8 L 705 323.3 L 709.3 321.6 L 714.6 323.3 L 709.5 327.1 L 695 333.2 L 683.3 337.2 L 683 333 L 681.6 330.2 Z" />
<path class="neighbor" d="M 1271.1 427.9 L 1279.9 435.9 L 1275.3 437.7 L 1270.6 431.6 L 1271.1 427.9 Z M 1265.2 424.8 L 1263.2 420.9 L 1262.9 410.2 L 1269.6 414.5 L 1271.9 425.8 L 1268.1 424 L 1265.2 424.8 Z" />
<path class="neighbor" d="M 406 7 L 392.9 5 L 374.9 7.6 L 366 19.2 L 369.3 36.1 L 356.7 29.7 L 344.8 29.9 L 346.8 19 L 334.6 19.1 L 333.5 34.4 L 325.9 54.8 L 321.4 67.1 L 322.3 77.2 L 331.4 77.7 L 337.1 90.4 L 339.6 102.5 L 347.4 110.5 L 355.8 112.1 L 363.1 119.3 L 358.5 125.1 L 349.3 126.7 L 348.2 119.6 L 336.8 113.4 L 334.4 115.9 L 328.9 110.6 L 326.5 103.7 L 319.1 95.8 L 312.3 89.2 L 310 97.4 L 307.4 89.6 L 308.9 80.9 L 313 67.5 L 319.8 53.2 L 327.4 40.2 L 322 27.5 L 322.2 21 L 320.6 13.2 L 311.3 2.1 L 308 -4.9 L 312.8 -7.5 L 317.9 -19.6 L 312.2 -28.8 L 303.3 -39 L 296.6 -51.2 L 302.5 -53.8 L 308.8 -68.9 L 318.7 -69.5 L 326.8 -75.5 L 334.8 -78.8 L 340.9 -74.5 L 341.7 -66.1 L 351.1 -65.4 L 347.6 -50.7 L 348 -38.2 L 362.7 -46.5 L 366.9 -44.1 L 375 -44.5 L 377.8 -49.3 L 388.4 -48.4 L 399 -37.1 L 399.9 -23.3 L 411.2 -11.1 L 410.6 0.7 L 406 7 Z" />
<path class="neighbor" d="M 1251.1 500.3 L 1262.5 508.9 L 1269.8 515.4 L 1264.5 518.7 L 1256.8 514.9 L 1246.8 508.6 L 1237.8 501.3 L 1228.6 491.4 L 1226.6 486.7 L 1232.6 486.9 L 1240.5 491.6 L 1246.6 496.4 L 1251.1 500.3 Z" />
<path class="neighbor" d="M 1200 352.4 L 1203.9 357.2 L 1194.1 357.1 L 1188.8 348.5 L 1197.2 351.9 L 1200 352.4 Z M 1193.9 340.1 L 1191.7 342.7 L 1181.4 330.6 L 1178.5 322.2 L 1183.2 322.2 L 1188.3 333.4 L 1193.9 340.1 Z M 1182.3 343.9 L 1176.9 344.2 L 1168.3 342.8 L 1165.4 340.7 L 1166.3 335.1 L 1175.5 337.3 L 1180 340.2 L 1182.3 343.9 Z M 1165.4 318 L 1168.7 322.5 L 1169.3 325.3 L 1158.3 319.4 L 1150.7 314.3 L 1145.4 309.7 L 1147.5 308.3 L 1153.9 311.6 L 1165.4 318 Z M 1130.5 304.1 L 1136.1 308.7 L 1133.3 309.5 L 1127.2 306.3 L 1121.5 300.5 L 1122.2 298.2 L 1130.5 304.1 Z" />
<path class="neighbor" d="M 1406 765.2 L 1400.8 772.7 L 1393.8 782.3 L 1383.1 787.8 L 1380.7 784.2 L 1374.8 782.2 L 1382.9 770.7 L 1378.3 763 L 1363.3 757.4 L 1363.7 752.4 L 1373.8 747.5 L 1376.1 736.8 L 1375.5 727.7 L 1369.8 718.4 L 1370.2 715.9 L 1363.5 710.2 L 1352.6 697.8 L 1346.7 687.9 L 1351.9 686.9 L 1359.5 694.6 L 1370.4 698.2 L 1374.3 710.7 L 1384.4 725.3 L 1384.7 715.8 L 1391 719.6 L 1393.1 730.2 L 1404.3 734.7 L 1413.7 735.8 L 1421.7 730.5 L 1428.8 732.1 L 1425.4 744.5 L 1421.2 752.7 L 1410.5 752.4 L 1406.8 756.6 L 1408.1 762.6 L 1406 765.2 Z M 1305.3 813.9 L 1317.3 806.6 L 1325.6 799.3 L 1331.8 788.9 L 1337.1 785.4 L 1339.2 777.6 L 1349 771.2 L 1352.1 777.1 L 1355.3 782.9 L 1365.2 777.2 L 1369.2 783.1 L 1369.2 789 L 1364 795.4 L 1354.9 805.7 L 1347.8 811.3 L 1352.9 818.1 L 1342.2 818.2 L 1330.2 823.5 L 1326.5 832.6 L 1318.6 846.7 L 1307.6 853 L 1300.6 857 L 1287.8 856.7 L 1278.7 852.1 L 1263.6 851.1 L 1261.2 846 L 1268.7 835.6 L 1286.3 821.8 L 1295.3 819.2 L 1305.3 813.9 Z" />
<path class="neighbor" d="M 623.9 28.9 L 616.8 18.2 L 628.7 18.7 L 633.6 23.8 L 629.9 35.8 L 623.9 28.9 Z M 648.4 66.9 L 651.9 63 L 653.4 54.3 L 661.1 53.5 L 658.8 62.9 L 669.2 49.4 L 667.8 62.7 L 662.8 67.3 L 658.5 76.1 L 654.1 80.2 L 645.5 70.6 L 648.4 66.9 Z M 701.2 88.7 L 702.7 98 L 703.5 105.8 L 698.7 118.6 L 693.6 104.4 L 687.1 111.4 L 691.6 121.7 L 687.6 128.3 L 671.1 120.2 L 667.2 110.1 L 671.5 103.4 L 662.6 96.8 L 658.3 102.6 L 651.7 102.1 L 641.4 109.9 L 639.1 105.8 L 644.5 94 L 653.3 90.1 L 660.9 84.8 L 665.9 91.2 L 676.5 87.3 L 678.7 81.1 L 688.6 80.7 L 687.8 69.9 L 699.1 76.6 L 700.3 83.6 L 701.2 88.7 Z M 591.4 76.1 L 572.8 89.4 L 579.7 79.6 L 589.8 71 L 598.1 61.4 L 605.4 47.5 L 607.9 58.9 L 598.7 66.6 L 591.4 76.1 Z M 644.9 -48.2 L 642.6 -42.4 L 647.4 -32.4 L 643.7 -20.8 L 635.5 -16.2 L 633.3 -4.9 L 636.4 6.2 L 643.8 7.7 L 650 6.1 L 667.4 13.8 L 666.1 21.4 L 670.6 24.8 L 669.2 31.2 L 658.3 24.4 L 653.1 17 L 649.5 22.2 L 640.7 13.8 L 628 15.9 L 621 12.8 L 621.7 7 L 626.1 3.5 L 621.9 0.2 L 620.1 5.3 L 613.2 -2.8 L 611.2 -8.8 L 610.6 -22.2 L 616.3 -17.6 L 617.7 -39.4 L 622.3 -52.1 L 630.7 -52.1 L 639.3 -48.1 L 643.6 -51.7 L 644.9 -48.2 Z M 640.7 46.8 L 638.5 40.2 L 646.9 44.5 L 655.8 44.5 L 655.5 50.3 L 649.1 56.3 L 640.2 60.5 L 639.7 54 L 640.7 46.8 Z M 689 36.4 L 693 52 L 682.2 48.3 L 682.5 53 L 685.9 61.6 L 679.3 64.7 L 678.7 54.9 L 674.5 54.2 L 672.3 45.7 L 680.5 46.9 L 680.3 41.6 L 671.8 30.9 L 685.2 31.2 L 689 36.4 Z" />
<path class="neighbor" d="M 334.4 115.9 L 336.8 113.4 L 348.2 119.6 L 349.3 126.7 L 358.5 125.1 L 363.1 119.3 L 366.3 120.6 L 374.5 129.1 L 380.4 138.4 L 381.2 147.8 L 379.7 154.1 L 381 158.9 L 382.1 167.2 L 387 171 L 392.5 183.4 L 392.2 188.1 L 382.3 189 L 369.1 178.7 L 352.6 167.6 L 351 160.5 L 342.9 151.2 L 341 139.6 L 335.9 132 L 337.5 121.9 L 334.4 115.9 Z M 582.7 148.4 L 570.6 146.1 L 554.6 146 L 549.7 161.9 L 544.4 166.8 L 537.2 186.2 L 525.8 189.2 L 512.6 185.2 L 505.9 186.5 L 497.8 193.5 L 488.9 192.5 L 479.9 195.4 L 470.4 187.5 L 468 178.1 L 478.3 182.9 L 489 180.3 L 491.8 168.5 L 497.8 165.9 L 514.5 162.9 L 524.5 151.8 L 531.4 143 L 537.7 150.2 L 540.7 145.5 L 547.3 145.9 L 548.2 137 L 548.8 130.1 L 559.5 120.4 L 566.6 109.5 L 572.2 109.5 L 579.4 116.5 L 580 122.6 L 589.2 126.5 L 600.8 130.7 L 599.9 136.1 L 590.5 136.8 L 593 143.7 L 582.7 148.4 Z" />
<path class="neighbor" d="M 548.8 130.1 L 548.2 137 L 547.3 145.9 L 540.7 145.5 L 537.7 150.2 L 531.4 143 L 536.9 137.8 L 548.8 130.1 Z" />
<path class="lake" d="M 1319.1 815.3 L 1319.1 815.6 L 1318.6 816.4 L 1318 818 L 1318 819.2 L 1317.1 820.1 L 1317 819.6 L 1317.1 818.6 L 1317.1 818.1 L 1317.3 817.5 L 1316.9 814.5 L 1317.2 813.6 L 1317.4 814.2 L 1317.5 815.6 L 1317.7 816 L 1318 816.2 L 1318.3 816.1 L 1318.8 815.6 L 1319.1 815.3 L 1319.1 815.3 L 1319.1 815.3 L 1319.1 815.3 Z" />
<path class="lake" d="M 738.3 431.4 L 738.1 431.6 L 737.9 432 L 737.4 432.6 L 737.1 433.2 L 737.3 433.6 L 737.2 433.8 L 737 434.3 L 736.8 434.6 L 736.6 434.9 L 736.4 435.3 L 736.1 435.5 L 736 435.4 L 735.8 435.3 L 735.4 435.3 L 735.1 435.7 L 734.9 436.5 L 735 437.1 L 735 437.7 L 734.9 438.3 L 734.8 439.1 L 734.5 440.3 L 734.1 440.4 L 733.9 440 L 733.6 439.4 L 733.1 438.9 L 732.6 438.6 L 732.4 438.4 L 732.2 438.2 L 732 438 L 732.1 437.8 L 732.1 437.4 L 732 437 L 731.4 436.9 L 731.3 436.5 L 731.8 435.6 L 732.5 433.8 L 732.8 432.9 L 733.1 432.7 L 733.4 432.5 L 733.3 432.1 L 732.9 431.6 L 733.1 431.4 L 733.6 431.3 L 734.2 431.3 L 734.7 430.6 L 735.1 430.5 L 735.2 430.6 L 734.8 431.2 L 734.8 431.5 L 734.9 431.8 L 735.2 431.8 L 735.7 431.6 L 736.3 431.3 L 737.1 431 L 737.7 431 L 738.2 431.2 L 738.3 431.4 L 738.3 431.4 L 738.3 431.4 L 738.3 431.4 Z" />
<path class="lake" d="M 321.2 172.5 L 321.2 172.7 L 320.5 173.1 L 319.2 173.4 L 318 173.4 L 317.1 173.3 L 316.7 172.9 L 315.8 171.7 L 314.9 170.5 L 315.2 170.2 L 316.2 171.1 L 317.6 171.6 L 318.2 171.5 L 318.5 171.2 L 318.1 170.4 L 316.8 168.9 L 315.9 168.1 L 315.4 168.1 L 314.9 168.6 L 314.5 169.2 L 314.2 169.2 L 313.4 168 L 312.6 166.7 L 312.7 166.3 L 313.3 166 L 314.2 166.1 L 315.2 166.3 L 316.3 167.1 L 317.4 168 L 318.1 169 L 318.9 170.2 L 319.8 171.5 L 320.7 172.1 L 321.2 172.5 L 321.2 172.5 L 321.2 172.5 L 321.2 172.5 Z" />
<path class="lake" d="M 1313.4 821.7 L 1313.2 822.5 L 1312.8 822.5 L 1312.4 822.5 L 1312.4 821 L 1312.1 818.9 L 1311.8 817.4 L 1311.8 816.8 L 1312.1 816.6 L 1312.4 816.2 L 1312.7 816 L 1312.9 816.1 L 1312.7 817.1 L 1312.5 817.7 L 1312.9 819.7 L 1313.3 821.1 L 1313.4 821.7 L 1313.4 821.7 L 1313.4 821.7 Z" />
<path class="lake" d="M 1309.9 824.1 L 1309.2 824.2 L 1308.4 824 L 1308.2 823.6 L 1308.1 823.2 L 1308.1 822.6 L 1308.2 821.3 L 1308 819.9 L 1308.3 819.7 L 1308.3 820.1 L 1308.4 820.6 L 1308.7 820.8 L 1309.2 820.2 L 1309.7 819.7 L 1309.7 820.3 L 1308.9 821.4 L 1308.7 822.5 L 1308.8 823.2 L 1309.2 823.7 L 1309.4 823.9 L 1309.9 824.1 L 1309.9 824.1 L 1309.9 824.1 Z" />
<path class="lake" d="M 651.7 536.6 L 650.9 536.3 L 649.1 534.6 L 648.6 533.6 L 649.9 531.6 L 650 530.9 L 650.8 530.8 L 652.4 530.6 L 653.2 530.9 L 653.4 533.1 L 653.1 535.3 L 652.4 536.3 L 651.7 536.6 L 651.7 536.6 L 651.7 536.6 Z" />
<path class="lake" d="M 732.3 522.2 L 729.3 521.5 L 728.3 520 L 728.7 518.8 L 729.9 518.3 L 730.6 517.9 L 732.3 517.4 L 735 516.2 L 736.6 514.8 L 736.9 514 L 737.9 513.2 L 739.7 513.2 L 740.9 513.6 L 740.7 514.3 L 738.8 515.5 L 738.7 516.9 L 739.8 517.8 L 740.9 518.2 L 740.9 518.9 L 740.1 519.4 L 739.2 520.1 L 738.2 521 L 736.4 522.2 L 735.3 522.6 L 732.3 522.2 L 732.3 522.2 L 732.3 522.2 Z" />
<path class="lake" d="M 834.1 657.2 L 834 656 L 834.4 654.8 L 836.2 652.2 L 836.2 651.3 L 835.4 650.4 L 833.5 649.1 L 832.9 648 L 832.6 647.3 L 832 647 L 831.5 647 L 831.2 647.2 L 830.5 646.9 L 830.1 645.9 L 830.4 644.9 L 830.5 644.3 L 830.3 644 L 829.9 643.8 L 829.4 643.6 L 828.9 643.1 L 828.4 642.6 L 827.7 641.9 L 827.4 640 L 827.6 639.6 L 828.4 639.9 L 830 641.3 L 832.4 642 L 833.9 641.8 L 834.9 641.8 L 836.6 642.2 L 837 643 L 837 643.6 L 837.1 644.5 L 837.5 645.7 L 838.4 646.8 L 839.4 650.5 L 839.9 651.6 L 839.1 654.7 L 839.1 655.6 L 838.8 656 L 838.1 656.2 L 837.2 655.9 L 836.3 655.6 L 835.2 655.9 L 834.4 657.1 L 834.1 657.2 L 834.1 657.2 L 834.1 657.2 Z" />
<path class="lake" d="M 861.1 648.7 L 860.3 650.8 L 859.9 651.2 L 859.4 650.9 L 858 650 L 857.9 649.6 L 858.8 648.9 L 859.3 648 L 859.7 643.3 L 859.3 642.5 L 858.6 642.1 L 857.2 640.9 L 856.9 640.2 L 857.4 639.8 L 858.3 639.6 L 858.7 639.1 L 858.7 638.7 L 858.4 636.4 L 858.1 635.4 L 858.2 634.1 L 857.8 633.6 L 855.4 633.5 L 855 632.7 L 854.8 631.3 L 854.1 629.8 L 853.1 628.8 L 852.4 627.9 L 852.6 627.2 L 854 627.8 L 855.4 629 L 856.2 630.1 L 857.9 630.7 L 859.9 631.6 L 861.2 633.1 L 862.4 634.8 L 863.5 636.9 L 863.8 638 L 863.7 638.7 L 863.8 639.5 L 865.3 642.3 L 865 644.2 L 861.1 648.7 L 861.1 648.7 L 861.1 648.7 Z" />
<path class="lake" d="M 609.4 617.8 L 609.3 618.9 L 608.5 618.9 L 607.2 618.5 L 607.6 617.9 L 608 617.1 L 607.6 616.2 L 607.2 615.5 L 607.6 614.7 L 607.6 613.7 L 607.1 613.4 L 606.4 613.4 L 606 613.8 L 605.9 616.1 L 605.5 617.8 L 604.5 618.5 L 603.6 618.4 L 604.4 614.1 L 603.6 613.8 L 602.9 614.1 L 601.2 615.7 L 600.3 614.7 L 600.1 612.4 L 601.5 612.1 L 602.7 611 L 603.9 610.7 L 606 611.6 L 607.4 611.2 L 608.3 609.9 L 609 609.2 L 610.3 609.4 L 611.4 609.1 L 612.4 609.8 L 612.2 610.5 L 611.5 610.6 L 610.5 610 L 608.3 611.7 L 607.8 612.5 L 608.8 614.9 L 609.3 616 L 609.8 616.6 L 609.4 617.8 L 609.4 617.8 L 609.4 617.8 Z" />
<path class="lake" d="M 890.5 638.2 L 890.2 639.1 L 889.6 639.9 L 889 640.5 L 888.6 640.4 L 887.8 639.8 L 886.6 639.2 L 885.9 638.9 L 884.6 637.7 L 884.2 637 L 885.1 635.5 L 887.4 632.6 L 889.9 630 L 890.7 629.2 L 891.5 629.5 L 892 630.6 L 891.7 632.1 L 891.1 636.7 L 890.5 638.2 L 890.5 638.2 L 890.5 638.2 Z" />
<path class="lake" d="M 858.7 615.7 L 857.9 616 L 856.8 616.3 L 855.2 617 L 854.7 617.1 L 853.4 617.1 L 852.1 617.3 L 851 617.1 L 851.1 615.6 L 852.3 614.2 L 854.1 613.9 L 857.7 613 L 859.2 612.6 L 859.5 613.5 L 858.7 615.7 L 858.7 615.7 L 858.7 615.7 Z" />
<path class="lake" d="M 862.2 612.2 L 860.3 611.3 L 858.1 611.5 L 856.1 611 L 855.2 611.2 L 854.3 611.1 L 853.7 610.6 L 852.8 609.3 L 851.5 609.2 L 851.2 609.7 L 851.1 610.5 L 850.5 611 L 849.7 611 L 848.8 610.1 L 848 608.5 L 848.3 607.4 L 848.4 606.5 L 847.8 603.1 L 848.2 602.8 L 849 602.3 L 849.3 601.2 L 849 599.6 L 848.3 598.3 L 847.9 597.7 L 847.1 597.4 L 846.5 597.1 L 846.7 596.4 L 848 595.6 L 849.9 594.9 L 854.1 596.5 L 855.8 598.1 L 857.4 598.5 L 858.9 598.5 L 859.3 598.8 L 859.3 599.6 L 859.5 600.7 L 860.3 601.7 L 859.7 602.3 L 859.4 604.3 L 859 604.7 L 858.9 605.8 L 860.4 608.6 L 862.1 610.6 L 863.6 611.5 L 863.6 612.1 L 862.2 612.2 L 862.2 612.2 L 862.2 612.2 Z" />
<path class="country" d="M 998.6 775.6 L 1007 776.5 L 1008 793.1 L 1003.2 797.9 L 1001.8 809.1 L 996.9 805.3 L 987.2 815 L 984.3 814.3 L 975.7 813.8 L 967.1 801.9 L 965.2 792.7 L 957.2 780.5 L 957.5 774.1 L 966.7 775.3 L 980.1 780.2 L 987.7 778.2 L 998.6 775.6 Z M 698.1 655.7 L 683.3 662.8 L 671.2 666 L 668.5 673.4 L 663.3 679 L 651.5 679.4 L 642.7 680.6 L 630.4 678.1 L 620.4 679.6 L 610.8 680.2 L 602.5 687.7 L 598.4 687 L 591.4 691 L 584.7 695.4 L 574.5 694.9 L 565.2 694.9 L 550.4 686 L 542.9 683.3 L 543.2 675.3 L 550.1 673.4 L 552.5 670.2 L 552 665.2 L 553.7 655.5 L 552.1 647.2 L 544.7 633.1 L 542.5 625.2 L 543.1 617.2 L 537.5 608.1 L 537.1 604 L 531 598.5 L 529.2 587.6 L 521.3 576.5 L 519.3 570.6 L 525.5 576.6 L 520.7 563.6 L 527.7 567.7 L 531.8 573.1 L 531.6 566 L 524.7 555 L 523.3 550.6 L 520.1 546.4 L 521.6 538.3 L 524.5 534.9 L 526.4 527.9 L 524.9 519.8 L 530.6 509.7 L 531.7 520.3 L 537.6 510.7 L 548.9 506.1 L 555.7 500.1 L 566.4 495 L 572.7 493.9 L 576.6 495.6 L 587.6 490.4 L 596 488.9 L 598.1 485.8 L 601.8 484.6 L 609.5 484.9 L 624.2 480.8 L 631.8 474.6 L 635.4 467.1 L 643.5 460.1 L 644.2 454.5 L 644.5 446.9 L 654.3 435.1 L 660.2 447.1 L 666.1 444.3 L 661.1 437.7 L 665.5 431 L 671.7 434 L 673.4 423.4 L 681 416.5 L 684.4 411 L 691.4 408.6 L 691.6 404.7 L 697.7 406.3 L 698 402.8 L 704.1 400.8 L 710.9 399 L 721.2 405.4 L 728.9 413.6 L 737.6 413.7 L 746.5 415 L 743.6 407.4 L 750.2 396.2 L 756.5 392.5 L 754.4 389 L 760.4 381.1 L 768.9 376.1 L 776 377.8 L 787.7 375.2 L 787.5 368 L 777.3 363.5 L 784.7 361.4 L 793.9 364.9 L 801.3 370.6 L 813.1 374.2 L 817.1 372.8 L 825.7 377.1 L 833.9 373.1 L 839.1 374.3 L 842.4 371.6 L 848.8 378.5 L 845.1 386 L 839.8 391.6 L 835 392.1 L 836.6 397.6 L 832.5 404.6 L 827.6 411.5 L 828.5 415.4 L 839.6 423.1 L 850.4 427.6 L 857.6 432.4 L 867.7 440.7 L 871.6 440.7 L 878.9 444.2 L 881 448.5 L 894.3 453.3 L 903.6 448.5 L 906.3 441 L 909.1 434.8 L 910.8 427.2 L 915.1 416.1 L 913.2 409.3 L 914.2 405.3 L 912.5 397.3 L 914.4 386.8 L 917 383.9 L 914.9 379.3 L 918.2 371.9 L 920.9 364.2 L 921.2 360.2 L 926.4 355 L 930.4 361.8 L 931.3 370.6 L 934.8 372.3 L 935.4 378.1 L 940.5 385.2 L 941.5 393.1 L 941 398.2 L 946.1 409.1 L 955 403.9 L 959.6 409.8 L 966.3 415.2 L 964.9 421.4 L 967.9 433.4 L 970 440.4 L 973.5 442.1 L 977.3 454 L 975.9 461.2 L 980.5 470.7 L 995.6 478 L 1005.4 484.6 L 1014.8 490.7 L 1013 494.1 L 1021 502.8 L 1026.4 517.9 L 1032 514.8 L 1037.6 520.9 L 1041 518.7 L 1043.4 533.5 L 1053.3 542.1 L 1059.8 547.4 L 1070.7 558.7 L 1074.6 569.9 L 1075 577.9 L 1074 586.5 L 1080.7 598.4 L 1079.9 610.7 L 1077.5 617.2 L 1073.7 629.6 L 1074 637.6 L 1071.2 647.6 L 1065.1 660.3 L 1054.7 667.2 L 1049.6 678 L 1045 684.9 L 1040.8 696.9 L 1035.5 703.9 L 1031.9 714.3 L 1030.1 723.9 L 1030.8 728.4 L 1022.8 733.2 L 1007.2 733.7 L 994.3 739.4 L 987.9 744.8 L 979.5 750.8 L 967.9 744.7 L 959.4 742.2 L 961.6 734.9 L 953.9 737.6 L 941.7 747.7 L 929.6 743.9 L 921.7 741.7 L 913.8 740.7 L 900.2 736.6 L 891.2 728 L 888.6 717.5 L 885.4 710.4 L 878.5 704.7 L 865.1 703.1 L 869.7 696.3 L 866.3 685.9 L 859.5 695.6 L 847.1 698.2 L 854.4 690.4 L 856.5 682.4 L 861.9 675.5 L 860.8 665.2 L 849.4 677.1 L 840.7 681.9 L 835.4 693 L 824.5 687.2 L 824.9 679.8 L 816.2 669.7 L 808.8 664.5 L 811.4 661.3 L 793.5 652.8 L 783.7 652.4 L 770.3 645.6 L 745.3 646.9 L 727.3 651.9 L 711.4 656.6 L 698.1 655.7 Z" />

<path class="river" d="M 989.6 710 L 990.4 709.2 L 991.2 709 L 992.8 709.2 M 975.5 708.7 L 978.1 709.2" />
<path class="river" d="M 734.2 431.3 L 733.8 435.5 L 733.9 437.4 L 734.3 438.3 L 734.4 439.1 L 734.1 440.4" />
<path class="river" d="M 540.2 198.3 L 540.7 199.7 L 540.4 200.3 L 539.6 200.5 L 538.8 201.2 L 537.7 202.9 L 537.7 203.6 L 537.4 203.9 L 536.8 204.2 L 535.8 204.1 L 534.5 203.8 L 533.4 203.7 L 532.7 203.8 L 532.2 204.1 L 531.9 204.7 L 531.6 204.8 L 531.2 205.6 L 531.6 206.2 L 532.4 206.8 L 532 207.7 L 530.5 208.9 L 529.6 210.1 L 529.5 211.4 L 530.5 213.2 L 532.7 215.4 L 534.5 216.4 L 536 216.2 L 536.7 215.7 L 536.7 215.1 L 537.5 214.8 L 538.9 214.8 L 540 215.4 L 540.9 216.6 L 541.4 217.6 L 541.5 218.6 L 541.2 219.3 L 540.4 219.7 L 540.2 220.4 L 540.7 221.4 L 540.6 222.4 L 539.8 223.3 L 539.8 224 L 540.6 224.4 L 540.9 225.5 L 540.6 228 L 539.7 230.9 L 539.6 231.9 L 540 232 L 540.4 232.5 L 540.8 233.5 L 540.8 234.6 L 540.4 235.7 L 540.4 237.1 L 541 239 L 540.6 241.1 L 539.4 243.5 L 539 245.3 L 539.5 246.3 L 539.5 247.2 L 539.2 248 L 538.5 248.7 L 537.4 249.5 L 536.7 250.7 L 535.9 253.3" />
<path class="river" d="M 1037.4 605.9 L 1035.6 604.7 L 1033 604.6 L 1028.8 605.3 L 1026.4 605.4 L 1025.2 604.7 L 1024.1 604.9 L 1023.4 605.3 L 1023 606 L 1021.6 606.9 L 1019.3 608.1 L 1018.1 609 L 1017.7 609.8 L 1016.8 610.6 L 1015.3 611.5 L 1014.1 613.4 L 1013 616.4 L 1011.9 618.2 L 1010.8 618.8 L 1009 620.4 L 1006.5 623.1 L 1002.7 624.9 L 994.8 626.5" />
<path class="river" d="M 777.5 411.3 L 776.2 410.8 L 775.6 409.9 L 775.3 408.3 L 773.6 406.3 L 769.3 402.5 L 768.6 401.2 L 768.4 400.5 L 768.5 399.8 L 768.2 399.4 L 767.5 399.2 L 766.3 399.5 L 764.6 400.2 L 763.3 400.3 L 762.6 399.9 L 761.9 399 L 761.3 397.6 L 760.7 396.9 L 760.1 396.9 L 759.4 396.2 L 758.5 394.7 L 757.5 393.9 L 756.4 393.6 L 756.1 393.1 L 756.3 392.5 L 756.3 392.1 L 755.9 391.9 L 755.4 391.8" />
<path class="river" d="M 994.8 626.5 L 992.7 626.5 L 991.8 626.2 L 991.6 625.8 L 989.7 625.1 L 986.2 624.1 L 984.2 623.7 L 983.7 624.1 L 981.5 624.2 L 977.7 624.2 L 975.7 624.5 L 975.4 625.1 L 973.8 626.2 L 970.8 627.9 L 969 629.2 L 968.5 630 L 967.6 630.5 L 965.8 630.5 L 964.9 631.2 L 964.2 631.5 L 963.3 631.4 L 962.6 631.9 L 962.2 632.8 L 961.2 633.5 L 959.8 634 L 958.5 635 L 957.3 636.4 L 955.8 637.3 L 954 637.6 L 952.9 638.2 L 952.3 639.2 L 950.9 640.1 L 948.6 641.1 L 947.5 642.2 L 947.4 643.4 L 945.8 644.3 L 942.7 645.1 L 940.8 645.9 L 940.2 646.7 L 939.5 646.9 L 938.9 646.7 L 938.4 647.2 L 938 648.4 L 937.4 649 L 936.6 649.1 L 936 649.6 L 935.4 650.4 L 934.6 651 L 933.8 651.3 L 933.3 652 L 933.2 653.2 L 932.9 653.9 L 932.2 654.3 L 926.8 657.3 L 924.9 659.7 L 924.7 663.9 L 924.8 665.9 L 924.5 667.3 L 923.8 668.6 L 924.4 669.9 L 926.2 671.3 L 927.2 672.2 L 927.3 672.7 L 926.7 673.8 L 925.5 675.4 L 923.6 676.7 L 921 677.6 L 919.3 678.7 L 918.5 680.1 L 918.1 681.1 L 918.2 682.2" />
<path class="river" d="M 900.9 273.9 L 901.5 274.7 L 901.7 275.4 L 901.6 276.3 L 901.1 277.4 L 899.7 279.4 L 895.8 283.4 L 894.4 285.3 L 894.4 286.5 L 894.7 287.5 L 895.4 288.2 L 895.7 289.3 L 895.5 291.5 L 895 292 L 895 292.9 L 895.4 294.3 L 895.7 295.1 L 896.1 295.2 L 896.2 295.8 L 896 297 L 896.2 297.9 L 896.7 298.5 L 896.5 299.3 L 895.8 300.3 L 895 301.1 L 894.2 301.5 L 893.5 302.1 L 892.9 303.1 L 892.6 303.9 L 892.6 304.7 L 892.2 305.4 L 891.3 305.9 L 890.2 305.9 L 889.2 305.3 L 888.5 305.3 L 887.7 305.7 L 887.2 306.7 L 886.5 306.9 L 886.1 306.5 L 885.6 306.6 L 885.2 307 L 884.7 307.3 L 884.2 307.2 L 883.9 306.8 L 883.8 306.1 L 883.3 306 L 882.8 306.4 L 882.3 306.7 L 880.7 306.3 L 879.9 306.5" />
<path class="river" d="M 712.1 448.7 L 709.9 449.7 L 708.6 450 L 706.8 450 L 701.6 449.7 L 699.3 450 L 698.2 450.9 L 697.7 451.5 L 697.7 451.9 L 697.4 452.2 L 696.6 452.3 L 695.8 453.2 L 694.8 454.9 L 693.1 457.1 L 689.2 461.2 L 684 463.6 L 681 464.2 L 678.4 463.7 L 676.2 462.2 L 674.4 459.9 L 673 458.6 L 671.8 458.4 L 670.6 458.5 L 669.3 459 L 668.1 458.9 L 666.9 458.3 L 665.5 456.8 L 663.9 454.4 L 662.8 453.1 L 662.3 453 L 662.1 452.6 L 662 451.6 L 662 450.6" />
<path class="river" d="M 340.9 214 L 342.4 214.1 L 343.3 214.5 L 344.1 215.3 L 344.9 215.6 L 346.3 215.2 L 347.2 215.3 L 347.7 215 L 348.1 214.4 L 348.8 214.3 L 349.6 214.8 L 350.8 215 L 352.1 214.8 L 353.1 214.9 L 353.9 215 L 354.6 214.7 L 355.9 213.3 L 357.9 212.9 L 360.4 213.7 L 362.5 213.6 L 364.7 212.3 L 366.3 211.1 L 368.4 211.4 L 371.5 212.8 L 372.9 213.2 L 374.2 212.8 L 376.5 211.4 L 378.2 210.8 L 379.9 211.2 L 380.7 211.2" />
<path class="river" d="M 521.1 189.4 L 517.8 192.7 L 513.9 194.2 L 511.7 194.7 L 509.8 194.5 L 508.1 194.9 L 506.5 196 L 504.2 196.8 L 501 197.3 L 499.9 197.8 L 499.9 198.5 L 499.5 199.1 L 498.4 199.7 L 498.1 200.1 L 498.2 200.4 L 497.9 200.9 L 496.9 201.5 L 496.2 201.7 L 495.7 201.8 L 495.5 202.3 L 495.3 202.8 L 494.8 202.8 L 494.4 203.1 L 494.2 203.9 L 493.7 204.7 L 493.2 204.8 L 492.3 204.7 L 491.8 204.9 L 491.3 204.8 L 490.9 204.7 L 490.6 205 L 490.3 204.9 L 489.9 204.7 L 489.6 204.9 L 488.9 205 L 487.8 204.9 L 487 205 L 486.6 205.5 L 485.7 205.8 L 484.3 206 L 483.5 205.7 L 483 205.5 L 482.4 205.7 L 481.8 205.5 L 481.3 205.3 L 480.8 205.3 L 480.7 205.7 L 480.3 205.9 L 479.9 205.8 L 479.5 206.2 L 479.2 206.7 L 478.6 207.1 L 477.4 207.3 L 475.2 206.9 L 474.1 207.1 L 472.8 207.5 L 472 208.7 L 470.1 209.9 L 467.1 211 L 466.1 211.1 L 465.1 210.8 L 464.4 210.4 L 463.5 209.9 L 461.8 209.4 L 460.9 208.7" />
<path class="river" d="M 795.5 391.7 L 796.5 393.4 L 796.8 394.6 L 796.8 395.8 L 796.6 396.8 L 796.1 397.5 L 795.5 397.8 L 794.6 397.8 L 793.2 397.4 L 792.3 397.7 L 791.4 398.7 L 790.6 400.3 L 790 402.5 L 789.4 403.9 L 788.7 404.6 L 787.6 405.2 L 786.2 405.7 L 783.9 407.3 L 780.8 409.9 L 778.8 411.2 L 777.5 411.3" />
<path class="river" d="M 539.2 181.6 L 540.8 179.8 L 541.9 179.2 L 543.7 178.9 L 546.1 178.1 L 547.5 177.8 L 548.6 177.8 L 549.3 178.1 L 549.6 178.6 L 550.2 178.7 L 551.1 178.4 L 552.2 177.4 L 553.4 175.6 L 554.3 175.4 L 554.9 176.7 L 555.9 177.3 L 557.3 177.2 L 558.4 176.2 L 559.2 174.2 L 561 171.7 L 563.9 168.7 L 565.6 167.1 L 566 167 L 566.5 167.3 L 567 168 L 567.8 168 L 568.8 167.1 L 570.2 166.9 L 571.8 167.6 L 572.8 167.7 L 573.1 167.4 L 573.6 167.3 L 574.4 167.4 L 575.2 166.9 L 576 165.9 L 576.8 165.4 L 577.5 165.3 L 578.3 165.3" />
<path class="river" d="M 873.2 250.7 L 872.8 250.8 L 872.1 250.8 L 871.8 250.2 L 871.7 248.4 L 871.2 247.3 L 870.3 247 L 869.8 246 L 869.5 244.3 L 869.1 243.2 L 868.4 242.2 L 866.5 239.9 L 865.2 238.8 L 863.7 238.2 L 862.4 237.2 L 861.2 235.6 L 860.8 234.4 L 861.4 233.7 L 861.5 232.8 L 861.1 231.6 L 861.2 230.8 L 861.4 230.4 L 861.3 229.9 L 861.3 229.1 L 862.2 226.8" />
<path class="river" d="M 939.7 436.2 L 935.1 434.7 L 929.7 430.8 L 927.1 429.4 L 925.6 429.1 L 924.3 428.7 L 923 427.6 L 919.8 422 L 917.5 419.7 L 915.8 418.9 L 913.4 418.2" />
<path class="river" d="M 1003 722 L 1005.2 718.7 L 1005.7 717.2 L 1005 716.1 L 1003.4 711 L 1002.6 709.1 L 1002 708.7 L 999.7 707.9 L 998.4 707.8 L 997.3 708.2 L 996.5 708.2 L 996 707.9 L 995.4 707.8 L 994.7 708.1 L 994.2 708.5 L 993.9 709.2 L 993.5 709.4 L 992.8 709.2 M 989.6 710 L 987.6 709.9 L 985.7 709.4 L 983.3 708.5 L 981.6 708.4 L 980.7 708.9 L 979.7 709.2 L 978.1 709.2 M 975.5 708.7 L 972.5 708.2 L 970.8 707.5 L 969.3 706.6 L 967.1 706.2 L 964.2 706.3 L 962.3 706.5 L 961.2 706.9 L 960.6 707.4 L 960.3 708.2 L 960.3 708.9 L 960.6 709.5 L 959.9 710 L 958.3 710.2 L 956.5 709.7 L 954.5 708.4 L 953.1 707.1 L 952.4 706 L 951.2 704.7 L 949.4 703.4 L 946.8 701.9 L 943.2 700.3 L 941.4 699.1 L 941.3 698.4 L 940.7 697.8 L 939.6 697.4 L 938.8 696.9 L 938.5 696.3 L 938.3 695 L 938.2 692.9 L 937.7 691.6 L 936.3 690.8 L 932.7 690.2 L 931.2 689.7 L 930.6 689 L 930 688.8 L 929.6 688.9 L 929.1 689.6 L 928.5 690.9 L 927.9 691.5 L 927.2 691.4 L 926.3 690.5 L 925.2 688.8 L 924.7 687.3 L 924.7 686 L 924.5 685.2 L 923.8 685.1 L 923.3 684.6 L 922.8 683.7 L 921.4 683 L 918.2 682.2 L 915.9 682.1 L 914.6 682.5 L 913.5 683.2 L 911.8 683.1 L 909.7 682.1 L 908 681.6 L 906.6 681.5 L 905.6 681.2 L 905.2 680.8 L 904.6 680.5 L 904.1 680.7 L 902.6 681.4 L 902 681.9 L 902.3 682.1 L 902.3 682.6 L 902.1 683.2 L 901.3 684 L 899.9 685 L 899.2 685.8 L 899.3 686.5 L 898.8 686.6 L 897.6 686.1 L 896.8 685.1 L 896.2 683.7 L 894.8 683 L 892.5 683.1 L 891 683 L 890.6 682.8 L 890.4 682.5 L 890.4 682 L 889.7 681.6 L 888.6 681.4 L 887.9 681.3 L 887.4 681.6 L 886.5 682.6 L 885.9 685.9 L 885.8 688.2 L 886.4 689.4 L 886.3 690.3 L 885.4 690.8 L 885.3 691.5 L 886 692.5 L 885.6 692.8 L 884.3 692.6 L 883 692.9 L 881.7 693.7 L 881.4 694.2 L 882.2 694.7 L 882.3 695.2 L 881.8 695.8 L 881.5 696.4 L 881.7 696.9 L 882.3 697.4 L 883.3 698 L 883.4 698.7 L 882.6 699.6 L 881.6 700.1" />
<path class="river" d="M 718 452 L 722.9 449.8 L 726.1 450.6 L 727.5 451.4 L 728.2 452.5 L 728.9 453.1 L 729.5 453.2 L 730.9 452.5 L 733.2 450.9 L 734.9 449.4 L 736 448 L 736.3 447 L 735.9 446.2 L 735.8 445.5 L 736.1 444.8 L 735.6 444 L 734.3 443.2 L 733.6 442.4 L 733.5 441.6 L 733.6 441 L 734.1 440.4 M 734.2 431.3 L 733.7 430.6 L 733.7 429.8 L 734.3 428.4 L 734.3 426.6 L 733.8 424.5 L 732.4 423.3 L 730.1 423 L 728.7 422.3 L 727.9 421.1 L 727.8 420.3 L 727.4 419.6" />
<path class="river" d="M 940.1 289 L 942.1 294 L 942.1 295.3 L 942.7 296.2 L 943.9 297.3 L 945.4 298.1 L 947.3 298.5 L 948.9 298.2 L 950.2 297.2 L 951.3 296.7 L 952.2 296.6 L 954 297.8 L 957.7 301 L 958.1 301.4 L 958.3 301.8 L 958.3 302.4 L 958.7 302.6 L 959.5 302.5 L 960.1 302.6 L 960.5 302.8 L 960.7 303.2 L 960.6 303.4 L 960.9 303.7 L 961.7 303.7 L 962.3 303.8 L 962.6 304.2 L 962.9 304.2 L 963.2 304.1 L 963.8 304.2 L 964.8 304.9 L 965.3 306.1 L 965.3 307.9 L 964.7 308.8 L 963.5 309 L 962.8 309.6 L 962.5 310.4 L 962.9 311.3 L 963.8 312.3 L 964.1 313.4 L 963.7 314.8 L 963.8 315.6" />
<path class="river" d="M 895.5 257.9 L 890.5 256.8 L 888.4 255.7 L 886.9 255.4 L 885.4 255.4 L 884.7 254.9 L 884.2 254.6 L 883.2 254.7 L 882.7 254.6 L 882.1 254.1 L 880.3 254.2 L 879.1 253.6 L 878.4 252.4 L 876.8 251.5 L 874 250.8 L 873.2 250.7" />
<path class="river" d="M 1317.1 820.1 L 1315.3 823.1 L 1314.6 824.1 L 1313.8 824.6 L 1313.5 825.1 L 1313.3 825.5 L 1313.1 826.9 L 1313.9 828.3 L 1316.8 830.4 L 1317.7 831.2 L 1319.1 831.7 L 1322.2 832.5 L 1323.9 832.8" />
<path class="river" d="M 1056.9 607.2 L 1055.3 607.6 L 1054.2 608.3 L 1052.6 610.2 L 1052.2 611.3 L 1051.5 612 L 1050.3 612.7 L 1049.5 612.3 L 1049.1 610.5 L 1048 609.4 L 1046.5 608.7 L 1045.6 608.1 L 1045.5 607.4 L 1044.6 606.7 L 1042.8 606.1 L 1040.8 605.8 L 1037.4 605.9" />
<path class="river" d="M 1310 824.1 L 1311.5 824.2 L 1313.5 825.1" />
<path class="river" d="M 1312.8 822.5 L 1313.8 824.6" />
<path class="river" d="M 1292.8 838.6 L 1292.1 840.5 L 1291.6 841.3 L 1290.9 841.5 L 1290.9 842 L 1291.7 842.6 L 1292 843.4 L 1291.7 844.3 L 1291.8 845.1 L 1292.5 845.9 L 1294.9 848.4 L 1295.4 849.5 L 1295 850.9 L 1293.2 854.3 L 1292.7 855.9" />
<g class="city"><circle cx="428.461504650901" cy="292.2686204755501" r="5" /><text x="440.461504650901" y="296.2686204755501">Jakarta</text></g>
<g class="city"><circle cx="386.9688526300304" cy="188.07082169181234" r="5" /><text x="398.9688526300304" y="192.07082169181234">Singapore</text></g>
<g class="city"><circle cx="1047.7926705457871" cy="678.7679109199967" r="5" /><text x="1059.7926705457871" y="682.7679109199967">Sydney</text></g>
<g class="city"><circle cx="960.7295116232099" cy="733.8387519648408" r="5" /><text x="972.7295116232099" y="737.8387519648408">Melbourne</text></g>
<g class="city"><circle cx="511.0862617104425" cy="307.2661972514994" r="5" /><text x="523.0862617104425" y="311.2661972514994">Surabaya</text></g>
<g class="city"><circle cx="337.7893037856021" cy="130.60106436821408" r="5" /><text x="349.7893037856021" y="134.60106436821408">George Town</text></g>
<g class="city"><circle cx="438.79518944297615" cy="303.09118347763126" r="5" /><text x="450.79518944297615" y="307.09118347763126">Bandung</text></g>
<g class="city"><circle cx="314.3294846381674" cy="156.15976956059913" r="5" /><text x="326.3294846381674" y="160.15976956059913">Medan</text></g>
<text class="map-title" x="80" y="105">Australia Physical Study Map</text>
<text class="map-subtitle" x="80" y="145">Landmark: Sydney Opera House | Study terrain and water systems</text>
  <text class="footer" x="80" y="1036">Made with Natural Earth. Free vector and raster map data @ naturalearthdata.com.</text>
</svg>
