<?xml version="1.0" encoding="UTF-8"?>
<svg xmlns="http://www.w3.org/2000/svg" width="1600" height="1100" viewBox="0 0 1600 1100" role="img" aria-labelledby="title desc">
  <title id="title">Bosnia and Herzegovina Political Study Map</title>
  <desc id="desc">Made with Natural Earth. Free vector and raster map data @ naturalearthdata.com.</desc>
  <defs>
    <linearGradient id="terrain" x1="0" x2="1" y1="0" y2="1">
      <stop offset="0%" stop-color="#6c8c53" />
      <stop offset="42%" stop-color="#d5c487" />
      <stop offset="72%" stop-color="#b88b5f" />
      <stop offset="100%" stop-color="#f1f5ee" />
    </linearGradient>
    <filter id="softShadow" x="-10%" y="-10%" width="120%" height="120%">
      <feDropShadow dx="0" dy="10" stdDeviation="12" flood-color="#0f172a" flood-opacity="0.16" />
    </filter>
    <style>
      .neighbor { fill: #ffffff; stroke: #94a3b8; stroke-width: 1.2; opacity: 0.72; }
      .country { fill: #f7f1df; stroke: #1f2937; stroke-width: 4; filter: url(#softShadow); }
      .admin1 { fill: none; stroke: #64748b; stroke-width: 1.1; stroke-dasharray: 6 7; opacity: 0.75; }
      .river { fill: none; stroke: #1d9bd1; stroke-width: 3; stroke-linecap: round; opacity: 0.88; }
      .lake { fill: #8ed1ea; stroke: #0ea5e9; stroke-width: 1.5; opacity: 0.8; }
      .city circle { fill: #ef4444; stroke: #ffffff; stroke-width: 2; }
      .city text, .terrain-label { fill: #172033; font: 700 24px system-ui, sans-serif; paint-order: stroke; stroke: #ffffff; stroke-width: 5; stroke-linejoin: round; }
      .map-title { fill: #0f172a; font: 800 46px system-ui, sans-serif; }
      .map-subtitle { fill: #475569; font: 600 24px system-ui, sans-serif; }
      .footer { fill: #64748b; font: 500 18px system-ui, sans-serif; }
    </style>
  </defs>
  <rect width="100%" height="100%" fill="#eaf3f8" />
  <rect x="40" y="40" width="1520" height="1020" rx="32" fill="#ffffff" opacity="0.54" />
  <path class="neighbor" d="M 29472.4 -4249.9 L 29699.4 -4324.1 L 29699.4 -4202.4 L 29504.2 -4193.3 L 29472.4 -4249.9 Z M 6394.9 147.5 L 6313.8 253.1 L 6141.2 282.4 L 5964.3 466.2 L 6126.1 635.2 L 6108.5 755.1 L 6302.9 964.7 L 6302.9 964.7 L 6196.6 1036.5 L 6166.1 1081.8 L 6087.3 1069.6 L 5965 961.5 L 5914.9 955.5 L 5803 914.3 L 5748.5 841.2 L 5582.5 804 L 5474.5 831.9 L 5443.3 798.8 L 5200.9 713.5 L 4938.8 684.7 L 4788.3 654.2 L 4766.6 675.2 L 4539.6 524.8 L 4336.5 457.6 L 4182.7 353.1 L 4312.3 324.6 L 4460 175.7 L 4360.5 105.3 L 4622.9 32.6 L 4618.2 -6.3 L 4458.4 22.4 L 4464 -56.7 L 4555.7 -106.4 L 4728 -119.5 L 4756 -178.9 L 4716.7 -277 L 4789 -370.2 L 4786.9 -422.5 L 4524.5 -480.5 L 4420.5 -478.5 L 4310.6 -561.9 L 4174 -533.7 L 3947.9 -596.3 L 3951.7 -631.3 L 3888.4 -708.5 L 3746.4 -717.2 L 3731.7 -772.4 L 3776.2 -808.5 L 3662.4 -909.3 L 3477.8 -892.1 L 3423.7 -901 L 3378.7 -860.5 L 3312.3 -867.7 L 3312.3 -867.7 L 3268.5 -981.7 L 3226.7 -1040.8 L 3260.9 -1057.5 L 3404.6 -1051.3 L 3473.8 -1090.2 L 3422.6 -1137.7 L 3302.5 -1169 L 3313.2 -1201.2 L 3240.8 -1233.6 L 3129.2 -1350.2 L 3167.3 -1398.2 L 3149.9 -1481.8 L 2975.8 -1524.3 L 2882.4 -1503 L 2857.1 -1547.2 L 2669.7 -1591.9 L 2612.5 -1696.9 L 2597.3 -1783.3 L 2511.5 -1824.3 L 2587.8 -1880.8 L 2535 -2046.8 L 2661.7 -2149.4 L 2634.9 -2180.5 L 2634.9 -2180.5 L 2837.2 -2278.9 L 2650.7 -2363.5 L 2650.7 -2363.5 L 3031.9 -2590.8 L 3197.2 -2693.6 L 3264.2 -2784.4 L 3000.7 -2906.4 L 3073.5 -3022.4 L 2913.2 -3154.9 L 3033 -3307.6 L 2826 -3510.2 L 2990.3 -3644.4 L 2717.6 -3763.1 L 2743.6 -3887.7 L 2887.4 -3904.1 L 3190.3 -3975.6 L 3190.3 -3975.6 L 3374 -4037.5 L 3666.4 -3929.9 L 4154 -3887.5 L 4826.7 -3686.1 L 4963.3 -3601.5 L 4975.1 -3483 L 4777.4 -3389.5 L 4486.7 -3342 L 3692 -3477.3 L 3561.2 -3454.7 L 3851.5 -3324.3 L 3862.8 -3241.7 L 3874.5 -3059.8 L 4103.7 -3005.5 L 4242.8 -2959.3 L 4265.8 -3045.6 L 4158.6 -3122.1 L 4271.9 -3189.6 L 4702.2 -3078.7 L 4852.2 -3122.1 L 4732.4 -3252.5 L 5147.3 -3426.9 L 5311.6 -3416.6 L 5477.8 -3354.4 L 5581.5 -3476.7 L 5433.1 -3582.9 L 5520.2 -3689.3 L 5389.3 -3799.8 L 5887.3 -3742.7 L 5989.1 -3643 L 5763.6 -3621 L 5764.9 -3521.9 L 5905 -3461 L 6180.1 -3499.6 L 6223.6 -3613.1 L 6595.5 -3697.9 L 7216.8 -3850.8 L 7351.1 -3842 L 7175.6 -3734 L 7396.4 -3715.4 L 7523.9 -3776.3 L 7857.6 -3781.2 L 8122 -3855 L 8324.9 -3747.7 L 8527.2 -3865.6 L 8340.6 -3968.8 L 8433.2 -4027.5 L 8959.1 -3973.6 L 9205.6 -3918 L 9850.8 -3714.6 L 9969.8 -3807.8 L 9788.9 -3901.9 L 9783.7 -3939.7 L 9569.1 -3957.1 L 9627.8 -4041.5 L 9532.6 -4180.4 L 9527.2 -4237.4 L 9855.7 -4398.6 L 9972.6 -4560.4 L 10105 -4595.5 L 10576.3 -4548.5 L 10613.4 -4449.5 L 10444.7 -4305.1 L 10555.4 -4248.3 L 10612.7 -4123.9 L 10572.2 -3879.9 L 10768.7 -3770.8 L 10692.2 -3651.9 L 10343.5 -3399.1 L 10547 -3372.8 L 10617.8 -3436.9 L 10813.7 -3482.6 L 10861 -3570.7 L 11015.1 -3655.5 L 10911.3 -3756.7 L 10994.4 -3874.3 L 10799.7 -3888.9 L 10756.9 -3987.9 L 10899 -4166.7 L 10667.7 -4311.9 L 10986.4 -4431.9 L 10945.2 -4558.5 L 11033.9 -4562.5 L 11127.5 -4463.8 L 11057.3 -4292 L 11247.8 -4259.5 L 11166.6 -4387.9 L 11464.5 -4457.9 L 11834 -4467.3 L 12163 -4365.8 L 12004.7 -4514.1 L 11987 -4703.7 L 12296.6 -4739.7 L 12724.8 -4731.8 L 13110.6 -4755.1 L 12965.9 -4848.2 L 13171.9 -4965.1 L 13376.5 -4970 L 13722.6 -5058.3 L 14192.7 -5082.1 L 14252.1 -5130.8 L 14719.6 -5147.4 L 14865.3 -5107.4 L 15264.8 -5202 L 15591.9 -5199 L 15641 -5275.9 L 15811.1 -5351.7 L 16231.4 -5424.7 L 16536.7 -5367 L 16294.3 -5323.1 L 16697.6 -5295.9 L 16745.6 -5207.9 L 16908.3 -5251.2 L 17428.8 -5248.8 L 17830.1 -5162 L 17973 -5095.3 L 17928.7 -5002.8 L 17731.8 -4950.1 L 17263.9 -4851.2 L 17130.2 -4798.4 L 17350.9 -4773.5 L 17614.3 -4728.6 L 17774.6 -4762.3 L 17865.4 -4648 L 17943.6 -4694.2 L 18228.3 -4722.4 L 18799.5 -4693 L 18842.9 -4609.7 L 19587.2 -4583.2 L 19597.3 -4719.2 L 19975.2 -4688 L 20259.4 -4689 L 20546.9 -4595.2 L 20628.8 -4481.3 L 20523.5 -4406.7 L 20747.1 -4266.6 L 21027.1 -4194.3 L 21198.9 -4381.2 L 21484.5 -4301.1 L 21787.9 -4348.9 L 22132.5 -4294.2 L 22263.6 -4344.1 L 22554.8 -4319.1 L 22426.3 -4484.4 L 22661.4 -4561.5 L 24269.3 -4445.9 L 24420.9 -4340.2 L 24886.9 -4204.2 L 25605.8 -4237.9 L 25960.3 -4208.5 L 26108.5 -4134.9 L 26086.8 -4004.7 L 26306.1 -3954 L 26544.5 -3990.5 L 26860.2 -3995.2 L 27196.3 -3960.2 L 27533.7 -3979.9 L 27843.8 -3821.7 L 28064.5 -3878.6 L 27920.5 -3992.4 L 27999.8 -4071.5 L 28567.8 -4021.7 L 28938.1 -4032.4 L 29450.1 -3947.4 L 29699.4 -3869.7 L 29699.4 -3160.4 L 29698.1 -3159.5 L 29469.2 -3081.3 L 29238.5 -3094.3 L 29399 -2999.5 L 29505 -2852.8 L 29587.3 -2804.9 L 29607.9 -2731.2 L 29562 -2684.1 L 29230.1 -2722.9 L 28732.5 -2588.9 L 28574.2 -2568.1 L 28301.8 -2443 L 28043.4 -2333.7 L 27977.9 -2252.8 L 27723.3 -2376 L 27259.4 -2236.2 L 27178.4 -2302.4 L 27006.9 -2226.1 L 26768.8 -2250.5 L 26711.5 -2133.4 L 26497.9 -1961.1 L 26504.2 -1889.2 L 26707 -1849.3 L 26683.1 -1590.1 L 26517.8 -1583.5 L 26441.6 -1434.6 L 26515.7 -1357.9 L 26204.4 -1267 L 26142.6 -1063.7 L 25877.2 -1020.3 L 25823.8 -839.4 L 25567.2 -673.6 L 25501.3 -796.2 L 25425.1 -1055.9 L 25325.7 -1451.6 L 25411.3 -1698.5 L 25561.5 -1804.7 L 25570.8 -1887.9 L 25847.5 -1927.7 L 26165.5 -2151.9 L 26472 -2335 L 26792 -2477 L 26935.1 -2728 L 26718.8 -2713 L 26611.9 -2566.3 L 26160.3 -2370.8 L 26014.5 -2589.7 L 25554.9 -2529.3 L 25109.3 -2230.8 L 25256.3 -2121.7 L 24859 -2075.2 L 24583.7 -2056.8 L 24596.6 -2185.6 L 24319.9 -2212.6 L 24099.3 -2125.1 L 23554.9 -2155.7 L 22969.3 -2103 L 22392.6 -1755.5 L 21710.3 -1335.6 L 21990.8 -1313.1 L 22078.4 -1201.6 L 22251.3 -1162.1 L 22365.2 -1251 L 22560.5 -1239.5 L 22817.5 -1043.6 L 22823.6 -892.1 L 22684.4 -714.3 L 22669.4 -501.7 L 22589 -217 L 22320.7 40.6 L 22261.1 163.8 L 22019.4 371.1 L 21779.6 576.6 L 21664.6 681.8 L 21427.4 786.3 L 21315.1 788.6 L 21203.3 702 L 20964.3 832.3 L 20936.5 891.6 L 20936.5 891.6 L 20936.5 891.6 L 20936.5 891.6 L 20911.6 860.4 L 20911.6 860.4 L 20910.5 770 L 21001.5 765.2 L 21027.1 554.8 L 20980.2 402.3 L 21133 339.4 L 21349.1 371 L 21468.8 197.8 L 21529.8 2.7 L 21599 -62.4 L 21692.5 -222.6 L 21398.3 -170.1 L 21244 -99.9 L 20973.4 -100.1 L 20901.3 -267.4 L 20690.5 -394 L 20380.6 -450.9 L 20314.8 -625.3 L 20252.7 -734.6 L 20186 -811.2 L 20076 -990.8 L 19919.7 -1056.3 L 19653.2 -1109.3 L 19417.2 -1104.5 L 19195.9 -1072.4 L 19048.9 -983.8 L 19146.6 -941.5 L 19148.8 -843.2 L 19049.8 -786.2 L 18889 -597.3 L 18890.7 -519 L 18639.8 -406.5 L 18426.1 -473.7 L 18213.6 -458.9 L 18120.4 -518.5 L 18013.7 -537.8 L 17752.9 -412.3 L 17518.5 -382.8 L 17354.9 -338.7 L 17130.6 -367.7 L 16965.5 -365.8 L 16857.5 -456.8 L 16683.1 -542.4 L 16504.7 -565.8 L 16279.5 -542.6 L 16111.2 -509.6 L 15858.3 -584.4 L 15824.3 -717.9 L 15615 -763.6 L 15453.4 -784.5 L 15254 -858.1 L 15069.6 -673.5 L 15141.9 -568.8 L 14968.8 -444.8 L 14711.4 -489.5 L 14533.7 -495.9 L 14414.7 -579.1 L 14229 -581.7 L 14074.2 -636.4 L 13803.4 -552.6 L 13463.7 -399.3 L 13276 -368.4 L 13206.3 -353.8 L 13111.8 -462.7 L 12882.5 -438.9 L 12806.7 -514.4 L 12682.2 -549 L 12596.6 -651.9 L 12498.3 -683.9 L 12242.4 -638.1 L 11997.2 -740.7 L 11902.3 -647.5 L 11504.5 -1099.7 L 11277.3 -1237.2 L 11342.5 -1293 L 10896.3 -1125 L 10725.5 -1114.9 L 10740.3 -1212 L 10511.6 -1272.7 L 10325.7 -1229.4 L 10269.7 -1413.9 L 9949.7 -1452.3 L 9789.7 -1378.4 L 9344.2 -1312.7 L 9257.3 -1268.7 L 8591.1 -1206.8 L 8509.4 -1146 L 8638 -1024.1 L 8467 -977.8 L 8500.4 -929.3 L 8329.5 -842.6 L 8618 -720.1 L 8573.4 -635.8 L 8323.3 -643.5 L 8271.6 -590.7 L 8043.9 -682.9 L 7761.7 -679.3 L 7572.8 -604.2 L 7362 -676.3 L 6969.6 -799.5 L 6691.5 -794.9 L 6323.9 -601.3 L 6301.8 -471.3 L 6118.7 -574.5 L 5976.6 -378.9 L 6028.6 -342.6 L 5925.9 -207.7 L 6077 -86.9 L 6209.1 -91.9 L 6322.6 27.1 L 6304.5 118.7 L 6394.9 147.5 Z M 14348.9 -6017 L 14734 -6057.2 L 15079.9 -5967.6 L 15489.9 -5795.4 L 15445.9 -5635.3 L 15057.5 -5613.1 L 14561.6 -5664.5 L 14266.1 -5732.5 L 14129.5 -5860.2 L 13886.6 -5895.4 L 14348.9 -6017 Z M 15961.9 -5706.6 L 16413.1 -5605.5 L 16360.3 -5533.1 L 15356.6 -5464.4 L 15681.9 -5698.2 L 15828.1 -5718.2 L 15961.9 -5706.6 Z M 22369.9 -5146.8 L 22840 -5139 L 23483.6 -5044.6 L 23343.6 -4912.4 L 22687.3 -4917.3 L 22392.1 -4875.2 L 22039.4 -4991 L 22135 -5113.4 L 22369.9 -5146.8 Z M 24041.9 -5006 L 24488.6 -4959.4 L 24282.9 -4889 L 23998.3 -4904.9 L 23667.4 -4975.2 L 23710 -5032.8 L 24041.9 -5006 Z M 22553.7 -4654.2 L 22722.5 -4724.5 L 22945.1 -4741 L 23198.1 -4672.9 L 23219.6 -4626.2 L 22949.7 -4624.9 L 22584.8 -4644.8 L 22553.7 -4654.2 Z M 5637.5 -5939.6 L 5985.1 -5972 L 6255.6 -5974.1 L 6292 -5926.2 L 6394.2 -5968.8 L 6562 -5998.2 L 6826.1 -5959.1 L 6757.2 -5932 L 6518.2 -5908.5 L 6358.1 -5895 L 6333.3 -5865.8 L 6125.2 -5836.4 L 5932.4 -5878.6 L 6033.8 -5934.2 L 5637.5 -5939.6 Z M 1700.2 -1264 L 1372.8 -1261.3 L 1153.5 -1281.5 L 1194.1 -1359.9 L 1439.8 -1417.6 L 1626.2 -1386.4 L 1704.9 -1358.2 L 1685.9 -1309.4 L 1700.2 -1264 Z M 7179.6 -4721.8 L 7605.8 -4878.1 L 7557.6 -4958.9 L 7955.9 -5052.9 L 8543.6 -5167.3 L 9136.2 -5200.6 L 9441.1 -5266.6 L 9787.5 -5289.7 L 9911.3 -5219.4 L 9791.7 -5164 L 9160.9 -5075.7 L 8617.2 -4990.8 L 8064.2 -4821.4 L 7798.9 -4647.6 L 7519.8 -4476.4 L 7556 -4328.5 L 7896.6 -4182.5 L 7791.4 -4166.9 L 7209.7 -4190 L 7162.4 -4269.1 L 6840.2 -4316.8 L 6814.1 -4412.9 L 6996.2 -4451.1 L 6990.1 -4548.2 L 7343.2 -4700.1 L 7179.6 -4721.8 Z M 23096.9 -1153.1 L 23158.6 -981.5 L 23154 -806.3 L 23227.5 -626.6 L 23406.6 -311.3 L 23143.1 -370.1 L 23033.6 -112.8 L 23207.1 69.6 L 23202.1 194 L 23067.2 86.7 L 22950.5 224.5 L 22917.5 75.1 L 22937.4 -98.3 L 22917.1 -290.4 L 22958.3 -425 L 22966.1 -663.1 L 22861.8 -838.1 L 22877.6 -1081.4 L 23042.1 -1163.3 L 22971.4 -1245.8 L 23050.7 -1270.8 L 23096.9 -1153.1 Z M -33489.9 -3556.8 L -33505.2 -3446.1 L -33385.1 -3401.8 L -33426.4 -3531.2 L -32943.2 -3504.7 L -32594.6 -3338 L -32771.1 -3260.4 L -33063 -3242 L -33067.4 -3068.1 L -33138.6 -3031 L -33305.4 -3036.3 L -33441.1 -3098.4 L -33677.8 -3150.3 L -33717.6 -3227.6 L -33898.4 -3256.7 L -34100.9 -3233.6 L -34197.6 -3295.9 L -34158.9 -3362.1 L -34372.1 -3319.8 L -34291.8 -3236 L -34392.8 -3160.4 L -34392.8 -3869.7 L -33956.7 -3733.8 L -33489.9 -3556.8 Z M -34160.3 -4213.2 L -34392.8 -4202.4 L -34392.8 -4324.1 L -34370 -4331.5 L -34219.1 -4331.2 L -33961.6 -4280.2 L -33976.9 -4255.9 L -34160.3 -4213.2 Z M 3606 223.6 L 3652.9 179.5 L 3779.5 217.7 L 3836.7 224.7 L 3859.9 259.9 L 3886.7 265.3 L 3888.2 280.7 L 3975.3 323.6 L 4156.8 312.9 L 4122.1 376.5 L 3927.2 407.3 L 3685.5 510.3 L 3586.5 474.1 L 3625.8 390.4 L 3431.2 338.3 L 3462.7 304.2 L 3633.1 245 L 3606 223.6 Z" />
<path class="neighbor" d="M 676.2 -159.5 L 662.7 -86.7 L 562.4 -86.4 L 596.9 -47.8 L 537.8 66.8 L 503.9 96.9 L 348.2 101.3 L 258.3 141.7 L 111.3 127.9 L -143.3 81.9 L -183.1 20 L -359 51 L -379.7 84.8 L -487.6 59.5 L -578.4 54.7 L -659 22.2 L -631.7 -21.3 L -638.6 -52.9 L -584.9 -62.7 L -494.8 -13.3 L -469.5 -60.3 L -312.4 -52.7 L -185.2 -84.6 L -99.8 -79.2 L -44.3 -42.7 L -27.7 -73 L -52.9 -189 L 11 -211.6 L 73.8 -293.6 L 206.1 -236.3 L 306.2 -309.2 L 368.9 -322.5 L 507.1 -268.1 L 590.7 -277.4 L 672.8 -243.8 L 658.5 -221.2 L 676.2 -159.5 Z" />
<path class="neighbor" d="M 1585.3 -212.7 L 1684.1 -164.2 L 1696.5 -116.5 L 1587.8 -79.2 L 1503.5 41.6 L 1395.9 162.3 L 1253.1 195.9 L 1142 188 L 1005.6 234.8 L 1005.6 234.8 L 939.1 261.4 L 792 227.2 L 658.9 150.8 L 602.4 128.9 L 567.8 68.8 L 537.8 66.8 L 596.9 -47.8 L 562.4 -86.4 L 662.7 -86.7 L 676.2 -159.5 L 766.8 -113.9 L 832.4 -94.5 L 981.9 -116.3 L 996.2 -152 L 1067 -157.3 L 1153.7 -184.9 L 1172.9 -173.6 L 1256.5 -195.8 L 1298.3 -237.7 L 1356.6 -248.5 L 1547.3 -194.4 L 1585.3 -212.7 Z" />
<path class="neighbor" d="M 2679.8 309.7 L 2759.2 342.5 L 2842.9 313.8 L 2923.7 344.4 L 2927.8 390.3 L 2841.5 428.6 L 2787.4 412 L 2737.6 626.7 L 2632.9 608 L 2503.3 543.3 L 2293.8 584.7 L 2205.5 630.1 L 1944 620.8 L 1807.2 593 L 1738.2 606 L 1687 532.8 L 1654.4 501.8 L 1695.7 471.8 L 1651.7 449.6 L 1595.8 489.5 L 1492 437.8 L 1478.1 364.4 L 1369.6 322.5 L 1349.6 265.8 L 1253.1 195.9 L 1395.9 162.3 L 1503.5 41.6 L 1587.8 -79.2 L 1696.5 -116.5 L 1773.4 -154.6 L 1883.5 -134.9 L 1997.7 -134.3 L 2080.3 -90.8 L 2141.1 -118.1 L 2272.5 -135.2 L 2317.3 -176.8 L 2392.4 -176.8 L 2446.7 -159.4 L 2501.8 -106.6 L 2558.3 -31.6 L 2661 74.3 L 2666.7 152.4 L 2647.9 228.5 L 2679.8 309.7 Z" />
<path class="neighbor" d="M 2333.8 2123.6 L 2311.5 2176.1 L 2055.2 2191.2 L 2056.9 2161.8 L 1839.7 2127.1 L 1872.7 2051.4 L 1970 2111.4 L 2108.6 2101.3 L 2241.1 2113.9 L 2236.8 2144.9 L 2333.8 2123.6 Z M 1739.6 1048.6 L 1871.3 1053.7 L 2013.8 1004.8 L 2139.2 1067 L 2301 1050.2 L 2303 961.5 L 2389.7 1008.7 L 2334.6 1120.1 L 2292.3 1140.1 L 2183.8 1135 L 2090.9 1118.2 L 1875.3 1164.5 L 1998.7 1264.5 L 1908.3 1293.6 L 1809.1 1293.7 L 1714.9 1202 L 1681.5 1241.1 L 1721.3 1347.4 L 1810.4 1431 L 1743.3 1470 L 1842.4 1552.1 L 1930.5 1603.7 L 1933.2 1704.3 L 1768.5 1657.1 L 1821 1747.9 L 1708 1766.6 L 1775.5 1923.7 L 1657.3 1925.9 L 1511.3 1848.5 L 1444.5 1706.1 L 1413.4 1587.6 L 1343.9 1505.8 L 1252.7 1404.3 L 1240.7 1353.6 L 1323.4 1267.2 L 1334.1 1209.3 L 1392 1183.5 L 1395.5 1136.8 L 1512 1121 L 1579.9 1082.1 L 1676.4 1085.5 L 1705.6 1054.5 L 1739.6 1048.6 Z" />
<path class="neighbor" d="M 1395.5 1136.8 L 1392 1183.5 L 1334.1 1209.3 L 1323.4 1267.2 L 1240.7 1353.6 L 1210.4 1341.1 L 1206.8 1301.9 L 1108.2 1242.1 L 1092.7 1157.3 L 1107.8 1035.8 L 1132.1 980.6 L 1102.1 952.5 L 1102.1 952.5 L 1090.1 895.9 L 1167.3 808.2 L 1178.6 841.7 L 1226.5 825.9 L 1264.5 873.7 L 1307.1 891.9 L 1319 956.5 L 1319 956.5 L 1296.4 1017.1 L 1321.7 1093.4 L 1395.5 1136.8 Z" />
<path class="neighbor" d="M 602.4 128.9 L 658.9 150.8 L 792 227.2 L 939.1 261.4 L 1005.6 234.8 L 1048.9 303.8 L 1105.4 354.5 L 1036.9 421.5 L 956.4 382.1 L 833.3 384.6 L 680.2 355 L 597 358.9 L 558.5 395.9 L 494.6 355 L 457.3 428.9 L 544.5 512.1 L 583.1 567.3 L 664.9 633.8 L 732.8 673.2 L 800 747.6 L 957.6 815 L 938 845.3 L 938 845.3 L 770.6 779.4 L 667.4 715.3 L 504.6 662.4 L 354.8 531.4 L 390.8 518.1 L 309.6 443.2 L 306.3 383.1 L 191.8 355 L 137.2 431.8 L 84.7 372.2 L 88.7 310.4 L 95 307.5 L 219.1 313.6 L 251.7 283.6 L 312.2 312.6 L 382.1 316.1 L 381.5 266.3 L 443.3 248.1 L 460.6 176.2 L 602.4 128.9 Z" />
<path class="neighbor" d="M -487.6 59.5 L -379.7 84.8 L -359 51 L -183.1 20 L -143.3 81.9 L 111.3 127.9 L 92 215.6 L 134.6 291.4 L -7.1 265.5 L -151.8 328.7 L -142 417 L -163.8 467.7 L -105.4 558.4 L 61.5 648.1 L 151.1 795.2 L 349.2 938.7 L 488.7 937.6 L 532.1 977 L 482.1 1012.4 L 641.6 1076.8 L 772.3 1130.6 L 924.9 1223.5 L 943.4 1256.7 L 910.1 1320.5 L 811.3 1237.4 L 656.6 1208.1 L 581.7 1323.2 L 710.4 1389.2 L 689.3 1482.1 L 614.9 1492.7 L 519.8 1645.4 L 445.6 1659.1 L 446.3 1604.7 L 482.6 1509.2 L 521.3 1471.1 L 451.8 1368 L 397.4 1278.2 L 323.5 1256 L 270.9 1179.2 L 156.5 1146.8 L 79.5 1075.2 L -52.2 1063.7 L -191.3 983.3 L -354.2 867.4 L -475.2 764.9 L -530.8 588.9 L -619.4 568.2 L -764.2 509.4 L -846.2 533.5 L -949 616.1 L -1023 629.2 L -1002.6 551.9 L -1099.1 529.3 L -1145 391.5 L -1083.3 337.3 L -1135.7 270.5 L -1128.3 220.2 L -1051.7 258.3 L -965.9 249.8 L -866.1 189.5 L -835.2 217.7 L -750.4 212 L -711.9 140.2 L -580.1 162.5 L -501.7 132.5 L -487.6 59.5 Z M 281.3 1617.2 L 416.4 1601.7 L 352.3 1741.8 L 379 1797 L 341.6 1888.5 L 205.4 1821.5 L 114.9 1802.3 L -133.6 1711.8 L -108.7 1620.4 L 99.7 1636.6 L 281.3 1617.2 Z M -796.1 1126.6 L -707 1071.4 L -600.2 1197.8 L -625.2 1433.2 L -706.2 1422 L -778.8 1481.4 L -846.2 1434.2 L -853.3 1219.4 L -894 1117.7 L -796.1 1126.6 Z" />
<path class="neighbor" d="M 111.3 127.9 L 258.3 141.7 L 348.2 101.3 L 503.9 96.9 L 537.8 66.8 L 567.8 68.8 L 602.4 128.9 L 460.6 176.2 L 443.3 248.1 L 381.5 266.3 L 382.1 316.1 L 312.2 312.6 L 251.7 283.6 L 219.1 313.6 L 95 307.5 L 134.6 291.4 L 92 215.6 L 111.3 127.9 Z" />
<path class="neighbor" d="M 1637.8 873.7 L 1726.9 930.8 L 1739.6 1048.6 L 1705.6 1054.5 L 1676.4 1085.5 L 1579.9 1082.1 L 1512 1121 L 1395.5 1136.8 L 1321.7 1093.4 L 1296.4 1017.1 L 1319 956.5 L 1319 956.5 L 1341.7 957.9 L 1349.6 921.5 L 1454.8 893.9 L 1494.6 887.1 L 1555.3 876.7 L 1637.8 873.7 Z" />
<path class="neighbor" d="M 1005.6 234.8 L 1005.6 234.8 L 1142 188 L 1253.1 195.9 L 1349.6 265.8 L 1369.6 322.5 L 1478.1 364.4 L 1492 437.8 L 1595.8 489.5 L 1651.7 449.6 L 1695.7 471.8 L 1654.4 501.8 L 1687 532.8 L 1643.1 573.2 L 1659.1 638.2 L 1745.6 715.1 L 1677.7 770.8 L 1647.7 827.4 L 1667 848.6 L 1637.8 873.7 L 1555.3 876.7 L 1494.6 887.1 L 1488.7 873.7 L 1510 852.5 L 1530 809.2 L 1504.7 810.2 L 1470.1 777.2 L 1440.8 768.8 L 1417.5 740.5 L 1384.2 729.4 L 1359 704.3 L 1327 714.1 L 1302.4 773.2 L 1259.8 786 L 1274.4 770.8 L 1206.6 733.8 L 1148.1 714.6 L 1122.1 690 L 1074.8 659.4 L 1116.7 651.5 L 1142.7 567.8 L 1056.9 499.3 L 1101.4 421 L 1036.9 421.5 L 1036.9 421.5 L 1105.4 354.5 L 1048.9 303.8 L 1005.6 234.8 Z" />
<path class="neighbor" d="M 1226.5 825.9 L 1178.6 841.7 L 1167.3 808.2 L 1090.1 895.9 L 1102.1 952.5 L 1064.8 938.7 L 1014.9 880.6 L 938 845.3 L 957.6 815 L 983.7 717.1 L 1041.5 675.7 L 1074.8 659.4 L 1122.1 690 L 1148.1 714.6 L 1206.6 733.8 L 1274.4 770.8 L 1259.8 786 L 1226.5 825.9 Z" />
<path class="neighbor" d="M 1319 956.5 L 1307.1 891.9 L 1264.5 873.7 L 1226.5 825.9 L 1259.8 786 L 1302.4 773.2 L 1327 714.1 L 1359 704.3 L 1384.2 729.4 L 1417.5 740.5 L 1440.8 768.8 L 1470.1 777.2 L 1504.7 810.2 L 1530 809.2 L 1510 852.5 L 1488.7 873.7 L 1494.6 887.1 L 1454.8 893.9 L 1349.6 921.5 L 1341.7 957.9 L 1319 956.5 Z" />

<path class="country" d="M 957.6 815 L 800 747.6 L 732.8 673.2 L 664.9 633.8 L 583.1 567.3 L 544.5 512.1 L 457.3 428.9 L 494.6 355 L 558.5 395.9 L 597 358.9 L 680.2 355 L 833.3 384.6 L 956.4 382.1 L 1036.9 421.5 L 1036.9 421.5 L 1101.4 421 L 1056.9 499.3 L 1142.7 567.8 L 1116.7 651.5 L 1074.8 659.4 L 1041.5 675.7 L 983.7 717.1 L 957.6 815 Z" />


<g class="city"><circle cx="1296.9197883563486" cy="428.56113163016846" r="5" /><text x="1308.9197883563486" y="432.56113163016846">Belgrade</text></g>
<g class="city"><circle cx="501.81130956735007" cy="254.19184202042248" r="5" /><text x="513.81130956735" y="258.1918420204225">Zagreb</text></g>
<g class="city"><circle cx="926.0674353862584" cy="601.3553549706498" r="5" /><text x="938.0674353862584" y="605.3553549706498">Sarajevo</text></g>
<g class="city"><circle cx="1469.1526706832678" cy="930.7209929494702" r="5" /><text x="1481.1526706832678" y="934.7209929494702">Skopje</text></g>
<g class="city"><circle cx="1421.5326864508825" cy="812.0250528586646" r="5" /><text x="1433.5326864508825" y="816.0250528586646">Pristina</text></g>
<g class="city"><circle cx="237.42627943510558" cy="208.74315972315048" r="5" /><text x="249.42627943510558" y="212.74315972315048">Ljubljana</text></g>
<g class="city"><circle cx="1187.2323656414624" cy="352.0448146260302" r="5" /><text x="1199.2323656414624" y="356.0448146260302">Novi Sad</text></g>
<g class="city"><circle cx="711.8876203325597" cy="435.71560355247414" r="5" /><text x="723.8876203325597" y="439.71560355247414">Banja Luka</text></g>
<text class="map-title" x="80" y="105">Bosnia and Herzegovina Political Study Map</text>
<text class="map-subtitle" x="80" y="145">Capital: Sarajevo | Continent: Europe</text>
  <text class="footer" x="80" y="1036">Made with Natural Earth. Free vector and raster map data @ naturalearthdata.com.</text>
</svg>
