<?xml version="1.0" encoding="UTF-8"?>
<svg xmlns="http://www.w3.org/2000/svg" width="1600" height="1100" viewBox="0 0 1600 1100" role="img" aria-labelledby="title desc">
  <title id="title">Bangladesh Physical Study Map</title>
  <desc id="desc">Made with Natural Earth. Free vector and raster map data @ naturalearthdata.com.</desc>
  <defs>
    <linearGradient id="terrain" x1="0" x2="1" y1="0" y2="1">
      <stop offset="0%" stop-color="#6c8c53" />
      <stop offset="42%" stop-color="#d5c487" />
      <stop offset="72%" stop-color="#b88b5f" />
      <stop offset="100%" stop-color="#f1f5ee" />
    </linearGradient>
    <filter id="softShadow" x="-10%" y="-10%" width="120%" height="120%">
      <feDropShadow dx="0" dy="10" stdDeviation="12" flood-color="#0f172a" flood-opacity="0.16" />
    </filter>
    <style>
      .neighbor { fill: #ffffff; stroke: #94a3b8; stroke-width: 1.2; opacity: 0.72; }
      .country { fill: url(#terrain); stroke: #1f2937; stroke-width: 4; filter: url(#softShadow); }
      .admin1 { fill: none; stroke: #64748b; stroke-width: 1.1; stroke-dasharray: 6 7; opacity: 0.75; }
      .river { fill: none; stroke: #1d9bd1; stroke-width: 3; stroke-linecap: round; opacity: 0.88; }
      .lake { fill: #8ed1ea; stroke: #0ea5e9; stroke-width: 1.5; opacity: 0.8; }
      .city circle { fill: #ef4444; stroke: #ffffff; stroke-width: 2; }
      .city text, .terrain-label { fill: #172033; font: 700 24px system-ui, sans-serif; paint-order: stroke; stroke: #ffffff; stroke-width: 5; stroke-linejoin: round; }
      .map-title { fill: #0f172a; font: 800 46px system-ui, sans-serif; }
      .map-subtitle { fill: #475569; font: 600 24px system-ui, sans-serif; }
      .footer { fill: #64748b; font: 500 18px system-ui, sans-serif; }
    </style>
  </defs>
  <rect width="100%" height="100%" fill="#d8edf0" />
  <rect x="40" y="40" width="1520" height="1020" rx="32" fill="#ffffff" opacity="0.54" />
  <path class="neighbor" d="M 1575.5 835.2 L 1529.9 853.6 L 1483.4 888.1 L 1427.2 891.7 L 1390.9 977.8 L 1357.3 992.2 L 1395.8 1062.1 L 1446.3 1120.3 L 1479 1172.8 L 1449.8 1242.1 L 1422.3 1256.8 L 1441.3 1296.8 L 1494.4 1360 L 1503.5 1404.5 L 1502.3 1441.5 L 1533.4 1514.1 L 1489.7 1588.4 L 1451.1 1670.2 L 1443.4 1611.1 L 1467.9 1550.1 L 1441.1 1503 L 1447.6 1416.2 L 1415.3 1374.9 L 1389.3 1279.6 L 1374.9 1179 L 1340.5 1113 L 1288 1153 L 1197.5 1209.8 L 1152.8 1202.7 L 1103.5 1184 L 1130.9 1085.3 L 1114.3 1010.7 L 1051.9 918.9 L 1061.6 890.2 L 1015 880 L 958.5 815 L 953.3 750.9 L 981.1 763 L 982.7 705.9 L 1022 687 L 1013.6 653.1 L 1031.6 626 L 1034.7 543.6 L 1096.9 561.7 L 1132.4 496.1 L 1136.5 457.3 L 1180.4 390.5 L 1178 344.9 L 1281.1 289.8 L 1338 304.2 L 1331.5 255.2 L 1359.4 240.6 L 1353.4 210.4 L 1400 204.5 L 1426.6 251.4 L 1461.4 270.4 L 1463.7 331.3 L 1460.5 397 L 1385.1 463.5 L 1375.5 558 L 1459.6 544.8 L 1478.6 618.1 L 1529 633.6 L 1505.8 699.7 L 1565 729.6 L 1599.5 744.3 L 1657.9 721.1 L 1660.3 754 L 1592.5 805.8 L 1575.5 835.2 Z" />
<path class="neighbor" d="M 1353.4 210.4 L 1359.4 240.6 L 1331.5 255.2 L 1338 304.2 L 1281.1 289.8 L 1178 344.9 L 1180.4 390.5 L 1136.5 457.3 L 1132.4 496.1 L 1096.9 561.7 L 1034.7 543.6 L 1031.6 626 L 1013.6 653.1 L 1022 687 L 982.7 705.9 L 940.8 579.5 L 918.8 579.8 L 905.8 630.7 L 862.2 589.4 L 886.7 544.1 L 922.4 539.5 L 959.1 472.1 L 913.2 458.5 L 839.3 459.6 L 763.5 448.7 L 756.5 393.3 L 718.5 389.4 L 655.4 355 L 627.3 409 L 684.8 451.2 L 635 480.9 L 617.3 509.9 L 666.3 531.2 L 652.8 579.2 L 680.4 639.1 L 692.7 704.7 L 681.3 733.8 L 627.2 732.8 L 529 749.3 L 533.6 809.2 L 491 856.4 L 376.4 910 L 287.3 1003.7 L 227.4 1053.9 L 148 1106 L 147.9 1142.7 L 108.2 1162.3 L 36.5 1190.8 L -0.7 1195 L -24.6 1255.8 L -8 1359.4 L -3.8 1425.4 L -37.5 1501.1 L -37.9 1636.4 L -79.1 1640.3 L -115.4 1701 L -91.1 1727.3 L -163.8 1749.9 L -190.6 1804 L -222.5 1826.9 L -298 1752.5 L -334.8 1641 L -365.4 1560.7 L -393.3 1523 L -435.6 1446.5 L -455.3 1346.9 L -469.1 1297.1 L -541.6 1187.8 L -574.6 1033.4 L -598.4 931.5 L -598.1 835 L -613.5 760.4 L -729.4 808.1 L -785.6 798.6 L -889.6 702 L -851.3 673.2 L -874.8 642 L -968.3 574.4 L -915.2 521.2 L -740 521.5 L -755.8 453.1 L -800.5 412.7 L -809.6 351.4 L -861.7 315.6 L -773.9 232.1 L -681.5 238.2 L -598.2 154.7 L -548.2 73.9 L -470.9 -6.1 L -472.1 -62.8 L -404.2 -108.9 L -468.5 -148.2 L -496.2 -202.1 L -524.4 -271.9 L -485.3 -306.2 L -364.5 -286.8 L -275.8 -298.6 L -198.8 -365.6 L -113.2 -272.2 L -121.3 -207.3 L -89.6 -166.5 L -92.2 -125.8 L -149.4 -136.5 L -127 -48.7 L -48.8 1.7 L 61.9 57.4 L 11.4 93.5 L -19.6 168 L 57.6 198.1 L 132.7 237.2 L 236.6 281.9 L 345.7 292.2 L 391.7 332.7 L 453.2 340.3 L 549 358.9 L 615.4 357.5 L 624.5 326 L 614 275.4 L 620.2 241.1 L 668.7 224.4 L 675.4 287.1 L 677.1 303 L 749.5 333.3 L 799.6 320.8 L 866.8 326.2 L 931.8 323.8 L 937.4 274.9 L 905 249.5 L 969.2 239.5 L 1041.7 180.3 L 1133.5 129.5 L 1200.3 149.1 L 1257.1 115.6 L 1294.4 165.1 L 1267.5 198.5 L 1353.4 210.4 Z" />
<path class="neighbor" d="M 905 249.5 L 937.4 274.9 L 931.8 323.8 L 866.8 326.2 L 799.6 320.8 L 749.5 333.3 L 677.1 303 L 675.4 287.1 L 728.1 227.9 L 771.1 207.7 L 828 226.1 L 870.1 228 L 905 249.5 Z" />
<path class="neighbor" d="M 620.2 241.1 L 614 275.4 L 624.5 326 L 615.4 357.5 L 549 358.9 L 453.2 340.3 L 391.7 332.7 L 345.7 292.2 L 236.6 281.9 L 132.7 237.2 L 57.6 198.1 L -19.6 168 L 11.4 93.5 L 61.9 57.4 L 94.9 38.3 L 158.8 62.8 L 239.2 114.7 L 283.9 126.1 L 310.7 164.4 L 372.6 180.1 L 437.2 215.1 L 527.3 233.3 L 620.2 241.1 Z" />
<path class="neighbor" d="M 2320.9 1012 L 2255.6 987.3 L 2253.3 918.8 L 2292.6 882.7 L 2379.6 860.4 L 2425.4 862.3 L 2443.2 892.6 L 2408.2 927.7 L 2389.8 973.7 L 2320.9 1012 Z M -5.9 -911.6 L -12.3 -957 L 42.4 -977.8 L -29.3 -1116.1 L 128.5 -1147.9 L 169.2 -1165.7 L 226.7 -1308.3 L 384.7 -1282.1 L 429 -1318.1 L 432.8 -1397.9 L 499 -1405.4 L 559.6 -1458.4 L 590.7 -1464.9 L 611.7 -1409.4 L 678.6 -1367.1 L 792.2 -1337.2 L 847.2 -1273.1 L 816.5 -1180 L 845.2 -1145.5 L 939.8 -1131.9 L 1047.1 -1120.7 L 1143.3 -1071.1 L 1192.5 -1062.3 L 1228.8 -988.8 L 1275.5 -941.5 L 1363.3 -943.4 L 1527.7 -925.5 L 1633.7 -936.6 L 1712.3 -924.8 L 1830.1 -876.4 L 1926.5 -876.5 L 1961.7 -851.7 L 2054.5 -894.5 L 2183.1 -922.1 L 2302.5 -925.1 L 2395.6 -953.1 L 2452.7 -995.8 L 2508.5 -1022.6 L 2495.6 -1048.9 L 2470.1 -1079.5 L 2511.9 -1130.8 L 2556.8 -1123.6 L 2638.6 -1107.5 L 2718 -1149.8 L 2839.4 -1180.6 L 2897.8 -1233.3 L 2953.8 -1255.9 L 3069.5 -1266.5 L 3132.4 -1257.5 L 3141.1 -1285.8 L 3068.9 -1341.5 L 3005 -1366.9 L 2943.8 -1337.5 L 2865.2 -1349.9 L 2820.1 -1339.8 L 2799.6 -1372.4 L 2855.9 -1452 L 2894.7 -1512 L 2990.3 -1482 L 3102.5 -1532.3 L 3101.8 -1567.3 L 3173.7 -1651.8 L 3218 -1677.3 L 3217 -1721.3 L 3173.3 -1740.2 L 3239.1 -1779.9 L 3338.1 -1794.2 L 3443.6 -1796.4 L 3562.8 -1772.7 L 3632.8 -1743.3 L 3682 -1663 L 3711.9 -1628.7 L 3739.6 -1579.8 L 3769.1 -1501.8 L 3907.7 -1476.4 L 4002 -1419.7 L 4034.3 -1344.9 L 4155.3 -1344.8 L 4224.3 -1376.2 L 4356 -1399.7 L 4314.1 -1328 L 4283.2 -1298.9 L 4255.9 -1211.6 L 4202.3 -1134.2 L 4105.6 -1148.3 L 4037.3 -1120.1 L 4058.3 -1051.9 L 4046.8 -957.8 L 4006.1 -955.7 L 4006.6 -915.2 L 3955.2 -962.2 L 3923.5 -917.6 L 3800.5 -883.3 L 3813 -841.3 L 3744.1 -844.2 L 3706.3 -869.1 L 3651.6 -812.7 L 3563.8 -769.8 L 3498.9 -718.8 L 3387.6 -695.6 L 3328.9 -658.4 L 3243.2 -636.7 L 3285.5 -673.6 L 3268.8 -704.6 L 3331.9 -758.1 L 3289.8 -799.8 L 3220.4 -771.7 L 3130.5 -716.3 L 3081.4 -664.9 L 3003.3 -661.1 L 2962.7 -623.9 L 3004.7 -570.1 L 3069.8 -557 L 3072.5 -521.2 L 3135.5 -498 L 3224.8 -554.9 L 3295.5 -523.8 L 3347 -521.7 L 3359.9 -480 L 3247.1 -457.8 L 3209.9 -414.8 L 3132.5 -374.8 L 3091.6 -319.1 L 3177.3 -275.3 L 3208.6 -197 L 3257.1 -124 L 3311.2 -62.8 L 3309.9 -3.6 L 3259.9 18.1 L 3278.9 60.6 L 3325.8 85.3 L 3313.6 150.2 L 3293.3 213.3 L 3248.8 220.5 L 3190.7 306.7 L 3126.2 411.2 L 3052.2 506.3 L 2942.7 579.8 L 2831.9 646.8 L 2742.2 655.9 L 2693.5 691.3 L 2665.9 665.5 L 2620.9 705.1 L 2509.6 744.9 L 2425.3 757.2 L 2398.1 841.3 L 2354 845.9 L 2333.1 788.1 L 2352 757.3 L 2245.1 731.8 L 2207.5 744.8 L 2127.3 724.1 L 2089.3 691.8 L 2101.9 645.9 L 2029.1 631.3 L 1990.7 601.5 L 1922.9 643.9 L 1845.4 653.1 L 1781.9 652.7 L 1739.2 672.1 L 1697.9 683.8 L 1709.9 774.9 L 1667.4 772.7 L 1660.3 754 L 1657.9 721.1 L 1599.5 744.3 L 1565 729.6 L 1505.8 699.7 L 1529 633.6 L 1478.6 618.1 L 1459.6 544.8 L 1375.5 558 L 1385.1 463.5 L 1460.5 397 L 1463.7 331.3 L 1461.4 270.4 L 1426.6 251.4 L 1400 204.5 L 1353.4 210.4 L 1267.5 198.5 L 1294.4 165.1 L 1257.1 115.6 L 1200.3 149.1 L 1133.5 129.5 L 1041.7 180.3 L 969.2 239.5 L 905 249.5 L 870.1 228 L 828 226.1 L 771.1 207.7 L 728.1 227.9 L 675.4 287.1 L 668.7 224.4 L 620.2 241.1 L 527.3 233.3 L 437.2 215.1 L 372.6 180.1 L 310.7 164.4 L 283.9 126.1 L 239.2 114.7 L 158.8 62.8 L 94.9 38.3 L 61.9 57.4 L -48.8 1.7 L -127 -48.7 L -149.4 -136.5 L -92.2 -125.8 L -89.6 -166.5 L -121.3 -207.3 L -113.2 -272.2 L -198.8 -365.6 L -329.8 -397.8 L -353.4 -459 L -412.2 -496.1 L -426.4 -519 L -438.4 -564.4 L -435.6 -595.3 L -484 -613.5 L -510.1 -605.5 L -530.3 -679.2 L -507.7 -697.4 L -518.6 -716 L -442.6 -753.6 L -387.6 -769.2 L -303.3 -758.5 L -273.1 -809.4 L -171 -818.9 L -142.6 -850.5 L -17.1 -893.6 L -5.9 -911.6 Z" />
<path class="lake" d="M 844 157.7 L 840.7 156.9 L 838.9 157.4 L 838 157.4 L 836.3 157 L 834.2 156.5 L 831 158.5 L 829.7 161.6 L 828.7 162.3 L 826.8 161 L 823.2 162.5 L 820.1 164.5 L 816.9 167.8 L 814.9 168.6 L 812.4 168.7 L 810.3 167.2 L 808 164.8 L 806 162.8 L 805.5 161.4 L 806.2 160.6 L 807.6 160.8 L 809 162 L 810.5 162.8 L 812.1 162.7 L 814.5 161.7 L 817.1 159.4 L 819.3 156.5 L 821.4 153.7 L 823.4 150.8 L 822.7 147.9 L 822.3 144.6 L 821.9 141.6 L 820 139.6 L 816.8 138.3 L 812.4 138.5 L 807.9 140.1 L 803.6 142.8 L 800.8 144.2 L 800.6 143.1 L 803.6 140.7 L 809.9 136.6 L 814.6 134.8 L 820.2 136.3 L 824.9 138.8 L 827.9 141.3 L 827.6 143 L 827.1 144.2 L 827.3 145.9 L 828 147.5 L 831 150.6 L 832.6 152.4 L 835.9 152.5 L 837.1 150.6 L 839.6 149.7 L 843 150 L 846.6 151.4 L 848.9 153.4 L 848.6 155.6 L 849.7 159.2 L 848.9 160.2 L 846 158.7 L 844 157.7 L 844 157.7 L 844 157.7 L 844 157.7 Z" />
<path class="country" d="M 982.7 705.9 L 981.1 763 L 953.3 750.9 L 958.5 815 L 935.7 773.5 L 931.1 732.9 L 916 694.6 L 882.7 648.2 L 809.4 645 L 816.6 677.9 L 791.6 722.2 L 757.7 706 L 746.1 720.5 L 723.6 711.8 L 692.7 704.7 L 680.4 639.1 L 652.8 579.2 L 666.3 531.2 L 617.3 509.9 L 635 480.9 L 684.8 451.2 L 627.3 409 L 655.4 355 L 718.5 389.4 L 756.5 393.3 L 763.5 448.7 L 839.3 459.6 L 913.2 458.5 L 959.1 472.1 L 922.4 539.5 L 886.7 544.1 L 862.2 589.4 L 905.8 630.7 L 918.8 579.8 L 940.8 579.5 L 982.7 705.9 Z" />

<path class="river" d="M 1368.7 414.4 L 1367.8 415.3 L 1368.4 417 L 1367.6 423.2 L 1363.1 437 L 1358.7 443.4 L 1354.5 442.3 L 1350.6 445.5 L 1347.2 453 L 1347.2 458.1 L 1350.7 460.6 L 1350.4 462.3 L 1346.4 463 L 1344.6 465.1 L 1344.9 468.7 L 1342.9 471.7 L 1336.7 475.5 L 1331.8 483.3 L 1331.7 489.7 L 1335 497.3 L 1336.7 505.9 L 1336.9 515.4 L 1338.7 522.2 L 1342 526.3 L 1343.1 529.8 L 1342 532.8 L 1336.5 535.7 L 1326.6 538.3 L 1318.8 536.4 L 1312.9 530 L 1306.4 525.4 L 1299.3 522.7 L 1292.4 522.5 L 1285.9 524.6 L 1279.8 529.8 L 1274.1 538.1 L 1270.9 545.2 L 1270 554.1 L 1254.5 577.5 L 1248.2 600.9 L 1246 632.2 L 1243.6 649.1 L 1241.1 651.6 L 1241.6 656.4 L 1245.2 663.4 L 1246.4 669.7 L 1245.4 675.2 L 1245.8 679.1 L 1247.8 681.5 L 1249.3 690.8 L 1250.4 707.1 L 1248.5 716.6 L 1243.4 719.3 L 1238.1 719.1 L 1232.7 716.1 L 1224.6 714.9 L 1214.1 715.4 L 1206.4 719.4 L 1201.4 726.7 L 1197.8 735.8 L 1195.5 746.5 L 1193.2 752.3 L 1189.5 753.9 L 1181.9 761.3 L 1172.9 766 L 1160.1 770.3 L 1153.7 777.1 L 1153.7 786.4 L 1151.6 794.1 L 1147.4 800.5 L 1149 812.6 L 1156.7 830.4 L 1160.7 844.2 L 1161.1 853.7 L 1164.6 862.8 L 1174.5 875.6 L 1179.3 880.8 L 1181.6 891.5 L 1183 909.5 L 1182.2 926 L 1178.9 941.2 L 1179.2 952.4 L 1183.1 959.9 L 1182.4 966.3 L 1177.1 971.8 L 1174.1 976.7 L 1173.4 980.9 L 1179.5 989.6 L 1192.2 1002.8 L 1199.9 1013.3 L 1202.6 1021.2 L 1204.1 1031.2 L 1204.3 1039.2 L 1204.4 1043.4 L 1205.7 1048.1 L 1206.7 1051.8 L 1211 1056.2 L 1212.8 1060.7 L 1212.1 1065.3 L 1214.3 1069.2 L 1219.4 1072.4 L 1220.2 1076.3 L 1216.7 1081 L 1216.1 1087.1 L 1218.4 1094.8 L 1217.9 1100.5 L 1214.5 1104.3 L 1213.8 1109.2 L 1215.8 1115.2 L 1211.3 1120.3 L 1206.4 1122.2 L 1200.3 1124.5 L 1194.4 1129.6 L 1193.7 1135.5 L 1186.9 1145.6 L 1167.5 1167 L 1164.3 1170.3 L 1159.6 1172.4" />
<path class="river" d="M 749.1 523.6 L 747.1 539.1 L 746.6 552.8 L 749.5 561.1 L 759.3 572.1 L 769.4 580 L 775.8 583.8 L 791.1 592.9 M 749.1 523.6 L 754.6 536.2 L 763.7 543.3 L 779.1 552.2 L 786.9 560.3 L 787.2 567.7 L 789.3 571 L 793.1 570.1 L 798.2 573.1 L 807.8 583.1 L 814.6 586.7 M 1199.7 231 L 1203.4 240.5 L 1197.5 246.7 L 1183.1 252.8 L 1177.4 255.3 L 1176.3 256.5 L 1176.7 256.9 L 1177.8 257.1 L 1179 257.9 L 1179.1 259.6 L 1174.7 261.9 L 1165.9 264.2 L 1158.4 267.7 L 1152.2 272.2 L 1146.2 278 L 1140.3 285.3 L 1138.6 288.8 L 1136 292.3 L 1133.6 295.9 L 1132.9 300.5 L 1129.7 305.2 L 1123.7 309.8 L 1115.1 314.7 L 1103.8 320 L 1097.9 321.5 L 1090.3 321.5 L 1068.6 332.3 L 1040.9 331.7 L 1028.3 333.4 L 1021.6 337.1 L 1009.5 339.9 L 991.8 341.8 L 981.4 344.4 L 978.1 347.7 L 972.5 349 L 964.4 348.4 L 954 351.1 L 941.5 357.2 L 934.8 361.8 L 934.1 364.9 L 926.4 369 L 900.8 377.5 L 893 378.8 L 884.2 378.6 L 869.4 376 L 861.6 374.3 L 853.7 375.3 L 842.9 378.6 L 830.4 378.2 L 816 374.3 L 798.2 376.7 L 776.9 385.4 L 761.1 398.4 L 750.9 415.9 L 745.9 431.2 L 746.1 444.4 L 744.4 456.8 L 739.7 468.1 L 739 474.3 L 739.5 478.6 L 748.3 498.1 L 749.9 517.1 L 749.1 523.6" />
<path class="river" d="M 1116.8 127 L 1130.3 116.7 L 1139.5 113.1 L 1148.8 112.7 L 1155.6 110.1 L 1159.9 105.4 L 1161.6 101 L 1160.8 96.7 L 1164.8 93.6 L 1173.6 91.7 L 1178.1 88.5 L 1178.2 83.8 L 1181.7 81.9 L 1188.3 82.5 L 1191.5 83.9 L 1191.2 86 L 1192.9 87.8 L 1196.7 89.4 L 1199.5 96.6 L 1201.3 109.3 L 1198.8 118.9 L 1191.8 125.4 L 1183.3 131.1 L 1173.2 135.8 L 1163.6 144.5 L 1154.6 157 L 1152.9 163.9 L 1158.5 165.2 L 1165 171.5 L 1172.2 182.7 L 1175.8 191 L 1175.5 196.3 L 1173.5 201.3 L 1169.5 206.1 L 1168.3 210.7 L 1169.8 215.2 L 1175.1 217.6 L 1184 217.8 L 1191.2 221.2 L 1199.7 231" />
<path class="river" d="M 728.7 687.2 L 724.1 669.7 L 719.8 662.9 L 714.1 659.9 M 714.1 659.9 L 711 663.5 L 710.6 673.7 L 713 684.6 L 718.4 696.4 L 720.4 704.5 L 718.3 711.3 L 718.1 718.3 L 717 726 L 718.4 731.4 M 645.6 630.6 L 641.2 640 L 638.2 650.6 L 637.9 659 L 633.7 665.4 L 625.3 669.7 L 619.9 676.5 L 617.5 691.8 M 645.6 630.6 L 651.9 631.5 L 658.2 631.5 L 664.9 633.2 L 670.8 636.3 L 675.9 640.8 L 677.7 645.2 L 676.1 649.5 L 677.9 653.4 L 683 656.7 L 687.9 668.5 L 694.2 687.3 L 694.7 694.3 L 694.3 701.7 M 775.8 583.8 L 777.5 602.4 L 780 609.4 L 784.3 613.1 L 788 615.3 L 789.3 618.5 L 791 620.3 L 793.6 622.5 L 793.9 625.2 L 795 628.3 L 798.7 632.6 L 798.6 639.4 L 801.3 647.4 L 804.5 649.3 M 698.9 550.5 L 707.6 565.1 L 714.2 571.2 L 720.6 574.2 L 725.8 578.5 L 730 584 L 731.6 587.7 L 730.7 589.7 L 732.2 591 L 736 591.5 L 737.9 594.2 L 737.8 599 L 739.2 602.7 L 740.6 605.5 L 741 609.4 L 742.7 611.7 L 746.7 614.2 L 747.4 618.9 L 751.2 627.9 L 764 642.2 L 770.5 654.6 L 770.9 664.3 L 768.7 672 M 698.9 550.5 L 706.1 555.2 L 712.6 555.4 L 720.5 557.7 L 729.8 562.3 L 738.3 563.9 L 749.9 562 M 642.2 518.9 L 651.2 529 L 653.1 533.2 L 652.5 536.7 L 654.7 539.6 L 659.6 542 L 661.8 545.1 L 661.2 548.9 L 665.5 552.4 L 674.7 555.6 L 679.4 561.3 L 679.7 569.6 L 677.2 576.5 L 672.1 581.9 L 671.4 587.2 L 675.2 592.6 L 678.5 594.4 L 681 595.8 L 682.7 598.4 L 684.3 600.5 L 689.3 603 L 690.3 608.5 L 692.4 614.7 L 697.3 620.5 L 699.2 626.3 L 698.2 631.9 L 699.2 638.1 L 702.5 644.7 L 706.8 649.5 L 711.6 652.8 L 712.1 653.2 L 711.8 655.1 L 714.1 659.9 M 642.2 518.9 L 650.3 522.2 L 661.7 523.9 L 668.2 528 L 669.7 534.4 L 671.9 538.4 L 674.8 539.7 L 678.9 539.4 L 684.3 537.5 L 691 541.2 L 698.9 550.5 M 604.2 484.1 L 605.8 496.8 L 612.1 506.6 L 624.5 518.9 L 629.5 531.2 L 627.2 543.6 L 626.9 554.3 L 628.6 563.3 L 627.7 570.6 L 625.2 573.7 L 627.6 578.8 L 632.2 582.7 L 634.8 586.3 L 638 587.3 L 639.3 592.8 L 638.6 602.9 L 640.4 609.2 L 644.8 611.4 L 647.7 614.7 L 649.3 618.9 L 647.1 627.3 L 645.6 630.6 M 604.2 484.1 L 606.3 489.9 L 610.5 497.2 L 616.9 506.1 L 622.1 511.2 L 628.5 513.2 L 633.4 511.6 L 637.4 513.7 L 642.2 518.9 M -39.3 1.2 L -40.9 5.3 L -40.2 9.3 L -37.8 14.5 L -37.4 17.9 L -39.8 20.4 L -46.9 28.7 L -53.1 30.4 L -60.8 28.2 L -68.8 30.9 L -81.3 42.4 L -87.8 48 L -93.6 49.3 L -100.9 48.1 L -111.1 48.7 L -124 51.3 L -132.6 55.9 L -137 62.8 L -144.5 64.8 L -155.1 62.1 L -163.5 64.6 L -169.7 72.2 L -172.3 80.8 L -171.3 90.5 L -174.8 98 L -182.7 103.4 L -184.1 112.5 L -179.1 125.2 L -177.4 137.2 L -179.2 148.5 L -178.1 161 L -171.9 181.9 L -166.6 189.7 L -164.3 196 L -163.3 203.2 L -159.1 211.1 L -151.6 219.6 L -137.9 229.2 L -117.8 239.8 L -104.3 245.2 L -97.3 245.6 L -92.9 248.3 L -91 253.3 L -85.9 256.7 L -77.7 258.5 L -70.7 261.5 L -64.9 265.7 L -59.2 273.8 L -53.5 285.7 L -47.9 293.6 L -39.5 299.4 L -32.8 300.9 L -26.7 308.9 L -19.1 323.9 L -7.7 339 L 7.6 354 L 16.7 365.3 L 19.6 372.9 L 25.3 379.5 L 33.9 385.3 L 42.6 387.6 L 51.3 386.3 L 62.8 391.5 L 77.2 403 L 84.5 410.8 L 84.8 415.1 L 89.5 418.8 L 98.6 421.9 L 104.7 425.3 L 107.7 429 L 113.2 430.5 L 121.3 429.8 L 125.3 431.4 L 125 437.3 L 136 445.3 L 142.2 447.5 L 147.3 446.6 L 149.8 448.5 L 150 449.6 L 150.7 450.8 L 151.7 451 L 153 450.6 L 154.5 449.4 L 156.6 449.5 L 158 451.9 L 160.2 452.2 L 162.9 450.3 L 167.4 451.5 L 173.5 455.6 L 176.7 455.6 L 177.6 454.1 L 179.3 452.8 L 182 452.7 L 195.3 458.7 L 202.7 458.9 L 209.6 455.3 L 213.7 451.2 L 215 446.7 L 218.2 443.9 L 223.4 442.8 L 225 440.2 L 223.1 436.2 L 223.4 432.7 L 225.9 429.6 L 231.6 428.9 L 240.5 430.6 L 247.3 433.1 L 251.3 434.8 L 253.2 433.4 L 253.2 430.6 L 253.6 427.7 L 260.1 423.7 L 265.7 421.9 L 269.1 423.2 L 272.2 427.1 L 276.3 428.9 L 281.3 428.6 L 288.7 424.2 L 298.5 415.8 L 305.6 412.7 L 310 414.9 L 314.6 414.4 L 319.3 411 L 326.1 410.7 L 335 413.6 L 342.5 413.8 L 348.6 411.4 L 357.8 410.7 L 370.1 411.7 L 381.1 415.8 L 390.7 423.1 L 398.6 426.9 L 404.5 427.6 L 408 427.4 L 411.5 426.8 L 415.8 426.9 L 420.8 430.9 L 427.1 432.5 L 434.2 430.8 L 441.7 433.4 L 449.6 440.2 L 459.1 444.4 L 470.1 446.1 L 480.8 443.1 L 491.1 435.4 L 496.7 434.6 L 497.8 440.5 L 500.4 445.1 L 504.5 448.2 L 510.4 447.9 L 518.2 444.2 L 528.1 444.7 L 540.1 449.5 L 548.3 448.9 L 552.8 443.1 L 558.8 439.7 L 566.3 438.8 L 572.1 441 L 576.4 446.3 L 582.2 449.7 L 589.4 451.3 L 593 454.8 L 593.1 460.3 L 596.6 465.1 L 603.5 469.2 L 606 473.7 L 604.1 478.8 L 604.2 484.1" />
<path class="river" d="M 1144.4 1146.2 L 1146.4 1133.4 L 1147.7 1124.7 L 1147.5 1114.7 L 1151.8 1104.6 L 1160.4 1094.3 L 1164.4 1086.9 L 1163.9 1082.3 L 1166.3 1079.3 L 1171.5 1077.8 L 1177.6 1069.7 L 1184.8 1055.1 L 1192.3 1046.3 L 1204.3 1039.2 L 1206.5 1037.3 L 1209.5 1035.1 L 1213.9 1035.4 L 1218.5 1042.9 L 1223.4 1057.6 L 1230.4 1072.5 L 1239.7 1087.4 L 1244.2 1097 L 1243.9 1101.4 L 1251.1 1109.8 L 1254.9 1119.6 L 1262.8 1125.8 M 1206.4 1122.2 L 1193.8 1160.9 L 1186.9 1176.4 L 1178.6 1185 L 1175.9 1190.4 L 1174.3 1199.8 M 1215.8 1115.2 L 1219.8 1125.9 L 1225.3 1130.5 L 1234.1 1135 L 1237.5 1139.8 L 1235.5 1144.9 L 1235.4 1148.9 L 1237.1 1152 L 1240.5 1154.2 L 1247.3 1155.9 L 1251.1 1159.9 M 1205.7 1048.1 L 1200.4 1050.2 L 1196.4 1054.3 L 1191.6 1063.2 L 1191.2 1067.4 L 1193.8 1070.1 L 1195.1 1073 L 1194.8 1077.2 L 1193.3 1079.7 L 1190.1 1081.7 L 1189.1 1083.3 L 1188.2 1089.5 L 1187.8 1093.2 L 1185.1 1095.9 L 1182.9 1101.2 L 1181.3 1109.1 L 1182 1115.1 L 1185 1119.2 L 1185.7 1123.6 L 1182.1 1133.3 L 1179.6 1138.4 L 1176.6 1141.3 L 1172.9 1142 L 1169.2 1146.9 L 1165.5 1156.1 L 1160.7 1164.1 L 1151.6 1174.1 L 1148 1180.6 L 1140.7 1187.9" />
<path class="river" d="M 23.2 820.7 L 23.6 811.5 L 26.4 807.5 L 34.2 804.9 L 44.2 791.2 L 53.5 785.1 L 65.5 782.1 L 74.6 771.3 L 80.9 752.5 L 87.1 741.9 L 96.3 738.5 L 104.1 741.8 L 107.3 739.3 L 108.3 732 L 112.4 727.9 L 119.5 727 L 126.3 724.4 L 132.9 720 L 141.8 721.3 L 153 728.1 L 162.7 730.8 L 170.8 729.4 L 190.3 729.9 L 236.2 733.4 M 280.6 747.3 L 287.9 752.6 L 287.4 761.9 L 278.4 784.4 L 278.6 791.8 L 281.3 796.2 L 286.5 800 L 295.7 801 L 308.7 799.4 L 316.6 801 L 319.6 805.7 L 327.4 810.3 L 340 814.8 L 348.3 819.5 L 352.2 824.4 L 365.4 830.2 L 399.1 840 L 424.6 833.2 L 437.9 833 L 447.4 837.1 L 455.1 843.7 L 463.9 857 L 465.3 861 L 470.8 864.2" />
<path class="river" d="M 164.6 39.2 L 190.3 42.9 L 198.4 42.4 L 203.2 45.3 L 207.5 51.2 L 225.4 61.9 L 272.9 85.3 L 286 91 L 290.6 95 L 291 99.1 L 293.1 102.5 L 297 105 L 307 107.4 L 323.2 109.8 L 331.9 115.6 L 333.1 125 L 342.5 131.4 L 360 135 L 372.7 134 L 380.8 128.5 L 389.6 126.7 L 404.2 129.8 L 418.8 135.4 L 440.7 136.1 L 474.8 133.7 L 509.8 135 L 545.6 139.8 L 568.5 141.6 L 583.5 139.6" />
<path class="river" d="M 583.5 139.6 L 590.4 128.7 L 596.5 123.8 L 604 121.4 L 611.8 121.3 L 619.9 123.6 L 625 124 L 627.1 122.3 L 631 122.5 L 636.6 124.3 L 644.8 124.9 L 660.8 123.7 L 722.4 122.5 L 745.9 123 L 751.8 125 L 758.9 125 L 766.9 123.2 L 776.4 123 L 787.2 124.2 L 795.4 126.5 L 801.1 129.8 L 810.1 129.4 L 822.6 125.4 L 829.3 124.6 L 830.3 126.9 L 832.4 127.1 L 835.8 125.2 L 841.3 124.8 L 852.5 126.4 L 935.2 129.2 L 966.2 133.2 L 973 139.3 L 984.5 143.6 L 1000.4 146.1 L 1010.6 145.9 L 1015 142.8 L 1018.1 143.1 L 1019.8 146.8 L 1023.3 149.3 L 1028.7 150.6 L 1035.2 147.7 L 1042.8 140.4 L 1054 137.4 L 1068.9 138.6 L 1083 138 L 1096.1 135.6 L 1106.2 132.5 L 1116.8 127" />
<g class="city"><circle cx="639.9580912462909" cy="663.778714335356" r="5" /><text x="651.9580912462909" y="667.778714335356">Kolkata</text></g>
<g class="city"><circle cx="802.2350325323089" cy="571.7549483235025" r="5" /><text x="814.2350325323089" y="575.7549483235025">Dhaka</text></g>
<g class="city"><circle cx="913.0518679911492" cy="682.7055870662363" r="5" /><text x="925.0518679911492" y="686.7055870662363">Chattogram</text></g>
<g class="city"><circle cx="734.6501177444661" cy="642.0871312510137" r="5" /><text x="746.6501177444661" y="646.0871312510137">Khulna</text></g>
<g class="city"><circle cx="529.4318797058619" cy="574.9189977635388" r="5" /><text x="541.4318797058619" y="578.9189977635388">Asansol</text></g>
<g class="city"><circle cx="466.84587153326515" cy="646.2646609217362" r="5" /><text x="478.84587153326515" y="650.2646609217362">Jamshedpur</text></g>
<g class="city"><circle cx="484.5642138892598" cy="565.5957760893461" r="5" /><text x="496.5642138892598" y="569.5957760893461">Dhanbad</text></g>
<g class="city"><circle cx="910.6646740458172" cy="377.66396659211784" r="5" /><text x="922.6646740458172" y="381.66396659211784">Guwahati</text></g>
<text class="map-title" x="80" y="105">Bangladesh Physical Study Map</text>
<text class="map-subtitle" x="80" y="145">Landmark: Sundarbans Cave | Study terrain and water systems</text>
  <text class="footer" x="80" y="1036">Made with Natural Earth. Free vector and raster map data @ naturalearthdata.com.</text>
</svg>
