<?xml version="1.0" encoding="UTF-8"?>
<svg xmlns="http://www.w3.org/2000/svg" width="1600" height="1100" viewBox="0 0 1600 1100" role="img" aria-labelledby="title desc">
  <title id="title">Burkina Faso Physical Study Map</title>
  <desc id="desc">Made with Natural Earth. Free vector and raster map data @ naturalearthdata.com.</desc>
  <defs>
    <linearGradient id="terrain" x1="0" x2="1" y1="0" y2="1">
      <stop offset="0%" stop-color="#6c8c53" />
      <stop offset="42%" stop-color="#d5c487" />
      <stop offset="72%" stop-color="#b88b5f" />
      <stop offset="100%" stop-color="#f1f5ee" />
    </linearGradient>
    <filter id="softShadow" x="-10%" y="-10%" width="120%" height="120%">
      <feDropShadow dx="0" dy="10" stdDeviation="12" flood-color="#0f172a" flood-opacity="0.16" />
    </filter>
    <style>
      .neighbor { fill: #ffffff; stroke: #94a3b8; stroke-width: 1.2; opacity: 0.72; }
      .country { fill: url(#terrain); stroke: #1f2937; stroke-width: 4; filter: url(#softShadow); }
      .admin1 { fill: none; stroke: #64748b; stroke-width: 1.1; stroke-dasharray: 6 7; opacity: 0.75; }
      .river { fill: none; stroke: #1d9bd1; stroke-width: 3; stroke-linecap: round; opacity: 0.88; }
      .lake { fill: #8ed1ea; stroke: #0ea5e9; stroke-width: 1.5; opacity: 0.8; }
      .city circle { fill: #ef4444; stroke: #ffffff; stroke-width: 2; }
      .city text, .terrain-label { fill: #172033; font: 700 24px system-ui, sans-serif; paint-order: stroke; stroke: #ffffff; stroke-width: 5; stroke-linejoin: round; }
      .map-title { fill: #0f172a; font: 800 46px system-ui, sans-serif; }
      .map-subtitle { fill: #475569; font: 600 24px system-ui, sans-serif; }
      .footer { fill: #64748b; font: 500 18px system-ui, sans-serif; }
    </style>
  </defs>
  <rect width="100%" height="100%" fill="#d8edf0" />
  <rect x="40" y="40" width="1520" height="1020" rx="32" fill="#ffffff" opacity="0.54" />
  <path class="neighbor" d="M -3378.7 1270.8 L -3428.1 1347.2 L -3453.8 1408.8 L -3485.8 1440.5 L -3525.8 1446.5 L -3537.2 1422.9 L -3555.9 1419.5 L -3581.8 1442.1 L -3618.2 1424.9 L -3596.9 1389.7 L -3589.6 1351.5 L -3575 1315.6 L -3607.8 1266.1 L -3614.4 1208.9 L -3570.9 1137 L -3542.5 1146.2 L -3481 1166 L -3392.5 1236.5 L -3378.7 1270.8 Z M 1454.5 -2514.9 L 1493.9 -2493.1 L 1614.3 -2477.7 L 1572.1 -2420.5 L 1561.5 -2360.9 L 1538.5 -2346.7 L 1500.5 -2354.3 L 1503.2 -2333.1 L 1442.1 -2286.2 L 1440.8 -2248.3 L 1480.7 -2261.4 L 1509.4 -2224.8 L 1506 -2201.2 L 1530.6 -2169.8 L 1501.6 -2144.3 L 1523.1 -2079.7 L 1568.4 -2069.1 L 1558.8 -2032.8 L 1483.1 -1985.6 L 1318.4 -2008.2 L 1196.6 -1981.1 L 1187.1 -1930.8 L 1090.2 -1920 L 996.2 -1957.8 L 965.8 -1939.7 L 812 -1977.7 L 778.7 -2010.2 L 821.9 -2060.3 L 837.8 -2226.8 L 751.6 -2314.4 L 690 -2356.7 L 562.3 -2388.9 L 553.9 -2449.8 L 662.2 -2468 L 802.5 -2446.5 L 776 -2541 L 854.9 -2505.2 L 1049.5 -2570.4 L 1074.5 -2638.8 L 1147.6 -2655.7 L 1159.7 -2626.3 L 1198.6 -2624.9 L 1237.4 -2591.4 L 1295.7 -2552 L 1338.6 -2558.5 L 1411.7 -2520.4 L 1430.4 -2513.2 L 1454.5 -2514.9 Z M 1668.4 -1943.8 L 1722.2 -1975.7 L 1736.4 -1904 L 1708.8 -1839.5 L 1670.9 -1856.5 L 1651.5 -1912.7 L 1668.4 -1943.8 Z" />
<path class="neighbor" d="M -24.5 578.4 L -20.6 552.3 L -27.8 520 L -59 496.5 L -75.5 448.7 L -79.3 396.7 L -51.2 381.5 L -37.2 332.3 L -10.7 330.3 L 47.7 353.6 L 94.8 337.1 L 127.1 342.6 L 139.6 324.1 L 474.9 322.8 L 493.5 264.3 L 479 254 L 438.7 -106.6 L 398.3 -467.2 L 526.2 -468.7 L 808.1 -286.4 L 1089.9 -104.1 L 1109.8 -65 L 1161.8 -41.1 L 1200.5 -27.5 L 1201.5 25.7 L 1294.2 17.5 L 1294.4 209.9 L 1248.7 265.8 L 1241.6 317.2 L 1167.4 330.5 L 1053.4 337.7 L 1022.5 367.4 L 968.9 370.6 L 915.3 371 L 894.5 355 L 848.5 366.9 L 770.4 401.6 L 754.5 427.7 L 689.6 465.1 L 678.3 486.6 L 643.2 503.6 L 602.8 492.3 L 579.9 512.7 L 567.7 570 L 501.4 639.3 L 503.3 667.6 L 480.5 703 L 486 751.5 L 451.6 763.9 L 432 774.4 L 419.1 738.7 L 395 748.1 L 380.6 746.5 L 365.2 770.9 L 300.7 770.2 L 277.5 757.6 L 266.6 765.2 L 241.1 741.1 L 245.6 716.3 L 235.1 706.5 L 217.3 714.7 L 220.6 687.5 L 237.7 666 L 203.5 631 L 193.5 608 L 174.9 589.6 L 158.2 587.4 L 138.1 599.1 L 111.1 610.3 L 88.2 628.4 L 52.5 621.7 L 29.3 600.5 L 15.4 597.7 L -6.4 608.9 L -19.6 609 L -24.5 578.4 Z" />
<path class="neighbor" d="M -488.1 -136.6 L -469.9 -164.5 L -142.7 -164 L -158.6 -284.6 L -138.1 -327.5 L -59.8 -335 L -62.5 -548.8 L 211.7 -544.5 L 212 -671 L 526.2 -468.7 L 398.3 -467.2 L 438.7 -106.6 L 479 254 L 493.5 264.3 L 474.9 322.8 L 139.6 324.1 L 127.1 342.6 L 94.8 337.1 L 47.7 353.6 L -10.7 330.3 L -37.2 332.3 L -51.2 381.5 L -79.3 396.7 L -134.5 339.3 L -185 277.9 L -240.5 255.7 L -280.4 231.2 L -327.1 232.1 L -367.8 250.3 L -409.4 243.1 L -438 269.9 L -445.2 224.8 L -421.9 183.6 L -411.5 105 L -420.8 22.4 L -430.8 -19.1 L -422.5 -60.8 L -444.1 -100.5 L -488.1 -136.6 Z" />
<path class="neighbor" d="M 1162.5 1095.1 L 1093.4 1104.8 L 1072.9 1047.2 L 1076.7 855.3 L 1059.8 838.1 L 1056.7 797.1 L 1027.6 767.8 L 1002.1 743.1 L 1012.8 699.1 L 1041.5 689.7 L 1058.5 653.2 L 1099.4 645.4 L 1117.6 620.4 L 1145.7 595.9 L 1175.6 595.7 L 1239.3 643.8 L 1236.1 671.5 L 1254.9 721.1 L 1238.4 754.7 L 1247.2 777.2 L 1206.7 828.9 L 1180.9 854.5 L 1165.2 907.2 L 1167.3 960.4 L 1162.5 1095.1 Z" />
<path class="neighbor" d="M 2178.5 -292.3 L 2199 -162.4 L 2230.3 -140.7 L 2231.6 -114.1 L 2266.4 -85.5 L 2248.2 -49.5 L 2216 120.1 L 2211.6 228.7 L 2105 307.5 L 2069 417.6 L 2103.8 448.5 L 2103.6 502.3 L 2157.2 504.2 L 2148.8 543.6 L 2125.2 548.4 L 2122.5 575 L 2107 576.8 L 2050.4 485.3 L 2030.8 482 L 1965.5 528.7 L 1900.8 504.3 L 1855.8 499.5 L 1831.7 511.2 L 1782.7 508.7 L 1733.5 544.3 L 1690.8 546.3 L 1589.7 503.1 L 1550.1 523.6 L 1507.5 522.2 L 1476.1 490.6 L 1392.4 459.5 L 1302.6 469.4 L 1280.8 487.4 L 1269.1 535.5 L 1245.1 569.2 L 1239.3 643.8 L 1175.6 595.7 L 1145.7 595.9 L 1117.6 620.4 L 1119.5 563.1 L 1023.2 544.2 L 1020.6 503.8 L 973.5 449.2 L 962.3 411.1 L 968.9 370.6 L 1022.5 367.4 L 1053.4 337.7 L 1167.4 330.5 L 1241.6 317.2 L 1248.7 265.8 L 1294.4 209.9 L 1294.2 17.5 L 1412 -19.8 L 1653.9 -183.9 L 1940.2 -343.1 L 2072.4 -307.1 L 2119.4 -261.2 L 2178.5 -292.3 Z" />
<path class="neighbor" d="M 1162.5 1095.1 L 1167.3 960.4 L 1165.2 907.2 L 1180.9 854.5 L 1206.7 828.9 L 1247.2 777.2 L 1238.4 754.7 L 1254.9 721.1 L 1236.1 671.5 L 1239.3 643.8 L 1245.1 569.2 L 1269.1 535.5 L 1280.8 487.4 L 1302.6 469.4 L 1392.4 459.5 L 1476.1 490.6 L 1507.5 522.2 L 1550.1 523.6 L 1589.7 503.1 L 1690.8 546.3 L 1733.5 544.3 L 1782.7 508.7 L 1831.7 511.2 L 1855.8 499.5 L 1900.8 504.3 L 1965.5 528.7 L 2030.8 482 L 2050.4 485.3 L 2107 576.8 L 2122.5 575 L 2155.6 608.2 L 2146.5 623.3 L 2142.1 651.1 L 2071.7 715.8 L 2049.6 769.1 L 2037.8 812.5 L 2020.1 831.1 L 2003.2 889.6 L 1958.5 924 L 1945.6 966.3 L 1926.8 1000 L 1919 1034.7 L 1861.6 1062.9 L 1814.7 1028.5 L 1783 1029.9 L 1733.3 1078.8 L 1709.1 1079.6 L 1669.3 1160.2 L 1647.8 1219.3 L 1561.1 1249.4 L 1529.4 1245 L 1497.3 1263.7 L 1430.4 1261.9 L 1385.7 1209.6 L 1358.2 1149.1 L 1299 1094.1 L 1236.2 1095.1 L 1162.5 1095.1 Z" />
<path class="neighbor" d="M 1012.8 699.1 L 1002.1 743.1 L 1027.6 767.8 L 1056.7 797.1 L 1059.8 838.1 L 1076.7 855.3 L 1072.9 1047.2 L 1093.4 1104.8 L 1026.2 1122.7 L 1007.5 1093.3 L 985.3 1040.3 L 978.6 998.7 L 997.1 923.5 L 976.1 893 L 968.2 827.2 L 968.3 766.5 L 933.4 723.4 L 939.6 697.4 L 1012.8 699.1 Z" />
<path class="neighbor" d="M 939.6 697.4 L 933.4 723.4 L 968.3 766.5 L 968.2 827.2 L 976.1 893 L 997.1 923.5 L 978.6 998.7 L 985.3 1040.3 L 1007.5 1093.3 L 1026.2 1122.7 L 895.2 1171.6 L 848.7 1200.2 L 773.4 1224.5 L 698.9 1200.7 L 702.7 1167.8 L 666.5 1095.8 L 688.3 1001.4 L 723.5 931.2 L 701.3 812.4 L 689.9 749.5 L 691.9 702 L 837 698.1 L 874 704.2 L 900.9 690.7 L 939.6 697.4 Z" />
<path class="neighbor" d="M 266.6 765.2 L 277.5 757.6 L 300.7 770.2 L 365.2 770.9 L 380.6 746.5 L 395 748.1 L 419.1 738.7 L 432 774.4 L 451.6 763.9 L 486 751.5 L 523.6 769.7 L 538.2 797.4 L 575.8 815 L 605 794 L 644.2 790.8 L 701.3 812.4 L 723.5 931.2 L 688.3 1001.4 L 666.5 1095.8 L 702.7 1167.8 L 698.9 1200.7 L 660.9 1201.6 L 602.6 1185.2 L 549.1 1186.2 L 450.1 1200.8 L 392.1 1224.9 L 309.3 1255.6 L 293.2 1253.4 L 299.6 1184.5 L 307.6 1174.1 L 305.1 1141.2 L 269.7 1106.2 L 243.1 1100.6 L 218.8 1077.6 L 236.9 1040.5 L 228.6 1000.1 L 232.4 975.8 L 245.7 975.7 L 250.6 939.3 L 244.2 923.2 L 252.1 911.5 L 283.2 901.5 L 262.5 834.6 L 243.3 800.1 L 250 771.7 L 266.6 765.2 Z" />
<path class="neighbor" d="M -207.2 566.4 L -166.8 567.3 L -106.8 587.6 L -88.4 585.8 L -82.1 576.5 L -36.5 583.1 L -24.5 578.4 L -19.6 609 L -6.4 608.9 L 15.4 597.7 L 29.3 600.5 L 52.5 621.7 L 88.2 628.4 L 111.1 610.3 L 138.1 599.1 L 158.2 587.4 L 174.9 589.6 L 193.5 608 L 203.5 631 L 237.7 666 L 220.6 687.5 L 217.3 714.7 L 235.1 706.5 L 245.6 716.3 L 241.1 741.1 L 266.6 765.2 L 250 771.7 L 243.3 800.1 L 262.5 834.6 L 283.2 901.5 L 252.1 911.5 L 244.2 923.2 L 250.6 939.3 L 245.7 975.7 L 232.4 975.8 L 208.8 973.7 L 191.8 1007.3 L 168.1 1006.9 L 151.9 989.1 L 157.4 955.6 L 122.5 904.4 L 100.7 913.8 L 82.8 915.7 L 59.8 920.4 L 60.7 889.8 L 47.3 867.9 L 50 843.7 L 31.9 808.5 L 8.7 778.7 L -58.2 778.6 L -77.6 794.3 L -100.7 796.2 L -114.9 814.2 L -124.6 837.4 L -169.2 874.1 L -205.9 824.7 L -238.4 792 L -259.8 781.2 L -280.6 764.6 L -290.1 727.6 L -302.3 709.2 L -326.6 695.6 L -289.5 654.8 L -264.1 656.4 L -242.3 642.4 L -223.9 642.2 L -210.7 631.1 L -217.8 603.5 L -208.7 594.7 L -207.2 566.4 Z" />
<path class="neighbor" d="M 232.4 975.8 L 228.6 1000.1 L 236.9 1040.5 L 218.8 1077.6 L 243.1 1100.6 L 269.7 1106.2 L 305.1 1141.2 L 307.6 1174.1 L 299.6 1184.5 L 293.2 1253.4 L 271.3 1254.1 L 185.2 1214.3 L 109.3 1150.7 L 38.1 1104.9 L -18.2 1051 L 1.8 1024.3 L 6.2 1000 L 43.9 954.7 L 82.8 915.7 L 100.7 913.8 L 122.5 904.4 L 157.4 955.6 L 151.9 989.1 L 168.1 1006.9 L 191.8 1007.3 L 208.8 973.7 L 232.4 975.8 Z" />
<path class="lake" d="M 1329.1 751.9 L 1328.5 753.7 L 1321.8 766.1 L 1321.9 773 L 1323.4 782.3 L 1326.8 792.1 L 1324.1 793.8 L 1321.5 793.6 L 1319.1 790.6 L 1316.7 780.1 L 1313.2 776.9 L 1311.4 776.6 L 1310.9 774.3 L 1313.2 771.9 L 1314.4 770.2 L 1314.1 768 L 1311.1 766.9 L 1310.6 766.1 L 1312.3 763.4 L 1310.7 757 L 1305.2 751.1 L 1305.2 748.8 L 1308.4 747.6 L 1309.5 745.9 L 1310.2 744 L 1311.1 730.1 L 1312.9 728.7 L 1319.2 732.1 L 1322.5 731 L 1326.6 731.7 L 1328.7 733.6 L 1326.1 739.3 L 1327.6 748.2 L 1329.1 751.9 L 1329.1 751.9 L 1329.1 751.9 Z" />
<path class="lake" d="M 960.3 1060.3 L 960.3 1060.3 L 960.3 1060.3 L 962.6 1056.7 L 964.1 1055 L 963.4 1058.4 L 960.7 1062.5 L 956.8 1065.2 L 953.6 1065.9 L 952 1065.3 L 951 1065.1 L 950.3 1065.7 L 950.4 1066.8 L 950.2 1069.1 L 949.8 1071.7 L 949.3 1074.5 L 948.7 1079.1 L 949.1 1086.1 L 946.2 1088.4 L 944.4 1087.2 L 943.7 1082.9 L 941 1082.9 L 936.7 1085 L 934.8 1082.6 L 932.6 1079 L 929.3 1075.8 L 923 1072.2 L 916.3 1067.8 L 910.5 1064.7 L 901.9 1060.9 L 891.6 1056.8 L 884.6 1053.8 L 881.3 1049.7 L 880.5 1047 L 882.5 1046.9 L 886.1 1049.2 L 889.2 1051.1 L 891.6 1049 L 894.3 1050.4 L 896.6 1055.1 L 898.6 1056.3 L 900.6 1056 L 902.6 1055.6 L 903.4 1052.7 L 903.7 1048.5 L 904.7 1047.5 L 906.9 1052.1 L 909.6 1056.9 L 912.1 1056.8 L 915 1056.3 L 918.5 1055.4 L 921.4 1054.8 L 923 1056.2 L 923.9 1059.4 L 925.6 1062.6 L 929.5 1064.2 L 932.8 1064.1 L 934.1 1060.2 L 935.5 1056.5 L 936.1 1055.5 L 935.7 1054.2 L 933.5 1052.5 L 932 1050.8 L 931.6 1049.1 L 932.1 1047.8 L 934.1 1045.9 L 936.6 1045.4 L 938.6 1046.1 L 940.1 1045.7 L 944 1044 L 946.9 1041.8 L 946.3 1040.7 L 942.5 1040.3 L 941.1 1037.6 L 944.8 1035.3 L 947.6 1035.6 L 947.9 1034.6 L 945.9 1032.8 L 944.9 1031.2 L 945.4 1030.1 L 946 1028.7 L 945.7 1026.5 L 944.7 1023 L 944.7 1020.9 L 943.1 1020.5 L 941.4 1019.5 L 939.9 1018.4 L 938.4 1017.5 L 938.2 1015.7 L 938.8 1015.5 L 940.5 1016.4 L 942.9 1016.8 L 944.5 1017 L 945.8 1017 L 947.5 1016.2 L 949.4 1014.6 L 950.4 1013 L 951 1012.1 L 952.1 1012.1 L 953 1010.9 L 953 1009.2 L 952 1007.8 L 950.6 1007.3 L 948.8 1007 L 946.1 1004.5 L 943.2 1000.3 L 941.8 997 L 941.8 995.6 L 941.6 994.7 L 941.4 993.2 L 937.4 991.3 L 932.3 990.7 L 932.7 994.2 L 932.1 996 L 928.7 994.9 L 926.9 993.8 L 926.2 991.7 L 924.5 990.5 L 920.3 990.3 L 917.3 990 L 918.2 988.7 L 920.2 987.5 L 923.5 987.2 L 926.4 986.9 L 928.8 987.1 L 931.6 987.3 L 935.3 987.5 L 938.6 987.8 L 936.1 983.7 L 932.3 979.6 L 928.4 979.3 L 922.4 979.1 L 917.3 979.8 L 909.5 981.5 L 901.5 983.5 L 897.9 983.9 L 896 983.3 L 893.2 985 L 887.2 986.9 L 883 987.1 L 886.5 985.8 L 892.2 983 L 897.3 981 L 902.4 978.9 L 907.8 977.6 L 913 977.4 L 915.7 976 L 916.2 974.2 L 916.4 973 L 920 973.5 L 924.1 972.9 L 927.1 971.3 L 929.4 970.8 L 929.2 970 L 926.4 969.1 L 924.5 968.1 L 924.3 966.8 L 924.9 965.2 L 924.9 962.9 L 923.4 958.8 L 922 955.7 L 921.5 953.3 L 918.9 951.5 L 913.8 948.3 L 911.3 946.3 L 908.9 946.4 L 908.3 949.4 L 905.5 951.3 L 902.8 951.9 L 904.6 949.6 L 905.9 945.6 L 902.9 943 L 900.3 942 L 896 944.8 L 893.6 944.4 L 893.7 938.9 L 892.2 936.8 L 890.7 938.4 L 888.2 941.2 L 885.4 942.5 L 883.9 942.3 L 883.9 940.7 L 879.7 940.4 L 874.5 941.1 L 874 939.7 L 875.1 938.4 L 877.3 938.3 L 882.8 937.7 L 887.1 936.3 L 887.5 935.1 L 885.7 933.6 L 881.1 929.7 L 877.1 926.2 L 874.6 924.8 L 871.2 923.2 L 870.6 921.7 L 872.1 919 L 867.6 912.2 L 861.4 903.2 L 857 899.1 L 854.1 896.9 L 850.6 895.7 L 846.8 896.1 L 843.3 896.8 L 842.3 899.9 L 841.3 903.5 L 839 899.2 L 835.7 894.6 L 832.8 893.8 L 828.6 891.4 L 824.7 889.1 L 820.2 887.8 L 817 888.5 L 813.2 891.4 L 808.5 894.1 L 803.5 895.8 L 798.6 897.1 L 794.3 896.9 L 798.6 893.3 L 804.6 891.5 L 810.7 888.5 L 815.1 886 L 819.6 884.4 L 822.6 882.4 L 824.3 883.4 L 829.5 886.9 L 831.5 889 L 843.5 890.7 L 848.9 889.3 L 848.4 886.9 L 846 884.1 L 842.9 881.7 L 841.9 876.6 L 839.5 870.7 L 839.1 867.8 L 839.2 863.8 L 839.5 859.8 L 841.4 856.3 L 843.1 859.7 L 843.5 863.7 L 843.6 867.6 L 843.9 871.9 L 845.2 874.6 L 847.7 878.3 L 850.3 879.2 L 851.9 879.1 L 854.3 884.8 L 859.8 895 L 864.6 900.7 L 867.2 901.2 L 869.4 899.5 L 869.3 895.2 L 868.8 890.5 L 870 887.5 L 871.5 886 L 872.2 886.4 L 871.1 889.3 L 870.2 892.1 L 873.3 894.8 L 877.2 896.2 L 878.7 895.9 L 878.5 897.4 L 874.3 901.3 L 870.4 906.2 L 871 908.1 L 872.3 910.4 L 877.3 916 L 882.4 919.8 L 885.2 922.1 L 887.9 925.5 L 890.3 926.6 L 891.3 928.6 L 893.6 930.2 L 897.1 932.1 L 900.1 932.1 L 904.7 931.1 L 907.9 929.3 L 911 929.2 L 913.7 928.4 L 917.1 929.1 L 920.7 931.8 L 921.5 934 L 916.2 934.1 L 910.8 934.8 L 910 936.4 L 911.8 937.7 L 915.7 940.5 L 921.7 945.2 L 926.9 948.7 L 929 951.6 L 930.8 959.9 L 933.2 965.3 L 935.6 966.9 L 937.7 966.9 L 939.2 967.3 L 942.2 967 L 943.5 964.5 L 942.4 961.1 L 942.3 959.1 L 942.5 956.3 L 943.7 952.2 L 944.2 949.3 L 942.7 946.2 L 943.4 942.8 L 945.9 941.8 L 948.4 942.4 L 950.4 943.1 L 951.8 942.4 L 951.4 940 L 950.3 936.1 L 947.9 932.1 L 946.4 929.4 L 949 928.4 L 951.7 925.4 L 954.1 921.3 L 955.8 919.2 L 951 917.8 L 945.3 915.9 L 944.3 913.7 L 945.3 911.1 L 945.2 907.8 L 944.7 903.8 L 946.4 900.9 L 948.9 899.7 L 950.1 896.7 L 951 891.1 L 953 887.6 L 954.1 887.9 L 953 892 L 951.7 897.4 L 950.3 900.1 L 948.2 901.6 L 947.7 906.3 L 947 911.4 L 946.2 913.3 L 947.2 914.9 L 952.5 916.2 L 957.8 917.9 L 959.4 919.9 L 961 921.1 L 962.1 921.7 L 961.3 922.3 L 957.8 922.7 L 955.5 923.3 L 955.7 924.9 L 953.5 928.6 L 952.9 932.4 L 954.4 935.7 L 956.9 939.1 L 960 940.7 L 959.9 941.7 L 957.7 942.2 L 954.1 943 L 951 944.6 L 949.8 947.9 L 947.7 951.9 L 946.7 954.7 L 947.9 956.8 L 949.8 958.4 L 951.6 961 L 956.1 959.4 L 959.1 957.5 L 958.6 960 L 958.7 961.1 L 958.3 962.2 L 957.4 963.5 L 958.3 966.1 L 960.8 969.5 L 960.9 974.7 L 961.1 981.6 L 961.1 985.1 L 959.2 984.6 L 957.7 984.9 L 956.7 986.7 L 956.7 988.3 L 957.8 990.5 L 958.5 992.1 L 961.4 990.1 L 964.3 987.8 L 963.8 990.9 L 962.8 993.9 L 962.4 995.3 L 962.3 998.4 L 961.6 1001.3 L 960.7 1003.6 L 960.7 1004.8 L 960.8 1005.6 L 962 1007.8 L 962.1 1009.9 L 960.6 1011.6 L 960.3 1013.6 L 960.9 1014.9 L 961 1016.4 L 960.9 1017.9 L 960.6 1018.8 L 960.3 1021.7 L 961.7 1024.3 L 963.1 1024.9 L 962.6 1027.2 L 961.1 1029.2 L 960.4 1033.1 L 959.6 1037.5 L 957.6 1041.8 L 957.4 1052.5 L 958.8 1060.5 L 960.3 1060.3 Z M 948.5 1060 L 948.5 1060 L 948.5 1060 L 952.7 1056 L 950.9 1052.6 L 947.2 1050.2 L 942.8 1049.2 L 939.1 1051.6 L 938.6 1056.8 L 941.7 1058.7 L 945.1 1061.7 L 948.5 1060 Z" />
<path class="lake" d="M 960.3 1060.3 L 960.3 1060.3 L 960.3 1060.3 L 962.6 1056.7 L 964.1 1055 L 963.4 1058.4 L 960.7 1062.5 L 956.8 1065.2 L 953.6 1065.9 L 952 1065.3 L 951 1065.1 L 950.3 1065.7 L 950.4 1066.8 L 950.2 1069.1 L 949.8 1071.7 L 949.3 1074.5 L 948.7 1079.1 L 949.1 1086.1 L 946.2 1088.4 L 944.4 1087.2 L 943.7 1082.9 L 941 1082.9 L 936.7 1085 L 934.8 1082.6 L 932.6 1079 L 929.3 1075.8 L 923 1072.2 L 916.3 1067.8 L 910.5 1064.7 L 901.9 1060.9 L 891.6 1056.8 L 884.6 1053.8 L 881.3 1049.7 L 880.5 1047 L 882.5 1046.9 L 886.1 1049.2 L 889.2 1051.1 L 891.6 1049 L 894.3 1050.4 L 896.6 1055.1 L 898.6 1056.3 L 900.6 1056 L 902.6 1055.6 L 903.4 1052.7 L 903.7 1048.5 L 904.7 1047.5 L 906.9 1052.1 L 909.6 1056.9 L 912.1 1056.8 L 915 1056.3 L 918.5 1055.4 L 921.4 1054.8 L 923 1056.2 L 923.9 1059.4 L 925.6 1062.6 L 929.5 1064.2 L 932.8 1064.1 L 934.1 1060.2 L 935.5 1056.5 L 936.1 1055.5 L 935.7 1054.2 L 933.5 1052.5 L 932 1050.8 L 931.6 1049.1 L 932.1 1047.8 L 934.1 1045.9 L 936.6 1045.4 L 938.6 1046.1 L 940.1 1045.7 L 944 1044 L 946.9 1041.8 L 946.3 1040.7 L 942.5 1040.3 L 941.1 1037.6 L 944.8 1035.3 L 947.6 1035.6 L 947.9 1034.6 L 945.9 1032.8 L 944.9 1031.2 L 945.4 1030.1 L 946 1028.7 L 945.7 1026.5 L 944.7 1023 L 944.7 1020.9 L 943.1 1020.5 L 941.4 1019.5 L 939.9 1018.4 L 938.4 1017.5 L 938.2 1015.7 L 938.8 1015.5 L 940.5 1016.4 L 942.9 1016.8 L 944.5 1017 L 945.8 1017 L 947.5 1016.2 L 949.4 1014.6 L 950.4 1013 L 951 1012.1 L 952.1 1012.1 L 953 1010.9 L 953 1009.2 L 952 1007.8 L 950.6 1007.3 L 948.8 1007 L 946.1 1004.5 L 943.2 1000.3 L 941.8 997 L 941.8 995.6 L 941.6 994.7 L 941.4 993.2 L 937.4 991.3 L 932.3 990.7 L 932.7 994.2 L 932.1 996 L 928.7 994.9 L 926.9 993.8 L 926.2 991.7 L 924.5 990.5 L 920.3 990.3 L 917.3 990 L 918.2 988.7 L 920.2 987.5 L 923.5 987.2 L 926.4 986.9 L 928.8 987.1 L 931.6 987.3 L 935.3 987.5 L 938.6 987.8 L 936.1 983.7 L 932.3 979.6 L 928.4 979.3 L 922.4 979.1 L 917.3 979.8 L 909.5 981.5 L 901.5 983.5 L 897.9 983.9 L 896 983.3 L 893.2 985 L 887.2 986.9 L 883 987.1 L 886.5 985.8 L 892.2 983 L 897.3 981 L 902.4 978.9 L 907.8 977.6 L 913 977.4 L 915.7 976 L 916.2 974.2 L 916.4 973 L 920 973.5 L 924.1 972.9 L 927.1 971.3 L 929.4 970.8 L 929.2 970 L 926.4 969.1 L 924.5 968.1 L 924.3 966.8 L 924.9 965.2 L 924.9 962.9 L 923.4 958.8 L 922 955.7 L 921.5 953.3 L 918.9 951.5 L 913.8 948.3 L 911.3 946.3 L 908.9 946.4 L 908.3 949.4 L 905.5 951.3 L 902.8 951.9 L 904.6 949.6 L 905.9 945.6 L 902.9 943 L 900.3 942 L 896 944.8 L 893.6 944.4 L 893.7 938.9 L 892.2 936.8 L 890.7 938.4 L 888.2 941.2 L 885.4 942.5 L 883.9 942.3 L 883.9 940.7 L 879.7 940.4 L 874.5 941.1 L 874 939.7 L 875.1 938.4 L 877.3 938.3 L 882.8 937.7 L 887.1 936.3 L 887.5 935.1 L 885.7 933.6 L 881.1 929.7 L 877.1 926.2 L 874.6 924.8 L 871.2 923.2 L 870.6 921.7 L 872.1 919 L 867.6 912.2 L 861.4 903.2 L 857 899.1 L 854.1 896.9 L 850.6 895.7 L 846.8 896.1 L 843.3 896.8 L 842.3 899.9 L 841.3 903.5 L 839 899.2 L 835.7 894.6 L 832.8 893.8 L 828.6 891.4 L 824.7 889.1 L 820.2 887.8 L 817 888.5 L 813.2 891.4 L 808.5 894.1 L 803.5 895.8 L 798.6 897.1 L 794.3 896.9 L 798.6 893.3 L 804.6 891.5 L 810.7 888.5 L 815.1 886 L 819.6 884.4 L 822.6 882.4 L 824.3 883.4 L 829.5 886.9 L 831.5 889 L 843.5 890.7 L 848.9 889.3 L 848.4 886.9 L 846 884.1 L 842.9 881.7 L 841.9 876.6 L 839.5 870.7 L 839.1 867.8 L 839.2 863.8 L 839.5 859.8 L 841.4 856.3 L 843.1 859.7 L 843.5 863.7 L 843.6 867.6 L 843.9 871.9 L 845.2 874.6 L 847.7 878.3 L 850.3 879.2 L 851.9 879.1 L 854.3 884.8 L 859.8 895 L 864.6 900.7 L 867.2 901.2 L 869.4 899.5 L 869.3 895.2 L 868.8 890.5 L 870 887.5 L 871.5 886 L 872.2 886.4 L 871.1 889.3 L 870.2 892.1 L 873.3 894.8 L 877.2 896.2 L 878.7 895.9 L 878.5 897.4 L 874.3 901.3 L 870.4 906.2 L 871 908.1 L 872.3 910.4 L 877.3 916 L 882.4 919.8 L 885.2 922.1 L 887.9 925.5 L 890.3 926.6 L 891.3 928.6 L 893.6 930.2 L 897.1 932.1 L 900.1 932.1 L 904.7 931.1 L 907.9 929.3 L 911 929.2 L 913.7 928.4 L 917.1 929.1 L 920.7 931.8 L 921.5 934 L 916.2 934.1 L 910.8 934.8 L 910 936.4 L 911.8 937.7 L 915.7 940.5 L 921.7 945.2 L 926.9 948.7 L 929 951.6 L 930.8 959.9 L 933.2 965.3 L 935.6 966.9 L 937.7 966.9 L 939.2 967.3 L 942.2 967 L 943.5 964.5 L 942.4 961.1 L 942.3 959.1 L 942.5 956.3 L 943.7 952.2 L 944.2 949.3 L 942.7 946.2 L 943.4 942.8 L 945.9 941.8 L 948.4 942.4 L 950.4 943.1 L 951.8 942.4 L 951.4 940 L 950.3 936.1 L 947.9 932.1 L 946.4 929.4 L 949 928.4 L 951.7 925.4 L 954.1 921.3 L 955.8 919.2 L 951 917.8 L 945.3 915.9 L 944.3 913.7 L 945.3 911.1 L 945.2 907.8 L 944.7 903.8 L 946.4 900.9 L 948.9 899.7 L 950.1 896.7 L 951 891.1 L 953 887.6 L 954.1 887.9 L 953 892 L 951.7 897.4 L 950.3 900.1 L 948.2 901.6 L 947.7 906.3 L 947 911.4 L 946.2 913.3 L 947.2 914.9 L 952.5 916.2 L 957.8 917.9 L 959.4 919.9 L 961 921.1 L 962.1 921.7 L 961.3 922.3 L 957.8 922.7 L 955.5 923.3 L 955.7 924.9 L 953.5 928.6 L 952.9 932.4 L 954.4 935.7 L 956.9 939.1 L 960 940.7 L 959.9 941.7 L 957.7 942.2 L 954.1 943 L 951 944.6 L 949.8 947.9 L 947.7 951.9 L 946.7 954.7 L 947.9 956.8 L 949.8 958.4 L 951.6 961 L 956.1 959.4 L 959.1 957.5 L 958.6 960 L 958.7 961.1 L 958.3 962.2 L 957.4 963.5 L 958.3 966.1 L 960.8 969.5 L 960.9 974.7 L 961.1 981.6 L 961.1 985.1 L 959.2 984.6 L 957.7 984.9 L 956.7 986.7 L 956.7 988.3 L 957.8 990.5 L 958.5 992.1 L 961.4 990.1 L 964.3 987.8 L 963.8 990.9 L 962.8 993.9 L 962.4 995.3 L 962.3 998.4 L 961.6 1001.3 L 960.7 1003.6 L 960.7 1004.8 L 960.8 1005.6 L 962 1007.8 L 962.1 1009.9 L 960.6 1011.6 L 960.3 1013.6 L 960.9 1014.9 L 961 1016.4 L 960.9 1017.9 L 960.6 1018.8 L 960.3 1021.7 L 961.7 1024.3 L 963.1 1024.9 L 962.6 1027.2 L 961.1 1029.2 L 960.4 1033.1 L 959.6 1037.5 L 957.6 1041.8 L 957.4 1052.5 L 958.8 1060.5 L 960.3 1060.3 Z M 948.5 1060 L 948.5 1060 L 948.5 1060 L 952.7 1056 L 950.9 1052.6 L 947.2 1050.2 L 942.8 1049.2 L 939.1 1051.6 L 938.6 1056.8 L 941.7 1058.7 L 945.1 1061.7 L 948.5 1060 Z" />
<path class="country" d="M 486 751.5 L 480.5 703 L 503.3 667.6 L 501.4 639.3 L 567.7 570 L 579.9 512.7 L 602.8 492.3 L 643.2 503.6 L 678.3 486.6 L 689.6 465.1 L 754.5 427.7 L 770.4 401.6 L 848.5 366.9 L 894.5 355 L 915.3 371 L 968.9 370.6 L 962.3 411.1 L 973.5 449.2 L 1020.6 503.8 L 1023.2 544.2 L 1119.5 563.1 L 1117.6 620.4 L 1099.4 645.4 L 1058.5 653.2 L 1041.5 689.7 L 1012.8 699.1 L 939.6 697.4 L 900.9 690.7 L 874 704.2 L 837 698.1 L 691.9 702 L 689.9 749.5 L 701.3 812.4 L 644.2 790.8 L 605 794 L 575.8 815 L 538.2 797.4 L 523.6 769.7 L 486 751.5 Z" />

<path class="river" d="M 794.5 896.9 L 806.4 892.6 L 812.1 889.9 L 817.5 886.4 L 822.6 885.9 L 829 889.9 L 839.3 893.4 L 856 894.3" />
<path class="river" d="M 856.2 894.3 L 844.8 878.1 L 841 868.6 L 841.4 856.3" />
<path class="river" d="M 1324.1 793.8 L 1316.1 762.6 L 1316.7 747 L 1326.7 731.6 M 605.1 341.2 L 589.5 334.2 L 582.7 329.5 L 578 322.3" />
<path class="river" d="M 349.1 1029.7 L 347.9 1040.6 L 349.4 1047.8 L 353.3 1054.9 L 353.6 1067.8 L 350.6 1086.2 L 352.1 1094.7" />
<path class="river" d="M 856 894.3 L 877 919.3 L 893.6 933.1 L 913 943.9 L 924.8 954.2 L 929.1 963.9 L 933.1 969.7 L 936.6 971.5 L 940.9 979 L 945.8 992.2 L 950.5 1000.2 L 955.1 1003.1 L 956.9 1012.7 L 955.8 1029 L 953.9 1039.6 L 951 1044.6 L 951 1049.7 L 954.1 1054.9 L 953.8 1059.2 L 948.8 1063.7 L 946.6 1070.7 L 946.2 1088.4" />
<path class="river" d="M 497.8 687.3 L 504.4 688.5 L 509.3 686 L 514.8 680.2 L 520.7 676.8 L 529.9 675.3 L 543.7 665 L 550 662.8 L 553.6 665.4 L 558.3 664.4 L 564.2 659.9 L 571.5 656.5 L 580.2 654.4 L 593 640.7 L 609.9 615.6 L 618.4 600.6 L 618.8 596 L 621.4 590.7 L 626.3 584.8 L 631.2 581.8 L 636.2 581.8 L 639.4 575.5 L 641 562.9 L 644.3 555.6 L 649.3 553.7 L 653 555.2 L 655.3 560 L 658.9 561.5 L 663.7 559.7 L 666.2 561.9 L 666.2 568 L 669.6 573.6 L 676.4 578.6 L 685 582.2 L 695.4 584.3 L 699.5 587.1 L 697.4 590.5 L 698.3 595.7 L 702.3 602.7 L 701.6 607.2 L 696.4 609.1 L 695.6 613.8 L 699.2 621.5 L 699.1 627 L 695.2 630.5 L 696.7 633.8 L 703.5 636.8 L 704.4 648.3 L 699.5 668.1 L 698.8 678.7 L 702.3 680.1 L 703.3 685.1 L 701.1 698.2 L 694.7 721.7 L 694 733 L 697.1 740 L 700.5 744.5 L 704.4 746.4 L 704.8 748.9 L 701.7 752.2 L 701.9 755.5 L 705.6 759 L 706.4 762.6 L 704.6 766.4 L 705 775.5 L 707.8 790 L 707.8 799.4 L 705.3 803.7 L 706.5 811.1 L 711.5 821.4 L 713.2 830 L 711.5 836.7 L 711.8 840.8 L 714.1 842.4 L 712.9 847.8 L 708.1 856.9 L 708.1 862.3 L 712.8 863.9 L 716.2 869.7 L 718.3 879.4 L 723.9 888.5 L 733.3 896.9 L 740.1 906.7 L 744.5 917.9 L 749.9 926.7 L 756.3 933.2 L 763.2 936.2 L 770.5 935.7 L 775.9 933.6 L 779.5 929.8 L 783.4 928.3 L 787.8 929.2 L 789.9 927.8 L 789.7 924.2 L 787.4 922.2 L 782.9 921.8 L 779.9 919.8 L 778.5 916.3 L 778.9 910.3 L 781.2 901.8 L 785.4 897.3 L 794.5 896.9" />
<path class="river" d="M 763.6 447.4 L 765.9 475 L 761.5 484.5 L 761.8 492.3 L 765.2 501.3 L 764.7 510.7 L 760.2 520.3 L 759.2 526.1 L 761.7 528.3 L 771.4 528.6 L 788.3 527.2 L 801.6 529.2 L 811.3 534.6 L 819.7 536.3 L 826.7 534.3 L 832.1 535 L 836 538.4 L 838.8 545.5 L 840.4 556.2 L 842.3 561 L 844.4 559.7 L 846 560.4 L 847.1 563.2 L 846.4 587.5 L 850.3 602.6 L 859 617.5 L 865.9 626.5 L 870.9 629.6 L 873.2 635.9 L 872.6 645.4 L 877.1 652.3 L 886.7 656.8 L 893 661 L 895.9 665.1 L 896.5 668 L 894.8 669.7 L 897.2 674.6 L 903.7 682.8 L 906.5 692.1 L 905.5 702.8 L 906.3 710 L 908.8 714 L 909.3 717 L 907.6 719 L 907.5 722.3 L 909.5 729.2 L 886.8 736.9 L 879.1 736.9 L 878.9 731.7 L 877.1 729 L 873.7 728.8 L 869.3 732 L 864.1 738.5 L 859.3 740.8 L 855 738.8 L 851.8 738.9 L 849.5 741 L 848.4 745.3 L 848.5 751.8 L 849.8 757.2 L 852.5 761.3 L 852 765.3 L 848.4 769.1 L 848.2 772.7 L 851.5 776.3 L 854.1 785.8 L 855.9 801.1 L 852.3 807.9 L 843.2 806.3 L 834.2 808.7 L 825.4 815.2 L 821.9 822.3 L 823.4 830 L 826.7 836 L 831.5 840.3 L 833.8 844.8 L 833.5 849.4 L 835.4 852.8 L 841.4 856.3" />
<path class="river" d="M 1461.1 1201 L 1457.6 1207 L 1449.9 1213.3 L 1445.4 1224.5 L 1443.6 1248.7 L 1445.3 1259.5 M 1461.1 1201 L 1461.6 1247.7 M 1476.9 1169.9 L 1470.2 1171.4 L 1464.2 1173.9 L 1459 1177.4 L 1456.4 1180.6 L 1456.5 1183.5 L 1453.2 1186.6 L 1446.5 1189.9 L 1438.3 1189.4 L 1428.6 1185.1 L 1417 1184.3 L 1395.1 1187.4 M 1476.9 1169.9 L 1471.8 1175.1 L 1468.1 1178.8 L 1466.5 1181.8 L 1466.8 1183.9 L 1468.8 1185.2 L 1468.5 1187.5 L 1465.7 1190.7 L 1463.3 1192.3 L 1461.2 1192.3 L 1460.4 1195.2 L 1461.1 1201 M 1485.5 1155 L 1489.6 1168 L 1488 1175.1 L 1482.6 1180.6 L 1478.6 1187.2 L 1476 1194.9 L 1477.4 1200 L 1482.9 1202.8 L 1486.8 1208 L 1489 1215.7 L 1492.6 1222.9 L 1498.1 1233.1 L 1498.7 1242 L 1498.3 1246.1 L 1498.3 1248.3 L 1498.7 1255.2 M 40.9 858.5 L 46.5 853.2 L 50.1 846.4 L 53.6 836.4 L 53.3 828.2 L 47.3 818.7 L 48.4 803.3 L 44.8 789.6 L 37 772.3 L 33.9 761.8 L 35.5 757.9 L 39.7 755.6 L 46.2 754.8 L 49.1 752.5 L 48.2 748.8 L 50.8 746.9 L 56.8 746.9 L 61.8 744.8 L 65.8 740.4 L 71.7 738.7 L 79.4 739.6 L 83.8 741.5 L 85.4 742.6 L 87.5 743.1 L 89.4 742.2 L 97.6 735 L 104.5 731.6 L 110.3 732.2 L 113.2 730.3 L 114.7 728.8 L 118.6 727.1 L 130.6 725.8 L 140.9 717.3 L 149.5 701.5 L 156.9 693.5 L 163.2 693.3 L 169 690.8 L 174.2 686 L 175.9 678.9 L 173.9 669.5 L 178.2 664 L 188.8 662.4 L 198 656.7 L 205.7 647.1 L 214.8 638.9 L 225.1 632 L 233 623.3 L 238.4 612.8 L 245.6 603.4 L 254.6 595.1 L 261 584.1 L 264.9 570.3 L 272.1 563 L 282.8 562.2 L 297 553 L 314.9 535.3 L 329.4 523.1 L 346.2 513.1 L 356.9 504.7 L 370.4 501.6 L 390.2 501 L 405.6 497.6 L 416.4 491.4 L 424.1 484 L 428.4 475.6 L 434.5 472.5 L 444.4 471.8 L 454.2 469.5 L 470.1 457.7 L 483.5 451.5 L 494.4 450.8 L 501.9 447.6 L 506.1 441.7 L 520.1 435.3 L 543.9 428.5 L 557.5 426 L 562.7 425.3 L 568.7 422.1 L 586.6 402.2 L 593.6 383.8 L 599.9 374.3 L 607.7 367.7 L 610 358.6 L 605.1 341.2 L 607.2 340.5 L 610.6 339.1 L 615.7 335.2 L 618.4 331.7 L 618.6 328.6 L 615.6 326.6 L 609.5 325.6 L 609.8 322.6 L 620.5 314.3 L 621.2 312.9 L 615 311.1 L 616 309.6 L 619.1 308.4 L 624.4 307.6 L 627.3 303.5 L 627.7 296.4 L 629.9 291.8 L 633.9 290 L 637 286.3 L 639.3 280.7 L 644.9 277.3 M 1324.1 793.8 L 1325.6 802.9 L 1324.5 810.1 L 1321.3 818.3 L 1320.8 826.6 L 1323 834.8 L 1326.5 839.9 L 1331.4 842 L 1334.4 845.7 L 1335.6 851 L 1341.1 852.6 L 1351 850.6 L 1360.1 853.5 L 1368.6 861.4 L 1379.7 867 L 1393.5 870.3 L 1405.8 875.9 L 1422.4 887.6 L 1440.6 886.6 L 1452.2 887.6 L 1463.3 890.3 L 1471.1 897.1 L 1475.6 908 L 1482.5 918.1 L 1491.8 927.2 L 1498.7 937.5 L 1503.3 949.1 L 1503.8 966.9 L 1498.2 1002.9 L 1494.4 1035.4 L 1494 1054.6 L 1496.6 1079.9 L 1500.8 1099.8 L 1498 1118.6 L 1485.4 1155 L 1480.3 1161.5 L 1479 1165 L 1479.9 1167.8 L 1476.9 1169.9 M 578 322.3 L 575.1 312.9 L 576.9 307.6 L 582.4 303.5 L 586 298.5 L 587.9 292.4 L 591.9 290.2 L 597.9 291.8 L 606.6 287.5 L 618 277.3 L 629.3 271.7 L 640.5 270.9 L 647.9 267.7 M 644.9 277.3 L 647.9 267.7 M 647.9 267.7 L 651.5 262.2 L 655.2 259.3 L 659.1 258.9 L 661 256.8 L 661 253 L 665 248.9 L 668.4 247.1 M 668.4 247.1 L 671.1 256.1 L 671.3 260 L 669.7 262.3 L 667.4 263.8 L 664.3 264.5 L 661.7 267.5 L 659.5 272.7 L 653.9 275.9 L 644.9 277.3 M 668.4 247.1 L 673 244.6 L 678 238.4 L 680.2 230.5 L 684.6 226.8 L 691.2 227.4 L 708.4 223.5 L 736.1 215 L 754 211.2 L 762 212.1 L 766.9 211.4 L 768.6 209 L 779.1 204.7 L 798.6 198.6 L 816.6 194.6 L 833.1 192.8 L 844.2 193.6 L 849.7 196.8 L 857 198 L 866 196.9 L 873.2 198.2 L 878.7 201.8 L 887.4 202.8 L 899.4 201.3 L 908.7 208.2 L 915.1 223.4 L 920.6 232.9 L 925.3 236.6 L 930.1 245.6 L 937.8 266.9 L 949.6 282.6 L 959.3 291.8 L 970.8 300 L 977 308 L 977.8 315.8 L 983.4 322.1 L 993.7 326.6 L 999.3 330.5 L 1000.1 333.7 L 998.4 341.1 L 994 352.7 L 992.5 360.9 L 994 365.7 L 997.9 369.1 L 1004.3 370.9 L 1009 376.3 L 1012.1 385.5 L 1018.2 395.6 L 1027.5 406.7 L 1038.6 416.4 L 1051.4 424.9 L 1059.9 436 L 1063.9 449.9 L 1069.7 461.1 L 1077.2 469.4 L 1089 477.5 L 1105 485.2 L 1115.1 492.1 L 1119.2 498.2 L 1124.4 503.1 L 1130.6 506.9 L 1134.3 517.1 L 1135.6 533.8 L 1139.4 547 L 1145.6 556.6 L 1148.2 563 L 1147.1 566.1 L 1147.8 569.3 L 1149.8 571.2 L 1152.4 571.1 L 1154.6 569.3 L 1156.1 569.3 L 1157 571 L 1159.3 571.7 L 1162.5 571.1 L 1164.7 572 L 1166.2 576.3 L 1168.9 579.3 L 1172.8 580.3 L 1175.2 582 L 1200.8 605.5 L 1210.6 616.1 L 1213.3 621.5 L 1218.3 625.4 L 1225.8 627.7 L 1232.7 633.1 L 1238 640.7 L 1246.3 647.1 L 1259.4 651.3 L 1273.7 658.5 L 1282.9 666.3 L 1291.9 677.1 L 1302.5 684.8 L 1314.7 689.3 L 1323.6 695.2 L 1329.3 702.5 L 1330.7 712.6 L 1326.6 731.7" />
<path class="river" d="M 352.1 1094.7 L 356.6 1101.2 L 371.4 1112.2 L 377.7 1118.9 L 375.2 1121.3 L 375 1124.9 L 377.1 1129.6 L 379.8 1132.6 L 383 1133.7 L 386.8 1138.7 L 390.9 1147.8 L 396 1155.3 L 405.1 1164.3 L 413.4 1173.5 L 416.8 1181.4 L 418.3 1191 L 421.9 1197.8 L 431.1 1204.2 M 333 870.6 L 335.9 880.4 L 336 887.2 L 334.3 894 L 335.9 903.8 L 340.8 916.3 L 344.1 935.2 L 346.7 973 L 347.3 979.4 L 349.2 982.1 L 352.5 983.3 L 353.6 986.9 L 352.7 992.9 L 350.5 997.6 L 347.2 1000.9 L 346.5 1009.3 L 349.2 1029.7 M 338.7 806.4 L 334.8 815.5 L 333.5 823.4 L 333.5 837.9 L 335.7 849.9 L 335 855.5 L 332.3 858.7 L 331.4 862.7 L 333 870" />
<g class="city"><circle cx="1265.8022190523607" cy="1001.2337559485609" r="5" /><text x="1277.8022190523607" y="1005.2337559485609">Ibadan</text></g>
<g class="city"><circle cx="268.983383899546" cy="560.897288860254" r="5" /><text x="280.983383899546" y="564.897288860254">Bamako</text></g>
<g class="city"><circle cx="810.0315476494294" cy="584.267594290108" r="5" /><text x="822.0315476494294" y="588.267594290108">Ouagadougou</text></g>
<g class="city"><circle cx="1291.7050080440329" cy="938.5688042281988" r="5" /><text x="1303.7050080440329" y="942.5688042281988">Ogbomosho</text></g>
<g class="city"><circle cx="1114.2888637051813" cy="488.48040796153117" r="5" /><text x="1126.2888637051813" y="492.48040796153117">Niamey</text></g>
<g class="city"><circle cx="1375.4266134793543" cy="526.8019669327305" r="5" /><text x="1387.4266134793543" y="530.8019669327305">Sokoto</text></g>
<g class="city"><circle cx="517.3078981923495" cy="975.4978272846115" r="5" /><text x="529.3078981923495" y="979.4978272846115">Bouaké</text></g>
<g class="city"><circle cx="579.1417233829877" cy="683.8897272694082" r="5" /><text x="591.1417233829877" y="687.8897272694082">Bobo Dioulasso</text></g>
<text class="map-title" x="80" y="105">Burkina Faso Physical Study Map</text>
<text class="map-subtitle" x="80" y="145">Landmark: Sindou Peaks | Study terrain and water systems</text>
  <text class="footer" x="80" y="1036">Made with Natural Earth. Free vector and raster map data @ naturalearthdata.com.</text>
</svg>
