<?xml version="1.0" encoding="UTF-8"?>
<svg xmlns="http://www.w3.org/2000/svg" width="1600" height="1100" viewBox="0 0 1600 1100" role="img" aria-labelledby="title desc">
  <title id="title">Bulgaria Physical Study Map</title>
  <desc id="desc">Made with Natural Earth. Free vector and raster map data @ naturalearthdata.com.</desc>
  <defs>
    <linearGradient id="terrain" x1="0" x2="1" y1="0" y2="1">
      <stop offset="0%" stop-color="#6c8c53" />
      <stop offset="42%" stop-color="#d5c487" />
      <stop offset="72%" stop-color="#b88b5f" />
      <stop offset="100%" stop-color="#f1f5ee" />
    </linearGradient>
    <filter id="softShadow" x="-10%" y="-10%" width="120%" height="120%">
      <feDropShadow dx="0" dy="10" stdDeviation="12" flood-color="#0f172a" flood-opacity="0.16" />
    </filter>
    <style>
      .neighbor { fill: #ffffff; stroke: #94a3b8; stroke-width: 1.2; opacity: 0.72; }
      .country { fill: url(#terrain); stroke: #1f2937; stroke-width: 4; filter: url(#softShadow); }
      .admin1 { fill: none; stroke: #64748b; stroke-width: 1.1; stroke-dasharray: 6 7; opacity: 0.75; }
      .river { fill: none; stroke: #1d9bd1; stroke-width: 3; stroke-linecap: round; opacity: 0.88; }
      .lake { fill: #8ed1ea; stroke: #0ea5e9; stroke-width: 1.5; opacity: 0.8; }
      .city circle { fill: #ef4444; stroke: #ffffff; stroke-width: 2; }
      .city text, .terrain-label { fill: #172033; font: 700 24px system-ui, sans-serif; paint-order: stroke; stroke: #ffffff; stroke-width: 5; stroke-linejoin: round; }
      .map-title { fill: #0f172a; font: 800 46px system-ui, sans-serif; }
      .map-subtitle { fill: #475569; font: 600 24px system-ui, sans-serif; }
      .footer { fill: #64748b; font: 500 18px system-ui, sans-serif; }
    </style>
  </defs>
  <rect width="100%" height="100%" fill="#d8edf0" />
  <rect x="40" y="40" width="1520" height="1020" rx="32" fill="#ffffff" opacity="0.54" />
  <path class="neighbor" d="M 18414 -2674.9 L 18560.6 -2722.9 L 18560.6 -2644.3 L 18434.5 -2638.4 L 18414 -2674.9 Z M 3516.1 163.8 L 3463.7 232 L 3352.3 250.9 L 3238 369.6 L 3342.5 478.6 L 3331.2 556.1 L 3456.7 691.4 L 3456.7 691.4 L 3388 737.7 L 3368.3 767 L 3317.5 759.1 L 3238.5 689.3 L 3206.2 685.5 L 3133.9 658.8 L 3098.8 611.7 L 2991.6 587.6 L 2921.9 605.7 L 2901.7 584.3 L 2745.2 529.2 L 2576 510.6 L 2478.9 490.9 L 2464.9 504.5 L 2318.3 407.4 L 2187.2 364 L 2087.9 296.5 L 2171.6 278.2 L 2267 182 L 2202.7 136.6 L 2372.1 89.6 L 2369 64.5 L 2265.9 83 L 2269.5 32 L 2328.7 -0.1 L 2440 -8.5 L 2458 -46.9 L 2432.7 -110.2 L 2479.3 -170.4 L 2478 -204.2 L 2308.6 -241.6 L 2241.4 -240.3 L 2170.5 -294.1 L 2082.3 -275.9 L 1936.3 -316.4 L 1938.8 -339 L 1897.9 -388.8 L 1806.3 -394.4 L 1796.8 -430 L 1825.5 -453.3 L 1752 -518.4 L 1632.9 -507.3 L 1597.9 -513.1 L 1568.9 -486.9 L 1526 -491.6 L 1526 -491.6 L 1497.7 -565.2 L 1470.7 -603.3 L 1492.8 -614.1 L 1585.6 -610.1 L 1630.3 -635.2 L 1597.2 -665.8 L 1519.7 -686.1 L 1526.6 -706.8 L 1479.8 -727.8 L 1407.8 -803 L 1432.4 -834 L 1421.2 -888 L 1308.8 -915.4 L 1248.5 -901.7 L 1232.2 -930.2 L 1111.2 -959 L 1074.2 -1026.9 L 1064.4 -1082.6 L 1009 -1109.1 L 1058.3 -1145.6 L 1024.2 -1252.8 L 1106 -1319 L 1088.7 -1339 L 1088.7 -1339 L 1219.3 -1402.6 L 1098.9 -1457.2 L 1098.9 -1457.2 L 1345 -1603.9 L 1451.7 -1670.3 L 1495 -1728.9 L 1324.8 -1807.7 L 1371.8 -1882.6 L 1268.4 -1968.1 L 1345.7 -2066.6 L 1212.1 -2197.5 L 1318.1 -2284.1 L 1142.1 -2360.7 L 1158.9 -2441.2 L 1251.7 -2451.8 L 1447.3 -2497.9 L 1447.3 -2497.9 L 1565.8 -2537.9 L 1754.6 -2468.4 L 2069.4 -2441 L 2503.6 -2311 L 2591.9 -2256.4 L 2599.5 -2179.9 L 2471.9 -2119.5 L 2284.2 -2088.9 L 1771.1 -2176.2 L 1686.7 -2161.6 L 1874.1 -2077.5 L 1881.4 -2024.1 L 1888.9 -1906.7 L 2036.9 -1871.6 L 2126.7 -1841.8 L 2141.6 -1897.5 L 2072.3 -1946.9 L 2145.5 -1990.5 L 2423.3 -1918.9 L 2520.1 -1946.9 L 2442.8 -2031.1 L 2710.6 -2143.7 L 2816.7 -2137 L 2924 -2096.9 L 2990.9 -2175.9 L 2895.1 -2244.4 L 2951.4 -2313.1 L 2866.9 -2384.4 L 3188.4 -2347.5 L 3254 -2283.2 L 3108.5 -2269 L 3109.3 -2205 L 3199.8 -2165.7 L 3377.3 -2190.6 L 3405.5 -2263.9 L 3645.5 -2318.6 L 4046.6 -2417.3 L 4133.3 -2411.7 L 4020 -2341.9 L 4162.6 -2329.9 L 4244.9 -2369.2 L 4460.3 -2372.4 L 4631 -2420 L 4762 -2350.8 L 4892.6 -2426.9 L 4772.1 -2493.5 L 4831.9 -2531.4 L 5171.4 -2496.6 L 5330.5 -2460.7 L 5747 -2329.4 L 5823.8 -2389.6 L 5707 -2450.3 L 5703.7 -2474.7 L 5565.2 -2486 L 5603.1 -2540.5 L 5541.6 -2630.1 L 5538.1 -2666.9 L 5750.2 -2771 L 5825.6 -2875.5 L 5911.1 -2898.1 L 6215.4 -2867.7 L 6239.4 -2803.8 L 6130.4 -2710.6 L 6201.9 -2674 L 6238.9 -2593.6 L 6212.8 -2436.1 L 6339.6 -2365.7 L 6290.2 -2289 L 6065.1 -2125.7 L 6196.5 -2108.8 L 6242.2 -2150.2 L 6368.7 -2179.7 L 6399.2 -2236.5 L 6498.6 -2291.3 L 6431.7 -2356.6 L 6485.3 -2432.5 L 6359.6 -2441.9 L 6332 -2505.9 L 6423.7 -2621.3 L 6274.4 -2715 L 6480.1 -2792.5 L 6453.5 -2874.2 L 6510.8 -2876.8 L 6571.2 -2813.1 L 6525.9 -2702.2 L 6648.9 -2681.2 L 6596.5 -2764 L 6788.8 -2809.2 L 7027.3 -2815.3 L 7239.7 -2749.8 L 7137.5 -2845.5 L 7126.1 -2968 L 7325.9 -2991.1 L 7602.4 -2986.1 L 7851.4 -3001.1 L 7758 -3061.2 L 7891 -3136.7 L 8023.1 -3139.9 L 8246.5 -3196.9 L 8550 -3212.2 L 8588.4 -3243.7 L 8890.2 -3254.3 L 8984.2 -3228.5 L 9242.1 -3289.6 L 9453.3 -3287.7 L 9485 -3337.3 L 9594.8 -3386.2 L 9866.1 -3433.4 L 10063.2 -3396.2 L 9906.7 -3367.8 L 10167.1 -3350.2 L 10198.1 -3293.4 L 10303.1 -3321.4 L 10639.1 -3319.9 L 10898.2 -3263.8 L 10990.4 -3220.7 L 10961.9 -3161 L 10834.7 -3127 L 10532.7 -3063.2 L 10446.3 -3029.1 L 10588.9 -3013 L 10758.9 -2984 L 10862.3 -3005.7 L 10921 -2932 L 10971.4 -2961.8 L 11155.2 -2980 L 11524 -2961 L 11552 -2907.2 L 12032.5 -2890.1 L 12039 -2977.9 L 12283 -2957.8 L 12466.4 -2958.5 L 12652 -2897.9 L 12704.9 -2824.4 L 12636.9 -2776.2 L 12781.3 -2685.8 L 12962 -2639.1 L 13072.9 -2759.7 L 13257.3 -2708 L 13453.2 -2738.9 L 13675.7 -2703.5 L 13760.3 -2735.8 L 13948.3 -2719.7 L 13865.3 -2826.4 L 14017.1 -2876.1 L 15055.1 -2801.5 L 15152.9 -2733.3 L 15453.8 -2645.5 L 15917.9 -2667.2 L 16146.7 -2648.3 L 16242.4 -2600.8 L 16228.4 -2516.7 L 16370 -2484 L 16523.8 -2507.5 L 16727.7 -2510.5 L 16944.6 -2488 L 17162.5 -2500.7 L 17362.7 -2398.5 L 17505.1 -2435.3 L 17412.2 -2508.8 L 17463.3 -2559.8 L 17830 -2527.7 L 18069.1 -2534.6 L 18399.6 -2479.7 L 18560.6 -2429.5 L 18560.6 -1971.7 L 18559.7 -1971 L 18412 -1920.5 L 18263 -1929 L 18366.7 -1867.8 L 18435.1 -1773.1 L 18488.2 -1742.1 L 18501.5 -1694.6 L 18471.9 -1664.2 L 18257.6 -1689.2 L 17936.4 -1602.7 L 17834.2 -1589.3 L 17658.3 -1508.5 L 17491.5 -1438 L 17449.3 -1385.7 L 17284.9 -1465.3 L 16985.4 -1375 L 16933.1 -1417.7 L 16822.4 -1368.5 L 16668.7 -1384.2 L 16631.7 -1308.7 L 16493.8 -1197.4 L 16497.9 -1151 L 16628.8 -1125.2 L 16613.4 -957.9 L 16506.7 -953.7 L 16457.5 -857.5 L 16505.3 -808 L 16304.3 -749.3 L 16264.4 -618.1 L 16093.1 -590.1 L 16058.6 -473.3 L 15893 -366.2 L 15850.5 -445.4 L 15801.2 -613.1 L 15737.1 -868.5 L 15792.3 -1027.9 L 15889.3 -1096.5 L 15895.3 -1150.2 L 16073.9 -1175.9 L 16279.2 -1320.6 L 16477.1 -1438.8 L 16683.7 -1530.5 L 16776.1 -1692.5 L 16636.4 -1682.8 L 16567.4 -1588.1 L 16275.9 -1461.9 L 16181.7 -1603.2 L 15885 -1564.2 L 15597.4 -1371.5 L 15692.3 -1301.1 L 15435.8 -1271.1 L 15258.1 -1259.2 L 15266.4 -1342.3 L 15087.7 -1359.8 L 14945.3 -1303.3 L 14593.9 -1323.1 L 14215.9 -1289 L 13843.6 -1064.7 L 13403.1 -793.6 L 13584.2 -779.1 L 13640.7 -707.1 L 13752.3 -681.6 L 13825.9 -739 L 13951.9 -731.5 L 14117.9 -605.1 L 14121.8 -507.3 L 14031.9 -392.5 L 14022.2 -255.2 L 13970.4 -71.5 L 13797.2 94.8 L 13758.7 174.3 L 13602.6 308.2 L 13447.8 440.8 L 13373.6 508.7 L 13220.4 576.2 L 13148 577.7 L 13075.8 521.8 L 12921.5 605.9 L 12903.6 644.2 L 12903.6 644.2 L 12903.6 644.2 L 12903.6 644.2 L 12887.5 624 L 12887.5 624 L 12886.8 565.7 L 12945.5 562.6 L 12962 426.8 L 12931.8 328.3 L 13030.4 287.7 L 13169.9 308.1 L 13247.2 196.3 L 13286.6 70.4 L 13331.2 28.3 L 13391.6 -75.1 L 13201.7 -41.2 L 13102 4.1 L 12927.4 4 L 12880.9 -104 L 12744.7 -185.7 L 12544.7 -222.5 L 12502.2 -335 L 12462.2 -405.6 L 12419.1 -455.1 L 12348 -571 L 12247.1 -613.3 L 12075.1 -647.5 L 11922.7 -644.4 L 11779.9 -623.7 L 11685 -566.5 L 11748 -539.2 L 11749.5 -475.8 L 11685.5 -438.9 L 11581.8 -317 L 11582.8 -266.4 L 11420.9 -193.8 L 11282.9 -237.2 L 11145.8 -227.6 L 11085.6 -266.1 L 11016.7 -278.6 L 10848.3 -197.6 L 10697 -178.5 L 10591.4 -150 L 10446.6 -168.8 L 10340 -167.6 L 10270.3 -226.3 L 10157.7 -281.5 L 10042.5 -296.7 L 9897.1 -281.7 L 9788.5 -260.4 L 9625.3 -308.7 L 9603.3 -394.8 L 9468.2 -424.4 L 9363.9 -437.8 L 9235.1 -485.3 L 9116.1 -366.2 L 9162.7 -298.6 L 9051 -218.5 L 8884.9 -247.4 L 8770.2 -251.6 L 8693.3 -305.2 L 8573.4 -306.9 L 8473.5 -342.2 L 8298.7 -288.2 L 8079.4 -189.2 L 7958.2 -169.2 L 7913.2 -159.8 L 7852.2 -230.1 L 7704.2 -214.7 L 7655.3 -263.5 L 7574.9 -285.8 L 7519.6 -352.2 L 7456.1 -372.9 L 7291 -343.4 L 7132.7 -409.6 L 7071.4 -349.4 L 6814.6 -641.3 L 6668 -730.1 L 6710 -766.1 L 6422 -657.7 L 6311.7 -651.1 L 6321.3 -713.8 L 6173.6 -753 L 6053.6 -725.1 L 6017.5 -844.2 L 5810.9 -869 L 5707.6 -821.3 L 5420 -778.8 L 5363.9 -750.5 L 4933.8 -710.5 L 4881.1 -671.2 L 4964.1 -592.5 L 4853.7 -562.6 L 4875.3 -531.3 L 4765 -475.3 L 4951.2 -396.3 L 4922.4 -341.9 L 4761 -346.8 L 4727.6 -312.7 L 4580.6 -372.3 L 4398.4 -370 L 4276.4 -321.5 L 4140.3 -368 L 3887 -447.5 L 3707.5 -444.6 L 3470.2 -319.6 L 3455.9 -235.6 L 3337.7 -302.3 L 3246 -176 L 3279.6 -152.6 L 3213.2 -65.5 L 3310.8 12.5 L 3396.1 9.3 L 3469.3 86.1 L 3457.7 145.2 L 3516.1 163.8 Z M 8650.8 -3815.7 L 8899.5 -3841.7 L 9122.8 -3783.8 L 9387.4 -3672.7 L 9359.1 -3569.4 L 9108.3 -3555 L 8788.2 -3588.2 L 8597.4 -3632.1 L 8509.2 -3714.5 L 8352.4 -3737.2 L 8650.8 -3815.7 Z M 9692.1 -3615.4 L 9983.4 -3550.1 L 9949.3 -3503.4 L 9301.4 -3459 L 9511.4 -3609.9 L 9605.8 -3622.9 L 9692.1 -3615.4 Z M 13828.9 -3254 L 14132.4 -3248.9 L 14547.8 -3188 L 14457.5 -3102.6 L 14033.8 -3105.8 L 13843.2 -3078.7 L 13615.5 -3153.4 L 13677.3 -3232.4 L 13828.9 -3254 Z M 14908.3 -3163.1 L 15196.7 -3133 L 15063.8 -3087.6 L 14880.1 -3097.8 L 14666.6 -3143.2 L 14694.1 -3180.4 L 14908.3 -3163.1 Z M 13947.5 -2936 L 14056.6 -2981.4 L 14200.3 -2992 L 14363.6 -2948.1 L 14377.5 -2917.9 L 14203.2 -2917.1 L 13967.7 -2929.9 L 13947.5 -2936 Z M 3027.1 -3765.8 L 3251.5 -3786.7 L 3426.1 -3788.1 L 3449.6 -3757.1 L 3515.6 -3784.6 L 3623.9 -3803.6 L 3794.4 -3778.4 L 3750 -3760.9 L 3595.7 -3745.7 L 3492.3 -3737 L 3476.3 -3718.1 L 3341.9 -3699.2 L 3217.4 -3726.4 L 3282.9 -3762.3 L 3027.1 -3765.8 Z M 485.3 -747.4 L 273.9 -745.7 L 132.4 -758.7 L 158.6 -809.3 L 317.2 -846.6 L 437.6 -826.4 L 488.4 -808.2 L 476.1 -776.7 L 485.3 -747.4 Z M 4022.6 -2979.6 L 4297.7 -3080.5 L 4266.7 -3132.7 L 4523.7 -3193.4 L 4903.2 -3267.2 L 5285.7 -3288.7 L 5482.5 -3331.3 L 5706.2 -3346.3 L 5786.1 -3300.9 L 5708.9 -3265.1 L 5301.7 -3208.1 L 4950.7 -3153.3 L 4593.7 -3043.9 L 4422.4 -2931.7 L 4242.2 -2821.2 L 4265.6 -2725.7 L 4485.5 -2631.5 L 4417.6 -2621.4 L 4042 -2636.3 L 4011.5 -2687.3 L 3803.5 -2718.2 L 3786.7 -2780.2 L 3904.2 -2804.9 L 3900.3 -2867.6 L 4128.2 -2965.6 L 4022.6 -2979.6 Z M 14298.2 -675.8 L 14338 -565 L 14335.1 -451.9 L 14382.5 -335.9 L 14498.2 -132.4 L 14328.1 -170.3 L 14257.3 -4.2 L 14369.4 113.5 L 14366.1 193.9 L 14279.1 124.6 L 14203.7 213.5 L 14182.4 117.1 L 14195.2 5.1 L 14182.1 -118.9 L 14208.7 -205.8 L 14213.8 -359.5 L 14146.5 -472.5 L 14156.6 -629.5 L 14262.9 -682.4 L 14217.2 -735.7 L 14268.4 -751.8 L 14298.2 -675.8 Z M -22232.1 -2227.5 L -22242 -2156.1 L -22164.5 -2127.5 L -22191.2 -2211 L -21879.2 -2193.9 L -21654.2 -2086.3 L -21768.1 -2036.2 L -21956.5 -2024.3 L -21959.4 -1912 L -22005.4 -1888.1 L -22113 -1891.5 L -22200.6 -1931.6 L -22353.4 -1965.1 L -22379.1 -2015 L -22495.8 -2033.8 L -22626.5 -2018.9 L -22689 -2059.1 L -22664 -2101.8 L -22801.7 -2074.5 L -22749.8 -2020.4 L -22815 -1971.7 L -22815 -2429.5 L -22533.5 -2341.8 L -22232.1 -2227.5 Z M -22664.9 -2651.3 L -22815 -2644.3 L -22815 -2722.9 L -22800.3 -2727.7 L -22702.9 -2727.4 L -22536.7 -2694.6 L -22546.5 -2678.9 L -22664.9 -2651.3 Z M 1715.6 212.9 L 1745.9 184.5 L 1827.6 209.1 L 1864.6 213.7 L 1879.5 236.4 L 1896.8 239.9 L 1897.8 249.8 L 1954 277.5 L 2071.2 270.6 L 2048.8 311.6 L 1923 331.5 L 1766.9 398 L 1703 374.7 L 1728.4 320.6 L 1602.8 287 L 1623.1 265 L 1733.1 226.8 L 1715.6 212.9 Z" />
<path class="neighbor" d="M 1526 -491.6 L 1568.9 -486.9 L 1597.9 -513.1 L 1632.9 -507.3 L 1752 -518.4 L 1825.5 -453.3 L 1796.8 -430 L 1806.3 -394.4 L 1897.9 -388.8 L 1938.8 -339 L 1936.3 -316.4 L 2082.3 -275.9 L 2170.5 -294.1 L 2241.4 -240.3 L 2308.6 -241.6 L 2478 -204.2 L 2479.3 -170.4 L 2432.7 -110.2 L 2458 -46.9 L 2440 -8.5 L 2328.7 -0.1 L 2269.5 32 L 2265.9 83 L 2174.1 92.2 L 2097.6 129.4 L 1990.1 135.5 L 1891.1 178.3 L 1896.8 239.9 L 1879.5 236.4 L 1864.6 213.7 L 1827.6 209.1 L 1745.9 184.5 L 1715.6 212.9 L 1699.8 200.4 L 1521.2 171.4 L 1513.3 128.5 L 1406.8 142.7 L 1364.1 206 L 1275.1 290.9 L 1223 271.2 L 1169 289.7 L 1117.7 268.5 L 1146.6 256 L 1166.7 216.6 L 1198.2 180 L 1190 159.4 L 1214.1 150.2 L 1225.4 166.1 L 1293.1 169.5 L 1323.6 161 L 1302.1 149.3 L 1310.2 132.2 L 1270.1 103 L 1253.5 54.9 L 1211.6 36.1 L 1219.9 -2.8 L 1168 -33.7 L 1120.7 -38 L 1036 -73.8 L 959.6 -62.5 L 932.2 -45.5 L 883.7 -45.5 L 854.8 -18.7 L 769.9 -7.6 L 730.7 10 L 677.3 -18.1 L 603.7 -18.5 L 532.5 -31.2 L 482.9 -6.6 L 474.9 -37.4 L 411.1 -68.7 L 433.5 -115 L 465.4 -144.9 L 490.5 -138.2 L 460.9 -189.9 L 565.2 -285.5 L 622.3 -298.8 L 634.6 -331.1 L 576.8 -431.4 L 631.7 -435.9 L 694.7 -467.1 L 783.7 -469.6 L 899.8 -460.6 L 1028.1 -433 L 1118.6 -430.7 L 1161.8 -414.1 L 1205 -434.1 L 1235.1 -407.3 L 1338.8 -412.8 L 1384.5 -401.7 L 1391.9 -459.5 L 1427.3 -484.7 L 1526 -491.6 Z" />
<path class="neighbor" d="M 932.2 -45.5 L 959.6 -62.5 L 1036 -73.8 L 1120.7 -38 L 1168 -33.7 L 1219.9 -2.8 L 1211.6 36.1 L 1253.5 54.9 L 1270.1 103 L 1310.2 132.2 L 1302.1 149.3 L 1323.6 161 L 1293.1 169.5 L 1225.4 166.1 L 1214.1 150.2 L 1190 159.4 L 1198.2 180 L 1166.7 216.6 L 1146.6 256 L 1117.7 268.5 L 1097.1 216.1 L 1109.2 167 L 1105.6 116.6 L 1039.3 48.2 L 1002.8 -0.2 L 967.2 -34.3 L 932.2 -45.5 Z" />
<path class="neighbor" d="M 1117.7 268.5 L 1169 289.7 L 1223 271.2 L 1275.1 290.9 L 1277.8 320.6 L 1222.1 345.3 L 1187.2 334.5 L 1155 473.2 L 1087.4 461.1 L 1003.8 419.4 L 868.5 446.1 L 811.5 475.4 L 642.7 469.3 L 554.4 451.4 L 509.9 459.8 L 476.8 412.6 L 455.7 392.5 L 482.4 373.1 L 454 358.8 L 417.9 384.6 L 350.9 351.2 L 341.9 303.8 L 271.9 276.8 L 259 240.2 L 196.7 195.1 L 288.9 173.4 L 358.3 95.4 L 412.7 17.5 L 482.9 -6.6 L 532.5 -31.2 L 603.7 -18.5 L 677.3 -18.1 L 730.7 10 L 769.9 -7.6 L 854.8 -18.7 L 883.7 -45.5 L 932.2 -45.5 L 967.2 -34.3 L 1002.8 -0.2 L 1039.3 48.2 L 1105.6 116.6 L 1109.2 167 L 1097.1 216.1 L 1117.7 268.5 Z" />
<path class="neighbor" d="M 894.3 1439.5 L 880 1473.4 L 714.5 1483.2 L 715.6 1464.2 L 575.4 1441.8 L 596.6 1392.9 L 659.5 1431.7 L 748.9 1425.1 L 834.5 1433.3 L 831.7 1453.3 L 894.3 1439.5 Z M 510.7 745.5 L 595.7 748.9 L 687.8 717.3 L 768.7 757.4 L 873.2 746.6 L 874.4 689.3 L 930.4 719.8 L 894.9 791.7 L 867.5 804.6 L 797.5 801.3 L 737.5 790.5 L 598.4 820.3 L 678 884.9 L 619.6 903.7 L 555.6 903.8 L 494.8 844.6 L 473.2 869.8 L 498.9 938.5 L 556.4 992.4 L 513.1 1017.6 L 577.1 1070.6 L 634 1103.9 L 635.7 1168.8 L 529.4 1138.4 L 563.3 1197 L 490.3 1209 L 533.9 1310.5 L 457.6 1311.9 L 363.3 1261.9 L 320.2 1170 L 300.1 1093.5 L 255.3 1040.7 L 196.4 975.1 L 188.6 942.4 L 242.1 886.7 L 249 849.3 L 286.3 832.6 L 288.6 802.4 L 363.8 792.3 L 407.6 767.1 L 469.9 769.4 L 488.8 749.3 L 510.7 745.5 Z" />
<path class="neighbor" d="M 3018.6 1224.5 L 2963.5 1243.9 L 2923.1 1214.7 L 2789.5 1199.8 L 2740.1 1217.7 L 2609.4 1235.6 L 2547.4 1233.6 L 2415.2 1276.7 L 2320.6 1277.1 L 2259.5 1255.5 L 2132.9 1287.4 L 2095.3 1265.1 L 2089.1 1329.2 L 2058.3 1354.4 L 2027.5 1379.5 L 1985.3 1327.4 L 2028.8 1284.3 L 1958.7 1294 L 1862.6 1267.6 L 1783.5 1333.8 L 1609.1 1346.7 L 1516.1 1285 L 1392.2 1281.1 L 1365.7 1328.8 L 1286.2 1342.4 L 1175.1 1281.2 L 1049.6 1283.3 L 981.5 1169 L 897.6 1105.2 L 953.5 1015.9 L 880.6 961 L 1008.1 851 L 1185.1 846.4 L 1233.4 759.1 L 1452.4 774.3 L 1590.6 699.8 L 1724.5 667.3 L 1914.7 664.8 L 2115.3 745.8 L 2280.1 790.3 L 2414 772.6 L 2513 782.8 L 2648.7 722.8 L 2771.1 717.3 L 2881.8 773.8 L 2901.3 814.2 L 2890.3 870.2 L 2975.7 898.7 L 3021 932.3 L 2942.3 965 L 2978.2 1096.8 L 2955.7 1132.4 L 3018.6 1224.5 L 3018.6 1224.5 Z M 874.4 689.3 L 991.5 653.2 L 1090.5 668.6 L 1104.1 712.8 L 1204.5 749.9 L 1183.5 778.1 L 1047.1 784.4 L 998 819.9 L 902.1 881.8 L 866 828.3 L 867.5 804.6 L 894.9 791.7 L 930.4 719.8 L 874.4 689.3 Z" />
<path class="neighbor" d="M 288.6 802.4 L 286.3 832.6 L 249 849.3 L 242.1 886.7 L 188.6 942.4 L 169.1 934.4 L 166.8 909.1 L 103.1 870.5 L 93.1 815.7 L 102.8 737.3 L 118.5 701.6 L 99.2 683.5 L 99.2 683.5 L 91.5 646.9 L 141.3 590.3 L 148.6 612 L 179.5 601.8 L 204 632.6 L 231.5 644.4 L 239.2 686.1 L 239.2 686.1 L 224.6 725.2 L 241 774.5 L 288.6 802.4 Z" />
<path class="neighbor" d="M -223.4 151.8 L -186.9 166 L -101 215.3 L -6 237.4 L 36.9 220.2 L 64.8 264.7 L 101.3 297.5 L 57.1 340.7 L 5.1 315.3 L -74.3 316.9 L -173.1 297.8 L -226.8 300.3 L -251.8 324.2 L -293 297.8 L -317.1 345.5 L -260.8 399.2 L -235.9 434.8 L -183 477.8 L -139.2 503.2 L -95.8 551.2 L 5.9 594.7 L -6.7 614.3 L -6.7 614.3 L -114.8 571.7 L -181.4 530.4 L -286.6 496.2 L -383.2 411.6 L -360 403 L -412.4 354.7 L -414.6 315.9 L -488.5 297.8 L -523.7 347.4 L -557.6 308.9 L -555 269 L -550.9 267.1 L -470.8 271.1 L -449.8 251.7 L -410.7 270.4 L -365.6 272.7 L -366 240.5 L -326.1 228.8 L -314.9 182.3 L -223.4 151.8 Z" />
<path class="neighbor" d="M 5.9 594.7 L -95.8 551.2 L -139.2 503.2 L -183 477.8 L -235.9 434.8 L -260.8 399.2 L -317.1 345.5 L -293 297.8 L -251.8 324.2 L -226.8 300.3 L -173.1 297.8 L -74.3 316.9 L 5.1 315.3 L 57.1 340.7 L 57.1 340.7 L 98.8 340.4 L 70 391 L 125.4 435.2 L 108.6 489.2 L 81.6 494.3 L 60.1 504.8 L 22.7 531.5 L 5.9 594.7 Z" />
<path class="neighbor" d="M 445 632.6 L 502.6 669.5 L 510.7 745.5 L 488.8 749.3 L 469.9 769.4 L 407.6 767.1 L 363.8 792.3 L 288.6 802.4 L 241 774.5 L 224.6 725.2 L 239.2 686.1 L 239.2 686.1 L 253.8 687 L 259 663.5 L 326.9 645.7 L 352.6 641.3 L 391.7 634.5 L 445 632.6 Z" />
<path class="neighbor" d="M 36.9 220.2 L 36.9 220.2 L 125 190 L 196.7 195.1 L 259 240.2 L 271.9 276.8 L 341.9 303.8 L 350.9 351.2 L 417.9 384.6 L 454 358.8 L 482.4 373.1 L 455.7 392.5 L 476.8 412.6 L 448.4 438.7 L 458.7 480.6 L 514.6 530.2 L 470.8 566.2 L 451.4 602.7 L 463.9 616.4 L 445 632.6 L 391.7 634.5 L 352.6 641.3 L 348.8 632.6 L 362.5 619 L 375.4 591 L 359.1 591.6 L 336.7 570.3 L 317.8 564.9 L 302.8 546.6 L 281.3 539.5 L 265 523.2 L 244.4 529.6 L 228.5 567.8 L 201 576 L 210.5 566.2 L 166.6 542.3 L 128.9 529.9 L 112.1 514 L 81.6 494.3 L 108.6 489.2 L 125.4 435.2 L 70 391 L 98.8 340.4 L 57.1 340.7 L 57.1 340.7 L 101.3 297.5 L 64.8 264.7 L 36.9 220.2 Z" />
<path class="neighbor" d="M 179.5 601.8 L 148.6 612 L 141.3 590.3 L 91.5 646.9 L 99.2 683.5 L 75.1 674.6 L 42.9 637.1 L -6.7 614.3 L 5.9 594.7 L 22.7 531.5 L 60.1 504.8 L 81.6 494.3 L 112.1 514 L 128.9 529.9 L 166.6 542.3 L 210.5 566.2 L 201 576 L 179.5 601.8 Z" />
<path class="neighbor" d="M 239.2 686.1 L 231.5 644.4 L 204 632.6 L 179.5 601.8 L 201 576 L 228.5 567.8 L 244.4 529.6 L 265 523.2 L 281.3 539.5 L 302.8 546.6 L 317.8 564.9 L 336.7 570.3 L 359.1 591.6 L 375.4 591 L 362.5 619 L 348.8 632.6 L 352.6 641.3 L 326.9 645.7 L 259 663.5 L 253.8 687 L 239.2 686.1 Z" />
<path class="lake" d="M 90.2 639 L 90.2 639 L 90.2 639 L 90.2 639 L 98.3 636.2 L 101.5 643.3 L 108.3 651.4 L 111.7 657 L 110.2 660.4 L 101.8 659.3 L 81.3 651.2 L 67.8 637.5 L 76.6 637.6 L 90.2 639 Z" />
<path class="country" d="M 476.8 412.6 L 509.9 459.8 L 554.4 451.4 L 642.7 469.3 L 811.5 475.4 L 868.5 446.1 L 1003.8 419.4 L 1087.4 461.1 L 1155 473.2 L 1095.4 520.8 L 1053.4 603 L 1090.5 668.6 L 991.5 653.2 L 874.4 689.3 L 873.2 746.6 L 768.7 757.4 L 687.8 717.3 L 595.7 748.9 L 510.7 745.5 L 502.6 669.5 L 445 632.6 L 463.9 616.4 L 451.4 602.7 L 470.8 566.2 L 514.6 530.2 L 458.7 480.6 L 448.4 438.7 L 476.8 412.6 Z" />

<path class="river" d="M 1006.6 423.7 L 1064.3 397.9 L 1082.8 383.7 L 1083.3 371.5 L 1081.9 362.6 L 1076.7 354.1" />
<path class="river" d="M 1286.9 294.8 L 1280.7 288.6 L 1271 282 L 1252.2 276.4 L 1231.5 278.3 L 1208.9 287.8 L 1193.6 291.3 L 1185.6 288.9 L 1180.7 289 L 1179 291.7 L 1179.3 294 L 1181.8 295.7 L 1181.5 297 L 1178.3 297.7 L 1180.6 299.6 L 1192.4 304" />
<path class="river" d="M 1192.4 304 L 1214.5 313.2 L 1222.7 315 L 1225.9 314.4 L 1229.3 315.4 L 1237.6 323.9 L 1245.8 328.1 L 1254.1 328.1 L 1262.7 330.4 L 1275.4 334.4" />
<path class="river" d="M 1192.3 304 L 1283.8 307.2" />
<path class="river" d="M -149.7 -27.2 L -118.2 -7.2 L -100.4 1.7 L -85.8 6.3 L -41.7 7 L 28.2 4.2 L 32.9 1.8 L 56.5 0.6 L 64.7 2.1 L 68.4 5.2 L 70.6 10.7 L 70.7 13.3 L 64.9 31.3 L 63.4 39.5 L 59.9 47.3 L 51.7 52.9 L 45.8 64.9 L 43.1 77.4 L 48.2 85.2 L 49 91 L 49.6 94.8 L 49.2 108 L 50.1 117.4 L 54.5 124.6 L 52.5 131 L 44.3 136.4 L 41.9 142.4 L 45.5 149 L 47.1 161.1 L 46.8 178.5 L 40.3 192.3 L 27.5 202.5 L 25.1 208.1 L 28.8 217.2 L 38 228.6 L 44.3 236.5 L 50.4 249.3 L 47 255.6 L 51.1 260.5 L 62.8 264 L 63.9 265.5 L 60.3 266.9 L 57.3 271.1 L 57 278.7 L 67.2 285.9 L 87.8 292.7 L 111 296.7 L 136.8 297.9 L 151.7 296.9 L 155.7 293.8 L 160.7 294.9 L 166.7 300.2 L 176.6 303.2 L 190.2 304.1 L 200.5 307.4 L 203.8 310.2 L 207.6 313.3 L 210.4 320.2 L 208.8 328.2 L 212 334.9 L 219.8 340.3 L 228.9 342.7 L 239.3 342.2 L 244.5 344.4 L 244.3 349.2 L 247.9 354.4 L 255.4 360 L 276.3 358.2 L 327.7 344.6 L 346.5 348.8 L 355 352.8 L 359.4 357.9 L 371.4 361.3 L 390.8 363 L 404.4 368.3 L 412 377.3 L 424.4 375.1 L 441.6 361.9 L 458.5 358.4 L 475.1 364.8 L 484.1 370 L 485.7 374.1 L 481.8 375.7 L 472.5 374.9 L 464.9 377.5 L 459 383.3 L 458.1 389.5 L 462.3 396.1 L 468.1 400.7 L 475.7 403.2 L 479.8 406.7 L 480.3 411 L 490.4 417.1 L 509.9 424.9 L 519.5 430.6 L 519 434.1 L 514.5 437.6 L 506 441 L 501.1 445.6 L 499.7 451.2 L 501 455.1 L 506.9 458.6 L 542 454.1 L 577.6 456.4 L 625.5 464.1 L 657.2 466.8 L 680.6 463.2 L 764.4 475.6 L 803.2 477.4 L 824.9 472.7 L 840.2 466.4 L 853.3 454.5 L 885.8 438.7 L 917.2 429.9 L 958.4 422.8 L 985.9 420.3 L 1001.4 423.1 L 1006.6 423.7 L 1014.8 424.2 L 1023.3 423.8 L 1044.2 419 L 1074.8 409.4 L 1093.4 400.2 L 1100 391.4 L 1100.4 384.8 L 1094.6 380.6 L 1092.3 375.4 L 1093.7 369.4 L 1090 363.3 L 1080.2 357 L 1076.7 354.1 L 1073.6 351.3 L 1071.3 348.1 L 1071.4 344.2 L 1075.1 340.2 L 1078.7 328.4 L 1082.4 308.7 L 1086.8 293.8 L 1092.2 283.5 L 1099.9 277 L 1115.3 272.9 L 1127.4 284.7 L 1142.7 291.1 L 1178.3 297.7" />
<path class="river" d="M 192 179.7 L 181.4 190.6 L 179 193.8 L 178.8 196.3 L 180.5 200.9 L 179.9 204.1 L 178.4 206.4 L 180.6 209.6 L 183.4 213.3 L 185.6 218.6 L 185.4 222.3 L 182.6 224.3 L 183.5 228.8 L 187.5 235.2 L 187 239.4 L 184 241.5 L 181.1 245.5 L 179.5 252 L 183.4 259.9 L 193 269.1 L 197 275.1 L 195.4 277.8 L 198 284.6 L 204.7 295.3 L 206.8 302.5 L 203.8 310.2" />
<g class="city"><circle cx="1202.834322802468" cy="782.3503716276103" r="5" /><text x="1214.834322802468" y="786.3503716276103">Istanbul</text></g>
<g class="city"><circle cx="872.2575881558316" cy="389.54474545350024" r="5" /><text x="884.2575881558316" y="393.54474545350024">Bucharest</text></g>
<g class="city"><circle cx="1213.6120900582837" cy="876.0970060161346" r="5" /><text x="1225.6120900582837" y="880.0970060161346">Bursa</text></g>
<g class="city"><circle cx="552.3675944609149" cy="590.6787426417081" r="5" /><text x="564.3675944609149" y="594.6787426417081">Sofia</text></g>
<g class="city"><circle cx="224.96448271201118" cy="345.26447113785287" r="5" /><text x="236.96448271201118" y="349.26447113785287">Belgrade</text></g>
<g class="city"><circle cx="150.58472890973806" cy="746.7283998280877" r="5" /><text x="162.58472890973806" y="750.7283998280877">Tirana</text></g>
<g class="city"><circle cx="502.75676460994634" cy="819.0769568219146" r="5" /><text x="514.7567646099463" y="823.0769568219146">Thessaloniki</text></g>
<g class="city"><circle cx="336.1517339788959" cy="669.440516515029" r="5" /><text x="348.1517339788959" y="673.440516515029">Skopje</text></g>
<text class="map-title" x="80" y="105">Bulgaria Physical Study Map</text>
<text class="map-subtitle" x="80" y="145">Landmark: Rila Monastery | Study terrain and water systems</text>
  <text class="footer" x="80" y="1036">Made with Natural Earth. Free vector and raster map data @ naturalearthdata.com.</text>
</svg>
