<?xml version="1.0" encoding="UTF-8"?>
<svg xmlns="http://www.w3.org/2000/svg" width="1600" height="1100" viewBox="0 0 1600 1100" role="img" aria-labelledby="title desc">
  <title id="title">Burundi Physical Study Map</title>
  <desc id="desc">Made with Natural Earth. Free vector and raster map data @ naturalearthdata.com.</desc>
  <defs>
    <linearGradient id="terrain" x1="0" x2="1" y1="0" y2="1">
      <stop offset="0%" stop-color="#6c8c53" />
      <stop offset="42%" stop-color="#d5c487" />
      <stop offset="72%" stop-color="#b88b5f" />
      <stop offset="100%" stop-color="#f1f5ee" />
    </linearGradient>
    <filter id="softShadow" x="-10%" y="-10%" width="120%" height="120%">
      <feDropShadow dx="0" dy="10" stdDeviation="12" flood-color="#0f172a" flood-opacity="0.16" />
    </filter>
    <style>
      .neighbor { fill: #ffffff; stroke: #94a3b8; stroke-width: 1.2; opacity: 0.72; }
      .country { fill: url(#terrain); stroke: #1f2937; stroke-width: 4; filter: url(#softShadow); }
      .admin1 { fill: none; stroke: #64748b; stroke-width: 1.1; stroke-dasharray: 6 7; opacity: 0.75; }
      .river { fill: none; stroke: #1d9bd1; stroke-width: 3; stroke-linecap: round; opacity: 0.88; }
      .lake { fill: #8ed1ea; stroke: #0ea5e9; stroke-width: 1.5; opacity: 0.8; }
      .city circle { fill: #ef4444; stroke: #ffffff; stroke-width: 2; }
      .city text, .terrain-label { fill: #172033; font: 700 24px system-ui, sans-serif; paint-order: stroke; stroke: #ffffff; stroke-width: 5; stroke-linejoin: round; }
      .map-title { fill: #0f172a; font: 800 46px system-ui, sans-serif; }
      .map-subtitle { fill: #475569; font: 600 24px system-ui, sans-serif; }
      .footer { fill: #64748b; font: 500 18px system-ui, sans-serif; }
    </style>
  </defs>
  <rect width="100%" height="100%" fill="#d8edf0" />
  <rect x="40" y="40" width="1520" height="1020" rx="32" fill="#ffffff" opacity="0.54" />
  <path class="neighbor" d="M 1639.5 67.7 L 1674.8 90.6 L 2433 516.6 L 2447.3 637.9 L 2747.4 846.9 L 2650.9 1104.5 L 2663.2 1223 L 2797.1 1299.2 L 2803.4 1353.6 L 2745.8 1479.8 L 2757.8 1543.4 L 2744.1 1643.3 L 2817.1 1774.3 L 2903.7 1980.5 L 2980.4 2026.2 L 2980.4 2026.2 L 2814.1 2147.5 L 2585.4 2228.7 L 2460 2225.2 L 2385.5 2287.9 L 2239.9 2293.3 L 2185.3 2319.8 L 1934.1 2260.8 L 1776.7 2277.8 L 1718.2 1993.4 L 1647.3 1895.9 L 1605.2 1838.1 L 1400.3 1799.1 L 1281.6 1736.3 L 1148.7 1701.1 L 1065.4 1666.1 L 978 1612.8 L 978 1612.8 L 865.1 1349.4 L 743.8 1232.3 L 702 1111 L 722.9 1002.3 L 685.3 809.9 L 771.8 800 L 847.6 724.2 L 929 615.2 L 980.6 571.4 L 978.7 503.5 L 933.6 456.1 L 921.5 373.7 L 921.5 373.7 L 981.9 347.3 L 993.9 224.3 L 910.9 106.3 L 984.3 81.2 L 1213.5 83.8 L 1639.5 67.7 Z" />
<path class="neighbor" d="M 685.3 809.9 L 722.9 1002.3 L 702 1111 L 743.8 1232.3 L 865.1 1349.4 L 978 1612.8 L 978 1612.8 L 895.7 1591.6 L 614.8 1626.9 L 558.8 1651.8 L 499.2 1785.3 L 546 1877.5 L 508.8 2125.1 L 482.9 2335 L 539.4 2372.2 L 685.6 2453.5 L 743 2415.5 L 760.5 2641 L 600.5 2639.3 L 514.6 2524.2 L 437.5 2435.1 L 277.3 2405.9 L 230.4 2296.3 L 102.6 2362.3 L -64.9 2333.2 L -134.7 2238.2 L -267.5 2218.9 L -365.5 2224 L -377.5 2159 L -449.6 2153.7 L -544.8 2141.4 L -674.3 2172.7 L -765.2 2167.6 L -817 2186.8 L -805.8 1937.9 L -875.5 1860.3 L -890.9 1731.8 L -860.1 1605.7 L -902.4 1525 L -906.3 1393.5 L -1160 1395.3 L -1141.8 1320 L -1248.5 1320.8 L -1259.7 1357 L -1389.4 1365.2 L -1441.9 1487 L -1473.2 1539.3 L -1588.7 1509.8 L -1657.7 1539.2 L -1796 1556.1 L -1876.1 1446.8 L -1924.1 1379.1 L -1984.1 1253.8 L -2035.7 1097.9 L -2652.7 1095.2 L -2726 1120.3 L -2786.6 1116.4 L -2872.9 1144.5 L -2902.2 1079.6 L -2849 1057.6 L -2842.5 966.4 L -2808.3 912.7 L -2732.2 868.7 L -2677.3 890 L -2605.7 810 L -2491.8 812 L -2478.5 871.2 L -2400.3 908.3 L -2277.3 777.2 L -2155.5 675.1 L -2102.7 608.2 L -2109.7 436.2 L -2018.9 233 L -1923 125.3 L -1785.4 24.6 L -1761.4 -42.1 L -1756.1 -118.8 L -1722.1 -191.4 L -1733 -309.9 L -1706.9 -495.2 L -1666.1 -625.6 L -1603.5 -737.4 L -1591.1 -863.7 L -1572.3 -1009.5 L -1490.9 -1115.7 L -1378.9 -1183 L -1206.8 -1112 L -1073.7 -1034.8 L -920.7 -1014.2 L -764.7 -973.4 L -702.2 -1099.7 L -673.5 -1115.8 L -578.2 -1094.8 L -345.4 -1199.2 L -262.9 -1154.9 L -195.2 -1161.2 L -163.9 -1212.1 L -86.2 -1230 L 71.1 -1208 L 205.2 -1203.2 L 274.3 -1225.3 L 400.9 -1052.7 L 494.8 -1027.4 L 550.8 -1062.5 L 647.5 -1048.7 L 763.9 -1093 L 813.6 -1003.7 L 997.6 -864.7 L 997.6 -864.7 L 985 -620.2 L 1068.8 -591.9 L 1001.6 -517.7 L 921.3 -462.1 L 841.3 -353.1 L 797.3 -255.9 L 785.6 -88 L 737.1 -8.2 L 735.4 149.5 L 675.2 207.8 L 667.5 332.2 L 638.8 348.3 L 619.4 462.7 L 672 557.7 L 685.3 809.9 Z" />
<path class="neighbor" d="M 1639.5 67.7 L 1213.5 83.8 L 984.3 81.2 L 910.9 106.3 L 786 170.8 L 735.4 149.5 L 737.1 -8.2 L 785.6 -88 L 797.3 -255.9 L 841.3 -353.1 L 921.3 -462.1 L 1001.6 -517.7 L 1068.8 -591.9 L 985 -620.2 L 997.6 -864.7 L 997.6 -864.7 L 1083.7 -921.7 L 1216.7 -875 L 1385 -923.9 L 1532.1 -923.4 L 1660.7 -1019.6 L 1759.8 -874.4 L 1784.3 -769.5 L 1876.3 -529.5 L 1800.2 -377.1 L 1697.3 -238.7 L 1637.4 -153.9 L 1639.5 67.7 Z" />
<path class="neighbor" d="M 910.9 106.3 L 993.9 224.3 L 981.9 347.3 L 921.5 373.7 L 921.5 373.7 L 810.4 360.1 L 746.4 479.1 L 619.4 462.7 L 638.8 348.3 L 667.5 332.2 L 675.2 207.8 L 735.4 149.5 L 786 170.8 L 910.9 106.3 Z" />
<path class="lake" d="M 1809.7 -111.8 L 1809.7 -111.8 L 1809.7 -111.8 L 1829.7 -73.3 L 1826.5 -69 L 1806.7 -63 L 1780.2 -62 L 1759.6 -57.1 L 1755.5 -53.8 L 1759 -33.9 L 1755.1 -27.5 L 1748.5 -26 L 1738.2 -35 L 1728.3 -34.9 L 1717.2 -37.9 L 1705.1 -38.7 L 1696.2 -32.7 L 1676.2 -9.8 L 1672.2 3.9 L 1673.9 20.6 L 1681.8 35.9 L 1693.7 52.9 L 1689.8 65.5 L 1685 72.8 L 1674.3 77.6 L 1672.9 85.2 L 1645.4 117.4 L 1639.3 129.8 L 1640.2 136.3 L 1649.6 145.2 L 1647.5 149.1 L 1626.9 149.6 L 1623.8 154.1 L 1623.8 159.7 L 1621.1 162.9 L 1622.4 166.9 L 1642 181.6 L 1643.1 185.5 L 1636.5 185.3 L 1615.9 179.6 L 1603.3 178.5 L 1593.9 180.2 L 1590.2 183.9 L 1585.6 197.5 L 1590 204.4 L 1591.7 211.6 L 1576.4 222.6 L 1574.5 237.3 L 1564.8 245.3 L 1552.7 250 L 1534.6 247.8 L 1527.1 251.7 L 1519.8 258.9 L 1512.8 270.9 L 1544.7 269.5 L 1550.4 272.1 L 1553.2 277.3 L 1559.4 283 L 1560.1 286.4 L 1536.8 286.7 L 1528.8 294 L 1513.3 292.1 L 1499.2 302.2 L 1497.9 307.3 L 1508.3 313.1 L 1558.7 321.1 L 1572.8 322.2 L 1608 310.5 L 1616.7 313 L 1619.8 320.1 L 1619.7 327.4 L 1611 337 L 1574.7 362 L 1557.3 377.1 L 1541 383.3 L 1543 392.3 L 1542 396.3 L 1537.5 398.3 L 1494.5 389.4 L 1464.6 373 L 1450.3 371.2 L 1439.1 375.1 L 1431.3 381.2 L 1428 388.4 L 1426.4 426.1 L 1439.6 458.3 L 1442.8 464.6 L 1428 467.4 L 1404.5 490.3 L 1400.4 493.1 L 1403.2 477.6 L 1401.3 468.5 L 1418.7 453.9 L 1421.7 445.6 L 1411.7 422.5 L 1413.8 400.9 L 1411 394.9 L 1398.6 394.6 L 1388.4 392.1 L 1384.8 389.9 L 1381.9 382.5 L 1376 378.9 L 1356.1 393.4 L 1353.4 390.5 L 1353.4 383.8 L 1350.5 382 L 1333.4 380.1 L 1323.4 375.5 L 1316.1 369.6 L 1308.3 350.7 L 1300.7 346.3 L 1291.7 346.4 L 1285.5 351.9 L 1277.8 363.7 L 1265.4 366 L 1261.6 369.6 L 1270.9 388.9 L 1272.9 397 L 1268.7 399.5 L 1247.9 395.1 L 1238.6 401.5 L 1234.9 414.4 L 1237.1 428.7 L 1242.2 445.4 L 1235.3 444.4 L 1224.3 428.1 L 1220.2 429.5 L 1217.4 433.7 L 1209.7 434.7 L 1203.6 454 L 1200 452.5 L 1196.3 444 L 1195.8 432.1 L 1202.8 417 L 1193.3 412 L 1187.7 405.7 L 1186.1 398 L 1196.7 384.5 L 1195.7 379.1 L 1192.7 370.6 L 1186.9 361.8 L 1179.1 355.8 L 1173.5 345.1 L 1173.6 303.9 L 1171.2 290.6 L 1171.3 273 L 1192 180.9 L 1201.9 165.6 L 1205.1 153.2 L 1213.3 97.3 L 1212.4 87.2 L 1209.9 81.6 L 1205.7 80.8 L 1200.6 82.6 L 1196 80.2 L 1192.9 64.7 L 1190.4 54.6 L 1185.4 44.1 L 1183.5 34.2 L 1203.5 -12.1 L 1213.6 -30.4 L 1240.3 -63.8 L 1241.6 -77.7 L 1236.4 -86.7 L 1229 -93.3 L 1227.6 -97.9 L 1231.1 -103.4 L 1248.3 -112.1 L 1253 -119.2 L 1274.8 -122.7 L 1285.2 -132.8 L 1295.4 -129.9 L 1301.4 -135.3 L 1314.9 -134 L 1321.7 -144.8 L 1327.9 -149.7 L 1333 -150.4 L 1335.4 -142.7 L 1343.1 -142 L 1352.9 -145.6 L 1359.5 -151.7 L 1364.4 -171.4 L 1370.1 -180.1 L 1376.8 -183.8 L 1383.8 -170.6 L 1390.2 -168.5 L 1382.9 -159.6 L 1381.8 -155.5 L 1386.1 -153.6 L 1395.1 -153.6 L 1404.4 -155.8 L 1419.7 -166.4 L 1425.2 -166.3 L 1428.7 -154.5 L 1432.8 -150.9 L 1441.8 -153.5 L 1455 -161.6 L 1465.2 -171.4 L 1466.6 -181 L 1479.3 -183.7 L 1492.6 -212.1 L 1489.7 -220.5 L 1501.8 -225.3 L 1507.6 -227.7 L 1515.7 -225.4 L 1526.7 -229.7 L 1527.5 -225.6 L 1520 -208.1 L 1524.5 -204 L 1547 -200.8 L 1551.8 -196.8 L 1551.9 -192.3 L 1542.8 -187.6 L 1544.2 -182.1 L 1551.6 -176.6 L 1561.9 -174.2 L 1571.9 -177.4 L 1584.4 -193.8 L 1592.8 -197.1 L 1599.6 -195.4 L 1602.9 -179.1 L 1606.2 -174.4 L 1630.6 -169.7 L 1648.1 -176.5 L 1654.3 -175.6 L 1654.1 -149.5 L 1655.9 -136.1 L 1660.3 -125.9 L 1665.7 -117.9 L 1672 -114.1 L 1683.8 -114.4 L 1685.8 -111.9 L 1682.1 -103.1 L 1684.2 -96.8 L 1706.8 -76.8 L 1719.2 -57.7 L 1724.5 -56.5 L 1729.5 -60.4 L 1733.5 -65.4 L 1737 -80.1 L 1747.4 -90 L 1772.2 -100.9 L 1809.7 -111.8 Z M 1252.8 355.9 L 1252.8 355.9 L 1252.8 355.9 L 1254 342.7 L 1250.8 337.9 L 1236.1 342.7 L 1220.5 346.6 L 1215.5 342.5 L 1208.1 332.3 L 1203.5 327.3 L 1197.7 336.1 L 1196 354.3 L 1208.6 366.9 L 1209.8 382.2 L 1220.5 379.8 L 1224.2 365.1 L 1234.4 363.7 L 1249.3 360.6 L 1252.8 355.9 Z M 1303.8 -49.1 L 1303.8 -49.1 L 1303.8 -49.1 L 1308.2 -60.4 L 1297.7 -70.3 L 1282 -61.5 L 1279 -66 L 1279.6 -81.8 L 1272.3 -82.4 L 1259.5 -82.6 L 1255 -77.8 L 1258.4 -70.3 L 1263.3 -63.6 L 1268.7 -60.6 L 1285 -55.1 L 1284.4 -47.9 L 1276.2 -38.6 L 1271.7 -29.1 L 1269.1 -21.1 L 1298.3 -32.2 L 1303.8 -49.1 Z M 1487.1 320.5 L 1487.1 320.5 L 1487.1 320.5 L 1488.8 311.5 L 1479.9 301.7 L 1475.7 289.6 L 1470.9 280 L 1456.3 281.7 L 1444.6 281.6 L 1439.8 266.6 L 1426.4 267.2 L 1415 274.1 L 1418.6 282.8 L 1419.5 299.9 L 1429.4 304.9 L 1448.2 309.2 L 1462.9 315.4 L 1476.6 320.2 L 1487.1 320.5 Z M 1528.4 -176.1 L 1528.4 -176.1 L 1528.4 -176.1 L 1531.8 -187.9 L 1517 -193.3 L 1497.4 -188.8 L 1496.8 -179.8 L 1496.1 -170.7 L 1488.3 -167.7 L 1489.1 -162.3 L 1505.8 -161 L 1507.6 -156.2 L 1521.5 -147.7 L 1518.5 -160.6 L 1516.8 -169.5 L 1528.4 -176.1 Z" />
<path class="lake" d="M 655.5 212.7 L 655.5 212.7 L 655.5 212.7 L 655.5 212.7 L 666.4 232 L 674.6 258 L 689 290.5 L 684.9 299.4 L 673.4 307 L 667.7 314.4 L 664.4 321.1 L 645.3 345.2 L 637.6 350.6 L 630.2 359.3 L 624.1 361.5 L 613.1 362.5 L 595.4 377.7 L 582.9 380.8 L 584.2 364.9 L 596.8 347.4 L 594 337.4 L 588.2 334.8 L 587.5 326.3 L 588.9 319.2 L 596.7 304.4 L 595.3 288.9 L 611.6 253.2 L 621.1 213.5 L 629.1 204.7 L 655.5 212.7 Z" />
<path class="lake" d="M 991.8 1662.7 L 990.3 1660.1 L 972 1653.3 L 965.8 1649.2 L 963.7 1646.9 L 960.1 1647.7 L 953 1655.4 L 939.3 1663 L 935 1662.8 L 940.3 1658 L 942.3 1654.1 L 942 1649.2 L 936.8 1647.1 L 926.7 1647.8 L 920.4 1645.9 L 916.9 1635.7 L 919.6 1621.7 L 923.3 1616 L 929.5 1611.1 L 938.1 1607.1 L 943.2 1596.6 L 944.7 1579.6 L 941.8 1565.8 L 934.6 1555.2 L 927.7 1548.7 L 921.2 1546.1 L 915.7 1541 L 906.1 1526.8 L 900.1 1521.4 L 884.9 1515.1 L 881.3 1510 L 878.7 1493.2 L 869.6 1472.7 L 866 1455.3 L 868 1449.2 L 866.7 1431.8 L 854 1395.2 L 842 1377.4 L 826 1363 L 808.3 1352.5 L 789 1345.9 L 771.4 1331.7 L 743 1295.5 L 726.4 1281.3 L 721.1 1274.1 L 714.5 1255.9 L 715.4 1236 L 713.8 1231.2 L 709.1 1231.6 L 705.4 1230 L 702.9 1226.3 L 679.3 1163.5 L 674.7 1160.3 L 670.6 1151.1 L 666.4 1146.4 L 659.2 1142.1 L 654.6 1131.5 L 652.6 1114.7 L 653.8 1105.8 L 659 1101 L 683.1 1081.4 L 685.3 1074.7 L 685.4 1070.5 L 683.8 1052.9 L 685.6 1047.2 L 691.7 1046.3 L 692 1043.4 L 661.5 992.1 L 647 963.8 L 638.6 940.4 L 635.5 925.8 L 637.7 919.9 L 638.1 854.7 L 640.2 827.9 L 645 816 L 649.6 810.8 L 656.6 812.2 L 656.4 796.7 L 667.4 726.5 L 665.5 719 L 661.8 720.3 L 659.8 730 L 644.6 775.4 L 642 777.2 L 627.4 771.7 L 626.3 765.3 L 632.8 756.6 L 635 748.4 L 632.7 740.6 L 632.2 724.6 L 635.8 683.5 L 638.7 674.5 L 638.7 667 L 635.8 661 L 637.2 653.1 L 643 643.4 L 645 625.3 L 643.2 598.8 L 643.9 581.6 L 647.1 573.6 L 650.9 568.7 L 655.2 567.1 L 676.6 570.6 L 683.6 577.8 L 683.4 593 L 684.2 634.8 L 686.6 662.3 L 690.4 675.3 L 705 700.6 L 704.7 705.6 L 723.6 747.8 L 735.2 768 L 745.8 781.9 L 750.6 793.2 L 748.3 807.7 L 741.2 870.3 L 742.6 889.5 L 739.7 892.8 L 741.3 895.1 L 747.4 896.4 L 757.3 901.7 L 770.8 911.1 L 779.8 923 L 784.1 937.3 L 784.9 946.3 L 782 949.8 L 781.6 968.2 L 778.9 969.5 L 775.9 988.6 L 771.4 999.3 L 772.8 1012.1 L 784.1 1024.8 L 795.1 1046.3 L 807.3 1075.8 L 813.1 1094.5 L 812.4 1102.4 L 805.8 1110.7 L 793.3 1119.3 L 785.1 1122.9 L 781.2 1121.4 L 776.3 1123.7 L 770.6 1129.9 L 766.6 1143.5 L 764.2 1164.6 L 765.2 1174.6 L 770.6 1183.7 L 785.7 1200.9 L 811.5 1223.8 L 812.8 1227.7 L 816 1228.2 L 828.1 1221.6 L 842.9 1219.2 L 851.9 1220.8 L 858.1 1224.5 L 861.4 1230.2 L 885.9 1252.3 L 897.8 1267.9 L 906.5 1286.3 L 918.4 1302.5 L 933.7 1316.5 L 941.1 1331.1 L 940.6 1346.3 L 936.9 1354.4 L 932.2 1355.1 L 930.5 1356.8 L 932.4 1367.3 L 943.9 1390.4 L 948.5 1411.2 L 946.4 1429.7 L 949.6 1446 L 958.2 1460.2 L 974.9 1479.3 L 995.9 1523 L 1012.7 1549.6 L 1014.1 1557.4 L 1016.8 1562.3 L 1023.4 1566.9 L 1024.5 1570.8 L 1021.6 1575.5 L 1021.9 1581.5 L 1024.9 1591.5 L 1035.4 1605.1 L 1053.6 1622.2 L 1062.2 1636 L 1061.2 1646.4 L 1064 1657 L 1070.8 1667.7 L 1073.9 1678.1 L 1071.9 1694.4 L 1069.7 1696.9 L 1067 1696.2 L 1063.9 1692.2 L 1060.2 1693.3 L 1056.1 1699.4 L 1050 1704 L 1041.8 1707.2 L 1037 1706.2 L 1026.4 1697.6 L 991.8 1662.7 L 991.8 1662.7 L 991.8 1662.7 Z" />
<path class="country" d="M 921.5 373.7 L 933.6 456.1 L 978.7 503.5 L 980.6 571.4 L 929 615.2 L 847.6 724.2 L 771.8 800 L 685.3 809.9 L 672 557.7 L 619.4 462.7 L 746.4 479.1 L 810.4 360.1 L 921.5 373.7 Z" />

<path class="river" d="M 738.3 493 L 787 506.1 L 802.6 515.3 L 801.3 524.9 L 804.2 529.7 L 811.4 529.8 L 818.2 534.8 L 827.7 549.7 L 821.3 562.1 L 821.3 568.4 L 825.5 572.6 L 845.2 562.2 L 880.5 537.2 L 905 514.6 L 918.5 494.5 L 921.5 479.7 L 913.9 470.1 L 912 459.5 L 915.6 448 L 934.2 429.2 L 967.8 403.1 L 985.2 383.9 L 986.3 371.7 L 990.1 363 L 996.6 358 L 1002.1 342.7 L 1006.6 317.2 L 1004.1 296.4 L 994.6 280.4 L 992 256 L 996.3 223.2 L 993.2 195.8 L 982.7 174 L 971.9 161.1 L 955.4 154.9 L 929.5 121.7 L 921.6 105.5 L 923 95.5 L 932 91.2 L 948.5 92.7 L 964 88.9 L 978.4 79.7 L 992.5 77.1 L 1006.1 80.9 L 1020.2 91.2 L 1034.9 108 L 1058.4 119.9 L 1091 127.1 L 1118 128 L 1139.4 122.7 L 1152.3 111 L 1156.6 93.1 L 1167.3 79.3 L 1192.9 64.7" />
<g class="city"><circle cx="835.5460818181816" cy="277.09460909090905" r="5" /><text x="847.5460818181816" y="281.09460909090905">Kigali</text></g>
<g class="city"><circle cx="689.4793545454545" cy="574.9326909090908" r="5" /><text x="701.4793545454545" y="578.9326909090908">Bujumbura</text></g>
<g class="city"><circle cx="660.5790181818182" cy="220.04519999999997" r="5" /><text x="672.5790181818182" y="224.04519999999997">Goma</text></g>
<text class="map-title" x="80" y="105">Burundi Physical Study Map</text>
<text class="map-subtitle" x="80" y="145">Landmark: Kagera Waterfalls | Study terrain and water systems</text>
  <text class="footer" x="80" y="1036">Made with Natural Earth. Free vector and raster map data @ naturalearthdata.com.</text>
</svg>
