<?xml version="1.0" encoding="UTF-8"?>
<svg xmlns="http://www.w3.org/2000/svg" width="1600" height="1100" viewBox="0 0 1600 1100" role="img" aria-labelledby="title desc">
  <title id="title">Burundi Political Study Map</title>
  <desc id="desc">Made with Natural Earth. Free vector and raster map data @ naturalearthdata.com.</desc>
  <defs>
    <linearGradient id="terrain" x1="0" x2="1" y1="0" y2="1">
      <stop offset="0%" stop-color="#6c8c53" />
      <stop offset="42%" stop-color="#d5c487" />
      <stop offset="72%" stop-color="#b88b5f" />
      <stop offset="100%" stop-color="#f1f5ee" />
    </linearGradient>
    <filter id="softShadow" x="-10%" y="-10%" width="120%" height="120%">
      <feDropShadow dx="0" dy="10" stdDeviation="12" flood-color="#0f172a" flood-opacity="0.16" />
    </filter>
    <style>
      .neighbor { fill: #ffffff; stroke: #94a3b8; stroke-width: 1.2; opacity: 0.72; }
      .country { fill: #f7f1df; stroke: #1f2937; stroke-width: 4; filter: url(#softShadow); }
      .admin1 { fill: none; stroke: #64748b; stroke-width: 1.1; stroke-dasharray: 6 7; opacity: 0.75; }
      .river { fill: none; stroke: #1d9bd1; stroke-width: 3; stroke-linecap: round; opacity: 0.88; }
      .lake { fill: #8ed1ea; stroke: #0ea5e9; stroke-width: 1.5; opacity: 0.8; }
      .city circle { fill: #ef4444; stroke: #ffffff; stroke-width: 2; }
      .city text, .terrain-label { fill: #172033; font: 700 24px system-ui, sans-serif; paint-order: stroke; stroke: #ffffff; stroke-width: 5; stroke-linejoin: round; }
      .map-title { fill: #0f172a; font: 800 46px system-ui, sans-serif; }
      .map-subtitle { fill: #475569; font: 600 24px system-ui, sans-serif; }
      .footer { fill: #64748b; font: 500 18px system-ui, sans-serif; }
    </style>
  </defs>
  <rect width="100%" height="100%" fill="#eaf3f8" />
  <rect x="40" y="40" width="1520" height="1020" rx="32" fill="#ffffff" opacity="0.54" />
  <path class="neighbor" d="M 1639.5 67.7 L 1674.8 90.6 L 2433 516.6 L 2447.3 637.9 L 2747.4 846.9 L 2650.9 1104.5 L 2663.2 1223 L 2797.1 1299.2 L 2803.4 1353.6 L 2745.8 1479.8 L 2757.8 1543.4 L 2744.1 1643.3 L 2817.1 1774.3 L 2903.7 1980.5 L 2980.4 2026.2 L 2980.4 2026.2 L 2814.1 2147.5 L 2585.4 2228.7 L 2460 2225.2 L 2385.5 2287.9 L 2239.9 2293.3 L 2185.3 2319.8 L 1934.1 2260.8 L 1776.7 2277.8 L 1718.2 1993.4 L 1647.3 1895.9 L 1605.2 1838.1 L 1400.3 1799.1 L 1281.6 1736.3 L 1148.7 1701.1 L 1065.4 1666.1 L 978 1612.8 L 978 1612.8 L 865.1 1349.4 L 743.8 1232.3 L 702 1111 L 722.9 1002.3 L 685.3 809.9 L 771.8 800 L 847.6 724.2 L 929 615.2 L 980.6 571.4 L 978.7 503.5 L 933.6 456.1 L 921.5 373.7 L 921.5 373.7 L 981.9 347.3 L 993.9 224.3 L 910.9 106.3 L 984.3 81.2 L 1213.5 83.8 L 1639.5 67.7 Z" />
<path class="neighbor" d="M 685.3 809.9 L 722.9 1002.3 L 702 1111 L 743.8 1232.3 L 865.1 1349.4 L 978 1612.8 L 978 1612.8 L 895.7 1591.6 L 614.8 1626.9 L 558.8 1651.8 L 499.2 1785.3 L 546 1877.5 L 508.8 2125.1 L 482.9 2335 L 539.4 2372.2 L 685.6 2453.5 L 743 2415.5 L 760.5 2641 L 600.5 2639.3 L 514.6 2524.2 L 437.5 2435.1 L 277.3 2405.9 L 230.4 2296.3 L 102.6 2362.3 L -64.9 2333.2 L -134.7 2238.2 L -267.5 2218.9 L -365.5 2224 L -377.5 2159 L -449.6 2153.7 L -544.8 2141.4 L -674.3 2172.7 L -765.2 2167.6 L -817 2186.8 L -805.8 1937.9 L -875.5 1860.3 L -890.9 1731.8 L -860.1 1605.7 L -902.4 1525 L -906.3 1393.5 L -1160 1395.3 L -1141.8 1320 L -1248.5 1320.8 L -1259.7 1357 L -1389.4 1365.2 L -1441.9 1487 L -1473.2 1539.3 L -1588.7 1509.8 L -1657.7 1539.2 L -1796 1556.1 L -1876.1 1446.8 L -1924.1 1379.1 L -1984.1 1253.8 L -2035.7 1097.9 L -2652.7 1095.2 L -2726 1120.3 L -2786.6 1116.4 L -2872.9 1144.5 L -2902.2 1079.6 L -2849 1057.6 L -2842.5 966.4 L -2808.3 912.7 L -2732.2 868.7 L -2677.3 890 L -2605.7 810 L -2491.8 812 L -2478.5 871.2 L -2400.3 908.3 L -2277.3 777.2 L -2155.5 675.1 L -2102.7 608.2 L -2109.7 436.2 L -2018.9 233 L -1923 125.3 L -1785.4 24.6 L -1761.4 -42.1 L -1756.1 -118.8 L -1722.1 -191.4 L -1733 -309.9 L -1706.9 -495.2 L -1666.1 -625.6 L -1603.5 -737.4 L -1591.1 -863.7 L -1572.3 -1009.5 L -1490.9 -1115.7 L -1378.9 -1183 L -1206.8 -1112 L -1073.7 -1034.8 L -920.7 -1014.2 L -764.7 -973.4 L -702.2 -1099.7 L -673.5 -1115.8 L -578.2 -1094.8 L -345.4 -1199.2 L -262.9 -1154.9 L -195.2 -1161.2 L -163.9 -1212.1 L -86.2 -1230 L 71.1 -1208 L 205.2 -1203.2 L 274.3 -1225.3 L 400.9 -1052.7 L 494.8 -1027.4 L 550.8 -1062.5 L 647.5 -1048.7 L 763.9 -1093 L 813.6 -1003.7 L 997.6 -864.7 L 997.6 -864.7 L 985 -620.2 L 1068.8 -591.9 L 1001.6 -517.7 L 921.3 -462.1 L 841.3 -353.1 L 797.3 -255.9 L 785.6 -88 L 737.1 -8.2 L 735.4 149.5 L 675.2 207.8 L 667.5 332.2 L 638.8 348.3 L 619.4 462.7 L 672 557.7 L 685.3 809.9 Z" />
<path class="neighbor" d="M 1639.5 67.7 L 1213.5 83.8 L 984.3 81.2 L 910.9 106.3 L 786 170.8 L 735.4 149.5 L 737.1 -8.2 L 785.6 -88 L 797.3 -255.9 L 841.3 -353.1 L 921.3 -462.1 L 1001.6 -517.7 L 1068.8 -591.9 L 985 -620.2 L 997.6 -864.7 L 997.6 -864.7 L 1083.7 -921.7 L 1216.7 -875 L 1385 -923.9 L 1532.1 -923.4 L 1660.7 -1019.6 L 1759.8 -874.4 L 1784.3 -769.5 L 1876.3 -529.5 L 1800.2 -377.1 L 1697.3 -238.7 L 1637.4 -153.9 L 1639.5 67.7 Z" />
<path class="neighbor" d="M 910.9 106.3 L 993.9 224.3 L 981.9 347.3 L 921.5 373.7 L 921.5 373.7 L 810.4 360.1 L 746.4 479.1 L 619.4 462.7 L 638.8 348.3 L 667.5 332.2 L 675.2 207.8 L 735.4 149.5 L 786 170.8 L 910.9 106.3 Z" />

<path class="country" d="M 921.5 373.7 L 933.6 456.1 L 978.7 503.5 L 980.6 571.4 L 929 615.2 L 847.6 724.2 L 771.8 800 L 685.3 809.9 L 672 557.7 L 619.4 462.7 L 746.4 479.1 L 810.4 360.1 L 921.5 373.7 Z" />


<g class="city"><circle cx="835.5460818181816" cy="277.09460909090905" r="5" /><text x="847.5460818181816" y="281.09460909090905">Kigali</text></g>
<g class="city"><circle cx="689.4793545454545" cy="574.9326909090908" r="5" /><text x="701.4793545454545" y="578.9326909090908">Bujumbura</text></g>
<g class="city"><circle cx="660.5790181818182" cy="220.04519999999997" r="5" /><text x="672.5790181818182" y="224.04519999999997">Goma</text></g>
<text class="map-title" x="80" y="105">Burundi Political Study Map</text>
<text class="map-subtitle" x="80" y="145">Capital: Gitega | Continent: Africa</text>
  <text class="footer" x="80" y="1036">Made with Natural Earth. Free vector and raster map data @ naturalearthdata.com.</text>
</svg>
