<?xml version="1.0" encoding="UTF-8"?>
<svg xmlns="http://www.w3.org/2000/svg" width="1600" height="1100" viewBox="0 0 1600 1100" role="img" aria-labelledby="title desc">
  <title id="title">Benin Political Study Map</title>
  <desc id="desc">Made with Natural Earth. Free vector and raster map data @ naturalearthdata.com.</desc>
  <defs>
    <linearGradient id="terrain" x1="0" x2="1" y1="0" y2="1">
      <stop offset="0%" stop-color="#6c8c53" />
      <stop offset="42%" stop-color="#d5c487" />
      <stop offset="72%" stop-color="#b88b5f" />
      <stop offset="100%" stop-color="#f1f5ee" />
    </linearGradient>
    <filter id="softShadow" x="-10%" y="-10%" width="120%" height="120%">
      <feDropShadow dx="0" dy="10" stdDeviation="12" flood-color="#0f172a" flood-opacity="0.16" />
    </filter>
    <style>
      .neighbor { fill: #ffffff; stroke: #94a3b8; stroke-width: 1.2; opacity: 0.72; }
      .country { fill: #f7f1df; stroke: #1f2937; stroke-width: 4; filter: url(#softShadow); }
      .admin1 { fill: none; stroke: #64748b; stroke-width: 1.1; stroke-dasharray: 6 7; opacity: 0.75; }
      .river { fill: none; stroke: #1d9bd1; stroke-width: 3; stroke-linecap: round; opacity: 0.88; }
      .lake { fill: #8ed1ea; stroke: #0ea5e9; stroke-width: 1.5; opacity: 0.8; }
      .city circle { fill: #ef4444; stroke: #ffffff; stroke-width: 2; }
      .city text, .terrain-label { fill: #172033; font: 700 24px system-ui, sans-serif; paint-order: stroke; stroke: #ffffff; stroke-width: 5; stroke-linejoin: round; }
      .map-title { fill: #0f172a; font: 800 46px system-ui, sans-serif; }
      .map-subtitle { fill: #475569; font: 600 24px system-ui, sans-serif; }
      .footer { fill: #64748b; font: 500 18px system-ui, sans-serif; }
    </style>
  </defs>
  <rect width="100%" height="100%" fill="#eaf3f8" />
  <rect x="40" y="40" width="1520" height="1020" rx="32" fill="#ffffff" opacity="0.54" />
  <path class="neighbor" d="M -3272.2 964.9 L -3316.8 1034 L -3340 1089.6 L -3368.9 1118.3 L -3405.1 1123.7 L -3415.4 1102.4 L -3432.2 1099.3 L -3455.6 1119.7 L -3488.6 1104.2 L -3469.3 1072.4 L -3462.7 1037.9 L -3449.5 1005.4 L -3479.1 960.7 L -3485.1 909 L -3445.8 844.1 L -3420.2 852.4 L -3364.6 870.3 L -3284.6 934 L -3272.2 964.9 Z M 1094.5 -2455.4 L 1130.2 -2435.6 L 1238.9 -2421.7 L 1200.8 -2370 L 1191.2 -2316.2 L 1170.5 -2303.3 L 1136.1 -2310.3 L 1138.5 -2291.1 L 1083.3 -2248.7 L 1082.2 -2214.5 L 1118.2 -2226.3 L 1144.2 -2193.2 L 1141 -2171.9 L 1163.3 -2143.5 L 1137.1 -2120.6 L 1156.5 -2062.1 L 1197.4 -2052.6 L 1188.8 -2019.8 L 1120.4 -1977.1 L 971.5 -1997.6 L 861.6 -1973.1 L 852.9 -1927.6 L 765.4 -1917.9 L 680.5 -1952 L 653 -1935.7 L 514.1 -1970 L 484 -1999.3 L 523 -2044.6 L 537.4 -2195 L 459.5 -2274.2 L 403.8 -2312.4 L 288.5 -2341.5 L 280.8 -2396.5 L 378.7 -2412.9 L 505.5 -2393.5 L 481.6 -2479 L 552.8 -2446.6 L 728.6 -2505.5 L 751.3 -2567.3 L 817.3 -2582.6 L 828.2 -2556 L 863.3 -2554.8 L 898.4 -2524.5 L 951.1 -2488.9 L 989.8 -2494.7 L 1055.9 -2460.3 L 1072.7 -2453.8 L 1094.5 -2455.4 Z M 1287.8 -1939.3 L 1336.4 -1968.2 L 1349.2 -1903.4 L 1324.3 -1845.1 L 1290 -1860.5 L 1272.5 -1911.3 L 1287.8 -1939.3 Z" />
<path class="neighbor" d="M -241.7 339.3 L -238.2 315.8 L -244.6 286.6 L -272.9 265.4 L -287.8 222.2 L -291.3 175.2 L -265.8 161.5 L -253.2 117 L -229.2 115.3 L -176.5 136.3 L -133.9 121.4 L -104.8 126.4 L -93.4 109.6 L 209.5 108.4 L 226.3 55.6 L 213.2 46.3 L 176.8 -279.5 L 140.3 -605.3 L 255.9 -606.7 L 510.5 -442 L 765.2 -277.2 L 783.1 -241.9 L 830.1 -220.3 L 865.1 -208 L 865.9 -160 L 949.7 -167.4 L 949.9 6.5 L 908.6 56.9 L 902.2 103.4 L 835.1 115.4 L 732.1 121.9 L 704.2 148.7 L 655.8 151.7 L 607.4 152 L 588.6 137.5 L 547 148.3 L 476.5 179.6 L 462.1 203.2 L 403.5 237 L 393.2 256.4 L 361.6 271.8 L 325.1 261.6 L 304.4 280.1 L 293.3 331.8 L 233.4 394.4 L 235.1 420 L 214.5 452 L 219.5 495.8 L 188.4 507 L 170.8 516.5 L 159.1 484.2 L 137.3 492.7 L 124.3 491.2 L 110.4 513.3 L 52.1 512.7 L 31.2 501.3 L 21.3 508.2 L -1.7 486.4 L 2.3 463.9 L -7.1 455.1 L -23.2 462.6 L -20.3 438 L -4.8 418.6 L -35.7 386.9 L -44.7 366.1 L -61.5 349.5 L -76.6 347.6 L -94.8 358.1 L -119.2 368.2 L -139.9 384.6 L -172.2 378.5 L -193.1 359.4 L -205.6 356.8 L -225.3 366.9 L -237.3 367 L -241.7 339.3 Z" />
<path class="neighbor" d="M 1748.7 -447.3 L 1767.2 -329.9 L 1795.4 -310.3 L 1796.7 -286.3 L 1828.1 -260.4 L 1811.7 -227.9 L 1782.6 -74.7 L 1778.6 23.5 L 1682.3 94.7 L 1649.7 194.1 L 1681.1 222.1 L 1681 270.6 L 1729.4 272.4 L 1721.8 307.9 L 1700.5 312.2 L 1698.1 336.3 L 1684 337.9 L 1633 255.3 L 1615.2 252.3 L 1556.2 294.5 L 1497.8 272.5 L 1457.1 268.1 L 1435.4 278.7 L 1391.1 276.4 L 1346.6 308.5 L 1308.1 310.4 L 1216.7 271.4 L 1180.9 289.9 L 1142.4 288.6 L 1114.1 260.1 L 1038.4 231.9 L 957.3 240.9 L 937.6 257.2 L 927 300.6 L 905.4 331 L 900.1 398.4 L 842.6 355 L 815.5 355.2 L 790.2 377.3 L 791.9 325.6 L 704.8 308.5 L 702.5 272 L 660 222.7 L 649.8 188.3 L 655.8 151.7 L 704.2 148.7 L 732.1 121.9 L 835.1 115.4 L 902.2 103.4 L 908.6 56.9 L 949.9 6.5 L 949.7 -167.4 L 1056.1 -201 L 1274.7 -349.3 L 1533.4 -493.2 L 1652.8 -460.7 L 1695.3 -419.2 L 1748.7 -447.3 Z" />
<path class="neighbor" d="M 830.7 806.2 L 835.1 684.5 L 833.1 636.5 L 847.4 588.9 L 870.6 565.7 L 907.3 519 L 899.3 498.7 L 914.2 468.3 L 897.2 423.5 L 900.1 398.4 L 905.4 331 L 927 300.6 L 937.6 257.2 L 957.3 240.9 L 1038.4 231.9 L 1114.1 260.1 L 1142.4 288.6 L 1180.9 289.9 L 1216.7 271.4 L 1308.1 310.4 L 1346.6 308.5 L 1391.1 276.4 L 1435.4 278.7 L 1457.1 268.1 L 1497.8 272.5 L 1556.2 294.5 L 1615.2 252.3 L 1633 255.3 L 1684 337.9 L 1698.1 336.3 L 1728 366.3 L 1719.7 380 L 1715.7 405.1 L 1652.2 463.5 L 1632.2 511.7 L 1621.6 550.9 L 1605.5 567.7 L 1590.3 620.6 L 1549.9 651.7 L 1538.2 689.9 L 1521.3 720.3 L 1514.2 751.6 L 1462.4 777.1 L 1420 746.1 L 1391.4 747.3 L 1346.4 791.5 L 1324.5 792.2 L 1288.6 865 L 1269.2 918.4 L 1190.8 945.6 L 1162.2 941.6 L 1133.2 958.6 L 1072.8 956.9 L 1032.4 909.7 L 1007.5 855 L 954.1 805.3 L 897.3 806.2 L 830.7 806.2 Z" />
<path class="neighbor" d="M 695.4 448.5 L 685.8 488.2 L 708.9 510.5 L 735.1 537 L 738 574 L 753.2 589.6 L 749.7 762.9 L 768.3 815 L 707.6 831.1 L 690.7 804.6 L 670.6 756.7 L 664.6 719.2 L 681.3 651.2 L 662.3 623.6 L 655.1 564.2 L 655.3 509.3 L 623.8 470.4 L 629.3 446.9 L 695.4 448.5 Z" />
<path class="neighbor" d="M 629.3 446.9 L 623.8 470.4 L 655.3 509.3 L 655.1 564.2 L 662.3 623.6 L 681.3 651.2 L 664.6 719.2 L 670.6 756.7 L 690.7 804.6 L 707.6 831.1 L 589.2 875.3 L 547.2 901.2 L 479.2 923.1 L 411.9 901.6 L 415.3 871.9 L 382.6 806.8 L 402.3 721.6 L 434.1 658.2 L 414.1 550.8 L 403.8 493.9 L 405.6 451.1 L 536.7 447.5 L 570 453 L 594.4 440.9 L 629.3 446.9 Z" />
<path class="neighbor" d="M 219.5 495.8 L 214.5 452 L 235.1 420 L 233.4 394.4 L 293.3 331.8 L 304.4 280.1 L 325.1 261.6 L 361.6 271.8 L 393.2 256.4 L 403.5 237 L 462.1 203.2 L 476.5 179.6 L 547 148.3 L 588.6 137.5 L 607.4 152 L 655.8 151.7 L 649.8 188.3 L 660 222.7 L 702.5 272 L 704.8 308.5 L 791.9 325.6 L 790.2 377.3 L 773.7 399.9 L 736.8 406.9 L 721.4 439.9 L 695.4 448.5 L 629.3 446.9 L 594.4 440.9 L 570 453 L 536.7 447.5 L 405.6 451.1 L 403.8 493.9 L 414.1 550.8 L 362.4 531.3 L 327 534.2 L 300.6 553.1 L 266.7 537.2 L 253.5 512.2 L 219.5 495.8 Z" />

<path class="country" d="M 830.7 806.2 L 768.3 815 L 749.7 762.9 L 753.2 589.6 L 738 574 L 735.1 537 L 708.9 510.5 L 685.8 488.2 L 695.4 448.5 L 721.4 439.9 L 736.8 406.9 L 773.7 399.9 L 790.2 377.3 L 815.5 355.2 L 842.6 355 L 900.1 398.4 L 897.2 423.5 L 914.2 468.3 L 899.3 498.7 L 907.3 519 L 870.6 565.7 L 847.4 588.9 L 833.1 636.5 L 835.1 684.5 L 830.7 806.2 Z" />


<g class="city"><circle cx="883.4065635422004" cy="792.1225891026438" r="5" /><text x="895.4065635422004" y="796.1225891026438">Lagos</text></g>
<g class="city"><circle cx="924.0545251824985" cy="721.4057603884021" r="5" /><text x="936.0545251824985" y="725.4057603884021">Ibadan</text></g>
<g class="city"><circle cx="611.0180163118665" cy="859.5528612723308" r="5" /><text x="623.0180163118665" y="863.5528612723308">Accra</text></g>
<g class="city"><circle cx="719.6846234613467" cy="815.6246842936005" r="5" /><text x="731.6846234613467" y="819.6246842936005">Lomé</text></g>
<g class="city"><circle cx="947.4571238297734" cy="664.7893583926946" r="5" /><text x="959.4571238297734" y="668.7893583926946">Ogbomosho</text></g>
<g class="city"><circle cx="787.1655497894635" cy="258.1444176872386" r="5" /><text x="799.1655497894635" y="262.1444176872386">Niamey</text></g>
<g class="city"><circle cx="809.0310098764613" cy="798.3300259720311" r="5" /><text x="821.0310098764613" y="802.3300259720311">Cotonou</text></g>
<g class="city"><circle cx="1023.0977481169211" cy="292.7671011530689" r="5" /><text x="1035.0977481169211" y="296.7671011530689">Sokoto</text></g>
<text class="map-title" x="80" y="105">Benin Political Study Map</text>
<text class="map-subtitle" x="80" y="145">Capital: Porto-Novo | Continent: Africa</text>
  <text class="footer" x="80" y="1036">Made with Natural Earth. Free vector and raster map data @ naturalearthdata.com.</text>
</svg>
