<?xml version="1.0" encoding="UTF-8"?>
<svg xmlns="http://www.w3.org/2000/svg" width="1600" height="1100" viewBox="0 0 1600 1100" role="img" aria-labelledby="title desc">
  <title id="title">Bolivia Political Study Map</title>
  <desc id="desc">Made with Natural Earth. Free vector and raster map data @ naturalearthdata.com.</desc>
  <defs>
    <linearGradient id="terrain" x1="0" x2="1" y1="0" y2="1">
      <stop offset="0%" stop-color="#6c8c53" />
      <stop offset="42%" stop-color="#d5c487" />
      <stop offset="72%" stop-color="#b88b5f" />
      <stop offset="100%" stop-color="#f1f5ee" />
    </linearGradient>
    <filter id="softShadow" x="-10%" y="-10%" width="120%" height="120%">
      <feDropShadow dx="0" dy="10" stdDeviation="12" flood-color="#0f172a" flood-opacity="0.16" />
    </filter>
    <style>
      .neighbor { fill: #ffffff; stroke: #94a3b8; stroke-width: 1.2; opacity: 0.72; }
      .country { fill: #f7f1df; stroke: #1f2937; stroke-width: 4; filter: url(#softShadow); }
      .admin1 { fill: none; stroke: #64748b; stroke-width: 1.1; stroke-dasharray: 6 7; opacity: 0.75; }
      .river { fill: none; stroke: #1d9bd1; stroke-width: 3; stroke-linecap: round; opacity: 0.88; }
      .lake { fill: #8ed1ea; stroke: #0ea5e9; stroke-width: 1.5; opacity: 0.8; }
      .city circle { fill: #ef4444; stroke: #ffffff; stroke-width: 2; }
      .city text, .terrain-label { fill: #172033; font: 700 24px system-ui, sans-serif; paint-order: stroke; stroke: #ffffff; stroke-width: 5; stroke-linejoin: round; }
      .map-title { fill: #0f172a; font: 800 46px system-ui, sans-serif; }
      .map-subtitle { fill: #475569; font: 600 24px system-ui, sans-serif; }
      .footer { fill: #64748b; font: 500 18px system-ui, sans-serif; }
    </style>
  </defs>
  <rect width="100%" height="100%" fill="#eaf3f8" />
  <rect x="40" y="40" width="1520" height="1020" rx="32" fill="#ffffff" opacity="0.54" />
  <path class="neighbor" d="M 9344.8 576.2 L 9344.8 593.3 L 9322.5 602 L 9300.1 609.4 L 9295.6 596.3 L 9313.1 589.1 L 9324.2 587.2 L 9344.8 576.2 Z M 9279 626.7 L 9287.7 620.9 L 9299.8 631 L 9294 649.3 L 9272.3 654.1 L 9252.9 649.8 L 9249.6 634.4 L 9263.1 622.3 L 9279 626.7 Z M -3278.6 574.6 L -3283 591.5 L -3285.9 593.3 L -3285.9 576.2 L -3278.6 574.6 Z" />
<path class="neighbor" d="M 621.4 1859.3 L 634.9 1875.5 L 652.4 1901.8 L 698.1 1922.9 L 747.2 1931.7 L 731.4 1949.2 L 698.1 1951 L 680.2 1938.6 L 659 1937.6 L 621.5 1937.6 L 621.4 1859.3 Z M 1007.7 1072.6 L 998.9 1100.7 L 989.5 1136.8 L 989.9 1171.7 L 982.3 1179.5 L 979.5 1202.2 L 977.1 1220.5 L 1021.7 1250.6 L 1016.9 1274.8 L 1038.8 1290.1 L 1037 1307.2 L 1003.3 1352.2 L 951.3 1371 L 880.9 1378.3 L 842.4 1374.8 L 849.8 1395.7 L 842.6 1422 L 849.1 1439.7 L 828 1452 L 792.1 1456.8 L 758.3 1444.1 L 744.8 1453.2 L 749.7 1488.1 L 773.4 1498.7 L 792.6 1487.6 L 803 1505.8 L 770.7 1516.7 L 742.6 1538.5 L 737.4 1573.8 L 729.1 1592.6 L 696 1592.7 L 668.5 1610.7 L 658.4 1637 L 692.9 1662.7 L 726.4 1669.8 L 714.4 1701.3 L 672.9 1721.1 L 650.1 1762.2 L 618.1 1776 L 603.7 1792.5 L 615.1 1828.9 L 638.4 1849.2 L 623.6 1847.4 L 591.1 1841.9 L 506.3 1837.2 L 491.8 1816.8 L 492.5 1790.5 L 469.1 1792.8 L 456.7 1780 L 453.7 1742.8 L 480.6 1727.4 L 491.7 1705.2 L 487.6 1687.4 L 506.2 1657.5 L 519.1 1611 L 515.3 1590.4 L 530.6 1583.8 L 526.8 1570.5 L 510.6 1563.5 L 522.1 1548.8 L 506.3 1535.5 L 498.1 1495 L 512.2 1487.9 L 506.3 1445.1 L 514.5 1409.2 L 523.9 1377.9 L 544.9 1365.1 L 534.3 1330.9 L 534.1 1298.7 L 560.7 1275.7 L 559.9 1246.4 L 579.9 1212.2 L 580 1179.9 L 570.9 1173.5 L 554.7 1112.9 L 576.3 1076.9 L 573 1042.9 L 585.6 1011 L 608.5 978.1 L 633.3 956.3 L 622.8 942.5 L 630.1 931.2 L 629 872.7 L 667.2 855.4 L 679.3 819 L 675 810.2 L 704.3 778.5 L 750.2 787 L 770.8 812.4 L 784.5 784.2 L 824.5 785.6 L 830.2 793.1 L 894.7 850.4 L 923.3 855.7 L 966.2 881.6 L 1002.3 895.3 L 1007.4 910.8 L 972.8 964.1 L 1008.2 973.7 L 1047.6 979 L 1075.4 973.4 L 1107.2 946.5 L 1112.9 915.6 L 1130.3 908.8 L 1147.9 929.1 L 1147.2 957.1 L 1117.7 976.5 L 1094.1 990.7 L 1054.5 1024.8 L 1007.7 1072.6 Z" />
<path class="neighbor" d="M 621.4 1859.3 L 621.5 1937.6 L 659 1937.6 L 680.2 1938.6 L 668.5 1952.8 L 638.5 1963.7 L 621.2 1962.5 L 600.4 1959.7 L 575 1949.1 L 538.2 1944.1 L 494.1 1924.5 L 458.2 1905.6 L 409.9 1866.3 L 438.8 1873.7 L 488.1 1897.1 L 534.6 1909.7 L 552.7 1893.6 L 564.1 1869.6 L 596.5 1855.1 L 621.4 1859.3 Z M 587.9 629.3 L 605.1 653.2 L 609.8 678.5 L 628.2 693.3 L 617.1 727.3 L 636 766.6 L 649.7 815 L 675 810.2 L 679.3 819 L 667.2 855.4 L 629 872.7 L 630.1 931.2 L 622.8 942.5 L 633.3 956.3 L 608.5 978.1 L 585.6 1011 L 573 1042.9 L 576.3 1076.9 L 554.7 1112.9 L 570.9 1173.5 L 580 1179.9 L 579.9 1212.2 L 559.9 1246.4 L 560.7 1275.7 L 534.1 1298.7 L 534.3 1330.9 L 544.9 1365.1 L 523.9 1377.9 L 514.5 1409.2 L 506.3 1445.1 L 512.2 1487.9 L 498.1 1495 L 506.3 1535.5 L 522.1 1548.8 L 510.6 1563.5 L 526.8 1570.5 L 530.6 1583.8 L 515.3 1590.4 L 519.1 1611 L 506.2 1657.5 L 487.6 1687.4 L 491.7 1705.2 L 480.6 1727.4 L 453.7 1742.8 L 456.7 1780 L 469.1 1792.8 L 492.5 1790.5 L 491.8 1816.8 L 506.3 1837.2 L 591.1 1841.9 L 623.6 1847.4 L 592.4 1847.2 L 575.5 1855.8 L 543.9 1868.5 L 538.2 1901.3 L 523.3 1902.1 L 483.8 1890.7 L 443.6 1866.2 L 443.6 1866.2 L 399.9 1846.1 L 389 1823.9 L 398.9 1803.4 L 381.2 1780 L 376.7 1720.2 L 391.7 1686.5 L 428.7 1659.4 L 375.5 1649.1 L 408.9 1618.1 L 420.8 1559.9 L 459.8 1572.2 L 478.1 1499.5 L 454.6 1490.2 L 443.6 1534 L 421.5 1529.1 L 432.5 1478.9 L 444.5 1413.9 L 460.6 1389.9 L 450.5 1355.7 L 447.6 1316.1 L 462.4 1315 L 483.9 1258.3 L 508.2 1202.2 L 523 1149.9 L 515 1097.4 L 525.4 1068.4 L 521.2 1025.1 L 541.7 982.3 L 548.1 914.4 L 559.3 841.5 L 570.3 763.1 L 567.7 705.7 L 560.4 656.2 L 578.5 647.3 L 587.9 629.3 Z" />
<path class="neighbor" d="M 1156.8 1197.3 L 1147.1 1177.4 L 1162.6 1160.8 L 1142.3 1136.9 L 1114.8 1117.5 L 1078.7 1095 L 1065.6 1096 L 1030.5 1068.9 L 1007.7 1072.6 L 1054.5 1024.8 L 1094.1 990.7 L 1117.7 976.5 L 1147.2 957.1 L 1147.9 929.1 L 1130.3 908.8 L 1112.9 915.6 L 1119.8 895.3 L 1124.6 874.6 L 1124.6 855.3 L 1112 848.9 L 1098.8 854.6 L 1085.7 853 L 1081.6 839.5 L 1078.4 807.4 L 1071.8 796.9 L 1048.1 787.4 L 1033.8 794.3 L 996.7 787.5 L 999.1 739.9 L 988.7 720.4 L 999.7 713.2 L 996.3 693.2 L 1005.9 677.8 L 1012.1 650.1 L 1003.8 628.3 L 984.7 618.5 L 980.9 604.6 L 986.1 584.4 L 918.8 582.9 L 905.3 542.1 L 915.5 541.5 L 915.1 526.4 L 908.2 516.1 L 906.7 495.8 L 886.3 485.4 L 864.2 485.8 L 849.7 475.6 L 826 468.6 L 812.2 455.5 L 772.9 449.7 L 734.8 418.3 L 737.6 394.8 L 733.3 381.3 L 737.1 355 L 691.1 360.9 L 672.7 374.1 L 642 388.3 L 634.2 398.9 L 616.1 399.7 L 590 396.7 L 570.2 402.8 L 554.3 398.8 L 556.6 345.5 L 527.8 366.1 L 496.8 365.2 L 483.6 346.5 L 460.3 344.5 L 467.7 329.4 L 448.2 308.1 L 433.6 276.5 L 442.9 270.1 L 442.8 255.2 L 464 245.1 L 460.5 226.1 L 469.5 213.9 L 472 197.6 L 512.2 173.7 L 540.9 166.9 L 545.6 161.7 L 577.2 163.3 L 593 67.1 L 593.8 51.9 L 588.3 31.8 L 572.8 19 L 573 -6.5 L 592.7 -12.3 L 599.7 -8.6 L 600.9 -22.1 L 580.4 -25.7 L 579.9 -47.7 L 648.3 -46.9 L 659.9 -59 L 669.6 -47.8 L 676.5 -27.2 L 683.1 -31.5 L 702.4 -12.9 L 729.7 -15.2 L 736.5 -25.9 L 762.6 -34.1 L 777 -39.9 L 781.1 -54.7 L 806.2 -64.7 L 804.3 -72.1 L 774.5 -75.1 L 769.7 -97.2 L 771.1 -120.7 L 755.4 -129.8 L 762 -133.1 L 787.9 -128.6 L 815.8 -119.8 L 826 -128.1 L 851.2 -133.5 L 890.4 -146.7 L 903.3 -160.1 L 898.6 -170 L 916.9 -171.5 L 925 -163.4 L 920.5 -148 L 932.5 -142.7 L 940.6 -126.4 L 930.8 -114 L 925.2 -84.2 L 934.2 -66.4 L 936.8 -50.2 L 958.4 -33.7 L 975.6 -32 L 979.5 -38.9 L 990.5 -40.4 L 1006.4 -46.5 L 1017.8 -55.9 L 1037.2 -52.9 L 1045.8 -54.1 L 1064.8 -51.3 L 1068 -58.4 L 1062.1 -65.4 L 1065.6 -75.6 L 1079.8 -72.5 L 1096.4 -76 L 1116.5 -68.6 L 1131.8 -61.4 L 1142.6 -70.9 L 1150.5 -69.4 L 1155.3 -59.5 L 1172.1 -62.1 L 1185.5 -75.4 L 1196.3 -101.2 L 1217 -133.3 L 1229 -135 L 1237.7 -115.6 L 1257.4 -54.2 L 1276.1 -48.4 L 1277.1 -24.2 L 1250.7 4.7 L 1261.6 15.3 L 1323.6 20.8 L 1324.9 55.9 L 1351.5 32.9 L 1395.7 45.5 L 1453.9 66.9 L 1471.1 87.5 L 1465.3 106.9 L 1506.1 96.1 L 1574.4 114.7 L 1626.8 113.3 L 1678.7 142.3 L 1723.5 181.6 L 1750.5 191.8 L 1780.5 193.2 L 1793.2 204.2 L 1805.1 248.9 L 1811 270.1 L 1797 328.1 L 1779.1 351 L 1729.7 399.9 L 1707.3 439.5 L 1681.4 469.9 L 1672.6 470.6 L 1662.8 496.4 L 1665.3 562.2 L 1655.5 616.3 L 1651.8 639.4 L 1640.7 653.2 L 1634.5 700.1 L 1598.9 745.9 L 1592.9 782.2 L 1564.5 797.4 L 1556.3 818.4 L 1518.2 818.3 L 1463 831.8 L 1438.3 847.4 L 1399 857.7 L 1357.7 885.6 L 1328 920.4 L 1322.9 946.6 L 1328.7 966 L 1322.2 1001.4 L 1314.2 1018.5 L 1289.7 1037.8 L 1250.8 1099.6 L 1219.9 1127.4 L 1196.1 1143.8 L 1180.1 1177.2 L 1156.8 1197.3 Z" />
<path class="neighbor" d="M 577.2 163.3 L 545.6 161.7 L 540.9 166.9 L 512.2 173.7 L 472 197.6 L 469.5 213.9 L 460.5 226.1 L 464 245.1 L 442.8 255.2 L 442.9 270.1 L 433.6 276.5 L 448.2 308.1 L 467.7 329.4 L 460.3 344.5 L 483.6 346.5 L 496.8 365.2 L 527.8 366.1 L 556.6 345.5 L 554.3 398.8 L 570.2 402.8 L 590 396.7 L 620.3 453.2 L 612.8 465.1 L 611.1 489.8 L 610.4 519.6 L 596.7 537.1 L 603 550.1 L 594.9 561.9 L 610 591.4 L 587.9 629.3 L 578.5 647.3 L 560.4 656.2 L 525.3 636.1 L 522.2 621.7 L 452.7 586.5 L 389.7 548.1 L 362.7 526.5 L 348.1 497.5 L 353.9 487.4 L 324.2 441.3 L 289.6 376.6 L 256.4 306.7 L 242.1 290.8 L 231.1 264.9 L 203.8 242 L 178.8 227.8 L 190.2 212.2 L 173.1 178.7 L 184.1 154.1 L 212 132 L 216.2 146.6 L 206.2 154.9 L 207.1 167.8 L 221.6 165 L 235.8 168.8 L 250.5 186.5 L 270.4 172.1 L 277 148.4 L 298.5 117.9 L 340.7 104 L 379 67.3 L 389.9 44.5 L 385 17.8 L 394.3 14.5 L 417.7 31.1 L 428.9 47.7 L 445.1 56.7 L 465.8 93.5 L 491.9 97.9 L 511.2 88.6 L 523.9 94.7 L 545 91.7 L 571.8 108.1 L 549.2 143.8 L 559.7 144.7 L 577.2 163.3 Z" />
<path class="neighbor" d="M 683.1 -31.5 L 676.5 -27.2 L 669.6 -47.8 L 659.9 -59 L 648.3 -46.9 L 579.9 -47.7 L 580.4 -25.7 L 600.9 -22.1 L 599.7 -8.6 L 592.7 -12.3 L 573 -6.5 L 572.8 19 L 588.3 31.8 L 593.8 51.9 L 593 67.1 L 577.2 163.3 L 559.7 144.7 L 549.2 143.8 L 571.8 108.1 L 545 91.7 L 523.9 94.7 L 511.2 88.6 L 491.9 97.9 L 465.8 93.5 L 445.1 56.7 L 428.9 47.7 L 417.7 31.1 L 394.3 14.5 L 385 17.8 L 370 9.5 L 352.7 -2.1 L 342.8 3.5 L 313 -1.4 L 304.4 -16.5 L 297.9 -15.9 L 262.8 -36 L 258.1 -46.8 L 271.1 -49.5 L 269.6 -67.1 L 277.8 -79.8 L 295.2 -82.1 L 310 -104.2 L 323.4 -122.6 L 310.5 -130.9 L 317.1 -151.3 L 309.2 -183.4 L 316.7 -192.6 L 311.2 -222.3 L 297 -240.9 L 301.5 -258 L 312.8 -255.5 L 319.4 -265.9 L 311.3 -286.6 L 315.5 -291.7 L 333.6 -290.6 L 360 -315.1 L 374.4 -318.8 L 374.8 -330.4 L 381.2 -360.1 L 401.3 -376.4 L 423.5 -377 L 426.2 -384.3 L 453.7 -381.4 L 481.3 -399.1 L 495 -407 L 512 -423.9 L 524.4 -421.7 L 533.6 -412.5 L 526.8 -400.7 L 504.2 -394.8 L 495.3 -377.3 L 481.8 -367.2 L 471.6 -354.2 L 467.3 -329.1 L 457.5 -308.6 L 475.7 -306.3 L 480.2 -290.1 L 487.9 -282.4 L 490.7 -268.3 L 486.5 -255.3 L 487.7 -248 L 496.4 -245 L 504.7 -232.8 L 549.8 -236.2 L 570.2 -231.7 L 594.9 -201.5 L 609.1 -205.3 L 634.4 -203.4 L 654.4 -207.4 L 666.8 -201.4 L 660.5 -182.5 L 652.6 -170.7 L 649.9 -145.5 L 656.9 -122.2 L 666.9 -111.8 L 668.1 -103.9 L 650.3 -86.5 L 663.1 -78.7 L 672.4 -66.5 L 683.1 -31.5 Z" />
<path class="neighbor" d="M 385 17.8 L 389.9 44.5 L 379 67.3 L 340.7 104 L 298.5 117.9 L 277 148.4 L 270.4 172.1 L 250.5 186.5 L 235.8 168.8 L 221.6 165 L 207.1 167.8 L 206.2 154.9 L 216.2 146.6 L 212 132 L 230.7 105.7 L 223.1 90.4 L 209.7 106.7 L 188.7 91.3 L 195.8 81.4 L 189.9 49.6 L 202.2 44.3 L 208.6 22.5 L 221.9 -0.1 L 219.5 -14.5 L 238.7 -22 L 262.8 -36 L 297.9 -15.9 L 304.4 -16.5 L 313 -1.4 L 342.8 3.5 L 352.7 -2.1 L 370 9.5 L 385 17.8 Z" />
<path class="neighbor" d="M 988.7 720.4 L 999.1 739.9 L 996.7 787.5 L 1033.8 794.3 L 1048.1 787.4 L 1071.8 796.9 L 1078.4 807.4 L 1081.6 839.5 L 1085.7 853 L 1098.8 854.6 L 1112 848.9 L 1124.6 855.3 L 1124.6 874.6 L 1119.8 895.3 L 1112.9 915.6 L 1107.2 946.5 L 1075.4 973.4 L 1047.6 979 L 1008.2 973.7 L 972.8 964.1 L 1007.4 910.8 L 1002.3 895.3 L 966.2 881.6 L 923.3 855.7 L 894.7 850.4 L 830.2 793.1 L 844 751.1 L 844.9 732.2 L 861.7 701.4 L 922.8 691.1 L 955.4 691.6 L 988.1 709.6 L 988.7 720.4 Z" />

<path class="country" d="M 590 396.7 L 616.1 399.7 L 634.2 398.9 L 642 388.3 L 672.7 374.1 L 691.1 360.9 L 737.1 355 L 733.3 381.3 L 737.6 394.8 L 734.8 418.3 L 772.9 449.7 L 812.2 455.5 L 826 468.6 L 849.7 475.6 L 864.2 485.8 L 886.3 485.4 L 906.7 495.8 L 908.2 516.1 L 915.1 526.4 L 915.5 541.5 L 905.3 542.1 L 918.8 582.9 L 986.1 584.4 L 980.9 604.6 L 984.7 618.5 L 1003.8 628.3 L 1012.1 650.1 L 1005.9 677.8 L 996.3 693.2 L 999.7 713.2 L 988.7 720.4 L 988.1 709.6 L 955.4 691.6 L 922.8 691.1 L 861.7 701.4 L 844.9 732.2 L 844 751.1 L 830.2 793.1 L 824.5 785.6 L 784.5 784.2 L 770.8 812.4 L 750.2 787 L 704.3 778.5 L 675 810.2 L 649.7 815 L 636 766.6 L 617.1 727.3 L 628.2 693.3 L 609.8 678.5 L 605.1 653.2 L 587.9 629.3 L 610 591.4 L 594.9 561.9 L 603 550.1 L 596.7 537.1 L 610.4 519.6 L 611.1 489.8 L 612.8 465.1 L 620.3 453.2 L 590 396.7 Z" />


<g class="city"><circle cx="811.102913286631" cy="635.3304082677271" r="5" /><text x="823.102913286631" y="639.3304082677271">Santa Cruz</text></g>
<g class="city"><circle cx="1007.6541482828338" cy="899.8273795354426" r="5" /><text x="1019.6541482828338" y="903.8273795354426">Asunción</text></g>
<g class="city"><circle cx="638.343637839296" cy="591.2653270008057" r="5" /><text x="650.343637839296" y="595.2653270008057">La Paz</text></g>
<g class="city"><circle cx="741.2612765638078" cy="953.275619023546" r="5" /><text x="753.2612765638078" y="957.275619023546">Tucumán</text></g>
<g class="city"><circle cx="519.754655866925" cy="588.5293809417501" r="5" /><text x="531.754655866925" y="592.5293809417501">Arequipa</text></g>
<g class="city"><circle cx="1061.6469105054402" cy="558.6933593808099" r="5" /><text x="1073.6469105054402" y="562.6933593808099">Cuiabá</text></g>
<g class="city"><circle cx="1113.164655507683" cy="729.9241819669404" r="5" /><text x="1125.164655507683" y="733.9241819669404">Campo Grande</text></g>
<g class="city"><circle cx="734.3120156760797" cy="882.0282224809207" r="5" /><text x="746.3120156760797" y="886.0282224809207">Salta</text></g>
<text class="map-title" x="80" y="105">Bolivia Political Study Map</text>
<text class="map-subtitle" x="80" y="145">Capital: Sucre | Continent: South America</text>
  <text class="footer" x="80" y="1036">Made with Natural Earth. Free vector and raster map data @ naturalearthdata.com.</text>
</svg>
