<?xml version="1.0" encoding="UTF-8"?>
<svg xmlns="http://www.w3.org/2000/svg" width="1600" height="1100" viewBox="0 0 1600 1100" role="img" aria-labelledby="title desc">
  <title id="title">Brazil Physical Study Map</title>
  <desc id="desc">Made with Natural Earth. Free vector and raster map data @ naturalearthdata.com.</desc>
  <defs>
    <linearGradient id="terrain" x1="0" x2="1" y1="0" y2="1">
      <stop offset="0%" stop-color="#6c8c53" />
      <stop offset="42%" stop-color="#d5c487" />
      <stop offset="72%" stop-color="#b88b5f" />
      <stop offset="100%" stop-color="#f1f5ee" />
    </linearGradient>
    <filter id="softShadow" x="-10%" y="-10%" width="120%" height="120%">
      <feDropShadow dx="0" dy="10" stdDeviation="12" flood-color="#0f172a" flood-opacity="0.16" />
    </filter>
    <style>
      .neighbor { fill: #ffffff; stroke: #94a3b8; stroke-width: 1.2; opacity: 0.72; }
      .country { fill: url(#terrain); stroke: #1f2937; stroke-width: 4; filter: url(#softShadow); }
      .admin1 { fill: none; stroke: #64748b; stroke-width: 1.1; stroke-dasharray: 6 7; opacity: 0.75; }
      .river { fill: none; stroke: #1d9bd1; stroke-width: 3; stroke-linecap: round; opacity: 0.88; }
      .lake { fill: #8ed1ea; stroke: #0ea5e9; stroke-width: 1.5; opacity: 0.8; }
      .city circle { fill: #ef4444; stroke: #ffffff; stroke-width: 2; }
      .city text, .terrain-label { fill: #172033; font: 700 24px system-ui, sans-serif; paint-order: stroke; stroke: #ffffff; stroke-width: 5; stroke-linejoin: round; }
      .map-title { fill: #0f172a; font: 800 46px system-ui, sans-serif; }
      .map-subtitle { fill: #475569; font: 600 24px system-ui, sans-serif; }
      .footer { fill: #64748b; font: 500 18px system-ui, sans-serif; }
    </style>
  </defs>
  <rect width="100%" height="100%" fill="#d8edf0" />
  <rect x="40" y="40" width="1520" height="1020" rx="32" fill="#ffffff" opacity="0.54" />
  <path class="neighbor" d="M 3563.3 606.3 L 3563.3 612 L 3555.8 614.9 L 3548.3 617.4 L 3546.8 613 L 3552.7 610.6 L 3556.4 610 L 3563.3 606.3 Z M 3541.2 623.2 L 3544.1 621.3 L 3548.2 624.7 L 3546.3 630.9 L 3538.9 632.5 L 3532.4 631 L 3531.3 625.8 L 3535.9 621.8 L 3541.2 623.2 Z M -679 605.7 L -680.5 611.4 L -681.4 612 L -681.4 606.3 L -679 605.7 Z" />
<path class="neighbor" d="M 1338.8 90.7 L 1338.8 91.5 L 1338.5 93.8 L 1338.5 111.7 L 1299.8 111.1 L 1300.2 141.2 L 1289.1 142.3 L 1286.3 148.3 L 1288.5 165.4 L 1242.3 165.3 L 1239.7 169.2 L 1240.3 164.2 L 1240.5 164.3 L 1267 163.3 L 1268.4 159.1 L 1273.3 153.8 L 1277.2 137.5 L 1293.5 124.8 L 1299.1 109.9 L 1302.8 109 L 1306.6 99.9 L 1316.5 98.6 L 1320.8 100.1 L 1326.2 100.1 L 1330 97.4 L 1337.2 97.1 L 1337 90.7 L 1338.8 90.7 Z" />
<path class="neighbor" d="M -7.5 -160.9 L 26 -160.9 L 61 -160.9 L 72.6 -160.9 L 108.6 -160.9 L 143.3 -160.9 L 178.7 -160.9 L 214.1 -160.9 L 254.2 -160.9 L 294.5 -160.9 L 318.9 -160.9 L 319 -165.5 L 322.9 -165.5 L 325 -159 L 328.7 -157 L 336.9 -156.3 L 349 -154.4 L 360.4 -150.8 L 370 -152.3 L 384.5 -149.2 L 388.3 -149.4 L 398.9 -152.7 L 409.9 -148.4 L 421.5 -143.9 L 431 -139.9 L 440.2 -136.2 L 441.3 -133.1 L 444.1 -131.9 L 443.4 -130.7 L 446.5 -130.4 L 448.8 -131.6 L 449.4 -128.8 L 451.8 -126.9 L 455 -126.9 L 456.8 -125.5 L 455.3 -123.4 L 467.6 -117.9 L 470.1 -107.2 L 472.5 -96.9 L 469 -89.9 L 463.5 -83.5 L 460.9 -79.3 L 460.6 -78.1 L 461.9 -76.4 L 465.9 -74.6 L 468.9 -74.6 L 482.6 -80.8 L 494.7 -82.7 L 510.2 -88.6 L 510.4 -89.8 L 509.3 -93.4 L 507.4 -95.7 L 512.8 -97.5 L 524.3 -97.6 L 535.2 -97.6 L 538.9 -102.2 L 540.4 -103.1 L 552.9 -111.6 L 558.2 -113.8 L 576.1 -113.8 L 597.8 -113.9 L 599 -116.8 L 602.8 -117.4 L 607.8 -119.2 L 612 -124.5 L 615.6 -133.7 L 624.6 -142.6 L 628.5 -139.5 L 636.4 -141.5 L 641.6 -138.1 L 641.6 -122 L 649.3 -115.4 L 651.4 -111.5 L 638.8 -105.8 L 626.7 -101.7 L 614.2 -98.2 L 608 -91.2 L 606 -88.6 L 605.8 -82.3 L 609.7 -76.1 L 614.6 -75.8 L 613.4 -80.1 L 616.9 -77.5 L 616 -74.1 L 608 -72.2 L 602.4 -72.4 L 593.6 -70.4 L 588.5 -69.8 L 581.7 -69.2 L 571.8 -65.8 L 589.1 -68 L 592.6 -65.8 L 576.1 -62.2 L 568.6 -62.2 L 569 -63.7 L 565.4 -60.4 L 568.9 -59.8 L 566.3 -51.4 L 557.7 -42.3 L 556.8 -45.3 L 554.3 -45.9 L 550.4 -48.9 L 552.8 -42.5 L 555.8 -40.4 L 555.9 -36 L 552.2 -31.4 L 545.5 -22 L 544.5 -22.5 L 548.1 -30.5 L 542.1 -35 L 540.7 -44.8 L 538.4 -39.7 L 540.9 -32.2 L 533.2 -34 L 541.3 -30.3 L 541.8 -19 L 545.2 -18.2 L 546.4 -14.1 L 548 -2.3 L 540.5 6.4 L 528.3 9.9 L 520.6 16.8 L 514.7 17.6 L 508.7 21.9 L 507.1 25.9 L 494.1 33.5 L 487.5 39.1 L 481.9 46.1 L 480.1 54.5 L 482.2 62.7 L 486.1 72.8 L 491.3 81.1 L 491.4 86.2 L 497 99.9 L 496.6 107.8 L 496.1 112.4 L 493.2 119.6 L 489.6 121.1 L 483.8 119.7 L 482 114.5 L 477.5 111.8 L 471.3 101.7 L 465.8 92.6 L 464 88 L 466.4 80.2 L 463.1 73.7 L 453.9 63.9 L 449.3 62 L 437.4 67.4 L 435.3 66.8 L 429.6 61.3 L 422.2 58.4 L 408.9 59.9 L 398.4 58.6 L 389.4 59.4 L 384.5 61.2 L 386.7 64.4 L 386.5 69.1 L 389 71.5 L 386.7 73 L 382.4 71.3 L 377.9 73.5 L 369.4 73.1 L 360.6 66.9 L 350.3 68.4 L 341.7 65.7 L 334.4 66.5 L 324.5 69.2 L 313.7 78 L 302 83.1 L 295.6 88.7 L 292.9 94 L 292.7 102.1 L 293.3 107.8 L 295.6 111.8 L 291 112.2 L 282.6 109.6 L 273.4 105.9 L 270.1 100.4 L 267.5 92.1 L 260.5 85.4 L 256.5 78.5 L 250.6 70.4 L 242.2 65.7 L 232.6 65.9 L 225.2 75.3 L 215.4 71.7 L 209.3 68.2 L 206.4 61.7 L 202.4 55.5 L 195.4 50.3 L 189.4 46.6 L 185.1 42.4 L 164.7 42.4 L 164.7 47.3 L 155.3 47.3 L 131.9 47.4 L 105 39.1 L 87.2 33.3 L 88.3 31 L 73.3 32.3 L 59.9 33.2 L 57.9 27.2 L 50.3 20.4 L 44.8 19 L 43.5 15.6 L 36.9 15 L 32.6 11.8 L 21.7 10.7 L 18.7 8.8 L 17.2 2.3 L 5.8 -9.5 L -4 -25.9 L -3.6 -28.7 L -8.8 -32.6 L -17.9 -42.4 L -19.6 -52.1 L -25.8 -58.5 L -23.2 -68.3 L -23.7 -78.4 L -27.4 -87.4 L -22.8 -98.5 L -21.4 -109.2 L -19.9 -119.9 L -22.1 -135.7 L -25.8 -145.8 L -29.2 -151.3 L -27.8 -153.6 L -10.8 -149.6 L -4.5 -138.5 L -1.6 -141.6 L -3.5 -151.3 L -7.5 -160.9 Z M -391.4 180.1 L -389.3 181.1 L -387.4 182.7 L -384.4 186.8 L -384.7 187.5 L -389.3 190 L -393.1 191.8 L -394.8 193.8 L -397.7 192.1 L -397.4 188.8 L -399.3 184.5 L -398.7 183.2 L -396.7 181.3 L -397.5 179 L -396.8 177.9 L -395.9 178.1 L -391.4 180.1 Z M -398.4 172 L -399.4 173.4 L -403.3 174.3 L -405.4 171.8 L -406.7 170.8 L -406.8 170.1 L -405.7 169.1 L -401.5 170.2 L -398.4 172 Z M -407.4 167.1 L -407.8 168.4 L -414.1 168.1 L -413.2 166.6 L -407.4 167.1 Z M -422.3 160.8 L -421.3 161.5 L -417.9 165.4 L -418.6 166.1 L -419.4 166 L -423.5 165.5 L -425 162.9 L -425.5 162.4 L -422.3 160.8 Z M -438.1 154.9 L -437.9 157.6 L -439.3 158.8 L -443.3 156.7 L -442.7 155.8 L -440.9 154.7 L -438.1 154.9 Z M -521.9 -295.2 L -512.5 -294.1 L -511.4 -289.6 L -518.6 -287.7 L -526.4 -289.9 L -533.5 -293.1 L -521.9 -295.2 Z M -365.8 -266.7 L -357.9 -265.9 L -353 -262.2 L -363.2 -256.6 L -374.9 -252.1 L -381 -255.2 L -382.8 -260.7 L -372.1 -264.9 L -365.8 -266.7 Z M -221.4 -405.1 L -221.4 -405.1 L -221.5 -361.4 L -221.6 -294.2 L -209.9 -293.9 L -198.5 -290.6 L -190.2 -285.5 L -179.8 -277.7 L -168.3 -284.3 L -156.5 -288.1 L -150.2 -282 L -142.2 -277.2 L -131.5 -271.9 L -124.1 -263.4 L -112 -250 L -92 -242.5 L -91.7 -235 L -98.2 -229.3 L -98.2 -229.3 L -98.2 -229.3 L -104.7 -233.8 L -115.1 -237.5 L -118.4 -247.8 L -133.6 -257.4 L -140 -268.5 L -151.3 -269.3 L -170 -269.5 L -183.9 -272.9 L -208.2 -285.2 L -219.5 -287.4 L -240.2 -291.6 L -256.5 -290.6 L -279.7 -296 L -293.7 -301.1 L -306.8 -298.6 L -304.3 -290.4 L -310.9 -289.6 L -324.5 -287.2 L -334.9 -283.2 L -347.9 -280.7 L -349.6 -287.6 L -344.3 -299.2 L -331.8 -302.8 L -335 -305.8 L -350.1 -299.2 L -358.1 -291.3 L -375.1 -283 L -366.5 -277.2 L -377.6 -268.8 L -390.3 -263.8 L -402.1 -260.2 L -405 -255 L -423.4 -248.9 L -427.1 -243.4 L -440.9 -238.3 L -449 -239.3 L -460 -236 L -472 -232 L -481.8 -228 L -502 -224.6 L -503.9 -226.6 L -491 -232.1 L -479.5 -235.8 L -466.9 -242.2 L -452.3 -243.6 L -446.4 -248.4 L -430.1 -255.4 L -427.5 -257.8 L -418.8 -262 L -416.7 -270.9 L -410.7 -277.9 L -424.3 -274.3 L -428.1 -276.3 L -434.5 -272 L -442.2 -278 L -445.4 -273.8 L -449.8 -279.7 L -461.6 -274.9 L -468.8 -275 L -469.8 -282 L -467.7 -286.3 L -475.3 -290.5 L -490.6 -288.2 L -500.6 -293.8 L -508.7 -296.6 L -508.7 -303.3 L -517.8 -308.3 L -513.2 -315.1 L -503.6 -321.7 L -499.4 -327.7 L -489.9 -328.6 L -481.8 -326.7 L -472.3 -332.4 L -463.7 -331.4 L -454.7 -335 L -456.9 -340.4 L -463.5 -342.5 L -454.8 -347.1 L -462 -346.9 L -474.5 -344.4 L -478.1 -341.8 L -487.4 -344.4 L -504.1 -343.1 L -521.4 -345.9 L -526.3 -350.6 L -541.2 -357.5 L -524.7 -362.4 L -498.4 -368.2 L -488.7 -368.2 L -490.3 -362.3 L -465.4 -362.7 L -475 -370 L -489.5 -374.5 L -497.9 -380.4 L -509.2 -385.5 L -525.4 -389.2 L -518.8 -395.4 L -497.9 -395.7 L -483 -401.1 L -480.2 -406.9 L -468.1 -412.5 L -456.6 -413.8 L -434.3 -419 L -423.4 -418.3 L -405.3 -424.5 L -387.5 -422.1 L -378.9 -416.7 L -373.7 -419 L -353.8 -418.3 L -354.5 -415.6 L -336.4 -413.6 L -324.4 -414.8 L -299.6 -411.1 L -276.9 -409.9 L -267.8 -408.4 L -252.1 -410.3 L -234.2 -406.8 L -221.4 -405.1 L -221.4 -405.1 Z M -583.9 -335.2 L -576.7 -333 L -569.3 -334.2 L -559.8 -331.1 L -548.1 -329.5 L -549 -328.2 L -558 -325.7 L -567 -328.3 L -571.4 -330.4 L -581.8 -329.7 L -584.6 -330.8 L -583.9 -335.2 Z" />
<path class="neighbor" d="M 631.7 1037.5 L 636.2 1042.9 L 642.1 1051.8 L 657.4 1058.9 L 673.9 1061.8 L 668.6 1067.7 L 657.4 1068.3 L 651.4 1064.1 L 644.3 1063.8 L 631.7 1063.8 L 631.7 1037.5 Z M 761.5 773.1 L 758.5 782.6 L 755.4 794.7 L 755.5 806.4 L 752.9 809 L 752 816.7 L 751.2 822.8 L 766.2 832.9 L 764.6 841 L 772 846.2 L 771.4 851.9 L 760 867.1 L 742.5 873.4 L 718.9 875.8 L 705.9 874.7 L 708.4 881.7 L 706 890.5 L 708.2 896.5 L 701.1 900.6 L 689 902.2 L 677.7 897.9 L 673.1 901 L 674.8 912.7 L 682.7 916.3 L 689.2 912.6 L 692.7 918.7 L 681.9 922.4 L 672.4 929.7 L 670.7 941.6 L 667.9 947.9 L 656.7 947.9 L 647.5 953.9 L 644.1 962.8 L 655.7 971.4 L 667 973.8 L 662.9 984.4 L 649 991 L 641.3 1004.9 L 630.6 1009.5 L 625.7 1015 L 629.5 1027.3 L 637.4 1034.1 L 632.4 1033.5 L 621.5 1031.7 L 593 1030.1 L 588.1 1023.2 L 588.3 1014.4 L 580.5 1015.1 L 576.3 1010.9 L 575.3 998.4 L 584.3 993.2 L 588.1 985.7 L 586.7 979.7 L 593 969.7 L 597.3 954 L 596 947.1 L 601.2 944.9 L 599.9 940.4 L 594.4 938.1 L 598.3 933.1 L 593 928.7 L 590.2 915.1 L 595 912.7 L 593 898.3 L 595.8 886.2 L 598.9 875.7 L 606 871.4 L 602.4 859.9 L 602.3 849.1 L 611.3 841.4 L 611 831.5 L 617.7 820 L 617.8 809.2 L 614.7 807 L 609.3 786.7 L 616.5 774.5 L 615.4 763.1 L 619.6 752.4 L 627.3 741.3 L 635.7 734 L 632.1 729.4 L 634.6 725.6 L 634.2 705.9 L 647.1 700.1 L 651.1 687.9 L 649.7 684.9 L 659.5 674.3 L 674.9 677.1 L 681.9 685.6 L 686.5 676.2 L 699.9 676.7 L 701.8 679.2 L 723.5 698.4 L 733.1 700.2 L 747.5 708.9 L 759.7 713.5 L 761.4 718.7 L 749.8 736.7 L 761.7 739.9 L 774.9 741.7 L 784.2 739.8 L 794.9 730.7 L 796.9 720.3 L 802.7 718.1 L 808.6 724.9 L 808.4 734.3 L 798.4 740.8 L 790.5 745.6 L 777.2 757 L 761.5 773.1 Z" />
<path class="neighbor" d="M 631.7 1037.5 L 631.7 1063.8 L 644.3 1063.8 L 651.4 1064.1 L 647.5 1068.9 L 637.4 1072.6 L 631.6 1072.2 L 624.6 1071.2 L 616.1 1067.7 L 603.7 1066 L 588.9 1059.4 L 576.8 1053 L 560.6 1039.8 L 570.3 1042.3 L 586.9 1050.2 L 602.5 1054.4 L 608.6 1049 L 612.4 1040.9 L 623.3 1036.1 L 631.7 1037.5 Z M 620.4 624.1 L 626.2 632.1 L 627.8 640.7 L 633.9 645.6 L 630.2 657.1 L 636.6 670.3 L 641.2 686.5 L 649.7 684.9 L 651.1 687.9 L 647.1 700.1 L 634.2 705.9 L 634.6 725.6 L 632.1 729.4 L 635.7 734 L 627.3 741.3 L 619.6 752.4 L 615.4 763.1 L 616.5 774.5 L 609.3 786.7 L 614.7 807 L 617.8 809.2 L 617.7 820 L 611 831.5 L 611.3 841.4 L 602.3 849.1 L 602.4 859.9 L 606 871.4 L 598.9 875.7 L 595.8 886.2 L 593 898.3 L 595 912.7 L 590.2 915.1 L 593 928.7 L 598.3 933.1 L 594.4 938.1 L 599.9 940.4 L 601.2 944.9 L 596 947.1 L 597.3 954 L 593 969.7 L 586.7 979.7 L 588.1 985.7 L 584.3 993.2 L 575.3 998.4 L 576.3 1010.9 L 580.5 1015.1 L 588.3 1014.4 L 588.1 1023.2 L 593 1030.1 L 621.5 1031.7 L 632.4 1033.5 L 621.9 1033.4 L 616.2 1036.3 L 605.6 1040.6 L 603.7 1051.6 L 598.7 1051.9 L 585.4 1048 L 571.9 1039.8 L 571.9 1039.8 L 557.2 1033.1 L 553.6 1025.6 L 556.9 1018.7 L 551 1010.8 L 549.4 990.7 L 554.5 979.4 L 566.9 970.3 L 549 966.9 L 560.2 956.4 L 564.3 936.9 L 577.4 941 L 583.5 916.6 L 575.6 913.4 L 571.9 928.2 L 564.5 926.5 L 568.2 909.6 L 572.2 887.8 L 577.6 879.7 L 574.2 868.2 L 573.3 854.9 L 578.2 854.6 L 585.5 835.5 L 593.6 816.7 L 598.6 799.1 L 595.9 781.4 L 599.4 771.7 L 598 757.1 L 604.9 742.7 L 607 719.9 L 610.8 695.4 L 614.5 669.1 L 613.6 649.8 L 611.2 633.2 L 617.2 630.2 L 620.4 624.1 Z" />
<path class="neighbor" d="M 595.4 184.4 L 596.4 190.8 L 595.5 195.3 L 592.6 197.3 L 595.7 200.9 L 595.4 204.1 L 587.6 202.1 L 582 202.9 L 574.8 202 L 569.3 204.2 L 563 200.6 L 564 196.8 L 574.9 198.4 L 583.8 199.3 L 588 196.7 L 582.7 191.6 L 582.7 187.1 L 575.3 185.3 L 578 182 L 585.2 182.5 L 595.4 184.4 Z" />
<path class="neighbor" d="M 595.4 204.1 L 595.7 200.9 L 592.6 197.3 L 595.5 195.3 L 596.4 190.8 L 595.4 184.4 L 596.9 182.4 L 606.1 182.4 L 613 185.5 L 616.2 185.2 L 618.3 189.4 L 624.7 189.1 L 624.4 192.6 L 629.6 193.1 L 635.4 197.4 L 631 202.2 L 625.4 199.6 L 620 200.1 L 616.1 199.5 L 614 201.7 L 609.5 202.4 L 607.7 199.6 L 603.8 201.3 L 599.1 209.3 L 596 207.5 L 595.4 204.1 Z" />
<path class="neighbor" d="M 509.7 101 L 515.2 100 L 523 100.4 L 523.4 103.4 L 510.5 105.3 L 509.7 101 Z M 523.7 98 L 533 103.3 L 531 111.7 L 528.8 110.2 L 529 104 L 523.7 99.4 L 523.7 98 Z M 519 119.6 L 522.5 120.1 L 526.7 129.8 L 526.7 136.7 L 523.8 137.3 L 520.8 130.5 L 516.4 127.1 L 519 119.6 Z" />
<path class="neighbor" d="M 719.3 1028.2 L 733.5 1021.1 L 743.5 1024.1 L 750.6 1019.4 L 760 1024.7 L 756.5 1028.8 L 740.6 1032.3 L 735.3 1028.2 L 725.2 1033.5 L 719.3 1028.2 Z" />
<path class="neighbor" d="M 59.9 33.2 L 73.3 32.3 L 88.3 31 L 87.2 33.3 L 105 39.1 L 131.9 47.4 L 155.3 47.3 L 164.7 47.3 L 164.7 42.4 L 185.1 42.4 L 189.4 46.6 L 195.4 50.3 L 202.4 55.5 L 206.4 61.7 L 209.3 68.2 L 215.4 71.7 L 225.2 75.3 L 232.6 65.9 L 242.2 65.7 L 250.6 70.4 L 256.5 78.5 L 260.5 85.4 L 267.5 92.1 L 270.1 100.4 L 273.4 105.9 L 282.6 109.6 L 291 112.2 L 295.6 111.8 L 291 122.2 L 288.9 130.6 L 288.1 146.4 L 286.9 152.2 L 289 158.6 L 292.6 164.4 L 295 173.5 L 302.8 182.3 L 305.6 189 L 310.2 194.8 L 322.7 198 L 327.6 202.9 L 337.9 199.6 L 346.9 198.4 L 355.7 196.3 L 363.2 194.3 L 370.7 189.5 L 373.5 182.6 L 374.4 172.7 L 376.5 169.2 L 384.5 166.1 L 396.9 163.4 L 407.4 163.8 L 414.5 162.8 L 417.3 165.3 L 416.9 171 L 410.6 178 L 407.8 185.2 L 410 187.2 L 408.2 192.3 L 405.3 201.5 L 402.3 198.5 L 399.8 198.7 L 397.6 198.9 L 393.3 206 L 391.2 204.6 L 389.8 205.1 L 389.9 206.9 L 379 206.7 L 367.9 206.8 L 367.9 213.4 L 362.6 213.4 L 367 217.4 L 371.4 220.1 L 372.7 222.6 L 374.6 223.3 L 374.3 227.4 L 359.1 227.4 L 353.5 237 L 355.1 239.2 L 353.8 242 L 353.5 245.4 L 340.1 232.7 L 334.1 228.9 L 324.4 225.8 L 317.8 226.7 L 308.4 231.1 L 302.4 232.3 L 294.1 229.2 L 285.3 226.9 L 274.3 221.5 L 265.4 219.9 L 252.1 214.4 L 242.2 208.7 L 239.2 205.6 L 232.6 204.9 L 220.6 201.2 L 215.7 195.8 L 203 189.1 L 197.1 181.6 L 194.3 175.9 L 198.2 174.7 L 197 171.4 L 199.7 168.3 L 199.8 164.2 L 195.8 159 L 194.7 154.3 L 190.8 148.3 L 180.4 136.6 L 168.5 127.4 L 162.8 120 L 152.7 115.2 L 150.5 112.3 L 152.3 105 L 146.3 102.3 L 139.3 96.6 L 136.4 88.3 L 130 87.4 L 123.2 81.2 L 117.7 75.4 L 117.1 71.8 L 110.8 62.9 L 106.6 53.8 L 106.8 49.3 L 98.3 44.6 L 94.3 45.1 L 87.6 41.9 L 85.7 46.7 L 87.7 52.3 L 88.8 61.2 L 92.9 66.1 L 101.6 74.2 L 103.6 76.9 L 105.4 77.8 L 106.9 81.8 L 109 81.7 L 111.4 89.3 L 115 92.3 L 117.5 96.5 L 124.9 102.5 L 128.8 113.4 L 132.3 118.6 L 135.6 124.1 L 136.2 130.3 L 141.9 130.7 L 146.6 136.1 L 150.9 141.3 L 150.6 143.5 L 145.7 147.8 L 143.6 147.7 L 140.5 140.6 L 132.7 133.8 L 124.2 128.1 L 118.2 125.1 L 118.6 116.5 L 116.8 110.1 L 111.2 106.5 L 103.1 101.2 L 101.5 102.7 L 98.6 99.7 L 91.3 96.8 L 84.3 90 L 85.2 89.1 L 90 89.7 L 94.4 85.3 L 94.9 80 L 85.8 71.6 L 78.9 68.3 L 74.5 61 L 70.1 53.2 L 64.7 43.8 L 59.9 33.2 Z" />
<path class="neighbor" d="M 761.5 773.1 L 769.1 771.9 L 781 781 L 785.3 780.6 L 797.5 788.2 L 806.7 794.7 L 813.5 802.7 L 808.3 808.3 L 811.6 815 L 806.5 822.4 L 793.2 829 L 784.5 826.6 L 778.1 827.9 L 767.2 822.8 L 759.2 823.2 L 752 816.7 L 752.9 809 L 755.5 806.4 L 755.4 794.7 L 758.5 782.6 L 761.5 773.1 Z" />
<path class="neighbor" d="M 621.1 546 L 629.9 547 L 636 546.7 L 638.6 543.1 L 648.9 538.4 L 655.1 533.9 L 670.5 531.9 L 669.3 540.8 L 670.7 545.3 L 669.8 553.2 L 682.6 563.8 L 695.8 565.7 L 700.4 570.1 L 708.4 572.5 L 713.3 575.9 L 720.7 575.8 L 727.5 579.3 L 728.1 586.1 L 730.4 589.5 L 730.5 594.6 L 727.1 594.8 L 731.6 608.5 L 754.2 609 L 752.5 615.8 L 753.8 620.5 L 760.2 623.8 L 763 631.1 L 760.9 640.4 L 757.7 645.6 L 758.8 652.3 L 755.1 654.7 L 754.9 651.1 L 743.9 645.1 L 733 644.9 L 712.4 648.3 L 706.8 658.7 L 706.5 665.1 L 701.8 679.2 L 699.9 676.7 L 686.5 676.2 L 681.9 685.6 L 674.9 677.1 L 659.5 674.3 L 649.7 684.9 L 641.2 686.5 L 636.6 670.3 L 630.2 657.1 L 633.9 645.6 L 627.8 640.7 L 626.2 632.1 L 620.4 624.1 L 627.8 611.4 L 622.8 601.5 L 625.5 597.5 L 623.4 593.2 L 628 587.3 L 628.2 577.2 L 628.8 568.9 L 631.3 564.9 L 621.1 546 Z" />
<path class="neighbor" d="M 616.8 467.5 L 606.2 467 L 604.6 468.7 L 595 471 L 581.5 479 L 580.6 484.5 L 577.6 488.6 L 578.8 495 L 571.7 498.4 L 571.7 503.4 L 568.6 505.6 L 573.5 516.2 L 580 523.3 L 577.5 528.4 L 585.4 529.1 L 589.8 535.4 L 600.2 535.7 L 609.9 528.7 L 609.1 546.6 L 614.5 548 L 621.1 546 L 631.3 564.9 L 628.8 568.9 L 628.2 577.2 L 628 587.3 L 623.4 593.2 L 625.5 597.5 L 622.8 601.5 L 627.8 611.4 L 620.4 624.1 L 617.2 630.2 L 611.2 633.2 L 599.4 626.4 L 598.3 621.6 L 575 609.7 L 553.8 596.8 L 544.7 589.6 L 539.8 579.8 L 541.8 576.4 L 531.8 561 L 520.2 539.2 L 509 515.7 L 504.2 510.3 L 500.5 501.7 L 491.3 494 L 482.9 489.2 L 486.7 483.9 L 481 472.7 L 484.7 464.4 L 494.1 457 L 495.5 461.9 L 492.1 464.7 L 492.4 469 L 497.3 468.1 L 502.1 469.4 L 507 475.3 L 513.7 470.5 L 515.9 462.5 L 523.2 452.2 L 537.3 447.6 L 550.2 435.3 L 553.9 427.6 L 552.2 418.6 L 555.4 417.5 L 563.2 423.1 L 567 428.7 L 572.4 431.7 L 579.4 444.1 L 588.1 445.5 L 594.6 442.4 L 598.9 444.5 L 606 443.4 L 615 449 L 607.4 461 L 610.9 461.2 L 616.8 467.5 Z" />
<path class="neighbor" d="M 652.4 402.1 L 650.2 403.5 L 647.9 396.6 L 644.6 392.8 L 640.7 396.9 L 617.7 396.6 L 617.9 404 L 624.8 405.2 L 624.4 409.7 L 622 408.5 L 615.4 410.5 L 615.3 419 L 620.6 423.3 L 622.4 430.1 L 622.1 435.2 L 616.8 467.5 L 610.9 461.2 L 607.4 461 L 615 449 L 606 443.4 L 598.9 444.5 L 594.6 442.4 L 588.1 445.5 L 579.4 444.1 L 572.4 431.7 L 567 428.7 L 563.2 423.1 L 555.4 417.5 L 552.2 418.6 L 547.2 415.8 L 541.4 411.9 L 538 413.8 L 528 412.2 L 525.2 407.1 L 523 407.3 L 511.2 400.6 L 509.6 396.9 L 514 396 L 513.4 390.1 L 516.2 385.8 L 522.1 385 L 527 377.6 L 531.5 371.4 L 527.2 368.6 L 529.4 361.8 L 526.7 351 L 529.3 347.9 L 527.4 337.9 L 522.6 331.7 L 524.2 325.9 L 528 326.8 L 530.2 323.3 L 527.4 316.3 L 528.9 314.6 L 535 315 L 543.8 306.7 L 548.7 305.5 L 548.8 301.6 L 551 291.6 L 557.7 286.2 L 565.1 285.9 L 566.1 283.5 L 575.3 284.5 L 584.6 278.5 L 589.2 275.9 L 594.9 270.2 L 599.1 270.9 L 602.2 274 L 599.9 278 L 592.3 280 L 589.3 285.9 L 584.7 289.2 L 581.3 293.6 L 579.9 302 L 576.6 308.9 L 582.7 309.7 L 584.2 315.1 L 586.8 317.7 L 587.7 322.5 L 586.3 326.8 L 586.7 329.3 L 589.7 330.3 L 592.5 334.4 L 607.6 333.3 L 614.5 334.8 L 622.8 344.9 L 627.5 343.7 L 636 344.3 L 642.7 342.9 L 646.9 345 L 644.8 351.3 L 642.2 355.3 L 641.2 363.7 L 643.6 371.6 L 647 375.1 L 647.4 377.7 L 641.4 383.6 L 645.7 386.2 L 648.8 390.3 L 652.4 402.1 Z" />
<path class="neighbor" d="M 528.9 314.6 L 527.4 316.3 L 530.2 323.3 L 528 326.8 L 524.2 325.9 L 522.6 331.7 L 518.7 328.3 L 516.2 321.9 L 519.1 318.7 L 516.1 317.9 L 513.9 314 L 508 310.8 L 502.9 311.5 L 500.5 315.6 L 495.7 318.6 L 493.2 319 L 492 321.4 L 497.6 327.8 L 494.4 329.4 L 492.7 331.1 L 487.2 331.7 L 485.2 324.7 L 483.6 326.7 L 479.7 326 L 477.4 321.2 L 472.5 320.4 L 469.5 319.1 L 464.4 319.1 L 464 321.6 L 462.7 319.9 L 463.3 317.5 L 464.3 315.1 L 463.8 313 L 465.6 311.6 L 463.1 309.8 L 463.1 305.1 L 467.6 304 L 471.9 308.3 L 471.6 310.8 L 476.3 311.3 L 477.5 310.3 L 480.7 313.2 L 486.5 312.4 L 491.5 309.4 L 498.7 307 L 502.7 303.5 L 509.2 304.2 L 508.8 305.4 L 515.3 305.8 L 520.6 307.8 L 524.4 311.3 L 528.9 314.6 Z" />
<path class="neighbor" d="M 467.6 304 L 463.1 305.1 L 463.1 309.8 L 465.6 311.6 L 463.8 313 L 464.3 315.1 L 463.3 317.5 L 462.7 319.9 L 456.3 317.2 L 453.9 314.8 L 455.3 312.7 L 454.8 310.1 L 451.6 307.3 L 446.9 305 L 442.9 303.5 L 442.1 300 L 439 297.9 L 439.8 301.3 L 437.4 304.2 L 434.7 300.9 L 430.9 299.7 L 429.3 297.3 L 429.4 293.7 L 430.9 290 L 427.6 288.4 L 430.3 286.1 L 432.1 284.6 L 439.9 287.7 L 442.6 286.2 L 446.3 287.1 L 448.3 289.6 L 451.7 290.4 L 454.6 287.9 L 457.5 294.3 L 462.1 299 L 467.6 304 Z" />
<path class="neighbor" d="M 454.6 287.9 L 451.7 290.4 L 448.3 289.6 L 446.3 287.1 L 442.6 286.2 L 439.9 287.7 L 432.1 284.6 L 430.3 286.1 L 426.2 282.4 L 420.7 277.6 L 418.1 273.6 L 413.2 269.9 L 407.2 264.6 L 408.6 262.8 L 410.5 264.6 L 411.4 263.7 L 415.1 263.3 L 416.5 260.6 L 418.3 260.5 L 418 254.7 L 420.8 254.4 L 423.2 254.5 L 425.8 251.3 L 429.3 253.7 L 430.5 252.2 L 432.6 250.8 L 436.8 247.6 L 437 245.2 L 438.1 245.3 L 439.6 242.4 L 440.8 242.1 L 442.8 243.9 L 445.2 244.4 L 447.8 242.9 L 450.8 242.9 L 454.9 241.4 L 456.5 239.8 L 460.6 240 L 459.5 241.2 L 458.9 243.8 L 460.1 248.1 L 457.4 252.1 L 456.2 256.9 L 455.8 262.1 L 456.4 265.1 L 456.7 270.4 L 454.9 271.6 L 453.8 276.6 L 454.6 279.7 L 452.2 282.7 L 452.8 285.9 L 454.6 287.9 Z" />
<path class="neighbor" d="M 460.6 240 L 456.5 239.8 L 454.9 241.4 L 450.8 242.9 L 447.8 242.9 L 445.2 244.4 L 442.8 243.9 L 440.8 242.1 L 439.6 242.4 L 438.1 245.3 L 437 245.2 L 436.8 247.6 L 432.6 250.8 L 430.5 252.2 L 429.3 253.7 L 425.8 251.3 L 423.2 254.5 L 420.8 254.4 L 418 254.7 L 418.3 260.5 L 416.5 260.6 L 415.1 263.3 L 411.4 263.7 L 409.4 260 L 405.8 259 L 406.6 254.3 L 405 253 L 402.6 252.2 L 397.4 253.6 L 397 252 L 393.4 250.1 L 390.9 247.8 L 387.4 246.8 L 389.8 243.8 L 388.9 241.5 L 389.7 239.2 L 395.3 235.9 L 400.7 231.4 L 401.9 231.9 L 404.5 229.8 L 407.9 229.6 L 409 230.6 L 410.8 230 L 416.3 231.1 L 421.7 230.7 L 425.5 229.4 L 426.9 228.1 L 430.7 228.7 L 433.5 229.5 L 436.6 229.3 L 438.9 228.2 L 444.3 229.9 L 446.2 230.1 L 449.8 232.3 L 453.2 235 L 457.5 236.8 L 460.6 240 Z" />
<path class="neighbor" d="M 387.4 246.8 L 390.9 247.8 L 393.4 250.1 L 397 252 L 397.4 253.6 L 402.6 252.2 L 405 253 L 406.6 254.3 L 405.8 259 L 404.5 261.8 L 397.6 261.6 L 393.4 260.5 L 388.5 258.1 L 382 257.4 L 378.6 254.9 L 379 253.2 L 383 250.2 L 385.2 248.9 L 384.6 247.5 L 387.4 246.8 Z" />
<path class="neighbor" d="M 353.5 245.4 L 353.8 242 L 355.1 239.2 L 353.5 237 L 359.1 227.4 L 374.3 227.4 L 374.6 223.3 L 372.7 222.6 L 371.4 220.1 L 367 217.4 L 362.6 213.4 L 367.9 213.4 L 367.9 206.8 L 379 206.7 L 389.9 206.9 L 389.8 216.2 L 388.8 229.5 L 392.4 229.5 L 396.2 231.6 L 397.2 229.9 L 400.7 231.4 L 395.3 235.9 L 389.7 239.2 L 388.9 241.5 L 389.8 243.8 L 387.4 246.8 L 384.6 247.5 L 385.2 248.9 L 383 250.2 L 379 253.2 L 378.6 254.9 L 372.6 252.8 L 365.2 252.6 L 359.8 250.3 L 353.5 245.4 Z" />
<path class="neighbor" d="M 389.9 206.9 L 389.8 205.1 L 391.2 204.6 L 393.3 206 L 397.6 198.9 L 399.8 198.7 L 399.8 200.4 L 402.1 200.5 L 401.9 203.7 L 400 208.8 L 401 210.6 L 399.8 214.8 L 400.5 216 L 399.1 221.9 L 396.8 225.1 L 394.7 225.4 L 392.4 229.5 L 388.8 229.5 L 389.8 216.2 L 389.9 206.9 Z" />
<path class="neighbor" d="M 724.8 355.5 L 726.4 358.8 L 722.1 363.3 L 708.9 367.8 L 700.4 369.6 L 697 372.4 L 687.6 369.4 L 678.9 367.9 L 676.7 369 L 682 372.1 L 681.5 380 L 683.1 387.4 L 693.1 388.4 L 693.8 390.9 L 685.3 394.2 L 684 399.2 L 679.1 401.2 L 670.3 403.9 L 668.1 407.5 L 658.9 408.3 L 652.4 402.1 L 648.8 390.3 L 645.7 386.2 L 641.4 383.6 L 647.4 377.7 L 647 375.1 L 643.6 371.6 L 641.2 363.7 L 642.2 355.3 L 644.8 351.3 L 646.9 345 L 642.7 342.9 L 636 344.3 L 627.5 343.7 L 622.8 344.9 L 614.5 334.8 L 607.6 333.3 L 592.5 334.4 L 589.7 330.3 L 586.7 329.3 L 586.3 326.8 L 587.7 322.5 L 586.8 317.7 L 584.2 315.1 L 582.7 309.7 L 576.6 308.9 L 579.9 302 L 581.3 293.6 L 584.7 289.2 L 589.3 285.9 L 592.3 280 L 599.9 278 L 599.5 280.8 L 592.6 282.1 L 596.5 287.5 L 596.3 293.7 L 591.1 300.5 L 595.6 309.9 L 600.7 309.1 L 603.3 300.6 L 599.7 296.4 L 599.1 287.5 L 613.7 282.7 L 612.1 277.2 L 616.2 273.4 L 620.5 281.7 L 628.7 281.9 L 636.4 288.5 L 636.9 292.4 L 647.5 292.5 L 660 291.3 L 666.8 296.6 L 675.8 298 L 682.4 294.3 L 682.6 291.4 L 697.2 290.7 L 711.3 290.5 L 701.3 294 L 705.3 299.5 L 714.7 300.4 L 723.7 306.2 L 725.6 315.7 L 731.7 315.4 L 736.3 318.2 L 727 325.1 L 726 329.4 L 730 333.8 L 727.1 336 L 719.8 337.9 L 720 343.3 L 716.9 346.6 L 724.8 355.5 Z" />
<path class="neighbor" d="M 774.3 394.4 L 771.4 394.9 L 764.9 393.9 L 761.1 397 L 755.7 399.1 L 752 399.6 L 750.7 401.9 L 744.9 401.3 L 737.7 395.8 L 736.8 390.3 L 733.8 384.4 L 735.7 374.3 L 738.9 370.2 L 736.2 364.7 L 732.2 362.9 L 733.7 357.7 L 731 355 L 724.8 355.5 L 716.9 346.6 L 720 343.3 L 719.8 337.9 L 727.1 336 L 730 333.8 L 726 329.4 L 727 325.1 L 736.3 318.2 L 744.1 322.5 L 751.4 330.2 L 751.7 336.3 L 756.1 336.6 L 762.5 342.3 L 767.1 346.4 L 765.2 357 L 758.1 360.1 L 758.7 362.9 L 756.5 369 L 761.8 377.5 L 765.5 377.5 L 767.1 384.2 L 774.3 394.4 Z" />
<path class="neighbor" d="M 798 389.6 L 791.3 387.1 L 785.7 388.3 L 781 387.2 L 779.8 390.7 L 781.8 393 L 780.7 395.4 L 774.3 394.4 L 767.1 384.2 L 765.5 377.5 L 761.8 377.5 L 756.5 369 L 758.7 362.9 L 758.1 360.1 L 765.2 357 L 767.1 346.4 L 781.2 348.8 L 782.5 346.6 L 792 345.8 L 804.7 349 L 798.6 359.1 L 799.5 367.2 L 804.1 374.2 L 802.1 379.2 L 801 384.6 L 798 389.6 Z" />
<path class="neighbor" d="M 831.8 367.8 L 824.9 378.6 L 821.2 387.3 L 816.7 391.8 L 811.1 392.6 L 809.5 389.3 L 806.8 388.8 L 803.2 392 L 798 389.6 L 801 384.6 L 802.1 379.2 L 804.1 374.2 L 799.5 367.2 L 798.6 359.1 L 804.7 349 L 808.7 350.3 L 817.4 353.1 L 829.9 363 L 831.8 367.8 Z M 1513.9 -166.4 L 1519.4 -163.3 L 1536.4 -161.1 L 1530.5 -153.1 L 1529 -144.7 L 1525.7 -142.6 L 1520.4 -143.7 L 1520.8 -140.7 L 1512.1 -134.1 L 1512 -128.8 L 1517.6 -130.6 L 1521.6 -125.4 L 1521.1 -122.1 L 1524.6 -117.7 L 1520.5 -114.1 L 1523.6 -105 L 1530 -103.5 L 1528.6 -98.4 L 1517.9 -91.7 L 1494.7 -94.9 L 1477.5 -91.1 L 1476.1 -84 L 1462.5 -82.4 L 1449.2 -87.8 L 1444.9 -85.2 L 1423.2 -90.6 L 1418.5 -95.2 L 1424.6 -102.2 L 1426.9 -125.7 L 1414.7 -138.1 L 1406 -144.1 L 1388 -148.6 L 1386.8 -157.2 L 1402.1 -159.8 L 1421.9 -156.7 L 1418.1 -170.1 L 1429.3 -165 L 1456.7 -174.2 L 1460.3 -183.9 L 1470.6 -186.3 L 1472.3 -182.1 L 1477.8 -181.9 L 1483.2 -177.2 L 1491.5 -171.6 L 1497.5 -172.5 L 1507.8 -167.2 L 1510.5 -166.1 L 1513.9 -166.4 Z M 1544.1 -85.8 L 1551.7 -90.3 L 1553.7 -80.2 L 1549.8 -71.1 L 1544.4 -73.5 L 1541.7 -81.4 L 1544.1 -85.8 Z" />
<path class="neighbor" d="M 552.2 418.6 L 553.9 427.6 L 550.2 435.3 L 537.3 447.6 L 523.2 452.2 L 515.9 462.5 L 513.7 470.5 L 507 475.3 L 502.1 469.4 L 497.3 468.1 L 492.4 469 L 492.1 464.7 L 495.5 461.9 L 494.1 457 L 500.4 448.2 L 497.8 443 L 493.3 448.5 L 486.3 443.3 L 488.6 440 L 486.7 429.3 L 490.8 427.5 L 493 420.2 L 497.4 412.6 L 496.6 407.8 L 503.1 405.2 L 511.2 400.6 L 523 407.3 L 525.2 407.1 L 528 412.2 L 538 413.8 L 541.4 411.9 L 547.2 415.8 L 552.2 418.6 Z" />
<path class="neighbor" d="M 659.4 198.5 L 665.4 199.6 L 667.6 201.9 L 664.5 204.9 L 655.7 204.8 L 648.8 205.2 L 648.1 200.2 L 649.8 198.5 L 659.4 198.5 Z" />
<path class="neighbor" d="M 526.3 198.8 L 534.3 199.9 L 540.5 202.7 L 542.5 205.9 L 534.2 206.2 L 530.6 208.1 L 524 206.2 L 517.3 201.9 L 518.7 199.2 L 523.6 198.4 L 526.3 198.8 Z" />
<path class="neighbor" d="M 470.9 143.4 L 481.1 144.3 L 490.4 144.4 L 501.4 148.4 L 506.1 152.7 L 517.1 151.4 L 521.3 154.2 L 531.3 161.5 L 538.7 166.8 L 542.5 166.6 L 549.6 169 L 548.7 172.4 L 557.4 172.8 L 566.3 177.7 L 564.9 180.4 L 557.1 181.9 L 549.1 182.5 L 541 181.6 L 524.1 182.7 L 532 176.1 L 527.2 173.1 L 519.6 172.3 L 515.6 168.9 L 512.8 162.2 L 506.1 162.6 L 495.1 159.5 L 491.6 157 L 476.2 155.2 L 472.1 152.9 L 476.5 149.9 L 464.9 149.3 L 456.5 155.4 L 451.6 155.6 L 449.9 158.5 L 444 159.8 L 439 158.7 L 445.2 155 L 447.8 150.8 L 453.1 148.1 L 459.1 145.8 L 468.1 144.7 L 470.9 143.4 Z" />
<path class="neighbor" d="M 1243.9 256.5 L 1239 247.4 L 1233.1 243.2 L 1238.3 240.9 L 1244 232.6 L 1246.8 226.6 L 1250.9 222.8 L 1256.7 223.8 L 1262.5 221.3 L 1269.1 221.1 L 1274.7 224.6 L 1282.5 227.7 L 1289.7 236.4 L 1297.4 244.5 L 1298 251.8 L 1300.3 258.6 L 1304.7 261.9 L 1305.7 266.4 L 1305.2 270.1 L 1303.5 270.8 L 1297 269.9 L 1296.2 271.2 L 1293.6 271.4 L 1285.1 268.6 L 1279.4 268.4 L 1257.6 267.9 L 1254.4 269.3 L 1250.5 268.9 L 1244.3 270.8 L 1242.4 261.8 L 1253.1 262 L 1255.9 260.4 L 1258 260.3 L 1262.4 257.5 L 1267.5 260 L 1272.6 260.2 L 1277.7 257.6 L 1275.3 254.2 L 1271.4 256.2 L 1267.8 256.1 L 1263.1 253.2 L 1259.4 253.4 L 1256.7 256.2 L 1243.9 256.5 Z" />
<path class="neighbor" d="M 1239.7 169.2 L 1242.3 165.3 L 1288.5 165.4 L 1286.3 148.3 L 1289.1 142.3 L 1300.2 141.2 L 1299.8 111.1 L 1338.5 111.7 L 1338.5 93.8 L 1382.9 122.4 L 1364.8 122.6 L 1370.5 173.5 L 1376.2 224.3 L 1378.3 225.8 L 1375.6 234.1 L 1328.3 234.2 L 1326.6 236.9 L 1322 236.1 L 1315.4 238.4 L 1307.1 235.1 L 1303.4 235.4 L 1301.4 242.3 L 1297.4 244.5 L 1289.7 236.4 L 1282.5 227.7 L 1274.7 224.6 L 1269.1 221.1 L 1262.5 221.3 L 1256.7 223.8 L 1250.9 222.8 L 1246.8 226.6 L 1245.8 220.2 L 1249.1 214.4 L 1250.6 203.3 L 1249.3 191.7 L 1247.8 185.8 L 1249 179.9 L 1246 174.3 L 1239.7 169.2 Z" />
<path class="neighbor" d="M 1279.4 268.4 L 1285.1 268.6 L 1293.6 271.4 L 1296.2 271.2 L 1297 269.9 L 1303.5 270.8 L 1305.2 270.1 L 1305.9 274.4 L 1307.7 274.4 L 1310.8 272.9 L 1312.8 273.2 L 1316 276.2 L 1321.1 277.2 L 1324.3 274.6 L 1328.1 273.1 L 1331 271.4 L 1333.3 271.7 L 1335.9 274.3 L 1337.3 277.6 L 1342.2 282.5 L 1339.8 285.5 L 1339.3 289.4 L 1341.8 288.2 L 1343.3 289.6 L 1342.7 293.1 L 1346.3 296.5 L 1343.9 297.4 L 1343 301.4 L 1345.7 306.3 L 1348.6 315.7 L 1344.2 317.1 L 1343.1 318.8 L 1344 321.1 L 1343.3 326.2 L 1341.4 326.2 L 1338.1 325.9 L 1335.7 330.7 L 1332.4 330.6 L 1330.1 328.1 L 1330.8 323.4 L 1325.9 316.1 L 1322.8 317.5 L 1320.3 317.7 L 1317.1 318.4 L 1317.2 314.1 L 1315.3 311 L 1315.7 307.6 L 1313.1 302.6 L 1309.9 298.4 L 1300.4 298.4 L 1297.7 300.6 L 1294.4 300.9 L 1292.4 303.4 L 1291.1 306.7 L 1284.8 311.9 L 1279.6 304.9 L 1275 300.3 L 1272 298.7 L 1269 296.4 L 1267.7 291.2 L 1266 288.6 L 1262.5 286.7 L 1267.8 280.9 L 1271.4 281.1 L 1274.4 279.2 L 1277 279.1 L 1278.9 277.6 L 1277.9 273.7 L 1279.2 272.4 L 1279.4 268.4 Z" />
<path class="neighbor" d="M 1244.3 270.8 L 1250.5 268.9 L 1254.4 269.3 L 1257.6 267.9 L 1279.4 268.4 L 1279.2 272.4 L 1277.9 273.7 L 1278.9 277.6 L 1277 279.1 L 1274.4 279.2 L 1271.4 281.1 L 1267.8 280.9 L 1262.5 286.7 L 1256.2 281.7 L 1251.3 281 L 1248.6 277.6 L 1248.6 275.8 L 1245 273.3 L 1244.3 270.8 Z" />
<path class="neighbor" d="M 1243.9 256.5 L 1256.7 256.2 L 1259.4 253.4 L 1263.1 253.2 L 1267.8 256.1 L 1271.4 256.2 L 1275.3 254.2 L 1277.7 257.6 L 1272.6 260.2 L 1267.5 260 L 1262.4 257.5 L 1258 260.3 L 1255.9 260.4 L 1253.1 262 L 1242.4 261.8 L 1243.9 256.5 Z" />
<path class="neighbor" d="M 755.1 654.7 L 758.6 661.3 L 757.8 677.3 L 770.3 679.6 L 775.1 677.3 L 783 680.4 L 785.2 684 L 786.3 694.8 L 787.7 699.3 L 792.1 699.8 L 796.5 697.9 L 800.8 700.1 L 800.8 706.6 L 799.2 713.5 L 796.9 720.3 L 794.9 730.7 L 784.2 739.8 L 774.9 741.7 L 761.7 739.9 L 749.8 736.7 L 761.4 718.7 L 759.7 713.5 L 747.5 708.9 L 733.1 700.2 L 723.5 698.4 L 701.8 679.2 L 706.5 665.1 L 706.8 658.7 L 712.4 648.3 L 733 644.9 L 743.9 645.1 L 754.9 651.1 L 755.1 654.7 Z" />
<path class="neighbor" d="M 1415.4 2.2 L 1419.8 9.7 L 1420.5 16.9 L 1424.6 29.3 L 1427.7 31.8 L 1425.5 36.4 L 1410.1 38.4 L 1404.8 42.8 L 1397.9 43.8 L 1397.4 52.5 L 1383.6 57.2 L 1379.1 63.1 L 1369.5 66.3 L 1357.7 68.1 L 1338.7 76.8 L 1338.8 90.7 L 1337 90.7 L 1337.2 97.1 L 1330 97.4 L 1326.2 100.1 L 1320.8 100.1 L 1316.5 98.6 L 1306.6 99.9 L 1302.8 109 L 1299.1 109.9 L 1293.5 124.8 L 1277.2 137.5 L 1273.3 153.8 L 1268.4 159.1 L 1267 163.3 L 1240.5 164.3 L 1240.3 164.2 L 1240.8 158.8 L 1245.3 155.6 L 1249.2 149.4 L 1248.4 145.4 L 1252.5 137.1 L 1259.1 129.6 L 1263 127.7 L 1266.1 120.8 L 1266.4 114.6 L 1270.7 107.3 L 1278.5 103 L 1286 90.9 L 1286.2 90.8 L 1292.2 86.2 L 1303.1 84.9 L 1312.4 76.9 L 1318.3 73.7 L 1328.2 63.9 L 1325.2 49.2 L 1329.7 39.1 L 1331.3 32.9 L 1338.9 24.9 L 1350.7 19.5 L 1359.4 14.6 L 1367.3 2.4 L 1371 -4.8 L 1379.7 -4.8 L 1386.8 0.3 L 1398 -0.6 L 1410.2 2 L 1415.4 2.2 Z" />
<path class="neighbor" d="M 713.7 290 L 720.5 288.4 L 722.9 288.8 L 722.5 297.6 L 712.6 298.9 L 710.5 297.9 L 713.9 294.6 L 713.7 290 Z" />
<path class="lake" d="M 440.9 284.1 L 441.2 284.7 L 441.3 285.3 L 441.4 285.7 L 441 286.4 L 440.6 286.6 L 439.9 286.7 L 439.4 286.5 L 438.6 286.5 L 437.4 286.2 L 435.6 285.7 L 433.9 285.1 L 432.6 284.6 L 431.8 284.2 L 431.2 283.8 L 430.6 283.4 L 430.2 283 L 429.8 282.3 L 429.3 281.4 L 428.9 280.5 L 428.6 279.8 L 428.5 279.3 L 428.4 279.1 L 428.2 279 L 428.1 278.9 L 428.1 278.6 L 428.1 278.4 L 428.1 277.8 L 428 276.8 L 427.9 275.9 L 428 275.3 L 428.2 274.9 L 428.4 274.2 L 428.9 274.1 L 429.3 274.1 L 429.8 274.2 L 430.7 274.6 L 431.8 275.2 L 432.7 275.8 L 433.5 276.5 L 434.4 277.1 L 435.7 277.9 L 437.2 279.3 L 438.6 280.9 L 439.7 282.3 L 440.4 283.3 L 440.9 284.1 L 440.9 284.1 L 440.9 284.1 L 440.9 284.1 Z" />
<path class="lake" d="M 623 608.1 L 622.6 607.9 L 622.2 607.7 L 621.7 607.6 L 621.6 607.4 L 622.1 606.8 L 622.2 606.2 L 622.1 605.8 L 621.6 605.6 L 620.8 605.4 L 620 605.1 L 619.5 604.8 L 619.2 604.6 L 618.9 604.4 L 618.5 604.2 L 618.1 603.8 L 617.8 603.5 L 617.5 603.4 L 617.4 603.5 L 617.3 603.6 L 617.3 603.9 L 617.4 604.1 L 617.5 604.4 L 617.5 604.5 L 617.4 604.6 L 617.2 604.6 L 617 604.5 L 616.8 604.3 L 616.5 604.1 L 616 603.8 L 615.6 603.6 L 615.4 603.5 L 615.4 603.2 L 615.3 602.8 L 615.4 602.4 L 615.6 602 L 615.8 601.7 L 616.1 601.3 L 616.5 601.2 L 617.2 601.5 L 617.7 601.9 L 618 601.9 L 617.7 601.2 L 617.1 600 L 616.4 598.7 L 616.3 598.4 L 616.6 598.1 L 617.3 597.8 L 617.4 597.5 L 617.5 597.4 L 617.9 597.2 L 618.4 597.1 L 618.6 596.9 L 619.3 596.8 L 620 597.8 L 621 598.1 L 622.1 599.3 L 622.6 599.5 L 623.1 599.7 L 623.8 601 L 624.2 601.1 L 624.7 601.5 L 625.1 601.7 L 625.4 601.9 L 625.6 602.2 L 626.2 602.7 L 626.9 603.1 L 627.2 603.7 L 627.2 604.4 L 627.4 604.6 L 628.5 604.8 L 629.4 604.9 L 629.8 605.2 L 629.6 605.4 L 629.4 605.7 L 629.1 606.1 L 628.7 606.5 L 628.9 607.1 L 629.4 607.7 L 630.1 607.9 L 631 608.1 L 631.7 608.1 L 632.2 608.3 L 632.2 608.7 L 632.2 608.9 L 632.2 609.1 L 631.9 609.2 L 631.4 609.2 L 631 609.3 L 630.8 609.5 L 630.8 609.7 L 630.4 610 L 629.9 610.3 L 629 610.4 L 628.5 610.5 L 628.2 610.8 L 628.6 611 L 628.9 611.4 L 629 611.7 L 629.1 611.9 L 629 612.2 L 628.9 612.4 L 628.5 612.4 L 628 612.4 L 627.3 612 L 626.8 611.7 L 626.5 611.6 L 626.2 611.2 L 626.8 610.4 L 626.9 609.8 L 626.9 609.2 L 626.8 608.8 L 627.3 608.5 L 628 608.1 L 628.5 608.3 L 628.7 608.3 L 628.6 607.9 L 628 607.6 L 627.2 606.8 L 626.5 606.5 L 626.2 606.5 L 626.1 607.1 L 625.9 607.6 L 625.8 608.2 L 625.3 608.4 L 624.8 608.5 L 624.2 608.5 L 623.5 608.4 L 623 608.1 L 623 608.1 L 623 608.1 L 623 608.1 Z" />
<path class="lake" d="M 580.6 903.6 L 580.3 903 L 580.3 902 L 580.5 901.3 L 581.2 900.5 L 582 900 L 582.8 900.1 L 583.7 900.6 L 584.5 901.4 L 584.9 902.4 L 584.6 902.8 L 583.4 902.6 L 581.7 903.7 L 580.6 903.6 L 580.6 903.6 L 580.6 903.6 L 580.6 903.6 Z" />
<path class="lake" d="M 707.2 779.7 L 705.1 780.5 L 703.2 780.7 L 701.3 781.4 L 700.4 780.6 L 699.8 780 L 698.9 779.4 L 698.4 778.7 L 698.9 778.2 L 700.2 777.9 L 701.4 777.4 L 701.8 777 L 702.3 776.7 L 704.9 777.2 L 705 777 L 705.5 777 L 706.5 777.5 L 707.2 778.5 L 707.2 779.7 L 707.2 779.7 L 707.2 779.7 Z" />
<path class="lake" d="M 597.8 199.1 L 597.5 199.5 L 596.6 199.6 L 594.4 198.8 L 594.6 198.3 L 595.7 198.1 L 596.9 198.5 L 597.8 199.1 L 597.8 199.1 L 597.8 199.1 Z" />
<path class="lake" d="M 592.2 1009 L 592 1009.3 L 590.7 1009.5 L 588.8 1010 L 586.8 1010 L 585 1009.8 L 584.1 1009.7 L 582.6 1009.8 L 580.5 1010.6 L 580.1 1011.3 L 580.6 1011.9 L 581.9 1011.9 L 582.6 1011.8 L 582.8 1012.1 L 582 1012.7 L 581.1 1013.6 L 580.7 1013.7 L 580.1 1012.5 L 578.9 1010.7 L 578.2 1010.3 L 577.6 1010.3 L 577 1010.5 L 576.8 1010.3 L 577.7 1009.6 L 579.9 1009.8 L 580.5 1009.5 L 580.4 1009.1 L 579.7 1008.7 L 578.3 1008.1 L 577.5 1008.3 L 576.8 1008.9 L 576.7 1008.6 L 576.9 1007.8 L 576.8 1007.2 L 577.2 1006.8 L 577.8 1006.4 L 578 1006.2 L 578.6 1006.8 L 579.5 1008 L 580.8 1008.5 L 582.6 1008.7 L 583.4 1008.6 L 586.8 1008.4 L 590.6 1007.9 L 591.5 1008.3 L 592.2 1009 L 592.2 1009 L 592.2 1009 Z" />
<path class="lake" d="M 393 231.6 L 392.4 232 L 391.9 232.5 L 391.6 233.2 L 391.3 234.2 L 390.6 234.7 L 389.4 235.1 L 388.7 235.1 L 388.3 235.3 L 388 235.5 L 387.7 235.1 L 387.2 234.6 L 387 234.2 L 387.2 234 L 387.8 233.8 L 388.6 233.5 L 389.4 233.2 L 390.3 232.9 L 391.9 231.9 L 393.2 231 L 393.4 230.9 L 393.3 231.2 L 393 231.6 L 393 231.6 L 393 231.6 L 393 231.6 Z" />
<path class="lake" d="M 793.7 360.4 L 793.3 360.9 L 793.1 361.1 L 793.2 361.4 L 793.3 361.7 L 793.7 361.8 L 794 361.9 L 794 362.3 L 793.9 362.6 L 793.6 362.7 L 793.2 362.8 L 793 362.6 L 792.6 362.5 L 792.3 362.6 L 791.9 363 L 791.7 363.4 L 791.4 363.9 L 791 364.2 L 790.7 364.1 L 790.2 364 L 789.8 363.9 L 789.7 363.6 L 789.4 363.5 L 788.9 363.5 L 788.5 363.4 L 788.6 362.9 L 788.9 362.5 L 789.1 362.3 L 789.2 361.9 L 789.1 361.4 L 789.7 360.5 L 790.4 359.3 L 790.7 358.3 L 790.9 357.9 L 791.3 357.9 L 792.2 358.2 L 792.8 358.9 L 793.2 359 L 793.8 359 L 794.3 358.9 L 794.7 359 L 794.8 359.3 L 794.6 359.8 L 794.3 360.4 L 794.1 360.4 L 793.7 360.4 L 793.7 360.4 L 793.7 360.4 L 793.7 360.4 Z" />
<path class="lake" d="M 588.9 891.5 L 588.9 891.9 L 588.8 892 L 588.1 892 L 586.6 891.9 L 585.5 891.7 L 585.4 891.2 L 585.5 890.8 L 585.8 890.5 L 587 890.1 L 588.1 890 L 588.5 890.2 L 588.8 890.4 L 588.8 890.7 L 588.8 891.1 L 588.9 891.5 L 588.9 891.5 L 588.9 891.5 Z" />
<path class="lake" d="M 588.4 1003.6 L 586.2 1002.7 L 584.7 1002.2 L 583.6 1002.1 L 583.1 1002.3 L 582.3 1002.4 L 580.9 1002.5 L 579.9 1002.5 L 579.8 1002.4 L 580.2 1002.1 L 580.5 1001.9 L 580.6 1001.5 L 580.3 1001.1 L 580 1000.6 L 580.4 1000.3 L 581 999.8 L 581.6 999.8 L 582.4 1000.2 L 585.9 1001.1 L 588.9 1001.8 L 589.5 1002 L 590.4 1002.5 L 590.8 1003 L 590.8 1003.3 L 590.6 1003.5 L 590.4 1003.7 L 589.8 1003.8 L 588.4 1003.6 L 588.4 1003.6 L 588.4 1003.6 L 588.4 1003.6 Z" />
<path class="lake" d="M 425.7 271.7 L 425.7 272.1 L 425.7 272.9 L 424.9 273.2 L 423.8 273.3 L 423.2 273.3 L 423.3 272.9 L 423.4 272.5 L 423.3 272.2 L 423.1 272 L 422.4 272.1 L 421.4 272.1 L 420.7 271.8 L 420.2 271.3 L 420 270.9 L 420 270.6 L 420.5 270.5 L 421.4 270.3 L 422.2 269.9 L 422.9 269.7 L 423.4 269.8 L 424.1 270.8 L 425 271.6 L 425.5 271.5 L 425.7 271.7 L 425.7 271.7 L 425.7 271.7 L 425.7 271.7 Z" />
<path class="lake" d="M 802.1 708.2 L 801.5 708.4 L 800.8 708.7 L 800.6 709.1 L 800.6 709.5 L 801.2 710.2 L 801.6 710.7 L 801.3 710.6 L 800.5 710.3 L 800 710.3 L 799.8 710.7 L 799.6 711 L 799.7 711.4 L 800.3 712 L 800.5 712.5 L 800.3 713 L 800.1 713.3 L 799.8 713.4 L 799.8 713.7 L 800.8 714.2 L 801.9 714.4 L 801.1 714.7 L 800.2 715 L 799.7 715.2 L 799.1 715.3 L 799.1 715.6 L 799.5 716 L 799.2 716.2 L 798.4 716.2 L 798 716.3 L 797.7 716.6 L 797.4 716.8 L 797 716.7 L 796.8 716.5 L 796.7 715.2 L 797.1 714.8 L 797.8 714.4 L 798.1 713.9 L 798 713.4 L 797.6 713.2 L 797.4 713.1 L 797.4 712.9 L 796.9 712.8 L 795.7 712.6 L 795.3 712.4 L 795.8 712.1 L 797 712.1 L 798 712.2 L 798.2 711.8 L 798.3 711.2 L 798 710.8 L 796.3 710.5 L 794.9 710.2 L 795.2 710.1 L 796 710.1 L 797 710.2 L 798 710.2 L 798.6 709.8 L 798.7 709.3 L 798 708.7 L 798.4 708.2 L 799.5 708 L 799.7 707.6 L 799.7 707.1 L 799.3 706.6 L 799.3 706.2 L 799.7 705.8 L 799.5 705.2 L 799.7 704.7 L 800.3 704.6 L 800.5 704.2 L 800.5 703.6 L 800.1 702.9 L 799.9 702.3 L 800 701.8 L 800.1 701.3 L 800.4 700.9 L 801.1 700.6 L 800.9 701.5 L 801 702.5 L 801.3 703.2 L 801.2 705.3 L 801.2 707.4 L 801.7 707.9 L 802.1 708.2 L 802.1 708.2 L 802.1 708.2 L 802.1 708.2 Z" />
<path class="lake" d="M 501.5 309 L 501.3 309.3 L 501.3 309.5 L 500 309.9 L 499.7 310.2 L 499.5 310.2 L 499.4 310.1 L 499.6 309.8 L 499.9 309.5 L 499.6 309.3 L 499.1 309.1 L 498.8 308.9 L 498.7 309.3 L 498.5 309.8 L 498.3 309.9 L 498.2 310.2 L 498.1 310.5 L 498 310.4 L 497.7 310.3 L 497.5 310 L 497.4 310.1 L 497.4 310.3 L 497.3 310.4 L 497 310.5 L 496.8 310.5 L 496.9 310.2 L 497.5 309.6 L 498.2 308.5 L 498.6 307.6 L 499.3 307.3 L 499.8 306.9 L 499.9 307 L 500 307.4 L 500 307.7 L 499.8 307.9 L 499.5 308.1 L 499.6 308.3 L 499.8 308.5 L 499.9 308.7 L 500.3 309 L 500.7 309.2 L 501 309.2 L 501.4 309.1 L 501.5 309 L 501.5 309 L 501.5 309 L 501.5 309 Z" />
<path class="lake" d="M 820.8 801.1 L 820.5 801.7 L 820 802.4 L 819.6 803.1 L 819.2 803.7 L 818.7 804.5 L 818.3 804.8 L 817.8 805 L 817.3 804.9 L 816.7 804.3 L 816.3 803.8 L 815.8 803.6 L 815.2 803.7 L 814.5 804.1 L 814 805.4 L 813.3 806.6 L 812.6 806.9 L 812.2 806.9 L 811.9 807.1 L 811.6 807.3 L 811.2 807.8 L 810.9 808.7 L 810.7 810.1 L 810.9 811.5 L 810.7 812.2 L 810.2 812.4 L 810 812.5 L 809.8 812.5 L 809.6 812.3 L 809.4 812 L 809.3 811.6 L 809.3 811 L 809.2 810.3 L 809.1 809.5 L 808.9 808.8 L 808.7 808.2 L 808.7 807.5 L 809 806.9 L 809.6 806.2 L 810.4 805.5 L 811.2 805.4 L 811.8 805.1 L 812.2 804.6 L 812.3 804 L 812.3 803.5 L 812.5 803.1 L 812.9 802.8 L 813.5 802.5 L 813.9 802.2 L 814.4 801.8 L 814.9 801.5 L 815.7 801.2 L 816.1 800.4 L 816.5 799.7 L 817.5 799.2 L 818.3 798.8 L 818.3 798.2 L 818.5 797.8 L 818.6 797.3 L 819 796.7 L 819.3 796.5 L 819.5 796.6 L 819.7 796.9 L 819.7 798.3 L 820.1 798.8 L 820.4 799.5 L 820.8 800 L 820.8 800.5 L 820.8 801.1 L 820.8 801.1 L 820.8 801.1 L 820.8 801.1 Z" />
<path class="lake" d="M 601.8 965.4 L 601.3 965.9 L 599.3 966 L 596.4 965.6 L 594.6 965.1 L 592 965.4 L 588.9 966.1 L 585.5 968 L 582.9 969.5 L 582.4 969.9 L 582.3 970.4 L 581.9 971 L 581.3 971.1 L 581.7 970 L 582.7 968.5 L 583.7 967.8 L 584.2 967.1 L 583.8 966.2 L 583.5 965.3 L 583.8 965.1 L 584.4 965.9 L 585.1 966.4 L 586.4 966.2 L 589.2 965.3 L 592.1 964.4 L 593.5 963.7 L 593.4 963.2 L 593.5 963 L 593.8 962.9 L 594.9 963.1 L 596.4 962.7 L 596.6 962.9 L 597 963.5 L 598.6 964 L 600.1 964.4 L 601.2 964.9 L 601.8 965.4 L 601.8 965.4 L 601.8 965.4 L 601.8 965.4 Z" />
<path class="lake" d="M 958.5 526 L 958.5 526 L 958.5 526 L 959.7 527.7 L 959.7 528.1 L 959.4 528.3 L 956.4 528.9 L 955.9 529.8 L 955.8 530.8 L 955.3 531.2 L 954.4 531.3 L 953.4 531.6 L 952 532.3 L 951.1 532.4 L 950.9 532.3 L 949.9 532.6 L 947.9 532.6 L 947.3 532 L 946.5 532.2 L 945.7 532.8 L 944.8 533.4 L 943.7 535 L 943.8 535.7 L 944.9 536.1 L 945.9 536.5 L 946.7 537.5 L 947.2 538.3 L 946.7 538.2 L 946.5 537.7 L 945.8 537.1 L 944.3 536.5 L 943.3 536.5 L 942.9 536.1 L 942.4 536 L 941.8 535.9 L 941.4 537 L 942.8 540.2 L 943.9 542.6 L 943.4 543.5 L 942.9 545.3 L 942.5 545.7 L 942.2 545.9 L 941.8 546.5 L 941.6 546.5 L 942.2 544.6 L 942.9 542.5 L 942.7 541.2 L 942 540.6 L 941.4 539.8 L 940.8 539.6 L 940 540.2 L 939.4 541.2 L 938.5 542.7 L 937.2 544.7 L 937.1 545.1 L 937 547.1 L 936.7 548.2 L 936.1 548.7 L 936 549.5 L 935.5 549.5 L 935.1 549.6 L 934.7 549.4 L 934.2 548.6 L 933.7 548.2 L 933.1 547.8 L 932.2 548.2 L 932 547.9 L 932.7 546.5 L 932.9 545.8 L 933.3 545.6 L 934.3 544.6 L 935.2 543.9 L 934.8 543.2 L 934.6 542.9 L 934 542.6 L 934 542.1 L 934.5 541.8 L 935.1 542.4 L 935.8 543.5 L 936.5 543.5 L 936.9 543.1 L 936.9 542 L 936.4 541.4 L 935.7 540.6 L 935.7 540.2 L 936.1 540.2 L 937.1 540.8 L 937.8 541.1 L 938.3 540.7 L 938.5 540.4 L 937.7 539.4 L 937.6 538.9 L 937.8 538.1 L 938.1 538.3 L 939.1 538.9 L 939.9 538.7 L 939.9 537.9 L 939.5 537.3 L 938.7 535.8 L 936.4 534.7 L 936.1 534.3 L 936.4 534.1 L 936.8 534.2 L 937.1 533.8 L 937.3 534.2 L 937.6 534.4 L 937.8 534.2 L 938.2 534.4 L 938.6 534.7 L 938.7 535.1 L 939 535.6 L 939.3 535.7 L 939.7 535.6 L 940 535.3 L 939.6 534.6 L 939.7 534.1 L 940.2 534.3 L 940.8 534.7 L 941.5 534.6 L 941.7 534.1 L 941.8 533.6 L 942.1 533.2 L 942.3 532.8 L 942.1 532.1 L 941.5 531.3 L 942 531.2 L 943.1 531.2 L 943.4 530.2 L 944.1 530.1 L 944.7 529.9 L 944.8 529.4 L 945.2 529 L 945.7 529 L 946 529.7 L 946.6 530.2 L 948.8 529.6 L 950.5 529.9 L 951.6 529.9 L 952.1 530 L 952.3 529.9 L 953.2 530.3 L 953.6 530.1 L 953.9 529.9 L 954.4 530 L 954.9 529 L 954.9 528.1 L 954.4 527.2 L 954.6 527 L 955.3 527.3 L 955.4 527.1 L 955.3 526.6 L 955.3 526.3 L 956 526.4 L 956.8 526.3 L 957 525.8 L 957.2 525.2 L 957 524.7 L 957 524.4 L 957.1 523.6 L 957.2 523 L 957.8 523.2 L 958 523.4 L 958.3 523.6 L 958.1 525 L 958.5 526 Z M 936.3 546.1 L 936.3 546.1 L 936.3 546.1 L 935.7 545.8 L 935.8 545.4 L 936.2 545 L 936.6 544.7 L 936.5 544.5 L 935.7 544.7 L 935.2 545.4 L 934 545.9 L 934 546.1 L 935.1 545.9 L 935.4 546.2 L 934.9 547 L 934.7 547.5 L 935 547.9 L 935.4 548.3 L 935.7 548.2 L 936.2 547.5 L 936.3 546.1 Z" />
<path class="lake" d="M 854.8 469 L 854.8 469 L 854.8 469 L 854.8 469 L 853.6 468.8 L 853.4 468.6 L 853 467.8 L 853.1 467.5 L 853.6 467.1 L 853.6 466.3 L 853.6 466.1 L 854.3 465.4 L 854.4 464.7 L 854.7 464.3 L 854.7 463.5 L 854.8 462.3 L 855.1 462.1 L 855.8 462.2 L 856.2 463.5 L 856.8 465.5 L 857 466.7 L 857 467 L 857.3 467.3 L 857.9 468.2 L 858.1 469.3 L 858.1 469.8 L 859.1 471.1 L 859.7 472 L 859.5 472.6 L 859.9 473.4 L 859.8 473.9 L 859.1 474.4 L 859.2 475.1 L 859.9 477.7 L 861.1 479 L 863.6 479 L 863.9 479.4 L 863.5 479.7 L 861.2 480.4 L 859.9 479.3 L 859 478 L 858.3 476.3 L 856.9 474 L 856.7 472.7 L 856.2 471.7 L 855.2 471.3 L 854.8 471 L 855.2 470.4 L 855.5 469.7 L 855.2 469.2 L 854.8 469 Z" />
<path class="lake" d="M 910.7 638.3 L 910.7 638.3 L 910.7 638.3 L 910.7 638.3 L 911 638.4 L 911.1 638.8 L 911.5 639 L 911.3 639.2 L 910.7 639.1 L 909.8 638.8 L 909 638.9 L 908.8 639.1 L 908.9 639.5 L 909.4 640.9 L 909.3 641.5 L 909 641.2 L 908.5 640.3 L 908 640.4 L 907.8 640.4 L 906.7 640.6 L 905.7 640.9 L 905.7 640.1 L 905.8 640 L 907.4 639.8 L 907.9 639.5 L 908 638.9 L 907.8 638 L 907.6 638 L 907.4 639 L 907 639.1 L 906.3 638.8 L 906.3 638.5 L 906.9 638.1 L 907.3 637.1 L 907.3 636.4 L 907 636.4 L 906.1 636.9 L 906 636.6 L 906.2 636.4 L 906.4 636.2 L 906.8 635.5 L 906.6 635 L 906 634.8 L 905.6 635.2 L 905.3 635.6 L 904.7 635.7 L 904.3 636 L 904.4 635.5 L 904.7 634.7 L 905.2 634.2 L 906.2 633.7 L 906.2 633.3 L 906.5 632.6 L 906.5 632.3 L 905.9 632.2 L 906.1 631.9 L 907 631.4 L 907.3 631.5 L 907.6 631.8 L 907.4 632.6 L 907 634 L 907.3 634.7 L 907.8 634.8 L 908.1 635.1 L 908.2 635.8 L 908.2 636.2 L 908.6 636.1 L 908.8 636.2 L 908.7 636.6 L 908.5 637.2 L 908.6 637.7 L 909.2 638.2 L 909.9 638 L 910.1 637.6 L 910.3 637.8 L 910.5 638.1 L 910.7 638.3 Z" />
<path class="lake" d="M 834.7 657.7 L 834.7 657.7 L 834.7 657.7 L 834.7 657.7 L 834.6 657.3 L 834.7 657.1 L 834.9 656.8 L 834.4 656 L 834.6 655.7 L 835.1 655.9 L 835.9 656 L 836.4 655.7 L 837.5 655.7 L 837.8 655.5 L 837.6 654.8 L 837.8 654.4 L 838.4 654.8 L 838.7 654.7 L 839 653.8 L 839 652.8 L 839 650.1 L 839.2 649.3 L 839.6 648.7 L 840 649.4 L 840.1 651.6 L 840.2 652.4 L 841.9 651.9 L 843.5 650.8 L 844.5 650.5 L 843.5 652 L 842.1 652.6 L 841.4 653 L 840.4 653.7 L 839.8 654.7 L 839.9 655.4 L 840.4 655.8 L 840.6 656.4 L 839.8 656.3 L 839.2 656.5 L 838.5 656.6 L 838.3 656.6 L 837.9 656.8 L 837.2 657 L 836.7 657.3 L 837.5 658.1 L 838.8 658.7 L 838.8 658.9 L 837.3 658.5 L 836 657.9 L 835.3 658 L 834.9 657.9 L 834.7 657.7 Z" />
<path class="lake" d="M 584.8 896.2 L 584.8 896.2 L 584.8 896.2 L 584.8 896.2 L 585.6 895.8 L 587.4 895.8 L 587.7 896 L 587.6 896.3 L 586.5 896.8 L 585.3 896.6 L 584.8 896.2 Z" />
<path class="lake" d="M 631.2 952.4 L 631.2 952.4 L 631.2 952.4 L 631.2 952.4 L 631.3 952.9 L 631.6 953.5 L 632.1 953.9 L 632.4 954.1 L 632.5 954.6 L 632.1 955 L 630.8 955.2 L 629.2 955 L 628.3 953.7 L 627.8 952.7 L 627.7 951.2 L 627.7 950.8 L 628.1 950.5 L 628.8 950.9 L 629 952 L 629.3 952.3 L 629.7 952.3 L 630.1 951.7 L 630.9 951.8 L 631.2 952.4 Z" />
<path class="country" d="M 811.6 815 L 808.3 808.3 L 813.5 802.7 L 806.7 794.7 L 797.5 788.2 L 785.3 780.6 L 781 781 L 769.1 771.9 L 761.5 773.1 L 777.2 757 L 790.5 745.6 L 798.4 740.8 L 808.4 734.3 L 808.6 724.9 L 802.7 718.1 L 796.9 720.3 L 799.2 713.5 L 800.8 706.6 L 800.8 700.1 L 796.5 697.9 L 792.1 699.8 L 787.7 699.3 L 786.3 694.8 L 785.2 684 L 783 680.4 L 775.1 677.3 L 770.3 679.6 L 757.8 677.3 L 758.6 661.3 L 755.1 654.7 L 758.8 652.3 L 757.7 645.6 L 760.9 640.4 L 763 631.1 L 760.2 623.8 L 753.8 620.5 L 752.5 615.8 L 754.2 609 L 731.6 608.5 L 727.1 594.8 L 730.5 594.6 L 730.4 589.5 L 728.1 586.1 L 727.5 579.3 L 720.7 575.8 L 713.3 575.9 L 708.4 572.5 L 700.4 570.1 L 695.8 565.7 L 682.6 563.8 L 669.8 553.2 L 670.7 545.3 L 669.3 540.8 L 670.5 531.9 L 655.1 533.9 L 648.9 538.4 L 638.6 543.1 L 636 546.7 L 629.9 547 L 621.1 546 L 614.5 548 L 609.1 546.6 L 609.9 528.7 L 600.2 535.7 L 589.8 535.4 L 585.4 529.1 L 577.5 528.4 L 580 523.3 L 573.5 516.2 L 568.6 505.6 L 571.7 503.4 L 571.7 498.4 L 578.8 495 L 577.6 488.6 L 580.6 484.5 L 581.5 479 L 595 471 L 604.6 468.7 L 606.2 467 L 616.8 467.5 L 622.1 435.2 L 622.4 430.1 L 620.6 423.3 L 615.3 419 L 615.4 410.5 L 622 408.5 L 624.4 409.7 L 624.8 405.2 L 617.9 404 L 617.7 396.6 L 640.7 396.9 L 644.6 392.8 L 647.9 396.6 L 650.2 403.5 L 652.4 402.1 L 658.9 408.3 L 668.1 407.5 L 670.3 403.9 L 679.1 401.2 L 684 399.2 L 685.3 394.2 L 693.8 390.9 L 693.1 388.4 L 683.1 387.4 L 681.5 380 L 682 372.1 L 676.7 369 L 678.9 367.9 L 687.6 369.4 L 697 372.4 L 700.4 369.6 L 708.9 367.8 L 722.1 363.3 L 726.4 358.8 L 724.8 355.5 L 731 355 L 733.7 357.7 L 732.2 362.9 L 736.2 364.7 L 738.9 370.2 L 735.7 374.3 L 733.8 384.4 L 736.8 390.3 L 737.7 395.8 L 744.9 401.3 L 750.7 401.9 L 752 399.6 L 755.7 399.1 L 761.1 397 L 764.9 393.9 L 771.4 394.9 L 774.3 394.4 L 780.7 395.4 L 781.8 393 L 779.8 390.7 L 781 387.2 L 785.7 388.3 L 791.3 387.1 L 798 389.6 L 803.2 392 L 806.8 388.8 L 809.5 389.3 L 811.1 392.6 L 816.7 391.8 L 821.2 387.3 L 824.9 378.6 L 831.8 367.8 L 835.9 367.3 L 838.8 373.8 L 845.4 394.4 L 851.7 396.4 L 852 404.5 L 843.1 414.2 L 846.8 417.8 L 867.7 419.6 L 868.1 431.4 L 877 423.7 L 891.9 427.9 L 911.5 435.1 L 917.2 442 L 915.3 448.6 L 929 444.9 L 951.9 451.2 L 969.6 450.7 L 987 460.5 L 1002 473.7 L 1011.1 477.1 L 1021.2 477.6 L 1025.5 481.3 L 1029.5 496.3 L 1031.4 503.4 L 1026.7 522.9 L 1020.7 530.6 L 1004.1 547 L 996.6 560.3 L 987.9 570.6 L 984.9 570.8 L 981.6 579.5 L 982.5 601.6 L 979.2 619.7 L 977.9 627.5 L 974.2 632.2 L 972.1 647.9 L 960.2 663.3 L 958.2 675.5 L 948.6 680.6 L 945.9 687.7 L 933 687.6 L 914.5 692.2 L 906.2 697.4 L 893 700.9 L 879.1 710.3 L 869.1 722 L 867.4 730.8 L 869.4 737.3 L 867.2 749.2 L 864.5 754.9 L 856.3 761.4 L 843.2 782.2 L 832.8 791.5 L 824.8 797 L 819.4 808.3 L 811.6 815 Z" />

<path class="river" d="M 917.6 669.9 L 914.9 668.2 M 907.9 665.5 L 907.4 665.5 L 907.1 665.2 L 906.4 664.9 L 905.1 664.6 L 903.5 663.5 L 901.7 661.5 L 900.4 660.7 L 899.7 661.1 L 899.1 661.1 L 898.8 660.7 L 897.6 660.6 L 894.7 660.5 M 885.9 656 L 889.8 658.3 L 891.3 659.3 L 891.6 660 M 839.7 653.9 L 844.5 650.5 M 858.6 652.4 L 847.1 651" />
<path class="river" d="M 501.3 309.5 L 500.5 309.4 L 499.9 308.9 L 498.6 307.6" />
<path class="river" d="M 845.6 641.1 L 845.5 640.3 L 846 639.4 L 847.1 638.1 L 848.5 637.2 L 850.3 636.6 L 851.9 636.3 L 853.9 636.3 M 872.3 633.1 L 863.7 632.9 L 861.9 633.7 M 881.5 631.1 L 877.5 633.5 L 875.8 634.3 L 874.8 634.2" />
<path class="river" d="M 797 716.7 L 798.6 714.2 L 799.1 713 L 798.9 712.4 L 799.4 710 L 800.5 706 L 800.9 703.4 L 800.5 702.2 L 800.5 701.3 L 801.1 700.6 M 828.6 669.4 L 828.3 670 L 827.9 670.3 L 827.2 670.5 L 827 671 L 827 671.8 L 826.4 672.9 L 824.9 674.4 L 823.8 675.7 L 823.1 677.1 L 821.1 678.7 L 816.5 681.6 M 839.6 648.7 L 839.7 653.9 L 838.8 655.3 L 837.7 656.3 L 834.9 657.9" />
<path class="river" d="M 441.4 285.8 L 439 284.7 L 435.7 281.8 L 428.4 274.2" />
<path class="river" d="M 909.3 641.5 L 908.3 638.5 L 908 636 L 907.4 635 L 906.5 634.5 L 906.4 633.6 L 907.3 631.5 M 932.2 548.2 L 933.3 546.4 L 934.6 545.2 L 936.5 544.1 L 938.3 542.3 L 939.8 539.8 L 940.5 538 L 940.4 536.8 L 941 535.8 L 942.2 535 L 943.3 533.7 L 944.2 532 L 946.8 531.2 L 951 531.1 L 953.6 530.9 L 954.5 530.5 L 955.4 529.7 L 956.3 528.3 L 957.5 527.7 L 959.7 528.1" />
<path class="river" d="M 855.1 462.1 L 855.6 466.5 L 856.7 470.4 L 858.6 475.4 L 859.9 478.4 L 860.7 479.4 L 861.8 479.7 L 863.9 479.4" />
<path class="river" d="M 820 435.1 L 817.5 435.8 L 816 436.5 L 814.3 437.6 L 811.8 438.5 L 808.5 439.1 L 806.1 439.9 L 804.6 440.9 L 803.7 442.1 L 803.5 443.6 L 802 444.6 L 798.7 445.6 L 798 445.6 L 797.6 445.6 L 796.7 445.4 L 796.3 444.7 L 796.3 443.4 L 796 442.6 L 795.6 442.2 L 794.9 441.8 L 793.9 441.5 L 792.9 441.6 L 791.9 442.4 L 790.7 442.5 L 789.3 442.1 L 788 441.4 L 787 440.3 L 786.4 439.8 L 785.9 439.5 L 785.3 439.5 L 784.5 439.6 L 783.8 440 L 782.5 440.3 L 780.9 440.5 L 779.1 441.4 L 777.3 442.9 L 775.9 444.4 L 775 445.8 L 774.2 446.6 L 773.5 447 L 772.7 447.2 L 771.7 447.3 L 770.7 447.1 L 769.4 446.6 L 768.3 446.6 L 767.2 446.9 L 766 446.6 L 764.7 445.7 L 763.7 445.2 L 762.9 445.1 L 761.7 446.1 L 760.1 448.2 L 758.4 449.7 L 756.7 450.4 L 755.5 451.7 L 754.9 453.6 L 754.3 454.6 L 753.9 454.7 L 753.3 454.7 L 752.6 454.6 L 751.7 454.4 L 750.6 454.6 L 749.5 455.8 L 748.9 456.2 L 747.6 456.3 L 746.6 456 L 745.5 455.4 L 744.2 455 L 742.7 454.9 L 740.8 454.4 L 738.4 453.5 L 736.6 453.1 L 735.4 453.3 L 734.7 453.7 L 734.6 454.2 L 734.4 454.6 L 734 455 L 732.2 455.8 L 731.1 456 L 730.2 455.8 L 728.6 455.7 L 726.4 456 L 724.7 456.9 L 723.4 458.6 L 721.3 459.4 L 718.4 459.5 L 716.2 460.2 L 714.6 461.6 L 713.2 462.6 L 712 463.2 L 711.2 463.4 L 709.8 462.8 L 706.6 461.2 L 705.6 460.7 L 705.3 460.7 L 704.9 460.8 L 704.6 461.7 L 703.5 462.2 L 701.6 462.6 L 699.7 463.3 L 697.9 464.4 L 697 464.9 L 696.3 464.8 L 696 464.4 L 695.6 463.7 L 694.8 463.1 L 692.8 462.5 L 691.4 462.3 L 690.4 462.5 L 689.3 462.4 L 688 462.2 L 685.9 461.2 L 682.9 459.7 L 680.9 458.4 L 679.5 456.9 L 677 454.8 L 675.6 453.7 L 673.7 451.9 L 672.4 450.3 L 671.1 449.2 L 669.9 448.8 L 669.1 448.2 L 668.9 447.7 L 667.9 447.4 L 665.6 447.5 L 663.9 446.2 L 663 445.9 L 662.3 446.1 L 661.6 446 L 660.9 445.6 L 660.3 445.8 L 659.6 446.7 L 658.8 446.7 L 658 446 L 657.2 445.6 L 656.5 445.5 L 656 446.1 L 655.7 447.4 L 655.2 448.2 L 654.4 448.6 L 653.3 448.8 L 651.8 449 L 650 448.6 L 647.9 447.7 L 646.4 447.8 L 645.6 448.8 L 644.2 449.6 L 642.3 450.3 L 641 451.4 L 640 453.5 L 640 454.8 L 639.8 455.5 L 639.3 456.1 L 638 456.1 L 636 455.8 L 632.1 456.3 L 626.4 457.5 L 623.2 458.7 L 622.7 459.9 L 622.5 461.2 L 622.6 462.6 L 622.4 463.7 L 621.7 464.6 L 621.7 465.3 L 622.2 465.9 L 622 466.6 L 620.8 467.5 L 619.3 467.9 L 617.4 467.9 L 616.2 467.4 L 616 466.8 L 615.4 465.9 L 614.5 465.1 L 613.6 464.6 L 613.2 463.9 L 612.7 462.6 L 612.1 462.2 L 611.6 461.8 L 611.1 461.9 L 610.6 462.2 L 609.8 462.5 L 609.3 462.4 L 609 462.5 L 605 463.5 L 603.1 463.8 L 602.2 463.6 L 601.5 462.9 L 600.4 462.5 L 599 462.4 L 597.6 462 L 596.4 461.2 L 595.7 459.9 L 595.3 458 L 594.9 456.9 L 594.5 456.4 L 593 456.7 L 590.5 457.7 L 588.5 458.1 L 586.4 457.9 L 583.2 457.6 L 581.5 457.7 L 580.2 458.1 L 579.1 458.8 L 578.1 459.8 L 577.7 461.4 L 578 463.8 L 577.9 465.2 L 577.6 465.5 L 577 465.6 L 576.3 465.4 L 575.9 465.6 L 575.9 466.2 L 575.7 466.7 L 575.1 467.3 L 574.7 468 L 574.4 469.2" />
<path class="river" d="M 814.7 627.4 L 813.5 622.1 L 813.6 620.8 L 814.2 619.7 L 815.1 618.4 L 815.6 617.2 L 815.7 616.2 L 816.7 615.1 L 818.5 613.8 L 819.8 612.3 L 820.6 610.5 L 821.4 609.4 L 822.3 608.8 L 822.7 608.1 L 822.6 607.1 L 822.9 606.5 L 823.5 606.2 L 824.2 605.6 L 824.8 604.7 L 826.1 604 L 828.3 603.4 L 829.6 602.5 L 830.2 601.4 L 830.4 600.7 L 830.3 600.3 L 830.5 599.9 L 831 599.5 L 831.4 598.5 L 831.8 596.8 L 832.6 595.4 L 834 594.2 L 835.2 594 L 836.2 593.7 L 836.7 593.8 L 837.4 593.4 L 838.3 591.8 L 839.9 587.4 L 840.3 584.3 L 840.7 583.2 L 841.2 583 L 841.3 581.9 L 841.2 579.6 L 842 577.3 L 843.5 575 L 844.3 573.1 L 844.4 571.7 L 844.7 570.3 L 845.7 568.3 L 844.7 568 L 844.2 567.3 L 843.7 566.2 L 843.6 564.9 L 844 563.5 L 843.9 561.7 L 843.5 559.7 L 843.4 558.2 L 843.7 557.4 L 843.6 556.6 L 842.9 555.4 L 843.5 554.2 L 843.5 553.3 L 842.9 552.2 L 843 550.6 L 843.8 548.5 L 844.2 546.5 L 844.3 544.1 L 844.3 542.9 L 844.9 541.4 L 846 539.3 L 846.6 537.8 L 846.7 536.8 L 847.4 535.2 L 849.3 531.6 L 850.4 527.9 L 851.6 525.6 L 853.4 523.2 L 854.8 521.7 L 856 521.1 L 857.3 519.5 L 858.8 516.9 L 859.9 514.7 L 860.5 512.8 L 860.9 511.1 L 861.2 509.6 L 860.6 508.2 L 859.2 507 L 859.2 505.4 L 860.4 503.3 L 860.9 501.3 L 860.7 499.4 L 862.2 497.7 L 865.5 496.1 L 867.3 494.6 L 867.6 493.3 L 868.1 492.5 L 868.8 492 L 869.4 491.7 L 870.1 491.8 L 870.4 491.2 L 870.1 490 L 870.4 489.3 L 871.2 488.9 L 871.5 488.4 L 871.2 487.7 L 871.4 487.2 L 872 486.9 L 872.1 486.3 L 871.7 485.2 L 871.9 484.3 L 872.8 483.7 L 873.1 483.1 L 872.7 482.5 L 872.2 482.1 L 871.7 482 L 871.2 481.5 L 870.8 480.8 L 870 480.5 L 868.9 480.6 L 867.9 480.5 L 866.4 480 L 863.9 479.4" />
<path class="river" d="M 845.7 568.3 L 846.8 565.6 L 847.9 564.1 L 849.5 562.9 L 850.2 562 L 850 561.5 L 850.1 560.8 L 850.7 559.4 L 851 559.1 L 851.4 559 L 852 559.2 L 852.4 558.7 L 852.6 557.7 L 852.5 556.8 L 852.2 556.2 L 852.2 554.7 L 852.7 552.5 L 852.7 551.2 L 852.3 551 L 852.2 550.3 L 852.3 549.1 L 852.1 547.8 L 851.7 546.5 L 851.6 543.9 L 851.9 539.9 L 851.8 537 L 851.3 535.2 L 850.8 534.3 L 850.3 534.2 L 849.9 533.8 L 849.5 533.3 L 849.3 532.6 L 849.3 531.6" />
<path class="river" d="M 688.9 383.3 L 689.8 381.5 L 689.9 380.6 L 689.4 380.1 L 689.1 379.5 L 689.2 378.8 L 688.9 376 L 689.3 374.4 L 690.4 373.2 L 691.7 373 L 693.5 374 L 694.7 374.2 L 695.4 373.7 L 695.9 374 L 696.2 375.1 L 696.8 376.1 L 697.6 376.8 L 699.7 377.9 L 703 379.2 L 705.4 379.8 L 706.9 379.7 L 708 379.4 L 708.6 378.8 L 709.3 378.5 L 710.2 378.6 L 711.1 378.3 L 712 377.7 L 713.2 377.5 L 714.8 377.7 L 715.8 377.6 L 716.4 377.3 L 717.5 377.2 L 718.2 377 L 718.7 376.5 L 720.6 376.1 L 723.7 376 L 725.6 376.1 L 726.2 376.5 L 726.8 377.7 L 727.3 379.7 L 726.7 382.1 L 725 384.7 L 724 386.9 L 723.9 388.5 L 723.2 389.9 L 722 391.1 L 721.3 391.9 L 721.2 392.3 L 721.4 392.9 L 721.9 393.6 L 721.4 394.9 L 719.9 396.5 L 718.7 399.5 L 717.8 403.7 L 716.3 407.2 L 714.2 410.1 L 712.8 413.9 L 712 418.7 L 711.7 421.8 L 712.1 423.6 L 711.5 426.2 L 711.3 428.1 L 711.5 430.3 L 711.5 431.8 L 711.3 433.2" />
<path class="river" d="M 600.9 874 L 602.3 873 L 602.3 872 L 600.9 869.8 L 600.2 869.1 L 599.9 868.2 L 599.8 866.9 L 599.1 865.9 L 597.6 865 L 596.5 863.9 L 595.7 862.8 L 594.9 862 L 594 861.6 L 593 861.5 L 591.8 861.7 L 590.9 861.6 L 590.2 860.8 L 589 860.1 L 587.8 859.8 L 586.3 859.7 L 585.2 859.4 L 584.5 858.9 L 583.8 857.9 L 583.3 856.4 L 582.5 855.5 L 581.5 855.2 L 580.9 854.5 L 580.7 853.3 L 580.2 852.2 L 579.5 851.3 L 578.9 850.8 L 578.6 850.7" />
<path class="river" d="M 538.5 401.2 L 538.5 403.4 L 538.8 404.4 L 539.9 405 L 541.7 405.3 L 543.1 405.2 L 544.7 404.8 L 545.8 405.1 L 546.5 406 L 548.5 406.9 L 551.8 407.7 L 553.6 408.9 L 554.2 410.3 L 555 411.1 L 556.1 411.2 L 556.8 411.9 L 557 413.1 L 557.9 414 L 559.5 414.7 L 560.4 415.7 L 560.5 416.9 L 560.9 417.7 L 561.5 418 L 562.2 418.1 L 563 417.9 L 563.6 417.9 L 564.2 418.2 L 564.8 418.6 L 565.3 419.2 L 566.5 419.9 L 568.2 420.8 L 569.8 421.2 L 571.1 421.3 L 572 421.6 L 572.8 422.3 L 574.1 422.9 L 575 423.1 L 576 422.9 L 576.8 423.2 L 577.5 423.7 L 578.4 423.7 L 579.6 423.3 L 580.6 423.3 L 581.2 423.7 L 582 423.8 L 582.7 423.6 L 583.7 423.8 L 584.8 424.5 L 585.8 424.5 L 586.6 423.8 L 587.3 423.6 L 587.9 424 L 588.6 424 L 589.5 423.5 L 590.4 423.8 L 591.1 425.1 L 592.1 425.9 L 593.4 426.2 L 594.3 426.8 L 594.9 427.6 L 595.8 428 L 596.9 428 L 597.4 428.4 L 597.2 429.1 L 597.3 429.6 L 597.6 429.9 L 598.2 429.9 L 599.3 429.7 L 601.1 429.4 L 602.3 429.8 L 603.4 430.8 L 604.4 431.5 L 605.5 431.7 L 606.4 432.2 L 607.2 433 L 608.2 433.5 L 609.3 433.8 L 610.4 433.8 L 611.4 433.6 L 612.6 433.8 L 613.9 434.6 L 614.8 434.9 L 615.2 434.8 L 615.9 433.8 L 616.8 431.9 L 617.9 431.2 L 619.1 431.6 L 620.3 431.6 L 621.2 431.3 L 621.9 431.3" />
<path class="river" d="M 364.7 239.8 L 364.9 238.1 L 364.4 237.2 L 364.5 236.8 L 364.9 236.6 L 367.4 236.3 L 369.4 236.6 L 371.8 237.2 L 373.2 237.3 L 373.9 236.6 L 374.1 236.2 L 373.5 235.9 L 372.1 235.5 L 371.8 234.9 L 372.4 234.2 L 372.5 233.4 L 372.2 232.6 L 371.7 232.2 L 370.9 232 L 370.4 231.8 L 370.2 231.3 L 370.4 230.3 L 371.1 228.8 L 372.2 228 L 373.8 227.9 L 374.5 227.3 L 374.3 226.3 L 374.4 225.1 L 374.8 224 L 374.8 223.6" />
<path class="river" d="M 601.2 930.7 L 602.7 931 L 603.6 930.5 L 604.9 928.5 M 605 928.5 L 606 925 L 606.8 923.6 L 607.7 923.3 L 608.2 922.7 L 608.3 921.9 L 608.7 921.1 L 609.5 920.3 L 610.1 919.7 L 610.8 919.4 L 612.7 919.3 L 615.9 919.5 L 618.1 919.6 L 619.3 919.9 L 621.4 921.7 L 624.4 925.2 L 625.8 927.4 L 625.5 928.5 L 625.6 929.1 L 626 929.6 L 627.6 930.7 L 628.5 931.7 L 629.2 933 L 630.1 933.5 L 631.3 933.3 L 632.7 933.4 L 634.3 933.8 L 637.9 933.6 L 646.7 932.3 L 647.3 932.3 L 647.8 932.6 L 648.3 933.2 L 649.1 933.7 L 650.1 933.8 L 652.4 933.7 L 656.6 933.3 L 656.9 933.2 L 657.3 932.9 L 657.3 932.6 L 657.3 932.2 L 657.5 931.8 L 658.5 931.1 L 659.5 930.7 L 661.5 930 L 662.9 929.3 L 663.9 928.5 L 665.2 928 L 666.8 927.9 L 668 927.6 L 668.9 927.2 L 670.5 927.2 L 674 927.8" />
<path class="river" d="M 417 258.6 L 419.4 257.5 L 421.1 256.4 L 422.1 256.1 L 422.8 256.2 L 423.6 256.8 L 424.4 257.8 L 425.2 258.1 L 426 257.7 L 426.9 257.6 L 427.7 257.7 L 428.6 256.7 L 429.6 254.6 L 430.1 253.2 L 430.1 252.6 L 430.7 252 L 431.9 251.4 L 433.1 250.5 L 434.3 249.1 L 435.4 248.3 L 436.3 248.1 L 436.6 247.7 L 436.4 247.2 L 436.4 246.5 L 436.8 245.6 L 437.3 245 L 438 244.9 L 438.3 244.6 L 438.1 244.2 L 438.3 243.7 L 438.9 242.9 L 440.4 242.2 L 441.2 242.4 L 441.9 243.4 L 442.9 244 L 444.2 244.3 L 445.2 244.2 L 445.9 243.6 L 446.5 243.4 L 447.1 243.7 L 447.4 243.5 L 447.4 243.1 L 447.7 242.9 L 448.2 243.2 L 448.7 243.3 L 449.1 243.1 L 449.3 242.9 L 449.4 242.7 L 449.7 242.5 L 450.8 242.7 L 452.1 242.4 L 453.4 241.7 L 454.3 241.3 L 454.8 241.4 L 455.3 241.1 L 456 240.2 L 457.4 239.9 L 460.4 240.1" />
<path class="river" d="M 674.9 874.4 L 679.3 874.8 L 681.7 875.2 L 683.6 875.8 L 686.4 877.1 L 690.2 879.2 L 692.7 880.4 L 694.1 880.6 L 695.6 881.2 L 697 882 L 699.1 882.6 L 701.7 882.9 L 703.8 883.9 L 706.3 886.4 L 706.6 886.7 L 706.9 887.1 M 612 832.9 L 612.9 836.5 L 613.6 838 L 614.7 839.1 L 617.2 839.7 L 618.4 840.9 L 619.2 843 L 619.5 844.4 L 619.2 845.1 L 619.2 846.1 L 619.4 847.3 L 619.2 848.3 L 618.5 849.2 L 618.1 850.5 L 617.9 852.2 L 618 853.3 L 618.4 853.9 L 619.1 854.4 L 620 854.8 L 621.9 855.2 L 624.7 855.3 L 626.5 855.9 L 627.2 856.9 L 628.9 857.6 L 631.6 858.1 L 633.2 858.6 L 633.8 859.2 L 635.9 859.7 L 639.6 860.2 L 641.7 860.9 L 642.3 861.8 L 642.1 862.8 L 641.2 863.7 L 640.7 864.5 L 640.8 865.2 L 641.2 865.6 L 641.9 865.7 L 642.8 866.3 L 643.9 867.4 L 645.5 867.9 L 647.7 867.6 L 649.2 868.1 L 649.8 869.2 L 651 870 L 653.7 871 L 655 871.5 L 655.6 872.1 L 655.9 872.8 L 656.6 873.3 L 657.6 873.5 L 661.9 873.6 L 664 873.9 L 665.6 874.3 L 666.8 874.4 L 667.5 874.2 L 668.5 874.2 L 669.6 874.6 L 671.3 874.7 L 674.8 874.4 M 88.3 31 L 87.5 32.9 L 86.9 33.6 L 86.2 33.8 L 85.5 34.6 L 84.7 36.1 L 83.9 37 L 83 37.5 L 82.6 38.1 L 82.7 38.8 L 82.8 39 L 82.9 39 L 83.2 39.1 L 83.5 39.7 L 83.9 39.9 L 84.6 39.9 L 84.9 40.2 L 85.2 40.5 L 85.8 40.7 M 94.8 13 L 92.9 14.3 L 91.8 15.3 L 90.8 17.1 L 90.9 18.5 L 90.9 19.6 L 90.6 20.6 L 90.2 21.4 L 89.7 22.2 L 89.1 22.7 L 88.5 22.8 L 88.3 23.8 L 88.5 25.7 L 89.1 26.9 L 90.3 27.3 L 91 27.9 L 91.2 28.8 L 91.1 29.6 L 90.7 30.4 L 89.9 30.9 L 88.3 31 M 89.8 0 L 89.6 4.2 L 89.6 5.2 L 90.2 6.6 L 92.1 9 L 92.3 9.6 M 88 -7.8 L 88.1 -7.4 L 88.7 -6.7 L 88.7 -5.4 L 88.8 -4.5 L 89.1 -3.9 L 89.2 -3.3 M 110 -10.9 L 106.1 -9.1 L 105.1 -8.2 L 104.7 -7.6 L 104.8 -5.7 L 104.4 -4.9 L 103.6 -4.8 L 101.7 -5.3 L 101.1 -5.6 M 126.6 -18.6 L 125.2 -17.7 L 124.1 -16.5 L 122.8 -14.7 L 122.1 -13.4 L 121.8 -12.5 L 121.9 -11.4 L 122.4 -10.1 L 122.3 -9.1 L 121.6 -8.6 L 120.4 -8.5 L 118.6 -8.8 L 117.3 -9.4 L 116.6 -10.2 L 115.9 -10.5 L 115.4 -10.3 L 114.9 -10.3 L 114.5 -10.6 L 114.5 -11 L 114.8 -11.6 L 114.8 -12 L 114.6 -12.2 L 114.1 -12.4 L 113.3 -12.4 L 112.2 -12 L 110 -10.9 M 192.7 -56.7 L 191.3 -56.3 L 189.6 -55.9 L 187.7 -55.9 L 186.4 -55.5 L 185.4 -55 L 184.1 -53.9 L 183.6 -53.6 L 183.1 -53.5 L 182.5 -53.9 L 181.7 -53.9 L 180.8 -53.7 L 179.7 -52.8 L 178.5 -51.3 L 177.7 -50.6 L 176.5 -50.1 L 172.9 -49.8 L 170.7 -49.8 L 169.3 -49.6 L 168.2 -49 L 166.3 -47.8 L 164.7 -46.7 L 163.8 -45.1 L 162.4 -44.2 L 160.9 -44.1 L 158.1 -45.2 L 157.3 -45.4 L 156.3 -45.3 L 155.1 -44.7 L 153.4 -43.4 L 152.6 -42.2 L 152.1 -40.8 L 151.4 -39.9 L 150.6 -39.5 L 149.8 -38.9 L 149.2 -38.1 L 148.7 -37.7 L 148.5 -37.8 L 148.2 -37.7 L 148.1 -36.9 L 147.8 -36.6 L 147.5 -36.5 L 147.2 -36.1 L 147 -35.3 L 146.5 -34.5 L 145.1 -33.2 L 142.4 -30.8 L 141 -30 L 139.6 -30 M 192.9 -59.6 L 193.3 -57.3 L 193.2 -57" />
<path class="river" d="M 797 593.5 L 800 592.5 L 801.3 591.8 L 801.8 591 L 802.6 590.8 L 803.8 591.2 L 804.6 591.2 L 805.5 590.9 L 808.2 588.9 L 810 586 L 811.6 581.5 L 812.9 578.8 L 813.7 577.8 L 814.1 577 L 814.1 576.4 L 815.1 574.2 L 816.9 570.3 L 817.5 567.8 L 816.7 566.7 L 816.4 565.9 L 816.6 565.5 L 816 564.4 L 814.5 562.6 L 813.5 561.5 L 812.8 561.1 L 812.1 560.2 L 811.4 558.9 L 810.6 557.9 L 809.7 557.4 L 809.2 556.5 L 809 555.4 L 809.3 554 L 810.8 551.8" />
<path class="river" d="M 646.7 798.8 L 648.2 802.1 L 648.6 803.6 L 648.4 804.5 L 648.5 806.5 L 648.9 809.5 L 650.3 812.9 L 652.7 816.6 L 653.9 818.8 L 653.8 819.6 L 653.6 820 L 653.2 820.3 L 653.1 820.9 L 653.1 821.8 L 653.4 822.9 L 653.8 824.3 L 654.5 825.7 L 655.5 827.1 L 656.2 828.6 L 656.6 830.2 L 656.4 833.6 L 655.8 838.8 L 654.7 842.2 L 653.4 843.8 L 652.9 846 L 653.3 848.8 L 653.4 850.7 L 653 851.8 L 653 853 L 653.4 854.3 L 653.4 855.1 L 652.9 855.5 L 653.5 856.1 L 655.1 856.9 L 656.3 857.9 L 657.3 859 L 658.4 859.5 L 659.4 859.6 L 660.2 860.2 L 660.8 861.6 L 661.9 862.5 L 663.8 863 L 664.8 863.9 L 665.1 865.2 L 664.9 866 L 664.3 866.3 L 663.8 866.8 L 663.4 867.6 L 663.8 868.2 L 665 868.7 L 665.8 869.3 L 666.1 869.9 L 667.1 870.7 L 668.7 871.6 L 670.8 872.7 L 674.9 874.4" />
<path class="river" d="M 916.8 678.1 L 918.6 676.8 L 919.7 675.6 L 920.8 674.1 L 921.4 673.1 L 921.5 672.5 L 921.3 672.2 L 921 672.2 L 920.6 671.7 L 920.1 670.6 L 919.3 670.1 L 917.6 669.9 M 914.9 668.2 L 914.1 667.2 L 913.4 666.9 L 912.7 666.8 L 912 666.5 L 911.4 666 L 910.7 665.9 L 910 666.3 L 909.4 666.5 L 908.9 666.4 L 908.4 666.1 L 907.9 665.5 M 894.7 660.5 L 891.6 660 M 885.9 656 L 882.9 654 L 881.7 653.1 L 881.3 652.7 L 880.7 652.6 L 879.8 652.9 L 879 652.9 L 878.6 652.6 L 877.9 652.4 L 877.1 652.4 L 876.6 652.8 L 876.6 653.3 L 876 653.6 L 875.1 653.6 L 874.4 654.1 L 873.7 654 L 872.9 653.6 L 872 653.8 L 870.7 654.3 L 866.5 654.4 L 865.4 654.5 L 864.9 655.4 L 864.5 657 L 864.1 657.7 L 863.7 657.5 L 863.4 656.6 L 863.2 655.2 L 862.7 654.9 L 861.9 655.7 L 861.2 656.1 L 860.8 656.1 L 860.4 655.6 L 859.8 654.4 L 859.8 653.5 L 860.1 652.9 L 859.9 652.5 L 858.6 652.4 M 847.1 651 L 846.3 650.3 L 845.6 650.2 L 844.5 650.5 M 689.2 641.2 L 690.8 641.7 L 691.5 641.4 L 691.6 640.6 L 692.2 640 L 693.3 639.7 L 694.4 639.1 L 695.8 638 L 697.2 636.3 L 698.7 634.1 L 699.8 631.4 L 700.8 626.7 L 700.6 624.3 L 700.8 622.8 L 701.1 621.2 L 701.2 620.1 L 700.9 619.5 L 700.2 619.1 L 699 618.7 L 698.1 617.6 L 697.4 615.9 L 695.1 614.1 L 691 612.4 L 688.6 610.8 L 687.9 609.3 L 686.7 608.3 L 685.2 607.8 L 684.4 607.2 L 684.2 606.7 L 682.7 605.8 L 678.5 603.8 M 658.9 624.1 L 662.5 627.5 L 663.2 628.5 L 663.7 628.8 L 664.3 628.7 L 665.2 629.2 L 667 630.6 L 669.9 633.5 L 671.1 634.9 L 671.6 635.9 L 672.3 636.5 L 673.3 636.7 L 673.9 636.5 L 674.3 635.9 L 675.1 635.4 L 676.1 635 L 677.4 635.3 L 678.8 636.4 L 680.1 636.7 L 681.2 636.4 L 682.3 637.2 L 683.5 639.2 L 684.4 640.3 L 685.2 640.7 L 685.7 641.4 L 686.1 642.4 L 686.5 642.8 L 687 642.7 L 687.4 642.3 L 687.7 641.6 L 688.2 641.2 L 689.3 641.2" />
<path class="river" d="M 674.2 557.3 L 674.1 556.3 L 673.5 555.3 L 673.2 555.2 L 672.8 555.4 L 672.6 555.6 L 672.3 555.4 L 672.3 554.9 L 672.5 554.2 L 672.1 553.4 L 671.2 552.6 L 670.7 551.7 L 670.7 550.8 L 670.5 550.3 L 670.1 550 L 669.9 549.4 L 669.9 548.7 L 670.1 547.8 L 670.7 546.8 L 670.6 545.3 L 669.8 543.2 L 669.3 541.7 L 669.3 540.7 L 669.4 540 L 669.9 539.4" />
<path class="river" d="M 892.7 656.4 L 894.8 656.8 L 897.4 656.8 L 898.5 656.6 L 899 656.4 L 899.2 656.2 L 899 655.9 L 899.2 655.4 L 899.8 654.7 L 900.7 654.3 L 901.9 654.2 L 902.8 653.5 L 903.3 652 L 903.8 651.1 L 904.4 650.8 L 904.5 650.3 L 904.3 649.7 L 904.5 649 L 905.1 648.2 L 905.7 647.1 L 906.2 645.4 L 907 644.2 L 908.2 643.5 L 908.9 642.8 L 909.3 641.5" />
<path class="river" d="M 621.9 431.3 L 622 432.2 L 622.1 433.9 L 623.4 435.8 L 625.9 437.5 L 628.4 438.3 L 630.9 438 L 633.8 437.4 L 636.9 436.5 L 639.6 436.2 L 641.8 436.3 L 643.5 436.7 L 644.8 437.4 L 646.7 438 L 649.3 438.7 L 653.2 438.3 L 658.5 436.9 L 663 437.1 L 666.8 438.7 L 669.3 439.3 L 670.5 438.9 L 671.4 439.3 L 672.3 441.2 L 671.9 442 L 672.4 443.6 L 673.8 446 L 674.4 447.6 L 674.4 448.3 L 674.8 448.8 L 675.5 449.1 L 675.8 449.6 L 675.7 450.4 L 676 451.3 L 676.9 452.6 L 677.2 453.5 L 677 454.8" />
<path class="river" d="M 929.1 632.5 L 927.7 630.3 L 927.3 629.2 L 927.9 628.2 L 928.3 627.2 L 928.1 626.9 L 927.4 627.1 L 926.7 626.5 L 926.2 625.3 L 926.1 624.5 L 926.4 624 L 927.2 623.2 L 928.2 623.1 L 929.6 623.3 L 930.4 622.9 L 931.2 622.2 L 931.4 621.3 L 931.8 620.9 L 932.5 620.6 L 933.4 619.8 L 934.3 618.5 L 935 617.8 L 935.7 617.7 L 936.6 616.8 L 937.5 615.2 L 939.2 613.9 L 941.6 613.2 L 943.6 613.2 L 945.2 613.9 L 946.7 613.8 L 948.1 612.7 L 949.4 612.1 L 951 612.1 L 953.6 611.7 L 954.7 611.2 L 955.3 610.6 L 956.1 610.4 L 957 610.6 L 958.6 609.7 L 960.9 607.7 L 963.2 606.9 L 965.5 607.1 L 967.3 607 L 968.6 606.6 L 969.4 606.2 L 969.7 605.7 L 971.2 605.3 L 975 604.8 L 976.4 605.8 L 977.3 606 L 978.3 605.7 L 979.2 605 L 979.9 603.8 L 980.8 603.4 L 981.7 603.4 L 982.4 603.6" />
<path class="river" d="M 744.4 588.2 L 744.8 586.3 L 744.8 584.9 L 744.4 582.4 L 744.8 581.7 L 745 579.8 L 745 576.5 L 745.3 574.4 L 745.7 573.5 L 746.1 570.1 L 746.3 564.2 L 746.9 560.5 L 747.9 559 L 748.4 557.4 L 748.5 555.6 L 748.8 554.3 L 749.4 553.4 L 749.7 552.5 L 749.7 551.3 L 749.6 550.8 L 749.2 550.4 L 749.1 549.3 L 749.3 546.2" />
<path class="river" d="M 669.9 539.4 L 670.8 537.7 L 671 536.5 L 670.7 535.1 L 670.7 534 L 670.9 533.2 L 670.5 532.3 L 669.6 531.1 L 669.6 530.2 L 670.3 529.5 L 671.8 529.4 L 674.1 529.8 L 675.5 529.8 L 676.1 529.5 L 676.5 528.8 L 676.6 527.9 L 676.9 527.3 L 677.4 527.3 L 678.1 526.7 L 678.9 525.7 L 680 525.1 L 681.3 525.1 L 682.3 524.6 L 682.9 523.6 L 683.8 523 L 684.8 522.7 L 685.4 522.2 L 685.4 521.6 L 685.9 521 L 686.8 520.4 L 687.3 519.8 L 687.3 519.1 L 688.1 518.5 L 689.5 517.9 L 690.6 517.7 L 691.4 517.9 L 691.7 517.7 L 691.5 517.1 L 691.7 516.7 L 692.3 516.3 L 692.9 515.4 L 694.1 513.4 L 695.2 513.7 L 696.6 513.2 L 699.4 511.6 L 699.7 510.5 L 699.3 508.8 L 698.3 506.2 L 698.4 503.5 L 699.3 500.8 L 700.2 499.4 L 701 499.3 L 701.8 498.6 L 702.6 497.3 L 703.7 496.6 L 704.8 496.5 L 705.6 496.1 L 705.8 495.5 L 705.9 495.1 L 705.6 494.6 L 705.8 493.9 L 706.5 492.9 L 707 491.9 L 707.1 490.9 L 707.7 490.3 L 708.4 490.2 L 708.8 490.2 L 709.2 490.2 L 711 490.4 L 711.7 490.1 L 711.9 489.3 L 712.5 488.6 L 713.4 487.9 L 713.8 487.3 L 713.8 486.7 L 714.1 486.4 L 714.5 486.4 L 714.6 486.2 L 714.4 485.9 L 715.2 485.7 L 717.1 485.5 L 718.3 485 L 718.7 484 L 720.3 483 L 723.3 482 L 724.8 481.1 L 724.9 480.2 L 725.9 479.2 L 727.2 478.5 L 728.1 478.1 L 728.5 477.9 L 728.9 477.5 L 729.2 477 L 730.4 475.5 L 731.5 474.8 L 732.2 474.8 L 733 474.6 L 733.9 474 L 734.3 473.3 L 734.3 472.4 L 734.5 471.9 L 734.9 471 L 736 469.1 L 737 468.3 L 737.6 468.3 L 738.2 468.4 L 738.5 468.3 L 738.8 468.2 L 739.1 468 L 739.5 467.7 L 740.2 466.9 L 741 465.8 L 741.4 464.5 L 742.3 463.4 L 743.7 462.5 L 744.3 461.6 L 744.2 460.7 L 745.3 459.2 L 748.9 456.2" />
<path class="river" d="M 590 560.5 L 590.9 559.1 L 590.9 557.9 L 590.4 556.4 L 590.6 555.3 L 591.7 554.6 L 592.8 554.3 L 594.6 554.5 L 596.7 554.6 L 597.5 555 L 597.8 555.6 L 599.1 556.5 L 601.2 557.9 L 602.8 559.3 L 603.8 560.6 L 604.8 561.4 L 605.8 561.6 L 606.7 562.2 L 607.4 563.2 L 608.6 564.1 L 610.4 564.9 L 611.8 565.4 L 612.8 565.4 L 613.5 565.3 L 613.7 565 L 614.2 565 L 615.3 565.2 L 618.3 566.1 L 620.6 566.1 L 622 565.4 L 622.8 564.9 L 623.3 564.9 L 623.7 565 L 624.2 565.2 L 624.6 565.1 L 624.8 564.8 L 625.2 564.8 L 625.5 565.1 L 626.1 565.1 L 626.6 564.7 L 627.3 564.6 L 628 564.9 L 629 564.8 L 631.2 564.2 L 632 563.4 L 632.6 563.2 L 633.2 563.2 L 633.8 562.7 L 634.3 561.7 L 635 560.9 L 635.8 560.4 L 636.3 559.7 L 636.5 559 L 637.3 558.4 L 638.6 558 L 639.4 557.1 L 639.9 555.7 L 640.6 554.8 L 641.4 554.6 L 642.1 554 L 642.7 553 L 643.4 552.4 L 644 552.2 L 644.8 552.4 L 645.8 553 L 646.7 553 L 647.5 552.6 L 648.1 552 L 648.6 551.2 L 649.4 550.8 L 651.2 550.6 L 651.4 550 L 651.9 549.8 L 652.9 549.8 L 653.3 549.5 L 653.5 549.2 L 653.9 549.2 L 654.8 549 L 656.1 548.1 L 657.1 547.7 L 657.9 547.7 L 658.4 547.3 L 658.7 546.9 L 659 546.8 L 659.5 546.6 L 660.2 545.9 L 660.9 545.9 L 661.3 546 L 661.8 545.8 L 662 545.3 L 662 544.9 L 661.6 544.7 L 661.7 544.5 L 662.3 544.2 L 662.9 544.1 L 663.6 544.3 L 663.9 543.9 L 664 543.3 L 664.2 543 L 664.9 543 L 665.3 542.6 L 665.5 541.8 L 665.8 541.4 L 666.3 541.5 L 667.4 541 L 669.9 539.4" />
<path class="river" d="M 538.8 393.9 L 541.5 394.5 L 542.7 394.5 L 543.7 393.9 L 547.3 391.9 L 548.5 390.9 L 548.5 390.4 L 548.8 389.8 L 549.6 389.1 L 549.9 388.5 L 549.7 388 L 550.5 386.5 L 552.2 384.1 L 553.2 381.7 L 553.5 379.2 L 554.7 376 L 557 372.1 L 558.3 369.2 L 558.7 367.4 L 558.7 366.4 L 558.2 366.4 L 558.3 364.7 L 559.3 359.7 L 559.5 355.7 L 559.9 353.6 L 560.5 352 L 560.8 350.6 L 560.7 349.4 L 560.9 348.1 L 561.4 346.8 L 561.6 345.4 L 561.6 344.2 L 562.1 343 L 563.3 341.8 L 563.9 340.6 L 563.9 339.3 L 564.7 338.2 L 566.3 337.3 L 567.8 336.1 L 569.1 334.7 L 569.6 333.4 L 569.3 332 L 569.5 329.8 L 570.2 326.7 L 570.4 324.3 L 570.1 322.8 L 570.2 321.7 L 570.9 320.7 M 570.8 320.7 L 571.2 318.6 L 571 316.2 L 570.3 312.8 L 569.1 310.8 L 567.4 310.4 L 565.8 309.5 L 564.1 308.2 L 563 307.6 L 562.4 307.8 L 561.8 307.4 L 561.2 306.6 L 560.6 306.1 L 559.7 305.8 L 559.1 305.5 L 559 304.9 L 559.1 303.8 L 558.9 302.6 L 558.3 301.2 L 558.3 300 L 558.7 299.1 L 558.5 298.2 L 557.7 297.4 L 557.9 295.7 L 559.2 293.1 L 559.8 290.9 L 559.8 289 L 559.4 287.5 L 558.5 285.8" />
<path class="river" d="M 678.5 603.8 L 677.8 603.1 L 677.3 601.7 L 676.6 599.2 L 675.8 597.5 L 675.1 596.5 L 674.6 595.6 L 674.3 594.7 L 674.3 594 L 674.6 593.5 L 674.3 592.4 L 673.6 590.8 L 673.5 590.4 L 673.8 590.1 L 674.2 589.2 L 674.8 587.2 L 674.8 585.8 L 674.3 584.9 L 674.1 584.3 L 674.1 583.7 L 673.8 582.9 L 673.1 581.9 L 672.6 581.3 L 672.2 581.3 L 672 580.9 L 672.2 580.2 L 671.8 579.3 L 670.9 578.3 L 671 576.4 L 671.9 573.6 L 672.3 572.5 L 672.4 571.8 L 672.9 571.4 L 673.1 570.7 L 673.4 570.4 L 673.9 570.1 L 674.2 569.4 L 674.3 568.2 L 673.9 566.5 L 672.9 564.2 L 672.5 562.9 L 672.8 562.6 L 672.7 562.3 L 672.5 562 L 672.5 561.8 L 672.9 561.5 L 672.8 561.1 L 672.5 560.3 L 672.7 559.8 L 673.1 559.6 L 673.2 559.3 L 673 558.6 L 673.2 558.2 L 673.8 557.8 L 674.2 557.3" />
<path class="river" d="M 537.6 533.7 L 536.4 530.5 L 535.8 528.5 L 535.8 527.3 L 536.2 526 L 535 524.3 L 532.2 522.2 L 530.4 520.2 L 529.6 518.4 L 529 517.3 L 528.4 517 L 527.9 516.2 L 527.3 514.7 L 526.7 513.7 L 526.1 513 L 525.7 511.8 L 525.7 510.1 L 524.6 506.8 L 522.3 501.8 L 521.1 498.6 L 521 497.1 L 520.5 495.5 L 519.6 493.8 L 518.7 492.7 L 517.6 492 L 516.8 491.1 L 515.9 489.4 L 514.6 488.6 L 513.7 487.8 L 512.8 486.6 L 513 484.8 L 514.1 482.4 L 515 481 L 515.6 480.7 L 515.9 480 L 515.8 478.8 L 516.1 478.1 L 516.7 477.8 L 516.9 477.1 L 516.7 476.1 L 516.7 475.4 L 517.1 474.9 L 517.3 474.3 L 517.3 473.5 L 517.6 473 L 518.4 472.8 L 518.8 472.3 L 518.9 471.7 L 519.3 471.5 L 520.2 471.6 L 521.7 471 L 524 469.8 L 525.7 469.1 L 526.7 469.1 L 527.5 469.3 L 528 469.7 L 528.2 470.2 L 528.2 470.9 L 528.5 471.3 L 529 471.3 L 529.1 471.6 L 529 471.7 L 529.1 472.1 L 529.4 472.6 L 529.7 472.6 L 529.9 472.1 L 531 472.3 L 533 473.2 L 535 473.7 L 537.1 473.7 L 538.2 473.9 L 538.3 474.3 L 538.8 474.6 L 539.6 474.9 L 540.7 475 L 542 474.9 L 542.8 475.1 L 543.2 475.8 L 546.7 476.3 L 548.1 476.3 L 548.5 476.1 L 548.9 476.2 L 549.2 476.5 L 550 475.9 L 551.4 474.2 L 553.6 473.2 L 556.6 472.9 L 558.4 472.1 L 559 471.1 L 559.9 470.2 L 561 469.6 L 561.9 469.7 L 562.6 470.5 L 563.5 471.1 L 564.7 471.7 L 565.5 471.5 L 565.8 470.6 L 566.3 469.9 L 566.9 469.6 L 567.8 469.6 L 568.9 469.8 L 569.7 470.3 L 570.4 471 L 571.7 470.8 L 574.4 469.2" />
<path class="river" d="M 614 797 L 615.1 798.1 L 615.9 798.3 L 616.9 798.1 L 617.5 797.5 L 617.9 796.5 L 618 795.8 L 617.8 795.4 L 618.1 794.5 L 619.1 792.6 L 620.4 791.6 L 621.2 790.5 L 622 789.1 L 622.3 787.7 L 622.3 785.9 L 622.4 785.7" />
<path class="river" d="M 569.9 361.8 L 569.5 362.5 L 569.4 363.3 L 569.5 364.4 L 569.8 365.4 L 570.4 366.6 L 571.5 367.4 L 571.7 368 L 571.6 368.7 L 573.5 369.4 L 577.5 370.1 L 579.8 370.2 L 580.5 369.5 L 581.1 368.5 L 581.6 367.1 L 582.1 366.3 L 583.2 366 L 586.3 365.8 L 587.6 365.5 L 588 365.1 L 588.7 364.7 L 589.7 364.5 L 590.6 364.5 L 591.4 364.8 L 592.4 364.4 L 593.6 363.4 L 596 362.2 L 599.5 360.8 L 601.7 359.7 L 602.7 359 L 603.5 358.2 L 604 357 L 605 355.9 L 606.6 354.8 L 607.5 353.9 L 607.7 353.4 L 609.4 352.4 L 612.8 351 L 615.2 349.1 L 616.7 346.8 L 618.3 345.6 L 620.2 345.4 L 621.4 345.2 L 622.3 344.6 L 623.2 344.3 L 623.7 344.5 L 624.2 344.9 L 625.1 344.7 L 626.3 343.9 L 628.1 343.8 L 630.5 344.2 L 633.6 344.2 L 637.5 343.8 L 639.9 343.2 L 640.8 342.7 L 642.4 342.7 L 646 343.7" />
<path class="river" d="M 639 876.4 L 642 877.3 L 643.9 877.6 L 645.6 877.5 L 647.2 877.7 L 648.8 878.1 L 651.1 878.2 L 654.1 877.9 L 656.5 877.9 L 658.3 878.1 L 660.1 878.5 L 661.7 879.2 L 663.6 879.6 L 665.5 879.8 L 667.1 880.6 L 668.4 882.1 L 669.4 883.7 L 670.2 885.4 L 671.8 886.5 L 674.1 886.9 L 675.7 887.4 L 676.6 888.2 L 677.7 888.8 L 679 889.2 L 680.4 889.4 L 681.9 889.3 L 684.3 890.4 L 687.4 892.7 L 689.4 893.8 L 690.2 894 L 691.3 894.8 L 693.5 896.8 L 696.1 897.2 L 697.8 898.2 L 699.8 899.6 L 700.5 900.8 M 611.6 392.6 L 616 392 L 619.3 391.4 L 621.2 390.8 L 622.6 390.2 L 624.4 390.1 L 626.4 390.5 L 628.2 390.8 L 629.6 390.7 L 630.9 390.1 L 632 389 L 633.3 388.8 L 634.6 389.5 L 635.9 388.9 L 637.1 387 L 637.8 386.1 L 638.1 386.3 L 638.4 386.1 L 638.7 385.4 L 639.7 384.6 L 640.8 383.9 L 641.9 383.4 L 643.1 383.8 L 643.7 383.9 L 643.9 384.2 L 644.2 385.1 L 644.6 385.3 L 645.2 385.7 L 646.3 386.7 L 647.3 387.7 L 648 388.2 L 648.5 388.7 L 648.6 389.3 L 648.4 390 L 649 391.6 L 649.4 392.1 L 649.6 392.7 L 649.4 393.3 L 649.9 394 L 651.1 397 L 651.2 398 L 651.4 398.4 L 651.8 399.6 L 652.3 400.8 L 652.2 401.6 L 652.4 402.4 L 652.6 404.8 L 652.4 405.8 L 651.9 406.2 L 650.9 406.4 L 649.3 406.4 L 648.2 407.8 L 647.2 412.1 L 647.7 415 L 648.6 416.7 L 650 418.3 L 651.1 419 L 651.9 418.8 L 653.6 419.4 L 656.4 420.8 L 658.3 421.3 L 659.4 420.9 L 660.7 420.7 L 662.3 420.6 L 663.4 420.4 L 664 420 L 664.6 420 L 665.4 420.3 L 666.5 420.4 L 667.8 420.3 L 669.3 420.6 L 671.5 421.6 L 674.5 422.2 L 676.9 422.1 L 681.2 421.2 L 684.5 420.5 L 686.7 420.4 L 688.7 420.6 L 690.7 421.3 L 692.4 422.6 L 694.5 423.7 L 697.8 425.1 L 699.5 427.1 L 701.3 428.5 L 704.8 430.3 L 710.7 433.1 L 711.3 433.2 L 712.3 433.2 L 713.2 433.4 L 714.4 433.9 L 715.3 434.9 L 716.1 436.2 L 716.5 437.3 L 716.6 438.2 L 717.5 439.6 L 719.4 441.3 L 720 442.2 L 720.6 443 L 721.2 444.7 L 722.8 446.9 L 726.7 451.3 L 728.2 452.5 L 729.2 453 L 730.4 453 L 731.6 453.3 L 732.9 453.9 L 733.8 454.1 L 734.7 453.7" />
<path class="river" d="M 606.1 847.5 L 607.3 852 L 607.9 854 L 607.9 854.9 L 607.5 855.3 L 607.3 855.8 L 607.3 856.4 L 607.6 856.9 L 608.2 857.3 L 609.6 857.5 L 611.7 857.7 L 613.2 858.1 L 614 858.7 L 614.7 859.5 L 615.1 860.4 L 615.7 860.9 L 616.4 861 L 616.9 862.1 L 617.3 864.3 L 617.8 865.8 L 618.6 866.8 L 619.1 867.8 L 619.3 868.9 L 620.2 870 L 622 871.2 L 623.5 871.9 L 624.7 871.9 L 626.2 871.3 L 627.8 870 L 629.1 869.3 L 630.1 869.2 L 632 870.2 L 635 872.1 L 637.1 873.9 L 639 876.4" />
<path class="river" d="M 693 388.8 L 690.6 389.6 L 689.5 390.2 L 688.9 391 L 688.1 391.4 L 686.4 391.5 L 683 390.1 L 681.5 389.8 L 680.7 390.1 L 678.3 389.4 L 674.3 387.9 L 672.2 386.3 L 672.1 384.8 L 671.6 383.6 L 670.7 382.8 L 669.9 381.9 L 669.3 380.8 L 668.7 380.1 L 668.2 379.8 L 667.3 379.7 L 665.4 379.8 L 663.4 379.6 L 662.6 379.9 L 662.3 380.8 L 661.2 381.2 L 659.3 380.9 L 657.9 380.4 L 656.8 379.6 L 656.2 378.7 L 655.9 377.7 L 655.1 376.5 L 653.3 374.3 L 651.6 373.1 L 650.9 372.1 L 650.8 370.9 L 649.6 370.3 L 647.4 370.3 L 645.3 369.9 L 642.3 368.7 L 641.7 367.3 L 641.5 366.3 L 641.6 365.2 L 641.3 364.3 L 640.9 363.7 L 640.9 361.8 L 641.3 358.7 L 641.5 356.3 L 641.2 354.7 L 641.6 353.5 L 642.8 352.6 L 643.4 351.3 L 643.5 349.5 L 644.2 348.1 L 645.4 346.9 L 645.8 345.8 L 645.4 344.7 L 646 343.7 L 646.2 343.3 L 648.3 341.5 L 649.5 339.5 L 650.2 336.1 L 650.1 333.9 L 651.4 332.5 L 654.1 331.2 L 656.1 329.6 L 657.3 327.9 L 659.2 326.9 L 661.9 326.6 L 663.8 325.9 L 665.5 324.4 L 667 323.8 L 668.4 323.7 L 670.3 323.9 L 671.9 324.2 L 673.3 324.6 L 674.5 325.2 L 675.4 325.9 L 675.7 326.3 L 675.9 326.4 L 676 326.4 L 676.2 326.4 L 676.4 326.4 L 677 326.2 L 677.6 325.9 L 679.4 325.3 L 680.3 324.6 L 680 323.8 L 679.9 323.2 L 680.1 322.8 L 680.6 322.5 L 681.7 322.4 L 682.4 322.2 L 682.9 321.7 L 683.7 321.8 L 684.5 322.4 L 685 322.7 L 685.3 322.8 L 685.7 322.8 L 686.4 322.8 L 687.2 322.4 L 688.1 321.4 L 689.5 320.9 L 691.5 320.8 L 693.4 320.3 L 695.2 319.3 L 696.9 318.9 L 698.7 319.2 L 700.6 318.6 L 702.7 317.2 L 704.8 316 L 707.1 315 L 708.1 314.9 M 708.1 314.9 L 708.8 314.9 L 709.9 315.4 L 711.3 315.6 L 714 315.4 L 714.4 315.5 L 717 313.4 L 720.5 311.4 M 709.2 310.3 L 709 311 L 709.1 311.6 L 709.6 311.9 L 709.4 312.7 L 708.3 314.6 L 708.1 314.9 M 713 303.3 L 712.9 303.6 L 711.7 307.3 L 710.8 308.9 L 709.4 310.1 L 709.2 310.3 M 706.4 301.4 L 706.3 301.9 L 706.1 302.2 L 705 304.1 L 705.3 305.8 L 706.6 307.8 L 707.8 309.1 L 708.7 309.7 L 709.2 310.3" />
<g class="city"><circle cx="891.1637269183825" cy="694.5946834356996" r="5" /><text x="903.1637269183825" y="698.5946834356996">São Paulo</text></g>
<g class="city"><circle cx="751.9647278395147" cy="824.9319808973778" r="5" /><text x="763.9647278395147" y="828.9319808973778">Buenos Aires</text></g>
<g class="city"><circle cx="931.4281520064767" cy="686.9373127797026" r="5" /><text x="943.4281520064767" y="690.9373127797026">Rio de Janeiro</text></g>
<g class="city"><circle cx="532.4225865601665" cy="558.8726093013834" r="5" /><text x="544.4225865601665" y="562.8726093013834">Lima</text></g>
<g class="city"><circle cx="567.4031068316337" cy="362.61835429462445" r="5" /><text x="579.4031068316337" y="366.61835429462445">Bogota</text></g>
<g class="city"><circle cx="607.9026087395173" cy="811.1305178722588" r="5" /><text x="619.9026087395173" y="815.1305178722588">Santiago</text></g>
<g class="city"><circle cx="923.1174783784138" cy="651.6324225773325" r="5" /><text x="935.1174783784138" y="655.6324225773325">Belo Horizonte</text></g>
<g class="city"><circle cx="837.2200759216242" cy="771.1339013716091" r="5" /><text x="849.2200759216242" y="775.1339013716091">Porto Alegre</text></g>
<text class="map-title" x="80" y="105">Brazil Physical Study Map</text>
<text class="map-subtitle" x="80" y="145">Landmark: Christ the Redeemer | Study terrain and water systems</text>
  <text class="footer" x="80" y="1036">Made with Natural Earth. Free vector and raster map data @ naturalearthdata.com.</text>
</svg>
