<?xml version="1.0" encoding="UTF-8"?>
<svg xmlns="http://www.w3.org/2000/svg" width="1600" height="1100" viewBox="0 0 1600 1100" role="img" aria-labelledby="title desc">
  <title id="title">Bahamas Political Study Map</title>
  <desc id="desc">Made with Natural Earth. Free vector and raster map data @ naturalearthdata.com.</desc>
  <defs>
    <linearGradient id="terrain" x1="0" x2="1" y1="0" y2="1">
      <stop offset="0%" stop-color="#6c8c53" />
      <stop offset="42%" stop-color="#d5c487" />
      <stop offset="72%" stop-color="#b88b5f" />
      <stop offset="100%" stop-color="#f1f5ee" />
    </linearGradient>
    <filter id="softShadow" x="-10%" y="-10%" width="120%" height="120%">
      <feDropShadow dx="0" dy="10" stdDeviation="12" flood-color="#0f172a" flood-opacity="0.16" />
    </filter>
    <style>
      .neighbor { fill: #ffffff; stroke: #94a3b8; stroke-width: 1.2; opacity: 0.72; }
      .country { fill: #f7f1df; stroke: #1f2937; stroke-width: 4; filter: url(#softShadow); }
      .admin1 { fill: none; stroke: #64748b; stroke-width: 1.1; stroke-dasharray: 6 7; opacity: 0.75; }
      .river { fill: none; stroke: #1d9bd1; stroke-width: 3; stroke-linecap: round; opacity: 0.88; }
      .lake { fill: #8ed1ea; stroke: #0ea5e9; stroke-width: 1.5; opacity: 0.8; }
      .city circle { fill: #ef4444; stroke: #ffffff; stroke-width: 2; }
      .city text, .terrain-label { fill: #172033; font: 700 24px system-ui, sans-serif; paint-order: stroke; stroke: #ffffff; stroke-width: 5; stroke-linejoin: round; }
      .map-title { fill: #0f172a; font: 800 46px system-ui, sans-serif; }
      .map-subtitle { fill: #475569; font: 600 24px system-ui, sans-serif; }
      .footer { fill: #64748b; font: 500 18px system-ui, sans-serif; }
    </style>
  </defs>
  <rect width="100%" height="100%" fill="#eaf3f8" />
  <rect x="40" y="40" width="1520" height="1020" rx="32" fill="#ffffff" opacity="0.54" />
  <path class="neighbor" d="M -5395.5 -2678.5 L -5003.2 -2678.5 L -4593.1 -2678.5 L -4457.3 -2678.5 L -4036.2 -2678.5 L -3628.7 -2678.5 L -3214.3 -2678.5 L -2799.6 -2678.5 L -2330.2 -2678.5 L -1857.6 -2678.6 L -1571.7 -2678.5 L -1571.3 -2731.6 L -1524.5 -2732.3 L -1500 -2656.4 L -1457.1 -2633 L -1360.6 -2624.5 L -1219.6 -2602.5 L -1085.6 -2559.7 L -973.7 -2577.7 L -803.8 -2541.8 L -758.6 -2543.1 L -635 -2582.2 L -505.4 -2532.1 L -370.3 -2478.7 L -258.5 -2432.7 L -151.2 -2388.4 L -137.9 -2352.1 L -105.3 -2338.5 L -113.8 -2324.8 L -76.7 -2320.6 L -49.8 -2334.9 L -42.9 -2302.1 L -15.1 -2280.3 L 22.8 -2280.3 L 43.1 -2263.4 L 26 -2238.8 L 170 -2174 L 199.4 -2048.6 L 227.1 -1928.6 L 186.7 -1846.9 L 121.7 -1770.9 L 91.4 -1722.6 L 88.3 -1708.2 L 103.8 -1688.4 L 150.7 -1666.7 L 185.4 -1666.7 L 345.8 -1740.4 L 488.2 -1762.1 L 668.9 -1830.8 L 671.5 -1844.8 L 659.1 -1887 L 636.8 -1914.1 L 699.1 -1936 L 834.8 -1936.6 L 961.6 -1936.5 L 1005.8 -1990.4 L 1023.1 -2001.1 L 1169.1 -2100.6 L 1231.4 -2126 L 1441.3 -2127 L 1695.8 -2127.1 L 1709.6 -2161.2 L 1753.9 -2168.1 L 1812.6 -2189.5 L 1861.6 -2252.4 L 1903.7 -2359.8 L 2009.1 -2464.1 L 2055 -2427.8 L 2147.6 -2451.3 L 2208.9 -2411.4 L 2208.8 -2223 L 2299.2 -2145 L 2323 -2099.7 L 2175.5 -2032.7 L 2033.6 -1985.1 L 1887.7 -1944.2 L 1814.6 -1862.1 L 1791.2 -1831.1 L 1789.8 -1757.8 L 1835.3 -1684.6 L 1892.7 -1681.2 L 1878.2 -1731.6 L 1919.6 -1700.9 L 1908.6 -1661.4 L 1815.3 -1639 L 1749 -1641.7 L 1646.8 -1617.6 L 1586.7 -1610.7 L 1506.4 -1603.9 L 1391.2 -1563.9 L 1594.1 -1589.9 L 1635 -1563.7 L 1441.7 -1522.3 L 1353.7 -1522 L 1357.8 -1539 L 1315.7 -1500.7 L 1356.4 -1494.3 L 1326.5 -1395.1 L 1226 -1288.8 L 1215.7 -1324.3 L 1185.4 -1331.5 L 1140.1 -1366 L 1168.8 -1291.6 L 1203.1 -1267 L 1205.2 -1214.8 L 1160.9 -1161.1 L 1083.2 -1050.8 L 1070.6 -1056.3 L 1113.3 -1150.3 L 1042.7 -1203.1 L 1026.5 -1317.9 L 999.9 -1258.1 L 1029.4 -1170.5 L 938.1 -1192.1 L 1033.2 -1147.7 L 1039.2 -1016.2 L 1078.8 -1006.7 L 1093.1 -958.9 L 1112.5 -820.7 L 1024.7 -718.1 L 881.8 -677.2 L 791 -596.1 L 722 -587.3 L 652.1 -536.5 L 632.4 -490.2 L 480.7 -400.5 L 402.9 -334.8 L 337.7 -252.9 L 316.5 -154.7 L 340.9 -58.8 L 387 59.4 L 448.4 157.2 L 449.1 216.9 L 514.5 377.1 L 510.2 470.2 L 504.2 524 L 469.7 608.3 L 428.4 625.8 L 360.4 609 L 338.6 548.4 L 286.1 516.6 L 212.9 397.8 L 148.7 292.1 L 127.9 238.1 L 156.3 146.4 L 117.6 70.4 L 9.9 -45.1 L -44 -66.3 L -183.4 -3.6 L -208.1 -10.5 L -275.1 -75 L -361.7 -109.1 L -517.9 -91.8 L -640.5 -107.1 L -745.8 -97.5 L -802.9 -76 L -778.1 -39.3 L -780.3 16.7 L -751 44 L -777.3 62.2 L -828.5 41.8 L -880.4 68 L -980.6 63.7 L -1083.8 -9.3 L -1204.3 8 L -1304.7 -24 L -1390.7 -14.3 L -1506.9 17.9 L -1632.6 120.4 L -1769.9 179.9 L -1845.3 245.9 L -1877.1 308 L -1878.5 403.3 L -1871.6 469.7 L -1845.3 516.6 L -1899.2 520.8 L -1997.3 490.4 L -2105 447.6 L -2143.7 382.6 L -2174.1 285.9 L -2255.6 207.2 L -2303.4 126.2 L -2372.7 31.7 L -2470.1 -23.4 L -2583 -20.7 L -2670 88.4 L -2784.7 47 L -2856.1 5.2 L -2890.5 -70.7 L -2936.3 -142.9 L -3018.4 -203.6 L -3089 -247.3 L -3139.4 -296.3 L -3378.7 -296.3 L -3378.9 -239.3 L -3488.5 -239.3 L -3763.2 -238.3 L -4078.3 -335.6 L -4286.9 -402.7 L -4274 -429.7 L -4449.4 -414.8 L -4606.4 -404.1 L -4629.6 -474.7 L -4719.2 -554.1 L -4783.6 -570.7 L -4798.7 -610.3 L -4876.2 -617.2 L -4925.7 -654.6 L -5054 -668.2 L -5089.2 -690.5 L -5106 -766.2 L -5240 -905 L -5355.1 -1097.1 L -5350.2 -1129.1 L -5411.1 -1174.7 L -5518.1 -1290.5 L -5537.1 -1403.1 L -5610.7 -1478.5 L -5580.4 -1593 L -5585.3 -1711.5 L -5629.3 -1817.4 L -5575.4 -1947.5 L -5558.6 -2072.9 L -5541.8 -2198.3 L -5566.7 -2383.6 L -5610.4 -2501.7 L -5650.7 -2565.9 L -5633.9 -2592.8 L -5434.2 -2545.9 L -5360.6 -2415.5 L -5326.4 -2452 L -5348.5 -2565.2 L -5395.5 -2678.5 Z M -9893.6 1316.5 L -9869 1328.5 L -9846.6 1347 L -9811.4 1395.4 L -9814.7 1403 L -9868.7 1432.5 L -9912.9 1454.1 L -9933.1 1477.2 L -9967.4 1457.4 L -9963.5 1418.8 L -9986.3 1368.5 L -9979.4 1353.2 L -9955.4 1330.6 L -9965 1303.5 L -9957 1290.6 L -9946.5 1293.1 L -9893.6 1316.5 Z M -9975.6 1221.9 L -9987.1 1238.5 L -10033.4 1248.4 L -10057.2 1219.3 L -10073.1 1208.1 L -10074.3 1199.5 L -10060.8 1187.6 L -10011.7 1200.8 L -9975.6 1221.9 Z M -10080.9 1164.9 L -10085.2 1179.9 L -10159.2 1175.8 L -10148.9 1159 L -10080.9 1164.9 Z M -10255.9 1090.3 L -10244.4 1099.2 L -10204.5 1144.9 L -10212 1152.8 L -10221.8 1151.1 L -10269.9 1146.2 L -10287.5 1114.9 L -10292.9 1109.4 L -10255.9 1090.3 Z M -10441.1 1021.5 L -10438.2 1053.7 L -10454.6 1067.4 L -10501.2 1042.2 L -10494 1032.1 L -10472.9 1018.6 L -10441.1 1021.5 Z M -11422.2 -4251.1 L -11312.6 -4238.6 L -11299.4 -4185.6 L -11384.2 -4164.1 L -11474.7 -4189.9 L -11558.6 -4227.5 L -11422.2 -4251.1 Z M -9593.3 -3917.5 L -9501.6 -3908.1 L -9443.1 -3865.3 L -9562.6 -3799.6 L -9700.6 -3747 L -9771.2 -3782.6 L -9792.6 -3847.3 L -9667.1 -3896.4 L -9593.3 -3917.5 Z M -7902.1 -5539.6 L -7902.2 -5539.6 L -7903 -5026.9 L -7903.8 -4240.4 L -7767.7 -4236.3 L -7633.2 -4198 L -7536.8 -4137.5 L -7414 -4046.8 L -7279.7 -4124 L -7141 -4168.7 L -7067.7 -4097.3 L -6974.6 -4040.7 L -6848.1 -3978.4 L -6761.7 -3879.3 L -6620.5 -3721.7 L -6385.6 -3633.9 L -6381.8 -3546.7 L -6458.6 -3480.1 L -6458.6 -3480.1 L -6458.6 -3480.1 L -6534.6 -3532.1 L -6656.3 -3576.1 L -6695.4 -3696.6 L -6873.5 -3808.3 L -6947.9 -3938.8 L -7080.5 -3947.7 L -7300.2 -3951.1 L -7462 -3990.8 L -7747.7 -4134.2 L -7879.9 -4160.4 L -8121.6 -4209.7 L -8312.8 -4197.9 L -8584.5 -4261.4 L -8748.7 -4320.2 L -8902 -4291 L -8873.5 -4195 L -8949.9 -4186.2 L -9109.7 -4157.4 L -9231.3 -4110.8 L -9384.4 -4081.4 L -9404.2 -4162.8 L -9342.1 -4298.3 L -9195.3 -4340.8 L -9233.1 -4375.5 L -9409.2 -4298.5 L -9503.5 -4206.6 L -9702.5 -4108.3 L -9601.5 -4041.2 L -9732 -3942 L -9880.5 -3884.2 L -10018.7 -3842 L -10053 -3780.9 L -10268.6 -3709.5 L -10312.3 -3644.7 L -10473.9 -3585.6 L -10568.7 -3596.2 L -10697.7 -3557.7 L -10837.8 -3510.7 L -10952.7 -3464.5 L -11189.8 -3425 L -11211.4 -3448.3 L -11060.3 -3512.8 L -10925.2 -3555.4 L -10777.9 -3631 L -10606.6 -3646.6 L -10538.5 -3703.2 L -10347 -3785.9 L -10316.1 -3813.6 L -10214.1 -3862.4 L -10190.3 -3967.1 L -10120.1 -4048.7 L -10279.3 -4006.8 L -10323.9 -4030.6 L -10398.7 -3980.4 L -10488.9 -4050.4 L -10526.1 -4000.8 L -10577.8 -4069.7 L -10715.9 -4014.4 L -10800.7 -4014.5 L -10812.6 -4096.8 L -10787.6 -4147.4 L -10876.5 -4196.6 L -11056.2 -4170.1 L -11172.7 -4235 L -11267.2 -4268.1 L -11267.9 -4346.4 L -11374.3 -4405.2 L -11320.9 -4484.7 L -11208.2 -4561.8 L -11159 -4632.7 L -11047.2 -4642.8 L -10952.4 -4620.7 L -10841 -4687.3 L -10740.7 -4675.4 L -10635.4 -4718.3 L -10661.1 -4781.4 L -10738.4 -4806.2 L -10636.1 -4859.5 L -10721 -4858 L -10867.6 -4827.9 L -10909.7 -4797.4 L -11018.6 -4827.8 L -11214 -4812.3 L -11416.3 -4845.4 L -11474.3 -4901 L -11649.1 -4981.3 L -11455 -5039.1 L -11146.8 -5106.5 L -11033.3 -5106.5 L -11052.1 -5037.5 L -10760.5 -5042.9 L -10872.6 -5128.5 L -11042.5 -5181.1 L -11140.8 -5250.1 L -11273.3 -5309 L -11463.1 -5352.7 L -11385.8 -5425.1 L -11140.8 -5429.6 L -10966.4 -5492.5 L -10933.5 -5559.8 L -10792.4 -5625.5 L -10657.8 -5641.3 L -10396 -5702.6 L -10269 -5693.3 L -10056.4 -5767 L -9847.4 -5738 L -9747.4 -5675.6 L -9686.1 -5702.4 L -9452.6 -5694.1 L -9460.9 -5662.3 L -9249.5 -5638.8 L -9108.6 -5652.6 L -8817.6 -5609 L -8552 -5596 L -8445.6 -5578 L -8261.8 -5600.5 L -8052.2 -5559 L -7902.1 -5539.6 L -7902.1 -5539.6 Z M -12149.3 -4720.5 L -12064 -4694.3 L -11977.9 -4708.5 L -11866.2 -4672 L -11729.1 -4653.5 L -11740.4 -4638.5 L -11845.1 -4609.3 L -11950.2 -4639.3 L -12002.8 -4664.4 L -12124.6 -4656.3 L -12157.5 -4668.5 L -12149.3 -4720.5 Z" />
<path class="neighbor" d="M 209 887 L 328.3 896.9 L 436.9 898.4 L 566.6 945.5 L 621.6 996.1 L 750.6 980.5 L 799.5 1012.9 L 916.5 1098.5 L 1002.5 1160.8 L 1048 1158.9 L 1130.4 1187.1 L 1120.3 1225.9 L 1222.2 1231.6 L 1326.6 1288.2 L 1310.2 1320.5 L 1218.3 1338.1 L 1125.4 1344.9 L 1030.2 1334 L 832.4 1347.5 L 925 1270.4 L 868.7 1234.5 L 779.7 1225.3 L 731.9 1185.4 L 699.2 1106.7 L 621.1 1112.1 L 492.3 1075.1 L 450.9 1046.1 L 270.8 1024.7 L 222.6 997.7 L 274.4 963.2 L 138.9 956.2 L 39.6 1027.9 L -17.6 1029.9 L -37.4 1063.6 L -105.8 1078.7 L -164.9 1065.6 L -92 1022.9 L -62 973.1 L 0.4 942.3 L 71 915.4 L 175.6 902.2 L 209 887 Z" />

<path class="country" d="M 663.2 389.5 L 728.2 378.5 L 819.3 382.6 L 823.5 418.5 L 672.9 440.6 L 663.2 389.5 Z M 827.6 355 L 936.8 417.2 L 912.9 515.4 L 887.5 497.6 L 889.8 425.5 L 827.9 370.9 L 827.6 355 Z M 772.3 607.8 L 813.8 613.3 L 862.2 728 L 862.9 808.1 L 829 815 L 793.9 735.4 L 742.2 695.4 L 772.3 607.8 Z" />


<g class="city"><circle cx="888.402330330332" cy="625.2824624624623" r="5" /><text x="900.402330330332" y="629.2824624624623">Nassau</text></g>
<g class="city"><circle cx="701.9201261261276" cy="424.9979099099097" r="5" /><text x="713.9201261261276" y="428.9979099099097">Freeport</text></g>
<text class="map-title" x="80" y="105">Bahamas Political Study Map</text>
<text class="map-subtitle" x="80" y="145">Capital: Nassau | Continent: North America</text>
  <text class="footer" x="80" y="1036">Made with Natural Earth. Free vector and raster map data @ naturalearthdata.com.</text>
</svg>
