<?xml version="1.0" encoding="UTF-8"?>
<svg xmlns="http://www.w3.org/2000/svg" width="1600" height="1100" viewBox="0 0 1600 1100" role="img" aria-labelledby="title desc">
  <title id="title">Bhutan Physical Study Map</title>
  <desc id="desc">Made with Natural Earth. Free vector and raster map data @ naturalearthdata.com.</desc>
  <defs>
    <linearGradient id="terrain" x1="0" x2="1" y1="0" y2="1">
      <stop offset="0%" stop-color="#6c8c53" />
      <stop offset="42%" stop-color="#d5c487" />
      <stop offset="72%" stop-color="#b88b5f" />
      <stop offset="100%" stop-color="#f1f5ee" />
    </linearGradient>
    <filter id="softShadow" x="-10%" y="-10%" width="120%" height="120%">
      <feDropShadow dx="0" dy="10" stdDeviation="12" flood-color="#0f172a" flood-opacity="0.16" />
    </filter>
    <style>
      .neighbor { fill: #ffffff; stroke: #94a3b8; stroke-width: 1.2; opacity: 0.72; }
      .country { fill: url(#terrain); stroke: #1f2937; stroke-width: 4; filter: url(#softShadow); }
      .admin1 { fill: none; stroke: #64748b; stroke-width: 1.1; stroke-dasharray: 6 7; opacity: 0.75; }
      .river { fill: none; stroke: #1d9bd1; stroke-width: 3; stroke-linecap: round; opacity: 0.88; }
      .lake { fill: #8ed1ea; stroke: #0ea5e9; stroke-width: 1.5; opacity: 0.8; }
      .city circle { fill: #ef4444; stroke: #ffffff; stroke-width: 2; }
      .city text, .terrain-label { fill: #172033; font: 700 24px system-ui, sans-serif; paint-order: stroke; stroke: #ffffff; stroke-width: 5; stroke-linejoin: round; }
      .map-title { fill: #0f172a; font: 800 46px system-ui, sans-serif; }
      .map-subtitle { fill: #475569; font: 600 24px system-ui, sans-serif; }
      .footer { fill: #64748b; font: 500 18px system-ui, sans-serif; }
    </style>
  </defs>
  <rect width="100%" height="100%" fill="#d8edf0" />
  <rect x="40" y="40" width="1520" height="1020" rx="32" fill="#ffffff" opacity="0.54" />
  <path class="neighbor" d="M 2819.2 2067.5 L 2699.5 2115.8 L 2577.4 2206.5 L 2429.8 2215.9 L 2334.5 2441.9 L 2246.3 2479.9 L 2347.3 2663.4 L 2480 2816 L 2565.6 2954 L 2489.1 3135.8 L 2416.9 3174.4 L 2466.8 3279.3 L 2606.3 3445.5 L 2630.2 3562.2 L 2626.9 3659.3 L 2708.6 3850 L 2593.8 4044.9 L 2492.5 4259.8 L 2472.3 4104.6 L 2536.6 3944.4 L 2466.3 3820.7 L 2483.3 3592.9 L 2398.4 3484.6 L 2330.3 3234.3 L 2292.5 2970.2 L 2202.1 2797 L 2064.3 2901.9 L 1826.7 3050.9 L 1709.4 3032.3 L 1579.9 2983.3 L 1651.9 2724.1 L 1608.3 2528.4 L 1444.4 2287.3 L 1470 2211.9 L 1347.7 2185.1 L 1199.3 2014.6 L 1185.6 1846.3 L 1258.6 1878 L 1262.9 1728 L 1366 1678.4 L 1343.9 1589.6 L 1391.2 1518.4 L 1399.3 1302 L 1562.7 1349.7 L 1656 1177.3 L 1666.5 1075.4 L 1781.9 900 L 1775.6 780.4 L 2046.3 635.9 L 2195.7 673.7 L 2178.5 545 L 2251.8 506.7 L 2236.1 427.4 L 2358.4 411.9 L 2428.2 535 L 2519.5 584.8 L 2525.7 744.8 L 2517.2 917.3 L 2319.2 1091.9 L 2294.1 1339.9 L 2514.8 1305.2 L 2564.7 1497.7 L 2697.1 1538.2 L 2636.2 1711.9 L 2791.5 1790.4 L 2882 1828.9 L 3035.4 1768 L 3041.7 1854.5 L 2863.8 1990.5 L 2819.2 2067.5 Z" />
<path class="neighbor" d="M 2236.1 427.4 L 2251.8 506.7 L 2178.5 545 L 2195.7 673.7 L 2046.3 635.9 L 1775.6 780.4 L 1781.9 900 L 1666.5 1075.4 L 1656 1177.3 L 1562.7 1349.7 L 1399.3 1302 L 1391.2 1518.4 L 1343.9 1589.6 L 1366 1678.4 L 1262.9 1728 L 1152.7 1396.4 L 1095 1397 L 1060.8 1530.6 L 946.4 1422.3 L 1010.9 1303.3 L 1104.5 1291.2 L 1200.9 1114.3 L 1080.3 1078.6 L 886.4 1081.7 L 687.4 1053 L 669 907.6 L 569.2 897.3 L 403.6 806.9 L 329.7 948.8 L 480.6 1059.5 L 349.9 1137.4 L 303.5 1213.6 L 432.2 1269.6 L 396.6 1395.6 L 469.1 1552.8 L 501.6 1725 L 471.7 1801.4 L 329.4 1798.7 L 71.7 1842.1 L 83.7 1999.4 L -27.9 2123.1 L -328.8 2263.9 L -562.8 2509.9 L -720 2641.8 L -928.4 2778.6 L -928.7 2874.8 L -1032.9 2926.3 L -1221.3 3001.2 L -1318.9 3012.3 L -1381.6 3171.8 L -1338.1 3443.7 L -1327 3617.2 L -1415.6 3815.8 L -1416.6 4171 L -1524.8 4181.2 L -1619.9 4340.6 L -1556.3 4409.6 L -1746.9 4468.8 L -1817.4 4611 L -1901.3 4671.1 L -2099.3 4475.9 L -2196 4183.1 L -2276.3 3972.2 L -2349.5 3873.3 L -2460.6 3672.4 L -2512.5 3410.9 L -2548.6 3280.3 L -2738.8 2993.2 L -2825.4 2588 L -2888 2320.4 L -2887.2 2067.1 L -2927.8 1871.3 L -3232 1996.5 L -3379.4 1971.4 L -3652.6 1718 L -3552 1642.4 L -3613.8 1560.4 L -3859 1382.9 L -3719.8 1243.4 L -3259.7 1243.9 L -3301.2 1064.4 L -3418.6 958.4 L -3442.5 797.4 L -3579.3 703.5 L -3348.9 484.4 L -3106.1 500.3 L -2887.4 281.1 L -2756.3 68.9 L -2553.3 -140.9 L -2556.5 -290 L -2378.3 -410.9 L -2547 -514.2 L -2619.6 -655.7 L -2693.7 -838.9 L -2591.2 -929 L -2274 -878 L -2041 -909.1 L -1839 -1084.8 L -1614.3 -839.7 L -1635.5 -669.2 L -1552.3 -562.2 L -1559.1 -455.4 L -1709.2 -483.5 L -1650.6 -253 L -1445.1 -120.6 L -1154.5 25.6 L -1287.2 120.4 L -1368.4 316 L -1165.8 395.1 L -968.7 497.7 L -696 615 L -409.4 642.1 L -288.8 748.5 L -127.2 768.4 L 124.3 817.1 L 298.4 813.6 L 322.4 730.8 L 294.9 598 L 311 507.9 L 438.6 463.9 L 456.1 628.6 L 460.6 670.5 L 650.6 749.9 L 782.1 717.2 L 958.6 731.2 L 1129.2 725 L 1143.9 596.6 L 1058.8 529.8 L 1227.4 503.7 L 1417.7 348.2 L 1658.7 215 L 1834.1 266.4 L 1983.2 178.3 L 2081.2 308.4 L 2010.6 396.2 L 2236.1 427.4 Z" />
<path class="neighbor" d="M 1262.9 1728 L 1258.6 1878 L 1185.6 1846.3 L 1199.3 2014.6 L 1139.5 1905.6 L 1127.5 1799.1 L 1087.7 1698.4 L 1000.3 1576.7 L 807.7 1568.3 L 826.8 1654.5 L 761.1 1770.9 L 672.1 1728.5 L 641.7 1766.5 L 582.5 1743.7 L 501.6 1725 L 469.1 1552.8 L 396.6 1395.6 L 432.2 1269.6 L 303.5 1213.6 L 349.9 1137.4 L 480.6 1059.5 L 329.7 948.8 L 403.6 806.9 L 569.2 897.3 L 669 907.6 L 687.4 1053 L 886.4 1081.7 L 1080.3 1078.6 L 1200.9 1114.3 L 1104.5 1291.2 L 1010.9 1303.3 L 946.4 1422.3 L 1060.8 1530.6 L 1095 1397 L 1152.7 1396.4 L 1262.9 1728 Z" />
<path class="neighbor" d="M 311 507.9 L 294.9 598 L 322.4 730.8 L 298.4 813.6 L 124.3 817.1 L -127.2 768.4 L -288.8 748.5 L -409.4 642.1 L -696 615 L -968.7 497.7 L -1165.8 395.1 L -1368.4 316 L -1287.2 120.4 L -1154.5 25.6 L -1067.8 -24.5 L -900.2 39.8 L -689.1 176.1 L -571.6 206.1 L -501.5 306.5 L -339 347.7 L -169.3 439.5 L 67.2 487.5 L 311 507.9 Z" />
<path class="neighbor" d="M 4776.1 2531.7 L 4604.7 2466.9 L 4598.6 2287 L 4701.7 2192.3 L 4930.1 2133.7 L 5050.3 2138.6 L 5097 2218.4 L 5005.2 2310.4 L 4956.8 2431.2 L 4776.1 2531.7 Z M -1332.5 -2518.3 L -1349.2 -2637.5 L -1205.8 -2692 L -1394 -3055.2 L -979.8 -3138.7 L -872.7 -3185.3 L -721.9 -3559.6 L -307.1 -3490.8 L -190.8 -3585.3 L -180.8 -3795 L -7.1 -3814.5 L 152 -3953.7 L 233.8 -3970.9 L 288.7 -3825 L 464.5 -3714.2 L 762.7 -3635.6 L 907 -3467.2 L 826.5 -3222.9 L 901.7 -3132.2 L 1150.2 -3096.5 L 1431.8 -3067.3 L 1684.4 -2937 L 1813.7 -2913.8 L 1908.9 -2721 L 2031.6 -2596.9 L 2262.1 -2601.7 L 2693.7 -2554.9 L 2971.8 -2584 L 3178.2 -2552.8 L 3487.5 -2425.8 L 3740.5 -2426 L 3833.1 -2361 L 4076.5 -2473.2 L 4414.3 -2545.8 L 4727.7 -2553.8 L 4972 -2627.3 L 5122.1 -2739.3 L 5268.4 -2809.6 L 5234.6 -2878.6 L 5167.8 -2959 L 5277.5 -3093.8 L 5395.2 -3074.9 L 5610.1 -3032.5 L 5818.5 -3143.5 L 6137.3 -3224.5 L 6290.5 -3362.7 L 6437.7 -3422.2 L 6741.4 -3449.9 L 6906.4 -3426.4 L 6929.3 -3500.7 L 6739.8 -3646.8 L 6572 -3713.7 L 6411.3 -3636.5 L 6205 -3669.1 L 6086.6 -3642.5 L 6032.8 -3728 L 6180.5 -3936.9 L 6282.3 -4094.6 L 6533.3 -4015.6 L 6828 -4147.8 L 6826.1 -4239.8 L 7014.8 -4461.5 L 7131.1 -4528.6 L 7128.5 -4644 L 7013.8 -4693.7 L 7186.5 -4797.7 L 7446.3 -4835.4 L 7723.5 -4841.1 L 8036.5 -4778.8 L 8220.1 -4701.8 L 8349.3 -4491 L 8427.7 -4401 L 8500.5 -4272.6 L 8577.9 -4067.8 L 8941.8 -4000.9 L 9189.4 -3852.3 L 9274.1 -3655.8 L 9591.8 -3655.6 L 9773.1 -3738.1 L 10118.6 -3799.7 L 10008.7 -3611.6 L 9927.5 -3535 L 9855.9 -3306 L 9715.2 -3102.6 L 9461.5 -3139.6 L 9282 -3065.7 L 9337.1 -2886.7 L 9307 -2639.6 L 9200.2 -2634 L 9201.5 -2527.8 L 9066.5 -2651.2 L 8983.3 -2534 L 8660.4 -2444 L 8693.1 -2333.7 L 8512.3 -2341.3 L 8413 -2406.8 L 8269.4 -2258.5 L 8038.9 -2146.1 L 7868.7 -2012 L 7576.3 -1951.2 L 7422.4 -1853.5 L 7197.3 -1796.5 L 7308.4 -1893.3 L 7264.6 -1974.8 L 7430.2 -2115.3 L 7319.7 -2224.9 L 7137.5 -2151.1 L 6901.4 -2005.7 L 6772.6 -1870.6 L 6567.5 -1860.6 L 6460.9 -1763 L 6571.1 -1621.7 L 6742.2 -1587.3 L 6749.2 -1493.5 L 6914.6 -1432.4 L 7148.9 -1581.7 L 7334.6 -1500.3 L 7469.8 -1494.7 L 7503.7 -1385.2 L 7207.6 -1326.8 L 7110 -1213.9 L 6906.6 -1109 L 6799.3 -962.7 L 7024.3 -847.8 L 7106.5 -642.1 L 7233.7 -450.5 L 7375.7 -289.9 L 7372.3 -134.6 L 7241.1 -77.5 L 7291.1 34 L 7414.2 98.9 L 7382.1 269.3 L 7329 435 L 7212.1 453.7 L 7059.4 680.1 L 6890.1 954.5 L 6695.9 1204 L 6408.4 1397 L 6117.5 1573 L 5881.9 1597 L 5754.1 1689.9 L 5681.8 1622 L 5563.5 1725.9 L 5271.3 1830.6 L 5050.1 1862.7 L 4978.7 2083.5 L 4862.8 2095.8 L 4808 1944 L 4857.5 1863.1 L 4577 1796.2 L 4478.2 1830.2 L 4267.7 1776 L 4168.1 1691 L 4201.2 1570.6 L 4010 1532.4 L 3909.2 1454 L 3731 1565.4 L 3527.7 1589.5 L 3360.9 1588.5 L 3248.8 1639.5 L 3140.4 1670.1 L 3172 1909.3 L 3060.5 1903.6 L 3041.7 1854.5 L 3035.4 1768 L 2882 1828.9 L 2791.5 1790.4 L 2636.2 1711.9 L 2697.1 1538.2 L 2564.7 1497.7 L 2514.8 1305.2 L 2294.1 1339.9 L 2319.2 1091.9 L 2517.2 917.3 L 2525.7 744.8 L 2519.5 584.8 L 2428.2 535 L 2358.4 411.9 L 2236.1 427.4 L 2010.6 396.2 L 2081.2 308.4 L 1983.2 178.3 L 1834.1 266.4 L 1658.7 215 L 1417.7 348.2 L 1227.4 503.7 L 1058.8 529.8 L 967.2 473.6 L 856.8 468.5 L 707.3 420.1 L 594.4 473.2 L 456.1 628.6 L 438.6 463.9 L 311 507.9 L 67.2 487.5 L -169.3 439.5 L -339 347.7 L -501.5 306.5 L -571.6 206.1 L -689.1 176.1 L -900.2 39.8 L -1067.8 -24.5 L -1154.5 25.6 L -1445.1 -120.6 L -1650.6 -253 L -1709.2 -483.5 L -1559.1 -455.4 L -1552.3 -562.2 L -1635.5 -669.2 L -1614.3 -839.7 L -1839 -1084.8 L -2182.9 -1169.4 L -2244.8 -1330 L -2399.3 -1427.5 L -2436.5 -1487.5 L -2467.9 -1606.7 L -2460.6 -1688 L -2587.6 -1735.6 L -2656.3 -1714.6 L -2709.3 -1908.1 L -2649.8 -1955.9 L -2678.6 -2004.8 L -2479 -2103.6 L -2334.5 -2144.5 L -2113.2 -2116.5 L -2034.1 -2250 L -1765.9 -2274.8 L -1691.4 -2357.8 L -1361.9 -2471.1 L -1332.5 -2518.3 Z" />
<path class="lake" d="M 898.7 289.1 L 890.1 286.9 L 885.3 288.3 L 883 288.1 L 878.6 287.1 L 873.1 285.9 L 864.6 290.9 L 861.2 299.2 L 858.6 301.1 L 853.6 297.6 L 844.1 301.5 L 836.1 306.9 L 827.5 315.4 L 822.4 317.5 L 815.8 317.7 L 810.3 313.9 L 804.1 307.5 L 798.9 302.4 L 797.6 298.6 L 799.3 296.6 L 803.1 297.1 L 806.9 300.2 L 810.7 302.4 L 814.9 302.1 L 821.2 299.4 L 828.1 293.4 L 833.9 285.8 L 839.3 278.3 L 844.6 270.8 L 842.9 263.3 L 841.9 254.5 L 840.7 246.7 L 835.8 241.5 L 827.3 238.1 L 815.8 238.5 L 803.8 242.7 L 792.6 249.7 L 785.2 253.5 L 784.8 250.6 L 792.7 244.2 L 809.2 233.7 L 821.5 228.9 L 836.3 232.8 L 848.6 239.3 L 856.5 245.9 L 855.8 250.3 L 854.3 253.5 L 854.8 257.9 L 856.8 262.2 L 864.6 270.4 L 868.8 274.9 L 877.3 275.2 L 880.6 270.3 L 887.2 268 L 896.2 268.7 L 905.4 272.4 L 911.6 277.6 L 910.7 283.4 L 913.7 293 L 911.6 295.5 L 903.9 291.5 L 898.7 289.1 L 898.7 289.1 L 898.7 289.1 L 898.7 289.1 Z" />
<path class="country" d="M 1058.8 529.8 L 1143.9 596.6 L 1129.2 725 L 958.6 731.2 L 782.1 717.2 L 650.6 749.9 L 460.6 670.5 L 456.1 628.6 L 594.4 473.2 L 707.3 420.1 L 856.8 468.5 L 967.2 473.6 L 1058.8 529.8 Z" />

<path class="river" d="M 649.5 1249.4 L 644.2 1290.2 L 643 1326.3 L 650.6 1348 L 676.3 1377 L 702.8 1397.7 L 719.6 1407.7 L 759.9 1431.5 M 649.5 1249.4 L 664 1282.6 L 687.9 1301.3 L 728.2 1324.5 L 748.8 1345.8 L 749.6 1365.3 L 755 1374 L 765 1371.7 L 778.4 1379.4 L 803.6 1405.7 L 821.5 1415.3 M 1832.4 481.5 L 1842.3 506.4 L 1826.7 522.7 L 1788.9 538.7 L 1773.8 545.2 L 1771.1 548.3 L 1772.2 549.3 L 1775 549.9 L 1778.2 552 L 1778.4 556.5 L 1767 562.6 L 1743.7 568.7 L 1724 577.6 L 1707.8 589.5 L 1692 604.9 L 1676.7 623.9 L 1672.2 633.1 L 1665.3 642.3 L 1659 651.7 L 1657.2 663.9 L 1648.6 676.1 L 1633.1 688.2 L 1610.5 701.3 L 1580.7 715.2 L 1565.4 719 L 1545.2 718.9 L 1488.5 747.2 L 1415.6 745.8 L 1382.6 750.3 L 1365 760 L 1333.1 767.4 L 1286.8 772.3 L 1259.4 779.1 L 1250.8 787.8 L 1235.9 791.3 L 1214.7 789.6 L 1187.5 796.8 L 1154.6 812.8 L 1137.1 824.8 L 1135.1 832.9 L 1115.1 843.7 L 1047.7 866 L 1027.5 869.4 L 1004.3 868.8 L 965.5 862 L 945 857.5 L 924 860.2 L 895.8 868.8 L 862.9 867.9 L 825.3 857.6 L 778.5 863.8 L 722.5 886.7 L 681.1 920.9 L 654.2 966.7 L 641.1 1006.9 L 641.6 1041.5 L 637.2 1074.2 L 624.8 1103.9 L 623 1120.2 L 624.5 1131.4 L 647.4 1182.7 L 651.7 1232.4 L 649.5 1249.4" />
<path class="river" d="M 596 1679 L 583.9 1633 L 572.8 1615.1 L 557.6 1607.3 M 557.6 1607.3 L 549.5 1616.7 L 548.4 1643.5 L 554.8 1672.3 L 568.9 1703.1 L 574.1 1724.5 L 568.6 1742.4 L 568.2 1760.6 L 565.2 1780.9 L 568.9 1795 M 377.8 1530.4 L 366.4 1555.2 L 358.3 1582.9 L 357.7 1605.1 L 346.5 1621.8 L 324.6 1633 L 310.4 1650.9 L 304.1 1691.1 M 377.8 1530.4 L 394.3 1532.7 L 410.9 1532.8 L 428.5 1537.2 L 444 1545.3 L 457.4 1557.2 L 462 1568.8 L 457.9 1580.2 L 462.6 1590.2 L 476 1599 L 489 1629.8 L 505.4 1679.2 L 506.6 1697.7 L 505.7 1717.2 M 719.6 1407.7 L 724.1 1456.4 L 730.6 1474.9 L 741.9 1484.5 L 751.8 1490.2 L 755 1498.7 L 759.5 1503.4 L 766.5 1509.1 L 767.2 1516.2 L 769.9 1524.3 L 779.6 1535.7 L 779.6 1553.5 L 786.5 1574.6 L 795 1579.4 M 517.8 1320.2 L 540.6 1358.5 L 558 1374.4 L 574.7 1382.5 L 588.4 1393.7 L 599.4 1408 L 603.7 1417.8 L 601.3 1423.1 L 605.1 1426.5 L 615.1 1427.9 L 620 1434.9 L 619.9 1447.5 L 623.5 1457.1 L 627.2 1464.6 L 628.2 1474.8 L 632.9 1481 L 643.3 1487.4 L 645.2 1499.7 L 655 1523.4 L 688.6 1561 L 705.6 1593.4 L 706.9 1618.8 L 700.9 1639.1 M 517.8 1320.2 L 536.7 1332.6 L 553.7 1332.9 L 574.4 1339.1 L 598.9 1351.2 L 621.2 1355.5 L 651.6 1350.2 M 368.9 1237.1 L 392.5 1263.8 L 397.5 1274.9 L 396 1283.9 L 401.7 1291.5 L 414.6 1297.9 L 420.3 1306.1 L 418.9 1316.1 L 430.2 1325.2 L 454.2 1333.5 L 466.6 1348.6 L 467.3 1370.4 L 460.9 1388.4 L 447.3 1402.5 L 445.5 1416.6 L 455.4 1430.7 L 464.2 1435.4 L 470.8 1439 L 475.2 1446 L 479.5 1451.6 L 492.6 1458 L 495.3 1472.5 L 500.7 1488.7 L 513.5 1504 L 518.6 1519.1 L 515.8 1533.9 L 518.7 1550 L 527.1 1567.5 L 538.5 1580.1 L 551.1 1588.7 L 552.5 1589.7 L 551.6 1594.7 L 557.6 1607.3 M 368.9 1237.1 L 390.1 1246 L 420.2 1250.3 L 437.1 1261 L 441 1278 L 446.8 1288.3 L 454.4 1291.8 L 465.3 1291.1 L 479.5 1286.1 L 497 1295.7 L 517.8 1320.2 M 269.1 1146 L 273.3 1179.2 L 289.8 1205 L 322.4 1237.2 L 335.6 1269.5 L 329.6 1302 L 328.8 1330 L 333.3 1353.7 L 330.9 1372.9 L 324.2 1381.2 L 330.5 1394.4 L 342.7 1404.8 L 349.4 1414.1 L 357.9 1416.7 L 361.3 1431.3 L 359.5 1457.9 L 364.3 1474.2 L 375.8 1480.1 L 383.5 1488.6 L 387.5 1499.6 L 381.8 1521.8 L 377.8 1530.4 M 269.1 1146 L 274.6 1161 L 285.7 1180.2 L 302.4 1203.5 L 316.3 1216.9 L 332.9 1222.2 L 345.9 1218.2 L 356.4 1223.6 L 368.9 1237.1 M -1420.2 -121.8 L -1424.5 -111 L -1422.7 -100.6 L -1416.3 -87 L -1415.2 -78 L -1421.6 -71.6 L -1440.2 -49.6 L -1456.5 -45.2 L -1476.6 -51.1 L -1497.7 -44 L -1530.5 -13.9 L -1547.4 1 L -1562.7 4.4 L -1582.1 1.2 L -1608.7 2.9 L -1642.5 9.6 L -1665.2 21.8 L -1676.7 39.7 L -1696.4 45.1 L -1724.2 38.1 L -1746.3 44.5 L -1762.6 64.4 L -1769.4 87.1 L -1766.8 112.5 L -1775.9 132.3 L -1796.7 146.4 L -1800.4 170.2 L -1787.2 203.7 L -1782.9 235.2 L -1787.6 264.7 L -1784.5 297.7 L -1768.3 352.4 L -1754.4 373 L -1748.4 389.4 L -1745.7 408.4 L -1734.6 429.1 L -1715.1 451.5 L -1678.9 476.6 L -1626.2 504.4 L -1590.8 518.8 L -1572.6 519.7 L -1560.9 526.8 L -1555.9 540 L -1542.6 549 L -1521 553.7 L -1502.7 561.5 L -1487.5 572.5 L -1472.5 593.7 L -1457.6 625 L -1442.7 645.7 L -1420.7 660.8 L -1403.1 664.9 L -1387.2 686 L -1367.3 725.4 L -1337.2 764.8 L -1297 804.3 L -1273.2 833.9 L -1265.7 853.8 L -1250.6 871.4 L -1228 886.5 L -1205.2 892.4 L -1182.4 889.2 L -1152.1 902.6 L -1114.5 932.8 L -1095.3 953.5 L -1094.5 964.6 L -1082.1 974.3 L -1058.1 982.6 L -1042.1 991.5 L -1034.3 1001.1 L -1019.8 1005.1 L -998.6 1003.3 L -988.2 1007.6 L -988.9 1023.1 L -959.9 1044.1 L -943.6 1049.9 L -930.4 1047.4 L -923.7 1052.4 L -923.3 1055.2 L -921.5 1058.5 L -918.7 1058.9 L -915.5 1058 L -911.3 1054.7 L -906 1054.9 L -902.1 1061.3 L -896.6 1062 L -889.3 1057.2 L -877.6 1060.2 L -861.5 1071 L -853.2 1070.9 L -850.9 1067 L -846.4 1063.7 L -839.1 1063.4 L -804.4 1079.3 L -784.9 1079.8 L -766.9 1070.1 L -756.1 1059.5 L -752.7 1047.7 L -744.1 1040.4 L -730.6 1037.4 L -726.3 1030.7 L -731.3 1020.1 L -730.6 1010.8 L -724.1 1002.7 L -709.1 1000.9 L -685.7 1005.3 L -667.7 1012 L -657.3 1016.5 L -652.2 1012.8 L -652.2 1005.4 L -651.3 997.8 L -634.2 987.3 L -619.6 982.5 L -610.6 986 L -602.3 996.1 L -591.6 1000.9 L -578.5 1000.2 L -559.1 988.7 L -533.4 966.5 L -514.8 958.4 L -503.2 964.3 L -491.2 962.8 L -478.8 953.9 L -460.9 953.2 L -437.6 960.7 L -417.9 961.3 L -401.9 955 L -377.7 953.2 L -345.3 955.8 L -316.5 966.7 L -291.4 985.7 L -270.6 995.6 L -255.2 997.6 L -246.1 996.9 L -236.7 995.4 L -225.4 995.7 L -212.3 1006.1 L -195.8 1010.3 L -177.1 1006 L -157.4 1012.7 L -136.7 1030.6 L -111.9 1041.7 L -82.8 1046 L -54.8 1038.1 L -27.8 1018 L -12.9 1015.8 L -10.1 1031.5 L -3.4 1043.4 L 7.4 1051.7 L 23 1050.9 L 43.5 1041.1 L 69.4 1042.5 L 100.8 1055 L 122.5 1053.6 L 134.3 1038.2 L 150 1029.4 L 169.6 1027 L 185 1032.8 L 196.3 1046.7 L 211.4 1055.7 L 230.2 1059.7 L 239.7 1069 L 239.9 1083.4 L 249.1 1095.9 L 267.3 1106.6 L 273.8 1118.6 L 268.8 1131.8 L 269.1 1146" />
<path class="river" d="M -885 -22.1 L -817.6 -12.4 L -796.2 -13.6 L -783.5 -6.3 L -772.4 9.3 L -725.3 37.6 L -600.5 98.8 L -566.1 114 L -554.2 124.4 L -553.2 135.2 L -547.6 143.9 L -537.4 150.5 L -511.1 156.9 L -468.6 163.2 L -445.7 178.5 L -442.5 203 L -417.9 220 L -372 229.4 L -338.5 226.8 L -317.5 212.2 L -294.2 207.6 L -256 215.6 L -217.7 230.4 L -160.1 232.2 L -70.6 226.1 L 21.2 229.3 L 115.3 242 L 175.5 246.6 L 214.8 241.3" />
<path class="river" d="M 214.8 241.3 L 233 212.8 L 248.9 200 L 268.5 193.6 L 289.1 193.5 L 310.4 199.5 L 323.9 200.4 L 329.4 196.1 L 339.5 196.4 L 354.3 201.3 L 375.7 202.7 L 417.7 199.7 L 579.3 196.5 L 641.1 197.9 L 656.8 203 L 675.2 203.2 L 696.4 198.5 L 721.2 197.8 L 749.6 201.1 L 771.2 207.1 L 786 215.7 L 809.8 214.8 L 842.5 204.2 L 860.1 202 L 862.7 208.1 L 868.4 208.6 L 877.2 203.5 L 891.5 202.5 L 921.1 206.8 L 1138.1 214.2 L 1219.5 224.6 L 1237.5 240.6 L 1267.4 251.8 L 1309.3 258.5 L 1336.1 257.9 L 1347.7 249.9 L 1355.8 250.7 L 1360.2 260.3 L 1369.5 266.9 L 1383.5 270.4 L 1400.5 262.6 L 1420.5 243.7 L 1450.1 235.7 L 1489.2 238.9 L 1526.1 237.3 L 1560.7 230.8 L 1587.2 222.8 L 1614.8 208.3" />
<g class="city"><circle cx="1073.7144272727287" cy="866.4275818181814" r="5" /><text x="1085.7144272727287" y="870.4275818181814">Guwahati</text></g>
<g class="city"><circle cx="934.0335454545454" cy="138.15119090909153" r="5" /><text x="946.0335454545454" y="142.15119090909153">Lhasa</text></g>
<g class="city"><circle cx="628.5525636363652" cy="592.3045909090911" r="5" /><text x="640.5525636363652" y="596.3045909090911">Thimphu</text></g>
<g class="city"><circle cx="470.55009090909056" cy="220.74523636363705" r="5" /><text x="482.55009090909056" y="224.74523636363705">Xigaze</text></g>
<g class="city"><circle cx="1073.4189818181833" cy="870.1786727272721" r="5" /><text x="1085.4189818181833" y="874.1786727272721">Dispur</text></g>
<text class="map-title" x="80" y="105">Bhutan Physical Study Map</text>
<text class="map-subtitle" x="80" y="145">Landmark: Tiger's Nest Monastery | Study terrain and water systems</text>
  <text class="footer" x="80" y="1036">Made with Natural Earth. Free vector and raster map data @ naturalearthdata.com.</text>
</svg>
