<?xml version="1.0" encoding="UTF-8"?>
<svg xmlns="http://www.w3.org/2000/svg" width="1600" height="1100" viewBox="0 0 1600 1100" role="img" aria-labelledby="title desc">
  <title id="title">Bhutan Political Study Map</title>
  <desc id="desc">Made with Natural Earth. Free vector and raster map data @ naturalearthdata.com.</desc>
  <defs>
    <linearGradient id="terrain" x1="0" x2="1" y1="0" y2="1">
      <stop offset="0%" stop-color="#6c8c53" />
      <stop offset="42%" stop-color="#d5c487" />
      <stop offset="72%" stop-color="#b88b5f" />
      <stop offset="100%" stop-color="#f1f5ee" />
    </linearGradient>
    <filter id="softShadow" x="-10%" y="-10%" width="120%" height="120%">
      <feDropShadow dx="0" dy="10" stdDeviation="12" flood-color="#0f172a" flood-opacity="0.16" />
    </filter>
    <style>
      .neighbor { fill: #ffffff; stroke: #94a3b8; stroke-width: 1.2; opacity: 0.72; }
      .country { fill: #f7f1df; stroke: #1f2937; stroke-width: 4; filter: url(#softShadow); }
      .admin1 { fill: none; stroke: #64748b; stroke-width: 1.1; stroke-dasharray: 6 7; opacity: 0.75; }
      .river { fill: none; stroke: #1d9bd1; stroke-width: 3; stroke-linecap: round; opacity: 0.88; }
      .lake { fill: #8ed1ea; stroke: #0ea5e9; stroke-width: 1.5; opacity: 0.8; }
      .city circle { fill: #ef4444; stroke: #ffffff; stroke-width: 2; }
      .city text, .terrain-label { fill: #172033; font: 700 24px system-ui, sans-serif; paint-order: stroke; stroke: #ffffff; stroke-width: 5; stroke-linejoin: round; }
      .map-title { fill: #0f172a; font: 800 46px system-ui, sans-serif; }
      .map-subtitle { fill: #475569; font: 600 24px system-ui, sans-serif; }
      .footer { fill: #64748b; font: 500 18px system-ui, sans-serif; }
    </style>
  </defs>
  <rect width="100%" height="100%" fill="#eaf3f8" />
  <rect x="40" y="40" width="1520" height="1020" rx="32" fill="#ffffff" opacity="0.54" />
  <path class="neighbor" d="M 2819.2 2067.5 L 2699.5 2115.8 L 2577.4 2206.5 L 2429.8 2215.9 L 2334.5 2441.9 L 2246.3 2479.9 L 2347.3 2663.4 L 2480 2816 L 2565.6 2954 L 2489.1 3135.8 L 2416.9 3174.4 L 2466.8 3279.3 L 2606.3 3445.5 L 2630.2 3562.2 L 2626.9 3659.3 L 2708.6 3850 L 2593.8 4044.9 L 2492.5 4259.8 L 2472.3 4104.6 L 2536.6 3944.4 L 2466.3 3820.7 L 2483.3 3592.9 L 2398.4 3484.6 L 2330.3 3234.3 L 2292.5 2970.2 L 2202.1 2797 L 2064.3 2901.9 L 1826.7 3050.9 L 1709.4 3032.3 L 1579.9 2983.3 L 1651.9 2724.1 L 1608.3 2528.4 L 1444.4 2287.3 L 1470 2211.9 L 1347.7 2185.1 L 1199.3 2014.6 L 1185.6 1846.3 L 1258.6 1878 L 1262.9 1728 L 1366 1678.4 L 1343.9 1589.6 L 1391.2 1518.4 L 1399.3 1302 L 1562.7 1349.7 L 1656 1177.3 L 1666.5 1075.4 L 1781.9 900 L 1775.6 780.4 L 2046.3 635.9 L 2195.7 673.7 L 2178.5 545 L 2251.8 506.7 L 2236.1 427.4 L 2358.4 411.9 L 2428.2 535 L 2519.5 584.8 L 2525.7 744.8 L 2517.2 917.3 L 2319.2 1091.9 L 2294.1 1339.9 L 2514.8 1305.2 L 2564.7 1497.7 L 2697.1 1538.2 L 2636.2 1711.9 L 2791.5 1790.4 L 2882 1828.9 L 3035.4 1768 L 3041.7 1854.5 L 2863.8 1990.5 L 2819.2 2067.5 Z" />
<path class="neighbor" d="M 2236.1 427.4 L 2251.8 506.7 L 2178.5 545 L 2195.7 673.7 L 2046.3 635.9 L 1775.6 780.4 L 1781.9 900 L 1666.5 1075.4 L 1656 1177.3 L 1562.7 1349.7 L 1399.3 1302 L 1391.2 1518.4 L 1343.9 1589.6 L 1366 1678.4 L 1262.9 1728 L 1152.7 1396.4 L 1095 1397 L 1060.8 1530.6 L 946.4 1422.3 L 1010.9 1303.3 L 1104.5 1291.2 L 1200.9 1114.3 L 1080.3 1078.6 L 886.4 1081.7 L 687.4 1053 L 669 907.6 L 569.2 897.3 L 403.6 806.9 L 329.7 948.8 L 480.6 1059.5 L 349.9 1137.4 L 303.5 1213.6 L 432.2 1269.6 L 396.6 1395.6 L 469.1 1552.8 L 501.6 1725 L 471.7 1801.4 L 329.4 1798.7 L 71.7 1842.1 L 83.7 1999.4 L -27.9 2123.1 L -328.8 2263.9 L -562.8 2509.9 L -720 2641.8 L -928.4 2778.6 L -928.7 2874.8 L -1032.9 2926.3 L -1221.3 3001.2 L -1318.9 3012.3 L -1381.6 3171.8 L -1338.1 3443.7 L -1327 3617.2 L -1415.6 3815.8 L -1416.6 4171 L -1524.8 4181.2 L -1619.9 4340.6 L -1556.3 4409.6 L -1746.9 4468.8 L -1817.4 4611 L -1901.3 4671.1 L -2099.3 4475.9 L -2196 4183.1 L -2276.3 3972.2 L -2349.5 3873.3 L -2460.6 3672.4 L -2512.5 3410.9 L -2548.6 3280.3 L -2738.8 2993.2 L -2825.4 2588 L -2888 2320.4 L -2887.2 2067.1 L -2927.8 1871.3 L -3232 1996.5 L -3379.4 1971.4 L -3652.6 1718 L -3552 1642.4 L -3613.8 1560.4 L -3859 1382.9 L -3719.8 1243.4 L -3259.7 1243.9 L -3301.2 1064.4 L -3418.6 958.4 L -3442.5 797.4 L -3579.3 703.5 L -3348.9 484.4 L -3106.1 500.3 L -2887.4 281.1 L -2756.3 68.9 L -2553.3 -140.9 L -2556.5 -290 L -2378.3 -410.9 L -2547 -514.2 L -2619.6 -655.7 L -2693.7 -838.9 L -2591.2 -929 L -2274 -878 L -2041 -909.1 L -1839 -1084.8 L -1614.3 -839.7 L -1635.5 -669.2 L -1552.3 -562.2 L -1559.1 -455.4 L -1709.2 -483.5 L -1650.6 -253 L -1445.1 -120.6 L -1154.5 25.6 L -1287.2 120.4 L -1368.4 316 L -1165.8 395.1 L -968.7 497.7 L -696 615 L -409.4 642.1 L -288.8 748.5 L -127.2 768.4 L 124.3 817.1 L 298.4 813.6 L 322.4 730.8 L 294.9 598 L 311 507.9 L 438.6 463.9 L 456.1 628.6 L 460.6 670.5 L 650.6 749.9 L 782.1 717.2 L 958.6 731.2 L 1129.2 725 L 1143.9 596.6 L 1058.8 529.8 L 1227.4 503.7 L 1417.7 348.2 L 1658.7 215 L 1834.1 266.4 L 1983.2 178.3 L 2081.2 308.4 L 2010.6 396.2 L 2236.1 427.4 Z" />
<path class="neighbor" d="M 1262.9 1728 L 1258.6 1878 L 1185.6 1846.3 L 1199.3 2014.6 L 1139.5 1905.6 L 1127.5 1799.1 L 1087.7 1698.4 L 1000.3 1576.7 L 807.7 1568.3 L 826.8 1654.5 L 761.1 1770.9 L 672.1 1728.5 L 641.7 1766.5 L 582.5 1743.7 L 501.6 1725 L 469.1 1552.8 L 396.6 1395.6 L 432.2 1269.6 L 303.5 1213.6 L 349.9 1137.4 L 480.6 1059.5 L 329.7 948.8 L 403.6 806.9 L 569.2 897.3 L 669 907.6 L 687.4 1053 L 886.4 1081.7 L 1080.3 1078.6 L 1200.9 1114.3 L 1104.5 1291.2 L 1010.9 1303.3 L 946.4 1422.3 L 1060.8 1530.6 L 1095 1397 L 1152.7 1396.4 L 1262.9 1728 Z" />
<path class="neighbor" d="M 311 507.9 L 294.9 598 L 322.4 730.8 L 298.4 813.6 L 124.3 817.1 L -127.2 768.4 L -288.8 748.5 L -409.4 642.1 L -696 615 L -968.7 497.7 L -1165.8 395.1 L -1368.4 316 L -1287.2 120.4 L -1154.5 25.6 L -1067.8 -24.5 L -900.2 39.8 L -689.1 176.1 L -571.6 206.1 L -501.5 306.5 L -339 347.7 L -169.3 439.5 L 67.2 487.5 L 311 507.9 Z" />
<path class="neighbor" d="M 4776.1 2531.7 L 4604.7 2466.9 L 4598.6 2287 L 4701.7 2192.3 L 4930.1 2133.7 L 5050.3 2138.6 L 5097 2218.4 L 5005.2 2310.4 L 4956.8 2431.2 L 4776.1 2531.7 Z M -1332.5 -2518.3 L -1349.2 -2637.5 L -1205.8 -2692 L -1394 -3055.2 L -979.8 -3138.7 L -872.7 -3185.3 L -721.9 -3559.6 L -307.1 -3490.8 L -190.8 -3585.3 L -180.8 -3795 L -7.1 -3814.5 L 152 -3953.7 L 233.8 -3970.9 L 288.7 -3825 L 464.5 -3714.2 L 762.7 -3635.6 L 907 -3467.2 L 826.5 -3222.9 L 901.7 -3132.2 L 1150.2 -3096.5 L 1431.8 -3067.3 L 1684.4 -2937 L 1813.7 -2913.8 L 1908.9 -2721 L 2031.6 -2596.9 L 2262.1 -2601.7 L 2693.7 -2554.9 L 2971.8 -2584 L 3178.2 -2552.8 L 3487.5 -2425.8 L 3740.5 -2426 L 3833.1 -2361 L 4076.5 -2473.2 L 4414.3 -2545.8 L 4727.7 -2553.8 L 4972 -2627.3 L 5122.1 -2739.3 L 5268.4 -2809.6 L 5234.6 -2878.6 L 5167.8 -2959 L 5277.5 -3093.8 L 5395.2 -3074.9 L 5610.1 -3032.5 L 5818.5 -3143.5 L 6137.3 -3224.5 L 6290.5 -3362.7 L 6437.7 -3422.2 L 6741.4 -3449.9 L 6906.4 -3426.4 L 6929.3 -3500.7 L 6739.8 -3646.8 L 6572 -3713.7 L 6411.3 -3636.5 L 6205 -3669.1 L 6086.6 -3642.5 L 6032.8 -3728 L 6180.5 -3936.9 L 6282.3 -4094.6 L 6533.3 -4015.6 L 6828 -4147.8 L 6826.1 -4239.8 L 7014.8 -4461.5 L 7131.1 -4528.6 L 7128.5 -4644 L 7013.8 -4693.7 L 7186.5 -4797.7 L 7446.3 -4835.4 L 7723.5 -4841.1 L 8036.5 -4778.8 L 8220.1 -4701.8 L 8349.3 -4491 L 8427.7 -4401 L 8500.5 -4272.6 L 8577.9 -4067.8 L 8941.8 -4000.9 L 9189.4 -3852.3 L 9274.1 -3655.8 L 9591.8 -3655.6 L 9773.1 -3738.1 L 10118.6 -3799.7 L 10008.7 -3611.6 L 9927.5 -3535 L 9855.9 -3306 L 9715.2 -3102.6 L 9461.5 -3139.6 L 9282 -3065.7 L 9337.1 -2886.7 L 9307 -2639.6 L 9200.2 -2634 L 9201.5 -2527.8 L 9066.5 -2651.2 L 8983.3 -2534 L 8660.4 -2444 L 8693.1 -2333.7 L 8512.3 -2341.3 L 8413 -2406.8 L 8269.4 -2258.5 L 8038.9 -2146.1 L 7868.7 -2012 L 7576.3 -1951.2 L 7422.4 -1853.5 L 7197.3 -1796.5 L 7308.4 -1893.3 L 7264.6 -1974.8 L 7430.2 -2115.3 L 7319.7 -2224.9 L 7137.5 -2151.1 L 6901.4 -2005.7 L 6772.6 -1870.6 L 6567.5 -1860.6 L 6460.9 -1763 L 6571.1 -1621.7 L 6742.2 -1587.3 L 6749.2 -1493.5 L 6914.6 -1432.4 L 7148.9 -1581.7 L 7334.6 -1500.3 L 7469.8 -1494.7 L 7503.7 -1385.2 L 7207.6 -1326.8 L 7110 -1213.9 L 6906.6 -1109 L 6799.3 -962.7 L 7024.3 -847.8 L 7106.5 -642.1 L 7233.7 -450.5 L 7375.7 -289.9 L 7372.3 -134.6 L 7241.1 -77.5 L 7291.1 34 L 7414.2 98.9 L 7382.1 269.3 L 7329 435 L 7212.1 453.7 L 7059.4 680.1 L 6890.1 954.5 L 6695.9 1204 L 6408.4 1397 L 6117.5 1573 L 5881.9 1597 L 5754.1 1689.9 L 5681.8 1622 L 5563.5 1725.9 L 5271.3 1830.6 L 5050.1 1862.7 L 4978.7 2083.5 L 4862.8 2095.8 L 4808 1944 L 4857.5 1863.1 L 4577 1796.2 L 4478.2 1830.2 L 4267.7 1776 L 4168.1 1691 L 4201.2 1570.6 L 4010 1532.4 L 3909.2 1454 L 3731 1565.4 L 3527.7 1589.5 L 3360.9 1588.5 L 3248.8 1639.5 L 3140.4 1670.1 L 3172 1909.3 L 3060.5 1903.6 L 3041.7 1854.5 L 3035.4 1768 L 2882 1828.9 L 2791.5 1790.4 L 2636.2 1711.9 L 2697.1 1538.2 L 2564.7 1497.7 L 2514.8 1305.2 L 2294.1 1339.9 L 2319.2 1091.9 L 2517.2 917.3 L 2525.7 744.8 L 2519.5 584.8 L 2428.2 535 L 2358.4 411.9 L 2236.1 427.4 L 2010.6 396.2 L 2081.2 308.4 L 1983.2 178.3 L 1834.1 266.4 L 1658.7 215 L 1417.7 348.2 L 1227.4 503.7 L 1058.8 529.8 L 967.2 473.6 L 856.8 468.5 L 707.3 420.1 L 594.4 473.2 L 456.1 628.6 L 438.6 463.9 L 311 507.9 L 67.2 487.5 L -169.3 439.5 L -339 347.7 L -501.5 306.5 L -571.6 206.1 L -689.1 176.1 L -900.2 39.8 L -1067.8 -24.5 L -1154.5 25.6 L -1445.1 -120.6 L -1650.6 -253 L -1709.2 -483.5 L -1559.1 -455.4 L -1552.3 -562.2 L -1635.5 -669.2 L -1614.3 -839.7 L -1839 -1084.8 L -2182.9 -1169.4 L -2244.8 -1330 L -2399.3 -1427.5 L -2436.5 -1487.5 L -2467.9 -1606.7 L -2460.6 -1688 L -2587.6 -1735.6 L -2656.3 -1714.6 L -2709.3 -1908.1 L -2649.8 -1955.9 L -2678.6 -2004.8 L -2479 -2103.6 L -2334.5 -2144.5 L -2113.2 -2116.5 L -2034.1 -2250 L -1765.9 -2274.8 L -1691.4 -2357.8 L -1361.9 -2471.1 L -1332.5 -2518.3 Z" />

<path class="country" d="M 1058.8 529.8 L 1143.9 596.6 L 1129.2 725 L 958.6 731.2 L 782.1 717.2 L 650.6 749.9 L 460.6 670.5 L 456.1 628.6 L 594.4 473.2 L 707.3 420.1 L 856.8 468.5 L 967.2 473.6 L 1058.8 529.8 Z" />


<g class="city"><circle cx="1073.7144272727287" cy="866.4275818181814" r="5" /><text x="1085.7144272727287" y="870.4275818181814">Guwahati</text></g>
<g class="city"><circle cx="934.0335454545454" cy="138.15119090909153" r="5" /><text x="946.0335454545454" y="142.15119090909153">Lhasa</text></g>
<g class="city"><circle cx="628.5525636363652" cy="592.3045909090911" r="5" /><text x="640.5525636363652" y="596.3045909090911">Thimphu</text></g>
<g class="city"><circle cx="470.55009090909056" cy="220.74523636363705" r="5" /><text x="482.55009090909056" y="224.74523636363705">Xigaze</text></g>
<g class="city"><circle cx="1073.4189818181833" cy="870.1786727272721" r="5" /><text x="1085.4189818181833" y="874.1786727272721">Dispur</text></g>
<text class="map-title" x="80" y="105">Bhutan Political Study Map</text>
<text class="map-subtitle" x="80" y="145">Capital: Thimphu | Continent: Asia</text>
  <text class="footer" x="80" y="1036">Made with Natural Earth. Free vector and raster map data @ naturalearthdata.com.</text>
</svg>
