<?xml version="1.0" encoding="UTF-8"?>
<svg xmlns="http://www.w3.org/2000/svg" width="1600" height="1100" viewBox="0 0 1600 1100" role="img" aria-labelledby="title desc">
  <title id="title">Botswana Political Study Map</title>
  <desc id="desc">Made with Natural Earth. Free vector and raster map data @ naturalearthdata.com.</desc>
  <defs>
    <linearGradient id="terrain" x1="0" x2="1" y1="0" y2="1">
      <stop offset="0%" stop-color="#6c8c53" />
      <stop offset="42%" stop-color="#d5c487" />
      <stop offset="72%" stop-color="#b88b5f" />
      <stop offset="100%" stop-color="#f1f5ee" />
    </linearGradient>
    <filter id="softShadow" x="-10%" y="-10%" width="120%" height="120%">
      <feDropShadow dx="0" dy="10" stdDeviation="12" flood-color="#0f172a" flood-opacity="0.16" />
    </filter>
    <style>
      .neighbor { fill: #ffffff; stroke: #94a3b8; stroke-width: 1.2; opacity: 0.72; }
      .country { fill: #f7f1df; stroke: #1f2937; stroke-width: 4; filter: url(#softShadow); }
      .admin1 { fill: none; stroke: #64748b; stroke-width: 1.1; stroke-dasharray: 6 7; opacity: 0.75; }
      .river { fill: none; stroke: #1d9bd1; stroke-width: 3; stroke-linecap: round; opacity: 0.88; }
      .lake { fill: #8ed1ea; stroke: #0ea5e9; stroke-width: 1.5; opacity: 0.8; }
      .city circle { fill: #ef4444; stroke: #ffffff; stroke-width: 2; }
      .city text, .terrain-label { fill: #172033; font: 700 24px system-ui, sans-serif; paint-order: stroke; stroke: #ffffff; stroke-width: 5; stroke-linejoin: round; }
      .map-title { fill: #0f172a; font: 800 46px system-ui, sans-serif; }
      .map-subtitle { fill: #475569; font: 600 24px system-ui, sans-serif; }
      .footer { fill: #64748b; font: 500 18px system-ui, sans-serif; }
    </style>
  </defs>
  <rect width="100%" height="100%" fill="#eaf3f8" />
  <rect x="40" y="40" width="1520" height="1020" rx="32" fill="#ffffff" opacity="0.54" />
  <path class="neighbor" d="M 8595 275 L 8595 299.5 L 8563.1 311.8 L 8531 322.4 L 8524.6 303.7 L 8549.7 293.4 L 8565.6 290.6 L 8595 275 Z M 8500.9 347.1 L 8513.4 338.8 L 8530.7 353.3 L 8522.4 379.5 L 8491.3 386.4 L 8463.6 380.2 L 8458.8 358.2 L 8478.1 340.9 L 8500.9 347.1 Z M -9460 272.7 L -9466.2 296.8 L -9470.3 299.5 L -9470.3 275 L -9460 272.7 Z" />
<path class="neighbor" d="M 1034.7 -305.5 L 1043.7 -259.3 L 1038.7 -233.2 L 1048.7 -204.1 L 1077.8 -176 L 1104.9 -112.8 L 1104.9 -112.8 L 1085.1 -117.9 L 1017.7 -109.4 L 1004.3 -103.4 L 990 -71.4 L 1001.2 -49.3 L 992.3 10.2 L 986.1 60.5 L 999.7 69.5 L 1034.7 89 L 1048.5 79.9 L 1052.7 134 L 1014.3 133.6 L 993.7 105.9 L 975.2 84.6 L 936.7 77.5 L 925.5 51.2 L 894.8 67.1 L 854.6 60.1 L 837.9 37.3 L 806 32.7 L 782.5 33.9 L 779.6 18.3 L 762.3 17 L 739.4 14.1 L 708.3 21.6 L 686.5 20.4 L 674.1 25 L 676.8 -34.8 L 660.1 -53.4 L 656.4 -84.2 L 663.8 -114.5 L 653.6 -133.9 L 652.7 -165.4 L 591.8 -165 L 596.2 -183.1 L 570.6 -182.9 L 567.9 -174.2 L 536.7 -172.2 L 524.1 -143 L 516.6 -130.4 L 488.9 -137.5 L 472.3 -130.5 L 439.2 -126.4 L 419.9 -152.6 L 408.4 -168.9 L 394 -199 L 381.6 -236.4 L 233.5 -237 L 215.9 -231 L 201.4 -231.9 L 180.7 -225.2 L 173.7 -240.7 L 186.4 -246 L 188 -267.9 L 196.2 -280.8 L 214.5 -291.4 L 227.7 -286.3 L 244.8 -305.5 L 272.1 -305 L 275.4 -290.8 L 294.1 -281.9 L 323.6 -313.3 L 352.9 -337.8 L 365.6 -353.9 L 363.9 -395.2 L 385.7 -443.9 L 408.7 -469.8 L 441.7 -494 L 447.5 -510 L 448.7 -528.4 L 456.9 -545.8 L 454.3 -574.2 L 460.5 -618.7 L 470.3 -650 L 485.4 -676.8 L 488.3 -707.2 L 492.8 -742.1 L 512.4 -767.6 L 539.3 -783.8 L 580.5 -766.7 L 612.5 -748.2 L 649.2 -743.3 L 686.7 -733.5 L 701.7 -763.8 L 708.6 -767.7 L 731.4 -762.6 L 787.3 -787.7 L 807.1 -777 L 823.3 -778.6 L 830.9 -790.8 L 849.5 -795.1 L 887.3 -789.8 L 919.4 -788.6 L 936 -793.9 L 966.4 -752.5 L 988.9 -746.4 L 1002.4 -754.9 L 1025.6 -751.6 L 1053.5 -762.2 L 1065.4 -740.7 L 1109.6 -707.4 L 1109.6 -707.4 L 1106.6 -648.7 L 1126.7 -641.9 L 1110.6 -624.1 L 1091.3 -610.8 L 1072.1 -584.6 L 1061.5 -561.3 L 1058.7 -521 L 1047.1 -501.8 L 1046.7 -464 L 1032.2 -450 L 1030.4 -420.1 L 1023.5 -416.3 L 1018.8 -388.8 L 1031.5 -366 L 1034.7 -305.5 Z" />
<path class="neighbor" d="M 382.5 902.7 L 406.6 877.9 L 426.4 891.6 L 434.9 913.1 L 457.4 916.8 L 488.9 926.2 L 515.9 922.6 L 560.7 896.9 L 560.7 711.6 L 574.3 719.1 L 604 766.8 L 599.4 797.4 L 610.6 815 L 646.5 809.9 L 671.6 787.5 L 695.4 772.4 L 707.7 748.4 L 732.2 736.7 L 753.3 742.8 L 777.3 756.9 L 818.1 759.4 L 850.2 747.7 L 855.3 732 L 864.1 708 L 891.4 704 L 906.5 685.1 L 923.2 651.7 L 968.3 614.2 L 1039.3 577.3 L 1059.7 577.8 L 1084 586.3 L 1100.9 580.3 L 1127.6 585.3 L 1151.6 655.9 L 1164.7 691.6 L 1155.7 747.5 L 1160 765.6 L 1134.7 756.4 L 1120.2 759.9 L 1115.4 774.6 L 1101.7 793.4 L 1102.2 810.7 L 1132.1 837.9 L 1161.5 832.5 L 1171.7 810.2 L 1209.8 810.7 L 1197.3 847.2 L 1191.3 888.9 L 1178.3 911.5 L 1144.1 936.9 L 1134.3 944.1 L 1113 969.6 L 1099 995.4 L 1070.6 1031.4 L 1013.9 1083.1 L 978.4 1113.2 L 940.5 1136.1 L 888.1 1155.6 L 862.5 1158.2 L 856 1172.1 L 825.5 1164.7 L 800.7 1174.2 L 746.3 1164.6 L 715.9 1170.7 L 695.1 1168.1 L 643.4 1187.9 L 600.5 1195.8 L 569.5 1214.8 L 546.7 1216 L 525.5 1198.1 L 508.5 1197.2 L 486.9 1174.8 L 484.5 1181.7 L 477.9 1168.2 L 478.1 1138.8 L 461.8 1105.2 L 478 1096 L 476.7 1057.5 L 443.9 1010.6 L 418.7 968.1 L 418.6 967.9 L 382.5 902.7 Z M 1016.5 921.7 L 994.6 906.3 L 971.1 916.5 L 944 936.1 L 917.2 967.9 L 954.8 1006.5 L 972.8 1001.5 L 982 985.5 L 1010 977.7 L 1018.5 961.3 L 1033.9 936.9 L 1016.5 921.7 Z" />
<path class="neighbor" d="M 1016.5 921.7 L 1033.9 936.9 L 1018.5 961.3 L 1010 977.7 L 982 985.5 L 972.8 1001.5 L 954.8 1006.5 L 917.2 967.9 L 944 936.1 L 971.1 916.5 L 994.6 906.3 L 1016.5 921.7 Z" />
<path class="neighbor" d="M 1127.6 585.3 L 1100.9 580.3 L 1084 586.3 L 1059.7 577.8 L 1039.3 577.3 L 1007.3 554.6 L 968.5 546.9 L 953.7 515.1 L 953.6 497.4 L 932.1 492 L 875.3 436.9 L 859.5 407.8 L 849.4 398.9 L 830.1 358.7 L 886.2 364.2 L 902.5 370 L 919.5 368.9 L 947.3 336.4 L 990.9 295.1 L 1008.9 291.2 L 1015 273.8 L 1043.5 253.8 L 1081.5 246.9 L 1084.8 265.6 L 1126.6 264.6 L 1149.9 275.2 L 1160.7 287.6 L 1184.6 291.3 L 1210.7 307.4 L 1210.8 370.9 L 1201 405.7 L 1198.9 443.2 L 1206.9 458.1 L 1201.2 487.6 L 1193.7 492.2 L 1180.4 528.4 L 1127.6 585.3 Z" />
<path class="neighbor" d="M 560.7 711.6 L 560.7 896.9 L 515.9 922.6 L 488.9 926.2 L 457.4 916.8 L 434.9 913.1 L 426.4 891.6 L 406.6 877.9 L 382.5 902.7 L 345.3 864.8 L 325.6 828.2 L 314.5 779.3 L 302.2 743 L 285.4 665.7 L 284.2 605.6 L 277.8 578.3 L 258.3 557.6 L 232.4 516.1 L 206 455.9 L 195 424.4 L 154.2 375.4 L 151.2 336.9 L 175.3 327.4 L 205.4 318.8 L 237.9 320.3 L 267.8 343 L 275.4 339.5 L 478.8 337.3 L 513.6 361.4 L 635.1 368.5 L 727.3 348 L 768.4 336.6 L 800.9 339.5 L 820.7 350.8 L 821.1 355 L 792.8 366.3 L 777.6 366.4 L 745.6 386.1 L 726.4 365.4 L 649 383 L 611.7 384.6 L 610.2 563.4 L 560.7 565.1 L 560.7 711.6 Z" />
<path class="neighbor" d="M 1104.9 -112.8 L 1125.9 -100 L 1145.9 -91.6 L 1177.8 -83.2 L 1206.2 -68.1 L 1229.9 -45.7 L 1242.7 -3.1 L 1234.1 10.5 L 1224.1 51.2 L 1233.7 92.7 L 1217.9 110.2 L 1202.7 156.8 L 1229.1 169.8 L 1076.8 211.2 L 1081.5 246.9 L 1043.5 253.8 L 1015 273.8 L 1008.9 291.2 L 990.9 295.1 L 947.3 336.4 L 919.5 368.9 L 902.5 370 L 886.2 364.2 L 830.1 358.7 L 821.1 355 L 820.7 350.8 L 800.9 339.5 L 768.4 336.6 L 727.3 348 L 694.6 316.7 L 660.7 275.6 L 663 116 L 767.5 116.6 L 763.2 99.3 L 770.7 80.5 L 761.9 56.9 L 767.6 32.6 L 762.3 17 L 779.6 18.3 L 782.5 33.9 L 806 32.7 L 837.9 37.3 L 854.6 60.1 L 894.8 67.1 L 925.5 51.2 L 936.7 77.5 L 975.2 84.6 L 993.7 105.9 L 1014.3 133.6 L 1052.7 134 L 1048.5 79.9 L 1034.7 89 L 999.7 69.5 L 986.1 60.5 L 992.3 10.2 L 1001.2 -49.3 L 990 -71.4 L 1004.3 -103.4 L 1017.7 -109.4 L 1085.1 -117.9 L 1104.9 -112.8 Z" />
<path class="neighbor" d="M 1206.2 -68.1 L 1255.4 -58.7 L 1265.5 -44.9 L 1282.6 -21.5 L 1296.6 46.8 L 1282.6 84.9 L 1296.6 150.2 L 1314 149.4 L 1332.1 165.6 L 1353.2 201.9 L 1357.4 266.4 L 1335.7 277 L 1320.4 311.8 L 1287.6 280.8 L 1283.9 245.4 L 1294.5 222.1 L 1291.6 202 L 1271.8 189.3 L 1258 193.9 L 1229.1 169.8 L 1202.7 156.8 L 1217.9 110.2 L 1233.7 92.7 L 1224.1 51.2 L 1234.1 10.5 L 1242.7 -3.1 L 1229.9 -45.7 L 1206.2 -68.1 Z" />
<path class="neighbor" d="M 1296.6 46.8 L 1334.4 42.7 L 1394.7 56.9 L 1407.8 50.5 L 1442.7 49.2 L 1460.6 34.2 L 1490.7 35 L 1545.6 15.5 L 1585.5 -13.6 L 1585.5 -13.6 L 1585.5 -13.6 L 1593.6 8.9 L 1591.5 58.9 L 1597.7 103 L 1599.7 181.4 L 1608.5 206 L 1593.5 241.8 L 1574.1 276.7 L 1542.1 307.8 L 1496.2 326.9 L 1439.7 351.2 L 1383 405.1 L 1363.7 414.2 L 1328.6 449.9 L 1308 461.5 L 1303.7 497.3 L 1327.5 535.3 L 1337.4 564.7 L 1338 579.7 L 1346.9 577.2 L 1345.5 626.4 L 1337.3 649.7 L 1349.2 658.3 L 1341.7 679.2 L 1320.7 697.1 L 1279.3 714 L 1219 741.2 L 1197 759.7 L 1201.3 780.9 L 1214.1 784.3 L 1209.8 810.7 L 1171.7 810.2 L 1167.4 788.1 L 1160 765.6 L 1155.7 747.5 L 1164.7 691.6 L 1151.6 655.9 L 1127.6 585.3 L 1180.4 528.4 L 1193.7 492.2 L 1201.2 487.6 L 1206.9 458.1 L 1198.9 443.2 L 1201 405.7 L 1210.8 370.9 L 1210.7 307.4 L 1184.6 291.3 L 1160.7 287.6 L 1149.9 275.2 L 1126.6 264.6 L 1084.8 265.6 L 1081.5 246.9 L 1076.8 211.2 L 1229.1 169.8 L 1258 193.9 L 1271.8 189.3 L 1291.6 202 L 1294.5 222.1 L 1283.9 245.4 L 1287.6 280.8 L 1320.4 311.8 L 1335.7 277 L 1357.4 266.4 L 1353.2 201.9 L 1332.1 165.6 L 1314 149.4 L 1296.6 150.2 L 1282.6 84.9 L 1296.6 46.8 Z" />
<path class="neighbor" d="M 1171.7 810.2 L 1161.5 832.5 L 1132.1 837.9 L 1102.2 810.7 L 1101.7 793.4 L 1115.4 774.6 L 1120.2 759.9 L 1134.7 756.4 L 1160 765.6 L 1167.4 788.1 L 1171.7 810.2 Z" />
<path class="neighbor" d="M 214.5 -291.4 L 196.2 -280.8 L 188 -267.9 L 186.4 -246 L 173.7 -240.7 L 160.2 -278.5 L 180.5 -300.1 L 195.7 -308.6 L 214.5 -291.4 Z M 180.7 -225.2 L 201.4 -231.9 L 215.9 -231 L 233.5 -237 L 381.6 -236.4 L 394 -199 L 408.4 -168.9 L 419.9 -152.6 L 439.2 -126.4 L 472.3 -130.5 L 488.9 -137.5 L 516.6 -130.4 L 524.1 -143 L 536.7 -172.2 L 567.9 -174.2 L 570.6 -182.9 L 596.2 -183.1 L 591.8 -165 L 652.7 -165.4 L 653.6 -133.9 L 663.8 -114.5 L 656.4 -84.2 L 660.1 -53.4 L 676.8 -34.8 L 674.1 25 L 686.5 20.4 L 708.3 21.6 L 739.4 14.1 L 762.3 17 L 767.6 32.6 L 761.9 56.9 L 770.7 80.5 L 763.2 99.3 L 767.5 116.6 L 663 116 L 660.7 275.6 L 694.6 316.7 L 727.3 348 L 635.1 368.5 L 513.6 361.4 L 478.8 337.3 L 275.4 339.5 L 267.8 343 L 237.9 320.3 L 205.4 318.8 L 175.3 327.4 L 151.2 336.9 L 146.5 305.4 L 153.4 261.3 L 170.7 215.3 L 173.3 193.8 L 189.6 148.5 L 201.6 128 L 230.4 95.2 L 246.5 72.8 L 251.8 35.6 L 249.1 7.2 L 234.1 -10.7 L 220.8 -41.2 L 208.4 -71.3 L 211.1 -81.7 L 226.6 -101.6 L 211.3 -150.1 L 201.1 -183.7 L 175.9 -215.4 L 180.7 -225.2 Z" />

<path class="country" d="M 1039.3 577.3 L 968.3 614.2 L 923.2 651.7 L 906.5 685.1 L 891.4 704 L 864.1 708 L 855.3 732 L 850.2 747.7 L 818.1 759.4 L 777.3 756.9 L 753.3 742.8 L 732.2 736.7 L 707.7 748.4 L 695.4 772.4 L 671.6 787.5 L 646.5 809.9 L 610.6 815 L 599.4 797.4 L 604 766.8 L 574.3 719.1 L 560.7 711.6 L 560.7 565.1 L 610.2 563.4 L 611.7 384.6 L 649 383 L 726.4 365.4 L 745.6 386.1 L 777.6 366.4 L 792.8 366.3 L 821.1 355 L 830.1 358.7 L 849.4 398.9 L 859.5 407.8 L 875.3 436.9 L 932.1 492 L 953.6 497.4 L 953.7 515.1 L 968.5 546.9 L 1007.3 554.6 L 1039.3 577.3 Z" />


<g class="city"><circle cx="968.8226190220348" cy="781.8579374077576" r="5" /><text x="980.8226190220348" y="785.8579374077576">Johannesburg</text></g>
<g class="city"><circle cx="1118.507975638415" cy="967.1562428989107" r="5" /><text x="1130.507975638415" y="971.1562428989107">Durban</text></g>
<g class="city"><circle cx="1120.104750583278" cy="362.7293542177048" r="5" /><text x="1132.104750583278" y="366.7293542177048">Harare</text></g>
<g class="city"><circle cx="1197.6077001093197" cy="771.0806097967138" r="5" /><text x="1209.6077001093197" y="775.0806097967138">Maputo</text></g>
<g class="city"><circle cx="978.8297611568448" cy="758.6176860072305" r="5" /><text x="990.8297611568448" y="762.6176860072305">Pretoria</text></g>
<g class="city"><circle cx="981.5344931729724" cy="242.23627528124246" r="5" /><text x="993.5344931729724" y="246.23627528124246">Lusaka</text></g>
<g class="city"><circle cx="996.519689088592" cy="480.86430467494006" r="5" /><text x="1008.519689088592" y="484.86430467494006">Bulawayo</text></g>
<g class="city"><circle cx="1257.6290250598718" cy="170.4063429618879" r="5" /><text x="1269.6290250598718" y="174.4063429618879">Lilongwe</text></g>
<text class="map-title" x="80" y="105">Botswana Political Study Map</text>
<text class="map-subtitle" x="80" y="145">Capital: Gaborone | Continent: Africa</text>
  <text class="footer" x="80" y="1036">Made with Natural Earth. Free vector and raster map data @ naturalearthdata.com.</text>
</svg>
