<?xml version="1.0" encoding="UTF-8"?>
<svg xmlns="http://www.w3.org/2000/svg" width="1600" height="1100" viewBox="0 0 1600 1100" role="img" aria-labelledby="title desc">
  <title id="title">Botswana Physical Study Map</title>
  <desc id="desc">Made with Natural Earth. Free vector and raster map data @ naturalearthdata.com.</desc>
  <defs>
    <linearGradient id="terrain" x1="0" x2="1" y1="0" y2="1">
      <stop offset="0%" stop-color="#6c8c53" />
      <stop offset="42%" stop-color="#d5c487" />
      <stop offset="72%" stop-color="#b88b5f" />
      <stop offset="100%" stop-color="#f1f5ee" />
    </linearGradient>
    <filter id="softShadow" x="-10%" y="-10%" width="120%" height="120%">
      <feDropShadow dx="0" dy="10" stdDeviation="12" flood-color="#0f172a" flood-opacity="0.16" />
    </filter>
    <style>
      .neighbor { fill: #ffffff; stroke: #94a3b8; stroke-width: 1.2; opacity: 0.72; }
      .country { fill: url(#terrain); stroke: #1f2937; stroke-width: 4; filter: url(#softShadow); }
      .admin1 { fill: none; stroke: #64748b; stroke-width: 1.1; stroke-dasharray: 6 7; opacity: 0.75; }
      .river { fill: none; stroke: #1d9bd1; stroke-width: 3; stroke-linecap: round; opacity: 0.88; }
      .lake { fill: #8ed1ea; stroke: #0ea5e9; stroke-width: 1.5; opacity: 0.8; }
      .city circle { fill: #ef4444; stroke: #ffffff; stroke-width: 2; }
      .city text, .terrain-label { fill: #172033; font: 700 24px system-ui, sans-serif; paint-order: stroke; stroke: #ffffff; stroke-width: 5; stroke-linejoin: round; }
      .map-title { fill: #0f172a; font: 800 46px system-ui, sans-serif; }
      .map-subtitle { fill: #475569; font: 600 24px system-ui, sans-serif; }
      .footer { fill: #64748b; font: 500 18px system-ui, sans-serif; }
    </style>
  </defs>
  <rect width="100%" height="100%" fill="#d8edf0" />
  <rect x="40" y="40" width="1520" height="1020" rx="32" fill="#ffffff" opacity="0.54" />
  <path class="neighbor" d="M 8595 275 L 8595 299.5 L 8563.1 311.8 L 8531 322.4 L 8524.6 303.7 L 8549.7 293.4 L 8565.6 290.6 L 8595 275 Z M 8500.9 347.1 L 8513.4 338.8 L 8530.7 353.3 L 8522.4 379.5 L 8491.3 386.4 L 8463.6 380.2 L 8458.8 358.2 L 8478.1 340.9 L 8500.9 347.1 Z M -9460 272.7 L -9466.2 296.8 L -9470.3 299.5 L -9470.3 275 L -9460 272.7 Z" />
<path class="neighbor" d="M 1034.7 -305.5 L 1043.7 -259.3 L 1038.7 -233.2 L 1048.7 -204.1 L 1077.8 -176 L 1104.9 -112.8 L 1104.9 -112.8 L 1085.1 -117.9 L 1017.7 -109.4 L 1004.3 -103.4 L 990 -71.4 L 1001.2 -49.3 L 992.3 10.2 L 986.1 60.5 L 999.7 69.5 L 1034.7 89 L 1048.5 79.9 L 1052.7 134 L 1014.3 133.6 L 993.7 105.9 L 975.2 84.6 L 936.7 77.5 L 925.5 51.2 L 894.8 67.1 L 854.6 60.1 L 837.9 37.3 L 806 32.7 L 782.5 33.9 L 779.6 18.3 L 762.3 17 L 739.4 14.1 L 708.3 21.6 L 686.5 20.4 L 674.1 25 L 676.8 -34.8 L 660.1 -53.4 L 656.4 -84.2 L 663.8 -114.5 L 653.6 -133.9 L 652.7 -165.4 L 591.8 -165 L 596.2 -183.1 L 570.6 -182.9 L 567.9 -174.2 L 536.7 -172.2 L 524.1 -143 L 516.6 -130.4 L 488.9 -137.5 L 472.3 -130.5 L 439.2 -126.4 L 419.9 -152.6 L 408.4 -168.9 L 394 -199 L 381.6 -236.4 L 233.5 -237 L 215.9 -231 L 201.4 -231.9 L 180.7 -225.2 L 173.7 -240.7 L 186.4 -246 L 188 -267.9 L 196.2 -280.8 L 214.5 -291.4 L 227.7 -286.3 L 244.8 -305.5 L 272.1 -305 L 275.4 -290.8 L 294.1 -281.9 L 323.6 -313.3 L 352.9 -337.8 L 365.6 -353.9 L 363.9 -395.2 L 385.7 -443.9 L 408.7 -469.8 L 441.7 -494 L 447.5 -510 L 448.7 -528.4 L 456.9 -545.8 L 454.3 -574.2 L 460.5 -618.7 L 470.3 -650 L 485.4 -676.8 L 488.3 -707.2 L 492.8 -742.1 L 512.4 -767.6 L 539.3 -783.8 L 580.5 -766.7 L 612.5 -748.2 L 649.2 -743.3 L 686.7 -733.5 L 701.7 -763.8 L 708.6 -767.7 L 731.4 -762.6 L 787.3 -787.7 L 807.1 -777 L 823.3 -778.6 L 830.9 -790.8 L 849.5 -795.1 L 887.3 -789.8 L 919.4 -788.6 L 936 -793.9 L 966.4 -752.5 L 988.9 -746.4 L 1002.4 -754.9 L 1025.6 -751.6 L 1053.5 -762.2 L 1065.4 -740.7 L 1109.6 -707.4 L 1109.6 -707.4 L 1106.6 -648.7 L 1126.7 -641.9 L 1110.6 -624.1 L 1091.3 -610.8 L 1072.1 -584.6 L 1061.5 -561.3 L 1058.7 -521 L 1047.1 -501.8 L 1046.7 -464 L 1032.2 -450 L 1030.4 -420.1 L 1023.5 -416.3 L 1018.8 -388.8 L 1031.5 -366 L 1034.7 -305.5 Z" />
<path class="neighbor" d="M 382.5 902.7 L 406.6 877.9 L 426.4 891.6 L 434.9 913.1 L 457.4 916.8 L 488.9 926.2 L 515.9 922.6 L 560.7 896.9 L 560.7 711.6 L 574.3 719.1 L 604 766.8 L 599.4 797.4 L 610.6 815 L 646.5 809.9 L 671.6 787.5 L 695.4 772.4 L 707.7 748.4 L 732.2 736.7 L 753.3 742.8 L 777.3 756.9 L 818.1 759.4 L 850.2 747.7 L 855.3 732 L 864.1 708 L 891.4 704 L 906.5 685.1 L 923.2 651.7 L 968.3 614.2 L 1039.3 577.3 L 1059.7 577.8 L 1084 586.3 L 1100.9 580.3 L 1127.6 585.3 L 1151.6 655.9 L 1164.7 691.6 L 1155.7 747.5 L 1160 765.6 L 1134.7 756.4 L 1120.2 759.9 L 1115.4 774.6 L 1101.7 793.4 L 1102.2 810.7 L 1132.1 837.9 L 1161.5 832.5 L 1171.7 810.2 L 1209.8 810.7 L 1197.3 847.2 L 1191.3 888.9 L 1178.3 911.5 L 1144.1 936.9 L 1134.3 944.1 L 1113 969.6 L 1099 995.4 L 1070.6 1031.4 L 1013.9 1083.1 L 978.4 1113.2 L 940.5 1136.1 L 888.1 1155.6 L 862.5 1158.2 L 856 1172.1 L 825.5 1164.7 L 800.7 1174.2 L 746.3 1164.6 L 715.9 1170.7 L 695.1 1168.1 L 643.4 1187.9 L 600.5 1195.8 L 569.5 1214.8 L 546.7 1216 L 525.5 1198.1 L 508.5 1197.2 L 486.9 1174.8 L 484.5 1181.7 L 477.9 1168.2 L 478.1 1138.8 L 461.8 1105.2 L 478 1096 L 476.7 1057.5 L 443.9 1010.6 L 418.7 968.1 L 418.6 967.9 L 382.5 902.7 Z M 1016.5 921.7 L 994.6 906.3 L 971.1 916.5 L 944 936.1 L 917.2 967.9 L 954.8 1006.5 L 972.8 1001.5 L 982 985.5 L 1010 977.7 L 1018.5 961.3 L 1033.9 936.9 L 1016.5 921.7 Z" />
<path class="neighbor" d="M 1016.5 921.7 L 1033.9 936.9 L 1018.5 961.3 L 1010 977.7 L 982 985.5 L 972.8 1001.5 L 954.8 1006.5 L 917.2 967.9 L 944 936.1 L 971.1 916.5 L 994.6 906.3 L 1016.5 921.7 Z" />
<path class="neighbor" d="M 1127.6 585.3 L 1100.9 580.3 L 1084 586.3 L 1059.7 577.8 L 1039.3 577.3 L 1007.3 554.6 L 968.5 546.9 L 953.7 515.1 L 953.6 497.4 L 932.1 492 L 875.3 436.9 L 859.5 407.8 L 849.4 398.9 L 830.1 358.7 L 886.2 364.2 L 902.5 370 L 919.5 368.9 L 947.3 336.4 L 990.9 295.1 L 1008.9 291.2 L 1015 273.8 L 1043.5 253.8 L 1081.5 246.9 L 1084.8 265.6 L 1126.6 264.6 L 1149.9 275.2 L 1160.7 287.6 L 1184.6 291.3 L 1210.7 307.4 L 1210.8 370.9 L 1201 405.7 L 1198.9 443.2 L 1206.9 458.1 L 1201.2 487.6 L 1193.7 492.2 L 1180.4 528.4 L 1127.6 585.3 Z" />
<path class="neighbor" d="M 560.7 711.6 L 560.7 896.9 L 515.9 922.6 L 488.9 926.2 L 457.4 916.8 L 434.9 913.1 L 426.4 891.6 L 406.6 877.9 L 382.5 902.7 L 345.3 864.8 L 325.6 828.2 L 314.5 779.3 L 302.2 743 L 285.4 665.7 L 284.2 605.6 L 277.8 578.3 L 258.3 557.6 L 232.4 516.1 L 206 455.9 L 195 424.4 L 154.2 375.4 L 151.2 336.9 L 175.3 327.4 L 205.4 318.8 L 237.9 320.3 L 267.8 343 L 275.4 339.5 L 478.8 337.3 L 513.6 361.4 L 635.1 368.5 L 727.3 348 L 768.4 336.6 L 800.9 339.5 L 820.7 350.8 L 821.1 355 L 792.8 366.3 L 777.6 366.4 L 745.6 386.1 L 726.4 365.4 L 649 383 L 611.7 384.6 L 610.2 563.4 L 560.7 565.1 L 560.7 711.6 Z" />
<path class="neighbor" d="M 1104.9 -112.8 L 1125.9 -100 L 1145.9 -91.6 L 1177.8 -83.2 L 1206.2 -68.1 L 1229.9 -45.7 L 1242.7 -3.1 L 1234.1 10.5 L 1224.1 51.2 L 1233.7 92.7 L 1217.9 110.2 L 1202.7 156.8 L 1229.1 169.8 L 1076.8 211.2 L 1081.5 246.9 L 1043.5 253.8 L 1015 273.8 L 1008.9 291.2 L 990.9 295.1 L 947.3 336.4 L 919.5 368.9 L 902.5 370 L 886.2 364.2 L 830.1 358.7 L 821.1 355 L 820.7 350.8 L 800.9 339.5 L 768.4 336.6 L 727.3 348 L 694.6 316.7 L 660.7 275.6 L 663 116 L 767.5 116.6 L 763.2 99.3 L 770.7 80.5 L 761.9 56.9 L 767.6 32.6 L 762.3 17 L 779.6 18.3 L 782.5 33.9 L 806 32.7 L 837.9 37.3 L 854.6 60.1 L 894.8 67.1 L 925.5 51.2 L 936.7 77.5 L 975.2 84.6 L 993.7 105.9 L 1014.3 133.6 L 1052.7 134 L 1048.5 79.9 L 1034.7 89 L 999.7 69.5 L 986.1 60.5 L 992.3 10.2 L 1001.2 -49.3 L 990 -71.4 L 1004.3 -103.4 L 1017.7 -109.4 L 1085.1 -117.9 L 1104.9 -112.8 Z" />
<path class="neighbor" d="M 1206.2 -68.1 L 1255.4 -58.7 L 1265.5 -44.9 L 1282.6 -21.5 L 1296.6 46.8 L 1282.6 84.9 L 1296.6 150.2 L 1314 149.4 L 1332.1 165.6 L 1353.2 201.9 L 1357.4 266.4 L 1335.7 277 L 1320.4 311.8 L 1287.6 280.8 L 1283.9 245.4 L 1294.5 222.1 L 1291.6 202 L 1271.8 189.3 L 1258 193.9 L 1229.1 169.8 L 1202.7 156.8 L 1217.9 110.2 L 1233.7 92.7 L 1224.1 51.2 L 1234.1 10.5 L 1242.7 -3.1 L 1229.9 -45.7 L 1206.2 -68.1 Z" />
<path class="neighbor" d="M 1296.6 46.8 L 1334.4 42.7 L 1394.7 56.9 L 1407.8 50.5 L 1442.7 49.2 L 1460.6 34.2 L 1490.7 35 L 1545.6 15.5 L 1585.5 -13.6 L 1585.5 -13.6 L 1585.5 -13.6 L 1593.6 8.9 L 1591.5 58.9 L 1597.7 103 L 1599.7 181.4 L 1608.5 206 L 1593.5 241.8 L 1574.1 276.7 L 1542.1 307.8 L 1496.2 326.9 L 1439.7 351.2 L 1383 405.1 L 1363.7 414.2 L 1328.6 449.9 L 1308 461.5 L 1303.7 497.3 L 1327.5 535.3 L 1337.4 564.7 L 1338 579.7 L 1346.9 577.2 L 1345.5 626.4 L 1337.3 649.7 L 1349.2 658.3 L 1341.7 679.2 L 1320.7 697.1 L 1279.3 714 L 1219 741.2 L 1197 759.7 L 1201.3 780.9 L 1214.1 784.3 L 1209.8 810.7 L 1171.7 810.2 L 1167.4 788.1 L 1160 765.6 L 1155.7 747.5 L 1164.7 691.6 L 1151.6 655.9 L 1127.6 585.3 L 1180.4 528.4 L 1193.7 492.2 L 1201.2 487.6 L 1206.9 458.1 L 1198.9 443.2 L 1201 405.7 L 1210.8 370.9 L 1210.7 307.4 L 1184.6 291.3 L 1160.7 287.6 L 1149.9 275.2 L 1126.6 264.6 L 1084.8 265.6 L 1081.5 246.9 L 1076.8 211.2 L 1229.1 169.8 L 1258 193.9 L 1271.8 189.3 L 1291.6 202 L 1294.5 222.1 L 1283.9 245.4 L 1287.6 280.8 L 1320.4 311.8 L 1335.7 277 L 1357.4 266.4 L 1353.2 201.9 L 1332.1 165.6 L 1314 149.4 L 1296.6 150.2 L 1282.6 84.9 L 1296.6 46.8 Z" />
<path class="neighbor" d="M 1171.7 810.2 L 1161.5 832.5 L 1132.1 837.9 L 1102.2 810.7 L 1101.7 793.4 L 1115.4 774.6 L 1120.2 759.9 L 1134.7 756.4 L 1160 765.6 L 1167.4 788.1 L 1171.7 810.2 Z" />
<path class="neighbor" d="M 214.5 -291.4 L 196.2 -280.8 L 188 -267.9 L 186.4 -246 L 173.7 -240.7 L 160.2 -278.5 L 180.5 -300.1 L 195.7 -308.6 L 214.5 -291.4 Z M 180.7 -225.2 L 201.4 -231.9 L 215.9 -231 L 233.5 -237 L 381.6 -236.4 L 394 -199 L 408.4 -168.9 L 419.9 -152.6 L 439.2 -126.4 L 472.3 -130.5 L 488.9 -137.5 L 516.6 -130.4 L 524.1 -143 L 536.7 -172.2 L 567.9 -174.2 L 570.6 -182.9 L 596.2 -183.1 L 591.8 -165 L 652.7 -165.4 L 653.6 -133.9 L 663.8 -114.5 L 656.4 -84.2 L 660.1 -53.4 L 676.8 -34.8 L 674.1 25 L 686.5 20.4 L 708.3 21.6 L 739.4 14.1 L 762.3 17 L 767.6 32.6 L 761.9 56.9 L 770.7 80.5 L 763.2 99.3 L 767.5 116.6 L 663 116 L 660.7 275.6 L 694.6 316.7 L 727.3 348 L 635.1 368.5 L 513.6 361.4 L 478.8 337.3 L 275.4 339.5 L 267.8 343 L 237.9 320.3 L 205.4 318.8 L 175.3 327.4 L 151.2 336.9 L 146.5 305.4 L 153.4 261.3 L 170.7 215.3 L 173.3 193.8 L 189.6 148.5 L 201.6 128 L 230.4 95.2 L 246.5 72.8 L 251.8 35.6 L 249.1 7.2 L 234.1 -10.7 L 220.8 -41.2 L 208.4 -71.3 L 211.1 -81.7 L 226.6 -101.6 L 211.3 -150.1 L 201.1 -183.7 L 175.9 -215.4 L 180.7 -225.2 Z" />
<path class="lake" d="M 1331.7 185.2 L 1331.7 185.2 L 1331.7 185.2 L 1331.7 185.2 L 1332.9 189.6 L 1332.4 190.9 L 1331.6 191.5 L 1330.5 191.4 L 1328.4 188.9 L 1325.2 185.7 L 1321.1 180.1 L 1319.4 179.1 L 1316.6 178.7 L 1316 178 L 1315.8 174.8 L 1315.2 173.3 L 1314 172.3 L 1312.7 171.8 L 1311.5 172 L 1311.1 173 L 1311.6 175 L 1311.2 176.9 L 1309.9 178.8 L 1309.5 180.2 L 1309.9 181.1 L 1309.6 182.1 L 1307.1 184 L 1305.1 184.7 L 1304 184.4 L 1303.7 183.1 L 1302.5 182 L 1300.5 181 L 1298.6 179.2 L 1297 176.5 L 1295.9 173.6 L 1295.5 170.5 L 1295.9 168.1 L 1297.1 166.6 L 1298.4 163.5 L 1299.7 158.7 L 1298.9 154.6 L 1295.9 151.2 L 1293.5 149.5 L 1291.5 149.8 L 1289.1 147.6 L 1284.6 140.1 L 1284.2 138.4 L 1284.5 136.5 L 1285.5 134.4 L 1285.8 129 L 1285.1 118.3 L 1284.5 117.1 L 1283.5 113.9 L 1282.3 112.3 L 1281.9 110.6 L 1282.2 108.8 L 1281.7 107.5 L 1280.4 106.7 L 1279.2 105.2 L 1278.3 103.1 L 1278.4 95 L 1277.5 92.2 L 1276 90.6 L 1273.9 90.2 L 1272.2 88.6 L 1270.4 83.4 L 1270.1 81.3 L 1271.5 73.3 L 1273.5 69.7 L 1276.7 67.1 L 1278.2 64.9 L 1278.1 62.9 L 1279.6 60.3 L 1284.5 54.8 L 1284.7 53.5 L 1283 42 L 1281.6 36.3 L 1280.1 32.1 L 1279.7 29.1 L 1280.6 27.3 L 1280.8 25.7 L 1280.3 24.4 L 1278.7 1.3 L 1278 0.1 L 1278.3 -1.1 L 1279.4 -2.2 L 1280 -3.5 L 1279.9 -5.2 L 1280.4 -6.3 L 1281.5 -7 L 1281 -9.4 L 1278.7 -13.5 L 1276.3 -16.6 L 1271.4 -21.6 L 1269.3 -24.5 L 1267.7 -28.3 L 1265.6 -35.8 L 1264.4 -37.4 L 1263.8 -39.4 L 1263.7 -42 L 1264.3 -43.9 L 1266.2 -46.6 L 1266.5 -48.2 L 1266 -51.3 L 1266.6 -53 L 1268.3 -54.8 L 1272.9 -52.7 L 1284.6 -43 L 1285 -41.7 L 1292.4 -32 L 1294.8 -28 L 1294.8 -25.8 L 1297.1 -17.4 L 1297.6 -13.4 L 1297.1 -10.4 L 1297.2 -8 L 1298.1 -4.6 L 1297.8 -3.1 L 1300.4 1.9 L 1301.7 6.2 L 1302 10.3 L 1301.2 14.3 L 1298.9 20.2 L 1298.5 22.6 L 1299 24.7 L 1300.5 27.1 L 1303.1 29.6 L 1305 32.7 L 1306.2 36.2 L 1307.3 37.8 L 1308.7 37.8 L 1311.2 38.4 L 1313.2 40.4 L 1315.5 44 L 1316.6 49.7 L 1316.5 57.6 L 1315.4 64.4 L 1313.2 70.1 L 1311.5 73.3 L 1310.3 73.8 L 1308.1 75.6 L 1304.9 78.7 L 1303.6 80.9 L 1304.2 82.1 L 1304.3 84.9 L 1304.2 89.2 L 1303.8 91.1 L 1303.3 92.1 L 1308.2 103.1 L 1309 109.4 L 1307.3 114.5 L 1307.1 119.2 L 1308.7 123.3 L 1309.2 128.2 L 1308.6 134 L 1309.2 137.7 L 1310.9 139.4 L 1311.7 144.2 L 1311.6 152 L 1312 156.2 L 1313.1 157 L 1320.2 157.7 L 1321.5 158.3 L 1323.6 162.5 L 1327.7 174.5 L 1327.6 175.7 L 1331.7 185.2 Z M 1299.7 74.2 L 1299.7 74.2 L 1299.7 74.2 L 1299.7 74.2 L 1300.7 71.6 L 1299.8 70.1 L 1298.2 69.4 L 1296.3 70 L 1295.7 71.8 L 1297.6 74.2 L 1299.7 74.2 Z M 1301.7 75.9 L 1301.7 75.9 L 1301.7 75.9 L 1301.7 75.9 L 1302.8 76.8 L 1304.6 76.4 L 1305.9 75.3 L 1306.5 73.8 L 1306.4 72.4 L 1305.6 71.5 L 1304.4 71 L 1302.6 71.3 L 1302 73.3 L 1301.7 75.9 Z" />
<path class="lake" d="M 1017 302.3 L 1016 303 L 1014.7 304.6 L 1014.2 306.2 L 1012.6 305.9 L 1010.9 305.5 L 1010.3 308 L 1009 310.3 L 1007 311.3 L 1005.6 312.2 L 1003.8 311.6 L 1002.4 310.5 L 1002.5 309.1 L 1002 307.2 L 1000.3 306.7 L 998.2 307.5 L 996.8 308.1 L 995.2 308.7 L 992.9 309.7 L 991.2 311.4 L 990.4 313.5 L 990.6 315 L 990.2 315 L 988.4 313.6 L 986.6 311.5 L 984.5 311.2 L 979.5 312.6 L 975 313.7 L 973.3 314.8 L 972.5 316.6 L 971.6 319.1 L 971.9 320.7 L 972.6 321.4 L 972.3 322.6 L 971.2 324.1 L 969.8 325 L 967.4 324.4 L 965.3 323.8 L 964.5 324.3 L 963.1 325.8 L 960.9 327.7 L 959.4 329.1 L 958.1 329.6 L 954.9 330.6 L 952.6 332.2 L 951.5 333.3 L 950.8 334.5 L 950 336.5 L 947.9 340.9 L 946.1 344.4 L 945.6 344.6 L 944.8 345.6 L 942.4 347.3 L 940 348.5 L 939.3 349.5 L 939.8 349.8 L 940.4 349.8 L 940 350.3 L 937.7 350.9 L 934.9 352 L 934.1 352.8 L 931.6 355.6 L 928.7 359.6 L 927 362 L 925.5 364.2 L 923 367.6 L 921.1 369.8 L 919.8 370.1 L 918.3 369.9 L 918.2 368.3 L 919.2 367.2 L 920.5 365.7 L 922 364.3 L 922 362.3 L 922.6 360.5 L 925.8 356.4 L 930.1 352.4 L 931.9 351 L 933.2 350.1 L 934.2 349.4 L 935 348.3 L 935.8 347.1 L 935.9 345.8 L 934.5 344.9 L 935.9 341.3 L 938.9 336.8 L 940.9 334.2 L 944.8 329.4 L 947.8 325.4 L 949.4 325.2 L 950.8 325.6 L 951.8 325.1 L 951.7 323.9 L 952.6 321.7 L 953.2 319.7 L 952.6 318.8 L 953.3 318.2 L 955 317.9 L 957.4 317.6 L 958.9 316.8 L 958.3 315.2 L 956.8 313.6 L 957.1 312.7 L 958.7 312.3 L 960.3 311.4 L 961.2 310.4 L 962.3 310.2 L 963.3 310.9 L 964.5 311.6 L 966.2 312.7 L 967.9 313 L 969.5 312.6 L 971.1 311.3 L 972.7 309.5 L 974.3 308.5 L 975.8 307.1 L 976.4 305.7 L 976.2 304.5 L 977.7 304.1 L 979.7 303.2 L 981.6 301.7 L 982.4 300.1 L 982 298.9 L 983.2 299.2 L 985 299.7 L 986.1 300.4 L 987.1 301 L 989.6 299.6 L 992.4 298.7 L 994 299 L 995.1 298.5 L 995.5 297.8 L 996.4 297 L 998.7 296.4 L 1001.6 297.1 L 1005.6 298.3 L 1010.3 300.3 L 1012.5 300.2 L 1014.7 300.5 L 1015.9 301.6 L 1017 302.3 L 1017 302.3 L 1017 302.3 L 1017 302.3 Z" />
<path class="country" d="M 1039.3 577.3 L 968.3 614.2 L 923.2 651.7 L 906.5 685.1 L 891.4 704 L 864.1 708 L 855.3 732 L 850.2 747.7 L 818.1 759.4 L 777.3 756.9 L 753.3 742.8 L 732.2 736.7 L 707.7 748.4 L 695.4 772.4 L 671.6 787.5 L 646.5 809.9 L 610.6 815 L 599.4 797.4 L 604 766.8 L 574.3 719.1 L 560.7 711.6 L 560.7 565.1 L 610.2 563.4 L 611.7 384.6 L 649 383 L 726.4 365.4 L 745.6 386.1 L 777.6 366.4 L 792.8 366.3 L 821.1 355 L 830.1 358.7 L 849.4 398.9 L 859.5 407.8 L 875.3 436.9 L 932.1 492 L 953.6 497.4 L 953.7 515.1 L 968.5 546.9 L 1007.3 554.6 L 1039.3 577.3 Z" />

<path class="river" d="M 865.6 1001.5 L 862.1 1001.6 L 859.1 1003.3 L 855.2 1006.6 L 850.5 1007.4 L 842.3 1004.9 M 803.4 973.1 L 815.8 987.3" />
<path class="river" d="M 871.6 853.9 L 870 858.2 L 868.9 858.7 L 867.7 856.7 L 864.8 854.9 L 860.3 853.4 L 855.6 853.8 L 848.1 857.1 M 992.3 823.1 L 989.8 822.2 L 973.6 816.9" />
<path class="river" d="M 918.3 369.9 L 923.8 364.4 L 930.8 354 L 939.2 347.5 L 949.2 334.9 L 955.2 324.8 L 964 316.6 L 975.6 310.2 L 987.5 304.9 L 1005.6 298.3 M 1203.7 250.5 L 1193.1 249.8 L 1185.5 251 L 1177.4 253.9 L 1164.3 254.9 L 1146.4 254 L 1134.5 254.7 L 1128.6 256.7 L 1121.2 256.8 L 1107.7 253.6" />
<path class="river" d="M 372.5 103.7 L 374.9 102.7 L 377 104 L 379.7 107.3 L 381.7 112.1 L 383.5 121.6 L 386.9 143 L 386 156.7 L 382.1 170.1 L 379.7 181.1 L 378.9 189.7 L 380 196 L 383 200 L 387.6 203.4 L 393.8 206.3 L 397.7 212.4 L 399.3 221.7 L 402.9 229.8 L 408.3 236.7 L 412.6 241.2 L 415.7 243.3 L 421.4 245.2 L 429.9 246.9 L 434.4 249.3 L 435.1 252.3 L 438.6 257.3 L 444.8 264.2 L 448.7 272.6 L 450.3 282.3 L 453.9 292.6 L 459.4 303.6 L 470.4 319.4 L 495.1 350.4 L 501.6 357.1 L 507.1 360.2 L 513.5 362.1 L 519.6 362.8 L 525.3 362.4 L 534.7 363.2 L 547.9 365.4 L 561.5 366 L 575.7 365.1 L 585.7 366.3 L 591.4 369.6 L 597.3 371.8 L 603.4 373 L 611.5 372.3 L 621.8 369.8 L 630.6 370.1 L 641.4 375" />
<path class="river" d="M 925.1 52.1 L 924.4 58.3 L 926.4 63.4 L 933.1 72.8 L 935.6 78.6 L 939.5 83.7 L 945.7 89.9 L 950.1 92.4 L 952.7 91.2 L 958.5 91.9 L 967.5 94.7 L 974.2 100.3 L 978.6 108.7 L 979.4 118.2 L 976.7 128.7 L 973.7 135.3 L 970.4 138.1 L 965.6 139.5 L 959.2 139.7 L 955.4 141.5 L 954 145 L 951.8 146.9 L 948.7 147.4 L 947.5 149.8 L 948.2 154.2 L 945.4 159.7 L 939.1 166.4 L 936.6 171.8 L 937.9 176 L 937.8 179.5 L 936.3 182.3 L 933.1 185.3 L 928.4 188.5 L 923.3 190.5 L 915.2 191.8 L 900 193.3 L 892.1 197.2 L 886.6 203.8 L 881.7 205.9 L 877.4 203.6 L 874.6 203.7 L 873.4 206.4 L 873.6 208.2 L 875.2 209.1 L 876 210.8 L 876 213.5 L 872.7 215.4 L 866.2 216.8 L 864.4 218.8 L 867.3 221.4 L 867.8 224.1 L 865.9 227 L 865.4 235.9 L 866.4 250.8 L 869.4 259.3 L 874.6 261.4 L 881.4 260.4 L 889.8 256.2 L 895.6 254.7 L 898.7 256 L 904.6 254.9 L 913.2 251.3 L 921.3 251.8 L 928.6 256.5 L 935.9 257.6 L 943.2 255.2 L 946 255.2 L 948.6 255.8 L 949.5 255.7 L 950 254.8 L 951.1 253.9 L 952.8 253.8 L 962.1 254.5 L 969.3 256.8 L 975.9 260.6 L 981.2 262.1 L 985.1 261.2 L 991.6 262.9 L 1000.7 267.1 L 1007.7 269.3 L 1016.2 269.1" />
<path class="river" d="M 915.3 659.9 L 921.5 651.9 L 924.6 649.2 L 926.5 649.1 L 929.3 647.5 L 933 644.2 L 937.3 642.1 L 942.3 641.4 L 945.5 639.2 L 947 635.6 L 949.5 633.8 L 953.2 633.9 L 955.3 632.8 L 955.8 630.4 L 958 628.3 L 961.9 626.6 L 964 624.6 L 964.2 622.2 L 968.8 616.5 L 978 607.5 L 986.6 602.5 L 994.7 601.4 L 1002.3 599.6 L 1009.6 596.8 L 1014.9 592.5 L 1018.3 586.7 L 1024.1 583.4 L 1036.5 582.4 L 1050.9 580 L 1062.9 581.9 L 1077.3 587.3 L 1090.9 589.2 L 1103.5 587.6 L 1113.7 587.3 L 1121.6 588.1 L 1127.9 590 L 1132.4 592.9 L 1137.7 594.7 L 1143.6 595.3 L 1149.6 598.1 L 1155.5 602.8 L 1162 609.8 L 1168.9 619.1 L 1174.1 624.7 L 1177.6 626.7 L 1179.7 629.5 L 1180.6 633.2 L 1183.3 638 L 1188 644.2 L 1192.6 654.8 L 1197.1 669.9 L 1201.9 680.1 L 1209.5 688 L 1211.9 693.3 L 1213.6 695.1 L 1215.4 695.2 L 1218.8 697.4 L 1223.7 701.8 L 1227.5 703.8 L 1230.1 703.6 L 1231.6 704.4 L 1232 706 L 1234.8 708.1 L 1240 710.7 L 1242.7 711.8 L 1243.9 711.7 L 1244.7 711 L 1245.3 710.4 L 1246 710.1 L 1246.8 710.8 L 1248.3 714.3 L 1250 720.7 L 1249.1 725.3 L 1245.6 728.1 L 1244.2 730.4 L 1244.9 732.7" />
<path class="river" d="M 803.8 535.8 L 801.3 531.8 L 796.6 528.4 L 788.9 524.3 L 785.1 519.7 L 785.1 514.5 L 786.8 507.7 L 790.1 499.4 L 791.5 494.4 L 791 492.7 L 789.4 491.9 L 786.9 492.1 L 782.9 489.7 L 777.3 484.8 L 771.6 483.8 L 765.7 486.7 L 760.7 486.5 L 756.6 483 L 751.5 480.4 L 745.5 478.6 L 739.6 478.3 L 736.8 478.2 L 735.1 477.5 L 735 476.3 L 736.2 474.7 L 743.9 466.6 L 746.4 459 L 745.5 456.4 M 734.3 450 L 738.3 453.4 L 745.5 456.4 M 743 448.4 L 745.5 456.4 M 728.4 439.1 L 734.3 450 M 728.4 439.1 L 731.2 441.6 L 735.1 442.5 L 738.5 444.3 L 742.9 448.3 M 692.8 419.3 L 693.5 425.8 L 698.2 432.2 L 705 440.6 L 711.1 445.9 L 716.4 448.1 L 722.7 449.5 L 734.3 450 M 692.8 419.3 L 695.5 424.2 L 699.6 426.3 L 705.2 425.6 L 711.2 426.1 L 717.6 427.7 L 723 431.7 L 727.1 438 L 728.4 439.1 M 641.4 375 L 648.1 376.8 L 653.2 381.3 L 658.8 389 L 663.2 392.9 L 666.3 393.1 L 670.7 397.9 L 676.3 407.4 L 682.2 413.2 L 688.4 415.6 L 692.8 419.3" />
<path class="river" d="M 842.3 1004.9 L 834.1 1002.3 L 827.5 997.9 L 815.8 987.3 M 803.4 973.1 L 791.2 965 L 786.4 960.9 L 784.6 958 L 781.5 956.2 L 777.1 955.7 L 771.8 953.4 L 765.9 949.3 L 762.8 946.1 L 762.7 943.7 L 760.8 941.4 L 757.1 939.2 L 753.4 935.5 L 748 927.7 L 745.5 932.3 L 743.6 934.2 L 741.5 935.1 L 739.2 935 L 737.2 934.2 L 735.4 934.6 L 734 936.3 L 730.6 938.4 L 724.7 940.6 L 721.5 942.5 L 720.9 943.5 L 719.3 944.6 L 717.2 945.6 L 716.6 948.4 L 715.5 949.7 L 712.7 950.2 L 711.1 950.5 L 710 950.9 L 709.1 952 L 709.7 955.3 L 709 957.1 L 707.1 957.5 L 703.5 954.7 L 698.3 948.7 L 691.8 944.2 L 683.9 941.2 L 679.7 937.4 L 679.2 932.9 L 676.8 927 L 672.4 919.9 L 669.2 916.6 L 666.9 917.3 L 664.5 916.8 L 661.7 915.2 L 658.1 910 L 653.5 901.1 L 649.3 895.9 L 645.6 894.3 L 640.5 893.9 L 634.3 894.7 L 628 898.6 L 621.5 905.3 L 614.7 909.6 L 607.5 911.3 L 601.3 911.9 L 596.2 911.3 L 590.3 908.5 L 583.6 903.6 L 576.5 899.6 L 568.8 896.5 L 559.8 896.3 L 549.5 899.1 L 542.9 902.6 L 540 907 L 536.2 909.6 L 531.5 910.6 L 529.4 912.8 L 529.9 916.3 L 528.1 919 L 523.9 920.9 L 517.1 920.4 L 507.7 917.4 L 495.7 916.7 L 481.2 918.3 L 470.8 917.5 L 464.4 914.5 L 457.7 912.8 L 450.5 912.3 L 446.4 911.1 L 437.9 908.8 L 436.3 905 L 435.3 902 L 432.9 898.9 L 432.6 896.4 L 434.5 894.6 L 434.8 891.5 L 433.4 887.3 L 431.1 885.3 L 427.8 885.4 L 425.7 883.8 L 424.9 880.4 L 422.9 877.9 L 418.2 875.3 L 412.1 877.3 L 409.2 880.2 L 407.4 884.8 L 405.9 887.1 L 405.1 890.9 L 404.8 893.6 L 403.2 896.5 L 401.5 897.6 L 399.8 897.1 L 396.7 898.3 L 389.7 902.5 L 387.7 904.8 M 1020.5 928.1 L 1018.4 934.9 L 1015.5 937.8 L 1011 939.2 L 1008 942 L 1005.9 948.1 L 1003.6 951.6 L 1003.8 953.4 L 1005.7 954.7 L 1006 956.2 L 1004.8 958 L 1004.8 960.7 L 1006.2 964.2 L 1005.2 966.7 L 1001.9 968 L 1000.9 969.6 L 1002.2 971.5 L 1001.9 973.3 L 999.8 975 L 995.9 976.1 L 990.2 976.4 L 986.2 975.8 L 983.7 974.2 L 977.9 974.5 L 968.7 976.6 L 963.6 979.2 L 962.7 982.4 L 961.2 984.8 L 959.2 986.7 L 957 987.4 L 954.6 987 L 953 988.3 L 952.2 991.2 L 950.2 992.9 L 946.9 993.5 L 942.8 992.8 L 938.9 991.1 L 937.7 990.5 L 936.8 990.5 L 936.7 991 L 936.7 991.8 L 936.2 992.8 L 934.5 993.5 L 934.2 994.3 L 934.2 995 L 934 995.6 L 932.8 995.8 L 932 996.5 L 931.4 998 L 928.6 999.2 L 921.3 1000.3 L 919.3 1001.3 L 918.6 1002.9 L 916.6 1004.7 L 912.1 1007 L 907 1008.2 L 901.4 1008.2 L 896.2 1006.8 L 891.5 1003.7 L 887.2 1002.5 L 883.1 1003 L 879.4 1002 L 876.1 999.7 L 872.2 999.3 L 865.6 1001.5" />
<path class="river" d="M 848.1 857.1 L 835.2 861.6 L 828.1 866.5 L 822.4 873.3 L 816.4 877.3 L 810.1 878.4 L 805.5 881.2 L 802.8 885.7 L 801.5 890.6 L 801.7 896 L 800.6 898.7 L 798.3 899 L 797.1 900.4 L 796.9 902 L 795.9 903 L 794.5 902.1 L 792.6 901.6 L 790.2 902.5 L 788 901.7 L 786.8 899.3 L 784.7 897 L 781.6 895.5 L 777.5 897.5 L 772.4 903.2 L 768.7 910.1 L 766.3 918.1 L 760.8 923.4 L 748 927.6 M 973.6 816.9 L 967.4 809.4 L 962.8 808.3 L 957.9 811.1 L 953.1 812 L 948.7 810.9 L 945.2 812.2 L 942.6 815.6 L 939.2 817.1 L 934.8 816.8 L 931.1 817.9 L 927.9 820.4 L 923.2 820.4 L 917 818 L 914.4 818.1 L 913.3 820.2 L 911.5 821 L 908.4 820.3 L 902.1 823.1 L 892.5 829.4 L 889.6 832.5 L 889.6 834.5 L 890.5 835.4 L 891 837.6 L 890.1 840.1 L 890.4 841.8 L 888.7 843.6 L 883.8 844 L 878.5 846.7 L 871.6 853.9 M 1074.5 792.7 L 1078.3 797.4 L 1077.2 801.5 L 1070.2 809 L 1059.7 814.1 L 1052.6 815.8 L 1045.3 815.9 L 1041.4 816.9 L 1040.7 819.1 L 1038.4 819.8 L 1034.5 819.1 L 1031.1 820.2 L 1028.4 823.1 L 1025.4 824.8 L 1022.8 825.7 L 1020.7 825.8 L 1017.2 823.9 L 1014.3 823.9 L 1010.5 825 L 1006.5 824.5 L 1002.3 822.4 L 1000.8 822.4 L 1000.3 823.3 L 998.9 824.6 L 995.8 825.9 L 994 825.8 L 993.7 824.3 L 992.3 823.1" />
<path class="river" d="M 1370.8 388.9 L 1374.1 393.3 L 1375.9 398.9 L 1376.2 403.1 L 1374.9 406 L 1375.3 408.1 L 1376.4 409.6 L 1376.6 411.9 L 1375.1 414.2 M 1370.8 388.9 L 1393.9 400.9 M 1005.6 298.3 L 1009.2 292.9 L 1010.4 287 L 1010.4 278.7 L 1011.4 273.4 L 1013.2 271 L 1016.2 269.1 L 1020.1 266.6 L 1032 260.4 L 1042 256.4 L 1054.2 253.8 L 1107.7 253.6 M 1203.6 250.5 L 1214.6 250.8 L 1219.7 253.2 L 1222.8 257.8 L 1228.5 263.3 L 1237 269.7 L 1246.6 279 L 1262.7 297.1 L 1267.7 301.6 L 1278.8 306.6 L 1297.7 313.4 L 1308.4 317.9 L 1310.9 320 L 1313.5 324.7 L 1317.7 335.8 L 1323.5 347.9 L 1328.1 353.7 L 1333.3 357.2 L 1338.2 361.9 L 1342.8 368 L 1348.9 372.6 L 1356.6 376 L 1361.2 379.3 L 1362.7 382.6 L 1365.9 385.8 L 1370.8 388.9 M 780 39.7 L 783.1 36.3 L 783.5 32.7 L 782.1 27.8 L 778.1 25.8 L 767.8 27 L 754.2 37.4 L 746.6 41.9 L 740.4 44.1 L 735.9 46.9 L 733.1 50.1 L 725.2 55.1 L 712.2 62 L 704.4 68.5 L 701.8 74.6 L 699 79.2 L 695.8 82.3 L 694.1 88.3 L 693.6 97.1 L 695.5 105.5 L 699.5 113.5 L 701.3 119.3 L 700.8 123 L 704.1 127.7 L 714.7 136.4 L 717.7 138.9 L 720.2 144 L 723.4 152.7 L 725.8 157.5 L 727.6 158.5 L 728 160.4 L 726.9 163.2 L 726.9 166.7 L 727.9 170.9 L 727.8 174.6 L 726.4 177.8 L 726.3 182.1 L 727.5 187.5 L 726 193.5 L 721.9 200 L 718.2 210.6 L 714.9 225.3 L 715.6 235.4 L 720.2 240.8 L 722.8 245.6 L 723.3 249.7 L 722.9 252.8 L 721.5 254.9 L 722.5 258.4 L 726 263.5 L 728.9 272.3 L 731.2 284.9 L 741.2 299.2 L 758.9 315.2 L 770.5 328.8 L 778.6 345.8 L 803.5 347.8 L 813.5 349.1 L 817 350.3 L 821.5 353.6 L 829.9 361.6 L 839.5 364.2 L 844.8 364.4 L 849 363.1 L 854.1 364.9 L 860.2 369.6 L 866.8 370.5 L 874.1 367.5 L 883.8 368.4 L 896 373.1 L 906.2 374.1 L 918.3 369.9" />
<g class="city"><circle cx="968.8226190220348" cy="781.8579374077576" r="5" /><text x="980.8226190220348" y="785.8579374077576">Johannesburg</text></g>
<g class="city"><circle cx="1118.507975638415" cy="967.1562428989107" r="5" /><text x="1130.507975638415" y="971.1562428989107">Durban</text></g>
<g class="city"><circle cx="1120.104750583278" cy="362.7293542177048" r="5" /><text x="1132.104750583278" y="366.7293542177048">Harare</text></g>
<g class="city"><circle cx="1197.6077001093197" cy="771.0806097967138" r="5" /><text x="1209.6077001093197" y="775.0806097967138">Maputo</text></g>
<g class="city"><circle cx="978.8297611568448" cy="758.6176860072305" r="5" /><text x="990.8297611568448" y="762.6176860072305">Pretoria</text></g>
<g class="city"><circle cx="981.5344931729724" cy="242.23627528124246" r="5" /><text x="993.5344931729724" y="246.23627528124246">Lusaka</text></g>
<g class="city"><circle cx="996.519689088592" cy="480.86430467494006" r="5" /><text x="1008.519689088592" y="484.86430467494006">Bulawayo</text></g>
<g class="city"><circle cx="1257.6290250598718" cy="170.4063429618879" r="5" /><text x="1269.6290250598718" y="174.4063429618879">Lilongwe</text></g>
<text class="map-title" x="80" y="105">Botswana Physical Study Map</text>
<text class="map-subtitle" x="80" y="145">Landmark: Okavango Delta | Study terrain and water systems</text>
  <text class="footer" x="80" y="1036">Made with Natural Earth. Free vector and raster map data @ naturalearthdata.com.</text>
</svg>
