<?xml version="1.0" encoding="UTF-8"?>
<svg xmlns="http://www.w3.org/2000/svg" width="1600" height="1100" viewBox="0 0 1600 1100" role="img" aria-labelledby="title desc">
  <title id="title">Belarus Physical Study Map</title>
  <desc id="desc">Made with Natural Earth. Free vector and raster map data @ naturalearthdata.com.</desc>
  <defs>
    <linearGradient id="terrain" x1="0" x2="1" y1="0" y2="1">
      <stop offset="0%" stop-color="#6c8c53" />
      <stop offset="42%" stop-color="#d5c487" />
      <stop offset="72%" stop-color="#b88b5f" />
      <stop offset="100%" stop-color="#f1f5ee" />
    </linearGradient>
    <filter id="softShadow" x="-10%" y="-10%" width="120%" height="120%">
      <feDropShadow dx="0" dy="10" stdDeviation="12" flood-color="#0f172a" flood-opacity="0.16" />
    </filter>
    <style>
      .neighbor { fill: #ffffff; stroke: #94a3b8; stroke-width: 1.2; opacity: 0.72; }
      .country { fill: url(#terrain); stroke: #1f2937; stroke-width: 4; filter: url(#softShadow); }
      .admin1 { fill: none; stroke: #64748b; stroke-width: 1.1; stroke-dasharray: 6 7; opacity: 0.75; }
      .river { fill: none; stroke: #1d9bd1; stroke-width: 3; stroke-linecap: round; opacity: 0.88; }
      .lake { fill: #8ed1ea; stroke: #0ea5e9; stroke-width: 1.5; opacity: 0.8; }
      .city circle { fill: #ef4444; stroke: #ffffff; stroke-width: 2; }
      .city text, .terrain-label { fill: #172033; font: 700 24px system-ui, sans-serif; paint-order: stroke; stroke: #ffffff; stroke-width: 5; stroke-linejoin: round; }
      .map-title { fill: #0f172a; font: 800 46px system-ui, sans-serif; }
      .map-subtitle { fill: #475569; font: 600 24px system-ui, sans-serif; }
      .footer { fill: #64748b; font: 500 18px system-ui, sans-serif; }
    </style>
  </defs>
  <rect width="100%" height="100%" fill="#d8edf0" />
  <rect x="40" y="40" width="1520" height="1020" rx="32" fill="#ffffff" opacity="0.54" />
  <path class="neighbor" d="M 12075.7 -712.8 L 12171 -744 L 12171 -692.9 L 12089 -689.1 L 12075.7 -712.8 Z M 2382 1134.3 L 2347.9 1178.6 L 2275.4 1191 L 2201.1 1268.2 L 2269.1 1339.1 L 2261.7 1389.5 L 2343.4 1477.6 L 2343.4 1477.6 L 2298.7 1507.7 L 2285.9 1526.7 L 2252.8 1521.6 L 2201.4 1476.2 L 2180.4 1473.7 L 2133.4 1456.4 L 2110.5 1425.7 L 2040.7 1410 L 1995.4 1421.8 L 1982.3 1407.9 L 1880.5 1372 L 1770.4 1359.9 L 1707.1 1347.1 L 1698 1356 L 1602.7 1292.8 L 1517.4 1264.6 L 1452.8 1220.6 L 1507.2 1208.7 L 1569.2 1146.1 L 1527.4 1116.5 L 1637.7 1086 L 1635.7 1069.7 L 1568.5 1081.7 L 1570.9 1048.5 L 1609.5 1027.6 L 1681.8 1022.1 L 1693.6 997.2 L 1677.1 956 L 1707.4 916.8 L 1706.6 894.8 L 1596.3 870.5 L 1552.6 871.3 L 1506.5 836.3 L 1449.1 848.1 L 1354.1 821.8 L 1355.7 807.1 L 1329.1 774.7 L 1269.5 771.1 L 1263.3 747.9 L 1282 732.7 L 1234.2 690.4 L 1156.7 697.6 L 1133.9 693.9 L 1115.1 710.9 L 1087.1 707.8 L 1087.1 707.8 L 1068.7 660 L 1051.2 635.1 L 1065.6 628.1 L 1125.9 630.7 L 1155 614.4 L 1133.5 594.4 L 1083 581.3 L 1087.5 567.8 L 1057.1 554.1 L 1010.2 505.2 L 1026.2 485 L 1018.9 449.9 L 945.8 432.1 L 906.6 441 L 895.9 422.4 L 817.2 403.7 L 793.2 359.5 L 786.8 323.3 L 750.8 306 L 782.8 282.3 L 760.6 212.6 L 813.8 169.5 L 802.6 156.4 L 802.6 156.4 L 887.6 115.1 L 809.2 79.5 L 809.2 79.5 L 969.3 -15.9 L 1038.8 -59.1 L 1066.9 -97.3 L 956.2 -148.5 L 986.8 -197.2 L 919.5 -252.9 L 969.8 -317 L 882.9 -402.1 L 951.9 -458.5 L 837.3 -508.3 L 848.3 -560.7 L 908.7 -567.6 L 1035.9 -597.6 L 1035.9 -597.6 L 1113.1 -623.6 L 1235.9 -578.4 L 1440.7 -560.6 L 1723.3 -476 L 1780.7 -440.5 L 1785.6 -390.7 L 1702.6 -351.4 L 1580.5 -331.5 L 1246.6 -388.3 L 1191.7 -378.8 L 1313.6 -324 L 1318.4 -289.4 L 1323.3 -212.9 L 1419.6 -190.1 L 1478 -170.7 L 1487.7 -207 L 1442.6 -239.1 L 1490.2 -267.4 L 1671 -220.9 L 1734 -239.1 L 1683.6 -293.9 L 1857.9 -367.1 L 1926.9 -362.8 L 1996.8 -336.7 L 2040.3 -388.1 L 1978 -432.7 L 2014.6 -477.4 L 1959.6 -523.8 L 2168.8 -499.8 L 2211.5 -457.9 L 2116.8 -448.7 L 2117.3 -407.1 L 2176.2 -381.4 L 2291.7 -397.7 L 2310 -445.4 L 2466.2 -481 L 2727.2 -545.2 L 2783.6 -541.5 L 2709.9 -496.1 L 2802.7 -488.3 L 2856.2 -513.9 L 2996.4 -516 L 3107.5 -547 L 3192.7 -501.9 L 3277.7 -551.4 L 3199.3 -594.8 L 3238.2 -619.4 L 3459.1 -596.8 L 3562.6 -573.4 L 3833.6 -488 L 3883.6 -527.1 L 3807.6 -566.7 L 3805.4 -582.5 L 3715.3 -589.9 L 3740 -625.3 L 3700 -683.7 L 3697.7 -707.6 L 3835.7 -775.3 L 3884.8 -843.3 L 3940.4 -858 L 4138.4 -838.3 L 4154 -796.7 L 4083.1 -736 L 4129.6 -712.2 L 4153.7 -659.9 L 4136.7 -557.4 L 4219.2 -511.6 L 4187.1 -461.7 L 4040.6 -355.4 L 4126.1 -344.4 L 4155.8 -371.4 L 4238.1 -390.6 L 4258 -427.6 L 4322.7 -463.2 L 4279.1 -505.7 L 4314 -555.1 L 4232.2 -561.2 L 4214.2 -602.8 L 4273.9 -677.9 L 4176.8 -738.9 L 4310.6 -789.3 L 4293.3 -842.5 L 4330.6 -844.2 L 4369.9 -802.7 L 4340.4 -730.5 L 4420.4 -716.9 L 4386.3 -770.8 L 4511.5 -800.2 L 4666.7 -804.2 L 4804.9 -761.5 L 4738.4 -823.8 L 4730.9 -903.5 L 4861 -918.6 L 5040.8 -915.3 L 5202.9 -925.1 L 5142.1 -964.2 L 5228.7 -1013.3 L 5314.6 -1015.3 L 5460 -1052.4 L 5657.4 -1062.4 L 5682.4 -1082.9 L 5878.8 -1089.8 L 5940 -1073 L 6107.8 -1112.8 L 6245.2 -1111.5 L 6265.8 -1143.8 L 6337.2 -1175.6 L 6513.8 -1206.3 L 6642 -1182.1 L 6540.2 -1163.7 L 6709.6 -1152.2 L 6729.8 -1115.2 L 6798.1 -1133.4 L 7016.8 -1132.4 L 7185.3 -1096 L 7245.4 -1068 L 7226.8 -1029.1 L 7144 -1006.9 L 6947.5 -965.4 L 6891.3 -943.2 L 6984.1 -932.8 L 7094.7 -913.9 L 7162 -928.1 L 7200.1 -880.1 L 7233 -899.5 L 7352.6 -911.3 L 7592.5 -898.9 L 7610.7 -864 L 7923.4 -852.8 L 7927.6 -910 L 8086.4 -896.9 L 8205.7 -897.3 L 8326.5 -857.9 L 8360.9 -810 L 8316.7 -778.7 L 8410.6 -719.9 L 8528.2 -689.5 L 8600.4 -768 L 8720.3 -734.3 L 8847.8 -754.4 L 8992.5 -731.4 L 9047.6 -752.4 L 9169.9 -741.9 L 9116 -811.3 L 9214.7 -843.7 L 9890.1 -795.2 L 9953.8 -750.8 L 10149.5 -693.6 L 10451.5 -707.8 L 10600.4 -695.5 L 10662.6 -664.5 L 10653.6 -609.9 L 10745.7 -588.6 L 10845.8 -603.9 L 10978.4 -605.8 L 11119.6 -591.2 L 11261.3 -599.4 L 11391.6 -533 L 11484.3 -556.9 L 11423.8 -604.7 L 11457.1 -637.9 L 11695.7 -617 L 11851.2 -621.5 L 12066.3 -585.8 L 12171 -553.1 L 12171 -255.2 L 12170.5 -254.8 L 12074.3 -222 L 11977.4 -227.4 L 12044.8 -187.6 L 12089.4 -126 L 12123.9 -105.9 L 12132.6 -74.9 L 12113.3 -55.1 L 11973.9 -71.4 L 11764.9 -15.1 L 11698.4 -6.4 L 11584 46.1 L 11475.4 92 L 11447.9 126 L 11340.9 74.3 L 11146.1 133 L 11112.1 105.2 L 11040 137.3 L 10940 127 L 10915.9 176.2 L 10826.2 248.6 L 10828.9 278.8 L 10914 295.5 L 10904 404.4 L 10834.6 407.2 L 10802.6 469.7 L 10833.7 501.9 L 10702.9 540.1 L 10677 625.5 L 10565.5 643.8 L 10543.1 719.7 L 10435.3 789.4 L 10407.6 737.9 L 10375.6 628.8 L 10333.9 462.6 L 10369.8 358.9 L 10432.9 314.3 L 10436.8 279.3 L 10553 262.6 L 10686.6 168.4 L 10815.3 91.5 L 10949.8 31.9 L 11009.9 -73.6 L 10919 -67.3 L 10874.1 -5.6 L 10684.4 76.5 L 10623.2 -15.5 L 10430.1 9.9 L 10242.9 135.3 L 10304.7 181.1 L 10137.8 200.7 L 10022.2 208.4 L 10027.6 154.3 L 9911.3 142.9 L 9818.7 179.7 L 9590 166.8 L 9344 189 L 9101.8 334.9 L 8815.2 511.3 L 8933 520.7 L 8969.8 567.6 L 9042.4 584.2 L 9090.3 546.8 L 9172.3 551.7 L 9280.3 634 L 9282.8 697.6 L 9224.4 772.3 L 9218.1 861.6 L 9184.3 981.2 L 9071.6 1089.4 L 9046.5 1141.1 L 8945 1228.2 L 8844.3 1314.5 L 8796 1358.7 L 8696.3 1402.6 L 8649.2 1403.6 L 8602.2 1367.2 L 8501.8 1421.9 L 8490.2 1446.8 L 8490.2 1446.8 L 8490.2 1446.8 L 8490.2 1446.8 L 8479.7 1433.7 L 8479.7 1433.7 L 8479.3 1395.7 L 8517.5 1393.7 L 8528.2 1305.4 L 8508.5 1241.3 L 8572.7 1214.9 L 8663.5 1228.1 L 8713.8 1155.4 L 8739.4 1073.5 L 8768.4 1046.1 L 8807.7 978.8 L 8684.1 1000.9 L 8619.3 1030.4 L 8505.7 1030.3 L 8475.4 960 L 8386.8 906.8 L 8256.7 882.9 L 8229 809.7 L 8203 763.8 L 8174.9 731.6 L 8128.7 656.2 L 8063 628.6 L 7951.1 606.4 L 7852 608.4 L 7759 621.9 L 7697.3 659.1 L 7738.3 676.8 L 7739.2 718.1 L 7697.6 742.1 L 7630.1 821.4 L 7630.8 854.3 L 7525.4 901.6 L 7435.7 873.3 L 7346.4 879.6 L 7307.3 854.5 L 7262.4 846.4 L 7152.9 899.1 L 7054.4 911.5 L 6985.7 930.1 L 6891.5 917.9 L 6822.2 918.7 L 6776.8 880.4 L 6703.5 844.5 L 6628.6 834.6 L 6534 844.4 L 6463.3 858.3 L 6357.1 826.8 L 6342.8 770.8 L 6254.9 751.6 L 6187 742.8 L 6103.2 711.9 L 6025.8 789.4 L 6056.1 833.4 L 5983.4 885.5 L 5875.3 866.7 L 5800.7 864 L 5750.7 829.1 L 5672.7 828 L 5607.7 805 L 5493.9 840.2 L 5351.2 904.6 L 5272.4 917.6 L 5243.1 923.7 L 5203.4 878 L 5107.1 888 L 5075.3 856.2 L 5023 841.7 L 4987 798.5 L 4945.7 785.1 L 4838.2 804.3 L 4735.2 761.2 L 4695.4 800.3 L 4528.3 610.4 L 4432.8 552.6 L 4460.2 529.2 L 4272.8 599.8 L 4201.1 604 L 4207.3 563.2 L 4111.2 537.7 L 4033.1 555.9 L 4009.6 478.4 L 3875.2 462.3 L 3808 493.3 L 3620.8 520.9 L 3584.3 539.4 L 3304.5 565.4 L 3270.2 590.9 L 3324.2 642.2 L 3252.4 661.6 L 3266.4 682 L 3194.6 718.4 L 3315.8 769.8 L 3297.1 805.3 L 3192 802 L 3170.3 824.2 L 3074.7 785.5 L 2956.1 787 L 2876.7 818.5 L 2788.2 788.3 L 2623.4 736.5 L 2506.6 738.4 L 2352.2 819.8 L 2342.9 874.4 L 2266 831 L 2206.3 913.2 L 2228.1 928.4 L 2185 985.1 L 2248.4 1035.8 L 2303.9 1033.7 L 2351.6 1083.7 L 2344 1122.2 L 2382 1134.3 Z M 5723 -1455.1 L 5884.8 -1472 L 6030.1 -1434.3 L 6202.3 -1362 L 6183.9 -1294.8 L 6020.7 -1285.5 L 5812.4 -1307 L 5688.3 -1335.6 L 5630.9 -1389.2 L 5528.9 -1404 L 5723 -1455.1 Z M 6400.6 -1324.7 L 6590.1 -1282.3 L 6567.9 -1251.9 L 6146.3 -1223 L 6283 -1321.2 L 6344.4 -1329.6 L 6400.6 -1324.7 Z M 9092.3 -1089.6 L 9289.7 -1086.3 L 9560 -1046.6 L 9501.2 -991.1 L 9225.6 -993.2 L 9101.6 -975.5 L 8953.4 -1024.1 L 8993.6 -1075.5 L 9092.3 -1089.6 Z M 9794.6 -1030.4 L 9982.2 -1010.8 L 9895.8 -981.3 L 9776.3 -988 L 9637.3 -1017.5 L 9655.2 -1041.7 L 9794.6 -1030.4 Z M 9169.4 -882.7 L 9240.4 -912.2 L 9333.9 -919.1 L 9440.1 -890.5 L 9449.2 -870.9 L 9335.8 -870.4 L 9182.5 -878.7 L 9169.4 -882.7 Z M 2063.9 -1422.6 L 2209.8 -1436.2 L 2323.5 -1437.1 L 2338.8 -1417 L 2381.7 -1434.9 L 2452.2 -1447.2 L 2563.1 -1430.8 L 2534.2 -1419.4 L 2433.8 -1409.5 L 2366.5 -1403.9 L 2356.1 -1391.6 L 2268.7 -1379.2 L 2187.7 -1397 L 2230.3 -1420.3 L 2063.9 -1422.6 Z M 410 541.4 L 272.5 542.5 L 180.4 534 L 197.4 501.1 L 300.6 476.9 L 378.9 490 L 412 501.8 L 404 522.3 L 410 541.4 Z M 2711.6 -911.1 L 2890.6 -976.7 L 2870.4 -1010.6 L 3037.7 -1050.1 L 3284.5 -1098.2 L 3533.4 -1112.2 L 3661.5 -1139.9 L 3807.1 -1149.6 L 3859 -1120.1 L 3808.8 -1096.8 L 3543.8 -1059.7 L 3315.5 -1024.1 L 3083.2 -952.9 L 2971.7 -879.9 L 2854.5 -808 L 2869.7 -745.9 L 3012.8 -684.5 L 2968.6 -678 L 2724.2 -687.7 L 2704.4 -720.9 L 2569 -740.9 L 2558.1 -781.3 L 2634.6 -797.4 L 2632 -838.1 L 2780.3 -901.9 L 2711.6 -911.1 Z M 9397.6 588 L 9423.5 660 L 9421.6 733.6 L 9452.5 809.1 L 9527.7 941.6 L 9417 916.9 L 9371 1024.9 L 9443.9 1101.6 L 9441.8 1153.8 L 9385.2 1108.7 L 9336.1 1166.6 L 9322.3 1103.9 L 9330.6 1031 L 9322.1 950.3 L 9339.4 893.8 L 9342.7 793.8 L 9298.9 720.3 L 9305.5 618.1 L 9374.6 583.7 L 9344.9 549 L 9378.2 538.5 L 9397.6 588 Z M -14371.6 -421.7 L -14378 -375.2 L -14327.6 -356.6 L -14344.9 -410.9 L -14141.9 -399.8 L -13995.5 -329.8 L -14069.7 -297.2 L -14192.2 -289.5 L -14194.1 -216.4 L -14224 -200.8 L -14294.1 -203.1 L -14351.1 -229.2 L -14450.5 -251 L -14467.2 -283.4 L -14543.2 -295.6 L -14628.2 -285.9 L -14668.8 -312.1 L -14652.6 -339.9 L -14742.2 -322.1 L -14708.4 -287 L -14750.8 -255.2 L -14750.8 -553.1 L -14567.6 -496 L -14371.6 -421.7 Z M -14653.2 -697.4 L -14750.8 -692.9 L -14750.8 -744 L -14741.3 -747.1 L -14677.9 -747 L -14569.7 -725.6 L -14576.1 -715.4 L -14653.2 -697.4 Z M 1210.5 1166.2 L 1230.2 1147.7 L 1283.4 1163.8 L 1307.4 1166.7 L 1317.1 1181.5 L 1328.4 1183.8 L 1329 1190.2 L 1365.6 1208.3 L 1441.9 1203.8 L 1427.3 1230.5 L 1345.4 1243.4 L 1243.9 1286.7 L 1202.3 1271.5 L 1218.8 1236.3 L 1137.1 1214.4 L 1150.3 1200.1 L 1221.9 1175.2 L 1210.5 1166.2 Z" />
<path class="neighbor" d="M -157.5 -1354.1 L -129.1 -1379.7 L -19.3 -1382.3 L 75 -1356.2 L 321.2 -1300.4 L 133 -1271 L 91.4 -1215.9 L 25.8 -1201.8 L -9.8 -1139.9 L -99.9 -1137 L -260.7 -1182.6 L -192.9 -1209.1 L -305 -1230.8 L -450.7 -1293.9 L -508.9 -1352.5 L -305 -1379.3 L -264 -1353.1 L -157.5 -1354.1 Z M 1035.9 -597.6 L 908.7 -567.6 L 848.3 -560.7 L 879.9 -613.2 L 784 -642.9 L 667.9 -617.6 L 631.2 -562.8 L 559.9 -529.7 L 479.6 -547.7 L 381.9 -544 L 298.8 -583.6 L 254 -563.8 L 207.6 -560.7 L 196.7 -511.5 L 55.7 -523.5 L 35.9 -481.9 L -35.9 -482.1 L -85.3 -428.9 L -160.1 -346 L -276.2 -240.8 L -249 -215.3 L -275 -185.6 L -349.2 -186.9 L -397.7 -116.8 L -393.1 -17.5 L -345.3 20.4 L -370.1 108.4 L -432.3 159.6 L -465.3 202.7 L -515.4 156.8 L -663.1 243.3 L -762.8 260.8 L -866.2 222.8 L -893 142.4 L -916.6 -30.2 L -847.7 -78.3 L -650.3 -141.1 L -502.6 -218.3 L -365.7 -322.5 L -186 -466.9 L -60.8 -523.2 L 144.7 -617 L 308.8 -649.7 L 431.9 -645.8 L 545.7 -707.7 L 682.1 -704.4 L 816.4 -719.3 L 1050.3 -664.6 L 954 -644.6 L 1035.9 -597.6 Z M 759.7 -1382.7 L 648.8 -1342.4 L 431.9 -1333.6 L 211.4 -1346.1 L 198 -1366.7 L 90.7 -1368 L 8.9 -1402.3 L 239.8 -1423.2 L 348.4 -1405.2 L 424 -1427.6 L 613.1 -1408.9 L 759.7 -1382.7 Z M 559 -1218 L 392 -1187.4 L 260 -1204.8 L 311.6 -1224.1 L 266.4 -1248 L 421.4 -1262.9 L 451.1 -1234.9 L 559 -1218 Z" />
<path class="neighbor" d="M -465.3 202.7 L -432.3 159.6 L -370.1 108.4 L -345.3 20.4 L -393.1 -17.5 L -397.7 -116.8 L -349.2 -186.9 L -275 -185.6 L -249 -215.3 L -276.2 -240.8 L -160.1 -346 L -85.3 -428.9 L -35.9 -482.1 L 35.9 -481.9 L 55.7 -523.5 L 196.7 -511.5 L 207.6 -560.7 L 254 -563.8 L 353.7 -527.2 L 470.4 -476.3 L 472.4 -361.1 L 497.6 -332 L 369 -310.9 L 296.5 -258.7 L 308.2 -212.9 L 189.2 -152.8 L 44.8 -88.4 L -9.7 16.9 L 43.6 69.6 L 115.1 111.1 L 46.4 195.4 L -31.4 212.9 L -59.9 338.5 L -102.4 408.5 L -193.1 401.3 L -235.4 460.6 L -322 464 L -345.8 393.3 L -408.4 308.5 L -465.3 202.7 Z" />
<path class="neighbor" d="M 1087.1 707.8 L 1115.1 710.9 L 1133.9 693.9 L 1156.7 697.6 L 1234.2 690.4 L 1282 732.7 L 1263.3 747.9 L 1269.5 771.1 L 1329.1 774.7 L 1355.7 807.1 L 1354.1 821.8 L 1449.1 848.1 L 1506.5 836.3 L 1552.6 871.3 L 1596.3 870.5 L 1706.6 894.8 L 1707.4 916.8 L 1677.1 956 L 1693.6 997.2 L 1681.8 1022.1 L 1609.5 1027.6 L 1570.9 1048.5 L 1568.5 1081.7 L 1508.8 1087.7 L 1459.1 1111.9 L 1389.1 1115.8 L 1324.7 1143.7 L 1328.4 1183.8 L 1317.1 1181.5 L 1307.4 1166.7 L 1283.4 1163.8 L 1230.2 1147.7 L 1210.5 1166.2 L 1200.2 1158.1 L 1084 1139.2 L 1078.8 1111.3 L 1009.6 1120.5 L 981.8 1161.7 L 923.9 1217 L 890 1204.2 L 854.8 1216.2 L 821.5 1202.4 L 840.3 1194.3 L 853.4 1168.6 L 873.8 1144.8 L 868.5 1131.4 L 884.2 1125.4 L 891.5 1135.8 L 935.6 1138 L 955.4 1132.4 L 941.5 1124.9 L 946.7 1113.7 L 920.6 1094.7 L 909.8 1063.4 L 882.6 1051.2 L 888 1025.9 L 854.2 1005.7 L 823.4 1002.9 L 768.3 979.6 L 718.6 987 L 700.7 998.1 L 669.2 998.1 L 650.4 1015.5 L 595.2 1022.7 L 569.6 1034.2 L 534.9 1015.9 L 487 1015.7 L 440.7 1007.4 L 408.4 1023.4 L 403.2 1003.3 L 361.7 983 L 376.3 952.9 L 397 933.4 L 413.4 937.7 L 394.1 904.1 L 462 841.9 L 499.1 833.2 L 507.1 812.3 L 469.5 747 L 505.2 744.1 L 546.2 723.8 L 604.2 722.1 L 679.7 728 L 763.2 745.9 L 822.1 747.4 L 850.2 758.2 L 878.2 745.2 L 897.8 762.7 L 965.3 759.1 L 995.1 766.3 L 999.9 728.7 L 1022.9 712.3 L 1087.1 707.8 Z" />
<path class="neighbor" d="M 466.3 572.4 L 469.5 605.5 L 490.3 634 L 489.8 663.8 L 445 679 L 468.1 713.7 L 469.5 747 L 507.1 812.3 L 499.1 833.2 L 462 841.9 L 394.1 904.1 L 413.4 937.7 L 397 933.4 L 326 904.6 L 272.1 915.2 L 236.8 907.5 L 192.6 923.6 L 154.9 897 L 124.2 907.2 L 120 902.7 L 85.6 865.9 L 30 861.3 L 22.9 837.9 L -28.4 829.6 L -39.6 848.9 L -80.2 833.4 L -75.6 812.8 L -131.5 806.3 L -166.9 782.3 L -197.6 734.5 L -191.7 708.7 L -210.2 668.7 L -237.4 642.1 L -216.5 622.1 L -234 584 L -182.9 562.1 L -66.2 527.5 L 28 502.2 L 102.6 514.8 L 108.2 533.1 L 180.4 534 L 272.5 542.5 L 410 541.4 L 448.3 549.4 L 466.3 572.4 Z" />
<path class="neighbor" d="M 691.4 445.1 L 698.4 478.6 L 637.1 502.5 L 619.8 544.8 L 538.6 572.9 L 466.3 572.4 L 448.3 549.4 L 410 541.4 L 404 522.3 L 412 501.8 L 378.9 490 L 300.6 476.9 L 284.7 414 L 370.3 391.1 L 495.8 395.8 L 569.2 388.5 L 579.7 404 L 619.5 408.8 L 691.4 445.1 Z" />
<path class="neighbor" d="M 750.8 306 L 786.8 323.3 L 793.2 359.5 L 817.2 403.7 L 736.9 432.5 L 691.4 445.1 L 619.5 408.8 L 579.7 404 L 569.2 388.5 L 495.8 395.8 L 370.3 391.1 L 284.7 414 L 287.3 357.7 L 324 310.7 L 394.5 285.2 L 453.9 341.1 L 513.9 339.6 L 528.3 282.2 L 592 269 L 624.7 278.1 L 689.1 305.9 L 750.8 306 Z" />
<path class="neighbor" d="M 802.6 156.4 L 802.6 156.4 L 813.8 169.5 L 760.6 212.6 L 782.8 282.3 L 750.8 306 L 689.1 305.9 L 624.7 278.1 L 592 269 L 528.3 282.2 L 536.9 238.1 L 509.4 247.5 L 462 220.9 L 455.5 178 L 550 157.1 L 644.3 146.3 L 725.4 158.6 L 802.6 156.4 L 802.6 156.4 Z" />
<path class="neighbor" d="M 397 933.4 L 376.3 952.9 L 361.7 983 L 345.7 990.6 L 265.7 967.9 L 241.1 972.5 L 223.6 990.1 L 188.5 999.4 L 180.4 994.6 L 144 1006.2 L 114.3 1008.5 L 108.3 1023.5 L 45.5 1032.6 L 17.9 1024.5 L -20.1 1005.3 L -27.6 979.4 L -21.6 969.9 L -11 953.5 L 22.1 954.7 L 47.7 947 L 49.7 940.1 L 64 936.5 L 68.9 919.5 L 86.1 916.2 L 97.7 902.8 L 120 902.7 L 124.2 907.2 L 154.9 897 L 192.6 923.6 L 236.8 907.5 L 272.1 915.2 L 326 904.6 L 397 933.4 Z" />
<path class="neighbor" d="M -166.9 782.3 L -131.5 806.3 L -75.6 812.8 L -80.2 833.4 L -39.6 848.9 L -28.4 829.6 L 22.9 837.9 L 30 861.3 L 85.6 865.9 L 120 902.7 L 97.7 902.8 L 86.1 916.2 L 68.9 919.5 L 64 936.5 L 49.7 940.1 L 47.7 947 L 22.1 954.7 L -11 953.5 L -21.6 969.9 L -56.1 955.8 L -91.2 959.7 L -149.2 936.9 L -175.6 942.5 L -217.6 973 L -273.2 949 L -315.4 916.8 L -353.6 898.9 L -361.5 867.3 L -374.6 845.1 L -320.2 828.8 L -292.5 810.2 L -238.8 795.7 L -220 781.5 L -200.3 790.1 L -166.9 782.3 Z" />
<path class="lake" d="M 1602.7 258.7 L 1597.6 258.3 L 1580.5 257.6 L 1578.5 259.3 L 1584.5 264.1 L 1584.5 265.4 L 1582.9 265.6 L 1579.4 264.4 L 1575 263.7 L 1572.8 262.7 L 1571.2 261.4 L 1570.5 259.1 L 1570.6 251.9 L 1568.3 249 L 1562.9 248.2 L 1547.6 244.2 L 1544.1 244.9 L 1515 226.7 L 1508.2 220.9 L 1500.7 217.6 L 1488.7 214.8 L 1488.6 213.9 L 1489.7 212.5 L 1488.3 203.3 L 1500.1 209.9 L 1504.9 212 L 1508.7 212.4 L 1507.7 215.2 L 1507.7 216.6 L 1511.4 219.3 L 1517.3 220.9 L 1519.3 225.4 L 1522.6 226 L 1526.5 225.1 L 1526.9 223.9 L 1523.5 219.9 L 1524.3 219.2 L 1530.5 220.6 L 1534.5 220.6 L 1551.4 225.6 L 1557.4 226.2 L 1557.3 222.5 L 1559.5 220.4 L 1559 219.3 L 1550.9 216.5 L 1550.6 215 L 1547.7 212.9 L 1547.5 211.7 L 1548.9 211.1 L 1553.6 211 L 1551.5 202.3 L 1545.7 202.6 L 1542.1 199.7 L 1539 198.4 L 1535.2 197.5 L 1530.4 197.4 L 1525.1 198 L 1520.5 199.5 L 1514.5 203.6 L 1512.3 202.7 L 1511.9 201.3 L 1513.3 197.4 L 1514.4 196.1 L 1522.6 192.8 L 1527.4 190.1 L 1529.1 187.2 L 1527.6 184.3 L 1524.9 181.7 L 1525.3 180.2 L 1540.1 180.4 L 1547.3 178.9 L 1550.9 178.7 L 1551.9 180 L 1552.4 181.2 L 1553.9 182.4 L 1560.5 184.3 L 1563.7 184.4 L 1565.3 183.5 L 1565.3 182.1 L 1565 180.9 L 1561.1 176.8 L 1562.5 176.3 L 1565.5 176.8 L 1573.8 179.9 L 1582.8 179 L 1582.3 180.6 L 1576.6 185 L 1569.7 187.3 L 1564.6 187.1 L 1545.1 184.3 L 1541.8 184.9 L 1541.2 186.3 L 1545.8 188.8 L 1555.3 192.4 L 1560.8 195.4 L 1583.8 210.9 L 1597.4 219.1 L 1608.1 225.8 L 1625.8 229.7 L 1626.9 231.2 L 1624.4 233.8 L 1626.6 237.8 L 1627 240 L 1617 242 L 1613.9 244.6 L 1612.6 248 L 1613.1 256.7 L 1612 257.6 L 1610.1 256.7 L 1603.6 251.3 L 1599.6 250.3 L 1598.1 251.7 L 1604 256.8 L 1604.5 258.3 L 1602.7 258.7 L 1602.7 258.7 L 1602.7 258.7 Z" />
<path class="lake" d="M 188.1 533.4 L 184.6 529.8 L 196.7 521.8 L 201.4 517.5 L 202.6 514.9 L 204.8 512.8 L 208.2 513.4 L 212 515.5 L 221.3 514.7 L 221.3 514.7 L 221.3 514.7 L 221.3 514.7 L 221.3 514.7 L 221.3 514.7 L 236 514.9 L 213.4 522.3 L 200.4 527.2 L 188.5 533.1 L 188.1 533.4 Z" />
<path class="lake" d="M 184.6 529.8 L 188.1 533.4 L 186.2 535.1 L 180.2 537.9 L 174.8 539.8 L 166.9 543.4 L 156.9 545.8 L 149.7 542.6 L 151.8 540.6 L 168.5 537.4 L 177 534 L 184.6 529.8 Z" />
<path class="lake" d="M 766.4 253 L 771.7 250.7 L 773.5 253.7 L 782.6 254.5 L 793.9 253.8 L 793.9 253.8 L 793.9 253.8 L 793.9 253.8 L 793.9 253.8 L 802 256.8 L 811.2 263.4 L 815.2 268.6 L 816.7 273.1 L 811.6 277.2 L 803.4 276.6 L 797.3 274.5 L 794.7 272.7 L 795.1 271.5 L 789.2 267.5 L 779.9 265.4 L 775.9 265.7 L 766.4 253 Z" />
<path class="lake" d="M 771.7 250.7 L 766.4 253 L 764.6 250.5 L 761 244.1 L 753.4 236.7 L 746.9 232.9 L 740.9 218.3 L 726.7 206.5 L 727.3 200.6 L 737.2 195.4 L 751.5 192.3 L 768.4 191.4 L 780.3 193.5 L 785.2 198.5 L 790.1 224 L 790.6 230.5 L 788.9 233.3 L 785.1 234.6 L 772.8 243.8 L 771.2 247.5 L 771.7 250.7 Z" />
<path class="lake" d="M 1190.4 938.4 L 1190.1 940.3 L 1183.6 939.5 L 1182.9 938.2 L 1181.2 935.1 L 1176.5 933.6 L 1167.7 933.3 L 1160.7 931.1 L 1156.8 929.3 L 1149.5 924.9 L 1133.7 917.2 L 1125.1 913.9 L 1115.8 909.6 L 1095.7 901.4 L 1094.8 898.3 L 1099.8 897.2 L 1111.7 899.3 L 1116.9 900.8 L 1129.3 904.7 L 1137.6 907.9 L 1150.4 911.2 L 1154.2 909.8 L 1152.4 905.1 L 1152.8 899.6 L 1156.4 898 L 1159.5 903.5 L 1167.5 909.3 L 1179.1 918.8 L 1185.7 924.8 L 1192.4 930.9 L 1192.4 932.8 L 1190.4 938.4 L 1190.4 938.4 L 1190.4 938.4 Z" />
<path class="lake" d="M 1068.1 249.5 L 1061.7 251.3 L 1057.8 256.1 L 1040 253.9 L 1019.1 250.7 L 1017.7 248.9 L 1025 245.5 L 1029.8 242.8 L 1034.3 242 L 1041.1 239.9 L 1047.2 234.9 L 1050.7 231.1 L 1056.3 234.6 L 1060.5 235.6 L 1066.5 237.7 L 1067.1 238.9 L 1076 237.7 L 1077.2 239.2 L 1076.6 240.5 L 1076.7 243.7 L 1079.8 251.6 L 1075.5 251.2 L 1068.1 249.5 L 1068.1 249.5 L 1068.1 249.5 Z" />
<path class="lake" d="M 665.1 242.3 L 664.9 246.6 L 662.7 251.1 L 660.8 256 L 658.2 255.8 L 654.7 250.3 L 649 243.9 L 650 240.9 L 651.9 238.2 L 655.9 237.1 L 660.2 237.5 L 663.5 238.8 L 665.1 242.3 L 665.1 242.3 L 665.1 242.3 L 665.1 242.3 Z" />
<path class="country" d="M 817.2 403.7 L 895.9 422.4 L 906.6 441 L 945.8 432.1 L 1018.9 449.9 L 1026.2 485 L 1010.2 505.2 L 1057.1 554.1 L 1087.5 567.8 L 1083 581.3 L 1133.5 594.4 L 1155 614.4 L 1125.9 630.7 L 1065.6 628.1 L 1051.2 635.1 L 1068.7 660 L 1087.1 707.8 L 1087.1 707.8 L 1022.9 712.3 L 999.9 728.7 L 995.1 766.3 L 965.3 759.1 L 897.8 762.7 L 878.2 745.2 L 850.2 758.2 L 822.1 747.4 L 763.2 745.9 L 679.7 728 L 604.2 722.1 L 546.2 723.8 L 505.2 744.1 L 469.5 747 L 468.1 713.7 L 445 679 L 489.8 663.8 L 490.3 634 L 469.5 605.5 L 466.3 572.4 L 538.6 572.9 L 619.8 544.8 L 637.1 502.5 L 698.4 478.6 L 691.4 445.1 L 736.9 432.5 L 817.2 403.7 Z" />

<path class="river" d="M 1218.3 1102 L 1223.3 1099.2 L 1227.4 1092.6 L 1233.2 1085.7 L 1242.1 1078.2 L 1250.9 1066.4 L 1252.5 1058.6 L 1264.3 1052.7 L 1286.2 1048.8 L 1305.9 1048 L 1323.4 1050.4 L 1334.1 1049.9 L 1337.8 1046.5 L 1338.6 1040.2 L 1335.4 1026.4 M 1192.4 932.8 L 1169.3 923 L 1148.2 917.2 L 1094.6 898.3 M 1061.2 865 L 1064.2 870 L 1064.7 874.6 L 1063.3 883.4 M 991.5 774 L 989.3 797.4 L 989.4 809 L 992 820.4" />
<path class="river" d="M 116.8 870.6 L 126.2 870.1" />
<path class="river" d="M 2124.9 848.4 L 2137.5 838.3 L 2137.8 830.8 L 2130.2 822.6 L 2126.1 816.7 L 2125.8 812.9 L 2130.9 809.5 L 2141.5 806.5 L 2148.7 803.4 L 2152.3 800.2 L 2153.4 795.8 L 2151.8 790.3 L 2147.7 785.3 L 2141.1 781 L 2137.8 776.2 L 2137.9 770.8 L 2140.3 766.2 L 2145.2 762.2 L 2147.9 758.6 L 2148.5 755.5 L 2152.5 752.4 L 2159.9 749.3 L 2166.4 744.3 L 2172.1 737.3 L 2177.4 734.5 L 2185.8 732.4 L 2192.4 734 L 2200.9 734.6 L 2208 734.3 M 2378.8 455 L 2395.8 473.6 L 2393 482.6 L 2376.2 488.4 L 2367 497.8 L 2365.3 510.9 L 2358.1 519.7 L 2345.4 524.4 L 2337.6 529.3 L 2334.8 534.3 L 2333.6 540.1 L 2333.9 546.7 L 2343.4 555.8 L 2362 567.5 L 2371.8 578.8 L 2372.8 589.7 L 2374.9 597.3 L 2378 601.6 L 2382.2 604.6 L 2390.1 606.2 L 2416.8 605.7 L 2442.1 606.5 M 1958.1 365.8 L 1951.5 361.5 L 1947.2 355.4 L 1943 346.2 L 1938.8 339.7 L 1934.7 335.9 L 1932.4 332.6 L 1931.9 329.9 L 1933.5 325.6 L 1939 316.9 L 1916.3 310.9 L 1905.1 309.3 L 1894 310.5 M 1488.3 360 L 1468.2 357.8 L 1457.3 360.2 L 1448.9 366.6 L 1441.1 368.3 L 1430.3 363.5 M 1533.9 319.8 L 1547.6 318.2 L 1557.7 313 L 1574.3 298.8 M 1801.8 304.6 L 1791.6 302.9 L 1783.6 297.6 L 1774.4 288.2 L 1767.9 282.9 L 1764 281.7 L 1754.2 282.5 L 1738.4 285.1 L 1723.3 289.6 L 1701.9 299.2 M 1584.5 265.4 L 1576.2 260.6 L 1575.7 255.6 L 1582.3 245.2 L 1604.5 258.3" />
<path class="river" d="M 1108.9 348.4 L 1107.8 350.7 L 1110.4 351.9 L 1116.3 352.8 L 1121.2 354.9 L 1126.9 360.2 L 1123.5 370.7 L 1120.6 375 L 1116.9 376.6 L 1113.2 380.5 L 1109.6 386.8 L 1108.6 392.7 L 1110 398.4 L 1108.2 401.8 L 1103.2 403.1 L 1101.2 405.6 L 1102.1 409.2 L 1093.8 411.2 L 1076.3 411.4 L 1064.2 413.4 L 1057.5 417.1 L 1056.7 424.6 L 1061.9 435.9 L 1059.4 442.1 L 1049.2 443.3 L 1041.2 446.2 L 1032.5 453 L 1001.7 458.5 L 984.1 463.5 L 969.6 469.8 L 966 473.5 L 964.6 476.5 L 960.1 477.4 L 948 475.9 L 939.7 475.8 L 935.4 477.1 L 933.1 479 L 932.8 481.5 L 930.1 482.4 L 925.1 481.9 L 920.3 483.1 L 915.5 485.9 L 912.6 485.8 L 911.6 482.8 L 909.1 481.2 L 905.3 481.2 L 902.4 479.5 L 900.3 476.2 L 893.9 471.8 L 883 466.5 L 878.8 462.7 L 878.3 460.5 L 872.7 457.1 L 858.1 451.9 L 841.7 448.8 L 823.4 447.6 L 810.5 444.7 L 802.9 440.1 L 798.6 435.8 L 797.6 431.6 L 795.1 430 L 793.2 429.8 L 786.3 430.6 L 774.4 431.4 L 763.5 431 L 755.3 428.9 L 730.3 423.9 L 714.9 423.3 L 700.9 425.3 L 691 423.9 L 685.4 418.9 L 681.7 413.4 L 679.9 407.2 L 676.4 403 L 671.4 400.6 L 668.2 396.5 L 666.8 390.8 L 659.2 385.1 L 645.4 379.5 L 637.9 375 L 636.6 371.6 L 632.7 370.7 L 626.2 372.4 L 619.6 372.2 L 612.8 370.2 L 606.4 370 L 600.3 371.7 L 592.7 371.9 L 583.6 370.6 L 571.5 366.3 L 556.4 359.2 L 542.7 354.4 L 530.4 352.2 L 521.3 349.5 L 515.6 346.3 L 511.7 342.6 L 508.9 336.6" />
<path class="river" d="M 1232.9 425.8 L 1239.1 429.3 L 1239.7 431.1 L 1236.8 432.5 L 1238 434 L 1243.1 435.6 L 1244.5 437.8 L 1241.1 442 L 1235.3 448.5 L 1230.4 450.3 L 1224.4 449.5 L 1221.6 453.8 L 1222 463.3 L 1220.5 469.6 L 1217.1 472.9 L 1213.3 480.3 L 1207.1 497.3" />
<path class="river" d="M 989.3 1156.6 L 990.4 1157.4 M 418.6 919.8 L 436.2 905.3 L 459.1 898.4 L 475.5 897.6 L 493 900.6 L 506.3 903.8 L 515.3 907.2 L 521.8 911.9 L 525.9 918.1 L 531.8 921.5 L 539.7 922.1 L 549.3 926.2 L 560.6 933.8 L 568.5 937.7 L 573 937.8 L 578.7 939.9 L 588.8 946 L 591.2 948.9 L 593.5 948.6 L 595.4 948.4 L 596.9 949.9 L 598.4 951.6 L 602.2 951.6 L 605 952.3 L 609.4 951.4 L 618.6 954.1 L 629.6 963 L 634.3 965.3 L 638 965.2 L 641.5 966 L 646.5 969.1 L 651.3 969.6 L 654.8 968.7 L 657.2 968.4 L 659.8 971.8 L 661.4 972.5 L 664.2 971.8 L 667 973.7 L 673.4 975 L 684.2 974.6 L 691.7 975.9 L 695.9 979.1 L 698.6 979.7 L 699.8 977.7 L 702.2 976.9 L 704.4 975.9 L 706.4 974.3 L 708.3 973.4 L 711.2 972.6 L 713.1 972.3 L 714.5 971.3 L 716.9 971 L 720.5 972.8 L 729 972.7 L 749.5 969.7 L 761.6 970.9 L 765.1 976.5 L 772.1 979.8 L 782.6 981 L 790.5 983.4 L 795.8 987.3 L 801.3 989.6 L 806.9 990.5 L 810 992.5 L 810.6 995.4 L 815.9 996.8 L 825.8 996.7 L 830 998.6 L 828.4 1002.5 L 829.5 1003.8 L 833 1002.5 L 835.6 1003.6 L 837.1 1006.4 L 838.6 1007.8 L 841.1 1007.4 L 844.3 1006.8 L 847 1009.4 L 846.8 1012.5 L 849.2 1013.9 L 852.9 1013.3 L 861.2 1015.6 L 873.8 1022.2 L 879.5 1029.9 L 878.4 1038.5 L 880.1 1045.8 L 884.7 1051.7 L 886.5 1055.7 L 885.5 1057.9 L 886.5 1060.1 L 887.7 1061.8 L 887.5 1063.9 L 886.5 1066.2 L 890.3 1071.8 L 889.6 1075.8 L 888.6 1077.9 L 889 1079.2 L 891.7 1079.2 L 894.9 1078.7 L 898.6 1078.4 L 902.2 1080.7 L 905.6 1084.4 L 905.7 1087.2 L 902.5 1089 L 901.2 1090.6 L 902 1091.8 L 910.5 1092.7 L 914.1 1096 L 916.1 1102.2 L 919 1104.3 L 922.8 1102.3 L 926.3 1103.4 L 929.4 1107.6 L 930.4 1110.7 L 929.2 1112.6 L 930.6 1114.4 L 934.7 1116.2 L 935.9 1117.7 L 936.3 1119.2 L 939 1120.7 L 946 1122.8 L 963.4 1132.5 L 970 1132.3 L 972.6 1134.2 L 973.7 1140.2" />
<path class="river" d="M 1146.4 1118.1 L 1151.4 1115.6 L 1173 1110.5 L 1182.9 1107.4 L 1195.6 1106 L 1204.6 1105.4 L 1211.7 1103.7 L 1218.3 1102 M 1335.3 1026.5 L 1337.2 1016.7 L 1336.3 1011.8 L 1333.2 1008.5 L 1334 1006.5 L 1338.6 1005.6 L 1341.3 1003.4 L 1342 999.7 L 1340.2 993.6 L 1335.9 985.1 L 1324.4 978.9 L 1313.9 977.8 L 1305.7 974.9 L 1283.4 966.7 L 1269.5 959.5 L 1257.5 954.2 L 1231.6 944.1 L 1215.9 939.2 L 1205.1 934.9 L 1192.4 932.8 M 1094.8 898.3 L 1080 892.2 L 1062.9 883.2 M 1061.2 865 L 1046.6 866.6 L 1033.7 863.3 L 1017.5 855.6 L 1006.4 848.4 L 1000.3 841.7 L 995.9 833.9 L 992 820.4 M 1207.1 497.3 L 1186.1 492.2 L 1176.3 491 L 1170.6 492.1 L 1164.7 494.2 L 1158.3 497.4 L 1154.5 500.7 L 1153.2 504.4 L 1148.8 508.8 L 1141.4 514 L 1131.7 513.9 L 1119.7 508.6 L 1103.5 507.8 L 1073.1 513 L 1026.4 516.9 L 1007.2 520 L 1000.1 523.7 L 994.9 525.2 L 991.6 524.5 L 988.2 525.8 L 984.5 528.9 L 980.5 534.1 L 976.3 541.5 L 977.4 552.1 L 983.8 565.8 L 984 573.4 L 977.8 574.9 L 974.1 580.7 L 973.1 590.9 L 974.8 601.6 L 981.3 618.5 L 974.4 621.9 L 973 625.3 L 974.8 629.6 L 972.4 631.7 L 965.7 631.4 L 960.4 633.1 L 956.4 636.8 L 956.1 644.1 L 959.6 655 L 964.3 662.3 L 970.2 666.2 L 972.9 670.1 L 972.4 673.9 L 974.5 677.5 L 979.1 680.9 L 980.9 683.3 L 979.8 684.8 L 983.2 687 L 991.2 689.9 L 994.4 692.6 L 992.8 695.1 L 997.2 700.7 L 1007.6 709.5 L 1013.1 715.8 L 1013.8 719.6 L 1011.4 723.4 L 1005.8 727.1 L 1000.3 733 L 994.8 741 L 994.5 749.5 L 999.4 758.3 L 999.2 765.5 L 991.5 774" />
<path class="river" d="M 121.9 891.6 L 115.1 878.7 L 113.8 873.4 L 116.8 870.6 M 126.2 870.1 L 136 868.6 L 141.5 866 L 145.9 861.9 L 157 861.6 L 174.8 865.1 L 194.6 864.6 L 227.5 857.8 L 244.8 854.7 L 254 851 L 260.9 845.5 L 271.8 842 L 286.6 840.6 L 302.1 836.2 L 318.3 828.8 L 330.6 821.2 L 339.1 813.5 L 342.1 801.8 L 339.6 785.9 L 339.1 776.1 L 340.7 772.3 L 344.5 768.7 L 350.5 765.2 L 352.4 761.3 L 350.3 757.1 L 347.6 754.9 L 344.4 754.5 L 342.6 752.8 L 342.1 749.7 L 335.2 746 L 321.8 741.8 L 314.3 737.5 L 312.6 733.2 L 308.3 728.9 L 301.2 724.6 L 298.6 721.6 L 300.4 719.6 L 299.9 715.9 L 297.1 710.4 L 290 702.7 L 278.6 692.9 L 268.7 686.7 L 260.4 684.3 L 244.9 684.1 L 222.4 686.2 L 203 684 L 178.8 674.4 L 146 667.3 L 127.9 658.6 L 113.4 646 L 96.4 637.8 L 76.7 634 L 71.1 627.6 L 79.7 618.8 L 90.8 612 L 104.4 607.4 L 111.5 601.8 L 111.9 595.2 L 114.3 590.3 L 118.6 587.1 L 121.3 582.5 L 122.2 576.5 L 121.4 569.9 L 118.9 562.7 L 120 556.3 L 124.7 550.6 L 127.2 545.6 L 129.2 539.8" />
<path class="river" d="M 2287.8 1109.2 L 2308.2 1113 L 2316.1 1118.9 L 2318.4 1128 L 2323.1 1134.2 L 2330.4 1137.5 L 2337.1 1143.8 L 2350.8 1157.7 M 2124.9 848.4 L 2111.9 855.9 L 2106.3 860.8 L 2103.6 865.7 L 2102.3 871.3 L 2102.2 877.6 L 2098.1 884.7 L 2090.1 892.5 L 2083.3 901.4 L 2078.9 909.3 L 2076.1 913.6 L 2075 916.4 L 2074.6 917.8 L 2074.3 920.4 L 2073.5 925.2 L 2063.5 938.9 L 2044.5 960.2 L 2041.2 964.8 L 2040 969.9 L 2045.1 973.8 L 2065.2 979.8 L 2078.5 982.1 L 2085 980.8 L 2092.3 981.2 L 2100.5 983.2 L 2106 982.8 L 2108.9 980.1 L 2117.1 980.8 L 2130.1 984.8 L 2135 985.9 L 2137.5 987 L 2140 988.2 L 2143.3 990.5 L 2155.9 998.2 L 2161.7 1006.3 L 2161.1 1015 L 2164.5 1020.7 L 2172.2 1023.4 L 2176.3 1026.3 L 2177 1029.4 L 2180.6 1031.6 L 2187.3 1032.9 L 2196.2 1039 L 2207.2 1050.1 L 2215.5 1056.1 L 2221 1057.1 L 2225.5 1059.2 L 2229.1 1062.5 L 2231 1065.8 L 2231.2 1070.5 L 2231.3 1073.4 L 2240.7 1078.6 L 2259.5 1087.2 L 2268.6 1093.7 L 2268 1098.1 L 2270.6 1100.2 L 2276.5 1100.2 L 2284.7 1106.4 L 2295.3 1118.6 L 2299.8 1126.3 L 2298.3 1129.5 L 2298.2 1132.9 L 2299.5 1136.5 L 2293.4 1145.5 L 2279.8 1159.9 L 2272.8 1169.4 L 2272.4 1174.2 L 2270.5 1176.5 L 2268.1 1178.1 L 2266.8 1179.9 L 2267 1182 L 2268.8 1183.8 L 2272.1 1187.1 L 2273.5 1189.8 M 2442.1 606.5 L 2452.4 606.7 L 2457.3 610.4 L 2460.3 617.8 L 2458.8 623 L 2452.8 626.2 L 2446 626.8 L 2438.4 624.7 L 2428.1 625.5 L 2415 629 L 2406.4 629.3 L 2402.2 626.2 L 2394.6 624.3 L 2383.4 623.5 L 2368.4 625.1 L 2349.5 629 L 2338.9 632.8 L 2336.4 636.4 L 2337.3 641 L 2341.6 646.7 L 2337.4 654.4 L 2324.6 664 L 2312.9 677.6 L 2302.3 695.2 L 2292.2 706.1 L 2282.8 710.5 L 2273 712.2 L 2262.8 711.3 L 2245.3 716.9 L 2233.4 721.5 L 2222.7 728.1 L 2213.1 732.4 L 2208 734.3 M 1958.1 365.8 L 1974.9 379.2 L 1988.3 386.1 L 2004 391.1 L 2013 395.9 L 2015.3 400.3 L 2019.8 402.9 L 2026.6 403.5 L 2034.2 405.8 L 2042.8 409.9 L 2058.6 410.1 L 2081.4 406.5 L 2096.3 406.1 L 2103.2 408.7 L 2108.4 408.5 L 2111.9 405.6 L 2117.2 404.4 L 2124.3 404.9 L 2130.4 403.9 L 2135.6 401.3 L 2140.5 401.4 L 2145.3 404.3 L 2152 403.5 L 2160.4 399 L 2172.1 394.9 L 2186.9 391.2 L 2200.9 393.2 L 2214.1 401 L 2237.3 405 L 2286.9 405.4 L 2291.1 407.2 L 2294.2 410.8 L 2297.6 416.9 L 2304.7 421.9 L 2315.5 425.9 L 2334 429.4 L 2360.2 432.5 L 2374.6 439.3 L 2378.8 455 M 1488.1 360 L 1506.4 351.9 L 1512.7 346.4 L 1513.4 340.9 L 1518.8 333.6 L 1533.9 319.8 M 1147.9 322.8 L 1154 335.6 L 1153.6 340.8 L 1154.9 343.6 L 1157.7 345.7 L 1166.8 346.6 L 1182.1 346.5 L 1199 349.1 L 1217.4 354.3 L 1228.4 359.1 L 1231.9 363.4 L 1238.9 368.4 L 1249.4 374.1 L 1251.2 378.2 L 1244.1 380.9 L 1241.1 383.1 L 1242 384.7 L 1256.4 389.6 L 1284.4 398 L 1302.7 400.7 L 1311.3 397.8 L 1317.1 394.6 L 1320.2 391.1 L 1320.7 388.7 L 1318.5 387.5 L 1319.3 385.2 L 1323 382 L 1324.2 378.7 L 1322.8 375.5 L 1327.6 373.1 L 1344.1 370.5 L 1352.4 363.7 L 1359 360.8 L 1366.6 359.5 L 1372.9 357.2 L 1377.7 353.8 L 1385.2 352 L 1395.4 351.5 L 1407.2 353 L 1420.6 356.6 L 1428 359.6 L 1430.3 363.5 M 1801.9 304.7 L 1829.7 308.1 L 1842.7 307.8 L 1850.1 305 L 1863.9 305.3 L 1894 310.5 M 1701.9 299.2 L 1690.4 291.5 L 1686.3 287.3 L 1685.7 284 L 1678.7 279.4 L 1665.3 273.5 L 1645 267.5 L 1604.5 258.3 M 1574.3 298.8 L 1585.1 284.6 L 1587.7 276.3 L 1584.5 265.4" />
<g class="city"><circle cx="992.0509763434299" cy="832.4568794949391" r="5" /><text x="1004.0509763434299" y="836.4568794949391">Kyiv</text></g>
<g class="city"><circle cx="771.4413450852729" cy="573.2137287923331" r="5" /><text x="783.4413450852729" y="577.2137287923331">Minsk</text></g>
<g class="city"><circle cx="280.91532321643564" cy="698.1797694559037" r="5" /><text x="292.91532321643564" y="702.1797694559037">Warsaw</text></g>
<g class="city"><circle cx="1420.8110337219266" cy="864.866592045269" r="5" /><text x="1432.8110337219266" y="868.866592045269">Kharkiv</text></g>
<g class="city"><circle cx="507.10727364822253" cy="877.3515225008578" r="5" /><text x="519.1072736482225" y="881.3515225008578">Lviv</text></g>
<g class="city"><circle cx="202.59661239780394" cy="860.3799171468655" r="5" /><text x="214.59661239780394" y="864.3799171468655">Kraków</text></g>
<g class="city"><circle cx="512.3398331962137" cy="345.2678949951174" r="5" /><text x="524.3398331962137" y="349.2678949951174">Riga</text></g>
<g class="city"><circle cx="104.03080518327639" cy="538.9592716524671" r="5" /><text x="116.03080518327639" y="542.9592716524671">Gdańsk</text></g>
<text class="map-title" x="80" y="105">Belarus Physical Study Map</text>
<text class="map-subtitle" x="80" y="145">Landmark: Mir Castle Complex | Study terrain and water systems</text>
  <text class="footer" x="80" y="1036">Made with Natural Earth. Free vector and raster map data @ naturalearthdata.com.</text>
</svg>
