<?xml version="1.0" encoding="UTF-8"?>
<svg xmlns="http://www.w3.org/2000/svg" width="1600" height="1100" viewBox="0 0 1600 1100" role="img" aria-labelledby="title desc">
  <title id="title">Belize Physical Study Map</title>
  <desc id="desc">Made with Natural Earth. Free vector and raster map data @ naturalearthdata.com.</desc>
  <defs>
    <linearGradient id="terrain" x1="0" x2="1" y1="0" y2="1">
      <stop offset="0%" stop-color="#6c8c53" />
      <stop offset="42%" stop-color="#d5c487" />
      <stop offset="72%" stop-color="#b88b5f" />
      <stop offset="100%" stop-color="#f1f5ee" />
    </linearGradient>
    <filter id="softShadow" x="-10%" y="-10%" width="120%" height="120%">
      <feDropShadow dx="0" dy="10" stdDeviation="12" flood-color="#0f172a" flood-opacity="0.16" />
    </filter>
    <style>
      .neighbor { fill: #ffffff; stroke: #94a3b8; stroke-width: 1.2; opacity: 0.72; }
      .country { fill: url(#terrain); stroke: #1f2937; stroke-width: 4; filter: url(#softShadow); }
      .admin1 { fill: none; stroke: #64748b; stroke-width: 1.1; stroke-dasharray: 6 7; opacity: 0.75; }
      .river { fill: none; stroke: #1d9bd1; stroke-width: 3; stroke-linecap: round; opacity: 0.88; }
      .lake { fill: #8ed1ea; stroke: #0ea5e9; stroke-width: 1.5; opacity: 0.8; }
      .city circle { fill: #ef4444; stroke: #ffffff; stroke-width: 2; }
      .city text, .terrain-label { fill: #172033; font: 700 24px system-ui, sans-serif; paint-order: stroke; stroke: #ffffff; stroke-width: 5; stroke-linejoin: round; }
      .map-title { fill: #0f172a; font: 800 46px system-ui, sans-serif; }
      .map-subtitle { fill: #475569; font: 600 24px system-ui, sans-serif; }
      .footer { fill: #64748b; font: 500 18px system-ui, sans-serif; }
    </style>
  </defs>
  <rect width="100%" height="100%" fill="#d8edf0" />
  <rect x="40" y="40" width="1520" height="1020" rx="32" fill="#ffffff" opacity="0.54" />
  <path class="neighbor" d="M -5215.6 -5014.2 L -4715.7 -5014.2 L -4193.1 -5014.2 L -4020 -5014.2 L -3483.4 -5014.2 L -2964.1 -5014.2 L -2436 -5014.2 L -1907.5 -5014.2 L -1309.3 -5014.2 L -707 -5014.3 L -342.7 -5014.2 L -342.2 -5081.9 L -282.6 -5082.7 L -251.3 -4986.1 L -196.6 -4956.3 L -73.7 -4945.4 L 106 -4917.4 L 276.8 -4862.8 L 419.4 -4885.7 L 635.9 -4839.9 L 693.5 -4841.7 L 851 -4891.5 L 1016.2 -4827.6 L 1188.3 -4759.5 L 1330.9 -4700.9 L 1467.5 -4644.6 L 1484.6 -4598.3 L 1526 -4580.9 L 1515.3 -4563.5 L 1562.5 -4558.1 L 1596.7 -4576.3 L 1605.6 -4534.6 L 1641 -4506.7 L 1689.3 -4506.7 L 1715.1 -4485.2 L 1693.4 -4453.9 L 1876.8 -4371.2 L 1914.4 -4211.5 L 1949.6 -4058.5 L 1898.1 -3954.5 L 1815.4 -3857.6 L 1776.7 -3796 L 1772.8 -3777.7 L 1792.5 -3752.5 L 1852.3 -3724.7 L 1896.5 -3724.7 L 2101 -3818.7 L 2282.3 -3846.4 L 2512.6 -3934 L 2516 -3951.8 L 2500.2 -4005.5 L 2471.7 -4040.1 L 2551.2 -4068 L 2724.1 -4068.7 L 2885.7 -4068.7 L 2942 -4137.3 L 2964.1 -4151 L 3150.1 -4277.7 L 3229.5 -4310.1 L 3497 -4311.4 L 3821.4 -4311.5 L 3839 -4355 L 3895.3 -4363.8 L 3970.1 -4391 L 4032.6 -4471.1 L 4086.3 -4608.1 L 4220.6 -4741 L 4279.1 -4694.7 L 4397.1 -4724.6 L 4475.3 -4673.8 L 4475.1 -4433.8 L 4590.2 -4334.3 L 4620.6 -4276.6 L 4432.7 -4191.3 L 4251.8 -4130.5 L 4065.9 -4078.4 L 3972.7 -3973.9 L 3942.9 -3934.3 L 3941.1 -3840.9 L 3999.2 -3747.6 L 4072.2 -3743.2 L 4053.7 -3807.5 L 4106.6 -3768.4 L 4092.5 -3718.1 L 3973.6 -3689.5 L 3889.1 -3692.9 L 3758.9 -3662.2 L 3682.3 -3653.4 L 3579.9 -3644.7 L 3433.2 -3593.8 L 3691.8 -3626.9 L 3743.9 -3593.6 L 3497.5 -3540.8 L 3385.3 -3540.4 L 3390.5 -3562 L 3337 -3513.2 L 3388.8 -3505.1 L 3350.7 -3378.7 L 3222.6 -3243.2 L 3209.6 -3288.4 L 3170.9 -3297.6 L 3113.1 -3341.6 L 3149.8 -3246.8 L 3193.5 -3215.5 L 3196.1 -3148.9 L 3139.7 -3080.5 L 3040.6 -2939.9 L 3024.6 -2946.9 L 3079 -3066.7 L 2989.1 -3134 L 2968.5 -3280.2 L 2934.5 -3204.1 L 2972.1 -3092.4 L 2855.8 -3120 L 2977 -3063.3 L 2984.5 -2895.8 L 3035 -2883.7 L 3053.3 -2822.7 L 3078 -2646.6 L 2966.1 -2516 L 2784 -2463.8 L 2668.3 -2360.5 L 2580.4 -2349.2 L 2491.3 -2284.5 L 2466.1 -2225.5 L 2272.9 -2111.2 L 2173.6 -2027.4 L 2090.7 -1923 L 2063.5 -1798 L 2094.6 -1675.7 L 2153.4 -1525.1 L 2231.6 -1400.5 L 2232.6 -1324.4 L 2316 -1120.2 L 2310.4 -1001.5 L 2302.7 -933 L 2258.8 -825.6 L 2206.2 -803.3 L 2119.6 -824.7 L 2091.8 -901.9 L 2024.9 -942.4 L 1931.6 -1093.8 L 1849.7 -1228.5 L 1823.3 -1297.4 L 1859.4 -1414.2 L 1810.1 -1511 L 1672.9 -1658.3 L 1604.1 -1685.3 L 1426.6 -1605.4 L 1395 -1614.2 L 1309.6 -1696.3 L 1199.3 -1739.9 L 1000.3 -1717.8 L 844 -1737.2 L 709.8 -1725.1 L 637 -1697.6 L 668.7 -1650.8 L 665.9 -1579.4 L 703.2 -1544.7 L 669.7 -1521.5 L 604.4 -1547.5 L 538.3 -1514.1 L 410.6 -1519.6 L 279.1 -1612.6 L 125.6 -1590.6 L -2.5 -1631.4 L -112 -1619 L -260.1 -1577.9 L -420.4 -1447.4 L -595.3 -1371.5 L -691.4 -1287.5 L -731.9 -1208.2 L -733.7 -1086.8 L -724.9 -1002.3 L -691.4 -942.4 L -760.1 -937.1 L -885.1 -975.9 L -1022.4 -1030.4 L -1071.7 -1113.2 L -1110.4 -1236.4 L -1214.3 -1336.7 L -1275.1 -1439.9 L -1363.5 -1560.4 L -1487.5 -1630.6 L -1631.5 -1627.2 L -1742.4 -1488.1 L -1888.5 -1541 L -1979.5 -1594.1 L -2023.3 -1690.9 L -2081.7 -1782.8 L -2186.3 -1860.3 L -2276.3 -1915.9 L -2340.5 -1978.3 L -2645.5 -1978.4 L -2645.8 -1905.7 L -2785.4 -1905.7 L -3135.5 -1904.4 L -3537.1 -2028.4 L -3802.9 -2114 L -3786.4 -2148.4 L -4010 -2129.3 L -4210.1 -2115.8 L -4239.7 -2205.7 L -4353.7 -2306.9 L -4435.9 -2328 L -4455.1 -2378.5 L -4553.9 -2387.4 L -4616.9 -2435 L -4780.4 -2452.3 L -4825.3 -2480.8 L -4846.7 -2577.3 L -5017.5 -2754.1 L -5164.1 -2998.9 L -5157.9 -3039.6 L -5235.6 -3097.8 L -5371.8 -3245.3 L -5396.1 -3388.8 L -5489.9 -3485 L -5451.3 -3630.9 L -5457.5 -3781.9 L -5513.6 -3916.8 L -5444.9 -4082.7 L -5423.5 -4242.4 L -5402.1 -4402.2 L -5433.9 -4638.3 L -5489.5 -4788.9 L -5540.8 -4870.6 L -5519.5 -4905 L -5264.9 -4845.2 L -5171.2 -4679 L -5127.6 -4725.5 L -5155.8 -4869.9 L -5215.6 -5014.2 Z M -10947.9 76.9 L -10916.6 92.2 L -10888 115.7 L -10843.2 177.4 L -10847.4 187.2 L -10916.2 224.8 L -10972.5 252.3 L -10998.2 281.7 L -11042 256.5 L -11036.9 207.3 L -11066.1 143.2 L -11057.3 123.6 L -11026.7 94.9 L -11038.9 60.3 L -11028.7 43.9 L -11015.3 47.2 L -10947.9 76.9 Z M -11052.4 -43.6 L -11067.1 -22.4 L -11126.1 -9.8 L -11156.4 -46.9 L -11176.6 -61.2 L -11178.2 -72.2 L -11161 -87.3 L -11098.4 -70.6 L -11052.4 -43.6 Z M -11186.6 -116.2 L -11192.1 -97.2 L -11286.4 -102.3 L -11273.2 -123.8 L -11186.6 -116.2 Z M -11409.6 -211.3 L -11394.9 -200 L -11344.1 -141.8 L -11353.6 -131.7 L -11366.2 -133.9 L -11427.5 -140.1 L -11449.9 -180 L -11456.7 -187.1 L -11409.6 -211.3 Z M -11645.6 -299 L -11642 -258 L -11662.9 -240.5 L -11722.2 -272.6 L -11713.1 -285.5 L -11686.2 -302.7 L -11645.6 -299 Z M -12895.9 -7018.3 L -12756.2 -7002.3 L -12739.4 -6934.8 L -12847.5 -6907.4 L -12962.9 -6940.3 L -13069.7 -6988.2 L -12895.9 -7018.3 Z M -10565.3 -6593.1 L -10448.4 -6581.2 L -10373.8 -6526.6 L -10526.1 -6442.9 L -10701.9 -6375.8 L -10792 -6421.3 L -10819.2 -6503.7 L -10659.3 -6566.3 L -10565.3 -6593.1 Z M -8410.1 -8660.4 L -8410.1 -8660.4 L -8411.2 -8006.9 L -8412.1 -7004.6 L -8238.8 -6999.4 L -8067.3 -6950.7 L -7944.4 -6873.6 L -7788 -6757.9 L -7616.8 -6856.3 L -7440.1 -6913.3 L -7346.6 -6822.2 L -7228 -6750.2 L -7066.8 -6670.8 L -6956.7 -6544.5 L -6776.7 -6343.7 L -6477.5 -6231.7 L -6472.6 -6120.6 L -6570.5 -6035.7 L -6570.5 -6035.7 L -6570.5 -6035.7 L -6667.2 -6102 L -6822.4 -6158.1 L -6872.2 -6311.6 L -7099.1 -6454 L -7194 -6620.2 L -7363 -6631.6 L -7642.9 -6635.9 L -7849.2 -6686.6 L -8213.2 -6869.3 L -8381.8 -6902.7 L -8689.7 -6965.5 L -8933.4 -6950.5 L -9279.6 -7031.4 L -9488.9 -7106.4 L -9684.3 -7069.1 L -9648 -6946.8 L -9745.3 -6935.5 L -9949 -6898.8 L -10104 -6839.4 L -10299 -6802 L -10324.2 -6905.8 L -10245.1 -7078.4 L -10058 -7132.6 L -10106.2 -7176.8 L -10330.6 -7078.7 L -10450.8 -6961.5 L -10704.4 -6836.3 L -10575.6 -6750.8 L -10742 -6624.3 L -10931.2 -6550.7 L -11107.4 -6497 L -11151 -6419 L -11425.8 -6328.1 L -11481.5 -6245.5 L -11687.5 -6170.2 L -11808.3 -6183.8 L -11972.6 -6134.7 L -12151.2 -6074.7 L -12297.6 -6015.8 L -12599.7 -5965.6 L -12627.3 -5995.2 L -12434.7 -6077.4 L -12262.5 -6131.7 L -12074.9 -6228 L -11856.5 -6247.9 L -11769.7 -6320.1 L -11525.7 -6425.5 L -11486.4 -6460.7 L -11356.4 -6522.9 L -11326 -6656.4 L -11236.5 -6760.3 L -11439.5 -6707 L -11496.3 -6737.3 L -11591.6 -6673.3 L -11706.5 -6762.5 L -11754 -6699.4 L -11819.8 -6787.1 L -11995.8 -6716.7 L -12103.9 -6716.8 L -12119 -6821.6 L -12087.2 -6886.2 L -12200.6 -6948.8 L -12429.5 -6915.1 L -12578 -6997.7 L -12698.5 -7040 L -12699.2 -7139.7 L -12834.9 -7214.7 L -12766.8 -7315.9 L -12623.3 -7414.2 L -12560.5 -7504.5 L -12418 -7517.4 L -12297.2 -7489.2 L -12155.2 -7574.2 L -12027.4 -7559 L -11893.3 -7613.6 L -11926 -7694 L -12024.5 -7725.7 L -11894.2 -7793.6 L -12002.3 -7791.6 L -12189.1 -7753.3 L -12242.8 -7714.4 L -12381.6 -7753.3 L -12630.6 -7733.5 L -12888.4 -7775.7 L -12962.3 -7846.5 L -13185.1 -7948.8 L -12937.7 -8022.4 L -12545 -8108.4 L -12400.3 -8108.4 L -12424.2 -8020.5 L -12052.6 -8027.3 L -12195.6 -8136.4 L -12412.1 -8203.4 L -12537.3 -8291.4 L -12706.2 -8366.5 L -12948.1 -8422.2 L -12849.6 -8514.4 L -12537.3 -8520.1 L -12315.1 -8600.3 L -12273.2 -8686.1 L -12093.3 -8769.7 L -11921.8 -8789.9 L -11588.1 -8868 L -11426.3 -8856.2 L -11155.4 -8950.1 L -10889 -8913.1 L -10761.6 -8833.7 L -10683.4 -8867.7 L -10385.9 -8857.2 L -10396.5 -8816.7 L -10127.2 -8786.8 L -9947.6 -8804.4 L -9576.7 -8748.7 L -9238.2 -8732.2 L -9102.6 -8709.3 L -8868.4 -8737.9 L -8601.3 -8685 L -8410.1 -8660.4 L -8410.1 -8660.4 Z M -13822.5 -7616.5 L -13713.9 -7583 L -13604.1 -7601.1 L -13461.8 -7554.7 L -13287 -7531.2 L -13301.5 -7512 L -13434.8 -7474.7 L -13568.8 -7513 L -13635.9 -7544.9 L -13791.1 -7534.7 L -13833 -7550.2 L -13822.5 -7616.5 Z" />
<path class="neighbor" d="M -4210.1 -2115.8 L -4010 -2129.3 L -3786.4 -2148.4 L -3802.9 -2114 L -3537.1 -2028.4 L -3135.5 -1904.4 L -2785.4 -1905.7 L -2645.8 -1905.7 L -2645.5 -1978.4 L -2340.5 -1978.3 L -2276.3 -1915.9 L -2186.3 -1860.3 L -2081.7 -1782.8 L -2023.3 -1690.9 L -1979.5 -1594.1 L -1888.5 -1541 L -1742.4 -1488.1 L -1631.5 -1627.2 L -1487.5 -1630.6 L -1363.5 -1560.4 L -1275.1 -1439.9 L -1214.3 -1336.7 L -1110.4 -1236.4 L -1071.7 -1113.2 L -1022.4 -1030.4 L -885.1 -975.9 L -760.1 -937.1 L -691.4 -942.4 L -759.7 -787.9 L -790.5 -661.2 L -803.4 -425.3 L -820.3 -339.3 L -789.8 -243.3 L -735.2 -157.5 L -700.1 -20.9 L -583.3 110.1 L -542.2 210.6 L -473.3 297.3 L -286.4 344 L -213.6 417.6 L -59.2 368.4 L 75 350.6 L 206.9 319 L 317.7 288.8 L 429.6 217 L 471.6 114.3 L 486 -33.6 L 516.5 -85.1 L 635.7 -131.2 L 821.8 -172 L 977.7 -165.9 L 1084.5 -180.8 L 1126.7 -143.5 L 1120.8 -58.7 L 1026.2 46 L 984.3 153.2 L 1016.7 183.8 L 990.4 259.9 L 946.2 397.3 L 901.6 352.1 L 864.8 355 L 831.3 357.3 L 768.2 463.6 L 736.3 442.8 L 715 450.9 L 716.4 476.8 L 553.6 474.8 L 389.2 475.1 L 389.1 574.2 L 309.6 574.7 L 375.1 633.4 L 440.2 674.1 L 459.7 712.2 L 488.3 722.9 L 483.7 782.9 L 257.8 783.4 L 173.1 926.9 L 198.1 959.8 L 177.7 1001 L 173.3 1052.3 L -25.9 862.8 L -116.7 805.6 L -260.4 759.7 L -358.7 772.5 L -500.1 838.7 L -588.9 856.1 L -713.2 809.7 L -845.1 776.2 L -1009.6 695.5 L -1141.6 670.8 L -1340.9 588.9 L -1488.2 504.8 L -1532.6 457.8 L -1631.1 447.3 L -1811.2 391.6 L -1884.5 311.2 L -2073.7 211.3 L -2161.9 100.3 L -2203.8 14.5 L -2145.1 -2.7 L -2163.2 -52.9 L -2122.8 -98.5 L -2121.9 -159.4 L -2181.3 -238.5 L -2197.2 -308.5 L -2256.2 -397.4 L -2411.3 -572.3 L -2588.3 -709.9 L -2674 -819.6 L -2825.1 -891.5 L -2857.4 -934.5 L -2830.6 -1043.3 L -2920.3 -1084.3 L -3024.2 -1169.9 L -3068.1 -1292.7 L -3162.8 -1307 L -3265 -1399.8 L -3347.5 -1485.4 L -3355.2 -1540.4 L -3449.9 -1673.2 L -3512.2 -1808 L -3509.6 -1875.6 L -3636.9 -1945.4 L -3695.7 -1937.8 L -3796.1 -1986.3 L -3824.3 -1914.8 L -3795.2 -1830.3 L -3778.1 -1698.1 L -3717.7 -1625.5 L -3587.1 -1504.3 L -3558.1 -1462.8 L -3531.3 -1450.3 L -3508.1 -1389.8 L -3476.8 -1392.2 L -3441.4 -1278.7 L -3388 -1233.9 L -3350.5 -1171.6 L -3239.9 -1082 L -3181.4 -918.2 L -3129.2 -841.1 L -3080.3 -758.6 L -3070.6 -665.8 L -2985.7 -660 L -2915.1 -580 L -2851.3 -501.4 L -2855.5 -469.9 L -2929.6 -405.2 L -2960.8 -406 L -3007.2 -513.1 L -3122.4 -613.4 L -3249.4 -698.5 L -3339.4 -743.2 L -3333.6 -872 L -3360.3 -967.4 L -3444.2 -1022 L -3565.2 -1100.5 L -3588.5 -1077.9 L -3632.9 -1123.7 L -3741.4 -1166.4 L -3845.2 -1268.6 L -3832.4 -1281.9 L -3759.9 -1271.9 L -3694.5 -1337.6 L -3688 -1417 L -3823.5 -1542.6 L -3926.8 -1591.4 L -3991.7 -1701.3 L -4057 -1816.7 L -4138.5 -1957.4 L -4210.1 -2115.8 Z" />
<path class="neighbor" d="M 1682.4 1686.1 L 1640.2 1723.4 L 1588.3 1711.7 L 1559.1 1675.4 L 1503.3 1660.7 L 1462.8 1683.7 L 1346.8 1637.1 L 1320.3 1659.7 L 1259.4 1604.3 L 1177.1 1533.3 L 1138.3 1473.9 L 1064.1 1418.6 L 975.9 1339.1 L 995.5 1311.9 L 1024.6 1338.4 L 1037.9 1325.9 L 1092.6 1318.7 L 1114.7 1278.5 L 1140.5 1276.9 L 1136.7 1190.3 L 1178 1186.2 L 1214.7 1187.4 L 1252.7 1140.5 L 1304.6 1176 L 1322.7 1154.2 L 1355.2 1133.3 L 1416.6 1084.8 L 1419.5 1048.6 L 1436.4 1050.1 L 1459 1008 L 1477.4 1002.9 L 1507.4 1029.8 L 1542.6 1037.7 L 1581.6 1015.4 L 1626 1015.2 L 1687.1 992.2 L 1711.5 968.3 L 1771.9 971.9 L 1756.7 988.8 L 1747.8 1028.1 L 1765.7 1092.5 L 1725.2 1152.4 L 1706.3 1223.3 L 1700.6 1300.8 L 1710 1346.2 L 1714.5 1425.5 L 1687.6 1442.8 L 1671.1 1518.1 L 1683.2 1564.6 L 1647.2 1609.6 L 1655.4 1657.2 L 1682.4 1686.1 Z" />
<path class="neighbor" d="M 1771.9 971.9 L 1711.5 968.3 L 1687.1 992.2 L 1626 1015.2 L 1581.6 1015.4 L 1542.6 1037.7 L 1507.4 1029.8 L 1477.4 1002.9 L 1459 1008 L 1436.4 1050.1 L 1419.5 1048.6 L 1416.6 1084.8 L 1355.2 1133.3 L 1322.7 1154.2 L 1304.6 1176 L 1252.7 1140.5 L 1214.7 1187.4 L 1178 1186.2 L 1136.7 1190.3 L 1140.5 1276.9 L 1114.7 1278.5 L 1092.6 1318.7 L 1037.9 1325.9 L 1007.5 1270.8 L 954 1255.5 L 966.3 1185 L 942.3 1166 L 906.1 1153.4 L 828.9 1174.4 L 822.3 1150.7 L 769.2 1122.4 L 731.2 1087.3 L 679.3 1072.5 L 715.9 1027.8 L 701.9 993.3 L 714.3 959.4 L 797.8 910.2 L 878 843 L 896.3 849.9 L 934.9 819 L 985.2 816.4 L 1001.6 830.8 L 1028.9 822 L 1110.7 837.9 L 1192 833.3 L 1248.7 813.9 L 1269.3 794.1 L 1325.4 803.3 L 1367.5 815.2 L 1413.6 811.1 L 1448.6 795.8 L 1529 820.2 L 1556.9 824.1 L 1610.6 857 L 1661.5 896.5 L 1725.5 923.4 L 1771.9 971.9 Z" />
<path class="neighbor" d="M 173.3 1052.3 L 177.7 1001 L 198.1 959.8 L 173.1 926.9 L 257.8 783.4 L 483.7 782.9 L 488.3 722.9 L 459.7 712.2 L 440.2 674.1 L 375.1 633.4 L 309.6 574.7 L 389.1 574.2 L 389.2 475.1 L 553.6 474.8 L 716.4 476.8 L 715 616.3 L 701.2 815 L 753.8 814.9 L 811.2 846.8 L 826.3 820.6 L 878 843 L 797.8 910.2 L 714.3 959.4 L 701.9 993.3 L 715.9 1027.8 L 679.3 1072.5 L 638.2 1083.3 L 647.5 1104.1 L 614.5 1123.5 L 554.1 1168 L 548.7 1193.8 L 458.4 1163.1 L 348.6 1159.9 L 268 1125 L 173.3 1052.3 Z" />
<path class="lake" d="M 763.1 845.8 L 754.8 851.8 L 746.8 859.1 L 742 870.3 L 737.6 885 L 727.7 893 L 709.4 897.7 L 699.6 898.9 L 692.7 901.6 L 688.5 903.9 L 684.1 898.7 L 677.2 890.2 L 673.2 885.2 L 676.1 882.2 L 685.7 879.3 L 698.1 874.6 L 709.3 869.9 L 723 865.1 L 746.7 850.1 L 765.9 836.6 L 769.2 836.4 L 767.6 840.6 L 763.1 845.8 L 763.1 845.8 L 763.1 845.8 L 763.1 845.8 Z" />
<path class="country" d="M 716.4 476.8 L 715 450.9 L 736.3 442.8 L 768.2 463.6 L 831.3 357.3 L 864.8 355 L 865.4 380.8 L 898.8 381.6 L 895.9 429.5 L 867.4 505.7 L 882.8 532.9 L 864.3 595.9 L 875.4 612.7 L 855 701.7 L 820.4 748.4 L 788.7 754 L 753.8 814.9 L 701.2 815 L 715 616.3 L 716.4 476.8 Z" />

<path class="river" d="M 340.5 968.1 L 343 943.4 L 336.2 929.5 L 337.4 923.6 L 344.3 921 L 381.2 916.9 L 410.4 920.5 L 446.4 929.6 L 467.8 931.5 L 478.8 920.8 L 480.5 915.5 L 471.5 910.1 L 451.7 904.5 L 446.4 895.9 L 455.7 884.4 L 457.9 872.9 L 452.8 861.6 L 444.8 854.9 L 433.6 852.7 L 426.4 848.5 L 423.1 842.2 L 426.5 827.3 L 436.7 803.8 L 453.3 791.7 L 476.4 791.1 L 486.8 782.7 L 484.6 766.5 L 486.3 749.1 L 492.1 733.3 L 492.1 726.3" />
<path class="river" d="M 1121.1 1249.2 L 1157.2 1232.9 L 1183 1215.8 L 1197.3 1211.3 L 1208.7 1213.8 L 1220.1 1222.5 L 1231.6 1237.5 L 1243.7 1242.1 L 1256.4 1236.4 L 1268.9 1234.4 L 1281.2 1235.9 L 1295 1221 L 1310.3 1189.6 L 1317.6 1169 L 1317 1159.2 L 1325.7 1150.2 L 1343.6 1142.2 L 1361.7 1128 L 1379.9 1107.8 L 1395.7 1095.8 L 1409 1092.3 L 1414.1 1086.7 L 1410.9 1079.2 L 1412 1068.6 L 1417.3 1054.7 L 1425.1 1046.7 L 1435.3 1044.6 L 1439.3 1040.2 L 1437.1 1033.7 L 1439.1 1026.5 L 1448.3 1014.7 L 1470.3 1004.6 L 1482.8 1008 L 1493.3 1021.6 L 1508 1030.8 L 1527.1 1035.7 L 1541.9 1033.9 L 1552.4 1025.4 L 1561.9 1022.8 L 1570.4 1026.2 L 1574.8 1024.3 L 1575.3 1017.2 L 1579.6 1015.5 L 1587.9 1019.4 L 1595.2 1020.4 L 1601.6 1018.5 L 1604.1 1015 L 1605.4 1011.5 L 1610.2 1008.8 L 1626.6 1011.4 L 1645.1 1007.3 L 1665.6 996.4 L 1679.2 991.6 L 1685.9 992.9 L 1694 987.4 L 1703.3 975.2 L 1724.7 969.7 L 1770.1 972.4" />
<path class="river" d="M 4971.7 10442.7 L 5037.6 10449.4 L 5073.8 10455.8 L 5102.5 10464.2 L 5144.5 10484.1 L 5199.9 10515.5 L 5238.2 10532.9 L 5259.4 10536.2 L 5280.9 10544.2 L 5302.6 10556.7 L 5333 10565.2 L 5372 10569.6 L 5403.7 10584.4 L 5440.3 10622 L 5445.4 10627.3 L 5449.9 10632.3 M 4033.1 9823.8 L 4047 9877.1 L 4057.1 9900.2 L 4073.6 9916.3 L 4110 9924.5 L 4128.1 9942.8 L 4140.1 9973.8 L 4144.2 9994.9 L 4140.6 10006.2 L 4140.3 10020.7 L 4143.3 10038.7 L 4140.1 10054.1 L 4130.7 10067.1 L 4124.2 10086.4 L 4120.5 10112 L 4122.1 10128.7 L 4128.9 10136.5 L 4139.3 10143.9 L 4153 10150.9 L 4180.8 10155.8 L 4222.6 10158.7 L 4248.9 10167.4 L 4259.6 10182 L 4285.2 10192.7 L 4325.6 10199.5 L 4350.1 10207.1 L 4358.8 10215.6 L 4390.4 10223.4 L 4445 10230.5 L 4476.5 10241.2 L 4485.1 10255.4 L 4482.3 10269.6 L 4468.3 10283.9 L 4461.9 10295.7 L 4463.3 10305.2 L 4469.3 10311.1 L 4479.8 10313.4 L 4493 10322.8 L 4508.9 10339.2 L 4533.5 10345.6 L 4566.7 10342.2 L 4588 10348.6 L 4597.4 10365.1 L 4615.6 10378 L 4656.2 10392.1 L 4675.5 10400.5 L 4684.3 10408.6 L 4689.1 10419.4 L 4699 10426.2 L 4714 10429.1 L 4778.5 10431.6 L 4809.4 10435.3 L 4833.2 10441.9 L 4850.7 10443.4 L 4861.8 10439.7 L 4876 10440.6 L 4893.2 10446.1 L 4919 10447.3 L 4970.4 10442.7 M -3786.4 -2149.1 L -3798.2 -2121 L -3807.2 -2110.3 L -3817.4 -2107.8 L -3828.3 -2095.4 L -3839.8 -2073.4 L -3851.9 -2059 L -3864.4 -2052.5 L -3870.4 -2043.4 L -3870 -2031.8 L -3868.4 -2029.2 L -3865.9 -2029.5 L -3862.4 -2027.9 L -3857.6 -2019.5 L -3851.8 -2015.3 L -3841.7 -2015.6 L -3837.2 -2012 L -3832.2 -2007 L -3823.8 -2004.1 M -3688.2 -2418.2 L -3717.4 -2398.6 L -3733.1 -2382.6 L -3749.1 -2356.7 L -3746.6 -2335.7 L -3747.3 -2318.3 L -3751.3 -2304.5 L -3757.3 -2291.9 L -3765.5 -2280.3 L -3774.1 -2273.4 L -3783 -2271.1 L -3786.1 -2255.8 L -3783.4 -2227.5 L -3773.5 -2210.2 L -3756.4 -2204.1 L -3745.9 -2194.7 L -3742 -2182.1 L -3743.5 -2169.8 L -3750.4 -2157.6 L -3761.9 -2150.9 L -3786.4 -2149.1 M -3763.5 -2611.8 L -3766.9 -2549.2 L -3767 -2533.4 L -3757.6 -2513.5 L -3729.5 -2477.4 L -3726.1 -2468.8 M -3790 -2728.1 L -3788.4 -2722.8 L -3780.4 -2711.2 L -3779.8 -2692.9 L -3778.6 -2678.1 L -3773.9 -2670 L -3773 -2660.7 M -3461.6 -2775.1 L -3519.7 -2747.6 L -3535.4 -2734.1 L -3540.6 -2724.8 L -3540.3 -2696.7 L -3546 -2684.2 L -3557.7 -2683.9 L -3585.4 -2690.7 L -3595.3 -2695.9 M -3214.7 -2889.8 L -3235.3 -2875.3 L -3251.5 -2857.3 L -3270.1 -2831.2 L -3281.3 -2811.6 L -3285.1 -2798.6 L -3283.6 -2782 L -3276.7 -2761.9 L -3278.2 -2747.9 L -3288.1 -2739.9 L -3306.5 -2738.5 L -3333.3 -2743.7 L -3352.5 -2752.4 L -3364.1 -2764.6 L -3373.7 -2769 L -3381.3 -2765.5 L -3388.2 -2766 L -3394.6 -2770.3 L -3395.2 -2776.4 L -3390.2 -2784.2 L -3389.7 -2790.1 L -3393.5 -2794.1 L -3401.1 -2796.2 L -3412.6 -2796.4 L -3429.4 -2791.1 L -3462.5 -2775.1 M -2226.7 -3458.9 L -2248.5 -3452.3 L -2273.3 -3446.2 L -2301.2 -3445.9 L -2321.7 -3440.8 L -2336 -3433.1 L -2355.8 -3416.2 L -2363.5 -3411.2 L -2370.2 -3410.5 L -2379 -3415.8 L -2390.8 -3416.6 L -2405.5 -3412.7 L -2421.8 -3399.6 L -2439.7 -3377.3 L -2450.4 -3367.1 L -2468.6 -3359.9 L -2522.4 -3355.7 L -2556.3 -3355.8 L -2576.2 -3351.8 L -2593.4 -3343.9 L -2621.9 -3326 L -2645.9 -3309.2 L -2658.5 -3285.2 L -2679.5 -3271.3 L -2701.4 -3269.6 L -2744.2 -3286.2 L -2755.8 -3289.1 L -2770.8 -3288.7 L -2788.2 -3278.6 L -2813.7 -3259.6 L -2825.9 -3242.4 L -2833.2 -3220.7 L -2843.1 -3207 L -2855.7 -3201.4 L -2867 -3192.4 L -2877.2 -3180.1 L -2884.1 -3175.3 L -2887.4 -3176.6 L -2890.9 -3173.9 L -2893.4 -3163.2 L -2897.3 -3157.5 L -2902.5 -3156.8 L -2906.5 -3150.7 L -2909.3 -3139.4 L -2917.4 -3127 L -2937.2 -3106.9 L -2978.3 -3071.1 L -2999 -3059.3 L -3020 -3059.8 M -2223.9 -3501 L -2218.8 -3467.8 L -2219.6 -3462.4" />
<path class="river" d="M 492.1 726.3 L 482.6 717.7 L 464.1 712.7 L 453.9 705.2 L 453.8 695.6 L 449.3 684 L 440.4 670.4 L 421.9 656.5 L 393.7 642.3 L 369.8 623.2 L 350 599.3 L 333.3 583.9 L 320.4 577.4 L 316.1 572.6 L 316 568.6 L 319.1 563.7 L 316.7 557.4 L 307.4 551.4 L 302.1 545 L 300.7 538.4 L 303.5 534.4 L 310.5 533.2 L 310.3 528.4 L 303.1 520 L 306.2 515.3 L 319.4 514.4 L 325 508.7 L 323 498.3 L 319 493.9 L 313.2 495.6 L 310.9 493.2 L 312 486.8 L 309.2 481.9 L 302.5 478.6 L 297.2 479.3 L 293.3 484.1 L 289.6 483 L 286.2 475.9 L 281.6 475 L 275.8 480.4 L 274.8 484.5 L 276.8 487 L 276.6 489.5 L 267.9 490.3 L 260.6 485 L 250.4 470.5 L 239.9 464.6 L 228.9 467.3 L 214.7 462.8 L 197.1 451.1 L 189.2 440.8 L 191.1 432 L 188 421.6 L 180.1 409.5 L 176.1 407 M 176.1 407 L 161.3 398.1 L 131.8 387.3 L 112.7 384 L 104.1 388.1 L 98.7 384.4 L 95.4 367.2 L 94.7 358.4 L 94 347.4 L 92.3 341.2 L 88.4 335.3 M 176.1 407 L 167.2 379.5 L 158.9 368 L 148.1 360.8 L 139.1 349.6 L 128 326" />
<g class="city"><circle cx="472.39969552751677" cy="1037.4892577392502" r="5" /><text x="484.39969552751677" y="1041.4892577392502">Guatemala City</text></g>
<g class="city"><circle cx="782.5534778595397" cy="574.6888150371756" r="5" /><text x="794.5534778595397" y="578.6888150371756">Belmopan</text></g>
<text class="map-title" x="80" y="105">Belize Physical Study Map</text>
<text class="map-subtitle" x="80" y="145">Landmark: Great Blue Hole | Study terrain and water systems</text>
  <text class="footer" x="80" y="1036">Made with Natural Earth. Free vector and raster map data @ naturalearthdata.com.</text>
</svg>
