<?xml version="1.0" encoding="UTF-8"?>
<svg xmlns="http://www.w3.org/2000/svg" width="1600" height="1100" viewBox="0 0 1600 1100" role="img" aria-labelledby="title desc">
  <title id="title">Congo (DRC) Political Study Map</title>
  <desc id="desc">Made with Natural Earth. Free vector and raster map data @ naturalearthdata.com.</desc>
  <defs>
    <linearGradient id="terrain" x1="0" x2="1" y1="0" y2="1">
      <stop offset="0%" stop-color="#6c8c53" />
      <stop offset="42%" stop-color="#d5c487" />
      <stop offset="72%" stop-color="#b88b5f" />
      <stop offset="100%" stop-color="#f1f5ee" />
    </linearGradient>
    <filter id="softShadow" x="-10%" y="-10%" width="120%" height="120%">
      <feDropShadow dx="0" dy="10" stdDeviation="12" flood-color="#0f172a" flood-opacity="0.16" />
    </filter>
    <style>
      .neighbor { fill: #ffffff; stroke: #94a3b8; stroke-width: 1.2; opacity: 0.72; }
      .country { fill: #f7f1df; stroke: #1f2937; stroke-width: 4; filter: url(#softShadow); }
      .admin1 { fill: none; stroke: #64748b; stroke-width: 1.1; stroke-dasharray: 6 7; opacity: 0.75; }
      .river { fill: none; stroke: #1d9bd1; stroke-width: 3; stroke-linecap: round; opacity: 0.88; }
      .lake { fill: #8ed1ea; stroke: #0ea5e9; stroke-width: 1.5; opacity: 0.8; }
      .city circle { fill: #ef4444; stroke: #ffffff; stroke-width: 2; }
      .city text, .terrain-label { fill: #172033; font: 700 24px system-ui, sans-serif; paint-order: stroke; stroke: #ffffff; stroke-width: 5; stroke-linejoin: round; }
      .map-title { fill: #0f172a; font: 800 46px system-ui, sans-serif; }
      .map-subtitle { fill: #475569; font: 600 24px system-ui, sans-serif; }
      .footer { fill: #64748b; font: 500 18px system-ui, sans-serif; }
    </style>
  </defs>
  <rect width="100%" height="100%" fill="#eaf3f8" />
  <rect x="40" y="40" width="1520" height="1020" rx="32" fill="#ffffff" opacity="0.54" />
  <path class="neighbor" d="M 4733.8 884.8 L 4733.8 896.9 L 4718 903.1 L 4702.1 908.3 L 4699 899 L 4711.4 893.9 L 4719.2 892.6 L 4733.8 884.8 Z M 4687.2 920.5 L 4693.4 916.4 L 4702 923.6 L 4697.9 936.6 L 4682.5 940 L 4668.8 936.9 L 4666.4 926 L 4675.9 917.5 L 4687.2 920.5 Z M -4206 883.7 L -4209 895.6 L -4211.1 896.9 L -4211.1 884.8 L -4206 883.7 Z" />
<path class="neighbor" d="M 1103.8 509.2 L 1108 511.9 L 1198.1 562.5 L 1199.8 577 L 1235.4 601.8 L 1223.9 632.4 L 1225.4 646.5 L 1241.3 655.6 L 1242.1 662 L 1235.2 677 L 1236.7 684.6 L 1235 696.4 L 1243.7 712 L 1254 736.5 L 1263.1 741.9 L 1263.1 741.9 L 1243.3 756.4 L 1216.2 766 L 1201.3 765.6 L 1192.4 773 L 1175.1 773.7 L 1168.6 776.8 L 1138.8 769.8 L 1120.1 771.8 L 1113.1 738 L 1104.7 726.5 L 1099.7 719.6 L 1075.3 715 L 1061.2 707.5 L 1045.4 703.3 L 1035.5 699.1 L 1025.2 692.8 L 1025.2 692.8 L 1011.7 661.5 L 997.3 647.6 L 992.4 633.2 L 994.8 620.3 L 990.4 597.4 L 1000.6 596.2 L 1009.7 587.2 L 1019.3 574.3 L 1025.5 569.1 L 1025.2 561 L 1019.9 555.4 L 1018.4 545.6 L 1018.4 545.6 L 1025.6 542.4 L 1027 527.8 L 1017.2 513.8 L 1025.9 510.8 L 1053.1 511.1 L 1103.8 509.2 Z" />
<path class="neighbor" d="M 1235.4 601.8 L 1199.8 577 L 1198.1 562.5 L 1108 511.9 L 1103.8 509.2 L 1103.5 482.9 L 1110.6 472.8 L 1122.9 456.4 L 1131.9 438.2 L 1121 409.7 L 1118.1 397.3 L 1106.3 380 L 1121.6 365.2 L 1138.4 348.8 L 1151.3 353 L 1151.3 366.9 L 1159.8 375.1 L 1177.1 375.1 L 1208.6 396.2 L 1216.4 396.4 L 1222.2 395.7 L 1227.7 398.6 L 1244.3 400.6 L 1251.6 390.2 L 1274.3 379.8 L 1284.4 388.2 L 1301.3 388.2 L 1279.6 416.4 L 1279.9 506.9 L 1294.6 527.4 L 1277.2 537.3 L 1271.1 547.7 L 1261.8 549.5 L 1258.3 567 L 1250.3 577.1 L 1245.4 593.6 L 1235.4 601.8 Z" />
<path class="neighbor" d="M 871.8 281.1 L 852.9 270.3 L 844.2 263.1 L 842.7 255.4 L 846.7 245 L 846.6 234.9 L 832.3 219.4 L 829.5 208.7 L 829.8 202.7 L 820.6 195.4 L 820.4 181 L 815.2 171.4 L 806.4 172.8 L 808.9 163.7 L 815.4 153.3 L 812.5 143 L 820.7 135.4 L 815.5 129.6 L 822.1 114.3 L 833.5 96 L 854.9 97.7 L 853.7 -0.9 L 854 -11.3 L 882.5 -11.4 L 882.5 -61 L 982.4 -61 L 1078.8 -61 L 1177.4 -61 L 1185.4 -36.7 L 1179.9 -32.1 L 1183.5 -6.6 L 1192.7 23.1 L 1202.1 29.2 L 1215.7 38.4 L 1203.2 52.6 L 1184.9 56.7 L 1177 64.3 L 1174.6 80.8 L 1163.9 117.3 L 1166.5 127.3 L 1162.6 148.6 L 1152.5 173.1 L 1137.5 185.4 L 1126.8 204.4 L 1124.3 214.5 L 1112.6 221.5 L 1105.2 247.5 L 1105.5 269.8 L 1105.2 250.4 L 1101.8 249.9 L 1102.2 237.6 L 1099.2 229 L 1086.5 219.2 L 1083.5 201.3 L 1086.5 183 L 1074.9 181.3 L 1073.2 186.8 L 1058.3 188.1 L 1064.3 195.3 L 1066.4 210.3 L 1052.8 223.9 L 1040.4 241.8 L 1027.6 244.4 L 1006.7 229.9 L 997.3 235 L 994.7 242.3 L 981.9 247 L 981.1 252.1 L 956.4 252.1 L 952.9 247 L 935 246.1 L 926.1 250.4 L 919.2 248.2 L 906.4 233.7 L 902.2 226.9 L 884.3 230.3 L 877.4 241.8 L 871 264 L 862.5 268.7 L 854.9 271.4 L 871.8 281.1 Z" />
<path class="neighbor" d="M 853.7 -0.9 L 854.9 97.7 L 833.5 96 L 822.1 114.3 L 815.5 129.6 L 820.7 135.4 L 812.5 143 L 815.4 153.3 L 808.9 163.7 L 806.4 172.8 L 815.2 171.4 L 820.4 181 L 820.6 195.4 L 829.8 202.7 L 829.5 208.7 L 813.7 213 L 801.1 223 L 783.2 250.1 L 759.8 261.7 L 735.8 260.1 L 728.8 262.4 L 731.2 271.1 L 718.3 279.8 L 707.7 289.5 L 676.5 299 L 670.2 293.4 L 666.1 292.9 L 661.6 299.3 L 641 301.2 L 644.9 294.5 L 637.1 277.3 L 633.6 267 L 622.7 262.8 L 608.1 248.3 L 613.5 236.6 L 624.8 239.1 L 631.8 237.3 L 645.7 237.6 L 632.2 215 L 633.1 198.5 L 631.4 182 L 621.5 166.1 L 624 154.4 L 608.1 153.8 L 608.1 137.8 L 597.8 128.6 L 608.5 95.9 L 640.2 72.5 L 641.5 40.1 L 651.1 -10.3 L 656.5 -21 L 646.2 -29.5 L 645.8 -37.4 L 636.5 -43.9 L 630.4 -82.5 L 655.5 -96.1 L 754.6 -48.5 L 853.7 -0.9 Z" />
<path class="neighbor" d="M 667.5 1195.6 L 679.4 1183.4 L 689.2 1190.2 L 693.4 1200.8 L 704.5 1202.6 L 720.2 1207.3 L 733.5 1205.5 L 755.7 1192.8 L 755.7 1101 L 762.4 1104.7 L 777.1 1128.3 L 774.9 1143.5 L 780.4 1152.2 L 798.2 1149.7 L 810.6 1138.6 L 822.4 1131.1 L 828.5 1119.2 L 840.6 1113.4 L 851.1 1116.5 L 862.9 1123.4 L 883.2 1124.7 L 899.1 1118.9 L 901.6 1111.1 L 905.9 1099.2 L 919.5 1097.2 L 926.9 1087.9 L 935.2 1071.3 L 957.5 1052.8 L 992.7 1034.5 L 1002.8 1034.8 L 1014.8 1039 L 1023.2 1036 L 1036.4 1038.5 L 1048.3 1073.5 L 1054.7 1091.1 L 1050.3 1118.8 L 1052.4 1127.7 L 1039.9 1123.2 L 1032.7 1124.9 L 1030.4 1132.2 L 1023.6 1141.5 L 1023.8 1150.1 L 1038.6 1163.6 L 1053.2 1160.9 L 1058.2 1149.9 L 1077.1 1150.1 L 1070.9 1168.1 L 1067.9 1188.8 L 1061.5 1200 L 1044.6 1212.6 L 1039.7 1216.1 L 1029.2 1228.8 L 1022.2 1241.5 L 1008.2 1259.3 L 980.1 1285 L 962.5 1299.9 L 943.8 1311.2 L 917.8 1320.8 L 905.1 1322.1 L 901.9 1329 L 886.8 1325.3 L 874.5 1330.1 L 847.6 1325.3 L 832.5 1328.3 L 822.3 1327 L 796.6 1336.8 L 775.4 1340.8 L 760.1 1350.2 L 748.8 1350.7 L 738.3 1341.9 L 729.9 1341.4 L 719.2 1330.3 L 718 1333.8 L 714.7 1327.1 L 714.8 1312.5 L 706.7 1295.9 L 714.8 1291.4 L 714.1 1272.3 L 697.8 1249 L 685.4 1228 L 685.3 1227.9 L 667.5 1195.6 Z M 981.4 1205.1 L 970.5 1197.4 L 958.9 1202.5 L 945.5 1212.2 L 932.2 1227.9 L 950.8 1247 L 959.7 1244.6 L 964.3 1236.6 L 978.2 1232.7 L 982.4 1224.6 L 990 1212.6 L 981.4 1205.1 Z" />
<path class="neighbor" d="M -1022.2 382.3 L -1036.9 405.1 L -1044.5 423.4 L -1054 432.8 L -1065.9 434.6 L -1069.3 427.6 L -1074.9 426.5 L -1082.6 433.3 L -1093.4 428.2 L -1087.1 417.7 L -1084.9 406.3 L -1080.5 395.7 L -1090.3 380.9 L -1092.3 363.9 L -1079.3 342.6 L -1070.9 345.3 L -1052.6 351.2 L -1026.3 372.2 L -1022.2 382.3 Z M 415.1 -743.4 L 426.8 -736.9 L 462.6 -732.3 L 450 -715.3 L 446.9 -697.6 L 440.1 -693.4 L 428.7 -695.7 L 429.5 -689.4 L 411.4 -675.4 L 411 -664.1 L 422.9 -668 L 431.4 -657.1 L 430.4 -650.1 L 437.7 -640.8 L 429.1 -633.2 L 435.5 -614 L 448.9 -610.8 L 446.1 -600.1 L 423.6 -586 L 374.6 -592.8 L 338.4 -584.7 L 335.6 -569.7 L 306.8 -566.5 L 278.8 -577.7 L 269.8 -572.4 L 224 -583.7 L 214.1 -593.3 L 227 -608.2 L 231.7 -657.7 L 206.1 -683.8 L 187.7 -696.4 L 149.8 -705.9 L 147.3 -724.1 L 179.5 -729.5 L 221.2 -723.1 L 213.3 -751.2 L 236.8 -740.5 L 294.6 -759.9 L 302.1 -780.3 L 323.8 -785.3 L 327.4 -776.6 L 339 -776.1 L 350.5 -766.2 L 367.9 -754.5 L 380.6 -756.4 L 402.3 -745.1 L 407.9 -742.9 L 415.1 -743.4 Z M 478.7 -573.6 L 494.7 -583.1 L 498.9 -561.8 L 490.7 -542.6 L 479.4 -547.6 L 473.7 -564.3 L 478.7 -573.6 Z" />
<path class="neighbor" d="M 1036.4 1038.5 L 1023.2 1036 L 1014.8 1039 L 1002.8 1034.8 L 992.7 1034.5 L 976.8 1023.3 L 957.6 1019.5 L 950.3 1003.7 L 950.2 994.9 L 939.6 992.3 L 911.5 965 L 903.7 950.6 L 898.7 946.2 L 889.1 926.3 L 916.9 929 L 924.9 931.9 L 933.3 931.3 L 947.1 915.2 L 968.7 894.8 L 977.6 892.8 L 980.6 884.2 L 994.8 874.3 L 1013.6 870.9 L 1015.2 880.2 L 1035.9 879.7 L 1047.4 884.9 L 1052.8 891.1 L 1064.6 892.9 L 1077.5 900.9 L 1077.6 932.3 L 1072.7 949.5 L 1071.7 968.1 L 1075.7 975.5 L 1072.9 990.1 L 1069.1 992.4 L 1062.6 1010.3 L 1036.4 1038.5 Z" />
<path class="neighbor" d="M 992.7 1034.5 L 957.5 1052.8 L 935.2 1071.3 L 926.9 1087.9 L 919.5 1097.2 L 905.9 1099.2 L 901.6 1111.1 L 899.1 1118.9 L 883.2 1124.7 L 862.9 1123.4 L 851.1 1116.5 L 840.6 1113.4 L 828.5 1119.2 L 822.4 1131.1 L 810.6 1138.6 L 798.2 1149.7 L 780.4 1152.2 L 774.9 1143.5 L 777.1 1128.3 L 762.4 1104.7 L 755.7 1101 L 755.7 1028.5 L 780.2 1027.6 L 780.9 939.1 L 799.4 938.3 L 837.7 929.6 L 847.2 939.8 L 863.1 930.1 L 870.6 930 L 884.6 924.4 L 889.1 926.3 L 898.7 946.2 L 903.7 950.6 L 911.5 965 L 939.6 992.3 L 950.2 994.9 L 950.3 1003.7 L 957.6 1019.5 L 976.8 1023.3 L 992.7 1034.5 Z" />
<path class="neighbor" d="M 755.7 1101 L 755.7 1192.8 L 733.5 1205.5 L 720.2 1207.3 L 704.5 1202.6 L 693.4 1200.8 L 689.2 1190.2 L 679.4 1183.4 L 667.5 1195.6 L 649 1176.9 L 639.3 1158.7 L 633.8 1134.5 L 627.7 1116.5 L 619.4 1078.3 L 618.8 1048.5 L 615.6 1035 L 606 1024.8 L 593.1 1004.2 L 580.1 974.4 L 574.6 958.8 L 554.4 934.6 L 552.9 915.5 L 564.9 910.8 L 579.8 906.5 L 595.9 907.3 L 610.7 918.5 L 614.4 916.8 L 715.1 915.7 L 732.4 927.6 L 792.5 931.1 L 838.2 921 L 858.5 915.3 L 874.6 916.8 L 884.4 922.4 L 884.6 924.4 L 870.6 930 L 863.1 930.1 L 847.2 939.8 L 837.7 929.6 L 799.4 938.3 L 780.9 939.1 L 780.2 1027.6 L 755.7 1028.5 L 755.7 1101 Z" />
<path class="neighbor" d="M -24.7 176.4 L -23.6 168.7 L -25.7 159.1 L -35 152.1 L -39.9 137.9 L -41 122.4 L -32.7 117.9 L -28.5 103.2 L -20.6 102.7 L -3.3 109.6 L 10.7 104.7 L 20.3 106.3 L 24.1 100.8 L 123.8 100.4 L 129.3 83 L 125 80 L 113 -27.3 L 101 -134.5 L 139 -134.9 L 222.8 -80.7 L 306.7 -26.5 L 312.6 -14.9 L 328 -7.8 L 339.5 -3.7 L 339.8 12.1 L 367.4 9.6 L 367.5 66.9 L 353.9 83.5 L 351.8 98.8 L 329.7 102.7 L 295.8 104.9 L 286.6 113.7 L 270.7 114.7 L 254.7 114.8 L 248.5 110 L 234.9 113.5 L 211.6 123.9 L 206.9 131.6 L 187.6 142.8 L 184.2 149.1 L 173.8 154.2 L 161.8 150.8 L 155 156.9 L 151.4 174 L 131.6 194.5 L 132.2 203 L 125.4 213.5 L 127.1 227.9 L 116.8 231.6 L 111 234.7 L 107.2 224.1 L 100 226.9 L 95.7 226.4 L 91.1 233.7 L 72 233.5 L 65.1 229.7 L 61.8 232 L 54.3 224.8 L 55.6 217.4 L 52.5 214.5 L 47.2 217 L 48.1 208.9 L 53.2 202.5 L 43.1 192.1 L 40.1 185.2 L 34.6 179.8 L 29.6 179.1 L 23.6 182.6 L 15.6 185.9 L 8.8 191.3 L -1.8 189.3 L -8.7 183 L -12.9 182.2 L -19.3 185.5 L -23.3 185.5 L -24.7 176.4 Z" />
<path class="neighbor" d="M 328.2 330.1 L 307.7 333 L 301.6 315.8 L 302.7 258.8 L 297.7 253.7 L 296.8 241.5 L 288.1 232.8 L 280.6 225.4 L 283.7 212.3 L 292.3 209.5 L 297.3 198.7 L 309.5 196.4 L 314.9 188.9 L 323.2 181.6 L 332.1 181.6 L 351.1 195.9 L 350.1 204.1 L 355.7 218.9 L 350.8 228.9 L 353.4 235.6 L 341.4 250.9 L 333.7 258.6 L 329 274.2 L 329.7 290 L 328.2 330.1 Z" />
<path class="neighbor" d="M 630.4 -82.5 L 636.5 -43.9 L 645.8 -37.4 L 646.2 -29.5 L 656.5 -21 L 651.1 -10.3 L 641.5 40.1 L 640.2 72.5 L 608.5 95.9 L 597.8 128.6 L 608.1 137.8 L 608.1 153.8 L 624 154.4 L 621.5 166.1 L 614.5 167.5 L 613.7 175.4 L 609.1 176 L 592.3 148.8 L 586.5 147.8 L 567 161.7 L 547.8 154.4 L 534.4 153 L 527.2 156.5 L 512.7 155.7 L 498 166.3 L 485.4 166.9 L 455.3 154.1 L 443.5 160.2 L 430.8 159.7 L 421.5 150.3 L 396.6 141.1 L 369.9 144 L 363.4 149.4 L 359.9 163.7 L 352.8 173.7 L 351.1 195.9 L 332.1 181.6 L 323.2 181.6 L 314.9 188.9 L 315.5 171.9 L 286.8 166.3 L 286 154.2 L 272 138 L 268.7 126.7 L 270.7 114.7 L 286.6 113.7 L 295.8 104.9 L 329.7 102.7 L 351.8 98.8 L 353.9 83.5 L 367.5 66.9 L 367.4 9.6 L 402.4 -1.4 L 474.4 -50.2 L 559.5 -97.6 L 598.8 -86.9 L 612.8 -73.2 L 630.4 -82.5 Z" />
<path class="neighbor" d="M 328.2 330.1 L 329.7 290 L 329 274.2 L 333.7 258.6 L 341.4 250.9 L 353.4 235.6 L 350.8 228.9 L 355.7 218.9 L 350.1 204.1 L 351.1 195.9 L 352.8 173.7 L 359.9 163.7 L 363.4 149.4 L 369.9 144 L 396.6 141.1 L 421.5 150.3 L 430.8 159.7 L 443.5 160.2 L 455.3 154.1 L 485.4 166.9 L 498 166.3 L 512.7 155.7 L 527.2 156.5 L 534.4 153 L 547.8 154.4 L 567 161.7 L 586.5 147.8 L 592.3 148.8 L 609.1 176 L 613.7 175.4 L 623.6 185.3 L 620.9 189.8 L 619.5 198.1 L 598.6 217.3 L 592 233.1 L 588.5 246.1 L 583.3 251.6 L 578.3 269 L 565 279.2 L 561.1 291.8 L 555.5 301.8 L 553.2 312.1 L 536.1 320.5 L 522.2 310.3 L 512.8 310.7 L 498 325.2 L 490.8 325.5 L 479 349.4 L 472.6 367 L 446.8 376 L 437.3 374.7 L 427.8 380.2 L 407.9 379.7 L 394.6 364.1 L 386.4 346.2 L 368.8 329.8 L 350.2 330.1 L 328.2 330.1 Z" />
<path class="neighbor" d="M 621.5 166.1 L 631.4 182 L 633.1 198.5 L 632.2 215 L 645.7 237.6 L 631.8 237.3 L 624.8 239.1 L 613.5 236.6 L 608.1 248.3 L 622.7 262.8 L 633.6 267 L 637.1 277.3 L 644.9 294.5 L 641 301.2 L 628.5 326.4 L 622.6 330.9 L 620.6 350.1 L 623.1 360.6 L 621.1 368 L 632.8 381 L 635 389.9 L 644.1 402.7 L 655.5 410.7 L 656.6 422.1 L 659.2 429.3 L 657.4 442.7 L 637.7 436.8 L 617.6 430.2 L 586.3 429.3 L 583.2 427.9 L 568.5 431.1 L 553.4 427.8 L 541.5 429.4 L 501.1 428.9 L 504.7 409.2 L 495 392.8 L 483.7 388.6 L 478.6 377.5 L 472.3 373.9 L 472.6 367 L 479 349.4 L 490.8 325.5 L 498 325.2 L 512.8 310.7 L 522.2 310.3 L 536.1 320.5 L 553.2 312.1 L 555.5 301.8 L 561.1 291.8 L 565 279.2 L 578.3 269 L 583.3 251.6 L 588.5 246.1 L 592 233.1 L 598.6 217.3 L 619.5 198.1 L 620.9 189.8 L 623.6 185.3 L 613.7 175.4 L 614.5 167.5 L 621.5 166.1 Z" />
<path class="neighbor" d="M 941.5 355.6 L 933.3 358.2 L 917.4 357.6 L 898.7 355 L 889.5 357.1 L 885.7 363.2 L 877.7 363.9 L 867.9 358.7 L 840.2 371.1 L 828.9 368.6 L 825.5 370.5 L 818.1 385.5 L 799.5 380.6 L 781.3 378.2 L 765.5 369 L 745.1 360.6 L 731.8 368.6 L 722.1 381.2 L 719.9 398.5 L 703.9 397.1 L 687.1 393 L 672.3 406.1 L 659.2 429.3 L 656.6 422.1 L 655.5 410.7 L 644.1 402.7 L 635 389.9 L 632.8 381 L 621.1 368 L 623.1 360.6 L 620.6 350.1 L 622.6 330.9 L 628.5 326.4 L 641 301.2 L 661.6 299.3 L 666.1 292.9 L 670.2 293.4 L 676.5 299 L 707.7 289.5 L 718.3 279.8 L 731.2 271.1 L 728.8 262.4 L 735.8 260.1 L 759.8 261.7 L 783.2 250.1 L 801.1 223 L 813.7 213 L 829.5 208.7 L 832.3 219.4 L 846.6 234.9 L 846.7 245 L 842.7 255.4 L 844.2 263.1 L 852.9 270.3 L 871.8 281.1 L 885.4 291.2 L 885.6 299.2 L 902.3 312.2 L 912.7 322.9 L 919 337.8 L 937.5 347.7 L 941.5 355.6 Z" />
<path class="neighbor" d="M 719.9 398.5 L 718.4 413.5 L 710.9 426.8 L 706.1 442.3 L 703 464.3 L 704.3 478.4 L 700.2 487 L 699.6 496.2 L 696.8 504.1 L 680.4 516.1 L 669 528.9 L 658.2 553 L 659.1 573.4 L 652.8 581.4 L 638.3 593.5 L 623.7 609.1 L 614.4 604.7 L 612.8 597.7 L 599.3 597.4 L 590.8 606.9 L 584.3 604.4 L 574.9 595.9 L 567.4 600 L 557.4 610.8 L 537 584.5 L 555.9 570.7 L 546.6 554.3 L 555.1 548.1 L 571.8 545 L 573.8 534 L 587.1 545.9 L 609 547 L 616.7 535.2 L 619.8 518.7 L 617.1 499.3 L 605.3 484.6 L 616.1 455.9 L 609.9 450.9 L 591.4 452.9 L 584.4 440.1 L 586.3 429.3 L 617.6 430.2 L 637.7 436.8 L 657.4 442.7 L 659.2 429.3 L 672.3 406.1 L 687.1 393 L 703.9 397.1 L 719.9 398.5 Z" />
<path class="neighbor" d="M 541.5 429.4 L 553.4 427.8 L 568.5 431.1 L 583.2 427.9 L 586.3 429.3 L 584.4 440.1 L 591.4 452.9 L 609.9 450.9 L 616.1 455.9 L 605.3 484.6 L 617.1 499.3 L 619.8 518.7 L 616.7 535.2 L 609 547 L 587.1 545.9 L 573.8 534 L 571.8 545 L 555.1 548.1 L 546.6 554.3 L 555.9 570.7 L 537 584.5 L 511.5 559.4 L 495.1 538.9 L 480 513.2 L 480.8 505 L 486.2 497 L 492.2 478.9 L 497.2 460.5 L 505.6 459.1 L 541.8 459.3 L 541.5 429.4 Z" />
<path class="neighbor" d="M 501.1 428.9 L 541.5 429.4 L 541.8 459.3 L 505.6 459.1 L 497.2 460.5 L 492.6 456.8 L 501.1 428.9 Z" />
<path class="neighbor" d="M 1025.2 692.8 L 1035.5 699.1 L 1045.4 703.3 L 1061.2 707.5 L 1075.3 715 L 1087.1 726 L 1093.4 747.1 L 1089.1 753.9 L 1084.2 774 L 1088.9 794.6 L 1081.1 803.2 L 1073.6 826.3 L 1086.6 832.8 L 1011.2 853.2 L 1013.6 870.9 L 994.8 874.3 L 980.6 884.2 L 977.6 892.8 L 968.7 894.8 L 947.1 915.2 L 933.3 931.3 L 924.9 931.9 L 916.9 929 L 889.1 926.3 L 884.6 924.4 L 884.4 922.4 L 874.6 916.8 L 858.5 915.3 L 838.2 921 L 822 905.5 L 805.2 885.1 L 806.4 806.1 L 858.1 806.4 L 856 797.8 L 859.7 788.5 L 855.3 776.9 L 858.1 764.8 L 855.5 757.1 L 864.1 757.7 L 865.5 765.4 L 877.1 764.8 L 892.9 767.1 L 901.2 778.4 L 921.1 781.9 L 936.3 774 L 941.9 787.1 L 960.9 790.5 L 970.1 801.1 L 980.3 814.8 L 999.3 815 L 997.2 788.2 L 990.4 792.7 L 973 783.1 L 966.3 778.6 L 969.4 753.7 L 973.8 724.3 L 968.3 713.3 L 975.3 697.5 L 982 694.5 L 1015.4 690.3 L 1025.2 692.8 Z" />
<path class="neighbor" d="M 1075.3 715 L 1099.7 719.6 L 1104.7 726.5 L 1113.1 738 L 1120.1 771.8 L 1113.1 790.7 L 1120.1 823 L 1128.7 822.7 L 1137.7 830.7 L 1148.1 848.6 L 1150.2 880.6 L 1139.4 885.8 L 1131.8 903.1 L 1115.6 887.7 L 1113.8 870.2 L 1119 858.6 L 1117.6 848.7 L 1107.8 842.4 L 1100.9 844.7 L 1086.6 832.8 L 1073.6 826.3 L 1081.1 803.2 L 1088.9 794.6 L 1084.2 774 L 1089.1 753.9 L 1093.4 747.1 L 1087.1 726 L 1075.3 715 Z" />
<path class="neighbor" d="M 1120.1 771.8 L 1138.8 769.8 L 1168.6 776.8 L 1175.1 773.7 L 1192.4 773 L 1201.3 765.6 L 1216.2 766 L 1243.3 756.4 L 1263.1 741.9 L 1263.1 741.9 L 1263.1 741.9 L 1267.1 753.1 L 1266.1 777.8 L 1269.2 799.6 L 1270.1 838.5 L 1274.5 850.6 L 1267.1 868.4 L 1257.5 885.7 L 1241.6 901.1 L 1218.9 910.5 L 1190.9 922.6 L 1162.8 949.2 L 1153.3 953.8 L 1135.9 971.4 L 1125.7 977.2 L 1123.6 994.9 L 1135.4 1013.7 L 1140.3 1028.3 L 1140.6 1035.7 L 1145 1034.5 L 1144.3 1058.8 L 1140.2 1070.4 L 1146.1 1074.6 L 1142.4 1085 L 1132 1093.8 L 1111.5 1102.2 L 1081.6 1115.7 L 1070.7 1124.8 L 1072.9 1135.3 L 1079.2 1137 L 1077.1 1150.1 L 1058.2 1149.9 L 1056.1 1138.9 L 1052.4 1127.7 L 1050.3 1118.8 L 1054.7 1091.1 L 1048.3 1073.5 L 1036.4 1038.5 L 1062.6 1010.3 L 1069.1 992.4 L 1072.9 990.1 L 1075.7 975.5 L 1071.7 968.1 L 1072.7 949.5 L 1077.6 932.3 L 1077.5 900.9 L 1064.6 892.9 L 1052.8 891.1 L 1047.4 884.9 L 1035.9 879.7 L 1015.2 880.2 L 1013.6 870.9 L 1011.2 853.2 L 1086.6 832.8 L 1100.9 844.7 L 1107.8 842.4 L 1117.6 848.7 L 1119 858.6 L 1113.8 870.2 L 1115.6 887.7 L 1131.8 903.1 L 1139.4 885.8 L 1150.2 880.6 L 1148.1 848.6 L 1137.7 830.7 L 1128.7 822.7 L 1120.1 823 L 1113.1 790.7 L 1120.1 771.8 Z" />
<path class="neighbor" d="M 584.3 604.4 L 575.2 609.6 L 571.2 616 L 570.4 626.8 L 564.1 629.5 L 557.4 610.8 L 567.4 600 L 574.9 595.9 L 584.3 604.4 Z M 567.5 637.2 L 577.8 633.8 L 585 634.3 L 593.7 631.3 L 667 631.6 L 673.2 650.2 L 680.3 665.1 L 686 673.1 L 695.5 686.1 L 711.9 684.1 L 720.1 680.6 L 733.9 684.1 L 737.6 677.9 L 743.8 663.4 L 759.2 662.4 L 760.6 658.1 L 773.3 658 L 771.1 667 L 801.2 666.8 L 801.7 682.4 L 806.7 692 L 803.1 707 L 804.9 722.2 L 813.2 731.5 L 811.9 761 L 818 758.7 L 828.8 759.4 L 844.2 755.6 L 855.5 757.1 L 858.1 764.8 L 855.3 776.9 L 859.7 788.5 L 856 797.8 L 858.1 806.4 L 806.4 806.1 L 805.2 885.1 L 822 905.5 L 838.2 921 L 792.5 931.1 L 732.4 927.6 L 715.1 915.7 L 614.4 916.8 L 610.7 918.5 L 595.9 907.3 L 579.8 906.5 L 564.9 910.8 L 552.9 915.5 L 550.6 899.9 L 554 878 L 562.6 855.3 L 563.9 844.6 L 572 822.2 L 577.9 812 L 592.1 795.8 L 600.1 784.7 L 602.7 766.3 L 601.4 752.2 L 594 743.4 L 587.4 728.3 L 581.3 713.4 L 582.6 708.2 L 590.2 698.4 L 582.7 674.3 L 577.6 657.7 L 565.2 642 L 567.5 637.2 Z" />
<path class="neighbor" d="M 1018.4 545.6 L 1019.9 555.4 L 1025.2 561 L 1025.5 569.1 L 1019.3 574.3 L 1009.7 587.2 L 1000.6 596.2 L 990.4 597.4 L 988.8 567.4 L 982.5 556.1 L 997.6 558.1 L 1005.2 544 L 1018.4 545.6 Z" />
<path class="neighbor" d="M 1166.5 127.3 L 1163.9 117.3 L 1174.6 80.8 L 1177 64.3 L 1184.9 56.7 L 1203.2 52.6 L 1215.7 38.4 L 1230.2 67.2 L 1237 90 L 1250.6 102.1 L 1284.5 125.5 L 1298.3 139.7 L 1311.8 154 L 1319.6 162.6 L 1331.8 170.1 L 1324.3 176.1 L 1313.7 174 L 1305.2 165.9 L 1295 151.4 L 1283.9 143.4 L 1277.5 134.8 L 1255.9 124.8 L 1238.9 124.5 L 1232.9 119.3 L 1218.3 125.2 L 1203.2 113.9 L 1195.5 132.4 L 1166.5 127.3 Z" />
<path class="neighbor" d="M 1448.8 286.7 L 1378.6 361.3 L 1346.2 362.4 L 1324.1 379.9 L 1308.1 380.4 L 1301.3 388.2 L 1284.4 388.2 L 1274.3 379.8 L 1251.6 390.2 L 1244.3 400.6 L 1227.7 398.6 L 1222.2 395.7 L 1216.4 396.4 L 1208.6 396.2 L 1177.1 375.1 L 1159.8 375.1 L 1151.3 366.9 L 1151.3 353 L 1138.4 348.8 L 1123.7 321.8 L 1112.4 316 L 1108 306.1 L 1095.4 293.9 L 1080.2 292.2 L 1088.6 278 L 1101.8 277.4 L 1105.5 269.8 L 1105.2 247.5 L 1112.6 221.5 L 1124.3 214.5 L 1126.8 204.4 L 1137.5 185.4 L 1152.5 173.1 L 1162.6 148.6 L 1166.5 127.3 L 1195.5 132.4 L 1203.2 113.9 L 1218.3 125.2 L 1232.9 119.3 L 1238.9 124.5 L 1255.9 124.8 L 1277.5 134.8 L 1283.9 143.4 L 1295 151.4 L 1305.2 165.9 L 1313.7 174 L 1304.9 184.9 L 1296.5 196.6 L 1298.5 203.5 L 1298.9 211 L 1312.7 211.4 L 1318.7 209.7 L 1324.2 214.1 L 1318.8 222.9 L 1328 236.6 L 1337.2 248.5 L 1346.6 257.4 L 1427.9 286.9 L 1448.8 286.7 Z" />
<path class="neighbor" d="M 1103.8 509.2 L 1053.1 511.1 L 1025.9 510.8 L 1017.2 513.8 L 1002.3 521.5 L 996.3 518.9 L 996.5 500.2 L 1002.3 490.7 L 1003.7 470.8 L 1008.9 459.2 L 1018.4 446.2 L 1028 439.6 L 1035.9 430.8 L 1026 427.5 L 1027.5 398.4 L 1027.5 398.4 L 1037.7 391.6 L 1053.5 397.2 L 1073.5 391.4 L 1091 391.4 L 1106.3 380 L 1118.1 397.3 L 1121 409.7 L 1131.9 438.2 L 1122.9 456.4 L 1110.6 472.8 L 1103.5 482.9 L 1103.8 509.2 Z" />
<path class="neighbor" d="M 1017.2 513.8 L 1027 527.8 L 1025.6 542.4 L 1018.4 545.6 L 1018.4 545.6 L 1005.2 544 L 997.6 558.1 L 982.5 556.1 L 984.8 542.6 L 988.3 540.6 L 989.2 525.9 L 996.3 518.9 L 1002.3 521.5 L 1017.2 513.8 Z" />
<path class="neighbor" d="M 1027.5 398.4 L 1005.6 381.9 L 999.7 371.3 L 985.9 376.5 L 974.4 374.9 L 967.7 379.1 L 956.6 376.1 L 941.5 355.6 L 937.5 347.7 L 919 337.8 L 912.7 322.9 L 902.3 312.2 L 885.6 299.2 L 885.4 291.2 L 871.8 281.1 L 854.9 271.4 L 862.5 268.7 L 871 264 L 877.4 241.8 L 884.3 230.3 L 902.2 226.9 L 906.4 233.7 L 919.2 248.2 L 926.1 250.4 L 935 246.1 L 952.9 247 L 956.4 252.1 L 981.1 252.1 L 981.9 247 L 994.7 242.3 L 997.3 235 L 1006.7 229.9 L 1027.6 244.4 L 1040.4 241.8 L 1052.8 223.9 L 1066.4 210.3 L 1064.3 195.3 L 1058.3 188.1 L 1073.2 186.8 L 1074.9 181.3 L 1086.5 183 L 1083.5 201.3 L 1086.5 219.2 L 1099.2 229 L 1102.2 237.6 L 1101.8 249.9 L 1105.2 250.4 L 1105.5 269.8 L 1101.8 277.4 L 1088.6 278 L 1080.2 292.2 L 1095.4 293.9 L 1108 306.1 L 1112.4 316 L 1123.7 321.8 L 1138.4 348.8 L 1121.6 365.2 L 1106.3 380 L 1091 391.4 L 1073.5 391.4 L 1053.5 397.2 L 1037.7 391.6 L 1027.5 398.4 Z" />

<path class="country" d="M 990.4 597.4 L 994.8 620.3 L 992.4 633.2 L 997.3 647.6 L 1011.7 661.5 L 1025.2 692.8 L 1025.2 692.8 L 1015.4 690.3 L 982 694.5 L 975.3 697.5 L 968.3 713.3 L 973.8 724.3 L 969.4 753.7 L 966.3 778.6 L 973 783.1 L 990.4 792.7 L 997.2 788.2 L 999.3 815 L 980.3 814.8 L 970.1 801.1 L 960.9 790.5 L 941.9 787.1 L 936.3 774 L 921.1 781.9 L 901.2 778.4 L 892.9 767.1 L 877.1 764.8 L 865.5 765.4 L 864.1 757.7 L 855.5 757.1 L 844.2 755.6 L 828.8 759.4 L 818 758.7 L 811.9 761 L 813.2 731.5 L 804.9 722.2 L 803.1 707 L 806.7 692 L 801.7 682.4 L 801.2 666.8 L 771.1 667 L 773.3 658 L 760.6 658.1 L 759.2 662.4 L 743.8 663.4 L 737.6 677.9 L 733.9 684.1 L 720.1 680.6 L 711.9 684.1 L 695.5 686.1 L 686 673.1 L 680.3 665.1 L 673.2 650.2 L 667 631.6 L 593.7 631.3 L 585 634.3 L 577.8 633.8 L 567.5 637.2 L 564.1 629.5 L 570.4 626.8 L 571.2 616 L 575.2 609.6 L 584.3 604.4 L 590.8 606.9 L 599.3 597.4 L 612.8 597.7 L 614.4 604.7 L 623.7 609.1 L 638.3 593.5 L 652.8 581.4 L 659.1 573.4 L 658.2 553 L 669 528.9 L 680.4 516.1 L 696.8 504.1 L 699.6 496.2 L 700.2 487 L 704.3 478.4 L 703 464.3 L 706.1 442.3 L 710.9 426.8 L 718.4 413.5 L 719.9 398.5 L 722.1 381.2 L 731.8 368.6 L 745.1 360.6 L 765.5 369 L 781.3 378.2 L 799.5 380.6 L 818.1 385.5 L 825.5 370.5 L 828.9 368.6 L 840.2 371.1 L 867.9 358.7 L 877.7 363.9 L 885.7 363.2 L 889.5 357.1 L 898.7 355 L 917.4 357.6 L 933.3 358.2 L 941.5 355.6 L 956.6 376.1 L 967.7 379.1 L 974.4 374.9 L 985.9 376.5 L 999.7 371.3 L 1005.6 381.9 L 1027.5 398.4 L 1027.5 398.4 L 1026 427.5 L 1035.9 430.8 L 1028 439.6 L 1018.4 446.2 L 1008.9 459.2 L 1003.7 470.8 L 1002.3 490.7 L 996.5 500.2 L 996.3 518.9 L 989.2 525.9 L 988.3 540.6 L 984.8 542.6 L 982.5 556.1 L 988.8 567.4 L 990.4 597.4 Z" />


<g class="city"><circle cx="345.58204837977416" cy="325.4539570573935" r="5" /><text x="357.58204837977416" y="329.4539570573935">Lagos</text></g>
<g class="city"><circle cx="641.8435693445501" cy="593.1301436290582" r="5" /><text x="653.8435693445501" y="597.1301436290582">Kinshasa</text></g>
<g class="city"><circle cx="590.1483056924164" cy="705.154301377144" r="5" /><text x="602.1483056924164" y="709.154301377144">Luanda</text></g>
<g class="city"><circle cx="473.0099682309732" cy="187.38636084353337" r="5" /><text x="485.0099682309732" y="191.38636084353337">Kano</text></g>
<g class="city"><circle cx="1222.8910575982745" cy="261.09908166095585" r="5" /><text x="1234.8910575982745" y="265.09908166095585">Addis Ababa</text></g>
<g class="city"><circle cx="1176.0955442069667" cy="517.436869896072" r="5" /><text x="1188.0955442069667" y="521.436869896072">Nairobi</text></g>
<g class="city"><circle cx="1237.0125166670582" cy="654.5093693376901" r="5" /><text x="1249.0125166670582" y="658.5093693376901">Dar es Salaam</text></g>
<g class="city"><circle cx="358.9609305518757" cy="302.1781990421488" r="5" /><text x="370.9609305518757" y="306.1781990421488">Ibadan</text></g>
<text class="map-title" x="80" y="105">Congo (DRC) Political Study Map</text>
<text class="map-subtitle" x="80" y="145">Capital: Kinshasa | Continent: Africa</text>
  <text class="footer" x="80" y="1036">Made with Natural Earth. Free vector and raster map data @ naturalearthdata.com.</text>
</svg>
