<?xml version="1.0" encoding="UTF-8"?>
<svg xmlns="http://www.w3.org/2000/svg" width="1600" height="1100" viewBox="0 0 1600 1100" role="img" aria-labelledby="title desc">
  <title id="title">Central African Republic Political Study Map</title>
  <desc id="desc">Made with Natural Earth. Free vector and raster map data @ naturalearthdata.com.</desc>
  <defs>
    <linearGradient id="terrain" x1="0" x2="1" y1="0" y2="1">
      <stop offset="0%" stop-color="#6c8c53" />
      <stop offset="42%" stop-color="#d5c487" />
      <stop offset="72%" stop-color="#b88b5f" />
      <stop offset="100%" stop-color="#f1f5ee" />
    </linearGradient>
    <filter id="softShadow" x="-10%" y="-10%" width="120%" height="120%">
      <feDropShadow dx="0" dy="10" stdDeviation="12" flood-color="#0f172a" flood-opacity="0.16" />
    </filter>
    <style>
      .neighbor { fill: #ffffff; stroke: #94a3b8; stroke-width: 1.2; opacity: 0.72; }
      .country { fill: #f7f1df; stroke: #1f2937; stroke-width: 4; filter: url(#softShadow); }
      .admin1 { fill: none; stroke: #64748b; stroke-width: 1.1; stroke-dasharray: 6 7; opacity: 0.75; }
      .river { fill: none; stroke: #1d9bd1; stroke-width: 3; stroke-linecap: round; opacity: 0.88; }
      .lake { fill: #8ed1ea; stroke: #0ea5e9; stroke-width: 1.5; opacity: 0.8; }
      .city circle { fill: #ef4444; stroke: #ffffff; stroke-width: 2; }
      .city text, .terrain-label { fill: #172033; font: 700 24px system-ui, sans-serif; paint-order: stroke; stroke: #ffffff; stroke-width: 5; stroke-linejoin: round; }
      .map-title { fill: #0f172a; font: 800 46px system-ui, sans-serif; }
      .map-subtitle { fill: #475569; font: 600 24px system-ui, sans-serif; }
      .footer { fill: #64748b; font: 500 18px system-ui, sans-serif; }
    </style>
  </defs>
  <rect width="100%" height="100%" fill="#eaf3f8" />
  <rect x="40" y="40" width="1520" height="1020" rx="32" fill="#ffffff" opacity="0.54" />
  <path class="neighbor" d="M 1473.1 981.8 L 1481.9 987.5 L 1669.8 1093.1 L 1673.4 1123.1 L 1747.8 1174.9 L 1723.8 1238.8 L 1726.9 1268.2 L 1760.1 1287.1 L 1761.7 1300.5 L 1747.4 1331.8 L 1750.4 1347.6 L 1747 1372.4 L 1765.1 1404.9 L 1786.5 1456 L 1805.5 1467.3 L 1805.5 1467.3 L 1764.3 1497.3 L 1707.6 1517.5 L 1676.5 1516.6 L 1658.1 1532.2 L 1622 1533.5 L 1608.4 1540.1 L 1546.2 1525.5 L 1507.2 1529.6 L 1492.6 1459.2 L 1475.1 1435 L 1464.6 1420.7 L 1413.8 1411 L 1384.4 1395.4 L 1351.5 1386.7 L 1330.8 1378 L 1309.2 1364.8 L 1309.2 1364.8 L 1281.2 1299.5 L 1251.1 1270.5 L 1240.7 1240.4 L 1245.9 1213.5 L 1236.6 1165.8 L 1258 1163.3 L 1276.8 1144.5 L 1297 1117.5 L 1309.8 1106.7 L 1309.3 1089.8 L 1298.2 1078.1 L 1295.1 1057.7 L 1295.1 1057.7 L 1310.1 1051.1 L 1313.1 1020.6 L 1292.5 991.3 L 1310.7 985.1 L 1367.5 985.8 L 1473.1 981.8 Z" />
<path class="neighbor" d="M 1236.6 1165.8 L 1245.9 1213.5 L 1240.7 1240.4 L 1251.1 1270.5 L 1281.2 1299.5 L 1309.2 1364.8 L 1309.2 1364.8 L 1288.7 1359.5 L 1219.1 1368.3 L 1205.2 1374.5 L 1190.5 1407.6 L 1202.1 1430.4 L 1192.9 1491.8 L 1186.4 1543.8 L 1200.4 1553.1 L 1236.7 1573.2 L 1250.9 1563.8 L 1255.2 1619.7 L 1215.6 1619.3 L 1194.3 1590.7 L 1175.2 1568.6 L 1135.5 1561.4 L 1123.8 1534.2 L 1092.1 1550.6 L 1050.6 1543.4 L 1033.3 1519.8 L 1000.4 1515.1 L 976.1 1516.3 L 973.1 1500.2 L 955.3 1498.9 L 931.7 1495.8 L 899.5 1503.6 L 877 1502.3 L 864.2 1507.1 L 867 1445.4 L 849.7 1426.2 L 845.9 1394.3 L 853.5 1363.1 L 843 1343.1 L 842.1 1310.4 L 779.2 1310.9 L 783.7 1292.2 L 757.2 1292.4 L 754.4 1301.4 L 722.3 1303.4 L 709.3 1333.6 L 701.5 1346.6 L 672.9 1339.3 L 655.8 1346.6 L 621.5 1350.7 L 601.6 1323.6 L 589.7 1306.9 L 574.9 1275.8 L 562.1 1237.2 L 409.1 1236.5 L 390.9 1242.7 L 375.9 1241.8 L 354.5 1248.7 L 347.3 1232.6 L 360.5 1227.2 L 362.1 1204.6 L 370.6 1191.2 L 389.4 1180.4 L 403 1185.6 L 420.8 1165.8 L 449 1166.3 L 452.3 1181 L 471.7 1190.2 L 502.2 1157.7 L 532.4 1132.4 L 545.5 1115.8 L 543.7 1073.1 L 566.3 1022.8 L 590 996.1 L 624.1 971.1 L 630.1 954.6 L 631.4 935.5 L 639.8 917.6 L 637.1 888.2 L 643.6 842.3 L 653.7 809.9 L 669.2 782.2 L 672.3 750.9 L 677 714.7 L 697.1 688.4 L 724.9 671.7 L 767.5 689.4 L 800.6 708.5 L 838.5 713.6 L 877.1 723.7 L 892.6 692.4 L 899.8 688.4 L 923.4 693.6 L 981.1 667.7 L 1001.5 678.7 L 1018.3 677.1 L 1026.1 664.5 L 1045.4 660.1 L 1084.3 665.6 L 1117.6 666.7 L 1134.7 661.2 L 1166.1 704 L 1189.4 710.3 L 1203.2 701.6 L 1227.2 705 L 1256.1 694.1 L 1268.4 716.2 L 1314 750.6 L 1314 750.6 L 1310.9 811.3 L 1331.7 818.3 L 1315 836.7 L 1295.1 850.4 L 1275.3 877.5 L 1264.4 901.6 L 1261.4 943.2 L 1249.4 963 L 1249 1002.1 L 1234.1 1016.5 L 1232.2 1047.4 L 1225.1 1051.3 L 1220.3 1079.7 L 1233.3 1103.3 L 1236.6 1165.8 Z" />
<path class="neighbor" d="M 989.2 506 L 949.7 483.3 L 931.8 468.4 L 928.4 452.3 L 936.9 430.7 L 936.7 409.6 L 906.8 377.2 L 900.9 355 L 901.6 342.4 L 882.5 327.2 L 881.9 297.1 L 871.1 277.1 L 852.9 280.1 L 858.1 261 L 871.5 239.4 L 865.6 218 L 882.7 202.1 L 871.9 189.9 L 885.6 157.9 L 909.3 119.8 L 953.9 123.4 L 951.4 -82.4 L 952 -104.1 L 1011.6 -104.3 L 1011.6 -207.8 L 1220 -207.8 L 1421.1 -207.8 L 1626.7 -207.8 L 1643.4 -156.9 L 1632 -147.5 L 1639.6 -94.2 L 1658.6 -32.3 L 1678.3 -19.5 L 1706.7 -0.4 L 1680.5 29.2 L 1642.3 37.7 L 1626 53.6 L 1620.9 88.1 L 1598.6 164.3 L 1604.1 185 L 1595.8 229.5 L 1574.7 280.6 L 1543.5 306.3 L 1521.2 345.8 L 1516 367 L 1491.5 381.6 L 1476.1 435.8 L 1476.8 482.4 L 1476.2 442 L 1469.1 441 L 1470 415.2 L 1463.7 397.4 L 1437 376.9 L 1430.8 339.5 L 1437 301.3 L 1413 297.7 L 1409.4 309.3 L 1378.3 311.9 L 1390.8 327.1 L 1395.2 358.2 L 1366.7 386.7 L 1340.9 424 L 1314.2 429.4 L 1270.6 399.1 L 1251.1 409.8 L 1245.7 424.9 L 1219 434.7 L 1217.2 445.4 L 1165.6 445.4 L 1158.5 434.7 L 1121.1 432.9 L 1102.5 441.8 L 1088.2 437.4 L 1061.5 407.1 L 1052.6 392.9 L 1015.2 400 L 1001 424 L 987.7 470.3 L 969.9 480.1 L 954 485.8 L 989.2 506 Z" />
<path class="neighbor" d="M 951.4 -82.4 L 953.9 123.4 L 909.3 119.8 L 885.6 157.9 L 871.9 189.9 L 882.7 202.1 L 865.6 218 L 871.5 239.4 L 858.1 261 L 852.9 280.1 L 871.1 277.1 L 881.9 297.1 L 882.5 327.2 L 901.6 342.4 L 900.9 355 L 868.1 363.8 L 841.8 384.8 L 804.4 441.4 L 755.6 465.4 L 705.5 462.2 L 690.9 466.9 L 696 485.2 L 669 503.3 L 647 523.5 L 581.7 543.4 L 568.8 531.6 L 560.2 530.6 L 550.7 543.9 L 507.8 547.8 L 515.9 533.8 L 499.6 498.1 L 492.3 476.6 L 469.7 467.8 L 439.1 437.6 L 450.4 413.1 L 474 418.3 L 488.6 414.6 L 517.6 415.1 L 489.4 368 L 491.3 333.6 L 487.8 299.2 L 467.2 266 L 472.4 241.6 L 439.1 240.4 L 439.2 207.1 L 417.7 187.9 L 440 119.6 L 506.2 70.7 L 508.9 3.3 L 528.9 -101.9 L 540.1 -124.2 L 518.6 -142 L 517.7 -158.5 L 498.3 -171.9 L 485.6 -252.5 L 537.9 -280.8 L 744.7 -181.6 L 951.4 -82.4 Z" />
<path class="neighbor" d="M -2961.7 717.1 L -2992.4 764.5 L -3008.3 802.7 L -3028.2 822.4 L -3053 826.1 L -3060 811.5 L -3071.6 809.3 L -3087.7 823.4 L -3110.3 812.7 L -3097.1 790.9 L -3092.5 767.2 L -3083.5 744.9 L -3103.8 714.2 L -3107.9 678.7 L -3080.9 634.2 L -3063.3 639.9 L -3025.2 652.1 L -2970.3 695.9 L -2961.7 717.1 Z M 36.5 -1631.3 L 60.9 -1617.7 L 135.6 -1608.2 L 109.4 -1572.7 L 102.9 -1535.8 L 88.6 -1526.9 L 65 -1531.7 L 66.7 -1518.5 L 28.8 -1489.4 L 28 -1465.9 L 52.7 -1474 L 70.6 -1451.3 L 68.4 -1436.6 L 83.7 -1417.2 L 65.7 -1401.4 L 79 -1361.3 L 107.1 -1354.7 L 101.2 -1332.2 L 54.3 -1302.9 L -48 -1317 L -123.5 -1300.2 L -129.4 -1268.9 L -189.5 -1262.2 L -247.8 -1285.7 L -266.6 -1274.5 L -362.1 -1298 L -382.7 -1318.2 L -355.9 -1349.3 L -346 -1452.5 L -399.5 -1506.9 L -437.8 -1533.1 L -517 -1553.1 L -522.2 -1590.9 L -455 -1602.2 L -368 -1588.8 L -384.4 -1647.5 L -335.5 -1625.3 L -214.8 -1665.7 L -199.2 -1708.1 L -153.9 -1718.6 L -146.4 -1700.4 L -122.3 -1699.5 L -98.2 -1678.7 L -62 -1654.3 L -35.4 -1658.3 L 9.9 -1634.7 L 21.5 -1630.2 L 36.5 -1631.3 Z M 169.2 -1277 L 202.5 -1296.8 L 211.3 -1252.3 L 194.2 -1212.3 L 170.7 -1222.8 L 158.7 -1257.7 L 169.2 -1277 Z" />
<path class="neighbor" d="M 485.6 -252.5 L 498.3 -171.9 L 517.7 -158.5 L 518.6 -142 L 540.1 -124.2 L 528.9 -101.9 L 508.9 3.3 L 506.2 70.7 L 440 119.6 L 417.7 187.9 L 439.2 207.1 L 439.1 240.4 L 472.4 241.6 L 467.2 266 L 452.6 269 L 450.9 285.5 L 441.2 286.6 L 406.2 229.9 L 394 227.8 L 353.5 256.8 L 313.3 241.7 L 285.4 238.6 L 270.5 245.9 L 240.1 244.3 L 209.5 266.4 L 183.1 267.7 L 120.4 240.9 L 95.8 253.6 L 69.4 252.8 L 49.9 233.2 L -2 213.8 L -57.7 220 L -71.2 231.2 L -78.5 261 L -93.4 281.9 L -97 328.2 L -136.5 298.3 L -155.1 298.5 L -172.5 313.7 L -171.3 278.2 L -231.1 266.4 L -232.7 241.3 L -261.9 207.5 L -268.8 183.9 L -264.7 158.7 L -231.5 156.7 L -212.4 138.3 L -141.6 133.8 L -95.6 125.6 L -91.2 93.7 L -62.8 59 L -63 -60.3 L 10.1 -83.4 L 160.2 -185.3 L 337.8 -284.1 L 419.8 -261.7 L 448.9 -233.2 L 485.6 -252.5 Z" />
<path class="neighbor" d="M -144.7 608.1 L -141.7 524.6 L -143 491.6 L -133.2 458.9 L -117.3 443 L -92.1 410.9 L -97.6 397 L -87.4 376.1 L -99 345.4 L -97 328.2 L -93.4 281.9 L -78.5 261 L -71.2 231.2 L -57.7 220 L -2 213.8 L 49.9 233.2 L 69.4 252.8 L 95.8 253.6 L 120.4 240.9 L 183.1 267.7 L 209.5 266.4 L 240.1 244.3 L 270.5 245.9 L 285.4 238.6 L 313.3 241.7 L 353.5 256.8 L 394 227.8 L 406.2 229.9 L 441.2 286.6 L 450.9 285.5 L 471.4 306.1 L 465.8 315.5 L 463 332.7 L 419.3 372.8 L 405.7 405.9 L 398.3 432.8 L 387.3 444.4 L 376.9 480.7 L 349.2 502 L 341.1 528.3 L 329.5 549.1 L 324.6 570.7 L 289 588.1 L 259.9 566.8 L 240.3 567.7 L 209.4 598 L 194.4 598.5 L 169.8 648.5 L 156.4 685.2 L 102.6 703.8 L 82.9 701.1 L 63 712.7 L 21.5 711.6 L -6.2 679.2 L -23.3 641.7 L -60 607.5 L -98.9 608.2 L -144.7 608.1 Z" />
<path class="neighbor" d="M 467.2 266 L 487.8 299.2 L 491.3 333.6 L 489.4 368 L 517.6 415.1 L 488.6 414.6 L 474 418.3 L 450.4 413.1 L 439.1 437.6 L 469.7 467.8 L 492.3 476.6 L 499.6 498.1 L 515.9 533.8 L 507.8 547.8 L 481.7 600.4 L 469.3 609.8 L 465.3 650 L 470.5 671.8 L 466.3 687.2 L 490.8 714.3 L 495.2 732.9 L 514.3 759.7 L 538 776.3 L 540.3 800 L 545.8 815 L 542.1 843 L 500.9 830.7 L 459 817.1 L 393.6 815 L 387.1 812.2 L 356.4 818.9 L 324.9 811.9 L 300.3 815.3 L 216 814.2 L 223.5 773.2 L 203.3 739 L 179.6 730.2 L 169.1 707 L 155.8 699.5 L 156.4 685.2 L 169.8 648.5 L 194.4 598.5 L 209.4 598 L 240.3 567.7 L 259.9 566.8 L 289 588.1 L 324.6 570.7 L 329.5 549.1 L 341.1 528.3 L 349.2 502 L 376.9 480.7 L 387.3 444.4 L 398.3 432.8 L 405.7 405.9 L 419.3 372.8 L 463 332.7 L 465.8 315.5 L 471.4 306.1 L 450.9 285.5 L 452.6 269 L 467.2 266 Z" />
<path class="neighbor" d="M 672.3 750.9 L 669.2 782.2 L 653.7 809.9 L 643.6 842.3 L 637.1 888.2 L 639.8 917.6 L 631.4 935.5 L 630.1 954.6 L 624.1 971.1 L 590 996.1 L 566.3 1022.8 L 543.7 1073.1 L 545.5 1115.8 L 532.4 1132.4 L 502.2 1157.7 L 471.7 1190.2 L 452.3 1181 L 449 1166.3 L 420.8 1165.8 L 403 1185.6 L 389.4 1180.4 L 370 1162.6 L 354.3 1171.3 L 333.4 1193.7 L 290.8 1138.8 L 330.3 1110.2 L 310.8 1075.9 L 328.5 1062.9 L 363.5 1056.5 L 367.6 1033.5 L 395.3 1058.4 L 441.1 1060.6 L 457 1036.1 L 463.5 1001.7 L 457.9 961.2 L 433.4 930.5 L 455.8 870.5 L 442.9 860.2 L 404.3 864.4 L 389.8 837.6 L 393.6 815 L 459 817.1 L 500.9 830.7 L 542.1 843 L 545.8 815 L 573 766.8 L 603.9 739.3 L 639 748 L 672.3 750.9 Z" />
<path class="neighbor" d="M 300.3 815.3 L 324.9 811.9 L 356.4 818.9 L 387.1 812.2 L 393.6 815 L 389.8 837.6 L 404.3 864.4 L 442.9 860.2 L 455.8 870.5 L 433.4 930.5 L 457.9 961.2 L 463.5 1001.7 L 457 1036.1 L 441.1 1060.6 L 395.3 1058.4 L 367.6 1033.5 L 363.5 1056.5 L 328.5 1062.9 L 310.8 1075.9 L 330.3 1110.2 L 290.8 1138.8 L 237.6 1086.5 L 203.3 1043.7 L 171.9 990.1 L 173.5 972.9 L 184.8 956.3 L 197.4 918.6 L 207.9 880.2 L 225.4 877.2 L 300.8 877.7 L 300.3 815.3 Z" />
<path class="neighbor" d="M 216 814.2 L 300.3 815.3 L 300.8 877.7 L 225.4 877.2 L 207.9 880.2 L 198.2 872.4 L 216 814.2 Z" />
<path class="neighbor" d="M 2192.9 517.7 L 2046.4 673.3 L 1978.9 675.6 L 1932.7 712.1 L 1899.5 713.1 L 1885.3 729.4 L 1849.9 729.4 L 1829 711.9 L 1781.6 733.6 L 1766.3 755.2 L 1731.7 751.1 L 1720.2 745.1 L 1708.1 746.5 L 1691.7 746 L 1626.1 702 L 1590 702 L 1572.3 684.9 L 1572.3 655.8 L 1545.4 647.1 L 1514.8 590.7 L 1491.1 578.7 L 1482 558 L 1455.8 532.7 L 1423.9 529 L 1441.6 499.5 L 1469.1 498.2 L 1476.8 482.4 L 1476.1 435.8 L 1491.5 381.6 L 1516 367 L 1521.2 345.8 L 1543.5 306.3 L 1574.7 280.6 L 1595.8 229.5 L 1604.1 185 L 1664.4 195.8 L 1680.6 157.2 L 1712.1 180.7 L 1742.4 168.5 L 1754.9 179.3 L 1790.5 180 L 1835.6 200.7 L 1849 218.6 L 1872 235.3 L 1893.3 265.7 L 1911 282.4 L 1892.8 305.4 L 1875.3 329.7 L 1879.3 344 L 1880.1 359.7 L 1909.1 360.6 L 1921.6 356.9 L 1933.1 366.2 L 1921.8 384.5 L 1940.9 413.1 L 1960 438 L 1979.8 456.5 L 2149.3 518 L 2192.9 517.7 Z" />
<path class="neighbor" d="M 1473.1 981.8 L 1367.5 985.8 L 1310.7 985.1 L 1292.5 991.3 L 1261.6 1007.3 L 1249 1002.1 L 1249.4 963 L 1261.4 943.2 L 1264.4 901.6 L 1275.3 877.5 L 1295.1 850.4 L 1315 836.7 L 1331.7 818.3 L 1310.9 811.3 L 1314 750.6 L 1314 750.6 L 1335.4 736.5 L 1368.3 748.1 L 1410 736 L 1446.5 736.1 L 1478.4 712.3 L 1503 748.2 L 1509 774.3 L 1531.8 833.8 L 1513 871.5 L 1487.5 905.8 L 1472.6 926.8 L 1473.1 981.8 Z" />
<path class="neighbor" d="M 1292.5 991.3 L 1313.1 1020.6 L 1310.1 1051.1 L 1295.1 1057.7 L 1295.1 1057.7 L 1267.6 1054.3 L 1251.7 1083.8 L 1220.3 1079.7 L 1225.1 1051.3 L 1232.2 1047.4 L 1234.1 1016.5 L 1249 1002.1 L 1261.6 1007.3 L 1292.5 991.3 Z" />
<path class="neighbor" d="M 1314 750.6 L 1268.4 716.2 L 1256.1 694.1 L 1227.2 705 L 1203.2 701.6 L 1189.4 710.3 L 1166.1 704 L 1134.7 661.2 L 1126.4 644.8 L 1087.6 624.3 L 1074.5 593.2 L 1052.9 570.8 L 1018.1 543.8 L 1017.6 526.9 L 989.2 506 L 954 485.8 L 969.9 480.1 L 987.7 470.3 L 1001 424 L 1015.2 400 L 1052.6 392.9 L 1061.5 407.1 L 1088.2 437.4 L 1102.5 441.8 L 1121.1 432.9 L 1158.5 434.7 L 1165.6 445.4 L 1217.2 445.4 L 1219 434.7 L 1245.7 424.9 L 1251.1 409.8 L 1270.6 399.1 L 1314.2 429.4 L 1340.9 424 L 1366.7 386.7 L 1395.2 358.2 L 1390.8 327.1 L 1378.3 311.9 L 1409.4 309.3 L 1413 297.7 L 1437 301.3 L 1430.8 339.5 L 1437 376.9 L 1463.7 397.4 L 1470 415.2 L 1469.1 441 L 1476.2 442 L 1476.8 482.4 L 1469.1 498.2 L 1441.6 499.5 L 1423.9 529 L 1455.8 532.7 L 1482 558 L 1491.1 578.7 L 1514.8 590.7 L 1545.4 647.1 L 1510.3 681.3 L 1478.4 712.3 L 1446.5 736.1 L 1410 736 L 1368.3 748.1 L 1335.4 736.5 L 1314 750.6 Z" />

<path class="country" d="M 1134.7 661.2 L 1117.6 666.7 L 1084.3 665.6 L 1045.4 660.1 L 1026.1 664.5 L 1018.3 677.1 L 1001.5 678.7 L 981.1 667.7 L 923.4 693.6 L 899.8 688.4 L 892.6 692.4 L 877.1 723.7 L 838.5 713.6 L 800.6 708.5 L 767.5 689.4 L 724.9 671.7 L 697.1 688.4 L 677 714.7 L 672.3 750.9 L 639 748 L 603.9 739.3 L 573 766.8 L 545.8 815 L 540.3 800 L 538 776.3 L 514.3 759.7 L 495.2 732.9 L 490.8 714.3 L 466.3 687.2 L 470.5 671.8 L 465.3 650 L 469.3 609.8 L 481.7 600.4 L 507.8 547.8 L 550.7 543.9 L 560.2 530.6 L 568.8 531.6 L 581.7 543.4 L 647 523.5 L 669 503.3 L 696 485.2 L 690.9 466.9 L 705.5 462.2 L 755.6 465.4 L 804.4 441.4 L 841.8 384.8 L 868.1 363.8 L 900.9 355 L 906.8 377.2 L 936.7 409.6 L 936.9 430.7 L 928.4 452.3 L 931.8 468.4 L 949.7 483.3 L 989.2 506 L 1017.6 526.9 L 1018.1 543.8 L 1052.9 570.8 L 1074.5 593.2 L 1087.6 624.3 L 1126.4 644.8 L 1134.7 661.2 Z" />


<g class="city"><circle cx="157.34414414820458" cy="310.44858646802084" r="5" /><text x="169.34414414820458" y="314.44858646802084">Kano</text></g>
<g class="city"><circle cx="219.02228399544546" cy="721.9755322822996" r="5" /><text x="231.02228399544546" y="725.9755322822996">Douala</text></g>
<g class="city"><circle cx="312.6658380991925" cy="732.0159379047648" r="5" /><text x="324.6658380991925" y="736.0159379047648">Yaoundé</text></g>
<g class="city"><circle cx="1404.6024132497178" cy="916.0231944431142" r="5" /><text x="1416.6024132497178" y="920.0231944431142">Kampala</text></g>
<g class="city"><circle cx="495.7636948850982" cy="304.585355314034" r="5" /><text x="507.7636948850982" y="308.585355314034">N'Djamena</text></g>
<g class="city"><circle cx="397.84526220723836" cy="318.22433013643763" r="5" /><text x="409.84526220723836" y="322.22433013643763">Maiduguri</text></g>
<g class="city"><circle cx="1273.8400068508931" cy="1033.695686810509" r="5" /><text x="1285.8400068508931" y="1037.695686810509">Kigali</text></g>
<g class="city"><circle cx="677.75176779528" cy="706.2035498444745" r="5" /><text x="689.75176779528" y="710.2035498444745">Bangui</text></g>
<text class="map-title" x="80" y="105">Central African Republic Political Study Map</text>
<text class="map-subtitle" x="80" y="145">Capital: Bangui | Continent: Africa</text>
  <text class="footer" x="80" y="1036">Made with Natural Earth. Free vector and raster map data @ naturalearthdata.com.</text>
</svg>
