<?xml version="1.0" encoding="UTF-8"?>
<svg xmlns="http://www.w3.org/2000/svg" width="1600" height="1100" viewBox="0 0 1600 1100" role="img" aria-labelledby="title desc">
  <title id="title">Congo (Republic) Physical Study Map</title>
  <desc id="desc">Made with Natural Earth. Free vector and raster map data @ naturalearthdata.com.</desc>
  <defs>
    <linearGradient id="terrain" x1="0" x2="1" y1="0" y2="1">
      <stop offset="0%" stop-color="#6c8c53" />
      <stop offset="42%" stop-color="#d5c487" />
      <stop offset="72%" stop-color="#b88b5f" />
      <stop offset="100%" stop-color="#f1f5ee" />
    </linearGradient>
    <filter id="softShadow" x="-10%" y="-10%" width="120%" height="120%">
      <feDropShadow dx="0" dy="10" stdDeviation="12" flood-color="#0f172a" flood-opacity="0.16" />
    </filter>
    <style>
      .neighbor { fill: #ffffff; stroke: #94a3b8; stroke-width: 1.2; opacity: 0.72; }
      .country { fill: url(#terrain); stroke: #1f2937; stroke-width: 4; filter: url(#softShadow); }
      .admin1 { fill: none; stroke: #64748b; stroke-width: 1.1; stroke-dasharray: 6 7; opacity: 0.75; }
      .river { fill: none; stroke: #1d9bd1; stroke-width: 3; stroke-linecap: round; opacity: 0.88; }
      .lake { fill: #8ed1ea; stroke: #0ea5e9; stroke-width: 1.5; opacity: 0.8; }
      .city circle { fill: #ef4444; stroke: #ffffff; stroke-width: 2; }
      .city text, .terrain-label { fill: #172033; font: 700 24px system-ui, sans-serif; paint-order: stroke; stroke: #ffffff; stroke-width: 5; stroke-linejoin: round; }
      .map-title { fill: #0f172a; font: 800 46px system-ui, sans-serif; }
      .map-subtitle { fill: #475569; font: 600 24px system-ui, sans-serif; }
      .footer { fill: #64748b; font: 500 18px system-ui, sans-serif; }
    </style>
  </defs>
  <rect width="100%" height="100%" fill="#d8edf0" />
  <rect x="40" y="40" width="1520" height="1020" rx="32" fill="#ffffff" opacity="0.54" />
  <path class="neighbor" d="M 1564.4 786.8 L 1573.8 835 L 1568.6 862.3 L 1579.1 892.8 L 1609.5 922.2 L 1637.8 988.3 L 1637.8 988.3 L 1617.2 982.9 L 1546.7 991.8 L 1532.6 998.1 L 1517.7 1031.6 L 1529.4 1054.7 L 1520.1 1116.8 L 1513.6 1169.5 L 1527.8 1178.8 L 1564.5 1199.3 L 1578.9 1189.7 L 1583.2 1246.3 L 1543.1 1245.9 L 1521.5 1217 L 1502.2 1194.6 L 1462 1187.3 L 1450.2 1159.8 L 1418.1 1176.4 L 1376.1 1169 L 1358.6 1145.2 L 1325.3 1140.4 L 1300.7 1141.6 L 1297.7 1125.3 L 1279.6 1124 L 1255.7 1120.9 L 1223.1 1128.8 L 1200.3 1127.5 L 1187.4 1132.3 L 1190.2 1069.9 L 1172.7 1050.4 L 1168.8 1018.1 L 1176.5 986.5 L 1165.9 966.2 L 1164.9 933.2 L 1101.3 933.7 L 1105.8 914.8 L 1079.1 915 L 1076.2 924.1 L 1043.7 926.1 L 1030.5 956.7 L 1022.7 969.8 L 993.7 962.4 L 976.4 969.8 L 941.7 974 L 921.6 946.6 L 909.5 929.6 L 894.4 898.2 L 881.5 859.1 L 726.7 858.4 L 708.2 864.7 L 693 863.7 L 671.4 870.7 L 664 854.5 L 677.4 848.9 L 679 826 L 687.6 812.5 L 706.7 801.5 L 720.5 806.9 L 738.4 786.8 L 767 787.3 L 770.4 802.1 L 790 811.4 L 820.9 778.6 L 851.4 752.9 L 864.7 736.1 L 862.9 693 L 885.7 642 L 909.8 615 L 944.3 589.7 L 950.4 572.9 L 951.7 553.7 L 960.2 535.5 L 957.5 505.7 L 964 459.2 L 974.3 426.5 L 990 398.4 L 993.1 366.7 L 997.8 330.1 L 1018.2 303.5 L 1046.3 286.6 L 1089.5 304.4 L 1122.9 323.8 L 1161.3 329 L 1200.5 339.2 L 1216.2 307.5 L 1223.4 303.5 L 1247.3 308.7 L 1305.7 282.6 L 1326.4 293.7 L 1343.4 292.1 L 1351.3 279.3 L 1370.8 274.8 L 1410.2 280.3 L 1443.9 281.6 L 1461.2 276 L 1493 319.3 L 1516.6 325.7 L 1530.6 316.9 L 1554.9 320.3 L 1584.1 309.2 L 1596.6 331.6 L 1642.8 366.5 L 1642.8 366.5 L 1639.6 427.9 L 1660.6 435 L 1643.7 453.6 L 1623.6 467.5 L 1603.5 494.9 L 1592.5 519.3 L 1589.5 561.4 L 1577.4 581.5 L 1576.9 621 L 1561.8 635.6 L 1559.9 666.9 L 1552.7 670.9 L 1547.8 699.6 L 1561 723.5 L 1564.4 786.8 Z" />
<path class="neighbor" d="M 1275.6 -476.8 L 1278.2 -268.5 L 1233 -272.2 L 1209 -233.6 L 1195.1 -201.2 L 1206.1 -188.9 L 1188.8 -172.8 L 1194.8 -151.1 L 1181.2 -129.2 L 1175.9 -109.9 L 1194.3 -113 L 1205.3 -92.7 L 1205.9 -62.2 L 1225.2 -46.8 L 1224.6 -34.1 L 1191.3 -25.1 L 1164.7 -3.9 L 1126.8 53.4 L 1077.4 77.7 L 1026.7 74.4 L 1011.9 79.3 L 1017.1 97.7 L 989.8 116.1 L 967.5 136.6 L 901.4 156.6 L 888.3 144.8 L 879.6 143.7 L 869.9 157.2 L 826.6 161.2 L 834.8 147 L 818.2 110.8 L 810.8 89.1 L 788 80.2 L 757 49.5 L 768.4 24.8 L 792.3 30 L 807.1 26.3 L 836.4 26.8 L 807.9 -20.9 L 809.8 -55.7 L 806.3 -90.6 L 785.4 -124.2 L 790.7 -148.9 L 757 -150.1 L 757.1 -183.8 L 735.3 -203.3 L 758 -272.4 L 824.9 -321.9 L 827.7 -390.1 L 847.9 -496.6 L 859.3 -519.2 L 837.5 -537.2 L 836.6 -553.9 L 817 -567.5 L 804.1 -649.1 L 857.1 -677.8 L 1066.4 -577.3 L 1275.6 -476.8 Z" />
<path class="neighbor" d="M -2685.9 332.5 L -2717 380.6 L -2733.1 419.2 L -2753.2 439.1 L -2778.3 442.9 L -2785.5 428.1 L -2797.2 425.9 L -2813.5 440.1 L -2836.4 429.3 L -2823 407.3 L -2818.4 383.3 L -2809.2 360.7 L -2829.8 329.6 L -2834 293.7 L -2806.6 248.6 L -2788.8 254.3 L -2750.2 266.8 L -2694.6 311 L -2685.9 332.5 Z M 349.4 -2044.9 L 374.2 -2031.2 L 449.8 -2021.5 L 423.2 -1985.6 L 416.6 -1948.2 L 402.2 -1939.3 L 378.3 -1944.1 L 380 -1930.8 L 341.6 -1901.3 L 340.8 -1877.5 L 365.9 -1885.7 L 383.9 -1862.7 L 381.7 -1847.9 L 397.2 -1828.2 L 379 -1812.2 L 392.5 -1771.6 L 420.9 -1764.9 L 414.9 -1742.2 L 367.4 -1712.5 L 263.9 -1726.7 L 187.5 -1709.7 L 181.5 -1678.1 L 120.6 -1671.3 L 61.6 -1695 L 42.5 -1683.7 L -54.1 -1707.5 L -75 -1727.9 L -47.9 -1759.4 L -37.9 -1864 L -92 -1919 L -130.7 -1945.6 L -210.9 -1965.8 L -216.2 -2004 L -148.2 -2015.5 L -60.1 -2002 L -76.7 -2061.3 L -27.1 -2038.8 L 95 -2079.8 L 110.8 -2122.8 L 156.7 -2133.4 L 164.3 -2114.9 L 188.7 -2114 L 213.1 -2093 L 249.7 -2068.2 L 276.6 -2072.3 L 322.5 -2048.4 L 334.3 -2043.8 L 349.4 -2044.9 Z M 483.7 -1686.2 L 517.5 -1706.3 L 526.4 -1661.3 L 509.1 -1620.8 L 485.3 -1631.4 L 473.1 -1666.7 L 483.7 -1686.2 Z" />
<path class="neighbor" d="M 166 222.2 L 169 137.6 L 167.7 104.2 L 177.6 71.1 L 193.8 55.1 L 219.2 22.6 L 213.7 8.5 L 224 -12.7 L 212.2 -43.8 L 214.3 -61.2 L 217.9 -108.1 L 233 -129.2 L 240.3 -159.4 L 254 -170.8 L 310.4 -177 L 363 -157.4 L 382.7 -137.6 L 409.5 -136.7 L 434.3 -149.6 L 497.8 -122.4 L 524.6 -123.7 L 555.5 -146.1 L 586.3 -144.5 L 601.4 -151.9 L 629.7 -148.8 L 670.3 -133.5 L 711.3 -162.8 L 723.7 -160.7 L 759.2 -103.3 L 768.9 -104.4 L 789.7 -83.5 L 784 -74.1 L 781.2 -56.6 L 737 -16 L 723.1 17.5 L 715.7 44.7 L 704.6 56.4 L 694 93.2 L 666 114.8 L 657.8 141.3 L 646 162.5 L 641.1 184.3 L 605.1 202 L 575.6 180.4 L 555.7 181.3 L 524.5 212 L 509.3 212.5 L 484.3 263.1 L 470.8 300.2 L 416.3 319.1 L 396.4 316.4 L 376.3 328.1 L 334.3 327 L 306.2 294.1 L 288.9 256.2 L 251.8 221.6 L 212.3 222.2 L 166 222.2 Z" />
<path class="neighbor" d="M 785.4 -124.2 L 806.3 -90.6 L 809.8 -55.7 L 807.9 -20.9 L 836.4 26.8 L 807.1 26.3 L 792.3 30 L 768.4 24.8 L 757 49.5 L 788 80.2 L 810.8 89.1 L 818.2 110.8 L 834.8 147 L 826.6 161.2 L 800.2 214.4 L 787.6 223.9 L 783.5 264.6 L 788.7 286.7 L 784.5 302.3 L 809.3 329.7 L 813.8 348.5 L 833.2 375.6 L 857.2 392.5 L 859.5 416.4 L 865 431.6 L 861.3 460 L 819.6 447.6 L 777.1 433.7 L 710.9 431.7 L 704.4 428.8 L 673.3 435.6 L 641.4 428.5 L 616.5 432 L 531.1 430.8 L 538.8 389.4 L 518.3 354.7 L 494.3 345.8 L 483.7 322.3 L 470.2 314.7 L 470.8 300.2 L 484.3 263.1 L 509.3 212.5 L 524.5 212 L 555.7 181.3 L 575.6 180.4 L 605.1 202 L 641.1 184.3 L 646 162.5 L 657.8 141.3 L 666 114.8 L 694 93.2 L 704.6 56.4 L 715.7 44.7 L 723.1 17.5 L 737 -16 L 781.2 -56.6 L 784 -74.1 L 789.7 -83.5 L 768.9 -104.4 L 770.6 -121.1 L 785.4 -124.2 Z" />
<path class="neighbor" d="M 1461.2 276 L 1443.9 281.6 L 1410.2 280.3 L 1370.8 274.8 L 1351.3 279.3 L 1343.4 292.1 L 1326.4 293.7 L 1305.7 282.6 L 1247.3 308.7 L 1223.4 303.5 L 1216.2 307.5 L 1200.5 339.2 L 1161.3 329 L 1122.9 323.8 L 1089.5 304.4 L 1046.3 286.6 L 1018.2 303.5 L 997.8 330.1 L 993.1 366.7 L 959.3 363.8 L 923.8 355 L 892.5 382.8 L 865 431.6 L 859.5 416.4 L 857.2 392.5 L 833.2 375.6 L 813.8 348.5 L 809.3 329.7 L 784.5 302.3 L 788.7 286.7 L 783.5 264.6 L 787.6 223.9 L 800.2 214.4 L 826.6 161.2 L 869.9 157.2 L 879.6 143.7 L 888.3 144.8 L 901.4 156.6 L 967.5 136.6 L 989.8 116.1 L 1017.1 97.7 L 1011.9 79.3 L 1026.7 74.4 L 1077.4 77.7 L 1126.8 53.4 L 1164.7 -3.9 L 1191.3 -25.1 L 1224.6 -34.1 L 1230.5 -11.6 L 1260.8 21.2 L 1260.9 42.6 L 1252.4 64.5 L 1255.8 80.8 L 1274 95.9 L 1313.9 118.8 L 1342.7 140 L 1343.1 157.1 L 1378.4 184.4 L 1400.3 207.1 L 1413.6 238.6 L 1452.8 259.4 L 1461.2 276 Z" />
<path class="neighbor" d="M 616.5 432 L 641.4 428.5 L 673.3 435.6 L 704.4 428.8 L 710.9 431.7 L 707.1 454.6 L 721.8 481.7 L 760.8 477.4 L 773.9 487.8 L 751.2 548.6 L 776 579.6 L 781.7 620.6 L 775.1 655.5 L 759 680.3 L 712.7 678.1 L 684.7 652.9 L 680.5 676.1 L 645.1 682.6 L 627.1 695.8 L 646.9 730.5 L 606.9 759.4 L 553 706.5 L 518.3 663.2 L 486.4 608.9 L 488.1 591.5 L 499.6 574.7 L 512.3 536.5 L 522.9 497.6 L 540.6 494.6 L 617 495.1 L 616.5 432 Z" />
<path class="neighbor" d="M 531.1 430.8 L 616.5 432 L 617 495.1 L 540.6 494.6 L 522.9 497.6 L 513.1 489.7 L 531.1 430.8 Z" />
<path class="neighbor" d="M 1637.8 988.3 L 1659.8 1001.6 L 1680.7 1010.4 L 1714 1019.2 L 1743.8 1035 L 1768.6 1058.4 L 1781.9 1103 L 1773 1117.2 L 1762.4 1159.7 L 1772.5 1203.2 L 1756 1221.5 L 1740.1 1270.2 L 1767.7 1283.8 L 1608.4 1327.1 L 1613.4 1364.4 L 1573.7 1371.6 L 1543.8 1392.5 L 1537.4 1410.7 L 1518.6 1414.8 L 1473 1458 L 1443.9 1491.9 L 1426.2 1493.1 L 1409.1 1487.1 L 1350.5 1481.3 L 1341.1 1477.4 L 1340.7 1473.1 L 1320 1461.2 L 1285.9 1458.2 L 1243 1470.1 L 1208.7 1437.4 L 1173.3 1394.4 L 1175.7 1227.5 L 1285 1228.1 L 1280.5 1210 L 1288.4 1190.4 L 1279.1 1165.8 L 1285.1 1140.3 L 1279.6 1124 L 1297.7 1125.3 L 1300.7 1141.6 L 1325.3 1140.4 L 1358.6 1145.2 L 1376.1 1169 L 1418.1 1176.4 L 1450.2 1159.8 L 1462 1187.3 L 1502.2 1194.6 L 1521.5 1217 L 1543.1 1245.9 L 1583.2 1246.3 L 1578.9 1189.7 L 1564.5 1199.3 L 1527.8 1178.8 L 1513.6 1169.5 L 1520.1 1116.8 L 1529.4 1054.7 L 1517.7 1031.6 L 1532.6 998.1 L 1546.7 991.8 L 1617.2 982.9 L 1637.8 988.3 Z" />
<path class="neighbor" d="M 706.7 801.5 L 687.6 812.5 L 679 826 L 677.4 848.9 L 664 854.5 L 650 815 L 671.2 792.3 L 687 783.5 L 706.7 801.5 Z M 671.4 870.7 L 693 863.7 L 708.2 864.7 L 726.7 858.4 L 881.5 859.1 L 894.4 898.2 L 909.5 929.6 L 921.6 946.6 L 941.7 974 L 976.4 969.8 L 993.7 962.4 L 1022.7 969.8 L 1030.5 956.7 L 1043.7 926.1 L 1076.2 924.1 L 1079.1 915 L 1105.8 914.8 L 1101.3 933.7 L 1164.9 933.2 L 1165.9 966.2 L 1176.5 986.5 L 1168.8 1018.1 L 1172.7 1050.4 L 1190.2 1069.9 L 1187.4 1132.3 L 1200.3 1127.5 L 1223.1 1128.8 L 1255.7 1120.9 L 1279.6 1124 L 1285.1 1140.3 L 1279.1 1165.8 L 1288.4 1190.4 L 1280.5 1210 L 1285 1228.1 L 1175.7 1227.5 L 1173.3 1394.4 L 1208.7 1437.4 L 1243 1470.1 L 1146.5 1491.5 L 1019.5 1484.1 L 983.1 1459 L 770.4 1461.2 L 762.5 1464.9 L 731.2 1441.2 L 697.2 1439.6 L 665.8 1448.6 L 640.5 1458.5 L 635.6 1425.5 L 642.8 1379.4 L 661 1331.4 L 663.7 1308.8 L 680.7 1261.5 L 693.2 1240 L 723.4 1205.7 L 740.2 1182.4 L 745.7 1143.5 L 743 1113.7 L 727.3 1095 L 713.3 1063.1 L 700.4 1031.7 L 703.2 1020.8 L 719.3 1000 L 703.4 949.3 L 692.7 914.1 L 666.4 880.9 L 671.4 870.7 Z" />
<path class="lake" d="M 971.2 600.8 L 970 599.5 L 968.4 597.5 L 966.2 595.4 L 964.9 593.4 L 965 591.1 L 964.1 589.3 L 961.1 588.1 L 959.7 587.1 L 959.4 585.9 L 960.5 585.7 L 964.1 585.5 L 968.4 584.8 L 971.7 585.1 L 974 586.3 L 975.3 587.8 L 975.6 589 L 975.1 591.7 L 974.9 592.6 L 975.5 595.8 L 975.9 599.5 L 976.1 602.1 L 974.7 602.5 L 973.4 601.6 L 972.3 600.8 L 971.2 600.8 L 971.2 600.8 L 971.2 600.8 L 971.2 600.8 Z" />
<path class="country" d="M 993.1 366.7 L 990 398.4 L 974.3 426.5 L 964 459.2 L 957.5 505.7 L 960.2 535.5 L 951.7 553.7 L 950.4 572.9 L 944.3 589.7 L 909.8 615 L 885.7 642 L 862.9 693 L 864.7 736.1 L 851.4 752.9 L 820.9 778.6 L 790 811.4 L 770.4 802.1 L 767 787.3 L 738.4 786.8 L 720.5 806.9 L 706.7 801.5 L 687 783.5 L 671.2 792.3 L 650 815 L 606.9 759.4 L 646.9 730.5 L 627.1 695.8 L 645.1 682.6 L 680.5 676.1 L 684.7 652.9 L 712.7 678.1 L 759 680.3 L 775.1 655.5 L 781.7 620.6 L 776 579.6 L 751.2 548.6 L 773.9 487.8 L 760.8 477.4 L 721.8 481.7 L 707.1 454.6 L 710.9 431.7 L 777.1 433.7 L 819.6 447.6 L 861.3 460 L 865 431.6 L 892.5 382.8 L 923.8 355 L 959.3 363.8 L 993.1 366.7 Z" />

<path class="river" d="M 1060.2 155.1 L 1054.7 153.9 L 1052.8 151.8 L 1052.8 148.4 L 1049.3 145.3 L 1042.2 142.5 L 1039.1 136.8 L 1040.1 128.3 L 1036.8 117.9 L 1025.1 99.4 L 1027.5 96.4 L 1025.2 93.3 L 1015.8 87" />
<path class="river" d="M 650.5 52.6 L 643.1 52.3 L 632.1 56.9 L 615 66.3 L 604 75.2 L 598.9 83.6 L 594.5 89.1 L 590.8 91.8 L 582.9 93.7 L 570.6 95 L 561 99.9 L 554 108.4 L 548.3 113.7 L 541.5 116.6 L 524.9 124.5 L 517.8 128.8 L 514.7 132.1 L 504.4 136.5 L 486.9 142 L 467.5 141.4 L 435.6 131.4 L 414.2 129.9 L 400.3 132.5 L 380.3 141.7" />
<path class="river" d="M 1113.8 565.4 L 1106.4 566.1 L 1100.7 565.3 L 1094.2 563.3 L 1089.9 562.9 L 1087.6 564 L 1085.8 562.6 L 1084.6 558.7 L 1082.5 557.4 L 1079.5 558.8 L 1075.7 558.3 L 1071 556.1 L 1067.1 556.1 L 1064.2 558.4 L 1059.2 558.5 L 1052.1 556.5 L 1043.3 556.6 L 1033 558.8 L 1027 561.1 L 1025.2 563.6 L 1023 564.2 L 1019.2 562.1" />
<path class="river" d="M 734.4 142.5 L 742.3 138.5 L 744.6 134.9 L 743.9 130.5 L 745.6 127.1 L 751.5 123.6 L 757.3 118.2 L 759.3 114.5 L 759.4 110.5 L 758.2 107.1 L 755.7 104.3 L 755.6 99.5 L 757.7 92.7 L 755.5 87.1 L 749 82.7 L 742.7 75.5 L 736.6 65.5 L 731.9 61.9 L 728.5 64.5 L 723.7 66.5 L 717.3 67.9 L 711.4 66.7 L 703.1 60.8 L 697.5 58.7 L 692.1 59.9 L 684.9 63.8 L 678.4 62.2 L 672.4 55.1 L 664.7 51.8 L 650.5 52.6" />
<path class="river" d="M 1412.3 984.7 L 1423.4 982.1 L 1428.1 980.6 L 1429.9 979.1 L 1430.7 976.9 L 1430.7 974.1 L 1433.1 971 L 1437.8 967.8 L 1440.2 965.2 L 1440.2 963.3 L 1437.8 960.1 L 1433.1 955.8 L 1434.5 945.7 L 1442.1 930 L 1444.1 917.5 L 1440.7 908.3 L 1439.6 900.3 L 1440.5 893.6 L 1440 887.6 L 1438 882.2 L 1436.7 874.5 L 1436.1 864.5 L 1436.3 855.9 L 1437.9 845 M 1299.5 509.6 L 1293.5 502.2 L 1284.4 497 L 1270.2 491.7 L 1255.9 480.2 L 1241.3 462.5 L 1230 452.3 L 1217.8 448.3 L 1208.4 440.4 L 1200 437.3 L 1189.4 436.3 L 1177.6 436.4 L 1164.6 437.4 L 1152.9 439.8 L 1142.7 443.5 L 1123.8 446 L 1096.2 447.1 L 1069.1 452.8 L 1029.3 468.1 L 1006.8 486.4 L 996.9 495.4 L 992.2 501.1 L 987.3 514.3 L 979.8 545.4 L 979 547.3 L 975 557.1 L 964.1 571.1 L 956.3 579.4 L 945.3 591.3 L 931.5 603.1 L 922.5 606.5 L 915.5 610.5 L 910.5 615 L 908.9 617.4 L 905.3 622.9 L 897 639.8 L 892.7 647.2 L 887.1 653.5 L 878.7 661.3 L 875.7 664.9 L 874.4 670.2 L 875 680 L 875.8 709.6 L 874.4 718.3 L 872.1 732.4 L 863.8 748.3 L 857.7 757.1 L 851.5 759.8 L 843.4 762.2 L 839.5 765.1 L 837.1 769.5 L 832.6 773.4 L 825.9 776.7 L 817.5 784.7 L 807.3 797.6 L 800.3 804.9 L 796.6 806.8 L 792.7 807 L 788.7 805.4 L 785.3 805.2 L 781.3 806.9 L 771.7 808.4 L 766.4 810.1 L 762.2 812.5 L 759.7 815.7 L 758.6 819.8 L 756.2 823.7 L 752.2 827.6 L 750.6 828.8 L 749.4 828.9 L 747.7 827.6 L 746.4 827.6 L 745.5 828.9 L 743.2 829.3 L 739.7 828.7 L 737 829.6 L 735.4 831.8 L 735.8 834.7 L 738.2 838.3 L 737.9 839.9 L 736.6 840.9 L 736 843.2 L 736.5 847.4 L 733.8 852 L 727.9 857.2 L 722.8 859.3 L 716.6 857.9 L 710.5 858.4" />
<path class="river" d="M 791.8 242.9 L 791.8 262.3 L 785.3 273.2 L 783.7 278.7 L 784.9 282.5 L 782.3 286.7 L 776.2 291.4 L 772.8 298.9 L 772.2 309.4 L 775 318.2 L 781.3 325.4 L 785.6 328.7 L 787.7 328.7 L 789.3 329.6 L 789.5 330.8 L 792.1 331.7 L 795.1 330 L 799 328.8 L 802.8 328.7 L 805.2 330.1 L 806.3 333 L 809.6 334.5 L 815.2 334.7 L 819.6 336 L 824.3 339.7 L 831.2 337.8 L 835.6 338.3 L 839.8 340.5 L 842.2 344.3 L 843 349.9 L 846.1 353.5 L 851.5 355.2 L 858.1 359.1 L 866 365.2 L 870 372.2 L 870.1 380.3 L 872.7 387.8 L 877.6 394.7 L 878.2 397.2 L 877.2 399.3 L 873.5 402.4 L 870.5 408.1 L 869.4 414.2 L 870 420.8 L 871.5 426.6 L 874 431.5 L 873.6 434.9 L 870.4 436.9 L 868.6 440.1 L 868 444.5 L 869 450 L 871.4 456.4 L 871.5 460.6 L 869.5 463.9" />
<path class="river" d="M 1191.7 1140.9 L 1190.6 1128.5 L 1188.5 1122.2 L 1189.9 1118.9 L 1193.9 1116.5 L 1195.3 1111.7 L 1194.1 1104.3 L 1194 1099.2 L 1195.1 1096.2 L 1193.6 1089 L 1189.6 1077.5 L 1183.9 1068.2 L 1176.5 1061 L 1171.7 1054.1 L 1169.4 1047.5 L 1170.3 1031.7 L 1174.2 1006.8 L 1173.7 988.3 L 1168.8 976.3 L 1167.7 963.4 L 1170.5 949.5 L 1170.9 940 L 1167.9 932.4 L 1163.1 923.7 L 1155.5 916 L 1137.5 901.8 L 1123.5 893.5 L 1115.3 884.7 L 1108.3 872.5 L 1104.7 865.1 L 1104.6 862.5 L 1107.7 859 L 1113.9 854.6 L 1118.1 850.4 L 1121.4 844.3 L 1128.7 830.8 L 1130.7 818.3 L 1129.6 802.5 L 1125 792.6 L 1116.7 788.7 L 1110.4 784.4 L 1106 779.7 L 1101.6 776.8 L 1098.6 776 L 1095.4 776.3 L 1093.9 777.3 L 1092.9 779.5 L 1091.2 781 L 1089.2 781 L 1081.9 777 L 1069.2 769 L 1060.7 764.8 L 1056.4 764.3 L 1043.3 758.4 L 1021.3 747 L 1008.1 740.9 L 1001.6 739.6 L 996.1 739.5 L 991 737 L 984.6 732 L 976.1 729.7 L 965.5 729.8 L 958.6 728.6 L 955.4 725.9 L 952.2 724.5 L 949 724.3 L 939.3 720.4 L 935.5 718.6 L 920 711.2 L 915.7 710.8 L 910.8 711.9 L 903.5 712.6 L 891.6 711.7 L 883.5 711.9 L 879.1 713.1 L 876.5 715.3 L 874.4 718.3" />
<path class="river" d="M 1123.3 165.3 L 1117.8 169.7 L 1114.5 171 L 1111.7 170.8 L 1109.6 172.2 L 1108.2 175.3 L 1105.6 177.8 L 1099.8 180.9 L 1094.4 181.9 L 1090.2 181.6 L 1085.4 180.1 L 1079.8 177.1 L 1073.3 172.6 L 1067.6 166.6 L 1060.2 155.1" />
<path class="river" d="M 1011.1 1141.3 L 1006.4 1121.5 L 1002.5 1113.7 L 1001.9 1109.9 L 1003.5 1107.3 L 1001.3 1103 L 995.4 1096.9 L 994.5 1094.4 L 994.9 1093.2 L 995.3 1092 L 994.6 1090.1 L 995.3 1087.6 L 997.5 1084.3 L 1000.2 1081.5 L 1003.4 1079.2 L 1004.8 1075.2 L 1004.5 1069.6 L 1003.3 1065.1 L 1001.4 1061.7 L 998 1058.7 L 993.2 1056 L 988.3 1050.3 L 983.3 1041.7 L 979.2 1036.2 L 976 1034 L 974.1 1033.6 L 972.3 1032.9 L 971.6 1030.9 L 971.9 1028.9 L 971.5 1023.5 L 970 1016.4 L 966.1 1008 L 959.7 998.3 L 954 992.2 L 949 989.5 L 946.1 984.7 L 945 974.4 L 929.7 950.7 L 925 942.2 L 923.2 939.9 L 920.2 937 L 916 931.5 L 914.3 926.2 L 915 921.2 L 912.6 914.5 L 907 906 L 903.4 897.9 L 901.6 890.2 L 901.1 883.6 L 902 878.1 L 901 874.1 L 897.9 871.5 L 896 867.6 L 894.6 859.7 L 891.4 833.5 L 891 821.3 L 892.5 814.2 L 892.5 804.7 L 891 792.6 L 891 784.7 L 892.4 780.8 L 892.5 777 L 891.3 773.4 L 895.1 770 L 904.1 766.8 L 910 763.8 L 912.7 761.1 L 916.5 760.1 L 921.3 760.7 L 926.5 756.3 L 931.9 747 L 933.7 740.1 L 932.1 735.6 L 932.5 731.9 L 936 727.4 L 936.6 723.5 L 935.5 718.6" />
<path class="river" d="M 794.3 199.1 L 796.4 201.1 L 795.5 205.1 L 790.7 215.1 L 784.1 219.9 L 782 224.1 L 782.1 229.3 L 781.3 233.6 L 779.7 237 L 775.9 239.7 L 770 241.6 L 766.2 245.5 L 764.7 251.6 L 762.9 254.7 L 761 254.8 L 758.9 256.4 L 756.9 259.5 L 754.7 260.8 L 752.4 260.6 L 751.5 262.1 L 752 265.4 L 749 268.7 L 742.5 272 L 738.2 272.5 L 734.7 269.5 L 731.4 268.3 L 729.1 269.3 L 726.8 272.1 L 726.1 276 L 726.9 280.9 L 725.8 285.3 L 722.6 289.4 L 719.2 291.5 L 713.6 291.8" />
<path class="river" d="M 828.8 211.6 L 832.8 217.9 L 837.9 218.8 L 849.3 215.1 L 853.3 211.6 L 856.3 210.3 L 859.5 210.1 L 862.2 212.8 L 864.4 218.6 L 868.3 221.6 L 873.9 221.9 L 878.9 220 L 883.2 215.7 L 885.6 212.3 L 886.1 209.7 L 889.2 206.4 L 895 202.4 L 899.1 200.6 L 901.6 201.1 L 905 203.8 L 909.3 208.8 L 913.3 211 L 916.9 210.3 L 921.1 210.9 L 926 212.7 L 931.6 212.3 L 937.9 209.7 L 943.5 208.5 L 948.6 208.8 L 954 206.5 L 959.9 201.7 L 964.1 195.3 L 966.6 187.2 L 969.4 182.1 L 972.6 180 L 976 176 L 979.6 170 L 982.4 166.9 L 984.3 166.8 L 983.8 164.3 L 980.9 159.3 L 976.9 157.6 L 972 159.2 L 968.5 158.7 L 966.4 156.2 L 962.9 154.6 L 957.9 153.9 L 956.1 151.2 L 957.7 146.7 L 957.1 140 L 954.5 131.1 L 953.5 124.2 L 954 119.1 L 957.2 111.5 L 963.1 101.4 L 966.4 91.8 L 967.2 82.6 L 968.9 77.8 L 971.4 77.4 L 974.4 75.4 L 977.9 71.7 L 980.2 67.9 L 981.6 61.8" />
<path class="river" d="M 1019.2 562.1 L 1011.5 557 L 1004 554.3 L 994.2 552.3 L 988.2 550 L 986 547.4 L 983.6 546.3 L 979 547.3" />
<path class="river" d="M 713.6 291.8 L 706.6 289.1 L 701.7 288.6 L 691.8 290.4 L 687.6 291.6 L 683.2 294.7 L 678.8 299.7 L 674.7 302.3 L 669.2 302.7 L 661.3 310.6 L 657.5 312.2 L 655.1 310.2 L 649.6 312.3 L 640.9 318.5 L 633.3 319.8 L 626.5 316.1 L 617.5 319.1 L 606.2 328.8 L 594.6 335.1 L 582.9 337.9 L 575.9 338.3 L 573.6 336.1 L 570.1 338.4 L 565.5 345 L 561.9 348.1 L 559.3 347.8 L 555.6 350.5 L 550.8 356.3 L 546.3 359.5 L 540.1 360.3 L 537.2 360.5" />
<path class="river" d="M 869.5 463.9 L 869.1 465.8 L 872.2 472.6 L 875.5 475.8 L 879.1 476.2 L 883.1 478.9 L 887.3 484.1 L 890.7 486.6 L 893.4 488.5 L 895.9 495.1 L 899.2 513.1 L 902.7 523.1 L 906.2 525.3 L 909.5 525.7 L 911.8 526.7 L 912.8 528 L 915 529.1 L 916.4 529.2 L 918.7 530 L 920.7 531.6 L 921.9 534 L 922.2 537.2 L 923.7 539 L 926.3 539.6 L 926.8 541.8 L 925.3 545.7 L 925 550.6 L 926.1 556.7 L 926 561.9 L 924.6 566.2 L 924.5 568.8 L 925.7 569.5 L 925.9 571.2 L 925.2 573.7 L 925.8 575.3 L 927.7 576.1 L 928.9 579.8 L 929.3 586.4 L 928.8 589.7 L 926.3 591.2 L 925.6 594.8 L 922.2 598.9 L 916.3 603.6 L 912.3 608.5 L 908.9 617.4" />
<path class="river" d="M 1315.4 717.3 L 1316.5 707.8 L 1314.7 702.9 L 1310.4 699.6 L 1307.3 695.9 L 1304.5 690 L 1303.5 680.6 L 1298.4 671.8 L 1288.8 660.4 L 1282.6 646.6 L 1280 630.3 L 1276.2 624.2 L 1272 622.1 L 1268.8 620.5 L 1266.8 617.4 L 1257.3 614.2 L 1240.4 610.8 L 1229.6 606.5 L 1224.9 601.3 L 1219.7 598.1 L 1213.9 597.1 L 1208.4 595.3 L 1203.2 592.7 L 1200.1 590.2 L 1198.9 587.7 L 1193.5 584.8 L 1179.3 580 L 1167.9 576.2 L 1162.6 573.6 L 1159.5 571 L 1156.9 570.1 L 1154.8 570.8 L 1151.6 569.9 L 1147.4 567.3 L 1142.6 566.1 L 1137.4 566.4 L 1133.4 565.6 L 1130.5 563.7 L 1128.3 564.3 L 1127.2 563.7 L 1125.6 561.4 L 1123.4 560.7 L 1120.3 561 L 1117.4 562.3 L 1116 564.8 L 1113.8 565.4" />
<path class="river" d="M 1000.6 357.6 L 1002 377.3 L 995.1 397.2 L 980.4 423.9 L 973.1 445 L 973.1 460.4 L 972.3 470.1 L 969.9 476 L 964.2 492 L 963.3 505.7 L 965.4 522.4 L 963.4 538.3 L 957.4 553.4 L 954.8 565.2 L 956.3 579.4" />
<path class="river" d="M 1524.8 361.9 L 1516.6 359.2 L 1512.3 359.1 L 1509.3 360.6 L 1506.6 359.8 L 1504.2 356.8 L 1501.5 354.9 L 1498.3 354.4 L 1492.9 355.4 L 1485.4 358.1 L 1478.1 359.4 L 1471 359.5 L 1464.2 356.7 L 1457.8 351.1 L 1453.5 348.6 L 1451.3 349.2 L 1450.5 351.8 L 1451 356.6 L 1449.6 360.8 L 1446.2 364.7 L 1443.7 366.1 L 1442 365.1 L 1439.1 365.1 L 1435.2 366.2 L 1432.8 362.6 L 1431.9 354.3 L 1430.3 347.9 L 1427.9 343.2 L 1425.7 340.7 L 1423.5 340.1 L 1418.5 343.1 L 1406.7 353.1 L 1401.4 357.5 L 1397.3 358.1 L 1392.7 356.3 L 1388.5 355.7 L 1384.7 356.2 L 1381.7 358.8 L 1379.5 363.3 L 1376.6 364.7 L 1373.2 362.9 L 1369.1 363 L 1364.4 364.9 L 1359.1 365.7 L 1353 365.4 L 1348.5 366.6 L 1345.4 369.6 L 1342 371.4 L 1338.2 372.1 L 1335.6 371.3 L 1333.9 369 L 1328.2 367.9 L 1318.2 368.2 L 1308.4 365.2 L 1298.7 359.1 L 1288.4 356 L 1277.7 356 L 1270.2 354.1 L 1265.8 350.3 L 1260.3 348.9 L 1253.5 350 L 1247.4 349.4 L 1242.1 347 L 1234.3 346.8 L 1223.8 348.6 L 1214.3 345.5 L 1201.4 333.7 L 1174.4 327.4 L 1162.8 326 L 1154.9 327.9 L 1145.1 324.4 L 1140.8 323.8 L 1138.8 324.9 L 1133.3 323.3 L 1124.4 319.1 L 1115.9 317.3 L 1108.2 317.9 L 1103.5 316.5 L 1099.8 312.3 L 1094.9 304.7 L 1086.1 297.2 L 1074.4 291.2 L 1067 286.6 L 1064.1 283.6 L 1057.8 281.9 L 1048.1 281.6 L 1038.8 284.6 L 1025.4 294 L 1013 313.3 L 1006 320.7 L 1000.5 322.6 L 999.1 327.2 L 1001.8 334.6 L 1002.6 343.1 L 1000.6 357.6" />
<g class="city"><circle cx="828.3155384372493" cy="777.7322287554083" r="5" /><text x="840.3155384372493" y="781.7322287554083">Kinshasa</text></g>
<g class="city"><circle cx="719.1402462006273" cy="1014.3161882068639" r="5" /><text x="731.1402462006273" y="1018.3161882068639">Luanda</text></g>
<g class="city"><circle cx="534.197680541499" cy="337.4652163358652" r="5" /><text x="546.197680541499" y="341.4652163358652">Douala</text></g>
<g class="city"><circle cx="629.0010294102884" cy="347.62997445638837" r="5" /><text x="641.0010294102884" y="351.62997445638837">Yaoundé</text></g>
<g class="city"><circle cx="826.7265095051621" cy="774.0307915051749" r="5" /><text x="838.7265095051621" y="778.0307915051749">Brazzaville</text></g>
<g class="city"><circle cx="998.6086237751797" cy="321.49789463693673" r="5" /><text x="1010.6086237751797" y="325.49789463693673">Bangui</text></g>
<g class="city"><circle cx="418.3317484552001" cy="212.17347023516737" r="5" /><text x="430.3317484552001" y="216.17347023516737">Enugu</text></g>
<g class="city"><circle cx="648.1717016206824" cy="800.9379177986681" r="5" /><text x="660.1717016206824" y="804.9379177986681">Pointe-Noire</text></g>
<text class="map-title" x="80" y="105">Congo (Republic) Physical Study Map</text>
<text class="map-subtitle" x="80" y="145">Landmark: Lesio-Louna Reserve | Study terrain and water systems</text>
  <text class="footer" x="80" y="1036">Made with Natural Earth. Free vector and raster map data @ naturalearthdata.com.</text>
</svg>
