<?xml version="1.0" encoding="UTF-8"?>
<svg xmlns="http://www.w3.org/2000/svg" width="1600" height="1100" viewBox="0 0 1600 1100" role="img" aria-labelledby="title desc">
  <title id="title">Switzerland Physical Study Map</title>
  <desc id="desc">Made with Natural Earth. Free vector and raster map data @ naturalearthdata.com.</desc>
  <defs>
    <linearGradient id="terrain" x1="0" x2="1" y1="0" y2="1">
      <stop offset="0%" stop-color="#6c8c53" />
      <stop offset="42%" stop-color="#d5c487" />
      <stop offset="72%" stop-color="#b88b5f" />
      <stop offset="100%" stop-color="#f1f5ee" />
    </linearGradient>
    <filter id="softShadow" x="-10%" y="-10%" width="120%" height="120%">
      <feDropShadow dx="0" dy="10" stdDeviation="12" flood-color="#0f172a" flood-opacity="0.16" />
    </filter>
    <style>
      .neighbor { fill: #ffffff; stroke: #94a3b8; stroke-width: 1.2; opacity: 0.72; }
      .country { fill: url(#terrain); stroke: #1f2937; stroke-width: 4; filter: url(#softShadow); }
      .admin1 { fill: none; stroke: #64748b; stroke-width: 1.1; stroke-dasharray: 6 7; opacity: 0.75; }
      .river { fill: none; stroke: #1d9bd1; stroke-width: 3; stroke-linecap: round; opacity: 0.88; }
      .lake { fill: #8ed1ea; stroke: #0ea5e9; stroke-width: 1.5; opacity: 0.8; }
      .city circle { fill: #ef4444; stroke: #ffffff; stroke-width: 2; }
      .city text, .terrain-label { fill: #172033; font: 700 24px system-ui, sans-serif; paint-order: stroke; stroke: #ffffff; stroke-width: 5; stroke-linejoin: round; }
      .map-title { fill: #0f172a; font: 800 46px system-ui, sans-serif; }
      .map-subtitle { fill: #475569; font: 600 24px system-ui, sans-serif; }
      .footer { fill: #64748b; font: 500 18px system-ui, sans-serif; }
    </style>
  </defs>
  <rect width="100%" height="100%" fill="#d8edf0" />
  <rect x="40" y="40" width="1520" height="1020" rx="32" fill="#ffffff" opacity="0.54" />
  <path class="neighbor" d="M 28186.3 -3317.5 L 28391 -3384.5 L 28391 -3274.7 L 28214.9 -3266.5 L 28186.3 -3317.5 Z M 7364.7 650 L 7291.5 745.2 L 7135.8 771.7 L 6976.1 937.5 L 7122.1 1090 L 7106.3 1198.2 L 7281.7 1387.3 L 7281.7 1387.4 L 7185.8 1452.1 L 7158.2 1493 L 7087.2 1482 L 6976.8 1384.4 L 6931.6 1379 L 6830.7 1341.8 L 6781.5 1275.9 L 6631.7 1242.3 L 6534.3 1267.5 L 6506.1 1237.6 L 6287.4 1160.6 L 6050.9 1134.6 L 5915.2 1107.2 L 5895.6 1126.1 L 5690.8 990.4 L 5507.5 929.8 L 5368.8 835.5 L 5485.7 809.8 L 5619 675.4 L 5529.1 611.9 L 5765.9 546.3 L 5761.6 511.2 L 5617.4 537.1 L 5622.5 465.7 L 5705.3 420.9 L 5860.8 409.1 L 5886 355.5 L 5850.5 267 L 5915.8 182.9 L 5913.9 135.7 L 5677.1 83.4 L 5583.2 85.2 L 5484.1 9.9 L 5360.9 35.4 L 5156.8 -21.1 L 5160.3 -52.7 L 5103.2 -122.4 L 4975.1 -130.1 L 4961.8 -180 L 5001.9 -212.5 L 4899.3 -303.5 L 4732.7 -288 L 4683.9 -296 L 4643.4 -259.5 L 4583.4 -266 L 4583.4 -266 L 4543.9 -368.8 L 4506.1 -422.2 L 4537.1 -437.2 L 4666.7 -431.6 L 4729.2 -466.7 L 4682.9 -509.6 L 4574.6 -537.8 L 4584.2 -566.8 L 4518.9 -596.1 L 4418.2 -701.3 L 4452.6 -744.6 L 4436.9 -820 L 4279.8 -858.4 L 4195.5 -839.2 L 4172.7 -879.1 L 4003.6 -919.3 L 3952 -1014.1 L 3938.3 -1092 L 3860.9 -1129 L 3929.7 -1180 L 3882.1 -1329.8 L 3996.4 -1422.4 L 3972.2 -1450.4 L 3972.2 -1450.4 L 4154.8 -1539.2 L 3986.5 -1615.6 L 3986.5 -1615.6 L 4330.4 -1820.6 L 4479.6 -1913.4 L 4540 -1995.3 L 4302.3 -2105.4 L 4367.9 -2210.1 L 4223.3 -2329.6 L 4331.5 -2467.3 L 4144.6 -2650.2 L 4292.9 -2771.3 L 4046.9 -2878.3 L 4070.3 -2990.8 L 4200 -3005.6 L 4473.4 -3070 L 4473.4 -3070 L 4639.1 -3125.9 L 4902.9 -3028.8 L 5342.8 -2990.6 L 5949.8 -2808.9 L 6073 -2732.5 L 6083.7 -2625.6 L 5905.3 -2541.2 L 5643 -2498.4 L 4926 -2620.5 L 4808 -2600.1 L 5069.9 -2482.4 L 5080.1 -2407.9 L 5090.6 -2243.8 L 5297.4 -2194.8 L 5422.9 -2153.1 L 5443.7 -2231 L 5346.9 -2300 L 5449.2 -2360.8 L 5837.5 -2260.9 L 5972.8 -2300 L 5864.7 -2417.6 L 6239 -2575 L 6387.3 -2565.7 L 6537.2 -2509.6 L 6630.8 -2620 L 6496.9 -2715.7 L 6575.5 -2811.8 L 6457.4 -2911.4 L 6906.7 -2859.9 L 6998.5 -2769.9 L 6795.1 -2750.1 L 6796.2 -2660.7 L 6922.7 -2605.7 L 7170.8 -2640.6 L 7210.1 -2743 L 7545.7 -2819.5 L 8106.2 -2957.5 L 8227.4 -2949.5 L 8069 -2852.1 L 8268.3 -2835.3 L 8383.4 -2890.2 L 8684.4 -2894.6 L 8923 -2961.2 L 9106 -2864.5 L 9288.5 -2970.8 L 9120.2 -3063.9 L 9203.7 -3116.9 L 9678.2 -3068.3 L 9900.6 -3018.1 L 10482.7 -2834.6 L 10590.1 -2918.6 L 10426.9 -3003.6 L 10422.2 -3037.6 L 10228.6 -3053.4 L 10281.5 -3129.5 L 10195.6 -3254.9 L 10190.8 -3306.3 L 10487.2 -3451.7 L 10592.6 -3597.7 L 10712.1 -3629.3 L 11137.3 -3587 L 11170.8 -3497.6 L 11018.6 -3367.3 L 11118.5 -3316.1 L 11170.2 -3203.8 L 11133.7 -2983.7 L 11310.9 -2885.3 L 11241.9 -2778 L 10927.3 -2549.9 L 11110.9 -2526.2 L 11174.8 -2584 L 11351.5 -2625.3 L 11394.2 -2704.8 L 11533.2 -2781.3 L 11439.6 -2872.6 L 11514.5 -2978.6 L 11338.9 -2991.8 L 11300.3 -3081.2 L 11428.4 -3242.5 L 11219.8 -3373.5 L 11507.3 -3481.7 L 11470.1 -3595.9 L 11550.2 -3599.6 L 11634.6 -3510.5 L 11571.3 -3355.5 L 11743.2 -3326.2 L 11669.9 -3442 L 11938.7 -3505.2 L 12272.1 -3513.7 L 12568.9 -3422.1 L 12426.1 -3555.9 L 12410.1 -3727 L 12689.4 -3759.4 L 13075.8 -3752.3 L 13423.9 -3773.4 L 13293.3 -3857.4 L 13479.2 -3962.8 L 13663.8 -3967.3 L 13976.1 -4046.9 L 14400.2 -4068.4 L 14453.8 -4112.4 L 14875.6 -4127.3 L 15007 -4091.2 L 15367.5 -4176.6 L 15662.6 -4173.9 L 15706.9 -4243.2 L 15860.4 -4311.6 L 16239.6 -4377.5 L 16515.1 -4325.5 L 16296.4 -4285.9 L 16660.2 -4261.3 L 16703.6 -4181.9 L 16850.3 -4221 L 17319.9 -4218.8 L 17682 -4140.5 L 17811 -4080.3 L 17771 -3996.8 L 17593.3 -3949.3 L 17171.2 -3860.1 L 17050.5 -3812.4 L 17249.7 -3789.9 L 17487.3 -3749.4 L 17631.9 -3779.8 L 17713.9 -3676.7 L 17784.4 -3718.4 L 18041.3 -3743.8 L 18556.6 -3717.3 L 18595.8 -3642.2 L 19267.3 -3618.3 L 19276.5 -3741 L 19617.4 -3712.8 L 19873.8 -3713.7 L 20133.2 -3629.1 L 20207.2 -3526.3 L 20112.1 -3459 L 20313.9 -3332.6 L 20566.5 -3267.4 L 20721.5 -3436 L 20979.2 -3363.7 L 21252.9 -3406.9 L 21563.8 -3357.5 L 21682.1 -3402.5 L 21944.9 -3380 L 21828.9 -3529.1 L 22041 -3598.7 L 23491.8 -3494.4 L 23628.5 -3399 L 24049 -3276.3 L 24697.6 -3306.7 L 25017.4 -3280.2 L 25151.2 -3213.8 L 25131.6 -3096.3 L 25329.5 -3050.6 L 25544.5 -3083.5 L 25829.4 -3087.7 L 26132.6 -3056.2 L 26437.1 -3074 L 26716.9 -2931.2 L 26915.9 -2982.6 L 26786 -3085.2 L 26857.5 -3156.6 L 27370 -3111.7 L 27704.2 -3121.3 L 28166.1 -3044.6 L 28391 -2974.5 L 28391 -2334.6 L 28389.9 -2333.7 L 28183.4 -2263.1 L 27975.2 -2274.9 L 28120 -2189.4 L 28215.6 -2057.1 L 28289.9 -2013.8 L 28308.5 -1947.3 L 28267 -1904.8 L 27967.6 -1939.8 L 27518.7 -1818.9 L 27375.9 -1800.2 L 27130.1 -1687.3 L 26896.9 -1588.7 L 26837.9 -1515.7 L 26608.1 -1626.8 L 26189.6 -1500.7 L 26116.5 -1560.4 L 25961.8 -1491.6 L 25746.9 -1513.6 L 25695.2 -1408 L 25502.5 -1252.5 L 25508.2 -1187.6 L 25691.1 -1151.6 L 25669.6 -917.8 L 25520.5 -911.8 L 25451.7 -777.4 L 25518.5 -708.3 L 25237.6 -626.2 L 25181.9 -442.8 L 24942.4 -403.6 L 24894.3 -240.4 L 24662.8 -90.8 L 24603.4 -201.5 L 24534.6 -435.8 L 24444.9 -792.7 L 24522.1 -1015.5 L 24657.7 -1111.4 L 24666.1 -1186.5 L 24915.7 -1222.4 L 25202.6 -1424.6 L 25479.1 -1589.8 L 25767.9 -1718 L 25897 -1944.4 L 25701.8 -1930.9 L 25605.4 -1798.5 L 25197.9 -1622.1 L 25066.3 -1819.6 L 24651.7 -1765.1 L 24249.7 -1495.8 L 24382.3 -1397.3 L 24023.8 -1355.4 L 23775.4 -1338.9 L 23787.1 -1455 L 23537.4 -1479.4 L 23338.4 -1400.5 L 22847.2 -1428.1 L 22318.8 -1380.5 L 21798.5 -1066.9 L 21182.9 -688.1 L 21436 -667.9 L 21515 -567.3 L 21671 -531.6 L 21773.8 -611.8 L 21950 -601.4 L 22181.9 -424.7 L 22187.4 -288 L 22061.8 -127.5 L 22048.2 64.3 L 21975.8 321.1 L 21733.7 553.6 L 21679.8 664.7 L 21461.8 851.7 L 21245.4 1037.2 L 21141.7 1132.1 L 20927.6 1226.3 L 20826.3 1228.4 L 20725.4 1150.3 L 20509.8 1267.9 L 20484.8 1321.3 L 20484.8 1321.3 L 20484.8 1321.3 L 20484.8 1321.3 L 20462.3 1293.2 L 20462.3 1293.2 L 20461.3 1211.6 L 20543.4 1207.3 L 20566.5 1017.5 L 20524.2 879.9 L 20662 823.2 L 20857 851.6 L 20965 695.3 L 21020.1 519.4 L 21082.5 460.6 L 21166.9 316.1 L 20901.4 363.4 L 20762.2 426.8 L 20518.1 426.6 L 20453 275.7 L 20262.8 161.5 L 19983.2 110.1 L 19923.8 -47.2 L 19867.8 -145.9 L 19807.6 -215 L 19708.4 -377 L 19567.3 -436.2 L 19326.9 -484 L 19113.9 -479.6 L 18914.3 -450.7 L 18781.7 -370.7 L 18869.8 -332.6 L 18871.8 -243.9 L 18782.5 -192.4 L 18637.5 -22 L 18638.9 48.7 L 18412.5 150.2 L 18219.7 89.5 L 18028.1 102.9 L 17944 49.1 L 17847.6 31.7 L 17612.4 144.9 L 17400.9 171.5 L 17253.2 211.3 L 17050.9 185.2 L 16902 186.9 L 16804.5 104.7 L 16647.2 27.5 L 16486.2 6.4 L 16283 27.4 L 16131.2 57.2 L 15903 -10.4 L 15872.3 -130.8 L 15683.5 -172 L 15537.7 -190.9 L 15357.7 -257.3 L 15191.3 -90.8 L 15256.6 3.8 L 15100.4 115.6 L 14868.2 75.2 L 14707.9 69.5 L 14600.5 -5.6 L 14432.9 -8 L 14293.3 -57.2 L 14048.9 18.3 L 13742.4 156.7 L 13573.1 184.5 L 13510.2 197.7 L 13425 99.4 L 13218.1 120.9 L 13149.7 52.8 L 13037.4 21.6 L 12960.1 -71.2 L 12871.4 -100.1 L 12640.6 -58.9 L 12419.3 -151.4 L 12333.7 -67.3 L 11974.8 -475.2 L 11769.8 -599.3 L 11828.6 -649.7 L 11426 -498.1 L 11272 -489 L 11285.3 -576.6 L 11079 -631.4 L 10911.3 -592.3 L 10860.7 -758.8 L 10572 -793.4 L 10427.6 -726.8 L 10025.7 -667.5 L 9947.2 -627.8 L 9346.2 -571.9 L 9272.5 -517.1 L 9388.5 -407.1 L 9234.3 -365.3 L 9264.3 -321.5 L 9110.2 -243.3 L 9370.5 -132.8 L 9330.2 -56.7 L 9104.6 -63.7 L 9057.9 -16 L 8852.5 -99.2 L 8597.8 -96 L 8427.4 -28.3 L 8237.2 -93.2 L 7883.2 -204.5 L 7632.2 -200.3 L 7300.7 -25.6 L 7280.7 91.7 L 7115.5 -1.4 L 6987.3 175.1 L 7034.2 207.8 L 6941.5 329.6 L 7077.8 438.5 L 7197 434 L 7299.4 541.4 L 7283.1 624 L 7364.7 650 Z M 14541.1 -4911.9 L 14888.6 -4948.1 L 15200.7 -4867.3 L 15570.6 -4712 L 15530.9 -4567.5 L 15180.5 -4547.5 L 14733 -4593.9 L 14466.4 -4655.2 L 14343.2 -4770.4 L 14124 -4802.1 L 14541.1 -4911.9 Z M 15996.4 -4631.8 L 16403.6 -4540.6 L 16355.9 -4475.3 L 15450.3 -4413.3 L 15743.8 -4624.3 L 15875.7 -4642.3 L 15996.4 -4631.8 Z M 21778 -4126.7 L 22202.2 -4119.7 L 22782.8 -4034.5 L 22656.5 -3915.2 L 22064.4 -3919.7 L 21798 -3881.7 L 21479.8 -3986.2 L 21566.1 -4096.6 L 21778 -4126.7 Z M 23286.5 -3999.7 L 23689.6 -3957.6 L 23504 -3894.2 L 23247.2 -3908.5 L 22948.7 -3971.9 L 22987.2 -4023.9 L 23286.5 -3999.7 Z M 21943.8 -3682.3 L 22096.2 -3745.8 L 22297 -3760.6 L 22525.3 -3699.2 L 22544.7 -3657 L 22301.1 -3655.9 L 21971.9 -3673.8 L 21943.8 -3682.3 Z M 6681.4 -4842 L 6994.9 -4871.3 L 7239 -4873.2 L 7271.8 -4830 L 7364.1 -4868.4 L 7515.5 -4894.9 L 7753.7 -4859.7 L 7691.6 -4835.2 L 7476 -4814 L 7331.5 -4801.8 L 7309.1 -4775.5 L 7121.4 -4748.9 L 6947.3 -4787 L 7038.8 -4837.2 L 6681.4 -4842 Z M 3128.9 -623.5 L 2833.5 -621.1 L 2635.7 -639.4 L 2672.3 -710 L 2893.9 -762.1 L 3062.2 -734 L 3133.2 -708.5 L 3116 -664.5 L 3128.9 -623.5 Z M 8072.6 -3743.3 L 8457.2 -3884.3 L 8413.8 -3957.2 L 8773 -4042 L 9303.3 -4145.2 L 9838 -4175.3 L 10113.1 -4234.9 L 10425.7 -4255.7 L 10537.3 -4192.3 L 10429.4 -4142.3 L 9860.3 -4062.7 L 9369.8 -3986.1 L 8870.8 -3833.2 L 8631.4 -3676.4 L 8379.6 -3521.9 L 8412.3 -3388.5 L 8719.6 -3256.7 L 8624.7 -3242.6 L 8099.8 -3263.5 L 8057.2 -3334.8 L 7766.4 -3377.9 L 7742.9 -3464.6 L 7907.2 -3499.1 L 7901.7 -3586.7 L 8220.3 -3723.7 L 8072.6 -3743.3 Z M 22434 -523.5 L 22489.6 -368.6 L 22485.5 -210.6 L 22551.8 -48.5 L 22713.4 236 L 22475.6 183 L 22376.8 415.1 L 22533.4 579.7 L 22528.9 692 L 22407.2 595.1 L 22301.9 719.5 L 22272.1 584.7 L 22290 428.2 L 22271.7 254.9 L 22308.9 133.4 L 22316 -81.4 L 22221.9 -239.3 L 22236.1 -458.8 L 22384.6 -532.7 L 22320.8 -607.1 L 22392.2 -629.7 L 22434 -523.5 Z M -28621.2 -2692.2 L -28635 -2592.3 L -28526.6 -2552.4 L -28563.9 -2669.1 L -28127.9 -2645.1 L -27813.4 -2494.8 L -27972.7 -2424.8 L -28236 -2408.2 L -28239.9 -2251.2 L -28304.3 -2217.8 L -28454.7 -2222.6 L -28577.1 -2278.6 L -28790.7 -2325.5 L -28826.6 -2395.1 L -28989.7 -2421.4 L -29172.4 -2400.6 L -29259.7 -2456.8 L -29224.8 -2516.5 L -29417.2 -2478.3 L -29344.7 -2402.8 L -29435.8 -2334.6 L -29435.8 -2974.5 L -29042.3 -2851.9 L -28621.2 -2692.2 Z M -29226 -3284.4 L -29435.8 -3274.7 L -29435.8 -3384.5 L -29415.3 -3391.2 L -29279.1 -3390.9 L -29046.8 -3344.9 L -29060.5 -3323 L -29226 -3284.4 Z M 4848.4 718.6 L 4890.7 678.9 L 5004.9 713.3 L 5056.6 719.6 L 5077.4 751.4 L 5101.7 756.3 L 5103 770.2 L 5181.6 808.9 L 5345.4 799.3 L 5314 856.6 L 5138.2 884.4 L 4920.1 977.3 L 4830.8 944.7 L 4866.2 869.2 L 4690.7 822.2 L 4719.1 791.4 L 4872.9 738 L 4848.4 718.6 Z" />
<path class="neighbor" d="M -8820.2 7435.5 L -8915.2 7582.5 L -8964.6 7700.8 L -9026.1 7761.8 L -9103 7773.3 L -9124.9 7728.1 L -9160.9 7721.3 L -9210.6 7764.9 L -9280.7 7731.8 L -9239.8 7664.2 L -9225.6 7590.7 L -9197.6 7521.6 L -9260.6 7426.4 L -9273.3 7316.5 L -9189.7 7178.4 L -9135.2 7196.1 L -9016.9 7234.1 L -8846.8 7369.7 L -8820.2 7435.5 Z M 471.3 157.7 L 547.1 199.8 L 778.6 229.4 L 697.4 339.4 L 677 453.8 L 632.9 481.3 L 559.7 466.5 L 564.8 507.3 L 447.4 597.5 L 445 670.3 L 521.7 645.1 L 576.9 715.6 L 570.3 760.9 L 617.5 821.3 L 561.8 870.2 L 603.2 994.5 L 690.3 1014.8 L 671.9 1084.6 L 526.4 1175.3 L 209.6 1131.8 L -24.4 1183.9 L -42.8 1280.7 L -229 1301.5 L -409.7 1228.8 L -468.1 1263.6 L -763.8 1190.6 L -827.8 1128.1 L -744.8 1031.8 L -714.2 711.7 L -879.9 543.2 L -998.4 461.9 L -1243.9 400.1 L -1260.1 283 L -1051.8 248 L -782.1 289.4 L -833 107.5 L -681.4 176.4 L -307.4 51.2 L -259.1 -80.4 L -118.7 -112.9 L -95.4 -56.4 L -20.7 -53.7 L 54 10.7 L 166.1 86.5 L 248.5 74 L 389 147.2 L 424.9 161.1 L 471.3 157.7 Z M 882.5 1255.8 L 985.9 1194.4 L 1013.2 1332.2 L 960.2 1456.2 L 887.2 1423.5 L 850 1315.4 L 882.5 1255.8 Z" />
<path class="neighbor" d="M 2205 373 L 2192.8 438.7 L 2102.4 439 L 2133.5 473.8 L 2080.2 577.2 L 2049.5 604.3 L 1909.1 608.3 L 1828 644.8 L 1695.3 632.3 L 1465.6 590.8 L 1429.7 535 L 1271 562.9 L 1252.3 593.4 L 1155 570.6 L 1073 566.2 L 1000.4 537 L 1024.9 497.7 L 1018.7 469.2 L 1067.2 460.3 L 1148.5 504.9 L 1171.4 462.5 L 1313 469.4 L 1427.9 440.6 L 1504.9 445.5 L 1555 478.4 L 1569.9 451.1 L 1547.2 346.4 L 1604.9 326 L 1661.5 252 L 1780.8 303.7 L 1871.2 238 L 1927.7 226 L 2052.4 275 L 2127.9 266.6 L 2201.9 297 L 2189 317.4 L 2205 373 Z" />
<path class="neighbor" d="M 1745.6 -531.9 L 1783.2 -450.1 L 1738.4 -407.3 L 1796.7 -350 L 1836.4 -264.1 L 1823.9 -208.7 L 1889.8 -106.2 L 1818.1 -89.4 L 1775.7 -107.9 L 1735.4 -77.3 L 1620.1 -46.2 L 1560.5 -6.1 L 1443.7 28.8 L 1471.8 76.6 L 1488.8 144.3 L 1570.8 182.9 L 1661.5 252 L 1604.9 326 L 1547.2 346.4 L 1569.9 451.1 L 1555 478.4 L 1504.9 445.5 L 1427.9 440.6 L 1313 469.4 L 1171.4 462.5 L 1148.5 504.9 L 1067.2 460.3 L 1018.7 469.2 L 846.6 420 L 813.6 454.9 L 677 453.8 L 697.4 339.4 L 778.6 229.4 L 547.1 199.8 L 471.3 157.7 L 480.4 87.3 L 448.3 51 L 466.5 -57.5 L 439.5 -225.8 L 536 -225.9 L 576.8 -286.3 L 616.8 -433.4 L 586.8 -487.7 L 618.1 -521.7 L 752.4 -530.5 L 782.2 -495.1 L 891.3 -574.3 L 854.5 -634.5 L 847.2 -725.6 L 968.6 -704.4 L 1071.3 -728.8 L 1074.2 -666.8 L 1236.5 -629.3 L 1234.8 -572.3 L 1398.1 -602.5 L 1488.4 -646.5 L 1669.8 -583 L 1745.6 -531.9 Z" />
<path class="neighbor" d="M 1155 570.6 L 1252.3 593.4 L 1271 562.9 L 1429.7 535 L 1465.6 590.8 L 1695.3 632.3 L 1677.9 711.4 L 1716.4 779.8 L 1588.5 756.4 L 1457.9 813.4 L 1466.8 893.2 L 1447.1 938.9 L 1499.8 1020.7 L 1650.4 1101.6 L 1731.2 1234.4 L 1909.9 1363.9 L 2035.8 1362.9 L 2075 1398.4 L 2029.9 1430.4 L 2173.8 1488.4 L 2291.7 1537 L 2429.4 1620.8 L 2446.1 1650.8 L 2416.1 1708.3 L 2326.9 1633.3 L 2187.4 1606.9 L 2119.8 1710.8 L 2235.8 1770.3 L 2216.8 1854.1 L 2149.7 1863.7 L 2063.9 2001.4 L 1996.9 2013.8 L 1997.5 1964.7 L 2030.3 1878.5 L 2065.2 1844.2 L 2002.5 1751.1 L 1953.5 1670.1 L 1886.8 1650.1 L 1839.4 1580.8 L 1736.2 1551.6 L 1666.7 1487 L 1547.8 1476.6 L 1422.3 1404.1 L 1275.3 1299.6 L 1166.1 1207 L 1116 1048.2 L 1036.1 1029.6 L 905.4 976.5 L 831.5 998.2 L 738.7 1072.8 L 671.9 1084.6 L 690.3 1014.8 L 603.2 994.5 L 561.8 870.2 L 617.5 821.3 L 570.3 760.9 L 576.9 715.6 L 646 750 L 723.4 742.3 L 813.5 687.8 L 841.3 713.3 L 917.8 708.2 L 952.6 643.4 L 1071.5 663.5 L 1142.3 636.5 L 1155 570.6 Z M 1848.7 1976.1 L 1970.6 1962 L 1912.8 2088.5 L 1936.8 2138.2 L 1903.1 2220.8 L 1780.3 2160.3 L 1698.6 2143 L 1474.4 2061.3 L 1496.9 1978.9 L 1684.8 1993.6 L 1848.7 1976.1 Z M 876.7 1533.3 L 957 1483.5 L 1053.4 1597.6 L 1030.8 1810 L 957.8 1799.9 L 892.2 1853.5 L 831.4 1810.9 L 825 1617.1 L 788.3 1525.3 L 876.7 1533.3 Z" />
<path class="neighbor" d="M 1889.8 -106.2 L 1965.9 -54.4 L 2086 -40.5 L 2076 3.7 L 2163.2 37 L 2187.2 -4.5 L 2297.4 13.4 L 2312.6 63.7 L 2432 73.4 L 2506 152.5 L 2458.1 152.7 L 2433.2 181.6 L 2396.3 188.6 L 2385.8 225.2 L 2355 232.8 L 2350.7 247.7 L 2295.8 264.4 L 2224.7 261.6 L 2201.9 297 L 2127.9 266.6 L 2052.4 275 L 1927.7 226 L 1871.2 238 L 1780.8 303.7 L 1661.5 252 L 1570.8 182.9 L 1488.8 144.3 L 1471.8 76.6 L 1443.7 28.8 L 1560.5 -6.1 L 1620.1 -46.2 L 1735.4 -77.3 L 1775.7 -107.9 L 1818.1 -89.4 L 1889.8 -106.2 Z" />
<path class="lake" d="M 581.7 644.7 L 580.5 649.5 L 577.1 652.3 L 548.2 649.5 L 516.7 651.7 L 495.4 656.2 L 466.6 681.2 L 462.8 681.3 L 466.8 665.5 L 496.6 640.6 L 535.8 629.2 L 572.9 639.3 L 581.7 644.7 L 581.7 644.7 L 581.7 644.7 Z" />
<path class="lake" d="M 1040.6 468.9 L 1038.7 470.8 L 1033.4 472.2 L 1012.3 471.4 L 995.9 470.9 L 963.5 457.4 L 952.6 445.8 L 941.4 429.5 L 944.5 427.9 L 960.3 435.7 L 983.2 444.8 L 1005.8 453.1 L 1026.7 462.5 L 1040.6 468.9 L 1040.6 468.9 L 1040.6 468.9 L 1040.6 468.9 Z" />
<path class="lake" d="M 943.7 445.8 L 943.7 445.8 L 943.7 445.8 L 904.2 448.1 L 915 443.3 L 920.2 440.7 L 919.5 436.3 L 923.1 432.7 L 938.3 438.5 L 943.7 445.8 Z" />
<path class="country" d="M 1018.7 469.2 L 1024.9 497.7 L 1000.4 537 L 1073 566.2 L 1155 570.6 L 1142.3 636.5 L 1071.5 663.5 L 952.6 643.4 L 917.8 708.2 L 841.3 713.3 L 813.5 687.8 L 723.4 742.3 L 646 750 L 576.9 715.6 L 521.7 645.1 L 445 670.3 L 447.4 597.5 L 564.8 507.3 L 559.7 466.5 L 632.9 481.3 L 677 453.8 L 813.6 454.9 L 846.6 420 L 1018.7 469.2 Z" />

<path class="river" d="M 943.7 445.8 L 904.2 448.1 M 952.6 445.8 L 1012.3 471.4" />
<path class="river" d="M 462.8 681.3 L 479.1 660.7 L 493.1 650.9 L 510.3 645 L 534.3 643.9 L 580.5 649.4" />
<path class="river" d="M 797.9 385.3 L 841.3 404 L 874.4 403.1 L 896.9 396.7 L 919.8 384.4 L 944.4 379 L 970.7 380.4 L 990.9 374.2 L 1005 360.4 L 1017.8 353.7 L 1029.4 354.2 L 1049.2 346.4 L 1077.3 330.5 L 1104.3 320.1 L 1130.3 315.3 L 1145.7 309.9 L 1150.5 304.1 L 1168 295.4 L 1198.2 283.7 L 1248.6 274.8 L 1354.3 265.3 L 1367.6 253 L 1381.1 247.3 L 1399.4 244.3 L 1409 239 L 1410.4 227.8 L 1444.1 229.3 L 1463.1 233.5 L 1486.5 244.5 M 2241.5 383.1 L 2234.9 374 L 2226.1 369.3 L 2212.9 366 L 2188.7 365.3 L 2153.5 367.1 L 2125.8 358.7 L 2105.6 340.3 L 2081.3 331.9 L 2053.1 333.6 L 2025.4 331.9 L 1998.3 326.8 L 1979.1 324.8 L 1967.7 325.9 L 1956.3 333.3 L 1944.8 346.9 L 1929.6 356.1 L 1910.6 361 L 1892.8 361.1 L 1876.1 356.3 L 1859.5 356.4 L 1843.1 361.2 L 1820.1 357.7 L 1790.6 346 L 1765.5 340.1 L 1744.7 340 L 1732.3 336.3 L 1728.4 328.8 L 1705.8 318.7 L 1643.9 299.4 L 1616.6 296.1 L 1597.9 290.6 L 1578.8 281.9 L 1566.5 272.8 L 1561.2 263.3 L 1551.1 258.6 L 1536.3 258.6 L 1518.3 254.8 L 1486.5 243.3" />
<path class="river" d="M 619.7 922 L 654.3 928.6 L 670 925 L 682.6 907.8 L 701.5 899 L 708.8 886.8 L 710.8 868.2 L 719.4 854 L 734.4 844.3 L 758.8 839.5 L 792.4 839.6 L 820.5 842.8 L 842.9 848.9 L 858.1 856.7 L 866.1 866.1 L 892.4 866.1 L 959.3 852.2 L 997.5 858.8 L 1004.4 859.8 L 1011.5 856.2 L 1020.8 854 L 1028 856.4 L 1035.5 860.9 L 1040.9 861.5 L 1044.4 858.1 L 1048.8 858.2 L 1054.4 862 L 1059.1 861.2 L 1063.1 855.9 L 1069.2 853.5 L 1077.5 853.9 L 1085.1 857.8 L 1092 865.1 L 1108.5 870.6 L 1134.8 874.3 L 1152.9 879.2 L 1162.7 885.2 L 1173.3 886.3 L 1184.7 882.3 L 1190.9 877 L 1191.7 870.2 L 1202.7 865.6 L 1223.7 863.2 L 1247.8 862.7 L 1274.8 864.4 L 1294.7 870.1 L 1307.5 879.9 L 1321.5 886.5 L 1336.8 889.9 L 1354.4 888 L 1384.2 877.1 L 1418.8 871.6 L 1437.1 872.7 L 1450.6 878.6 L 1465.7 881.1 L 1489.2 879.9" />
<path class="river" d="M 883.2 605.5 L 930.6 592.4 L 990 580.1 M 988.9 580.1 L 1006.3 568.5 L 1009 559.4 L 1002.9 549.1 L 1000.3 537.8 L 1001.1 525.8 L 1008 510 L 1021.1 490.6 L 1023.8 478.5 L 1012.3 471.4 M 943.7 445.8 L 952.6 445.8" />
<path class="river" d="M 904.2 448.1 L 875.1 443.3 L 862.2 447.1 L 855.7 458 L 840.1 460.9 L 815.3 456 L 794.5 456 L 777.7 460.9 L 750.9 462.9 L 714.1 462 L 692.8 456.1 L 687 445.3 L 688.5 429.2 L 697.3 408 L 699.7 392.5 L 695.8 382.5 L 701 367.7 L 715.4 347.9 L 724.9 327 L 729.7 305 L 736.6 290.7 L 750.2 280.7 L 799.6 237.8" />
<path class="river" d="M 799.6 237.8 L 829.7 197.9 L 840.7 179.2 L 842.7 168.4 L 841.2 162.2 L 836.2 160.5 L 830.4 151.1 L 823.8 134.1 L 825.2 121.4 L 831.9 115.2 L 832.8 109 L 827.1 101.3 L 820 85.8 L 811.6 74.7 L 801.7 67.9 L 783.4 67.4 L 756.5 73.1 L 731 64.8 L 707 42.6 L 699.5 35.9 L 700.2 28.8 L 703 19.6 L 699.6 12.7 L 691.4 7.3 L 673.3 2.1 L 657.2 -6.4 L 643.2 -18.2 L 634.7 -28.2 L 631.6 -36.5 L 622.1 -46.3 L 606.1 -57.6 L 601.1 -65.3 L 601.1 -73.6 L 597.7 -79.1 L 596.9 -88.7 L 592 -95.5 L 582.9 -99.3 L 578.1 -104.6 L 577.5 -111.3 L 572.5 -116.1 L 563 -119.1 L 563.4 -125.5 L 560.4 -132.1 L 552.1 -137.7 L 553.5 -147.6 L 555 -156.8 L 553.4 -162.6 L 552.8 -167.2 L 551.8 -173.3 L 541.6 -178.9 L 536.6 -184.1 L 537.1 -191.4 L 498.7 -213.5 L 475.4 -223.5 L 454.2 -228.6 L 447.6 -229.1 L 437.4 -229.9 L 425 -227.1 L 406.1 -227.7 L 380.7 -231.7 L 359.7 -230 L 343.2 -222.8 L 320.8 -219.7 L 278.4 -221.3" />
<path class="river" d="M 219.3 1082 L 202.7 1083.2 L 195 1086.3 L 190.8 1091.6 L 190.1 1095.3 L 191.4 1097.5 L 189.8 1101.1 L 181 1106 L 179.7 1111.2 L 185.9 1124.2 M 462.8 681.3 L 425.7 694.4 L 411.6 712 L 408.1 738.3 L 400.7 756.4 L 389.4 766.1 L 372.8 761.6 L 350.9 742.8 L 336.9 738.8 L 326.5 744.3 L 311.4 746.4 L 290.1 743.5 L 273 745 L 260 750.9 L 252.4 760.3 L 250.1 773.1 L 251.7 781.3 L 257.1 784.7 L 255.3 792.4 L 246 804.2 L 247 828.4 L 258 864.7 L 258.9 889.1 L 249.6 901.4 L 245.5 913.1 L 246.4 924.1 L 244.2 933 L 236 943.3 L 228.3 979.2 L 228.6 998.7 L 234.3 1014 L 242.1 1024.1 L 251.9 1028.9 L 255.6 1033.4 L 251.9 1039.7 L 231 1050.4 L 222.5 1063.1 L 219.6 1081.2 L 221.5 1093.4 L 231.7 1103 L 236.3 1107.1 L 238.2 1114.5 L 239.5 1124 L 246.6 1131.5 M 802.9 636.7 L 773.6 654 L 755.4 660.4 L 730.3 662 L 706.9 661.7 L 677.7 669.6 L 634.9 685.5 L 616.3 689.8 L 605.3 682.5 L 580.5 649.5" />
<path class="river" d="M 233.8 460.7 L 214 434.7 L 209 423 L 212.4 416.9 L 210.9 410.3 L 201.4 399.6 L 185.7 379.7 L 171.8 369.5 L 154.4 362.4 L 135.5 347.3 L 115.2 324.2 L 97.3 309.9 L 82.1 304.3 L 49.6 308.4 L -0.1 322.2 L -34.4 329.7 L -53.1 331 L -69.6 327.1 L -90.8 313.8 L -109.1 307.2 L -120.9 299.5 L -132.5 288.4 L -136.2 280.5 L -132 275.9 L -132.1 269.9 L -136.3 262.6 L -144.6 258.9 L -153.6 256 L -157.8 252.3 L -161 247 L -166.3 246.4 L -173.3 247.6 L -178 243.8 L -179.1 240.6 L -183.3 239 L -191.3 239.6 L -199.8 238.6 L -205 232.9 L -216 231.3 L -232.7 233.8 L -246.4 233.6 L -253.4 229.4 L -254.5 224.7 L -259.8 222.5 L -267.8 223.9 L -282 218.7 L -298.1 206.6 L -305 198.3 L -311.3 197 L -317 198.1 L -322.5 196.8 L -323.5 193 L -325.1 186.9 L -331.5 183 L -346.9 182.2 L -352.8 179.5 L -354.9 175.3 L -358.1 171 L -366.3 171.5 L -373.1 169.6 L -378.3 164.1 L -385.3 165.6 L -389.4 163.8 L -396.3 156.7 L -407 155.1 L -417.7 158.3 L -428.4 159.4 L -443.2 152.9 L -451.9 156.2" />
<path class="river" d="M -27.1 555.8 L -37 529.5 L -54 507.4 L -57.7 495.1 L -53.8 485.5 L -59.4 473.4 L -74.5 458.8 L -102.5 442.5 L -143.3 424.4 L -177.8 413.5 L -205.8 409.9 L -226 410.1 L -238.3 414.3 L -264.1 430.7 L -303.2 459.2 L -336.4 477.4 L -363.4 485.2 L -391.4 489.9 L -420.4 491.5 L -453.7 498.8 L -489.1 514.3 L -510.3 518.5 L -528.6 513.5 L -557.2 495 L -589.6 488.9 L -639.9 493.9 L -692.1 493.3 L -723 499.5 L -750 512.1 L -772.8 518.8 L -784.6 521.1 L -802.3 518.8 M -27.2 555.9 L -13.5 557.2 L -0.6 561.3 L 12.3 578.2 L 38.1 580.9 L 59.9 595.2 L 75.8 611.6 L 79.8 624.5 L 97.7 632.7 L 117.5 640.2 L 118.5 653.2 L 126.5 675.9 L 136.4 687.5 L 136.4 704 L 125.5 717.8 L 128.4 726.1 L 145.3 737.9 L 154.2 755.2 L 155.2 773.9 L 161.2 798.2 L 152.3 815.6 L 141.3 825.4 L 133.4 836.6 L 112.6 842.9 L 105.6 856.2 L 107.6 868.8 L 104.6 879.3 L 108.6 895.5 L 131.4 905.3 L 147.3 911 L 152.3 903.2" />
<g class="city"><circle cx="955.8767736056174" cy="798.9540466578521" r="5" /><text x="967.8767736056174" y="802.9540466578521">Milan</text></g>
<g class="city"><circle cx="709.301797338155" cy="863.1399233319125" r="5" /><text x="721.301797338155" y="867.1399233319125">Turin</text></g>
<g class="city"><circle cx="253.1234417745152" cy="750.7597036441775" r="5" /><text x="265.1234417745152" y="754.7597036441775">Lyon</text></g>
<g class="city"><circle cx="1336.567797683849" cy="371.68317311042466" r="5" /><text x="1348.567797683849" y="375.68317311042466">Munich</text></g>
<g class="city"><circle cx="463.861030494388" cy="680.395027976793" r="5" /><text x="475.861030494388" y="684.395027976793">Geneva</text></g>
<g class="city"><circle cx="850.664192057541" cy="492.1483896715271" r="5" /><text x="862.664192057541" y="496.1483896715271">Zürich</text></g>
<g class="city"><circle cx="722.4721838368976" cy="299.70834091236145" r="5" /><text x="734.4721838368976" y="303.70834091236145">Strasbourg</text></g>
<g class="city"><circle cx="677.008874475916" cy="566.8817232763483" r="5" /><text x="689.008874475916" y="570.8817232763483">Bern</text></g>
<text class="map-title" x="80" y="105">Switzerland Physical Study Map</text>
<text class="map-subtitle" x="80" y="145">Landmark: The Matterhorn | Study terrain and water systems</text>
  <text class="footer" x="80" y="1036">Made with Natural Earth. Free vector and raster map data @ naturalearthdata.com.</text>
</svg>
