<?xml version="1.0" encoding="UTF-8"?>
<svg xmlns="http://www.w3.org/2000/svg" width="1600" height="1100" viewBox="0 0 1600 1100" role="img" aria-labelledby="title desc">
  <title id="title">Ivory Coast Physical Study Map</title>
  <desc id="desc">Made with Natural Earth. Free vector and raster map data @ naturalearthdata.com.</desc>
  <defs>
    <linearGradient id="terrain" x1="0" x2="1" y1="0" y2="1">
      <stop offset="0%" stop-color="#6c8c53" />
      <stop offset="42%" stop-color="#d5c487" />
      <stop offset="72%" stop-color="#b88b5f" />
      <stop offset="100%" stop-color="#f1f5ee" />
    </linearGradient>
    <filter id="softShadow" x="-10%" y="-10%" width="120%" height="120%">
      <feDropShadow dx="0" dy="10" stdDeviation="12" flood-color="#0f172a" flood-opacity="0.16" />
    </filter>
    <style>
      .neighbor { fill: #ffffff; stroke: #94a3b8; stroke-width: 1.2; opacity: 0.72; }
      .country { fill: url(#terrain); stroke: #1f2937; stroke-width: 4; filter: url(#softShadow); }
      .admin1 { fill: none; stroke: #64748b; stroke-width: 1.1; stroke-dasharray: 6 7; opacity: 0.75; }
      .river { fill: none; stroke: #1d9bd1; stroke-width: 3; stroke-linecap: round; opacity: 0.88; }
      .lake { fill: #8ed1ea; stroke: #0ea5e9; stroke-width: 1.5; opacity: 0.8; }
      .city circle { fill: #ef4444; stroke: #ffffff; stroke-width: 2; }
      .city text, .terrain-label { fill: #172033; font: 700 24px system-ui, sans-serif; paint-order: stroke; stroke: #ffffff; stroke-width: 5; stroke-linejoin: round; }
      .map-title { fill: #0f172a; font: 800 46px system-ui, sans-serif; }
      .map-subtitle { fill: #475569; font: 600 24px system-ui, sans-serif; }
      .footer { fill: #64748b; font: 500 18px system-ui, sans-serif; }
    </style>
  </defs>
  <rect width="100%" height="100%" fill="#d8edf0" />
  <rect x="40" y="40" width="1520" height="1020" rx="32" fill="#ffffff" opacity="0.54" />
  <path class="neighbor" d="M -2626.3 828.5 L -2670.3 896.6 L -2693.2 951.4 L -2721.7 979.6 L -2757.3 984.9 L -2767.4 964 L -2784.1 960.9 L -2807.1 981 L -2839.5 965.7 L -2820.6 934.4 L -2814 900.4 L -2801 868.4 L -2830.2 824.3 L -2836.1 773.5 L -2797.4 709.5 L -2772.2 717.7 L -2717.4 735.3 L -2638.7 798.1 L -2626.3 828.5 Z M 1675.2 -2540.7 L 1710.3 -2521.3 L 1817.4 -2507.6 L 1779.8 -2456.6 L 1770.4 -2403.7 L 1750 -2391 L 1716.1 -2397.8 L 1718.5 -2378.9 L 1664.1 -2337.1 L 1663 -2303.4 L 1698.5 -2315.1 L 1724.1 -2282.5 L 1721 -2261.5 L 1742.9 -2233.5 L 1717.1 -2210.9 L 1736.3 -2153.4 L 1776.6 -2143.9 L 1768.1 -2111.6 L 1700.7 -2069.6 L 1554 -2089.8 L 1445.7 -2065.6 L 1437.2 -2020.9 L 1351 -2011.2 L 1267.3 -2044.9 L 1240.3 -2028.8 L 1103.4 -2062.6 L 1073.7 -2091.5 L 1112.2 -2136.1 L 1126.4 -2284.2 L 1049.6 -2362.3 L 994.8 -2399.9 L 881.1 -2428.5 L 873.6 -2482.7 L 970.1 -2498.9 L 1094.9 -2479.8 L 1071.4 -2564 L 1141.6 -2532.1 L 1314.7 -2590.1 L 1337 -2651 L 1402.1 -2666 L 1412.8 -2639.9 L 1447.4 -2638.6 L 1482 -2608.8 L 1533.9 -2573.7 L 1572 -2579.5 L 1637.1 -2545.6 L 1653.7 -2539.2 L 1675.2 -2540.7 Z M 1865.5 -2032.4 L 1913.4 -2060.8 L 1926.1 -1997 L 1901.5 -1939.6 L 1867.7 -1954.7 L 1850.5 -2004.8 L 1865.5 -2032.4 Z" />
<path class="neighbor" d="M -27.8 126.6 L -58.4 68.7 L -95.5 42.3 L -62.8 28.1 L -26.8 -24.1 L -9.1 -62.3 L 16.3 -86.1 L 53.3 -79.7 L 89.6 -95.9 L 131.1 -96.7 L 166.6 -74.8 L 216 -55.1 L 261 -0.4 L 310.1 50.6 L 313.5 96.9 L 328.1 139.5 L 356 160.4 L 362.3 189.1 L 358.9 212.3 L 348.2 216.5 L 307.6 210.6 L 302.1 218.9 L 285.7 220.5 L 232.2 202.4 L 196.3 201.7 L 58.9 198.5 L 39 206.9 L 14.3 204.5 L -25.1 216.6 L -37.3 159.6 L 30.4 161.2 L 48.3 150.8 L 61.6 150.2 L 89.2 133 L 121.1 148.7 L 153.4 150 L 185.6 133.3 L 170.5 111.8 L 146 124.4 L 123 124 L 93.6 105.7 L 70 106.9 L 53.2 124.5 L -27.8 126.6 Z" />
<path class="neighbor" d="M 358.9 212.3 L 362.3 189.1 L 356 160.4 L 328.1 139.5 L 313.5 96.9 L 310.1 50.6 L 335.1 37.1 L 347.6 -6.7 L 371.2 -8.4 L 423.1 12.3 L 465 -2.4 L 493.8 2.5 L 504.9 -14 L 803.3 -15.2 L 819.9 -67.2 L 807 -76.4 L 771.1 -397.3 L 735.2 -718.3 L 849 -719.6 L 1099.9 -557.3 L 1350.7 -395.1 L 1368.4 -360.2 L 1414.7 -339 L 1449.1 -326.9 L 1450 -279.6 L 1532.5 -286.9 L 1532.7 -115.6 L 1492 -65.9 L 1485.7 -20.1 L 1419.6 -8.3 L 1318.2 -1.9 L 1290.7 24.5 L 1243 27.4 L 1195.3 27.8 L 1176.8 13.5 L 1135.8 24.1 L 1066.3 54.9 L 1052.1 78.2 L 994.5 111.5 L 984.3 130.6 L 953.2 145.8 L 917.2 135.7 L 896.8 153.9 L 885.9 204.9 L 826.9 266.5 L 828.6 291.7 L 808.3 323.2 L 813.3 366.4 L 782.6 377.4 L 765.2 386.8 L 753.7 355 L 732.2 363.4 L 719.4 361.9 L 705.7 383.6 L 648.3 383 L 627.7 371.9 L 618 378.6 L 595.3 357.2 L 599.2 335 L 589.9 326.4 L 574.1 333.7 L 577 309.5 L 592.2 290.3 L 561.8 259.2 L 552.9 238.7 L 536.4 222.3 L 521.5 220.4 L 503.6 230.8 L 479.6 240.7 L 459.2 256.8 L 427.4 250.9 L 406.7 232 L 394.4 229.5 L 375 239.4 L 363.2 239.5 L 358.9 212.3 Z" />
<path class="neighbor" d="M 2319.5 -562.6 L 2337.8 -447 L 2365.6 -427.6 L 2366.8 -404 L 2397.8 -378.5 L 2381.6 -346.5 L 2352.9 -195.6 L 2349 -98.9 L 2254.2 -28.7 L 2222.1 69.2 L 2253 96.8 L 2252.9 144.6 L 2300.5 146.3 L 2293.1 181.3 L 2272.1 185.6 L 2269.7 209.3 L 2255.9 210.9 L 2205.6 129.5 L 2188.1 126.5 L 2130 168.1 L 2072.4 146.4 L 2032.4 142.1 L 2010.9 152.5 L 1967.3 150.3 L 1923.5 182 L 1885.5 183.8 L 1795.5 145.3 L 1760.3 163.6 L 1722.3 162.3 L 1694.4 134.2 L 1619.9 106.5 L 1540 115.3 L 1520.6 131.4 L 1510.2 174.1 L 1488.8 204.1 L 1483.7 270.5 L 1427 227.7 L 1400.3 227.9 L 1375.4 249.7 L 1377 198.8 L 1291.3 181.9 L 1289 145.9 L 1247.1 97.4 L 1237.1 63.5 L 1243 27.4 L 1290.7 24.5 L 1318.2 -1.9 L 1419.6 -8.3 L 1485.7 -20.1 L 1492 -65.9 L 1532.7 -115.6 L 1532.5 -286.9 L 1637.3 -320 L 1852.7 -466.1 L 2107.5 -607.8 L 2225.1 -575.8 L 2266.9 -534.9 L 2319.5 -562.6 Z" />
<path class="neighbor" d="M 1282 319.8 L 1272.6 359 L 1295.3 380.9 L 1321.1 407 L 1323.9 443.5 L 1338.9 458.8 L 1335.5 629.6 L 1353.8 680.9 L 1294 696.7 L 1277.4 670.6 L 1257.6 623.4 L 1251.7 586.4 L 1268.1 519.5 L 1249.4 492.3 L 1242.4 433.8 L 1242.5 379.8 L 1211.4 341.4 L 1216.9 318.2 L 1282 319.8 Z" />
<path class="neighbor" d="M 1216.9 318.2 L 1211.4 341.4 L 1242.5 379.8 L 1242.4 433.8 L 1249.4 492.3 L 1268.1 519.5 L 1251.7 586.4 L 1257.6 623.4 L 1277.4 670.6 L 1294 696.7 L 1177.4 740.3 L 1136 765.8 L 1069 787.3 L 1002.7 766.2 L 1006.1 736.9 L 973.9 672.8 L 993.3 588.8 L 1024.6 526.4 L 1004.9 420.6 L 994.7 364.6 L 996.5 322.4 L 1125.7 318.9 L 1158.5 324.3 L 1182.5 312.3 L 1216.9 318.2 Z" />
<path class="neighbor" d="M 196.3 201.7 L 232.2 202.4 L 285.7 220.5 L 302.1 218.9 L 307.6 210.6 L 348.2 216.5 L 358.9 212.3 L 363.2 239.5 L 375 239.4 L 394.4 229.5 L 406.7 232 L 427.4 250.9 L 459.2 256.8 L 479.6 240.7 L 503.6 230.8 L 521.5 220.4 L 536.4 222.3 L 552.9 238.7 L 561.8 259.2 L 592.2 290.3 L 577 309.5 L 574.1 333.7 L 589.9 326.4 L 599.2 335 L 595.3 357.2 L 618 378.6 L 603.2 384.4 L 597.2 409.6 L 614.3 440.4 L 632.7 499.9 L 605.1 508.8 L 598 519.2 L 603.7 533.5 L 599.4 566 L 587.6 566 L 566.5 564.1 L 551.4 594.1 L 530.3 593.7 L 515.9 577.9 L 520.8 548 L 489.7 502.5 L 470.3 510.8 L 454.4 512.5 L 433.9 516.8 L 434.7 489.5 L 422.8 470 L 425.2 448.4 L 409.1 417.2 L 388.4 390.6 L 328.9 390.5 L 311.6 404.5 L 291.1 406.2 L 278.4 422.2 L 269.8 442.9 L 230.1 475.5 L 197.5 431.5 L 168.5 402.4 L 149.5 392.8 L 130.9 378 L 122.5 345.2 L 111.6 328.8 L 90 316.6 L 123.1 280.4 L 145.6 281.7 L 165 269.3 L 181.4 269.1 L 193.1 259.3 L 186.8 234.6 L 195 226.9 L 196.3 201.7 Z" />
<path class="neighbor" d="M 587.6 566 L 584.1 587.7 L 591.6 623.6 L 575.4 656.7 L 597.1 677.1 L 620.7 682 L 652.2 713.2 L 654.5 742.5 L 647.3 751.8 L 641.6 813 L 622.2 813.7 L 545.5 778.3 L 477.9 721.7 L 414.6 681 L 364.5 633 L 382.3 609.2 L 386.2 587.6 L 419.8 547.2 L 454.4 512.5 L 470.3 510.8 L 489.7 502.5 L 520.8 548 L 515.9 577.9 L 530.3 593.7 L 551.4 594.1 L 566.5 564.1 L 587.6 566 Z" />
<path class="neighbor" d="M 230.1 475.5 L 269.8 442.9 L 278.4 422.2 L 291.1 406.2 L 311.6 404.5 L 328.9 390.5 L 388.4 390.6 L 409.1 417.2 L 425.2 448.4 L 422.8 470 L 434.7 489.5 L 433.9 516.8 L 454.4 512.5 L 419.8 547.2 L 386.2 587.6 L 382.3 609.2 L 364.5 633 L 344.5 627.5 L 290.9 597.5 L 252.2 557.7 L 239.2 530.5 L 230.1 475.5 Z" />
<path class="neighbor" d="M 813.3 366.4 L 808.3 323.2 L 828.6 291.7 L 826.9 266.5 L 885.9 204.9 L 896.8 153.9 L 917.2 135.7 L 953.2 145.8 L 984.3 130.6 L 994.5 111.5 L 1052.1 78.2 L 1066.3 54.9 L 1135.8 24.1 L 1176.8 13.5 L 1195.3 27.8 L 1243 27.4 L 1237.1 63.5 L 1247.1 97.4 L 1289 145.9 L 1291.3 181.9 L 1377 198.8 L 1375.4 249.7 L 1359.1 271.9 L 1322.8 278.9 L 1307.6 311.4 L 1282 319.8 L 1216.9 318.2 L 1182.5 312.3 L 1158.5 324.3 L 1125.7 318.9 L 996.5 322.4 L 994.7 364.6 L 1004.9 420.6 L 954 401.4 L 919.1 404.2 L 893.1 422.9 L 859.7 407.2 L 846.7 382.6 L 813.3 366.4 Z" />
<path class="lake" d="M 1235.4 641.3 L 1235.4 641.3 L 1235.4 641.3 L 1237.4 638 L 1238.7 636.5 L 1238.1 639.5 L 1235.7 643.2 L 1232.2 645.6 L 1229.4 646.3 L 1227.9 645.7 L 1227 645.5 L 1226.4 646 L 1226.6 647 L 1226.4 649 L 1226 651.4 L 1225.6 653.9 L 1225 658 L 1225.4 664.2 L 1222.8 666.3 L 1221.2 665.2 L 1220.6 661.4 L 1218.2 661.3 L 1214.3 663.2 L 1212.7 661.1 L 1210.7 657.8 L 1207.8 655 L 1202.1 651.8 L 1196.2 647.9 L 1191.1 645.2 L 1183.3 641.8 L 1174.2 638.1 L 1168 635.4 L 1165 631.8 L 1164.3 629.4 L 1166.1 629.3 L 1169.3 631.4 L 1172 633.1 L 1174.2 631.1 L 1176.6 632.4 L 1178.7 636.6 L 1180.4 637.7 L 1182.3 637.4 L 1184 637.1 L 1184.7 634.5 L 1185 630.7 L 1185.9 629.8 L 1187.8 634 L 1190.2 638.2 L 1192.4 638.1 L 1195 637.7 L 1198.2 636.8 L 1200.7 636.3 L 1202.1 637.6 L 1203 640.4 L 1204.5 643.2 L 1208 644.7 L 1210.9 644.6 L 1212.1 641.1 L 1213.2 637.9 L 1213.8 636.9 L 1213.4 635.8 L 1211.5 634.3 L 1210.1 632.8 L 1209.8 631.2 L 1210.2 630.1 L 1212 628.4 L 1214.3 628 L 1216.1 628.6 L 1217.4 628.2 L 1220.8 626.8 L 1223.4 624.8 L 1222.9 623.8 L 1219.5 623.5 L 1218.2 621 L 1221.6 619 L 1224.1 619.2 L 1224.3 618.3 L 1222.5 616.8 L 1221.7 615.4 L 1222.1 614.3 L 1222.6 613.1 L 1222.4 611.1 L 1221.5 608 L 1221.4 606.1 L 1220 605.8 L 1218.5 604.9 L 1217.2 604 L 1215.9 603.2 L 1215.7 601.5 L 1216.2 601.4 L 1217.7 602.2 L 1219.8 602.5 L 1221.3 602.7 L 1222.5 602.7 L 1223.9 602 L 1225.7 600.5 L 1226.5 599.1 L 1227.1 598.3 L 1228.1 598.3 L 1228.8 597.3 L 1228.8 595.7 L 1228 594.5 L 1226.7 594.1 L 1225.2 593.8 L 1222.7 591.6 L 1220.2 587.9 L 1218.9 584.9 L 1218.9 583.7 L 1218.7 582.9 L 1218.5 581.6 L 1215 579.9 L 1210.5 579.3 L 1210.8 582.4 L 1210.2 584 L 1207.2 583 L 1205.6 582 L 1205 580.2 L 1203.5 579.1 L 1199.8 579 L 1197.1 578.7 L 1197.9 577.5 L 1199.7 576.4 L 1202.6 576.2 L 1205.2 575.9 L 1207.3 576.1 L 1209.8 576.3 L 1213.1 576.5 L 1216 576.7 L 1213.8 573 L 1210.4 569.4 L 1207 569.1 L 1201.6 569 L 1197.1 569.6 L 1190.2 571.1 L 1183 572.9 L 1179.9 573.3 L 1178.1 572.7 L 1175.6 574.2 L 1170.3 575.9 L 1166.5 576.1 L 1169.7 574.9 L 1174.7 572.5 L 1179.2 570.6 L 1183.8 568.8 L 1188.6 567.7 L 1193.2 567.4 L 1195.7 566.2 L 1196.1 564.6 L 1196.3 563.5 L 1199.5 564 L 1203.1 563.4 L 1205.8 562 L 1207.9 561.6 L 1207.7 560.9 L 1205.2 560 L 1203.4 559.2 L 1203.3 558 L 1203.8 556.6 L 1203.8 554.5 L 1202.5 550.9 L 1201.3 548.1 L 1200.8 546 L 1198.5 544.4 L 1194 541.6 L 1191.7 539.7 L 1189.6 539.9 L 1189.1 542.6 L 1186.5 544.2 L 1184.1 544.8 L 1185.8 542.7 L 1186.9 539.1 L 1184.2 536.8 L 1182 535.9 L 1178.1 538.5 L 1176 538.1 L 1176 533.2 L 1174.8 531.3 L 1173.4 532.7 L 1171.2 535.2 L 1168.7 536.4 L 1167.3 536.2 L 1167.3 534.8 L 1163.6 534.6 L 1158.9 535.1 L 1158.6 533.9 L 1159.5 532.7 L 1161.5 532.7 L 1166.4 532.1 L 1170.2 530.9 L 1170.5 529.8 L 1168.9 528.5 L 1164.9 525 L 1161.3 521.9 L 1159.1 520.6 L 1156 519.2 L 1155.5 517.8 L 1156.9 515.5 L 1152.8 509.4 L 1147.3 501.4 L 1143.4 497.8 L 1140.9 495.8 L 1137.7 494.7 L 1134.3 495.1 L 1131.2 495.7 L 1130.3 498.5 L 1129.4 501.7 L 1127.4 497.8 L 1124.5 493.7 L 1121.9 493.1 L 1118.2 490.9 L 1114.7 488.9 L 1110.7 487.7 L 1107.9 488.3 L 1104.5 490.9 L 1100.3 493.4 L 1095.8 494.8 L 1091.4 496 L 1087.6 495.8 L 1091.4 492.6 L 1096.8 491 L 1102.2 488.3 L 1106.1 486.1 L 1110.1 484.6 L 1112.8 482.9 L 1114.3 483.8 L 1118.9 486.9 L 1120.7 488.7 L 1131.4 490.3 L 1136.2 489 L 1135.8 486.9 L 1133.6 484.4 L 1130.8 482.2 L 1130 477.7 L 1127.8 472.5 L 1127.5 469.9 L 1127.5 466.4 L 1127.8 462.8 L 1129.5 459.7 L 1131.1 462.7 L 1131.4 466.2 L 1131.5 469.8 L 1131.8 473.6 L 1132.9 476 L 1135.2 479.3 L 1137.5 480 L 1138.9 480 L 1141 485 L 1145.9 494.1 L 1150.2 499.2 L 1152.5 499.6 L 1154.4 498.1 L 1154.3 494.3 L 1153.9 490.1 L 1155 487.4 L 1156.3 486.1 L 1157 486.5 L 1156 489.1 L 1155.2 491.5 L 1157.9 493.9 L 1161.4 495.2 L 1162.7 494.9 L 1162.6 496.2 L 1158.8 499.8 L 1155.3 504 L 1155.9 505.7 L 1157 507.9 L 1161.5 512.8 L 1166.1 516.2 L 1168.5 518.2 L 1170.9 521.3 L 1173.1 522.3 L 1173.9 524 L 1176 525.4 L 1179.1 527.1 L 1181.8 527.1 L 1185.9 526.2 L 1188.7 524.6 L 1191.5 524.6 L 1193.9 523.9 L 1196.9 524.5 L 1200.1 526.9 L 1200.8 528.9 L 1196.1 528.9 L 1191.3 529.5 L 1190.6 531 L 1192.2 532.1 L 1195.6 534.6 L 1201 538.8 L 1205.6 541.9 L 1207.5 544.5 L 1209.1 551.9 L 1211.2 556.7 L 1213.4 558.1 L 1215.3 558.1 L 1216.6 558.4 L 1219.2 558.2 L 1220.4 556 L 1219.4 552.9 L 1219.3 551.2 L 1219.5 548.7 L 1220.6 545 L 1221 542.5 L 1219.7 539.7 L 1220.3 536.7 L 1222.5 535.8 L 1224.8 536.3 L 1226.6 536.9 L 1227.8 536.3 L 1227.4 534.1 L 1226.4 530.7 L 1224.3 527.1 L 1223 524.7 L 1225.3 523.8 L 1227.7 521.2 L 1229.9 517.6 L 1231.3 515.7 L 1227.1 514.4 L 1222 512.7 L 1221.1 510.8 L 1222 508.5 L 1221.9 505.5 L 1221.5 501.9 L 1223 499.3 L 1225.2 498.3 L 1226.3 495.6 L 1227 490.6 L 1228.8 487.5 L 1229.8 487.8 L 1228.9 491.4 L 1227.7 496.2 L 1226.5 498.6 L 1224.6 500 L 1224.2 504.2 L 1223.5 508.7 L 1222.8 510.4 L 1223.7 511.8 L 1228.4 513 L 1233.1 514.5 L 1234.5 516.3 L 1235.9 517.4 L 1237 517.8 L 1236.3 518.4 L 1233.2 518.8 L 1231.1 519.3 L 1231.3 520.7 L 1229.3 524 L 1228.8 527.4 L 1230.1 530.4 L 1232.3 533.4 L 1235.1 534.8 L 1235 535.7 L 1233 536.2 L 1229.9 536.8 L 1227.1 538.3 L 1226 541.2 L 1224.2 544.8 L 1223.2 547.3 L 1224.4 549.2 L 1226 550.6 L 1227.6 552.9 L 1231.6 551.4 L 1234.3 549.8 L 1233.8 552 L 1233.9 552.9 L 1233.6 553.9 L 1232.8 555.1 L 1233.6 557.4 L 1235.8 560.4 L 1235.9 565.1 L 1236 571.2 L 1236.1 574.3 L 1234.4 573.8 L 1233 574.1 L 1232.1 575.7 L 1232.2 577.2 L 1233.2 579.1 L 1233.7 580.6 L 1236.4 578.8 L 1238.9 576.7 L 1238.5 579.5 L 1237.6 582.1 L 1237.2 583.4 L 1237.1 586.1 L 1236.5 588.7 L 1235.7 590.8 L 1235.7 591.8 L 1235.8 592.5 L 1236.9 594.5 L 1237 596.4 L 1235.6 597.9 L 1235.3 599.6 L 1235.9 600.9 L 1236 602.1 L 1235.9 603.5 L 1235.6 604.2 L 1235.3 606.8 L 1236.6 609.2 L 1237.8 609.7 L 1237.4 611.8 L 1236.1 613.5 L 1235.4 617 L 1234.7 620.9 L 1233 624.8 L 1232.8 634.3 L 1234 641.4 L 1235.4 641.3 Z M 1224.8 640.9 L 1224.8 640.9 L 1224.8 640.9 L 1228.6 637.4 L 1227 634.4 L 1223.7 632.3 L 1219.7 631.4 L 1216.4 633.5 L 1216 638.1 L 1218.8 639.8 L 1221.8 642.4 L 1224.8 640.9 Z" />
<path class="lake" d="M 1235.4 641.3 L 1235.4 641.3 L 1235.4 641.3 L 1237.4 638 L 1238.7 636.5 L 1238.1 639.5 L 1235.7 643.2 L 1232.2 645.6 L 1229.4 646.3 L 1227.9 645.7 L 1227 645.5 L 1226.4 646 L 1226.6 647 L 1226.4 649 L 1226 651.4 L 1225.6 653.9 L 1225 658 L 1225.4 664.2 L 1222.8 666.3 L 1221.2 665.2 L 1220.6 661.4 L 1218.2 661.3 L 1214.3 663.2 L 1212.7 661.1 L 1210.7 657.8 L 1207.8 655 L 1202.1 651.8 L 1196.2 647.9 L 1191.1 645.2 L 1183.3 641.8 L 1174.2 638.1 L 1168 635.4 L 1165 631.8 L 1164.3 629.4 L 1166.1 629.3 L 1169.3 631.4 L 1172 633.1 L 1174.2 631.1 L 1176.6 632.4 L 1178.7 636.6 L 1180.4 637.7 L 1182.3 637.4 L 1184 637.1 L 1184.7 634.5 L 1185 630.7 L 1185.9 629.8 L 1187.8 634 L 1190.2 638.2 L 1192.4 638.1 L 1195 637.7 L 1198.2 636.8 L 1200.7 636.3 L 1202.1 637.6 L 1203 640.4 L 1204.5 643.2 L 1208 644.7 L 1210.9 644.6 L 1212.1 641.1 L 1213.2 637.9 L 1213.8 636.9 L 1213.4 635.8 L 1211.5 634.3 L 1210.1 632.8 L 1209.8 631.2 L 1210.2 630.1 L 1212 628.4 L 1214.3 628 L 1216.1 628.6 L 1217.4 628.2 L 1220.8 626.8 L 1223.4 624.8 L 1222.9 623.8 L 1219.5 623.5 L 1218.2 621 L 1221.6 619 L 1224.1 619.2 L 1224.3 618.3 L 1222.5 616.8 L 1221.7 615.4 L 1222.1 614.3 L 1222.6 613.1 L 1222.4 611.1 L 1221.5 608 L 1221.4 606.1 L 1220 605.8 L 1218.5 604.9 L 1217.2 604 L 1215.9 603.2 L 1215.7 601.5 L 1216.2 601.4 L 1217.7 602.2 L 1219.8 602.5 L 1221.3 602.7 L 1222.5 602.7 L 1223.9 602 L 1225.7 600.5 L 1226.5 599.1 L 1227.1 598.3 L 1228.1 598.3 L 1228.8 597.3 L 1228.8 595.7 L 1228 594.5 L 1226.7 594.1 L 1225.2 593.8 L 1222.7 591.6 L 1220.2 587.9 L 1218.9 584.9 L 1218.9 583.7 L 1218.7 582.9 L 1218.5 581.6 L 1215 579.9 L 1210.5 579.3 L 1210.8 582.4 L 1210.2 584 L 1207.2 583 L 1205.6 582 L 1205 580.2 L 1203.5 579.1 L 1199.8 579 L 1197.1 578.7 L 1197.9 577.5 L 1199.7 576.4 L 1202.6 576.2 L 1205.2 575.9 L 1207.3 576.1 L 1209.8 576.3 L 1213.1 576.5 L 1216 576.7 L 1213.8 573 L 1210.4 569.4 L 1207 569.1 L 1201.6 569 L 1197.1 569.6 L 1190.2 571.1 L 1183 572.9 L 1179.9 573.3 L 1178.1 572.7 L 1175.6 574.2 L 1170.3 575.9 L 1166.5 576.1 L 1169.7 574.9 L 1174.7 572.5 L 1179.2 570.6 L 1183.8 568.8 L 1188.6 567.7 L 1193.2 567.4 L 1195.7 566.2 L 1196.1 564.6 L 1196.3 563.5 L 1199.5 564 L 1203.1 563.4 L 1205.8 562 L 1207.9 561.6 L 1207.7 560.9 L 1205.2 560 L 1203.4 559.2 L 1203.3 558 L 1203.8 556.6 L 1203.8 554.5 L 1202.5 550.9 L 1201.3 548.1 L 1200.8 546 L 1198.5 544.4 L 1194 541.6 L 1191.7 539.7 L 1189.6 539.9 L 1189.1 542.6 L 1186.5 544.2 L 1184.1 544.8 L 1185.8 542.7 L 1186.9 539.1 L 1184.2 536.8 L 1182 535.9 L 1178.1 538.5 L 1176 538.1 L 1176 533.2 L 1174.8 531.3 L 1173.4 532.7 L 1171.2 535.2 L 1168.7 536.4 L 1167.3 536.2 L 1167.3 534.8 L 1163.6 534.6 L 1158.9 535.1 L 1158.6 533.9 L 1159.5 532.7 L 1161.5 532.7 L 1166.4 532.1 L 1170.2 530.9 L 1170.5 529.8 L 1168.9 528.5 L 1164.9 525 L 1161.3 521.9 L 1159.1 520.6 L 1156 519.2 L 1155.5 517.8 L 1156.9 515.5 L 1152.8 509.4 L 1147.3 501.4 L 1143.4 497.8 L 1140.9 495.8 L 1137.7 494.7 L 1134.3 495.1 L 1131.2 495.7 L 1130.3 498.5 L 1129.4 501.7 L 1127.4 497.8 L 1124.5 493.7 L 1121.9 493.1 L 1118.2 490.9 L 1114.7 488.9 L 1110.7 487.7 L 1107.9 488.3 L 1104.5 490.9 L 1100.3 493.4 L 1095.8 494.8 L 1091.4 496 L 1087.6 495.8 L 1091.4 492.6 L 1096.8 491 L 1102.2 488.3 L 1106.1 486.1 L 1110.1 484.6 L 1112.8 482.9 L 1114.3 483.8 L 1118.9 486.9 L 1120.7 488.7 L 1131.4 490.3 L 1136.2 489 L 1135.8 486.9 L 1133.6 484.4 L 1130.8 482.2 L 1130 477.7 L 1127.8 472.5 L 1127.5 469.9 L 1127.5 466.4 L 1127.8 462.8 L 1129.5 459.7 L 1131.1 462.7 L 1131.4 466.2 L 1131.5 469.8 L 1131.8 473.6 L 1132.9 476 L 1135.2 479.3 L 1137.5 480 L 1138.9 480 L 1141 485 L 1145.9 494.1 L 1150.2 499.2 L 1152.5 499.6 L 1154.4 498.1 L 1154.3 494.3 L 1153.9 490.1 L 1155 487.4 L 1156.3 486.1 L 1157 486.5 L 1156 489.1 L 1155.2 491.5 L 1157.9 493.9 L 1161.4 495.2 L 1162.7 494.9 L 1162.6 496.2 L 1158.8 499.8 L 1155.3 504 L 1155.9 505.7 L 1157 507.9 L 1161.5 512.8 L 1166.1 516.2 L 1168.5 518.2 L 1170.9 521.3 L 1173.1 522.3 L 1173.9 524 L 1176 525.4 L 1179.1 527.1 L 1181.8 527.1 L 1185.9 526.2 L 1188.7 524.6 L 1191.5 524.6 L 1193.9 523.9 L 1196.9 524.5 L 1200.1 526.9 L 1200.8 528.9 L 1196.1 528.9 L 1191.3 529.5 L 1190.6 531 L 1192.2 532.1 L 1195.6 534.6 L 1201 538.8 L 1205.6 541.9 L 1207.5 544.5 L 1209.1 551.9 L 1211.2 556.7 L 1213.4 558.1 L 1215.3 558.1 L 1216.6 558.4 L 1219.2 558.2 L 1220.4 556 L 1219.4 552.9 L 1219.3 551.2 L 1219.5 548.7 L 1220.6 545 L 1221 542.5 L 1219.7 539.7 L 1220.3 536.7 L 1222.5 535.8 L 1224.8 536.3 L 1226.6 536.9 L 1227.8 536.3 L 1227.4 534.1 L 1226.4 530.7 L 1224.3 527.1 L 1223 524.7 L 1225.3 523.8 L 1227.7 521.2 L 1229.9 517.6 L 1231.3 515.7 L 1227.1 514.4 L 1222 512.7 L 1221.1 510.8 L 1222 508.5 L 1221.9 505.5 L 1221.5 501.9 L 1223 499.3 L 1225.2 498.3 L 1226.3 495.6 L 1227 490.6 L 1228.8 487.5 L 1229.8 487.8 L 1228.9 491.4 L 1227.7 496.2 L 1226.5 498.6 L 1224.6 500 L 1224.2 504.2 L 1223.5 508.7 L 1222.8 510.4 L 1223.7 511.8 L 1228.4 513 L 1233.1 514.5 L 1234.5 516.3 L 1235.9 517.4 L 1237 517.8 L 1236.3 518.4 L 1233.2 518.8 L 1231.1 519.3 L 1231.3 520.7 L 1229.3 524 L 1228.8 527.4 L 1230.1 530.4 L 1232.3 533.4 L 1235.1 534.8 L 1235 535.7 L 1233 536.2 L 1229.9 536.8 L 1227.1 538.3 L 1226 541.2 L 1224.2 544.8 L 1223.2 547.3 L 1224.4 549.2 L 1226 550.6 L 1227.6 552.9 L 1231.6 551.4 L 1234.3 549.8 L 1233.8 552 L 1233.9 552.9 L 1233.6 553.9 L 1232.8 555.1 L 1233.6 557.4 L 1235.8 560.4 L 1235.9 565.1 L 1236 571.2 L 1236.1 574.3 L 1234.4 573.8 L 1233 574.1 L 1232.1 575.7 L 1232.2 577.2 L 1233.2 579.1 L 1233.7 580.6 L 1236.4 578.8 L 1238.9 576.7 L 1238.5 579.5 L 1237.6 582.1 L 1237.2 583.4 L 1237.1 586.1 L 1236.5 588.7 L 1235.7 590.8 L 1235.7 591.8 L 1235.8 592.5 L 1236.9 594.5 L 1237 596.4 L 1235.6 597.9 L 1235.3 599.6 L 1235.9 600.9 L 1236 602.1 L 1235.9 603.5 L 1235.6 604.2 L 1235.3 606.8 L 1236.6 609.2 L 1237.8 609.7 L 1237.4 611.8 L 1236.1 613.5 L 1235.4 617 L 1234.7 620.9 L 1233 624.8 L 1232.8 634.3 L 1234 641.4 L 1235.4 641.3 Z M 1224.8 640.9 L 1224.8 640.9 L 1224.8 640.9 L 1228.6 637.4 L 1227 634.4 L 1223.7 632.3 L 1219.7 631.4 L 1216.4 633.5 L 1216 638.1 L 1218.8 639.8 L 1221.8 642.4 L 1224.8 640.9 Z" />
<path class="country" d="M 618 378.6 L 627.7 371.9 L 648.3 383 L 705.7 383.6 L 719.4 361.9 L 732.2 363.4 L 753.7 355 L 765.2 386.8 L 782.6 377.4 L 813.3 366.4 L 846.7 382.6 L 859.7 407.2 L 893.1 422.9 L 919.1 404.2 L 954 401.4 L 1004.9 420.6 L 1024.6 526.4 L 993.3 588.8 L 973.9 672.8 L 1006.1 736.9 L 1002.7 766.2 L 968.9 767 L 917 752.4 L 869.4 753.3 L 781.3 766.3 L 729.6 787.7 L 656 815 L 641.6 813 L 647.3 751.8 L 654.5 742.5 L 652.2 713.2 L 620.7 682 L 597.1 677.1 L 575.4 656.7 L 591.6 623.6 L 584.1 587.7 L 587.6 566 L 599.4 566 L 603.7 533.5 L 598 519.2 L 605.1 508.8 L 632.7 499.9 L 614.3 440.4 L 597.2 409.6 L 603.2 384.4 L 618 378.6 Z" />

<path class="river" d="M 1087.8 495.8 L 1098.4 492 L 1103.5 489.6 L 1108.3 486.5 L 1112.8 486 L 1118.5 489.6 L 1127.6 492.7 L 1142.5 493.5" />
<path class="river" d="M 1142.7 493.5 L 1132.5 479.1 L 1129.2 470.6 L 1129.5 459.7" />
<path class="river" d="M 1559.1 404 L 1552 376.2 L 1552.5 362.4 L 1561.4 348.7 M 919.2 1.2 L 905.3 -5 L 899.3 -9.2 L 895.1 -15.5" />
<path class="river" d="M 691.4 614 L 690.3 623.7 L 691.7 630.1 L 695.1 636.4 L 695.4 647.9 L 692.7 664.3 L 694 671.8" />
<path class="river" d="M 1142.5 493.5 L 1161.2 515.7 L 1176 528 L 1193.2 537.6 L 1203.8 546.8 L 1207.6 555.5 L 1211.1 560.6 L 1214.3 562.2 L 1218.1 568.9 L 1222.4 580.6 L 1226.6 587.8 L 1230.7 590.3 L 1232.3 598.8 L 1231.4 613.4 L 1229.6 622.8 L 1227.1 627.2 L 1227.1 631.8 L 1229.8 636.4 L 1229.6 640.3 L 1225.1 644.2 L 1223.1 650.5 L 1222.8 666.3" />
<path class="river" d="M 316.2 350.1 L 322.3 354.7 L 327.9 355.2 L 335.1 353.1 L 339.5 348 L 341.2 339.6 L 343 335 L 345.7 333.8 L 350.9 333.6 L 352.3 329.8 L 351.7 322.2 L 354 314.2 L 359.3 305.7 L 364.2 300.9 L 368.5 300 L 374.6 296 L 382.4 288.9 L 387.6 282.6 L 390.3 276.9 L 392.8 275 L 395 276.8 L 399.7 276.9 L 406.9 275.3 L 416.2 265 L 427.7 246 L 436.9 234.9 L 443.8 231.9 L 446.2 228.1 L 444 223.5 L 445.8 215.9 L 451.7 205.1 L 453.8 198 L 452.2 194.4 L 452.7 191.4 L 455.5 188.8 L 454.9 186 L 451.1 182.9 L 449.7 179.6 L 450.5 176 L 449.8 174 L 447.5 173.8 L 445.3 169.3 L 443.3 160.6 L 439.5 155.1 L 433.9 152.9 L 426.2 151.9 L 416.3 151.9 L 411.7 148.8 L 412.3 142.4 L 414.1 139.1 L 416.6 138.3 L 416.9 137.1 L 415.5 133.5 L 409.6 123.3 L 407 116.2 L 406.6 115 L 405.1 113" />
<path class="river" d="M 823.7 309.3 L 829.6 310.3 L 834 308.1 L 838.9 303 L 844.1 299.9 L 852.3 298.6 L 864.5 289.4 L 870.2 287.5 L 873.4 289.7 L 877.6 288.9 L 882.8 284.9 L 889.3 281.9 L 897.1 279.9 L 908.5 267.8 L 923.5 245.4 L 931.1 232.1 L 931.4 228 L 933.7 223.3 L 938.1 218 L 942.5 215.4 L 946.9 215.4 L 949.8 209.8 L 951.1 198.5 L 954.1 192.1 L 958.6 190.4 L 961.9 191.7 L 963.9 195.9 L 967.1 197.3 L 971.4 195.7 L 973.6 197.6 L 973.6 203.1 L 976.6 208.1 L 982.7 212.5 L 990.3 215.7 L 999.6 217.6 L 1003.3 220.1 L 1001.4 223.1 L 1002.2 227.7 L 1005.7 234 L 1005.1 238 L 1000.5 239.6 L 999.8 243.9 L 1003 250.7 L 1002.9 255.6 L 999.4 258.7 L 1000.7 261.6 L 1006.8 264.4 L 1007.6 274.5 L 1003.3 292.2 L 1002.6 301.6 L 1005.7 302.8 L 1006.6 307.3 L 1004.7 319 L 998.9 339.8 L 998.4 349.9 L 1001.1 356.2 L 1004.2 360.2 L 1007.6 361.8 L 1007.9 364.1 L 1005.2 367 L 1005.4 370 L 1008.6 373 L 1009.4 376.3 L 1007.8 379.7 L 1008.2 387.8 L 1010.6 400.7 L 1010.7 409.1 L 1008.4 412.9 L 1009.5 419.4 L 1013.9 428.6 L 1015.4 436.2 L 1013.9 442.2 L 1014.2 445.9 L 1016.3 447.3 L 1015.2 452.1 L 1010.9 460.2 L 1010.9 465 L 1015.1 466.5 L 1018.1 471.6 L 1019.9 480.3 L 1025 488.3 L 1033.3 495.8 L 1039.4 504.5 L 1043.3 514.5 L 1048.1 522.3 L 1053.8 528.1 L 1059.9 530.8 L 1066.4 530.3 L 1071.3 528.4 L 1074.4 525.1 L 1077.9 523.8 L 1081.8 524.5 L 1083.7 523.3 L 1083.6 520.1 L 1081.5 518.3 L 1077.5 517.9 L 1074.8 516.2 L 1073.5 513.1 L 1073.9 507.8 L 1076 500.1 L 1079.7 496.2 L 1087.8 495.8" />
<path class="river" d="M 1060.3 95.8 L 1062.3 120.3 L 1058.4 128.8 L 1058.6 135.7 L 1061.7 143.7 L 1061.3 152.1 L 1057.3 160.6 L 1056.4 165.8 L 1058.6 167.7 L 1067.2 168 L 1082.2 166.8 L 1094.1 168.5 L 1102.8 173.4 L 1110.2 174.9 L 1116.5 173.1 L 1121.3 173.7 L 1124.7 176.8 L 1127.2 183.1 L 1128.6 192.6 L 1130.3 196.8 L 1132.2 195.7 L 1133.7 196.3 L 1134.6 198.8 L 1134 220.5 L 1137.4 233.9 L 1145.2 247.1 L 1151.3 255.1 L 1155.8 257.9 L 1157.8 263.6 L 1157.3 272 L 1161.3 278.2 L 1169.9 282.1 L 1175.4 285.9 L 1178 289.5 L 1178.5 292.1 L 1177.1 293.6 L 1179.2 298 L 1185 305.2 L 1187.4 313.6 L 1186.6 323 L 1187.3 329.5 L 1189.5 333 L 1189.9 335.7 L 1188.5 337.5 L 1188.3 340.4 L 1190.1 346.5 L 1169.9 353.4 L 1163.1 353.4 L 1162.9 348.7 L 1161.3 346.4 L 1158.3 346.2 L 1154.4 349.1 L 1149.7 354.8 L 1145.5 356.8 L 1141.7 355.1 L 1138.8 355.2 L 1136.8 357 L 1135.8 360.8 L 1135.8 366.7 L 1137 371.5 L 1139.4 375.2 L 1139 378.7 L 1135.7 382 L 1135.6 385.3 L 1138.5 388.5 L 1140.8 396.9 L 1142.5 410.5 L 1139.2 416.6 L 1131.1 415.1 L 1123.1 417.3 L 1115.3 423.1 L 1112.1 429.4 L 1113.6 436.3 L 1116.4 441.6 L 1120.7 445.5 L 1122.8 449.4 L 1122.5 453.5 L 1124.2 456.6 L 1129.5 459.7" />
<path class="river" d="M 1681.1 766.4 L 1678 771.8 L 1671.1 777.4 L 1667.1 787.4 L 1665.4 808.9 L 1667 818.5 M 1681.1 766.4 L 1681.5 808 M 1695.1 738.8 L 1689.1 740.1 L 1683.8 742.3 L 1679.2 745.4 L 1676.9 748.3 L 1676.9 750.8 L 1674 753.6 L 1668 756.5 L 1660.7 756.1 L 1652.1 752.3 L 1641.8 751.6 L 1622.4 754.4 M 1695.1 738.8 L 1690.6 743.4 L 1687.2 746.7 L 1685.9 749.4 L 1686.1 751.3 L 1687.9 752.4 L 1687.6 754.4 L 1685.2 757.3 L 1683 758.7 L 1681.1 758.7 L 1680.5 761.3 L 1681.1 766.4 M 1702.7 725.5 L 1706.4 737.1 L 1705 743.4 L 1700.2 748.3 L 1696.6 754.2 L 1694.3 761 L 1695.6 765.6 L 1700.5 768 L 1703.9 772.6 L 1705.9 779.5 L 1709.1 785.9 L 1714 795 L 1714.5 802.9 L 1714.1 806.6 L 1714.1 808.6 L 1714.5 814.7 M 417.1 461.6 L 422.1 456.9 L 425.3 450.9 L 428.4 441.9 L 428.1 434.7 L 422.7 426.2 L 423.8 412.5 L 420.6 400.3 L 413.6 384.9 L 410.8 375.5 L 412.3 372.1 L 416 370 L 421.8 369.3 L 424.4 367.3 L 423.6 364 L 425.9 362.3 L 431.3 362.3 L 435.7 360.4 L 439.3 356.5 L 444.5 355 L 451.4 355.8 L 455.3 357.5 L 456.7 358.5 L 458.6 358.9 L 460.3 358.1 L 467.5 351.7 L 473.7 348.7 L 478.8 349.2 L 481.5 347.5 L 482.8 346.2 L 486.3 344.7 L 496.9 343.5 L 506 335.9 L 513.7 321.9 L 520.3 314.8 L 525.9 314.6 L 531.1 312.4 L 535.8 308.1 L 537.2 301.8 L 535.4 293.4 L 539.3 288.5 L 548.7 287.1 L 556.9 282.1 L 563.8 273.5 L 571.8 266.1 L 581 260.1 L 588.1 252.3 L 592.9 242.9 L 599.3 234.6 L 607.2 227.2 L 612.9 217.4 L 616.4 205.1 L 622.9 198.7 L 632.4 197.9 L 645 189.7 L 660.9 174 L 673.8 163.1 L 688.8 154.3 L 698.4 146.7 L 710.4 144 L 728 143.5 L 741.6 140.5 L 751.3 134.9 L 758.1 128.3 L 762 120.9 L 767.4 118.1 L 776.2 117.4 L 784.9 115.5 L 799 104.9 L 811 99.4 L 820.7 98.8 L 827.4 95.9 L 831.2 90.7 L 843.6 85 L 864.7 78.9 L 876.9 76.7 L 881.5 76.1 L 886.9 73.2 L 902.8 55.6 L 909 39.1 L 914.6 30.7 L 921.5 24.9 L 923.6 16.8 L 919.2 1.2 L 921.1 0.6 L 924.1 -0.7 L 928.7 -4.1 L 931 -7.2 L 931.2 -10 L 928.6 -11.7 L 923.1 -12.6 L 923.4 -15.3 L 932.9 -22.7 L 933.5 -23.9 L 928 -25.6 L 928.9 -26.9 L 931.7 -27.9 L 936.4 -28.7 L 939 -32.3 L 939.4 -38.7 L 941.3 -42.7 L 944.9 -44.4 L 947.6 -47.7 L 949.6 -52.6 L 954.6 -55.7 M 1559.1 404 L 1560.5 412.2 L 1559.5 418.5 L 1556.7 425.9 L 1556.2 433.2 L 1558.1 440.5 L 1561.3 445.1 L 1565.6 447 L 1568.3 450.2 L 1569.4 454.9 L 1574.3 456.4 L 1583 454.6 L 1591.2 457.2 L 1598.8 464.2 L 1608.6 469.2 L 1620.9 472.1 L 1631.9 477.1 L 1646.6 487.5 L 1662.8 486.6 L 1673.1 487.5 L 1683 489.9 L 1689.9 496 L 1693.9 505.7 L 1700.1 514.6 L 1708.4 522.8 L 1714.6 532 L 1718.6 542.3 L 1719 558.1 L 1714.1 590.1 L 1710.7 619 L 1710.4 636.2 L 1712.7 658.7 L 1716.4 676.4 L 1713.9 693.1 L 1702.7 725.5 L 1698.1 731.3 L 1697 734.4 L 1697.8 736.9 L 1695.1 738.8 M 895.1 -15.6 L 892.5 -24 L 894.1 -28.6 L 899 -32.3 L 902.2 -36.8 L 903.9 -42.2 L 907.4 -44.2 L 912.8 -42.8 L 920.6 -46.6 L 930.7 -55.7 L 940.8 -60.6 L 950.7 -61.4 L 957.3 -64.2 M 954.6 -55.7 L 957.3 -64.2 M 957.3 -64.2 L 960.5 -69 L 963.9 -71.7 L 967.3 -72 L 969 -73.9 L 969 -77.3 L 972.5 -80.9 L 975.6 -82.6 M 975.6 -82.6 L 978 -74.5 L 978.1 -71 L 976.7 -69 L 974.7 -67.6 L 971.9 -67 L 969.6 -64.4 L 967.6 -59.8 L 962.6 -56.9 L 954.6 -55.7 M 975.6 -82.6 L 979.6 -84.8 L 984.1 -90.2 L 986.1 -97.3 L 990 -100.6 L 995.9 -100 L 1011.2 -103.5 L 1035.8 -111.1 L 1051.7 -114.5 L 1058.9 -113.6 L 1063.2 -114.3 L 1064.7 -116.5 L 1074.1 -120.3 L 1091.4 -125.7 L 1107.4 -129.2 L 1122.2 -130.8 L 1132 -130.1 L 1136.9 -127.2 L 1143.4 -126.2 L 1151.4 -127.2 L 1157.9 -126 L 1162.7 -122.9 L 1170.5 -121.9 L 1181.2 -123.2 L 1189.4 -117.1 L 1195.1 -103.6 L 1200.1 -95.2 L 1204.2 -91.9 L 1208.5 -83.9 L 1215.3 -64.9 L 1225.8 -51 L 1234.4 -42.7 L 1244.7 -35.5 L 1250.2 -28.4 L 1250.9 -21.3 L 1255.9 -15.8 L 1265.1 -11.8 L 1270.1 -8.3 L 1270.8 -5.4 L 1269.2 1.1 L 1265.3 11.4 L 1264 18.7 L 1265.3 23.1 L 1268.8 26 L 1274.5 27.6 L 1278.7 32.5 L 1281.4 40.7 L 1286.9 49.6 L 1295.1 59.5 L 1305 68.2 L 1316.4 75.7 L 1324 85.6 L 1327.6 98 L 1332.7 107.9 L 1339.4 115.4 L 1349.9 122.5 L 1364.2 129.4 L 1373.1 135.5 L 1376.8 141 L 1381.4 145.3 L 1386.9 148.7 L 1390.2 157.8 L 1391.4 172.7 L 1394.8 184.4 L 1400.3 192.9 L 1402.6 198.6 L 1401.6 201.4 L 1402.2 204.2 L 1404 205.9 L 1406.3 205.8 L 1408.2 204.2 L 1409.6 204.2 L 1410.4 205.8 L 1412.4 206.4 L 1415.3 205.8 L 1417.3 206.6 L 1418.6 210.4 L 1421 213.1 L 1424.5 214.1 L 1426.6 215.5 L 1449.4 236.5 L 1458.1 245.8 L 1460.5 250.7 L 1465 254.1 L 1471.7 256.3 L 1477.8 261 L 1482.5 267.8 L 1489.9 273.5 L 1501.5 277.2 L 1514.3 283.6 L 1522.5 290.6 L 1530.5 300.2 L 1539.9 307 L 1550.8 311 L 1558.7 316.3 L 1563.7 322.8 L 1565 331.7 L 1561.4 348.8" />
<path class="river" d="M 694 671.8 L 698.1 677.7 L 711.3 687.4 L 716.8 693.4 L 714.6 695.5 L 714.4 698.7 L 716.3 702.9 L 718.7 705.5 L 721.6 706.5 L 724.9 711 L 728.6 719.1 L 733.2 725.8 L 741.2 733.8 L 748.6 742 L 751.7 749 L 752.9 757.5 L 756.2 763.6 L 764.4 769.3 M 677 472.4 L 679.6 481.2 L 679.8 487.1 L 678.2 493.3 L 679.7 501.9 L 684 513.1 L 687 529.9 L 689.2 563.6 L 689.8 569.2 L 691.5 571.6 L 694.4 572.7 L 695.4 575.9 L 694.6 581.3 L 692.7 585.4 L 689.7 588.4 L 689 595.9 L 691.4 614 M 682.1 415.3 L 678.6 423.3 L 677.5 430.3 L 677.5 443.3 L 679.4 454 L 678.9 458.9 L 676.4 461.8 L 675.7 465.4 L 677 471.9" />
<path class="river" d="M 1222.8 666.3 L 1222.5 677.4 L 1226.8 683 L 1235.6 686.6 L 1243.4 688.3 L 1250.1 688 L 1255.6 689.9 L 1259.8 693.8 L 1262.7 699.1 L 1265.1 709.3" />
<g class="city"><circle cx="916.1812565705208" cy="741.7633196368505" r="5" /><text x="928.1812565705208" y="745.7633196368505">Abidjan</text></g>
<g class="city"><circle cx="1198.8800720621336" cy="724.744777249343" r="5" /><text x="1210.8800720621336" y="728.744777249343">Accra</text></g>
<g class="city"><circle cx="620.0795599838533" cy="196.7605140052826" r="5" /><text x="632.0795599838533" y="200.7605140052826">Bamako</text></g>
<g class="city"><circle cx="1101.6111163471405" cy="217.56002928009156" r="5" /><text x="1113.6111163471405" y="221.56002928009156">Ouagadougou</text></g>
<g class="city"><circle cx="412.0327241235655" cy="668.034497062857" r="5" /><text x="424.0327241235655" y="672.034497062857">Monrovia</text></g>
<g class="city"><circle cx="841.0877767418882" cy="565.7539898408816" r="5" /><text x="853.0877767418882" y="569.7539898408816">Bouaké</text></g>
<g class="city"><circle cx="896.1197315194075" cy="306.2234865391923" r="5" /><text x="908.1197315194075" y="310.2234865391923">Bobo Dioulasso</text></g>
<g class="city"><circle cx="822.832186050151" cy="630.5698923966333" r="5" /><text x="834.832186050151" y="634.5698923966333">Yamoussoukro</text></g>
<text class="map-title" x="80" y="105">Ivory Coast Physical Study Map</text>
<text class="map-subtitle" x="80" y="145">Landmark: Basilica of Our Lady of Peace | Study terrain and water systems</text>
  <text class="footer" x="80" y="1036">Made with Natural Earth. Free vector and raster map data @ naturalearthdata.com.</text>
</svg>
