<?xml version="1.0" encoding="UTF-8"?>
<svg xmlns="http://www.w3.org/2000/svg" width="1600" height="1100" viewBox="0 0 1600 1100" role="img" aria-labelledby="title desc">
  <title id="title">Chile Political Study Map</title>
  <desc id="desc">Made with Natural Earth. Free vector and raster map data @ naturalearthdata.com.</desc>
  <defs>
    <linearGradient id="terrain" x1="0" x2="1" y1="0" y2="1">
      <stop offset="0%" stop-color="#6c8c53" />
      <stop offset="42%" stop-color="#d5c487" />
      <stop offset="72%" stop-color="#b88b5f" />
      <stop offset="100%" stop-color="#f1f5ee" />
    </linearGradient>
    <filter id="softShadow" x="-10%" y="-10%" width="120%" height="120%">
      <feDropShadow dx="0" dy="10" stdDeviation="12" flood-color="#0f172a" flood-opacity="0.16" />
    </filter>
    <style>
      .neighbor { fill: #ffffff; stroke: #94a3b8; stroke-width: 1.2; opacity: 0.72; }
      .country { fill: #f7f1df; stroke: #1f2937; stroke-width: 4; filter: url(#softShadow); }
      .admin1 { fill: none; stroke: #64748b; stroke-width: 1.1; stroke-dasharray: 6 7; opacity: 0.75; }
      .river { fill: none; stroke: #1d9bd1; stroke-width: 3; stroke-linecap: round; opacity: 0.88; }
      .lake { fill: #8ed1ea; stroke: #0ea5e9; stroke-width: 1.5; opacity: 0.8; }
      .city circle { fill: #ef4444; stroke: #ffffff; stroke-width: 2; }
      .city text, .terrain-label { fill: #172033; font: 700 24px system-ui, sans-serif; paint-order: stroke; stroke: #ffffff; stroke-width: 5; stroke-linejoin: round; }
      .map-title { fill: #0f172a; font: 800 46px system-ui, sans-serif; }
      .map-subtitle { fill: #475569; font: 600 24px system-ui, sans-serif; }
      .footer { fill: #64748b; font: 500 18px system-ui, sans-serif; }
    </style>
  </defs>
  <rect width="100%" height="100%" fill="#eaf3f8" />
  <rect x="40" y="40" width="1520" height="1020" rx="32" fill="#ffffff" opacity="0.54" />
  <path class="neighbor" d="M 3839.5 336.7 L 3839.5 342.6 L 3831.8 345.6 L 3824.1 348.1 L 3822.6 343.6 L 3828.6 341.1 L 3832.4 340.5 L 3839.5 336.7 Z M 3816.9 354.1 L 3819.9 352.1 L 3824 355.6 L 3822 361.9 L 3814.5 363.6 L 3807.9 362.1 L 3806.7 356.7 L 3811.4 352.6 L 3816.9 354.1 Z M -512.2 336.1 L -513.7 342 L -514.7 342.6 L -514.7 336.7 L -512.2 336.1 Z" />
<path class="neighbor" d="M 832.3 779 L 836.9 784.6 L 843 793.7 L 858.7 800.9 L 875.6 804 L 870.2 810 L 858.7 810.6 L 852.5 806.4 L 845.2 806 L 832.3 806 L 832.3 779 Z M 965.4 507.8 L 962.4 517.5 L 959.2 529.9 L 959.3 542 L 956.7 544.7 L 955.7 552.5 L 954.9 558.8 L 970.3 569.2 L 968.6 577.5 L 976.2 582.8 L 975.5 588.7 L 963.9 604.2 L 946 610.7 L 921.7 613.2 L 908.4 612 L 911 619.2 L 908.5 628.3 L 910.7 634.4 L 903.5 638.6 L 891.1 640.3 L 879.5 635.9 L 874.8 639 L 876.5 651.1 L 884.7 654.7 L 891.3 650.9 L 894.9 657.2 L 883.7 660.9 L 874 668.4 L 872.2 680.6 L 869.4 687.1 L 858 687.1 L 848.5 693.3 L 845 702.4 L 856.9 711.2 L 868.5 713.7 L 864.3 724.5 L 850 731.4 L 842.2 745.5 L 831.1 750.3 L 826.2 756 L 830.1 768.5 L 838.1 775.5 L 833 774.9 L 821.8 773 L 792.6 771.4 L 787.6 764.4 L 787.8 755.3 L 779.8 756.1 L 775.5 751.7 L 774.4 738.9 L 783.7 733.6 L 787.6 725.9 L 786.1 719.8 L 792.6 709.4 L 797 693.4 L 795.7 686.3 L 801 684 L 799.7 679.5 L 794.1 677.1 L 798 672 L 792.6 667.4 L 789.8 653.4 L 794.6 651 L 792.6 636.2 L 795.4 623.9 L 798.7 613.1 L 805.9 608.7 L 802.2 596.9 L 802.2 585.8 L 811.3 577.9 L 811.1 567.7 L 818 555.9 L 818 544.8 L 814.8 542.6 L 809.3 521.7 L 816.7 509.3 L 815.6 497.6 L 819.9 486.6 L 827.8 475.2 L 836.4 467.7 L 832.7 463 L 835.3 459.1 L 834.9 438.9 L 848.1 433 L 852.2 420.4 L 850.7 417.4 L 860.8 406.4 L 876.7 409.4 L 883.8 418.1 L 888.5 408.4 L 902.3 408.9 L 904.2 411.5 L 926.5 431.2 L 936.4 433 L 951.1 442 L 963.6 446.7 L 965.3 452 L 953.4 470.4 L 965.6 473.7 L 979.2 475.6 L 988.8 473.6 L 999.7 464.4 L 1001.7 453.7 L 1007.7 451.4 L 1013.8 458.4 L 1013.5 468 L 1003.3 474.7 L 995.2 479.6 L 981.6 491.3 L 965.4 507.8 Z" />
<path class="neighbor" d="M 1016.8 550.8 L 1013.5 544 L 1018.8 538.2 L 1011.8 530 L 1002.3 523.3 L 989.9 515.5 L 985.4 515.9 L 973.3 506.5 L 965.4 507.8 L 981.6 491.3 L 995.2 479.6 L 1003.3 474.7 L 1013.5 468 L 1013.8 458.4 L 1007.7 451.4 L 1001.7 453.7 L 1004.1 446.7 L 1005.7 439.6 L 1005.7 432.9 L 1001.4 430.7 L 996.8 432.7 L 992.3 432.1 L 990.9 427.5 L 989.8 416.4 L 987.5 412.8 L 979.4 409.5 L 974.4 411.9 L 961.7 409.6 L 962.5 393.1 L 958.9 386.4 L 962.7 383.9 L 961.5 377 L 964.8 371.7 L 967 362.2 L 964.1 354.7 L 957.5 351.3 L 956.2 346.5 L 958 339.5 L 934.8 339 L 930.1 324.9 L 933.7 324.7 L 933.5 319.5 L 931.1 316 L 930.6 309 L 923.6 305.4 L 916 305.5 L 911 302 L 902.8 299.6 L 898 295.1 L 884.5 293.1 L 871.4 282.3 L 872.3 274.2 L 870.8 269.5 L 872.1 260.4 L 856.3 262.5 L 849.9 267 L 839.4 271.9 L 836.7 275.6 L 830.4 275.9 L 821.4 274.8 L 814.6 276.9 L 809.1 275.5 L 809.9 257.2 L 800 264.3 L 789.3 264 L 784.7 257.5 L 776.7 256.8 L 779.3 251.6 L 772.6 244.3 L 767.5 233.4 L 770.7 231.2 L 770.7 226 L 778 222.6 L 776.8 216 L 779.9 211.8 L 780.8 206.2 L 794.6 197.9 L 804.5 195.6 L 806.1 193.8 L 817 194.4 L 822.5 161.2 L 822.8 155.9 L 820.9 149 L 815.5 144.6 L 815.6 135.8 L 822.4 133.8 L 824.8 135.1 L 825.2 130.4 L 818.1 129.2 L 818 121.6 L 841.5 121.9 L 845.5 117.7 L 848.9 121.6 L 851.2 128.7 L 853.5 127.2 L 860.2 133.6 L 869.6 132.8 L 871.9 129.1 L 880.9 126.3 L 885.9 124.3 L 887.3 119.2 L 896 115.7 L 895.3 113.2 L 885.1 112.2 L 883.4 104.5 L 883.9 96.4 L 878.5 93.3 L 880.7 92.2 L 889.7 93.7 L 899.3 96.8 L 902.8 93.9 L 911.5 92 L 925 87.5 L 929.4 82.9 L 927.8 79.5 L 934.1 78.9 L 936.9 81.7 L 935.4 87 L 939.5 88.9 L 942.3 94.5 L 938.9 98.7 L 937 109 L 940.1 115.2 L 941 120.8 L 948.4 126.4 L 954.4 127 L 955.7 124.7 L 959.5 124.1 L 965 122 L 968.9 118.8 L 975.6 119.8 L 978.6 119.4 L 985.1 120.4 L 986.2 117.9 L 984.2 115.5 L 985.4 112 L 990.3 113.1 L 996 111.8 L 1002.9 114.4 L 1008.2 116.9 L 1012 113.6 L 1014.7 114.1 L 1016.3 117.5 L 1022.1 116.7 L 1026.7 112.1 L 1030.4 103.2 L 1037.6 92.1 L 1041.7 91.5 L 1044.7 98.2 L 1051.5 119.4 L 1058 121.4 L 1058.3 129.7 L 1049.2 139.7 L 1053 143.3 L 1074.3 145.2 L 1074.8 157.3 L 1084 149.4 L 1099.2 153.7 L 1119.3 161.1 L 1125.2 168.2 L 1123.2 174.9 L 1137.3 171.2 L 1160.8 177.6 L 1178.9 177.1 L 1196.7 187.1 L 1212.2 200.7 L 1221.5 204.2 L 1231.8 204.7 L 1236.2 208.5 L 1240.3 223.9 L 1242.3 231.2 L 1237.5 251.2 L 1231.4 259.1 L 1214.3 275.9 L 1206.6 289.6 L 1197.7 300.1 L 1194.6 300.3 L 1191.3 309.2 L 1192.1 331.9 L 1188.8 350.5 L 1187.5 358.5 L 1183.6 363.3 L 1181.5 379.4 L 1169.2 395.2 L 1167.2 407.7 L 1157.4 412.9 L 1154.6 420.2 L 1141.4 420.2 L 1122.4 424.8 L 1113.9 430.2 L 1100.3 433.7 L 1086.1 443.4 L 1075.9 455.4 L 1074.1 464.4 L 1076.1 471.1 L 1073.8 483.3 L 1071.1 489.2 L 1062.6 495.8 L 1049.2 517.1 L 1038.6 526.7 L 1030.4 532.4 L 1024.8 543.9 L 1016.8 550.8 Z" />
<path class="neighbor" d="M 821.4 274.8 L 830.4 275.9 L 836.7 275.6 L 839.4 271.9 L 849.9 267 L 856.3 262.5 L 872.1 260.4 L 870.8 269.5 L 872.3 274.2 L 871.4 282.3 L 884.5 293.1 L 898 295.1 L 902.8 299.6 L 911 302 L 916 305.5 L 923.6 305.4 L 930.6 309 L 931.1 316 L 933.5 319.5 L 933.7 324.7 L 930.1 324.9 L 934.8 339 L 958 339.5 L 956.2 346.5 L 957.5 351.3 L 964.1 354.7 L 967 362.2 L 964.8 371.7 L 961.5 377 L 962.7 383.9 L 958.9 386.4 L 958.7 382.7 L 947.4 376.5 L 936.2 376.3 L 915.1 379.8 L 909.3 390.5 L 909 397 L 904.2 411.5 L 902.3 408.9 L 888.5 408.4 L 883.8 418.1 L 876.7 409.4 L 860.8 406.4 L 850.7 417.4 L 842 419 L 837.3 402.3 L 830.8 388.8 L 834.6 377.1 L 828.2 372 L 826.6 363.2 L 820.7 355 L 828.3 341.9 L 823.1 331.8 L 825.9 327.7 L 823.7 323.2 L 828.5 317.2 L 828.7 306.9 L 829.3 298.4 L 831.9 294.3 L 821.4 274.8 Z" />
<path class="neighbor" d="M 817 194.4 L 806.1 193.8 L 804.5 195.6 L 794.6 197.9 L 780.8 206.2 L 779.9 211.8 L 776.8 216 L 778 222.6 L 770.7 226 L 770.7 231.2 L 767.5 233.4 L 772.6 244.3 L 779.3 251.6 L 776.7 256.8 L 784.7 257.5 L 789.3 264 L 800 264.3 L 809.9 257.2 L 809.1 275.5 L 814.6 276.9 L 821.4 274.8 L 831.9 294.3 L 829.3 298.4 L 828.7 306.9 L 828.5 317.2 L 823.7 323.2 L 825.9 327.7 L 823.1 331.8 L 828.3 341.9 L 820.7 355 L 817.5 361.2 L 811.2 364.3 L 799.1 357.3 L 798.1 352.4 L 774.1 340.2 L 752.4 327 L 743.1 319.6 L 738.1 309.6 L 740 306.1 L 729.8 290.2 L 717.9 267.9 L 706.4 243.8 L 701.5 238.3 L 697.7 229.4 L 688.3 221.5 L 679.7 216.6 L 683.6 211.2 L 677.7 199.7 L 681.5 191.2 L 691.1 183.5 L 692.6 188.6 L 689.1 191.5 L 689.4 195.9 L 694.4 194.9 L 699.3 196.2 L 704.4 202.3 L 711.2 197.4 L 713.5 189.2 L 720.9 178.7 L 735.5 173.9 L 748.7 161.3 L 752.4 153.4 L 750.8 144.2 L 754 143.1 L 762 148.8 L 765.9 154.5 L 771.5 157.6 L 778.6 170.3 L 787.6 171.8 L 794.3 168.6 L 798.7 170.7 L 805.9 169.7 L 815.2 175.3 L 807.4 187.6 L 811 187.9 L 817 194.4 Z" />
<path class="neighbor" d="M 853.5 127.2 L 851.2 128.7 L 848.9 121.6 L 845.5 117.7 L 841.5 121.9 L 818 121.6 L 818.1 129.2 L 825.2 130.4 L 824.8 135.1 L 822.4 133.8 L 815.6 135.8 L 815.5 144.6 L 820.9 149 L 822.8 155.9 L 822.5 161.2 L 817 194.4 L 811 187.9 L 807.4 187.6 L 815.2 175.3 L 805.9 169.7 L 798.7 170.7 L 794.3 168.6 L 787.6 171.8 L 778.6 170.3 L 771.5 157.6 L 765.9 154.5 L 762 148.8 L 754 143.1 L 750.8 144.2 L 745.6 141.3 L 739.6 137.3 L 736.2 139.3 L 725.9 137.6 L 723 132.4 L 720.7 132.6 L 708.6 125.7 L 707 121.9 L 711.5 121 L 711 114.9 L 713.8 110.6 L 719.8 109.8 L 724.9 102.2 L 729.5 95.8 L 725.1 92.9 L 727.4 85.9 L 724.6 74.8 L 727.2 71.7 L 725.3 61.4 L 720.4 55 L 722 49.1 L 725.9 50 L 728.1 46.4 L 725.3 39.3 L 726.8 37.5 L 733.1 37.9 L 742.1 29.4 L 747.1 28.2 L 747.2 24.1 L 749.5 13.9 L 756.4 8.3 L 764 8.1 L 765 5.6 L 774.4 6.6 L 784 0.5 L 788.7 -2.2 L 794.5 -8.1 L 798.8 -7.3 L 802 -4.1 L 799.6 -0.1 L 791.9 2 L 788.8 8 L 784.1 11.5 L 780.6 16 L 779.1 24.6 L 775.8 31.7 L 782 32.5 L 783.6 38 L 786.2 40.7 L 787.2 45.6 L 785.8 50.1 L 786.2 52.6 L 789.2 53.6 L 792 57.8 L 807.6 56.6 L 814.6 58.2 L 823.1 68.6 L 828 67.3 L 836.7 67.9 L 843.6 66.6 L 847.9 68.6 L 845.7 75.2 L 843 79.2 L 842.1 87.9 L 844.5 95.9 L 848 99.5 L 848.4 102.2 L 842.2 108.3 L 846.6 110.9 L 849.8 115.1 L 853.5 127.2 Z" />
<path class="neighbor" d="M 927.8 79.5 L 929.4 82.9 L 925 87.5 L 911.5 92 L 902.8 93.9 L 899.3 96.8 L 889.7 93.7 L 880.7 92.2 L 878.5 93.3 L 883.9 96.4 L 883.4 104.5 L 885.1 112.2 L 895.3 113.2 L 896 115.7 L 887.3 119.2 L 885.9 124.3 L 880.9 126.3 L 871.9 129.1 L 869.6 132.8 L 860.2 133.6 L 853.5 127.2 L 849.8 115.1 L 846.6 110.9 L 842.2 108.3 L 848.4 102.2 L 848 99.5 L 844.5 95.9 L 842.1 87.9 L 843 79.2 L 845.7 75.2 L 847.9 68.6 L 843.6 66.6 L 836.7 67.9 L 828 67.3 L 823.1 68.6 L 814.6 58.2 L 807.6 56.6 L 792 57.8 L 789.2 53.6 L 786.2 52.6 L 785.8 50.1 L 787.2 45.6 L 786.2 40.7 L 783.6 38 L 782 32.5 L 775.8 31.7 L 779.1 24.6 L 780.6 16 L 784.1 11.5 L 788.8 8 L 791.9 2 L 799.6 -0.1 L 799.3 2.8 L 792.2 4.2 L 796.1 9.7 L 796 16 L 790.7 23 L 795.2 32.6 L 800.5 31.9 L 803.2 23.1 L 799.4 18.9 L 798.8 9.7 L 813.9 4.8 L 812.2 -0.9 L 816.4 -4.7 L 820.8 3.8 L 829.3 4 L 837.1 10.7 L 837.6 14.7 L 848.5 14.8 L 861.4 13.6 L 868.3 19 L 877.6 20.5 L 884.3 16.7 L 884.5 13.7 L 899.5 12.9 L 914 12.8 L 903.7 16.3 L 907.8 22 L 917.5 23 L 926.7 28.9 L 928.6 38.6 L 934.9 38.3 L 939.6 41.2 L 930 48.3 L 929 52.7 L 933.1 57.2 L 930.1 59.4 L 922.7 61.4 L 922.9 67 L 919.6 70.3 L 927.8 79.5 Z" />
<path class="neighbor" d="M 750.8 144.2 L 752.4 153.4 L 748.7 161.3 L 735.5 173.9 L 720.9 178.7 L 713.5 189.2 L 711.2 197.4 L 704.4 202.3 L 699.3 196.2 L 694.4 194.9 L 689.4 195.9 L 689.1 191.5 L 692.6 188.6 L 691.1 183.5 L 697.6 174.5 L 695 169.2 L 690.3 174.8 L 683.1 169.5 L 685.5 166.1 L 683.5 155.2 L 687.7 153.3 L 690 145.8 L 694.5 138 L 693.7 133.1 L 700.3 130.5 L 708.6 125.7 L 720.7 132.6 L 723 132.4 L 725.9 137.6 L 736.2 139.3 L 739.6 137.3 L 745.6 141.3 L 750.8 144.2 Z" />
<path class="neighbor" d="M 958.9 386.4 L 962.5 393.1 L 961.7 409.6 L 974.4 411.9 L 979.4 409.5 L 987.5 412.8 L 989.8 416.4 L 990.9 427.5 L 992.3 432.1 L 996.8 432.7 L 1001.4 430.7 L 1005.7 432.9 L 1005.7 439.6 L 1004.1 446.7 L 1001.7 453.7 L 999.7 464.4 L 988.8 473.6 L 979.2 475.6 L 965.6 473.7 L 953.4 470.4 L 965.3 452 L 963.6 446.7 L 951.1 442 L 936.4 433 L 926.5 431.2 L 904.2 411.5 L 909 397 L 909.3 390.5 L 915.1 379.8 L 936.2 376.3 L 947.4 376.5 L 958.7 382.7 L 958.9 386.4 Z" />
<path class="neighbor" d="M 1073.9 1086.4 L 1080 1086.4 L 1098 1083.7 L 1116.3 1086.4 L 1131.2 1091.6 L 1136.4 1098.9 L 1137.8 1104.1 L 1138.3 1110.3 L 1119.6 1114.1 L 1099.9 1117.2 L 1077.2 1120 L 1051.8 1122.4 L 1023.2 1121.7 L 1007.3 1117.6 L 1009.4 1112.7 L 1035.2 1109.3 L 1045.7 1105.3 L 1053.2 1100.1 L 1058.7 1095.6 L 1066 1091.3 L 1073.9 1086.4 L 1073.9 1086.4 Z M 860.6 1113.1 L 887.9 1113.5 L 913.9 1114.7 L 922.9 1109.8 L 929.3 1105.5 L 941.9 1110.5 L 938.3 1116.6 L 934.8 1122.1 L 909.4 1120.4 L 882.4 1121.1 L 867.3 1117.1 L 867.3 1116.6 L 860.6 1113.1 Z M 768.4 1004.4 L 768.4 1004.4 L 776.7 1003 L 790.7 1003.4 L 794.2 997.3 L 794.9 992.8 L 794.7 983 L 801.6 977.4 L 812.7 975.5 L 819.1 980 L 821.9 984.5 L 827.1 989.9 L 831.2 995.1 L 834.5 1000.6 L 835.9 1006 L 833.8 1010.8 L 830.5 1015.3 L 816.2 1016.9 L 802.7 1019.3 L 786.9 1019.1 L 792.8 1014.3 L 778.6 1016 L 765.1 1017.7 L 755.8 1014.1 L 755.1 1009.1 L 768.4 1004.4 Z M 424.7 1011.9 L 424.7 1011.9 L 432.3 1009.8 L 447.7 1011.5 L 465.2 1012.4 L 478.5 1014.1 L 491.7 1012.6 L 498.9 1019.5 L 489.4 1018.6 L 474.7 1019 L 459.8 1018.6 L 443.4 1019.3 L 431.1 1016.9 L 424.7 1011.9 Z M 179.3 1033.3 L 179.3 1033.3 L 181.9 1029.2 L 196.3 1031.4 L 212 1033.3 L 226.4 1031.1 L 219.6 1035.4 L 208.2 1038.5 L 191.4 1037.5 L 179.3 1033.3 Z M 122.9 1030.9 L 122.9 1030.9 L 131.7 1028.3 L 143.7 1031.1 L 162.2 1035.9 L 155.1 1035.4 L 139.5 1034.2 L 122.9 1030.9 Z M -317.7 1093 L -317.7 1093 L -310.4 1088.5 L -287.9 1090.4 L -275.8 1094.2 L -266.6 1098.4 L -263.2 1103.9 L -286.5 1105.6 L -302.3 1101.3 L -309.4 1097 L -309.9 1096.3 L -317.7 1093 Z M 3839.5 1167 L 3839.5 1230.9 L -514.7 1230.9 L -514.7 1167 L -514 1167.1 L -503.3 1160 L -481.5 1163.8 L -480.1 1163.4 L -467.4 1159.6 L -465.7 1159.7 L -464.3 1159.8 L -446.8 1164.8 L -431.5 1159.8 L -428.7 1159.1 L -393.2 1157 L -381.7 1159.8 L -376 1161.2 L -357.7 1165.3 L -323.4 1168.3 L -296.2 1172.1 L -249.5 1175 L -214.7 1171.7 L -163.3 1174 L -134.1 1177.8 L -102.1 1174.3 L -68.5 1170.9 L -65.9 1165.3 L -113.5 1164.8 L -152.6 1161.9 L -162.8 1157.2 L -195.2 1154.6 L -193.1 1149.1 L -188.6 1144.2 L -184.1 1139.7 L -186.5 1134.7 L -206.6 1131.4 L -215.8 1127.1 L -234.6 1123.3 L -205.2 1124 L -177.2 1122.1 L -159.7 1126.2 L -138.1 1122.6 L -118.2 1118.1 L -108.5 1114.1 L -112.8 1109.1 L -128.4 1105.8 L -146.2 1102.2 L -171.1 1101.5 L -192.9 1099.8 L -216.3 1098.7 L -224.1 1094.2 L -239.8 1090.4 L -249.2 1086.1 L -253 1072.4 L -247.1 1073.5 L -236.2 1077.3 L -216.3 1076.1 L -197.1 1074.5 L -187.2 1079.7 L -168 1078.5 L -151.9 1075.9 L -136.7 1072.6 L -123 1068.6 L -104.7 1067.4 L -105.2 1062.9 L -109.5 1058.4 L -105.9 1054.1 L -90.3 1052 L -83.2 1056 L -64.7 1053.6 L -50.7 1050.5 L -33.4 1050.3 L -17.1 1049.1 L -0.7 1046.3 L 12.3 1043.7 L 27 1041.1 L 36.4 1041.8 L 44.7 1042.7 L 62.7 1041.1 L 78.8 1043.2 L 95.4 1043 L 111.3 1041.3 L 127.6 1042.5 L 145.7 1043.7 L 162.5 1043.2 L 180 1043.4 L 198 1043.7 L 214.6 1043.2 L 226.9 1039.6 L 241.6 1037.8 L 256.8 1040.4 L 271.2 1038.2 L 284.2 1034 L 292.1 1037.8 L 296.3 1042 L 304.1 1046 L 316.7 1042.5 L 331.1 1047 L 347.5 1048.4 L 361.5 1051.7 L 378.5 1051 L 393.9 1048.9 L 412.2 1049.4 L 428.5 1051 L 445.1 1053.2 L 451.5 1047.9 L 443.7 1043.9 L 437.7 1039.6 L 422.1 1038.7 L 415.2 1034.2 L 412.6 1029.7 L 408.4 1020.7 L 417.6 1022.3 L 433.5 1023.1 L 449.1 1022.3 L 463.3 1024.2 L 475.6 1027.8 L 480.9 1032.1 L 497.2 1032.8 L 512.8 1031.1 L 529.4 1028.7 L 544.3 1027.3 L 556.7 1030.2 L 572.8 1029.2 L 583.2 1020 L 592.9 1025.4 L 606.9 1027.6 L 622 1026.4 L 632 1031.1 L 647.9 1031.6 L 662.6 1033 L 677 1035.6 L 686.5 1031.1 L 691.2 1026.8 L 703.3 1031.6 L 719.9 1030.4 L 732.2 1033 L 740.5 1037 L 756.6 1035.9 L 769.2 1033.2 L 781.5 1030.2 L 796.2 1028.5 L 813.2 1027.1 L 828.6 1025.4 L 840.5 1022.8 L 847.6 1019 L 850.4 1013.8 L 849 1008.8 L 845.2 1004.1 L 840.9 999.4 L 837.1 994.6 L 834.1 990.3 L 833.4 985.6 L 834.5 980.9 L 840.2 976.4 L 845 971.4 L 846.9 966.6 L 844.5 961.4 L 843.1 956.7 L 849 951.2 L 855.6 947.7 L 863.4 943.2 L 871.7 939.4 L 881.4 935.8 L 886.2 930.6 L 892.8 927.3 L 900.4 924.2 L 912 923.5 L 919.6 919.7 L 928.1 917.4 L 938.1 915.9 L 946.8 912.8 L 953.7 909.1 L 963.2 907.6 L 970.3 910.7 L 965.8 914.7 L 953.5 918.3 L 948.3 920.9 L 939.2 919 L 929.3 920.2 L 921 923 L 912.2 926.1 L 906.3 929.7 L 904.7 934.4 L 905.4 938.9 L 911.1 942.9 L 902.8 945.8 L 891.4 946.7 L 884.8 950.8 L 877.7 954.6 L 870.1 959.8 L 868.2 964.3 L 872.4 969.3 L 878.8 973 L 888.8 975.9 L 898 979.7 L 903 984.4 L 905.6 988.9 L 909.2 993.7 L 914.8 997.7 L 918.4 1002.2 L 920.1 1013.3 L 923.6 1017.8 L 924.6 1022.6 L 928.4 1027.3 L 926.7 1033.7 L 920.1 1038.7 L 913 1042.7 L 896.8 1044.4 L 891.4 1048.7 L 884.1 1052.7 L 865.8 1057.2 L 849.7 1059.1 L 834.5 1061.7 L 818.2 1064.3 L 808.5 1069.3 L 789.1 1069.7 L 767.7 1069.3 L 748.5 1070.2 L 728.2 1070.2 L 732 1075 L 750.4 1077.1 L 763.9 1080.4 L 771.5 1084.7 L 758 1088.5 L 737.2 1087.3 L 719.9 1090.4 L 719.2 1095.3 L 718.7 1100.1 L 732.9 1104.1 L 735.5 1108.6 L 750.9 1113.1 L 776.5 1115 L 798.3 1118.3 L 815.6 1122.1 L 837.6 1125.9 L 867.7 1127.8 L 897.3 1131.1 L 917.9 1134.7 L 940.4 1138.7 L 952.3 1144.4 L 958.2 1148.9 L 972.9 1144.6 L 992.8 1141.1 L 1013.9 1137.3 L 1039 1134.2 L 1060.5 1130.9 L 1090.6 1130.7 L 1120.2 1132.3 L 1144.6 1135.2 L 1152.5 1129.9 L 1169.3 1126.4 L 1199.8 1126.2 L 1223.8 1123.5 L 1246.5 1120.9 L 1271.6 1119.3 L 1298.4 1117.1 L 1317.1 1114.1 L 1308.6 1109.8 L 1303.4 1105.5 L 1303.4 1101 L 1279.9 1101.5 L 1255 1103.4 L 1231.3 1103.4 L 1228 1098.9 L 1229.7 1089.9 L 1235.1 1087.3 L 1252.4 1084.4 L 1272.8 1081.6 L 1287.5 1078 L 1302.2 1074.5 L 1313.1 1069.7 L 1329.7 1067.6 L 1346 1066 L 1354.3 1065 L 1373 1064.5 L 1390.8 1062.9 L 1405.7 1060.5 L 1420.4 1057.7 L 1433.6 1054.8 L 1450.5 1051 L 1461.1 1047 L 1472.5 1043.4 L 1476.1 1038.7 L 1463.3 1035.9 L 1467.5 1030.9 L 1475.6 1027.1 L 1488.1 1024.7 L 1501.4 1021.9 L 1513.7 1018.1 L 1523.2 1013.3 L 1529.1 1007.7 L 1537.9 1004.3 L 1552.3 1005 L 1558.3 1009.1 L 1572.7 1009.5 L 1573.2 1005 L 1579.3 1000.3 L 1592.4 1001.5 L 1595.4 1006 L 1609.9 1006.7 L 1625.5 1004.6 L 1640.7 1003.1 L 1654.4 1003.9 L 1659.6 1008.8 L 1672.9 1004.8 L 1685.2 1002.7 L 1699 1001 L 1712.5 999.4 L 1724.8 996.5 L 1738.3 994.6 L 1748.7 992 L 1756.1 987.7 L 1765.1 990.8 L 1777.6 989.2 L 1786.4 994.9 L 1793.3 999.1 L 1807 996.7 L 1812.4 992 L 1824.8 988.7 L 1840.6 989.4 L 1845.4 993.9 L 1855.3 989.4 L 1868.3 988 L 1882.6 987.5 L 1895.4 987.7 L 1908.9 989.2 L 1921.9 989.9 L 1927.6 993.9 L 1935.4 997.5 L 1948.7 995.3 L 1962.9 994.9 L 1976.6 994.9 L 1990.1 994.6 L 2002.2 993 L 2015 991.5 L 2025.6 988.2 L 2037 986.1 L 2049.3 984.9 L 2058.6 981.6 L 2065.2 974.9 L 2072.1 970.9 L 2084.6 972.8 L 2089.4 977.1 L 2099.8 979.9 L 2112.3 979 L 2120.9 983.2 L 2129.9 986.3 L 2142.2 983.5 L 2146.5 978.3 L 2157.4 976.1 L 2169.9 972.1 L 2181.8 970.4 L 2196 968.1 L 2205.4 965.5 L 2215.4 962.6 L 2224.9 960 L 2236.2 961.4 L 2247.1 957.2 L 2255 953.9 L 2266.3 954.1 L 2276.3 951.2 L 2278.6 947 L 2288.8 943.7 L 2298.8 941.3 L 2310.9 939.4 L 2322 938.4 L 2332.7 939.2 L 2344 940.3 L 2353.7 943.7 L 2354.9 948.9 L 2365.6 952.9 L 2372.9 956.2 L 2387.4 957.6 L 2395.4 961 L 2405.4 964.3 L 2417 965 L 2426.7 962.6 L 2437.1 957.6 L 2448.5 960.2 L 2460.3 961.7 L 2471.7 963.1 L 2483.6 964 L 2495.6 964 L 2505.6 976.6 L 2505.1 979.7 L 2503.7 985.1 L 2492.1 988.2 L 2482.6 992.7 L 2484.3 997.5 L 2497.8 997.2 L 2496.1 1002 L 2490 1006.5 L 2484.3 1011.4 L 2493.5 1015.2 L 2507.5 1016.4 L 2521.5 1014.3 L 2528.1 1009.5 L 2532.1 1005 L 2538.8 1001.3 L 2546.3 997.7 L 2549.4 993.4 L 2555.8 987.5 L 2563.4 986.3 L 2577.1 985.8 L 2589.2 984.4 L 2601.5 982.5 L 2607.5 977.8 L 2611 973.3 L 2619.3 968.8 L 2631.1 965.7 L 2641.3 963.3 L 2648 959.3 L 2654.8 957.2 L 2663.6 955.3 L 2675.7 956.5 L 2686.6 955.3 L 2698.4 953.9 L 2711.7 954.6 L 2720.5 951.2 L 2726.6 943.2 L 2731.1 946.5 L 2736.8 952.2 L 2747 954.6 L 2758.6 955.5 L 2770.2 954.1 L 2782.5 955 L 2793.9 955.3 L 2801.5 954.1 L 2811.7 954.8 L 2820.9 957.4 L 2831.8 955.7 L 2844.8 955.7 L 2856 954.1 L 2868.5 955.7 L 2876.6 951.7 L 2882.7 947.7 L 2891 944.4 L 2906.2 935.4 L 2914 937 L 2923.2 940.3 L 2931.3 944.6 L 2946.7 952 L 2958.5 952.2 L 2969.7 952.2 L 2982.7 950.8 L 2995.7 949.1 L 3005.7 945.8 L 3014 942.2 L 3027.5 941.8 L 3036.5 939.2 L 3045.9 941.5 L 3052.1 945.3 L 3060.6 949.1 L 3073.9 948.6 L 3082.2 951.7 L 3096.6 954.8 L 3111.8 956 L 3124.4 955 L 3133.8 951.2 L 3141.9 947.5 L 3152.8 946.5 L 3163.7 948.2 L 3176.2 949.3 L 3187.6 947.5 L 3198.5 947.5 L 3209.2 948.6 L 3220.3 949.8 L 3231.2 947.7 L 3244.2 945.8 L 3256.5 945.3 L 3270.3 945.3 L 3281.4 944.1 L 3292.3 943.2 L 3295.6 937.3 L 3296.1 932.3 L 3303.7 935.6 L 3305.8 941.1 L 3309.8 946 L 3314.8 950.1 L 3325 952.2 L 3338.7 951.5 L 3354.6 951.2 L 3365.5 950.5 L 3381.4 950.5 L 3392.8 950.3 L 3408.6 950.8 L 3422.1 951.7 L 3430.7 955.5 L 3428.3 960 L 3436.1 963.6 L 3449.1 966.4 L 3462.6 969.5 L 3478.3 971.6 L 3494.6 973.5 L 3506.9 975.4 L 3520.7 975.7 L 3528.5 971.6 L 3539.2 974.9 L 3548.4 978.7 L 3559.1 981.6 L 3573.7 982.8 L 3587.7 984.2 L 3593.6 988.9 L 3607.4 991.8 L 3616.6 996 L 3630.1 997.9 L 3644.1 997.7 L 3657.1 998.4 L 3671.6 998.2 L 3686 999.1 L 3699.5 1000.8 L 3712.1 1003.6 L 3724.7 1006 L 3733.2 1009.5 L 3731.8 1014.3 L 3725.4 1018.6 L 3719.9 1024 L 3715.6 1028.3 L 3710 1033.2 L 3694.1 1035.1 L 3687 1039.4 L 3671.3 1042 L 3665.9 1046.8 L 3657.6 1051.3 L 3648.8 1055.1 L 3643.9 1060 L 3640.8 1064.5 L 3639.6 1070 L 3639.8 1074.5 L 3646.7 1079.2 L 3649.3 1083.7 L 3655 1088 L 3677.5 1089.7 L 3682.2 1094.9 L 3660.5 1096.8 L 3642 1099.4 L 3619 1099.8 L 3608.8 1106.7 L 3606.7 1112.4 L 3601.5 1116.9 L 3595.1 1121.4 L 3611.2 1125.4 L 3617.3 1130.4 L 3627.8 1134.9 L 3642.4 1139 L 3659.3 1142.7 L 3677.5 1146.5 L 3705.2 1150.3 L 3711.4 1156.3 L 3746.2 1158.9 L 3748.5 1159.8 L 3757.6 1163.4 L 3791 1160.3 L 3818.7 1164.1 L 3839.5 1167 Z" />

<path class="country" d="M 832.3 779 L 832.3 806 L 845.2 806 L 852.5 806.4 L 848.5 811.2 L 838.1 815 L 832.2 814.6 L 825 813.6 L 816.3 810 L 803.6 808.3 L 788.4 801.5 L 776 795 L 759.4 781.4 L 769.3 784 L 786.3 792.1 L 802.4 796.4 L 808.6 790.9 L 812.5 782.6 L 823.7 777.6 L 832.3 779 Z M 820.7 355 L 826.6 363.2 L 828.2 372 L 834.6 377.1 L 830.8 388.8 L 837.3 402.3 L 842 419 L 850.7 417.4 L 852.2 420.4 L 848.1 433 L 834.9 438.9 L 835.3 459.1 L 832.7 463 L 836.4 467.7 L 827.8 475.2 L 819.9 486.6 L 815.6 497.6 L 816.7 509.3 L 809.3 521.7 L 814.8 542.6 L 818 544.8 L 818 555.9 L 811.1 567.7 L 811.3 577.9 L 802.2 585.8 L 802.2 596.9 L 805.9 608.7 L 798.7 613.1 L 795.4 623.9 L 792.6 636.2 L 794.6 651 L 789.8 653.4 L 792.6 667.4 L 798 672 L 794.1 677.1 L 799.7 679.5 L 801 684 L 795.7 686.3 L 797 693.4 L 792.6 709.4 L 786.1 719.8 L 787.6 725.9 L 783.7 733.6 L 774.4 738.9 L 775.5 751.7 L 779.8 756.1 L 787.8 755.3 L 787.6 764.4 L 792.6 771.4 L 821.8 773 L 833 774.9 L 822.3 774.8 L 816.4 777.8 L 805.5 782.2 L 803.6 793.5 L 798.5 793.8 L 784.8 789.8 L 771 781.4 L 771 781.4 L 755.9 774.5 L 752.1 766.8 L 755.6 759.7 L 749.5 751.7 L 747.9 731.1 L 753.1 719.4 L 765.8 710.1 L 747.5 706.6 L 759 695.9 L 763.1 675.8 L 776.6 680.1 L 782.9 655 L 774.8 651.8 L 771 666.9 L 763.4 665.2 L 767.2 647.9 L 771.3 625.5 L 776.8 617.2 L 773.3 605.4 L 772.4 591.8 L 777.4 591.4 L 784.9 571.9 L 793.2 552.5 L 798.4 534.5 L 795.6 516.4 L 799.2 506.4 L 797.7 491.5 L 804.8 476.7 L 807 453.3 L 810.9 428.2 L 814.6 401.1 L 813.8 381.3 L 811.2 364.3 L 817.5 361.2 L 820.7 355 Z" />


<g class="city"><circle cx="730.4547778915012" cy="288.06618421449116" r="5" /><text x="742.4547778915012" y="292.06618421449116">Lima</text></g>
<g class="city"><circle cx="807.881837518259" cy="546.8311867184473" r="5" /><text x="819.881837518259" y="550.8311867184473">Santiago</text></g>
<g class="city"><circle cx="695.7419803071207" cy="169.19544445653378" r="5" /><text x="707.7419803071207" y="173.19544445653378">Guayaquil</text></g>
<g class="city"><circle cx="897.6587322225826" cy="357.07987953665537" r="5" /><text x="909.6587322225826" y="361.07987953665537">Santa Cruz</text></g>
<g class="city"><circle cx="712.9169641587997" cy="144.944140982164" r="5" /><text x="724.9169641587997" y="148.944140982164">Quito</text></g>
<g class="city"><circle cx="838.1024170340738" cy="341.88906641276003" r="5" /><text x="850.1024170340738" y="345.88906641276003">La Paz</text></g>
<g class="city"><circle cx="886.0921781335827" cy="522.130585237866" r="5" /><text x="898.0921781335827" y="526.130585237866">Córdoba</text></g>
<g class="city"><circle cx="830.0394850964" cy="540.0721708859671" r="5" /><text x="842.0394850964" y="544.0721708859671">Mendoza</text></g>
<text class="map-title" x="80" y="105">Chile Political Study Map</text>
<text class="map-subtitle" x="80" y="145">Capital: Santiago | Continent: South America</text>
  <text class="footer" x="80" y="1036">Made with Natural Earth. Free vector and raster map data @ naturalearthdata.com.</text>
</svg>
