<?xml version="1.0" encoding="UTF-8"?>
<svg xmlns="http://www.w3.org/2000/svg" width="1600" height="1100" viewBox="0 0 1600 1100" role="img" aria-labelledby="title desc">
  <title id="title">Chile Physical Study Map</title>
  <desc id="desc">Made with Natural Earth. Free vector and raster map data @ naturalearthdata.com.</desc>
  <defs>
    <linearGradient id="terrain" x1="0" x2="1" y1="0" y2="1">
      <stop offset="0%" stop-color="#6c8c53" />
      <stop offset="42%" stop-color="#d5c487" />
      <stop offset="72%" stop-color="#b88b5f" />
      <stop offset="100%" stop-color="#f1f5ee" />
    </linearGradient>
    <filter id="softShadow" x="-10%" y="-10%" width="120%" height="120%">
      <feDropShadow dx="0" dy="10" stdDeviation="12" flood-color="#0f172a" flood-opacity="0.16" />
    </filter>
    <style>
      .neighbor { fill: #ffffff; stroke: #94a3b8; stroke-width: 1.2; opacity: 0.72; }
      .country { fill: url(#terrain); stroke: #1f2937; stroke-width: 4; filter: url(#softShadow); }
      .admin1 { fill: none; stroke: #64748b; stroke-width: 1.1; stroke-dasharray: 6 7; opacity: 0.75; }
      .river { fill: none; stroke: #1d9bd1; stroke-width: 3; stroke-linecap: round; opacity: 0.88; }
      .lake { fill: #8ed1ea; stroke: #0ea5e9; stroke-width: 1.5; opacity: 0.8; }
      .city circle { fill: #ef4444; stroke: #ffffff; stroke-width: 2; }
      .city text, .terrain-label { fill: #172033; font: 700 24px system-ui, sans-serif; paint-order: stroke; stroke: #ffffff; stroke-width: 5; stroke-linejoin: round; }
      .map-title { fill: #0f172a; font: 800 46px system-ui, sans-serif; }
      .map-subtitle { fill: #475569; font: 600 24px system-ui, sans-serif; }
      .footer { fill: #64748b; font: 500 18px system-ui, sans-serif; }
    </style>
  </defs>
  <rect width="100%" height="100%" fill="#d8edf0" />
  <rect x="40" y="40" width="1520" height="1020" rx="32" fill="#ffffff" opacity="0.54" />
  <path class="neighbor" d="M 3839.5 336.7 L 3839.5 342.6 L 3831.8 345.6 L 3824.1 348.1 L 3822.6 343.6 L 3828.6 341.1 L 3832.4 340.5 L 3839.5 336.7 Z M 3816.9 354.1 L 3819.9 352.1 L 3824 355.6 L 3822 361.9 L 3814.5 363.6 L 3807.9 362.1 L 3806.7 356.7 L 3811.4 352.6 L 3816.9 354.1 Z M -512.2 336.1 L -513.7 342 L -514.7 342.6 L -514.7 336.7 L -512.2 336.1 Z" />
<path class="neighbor" d="M 832.3 779 L 836.9 784.6 L 843 793.7 L 858.7 800.9 L 875.6 804 L 870.2 810 L 858.7 810.6 L 852.5 806.4 L 845.2 806 L 832.3 806 L 832.3 779 Z M 965.4 507.8 L 962.4 517.5 L 959.2 529.9 L 959.3 542 L 956.7 544.7 L 955.7 552.5 L 954.9 558.8 L 970.3 569.2 L 968.6 577.5 L 976.2 582.8 L 975.5 588.7 L 963.9 604.2 L 946 610.7 L 921.7 613.2 L 908.4 612 L 911 619.2 L 908.5 628.3 L 910.7 634.4 L 903.5 638.6 L 891.1 640.3 L 879.5 635.9 L 874.8 639 L 876.5 651.1 L 884.7 654.7 L 891.3 650.9 L 894.9 657.2 L 883.7 660.9 L 874 668.4 L 872.2 680.6 L 869.4 687.1 L 858 687.1 L 848.5 693.3 L 845 702.4 L 856.9 711.2 L 868.5 713.7 L 864.3 724.5 L 850 731.4 L 842.2 745.5 L 831.1 750.3 L 826.2 756 L 830.1 768.5 L 838.1 775.5 L 833 774.9 L 821.8 773 L 792.6 771.4 L 787.6 764.4 L 787.8 755.3 L 779.8 756.1 L 775.5 751.7 L 774.4 738.9 L 783.7 733.6 L 787.6 725.9 L 786.1 719.8 L 792.6 709.4 L 797 693.4 L 795.7 686.3 L 801 684 L 799.7 679.5 L 794.1 677.1 L 798 672 L 792.6 667.4 L 789.8 653.4 L 794.6 651 L 792.6 636.2 L 795.4 623.9 L 798.7 613.1 L 805.9 608.7 L 802.2 596.9 L 802.2 585.8 L 811.3 577.9 L 811.1 567.7 L 818 555.9 L 818 544.8 L 814.8 542.6 L 809.3 521.7 L 816.7 509.3 L 815.6 497.6 L 819.9 486.6 L 827.8 475.2 L 836.4 467.7 L 832.7 463 L 835.3 459.1 L 834.9 438.9 L 848.1 433 L 852.2 420.4 L 850.7 417.4 L 860.8 406.4 L 876.7 409.4 L 883.8 418.1 L 888.5 408.4 L 902.3 408.9 L 904.2 411.5 L 926.5 431.2 L 936.4 433 L 951.1 442 L 963.6 446.7 L 965.3 452 L 953.4 470.4 L 965.6 473.7 L 979.2 475.6 L 988.8 473.6 L 999.7 464.4 L 1001.7 453.7 L 1007.7 451.4 L 1013.8 458.4 L 1013.5 468 L 1003.3 474.7 L 995.2 479.6 L 981.6 491.3 L 965.4 507.8 Z" />
<path class="neighbor" d="M 1016.8 550.8 L 1013.5 544 L 1018.8 538.2 L 1011.8 530 L 1002.3 523.3 L 989.9 515.5 L 985.4 515.9 L 973.3 506.5 L 965.4 507.8 L 981.6 491.3 L 995.2 479.6 L 1003.3 474.7 L 1013.5 468 L 1013.8 458.4 L 1007.7 451.4 L 1001.7 453.7 L 1004.1 446.7 L 1005.7 439.6 L 1005.7 432.9 L 1001.4 430.7 L 996.8 432.7 L 992.3 432.1 L 990.9 427.5 L 989.8 416.4 L 987.5 412.8 L 979.4 409.5 L 974.4 411.9 L 961.7 409.6 L 962.5 393.1 L 958.9 386.4 L 962.7 383.9 L 961.5 377 L 964.8 371.7 L 967 362.2 L 964.1 354.7 L 957.5 351.3 L 956.2 346.5 L 958 339.5 L 934.8 339 L 930.1 324.9 L 933.7 324.7 L 933.5 319.5 L 931.1 316 L 930.6 309 L 923.6 305.4 L 916 305.5 L 911 302 L 902.8 299.6 L 898 295.1 L 884.5 293.1 L 871.4 282.3 L 872.3 274.2 L 870.8 269.5 L 872.1 260.4 L 856.3 262.5 L 849.9 267 L 839.4 271.9 L 836.7 275.6 L 830.4 275.9 L 821.4 274.8 L 814.6 276.9 L 809.1 275.5 L 809.9 257.2 L 800 264.3 L 789.3 264 L 784.7 257.5 L 776.7 256.8 L 779.3 251.6 L 772.6 244.3 L 767.5 233.4 L 770.7 231.2 L 770.7 226 L 778 222.6 L 776.8 216 L 779.9 211.8 L 780.8 206.2 L 794.6 197.9 L 804.5 195.6 L 806.1 193.8 L 817 194.4 L 822.5 161.2 L 822.8 155.9 L 820.9 149 L 815.5 144.6 L 815.6 135.8 L 822.4 133.8 L 824.8 135.1 L 825.2 130.4 L 818.1 129.2 L 818 121.6 L 841.5 121.9 L 845.5 117.7 L 848.9 121.6 L 851.2 128.7 L 853.5 127.2 L 860.2 133.6 L 869.6 132.8 L 871.9 129.1 L 880.9 126.3 L 885.9 124.3 L 887.3 119.2 L 896 115.7 L 895.3 113.2 L 885.1 112.2 L 883.4 104.5 L 883.9 96.4 L 878.5 93.3 L 880.7 92.2 L 889.7 93.7 L 899.3 96.8 L 902.8 93.9 L 911.5 92 L 925 87.5 L 929.4 82.9 L 927.8 79.5 L 934.1 78.9 L 936.9 81.7 L 935.4 87 L 939.5 88.9 L 942.3 94.5 L 938.9 98.7 L 937 109 L 940.1 115.2 L 941 120.8 L 948.4 126.4 L 954.4 127 L 955.7 124.7 L 959.5 124.1 L 965 122 L 968.9 118.8 L 975.6 119.8 L 978.6 119.4 L 985.1 120.4 L 986.2 117.9 L 984.2 115.5 L 985.4 112 L 990.3 113.1 L 996 111.8 L 1002.9 114.4 L 1008.2 116.9 L 1012 113.6 L 1014.7 114.1 L 1016.3 117.5 L 1022.1 116.7 L 1026.7 112.1 L 1030.4 103.2 L 1037.6 92.1 L 1041.7 91.5 L 1044.7 98.2 L 1051.5 119.4 L 1058 121.4 L 1058.3 129.7 L 1049.2 139.7 L 1053 143.3 L 1074.3 145.2 L 1074.8 157.3 L 1084 149.4 L 1099.2 153.7 L 1119.3 161.1 L 1125.2 168.2 L 1123.2 174.9 L 1137.3 171.2 L 1160.8 177.6 L 1178.9 177.1 L 1196.7 187.1 L 1212.2 200.7 L 1221.5 204.2 L 1231.8 204.7 L 1236.2 208.5 L 1240.3 223.9 L 1242.3 231.2 L 1237.5 251.2 L 1231.4 259.1 L 1214.3 275.9 L 1206.6 289.6 L 1197.7 300.1 L 1194.6 300.3 L 1191.3 309.2 L 1192.1 331.9 L 1188.8 350.5 L 1187.5 358.5 L 1183.6 363.3 L 1181.5 379.4 L 1169.2 395.2 L 1167.2 407.7 L 1157.4 412.9 L 1154.6 420.2 L 1141.4 420.2 L 1122.4 424.8 L 1113.9 430.2 L 1100.3 433.7 L 1086.1 443.4 L 1075.9 455.4 L 1074.1 464.4 L 1076.1 471.1 L 1073.8 483.3 L 1071.1 489.2 L 1062.6 495.8 L 1049.2 517.1 L 1038.6 526.7 L 1030.4 532.4 L 1024.8 543.9 L 1016.8 550.8 Z" />
<path class="neighbor" d="M 821.4 274.8 L 830.4 275.9 L 836.7 275.6 L 839.4 271.9 L 849.9 267 L 856.3 262.5 L 872.1 260.4 L 870.8 269.5 L 872.3 274.2 L 871.4 282.3 L 884.5 293.1 L 898 295.1 L 902.8 299.6 L 911 302 L 916 305.5 L 923.6 305.4 L 930.6 309 L 931.1 316 L 933.5 319.5 L 933.7 324.7 L 930.1 324.9 L 934.8 339 L 958 339.5 L 956.2 346.5 L 957.5 351.3 L 964.1 354.7 L 967 362.2 L 964.8 371.7 L 961.5 377 L 962.7 383.9 L 958.9 386.4 L 958.7 382.7 L 947.4 376.5 L 936.2 376.3 L 915.1 379.8 L 909.3 390.5 L 909 397 L 904.2 411.5 L 902.3 408.9 L 888.5 408.4 L 883.8 418.1 L 876.7 409.4 L 860.8 406.4 L 850.7 417.4 L 842 419 L 837.3 402.3 L 830.8 388.8 L 834.6 377.1 L 828.2 372 L 826.6 363.2 L 820.7 355 L 828.3 341.9 L 823.1 331.8 L 825.9 327.7 L 823.7 323.2 L 828.5 317.2 L 828.7 306.9 L 829.3 298.4 L 831.9 294.3 L 821.4 274.8 Z" />
<path class="neighbor" d="M 817 194.4 L 806.1 193.8 L 804.5 195.6 L 794.6 197.9 L 780.8 206.2 L 779.9 211.8 L 776.8 216 L 778 222.6 L 770.7 226 L 770.7 231.2 L 767.5 233.4 L 772.6 244.3 L 779.3 251.6 L 776.7 256.8 L 784.7 257.5 L 789.3 264 L 800 264.3 L 809.9 257.2 L 809.1 275.5 L 814.6 276.9 L 821.4 274.8 L 831.9 294.3 L 829.3 298.4 L 828.7 306.9 L 828.5 317.2 L 823.7 323.2 L 825.9 327.7 L 823.1 331.8 L 828.3 341.9 L 820.7 355 L 817.5 361.2 L 811.2 364.3 L 799.1 357.3 L 798.1 352.4 L 774.1 340.2 L 752.4 327 L 743.1 319.6 L 738.1 309.6 L 740 306.1 L 729.8 290.2 L 717.9 267.9 L 706.4 243.8 L 701.5 238.3 L 697.7 229.4 L 688.3 221.5 L 679.7 216.6 L 683.6 211.2 L 677.7 199.7 L 681.5 191.2 L 691.1 183.5 L 692.6 188.6 L 689.1 191.5 L 689.4 195.9 L 694.4 194.9 L 699.3 196.2 L 704.4 202.3 L 711.2 197.4 L 713.5 189.2 L 720.9 178.7 L 735.5 173.9 L 748.7 161.3 L 752.4 153.4 L 750.8 144.2 L 754 143.1 L 762 148.8 L 765.9 154.5 L 771.5 157.6 L 778.6 170.3 L 787.6 171.8 L 794.3 168.6 L 798.7 170.7 L 805.9 169.7 L 815.2 175.3 L 807.4 187.6 L 811 187.9 L 817 194.4 Z" />
<path class="neighbor" d="M 853.5 127.2 L 851.2 128.7 L 848.9 121.6 L 845.5 117.7 L 841.5 121.9 L 818 121.6 L 818.1 129.2 L 825.2 130.4 L 824.8 135.1 L 822.4 133.8 L 815.6 135.8 L 815.5 144.6 L 820.9 149 L 822.8 155.9 L 822.5 161.2 L 817 194.4 L 811 187.9 L 807.4 187.6 L 815.2 175.3 L 805.9 169.7 L 798.7 170.7 L 794.3 168.6 L 787.6 171.8 L 778.6 170.3 L 771.5 157.6 L 765.9 154.5 L 762 148.8 L 754 143.1 L 750.8 144.2 L 745.6 141.3 L 739.6 137.3 L 736.2 139.3 L 725.9 137.6 L 723 132.4 L 720.7 132.6 L 708.6 125.7 L 707 121.9 L 711.5 121 L 711 114.9 L 713.8 110.6 L 719.8 109.8 L 724.9 102.2 L 729.5 95.8 L 725.1 92.9 L 727.4 85.9 L 724.6 74.8 L 727.2 71.7 L 725.3 61.4 L 720.4 55 L 722 49.1 L 725.9 50 L 728.1 46.4 L 725.3 39.3 L 726.8 37.5 L 733.1 37.9 L 742.1 29.4 L 747.1 28.2 L 747.2 24.1 L 749.5 13.9 L 756.4 8.3 L 764 8.1 L 765 5.6 L 774.4 6.6 L 784 0.5 L 788.7 -2.2 L 794.5 -8.1 L 798.8 -7.3 L 802 -4.1 L 799.6 -0.1 L 791.9 2 L 788.8 8 L 784.1 11.5 L 780.6 16 L 779.1 24.6 L 775.8 31.7 L 782 32.5 L 783.6 38 L 786.2 40.7 L 787.2 45.6 L 785.8 50.1 L 786.2 52.6 L 789.2 53.6 L 792 57.8 L 807.6 56.6 L 814.6 58.2 L 823.1 68.6 L 828 67.3 L 836.7 67.9 L 843.6 66.6 L 847.9 68.6 L 845.7 75.2 L 843 79.2 L 842.1 87.9 L 844.5 95.9 L 848 99.5 L 848.4 102.2 L 842.2 108.3 L 846.6 110.9 L 849.8 115.1 L 853.5 127.2 Z" />
<path class="neighbor" d="M 927.8 79.5 L 929.4 82.9 L 925 87.5 L 911.5 92 L 902.8 93.9 L 899.3 96.8 L 889.7 93.7 L 880.7 92.2 L 878.5 93.3 L 883.9 96.4 L 883.4 104.5 L 885.1 112.2 L 895.3 113.2 L 896 115.7 L 887.3 119.2 L 885.9 124.3 L 880.9 126.3 L 871.9 129.1 L 869.6 132.8 L 860.2 133.6 L 853.5 127.2 L 849.8 115.1 L 846.6 110.9 L 842.2 108.3 L 848.4 102.2 L 848 99.5 L 844.5 95.9 L 842.1 87.9 L 843 79.2 L 845.7 75.2 L 847.9 68.6 L 843.6 66.6 L 836.7 67.9 L 828 67.3 L 823.1 68.6 L 814.6 58.2 L 807.6 56.6 L 792 57.8 L 789.2 53.6 L 786.2 52.6 L 785.8 50.1 L 787.2 45.6 L 786.2 40.7 L 783.6 38 L 782 32.5 L 775.8 31.7 L 779.1 24.6 L 780.6 16 L 784.1 11.5 L 788.8 8 L 791.9 2 L 799.6 -0.1 L 799.3 2.8 L 792.2 4.2 L 796.1 9.7 L 796 16 L 790.7 23 L 795.2 32.6 L 800.5 31.9 L 803.2 23.1 L 799.4 18.9 L 798.8 9.7 L 813.9 4.8 L 812.2 -0.9 L 816.4 -4.7 L 820.8 3.8 L 829.3 4 L 837.1 10.7 L 837.6 14.7 L 848.5 14.8 L 861.4 13.6 L 868.3 19 L 877.6 20.5 L 884.3 16.7 L 884.5 13.7 L 899.5 12.9 L 914 12.8 L 903.7 16.3 L 907.8 22 L 917.5 23 L 926.7 28.9 L 928.6 38.6 L 934.9 38.3 L 939.6 41.2 L 930 48.3 L 929 52.7 L 933.1 57.2 L 930.1 59.4 L 922.7 61.4 L 922.9 67 L 919.6 70.3 L 927.8 79.5 Z" />
<path class="neighbor" d="M 750.8 144.2 L 752.4 153.4 L 748.7 161.3 L 735.5 173.9 L 720.9 178.7 L 713.5 189.2 L 711.2 197.4 L 704.4 202.3 L 699.3 196.2 L 694.4 194.9 L 689.4 195.9 L 689.1 191.5 L 692.6 188.6 L 691.1 183.5 L 697.6 174.5 L 695 169.2 L 690.3 174.8 L 683.1 169.5 L 685.5 166.1 L 683.5 155.2 L 687.7 153.3 L 690 145.8 L 694.5 138 L 693.7 133.1 L 700.3 130.5 L 708.6 125.7 L 720.7 132.6 L 723 132.4 L 725.9 137.6 L 736.2 139.3 L 739.6 137.3 L 745.6 141.3 L 750.8 144.2 Z" />
<path class="neighbor" d="M 958.9 386.4 L 962.5 393.1 L 961.7 409.6 L 974.4 411.9 L 979.4 409.5 L 987.5 412.8 L 989.8 416.4 L 990.9 427.5 L 992.3 432.1 L 996.8 432.7 L 1001.4 430.7 L 1005.7 432.9 L 1005.7 439.6 L 1004.1 446.7 L 1001.7 453.7 L 999.7 464.4 L 988.8 473.6 L 979.2 475.6 L 965.6 473.7 L 953.4 470.4 L 965.3 452 L 963.6 446.7 L 951.1 442 L 936.4 433 L 926.5 431.2 L 904.2 411.5 L 909 397 L 909.3 390.5 L 915.1 379.8 L 936.2 376.3 L 947.4 376.5 L 958.7 382.7 L 958.9 386.4 Z" />
<path class="neighbor" d="M 1073.9 1086.4 L 1080 1086.4 L 1098 1083.7 L 1116.3 1086.4 L 1131.2 1091.6 L 1136.4 1098.9 L 1137.8 1104.1 L 1138.3 1110.3 L 1119.6 1114.1 L 1099.9 1117.2 L 1077.2 1120 L 1051.8 1122.4 L 1023.2 1121.7 L 1007.3 1117.6 L 1009.4 1112.7 L 1035.2 1109.3 L 1045.7 1105.3 L 1053.2 1100.1 L 1058.7 1095.6 L 1066 1091.3 L 1073.9 1086.4 L 1073.9 1086.4 Z M 860.6 1113.1 L 887.9 1113.5 L 913.9 1114.7 L 922.9 1109.8 L 929.3 1105.5 L 941.9 1110.5 L 938.3 1116.6 L 934.8 1122.1 L 909.4 1120.4 L 882.4 1121.1 L 867.3 1117.1 L 867.3 1116.6 L 860.6 1113.1 Z M 768.4 1004.4 L 768.4 1004.4 L 776.7 1003 L 790.7 1003.4 L 794.2 997.3 L 794.9 992.8 L 794.7 983 L 801.6 977.4 L 812.7 975.5 L 819.1 980 L 821.9 984.5 L 827.1 989.9 L 831.2 995.1 L 834.5 1000.6 L 835.9 1006 L 833.8 1010.8 L 830.5 1015.3 L 816.2 1016.9 L 802.7 1019.3 L 786.9 1019.1 L 792.8 1014.3 L 778.6 1016 L 765.1 1017.7 L 755.8 1014.1 L 755.1 1009.1 L 768.4 1004.4 Z M 424.7 1011.9 L 424.7 1011.9 L 432.3 1009.8 L 447.7 1011.5 L 465.2 1012.4 L 478.5 1014.1 L 491.7 1012.6 L 498.9 1019.5 L 489.4 1018.6 L 474.7 1019 L 459.8 1018.6 L 443.4 1019.3 L 431.1 1016.9 L 424.7 1011.9 Z M 179.3 1033.3 L 179.3 1033.3 L 181.9 1029.2 L 196.3 1031.4 L 212 1033.3 L 226.4 1031.1 L 219.6 1035.4 L 208.2 1038.5 L 191.4 1037.5 L 179.3 1033.3 Z M 122.9 1030.9 L 122.9 1030.9 L 131.7 1028.3 L 143.7 1031.1 L 162.2 1035.9 L 155.1 1035.4 L 139.5 1034.2 L 122.9 1030.9 Z M -317.7 1093 L -317.7 1093 L -310.4 1088.5 L -287.9 1090.4 L -275.8 1094.2 L -266.6 1098.4 L -263.2 1103.9 L -286.5 1105.6 L -302.3 1101.3 L -309.4 1097 L -309.9 1096.3 L -317.7 1093 Z M 3839.5 1167 L 3839.5 1230.9 L -514.7 1230.9 L -514.7 1167 L -514 1167.1 L -503.3 1160 L -481.5 1163.8 L -480.1 1163.4 L -467.4 1159.6 L -465.7 1159.7 L -464.3 1159.8 L -446.8 1164.8 L -431.5 1159.8 L -428.7 1159.1 L -393.2 1157 L -381.7 1159.8 L -376 1161.2 L -357.7 1165.3 L -323.4 1168.3 L -296.2 1172.1 L -249.5 1175 L -214.7 1171.7 L -163.3 1174 L -134.1 1177.8 L -102.1 1174.3 L -68.5 1170.9 L -65.9 1165.3 L -113.5 1164.8 L -152.6 1161.9 L -162.8 1157.2 L -195.2 1154.6 L -193.1 1149.1 L -188.6 1144.2 L -184.1 1139.7 L -186.5 1134.7 L -206.6 1131.4 L -215.8 1127.1 L -234.6 1123.3 L -205.2 1124 L -177.2 1122.1 L -159.7 1126.2 L -138.1 1122.6 L -118.2 1118.1 L -108.5 1114.1 L -112.8 1109.1 L -128.4 1105.8 L -146.2 1102.2 L -171.1 1101.5 L -192.9 1099.8 L -216.3 1098.7 L -224.1 1094.2 L -239.8 1090.4 L -249.2 1086.1 L -253 1072.4 L -247.1 1073.5 L -236.2 1077.3 L -216.3 1076.1 L -197.1 1074.5 L -187.2 1079.7 L -168 1078.5 L -151.9 1075.9 L -136.7 1072.6 L -123 1068.6 L -104.7 1067.4 L -105.2 1062.9 L -109.5 1058.4 L -105.9 1054.1 L -90.3 1052 L -83.2 1056 L -64.7 1053.6 L -50.7 1050.5 L -33.4 1050.3 L -17.1 1049.1 L -0.7 1046.3 L 12.3 1043.7 L 27 1041.1 L 36.4 1041.8 L 44.7 1042.7 L 62.7 1041.1 L 78.8 1043.2 L 95.4 1043 L 111.3 1041.3 L 127.6 1042.5 L 145.7 1043.7 L 162.5 1043.2 L 180 1043.4 L 198 1043.7 L 214.6 1043.2 L 226.9 1039.6 L 241.6 1037.8 L 256.8 1040.4 L 271.2 1038.2 L 284.2 1034 L 292.1 1037.8 L 296.3 1042 L 304.1 1046 L 316.7 1042.5 L 331.1 1047 L 347.5 1048.4 L 361.5 1051.7 L 378.5 1051 L 393.9 1048.9 L 412.2 1049.4 L 428.5 1051 L 445.1 1053.2 L 451.5 1047.9 L 443.7 1043.9 L 437.7 1039.6 L 422.1 1038.7 L 415.2 1034.2 L 412.6 1029.7 L 408.4 1020.7 L 417.6 1022.3 L 433.5 1023.1 L 449.1 1022.3 L 463.3 1024.2 L 475.6 1027.8 L 480.9 1032.1 L 497.2 1032.8 L 512.8 1031.1 L 529.4 1028.7 L 544.3 1027.3 L 556.7 1030.2 L 572.8 1029.2 L 583.2 1020 L 592.9 1025.4 L 606.9 1027.6 L 622 1026.4 L 632 1031.1 L 647.9 1031.6 L 662.6 1033 L 677 1035.6 L 686.5 1031.1 L 691.2 1026.8 L 703.3 1031.6 L 719.9 1030.4 L 732.2 1033 L 740.5 1037 L 756.6 1035.9 L 769.2 1033.2 L 781.5 1030.2 L 796.2 1028.5 L 813.2 1027.1 L 828.6 1025.4 L 840.5 1022.8 L 847.6 1019 L 850.4 1013.8 L 849 1008.8 L 845.2 1004.1 L 840.9 999.4 L 837.1 994.6 L 834.1 990.3 L 833.4 985.6 L 834.5 980.9 L 840.2 976.4 L 845 971.4 L 846.9 966.6 L 844.5 961.4 L 843.1 956.7 L 849 951.2 L 855.6 947.7 L 863.4 943.2 L 871.7 939.4 L 881.4 935.8 L 886.2 930.6 L 892.8 927.3 L 900.4 924.2 L 912 923.5 L 919.6 919.7 L 928.1 917.4 L 938.1 915.9 L 946.8 912.8 L 953.7 909.1 L 963.2 907.6 L 970.3 910.7 L 965.8 914.7 L 953.5 918.3 L 948.3 920.9 L 939.2 919 L 929.3 920.2 L 921 923 L 912.2 926.1 L 906.3 929.7 L 904.7 934.4 L 905.4 938.9 L 911.1 942.9 L 902.8 945.8 L 891.4 946.7 L 884.8 950.8 L 877.7 954.6 L 870.1 959.8 L 868.2 964.3 L 872.4 969.3 L 878.8 973 L 888.8 975.9 L 898 979.7 L 903 984.4 L 905.6 988.9 L 909.2 993.7 L 914.8 997.7 L 918.4 1002.2 L 920.1 1013.3 L 923.6 1017.8 L 924.6 1022.6 L 928.4 1027.3 L 926.7 1033.7 L 920.1 1038.7 L 913 1042.7 L 896.8 1044.4 L 891.4 1048.7 L 884.1 1052.7 L 865.8 1057.2 L 849.7 1059.1 L 834.5 1061.7 L 818.2 1064.3 L 808.5 1069.3 L 789.1 1069.7 L 767.7 1069.3 L 748.5 1070.2 L 728.2 1070.2 L 732 1075 L 750.4 1077.1 L 763.9 1080.4 L 771.5 1084.7 L 758 1088.5 L 737.2 1087.3 L 719.9 1090.4 L 719.2 1095.3 L 718.7 1100.1 L 732.9 1104.1 L 735.5 1108.6 L 750.9 1113.1 L 776.5 1115 L 798.3 1118.3 L 815.6 1122.1 L 837.6 1125.9 L 867.7 1127.8 L 897.3 1131.1 L 917.9 1134.7 L 940.4 1138.7 L 952.3 1144.4 L 958.2 1148.9 L 972.9 1144.6 L 992.8 1141.1 L 1013.9 1137.3 L 1039 1134.2 L 1060.5 1130.9 L 1090.6 1130.7 L 1120.2 1132.3 L 1144.6 1135.2 L 1152.5 1129.9 L 1169.3 1126.4 L 1199.8 1126.2 L 1223.8 1123.5 L 1246.5 1120.9 L 1271.6 1119.3 L 1298.4 1117.1 L 1317.1 1114.1 L 1308.6 1109.8 L 1303.4 1105.5 L 1303.4 1101 L 1279.9 1101.5 L 1255 1103.4 L 1231.3 1103.4 L 1228 1098.9 L 1229.7 1089.9 L 1235.1 1087.3 L 1252.4 1084.4 L 1272.8 1081.6 L 1287.5 1078 L 1302.2 1074.5 L 1313.1 1069.7 L 1329.7 1067.6 L 1346 1066 L 1354.3 1065 L 1373 1064.5 L 1390.8 1062.9 L 1405.7 1060.5 L 1420.4 1057.7 L 1433.6 1054.8 L 1450.5 1051 L 1461.1 1047 L 1472.5 1043.4 L 1476.1 1038.7 L 1463.3 1035.9 L 1467.5 1030.9 L 1475.6 1027.1 L 1488.1 1024.7 L 1501.4 1021.9 L 1513.7 1018.1 L 1523.2 1013.3 L 1529.1 1007.7 L 1537.9 1004.3 L 1552.3 1005 L 1558.3 1009.1 L 1572.7 1009.5 L 1573.2 1005 L 1579.3 1000.3 L 1592.4 1001.5 L 1595.4 1006 L 1609.9 1006.7 L 1625.5 1004.6 L 1640.7 1003.1 L 1654.4 1003.9 L 1659.6 1008.8 L 1672.9 1004.8 L 1685.2 1002.7 L 1699 1001 L 1712.5 999.4 L 1724.8 996.5 L 1738.3 994.6 L 1748.7 992 L 1756.1 987.7 L 1765.1 990.8 L 1777.6 989.2 L 1786.4 994.9 L 1793.3 999.1 L 1807 996.7 L 1812.4 992 L 1824.8 988.7 L 1840.6 989.4 L 1845.4 993.9 L 1855.3 989.4 L 1868.3 988 L 1882.6 987.5 L 1895.4 987.7 L 1908.9 989.2 L 1921.9 989.9 L 1927.6 993.9 L 1935.4 997.5 L 1948.7 995.3 L 1962.9 994.9 L 1976.6 994.9 L 1990.1 994.6 L 2002.2 993 L 2015 991.5 L 2025.6 988.2 L 2037 986.1 L 2049.3 984.9 L 2058.6 981.6 L 2065.2 974.9 L 2072.1 970.9 L 2084.6 972.8 L 2089.4 977.1 L 2099.8 979.9 L 2112.3 979 L 2120.9 983.2 L 2129.9 986.3 L 2142.2 983.5 L 2146.5 978.3 L 2157.4 976.1 L 2169.9 972.1 L 2181.8 970.4 L 2196 968.1 L 2205.4 965.5 L 2215.4 962.6 L 2224.9 960 L 2236.2 961.4 L 2247.1 957.2 L 2255 953.9 L 2266.3 954.1 L 2276.3 951.2 L 2278.6 947 L 2288.8 943.7 L 2298.8 941.3 L 2310.9 939.4 L 2322 938.4 L 2332.7 939.2 L 2344 940.3 L 2353.7 943.7 L 2354.9 948.9 L 2365.6 952.9 L 2372.9 956.2 L 2387.4 957.6 L 2395.4 961 L 2405.4 964.3 L 2417 965 L 2426.7 962.6 L 2437.1 957.6 L 2448.5 960.2 L 2460.3 961.7 L 2471.7 963.1 L 2483.6 964 L 2495.6 964 L 2505.6 976.6 L 2505.1 979.7 L 2503.7 985.1 L 2492.1 988.2 L 2482.6 992.7 L 2484.3 997.5 L 2497.8 997.2 L 2496.1 1002 L 2490 1006.5 L 2484.3 1011.4 L 2493.5 1015.2 L 2507.5 1016.4 L 2521.5 1014.3 L 2528.1 1009.5 L 2532.1 1005 L 2538.8 1001.3 L 2546.3 997.7 L 2549.4 993.4 L 2555.8 987.5 L 2563.4 986.3 L 2577.1 985.8 L 2589.2 984.4 L 2601.5 982.5 L 2607.5 977.8 L 2611 973.3 L 2619.3 968.8 L 2631.1 965.7 L 2641.3 963.3 L 2648 959.3 L 2654.8 957.2 L 2663.6 955.3 L 2675.7 956.5 L 2686.6 955.3 L 2698.4 953.9 L 2711.7 954.6 L 2720.5 951.2 L 2726.6 943.2 L 2731.1 946.5 L 2736.8 952.2 L 2747 954.6 L 2758.6 955.5 L 2770.2 954.1 L 2782.5 955 L 2793.9 955.3 L 2801.5 954.1 L 2811.7 954.8 L 2820.9 957.4 L 2831.8 955.7 L 2844.8 955.7 L 2856 954.1 L 2868.5 955.7 L 2876.6 951.7 L 2882.7 947.7 L 2891 944.4 L 2906.2 935.4 L 2914 937 L 2923.2 940.3 L 2931.3 944.6 L 2946.7 952 L 2958.5 952.2 L 2969.7 952.2 L 2982.7 950.8 L 2995.7 949.1 L 3005.7 945.8 L 3014 942.2 L 3027.5 941.8 L 3036.5 939.2 L 3045.9 941.5 L 3052.1 945.3 L 3060.6 949.1 L 3073.9 948.6 L 3082.2 951.7 L 3096.6 954.8 L 3111.8 956 L 3124.4 955 L 3133.8 951.2 L 3141.9 947.5 L 3152.8 946.5 L 3163.7 948.2 L 3176.2 949.3 L 3187.6 947.5 L 3198.5 947.5 L 3209.2 948.6 L 3220.3 949.8 L 3231.2 947.7 L 3244.2 945.8 L 3256.5 945.3 L 3270.3 945.3 L 3281.4 944.1 L 3292.3 943.2 L 3295.6 937.3 L 3296.1 932.3 L 3303.7 935.6 L 3305.8 941.1 L 3309.8 946 L 3314.8 950.1 L 3325 952.2 L 3338.7 951.5 L 3354.6 951.2 L 3365.5 950.5 L 3381.4 950.5 L 3392.8 950.3 L 3408.6 950.8 L 3422.1 951.7 L 3430.7 955.5 L 3428.3 960 L 3436.1 963.6 L 3449.1 966.4 L 3462.6 969.5 L 3478.3 971.6 L 3494.6 973.5 L 3506.9 975.4 L 3520.7 975.7 L 3528.5 971.6 L 3539.2 974.9 L 3548.4 978.7 L 3559.1 981.6 L 3573.7 982.8 L 3587.7 984.2 L 3593.6 988.9 L 3607.4 991.8 L 3616.6 996 L 3630.1 997.9 L 3644.1 997.7 L 3657.1 998.4 L 3671.6 998.2 L 3686 999.1 L 3699.5 1000.8 L 3712.1 1003.6 L 3724.7 1006 L 3733.2 1009.5 L 3731.8 1014.3 L 3725.4 1018.6 L 3719.9 1024 L 3715.6 1028.3 L 3710 1033.2 L 3694.1 1035.1 L 3687 1039.4 L 3671.3 1042 L 3665.9 1046.8 L 3657.6 1051.3 L 3648.8 1055.1 L 3643.9 1060 L 3640.8 1064.5 L 3639.6 1070 L 3639.8 1074.5 L 3646.7 1079.2 L 3649.3 1083.7 L 3655 1088 L 3677.5 1089.7 L 3682.2 1094.9 L 3660.5 1096.8 L 3642 1099.4 L 3619 1099.8 L 3608.8 1106.7 L 3606.7 1112.4 L 3601.5 1116.9 L 3595.1 1121.4 L 3611.2 1125.4 L 3617.3 1130.4 L 3627.8 1134.9 L 3642.4 1139 L 3659.3 1142.7 L 3677.5 1146.5 L 3705.2 1150.3 L 3711.4 1156.3 L 3746.2 1158.9 L 3748.5 1159.8 L 3757.6 1163.4 L 3791 1160.3 L 3818.7 1164.1 L 3839.5 1167 Z" />
<path class="lake" d="M 823.4 338.6 L 823 338.3 L 822.6 338.2 L 822 338.1 L 822 337.8 L 822.4 337.2 L 822.5 336.6 L 822.4 336.2 L 821.9 336 L 821.1 335.8 L 820.3 335.5 L 819.8 335.2 L 819.5 334.9 L 819.2 334.8 L 818.8 334.5 L 818.4 334.1 L 818 333.8 L 817.8 333.7 L 817.6 333.8 L 817.5 334 L 817.5 334.2 L 817.7 334.5 L 817.8 334.7 L 817.7 334.9 L 817.6 334.9 L 817.5 334.9 L 817.3 334.8 L 817 334.7 L 816.7 334.4 L 816.2 334.2 L 815.8 334 L 815.6 333.8 L 815.6 333.6 L 815.5 333.1 L 815.5 332.7 L 815.7 332.3 L 816 332 L 816.3 331.6 L 816.7 331.5 L 817.4 331.8 L 818 332.2 L 818.2 332.2 L 817.9 331.5 L 817.3 330.2 L 816.6 329 L 816.5 328.6 L 816.8 328.3 L 817.5 328 L 817.6 327.7 L 817.8 327.5 L 818.2 327.4 L 818.6 327.3 L 818.9 327 L 819.5 327 L 820.3 327.9 L 821.3 328.3 L 822.4 329.5 L 822.9 329.7 L 823.5 330 L 824.2 331.3 L 824.6 331.4 L 825.1 331.8 L 825.6 332 L 825.8 332.2 L 826.1 332.6 L 826.6 333 L 827.4 333.4 L 827.7 334.1 L 827.7 334.8 L 827.9 335 L 829 335.2 L 829.9 335.3 L 830.3 335.6 L 830.2 335.8 L 829.9 336.1 L 829.6 336.5 L 829.2 336.9 L 829.4 337.5 L 829.9 338.2 L 830.7 338.3 L 831.5 338.5 L 832.3 338.6 L 832.8 338.8 L 832.8 339.2 L 832.9 339.4 L 832.8 339.5 L 832.5 339.7 L 832 339.7 L 831.6 339.8 L 831.4 340 L 831.3 340.2 L 831 340.5 L 830.4 340.8 L 829.5 340.9 L 829 341 L 828.7 341.3 L 829.1 341.5 L 829.4 341.9 L 829.6 342.2 L 829.6 342.5 L 829.5 342.8 L 829.4 343 L 829 343 L 828.5 342.9 L 827.8 342.5 L 827.2 342.2 L 826.9 342.2 L 826.7 341.7 L 827.2 340.9 L 827.4 340.3 L 827.3 339.7 L 827.3 339.3 L 827.8 338.9 L 828.5 338.6 L 829 338.8 L 829.2 338.8 L 829.2 338.4 L 828.5 338 L 827.7 337.2 L 826.9 336.9 L 826.6 336.9 L 826.6 337.5 L 826.4 338 L 826.2 338.7 L 825.7 338.9 L 825.2 339 L 824.6 338.9 L 823.9 338.8 L 823.4 338.6 L 823.4 338.6 L 823.4 338.6 L 823.4 338.6 Z" />
<path class="lake" d="M 779.9 641.7 L 779.6 641 L 779.5 640.1 L 779.8 639.3 L 780.5 638.5 L 781.3 638 L 782.2 638.1 L 783.1 638.6 L 783.8 639.5 L 784.3 640.5 L 783.9 640.9 L 782.8 640.7 L 781 641.8 L 779.9 641.7 L 779.9 641.7 L 779.9 641.7 L 779.9 641.7 Z" />
<path class="lake" d="M 909.7 514.6 L 907.6 515.4 L 905.6 515.7 L 903.7 516.3 L 902.7 515.5 L 902.1 514.9 L 901.2 514.3 L 900.7 513.6 L 901.3 513.1 L 902.5 512.8 L 903.8 512.3 L 904.2 511.9 L 904.7 511.5 L 907.4 512 L 907.5 511.8 L 908 511.9 L 909 512.3 L 909.7 513.3 L 909.7 514.6 L 909.7 514.6 L 909.7 514.6 Z" />
<path class="lake" d="M 791.8 749.8 L 791.6 750.1 L 790.2 750.3 L 788.2 750.8 L 786.2 750.8 L 784.4 750.7 L 783.4 750.5 L 782 750.6 L 779.8 751.4 L 779.4 752.2 L 779.9 752.8 L 781.2 752.8 L 781.9 752.7 L 782.1 753 L 781.3 753.6 L 780.4 754.5 L 780 754.6 L 779.3 753.4 L 778.2 751.5 L 777.4 751.1 L 776.8 751.2 L 776.1 751.3 L 776 751.1 L 776.9 750.4 L 779.1 750.6 L 779.8 750.3 L 779.7 749.9 L 778.9 749.5 L 777.5 748.9 L 776.7 749.1 L 775.9 749.7 L 775.8 749.4 L 776.1 748.6 L 776 748 L 776.4 747.5 L 777 747.1 L 777.2 746.9 L 777.8 747.5 L 778.7 748.7 L 780.1 749.3 L 781.9 749.5 L 782.7 749.4 L 786.2 749.2 L 790.2 748.7 L 791.1 749.1 L 791.8 749.8 L 791.8 749.8 L 791.8 749.8 Z" />
<path class="lake" d="M 788.4 629.3 L 788.4 629.7 L 788.3 629.8 L 787.6 629.8 L 786 629.7 L 784.9 629.5 L 784.8 629 L 784.9 628.6 L 785.2 628.2 L 786.4 627.8 L 787.6 627.7 L 787.9 628 L 788.3 628.2 L 788.3 628.5 L 788.3 628.9 L 788.4 629.3 L 788.4 629.3 L 788.4 629.3 Z" />
<path class="lake" d="M 787.9 744.2 L 785.6 743.4 L 784.1 742.8 L 783 742.8 L 782.5 743 L 781.6 743 L 780.2 743.1 L 779.1 743.2 L 779.1 743 L 779.4 742.8 L 779.8 742.5 L 779.8 742.1 L 779.6 741.7 L 779.2 741.2 L 779.7 740.8 L 780.3 740.3 L 780.9 740.4 L 781.7 740.8 L 785.3 741.7 L 788.4 742.4 L 789 742.6 L 790 743.1 L 790.3 743.6 L 790.3 743.9 L 790.2 744.2 L 789.9 744.4 L 789.3 744.5 L 787.9 744.2 L 787.9 744.2 L 787.9 744.2 L 787.9 744.2 Z" />
<path class="lake" d="M 801.6 705.1 L 801.2 705.5 L 799.1 705.7 L 796.1 705.3 L 794.2 704.8 L 791.6 705 L 788.4 705.8 L 784.9 707.7 L 782.2 709.3 L 781.7 709.7 L 781.6 710.2 L 781.2 710.8 L 780.6 711 L 781 709.8 L 782 708.2 L 783 707.5 L 783.6 706.8 L 783.2 705.9 L 782.8 704.9 L 783.2 704.8 L 783.8 705.6 L 784.5 706.1 L 785.8 706 L 788.7 705 L 791.7 704 L 793.1 703.4 L 793 702.9 L 793.1 702.7 L 793.4 702.6 L 794.5 702.7 L 796.1 702.3 L 796.3 702.5 L 796.7 703.1 L 798.3 703.7 L 799.9 704 L 801 704.6 L 801.6 705.1 L 801.6 705.1 L 801.6 705.1 L 801.6 705.1 Z" />
<path class="lake" d="M 784.2 634.1 L 784.2 634.1 L 784.2 634.1 L 784.2 634.1 L 785 633.6 L 786.8 633.7 L 787.1 633.9 L 787.1 634.2 L 785.9 634.7 L 784.7 634.5 L 784.2 634.1 Z" />
<path class="lake" d="M 831.8 691.8 L 831.8 691.8 L 831.8 691.8 L 831.8 691.8 L 831.9 692.2 L 832.2 692.8 L 832.7 693.3 L 833 693.5 L 833.1 694 L 832.7 694.4 L 831.4 694.6 L 829.7 694.4 L 828.8 693 L 828.3 692.1 L 828.1 690.6 L 828.2 690.1 L 828.6 689.8 L 829.4 690.2 L 829.6 691.3 L 829.8 691.6 L 830.2 691.6 L 830.7 691.1 L 831.5 691.1 L 831.8 691.8 Z" />
<path class="country" d="M 832.3 779 L 832.3 806 L 845.2 806 L 852.5 806.4 L 848.5 811.2 L 838.1 815 L 832.2 814.6 L 825 813.6 L 816.3 810 L 803.6 808.3 L 788.4 801.5 L 776 795 L 759.4 781.4 L 769.3 784 L 786.3 792.1 L 802.4 796.4 L 808.6 790.9 L 812.5 782.6 L 823.7 777.6 L 832.3 779 Z M 820.7 355 L 826.6 363.2 L 828.2 372 L 834.6 377.1 L 830.8 388.8 L 837.3 402.3 L 842 419 L 850.7 417.4 L 852.2 420.4 L 848.1 433 L 834.9 438.9 L 835.3 459.1 L 832.7 463 L 836.4 467.7 L 827.8 475.2 L 819.9 486.6 L 815.6 497.6 L 816.7 509.3 L 809.3 521.7 L 814.8 542.6 L 818 544.8 L 818 555.9 L 811.1 567.7 L 811.3 577.9 L 802.2 585.8 L 802.2 596.9 L 805.9 608.7 L 798.7 613.1 L 795.4 623.9 L 792.6 636.2 L 794.6 651 L 789.8 653.4 L 792.6 667.4 L 798 672 L 794.1 677.1 L 799.7 679.5 L 801 684 L 795.7 686.3 L 797 693.4 L 792.6 709.4 L 786.1 719.8 L 787.6 725.9 L 783.7 733.6 L 774.4 738.9 L 775.5 751.7 L 779.8 756.1 L 787.8 755.3 L 787.6 764.4 L 792.6 771.4 L 821.8 773 L 833 774.9 L 822.3 774.8 L 816.4 777.8 L 805.5 782.2 L 803.6 793.5 L 798.5 793.8 L 784.8 789.8 L 771 781.4 L 771 781.4 L 755.9 774.5 L 752.1 766.8 L 755.6 759.7 L 749.5 751.7 L 747.9 731.1 L 753.1 719.4 L 765.8 710.1 L 747.5 706.6 L 759 695.9 L 763.1 675.8 L 776.6 680.1 L 782.9 655 L 774.8 651.8 L 771 666.9 L 763.4 665.2 L 767.2 647.9 L 771.3 625.5 L 776.8 617.2 L 773.3 605.4 L 772.4 591.8 L 777.4 591.4 L 784.9 571.9 L 793.2 552.5 L 798.4 534.5 L 795.6 516.4 L 799.2 506.4 L 797.7 491.5 L 804.8 476.7 L 807 453.3 L 810.9 428.2 L 814.6 401.1 L 813.8 381.3 L 811.2 364.3 L 817.5 361.2 L 820.7 355 Z" />

<path class="river" d="M 1025.4 161.1 L 1022.9 161.9 L 1021.4 162.5 L 1019.6 163.7 L 1017 164.6 L 1013.6 165.2 L 1011.2 166.1 L 1009.6 167 L 1008.7 168.3 L 1008.5 169.8 L 1007 170.9 L 1003.6 171.9 L 1002.9 171.9 L 1002.4 171.9 L 1001.5 171.6 L 1001.1 170.9 L 1001.1 169.6 L 1000.9 168.8 L 1000.4 168.4 L 999.7 168 L 998.7 167.6 L 997.7 167.8 L 996.6 168.6 L 995.4 168.7 L 993.9 168.3 L 992.6 167.6 L 991.6 166.4 L 990.9 165.9 L 990.5 165.6 L 989.8 165.6 L 989.1 165.7 L 988.3 166.1 L 987 166.4 L 985.3 166.6 L 983.5 167.5 L 981.6 169.1 L 980.2 170.6 L 979.3 172 L 978.4 172.9 L 977.7 173.3 L 976.9 173.5 L 975.9 173.6 L 974.8 173.4 L 973.6 172.9 L 972.4 172.9 L 971.3 173.2 L 970 172.9 L 968.7 172 L 967.7 171.5 L 966.9 171.3 L 965.7 172.4 L 964 174.6 L 962.3 176 L 960.5 176.8 L 959.3 178.2 L 958.7 180.1 L 958 181.1 L 957.6 181.2 L 957.1 181.2 L 956.3 181.1 L 955.4 180.8 L 954.2 181.1 L 953.1 182.3 L 952.6 182.8 L 951.2 182.9 L 950.1 182.6 L 949 181.9 L 947.7 181.5 L 946.2 181.4 L 944.2 180.9 L 941.7 180 L 939.9 179.6 L 938.7 179.8 L 937.9 180.2 L 937.8 180.7 L 937.6 181.1 L 937.2 181.5 L 935.4 182.3 L 934.2 182.6 L 933.3 182.3 L 931.7 182.3 L 929.5 182.5 L 927.7 183.5 L 926.3 185.2 L 924.2 186 L 921.2 186.1 L 919 186.8 L 917.4 188.3 L 915.9 189.3 L 914.6 190 L 913.8 190.1 L 912.4 189.5 L 909.2 187.9 L 908.1 187.3 L 907.8 187.3 L 907.4 187.5 L 907.1 188.4 L 905.9 188.9 L 904 189.3 L 902.1 190 L 900.2 191.1 L 899.2 191.7 L 898.6 191.6 L 898.3 191.2 L 897.8 190.4 L 897 189.8 L 895 189.2 L 893.5 189 L 892.5 189.2 L 891.4 189.2 L 890.1 188.9 L 887.9 187.9 L 884.8 186.3 L 882.8 185 L 881.4 183.5 L 878.8 181.3 L 877.4 180.2 L 875.4 178.3 L 874.1 176.7 L 872.7 175.6 L 871.5 175.1 L 870.7 174.6 L 870.4 174 L 869.5 173.7 L 867 173.9 L 865.3 172.5 L 864.4 172.2 L 863.7 172.4 L 863 172.3 L 862.3 171.9 L 861.6 172.1 L 860.9 173 L 860.1 173 L 859.2 172.3 L 858.4 171.9 L 857.7 171.7 L 857.2 172.3 L 856.9 173.7 L 856.4 174.5 L 855.6 174.9 L 854.4 175.2 L 852.9 175.4 L 851.1 175 L 848.9 174 L 847.4 174.1 L 846.5 175.1 L 845.1 176 L 843.1 176.7 L 841.8 177.8 L 840.8 180 L 840.8 181.4 L 840.6 182.1 L 840.1 182.6 L 838.8 182.7 L 836.7 182.4 L 832.7 182.8 L 826.8 184.1 L 823.6 185.3 L 823 186.6 L 822.8 187.9 L 823 189.3 L 822.7 190.4 L 822.1 191.3 L 822 192.1 L 822.6 192.7 L 822.3 193.4 L 821.1 194.4 L 819.6 194.8 L 817.6 194.7 L 816.4 194.2 L 816.2 193.6 L 815.5 192.7 L 814.6 191.9 L 813.7 191.4 L 813.4 190.7 L 812.8 189.3 L 812.1 188.9 L 811.6 188.5 L 811.2 188.6 L 810.7 188.9 L 809.9 189.2 L 809.3 189.1 L 809 189.2 L 804.9 190.3 L 803 190.6 L 802 190.3 L 801.3 189.6 L 800.2 189.2 L 798.7 189.1 L 797.3 188.6 L 796.1 187.9 L 795.3 186.5 L 795 184.6 L 794.6 183.4 L 794.1 183 L 792.6 183.3 L 790 184.3 L 788 184.7 L 785.8 184.5 L 782.5 184.2 L 780.8 184.3 L 779.5 184.7 L 778.3 185.5 L 777.3 186.4 L 776.9 188.1 L 777.2 190.5 L 777.1 191.9 L 776.8 192.3 L 776.2 192.4 L 775.4 192.2 L 775 192.4 L 775.1 193 L 774.8 193.5 L 774.2 194.1 L 773.9 194.8 L 773.6 196.1" />
<path class="river" d="M 891 107.9 L 891.9 106.1 L 892 105.2 L 891.5 104.6 L 891.2 104.1 L 891.3 103.3 L 891 100.5 L 891.4 98.9 L 892.5 97.6 L 893.9 97.4 L 895.7 98.4 L 896.9 98.6 L 897.6 98.1 L 898.1 98.4 L 898.5 99.6 L 899.1 100.5 L 899.9 101.3 L 902.1 102.4 L 905.4 103.7 L 907.9 104.4 L 909.4 104.3 L 910.5 103.9 L 911.2 103.3 L 911.9 103 L 912.8 103.1 L 913.7 102.8 L 914.6 102.3 L 915.9 102 L 917.5 102.2 L 918.6 102.2 L 919.2 101.8 L 920.3 101.7 L 921 101.5 L 921.5 100.9 L 923.5 100.6 L 926.7 100.5 L 928.6 100.6 L 929.3 101 L 929.8 102.2 L 930.4 104.3 L 929.7 106.7 L 928 109.5 L 927 111.6 L 926.9 113.3 L 926.2 114.7 L 924.9 116 L 924.2 116.8 L 924.1 117.2 L 924.3 117.8 L 924.8 118.6 L 924.3 119.8 L 922.7 121.5 L 921.5 124.6 L 920.6 128.9 L 919 132.5 L 916.9 135.4 L 915.5 139.3 L 914.6 144.3 L 914.4 147.4 L 914.8 149.3 L 914.1 151.9 L 914 153.9 L 914.2 156.2 L 914.2 157.7 L 914 159.2" />
<path class="river" d="M 800.7 611.3 L 802.1 610.3 L 802.1 609.3 L 800.7 607 L 800 606.3 L 799.7 605.4 L 799.6 604.1 L 798.8 603 L 797.3 602.1 L 796.2 601 L 795.4 599.8 L 794.5 599 L 793.6 598.6 L 792.5 598.5 L 791.3 598.7 L 790.5 598.6 L 789.8 597.8 L 788.5 597.1 L 787.3 596.8 L 785.7 596.6 L 784.6 596.3 L 783.9 595.8 L 783.2 594.8 L 782.6 593.3 L 781.8 592.4 L 780.8 592 L 780.2 591.3 L 780 590.1 L 779.5 589 L 778.7 588 L 778.1 587.5 L 777.8 587.4" />
<path class="river" d="M 736.7 126.3 L 736.7 128.6 L 737 129.6 L 738.1 130.3 L 740 130.5 L 741.4 130.4 L 743 130 L 744.2 130.3 L 744.9 131.3 L 746.9 132.2 L 750.3 133 L 752.2 134.2 L 752.8 135.6 L 753.6 136.4 L 754.7 136.6 L 755.4 137.3 L 755.6 138.5 L 756.6 139.5 L 758.3 140.2 L 759.2 141.2 L 759.3 142.4 L 759.7 143.2 L 760.3 143.6 L 761 143.7 L 761.8 143.5 L 762.5 143.5 L 763.1 143.7 L 763.7 144.2 L 764.2 144.8 L 765.4 145.6 L 767.2 146.4 L 768.8 146.9 L 770.1 147 L 771.1 147.3 L 771.9 148 L 773.2 148.6 L 774.2 148.8 L 775.2 148.6 L 776 148.8 L 776.6 149.4 L 777.6 149.4 L 778.9 149 L 779.8 149 L 780.5 149.4 L 781.3 149.5 L 782.1 149.3 L 783 149.5 L 784.2 150.3 L 785.2 150.3 L 786 149.5 L 786.7 149.3 L 787.3 149.8 L 788.1 149.7 L 789 149.2 L 789.9 149.5 L 790.6 150.8 L 791.7 151.6 L 793 152 L 793.9 152.6 L 794.6 153.4 L 795.5 153.8 L 796.6 153.8 L 797.1 154.2 L 796.9 155 L 797 155.5 L 797.3 155.8 L 797.9 155.8 L 799.1 155.6 L 800.9 155.2 L 802.1 155.6 L 803.2 156.7 L 804.3 157.4 L 805.4 157.6 L 806.3 158.2 L 807.2 158.9 L 808.2 159.4 L 809.3 159.7 L 810.4 159.8 L 811.4 159.5 L 812.7 159.8 L 814 160.5 L 814.9 160.9 L 815.3 160.8 L 816 159.7 L 817 157.8 L 818.2 157.1 L 819.4 157.5 L 820.6 157.6 L 821.5 157.2 L 822.3 157.3" />
<path class="river" d="M 801 669.5 L 802.5 669.8 L 803.5 669.3 L 804.8 667.2 M 804.9 667.2 L 805.9 663.6 L 806.7 662.2 L 807.7 661.9 L 808.2 661.3 L 808.3 660.5 L 808.7 659.6 L 809.5 658.8 L 810.2 658.2 L 810.8 657.9 L 812.8 657.8 L 816.1 658 L 818.4 658.1 L 819.6 658.4 L 821.7 660.3 L 824.8 663.8 L 826.2 666.1 L 826 667.2 L 826 667.9 L 826.4 668.3 L 828.1 669.5 L 829 670.5 L 829.7 671.8 L 830.7 672.3 L 831.9 672.1 L 833.3 672.2 L 835 672.6 L 838.7 672.4 L 847.7 671.1 L 848.3 671.1 L 848.8 671.4 L 849.3 672.1 L 850.1 672.5 L 851.2 672.7 L 853.5 672.6 L 857.8 672.1 L 858.2 672.1 L 858.6 671.7 L 858.6 671.5 L 858.5 671 L 858.8 670.6 L 859.8 669.9 L 860.8 669.4 L 862.8 668.8 L 864.3 668 L 865.3 667.2 L 866.6 666.7 L 868.3 666.6 L 869.6 666.4 L 870.4 665.9 L 872.1 665.9 L 875.7 666.5" />
<path class="river" d="M 876.6 611.7 L 881.1 612.2 L 883.6 612.6 L 885.6 613.2 L 888.5 614.5 L 892.3 616.7 L 894.9 617.9 L 896.3 618.1 L 897.8 618.7 L 899.3 619.5 L 901.4 620.1 L 904.1 620.4 L 906.3 621.4 L 908.8 624 L 909.1 624.4 L 909.4 624.7 M 812.1 569.2 L 813.1 572.8 L 813.7 574.4 L 814.9 575.5 L 817.4 576.1 L 818.6 577.4 L 819.4 579.5 L 819.7 580.9 L 819.5 581.7 L 819.5 582.7 L 819.7 583.9 L 819.4 585 L 818.8 585.9 L 818.4 587.2 L 818.1 589 L 818.2 590.1 L 818.7 590.7 L 819.4 591.2 L 820.3 591.6 L 822.2 592 L 825.1 592.2 L 826.9 592.8 L 827.7 593.8 L 829.4 594.5 L 832.2 595 L 833.9 595.5 L 834.5 596.1 L 836.6 596.6 L 840.4 597.1 L 842.6 597.9 L 843.1 598.8 L 843 599.8 L 842 600.8 L 841.6 601.6 L 841.7 602.3 L 842.1 602.7 L 842.8 602.8 L 843.7 603.5 L 844.8 604.6 L 846.5 605 L 848.8 604.8 L 850.2 605.2 L 850.9 606.4 L 852.1 607.3 L 854.9 608.2 L 856.2 608.8 L 856.8 609.4 L 857.2 610.1 L 857.8 610.6 L 858.9 610.8 L 863.3 610.9 L 865.4 611.2 L 867.1 611.6 L 868.3 611.7 L 869 611.5 L 870 611.6 L 871.2 611.9 L 873 612 L 876.5 611.7 M 274.8 -253.4 L 274 -251.5 L 273.4 -250.8 L 272.7 -250.6 L 272 -249.8 L 271.2 -248.2 L 270.3 -247.3 L 269.5 -246.8 L 269.1 -246.2 L 269.1 -245.4 L 269.2 -245.2 L 269.4 -245.2 L 269.6 -245.1 L 269.9 -244.5 L 270.3 -244.2 L 271 -244.3 L 271.4 -244 L 271.7 -243.7 L 272.3 -243.5 M 281.6 -271.9 L 279.6 -270.6 L 278.5 -269.5 L 277.4 -267.7 L 277.6 -266.3 L 277.5 -265.1 L 277.3 -264.1 L 276.8 -263.3 L 276.3 -262.5 L 275.7 -262 L 275.1 -261.8 L 274.9 -260.8 L 275 -258.8 L 275.7 -257.6 L 276.9 -257.2 L 277.6 -256.6 L 277.9 -255.7 L 277.8 -254.9 L 277.3 -254 L 276.5 -253.6 L 274.8 -253.4 M 276.4 -285.2 L 276.2 -280.9 L 276.2 -279.8 L 276.8 -278.5 L 278.7 -276 L 279 -275.4 M 274.6 -293.2 L 274.7 -292.9 L 275.3 -292.1 L 275.3 -290.8 L 275.4 -289.8 L 275.7 -289.2 L 275.8 -288.6 M 297.2 -296.4 L 293.2 -294.6 L 292.1 -293.6 L 291.7 -293 L 291.8 -291.1 L 291.4 -290.2 L 290.6 -290.2 L 288.7 -290.7 L 288 -291 M 314.1 -304.3 L 312.7 -303.3 L 311.6 -302.1 L 310.3 -300.3 L 309.5 -299 L 309.3 -298.1 L 309.4 -296.9 L 309.9 -295.5 L 309.8 -294.6 L 309.1 -294 L 307.8 -293.9 L 306 -294.3 L 304.7 -294.9 L 303.9 -295.7 L 303.2 -296 L 302.7 -295.8 L 302.2 -295.8 L 301.8 -296.1 L 301.7 -296.5 L 302.1 -297.1 L 302.1 -297.5 L 301.8 -297.8 L 301.3 -297.9 L 300.5 -297.9 L 299.4 -297.6 L 297.1 -296.4 M 382 -343.4 L 380.5 -343 L 378.8 -342.6 L 376.9 -342.5 L 375.5 -342.2 L 374.5 -341.7 L 373.1 -340.5 L 372.6 -340.2 L 372.1 -340.1 L 371.5 -340.5 L 370.7 -340.5 L 369.7 -340.3 L 368.6 -339.4 L 367.4 -337.8 L 366.6 -337.1 L 365.4 -336.6 L 361.7 -336.3 L 359.4 -336.3 L 358 -336.1 L 356.8 -335.5 L 354.9 -334.3 L 353.2 -333.1 L 352.3 -331.5 L 350.9 -330.5 L 349.4 -330.4 L 346.4 -331.6 L 345.6 -331.8 L 344.6 -331.7 L 343.4 -331 L 341.7 -329.7 L 340.8 -328.6 L 340.3 -327.1 L 339.7 -326.1 L 338.8 -325.7 L 338 -325.1 L 337.3 -324.3 L 336.8 -323.9 L 336.6 -324 L 336.4 -323.9 L 336.2 -323.1 L 335.9 -322.7 L 335.6 -322.7 L 335.3 -322.3 L 335.1 -321.5 L 334.6 -320.6 L 333.2 -319.2 L 330.4 -316.8 L 328.9 -316 L 327.5 -316 M 382.2 -346.3 L 382.5 -344 L 382.5 -343.7" />
<path class="river" d="M 847.7 534.2 L 849.2 537.5 L 849.6 539.1 L 849.4 540 L 849.5 542 L 850 545.1 L 851.4 548.6 L 853.9 552.5 L 855.1 554.7 L 855 555.5 L 854.8 556 L 854.4 556.2 L 854.2 556.8 L 854.3 557.8 L 854.5 559 L 855 560.3 L 855.7 561.8 L 856.7 563.2 L 857.4 564.7 L 857.8 566.4 L 857.7 569.9 L 857 575.3 L 855.9 578.7 L 854.5 580.3 L 854.1 582.6 L 854.5 585.5 L 854.5 587.5 L 854.1 588.5 L 854.1 589.8 L 854.5 591.1 L 854.5 592 L 854.1 592.3 L 854.6 592.9 L 856.3 593.8 L 857.6 594.8 L 858.6 595.9 L 859.6 596.5 L 860.8 596.5 L 861.6 597.2 L 862.1 598.6 L 863.3 599.6 L 865.2 600 L 866.3 601 L 866.5 602.3 L 866.3 603.2 L 865.7 603.4 L 865.2 603.9 L 864.8 604.7 L 865.2 605.4 L 866.4 605.9 L 867.2 606.5 L 867.6 607.1 L 868.6 607.9 L 870.2 608.9 L 872.4 610 L 876.6 611.7" />
<path class="river" d="M 1124.8 410.3 L 1126.5 409 L 1127.7 407.8 L 1128.9 406.3 L 1129.5 405.2 L 1129.5 404.6 L 1129.4 404.3 L 1129.1 404.3 L 1128.7 403.8 L 1128.2 402.7 L 1127.3 402.1 L 1125.5 402 M 1122.8 400.2 L 1121.9 399.2 L 1121.3 398.9 L 1120.6 398.8 L 1119.9 398.5 L 1119.2 397.9 L 1118.5 397.9 L 1117.8 398.3 L 1117.2 398.5 L 1116.6 398.4 L 1116.1 398.1 L 1115.7 397.5 M 1102.1 392.3 L 1098.9 391.8 M 1093 387.7 L 1090 385.7 L 1088.8 384.7 L 1088.4 384.3 L 1087.7 384.2 L 1086.8 384.5 L 1086 384.5 L 1085.5 384.2 L 1084.9 384 L 1084 384 L 1083.5 384.4 L 1083.5 384.9 L 1082.9 385.3 L 1082 385.3 L 1081.2 385.7 L 1080.5 385.7 L 1079.7 385.3 L 1078.8 385.4 L 1077.5 386 L 1073.2 386 L 1072 386.2 L 1071.5 387.1 L 1071.1 388.7 L 1070.7 389.5 L 1070.3 389.2 L 1070 388.4 L 1069.8 386.9 L 1069.3 386.5 L 1068.4 387.4 L 1067.7 387.8 L 1067.3 387.8 L 1066.9 387.2 L 1066.3 386.1 L 1066.2 385.1 L 1066.6 384.5 L 1066.4 384.1 L 1065.1 384 M 1053.2 382.6 L 1052.4 381.9 L 1051.7 381.7 L 1050.6 382.1 M 891.3 372.5 L 892.9 373 L 893.6 372.8 L 893.8 371.9 L 894.4 371.3 L 895.4 371 L 896.7 370.3 L 898.1 369.2 L 899.5 367.5 L 901 365.2 L 902.1 362.5 L 903.2 357.6 L 903 355.2 L 903.1 353.6 L 903.5 352 L 903.6 350.9 L 903.3 350.3 L 902.6 349.8 L 901.4 349.4 L 900.4 348.4 L 899.7 346.5 L 897.3 344.7 L 893.2 343 L 890.7 341.3 L 889.9 339.8 L 888.7 338.8 L 887.2 338.2 L 886.4 337.7 L 886.2 337.2 L 884.7 336.2 L 880.3 334.2 M 860.2 355 L 863.9 358.4 L 864.6 359.5 L 865.1 359.8 L 865.7 359.7 L 866.6 360.2 L 868.5 361.6 L 871.5 364.6 L 872.7 366 L 873.2 367 L 873.9 367.7 L 874.9 367.9 L 875.6 367.7 L 876 367.1 L 876.8 366.6 L 877.9 366.2 L 879.2 366.5 L 880.6 367.6 L 881.9 367.9 L 883 367.6 L 884.2 368.4 L 885.4 370.4 L 886.4 371.6 L 887.2 372 L 887.7 372.7 L 888.1 373.7 L 888.5 374.2 L 889 374.1 L 889.5 373.7 L 889.7 372.9 L 890.2 372.5 L 891.3 372.5" />
<path class="river" d="M 875.8 286.5 L 875.8 285.4 L 875.1 284.4 L 874.8 284.3 L 874.5 284.5 L 874.2 284.7 L 874 284.5 L 873.9 284 L 874.1 283.2 L 873.7 282.4 L 872.8 281.6 L 872.3 280.7 L 872.3 279.8 L 872.1 279.2 L 871.7 278.9 L 871.5 278.4 L 871.5 277.6 L 871.7 276.7 L 872.3 275.7 L 872.2 274.1 L 871.4 272 L 870.9 270.4 L 870.8 269.5 L 870.9 268.7 L 871.4 268.1" />
<path class="river" d="M 822.3 157.3 L 822.4 158.1 L 822.4 159.9 L 823.7 161.8 L 826.3 163.6 L 828.9 164.4 L 831.5 164.1 L 834.4 163.5 L 837.6 162.6 L 840.4 162.2 L 842.7 162.3 L 844.4 162.7 L 845.7 163.4 L 847.7 164.1 L 850.4 164.8 L 854.4 164.4 L 859.7 163 L 864.4 163.1 L 868.3 164.8 L 870.8 165.4 L 872.1 165 L 873 165.4 L 873.9 167.3 L 873.5 168.2 L 874 169.8 L 875.4 172.3 L 876.1 173.9 L 876.1 174.6 L 876.5 175.1 L 877.3 175.4 L 877.6 176 L 877.4 176.7 L 877.7 177.8 L 878.6 179 L 879 180 L 878.8 181.3" />
<path class="river" d="M 871.4 268.1 L 872.4 266.4 L 872.6 265.1 L 872.3 263.6 L 872.3 262.5 L 872.5 261.8 L 872.1 260.8 L 871.2 259.6 L 871.1 258.6 L 871.9 258 L 873.4 257.8 L 875.8 258.2 L 877.3 258.3 L 877.9 257.9 L 878.2 257.3 L 878.3 256.3 L 878.6 255.7 L 879.1 255.7 L 879.8 255.1 L 880.7 254 L 881.9 253.5 L 883.2 253.4 L 884.2 252.9 L 884.8 251.9 L 885.7 251.2 L 886.8 250.9 L 887.4 250.5 L 887.4 249.8 L 887.9 249.2 L 888.8 248.6 L 889.3 248 L 889.4 247.3 L 890.1 246.6 L 891.6 246 L 892.7 245.8 L 893.5 246 L 893.8 245.8 L 893.6 245.3 L 893.8 244.8 L 894.4 244.4 L 895.1 243.5 L 896.3 241.4 L 897.5 241.7 L 898.8 241.3 L 901.8 239.5 L 902 238.5 L 901.6 236.7 L 900.7 234 L 900.7 231.3 L 901.7 228.5 L 902.5 227.1 L 903.3 227 L 904.2 226.2 L 905.1 224.9 L 906.1 224.2 L 907.3 224 L 908.1 223.7 L 908.4 223.1 L 908.4 222.6 L 908.1 222.2 L 908.3 221.4 L 909 220.4 L 909.5 219.4 L 909.7 218.3 L 910.3 217.7 L 911 217.6 L 911.4 217.6 L 911.8 217.6 L 913.7 217.8 L 914.4 217.5 L 914.6 216.7 L 915.2 216 L 916.1 215.3 L 916.5 214.6 L 916.5 214.1 L 916.8 213.7 L 917.2 213.7 L 917.4 213.5 L 917.1 213.2 L 918 213 L 919.9 212.9 L 921.1 212.3 L 921.5 211.3 L 923.2 210.3 L 926.2 209.2 L 927.8 208.3 L 927.9 207.3 L 928.9 206.4 L 930.3 205.6 L 931.2 205.3 L 931.6 205 L 932 204.6 L 932.3 204.1 L 933.6 202.6 L 934.6 201.8 L 935.4 201.8 L 936.3 201.6 L 937.1 201 L 937.5 200.3 L 937.5 199.4 L 937.7 198.9 L 938.1 197.9 L 939.3 196 L 940.3 195.2 L 941 195.2 L 941.5 195.2 L 941.9 195.2 L 942.2 195.1 L 942.5 194.9 L 942.9 194.6 L 943.6 193.8 L 944.4 192.6 L 944.8 191.3 L 945.7 190.2 L 947.1 189.2 L 947.8 188.3 L 947.7 187.4 L 948.8 185.9 L 952.6 182.8" />
<path class="river" d="M 789.6 289.7 L 790.4 288.3 L 790.4 287 L 789.9 285.5 L 790.1 284.4 L 791.2 283.7 L 792.4 283.4 L 794.3 283.6 L 796.3 283.7 L 797.2 284.1 L 797.6 284.7 L 798.8 285.7 L 801 287.1 L 802.6 288.5 L 803.7 289.8 L 804.7 290.6 L 805.8 290.9 L 806.6 291.5 L 807.3 292.5 L 808.6 293.4 L 810.4 294.3 L 811.9 294.7 L 812.9 294.8 L 813.6 294.6 L 813.9 294.3 L 814.4 294.4 L 815.4 294.6 L 818.6 295.4 L 820.9 295.5 L 822.3 294.8 L 823.1 294.3 L 823.7 294.2 L 824.1 294.4 L 824.6 294.5 L 825 294.5 L 825.2 294.2 L 825.6 294.1 L 826 294.4 L 826.5 294.5 L 827.1 294.1 L 827.8 294 L 828.5 294.2 L 829.6 294.1 L 831.7 293.5 L 832.6 292.7 L 833.2 292.5 L 833.9 292.5 L 834.4 292 L 835 291 L 835.7 290.2 L 836.5 289.6 L 837.1 289 L 837.2 288.2 L 838 287.6 L 839.3 287.2 L 840.2 286.3 L 840.7 284.8 L 841.4 283.9 L 842.2 283.7 L 843 283.1 L 843.6 282 L 844.3 281.4 L 844.9 281.2 L 845.8 281.4 L 846.8 282 L 847.7 282.1 L 848.5 281.6 L 849.1 281 L 849.6 280.2 L 850.5 279.8 L 852.3 279.6 L 852.5 279 L 853 278.8 L 854 278.7 L 854.4 278.5 L 854.6 278.1 L 855.1 278.2 L 856 277.9 L 857.3 277 L 858.3 276.6 L 859.1 276.6 L 859.7 276.2 L 860 275.7 L 860.3 275.6 L 860.8 275.5 L 861.5 274.8 L 862.2 274.8 L 862.7 274.9 L 863.2 274.7 L 863.3 274.1 L 863.4 273.7 L 863 273.6 L 863.1 273.3 L 863.7 273 L 864.3 272.9 L 865 273.1 L 865.3 272.7 L 865.4 272.1 L 865.7 271.7 L 866.3 271.7 L 866.8 271.4 L 866.9 270.6 L 867.3 270.2 L 867.8 270.2 L 868.9 269.7 L 871.4 268.1" />
<path class="river" d="M 880.3 334.2 L 879.6 333.5 L 879 332 L 878.3 329.5 L 877.6 327.7 L 876.8 326.7 L 876.3 325.7 L 876 324.8 L 876 324.1 L 876.3 323.6 L 876 322.5 L 875.2 320.8 L 875.2 320.4 L 875.4 320.1 L 875.9 319.1 L 876.5 317.1 L 876.5 315.7 L 876 314.8 L 875.8 314.1 L 875.8 313.5 L 875.5 312.7 L 874.8 311.7 L 874.2 311.1 L 873.8 311.1 L 873.7 310.7 L 873.8 310 L 873.4 309.1 L 872.5 308 L 872.6 306.1 L 873.5 303.2 L 873.9 302.1 L 874 301.4 L 874.6 301 L 874.8 300.2 L 875 299.9 L 875.5 299.6 L 875.9 298.8 L 876 297.7 L 875.6 295.9 L 874.6 293.6 L 874.2 292.2 L 874.4 291.9 L 874.4 291.6 L 874.2 291.3 L 874.2 291 L 874.5 290.7 L 874.5 290.4 L 874.1 289.5 L 874.4 289 L 874.7 288.8 L 874.9 288.5 L 874.7 287.8 L 874.8 287.3 L 875.5 287 L 875.8 286.5" />
<path class="river" d="M 735.7 262.3 L 734.6 259 L 733.9 256.9 L 733.9 255.6 L 734.3 254.4 L 733.1 252.6 L 730.2 250.5 L 728.4 248.4 L 727.6 246.5 L 726.9 245.4 L 726.3 245.1 L 725.8 244.3 L 725.2 242.8 L 724.6 241.7 L 723.9 241 L 723.6 239.8 L 723.6 238 L 722.4 234.6 L 720.1 229.6 L 718.9 226.3 L 718.8 224.7 L 718.2 223 L 717.3 221.3 L 716.3 220.2 L 715.3 219.5 L 714.5 218.6 L 713.5 216.8 L 712.1 216 L 711.2 215.1 L 710.3 213.9 L 710.5 212.1 L 711.7 209.6 L 712.6 208.2 L 713.2 207.9 L 713.5 207.1 L 713.4 206 L 713.7 205.2 L 714.4 204.9 L 714.6 204.2 L 714.3 203.2 L 714.4 202.4 L 714.8 201.9 L 714.9 201.3 L 714.9 200.5 L 715.3 200 L 716.1 199.7 L 716.5 199.3 L 716.5 198.6 L 717 198.4 L 717.9 198.6 L 719.5 198 L 721.9 196.6 L 723.5 196 L 724.6 196 L 725.4 196.2 L 725.9 196.6 L 726.1 197.1 L 726.1 197.8 L 726.4 198.2 L 727 198.3 L 727.1 198.5 L 726.9 198.6 L 727 199 L 727.4 199.6 L 727.7 199.6 L 727.9 199.1 L 729 199.3 L 731.1 200.2 L 733.1 200.7 L 735.2 200.7 L 736.3 200.9 L 736.5 201.3 L 737 201.6 L 737.8 201.9 L 738.9 202.1 L 740.3 202 L 741.1 202.2 L 741.5 202.8 L 745.1 203.3 L 746.5 203.4 L 747 203.1 L 747.4 203.2 L 747.7 203.6 L 748.5 202.9 L 749.9 201.2 L 752.1 200.2 L 755.3 199.8 L 757.1 199.1 L 757.7 198 L 758.6 197.1 L 759.8 196.5 L 760.7 196.6 L 761.4 197.4 L 762.4 198.1 L 763.6 198.7 L 764.4 198.5 L 764.7 197.5 L 765.2 196.8 L 765.9 196.5 L 766.7 196.5 L 767.8 196.7 L 768.7 197.2 L 769.4 197.9 L 770.7 197.8 L 773.6 196.1" />
<path class="river" d="M 814.1 532.3 L 815.2 533.5 L 816.1 533.7 L 817.1 533.4 L 817.8 532.8 L 818.1 531.9 L 818.2 531.2 L 818 530.7 L 818.3 529.8 L 819.4 527.9 L 820.7 526.8 L 821.5 525.7 L 822.3 524.3 L 822.7 522.8 L 822.7 521 L 822.8 520.7" />
<path class="river" d="M 839.8 613.8 L 842.9 614.7 L 844.8 615 L 846.6 614.9 L 848.2 615.1 L 849.9 615.6 L 852.2 615.6 L 855.2 615.3 L 857.7 615.3 L 859.6 615.5 L 861.4 615.9 L 863.1 616.6 L 865 617.1 L 867 617.2 L 868.6 618.1 L 869.9 619.6 L 871 621.3 L 871.8 623 L 873.4 624.1 L 875.8 624.5 L 877.5 625.1 L 878.4 625.9 L 879.5 626.5 L 880.8 626.9 L 882.2 627.1 L 883.8 627.1 L 886.2 628.2 L 889.5 630.5 L 891.5 631.7 L 892.3 631.8 L 893.5 632.6 L 895.7 634.8 L 898.3 635.2 L 900.1 636.2 L 902.1 637.6 L 902.9 638.8 M 811.7 117.5 L 816.2 116.8 L 819.6 116.3 L 821.5 115.7 L 823 115 L 824.8 114.9 L 826.9 115.4 L 828.7 115.6 L 830.1 115.6 L 831.5 115 L 832.7 113.8 L 833.9 113.6 L 835.3 114.3 L 836.6 113.7 L 837.8 111.7 L 838.6 110.9 L 838.8 111.1 L 839.1 110.8 L 839.5 110.1 L 840.5 109.3 L 841.6 108.6 L 842.8 108.1 L 844 108.5 L 844.6 108.6 L 844.8 108.9 L 845.2 109.8 L 845.6 110 L 846.2 110.4 L 847.3 111.4 L 848.3 112.5 L 849 113 L 849.5 113.5 L 849.6 114.2 L 849.4 114.8 L 850 116.5 L 850.4 117 L 850.7 117.6 L 850.4 118.2 L 851 118.9 L 852.2 122 L 852.3 123 L 852.5 123.4 L 852.9 124.7 L 853.4 125.9 L 853.3 126.8 L 853.5 127.6 L 853.7 130 L 853.5 131 L 853 131.4 L 851.9 131.6 L 850.4 131.6 L 849.2 133.1 L 848.2 137.5 L 848.7 140.5 L 849.6 142.3 L 851.1 143.8 L 852.2 144.5 L 853 144.4 L 854.8 145 L 857.7 146.4 L 859.6 146.9 L 860.7 146.5 L 862.1 146.3 L 863.7 146.3 L 864.8 146 L 865.4 145.6 L 866.1 145.6 L 866.9 145.9 L 868 146 L 869.4 145.9 L 870.8 146.2 L 873.1 147.2 L 876.2 147.9 L 878.7 147.8 L 883.1 146.8 L 886.5 146.2 L 888.7 146 L 890.8 146.2 L 892.8 147 L 894.6 148.3 L 896.7 149.4 L 900.1 150.9 L 901.9 152.9 L 903.7 154.3 L 907.3 156.2 L 913.3 159 L 914 159.2 L 914.9 159.2 L 915.9 159.3 L 917.1 159.9 L 918.1 160.9 L 918.9 162.2 L 919.3 163.4 L 919.3 164.3 L 920.3 165.7 L 922.2 167.5 L 922.9 168.4 L 923.5 169.2 L 924.1 170.9 L 925.8 173.2 L 929.8 177.7 L 931.3 179 L 932.3 179.4 L 933.6 179.5 L 934.8 179.8 L 936.1 180.4 L 937 180.6 L 937.9 180.2" />
<path class="river" d="M 806 584.2 L 807.3 588.8 L 807.9 590.8 L 807.9 591.7 L 807.5 592.1 L 807.3 592.6 L 807.3 593.3 L 807.6 593.8 L 808.2 594.2 L 809.6 594.4 L 811.8 594.6 L 813.3 595 L 814.2 595.6 L 814.8 596.4 L 815.3 597.3 L 815.9 597.8 L 816.6 598 L 817.1 599.2 L 817.5 601.3 L 818.1 602.9 L 818.9 603.9 L 819.4 604.9 L 819.5 606.1 L 820.5 607.2 L 822.4 608.5 L 823.9 609.1 L 825.1 609.2 L 826.6 608.6 L 828.3 607.2 L 829.7 606.5 L 830.6 606.4 L 832.7 607.4 L 835.7 609.4 L 837.8 611.3 L 839.8 613.8" />
<path class="river" d="M 858.8 376.6 L 859.5 375.9 L 859.6 375.4 L 859.5 375 L 859.8 374.5 L 860.5 374.2 L 861.6 374.7 L 863.1 376 L 864.4 376.6 L 866.2 376.3 L 866.8 375.2 L 867.7 374.4 L 869.2 373.6 L 870.6 373.9 L 872 375.3 L 873.2 376.1 L 874.2 376.6 L 875.3 376.7 L 876.6 376.7 L 878.2 378.8 L 880.1 383 L 881.2 386.2 L 881.4 388.3 L 882.3 389.6 L 883.8 390 L 885 391.4 L 885.8 393.8 L 886.7 395.1 L 887.8 395.5 L 888.6 396.4 L 889.3 397.8 L 890.2 398.5 L 891.5 398.5 L 893.7 399.3 L 896.9 400.8 L 898.9 402 L 899.9 402.9 L 900.7 404 L 901.5 406.1 L 902.7 409.1 L 903.5 410.4 L 904.5 411.1 L 904.9 411.6 L 904.9 412 L 906 412.7 L 908 413.8 L 909.9 415.9 L 911.7 419 L 913.4 421.3 L 914.9 422.8 L 916.4 423.8 L 917.7 424.4 L 918.4 424.9 L 918.5 425.3 L 919.7 426.1 L 922.1 427.3 L 923.6 428.5 L 924.2 429.7 L 926.5 430.9 L 930.6 432.2 L 933.5 432.8 L 935.4 432.8 L 938 433.8 L 941.4 435.9 L 943.5 437.3 L 944.3 438.1 L 946.5 439.5 L 952.1 442.2 L 954.6 442.8 L 955.8 443.5 L 956.5 444.3 L 957.2 444.5 L 957.8 444.2 L 959.2 444.5 L 961.4 445.3 L 963 446.4 L 965.2 448.7" />
<path class="river" d="M 786.4 273.5 L 787.3 274.3 L 788.9 274.2 L 792.6 273.3 L 794 272 L 795.3 271.3 L 797.1 270.8 L 799.1 269.9 L 801.1 268.5 L 802 267.6 L 801.9 267.2 L 802.1 266.9 L 802.8 266.5 L 803.2 265.5 L 803.5 263.8 L 804.5 262.3 L 806.2 260.8 L 807.2 259.6 L 807.3 258.9 L 807.8 258.4 L 808.5 258.2 L 809.1 257.4 L 809.5 256.2 L 810.3 255.2 L 811.5 254.4 L 812.1 253.8 L 812.2 253.2 L 813 252.7 L 814.5 252.2 L 815.8 252.2 L 816.9 252.5 L 817.6 252.4 L 818 252 L 818.6 251.8 L 819.9 251.8 L 820.4 251.9 L 820.7 251.8 L 821 251.4 L 821.3 251.2 L 821.9 251.3 L 822.8 250.8 L 823.9 249.7 L 825.6 248.8 L 827.7 248.1 L 828.8 248 L 829.2 248.2 L 829.5 248.4 L 830 248.6 L 830.6 248.5 L 831.3 248.7 L 832.3 249.8 L 832.8 250.7 L 832.8 251.3 L 833.1 251.6 L 833.7 251.4 L 834 251.6 L 834.2 251.9 L 835 252 L 836.4 251.8 L 837.3 251.8 L 837.7 252 L 838.7 251.8 L 840.9 250.6 L 845.8 248.5 L 847.5 247.4 L 847.6 246.4 L 847.5 246.1 L 847.2 245.9 L 847.1 245.6 L 847.3 245 L 847.2 244.7 L 847 244.5 L 847.1 244.3 L 847.7 243.7 L 847.8 243.3 L 847.6 242.9 L 847.7 242.7 L 847.9 242.2 L 848.8 240.9 L 849.2 240 L 849 239.3 L 849.6 238.4 L 850.9 237.2 L 851.5 236.7 L 851.5 236.4 L 851.7 236.2 L 852 236.2 L 852.3 236 L 852.4 235.5 L 853 235.2 L 853.9 234.9 L 854.6 235 L 854.9 235.3 L 855.4 235.2 L 856.1 234.5 L 856.8 234.4 L 857.5 234.6 L 857.9 234.5 L 858.1 234 L 858.6 233.6 L 859.6 233.2 L 860.1 233.4 L 860.1 233.8 L 860.5 234 L 861.2 233.9 L 861.8 234.1 L 862.1 234.8 L 862.7 235 L 863.3 235 L 863.6 235.3 L 863.9 235.4 L 864.6 235.2 L 865.2 235.3 L 865.5 235.5 L 865.9 235.5 L 866.1 235.3 L 866.7 235.3 L 867.3 235.5 L 868.1 235.4 L 868.4 235 L 868.7 234.8 L 869.2 234.9 L 869.7 234.7 L 869.9 234.3 L 870.3 234.2 L 870.8 234.2 L 871 234.1 L 871 233.8 L 871.3 233.7 L 871.6 233.7 L 871.7 233.5 L 871.6 233.2 L 871.8 233 L 872.6 232.5 L 873.4 232 L 873.9 232 L 874.2 232.2 L 874.4 231.9 L 874.4 231 L 874.8 230.8 L 875 230.7 L 875.8 231 L 876.4 230.8 L 876.5 230.3 L 876.7 230.1 L 877 230.1 L 877.8 230.4 L 878.8 230.1 L 880 229.2 L 880.5 228.6 L 880.4 228.4 L 880.5 228.2 L 880.9 228.1 L 880.9 227.9 L 880.9 227.8 L 881.3 227.6 L 881.2 227.3 L 880.6 226.2 L 880.6 225.5 L 881.3 225.2 L 881.5 224.9 L 881.2 224.6 L 881.1 224.2 L 881.2 223.7 L 881.6 223.4 L 882.3 223.4 L 882.7 223.1 L 882.8 222.7 L 883.3 222.2 L 884.1 221.8 L 884.7 220.7 L 885.2 217.9 L 884.6 215.2 L 884 214.1 L 883.1 213.7 L 882.8 213.3 L 883.3 212.9 L 883.5 212.4 L 883.6 211.6 L 883.9 211.3 L 884.4 211.2 L 884.6 210.9 L 884.4 210.4 L 884.8 210.1 L 885.7 210 L 886.1 210.1 L 886.1 210.5 L 886.4 210.7 L 886.8 210.7 L 887.2 210.6 L 887.4 210.2 L 888.1 210 L 889.2 210 L 890 210.4 L 890.6 211.2 L 891.4 211.5 L 892.5 211.3 L 892.8 211.6 L 892.7 212 L 892.9 212.4 L 893.3 212.7 L 893.9 212.5 L 894.6 212 L 895.3 211.8 L 895.8 212.1 L 896.7 211.7 L 898.1 210.8 L 898.5 210.9 L 898.7 211.1 L 898.9 211.5 L 899.5 211.7 L 899.8 211.4 L 899.7 210.4 L 899.8 209.8 L 900.4 209.6 L 900.5 209.3 L 900.7 208.6 L 900.9 208.4 L 901.2 208.1 L 901.6 208.1 L 902.2 208 L 902.5 207.6 L 902.5 206.2 L 902.4 205.4 L 902.1 205.1 L 902.3 204.7 L 903 204.1 L 903.3 203.6 L 903.1 203.1 L 903.5 202.5 L 904 202.2 L 904.6 202.3 L 905.1 202.1 L 905.2 201.8 L 905.4 201.3 L 905.8 201.1 L 906.3 201.2 L 906.8 200.9 L 906.9 200.5 L 906.8 200.1 L 907 199.7 L 907.8 199.4 L 908.7 199.3 L 909.9 199.4 L 911.1 198.8 L 911.6 198.4 L 912.1 197.9 L 912.3 197.3 L 912 196.6 L 912.2 196.1 L 912.6 195.9 L 913.5 195.8 L 914 195.3 L 914.3 194.7 L 915.1 194.1 L 916.4 193.7 L 917.8 192.5 L 919.3 190.4 L 919.7 188.7 L 919 186.8" />
<path class="river" d="M 865.8 435.2 L 866.3 437.7 L 865.9 439.1 L 866.2 440.4 L 867 442.2 L 868.4 443.8 L 870.2 445.3 L 871.1 446.4 L 871.1 447.1 L 871.6 447.6 L 872.7 447.9 L 873.7 447.5 L 874.7 446.5 L 875.6 446.2 L 876.5 446.6 L 877.2 447.2 L 877.5 448 L 878.3 448.6 L 879.6 449 L 881.1 448.7 L 882.7 447.9 L 883.9 447 L 884.6 446.1 L 885.3 445.8 L 885.9 446 L 886.9 447.5 L 888.3 450.4 L 888.9 452.2 L 888.9 452.9 L 889.6 454.4 L 891 456.4 L 891.5 457.9 L 891.1 458.9 L 891.3 460.5 L 892 462.8 L 892.2 464.8 L 891.9 466.5 L 891.8 468.2 L 892.1 469.7 L 892.6 471.4 L 893.4 473.2 L 893.8 474.7 L 893.7 476.4 L 893.5 477 L 894 478.3 L 895.2 480.5 L 896.5 482.3 L 898.1 483.6 L 899 484.6 L 899.1 485.4 L 899.7 486.1 L 900.7 486.5 L 901.8 487.3 L 903.1 488.6 L 904.1 490.5 L 904.9 493 L 906.4 495 L 908.6 496.5 L 910.5 497.5 L 912.2 497.7 L 913.8 497.5 L 915.1 496.8 L 916.1 496.7 L 916.8 497.4 L 918.5 498.2 L 921.2 499.2 L 923.8 500.4 L 926.3 501.8 L 927.7 502.8 L 928.1 503.4 L 928.2 504.7 L 928 506.7 L 928.2 507.9 L 928.6 508.4 L 928.7 509.4 L 928.6 511 L 928.8 512.2 L 929.2 513 L 929.4 513.6 L 929.1 514.1 L 928.5 514.5 L 927.4 514.7 L 926.8 515.3 L 926.6 516.4 L 926.9 518.2 L 926.7 519.4 L 926 520.7 L 926 521.4 L 926.7 521.6 L 927.2 522.7 L 927.4 524.7 L 927.3 526.2 L 926.8 527.2 L 926.9 528 L 928.2 528.9" />
<path class="river" d="M 822.8 520.7 L 823 520.7 L 825.6 520.6 L 826.9 520.9 L 827.5 521.6 L 827.8 522.3 L 827.8 523.1 L 828.5 523.6 L 829.9 523.7 L 831.6 523.5 L 833.4 523.1 L 834.5 523 L 834.9 523.5 L 835.5 524.2 L 835.6 525.2 L 835.5 526.7 L 835.7 528 L 836.4 529.2 L 836.6 529.9 L 836.7 530.3 L 837.2 530.4 L 838.9 530.3 L 840.3 530.8 L 841.4 531.8 L 843 532.4 L 845.2 532.7 L 846.6 533.1 L 847.7 534.1 M 637.1 7.9 L 640.5 8.8 L 642.2 9.6 L 643.3 10.5 L 643.9 11.2 L 644 11.7 L 644.4 12 L 645.3 12 L 647.4 12.5 L 648.7 12.4 L 649.9 11.9 L 650.5 11.3 L 650.8 10.4 M 621 -5.3 L 623.8 -4" />
<path class="river" d="M 791.8 749.8 L 799.3 749.7 L 802.3 749.7 L 803.4 750 L 804.4 749.9 L 805.4 749.6 L 807.6 749.6 L 811 750 L 812.9 750 L 813.3 749.6 L 813.9 749.4 L 815 749.4 L 817.8 749.4 L 819.1 749 L 819.9 748.3 L 821.6 748.2 L 824.3 748.5 L 826.1 748.3 L 827.7 747.3 L 828.1 747.2" />
<path class="river" d="M 795.6 327.9 L 795.7 326.4 L 795.9 325.9 L 796.4 325.8 L 796.4 325.2 L 796.2 324.1 L 796.4 323 L 797.6 321.3 L 798.1 320.1 L 798.1 318.6 L 797.7 316.3 L 797.4 314.9 L 797 314.2 L 796.4 313.7 L 795.5 313.3 L 794.7 312.2 L 794 310.4 L 792.6 309.4 L 790.6 309.2 L 788.8 308.5 L 787.2 307.4 L 784.9 306.2 L 782.1 305 L 780 304.6 L 778.9 305 L 777.9 305 L 776.8 304.7 L 773.7 301.7 L 772.7 300.3 L 772.7 299.6 L 772.4 298.4 L 771.7 296.7 L 770.8 295.3 L 769.7 294.2 L 768.4 292.3 L 767 289.5 L 766.7 287.6 L 767.5 286.4 L 767 284.1 L 765.2 280.7 L 764.2 278.5 L 764.3 277.7 L 764.9 277.3 L 766.2 277.3 L 767.6 277.7 L 769.2 278.5 L 770.2 278.8 L 770.8 278.7 L 770.8 277.8 L 770.2 276 L 770.1 274.4 L 770.4 272.8 L 769.7 271.6 L 768.3 270.6 L 767.3 269.5 L 767 268.2 L 767 267.1 L 767.2 266.1 L 767.2 265.8 L 766.9 265.6 L 766.8 265.4 L 766.9 264.9 L 767.2 264.5 L 767.3 264.2 L 767.3 264 L 767 263.9 L 766.7 263.5 L 766.5 262.8 L 766.7 262.5 L 767.2 262.5 L 767.6 262.2 L 767.8 261.6 L 767.4 261.3 L 766.2 261.2 L 765.5 260.5 L 765.4 259.1 L 765.2 258 L 764.8 257.3 L 764.4 257.1 L 764.1 257.1 L 764 257 L 763.9 256.7 L 763.6 256.2 L 762.8 255.7 L 762.5 254.8 L 762.6 253.5 L 762.4 252.9 L 762 252.6 L 761.8 252.3 L 761.9 252 L 761.8 251.7 L 761.6 251.6 L 760.9 249.4 L 761.2 248 L 762.5 246.6 L 763.4 246 L 763.9 246.2 L 764.2 245.8 L 764.1 244.9 L 763.8 244.7 L 763.1 245 L 762.5 245 L 762 244.6 L 761.7 244.5 L 761.4 244.5 L 761.2 244.2 L 761.2 243 L 760.9 242.3 L 760.3 242 L 760.1 241.6 L 760.3 241.2 L 760.2 241 L 759.8 241 L 759.6 240.7 L 759.8 240.1 L 759.7 239.5 L 759.3 239 L 758.8 238.8 L 758.6 238.8 L 758.4 238.7 L 758.6 238.4 L 758.5 238.1 L 757.5 237.7 L 757 237.7 L 756.9 238.2 L 756.5 238.2 L 755.9 237.7 L 755.7 237.2 L 755.9 236.8 L 755.7 236.1 L 755.1 235.2 L 755.1 234.9 L 755.4 234.9 L 755.5 234.6 L 755.1 233.8 L 755.1 233 L 755.5 232.3 L 755 231.5 L 753.8 230.4 L 752.9 229.9 L 752.4 230.1 L 752.2 229.9 L 752.3 229.5 L 752 229.3 L 751.9 229 L 752.1 228.6 L 753.4 227.6 L 753.6 227.2 L 753.6 226.9 L 753.3 226.6 L 753.5 225.9 L 754.2 224.9 L 754.3 224 L 753.7 223 L 753.7 222.3 L 754 222 L 753.8 221.4 L 753.3 220.9 L 753.1 220.4 L 753.4 220 L 753.4 219.1 L 753 217.8 L 753.1 216.8 L 753.7 216.2 L 754.1 216.2 L 754.3 216.3 L 754.5 216.2 L 754.6 215.9 L 755.1 215.7 L 755.7 215.8 L 756.6 215.6 L 757.7 214.7 L 758.2 214.8 L 758.6 214.8 L 758.9 214.6 L 759 214.2 L 759.5 213.3 L 760.7 212 L 761.5 211.6 L 762.1 212.1 L 762.5 212.2 L 762.8 211.8 L 763 211.8 L 763.3 211.9 L 763.7 211.8 L 763.9 210.9 L 764.4 210.4 L 765 210.1 L 765.2 209.8 L 765.1 209.6 L 765.2 209.3 L 765.4 209 L 765.3 208.7 L 765.3 208.5 L 765.3 208.3 L 765.4 208.1 L 765.5 207.8 L 765.4 207.6 L 765.6 207.4 L 766.1 207 L 766.3 206.5 L 766.2 205.5 L 766.3 204.4 L 766.8 203.2 L 767 203.1 L 767.4 203.1 L 767.8 203.6 L 768.6 203.5 L 769.6 202.8 L 770.1 202.1 L 770.2 201.6 L 770.5 201.4 L 770.8 201.5 L 770.9 201.2 L 770.7 200.8 L 771 200.1 L 771.8 199.3 L 772.3 199.2 L 772.7 199.2 L 772.7 198.9 L 772.7 198.5 L 772.9 198.1 L 773.5 197.4 L 773.5 197 L 773.3 196.9 L 773.3 196.7 L 773.6 196.1" />
<g class="city"><circle cx="730.4547778915012" cy="288.06618421449116" r="5" /><text x="742.4547778915012" y="292.06618421449116">Lima</text></g>
<g class="city"><circle cx="807.881837518259" cy="546.8311867184473" r="5" /><text x="819.881837518259" y="550.8311867184473">Santiago</text></g>
<g class="city"><circle cx="695.7419803071207" cy="169.19544445653378" r="5" /><text x="707.7419803071207" y="173.19544445653378">Guayaquil</text></g>
<g class="city"><circle cx="897.6587322225826" cy="357.07987953665537" r="5" /><text x="909.6587322225826" y="361.07987953665537">Santa Cruz</text></g>
<g class="city"><circle cx="712.9169641587997" cy="144.944140982164" r="5" /><text x="724.9169641587997" y="148.944140982164">Quito</text></g>
<g class="city"><circle cx="838.1024170340738" cy="341.88906641276003" r="5" /><text x="850.1024170340738" y="345.88906641276003">La Paz</text></g>
<g class="city"><circle cx="886.0921781335827" cy="522.130585237866" r="5" /><text x="898.0921781335827" y="526.130585237866">Córdoba</text></g>
<g class="city"><circle cx="830.0394850964" cy="540.0721708859671" r="5" /><text x="842.0394850964" y="544.0721708859671">Mendoza</text></g>
<text class="map-title" x="80" y="105">Chile Physical Study Map</text>
<text class="map-subtitle" x="80" y="145">Landmark: Easter Island Moai | Study terrain and water systems</text>
  <text class="footer" x="80" y="1036">Made with Natural Earth. Free vector and raster map data @ naturalearthdata.com.</text>
</svg>
