<?xml version="1.0" encoding="UTF-8"?>
<svg xmlns="http://www.w3.org/2000/svg" width="1600" height="1100" viewBox="0 0 1600 1100" role="img" aria-labelledby="title desc">
  <title id="title">China Physical Study Map</title>
  <desc id="desc">Made with Natural Earth. Free vector and raster map data @ naturalearthdata.com.</desc>
  <defs>
    <linearGradient id="terrain" x1="0" x2="1" y1="0" y2="1">
      <stop offset="0%" stop-color="#6c8c53" />
      <stop offset="42%" stop-color="#d5c487" />
      <stop offset="72%" stop-color="#b88b5f" />
      <stop offset="100%" stop-color="#f1f5ee" />
    </linearGradient>
    <filter id="softShadow" x="-10%" y="-10%" width="120%" height="120%">
      <feDropShadow dx="0" dy="10" stdDeviation="12" flood-color="#0f172a" flood-opacity="0.16" />
    </filter>
    <style>
      .neighbor { fill: #ffffff; stroke: #94a3b8; stroke-width: 1.2; opacity: 0.72; }
      .country { fill: url(#terrain); stroke: #1f2937; stroke-width: 4; filter: url(#softShadow); }
      .admin1 { fill: none; stroke: #64748b; stroke-width: 1.1; stroke-dasharray: 6 7; opacity: 0.75; }
      .river { fill: none; stroke: #1d9bd1; stroke-width: 3; stroke-linecap: round; opacity: 0.88; }
      .lake { fill: #8ed1ea; stroke: #0ea5e9; stroke-width: 1.5; opacity: 0.8; }
      .city circle { fill: #ef4444; stroke: #ffffff; stroke-width: 2; }
      .city text, .terrain-label { fill: #172033; font: 700 24px system-ui, sans-serif; paint-order: stroke; stroke: #ffffff; stroke-width: 5; stroke-linejoin: round; }
      .map-title { fill: #0f172a; font: 800 46px system-ui, sans-serif; }
      .map-subtitle { fill: #475569; font: 600 24px system-ui, sans-serif; }
      .footer { fill: #64748b; font: 500 18px system-ui, sans-serif; }
    </style>
  </defs>
  <rect width="100%" height="100%" fill="#d8edf0" />
  <rect x="40" y="40" width="1520" height="1020" rx="32" fill="#ffffff" opacity="0.54" />
  <path class="neighbor" d="M 603.4 430.1 L 594.6 437.8 L 584.9 438.9 L 584.4 450.5 L 578 455.7 L 555 451.9 L 546.6 472.6 L 540.7 475.2 L 517.8 479.8 L 528.2 499.9 L 520.3 502.9 L 521.2 509.5 L 514.1 507.8 L 508.3 503.7 L 491.1 502.5 L 471.9 502.1 L 467.7 503.4 L 451.2 498.6 L 444.7 500.9 L 442.9 507.8 L 423.8 503.8 L 416.2 505.4 L 413.6 510.5 L 407 512.6 L 391.7 520.7 L 386.6 529 L 382.3 529.1 L 379.2 523.6 L 364.4 523.2 L 362.1 513.7 L 356.4 513.6 L 357.3 502 L 343.5 493.6 L 323.6 494.5 L 310 496.2 L 299 485.7 L 289.5 481.4 L 271.6 473.1 L 269.4 472.1 L 239.6 478.9 L 240.1 521.6 L 234.1 522.1 L 226 513.1 L 218.2 509.8 L 205.1 512.2 L 200 516.1 L 199.3 513.3 L 202.2 508.4 L 200 504.4 L 186.5 500.5 L 181.3 490.1 L 174.9 487.1 L 174.5 483.4 L 185.8 484.5 L 186.3 476 L 196.1 474.1 L 206.2 475.9 L 208.3 464.6 L 206.2 457.4 L 194.6 458 L 184.8 455.1 L 171.4 460.2 L 160.6 462.7 L 154.7 460.8 L 155.9 454.8 L 148.5 447.1 L 139.9 447.4 L 130.1 439.6 L 136.8 430.8 L 133.4 428.4 L 142.7 415.7 L 154.6 422.4 L 156 414 L 179.9 401.4 L 198 401.1 L 223.5 409.1 L 237.2 413.8 L 249.5 408.9 L 267.8 408.7 L 282.6 414.7 L 286 411.2 L 302.2 411.7 L 305.1 406.3 L 286.4 398.3 L 297.5 392.7 L 295.3 389.5 L 306.4 386.5 L 298.1 378.6 L 303.4 374.6 L 346.7 370.6 L 352.3 367.7 L 381.3 363.5 L 391.7 358.7 L 412.5 361.2 L 416.1 373.2 L 428.2 370.3 L 443.1 374.3 L 442.1 380.6 L 453.2 379.9 L 482.2 369 L 478 372.7 L 492.7 381.6 L 518.6 411 L 524.8 404.9 L 540.7 411.6 L 557.3 408.6 L 563.7 410.7 L 569.3 417.4 L 577.4 419.6 L 582.3 424.5 L 597.2 423 L 603.4 430.1 Z" />
<path class="neighbor" d="M 240.1 521.6 L 239.6 478.9 L 269.4 472.1 L 271.6 473.1 L 289.5 481.4 L 299 485.7 L 310 496.2 L 323.6 494.5 L 343.5 493.6 L 357.3 502 L 356.4 513.6 L 362.1 513.7 L 364.4 523.2 L 379.2 523.6 L 382.3 529.1 L 386.6 529 L 391.7 520.7 L 407 512.6 L 413.6 510.5 L 417 511.6 L 407.3 519.1 L 415.9 523.5 L 424.1 520.6 L 437.8 526.7 L 423 535 L 414.2 533.9 L 409.4 534.2 L 407.8 531 L 410.2 525.6 L 394.7 528.3 L 391 535.7 L 385.5 542.1 L 375.9 541.6 L 372.9 546.7 L 381.4 549.4 L 383.9 558 L 377.4 569.8 L 368.6 567.3 L 362.2 567.2 L 362.5 560.2 L 347.1 555.2 L 335 549.5 L 327.5 544.1 L 314.2 536.1 L 308.5 524.2 L 304.6 522.1 L 292.1 522.6 L 287.7 520.2 L 286.5 511 L 270.9 504.9 L 261.1 511.6 L 251.2 515.6 L 253.1 521.4 L 240.1 521.6 Z" />
<path class="neighbor" d="M 1224.1 1029.7 L 1224.3 1067.4 L 1224.5 1105.2 L 1214.2 1095.7 L 1202.5 1093.3 L 1199.6 1096.6 L 1185 1097 L 1189.9 1087.6 L 1197.2 1084.3 L 1194.1 1071.8 L 1188.6 1062 L 1166.1 1052.2 L 1156.6 1051.3 L 1139.2 1040.6 L 1135.8 1046.2 L 1131.4 1047.2 L 1128.7 1043 L 1128.7 1038 L 1119.9 1032.3 L 1132.3 1028.1 L 1140.6 1028.3 L 1139.6 1025.3 L 1122.7 1025.2 L 1118.1 1018.3 L 1107.7 1016.2 L 1102.8 1010.5 L 1118.4 1007.7 L 1124.4 1003.9 L 1143 1008.7 L 1144.8 1013 L 1148 1031.7 L 1160 1038.6 L 1169.7 1026.3 L 1182.9 1019.3 L 1193.2 1019.3 L 1203.1 1023.4 L 1211.7 1027.5 L 1224.1 1029.7 Z M 1038.6 1102.5 L 1039.8 1104.8 L 1040 1108.3 L 1032.4 1117 L 1022.5 1119.5 L 1021.1 1118.1 L 1022.2 1114.2 L 1027.2 1107.1 L 1038.6 1102.5 Z M 1145.6 1079.4 L 1144.4 1070.7 L 1146.5 1066.6 L 1148.9 1062.6 L 1151.5 1066 L 1151.5 1071.5 L 1145.6 1079.4 Z M 956.6 951.7 L 950 962.2 L 958.5 973.2 L 956.5 978.5 L 969.5 989.2 L 955.8 990.6 L 951.9 998.4 L 952.4 1008.9 L 941.3 1016.8 L 941 1028.4 L 936.5 1046.1 L 934.8 1042 L 921.7 1047.2 L 917.1 1040.1 L 908.8 1039.4 L 903.1 1035.7 L 889.3 1039.9 L 885.1 1034.3 L 877.5 1034.9 L 868 1033.6 L 866.2 1018.1 L 860.4 1014.8 L 854.9 1004.9 L 853.3 994.8 L 854.6 984.1 L 861.5 976.4 L 863.4 984.1 L 871.3 990.7 L 878.8 988.3 L 886.2 989.2 L 892.9 983.3 L 898.5 982.3 L 909.4 985.5 L 918.9 983.1 L 924.8 967 L 929.2 963 L 933.3 949.8 L 946.6 949.8 L 956.6 951.7 Z M 1089.6 1032.1 L 1102.3 1035.4 L 1106.5 1044.3 L 1096.7 1039.5 L 1087.1 1038.5 L 1080.5 1039.3 L 1072.5 1038.9 L 1075.3 1032.5 L 1089.6 1032.1 Z M 1060.7 1043.5 L 1052.7 1041.4 L 1050.4 1036.4 L 1062.1 1035.8 L 1065 1039.7 L 1060.7 1043.5 Z M 1072.9 974.5 L 1073.7 980.8 L 1080.6 981.8 L 1081.7 986.5 L 1081 996.6 L 1075.1 995.5 L 1073.3 1002.5 L 1078.1 1008.7 L 1074.8 1010 L 1070.2 1002.7 L 1066.7 987.9 L 1069.1 978.7 L 1072.9 974.5 Z M 1015 989.5 L 1028.3 989 L 1039.7 980.6 L 1041.8 983.2 L 1032.5 994.7 L 1023.8 996.9 L 1012.6 994.6 L 993.3 995.2 L 983.2 996.9 L 981.6 1005.6 L 991.9 1015.9 L 998.2 1010.7 L 1019.8 1006.8 L 1018.8 1012.1 L 1013.8 1010.4 L 1008.7 1017.2 L 998.6 1021.7 L 1009.5 1036.5 L 1007.4 1040.5 L 1017.8 1053.8 L 1017.7 1061.4 L 1011.5 1064.8 L 1007 1060.8 L 1012.6 1051.3 L 1001.2 1055.8 L 998.3 1052.6 L 999.8 1048.1 L 991.5 1041.3 L 992.4 1030 L 984.6 1033.6 L 985.6 1047.1 L 986.1 1063.6 L 978.7 1065.3 L 973.8 1061.9 L 977.1 1051.2 L 975.3 1040.1 L 970.4 1040 L 966.8 1032.1 L 971.6 1024.5 L 973.3 1015.3 L 979.1 997.8 L 981.5 993.1 L 991.4 984.5 L 1000.4 987.9 L 1015 989.5 Z M 984.5 1118.4 L 969.2 1110.2 L 980 1108 L 986 1111.5 L 990.1 1115 L 989.4 1118.1 L 984.5 1118.4 Z M 996.6 1098.4 L 1004.3 1097.5 L 1014.7 1093.3 L 1013 1099.7 L 995.6 1103 L 980.2 1101.6 L 980.2 1097.4 L 989.4 1095 L 996.6 1098.4 Z M 961 1096.4 L 968.1 1095.5 L 971 1100.4 L 957.6 1102.7 L 949.6 1104.3 L 943.4 1104.2 L 947.4 1097.5 L 953.7 1097.4 L 956.8 1093.3 L 961 1096.4 Z M 847.9 1074 L 849.4 1078.1 L 871.6 1079.2 L 874.2 1074.5 L 895.6 1080 L 899.8 1087.5 L 917.2 1089.6 L 931.4 1096.5 L 918.2 1100.9 L 905.5 1096.3 L 895 1096.6 L 883 1095.7 L 872.2 1093.6 L 858.8 1089.2 L 850.3 1088.1 L 845.4 1089.5 L 824.3 1084.7 L 822.3 1079.8 L 811.7 1078.9 L 819.7 1067.9 L 833.7 1068.5 L 843.1 1073.1 L 847.9 1074 Z M 800.2 1012.2 L 802.2 1020.3 L 806.2 1026.7 L 814.7 1027.7 L 820.3 1035.1 L 817.4 1049.5 L 817 1067.4 L 804.2 1067.6 L 794.4 1057.9 L 779.6 1048.5 L 774.6 1041.5 L 765.8 1032 L 760.1 1023.4 L 751.3 1007.2 L 741.1 997.5 L 737.7 987.6 L 733.5 978.5 L 723 971.2 L 717 961.3 L 708.3 954.9 L 696.2 942.1 L 695.2 936.2 L 702.6 936.7 L 720.5 938.9 L 730.8 950.2 L 739.7 958.1 L 746.1 962.9 L 757.1 975.3 L 768.8 975.5 L 778.6 983.4 L 785.3 993.1 L 794.1 998.4 L 789.4 1007.9 L 796.1 1011.9 L 800.2 1012.2 Z" />
<path class="neighbor" d="M 73.6 1019.1 L 66.8 1009.6 L 66.6 967.4 L 76.8 954.3 L 79.9 950.6 L 87.3 950.4 L 97.6 942.3 L 112.7 941.7 L 145.4 907 L 153.5 897.4 L 158.7 890.2 L 158.7 884.2 L 158.7 872.5 L 158.8 867.8 L 158.8 867.6 L 158.8 867.6 L 162.5 867.4 L 167.9 865.6 L 174 864.5 L 179.5 860.5 L 183.9 860.5 L 184.1 863.7 L 183.1 870.4 L 183.1 876.5 L 180.7 880.7 L 177.4 893.2 L 171.8 906.1 L 164.7 920.9 L 154.7 937.8 L 144.9 950.8 L 131.3 966.6 L 119.7 976 L 102.4 987.4 L 91.6 996.3 L 78.9 1010.3 L 76.2 1016.4 L 73.6 1019.1 Z" />
<path class="neighbor" d="M 1660.7 176.8 L 1675.5 172 L 1675.5 179.9 L 1662.8 180.5 L 1660.7 176.8 Z M 160.6 462.7 L 155.3 469.5 L 144.1 471.4 L 132.6 483.4 L 143.1 494.4 L 142 502.2 L 154.6 515.8 L 154.6 515.8 L 147.7 520.5 L 145.7 523.4 L 140.6 522.6 L 132.7 515.6 L 129.4 515.2 L 122.1 512.5 L 118.6 507.8 L 107.8 505.3 L 100.8 507.2 L 98.7 505 L 83 499.5 L 66 497.6 L 56.2 495.6 L 54.8 497 L 40 487.2 L 26.8 482.8 L 16.8 476 L 25.2 474.2 L 34.8 464.5 L 28.4 459.9 L 45.4 455.2 L 45.1 452.7 L 34.7 454.5 L 35.1 449.4 L 41.1 446.2 L 52.3 445.3 L 54.1 441.4 L 51.5 435.1 L 56.2 429 L 56.1 425.6 L 39 421.8 L 32.3 422 L 25.1 416.6 L 16.2 418.4 L 1.5 414.3 L 1.8 412 L -2.3 407 L -11.6 406.5 L -12.5 402.9 L -9.6 400.5 L -17 394 L -29 395.1 L -32.5 394.5 L -35.5 397.1 L -39.8 396.7 L -39.8 396.7 L -42.6 389.3 L -45.3 385.4 L -43.1 384.3 L -33.8 384.7 L -29.3 382.2 L -32.6 379.1 L -40.4 377.1 L -39.7 375 L -44.4 372.9 L -51.7 365.3 L -49.2 362.2 L -50.3 356.8 L -61.6 354 L -67.7 355.4 L -69.4 352.5 L -81.5 349.6 L -85.3 342.8 L -86.3 337.2 L -91.8 334.5 L -86.9 330.8 L -90.3 320 L -82.1 313.4 L -83.8 311.3 L -83.8 311.3 L -70.7 304.9 L -82.8 299.4 L -82.8 299.4 L -58 284.7 L -47.3 278 L -42.9 272.1 L -60 264.2 L -55.3 256.6 L -65.7 248 L -57.9 238.1 L -71.4 224.9 L -60.7 216.2 L -78.4 208.5 L -76.7 200.4 L -67.4 199.3 L -47.7 194.7 L -47.7 194.7 L -35.8 190.6 L -16.8 197.6 L 14.9 200.4 L 58.7 213.5 L 67.5 219 L 68.3 226.7 L 55.5 232.7 L 36.6 235.8 L -15.1 227 L -23.6 228.5 L -4.7 237 L -4 242.4 L -3.2 254.2 L 11.7 257.7 L 20.7 260.7 L 22.2 255.1 L 15.2 250.1 L 22.6 245.7 L 50.6 252.9 L 60.3 250.1 L 52.5 241.7 L 79.5 230.3 L 90.2 231 L 101 235 L 107.7 227.1 L 98.1 220.2 L 103.7 213.3 L 95.2 206.1 L 127.6 209.8 L 134.2 216.3 L 119.6 217.7 L 119.7 224.1 L 128.8 228.1 L 146.6 225.6 L 149.5 218.2 L 173.6 212.7 L 214 202.8 L 222.8 203.3 L 211.4 210.4 L 225.7 211.6 L 234 207.6 L 255.7 207.3 L 272.9 202.5 L 286.1 209.5 L 299.2 201.8 L 287.1 195.1 L 293.1 191.3 L 327.3 194.8 L 343.3 198.4 L 385.2 211.6 L 393 205.6 L 381.2 199.4 L 380.9 197 L 366.9 195.8 L 370.8 190.4 L 364.6 181.3 L 364.2 177.6 L 385.6 167.2 L 393.2 156.6 L 401.8 154.4 L 432.4 157.4 L 434.8 163.8 L 423.9 173.2 L 431.1 176.9 L 434.8 185 L 432.1 200.9 L 444.9 208 L 439.9 215.7 L 417.3 232.1 L 430.5 233.8 L 435.1 229.7 L 447.8 226.7 L 450.9 221 L 460.9 215.5 L 454.2 208.9 L 459.6 201.2 L 446.9 200.3 L 444.1 193.8 L 453.4 182.2 L 438.4 172.8 L 459.1 165 L 456.4 156.8 L 462.2 156.5 L 468.2 162.9 L 463.7 174.1 L 476.1 176.2 L 470.8 167.9 L 490.1 163.3 L 514.2 162.7 L 535.6 169.3 L 525.3 159.6 L 524.1 147.3 L 544.2 145 L 572.1 145.5 L 597.1 144 L 587.7 137.9 L 601.1 130.3 L 614.4 130 L 636.9 124.3 L 667.5 122.7 L 671.3 119.6 L 701.7 118.5 L 711.2 121.1 L 737.2 114.9 L 758.4 115.1 L 761.6 110.1 L 772.7 105.2 L 800 100.5 L 819.9 104.2 L 804.1 107.1 L 830.3 108.8 L 833.4 114.5 L 844 111.7 L 877.8 111.9 L 903.9 117.5 L 913.2 121.9 L 910.3 127.9 L 897.5 131.3 L 867.1 137.7 L 858.4 141.2 L 872.8 142.8 L 889.9 145.7 L 900.3 143.5 L 906.2 150.9 L 911.3 147.9 L 929.8 146.1 L 966.9 148 L 969.8 153.4 L 1018.1 155.2 L 1018.8 146.3 L 1043.4 148.3 L 1061.8 148.3 L 1080.5 154.4 L 1085.9 161.8 L 1079 166.6 L 1093.5 175.7 L 1111.7 180.4 L 1122.9 168.3 L 1141.5 173.5 L 1161.2 170.4 L 1183.6 173.9 L 1192.1 170.7 L 1211.1 172.3 L 1202.7 161.6 L 1218 156.6 L 1322.5 164.1 L 1332.4 170.9 L 1362.6 179.8 L 1409.4 177.6 L 1432.4 179.5 L 1442.1 184.3 L 1440.6 192.8 L 1454.9 196.1 L 1470.4 193.7 L 1490.9 193.4 L 1512.8 195.6 L 1534.7 194.4 L 1554.9 204.7 L 1569.2 201 L 1559.8 193.6 L 1565 188.4 L 1601.9 191.7 L 1626 191 L 1659.3 196.5 L 1675.5 201.5 L 1675.5 247.6 L 1675.4 247.7 L 1660.5 252.8 L 1645.5 251.9 L 1655.9 258.1 L 1662.8 267.6 L 1668.2 270.7 L 1669.5 275.5 L 1666.5 278.6 L 1645 276.1 L 1612.6 284.8 L 1602.3 286.1 L 1584.6 294.3 L 1567.8 301.4 L 1563.6 306.6 L 1547 298.6 L 1516.9 307.7 L 1511.6 303.4 L 1500.5 308.4 L 1485 306.8 L 1481.2 314.4 L 1467.4 325.6 L 1467.8 330.3 L 1481 332.9 L 1479.4 349.7 L 1468.7 350.1 L 1463.7 359.8 L 1468.5 364.8 L 1448.3 370.7 L 1444.3 383.9 L 1427 386.8 L 1423.5 398.5 L 1406.9 409.3 L 1402.6 401.3 L 1397.6 384.4 L 1391.2 358.7 L 1396.7 342.7 L 1406.5 335.8 L 1407.1 330.4 L 1425.1 327.8 L 1445.8 313.2 L 1465.7 301.3 L 1486.5 292.1 L 1495.8 275.7 L 1481.7 276.7 L 1474.8 286.3 L 1445.4 299 L 1435.9 284.7 L 1406.1 288.7 L 1377.1 308.1 L 1386.7 315.2 L 1360.8 318.2 L 1342.9 319.4 L 1343.8 311 L 1325.8 309.3 L 1311.4 314.9 L 1276.1 312.9 L 1238 316.4 L 1200.5 339 L 1156.2 366.3 L 1174.4 367.7 L 1180.1 375 L 1191.3 377.5 L 1198.7 371.8 L 1211.4 372.5 L 1228.1 385.2 L 1228.5 395.1 L 1219.5 406.6 L 1218.5 420.5 L 1213.3 439 L 1195.8 455.7 L 1192 463.7 L 1176.2 477.2 L 1160.7 490.6 L 1153.2 497.4 L 1137.8 504.2 L 1130.5 504.3 L 1123.2 498.7 L 1107.7 507.2 L 1105.9 511 L 1105.9 511 L 1105.9 511 L 1105.9 511 L 1104.2 509 L 1104.2 509 L 1104.2 503.1 L 1110.1 502.8 L 1111.7 489.1 L 1108.7 479.2 L 1118.6 475.1 L 1132.7 477.2 L 1140.5 465.9 L 1144.4 453.3 L 1148.9 449 L 1155 438.6 L 1135.9 442 L 1125.8 446.6 L 1108.3 446.6 L 1103.6 435.7 L 1089.9 427.5 L 1069.7 423.8 L 1065.4 412.4 L 1061.4 405.3 L 1057.1 400.3 L 1049.9 388.7 L 1039.8 384.4 L 1022.4 381 L 1007.1 381.3 L 992.7 383.4 L 983.2 389.1 L 989.5 391.9 L 989.6 398.3 L 983.2 402 L 972.8 414.2 L 972.9 419.3 L 956.6 426.7 L 942.7 422.3 L 928.9 423.2 L 922.8 419.4 L 915.9 418.1 L 898.9 426.3 L 883.7 428.2 L 873 431.1 L 858.5 429.2 L 847.7 429.3 L 840.7 423.4 L 829.4 417.8 L 817.8 416.3 L 803.1 417.8 L 792.2 420 L 775.8 415.1 L 773.5 406.4 L 759.9 403.4 L 749.4 402.1 L 736.5 397.3 L 724.5 409.3 L 729.2 416.1 L 717.9 424.2 L 701.2 421.3 L 689.7 420.8 L 681.9 415.4 L 669.8 415.3 L 659.8 411.7 L 642.2 417.2 L 620.1 427.1 L 607.9 429.1 L 603.4 430.1 L 597.2 423 L 582.3 424.5 L 577.4 419.6 L 569.3 417.4 L 563.7 410.7 L 557.3 408.6 L 540.7 411.6 L 524.8 404.9 L 518.6 411 L 492.7 381.6 L 478 372.7 L 482.2 369 L 453.2 379.9 L 442.1 380.6 L 443.1 374.3 L 428.2 370.3 L 416.1 373.2 L 412.5 361.2 L 391.7 358.7 L 381.3 363.5 L 352.3 367.7 L 346.7 370.6 L 303.4 374.6 L 298.1 378.6 L 306.4 386.5 L 295.3 389.5 L 297.5 392.7 L 286.4 398.3 L 305.1 406.3 L 302.2 411.7 L 286 411.2 L 282.6 414.7 L 267.8 408.7 L 249.5 408.9 L 237.2 413.8 L 223.5 409.1 L 198 401.1 L 179.9 401.4 L 156 414 L 154.6 422.4 L 142.7 415.7 L 133.4 428.4 L 136.8 430.8 L 130.1 439.6 L 139.9 447.4 L 148.5 447.1 L 155.9 454.8 L 154.7 460.8 L 160.6 462.7 Z M 677.6 62 L 702.7 59.3 L 725.2 65.2 L 751.8 76.4 L 749 86.8 L 723.7 88.2 L 691.5 84.9 L 672.3 80.4 L 663.4 72.1 L 647.6 69.9 L 677.6 62 Z M 782.5 82.1 L 811.8 88.7 L 808.4 93.4 L 743.1 97.9 L 764.3 82.7 L 773.8 81.4 L 782.5 82.1 Z M 1199 118.5 L 1229.6 119 L 1271.4 125.2 L 1262.3 133.8 L 1219.7 133.4 L 1200.5 136.2 L 1177.5 128.6 L 1183.8 120.7 L 1199 118.5 Z M 1307.7 127.7 L 1336.8 130.7 L 1323.4 135.3 L 1304.9 134.2 L 1283.4 129.7 L 1286.1 125.9 L 1307.7 127.7 Z M 1211 150.5 L 1222 146 L 1236.4 144.9 L 1252.9 149.3 L 1254.3 152.4 L 1236.7 152.4 L 1213 151.2 L 1211 150.5 Z M 111.4 67 L 134 64.9 L 151.6 64.7 L 153.9 67.9 L 160.6 65.1 L 171.5 63.2 L 188.6 65.7 L 184.2 67.5 L 168.6 69 L 158.2 69.9 L 156.6 71.8 L 143.1 73.7 L 130.5 70.9 L 137.1 67.3 L 111.4 67 Z M -144.6 370.9 L -165.8 371.1 L -180.1 369.8 L -177.5 364.7 L -161.5 360.9 L -149.4 363 L -144.3 364.8 L -145.5 368 L -144.6 370.9 Z M 211.6 146.1 L 239.3 136 L 236.2 130.7 L 262.1 124.6 L 300.3 117.2 L 338.8 115 L 358.6 110.7 L 381.1 109.2 L 389.2 113.8 L 381.4 117.4 L 340.4 123.1 L 305.1 128.7 L 269.1 139.7 L 251.9 151 L 233.7 162.1 L 236.1 171.7 L 258.2 181.2 L 251.4 182.2 L 213.6 180.7 L 210.5 175.6 L 189.5 172.5 L 187.9 166.2 L 199.7 163.7 L 199.3 157.4 L 222.3 147.6 L 211.6 146.1 Z M 1246.3 378.1 L 1250.3 389.3 L 1250 400.7 L 1254.8 412.3 L 1266.4 432.8 L 1249.3 429 L 1242.2 445.7 L 1253.5 457.6 L 1253.1 465.7 L 1244.4 458.7 L 1236.8 467.7 L 1234.6 458 L 1235.9 446.7 L 1234.6 434.2 L 1237.3 425.4 L 1237.8 410 L 1231 398.6 L 1232 382.8 L 1242.7 377.5 L 1238.1 372.1 L 1243.3 370.5 L 1246.3 378.1 Z M -2432 221.9 L -2433 229.1 L -2425.2 231.9 L -2427.9 223.5 L -2396.5 225.3 L -2373.8 236.1 L -2385.3 241.1 L -2404.3 242.3 L -2404.6 253.6 L -2409.2 256.1 L -2420 255.7 L -2428.9 251.7 L -2444.2 248.3 L -2446.8 243.3 L -2458.6 241.4 L -2471.7 242.9 L -2478 238.8 L -2475.5 234.5 L -2489.4 237.3 L -2484.2 242.7 L -2490.7 247.6 L -2490.7 201.5 L -2462.4 210.4 L -2432 221.9 Z M -2475.6 179.2 L -2490.7 179.9 L -2490.7 172 L -2489.2 171.5 L -2479.4 171.5 L -2462.7 174.8 L -2463.7 176.4 L -2475.6 179.2 Z M -20.7 467.6 L -17.6 464.7 L -9.4 467.2 L -5.7 467.7 L -4.2 470 L -2.4 470.3 L -2.3 471.3 L 3.3 474.1 L 15.1 473.4 L 12.9 477.5 L 0.2 479.6 L -15.5 486.2 L -21.9 483.9 L -19.4 478.5 L -32 475.1 L -30 472.8 L -18.9 469 L -20.7 467.6 Z" />
<path class="neighbor" d="M 189.3 719 L 191.3 718.5 L 191.8 721.7 L 200.8 719.8 L 210.4 720.1 L 217.4 720.5 L 225.3 712.7 L 234 705.2 L 241.3 698.1 L 243.5 702 L 245 711.2 L 239.1 711.2 L 238.2 718.8 L 240.2 720.4 L 235 722.7 L 235 727.4 L 231.6 732.2 L 231.3 736.8 L 229 739.3 L 194.2 733.4 L 189.7 721.7 L 189.3 719 Z" />
<path class="neighbor" d="M 180.4 713.2 L 179.6 704.7 L 182.7 698.7 L 185.9 697.4 L 189.4 701 L 189.6 707.8 L 187.1 714.6 L 183.9 715.4 L 180.4 713.2 Z" />
<path class="neighbor" d="M 147.6 652.7 L 150 657.8 L 149 660.5 L 152.7 669.2 L 144.5 669.5 L 141.6 664 L 131.3 662.9 L 139.8 651.8 L 147.6 652.7 Z" />
<path class="neighbor" d="M 46 627.4 L 41.3 613.3 L 66.9 601.3 L 71.3 587.3 L 70.2 578.9 L 76.5 576 L 82.5 568.8 L 87.4 567 L 100.9 568.5 L 105 571.4 L 110.5 569.5 L 118 583.3 L 125.6 586.7 L 126.5 593.5 L 120.7 597.5 L 118 606.5 L 126 617.5 L 140.2 623.9 L 146.1 632.7 L 144.2 641.1 L 147.9 641 L 148 647.2 L 154.4 653.3 L 147.6 652.7 L 139.8 651.8 L 131.3 662.9 L 109.8 662 L 77.2 638.7 L 59.9 630.6 L 46 627.4 Z" />
<path class="neighbor" d="M 231.3 736.8 L 231.6 732.2 L 235 727.4 L 235 722.7 L 240.2 720.4 L 238.2 718.8 L 239.1 711.2 L 245 711.2 L 250.2 719.1 L 256.7 723.3 L 265.2 724.8 L 272 726.9 L 277.3 733.5 L 280.4 737.4 L 284.5 738.9 L 284.5 741.4 L 280.3 748.3 L 278.4 751.6 L 273.6 755.3 L 269.2 763.2 L 264 762.6 L 261.6 765.4 L 259.7 771.2 L 261.1 779 L 260.1 780.4 L 254.7 780.4 L 247.5 784.7 L 246.4 790.3 L 243.7 792.8 L 236.5 792.7 L 232 795.6 L 232.1 800.3 L 226.5 803.5 L 220.1 802.4 L 212.3 806.3 L 207 806.9 L 203.2 798.8 L 194.2 779.7 L 228.9 768.2 L 236.6 745 L 231.3 736.8 Z M 243.5 702 L 241.3 698.1 L 244.6 694.2 L 246.1 695.2 L 245 699.9 L 243.5 702 Z" />
<path class="neighbor" d="M 779.6 858.6 L 776.8 844.6 L 784.2 835 L 799.2 832.8 L 810 834.5 L 819.6 839 L 824.8 831 L 835.1 835.3 L 837.8 843 L 836.3 856.9 L 816.9 865.8 L 822 872.8 L 809.8 873.6 L 799.8 878.3 L 790.1 876.6 L 785.4 870.6 L 779.6 858.6 Z" />
<path class="neighbor" d="M 810 834.5 L 799.2 832.8 L 784.2 835 L 776.8 844.6 L 779.6 858.6 L 769.2 853.3 L 759.3 853.5 L 761 844.4 L 750.8 844.5 L 749.9 857.2 L 743.6 874.1 L 739.9 884.3 L 740.6 892.7 L 748.2 893.1 L 752.9 903.6 L 755 913.7 L 761.4 920.3 L 768.4 921.6 L 774.4 927.6 L 770.6 932.4 L 763 933.8 L 762.1 927.8 L 752.7 922.8 L 750.6 924.8 L 746.1 920.4 L 744.1 914.6 L 737.9 908.1 L 732.3 902.6 L 730.4 909.4 L 728.2 903 L 729.5 895.8 L 732.9 884.7 L 738.5 872.8 L 744.9 862 L 740.3 851.4 L 740.5 846.1 L 739.2 839.6 L 731.5 830.4 L 728.7 824.6 L 732.7 822.5 L 737 812.4 L 732.2 804.8 L 724.9 796.3 L 719.3 786.2 L 724.2 784.1 L 729.4 771.6 L 737.6 771 L 744.4 766 L 751 763.3 L 756 766.9 L 756.7 773.9 L 764.5 774.4 L 761.6 786.6 L 761.9 797 L 774.1 790.1 L 777.6 792.1 L 784.4 791.8 L 786.7 787.7 L 795.4 788.5 L 804.2 797.9 L 805 809.4 L 814.3 819.4 L 813.8 829.2 L 810 834.5 Z" />
<path class="neighbor" d="M 835.1 835.3 L 824.8 831 L 819.6 839 L 810 834.5 L 813.8 829.2 L 814.3 819.4 L 805 809.4 L 804.2 797.9 L 795.4 788.5 L 786.7 787.7 L 784.4 791.8 L 777.6 792.1 L 774.1 790.1 L 761.9 797 L 761.6 786.6 L 764.5 774.4 L 756.7 773.9 L 756 766.9 L 751 763.3 L 753.5 759.1 L 763.3 751.6 L 764.3 754.3 L 770.5 754.6 L 768.8 741.3 L 774.8 739.7 L 781.5 748.8 L 786.7 759.3 L 801 759.4 L 805.5 769.5 L 798.1 772.5 L 794.7 776.7 L 808.6 783.6 L 818.2 797.3 L 825.5 807.5 L 834.3 815.5 L 837.2 823.7 L 835.1 835.3 Z" />
<path class="neighbor" d="M 751 763.3 L 744.4 766 L 737.6 771 L 729.4 771.6 L 724.2 784.1 L 719.3 786.2 L 724.9 796.3 L 732.2 804.8 L 737 812.4 L 732.7 822.5 L 728.7 824.6 L 731.5 830.4 L 739.2 839.6 L 740.5 846.1 L 740.3 851.4 L 744.9 862 L 738.5 872.8 L 732.9 884.7 L 731.8 876.1 L 735.4 867.2 L 731.5 860.4 L 732.4 847.8 L 727.7 841.8 L 723.9 827.9 L 721.8 813.3 L 716.8 803.7 L 709.2 809.5 L 696.1 817.8 L 689.6 816.7 L 682.4 814 L 686.4 799.7 L 684 788.9 L 674.9 775.5 L 676.3 771.3 L 669.5 769.9 L 661.3 760.4 L 660.6 751.1 L 664.6 752.9 L 664.9 744.6 L 670.6 741.8 L 669.3 736.9 L 672 733 L 672.4 721 L 681.4 723.6 L 686.6 714.1 L 687.2 708.4 L 693.6 698.7 L 693.2 692.1 L 708.2 684.1 L 716.5 686.2 L 715.5 679.1 L 719.6 677 L 718.7 672.6 L 725.5 671.7 L 729.4 678.5 L 734.4 681.3 L 734.7 690.1 L 734.3 699.7 L 723.3 709.3 L 721.9 723.1 L 734.1 721.2 L 736.9 731.8 L 744.2 734 L 740.9 743.7 L 749.5 748 L 754.5 750.1 L 763 746.8 L 763.3 751.6 L 753.5 759.1 L 751 763.3 Z" />
<path class="neighbor" d="M 799.8 878.3 L 809.8 873.6 L 822 872.8 L 816.9 865.8 L 836.3 856.9 L 837.8 843 L 835.1 835.3 L 837.2 823.7 L 834.3 815.5 L 825.5 807.5 L 818.2 797.3 L 808.6 783.6 L 794.7 776.7 L 798.1 772.5 L 805.5 769.5 L 801 759.4 L 786.7 759.3 L 781.5 748.8 L 774.8 739.7 L 781 736.8 L 790.2 736.9 L 801.5 735.6 L 811.3 729.4 L 816.9 733.7 L 827.5 735.8 L 825.7 742.5 L 831.2 747.2 L 842.8 750.2 L 827.4 760.1 L 817.7 771 L 815.2 779.1 L 824 791.3 L 834.8 806.4 L 845.3 813.5 L 852.4 822.8 L 857.7 844.3 L 856.1 864.6 L 846.5 872.2 L 833.2 879.7 L 823.8 889.3 L 809.3 900.1 L 805.1 892.7 L 808.4 884.8 L 799.8 878.3 Z" />
<path class="neighbor" d="M 1105.9 511 L 1105.9 511 L 1105.9 511 L 1105.9 511 Z M 1104.2 509 L 1104.2 509 L 1105.9 511 L 1101.5 510.3 L 1096.4 514.3 L 1093 518.2 L 1093.4 526.5 L 1087.4 529.1 L 1085.4 531.1 L 1081 534.5 L 1073.3 536.4 L 1068.3 539.5 L 1067.9 544.5 L 1066.6 545.8 L 1071.2 547.7 L 1077.7 552.8 L 1076.1 555.6 L 1071.1 556.3 L 1063 556.9 L 1058.5 562.1 L 1053.3 561.7 L 1052.6 562.8 L 1046.9 560.6 L 1045.5 562.7 L 1042.2 563.7 L 1041.7 561.5 L 1038.7 560.5 L 1035.6 558.6 L 1038.8 553.5 L 1041.5 552.2 L 1040.5 550 L 1043.4 543.8 L 1042.7 541.9 L 1035.9 540.7 L 1030.5 537.5 L 1039.9 530.1 L 1052.6 523.9 L 1060.6 515.7 L 1066.1 519.3 L 1076.1 519.7 L 1074.3 513.6 L 1092.2 508.7 L 1096.8 502.2 L 1104.2 509 Z" />
<path class="neighbor" d="M 1052.6 562.8 L 1053.3 561.7 L 1058.5 562.1 L 1063 556.9 L 1071.1 556.3 L 1076.1 555.6 L 1077.7 552.8 L 1087.7 566.4 L 1090.6 573.9 L 1090.7 587.3 L 1086.3 593.6 L 1075.8 595.9 L 1066.6 600.7 L 1056.2 601.6 L 1054.9 595.3 L 1057 586.7 L 1051.9 574.6 L 1060.5 572.7 L 1052.6 562.8 Z" />
<path class="neighbor" d="M 607.9 429.1 L 620.1 427.1 L 642.2 417.2 L 659.8 411.7 L 669.8 415.3 L 681.9 415.4 L 689.7 420.8 L 701.2 421.3 L 717.9 424.2 L 729.2 416.1 L 724.5 409.3 L 736.5 397.3 L 749.4 402.1 L 759.9 403.4 L 773.5 406.4 L 775.8 415.1 L 792.2 420 L 803.1 417.8 L 817.8 416.3 L 829.4 417.8 L 840.7 423.4 L 847.7 429.3 L 858.5 429.2 L 873 431.1 L 883.7 428.2 L 898.9 426.3 L 915.9 418.1 L 922.8 419.4 L 928.9 423.2 L 942.7 422.3 L 937 431 L 928.9 442.6 L 931.8 447.3 L 938.4 445.8 L 949.8 447.6 L 958.7 443.4 L 968 447.1 L 978.5 455.2 L 977.2 459.3 L 968.1 458 L 951.3 459.5 L 943.1 462.8 L 934.6 470.4 L 917 474.9 L 905.5 481.1 L 893.6 478.7 L 887.1 477.7 L 881 485.1 L 884.7 489.6 L 886.5 493.4 L 878.4 497.3 L 870.1 503.5 L 856.6 507.6 L 839.3 508 L 820.6 512 L 807.1 518.2 L 802 514.6 L 788 514.6 L 770.9 507.6 L 759.4 505.9 L 744 507.5 L 720.2 504.9 L 707.4 505.2 L 700.6 498.3 L 695.3 487.6 L 688.2 486.4 L 674.2 479.1 L 658.6 477.5 L 644.9 475.5 L 640.7 470.5 L 645.2 457 L 637.2 447.7 L 620.7 443.3 L 610.9 437.2 L 607.9 429.1 Z" />
<path class="neighbor" d="M 718.7 672.6 L 719.6 677 L 715.5 679.1 L 716.5 686.2 L 708.2 684.1 L 693.2 692.1 L 693.6 698.7 L 687.2 708.4 L 686.6 714.1 L 681.4 723.6 L 672.4 721 L 672 733 L 669.3 736.9 L 670.6 741.8 L 664.9 744.6 L 658.8 726.2 L 655.6 726.2 L 653.7 733.6 L 647.3 727.6 L 650.9 721 L 656.1 720.4 L 661.4 710.6 L 654.7 708.6 L 644 708.8 L 633 707.2 L 632 699.1 L 626.5 698.6 L 617.3 693.6 L 613.2 701.4 L 621.6 707.6 L 614.3 711.9 L 611.8 716.1 L 618.9 719.2 L 616.9 726.2 L 620.9 734.9 L 622.7 744.4 L 621.1 748.6 L 613.2 748.5 L 598.9 750.9 L 599.6 759.6 L 593.4 766.4 L 576.8 774.2 L 563.8 787.8 L 555.1 795.1 L 543.6 802.7 L 543.6 808 L 537.8 810.9 L 527.4 815 L 522 815.6 L 518.5 824.5 L 520.9 839.5 L 521.5 849.1 L 516.6 860.1 L 516.6 879.8 L 510.6 880.3 L 505.3 889.2 L 508.8 893 L 498.3 896.3 L 494.4 904.1 L 489.7 907.4 L 478.8 896.6 L 473.4 880.4 L 469 868.8 L 464.9 863.3 L 458.8 852.2 L 455.9 837.7 L 453.9 830.5 L 443.4 814.6 L 438.6 792.1 L 435.1 777.3 L 435.2 763.3 L 432.9 752.5 L 416.1 759.4 L 407.9 758 L 392.8 744 L 398.4 739.8 L 394.9 735.3 L 381.4 725.5 L 389.1 717.7 L 414.5 717.8 L 412.2 707.8 L 405.7 702 L 404.4 693 L 396.8 687.9 L 409.6 675.7 L 423 676.6 L 435.1 664.5 L 442.4 652.7 L 453.6 641.1 L 453.5 632.9 L 463.3 626.2 L 454 620.5 L 450 612.6 L 445.9 602.5 L 451.5 597.5 L 469.1 600.3 L 482 598.6 L 493.2 588.9 L 505.6 602.4 L 504.4 611.9 L 509 617.8 L 508.7 623.7 L 500.4 622.1 L 503.6 634.9 L 515 642.2 L 531.1 650.3 L 523.7 655.6 L 519.2 666.4 L 530.4 670.8 L 541.3 676.5 L 556.4 682.9 L 572.3 684.4 L 579 690.3 L 587.9 691.4 L 601.8 694.1 L 611.5 693.9 L 612.8 689.4 L 611.3 682 L 612.2 677 L 619.2 674.6 L 620.2 683.7 L 620.4 686 L 631 690.4 L 638.2 688.6 L 648 689.4 L 657.5 689 L 658.3 681.9 L 653.6 678.2 L 662.9 676.8 L 673.4 668.2 L 686.8 660.8 L 696.5 663.7 L 704.7 658.8 L 710.1 666 L 706.2 670.8 L 718.7 672.6 Z" />
<path class="neighbor" d="M 664.9 744.6 L 664.6 752.9 L 660.6 751.1 L 661.3 760.4 L 658 754.4 L 657.4 748.5 L 655.2 742.9 L 650.3 736.2 L 639.7 735.7 L 640.7 740.5 L 637.1 746.9 L 632.2 744.6 L 630.5 746.7 L 627.2 745.4 L 622.7 744.4 L 620.9 734.9 L 616.9 726.2 L 618.9 719.2 L 611.8 716.1 L 614.3 711.9 L 621.6 707.6 L 613.2 701.4 L 617.3 693.6 L 626.5 698.6 L 632 699.1 L 633 707.2 L 644 708.8 L 654.7 708.6 L 661.4 710.6 L 656.1 720.4 L 650.9 721 L 647.3 727.6 L 653.7 733.6 L 655.6 726.2 L 658.8 726.2 L 664.9 744.6 Z" />
<path class="neighbor" d="M 653.6 678.2 L 658.3 681.9 L 657.5 689 L 648 689.4 L 638.2 688.6 L 631 690.4 L 620.4 686 L 620.2 683.7 L 627.9 675.1 L 634.1 672.2 L 642.4 674.8 L 648.5 675.1 L 653.6 678.2 Z" />
<path class="neighbor" d="M 612.2 677 L 611.3 682 L 612.8 689.4 L 611.5 693.9 L 601.8 694.1 L 587.9 691.4 L 579 690.3 L 572.3 684.4 L 556.4 682.9 L 541.3 676.5 L 530.4 670.8 L 519.2 666.4 L 523.7 655.6 L 531.1 650.3 L 535.9 647.6 L 545.1 651.1 L 556.8 658.7 L 563.3 660.3 L 567.2 665.9 L 576.2 668.2 L 585.6 673.2 L 598.7 675.9 L 612.2 677 Z" />
<path class="neighbor" d="M 493.2 588.9 L 482 598.6 L 469.1 600.3 L 451.5 597.5 L 445.9 602.5 L 450 612.6 L 454 620.5 L 463.3 626.2 L 453.5 632.9 L 453.6 641.1 L 442.4 652.7 L 435.1 664.5 L 423 676.6 L 409.6 675.7 L 396.8 687.9 L 404.4 693 L 405.7 702 L 412.2 707.8 L 414.5 717.8 L 389.1 717.7 L 381.4 725.5 L 372.9 722.5 L 369.4 714.2 L 360.5 705.4 L 339.2 707.6 L 320.4 707.8 L 304.1 709.4 L 308.4 696 L 325.1 690 L 324.2 684.7 L 318.6 682.8 L 318.3 672.6 L 307.2 667.5 L 302.6 660.5 L 296.9 654.4 L 316.2 660.3 L 327.8 658.6 L 334.7 660.1 L 337.1 657.5 L 345.1 658.6 L 360.2 653.7 L 360.6 643.9 L 367 637.3 L 375.7 637.4 L 376.9 634.1 L 385.8 632.6 L 390 633.7 L 394.6 630.4 L 393.9 623.5 L 398.8 616.5 L 406.2 613.6 L 401.7 605.9 L 412.7 606.3 L 415.9 602.1 L 415.4 597.7 L 421.1 592.8 L 419.8 587.1 L 417.1 582.2 L 423.8 577.1 L 436.3 574.7 L 449.5 573.3 L 455.4 571.2 L 462.2 569.9 L 470.7 575.3 L 474.1 584.2 L 493.2 588.9 Z" />
<path class="neighbor" d="M 362.2 567.2 L 368.6 567.3 L 377.4 569.8 L 380.9 571.2 L 389.3 567.5 L 393.2 569.7 L 396.9 564.4 L 403.8 564.6 L 405.6 562.9 L 406.8 558.3 L 411.8 554.2 L 418.1 556.9 L 416.8 560.4 L 420.3 561 L 419.2 570.7 L 423.8 574.5 L 427.8 572 L 433 570.9 L 440.2 565.7 L 448.2 566.6 L 460.1 566.6 L 462.2 569.9 L 455.4 571.2 L 449.5 573.3 L 436.3 574.7 L 423.8 577.1 L 417.1 582.2 L 419.8 587.1 L 421.1 592.8 L 415.4 597.7 L 415.9 602.1 L 412.7 606.3 L 401.7 605.9 L 406.2 613.6 L 398.8 616.5 L 393.9 623.5 L 394.6 630.4 L 390 633.7 L 385.8 632.6 L 376.9 634.1 L 375.7 637.4 L 367 637.3 L 360.6 643.9 L 360.2 653.7 L 345.1 658.6 L 337.1 657.5 L 334.7 660.1 L 327.8 658.6 L 316.2 660.3 L 296.9 654.4 L 307.4 643.9 L 306.4 636.5 L 297.6 634.5 L 296.7 627.2 L 292.9 617.9 L 297.9 611.6 L 292.9 609.9 L 296 601.5 L 300.8 587.1 L 312.6 591.5 L 321.3 589.9 L 323.7 584.7 L 332.8 582.9 L 339.4 579.4 L 341.7 570.1 L 351.4 567.9 L 353.2 563.8 L 358.7 566.9 L 362.2 567.2 Z" />
<path class="neighbor" d="M 377.4 569.8 L 383.9 558 L 381.4 549.4 L 372.9 546.7 L 375.9 541.6 L 385.5 542.1 L 391 535.7 L 394.7 528.3 L 410.2 525.6 L 407.8 531 L 409.4 534.2 L 414.2 533.9 L 410 537.5 L 397.4 535.5 L 396.3 542.2 L 408.8 541.3 L 423.1 545.1 L 445 543.3 L 447.9 554 L 451.7 552.8 L 458.8 555.5 L 458.4 560 L 460.1 566.6 L 448.2 566.6 L 440.2 565.7 L 433 570.9 L 427.8 572 L 423.8 574.5 L 419.2 570.7 L 420.3 561 L 416.8 560.4 L 418.1 556.9 L 411.8 554.2 L 406.8 558.3 L 405.6 562.9 L 403.8 564.6 L 396.9 564.4 L 393.2 569.7 L 389.3 567.5 L 380.9 571.2 L 377.4 569.8 Z" />
<path class="neighbor" d="M 413.6 510.5 L 416.2 505.4 L 423.8 503.8 L 442.9 507.8 L 444.7 500.9 L 451.2 498.6 L 467.7 503.4 L 471.9 502.1 L 491.1 502.5 L 508.3 503.7 L 514.1 507.8 L 521.2 509.5 L 519.6 512.1 L 501.3 518.4 L 497.2 523 L 482.4 524.4 L 478 531.8 L 465.7 530.2 L 457.7 532.5 L 446.7 537.9 L 448.3 540.7 L 445 543.3 L 423.1 545.1 L 408.8 541.3 L 396.3 542.2 L 397.4 535.5 L 410 537.5 L 414.2 533.9 L 423 535 L 437.8 526.7 L 424.1 520.6 L 415.9 523.5 L 407.3 519.1 L 417 511.6 L 413.6 510.5 Z" />
<path class="neighbor" d="M 200 516.1 L 205.1 512.2 L 218.2 509.8 L 226 513.1 L 234.1 522.1 L 240.1 521.6 L 253.1 521.4 L 251.2 515.6 L 261.1 511.6 L 270.9 504.9 L 286.5 511 L 287.7 520.2 L 292.1 522.6 L 304.6 522.1 L 308.5 524.2 L 314.2 536.1 L 327.5 544.1 L 335 549.5 L 347.1 555.2 L 362.5 560.2 L 362.2 567.2 L 358.7 566.9 L 353.2 563.8 L 351.4 567.9 L 341.7 570.1 L 339.4 579.4 L 332.8 582.9 L 323.7 584.7 L 321.3 589.9 L 312.6 591.5 L 300.8 587.1 L 299.7 577.3 L 291.1 576.9 L 277.9 566.7 L 268.6 565.4 L 255.8 559.5 L 247.6 558.5 L 242.5 560.6 L 234.8 560.3 L 226.6 566.9 L 216.4 569.1 L 214.2 561 L 215.9 548.8 L 206.9 544.9 L 209.9 537 L 202.2 536.3 L 204.7 526.6 L 215.7 529.4 L 225.8 525.7 L 217.4 518.8 L 214.1 512.2 L 204.8 515.1 L 203.6 523.6 L 200 516.1 Z" />
<path class="neighbor" d="M 154.4 653.3 L 148 647.2 L 147.9 641 L 144.2 641.1 L 146.1 632.7 L 140.2 623.9 L 126 617.5 L 118 606.5 L 120.7 597.5 L 126.5 593.5 L 125.6 586.7 L 118 583.3 L 110.5 569.5 L 110.5 569.5 L 104.2 560.2 L 106.5 556.6 L 102.8 543.3 L 110.8 540 L 112.6 544.4 L 118.4 549.8 L 126.4 551.3 L 130.6 550.9 L 144.2 542.4 L 148.6 541.6 L 152 545 L 148 550.7 L 155.2 556.7 L 158.1 556.2 L 161.7 564.7 L 172.7 567.1 L 180.8 572.9 L 197.2 574.9 L 215.3 571.8 L 216.4 569.1 L 226.6 566.9 L 234.8 560.3 L 242.5 560.6 L 247.6 558.5 L 255.8 559.5 L 268.6 565.4 L 277.9 566.7 L 291.1 576.9 L 299.7 577.3 L 300.8 587.1 L 296 601.5 L 292.9 609.9 L 297.9 611.6 L 292.9 617.9 L 296.7 627.2 L 297.6 634.5 L 306.4 636.5 L 307.4 643.9 L 296.9 654.4 L 302.6 660.5 L 307.2 667.5 L 318.3 672.6 L 318.6 682.8 L 324.2 684.7 L 325.1 690 L 308.4 696 L 304.1 709.4 L 282.3 705.9 L 269.7 703.3 L 256.6 701.8 L 251.7 687.6 L 246.1 685.5 L 237.2 687.6 L 225.6 693.2 L 211.4 689.3 L 199.8 680.4 L 188.6 677.1 L 180.9 666.2 L 172.3 650.7 L 166.1 652.6 L 158.8 648.8 L 154.4 653.3 Z" />
<path class="neighbor" d="M 130.6 550.9 L 126.4 551.3 L 121.7 544.6 L 121.7 542.8 L 116.6 542.8 L 113.2 539.7 L 110.8 540 L 106.2 536.7 L 97.6 533.8 L 98.7 528.2 L 96.7 524.1 L 112.8 522.3 L 115.2 525.3 L 119.6 527.3 L 117.3 530.2 L 123.5 534.2 L 120.2 537.9 L 125.1 541 L 130.3 542.9 L 130.6 550.9 Z" />
<path class="neighbor" d="M 110.5 569.5 L 105 571.4 L 100.9 568.5 L 87.4 567 L 82.5 568.8 L 69.3 570.6 L 63.1 570.4 L 49.8 574.7 L 40.2 574.8 L 34.1 572.6 L 21.3 575.8 L 17.5 573.6 L 16.9 580 L 13.8 582.5 L 10.7 585.1 L 6.5 579.8 L 10.9 575.5 L 3.8 576.5 L -5.9 573.8 L -13.8 580.5 L -31.4 581.8 L -40.8 575.6 L -53.3 575.2 L -55.9 580 L -63.9 581.3 L -75.1 575.2 L -87.7 575.4 L -94.6 563.9 L -103.1 557.5 L -97.4 548.5 L -104.8 542.9 L -91.9 531.9 L -74.1 531.4 L -69.2 522.6 L -47.2 524.1 L -33.3 516.6 L -19.8 513.4 L -0.6 513.1 L 19.6 521.3 L 36.2 525.7 L 49.6 524 L 59.6 525 L 73.3 518.9 L 85.6 518.4 L 96.7 524.1 L 98.7 528.2 L 97.6 533.8 L 106.2 536.7 L 110.8 540 L 102.8 543.3 L 106.5 556.6 L 104.2 560.2 L 110.5 569.5 L 110.5 569.5 Z M -105.4 515.6 L -93.6 511.9 L -83.6 513.5 L -82.3 517.9 L -72.2 521.7 L -74.3 524.5 L -88 525.2 L -92.9 528.7 L -102.6 535 L -106.2 529.6 L -106.1 527.2 L -103.3 525.9 L -99.7 518.6 L -105.4 515.6 Z" />
<path class="neighbor" d="M 538.9 912.6 L 537.1 924.6 L 532.3 927.9 L 522.2 930.6 L 516.7 921.4 L 514.7 904.7 L 519.9 885.9 L 527.9 892.4 L 533.3 900.5 L 538.9 912.6 Z" />
<path class="neighbor" d="M 1001.7 717.3 L 994.7 735.9 L 989.7 745.4 L 983.7 735.6 L 982.3 727 L 989.1 715.7 L 998.4 706.9 L 1003.7 710.3 L 1001.7 717.3 Z" />
<path class="neighbor" d="M 129.4 515.2 L 132.7 515.6 L 140.6 522.6 L 145.7 523.4 L 147.7 520.5 L 154.6 515.8 L 160.7 521.9 L 166.6 530.1 L 172 530.6 L 175.6 533.8 L 166 534.7 L 164 543.7 L 162 547.7 L 157.8 550.4 L 158.1 556.2 L 155.2 556.7 L 148 550.7 L 152 545 L 148.6 541.6 L 144.2 542.4 L 130.6 550.9 L 130.3 542.9 L 125.1 541 L 120.2 537.9 L 123.5 534.2 L 117.3 530.2 L 119.6 527.3 L 115.2 525.3 L 112.8 522.3 L 115.7 520.4 L 124.3 523.7 L 130.5 524.4 L 132.1 523 L 126.4 516.8 L 129.4 515.2 Z M 126.4 551.3 L 118.4 549.8 L 112.6 544.4 L 110.8 540 L 113.2 539.7 L 116.6 542.8 L 121.7 542.8 L 121.7 544.6 L 126.4 551.3 Z" />
<path class="neighbor" d="M 54.8 497 L 56.2 495.6 L 66 497.6 L 83 499.5 L 98.7 505 L 100.8 507.2 L 107.8 505.3 L 118.6 507.8 L 122.1 512.5 L 129.4 515.2 L 126.4 516.8 L 132.1 523 L 130.5 524.4 L 124.3 523.7 L 115.7 520.4 L 112.8 522.3 L 96.7 524.1 L 85.6 518.4 L 73.3 518.9 L 75 514 L 72.1 506.1 L 65.4 501.8 L 59 500.5 L 54.8 497 Z" />
<path class="neighbor" d="M 990.8 852.6 L 984.8 843.8 L 994.8 844.2 L 998.8 848.4 L 995.7 858.4 L 990.8 852.6 Z M 1011 884.1 L 1013.9 880.9 L 1015.2 873.7 L 1021.6 873 L 1019.7 880.8 L 1028.3 869.6 L 1027.2 880.7 L 1023 884.5 L 1019.4 891.8 L 1015.8 895.2 L 1008.6 887.2 L 1011 884.1 Z M 1054.9 902.3 L 1056.1 909.9 L 1056.8 916.4 L 1052.8 927 L 1048.6 915.2 L 1043.2 921.1 L 1046.9 929.6 L 1043.6 935 L 1029.9 928.3 L 1026.7 920 L 1030.2 914.4 L 1022.9 909 L 1019.2 913.8 L 1013.8 913.3 L 1005.2 919.8 L 1003.3 916.4 L 1007.9 906.6 L 1015.2 903.4 L 1021.5 899 L 1025.6 904.3 L 1034.4 901.1 L 1036.2 895.9 L 1044.4 895.6 L 1043.7 886.7 L 1053.1 892.2 L 1054.1 898 L 1054.9 902.3 Z M 963.8 891.8 L 948.4 902.8 L 954.1 894.7 L 962.4 887.6 L 969.4 879.5 L 975.5 868.1 L 977.5 877.5 L 969.9 883.9 L 963.8 891.8 Z M 1008.1 788.7 L 1006.3 793.5 L 1010.2 801.8 L 1007.2 811.4 L 1000.3 815.3 L 998.5 824.6 L 1001.1 833.8 L 1007.2 835.1 L 1012.4 833.7 L 1026.8 840.1 L 1025.7 846.4 L 1029.5 849.2 L 1028.3 854.5 L 1019.3 848.9 L 1015 842.8 L 1012 847 L 1004.7 840.1 L 994.1 841.8 L 988.4 839.3 L 989 834.5 L 992.6 831.5 L 989.1 828.9 L 987.6 833 L 981.9 826.4 L 980.2 821.3 L 979.8 810.3 L 984.4 814.1 L 985.6 796 L 989.4 785.5 L 996.4 785.5 L 1003.5 788.8 L 1007.1 785.8 L 1008.1 788.7 Z M 1004.7 867.5 L 1002.9 862 L 1009.8 865.6 L 1017.2 865.6 L 1017 870.4 L 1011.6 875.3 L 1004.3 878.8 L 1003.9 873.4 L 1004.7 867.5 Z M 1044.8 858.9 L 1048 871.8 L 1039.1 868.7 L 1039.3 872.6 L 1042.2 879.8 L 1036.7 882.3 L 1036.2 874.2 L 1032.7 873.6 L 1030.9 866.6 L 1037.7 867.5 L 1037.6 863.1 L 1030.5 854.3 L 1041.6 854.6 L 1044.8 858.9 Z" />
<path class="neighbor" d="M 750.6 924.8 L 752.7 922.8 L 762.1 927.8 L 763 933.8 L 770.6 932.4 L 774.4 927.6 L 777.1 928.7 L 783.9 935.7 L 788.8 943.4 L 789.4 951.2 L 788.2 956.5 L 789.3 960.5 L 790.2 967.3 L 794.3 970.5 L 798.8 980.8 L 798.6 984.7 L 790.4 985.4 L 779.4 976.9 L 765.7 967.7 L 764.4 961.8 L 757.7 954 L 756.1 944.5 L 751.9 938.2 L 753.2 929.7 L 750.6 924.8 Z M 956.6 951.7 L 946.6 949.8 L 933.3 949.8 L 929.2 963 L 924.8 967 L 918.9 983.1 L 909.4 985.5 L 898.5 982.3 L 892.9 983.3 L 886.2 989.2 L 878.8 988.3 L 871.3 990.7 L 863.4 984.1 L 861.5 976.4 L 870 980.4 L 878.9 978.2 L 881.2 968.4 L 886.2 966.2 L 900 963.7 L 908.3 954.6 L 914 947.3 L 919.3 953.3 L 921.7 949.3 L 927.3 949.7 L 927.9 942.3 L 928.5 936.6 L 937.4 928.5 L 943.2 919.5 L 947.9 919.5 L 953.8 925.3 L 954.4 930.3 L 962 933.6 L 971.6 937 L 970.8 941.6 L 963 942.2 L 965.1 947.8 L 956.6 951.7 Z" />
<path class="neighbor" d="M 928.5 936.6 L 927.9 942.3 L 927.3 949.7 L 921.7 949.3 L 919.3 953.3 L 914 947.3 L 918.6 942.9 L 928.5 936.6 Z" />
<path class="neighbor" d="M 14 832.7 L 12.7 828.1 L 17.7 811.1 L 18.9 803.4 L 22.5 799.8 L 31 797.9 L 36.9 791.3 L 43.6 804.7 L 46.8 815.4 L 53.1 821 L 68.9 831.9 L 75.4 838.5 L 81.6 845.2 L 85.3 849.2 L 90.9 852.7 L 87.5 855.5 L 82.5 854.5 L 78.5 850.7 L 73.8 844 L 68.7 840.2 L 65.7 836.2 L 55.6 831.6 L 47.7 831.5 L 44.9 829 L 38.1 831.8 L 31.1 826.5 L 27.4 835.1 L 14 832.7 Z" />
<path class="neighbor" d="M 1234.4 546.2 L 1223.7 557.9 L 1223.9 569.8 L 1219.5 579 L 1221.5 584.8 L 1215.5 593 L 1200.7 598.4 L 1180.4 599.1 L 1163.9 612.4 L 1156.1 607.9 L 1155.6 599.3 L 1135.5 601.8 L 1121.8 607.3 L 1108.2 607.5 L 1120 616 L 1112.3 635.7 L 1104.8 640.5 L 1099.2 636 L 1102 625.6 L 1094.7 622.2 L 1090 614.3 L 1100.9 610.7 L 1107 603.5 L 1118.6 597.5 L 1127.1 589.6 L 1150.2 586.1 L 1162.5 588.5 L 1174.6 567.9 L 1182.4 573.4 L 1199.3 561.9 L 1205.9 557.4 L 1213.2 543.2 L 1211.2 530.2 L 1216.1 522.9 L 1228.4 520.8 L 1234.7 536.8 L 1234.4 546.2 Z M 1265.9 490.9 L 1274.1 486 L 1276.7 499 L 1259.5 502.1 L 1249.4 513.6 L 1231.2 505.7 L 1224.9 518.4 L 1212 518.6 L 1210.4 507.1 L 1216.2 498.1 L 1228.5 497.5 L 1231.9 481.5 L 1235.3 472.5 L 1248.9 484.5 L 1257.8 488.4 L 1265.9 490.9 Z M 1124.3 612.4 L 1130.7 605.5 L 1137.3 606.8 L 1142 601.9 L 1150.5 604.4 L 1152 608.4 L 1145.5 615.4 L 1140.7 611.7 L 1134.8 614.4 L 1131.7 621.1 L 1124.2 617.9 L 1124.3 612.4 Z" />
<path class="neighbor" d="M 194.2 779.7 L 203.2 798.8 L 207 806.9 L 198.6 810 L 196.4 815.2 L 196.1 819.1 L 184.6 824 L 166.1 829.4 L 155.7 837.6 L 150.6 838.2 L 147.2 837.5 L 140.4 842.3 L 133 844.6 L 123.3 845.2 L 120.4 845.8 L 117.9 848.9 L 114.8 849.7 L 113 852.7 L 107.3 852.4 L 103.6 854 L 95.6 853.4 L 92.6 846.6 L 92.9 840.3 L 91 836.9 L 88.8 828.3 L 85.4 823.6 L 87.7 823 L 86.6 817.7 L 88 815.5 L 87.4 810.4 L 92.5 806.7 L 91.3 801.9 L 94.4 796.2 L 99.2 799.2 L 102.3 798.1 L 115.7 797.9 L 117.8 799 L 129 800.2 L 133.4 799.6 L 136.3 803.5 L 141.7 801.5 L 150 789.4 L 160.8 784.2 L 194.2 779.7 Z" />
<path class="lake" d="M 863.8 356.9 L 863.8 356.9 L 863.8 356.9 L 863.7 358 L 863.3 358.5 L 863 359.3 L 862.8 359.9 L 862.5 361 L 862.4 361.5 L 862.7 362.2 L 862.7 362.7 L 862.1 363.9 L 861.9 364.3 L 861.7 364.9 L 861.3 365.4 L 861.1 365.8 L 860.8 366.9 L 860.1 367.4 L 859.9 368.2 L 859.5 370.3 L 859.5 371.7 L 860.2 372.7 L 860.2 372.9 L 860 373.4 L 859.6 374 L 858.7 374.7 L 856.6 376.2 L 856.2 376.7 L 856.1 377.1 L 856.2 377.7 L 856.2 378.4 L 856.1 378.6 L 855.9 378.9 L 854.2 378.9 L 853.9 378.5 L 854.2 377.5 L 854.5 377 L 854.5 376.7 L 854.2 376.3 L 853.7 376.2 L 853.2 376.3 L 852.5 376.5 L 851.9 376.9 L 849.4 379.5 L 848.4 380.3 L 848.5 380.4 L 849.7 379.9 L 850.7 379.7 L 852 379.5 L 852.9 379.7 L 853.4 380.4 L 853.7 381.1 L 853.6 381.7 L 853 382.3 L 851.1 383 L 850.7 383.1 L 850.4 383 L 850.1 382.8 L 849.9 382.8 L 846.8 384.4 L 845.7 385 L 845.7 385.2 L 846 385.6 L 846.1 385.8 L 845.6 386.4 L 844.9 386.9 L 842.3 388.2 L 841.6 388.8 L 839.5 389.6 L 838.5 389.7 L 837.4 389.7 L 835.1 390.3 L 831.8 391.6 L 829.9 392.4 L 829.6 392.7 L 828.8 393.7 L 828.4 394 L 827.8 394.2 L 827.1 393.9 L 826 393.6 L 824.8 393.4 L 823.6 393.7 L 822.7 394.1 L 822.2 394.6 L 822.1 395.2 L 822.3 395.9 L 822.1 396.7 L 821.2 398.4 L 820.6 398.8 L 819.8 399.4 L 818.7 400.5 L 816.7 401.3 L 812.5 402.3 L 808.3 403 L 806.4 403.4 L 805.5 403.8 L 803.5 403.8 L 800.5 403.6 L 797.8 403.2 L 793.8 402.1 L 793 401.7 L 792.6 401.4 L 792.7 401.2 L 793 401.1 L 793.5 401 L 797.5 400.5 L 799.9 400.4 L 802.1 400.3 L 803.6 400.1 L 804.3 399.6 L 805.3 399.4 L 806 399.4 L 806.8 399.4 L 808.1 399.2 L 809.4 398.9 L 810.3 398.6 L 810.8 398.1 L 811.5 397.7 L 812.4 397.5 L 814.1 396.6 L 815.5 395.3 L 817.5 393.4 L 819.8 391.9 L 822.5 391 L 824.3 390.3 L 825.3 389.7 L 825.8 389.3 L 827.2 388.2 L 827.9 387.8 L 828.2 387.4 L 829.3 386.6 L 829.5 386.2 L 829.2 385.9 L 828 386 L 828.1 385.8 L 828.9 385.1 L 831.5 383.5 L 833.3 382.6 L 836.8 381.2 L 837 381 L 837 380.5 L 837.3 379.9 L 837.9 379.2 L 839.8 378 L 843 376.4 L 844.8 375 L 845.4 374.3 L 845.7 373.8 L 846.4 372.7 L 847 372.3 L 847.7 371.5 L 848.2 370.7 L 848.6 369.7 L 849.1 369 L 850.6 367.8 L 851.3 366.9 L 851.8 366.2 L 852 365.4 L 852.4 364.8 L 853 364.3 L 853.2 363.9 L 852.8 363.7 L 853.3 363.3 L 854.4 362.8 L 855.1 362 L 855.8 360.9 L 856.1 360.1 L 856.3 358.4 L 856 357.8 L 856 356.9 L 856.6 356.5 L 857.4 356.1 L 859.7 354.7 L 860.5 354.2 L 861.5 354.1 L 862.6 354.2 L 863.6 354.4 L 864.9 355.4 L 863.8 356.5 L 863.8 356.9 Z M 839.5 383.2 L 839.5 383.2 L 839.5 383.2 L 839.9 381.7 L 839.3 381.7 L 837.4 383 L 834.7 383.8 L 831.7 384.7 L 830.6 385 L 830.2 385.4 L 830.2 386 L 834.3 385.5 L 835.7 385.1 L 838.1 383.7 L 839.5 383.2 Z" />
<path class="lake" d="M 498.6 506.8 L 498.4 507 L 496.9 507.2 L 495.2 507.9 L 493.6 508.6 L 493.3 508.9 L 493.4 509.3 L 491.8 510.8 L 490.4 511.3 L 489.4 511.5 L 485.1 511.6 L 483.7 511.6 L 482.6 511.4 L 478.6 510.2 L 476.9 509.9 L 475.7 509.8 L 474.9 509.8 L 474.5 509.1 L 474.4 508.5 L 474.5 508.2 L 477.1 507.9 L 480.5 507 L 483.1 506.5 L 485.7 506.1 L 487.4 505.8 L 489.7 506 L 491.4 505.5 L 495.8 505.2 L 497.9 505.1 L 496.8 505.8 L 496.4 506.2 L 496.6 506.5 L 498.6 506.8 L 498.6 506.8 L 498.6 506.8 Z" />
<path class="lake" d="M 570.5 445 L 569.4 445.8 L 569 446.3 L 568.6 447.2 L 567.9 447.6 L 567.3 447.5 L 564.4 446 L 561.8 444.7 L 560.1 444 L 558.1 443.6 L 555.9 443 L 553.9 442.1 L 553.2 441.7 L 553.4 441.3 L 555 441.3 L 556.1 441.1 L 557.9 441 L 558.7 440.6 L 559.1 439.8 L 558.2 439.1 L 557.5 438.4 L 557.4 437.7 L 557.7 437.2 L 557.8 435.5 L 558.4 434.2 L 559.7 433 L 561.6 432.1 L 563 431.8 L 564.9 431.3 L 565.9 430.7 L 565.6 429.8 L 564.2 428.8 L 562.7 427.7 L 561.3 427.5 L 560.6 427.4 L 559.9 426.9 L 559.1 426.4 L 558.5 426.3 L 557.8 425.9 L 557.1 425.3 L 557.1 425.1 L 557.4 425 L 560 425.6 L 561.5 425.3 L 563.2 424.2 L 564.1 424.2 L 564 424.4 L 562.4 425.2 L 562.1 425.7 L 561.7 426 L 561.4 426.4 L 562.4 427 L 567.8 429.8 L 568.7 430.7 L 568.3 431.1 L 566.2 431.6 L 562.9 432.6 L 561.9 432.9 L 560 433.6 L 558.9 434.7 L 558.5 435.8 L 558.9 437 L 560 439.1 L 561.9 439.4 L 563.6 439.5 L 563.4 439.8 L 560.8 440 L 559.8 440.6 L 559.6 441 L 560.2 441.3 L 561.5 441.9 L 563.1 442.4 L 565.1 443.2 L 566.4 443.5 L 568.3 443.9 L 569.9 444.5 L 570.5 445 L 570.5 445 L 570.5 445 L 570.5 445 Z" />
<path class="lake" d="M 965 615.7 L 964.6 616.1 L 964 617.3 L 963.6 617.8 L 962.9 618 L 961 618.6 L 960.6 618.9 L 960.1 619.1 L 959.9 618.8 L 960.2 618.4 L 960.1 618.1 L 959.6 617.9 L 959 618.2 L 958.7 618.5 L 958.5 618.1 L 958.9 617.7 L 959.5 617.4 L 960.6 617.8 L 960.7 617.6 L 960.7 617.2 L 960.1 616.1 L 959.1 616.1 L 957.7 616.1 L 957 616.3 L 956.7 617 L 956.1 617.3 L 955.7 617.2 L 956.2 617 L 956.5 616.7 L 956.6 615.9 L 956.9 615.6 L 957.9 615.6 L 959.3 615.2 L 960 615.3 L 960.6 616.1 L 961.1 617.2 L 961.9 617.8 L 962.7 617.6 L 962.8 617.3 L 963 616.9 L 963.3 616.6 L 963.4 616.3 L 963.2 615.9 L 961.7 615.6 L 960.8 615.2 L 960.7 614.4 L 961.1 614.6 L 961.6 614.6 L 962.5 613.8 L 963.1 613 L 963.6 613.1 L 964.6 613.4 L 965 613.4 L 964.3 612.7 L 963.6 611.5 L 963.7 610.5 L 964.3 610.3 L 964.6 610.6 L 965 611.8 L 965.6 612.4 L 966.9 612.6 L 967.9 613.6 L 967.9 613.8 L 967.6 614.2 L 967 615.7 L 966.2 616.7 L 965.8 616.8 L 965.8 616.3 L 965.5 615.7 L 965 615.7 L 965 615.7 L 965 615.7 L 965 615.7 Z" />
<path class="lake" d="M 758.8 404.8 L 758.6 406 L 758.3 406.8 L 758.1 407.8 L 757.6 409.2 L 757.6 409.6 L 755.5 411.6 L 755.1 412.4 L 754.8 413.4 L 755.1 413.8 L 755.1 414 L 754.8 414.4 L 753.9 414.8 L 751.9 415.3 L 751.7 414.8 L 751.9 414.1 L 752.3 413.4 L 752.5 412.4 L 753.1 408.2 L 752.9 406.5 L 753.8 405.4 L 754.3 404.9 L 754.1 404.3 L 754 404 L 755.3 403 L 755.7 402.5 L 756.1 402.4 L 758.4 404.3 L 758.8 404.8 L 758.8 404.8 L 758.8 404.8 L 758.8 404.8 Z" />
<path class="lake" d="M 660.7 417.5 L 659.8 416.2 L 661.1 415.5 L 663.4 414.7 L 666.2 413.9 L 667.4 413.4 L 668.2 413.6 L 668.5 414 L 668.4 414.7 L 669.5 416 L 671.3 416.8 L 671.6 416.8 L 671.6 417.2 L 672.4 417.4 L 672.8 417.7 L 672.1 418 L 671.1 418.1 L 669.7 418.7 L 668.9 419.3 L 667.6 420.3 L 665.4 420.9 L 664 420.9 L 662.8 420.4 L 661.5 419.4 L 661 418.4 L 660.7 417.5 L 660.7 417.5 L 660.7 417.5 L 660.7 417.5 Z" />
<path class="lake" d="M 1129.3 478.3 L 1128.6 479.5 L 1127.1 482.2 L 1125.3 483.3 L 1124.2 484.3 L 1123.2 483.8 L 1122.7 483.4 L 1122.8 483.1 L 1121.9 482.6 L 1120.8 481.8 L 1121 480.6 L 1121.2 479.2 L 1120.2 478 L 1120.2 477.4 L 1120 476.4 L 1120.8 475.5 L 1122.6 475.1 L 1124.6 475.1 L 1126.7 475.4 L 1128.4 476.2 L 1129.3 477.1 L 1129.3 478.3 L 1129.3 478.3 L 1129.3 478.3 L 1129.3 478.3 Z" />
<path class="lake" d="M 802.5 855.8 L 802.1 855.5 L 801.3 854.9 L 800.6 854.9 L 798.9 854.2 L 797.6 853 L 797.2 851.6 L 796 851.5 L 794.7 850.7 L 793.7 849.8 L 793.1 848.7 L 792.7 847.8 L 792.5 846.8 L 792.8 846.3 L 794.1 846.5 L 795.7 847.1 L 797.1 848.8 L 798.2 851 L 798.7 851.9 L 799 852.2 L 800.2 852.1 L 801 852.4 L 801.4 853.4 L 801.4 854.2 L 801.4 854.3 L 801.7 854.5 L 802.4 854.8 L 802.4 855.1 L 802.5 855.4 L 802.8 855.8 L 802.5 855.8 L 802.5 855.8 L 802.5 855.8 L 802.5 855.8 Z" />
<path class="lake" d="M 758.4 573.6 L 758.3 574 L 758 574.4 L 758 575.2 L 757.8 576.2 L 756.9 576.6 L 755.7 576.3 L 754.6 575.6 L 752.3 575.6 L 749.2 575.2 L 747.7 574.5 L 746.2 573.1 L 745.6 572.5 L 746 572 L 746.9 572 L 747.5 572 L 747.7 571.6 L 747.4 570.7 L 747.2 569.7 L 747.8 569.3 L 749.1 568.9 L 750.9 569.1 L 752.8 569.7 L 754.8 571.1 L 756.4 572.6 L 758.4 573.6 L 758.4 573.6 L 758.4 573.6 L 758.4 573.6 Z" />
<path class="lake" d="M 416.8 212.8 L 415.6 212.7 L 414.8 212.7 L 413.7 212.5 L 413.2 211.9 L 413.6 211.5 L 415.1 211.5 L 417.2 212 L 418.4 212.4 L 418.4 212.7 L 418 212.8 L 416.8 212.8 L 416.8 212.8 L 416.8 212.8 L 416.8 212.8 Z" />
<path class="lake" d="M 93 609.3 L 92.3 608.6 L 91.2 607.1 L 90.9 604.9 L 90.8 603.2 L 91 602.5 L 91.3 602.3 L 92.8 604.5 L 94.2 605.7 L 95.4 606.7 L 95.7 607.5 L 95.5 608.4 L 95.5 609.3 L 94.9 609.6 L 93.8 609.4 L 93 609.3 L 93 609.3 L 93 609.3 L 93 609.3 Z" />
<path class="lake" d="M 100.2 621.3 L 100 622.2 L 99.2 623.1 L 98.6 623.2 L 97.7 622.9 L 97.3 622.6 L 96.7 622.4 L 95.6 621.9 L 95.1 621 L 94.9 619.9 L 95 619.2 L 95.2 619.1 L 95.5 618.7 L 95.4 617.6 L 95.9 617 L 96.4 616.8 L 96.7 617.3 L 98.3 619.9 L 99.5 620.8 L 100.2 621.3 L 100.2 621.3 L 100.2 621.3 L 100.2 621.3 Z" />
<path class="lake" d="M 120.9 562.9 L 120.9 562.9 L 120.9 562.9 L 120.9 562.9 L 121.8 563.3 L 121.8 563.8 L 121.9 564.8 L 123.1 566.5 L 122.8 567.5 L 121.3 567.9 L 120.8 568.1 L 120.2 569 L 119.3 569.9 L 118.3 569.7 L 117.4 568.8 L 116.5 566.4 L 116.1 564.3 L 116.1 563.5 L 115.9 562.6 L 114.2 561.2 L 114.1 560 L 114.9 559.4 L 115.3 558.6 L 115.1 558.2 L 114.2 558.2 L 113.3 558.2 L 113.4 557.6 L 114.4 556.8 L 117.3 556.8 L 118.5 557.9 L 118.8 559 L 118.3 560.6 L 118.2 562.1 L 118.7 562.7 L 119.5 562.7 L 120.9 562.9 Z" />
<path class="lake" d="M 262 516.2 L 261.5 517 L 259.9 517.8 L 258.1 518.3 L 257 518.5 L 256 518.5 L 254.9 517.6 L 254 516.6 L 253.4 516.7 L 252.7 516.8 L 252.6 516.2 L 253.1 513.9 L 254.1 511.4 L 255.2 510.1 L 256.6 509.7 L 258.4 510.6 L 259.3 511.8 L 259.1 512.4 L 259.3 512.8 L 259.9 513.5 L 260.1 514.6 L 261.8 515.5 L 262 516.2 L 262 516.2 L 262 516.2 Z" />
<path class="lake" d="M 480.5 365.1 L 482 364.5 L 484.3 364.1 L 485 364 L 485.4 364.4 L 486.3 364.8 L 486.9 364.4 L 487 364 L 487.3 363.5 L 488.5 362.9 L 490.1 362.5 L 490.8 362.5 L 491.2 362.5 L 491.5 362.6 L 491.8 362.8 L 493.6 363 L 495.4 363.4 L 495.6 364 L 494.3 364.4 L 492.8 364.7 L 492.5 364.8 L 491.5 365.1 L 490.9 365.4 L 490.8 365.8 L 491.5 366.1 L 491.9 366.7 L 492 367 L 491.5 367.4 L 490.4 367.6 L 490 367.5 L 490.1 367.2 L 489.5 367 L 488.5 366.8 L 487.6 366.7 L 486.3 366.3 L 484.1 366.2 L 483.7 366.3 L 482.8 366.4 L 481.5 366.6 L 480.4 366.4 L 480.6 365.6 L 480.5 365.1 L 480.5 365.1 L 480.5 365.1 Z" />
<path class="lake" d="M 542.9 470 L 538.4 468.8 L 536.2 467.7 L 534.7 466.6 L 534.4 465.5 L 534.5 464.6 L 534.4 463.8 L 534.9 462.7 L 535.9 462.1 L 537.3 462 L 538.6 462.3 L 539.5 462.7 L 540.3 463.2 L 541.1 464.1 L 541.6 465.1 L 541.8 466.4 L 542.1 467.9 L 542.9 470 L 542.9 470 L 542.9 470 Z" />
<path class="lake" d="M 949 437.4 L 947.7 437.6 L 947.4 437.4 L 947.6 436.9 L 947.5 436 L 946.5 435 L 946.3 434.4 L 947.1 433.6 L 949 432.5 L 950.9 431 L 952.5 429.4 L 953.7 428.6 L 954.4 428.5 L 954.6 428.8 L 954.3 429.4 L 954.3 430 L 954.7 430.5 L 955.1 430.5 L 955.4 430.7 L 955.8 431.1 L 956.8 431.3 L 958 431.3 L 958.4 431.7 L 957.5 432.2 L 956.5 432.2 L 955.9 431.9 L 955.3 431.9 L 954.9 432.2 L 954.7 432.7 L 952.4 434.3 L 950.2 436.1 L 950 436.8 L 949 437.4 L 949 437.4 L 949 437.4 Z" />
<path class="lake" d="M 988.1 639.9 L 985.7 641.2 L 983.8 641.6 L 982.3 641.2 L 980.8 639.8 L 980.4 637.9 L 981 636.3 L 982.4 635.2 L 983.6 634.7 L 984 635 L 984.1 635.1 L 984 635.4 L 984.2 635.7 L 984.9 635.8 L 985.5 635.9 L 985.4 636.4 L 984.9 636.8 L 984.9 637.2 L 985.2 637.8 L 985.6 638.2 L 986.1 638.6 L 986.2 639.1 L 985.7 639.7 L 986 639.9 L 986.4 639.9 L 987.4 639.4 L 988.1 639.9 L 988.1 639.9 L 988.1 639.9 Z" />
<path class="lake" d="M 637.9 646.4 L 637.6 645.8 L 637.3 644.4 L 637.3 642.6 L 638 642.3 L 639.4 642.6 L 640.6 642.9 L 641.5 642.7 L 641.7 642.4 L 642.2 642.1 L 643.9 642.2 L 644.8 641.8 L 645.2 641.8 L 645.6 642.2 L 645.7 642.7 L 644.7 643.3 L 643.7 644.1 L 642.2 645 L 640.8 645.5 L 637.9 646.4 L 637.9 646.4 L 637.9 646.4 Z" />
<path class="lake" d="M 1449.6 198.2 L 1449 198.5 L 1447 198.4 L 1443.6 197.8 L 1441.8 197.1 L 1442.2 196.7 L 1444 197 L 1446 197.3 L 1447.8 197.7 L 1449.6 198.2 L 1449.6 198.2 L 1449.6 198.2 Z" />
<path class="lake" d="M 418.2 214.2 L 417.5 214 L 417.5 213.8 L 418.3 213.3 L 420.4 212.6 L 422.2 212.3 L 423.1 212.8 L 423 213.3 L 421.6 213.9 L 418.2 214.2 L 418.2 214.2 L 418.2 214.2 Z" />
<path class="lake" d="M 408.1 188.5 L 408.4 188.9 L 406.8 189.4 L 405.1 189.4 L 403.9 188.7 L 404.5 188 L 406.7 188.2 L 408.1 188.5 L 408.1 188.5 L 408.1 188.5 Z" />
<path class="lake" d="M 412.3 189.9 L 411.1 189.2 L 411.2 188.8 L 411.6 188.4 L 412.2 188 L 413.4 187.9 L 413.3 188.4 L 413.4 188.9 L 414.7 189.7 L 414.3 190.1 L 412.3 189.9 L 412.3 189.9 L 412.3 189.9 Z" />
<path class="lake" d="M 409 188.1 L 406.8 187.8 L 406.5 187.2 L 411.4 187 L 412 187.3 L 411.6 187.6 L 410.5 188 L 409 188.1 L 409 188.1 L 409 188.1 Z" />
<path class="lake" d="M 603.5 515.3 L 602.2 514.8 L 600.4 514.7 L 598 515.1 L 596.3 515.6 L 596.1 515.3 L 596.1 514.7 L 596.8 513.9 L 597.2 512.7 L 597.9 512.3 L 599.3 512.6 L 602.9 513.4 L 603.5 514.6 L 603.5 515.3 L 603.5 515.3 L 603.5 515.3 Z" />
<path class="country" d="M 859.3 789 L 849.8 785.4 L 849.5 775.5 L 855.2 770.2 L 867.8 767 L 874.5 767.3 L 877.1 771.7 L 872 776.8 L 869.3 783.5 L 859.3 789 Z M 521.2 509.5 L 520.3 502.9 L 528.2 499.9 L 517.8 479.8 L 540.7 475.2 L 546.6 472.6 L 555 451.9 L 578 455.7 L 584.4 450.5 L 584.9 438.9 L 594.6 437.8 L 603.4 430.1 L 607.9 429.1 L 610.9 437.2 L 620.7 443.3 L 637.2 447.7 L 645.2 457 L 640.7 470.5 L 644.9 475.5 L 658.6 477.5 L 674.2 479.1 L 688.2 486.4 L 695.3 487.6 L 700.6 498.3 L 707.4 505.2 L 720.2 504.9 L 744 507.5 L 759.4 505.9 L 770.9 507.6 L 788 514.6 L 802 514.6 L 807.1 518.2 L 820.6 512 L 839.3 508 L 856.6 507.6 L 870.1 503.5 L 878.4 497.3 L 886.5 493.4 L 884.7 489.6 L 881 485.1 L 887.1 477.7 L 893.6 478.7 L 905.5 481.1 L 917 474.9 L 934.6 470.4 L 943.1 462.8 L 951.3 459.5 L 968.1 458 L 977.2 459.3 L 978.5 455.2 L 968 447.1 L 958.7 443.4 L 949.8 447.6 L 938.4 445.8 L 931.8 447.3 L 928.9 442.6 L 937 431 L 942.7 422.3 L 956.6 426.7 L 972.9 419.3 L 972.8 414.2 L 983.2 402 L 989.6 398.3 L 989.5 391.9 L 983.2 389.1 L 992.7 383.4 L 1007.1 381.3 L 1022.4 381 L 1039.8 384.4 L 1049.9 388.7 L 1057.1 400.3 L 1061.4 405.3 L 1065.4 412.4 L 1069.7 423.8 L 1089.9 427.5 L 1103.6 435.7 L 1108.3 446.6 L 1125.8 446.6 L 1135.9 442 L 1155 438.6 L 1148.9 449 L 1144.4 453.3 L 1140.5 465.9 L 1132.7 477.2 L 1118.6 475.1 L 1108.7 479.2 L 1111.7 489.1 L 1110.1 502.8 L 1104.2 503.1 L 1104.2 509 L 1096.8 502.2 L 1092.2 508.7 L 1074.3 513.6 L 1076.1 519.7 L 1066.1 519.3 L 1060.6 515.7 L 1052.6 523.9 L 1039.9 530.1 L 1030.5 537.5 L 1014.3 540.9 L 1005.8 546.3 L 993.3 549.5 L 999.5 544.1 L 997 539.6 L 1006.2 531.8 L 1000.1 525.8 L 990 529.9 L 976.9 537.9 L 969.8 545.4 L 958.5 545.9 L 952.6 551.3 L 958.6 559.2 L 968.1 561.1 L 968.5 566.2 L 977.7 569.6 L 990.6 561.4 L 1000.9 565.9 L 1008.4 566.2 L 1010.3 572.2 L 993.9 575.5 L 988.5 581.7 L 977.2 587.5 L 971.3 595.6 L 983.7 602 L 988.3 613.4 L 995.3 624 L 1003.2 632.9 L 1003 641.5 L 995.7 644.6 L 998.5 650.8 L 1005.3 654.4 L 1003.5 663.8 L 1000.6 673 L 994.1 674 L 985.7 686.6 L 976.3 701.7 L 965.6 715.6 L 949.6 726.2 L 933.5 736 L 920.5 737.3 L 913.4 742.4 L 909.4 738.7 L 902.9 744.4 L 886.7 750.2 L 874.5 752 L 870.5 764.2 L 864.1 764.9 L 861.1 756.5 L 863.8 752 L 848.3 748.3 L 842.8 750.2 L 831.2 747.2 L 825.7 742.5 L 827.5 735.8 L 816.9 733.7 L 811.3 729.4 L 801.5 735.6 L 790.2 736.9 L 781 736.8 L 774.8 739.7 L 768.8 741.3 L 770.5 754.6 L 764.3 754.3 L 763.3 751.6 L 763 746.8 L 754.5 750.1 L 749.5 748 L 740.9 743.7 L 744.2 734 L 736.9 731.8 L 734.1 721.2 L 721.9 723.1 L 723.3 709.3 L 734.3 699.7 L 734.7 690.1 L 734.4 681.3 L 729.4 678.5 L 725.5 671.7 L 718.7 672.6 L 706.2 670.8 L 710.1 666 L 704.7 658.8 L 696.5 663.7 L 686.8 660.8 L 673.4 668.2 L 662.9 676.8 L 653.6 678.2 L 648.5 675.1 L 642.4 674.8 L 634.1 672.2 L 627.9 675.1 L 620.2 683.7 L 619.2 674.6 L 612.2 677 L 598.7 675.9 L 585.6 673.2 L 576.2 668.2 L 567.2 665.9 L 563.3 660.3 L 556.8 658.7 L 545.1 651.1 L 535.9 647.6 L 531.1 650.3 L 515 642.2 L 503.6 634.9 L 500.4 622.1 L 508.7 623.7 L 509 617.8 L 504.4 611.9 L 505.6 602.4 L 493.2 588.9 L 474.1 584.2 L 470.7 575.3 L 462.2 569.9 L 460.1 566.6 L 458.4 560 L 458.8 555.5 L 451.7 552.8 L 447.9 554 L 445 543.3 L 448.3 540.7 L 446.7 537.9 L 457.7 532.5 L 465.7 530.2 L 478 531.8 L 482.4 524.4 L 497.2 523 L 501.3 518.4 L 519.6 512.1 L 521.2 509.5 Z" />

<path class="river" d="M 193.4 355 L 192.8 355.2 L 192.1 355.1 L 191.2 355.1 L 190.3 356.1 L 189.3 356.2 L 188.5 356.4 L 188.5 357 L 188.2 357.4 L 186.9 357.7 L 185 357.3 L 184.1 357.5 L 183.5 357.7 L 182.4 357.7 L 180.7 357.8 L 179 358.3 L 175.8 358.5 L 171.9 358.7 L 169 359.3 L 165.6 360.1 L 163.9 361.1 L 162.3 361.8" />
<path class="river" d="M 213.8 326 L 213.6 325.2 L 213 324.3 L 212.1 323.8 L 211.1 323.6 L 210.7 323.4 L 210.8 322.8 L 211.2 322.5 L 211.4 321.6 L 210.1 320.6 L 209.2 319.4 L 208.6 318.9 L 208.1 317.6 L 208.5 316.7 L 208.3 315.7 L 207.5 315.4 L 206.5 314.8 L 205.8 314.4 L 205.3 313.6 L 204.7 312.9 L 204.2 312.2 L 203.6 311.1 L 202.1 310.1 L 201.3 309.8 L 201.2 309 L 201.6 308.6 L 202.1 308.3 L 203 308.5 L 203.5 308.1 L 204.2 307.6 L 204.8 306.5 L 205.4 305.8 L 206.1 305.6 L 207.2 305.4 L 208.3 305.1 L 209.5 304.7 L 210.4 304.6 L 210.9 304.4 L 211.4 303.8 L 211.8 303.7 L 212.6 303.7 L 214.2 303.1 L 215.3 302.8 L 216.1 302.3 L 216.7 301.9 L 217.1 301.5 L 217.7 301.4 L 218.5 301.4 L 219.1 301.1 L 220.4 301.1 L 220.9 301.4 L 221.8 302.1 L 223.3 302.5 L 227.1 302.4 L 229.3 302.7 L 230.6 302.9 L 231.8 302.7 L 233 302.4 L 235.5 301.7 L 236.6 300.4 L 237.2 299.6 L 239 299.5 L 240.2 300 L 241.7 300.4 L 242 300.7 L 242 300.8 L 242.4 301.4 L 242.3 301.9 L 242.2 302.6 L 242.2 302.9 L 242.4 303.5 L 243.2 303.4 L 243.7 303.6 L 243.7 304 L 243.9 304.7 L 243.9 305.3 L 244 305.9 L 244.4 306.1 L 244.7 306.2 L 244.9 306.2 L 245.5 306.6 L 245.9 307 L 246.8 307.4 L 247.3 308 L 247.7 308.8 L 248.1 309.6 L 248.4 310.3 L 248.4 311.6 L 248.3 312.3 L 247.5 312.8 L 247.1 313 L 245.4 313.3 L 244.4 313.6 L 243.2 314 L 242.9 314.6 L 242.5 315.7 L 243 316.9 L 243.4 318.2 L 243.5 319 L 242.1 320.4 L 241.5 320.8 L 241.5 321.8 L 242.5 322 L 243.4 322.4 L 245 323.3 L 244.4 325.4 L 244.3 326.7 L 244.3 326.8 L 244.3 327.1 L 244.2 327.3 L 244.2 327.5 L 244 327.7 L 242.8 328.1 L 241.2 328.1 L 239.2 329 L 238.5 329 L 238.1 328.2 L 237.3 327.5 L 236.5 327.6 L 236.2 328.2 L 234.4 329.6 L 232.3 329.8 L 231.7 329.9 L 231.3 330.4 L 232 330.8 L 232.9 331.2 L 233.5 332.1 L 234.1 333.2 L 235 333.3 L 235.2 333.8 L 234.1 336.2 L 233 336.4 L 231.7 336.4 L 230.5 336 L 229.8 336 L 229.4 336.4 L 229.1 337.2 L 228.6 338.7 L 228 338.9 L 227.1 339 L 226.3 339.3 L 225.1 339.5 L 223.5 339.3 L 222.5 339.5 L 221.7 340 L 220.9 340.2 L 219.9 340.2 L 219.2 340.7 L 219 341.5 L 218.9 342.1 L 218.3 342.6 L 217.8 342.8 L 217.3 343 L 216.7 343 L 216.3 342.6 L 216.3 342.2 L 216 342 L 215.3 341.8 L 215 341.9 L 214.4 342.2 L 214.3 342.4 L 214.4 342.6 L 214.4 342.8 L 214.4 343.3 L 214.5 343.8 L 214.7 343.9 L 214.8 344 L 214.9 344.5 L 215 345.4 L 215.1 345.9 L 215.5 346.3 L 215.6 346.7 L 215.7 346.9 L 216.1 347 L 217 347.4 L 217.7 347.6 L 218.5 348.3 L 219.1 348.8 L 219.4 349.4 L 218.7 349.7 L 218.4 349.9 L 218.3 350.1 L 217.8 350.9 L 217.4 351.2 L 216.7 351.3 L 216 351.2 L 215.4 351 L 214.7 351 L 214.3 351.2 L 213.4 351.6 L 213.2 351.8 L 212.3 351.9 L 212 352 L 212 352.1 L 212 352.3 L 212 352.5 L 212 352.5 L 211.9 352.6 L 211.8 352.7 L 211.5 352.8 L 209 353.3 L 206.5 353.1 L 205.6 352.7 L 204.8 352.4 L 203.9 352.4 L 203 352.1 L 202.4 352 L 201.2 352.4 L 200.3 353.1 L 199.6 353.3 L 198.5 353.1 L 198 353 L 197.7 353.4 L 197.8 353.8 L 198.1 354.4 L 198.2 354.7 L 198 355 L 197.4 355.1 L 195.2 355.1 L 194.4 354.8 L 193.4 355" />
<path class="river" d="M 1178.7 415.7 L 1179 417.5 L 1178.5 418.5 L 1177.2 419.2 L 1176.4 419.9 L 1175.9 420.5 L 1175.2 422 L 1175.2 422.7 L 1175.6 423.8 M 1213.9 400.6 L 1212 402 L 1211.4 402.5 L 1210.9 402.7" />
<path class="river" d="M 824.8 393.4 L 824.2 393 L 823.2 393.2 L 821.6 393.7 L 819.9 394.8 L 817.9 396.5 L 815.9 397.9 L 813.9 398.9 L 811.7 399.6 L 809.1 400 L 807.4 399.9 L 806 399.3 M 788.7 385 L 789 383 L 789 381.4 L 788.8 379.4 L 787.6 377.1 L 785.4 374.3 L 785 372.2 L 786.6 370.6 L 787.3 369.1 L 787.1 367.8 L 786.6 366.7 L 785.6 365.7 L 785.9 364.4 L 787.5 362.5 L 788.2 361 L 788 359.9 L 787.6 358.7 L 786.9 357.7 L 786.5 356.5 L 786.6 355.1 L 786.1 354.1 L 785.2 353.6 L 784.6 352.8 L 784.5 351.8 L 784 350.9 L 783.1 350.1 L 781.5 349.6 L 779.1 349.3 L 776.3 349.6 L 773.2 350.5 L 771.2 350.7 L 770.5 350.3 L 770.2 349.6 L 770.5 348.2 M 780.6 329.1 L 780.6 330.1 L 780.3 330.8 L 779.8 331.7 L 779 332.6 L 777.8 333.6 L 777.1 334.8 L 776.8 336.3 L 776.7 337.7 L 776.9 339.9" />
<path class="river" d="M 607.9 405.2 L 607.1 402.1 L 606.1 400.9 L 603.7 400.6" />
<path class="river" d="M 79.7 448.7 L 81.9 448.1 L 84 447.3 L 86.1 446.5 L 88.1 446 L 88.6 445.5 L 89.2 444.6 L 90.5 442 L 91.5 440.7 L 92.7 439.6 L 95.3 437.9 L 96.1 437 L 96 436.6 L 95.6 436.1 L 95.4 435.6 L 95.5 435.2 L 96 434.6 L 97 433.8 L 98 433.4 L 98.9 433.4 L 99.8 433.2 L 100.4 432.9 L 100.7 432.5 L 100.9 431.7 L 101.4 431 L 101.1 430.4 L 100.5 430.2 L 99.1 430.2 L 98.7 430.2 L 98.2 429.7 L 98.1 428.8 L 97.6 427.9 L 97 426.9 L 96.4 426.7" />
<path class="river" d="M 557.1 425.1 L 559.9 426.6 L 561.4 427.1 L 562.5 427.3 L 564 428.2 L 566 429.7 L 566.8 430.7 L 566.5 431.1 L 564.6 431.8 L 561.2 432.7 L 559.1 433.9 L 558.3 435.1 L 558.1 436.4 L 558.5 437.9 L 559 438.9 L 559.7 439.5 L 559.7 440 L 559.1 440.5 L 558.8 441 L 558.9 441.6 L 560.3 442.6 L 563.2 443.9 L 565.3 445.3 L 566.8 446.6 L 567.8 447.2 L 568.6 447.2" />
<path class="river" d="M 934.6 660.8 L 935.2 660.3 L 935.8 659 L 937.1 655.3" />
<path class="river" d="M 882.5 622.7 L 877 620.7" />
<path class="river" d="M 718.3 596.5 L 717.8 595.9 L 717.2 595.6 L 715.8 595.4 M 723.8 593.6 L 723.2 595 L 722.6 595.6 L 721.2 596" />
<path class="river" d="M 434.7 599 L 435.3 601.9 L 435.4 603.2 L 435.3 603.9 L 434.9 604.4 L 433.8 605.2" />
<path class="river" d="M 506.6 811.8 L 508.4 811.7 L 509.1 811 L 509.1 809.5 L 509.4 808.5 L 510.2 807.8" />
<path class="river" d="M 562.8 750.6 L 561.2 748.8 L 560.3 748.2 L 559.6 748.1 L 559 748.3 L 558.6 748.9 L 557.8 749 L 556.4 748.6" />
<path class="river" d="M 440.7 516.2 L 436.4 516 L 434.5 516.3 L 433.2 517.4" />
<path class="river" d="M 553.2 364.9 L 545 369 L 541.4 370.6 L 539.7 370.9 L 538.3 371.6 L 537.2 372.7 L 535.8 373.5 L 534.3 374.1 L 533.6 374.8 L 533.6 376" />
<path class="river" d="M 743 405.4 L 741.7 404.7" />
<path class="river" d="M 533.2 643.3 L 532.1 642.6 M 480.8 636.1 L 480.5 637 L 480.2 637.4 L 479.7 637.7 L 478.8 637.3 L 476.9 636" />
<path class="river" d="M 406.6 531.7 L 406.2 532.4 L 404.6 532.9 L 400.5 533.6 M 384.6 523.9 L 381.3 523.6 L 379.9 523.2 L 379.4 522.7 L 379.2 522.2 M 307.1 467 L 304.8 466" />
<path class="river" d="M 273.3 395.6 L 272.6 397 L 272.5 398.1 L 272.5 399.4 L 272.2 400.3 L 270.9 401.4" />
<path class="river" d="M 651.4 377.8 L 650.8 376.7 L 650.9 375.8 L 651.6 374.8 L 651.9 374.2 L 651.9 373.8 L 651.1 372.8 L 649.6 371.1 L 648.8 369.9 L 648.6 369.2 L 647.6 368.3 L 645.7 367.4 L 644.8 366.4 L 644.9 365.1 L 645.4 364 L 646.2 363.1 L 649.6 362.1 L 655.4 361.1 L 659.2 359.8 L 661.8 357.3" />
<path class="river" d="M 860.6 265.3 L 863.2 265.6 L 864.7 265.5 L 865.8 265.1 L 867 265 L 868.3 265.3 L 869.4 265.7 L 870.3 266.2 L 870.6 266.9 L 870.2 267.9 L 870.9 268.5 L 872.4 268.7 L 872.8 269.1 L 872 269.7 L 873.1 270.5 L 875.9 271.3 L 877.6 271.3 L 878.2 270.4 L 879.7 269.9 L 882 269.7 L 883.6 269.1 L 884.5 268.1 L 885.5 267.8 L 886.6 268 L 887.2 268.5 L 887.4 269.3 L 887 269.9 L 885.9 270.3 L 885.9 271 L 887.2 271.8 L 888.5 272.2 L 889.8 272.2 L 890.9 271.6 L 891.9 270.5 L 892.9 270 L 894.1 270.3" />
<path class="river" d="M 120.8 418.4 L 122.8 416.9 L 122.8 415.7 L 121.6 414.4 L 121 413.5 L 121 412.9 L 121.8 412.4 L 123.4 411.9 L 124.5 411.5 L 125.1 411 L 125.2 410.3 L 125 409.4 L 124.3 408.7 L 123.3 408 L 122.8 407.2 L 122.8 406.4 L 123.2 405.7 L 124 405.1 L 124.4 404.5 L 124.5 404 L 125.1 403.6 L 126.2 403.1 L 127.2 402.3 L 128.1 401.2 L 128.9 400.8 L 130.2 400.5 L 131.3 400.7 L 132.6 400.8 L 133.7 400.8 M 160.1 357.5 L 162.7 360.4 L 162.3 361.8 L 159.7 362.7 L 158.3 364.2 L 158 366.2 L 156.9 367.6 L 154.9 368.3 L 153.7 369 L 153.3 369.8 L 153.1 370.7 L 153.2 371.7 L 154.6 373.1 L 157.5 375 L 159 376.7 L 159.2 378.4 L 159.5 379.6 L 160 380.2 L 160.6 380.7 L 161.9 380.9 L 166 380.9 L 169.9 381 M 95 343.7 L 94 343.1 L 93.3 342.1 L 92.7 340.7 L 92 339.7 L 91.4 339.1 L 91 338.6 L 91 338.2 L 91.2 337.5 L 92.1 336.2 L 88.5 335.2 L 86.8 335 L 85.1 335.2 M 22.3 342.8 L 19.2 342.5 L 17.5 342.9 L 16.2 343.9 L 15 344.1 L 13.3 343.4 M 29.4 336.6 L 31.5 336.4 L 33 335.6 L 35.6 333.4 M 70.8 334.3 L 69.2 334 L 68 333.2 L 66.6 331.7 L 65.6 330.9 L 65 330.7 L 63.5 330.8 L 61 331.2 L 58.7 331.9 L 55.4 333.4 M 37.2 328.2 L 35.9 327.5 L 35.8 326.7 L 36.9 325.1 L 40.3 327.1" />
<path class="river" d="M 899 663.7 L 897.8 664.9 L 896.5 665.5 L 894.8 665.9 L 892.6 665.6 L 888.4 664.2 M 900 662.3 L 900.9 659.5" />
<path class="river" d="M 1022.4 345.4 L 1018.2 345.1 L 1017 345.1 L 1016.6 344.8 L 1016.6 344.3 L 1016.8 343.7 L 1017.4 342.9 L 1017.8 341.9 L 1018.1 340.5 L 1019.2 338.9 L 1021.3 337.1 L 1022.2 336 L 1022 335.7 L 1022.2 335.3 L 1022.7 334.7 L 1022.7 334.4 L 1021.9 334.2 L 1021.7 333.7 L 1021.9 333 L 1022.1 332.5 L 1022.5 332.1 L 1023.1 332.1 L 1023.9 332.4 L 1024.6 332.2 L 1025.2 331.7 L 1025.1 330.9 L 1024.4 329.8 L 1024.1 328.7 L 1024.5 327.5 L 1025.4 326.6 L 1026.9 325.9 L 1027.2 325.3 L 1027.3 325 L 1027.6 324.8 L 1028.6 324.6 L 1030 324.6 L 1030.8 324.2 L 1031 323.4 L 1031.4 322.6 L 1032.5 321.1 L 1034.1 320.1 L 1035 319.7 L 1035.7 319.8 L 1036.2 319.6 L 1036.4 319.1 L 1037.2 318.9 L 1038.3 318.8 L 1039.3 318.5 L 1040.2 317.9 L 1040.6 317.4 L 1040.7 317 L 1041.3 316.7 L 1042.5 316.4 L 1042.9 316.1 L 1042.6 315.6 L 1042.5 315.2 L 1042.9 314.9 L 1042.9 314.5 L 1042.6 314 L 1042.6 313.5 L 1042.8 313.2 L 1043.7 313.2 L 1045.1 313.6 L 1046.3 314.2 L 1047.5 315.1 L 1049.1 315.8 L 1051.3 316.2 L 1052.8 316.8 L 1053.6 317.4 L 1056 318 L 1059.9 318.8 L 1062.2 319.4 L 1062.9 319.8 L 1063.7 319.8 L 1064.7 319.2 L 1065.8 319 L 1067.2 319.2 L 1068.1 319.1 L 1068.8 318.7 L 1069.7 318.6 L 1070.9 318.9 L 1071.5 319.2 L 1071.6 319.7 L 1072 320.1 L 1072.9 320.4 L 1073.7 320.2 L 1074.6 319.3 L 1075.5 318.9 L 1076.3 319 L 1077 319.2 L 1077.5 319.7 L 1078.1 319.6 L 1078.7 318.8 L 1079.2 319 L 1079.6 319.9 L 1080.3 320.4 L 1081.1 320.5 L 1081.6 320.9 L 1081.9 321.6 L 1083.1 322.1 L 1085.3 322.4 L 1087.2 322.4 L 1089 322.1 L 1090.9 322.2 L 1092.9 322.6 L 1094.9 322.3 L 1097.1 321.3 L 1099.5 321 L 1102.2 321.2 L 1103.6 321.1 L 1103.9 320.7 L 1103.9 320.1 L 1103.6 319.3 L 1103.8 318.7 L 1104.4 318.4 L 1105.9 318 L 1108.4 317.6 L 1110 317.6 L 1110.8 318 L 1111.5 318 L 1112 317.4 L 1112.6 317.2 L 1113.4 317.5 L 1114.5 317.5 L 1115.9 317.2 L 1117.3 316.7 L 1118.7 316.1 L 1119.4 315.5 L 1119.4 315 L 1120 314.9 L 1121.2 315 L 1122.4 314.8 L 1124.2 314 L 1127.4 312.5 L 1129.3 312.1 L 1131.1 312.1 L 1132.2 311.5 L 1132.7 310.2 L 1133.6 309.5 L 1134.9 309.4 L 1137.7 307.7 L 1141.9 304.5 L 1145.4 302.2 L 1149.5 300.1 L 1151.3 299.9 L 1152.8 300.2 L 1154.8 300.8 L 1155.9 300.7 L 1156.2 300.1 L 1155.7 299.4 L 1154.5 298.7 L 1153.8 298 L 1153.8 297.3 L 1154.9 296.5 L 1157.1 295.6 L 1158.9 294.3 L 1160.2 292.7 L 1160.5 291.5 L 1160 290.7 L 1160 290.1 L 1160.5 289.6 L 1160.2 289.1 L 1159.1 288.8 L 1159.1 288.3 L 1160.2 287.5 L 1160.8 287 L 1160.9 286.6 L 1160.3 286.4 L 1159.1 286.4 L 1158.1 286 L 1157.2 285.4 L 1157.7 284.9 L 1159.8 284.5 L 1160.8 283.9 L 1160.9 283.1 L 1161.6 282.3 L 1162.9 281.7 L 1163.2 281 L 1162.6 280.3 L 1163 279.7 L 1164.3 279.1 L 1164.4 278.5 L 1163.2 277.8 L 1162.2 276.6 L 1161.3 275.1 L 1160.4 274.3 L 1159.4 274.3 L 1158.5 274.5 L 1157.6 274.9 L 1156 275 L 1153.5 274.6 L 1150.5 273.8 L 1147 272.5 L 1145.3 271.6 L 1145.4 271 L 1144.8 270.7 L 1143.6 270.6 L 1142.8 270.5 L 1142.5 270.1 L 1142.5 269.7 L 1140.8 269 L 1136.7 269.5 L 1134.1 269.5 L 1133.3 269 L 1133.2 268.5 L 1134 268 L 1134.3 267.4 L 1134.2 266.6 L 1131.2 266.4 L 1125.4 267 L 1120.2 266.9 L 1115.6 266.1 L 1112.4 266.1 L 1110.6 266.7 L 1108.5 266.9 L 1104.8 266.6 L 1101.8 266.6 L 1098 266.2 L 1089.7 264.9" />
<path class="river" d="M 381.8 571.2 L 380.1 572 L 378.8 571.8 L 377.4 570.7 L 376.6 569.8 L 376.5 569.1 L 375.8 568.8 L 374.8 568.9 L 374.1 568.7 L 373.7 568.4 L 372.9 568.5 L 371.4 569 L 370 568.7 L 368.5 567.6 L 365.8 567.1 L 361.6 567.5 L 357.4 566.6 L 353.1 564.7 L 350.2 563.6 L 348.5 563.2 L 347.2 562.2 L 346.1 560.6 L 343.5 558.9 L 339.4 557 L 336.2 554.9 L 333.9 552.4 L 332.5 550.6 L 331.9 549.4 L 329.8 547.7 L 326.2 545.6 L 323.8 544.5 L 322.4 544.3 L 321.6 543.7 L 321.4 542.5 L 320.3 541.3 L 318.1 539.9 L 316.5 538.5 L 315 536.3 L 314.2 532.9 L 313.3 531.3 L 312.1 530.5 L 311 528.8 L 310.1 526.4 L 309.3 524.8 L 308.8 524.1 L 307.6 523.3 L 305.8 522.4 L 304.1 522 L 302.4 522 L 301.4 521.7 L 300.8 521 L 298.7 519.5 L 295 517.3 L 292.8 515.6 L 292.3 514.5 L 291.6 513.8 L 290.7 513.6 L 290.1 513.1 L 289.8 512.4 L 289.1 511.7 L 287.9 510.9 L 286.2 510.2 L 283.8 509.6 L 282 508.8 L 280.7 507.6 L 279.6 506.9 L 278.9 506.7 L 278.6 506.3 L 278.9 505.5 L 278.6 505 L 277.9 504.6 L 277.6 504.2 L 277.7 503.7 L 277.5 503.1 L 277 502.4 L 276.8 501.7 L 276.9 501 L 276.8 500.2 L 276.4 499.3 L 276.2 498.7 L 276.3 498.6 M 276.3 498.6 L 276.3 498.6 M 276.3 498.6 L 276.5 498.2 L 276.3 497.6 L 275.8 496.8 L 275.6 496.2 L 275.7 495.8 L 276.4 495.5 L 277.5 495.3 L 278.1 494.7 L 278.2 493.7 L 277.6 492.7 L 276.4 491.6 L 276.1 490.8 L 276.7 490.2 L 278.1 489.7 L 281.4 488.7 M 276.3 498.6 L 275.2 497.1 L 275.1 495.9 L 275.5 494.6 L 275.4 493.5 L 274.6 492.8 L 273.2 492.3 L 271.2 491.9 L 270.2 491 L 270.2 489.6 L 269.5 488.1 L 267.2 485.5" />
<path class="river" d="M 1175.6 423.8 L 1176 424.1 L 1176 424.7 L 1175.8 425.7 L 1174.6 426.6 L 1172.4 427.3 L 1170.8 428.3 L 1169.9 429.5 L 1169.4 430.6 L 1169.4 431.6 L 1168.1 432.7 L 1164.2 434.7 L 1163.3 435.3 L 1162.4 435.4 L 1161.2 435.2 L 1159.8 435.3 L 1158.3 435.5 L 1156.8 436 L 1155.6 436.7 L 1155 437.5 L 1155.1 438.6 L 1154.3 439.3 L 1152.6 439.6 L 1151.3 439.7 L 1150.3 439.4 L 1148.8 439.5 L 1145.5 440 L 1141.3 441 L 1139.3 441.7 L 1138.2 442.6 L 1137 443 L 1135 443 L 1133.2 442.9 L 1131.8 443.4 L 1130.1 444.4 L 1128.9 444.8 L 1128.2 444.7 L 1127.3 445.4 L 1126.5 446.8 L 1125.5 447.4 L 1124.4 447.3 L 1121.7 447.4 L 1117.5 447.8 L 1114.8 447.8 L 1113.8 447.3 L 1112.1 447.3 L 1109.8 447.6 L 1108.4 447.7 L 1108 447.5 L 1107.6 446.9 L 1107.4 446 L 1106.7 445 L 1105.3 443.9 L 1105.1 442.7 L 1105.9 441.2 L 1106.1 440.2 L 1105.7 439.6 L 1105.5 439.2 L 1104.5 438.5 L 1103.7 437.5 L 1103.2 437.2 L 1103.4 436.3 L 1104 435.2 L 1103.2 434.2 L 1100.9 434.1 L 1099.1 433.8 L 1097.3 432.9 L 1094.4 430.3 L 1093 429.3 L 1092.1 429.2 L 1091.4 428.8 L 1091 428.1 L 1090.4 428.1 L 1089.7 428.1 L 1089.3 428.4 L 1088.8 428.5 L 1088.1 428.2 L 1087.4 428.2 L 1086.6 428.4 L 1086 428.2 L 1085.5 427.7 L 1084.5 427.4 L 1083.2 427.2 L 1082.6 426.8 L 1082.8 426.3 L 1082.6 425.9 L 1081.8 425.6 L 1079.8 425.7 L 1076.4 426.1 L 1073.7 426 L 1071.5 425.4 L 1070.3 424.8 L 1070.1 424.3 L 1069.5 423.8 L 1068.5 423.3 L 1067.9 422.5 L 1067.8 421.3 L 1068 420.2 L 1068.9 418.6 M 1210.9 402.7 L 1210.3 402.9 L 1209.1 403 L 1208 403.1 L 1206.7 403.6 L 1206.2 404.2 L 1205.4 404.7 L 1204.3 405.1 L 1202.8 405.2 L 1201.1 405.1 L 1200 405.4 L 1199.7 406.1 L 1199 406.6 L 1197.2 407 L 1190.2 411.1 L 1186 412.7 L 1182.4 413.3 L 1180 414 L 1178.9 414.7 L 1178.5 415.3 L 1178.7 415.7 M 1213.9 400.6 L 1214.3 400.3 L 1214.9 400 L 1215.1 399.3 L 1214.7 398.3 L 1215 397.3 L 1216.2 396.4 L 1217 395.2 L 1217.4 393.7 L 1217.2 392.4 L 1216.5 391.5 L 1215.6 391 L 1214.6 390.8 L 1214 390.2 L 1213.8 389.4 L 1212.5 388.3 L 1210.3 387.2 L 1209.7 385.9 L 1211 384.5 L 1212.6 383.8 L 1214.6 383.7 L 1216.5 384.1 L 1218.4 384.9 L 1219.7 385.2 L 1220.7 385 L 1221.6 385.1 L 1222.3 385.3" />
<path class="river" d="M 806 399.4 L 801 395.9 L 799.3 394.5 L 799.2 393.9 L 798.3 393.2 L 796.6 392.4 L 795.6 391.6 L 795.3 390.8 L 794.5 390 L 793.3 389.4 L 792.6 388.6 L 792.4 387.7 L 791.5 387 L 789.8 386.5 L 788.9 385.9 L 788.7 385 M 770.5 348.2 L 770.7 345.1 L 770.1 343.6 L 768.9 342.8 L 767.7 342.3 L 766.4 342.2 L 765.8 341.7 L 765.7 340.9 L 766.6 340.3 L 768.3 340 L 770.2 340.1 L 772.3 340.8 L 774.1 341.2 L 775.6 341.2 L 776.5 340.9 L 776.9 339.9 M 780.6 329.1 L 782 327 L 782.5 325.6 L 782.5 324.1 L 781.8 322.4 L 780.4 320.3 L 778.3 318.8 L 778.1 318.7 M 778.5 318.8 L 778.1 318.7 M 778.1 318.7 L 774 317.6 M 778.1 318.7 L 775.6 317.8 L 774 317.6 M 774 317.6 L 771 317.3 L 764.4 317.5 L 761 318 L 760.7 318.8 L 759.1 319.6 L 756.2 320.5 L 754.7 321.2 L 754.6 321.5 L 754.7 322 L 755 322.6 L 754.8 323.3 L 753.8 324.1 L 752.6 324.4 L 750.9 324.2 L 749.5 323.6 L 748.3 322.8 L 746.8 322.2 L 745.1 322 L 743.5 321.5 L 742.3 320.8 L 740.9 320.3 L 739.4 320.1 L 737.6 320.3 L 735.6 320.9 L 734.5 321.5 L 734.3 322.1 L 733.8 322.6 L 733 322.9 L 730.2 323.3 L 725.3 323.6 L 721.5 323.7 L 718.9 323.4 L 716.9 323.4 L 715.7 323.7 L 714.7 323.9 L 714 323.8 L 713.2 323.4 L 712.2 322.7 L 709.3 322.3 L 704.5 322.2 L 700.8 322.4 L 698.1 323 L 696.6 323.5 L 696.2 324 L 694.5 324.9 L 691.5 326.1 L 687.1 326.8 L 681.5 327 L 677.1 326.9 L 674 326.5 L 671.9 326.5 L 670.6 327.1 L 669.6 327.4 L 668.6 327.3 M 774 317.6 L 772.2 317.1" />
<path class="river" d="M 997.4 382.6 L 992.5 383 L 989.3 384.3 L 986 386.6 L 983.6 388.1 L 982.2 388.7 L 981.6 389.5 L 981.9 390.5 L 983.1 390.9 L 985.3 390.6 L 987.1 390.7 L 988.7 391.3 L 989.2 392.1 L 988.6 393.3 L 988.8 394.4 L 989.7 395.5 L 989.8 396.7 L 989 398.2 L 987 399.6 L 983.8 401.1 L 981.9 402.5 L 980.7 404.5 L 978.9 406.3 L 978.3 407.3 L 978.2 408.2 L 977.5 409.1 L 976.2 410 L 975.5 411 L 975.3 412 L 974.7 412.9 L 973.5 413.7 L 972.8 414.5 L 972.5 415.4 L 972 416 L 971.4 416.3 L 971.8 416.6 L 973 416.9 L 973.5 417.8 L 973.3 419.2 L 972.5 420.2 L 971.2 420.8 L 969.3 421.2 L 966.7 421.4 L 963.2 422.8 L 956.5 426.6" />
<path class="river" d="M 720.9 702.2 L 720.8 702.3 L 720.9 702.6 L 720.8 703.5 L 720.1 705.5 L 719.5 706.4 L 718.9 706.3 L 718.3 706.7 L 717.8 707.8 L 717.8 708.5 L 718.3 708.9 L 718.3 709.2 L 717.7 709.3 L 717.4 709.6 L 717.5 710.1 L 717.2 710.5 L 716.3 711.1 L 715.6 712.2 L 715.6 713.1 L 716 714.3 L 716.3 715.5 L 716.3 716.9 L 716.6 717.9 L 717.1 718.5 L 717.2 719 L 717.1 719.4 L 716.3 719.8 L 714.8 720.2 L 713.7 719.9 L 712.8 719 L 711.9 718.3 L 710.8 717.9 L 709.9 717.9 L 708.9 718.2 L 708 719 L 707.2 720.2 L 706.7 721.2 L 706.6 722.5 L 704.3 725.9 L 703.4 729.3 L 703.1 733.9 L 702.8 736.3 L 702.4 736.7 L 702.5 737.4 L 703 738.4 L 703.2 739.3 L 703 740.1 L 703.1 740.7 L 703.4 741 L 703.6 742.4 L 703.8 744.7 L 703.5 746.1 L 702.7 746.5 L 702 746.5 L 701.2 746 L 700 745.9 L 698.5 745.9 L 697.3 746.5 L 696.6 747.6 L 696.1 748.9 L 695.8 750.5 L 695.4 751.3 L 694.9 751.5 L 693.8 752.6 L 692.5 753.3 L 690.6 753.9 L 689.7 754.9 L 689.7 756.3 L 689.4 757.4 L 688.8 758.3 L 689 760.1 L 690.1 762.7 L 690.7 764.7 L 690.8 766 L 691.3 767.4 L 692.7 769.2 L 693.4 770 L 693.7 771.5 L 694 774.1 L 693.8 776.5 L 693.4 778.7 L 693.4 780.4 L 694 781.5 L 693.9 782.4 L 693.1 783.2 L 692.7 783.9 L 692.6 784.5 L 693.4 785.8 L 695.3 787.7 L 696.4 789.2 L 696.8 790.4 L 697 791.8 L 697 793 L 697.1 793.6 L 697.3 794.3 L 697.4 794.8 L 698 795.5 L 698.3 796.1 L 698.2 796.8 L 698.5 797.3 L 699.2 797.8 L 699.4 798.4 L 698.9 799.1 L 698.8 800 L 699.1 801.1 L 699 801.9 L 698.5 802.4 L 698.4 803.2 L 698.7 804 L 698.1 804.8 L 697.4 805 L 696.5 805.4 L 695.6 806.1 L 695.5 807 L 694.5 808.4 L 691.7 811.6 L 691.2 812 L 690.5 812.4" />
<path class="river" d="M 603.7 400.6 L 601.2 399.6 L 600.4 398.1 L 600.5 395.9 L 600 394.5 L 599 393.9 L 598.4 393.4 L 598.2 392.9 L 597.7 392.6 L 596.9 392.5 L 595.6 392 L 593.8 391 L 592.6 390.5 L 591.9 390.7 L 591.5 391.1 L 591.3 391.7 L 590.5 391.6 L 589 390.9 L 587.9 390.7 L 587 391.1 L 586 391.2 L 584.8 390.9 L 583 390.9 L 580.6 391.2 L 578.7 391.7 L 576.7 392.8" />
<path class="river" d="M 630.9 718.1 L 630.6 720.3 L 630.5 722.3 L 631 723.5 L 632.4 725.1 L 633.9 726.3 L 634.8 726.8 L 637 728.1 M 630.9 718.1 L 631.7 719.9 L 633 720.9 L 635.3 722.2 L 636.4 723.4 L 636.4 724.5 L 636.7 725 L 637.3 724.8 L 638 725.3 L 639.4 726.7 L 640.4 727.2 M 696.4 675.6 L 696.9 676.9 L 696.1 677.8 L 694 678.7 L 693.1 679.1 L 693 679.3 L 693 679.3 L 693.2 679.3 L 693.4 679.5 L 693.4 679.7 L 692.8 680 L 691.5 680.4 L 690.4 680.9 L 689.5 681.5 L 688.6 682.4 L 687.8 683.4 L 687.5 683.9 L 687.1 684.5 L 686.8 685 L 686.7 685.7 L 686.2 686.3 L 685.3 687 L 684.1 687.7 L 682.4 688.5 L 681.6 688.7 L 680.5 688.7 L 677.3 690.3 L 673.3 690.2 L 671.5 690.4 L 670.5 691 L 668.7 691.4 L 666.2 691.7 L 664.7 692 L 664.2 692.5 L 663.4 692.7 L 662.2 692.6 L 660.7 693 L 658.9 693.9 L 657.9 694.6 L 657.8 695 L 656.7 695.6 L 652.9 696.8 L 651.8 697 L 650.5 697 L 648.4 696.6 L 647.3 696.4 L 646.1 696.5 L 644.5 697 L 642.7 696.9 L 640.6 696.4 L 638 696.7 L 634.9 698 L 632.6 699.9 L 631.2 702.4 L 630.4 704.6 L 630.5 706.6 L 630.2 708.4 L 629.5 710 L 629.4 710.9 L 629.5 711.5 L 630.8 714.4 L 631 717.1 L 630.9 718.1" />
<path class="river" d="M 794.2 667.9 L 795.3 668.3 L 797 668.4 L 799.8 668.2 L 801.6 667.7 L 802.5 666.9 L 803.1 666.6 L 803.5 666.4 L 804.7 666.1 L 805.6 666.2 L 806.3 666.5 L 806.8 666.4 L 807.3 666.4 L 807.6 666.6 L 808 667 L 808.6 667.2 L 809 667.1 L 809.3 666.7 L 809.9 666.5 L 810.9 666.5 L 811.6 666.3 L 811.8 665.8 L 812.4 665.4 L 813.3 665.3 L 813.8 665 L 814.2 664.9 L 814.7 665.1 L 815.3 665.2 L 816.1 665 L 816.6 665.1 L 816.8 665.6 L 817.1 665.9 L 817.5 665.9 L 817.7 665.7 L 817.8 665.4 L 817.6 665 L 817.2 664.7 L 817.2 664.3 L 817.5 663.7 L 818.5 663.3 L 820 663.1 L 820.8 662.6 L 820.9 661.8 L 822 660.8 L 824.1 659.8 L 825.1 659.1 L 824.9 658.7 L 825.1 658 L 825.7 657.2 L 826.2 656.9 L 826.7 657.2 L 827.4 657.3 L 828.4 657.2 L 829.4 656.5 L 830.6 655.2 L 831.6 654.9 L 832.4 655.7 L 833.4 655.9 L 834.7 655.7 L 835.5 655.1 L 836 654.1 L 836.8 653.7 L 838 653.9 L 840.4 651.9 L 845.8 645.7 L 846.8 644.4 L 847.1 643.7 L 847.1 643.1 L 847.4 642.6 L 848 642.1 L 851 641.6 L 859.1 640.8 L 860.1 640.5 L 860.7 640.5 L 861.3 640.8 L 862.4 640.7 L 864 640.2 L 865.2 640.2 L 865.9 640.4 L 867 640.5 L 868.7 640.3 L 870.9 640.6 L 875 641.8 L 876.6 642.6 L 877.5 642.8 L 878.1 642.7 L 878.8 642.9 L 879.6 643.4 L 880.5 644.7 L 881.6 646.6 L 882.3 647.6 L 882.8 647.7 L 883 648 L 882.8 648.4 L 882.9 648.8 L 883.2 649.1 L 883.6 649.1 L 884 648.9 L 885.5 647.9 L 886.4 647.5 L 886.9 647.6 L 887.5 648 L 888.2 648.7 L 889.2 649.1 L 890.6 649 L 891.4 649.2 L 891.6 649.7 L 891.4 650.2 L 891 651 L 891.4 651.7 L 892.7 652.2 L 893.2 653.3 L 892.9 654.8 L 893.3 655.5 L 894.2 655.2 L 894.8 654.9 L 895.1 654.9 L 895.4 655.2 L 895.5 655.3 L 895.8 655.3 L 895.8 655.2 L 896.1 654.9 L 896.7 654.8 L 897.1 654.9 L 897 655.1 L 897.1 655.3 L 897.6 655.4 L 898 655.5 L 898.8 655.2 L 899.4 655.5 L 899.6 656 L 899.4 656.3 L 899.1 657.1 L 899.2 657.9 L 899.5 658.1 L 900 658.2 L 900.3 658.3 L 900.5 658.5 L 900.7 658.6 L 901.2 658.7 L 901.6 658.7" />
<path class="river" d="M 427.2 638.8 L 427.2 639.5 L 426.8 640.3 L 425.5 641.9 L 423 645.3 L 421.9 645.7 L 420.7 646.6 L 419.1 648 L 417.7 650.1 L 416.6 652.6 L 416 654.4 L 416 655.5 L 415.6 656.5 L 414.6 657.4 L 414.2 658.2 L 414.5 658.8 L 414.4 659.5 L 414.2 660.2 L 413.9 660.8 L 413.5 661.3 L 413 661.5 L 412.4 661.4 L 411.7 662 L 410.9 663 L 410.4 663.6 L 409.5 663.8 M 488.5 625.9 L 485 624 L 482.8 622.4 L 480.8 621.5 L 478.3 620.8 L 477 619.6 L 476.8 617.9 L 475.8 616.3 L 474 614.9 L 472.1 614 L 470.2 613.5 L 469.1 613.4 L 468.9 613.7 L 469 614.2 L 469.4 614.9 L 469.6 615.4 L 469.4 615.7 L 468.2 616 L 465.7 616.1 L 463.9 615.7 L 462.6 614.9 L 461.7 614.9 L 461.3 615.5 L 460.3 615.8 L 458.9 615.6 L 458.1 616.3 L 457.9 617.9 L 455.5 620.2 L 450.9 623 L 446.9 625 L 443.5 626.1 L 441.1 627.6 L 438.8 630.4 L 436.9 632.1 L 435.5 632.8 L 434 633 L 432.4 633.7 L 430.6 634.7 L 429.5 635.6 L 428.8 636.3 L 428.5 637.1 L 428.4 637.9 L 428 638.4 L 427.2 638.8" />
<path class="river" d="M 629.9 415.2 L 627 414.1 L 624.6 413.8 L 621.7 414 L 619.6 413.4 L 618.1 412.2 L 616.7 411.4 L 615.3 411.1 L 613.3 410.2 L 610.9 408.9 L 609.2 407.7 L 608.1 406.7 L 607.7 405.9 L 607.9 405.2" />
<path class="river" d="M 750.5 617.7 L 751.6 618.9 L 752.4 619.6 L 753.9 620.3 L 755.5 622 L 756.8 623 L 758.2 623.7 L 758.9 624.4 L 758.9 625 L 759.4 625.5 L 760.3 625.9 L 760.9 626.8 L 761.2 629.2 L 763.7 631.2 L 766.1 631.6 L 769.3 631.1 L 771.4 631.3 L 772.5 632.2 L 773.2 633.4 L 773.5 634.9 L 773.4 635.9 L 772.9 636.4 L 772.8 636.8 L 773.2 637.2 L 772.9 637.9 L 772 638.8 L 771.5 639.7 L 771.4 641.1 L 771.4 641.7 L 772 642.7 L 772.9 643.8 L 773.5 644.9 L 773.6 645.9 L 774 647.3 L 774.8 649.1 L 775.1 650.4 L 774.9 651.3 L 774.9 652.1 L 775.3 652.7 L 775.3 654.3 L 774.9 656.9 L 775.2 658.9 L 776.1 660.4 L 777.4 660.8 L 779.9 660 L 781.6 660.4 L 782.3 660.8 L 782.5 661.3 L 782.9 661.3 L 783.6 660.8 L 784.1 660.7 L 784.6 661 L 785.1 661 L 785.5 660.7 L 786.1 660.7 L 787 661 L 787.6 661 L 787.9 660.6 L 788.5 660.4 L 789.3 660.4 L 790.2 660.6 L 791.2 661.3 L 791.8 661.3 L 792 660.7 L 791.8 660.3 L 791.3 660.2 L 791 659.9 L 790.8 659.4 L 791.2 658.8 L 791.8 658.3 L 792.2 657.9 L 792.7 657.8" />
<g class="city"><circle cx="1209.6599228517018" cy="586.6350872224727" r="5" /><text x="1221.6599228517018" y="590.6350872224727">Tokyo</text></g>
<g class="city"><circle cx="435.7471104106455" cy="778.9577409353781" r="5" /><text x="447.7471104106455" y="782.9577409353781">Mumbai</text></g>
<g class="city"><circle cx="486.11432390301763" cy="667.8183207550946" r="5" /><text x="498.11432390301763" y="671.8183207550946">Delhi</text></g>
<g class="city"><circle cx="997.7058301249605" cy="638.3487457859646" r="5" /><text x="1009.7058301249605" y="642.3487457859646">Shanghai</text></g>
<g class="city"><circle cx="615.0473005039272" cy="738.4395070803488" r="5" /><text x="627.0473005039272" y="742.4395070803488">Kolkata</text></g>
<g class="city"><circle cx="638.6269044779956" cy="725.0680204010592" r="5" /><text x="650.6269044779956" y="729.0680204010592">Dhaka</text></g>
<g class="city"><circle cx="367.6092545749754" cy="711.7948443717204" r="5" /><text x="379.6092545749754" y="715.7948443717204">Karachi</text></g>
<g class="city"><circle cx="1160.52533627362" cy="598.1600348793397" r="5" /><text x="1172.52533627362" y="602.1600348793397">Ōsaka</text></g>
<text class="map-title" x="80" y="105">China Physical Study Map</text>
<text class="map-subtitle" x="80" y="145">Landmark: Great Wall of China | Study terrain and water systems</text>
  <text class="footer" x="80" y="1036">Made with Natural Earth. Free vector and raster map data @ naturalearthdata.com.</text>
</svg>
