<?xml version="1.0" encoding="UTF-8"?>
<svg xmlns="http://www.w3.org/2000/svg" width="1600" height="1100" viewBox="0 0 1600 1100" role="img" aria-labelledby="title desc">
  <title id="title">Colombia Physical Study Map</title>
  <desc id="desc">Made with Natural Earth. Free vector and raster map data @ naturalearthdata.com.</desc>
  <defs>
    <linearGradient id="terrain" x1="0" x2="1" y1="0" y2="1">
      <stop offset="0%" stop-color="#6c8c53" />
      <stop offset="42%" stop-color="#d5c487" />
      <stop offset="72%" stop-color="#b88b5f" />
      <stop offset="100%" stop-color="#f1f5ee" />
    </linearGradient>
    <filter id="softShadow" x="-10%" y="-10%" width="120%" height="120%">
      <feDropShadow dx="0" dy="10" stdDeviation="12" flood-color="#0f172a" flood-opacity="0.16" />
    </filter>
    <style>
      .neighbor { fill: #ffffff; stroke: #94a3b8; stroke-width: 1.2; opacity: 0.72; }
      .country { fill: url(#terrain); stroke: #1f2937; stroke-width: 4; filter: url(#softShadow); }
      .admin1 { fill: none; stroke: #64748b; stroke-width: 1.1; stroke-dasharray: 6 7; opacity: 0.75; }
      .river { fill: none; stroke: #1d9bd1; stroke-width: 3; stroke-linecap: round; opacity: 0.88; }
      .lake { fill: #8ed1ea; stroke: #0ea5e9; stroke-width: 1.5; opacity: 0.8; }
      .city circle { fill: #ef4444; stroke: #ffffff; stroke-width: 2; }
      .city text, .terrain-label { fill: #172033; font: 700 24px system-ui, sans-serif; paint-order: stroke; stroke: #ffffff; stroke-width: 5; stroke-linejoin: round; }
      .map-title { fill: #0f172a; font: 800 46px system-ui, sans-serif; }
      .map-subtitle { fill: #475569; font: 600 24px system-ui, sans-serif; }
      .footer { fill: #64748b; font: 500 18px system-ui, sans-serif; }
    </style>
  </defs>
  <rect width="100%" height="100%" fill="#d8edf0" />
  <rect x="40" y="40" width="1520" height="1020" rx="32" fill="#ffffff" opacity="0.54" />
  <path class="neighbor" d="M -571.8 -650 L -493.7 -650 L -412.1 -650 L -385.1 -650 L -301.3 -650 L -220.2 -650 L -137.7 -650 L -55.2 -650 L 38.2 -650 L 132.2 -650 L 189.1 -650 L 189.2 -660.5 L 198.5 -660.7 L 203.4 -645.6 L 211.9 -640.9 L 231.1 -639.2 L 259.2 -634.9 L 285.8 -626.3 L 308.1 -629.9 L 341.9 -622.8 L 350.9 -623 L 375.5 -630.8 L 401.3 -620.8 L 428.2 -610.2 L 450.4 -601.1 L 471.7 -592.3 L 474.4 -585 L 480.9 -582.3 L 479.2 -579.6 L 486.6 -578.8 L 491.9 -581.6 L 493.3 -575.1 L 498.8 -570.7 L 506.4 -570.7 L 510.4 -567.4 L 507 -562.5 L 535.7 -549.6 L 541.5 -524.6 L 547 -500.8 L 539 -484.5 L 526.1 -469.4 L 520 -459.8 L 519.4 -456.9 L 522.5 -453 L 531.8 -448.6 L 538.7 -448.6 L 570.6 -463.3 L 599 -467.6 L 634.9 -481.3 L 635.5 -484.1 L 633 -492.5 L 628.5 -497.9 L 640.9 -502.2 L 667.9 -502.4 L 693.2 -502.3 L 702 -513.1 L 705.4 -515.2 L 734.5 -535 L 746.9 -540 L 788.6 -540.2 L 839.3 -540.3 L 842 -547 L 850.8 -548.4 L 862.5 -552.7 L 872.3 -565.2 L 880.6 -586.6 L 901.6 -607.3 L 910.7 -600.1 L 929.2 -604.8 L 941.4 -596.8 L 941.3 -559.4 L 959.3 -543.8 L 964.1 -534.8 L 934.7 -521.5 L 906.5 -512 L 877.4 -503.9 L 862.9 -487.5 L 858.2 -481.4 L 858 -466.8 L 867 -452.2 L 878.4 -451.5 L 875.6 -461.6 L 883.8 -455.5 L 881.6 -447.6 L 863 -443.1 L 849.8 -443.7 L 829.5 -438.9 L 817.6 -437.5 L 801.6 -436.2 L 778.7 -428.2 L 819 -433.4 L 827.2 -428.2 L 788.7 -419.9 L 771.2 -419.9 L 772 -423.2 L 763.6 -415.6 L 771.7 -414.4 L 765.8 -394.6 L 745.8 -373.5 L 743.7 -380.5 L 737.7 -381.9 L 728.7 -388.8 L 734.4 -374 L 741.2 -369.1 L 741.6 -358.7 L 732.8 -348.1 L 717.4 -326.1 L 714.9 -327.2 L 723.4 -345.9 L 709.3 -356.4 L 706.1 -379.2 L 700.8 -367.4 L 706.7 -349.9 L 688.5 -354.2 L 707.4 -345.4 L 708.6 -319.2 L 716.5 -317.3 L 719.3 -307.8 L 723.2 -280.3 L 705.7 -259.9 L 677.3 -251.8 L 659.2 -235.6 L 645.5 -233.9 L 631.6 -223.8 L 627.7 -214.6 L 597.5 -196.7 L 582 -183.6 L 569 -167.3 L 564.8 -147.8 L 569.7 -128.7 L 578.8 -105.2 L 591 -85.7 L 591.2 -73.9 L 604.2 -42 L 603.4 -23.4 L 602.2 -12.8 L 595.3 4 L 587.1 7.5 L 573.6 4.2 L 569.2 -7.9 L 558.8 -14.2 L 544.2 -37.9 L 531.4 -58.9 L 527.3 -69.6 L 532.9 -87.9 L 525.2 -103 L 503.8 -126 L 493.1 -130.2 L 465.3 -117.7 L 460.4 -119.1 L 447.1 -131.9 L 429.9 -138.7 L 398.8 -135.3 L 374.4 -138.3 L 353.4 -136.4 L 342.1 -132.1 L 347 -124.8 L 346.6 -113.7 L 352.4 -108.3 L 347.2 -104.6 L 337 -108.7 L 326.7 -103.5 L 306.7 -104.3 L 286.2 -118.9 L 262.2 -115.4 L 242.2 -121.8 L 225.1 -119.9 L 202 -113.4 L 177 -93.1 L 149.7 -81.2 L 134.7 -68.1 L 128.3 -55.7 L 128.1 -36.8 L 129.4 -23.6 L 134.7 -14.2 L 123.9 -13.4 L 104.4 -19.4 L 83 -28 L 75.3 -40.9 L 69.2 -60.1 L 53 -75.8 L 43.5 -91.9 L 29.7 -110.7 L 10.3 -121.7 L -12.1 -121.1 L -29.4 -99.4 L -52.3 -107.7 L -66.5 -116 L -73.3 -131.1 L -82.4 -145.4 L -98.8 -157.5 L -112.8 -166.2 L -122.8 -176 L -170.4 -176 L -170.5 -164.6 L -192.3 -164.6 L -247 -164.4 L -309.7 -183.8 L -351.2 -197.1 L -348.6 -202.5 L -383.5 -199.5 L -414.7 -197.4 L -419.4 -211.5 L -437.2 -227.3 L -450 -230.6 L -453 -238.4 L -468.4 -239.8 L -478.3 -247.3 L -503.8 -250 L -510.8 -254.4 L -514.1 -269.5 L -540.8 -297.1 L -563.7 -335.3 L -562.7 -341.7 L -574.9 -350.8 L -596.1 -373.8 L -599.9 -396.2 L -614.6 -411.2 L -608.6 -434 L -609.5 -457.6 L -618.3 -478.6 L -607.5 -504.5 L -604.2 -529.5 L -600.9 -554.4 L -605.8 -591.3 L -614.5 -614.8 L -622.5 -627.6 L -619.2 -632.9 L -579.4 -623.6 L -564.8 -597.6 L -558 -604.9 L -562.4 -627.4 L -571.8 -650 Z M -1466.8 144.9 L -1461.9 147.3 L -1457.4 151 L -1450.4 160.6 L -1451.1 162.2 L -1461.8 168 L -1470.6 172.3 L -1474.6 176.9 L -1481.5 173 L -1480.7 165.3 L -1485.2 155.3 L -1483.9 152.2 L -1479.1 147.8 L -1481 142.3 L -1479.4 139.8 L -1477.3 140.3 L -1466.8 144.9 Z M -1483.1 126.1 L -1485.4 129.4 L -1494.6 131.4 L -1499.3 125.6 L -1502.5 123.4 L -1502.7 121.7 L -1500 119.3 L -1490.3 121.9 L -1483.1 126.1 Z M -1504 114.8 L -1504.9 117.8 L -1519.6 117 L -1517.6 113.6 L -1504 114.8 Z M -1538.9 99.9 L -1536.6 101.7 L -1528.6 110.8 L -1530.1 112.4 L -1532.1 112 L -1541.7 111.1 L -1545.2 104.8 L -1546.2 103.7 L -1538.9 99.9 Z M -1575.7 86.2 L -1575.1 92.6 L -1578.4 95.4 L -1587.7 90.4 L -1586.2 88.4 L -1582.1 85.7 L -1575.7 86.2 Z M -1770.9 -962.9 L -1749.1 -960.4 L -1746.5 -949.9 L -1763.4 -945.6 L -1781.4 -950.7 L -1798.1 -958.2 L -1770.9 -962.9 Z M -1407 -896.5 L -1388.8 -894.6 L -1377.1 -886.1 L -1400.9 -873.1 L -1428.4 -862.6 L -1442.4 -869.7 L -1446.7 -882.5 L -1421.7 -892.3 L -1407 -896.5 Z M -1070.5 -1219.3 L -1070.5 -1219.3 L -1070.7 -1117.3 L -1070.8 -960.8 L -1043.8 -959.9 L -1017 -952.3 L -997.8 -940.3 L -973.4 -922.2 L -946.7 -937.6 L -919.1 -946.5 L -904.5 -932.3 L -886 -921 L -860.8 -908.6 L -843.6 -888.9 L -815.5 -857.6 L -768.8 -840.1 L -768 -822.7 L -783.3 -809.5 L -783.3 -809.5 L -783.3 -809.5 L -798.4 -819.8 L -822.6 -828.6 L -830.4 -852.6 L -865.8 -874.8 L -880.6 -900.7 L -907 -902.5 L -950.7 -903.2 L -982.9 -911.1 L -1039.8 -939.6 L -1066.1 -944.8 L -1114.2 -954.7 L -1152.2 -952.3 L -1206.3 -964.9 L -1239 -976.6 L -1269.5 -970.8 L -1263.8 -951.7 L -1279 -950 L -1310.8 -944.2 L -1335 -935 L -1365.5 -929.1 L -1369.4 -945.3 L -1357 -972.3 L -1327.8 -980.7 L -1335.4 -987.6 L -1370.4 -972.3 L -1389.2 -954 L -1428.8 -934.5 L -1408.6 -921.1 L -1434.6 -901.4 L -1464.2 -889.9 L -1491.7 -881.5 L -1498.5 -869.3 L -1541.4 -855.1 L -1550.1 -842.2 L -1582.2 -830.5 L -1601.1 -832.6 L -1626.8 -824.9 L -1654.7 -815.6 L -1677.5 -806.4 L -1724.7 -798.5 L -1729 -803.1 L -1698.9 -816 L -1672 -824.5 L -1642.7 -839.5 L -1608.6 -842.6 L -1595.1 -853.9 L -1557 -870.3 L -1550.9 -875.8 L -1530.6 -885.5 L -1525.8 -906.4 L -1511.8 -922.6 L -1543.5 -914.3 L -1552.4 -919 L -1567.3 -909 L -1585.2 -923 L -1592.6 -913.1 L -1602.9 -926.8 L -1630.4 -915.8 L -1647.3 -915.8 L -1649.6 -932.2 L -1644.7 -942.3 L -1662.4 -952 L -1698.1 -946.8 L -1721.3 -959.7 L -1740.1 -966.3 L -1740.2 -981.8 L -1761.4 -993.6 L -1750.8 -1009.4 L -1728.4 -1024.7 L -1718.6 -1038.8 L -1696.3 -1040.8 L -1677.5 -1036.4 L -1655.3 -1049.7 L -1635.3 -1047.3 L -1614.4 -1055.8 L -1619.5 -1068.4 L -1634.9 -1073.3 L -1614.5 -1084 L -1631.4 -1083.6 L -1660.6 -1077.7 L -1669 -1071.6 L -1690.6 -1077.6 L -1729.5 -1074.6 L -1769.8 -1081.2 L -1781.3 -1092.2 L -1816.1 -1108.2 L -1777.5 -1119.7 L -1716.1 -1133.1 L -1693.5 -1133.1 L -1697.3 -1119.4 L -1639.3 -1120.4 L -1661.6 -1137.5 L -1695.4 -1147.9 L -1714.9 -1161.7 L -1741.3 -1173.4 L -1779.1 -1182.1 L -1763.7 -1196.5 L -1714.9 -1197.4 L -1680.2 -1209.9 L -1673.7 -1223.3 L -1645.6 -1236.4 L -1618.8 -1239.5 L -1566.7 -1251.7 L -1541.5 -1249.9 L -1499.2 -1264.5 L -1457.6 -1258.7 L -1437.7 -1246.3 L -1425.5 -1251.7 L -1379 -1250 L -1380.7 -1243.7 L -1338.6 -1239 L -1310.6 -1241.8 L -1252.7 -1233.1 L -1199.8 -1230.5 L -1178.7 -1226.9 L -1142.1 -1231.4 L -1100.4 -1223.1 L -1070.5 -1219.3 L -1070.5 -1219.3 Z M -1915.6 -1056.3 L -1898.6 -1051.1 L -1881.5 -1053.9 L -1859.3 -1046.6 L -1832 -1043 L -1834.3 -1040 L -1855.1 -1034.2 L -1876 -1040.1 L -1886.5 -1045.1 L -1910.7 -1043.5 L -1917.2 -1045.9 L -1915.6 -1056.3 Z" />
<path class="neighbor" d="M 833.6 155 L 836 169.9 L 833.9 180.5 L 827.2 185.1 L 834.2 193.4 L 833.7 200.9 L 815.4 196.2 L 802.5 198.1 L 785.7 196.1 L 772.8 201.2 L 758.1 192.7 L 760.5 183.8 L 785.8 187.6 L 806.6 189.8 L 816.5 183.7 L 803.9 171.8 L 804.1 161.3 L 786.8 157 L 793 149.4 L 809.7 150.7 L 833.6 155 Z" />
<path class="neighbor" d="M 833.7 200.9 L 834.2 193.4 L 827.2 185.1 L 833.9 180.5 L 836 169.9 L 833.6 155 L 837 150.3 L 858.5 150.4 L 874.7 157.5 L 882 156.8 L 887 166.6 L 902 166 L 901.1 174.2 L 913.4 175.2 L 926.9 185.3 L 916.7 196.5 L 903.6 190.5 L 891 191.6 L 881.9 190.3 L 877 195.3 L 866.4 197 L 862.2 190.4 L 853.2 194.3 L 842.1 213.1 L 835.1 208.8 L 833.7 200.9 Z" />
<path class="neighbor" d="M 1337.6 1625 L 1330 1609.5 L 1342.1 1596.4 L 1326.2 1577.7 L 1304.7 1562.5 L 1276.4 1544.9 L 1266.2 1545.7 L 1238.6 1524.5 L 1220.8 1527.4 L 1257.5 1489.9 L 1288.5 1463.2 L 1306.9 1452 L 1330.1 1436.9 L 1330.6 1414.9 L 1316.8 1399.1 L 1303.2 1404.3 L 1308.6 1388.5 L 1312.4 1372.2 L 1312.4 1357.1 L 1302.5 1352.1 L 1292.2 1356.6 L 1281.9 1355.4 L 1278.7 1344.8 L 1276.1 1319.6 L 1271 1311.4 L 1252.4 1303.9 L 1241.2 1309.3 L 1212.2 1304 L 1214 1266.7 L 1205.9 1251.4 L 1214.5 1245.8 L 1211.8 1230.1 L 1219.4 1218.1 L 1224.3 1196.4 L 1217.8 1179.3 L 1202.8 1171.6 L 1199.8 1160.8 L 1203.8 1144.9 L 1151.1 1143.7 L 1140.6 1111.7 L 1148.6 1111.3 L 1148.2 1099.4 L 1142.9 1091.4 L 1141.7 1075.5 L 1125.7 1067.4 L 1108.4 1067.6 L 1097 1059.6 L 1078.5 1054.2 L 1067.6 1043.9 L 1036.9 1039.4 L 1007 1014.8 L 1009.2 996.3 L 1005.8 985.8 L 1008.8 965.2 L 972.8 969.8 L 958.3 980.2 L 934.3 991.3 L 928.2 999.6 L 914 1000.2 L 893.6 997.9 L 878.1 1002.6 L 865.6 999.5 L 867.4 957.7 L 844.8 973.9 L 820.6 973.2 L 810.2 958.5 L 791.9 956.9 L 797.8 945.1 L 782.5 928.4 L 771 903.7 L 778.3 898.6 L 778.3 887 L 794.9 879.1 L 792.1 864.2 L 799.2 854.7 L 801.1 841.8 L 832.6 823.1 L 855.1 817.8 L 858.8 813.7 L 883.6 815 L 895.9 739.6 L 896.6 727.7 L 892.3 712 L 880.1 701.9 L 880.2 682 L 895.7 677.4 L 901.2 680.3 L 902.1 669.8 L 886 666.9 L 885.7 649.7 L 939.2 650.3 L 948.3 640.9 L 955.9 649.6 L 961.3 665.8 L 966.5 662.4 L 981.6 676.9 L 1003 675.2 L 1008.3 666.8 L 1028.8 660.3 L 1040.1 655.8 L 1043.3 644.2 L 1062.9 636.4 L 1061.4 630.6 L 1038.1 628.2 L 1034.3 610.9 L 1035.4 592.5 L 1023.1 585.4 L 1028.3 582.8 L 1048.6 586.3 L 1070.5 593.2 L 1078.4 586.7 L 1098.2 582.5 L 1128.9 572.2 L 1139 561.7 L 1135.3 553.9 L 1149.6 552.7 L 1156 559 L 1152.4 571.1 L 1161.9 575.3 L 1168.2 588 L 1160.6 597.7 L 1156.2 621.1 L 1163.2 635 L 1165.2 647.7 L 1182.1 660.6 L 1195.6 662 L 1198.7 656.6 L 1207.4 655.4 L 1219.8 650.6 L 1228.7 643.3 L 1243.9 645.6 L 1250.6 644.6 L 1265.6 646.9 L 1268 641.3 L 1263.4 635.8 L 1266.2 627.9 L 1277.3 630.3 L 1290.3 627.5 L 1306 633.3 L 1318 639 L 1326.5 631.5 L 1332.7 632.7 L 1336.4 640.4 L 1349.6 638.5 L 1360.1 628 L 1368.5 607.8 L 1384.8 582.6 L 1394.2 581.3 L 1401 596.5 L 1416.4 644.6 L 1431.1 649.1 L 1431.8 668.1 L 1411.1 690.7 L 1419.7 699 L 1468.3 703.3 L 1469.3 730.9 L 1490.1 712.8 L 1524.7 722.7 L 1570.4 739.5 L 1583.8 755.6 L 1579.3 770.8 L 1611.3 762.4 L 1664.8 776.9 L 1705.8 775.8 L 1746.4 798.6 L 1781.6 829.4 L 1802.7 837.3 L 1826.2 838.4 L 1836.2 847.1 L 1845.5 882.1 L 1850.1 898.7 L 1839.1 944.1 L 1825.2 962.1 L 1786.4 1000.3 L 1768.9 1031.4 L 1748.6 1055.2 L 1741.7 1055.8 L 1734 1076 L 1736 1127.5 L 1728.3 1169.9 L 1725.4 1188 L 1716.7 1198.8 L 1711.8 1235.6 L 1683.9 1271.4 L 1679.3 1299.8 L 1657 1311.7 L 1650.6 1328.2 L 1620.7 1328.2 L 1577.5 1338.7 L 1558.1 1350.9 L 1527.3 1359 L 1495 1380.9 L 1471.7 1408.1 L 1467.7 1428.7 L 1472.3 1443.8 L 1467.2 1471.6 L 1460.9 1485 L 1441.7 1500.1 L 1411.2 1548.5 L 1387 1570.3 L 1368.4 1583.2 L 1355.8 1609.3 L 1337.6 1625 Z" />
<path class="neighbor" d="M 893.6 997.9 L 914 1000.2 L 928.2 999.6 L 934.3 991.3 L 958.3 980.2 L 972.8 969.8 L 1008.8 965.2 L 1005.8 985.8 L 1009.2 996.3 L 1007 1014.8 L 1036.9 1039.4 L 1067.6 1043.9 L 1078.5 1054.2 L 1097 1059.6 L 1108.4 1067.6 L 1125.7 1067.4 L 1141.7 1075.5 L 1142.9 1091.4 L 1148.2 1099.4 L 1148.6 1111.3 L 1140.6 1111.7 L 1151.1 1143.7 L 1203.8 1144.9 L 1199.8 1160.8 L 1202.8 1171.6 L 1217.8 1179.3 L 1224.3 1196.4 L 1219.4 1218.1 L 1211.8 1230.1 L 1214.5 1245.8 L 1205.9 1251.4 L 1205.4 1243 L 1179.8 1228.9 L 1154.3 1228.5 L 1106.4 1236.5 L 1093.2 1260.7 L 1092.5 1275.5 L 1081.7 1308.4 L 1077.3 1302.5 L 1045.9 1301.4 L 1035.2 1323.5 L 1019 1303.6 L 983.1 1297 L 960.2 1321.8 L 940.3 1325.6 L 929.6 1287.7 L 914.8 1256.8 L 923.5 1230.2 L 909 1218.6 L 905.4 1198.8 L 891.9 1180.1 L 909.2 1150.4 L 897.4 1127.3 L 903.7 1118.1 L 898.8 1107.9 L 909.5 1094.1 L 910.1 1070.7 L 911.4 1051.4 L 917.3 1042.1 L 893.6 997.9 Z" />
<path class="neighbor" d="M 883.6 815 L 858.8 813.7 L 855.1 817.8 L 832.6 823.1 L 801.1 841.8 L 799.2 854.7 L 792.1 864.2 L 794.9 879.1 L 778.3 887 L 778.3 898.6 L 771 903.7 L 782.5 928.4 L 797.8 945.1 L 791.9 956.9 L 810.2 958.5 L 820.6 973.2 L 844.8 973.9 L 867.4 957.7 L 865.6 999.5 L 878.1 1002.6 L 893.6 997.9 L 917.3 1042.1 L 911.4 1051.4 L 910.1 1070.7 L 909.5 1094.1 L 898.8 1107.9 L 903.7 1118.1 L 897.4 1127.3 L 909.2 1150.4 L 891.9 1180.1 L 884.5 1194.2 L 870.4 1201.2 L 842.8 1185.4 L 840.4 1174.1 L 786 1146.5 L 736.7 1116.5 L 715.5 1099.5 L 704.1 1076.8 L 708.6 1068.9 L 685.3 1032.8 L 658.2 982.1 L 632.2 927.4 L 621 914.8 L 612.4 894.6 L 591 876.7 L 571.4 865.5 L 580.3 853.3 L 567 827.1 L 575.5 807.8 L 597.5 790.4 L 600.7 801.9 L 592.9 808.4 L 593.6 818.5 L 605 816.3 L 616.1 819.3 L 627.6 833.2 L 643.2 821.9 L 648.4 803.3 L 665.2 779.4 L 698.3 768.6 L 728.2 739.8 L 736.8 721.9 L 732.9 701 L 740.3 698.4 L 758.6 711.4 L 767.3 724.4 L 780 731.5 L 796.2 760.3 L 816.7 763.8 L 831.9 756.5 L 841.8 761.3 L 858.3 758.9 L 879.3 771.8 L 861.6 799.7 L 869.8 800.4 L 883.6 815 Z" />
<path class="neighbor" d="M 678.5 458.5 L 675.2 462.6 L 681.6 478.7 L 676.4 486.9 L 667.5 484.9 L 664 498.3 L 654.8 490.4 L 648.9 475.5 L 655.7 468.2 L 648.8 466.3 L 643.6 457.2 L 629.9 449.6 L 617.9 451.3 L 612.4 460.9 L 601.2 467.8 L 595.3 468.8 L 592.6 474.5 L 605.7 489.4 L 598.2 492.9 L 594.2 497 L 581.4 498.4 L 576.6 482 L 573.1 486.6 L 564 485 L 558.5 474 L 547.2 472.1 L 540.1 468.9 L 528.3 469 L 527.4 474.9 L 524.3 470.8 L 525.7 465.3 L 528 459.8 L 526.9 454.8 L 531 451.5 L 525.3 447.4 L 525.2 436.4 L 535.8 433.9 L 545.7 443.8 L 545.1 449.6 L 556.1 450.8 L 558.7 448.6 L 566.2 455.4 L 579.7 453.4 L 591.4 446.4 L 608.1 440.9 L 617.5 432.7 L 632.7 434.3 L 631.7 437 L 647 437.9 L 659.2 442.7 L 668.2 450.9 L 678.5 458.5 Z" />
<path class="neighbor" d="M 535.8 433.9 L 525.2 436.4 L 525.3 447.4 L 531 451.5 L 526.9 454.8 L 528 459.8 L 525.7 465.3 L 524.3 470.8 L 509.3 464.7 L 503.8 458.9 L 506.9 454.1 L 505.9 448.1 L 498.3 441.5 L 487.5 436.1 L 478 432.6 L 476.2 424.5 L 469 419.6 L 470.8 427.6 L 465.3 434.2 L 459 426.5 L 450.2 423.8 L 446.4 418.3 L 446.6 409.9 L 450.2 401.3 L 442.5 397.4 L 448.8 392.1 L 452.9 388.5 L 471 395.8 L 477.3 392.2 L 486 394.5 L 490.6 400.2 L 498.7 402 L 505.3 396.2 L 512.3 411.1 L 522.9 422.2 L 535.8 433.9 Z" />
<path class="neighbor" d="M 505.3 396.2 L 498.7 402 L 490.6 400.2 L 486 394.5 L 477.3 392.2 L 471 395.8 L 452.9 388.5 L 448.8 392.1 L 439.2 383.4 L 426.4 372.3 L 420.3 363.1 L 408.8 354.4 L 395 342 L 398 337.8 L 402.6 341.9 L 404.7 340 L 413.2 338.8 L 416.6 332.5 L 420.7 332.3 L 420.1 318.8 L 426.5 318.1 L 432.3 318.3 L 438.2 311 L 446.3 316.6 L 449.1 313.1 L 454.2 309.9 L 463.8 302.3 L 464.2 296.6 L 466.9 296.9 L 470.4 290.3 L 473.3 289.5 L 478 293.7 L 483.5 295 L 489.5 291.5 L 496.5 291.4 L 506 287.9 L 509.8 284.1 L 519.3 284.7 L 516.9 287.3 L 515.5 293.4 L 518.3 303.5 L 512 312.9 L 509 323.9 L 508.1 336 L 509.6 343.1 L 510.3 355.5 L 506.1 358.2 L 503.5 370 L 505.4 377.2 L 499.8 384.2 L 501.1 391.7 L 505.3 396.2 Z" />
<path class="neighbor" d="M 519.3 284.7 L 509.8 284.1 L 506 287.9 L 496.5 291.4 L 489.5 291.5 L 483.5 295 L 478 293.7 L 473.3 289.5 L 470.4 290.3 L 466.9 296.9 L 464.2 296.6 L 463.8 302.3 L 454.2 309.9 L 449.1 313.1 L 446.3 316.6 L 438.2 311 L 432.3 318.3 L 426.5 318.1 L 420.1 318.8 L 420.7 332.3 L 416.6 332.5 L 413.2 338.8 L 404.7 340 L 399.9 331.4 L 391.6 329 L 393.5 318 L 389.7 315 L 384.1 313 L 372 316.3 L 371 312.6 L 362.7 308.2 L 356.8 302.7 L 348.7 300.4 L 354.4 293.4 L 352.2 288 L 354.1 282.7 L 367.2 275 L 379.7 264.6 L 382.5 265.6 L 388.6 260.8 L 396.4 260.4 L 399 262.6 L 403.3 261.3 L 416 263.8 L 428.7 263 L 437.6 260 L 440.8 256.9 L 449.6 258.3 L 456.1 260.2 L 463.3 259.6 L 468.8 257.2 L 481.3 261 L 485.7 261.6 L 494.1 266.7 L 502 272.9 L 512 277.1 L 519.3 284.7 Z" />
<path class="neighbor" d="M 1135.3 553.9 L 1139 561.7 L 1128.9 572.2 L 1098.2 582.5 L 1078.4 586.7 L 1070.5 593.2 L 1048.6 586.3 L 1028.3 582.8 L 1023.1 585.4 L 1035.4 592.5 L 1034.3 610.9 L 1038.1 628.2 L 1061.4 630.6 L 1062.9 636.4 L 1043.3 644.2 L 1040.1 655.8 L 1028.8 660.3 L 1008.3 666.8 L 1003 675.2 L 981.6 676.9 L 966.5 662.4 L 958.1 635 L 950.8 625.4 L 940.8 619.3 L 954.8 605.6 L 953.8 599.5 L 946 591.3 L 940.5 573.1 L 942.6 553.3 L 948.8 544.1 L 953.7 529.3 L 944 524.6 L 928.3 527.7 L 908.5 526.3 L 897.4 529.2 L 878.1 505.5 L 862.1 502 L 826.8 504.7 L 820.2 495.1 L 813.4 492.8 L 812.5 487.1 L 815.7 476.9 L 813.6 465.8 L 807.5 459.8 L 804 447.1 L 789.8 445.3 L 797.4 429.2 L 800.8 409.6 L 808.8 399.4 L 819.4 391.5 L 826.4 377.8 L 844 373.2 L 843.3 379.7 L 827.1 382.9 L 836.1 395.3 L 835.7 409.7 L 823.6 425.7 L 834 447.5 L 845.9 445.7 L 852 425.8 L 843.5 416.2 L 842.1 395.4 L 876.4 384.2 L 872.6 371.2 L 882.2 362.6 L 892.1 381.9 L 911.3 382.3 L 929.2 397.6 L 930.3 406.7 L 955 407 L 984.3 404.2 L 1000.1 416.5 L 1021.1 419.9 L 1036.5 411.3 L 1036.8 404.4 L 1070.9 402.7 L 1103.8 402.3 L 1080.5 410.4 L 1089.8 423.4 L 1111.8 425.5 L 1132.7 439 L 1137 461 L 1151.4 460.4 L 1162.1 466.9 L 1140.4 483 L 1138 493 L 1147.4 503.2 L 1140.5 508.4 L 1123.6 512.8 L 1124.2 525.5 L 1116.7 533.1 L 1135.3 553.9 Z" />
<path class="neighbor" d="M 1250.6 644.6 L 1243.9 645.6 L 1228.7 643.3 L 1219.8 650.6 L 1207.4 655.4 L 1198.7 656.6 L 1195.6 662 L 1182.1 660.6 L 1165.2 647.7 L 1163.2 635 L 1156.2 621.1 L 1160.6 597.7 L 1168.2 588 L 1161.9 575.3 L 1152.4 571.1 L 1156 559 L 1149.6 552.7 L 1135.3 553.9 L 1116.7 533.1 L 1124.2 525.5 L 1123.6 512.8 L 1140.5 508.4 L 1147.4 503.2 L 1138 493 L 1140.4 483 L 1162.1 466.9 L 1180.2 477 L 1197.2 494.9 L 1198 509 L 1208.3 509.7 L 1223.1 523.1 L 1233.9 532.7 L 1229.5 557.4 L 1212.8 564.6 L 1214.3 571.1 L 1209.2 585.2 L 1221.4 605.2 L 1230.2 605.2 L 1233.8 620.7 L 1250.6 644.6 Z" />
<path class="neighbor" d="M 732.9 701 L 736.8 721.9 L 728.2 739.8 L 698.3 768.6 L 665.2 779.4 L 648.4 803.3 L 643.2 821.9 L 627.6 833.2 L 616.1 819.3 L 605 816.3 L 593.6 818.5 L 592.9 808.4 L 600.7 801.9 L 597.5 790.4 L 612.1 769.9 L 606.1 757.9 L 595.6 770.7 L 579.2 758.6 L 584.7 750.9 L 580.1 725.9 L 589.7 721.8 L 594.8 704.7 L 605.2 687 L 603.3 675.7 L 618.3 669.8 L 637.2 658.9 L 664.7 674.6 L 669.9 674.2 L 676.5 686 L 699.9 689.8 L 707.7 685.4 L 721.2 694.5 L 732.9 701 Z" />
<path class="neighbor" d="M 982.8 188 L 996.9 190.4 L 1001.8 195.8 L 994.8 202.8 L 974.1 202.6 L 958 203.6 L 956.4 191.8 L 960.3 187.8 L 982.8 188 Z" />
<path class="neighbor" d="M 672.6 188.6 L 691.1 191.1 L 705.7 197.7 L 710.2 205.2 L 690.9 205.7 L 682.6 210.3 L 667.2 205.9 L 651.5 195.9 L 654.8 189.6 L 666.3 187.7 L 672.6 188.6 Z" />
<path class="neighbor" d="M 543.4 59.5 L 567.2 61.4 L 588.8 61.8 L 614.6 71.1 L 625.5 81.2 L 651.2 78.1 L 660.9 84.5 L 684.2 101.6 L 701.3 114 L 710.4 113.6 L 726.8 119.2 L 724.8 126.9 L 745 128.1 L 765.8 139.3 L 762.5 145.7 L 744.3 149.2 L 725.8 150.6 L 706.8 148.4 L 667.5 151.1 L 685.9 135.8 L 674.7 128.6 L 657 126.8 L 647.5 118.9 L 641 103.2 L 625.4 104.3 L 599.8 96.9 L 591.5 91.1 L 555.7 86.9 L 546.1 81.5 L 556.4 74.6 L 529.5 73.2 L 509.7 87.5 L 498.3 87.9 L 494.4 94.6 L 480.8 97.6 L 469 95 L 483.5 86.5 L 489.5 76.6 L 501.9 70.5 L 516 65.1 L 536.8 62.5 L 543.4 59.5 Z" />
<path class="neighbor" d="M 1109.3 401.1 L 1125.1 397.5 L 1130.9 398.5 L 1129.8 419 L 1106.8 422 L 1101.9 419.5 L 1109.9 412 L 1109.3 401.1 Z" />
<path class="lake" d="M 473.4 387.3 L 474.1 388.8 L 474.4 390.2 L 474.7 391.3 L 473.7 392.7 L 472.7 393.2 L 471.2 393.5 L 470 393.1 L 468.2 392.9 L 465.3 392.3 L 461.2 391.1 L 457 389.7 L 454.1 388.6 L 452.3 387.6 L 450.7 386.7 L 449.5 385.8 L 448.6 384.8 L 447.6 383.3 L 446.4 381.2 L 445.4 379 L 444.9 377.3 L 444.6 376.3 L 444.2 375.7 L 443.9 375.5 L 443.6 375.2 L 443.5 374.7 L 443.6 374 L 443.6 372.7 L 443.4 370.5 L 443.2 368.3 L 443.3 366.9 L 443.8 366.1 L 444.4 364.3 L 445.4 364 L 446.4 364.1 L 447.7 364.4 L 449.8 365.3 L 452.2 366.6 L 454.2 368.2 L 456.2 369.7 L 458.4 371 L 461.2 373 L 464.7 376.3 L 468.1 380 L 470.6 383.1 L 472.3 385.5 L 473.4 387.3 L 473.4 387.3 L 473.4 387.3 L 473.4 387.3 Z" />
<path class="lake" d="M 839.2 189.2 L 838.4 190.2 L 836.5 190.5 L 831.3 188.5 L 831.8 187.5 L 834.4 187 L 837.1 188 L 839.2 189.2 L 839.2 189.2 L 839.2 189.2 Z" />
<path class="lake" d="M 614.8 445.5 L 614.3 446.1 L 614.3 446.6 L 611.3 447.5 L 610.4 448.2 L 610 448.2 L 609.7 448 L 610.3 447.3 L 611 446.6 L 610.3 446.2 L 609.2 445.7 L 608.5 445.2 L 608.2 446.2 L 607.8 447.3 L 607.2 447.6 L 607 448.3 L 606.9 448.9 L 606.5 448.8 L 606 448.4 L 605.5 447.8 L 605.2 447.9 L 605.2 448.5 L 605 448.8 L 604.2 448.9 L 603.7 449 L 603.9 448.4 L 605.4 446.8 L 607.1 444.2 L 607.9 442.1 L 609.7 441.4 L 610.7 440.7 L 611 440.8 L 611.1 441.6 L 611.3 442.5 L 610.7 442.9 L 610.1 443.4 L 610.2 443.8 L 610.8 444.4 L 611.1 444.7 L 611.9 445.4 L 612.9 445.9 L 613.5 446 L 614.4 445.8 L 614.8 445.5 L 614.8 445.5 L 614.8 445.5 L 614.8 445.5 Z" />
<path class="country" d="M 966.5 662.4 L 961.3 665.8 L 955.9 649.6 L 948.3 640.9 L 939.2 650.3 L 885.7 649.7 L 886 666.9 L 902.1 669.8 L 901.2 680.3 L 895.7 677.4 L 880.2 682 L 880.1 701.9 L 892.3 712 L 896.6 727.7 L 895.9 739.6 L 883.6 815 L 869.8 800.4 L 861.6 799.7 L 879.3 771.8 L 858.3 758.9 L 841.8 761.3 L 831.9 756.5 L 816.7 763.8 L 796.2 760.3 L 780 731.5 L 767.3 724.4 L 758.6 711.4 L 740.3 698.4 L 732.9 701 L 721.2 694.5 L 707.7 685.4 L 699.9 689.8 L 676.5 686 L 669.9 674.2 L 664.7 674.6 L 637.2 658.9 L 633.5 650.4 L 643.8 648.3 L 642.5 634.5 L 649 624.6 L 662.6 622.7 L 674.2 605.5 L 684.7 591 L 674.6 584.5 L 679.8 568.6 L 673.6 543.4 L 679.5 536.2 L 675.1 512.9 L 664 498.3 L 667.5 484.9 L 676.4 486.9 L 681.6 478.7 L 675.2 462.6 L 678.5 458.5 L 692.7 459.4 L 713.3 440.2 L 724.7 437.3 L 724.9 428.2 L 730 405 L 745.8 392.2 L 763.1 391.7 L 765.3 386 L 786.8 388.3 L 808.4 374.4 L 819.1 368.2 L 832.4 355 L 842.2 356.7 L 849.4 363.9 L 844 373.2 L 826.4 377.8 L 819.4 391.5 L 808.8 399.4 L 800.8 409.6 L 797.4 429.2 L 789.8 445.3 L 804 447.1 L 807.5 459.8 L 813.6 465.8 L 815.7 476.9 L 812.5 487.1 L 813.4 492.8 L 820.2 495.1 L 826.8 504.7 L 862.1 502 L 878.1 505.5 L 897.4 529.2 L 908.5 526.3 L 928.3 527.7 L 944 524.6 L 953.7 529.3 L 948.8 544.1 L 942.6 553.3 L 940.5 573.1 L 946 591.3 L 953.8 599.5 L 954.8 605.6 L 940.8 619.3 L 950.8 625.4 L 958.1 635 L 966.5 662.4 Z" />

<path class="river" d="M 614.3 446.6 L 612.5 446.4 L 610.9 445.3 L 607.9 442.1" />
<path class="river" d="M 474.7 391.3 L 468.9 388.8 L 461.4 382.1 L 444.4 364.3" />
<path class="river" d="M 1357.1 739.5 L 1351.4 741.1 L 1347.9 742.7 L 1343.9 745.3 L 1338.1 747.4 L 1330.3 748.8 L 1324.7 750.7 L 1321.2 752.9 L 1319.2 755.7 L 1318.7 759.2 L 1315.3 761.7 L 1307.6 763.9 L 1306 763.9 L 1304.9 763.9 L 1302.9 763.4 L 1301.8 761.7 L 1301.9 758.8 L 1301.3 756.9 L 1300.2 756 L 1298.6 755.1 L 1296.4 754.3 L 1294.1 754.7 L 1291.7 756.4 L 1288.8 756.8 L 1285.5 755.8 L 1282.6 754.1 L 1280.3 751.5 L 1278.8 750.4 L 1277.7 749.7 L 1276.3 749.6 L 1274.5 749.8 L 1272.7 750.8 L 1269.9 751.6 L 1266 752 L 1261.9 754 L 1257.6 757.6 L 1254.4 761.1 L 1252.3 764.3 L 1250.4 766.3 L 1248.8 767.1 L 1246.9 767.6 L 1244.7 767.8 L 1242.2 767.4 L 1239.3 766.3 L 1236.6 766.2 L 1234 767 L 1231.2 766.3 L 1228.3 764.2 L 1225.9 763 L 1224.1 762.7 L 1221.3 765.1 L 1217.6 770 L 1213.7 773.4 L 1209.5 775.1 L 1206.8 778.2 L 1205.4 782.5 L 1204 784.8 L 1203.1 785.2 L 1201.8 785.1 L 1200 784.9 L 1198 784.3 L 1195.4 785 L 1192.8 787.7 L 1191.5 788.7 L 1188.3 788.9 L 1186 788.2 L 1183.5 786.8 L 1180.5 785.9 L 1177 785.6 L 1172.5 784.4 L 1166.9 782.3 L 1162.8 781.5 L 1160 781.9 L 1158.3 782.8 L 1158.1 784 L 1157.6 785 L 1156.7 785.8 L 1152.6 787.7 L 1149.9 788.3 L 1147.8 787.6 L 1144.2 787.6 L 1139.1 788.1 L 1135 790.3 L 1131.9 794.1 L 1127 796.1 L 1120.3 796.2 L 1115.2 797.9 L 1111.6 801.2 L 1108.3 803.6 L 1105.4 805 L 1103.5 805.3 L 1100.2 803.9 L 1092.9 800.3 L 1090.4 799.1 L 1089.7 799 L 1088.9 799.4 L 1088.2 801.4 L 1085.6 802.7 L 1081.2 803.5 L 1076.8 805.1 L 1072.5 807.7 L 1070.4 809 L 1068.9 808.8 L 1068.2 807.8 L 1067.1 806.1 L 1065.3 804.7 L 1060.7 803.3 L 1057.3 802.8 L 1055.1 803.3 L 1052.5 803.2 L 1049.6 802.5 L 1044.6 800.3 L 1037.5 796.7 L 1033 793.7 L 1029.7 790.3 L 1023.8 785.4 L 1020.7 782.8 L 1016.2 778.5 L 1013.1 774.8 L 1010.2 772.4 L 1007.2 771.3 L 1005.5 770.1 L 1004.9 768.7 L 1002.7 768.2 L 997.2 768.4 L 993.3 765.4 L 991.2 764.6 L 989.5 765.2 L 987.9 765 L 986.4 764 L 984.8 764.5 L 983.2 766.4 L 981.4 766.6 L 979.4 764.9 L 977.6 763.9 L 976 763.6 L 974.8 765 L 974.2 768 L 973 769.9 L 971.2 770.8 L 968.6 771.5 L 965.2 771.8 L 961 770.9 L 956 768.8 L 952.5 769 L 950.6 771.3 L 947.4 773.2 L 942.9 774.9 L 939.8 777.3 L 937.5 782.3 L 937.6 785.5 L 937.1 787.1 L 935.9 788.3 L 933 788.5 L 928.3 787.8 L 919.2 788.8 L 905.8 791.7 L 898.5 794.5 L 897.2 797.3 L 896.7 800.3 L 897 803.5 L 896.4 806.1 L 895 808.2 L 894.9 809.9 L 896.2 811.2 L 895.5 812.9 L 892.8 815 L 889.3 816 L 884.9 815.9 L 882.1 814.6 L 881.6 813.3 L 880.2 811.3 L 878 809.3 L 876 808.2 L 875.2 806.7 L 874 803.6 L 872.4 802.5 L 871.3 801.7 L 870.2 801.8 L 869.1 802.7 L 867.3 803.2 L 866.1 803.1 L 865.3 803.2 L 855.9 805.7 L 851.6 806.4 L 849.4 805.8 L 847.8 804.1 L 845.4 803.2 L 841.9 803 L 838.8 802 L 836 800.2 L 834.2 797.2 L 833.4 792.8 L 832.5 790.2 L 831.5 789.2 L 828 789.9 L 822.2 792.2 L 817.6 793.2 L 812.6 792.5 L 805.1 791.9 L 801.2 792.2 L 798.2 793.2 L 795.6 794.8 L 793.2 797 L 792.4 800.8 L 793 806.4 L 792.9 809.5 L 792.1 810.4 L 790.8 810.5 L 789 810 L 788.1 810.4 L 788.2 811.8 L 787.6 813.1 L 786.3 814.4 L 785.4 816 L 784.7 819" />
<path class="river" d="M 1051.6 618.6 L 1053.7 614.4 L 1053.8 612.3 L 1052.7 611.1 L 1052.1 609.9 L 1052.2 608.2 L 1051.6 601.6 L 1052.6 598 L 1055 595 L 1058.2 594.7 L 1062.3 597 L 1065.1 597.5 L 1066.7 596.3 L 1067.9 596.9 L 1068.6 599.6 L 1070 601.8 L 1072 603.6 L 1076.8 606 L 1084.4 609.1 L 1090 610.5 L 1093.5 610.3 L 1096 609.5 L 1097.5 608.2 L 1099.2 607.5 L 1101.2 607.6 L 1103.2 607 L 1105.3 605.7 L 1108.2 605.2 L 1111.9 605.6 L 1114.3 605.5 L 1115.8 604.6 L 1118.3 604.5 L 1119.8 603.9 L 1121.1 602.7 L 1125.4 602 L 1132.8 601.6 L 1137.2 601.9 L 1138.6 602.8 L 1139.9 605.7 L 1141.1 610.4 L 1139.7 615.9 L 1135.7 622.1 L 1133.5 627 L 1133.1 630.8 L 1131.6 634.1 L 1128.7 636.9 L 1127.2 638.8 L 1126.9 639.7 L 1127.4 641.1 L 1128.5 642.8 L 1127.3 645.6 L 1123.8 649.5 L 1121 656.4 L 1118.8 666.2 L 1115.4 674.5 L 1110.6 681 L 1107.2 690 L 1105.3 701.3 L 1104.7 708.4 L 1105.7 712.7 L 1104.2 718.6 L 1103.9 723.1 L 1104.3 728.2 L 1104.3 731.8 L 1103.8 735" />
<path class="river" d="M 701.1 660.3 L 701 665.5 L 701.8 667.8 L 704.1 669.3 L 708.5 669.9 L 711.7 669.7 L 715.3 668.8 L 717.9 669.5 L 719.6 671.6 L 724.2 673.7 L 731.9 675.6 L 736.3 678.3 L 737.5 681.6 L 739.4 683.4 L 742 683.8 L 743.5 685.3 L 744 688 L 746.2 690.2 L 750 691.9 L 752 694.1 L 752.3 696.9 L 753.2 698.8 L 754.6 699.6 L 756.2 699.8 L 758 699.4 L 759.6 699.4 L 761 700 L 762.3 701 L 763.5 702.4 L 766.1 704.1 L 770.2 706 L 773.9 707.1 L 777 707.4 L 779.1 708 L 780.9 709.6 L 784 711 L 786.1 711.4 L 788.4 711.1 L 790.3 711.6 L 791.8 712.8 L 794 712.9 L 796.8 711.9 L 799 711.9 L 800.6 712.9 L 802.3 713.1 L 804.1 712.5 L 806.3 713.1 L 808.9 714.8 L 811.1 714.8 L 813.1 713 L 814.7 712.7 L 816.1 713.7 L 817.8 713.5 L 819.9 712.3 L 821.8 713.2 L 823.6 716 L 825.9 717.9 L 828.9 718.8 L 831.1 720.1 L 832.5 722 L 834.5 722.9 L 837.1 722.8 L 838.2 723.7 L 837.9 725.5 L 838 726.7 L 838.8 727.3 L 840 727.4 L 842.7 726.9 L 846.9 726 L 849.6 727 L 852.2 729.4 L 854.7 730.9 L 857.1 731.6 L 859.2 732.7 L 861.2 734.4 L 863.5 735.6 L 866.1 736.3 L 868.5 736.4 L 870.9 735.9 L 873.6 736.5 L 876.8 738.2 L 878.8 738.9 L 879.7 738.6 L 881.3 736.3 L 883.6 731.9 L 886.1 730.2 L 888.9 731.3 L 891.6 731.4 L 893.7 730.6 L 895.4 730.7" />
<path class="river" d="M 417.7 328 L 423.3 325.4 L 427.3 322.8 L 429.6 322.1 L 431.3 322.4 L 433.1 323.8 L 434.9 326.1 L 436.8 326.9 L 438.8 326 L 440.7 325.7 L 442.6 325.9 L 444.8 323.6 L 447.2 318.7 L 448.3 315.5 L 448.2 313.9 L 449.6 312.5 L 452.4 311.3 L 455.2 309.1 L 458.1 305.9 L 460.5 304 L 462.6 303.5 L 463.4 302.6 L 462.9 301.4 L 463.1 299.8 L 463.9 297.6 L 465.1 296.4 L 466.7 296 L 467.3 295.3 L 467 294.3 L 467.3 293.2 L 468.7 291.4 L 472.2 289.8 L 474.1 290.3 L 475.8 292.4 L 478.1 293.9 L 481 294.6 L 483.4 294.4 L 485 293 L 486.5 292.6 L 487.8 293.2 L 488.5 292.9 L 488.6 291.7 L 489.2 291.5 L 490.5 292.1 L 491.7 292.2 L 492.7 292 L 493.1 291.4 L 493.3 290.9 L 494 290.4 L 496.6 290.9 L 499.5 290.2 L 502.7 288.5 L 504.8 287.8 L 505.8 288 L 507.1 287.1 L 508.6 285.2 L 511.9 284.3 L 519 284.8" />
<path class="river" d="M 1018.9 1763.4 L 1029.2 1764.5 L 1034.8 1765.5 L 1039.3 1766.8 L 1045.9 1769.9 L 1054.5 1774.8 L 1060.5 1777.5 L 1063.8 1778 L 1067.1 1779.3 L 1070.5 1781.2 L 1075.3 1782.5 L 1081.4 1783.2 L 1086.3 1785.6 L 1092 1791.4 L 1092.8 1792.2 L 1093.5 1793 M 872.3 1666.8 L 874.5 1675.1 L 876.1 1678.7 L 878.6 1681.2 L 884.3 1682.5 L 887.2 1685.4 L 889 1690.2 L 889.7 1693.5 L 889.1 1695.3 L 889.1 1697.5 L 889.5 1700.3 L 889 1702.8 L 887.6 1704.8 L 886.6 1707.8 L 886 1711.8 L 886.2 1714.4 L 887.3 1715.6 L 888.9 1716.8 L 891.1 1717.9 L 895.4 1718.6 L 901.9 1719.1 L 906 1720.5 L 907.7 1722.7 L 911.7 1724.4 L 918 1725.5 L 921.8 1726.7 L 923.2 1728 L 928.1 1729.2 L 936.6 1730.3 L 941.6 1732 L 942.9 1734.2 L 942.5 1736.4 L 940.3 1738.6 L 939.3 1740.5 L 939.5 1742 L 940.4 1742.9 L 942.1 1743.2 L 944.1 1744.7 L 946.6 1747.3 L 950.5 1748.3 L 955.6 1747.7 L 959 1748.7 L 960.4 1751.3 L 963.3 1753.3 L 969.6 1755.5 L 972.6 1756.8 L 974 1758.1 L 974.8 1759.8 L 976.3 1760.9 L 978.6 1761.3 L 988.7 1761.7 L 993.5 1762.3 L 997.3 1763.3 L 1000 1763.5 L 1001.7 1763 L 1003.9 1763.1 L 1006.6 1764 L 1010.6 1764.2 L 1018.7 1763.4 M -348.6 -202.6 L -350.4 -198.2 L -351.8 -196.6 L -353.4 -196.2 L -355.1 -194.2 L -356.9 -190.8 L -358.8 -188.6 L -360.8 -187.5 L -361.7 -186.1 L -361.6 -184.3 L -361.4 -183.9 L -361 -184 L -360.5 -183.7 L -359.7 -182.4 L -358.8 -181.7 L -357.2 -181.8 L -356.5 -181.2 L -355.7 -180.4 L -354.4 -180 M -333.3 -244.6 L -337.8 -241.6 L -340.3 -239.1 L -342.8 -235 L -342.4 -231.8 L -342.5 -229 L -343.1 -226.9 L -344.1 -224.9 L -345.3 -223.1 L -346.7 -222 L -348.1 -221.7 L -348.5 -219.3 L -348.1 -214.9 L -346.6 -212.2 L -343.9 -211.2 L -342.3 -209.7 L -341.7 -207.8 L -341.9 -205.9 L -343 -204 L -344.8 -202.9 L -348.6 -202.6 M -345 -274.9 L -345.6 -265.1 L -345.6 -262.6 L -344.1 -259.5 L -339.7 -253.9 L -339.2 -252.5 M -349.1 -293 L -348.9 -292.2 L -347.7 -290.4 L -347.6 -287.5 L -347.4 -285.2 L -346.6 -284 L -346.5 -282.5 M -297.9 -300.4 L -307 -296.1 L -309.4 -294 L -310.2 -292.5 L -310.2 -288.1 L -311.1 -286.2 L -312.9 -286.1 L -317.2 -287.2 L -318.8 -288 M -259.3 -318.3 L -262.6 -316 L -265.1 -313.2 L -268 -309.1 L -269.7 -306.1 L -270.3 -304 L -270.1 -301.5 L -269 -298.3 L -269.2 -296.1 L -270.8 -294.9 L -273.7 -294.7 L -277.8 -295.5 L -280.8 -296.8 L -282.7 -298.7 L -284.1 -299.4 L -285.3 -298.9 L -286.4 -298.9 L -287.4 -299.6 L -287.5 -300.6 L -286.7 -301.8 L -286.6 -302.7 L -287.2 -303.3 L -288.4 -303.7 L -290.2 -303.7 L -292.8 -302.9 L -298 -300.4 M -105.1 -407.1 L -108.5 -406.1 L -112.3 -405.1 L -116.7 -405.1 L -119.9 -404.3 L -122.1 -403.1 L -125.2 -400.5 L -126.4 -399.7 L -127.5 -399.6 L -128.8 -400.4 L -130.7 -400.5 L -133 -399.9 L -135.5 -397.9 L -138.3 -394.4 L -140 -392.8 L -142.8 -391.7 L -151.2 -391 L -156.5 -391 L -159.6 -390.4 L -162.3 -389.2 L -166.8 -386.4 L -170.5 -383.8 L -172.5 -380 L -175.8 -377.8 L -179.2 -377.6 L -185.9 -380.2 L -187.7 -380.6 L -190 -380.6 L -192.7 -379 L -196.7 -376 L -198.6 -373.3 L -199.8 -369.9 L -201.3 -367.8 L -203.3 -366.9 L -205 -365.5 L -206.6 -363.6 L -207.7 -362.9 L -208.2 -363.1 L -208.8 -362.6 L -209.2 -361 L -209.8 -360.1 L -210.6 -360 L -211.2 -359 L -211.6 -357.2 L -212.9 -355.3 L -216 -352.2 L -222.4 -346.6 L -225.7 -344.7 L -228.9 -344.8 M -104.6 -413.7 L -103.8 -408.5 L -103.9 -407.7" />
<path class="river" d="M 1017.2 1024.3 L 1017 1022 L 1015.6 1019.6 L 1014.9 1019.4 L 1014.1 1019.9 L 1013.6 1020.2 L 1013 1019.8 L 1012.9 1018.7 L 1013.2 1017 L 1012.4 1015.2 L 1010.3 1013.3 L 1009.2 1011.3 L 1009.1 1009.2 L 1008.7 1007.9 L 1007.8 1007.2 L 1007.4 1006 L 1007.2 1004.3 L 1007.9 1002.2 L 1009.2 999.9 L 1008.9 996.3 L 1007 991.4 L 1006 987.8 L 1005.8 985.7 L 1006.1 984.1 L 1007.2 982.5" />
<path class="river" d="M 895.4 730.7 L 895.7 732.6 L 895.8 736.7 L 898.8 741 L 904.6 745.1 L 910.5 746.8 L 916.4 746.2 L 923 744.9 L 930.4 742.8 L 936.6 741.9 L 941.8 742.2 L 945.8 743.2 L 948.7 744.7 L 953.2 746.3 L 959.3 747.8 L 968.4 747 L 980.6 743.7 L 991.1 744 L 1000 747.8 L 1005.8 749.2 L 1008.6 748.2 L 1010.7 749.2 L 1012.8 753.6 L 1011.8 755.6 L 1013.1 759.1 L 1016.3 764.8 L 1017.8 768.5 L 1017.8 770.2 L 1018.6 771.3 L 1020.4 772 L 1021.1 773.2 L 1020.7 775 L 1021.5 777.3 L 1023.5 780.2 L 1024.3 782.3 L 1023.8 785.4" />
<path class="river" d="M 1007.2 982.5 L 1009.5 978.7 L 1009.9 975.8 L 1009.1 972.5 L 1009 970 L 1009.6 968.2 L 1008.8 966 L 1006.7 963.2 L 1006.5 961 L 1008.1 959.5 L 1011.7 959.3 L 1017 960.2 L 1020.4 960.3 L 1021.8 959.5 L 1022.6 957.9 L 1022.8 955.7 L 1023.5 954.5 L 1024.7 954.3 L 1026.3 953 L 1028.3 950.6 L 1030.9 949.3 L 1033.9 949.2 L 1036.2 948 L 1037.7 945.8 L 1039.6 944.3 L 1042.1 943.6 L 1043.4 942.5 L 1043.5 941 L 1044.6 939.6 L 1046.7 938.3 L 1047.8 936.8 L 1048 935.2 L 1049.7 933.8 L 1053 932.5 L 1055.6 932 L 1057.3 932.4 L 1058 932 L 1057.6 930.7 L 1058.1 929.6 L 1059.4 928.6 L 1061 926.6 L 1063.6 921.9 L 1066.3 922.7 L 1069.4 921.6 L 1076.1 917.7 L 1076.7 915.2 L 1075.8 911.3 L 1073.6 905.1 L 1073.6 898.9 L 1075.8 892.6 L 1077.9 889.4 L 1079.7 889.1 L 1081.6 887.4 L 1083.6 884.4 L 1086 882.7 L 1088.7 882.5 L 1090.4 881.7 L 1091.1 880.3 L 1091.1 879.2 L 1090.4 878.2 L 1090.9 876.6 L 1092.6 874.2 L 1093.7 871.9 L 1094.1 869.4 L 1095.5 868.1 L 1097.1 867.9 L 1098 867.8 L 1098.9 867.8 L 1103.2 868.3 L 1104.8 867.6 L 1105.3 865.8 L 1106.6 864.1 L 1108.6 862.5 L 1109.7 861 L 1109.7 859.8 L 1110.2 859.1 L 1111.3 858.9 L 1111.5 858.5 L 1111 857.8 L 1112.9 857.3 L 1117.4 857 L 1120.1 855.8 L 1120.9 853.5 L 1124.8 851.2 L 1131.7 848.8 L 1135.3 846.6 L 1135.6 844.5 L 1137.7 842.3 L 1141 840.6 L 1142.9 839.8 L 1143.8 839.1 L 1144.8 838.3 L 1145.6 837.1 L 1148.4 833.6 L 1150.8 831.9 L 1152.6 832 L 1154.5 831.5 L 1156.4 830.2 L 1157.4 828.5 L 1157.4 826.4 L 1157.9 825.3 L 1158.7 823.2 L 1161.4 818.7 L 1163.8 816.9 L 1165.2 816.8 L 1166.4 817 L 1167.2 816.9 L 1167.9 816.6 L 1168.7 816.2 L 1169.6 815.5 L 1171.2 813.7 L 1173 811.1 L 1174 808.1 L 1176 805.5 L 1179.2 803.4 L 1180.7 801.3 L 1180.5 799.1 L 1183.1 795.7 L 1191.5 788.7" />
<path class="river" d="M 821.1 1031.7 L 823.1 1028.4 L 823.1 1025.6 L 821.9 1022.1 L 822.4 1019.6 L 824.9 1018 L 827.6 1017.3 L 831.8 1017.8 L 836.5 1018.1 L 838.5 1018.9 L 839.3 1020.2 L 842.2 1022.5 L 847.1 1025.7 L 850.8 1028.9 L 853.2 1032 L 855.6 1033.8 L 857.9 1034.4 L 859.9 1035.8 L 861.5 1038 L 864.4 1040.1 L 868.6 1042.1 L 871.9 1043.1 L 874.3 1043.2 L 875.7 1042.9 L 876.4 1042.2 L 877.5 1042.3 L 879.9 1042.8 L 887 1044.7 L 892.2 1044.9 L 895.6 1043.3 L 897.4 1042.1 L 898.7 1041.9 L 899.6 1042.3 L 900.8 1042.7 L 901.7 1042.5 L 902.2 1041.9 L 903 1041.8 L 903.8 1042.5 L 905.2 1042.5 L 906.4 1041.6 L 907.9 1041.4 L 909.5 1042 L 912 1041.8 L 917 1040.3 L 918.9 1038.5 L 920.3 1038 L 921.8 1038.1 L 923.1 1037 L 924.3 1034.6 L 925.9 1032.8 L 927.8 1031.5 L 929.1 1030 L 929.5 1028.2 L 931.2 1026.8 L 934.2 1026 L 936.3 1023.9 L 937.4 1020.5 L 938.9 1018.5 L 940.8 1018.1 L 942.5 1016.7 L 944 1014.2 L 945.5 1012.8 L 946.9 1012.4 L 948.8 1012.9 L 951.1 1014.2 L 953.2 1014.3 L 955 1013.3 L 956.5 1011.9 L 957.7 1010.1 L 959.6 1009.1 L 963.7 1008.7 L 964.2 1007.3 L 965.4 1006.8 L 967.5 1006.8 L 968.5 1006.2 L 969 1005.3 L 970 1005.5 L 972.1 1004.8 L 975 1002.8 L 977.4 1001.8 L 979.2 1001.8 L 980.4 1000.9 L 981.1 999.9 L 981.9 999.7 L 983 999.4 L 984.7 997.8 L 986.2 997.8 L 987.3 998 L 988.4 997.5 L 988.8 996.3 L 988.9 995.4 L 988 995 L 988.3 994.5 L 989.6 993.8 L 991.1 993.6 L 992.7 993.9 L 993.3 993.1 L 993.4 991.7 L 994.1 990.8 L 995.5 990.9 L 996.6 990.1 L 997 988.2 L 997.7 987.3 L 998.9 987.4 L 1001.5 986.2 L 1007.2 982.5" />
<path class="river" d="M 701.8 643.5 L 708 644.7 L 710.8 644.7 L 713 643.3 L 721.5 638.6 L 724.2 636.4 L 724.2 635.1 L 725 633.7 L 726.7 632.2 L 727.5 630.9 L 727.2 629.6 L 729 626.2 L 732.9 620.6 L 735.2 614.9 L 735.9 609.2 L 738.8 601.7 L 744 592.6 L 747.1 585.9 L 748.1 581.6 L 748.1 579.4 L 746.8 579.3 L 747 575.3 L 749.5 563.6 L 749.9 554.2 L 750.8 549.3 L 752.3 545.7 L 752.9 542.5 L 752.6 539.6 L 753.1 536.6 L 754.3 533.5 L 754.9 530.4 L 754.8 527.5 L 756.1 524.7 L 758.8 522 L 760.1 519.2 L 760.1 516.2 L 762 513.6 L 765.8 511.3 L 769.2 508.6 L 772.3 505.5 L 773.4 502.3 L 772.8 499.1 L 773.3 493.9 L 774.9 486.6 L 775.4 481.2 L 774.6 477.6 L 774.8 475 L 776.5 472.8 M 776.3 472.8 L 777.1 467.9 L 776.6 462.3 L 775 454.2 L 772.3 449.7 L 768.4 448.7 L 764.6 446.6 L 760.8 443.6 L 758.1 442.3 L 756.7 442.6 L 755.3 441.8 L 753.9 439.9 L 752.5 438.7 L 750.3 438 L 749.1 437.4 L 748.8 435.9 L 749.1 433.4 L 748.5 430.5 L 747.2 427.2 L 747.1 424.5 L 748.1 422.4 L 747.6 420.3 L 745.6 418.4 L 746.2 414.4 L 749.2 408.4 L 750.7 403.2 L 750.7 398.9 L 749.8 395.3 L 747.5 391.5" />
<path class="river" d="M 1027.3 1132.8 L 1025.8 1131.1 L 1024.4 1127.7 L 1022.8 1122 L 1021.1 1118 L 1019.3 1115.7 L 1018.1 1113.5 L 1017.5 1111.4 L 1017.5 1109.8 L 1018.2 1108.6 L 1017.6 1106.2 L 1015.8 1102.5 L 1015.7 1101.4 L 1016.3 1100.8 L 1017.4 1098.6 L 1018.7 1093.9 L 1018.7 1090.7 L 1017.5 1088.7 L 1017 1087.1 L 1017.1 1085.9 L 1016.4 1084 L 1014.7 1081.6 L 1013.5 1080.3 L 1012.6 1080.3 L 1012.3 1079.4 L 1012.5 1077.7 L 1011.7 1075.7 L 1009.7 1073.3 L 1009.8 1068.8 L 1011.9 1062.4 L 1012.8 1059.8 L 1013 1058.2 L 1014.3 1057.3 L 1014.8 1055.6 L 1015.3 1054.8 L 1016.5 1054.1 L 1017.3 1052.4 L 1017.6 1049.8 L 1016.6 1045.8 L 1014.3 1040.5 L 1013.4 1037.4 L 1013.9 1036.6 L 1013.9 1035.9 L 1013.4 1035.2 L 1013.4 1034.7 L 1014.2 1034.1 L 1014.1 1033.2 L 1013.3 1031.2 L 1013.8 1030.2 L 1014.7 1029.7 L 1014.9 1028.9 L 1014.6 1027.4 L 1014.9 1026.3 L 1016.4 1025.5 L 1017.2 1024.3" />
<path class="river" d="M 698.8 969.3 L 696.2 961.8 L 694.7 957.2 L 694.7 954.3 L 695.6 951.4 L 692.8 947.5 L 686.2 942.5 L 682.1 937.9 L 680.3 933.6 L 678.7 931.1 L 677.5 930.4 L 676.2 928.4 L 675 925.1 L 673.5 922.7 L 672 921.1 L 671.2 918.3 L 671.1 914.3 L 668.5 906.5 L 663.2 895 L 660.5 887.5 L 660.2 883.9 L 659 880.2 L 657 876.3 L 654.7 873.6 L 652.3 872.2 L 650.5 870 L 648.4 865.9 L 645.1 864.2 L 643.1 862.2 L 641.1 859.4 L 641.4 855.2 L 644.2 849.7 L 646.2 846.5 L 647.6 845.7 L 648.2 844 L 648.1 841.4 L 648.8 839.7 L 650.2 839 L 650.7 837.4 L 650.1 835 L 650.3 833.3 L 651.1 832.2 L 651.5 830.7 L 651.5 828.9 L 652.4 827.7 L 654.1 827.2 L 655 826.3 L 655.2 824.7 L 656.3 824.2 L 658.2 824.6 L 661.9 823.2 L 667.2 820.2 L 671.1 818.7 L 673.4 818.7 L 675.2 819.2 L 676.4 820 L 677 821.3 L 677 822.9 L 677.6 823.8 L 678.8 823.9 L 679.1 824.5 L 678.8 824.7 L 678.9 825.6 L 679.8 826.9 L 680.5 826.9 L 681 825.8 L 683.6 826.3 L 688.2 828.3 L 692.8 829.4 L 697.6 829.4 L 700.2 829.9 L 700.5 830.8 L 701.7 831.6 L 703.6 832.2 L 706 832.5 L 709.1 832.3 L 711 832.7 L 711.9 834.3 L 720.1 835.4 L 723.3 835.5 L 724.4 835 L 725.2 835.2 L 725.9 836 L 727.8 834.5 L 731 830.6 L 736.1 828.2 L 743.1 827.4 L 747.4 825.8 L 748.8 823.3 L 750.8 821.4 L 753.5 820 L 755.6 820.1 L 757.2 821.9 L 759.3 823.5 L 762.1 824.8 L 763.9 824.3 L 764.7 822.1 L 765.8 820.6 L 767.3 819.9 L 769.2 819.8 L 771.7 820.3 L 773.8 821.4 L 775.4 823.1 L 778.3 822.7 L 784.7 819" />
<path class="river" d="M 774.2 568.5 L 773.2 570.2 L 773 572.1 L 773.2 574.6 L 773.8 576.9 L 775.3 579.8 L 777.8 581.6 L 778.4 583 L 778 584.6 L 782.5 586.3 L 791.8 588 L 797.2 588.1 L 798.8 586.5 L 800.2 584.2 L 801.3 581 L 802.7 579.2 L 805.1 578.3 L 812.5 577.8 L 815.4 577.1 L 816.3 576.1 L 818 575.4 L 820.3 574.8 L 822.5 574.9 L 824.4 575.6 L 826.7 574.7 L 829.5 572.3 L 835 569.4 L 843.1 566.1 L 848.4 563.7 L 850.7 562.1 L 852.4 560.1 L 853.6 557.5 L 856.1 554.8 L 859.7 552.2 L 861.7 550.2 L 862.2 548.9 L 866.4 546.7 L 874.2 543.3 L 879.8 539 L 883.2 533.6 L 887 530.8 L 891.3 530.4 L 894.2 529.8 L 896.3 528.6 L 898.3 527.9 L 899.6 528.2 L 900.8 529.2 L 902.8 528.8 L 905.7 526.9 L 909.8 526.5 L 915.4 527.6 L 922.6 527.6 L 931.7 526.5 L 937.3 525.3 L 939.5 524 L 943.1 524.1 L 951.5 526.4" />
<path class="river" d="M 935.2 1768.1 L 942.3 1770.3 L 946.7 1770.9 L 950.6 1770.7 L 954.5 1771.2 L 958.1 1772.2 L 963.5 1772.4 L 970.4 1771.7 L 976 1771.6 L 980.3 1772 L 984.4 1773.1 L 988.3 1774.7 L 992.5 1775.6 L 997 1776 L 1000.8 1777.9 L 1003.7 1781.4 L 1006.1 1785.1 L 1008 1789.2 L 1011.6 1791.6 L 1017.1 1792.5 L 1020.9 1793.9 L 1023 1795.6 L 1025.5 1797 L 1028.5 1798 L 1031.7 1798.5 L 1035.4 1798.4 L 1040.8 1800.9 L 1048.2 1806.1 L 1052.8 1808.8 L 1054.6 1809.2 L 1057.3 1811 L 1062.4 1815.8 L 1068.3 1816.7 L 1072.3 1819 L 1076.9 1822.4 L 1078.6 1825.1 M 871.4 640.3 L 881.5 638.9 L 889.3 637.5 L 893.7 636.3 L 897.1 634.7 L 901.2 634.4 L 905.9 635.6 L 910 636.1 L 913.3 636 L 916.3 634.6 L 919 632 L 921.9 631.5 L 925 633.1 L 928 631.7 L 930.8 627.2 L 932.5 625.2 L 933.1 625.7 L 933.7 625.2 L 934.6 623.6 L 936.8 621.8 L 939.5 620.1 L 942 619 L 944.8 619.9 L 946.1 620.1 L 946.7 620.7 L 947.5 622.9 L 948.4 623.3 L 949.7 624.2 L 952.3 626.5 L 954.5 628.9 L 956.1 630.1 L 957.3 631.2 L 957.7 632.7 L 957.2 634.3 L 958.5 638 L 959.5 639.1 L 960 640.5 L 959.5 641.9 L 960.6 643.5 L 963.4 650.7 L 963.6 652.9 L 964.2 653.9 L 965 656.8 L 966.3 659.5 L 966 661.4 L 966.5 663.3 L 966.9 668.8 L 966.5 671.1 L 965.3 672 L 962.9 672.5 L 959.3 672.4 L 956.8 675.7 L 954.3 685.8 L 955.5 692.6 L 957.6 696.6 L 961 700.2 L 963.5 701.8 L 965.2 701.4 L 969.4 702.8 L 975.9 706.1 L 980.3 707.2 L 982.8 706.3 L 985.9 705.8 L 989.7 705.7 L 992.2 705.2 L 993.4 704.2 L 995 704.1 L 996.9 704.9 L 999.4 705.1 L 1002.5 704.9 L 1005.8 705.5 L 1010.9 707.9 L 1017.9 709.4 L 1023.6 709.2 L 1033.7 706.9 L 1041.4 705.5 L 1046.3 705.2 L 1051.2 705.6 L 1055.7 707.4 L 1059.8 710.4 L 1064.5 712.9 L 1072.3 716.2 L 1076.4 720.9 L 1080.5 723.9 L 1088.7 728.3 L 1102.4 734.7 L 1103.8 735 L 1106.1 735 L 1108.3 735.4 L 1111 736.7 L 1113.2 738.9 L 1115.1 742 L 1116 744.6 L 1116.1 746.7 L 1118.3 749.8 L 1122.6 753.9 L 1124.1 755.9 L 1125.5 757.8 L 1126.9 761.7 L 1130.7 767 L 1139.8 777.2 L 1143.1 780.1 L 1145.6 781.1 L 1148.3 781.2 L 1151.2 781.9 L 1154.1 783.3 L 1156.2 783.7 L 1158.3 782.8" />
<path class="river" d="M 1061.1 631.6 L 1055.4 633.3 L 1052.9 634.8 L 1051.6 636.6 L 1049.7 637.6 L 1045.8 637.7 L 1037.9 634.6 L 1034.3 633.9 L 1032.5 634.4 L 1026.9 632.9 L 1017.5 629.3 L 1012.7 625.7 L 1012.5 622.1 L 1011.3 619.4 L 1009.1 617.5 L 1007.3 615.3 L 1005.9 612.8 L 1004.6 611.2 L 1003.3 610.5 L 1001.2 610.2 L 996.8 610.5 L 992.2 609.9 L 990.3 610.8 L 989.6 613 L 987 613.7 L 982.6 613.1 L 979.2 611.9 L 976.8 610 L 975.3 607.9 L 974.6 605.7 L 972.8 602.8 L 968.6 597.7 L 964.6 595 L 963.1 592.6 L 962.7 589.8 L 959.9 588.3 L 954.8 588.4 L 949.9 587.4 L 943 584.5 L 941.6 581.5 L 941.1 579.1 L 941.2 576.4 L 940.7 574.4 L 939.6 573 L 939.6 568.6 L 940.7 561.3 L 941 555.8 L 940.4 552 L 941.4 549.1 L 944 547.1 L 945.4 544.1 L 945.7 539.9 L 947.3 536.5 L 950.1 533.9 L 951 531.2 L 950.1 528.6 L 951.5 526.4 L 952.1 525.3 L 956.9 521.3 L 959.8 516.6 L 961.4 508.5 L 961.1 503.5 L 964.2 500.3 L 970.5 497.2 L 975.1 493.6 L 977.9 489.6 L 982.4 487.2 L 988.6 486.4 L 993 484.8 L 996.9 481.3 L 1000.5 479.9 L 1003.8 479.7 L 1008.2 480.2 L 1012 480.9 L 1015.2 481.8 L 1018 483.3 L 1020 484.9 L 1020.7 485.7 L 1021.2 486.1 L 1021.6 486.1 L 1022.1 486.1 L 1022.5 486 L 1023.9 485.6 L 1025.2 485 L 1029.3 483.6 L 1031.5 481.8 L 1030.8 479.9 L 1030.6 478.5 L 1031 477.6 L 1032.3 477 L 1034.7 476.8 L 1036.5 476.2 L 1037.7 475.2 L 1039.5 475.4 L 1041.3 476.8 L 1042.4 477.5 L 1043.1 477.7 L 1044.2 477.8 L 1045.7 477.7 L 1047.6 476.6 L 1049.7 474.4 L 1053 473.2 L 1057.7 473 L 1062.1 471.7 L 1066.2 469.5 L 1070.3 468.6 L 1074.3 469.2 L 1078.8 467.8 L 1083.6 464.5 L 1088.7 461.8 L 1094.1 459.6 L 1096.3 459.3 M 1096.3 459.3 L 1098 459.1 L 1100.5 460.5 L 1103.8 461 L 1110.1 460.4 L 1111 460.5 L 1117.2 455.7 L 1125.3 451.1 M 1098.8 448.5 L 1098.4 450.2 L 1098.7 451.4 L 1099.8 452.3 L 1099.5 454.2 L 1096.8 458.5 L 1096.3 459.3 M 1107.8 432.1 L 1107.6 432.9 L 1104.7 441.5 L 1102.6 445.3 L 1099.3 448 L 1098.8 448.5 M 1092.3 427.8 L 1092 428.9 L 1091.6 429.7 L 1089.1 434 L 1089.9 437.9 L 1092.9 442.8 L 1095.6 445.8 L 1097.8 447 L 1098.8 448.5" />
<path class="river" d="M 614.3 446.6 L 617.7 450.4 L 618.1 451.6 M 607.9 442.1 L 607.8 441.1 L 608.1 439.5" />
<path class="river" d="M 814 994.9 L 816.1 996.6 L 819.6 996.5 L 828.1 994.4 L 831.1 991.5 L 834.2 989.9 L 838.3 988.8 L 842.7 986.7 L 847.3 983.5 L 849.4 981.5 L 849.1 980.6 L 849.7 979.8 L 851.1 978.9 L 852.1 976.7 L 852.8 972.9 L 855.1 969.3 L 859 965.9 L 861.2 963.4 L 861.5 961.7 L 862.5 960.6 L 864.2 960 L 865.5 958.4 L 866.3 955.6 L 868.1 953.3 L 870.9 951.5 L 872.4 950 L 872.6 948.8 L 874.5 947.6 L 877.9 946.5 L 880.8 946.4 L 883.2 947.1 L 884.8 947 L 885.7 946 L 887.1 945.5 L 890 945.5 L 891.2 945.9 L 891.8 945.5 L 892.5 944.6 L 893.2 944.2 L 894.6 944.3 L 896.6 943.2 L 899.2 940.8 L 903 938.7 L 907.7 937 L 910.2 936.8 L 911.2 937.3 L 911.8 937.9 L 913 938.2 L 914.4 937.9 L 916.1 938.6 L 918.2 941 L 919.3 942.9 L 919.4 944.4 L 920.1 945 L 921.4 944.7 L 922.2 945 L 922.6 945.9 L 924.4 946 L 927.6 945.5 L 929.6 945.5 L 930.6 946.1 L 932.7 945.4 L 937.7 942.8 L 948.9 938.1 L 952.7 935.5 L 953 933.3 L 952.7 932.5 L 952.1 932.2 L 952 931.5 L 952.3 930.1 L 952.1 929.4 L 951.8 928.9 L 951.8 928.4 L 953.3 927.2 L 953.6 926.2 L 953.1 925.4 L 953.3 924.9 L 953.7 923.7 L 955.8 920.9 L 956.7 918.7 L 956.3 917.1 L 957.6 915.1 L 960.6 912.4 L 961.8 911.2 L 961.9 910.6 L 962.4 910.2 L 963.1 910.1 L 963.7 909.7 L 964 908.5 L 965.2 907.7 L 967.4 907.2 L 968.9 907.3 L 969.7 908.1 L 970.8 907.8 L 972.4 906.3 L 974 905.9 L 975.6 906.5 L 976.5 906.2 L 976.9 905.1 L 978.1 904.1 L 980.3 903.3 L 981.4 903.6 L 981.5 904.7 L 982.4 905.2 L 984 904.8 L 985.2 905.4 L 986 906.8 L 987.2 907.3 L 988.7 907.3 L 989.4 908.1 L 990.1 908.4 L 991.8 907.8 L 993 908 L 993.7 908.6 L 994.5 908.5 L 995.1 908 L 996.4 908.1 L 997.7 908.5 L 999.6 908.3 L 1000.2 907.5 L 1001 907 L 1002.2 907 L 1003.2 906.6 L 1003.7 905.7 L 1004.7 905.5 L 1005.7 905.7 L 1006.3 905.3 L 1006.2 904.7 L 1006.8 904.4 L 1007.5 904.4 L 1007.8 904 L 1007.6 903.4 L 1008 902.8 L 1009.8 901.6 L 1011.8 900.6 L 1012.8 900.5 L 1013.5 901 L 1013.9 900.2 L 1014 898.3 L 1014.7 897.8 L 1015.4 897.7 L 1017.1 898.2 L 1018.4 897.8 L 1018.7 896.6 L 1019.2 896.3 L 1019.9 896.1 L 1021.6 896.8 L 1023.8 896.2 L 1026.6 894.2 L 1027.8 892.9 L 1027.5 892.3 L 1027.8 891.9 L 1028.6 891.7 L 1028.7 891.3 L 1028.8 891 L 1029.5 890.6 L 1029.5 889.8 L 1028.1 887.3 L 1028.1 885.7 L 1029.6 885.1 L 1030 884.4 L 1029.4 883.8 L 1029.2 882.9 L 1029.5 881.7 L 1030.4 881.1 L 1031.9 881 L 1032.8 880.4 L 1033.1 879.3 L 1034.2 878.3 L 1036.1 877.4 L 1037.4 874.8 L 1038.4 868.5 L 1037.2 862.5 L 1035.7 860 L 1033.6 859 L 1033.1 858.1 L 1034.1 857.2 L 1034.6 855.9 L 1034.8 854.3 L 1035.4 853.4 L 1036.6 853.2 L 1037 852.6 L 1036.7 851.4 L 1037.5 850.7 L 1039.6 850.6 L 1040.6 850.9 L 1040.6 851.6 L 1041.1 852.1 L 1042.2 852.2 L 1043 851.8 L 1043.5 850.9 L 1045 850.5 L 1047.6 850.5 L 1049.5 851.4 L 1050.8 853.3 L 1052.6 854 L 1055 853.6 L 1055.7 854.1 L 1055.6 855.1 L 1055.9 856 L 1056.8 856.6 L 1058.2 856.3 L 1059.9 855 L 1061.3 854.7 L 1062.5 855.2 L 1064.7 854.4 L 1067.8 852.3 L 1068.7 852.5 L 1069.1 853.1 L 1069.7 854 L 1071.1 854.3 L 1071.6 853.7 L 1071.3 851.4 L 1071.8 850 L 1073 849.7 L 1073.2 848.9 L 1073.6 847.3 L 1074.2 846.9 L 1074.8 846.3 L 1075.8 846.3 L 1077 846.1 L 1077.7 845.1 L 1077.8 841.9 L 1077.5 840 L 1076.9 839.4 L 1077.3 838.5 L 1078.9 837.2 L 1079.5 836 L 1079.1 834.8 L 1080 833.4 L 1081.3 832.7 L 1082.5 833 L 1083.6 832.6 L 1084 831.9 L 1084.3 830.8 L 1085.4 830.4 L 1086.5 830.5 L 1087.5 829.8 L 1087.8 829 L 1087.4 828.1 L 1088.1 827.3 L 1089.7 826.4 L 1091.9 826.2 L 1094.6 826.5 L 1097.4 825.1 L 1098.4 824.2 L 1099.6 823 L 1100.1 821.6 L 1099.4 820.2 L 1099.9 819 L 1100.7 818.6 L 1102.7 818.2 L 1104 817.2 L 1104.5 815.7 L 1106.3 814.5 L 1109.3 813.6 L 1112.5 810.8 L 1115.9 806.1 L 1116.9 802.2 L 1115.2 797.9" />
<path class="river" d="M 896.6 1556.7 L 897.2 1556.5 L 903 1556.3 L 906 1557 L 907.3 1558.6 L 908 1560.3 L 908.1 1562.2 L 909.7 1563.2 L 912.8 1563.5 L 916.6 1563.1 L 920.8 1562 L 923.2 1561.9 L 924.1 1563 L 925.5 1564.7 L 925.8 1566.9 L 925.4 1570.2 L 926 1573.2 L 927.5 1575.9 L 927.9 1577.6 L 928.2 1578.4 L 929.4 1578.7 L 933.2 1578.5 L 936.3 1579.5 L 938.9 1581.8 L 942.7 1583.3 L 947.5 1583.8 L 950.7 1584.9 L 953.2 1587.1 M 474.7 391.3 L 482.4 393.3 L 486.3 395.1 L 488.8 397.2 L 490.2 398.9 L 490.4 400 L 491.2 400.5 L 493.2 400.7 L 498 401.8 L 501 401.6 L 503.7 400.4 L 505.2 399 L 505.7 396.8 M 438 361.3 L 444.4 364.3" />
<path class="river" d="M 834.8 1118.4 L 835.1 1115.1 L 835.6 1113.9 L 836.6 1113.7 L 836.7 1112.3 L 836.2 1109.9 L 836.8 1107.4 L 839.4 1103.4 L 840.6 1100.7 L 840.6 1097.3 L 839.7 1092.2 L 838.9 1088.9 L 838.1 1087.4 L 836.7 1086.1 L 834.7 1085.2 L 832.9 1082.8 L 831.2 1078.7 L 828 1076.4 L 823.4 1076 L 819.3 1074.5 L 815.7 1071.9 L 810.6 1069.2 L 804.1 1066.4 L 799.5 1065.5 L 796.8 1066.3 L 794.7 1066.5 L 792.1 1065.8 L 785 1059 L 782.7 1055.8 L 782.8 1054.1 L 782.1 1051.4 L 780.6 1047.6 L 778.5 1044.4 L 775.9 1041.9 L 773 1037.5 L 769.8 1031.3 L 769.2 1026.9 L 771 1024.2 L 769.8 1018.9 L 765.7 1011.1 L 763.6 1006.3 L 763.6 1004.4 L 765.1 1003.4 L 767.9 1003.5 L 771.2 1004.4 L 774.8 1006.1 L 777.2 1006.9 L 778.4 1006.7 L 778.4 1004.6 L 777.2 1000.5 L 776.9 996.8 L 777.5 993.4 L 776.1 990.5 L 772.7 988.3 L 770.6 985.7 L 769.9 982.8 L 769.8 980.3 L 770.3 978.1 L 770.2 977.4 L 769.6 976.9 L 769.3 976.5 L 769.6 975.2 L 770.2 974.4 L 770.6 973.7 L 770.4 973.3 L 769.9 973.1 L 769.1 972.1 L 768.7 970.6 L 769.1 969.9 L 770.3 969.9 L 771.1 969.2 L 771.7 967.8 L 770.6 967.1 L 768 967 L 766.6 965.3 L 766.3 962 L 765.7 959.6 L 764.9 958 L 763.9 957.6 L 763.3 957.7 L 763 957.3 L 762.7 956.7 L 762 955.6 L 760.3 954.3 L 759.6 952.3 L 759.9 949.5 L 759.4 948.1 L 758.4 947.4 L 758.1 946.7 L 758.2 945.9 L 758.1 945.4 L 757.6 945 L 755.9 940.1 L 756.7 936.9 L 759.6 933.8 L 761.6 932.4 L 762.8 932.8 L 763.4 931.9 L 763.3 929.9 L 762.5 929.3 L 761 930.1 L 759.7 930.1 L 758.6 929.3 L 757.7 929 L 757.1 929 L 756.8 928.3 L 756.7 925.6 L 756.1 923.9 L 754.7 923.3 L 754.2 922.4 L 754.6 921.4 L 754.4 921 L 753.4 921.1 L 753.1 920.4 L 753.5 918.9 L 753.3 917.6 L 752.4 916.5 L 751.3 916.1 L 750.8 916.1 L 750.3 915.7 L 750.7 915.2 L 750.4 914.5 L 748.3 913.5 L 747.1 913.6 L 746.8 914.6 L 746 914.6 L 744.6 913.4 L 744.2 912.4 L 744.7 911.4 L 744.2 909.9 L 742.9 907.8 L 742.9 907.2 L 743.5 907 L 743.8 906.4 L 742.8 904.6 L 742.8 902.9 L 743.7 901.3 L 742.7 899.3 L 739.8 896.9 L 737.8 895.9 L 736.7 896.1 L 736.2 895.8 L 736.4 894.8 L 735.8 894.3 L 735.5 893.6 L 735.9 892.8 L 739 890.6 L 739.5 889.6 L 739.3 888.9 L 738.6 888.2 L 739.1 886.6 L 740.7 884.5 L 740.9 882.3 L 739.6 880.1 L 739.7 878.5 L 740.3 877.9 L 739.8 876.5 L 738.7 875.4 L 738.3 874.3 L 739 873.3 L 739 871.2 L 738.1 868.3 L 738.3 866.1 L 739.7 864.7 L 740.5 864.7 L 741 864.9 L 741.5 864.5 L 741.8 863.9 L 742.7 863.5 L 744.2 863.8 L 746.3 863.2 L 748.7 861.2 L 750 861.4 L 750.8 861.4 L 751.5 861.1 L 751.6 860.2 L 752.9 858 L 755.4 855.1 L 757.4 854.3 L 758.8 855.4 L 759.7 855.6 L 760.2 854.7 L 760.8 854.6 L 761.5 854.9 L 762.2 854.6 L 762.8 852.7 L 764 851.5 L 765.4 850.9 L 765.8 850.2 L 765.6 849.6 L 765.7 848.9 L 766.2 848.4 L 766.1 847.6 L 765.9 847.2 L 765.9 846.8 L 766.3 846.2 L 766.4 845.6 L 766.2 845.1 L 766.6 844.6 L 767.8 843.8 L 768.2 842.7 L 768 840.2 L 768.3 837.7 L 769.3 835.2 L 770 834.9 L 770.7 834.9 L 771.7 836 L 773.4 835.9 L 775.7 834.1 L 776.9 832.6 L 777.2 831.4 L 777.8 831 L 778.6 831.2 L 778.8 830.5 L 778.3 829.5 L 778.9 828 L 780.7 826.3 L 781.9 826.1 L 782.7 825.9 L 782.9 825.4 L 782.8 824.5 L 783.1 823.5 L 784.7 822 L 784.7 821.1 L 784.3 820.8 L 784.1 820.2 L 784.7 819" />
<g class="city"><circle cx="686.800228137927" cy="1027.9620823770324" r="5" /><text x="698.800228137927" y="1031.9620823770324">Lima</text></g>
<g class="city"><circle cx="768.3449143108446" cy="570.4648378983825" r="5" /><text x="780.3449143108446" y="574.4648378983825">Bogota</text></g>
<g class="city"><circle cx="727.3442408916619" cy="524.3265533306762" r="5" /><text x="739.3442408916619" y="528.3265533306762">Medellín</text></g>
<g class="city"><circle cx="965.3215920179211" cy="408.1687533499168" r="5" /><text x="977.3215920179211" y="412.1687533499168">Caracas</text></g>
<g class="city"><circle cx="607.9145307367754" cy="757.8253645396699" r="5" /><text x="619.9145307367754" y="761.8253645396699">Guayaquil</text></g>
<g class="city"><circle cx="987.008548300647" cy="190.00625317812617" r="5" /><text x="999.008548300647" y="194.00625317812617">San Juan</text></g>
<g class="city"><circle cx="701.9204403336857" cy="603.3514423539436" r="5" /><text x="713.9204403336857" y="607.3514423539436">Cali</text></g>
<g class="city"><circle cx="882.566373019254" cy="189.16181300935907" r="5" /><text x="894.566373019254" y="193.16181300935907">Santo Domingo</text></g>
<text class="map-title" x="80" y="105">Colombia Physical Study Map</text>
<text class="map-subtitle" x="80" y="145">Landmark: Salt Cathedral of Zipaquirá | Study terrain and water systems</text>
  <text class="footer" x="80" y="1036">Made with Natural Earth. Free vector and raster map data @ naturalearthdata.com.</text>
</svg>
