<?xml version="1.0" encoding="UTF-8"?>
<svg xmlns="http://www.w3.org/2000/svg" width="1600" height="1100" viewBox="0 0 1600 1100" role="img" aria-labelledby="title desc">
  <title id="title">Denmark Political Study Map</title>
  <desc id="desc">Made with Natural Earth. Free vector and raster map data @ naturalearthdata.com.</desc>
  <defs>
    <linearGradient id="terrain" x1="0" x2="1" y1="0" y2="1">
      <stop offset="0%" stop-color="#6c8c53" />
      <stop offset="42%" stop-color="#d5c487" />
      <stop offset="72%" stop-color="#b88b5f" />
      <stop offset="100%" stop-color="#f1f5ee" />
    </linearGradient>
    <filter id="softShadow" x="-10%" y="-10%" width="120%" height="120%">
      <feDropShadow dx="0" dy="10" stdDeviation="12" flood-color="#0f172a" flood-opacity="0.16" />
    </filter>
    <style>
      .neighbor { fill: #ffffff; stroke: #94a3b8; stroke-width: 1.2; opacity: 0.72; }
      .country { fill: #f7f1df; stroke: #1f2937; stroke-width: 4; filter: url(#softShadow); }
      .admin1 { fill: none; stroke: #64748b; stroke-width: 1.1; stroke-dasharray: 6 7; opacity: 0.75; }
      .river { fill: none; stroke: #1d9bd1; stroke-width: 3; stroke-linecap: round; opacity: 0.88; }
      .lake { fill: #8ed1ea; stroke: #0ea5e9; stroke-width: 1.5; opacity: 0.8; }
      .city circle { fill: #ef4444; stroke: #ffffff; stroke-width: 2; }
      .city text, .terrain-label { fill: #172033; font: 700 24px system-ui, sans-serif; paint-order: stroke; stroke: #ffffff; stroke-width: 5; stroke-linejoin: round; }
      .map-title { fill: #0f172a; font: 800 46px system-ui, sans-serif; }
      .map-subtitle { fill: #475569; font: 600 24px system-ui, sans-serif; }
      .footer { fill: #64748b; font: 500 18px system-ui, sans-serif; }
    </style>
  </defs>
  <rect width="100%" height="100%" fill="#eaf3f8" />
  <rect x="40" y="40" width="1520" height="1020" rx="32" fill="#ffffff" opacity="0.54" />
  <path class="neighbor" d="M -130.8 850.5 L -132.4 850.4 L -154.9 839 L -163.2 834 L -184.2 829.2 L -190.7 818.9 L -189 811.8 L -203.9 806.8 L -206 797.5 L -220 789 L -220.3 783 L -220.3 783 L -213.8 777.4 L -214.1 770.1 L -233.9 762.7 L -245.8 749.4 L -253 741.1 L -263.7 735.9 L -271.5 731.1 L -277.7 725.1 L -289.3 728.9 L -300.6 735.3 L -311 727.7 L -319.1 722.6 L -330.4 719.4 L -341.9 719.1 L -341.8 652.9 L -341.7 609.7 L -341.7 609.7 L -320 612.5 L -301.7 618.1 L -289.6 619.2 L -279.4 614.4 L -265.3 610.7 L -248.1 612.1 L -230.7 607 L -211.6 604.1 L -203.7 609 L -195 606.2 L -192.4 600.8 L -184.4 602 L -164.7 612.4 L -149.2 604.6 L -147.7 613.4 L -133.4 611.5 L -129 608.1 L -114.9 608.7 L -97.1 613.6 L -69.9 617.9 L -53.9 619.9 L -42.6 619.1 L -26.9 625 L -43.2 630.8 L -22.2 633.3 L 9.1 631.9 L 19 629.9 L 31.4 636.8 L 44.1 631 L 32.2 626 L 39.7 622 L 53.9 621.5 L 63.2 620.3 L 72.5 623.1 L 84.2 629.4 L 97.2 628.5 L 117.7 633.7 L 135.8 631.9 L 152.7 632.2 L 151.4 624.9 L 161.7 622.9 L 179.7 626.9 L 179.7 637.9 L 187.1 628.6 L 196.4 628.9 L 201.7 617.2 L 189.2 610 L 175.7 605.4 L 176.6 592.5 L 190.3 584.1 L 205.7 585.9 L 217.4 591.1 L 233.2 604.2 L 222.9 609.9 L 244.5 612.2 L 244.5 624.1 L 260 615 L 273.9 622.5 L 270.4 631.1 L 281.7 639 L 293.8 630.6 L 302.3 620.5 L 302.9 607.8 L 319.4 608.7 L 336.6 610.4 L 352.2 616.1 L 352.9 621.9 L 344.3 628.1 L 352.5 634.3 L 351 640 L 328.2 648.1 L 312.1 649.9 L 300 646.4 L 296.6 652.2 L 285.4 662 L 282 667.1 L 268.5 675 L 251.9 675.8 L 242.7 680.7 L 241.9 688.2 L 228.4 689.7 L 214.2 699.1 L 201.6 712.2 L 197.1 721.3 L 196.4 734.8 L 213.5 736.8 L 218.7 747.7 L 224.2 756.5 L 240.4 754.2 L 262 759.2 L 273.7 763.6 L 282 769.1 L 296.5 772.3 L 308.8 777.2 L 328 777.9 L 340.7 779 L 338.8 789.1 L 342.4 800.8 L 350.8 813.8 L 368.1 824.8 L 377.1 821 L 383.3 809.1 L 377.3 790.7 L 369.1 784.6 L 387.7 779.1 L 400.9 771 L 407.3 762.9 L 406.3 755.1 L 398.4 745.3 L 384.3 736.5 L 398 724.3 L 393 713.8 L 389.1 695.7 L 397.2 693 L 417.1 696.1 L 429.1 697.3 L 438.7 694.2 L 449.5 698.2 L 463.8 704.9 L 467.4 709.4 L 488.1 710.3 L 487.7 720 L 491.6 734.7 L 502.2 736.6 L 510.6 743.4 L 527.5 736.9 L 538.6 724.1 L 546.3 718.7 L 555.3 729.1 L 570.5 743.9 L 583.3 757.9 L 578.6 765.2 L 594.1 771.7 L 604.5 778.4 L 623.1 781.4 L 630.5 785.1 L 635.1 794.9 L 644.2 796.5 L 648.9 800.8 L 649.7 813.9 L 641.3 818.3 L 632.9 822.3 L 613.8 826.5 L 599.2 836 L 579.5 837.9 L 554.7 835.5 L 537.2 835.4 L 525.2 836.2 L 515.4 844.5 L 500.6 849.7 L 483.9 865.1 L 470.5 875.8 L 480.4 873.9 L 499 858.6 L 523.4 848.9 L 540.8 847.8 L 551.1 853.5 L 540.1 861.3 L 543.8 873.8 L 547.6 882.6 L 562.7 888.4 L 581.9 886.7 L 593.5 873.6 L 594.3 882.1 L 601.8 886.3 L 587.5 893.9 L 561.7 900.8 L 550.2 905.5 L 537.2 913.9 L 528.4 913 L 527.9 903.2 L 548.1 893.6 L 529.5 893.9 L 516.6 895.4 L 509 888.8 L 509 872.9 L 503.8 869.6 L 496 871.6 L 492.2 868.5 L 483.3 877.3 L 479.8 886.3 L 475.6 891.6 L 470.7 893.4 L 467 894 L 465.8 896.9 L 444.4 896.9 L 426.8 897 L 421.5 899.1 L 409.2 907.5 L 407.8 908.4 L 404.1 912.9 L 393.4 912.9 L 382 912.9 L 376.7 914.8 L 378.6 917.1 L 379.6 920.6 L 379.4 921.8 L 364.2 927.6 L 352.2 929.4 L 338.7 935.6 L 335.8 935.6 L 331.9 933.8 L 330.6 932.1 L 330.8 930.9 L 333.4 926.8 L 338.9 920.4 L 342.2 913.6 L 339.9 903.5 L 337.4 892.9 L 325.3 887.5 L 326.8 885.4 L 325.1 884 L 321.9 884 L 319.5 882.1 L 319 879.4 L 316.7 880.6 L 313.6 880.2 L 314.3 879.1 L 311.5 877.9 L 310.4 874.9 L 301.4 871.2 L 292 867.3 L 280.6 862.8 L 269.7 858.6 L 259.3 861.9 L 255.5 862 L 241.2 859 L 231.8 860.5 L 220.5 856.9 L 208.7 855 L 200.6 854.3 L 196.9 852.3 L 194.9 845.9 L 190.9 846 L 190.9 850.5 L 166.9 850.5 L 127.1 850.5 L 87.6 850.5 L 52.7 850.5 L 17.8 850.5 L -16.4 850.5 L -51.9 850.5 L -63.3 850.5 L -97.8 850.5 L -130.8 850.5 Z M 320.7 694.1 L 329.3 688.8 L 345.3 688.9 L 345 691.1 L 331.4 697.5 L 323.2 697.3 L 320.7 694.1 Z M 369.7 573.8 L 356.9 567.7 L 357.4 563.5 L 363 562.7 L 389.6 564 L 409.6 570.3 L 410.7 573.5 L 398.3 573.2 L 385.8 573 L 373.1 574.5 L 369.7 573.8 Z M 363.4 698.4 L 367.9 694.9 L 372.7 695.1 L 375.6 697.5 L 371.1 703.6 L 365.9 702.7 L 362.9 699.2 L 363.4 698.4 Z M 208.9 548.5 L 202.6 553 L 185.7 552.2 L 171.6 549.1 L 177.8 543.9 L 194.5 540.8 L 204.6 544.8 L 208.9 548.5 Z M 206.2 519 L 200.9 519.3 L 179.2 518.6 L 176.1 515.3 L 199.5 515.5 L 207.6 517.7 L 206.2 519 Z M 172.4 504.5 L 186.3 508.6 L 183.1 512.8 L 165.9 515.2 L 156.4 512.5 L 151.5 508.1 L 150.5 503.3 L 165.6 503.7 L 172.4 504.5 Z M 272.4 555.3 L 253.6 553.9 L 222.7 550.2 L 218.7 543.8 L 217.3 538 L 205.6 533 L 181.6 531.5 L 168.1 527.9 L 172.5 523.2 L 196.4 523.9 L 209.3 527.6 L 232.2 527.6 L 242.2 531.4 L 239.6 535.8 L 252.9 538.4 L 260.3 541.2 L 276 541.7 L 293 542.7 L 311.4 540.2 L 335.1 539.2 L 354 540 L 366.4 544.4 L 369 549.2 L 361.8 552.3 L 344.4 554.8 L 329.6 553.4 L 296.2 555.1 L 272.4 555.3 Z M 3.7 511.6 L 20.1 513.5 L 16.2 516.9 L -5.4 520.3 L -22.7 516.5 L -13.2 512.8 L 3.7 511.6 Z M 7.2 504.1 L 22.3 506.4 L 8.2 508.7 L -11.1 508.7 L -10.9 507 L 1 503.5 L 7.2 504.1 Z M 650.7 823.5 L 644.5 830.9 L 636.8 841 L 644.4 837.1 L 652.2 839.6 L 648.1 843.6 L 658.4 846.8 L 663.8 844 L 675.4 847.6 L 671.8 856.1 L 679.9 854.1 L 681.4 860.3 L 685 867.5 L 680.1 877.7 L 674.8 878.2 L 667.2 876 L 669.7 866.4 L 666.5 865 L 653 875.1 L 646.1 874.6 L 654.3 869.2 L 643.1 866.4 L 630.6 867.1 L 608.1 866.7 L 606.3 863.3 L 613.5 859.2 L 608.5 856 L 618.2 849 L 630.2 830.5 L 637.4 823.9 L 647.5 819.9 L 652.9 820.4 L 650.7 823.5 Z M 322 663.2 L 334.7 667.2 L 348 670.8 L 349 676.4 L 357.6 675.5 L 365.9 679.3 L 355.6 683 L 337.5 680.2 L 331 674.9 L 319.4 681.1 L 302.9 687.1 L 298.9 680.3 L 283.2 681.5 L 293.3 675.7 L 294.7 666.6 L 298.7 655.9 L 307.1 656.9 L 309.3 662 L 315.2 660.2 L 322 663.2 Z M 381.4 579.1 L 392.4 574.4 L 418.2 580.3 L 434.2 585.9 L 435.7 590.9 L 457.3 588.3 L 469.4 595.7 L 497.4 600.3 L 507.6 605 L 518.5 615.9 L 497.2 621.3 L 524.6 628.9 L 543 631.4 L 559.7 642.1 L 578 642.9 L 574.4 651 L 554 664.5 L 539.7 659.6 L 521.4 648.4 L 506.4 649.8 L 504.9 656.5 L 517.1 663.2 L 532.9 668.6 L 537.7 671.7 L 545.3 683.2 L 541.3 691.5 L 526.6 688.4 L 497.5 679.1 L 513.9 689.1 L 526 696.1 L 527.9 700.2 L 496.4 695.5 L 471.4 688.8 L 457.3 683.1 L 461.4 679.9 L 444.1 673.9 L 427.1 668.2 L 427.3 671.6 L 393.7 673.5 L 383.9 669.5 L 391.5 660.9 L 413.4 660.7 L 437.3 659.2 L 433.4 655.1 L 437.5 649.3 L 452.5 638 L 449.3 632.8 L 444.8 628.8 L 427 623.2 L 403.5 619.2 L 410.9 616.3 L 398.6 609.1 L 388.4 608.4 L 379.2 604.5 L 373 607.9 L 351.9 609.4 L 309.6 606.8 L 285 603.4 L 266.2 601.6 L 256.5 597.5 L 268.7 592.2 L 252.2 592.2 L 248.5 580.4 L 257.4 570 L 269.4 565.3 L 299.4 562.2 L 290.8 569.7 L 300 576.9 L 310.7 567.6 L 340.2 562.8 L 360.1 574.8 L 358.4 582.4 L 381.4 579.1 Z M 198.5 558.3 L 222.7 558.7 L 244.9 561.6 L 227.6 571.9 L 213.7 574.2 L 201.3 582.9 L 188 582.4 L 180.7 572.2 L 180.9 566.4 L 187 561.5 L 198.5 558.3 Z M -131 535.3 L -131 535.3 L -111.3 526.6 L -87.4 519.1 L -69.6 519.2 L -53.6 517.5 L -55.2 526.5 L -64.2 530.5 L -75 531.1 L -96.6 536 L -115.2 537.8 L -131 535.3 Z M -245.5 791.9 L -234.4 791 L -237.9 804.2 L -227.7 813.5 L -232.4 813.5 L -239.4 808.2 L -243.7 802.8 L -249.5 799.2 L -251.7 794.1 L -251 790.4 L -245.5 791.9 Z M 70.8 498.3 L 93.6 499.9 L 125.1 504.1 L 133.9 509.6 L 138.5 514.5 L 119.5 513.2 L 100.4 509.4 L 74.5 509 L 85.7 505.5 L 71.7 502.7 L 70.8 498.3 Z M -138.6 856.2 L -144.4 857.8 L -163.5 852.5 L -167 848.4 L -177.4 844.3 L -179.5 841 L -191.5 838.9 L -196 832.6 L -195 829.9 L -182.7 832.4 L -175.6 834.2 L -164.7 835.4 L -160.7 839.4 L -155 844.9 L -143.4 849.7 L -138.6 856.2 Z M -115.7 554.7 L -99.1 557.1 L -69.4 557.7 L -58.1 561.1 L -45.6 566 L -60.2 568.9 L -88.7 577.1 L -103.2 585.2 L -103.2 590.3 L -133.7 595.9 L -139.9 590.8 L -166.7 584.7 L -161.7 579.8 L -153.7 571.3 L -143.6 563.6 L -155 556.5 L -115.7 554.7 Z M 43.8 538.5 L 54.1 536.5 L 66.3 537 L 68.3 542.7 L 61.3 548.2 L 21.9 550 L -7.4 555.1 L -25.1 555.3 L -26.6 551.5 L -2.4 546.4 L -54.9 547.8 L -71.2 545.7 L -55.3 534.3 L -44.4 531.1 L -11.7 535 L 9 541.9 L 29.3 542.8 L 12.6 531.7 L 23.3 527.4 L 35.3 528.8 L 39.2 534.3 L 43.8 538.5 Z M 58.8 570.6 L 71.9 575.3 L 79.1 586.7 L 82.8 594.9 L 102.3 600.6 L 123.2 606.1 L 122 611.2 L 102.9 612.2 L 110.3 616.6 L 106.4 620.9 L 85.4 619.1 L 65.4 615.9 L 51.9 616.6 L 30 620.6 L 0.6 622.3 L -20.1 623.4 L -26.4 617.9 L -42.2 614.8 L -52.6 616.1 L -66.9 606.9 L -59.2 605.6 L -41.2 603.6 L -24.8 604.2 L -9.7 602.1 L -32.1 599.4 L -57 600.3 L -73.5 600.1 L -79.6 595.8 L -52.6 591.2 L -70.6 591.3 L -90.9 588.3 L -81.1 579.6 L -73 574.9 L -41.9 567.9 L -30 570.1 L -35.8 575.6 L -10 572 L 6.2 577.9 L 19.3 572 L 30 575.8 L 39.5 587.2 L 45.3 582.4 L 37.1 570.5 L 47.3 568.8 L 58.8 570.6 Z M 129.5 574.9 L 116.7 567.3 L 130.5 561.7 L 144.4 564.2 L 165.1 562.7 L 168.1 566.1 L 157.3 571.6 L 174.9 576.6 L 172.8 587.1 L 153.7 591.6 L 142.5 590.6 L 134.5 586.2 L 105.6 577.2 L 105.8 573.5 L 129.5 574.9 Z M 57.9 564.6 L 73.5 564.1 L 82.3 566.6 L 72.1 574.3 L 54 566.2 L 57.9 564.6 Z M 152.1 528.3 L 161 533.7 L 161.3 539.6 L 156 548.3 L 136.9 549.5 L 124.4 547.6 L 124.6 540.8 L 105.6 541.7 L 104.8 532.7 L 117.3 533.1 L 134.8 529.1 L 151.2 529.8 L 152.1 528.3 Z M 180.9 483.2 L 189 479.6 L 200.9 478.8 L 195.8 476.1 L 222.9 475.6 L 237.7 481.8 L 257.3 484.3 L 276.3 486.5 L 285.5 494.1 L 299.5 497.9 L 283.6 501.3 L 262.1 510.1 L 241.5 510.9 L 217.4 509.4 L 204.9 504.7 L 205.1 500.5 L 214.3 497.4 L 193.1 497.5 L 180.2 493.6 L 172.9 488.3 L 180.9 483.2 Z M 232.4 468.2 L 249.7 465.9 L 263.3 465.6 L 286.1 463.7 L 303.2 459.3 L 317.6 460 L 330.1 463.2 L 339 456.9 L 354.3 455.1 L 375.2 453.8 L 410.7 453.3 L 416.9 454.6 L 450.4 452.6 L 475.6 453.3 L 500.8 454.1 L 531.8 455 L 556.8 456.5 L 578 459.6 L 577.5 462.7 L 549.2 467.8 L 521.1 470.1 L 510.5 472.7 L 535.8 472.7 L 508.4 479.7 L 489.5 483 L 469.6 492.5 L 445.6 494.4 L 438.2 496.8 L 403 498 L 419.1 499.5 L 411 501.6 L 420.6 507.3 L 409.6 511.3 L 391.6 514.6 L 386.1 519.1 L 369.9 522.6 L 371.5 525.2 L 391.4 524.8 L 391.6 527.6 L 360.6 534.6 L 330.2 531.4 L 296.1 533.2 L 278.8 531.8 L 256.8 531.2 L 255.3 525.6 L 276.8 523 L 271.1 514.6 L 278.2 513.8 L 309.3 518.8 L 293.4 511.3 L 274.6 509.1 L 284 504.6 L 304.6 501.8 L 307.9 497.8 L 291.5 493.2 L 286.5 487.2 L 318.3 487.7 L 327.5 489 L 345.6 484.8 L 319.4 483.4 L 278.8 484.2 L 258.2 480.2 L 248.5 475.5 L 235 472.1 L 232.4 468.2 Z M 422.7 636.1 L 415.1 639.5 L 402.1 640.1 L 399.2 634.4 L 404.2 627.9 L 414.8 626.3 L 423.9 629.5 L 424 634.5 L 422.7 636.1 Z M 178.1 612.3 L 185.2 616.8 L 178 620.8 L 162.3 617.3 L 152.9 618.6 L 137 613.4 L 147.2 609.8 L 155.4 604.7 L 167.7 608 L 174.7 610.1 L 178.1 612.3 Z M 547 840.3 L 551 839.3 L 566.3 842.3 L 578.2 847.1 L 578.6 849.2 L 572.9 849.5 L 557.8 845.8 L 547 840.3 Z M 552.9 873.3 L 557 878.9 L 565.4 880.5 L 576.2 880.2 L 570.4 884.9 L 566.1 885.7 L 551.4 880.8 L 548.5 876.9 L 552.9 873.3 Z" />
<path class="neighbor" d="M -130.8 850.5 L -97.8 850.5 L -63.3 850.5 L -51.9 850.5 L -16.4 850.5 L 17.8 850.5 L 52.7 850.5 L 87.6 850.5 L 127.1 850.5 L 166.9 850.5 L 190.9 850.5 L 190.9 846 L 194.9 845.9 L 196.9 852.3 L 200.6 854.3 L 208.7 855 L 220.5 856.9 L 231.8 860.5 L 241.2 859 L 255.5 862 L 259.3 861.9 L 269.7 858.6 L 280.6 862.8 L 292 867.3 L 301.4 871.2 L 310.4 874.9 L 311.5 877.9 L 314.3 879.1 L 313.6 880.2 L 316.7 880.6 L 319 879.4 L 319.5 882.1 L 321.9 884 L 325.1 884 L 326.8 885.4 L 325.3 887.5 L 337.4 892.9 L 339.9 903.5 L 342.2 913.6 L 338.9 920.4 L 333.4 926.8 L 330.8 930.9 L 330.6 932.1 L 331.9 933.8 L 335.8 935.6 L 338.7 935.6 L 352.2 929.4 L 364.2 927.6 L 379.4 921.8 L 379.6 920.6 L 378.6 917.1 L 376.7 914.8 L 382 912.9 L 393.4 912.9 L 404.1 912.9 L 407.8 908.4 L 409.2 907.5 L 421.5 899.1 L 426.8 897 L 444.4 896.9 L 465.8 896.9 L 467 894 L 470.7 893.4 L 475.6 891.6 L 479.8 886.3 L 483.3 877.3 L 492.2 868.5 L 496 871.6 L 503.8 869.6 L 509 872.9 L 509 888.8 L 516.6 895.4 L 518.6 899.2 L 506.2 904.8 L 494.2 908.8 L 482 912.3 L 475.8 919.2 L 473.8 921.8 L 473.7 927.9 L 477.6 934.1 L 482.4 934.4 L 481.2 930.1 L 484.7 932.7 L 483.7 936 L 475.9 937.9 L 470.3 937.7 L 461.7 939.7 L 456.6 940.3 L 449.9 940.9 L 440.2 944.2 L 457.3 942.1 L 460.7 944.3 L 444.4 947.7 L 437 947.8 L 437.4 946.3 L 433.8 949.6 L 437.3 950.1 L 434.8 958.5 L 426.3 967.4 L 425.4 964.4 L 422.9 963.8 L 419.1 960.9 L 421.5 967.2 L 424.4 969.2 L 424.5 973.6 L 420.8 978.1 L 414.3 987.4 L 413.2 987 L 416.8 979 L 410.9 974.6 L 409.5 965 L 407.3 970 L 409.8 977.3 L 402.1 975.5 L 410.1 979.3 L 410.6 990.3 L 413.9 991.1 L 415.1 995.2 L 416.8 1006.8 L 409.4 1015.4 L 397.3 1018.9 L 389.7 1025.7 L 383.9 1026.4 L 378 1030.7 L 376.4 1034.6 L 363.6 1042.1 L 357 1047.7 L 351.6 1054.6 L 349.8 1062.8 L 351.8 1070.9 L 355.7 1080.8 L 360.9 1089.1 L 360.9 1094.1 L 366.4 1107.6 L 366.1 1115.4 L 365.6 1119.9 L 362.7 1127 L 359.2 1128.5 L 353.5 1127.1 L 351.6 1122 L 347.2 1119.3 L 341.1 1109.3 L 335.7 1100.4 L 333.9 1095.9 L 336.3 1088.1 L 333 1081.8 L 324 1072 L 319.4 1070.3 L 307.7 1075.5 L 305.6 1074.9 L 300 1069.5 L 292.7 1066.6 L 279.6 1068.1 L 269.3 1066.8 L 260.4 1067.6 L 255.6 1069.4 L 257.7 1072.5 L 257.5 1077.2 L 260 1079.5 L 257.7 1081.1 L 253.4 1079.3 L 249.1 1081.6 L 240.6 1081.2 L 232 1075.1 L 221.8 1076.5 L 213.4 1073.8 L 206.1 1074.6 L 196.4 1077.3 L 185.8 1086 L 174.2 1091 L 167.9 1096.5 L 165.2 1101.7 L 165.1 1109.8 L 165.7 1115.3 L 167.9 1119.3 L 163.4 1119.6 L 155.1 1117.1 L 146 1113.5 L 142.8 1108 L 140.2 1099.9 L 133.4 1093.3 L 129.3 1086.5 L 123.5 1078.5 L 115.3 1073.9 L 105.8 1074.1 L 98.5 1083.3 L 88.9 1079.8 L 82.8 1076.3 L 80 1069.9 L 76.1 1063.8 L 69.2 1058.7 L 63.2 1055 L 59 1050.9 L 38.9 1050.9 L 38.9 1055.7 L 29.6 1055.7 L 6.5 1055.8 L -20 1047.6 L -37.5 1041.9 L -36.5 1039.7 L -51.2 1040.9 L -64.4 1041.8 L -66.4 1035.9 L -73.9 1029.2 L -79.3 1027.8 L -80.6 1024.5 L -87.1 1023.9 L -91.3 1020.8 L -102.1 1019.6 L -105 1017.7 L -106.5 1011.4 L -117.7 999.7 L -127.4 983.5 L -127 980.8 L -132.1 977 L -141.1 967.3 L -142.7 957.8 L -148.9 951.4 L -146.4 941.8 L -146.8 931.8 L -150.5 922.9 L -145.9 912 L -144.5 901.4 L -143.1 890.9 L -145.2 875.3 L -148.9 865.3 L -152.3 859.9 L -150.9 857.7 L -134.1 861.6 L -127.9 872.6 L -125 869.5 L -126.9 860 L -130.8 850.5 Z M -509.3 1186.6 L -507.2 1187.6 L -505.3 1189.2 L -502.4 1193.2 L -502.6 1193.9 L -507.2 1196.4 L -510.9 1198.2 L -512.6 1200.1 L -515.5 1198.5 L -515.1 1195.2 L -517.1 1191 L -516.5 1189.7 L -514.5 1187.8 L -515.3 1185.5 L -514.6 1184.4 L -513.7 1184.6 L -509.3 1186.6 Z M -516.2 1178.6 L -517.1 1180 L -521 1180.9 L -523 1178.4 L -524.4 1177.5 L -524.5 1176.7 L -523.3 1175.8 L -519.2 1176.9 L -516.2 1178.6 Z M -525 1173.8 L -525.4 1175.1 L -531.6 1174.8 L -530.7 1173.3 L -525 1173.8 Z M -539.8 1167.6 L -538.8 1168.3 L -535.4 1172.2 L -536.1 1172.8 L -536.9 1172.7 L -540.9 1172.3 L -542.4 1169.6 L -542.9 1169.2 L -539.8 1167.6 Z M -555.3 1161.8 L -555.1 1164.5 L -556.5 1165.6 L -560.4 1163.5 L -559.8 1162.7 L -558 1161.5 L -555.3 1161.8 Z M -637.9 718.2 L -628.7 719.2 L -627.5 723.7 L -634.7 725.5 L -642.3 723.3 L -649.4 720.1 L -637.9 718.2 Z M -484 746.2 L -476.3 747 L -471.4 750.6 L -481.4 756.1 L -493 760.6 L -499 757.6 L -500.8 752.1 L -490.2 748 L -484 746.2 Z M -341.7 609.7 L -341.7 609.7 L -341.8 652.9 L -341.9 719.1 L -330.4 719.4 L -319.1 722.6 L -311 727.7 L -300.6 735.3 L -289.3 728.9 L -277.7 725.1 L -271.5 731.1 L -263.7 735.9 L -253 741.1 L -245.8 749.4 L -233.9 762.7 L -214.1 770.1 L -213.8 777.4 L -220.3 783 L -220.3 783 L -220.3 783 L -226.7 778.7 L -236.9 774.9 L -240.2 764.8 L -255.2 755.4 L -261.4 744.4 L -272.6 743.7 L -291.1 743.4 L -304.7 740.1 L -328.7 728 L -339.8 725.8 L -360.2 721.6 L -376.3 722.6 L -399.1 717.3 L -412.9 712.3 L -425.8 714.8 L -423.4 722.9 L -429.9 723.6 L -443.3 726 L -453.5 730 L -466.4 732.4 L -468.1 725.6 L -462.9 714.2 L -450.5 710.6 L -453.7 707.7 L -468.5 714.2 L -476.4 721.9 L -493.2 730.2 L -484.7 735.8 L -495.7 744.2 L -508.2 749 L -519.8 752.6 L -522.7 757.7 L -540.8 763.7 L -544.5 769.2 L -558.1 774.1 L -566.1 773.3 L -576.9 776.5 L -588.7 780.5 L -598.4 784.3 L -618.3 787.7 L -620.1 785.7 L -607.4 780.3 L -596.1 776.7 L -583.7 770.3 L -569.3 769 L -563.5 764.3 L -547.4 757.3 L -544.8 755 L -536.2 750.9 L -534.2 742.1 L -528.3 735.2 L -541.7 738.7 L -545.5 736.7 L -551.8 740.9 L -559.4 735 L -562.5 739.2 L -566.8 733.4 L -578.5 738.1 L -585.6 738.1 L -586.6 731.1 L -584.5 726.9 L -592 722.7 L -607.1 725 L -616.9 719.5 L -624.8 716.7 L -624.9 710.1 L -633.9 705.2 L -629.4 698.5 L -619.9 692 L -615.7 686.1 L -606.3 685.2 L -598.4 687.1 L -589 681.5 L -580.5 682.5 L -571.7 678.8 L -573.8 673.5 L -580.3 671.4 L -571.7 667 L -578.9 667.1 L -591.2 669.6 L -594.8 672.2 L -603.9 669.6 L -620.4 670.9 L -637.4 668.2 L -642.3 663.5 L -657 656.7 L -640.6 651.9 L -614.7 646.2 L -605.2 646.2 L -606.7 652 L -582.2 651.5 L -591.6 644.3 L -605.9 639.9 L -614.2 634.1 L -625.4 629.1 L -641.3 625.5 L -634.8 619.4 L -614.2 619 L -599.5 613.7 L -596.8 608 L -584.9 602.5 L -573.6 601.2 L -551.5 596 L -540.9 596.8 L -523 590.6 L -505.4 593.1 L -497 598.3 L -491.8 596.1 L -472.2 596.7 L -472.9 599.4 L -455.1 601.4 L -443.2 600.2 L -418.7 603.9 L -396.4 605 L -387.4 606.5 L -372 604.6 L -354.3 608.1 L -341.7 609.7 L -341.7 609.7 Z M -699.1 678.7 L -691.9 680.9 L -684.6 679.7 L -675.2 682.7 L -663.7 684.3 L -664.7 685.6 L -673.5 688 L -682.3 685.5 L -686.7 683.4 L -697 684.1 L -699.7 683 L -699.1 678.7 Z" />
<path class="neighbor" d="M 3374.1 593.6 L 3388.9 588.8 L 3388.9 596.7 L 3376.2 597.3 L 3374.1 593.6 Z M 1867.6 880.7 L 1862.3 887.6 L 1851 889.5 L 1839.5 901.5 L 1850 912.5 L 1848.9 920.4 L 1861.6 934 L 1861.6 934 L 1854.6 938.7 L 1852.6 941.7 L 1847.5 940.9 L 1839.5 933.8 L 1836.2 933.4 L 1828.9 930.8 L 1825.4 926 L 1814.5 923.6 L 1807.5 925.4 L 1805.4 923.2 L 1789.6 917.6 L 1772.5 915.8 L 1762.7 913.8 L 1761.3 915.1 L 1746.5 905.3 L 1733.2 900.9 L 1723.2 894.1 L 1731.6 892.3 L 1741.3 882.5 L 1734.8 877.9 L 1751.9 873.2 L 1751.6 870.7 L 1741.1 872.5 L 1741.5 867.4 L 1747.5 864.1 L 1758.8 863.3 L 1760.6 859.4 L 1758 853 L 1762.7 846.9 L 1762.6 843.5 L 1745.5 839.7 L 1738.7 839.8 L 1731.5 834.4 L 1722.6 836.2 L 1707.8 832.1 L 1708.1 829.9 L 1703.9 824.8 L 1694.7 824.2 L 1693.7 820.6 L 1696.6 818.3 L 1689.2 811.7 L 1677.1 812.8 L 1673.6 812.2 L 1670.7 814.9 L 1666.3 814.4 L 1666.3 814.4 L 1663.5 807 L 1660.7 803.1 L 1663 802 L 1672.4 802.4 L 1676.9 799.9 L 1673.5 796.8 L 1665.7 794.8 L 1666.4 792.7 L 1661.7 790.5 L 1654.4 782.9 L 1656.9 779.8 L 1655.7 774.3 L 1644.4 771.6 L 1638.3 772.9 L 1636.6 770.1 L 1624.4 767.1 L 1620.6 760.3 L 1619.7 754.6 L 1614.1 752 L 1619 748.3 L 1615.6 737.4 L 1623.9 730.7 L 1622.1 728.7 L 1622.1 728.7 L 1635.3 722.3 L 1623.1 716.8 L 1623.1 716.8 L 1648 701.9 L 1658.8 695.2 L 1663.2 689.3 L 1646 681.3 L 1650.7 673.8 L 1640.3 665.1 L 1648.1 655.1 L 1634.6 641.9 L 1645.3 633.1 L 1627.5 625.4 L 1629.2 617.3 L 1638.6 616.2 L 1658.4 611.5 L 1658.4 611.5 L 1670.4 607.5 L 1689.4 614.5 L 1721.3 617.3 L 1765.2 630.4 L 1774.1 636 L 1774.9 643.7 L 1762 649.8 L 1743 652.9 L 1691.1 644.1 L 1682.6 645.5 L 1701.5 654 L 1702.3 659.4 L 1703 671.3 L 1718 674.9 L 1727.1 677.9 L 1728.6 672.2 L 1721.6 667.2 L 1729 662.8 L 1757.1 670.1 L 1766.9 667.2 L 1759 658.7 L 1786.1 647.4 L 1796.8 648 L 1807.7 652.1 L 1814.5 644.1 L 1804.8 637.2 L 1810.5 630.2 L 1801.9 623 L 1834.4 626.7 L 1841.1 633.2 L 1826.4 634.7 L 1826.4 641.1 L 1835.6 645.1 L 1853.5 642.6 L 1856.4 635.2 L 1880.7 629.7 L 1921.2 619.7 L 1930 620.2 L 1918.5 627.3 L 1932.9 628.5 L 1941.3 624.5 L 1963.1 624.2 L 1980.3 619.4 L 1993.6 626.4 L 2006.8 618.7 L 1994.6 612 L 2000.6 608.1 L 2035 611.7 L 2051.1 615.3 L 2093.2 628.6 L 2100.9 622.5 L 2089.1 616.3 L 2088.8 613.9 L 2074.8 612.7 L 2078.6 607.2 L 2072.4 598.2 L 2072.1 594.4 L 2093.5 583.9 L 2101.1 573.3 L 2109.8 571.1 L 2140.5 574.1 L 2143 580.6 L 2131.9 590 L 2139.2 593.7 L 2142.9 601.9 L 2140.3 617.8 L 2153.1 624.9 L 2148.1 632.7 L 2125.3 649.2 L 2138.6 650.9 L 2143.3 646.7 L 2156 643.7 L 2159.1 638 L 2169.2 632.4 L 2162.4 625.8 L 2167.8 618.1 L 2155.1 617.2 L 2152.3 610.7 L 2161.6 599.1 L 2146.5 589.6 L 2167.3 581.7 L 2164.6 573.5 L 2170.4 573.2 L 2176.5 579.7 L 2171.9 590.9 L 2184.4 593 L 2179.1 584.6 L 2198.5 580 L 2222.6 579.4 L 2244.1 586.1 L 2233.8 576.4 L 2232.6 564 L 2252.8 561.6 L 2280.8 562.2 L 2306 560.6 L 2296.5 554.6 L 2310 546.9 L 2323.3 546.6 L 2345.9 540.8 L 2376.6 539.3 L 2380.5 536.1 L 2411 535 L 2420.5 537.6 L 2446.6 531.5 L 2468 531.7 L 2471.2 526.6 L 2482.3 521.7 L 2509.7 516.9 L 2529.7 520.7 L 2513.8 523.6 L 2540.2 525.3 L 2543.3 531.1 L 2553.9 528.3 L 2587.9 528.4 L 2614.1 534.1 L 2623.4 538.4 L 2620.5 544.5 L 2607.7 547.9 L 2577.1 554.4 L 2568.4 557.8 L 2582.8 559.4 L 2600 562.4 L 2610.5 560.2 L 2616.4 567.6 L 2621.5 564.6 L 2640.1 562.8 L 2677.4 564.7 L 2680.2 570.1 L 2728.8 571.9 L 2729.5 563 L 2754.1 565 L 2772.7 565 L 2791.4 571.1 L 2796.8 578.5 L 2789.9 583.4 L 2804.5 592.5 L 2822.8 597.2 L 2834 585.1 L 2852.7 590.3 L 2872.5 587.2 L 2895 590.7 L 2903.5 587.5 L 2922.5 589.1 L 2914.1 578.3 L 2929.5 573.3 L 3034.5 580.8 L 3044.3 587.7 L 3074.8 596.6 L 3121.7 594.4 L 3144.8 596.3 L 3154.5 601.1 L 3153.1 609.6 L 3167.4 612.9 L 3183 610.6 L 3203.6 610.3 L 3225.5 612.5 L 3247.6 611.2 L 3267.8 621.6 L 3282.2 617.9 L 3272.8 610.4 L 3278 605.3 L 3315.1 608.5 L 3339.2 607.8 L 3372.7 613.4 L 3388.9 618.4 L 3388.9 664.7 L 3388.9 664.8 L 3373.9 669.9 L 3358.9 669.1 L 3369.3 675.2 L 3376.3 684.8 L 3381.6 688 L 3383 692.8 L 3380 695.8 L 3358.3 693.3 L 3325.8 702.1 L 3315.5 703.4 L 3297.7 711.6 L 3280.8 718.7 L 3276.6 724 L 3259.9 716 L 3229.7 725.1 L 3224.4 720.8 L 3213.2 725.7 L 3197.6 724.1 L 3193.9 731.8 L 3179.9 743 L 3180.4 747.7 L 3193.6 750.3 L 3192 767.3 L 3181.2 767.7 L 3176.3 777.4 L 3181.1 782.4 L 3160.8 788.4 L 3156.7 801.6 L 3139.4 804.5 L 3135.9 816.3 L 3119.2 827.1 L 3114.9 819.1 L 3109.9 802.1 L 3103.4 776.3 L 3109 760.2 L 3118.8 753.3 L 3119.4 747.8 L 3137.5 745.2 L 3158.2 730.6 L 3178.3 718.6 L 3199.1 709.4 L 3208.5 693 L 3194.4 694 L 3187.4 703.5 L 3157.9 716.3 L 3148.4 702 L 3118.4 705.9 L 3089.3 725.4 L 3098.9 732.6 L 3072.9 735.6 L 3055 736.8 L 3055.8 728.4 L 3037.8 726.6 L 3023.4 732.3 L 2987.8 730.3 L 2949.6 733.8 L 2911.9 756.5 L 2867.4 783.9 L 2885.7 785.3 L 2891.4 792.6 L 2902.7 795.2 L 2910.1 789.4 L 2922.9 790.2 L 2939.7 802.9 L 2940.1 812.8 L 2931 824.4 L 2930 838.3 L 2924.8 856.9 L 2907.2 873.7 L 2903.4 881.8 L 2887.6 895.3 L 2871.9 908.7 L 2864.4 915.6 L 2848.9 922.4 L 2841.6 922.5 L 2834.3 916.9 L 2818.7 925.4 L 2816.9 929.3 L 2816.9 929.3 L 2816.9 929.3 L 2816.9 929.3 L 2815.3 927.2 L 2815.3 927.2 L 2815.2 921.3 L 2821.1 921 L 2822.8 907.3 L 2819.7 897.3 L 2829.7 893.2 L 2843.8 895.3 L 2851.6 884 L 2855.6 871.2 L 2860.1 867 L 2866.2 856.5 L 2847 860 L 2837 864.5 L 2819.3 864.5 L 2814.6 853.6 L 2800.8 845.3 L 2780.6 841.6 L 2776.3 830.2 L 2772.2 823.1 L 2767.9 818.1 L 2760.7 806.4 L 2750.5 802.1 L 2733.1 798.6 L 2717.7 799 L 2703.3 801.1 L 2693.7 806.8 L 2700 809.6 L 2700.2 816 L 2693.7 819.7 L 2683.2 832.1 L 2683.3 837.2 L 2666.9 844.5 L 2653 840.1 L 2639.1 841.1 L 2633 837.2 L 2626.1 836 L 2609 844.2 L 2593.7 846.1 L 2583.1 849 L 2568.4 847.1 L 2557.6 847.2 L 2550.6 841.2 L 2539.2 835.7 L 2527.6 834.1 L 2512.9 835.6 L 2501.9 837.8 L 2485.4 832.9 L 2483.1 824.2 L 2469.5 821.2 L 2458.9 819.9 L 2445.9 815.1 L 2433.9 827.1 L 2438.6 833.9 L 2427.3 842 L 2410.5 839.1 L 2398.9 838.7 L 2391.1 833.3 L 2379 833.1 L 2368.9 829.5 L 2351.2 835 L 2329 845 L 2316.8 847 L 2312.2 848 L 2306.1 840.9 L 2291.1 842.4 L 2286.1 837.5 L 2278 835.2 L 2272.4 828.5 L 2266 826.4 L 2249.3 829.4 L 2233.3 822.7 L 2227.1 828.8 L 2201.1 799.3 L 2186.3 790.3 L 2190.6 786.7 L 2161.4 797.6 L 2150.3 798.3 L 2151.2 791.9 L 2136.3 788 L 2124.2 790.8 L 2120.5 778.8 L 2099.6 776.3 L 2089.2 781.1 L 2060.1 785.4 L 2054.4 788.2 L 2010.9 792.3 L 2005.6 796.2 L 2014 804.2 L 2002.8 807.2 L 2005 810.4 L 1993.9 816.1 L 2012.7 824.1 L 2009.8 829.6 L 1993.5 829.1 L 1990.1 832.5 L 1975.2 826.5 L 1956.8 826.7 L 1944.5 831.6 L 1930.7 826.9 L 1905.1 818.9 L 1886.9 819.2 L 1862.9 831.8 L 1861.5 840.3 L 1849.5 833.6 L 1840.3 846.3 L 1843.7 848.7 L 1836.9 857.5 L 1846.8 865.4 L 1855.4 865.1 L 1862.8 872.8 L 1861.7 878.8 L 1867.6 880.7 Z M 2386.8 478.3 L 2412 475.6 L 2434.5 481.5 L 2461.3 492.7 L 2458.4 503.2 L 2433.1 504.6 L 2400.7 501.3 L 2381.4 496.8 L 2372.5 488.5 L 2356.6 486.2 L 2386.8 478.3 Z M 2492.1 498.5 L 2521.6 505.1 L 2518.1 509.8 L 2452.6 514.3 L 2473.8 499.1 L 2483.4 497.8 L 2492.1 498.5 Z M 2910.5 535.1 L 2941.1 535.6 L 2983.2 541.7 L 2974 550.4 L 2931.2 550.1 L 2911.9 552.8 L 2888.9 545.2 L 2895.1 537.3 L 2910.5 535.1 Z M 3019.6 544.3 L 3048.8 547.3 L 3035.3 551.9 L 3016.8 550.9 L 2995.2 546.3 L 2997.9 542.5 L 3019.6 544.3 Z M 2922.5 567.2 L 2933.5 562.6 L 2948 561.6 L 2964.5 566 L 2965.9 569.1 L 2948.3 569.1 L 2924.5 567.8 L 2922.5 567.2 Z M 1818.1 483.3 L 1840.8 481.2 L 1858.5 481.1 L 1860.8 484.2 L 1867.5 481.4 L 1878.5 479.5 L 1895.7 482 L 1891.2 483.8 L 1875.6 485.3 L 1865.2 486.2 L 1863.5 488.1 L 1850 490.1 L 1837.4 487.3 L 1844 483.7 L 1818.1 483.3 Z M 1561.1 788.5 L 1539.7 788.7 L 1525.4 787.4 L 1528 782.3 L 1544.1 778.5 L 1556.3 780.6 L 1561.4 782.4 L 1560.2 785.6 L 1561.1 788.5 Z M 1918.8 562.8 L 1946.6 552.6 L 1943.5 547.3 L 1969.5 541.2 L 2007.8 533.7 L 2046.5 531.6 L 2066.4 527.2 L 2089 525.7 L 2097.1 530.3 L 2089.3 533.9 L 2048.1 539.7 L 2012.6 545.3 L 1976.5 556.3 L 1959.2 567.7 L 1941 578.8 L 1943.4 588.5 L 1965.6 598 L 1958.7 599 L 1920.8 597.5 L 1917.7 592.4 L 1896.6 589.3 L 1894.9 583 L 1906.8 580.5 L 1906.4 574.1 L 1929.5 564.2 L 1918.8 562.8 Z M 2957.9 795.8 L 2961.9 807 L 2961.6 818.4 L 2966.4 830.2 L 2978.1 850.7 L 2960.9 846.9 L 2953.8 863.7 L 2965.1 875.6 L 2964.8 883.7 L 2956 876.7 L 2948.4 885.7 L 2946.2 876 L 2947.5 864.6 L 2946.2 852.1 L 2948.9 843.3 L 2949.4 827.8 L 2942.6 816.4 L 2943.6 800.5 L 2954.3 795.1 L 2949.7 789.7 L 2954.9 788.1 L 2957.9 795.8 Z M -736.2 638.9 L -737.2 646.1 L -729.4 649 L -732.1 640.5 L -700.5 642.3 L -677.8 653.2 L -689.3 658.2 L -708.3 659.4 L -708.6 670.8 L -713.3 673.2 L -724.2 672.8 L -733 668.8 L -748.5 665.4 L -751.1 660.4 L -762.9 658.5 L -776.1 660 L -782.4 655.9 L -779.9 651.6 L -793.8 654.3 L -788.6 659.8 L -795.2 664.7 L -795.2 618.4 L -766.7 627.3 L -736.2 638.9 Z M -780 596 L -795.2 596.7 L -795.2 588.8 L -793.7 588.3 L -783.8 588.3 L -767 591.6 L -768 593.2 L -780 596 Z M 1685.5 885.7 L 1688.6 882.8 L 1696.8 885.3 L 1700.6 885.7 L 1702.1 888 L 1703.8 888.4 L 1703.9 889.4 L 1709.6 892.2 L 1721.5 891.5 L 1719.2 895.6 L 1706.5 897.7 L 1690.7 904.4 L 1684.2 902 L 1686.8 896.6 L 1674.1 893.2 L 1676.1 890.9 L 1687.3 887.1 L 1685.5 885.7 Z" />
<path class="neighbor" d="M 1472.9 494 L 1477.3 490 L 1494.4 489.6 L 1509 493.6 L 1547.3 502.3 L 1518 506.9 L 1511.6 515.4 L 1501.4 517.6 L 1495.8 527.3 L 1481.8 527.7 L 1456.8 520.6 L 1467.4 516.5 L 1450 513.1 L 1427.3 503.3 L 1418.3 494.2 L 1450 490 L 1456.3 494.1 L 1472.9 494 Z M 1658.4 611.5 L 1638.6 616.2 L 1629.2 617.3 L 1634.1 609.1 L 1619.2 604.5 L 1601.2 608.4 L 1595.5 616.9 L 1584.4 622.1 L 1571.9 619.3 L 1556.7 619.9 L 1543.8 613.7 L 1536.8 616.8 L 1529.6 617.3 L 1527.9 624.9 L 1506 623 L 1503 629.5 L 1491.8 629.5 L 1484.1 637.7 L 1472.5 650.6 L 1454.4 667 L 1458.7 671 L 1454.6 675.6 L 1443.1 675.4 L 1435.6 686.3 L 1436.3 701.7 L 1443.7 707.6 L 1439.9 721.3 L 1430.2 729.2 L 1425.1 735.9 L 1417.3 728.8 L 1394.3 742.2 L 1378.8 744.9 L 1362.7 739 L 1358.6 726.5 L 1354.9 699.7 L 1365.6 692.2 L 1396.3 682.5 L 1419.3 670.5 L 1440.5 654.3 L 1468.5 631.8 L 1487.9 623.1 L 1519.9 608.5 L 1545.4 603.4 L 1564.5 604 L 1582.2 594.4 L 1603.4 594.9 L 1624.2 592.6 L 1660.6 601.1 L 1645.6 604.2 L 1658.4 611.5 Z M 1615.4 489.5 L 1598.2 495.8 L 1564.5 497.1 L 1530.2 495.2 L 1528.1 492 L 1511.5 491.8 L 1498.8 486.5 L 1534.6 483.2 L 1551.5 486 L 1563.3 482.5 L 1592.7 485.4 L 1615.4 489.5 Z M 1584.2 515.1 L 1558.3 519.9 L 1537.8 517.2 L 1545.8 514.2 L 1538.8 510.5 L 1562.9 508.1 L 1567.5 512.5 L 1584.2 515.1 Z" />
<path class="neighbor" d="M 696.5 1371.7 L 689.6 1382.3 L 686.1 1390.9 L 681.6 1395.3 L 676 1396.1 L 674.5 1392.8 L 671.9 1392.3 L 668.3 1395.5 L 663.2 1393.1 L 666.1 1388.2 L 667.2 1382.9 L 669.2 1377.9 L 664.6 1371 L 663.7 1363.1 L 669.8 1353.1 L 673.7 1354.3 L 682.3 1357.1 L 694.6 1366.9 L 696.5 1371.7 Z M 1368.8 845.1 L 1374.3 848.1 L 1391 850.3 L 1385.2 858.2 L 1383.7 866.5 L 1380.5 868.5 L 1375.2 867.4 L 1375.6 870.4 L 1367.1 876.9 L 1366.9 882.2 L 1372.4 880.3 L 1376.4 885.4 L 1376 888.7 L 1379.4 893.1 L 1375.3 896.6 L 1378.3 905.6 L 1384.6 907.1 L 1383.3 912.1 L 1372.8 918.7 L 1349.9 915.6 L 1332.9 919.3 L 1331.6 926.3 L 1318.1 927.8 L 1305 922.6 L 1300.8 925.1 L 1279.4 919.8 L 1274.8 915.3 L 1280.8 908.3 L 1283 885.2 L 1271 873 L 1262.5 867.1 L 1244.7 862.6 L 1243.5 854.1 L 1258.6 851.6 L 1278.1 854.6 L 1274.4 841.4 L 1285.4 846.4 L 1312.5 837.4 L 1315.9 827.8 L 1326.1 825.5 L 1327.8 829.6 L 1333.2 829.8 L 1338.6 834.4 L 1346.7 839.9 L 1352.7 839 L 1362.8 844.3 L 1365.4 845.3 L 1368.8 845.1 Z M 1398.5 924.5 L 1406 920.1 L 1408 930.1 L 1404.2 939 L 1398.9 936.7 L 1396.2 928.8 L 1398.5 924.5 Z" />
<path class="neighbor" d="M 1425.1 735.9 L 1430.2 729.2 L 1439.9 721.3 L 1443.7 707.6 L 1436.3 701.7 L 1435.6 686.3 L 1443.1 675.4 L 1454.6 675.6 L 1458.7 671 L 1454.4 667 L 1472.5 650.6 L 1484.1 637.7 L 1491.8 629.5 L 1503 629.5 L 1506 623 L 1527.9 624.9 L 1529.6 617.3 L 1536.8 616.8 L 1552.3 622.5 L 1570.5 630.4 L 1570.8 648.3 L 1574.7 652.8 L 1554.7 656.1 L 1543.4 664.2 L 1545.3 671.3 L 1526.8 680.7 L 1504.3 690.7 L 1495.9 707 L 1504.1 715.2 L 1515.3 721.7 L 1504.6 734.8 L 1492.5 737.5 L 1488.1 757 L 1481.5 767.9 L 1467.4 766.8 L 1460.8 776 L 1447.3 776.5 L 1443.6 765.5 L 1433.9 752.4 L 1425.1 735.9 Z" />
<path class="neighbor" d="M 1569.8 793.4 L 1570.3 798.5 L 1573.6 802.9 L 1573.5 807.6 L 1566.5 809.9 L 1570.1 815.3 L 1570.3 820.5 L 1576.2 830.6 L 1574.9 833.9 L 1569.2 835.3 L 1558.6 844.9 L 1561.6 850.2 L 1559.1 849.5 L 1548 845 L 1539.7 846.6 L 1534.2 845.5 L 1527.3 847.9 L 1521.4 843.8 L 1516.7 845.4 L 1516 844.7 L 1510.7 839 L 1502 838.3 L 1500.9 834.6 L 1493 833.3 L 1491.2 836.3 L 1484.9 833.9 L 1485.6 830.7 L 1476.9 829.7 L 1471.4 826 L 1466.7 818.6 L 1467.6 814.6 L 1464.7 808.3 L 1460.5 804.2 L 1463.7 801.1 L 1461 795.2 L 1468.9 791.8 L 1487.1 786.4 L 1501.7 782.5 L 1513.3 784.4 L 1514.2 787.3 L 1525.4 787.4 L 1539.7 788.7 L 1561.1 788.5 L 1567 789.8 L 1569.8 793.4 Z" />
<path class="neighbor" d="M 1494.2 860.7 L 1493.4 865.4 L 1486.8 865.4 L 1489.1 867.9 L 1485.2 875.4 L 1483 877.4 L 1472.8 877.7 L 1467 880.3 L 1457.4 879.4 L 1440.7 876.4 L 1438.1 872.4 L 1426.7 874.4 L 1425.3 876.6 L 1418.3 875 L 1412.3 874.6 L 1407.1 872.5 L 1408.9 869.7 L 1408.4 867.6 L 1411.9 867 L 1417.8 870.2 L 1419.4 867.1 L 1429.7 867.6 L 1438 865.5 L 1443.6 865.9 L 1447.2 868.3 L 1448.3 866.3 L 1446.6 858.7 L 1450.8 857.3 L 1454.9 851.9 L 1463.5 855.6 L 1470.1 850.9 L 1474.2 850 L 1483.2 853.6 L 1488.7 853 L 1494 855.2 L 1493.1 856.6 L 1494.2 860.7 Z" />
<path class="neighbor" d="M 1553.6 857.2 L 1560 860.3 L 1560.8 863.5 L 1553.7 865.9 L 1548.2 873.8 L 1541.2 881.7 L 1531.9 883.9 L 1524.6 883.3 L 1515.7 886.4 L 1515.7 886.4 L 1511.4 888.1 L 1501.8 885.9 L 1493.1 880.9 L 1489.4 879.5 L 1487.2 875.6 L 1485.2 875.4 L 1489.1 867.9 L 1486.8 865.4 L 1493.4 865.4 L 1494.2 860.7 L 1500.2 863.6 L 1504.4 864.9 L 1514.2 863.5 L 1515.1 861.1 L 1519.7 860.8 L 1525.4 859 L 1526.7 859.7 L 1532.1 858.3 L 1534.8 855.5 L 1538.7 854.8 L 1551.1 858.4 L 1553.6 857.2 Z" />
<path class="neighbor" d="M 1461 795.2 L 1463.7 801.1 L 1460.5 804.2 L 1464.7 808.3 L 1467.6 814.6 L 1466.7 818.6 L 1471.4 826 L 1466.2 827.2 L 1463.2 825.9 L 1460.3 828.1 L 1451.9 830.3 L 1447.6 833.2 L 1439.2 835.8 L 1441.2 839.2 L 1442.4 844.1 L 1448.4 846.9 L 1454.9 851.9 L 1450.8 857.3 L 1446.6 858.7 L 1448.3 866.3 L 1447.2 868.3 L 1443.6 865.9 L 1438 865.5 L 1429.7 867.6 L 1419.4 867.1 L 1417.8 870.2 L 1411.9 867 L 1408.4 867.6 L 1395.9 864.1 L 1393.6 866.6 L 1383.7 866.5 L 1385.2 858.2 L 1391 850.3 L 1374.3 848.1 L 1368.8 845.1 L 1369.5 840 L 1367.1 837.4 L 1368.4 829.5 L 1366.5 817.3 L 1373.5 817.3 L 1376.4 812.9 L 1379.3 802.3 L 1377.1 798.4 L 1379.4 795.9 L 1389.1 795.3 L 1391.3 797.8 L 1399.2 792.1 L 1396.5 787.8 L 1396 781.2 L 1404.8 782.7 L 1412.2 780.9 L 1412.4 785.4 L 1424.2 788.1 L 1424 792.3 L 1435.9 790.1 L 1442.4 786.9 L 1455.5 791.5 L 1461 795.2 Z" />
<path class="neighbor" d="M 1367.1 837.4 L 1369.5 840 L 1368.8 845.1 L 1365.4 845.3 L 1362.8 844.3 L 1364.1 837.8 L 1367.1 837.4 Z" />
<path class="neighbor" d="M 1368.4 829.5 L 1367.1 837.4 L 1364.1 837.8 L 1362.8 844.3 L 1352.7 839 L 1346.7 839.9 L 1338.6 834.4 L 1333.2 829.8 L 1327.8 829.6 L 1326.1 825.5 L 1335.4 823.2 L 1335.4 823.2 L 1335.4 823.2 L 1343.9 824.1 L 1354.7 821.7 L 1362.1 826.8 L 1368.4 829.5 Z" />
<path class="neighbor" d="M 1377.1 798.4 L 1379.3 802.3 L 1376.4 812.9 L 1373.5 817.3 L 1366.5 817.3 L 1368.4 829.5 L 1362.1 826.8 L 1354.7 821.7 L 1343.9 824.1 L 1335.4 823.2 L 1335.4 823.2 L 1341.4 820 L 1351.6 802.9 L 1367.5 798 L 1377.1 798.4 Z" />
<path class="neighbor" d="M 1224.9 793.9 L 1226.8 802.2 L 1218 812.6 L 1197.4 819.4 L 1180.9 817.7 L 1190.4 805.6 L 1184.3 793.7 L 1200.1 784.6 L 1208.9 779.2 L 1211.3 785.4 L 1208.9 791.7 L 1216.1 791.5 L 1224.9 793.9 Z" />
<path class="neighbor" d="M 1412.2 780.9 L 1404.8 782.7 L 1396 781.2 L 1391.3 774.7 L 1390.9 762.8 L 1392.9 759.7 L 1396.2 756.2 L 1406.4 755.5 L 1410.5 752.3 L 1419.9 749 L 1419.5 755 L 1416 758.8 L 1417.4 762 L 1423.7 763.8 L 1420.9 768.2 L 1417.4 766.9 L 1409.1 775.3 L 1412.2 780.9 Z M 1440.7 767.8 L 1444.4 773.6 L 1437.4 783.1 L 1425.2 776.5 L 1423.6 771.7 L 1440.7 767.8 Z" />
<path class="neighbor" d="M 1224.9 793.9 L 1216.1 791.5 L 1208.9 791.7 L 1211.3 785.4 L 1208.9 779.2 L 1218.6 778.7 L 1231.1 785.9 L 1224.9 793.9 Z M 1260.9 799.3 L 1261 799.3 L 1262.7 792.5 L 1254.9 785.4 L 1254.7 785.2 L 1240.6 783.2 L 1237.8 780 L 1242 774.8 L 1238.2 771.6 L 1232 777.1 L 1231.3 765.9 L 1225.4 760 L 1229.6 748 L 1238.7 738.5 L 1247.9 739.5 L 1262 738.5 L 1249.5 751.1 L 1261.4 749.5 L 1274.1 749.5 L 1271.1 759 L 1260.6 769.4 L 1272.7 770.2 L 1273.6 771.4 L 1283.9 785.1 L 1291.9 787 L 1299 800.2 L 1302.4 804.8 L 1316.4 807 L 1315 814.4 L 1309.1 817.8 L 1313.7 823.9 L 1303.3 829.9 L 1287.7 829.8 L 1268 833 L 1262.5 830.7 L 1254.9 836.2 L 1244.1 834.9 L 1235.9 839.3 L 1229.8 837 L 1246.8 824.8 L 1257.2 822.3 L 1257.1 822.3 L 1239 820.3 L 1235.7 815.7 L 1247.8 812.1 L 1241.5 805.8 L 1243.7 798.2 L 1260.9 799.3 Z" />
<path class="neighbor" d="M 1128.3 647.6 L 1125.6 655.1 L 1138.7 663 L 1123.6 671.9 L 1090.1 679.9 L 1080.1 682 L 1064.8 680.3 L 1032.3 676.6 L 1043.8 671.5 L 1018.5 665.8 L 1039.1 663.5 L 1038.6 660.1 L 1014.2 657.4 L 1022 649.8 L 1039.6 648.1 L 1057.7 656 L 1075.4 649.7 L 1090 653 L 1109 646.8 L 1128.3 647.6 Z" />
<path class="neighbor" d="M 1559.1 849.5 L 1555.9 852.5 L 1553.6 857.2 L 1551.1 858.4 L 1538.7 854.8 L 1534.8 855.5 L 1532.1 858.3 L 1526.7 859.7 L 1525.4 859 L 1519.7 860.8 L 1515.1 861.1 L 1514.2 863.5 L 1504.4 864.9 L 1500.2 863.6 L 1494.2 860.7 L 1493.1 856.6 L 1494 855.2 L 1495.7 852.6 L 1500.8 852.8 L 1504.8 851.6 L 1505.1 850.5 L 1507.3 850 L 1508.1 847.3 L 1510.7 846.8 L 1512.5 844.7 L 1516 844.7 L 1516.7 845.4 L 1521.4 843.8 L 1527.3 847.9 L 1534.2 845.5 L 1539.7 846.6 L 1548 845 L 1559.1 849.5 Z" />
<path class="neighbor" d="M 1471.4 826 L 1476.9 829.7 L 1485.6 830.7 L 1484.9 833.9 L 1491.2 836.3 L 1493 833.3 L 1500.9 834.6 L 1502 838.3 L 1510.7 839 L 1516 844.7 L 1512.5 844.7 L 1510.7 846.8 L 1508.1 847.3 L 1507.3 850 L 1505.1 850.5 L 1504.8 851.6 L 1500.8 852.8 L 1495.7 852.6 L 1494 855.2 L 1488.7 853 L 1483.2 853.6 L 1474.2 850 L 1470.1 850.9 L 1463.5 855.6 L 1454.9 851.9 L 1448.4 846.9 L 1442.4 844.1 L 1441.2 839.2 L 1439.2 835.8 L 1447.6 833.2 L 1451.9 830.3 L 1460.3 828.1 L 1463.2 825.9 L 1466.2 827.2 L 1471.4 826 Z" />

<path class="country" d="M 753.4 459.6 L 792.4 452.7 L 833.2 453.2 L 848 448.9 L 889.1 447.8 L 981.9 449.3 L 1054.6 458.5 L 1033.2 463 L 988.7 463.5 L 926.1 464.6 L 932 466.7 L 973.1 465.4 L 1008.1 469.4 L 1030.7 465.8 L 1040.4 470 L 1027.6 476.8 L 1057.2 472.5 L 1113.6 467.9 L 1148.5 470.2 L 1155 475.2 L 1107.6 483.4 L 1101.1 486.1 L 1063.9 488.1 L 1090.8 488.7 L 1077.2 497.1 L 1067.9 504.7 L 1068.2 517.6 L 1082.2 525.2 L 1064 525.7 L 1044.9 529.4 L 1066.4 535.5 L 1069.1 545.4 L 1056.7 546.5 L 1071.7 556.5 L 1045.9 557.3 L 1059.4 562 L 1055.6 566.1 L 1039.2 567.9 L 1023 568 L 1037.6 575.8 L 1037.7 581 L 1014.7 576.2 L 1008.7 579.3 L 1024.4 582.2 L 1039.7 589.3 L 1044.1 598.7 L 1023.3 600.9 L 1014.4 596.4 L 1000 589.8 L 1004 597.7 L 990.5 603.8 L 1021.1 604.3 L 1037.1 604.9 L 1006 615 L 974.4 624.2 L 940.4 628.2 L 927.6 628.2 L 915.5 632.7 L 899.4 645 L 874.4 653.1 L 866.4 653.6 L 850.9 656.5 L 834.2 659.2 L 824.2 666.4 L 824.1 674.5 L 818.2 682.1 L 799.2 691.4 L 803.9 700.5 L 798.7 710.1 L 792.7 721.5 L 776.4 722.2 L 759.2 712.7 L 736 712.6 L 724.7 706.3 L 716.9 694.9 L 696.8 680.5 L 690.9 672.9 L 689.3 662.5 L 673.2 651.7 L 677.4 643.2 L 669.6 639.1 L 681.1 625.5 L 698.6 621.2 L 703.2 616.3 L 705.6 607.2 L 692.4 611.3 L 686 613.1 L 675.6 614.7 L 661.3 610.9 L 660.6 603 L 665.1 596.9 L 675.9 596.7 L 699.6 599.8 L 679.6 592.4 L 669.2 588.4 L 657.7 590 L 648 587.2 L 660.9 576.3 L 653.9 572 L 644.6 564 L 630.7 551.7 L 615.9 547.1 L 616 542.3 L 584.8 535.5 L 560.1 534.6 L 529.1 535.1 L 500.7 535.9 L 487.2 532.2 L 467 524.9 L 497.5 521.3 L 520.9 520.7 L 471.2 517.6 L 445 512.9 L 446.6 508.4 L 490.6 502.8 L 533.2 497.2 L 537.7 493 L 506.3 488.8 L 516.4 484.2 L 556.7 476.1 L 573.6 474.8 L 568.7 469.6 L 596.3 466.5 L 632 464.7 L 667.7 464.6 L 680.4 468.2 L 711.2 461.8 L 739 466.2 L 755.3 467.1 L 779.4 470.9 L 751.8 464.6 L 753.4 459.6 Z" />


<g class="city"><circle cx="1324.2414002974376" cy="852.118017071967" r="5" /><text x="1336.2414002974376" y="856.118017071967">Paris</text></g>
<g class="city"><circle cx="1295.514552587273" cy="821.3899041471833" r="5" /><text x="1307.514552587273" y="825.3899041471833">London</text></g>
<g class="city"><circle cx="1452.630544399146" cy="809.513774862515" r="5" /><text x="1464.630544399146" y="813.513774862515">Berlin</text></g>
<g class="city"><circle cx="1397.7190598222742" cy="837.6842190299476" r="5" /><text x="1409.7190598222742" y="841.6842190299476">Frankfurt</text></g>
<g class="city"><circle cx="1274.556003958195" cy="810.0582188613396" r="5" /><text x="1286.556003958195" y="814.0582188613396">Birmingham</text></g>
<g class="city"><circle cx="1270.7584477916857" cy="798.4543231985751" r="5" /><text x="1282.7584477916857" y="802.4543231985751">Manchester</text></g>
<g class="city"><circle cx="1413.0960579291177" cy="797.5634475911568" r="5" /><text x="1425.0960579291177" y="801.5634475911568">Hamburg</text></g>
<g class="city"><circle cx="1347.235093704293" cy="829.1383636350242" r="5" /><text x="1359.235093704293" y="833.1383636350242">Brussels</text></g>
<text class="map-title" x="80" y="105">Denmark Political Study Map</text>
<text class="map-subtitle" x="80" y="145">Capital: Copenhagen | Continent: Europe</text>
  <text class="footer" x="80" y="1036">Made with Natural Earth. Free vector and raster map data @ naturalearthdata.com.</text>
</svg>
