<?xml version="1.0" encoding="UTF-8"?>
<svg xmlns="http://www.w3.org/2000/svg" width="1600" height="1100" viewBox="0 0 1600 1100" role="img" aria-labelledby="title desc">
  <title id="title">Dominican Republic Physical Study Map</title>
  <desc id="desc">Made with Natural Earth. Free vector and raster map data @ naturalearthdata.com.</desc>
  <defs>
    <linearGradient id="terrain" x1="0" x2="1" y1="0" y2="1">
      <stop offset="0%" stop-color="#6c8c53" />
      <stop offset="42%" stop-color="#d5c487" />
      <stop offset="72%" stop-color="#b88b5f" />
      <stop offset="100%" stop-color="#f1f5ee" />
    </linearGradient>
    <filter id="softShadow" x="-10%" y="-10%" width="120%" height="120%">
      <feDropShadow dx="0" dy="10" stdDeviation="12" flood-color="#0f172a" flood-opacity="0.16" />
    </filter>
    <style>
      .neighbor { fill: #ffffff; stroke: #94a3b8; stroke-width: 1.2; opacity: 0.72; }
      .country { fill: url(#terrain); stroke: #1f2937; stroke-width: 4; filter: url(#softShadow); }
      .admin1 { fill: none; stroke: #64748b; stroke-width: 1.1; stroke-dasharray: 6 7; opacity: 0.75; }
      .river { fill: none; stroke: #1d9bd1; stroke-width: 3; stroke-linecap: round; opacity: 0.88; }
      .lake { fill: #8ed1ea; stroke: #0ea5e9; stroke-width: 1.5; opacity: 0.8; }
      .city circle { fill: #ef4444; stroke: #ffffff; stroke-width: 2; }
      .city text, .terrain-label { fill: #172033; font: 700 24px system-ui, sans-serif; paint-order: stroke; stroke: #ffffff; stroke-width: 5; stroke-linejoin: round; }
      .map-title { fill: #0f172a; font: 800 46px system-ui, sans-serif; }
      .map-subtitle { fill: #475569; font: 600 24px system-ui, sans-serif; }
      .footer { fill: #64748b; font: 500 18px system-ui, sans-serif; }
    </style>
  </defs>
  <rect width="100%" height="100%" fill="#d8edf0" />
  <rect x="40" y="40" width="1520" height="1020" rx="32" fill="#ffffff" opacity="0.54" />
  <path class="neighbor" d="M -9517.4 -5337.9 L -8961.5 -5337.9 L -8380.4 -5337.9 L -8188 -5337.9 L -7591.3 -5337.9 L -7013.8 -5337.9 L -6426.6 -5337.9 L -5839 -5337.9 L -5173.8 -5337.9 L -4504.1 -5338 L -4099 -5337.9 L -4098.4 -5413.1 L -4032.2 -5414.1 L -3997.4 -5306.6 L -3936.6 -5273.5 L -3799.9 -5261.4 L -3600 -5230.2 L -3410.2 -5169.6 L -3251.6 -5195 L -3010.9 -5144.1 L -2946.8 -5146 L -2771.7 -5201.5 L -2588 -5130.4 L -2396.6 -5054.7 L -2238.1 -4989.5 L -2086.2 -4926.9 L -2067.2 -4875.4 L -2021.1 -4856.1 L -2033.1 -4836.7 L -1980.6 -4830.7 L -1942.5 -4850.9 L -1932.7 -4804.6 L -1893.3 -4773.6 L -1839.5 -4773.6 L -1810.9 -4749.6 L -1835 -4714.8 L -1631 -4622.9 L -1589.3 -4445.3 L -1550.1 -4275.2 L -1607.4 -4159.5 L -1699.4 -4051.9 L -1742.4 -3983.3 L -1746.7 -3962.9 L -1724.8 -3935 L -1658.3 -3904.1 L -1609.2 -3904.1 L -1381.8 -4008.6 L -1180.1 -4039.4 L -924.1 -4136.7 L -920.3 -4156.6 L -937.9 -4216.3 L -969.6 -4254.7 L -881.2 -4285.8 L -688.9 -4286.6 L -509.2 -4286.5 L -446.6 -4362.8 L -422.1 -4378 L -215.3 -4519 L -126.9 -4555 L 170.4 -4556.4 L 531.1 -4556.5 L 550.7 -4604.8 L 613.4 -4614.7 L 696.6 -4645 L 766 -4734 L 825.8 -4886.3 L 975.1 -5034.1 L 1040.1 -4982.6 L 1171.3 -5015.9 L 1258.3 -4959.4 L 1258.1 -4692.5 L 1386.1 -4581.8 L 1419.9 -4517.7 L 1210.9 -4422.8 L 1009.7 -4355.3 L 803 -4297.3 L 699.4 -4181.1 L 666.2 -4137.1 L 664.3 -4033.3 L 728.9 -3929.5 L 810.1 -3924.6 L 789.5 -3996.1 L 848.3 -3952.6 L 832.6 -3896.7 L 700.5 -3864.9 L 606.4 -3868.7 L 461.7 -3834.6 L 376.5 -3824.8 L 262.7 -3815.1 L 99.5 -3758.5 L 387 -3795.3 L 445 -3758.2 L 171 -3699.5 L 46.3 -3699.1 L 52.1 -3723.2 L -7.5 -3668.9 L 50.1 -3659.9 L 7.8 -3519.3 L -134.6 -3368.6 L -149.1 -3418.9 L -192.1 -3429.1 L -256.3 -3478 L -215.6 -3372.6 L -167 -3337.8 L -164.1 -3263.8 L -226.9 -3187.7 L -337 -3031.4 L -354.8 -3039.2 L -294.3 -3172.4 L -394.3 -3247.2 L -417.2 -3409.8 L -455 -3325.2 L -413.2 -3201 L -542.5 -3231.7 L -407.8 -3168.6 L -399.4 -2982.4 L -343.2 -2968.9 L -322.9 -2901.1 L -295.4 -2705.3 L -419.8 -2560 L -622.3 -2502 L -751 -2387.1 L -848.7 -2374.6 L -947.8 -2302.7 L -975.8 -2237 L -1190.7 -2109.9 L -1301 -2016.8 L -1393.3 -1900.7 L -1423.4 -1761.6 L -1388.9 -1625.7 L -1323.5 -1458.2 L -1236.5 -1319.7 L -1235.4 -1235.1 L -1142.8 -1008 L -1148.9 -876 L -1157.5 -799.9 L -1206.3 -680.4 L -1264.8 -655.7 L -1361.1 -679.4 L -1392 -765.3 L -1466.4 -810.3 L -1570.2 -978.7 L -1661.2 -1128.4 L -1690.6 -1205 L -1650.4 -1334.9 L -1705.2 -1442.6 L -1857.8 -1606.3 L -1934.3 -1636.4 L -2131.7 -1547.5 L -2166.8 -1557.3 L -2261.8 -1648.6 L -2384.5 -1697 L -2605.7 -1672.4 L -2779.4 -1694.1 L -2928.7 -1680.6 L -3009.6 -1650.1 L -2974.4 -1598 L -2977.6 -1518.7 L -2936 -1480 L -2973.3 -1454.2 L -3045.9 -1483.1 L -3119.4 -1446 L -3261.5 -1452.1 L -3407.6 -1555.5 L -3578.3 -1531.1 L -3720.7 -1576.4 L -3842.5 -1562.7 L -4007.2 -1517 L -4185.4 -1371.8 L -4379.9 -1287.4 L -4486.8 -1194 L -4531.8 -1105.9 L -4533.8 -970.8 L -4524 -876.9 L -4486.8 -810.3 L -4563.1 -804.4 L -4702.1 -847.5 L -4854.8 -908.2 L -4909.6 -1000.2 L -4952.6 -1137.2 L -5068.1 -1248.8 L -5135.8 -1363.5 L -5234 -1497.5 L -5372 -1575.5 L -5532.1 -1571.8 L -5655.4 -1417.1 L -5817.8 -1475.9 L -5919 -1535 L -5967.7 -1642.6 L -6032.6 -1744.8 L -6149 -1830.9 L -6249 -1892.8 L -6320.4 -1962.2 L -6659.5 -1962.3 L -6659.9 -1881.5 L -6815.2 -1881.4 L -7204.4 -1880 L -7651 -2017.9 L -7946.6 -2113.1 L -7928.2 -2151.3 L -8176.8 -2130.1 L -8399.3 -2115 L -8432.2 -2215 L -8559 -2327.6 L -8650.4 -2351 L -8671.8 -2407.2 L -8781.6 -2417 L -8851.7 -2469.9 L -9033.5 -2489.2 L -9083.4 -2520.8 L -9107.2 -2628.2 L -9297.1 -2824.8 L -9460.2 -3097 L -9453.2 -3142.3 L -9539.6 -3207 L -9691.1 -3371 L -9718.1 -3530.6 L -9822.4 -3637.5 L -9779.5 -3799.7 L -9786.3 -3967.6 L -9848.8 -4117.6 L -9772.3 -4302.1 L -9748.5 -4479.7 L -9724.7 -4657.4 L -9760.1 -4919.9 L -9821.9 -5087.4 L -9879 -5178.3 L -9855.3 -5216.5 L -9572.2 -5150 L -9468 -4965.2 L -9419.5 -5016.9 L -9450.9 -5177.4 L -9517.4 -5337.9 Z M -15891.3 323.1 L -15856.5 340.1 L -15824.8 366.3 L -15774.9 434.9 L -15779.6 445.7 L -15856.1 487.5 L -15918.7 518.1 L -15947.3 550.9 L -15995.9 522.8 L -15990.3 468.1 L -16022.7 396.8 L -16013 375.1 L -15979 343.1 L -15992.5 304.7 L -15981.1 286.4 L -15966.2 290 L -15891.3 323.1 Z M -16007.5 189.1 L -16023.8 212.6 L -16089.4 226.7 L -16123.2 185.4 L -16145.7 169.5 L -16147.4 157.3 L -16128.2 140.5 L -16058.6 159.1 L -16007.5 189.1 Z M -16156.7 108.3 L -16162.8 129.5 L -16267.7 123.8 L -16253.1 100 L -16156.7 108.3 Z M -16404.7 2.6 L -16388.4 15.2 L -16331.9 79.9 L -16342.5 91.2 L -16356.5 88.7 L -16424.6 81.8 L -16449.5 37.4 L -16457.1 29.6 L -16404.7 2.6 Z M -16667.1 -94.9 L -16663.1 -49.3 L -16686.3 -29.9 L -16752.3 -65.6 L -16742.1 -79.8 L -16712.3 -99 L -16667.1 -94.9 Z M -18057.3 -7566.3 L -17902 -7548.6 L -17883.4 -7473.5 L -18003.5 -7443 L -18131.8 -7479.6 L -18250.6 -7532.8 L -18057.3 -7566.3 Z M -15465.9 -7093.5 L -15335.9 -7080.3 L -15253 -7019.6 L -15422.3 -6926.5 L -15617.8 -6851.9 L -15717.9 -6902.4 L -15748.2 -6994.1 L -15570.4 -7063.7 L -15465.9 -7093.5 Z M -13069.4 -9392.2 L -13069.4 -9392.2 L -13070.7 -8665.6 L -13071.7 -7551.1 L -12878.9 -7545.3 L -12688.3 -7491.1 L -12551.6 -7405.4 L -12377.7 -7276.8 L -12187.3 -7386.2 L -11990.8 -7449.6 L -11886.9 -7348.3 L -11755 -7268.2 L -11575.8 -7179.9 L -11453.4 -7039.5 L -11253.2 -6816.2 L -10920.5 -6691.6 L -10915 -6568.2 L -11023.9 -6473.8 L -11023.9 -6473.8 L -11023.9 -6473.8 L -11131.5 -6547.4 L -11304 -6609.8 L -11359.4 -6780.5 L -11611.7 -6938.9 L -11717.2 -7123.7 L -11905.2 -7136.4 L -12216.4 -7141.1 L -12445.8 -7197.5 L -12850.5 -7400.6 L -13037.9 -7437.8 L -13380.3 -7507.6 L -13651.3 -7490.9 L -14036.3 -7580.9 L -14269 -7664.3 L -14486.3 -7622.8 L -14445.9 -7486.9 L -14554.1 -7474.3 L -14780.6 -7433.5 L -14952.9 -7367.4 L -15169.8 -7325.9 L -15197.8 -7441.2 L -15109.8 -7633.2 L -14901.8 -7693.4 L -14955.4 -7742.5 L -15205 -7633.4 L -15338.5 -7503.2 L -15620.6 -7363.9 L -15477.4 -7268.9 L -15662.3 -7128.3 L -15872.8 -7046.3 L -16068.7 -6986.6 L -16117.2 -6899.9 L -16422.8 -6798.9 L -16484.6 -6707 L -16713.7 -6623.3 L -16848 -6638.3 L -17030.7 -6583.8 L -17229.3 -6517.1 L -17392.1 -6451.6 L -17728.1 -6395.7 L -17758.7 -6428.6 L -17544.6 -6520.1 L -17353.1 -6580.5 L -17144.5 -6687.6 L -16901.6 -6709.7 L -16805.1 -6789.9 L -16533.8 -6907.1 L -16490.1 -6946.3 L -16345.5 -7015.4 L -16311.8 -7163.9 L -16212.2 -7279.5 L -16437.9 -7220.1 L -16501.1 -7253.8 L -16607 -7182.6 L -16734.9 -7281.9 L -16787.6 -7211.7 L -16860.8 -7309.3 L -17056.5 -7230.9 L -17176.7 -7231.1 L -17193.6 -7347.6 L -17158.2 -7419.4 L -17284.2 -7489.1 L -17538.7 -7451.6 L -17703.9 -7543.5 L -17837.8 -7590.4 L -17838.7 -7701.3 L -17989.5 -7784.7 L -17913.8 -7897.3 L -17754.2 -8006.5 L -17684.4 -8107 L -17526 -8121.3 L -17391.7 -8090 L -17233.8 -8184.4 L -17091.7 -8167.6 L -16942.5 -8228.3 L -16978.9 -8317.7 L -17088.5 -8352.9 L -16943.5 -8428.4 L -17063.8 -8426.2 L -17271.5 -8383.6 L -17331.1 -8340.4 L -17485.5 -8383.5 L -17762.4 -8361.6 L -18049 -8408.5 L -18131.2 -8487.2 L -18378.9 -8601 L -18103.8 -8682.9 L -17667.2 -8778.4 L -17506.3 -8778.4 L -17532.9 -8680.7 L -17119.7 -8688.3 L -17278.6 -8809.5 L -17519.4 -8884.1 L -17658.6 -8982 L -17846.4 -9065.4 L -18115.4 -9127.3 L -18005.8 -9229.9 L -17658.6 -9236.3 L -17411.5 -9325.4 L -17364.9 -9420.8 L -17165 -9513.8 L -16974.3 -9536.2 L -16603.2 -9623.1 L -16423.2 -9610 L -16122 -9714.3 L -15825.8 -9673.2 L -15684.2 -9584.9 L -15597.3 -9622.8 L -15266.4 -9611 L -15278.2 -9566 L -14978.7 -9532.7 L -14779 -9552.3 L -14366.7 -9490.4 L -13990.2 -9472 L -13839.5 -9446.6 L -13579 -9478.4 L -13282.1 -9419.6 L -13069.4 -9392.2 L -13069.4 -9392.2 Z M -19087.7 -8231.5 L -18966.9 -8194.2 L -18844.9 -8214.4 L -18686.6 -8162.7 L -18492.2 -8136.6 L -18508.4 -8115.2 L -18656.6 -8073.8 L -18805.6 -8116.4 L -18880.2 -8151.9 L -19052.8 -8140.5 L -19099.3 -8157.8 L -19087.7 -8231.5 Z" />
<path class="neighbor" d="M 490.6 394.6 L 507.7 501.2 L 492.7 576.4 L 445 609.4 L 495.4 668.2 L 491.4 721.4 L 361.3 688.1 L 269 701.7 L 149.5 687.5 L 57.9 724.1 L -46.9 663.1 L -29.6 600 L 150.5 627.2 L 298.2 642.9 L 368.7 599.4 L 279.3 514.6 L 280.8 439.8 L 157.3 409.3 L 201.4 355.2 L 320.8 363.9 L 490.6 394.6 Z" />
<path class="neighbor" d="M 1553.4 629.4 L 1653.5 646.7 L 1688.8 685.6 L 1638.6 734.9 L 1491.3 733.7 L 1376.9 740.7 L 1365.5 656.9 L 1393.3 628.3 L 1553.4 629.4 Z" />
<path class="lake" d="M 530.4 638.2 L 525 645.2 L 511.2 647.8 L 474.7 633.4 L 477.9 626.2 L 496.2 622.3 L 515.7 629.6 L 530.4 638.2 L 530.4 638.2 L 530.4 638.2 Z" />
<path class="country" d="M 491.4 721.4 L 495.4 668.2 L 445 609.4 L 492.7 576.4 L 507.7 501.2 L 490.6 394.6 L 515 361.2 L 667.8 362.1 L 783.8 412.5 L 835.4 407.6 L 870.9 477 L 978 473.1 L 971.7 531.5 L 1058.8 538.5 L 1155 610.4 L 1082.3 690 L 989.2 647.5 L 899.3 655.7 L 835 646.4 L 799.7 682.1 L 724.5 694.1 L 694.7 646.6 L 630 674.7 L 551.7 808.8 L 501.3 777.6 L 491.4 721.4 Z" />

<path class="river" d="M 1810.3 11849.2 L 1883.5 11856.6 L 1923.8 11863.7 L 1955.6 11873.1 L 2002.4 11895.2 L 2064 11930.1 L 2106.6 11949.4 L 2130.2 11953.2 L 2154 11962.1 L 2178.2 11975.9 L 2211.9 11985.3 L 2255.3 11990.3 L 2290.6 12006.7 L 2331.3 12048.5 L 2337 12054.4 L 2342 12060 M 766.6 11161.1 L 782.1 11220.3 L 793.3 11246 L 811.6 11263.8 L 852.1 11273 L 872.3 11293.3 L 885.6 11327.8 L 890.2 11351.3 L 886.1 11363.8 L 885.8 11380 L 889.2 11399.9 L 885.6 11417.1 L 875.1 11431.6 L 867.9 11453 L 863.8 11481.4 L 865.6 11500 L 873.2 11508.7 L 884.6 11517 L 900 11524.7 L 930.9 11530.2 L 977.3 11533.4 L 1006.5 11543.1 L 1018.4 11559.3 L 1046.9 11571.2 L 1091.8 11578.8 L 1119.1 11587.3 L 1128.7 11596.7 L 1163.9 11605.4 L 1224.6 11613.2 L 1259.7 11625.1 L 1269.1 11640.9 L 1266.1 11656.8 L 1250.4 11672.6 L 1243.4 11685.8 L 1245 11696.3 L 1251.6 11702.8 L 1263.3 11705.5 L 1278 11715.9 L 1295.7 11734.1 L 1323 11741.2 L 1359.9 11737.4 L 1383.6 11744.6 L 1394.1 11762.9 L 1414.3 11777.2 L 1459.5 11793 L 1480.8 11802.2 L 1490.6 11811.3 L 1496 11823.3 L 1507 11830.8 L 1523.7 11834 L 1595.4 11836.8 L 1629.7 11840.9 L 1656.2 11848.3 L 1675.7 11850 L 1688 11845.8 L 1703.8 11846.8 L 1723 11853 L 1751.6 11854.3 L 1808.8 11849.2 M -7928.2 -2152.1 L -7941.3 -2120.8 L -7951.3 -2109 L -7962.7 -2106.1 L -7974.8 -2092.4 L -7987.6 -2067.8 L -8001 -2051.9 L -8014.9 -2044.6 L -8021.7 -2034.6 L -8021.1 -2021.7 L -8019.4 -2018.8 L -8016.6 -2019.1 L -8012.7 -2017.3 L -8007.4 -2007.9 L -8000.9 -2003.3 L -7989.7 -2003.6 L -7984.6 -1999.7 L -7979.1 -1994.1 L -7969.8 -1990.8 M -7819 -2451.3 L -7851.5 -2429.5 L -7868.9 -2411.7 L -7886.7 -2382.9 L -7883.9 -2359.6 L -7884.8 -2340.2 L -7889.1 -2324.9 L -7895.9 -2310.8 L -7905 -2298 L -7914.5 -2290.3 L -7924.4 -2287.8 L -7927.9 -2270.7 L -7924.9 -2239.2 L -7913.9 -2220 L -7894.8 -2213.2 L -7883.1 -2202.8 L -7878.8 -2188.8 L -7880.5 -2175.1 L -7888.1 -2161.5 L -7901 -2154.1 L -7928.1 -2152.1 M -7902.7 -2666.5 L -7906.5 -2597 L -7906.6 -2579.3 L -7896.2 -2557.3 L -7864.9 -2517.2 L -7861.2 -2507.6 M -7932.1 -2795.9 L -7930.4 -2790 L -7921.5 -2777 L -7920.9 -2756.7 L -7919.6 -2740.3 L -7914.3 -2731.3 L -7913.3 -2720.9 M -7567.1 -2848.1 L -7631.7 -2817.5 L -7649.1 -2802.6 L -7654.9 -2792.2 L -7654.5 -2761 L -7660.9 -2747 L -7673.9 -2746.7 L -7704.7 -2754.3 L -7715.7 -2760.1 M -7292.5 -2975.7 L -7315.4 -2959.5 L -7333.4 -2939.6 L -7354.1 -2910.5 L -7366.6 -2888.7 L -7370.8 -2874.3 L -7369.1 -2855.9 L -7361.4 -2833.5 L -7363.1 -2817.9 L -7374.2 -2809 L -7394.6 -2807.5 L -7424.3 -2813.2 L -7445.7 -2822.9 L -7458.6 -2836.5 L -7469.3 -2841.4 L -7477.7 -2837.5 L -7485.4 -2838 L -7492.5 -2842.9 L -7493.3 -2849.6 L -7487.7 -2858.3 L -7487 -2864.8 L -7491.3 -2869.3 L -7499.8 -2871.6 L -7512.5 -2871.8 L -7531.2 -2866 L -7568.1 -2848.1 M -6193.9 -3608.4 L -6218.2 -3601.1 L -6245.7 -3594.3 L -6276.8 -3594 L -6299.6 -3588.4 L -6315.4 -3579.8 L -6337.5 -3561.1 L -6346 -3555.5 L -6353.4 -3554.6 L -6363.2 -3560.6 L -6376.3 -3561.4 L -6392.7 -3557.1 L -6410.8 -3542.6 L -6430.8 -3517.7 L -6442.7 -3506.5 L -6462.9 -3498.4 L -6522.7 -3493.8 L -6560.4 -3493.8 L -6582.6 -3489.4 L -6601.6 -3480.6 L -6633.3 -3460.7 L -6660 -3442 L -6674 -3415.4 L -6697.4 -3399.9 L -6721.8 -3398 L -6769.4 -3416.5 L -6782.2 -3419.7 L -6798.9 -3419.3 L -6818.2 -3408.1 L -6846.6 -3386.9 L -6860.1 -3367.8 L -6868.3 -3343.6 L -6879.3 -3328.4 L -6893.3 -3322.2 L -6905.9 -3312.2 L -6917.2 -3298.5 L -6924.9 -3293.1 L -6928.5 -3294.6 L -6932.5 -3291.6 L -6935.2 -3279.7 L -6939.5 -3273.4 L -6945.4 -3272.5 L -6949.8 -3265.8 L -6952.9 -3253.2 L -6961.9 -3239.4 L -6984 -3217 L -7029.7 -3177.2 L -7052.7 -3164.1 L -7076 -3164.7 M -6190.8 -3655.3 L -6185.1 -3618.3 L -6186 -3612.4" />
<g class="city"><circle cx="839.4984917989761" cy="638.0454122760752" r="5" /><text x="851.4984917989761" y="642.0454122760752">Santo Domingo</text></g>
<g class="city"><circle cx="368.0980745589724" cy="623.9077335519795" r="5" /><text x="380.0980745589724" y="627.9077335519795">Port-au-Prince</text></g>
<g class="city"><circle cx="694.5943806312861" cy="436.57199044213183" r="5" /><text x="706.5943806312861" y="440.57199044213183">Santiago</text></g>
<text class="map-title" x="80" y="105">Dominican Republic Physical Study Map</text>
<text class="map-subtitle" x="80" y="145">Landmark: Zona Colonial | Study terrain and water systems</text>
  <text class="footer" x="80" y="1036">Made with Natural Earth. Free vector and raster map data @ naturalearthdata.com.</text>
</svg>
