<?xml version="1.0" encoding="UTF-8"?>
<svg xmlns="http://www.w3.org/2000/svg" width="1600" height="1100" viewBox="0 0 1600 1100" role="img" aria-labelledby="title desc">
  <title id="title">Algeria Physical Study Map</title>
  <desc id="desc">Made with Natural Earth. Free vector and raster map data @ naturalearthdata.com.</desc>
  <defs>
    <linearGradient id="terrain" x1="0" x2="1" y1="0" y2="1">
      <stop offset="0%" stop-color="#6c8c53" />
      <stop offset="42%" stop-color="#d5c487" />
      <stop offset="72%" stop-color="#b88b5f" />
      <stop offset="100%" stop-color="#f1f5ee" />
    </linearGradient>
    <filter id="softShadow" x="-10%" y="-10%" width="120%" height="120%">
      <feDropShadow dx="0" dy="10" stdDeviation="12" flood-color="#0f172a" flood-opacity="0.16" />
    </filter>
    <style>
      .neighbor { fill: #ffffff; stroke: #94a3b8; stroke-width: 1.2; opacity: 0.72; }
      .country { fill: url(#terrain); stroke: #1f2937; stroke-width: 4; filter: url(#softShadow); }
      .admin1 { fill: none; stroke: #64748b; stroke-width: 1.1; stroke-dasharray: 6 7; opacity: 0.75; }
      .river { fill: none; stroke: #1d9bd1; stroke-width: 3; stroke-linecap: round; opacity: 0.88; }
      .lake { fill: #8ed1ea; stroke: #0ea5e9; stroke-width: 1.5; opacity: 0.8; }
      .city circle { fill: #ef4444; stroke: #ffffff; stroke-width: 2; }
      .city text, .terrain-label { fill: #172033; font: 700 24px system-ui, sans-serif; paint-order: stroke; stroke: #ffffff; stroke-width: 5; stroke-linejoin: round; }
      .map-title { fill: #0f172a; font: 800 46px system-ui, sans-serif; }
      .map-subtitle { fill: #475569; font: 600 24px system-ui, sans-serif; }
      .footer { fill: #64748b; font: 500 18px system-ui, sans-serif; }
    </style>
  </defs>
  <rect width="100%" height="100%" fill="#d8edf0" />
  <rect x="40" y="40" width="1520" height="1020" rx="32" fill="#ffffff" opacity="0.54" />
  <path class="neighbor" d="M 537.1 596 L 537.1 597.7 L 536.6 602.6 L 536.5 641.2 L 452.9 639.9 L 453.8 705 L 429.9 707.3 L 423.7 720.4 L 428.5 757.2 L 328.7 757 L 323.2 765.5 L 324.3 754.8 L 324.7 754.8 L 382.1 752.8 L 385.1 743.6 L 395.6 732.2 L 404 697 L 439.4 669.5 L 451.4 637.4 L 459.3 635.5 L 467.6 615.7 L 489.1 612.9 L 498.3 616.2 L 509.8 616.2 L 518 610.5 L 533.8 609.6 L 533.2 596 L 537.1 596 Z" />
<path class="neighbor" d="M 1383.5 1090.8 L 1364.1 1079.7 L 1355.3 1072.3 L 1353.6 1064.4 L 1357.8 1053.8 L 1357.7 1043.4 L 1343 1027.5 L 1340.1 1016.6 L 1340.4 1010.4 L 1331.1 1002.9 L 1330.8 988.1 L 1325.4 978.3 L 1316.5 979.8 L 1319.1 970.4 L 1325.7 959.8 L 1322.8 949.2 L 1331.1 941.4 L 1325.8 935.5 L 1332.6 919.8 L 1344.2 901 L 1366.2 902.8 L 1364.9 801.7 L 1365.2 791 L 1394.5 790.9 L 1394.5 740.1 L 1496.9 740.1 L 1595.7 740.1 L 1696.7 740.1 L 1705 765 L 1699.4 769.7 L 1703.1 795.9 L 1712.4 826.3 L 1722.1 832.6 L 1736.1 842 L 1723.2 856.5 L 1704.4 860.7 L 1696.4 868.5 L 1693.9 885.4 L 1682.9 922.9 L 1685.6 933.1 L 1681.6 954.9 L 1671.2 980 L 1655.8 992.6 L 1644.9 1012.1 L 1642.4 1022.5 L 1630.3 1029.6 L 1622.8 1056.3 L 1623.1 1079.2 L 1622.8 1059.3 L 1619.3 1058.8 L 1619.7 1046.1 L 1616.7 1037.4 L 1603.5 1027.3 L 1600.5 1009 L 1603.5 990.2 L 1591.7 988.4 L 1590 994.1 L 1574.7 995.4 L 1580.8 1002.9 L 1583 1018.2 L 1569 1032.2 L 1556.3 1050.5 L 1543.2 1053.1 L 1521.8 1038.3 L 1512.2 1043.5 L 1509.5 1051 L 1496.4 1055.8 L 1495.5 1061 L 1470.2 1061 L 1466.7 1055.8 L 1448.3 1054.9 L 1439.1 1059.3 L 1432.1 1057.1 L 1419 1042.2 L 1414.7 1035.2 L 1396.3 1038.7 L 1389.3 1050.5 L 1382.7 1073.3 L 1374 1078.1 L 1366.2 1080.8 L 1383.5 1090.8 Z" />
<path class="neighbor" d="M 1364.9 801.7 L 1366.2 902.8 L 1344.2 901 L 1332.6 919.8 L 1325.8 935.5 L 1331.1 941.4 L 1322.8 949.2 L 1325.7 959.8 L 1319.1 970.4 L 1316.5 979.8 L 1325.4 978.3 L 1330.8 988.1 L 1331.1 1002.9 L 1340.4 1010.4 L 1340.1 1016.6 L 1324 1020.9 L 1311.1 1031.2 L 1292.7 1059 L 1268.7 1070.8 L 1244.1 1069.2 L 1236.9 1071.6 L 1239.4 1080.6 L 1226.2 1089.5 L 1215.3 1099.4 L 1183.3 1109.1 L 1176.9 1103.4 L 1172.7 1102.9 L 1168 1109.4 L 1146.9 1111.3 L 1150.9 1104.4 L 1142.9 1086.9 L 1139.3 1076.3 L 1128.2 1072 L 1113.2 1057.2 L 1118.7 1045.1 L 1130.3 1047.7 L 1137.5 1045.9 L 1151.7 1046.1 L 1137.9 1023 L 1138.8 1006.1 L 1137.1 989.2 L 1127 972.9 L 1129.5 960.9 L 1113.2 960.3 L 1113.2 943.9 L 1102.6 934.5 L 1113.6 900.9 L 1146.1 876.9 L 1147.5 843.8 L 1157.3 792.1 L 1162.8 781.1 L 1152.2 772.4 L 1151.8 764.3 L 1142.3 757.7 L 1136 718.1 L 1161.7 704.1 L 1263.3 752.9 L 1364.9 801.7 Z" />
<path class="neighbor" d="M 5309.8 -510.5 L 5342.2 -521.1 L 5342.2 -503.7 L 5314.3 -502.4 L 5309.8 -510.5 Z M 2008.4 118.6 L 1996.7 133.7 L 1972.1 137.9 L 1946.7 164.2 L 1969.9 188.4 L 1967.4 205.5 L 1995.2 235.5 L 1995.2 235.5 L 1980 245.8 L 1975.6 252.3 L 1964.3 250.5 L 1946.8 235.1 L 1939.7 234.2 L 1923.7 228.3 L 1915.9 217.9 L 1892.1 212.5 L 1876.7 216.5 L 1872.2 211.8 L 1837.5 199.6 L 1800 195.5 L 1778.5 191.1 L 1775.4 194.1 L 1742.9 172.6 L 1713.9 163 L 1691.9 148 L 1710.4 144 L 1731.5 122.7 L 1717.3 112.6 L 1754.8 102.2 L 1754.2 96.6 L 1731.3 100.7 L 1732.1 89.4 L 1745.2 82.3 L 1769.9 80.4 L 1773.9 71.9 L 1768.3 57.9 L 1778.6 44.6 L 1778.3 37.1 L 1740.8 28.8 L 1725.9 29.1 L 1710.2 17.1 L 1690.6 21.2 L 1658.3 12.2 L 1658.8 7.2 L 1649.8 -3.8 L 1629.5 -5.1 L 1627.4 -13 L 1633.7 -18.1 L 1617.4 -32.6 L 1591 -30.1 L 1583.3 -31.4 L 1576.9 -25.6 L 1567.3 -26.6 L 1567.3 -26.6 L 1561.1 -42.9 L 1555.1 -51.4 L 1560 -53.8 L 1580.6 -52.9 L 1590.5 -58.4 L 1583.1 -65.2 L 1566 -69.7 L 1567.5 -74.3 L 1557.1 -79 L 1541.2 -95.6 L 1546.6 -102.5 L 1544.1 -114.5 L 1519.2 -120.5 L 1505.9 -117.5 L 1502.2 -123.8 L 1475.4 -130.2 L 1467.2 -145.2 L 1465.1 -157.6 L 1452.8 -163.5 L 1463.7 -171.5 L 1456.2 -195.3 L 1474.3 -210 L 1470.4 -214.4 L 1470.4 -214.4 L 1499.4 -228.5 L 1472.7 -240.6 L 1472.7 -240.6 L 1527.2 -273.1 L 1550.9 -287.8 L 1560.5 -300.8 L 1522.8 -318.3 L 1533.2 -334.9 L 1510.3 -353.8 L 1527.4 -375.7 L 1497.8 -404.6 L 1521.3 -423.8 L 1482.3 -440.8 L 1486 -458.6 L 1506.6 -461 L 1549.9 -471.2 L 1549.9 -471.2 L 1576.2 -480.1 L 1618 -464.7 L 1687.8 -458.6 L 1784 -429.8 L 1803.5 -417.7 L 1805.2 -400.8 L 1777 -387.4 L 1735.4 -380.6 L 1621.7 -399.9 L 1603 -396.7 L 1644.5 -378 L 1646.1 -366.2 L 1647.8 -340.2 L 1680.6 -332.4 L 1700.5 -325.8 L 1703.8 -338.2 L 1688.4 -349.1 L 1704.6 -358.8 L 1766.2 -342.9 L 1787.6 -349.1 L 1770.5 -367.8 L 1829.9 -392.7 L 1853.4 -391.3 L 1877.1 -382.4 L 1892 -399.9 L 1870.7 -415 L 1883.2 -430.3 L 1864.5 -446.1 L 1935.7 -437.9 L 1950.3 -423.6 L 1918 -420.5 L 1918.2 -406.3 L 1938.3 -397.6 L 1977.6 -403.1 L 1983.8 -419.4 L 2037 -431.5 L 2125.9 -453.4 L 2145.1 -452.1 L 2120 -436.7 L 2151.6 -434 L 2169.9 -442.7 L 2217.6 -443.4 L 2255.4 -454 L 2284.4 -438.6 L 2313.4 -455.5 L 2286.7 -470.2 L 2299.9 -478.6 L 2375.2 -470.9 L 2410.4 -463 L 2502.7 -433.9 L 2519.8 -447.2 L 2493.9 -460.7 L 2493.1 -466.1 L 2462.4 -468.6 L 2470.8 -480.7 L 2457.2 -500.5 L 2456.4 -508.7 L 2503.4 -531.7 L 2520.2 -554.9 L 2539.1 -559.9 L 2606.5 -553.2 L 2611.8 -539 L 2587.7 -518.4 L 2603.5 -510.2 L 2611.7 -492.4 L 2605.9 -457.5 L 2634 -441.9 L 2623.1 -424.9 L 2573.2 -388.7 L 2602.3 -385 L 2612.5 -394.2 L 2640.5 -400.7 L 2647.3 -413.3 L 2669.3 -425.4 L 2654.5 -439.9 L 2666.3 -456.7 L 2638.5 -458.8 L 2632.4 -473 L 2652.7 -498.6 L 2619.6 -519.3 L 2665.2 -536.5 L 2659.3 -554.6 L 2672 -555.2 L 2685.4 -541.1 L 2675.3 -516.5 L 2702.6 -511.8 L 2691 -530.2 L 2733.6 -540.2 L 2786.5 -541.6 L 2833.5 -527 L 2810.9 -548.3 L 2808.3 -575.4 L 2852.6 -580.5 L 2913.9 -579.4 L 2969.1 -582.7 L 2948.4 -596.1 L 2977.9 -612.8 L 3007.1 -613.5 L 3056.6 -626.1 L 3123.9 -629.5 L 3132.4 -636.5 L 3199.3 -638.9 L 3220.1 -633.1 L 3277.3 -646.7 L 3324.1 -646.2 L 3331.1 -657.2 L 3355.4 -668.1 L 3415.5 -678.5 L 3459.2 -670.3 L 3424.5 -664 L 3482.2 -660.1 L 3489.1 -647.5 L 3512.4 -653.7 L 3586.8 -653.4 L 3644.2 -640.9 L 3664.7 -631.4 L 3658.4 -618.2 L 3630.2 -610.6 L 3563.2 -596.5 L 3544.1 -588.9 L 3575.7 -585.4 L 3613.4 -578.9 L 3636.3 -583.8 L 3649.3 -567.4 L 3660.5 -574 L 3701.2 -578.1 L 3782.9 -573.8 L 3789.1 -561.9 L 3895.6 -558.1 L 3897.1 -577.6 L 3951.1 -573.1 L 3991.8 -573.3 L 4032.9 -559.9 L 4044.6 -543.6 L 4029.6 -532.9 L 4061.5 -512.9 L 4101.6 -502.5 L 4126.2 -529.2 L 4167 -517.8 L 4210.4 -524.6 L 4259.7 -516.8 L 4278.5 -523.9 L 4320.2 -520.4 L 4301.8 -544 L 4335.4 -555 L 4565.4 -538.5 L 4587.1 -523.4 L 4653.8 -503.9 L 4756.6 -508.7 L 4807.3 -504.5 L 4828.5 -494 L 4825.4 -475.4 L 4856.8 -468.1 L 4890.9 -473.4 L 4936.1 -474 L 4984.2 -469 L 5032.4 -471.8 L 5076.8 -449.2 L 5108.4 -457.3 L 5087.8 -473.6 L 5099.1 -484.9 L 5180.4 -477.8 L 5233.3 -479.3 L 5306.6 -467.2 L 5342.2 -456.1 L 5342.2 -354.6 L 5342.1 -354.5 L 5309.3 -343.3 L 5276.3 -345.1 L 5299.3 -331.6 L 5314.4 -310.6 L 5326.2 -303.7 L 5329.2 -293.2 L 5322.6 -286.5 L 5275.1 -292 L 5203.9 -272.8 L 5181.3 -269.9 L 5142.3 -252 L 5105.3 -236.3 L 5096 -224.8 L 5059.5 -242.4 L 4993.2 -222.4 L 4981.6 -231.9 L 4957.1 -220.9 L 4923 -224.4 L 4914.8 -207.7 L 4884.2 -183 L 4885.1 -172.7 L 4914.2 -167 L 4910.7 -130 L 4887.1 -129 L 4876.2 -107.7 L 4886.8 -96.7 L 4842.3 -83.7 L 4833.4 -54.7 L 4795.4 -48.4 L 4787.8 -22.6 L 4751.1 1.2 L 4741.7 -16.4 L 4730.8 -53.5 L 4716.6 -110.1 L 4728.8 -145.5 L 4750.3 -160.7 L 4751.6 -172.6 L 4791.2 -178.3 L 4836.7 -210.3 L 4880.5 -236.5 L 4926.3 -256.8 L 4946.8 -292.7 L 4915.8 -290.6 L 4900.6 -269.6 L 4836 -241.6 L 4815.1 -273 L 4749.3 -264.3 L 4685.6 -221.6 L 4706.6 -206 L 4649.8 -199.3 L 4610.4 -196.7 L 4612.2 -215.1 L 4572.7 -219 L 4541.1 -206.5 L 4463.2 -210.9 L 4379.5 -203.3 L 4296.9 -153.6 L 4199.3 -93.5 L 4239.5 -90.3 L 4252 -74.4 L 4276.7 -68.7 L 4293 -81.4 L 4321 -79.8 L 4357.7 -51.8 L 4358.6 -30.1 L 4338.7 -4.7 L 4336.5 25.8 L 4325.1 66.5 L 4286.7 103.3 L 4278.1 120.9 L 4243.6 150.6 L 4209.3 180 L 4192.8 195.1 L 4158.9 210 L 4142.8 210.3 L 4126.8 198 L 4092.6 216.6 L 4088.6 225.1 L 4088.6 225.1 L 4088.6 225.1 L 4088.6 225.1 L 4085.1 220.6 L 4085.1 220.6 L 4084.9 207.7 L 4097.9 207 L 4101.6 176.9 L 4094.9 155.1 L 4116.8 146.1 L 4147.7 150.6 L 4164.8 125.8 L 4173.5 97.9 L 4183.4 88.6 L 4196.8 65.7 L 4154.7 73.2 L 4132.6 83.2 L 4093.9 83.2 L 4083.6 59.3 L 4053.4 41.2 L 4009.1 33 L 3999.7 8.1 L 3990.8 -7.6 L 3981.3 -18.5 L 3965.5 -44.2 L 3943.2 -53.6 L 3905.1 -61.2 L 3871.3 -60.5 L 3839.6 -55.9 L 3818.6 -43.2 L 3832.6 -37.2 L 3832.9 -23.1 L 3818.7 -14.9 L 3795.7 12.1 L 3796 23.3 L 3760.1 39.4 L 3729.5 29.8 L 3699.1 31.9 L 3685.8 23.3 L 3670.5 20.6 L 3633.2 38.5 L 3599.7 42.8 L 3576.3 49.1 L 3544.2 44.9 L 3520.6 45.2 L 3505.1 32.2 L 3480.2 19.9 L 3454.6 16.6 L 3422.4 19.9 L 3398.3 24.6 L 3362.2 13.9 L 3357.3 -5.2 L 3327.4 -11.7 L 3304.2 -14.7 L 3275.7 -25.2 L 3249.3 1.2 L 3259.7 16.2 L 3234.9 33.9 L 3198.1 27.5 L 3172.7 26.6 L 3155.6 14.7 L 3129.1 14.3 L 3106.9 6.5 L 3068.2 18.5 L 3019.6 40.4 L 2992.7 44.8 L 2982.8 46.9 L 2969.3 31.3 L 2936.5 34.7 L 2925.6 23.9 L 2907.8 19 L 2895.5 4.3 L 2881.5 -0.3 L 2844.9 6.2 L 2809.8 -8.4 L 2796.2 4.9 L 2739.3 -59.8 L 2706.8 -79.5 L 2716.1 -87.5 L 2652.3 -63.4 L 2627.9 -62 L 2630 -75.9 L 2597.3 -84.6 L 2570.7 -78.4 L 2562.7 -104.8 L 2516.9 -110.2 L 2494 -99.7 L 2430.3 -90.3 L 2417.8 -84 L 2322.5 -75.1 L 2310.8 -66.4 L 2329.2 -49 L 2304.8 -42.4 L 2309.6 -35.4 L 2285.1 -23 L 2326.4 -5.5 L 2320 6.6 L 2284.2 5.5 L 2276.8 13 L 2244.3 -0.2 L 2203.9 0.3 L 2176.9 11.1 L 2146.7 0.8 L 2090.6 -16.9 L 2050.8 -16.2 L 1998.2 11.5 L 1995 30.1 L 1968.8 15.3 L 1948.5 43.3 L 1955.9 48.5 L 1941.2 67.8 L 1962.9 85.1 L 1981.8 84.4 L 1998 101.4 L 1995.4 114.5 L 2008.4 118.6 Z M 3146.2 -763.3 L 3201.3 -769 L 3250.8 -756.2 L 3309.5 -731.6 L 3303.2 -708.7 L 3247.6 -705.5 L 3176.7 -712.8 L 3134.4 -722.6 L 3114.8 -740.8 L 3080.1 -745.9 L 3146.2 -763.3 Z M 3377 -718.9 L 3441.5 -704.4 L 3434 -694 L 3290.4 -684.2 L 3336.9 -717.7 L 3357.8 -720.5 L 3377 -718.9 Z M 4293.7 -638.8 L 4361 -637.7 L 4453 -624.1 L 4433 -605.2 L 4339.1 -605.9 L 4296.9 -599.9 L 4246.4 -616.5 L 4260.1 -634 L 4293.7 -638.8 Z M 4532.9 -618.6 L 4596.8 -612 L 4567.4 -601.9 L 4526.7 -604.2 L 4479.3 -614.2 L 4485.4 -622.5 L 4532.9 -618.6 Z M 4320 -568.3 L 4344.1 -578.4 L 4376 -580.7 L 4412.2 -571 L 4415.3 -564.3 L 4376.6 -564.1 L 4324.4 -566.9 L 4320 -568.3 Z M 1900 -752.2 L 1949.7 -756.8 L 1988.4 -757.1 L 1993.6 -750.3 L 2008.3 -756.4 L 2032.3 -760.6 L 2070 -755 L 2060.2 -751.1 L 2026 -747.7 L 2003.1 -745.8 L 1999.5 -741.6 L 1969.8 -737.4 L 1942.2 -743.5 L 1956.7 -751.4 L 1900 -752.2 Z M 1336.7 -83.3 L 1289.9 -82.9 L 1258.5 -85.8 L 1264.3 -97 L 1299.5 -105.3 L 1326.1 -100.8 L 1337.4 -96.8 L 1334.7 -89.8 L 1336.7 -83.3 Z M 2120.6 -578 L 2181.6 -600.3 L 2174.7 -611.9 L 2231.7 -625.3 L 2315.7 -641.7 L 2400.5 -646.5 L 2444.1 -655.9 L 2493.7 -659.2 L 2511.4 -649.2 L 2494.3 -641.2 L 2404 -628.6 L 2326.3 -616.5 L 2247.1 -592.2 L 2209.2 -567.4 L 2169.3 -542.9 L 2174.5 -521.7 L 2223.2 -500.8 L 2208.1 -498.6 L 2124.9 -501.9 L 2118.1 -513.2 L 2072 -520 L 2068.3 -533.8 L 2094.4 -539.3 L 2093.5 -553.1 L 2144 -574.9 L 2120.6 -578 Z M 4397.7 -67.4 L 4406.5 -42.9 L 4405.9 -17.8 L 4416.4 7.9 L 4442 53 L 4404.3 44.6 L 4388.6 81.4 L 4413.5 107.5 L 4412.8 125.3 L 4393.5 109.9 L 4376.8 129.6 L 4372 108.3 L 4374.9 83.5 L 4372 56 L 4377.9 36.7 L 4379 2.7 L 4364.1 -22.4 L 4366.3 -57.2 L 4389.9 -68.9 L 4379.8 -80.7 L 4391.1 -84.3 L 4397.7 -67.4 Z M -3697.5 -411.3 L -3699.7 -395.5 L -3682.5 -389.1 L -3688.4 -407.6 L -3619.3 -403.8 L -3569.4 -380 L -3594.7 -368.9 L -3636.4 -366.3 L -3637.1 -341.4 L -3647.3 -336.1 L -3671.1 -336.9 L -3690.5 -345.7 L -3724.4 -353.2 L -3730.1 -364.2 L -3755.9 -368.4 L -3784.9 -365.1 L -3798.7 -374 L -3793.2 -383.4 L -3823.7 -377.4 L -3812.2 -365.4 L -3826.7 -354.6 L -3826.7 -456.1 L -3764.3 -436.6 L -3697.5 -411.3 Z M -3793.4 -505.2 L -3826.7 -503.7 L -3826.7 -521.1 L -3823.4 -522.1 L -3801.8 -522.1 L -3765 -514.8 L -3767.2 -511.3 L -3793.4 -505.2 Z M 1609.4 129.5 L 1616.1 123.2 L 1634.2 128.7 L 1642.4 129.7 L 1645.7 134.7 L 1649.5 135.5 L 1649.7 137.7 L 1662.2 143.8 L 1688.2 142.3 L 1683.2 151.4 L 1655.3 155.8 L 1620.7 170.5 L 1606.6 165.3 L 1612.2 153.4 L 1584.4 145.9 L 1588.9 141 L 1613.2 132.6 L 1609.4 129.5 Z" />
<path class="neighbor" d="M -557.9 1194.5 L -573 1217.8 L -580.8 1236.6 L -590.5 1246.3 L -602.7 1248.1 L -606.2 1240.9 L -611.9 1239.8 L -619.8 1246.7 L -630.9 1241.5 L -624.4 1230.8 L -622.2 1219.1 L -617.7 1208.2 L -627.7 1193.1 L -629.7 1175.7 L -616.5 1153.8 L -607.8 1156.6 L -589.1 1162.6 L -562.1 1184.1 L -557.9 1194.5 Z M 915.3 40.6 L 927.4 47.2 L 964.1 51.9 L 951.2 69.4 L 948 87.5 L 941 91.9 L 929.4 89.5 L 930.2 96 L 911.6 110.3 L 911.2 121.8 L 923.3 117.8 L 932.1 129 L 931 136.2 L 938.5 145.8 L 929.7 153.5 L 936.3 173.2 L 950.1 176.5 L 947.2 187.5 L 924.1 201.9 L 873.8 195 L 836.7 203.3 L 833.8 218.6 L 804.3 221.9 L 775.7 210.4 L 766.4 215.9 L 719.5 204.3 L 709.4 194.4 L 722.5 179.2 L 727.4 128.4 L 701.1 101.7 L 682.3 88.8 L 643.4 79 L 640.8 60.4 L 673.8 54.9 L 716.6 61.4 L 708.5 32.6 L 732.6 43.5 L 791.9 23.7 L 799.5 2.8 L 821.8 -2.3 L 825.5 6.6 L 837.3 7 L 849.2 17.3 L 866.9 29.3 L 880 27.3 L 902.3 38.9 L 908 41.1 L 915.3 40.6 Z M 980.5 214.7 L 996.9 204.9 L 1001.3 226.8 L 992.9 246.5 L 981.3 241.3 L 975.4 224.1 L 980.5 214.7 Z" />
<path class="neighbor" d="M 332.1 954.1 L 321.6 934.3 L 308.9 925.2 L 320.1 920.4 L 332.4 902.5 L 338.5 889.4 L 347.2 881.3 L 359.9 883.5 L 372.3 877.9 L 386.5 877.6 L 398.7 885.1 L 415.6 891.9 L 431 910.6 L 447.8 928.1 L 449 943.9 L 454 958.5 L 463.5 965.7 L 465.7 975.5 L 464.5 983.5 L 460.9 984.9 L 447 982.9 L 445.1 985.7 L 439.4 986.3 L 421.1 980.1 L 408.8 979.8 L 361.8 978.7 L 354.9 981.6 L 346.5 980.8 L 333 984.9 L 328.8 965.4 L 352 966 L 358.1 962.4 L 362.7 962.2 L 372.1 956.3 L 383.1 961.7 L 394.1 962.1 L 405.2 956.4 L 400 949.1 L 391.6 953.3 L 383.7 953.2 L 373.7 947 L 365.6 947.4 L 359.8 953.4 L 332.1 954.1 Z" />
<path class="neighbor" d="M 464.5 983.5 L 465.7 975.5 L 463.5 965.7 L 454 958.5 L 449 943.9 L 447.8 928.1 L 456.4 923.5 L 460.7 908.5 L 468.7 907.9 L 486.5 915 L 500.9 909.9 L 510.7 911.6 L 514.5 905.9 L 616.7 905.6 L 622.4 887.7 L 618 884.6 L 605.7 774.7 L 593.4 664.8 L 632.4 664.3 L 718.3 719.9 L 804.2 775.4 L 810.3 787.4 L 826.1 794.7 L 837.9 798.8 L 838.2 815 L 866.5 812.5 L 866.5 871.2 L 852.6 888.2 L 850.4 903.9 L 827.8 907.9 L 793.1 910.1 L 783.7 919.1 L 767.3 920.1 L 751 920.3 L 744.6 915.4 L 730.6 919 L 706.8 929.6 L 702 937.5 L 682.2 948.9 L 678.7 955.5 L 668.1 960.7 L 655.7 957.2 L 648.8 963.5 L 645 980.9 L 624.8 1002 L 625.4 1010.7 L 618.5 1021.5 L 620.1 1036.2 L 609.6 1040 L 603.7 1043.2 L 599.7 1032.3 L 592.4 1035.2 L 588 1034.7 L 583.3 1042.1 L 563.6 1041.9 L 556.6 1038.1 L 553.3 1040.4 L 545.5 1033.1 L 546.8 1025.5 L 543.7 1022.5 L 538.2 1025 L 539.2 1016.7 L 544.4 1010.2 L 534 999.5 L 531 992.5 L 525.3 986.9 L 520.2 986.2 L 514.1 989.8 L 505.9 993.2 L 498.9 998.7 L 488 996.7 L 480.9 990.2 L 476.7 989.4 L 470 992.8 L 466 992.8 L 464.5 983.5 Z" />
<path class="neighbor" d="M 323.2 765.5 L 328.7 757 L 428.5 757.2 L 423.7 720.4 L 429.9 707.3 L 453.8 705 L 452.9 639.9 L 536.5 641.2 L 536.6 602.6 L 632.4 664.3 L 593.4 664.8 L 605.7 774.7 L 618 884.6 L 622.4 887.7 L 616.7 905.6 L 514.5 905.9 L 510.7 911.6 L 500.9 909.9 L 486.5 915 L 468.7 907.9 L 460.7 908.5 L 456.4 923.5 L 447.8 928.1 L 431 910.6 L 415.6 891.9 L 398.7 885.1 L 386.5 877.6 L 372.3 877.9 L 359.9 883.5 L 347.2 881.3 L 338.5 889.4 L 336.3 875.7 L 343.4 863.1 L 346.5 839.2 L 343.7 814 L 340.7 801.3 L 343.2 788.6 L 336.6 776.5 L 323.2 765.5 Z" />
<path class="neighbor" d="M 826.3 1141 L 805.3 1143.9 L 799 1126.4 L 800.2 1067.9 L 795 1062.6 L 794.1 1050.1 L 785.2 1041.2 L 777.5 1033.7 L 780.7 1020.3 L 789.5 1017.4 L 794.6 1006.3 L 807.1 1003.9 L 812.7 996.3 L 821.2 988.8 L 830.3 988.7 L 849.8 1003.4 L 848.8 1011.9 L 854.5 1027 L 849.5 1037.2 L 852.2 1044.1 L 839.8 1059.8 L 832 1067.6 L 827.2 1083.7 L 827.8 1099.9 L 826.3 1141 Z" />
<path class="neighbor" d="M 1136 718.1 L 1142.3 757.7 L 1151.8 764.3 L 1152.2 772.4 L 1162.8 781.1 L 1157.3 792.1 L 1147.5 843.8 L 1146.1 876.9 L 1113.6 900.9 L 1102.6 934.5 L 1113.2 943.9 L 1113.2 960.3 L 1129.5 960.9 L 1127 972.9 L 1119.8 974.3 L 1119 982.4 L 1114.2 983 L 1097 955.1 L 1091 954.1 L 1071.1 968.3 L 1051.4 960.9 L 1037.7 959.4 L 1030.3 963 L 1015.4 962.2 L 1000.4 973.1 L 987.4 973.7 L 956.6 960.5 L 944.5 966.8 L 931.5 966.3 L 921.9 956.7 L 896.4 947.2 L 869 950.2 L 862.4 955.7 L 858.8 970.4 L 851.5 980.7 L 849.8 1003.4 L 830.3 988.7 L 821.2 988.8 L 812.7 996.3 L 813.2 978.8 L 783.9 973.1 L 783.1 960.7 L 768.7 944.1 L 765.3 932.5 L 767.3 920.1 L 783.7 919.1 L 793.1 910.1 L 827.8 907.9 L 850.4 903.9 L 852.6 888.2 L 866.5 871.2 L 866.5 812.5 L 902.4 801.1 L 976.1 751.1 L 1063.4 702.6 L 1103.7 713.6 L 1118 727.5 L 1136 718.1 Z" />
<path class="neighbor" d="M 826.3 1141 L 827.8 1099.9 L 827.2 1083.7 L 832 1067.6 L 839.8 1059.8 L 852.2 1044.1 L 849.5 1037.2 L 854.5 1027 L 848.8 1011.9 L 849.8 1003.4 L 851.5 980.7 L 858.8 970.4 L 862.4 955.7 L 869 950.2 L 896.4 947.2 L 921.9 956.7 L 931.5 966.3 L 944.5 966.8 L 956.6 960.5 L 987.4 973.7 L 1000.4 973.1 L 1015.4 962.2 L 1030.3 963 L 1037.7 959.4 L 1051.4 960.9 L 1071.1 968.3 L 1091 954.1 L 1097 955.1 L 1114.2 983 L 1119 982.4 L 1129.1 992.6 L 1126.3 997.2 L 1124.9 1005.6 L 1103.5 1025.3 L 1096.7 1041.6 L 1093.2 1054.8 L 1087.7 1060.5 L 1082.6 1078.3 L 1069 1088.8 L 1065 1101.7 L 1059.3 1112 L 1056.9 1122.6 L 1039.4 1131.1 L 1025.1 1120.7 L 1015.5 1121.1 L 1000.3 1136 L 992.9 1136.2 L 980.8 1160.8 L 974.3 1178.8 L 947.8 1188 L 938.2 1186.7 L 928.4 1192.4 L 908 1191.8 L 894.4 1175.9 L 886 1157.4 L 868 1140.7 L 848.8 1141 L 826.3 1141 Z" />
<path class="neighbor" d="M 1127 972.9 L 1137.1 989.2 L 1138.8 1006.1 L 1137.9 1023 L 1151.7 1046.1 L 1137.5 1045.9 L 1130.3 1047.7 L 1118.7 1045.1 L 1113.2 1057.2 L 1128.2 1072 L 1139.3 1076.3 L 1142.9 1086.9 L 1150.9 1104.4 L 1146.9 1111.3 L 1134.1 1137.2 L 1128 1141.8 L 1126.1 1161.5 L 1128.6 1172.3 L 1126.5 1179.8 L 1138.6 1193.1 L 1140.7 1202.3 L 1150.1 1215.4 L 1161.8 1223.6 L 1162.9 1235.2 L 1165.6 1242.6 L 1163.8 1256.4 L 1143.5 1250.4 L 1123 1243.6 L 1090.8 1242.6 L 1087.6 1241.2 L 1072.6 1244.5 L 1057.1 1241.1 L 1045 1242.8 L 1003.5 1242.2 L 1007.3 1222.1 L 997.3 1205.3 L 985.7 1200.9 L 980.5 1189.5 L 974 1185.9 L 974.3 1178.8 L 980.8 1160.8 L 992.9 1136.2 L 1000.3 1136 L 1015.5 1121.1 L 1025.1 1120.7 L 1039.4 1131.1 L 1056.9 1122.6 L 1059.3 1112 L 1065 1101.7 L 1069 1088.8 L 1082.6 1078.3 L 1087.7 1060.5 L 1093.2 1054.8 L 1096.7 1041.6 L 1103.5 1025.3 L 1124.9 1005.6 L 1126.3 997.2 L 1129.1 992.6 L 1119 982.4 L 1119.8 974.3 L 1127 972.9 Z" />
<path class="neighbor" d="M 780.7 1020.3 L 777.5 1033.7 L 785.2 1041.2 L 794.1 1050.1 L 795 1062.6 L 800.2 1067.9 L 799 1126.4 L 805.3 1143.9 L 784.8 1149.4 L 779.1 1140.4 L 772.3 1124.3 L 770.3 1111.6 L 775.9 1088.7 L 769.5 1079.4 L 767.1 1059.3 L 767.1 1040.8 L 756.5 1027.7 L 758.4 1019.7 L 780.7 1020.3 Z" />
<path class="neighbor" d="M 758.4 1019.7 L 756.5 1027.7 L 767.1 1040.8 L 767.1 1059.3 L 769.5 1079.4 L 775.9 1088.7 L 770.3 1111.6 L 772.3 1124.3 L 779.1 1140.4 L 784.8 1149.4 L 744.9 1164.3 L 730.7 1173 L 707.7 1180.4 L 685 1173.2 L 686.2 1163.1 L 675.2 1141.2 L 681.8 1112.4 L 692.5 1091 L 685.8 1054.8 L 682.3 1035.6 L 682.9 1021.2 L 727.1 1020 L 738.4 1021.8 L 746.6 1017.7 L 758.4 1019.7 Z" />
<path class="neighbor" d="M 553.3 1040.4 L 556.6 1038.1 L 563.6 1041.9 L 583.3 1042.1 L 588 1034.7 L 592.4 1035.2 L 599.7 1032.3 L 603.7 1043.2 L 609.6 1040 L 620.1 1036.2 L 631.6 1041.8 L 636 1050.2 L 647.5 1055.6 L 656.4 1049.2 L 668.3 1048.2 L 685.8 1054.8 L 692.5 1091 L 681.8 1112.4 L 675.2 1141.2 L 686.2 1163.1 L 685 1173.2 L 673.5 1173.4 L 655.7 1168.5 L 639.4 1168.7 L 609.2 1173.2 L 591.5 1180.5 L 566.3 1189.9 L 561.4 1189.2 L 563.3 1168.2 L 565.8 1165 L 565 1155 L 554.2 1144.3 L 546.1 1142.6 L 538.7 1135.7 L 544.2 1124.3 L 541.7 1112 L 542.8 1104.6 L 546.9 1104.6 L 548.4 1093.5 L 546.4 1088.6 L 548.8 1085 L 558.3 1082 L 552 1061.6 L 546.1 1051 L 548.2 1042.4 L 553.3 1040.4 Z" />
<path class="neighbor" d="M 408.8 979.8 L 421.1 980.1 L 439.4 986.3 L 445.1 985.7 L 447 982.9 L 460.9 984.9 L 464.5 983.5 L 466 992.8 L 470 992.8 L 476.7 989.4 L 480.9 990.2 L 488 996.7 L 498.9 998.7 L 505.9 993.2 L 514.1 989.8 L 520.2 986.2 L 525.3 986.9 L 531 992.5 L 534 999.5 L 544.4 1010.2 L 539.2 1016.7 L 538.2 1025 L 543.7 1022.5 L 546.8 1025.5 L 545.5 1033.1 L 553.3 1040.4 L 548.2 1042.4 L 546.1 1051 L 552 1061.6 L 558.3 1082 L 548.8 1085 L 546.4 1088.6 L 548.4 1093.5 L 546.9 1104.6 L 542.8 1104.6 L 535.6 1104 L 530.4 1114.2 L 523.2 1114.1 L 518.3 1108.7 L 520 1098.4 L 509.3 1082.8 L 502.7 1085.7 L 497.2 1086.3 L 490.2 1087.7 L 490.5 1078.4 L 486.4 1071.7 L 487.2 1064.3 L 481.7 1053.6 L 474.6 1044.5 L 454.3 1044.5 L 448.3 1049.3 L 441.3 1049.9 L 437 1055.4 L 434 1062.4 L 420.4 1073.6 L 409.2 1058.6 L 399.3 1048.6 L 392.8 1045.3 L 386.4 1040.2 L 383.6 1029 L 379.8 1023.4 L 372.4 1019.2 L 383.8 1006.8 L 391.5 1007.2 L 398.1 1003 L 403.7 1002.9 L 407.8 999.6 L 405.6 991.1 L 408.4 988.4 L 408.8 979.8 Z" />
<path class="neighbor" d="M 333 984.9 L 346.5 980.8 L 354.9 981.6 L 361.8 978.7 L 408.8 979.8 L 408.4 988.4 L 405.6 991.1 L 407.8 999.6 L 403.7 1002.9 L 398.1 1003 L 391.5 1007.2 L 383.8 1006.8 L 372.4 1019.2 L 358.8 1008.5 L 348.1 1006.9 L 342.3 999.7 L 342.4 995.8 L 334.6 990.4 L 333 984.9 Z" />
<path class="neighbor" d="M 420.4 1073.6 L 434 1062.4 L 437 1055.4 L 441.3 1049.9 L 448.3 1049.3 L 454.3 1044.5 L 474.6 1044.5 L 481.7 1053.6 L 487.2 1064.3 L 486.4 1071.7 L 490.5 1078.4 L 490.2 1087.7 L 497.2 1086.3 L 485.4 1098.2 L 473.9 1112 L 472.5 1119.4 L 466.4 1127.5 L 459.6 1125.7 L 441.2 1115.4 L 428 1101.8 L 423.5 1092.4 L 420.4 1073.6 Z" />
<path class="neighbor" d="M 620.1 1036.2 L 618.5 1021.5 L 625.4 1010.7 L 624.8 1002 L 645 980.9 L 648.8 963.5 L 655.7 957.2 L 668.1 960.7 L 678.7 955.5 L 682.2 948.9 L 702 937.5 L 706.8 929.6 L 730.6 919 L 744.6 915.4 L 751 920.3 L 767.3 920.1 L 765.3 932.5 L 768.7 944.1 L 783.1 960.7 L 783.9 973.1 L 813.2 978.8 L 812.7 996.3 L 807.1 1003.9 L 794.6 1006.3 L 789.5 1017.4 L 780.7 1020.3 L 758.4 1019.7 L 746.6 1017.7 L 738.4 1021.8 L 727.1 1020 L 682.9 1021.2 L 682.3 1035.6 L 685.8 1054.8 L 668.3 1048.2 L 656.4 1049.2 L 647.5 1055.6 L 636 1050.2 L 631.6 1041.8 L 620.1 1036.2 Z" />
<path class="neighbor" d="M 1455 1167.1 L 1446.6 1169.8 L 1430.2 1169.2 L 1411.1 1166.5 L 1401.6 1168.7 L 1397.8 1174.9 L 1389.5 1175.6 L 1379.5 1170.3 L 1351.1 1183 L 1339.5 1180.4 L 1336 1182.4 L 1328.4 1197.8 L 1309.4 1192.8 L 1290.8 1190.3 L 1274.6 1180.9 L 1253.6 1172.2 L 1240 1180.4 L 1230.1 1193.4 L 1227.8 1211.1 L 1211.4 1209.7 L 1194.1 1205.4 L 1179 1218.9 L 1165.6 1242.6 L 1162.9 1235.2 L 1161.8 1223.6 L 1150.1 1215.4 L 1140.7 1202.3 L 1138.6 1193.1 L 1126.5 1179.8 L 1128.6 1172.3 L 1126.1 1161.5 L 1128 1141.8 L 1134.1 1137.2 L 1146.9 1111.3 L 1168 1109.4 L 1172.7 1102.9 L 1176.9 1103.4 L 1183.3 1109.1 L 1215.3 1099.4 L 1226.2 1089.5 L 1239.4 1080.6 L 1236.9 1071.6 L 1244.1 1069.2 L 1268.7 1070.8 L 1292.7 1059 L 1311.1 1031.2 L 1324 1020.9 L 1340.1 1016.6 L 1343 1027.5 L 1357.7 1043.4 L 1357.8 1053.8 L 1353.6 1064.4 L 1355.3 1072.3 L 1364.1 1079.7 L 1383.5 1090.8 L 1397.4 1101.1 L 1397.7 1109.4 L 1414.8 1122.6 L 1425.4 1133.6 L 1431.8 1148.9 L 1450.9 1159 L 1455 1167.1 Z" />
<path class="neighbor" d="M 332.1 954.1 L 359.8 953.4 L 365.6 947.4 L 373.7 947 L 383.7 953.2 L 391.6 953.3 L 400 949.1 L 405.2 956.4 L 394.1 962.1 L 383.1 961.7 L 372.1 956.3 L 362.7 962.2 L 358.1 962.4 L 352 966 L 328.8 965.4 L 332.1 954.1 Z" />
<path class="neighbor" d="M 999.3 528.5 L 988.4 482.7 L 972.7 472.5 L 972.5 466.3 L 951.7 451.1 L 949.4 431.9 L 965.1 417.7 L 971.1 396.7 L 967.1 372.5 L 972.3 359.4 L 1000 349.1 L 1017.8 352.2 L 1017.1 365 L 1038.7 355.7 L 1040.5 360.6 L 1027.8 373 L 1027.6 384.8 L 1036.4 391.2 L 1033.1 413.2 L 1016.3 426 L 1021.1 439.9 L 1034.3 440.3 L 1040.7 452.4 L 1050.4 456.4 L 1049 476 L 1036.5 483.3 L 1028.7 491.4 L 1011.2 501.3 L 1013.9 511.8 L 1011.7 522.6 L 999.3 528.5 Z" />
<path class="neighbor" d="M 1567.3 -26.6 L 1576.9 -25.6 L 1583.3 -31.4 L 1591 -30.1 L 1617.4 -32.6 L 1633.7 -18.1 L 1627.4 -13 L 1629.5 -5.1 L 1649.8 -3.8 L 1658.8 7.2 L 1658.3 12.2 L 1690.6 21.2 L 1710.2 17.1 L 1725.9 29.1 L 1740.8 28.8 L 1778.3 37.1 L 1778.6 44.6 L 1768.3 57.9 L 1773.9 71.9 L 1769.9 80.4 L 1745.2 82.3 L 1732.1 89.4 L 1731.3 100.7 L 1711 102.8 L 1694 111 L 1670.2 112.3 L 1648.2 121.8 L 1649.5 135.5 L 1645.7 134.7 L 1642.4 129.7 L 1634.2 128.7 L 1616.1 123.2 L 1609.4 129.5 L 1605.9 126.7 L 1566.3 120.3 L 1564.5 110.8 L 1540.9 113.9 L 1531.5 128 L 1511.8 146.8 L 1500.2 142.4 L 1488.2 146.5 L 1476.9 141.8 L 1483.3 139.1 L 1487.7 130.3 L 1494.7 122.2 L 1492.9 117.6 L 1498.2 115.6 L 1500.7 119.1 L 1515.7 119.9 L 1522.5 118 L 1517.7 115.4 L 1519.5 111.6 L 1510.6 105.1 L 1507 94.5 L 1497.7 90.3 L 1499.5 81.7 L 1488 74.8 L 1477.5 73.9 L 1458.8 66 L 1441.8 68.5 L 1435.8 72.2 L 1425 72.2 L 1418.6 78.2 L 1399.8 80.6 L 1391.1 84.5 L 1379.3 78.3 L 1363 78.2 L 1347.2 75.4 L 1336.2 80.9 L 1334.4 74 L 1320.3 67.1 L 1325.3 56.8 L 1332.3 50.2 L 1337.9 51.7 L 1331.3 40.2 L 1354.4 19.1 L 1367.1 16.1 L 1369.8 8.9 L 1357 -13.3 L 1369.2 -14.3 L 1383.1 -21.2 L 1402.9 -21.7 L 1428.6 -19.8 L 1457 -13.6 L 1477.1 -13.1 L 1486.7 -9.4 L 1496.2 -13.9 L 1502.9 -7.9 L 1525.9 -9.2 L 1536 -6.7 L 1537.6 -19.5 L 1545.5 -25.1 L 1567.3 -26.6 Z" />
<path class="neighbor" d="M 1320.3 67.1 L 1334.4 74 L 1336.2 80.9 L 1320.6 86.2 L 1308.6 103.5 L 1293.2 120.7 L 1272.8 125.5 L 1256.9 124.4 L 1237.4 131.1 L 1237.4 131.1 L 1227.8 134.9 L 1206.8 130 L 1187.8 119.1 L 1179.7 116 L 1174.7 107.4 L 1170.4 107.1 L 1178.9 90.7 L 1174 85.2 L 1188.3 85.1 L 1190.2 74.7 L 1203.2 81.2 L 1212.6 84 L 1234 80.9 L 1236 75.8 L 1246.1 75 L 1258.5 71.1 L 1261.3 72.7 L 1273.3 69.5 L 1279.2 63.5 L 1287.6 62 L 1314.9 69.7 L 1320.3 67.1 Z" />
<path class="neighbor" d="M 1476.9 141.8 L 1488.2 146.5 L 1500.2 142.4 L 1511.8 146.8 L 1512.3 153.4 L 1500 158.8 L 1492.3 156.5 L 1485.1 187.2 L 1470.2 184.5 L 1451.6 175.2 L 1421.6 181.2 L 1409 187.7 L 1371.6 186.3 L 1352 182.4 L 1342.2 184.2 L 1334.8 173.7 L 1330.2 169.3 L 1336.1 165 L 1329.8 161.8 L 1321.8 167.5 L 1307 160.1 L 1305 149.6 L 1289.4 143.7 L 1286.6 135.6 L 1272.8 125.5 L 1293.2 120.7 L 1308.6 103.5 L 1320.6 86.2 L 1336.2 80.9 L 1347.2 75.4 L 1363 78.2 L 1379.3 78.3 L 1391.1 84.5 L 1399.8 80.6 L 1418.6 78.2 L 1425 72.2 L 1435.8 72.2 L 1443.5 74.7 L 1451.4 82.3 L 1459.5 93 L 1474.2 108.1 L 1475 119.3 L 1472.3 130.2 L 1476.9 141.8 Z" />
<path class="neighbor" d="M 1427.4 401.3 L 1424.2 408.8 L 1387.5 411 L 1387.8 406.8 L 1356.7 401.8 L 1361.4 391 L 1375.3 399.6 L 1395.2 398.1 L 1414.1 399.9 L 1413.5 404.4 L 1427.4 401.3 Z M 1342.4 247.5 L 1361.2 248.3 L 1381.6 241.3 L 1399.5 250.2 L 1422.7 247.8 L 1423 235.1 L 1435.4 241.8 L 1427.5 257.8 L 1421.4 260.6 L 1405.9 259.9 L 1392.6 257.5 L 1361.8 264.1 L 1379.4 278.4 L 1366.5 282.6 L 1352.3 282.6 L 1338.8 269.5 L 1334.1 275.1 L 1339.7 290.3 L 1352.5 302.2 L 1342.9 307.8 L 1357.1 319.6 L 1369.7 326.9 L 1370.1 341.3 L 1346.5 334.6 L 1354 347.6 L 1337.8 350.2 L 1347.5 372.7 L 1330.6 373 L 1309.7 362 L 1300.2 341.6 L 1295.7 324.6 L 1285.8 312.9 L 1272.7 298.4 L 1271 291.2 L 1282.8 278.8 L 1284.4 270.5 L 1292.6 266.8 L 1293.1 260.1 L 1309.8 257.9 L 1319.5 252.3 L 1333.3 252.8 L 1337.5 248.4 L 1342.4 247.5 Z" />
<path class="neighbor" d="M 1293.1 260.1 L 1292.6 266.8 L 1284.4 270.5 L 1282.8 278.8 L 1271 291.2 L 1266.7 289.4 L 1266.1 283.8 L 1252 275.2 L 1249.8 263.1 L 1252 245.7 L 1255.5 237.8 L 1251.2 233.8 L 1251.2 233.8 L 1249.5 225.7 L 1260.5 213.1 L 1262.1 217.9 L 1269 215.7 L 1274.4 222.5 L 1280.5 225.1 L 1282.2 234.4 L 1282.2 234.4 L 1279 243 L 1282.6 253.9 L 1293.1 260.1 Z" />
<path class="neighbor" d="M 1179.7 116 L 1187.8 119.1 L 1206.8 130 L 1227.8 134.9 L 1237.4 131.1 L 1243.6 141 L 1251.6 148.2 L 1241.8 157.8 L 1230.3 152.2 L 1212.7 152.5 L 1190.8 148.3 L 1178.9 148.9 L 1173.4 154.2 L 1164.3 148.3 L 1158.9 158.9 L 1171.4 170.8 L 1176.9 178.7 L 1188.6 188.2 L 1198.3 193.8 L 1207.9 204.5 L 1230.5 214.1 L 1227.7 218.4 L 1227.7 218.4 L 1203.7 209 L 1189 199.9 L 1165.7 192.3 L 1144.3 173.5 L 1149.4 171.6 L 1137.8 160.9 L 1137.3 152.3 L 1120.9 148.3 L 1113.1 159.3 L 1105.6 150.8 L 1106.2 141.9 L 1107.1 141.5 L 1124.8 142.4 L 1129.5 138.1 L 1138.2 142.2 L 1148.2 142.7 L 1148.1 135.6 L 1156.9 133 L 1159.4 122.7 L 1179.7 116 Z" />
<path class="neighbor" d="M 1002.1 90 L 1003.1 94.5 L 999.2 100.7 L 1010.8 105.3 L 1023.8 106 L 1021.7 116.5 L 1010.5 120.8 L 991.7 117.6 L 986.1 127.9 L 974 128.7 L 969.6 124.6 L 955.3 133.3 L 943 134.5 L 932.1 129 L 923.3 117.8 L 911.2 121.8 L 911.6 110.3 L 930.2 96 L 929.4 89.5 L 941 91.9 L 948 87.5 L 969.6 87.7 L 974.8 82.2 L 1002.1 90 Z" />
<path class="neighbor" d="M 527.7 233.7 L 536.9 227.2 L 547.3 223.5 L 553.7 236 L 568.7 236 L 573.1 232.7 L 587.9 233.6 L 595.1 246.4 L 583.3 253.3 L 583 273.2 L 578.8 276.9 L 577.8 288.9 L 566.8 291 L 577 306.3 L 570 323 L 578.8 330.6 L 575.3 337.5 L 565.8 347.1 L 567.9 355.5 L 557.7 362.1 L 544.3 358.6 L 531.1 361.4 L 535 341.4 L 532.6 325.8 L 521.2 323.4 L 515.1 313.8 L 517.2 297.1 L 527.3 287.8 L 529.1 277.6 L 534.5 262.2 L 533.9 251.4 L 528.8 242.3 L 527.7 233.7 Z" />
<path class="neighbor" d="M 567.9 355.5 L 565.8 347.1 L 575.3 337.5 L 578.8 330.6 L 570 323 L 577 306.3 L 566.8 291 L 577.8 288.9 L 578.8 276.9 L 583 273.2 L 583.3 253.3 L 595.1 246.4 L 587.9 233.6 L 573.1 232.7 L 568.7 236 L 553.7 236 L 547.3 223.5 L 536.9 227.2 L 527.7 233.7 L 529 215.6 L 518.6 204.5 L 554.6 186.1 L 585.8 190.7 L 619.9 190.6 L 647 194.9 L 668.2 193.6 L 709.4 194.4 L 719.5 204.3 L 766.4 215.9 L 775.7 210.4 L 804.3 221.9 L 833.8 218.6 L 835.2 233.4 L 811.1 250.4 L 778.4 255.8 L 776.2 264.3 L 760.5 278.5 L 750.7 299.2 L 760.6 313.7 L 745.9 325.1 L 740.4 341.7 L 721.1 346.7 L 703.1 366.3 L 670.8 366.7 L 646.5 366.2 L 630.6 375.2 L 620.8 384.8 L 608.4 382.7 L 598.9 374.1 L 591.7 359.5 L 567.9 355.5 Z" />
<path class="neighbor" d="M 1023.8 106 L 1039.2 109.7 L 1042.1 104.8 L 1067.3 100.4 L 1073 109.2 L 1109.4 115.8 L 1106.7 128.4 L 1112.8 139.2 L 1092.5 135.5 L 1071.8 144.5 L 1073.2 157.2 L 1070.1 164.4 L 1078.4 177.4 L 1102.3 190.2 L 1115.1 211.3 L 1143.5 231.8 L 1163.4 231.7 L 1169.6 237.3 L 1162.5 242.4 L 1185.3 251.6 L 1204 259.3 L 1225.8 272.5 L 1228.5 277.3 L 1223.7 286.4 L 1209.6 274.5 L 1187.4 270.3 L 1176.7 286.8 L 1195.1 296.3 L 1192.1 309.6 L 1181.5 311.1 L 1167.9 332.9 L 1157.2 334.9 L 1157.3 327.1 L 1162.5 313.4 L 1168.1 308 L 1158.1 293.2 L 1150.4 280.4 L 1139.8 277.2 L 1132.3 266.2 L 1115.9 261.6 L 1104.9 251.3 L 1086 249.7 L 1066.1 238.2 L 1042.8 221.6 L 1025.5 206.9 L 1017.6 181.8 L 1004.9 178.8 L 984.2 170.4 L 972.5 173.8 L 957.7 185.7 L 947.2 187.5 L 950.1 176.5 L 936.3 173.2 L 929.7 153.5 L 938.5 145.8 L 931 136.2 L 932.1 129 L 943 134.5 L 955.3 133.3 L 969.6 124.6 L 974 128.7 L 986.1 127.9 L 991.7 117.6 L 1010.5 120.8 L 1021.7 116.5 L 1023.8 106 Z M 1133.7 328.9 L 1153.1 326.7 L 1143.9 346.7 L 1147.7 354.6 L 1142.4 367.7 L 1122.9 358.1 L 1109.9 355.4 L 1074.4 342.4 L 1078 329.3 L 1107.8 331.7 L 1133.7 328.9 Z M 979.6 258.7 L 992.4 250.8 L 1007.6 268.9 L 1004.1 302.6 L 992.5 301 L 982.1 309.5 L 972.4 302.7 L 971.4 272 L 965.6 257.4 L 979.6 258.7 Z" />
<path class="neighbor" d="M 1109.4 115.8 L 1130.5 117.8 L 1143.3 112 L 1165.6 111.4 L 1170.4 107.1 L 1174.7 107.4 L 1179.7 116 L 1159.4 122.7 L 1156.9 133 L 1148.1 135.6 L 1148.2 142.7 L 1138.2 142.2 L 1129.5 138.1 L 1124.8 142.4 L 1107.1 141.5 L 1112.8 139.2 L 1106.7 128.4 L 1109.4 115.8 Z" />
<path class="neighbor" d="M 702.5 404.7 L 712.1 421 L 713.6 436.5 L 722.4 463.4 L 729.1 468.8 L 724.5 478.7 L 691.1 483 L 679.6 492.4 L 664.9 494.6 L 663.8 513.5 L 634 523.5 L 624.3 536.3 L 603.4 543.1 L 578 547 L 536.9 565.8 L 537.1 596 L 533.2 596 L 533.8 609.6 L 518 610.5 L 509.8 616.2 L 498.3 616.2 L 489.1 612.9 L 467.6 615.7 L 459.3 635.5 L 451.4 637.4 L 439.4 669.5 L 404 697 L 395.6 732.2 L 385.1 743.6 L 382.1 752.8 L 324.7 754.8 L 324.3 754.8 L 325.5 743 L 335.3 736 L 343.6 722.8 L 342 714.1 L 350.7 696.2 L 364.9 680 L 373.5 675.9 L 380.2 661 L 380.8 647.4 L 390 631.7 L 407 622.4 L 423.1 596.4 L 423.6 596 L 436.4 586.3 L 460.1 583.5 L 480.1 566 L 492.9 559.3 L 514.2 538 L 507.8 506.3 L 517.5 484.4 L 520.9 471 L 537.3 453.8 L 562.8 442.1 L 581.7 431.6 L 598.7 405.2 L 606.8 389.6 L 625.5 389.7 L 640.9 400.5 L 665.1 398.8 L 691.5 404.4 L 702.5 404.7 Z" />
<path class="neighbor" d="M 1394.5 740.1 L 1394.5 790.9 L 1365.2 791 L 1364.9 801.7 L 1263.3 752.9 L 1161.7 704.1 L 1136 718.1 L 1118 727.5 L 1103.7 713.6 L 1063.4 702.6 L 1052.2 686.6 L 1032.1 674.8 L 1020.2 679.5 L 1011.2 665.3 L 1010.2 654.3 L 995.1 635.8 L 1005.2 625.1 L 1003 609.1 L 1006.3 595.2 L 1004.4 583.6 L 1008.9 562.8 L 1007.5 551 L 999.3 528.5 L 1011.7 522.6 L 1013.9 511.8 L 1011.2 501.3 L 1028.7 491.4 L 1036.5 483.3 L 1049 476 L 1050.4 456.4 L 1080.3 465.2 L 1091 463 L 1112.3 467.2 L 1146.1 478.6 L 1158 501.2 L 1180.9 506.2 L 1216.8 516.9 L 1243.9 529.5 L 1256.3 522.9 L 1268.5 511.2 L 1262.6 491.7 L 1270.6 479.3 L 1288.9 467.4 L 1306.5 463.9 L 1340.9 469.1 L 1349.6 480.5 L 1359.1 480.6 L 1367.2 484.9 L 1392.5 487.9 L 1398.7 496.3 L 1389.5 508.6 L 1393.4 519.4 L 1386.9 535.2 L 1394.5 555.7 L 1394.5 646.3 L 1394.5 740.1 Z" />
<path class="neighbor" d="M 1230.5 214.1 L 1207.9 204.5 L 1198.3 193.8 L 1188.6 188.2 L 1176.9 178.7 L 1171.4 170.8 L 1158.9 158.9 L 1164.3 148.3 L 1173.4 154.2 L 1178.9 148.9 L 1190.8 148.3 L 1212.7 152.5 L 1230.3 152.2 L 1241.8 157.8 L 1241.8 157.8 L 1251.1 157.8 L 1244.7 169 L 1257 178.8 L 1253.3 190.7 L 1247.3 191.9 L 1242.5 194.2 L 1234.2 200.1 L 1230.5 214.1 Z" />
<path class="neighbor" d="M 1327.8 222.5 L 1340.6 230.7 L 1342.4 247.5 L 1337.5 248.4 L 1333.3 252.8 L 1319.5 252.3 L 1309.8 257.9 L 1293.1 260.1 L 1282.6 253.9 L 1279 243 L 1282.2 234.4 L 1282.2 234.4 L 1285.4 234.6 L 1286.6 229.3 L 1301.6 225.4 L 1307.3 224.4 L 1316 222.9 L 1327.8 222.5 Z" />
<path class="neighbor" d="M 1237.4 131.1 L 1237.4 131.1 L 1256.9 124.4 L 1272.8 125.5 L 1286.6 135.6 L 1289.4 143.7 L 1305 149.6 L 1307 160.1 L 1321.8 167.5 L 1329.8 161.8 L 1336.1 165 L 1330.2 169.3 L 1334.8 173.7 L 1328.6 179.5 L 1330.8 188.8 L 1343.2 199.8 L 1333.5 207.8 L 1329.2 215.9 L 1332 218.9 L 1327.8 222.5 L 1316 222.9 L 1307.3 224.4 L 1306.5 222.5 L 1309.5 219.5 L 1312.4 213.3 L 1308.8 213.4 L 1303.8 208.7 L 1299.6 207.5 L 1296.3 203.5 L 1291.5 201.9 L 1287.9 198.3 L 1283.3 199.7 L 1279.8 208.1 L 1273.7 210 L 1275.8 207.8 L 1266.1 202.5 L 1257.7 199.8 L 1254 196.2 L 1247.3 191.9 L 1253.3 190.7 L 1257 178.8 L 1244.7 169 L 1251.1 157.8 L 1241.8 157.8 L 1241.8 157.8 L 1251.6 148.2 L 1243.6 141 L 1237.4 131.1 Z" />
<path class="neighbor" d="M 1269 215.7 L 1262.1 217.9 L 1260.5 213.1 L 1249.5 225.7 L 1251.2 233.8 L 1245.8 231.8 L 1238.7 223.5 L 1227.7 218.4 L 1230.5 214.1 L 1234.2 200.1 L 1242.5 194.2 L 1247.3 191.9 L 1254 196.2 L 1257.7 199.8 L 1266.1 202.5 L 1275.8 207.8 L 1273.7 210 L 1269 215.7 Z" />
<path class="neighbor" d="M 1282.2 234.4 L 1280.5 225.1 L 1274.4 222.5 L 1269 215.7 L 1273.7 210 L 1279.8 208.1 L 1283.3 199.7 L 1287.9 198.3 L 1291.5 201.9 L 1296.3 203.5 L 1299.6 207.5 L 1303.8 208.7 L 1308.8 213.4 L 1312.4 213.3 L 1309.5 219.5 L 1306.5 222.5 L 1307.3 224.4 L 1301.6 225.4 L 1286.6 229.3 L 1285.4 234.6 L 1282.2 234.4 Z" />
<path class="lake" d="M 1133.3 967.3 L 1133.3 967.7 L 1132.6 968.1 L 1132 968.7 L 1131.8 969.5 L 1131.2 969.7 L 1130.1 969.5 L 1129.4 969.5 L 1127.5 969.8 L 1126.4 970.5 L 1124.7 971.8 L 1123.2 972.4 L 1121.9 972.2 L 1121.4 971.7 L 1120.9 969.6 L 1120.9 969.2 L 1121.5 968.9 L 1121.7 968.5 L 1122.2 967.6 L 1122.3 967.2 L 1122.3 967.1 L 1122.8 966.3 L 1122.8 965.8 L 1123.1 965.1 L 1123.8 964.6 L 1124.9 964 L 1127 963.2 L 1128.5 963.2 L 1129.4 963.8 L 1131 964 L 1131.4 964.3 L 1132.4 965.8 L 1133.3 967.3 L 1133.3 967.3 L 1133.3 967.3 Z" />
<path class="lake" d="M 877.1 1036.4 L 876.9 1036.9 L 874.9 1040.7 L 874.9 1042.8 L 875.4 1045.6 L 876.4 1048.6 L 875.6 1049.1 L 874.8 1049.1 L 874.1 1048.1 L 873.3 1045 L 872.3 1044 L 871.7 1043.9 L 871.6 1043.2 L 872.3 1042.5 L 872.7 1041.9 L 872.5 1041.3 L 871.6 1040.9 L 871.5 1040.7 L 872 1039.9 L 871.5 1037.9 L 869.8 1036.1 L 869.8 1035.4 L 870.8 1035 L 871.1 1034.5 L 871.4 1034 L 871.6 1029.7 L 872.2 1029.3 L 874.1 1030.3 L 875.1 1030 L 876.4 1030.2 L 877 1030.8 L 876.2 1032.5 L 876.7 1035.2 L 877.1 1036.4 L 877.1 1036.4 L 877.1 1036.4 Z" />
<path class="lake" d="M 1249.2 223.9 L 1249.2 223.9 L 1249.2 223.9 L 1249.2 223.9 L 1251 223.3 L 1251.7 224.9 L 1253.2 226.7 L 1253.9 227.9 L 1253.6 228.7 L 1251.7 228.4 L 1247.2 226.6 L 1244.2 223.6 L 1246.2 223.6 L 1249.2 223.9 Z" />
<path class="country" d="M 536.6 602.6 L 537.1 597.7 L 537.1 596 L 536.9 565.8 L 578 547 L 603.4 543.1 L 624.3 536.3 L 634 523.5 L 663.8 513.5 L 664.9 494.6 L 679.6 492.4 L 691.1 483 L 724.5 478.7 L 729.1 468.8 L 722.4 463.4 L 713.6 436.5 L 712.1 421 L 702.5 404.7 L 727 390.7 L 754.5 386.3 L 770.6 375.8 L 795.1 368.1 L 838.3 363.5 L 880.4 361.5 L 893.3 365.2 L 917.3 355.2 L 944.5 355 L 954.8 360.9 L 972.3 359.4 L 967.1 372.5 L 971.1 396.7 L 965.1 417.7 L 949.4 431.9 L 951.7 451.1 L 972.5 466.3 L 972.7 472.5 L 988.4 482.7 L 999.3 528.5 L 1007.5 551 L 1008.9 562.8 L 1004.4 583.6 L 1006.3 595.2 L 1003 609.1 L 1005.2 625.1 L 995.1 635.8 L 1010.2 654.3 L 1011.2 665.3 L 1020.2 679.5 L 1032.1 674.8 L 1052.2 686.6 L 1063.4 702.6 L 976.1 751.1 L 902.4 801.1 L 866.5 812.5 L 838.2 815 L 837.9 798.8 L 826.1 794.7 L 810.3 787.4 L 804.2 775.4 L 718.3 719.9 L 632.4 664.3 L 536.6 602.6 Z" />

<path class="river" d="M 875.6 1049.1 L 873.1 1039.6 L 873.3 1034.9 L 876.4 1030.2 M 656.4 911.2 L 651.7 909 L 649.6 907.6 L 648.2 905.4" />
<path class="river" d="M 605.1 285.4 L 608.8 286.5 L 613.7 286.8 L 625 286.4 M 688.2 268.2 L 692.2 263.2" />
<path class="river" d="M 449.9 1030.7 L 452 1032.2 L 453.9 1032.4 L 456.4 1031.7 L 457.9 1029.9 L 458.5 1027.1 L 459.1 1025.5 L 460 1025.1 L 461.8 1025 L 462.3 1023.7 L 462.1 1021.1 L 462.8 1018.4 L 464.7 1015.4 L 466.3 1013.8 L 467.8 1013.5 L 469.9 1012.1 L 472.6 1009.7 L 474.4 1007.5 L 475.3 1005.6 L 476.1 1004.9 L 476.9 1005.6 L 478.5 1005.6 L 481 1005 L 484.1 1001.5 L 488.1 995 L 491.2 991.2 L 493.6 990.2 L 494.4 988.9 L 493.7 987.3 L 494.3 984.7 L 496.3 981 L 497 978.5 L 496.5 977.3 L 496.7 976.3 L 497.6 975.4 L 497.4 974.5 L 496.1 973.4 L 495.6 972.3 L 495.9 971 L 495.7 970.4 L 494.9 970.3 L 494.1 968.7 L 493.4 965.7 L 492.1 963.9 L 490.2 963.1 L 487.6 962.8 L 484.2 962.8 L 482.6 961.7 L 482.8 959.5 L 483.4 958.4 L 484.3 958.1 L 484.4 957.7 L 483.9 956.5 L 481.9 953 L 481 950.6 L 480.9 950.1 L 480.4 949.5" />
<path class="river" d="M 1238.8 1075.3 L 1237.7 1075.9 L 1235.6 1075.1 L 1232.1 1073.4 L 1228.3 1070.1 L 1222.1 1063 L 1210.9 1052.8 L 1206.6 1047.9 L 1205.6 1045 L 1204 1042.4 L 1200.2 1038.1 L 1198.8 1036.8 L 1197.1 1035.8 L 1195.1 1035.2 L 1193.4 1034.1 L 1192.1 1032.3 L 1190.9 1031.3 L 1189.8 1031.1 L 1187.6 1031.7 L 1184.2 1033.2 L 1180.9 1033.4 L 1177.6 1032.4 L 1173.9 1030.5 L 1169.9 1027.7 L 1165.7 1026 L 1161.4 1025.5 L 1157.9 1024.4 L 1155.2 1022.9 L 1153.1 1021.3 L 1151.7 1019.7 L 1150.9 1017.5 L 1150.6 1014.8 L 1149.7 1011.4 L 1148 1007.6 L 1147.5 1004 L 1148 1000.5 L 1147 997.4 L 1144.5 994.6 L 1141.7 992.6 M 1141.7 992.6 L 1138.5 993.7 L 1135.8 992.9 L 1132 991.1 L 1129.2 989.2 L 1127.6 987.1 L 1124.9 986 L 1121.3 985.7 L 1119.4 985 L 1118.8 982.7 M 1141.7 992.6 L 1138.7 991.4 L 1136.8 987.9 L 1135.9 982 L 1133.7 978 L 1130.2 976.2 L 1128.2 973.9 L 1127.5 969.8" />
<path class="river" d="M 1196 76.3 L 1203 80.7 L 1206.9 82.7 L 1210.2 83.7 L 1219.9 83.9 L 1235.4 83.2 L 1236.5 82.7 L 1241.7 82.5 L 1243.5 82.8 L 1244.3 83.5 L 1244.8 84.7 L 1244.9 85.3 L 1243.6 89.3 L 1243.2 91.1 L 1242.5 92.8 L 1240.6 94 L 1239.3 96.7 L 1238.7 99.5 L 1239.9 101.2 L 1240.1 102.5 L 1240.2 103.3 L 1240.1 106.3 L 1240.3 108.3 L 1241.3 109.9 L 1240.8 111.3 L 1239 112.5 L 1238.5 113.9 L 1239.3 115.3 L 1239.6 118 L 1239.6 121.9 L 1238.1 124.9 L 1235.3 127.2 L 1234.7 128.4 L 1235.6 130.5 L 1237.6 133 L 1239 134.7 L 1240.4 137.6 L 1239.6 139 L 1240.5 140 L 1243.1 140.8 L 1243.3 141.1 L 1242.5 141.5 L 1241.9 142.4 L 1241.8 144.1 L 1244.1 145.7 L 1248.6 147.2 L 1253.8 148.1 L 1259.5 148.3 L 1262.8 148.1 L 1263.7 147.4 L 1264.8 147.7 L 1266.1 148.8 L 1268.3 149.5 L 1271.3 149.7 L 1273.6 150.4 L 1274.4 151.1 L 1275.2 151.7 L 1275.8 153.3 L 1275.5 155 L 1276.2 156.5 L 1277.9 157.7 L 1279.9 158.3 L 1282.2 158.2 L 1283.4 158.6 L 1283.3 159.7 L 1284.1 160.9 L 1285.8 162.1 L 1290.4 161.7 L 1301.8 158.7 L 1306 159.6 L 1307.8 160.5 L 1308.8 161.6 L 1311.5 162.4 L 1315.8 162.8 L 1318.8 163.9 L 1320.5 165.9 L 1323.2 165.5 L 1327 162.5 L 1330.8 161.7 L 1334.5 163.2 L 1336.5 164.3 L 1336.8 165.2 L 1336 165.6 L 1333.9 165.4 L 1332.2 166 L 1330.9 167.3 L 1330.7 168.6 L 1331.6 170.1 L 1332.9 171.1 L 1334.6 171.7 L 1335.5 172.4 L 1335.6 173.4 L 1337.8 174.8 L 1342.2 176.5 L 1344.3 177.7 L 1344.2 178.5 L 1343.2 179.3 L 1341.3 180.1 L 1340.2 181.1 L 1339.9 182.3 L 1340.2 183.2 L 1341.5 183.9 L 1349.3 182.9 L 1357.2 183.5 L 1367.8 185.2 L 1374.8 185.8 L 1380 185 L 1398.6 187.7 L 1407.2 188.1 L 1412 187.1 L 1415.4 185.7 L 1418.3 183 L 1425.5 179.5 L 1432.4 177.6 L 1441.6 176 L 1447.7 175.5 L 1451.1 176.1 L 1452.2 176.2 L 1454.1 176.3 L 1456 176.2 L 1460.6 175.2 L 1467.4 173 L 1471.5 171 L 1473 169.1 L 1473 167.6 L 1471.7 166.7 L 1471.2 165.5 L 1471.6 164.2 L 1470.7 162.8 L 1468.6 161.4 L 1467.8 160.8 L 1467.1 160.2 L 1466.6 159.5 L 1466.6 158.6 L 1467.4 157.7 L 1468.2 155.1 L 1469 150.7 L 1470 147.4 L 1471.2 145.2 L 1472.9 143.7 L 1476.3 142.8 L 1479 145.4 L 1482.4 146.8 L 1490.3 148.3" />
<path class="river" d="M 1109.8 101 L 1123.7 99.6 L 1127.3 98 L 1130.1 97.6 L 1133.5 97.9 L 1136.3 97.1 L 1138.4 95.2 L 1141.4 93.9 L 1143.5 93.1 L 1145.1 93.1 L 1147.5 93.3 L 1148.6 94.5 L 1148.8 95.3 L 1148.1 95.7 L 1147.9 96.9 L 1148.2 98.9 L 1149 100.2 L 1150.3 100.9 L 1151.9 103.4 L 1154.1 107.6 L 1154.6 109.2 L 1155.9 110 L 1157.7 110.4 L 1166.4 111.9 L 1170.7 114.3 L 1173.5 115.2 L 1176.2 115.4 L 1179.8 116.4 L 1184.3 118.2 L 1187.5 120.2 L 1189.2 122.3 L 1191.6 124 L 1194.6 125.2 L 1196.9 126.8 L 1198.7 128.9 L 1201.1 130 L 1204.2 130.3 L 1206.2 131 L 1207.1 132.1 L 1208.8 133.2 L 1211.3 134.1 L 1215.3 134.6 L 1223.4 134.8 L 1230.3 138.3 L 1234.4 139.7 L 1240.5 140" />
<path class="river" d="M 685.5 232.5 L 693 234.5 L 695.5 235.8 L 695.5 237.2 L 696.1 238.6 L 697.8 240.7 L 694.2 242.9 L 691.1 243.3 L 687.5 242.7 L 684.8 242.7 L 683 243.2 L 680.4 242.8 L 676.9 241.4 L 670.9 240 L 662.4 238.6 L 657.4 238.5 L 655.9 239.6 L 652.2 240.1 L 646.4 239.8 L 638.5 241.1 L 628.5 243.7 L 622.6 244.3 L 620.8 243 L 617.2 242.7 L 611.9 243.5 L 609.1 243.6 L 607.8 244.1 L 605.7 243.6 L 602.6 242.3 L 600.4 242.1 L 598.7 243 L 597.6 244.5 L 594.7 246.6 L 590.6 248.4 L 587.4 250.7 L 585.2 253.4 L 582.5 254.5 L 579.2 254.1 L 577.3 253.3 L 576.9 251.9 L 573.3 251.3 L 562.9 251.5 L 548 253.8 L 543.2 254 L 539.9 252.9 L 536.8 252.2" />
<path class="river" d="M 651.1 204.9 L 653.3 205.2 L 654.5 206.4 L 655.5 208.7 L 656.9 209.7 L 658.7 209.2 L 660.4 209.2 L 662.1 209.9 L 663.3 209.5 L 664.1 208.1 L 665.4 207.8 L 668.1 209.1 L 669.9 210.1 L 672.8 210.5 L 677.4 210.6 L 681.1 211.4 L 683.8 213 L 685.4 214.3 L 685.9 215.3 L 687.6 216.4 L 690.5 217.5 L 692.5 217.8 L 693.5 217.2 L 696.8 217.6 L 702.2 218.8 L 707 220.7 L 713.3 224.7 L 722 231.2 L 729.5 235.7 L 738.7 240.3 L 744.4 243.9 L 746.5 246.6 L 750.1 248.3 L 755.3 248.9 L 758.8 248.3 L 760.6 246.6 L 762 245.7 L 763.1 245.6 L 764.5 246 L 766.2 246.8 L 767 247.8 L 766.9 249 L 767.1 249.6 L 767.8 249.7 L 771.2 249.8 L 772.8 250.5 L 773.9 251.9 L 774.4 253.1 L 774.4 254 L 773.4 255.2 L 771.5 256.6 L 771 258.6 L 771.8 261.2 L 774.4 262.6 L 780.5 263.2" />
<path class="river" d="M 1239.7 122 L 1239.4 130.1 L 1239.3 130.5 L 1239 132.2 L 1237.6 133" />
<path class="river" d="M 803.9 214.7 L 804.3 213 L 803.4 212 L 800.4 210.7 L 798.9 208.9 L 798.4 206 L 798.2 201.4 L 797 197.6 L 794.8 194.6" />
<path class="river" d="M 623.7 1016.7 L 625.7 1017 L 627.2 1016.3 L 628.9 1014.5 L 630.7 1013.5 L 633.5 1013 L 637.7 1009.9 L 639.6 1009.2 L 640.7 1010 L 642.2 1009.7 L 644 1008.3 L 646.2 1007.3 L 648.9 1006.6 L 652.7 1002.5 L 657.9 994.8 L 660.5 990.3 L 660.6 988.8 L 661.4 987.2 L 662.9 985.4 L 664.4 984.5 L 665.9 984.5 L 666.9 982.6 L 667.4 978.7 L 668.4 976.5 L 669.9 976 L 671 976.4 L 671.7 977.9 L 672.8 978.3 L 674.3 977.8 L 675 978.4 L 675 980.3 L 676.1 982 L 678.2 983.5 L 680.8 984.6 L 684 985.3 L 685.2 986.1 L 684.6 987.2 L 684.8 988.7 L 686.1 990.9 L 685.9 992.3 L 684.3 992.8 L 684 994.3 L 685.1 996.6 L 685.1 998.3 L 683.9 999.4 L 684.4 1000.4 L 686.4 1001.3 L 686.7 1004.8 L 685.2 1010.8 L 685 1014 L 686 1014.5 L 686.4 1016 L 685.7 1020 L 683.7 1027.1 L 683.5 1030.6 L 684.5 1032.7 L 685.5 1034.1 L 686.7 1034.7 L 686.8 1035.4 L 685.9 1036.4 L 686 1037.5 L 687.1 1038.5 L 687.3 1039.6 L 686.8 1040.8 L 686.9 1043.6 L 687.7 1048 L 687.7 1050.8 L 687 1052.2 L 687.3 1054.4 L 688.9 1057.6 L 689.4 1060.2 L 688.9 1062.2 L 689 1063.5 L 689.7 1064 L 689.3 1065.6 L 687.8 1068.4 L 687.8 1070 L 689.3 1070.5 L 690.3 1072.3 L 690.9 1075.2 L 692.7 1078 L 695.5 1080.5 L 697.6 1083.5 L 698.9 1087 L 700.6 1089.6 L 702.5 1091.6 L 704.6 1092.5 L 706.8 1092.4 L 708.5 1091.7 L 709.6 1090.6 L 710.8 1090.1 L 712.1 1090.4 L 712.8 1090 L 712.7 1088.9 L 712 1088.3 L 710.6 1088.1 L 709.7 1087.5 L 709.3 1086.5 L 709.4 1084.7 L 710.1 1082 L 711.4 1080.7 L 714.2 1080.6" />
<path class="river" d="M 704.7 943.5 L 705.4 951.9 L 704.1 954.9 L 704.2 957.2 L 705.2 960 L 705.1 962.8 L 703.7 965.8 L 703.4 967.5 L 704.2 968.2 L 707.1 968.3 L 712.3 967.9 L 716.3 968.5 L 719.3 970.1 L 721.9 970.7 L 724 970 L 725.6 970.3 L 726.8 971.3 L 727.7 973.5 L 728.2 976.7 L 728.7 978.2 L 729.4 977.8 L 729.9 978 L 730.2 978.8 L 730 986.3 L 731.2 990.9 L 733.8 995.4 L 735.9 998.1 L 737.5 999.1 L 738.1 1001 L 738 1003.9 L 739.4 1006 L 742.3 1007.4 L 744.2 1008.7 L 745.1 1009.9 L 745.2 1010.8 L 744.7 1011.3 L 745.5 1012.8 L 747.4 1015.3 L 748.3 1018.1 L 748 1021.4 L 748.2 1023.6 L 749 1024.8 L 749.1 1025.7 L 748.6 1026.3 L 748.6 1027.3 L 749.2 1029.4 L 742.3 1031.8 L 739.9 1031.8 L 739.9 1030.2 L 739.3 1029.4 L 738.3 1029.3 L 737 1030.3 L 735.4 1032.3 L 733.9 1033 L 732.6 1032.4 L 731.6 1032.4 L 730.9 1033 L 730.6 1034.3 L 730.6 1036.3 L 731 1038 L 731.8 1039.2 L 731.7 1040.4 L 730.6 1041.6 L 730.5 1042.7 L 731.5 1043.8 L 732.3 1046.7 L 732.9 1051.4 L 731.8 1053.4 L 729 1052.9 L 726.3 1053.7 L 723.6 1055.7 L 722.5 1057.8 L 723 1060.2 L 724 1062 L 725.5 1063.3 L 726.1 1064.7 L 726.1 1066.1 L 726.6 1067.1 L 728.5 1068.2" />
<path class="river" d="M 917.4 1173.2 L 916.3 1175.1 L 913.9 1177 L 912.6 1180.4 L 912 1187.8 L 912.5 1191.1 M 917.4 1173.2 L 917.5 1187.5 M 922.2 1163.8 L 920.1 1164.2 L 918.3 1165 L 916.7 1166.1 L 915.9 1167 L 915.9 1167.9 L 914.9 1168.9 L 912.9 1169.9 L 910.4 1169.7 L 907.4 1168.4 L 903.9 1168.2 L 897.3 1169.1 M 922.2 1163.8 L 920.6 1165.4 L 919.5 1166.5 L 919 1167.4 L 919.1 1168 L 919.7 1168.4 L 919.6 1169.1 L 918.8 1170.1 L 918 1170.6 L 917.4 1170.6 L 917.2 1171.5 L 917.4 1173.2 M 924.8 1159.2 L 926 1163.2 L 925.6 1165.4 L 923.9 1167 L 922.7 1169 L 921.9 1171.4 L 922.3 1173 L 924 1173.8 L 925.2 1175.4 L 925.8 1177.7 L 927 1179.9 L 928.7 1183 L 928.8 1185.7 L 928.7 1187 L 928.7 1187.7 L 928.8 1189.8 M 484.4 1068.9 L 486.2 1067.2 L 487.3 1065.2 L 488.3 1062.1 L 488.2 1059.6 L 486.4 1056.7 L 486.7 1052 L 485.7 1047.8 L 483.3 1042.6 L 482.3 1039.4 L 482.8 1038.2 L 484.1 1037.5 L 486.1 1037.2 L 487 1036.6 L 486.7 1035.4 L 487.5 1034.8 L 489.3 1034.8 L 490.8 1034.2 L 492.1 1032.9 L 493.8 1032.3 L 496.2 1032.6 L 497.5 1033.2 L 498 1033.5 L 498.7 1033.7 L 499.2 1033.4 L 501.7 1031.2 L 503.9 1030.2 L 505.6 1030.4 L 506.5 1029.8 L 507 1029.3 L 508.1 1028.8 L 511.8 1028.4 L 514.9 1025.8 L 517.5 1021 L 519.8 1018.6 L 521.7 1018.5 L 523.5 1017.7 L 525.1 1016.3 L 525.6 1014.1 L 525 1011.2 L 526.3 1009.6 L 529.5 1009.1 L 532.3 1007.4 L 534.7 1004.4 L 537.5 1001.9 L 540.6 999.8 L 543 997.2 L 544.7 994 L 546.9 991.1 L 549.6 988.6 L 551.5 985.2 L 552.7 981 L 554.9 978.8 L 558.2 978.5 L 562.5 975.7 L 568 970.3 L 572.4 966.6 L 577.5 963.6 L 580.8 961 L 584.9 960.1 L 590.9 959.9 L 595.6 958.9 L 598.9 956.9 L 601.2 954.7 L 602.6 952.2 L 604.4 951.2 L 607.5 951 L 610.4 950.3 L 615.3 946.7 L 619.4 944.8 L 622.7 944.6 L 625 943.6 L 626.3 941.8 L 630.5 939.9 L 637.8 937.8 L 641.9 937 L 643.5 936.8 L 645.4 935.8 L 650.8 929.8 L 652.9 924.2 L 654.8 921.3 L 657.2 919.3 L 657.9 916.5 L 656.4 911.2 L 657.1 910.9 L 658.1 910.5 L 659.7 909.3 L 660.5 908.3 L 660.5 907.3 L 659.6 906.7 L 657.8 906.4 L 657.9 905.5 L 661.1 903 L 661.3 902.6 L 659.4 902 L 659.7 901.5 L 660.7 901.2 L 662.3 900.9 L 663.2 899.7 L 663.3 897.5 L 664 896.1 L 665.2 895.6 L 666.2 894.4 L 666.8 892.7 L 668.6 891.7 M 875.6 1049.1 L 876.1 1051.9 L 875.7 1054.1 L 874.8 1056.6 L 874.6 1059.1 L 875.3 1061.6 L 876.3 1063.2 L 877.8 1063.8 L 878.8 1065 L 879.1 1066.6 L 880.8 1067.1 L 883.8 1066.5 L 886.6 1067.3 L 889.2 1069.7 L 892.6 1071.4 L 896.7 1072.4 L 900.5 1074.1 L 905.6 1077.7 L 911.1 1077.4 L 914.6 1077.7 L 918 1078.5 L 920.4 1080.6 L 921.8 1084 L 923.9 1087 L 926.7 1089.8 L 928.8 1092.9 L 930.2 1096.5 L 930.4 1101.9 L 928.7 1112.9 L 927.5 1122.8 L 927.4 1128.6 L 928.2 1136.3 L 929.5 1142.4 L 928.6 1148.1 L 924.8 1159.2 L 923.2 1161.2 L 922.8 1162.3 L 923.1 1163.1 L 922.2 1163.8 M 648.2 905.4 L 647.3 902.5 L 647.8 900.9 L 649.5 899.7 L 650.6 898.1 L 651.2 896.3 L 652.4 895.6 L 654.2 896.1 L 656.9 894.8 L 660.4 891.7 L 663.8 890 L 667.2 889.7 L 669.5 888.8 M 668.6 891.7 L 669.5 888.8 M 669.5 888.8 L 670.6 887.1 L 671.7 886.2 L 672.9 886.1 L 673.5 885.4 L 673.5 884.3 L 674.7 883 L 675.7 882.5 M 675.7 882.5 L 676.6 885.2 L 676.6 886.4 L 676.1 887.1 L 675.4 887.6 L 674.5 887.8 L 673.7 888.7 L 673 890.3 L 671.3 891.3 L 668.6 891.7 M 675.7 882.5 L 677.1 881.7 L 678.7 879.8 L 679.3 877.4 L 680.7 876.3 L 682.7 876.5 L 687.9 875.3 L 696.4 872.7 L 701.8 871.5 L 704.3 871.8 L 705.8 871.6 L 706.3 870.9 L 709.5 869.6 L 715.4 867.7 L 720.9 866.5 L 725.9 866 L 729.3 866.2 L 731 867.2 L 733.2 867.5 L 736 867.2 L 738.2 867.6 L 739.8 868.7 L 742.5 869 L 746.2 868.5 L 749 870.6 L 750.9 875.3 L 752.6 878.2 L 754 879.3 L 755.5 882 L 757.9 888.5 L 761.4 893.3 L 764.4 896.1 L 767.9 898.6 L 769.8 901 L 770 903.4 L 771.7 905.3 L 774.9 906.7 L 776.6 907.9 L 776.9 908.9 L 776.3 911.1 L 775 914.7 L 774.5 917.2 L 775 918.7 L 776.2 919.7 L 778.1 920.2 L 779.6 921.9 L 780.5 924.7 L 782.4 927.8 L 785.2 931.1 L 788.6 934.1 L 792.5 936.7 L 795.1 940.1 L 796.3 944.3 L 798.1 947.7 L 800.3 950.3 L 803.9 952.7 L 808.8 955.1 L 811.9 957.2 L 813.1 959 L 814.7 960.5 L 816.6 961.7 L 817.8 964.8 L 818.2 969.9 L 819.3 973.9 L 821.2 976.8 L 822 978.8 L 821.7 979.7 L 821.8 980.7 L 822.5 981.3 L 823.3 981.2 L 823.9 980.7 L 824.4 980.7 L 824.7 981.2 L 825.4 981.4 L 826.3 981.2 L 827 981.5 L 827.5 982.8 L 828.3 983.7 L 829.5 984.1 L 830.2 984.6 L 838 991.7 L 841 995 L 841.8 996.6 L 843.4 997.8 L 845.6 998.5 L 847.7 1000.2 L 849.4 1002.5 L 851.9 1004.4 L 855.9 1005.7 L 860.2 1007.9 L 863.1 1010.3 L 865.8 1013.6 L 869 1015.9 L 872.7 1017.3 L 875.5 1019.1 L 877.2 1021.3 L 877.6 1024.4 L 876.4 1030.2" />
<path class="river" d="M 938.9 161.7 L 944.4 162.8 L 946.9 162.2 L 948.8 159.5 L 951.8 158.1 L 953 156.2 L 953.3 153.2 L 954.7 151 L 957.1 149.4 L 960.9 148.7 L 966.3 148.7 L 970.7 149.2 L 974.3 150.2 L 976.7 151.4 L 977.9 152.9 L 982.1 152.9 L 992.7 150.7 L 998.8 151.7 L 999.9 151.9 L 1001 151.3 L 1002.5 151 L 1003.6 151.4 L 1004.8 152.1 L 1005.7 152.2 L 1006.2 151.6 L 1006.9 151.6 L 1007.8 152.2 L 1008.5 152.1 L 1009.2 151.3 L 1010.1 150.9 L 1011.5 151 L 1012.7 151.6 L 1013.8 152.7 L 1016.4 153.6 L 1020.6 154.2 L 1023.4 155 L 1025 155.9 L 1026.7 156.1 L 1028.5 155.5 L 1029.4 154.6 L 1029.6 153.5 L 1031.3 152.8 L 1034.7 152.4 L 1038.5 152.4 L 1042.7 152.6 L 1045.9 153.5 L 1047.9 155.1 L 1050.2 156.1 L 1052.6 156.7 L 1055.4 156.4 L 1060.1 154.6 L 1065.6 153.8 L 1068.5 153.9 L 1070.6 154.9 L 1073 155.3 L 1076.7 155.1" />
<path class="river" d="M 875.4 187.1 L 872.8 187.3 L 871.5 187.8 L 870.9 188.6 L 870.8 189.2 L 871 189.6 L 870.7 190.1 L 869.3 190.9 L 869.1 191.7 L 870.1 193.8 M 914 123.6 L 908.1 125.7 L 905.9 128.5 L 905.3 132.6 L 904.2 135.5 L 902.4 137 L 899.7 136.3 L 896.3 133.3 L 894 132.7 L 892.4 133.6 L 890 133.9 L 886.6 133.4 L 883.9 133.7 L 881.8 134.6 L 880.6 136.1 L 880.3 138.1 L 880.5 139.4 L 881.4 140 L 881.1 141.2 L 879.6 143.1 L 879.8 146.9 L 881.5 152.7 L 881.7 156.5 L 880.2 158.5 L 879.5 160.3 L 879.7 162.1 L 879.3 163.5 L 878 165.1 L 876.8 170.8 L 876.9 173.9 L 877.8 176.3 L 879 177.9 L 880.6 178.7 L 881.1 179.4 L 880.6 180.4 L 877.2 182.1 L 875.9 184.1 L 875.4 187 L 875.7 188.9 L 877.4 190.5 L 878.1 191.1 L 878.4 192.3 L 878.6 193.8 L 879.7 195 M 967.9 116.5 L 963.3 119.3 L 960.4 120.3 L 956.4 120.5 L 952.7 120.5 L 948.1 121.7 L 941.3 124.3 L 938.3 124.9 L 936.6 123.8 L 932.7 118.5" />
<path class="river" d="M 480.4 949.5 L 479.8 949.2 L 478.8 948.9 L 477.3 947.5 L 476 944.5 L 474.3 942.7 L 472.2 941.9 L 471.4 941.1 L 471.8 940.3 L 471.8 938.9 L 471.2 937 L 470 935.1 L 468.2 933.2 L 465.5 931.3 L 461.9 929.6 L 458.8 928.6 L 456.2 928.2 L 453.8 927.3 L 450.6 925.2 L 444.4 923 L 441.7 921.2 L 440.4 919 L 438.3 917.3 L 435.4 916.2 L 433.4 915 L 432.5 913.6 L 431.4 912.6 L 430.3 912.2 L 430.2 911.7 L 430.5 911 L 430.2 909.7 L 428.4 906.8 L 426.8 905.5 L 425.4 905.7 L 424.7 905.3 L 424.2 904.7 L 424 903.8 L 423.1 903 L 421.4 902.6 L 420.1 900.5 L 419.1 896.6 L 417.8 893.5 L 416.3 891.4 L 415.1 890.5 L 414.3 890.4 L 414 890.1 L 413.8 889.4 L 412.5 889.2 L 410.8 889.9 L 409.2 889.6 L 408.5 888.6 L 407.4 888.5 L 406.1 889.4 L 404.6 889.1 L 402.9 887.7 L 402 886.3 L 401.9 884.9 L 399 882.2 L 393.6 878.1 L 387.6 876.2 L 381.2 876.4 L 377.6 876.2 L 376.8 875.6 L 376 875.6 L 375.2 876.4 L 374.3 876.5 L 373.4 876.1 L 372.9 876.4 L 372.7 877.5 L 370.4 878 L 366.1 878 L 362.6 878.7 L 359.9 880 L 356.2 880.5 L 351.3 880.3 L 348.4 879.9 L 347.4 879.1 L 346 878.9 L 344.2 879.3 L 342.6 881.4 L 341.2 885 L 340 887.1 L 339 887.7 L 338 890.4 L 337.5 895 L 336.6 897" />
<path class="river" d="M 605.1 285.4 L 596.7 287.6 L 591.4 288.1 L 586.5 287.5 L 582.1 287.8 L 576.5 289.7 M 688.2 268.2 L 682.4 274.6 L 678.8 277.6 L 675.6 279.4 L 671.7 280.4 L 667 280.6 L 662.6 281.7 L 658.4 283.7 L 654.4 284.6 L 650.5 284.7 L 647.8 285.7 L 645 285 L 639.9 282.9 L 636.6 282.1 L 635.1 282.4 L 633.3 283.6 L 631 285.7 L 628.6 286.6 L 624.9 286.4 M 709.3 266.3 L 705.3 262.6 L 703.2 261.3 L 700.7 260.9 L 692.2 263.2" />
<path class="river" d="M 576.5 289.7 L 567.9 289.7 L 562.9 290.9 L 558.4 293.3 L 554.5 294.5 L 549.3 294.7 L 544.5 295.2 L 540.8 297.6 L 537.2 300.7 L 535.1 304.1 L 533.9 305.1" />
<path class="river" d="M 1271.7 122.1 L 1269.4 124.6 L 1268.9 125.3 L 1268.8 125.8 L 1269.2 126.8 L 1269 127.6 L 1268.7 128.1 L 1269.2 128.8 L 1269.8 129.6 L 1270.3 130.8 L 1270.3 131.6 L 1269.7 132 L 1269.8 133 L 1270.7 134.4 L 1270.6 135.4 L 1270 135.8 L 1269.3 136.7 L 1269 138.2 L 1269.8 139.9 L 1272 142 L 1272.8 143.3 L 1272.5 143.9 L 1273.1 145.4 L 1274.5 147.7 L 1275 149.4 L 1274.4 151.1" />
<path class="river" d="M 794.8 194.6 L 794.8 194.6 L 793.7 192.1 L 793.7 190.2 L 792.5 187.7 L 788.9 182.8 L 785.3 178.9 L 779.7 176.5 L 770.7 174.2 L 766 172.2 L 765.5 170.4 L 764.3 169 L 761.3 167.4 L 757.9 165.4 L 755.2 164.8 L 752.1 164.8 L 749 163.5 L 744.2 159.5 L 743.5 158.6 L 743.3 157.8 L 744 156.9 L 744.1 155.5 L 743.8 154.2" />
<path class="river" d="M 836.3 103.7 L 834.7 99.5 L 832 96 L 831.5 94.1 L 832.1 92.5 L 831.2 90.6 L 828.8 88.3 L 824.4 85.7 L 817.9 82.9 L 812.4 81.1 L 808 80.5 L 804.8 80.6 L 802.8 81.3 L 798.7 83.9 L 792.5 88.4 L 787.3 91.3 L 783 92.5 L 778.6 93.2 L 774 93.5 L 768.7 94.6 L 763.1 97.1 L 759.7 97.8 L 756.8 97 L 752.3 94 L 747.1 93.1 L 739.2 93.9 L 730.9 93.8 L 726 94.8 L 721.7 96.8 L 718.1 97.8 L 716.2 98.2 L 713.4 97.8 M 836.3 103.7 L 838.5 103.9 L 840.5 104.6 L 842.6 107.2 L 846.7 107.7 L 850.1 109.9 L 852.6 112.5 L 853.3 114.6 L 856.1 115.9 L 859.2 117.1 L 859.4 119.1 L 860.7 122.7 L 862.2 124.6 L 862.2 127.2 L 860.5 129.4 L 861 130.7 L 863.7 132.6 L 865.1 135.3 L 865.2 138.3 L 866.2 142.1 L 864.8 144.9 L 863 146.4 L 861.8 148.2 L 858.5 149.2 L 857.4 151.3 L 857.7 153.3 L 857.2 155 L 857.8 157.5 L 861.5 159.1 L 864 160 L 864.8 158.8" />
<g class="city"><circle cx="663.9217824776977" cy="271.36950123019085" r="5" /><text x="675.9217824776977" y="275.36950123019085">Madrid</text></g>
<g class="city"><circle cx="813.3425853040279" cy="246.32630571135607" r="5" /><text x="825.3425853040279" y="250.32630571135607">Barcelona</text></g>
<g class="city"><circle cx="835.4290591720278" cy="364.00005797015734" r="5" /><text x="847.4290591720278" y="368.00005797015734">Algiers</text></g>
<g class="city"><circle cx="1075.6727154401106" cy="233.2693322308482" r="5" /><text x="1087.6727154401106" y="237.2693322308482">Rome</text></g>
<g class="city"><circle cx="563.7509360630135" cy="444.5614648942525" r="5" /><text x="575.7509360630135" y="448.5614648942525">Casablanca</text></g>
<g class="city"><circle cx="974.7325712610757" cy="994.6965730113646" r="5" /><text x="986.7325712610757" y="998.6965730113646">Kano</text></g>
<g class="city"><circle cx="992.1782477697684" cy="142.24185908246457" r="5" /><text x="1004.1782477697684" y="146.24185908246457">Milan</text></g>
<g class="city"><circle cx="524.8212600652554" cy="314.0890989139758" r="5" /><text x="536.8212600652554" y="318.0890989139758">Lisbon</text></g>
<text class="map-title" x="80" y="105">Algeria Physical Study Map</text>
<text class="map-subtitle" x="80" y="145">Landmark: Monument of Martyrs | Study terrain and water systems</text>
  <text class="footer" x="80" y="1036">Made with Natural Earth. Free vector and raster map data @ naturalearthdata.com.</text>
</svg>
