<?xml version="1.0" encoding="UTF-8"?>
<svg xmlns="http://www.w3.org/2000/svg" width="1600" height="1100" viewBox="0 0 1600 1100" role="img" aria-labelledby="title desc">
  <title id="title">Ecuador Physical Study Map</title>
  <desc id="desc">Made with Natural Earth. Free vector and raster map data @ naturalearthdata.com.</desc>
  <defs>
    <linearGradient id="terrain" x1="0" x2="1" y1="0" y2="1">
      <stop offset="0%" stop-color="#6c8c53" />
      <stop offset="42%" stop-color="#d5c487" />
      <stop offset="72%" stop-color="#b88b5f" />
      <stop offset="100%" stop-color="#f1f5ee" />
    </linearGradient>
    <filter id="softShadow" x="-10%" y="-10%" width="120%" height="120%">
      <feDropShadow dx="0" dy="10" stdDeviation="12" flood-color="#0f172a" flood-opacity="0.16" />
    </filter>
    <style>
      .neighbor { fill: #ffffff; stroke: #94a3b8; stroke-width: 1.2; opacity: 0.72; }
      .country { fill: url(#terrain); stroke: #1f2937; stroke-width: 4; filter: url(#softShadow); }
      .admin1 { fill: none; stroke: #64748b; stroke-width: 1.1; stroke-dasharray: 6 7; opacity: 0.75; }
      .river { fill: none; stroke: #1d9bd1; stroke-width: 3; stroke-linecap: round; opacity: 0.88; }
      .lake { fill: #8ed1ea; stroke: #0ea5e9; stroke-width: 1.5; opacity: 0.8; }
      .city circle { fill: #ef4444; stroke: #ffffff; stroke-width: 2; }
      .city text, .terrain-label { fill: #172033; font: 700 24px system-ui, sans-serif; paint-order: stroke; stroke: #ffffff; stroke-width: 5; stroke-linejoin: round; }
      .map-title { fill: #0f172a; font: 800 46px system-ui, sans-serif; }
      .map-subtitle { fill: #475569; font: 600 24px system-ui, sans-serif; }
      .footer { fill: #64748b; font: 500 18px system-ui, sans-serif; }
    </style>
  </defs>
  <rect width="100%" height="100%" fill="#d8edf0" />
  <rect x="40" y="40" width="1520" height="1020" rx="32" fill="#ffffff" opacity="0.54" />
  <path class="neighbor" d="M 2594.1 2905.2 L 2574 2864.2 L 2606 2829.7 L 2564 2780.4 L 2507.1 2740.3 L 2432.4 2693.8 L 2405.5 2695.9 L 2332.7 2639.8 L 2285.6 2647.5 L 2382.4 2548.6 L 2464.3 2478.2 L 2513 2448.6 L 2574.1 2408.6 L 2575.6 2350.7 L 2539.2 2308.8 L 2503.3 2322.7 L 2517.5 2280.8 L 2527.3 2237.9 L 2527.4 2198 L 2501.3 2184.9 L 2474 2196.6 L 2447 2193.4 L 2438.5 2165.4 L 2431.8 2099 L 2418.2 2077.3 L 2369.2 2057.7 L 2339.6 2071.9 L 2263 2057.9 L 2267.8 1959.4 L 2246.3 1919.1 L 2269 1904.1 L 2262 1862.8 L 2281.9 1831 L 2294.8 1773.8 L 2277.7 1728.7 L 2238 1708.3 L 2230.2 1679.7 L 2240.9 1637.8 L 2101.8 1634.8 L 2073.9 1550.3 L 2095.1 1549.1 L 2094.1 1517.8 L 2080 1496.6 L 2076.8 1454.7 L 2034.6 1433.2 L 1989 1433.9 L 1959 1412.8 L 1909.9 1398.4 L 1881.4 1371.3 L 1800.1 1359.4 L 1721.3 1294.4 L 1727.2 1245.7 L 1718.2 1217.8 L 1726 1163.5 L 1631 1175.8 L 1592.8 1203 L 1529.4 1232.4 L 1513.2 1254.3 L 1475.8 1255.9 L 1421.9 1249.8 L 1380.9 1262.3 L 1347.9 1254 L 1352.8 1143.7 L 1293.3 1186.5 L 1229.2 1184.6 L 1201.8 1145.9 L 1153.6 1141.7 L 1169 1110.6 L 1128.6 1066.4 L 1098.5 1001.1 L 1117.6 987.8 L 1117.5 957.2 L 1161.4 936.2 L 1154.1 897 L 1172.7 871.7 L 1177.9 837.9 L 1260.9 788.5 L 1320.4 774.5 L 1330.1 763.6 L 1395.5 767 L 1428.1 568.1 L 1429.8 536.6 L 1418.4 495.1 L 1386.2 468.6 L 1386.6 415.9 L 1427.5 404 L 1442 411.5 L 1444.4 383.7 L 1401.9 376.2 L 1401 330.8 L 1542.4 332.4 L 1566.4 307.4 L 1586.5 330.4 L 1600.7 373.2 L 1614.4 364.3 L 1654.3 402.6 L 1710.7 397.9 L 1724.8 375.7 L 1778.7 358.8 L 1808.6 346.9 L 1817 316.2 L 1868.9 295.5 L 1864.9 280.3 L 1803.5 274 L 1793.4 228.3 L 1796.3 179.7 L 1763.9 160.9 L 1777.5 154.2 L 1831.2 163.5 L 1888.9 181.6 L 1909.8 164.5 L 1962 153.2 L 2043.1 126.1 L 2069.7 98.4 L 2060.1 77.9 L 2097.8 74.7 L 2114.7 91.4 L 2105.2 123.3 L 2130.2 134.2 L 2146.8 168 L 2126.7 193.5 L 2115.1 255.3 L 2133.7 292 L 2139 325.5 L 2183.6 359.6 L 2219.2 363.2 L 2227.2 349 L 2250.2 345.8 L 2283 333.1 L 2306.6 313.8 L 2346.7 320 L 2364.4 317.4 L 2403.8 323.3 L 2410.4 308.5 L 2398.2 294.1 L 2405.4 273.1 L 2434.7 279.5 L 2469 272.1 L 2510.5 287.5 L 2542.2 302.4 L 2564.7 282.8 L 2580.9 285.8 L 2590.8 306.2 L 2625.6 301 L 2653.4 273.5 L 2675.6 220 L 2718.6 153.6 L 2743.3 150.2 L 2761.2 190.3 L 2801.9 317.2 L 2840.7 329.2 L 2842.7 379.3 L 2788.1 439 L 2810.7 460.9 L 2938.9 472.3 L 2941.5 545 L 2996.6 497.4 L 3087.9 523.5 L 3208.5 567.8 L 3243.9 610.3 L 3232 650.5 L 3316.3 628.1 L 3457.5 666.5 L 3565.9 663.6 L 3673.2 723.7 L 3765.9 805 L 3821.7 825.9 L 3883.8 828.8 L 3910.1 851.7 L 3934.7 944.1 L 3946.7 988 L 3917.9 1107.9 L 3880.9 1155.3 L 3778.7 1256.2 L 3732.4 1338.3 L 3678.7 1401.2 L 3660.6 1402.6 L 3640.3 1456 L 3645.5 1591.9 L 3625.3 1703.7 L 3617.5 1751.6 L 3594.6 1780.2 L 3581.7 1877.2 L 3508.2 1971.9 L 3495.8 2046.8 L 3437.1 2078.3 L 3420.1 2121.8 L 3341.3 2121.6 L 3227.2 2149.5 L 3176.1 2181.8 L 3094.8 2203 L 3009.4 2260.7 L 2948 2332.7 L 2937.4 2386.9 L 2949.5 2426.9 L 2936 2500.2 L 2919.5 2535.6 L 2868.8 2575.6 L 2788.3 2703.3 L 2724.5 2760.8 L 2675.1 2794.7 L 2642.1 2863.8 L 2594.1 2905.2 Z" />
<path class="neighbor" d="M 1395.5 767 L 1330.1 763.6 L 1320.4 774.5 L 1260.9 788.5 L 1177.9 837.9 L 1172.7 871.7 L 1154.1 897 L 1161.4 936.2 L 1117.5 957.2 L 1117.6 987.8 L 1098.5 1001.1 L 1128.6 1066.4 L 1169 1110.6 L 1153.6 1141.7 L 1201.8 1145.9 L 1229.2 1184.6 L 1293.3 1186.5 L 1352.8 1143.7 L 1347.9 1254 L 1380.9 1262.3 L 1421.9 1249.8 L 1484.6 1366.6 L 1469 1391.1 L 1465.4 1442.1 L 1464 1503.9 L 1435.7 1540.1 L 1448.7 1567 L 1432 1591.4 L 1463.2 1652.4 L 1417.5 1730.7 L 1398 1767.9 L 1360.7 1786.4 L 1288 1744.8 L 1281.7 1715 L 1137.8 1642.1 L 1007.7 1562.8 L 951.8 1518.1 L 921.7 1458.1 L 933.6 1437.2 L 872.2 1342 L 800.6 1208.1 L 732.1 1063.7 L 702.4 1030.6 L 679.6 977.2 L 623.2 929.8 L 571.5 900.4 L 595 868.1 L 559.8 798.9 L 582.4 748.1 L 640.2 702.2 L 648.8 732.4 L 628.2 749.7 L 630.1 776.3 L 660.1 770.5 L 689.4 778.4 L 719.9 815 L 760.9 785.2 L 774.6 736.2 L 819.1 673.1 L 906.3 644.5 L 985.4 568.5 L 1008 521.3 L 997.9 466.2 L 1017.2 459.3 L 1065.5 493.7 L 1088.6 528 L 1122.2 546.6 L 1165 622.7 L 1219 631.8 L 1259 612.6 L 1285.2 625.2 L 1328.7 618.9 L 1384.3 652.9 L 1337.5 726.8 L 1359.2 728.5 L 1395.5 767 Z" />
<path class="neighbor" d="M 1614.4 364.3 L 1600.7 373.2 L 1586.5 330.4 L 1566.4 307.4 L 1542.4 332.4 L 1401 330.8 L 1401.9 376.2 L 1444.4 383.7 L 1442 411.5 L 1427.5 404 L 1386.6 415.9 L 1386.2 468.6 L 1418.4 495.1 L 1429.8 536.6 L 1428.1 568.1 L 1395.5 767 L 1359.2 728.5 L 1337.5 726.8 L 1384.3 652.9 L 1328.7 618.9 L 1285.2 625.2 L 1259 612.6 L 1219 631.8 L 1165 622.7 L 1122.2 546.6 L 1088.6 528 L 1065.5 493.7 L 1017.2 459.3 L 997.9 466.2 L 966.8 449 L 931.2 425 L 910.6 436.6 L 849 426.5 L 831.4 395.3 L 817.8 396.4 L 745.3 355 L 735.4 332.5 L 762.5 327 L 759.3 290.7 L 776.3 264.4 L 812.3 259.5 L 842.8 213.9 L 870.6 175.9 L 843.9 158.6 L 857.5 116.5 L 841.2 50.1 L 856.7 31.1 L 845.3 -30.3 L 815.9 -68.9 L 825.2 -104.2 L 848.6 -99 L 862.3 -120.5 L 845.4 -163.3 L 854.2 -173.9 L 891.7 -171.6 L 946.2 -222.2 L 976 -230 L 976.7 -254 L 990.1 -315.3 L 1031.7 -348.9 L 1077.4 -350.3 L 1083.2 -365.4 L 1140 -359.4 L 1197.1 -396 L 1225.4 -412.2 L 1260.5 -447.2 L 1286.2 -442.7 L 1305.2 -423.7 L 1291.1 -399.2 L 1244.5 -387.1 L 1226.1 -350.8 L 1198 -330 L 1177 -303 L 1168.1 -251.3 L 1148 -208.8 L 1185.4 -204 L 1194.7 -170.6 L 1210.7 -154.6 L 1216.5 -125.4 L 1207.8 -98.6 L 1210.4 -83.4 L 1228.2 -77.4 L 1245.5 -52.1 L 1338.8 -59.1 L 1381 -49.8 L 1432 12.6 L 1461.4 4.9 L 1513.6 8.7 L 1555 0.5 L 1580.6 12.9 L 1567.6 52 L 1551.4 76.4 L 1545.7 128.4 L 1560.3 176.6 L 1580.9 198.2 L 1583.4 214.4 L 1546.6 250.5 L 1573 266.5 L 1592.3 291.9 L 1614.4 364.3 Z" />
<path class="neighbor" d="M 2060.1 77.9 L 2069.7 98.4 L 2043.1 126.1 L 1962 153.2 L 1909.8 164.5 L 1888.9 181.6 L 1831.2 163.5 L 1777.5 154.2 L 1763.9 160.9 L 1796.3 179.7 L 1793.4 228.3 L 1803.5 274 L 1864.9 280.3 L 1868.9 295.5 L 1817 316.2 L 1808.6 346.9 L 1778.7 358.8 L 1724.8 375.7 L 1710.7 397.9 L 1654.3 402.6 L 1614.4 364.3 L 1592.3 291.9 L 1573 266.5 L 1546.6 250.5 L 1583.4 214.4 L 1580.9 198.2 L 1560.3 176.6 L 1545.7 128.4 L 1551.4 76.4 L 1567.6 52 L 1580.6 12.9 L 1555 0.5 L 1513.6 8.7 L 1461.4 4.9 L 1432 12.6 L 1381 -49.8 L 1338.8 -59.1 L 1245.5 -52.1 L 1228.2 -77.4 L 1210.4 -83.4 L 1207.8 -98.6 L 1216.5 -125.4 L 1210.7 -154.6 L 1194.7 -170.6 L 1185.4 -204 L 1148 -208.8 L 1168.1 -251.3 L 1177 -303 L 1198 -330 L 1226.1 -350.8 L 1244.5 -387.1 L 1291.1 -399.2 L 1289.1 -382.1 L 1246.5 -373.6 L 1270.1 -340.7 L 1269.3 -302.7 L 1237.3 -260.6 L 1264.7 -203 L 1296 -207.8 L 1312.3 -260.2 L 1289.8 -285.7 L 1286.1 -340.7 L 1376.5 -370.2 L 1366.4 -404.3 L 1391.9 -427.2 L 1417.9 -376.3 L 1468.8 -375.1 L 1515.9 -334.6 L 1518.8 -310.6 L 1583.9 -310 L 1661.4 -317.4 L 1703 -284.9 L 1758.5 -276 L 1799.2 -298.6 L 1800 -316.9 L 1889.9 -321.3 L 1976.8 -322.3 L 1915.2 -300.8 L 1940 -266.6 L 1998 -261.1 L 2053 -225.5 L 2064.6 -167.3 L 2102.4 -169 L 2130.8 -151.9 L 2073.3 -109.3 L 2067 -82.8 L 2091.8 -55.9 L 2073.8 -42.3 L 2029.2 -30.6 L 2030.6 2.9 L 2011 22.8 L 2060.1 77.9 Z" />

<path class="country" d="M 997.9 466.2 L 1008 521.3 L 985.4 568.5 L 906.3 644.5 L 819.1 673.1 L 774.6 736.2 L 760.9 785.2 L 719.9 815 L 689.4 778.4 L 660.1 770.5 L 630.1 776.3 L 628.2 749.7 L 648.8 732.4 L 640.2 702.2 L 678.9 648 L 663.2 616.3 L 635.4 650 L 592 618.2 L 606.7 597.8 L 594.5 531.9 L 619.9 521 L 633.2 475.8 L 660.7 429 L 655.6 399.4 L 695.4 383.9 L 745.3 355 L 817.8 396.4 L 831.4 395.3 L 849 426.5 L 910.6 436.6 L 931.2 425 L 966.8 449 L 997.9 466.2 Z" />

<path class="river" d="M 2645.5 567.8 L 2630.3 572.1 L 2621.2 576.2 L 2610.7 583.2 L 2595.2 588.6 L 2574.8 592.4 L 2560 597.3 L 2550.7 603.1 L 2545.4 610.5 L 2544 619.7 L 2535.1 626.2 L 2514.7 632.2 L 2510.5 632.2 L 2507.7 632.3 L 2502.3 630.7 L 2499.6 626.4 L 2499.7 618.7 L 2498.3 613.7 L 2495.4 611.3 L 2491 609 L 2485.3 606.7 L 2479.2 607.9 L 2472.8 612.4 L 2465.2 613.4 L 2456.5 610.8 L 2448.8 606.3 L 2442.8 599.3 L 2438.7 596.6 L 2435.8 594.8 L 2432.1 594.4 L 2427.5 595 L 2422.7 597.7 L 2415.1 599.6 L 2404.9 600.7 L 2394.1 606.1 L 2382.9 615.7 L 2374.4 624.7 L 2368.7 633.2 L 2363.7 638.5 L 2359.5 640.7 L 2354.4 642 L 2348.7 642.5 L 2342 641.4 L 2334.5 638.6 L 2327.4 638.3 L 2320.6 640.3 L 2313.2 638.5 L 2305.3 632.8 L 2299 629.7 L 2294.3 629 L 2287 635.2 L 2277.3 648.3 L 2266.9 657.2 L 2255.9 661.8 L 2248.6 669.9 L 2245.1 681.3 L 2241.4 687.4 L 2239 688.4 L 2235.5 688.2 L 2230.8 687.5 L 2225.6 686 L 2218.5 687.7 L 2211.8 694.9 L 2208.4 697.7 L 2200 698 L 2193.8 696.3 L 2187.1 692.5 L 2179.2 690.2 L 2170.1 689.4 L 2158.2 686.2 L 2143.5 680.7 L 2132.5 678.5 L 2125.1 679.5 L 2120.8 682.1 L 2120.1 685.3 L 2118.8 687.8 L 2116.4 690.1 L 2105.7 695 L 2098.6 696.5 L 2093 694.8 L 2083.5 694.6 L 2069.9 696 L 2059.1 701.7 L 2051 711.9 L 2038.1 717.1 L 2020.4 717.4 L 2006.8 721.9 L 1997.3 730.6 L 1988.7 736.9 L 1980.9 740.8 L 1976 741.5 L 1967.4 737.8 L 1948.1 728.1 L 1941.5 725 L 1939.6 724.8 L 1937.5 725.9 L 1935.6 731 L 1928.8 734.6 L 1917.1 736.6 L 1905.6 740.9 L 1894.3 747.7 L 1888.6 751.1 L 1884.6 750.6 L 1882.8 748 L 1879.9 743.6 L 1875.1 739.8 L 1863 736 L 1854 734.8 L 1848.2 736.1 L 1841.4 735.9 L 1833.7 734.1 L 1820.5 728.3 L 1801.9 718.7 L 1789.8 710.9 L 1781.3 701.7 L 1765.7 689 L 1757.4 682.2 L 1745.5 670.7 L 1737.5 660.8 L 1729.6 654.5 L 1721.9 651.6 L 1717.2 648.4 L 1715.7 645 L 1710 643.4 L 1695.3 644.1 L 1685.2 636.1 L 1679.6 634.1 L 1675.2 635.5 L 1671 634.9 L 1666.9 632.4 L 1662.7 633.7 L 1658.5 638.9 L 1653.7 639.2 L 1648.6 634.8 L 1643.8 632.2 L 1639.5 631.4 L 1636.4 635 L 1634.7 643 L 1631.5 648.1 L 1626.7 650.5 L 1619.9 652.1 L 1610.9 653.1 L 1599.8 650.8 L 1586.7 645.2 L 1577.5 645.5 L 1572.4 651.6 L 1563.9 656.8 L 1552 661.1 L 1544 667.6 L 1537.8 680.7 L 1538.2 689.1 L 1536.8 693.4 L 1533.7 696.5 L 1526 697.1 L 1513.6 695.1 L 1489.6 697.9 L 1454.2 705.5 L 1434.8 713 L 1431.4 720.4 L 1430.1 728.3 L 1431 736.6 L 1429.5 743.5 L 1425.6 749 L 1425.4 753.5 L 1428.8 757.1 L 1427 761.6 L 1420 767.1 L 1410.6 769.7 L 1398.9 769.4 L 1391.5 766.1 L 1390.2 762.5 L 1386.5 757.2 L 1380.9 752.1 L 1375.6 749.1 L 1373.4 745.1 L 1370.3 736.9 L 1366.1 734.1 L 1363.1 731.9 L 1360.2 732.3 L 1357.2 734.5 L 1352.5 735.9 L 1349.3 735.7 L 1347.3 736 L 1322.4 742.5 L 1311 744.4 L 1305.2 742.8 L 1301.2 738.4 L 1294.6 735.9 L 1285.6 735.4 L 1277.4 732.8 L 1270 728.1 L 1265.2 720 L 1263.1 708.5 L 1260.6 701.5 L 1257.9 698.9 L 1248.9 700.7 L 1233.5 706.8 L 1221.4 709.4 L 1208.1 707.8 L 1188.5 706 L 1178 706.7 L 1170.3 709.4 L 1163.3 713.7 L 1157.1 719.5 L 1154.7 729.7 L 1156.4 744.2 L 1156.1 752.6 L 1154 754.8 L 1150.6 755.3 L 1145.8 753.9 L 1143.6 755 L 1143.7 758.7 L 1142.1 762.2 L 1138.8 765.5 L 1136.5 769.8 L 1134.6 777.7" />
<path class="river" d="M 913.7 358.7 L 913.5 372.5 L 915.6 378.5 L 921.8 382.5 L 933.3 384.1 L 941.9 383.5 L 951.3 381.3 L 958.3 382.9 L 962.7 388.6 L 974.9 394 L 995 399.2 L 1006.7 406.1 L 1009.8 414.8 L 1014.9 419.7 L 1021.8 420.6 L 1025.9 424.7 L 1027.1 431.9 L 1032.8 437.7 L 1042.9 442.1 L 1048.3 448 L 1049 455.4 L 1051.3 460.3 L 1055.1 462.5 L 1059.3 463 L 1064 461.8 L 1068.2 461.9 L 1071.9 463.4 L 1075.3 466 L 1078.5 469.8 L 1085.5 474.3 L 1096.3 479.4 L 1105.9 482.3 L 1114.2 482.9 L 1119.8 484.6 L 1124.4 488.8 L 1132.6 492.6 L 1138.3 493.5 L 1144.3 492.8 L 1149.2 494.1 L 1153.2 497.4 L 1158.9 497.7 L 1166.5 494.8 L 1172.3 494.8 L 1176.4 497.5 L 1180.9 498.1 L 1185.8 496.5 L 1191.6 498.1 L 1198.3 502.6 L 1204.3 502.6 L 1209.4 497.9 L 1213.8 496.9 L 1217.3 499.5 L 1221.9 499.3 L 1227.5 496.1 L 1232.5 498.2 L 1237.1 505.8 L 1243.3 510.7 L 1251.1 513.1 L 1256.9 516.7 L 1260.7 521.5 L 1266.1 523.9 L 1272.9 523.8 L 1275.8 526.1 L 1274.8 530.9 L 1275.3 534 L 1277.2 535.5 L 1280.6 535.8 L 1287.7 534.5 L 1298.7 532.2 L 1305.8 534.7 L 1312.6 541.1 L 1319.2 545.2 L 1325.5 546.8 L 1331.3 549.9 L 1336.5 554.3 L 1342.5 557.5 L 1349.3 559.3 L 1355.8 559.5 L 1361.9 558.1 L 1369.2 559.7 L 1377.5 564.2 L 1382.9 566.2 L 1385.3 565.5 L 1389.5 559.3 L 1395.5 547.7 L 1402.2 543.3 L 1409.5 546.2 L 1416.7 546.3 L 1422.3 544.2 L 1426.8 544.5" />
<path class="river" d="M 1752.7 3270.6 L 1779.8 3273.3 L 1794.8 3275.9 L 1806.6 3279.4 L 1823.9 3287.6 L 1846.7 3300.6 L 1862.5 3307.7 L 1871.2 3309.1 L 1880.1 3312.4 L 1889 3317.5 L 1901.6 3321 L 1917.6 3322.9 L 1930.7 3329 L 1945.8 3344.4 L 1947.9 3346.6 L 1949.8 3348.7 M 1365.8 3015.5 L 1371.6 3037.4 L 1375.7 3047 L 1382.5 3053.6 L 1397.5 3057 L 1405 3064.5 L 1409.9 3077.3 L 1411.6 3086 L 1410.1 3090.6 L 1410 3096.7 L 1411.2 3104 L 1409.9 3110.4 L 1406.1 3115.8 L 1403.4 3123.7 L 1401.8 3134.3 L 1402.5 3141.1 L 1405.3 3144.4 L 1409.6 3147.4 L 1415.3 3150.3 L 1426.7 3152.3 L 1443.9 3153.5 L 1454.8 3157.1 L 1459.2 3163.1 L 1469.7 3167.5 L 1486.4 3170.3 L 1496.5 3173.5 L 1500 3177 L 1513.1 3180.2 L 1535.6 3183.1 L 1548.6 3187.5 L 1552.1 3193.4 L 1551 3199.2 L 1545.2 3205.1 L 1542.6 3210 L 1543.1 3213.9 L 1545.6 3216.3 L 1549.9 3217.3 L 1555.4 3221.1 L 1561.9 3227.9 L 1572 3230.6 L 1585.7 3229.1 L 1594.5 3231.8 L 1598.4 3238.6 L 1605.9 3243.9 L 1622.6 3249.7 L 1630.6 3253.2 L 1634.2 3256.5 L 1636.2 3261 L 1640.3 3263.8 L 1646.4 3264.9 L 1673 3266 L 1685.8 3267.5 L 1695.6 3270.2 L 1702.8 3270.8 L 1707.4 3269.3 L 1713.2 3269.7 L 1720.3 3272 L 1730.9 3272.5 L 1752.1 3270.6 M -1857 -1919.1 L -1861.8 -1907.5 L -1865.6 -1903.1 L -1869.8 -1902.1 L -1874.2 -1897 L -1879 -1887.9 L -1884 -1882 L -1889.1 -1879.3 L -1891.6 -1875.6 L -1891.4 -1870.8 L -1890.8 -1869.7 L -1889.8 -1869.8 L -1888.3 -1869.2 L -1886.3 -1865.7 L -1883.9 -1864 L -1879.8 -1864.1 L -1877.9 -1862.6 L -1875.8 -1860.6 L -1872.4 -1859.4 M -1816.5 -2030 L -1828.5 -2022 L -1835 -2015.4 L -1841.6 -2004.7 L -1840.6 -1996 L -1840.9 -1988.9 L -1842.5 -1983.2 L -1845 -1978 L -1848.4 -1973.2 L -1851.9 -1970.4 L -1855.6 -1969.4 L -1856.9 -1963.1 L -1855.8 -1951.4 L -1851.7 -1944.3 L -1844.6 -1941.8 L -1840.3 -1937.9 L -1838.7 -1932.7 L -1839.3 -1927.6 L -1842.1 -1922.6 L -1846.9 -1919.9 L -1857 -1919.1 M -1847.5 -2109.8 L -1849 -2084 L -1849 -2077.5 L -1845.1 -2069.3 L -1833.5 -2054.4 L -1832.1 -2050.9 M -1858.4 -2157.8 L -1857.8 -2155.6 L -1854.5 -2150.8 L -1854.3 -2143.2 L -1853.8 -2137.2 L -1851.8 -2133.8 L -1851.5 -2130 M -1723.1 -2177.1 L -1747.1 -2165.8 L -1753.5 -2160.2 L -1755.7 -2156.4 L -1755.5 -2144.8 L -1757.9 -2139.7 L -1762.7 -2139.5 L -1774.1 -2142.4 L -1778.2 -2144.5 M -1621.3 -2224.4 L -1629.9 -2218.4 L -1636.5 -2211 L -1644.2 -2200.2 L -1648.8 -2192.2 L -1650.4 -2186.8 L -1649.7 -2180 L -1646.9 -2171.7 L -1647.5 -2165.9 L -1651.6 -2162.6 L -1659.2 -2162.1 L -1670.2 -2164.2 L -1678.1 -2167.8 L -1682.9 -2172.8 L -1686.9 -2174.6 L -1690 -2173.2 L -1692.9 -2173.4 L -1695.5 -2175.2 L -1695.8 -2177.7 L -1693.7 -2180.9 L -1693.5 -2183.3 L -1695 -2185 L -1698.2 -2185.8 L -1702.9 -2185.9 L -1709.8 -2183.7 L -1723.5 -2177.1 M -1214.2 -2458.9 L -1223.1 -2456.2 L -1233.3 -2453.7 L -1244.9 -2453.6 L -1253.3 -2451.5 L -1259.2 -2448.3 L -1267.4 -2441.4 L -1270.5 -2439.3 L -1273.3 -2439 L -1276.9 -2441.2 L -1281.8 -2441.5 L -1287.8 -2439.9 L -1294.6 -2434.5 L -1302 -2425.3 L -1306.4 -2421.1 L -1313.9 -2418.1 L -1336 -2416.4 L -1350 -2416.5 L -1358.2 -2414.8 L -1365.3 -2411.6 L -1377 -2404.2 L -1386.9 -2397.3 L -1392.1 -2387.4 L -1400.8 -2381.7 L -1409.8 -2381 L -1427.5 -2387.8 L -1432.2 -2389 L -1438.4 -2388.8 L -1445.6 -2384.7 L -1456.1 -2376.8 L -1461.1 -2369.7 L -1464.1 -2360.8 L -1468.2 -2355.1 L -1473.4 -2352.8 L -1478.1 -2349.1 L -1482.2 -2344.1 L -1485.1 -2342.1 L -1486.4 -2342.6 L -1487.9 -2341.5 L -1488.9 -2337.1 L -1490.5 -2334.7 L -1492.7 -2334.4 L -1494.3 -2331.9 L -1495.5 -2327.3 L -1498.8 -2322.2 L -1507 -2313.9 L -1523.9 -2299.1 L -1532.5 -2294.3 L -1541.1 -2294.5 M -1213 -2476.3 L -1210.9 -2462.6 L -1211.2 -2460.4" />
<path class="river" d="M 915.6 314.2 L 932 317.6 L 939.4 317.5 L 945.3 313.8 L 967.6 301.5 L 974.9 295.7 L 974.7 292.2 L 976.9 288.5 L 981.5 284.6 L 983.4 281 L 982.6 277.8 L 987.4 268.7 L 997.7 253.9 L 1003.8 238.9 L 1005.7 223.7 L 1013.4 204.1 L 1027.1 180 L 1035.3 162.2 L 1038 150.9 L 1037.8 145.1 L 1034.5 144.8 L 1035.1 134.4 L 1041.6 103.4 L 1042.7 78.7 L 1045.1 65.8 L 1049 56.3 L 1050.6 47.8 L 1049.8 40.2 L 1051.1 32.2 L 1054.3 23.9 L 1055.8 15.9 L 1055.6 8.1 L 1059 0.7 L 1066.1 -6.4 L 1069.6 -13.9 L 1069.5 -21.7 L 1074.5 -28.5 L 1084.6 -34.5 L 1093.6 -41.6 L 1101.7 -50 L 1104.8 -58.4 L 1103 -66.9 L 1104.3 -80.6 L 1108.7 -99.7 L 1109.9 -114.1 L 1107.8 -123.7 L 1108.3 -130.4 L 1112.8 -136.1 M 1112.3 -136.1 L 1114.6 -149.1 L 1113.2 -164 L 1108.9 -185.3 L 1101.7 -197.2 L 1091.5 -200 L 1081.4 -205.3 L 1071.3 -213.2 L 1064.4 -216.8 L 1060.7 -215.9 L 1057 -217.9 L 1053.2 -223 L 1049.4 -226.2 L 1043.7 -228.1 L 1040.5 -229.8 L 1039.8 -233.7 L 1040.5 -240.3 L 1039.1 -247.9 L 1035.6 -256.6 L 1035.1 -263.7 L 1037.8 -269.4 L 1036.6 -274.7 L 1031.4 -279.8 L 1032.8 -290.3 L 1040.8 -306.3 L 1044.8 -319.9 L 1044.7 -331.3 L 1042.3 -340.9 L 1036.3 -350.9" />
<path class="river" d="M 907.7 1174.5 L 900.8 1154.6 L 896.9 1142.5 L 896.8 1134.7 L 899.2 1127 L 891.8 1116.7 L 874.6 1103.6 L 863.6 1091.4 L 858.8 1080.1 L 854.8 1073.5 L 851.5 1071.6 L 848.1 1066.4 L 844.8 1057.7 L 841.1 1051.3 L 836.9 1047.1 L 834.8 1039.7 L 834.7 1029.1 L 827.7 1008.6 L 813.9 978.3 L 806.6 958.4 L 805.9 948.9 L 802.8 939.1 L 797.3 928.9 L 791.4 921.9 L 785.1 917.9 L 780.1 912.3 L 774.7 901.4 L 766.1 897 L 760.6 891.8 L 755.3 884.3 L 756.3 873.3 L 763.5 858.7 L 769 850.3 L 772.6 848.2 L 774.3 843.7 L 774 836.8 L 775.8 832.3 L 779.6 830.4 L 780.7 826.2 L 779.2 819.9 L 779.6 815.3 L 781.9 812.5 L 783 808.6 L 782.9 803.7 L 785.2 800.7 L 789.8 799.4 L 792.3 796.7 L 792.7 792.8 L 795.5 791.3 L 800.7 792.3 L 810.4 788.8 L 824.5 780.8 L 834.6 776.9 L 840.8 776.9 L 845.5 778 L 848.7 780.3 L 850.2 783.6 L 850.2 787.8 L 851.8 790.1 L 855.1 790.6 L 855.7 792 L 854.9 792.7 L 855.4 795 L 857.6 798.3 L 859.4 798.5 L 860.8 795.5 L 867.6 796.7 L 879.7 802.3 L 892 805.1 L 904.6 805.1 L 911.4 806.4 L 912.4 808.7 L 915.4 810.8 L 920.3 812.6 L 926.9 813.2 L 935 812.8 L 939.9 813.9 L 942.5 817.9 L 964 820.8 L 972.5 821.1 L 975.2 819.8 L 977.5 820.2 L 979.3 822.4 L 984.4 818.4 L 992.7 808.2 L 1006.2 802 L 1024.8 799.9 L 1036 795.5 L 1039.8 788.9 L 1045.1 783.8 L 1052.2 780.1 L 1057.7 780.6 L 1061.8 785.3 L 1067.5 789.4 L 1074.9 792.9 L 1079.6 791.7 L 1081.7 785.7 L 1084.7 781.9 L 1088.5 780 L 1093.7 779.8 L 1100.2 781.1 L 1105.7 783.9 L 1109.9 788.3 L 1117.6 787.4 L 1134.6 777.7" />
<path class="river" d="M 1106.8 116.4 L 1104.2 120.9 L 1103.6 125.7 L 1104.2 132.5 L 1105.8 138.5 L 1109.8 146.2 L 1116.3 151 L 1117.9 154.7 L 1116.9 159 L 1128.6 163.3 L 1153.2 167.8 L 1167.6 168 L 1171.8 163.9 L 1175.4 157.7 L 1178.4 149.4 L 1182 144.5 L 1188.4 142.3 L 1207.9 140.9 L 1215.6 139.2 L 1218 136.5 L 1222.3 134.5 L 1228.6 133 L 1234.3 133.2 L 1239.2 135.1 L 1245.4 132.8 L 1252.8 126.3 L 1267.2 118.7 L 1288.8 110.1 L 1302.6 103.7 L 1308.6 99.6 L 1313.3 94.1 L 1316.5 87.3 L 1322.9 80.3 L 1332.5 73.2 L 1337.9 68 L 1339.1 64.7 L 1350.1 58.7 L 1370.8 50 L 1385.6 38.5 L 1394.5 24.3 L 1404.6 16.7 L 1416 15.8 L 1423.5 14.3 L 1429 11 L 1434.4 9.1 L 1437.7 9.9 L 1440.8 12.6 L 1446.2 11.5 L 1453.8 6.5 L 1464.9 5.5 L 1479.4 8.5 L 1498.6 8.5 L 1522.5 5.5 L 1537.3 2.3 L 1543.1 -1.2 L 1552.7 -0.8 L 1574.8 5.2" />
<path class="river" d="M 1211.7 1242 L 1217.3 1246.5 L 1226.6 1246.1 L 1249 1240.5 L 1257.1 1232.8 L 1265.2 1228.8 L 1276.1 1225.8 L 1287.6 1220.1 L 1299.6 1211.9 L 1305.3 1206.5 L 1304.6 1204.2 L 1306.1 1201.9 L 1309.8 1199.8 L 1312.5 1193.8 L 1314.3 1183.9 L 1320.3 1174.4 L 1330.7 1165.3 L 1336.4 1158.7 L 1337.3 1154.3 L 1339.9 1151.4 L 1344.5 1149.9 L 1347.8 1145.5 L 1350 1138.1 L 1354.8 1132.1 L 1362.1 1127.5 L 1366.1 1123.5 L 1366.7 1120.2 L 1371.4 1117.1 L 1380.5 1114.2 L 1388.2 1113.8 L 1394.5 1115.8 L 1398.8 1115.5 L 1401.1 1112.9 L 1404.9 1111.6 L 1412.6 1111.5 L 1415.6 1112.5 L 1417.3 1111.4 L 1418.9 1109.2 L 1421 1108.2 L 1424.6 1108.5 L 1429.9 1105.6 L 1436.9 1099 L 1446.7 1093.6 L 1459.3 1089.2 L 1465.9 1088.7 L 1468.4 1089.9 L 1469.9 1091.5 L 1473.2 1092.3 L 1476.9 1091.6 L 1481.3 1093.3 L 1486.9 1099.7 L 1489.9 1104.8 L 1490.2 1108.6 L 1492 1110.2 L 1495.3 1109.5 L 1497.5 1110.3 L 1498.6 1112.5 L 1503.4 1112.9 L 1511.6 1111.5 L 1517 1111.5 L 1519.6 1113 L 1525.2 1111.4 L 1538.4 1104.3 L 1567.8 1092 L 1578 1085.1 L 1578.7 1079.4 L 1577.9 1077.3 L 1576.5 1076.3 L 1576.1 1074.5 L 1576.9 1071 L 1576.4 1069 L 1575.5 1067.8 L 1575.7 1066.4 L 1579.7 1063.2 L 1580.2 1060.5 L 1579 1058.5 L 1579.5 1057.1 L 1580.6 1054.1 L 1586.2 1046.5 L 1588.5 1040.7 L 1587.4 1036.6 L 1590.8 1031.2 L 1598.9 1024.3 L 1601.9 1021 L 1602.2 1019.3 L 1603.6 1018.2 L 1605.5 1018.2 L 1607 1016.9 L 1607.7 1013.9 L 1611 1011.8 L 1616.8 1010.5 L 1620.7 1010.8 L 1622.7 1012.8 L 1625.8 1011.9 L 1629.9 1008.2 L 1634.1 1007 L 1638.3 1008.5 L 1640.9 1007.8 L 1641.7 1004.9 L 1645.1 1002.3 L 1650.8 1000 L 1653.6 1001 L 1654.1 1003.8 L 1656.3 1005 L 1660.6 1004.2 L 1663.8 1005.7 L 1666 1009.4 L 1669.1 1010.8 L 1673 1010.8 L 1674.7 1012.7 L 1676.6 1013.5 L 1681.1 1012 L 1684.4 1012.4 L 1686.2 1014 L 1688.4 1013.9 L 1689.9 1012.6 L 1693.2 1012.7 L 1696.7 1013.7 L 1701.7 1013.2 L 1703.5 1011.1 L 1705.6 1009.9 L 1708.6 1010 L 1711.2 1008.9 L 1712.7 1006.6 L 1715.2 1006 L 1717.8 1006.3 L 1719.4 1005.3 L 1719.2 1003.8 L 1720.7 1002.9 L 1722.6 1003.1 L 1723.5 1001.9 L 1722.9 1000.4 L 1723.9 998.9 L 1728.6 995.7 L 1733.9 992.9 L 1736.5 992.7 L 1738.4 994 L 1739.5 992.1 L 1739.8 986.8 L 1741.8 985.6 L 1743.4 985.3 L 1748 986.7 L 1751.3 985.7 L 1752.3 982.5 L 1753.6 981.7 L 1755.4 981.2 L 1759.9 983.1 L 1765.7 981.3 L 1773 976 L 1776.3 972.5 L 1775.5 971.1 L 1776.2 970 L 1778.4 969.4 L 1778.7 968.6 L 1778.9 967.7 L 1780.7 966.6 L 1780.6 964.5 L 1776.9 957.9 L 1777 953.8 L 1781 952 L 1782.1 950.4 L 1780.4 948.8 L 1779.9 946.4 L 1780.6 943.1 L 1783 941.5 L 1787.2 941.3 L 1789.5 939.8 L 1790.1 936.8 L 1793 934.1 L 1798 931.6 L 1801.5 924.9 L 1804.1 908.4 L 1801 892.3 L 1797.2 885.8 L 1791.6 883.3 L 1790.2 880.9 L 1792.8 878.4 L 1794.3 875.1 L 1794.6 870.8 L 1796.4 868.4 L 1799.4 867.9 L 1800.5 866.2 L 1799.6 863.1 L 1801.9 861.4 L 1807.3 860.9 L 1810 861.7 L 1809.9 863.7 L 1811.3 864.9 L 1814.1 865.3 L 1816.2 864.3 L 1817.6 861.8 L 1821.7 860.7 L 1828.4 860.8 L 1833.4 863.3 L 1836.8 868 L 1841.6 869.9 L 1847.9 868.9 L 1849.9 870.3 L 1849.6 872.9 L 1850.3 875.2 L 1852.8 876.8 L 1856.3 876 L 1860.8 872.7 L 1864.7 871.8 L 1867.9 873.2 L 1873.6 871.1 L 1881.8 865.5 L 1884.1 866 L 1885.2 867.5 L 1886.8 870 L 1890.4 870.8 L 1891.9 869.3 L 1891 863.1 L 1892.2 859.6 L 1895.4 858.6 L 1896 856.5 L 1897.1 852.3 L 1898.8 851.3 L 1900.3 849.7 L 1902.8 849.7 L 1906.1 849.2 L 1908 846.4 L 1908.1 838 L 1907.3 833 L 1905.7 831.6 L 1907 829.1 L 1911.2 825.6 L 1912.8 822.4 L 1911.7 819.4 L 1913.9 815.6 L 1917.4 813.9 L 1920.5 814.4 L 1923.4 813.4 L 1924.6 811.7 L 1925.5 808.9 L 1928.2 807.6 L 1931.2 808 L 1933.9 806.1 L 1934.7 804 L 1933.6 801.7 L 1935.3 799.4 L 1939.7 797.2 L 1945.4 796.5 L 1952.7 797.3 L 1959.9 793.6 L 1962.5 791.2 L 1965.8 788.2 L 1967 784.4 L 1965.3 780.8 L 1966.5 777.6 L 1968.8 776.5 L 1973.9 775.5 L 1977.3 773 L 1978.7 768.9 L 1983.4 765.7 L 1991.4 763.4 L 1999.8 756 L 2008.7 743.4 L 2011.3 733.2 L 2006.8 721.9" />
<path class="river" d="M 1430 2724.9 L 1431.5 2724.5 L 1446.9 2723.9 L 1454.6 2725.8 L 1458.2 2730 L 1460 2734.5 L 1460.1 2739.3 L 1464.4 2742 L 1472.8 2742.7 L 1482.6 2741.7 L 1493.7 2739 L 1500.1 2738.6 L 1502.6 2741.6 L 1506.2 2745.9 L 1506.9 2751.8 L 1506 2760.6 L 1507.5 2768.5 L 1511.5 2775.4 L 1512.6 2780.2 L 1513.3 2782.2 L 1516.5 2783 L 1526.4 2782.3 L 1534.8 2785 L 1541.6 2791.2 L 1551.5 2795 L 1564.3 2796.5 L 1572.8 2799.3 L 1579.2 2805.2 M 316.2 -351.4 L 336.6 -346.1 L 346.7 -341.4 L 353.4 -335.7 L 357.1 -331.4 L 357.7 -328.5 L 359.8 -327 L 365 -326.6 L 377.8 -323.7 L 385.7 -324.3 L 392.8 -327.4 L 396.7 -331.1 L 398 -336.7 M 219.3 -430.5 L 236.2 -422.6" />
<path class="river" d="M 1266.7 1567.9 L 1267.5 1559.3 L 1269 1556 L 1271.4 1555.4 L 1271.9 1551.9 L 1270.4 1545.5 L 1272 1538.8 L 1278.8 1528.4 L 1282.1 1521.3 L 1282 1512.2 L 1279.7 1498.8 L 1277.5 1490.1 L 1275.4 1486 L 1271.7 1482.8 L 1266.5 1480.4 L 1261.6 1473.9 L 1257.2 1463.1 L 1248.9 1457.1 L 1236.7 1455.9 L 1225.8 1451.9 L 1216.2 1445.2 L 1202.8 1438.1 L 1185.6 1430.7 L 1173.5 1428.2 L 1166.6 1430.5 L 1160.8 1431 L 1154 1429 L 1135.4 1411.1 L 1129.3 1402.8 L 1129.6 1398.2 L 1127.7 1390.9 L 1123.6 1381 L 1118.1 1372.6 L 1111.2 1365.9 L 1103.6 1354.3 L 1095.3 1338.1 L 1093.5 1326.4 L 1098.3 1319.3 L 1095.2 1305.4 L 1084.3 1284.7 L 1078.8 1271.9 L 1078.9 1266.9 L 1082.7 1264.5 L 1090.2 1264.6 L 1098.8 1267 L 1108.3 1271.6 L 1114.7 1273.6 L 1117.9 1273 L 1117.9 1267.4 L 1114.7 1256.8 L 1113.9 1246.9 L 1115.5 1237.9 L 1111.8 1230.4 L 1102.8 1224.5 L 1097.3 1217.7 L 1095.4 1210 L 1095.1 1203.3 L 1096.6 1197.6 L 1096.3 1195.6 L 1094.7 1194.4 L 1093.8 1193.3 L 1094.6 1190 L 1096.3 1187.9 L 1097.2 1186.1 L 1096.8 1185 L 1095.4 1184.4 L 1093.3 1181.8 L 1092.4 1177.9 L 1093.4 1175.9 L 1096.5 1175.8 L 1098.7 1174 L 1100.2 1170.5 L 1097.4 1168.6 L 1090.4 1168.3 L 1086.6 1163.9 L 1085.9 1155.2 L 1084.5 1148.7 L 1082.2 1144.5 L 1079.6 1143.5 L 1078.1 1143.6 L 1077.1 1142.7 L 1076.4 1141 L 1074.7 1138.3 L 1070 1134.8 L 1068.2 1129.4 L 1069.1 1122.1 L 1067.6 1118.3 L 1065.1 1116.5 L 1064.2 1114.6 L 1064.6 1112.6 L 1064.3 1111.1 L 1063 1110.3 L 1058.5 1097.2 L 1060.7 1088.8 L 1068.2 1080.6 L 1073.5 1077 L 1076.8 1077.9 L 1078.3 1075.7 L 1078 1070.4 L 1075.9 1068.8 L 1072 1070.9 L 1068.5 1070.9 L 1065.5 1068.6 L 1063.2 1068.1 L 1061.5 1068 L 1060.8 1066.1 L 1060.7 1058.9 L 1058.9 1054.5 L 1055.3 1052.8 L 1054.1 1050.6 L 1055.2 1047.9 L 1054.4 1046.7 L 1052 1047 L 1051.2 1045.1 L 1052.1 1041.2 L 1051.5 1037.8 L 1049.2 1035.1 L 1046.3 1033.9 L 1045 1033.8 L 1043.6 1032.9 L 1044.7 1031.5 L 1044 1029.6 L 1038.3 1027.1 L 1035.1 1027.3 L 1034.5 1030.1 L 1032.3 1029.9 L 1028.6 1026.8 L 1027.5 1024 L 1028.9 1021.6 L 1027.7 1017.6 L 1024 1012.1 L 1024.1 1010.4 L 1025.7 1010 L 1026.5 1008.3 L 1023.9 1003.6 L 1023.8 999.1 L 1026.2 994.8 L 1023.6 989.6 L 1016.1 983.3 L 1010.8 980.5 L 1007.7 981.2 L 1006.5 980.3 L 1007.1 977.8 L 1005.5 976.4 L 1004.6 974.6 L 1005.7 972.4 L 1014 966.7 L 1015.1 964 L 1014.7 962.2 L 1012.9 960.2 L 1014.1 956 L 1018.4 950.5 L 1018.9 944.8 L 1015.5 938.8 L 1015.7 934.8 L 1017.3 933.1 L 1015.9 929.4 L 1013.2 926.5 L 1012.1 923.5 L 1014 920.9 L 1014 915.5 L 1011.4 907.7 L 1011.9 901.9 L 1015.6 898.2 L 1017.7 898.2 L 1019.1 898.7 L 1020.5 897.8 L 1021.2 896 L 1023.6 895.1 L 1027.7 896 L 1033.1 894.2 L 1039.5 889.1 L 1042.8 889.4 L 1045.1 889.6 L 1046.9 888.7 L 1047.2 886.3 L 1050.6 880.6 L 1057.3 873 L 1062.4 870.7 L 1066 873.8 L 1068.5 874.1 L 1069.9 871.8 L 1071.5 871.5 L 1073.3 872.3 L 1075.2 871.6 L 1076.8 866.5 L 1079.9 863.4 L 1083.6 861.7 L 1084.7 859.9 L 1084 858.3 L 1084.3 856.6 L 1085.6 855.2 L 1085.4 853.1 L 1084.8 852.1 L 1085 851 L 1086 849.5 L 1086.2 847.9 L 1085.8 846.6 L 1086.8 845.1 L 1089.8 843 L 1091.1 840.1 L 1090.3 833.6 L 1091.3 827 L 1094 820.3 L 1095.6 819.5 L 1097.5 819.6 L 1100.2 822.6 L 1104.8 822.1 L 1110.8 817.5 L 1113.9 813.4 L 1114.6 810.3 L 1116.4 809.4 L 1118.3 809.8 L 1119 808 L 1117.6 805.4 L 1119.2 801.3 L 1124 797 L 1127 796.3 L 1129.2 795.9 L 1129.7 794.5 L 1129.5 792.1 L 1130.4 789.4 L 1134.5 785.5 L 1134.6 783.2 L 1133.4 782.4 L 1132.9 780.9 L 1134.6 777.7" />
<g class="city"><circle cx="667.8603727760631" cy="616.1248707226896" r="5" /><text x="679.8603727760631" y="620.1248707226896">Guayaquil</text></g>
<g class="city"><circle cx="916.0026138582743" cy="208.36853493180587" r="5" /><text x="928.0026138582743" y="212.36853493180587">Cali</text></g>
<g class="city"><circle cx="770.8872496807196" cy="470.6495631818851" r="5" /><text x="782.8872496807196" y="474.6495631818851">Quito</text></g>
<g class="city"><circle cx="733.306071731576" cy="1044.3382657842135" r="5" /><text x="745.306071731576" y="1048.3382657842135">Trujillo</text></g>
<g class="city"><circle cx="1151.943057889263" cy="727.2734368308909" r="5" /><text x="1163.943057889263" y="731.2734368308909">Iquitos</text></g>
<g class="city"><circle cx="616.4928053440552" cy="833.2041664320473" r="5" /><text x="628.4928053440552" y="837.2041664320473">Piura</text></g>
<g class="city"><circle cx="859.468433465776" cy="367.1396177602933" r="5" /><text x="871.468433465776" y="371.1396177602933">Pasto</text></g>
<g class="city"><circle cx="734.7552047277834" cy="665.60014167074" r="5" /><text x="746.7552047277834" y="669.60014167074">Cuenca</text></g>
<text class="map-title" x="80" y="105">Ecuador Physical Study Map</text>
<text class="map-subtitle" x="80" y="145">Landmark: Galápagos Islands | Study terrain and water systems</text>
  <text class="footer" x="80" y="1036">Made with Natural Earth. Free vector and raster map data @ naturalearthdata.com.</text>
</svg>
