<?xml version="1.0" encoding="UTF-8"?>
<svg xmlns="http://www.w3.org/2000/svg" width="1600" height="1100" viewBox="0 0 1600 1100" role="img" aria-labelledby="title desc">
  <title id="title">Egypt Physical Study Map</title>
  <desc id="desc">Made with Natural Earth. Free vector and raster map data @ naturalearthdata.com.</desc>
  <defs>
    <linearGradient id="terrain" x1="0" x2="1" y1="0" y2="1">
      <stop offset="0%" stop-color="#6c8c53" />
      <stop offset="42%" stop-color="#d5c487" />
      <stop offset="72%" stop-color="#b88b5f" />
      <stop offset="100%" stop-color="#f1f5ee" />
    </linearGradient>
    <filter id="softShadow" x="-10%" y="-10%" width="120%" height="120%">
      <feDropShadow dx="0" dy="10" stdDeviation="12" flood-color="#0f172a" flood-opacity="0.16" />
    </filter>
    <style>
      .neighbor { fill: #ffffff; stroke: #94a3b8; stroke-width: 1.2; opacity: 0.72; }
      .country { fill: url(#terrain); stroke: #1f2937; stroke-width: 4; filter: url(#softShadow); }
      .admin1 { fill: none; stroke: #64748b; stroke-width: 1.1; stroke-dasharray: 6 7; opacity: 0.75; }
      .river { fill: none; stroke: #1d9bd1; stroke-width: 3; stroke-linecap: round; opacity: 0.88; }
      .lake { fill: #8ed1ea; stroke: #0ea5e9; stroke-width: 1.5; opacity: 0.8; }
      .city circle { fill: #ef4444; stroke: #ffffff; stroke-width: 2; }
      .city text, .terrain-label { fill: #172033; font: 700 24px system-ui, sans-serif; paint-order: stroke; stroke: #ffffff; stroke-width: 5; stroke-linejoin: round; }
      .map-title { fill: #0f172a; font: 800 46px system-ui, sans-serif; }
      .map-subtitle { fill: #475569; font: 600 24px system-ui, sans-serif; }
      .footer { fill: #64748b; font: 500 18px system-ui, sans-serif; }
    </style>
  </defs>
  <rect width="100%" height="100%" fill="#d8edf0" />
  <rect x="40" y="40" width="1520" height="1020" rx="32" fill="#ffffff" opacity="0.54" />
  <path class="neighbor" d="M 501.7 1475.8 L 465.2 1454.9 L 448.5 1441 L 445.4 1426.1 L 453.2 1406.2 L 453.1 1386.6 L 425.4 1356.6 L 420 1336 L 420.6 1324.4 L 402.9 1310.3 L 402.4 1282.4 L 392.3 1263.9 L 375.5 1266.7 L 380.3 1249 L 392.7 1229 L 387.3 1209.2 L 403.1 1194.4 L 393.1 1183.2 L 405.8 1153.6 L 427.7 1118.3 L 469.1 1121.6 L 466.7 931.1 L 467.3 911 L 522.5 910.8 L 522.5 815 L 715.4 815 L 901.6 815 L 1091.9 815 L 1107.4 862.1 L 1096.9 870.8 L 1103.8 920.2 L 1121.5 977.5 L 1139.7 989.3 L 1166 1007 L 1141.7 1034.4 L 1106.4 1042.3 L 1091.3 1057 L 1086.5 1088.9 L 1065.9 1159.4 L 1071 1178.6 L 1063.3 1219.9 L 1043.8 1267.1 L 1014.9 1290.9 L 994.3 1327.6 L 989.5 1347.2 L 966.7 1360.6 L 952.5 1410.8 L 953.2 1454 L 952.6 1416.6 L 946 1415.6 L 946.8 1391.7 L 941 1375.3 L 916.3 1356.3 L 910.5 1321.7 L 916.3 1286.3 L 894.1 1283 L 890.8 1293.7 L 861.9 1296.2 L 873.5 1310.2 L 877.6 1339 L 851.2 1365.4 L 827.3 1400 L 802.6 1404.9 L 762.3 1376.9 L 744.1 1386.8 L 739.2 1400.8 L 714.5 1409.9 L 712.8 1419.7 L 665 1419.7 L 658.5 1409.9 L 623.9 1408.2 L 606.6 1416.4 L 593.4 1412.3 L 568.7 1384.3 L 560.4 1371.1 L 525.8 1377.7 L 512.6 1400 L 500.3 1442.8 L 483.8 1451.9 L 469.1 1457.1 L 501.7 1475.8 Z" />
<path class="neighbor" d="M 466.7 931.1 L 469.1 1121.6 L 427.7 1118.3 L 405.8 1153.6 L 393.1 1183.2 L 403.1 1194.4 L 387.3 1209.2 L 392.7 1229 L 380.3 1249 L 375.5 1266.7 L 392.3 1263.9 L 402.4 1282.4 L 402.9 1310.3 L 420.6 1324.4 L 420 1336 L 389.6 1344.2 L 365.3 1363.6 L 330.6 1416 L 285.4 1438.2 L 239.1 1435.3 L 225.5 1439.7 L 230.3 1456.6 L 205.3 1473.3 L 184.9 1492.1 L 124.5 1510.4 L 112.5 1499.6 L 104.5 1498.6 L 95.7 1511 L 56 1514.6 L 63.5 1501.6 L 48.4 1468.5 L 41.6 1448.6 L 20.7 1440.5 L -7.6 1412.5 L 2.8 1389.8 L 24.7 1394.7 L 38.2 1391.2 L 65 1391.7 L 38.9 1348.1 L 40.7 1316.2 L 37.5 1284.4 L 18.4 1253.6 L 23.2 1231 L -7.6 1229.9 L -7.5 1199.1 L -27.4 1181.3 L -6.7 1118.1 L 54.5 1072.8 L 57 1010.4 L 75.5 913 L 85.9 892.4 L 66 875.9 L 65.2 860.7 L 47.2 848.2 L 35.5 773.6 L 83.9 747.4 L 275.3 839.2 L 466.7 931.1 Z" />
<path class="neighbor" d="M 1036.9 301.1 L 1028.5 316.2 L 1011.2 309.6 L 1001.1 341.5 L 1013.2 346.9 L 1000.9 353.5 L 998.9 366.1 L 1021.4 359.6 L 1022.6 378.3 L 998.6 455 L 993.9 442.6 L 967.1 372.6 L 967.1 372.6 L 967.1 372.6 L 981.1 356.8 L 977.8 354 L 990.5 331.6 L 1000.2 295.4 L 1007.1 283.3 L 1008.4 282.8 L 1024.5 282.9 L 1028.9 274.4 L 1041.8 273.8 L 1042.5 293.5 L 1036 300.8 L 1036.9 301.1 Z" />
<path class="neighbor" d="M 1041.8 273.8 L 1028.9 274.4 L 1024.5 282.9 L 1008.4 282.8 L 1025.5 243.7 L 1049.4 209.9 L 1050.3 208.2 L 1071.9 210.6 L 1079.7 229.5 L 1053.5 247.5 L 1041.8 273.8 Z" />
<path class="neighbor" d="M 1021.4 359.6 L 998.9 366.1 L 1000.9 353.5 L 1013.2 346.9 L 1001.1 341.5 L 1011.2 309.6 L 1028.5 316.2 L 1028.5 345.6 L 1021.4 359.6 Z" />
<path class="neighbor" d="M 1028.5 316.2 L 1036.9 301.1 L 1090.4 320.1 L 1184.3 269 L 1203.7 327.4 L 1194.5 334.6 L 1098.4 358.7 L 1146.3 406.7 L 1130.4 414.8 L 1122.5 430.9 L 1085.9 437.6 L 1074.4 454.8 L 1053.7 469.6 L 1000.2 462 L 998.6 455 L 1022.6 378.3 L 1021.4 359.6 L 1028.5 345.6 L 1028.5 316.2 Z" />
<path class="neighbor" d="M 1203.7 327.4 L 1184.3 269 L 1290.6 219 L 1308.7 161 L 1304.2 125.9 L 1330.5 114.1 L 1355.1 84.1 L 1375.7 76.7 L 1431.5 82.9 L 1448.3 95.1 L 1471.3 87 L 1502.4 144.2 L 1533.9 158.6 L 1537.5 186.7 L 1513.4 203.2 L 1502.2 240.7 L 1535.5 286.3 L 1594.3 312.6 L 1619 349.1 L 1611.1 383.8 L 1626.4 383.8 L 1626.9 409.4 L 1653.5 434.6 L 1625 432.3 L 1592.7 428.3 L 1557.5 474.3 L 1468.3 470.5 L 1333 374 L 1261.5 340.4 L 1203.7 327.4 Z" />
<path class="neighbor" d="M 1036.9 301.1 L 1036 300.8 L 1042.5 293.5 L 1041.8 273.8 L 1053.5 247.5 L 1079.7 229.5 L 1071.9 210.6 L 1050.3 208.2 L 1045.8 171.5 L 1057.5 151.7 L 1070.4 141.2 L 1083.2 130.7 L 1085.8 103.9 L 1101.5 113.3 L 1154.4 99.9 L 1179.9 109 L 1219.4 108.8 L 1274.6 90.8 L 1300.5 91.6 L 1355.1 84.1 L 1330.5 114.1 L 1304.2 125.9 L 1308.7 161 L 1290.6 219 L 1184.3 269 L 1090.4 320.1 L 1036.9 301.1 Z" />
<path class="neighbor" d="M 584.4 176.8 L 578.4 190.9 L 509.3 195 L 509.8 187.1 L 451.2 177.7 L 460.1 157.3 L 486.3 173.5 L 523.7 170.8 L 559.4 174.2 L 558.2 182.5 L 584.4 176.8 Z M 424.2 -113 L 459.7 -111.6 L 498.1 -124.8 L 531.9 -108 L 575.6 -112.6 L 576.1 -136.5 L 599.5 -123.8 L 584.6 -93.7 L 573.2 -88.3 L 544 -89.7 L 518.9 -94.2 L 460.8 -81.8 L 494.1 -54.8 L 469.7 -47 L 443 -46.9 L 417.6 -71.6 L 408.6 -61.1 L 419.3 -32.4 L 443.3 -9.9 L 425.2 0.6 L 451.9 22.7 L 475.7 36.6 L 476.4 63.7 L 432 51 L 446.2 75.5 L 415.7 80.5 L 433.9 122.9 L 402 123.5 L 362.7 102.6 L 344.7 64.2 L 336.3 32.3 L 317.6 10.2 L 293 -17.1 L 289.7 -30.8 L 312 -54.1 L 314.9 -69.7 L 330.5 -76.6 L 331.5 -89.2 L 362.9 -93.5 L 381.2 -104 L 407.2 -103 L 415.1 -111.4 L 424.2 -113 Z" />
<path class="neighbor" d="M 1471.3 87 L 1448.3 95.1 L 1431.5 82.9 L 1375.7 76.7 L 1355.1 84.1 L 1300.5 91.6 L 1274.6 90.8 L 1219.4 108.8 L 1179.9 109 L 1154.4 99.9 L 1101.5 113.3 L 1085.8 103.9 L 1083.2 130.7 L 1070.4 141.2 L 1057.5 151.7 L 1039.9 130 L 1058.1 111.9 L 1028.8 116 L 988.7 105 L 955.7 132.6 L 882.8 138 L 844 112.2 L 792.2 110.6 L 781.2 130.5 L 748 136.2 L 701.6 110.7 L 649.2 111.5 L 620.8 63.8 L 585.7 37.2 L 609.1 -0.1 L 578.7 -23 L 631.9 -68.9 L 705.8 -70.9 L 725.9 -107.3 L 817.4 -101 L 875.1 -132.1 L 931 -145.7 L 1010.4 -146.7 L 1094.2 -112.9 L 1163 -94.3 L 1218.9 -101.7 L 1260.2 -97.4 L 1316.9 -122.5 L 1368 -124.8 L 1414.2 -101.2 L 1422.4 -84.3 L 1417.8 -61 L 1453.4 -49 L 1472.4 -35 L 1439.5 -21.3 L 1454.5 33.7 L 1445.1 48.6 L 1471.3 87 L 1471.3 87 Z M 576.1 -136.5 L 625 -151.6 L 666.3 -145.1 L 672 -126.7 L 713.9 -111.2 L 705.1 -99.4 L 648.2 -96.8 L 627.7 -81.9 L 587.6 -56.1 L 572.5 -78.4 L 573.2 -88.3 L 584.6 -93.7 L 599.5 -123.8 L 576.1 -136.5 Z" />
<path class="neighbor" d="M 1071 1178.6 L 1065.9 1159.4 L 1086.5 1088.9 L 1091.3 1057 L 1106.4 1042.3 L 1141.7 1034.4 L 1166 1007 L 1193.9 1062.6 L 1207.1 1106.6 L 1233.4 1130 L 1298.9 1175.3 L 1325.6 1202.7 L 1351.6 1230.4 L 1366.6 1246.9 L 1390.2 1261.3 L 1375.7 1273 L 1355.1 1268.9 L 1338.7 1253.3 L 1319 1225.2 L 1297.7 1209.8 L 1285.3 1193.2 L 1243.6 1174 L 1210.7 1173.4 L 1199.1 1163.4 L 1170.9 1174.6 L 1141.8 1152.9 L 1126.8 1188.7 L 1071 1178.6 Z" />
<path class="neighbor" d="M 1818.2 959 L 1855.7 1038.2 L 1871.4 1071.7 L 1836.6 1084.6 L 1827.4 1105.9 L 1826.2 1122.2 L 1778.4 1142.5 L 1701.8 1164.9 L 1658.8 1198.8 L 1637.7 1201.4 L 1623.3 1198.6 L 1595.2 1218.5 L 1564.6 1227.7 L 1524.4 1230.2 L 1512.2 1232.9 L 1501.7 1245.6 L 1489.2 1249.1 L 1481.7 1261.3 L 1458 1260.3 L 1442.7 1266.8 L 1409.4 1264.3 L 1397 1236.3 L 1398.3 1210.1 L 1390.5 1195.9 L 1381.1 1160.4 L 1367.3 1140.7 L 1376.9 1138.3 L 1372 1116.4 L 1377.8 1107.2 L 1375.7 1086.2 L 1396.7 1070.9 L 1391.8 1050.7 L 1404.5 1027.1 L 1424.2 1039.6 L 1437.3 1035.2 L 1492.6 1034.1 L 1501.4 1038.9 L 1547.8 1043.7 L 1566.2 1041.3 L 1578.2 1057.3 L 1600.6 1049.3 L 1635 999 L 1679.8 977.4 L 1818.2 959 Z" />
<path class="neighbor" d="M 1000.2 462 L 1053.7 469.6 L 1074.4 454.8 L 1085.9 437.6 L 1122.5 430.9 L 1130.4 414.8 L 1146.3 406.7 L 1098.4 358.7 L 1194.5 334.6 L 1203.7 327.4 L 1261.5 340.4 L 1333 374 L 1468.3 470.5 L 1557.5 474.3 L 1600.3 479 L 1612.2 501.8 L 1646.2 500.6 L 1665 542 L 1688.6 552.9 L 1696.8 569.8 L 1729.5 590 L 1732.4 609.8 L 1727.6 625.7 L 1733.7 641.9 L 1747.5 655.3 L 1753.9 671 L 1761.1 682.8 L 1775.6 692.3 L 1788.9 688.9 L 1798 707.2 L 1799.8 718.3 L 1818.2 767 L 1962.5 791.2 L 1972.1 781 L 1994.1 815 L 1962.1 911 L 1818.2 959 L 1679.8 977.4 L 1635 999 L 1600.6 1049.3 L 1578.2 1057.3 L 1566.2 1041.3 L 1547.8 1043.7 L 1501.4 1038.9 L 1492.6 1034.1 L 1437.3 1035.2 L 1424.2 1039.6 L 1404.5 1027.1 L 1391.8 1050.7 L 1396.7 1070.9 L 1375.7 1086.2 L 1369.4 1065.8 L 1355 1051.3 L 1351.3 1032.2 L 1326.5 1015 L 1300.9 974.7 L 1287.4 935.6 L 1254.2 902.6 L 1232.8 894.7 L 1201 849 L 1195.4 815.6 L 1197.5 787.2 L 1170 734 L 1147.5 715.2 L 1121.5 705.3 L 1105.8 677.8 L 1108.4 667 L 1095.1 642.1 L 1081 631.4 L 1062.3 595.7 L 1033.1 557 L 1008.6 524 L 984.7 524.3 L 992.2 497.9 L 994.3 481.1 L 1000.2 462 Z" />
<path class="neighbor" d="M 893.5 184.4 L 896.9 184.2 L 903.8 172.6 L 938.4 173.2 L 982 158.9 L 949.6 179.4 L 953.1 188.3 L 948 186.7 L 938.8 190.3 L 931.6 189.3 L 929.2 191.1 L 928.3 186.3 L 924.8 183.3 L 915.5 182.8 L 902.5 186.9 L 893.5 184.4 Z" />
<path class="neighbor" d="M 893.5 184.4 L 902.5 186.9 L 915.5 182.8 L 924.8 183.3 L 928.3 186.3 L 929.2 191.1 L 931.6 189.3 L 938.8 190.3 L 948 186.7 L 953.1 188.3 L 954.6 192.2 L 905.4 211.7 L 881.9 205.5 L 870.7 186.2 L 893.5 184.4 Z" />
<path class="neighbor" d="M 522.5 815 L 522.5 910.8 L 467.3 911 L 466.7 931.1 L 275.3 839.2 L 83.9 747.4 L 35.5 773.6 L 1.5 791.4 L -25.5 765.1 L -101.4 744.4 L -122.5 714.3 L -160.3 692 L -182.8 700.8 L -199.8 674.1 L -201.6 653.5 L -230 618.5 L -211 598.5 L -215.1 568.3 L -209 542 L -212.5 520.2 L -204.1 481 L -206.7 458.7 L -222.2 416.3 L -198.8 405.2 L -194.6 384.9 L -199.7 365.1 L -166.8 346.6 L -152 331.2 L -128.6 317.4 L -125.9 280.6 L -69.5 297.1 L -49.4 292.9 L -9.3 301 L 54.4 322.4 L 76.9 365 L 119.9 374.4 L 187.6 394.5 L 238.7 418.3 L 262.1 405.9 L 285.1 383.8 L 273.9 347 L 289 323.7 L 323.5 301.2 L 356.6 294.7 L 421.5 304.5 L 437.9 325.9 L 455.7 326.1 L 471 334.3 L 518.7 339.9 L 530.4 355.8 L 513 378.8 L 520.4 399.3 L 508.1 429 L 522.5 467.6 L 522.5 638.3 L 522.5 815 Z" />
<path class="lake" d="M 1030.4 348.4 L 1029.6 355.6 L 1028.5 365.9 L 1027.4 367.4 L 1022.7 367.5 L 1021.7 366.4 L 1021.7 359.5 L 1022.6 353.4 L 1024.6 349 L 1027.4 346.8 L 1029.2 346.4 L 1030.4 348.4 L 1030.4 348.4 L 1030.4 348.4 L 1030.4 348.4 Z" />
<path class="lake" d="M 1027.4 374.6 L 1027.2 375.7 L 1026.8 377.1 L 1026.3 378.1 L 1024.4 378.5 L 1022.3 378.1 L 1021.1 376.6 L 1020.4 374.6 L 1020.7 372.8 L 1021.6 372 L 1023.7 372 L 1026 373.3 L 1027.4 374.6 L 1027.4 374.6 L 1027.4 374.6 L 1027.4 374.6 Z" />
<path class="lake" d="M 1032.7 297.6 L 1031.9 299.2 L 1030 300.6 L 1028.8 299.1 L 1028 296.6 L 1028.2 294.1 L 1029.5 292.3 L 1031.1 291.9 L 1032.2 293 L 1032.9 295.1 L 1032.7 297.6 L 1032.7 297.6 L 1032.7 297.6 L 1032.7 297.6 Z" />
<path class="lake" d="M 869.6 782.7 L 866.4 782.4 L 864.5 782 L 863 782.2 L 861.1 783.1 L 859.4 784.6 L 857.7 786.2 L 856.6 787.5 L 856.1 789.3 L 855.3 791.9 L 853.5 793.8 L 851.5 795.1 L 850.3 796.7 L 850 798.1 L 848.4 797.8 L 846.2 797.6 L 844.6 798.1 L 843.7 799 L 843 799.3 L 842.3 799.5 L 841.4 800 L 841.1 800.7 L 841.5 801.9 L 840.4 803.4 L 836.9 805 L 833.8 807.4 L 831.6 810.1 L 830.2 812.3 L 829.2 815.7 L 827.4 820.7 L 825.7 824 L 824.5 825.3 L 822.7 826.3 L 820.2 829 L 817.9 831.8 L 816.3 833.6 L 814.8 833.8 L 815.8 830.8 L 818.5 827.1 L 821.7 822.3 L 825 818.3 L 826.5 814.5 L 828.3 810.1 L 832 804.9 L 838.9 798.7 L 843.2 794.4 L 844.2 793.3 L 845.9 792.4 L 848.1 791.8 L 846.5 789.3 L 843 786 L 842.8 785 L 845.4 786.1 L 848.5 787.7 L 850 787.9 L 850.8 787 L 851.9 785.6 L 852.8 784.3 L 854.1 783.3 L 856.7 781.5 L 859.6 779.8 L 861.3 778.9 L 862.6 778.4 L 864.7 777.5 L 866.4 777.2 L 867.5 777.6 L 869.1 778.1 L 872.4 780.3 L 874.6 781.8 L 878.2 781.7 L 882.4 778.6 L 883.6 776.9 L 884.4 775.2 L 885.4 771.9 L 886.3 770.4 L 887.9 768.6 L 888.9 766.8 L 890.4 763.3 L 892 759.8 L 893.9 756 L 896.2 753.9 L 897.7 753.7 L 898.4 753 L 898.9 751.8 L 899.5 750.6 L 899.2 748.7 L 899.3 746 L 898.8 743.8 L 896.2 742.9 L 894.1 742.2 L 892.3 743.3 L 890.1 744.3 L 888.2 744.1 L 887.1 743.2 L 889.6 741.4 L 892.3 739.6 L 891.8 738.8 L 890.8 738.5 L 890.1 739.2 L 889.4 739.8 L 888.4 738.8 L 889.8 736.6 L 893.9 737.1 L 896.7 739 L 898.4 737.3 L 899.4 734.5 L 898.9 733.1 L 899.1 731.8 L 900.1 730.6 L 900.3 729 L 899.8 727.2 L 898.1 725.1 L 897.9 723.4 L 900.6 719.6 L 903.2 721.9 L 903.7 729 L 905.7 733.6 L 905.5 735.6 L 904 736.2 L 902.6 736.6 L 902 737.7 L 902.1 739 L 902.7 739.8 L 903.6 740 L 904 740.4 L 905.8 741.6 L 906.6 742.6 L 904 742.6 L 902.6 743.8 L 903.7 746.4 L 905.4 748 L 905.9 749.2 L 906.2 750.8 L 906.7 752.6 L 906.7 754.5 L 906.7 755.6 L 906.1 755.9 L 904.3 755.5 L 902.6 755 L 903 757.2 L 902.1 759.3 L 899.9 759.5 L 899.3 760.2 L 899.4 761.4 L 900.1 762.8 L 901.9 764.6 L 903.7 766.8 L 905.9 769.2 L 905 770.1 L 899.6 768.1 L 896.1 765.1 L 894.1 765.5 L 893.9 766.6 L 893 768.4 L 892.2 769.6 L 891.5 770 L 890.1 770.8 L 888.7 771.5 L 888.1 772 L 887.7 773.3 L 887.5 775.5 L 886.5 777.4 L 883.2 780.2 L 879 783.8 L 876.1 786 L 874.3 787.1 L 874.1 788.6 L 872.6 789.5 L 870.6 789.3 L 870.3 788.7 L 871.4 787.9 L 872.7 786.6 L 872.6 785.6 L 871.8 785.1 L 870.7 784.2 L 869.8 783.4 L 869.6 782.7 L 869.6 782.7 L 869.6 782.7 L 869.6 782.7 Z" />
<path class="country" d="M 1091.9 815 L 901.6 815 L 715.4 815 L 522.5 815 L 522.5 638.3 L 522.5 467.6 L 508.1 429 L 520.4 399.3 L 513 378.8 L 530.4 355.8 L 594.2 355 L 640.4 367.7 L 688.1 381.9 L 710.3 389.3 L 747.2 374.1 L 767 360.4 L 809.3 356.4 L 843.4 362.5 L 856.5 386.3 L 867.6 370.6 L 906.1 382 L 943.5 384.7 L 967.1 372.6 L 967.1 372.6 L 993.9 442.6 L 998.6 455 L 985.2 474.3 L 974.8 510.6 L 961.8 535.6 L 950.6 543.9 L 934.6 528.4 L 912.9 507 L 878.7 438.2 L 873.8 442.6 L 893.7 493.2 L 923.1 541.5 L 959.4 616.2 L 977.1 642.3 L 992.5 669.4 L 1035.6 722.5 L 1026.1 730.9 L 1027.6 762.1 L 1083.5 805.2 L 1091.9 815 Z" />

<path class="river" d="M 1173.3 149.8 L 1163.9 147.8 L 1158.1 145.5 L 1153 142.2 L 1150.1 139.6 L 1149.5 137.7 L 1150.7 135.2 L 1153.9 132 L 1155.3 129.5 L 1155.1 126.7" />
<path class="river" d="M 1022.7 367.5 L 1024.7 356.1 L 1026.3 350.8 L 1029.2 346.4 M 1031.1 291.9 L 1030 300.6" />
<path class="river" d="M 900.6 719.6 L 902 728.2 L 901.7 733.6 L 900.2 738.6 L 900.5 743.9 L 901.7 747.1 L 902.3 751.1 L 899.4 757 L 891 766.6 L 886.6 773 L 886 776.3 L 883.1 779.5 L 878.5 782.8 L 874.1 783.7 L 869.5 780.5 L 865 779.8 L 860.4 781.5 L 856.5 784.8 L 853.3 789.8 L 845.7 796 L 836.5 802.9 L 829.6 810.5 L 827.8 816 L 823.9 822.5 L 814.8 833.8" />
<path class="river" d="M 885.3 422.4 L 875.6 410.7" />
<path class="river" d="M 1173.2 149.7 L 1190.3 147.4 L 1205.2 148.9 L 1223.7 153.5 L 1234.3 158.4 L 1237 163.3 L 1242.5 168.5 L 1250.9 173.7 L 1254.9 176.9 L 1254.6 177.9 L 1256.4 179 L 1260.4 180.3 L 1262.7 183.1 L 1263.3 187.4 L 1265.1 190.4 L 1268 192.2 L 1270.3 195.1 L 1272.1 199 L 1276.4 203 L 1283.3 207.3 L 1286.8 211.3 L 1286.9 214.9 L 1287.7 217.1 L 1289.9 218.6 M 1147.6 103.1 L 1149 107.6 L 1151.2 109.8 L 1154.7 111.3 L 1157.4 113.5 L 1159.4 116.4 L 1159.1 120.1 L 1155.1 126.7" />
<path class="river" d="M 1030.4 1102.9 L 1019.3 1087.9 L 1015.5 1081.6 L 1015.2 1078.8 L 1011.5 1072.6 L 1004.1 1062.9 L 1000.2 1056.7 L 999.7 1054 L 991.2 1048.3 L 974.6 1039.7 L 965.3 1033.2 L 963.4 1029 L 960.2 1025.9 L 952.1 1021.4 M 1030.5 1102.7 L 1031.8 1116.6 L 1036.6 1128.4 L 1045.5 1142.8 L 1048 1148.8 L 1048.4 1151 L 1046.7 1154" />
<path class="river" d="M 818.2 423.8 L 814.2 415.5 L 815.6 411 L 820.5 406.7 L 822.4 401.2 L 821.2 394.3 L 821.2 389.4 L 822.2 386.4 L 825.3 382.2 L 830.6 376.9 L 834.9 374.2 L 838.2 373.9 L 842.6 369.8 L 850.7 357.8" />
<path class="river" d="M 1504.5 368.5 L 1508.2 372.1 L 1515.1 374.3 L 1526.5 376.1 L 1536 379 L 1547.7 384.8 L 1553.4 387.8 L 1558 387.8 L 1563.4 385.9 L 1572.7 385.1 L 1585.9 385.4 L 1594.1 384.7 L 1597.4 383.1 L 1599.4 382.9 L 1600.7 384.6 M 1289.9 218.6 L 1296 220.5 L 1298.8 220.3 L 1300.3 218.5 L 1303.5 217.9 L 1308.5 218.5 L 1310.9 218.2 L 1311.8 218 L 1312.9 217.6 L 1314.4 218.2 L 1318.6 217.6 L 1324.7 215.3 L 1330 214.7 L 1334.5 215.9 L 1337.8 217.7 L 1340.9 221.4 L 1344.1 224.7 L 1346.4 225.3 L 1348.8 224.5 L 1350.2 224.9 L 1350.9 225.2 L 1352 225.1 L 1352.8 223.1 L 1354.1 222.5 L 1355.8 223.3 L 1355.9 224.7 L 1354.2 226.5 L 1354.2 228 L 1356 229.3 L 1356.7 231.2 L 1356.3 233.7 L 1358.3 236.3 L 1359.7 237.2 L 1362.7 239.1 L 1364.7 241.8 L 1364.3 244.5 L 1365.3 245.4 L 1367.9 244.4 L 1370.6 244.4 L 1373.3 245.6 L 1374.2 247.8 L 1373 251 L 1375.1 254.9 L 1380.4 259.4 L 1384.6 262.1 L 1387.8 263 L 1390.1 262.9 L 1391.3 261.9 L 1393.7 262.4 L 1397.2 264.5 L 1400.1 265.3 L 1402.3 264.8 L 1408.1 265.9 L 1412 267.1 L 1417.4 268.7 L 1423.5 272.2 L 1426.2 276.3 L 1428.1 277.6 L 1429.7 277.6 L 1431.7 277.8 L 1435.6 279.5 L 1440.1 284.6 L 1446.4 295.4 L 1446.9 297.1 L 1446.9 300.2 L 1445.6 305.2 L 1446.5 311.3 L 1449.7 318.4 L 1451.3 323.8 L 1451.4 327.6 L 1452.8 331.6 L 1455.7 336 L 1457.1 341 L 1457.1 346.5 L 1460.6 352 L 1471.2 360.1 L 1484.3 362 L 1489.8 363.8 L 1492.3 366.2 L 1496.3 367.7 L 1504.6 368.5" />
<path class="river" d="M 821.8 425.3 L 823.9 424.9 L 826 422.5 L 828.5 417.8 L 833.6 412.9 L 841.1 407.9 L 851.9 404.7 L 873 402.6" />
<path class="river" d="M 1022.7 367.5 L 1021.6 372 M 1030 300.6 L 1028.8 316.1 L 1029.8 323.7 L 1028 330.2 L 1027.9 335.8 L 1029.2 346.4 M 1043.8 258.5 L 1035.7 266.5 L 1032.1 275.4 L 1030.9 281.8 L 1031.1 291.9" />
<path class="river" d="M 881.9 1120.5 L 884.1 1101 L 888.6 1090.6 L 896 1082.9 L 903 1078.6 L 909.3 1077.7 L 914.3 1075.8 L 917.9 1072.8 L 923.6 1070 L 931.3 1067.5 L 936.8 1063.4 L 940.3 1057.6 L 941.5 1053.6 L 940.5 1051.2 L 940.7 1047.7 L 941.9 1043.1 L 945.3 1036.8 L 950.8 1028.6 L 952.1 1021.4 L 952.9 1016.9 L 951.6 1001.8 L 949.6 993.6 L 946.9 992.3 L 944 989.5 L 940.8 985.1 L 939.1 980.3 L 938.8 975.2 L 937.3 972.2 L 934.7 971.4 L 933.6 966.3 L 933.9 956.9 L 932.3 950.6 L 928.6 947.6 L 926.2 944.2 L 924.6 938.7 L 913 934.8 L 907.2 934.5 L 903.4 936.2 L 898.6 940.6 L 892.8 947.6 L 888.1 951.3 L 884.6 951.7 L 880.8 955 L 876.9 961.2 L 873.1 964.2 L 869.4 964.2 L 865.7 965.4 L 862 968 L 860.3 971.3 L 860.5 975.3 L 858.6 977.9 L 854.6 979.1 L 848.8 985.2 L 841.2 996.3 L 833.2 1003.2 L 824.6 1006.2 L 817.4 1006.9 L 811.5 1005.2 L 806.1 1002.8 L 801.2 999.6 L 798.1 994.6 L 796.8 987.9 L 794.8 983 L 792 980 L 789.4 975.3 L 786.9 968.9 L 785.8 959.5 L 785.8 947.3 L 784.4 936.4 L 781.4 926.7 L 779.2 921.2 L 779.1 919.5 L 780.2 917.8 L 786.4 915.1 L 790 912.5 L 790.9 910.2 L 791.2 906.3 L 790.8 900.7 L 789.8 897 L 788.3 895.2 L 785.9 894.1 L 782.7 893.8 L 780 891 L 777.8 885.7 L 777.6 881.4 L 779.3 878.2 L 779.8 875.7 L 780.2 873.8 L 781.5 872.3 L 786.9 870.7 L 790.1 867.8 L 791 863.7 L 792.7 860.9 L 795.4 859.3 L 796.4 857.2 L 795.9 854.5 L 799 851 L 805.7 846.8 L 809 843.8 L 808.7 842.1 L 810.1 839.3 L 814.8 833.8 M 900.6 719.6 L 902.2 703.3 L 902.2 697.2 L 901.1 696.1 L 901.2 693.1 L 902.5 688.4 L 902.6 682.1 L 901.3 674.2 L 900.2 669.2 L 899.1 667.1 L 895.2 663.9 L 888.6 659.6 L 884.3 654.2 L 882.5 647.8 L 882 643.9 L 883.5 641.7 L 892.2 634.8 L 895.1 628.8 L 895 621.4 L 893.6 616.9 L 890.9 615.2 L 885 616.2 L 875.8 619.8 L 869.4 619.4 L 865.8 614.8 L 862.9 614 L 860.4 613.9 L 859.1 613.4 L 858.2 611.2 L 856.7 608.8 L 852.2 605.1 L 849.8 601.7 L 849.4 598.6 L 847.9 597 L 845.4 597 L 844.3 596 L 844.6 594 L 843.7 592.7 L 841.9 592.2 L 836.9 586.5 L 828.1 574.6 L 826.8 572.3 L 825 570.3 L 823.8 569.2 L 822.2 568.2 L 808.9 558 L 804.1 551 L 805.1 545.4 L 804.8 538.2 L 804.5 531.8 L 803.8 527.8 L 802.6 525.3 L 801.2 523 L 799.6 521.3 L 798.1 519.1 L 797.9 516 L 799 512.3 L 801.3 507.8 L 802.5 503.4 L 802.6 499.1 L 803.6 494.4 L 805.5 489.1 L 810.1 481.8 L 817.4 472.5 L 820.9 465.6 L 820.7 460.9 L 821.7 455.6 L 823.9 449.9 L 824.2 441.5 L 822.7 431.1 L 822.6 427.2 L 821.8 425.3" />
<path class="river" d="M 821.8 425.3 L 820.6 424.4 L 818.2 423.8 L 812.9 421.9 L 809.1 419.3 L 807.3 416.4 L 805.4 415 L 803.4 414.1 L 803.6 412.7 L 803.1 408.5 L 800.1 399.1 L 799.4 393.7 L 800.1 392.2 L 799.5 390.6 L 799 389.5 L 799 385.8 L 798.3 382.6 L 796.7 380 L 793.9 377.4 L 789.7 374.9 L 787.5 372.1 L 787.4 368.9 L 785.8 366 L 781.4 361.1" />
<path class="river" d="M 885.3 422.4 L 885.5 432.3 M 875.7 410.8 L 873 402.6 L 874.4 398 L 874.6 389.9 L 873.9 370.8" />
<path class="river" d="M 1356.3 92.2 L 1359.1 95.7 L 1360.7 96.7 L 1361.8 97.1 L 1362.7 98 L 1362.9 101.1 L 1365.1 103.2 L 1372.5 105.5 L 1374.7 106.9 L 1375.4 108 L 1374.8 108.7 L 1379.4 109.2 L 1381.2 110 L 1381.5 111.4 L 1380.8 112.2 L 1379 112.3 L 1377.2 114 L 1375.3 117.3 L 1378.8 120.2 L 1387.7 122.8 L 1394.4 127.2 L 1398.7 133.3 L 1401.5 139.5 L 1402.9 145.8 L 1402.7 150 L 1401 152.2 L 1400.5 154.4 L 1401.2 156.7 L 1400.6 158.4 L 1398.8 159.6 L 1398.2 163 L 1398.9 168.6 L 1403 176 L 1410.5 185.1 L 1413.5 190.9 L 1412.1 193.2 L 1414.3 199.2 L 1420.2 208.9 L 1423.9 217.4 L 1425.4 224.8 L 1427.3 229.8 L 1429.6 232.7 L 1432.4 234.4 L 1436.9 235.5 L 1445.4 236.7 L 1450 238.2 L 1453.6 240.4 L 1454.8 243.5 L 1453.5 247.5 L 1453.4 250.2 L 1454.3 251.6 L 1453.4 253.7 L 1451 256.4 L 1449.5 259 L 1449.1 261.7 L 1449.8 265.5 L 1451.6 270.5 L 1453.3 273.1 L 1454.9 273.2 L 1457.3 275.8 L 1460.4 281 L 1466.6 286 L 1476.1 290.7 L 1481.3 292.5 L 1483.5 292.3 L 1484.2 292.9 L 1484.2 294 L 1484.4 295.2 L 1486.1 296.6 L 1488.9 297.4 L 1493 297.8 L 1494.7 299 L 1494.7 300.9 L 1496.6 303.3 L 1500.7 306.2 L 1507.3 308.4 L 1521.1 311 L 1531.7 305.4 L 1536.8 304.8 L 1539.9 306.9 L 1546.7 309.1 L 1557.3 311.4 L 1563.4 313.9 L 1565.3 316.6 L 1565.5 319.7 L 1564.1 323.2 L 1563.8 326 L 1564.4 327.9 L 1566.5 329.7 L 1569.9 331.3 L 1572.9 334.5 L 1575.3 339.1 L 1578.6 341.5 L 1582.7 341.6 L 1584.9 343.5 L 1585.2 347.1 L 1588.8 353 L 1595.6 361.1 L 1599 369.4 L 1599.4 383.1" />
<g class="city"><circle cx="822.3083933534189" cy="428.60312883384375" r="5" /><text x="834.3083933534189" y="432.60312883384375">Cairo</text></g>
<g class="city"><circle cx="759.9250131446074" cy="373.4138110181018" r="5" /><text x="771.9250131446074" y="377.4138110181018">Alexandria</text></g>
<g class="city"><circle cx="991.2291418031898" cy="331.18549544737533" r="5" /><text x="1003.2291418031898" y="335.18549544737533">Tel Aviv</text></g>
<g class="city"><circle cx="1204.7377880338174" cy="838.0902658966293" r="5" /><text x="1216.7377880338174" y="842.0902658966293">Jeddah</text></g>
<g class="city"><circle cx="1106.401323641098" cy="132.0352212884215" r="5" /><text x="1118.401323641098" y="136.0352212884215">Aleppo</text></g>
<g class="city"><circle cx="1064.6503951727998" cy="263.0401181762793" r="5" /><text x="1076.6503951727998" y="267.0401181762793">Damascus</text></g>
<g class="city"><circle cx="1026.7258577377925" cy="245.1913208035316" r="5" /><text x="1038.7258577377925" y="249.1913208035316">Beirut</text></g>
<g class="city"><circle cx="1233.5711436225706" cy="842.2589091227749" r="5" /><text x="1245.5711436225706" y="846.2589091227749">Makkah</text></g>
<text class="map-title" x="80" y="105">Egypt Physical Study Map</text>
<text class="map-subtitle" x="80" y="145">Landmark: Great Pyramids of Giza | Study terrain and water systems</text>
  <text class="footer" x="80" y="1036">Made with Natural Earth. Free vector and raster map data @ naturalearthdata.com.</text>
</svg>
