<?xml version="1.0" encoding="UTF-8"?>
<svg xmlns="http://www.w3.org/2000/svg" width="1600" height="1100" viewBox="0 0 1600 1100" role="img" aria-labelledby="title desc">
  <title id="title">Egypt Political Study Map</title>
  <desc id="desc">Made with Natural Earth. Free vector and raster map data @ naturalearthdata.com.</desc>
  <defs>
    <linearGradient id="terrain" x1="0" x2="1" y1="0" y2="1">
      <stop offset="0%" stop-color="#6c8c53" />
      <stop offset="42%" stop-color="#d5c487" />
      <stop offset="72%" stop-color="#b88b5f" />
      <stop offset="100%" stop-color="#f1f5ee" />
    </linearGradient>
    <filter id="softShadow" x="-10%" y="-10%" width="120%" height="120%">
      <feDropShadow dx="0" dy="10" stdDeviation="12" flood-color="#0f172a" flood-opacity="0.16" />
    </filter>
    <style>
      .neighbor { fill: #ffffff; stroke: #94a3b8; stroke-width: 1.2; opacity: 0.72; }
      .country { fill: #f7f1df; stroke: #1f2937; stroke-width: 4; filter: url(#softShadow); }
      .admin1 { fill: none; stroke: #64748b; stroke-width: 1.1; stroke-dasharray: 6 7; opacity: 0.75; }
      .river { fill: none; stroke: #1d9bd1; stroke-width: 3; stroke-linecap: round; opacity: 0.88; }
      .lake { fill: #8ed1ea; stroke: #0ea5e9; stroke-width: 1.5; opacity: 0.8; }
      .city circle { fill: #ef4444; stroke: #ffffff; stroke-width: 2; }
      .city text, .terrain-label { fill: #172033; font: 700 24px system-ui, sans-serif; paint-order: stroke; stroke: #ffffff; stroke-width: 5; stroke-linejoin: round; }
      .map-title { fill: #0f172a; font: 800 46px system-ui, sans-serif; }
      .map-subtitle { fill: #475569; font: 600 24px system-ui, sans-serif; }
      .footer { fill: #64748b; font: 500 18px system-ui, sans-serif; }
    </style>
  </defs>
  <rect width="100%" height="100%" fill="#eaf3f8" />
  <rect x="40" y="40" width="1520" height="1020" rx="32" fill="#ffffff" opacity="0.54" />
  <path class="neighbor" d="M 501.7 1475.8 L 465.2 1454.9 L 448.5 1441 L 445.4 1426.1 L 453.2 1406.2 L 453.1 1386.6 L 425.4 1356.6 L 420 1336 L 420.6 1324.4 L 402.9 1310.3 L 402.4 1282.4 L 392.3 1263.9 L 375.5 1266.7 L 380.3 1249 L 392.7 1229 L 387.3 1209.2 L 403.1 1194.4 L 393.1 1183.2 L 405.8 1153.6 L 427.7 1118.3 L 469.1 1121.6 L 466.7 931.1 L 467.3 911 L 522.5 910.8 L 522.5 815 L 715.4 815 L 901.6 815 L 1091.9 815 L 1107.4 862.1 L 1096.9 870.8 L 1103.8 920.2 L 1121.5 977.5 L 1139.7 989.3 L 1166 1007 L 1141.7 1034.4 L 1106.4 1042.3 L 1091.3 1057 L 1086.5 1088.9 L 1065.9 1159.4 L 1071 1178.6 L 1063.3 1219.9 L 1043.8 1267.1 L 1014.9 1290.9 L 994.3 1327.6 L 989.5 1347.2 L 966.7 1360.6 L 952.5 1410.8 L 953.2 1454 L 952.6 1416.6 L 946 1415.6 L 946.8 1391.7 L 941 1375.3 L 916.3 1356.3 L 910.5 1321.7 L 916.3 1286.3 L 894.1 1283 L 890.8 1293.7 L 861.9 1296.2 L 873.5 1310.2 L 877.6 1339 L 851.2 1365.4 L 827.3 1400 L 802.6 1404.9 L 762.3 1376.9 L 744.1 1386.8 L 739.2 1400.8 L 714.5 1409.9 L 712.8 1419.7 L 665 1419.7 L 658.5 1409.9 L 623.9 1408.2 L 606.6 1416.4 L 593.4 1412.3 L 568.7 1384.3 L 560.4 1371.1 L 525.8 1377.7 L 512.6 1400 L 500.3 1442.8 L 483.8 1451.9 L 469.1 1457.1 L 501.7 1475.8 Z" />
<path class="neighbor" d="M 466.7 931.1 L 469.1 1121.6 L 427.7 1118.3 L 405.8 1153.6 L 393.1 1183.2 L 403.1 1194.4 L 387.3 1209.2 L 392.7 1229 L 380.3 1249 L 375.5 1266.7 L 392.3 1263.9 L 402.4 1282.4 L 402.9 1310.3 L 420.6 1324.4 L 420 1336 L 389.6 1344.2 L 365.3 1363.6 L 330.6 1416 L 285.4 1438.2 L 239.1 1435.3 L 225.5 1439.7 L 230.3 1456.6 L 205.3 1473.3 L 184.9 1492.1 L 124.5 1510.4 L 112.5 1499.6 L 104.5 1498.6 L 95.7 1511 L 56 1514.6 L 63.5 1501.6 L 48.4 1468.5 L 41.6 1448.6 L 20.7 1440.5 L -7.6 1412.5 L 2.8 1389.8 L 24.7 1394.7 L 38.2 1391.2 L 65 1391.7 L 38.9 1348.1 L 40.7 1316.2 L 37.5 1284.4 L 18.4 1253.6 L 23.2 1231 L -7.6 1229.9 L -7.5 1199.1 L -27.4 1181.3 L -6.7 1118.1 L 54.5 1072.8 L 57 1010.4 L 75.5 913 L 85.9 892.4 L 66 875.9 L 65.2 860.7 L 47.2 848.2 L 35.5 773.6 L 83.9 747.4 L 275.3 839.2 L 466.7 931.1 Z" />
<path class="neighbor" d="M 1036.9 301.1 L 1028.5 316.2 L 1011.2 309.6 L 1001.1 341.5 L 1013.2 346.9 L 1000.9 353.5 L 998.9 366.1 L 1021.4 359.6 L 1022.6 378.3 L 998.6 455 L 993.9 442.6 L 967.1 372.6 L 967.1 372.6 L 967.1 372.6 L 981.1 356.8 L 977.8 354 L 990.5 331.6 L 1000.2 295.4 L 1007.1 283.3 L 1008.4 282.8 L 1024.5 282.9 L 1028.9 274.4 L 1041.8 273.8 L 1042.5 293.5 L 1036 300.8 L 1036.9 301.1 Z" />
<path class="neighbor" d="M 1041.8 273.8 L 1028.9 274.4 L 1024.5 282.9 L 1008.4 282.8 L 1025.5 243.7 L 1049.4 209.9 L 1050.3 208.2 L 1071.9 210.6 L 1079.7 229.5 L 1053.5 247.5 L 1041.8 273.8 Z" />
<path class="neighbor" d="M 1021.4 359.6 L 998.9 366.1 L 1000.9 353.5 L 1013.2 346.9 L 1001.1 341.5 L 1011.2 309.6 L 1028.5 316.2 L 1028.5 345.6 L 1021.4 359.6 Z" />
<path class="neighbor" d="M 1028.5 316.2 L 1036.9 301.1 L 1090.4 320.1 L 1184.3 269 L 1203.7 327.4 L 1194.5 334.6 L 1098.4 358.7 L 1146.3 406.7 L 1130.4 414.8 L 1122.5 430.9 L 1085.9 437.6 L 1074.4 454.8 L 1053.7 469.6 L 1000.2 462 L 998.6 455 L 1022.6 378.3 L 1021.4 359.6 L 1028.5 345.6 L 1028.5 316.2 Z" />
<path class="neighbor" d="M 1203.7 327.4 L 1184.3 269 L 1290.6 219 L 1308.7 161 L 1304.2 125.9 L 1330.5 114.1 L 1355.1 84.1 L 1375.7 76.7 L 1431.5 82.9 L 1448.3 95.1 L 1471.3 87 L 1502.4 144.2 L 1533.9 158.6 L 1537.5 186.7 L 1513.4 203.2 L 1502.2 240.7 L 1535.5 286.3 L 1594.3 312.6 L 1619 349.1 L 1611.1 383.8 L 1626.4 383.8 L 1626.9 409.4 L 1653.5 434.6 L 1625 432.3 L 1592.7 428.3 L 1557.5 474.3 L 1468.3 470.5 L 1333 374 L 1261.5 340.4 L 1203.7 327.4 Z" />
<path class="neighbor" d="M 1036.9 301.1 L 1036 300.8 L 1042.5 293.5 L 1041.8 273.8 L 1053.5 247.5 L 1079.7 229.5 L 1071.9 210.6 L 1050.3 208.2 L 1045.8 171.5 L 1057.5 151.7 L 1070.4 141.2 L 1083.2 130.7 L 1085.8 103.9 L 1101.5 113.3 L 1154.4 99.9 L 1179.9 109 L 1219.4 108.8 L 1274.6 90.8 L 1300.5 91.6 L 1355.1 84.1 L 1330.5 114.1 L 1304.2 125.9 L 1308.7 161 L 1290.6 219 L 1184.3 269 L 1090.4 320.1 L 1036.9 301.1 Z" />
<path class="neighbor" d="M 584.4 176.8 L 578.4 190.9 L 509.3 195 L 509.8 187.1 L 451.2 177.7 L 460.1 157.3 L 486.3 173.5 L 523.7 170.8 L 559.4 174.2 L 558.2 182.5 L 584.4 176.8 Z M 424.2 -113 L 459.7 -111.6 L 498.1 -124.8 L 531.9 -108 L 575.6 -112.6 L 576.1 -136.5 L 599.5 -123.8 L 584.6 -93.7 L 573.2 -88.3 L 544 -89.7 L 518.9 -94.2 L 460.8 -81.8 L 494.1 -54.8 L 469.7 -47 L 443 -46.9 L 417.6 -71.6 L 408.6 -61.1 L 419.3 -32.4 L 443.3 -9.9 L 425.2 0.6 L 451.9 22.7 L 475.7 36.6 L 476.4 63.7 L 432 51 L 446.2 75.5 L 415.7 80.5 L 433.9 122.9 L 402 123.5 L 362.7 102.6 L 344.7 64.2 L 336.3 32.3 L 317.6 10.2 L 293 -17.1 L 289.7 -30.8 L 312 -54.1 L 314.9 -69.7 L 330.5 -76.6 L 331.5 -89.2 L 362.9 -93.5 L 381.2 -104 L 407.2 -103 L 415.1 -111.4 L 424.2 -113 Z" />
<path class="neighbor" d="M 1471.3 87 L 1448.3 95.1 L 1431.5 82.9 L 1375.7 76.7 L 1355.1 84.1 L 1300.5 91.6 L 1274.6 90.8 L 1219.4 108.8 L 1179.9 109 L 1154.4 99.9 L 1101.5 113.3 L 1085.8 103.9 L 1083.2 130.7 L 1070.4 141.2 L 1057.5 151.7 L 1039.9 130 L 1058.1 111.9 L 1028.8 116 L 988.7 105 L 955.7 132.6 L 882.8 138 L 844 112.2 L 792.2 110.6 L 781.2 130.5 L 748 136.2 L 701.6 110.7 L 649.2 111.5 L 620.8 63.8 L 585.7 37.2 L 609.1 -0.1 L 578.7 -23 L 631.9 -68.9 L 705.8 -70.9 L 725.9 -107.3 L 817.4 -101 L 875.1 -132.1 L 931 -145.7 L 1010.4 -146.7 L 1094.2 -112.9 L 1163 -94.3 L 1218.9 -101.7 L 1260.2 -97.4 L 1316.9 -122.5 L 1368 -124.8 L 1414.2 -101.2 L 1422.4 -84.3 L 1417.8 -61 L 1453.4 -49 L 1472.4 -35 L 1439.5 -21.3 L 1454.5 33.7 L 1445.1 48.6 L 1471.3 87 L 1471.3 87 Z M 576.1 -136.5 L 625 -151.6 L 666.3 -145.1 L 672 -126.7 L 713.9 -111.2 L 705.1 -99.4 L 648.2 -96.8 L 627.7 -81.9 L 587.6 -56.1 L 572.5 -78.4 L 573.2 -88.3 L 584.6 -93.7 L 599.5 -123.8 L 576.1 -136.5 Z" />
<path class="neighbor" d="M 1071 1178.6 L 1065.9 1159.4 L 1086.5 1088.9 L 1091.3 1057 L 1106.4 1042.3 L 1141.7 1034.4 L 1166 1007 L 1193.9 1062.6 L 1207.1 1106.6 L 1233.4 1130 L 1298.9 1175.3 L 1325.6 1202.7 L 1351.6 1230.4 L 1366.6 1246.9 L 1390.2 1261.3 L 1375.7 1273 L 1355.1 1268.9 L 1338.7 1253.3 L 1319 1225.2 L 1297.7 1209.8 L 1285.3 1193.2 L 1243.6 1174 L 1210.7 1173.4 L 1199.1 1163.4 L 1170.9 1174.6 L 1141.8 1152.9 L 1126.8 1188.7 L 1071 1178.6 Z" />
<path class="neighbor" d="M 1818.2 959 L 1855.7 1038.2 L 1871.4 1071.7 L 1836.6 1084.6 L 1827.4 1105.9 L 1826.2 1122.2 L 1778.4 1142.5 L 1701.8 1164.9 L 1658.8 1198.8 L 1637.7 1201.4 L 1623.3 1198.6 L 1595.2 1218.5 L 1564.6 1227.7 L 1524.4 1230.2 L 1512.2 1232.9 L 1501.7 1245.6 L 1489.2 1249.1 L 1481.7 1261.3 L 1458 1260.3 L 1442.7 1266.8 L 1409.4 1264.3 L 1397 1236.3 L 1398.3 1210.1 L 1390.5 1195.9 L 1381.1 1160.4 L 1367.3 1140.7 L 1376.9 1138.3 L 1372 1116.4 L 1377.8 1107.2 L 1375.7 1086.2 L 1396.7 1070.9 L 1391.8 1050.7 L 1404.5 1027.1 L 1424.2 1039.6 L 1437.3 1035.2 L 1492.6 1034.1 L 1501.4 1038.9 L 1547.8 1043.7 L 1566.2 1041.3 L 1578.2 1057.3 L 1600.6 1049.3 L 1635 999 L 1679.8 977.4 L 1818.2 959 Z" />
<path class="neighbor" d="M 1000.2 462 L 1053.7 469.6 L 1074.4 454.8 L 1085.9 437.6 L 1122.5 430.9 L 1130.4 414.8 L 1146.3 406.7 L 1098.4 358.7 L 1194.5 334.6 L 1203.7 327.4 L 1261.5 340.4 L 1333 374 L 1468.3 470.5 L 1557.5 474.3 L 1600.3 479 L 1612.2 501.8 L 1646.2 500.6 L 1665 542 L 1688.6 552.9 L 1696.8 569.8 L 1729.5 590 L 1732.4 609.8 L 1727.6 625.7 L 1733.7 641.9 L 1747.5 655.3 L 1753.9 671 L 1761.1 682.8 L 1775.6 692.3 L 1788.9 688.9 L 1798 707.2 L 1799.8 718.3 L 1818.2 767 L 1962.5 791.2 L 1972.1 781 L 1994.1 815 L 1962.1 911 L 1818.2 959 L 1679.8 977.4 L 1635 999 L 1600.6 1049.3 L 1578.2 1057.3 L 1566.2 1041.3 L 1547.8 1043.7 L 1501.4 1038.9 L 1492.6 1034.1 L 1437.3 1035.2 L 1424.2 1039.6 L 1404.5 1027.1 L 1391.8 1050.7 L 1396.7 1070.9 L 1375.7 1086.2 L 1369.4 1065.8 L 1355 1051.3 L 1351.3 1032.2 L 1326.5 1015 L 1300.9 974.7 L 1287.4 935.6 L 1254.2 902.6 L 1232.8 894.7 L 1201 849 L 1195.4 815.6 L 1197.5 787.2 L 1170 734 L 1147.5 715.2 L 1121.5 705.3 L 1105.8 677.8 L 1108.4 667 L 1095.1 642.1 L 1081 631.4 L 1062.3 595.7 L 1033.1 557 L 1008.6 524 L 984.7 524.3 L 992.2 497.9 L 994.3 481.1 L 1000.2 462 Z" />
<path class="neighbor" d="M 893.5 184.4 L 896.9 184.2 L 903.8 172.6 L 938.4 173.2 L 982 158.9 L 949.6 179.4 L 953.1 188.3 L 948 186.7 L 938.8 190.3 L 931.6 189.3 L 929.2 191.1 L 928.3 186.3 L 924.8 183.3 L 915.5 182.8 L 902.5 186.9 L 893.5 184.4 Z" />
<path class="neighbor" d="M 893.5 184.4 L 902.5 186.9 L 915.5 182.8 L 924.8 183.3 L 928.3 186.3 L 929.2 191.1 L 931.6 189.3 L 938.8 190.3 L 948 186.7 L 953.1 188.3 L 954.6 192.2 L 905.4 211.7 L 881.9 205.5 L 870.7 186.2 L 893.5 184.4 Z" />
<path class="neighbor" d="M 522.5 815 L 522.5 910.8 L 467.3 911 L 466.7 931.1 L 275.3 839.2 L 83.9 747.4 L 35.5 773.6 L 1.5 791.4 L -25.5 765.1 L -101.4 744.4 L -122.5 714.3 L -160.3 692 L -182.8 700.8 L -199.8 674.1 L -201.6 653.5 L -230 618.5 L -211 598.5 L -215.1 568.3 L -209 542 L -212.5 520.2 L -204.1 481 L -206.7 458.7 L -222.2 416.3 L -198.8 405.2 L -194.6 384.9 L -199.7 365.1 L -166.8 346.6 L -152 331.2 L -128.6 317.4 L -125.9 280.6 L -69.5 297.1 L -49.4 292.9 L -9.3 301 L 54.4 322.4 L 76.9 365 L 119.9 374.4 L 187.6 394.5 L 238.7 418.3 L 262.1 405.9 L 285.1 383.8 L 273.9 347 L 289 323.7 L 323.5 301.2 L 356.6 294.7 L 421.5 304.5 L 437.9 325.9 L 455.7 326.1 L 471 334.3 L 518.7 339.9 L 530.4 355.8 L 513 378.8 L 520.4 399.3 L 508.1 429 L 522.5 467.6 L 522.5 638.3 L 522.5 815 Z" />

<path class="country" d="M 1091.9 815 L 901.6 815 L 715.4 815 L 522.5 815 L 522.5 638.3 L 522.5 467.6 L 508.1 429 L 520.4 399.3 L 513 378.8 L 530.4 355.8 L 594.2 355 L 640.4 367.7 L 688.1 381.9 L 710.3 389.3 L 747.2 374.1 L 767 360.4 L 809.3 356.4 L 843.4 362.5 L 856.5 386.3 L 867.6 370.6 L 906.1 382 L 943.5 384.7 L 967.1 372.6 L 967.1 372.6 L 993.9 442.6 L 998.6 455 L 985.2 474.3 L 974.8 510.6 L 961.8 535.6 L 950.6 543.9 L 934.6 528.4 L 912.9 507 L 878.7 438.2 L 873.8 442.6 L 893.7 493.2 L 923.1 541.5 L 959.4 616.2 L 977.1 642.3 L 992.5 669.4 L 1035.6 722.5 L 1026.1 730.9 L 1027.6 762.1 L 1083.5 805.2 L 1091.9 815 Z" />


<g class="city"><circle cx="822.3083933534189" cy="428.60312883384375" r="5" /><text x="834.3083933534189" y="432.60312883384375">Cairo</text></g>
<g class="city"><circle cx="759.9250131446074" cy="373.4138110181018" r="5" /><text x="771.9250131446074" y="377.4138110181018">Alexandria</text></g>
<g class="city"><circle cx="991.2291418031898" cy="331.18549544737533" r="5" /><text x="1003.2291418031898" y="335.18549544737533">Tel Aviv</text></g>
<g class="city"><circle cx="1204.7377880338174" cy="838.0902658966293" r="5" /><text x="1216.7377880338174" y="842.0902658966293">Jeddah</text></g>
<g class="city"><circle cx="1106.401323641098" cy="132.0352212884215" r="5" /><text x="1118.401323641098" y="136.0352212884215">Aleppo</text></g>
<g class="city"><circle cx="1064.6503951727998" cy="263.0401181762793" r="5" /><text x="1076.6503951727998" y="267.0401181762793">Damascus</text></g>
<g class="city"><circle cx="1026.7258577377925" cy="245.1913208035316" r="5" /><text x="1038.7258577377925" y="249.1913208035316">Beirut</text></g>
<g class="city"><circle cx="1233.5711436225706" cy="842.2589091227749" r="5" /><text x="1245.5711436225706" y="846.2589091227749">Makkah</text></g>
<text class="map-title" x="80" y="105">Egypt Political Study Map</text>
<text class="map-subtitle" x="80" y="145">Capital: Cairo | Continent: Africa</text>
  <text class="footer" x="80" y="1036">Made with Natural Earth. Free vector and raster map data @ naturalearthdata.com.</text>
</svg>
