<?xml version="1.0" encoding="UTF-8"?>
<svg xmlns="http://www.w3.org/2000/svg" width="1600" height="1100" viewBox="0 0 1600 1100" role="img" aria-labelledby="title desc">
  <title id="title">Eritrea Physical Study Map</title>
  <desc id="desc">Made with Natural Earth. Free vector and raster map data @ naturalearthdata.com.</desc>
  <defs>
    <linearGradient id="terrain" x1="0" x2="1" y1="0" y2="1">
      <stop offset="0%" stop-color="#6c8c53" />
      <stop offset="42%" stop-color="#d5c487" />
      <stop offset="72%" stop-color="#b88b5f" />
      <stop offset="100%" stop-color="#f1f5ee" />
    </linearGradient>
    <filter id="softShadow" x="-10%" y="-10%" width="120%" height="120%">
      <feDropShadow dx="0" dy="10" stdDeviation="12" flood-color="#0f172a" flood-opacity="0.16" />
    </filter>
    <style>
      .neighbor { fill: #ffffff; stroke: #94a3b8; stroke-width: 1.2; opacity: 0.72; }
      .country { fill: url(#terrain); stroke: #1f2937; stroke-width: 4; filter: url(#softShadow); }
      .admin1 { fill: none; stroke: #64748b; stroke-width: 1.1; stroke-dasharray: 6 7; opacity: 0.75; }
      .river { fill: none; stroke: #1d9bd1; stroke-width: 3; stroke-linecap: round; opacity: 0.88; }
      .lake { fill: #8ed1ea; stroke: #0ea5e9; stroke-width: 1.5; opacity: 0.8; }
      .city circle { fill: #ef4444; stroke: #ffffff; stroke-width: 2; }
      .city text, .terrain-label { fill: #172033; font: 700 24px system-ui, sans-serif; paint-order: stroke; stroke: #ffffff; stroke-width: 5; stroke-linejoin: round; }
      .map-title { fill: #0f172a; font: 800 46px system-ui, sans-serif; }
      .map-subtitle { fill: #475569; font: 600 24px system-ui, sans-serif; }
      .footer { fill: #64748b; font: 500 18px system-ui, sans-serif; }
    </style>
  </defs>
  <rect width="100%" height="100%" fill="#d8edf0" />
  <rect x="40" y="40" width="1520" height="1020" rx="32" fill="#ffffff" opacity="0.54" />
  <path class="neighbor" d="M 956.3 1988.4 L 907.1 1919.9 L 906.1 1617.6 L 978.7 1523.4 L 1001.4 1497.3 L 1054.6 1495.7 L 1128.5 1437.2 L 1236.6 1433.6 L 1471.1 1184.5 L 1529 1115.2 L 1566.5 1064.3 L 1566.5 1021 L 1566.5 937.3 L 1566.8 903.1 L 1567.3 901.7 L 1567.3 901.7 L 1593.8 900.1 L 1632.1 887.7 L 1676.1 879.4 L 1715.4 851 L 1746.8 850.7 L 1748.7 873.7 L 1741 922 L 1741.4 965.6 L 1723.8 995.6 L 1700.4 1085.3 L 1660.5 1178 L 1609.2 1284 L 1538 1405.6 L 1467.1 1498.5 L 1369.5 1611.7 L 1286.5 1678.9 L 1162.3 1761.3 L 1085 1824.4 L 994.1 1924.9 L 975 1968.7 L 956.3 1988.4 Z" />
<path class="neighbor" d="M -456 1165.7 L -519.2 1129.5 L -548 1105.6 L -553.3 1079.8 L -539.9 1045.2 L -540.1 1011.4 L -588 959.5 L -597.4 924 L -596.4 903.9 L -626.9 879.4 L -627.8 831.2 L -645.2 799.2 L -674.3 804 L -666 773.5 L -644.5 738.9 L -653.9 704.5 L -626.6 679.1 L -643.9 659.7 L -622 608.5 L -584.1 547.3 L -512.5 553.1 L -516.6 223.7 L -515.6 188.9 L -420.1 188.6 L -420.1 22.9 L -86.5 22.9 L 235.5 22.9 L 564.6 22.9 L 591.4 104.3 L 573.2 119.4 L 585.3 204.8 L 615.7 303.9 L 647.3 324.3 L 692.8 355 L 650.8 402.4 L 589.6 416 L 563.5 441.5 L 555.3 496.6 L 519.6 618.6 L 528.4 651.8 L 515.2 723.1 L 481.4 804.8 L 431.4 845.9 L 395.8 909.3 L 387.5 943.2 L 348.1 966.5 L 323.6 1053.3 L 324.7 1127.9 L 323.7 1063.2 L 312.3 1061.6 L 313.7 1020.3 L 303.7 991.8 L 261 959 L 251 899.2 L 261 837.9 L 222.5 832.2 L 216.8 850.7 L 166.9 855 L 186.9 879.2 L 194 929.1 L 148.4 974.7 L 107.1 1034.5 L 64.4 1043.1 L -5.5 994.6 L -36.8 1011.7 L -45.4 1035.9 L -88.1 1051.6 L -90.9 1068.7 L -173.6 1068.7 L -185 1051.6 L -244.8 1048.8 L -274.7 1063 L -297.5 1055.9 L -340.3 1007.5 L -354.5 984.7 L -414.3 996.1 L -437.1 1034.5 L -458.5 1108.6 L -487 1124.3 L -512.5 1133.3 L -456 1165.7 Z" />
<path class="neighbor" d="M 1820.6 271.9 L 1885.5 408.8 L 1912.6 466.8 L 1852.6 489.1 L 1836.5 525.9 L 1834.5 554.2 L 1751.9 589.3 L 1619.3 628 L 1545 686.6 L 1508.5 691.1 L 1483.6 686.2 L 1435.1 720.7 L 1382.2 736.6 L 1312.5 740.9 L 1291.5 745.7 L 1273.4 767.6 L 1251.6 773.6 L 1238.8 794.7 L 1197.7 792.9 L 1171.2 804.2 L 1113.8 799.9 L 1092.2 751.5 L 1094.5 706.1 L 1081 681.6 L 1064.7 620.2 L 1040.9 586.1 L 1057.5 582.1 L 1049 544.2 L 1059 528.2 L 1055.4 492 L 1091.8 465.5 L 1083.3 430.5 L 1105.3 389.7 L 1139.4 411.3 L 1161.9 403.8 L 1257.6 401.9 L 1272.9 410.2 L 1353.1 418.5 L 1384.9 414.3 L 1405.6 442 L 1444.4 428.2 L 1503.8 341 L 1581.3 303.7 L 1820.6 271.9 Z" />
<path class="neighbor" d="M 406.1 -587.6 L 498.5 -574.4 L 534.4 -600 L 554.2 -629.8 L 617.5 -641.3 L 631.2 -669.1 L 658.6 -683.2 L 575.9 -766.2 L 742.1 -807.8 L 757.9 -820.4 L 857.9 -797.9 L 981.6 -739.8 L 1215.5 -572.9 L 1369.8 -566.2 L 1443.8 -558.2 L 1464.5 -518.7 L 1523.2 -520.8 L 1555.6 -449.3 L 1596.5 -430.3 L 1610.7 -401.2 L 1667.3 -366.3 L 1672.3 -332 L 1664 -304.4 L 1674.5 -276.5 L 1698.4 -253.3 L 1709.4 -226.1 L 1721.8 -205.7 L 1746.9 -189.2 L 1769.9 -195.1 L 1785.7 -163.4 L 1788.9 -144.3 L 1820.6 -60.2 L 2070.1 -18.3 L 2086.8 -35.9 L 2124.9 22.9 L 2069.5 188.9 L 1820.6 271.9 L 1581.3 303.7 L 1503.8 341 L 1444.4 428.2 L 1405.6 442 L 1384.9 414.3 L 1353.1 418.5 L 1272.9 410.2 L 1257.6 401.9 L 1161.9 403.8 L 1139.4 411.3 L 1105.3 389.7 L 1083.3 430.5 L 1091.8 465.5 L 1055.4 492 L 1044.6 456.6 L 1019.6 431.6 L 1013.2 398.5 L 970.3 368.7 L 926.1 299.1 L 902.7 231.5 L 845.3 174.4 L 808.3 160.8 L 753.3 81.7 L 743.7 24 L 747.2 -25.2 L 699.6 -117.2 L 660.7 -149.6 L 615.9 -166.8 L 588.6 -214.3 L 593.1 -233.1 L 570.1 -276.1 L 545.8 -294.6 L 513.4 -356.4 L 462.9 -423.3 L 420.6 -480.3 L 379.3 -479.9 L 392.2 -525.4 L 395.8 -554.5 L 406.1 -587.6 Z" />
<path class="neighbor" d="M 1471.1 1184.5 L 1236.6 1433.6 L 1128.5 1437.2 L 1054.6 1495.7 L 1001.4 1497.3 L 978.7 1523.4 L 922 1523.4 L 888.5 1495.4 L 812.7 1530.1 L 788.1 1564.7 L 732.8 1558.1 L 714.4 1548.6 L 695 1550.9 L 668.8 1550 L 563.7 1479.5 L 506 1479.5 L 477.6 1452.2 L 477.6 1405.6 L 434.5 1391.7 L 385.5 1301.4 L 347.6 1282.2 L 333 1249 L 290.9 1208.5 L 240 1202.6 L 268.3 1155.3 L 312.3 1153.3 L 324.7 1127.9 L 323.6 1053.3 L 348.1 966.5 L 387.5 943.2 L 395.8 909.3 L 431.4 845.9 L 481.4 804.8 L 515.2 723.1 L 528.4 651.8 L 625 669.1 L 650.9 607.2 L 701.3 644.9 L 750 625.4 L 770 642.7 L 826.9 643.7 L 899.1 677 L 920.6 705.6 L 957.4 732.3 L 991.5 780.9 L 1019.9 807.8 L 990.7 844.5 L 962.6 883.4 L 969.1 906.3 L 970.4 931.6 L 1016.8 932.9 L 1036.7 927.1 L 1055.2 941.9 L 1037.1 971.3 L 1067.7 1017 L 1098.3 1056.9 L 1130 1086.5 L 1401.3 1185 L 1471.1 1184.5 Z" />
<path class="neighbor" d="M 1019.9 807.8 L 1055.4 815 L 1080.4 794.7 L 1100.1 820.4 L 1097.4 854.9 L 1050.1 874.7 L 1085.7 897.4 L 1055.2 941.9 L 1036.7 927.1 L 1016.8 932.9 L 970.4 931.6 L 969.1 906.3 L 962.6 883.4 L 990.7 844.5 L 1019.9 807.8 Z" />
<path class="neighbor" d="M 1567.3 901.7 L 1567.3 901.7 L 1566.8 903.1 L 1566.5 937.3 L 1566.5 1021 L 1566.5 1064.3 L 1529 1115.2 L 1471.1 1184.5 L 1401.3 1185 L 1130 1086.5 L 1098.3 1056.9 L 1067.7 1017 L 1037.1 971.3 L 1055.2 941.9 L 1085.7 897.4 L 1112.7 912.7 L 1129 947.1 L 1166.4 981.8 L 1207.6 982.1 L 1285.9 960.8 L 1376.2 951 L 1449.3 925.2 L 1490.4 919.8 L 1520.1 904.6 L 1567.3 901.7 L 1567.3 901.7 Z" />
<path class="neighbor" d="M 64 1557.4 L -9 1502.3 L -28.7 1466.8 L -75 1484.4 L -113.3 1478.9 L -135.6 1492.9 L -172.8 1482.8 L -223.1 1414.3 L -236.4 1388 L -298.5 1355.2 L -319.4 1305.4 L -354 1269.5 L -409.8 1226.2 L -410.6 1199.3 L -456 1165.7 L -512.5 1133.3 L -487 1124.3 L -458.5 1108.6 L -437.1 1034.5 L -414.3 996.1 L -354.5 984.7 L -340.3 1007.5 L -297.5 1055.9 L -274.7 1063 L -244.8 1048.8 L -185 1051.6 L -173.6 1068.7 L -90.9 1068.7 L -88.1 1051.6 L -45.4 1035.9 L -36.8 1011.7 L -5.5 994.6 L 64.4 1043.1 L 107.1 1034.5 L 148.4 974.7 L 194 929.1 L 186.9 879.2 L 166.9 855 L 216.8 850.7 L 222.5 832.2 L 261 837.9 L 251 899.2 L 261 959 L 303.7 991.8 L 313.7 1020.3 L 312.3 1061.6 L 323.7 1063.2 L 324.7 1127.9 L 312.3 1153.3 L 268.3 1155.3 L 240 1202.6 L 290.9 1208.5 L 333 1249 L 347.6 1282.2 L 385.5 1301.4 L 434.5 1391.7 L 378.2 1446.4 L 327.2 1496 L 276.2 1534.1 L 217.8 1533.9 L 151 1553.4 L 98.2 1534.8 L 64 1557.4 Z" />
<path class="lake" d="M 599.4 869.9 L 596.7 867.8 L 593.3 867.5 L 589.8 868 L 587.8 866.6 L 585.1 864.8 L 583.7 866 L 582.2 866.9 L 580.6 866.6 L 579.1 865.1 L 577.7 862.8 L 575.9 860.5 L 576.2 855.1 L 576.4 850.4 L 577.1 845.6 L 578.1 839.1 L 579.7 835.3 L 581.7 832.6 L 583.7 830.7 L 586.2 830.4 L 589.4 831.3 L 591.9 833.7 L 593.9 833.7 L 598.1 834.2 L 603.4 830.2 L 607 828.9 L 610 828.7 L 613.9 827.6 L 616.9 829.1 L 619.6 831.3 L 621.8 834.3 L 622.7 839.1 L 624.9 843.1 L 624.3 845.8 L 624.2 848.7 L 623.6 851.3 L 622.2 854 L 621.4 857.6 L 618.3 860.3 L 617.3 863.1 L 616.9 866.5 L 612.3 873.3 L 607.9 883.3 L 605.7 883.1 L 604.1 883.3 L 602.9 883 L 602.3 882 L 600.7 880.3 L 602.4 876.9 L 601.4 874.3 L 599.8 871.8 L 599.4 869.9 L 599.4 869.9 L 599.4 869.9 Z" />
<path class="lake" d="M 1027.8 879.6 L 1027.3 882.7 L 1025.3 883.6 L 1023.8 882.3 L 1023.5 880 L 1023.8 878.2 L 1024.8 876.7 L 1026.9 877.9 L 1027.8 879.6 L 1027.8 879.6 L 1027.8 879.6 Z" />
<path class="country" d="M 528.4 651.8 L 519.6 618.6 L 555.3 496.6 L 563.5 441.5 L 589.6 416 L 650.8 402.4 L 692.8 355 L 740.9 451.1 L 763.8 527.3 L 809.3 567.7 L 922.6 646.1 L 968.7 693.4 L 1013.7 741.3 L 1039.6 769.8 L 1080.4 794.7 L 1055.4 815 L 1019.9 807.8 L 991.5 780.9 L 957.4 732.3 L 920.6 705.6 L 899.1 677 L 826.9 643.7 L 770 642.7 L 750 625.4 L 701.3 644.9 L 650.9 607.2 L 625 669.1 L 528.4 651.8 Z" />

<path class="river" d="M 585.1 864.8 L 588.2 861.6 L 592.1 860.6 L 597.7 860.8 L 602.3 866.5 L 607.9 883.3" />
<path class="river" d="M 486.5 609.2 L 484.5 615.2 L 484.1 635.4" />
<path class="river" d="M 358.3 870.8 L 360.7 882.8 L 369 892.9 L 391.3 911.2" />
<path class="river" d="M 590.6 932.8 L 577.6 919.9 L 574.2 912 L 577 901.2 L 579.9 887.6 L 583.8 881.3 L 589.6 877.7 L 590.7 873.1 L 585.1 864.8" />
<path class="river" d="M 607.8 883.2 L 608.4 888.4 L 613.1 891.4 L 622.2 894 L 632.2 900.8 L 643.1 911.9 L 660.3 920.4 L 683.8 926.2 L 697.1 932.7 L 700.2 940 L 701.4 954.7 L 700.5 976.9 L 698.4 992.7 L 695.1 1002.2 L 689.9 1007.5 L 682.7 1008.6 L 667.9 1014.8 L 645.3 1026.1 L 630.5 1028.4 L 623.4 1021.6 L 616.4 1017.1 L 609.7 1014.7 L 605.2 1014.4 L 603 1016.1 L 601.3 1015.4 L 600.3 1012.4 L 597.6 1010.1 L 593.3 1008.4 L 591.4 1005.1 L 591.8 1000.2 L 588.9 996.7 L 579.6 993.6 L 549 988.9 L 537.6 985.3 L 535.4 981.2 L 532.9 979.8 L 530.1 981.1 L 525.6 987.6 L 519.3 999.5 L 509.9 1005.9 L 497.3 1006.9 L 489.2 1009.6 L 485.5 1014 L 480.3 1015.8 L 473.5 1015.1 L 470 1016.3 L 469.8 1018 L 469.6 1018.9 L 468.3 1019.1 L 461.9 1017.4 L 440.4 1007.1 L 439.1 1005.9" />
<path class="river" d="M 458.2 520.8 L 439 494.9 L 432.4 483.9 L 432 479.1 L 425.5 468.4 L 412.8 451.7 L 406 440.9 L 405.2 436.2 L 390.5 426.4 L 361.7 411.4 L 345.7 400.3 L 342.4 392.9 L 336.9 387.6 L 322.8 379.9 M 458.4 520.5 L 460.6 544.4 L 469.1 564.9 L 484.4 589.8 L 488.6 600.1 L 489.3 603.9 L 486.5 609.2" />
<path class="river" d="M 439.1 1005.9 L 438.2 1003.3 L 434.1 984.7 L 429.9 975.9 L 422 971.2 L 424.8 937.9 L 423.1 924.2 L 417.8 919 L 409.2 915.1 L 391.3 911.2 M 358.3 870.8 L 353.7 848.8 L 353.1 836.7 L 355 827.2 L 351.8 819.4 L 343.3 813.1 L 339.8 808.5 L 341.4 805.3 L 341.3 800 L 339.5 792.3 L 336.5 786 L 332.2 781.1 L 330.1 780.4 L 326.8 778 L 325.2 773.3 L 323.5 757.9 L 321 748.4 L 317.6 744.9 L 312.5 742.8 L 305.5 742.1 L 301.2 738.2 L 299.6 731.2 L 296.8 725.9 L 293 722.3 L 292.1 718.4 L 294.2 714.3 L 293.8 711 L 291.7 708.9 L 292 707.1 L 293.3 705.8 L 293.5 704 L 291.9 701.8 L 291.4 700.1 L 292 698.8 L 293.2 697.9 L 293.9 696.2 L 292.9 692 L 294.3 685.9 L 298.3 677.8 L 290.8 658.3 L 271.7 627.4 L 261.3 607.5 L 259.4 598.6 L 254.9 590.6 L 247.6 583.6 L 239.6 578.6 L 230.7 575.7 L 221.8 568.8 L 213 557.9 L 206.7 552.2 L 201.5 551.2" />
<path class="river" d="M 201.5 551.2 L 205.2 517.5 L 213 499.6 L 225.9 486.1 L 237.9 478.7 L 248.8 477.2 L 257.5 473.9 L 263.8 468.7 L 273.6 463.9 L 286.8 459.6 L 296.5 452.4 L 302.4 442.5 L 304.5 435.5 L 302.9 431.3 L 303.1 425.3 L 305.2 417.4 L 311 406.4 L 320.6 392.2 L 322.8 379.9 L 324.2 372.1 L 321.9 346 L 318.5 331.8 L 313.9 329.6 L 308.9 324.7 L 303.4 317.1 L 300.4 308.8 L 299.8 299.9 L 297.3 294.8 L 292.8 293.4 L 290.8 284.5 L 291.4 268.3 L 288.5 257.5 L 282.2 252.2 L 278.1 246.3 L 275.3 236.8 L 255.3 230.2 L 245.3 229.5 L 238.7 232.5 L 230.4 240.1 L 220.3 252.1 L 212.2 258.5 L 206.1 259.3 L 199.6 265 L 192.8 275.7 L 186.2 281 L 179.9 280.9 L 173.5 283.1 L 167.1 287.5 L 164.1 293.2 L 164.5 300 L 161.2 304.5 L 154.2 306.7 L 144.2 317.3 L 131.1 336.4 L 117.2 348.4 L 102.4 353.6 L 89.9 354.7 L 79.7 351.8 L 70.4 347.6 L 61.9 342.1 L 56.6 333.5 L 54.3 321.9 L 50.7 313.4 L 45.9 308.2 L 41.4 300.1 L 37.2 289 L 35.2 272.9 L 35.3 251.7 L 32.8 232.8 L 27.7 216.1 L 23.9 206.6 L 23.7 203.7 L 25.5 200.8 L 36.3 196 L 42.5 191.6 L 44.1 187.6 L 44.6 180.7 L 43.9 171.1 L 42.2 164.7 L 39.6 161.6 L 35.4 159.8 L 29.8 159.2 L 25.2 154.3 L 21.5 145.1 L 21.1 137.8 L 24.1 132.2 L 24.9 127.9 L 25.5 124.6 L 27.8 122.1 L 37.2 119.2 L 42.6 114.2 L 44.2 107.1 L 47.2 102.3 L 51.8 99.6 L 53.7 95.9 L 52.8 91.2 L 58.2 85.2 L 69.7 77.9 L 75.3 72.8 L 74.9 69.7 L 77.3 65 L 85.3 55.3 M 233.8 -142.1 L 236.6 -170.3 L 236.5 -180.8 L 234.6 -182.7 L 234.8 -187.9 L 237.1 -196.1 L 237.2 -207 L 235.1 -220.5 L 233 -229.2 L 231.1 -232.9 L 224.5 -238.5 L 213 -245.9 L 205.6 -255.1 L 202.5 -266.2 L 201.7 -273 L 204.2 -276.9 L 219.2 -288.7 L 224.2 -299 L 224.1 -311.9 L 221.7 -319.7 L 217 -322.6 L 206.7 -320.9 L 190.8 -314.6 L 179.8 -315.4 L 173.6 -323.3 L 168.6 -324.8 L 164.2 -324.8 L 162.1 -325.7 L 160.5 -329.5 L 157.9 -333.7 L 150.1 -340.1 L 145.9 -346 L 145.2 -351.3 L 142.7 -354 L 138.4 -354.1 L 136.4 -355.9 L 136.9 -359.3 L 135.5 -361.5 L 132.2 -362.5 L 123.7 -372.3 L 108.4 -392.9 L 106.1 -396.8 L 103 -400.2 L 100.9 -402.2 L 98.1 -404 L 75.3 -421.5 L 66.9 -433.6 L 68.6 -443.4 L 68.2 -455.8 L 67.6 -466.9 L 66.4 -473.8 L 64.3 -478.2 L 61.8 -482.1 L 59.1 -485 L 56.6 -488.8 L 56.2 -494.1 L 58.1 -500.6 L 62.1 -508.3 L 64.2 -515.9 L 64.3 -523.3 L 66 -531.6 L 69.4 -540.7 L 77.4 -553.3 L 89.9 -569.3 L 96 -581.4 L 95.7 -589.5 L 97.4 -598.6 L 101.1 -608.5 L 101.6 -623 L 99 -640.9 L 98.9 -647.7 L 97.5 -651" />
<path class="river" d="M 643.5 697.2 L 633.8 694.3 L 628 689.3 L 620.2 677.1 L 605.1 655.9 L 597.1 649.2 L 591.1 649.8 L 586.8 653.1 L 584 659.1 L 581 662.8 L 577.8 664.2 L 570.8 663.5 L 560.1 660.7 L 549.1 661.3 L 537.8 665.4 L 528.2 666.1 L 520.5 663.4 L 511 663.7 L 499.8 666.7 L 490.8 665.4 L 484 659.8 L 481.5 651.6 L 484.1 635.4" />
<g class="city"><circle cx="1173.6525758850385" cy="574.2265516316306" r="5" /><text x="1185.6525758850385" y="578.2265516316306">Sanaa</text></g>
<g class="city"><circle cx="1240.4457565555585" cy="788.0860267683415" r="5" /><text x="1252.4457565555585" y="792.0860267683415">Aden</text></g>
<g class="city"><circle cx="1085.962386776142" cy="886.4040597226249" r="5" /><text x="1097.962386776142" y="890.4040597226249">Djibouti</text></g>
<g class="city"><circle cx="1159.778942071926" cy="719.4809432478467" r="5" /><text x="1171.778942071926" y="723.4809432478467">Taizz</text></g>
<g class="city"><circle cx="736.1896995629172" cy="576.1635191815968" r="5" /><text x="748.1896995629172" y="580.1635191815968">Asmara</text></g>
<g class="city"><circle cx="593.7057358696027" cy="220.76632302529504" r="5" /><text x="605.7057358696027" y="224.76632302529504">Port Sudan</text></g>
<g class="city"><circle cx="525.122644482816" cy="565.6543498690485" r="5" /><text x="537.122644482816" y="569.6543498690485">Kassala</text></g>
<g class="city"><circle cx="1241.0204566533957" cy="982.6270307317968" r="5" /><text x="1253.0204566533957" y="986.6270307317968">Berbera</text></g>
<text class="map-title" x="80" y="105">Eritrea Physical Study Map</text>
<text class="map-subtitle" x="80" y="145">Landmark: Fiat Tagliero Building | Study terrain and water systems</text>
  <text class="footer" x="80" y="1036">Made with Natural Earth. Free vector and raster map data @ naturalearthdata.com.</text>
</svg>
