<?xml version="1.0" encoding="UTF-8"?>
<svg xmlns="http://www.w3.org/2000/svg" width="1600" height="1100" viewBox="0 0 1600 1100" role="img" aria-labelledby="title desc">
  <title id="title">Eritrea Political Study Map</title>
  <desc id="desc">Made with Natural Earth. Free vector and raster map data @ naturalearthdata.com.</desc>
  <defs>
    <linearGradient id="terrain" x1="0" x2="1" y1="0" y2="1">
      <stop offset="0%" stop-color="#6c8c53" />
      <stop offset="42%" stop-color="#d5c487" />
      <stop offset="72%" stop-color="#b88b5f" />
      <stop offset="100%" stop-color="#f1f5ee" />
    </linearGradient>
    <filter id="softShadow" x="-10%" y="-10%" width="120%" height="120%">
      <feDropShadow dx="0" dy="10" stdDeviation="12" flood-color="#0f172a" flood-opacity="0.16" />
    </filter>
    <style>
      .neighbor { fill: #ffffff; stroke: #94a3b8; stroke-width: 1.2; opacity: 0.72; }
      .country { fill: #f7f1df; stroke: #1f2937; stroke-width: 4; filter: url(#softShadow); }
      .admin1 { fill: none; stroke: #64748b; stroke-width: 1.1; stroke-dasharray: 6 7; opacity: 0.75; }
      .river { fill: none; stroke: #1d9bd1; stroke-width: 3; stroke-linecap: round; opacity: 0.88; }
      .lake { fill: #8ed1ea; stroke: #0ea5e9; stroke-width: 1.5; opacity: 0.8; }
      .city circle { fill: #ef4444; stroke: #ffffff; stroke-width: 2; }
      .city text, .terrain-label { fill: #172033; font: 700 24px system-ui, sans-serif; paint-order: stroke; stroke: #ffffff; stroke-width: 5; stroke-linejoin: round; }
      .map-title { fill: #0f172a; font: 800 46px system-ui, sans-serif; }
      .map-subtitle { fill: #475569; font: 600 24px system-ui, sans-serif; }
      .footer { fill: #64748b; font: 500 18px system-ui, sans-serif; }
    </style>
  </defs>
  <rect width="100%" height="100%" fill="#eaf3f8" />
  <rect x="40" y="40" width="1520" height="1020" rx="32" fill="#ffffff" opacity="0.54" />
  <path class="neighbor" d="M 956.3 1988.4 L 907.1 1919.9 L 906.1 1617.6 L 978.7 1523.4 L 1001.4 1497.3 L 1054.6 1495.7 L 1128.5 1437.2 L 1236.6 1433.6 L 1471.1 1184.5 L 1529 1115.2 L 1566.5 1064.3 L 1566.5 1021 L 1566.5 937.3 L 1566.8 903.1 L 1567.3 901.7 L 1567.3 901.7 L 1593.8 900.1 L 1632.1 887.7 L 1676.1 879.4 L 1715.4 851 L 1746.8 850.7 L 1748.7 873.7 L 1741 922 L 1741.4 965.6 L 1723.8 995.6 L 1700.4 1085.3 L 1660.5 1178 L 1609.2 1284 L 1538 1405.6 L 1467.1 1498.5 L 1369.5 1611.7 L 1286.5 1678.9 L 1162.3 1761.3 L 1085 1824.4 L 994.1 1924.9 L 975 1968.7 L 956.3 1988.4 Z" />
<path class="neighbor" d="M -456 1165.7 L -519.2 1129.5 L -548 1105.6 L -553.3 1079.8 L -539.9 1045.2 L -540.1 1011.4 L -588 959.5 L -597.4 924 L -596.4 903.9 L -626.9 879.4 L -627.8 831.2 L -645.2 799.2 L -674.3 804 L -666 773.5 L -644.5 738.9 L -653.9 704.5 L -626.6 679.1 L -643.9 659.7 L -622 608.5 L -584.1 547.3 L -512.5 553.1 L -516.6 223.7 L -515.6 188.9 L -420.1 188.6 L -420.1 22.9 L -86.5 22.9 L 235.5 22.9 L 564.6 22.9 L 591.4 104.3 L 573.2 119.4 L 585.3 204.8 L 615.7 303.9 L 647.3 324.3 L 692.8 355 L 650.8 402.4 L 589.6 416 L 563.5 441.5 L 555.3 496.6 L 519.6 618.6 L 528.4 651.8 L 515.2 723.1 L 481.4 804.8 L 431.4 845.9 L 395.8 909.3 L 387.5 943.2 L 348.1 966.5 L 323.6 1053.3 L 324.7 1127.9 L 323.7 1063.2 L 312.3 1061.6 L 313.7 1020.3 L 303.7 991.8 L 261 959 L 251 899.2 L 261 837.9 L 222.5 832.2 L 216.8 850.7 L 166.9 855 L 186.9 879.2 L 194 929.1 L 148.4 974.7 L 107.1 1034.5 L 64.4 1043.1 L -5.5 994.6 L -36.8 1011.7 L -45.4 1035.9 L -88.1 1051.6 L -90.9 1068.7 L -173.6 1068.7 L -185 1051.6 L -244.8 1048.8 L -274.7 1063 L -297.5 1055.9 L -340.3 1007.5 L -354.5 984.7 L -414.3 996.1 L -437.1 1034.5 L -458.5 1108.6 L -487 1124.3 L -512.5 1133.3 L -456 1165.7 Z" />
<path class="neighbor" d="M 1820.6 271.9 L 1885.5 408.8 L 1912.6 466.8 L 1852.6 489.1 L 1836.5 525.9 L 1834.5 554.2 L 1751.9 589.3 L 1619.3 628 L 1545 686.6 L 1508.5 691.1 L 1483.6 686.2 L 1435.1 720.7 L 1382.2 736.6 L 1312.5 740.9 L 1291.5 745.7 L 1273.4 767.6 L 1251.6 773.6 L 1238.8 794.7 L 1197.7 792.9 L 1171.2 804.2 L 1113.8 799.9 L 1092.2 751.5 L 1094.5 706.1 L 1081 681.6 L 1064.7 620.2 L 1040.9 586.1 L 1057.5 582.1 L 1049 544.2 L 1059 528.2 L 1055.4 492 L 1091.8 465.5 L 1083.3 430.5 L 1105.3 389.7 L 1139.4 411.3 L 1161.9 403.8 L 1257.6 401.9 L 1272.9 410.2 L 1353.1 418.5 L 1384.9 414.3 L 1405.6 442 L 1444.4 428.2 L 1503.8 341 L 1581.3 303.7 L 1820.6 271.9 Z" />
<path class="neighbor" d="M 406.1 -587.6 L 498.5 -574.4 L 534.4 -600 L 554.2 -629.8 L 617.5 -641.3 L 631.2 -669.1 L 658.6 -683.2 L 575.9 -766.2 L 742.1 -807.8 L 757.9 -820.4 L 857.9 -797.9 L 981.6 -739.8 L 1215.5 -572.9 L 1369.8 -566.2 L 1443.8 -558.2 L 1464.5 -518.7 L 1523.2 -520.8 L 1555.6 -449.3 L 1596.5 -430.3 L 1610.7 -401.2 L 1667.3 -366.3 L 1672.3 -332 L 1664 -304.4 L 1674.5 -276.5 L 1698.4 -253.3 L 1709.4 -226.1 L 1721.8 -205.7 L 1746.9 -189.2 L 1769.9 -195.1 L 1785.7 -163.4 L 1788.9 -144.3 L 1820.6 -60.2 L 2070.1 -18.3 L 2086.8 -35.9 L 2124.9 22.9 L 2069.5 188.9 L 1820.6 271.9 L 1581.3 303.7 L 1503.8 341 L 1444.4 428.2 L 1405.6 442 L 1384.9 414.3 L 1353.1 418.5 L 1272.9 410.2 L 1257.6 401.9 L 1161.9 403.8 L 1139.4 411.3 L 1105.3 389.7 L 1083.3 430.5 L 1091.8 465.5 L 1055.4 492 L 1044.6 456.6 L 1019.6 431.6 L 1013.2 398.5 L 970.3 368.7 L 926.1 299.1 L 902.7 231.5 L 845.3 174.4 L 808.3 160.8 L 753.3 81.7 L 743.7 24 L 747.2 -25.2 L 699.6 -117.2 L 660.7 -149.6 L 615.9 -166.8 L 588.6 -214.3 L 593.1 -233.1 L 570.1 -276.1 L 545.8 -294.6 L 513.4 -356.4 L 462.9 -423.3 L 420.6 -480.3 L 379.3 -479.9 L 392.2 -525.4 L 395.8 -554.5 L 406.1 -587.6 Z" />
<path class="neighbor" d="M 1471.1 1184.5 L 1236.6 1433.6 L 1128.5 1437.2 L 1054.6 1495.7 L 1001.4 1497.3 L 978.7 1523.4 L 922 1523.4 L 888.5 1495.4 L 812.7 1530.1 L 788.1 1564.7 L 732.8 1558.1 L 714.4 1548.6 L 695 1550.9 L 668.8 1550 L 563.7 1479.5 L 506 1479.5 L 477.6 1452.2 L 477.6 1405.6 L 434.5 1391.7 L 385.5 1301.4 L 347.6 1282.2 L 333 1249 L 290.9 1208.5 L 240 1202.6 L 268.3 1155.3 L 312.3 1153.3 L 324.7 1127.9 L 323.6 1053.3 L 348.1 966.5 L 387.5 943.2 L 395.8 909.3 L 431.4 845.9 L 481.4 804.8 L 515.2 723.1 L 528.4 651.8 L 625 669.1 L 650.9 607.2 L 701.3 644.9 L 750 625.4 L 770 642.7 L 826.9 643.7 L 899.1 677 L 920.6 705.6 L 957.4 732.3 L 991.5 780.9 L 1019.9 807.8 L 990.7 844.5 L 962.6 883.4 L 969.1 906.3 L 970.4 931.6 L 1016.8 932.9 L 1036.7 927.1 L 1055.2 941.9 L 1037.1 971.3 L 1067.7 1017 L 1098.3 1056.9 L 1130 1086.5 L 1401.3 1185 L 1471.1 1184.5 Z" />
<path class="neighbor" d="M 1019.9 807.8 L 1055.4 815 L 1080.4 794.7 L 1100.1 820.4 L 1097.4 854.9 L 1050.1 874.7 L 1085.7 897.4 L 1055.2 941.9 L 1036.7 927.1 L 1016.8 932.9 L 970.4 931.6 L 969.1 906.3 L 962.6 883.4 L 990.7 844.5 L 1019.9 807.8 Z" />
<path class="neighbor" d="M 1567.3 901.7 L 1567.3 901.7 L 1566.8 903.1 L 1566.5 937.3 L 1566.5 1021 L 1566.5 1064.3 L 1529 1115.2 L 1471.1 1184.5 L 1401.3 1185 L 1130 1086.5 L 1098.3 1056.9 L 1067.7 1017 L 1037.1 971.3 L 1055.2 941.9 L 1085.7 897.4 L 1112.7 912.7 L 1129 947.1 L 1166.4 981.8 L 1207.6 982.1 L 1285.9 960.8 L 1376.2 951 L 1449.3 925.2 L 1490.4 919.8 L 1520.1 904.6 L 1567.3 901.7 L 1567.3 901.7 Z" />
<path class="neighbor" d="M 64 1557.4 L -9 1502.3 L -28.7 1466.8 L -75 1484.4 L -113.3 1478.9 L -135.6 1492.9 L -172.8 1482.8 L -223.1 1414.3 L -236.4 1388 L -298.5 1355.2 L -319.4 1305.4 L -354 1269.5 L -409.8 1226.2 L -410.6 1199.3 L -456 1165.7 L -512.5 1133.3 L -487 1124.3 L -458.5 1108.6 L -437.1 1034.5 L -414.3 996.1 L -354.5 984.7 L -340.3 1007.5 L -297.5 1055.9 L -274.7 1063 L -244.8 1048.8 L -185 1051.6 L -173.6 1068.7 L -90.9 1068.7 L -88.1 1051.6 L -45.4 1035.9 L -36.8 1011.7 L -5.5 994.6 L 64.4 1043.1 L 107.1 1034.5 L 148.4 974.7 L 194 929.1 L 186.9 879.2 L 166.9 855 L 216.8 850.7 L 222.5 832.2 L 261 837.9 L 251 899.2 L 261 959 L 303.7 991.8 L 313.7 1020.3 L 312.3 1061.6 L 323.7 1063.2 L 324.7 1127.9 L 312.3 1153.3 L 268.3 1155.3 L 240 1202.6 L 290.9 1208.5 L 333 1249 L 347.6 1282.2 L 385.5 1301.4 L 434.5 1391.7 L 378.2 1446.4 L 327.2 1496 L 276.2 1534.1 L 217.8 1533.9 L 151 1553.4 L 98.2 1534.8 L 64 1557.4 Z" />

<path class="country" d="M 528.4 651.8 L 519.6 618.6 L 555.3 496.6 L 563.5 441.5 L 589.6 416 L 650.8 402.4 L 692.8 355 L 740.9 451.1 L 763.8 527.3 L 809.3 567.7 L 922.6 646.1 L 968.7 693.4 L 1013.7 741.3 L 1039.6 769.8 L 1080.4 794.7 L 1055.4 815 L 1019.9 807.8 L 991.5 780.9 L 957.4 732.3 L 920.6 705.6 L 899.1 677 L 826.9 643.7 L 770 642.7 L 750 625.4 L 701.3 644.9 L 650.9 607.2 L 625 669.1 L 528.4 651.8 Z" />


<g class="city"><circle cx="1173.6525758850385" cy="574.2265516316306" r="5" /><text x="1185.6525758850385" y="578.2265516316306">Sanaa</text></g>
<g class="city"><circle cx="1240.4457565555585" cy="788.0860267683415" r="5" /><text x="1252.4457565555585" y="792.0860267683415">Aden</text></g>
<g class="city"><circle cx="1085.962386776142" cy="886.4040597226249" r="5" /><text x="1097.962386776142" y="890.4040597226249">Djibouti</text></g>
<g class="city"><circle cx="1159.778942071926" cy="719.4809432478467" r="5" /><text x="1171.778942071926" y="723.4809432478467">Taizz</text></g>
<g class="city"><circle cx="736.1896995629172" cy="576.1635191815968" r="5" /><text x="748.1896995629172" y="580.1635191815968">Asmara</text></g>
<g class="city"><circle cx="593.7057358696027" cy="220.76632302529504" r="5" /><text x="605.7057358696027" y="224.76632302529504">Port Sudan</text></g>
<g class="city"><circle cx="525.122644482816" cy="565.6543498690485" r="5" /><text x="537.122644482816" y="569.6543498690485">Kassala</text></g>
<g class="city"><circle cx="1241.0204566533957" cy="982.6270307317968" r="5" /><text x="1253.0204566533957" y="986.6270307317968">Berbera</text></g>
<text class="map-title" x="80" y="105">Eritrea Political Study Map</text>
<text class="map-subtitle" x="80" y="145">Capital: Asmara | Continent: Africa</text>
  <text class="footer" x="80" y="1036">Made with Natural Earth. Free vector and raster map data @ naturalearthdata.com.</text>
</svg>
