<?xml version="1.0" encoding="UTF-8"?>
<svg xmlns="http://www.w3.org/2000/svg" width="1600" height="1100" viewBox="0 0 1600 1100" role="img" aria-labelledby="title desc">
  <title id="title">Ethiopia Political Study Map</title>
  <desc id="desc">Made with Natural Earth. Free vector and raster map data @ naturalearthdata.com.</desc>
  <defs>
    <linearGradient id="terrain" x1="0" x2="1" y1="0" y2="1">
      <stop offset="0%" stop-color="#6c8c53" />
      <stop offset="42%" stop-color="#d5c487" />
      <stop offset="72%" stop-color="#b88b5f" />
      <stop offset="100%" stop-color="#f1f5ee" />
    </linearGradient>
    <filter id="softShadow" x="-10%" y="-10%" width="120%" height="120%">
      <feDropShadow dx="0" dy="10" stdDeviation="12" flood-color="#0f172a" flood-opacity="0.16" />
    </filter>
    <style>
      .neighbor { fill: #ffffff; stroke: #94a3b8; stroke-width: 1.2; opacity: 0.72; }
      .country { fill: #f7f1df; stroke: #1f2937; stroke-width: 4; filter: url(#softShadow); }
      .admin1 { fill: none; stroke: #64748b; stroke-width: 1.1; stroke-dasharray: 6 7; opacity: 0.75; }
      .river { fill: none; stroke: #1d9bd1; stroke-width: 3; stroke-linecap: round; opacity: 0.88; }
      .lake { fill: #8ed1ea; stroke: #0ea5e9; stroke-width: 1.5; opacity: 0.8; }
      .city circle { fill: #ef4444; stroke: #ffffff; stroke-width: 2; }
      .city text, .terrain-label { fill: #172033; font: 700 24px system-ui, sans-serif; paint-order: stroke; stroke: #ffffff; stroke-width: 5; stroke-linejoin: round; }
      .map-title { fill: #0f172a; font: 800 46px system-ui, sans-serif; }
      .map-subtitle { fill: #475569; font: 600 24px system-ui, sans-serif; }
      .footer { fill: #64748b; font: 500 18px system-ui, sans-serif; }
    </style>
  </defs>
  <rect width="100%" height="100%" fill="#eaf3f8" />
  <rect x="40" y="40" width="1520" height="1020" rx="32" fill="#ffffff" opacity="0.54" />
  <path class="neighbor" d="M 542.1 989.3 L 548.8 993.7 L 693.4 1074.9 L 696.1 1098 L 753.4 1137.9 L 735 1187 L 737.3 1209.6 L 762.8 1224.2 L 764 1234.5 L 753.1 1258.6 L 755.4 1270.7 L 752.7 1289.8 L 766.7 1314.8 L 783.2 1354.1 L 797.8 1362.8 L 797.8 1362.8 L 766.1 1385.9 L 722.5 1401.4 L 698.6 1400.7 L 684.4 1412.7 L 656.6 1413.7 L 646.2 1418.8 L 598.3 1407.5 L 568.3 1410.7 L 557.1 1356.5 L 543.6 1337.9 L 535.6 1326.9 L 496.5 1319.5 L 473.9 1307.5 L 448.5 1300.8 L 432.6 1294.1 L 416 1284 L 416 1284 L 394.4 1233.7 L 371.3 1211.4 L 363.3 1188.3 L 367.3 1167.5 L 360.2 1130.9 L 376.6 1129 L 391.1 1114.5 L 406.6 1093.7 L 416.5 1085.4 L 416.1 1072.4 L 407.5 1063.4 L 405.2 1047.7 L 405.2 1047.7 L 416.7 1042.6 L 419 1019.2 L 403.2 996.7 L 417.2 991.9 L 460.9 992.4 L 542.1 989.3 Z" />
<path class="neighbor" d="M 360.2 1130.9 L 367.3 1167.5 L 363.3 1188.3 L 371.3 1211.4 L 394.4 1233.7 L 416 1284 L 416 1284 L 400.3 1279.9 L 346.7 1286.6 L 336 1291.4 L 324.7 1316.8 L 333.6 1334.4 L 326.5 1381.6 L 321.6 1421.7 L 332.3 1428.8 L 360.2 1444.3 L 371.2 1437 L 374.5 1480 L 344 1479.7 L 327.6 1457.7 L 312.9 1440.7 L 282.4 1435.2 L 273.4 1414.3 L 249 1426.9 L 217.1 1421.3 L 203.8 1403.2 L 178.5 1399.5 L 159.8 1400.5 L 157.5 1388.1 L 143.7 1387.1 L 125.6 1384.7 L 100.9 1390.7 L 83.6 1389.7 L 73.7 1393.4 L 75.8 1345.9 L 62.5 1331.2 L 59.6 1306.6 L 65.5 1282.6 L 57.4 1267.2 L 56.7 1242.1 L 8.3 1242.5 L 11.8 1228.1 L -8.6 1228.3 L -10.7 1235.2 L -35.5 1236.7 L -45.5 1260 L -51.4 1269.9 L -73.5 1264.3 L -86.6 1269.9 L -113 1273.1 L -128.3 1252.3 L -137.4 1239.4 L -148.9 1215.5 L -158.7 1185.8 L -276.4 1185.2 L -290.3 1190 L -301.9 1189.3 L -318.3 1194.7 L -323.9 1182.3 L -313.8 1178.1 L -312.5 1160.7 L -306 1150.4 L -291.5 1142.1 L -281 1146.1 L -267.4 1130.9 L -245.7 1131.3 L -243.1 1142.5 L -228.2 1149.6 L -204.8 1124.6 L -181.5 1105.1 L -171.5 1092.4 L -172.8 1059.6 L -155.5 1020.9 L -137.2 1000.3 L -111 981.1 L -106.4 968.4 L -105.4 953.8 L -98.9 939.9 L -101 917.3 L -96 882 L -88.2 857.1 L -76.3 835.8 L -73.9 811.7 L -70.3 783.9 L -54.8 763.7 L -33.5 750.8 L -0.6 764.4 L 24.8 779.1 L 53.9 783 L 83.7 790.8 L 95.6 766.7 L 101.1 763.6 L 119.2 767.6 L 163.6 747.7 L 179.3 756.2 L 192.3 755 L 198.2 745.3 L 213.1 741.9 L 243 746.1 L 268.6 747 L 281.8 742.8 L 305.9 775.7 L 323.8 780.5 L 334.5 773.8 L 352.9 776.4 L 375.1 768 L 384.6 785 L 419.7 811.5 L 419.7 811.5 L 417.3 858.1 L 433.3 863.5 L 420.5 877.7 L 405.2 888.3 L 389.9 909.1 L 381.5 927.6 L 379.3 959.6 L 370 974.9 L 369.7 1004.9 L 358.2 1016 L 356.8 1039.8 L 351.3 1042.8 L 347.6 1064.6 L 357.6 1082.8 L 360.2 1130.9 Z" />
<path class="neighbor" d="M 848.4 1018.6 L 824.8 985.7 L 824.3 840.4 L 859.1 795.2 L 870 782.6 L 895.6 781.9 L 931.1 753.8 L 983.1 752 L 1095.7 632.4 L 1123.5 599.1 L 1141.5 574.6 L 1141.5 553.8 L 1141.6 513.6 L 1141.7 497.1 L 1141.9 496.5 L 1141.9 496.5 L 1154.7 495.7 L 1173.1 489.8 L 1194.2 485.8 L 1213.1 472.1 L 1228.2 472 L 1229.1 483 L 1225.4 506.2 L 1225.6 527.2 L 1217.1 541.6 L 1205.9 584.7 L 1186.7 629.2 L 1162.1 680.1 L 1127.8 738.6 L 1093.8 783.2 L 1046.9 837.6 L 1007 869.9 L 947.4 909.5 L 910.2 939.8 L 866.6 988.1 L 857.4 1009.1 L 848.4 1018.6 Z" />
<path class="neighbor" d="M 753.4 1137.9 L 696.1 1098 L 693.4 1074.9 L 548.8 993.7 L 542.1 989.3 L 541.7 947.1 L 553.1 930.9 L 572.8 904.5 L 587.3 875.5 L 569.7 829.7 L 565.1 809.7 L 546.2 782 L 570.7 758.2 L 597.7 731.9 L 618.4 738.6 L 618.4 761 L 632 774.1 L 659.8 774.1 L 710.3 808 L 722.9 808.4 L 732.2 807.3 L 741 811.9 L 767.6 815 L 779.4 798.4 L 815.8 781.7 L 831.9 795.2 L 859.1 795.2 L 824.3 840.4 L 824.8 985.7 L 848.4 1018.6 L 820.5 1034.5 L 810.6 1051.1 L 795.7 1054 L 790 1082.1 L 777.2 1098.2 L 769.4 1124.7 L 753.4 1137.9 Z" />
<path class="neighbor" d="M 169.9 623.3 L 139.5 605.9 L 125.7 594.4 L 123.1 582 L 129.6 565.4 L 129.5 549.2 L 106.5 524.2 L 102 507.2 L 102.4 497.5 L 87.8 485.8 L 87.3 462.6 L 79 447.2 L 65 449.5 L 69 434.9 L 79.3 418.3 L 74.8 401.8 L 87.9 389.5 L 79.6 380.2 L 90.2 355.6 L 108.4 326.2 L 142.7 329 L 140.8 170.8 L 141.3 154 L 187.1 153.9 L 187.1 74.3 L 347.4 74.3 L 502.1 74.3 L 660.2 74.3 L 673.1 113.4 L 664.3 120.6 L 670.1 161.7 L 684.8 209.3 L 700 219.1 L 721.8 233.8 L 701.6 256.6 L 672.2 263.2 L 659.7 275.4 L 655.8 301.9 L 638.6 360.5 L 642.8 376.4 L 636.5 410.7 L 620.3 449.9 L 596.2 469.7 L 579.1 500.1 L 575.1 516.4 L 556.2 527.6 L 544.4 569.3 L 545 605.2 L 544.5 574.1 L 539 573.3 L 539.7 553.5 L 534.9 539.8 L 514.3 524 L 509.5 495.3 L 514.3 465.8 L 495.9 463.1 L 493.1 472 L 469.2 474.1 L 478.7 485.7 L 482.2 509.6 L 460.3 531.6 L 440.4 560.3 L 419.9 564.4 L 386.3 541.1 L 371.3 549.3 L 367.2 561 L 346.6 568.5 L 345.3 576.7 L 305.6 576.7 L 300.1 568.5 L 271.3 567.1 L 257 574 L 246 570.6 L 225.5 547.3 L 218.6 536.3 L 189.9 541.8 L 178.9 560.3 L 168.7 595.9 L 155 603.4 L 142.7 607.8 L 169.9 623.3 Z" />
<path class="neighbor" d="M 281.8 742.8 L 268.6 747 L 243 746.1 L 213.1 741.9 L 198.2 745.3 L 192.3 755 L 179.3 756.2 L 163.6 747.7 L 119.2 767.6 L 101.1 763.6 L 95.6 766.7 L 83.7 790.8 L 53.9 783 L 24.8 779.1 L -0.6 764.4 L -33.5 750.8 L -54.8 763.7 L -70.3 783.9 L -73.9 811.7 L -99.6 809.5 L -126.5 802.8 L -150.3 823.9 L -171.2 861 L -175.4 849.5 L -177.2 831.3 L -195.4 818.5 L -210.1 797.9 L -213.5 783.6 L -232.4 762.7 L -229.2 750.9 L -233.1 734.1 L -230.1 703.2 L -220.5 695.9 L -200.4 655.5 L -167.5 652.5 L -160.1 642.3 L -153.5 643.1 L -143.6 652.1 L -93.4 636.8 L -76.4 621.3 L -55.7 607.3 L -59.6 593.3 L -48.4 589.6 L -9.9 592.1 L 27.7 573.6 L 56.5 530.1 L 76.7 514 L 102 507.2 L 106.5 524.2 L 129.5 549.2 L 129.6 565.4 L 123.1 582 L 125.7 594.4 L 139.5 605.9 L 169.9 623.3 L 191.7 639.4 L 192.1 652.4 L 218.9 673.2 L 235.5 690.4 L 245.6 714.3 L 275.4 730.1 L 281.8 742.8 Z" />
<path class="neighbor" d="M 1391.5 46 L 1392.6 30 L 1404.2 13.5 L 1404.3 -2.8 L 1422.4 -10.7 L 1415.3 -16.2 L 1418.6 -42.2 L 1438.9 -42.3 L 1456.8 -15.1 L 1479.1 -0.6 L 1508.3 4.6 L 1531.9 11.9 L 1549.9 34.7 L 1560.7 48 L 1574.9 53 L 1574.9 61.9 L 1560.3 85.7 L 1554 96.9 L 1537.2 109.6 L 1522.3 136.9 L 1504.2 134.8 L 1495.9 144.3 L 1489.5 164.6 L 1494.4 191.2 L 1490.7 196.1 L 1472.3 196 L 1447.4 210.9 L 1443.5 230.3 L 1434.4 238.7 L 1409.6 238.4 L 1394 248.4 L 1394.2 264.5 L 1374.9 275.6 L 1352.9 271.8 L 1326.2 285.3 L 1307.8 287.6 L 1294.8 259.7 L 1263.6 193.9 L 1383.2 154 L 1409.8 74.3 L 1391.5 46 Z M 1433.5 -73.8 L 1425.9 -87.4 L 1437.5 -101 L 1442.5 -97.5 L 1438.7 -81 L 1433.5 -73.8 Z" />
<path class="neighbor" d="M 642.8 376.4 L 638.6 360.5 L 655.8 301.9 L 659.7 275.4 L 672.2 263.2 L 701.6 256.6 L 721.8 233.8 L 744.9 280 L 755.9 316.6 L 777.8 336 L 832.2 373.7 L 854.3 396.4 L 876 419.4 L 888.4 433.1 L 908 445.1 L 896 454.8 L 878.9 451.4 L 865.3 438.5 L 848.9 415.1 L 831.2 402.3 L 820.9 388.5 L 786.2 372.5 L 758.9 372.1 L 749.3 363.7 L 725.9 373.1 L 701.7 355 L 689.2 384.8 L 642.8 376.4 Z" />
<path class="neighbor" d="M 1263.6 193.9 L 1294.8 259.7 L 1307.8 287.6 L 1279 298.3 L 1271.3 316 L 1270.3 329.6 L 1230.6 346.4 L 1166.9 365 L 1131.2 393.1 L 1113.7 395.3 L 1101.7 393 L 1078.4 409.5 L 1053 417.2 L 1019.5 419.3 L 1009.4 421.5 L 1000.7 432.1 L 990.3 435 L 984.1 445.1 L 964.4 444.2 L 951.6 449.6 L 924 447.6 L 913.7 424.3 L 914.8 402.5 L 908.3 390.8 L 900.5 361.3 L 889 344.9 L 897 342.9 L 892.9 324.7 L 897.8 317 L 896 299.6 L 913.5 286.9 L 909.4 270.1 L 920 250.5 L 936.3 260.9 L 947.2 257.3 L 993.2 256.4 L 1000.5 260.4 L 1039 264.3 L 1054.3 262.3 L 1064.3 275.6 L 1082.9 269 L 1111.4 227.1 L 1148.7 209.2 L 1263.6 193.9 Z" />
<path class="neighbor" d="M 584.1 -219 L 628.4 -212.7 L 645.7 -224.9 L 655.2 -239.3 L 685.6 -244.8 L 692.2 -258.2 L 705.4 -264.9 L 665.7 -304.8 L 745.5 -324.8 L 753.1 -330.8 L 801.1 -320 L 860.5 -292.1 L 972.9 -211.9 L 1047.1 -208.8 L 1082.6 -204.9 L 1092.5 -185.9 L 1120.7 -186.9 L 1136.3 -152.6 L 1156 -143.5 L 1162.8 -129.4 L 1190 -112.7 L 1192.4 -96.2 L 1188.4 -83 L 1193.4 -69.6 L 1204.9 -58.4 L 1210.2 -45.3 L 1216.2 -35.5 L 1228.2 -27.6 L 1239.3 -30.5 L 1246.9 -15.2 L 1248.4 -6 L 1263.7 34.4 L 1383.5 54.5 L 1391.5 46 L 1409.8 74.3 L 1383.2 154 L 1263.6 193.9 L 1148.7 209.2 L 1111.4 227.1 L 1082.9 269 L 1064.3 275.6 L 1054.3 262.3 L 1039 264.3 L 1000.5 260.4 L 993.2 256.4 L 947.2 257.3 L 936.3 260.9 L 920 250.5 L 909.4 270.1 L 913.5 286.9 L 896 299.6 L 890.8 282.6 L 878.8 270.6 L 875.7 254.7 L 855.1 240.4 L 833.9 207 L 822.6 174.5 L 795.1 147.1 L 777.3 140.5 L 750.9 102.5 L 746.3 74.8 L 748 51.2 L 725.1 7 L 706.4 -8.6 L 684.8 -16.8 L 671.7 -39.7 L 673.9 -48.7 L 662.8 -69.4 L 651.2 -78.3 L 635.6 -107.9 L 611.3 -140.1 L 591 -167.5 L 571.2 -167.3 L 577.4 -189.2 L 579.1 -203.1 L 584.1 -219 Z" />
<path class="neighbor" d="M 878.9 451.4 L 896 454.8 L 908 445.1 L 917.5 457.4 L 916.2 474 L 893.5 483.5 L 910.6 494.4 L 895.9 515.8 L 887 508.7 L 877.4 511.5 L 855.2 510.8 L 854.5 498.7 L 851.4 487.7 L 864.9 469 L 878.9 451.4 Z" />
<path class="neighbor" d="M 1141.9 496.5 L 1141.9 496.5 L 1141.7 497.1 L 1141.6 513.6 L 1141.5 553.8 L 1141.5 574.6 L 1123.5 599.1 L 1095.7 632.4 L 1062.2 632.6 L 931.8 585.3 L 916.6 571.1 L 901.9 551.9 L 887.2 529.9 L 895.9 515.8 L 910.6 494.4 L 923.6 501.8 L 931.4 518.3 L 949.4 535 L 969.1 535.1 L 1006.7 524.9 L 1050.1 520.2 L 1085.2 507.8 L 1105 505.2 L 1119.2 497.9 L 1141.9 496.5 L 1141.9 496.5 Z" />
<path class="neighbor" d="M 542.1 989.3 L 460.9 992.4 L 417.2 991.9 L 403.2 996.7 L 379.4 1009 L 369.7 1004.9 L 370 974.9 L 379.3 959.6 L 381.5 927.6 L 389.9 909.1 L 405.2 888.3 L 420.5 877.7 L 433.3 863.5 L 417.3 858.1 L 419.7 811.5 L 419.7 811.5 L 436.1 800.7 L 461.5 809.6 L 493.6 800.2 L 521.6 800.3 L 546.2 782 L 565.1 809.7 L 569.7 829.7 L 587.3 875.5 L 572.8 904.5 L 553.1 930.9 L 541.7 947.1 L 542.1 989.3 Z" />
<path class="neighbor" d="M 403.2 996.7 L 419 1019.2 L 416.7 1042.6 L 405.2 1047.7 L 405.2 1047.7 L 384 1045.1 L 371.8 1067.8 L 347.6 1064.6 L 351.3 1042.8 L 356.8 1039.8 L 358.2 1016 L 369.7 1004.9 L 379.4 1009 L 403.2 996.7 Z" />
<path class="neighbor" d="M 419.7 811.5 L 384.6 785 L 375.1 768 L 352.9 776.4 L 334.5 773.8 L 323.8 780.5 L 305.9 775.7 L 281.8 742.8 L 275.4 730.1 L 245.6 714.3 L 235.5 690.4 L 218.9 673.2 L 192.1 652.4 L 191.7 639.4 L 169.9 623.3 L 142.7 607.8 L 155 603.4 L 168.7 595.9 L 178.9 560.3 L 189.9 541.8 L 218.6 536.3 L 225.5 547.3 L 246 570.6 L 257 574 L 271.3 567.1 L 300.1 568.5 L 305.6 576.7 L 345.3 576.7 L 346.6 568.5 L 367.2 561 L 371.3 549.3 L 386.3 541.1 L 419.9 564.4 L 440.4 560.3 L 460.3 531.6 L 482.2 509.6 L 478.7 485.7 L 469.2 474.1 L 493.1 472 L 495.9 463.1 L 514.3 465.8 L 509.5 495.3 L 514.3 524 L 534.9 539.8 L 539.7 553.5 L 539 573.3 L 544.5 574.1 L 545 605.2 L 539 617.4 L 517.8 618.3 L 504.3 641 L 528.7 643.9 L 548.9 663.3 L 555.9 679.3 L 574.1 688.5 L 597.7 731.9 L 570.7 758.2 L 546.2 782 L 521.6 800.3 L 493.6 800.2 L 461.5 809.6 L 436.1 800.7 L 419.7 811.5 Z" />

<path class="country" d="M 1095.7 632.4 L 983.1 752 L 931.1 753.8 L 895.6 781.9 L 870 782.6 L 859.1 795.2 L 831.9 795.2 L 815.8 781.7 L 779.4 798.4 L 767.6 815 L 741 811.9 L 732.2 807.3 L 722.9 808.4 L 710.3 808 L 659.8 774.1 L 632 774.1 L 618.4 761 L 618.4 738.6 L 597.7 731.9 L 574.1 688.5 L 555.9 679.3 L 548.9 663.3 L 528.7 643.9 L 504.3 641 L 517.8 618.3 L 539 617.4 L 545 605.2 L 544.4 569.3 L 556.2 527.6 L 575.1 516.4 L 579.1 500.1 L 596.2 469.7 L 620.3 449.9 L 636.5 410.7 L 642.8 376.4 L 689.2 384.8 L 701.7 355 L 725.9 373.1 L 749.3 363.7 L 758.9 372.1 L 786.2 372.5 L 820.9 388.5 L 831.2 402.3 L 848.9 415.1 L 865.3 438.5 L 878.9 451.4 L 864.9 469 L 851.4 487.7 L 854.5 498.7 L 855.2 510.8 L 877.4 511.5 L 887 508.7 L 895.9 515.8 L 887.2 529.9 L 901.9 551.9 L 916.6 571.1 L 931.8 585.3 L 1062.2 632.6 L 1095.7 632.4 Z" />


<g class="city"><circle cx="487.43302676433177" cy="329.857940761196" r="5" /><text x="499.43302676433177" y="333.857940761196">Khartoum</text></g>
<g class="city"><circle cx="733.2672125449734" cy="591.1994145979543" r="5" /><text x="745.2672125449734" y="595.1994145979543">Addis Ababa</text></g>
<g class="city"><circle cx="658.1773021061126" cy="1002.5290521149967" r="5" /><text x="670.1773021061126" y="1006.5290521149967">Nairobi</text></g>
<g class="city"><circle cx="485.35135130449993" cy="328.7951144844969" r="5" /><text x="497.35135130449993" y="332.7951144844969">Omdurman</text></g>
<g class="city"><circle cx="952.8173301194292" cy="339.1615082120102" r="5" /><text x="964.8173301194292" y="343.1615082120102">Sanaa</text></g>
<g class="city"><circle cx="489.39245945999824" cy="938.7361114361418" r="5" /><text x="501.39245945999824" y="942.7361114361418">Kampala</text></g>
<g class="city"><circle cx="999.0703877920182" cy="868.9619670687514" r="5" /><text x="1011.0703877920182" y="872.9619670687514">Mogadishu</text></g>
<g class="city"><circle cx="984.9067335103233" cy="441.90587369565156" r="5" /><text x="996.9067335103233" y="445.90587369565156">Aden</text></g>
<text class="map-title" x="80" y="105">Ethiopia Political Study Map</text>
<text class="map-subtitle" x="80" y="145">Capital: Addis Ababa | Continent: Africa</text>
  <text class="footer" x="80" y="1036">Made with Natural Earth. Free vector and raster map data @ naturalearthdata.com.</text>
</svg>
