<?xml version="1.0" encoding="UTF-8"?>
<svg xmlns="http://www.w3.org/2000/svg" width="1600" height="1100" viewBox="0 0 1600 1100" role="img" aria-labelledby="title desc">
  <title id="title">Finland Physical Study Map</title>
  <desc id="desc">Made with Natural Earth. Free vector and raster map data @ naturalearthdata.com.</desc>
  <defs>
    <linearGradient id="terrain" x1="0" x2="1" y1="0" y2="1">
      <stop offset="0%" stop-color="#6c8c53" />
      <stop offset="42%" stop-color="#d5c487" />
      <stop offset="72%" stop-color="#b88b5f" />
      <stop offset="100%" stop-color="#f1f5ee" />
    </linearGradient>
    <filter id="softShadow" x="-10%" y="-10%" width="120%" height="120%">
      <feDropShadow dx="0" dy="10" stdDeviation="12" flood-color="#0f172a" flood-opacity="0.16" />
    </filter>
    <style>
      .neighbor { fill: #ffffff; stroke: #94a3b8; stroke-width: 1.2; opacity: 0.72; }
      .country { fill: url(#terrain); stroke: #1f2937; stroke-width: 4; filter: url(#softShadow); }
      .admin1 { fill: none; stroke: #64748b; stroke-width: 1.1; stroke-dasharray: 6 7; opacity: 0.75; }
      .river { fill: none; stroke: #1d9bd1; stroke-width: 3; stroke-linecap: round; opacity: 0.88; }
      .lake { fill: #8ed1ea; stroke: #0ea5e9; stroke-width: 1.5; opacity: 0.8; }
      .city circle { fill: #ef4444; stroke: #ffffff; stroke-width: 2; }
      .city text, .terrain-label { fill: #172033; font: 700 24px system-ui, sans-serif; paint-order: stroke; stroke: #ffffff; stroke-width: 5; stroke-linejoin: round; }
      .map-title { fill: #0f172a; font: 800 46px system-ui, sans-serif; }
      .map-subtitle { fill: #475569; font: 600 24px system-ui, sans-serif; }
      .footer { fill: #64748b; font: 500 18px system-ui, sans-serif; }
    </style>
  </defs>
  <rect width="100%" height="100%" fill="#d8edf0" />
  <rect x="40" y="40" width="1520" height="1020" rx="32" fill="#ffffff" opacity="0.54" />
  <path class="neighbor" d="M 7605.4 313.3 L 7662.2 294.7 L 7662.2 325.2 L 7613.3 327.5 L 7605.4 313.3 Z M 1826.3 1414.5 L 1806 1440.9 L 1762.8 1448.3 L 1718.5 1494.3 L 1759 1536.6 L 1754.6 1566.7 L 1803.3 1619.2 L 1803.3 1619.2 L 1776.7 1637.1 L 1769 1648.5 L 1749.3 1645.4 L 1718.6 1618.4 L 1706.1 1616.9 L 1678.1 1606.5 L 1664.4 1588.2 L 1622.9 1578.9 L 1595.8 1585.9 L 1588 1577.6 L 1527.3 1556.2 L 1461.7 1549 L 1424 1541.4 L 1418.6 1546.7 L 1361.7 1509 L 1310.8 1492.2 L 1272.3 1466 L 1304.8 1458.9 L 1341.8 1421.6 L 1316.8 1403.9 L 1382.6 1385.7 L 1381.4 1376 L 1341.4 1383.2 L 1342.8 1363.4 L 1365.7 1350.9 L 1408.9 1347.7 L 1415.9 1332.8 L 1406.1 1308.2 L 1424.2 1284.9 L 1423.6 1271.8 L 1357.9 1257.3 L 1331.9 1257.7 L 1304.4 1236.9 L 1270.1 1243.9 L 1213.5 1228.2 L 1214.5 1219.5 L 1198.6 1200.1 L 1163.1 1198 L 1159.4 1184.1 L 1170.5 1175.1 L 1142 1149.9 L 1095.8 1154.2 L 1082.3 1151.9 L 1071 1162.1 L 1054.4 1160.3 L 1054.4 1160.3 L 1043.4 1131.7 L 1032.9 1116.9 L 1041.5 1112.8 L 1077.5 1114.3 L 1094.8 1104.6 L 1082 1092.7 L 1051.9 1084.8 L 1054.6 1076.8 L 1036.5 1068.6 L 1008.5 1039.5 L 1018.1 1027.4 L 1013.7 1006.5 L 970.1 995.9 L 946.7 1001.2 L 940.4 990.1 L 893.4 978.9 L 879.1 952.6 L 875.3 931 L 853.8 920.7 L 872.9 906.6 L 859.7 865 L 891.4 839.3 L 884.7 831.5 L 884.7 831.5 L 935.4 806.9 L 888.7 785.7 L 888.7 785.7 L 984.1 728.8 L 1025.6 703 L 1042.3 680.3 L 976.3 649.8 L 994.6 620.7 L 954.4 587.5 L 984.4 549.3 L 932.6 498.6 L 973.7 464.9 L 905.4 435.2 L 912 404 L 948 399.9 L 1023.8 382 L 1023.8 382 L 1069.8 366.5 L 1143.1 393.5 L 1265.1 404.1 L 1433.6 454.5 L 1467.8 475.7 L 1470.8 505.4 L 1421.3 528.8 L 1348.5 540.7 L 1149.4 506.8 L 1116.7 512.5 L 1189.4 545.1 L 1192.2 565.8 L 1195.1 611.3 L 1252.5 624.9 L 1287.4 636.5 L 1293.1 614.9 L 1266.3 595.7 L 1294.7 578.9 L 1402.4 606.6 L 1440 595.7 L 1410 563.1 L 1513.9 519.4 L 1555 522 L 1596.7 537.6 L 1622.6 506.9 L 1585.4 480.4 L 1607.3 453.7 L 1574.5 426 L 1699.2 440.3 L 1724.7 465.3 L 1668.2 470.8 L 1668.5 495.6 L 1703.6 510.9 L 1772.5 501.2 L 1783.4 472.8 L 1876.5 451.5 L 2032.1 413.3 L 2065.8 415.5 L 2021.8 442.5 L 2077.1 447.2 L 2109 431.9 L 2192.6 430.7 L 2258.8 412.2 L 2309.6 439.1 L 2360.3 409.5 L 2313.6 383.7 L 2336.7 369 L 2468.4 382.5 L 2530.1 396.4 L 2691.7 447.4 L 2721.5 424 L 2676.2 400.5 L 2674.9 391 L 2621.2 386.6 L 2635.9 365.5 L 2612 330.7 L 2610.7 316.4 L 2693 276.1 L 2722.2 235.6 L 2755.4 226.8 L 2873.4 238.5 L 2882.7 263.3 L 2840.4 299.5 L 2868.2 313.7 L 2882.5 344.9 L 2872.4 406 L 2921.6 433.3 L 2902.4 463.1 L 2815.1 526.4 L 2866.1 533 L 2883.8 516.9 L 2932.9 505.5 L 2944.7 483.4 L 2983.3 462.2 L 2957.3 436.8 L 2978.1 407.4 L 2929.4 403.7 L 2918.6 378.9 L 2954.2 334.2 L 2896.3 297.8 L 2976.1 267.8 L 2965.8 236 L 2988 235 L 3011.4 259.8 L 2993.8 302.8 L 3041.6 310.9 L 3021.2 278.8 L 3095.8 261.2 L 3188.4 258.9 L 3270.8 284.3 L 3231.1 247.2 L 3226.7 199.7 L 3304.2 190.7 L 3411.4 192.6 L 3508 186.8 L 3471.8 163.5 L 3523.4 134.2 L 3574.6 133 L 3661.3 110.9 L 3779 104.9 L 3793.9 92.7 L 3911 88.6 L 3947.4 98.6 L 4047.5 74.9 L 4129.4 75.6 L 4141.7 56.4 L 4184.3 37.4 L 4289.5 19.1 L 4366 33.6 L 4305.3 44.6 L 4406.3 51.4 L 4418.3 73.4 L 4459.1 62.6 L 4589.4 63.2 L 4689.9 84.9 L 4725.7 101.6 L 4714.6 124.8 L 4665.3 138 L 4548.1 162.7 L 4514.6 176 L 4569.9 182.2 L 4635.9 193.5 L 4676 185 L 4698.7 213.6 L 4718.3 202 L 4789.6 195 L 4932.6 202.4 L 4943.5 223.2 L 5129.9 229.9 L 5132.4 195.8 L 5227.1 203.6 L 5298.2 203.4 L 5370.2 226.8 L 5390.8 255.4 L 5364.4 274 L 5420.4 309.1 L 5490.5 327.2 L 5533.5 280.5 L 5605 300.5 L 5681 288.5 L 5767.3 302.2 L 5800.1 289.7 L 5873.1 296 L 5840.9 254.6 L 5899.7 235.3 L 6302.4 264.2 L 6340.4 290.7 L 6457.1 324.8 L 6637.1 316.3 L 6725.8 323.7 L 6763 342.1 L 6757.5 374.7 L 6812.5 387.4 L 6872.1 378.3 L 6951.2 377.1 L 7035.4 385.9 L 7119.9 380.9 L 7197.5 420.6 L 7252.8 406.3 L 7216.7 377.8 L 7236.6 358 L 7378.8 370.5 L 7471.6 367.8 L 7599.8 389.1 L 7662.2 408.5 L 7662.2 586.1 L 7661.9 586.4 L 7604.6 606 L 7546.8 602.7 L 7587 626.4 L 7613.5 663.2 L 7634.1 675.2 L 7639.3 693.6 L 7627.8 705.4 L 7544.7 695.7 L 7420.1 729.3 L 7380.4 734.5 L 7312.2 765.8 L 7247.5 793.2 L 7231.1 813.4 L 7167.3 782.6 L 7051.2 817.6 L 7030.9 801 L 6987.9 820.1 L 6928.3 814 L 6914 843.3 L 6860.5 886.5 L 6862.1 904.5 L 6912.8 914.5 L 6906.9 979.4 L 6865.5 981 L 6846.4 1018.3 L 6864.9 1037.5 L 6787 1060.3 L 6771.5 1111.2 L 6705 1122.1 L 6691.7 1167.4 L 6627.4 1208.9 L 6610.9 1178.2 L 6591.8 1113.1 L 6566.9 1014.1 L 6588.4 952.2 L 6626 925.6 L 6628.3 904.8 L 6697.6 894.8 L 6777.2 838.7 L 6854 792.9 L 6934.1 757.3 L 6970 694.4 L 6915.8 698.2 L 6889 734.9 L 6775.9 783.9 L 6739.4 729.1 L 6624.3 744.2 L 6512.7 818.9 L 6549.6 846.3 L 6450.1 857.9 L 6381.1 862.5 L 6384.4 830.3 L 6315.1 823.5 L 6259.8 845.4 L 6123.5 837.7 L 5976.9 851 L 5832.4 938 L 5661.6 1043.1 L 5731.8 1048.7 L 5753.7 1076.7 L 5797 1086.6 L 5825.6 1064.3 L 5874.5 1067.2 L 5938.8 1116.2 L 5940.4 1154.2 L 5905.5 1198.7 L 5901.7 1252 L 5881.6 1323.2 L 5814.4 1387.7 L 5799.5 1418.6 L 5739 1470.5 L 5678.9 1522 L 5650.1 1548.3 L 5590.7 1574.5 L 5562.6 1575 L 5534.6 1553.4 L 5474.8 1586 L 5467.8 1600.8 L 5467.8 1600.8 L 5467.8 1600.8 L 5467.8 1600.8 L 5461.6 1593 L 5461.6 1593 L 5461.3 1570.4 L 5484.1 1569.2 L 5490.5 1516.5 L 5478.7 1478.3 L 5517 1462.6 L 5571.1 1470.5 L 5601.1 1427.1 L 5616.4 1378.3 L 5633.7 1361.9 L 5657.1 1321.8 L 5583.4 1335 L 5544.8 1352.6 L 5477 1352.5 L 5459 1310.6 L 5406.2 1278.9 L 5328.6 1264.7 L 5312.1 1221 L 5296.6 1193.6 L 5279.9 1174.4 L 5252.3 1129.5 L 5213.2 1113.1 L 5146.4 1099.8 L 5087.3 1101 L 5031.9 1109 L 4995.1 1131.2 L 5019.6 1141.8 L 5020.1 1166.4 L 4995.3 1180.7 L 4955.1 1228 L 4955.5 1247.6 L 4892.7 1275.8 L 4839.1 1259 L 4785.9 1262.7 L 4762.6 1247.7 L 4735.9 1242.9 L 4670.6 1274.3 L 4611.9 1281.7 L 4570.9 1292.8 L 4514.7 1285.5 L 4473.4 1286 L 4446.3 1263.2 L 4402.7 1241.8 L 4358 1235.9 L 4301.6 1241.7 L 4259.5 1250 L 4196.1 1231.2 L 4187.6 1197.8 L 4135.2 1186.4 L 4094.7 1181.1 L 4044.8 1162.7 L 3998.6 1208.9 L 4016.7 1235.1 L 3973.4 1266.2 L 3908.9 1255 L 3864.4 1253.4 L 3834.6 1232.6 L 3788.1 1231.9 L 3749.3 1218.2 L 3681.5 1239.2 L 3596.5 1277.6 L 3549.5 1285.3 L 3532 1289 L 3508.4 1261.7 L 3450.9 1267.7 L 3431.9 1248.8 L 3400.8 1240.1 L 3379.3 1214.3 L 3354.7 1206.3 L 3290.6 1217.8 L 3229.2 1192.1 L 3205.5 1215.4 L 3105.8 1102.2 L 3049 1067.8 L 3065.3 1053.8 L 2953.5 1095.9 L 2910.8 1098.4 L 2914.5 1074.1 L 2857.2 1058.9 L 2810.7 1069.7 L 2796.6 1023.5 L 2716.5 1013.9 L 2676.4 1032.4 L 2564.9 1048.8 L 2543.1 1059.9 L 2376.3 1075.4 L 2355.8 1090.6 L 2388 1121.1 L 2345.2 1132.7 L 2353.6 1144.9 L 2310.8 1166.6 L 2383 1197.2 L 2371.8 1218.4 L 2309.2 1216.4 L 2296.3 1229.7 L 2239.3 1206.6 L 2168.6 1207.5 L 2121.3 1226.3 L 2068.5 1208.2 L 1970.2 1177.4 L 1900.6 1178.5 L 1808.5 1227 L 1803 1259.6 L 1757.1 1233.7 L 1721.6 1282.7 L 1734.6 1291.8 L 1708.9 1325.6 L 1746.7 1355.8 L 1779.8 1354.6 L 1808.2 1384.4 L 1803.7 1407.3 L 1826.3 1414.5 Z M 3818.1 -129.2 L 3914.6 -139.3 L 4001.2 -116.8 L 4103.9 -73.7 L 4092.9 -33.6 L 3995.6 -28.1 L 3871.4 -40.9 L 3797.4 -57.9 L 3763.2 -89.9 L 3702.4 -98.7 L 3818.1 -129.2 Z M 4222.1 -51.5 L 4335.1 -26.1 L 4321.8 -8 L 4070.5 9.2 L 4151.9 -49.4 L 4188.6 -54.4 L 4222.1 -51.5 Z M 5826.8 88.7 L 5944.5 90.7 L 6105.6 114.3 L 6070.6 147.4 L 5906.2 146.2 L 5832.3 156.7 L 5744 127.7 L 5767.9 97.1 L 5826.8 88.7 Z M 6245.4 124 L 6357.3 135.7 L 6305.8 153.3 L 6234.5 149.3 L 6151.7 131.7 L 6162.3 117.3 L 6245.4 124 Z M 5872.8 212.1 L 5915.1 194.5 L 5970.8 190.3 L 6034.1 207.4 L 6039.5 219.1 L 5971.9 219.4 L 5880.6 214.4 L 5872.8 212.1 Z M 1636.7 -109.8 L 1723.7 -117.9 L 1791.4 -118.5 L 1800.5 -106.5 L 1826.1 -117.1 L 1868.2 -124.5 L 1934.3 -114.7 L 1917 -107.9 L 1857.2 -102 L 1817.1 -98.6 L 1810.9 -91.3 L 1758.8 -84 L 1710.5 -94.5 L 1735.9 -108.5 L 1636.7 -109.8 Z M 650.7 1061 L 568.7 1061.7 L 513.8 1056.7 L 523.9 1037 L 585.4 1022.6 L 632.1 1030.4 L 651.8 1037.5 L 647.1 1049.7 L 650.7 1061 Z M 2022.8 195.1 L 2129.5 156 L 2117.5 135.8 L 2217.2 112.2 L 2364.4 83.6 L 2512.8 75.2 L 2589.1 58.7 L 2675.9 52.9 L 2706.9 70.5 L 2676.9 84.4 L 2519 106.5 L 2382.8 127.8 L 2244.3 170.2 L 2177.9 213.7 L 2108 256.6 L 2117.1 293.6 L 2202.4 330.2 L 2176 334.1 L 2030.3 328.3 L 2018.5 308.5 L 1937.8 296.6 L 1931.3 272.5 L 1976.9 262.9 L 1975.4 238.6 L 2063.8 200.6 L 2022.8 195.1 Z M 6008.8 1088.8 L 6024.2 1131.8 L 6023.1 1175.7 L 6041.5 1220.7 L 6086.4 1299.6 L 6020.4 1284.9 L 5992.9 1349.3 L 6036.4 1395 L 6035.1 1426.2 L 6001.4 1399.3 L 5972.1 1433.8 L 5963.9 1396.4 L 5968.9 1352.9 L 5963.8 1304.8 L 5974.1 1271.1 L 5976.1 1211.5 L 5949.9 1167.7 L 5953.9 1106.8 L 5995.1 1086.3 L 5977.4 1065.6 L 5997.2 1059.3 L 6008.8 1088.8 Z M -8161.6 486.9 L -8165.4 514.6 L -8135.4 525.7 L -8145.7 493.3 L -8024.7 499.9 L -7937.4 541.7 L -7981.6 561.1 L -8054.7 565.7 L -8055.8 609.3 L -8073.6 618.6 L -8115.4 617.2 L -8149.4 601.7 L -8208.6 588.7 L -8218.6 569.3 L -8263.9 562 L -8314.6 567.8 L -8338.8 552.2 L -8329.1 535.7 L -8382.5 546.2 L -8362.4 567.2 L -8387.7 586.1 L -8387.7 408.5 L -8278.5 442.6 L -8161.6 486.9 Z M -8329.5 322.5 L -8387.7 325.2 L -8387.7 294.7 L -8382 292.9 L -8344.2 293 L -8279.7 305.7 L -8283.5 311.8 L -8329.5 322.5 Z M 1127.9 1433.6 L 1139.7 1422.5 L 1171.4 1432.1 L 1185.7 1433.8 L 1191.5 1442.6 L 1198.2 1444 L 1198.6 1447.9 L 1220.4 1458.6 L 1265.9 1455.9 L 1257.1 1471.8 L 1208.3 1479.6 L 1147.8 1505.4 L 1123 1496.3 L 1132.9 1475.3 L 1084.1 1462.3 L 1092 1453.7 L 1134.7 1438.9 L 1127.9 1433.6 Z" />
<path class="neighbor" d="M 312.3 -69 L 329.3 -84.2 L 394.7 -85.8 L 451 -70.2 L 597.7 -37 L 485.5 -19.4 L 460.8 13.4 L 421.6 21.8 L 400.4 58.7 L 346.7 60.5 L 250.8 33.3 L 291.3 17.4 L 224.4 4.5 L 137.6 -33.1 L 102.9 -68 L 224.4 -84 L 248.8 -68.4 L 312.3 -69 Z M 1023.8 382 L 948 399.9 L 912 404 L 930.8 372.7 L 873.6 355 L 804.4 370.1 L 782.5 402.8 L 740 422.5 L 692.2 411.8 L 633.9 414 L 584.4 390.4 L 557.7 402.2 L 530 404 L 523.5 433.3 L 439.5 426.2 L 427.7 451 L 384.8 450.9 L 355.4 482.6 L 310.8 532 L 241.6 594.7 L 257.8 610 L 242.3 627.6 L 198.1 626.9 L 169.1 668.7 L 171.9 727.9 L 200.4 750.5 L 185.6 802.9 L 148.5 833.5 L 128.9 859.1 L 99 831.8 L 10.9 883.3 L -48.5 893.8 L -110.2 871.1 L -126.1 823.2 L -140.2 720.3 L -99.1 691.6 L 18.6 654.2 L 106.6 608.1 L 188.2 546 L 295.3 459.9 L 370 426.4 L 492.5 370.5 L 590.4 350.9 L 663.7 353.3 L 731.6 316.4 L 812.9 318.3 L 892.9 309.5 L 1032.4 342.1 L 975 354 L 1023.8 382 Z M 859.1 -86 L 793 -62 L 663.7 -56.8 L 532.2 -64.2 L 524.3 -76.5 L 460.3 -77.3 L 411.6 -97.7 L 549.2 -110.2 L 614 -99.5 L 659 -112.8 L 771.8 -101.7 L 859.1 -86 Z M 739.5 12.2 L 639.9 30.4 L 561.3 20.1 L 592 8.6 L 565.1 -5.7 L 657.5 -14.6 L 675.2 2.1 L 739.5 12.2 Z" />
<path class="neighbor" d="M 128.9 859.1 L 148.5 833.5 L 185.6 802.9 L 200.4 750.5 L 171.9 727.9 L 169.1 668.7 L 198.1 626.9 L 242.3 627.6 L 257.8 610 L 241.6 594.7 L 310.8 532 L 355.4 482.6 L 384.8 450.9 L 427.7 451 L 439.5 426.2 L 523.5 433.3 L 530 404 L 557.7 402.2 L 617.1 424 L 686.7 454.3 L 687.9 523 L 702.9 540.3 L 626.2 553 L 583 584.1 L 590 611.4 L 519 647.2 L 432.9 685.6 L 400.5 748.4 L 432.2 779.8 L 474.9 804.5 L 433.9 854.8 L 387.5 865.2 L 370.5 940.1 L 345.2 981.8 L 291.1 977.5 L 265.9 1012.9 L 214.3 1014.9 L 200.1 972.8 L 162.8 922.2 L 128.9 859.1 Z" />
<path class="neighbor" d="M 893.4 978.9 L 940.4 990.1 L 946.7 1001.2 L 970.1 995.9 L 1013.7 1006.5 L 1018.1 1027.4 L 1008.5 1039.5 L 1036.5 1068.6 L 1054.6 1076.8 L 1051.9 1084.8 L 1082 1092.7 L 1094.8 1104.6 L 1077.5 1114.3 L 1041.5 1112.8 L 1032.9 1116.9 L 1043.4 1131.7 L 1054.4 1160.3 L 1054.4 1160.3 L 1016.1 1162.9 L 1002.3 1172.7 L 999.5 1195.2 L 981.7 1190.8 L 941.5 1193 L 929.8 1182.6 L 913.1 1190.3 L 896.3 1183.9 L 861.2 1183 L 811.5 1172.3 L 766.4 1168.8 L 731.9 1169.8 L 707.5 1181.9 L 686.1 1183.6 L 685.3 1163.8 L 671.5 1143.1 L 698.3 1134 L 698.5 1116.2 L 686.2 1099.3 L 684.2 1079.6 L 727.3 1079.9 L 775.7 1063.1 L 786.1 1037.9 L 822.6 1023.6 L 818.4 1003.6 L 845.5 996.1 L 893.4 978.9 Z" />
<path class="neighbor" d="M 684.2 1079.6 L 686.2 1099.3 L 698.5 1116.2 L 698.3 1134 L 671.5 1143.1 L 685.3 1163.8 L 686.1 1183.6 L 708.6 1222.5 L 703.8 1235 L 681.7 1240.2 L 641.2 1277.3 L 652.7 1297.3 L 642.9 1294.7 L 600.6 1277.6 L 568.5 1283.9 L 547.4 1279.3 L 521.1 1288.9 L 498.6 1273.1 L 480.3 1279.1 L 477.8 1276.4 L 457.2 1254.5 L 424.1 1251.8 L 419.9 1237.8 L 389.3 1232.9 L 382.6 1244.4 L 358.4 1235.1 L 361.2 1222.9 L 327.9 1219 L 306.7 1204.6 L 288.5 1176.2 L 291.9 1160.8 L 280.9 1137 L 264.7 1121.1 L 277.2 1109.2 L 266.7 1086.5 L 297.2 1073.4 L 366.8 1052.8 L 422.9 1037.7 L 467.4 1045.2 L 470.8 1056.1 L 513.8 1056.7 L 568.7 1061.7 L 650.7 1061 L 673.5 1065.8 L 684.2 1079.6 Z" />
<path class="neighbor" d="M 818.4 1003.6 L 822.6 1023.6 L 786.1 1037.9 L 775.7 1063.1 L 727.3 1079.9 L 684.2 1079.6 L 673.5 1065.8 L 650.7 1061 L 647.1 1049.7 L 651.8 1037.5 L 632.1 1030.4 L 585.4 1022.6 L 576 985.1 L 627 971.4 L 701.8 974.3 L 745.6 969.9 L 751.9 979.1 L 775.6 982 L 818.4 1003.6 Z" />
<path class="neighbor" d="M 853.8 920.7 L 875.3 931 L 879.1 952.6 L 893.4 978.9 L 845.5 996.1 L 818.4 1003.6 L 775.6 982 L 751.9 979.1 L 745.6 969.9 L 701.8 974.3 L 627 971.4 L 576 985.1 L 577.5 951.5 L 599.4 923.5 L 641.4 908.3 L 676.8 941.6 L 712.6 940.8 L 721.2 906.5 L 759.2 898.6 L 778.7 904.1 L 817.1 920.7 L 853.8 920.7 Z" />
<path class="neighbor" d="M 884.7 831.5 L 884.7 831.5 L 891.4 839.3 L 859.7 865 L 872.9 906.6 L 853.8 920.7 L 817.1 920.7 L 778.7 904.1 L 759.2 898.6 L 721.2 906.5 L 726.4 880.2 L 710 885.8 L 681.7 870 L 677.8 844.4 L 734.2 832 L 790.3 825.5 L 838.7 832.9 L 884.7 831.5 L 884.7 831.5 Z" />
<path class="lake" d="M 438.8 838.1 L 434.2 840.7 L 420.6 840.8 L 416.3 839.7 L 411.7 839.6 L 408.7 840.6 L 403 836.9 L 398.1 836.1 L 391.3 832.9 L 383.7 833.5 L 377.8 832.5 L 357 832.8 L 352.5 831.4 L 361.8 830.7 L 371.6 829.6 L 376.1 825.5 L 379.4 827.8 L 384.1 828.5 L 388.1 826.5 L 394.1 828.2 L 397.9 827.4 L 411.7 830.6 L 412.6 826.7 L 419 828.7 L 425.8 828.6 L 425.1 826.2 L 429 825.1 L 430.2 826.1 L 431.2 828.1 L 429.6 834.3 L 432.1 835.8 L 438.1 836.7 L 438.8 838.1 Z" />
<path class="lake" d="M 967.4 753.5 L 967.4 753.5 L 967.4 753.5 L 967.4 753.5 L 968.5 752.9 L 968.7 752.4 L 968.3 751.5 L 969.9 750.4 L 972.5 750.7 L 976 752.2 L 978.3 752.8 L 978.9 752 L 978.7 751.5 L 978.7 750.2 L 980.5 749.6 L 982.5 749.6 L 983.3 749 L 983.5 748.1 L 982.9 747.5 L 982.7 747 L 983.7 746.2 L 984.1 744.9 L 984.4 744.3 L 985.3 743.7 L 986 743.1 L 985.9 742.5 L 985.2 741.6 L 985.4 740.6 L 987.4 740.5 L 995.5 741.8 L 996.2 741.7 L 996.4 740.6 L 997.6 740.2 L 999.3 739.7 L 1001.7 739.4 L 1002.2 738.6 L 1001.2 737.7 L 1001.2 736.6 L 1008.5 730.9 L 1012.7 729 L 1014.3 729.5 L 1014.7 729.9 L 1015.1 730.5 L 1020.5 731.7 L 1021.8 732.8 L 1022.5 734.8 L 1023.7 735.9 L 1026.5 736 L 1027 735.5 L 1029.9 734.9 L 1030.8 735 L 1032.1 736.1 L 1033 736.6 L 1033.9 736.1 L 1034.2 735.6 L 1035.6 735.6 L 1041 739 L 1043.1 741.4 L 1045 744.1 L 1046.2 744.7 L 1046.9 744.5 L 1046.8 743.8 L 1047 743 L 1047.7 742.9 L 1050.4 745 L 1053.3 746.5 L 1058.1 748.1 L 1059.4 749.1 L 1079.9 755.5 L 1087.4 758.3 L 1089 760 L 1089.8 761.6 L 1089.8 762.9 L 1090.3 763.7 L 1092.1 764.2 L 1092.5 764.9 L 1098 768.6 L 1099.9 771.3 L 1100.1 774.4 L 1101.5 776.4 L 1104.2 777.2 L 1105.6 778.3 L 1106 779.5 L 1104.3 782 L 1101.4 786 L 1100.3 786.7 L 1098.8 786.4 L 1096.1 784.9 L 1092.5 784.2 L 1090.6 784.4 L 1090.5 785.4 L 1091.4 786.9 L 1093.5 789.1 L 1094.1 790.7 L 1093.1 791.6 L 1090.4 792.3 L 1090.2 793.4 L 1091.3 795.4 L 1091.2 797.2 L 1089.9 798.8 L 1086.2 800.3 L 1080 801.5 L 1075.5 801.3 L 1072.6 799.4 L 1066.4 798.1 L 1056.9 797.1 L 1050.5 797.6 L 1046 800.6 L 1045.6 801.2 L 1045.9 801.7 L 1046.3 801.8 L 1046.3 802.2 L 1043.8 804.9 L 1043.4 806.6 L 1044.5 808.2 L 1044.6 809.6 L 1043.7 810.8 L 1042 811.7 L 1039.6 812.3 L 1037.2 812.1 L 1034.9 811.1 L 1031.5 810.9 L 1027.2 811.5 L 1024 811.4 L 1022.2 810.7 L 1021.2 810.3 L 1022.1 809.8 L 1025.8 807.9 L 1025.7 806.7 L 1024 805.6 L 1023.6 804.4 L 1024.4 802.1 L 1024.2 801.6 L 1020.2 799.5 L 1017.4 796.4 L 1012.6 788.4 L 1011.8 787.8 L 1011.1 787.7 L 1010.5 788.2 L 1009.3 788.2 L 1009.2 786.2 L 1008.5 784.8 L 1007 783.1 L 1004.3 781.7 L 998.5 780.1 L 998.1 779 L 997.2 776.8 L 997.2 775.5 L 998.2 775.2 L 998.5 774 L 998.3 772 L 997.1 770.6 L 995.1 769.8 L 994.4 769.2 L 994.2 767.9 L 992.9 766.8 L 987.8 763.3 L 980.3 759.7 L 968.4 755.2 L 966.9 754 L 967.4 753.5 Z" />
<path class="lake" d="M 1260.9 746.1 L 1260.9 746.1 L 1260.9 746.1 L 1261.3 746.9 L 1261.2 748 L 1260.4 749.3 L 1259.9 750.1 L 1259.3 750.9 L 1259.2 751 L 1258.9 751.5 L 1258.8 752.1 L 1259.1 752.8 L 1259.5 753.5 L 1259.8 754.4 L 1259.5 755.4 L 1258.4 756.4 L 1256.7 757.5 L 1254.7 758.5 L 1252.2 759.3 L 1249.5 759.9 L 1246.6 760.8 L 1243.9 762.2 L 1241.2 763.8 L 1238.4 765 L 1236.9 765.9 L 1237.1 766.6 L 1238 767.3 L 1238.2 767.9 L 1237.7 768.5 L 1236.9 769 L 1235.8 769.3 L 1234.6 769.5 L 1233.3 769.3 L 1232 768.6 L 1229.7 767.8 L 1225.9 767.2 L 1222.2 766.3 L 1219.9 764.9 L 1218.7 763.5 L 1217.7 762.5 L 1216.6 762.1 L 1215.5 761.8 L 1213.8 761.9 L 1211.7 762.3 L 1209 762.9 L 1205.9 763.4 L 1203.6 763.3 L 1202.9 762.6 L 1201.8 761.6 L 1198.6 760.7 L 1195.1 760.4 L 1193 761.5 L 1191.8 762.4 L 1190.8 762.4 L 1190 761.8 L 1189.4 761.1 L 1188.8 760.3 L 1188.5 759.3 L 1188.6 758.1 L 1188.9 756.9 L 1189.6 755.8 L 1190.4 754.9 L 1192.6 754.4 L 1196.5 754.1 L 1201 754.3 L 1204.6 754.9 L 1206.9 755.7 L 1207.9 756.2 L 1206.9 756.5 L 1204 756.6 L 1201.1 756.8 L 1200 757.3 L 1200.4 758 L 1201.2 758.7 L 1202.5 759.5 L 1204 760.1 L 1206.2 760.5 L 1209.2 760.6 L 1213 760.3 L 1217.3 760.8 L 1221.2 762.6 L 1223.7 762 L 1225 760.2 L 1225.8 758.8 L 1225.7 756.9 L 1224.9 754.8 L 1223.4 752.6 L 1221.6 750.5 L 1219.7 748.9 L 1218 747.7 L 1215.4 746.4 L 1211.2 744.4 L 1204.5 741.9 L 1195.9 739.3 L 1187.5 736.8 L 1181.1 734.4 L 1176.8 732.2 L 1173 730 L 1170.4 728.1 L 1168.4 726.5 L 1167.4 725.5 L 1167.1 724.8 L 1168 725 L 1170.2 726 L 1172.9 727.1 L 1175.1 727.6 L 1176.7 727.4 L 1178.1 726.8 L 1179 725.8 L 1179.6 724.6 L 1179.5 723.2 L 1179.2 721.8 L 1178.3 720.4 L 1177 719 L 1174.3 717.3 L 1170 714.9 L 1166.2 712.7 L 1164.4 711.5 L 1164.4 710.7 L 1164.7 709.6 L 1164.9 708.4 L 1164.5 707.3 L 1163 705.9 L 1160.4 703.9 L 1157.4 702.1 L 1154.9 701.3 L 1153.2 701.1 L 1152.1 700.8 L 1151.4 700 L 1150.7 698.8 L 1150.4 697.5 L 1150.6 696.7 L 1151.2 696.2 L 1152.1 696 L 1153.2 696 L 1154.3 696.2 L 1155.5 696.9 L 1156.8 698.3 L 1159.2 700.5 L 1162.8 703.3 L 1166.1 705.7 L 1167.7 707.2 L 1167.8 708 L 1167.4 708.9 L 1168.3 710.1 L 1171.7 711.9 L 1176 713.7 L 1179.4 714.7 L 1181.4 714.7 L 1182.2 714.1 L 1181.8 712.9 L 1181.3 710.9 L 1181.9 709.5 L 1182.4 708.1 L 1180.5 705.4 L 1180.2 703.9 L 1181.3 703.5 L 1183.4 703.9 L 1184.1 702.7 L 1182.5 700.9 L 1179.5 698.6 L 1177.4 696.8 L 1176.6 695.6 L 1176.3 694.8 L 1176.8 694.6 L 1177.9 694.9 L 1179.6 695.8 L 1181.6 697.2 L 1184.1 699.2 L 1186.9 701.9 L 1189.2 704.2 L 1190.5 705.2 L 1191 705.9 L 1191.4 707.4 L 1191.9 709.2 L 1192.8 710.6 L 1194.4 711.9 L 1196.6 713.7 L 1198.9 715.5 L 1201 716.6 L 1202.8 716.6 L 1204.3 715.8 L 1205 715.4 L 1205.1 714.7 L 1204 713.3 L 1201.8 711.3 L 1200 709.6 L 1199.7 708.8 L 1201.9 709.3 L 1206 710.5 L 1210.3 711.8 L 1212.9 712.3 L 1214.9 711.9 L 1217.9 710.9 L 1220.7 709.6 L 1222.3 708.5 L 1222.8 707.4 L 1222.9 706.2 L 1222.5 704.8 L 1221.7 703.2 L 1219.9 701 L 1217 698.1 L 1213.3 695.7 L 1209.7 694.7 L 1206.6 694.5 L 1204.2 694.1 L 1201.8 693.1 L 1198.7 691.6 L 1196.2 690.5 L 1195.1 690.3 L 1191.8 691.8 L 1190.4 692.6 L 1187.7 691.2 L 1186 691.3 L 1184.4 690.3 L 1182.4 688.7 L 1180.8 687.2 L 1179.1 685.3 L 1176.9 682.5 L 1174.4 680 L 1174.9 678.7 L 1176.8 678.2 L 1180 680.1 L 1184.4 681.3 L 1188.2 681.9 L 1191.2 682.2 L 1193.7 682.6 L 1195.8 683.4 L 1197.9 684.5 L 1201.3 685.9 L 1206.6 687.5 L 1212.2 689.3 L 1216.2 691 L 1218.3 692 L 1219.4 692 L 1219.7 691.4 L 1220.1 691.1 L 1220.8 691.5 L 1221.9 692.3 L 1223.7 693.3 L 1226.2 694.2 L 1228.8 695 L 1230.6 695.8 L 1232 696.9 L 1233.4 698.4 L 1234.3 700.6 L 1234.3 703.3 L 1233.3 706.4 L 1231.7 709.8 L 1230.2 712.8 L 1227.7 715.4 L 1228.4 717.2 L 1231.1 719 L 1234.1 721.2 L 1235.2 723.4 L 1236.5 725.5 L 1238.9 727.6 L 1241.6 729.9 L 1243.4 732.2 L 1244.9 734.4 L 1247.1 736.3 L 1249.3 738.1 L 1251.2 739.9 L 1253.3 741.6 L 1256.1 743.1 L 1258.8 744.3 L 1260.3 745.3 L 1260.9 746.1 Z M 1212.2 721.9 L 1212.2 721.9 L 1212.2 721.9 L 1213.1 719.1 L 1212.8 717.5 L 1211.4 715.6 L 1208.9 715.4 L 1206.4 719.5 L 1205.3 723.2 L 1204.8 725.3 L 1206.6 726.2 L 1209.8 724.8 L 1212.2 721.9 Z" />
<path class="lake" d="M 518.4 1056.3 L 516.3 1054.1 L 523.5 1049.4 L 526.3 1046.8 L 527 1045.2 L 528.4 1044 L 530.4 1044.3 L 532.7 1045.6 L 538.2 1045.2 L 538.2 1045.2 L 538.2 1045.2 L 538.2 1045.2 L 538.2 1045.2 L 538.2 1045.2 L 546.9 1045.3 L 533.5 1049.7 L 525.7 1052.6 L 518.6 1056.1 L 518.4 1056.3 Z" />
<path class="lake" d="M 863.1 889.1 L 866.3 887.7 L 867.4 889.5 L 872.8 890 L 879.5 889.6 L 879.5 889.6 L 879.5 889.6 L 879.5 889.6 L 879.5 889.6 L 884.4 891.4 L 889.9 895.3 L 892.2 898.4 L 893.1 901.1 L 890.1 903.6 L 885.2 903.2 L 881.6 902 L 880 900.9 L 880.3 900.1 L 876.8 897.8 L 871.2 896.5 L 868.8 896.7 L 863.1 889.1 Z" />
<path class="lake" d="M 905.5 392.4 L 905.5 392.4 L 905.5 392.4 L 905.5 392.4 L 909.2 391.9 L 913.7 390.7 L 915.7 389.3 L 919.5 388.2 L 918.9 389.3 L 916.6 390.7 L 910.3 393.6 L 909.3 395.4 L 910.8 397 L 909.6 398.3 L 905.5 400.1 L 905.3 401.7 L 903.4 403.2 L 896.7 404.1 L 889.6 406.6 L 889.7 407.8 L 897.3 410.4 L 900.2 411.7 L 901.4 412.6 L 900.5 413.3 L 898.7 413.5 L 889.1 412.4 L 885.1 412.3 L 880.7 413.1 L 881.9 414.6 L 884.6 415.1 L 885.2 416.4 L 879.8 418.4 L 878.4 418.1 L 878.3 416.6 L 875.7 416.2 L 872.2 417.6 L 870.2 418.9 L 866.2 418.1 L 861.7 417.6 L 860.3 417.6 L 857.3 418 L 853.6 419.6 L 852.6 418.6 L 857 417.1 L 860.1 415.7 L 859.6 414 L 855.6 412.1 L 853 411.8 L 848.7 411.1 L 848.2 410.3 L 851.8 409.3 L 862.6 406.7 L 864.4 405.5 L 866 404.1 L 874.2 401.1 L 882.9 398.9 L 884.8 399.7 L 889.5 399.7 L 889.3 398.4 L 887.7 397.8 L 886 396.8 L 885.2 395.6 L 887 394.1 L 890.1 393.6 L 890.7 394.8 L 891.7 396.3 L 895.9 395.8 L 899.4 394.2 L 899.9 393.3 L 900.9 392.5 L 905.5 392.4 Z" />
<path class="lake" d="M 831.2 612.4 L 832.7 611.3 L 833.4 610.2 L 832.7 608.9 L 833.3 607.3 L 835 606.2 L 846 606.5 L 850.5 607.7 L 850.7 611.4 L 852.6 613.4 L 857.3 615.1 L 861.9 614.7 L 866.8 612.9 L 873.4 612.1 L 882.2 612.8 L 881.7 615 L 882.4 616.1 L 880.3 616.1 L 876.7 616.3 L 873.9 617.3 L 875.1 618.9 L 879.3 619.4 L 882.9 620.7 L 888.1 621.9 L 892.6 622.7 L 893.8 623.5 L 893.9 624 L 892.9 624.4 L 888.8 624.4 L 886 624.1 L 882.4 623.4 L 870.1 619.8 L 866.1 617.6 L 863.6 617.8 L 862.4 618.7 L 859.7 619.6 L 855.4 620.5 L 853.6 622.1 L 853.8 624 L 852.5 624.5 L 849.9 622.8 L 844.2 620.9 L 838.4 619.2 L 837.4 617.4 L 831.7 613.7 L 831.2 612.4 L 831.2 612.4 L 831.2 612.4 Z" />
<path class="lake" d="M 866.3 887.7 L 863.1 889.1 L 862.1 887.7 L 859.9 883.8 L 855.4 879.4 L 851.5 877.2 L 848 868.4 L 839.5 861.4 L 839.8 857.9 L 845.8 854.8 L 854.3 853 L 864.3 852.4 L 871.4 853.6 L 874.3 856.7 L 877.3 871.8 L 877.6 875.7 L 876.6 877.4 L 874.3 878.1 L 867 883.7 L 866 885.8 L 866.3 887.7 Z" />
<path class="lake" d="M 864.8 766.3 L 860.1 765 L 856.2 763.5 L 856.1 762.6 L 857.3 762.1 L 861 763.8 L 866.8 764.3 L 871.8 763.1 L 872.3 761.1 L 873.3 760.1 L 875.6 760.5 L 877.1 761.6 L 878.8 764.3 L 874.1 765.8 L 864.8 766.3 L 864.8 766.3 L 864.8 766.3 Z" />
<path class="lake" d="M 951.2 680.2 L 953.4 681.8 L 955.2 681.8 L 956.1 679.4 L 954.1 675.5 L 952.2 673.1 L 953.4 672.1 L 956.7 675.2 L 963.5 679.9 L 966.8 683.6 L 966.3 686.4 L 963.2 687.9 L 959.9 688.6 L 957.9 686 L 954.2 684.5 L 950.6 681.9 L 948.9 679.6 L 949.8 679.1 L 951.2 680.2 L 951.2 680.2 L 951.2 680.2 Z" />
<path class="lake" d="M 940.4 687.5 L 939.9 684.5 L 943.2 683.1 L 945.5 685.8 L 947.5 686.8 L 950.9 686.2 L 953.4 687.5 L 950.4 690.4 L 945.2 689.6 L 939.9 690 L 938.5 688.5 L 940.4 687.5 L 940.4 687.5 L 940.4 687.5 Z" />
<path class="lake" d="M 1198.2 651.9 L 1198.2 651.9 L 1198.2 651.9 L 1198.2 651.9 L 1204.1 652.9 L 1208.8 652.5 L 1214.3 652.5 L 1216.1 654.4 L 1214.7 655 L 1206.2 656.4 L 1205.3 657.4 L 1202.1 657.3 L 1199.8 656.6 L 1196.6 655.3 L 1191.9 653.7 L 1190 655.1 L 1192.5 661.3 L 1195.5 666.3 L 1195.7 669.1 L 1195.2 672.9 L 1193.7 676.6 L 1191.5 678 L 1191.4 677 L 1191.7 675.5 L 1191.6 673.9 L 1192 672.6 L 1193.1 672 L 1192.8 669.7 L 1191.3 666.7 L 1191.1 664.4 L 1190.3 662.1 L 1188.9 659.9 L 1184.4 656.6 L 1177.7 653.9 L 1176.1 652.8 L 1176.5 652 L 1173.3 646.6 L 1169 643.3 L 1166.8 643.6 L 1164.9 645.1 L 1162.7 647.1 L 1162.6 644.3 L 1165.7 639.8 L 1168.5 636.5 L 1172.2 636.6 L 1178.1 638 L 1181.8 639.2 L 1180.5 640.2 L 1191.3 642.3 L 1191.5 643.7 L 1197.2 648.3 L 1196.9 649.3 L 1195.5 650.3 L 1198.2 651.9 Z" />
<path class="lake" d="M 1128.2 654.6 L 1134.6 652.7 L 1136.9 653.2 L 1137.8 655.1 L 1139.5 656.2 L 1146.2 654.9 L 1150.1 655.8 L 1152.7 661.2 L 1156 664.2 L 1153.8 665.5 L 1148.5 666 L 1139.8 665.9 L 1134 665.4 L 1130.7 664.8 L 1122.2 661.8 L 1120.7 660.3 L 1120.7 659.2 L 1121.1 657.4 L 1120 655.5 L 1124.3 655.5 L 1128.2 654.6 L 1128.2 654.6 L 1128.2 654.6 Z" />
<path class="lake" d="M 1001.7 679.9 L 1000.9 677.2 L 1002.1 675.9 L 1004.9 675.6 L 1006.1 673.8 L 1008.4 672.2 L 1011.8 673.2 L 1012.5 676.4 L 1007.8 680.5 L 1005.5 681.2 L 1004.1 683 L 1004.5 684 L 1004.1 684.8 L 1003 684.4 L 997.1 684.3 L 996.2 683.9 L 998.8 682.4 L 1001.7 679.9 L 1001.7 679.9 L 1001.7 679.9 Z" />
<path class="lake" d="M 974.4 661.4 L 974.9 662.3 L 973.2 662.6 L 972.9 664.3 L 974.5 668.2 L 980.9 675.6 L 989.4 682 L 988.8 682.9 L 984.9 683.1 L 981.1 686.8 L 978.8 686.5 L 981.7 683.8 L 984.4 680.3 L 980.8 677.6 L 977.6 676.9 L 976.2 676.2 L 968.2 670.5 L 966.4 667.9 L 956.6 667.4 L 953.7 666.4 L 947.7 666.3 L 943.5 663 L 940.7 660 L 935.6 656.3 L 932 653.2 L 933.3 651.7 L 933.6 649.3 L 934.2 648.8 L 938.5 651.5 L 943.9 653.9 L 946.7 654.8 L 953.7 657.6 L 962.3 660.3 L 965.1 661.3 L 967.2 661.4 L 970.9 660.4 L 974.4 661.4 L 974.4 661.4 L 974.4 661.4 Z" />
<path class="lake" d="M 1026.9 535.9 L 1026.9 535.9 L 1026.9 535.9 L 1026.9 535.9 L 1028.7 538 L 1030 540.5 L 1031.6 542.6 L 1034.2 544.3 L 1032.4 544.9 L 1026.2 544.5 L 1017.1 542.2 L 1003.8 538.3 L 1006.1 534.6 L 1006.9 532.3 L 1009.9 530.4 L 1014.8 528.9 L 1020.8 528.6 L 1023.9 529.7 L 1027.1 534.5 L 1026.9 535.9 Z" />
<path class="lake" d="M 1087 561.5 L 1087 561.5 L 1087 561.5 L 1087 561.5 L 1093.5 564 L 1094.5 565.1 L 1095.7 566.7 L 1095.4 567.9 L 1093.7 567.9 L 1092.2 566.6 L 1085.3 564.3 L 1076.1 562.7 L 1068.8 560.9 L 1063.7 559.9 L 1061.5 558.5 L 1061.3 557.5 L 1059.2 556.9 L 1057 556.5 L 1052 555.4 L 1044.9 552.5 L 1041.9 549.8 L 1050.2 547.1 L 1063.1 545.6 L 1066.2 546.2 L 1069.2 548.1 L 1070.1 550.3 L 1073 551.2 L 1078.5 554 L 1079.9 555.5 L 1080.1 557.2 L 1080.7 559.5 L 1082.9 561.1 L 1087 561.5 Z" />
<path class="lake" d="M 1013.4 720.1 L 1013.4 718.6 L 1012.7 716.8 L 1012.6 715.3 L 1016 715.3 L 1018 716.1 L 1021.7 720.3 L 1020.2 722.2 L 1016.6 722.5 L 1014.2 721.6 L 1013.4 720.1 L 1013.4 720.1 L 1013.4 720.1 Z" />
<path class="lake" d="M 1043 887.1 L 1039.2 888.1 L 1036.9 891 L 1026.3 889.7 L 1013.8 887.8 L 1012.9 886.7 L 1017.3 884.6 L 1020.2 883.1 L 1022.9 882.5 L 1026.9 881.3 L 1030.5 878.3 L 1032.6 876.1 L 1036 878.2 L 1038.5 878.7 L 1042.1 880 L 1042.4 880.7 L 1047.7 880 L 1048.4 880.9 L 1048.1 881.6 L 1048.2 883.6 L 1050 888.3 L 1047.4 888.1 L 1043 887.1 L 1043 887.1 L 1043 887.1 Z" />
<path class="lake" d="M 842.6 734 L 840.9 734 L 838.2 733.7 L 834.8 732.6 L 831.8 732.2 L 829.5 732.6 L 830.7 733.9 L 833.7 734.7 L 835.6 735.7 L 835.8 737.1 L 835.9 737.7 L 836.1 738.2 L 835.2 738.4 L 833.6 738 L 832.5 738.1 L 831.9 738.7 L 831.1 737.9 L 830.2 736.3 L 826 733.2 L 821.1 729.8 L 817.3 728.3 L 814.5 727.5 L 812 726.4 L 809.3 725.5 L 808.7 725 L 810 723.4 L 812.1 721.9 L 814.8 720.1 L 816.1 720.7 L 815.5 721.4 L 813.8 723.2 L 813.2 724.8 L 815.1 725.1 L 817.1 724.6 L 818.3 723.9 L 819.8 723.5 L 820.5 722.8 L 819.9 722.2 L 820.1 721.7 L 822 721.8 L 823.3 722.7 L 824.5 724.1 L 826.2 724.9 L 826.9 724.7 L 827 724.3 L 827.2 724 L 828.2 724.1 L 829.6 724.7 L 830.9 725.2 L 831.9 724.8 L 832.5 724 L 832.5 723.3 L 830.5 722.9 L 827.5 722.1 L 825.1 720.4 L 822.8 718 L 822.6 717.3 L 824.9 718.5 L 827.8 719.3 L 830 720.1 L 832.9 721.3 L 835.3 723.4 L 835.7 724.7 L 835.5 725.5 L 836.3 728.1 L 836.5 730 L 837.7 731 L 840.2 731.8 L 842.2 732.2 L 842.9 732.9 L 843 733.6 L 842.6 734 L 842.6 734 L 842.6 734 L 842.6 734 Z" />
<path class="lake" d="M 368.6 839 L 368.7 839.1 L 366.4 839.9 L 364.4 840.5 L 356.4 842 L 347 844.1 L 345.8 844.9 L 345.3 845.5 L 342.4 846.1 L 337.2 846 L 333.8 845.3 L 333.6 844.2 L 332.3 842.7 L 330.3 841.8 L 329.1 841.4 L 327.4 841.1 L 321.3 840.7 L 321.7 840.1 L 328.3 839.3 L 333.3 838.6 L 338.4 839.4 L 342.6 839.6 L 344.2 839.2 L 350.1 840 L 358.9 839.9 L 362.6 839.4 L 365.4 839.2 L 368.6 839 L 368.6 839 L 368.6 839 L 368.6 839 Z" />
<path class="lake" d="M 824.5 669.3 L 822.8 670.4 L 823.3 672.8 L 825.3 675.2 L 825.4 676.1 L 824.4 676.5 L 820.4 675.2 L 817 673.7 L 817.3 673.3 L 817.3 672.7 L 817 671.5 L 816.6 670.2 L 815.4 668.9 L 812.1 666.9 L 808.5 664.8 L 806.9 663.4 L 806.7 662.6 L 807.9 662.8 L 810 664.3 L 812.4 666.1 L 815.5 667.1 L 818.3 666.8 L 821.6 665.7 L 822.5 664 L 819.2 662.1 L 816.4 660.9 L 815.1 659.7 L 815.3 658.6 L 816.9 658.2 L 819.8 659.2 L 824.2 660.1 L 827.5 660.1 L 828.4 660.4 L 826.9 660.9 L 825.3 661.3 L 827.2 662 L 829.1 662.9 L 829.4 664.3 L 828.2 665.9 L 825.9 667.1 L 825.1 668.2 L 824.5 669.3 L 824.5 669.3 L 824.5 669.3 L 824.5 669.3 Z" />
<path class="lake" d="M 447.9 474.8 L 432.5 469.9 L 423.3 468.8 L 420.8 468.4 L 416.3 467.3 L 410.3 466.9 L 406.1 466 L 405 465.5 L 402 463.3 L 401 460.7 L 408.6 462.5 L 414.6 464.2 L 444.9 471.1 L 448.8 472.3 L 457.4 475.5 L 458.8 477.4 L 447.9 474.8 L 447.9 474.8 L 447.9 474.8 Z" />
<path class="lake" d="M 1009 637.2 L 1010.2 635.2 L 1010.3 633.3 L 1011.8 633.5 L 1013.6 634.2 L 1014 634.9 L 1014.7 635.7 L 1020.3 637.1 L 1026.7 638.1 L 1028.2 639.4 L 1027.8 639.8 L 1026.9 640 L 1025.6 639.5 L 1023.8 639.2 L 1022.9 639.6 L 1023.2 640.8 L 1024.7 641.7 L 1025.5 642.8 L 1025.3 643.3 L 1024.4 644 L 1024.7 645.2 L 1025.7 646.4 L 1025 647.1 L 1022.3 645.9 L 1019.3 644.6 L 1017 644 L 1015.4 642.8 L 1015.7 641.5 L 1015.6 640.2 L 1014.1 639.2 L 1008.1 638.5 L 1007.1 637.6 L 1009 637.2 L 1009 637.2 L 1009 637.2 L 1009 637.2 Z" />
<path class="lake" d="M 924.3 526.8 L 924.3 526.8 L 924.3 526.8 L 924.3 526.8 L 927.9 527 L 931.5 526.8 L 934.1 527.3 L 932.5 528 L 931.5 528.6 L 930.5 529.8 L 927.5 530.8 L 920.8 533.5 L 916.8 535.9 L 913.5 537.8 L 908.9 538.5 L 901.8 539.1 L 888.7 539.1 L 887.5 538.5 L 887.7 537.7 L 887.6 536.7 L 887.1 535.9 L 886.7 535.3 L 883.4 534.2 L 880.5 533.2 L 882.9 533 L 886.9 533.4 L 889.4 534.2 L 890.8 535.1 L 891.3 536.3 L 891.7 537.3 L 893.4 537.5 L 899.8 536.2 L 904.8 535.1 L 908.1 534.6 L 909.6 533.2 L 910.6 532.4 L 916.9 531.2 L 922.7 530.3 L 922.8 529.8 L 922.8 529 L 920.3 527.3 L 918 525.9 L 919.2 525.6 L 921.6 525.7 L 924.3 526.8 Z" />
<path class="country" d="M 912 404 L 905.4 435.2 L 973.7 464.9 L 932.6 498.6 L 984.4 549.3 L 954.4 587.5 L 994.6 620.7 L 976.3 649.8 L 1042.3 680.3 L 1025.6 703 L 984.1 728.8 L 888.7 785.7 L 888.7 785.7 L 888.7 785.7 L 807.8 789.2 L 729.4 805.6 L 656.8 815 L 631 790.7 L 587.8 776 L 597.8 732.1 L 576.1 691.9 L 597.4 665.9 L 637.8 637.9 L 739.8 589.6 L 769.6 580.3 L 764.9 561.4 L 702.9 540.3 L 687.9 523 L 686.7 454.3 L 617.1 424 L 557.7 402.2 L 584.4 390.4 L 633.9 414 L 692.2 411.8 L 740 422.5 L 782.5 402.8 L 804.4 370.1 L 873.6 355 L 930.8 372.7 L 912 404 Z" />

<path class="river" d="M 369.9 801.2 L 365 802.7 M 413.7 785.4 L 412.5 787.6 L 406.1 790.2 L 394.2 794.1 L 387.6 796.9 L 386.6 798.7 L 382.7 799.9 L 372.8 800.9 M 286 763.7 L 289.6 767 L 293.9 768.9 L 300.1 770.3 L 303.6 772.2 L 304.8 775.7 M 248.8 745.1 L 246.8 742.7 L 243.2 741.2 L 237.3 739.8 L 232.3 737.8 L 226.3 734" />
<path class="river" d="M 858.1 506.6 L 864.1 510.9 L 863.9 513 L 859.4 514.3 L 857.2 516.1 L 857 519.8" />
<path class="river" d="M 1021.2 810.3 L 1027.4 808.9 L 1031.5 805.7 L 1037.8 797.7" />
<path class="river" d="M 1037.8 797.7 L 1045.8 790 L 1054.9 785 L 1067.7 780.1 L 1079.8 779 L 1091.1 781.5 L 1095.6 783.9 L 1100.5 786.6" />
<path class="river" d="M 1673.1 1244.1 L 1680.5 1238.1 L 1680.7 1233.6 L 1676.2 1228.7 L 1673.8 1225.2 L 1673.6 1222.9 L 1676.6 1220.9 L 1683 1219.1 L 1687.2 1217.2 L 1689.4 1215.4 L 1690 1212.7 L 1689.1 1209.4 L 1686.6 1206.5 L 1682.7 1203.9 L 1680.7 1201 L 1680.8 1197.8 L 1682.2 1195 L 1685.1 1192.7 L 1686.8 1190.6 L 1687.1 1188.7 L 1689.5 1186.8 L 1693.9 1185 L 1697.8 1182 L 1701.2 1177.9 L 1704.3 1176.1 L 1709.3 1174.9 L 1713.3 1175.9 L 1718.4 1176.2 L 1722.6 1176.1 M 1824.4 1009.5 L 1834.5 1020.6 L 1832.9 1026 L 1822.9 1029.5 L 1817.4 1035.1 L 1816.4 1042.9 L 1812.1 1048.1 L 1804.5 1050.9 L 1799.8 1053.8 L 1798.2 1056.8 L 1797.4 1060.3 L 1797.7 1064.2 L 1803.3 1069.6 L 1814.4 1076.6 L 1820.2 1083.4 L 1820.8 1089.9 L 1822.1 1094.4 L 1824 1096.9 L 1826.5 1098.7 L 1831.1 1099.7 L 1847.1 1099.4 L 1862.1 1099.9 M 1573.6 956.4 L 1569.6 953.8 L 1567.1 950.2 L 1564.6 944.7 L 1562.1 940.8 L 1559.6 938.6 L 1558.3 936.6 L 1558 935 L 1558.9 932.4 L 1562.2 927.2 L 1548.7 923.6 L 1542 922.7 L 1535.4 923.4 M 1293.5 952.9 L 1281.5 951.6 L 1275 953 L 1270.1 956.9 L 1265.4 957.8 L 1258.9 955 M 1320.7 928.9 L 1328.9 928 L 1334.9 924.9 L 1344.8 916.4 M 1480.4 919.9 L 1474.3 918.8 L 1469.6 915.7 L 1464.1 910.1 L 1460.2 906.9 L 1457.9 906.3 L 1452 906.7 L 1442.6 908.3 L 1433.6 910.9 L 1420.9 916.6 M 1350.9 896.5 L 1345.9 893.6 L 1345.6 890.6 L 1349.6 884.5 L 1362.8 892.3" />
<path class="river" d="M 996 782.6 L 988 779 L 979.9 778 L 969.1 778.3 L 962 777.9 L 956.7 776.2 M 998.5 780.1 L 1004.1 779.2 L 1010.1 779.9 L 1018.4 781.7 L 1026.3 786.4 L 1037.7 797.6" />
<path class="river" d="M 369.9 801.2 L 372.8 800.9 M 413.8 785.4 L 415.5 779.5 M 304.8 775.7 L 308.1 776.5 L 308.5 777.8 L 307.3 780 L 308 781.8 L 310.7 783.3 L 315.2 784.1 L 321.3 784 L 327.3 785.6 L 333.2 788.9 L 339.6 790.3 L 346.3 789.8 L 350.8 790.8 L 353.1 793.2 L 353.8 795.7 L 352.9 798.4 L 355.5 800.4 L 365 802.7 M 248.8 745.1 L 249.1 748.7 L 249.8 750.2 L 251.1 750.9 L 259.1 751.6 L 262.9 753 L 265.6 755.4 L 271.7 758.4 L 286 763.7 M 176.5 712.3 L 181.7 712 L 185.2 713.7 L 190.5 719 L 226.3 734" />
<path class="river" d="M 1067.4 946 L 1066.7 947.4 L 1068.2 948.1 L 1071.8 948.6 L 1074.7 949.9 L 1078.1 953 L 1076.1 959.3 L 1074.3 961.9 L 1072.1 962.8 L 1069.9 965.2 L 1067.8 968.9 L 1067.1 972.4 L 1068 975.8 L 1066.9 977.8 L 1064 978.6 L 1062.7 980.1 L 1063.3 982.3 L 1058.3 983.4 L 1047.9 983.6 L 1040.7 984.7 L 1036.7 987 L 1036.2 991.4 L 1039.3 998.1 L 1037.8 1001.9 L 1031.7 1002.6 L 1027 1004.3 L 1021.8 1008.4 L 1003.4 1011.6 L 992.9 1014.6 L 984.3 1018.4 L 982.2 1020.6 L 981.3 1022.4 L 978.6 1022.9 L 971.4 1022 L 966.5 1021.9 L 963.9 1022.7 L 962.5 1023.9 L 962.3 1025.3 L 960.8 1025.9 L 957.8 1025.6 L 954.9 1026.3 L 952 1028 L 950.3 1027.9 L 949.7 1026.1 L 948.2 1025.2 L 946 1025.1 L 944.2 1024.1 L 943 1022.2 L 939.2 1019.6 L 932.7 1016.4 L 930.2 1014.1 L 929.8 1012.8 L 926.5 1010.8 L 917.8 1007.7 L 908 1005.8 L 897.1 1005.1 L 889.4 1003.4 L 884.9 1000.7 L 882.4 998.1 L 881.7 995.6 L 880.3 994.7 L 879.1 994.5 L 875 995 L 867.9 995.5 L 861.4 995.2 L 856.5 994 L 841.6 991 L 832.5 990.6 L 824.1 991.8 L 818.2 991 L 814.9 988.1 L 812.6 984.7 L 811.6 981.1 L 809.5 978.5 L 806.5 977.1 L 804.6 974.7 L 803.8 971.3 L 799.3 967.9 L 791 964.5 L 786.5 961.8 L 785.8 959.8 L 783.5 959.3 L 779.6 960.3 L 775.6 960.2 L 771.6 959 L 767.8 958.9 L 764.1 959.9 L 759.6 960 L 754.2 959.2 L 746.9 956.7 L 737.9 952.4 L 729.8 949.6 L 722.4 948.2 L 717.1 946.6 L 713.6 944.8 L 711.3 942.6 L 709.7 939" />
<path class="river" d="M 1141.3 992.1 L 1144.9 994.2 L 1145.3 995.3 L 1143.6 996.1 L 1144.3 997 L 1147.3 998 L 1148.2 999.3 L 1146.2 1001.8 L 1142.7 1005.7 L 1139.8 1006.7 L 1136.2 1006.3 L 1134.5 1008.9 L 1134.8 1014.5 L 1133.9 1018.3 L 1131.8 1020.2 L 1129.6 1024.6 L 1125.9 1034.8" />
<path class="river" d="M 1089.7 1404.9 L 1092.7 1403.4 L 1105.5 1400.3 L 1111.4 1398.5 L 1119 1397.7 L 1124.4 1397.3 L 1128.6 1396.3 L 1132.5 1395.3 M 1202.3 1350.3 L 1203.4 1344.4 L 1202.9 1341.5 L 1201.1 1339.5 L 1201.5 1338.3 L 1204.3 1337.8 L 1205.9 1336.5 L 1206.3 1334.3 L 1205.2 1330.7 L 1202.7 1325.6 L 1195.8 1321.9 L 1189.6 1321.2 L 1184.6 1319.5 L 1171.3 1314.6 L 1163.1 1310.3 L 1155.9 1307.1 L 1140.5 1301.1 L 1131.1 1298.2 L 1124.7 1295.6 L 1117.1 1294.4 M 1058.9 1273.8 L 1050.1 1270.2 L 1039.9 1264.8 M 1038.9 1254 L 1030.2 1254.9 L 1022.5 1252.9 L 1012.9 1248.4 L 1006.2 1244.1 L 1002.6 1240.1 L 1000 1235.4 L 997.7 1227.4 M 1125.9 1034.8 L 1113.3 1031.7 L 1107.5 1031 L 1104.1 1031.7 L 1100.6 1032.9 L 1096.8 1034.8 L 1094.5 1036.8 L 1093.8 1039 L 1091.1 1041.6 L 1086.7 1044.7 L 1080.9 1044.7 L 1073.8 1041.5 L 1064.1 1041 L 1046 1044.1 L 1018.1 1046.4 L 1006.7 1048.3 L 1002.4 1050.5 L 999.3 1051.4 L 997.4 1051 L 995.4 1051.7 L 993.2 1053.6 L 990.8 1056.7 L 988.3 1061.1 L 988.9 1067.4 L 992.8 1075.6 L 992.9 1080.2 L 989.2 1081 L 987 1084.5 L 986.4 1090.5 L 987.4 1096.9 L 991.3 1107 L 987.2 1109.1 L 986.3 1111 L 987.4 1113.7 L 985.9 1114.9 L 982 1114.7 L 978.8 1115.7 L 976.4 1117.9 L 976.3 1122.3 L 978.3 1128.8 L 981.1 1133.2 L 984.6 1135.5 L 986.2 1137.8 L 985.9 1140.1 L 987.2 1142.2 L 990 1144.2 L 991 1145.7 L 990.4 1146.6 L 992.4 1147.9 L 997.2 1149.6 L 999.1 1151.2 L 998.1 1152.7 L 1000.8 1156 L 1006.9 1161.3 L 1010.2 1165 L 1010.6 1167.3 L 1009.2 1169.5 L 1005.9 1171.8 L 1002.6 1175.3 L 999.3 1180.1 L 999.1 1185.1 L 1002 1190.4 L 1002 1194.7 L 997.4 1199.7" />
<path class="river" d="M 1044.7 635.6 L 1051.1 637.9 L 1056.5 640.3 L 1061.4 640.2 L 1074.4 636.4 L 1077 634.1 L 1079.8 630.5 L 1080.8 628.2 L 1079.8 627.1 L 1079.9 625 L 1081.2 621.9 L 1079 618.7 L 1073.5 615.3 L 1072.1 613 L 1075.1 611.8 L 1077.3 610 L 1079 607.6 L 1077.4 604.4 L 1072.5 600.6 L 1070.3 597.6 L 1070.5 596.5 M 1065.9 609.3 L 1072.8 612.7 M 1070.5 596.5 L 1070.8 595.4 L 1075.5 593.2 L 1084.3 591 L 1090.2 588.4 L 1092.9 585.5 L 1097 584.5 L 1102.5 585.5 L 1106.3 584.5 L 1108.5 581.6 L 1111.4 580.3 L 1116.8 580.6 L 1153.3 586.3 L 1170.3 587.7 L 1184.7 586.1 L 1188.9 585.9 M 1061.9 591.3 L 1070.5 596.5" />
<path class="river" d="M 857 519.8 L 855.4 522.6 L 853.1 524 L 849.5 525.1 L 836.6 524.8 L 814.4 523 L 799.3 521 L 791.4 518.7 L 783.4 518.6 L 775.2 520.8 L 769.7 524.5 L 765.3 532.1 L 749.4 535.4 L 742.8 538.5 L 738.9 544.6 L 735.2 546.9 M 920.4 446.8 L 927 450.9 L 928.1 453.2 L 924.7 455.9 L 923.5 459.8 L 921.3 462.6 L 917.9 465.5 L 910.2 469.8 L 898.5 475.5 L 893.9 479.6 L 896.5 482.3 L 895.7 483.3 L 891.4 482.5 L 889.3 483 L 889.4 484.7 L 888.3 485.8 L 885.2 486.5 L 868.1 489 L 863.3 491.4 L 865.1 494.3 L 864 498.5 L 858.1 506.6" />
<path class="river" d="M 643.9 754.2 L 635.9 750.5 L 633.3 750.1 L 633.5 751.8 L 631.5 752.2 L 627.4 751.3 L 620.4 748.2 L 605.4 740.4 L 602.7 739.3 L 600.1 737.8" />
<path class="river" d="M 1021.2 810.3 L 1019.9 811.2 L 1018.5 813.4 L 1015.1 815.1 L 1010.2 816.6 L 1003.8 815.5 L 996 811.9 L 990.2 810.5 L 984.5 811.9 L 981.7 812.4" />
<path class="river" d="M 1100.3 786.7 L 1102.4 786.9 L 1108.3 785.4 L 1114.7 782.5 L 1121.4 777.9 L 1128 775.2 L 1134.5 774.6 L 1140.3 772 L 1145.4 767.4 L 1149.4 765.2 L 1153.8 765.5 L 1156.9 766.9 L 1166.1 766.1 L 1190.8 762.4" />
<path class="river" d="M 1770.2 1399.5 L 1782.3 1401.9 L 1787 1405.3 L 1788.4 1410.8 L 1791.2 1414.5 L 1795.5 1416.4 L 1799.6 1420.2 L 1807.7 1428.5 M 1673.1 1244.1 L 1665.3 1248.5 L 1661.9 1251.5 L 1660.4 1254.4 L 1659.6 1257.7 L 1659.5 1261.5 L 1657.1 1265.7 L 1652.3 1270.4 L 1648.2 1275.7 L 1645.6 1280.4 L 1644 1282.9 L 1643.3 1284.6 L 1643 1285.5 L 1642.9 1287 L 1642.4 1289.9 L 1636.4 1298 L 1625.1 1310.7 L 1623.2 1313.5 L 1622.4 1316.5 L 1625.4 1318.8 L 1637.4 1322.4 L 1645.4 1323.8 L 1649.2 1323 L 1653.6 1323.2 L 1658.5 1324.4 L 1661.8 1324.2 L 1663.5 1322.6 L 1668.4 1323 L 1676.2 1325.4 L 1679 1326.1 L 1680.5 1326.7 L 1682 1327.4 L 1684 1328.8 L 1691.5 1333.4 L 1695 1338.2 L 1694.6 1343.4 L 1696.7 1346.8 L 1701.2 1348.4 L 1703.7 1350.1 L 1704.1 1352 L 1706.3 1353.3 L 1710.3 1354 L 1715.5 1357.7 L 1722.1 1364.3 L 1727.1 1367.9 L 1730.3 1368.5 L 1733 1369.8 L 1735.2 1371.7 L 1736.3 1373.7 L 1736.4 1376.5 L 1736.5 1378.2 L 1742.1 1381.3 L 1753.3 1386.4 L 1758.7 1390.3 L 1758.3 1392.9 L 1759.9 1394.2 L 1763.4 1394.2 L 1768.3 1397.9 L 1774.6 1405.2 L 1777.3 1409.8 L 1776.4 1411.6 L 1776.3 1413.7 L 1777.1 1415.8 L 1773.5 1421.2 L 1765.4 1429.8 L 1761.2 1435.5 L 1761 1438.3 L 1759.9 1439.7 L 1758.4 1440.6 L 1757.6 1441.7 L 1757.8 1443 L 1758.8 1444 L 1760.8 1446 L 1761.6 1447.6 M 1862.1 1099.9 L 1868.3 1100 L 1871.2 1102.2 L 1873 1106.6 L 1872.1 1109.7 L 1868.5 1111.6 L 1864.5 1112 L 1859.9 1110.7 L 1853.8 1111.2 L 1846 1113.3 L 1840.9 1113.4 L 1838.4 1111.6 L 1833.8 1110.5 L 1827.1 1110 L 1818.2 1110.9 L 1807 1113.3 L 1800.6 1115.6 L 1799.1 1117.7 L 1799.7 1120.4 L 1802.3 1123.9 L 1799.7 1128.4 L 1792.1 1134.2 L 1785.1 1142.3 L 1778.8 1152.7 L 1772.8 1159.3 L 1767.2 1161.9 L 1761.3 1162.9 L 1755.2 1162.4 L 1744.8 1165.7 L 1737.7 1168.4 L 1731.3 1172.4 L 1725.6 1174.9 L 1722.6 1176.1 M 1573.6 956.4 L 1583.6 964.4 L 1591.6 968.5 L 1601 971.5 L 1606.4 974.3 L 1607.7 977 L 1610.4 978.5 L 1614.4 978.8 L 1619 980.2 L 1624.1 982.7 L 1633.5 982.8 L 1647.1 980.7 L 1656 980.4 L 1660.1 981.9 L 1663.2 981.9 L 1665.3 980.1 L 1668.4 979.4 L 1672.7 979.7 L 1676.3 979.1 L 1679.4 977.5 L 1682.4 977.6 L 1685.2 979.3 L 1689.2 978.8 L 1694.2 976.1 L 1701.2 973.7 L 1710 971.5 L 1718.4 972.7 L 1726.2 977.4 L 1740 979.8 L 1769.6 980 L 1772.1 981.1 L 1774 983.2 L 1776 986.8 L 1780.2 989.8 L 1786.7 992.2 L 1797.7 994.3 L 1813.3 996.1 L 1821.9 1000.2 L 1824.4 1009.5 M 1293.4 952.9 L 1304.3 948.1 L 1308.1 944.8 L 1308.5 941.5 L 1311.7 937.2 L 1320.7 928.9 M 1090.6 930.7 L 1094.2 938.4 L 1094 941.5 L 1094.7 943.1 L 1096.4 944.4 L 1101.8 944.9 L 1111 944.9 L 1121.1 946.4 L 1132 949.5 L 1138.6 952.4 L 1140.7 954.9 L 1144.8 957.9 L 1151.1 961.3 L 1152.2 963.8 L 1148 965.4 L 1146.1 966.7 L 1146.7 967.6 L 1155.3 970.6 L 1172 975.6 L 1182.9 977.2 L 1188 975.5 L 1191.5 973.6 L 1193.3 971.5 L 1193.6 970 L 1192.3 969.3 L 1192.8 968 L 1195 966 L 1195.7 964.1 L 1194.8 962.2 L 1197.7 960.7 L 1207.6 959.2 L 1212.5 955.1 L 1216.4 953.4 L 1221 952.6 L 1224.7 951.2 L 1227.6 949.2 L 1232.1 948.1 L 1238.1 947.8 L 1245.2 948.8 L 1253.1 950.9 L 1257.6 952.7 L 1258.9 955 M 1480.5 919.9 L 1497 921.9 L 1504.8 921.8 L 1509.2 920.1 L 1517.4 920.3 L 1535.4 923.4 M 1420.9 916.6 L 1414 912.1 L 1411.6 909.6 L 1411.2 907.6 L 1407 904.8 L 1399 901.4 L 1387 897.8 L 1362.8 892.3 M 1344.8 916.4 L 1351.3 908 L 1352.8 903 L 1350.9 896.5" />
<path class="river" d="M 996 782.6 L 997.2 782 L 997.5 780.7 L 998.5 780.1 M 920.7 754.5 L 922.2 757.8 L 934.4 765.7 L 943 770.3 L 956.7 776.2" />
<g class="city"><circle cx="988.7304188287837" cy="810.783021994956" r="5" /><text x="1000.7304188287837" y="814.783021994956">St.  Petersburg</text></g>
<g class="city"><circle cx="442.6871616291033" cy="838.2833253536112" r="5" /><text x="454.6871616291033" y="842.2833253536112">Stockholm</text></g>
<g class="city"><circle cx="748.8014590291358" cy="800.8479543159307" r="5" /><text x="760.8014590291358" y="804.8479543159307">Helsinki</text></g>
<g class="city"><circle cx="711.6864172858218" cy="944.1281045802308" r="5" /><text x="723.6864172858218" y="948.1281045802308">Riga</text></g>
<g class="city"><circle cx="551.0705003576334" cy="1044.4407946639888" r="5" /><text x="563.0705003576334" y="1048.4407946639888">Kaliningrad</text></g>
<g class="city"><circle cx="1237.322045742221" cy="948.1426309045901" r="5" /><text x="1249.322045742221" y="952.1426309045901">Tver</text></g>
<g class="city"><circle cx="739.6879680009923" cy="833.390334392342" r="5" /><text x="751.6879680009923" y="837.390334392342">Tallinn</text></g>
<g class="city"><circle cx="1066.0045445646467" cy="1040.754578001942" r="5" /><text x="1078.0045445646467" y="1044.754578001942">Smolensk</text></g>
<text class="map-title" x="80" y="105">Finland Physical Study Map</text>
<text class="map-subtitle" x="80" y="145">Landmark: Suomenlinna Fortress | Study terrain and water systems</text>
  <text class="footer" x="80" y="1036">Made with Natural Earth. Free vector and raster map data @ naturalearthdata.com.</text>
</svg>
