<?xml version="1.0" encoding="UTF-8"?>
<svg xmlns="http://www.w3.org/2000/svg" width="1600" height="1100" viewBox="0 0 1600 1100" role="img" aria-labelledby="title desc">
  <title id="title">Fiji Physical Study Map</title>
  <desc id="desc">Made with Natural Earth. Free vector and raster map data @ naturalearthdata.com.</desc>
  <defs>
    <linearGradient id="terrain" x1="0" x2="1" y1="0" y2="1">
      <stop offset="0%" stop-color="#6c8c53" />
      <stop offset="42%" stop-color="#d5c487" />
      <stop offset="72%" stop-color="#b88b5f" />
      <stop offset="100%" stop-color="#f1f5ee" />
    </linearGradient>
    <filter id="softShadow" x="-10%" y="-10%" width="120%" height="120%">
      <feDropShadow dx="0" dy="10" stdDeviation="12" flood-color="#0f172a" flood-opacity="0.16" />
    </filter>
    <style>
      .neighbor { fill: #ffffff; stroke: #94a3b8; stroke-width: 1.2; opacity: 0.72; }
      .country { fill: url(#terrain); stroke: #1f2937; stroke-width: 4; filter: url(#softShadow); }
      .admin1 { fill: none; stroke: #64748b; stroke-width: 1.1; stroke-dasharray: 6 7; opacity: 0.75; }
      .river { fill: none; stroke: #1d9bd1; stroke-width: 3; stroke-linecap: round; opacity: 0.88; }
      .lake { fill: #8ed1ea; stroke: #0ea5e9; stroke-width: 1.5; opacity: 0.8; }
      .city circle { fill: #ef4444; stroke: #ffffff; stroke-width: 2; }
      .city text, .terrain-label { fill: #172033; font: 700 24px system-ui, sans-serif; paint-order: stroke; stroke: #ffffff; stroke-width: 5; stroke-linejoin: round; }
      .map-title { fill: #0f172a; font: 800 46px system-ui, sans-serif; }
      .map-subtitle { fill: #475569; font: 600 24px system-ui, sans-serif; }
      .footer { fill: #64748b; font: 500 18px system-ui, sans-serif; }
    </style>
  </defs>
  <rect width="100%" height="100%" fill="#d8edf0" />
  <rect x="40" y="40" width="1520" height="1020" rx="32" fill="#ffffff" opacity="0.54" />
  <path class="neighbor" d="M 664.6 655 L 664.6 659.4 L 666.8 659.4 L 667.9 659.4 L 667.3 660.2 L 665.6 660.8 L 664.6 660.8 L 663.5 660.6 L 662 660 L 660 659.7 L 657.5 658.6 L 655.5 657.6 L 652.7 655.4 L 654.4 655.8 L 657.1 657.1 L 659.8 657.8 L 660.8 656.9 L 661.4 655.6 L 663.2 654.7 L 664.6 655 Z M 662.8 585.8 L 663.7 587.2 L 664 588.6 L 665 589.4 L 664.4 591.3 L 665.5 593.6 L 666.2 596.3 L 667.7 596 L 667.9 596.5 L 667.2 598.6 L 665.1 599.5 L 665.1 602.8 L 664.7 603.4 L 665.3 604.2 L 663.9 605.4 L 662.6 607.3 L 661.9 609.1 L 662.1 611 L 660.9 613 L 661.8 616.4 L 662.3 616.8 L 662.3 618.6 L 661.2 620.5 L 661.2 622.2 L 659.7 623.5 L 659.7 625.3 L 660.3 627.2 L 659.2 627.9 L 658.6 629.7 L 658.2 631.7 L 658.5 634.1 L 657.7 634.5 L 658.2 636.8 L 659.1 637.5 L 658.4 638.4 L 659.3 638.7 L 659.5 639.5 L 658.7 639.9 L 658.9 641 L 658.2 643.6 L 657.1 645.3 L 657.3 646.3 L 656.7 647.6 L 655.2 648.4 L 655.4 650.5 L 656.1 651.2 L 657.4 651.1 L 657.4 652.6 L 658.2 653.7 L 662.9 654 L 664.8 654.3 L 663 654.3 L 662.1 654.8 L 660.3 655.5 L 660 657.3 L 659.1 657.4 L 656.9 656.7 L 654.6 655.4 L 654.6 655.4 L 652.2 654.2 L 651.6 653 L 652.1 651.8 L 651.1 650.5 L 650.9 647.2 L 651.7 645.3 L 653.8 643.7 L 650.8 643.2 L 652.7 641.4 L 653.4 638.1 L 655.6 638.8 L 656.6 634.8 L 655.3 634.2 L 654.6 636.7 L 653.4 636.4 L 654 633.6 L 654.7 629.9 L 655.6 628.6 L 655 626.7 L 654.9 624.4 L 655.7 624.4 L 656.9 621.2 L 658.3 618 L 659.1 615.1 L 658.7 612.2 L 659.2 610.5 L 659 608.1 L 660.2 605.7 L 660.5 601.9 L 661.1 597.8 L 661.8 593.4 L 661.6 590.1 L 661.2 587.4 L 662.2 586.9 L 662.8 585.8 Z" />
<path class="neighbor" d="M 694.7 617.8 L 694.2 616.6 L 695.1 615.7 L 693.9 614.4 L 692.4 613.3 L 690.3 612 L 689.6 612.1 L 687.6 610.6 L 686.4 610.8 L 689 608.1 L 691.2 606.2 L 692.5 605.4 L 694.2 604.3 L 694.2 602.7 L 693.2 601.6 L 692.3 601.9 L 692.7 600.8 L 692.9 599.6 L 692.9 598.5 L 692.2 598.2 L 691.5 598.5 L 690.7 598.4 L 690.5 597.7 L 690.3 595.8 L 690 595.3 L 688.6 594.7 L 687.8 595.1 L 685.7 594.7 L 685.9 592.1 L 685.3 591 L 685.9 590.6 L 685.7 589.4 L 686.3 588.6 L 686.6 587 L 686.1 585.8 L 685.1 585.2 L 684.8 584.5 L 685.1 583.3 L 681.4 583.2 L 680.6 580.9 L 681.2 580.9 L 681.1 580.1 L 680.8 579.5 L 680.7 578.3 L 679.5 577.8 L 678.3 577.8 L 677.5 577.2 L 676.1 576.8 L 675.4 576.1 L 673.2 575.7 L 671 574 L 671.2 572.7 L 670.9 571.9 L 671.1 570.4 L 668.6 570.8 L 667.5 571.5 L 665.8 572.3 L 665.4 572.9 L 664.3 572.9 L 662.9 572.8 L 661.8 573.1 L 660.9 572.9 L 661 569.9 L 659.4 571 L 657.6 571 L 656.9 569.9 L 655.6 569.8 L 656 569 L 654.9 567.8 L 654.1 566 L 654.6 565.6 L 654.6 564.8 L 655.8 564.2 L 655.6 563.2 L 656.1 562.5 L 656.2 561.6 L 658.5 560.2 L 660.1 559.8 L 660.4 559.6 L 662.2 559.6 L 663 554.2 L 663.1 553.4 L 662.8 552.3 L 661.9 551.5 L 661.9 550.1 L 663 549.8 L 663.4 550 L 663.5 549.2 L 662.3 549 L 662.3 547.8 L 666.1 547.8 L 666.8 547.1 L 667.3 547.8 L 667.7 548.9 L 668.1 548.7 L 669.2 549.7 L 670.7 549.6 L 671.1 549 L 672.6 548.5 L 673.4 548.2 L 673.6 547.4 L 675 546.8 L 674.9 546.4 L 673.2 546.2 L 673 545 L 673.1 543.7 L 672.2 543.2 L 672.5 543 L 674 543.2 L 675.6 543.7 L 676.1 543.3 L 677.6 543 L 679.8 542.2 L 680.5 541.5 L 680.2 540.9 L 681.2 540.8 L 681.7 541.3 L 681.4 542.1 L 682.1 542.4 L 682.6 543.4 L 682 544.1 L 681.7 545.7 L 682.2 546.7 L 682.4 547.6 L 683.6 548.6 L 684.5 548.7 L 684.8 548.3 L 685.4 548.2 L 686.3 547.8 L 686.9 547.3 L 688 547.5 L 688.5 547.4 L 689.6 547.6 L 689.7 547.2 L 689.4 546.8 L 689.6 546.2 L 690.4 546.4 L 691.3 546.2 L 692.5 546.6 L 693.3 547 L 693.9 546.5 L 694.4 546.6 L 694.6 547.1 L 695.6 547 L 696.3 546.2 L 697 544.8 L 698.1 543 L 698.8 542.9 L 699.3 544 L 700.4 547.4 L 701.4 547.7 L 701.5 549.1 L 700 550.7 L 700.6 551.3 L 704.1 551.6 L 704.2 553.6 L 705.7 552.3 L 708.2 553 L 711.4 554.2 L 712.4 555.4 L 712.1 556.5 L 714.4 555.9 L 718.2 556.9 L 721.2 556.8 L 724.1 558.5 L 726.6 560.7 L 728.1 561.2 L 729.8 561.3 L 730.5 561.9 L 731.2 564.5 L 731.5 565.7 L 730.7 568.9 L 729.7 570.2 L 726.9 572.9 L 725.7 575.2 L 724.2 576.9 L 723.7 576.9 L 723.2 578.4 L 723.3 582.1 L 722.8 585.1 L 722.6 586.4 L 721.9 587.2 L 721.6 589.8 L 719.6 592.4 L 719.2 594.4 L 717.7 595.3 L 717.2 596.5 L 715 596.5 L 711.9 597.2 L 710.6 598.1 L 708.3 598.7 L 706 600.2 L 704.4 602.2 L 704.1 603.7 L 704.4 604.8 L 704 606.8 L 703.6 607.7 L 702.2 608.8 L 700 612.3 L 698.3 613.8 L 696.9 614.8 L 696 616.6 L 694.7 617.8 Z" />
<path class="neighbor" d="M 662.9 572.8 L 664.3 572.9 L 665.4 572.9 L 665.8 572.3 L 667.5 571.5 L 668.6 570.8 L 671.1 570.4 L 670.9 571.9 L 671.2 572.7 L 671 574 L 673.2 575.7 L 675.4 576.1 L 676.1 576.8 L 677.5 577.2 L 678.3 577.8 L 679.5 577.8 L 680.7 578.3 L 680.8 579.5 L 681.1 580.1 L 681.2 580.9 L 680.6 580.9 L 681.4 583.2 L 685.1 583.3 L 684.8 584.5 L 685.1 585.2 L 686.1 585.8 L 686.6 587 L 686.3 588.6 L 685.7 589.4 L 685.9 590.6 L 685.3 591 L 685.2 590.4 L 683.4 589.3 L 681.6 589.3 L 678.1 589.9 L 677.2 591.6 L 677.1 592.7 L 676.4 595 L 676.1 594.6 L 673.8 594.5 L 673 596.1 L 671.9 594.7 L 669.3 594.2 L 667.7 596 L 666.2 596.3 L 665.5 593.6 L 664.4 591.3 L 665 589.4 L 664 588.6 L 663.7 587.2 L 662.8 585.8 L 664 583.7 L 663.1 582.1 L 663.6 581.4 L 663.2 580.7 L 664 579.7 L 664.1 578 L 664.2 576.6 L 664.6 575.9 L 662.9 572.8 Z" />
<path class="neighbor" d="M 662.2 559.6 L 660.4 559.6 L 660.1 559.8 L 658.5 560.2 L 656.2 561.6 L 656.1 562.5 L 655.6 563.2 L 655.8 564.2 L 654.6 564.8 L 654.6 565.6 L 654.1 566 L 654.9 567.8 L 656 569 L 655.6 569.8 L 656.9 569.9 L 657.6 571 L 659.4 571 L 661 569.9 L 660.9 572.9 L 661.8 573.1 L 662.9 572.8 L 664.6 575.9 L 664.2 576.6 L 664.1 578 L 664 579.7 L 663.2 580.7 L 663.6 581.4 L 663.1 582.1 L 664 583.7 L 662.8 585.8 L 662.2 586.9 L 661.2 587.4 L 659.2 586.2 L 659.1 585.4 L 655.2 583.4 L 651.6 581.3 L 650.1 580.1 L 649.3 578.4 L 649.6 577.9 L 647.9 575.3 L 646 571.6 L 644.1 567.7 L 643.3 566.8 L 642.7 565.4 L 641.2 564.1 L 639.8 563.3 L 640.4 562.4 L 639.4 560.5 L 640.1 559.1 L 641.6 557.9 L 641.9 558.7 L 641.3 559.2 L 641.4 559.9 L 642.2 559.7 L 643 560 L 643.8 560.9 L 644.9 560.1 L 645.3 558.8 L 646.5 557.1 L 648.9 556.3 L 651 554.2 L 651.6 553 L 651.3 551.5 L 651.9 551.3 L 653.2 552.2 L 653.8 553.1 L 654.7 553.7 L 655.9 555.7 L 657.4 556 L 658.4 555.4 L 659.2 555.8 L 660.3 555.6 L 661.9 556.5 L 660.6 558.5 L 661.2 558.6 L 662.2 559.6 Z" />
<path class="neighbor" d="M 861.5 595.1 L 860.5 594.9 L 859.8 595.1 L 858.8 594.8 L 858 594.7 L 856.8 593.8 L 855.3 593.5 L 854.7 592.3 L 854.7 591.6 L 853.8 591.4 L 851.6 589.2 L 851 588.1 L 850.6 587.7 L 849.8 586.1 L 852 586.4 L 852.7 586.6 L 853.3 586.5 L 854.4 585.3 L 856.1 583.6 L 856.9 583.5 L 857.1 582.8 L 858.2 582 L 859.7 581.8 L 859.8 582.5 L 861.5 582.4 L 862.4 582.9 L 862.8 583.4 L 863.8 583.5 L 864.8 584.1 L 864.8 586.6 L 864.4 588 L 864.3 589.5 L 864.6 590.1 L 864.4 591.2 L 864.1 591.4 L 863.6 592.8 L 861.5 595.1 Z" />
<path class="neighbor" d="M 858 594.7 L 855.3 596.2 L 853.5 597.7 L 852.8 599 L 852.2 599.7 L 851.2 599.9 L 850.8 600.8 L 850.6 601.4 L 849.4 601.9 L 847.7 601.8 L 846.8 601.2 L 846 601 L 845 601.5 L 844.5 602.4 L 843.6 603 L 842.6 603.9 L 841.2 604.1 L 840.8 603.4 L 840.9 602.2 L 839.8 600.3 L 839.2 600 L 839.2 594.3 L 841.2 594.2 L 841.2 587.2 L 842.7 587.1 L 845.7 586.4 L 846.5 587.2 L 847.8 586.4 L 848.4 586.4 L 849.5 586 L 849.8 586.1 L 850.6 587.7 L 851 588.1 L 851.6 589.2 L 853.8 591.4 L 854.7 591.6 L 854.7 592.3 L 855.3 593.5 L 856.8 593.8 L 858 594.7 Z" />
<path class="neighbor" d="M 839.2 600 L 839.2 607.3 L 837.5 608.3 L 836.4 608.5 L 835.2 608.1 L 834.3 607.9 L 834 607.1 L 833.2 606.6 L 832.2 607.5 L 830.8 606 L 830 604.6 L 829.6 602.7 L 829.1 601.2 L 828.4 598.2 L 828.4 595.9 L 828.1 594.8 L 827.4 594 L 826.3 592.3 L 825.3 590 L 824.9 588.7 L 823.3 586.8 L 823.1 585.3 L 824.1 584.9 L 825.3 584.6 L 826.6 584.6 L 827.7 585.5 L 828 585.4 L 836 585.3 L 837.4 586.3 L 842.2 586.5 L 845.8 585.7 L 847.4 585.3 L 848.7 585.4 L 849.5 585.8 L 849.5 586 L 848.4 586.4 L 847.8 586.4 L 846.5 587.2 L 845.7 586.4 L 842.7 587.1 L 841.2 587.2 L 841.2 594.2 L 839.2 594.3 L 839.2 600 Z" />
<path class="neighbor" d="M 860.6 567.6 L 861.5 568.1 L 862.2 568.4 L 863.5 568.8 L 864.6 569.4 L 865.5 570.3 L 866 571.9 L 865.7 572.5 L 865.3 574.1 L 865.7 575.7 L 865.1 576.4 L 864.5 578.2 L 865.5 578.7 L 859.5 580.3 L 859.7 581.8 L 858.2 582 L 857.1 582.8 L 856.9 583.5 L 856.1 583.6 L 854.4 585.3 L 853.3 586.5 L 852.7 586.6 L 852 586.4 L 849.8 586.1 L 849.5 586 L 849.5 585.8 L 848.7 585.4 L 847.4 585.3 L 845.8 585.7 L 844.5 584.5 L 843.2 582.9 L 843.3 576.6 L 847.4 576.6 L 847.2 576 L 847.5 575.2 L 847.1 574.3 L 847.4 573.3 L 847.2 572.7 L 847.8 572.8 L 848 573.4 L 848.9 573.3 L 850.1 573.5 L 850.8 574.4 L 852.4 574.7 L 853.6 574.1 L 854 575.1 L 855.5 575.4 L 856.3 576.2 L 857.1 577.3 L 858.6 577.3 L 858.4 575.2 L 857.9 575.5 L 856.5 574.8 L 856 574.4 L 856.2 572.4 L 856.6 570.1 L 856.1 569.2 L 856.7 568 L 857.2 567.7 L 859.8 567.4 L 860.6 567.6 Z" />
<path class="neighbor" d="M 864.6 569.4 L 866.5 569.7 L 866.9 570.3 L 867.6 571.2 L 868.2 573.9 L 867.6 575.4 L 868.2 578 L 868.8 577.9 L 869.6 578.6 L 870.4 580 L 870.6 582.5 L 869.7 582.9 L 869.1 584.3 L 867.8 583.1 L 867.7 581.7 L 868.1 580.8 L 868 580 L 867.2 579.5 L 866.6 579.7 L 865.5 578.7 L 864.5 578.2 L 865.1 576.4 L 865.7 575.7 L 865.3 574.1 L 865.7 572.5 L 866 571.9 L 865.5 570.3 L 864.6 569.4 Z" />
<path class="neighbor" d="M 868.2 573.9 L 869.6 573.7 L 872 574.3 L 872.5 574 L 873.9 574 L 874.6 573.4 L 875.8 573.4 L 877.9 572.7 L 879.5 571.5 L 879.5 571.5 L 879.5 571.5 L 879.8 572.4 L 879.8 574.4 L 880 576.1 L 880.1 579.2 L 880.4 580.1 L 879.8 581.6 L 879.1 582.9 L 877.8 584.1 L 876 584.9 L 873.8 585.9 L 871.6 588 L 870.8 588.3 L 869.4 589.7 L 868.6 590.2 L 868.4 591.6 L 869.4 593.1 L 869.8 594.2 L 869.8 594.8 L 870.1 594.7 L 870.1 596.7 L 869.8 597.6 L 870.2 597.9 L 869.9 598.7 L 869.1 599.4 L 867.5 600.1 L 865.1 601.2 L 864.2 601.9 L 864.4 602.7 L 864.9 602.9 L 864.7 603.9 L 863.3 603.9 L 863.1 603 L 862.8 602.1 L 862.6 601.4 L 863 599.2 L 862.5 597.8 L 861.5 595.1 L 863.6 592.8 L 864.1 591.4 L 864.4 591.2 L 864.6 590.1 L 864.3 589.5 L 864.4 588 L 864.8 586.6 L 864.8 584.1 L 863.8 583.5 L 862.8 583.4 L 862.4 582.9 L 861.5 582.4 L 859.8 582.5 L 859.7 581.8 L 859.5 580.3 L 865.5 578.7 L 866.6 579.7 L 867.2 579.5 L 868 580 L 868.1 580.8 L 867.7 581.7 L 867.8 583.1 L 869.1 584.3 L 869.7 582.9 L 870.6 582.5 L 870.4 580 L 869.6 578.6 L 868.8 577.9 L 868.2 578 L 867.6 575.4 L 868.2 573.9 Z" />
<path class="neighbor" d="M 825.6 560.6 L 824.9 561 L 824.6 561.5 L 824.5 562.4 L 824 562.6 L 823.5 561.1 L 824.3 560.3 L 824.9 559.9 L 825.6 560.6 Z M 824.3 563.2 L 825.1 562.9 L 825.7 563 L 826.4 562.7 L 832.2 562.8 L 832.7 564.2 L 833.3 565.4 L 833.7 566 L 834.5 567.1 L 835.8 566.9 L 836.4 566.6 L 837.5 566.9 L 837.8 566.4 L 838.3 565.3 L 839.5 565.2 L 839.6 564.9 L 840.6 564.9 L 840.5 565.6 L 842.9 565.5 L 842.9 566.8 L 843.3 567.5 L 843 568.7 L 843.1 570 L 843.8 570.7 L 843.7 573 L 844.2 572.8 L 845 572.9 L 846.3 572.6 L 847.2 572.7 L 847.4 573.3 L 847.1 574.3 L 847.5 575.2 L 847.2 576 L 847.4 576.6 L 843.3 576.6 L 843.2 582.9 L 844.5 584.5 L 845.8 585.7 L 842.2 586.5 L 837.4 586.3 L 836 585.3 L 828 585.4 L 827.7 585.5 L 826.6 584.6 L 825.3 584.6 L 824.1 584.9 L 823.1 585.3 L 823 584.1 L 823.2 582.3 L 823.9 580.5 L 824 579.7 L 824.7 577.9 L 825.1 577.1 L 826.3 575.8 L 826.9 574.9 L 827.1 573.4 L 827 572.3 L 826.4 571.6 L 825.9 570.4 L 825.4 569.2 L 825.5 568.8 L 826.1 568.1 L 825.5 566.1 L 825.1 564.8 L 824.1 563.6 L 824.3 563.2 Z" />
<path class="neighbor" d="M 897.7 575.8 L 898.2 576.6 L 898.7 577.9 L 899 580.3 L 899.6 581.2 L 899.4 582.1 L 899 582.7 L 898.3 581.6 L 898 582.2 L 898.3 583.6 L 898.2 584.4 L 897.6 584.9 L 897.5 586.6 L 896.7 588.9 L 895.7 591.6 L 894.5 595.3 L 893.8 598.1 L 892.9 600.4 L 891.3 600.8 L 889.6 601.7 L 888.4 601.2 L 886.9 600.5 L 886.3 599.4 L 886.2 597.7 L 885.5 596.1 L 885.3 594.7 L 885.7 593.2 L 886.6 592.9 L 886.6 592.2 L 887.5 590.8 L 887.7 589.5 L 887.2 588.6 L 886.9 587.3 L 886.7 585.5 L 887.4 584.4 L 887.7 583.1 L 888.6 583.1 L 889.7 582.7 L 890.5 582.3 L 891.3 582.3 L 892.5 581.2 L 894.1 580 L 894.7 579 L 894.4 578.1 L 895.2 578.4 L 896.3 577 L 896.4 575.8 L 897 574.9 L 897.7 575.8 Z" />
<path class="neighbor" d="M 1129.8 582.5 L 1131 583.6 L 1130.4 583.9 L 1129.7 583 L 1129.8 582.5 Z M 1129 582.1 L 1128.7 581.5 L 1128.6 580 L 1129.6 580.6 L 1129.9 582.2 L 1129.4 582 L 1129 582.1 Z" />
<path class="neighbor" d="M 1091.3 631.7 L 1092.5 631.8 L 1092.6 634.1 L 1091.9 634.8 L 1091.7 636.4 L 1091 635.9 L 1089.7 637.2 L 1089.3 637.1 L 1088 637.1 L 1086.8 635.4 L 1086.6 634.1 L 1085.4 632.3 L 1085.5 631.4 L 1086.8 631.6 L 1088.7 632.3 L 1089.7 632 L 1091.3 631.7 Z M 1048.8 614.7 L 1046.7 615.7 L 1045 616.2 L 1044.6 617.2 L 1043.9 618 L 1042.2 618.1 L 1041 618.2 L 1039.2 617.9 L 1037.8 618.1 L 1036.5 618.2 L 1035.3 619.2 L 1034.7 619.1 L 1033.7 619.7 L 1032.8 620.3 L 1031.3 620.2 L 1030 620.2 L 1027.9 619 L 1026.9 618.6 L 1026.9 617.5 L 1027.9 617.2 L 1028.2 616.8 L 1028.1 616.1 L 1028.4 614.7 L 1028.2 613.5 L 1027.1 611.5 L 1026.8 610.4 L 1026.9 609.3 L 1026.1 608 L 1026 607.4 L 1025.2 606.6 L 1024.9 605.1 L 1023.8 603.5 L 1023.5 602.7 L 1024.4 603.5 L 1023.7 601.7 L 1024.7 602.3 L 1025.3 603 L 1025.3 602 L 1024.3 600.5 L 1024.1 599.8 L 1023.6 599.3 L 1023.9 598.1 L 1024.3 597.6 L 1024.5 596.6 L 1024.3 595.5 L 1025.1 594.1 L 1025.3 595.6 L 1026.1 594.2 L 1027.7 593.6 L 1028.7 592.7 L 1030.2 592 L 1031.1 591.8 L 1031.6 592.1 L 1033.2 591.4 L 1034.4 591.1 L 1034.7 590.7 L 1035.2 590.5 L 1036.3 590.6 L 1038.4 590 L 1039.4 589.1 L 1039.9 588.1 L 1041.1 587.1 L 1041.2 586.3 L 1041.2 585.2 L 1042.6 583.5 L 1043.4 585.2 L 1044.3 584.8 L 1043.6 583.9 L 1044.2 582.9 L 1045.1 583.4 L 1045.3 581.9 L 1046.4 580.9 L 1046.9 580.1 L 1047.8 579.8 L 1047.9 579.2 L 1048.7 579.5 L 1048.8 579 L 1049.6 578.7 L 1050.6 578.4 L 1052.1 579.3 L 1053.2 580.5 L 1054.4 580.5 L 1055.6 580.7 L 1055.2 579.6 L 1056.2 578 L 1057.1 577.5 L 1056.8 577 L 1057.6 575.9 L 1058.8 575.2 L 1059.8 575.4 L 1061.5 575.1 L 1061.4 574.1 L 1060 573.4 L 1061 573.1 L 1062.3 573.6 L 1063.4 574.4 L 1065.1 574.9 L 1065.6 574.7 L 1066.8 575.3 L 1068 574.8 L 1068.7 574.9 L 1069.2 574.6 L 1070.1 575.5 L 1069.6 576.6 L 1068.8 577.4 L 1068.1 577.4 L 1068.4 578.2 L 1067.8 579.2 L 1067.1 580.2 L 1067.2 580.7 L 1068.8 581.8 L 1070.3 582.5 L 1071.3 583.1 L 1072.8 584.3 L 1073.3 584.3 L 1074.4 584.8 L 1074.7 585.4 L 1076.5 586.1 L 1077.8 585.4 L 1078.2 584.4 L 1078.6 583.5 L 1078.9 582.4 L 1079.5 580.8 L 1079.2 579.9 L 1079.3 579.3 L 1079.1 578.2 L 1079.4 576.7 L 1079.7 576.3 L 1079.4 575.6 L 1079.9 574.6 L 1080.3 573.5 L 1080.3 572.9 L 1081.1 572.2 L 1081.6 573.2 L 1081.8 574.4 L 1082.3 574.6 L 1082.3 575.5 L 1083.1 576.5 L 1083.2 577.6 L 1083.1 578.3 L 1083.8 579.9 L 1085.1 579.1 L 1085.8 580 L 1086.7 580.7 L 1086.5 581.6 L 1086.9 583.3 L 1087.2 584.3 L 1087.7 584.5 L 1088.3 586.2 L 1088.1 587.2 L 1088.7 588.6 L 1090.8 589.6 L 1092.2 590.5 L 1093.6 591.4 L 1093.3 591.9 L 1094.4 593.1 L 1095.2 595.2 L 1096 594.8 L 1096.8 595.7 L 1097.3 595.4 L 1097.6 597.4 L 1099 598.7 L 1099.9 599.4 L 1101.5 601 L 1102 602.6 L 1102.1 603.7 L 1101.9 604.9 L 1102.9 606.6 L 1102.8 608.4 L 1102.4 609.3 L 1101.9 611 L 1101.9 612.2 L 1101.5 613.6 L 1100.7 615.4 L 1099.2 616.3 L 1098.5 617.9 L 1097.8 618.8 L 1097.2 620.5 L 1096.5 621.5 L 1096 623 L 1095.7 624.4 L 1095.8 625 L 1094.7 625.7 L 1092.5 625.7 L 1090.7 626.5 L 1089.8 627.3 L 1088.6 628.2 L 1086.9 627.3 L 1085.7 626.9 L 1086 625.9 L 1085 626.3 L 1083.2 627.7 L 1081.5 627.2 L 1080.4 626.9 L 1079.3 626.7 L 1077.4 626.2 L 1076.1 624.9 L 1075.7 623.4 L 1075.3 622.4 L 1074.3 621.6 L 1072.4 621.4 L 1073.1 620.4 L 1072.6 619 L 1071.6 620.3 L 1069.9 620.7 L 1070.9 619.6 L 1071.2 618.5 L 1071.9 617.5 L 1071.8 616.1 L 1070.2 617.7 L 1069 618.4 L 1068.2 620 L 1066.7 619.2 L 1066.7 618.1 L 1065.5 616.7 L 1064.4 616 L 1064.8 615.5 L 1062.3 614.3 L 1060.9 614.2 L 1059 613.3 L 1055.5 613.5 L 1052.9 614.2 L 1050.7 614.8 L 1048.8 614.7 Z" />
<path class="neighbor" d="M 685.3 591 L 685.9 592.1 L 685.7 594.7 L 687.8 595.1 L 688.6 594.7 L 690 595.3 L 690.3 595.8 L 690.5 597.7 L 690.7 598.4 L 691.5 598.5 L 692.2 598.2 L 692.9 598.5 L 692.9 599.6 L 692.7 600.8 L 692.3 601.9 L 691.9 603.7 L 690.2 605.2 L 688.6 605.5 L 686.4 605.2 L 684.4 604.7 L 686.3 601.7 L 686.1 600.8 L 684 600 L 681.6 598.6 L 680 598.3 L 676.4 595 L 677.1 592.7 L 677.2 591.6 L 678.1 589.9 L 681.6 589.3 L 683.4 589.3 L 685.2 590.4 L 685.3 591 Z" />
<path class="lake" d="M 663.2 583.2 L 663.1 583.1 L 663.1 583.1 L 663 583.1 L 663 583 L 663 582.9 L 663.1 582.8 L 663 582.8 L 663 582.7 L 662.8 582.7 L 662.7 582.7 L 662.6 582.6 L 662.6 582.6 L 662.5 582.5 L 662.4 582.5 L 662.4 582.4 L 662.3 582.4 L 662.3 582.4 L 662.2 582.4 L 662.2 582.4 L 662.2 582.4 L 662.3 582.5 L 662.3 582.5 L 662.3 582.6 L 662.2 582.6 L 662.2 582.6 L 662.2 582.6 L 662.2 582.5 L 662.1 582.5 L 662 582.4 L 662 582.4 L 661.9 582.4 L 661.9 582.3 L 661.9 582.3 L 661.9 582.2 L 661.9 582.1 L 662 582.1 L 662 582 L 662.1 582 L 662.2 582.1 L 662.3 582.1 L 662.3 582.1 L 662.3 582 L 662.2 581.8 L 662.1 581.6 L 662.1 581.5 L 662.1 581.5 L 662.2 581.4 L 662.3 581.4 L 662.3 581.4 L 662.3 581.3 L 662.4 581.3 L 662.5 581.3 L 662.6 581.3 L 662.7 581.4 L 662.8 581.5 L 663 581.7 L 663.1 581.7 L 663.2 581.8 L 663.3 582 L 663.4 582 L 663.5 582.1 L 663.5 582.1 L 663.6 582.1 L 663.6 582.2 L 663.7 582.3 L 663.8 582.3 L 663.9 582.4 L 663.9 582.5 L 663.9 582.6 L 664.1 582.6 L 664.2 582.6 L 664.3 582.7 L 664.3 582.7 L 664.3 582.8 L 664.2 582.8 L 664.1 582.9 L 664.2 583 L 664.3 583.1 L 664.4 583.1 L 664.5 583.2 L 664.6 583.2 L 664.7 583.2 L 664.7 583.3 L 664.7 583.3 L 664.7 583.3 L 664.7 583.3 L 664.6 583.4 L 664.5 583.4 L 664.5 583.4 L 664.5 583.4 L 664.4 583.5 L 664.3 583.5 L 664.2 583.5 L 664.1 583.6 L 664.1 583.6 L 664.1 583.6 L 664.2 583.7 L 664.2 583.8 L 664.2 583.8 L 664.2 583.8 L 664.2 583.9 L 664.1 583.9 L 664 583.9 L 663.9 583.8 L 663.8 583.8 L 663.8 583.8 L 663.7 583.7 L 663.8 583.5 L 663.8 583.4 L 663.8 583.4 L 663.8 583.3 L 663.9 583.2 L 664 583.2 L 664.1 583.2 L 664.1 583.2 L 664.1 583.1 L 664 583.1 L 663.9 582.9 L 663.8 582.9 L 663.7 582.9 L 663.7 583 L 663.7 583.1 L 663.6 583.2 L 663.6 583.2 L 663.5 583.2 L 663.4 583.2 L 663.3 583.2 L 663.2 583.2 L 663.2 583.2 L 663.2 583.2 L 663.2 583.2 Z" />
<path class="lake" d="M 857.2 583.9 L 857.1 584 L 857.1 584 L 857.1 584.1 L 857 584.1 L 856.9 584.1 L 856.9 584.2 L 856.9 584.2 L 856.8 584.3 L 856.7 584.3 L 856.7 584.3 L 856.6 584.3 L 856.6 584.2 L 856.6 584.1 L 856.5 584.1 L 856.4 584.1 L 856.4 584.2 L 856.3 584.2 L 856.2 584.2 L 856.2 584.3 L 856.1 584.4 L 856.1 584.4 L 856.1 584.4 L 856 584.4 L 856 584.3 L 855.9 584.3 L 855.7 584.3 L 855.5 584.4 L 855.5 584.4 L 855.4 584.5 L 855.4 584.6 L 855.4 584.7 L 855.4 584.7 L 855.4 584.7 L 855.4 584.8 L 855.3 584.8 L 855.2 584.8 L 855.1 584.8 L 855.1 584.8 L 855.1 584.9 L 855 584.9 L 854.9 585 L 854.9 585 L 854.7 585 L 854.6 585.1 L 854.6 585.1 L 854.6 585.2 L 854.5 585.3 L 854.5 585.4 L 854.4 585.6 L 854.4 585.6 L 854.3 585.6 L 854.2 585.7 L 854.1 585.7 L 854.1 585.8 L 854.1 585.8 L 854.2 585.8 L 854.1 585.8 L 854.1 585.8 L 853.9 585.9 L 853.9 585.9 L 853.8 586 L 853.7 586.2 L 853.6 586.3 L 853.6 586.4 L 853.5 586.5 L 853.4 586.6 L 853.4 586.6 L 853.3 586.6 L 853.3 586.5 L 853.3 586.5 L 853.4 586.4 L 853.4 586.4 L 853.4 586.3 L 853.5 586.2 L 853.6 586.1 L 853.8 585.9 L 853.8 585.8 L 853.9 585.8 L 853.9 585.8 L 853.9 585.7 L 854 585.7 L 854 585.6 L 853.9 585.6 L 854 585.5 L 854.1 585.3 L 854.2 585.2 L 854.3 585 L 854.5 584.8 L 854.5 584.8 L 854.6 584.8 L 854.6 584.8 L 854.6 584.8 L 854.6 584.7 L 854.7 584.6 L 854.6 584.6 L 854.7 584.6 L 854.7 584.5 L 854.8 584.5 L 854.9 584.5 L 854.9 584.4 L 854.8 584.4 L 854.8 584.3 L 854.9 584.3 L 854.9 584.3 L 855 584.2 L 855 584.2 L 855.1 584.3 L 855.1 584.3 L 855.2 584.3 L 855.2 584.3 L 855.3 584.3 L 855.4 584.3 L 855.4 584.2 L 855.5 584.2 L 855.6 584.1 L 855.6 584.1 L 855.6 584 L 855.6 584 L 855.7 584 L 855.8 583.9 L 855.8 583.8 L 855.8 583.8 L 855.8 583.8 L 855.9 583.8 L 856 583.9 L 856 583.9 L 856.1 583.8 L 856.2 583.8 L 856.3 583.8 L 856.3 583.8 L 856.3 583.8 L 856.4 583.7 L 856.5 583.7 L 856.6 583.7 L 856.7 583.8 L 856.9 583.9 L 857 583.8 L 857.1 583.9 L 857.1 583.9 L 857.2 583.9 L 857.2 583.9 L 857.2 583.9 L 857.2 583.9 Z" />
<path class="lake" d="M 1054.5 583 L 1054.4 583 L 1054.4 583.1 L 1054.4 583.2 L 1054.3 583.3 L 1054.3 583.3 L 1054.3 583.4 L 1054.3 583.4 L 1054.3 583.5 L 1054.2 583.5 L 1054.2 583.6 L 1054.2 583.6 L 1054.1 583.6 L 1054.1 583.6 L 1054.1 583.6 L 1054 583.6 L 1054 583.7 L 1054 583.8 L 1054 583.9 L 1054 584 L 1054 584.1 L 1053.9 584.3 L 1053.9 584.3 L 1053.9 584.2 L 1053.8 584.1 L 1053.8 584.1 L 1053.7 584 L 1053.7 584 L 1053.6 584 L 1053.6 583.9 L 1053.6 583.9 L 1053.6 583.9 L 1053.6 583.8 L 1053.5 583.8 L 1053.5 583.7 L 1053.6 583.6 L 1053.7 583.3 L 1053.7 583.2 L 1053.7 583.2 L 1053.8 583.2 L 1053.8 583.1 L 1053.7 583 L 1053.7 583 L 1053.8 583 L 1053.9 583 L 1054 582.9 L 1054 582.9 L 1054 582.9 L 1054 583 L 1054 583 L 1054 583.1 L 1054 583.1 L 1054.1 583 L 1054.2 583 L 1054.3 583 L 1054.4 583 L 1054.5 583 L 1054.5 583 L 1054.5 583 L 1054.5 583 L 1054.5 583 Z" />
<path class="lake" d="M 711.3 588.2 L 711.3 588.2 L 711.3 588.2 L 711.3 588.2 L 711.4 588.2 L 711.4 588.3 L 711.4 588.3 L 711.4 588.4 L 711.3 588.3 L 711.2 588.3 L 711 588.3 L 711 588.3 L 711 588.4 L 711.1 588.6 L 711.1 588.7 L 711 588.7 L 710.9 588.5 L 710.9 588.6 L 710.8 588.6 L 710.6 588.6 L 710.5 588.7 L 710.5 588.5 L 710.5 588.5 L 710.8 588.5 L 710.8 588.4 L 710.9 588.3 L 710.8 588.2 L 710.8 588.2 L 710.8 588.3 L 710.7 588.3 L 710.6 588.3 L 710.6 588.2 L 710.7 588.2 L 710.7 588 L 710.7 587.9 L 710.7 587.9 L 710.5 588 L 710.5 587.9 L 710.6 587.9 L 710.6 587.9 L 710.7 587.7 L 710.6 587.7 L 710.5 587.6 L 710.5 587.7 L 710.4 587.8 L 710.3 587.8 L 710.2 587.8 L 710.3 587.7 L 710.3 587.6 L 710.4 587.5 L 710.5 587.4 L 710.6 587.4 L 710.6 587.3 L 710.6 587.2 L 710.5 587.2 L 710.5 587.1 L 710.7 587.1 L 710.7 587.1 L 710.8 587.1 L 710.8 587.3 L 710.7 587.5 L 710.7 587.6 L 710.8 587.6 L 710.9 587.7 L 710.9 587.8 L 710.9 587.9 L 711 587.8 L 711 587.9 L 711 587.9 L 710.9 588 L 711 588.1 L 711.1 588.2 L 711.2 588.2 L 711.2 588.1 L 711.2 588.1 L 711.3 588.2 L 711.3 588.2 Z" />
<path class="country" d="M 1155 582.9 L 1155 583.8 L 1153.7 584.3 L 1152.5 584.7 L 1152.2 584 L 1153.2 583.6 L 1153.8 583.5 L 1155 582.9 Z M 1151.3 585.7 L 1151.8 585.4 L 1152.5 585.9 L 1152.1 587 L 1150.9 587.2 L 1149.8 587 L 1149.6 586.1 L 1150.4 585.4 L 1151.3 585.7 Z M 445.4 582.8 L 445.2 583.7 L 445 583.8 L 445 582.9 L 445.4 582.8 Z" />

<path class="river" d="M 1053.9 583 L 1053.8 583.6 L 1053.9 583.9 L 1053.9 584 L 1053.9 584.1 L 1053.9 584.3" />
<path class="river" d="M 700.4 588.7 L 700.4 588.5 L 700.5 588.4 L 700.7 588.2 L 700.9 588 L 701.2 587.9 L 701.5 587.9 L 701.8 587.9 M 704.9 587.3 L 703.5 587.3 L 703.1 587.4 M 706.4 587 L 705.8 587.4 L 705.5 587.5 L 705.3 587.5" />
<path class="river" d="M 711.1 588.7 L 710.9 588.2 L 710.9 587.8 L 710.8 587.7 L 710.6 587.6 L 710.6 587.4 L 710.7 587.1 M 714.9 573.1 L 715.1 572.8 L 715.3 572.6 L 715.6 572.4 L 715.9 572.1 L 716.2 571.7 L 716.3 571.4 L 716.3 571.2 L 716.4 571.1 L 716.6 570.9 L 716.8 570.7 L 716.9 570.4 L 717.3 570.3 L 718 570.3 L 718.5 570.3 L 718.6 570.2 L 718.8 570 L 718.9 569.8 L 719.1 569.7 L 719.5 569.8" />
<path class="river" d="M 853.3 586.6 L 853.5 586.4 L 853.8 586 L 854.1 585.7 L 854.5 585.2 L 854.7 584.8 L 855.1 584.5 L 855.5 584.2 L 856 584 L 856.7 583.8 M 864.5 581.9 L 864.1 581.9 L 863.8 581.9 L 863.5 582 L 863 582.1 L 862.3 582 L 861.8 582.1 L 861.6 582.1 L 861.3 582.1 L 860.7 582" />
<path class="river" d="M 695.2 586.4 L 695.1 585.5 L 695.1 585.3 L 695.2 585.1 L 695.3 584.9 L 695.4 584.7 L 695.4 584.5 L 695.6 584.3 L 695.9 584.1 L 696.1 583.9 L 696.2 583.6 L 696.4 583.4 L 696.5 583.3 L 696.6 583.2 L 696.6 583 L 696.6 582.9 L 696.7 582.8 L 696.8 582.7 L 696.9 582.6 L 697.2 582.5 L 697.5 582.4 L 697.7 582.2 L 697.8 582 L 697.9 581.9 L 697.9 581.8 L 697.9 581.8 L 698 581.7 L 698 581.5 L 698.1 581.3 L 698.3 581 L 698.5 580.8 L 698.7 580.8 L 698.9 580.8 L 698.9 580.8 L 699 580.7 L 699.2 580.4 L 699.5 579.7 L 699.5 579.2 L 699.6 579 L 699.7 579 L 699.7 578.8 L 699.7 578.4 L 699.8 578 L 700.1 577.6 L 700.2 577.3 L 700.2 577.1 L 700.3 576.8 L 700.4 576.5 L 700.3 576.5 L 700.2 576.3 L 700.1 576.1 L 700.1 575.9 L 700.1 575.7 L 700.1 575.4 L 700.1 575.1 L 700.1 574.8 L 700.1 574.7 L 700.1 574.5 L 700 574.3 L 700.1 574.1 L 700.1 574 L 700 573.8 L 700 573.5 L 700.1 573.2 L 700.2 572.9 L 700.2 572.4 L 700.2 572.3 L 700.3 572 L 700.5 571.7 L 700.6 571.4 L 700.6 571.2 L 700.7 571 L 701 570.4 L 701.2 569.7 L 701.4 569.4 L 701.7 569 L 702 568.7 L 702.2 568.6 L 702.4 568.3 L 702.6 567.9 L 702.8 567.5 L 702.9 567.2 L 703 566.9 L 703 566.7 L 702.9 566.5 L 702.7 566.3 L 702.7 566 L 702.9 565.6 L 703 565.3 L 702.9 565 L 703.2 564.7 L 703.7 564.4 L 704 564.2 L 704.1 564 L 704.2 563.8 L 704.3 563.7 L 704.4 563.7 L 704.5 563.7 L 704.6 563.6 L 704.5 563.4 L 704.6 563.3 L 704.7 563.2 L 704.7 563.1 L 704.7 563 L 704.7 562.9 L 704.8 562.9 L 704.8 562.8 L 704.8 562.6 L 704.8 562.5 L 705 562.4 L 705 562.3 L 705 562.1 L 704.9 562.1 L 704.8 562.1 L 704.7 562 L 704.6 561.9 L 704.5 561.8 L 704.3 561.8 L 704.2 561.8 L 703.9 561.7 L 703.5 561.6" />
<path class="river" d="M 671.9 627.7 L 672.6 627.8 L 673 627.8 L 673.3 627.9 L 673.8 628.2 L 674.4 628.5 L 674.8 628.7 L 675.1 628.7 L 675.3 628.8 L 675.6 629 L 675.9 629.1 L 676.3 629.1 L 676.7 629.3 L 677.1 629.7 L 677.2 629.8 L 677.2 629.8 M 661.3 620.8 L 661.5 621.4 L 661.6 621.6 L 661.8 621.8 L 662.2 621.9 L 662.4 622.1 L 662.5 622.4 L 662.6 622.7 L 662.6 622.8 L 662.5 623 L 662.6 623.2 L 662.5 623.3 L 662.4 623.5 L 662.4 623.7 L 662.3 624 L 662.3 624.2 L 662.4 624.3 L 662.5 624.3 L 662.7 624.4 L 663 624.5 L 663.5 624.5 L 663.8 624.6 L 663.9 624.8 L 664.2 624.9 L 664.6 625 L 664.9 625.1 L 665 625.2 L 665.4 625.2 L 666 625.3 L 666.3 625.4 L 666.4 625.6 L 666.4 625.8 L 666.2 625.9 L 666.2 626.1 L 666.2 626.2 L 666.2 626.2 L 666.4 626.2 L 666.5 626.4 L 666.7 626.5 L 667 626.6 L 667.3 626.6 L 667.6 626.6 L 667.7 626.8 L 667.9 627 L 668.3 627.1 L 668.5 627.2 L 668.6 627.3 L 668.7 627.4 L 668.8 627.5 L 669 627.5 L 669.7 627.6 L 670 627.6 L 670.3 627.7 L 670.5 627.7 L 670.6 627.7 L 670.8 627.7 L 671 627.7 L 671.3 627.7 L 671.8 627.7 M 573.7 486.6 L 573.6 486.9 L 573.5 487.1 L 573.4 487.1 L 573.3 487.2 L 573.1 487.5 L 573 487.6 L 572.9 487.7 L 572.8 487.8 L 572.8 487.9 L 572.8 488 L 572.9 488 L 572.9 488 L 572.9 488.1 L 573 488.1 L 573.1 488.1 L 573.2 488.2 L 573.2 488.2 L 573.3 488.3 M 574.8 483.6 L 574.5 483.8 L 574.3 484 L 574.2 484.3 L 574.2 484.5 L 574.2 484.7 L 574.1 484.9 L 574.1 485 L 574 485.2 L 573.9 485.2 L 573.8 485.3 L 573.7 485.4 L 573.8 485.7 L 573.9 485.9 L 574.1 486 L 574.2 486.1 L 574.2 486.3 L 574.2 486.4 L 574.1 486.5 L 574 486.6 L 573.7 486.6 M 574 481.4 L 574 482.1 L 574 482.3 L 574.1 482.5 L 574.4 482.9 L 574.4 483 M 573.7 480.1 L 573.7 480.2 L 573.8 480.3 L 573.8 480.5 L 573.8 480.7 L 573.9 480.8 L 573.9 480.9 M 577.4 479.6 L 576.7 479.9 L 576.6 480.1 L 576.5 480.2 L 576.5 480.5 L 576.4 480.6 L 576.3 480.6 L 576 480.6 L 575.9 480.5 M 580.1 478.3 L 579.9 478.5 L 579.7 478.7 L 579.5 479 L 579.4 479.2 L 579.4 479.4 L 579.4 479.5 L 579.5 479.8 L 579.4 479.9 L 579.3 480 L 579.1 480 L 578.8 480 L 578.6 479.9 L 578.5 479.7 L 578.4 479.7 L 578.3 479.7 L 578.2 479.7 L 578.1 479.7 L 578.1 479.6 L 578.2 479.5 L 578.2 479.4 L 578.1 479.4 L 578.1 479.4 L 577.9 479.4 L 577.7 479.4 L 577.4 479.6 M 591.2 472 L 591 472 L 590.7 472.1 L 590.4 472.1 L 590.2 472.2 L 590 472.2 L 589.8 472.4 L 589.7 472.5 L 589.6 472.5 L 589.5 472.4 L 589.4 472.4 L 589.2 472.5 L 589 472.6 L 588.8 472.9 L 588.7 473 L 588.5 473.1 L 587.9 473.1 L 587.5 473.1 L 587.3 473.2 L 587.1 473.2 L 586.8 473.4 L 586.5 473.6 L 586.4 473.9 L 586.1 474.1 L 585.9 474.1 L 585.4 473.9 L 585.3 473.9 L 585.1 473.9 L 584.9 474 L 584.6 474.2 L 584.5 474.4 L 584.4 474.6 L 584.3 474.8 L 584.2 474.8 L 584 474.9 L 583.9 475.1 L 583.9 475.1 L 583.8 475.1 L 583.8 475.1 L 583.7 475.3 L 583.7 475.3 L 583.6 475.3 L 583.6 475.4 L 583.6 475.5 L 583.5 475.7 L 583.3 475.9 L 582.8 476.3 L 582.6 476.4 L 582.3 476.4 M 591.2 471.5 L 591.3 471.9 L 591.3 471.9" />
<path class="river" d="M 831.8 576.1 L 831.9 576.1 L 832 576.1 L 832.1 576.3 L 832.2 576.5 L 832.3 576.8 L 832.4 577.7 L 832.4 578.2 L 832.2 578.7 L 832.1 579.2 L 832.1 579.5 L 832.1 579.8 L 832.3 579.9 L 832.4 580 L 832.7 580.2 L 832.8 580.4 L 832.9 580.8 L 833 581.1 L 833.2 581.4 L 833.4 581.5 L 833.5 581.6 L 833.8 581.7 L 834.1 581.8 L 834.3 581.8 L 834.3 582 L 834.4 582.2 L 834.7 582.4 L 834.8 582.8 L 834.9 583.1 L 835 583.5 L 835.3 584 L 835.7 584.6 L 836.7 585.8 L 836.9 586.1 L 837.1 586.2 L 837.4 586.3 L 837.6 586.3 L 837.8 586.3 L 838.2 586.3 L 838.7 586.4 L 839.3 586.4 L 839.8 586.4 L 840.2 586.4 L 840.4 586.6 L 840.7 586.7 L 840.9 586.7 L 841.2 586.7 L 841.6 586.6 L 842 586.6 L 842.4 586.8" />
<path class="river" d="M 692.3 580.7 L 692.8 580.5 L 693 580.4 L 693.1 580.3 L 693.2 580.3 L 693.4 580.3 L 693.6 580.3 L 693.7 580.3 L 694.2 579.9 L 694.5 579.5 L 694.7 578.7 L 694.9 578.3 L 695.1 578.1 L 695.2 578 L 695.2 577.9 L 695.3 577.5 L 695.6 576.8 L 695.7 576.4 L 695.6 576.2 L 695.5 576.1 L 695.6 576 L 695.5 575.9 L 695.2 575.5 L 695.1 575.4 L 694.9 575.3 L 694.8 575.2 L 694.7 574.9 L 694.6 574.8 L 694.4 574.7 L 694.3 574.5 L 694.3 574.3 L 694.4 574.1 L 694.6 573.7" />
<path class="river" d="M 1050.8 585.5 L 1050.5 585.6 L 1050.3 585.6 L 1050 585.6 L 1049.3 585.6 L 1049 585.6 L 1048.8 585.8 L 1048.7 585.8 L 1048.7 585.9 L 1048.7 585.9 L 1048.6 586 L 1048.5 586.1 L 1048.3 586.3 L 1048.1 586.6 L 1047.5 587.2 L 1046.8 587.6 L 1046.4 587.6 L 1046 587.6 L 1045.7 587.4 L 1045.5 587 L 1045.2 586.8 L 1045.1 586.8 L 1044.9 586.8 L 1044.7 586.9 L 1044.6 586.9 L 1044.4 586.8 L 1044.2 586.6 L 1044 586.3 L 1043.8 586.1 L 1043.7 586.1 L 1043.7 586 L 1043.7 585.9 L 1043.7 585.7" />
<path class="river" d="M 712.3 594.9 L 712.6 594.6 L 712.8 594.5 L 713 594.2 L 713.1 594 L 713.1 593.9 L 713.1 593.9 L 713 593.9 L 713 593.8 L 712.9 593.6 L 712.7 593.5 L 712.5 593.5 M 712 593.2 L 711.9 593.1 L 711.8 593 L 711.6 593 L 711.5 592.9 L 711.4 592.8 L 711.3 592.8 L 711.2 592.9 L 711.1 592.9 L 711 592.9 L 710.9 592.9 L 710.8 592.8 M 708.6 591.9 L 708.1 591.8 M 707.2 591.2 L 706.7 590.8 L 706.5 590.7 L 706.4 590.6 L 706.3 590.6 L 706.1 590.6 L 706 590.7 L 705.9 590.6 L 705.8 590.6 L 705.7 590.6 L 705.6 590.6 L 705.6 590.7 L 705.5 590.8 L 705.4 590.8 L 705.2 590.8 L 705.1 590.8 L 705 590.8 L 704.8 590.8 L 704.6 590.9 L 703.9 590.9 L 703.7 590.9 L 703.6 591.1 L 703.6 591.3 L 703.5 591.5 L 703.5 591.4 L 703.4 591.3 L 703.4 591 L 703.3 591 L 703.1 591.1 L 703 591.2 L 703 591.2 L 702.9 591.1 L 702.8 590.9 L 702.8 590.8 L 702.9 590.6 L 702.8 590.6 L 702.6 590.6 M 700.7 590.3 L 700.5 590.2 L 700.4 590.2 L 700.2 590.3 M 674.3 588.7 L 674.5 588.8 L 674.6 588.7 L 674.7 588.6 L 674.8 588.5 L 674.9 588.5 L 675.1 588.3 L 675.4 588.2 L 675.6 587.9 L 675.9 587.5 L 676 587.1 L 676.2 586.3 L 676.2 585.9 L 676.2 585.6 L 676.3 585.4 L 676.3 585.2 L 676.2 585.1 L 676.1 585 L 675.9 584.9 L 675.7 584.8 L 675.6 584.5 L 675.2 584.2 L 674.6 583.9 L 674.2 583.6 L 674 583.4 L 673.8 583.2 L 673.6 583.1 L 673.5 583 L 673.4 582.9 L 673.2 582.8 L 672.5 582.4 M 669.2 585.8 L 669.8 586.4 L 669.9 586.6 L 670 586.6 L 670.1 586.6 L 670.2 586.7 L 670.5 586.9 L 671 587.4 L 671.2 587.6 L 671.3 587.8 L 671.4 587.9 L 671.6 587.9 L 671.7 587.9 L 671.8 587.8 L 671.9 587.7 L 672.1 587.7 L 672.3 587.7 L 672.5 587.9 L 672.7 588 L 672.9 587.9 L 673.1 588 L 673.3 588.4 L 673.5 588.6 L 673.6 588.6 L 673.7 588.7 L 673.7 588.9 L 673.8 589 L 673.9 589 L 674 588.9 L 674 588.8 L 674.1 588.7 L 674.3 588.7" />
<path class="river" d="M 708.3 591.2 L 708.6 591.3 L 709.1 591.3 L 709.3 591.3 L 709.4 591.2 L 709.4 591.2 L 709.4 591.1 L 709.4 591.1 L 709.5 591 L 709.6 590.9 L 709.8 590.9 L 710 590.7 L 710.1 590.5 L 710.2 590.4 L 710.3 590.3 L 710.3 590.2 L 710.2 590.1 L 710.3 590 L 710.4 589.9 L 710.5 589.7 L 710.6 589.4 L 710.7 589.2 L 710.9 589.1 L 711 589 L 711.1 588.7" />
<path class="river" d="M 714.4 587.2 L 714.1 586.9 L 714.1 586.7 L 714.2 586.5 L 714.3 586.4 L 714.2 586.3 L 714.1 586.3 L 714 586.2 L 713.9 586 L 713.9 585.9 L 713.9 585.8 L 714.1 585.7 L 714.2 585.7 L 714.5 585.7 L 714.6 585.6 L 714.7 585.5 L 714.8 585.4 L 714.8 585.3 L 715 585.2 L 715.1 585.1 L 715.2 584.9 L 715.4 584.8 L 715.5 584.8 L 715.6 584.6 L 715.8 584.3 L 716.1 584.1 L 716.5 584 L 716.8 584 L 717.1 584.1 L 717.3 584.1 L 717.6 583.9 L 717.8 583.8 L 718.1 583.8 L 718.5 583.8 L 718.7 583.7 L 718.8 583.6 L 718.9 583.5 L 719.1 583.6 L 719.3 583.4 L 719.7 583.1 L 720.1 583 L 720.5 583 L 720.8 583 L 721 582.9 L 721.1 582.8 L 721.2 582.8 L 721.4 582.7 L 722.1 582.6 L 722.3 582.8 L 722.4 582.8 L 722.6 582.8 L 722.8 582.6 L 722.9 582.4 L 723 582.4 L 723.2 582.4 L 723.3 582.4" />
<path class="river" d="M 853.6 574.1 L 853.5 574.3 L 853.6 574.5 L 853.9 574.9 L 854 575.1 L 854.1 575.3 L 854.4 575.6 L 854.5 575.7 L 854.6 575.6 L 854.9 575.7 L 855.2 575.8 L 855.5 576 L 855.7 576.3 L 855.7 576.7 L 855.6 577.1 L 855.5 577.4 L 855.3 577.5 L 855.2 577.5 L 854.9 577.5 L 854.7 577.6 L 854.7 577.7 L 854.6 577.8 L 854.5 577.8 L 854.4 577.9 L 854.5 578.1 L 854.4 578.3 L 854.1 578.6 L 854 578.8 L 854.1 579 L 854.1 579.1 L 854 579.2 L 853.9 579.3 L 853.7 579.5 L 853.5 579.5 L 853.2 579.6 L 852.6 579.6 L 852.3 579.8 L 852 580.1 L 851.9 580.1 L 851.7 580 L 851.6 580.1 L 851.5 580.2 L 851.5 580.2 L 851.6 580.3 L 851.6 580.3 L 851.6 580.4 L 851.5 580.5 L 851.2 580.6 L 851.2 580.6 L 851.3 580.7 L 851.3 580.9 L 851.2 581 L 851.2 581.3 L 851.3 581.9 L 851.4 582.2 L 851.6 582.3 L 851.8 582.3 L 852.2 582.1 L 852.4 582.1 L 852.5 582.1 L 852.8 582.1 L 853.1 581.9 L 853.4 581.9 L 853.7 582.1 L 854 582.2 L 854.3 582.1 L 854.4 582.1 L 854.5 582.1 L 854.5 582.1 L 854.5 582.1 L 854.6 582 L 854.6 582 L 855 582.1 L 855.3 582.1 L 855.6 582.3 L 855.8 582.3 L 855.9 582.3 L 856.2 582.4 L 856.5 582.5 L 856.8 582.6 L 857.1 582.6" />
<path class="river" d="M 672.5 582.4 L 672.4 582.3 L 672.3 582.1 L 672.1 581.7 L 672 581.4 L 671.9 581.2 L 671.8 581.1 L 671.8 580.9 L 671.8 580.8 L 671.8 580.7 L 671.8 580.5 L 671.6 580.3 L 671.6 580.2 L 671.7 580.2 L 671.8 580 L 671.8 579.7 L 671.9 579.4 L 671.8 579.3 L 671.7 579.2 L 671.7 579.1 L 671.7 578.9 L 671.6 578.8 L 671.5 578.7 L 671.4 578.7 L 671.4 578.6 L 671.4 578.5 L 671.3 578.3 L 671.2 578.2 L 671.2 577.9 L 671.4 577.4 L 671.4 577.2 L 671.4 577.1 L 671.5 577 L 671.6 576.9 L 671.6 576.9 L 671.7 576.8 L 671.7 576.7 L 671.8 576.5 L 671.7 576.2 L 671.5 575.8 L 671.5 575.6 L 671.5 575.5 L 671.5 575.5 L 671.5 575.4 L 671.5 575.4 L 671.5 575.4 L 671.5 575.3 L 671.5 575.2 L 671.5 575.1 L 671.6 575.1 L 671.6 575 L 671.6 574.9 L 671.6 574.8 L 671.7 574.7 L 671.7 574.7" />
<path class="river" d="M 1083 583.7 L 1082.3 583.5 L 1081.5 582.9 L 1081.2 582.7 L 1080.9 582.7 L 1080.8 582.6 L 1080.6 582.5 L 1080.1 581.7 L 1079.8 581.4 L 1079.6 581.2 L 1079.2 581.1" />
<path class="river" d="M 665.9 628 L 666.4 628.2 L 666.7 628.2 L 667 628.2 L 667.2 628.3 L 667.5 628.3 L 667.9 628.3 L 668.4 628.3 L 668.8 628.3 L 669.1 628.3 L 669.4 628.4 L 669.7 628.5 L 670 628.6 L 670.3 628.6 L 670.6 628.7 L 670.8 629 L 670.9 629.3 L 671.1 629.5 L 671.3 629.7 L 671.7 629.8 L 672 629.9 L 672.2 630 L 672.3 630.1 L 672.6 630.2 L 672.8 630.2 L 673 630.2 L 673.4 630.4 L 674 630.8 L 674.3 631 L 674.4 631 L 674.6 631.1 L 675 631.5 L 675.4 631.5 L 675.7 631.7 L 676 631.9 L 676.1 632.1 M 661.3 547.1 L 662 547 L 662.6 546.9 L 662.9 546.8 L 663.1 546.7 L 663.4 546.7 L 663.8 546.8 L 664.1 546.8 L 664.3 546.8 L 664.5 546.7 L 664.7 546.5 L 664.9 546.5 L 665.1 546.6 L 665.3 546.5 L 665.5 546.2 L 665.7 546 L 665.7 546.1 L 665.8 546 L 665.8 545.9 L 666 545.8 L 666.2 545.7 L 666.3 545.6 L 666.5 545.6 L 666.6 545.7 L 666.7 545.7 L 666.7 545.9 L 666.8 545.9 L 666.9 546 L 667.1 546.1 L 667.2 546.3 L 667.4 546.4 L 667.4 546.5 L 667.5 546.6 L 667.4 546.7 L 667.5 546.9 L 667.6 547 L 667.6 547.1 L 667.6 547.2 L 667.7 547.3 L 667.9 547.9 L 667.9 548 L 667.9 548.1 L 668 548.3 L 668.1 548.5 L 668.1 548.6 L 668.1 548.8 L 668.1 549.2 L 668.1 549.3 L 668 549.4 L 667.8 549.4 L 667.6 549.4 L 667.4 549.7 L 667.2 550.4 L 667.3 550.9 L 667.5 551.2 L 667.7 551.4 L 667.9 551.5 L 668 551.5 L 668.3 551.6 L 668.8 551.8 L 669.1 551.9 L 669.3 551.8 L 669.5 551.8 L 669.8 551.8 L 669.9 551.8 L 670 551.7 L 670.1 551.7 L 670.3 551.7 L 670.5 551.8 L 670.7 551.7 L 670.9 551.8 L 671.3 552 L 671.8 552.1 L 672.2 552.1 L 672.9 551.9 L 673.5 551.8 L 673.8 551.8 L 674.2 551.8 L 674.5 551.9 L 674.8 552.1 L 675.1 552.3 L 675.7 552.6 L 676 552.9 L 676.3 553.1 L 676.9 553.4 L 677.9 553.9 L 678 553.9 L 678.1 553.9 L 678.3 553.9 L 678.5 554 L 678.6 554.2 L 678.8 554.4 L 678.8 554.6 L 678.8 554.7 L 679 555 L 679.3 555.3 L 679.4 555.4 L 679.5 555.5 L 679.6 555.8 L 679.9 556.2 L 680.5 556.9 L 680.8 557.1 L 681 557.2 L 681.2 557.2 L 681.4 557.3 L 681.6 557.4 L 681.7 557.4 L 681.9 557.3" />
<path class="river" d="M 848.8 593.1 L 848.7 592.9 L 848.5 592.8 L 848.2 592.7 L 848.1 592.5 L 848.1 592.3 L 848.1 592 L 848.3 591.7 L 848.3 591.5 L 848.3 591.4 L 848.2 591.4 L 848.1 591.4 L 848 591.3 L 847.8 591.1 L 847.5 591.1 L 847.3 591.2 L 847.1 591.2 L 846.9 591 L 846.7 590.9 L 846.5 590.9 L 846.3 590.8 L 846.2 590.8 L 846.1 590.8 L 846.1 590.8 L 846.1 590.7 L 846.4 590.4 L 846.5 590.1 L 846.5 590 M 846.1 589.7 L 846.2 589.9 L 846.5 590 M 846.4 589.7 L 846.5 590 M 845.8 589.3 L 846.1 589.7 M 845.8 589.3 L 845.9 589.4 L 846.1 589.4 L 846.2 589.5 L 846.4 589.7 M 844.4 588.5 L 844.5 588.8 L 844.6 589 L 844.9 589.4 L 845.1 589.6 L 845.4 589.7 L 845.6 589.7 L 846.1 589.7 M 844.4 588.5 L 844.5 588.7 L 844.7 588.8 L 844.9 588.8 L 845.2 588.8 L 845.4 588.9 L 845.6 589 L 845.8 589.3 L 845.8 589.3 M 842.4 586.8 L 842.7 586.9 L 842.9 587 L 843.1 587.3 L 843.3 587.5 L 843.4 587.5 L 843.6 587.7 L 843.8 588.1 L 844 588.3 L 844.3 588.4 L 844.4 588.5" />
<path class="river" d="M 1051.6 585.9 L 1052.3 585.6 L 1052.8 585.7 L 1053 585.8 L 1053.1 586 L 1053.1 586.1 L 1053.2 586.1 L 1053.4 586 L 1053.8 585.8 L 1054 585.5 L 1054.2 585.4 L 1054.2 585.2 L 1054.1 585.1 L 1054.1 585 L 1054.2 584.9 L 1054.1 584.8 L 1053.9 584.7 L 1053.8 584.6 L 1053.8 584.4 L 1053.8 584.4 L 1053.9 584.3 M 1053.9 583 L 1053.8 582.9 L 1053.8 582.8 L 1053.9 582.6 L 1053.9 582.3 L 1053.8 582 L 1053.7 581.9 L 1053.3 581.8 L 1053.1 581.7 L 1053 581.5 L 1053 581.4 L 1052.9 581.3" />
<path class="river" d="M 708.7 589 L 708.2 588.3 L 708.3 588.2 L 708.3 588.2 L 708.2 588.1 L 708.2 588.1 L 708.3 588 L 708.2 587.8 L 708.1 587.6 L 707.9 587.4 L 707.6 587.2 L 707.3 587.2 L 707.2 587.2 L 707 587.1 L 706.8 586.9 L 706.7 586.8 L 706.4 587 M 705.3 587.5 L 704.9 587.3 M 703.1 587.4 L 703 587.5 L 702.9 587.6 L 702.7 587.8 L 702.5 587.9 L 702.4 587.7 L 702.3 587.7 L 702.2 587.8 L 702 587.9 L 701.8 587.9" />
<path class="river" d="M 683.3 617.8 L 683.5 617.9 L 683.8 618 L 684.2 618.2 L 684.4 618.3 L 684.8 618.2 M 680.9 616.6 L 681.1 616.8 L 682 617.3 L 682.6 617.6 L 682.9 617.6 L 683.1 617.7 L 683.2 617.8 L 683.3 617.8 M 680.9 616.6 L 681.4 616.7 L 681.8 616.8 L 682 616.7 L 682.3 616.9 L 682.7 617.2 L 683 617.4 L 683.3 617.8 M 680.9 616.6 L 680.9 616.6 M 684.4 605 L 684 605.3 L 683.9 605.4 L 683.9 605.6 L 684 605.8 L 684 606 L 683.9 606.3 L 683.8 606.5 L 683.6 606.7 L 683.5 607 L 683.5 607.4 L 683.4 607.8 L 683.3 608.3 L 683.3 608.3 L 683.2 608.4 L 683.2 608.5 L 683.1 608.5 L 683 608.6 L 682.8 608.7 L 682.6 608.9 L 682.5 609 L 682.4 609.3 L 682.4 609.8 L 682.3 610.1 L 682.4 610.3 L 682.4 610.6 L 682.4 610.8 L 682.3 611 L 682.4 611.2 L 682.4 611.4 L 682.4 611.5 L 682.4 611.7 L 682.3 611.7 L 682.3 611.8 L 682.2 612 L 681.5 612.8 L 681.1 613.4 L 680.8 613.6 L 680.5 613.7 L 680.4 613.8 L 680.3 614 L 680.3 614.2 L 680.3 614.3 L 680.3 614.5 L 680.2 614.9 L 680.2 615.3 L 680.2 615.6 L 680.3 615.8 L 680.4 616.1 L 680.6 616.4 L 680.9 616.6 L 680.9 616.6 M 692.3 601.3 L 692.3 602.5 L 692.2 603.1 L 692 603.5 L 691.9 603.7 L 691.7 603.8 L 691.7 603.8 L 691.6 603.9 L 691.5 604 L 691.4 604.1 L 691.3 604.2 L 691.3 604.3 L 691.1 604.3 L 690.8 604.4 L 690.7 604.4 L 690.6 604.6 L 690.5 604.6 L 690.4 604.7 L 690.3 604.8 L 690.4 605 L 690.3 605.1 L 690.1 605.2 L 690 605.2 L 689.8 605.1 L 689.7 605.1 L 689.4 605 L 689.2 605.1 L 689.1 605.1 L 688.9 605.3 L 688.8 605.5 L 688.7 605.5 L 688.5 605.4 L 688.4 605.3 L 688.1 605.4 L 688 605.4 L 687.8 605.3 L 687.6 605.3 L 687.4 605.3 L 686.8 605.3 L 686 605 L 685.3 605 L 684.4 605 M 693.9 597.2 L 693.7 597.3 L 693.5 597.7 L 693.4 598.2 L 693.3 598.5 L 693 598.6 L 693.4 598.5 L 693.5 598.2 L 693.7 597.7 L 693.8 597.4 L 693.9 597.2 M 695.5 595.5 L 695.2 595.8 L 694.9 596 L 694.5 596.2 L 694.2 596.5 L 694.1 596.9 L 693.9 597.2 M 698.6 591.5 L 698.4 591.7 L 698.2 591.9 L 698.2 592.2 L 698.1 592.5 L 697.8 592.7 L 697.7 592.9 L 697.7 593.1 L 697.7 593.2 L 697.6 593.4 M 700.4 588.7 L 700.3 588.8 L 700.2 588.9 L 700.1 588.9 L 700 589 L 699.8 589.1 L 699.7 589.3 L 699.7 589.4 L 699.7 589.5 L 699.7 589.5 L 699.7 589.5 L 699.6 589.6 L 699.5 589.6 L 699.4 590 M 691.4 579.4 L 690.7 579.5 L 689.9 579.9 L 689.5 580 L 689.2 580.1 L 688.9 580.3 L 688.7 580.6 L 688.6 580.8 L 688.6 581 L 688.7 581.1 L 688.9 581.2 L 689 581.4 L 689 581.6 L 689.2 581.8 L 689.3 582 L 689.4 582.1 L 689.3 582.2 L 689.3 582.3 L 689.3 582.4 L 689.4 582.5 L 689.6 582.6 L 689.7 582.7 L 689.8 582.9 L 689.7 583 L 689.6 583.1 L 689.6 583.2 L 689.7 583.3 L 689.6 583.4 L 689.5 583.5 L 689.3 583.6 L 689 583.7 L 688.8 583.8 L 688.6 584.1 L 688.5 584.3 L 688.4 584.3 L 688.3 584.4 L 688.3 584.6 L 688.3 584.7 L 688.4 584.8 L 688 585.5 L 687.8 585.7 L 687.6 585.9 L 687.4 586.1 L 687.2 586.3 L 686.9 586.4 L 686.7 586.8 L 686.8 587.3 L 686.8 587.6 L 686.6 587.8 L 686.5 588 L 686.5 588.2 L 686.4 588.3 L 686.3 588.4 L 686.2 588.5 L 686.3 588.6 L 686.4 588.7 L 686.7 588.7 L 686.9 588.8 L 686.9 588.8 L 687 589.1 L 687 589.2 L 687 589.3 L 686.9 589.5 L 686.8 589.6 L 686.7 589.7 L 686.8 589.7 L 686.8 589.8 L 686.7 589.9 L 686.6 590 L 686.4 590.1 L 686.3 590.1 L 686.3 590.2 L 686.2 590.3 L 685.9 590.6 L 685.7 590.7 L 685.4 590.9 L 685.3 591 L 685.4 591 L 685.4 591.1 L 685.3 591.1 L 685.4 591.2 L 685.5 591.4 L 685.6 591.6 L 685.6 591.9 L 685.7 592 L 685.7 591.9 L 685.8 592 L 685.9 592 L 685.8 592.1 L 685.8 592.1 L 685.8 592.2 L 685.8 592.2 L 685.9 592.3 L 685.8 592.4 L 685.8 592.4 L 685.9 592.5 L 686 592.6 L 685.9 592.8 L 685.9 593 L 685.8 593.1 L 685.8 593.2 L 685.9 593.2 L 685.8 593.3 L 685.8 593.5 L 685.7 593.7 L 685.8 593.9 L 685.8 594.1 L 685.6 594.7 L 685.7 595 L 685.7 595.1 L 685.9 595.3 L 686 595.5 L 686 595.7 L 686 595.9 L 685.8 595.9 L 685.8 596 L 685.9 596.2 L 686 596.3 L 686 596.5 L 686.2 596.7 L 686.5 596.9 L 686.6 597.2 L 686.7 597.5 L 686.8 597.7 L 687 597.9 L 687 598.1 L 686.9 598.3 L 687 598.4 L 687.2 598.6 L 687.2 598.8 L 687.2 598.8 L 687.2 598.9 L 687.4 599.1 L 687.4 599.3 L 687.4 599.4 L 687.4 599.6 L 687.3 599.8 L 687.3 599.9 L 687.3 600.1 L 687.2 600.2 L 687.1 600.3 L 687.2 600.4 L 687.1 600.4 L 687.1 600.4 L 687 600.5 L 686.8 600.6 L 686.7 600.7 L 686.6 600.7 L 686.5 600.8 L 686.3 601 L 686.3 601.1 L 686.4 601.3 L 686.5 601.4 L 686.5 601.5 L 686.3 601.7 L 686.2 601.8 L 686.1 601.8 L 686.1 601.9 L 686 602 L 685.9 602.3 L 685.8 602.4 L 685.8 602.5 L 685.7 602.5 L 685.4 602.7 L 685.4 602.8 L 685.4 602.9 L 685.3 602.9 L 685.3 603 L 685.3 603.1 L 685.2 603.2 L 685.2 603.4 L 685.2 603.6 L 685.2 603.7 L 685.2 603.7 L 685.1 603.8 L 685.1 603.9 L 685.1 604 L 685 604 L 685 604.1 L 685 604.1 L 684.9 604.2 L 684.8 604.3 L 684.7 604.4 L 684.6 604.5 L 684.5 604.6 L 684.4 604.7 L 684.3 604.8 L 684.4 605" />
<path class="river" d="M 669 589.4 L 669.1 589.2 L 669.1 589.2 L 669.1 589.1 L 669.1 589 L 669.2 589 L 669.4 589 L 669.7 589.3 L 669.9 589.4 L 670.2 589.3 L 670.3 589.1 L 670.4 589 L 670.7 588.9 L 670.9 588.9 L 671.1 589.1 L 671.3 589.3 L 671.5 589.4 L 671.7 589.4 L 671.9 589.4 L 672.1 589.7 L 672.4 590.4 L 672.6 590.9 L 672.7 591.3 L 672.8 591.5 L 673 591.5 L 673.2 591.8 L 673.4 592.2 L 673.5 592.4 L 673.7 592.4 L 673.8 592.6 L 673.9 592.8 L 674.1 592.9 L 674.3 592.9 L 674.7 593.1 L 675.2 593.3 L 675.5 593.5 L 675.7 593.6 L 675.8 593.8 L 675.9 594.2 L 676.1 594.7 L 676.3 594.9 L 676.4 595 L 676.5 595.1 L 676.5 595.1 L 676.7 595.2 L 677 595.4 L 677.3 595.8 L 677.6 596.3 L 677.9 596.6 L 678.1 596.9 L 678.4 597.1 L 678.6 597.2 L 678.7 597.2 L 678.7 597.3 L 678.9 597.4 L 679.3 597.6 L 679.5 597.8 L 679.6 598 L 680 598.2 L 680.7 598.4 L 681.1 598.5 L 681.4 598.5 L 681.9 598.7 L 682.4 599 L 682.8 599.3 L 682.9 599.4 L 683.3 599.6 L 684.2 600.1 L 684.6 600.2 L 684.8 600.3 L 684.9 600.4 L 685 600.4 L 685.1 600.4 L 685.3 600.4 L 685.7 600.6 L 686 600.7 L 686.3 601.1" />
<path class="river" d="M 663.1 612.9 L 663.1 612.9 L 663.6 612.8 L 663.8 612.9 L 663.9 613 L 663.9 613.1 L 663.9 613.3 L 664 613.3 L 664.3 613.3 L 664.5 613.3 L 664.8 613.2 L 665 613.2 L 665.1 613.3 L 665.2 613.4 L 665.2 613.6 L 665.2 613.8 L 665.2 614 L 665.3 614.2 L 665.3 614.4 L 665.4 614.4 L 665.4 614.4 L 665.7 614.4 L 665.9 614.5 L 666.1 614.7 L 666.4 614.8 L 666.7 614.8 L 667 614.9 L 667.1 615 M 632.8 529.2 L 633.4 529.4 L 633.6 529.5 L 633.8 529.7 L 633.9 529.8 L 633.9 529.9 L 634 529.9 L 634.1 529.9 L 634.5 530 L 634.7 530 L 634.9 529.9 L 635 529.8 L 635 529.6 M 630.2 527.1 L 630.6 527.3" />
<path class="river" d="M 869.6 580.3 L 869.6 580.6 L 869.5 580.9 L 869.2 581.3 L 868.9 581.5 L 868.8 581.6 L 868.6 581.8 L 868.6 582 L 868.5 582.1 L 868.5 582.3 L 868.6 582.7 L 868.8 583 L 868.9 583.2 L 868.9 583.4 L 869 583.5 L 869.1 583.6 L 869.3 583.7 L 869.5 584 L 869.6 584.3 L 869.6 585 L 869.6 586.1 M 869.5 579.8 L 869.5 579.6" />
<path class="river" d="M 710.7 587.1 L 710.8 586.9 L 710.8 586.9 L 710.9 586.9 L 710.9 586.7 L 711 586.4 L 711.1 586.3 L 711.2 586.2 L 711.2 586.1 L 711.2 586 L 711.2 585.7 L 711.3 585.4 L 711.5 585.1 L 711.6 585 L 711.5 584.6 L 711.2 584 L 711.1 583.7 L 711.1 583.6 L 711.2 583.3 L 711.2 582.7 L 711.4 582.6 L 711.5 582.6 L 711.6 582.4 L 711.8 582.3 L 712.1 582.2 L 712.7 581.7 L 712.9 581.4 L 713 581.1 L 713.1 580.9 L 713.3 580.6 L 713.4 580.3 L 713.5 579.8 L 713.6 579.5 L 713.8 579.3 L 713.9 578.9 L 714 578.3 L 714.1 578 L 714.2 577.9 L 714.3 577.6 L 714.3 577.1 L 714.3 576.8 L 714.4 576.7 L 714.5 576.5 L 714.7 576.2 L 714.8 575.9 L 714.7 575.6 L 714.7 575.4 L 714.7 575.3 L 714.7 575.1 L 714.6 574.9 L 714.5 574.7 L 714.5 574.6 L 714.5 574.4 L 714.5 574.2 L 714.5 574.1 L 714.6 574 L 714.7 573.8 L 714.9 573.1 M 719.5 569.8 L 719.8 569.9 L 720 569.8 L 720.3 569.7 L 720.5 569.5 L 720.6 569.2 L 720.7 569.1 L 720.8 569.1 L 721 569.1 L 721.1 569 L 721.2 569 L 721.3 568.9 L 721.3 568.8 L 721.3 568.6 L 721.4 568.5 L 721.6 568.5 L 721.7 568.4 L 721.7 568.3 L 721.9 568.2 L 722.2 568 L 722.4 568.1 L 722.6 568.2 L 722.9 568.4 L 723.4 568.5 L 723.7 568.7 L 723.7 568.7 L 723.8 568.7 L 723.9 568.7 L 724 568.6 L 724.1 568.6 L 724.1 568.7 L 724.1 568.8 L 724.2 568.9 L 724.4 568.9 L 724.5 569 L 724.4 569.1 L 724.5 569.3 L 724.6 569.6 L 725.2 570 L 726.7 570.7 L 727 570.8 L 727.1 570.9 L 727.1 571.1 L 727.3 571.2 L 727.5 571.3 L 727.6 571.4 L 727.7 571.4 L 727.8 571.5 L 727.9 571.6 L 727.9 571.7 L 728 571.7 L 728.1 571.7 L 728.2 571.9" />
<path class="river" d="M 703 582.6 L 702.9 582.3 L 702.7 582.2 L 702.5 582 L 702.3 581.7 L 702.2 581.4 L 702.2 581.2 L 702.3 581.1 L 702.5 581 L 702.7 580.8 L 702.9 580.4 L 703.1 580.3 L 703.2 580.2 L 703.3 580 L 703.4 579.7 L 703.4 579.5 L 703.3 579.4 L 703.3 579.3 L 703.4 579.3 L 703.8 579 L 703.9 579 L 704 579.1 L 704.2 579.1 L 704.3 579 L 704.6 578.8 L 704.7 578.6 L 704.6 578.5 L 704.7 578.4 L 704.8 578.5 L 704.9 578.4 L 705 578.3 L 705.1 578.2 L 705.1 578 L 705.1 577.8 L 705 577.7 L 704.9 577.5 L 705 577 L 705 576.6 L 704.8 576.1 L 704.9 575.8 L 704.9 575.8 L 704.8 575.7 L 704.8 575.6 L 704.8 575.6 L 704.7 575.4 L 704.5 575.3 L 704.3 574.9 L 704.1 574.1 L 704.1 573.9 L 704.2 573.8 L 704.3 573.6 L 704.4 573.4 L 704.3 573.1 L 704.3 572.8 L 704.5 572.6 L 704.5 572.3 L 704.5 572 L 704.4 571.7 L 704.5 571.4 L 704.5 571.2 L 704.6 571 L 704.7 570.9 L 704.6 570.8 L 704.6 570.7 L 704.7 570.6 L 704.7 570.5 L 704.6 570.3 L 704.5 570 L 704.6 569.7 L 704.7 569.3 L 705 568.8 L 705.1 568.4 L 705.1 568.1 L 705.1 568 L 705.1 567.9 L 705.1 567.7 L 705 567.4 L 705 567.2 L 705.1 567.2 L 705.2 567.1 L 705.3 567.1 L 705.4 567 L 705.4 566.7 L 705.6 566.5 L 705.9 566.4 L 706 566.2 L 706.1 566 L 706.1 565.9 L 706.3 565.8 L 706.3 565.7 L 706.3 565.6 L 706.2 565.5 L 706.1 565.6 L 706 565.5 L 705.9 565.4 L 705.9 565.3 L 706 565.3 L 706.1 565.2 L 706.2 565 L 706.4 564.6 L 706.5 563.8 L 706.5 563.1 L 706.4 562.5 L 706.3 562.1 L 706.3 562 L 706.1 561.9 L 705.8 561.8 L 705.6 561.7 L 705.6 561.6 L 705.4 561.5 L 705.2 561.5 L 705 561.5 L 704.8 561.4 L 704.6 561.4 L 704.4 561.4 L 704.3 561.5 L 704.2 561.6 L 704.1 561.7 L 703.9 561.7 M 702 558.7 L 702.1 557.8 L 702.1 557.3 L 702 556.8 L 701.9 556.6 L 702 556.4 L 702.1 556.4" />
<path class="river" d="M 658.7 581.4 L 658.7 581.2 L 658.7 581.1 L 658.8 581.1 L 658.8 581 L 658.8 580.8 L 658.8 580.6 L 659 580.3 L 659.1 580.1 L 659.1 579.9 L 659 579.5 L 658.9 579.3 L 658.9 579.2 L 658.8 579.1 L 658.6 579 L 658.5 578.9 L 658.4 578.6 L 658.2 578.4 L 657.8 578.4 L 657.5 578.3 L 657.3 578.1 L 656.9 577.9 L 656.5 577.7 L 656.1 577.6 L 655.9 577.7 L 655.8 577.7 L 655.6 577.6 L 655.1 577.2 L 654.9 576.9 L 654.9 576.8 L 654.9 576.6 L 654.8 576.3 L 654.6 576.1 L 654.4 575.9 L 654.2 575.6 L 654 575.2 L 653.9 574.8 L 654.1 574.7 L 654 574.3 L 653.7 573.7 L 653.5 573.4 L 653.5 573.2 L 653.7 573.2 L 653.9 573.2 L 654.1 573.2 L 654.3 573.4 L 654.5 573.4 L 654.6 573.4 L 654.6 573.2 L 654.5 573 L 654.5 572.7 L 654.5 572.4 L 654.4 572.2 L 654.2 572.1 L 654.1 571.9 L 654 571.7 L 654 571.5 L 654 571.3 L 654 571.3 L 654 571.3 L 654 571.2 L 654 571.1 L 654 571.1 L 654 571 L 654 571 L 654 571 L 653.9 570.9 L 653.9 570.8 L 653.9 570.8 L 654 570.8 L 654.1 570.7 L 654.1 570.6 L 654.1 570.6 L 653.9 570.6 L 653.8 570.4 L 653.7 570.2 L 653.7 570 L 653.6 569.9 L 653.6 569.9 L 653.5 569.9 L 653.5 569.9 L 653.5 569.8 L 653.4 569.7 L 653.3 569.6 L 653.3 569.5 L 653.3 569.3 L 653.2 569.2 L 653.2 569.1 L 653.1 569.1 L 653.2 569 L 653.2 569 L 653.1 569 L 653 568.6 L 653.1 568.4 L 653.3 568.2 L 653.4 568.1 L 653.5 568.1 L 653.5 568 L 653.5 567.9 L 653.5 567.8 L 653.4 567.9 L 653.3 567.9 L 653.2 567.8 L 653.1 567.8 L 653.1 567.8 L 653.1 567.8 L 653.1 567.6 L 653 567.5 L 652.9 567.4 L 652.9 567.4 L 652.9 567.3 L 652.9 567.2 L 652.8 567.3 L 652.8 567.2 L 652.8 567.1 L 652.8 567 L 652.7 566.9 L 652.7 566.9 L 652.6 566.9 L 652.6 566.9 L 652.6 566.8 L 652.6 566.8 L 652.4 566.7 L 652.4 566.7 L 652.3 566.8 L 652.3 566.8 L 652.2 566.7 L 652.2 566.6 L 652.2 566.6 L 652.2 566.5 L 652.1 566.3 L 652.1 566.3 L 652.1 566.2 L 652.1 566.2 L 652.1 566.1 L 652.1 566 L 652.1 565.8 L 652 565.7 L 651.8 565.5 L 651.7 565.4 L 651.6 565.5 L 651.6 565.4 L 651.6 565.4 L 651.6 565.3 L 651.5 565.3 L 651.6 565.2 L 651.8 565.1 L 651.8 565 L 651.8 564.9 L 651.8 564.9 L 651.8 564.8 L 651.9 564.6 L 651.9 564.5 L 651.8 564.3 L 651.8 564.2 L 651.9 564.2 L 651.8 564.1 L 651.8 564 L 651.7 563.9 L 651.8 563.8 L 651.8 563.7 L 651.7 563.5 L 651.7 563.3 L 651.8 563.2 L 651.9 563.2 L 651.9 563.2 L 652 563.2 L 652 563.2 L 652 563.1 L 652.2 563.1 L 652.3 563.1 L 652.5 563 L 652.6 563 L 652.6 563 L 652.7 563 L 652.7 562.9 L 652.8 562.7 L 653 562.5 L 653.1 562.5 L 653.2 562.5 L 653.3 562.6 L 653.3 562.5 L 653.3 562.5 L 653.4 562.5 L 653.4 562.5 L 653.5 562.3 L 653.6 562.3 L 653.7 562.2 L 653.7 562.2 L 653.7 562.1 L 653.7 562.1 L 653.7 562 L 653.7 562 L 653.7 562 L 653.7 561.9 L 653.7 561.9 L 653.7 561.8 L 653.7 561.8 L 653.8 561.8 L 653.8 561.7 L 653.9 561.6 L 653.9 561.5 L 653.9 561.3 L 654 561.1 L 654 561.1 L 654.1 561.1 L 654.1 561.2 L 654.3 561.1 L 654.4 561 L 654.5 560.9 L 654.5 560.8 L 654.6 560.8 L 654.6 560.8 L 654.6 560.8 L 654.6 560.7 L 654.6 560.6 L 654.8 560.5 L 654.9 560.4 L 654.9 560.4 L 654.9 560.4 L 654.9 560.3 L 654.9 560.3 L 655.1 560.1 L 655.1 560.1 L 655 560.1 L 655 560 L 655.1 559.9" />
<path class="river" d="M 871.1 587.3 L 871.2 587.5 L 871.3 587.7 L 871.3 587.9 L 871.2 588 L 871.3 588.1 L 871.3 588.1 L 871.3 588.2 L 871.2 588.3 M 871.1 587.3 L 872 587.8 M 856.7 583.8 L 856.9 583.6 L 856.9 583.3 L 856.9 583 L 856.9 582.8 L 857 582.7 L 857.1 582.6 L 857.3 582.5 L 857.8 582.3 L 858.2 582.1 L 858.6 582 L 860.7 582 M 864.5 581.9 L 864.9 581.9 L 865.1 582 L 865.3 582.2 L 865.5 582.4 L 865.8 582.6 L 866.2 583 L 866.8 583.7 L 867 583.9 L 867.5 584.1 L 868.2 584.4 L 868.6 584.5 L 868.7 584.6 L 868.8 584.8 L 869 585.2 L 869.2 585.7 L 869.4 585.9 L 869.6 586.1 L 869.8 586.3 L 870 586.5 L 870.2 586.7 L 870.5 586.8 L 870.7 587 L 870.8 587.1 L 870.9 587.2 L 871.1 587.3 M 847.9 573.6 L 848 573.5 L 848 573.3 L 847.9 573.1 L 847.8 573.1 L 847.4 573.1 L 846.8 573.5 L 846.5 573.7 L 846.3 573.8 L 846.1 573.9 L 846 574 L 845.7 574.2 L 845.2 574.5 L 844.9 574.7 L 844.8 575 L 844.7 575.2 L 844.5 575.3 L 844.5 575.5 L 844.5 575.9 L 844.5 576.2 L 844.7 576.5 L 844.8 576.7 L 844.7 576.9 L 844.9 577.1 L 845.3 577.4 L 845.4 577.5 L 845.5 577.7 L 845.6 578 L 845.7 578.2 L 845.8 578.3 L 845.8 578.4 L 845.8 578.5 L 845.8 578.6 L 845.8 578.8 L 845.8 578.9 L 845.7 579 L 845.7 579.2 L 845.8 579.4 L 845.7 579.7 L 845.6 579.9 L 845.4 580.3 L 845.3 580.9 L 845.3 581.3 L 845.5 581.5 L 845.6 581.7 L 845.6 581.9 L 845.6 582 L 845.6 582.1 L 845.6 582.2 L 845.7 582.4 L 845.8 582.7 L 845.9 583.2 L 846.3 583.8 L 847 584.4 L 847.5 585 L 847.8 585.6 L 848.8 585.7 L 849.2 585.8 L 849.3 585.8 L 849.5 585.9 L 849.8 586.3 L 850.2 586.4 L 850.4 586.4 L 850.6 586.3 L 850.8 586.4 L 851 586.6 L 851.3 586.6 L 851.6 586.5 L 851.9 586.5 L 852.4 586.7 L 852.8 586.7 L 853.3 586.6" />
<g class="city"><circle cx="705.4950595" cy="582.2920560555556" r="5" /><text x="717.4950595" y="586.2920560555556">Brasília</text></g>
<g class="city"><circle cx="675.3004477222223" cy="586.1784737777778" r="5" /><text x="687.3004477222223" y="590.1784737777778">Santa Cruz</text></g>
<g class="city"><circle cx="702.7655571944446" cy="584.1394109722222" r="5" /><text x="714.7655571944446" y="588.1394109722222">Goiânia</text></g>
<g class="city"><circle cx="893.7095038333334" cy="588.4716140277778" r="5" /><text x="905.7095038333334" y="592.4716140277778">Antananarivo</text></g>
<g class="city"><circle cx="665.5892471944445" cy="583.7014731111111" r="5" /><text x="677.5892471944445" y="587.7014731111111">La Paz</text></g>
<g class="city"><circle cx="861.223229" cy="586.3044435555555" r="5" /><text x="873.223229" y="590.3044435555555">Harare</text></g>
<g class="city"><circle cx="855.7771700555556" cy="581.5688500555556" r="5" /><text x="867.7771700555556" y="585.5688500555556">Lusaka</text></g>
<g class="city"><circle cx="658.9230848055555" cy="583.5476792222222" r="5" /><text x="670.9230848055555" y="587.5476792222222">Arequipa</text></g>
<text class="map-title" x="80" y="105">Fiji Physical Study Map</text>
<text class="map-subtitle" x="80" y="145">Landmark: Sri Siva Temple | Study terrain and water systems</text>
  <text class="footer" x="80" y="1036">Made with Natural Earth. Free vector and raster map data @ naturalearthdata.com.</text>
</svg>
