<?xml version="1.0" encoding="UTF-8"?>
<svg xmlns="http://www.w3.org/2000/svg" width="1600" height="1100" viewBox="0 0 1600 1100" role="img" aria-labelledby="title desc">
  <title id="title">Georgia Political Study Map</title>
  <desc id="desc">Made with Natural Earth. Free vector and raster map data @ naturalearthdata.com.</desc>
  <defs>
    <linearGradient id="terrain" x1="0" x2="1" y1="0" y2="1">
      <stop offset="0%" stop-color="#6c8c53" />
      <stop offset="42%" stop-color="#d5c487" />
      <stop offset="72%" stop-color="#b88b5f" />
      <stop offset="100%" stop-color="#f1f5ee" />
    </linearGradient>
    <filter id="softShadow" x="-10%" y="-10%" width="120%" height="120%">
      <feDropShadow dx="0" dy="10" stdDeviation="12" flood-color="#0f172a" flood-opacity="0.16" />
    </filter>
    <style>
      .neighbor { fill: #ffffff; stroke: #94a3b8; stroke-width: 1.2; opacity: 0.72; }
      .country { fill: #f7f1df; stroke: #1f2937; stroke-width: 4; filter: url(#softShadow); }
      .admin1 { fill: none; stroke: #64748b; stroke-width: 1.1; stroke-dasharray: 6 7; opacity: 0.75; }
      .river { fill: none; stroke: #1d9bd1; stroke-width: 3; stroke-linecap: round; opacity: 0.88; }
      .lake { fill: #8ed1ea; stroke: #0ea5e9; stroke-width: 1.5; opacity: 0.8; }
      .city circle { fill: #ef4444; stroke: #ffffff; stroke-width: 2; }
      .city text, .terrain-label { fill: #172033; font: 700 24px system-ui, sans-serif; paint-order: stroke; stroke: #ffffff; stroke-width: 5; stroke-linejoin: round; }
      .map-title { fill: #0f172a; font: 800 46px system-ui, sans-serif; }
      .map-subtitle { fill: #475569; font: 600 24px system-ui, sans-serif; }
      .footer { fill: #64748b; font: 500 18px system-ui, sans-serif; }
    </style>
  </defs>
  <rect width="100%" height="100%" fill="#eaf3f8" />
  <rect x="40" y="40" width="1520" height="1020" rx="32" fill="#ffffff" opacity="0.54" />
  <path class="neighbor" d="M 5481.4 -148.7 L 5400.5 -78 L 5312.3 -68.1 L 5307.2 38.5 L 5248.1 86.5 L 5037.3 51.5 L 4960.7 241.7 L 4906.3 265.4 L 4695.8 307.8 L 4791.5 492.4 L 4718.6 520.1 L 4727.1 580.6 L 4661.6 565 L 4608.3 526.9 L 4450.7 515.7 L 4274.5 512.8 L 4235.9 524.5 L 4084.6 479.9 L 4024.3 501.9 L 4007.8 564.6 L 3833 528 L 3763.1 543 L 3739.3 589.5 L 3678.3 609.2 L 3538.2 683.2 L 3491.7 759.2 L 3452.1 759.9 L 3423 709.6 L 3287.9 706.2 L 3266.3 619.1 L 3214.5 618.4 L 3222.5 511.8 L 3095.3 434.2 L 2913.1 442.5 L 2788.5 458 L 2687 362.2 L 2600.1 322 L 2435.4 246 L 2415.6 236.7 L 2142.1 299.5 L 2146.3 691.3 L 2091.8 696.4 L 2017.4 613.1 L 1945.6 583.4 L 1825 605.5 L 1778.1 640.8 L 1772.1 614.9 L 1798.2 570.6 L 1777.9 533.6 L 1654.8 497.4 L 1606.9 402 L 1548.2 375.1 L 1544.7 340.5 L 1648 350.6 L 1652.1 272.9 L 1742.5 255.7 L 1835.3 271.6 L 1854.4 167.9 L 1835.5 102.2 L 1729.1 107.4 L 1638.8 81.4 L 1515.8 128.1 L 1416.7 150.4 L 1362.7 133.2 L 1373.5 78.6 L 1305.8 7.6 L 1227 10.5 L 1136.8 -61.5 L 1198.1 -142 L 1167.1 -163.7 L 1251.8 -280.4 L 1361.1 -218.8 L 1374.3 -296.4 L 1593.6 -412 L 1759.6 -414.7 L 1993.8 -341.2 L 2119.6 -298.2 L 2232.3 -343 L 2400.7 -345.1 L 2536.6 -290.1 L 2567.5 -321.6 L 2716.7 -317 L 2743.3 -367.3 L 2571.2 -440.4 L 2673.1 -492.2 L 2653.2 -521.1 L 2755.2 -548.7 L 2678.5 -621.5 L 2727.2 -657.8 L 3124.8 -694.7 L 3176.7 -721 L 3442.5 -760.2 L 3538 -804.3 L 3728.9 -781.4 L 3762.4 -671.3 L 3873.3 -697.1 L 4009.8 -660.9 L 4001 -602.9 L 4102.9 -608.9 L 4369.1 -709.2 L 4330.3 -675.9 L 4465.8 -593.8 L 4703.2 -324 L 4759.8 -379.6 L 4906.2 -318.4 L 5058.8 -345.7 L 5117.5 -326.6 L 5168.6 -265.2 L 5242.9 -244.6 L 5288.1 -199.5 L 5425 -213.7 L 5481.4 -148.7 Z" />
<path class="neighbor" d="M 15188.1 -2473.7 L 15323.6 -2518 L 15323.6 -2445.4 L 15207.1 -2439.9 L 15188.1 -2473.7 Z M 1416.7 150.4 L 1368.3 213.4 L 1265.3 230.9 L 1159.7 340.6 L 1256.3 441.4 L 1245.8 513 L 1361.8 638.1 L 1361.8 638.1 L 1298.4 680.9 L 1280.1 708 L 1233.1 700.7 L 1160.1 636.2 L 1130.3 632.6 L 1063.5 608 L 1030.9 564.4 L 931.9 542.2 L 867.4 558.8 L 848.8 539.1 L 704.2 488.2 L 547.8 471 L 458 452.8 L 445 465.3 L 309.5 375.6 L 188.3 335.5 L 96.6 273.1 L 173.9 256.1 L 262 167.2 L 202.6 125.2 L 359.2 81.8 L 356.4 58.6 L 261 75.7 L 264.4 28.5 L 319.2 -1.1 L 422 -8.9 L 438.7 -44.3 L 415.2 -102.9 L 458.4 -158.5 L 457.1 -189.7 L 300.5 -224.3 L 238.4 -223.2 L 172.9 -272.9 L 91.3 -256.1 L -43.6 -293.4 L -41.3 -314.4 L -79.1 -360.4 L -163.8 -365.6 L -172.6 -398.5 L -146 -420.1 L -213.9 -480.2 L -324.1 -469.9 L -356.4 -475.3 L -383.2 -451.1 L -422.9 -455.4 L -422.9 -455.4 L -449 -523.4 L -474 -558.7 L -453.5 -568.6 L -367.8 -565 L -326.5 -588.2 L -357.1 -616.5 L -428.7 -635.2 L -422.3 -654.4 L -465.5 -673.8 L -532.2 -743.3 L -509.4 -772 L -519.8 -821.9 L -623.7 -847.2 L -679.4 -834.5 L -694.5 -860.9 L -806.3 -887.5 L -840.5 -950.2 L -849.5 -1001.8 L -900.7 -1026.2 L -855.2 -1059.9 L -886.7 -1159 L -811.1 -1220.3 L -827.1 -1238.8 L -827.1 -1238.8 L -706.4 -1297.5 L -817.7 -1348 L -817.7 -1348 L -590.2 -1483.7 L -491.5 -1545 L -451.6 -1599.2 L -608.8 -1672 L -565.4 -1741.2 L -661 -1820.3 L -589.5 -1911.4 L -713.1 -2032.3 L -615 -2112.4 L -777.7 -2183.2 L -762.2 -2257.6 L -676.4 -2267.4 L -495.7 -2310 L -495.7 -2310 L -386.1 -2347 L -211.5 -2282.7 L 79.4 -2257.4 L 480.8 -2137.3 L 562.4 -2086.8 L 569.4 -2016.1 L 451.5 -1960.3 L 278 -1931.9 L -196.3 -2012.7 L -274.3 -1999.2 L -101.1 -1921.4 L -94.3 -1872.1 L -87.4 -1763.5 L 49.4 -1731.1 L 132.4 -1703.6 L 146.1 -1755.1 L 82.1 -1800.7 L 149.8 -1841 L 406.6 -1774.8 L 496.1 -1800.7 L 424.6 -1878.5 L 672.2 -1982.6 L 770.2 -1976.5 L 869.4 -1939.3 L 931.3 -2012.3 L 842.7 -2075.7 L 894.7 -2139.2 L 816.6 -2205.1 L 1113.8 -2171 L 1174.5 -2111.5 L 1040 -2098.4 L 1040.7 -2039.3 L 1124.3 -2002.9 L 1288.5 -2026 L 1314.5 -2093.7 L 1536.4 -2144.3 L 1907.1 -2235.6 L 1987.3 -2230.3 L 1882.5 -2165.9 L 2014.3 -2154.8 L 2090.4 -2191.1 L 2289.6 -2194 L 2447.3 -2238 L 2568.4 -2174.1 L 2689.1 -2244.4 L 2577.8 -2306 L 2633 -2341 L 2946.9 -2308.9 L 3093.9 -2275.7 L 3478.9 -2154.3 L 3550 -2209.9 L 3442 -2266 L 3438.9 -2288.6 L 3310.9 -2299 L 3345.9 -2349.4 L 3289.1 -2432.3 L 3285.9 -2466.3 L 3481.9 -2562.5 L 3551.6 -2659 L 3630.6 -2679.9 L 3911.9 -2651.9 L 3934.1 -2592.8 L 3833.4 -2506.6 L 3899.4 -2472.8 L 3933.6 -2398.5 L 3909.5 -2252.9 L 4026.7 -2187.8 L 3981.1 -2116.9 L 3773 -1966 L 3894.4 -1950.3 L 3936.7 -1988.6 L 4053.6 -2015.9 L 4081.8 -2068.4 L 4173.8 -2119 L 4111.8 -2179.4 L 4161.4 -2249.6 L 4045.2 -2258.3 L 4019.7 -2317.4 L 4104.5 -2424.1 L 3966.5 -2510.7 L 4156.6 -2582.3 L 4132 -2657.9 L 4185 -2660.3 L 4240.8 -2601.4 L 4198.9 -2498.8 L 4312.6 -2479.4 L 4264.2 -2556 L 4442 -2597.8 L 4662.5 -2603.4 L 4858.8 -2542.9 L 4764.3 -2631.4 L 4753.7 -2744.5 L 4938.5 -2766 L 5194 -2761.3 L 5424.2 -2775.2 L 5337.9 -2830.8 L 5460.8 -2900.5 L 5582.9 -2903.5 L 5789.5 -2956.2 L 6070 -2970.3 L 6105.5 -2999.4 L 6384.4 -3009.3 L 6471.3 -2985.4 L 6709.8 -3041.9 L 6905 -3040.1 L 6934.3 -3086 L 7035.8 -3131.2 L 7286.6 -3174.8 L 7468.8 -3140.4 L 7324.1 -3114.2 L 7564.8 -3097.9 L 7593.4 -3045.4 L 7690.5 -3071.2 L 8001.1 -3069.8 L 8240.6 -3018 L 8325.9 -2978.2 L 8299.5 -2923 L 8181.9 -2891.5 L 7902.7 -2832.6 L 7822.9 -2801 L 7954.7 -2786.2 L 8111.8 -2759.4 L 8207.5 -2779.5 L 8261.7 -2711.3 L 8308.3 -2738.9 L 8478.2 -2755.7 L 8819.1 -2738.1 L 8845 -2688.4 L 9289.1 -2672.6 L 9295.2 -2753.8 L 9520.7 -2735.2 L 9690.3 -2735.8 L 9861.8 -2679.8 L 9910.7 -2611.8 L 9847.9 -2567.3 L 9981.3 -2483.7 L 10148.4 -2440.6 L 10250.9 -2552 L 10421.3 -2504.2 L 10602.4 -2532.8 L 10808 -2500.1 L 10886.3 -2529.9 L 11060.1 -2515 L 10983.4 -2613.7 L 11123.7 -2659.7 L 12083.2 -2590.7 L 12173.6 -2527.6 L 12451.7 -2446.4 L 12880.7 -2466.5 L 13092.3 -2449 L 13180.7 -2405.1 L 13167.8 -2327.4 L 13298.7 -2297.2 L 13440.9 -2318.9 L 13629.3 -2321.7 L 13829.9 -2300.9 L 14031.2 -2312.6 L 14216.3 -2218.2 L 14347.9 -2252.2 L 14262 -2320.1 L 14309.3 -2367.3 L 14648.3 -2337.6 L 14869.3 -2343.9 L 15174.8 -2293.2 L 15323.6 -2246.8 L 15323.6 -1823.6 L 15322.8 -1823 L 15186.2 -1776.3 L 15048.5 -1784.1 L 15144.3 -1727.6 L 15207.6 -1640 L 15256.7 -1611.4 L 15269 -1567.5 L 15241.6 -1539.3 L 15043.5 -1562.5 L 14746.6 -1482.5 L 14652.1 -1470.1 L 14489.6 -1395.5 L 14335.4 -1330.3 L 14296.3 -1282 L 14144.3 -1355.5 L 13867.5 -1272.1 L 13819.2 -1311.5 L 13716.8 -1266 L 13574.8 -1280.6 L 13540.5 -1210.7 L 13413.1 -1107.9 L 13416.8 -1065 L 13537.9 -1041.2 L 13523.6 -886.5 L 13425 -882.6 L 13379.5 -793.7 L 13423.7 -747.9 L 13237.9 -693.7 L 13201 -572.4 L 13042.7 -546.5 L 13010.8 -438.5 L 12857.7 -339.5 L 12818.4 -412.7 L 12772.9 -567.7 L 12713.6 -803.8 L 12764.7 -951.2 L 12854.3 -1014.6 L 12859.9 -1064.2 L 13025 -1088 L 13214.7 -1221.7 L 13397.6 -1331 L 13588.6 -1415.7 L 13674 -1565.5 L 13544.9 -1556.6 L 13481.1 -1469 L 13211.6 -1352.4 L 13124.6 -1483 L 12850.3 -1446.9 L 12584.5 -1268.8 L 12672.2 -1203.7 L 12435.1 -1176 L 12270.8 -1165 L 12278.5 -1241.8 L 12113.3 -1258 L 11981.7 -1205.8 L 11656.9 -1224 L 11307.4 -1192.5 L 10963.3 -985.2 L 10556.1 -734.6 L 10723.5 -721.2 L 10775.7 -654.7 L 10878.9 -631.1 L 10946.9 -684.1 L 11063.4 -677.2 L 11216.8 -560.4 L 11220.4 -470 L 11137.4 -363.8 L 11128.4 -237 L 11080.5 -67.1 L 10920.4 86.6 L 10884.8 160.1 L 10740.6 283.8 L 10597.5 406.5 L 10528.8 469.3 L 10387.3 531.6 L 10320.3 533 L 10253.5 481.3 L 10110.9 559.1 L 10094.4 594.4 L 10094.4 594.4 L 10094.4 594.4 L 10094.4 594.4 L 10079.5 575.8 L 10079.5 575.8 L 10078.8 521.9 L 10133.1 519 L 10148.4 393.5 L 10120.4 302.5 L 10211.6 265 L 10340.5 283.8 L 10412 180.4 L 10448.4 64 L 10489.7 25.1 L 10545.5 -70.5 L 10369.9 -39.1 L 10277.8 2.8 L 10116.4 2.7 L 10073.4 -97.2 L 9947.5 -172.7 L 9762.6 -206.7 L 9723.3 -310.7 L 9686.3 -376 L 9646.5 -421.7 L 9580.8 -528.8 L 9487.5 -568 L 9328.5 -599.6 L 9187.7 -596.7 L 9055.7 -577.6 L 8967.9 -524.7 L 9026.2 -499.5 L 9027.5 -440.8 L 8968.4 -406.7 L 8872.5 -294.1 L 8873.5 -247.3 L 8723.8 -180.2 L 8596.2 -220.3 L 8469.5 -211.4 L 8413.9 -247 L 8350.1 -258.5 L 8194.5 -183.6 L 8054.7 -166 L 7957 -139.7 L 7823.2 -157 L 7724.7 -155.9 L 7660.2 -210.2 L 7556.1 -261.3 L 7449.7 -275.3 L 7315.3 -261.4 L 7214.9 -241.7 L 7063.9 -286.4 L 7043.7 -366 L 6918.8 -393.3 L 6822.3 -405.7 L 6703.3 -449.6 L 6593.3 -339.5 L 6636.4 -277 L 6533.1 -203 L 6379.5 -229.7 L 6273.5 -233.6 L 6202.5 -283.2 L 6091.6 -284.7 L 5999.3 -317.3 L 5837.7 -267.4 L 5634.9 -175.9 L 5522.9 -157.5 L 5481.4 -148.7 L 5425 -213.7 L 5288.1 -199.5 L 5242.9 -244.6 L 5168.6 -265.2 L 5117.5 -326.6 L 5058.8 -345.7 L 4906.2 -318.4 L 4759.8 -379.6 L 4703.2 -324 L 4465.8 -593.8 L 4330.3 -675.9 L 4369.1 -709.2 L 4102.9 -608.9 L 4001 -602.9 L 4009.8 -660.9 L 3873.3 -697.1 L 3762.4 -671.3 L 3728.9 -781.4 L 3538 -804.3 L 3442.5 -760.2 L 3176.7 -721 L 3124.8 -694.7 L 2727.2 -657.8 L 2678.5 -621.5 L 2755.2 -548.7 L 2653.2 -521.1 L 2673.1 -492.2 L 2571.2 -440.4 L 2743.3 -367.3 L 2716.7 -317 L 2567.5 -321.6 L 2536.6 -290.1 L 2400.7 -345.1 L 2232.3 -343 L 2119.6 -298.2 L 1993.8 -341.2 L 1759.6 -414.7 L 1593.6 -412 L 1374.3 -296.4 L 1361.1 -218.8 L 1251.8 -280.4 L 1167.1 -163.7 L 1198.1 -142 L 1136.8 -61.5 L 1227 10.5 L 1305.8 7.6 L 1373.5 78.6 L 1362.7 133.2 L 1416.7 150.4 Z M 6163.2 -3528.2 L 6393 -3552.2 L 6599.4 -3498.7 L 6844.1 -3396 L 6817.9 -3300.5 L 6586.1 -3287.2 L 6290.1 -3317.9 L 6113.8 -3358.4 L 6032.3 -3434.6 L 5887.3 -3455.6 L 6163.2 -3528.2 Z M 7125.8 -3343 L 7395 -3282.7 L 7363.5 -3239.5 L 6764.6 -3198.5 L 6958.6 -3338 L 7045.9 -3349.9 L 7125.8 -3343 Z M 10949.7 -3008.9 L 11230.3 -3004.3 L 11614.3 -2947.9 L 11530.7 -2869 L 11139.1 -2872 L 10962.9 -2846.9 L 10752.5 -2916 L 10809.6 -2989 L 10949.7 -3008.9 Z M 11947.5 -2924.9 L 12214.1 -2897.1 L 12091.3 -2855.1 L 11921.4 -2864.6 L 11724 -2906.5 L 11749.4 -2940.9 L 11947.5 -2924.9 Z M 11059.4 -2715 L 11160.1 -2757 L 11293 -2766.8 L 11443.9 -2726.2 L 11456.8 -2698.2 L 11295.7 -2697.5 L 11078 -2709.3 L 11059.4 -2715 Z M 964.7 -3482 L 1172.1 -3501.4 L 1333.5 -3502.7 L 1355.3 -3474 L 1416.3 -3499.5 L 1516.4 -3517 L 1674 -3493.7 L 1632.9 -3477.5 L 1490.3 -3463.5 L 1394.7 -3455.4 L 1379.9 -3438 L 1255.7 -3420.4 L 1140.6 -3445.6 L 1201.2 -3478.8 L 964.7 -3482 Z M -1384.9 -691.9 L -1580.3 -690.3 L -1711.1 -702.4 L -1686.9 -749.1 L -1540.3 -783.6 L -1429 -765 L -1382.1 -748.1 L -1393.4 -719 L -1384.9 -691.9 Z M 1884.9 -2755.3 L 2139.3 -2848.6 L 2110.5 -2896.8 L 2348.2 -2952.9 L 2698.9 -3021.2 L 3052.5 -3041 L 3234.5 -3080.4 L 3441.2 -3094.2 L 3515.1 -3052.3 L 3443.7 -3019.2 L 3067.3 -2966.5 L 2742.8 -2915.9 L 2412.8 -2814.8 L 2254.5 -2711.1 L 2088 -2608.9 L 2109.6 -2520.6 L 2312.8 -2433.5 L 2250 -2424.2 L 1902.9 -2438 L 1874.7 -2485.1 L 1682.4 -2513.6 L 1666.9 -2571 L 1775.5 -2593.8 L 1771.9 -2651.7 L 1982.6 -2742.3 L 1884.9 -2755.3 Z M 11383.6 -625.7 L 11420.3 -523.3 L 11417.6 -418.8 L 11461.5 -311.6 L 11568.4 -123.4 L 11411.1 -158.5 L 11345.7 -4.9 L 11449.3 103.9 L 11446.3 178.2 L 11365.8 114.1 L 11296.2 196.4 L 11276.5 107.2 L 11288.4 3.7 L 11276.2 -110.9 L 11300.8 -191.2 L 11305.5 -333.3 L 11243.3 -437.7 L 11252.7 -582.9 L 11350.9 -631.8 L 11308.7 -681 L 11356 -696 L 11383.6 -625.7 Z M -22384.5 -2060.1 L -22393.6 -1994.1 L -22322 -1967.6 L -22346.6 -2044.8 L -22058.2 -2029 L -21850.2 -1929.6 L -21955.6 -1883.3 L -22129.7 -1872.3 L -22132.3 -1768.5 L -22174.9 -1746.4 L -22274.4 -1749.5 L -22355.3 -1786.6 L -22496.6 -1817.6 L -22520.4 -1863.6 L -22628.2 -1881 L -22749.1 -1867.2 L -22806.8 -1904.4 L -22783.7 -1943.9 L -22911 -1918.7 L -22863 -1868.7 L -22923.3 -1823.6 L -22923.3 -2246.8 L -22663 -2165.7 L -22384.5 -2060.1 Z M -22784.5 -2451.8 L -22923.3 -2445.4 L -22923.3 -2518 L -22909.7 -2522.4 L -22819.7 -2522.2 L -22666 -2491.8 L -22675.1 -2477.3 L -22784.5 -2451.8 Z M -247.6 195.8 L -219.6 169.5 L -144.1 192.3 L -109.9 196.5 L -96.1 217.5 L -80.1 220.7 L -79.2 229.9 L -27.2 255.5 L 81.1 249.1 L 60.4 287.1 L -55.9 305.5 L -200.2 366.9 L -259.2 345.3 L -235.8 295.4 L -351.9 264.3 L -333.1 243.9 L -231.4 208.6 L -247.6 195.8 Z" />
<path class="neighbor" d="M 1141 960.9 L 1102.5 964 L 1059.1 902.6 L 1059.6 886.2 L 1012.7 886.4 L 981.2 857.9 L 959.1 860.8 L 917.2 829.8 L 838.2 803.3 L 848.5 751.6 L 830.4 714.3 L 978.1 697.7 L 1000.1 725.6 L 1040.5 744 L 1019.1 770.6 L 1075.7 807.1 L 1045.8 840.9 L 1090.9 869.8 L 1138.6 887.2 L 1141 960.9 Z" />
<path class="neighbor" d="M 956.8 1130.9 L 905.9 1148.9 L 868.6 1121.8 L 745 1108.1 L 699.4 1124.6 L 578.6 1141.1 L 521.3 1139.3 L 399.1 1179.2 L 311.7 1179.5 L 255.1 1159.5 L 138.1 1189.1 L 103.4 1168.4 L 97.6 1227.7 L 69.2 1250.9 L 40.7 1274.2 L 1.7 1226 L 41.9 1186.1 L -22.9 1195.2 L -111.8 1170.7 L -184.8 1231.9 L -346.1 1243.8 L -432.1 1186.8 L -546.6 1183.2 L -571.1 1227.3 L -644.5 1239.9 L -747.3 1183.3 L -863.2 1185.3 L -926.2 1079.6 L -1003.8 1020.7 L -952.1 938 L -1019.5 887.3 L -901.6 785.7 L -738 781.4 L -693.4 700.7 L -490.9 714.7 L -363.2 645.8 L -239.4 615.8 L -63.6 613.5 L 121.8 688.4 L 274.2 729.5 L 398 713.1 L 489.5 722.6 L 614.9 667.1 L 728.1 662.1 L 830.4 714.3 L 848.5 751.6 L 838.2 803.3 L 917.2 829.8 L 959.1 860.8 L 886.3 891 L 919.5 1012.9 L 898.7 1045.8 L 956.8 1130.9 L 956.8 1130.9 Z M -1025.2 636.2 L -916.9 602.8 L -825.5 617 L -812.8 657.9 L -720.1 692.2 L -739.4 718.2 L -865.6 724.1 L -910.9 756.9 L -999.6 814.1 L -1033 764.7 L -1031.5 742.7 L -1006.3 730.8 L -973.4 664.3 L -1025.2 636.2 Z" />
<path class="neighbor" d="M 1130.3 632.6 L 1160.1 636.2 L 1233.1 700.7 L 1280.1 708 L 1298.4 680.9 L 1361.8 638.1 L 1417.7 694.1 L 1471.7 769.4 L 1521.2 774.4 L 1553.9 803 L 1466.4 811.6 L 1447.9 894.1 L 1429.7 931.3 L 1390.7 956.1 L 1393.5 1008.7 L 1367.1 1014 L 1300.9 958.4 L 1337.5 905.8 L 1306.1 874.7 L 1266.3 882.5 L 1141 960.9 L 1138.6 887.2 L 1090.9 869.8 L 1045.8 840.9 L 1075.7 807.1 L 1019.1 770.6 L 1040.5 744 L 1000.1 725.6 L 978.1 697.7 L 1004.1 680.3 L 1083.3 710.9 L 1140.5 717.2 L 1155 704.7 L 1102.7 647.3 L 1130.3 632.6 Z M 1102.5 964 L 1029.6 949.9 L 976 900.9 L 959.1 860.8 L 981.2 857.9 L 1012.7 886.4 L 1059.6 886.2 L 1059.1 902.6 L 1102.5 964 Z" />

<path class="country" d="M 445 465.3 L 458 452.8 L 547.8 471 L 704.2 488.2 L 848.8 539.1 L 867.4 558.8 L 931.9 542.2 L 1030.9 564.4 L 1063.5 608 L 1130.3 632.6 L 1102.7 647.3 L 1155 704.7 L 1140.5 717.2 L 1083.3 710.9 L 1004.1 680.3 L 978.1 697.7 L 830.4 714.3 L 728.1 662.1 L 614.9 667.1 L 630.7 621.7 L 604.2 549.3 L 542.8 510.1 L 483.9 497.9 L 445 465.3 Z" />


<g class="city"><circle cx="1497.3480932451612" cy="788.0862826147747" r="5" /><text x="1509.3480932451612" y="792.0862826147747">Baku</text></g>
<g class="city"><circle cx="929.0988723606326" cy="810.8347799360727" r="5" /><text x="941.0988723606326" y="814.8347799360727">Yerevan</text></g>
<g class="city"><circle cx="958.5536404186263" cy="646.8131644664984" r="5" /><text x="970.5536404186263" y="650.8131644664984">Tbilisi</text></g>
<g class="city"><circle cx="421.0912412412643" cy="448.8796389111968" r="5" /><text x="433.0912412412643" y="452.8796389111968">Sochi</text></g>
<g class="city"><circle cx="834.1553620666721" cy="458.64385351327314" r="5" /><text x="846.1553620666721" y="462.64385351327314">Nalchik</text></g>
<g class="city"><circle cx="1055.2171976562863" cy="477.7057770886554" r="5" /><text x="1067.2171976562863" y="481.7057770886554">Grozny</text></g>
<g class="city"><circle cx="622.953995713537" cy="660.3006060693116" r="5" /><text x="634.953995713537" y="664.3006060693116">Batumi</text></g>
<g class="city"><circle cx="558.1479601891338" cy="509.43623418519405" r="5" /><text x="570.1479601891338" y="513.436234185194">Sukhumi</text></g>
<text class="map-title" x="80" y="105">Georgia Political Study Map</text>
<text class="map-subtitle" x="80" y="145">Capital: Tbilisi | Continent: Asia</text>
  <text class="footer" x="80" y="1036">Made with Natural Earth. Free vector and raster map data @ naturalearthdata.com.</text>
</svg>
