<?xml version="1.0" encoding="UTF-8"?>
<svg xmlns="http://www.w3.org/2000/svg" width="1600" height="1100" viewBox="0 0 1600 1100" role="img" aria-labelledby="title desc">
  <title id="title">Ghana Political Study Map</title>
  <desc id="desc">Made with Natural Earth. Free vector and raster map data @ naturalearthdata.com.</desc>
  <defs>
    <linearGradient id="terrain" x1="0" x2="1" y1="0" y2="1">
      <stop offset="0%" stop-color="#6c8c53" />
      <stop offset="42%" stop-color="#d5c487" />
      <stop offset="72%" stop-color="#b88b5f" />
      <stop offset="100%" stop-color="#f1f5ee" />
    </linearGradient>
    <filter id="softShadow" x="-10%" y="-10%" width="120%" height="120%">
      <feDropShadow dx="0" dy="10" stdDeviation="12" flood-color="#0f172a" flood-opacity="0.16" />
    </filter>
    <style>
      .neighbor { fill: #ffffff; stroke: #94a3b8; stroke-width: 1.2; opacity: 0.72; }
      .country { fill: #f7f1df; stroke: #1f2937; stroke-width: 4; filter: url(#softShadow); }
      .admin1 { fill: none; stroke: #64748b; stroke-width: 1.1; stroke-dasharray: 6 7; opacity: 0.75; }
      .river { fill: none; stroke: #1d9bd1; stroke-width: 3; stroke-linecap: round; opacity: 0.88; }
      .lake { fill: #8ed1ea; stroke: #0ea5e9; stroke-width: 1.5; opacity: 0.8; }
      .city circle { fill: #ef4444; stroke: #ffffff; stroke-width: 2; }
      .city text, .terrain-label { fill: #172033; font: 700 24px system-ui, sans-serif; paint-order: stroke; stroke: #ffffff; stroke-width: 5; stroke-linejoin: round; }
      .map-title { fill: #0f172a; font: 800 46px system-ui, sans-serif; }
      .map-subtitle { fill: #475569; font: 600 24px system-ui, sans-serif; }
      .footer { fill: #64748b; font: 500 18px system-ui, sans-serif; }
    </style>
  </defs>
  <rect width="100%" height="100%" fill="#eaf3f8" />
  <rect x="40" y="40" width="1520" height="1020" rx="32" fill="#ffffff" opacity="0.54" />
  <path class="neighbor" d="M -2841.3 854.9 L -2883.9 920.8 L -2906 973.8 L -2933.6 1001.2 L -2968.1 1006.3 L -2977.9 986.1 L -2994 983.1 L -3016.3 1002.6 L -3047.8 987.7 L -3029.4 957.4 L -3023.1 924.5 L -3010.5 893.5 L -3038.7 850.9 L -3044.4 801.6 L -3006.9 739.7 L -2982.5 747.6 L -2929.5 764.6 L -2853.2 825.4 L -2841.3 854.9 Z M 1324.1 -2407.7 L 1358.1 -2388.9 L 1461.9 -2375.6 L 1425.5 -2326.3 L 1416.3 -2275 L 1396.6 -2262.7 L 1363.8 -2269.3 L 1366.1 -2251 L 1313.4 -2210.6 L 1312.3 -2178 L 1346.7 -2189.3 L 1371.5 -2157.7 L 1368.5 -2137.3 L 1389.7 -2110.3 L 1364.7 -2088.4 L 1383.3 -2032.6 L 1422.3 -2023.5 L 1414.1 -1992.2 L 1348.8 -1951.6 L 1206.8 -1971.1 L 1101.9 -1947.7 L 1093.7 -1904.3 L 1010.2 -1895 L 929.2 -1927.6 L 903 -1912 L 770.4 -1944.7 L 741.7 -1972.7 L 779 -2015.9 L 792.7 -2159.4 L 718.4 -2235 L 665.3 -2271.4 L 555.2 -2299.1 L 547.9 -2351.6 L 641.3 -2367.3 L 762.2 -2348.7 L 739.4 -2430.3 L 807.4 -2399.4 L 975.1 -2455.5 L 996.7 -2514.5 L 1059.7 -2529.1 L 1070.1 -2503.7 L 1103.6 -2502.6 L 1137 -2473.7 L 1187.3 -2439.7 L 1224.2 -2445.3 L 1287.2 -2412.5 L 1303.4 -2406.2 L 1324.1 -2407.7 Z M 1508.5 -1915.5 L 1554.8 -1943 L 1567.1 -1881.3 L 1543.3 -1825.6 L 1510.6 -1840.3 L 1493.9 -1888.7 L 1508.5 -1915.5 Z" />
<path class="neighbor" d="M 49.5 258.2 L 52.8 235.7 L 46.7 207.9 L 19.7 187.7 L 5.5 146.4 L 2.2 101.6 L 26.4 88.5 L 38.6 46.1 L 61.4 44.4 L 111.7 64.5 L 152.3 50.2 L 180.1 55 L 190.9 39 L 479.9 37.9 L 495.9 -12.5 L 483.4 -21.4 L 448.7 -332.2 L 413.9 -643 L 524.1 -644.2 L 767 -487.1 L 1009.9 -330 L 1027.1 -296.3 L 1071.9 -275.7 L 1105.2 -264 L 1106.1 -218.1 L 1185.9 -225.2 L 1186.1 -59.3 L 1146.8 -11.2 L 1140.6 33.1 L 1076.7 44.5 L 978.4 50.7 L 951.8 76.3 L 905.6 79.2 L 859.5 79.5 L 841.5 65.7 L 801.9 75.9 L 734.5 105.8 L 720.8 128.3 L 664.9 160.6 L 655.1 179.1 L 625 193.7 L 590.1 184 L 570.4 201.6 L 559.8 251 L 502.7 310.7 L 504.3 335.1 L 484.7 365.6 L 489.5 407.4 L 459.8 418.1 L 442.9 427.2 L 431.8 396.4 L 411 404.5 L 398.6 403.1 L 385.3 424.1 L 329.7 423.5 L 309.8 412.7 L 300.4 419.2 L 278.4 398.5 L 282.2 377 L 273.2 368.6 L 257.9 375.7 L 260.7 352.3 L 275.5 333.7 L 245.9 303.6 L 237.4 283.7 L 221.4 267.9 L 207 266 L 189.6 276.1 L 166.4 285.7 L 146.6 301.3 L 115.8 295.5 L 95.8 277.3 L 83.9 274.9 L 65.1 284.5 L 53.7 284.5 L 49.5 258.2 Z" />
<path class="neighbor" d="M 1072.5 703.5 L 1013 711.9 L 995.2 662.2 L 998.5 496.8 L 984 482 L 981.3 446.7 L 956.3 421.4 L 934.3 400.2 L 943.4 362.3 L 968.2 354.1 L 982.9 322.6 L 1018.1 315.9 L 1033.8 294.4 L 1058 273.3 L 1083.8 273.1 L 1138.7 314.5 L 1135.9 338.5 L 1152.1 381.2 L 1137.9 410.2 L 1145.5 429.5 L 1110.5 474.1 L 1088.4 496.2 L 1074.8 541.6 L 1076.6 587.4 L 1072.5 703.5 Z" />
<path class="neighbor" d="M 1948.1 -492.2 L 1965.8 -380.2 L 1992.7 -361.5 L 1993.9 -338.6 L 2023.9 -313.9 L 2008.2 -282.9 L 1980.5 -136.8 L 1976.7 -43.1 L 1884.8 24.8 L 1853.7 119.6 L 1883.7 146.3 L 1883.5 192.6 L 1929.7 194.3 L 1922.5 228.2 L 1902.2 232.3 L 1899.9 255.2 L 1886.5 256.8 L 1837.7 178 L 1820.8 175.1 L 1764.5 215.4 L 1708.8 194.4 L 1670 190.2 L 1649.2 200.3 L 1607 198.1 L 1564.5 228.8 L 1527.8 230.5 L 1440.7 193.3 L 1406.5 211 L 1369.8 209.8 L 1342.8 182.6 L 1270.6 155.7 L 1193.2 164.2 L 1174.5 179.8 L 1164.3 221.2 L 1143.7 250.3 L 1138.7 314.5 L 1083.8 273.1 L 1058 273.3 L 1033.8 294.4 L 1035.4 245.1 L 952.4 228.7 L 950.2 193.9 L 909.6 146.9 L 899.9 114.1 L 905.6 79.2 L 951.8 76.3 L 978.4 50.7 L 1076.7 44.5 L 1140.6 33.1 L 1146.8 -11.2 L 1186.1 -59.3 L 1185.9 -225.2 L 1287.5 -257.3 L 1496 -398.8 L 1742.7 -536 L 1856.7 -505 L 1897.2 -465.4 L 1948.1 -492.2 Z" />
<path class="neighbor" d="M 1072.5 703.5 L 1076.6 587.4 L 1074.8 541.6 L 1088.4 496.2 L 1110.5 474.1 L 1145.5 429.5 L 1137.9 410.2 L 1152.1 381.2 L 1135.9 338.5 L 1138.7 314.5 L 1143.7 250.3 L 1164.3 221.2 L 1174.5 179.8 L 1193.2 164.2 L 1270.6 155.7 L 1342.8 182.6 L 1369.8 209.8 L 1406.5 211 L 1440.7 193.3 L 1527.8 230.5 L 1564.5 228.8 L 1607 198.1 L 1649.2 200.3 L 1670 190.2 L 1708.8 194.4 L 1764.5 215.4 L 1820.8 175.1 L 1837.7 178 L 1886.5 256.8 L 1899.9 255.2 L 1928.4 283.9 L 1920.5 296.9 L 1916.7 320.9 L 1856.1 376.6 L 1837 422.5 L 1826.9 460 L 1811.6 476 L 1797.1 526.4 L 1758.5 556.1 L 1747.4 592.5 L 1731.2 621.5 L 1724.5 651.5 L 1675 675.7 L 1634.6 646.1 L 1607.3 647.3 L 1564.4 689.5 L 1543.5 690.1 L 1509.3 759.6 L 1490.8 810.6 L 1416 836.5 L 1388.7 832.7 L 1361 848.8 L 1303.4 847.3 L 1264.8 802.2 L 1241.1 750.1 L 1190.1 702.6 L 1136 703.5 L 1072.5 703.5 Z" />
<path class="neighbor" d="M 943.4 362.3 L 934.3 400.2 L 956.3 421.4 L 981.3 446.7 L 984 482 L 998.5 496.8 L 995.2 662.2 L 1013 711.9 L 955 727.3 L 938.9 702 L 919.7 656.3 L 914 620.5 L 929.9 555.6 L 911.9 529.3 L 905 472.6 L 905.1 420.3 L 875.1 383.2 L 880.4 360.7 L 943.4 362.3 Z" />
<path class="neighbor" d="M 300.4 419.2 L 309.8 412.7 L 329.7 423.5 L 385.3 424.1 L 398.6 403.1 L 411 404.5 L 431.8 396.4 L 442.9 427.2 L 459.8 418.1 L 489.5 407.4 L 521.9 423.1 L 534.4 446.9 L 566.8 462.1 L 592 444 L 625.7 441.3 L 675 459.8 L 694.1 562.3 L 663.8 622.8 L 645 704.1 L 676.2 766.1 L 673 794.5 L 640.2 795.3 L 590 781.2 L 543.8 782 L 458.5 794.6 L 408.5 815.4 L 337.2 841.8 L 323.3 839.9 L 328.8 780.6 L 335.7 771.6 L 333.5 743.2 L 303 713.1 L 280.1 708.2 L 259.1 688.5 L 274.8 656.5 L 267.6 621.7 L 270.9 600.7 L 282.3 600.6 L 286.6 569.2 L 281 555.3 L 287.9 545.3 L 314.6 536.7 L 296.9 479 L 280.3 449.2 L 286 424.8 L 300.4 419.2 Z" />
<path class="neighbor" d="M 489.5 407.4 L 484.7 365.6 L 504.3 335.1 L 502.7 310.7 L 559.8 251 L 570.4 201.6 L 590.1 184 L 625 193.7 L 655.1 179.1 L 664.9 160.6 L 720.8 128.3 L 734.5 105.8 L 801.9 75.9 L 841.5 65.7 L 859.5 79.5 L 905.6 79.2 L 899.9 114.1 L 909.6 146.9 L 950.2 193.9 L 952.4 228.7 L 1035.4 245.1 L 1033.8 294.4 L 1018.1 315.9 L 982.9 322.6 L 968.2 354.1 L 943.4 362.3 L 880.4 360.7 L 847.1 355 L 823.8 366.6 L 792 361.4 L 666.9 364.8 L 665.2 405.6 L 675 459.8 L 625.7 441.3 L 592 444 L 566.8 462.1 L 534.4 446.9 L 521.9 423.1 L 489.5 407.4 Z" />

<path class="country" d="M 880.4 360.7 L 875.1 383.2 L 905.1 420.3 L 905 472.6 L 911.9 529.3 L 929.9 555.6 L 914 620.5 L 919.7 656.3 L 938.9 702 L 955 727.3 L 842.1 769.4 L 802.1 794.1 L 737.2 815 L 673 794.5 L 676.2 766.1 L 645 704.1 L 663.8 622.8 L 694.1 562.3 L 675 459.8 L 665.2 405.6 L 666.9 364.8 L 792 361.4 L 823.8 366.6 L 847.1 355 L 880.4 360.7 Z" />


<g class="city"><circle cx="589.1446941934873" cy="770.8812181633372" r="5" /><text x="601.1446941934873" y="774.8812181633372">Abidjan</text></g>
<g class="city"><circle cx="862.8992064502161" cy="754.4011251622018" r="5" /><text x="874.8992064502161" y="758.4011251622018">Accra</text></g>
<g class="city"><circle cx="966.5576476949548" cy="712.4974854720948" r="5" /><text x="978.5576476949548" y="716.4974854720948">Lomé</text></g>
<g class="city"><circle cx="768.7077416463273" cy="263.2631872018867" r="5" /><text x="780.7077416463273" y="267.2631872018867">Ouagadougou</text></g>
<g class="city"><circle cx="1030.9285507756174" cy="180.71005806465658" r="5" /><text x="1042.9285507756174" y="184.71005806465658">Niamey</text></g>
<g class="city"><circle cx="1051.786287749032" cy="695.9998937049371" r="5" /><text x="1063.786287749032" y="699.9998937049371">Cotonou</text></g>
<g class="city"><circle cx="516.4270957543184" cy="600.4406446959938" r="5" /><text x="528.4270957543184" y="604.4406446959938">Bouaké</text></g>
<g class="city"><circle cx="569.7178954078497" cy="349.12142277585406" r="5" /><text x="581.7178954078497" y="353.12142277585406">Bobo Dioulasso</text></g>
<text class="map-title" x="80" y="105">Ghana Political Study Map</text>
<text class="map-subtitle" x="80" y="145">Capital: Accra | Continent: Africa</text>
  <text class="footer" x="80" y="1036">Made with Natural Earth. Free vector and raster map data @ naturalearthdata.com.</text>
</svg>
