<?xml version="1.0" encoding="UTF-8"?>
<svg xmlns="http://www.w3.org/2000/svg" width="1600" height="1100" viewBox="0 0 1600 1100" role="img" aria-labelledby="title desc">
  <title id="title">Ghana Physical Study Map</title>
  <desc id="desc">Made with Natural Earth. Free vector and raster map data @ naturalearthdata.com.</desc>
  <defs>
    <linearGradient id="terrain" x1="0" x2="1" y1="0" y2="1">
      <stop offset="0%" stop-color="#6c8c53" />
      <stop offset="42%" stop-color="#d5c487" />
      <stop offset="72%" stop-color="#b88b5f" />
      <stop offset="100%" stop-color="#f1f5ee" />
    </linearGradient>
    <filter id="softShadow" x="-10%" y="-10%" width="120%" height="120%">
      <feDropShadow dx="0" dy="10" stdDeviation="12" flood-color="#0f172a" flood-opacity="0.16" />
    </filter>
    <style>
      .neighbor { fill: #ffffff; stroke: #94a3b8; stroke-width: 1.2; opacity: 0.72; }
      .country { fill: url(#terrain); stroke: #1f2937; stroke-width: 4; filter: url(#softShadow); }
      .admin1 { fill: none; stroke: #64748b; stroke-width: 1.1; stroke-dasharray: 6 7; opacity: 0.75; }
      .river { fill: none; stroke: #1d9bd1; stroke-width: 3; stroke-linecap: round; opacity: 0.88; }
      .lake { fill: #8ed1ea; stroke: #0ea5e9; stroke-width: 1.5; opacity: 0.8; }
      .city circle { fill: #ef4444; stroke: #ffffff; stroke-width: 2; }
      .city text, .terrain-label { fill: #172033; font: 700 24px system-ui, sans-serif; paint-order: stroke; stroke: #ffffff; stroke-width: 5; stroke-linejoin: round; }
      .map-title { fill: #0f172a; font: 800 46px system-ui, sans-serif; }
      .map-subtitle { fill: #475569; font: 600 24px system-ui, sans-serif; }
      .footer { fill: #64748b; font: 500 18px system-ui, sans-serif; }
    </style>
  </defs>
  <rect width="100%" height="100%" fill="#d8edf0" />
  <rect x="40" y="40" width="1520" height="1020" rx="32" fill="#ffffff" opacity="0.54" />
  <path class="neighbor" d="M -2841.3 854.9 L -2883.9 920.8 L -2906 973.8 L -2933.6 1001.2 L -2968.1 1006.3 L -2977.9 986.1 L -2994 983.1 L -3016.3 1002.6 L -3047.8 987.7 L -3029.4 957.4 L -3023.1 924.5 L -3010.5 893.5 L -3038.7 850.9 L -3044.4 801.6 L -3006.9 739.7 L -2982.5 747.6 L -2929.5 764.6 L -2853.2 825.4 L -2841.3 854.9 Z M 1324.1 -2407.7 L 1358.1 -2388.9 L 1461.9 -2375.6 L 1425.5 -2326.3 L 1416.3 -2275 L 1396.6 -2262.7 L 1363.8 -2269.3 L 1366.1 -2251 L 1313.4 -2210.6 L 1312.3 -2178 L 1346.7 -2189.3 L 1371.5 -2157.7 L 1368.5 -2137.3 L 1389.7 -2110.3 L 1364.7 -2088.4 L 1383.3 -2032.6 L 1422.3 -2023.5 L 1414.1 -1992.2 L 1348.8 -1951.6 L 1206.8 -1971.1 L 1101.9 -1947.7 L 1093.7 -1904.3 L 1010.2 -1895 L 929.2 -1927.6 L 903 -1912 L 770.4 -1944.7 L 741.7 -1972.7 L 779 -2015.9 L 792.7 -2159.4 L 718.4 -2235 L 665.3 -2271.4 L 555.2 -2299.1 L 547.9 -2351.6 L 641.3 -2367.3 L 762.2 -2348.7 L 739.4 -2430.3 L 807.4 -2399.4 L 975.1 -2455.5 L 996.7 -2514.5 L 1059.7 -2529.1 L 1070.1 -2503.7 L 1103.6 -2502.6 L 1137 -2473.7 L 1187.3 -2439.7 L 1224.2 -2445.3 L 1287.2 -2412.5 L 1303.4 -2406.2 L 1324.1 -2407.7 Z M 1508.5 -1915.5 L 1554.8 -1943 L 1567.1 -1881.3 L 1543.3 -1825.6 L 1510.6 -1840.3 L 1493.9 -1888.7 L 1508.5 -1915.5 Z" />
<path class="neighbor" d="M 49.5 258.2 L 52.8 235.7 L 46.7 207.9 L 19.7 187.7 L 5.5 146.4 L 2.2 101.6 L 26.4 88.5 L 38.6 46.1 L 61.4 44.4 L 111.7 64.5 L 152.3 50.2 L 180.1 55 L 190.9 39 L 479.9 37.9 L 495.9 -12.5 L 483.4 -21.4 L 448.7 -332.2 L 413.9 -643 L 524.1 -644.2 L 767 -487.1 L 1009.9 -330 L 1027.1 -296.3 L 1071.9 -275.7 L 1105.2 -264 L 1106.1 -218.1 L 1185.9 -225.2 L 1186.1 -59.3 L 1146.8 -11.2 L 1140.6 33.1 L 1076.7 44.5 L 978.4 50.7 L 951.8 76.3 L 905.6 79.2 L 859.5 79.5 L 841.5 65.7 L 801.9 75.9 L 734.5 105.8 L 720.8 128.3 L 664.9 160.6 L 655.1 179.1 L 625 193.7 L 590.1 184 L 570.4 201.6 L 559.8 251 L 502.7 310.7 L 504.3 335.1 L 484.7 365.6 L 489.5 407.4 L 459.8 418.1 L 442.9 427.2 L 431.8 396.4 L 411 404.5 L 398.6 403.1 L 385.3 424.1 L 329.7 423.5 L 309.8 412.7 L 300.4 419.2 L 278.4 398.5 L 282.2 377 L 273.2 368.6 L 257.9 375.7 L 260.7 352.3 L 275.5 333.7 L 245.9 303.6 L 237.4 283.7 L 221.4 267.9 L 207 266 L 189.6 276.1 L 166.4 285.7 L 146.6 301.3 L 115.8 295.5 L 95.8 277.3 L 83.9 274.9 L 65.1 284.5 L 53.7 284.5 L 49.5 258.2 Z" />
<path class="neighbor" d="M 1072.5 703.5 L 1013 711.9 L 995.2 662.2 L 998.5 496.8 L 984 482 L 981.3 446.7 L 956.3 421.4 L 934.3 400.2 L 943.4 362.3 L 968.2 354.1 L 982.9 322.6 L 1018.1 315.9 L 1033.8 294.4 L 1058 273.3 L 1083.8 273.1 L 1138.7 314.5 L 1135.9 338.5 L 1152.1 381.2 L 1137.9 410.2 L 1145.5 429.5 L 1110.5 474.1 L 1088.4 496.2 L 1074.8 541.6 L 1076.6 587.4 L 1072.5 703.5 Z" />
<path class="neighbor" d="M 1948.1 -492.2 L 1965.8 -380.2 L 1992.7 -361.5 L 1993.9 -338.6 L 2023.9 -313.9 L 2008.2 -282.9 L 1980.5 -136.8 L 1976.7 -43.1 L 1884.8 24.8 L 1853.7 119.6 L 1883.7 146.3 L 1883.5 192.6 L 1929.7 194.3 L 1922.5 228.2 L 1902.2 232.3 L 1899.9 255.2 L 1886.5 256.8 L 1837.7 178 L 1820.8 175.1 L 1764.5 215.4 L 1708.8 194.4 L 1670 190.2 L 1649.2 200.3 L 1607 198.1 L 1564.5 228.8 L 1527.8 230.5 L 1440.7 193.3 L 1406.5 211 L 1369.8 209.8 L 1342.8 182.6 L 1270.6 155.7 L 1193.2 164.2 L 1174.5 179.8 L 1164.3 221.2 L 1143.7 250.3 L 1138.7 314.5 L 1083.8 273.1 L 1058 273.3 L 1033.8 294.4 L 1035.4 245.1 L 952.4 228.7 L 950.2 193.9 L 909.6 146.9 L 899.9 114.1 L 905.6 79.2 L 951.8 76.3 L 978.4 50.7 L 1076.7 44.5 L 1140.6 33.1 L 1146.8 -11.2 L 1186.1 -59.3 L 1185.9 -225.2 L 1287.5 -257.3 L 1496 -398.8 L 1742.7 -536 L 1856.7 -505 L 1897.2 -465.4 L 1948.1 -492.2 Z" />
<path class="neighbor" d="M 1072.5 703.5 L 1076.6 587.4 L 1074.8 541.6 L 1088.4 496.2 L 1110.5 474.1 L 1145.5 429.5 L 1137.9 410.2 L 1152.1 381.2 L 1135.9 338.5 L 1138.7 314.5 L 1143.7 250.3 L 1164.3 221.2 L 1174.5 179.8 L 1193.2 164.2 L 1270.6 155.7 L 1342.8 182.6 L 1369.8 209.8 L 1406.5 211 L 1440.7 193.3 L 1527.8 230.5 L 1564.5 228.8 L 1607 198.1 L 1649.2 200.3 L 1670 190.2 L 1708.8 194.4 L 1764.5 215.4 L 1820.8 175.1 L 1837.7 178 L 1886.5 256.8 L 1899.9 255.2 L 1928.4 283.9 L 1920.5 296.9 L 1916.7 320.9 L 1856.1 376.6 L 1837 422.5 L 1826.9 460 L 1811.6 476 L 1797.1 526.4 L 1758.5 556.1 L 1747.4 592.5 L 1731.2 621.5 L 1724.5 651.5 L 1675 675.7 L 1634.6 646.1 L 1607.3 647.3 L 1564.4 689.5 L 1543.5 690.1 L 1509.3 759.6 L 1490.8 810.6 L 1416 836.5 L 1388.7 832.7 L 1361 848.8 L 1303.4 847.3 L 1264.8 802.2 L 1241.1 750.1 L 1190.1 702.6 L 1136 703.5 L 1072.5 703.5 Z" />
<path class="neighbor" d="M 943.4 362.3 L 934.3 400.2 L 956.3 421.4 L 981.3 446.7 L 984 482 L 998.5 496.8 L 995.2 662.2 L 1013 711.9 L 955 727.3 L 938.9 702 L 919.7 656.3 L 914 620.5 L 929.9 555.6 L 911.9 529.3 L 905 472.6 L 905.1 420.3 L 875.1 383.2 L 880.4 360.7 L 943.4 362.3 Z" />
<path class="neighbor" d="M 300.4 419.2 L 309.8 412.7 L 329.7 423.5 L 385.3 424.1 L 398.6 403.1 L 411 404.5 L 431.8 396.4 L 442.9 427.2 L 459.8 418.1 L 489.5 407.4 L 521.9 423.1 L 534.4 446.9 L 566.8 462.1 L 592 444 L 625.7 441.3 L 675 459.8 L 694.1 562.3 L 663.8 622.8 L 645 704.1 L 676.2 766.1 L 673 794.5 L 640.2 795.3 L 590 781.2 L 543.8 782 L 458.5 794.6 L 408.5 815.4 L 337.2 841.8 L 323.3 839.9 L 328.8 780.6 L 335.7 771.6 L 333.5 743.2 L 303 713.1 L 280.1 708.2 L 259.1 688.5 L 274.8 656.5 L 267.6 621.7 L 270.9 600.7 L 282.3 600.6 L 286.6 569.2 L 281 555.3 L 287.9 545.3 L 314.6 536.7 L 296.9 479 L 280.3 449.2 L 286 424.8 L 300.4 419.2 Z" />
<path class="neighbor" d="M 489.5 407.4 L 484.7 365.6 L 504.3 335.1 L 502.7 310.7 L 559.8 251 L 570.4 201.6 L 590.1 184 L 625 193.7 L 655.1 179.1 L 664.9 160.6 L 720.8 128.3 L 734.5 105.8 L 801.9 75.9 L 841.5 65.7 L 859.5 79.5 L 905.6 79.2 L 899.9 114.1 L 909.6 146.9 L 950.2 193.9 L 952.4 228.7 L 1035.4 245.1 L 1033.8 294.4 L 1018.1 315.9 L 982.9 322.6 L 968.2 354.1 L 943.4 362.3 L 880.4 360.7 L 847.1 355 L 823.8 366.6 L 792 361.4 L 666.9 364.8 L 665.2 405.6 L 675 459.8 L 625.7 441.3 L 592 444 L 566.8 462.1 L 534.4 446.9 L 521.9 423.1 L 489.5 407.4 Z" />
<path class="lake" d="M 898.2 673.6 L 898.2 673.6 L 898.2 673.6 L 900.2 670.4 L 901.5 669 L 900.9 671.9 L 898.5 675.5 L 895.2 677.8 L 892.5 678.4 L 891 677.9 L 890.2 677.6 L 889.6 678.2 L 889.7 679.1 L 889.5 681.1 L 889.2 683.4 L 888.8 685.7 L 888.2 689.8 L 888.6 695.8 L 886.1 697.8 L 884.5 696.7 L 883.9 693 L 881.6 693 L 877.9 694.8 L 876.2 692.7 L 874.3 689.6 L 871.5 686.9 L 866.1 683.8 L 860.3 680 L 855.3 677.4 L 847.9 674 L 839 670.5 L 833 667.9 L 830.1 664.4 L 829.4 662.1 L 831.1 661.9 L 834.3 664 L 836.9 665.6 L 839 663.7 L 841.4 665 L 843.3 669.1 L 845 670.1 L 846.8 669.8 L 848.5 669.5 L 849.2 667 L 849.4 663.3 L 850.3 662.5 L 852.2 666.5 L 854.5 670.6 L 856.7 670.5 L 859.1 670.1 L 862.2 669.3 L 864.7 668.8 L 866 670 L 866.9 672.8 L 868.3 675.5 L 871.7 676.9 L 874.5 676.8 L 875.7 673.4 L 876.8 670.3 L 877.4 669.4 L 877 668.3 L 875.1 666.8 L 873.8 665.3 L 873.5 663.9 L 873.9 662.7 L 875.6 661.1 L 877.8 660.7 L 879.5 661.3 L 880.8 661 L 884.2 659.5 L 886.7 657.6 L 886.1 656.6 L 882.9 656.3 L 881.6 654 L 884.9 652 L 887.3 652.2 L 887.5 651.3 L 885.8 649.8 L 885 648.5 L 885.3 647.5 L 885.9 646.3 L 885.7 644.4 L 884.8 641.4 L 884.7 639.5 L 883.4 639.2 L 881.9 638.3 L 880.6 637.4 L 879.4 636.7 L 879.2 635 L 879.7 635 L 881.1 635.7 L 883.2 636.1 L 884.6 636.2 L 885.8 636.2 L 887.2 635.5 L 888.8 634.1 L 889.7 632.8 L 890.2 632 L 891.2 632 L 891.9 631 L 891.9 629.5 L 891.1 628.2 L 889.9 627.9 L 888.3 627.6 L 886 625.4 L 883.5 621.8 L 882.3 619 L 882.3 617.8 L 882.1 617 L 881.9 615.7 L 878.5 614.1 L 874.1 613.6 L 874.4 616.6 L 873.9 618.1 L 871 617.1 L 869.4 616.2 L 868.8 614.4 L 867.3 613.4 L 863.8 613.2 L 861.2 612.9 L 861.9 611.8 L 863.7 610.8 L 866.5 610.5 L 869 610.3 L 871.1 610.4 L 873.5 610.6 L 876.7 610.8 L 879.5 611.1 L 877.4 607.5 L 874.1 603.9 L 870.7 603.7 L 865.5 603.6 L 861.2 604.1 L 854.5 605.7 L 847.5 607.4 L 844.5 607.7 L 842.8 607.2 L 840.4 608.6 L 835.2 610.3 L 831.6 610.4 L 834.6 609.3 L 839.5 606.9 L 843.9 605.2 L 848.3 603.4 L 853 602.3 L 857.4 602.1 L 859.8 600.9 L 860.2 599.3 L 860.4 598.3 L 863.5 598.7 L 867 598.2 L 869.6 596.8 L 871.6 596.4 L 871.4 595.7 L 869 594.9 L 867.3 594.1 L 867.2 592.9 L 867.7 591.6 L 867.7 589.6 L 866.4 586.1 L 865.2 583.4 L 864.8 581.3 L 862.5 579.8 L 858.1 577 L 855.9 575.2 L 853.9 575.4 L 853.4 578 L 851 579.6 L 848.6 580.1 L 850.2 578.1 L 851.3 574.6 L 848.7 572.4 L 846.5 571.6 L 842.8 574 L 840.7 573.6 L 840.8 568.9 L 839.6 567.1 L 838.2 568.5 L 836.1 570.9 L 833.7 572 L 832.4 571.9 L 832.4 570.5 L 828.7 570.2 L 824.2 570.8 L 823.9 569.6 L 824.8 568.4 L 826.7 568.4 L 831.5 567.9 L 835.2 566.7 L 835.4 565.7 L 833.9 564.4 L 830 560.9 L 826.5 557.9 L 824.4 556.7 L 821.4 555.4 L 820.9 554 L 822.2 551.8 L 818.3 545.9 L 813 538.1 L 809.2 534.6 L 806.7 532.7 L 803.7 531.6 L 800.4 532 L 797.4 532.6 L 796.5 535.3 L 795.6 538.4 L 793.7 534.6 L 790.9 530.7 L 788.4 530 L 784.8 528 L 781.3 526 L 777.5 524.9 L 774.8 525.5 L 771.5 527.9 L 767.4 530.3 L 763.1 531.8 L 758.8 532.9 L 755.1 532.7 L 758.9 529.6 L 764.1 528.1 L 769.3 525.5 L 773.1 523.3 L 777 521.9 L 779.5 520.2 L 781 521.1 L 785.5 524.1 L 787.2 525.9 L 797.6 527.4 L 802.2 526.1 L 801.8 524.1 L 799.7 521.7 L 797 519.6 L 796.2 515.2 L 794.1 510.1 L 793.8 507.6 L 793.8 504.2 L 794.1 500.8 L 795.7 497.7 L 797.2 500.6 L 797.5 504.1 L 797.6 507.5 L 797.9 511.2 L 799 513.5 L 801.2 516.7 L 803.4 517.4 L 804.8 517.4 L 806.9 522.3 L 811.6 531.1 L 815.8 535.9 L 818 536.4 L 819.8 534.9 L 819.8 531.3 L 819.3 527.2 L 820.4 524.6 L 821.7 523.3 L 822.3 523.7 L 821.4 526.2 L 820.6 528.5 L 823.2 530.9 L 826.6 532.1 L 827.8 531.8 L 827.7 533.1 L 824.1 536.5 L 820.7 540.7 L 821.3 542.3 L 822.3 544.4 L 826.7 549.2 L 831.1 552.4 L 833.5 554.4 L 835.8 557.3 L 837.9 558.3 L 838.7 560.1 L 840.7 561.4 L 843.7 563 L 846.3 563 L 850.3 562.2 L 853.1 560.6 L 855.8 560.5 L 858.1 559.9 L 861 560.5 L 864.1 562.8 L 864.8 564.7 L 860.2 564.8 L 855.5 565.4 L 854.9 566.8 L 856.4 567.9 L 859.7 570.3 L 864.9 574.3 L 869.4 577.3 L 871.2 579.9 L 872.8 587 L 874.9 591.7 L 876.9 593.1 L 878.8 593 L 880 593.3 L 882.6 593.1 L 883.7 591 L 882.8 588 L 882.7 586.4 L 882.9 583.9 L 883.9 580.3 L 884.3 577.9 L 883.1 575.2 L 883.7 572.3 L 885.8 571.4 L 888 571.9 L 889.7 572.5 L 890.9 571.9 L 890.5 569.8 L 889.6 566.5 L 887.5 563 L 886.2 560.7 L 888.5 559.9 L 890.8 557.3 L 892.9 553.8 L 894.3 552 L 890.2 550.7 L 885.3 549.1 L 884.4 547.2 L 885.3 545 L 885.2 542.1 L 884.8 538.7 L 886.3 536.1 L 888.4 535.1 L 889.4 532.5 L 890.2 527.7 L 891.9 524.7 L 892.9 525 L 891.9 528.4 L 890.8 533.1 L 889.6 535.5 L 887.8 536.8 L 887.4 540.8 L 886.8 545.2 L 886 546.9 L 886.9 548.2 L 891.5 549.4 L 896.1 550.8 L 897.4 552.5 L 898.8 553.6 L 899.8 554 L 899.1 554.6 L 896.1 554.9 L 894.1 555.5 L 894.3 556.8 L 892.3 560 L 891.9 563.3 L 893.1 566.2 L 895.3 569.1 L 897.9 570.5 L 897.9 571.3 L 895.9 571.8 L 892.9 572.4 L 890.2 573.8 L 889.1 576.6 L 887.4 580.1 L 886.5 582.5 L 887.6 584.4 L 889.1 585.7 L 890.7 588 L 894.6 586.6 L 897.2 585 L 896.7 587.1 L 896.8 588 L 896.5 589 L 895.7 590.1 L 896.5 592.3 L 898.6 595.2 L 898.8 599.8 L 898.9 605.7 L 898.9 608.7 L 897.3 608.3 L 896 608.5 L 895.1 610.1 L 895.1 611.5 L 896.1 613.4 L 896.6 614.8 L 899.2 613.1 L 901.7 611.1 L 901.2 613.7 L 900.4 616.3 L 900 617.5 L 899.9 620.2 L 899.3 622.6 L 898.5 624.7 L 898.6 625.7 L 898.6 626.4 L 899.7 628.3 L 899.8 630.1 L 898.5 631.6 L 898.2 633.3 L 898.8 634.4 L 898.9 635.7 L 898.8 637 L 898.5 637.7 L 898.2 640.2 L 899.4 642.5 L 900.6 643 L 900.2 645 L 898.9 646.7 L 898.3 650 L 897.6 653.8 L 895.9 657.6 L 895.7 666.8 L 896.9 673.7 L 898.2 673.6 Z M 888 673.2 L 888 673.2 L 888 673.2 L 891.7 669.9 L 890.1 666.9 L 886.9 664.8 L 883.1 664 L 879.9 666.1 L 879.5 670.5 L 882.2 672.1 L 885.1 674.7 L 888 673.2 Z" />
<path class="lake" d="M 898.2 673.6 L 898.2 673.6 L 898.2 673.6 L 900.2 670.4 L 901.5 669 L 900.9 671.9 L 898.5 675.5 L 895.2 677.8 L 892.5 678.4 L 891 677.9 L 890.2 677.6 L 889.6 678.2 L 889.7 679.1 L 889.5 681.1 L 889.2 683.4 L 888.8 685.7 L 888.2 689.8 L 888.6 695.8 L 886.1 697.8 L 884.5 696.7 L 883.9 693 L 881.6 693 L 877.9 694.8 L 876.2 692.7 L 874.3 689.6 L 871.5 686.9 L 866.1 683.8 L 860.3 680 L 855.3 677.4 L 847.9 674 L 839 670.5 L 833 667.9 L 830.1 664.4 L 829.4 662.1 L 831.1 661.9 L 834.3 664 L 836.9 665.6 L 839 663.7 L 841.4 665 L 843.3 669.1 L 845 670.1 L 846.8 669.8 L 848.5 669.5 L 849.2 667 L 849.4 663.3 L 850.3 662.5 L 852.2 666.5 L 854.5 670.6 L 856.7 670.5 L 859.1 670.1 L 862.2 669.3 L 864.7 668.8 L 866 670 L 866.9 672.8 L 868.3 675.5 L 871.7 676.9 L 874.5 676.8 L 875.7 673.4 L 876.8 670.3 L 877.4 669.4 L 877 668.3 L 875.1 666.8 L 873.8 665.3 L 873.5 663.9 L 873.9 662.7 L 875.6 661.1 L 877.8 660.7 L 879.5 661.3 L 880.8 661 L 884.2 659.5 L 886.7 657.6 L 886.1 656.6 L 882.9 656.3 L 881.6 654 L 884.9 652 L 887.3 652.2 L 887.5 651.3 L 885.8 649.8 L 885 648.5 L 885.3 647.5 L 885.9 646.3 L 885.7 644.4 L 884.8 641.4 L 884.7 639.5 L 883.4 639.2 L 881.9 638.3 L 880.6 637.4 L 879.4 636.7 L 879.2 635 L 879.7 635 L 881.1 635.7 L 883.2 636.1 L 884.6 636.2 L 885.8 636.2 L 887.2 635.5 L 888.8 634.1 L 889.7 632.8 L 890.2 632 L 891.2 632 L 891.9 631 L 891.9 629.5 L 891.1 628.2 L 889.9 627.9 L 888.3 627.6 L 886 625.4 L 883.5 621.8 L 882.3 619 L 882.3 617.8 L 882.1 617 L 881.9 615.7 L 878.5 614.1 L 874.1 613.6 L 874.4 616.6 L 873.9 618.1 L 871 617.1 L 869.4 616.2 L 868.8 614.4 L 867.3 613.4 L 863.8 613.2 L 861.2 612.9 L 861.9 611.8 L 863.7 610.8 L 866.5 610.5 L 869 610.3 L 871.1 610.4 L 873.5 610.6 L 876.7 610.8 L 879.5 611.1 L 877.4 607.5 L 874.1 603.9 L 870.7 603.7 L 865.5 603.6 L 861.2 604.1 L 854.5 605.7 L 847.5 607.4 L 844.5 607.7 L 842.8 607.2 L 840.4 608.6 L 835.2 610.3 L 831.6 610.4 L 834.6 609.3 L 839.5 606.9 L 843.9 605.2 L 848.3 603.4 L 853 602.3 L 857.4 602.1 L 859.8 600.9 L 860.2 599.3 L 860.4 598.3 L 863.5 598.7 L 867 598.2 L 869.6 596.8 L 871.6 596.4 L 871.4 595.7 L 869 594.9 L 867.3 594.1 L 867.2 592.9 L 867.7 591.6 L 867.7 589.6 L 866.4 586.1 L 865.2 583.4 L 864.8 581.3 L 862.5 579.8 L 858.1 577 L 855.9 575.2 L 853.9 575.4 L 853.4 578 L 851 579.6 L 848.6 580.1 L 850.2 578.1 L 851.3 574.6 L 848.7 572.4 L 846.5 571.6 L 842.8 574 L 840.7 573.6 L 840.8 568.9 L 839.6 567.1 L 838.2 568.5 L 836.1 570.9 L 833.7 572 L 832.4 571.9 L 832.4 570.5 L 828.7 570.2 L 824.2 570.8 L 823.9 569.6 L 824.8 568.4 L 826.7 568.4 L 831.5 567.9 L 835.2 566.7 L 835.4 565.7 L 833.9 564.4 L 830 560.9 L 826.5 557.9 L 824.4 556.7 L 821.4 555.4 L 820.9 554 L 822.2 551.8 L 818.3 545.9 L 813 538.1 L 809.2 534.6 L 806.7 532.7 L 803.7 531.6 L 800.4 532 L 797.4 532.6 L 796.5 535.3 L 795.6 538.4 L 793.7 534.6 L 790.9 530.7 L 788.4 530 L 784.8 528 L 781.3 526 L 777.5 524.9 L 774.8 525.5 L 771.5 527.9 L 767.4 530.3 L 763.1 531.8 L 758.8 532.9 L 755.1 532.7 L 758.9 529.6 L 764.1 528.1 L 769.3 525.5 L 773.1 523.3 L 777 521.9 L 779.5 520.2 L 781 521.1 L 785.5 524.1 L 787.2 525.9 L 797.6 527.4 L 802.2 526.1 L 801.8 524.1 L 799.7 521.7 L 797 519.6 L 796.2 515.2 L 794.1 510.1 L 793.8 507.6 L 793.8 504.2 L 794.1 500.8 L 795.7 497.7 L 797.2 500.6 L 797.5 504.1 L 797.6 507.5 L 797.9 511.2 L 799 513.5 L 801.2 516.7 L 803.4 517.4 L 804.8 517.4 L 806.9 522.3 L 811.6 531.1 L 815.8 535.9 L 818 536.4 L 819.8 534.9 L 819.8 531.3 L 819.3 527.2 L 820.4 524.6 L 821.7 523.3 L 822.3 523.7 L 821.4 526.2 L 820.6 528.5 L 823.2 530.9 L 826.6 532.1 L 827.8 531.8 L 827.7 533.1 L 824.1 536.5 L 820.7 540.7 L 821.3 542.3 L 822.3 544.4 L 826.7 549.2 L 831.1 552.4 L 833.5 554.4 L 835.8 557.3 L 837.9 558.3 L 838.7 560.1 L 840.7 561.4 L 843.7 563 L 846.3 563 L 850.3 562.2 L 853.1 560.6 L 855.8 560.5 L 858.1 559.9 L 861 560.5 L 864.1 562.8 L 864.8 564.7 L 860.2 564.8 L 855.5 565.4 L 854.9 566.8 L 856.4 567.9 L 859.7 570.3 L 864.9 574.3 L 869.4 577.3 L 871.2 579.9 L 872.8 587 L 874.9 591.7 L 876.9 593.1 L 878.8 593 L 880 593.3 L 882.6 593.1 L 883.7 591 L 882.8 588 L 882.7 586.4 L 882.9 583.9 L 883.9 580.3 L 884.3 577.9 L 883.1 575.2 L 883.7 572.3 L 885.8 571.4 L 888 571.9 L 889.7 572.5 L 890.9 571.9 L 890.5 569.8 L 889.6 566.5 L 887.5 563 L 886.2 560.7 L 888.5 559.9 L 890.8 557.3 L 892.9 553.8 L 894.3 552 L 890.2 550.7 L 885.3 549.1 L 884.4 547.2 L 885.3 545 L 885.2 542.1 L 884.8 538.7 L 886.3 536.1 L 888.4 535.1 L 889.4 532.5 L 890.2 527.7 L 891.9 524.7 L 892.9 525 L 891.9 528.4 L 890.8 533.1 L 889.6 535.5 L 887.8 536.8 L 887.4 540.8 L 886.8 545.2 L 886 546.9 L 886.9 548.2 L 891.5 549.4 L 896.1 550.8 L 897.4 552.5 L 898.8 553.6 L 899.8 554 L 899.1 554.6 L 896.1 554.9 L 894.1 555.5 L 894.3 556.8 L 892.3 560 L 891.9 563.3 L 893.1 566.2 L 895.3 569.1 L 897.9 570.5 L 897.9 571.3 L 895.9 571.8 L 892.9 572.4 L 890.2 573.8 L 889.1 576.6 L 887.4 580.1 L 886.5 582.5 L 887.6 584.4 L 889.1 585.7 L 890.7 588 L 894.6 586.6 L 897.2 585 L 896.7 587.1 L 896.8 588 L 896.5 589 L 895.7 590.1 L 896.5 592.3 L 898.6 595.2 L 898.8 599.8 L 898.9 605.7 L 898.9 608.7 L 897.3 608.3 L 896 608.5 L 895.1 610.1 L 895.1 611.5 L 896.1 613.4 L 896.6 614.8 L 899.2 613.1 L 901.7 611.1 L 901.2 613.7 L 900.4 616.3 L 900 617.5 L 899.9 620.2 L 899.3 622.6 L 898.5 624.7 L 898.6 625.7 L 898.6 626.4 L 899.7 628.3 L 899.8 630.1 L 898.5 631.6 L 898.2 633.3 L 898.8 634.4 L 898.9 635.7 L 898.8 637 L 898.5 637.7 L 898.2 640.2 L 899.4 642.5 L 900.6 643 L 900.2 645 L 898.9 646.7 L 898.3 650 L 897.6 653.8 L 895.9 657.6 L 895.7 666.8 L 896.9 673.7 L 898.2 673.6 Z M 888 673.2 L 888 673.2 L 888 673.2 L 891.7 669.9 L 890.1 666.9 L 886.9 664.8 L 883.1 664 L 879.9 666.1 L 879.5 670.5 L 882.2 672.1 L 885.1 674.7 L 888 673.2 Z" />
<path class="country" d="M 880.4 360.7 L 875.1 383.2 L 905.1 420.3 L 905 472.6 L 911.9 529.3 L 929.9 555.6 L 914 620.5 L 919.7 656.3 L 938.9 702 L 955 727.3 L 842.1 769.4 L 802.1 794.1 L 737.2 815 L 673 794.5 L 676.2 766.1 L 645 704.1 L 663.8 622.8 L 694.1 562.3 L 675 459.8 L 665.2 405.6 L 666.9 364.8 L 792 361.4 L 823.8 366.6 L 847.1 355 L 880.4 360.7 Z" />

<path class="river" d="M 755.3 532.7 L 765.6 529 L 770.5 526.7 L 775.2 523.7 L 779.6 523.3 L 785 526.7 L 793.9 529.7 L 808.3 530.5" />
<path class="river" d="M 808.5 530.5 L 798.6 516.5 L 795.4 508.3 L 795.7 497.7" />
<path class="river" d="M 1211.7 443.8 L 1204.8 416.9 L 1205.4 403.5 L 1214 390.2 M 592.1 53.8 L 578.6 47.7 L 572.8 43.7 L 568.7 37.5" />
<path class="river" d="M 808.3 530.5 L 826.4 552 L 840.7 563.9 L 857.4 573.2 L 867.6 582.1 L 871.4 590.5 L 874.8 595.5 L 877.8 597 L 881.5 603.5 L 885.7 614.8 L 889.8 621.7 L 893.7 624.2 L 895.2 632.5 L 894.4 646.5 L 892.7 655.7 L 890.2 660 L 890.2 664.4 L 892.8 668.8 L 892.6 672.6 L 888.3 676.4 L 886.4 682.5 L 886.1 697.8" />
<path class="river" d="M 499.6 352.1 L 505.3 353.1 L 509.5 351 L 514.3 346 L 519.3 343 L 527.3 341.8 L 539.1 332.8 L 544.6 331 L 547.7 333.2 L 551.8 332.3 L 556.8 328.4 L 563.1 325.5 L 570.7 323.7 L 581.7 311.9 L 596.2 290.2 L 603.6 277.4 L 603.9 273.3 L 606.1 268.8 L 610.4 263.7 L 614.6 261.2 L 618.9 261.2 L 621.7 255.7 L 623 244.8 L 625.8 238.6 L 630.2 237 L 633.4 238.2 L 635.4 242.3 L 638.4 243.6 L 642.6 242.1 L 644.7 244 L 644.7 249.3 L 647.7 254.1 L 653.5 258.4 L 661 261.5 L 669.9 263.3 L 673.5 265.7 L 671.6 268.6 L 672.4 273.1 L 675.8 279.2 L 675.3 283 L 670.8 284.6 L 670.1 288.7 L 673.2 295.3 L 673.1 300.1 L 669.8 303.1 L 671 306 L 676.9 308.6 L 677.7 318.4 L 673.5 335.5 L 672.9 344.6 L 675.8 345.8 L 676.7 350.2 L 674.8 361.5 L 669.3 381.7 L 668.7 391.4 L 671.4 397.5 L 674.3 401.4 L 677.6 403 L 678 405.2 L 675.3 408 L 675.6 410.8 L 678.7 413.8 L 679.4 416.9 L 677.8 420.2 L 678.2 428.1 L 680.6 440.6 L 680.6 448.7 L 678.4 452.4 L 679.5 458.7 L 683.8 467.7 L 685.2 475 L 683.8 480.8 L 684.1 484.4 L 686.1 485.8 L 685 490.4 L 680.9 498.2 L 680.8 502.9 L 684.9 504.3 L 687.9 509.2 L 689.6 517.7 L 694.5 525.5 L 702.5 532.7 L 708.4 541.1 L 712.2 550.8 L 716.9 558.4 L 722.4 564 L 728.3 566.6 L 734.6 566.1 L 739.3 564.3 L 742.4 561 L 745.8 559.8 L 749.5 560.5 L 751.4 559.4 L 751.2 556.2 L 749.2 554.5 L 745.3 554.1 L 742.8 552.4 L 741.5 549.5 L 741.9 544.3 L 743.9 536.9 L 747.5 533.1 L 755.3 532.7" />
<path class="river" d="M 728.7 145.3 L 730.6 169.1 L 726.9 177.3 L 727.1 184 L 730.1 191.8 L 729.6 199.8 L 725.8 208.1 L 724.9 213.2 L 727.1 215 L 735.4 215.3 L 750 214.1 L 761.4 215.8 L 769.8 220.5 L 777 222 L 783.1 220.2 L 787.8 220.8 L 791.1 223.8 L 793.5 229.9 L 794.9 239.1 L 796.5 243.2 L 798.3 242.1 L 799.7 242.7 L 800.7 245.1 L 800 266.1 L 803.4 279.1 L 810.9 291.9 L 816.9 299.6 L 821.2 302.4 L 823.1 307.8 L 822.6 316 L 826.5 321.9 L 834.8 325.7 L 840.2 329.4 L 842.7 332.9 L 843.2 335.4 L 841.8 336.9 L 843.8 341.1 L 849.4 348.1 L 851.8 356.2 L 851 365.4 L 851.7 371.7 L 853.9 375.1 L 854.2 377.6 L 852.8 379.4 L 852.7 382.2 L 854.4 388.2 L 834.8 394.8 L 828.2 394.8 L 828 390.3 L 826.5 388 L 823.6 387.9 L 819.8 390.6 L 815.3 396.2 L 811.2 398.1 L 807.5 396.5 L 804.7 396.5 L 802.8 398.3 L 801.8 402 L 801.8 407.7 L 803 412.3 L 805.3 415.9 L 804.9 419.3 L 801.8 422.5 L 801.6 425.7 L 804.4 428.8 L 806.7 436.9 L 808.3 450.1 L 805.1 456 L 797.3 454.6 L 789.5 456.7 L 782 462.3 L 778.9 468.4 L 780.3 475.1 L 783 480.3 L 787.2 484 L 789.2 487.8 L 788.9 491.8 L 790.5 494.7 L 795.7 497.7" />
<path class="river" d="M 1329.9 794.8 L 1326.8 800 L 1320.2 805.4 L 1316.3 815 L 1314.7 835.9 L 1316.2 845.2 M 1329.9 794.8 L 1330.2 835 M 1343.5 768 L 1337.6 769.3 L 1332.5 771.4 L 1328 774.4 L 1325.8 777.2 L 1325.8 779.7 L 1323 782.3 L 1317.2 785.2 L 1310.1 784.8 L 1301.8 781 L 1291.8 780.4 L 1273 783.1 M 1343.5 768 L 1339.1 772.5 L 1335.8 775.7 L 1334.5 778.2 L 1334.7 780.1 L 1336.5 781.2 L 1336.2 783.1 L 1333.8 785.9 L 1331.7 787.3 L 1329.9 787.3 L 1329.3 789.8 L 1329.9 794.8 M 1350.8 755.1 L 1354.4 766.4 L 1353 772.5 L 1348.3 777.2 L 1344.9 782.9 L 1342.6 789.5 L 1343.9 794 L 1348.6 796.3 L 1351.9 800.8 L 1353.8 807.4 L 1357 813.7 L 1361.8 822.4 L 1362.2 830.1 L 1361.8 833.6 L 1361.8 835.6 L 1362.2 841.5 M 105.8 499.6 L 110.6 495 L 113.8 489.2 L 116.8 480.5 L 116.5 473.5 L 111.3 465.3 L 112.3 452.1 L 109.2 440.2 L 102.5 425.3 L 99.8 416.3 L 101.2 412.9 L 104.8 410.9 L 110.4 410.2 L 112.9 408.3 L 112.1 405.1 L 114.4 403.4 L 119.6 403.4 L 123.9 401.6 L 127.3 397.8 L 132.4 396.4 L 139 397.1 L 142.8 398.7 L 144.2 399.7 L 146 400.1 L 147.6 399.4 L 154.7 393.1 L 160.7 390.3 L 165.6 390.8 L 168.2 389.1 L 169.5 387.8 L 172.8 386.4 L 183.1 385.2 L 192 377.9 L 199.4 364.3 L 205.8 357.4 L 211.3 357.2 L 216.2 355.1 L 220.8 351 L 222.2 344.8 L 220.4 336.7 L 224.1 331.9 L 233.3 330.6 L 241.2 325.7 L 247.9 317.4 L 255.7 310.3 L 264.6 304.4 L 271.4 296.9 L 276.1 287.8 L 282.3 279.7 L 290 272.6 L 295.5 263.1 L 298.9 251.2 L 305.1 245 L 314.3 244.3 L 326.6 236.3 L 341.9 221.1 L 354.5 210.6 L 369 202 L 378.2 194.7 L 389.8 192 L 406.9 191.5 L 420.1 188.6 L 429.5 183.2 L 436.1 176.9 L 439.8 169.6 L 445.1 166.9 L 453.6 166.3 L 462 164.4 L 475.7 154.2 L 487.3 148.8 L 496.6 148.3 L 503.2 145.5 L 506.8 140.4 L 518.9 134.9 L 539.3 129 L 551.1 126.9 L 555.5 126.3 L 560.8 123.5 L 576.2 106.4 L 582.2 90.5 L 587.6 82.3 L 594.3 76.7 L 596.3 68.8 L 592.1 53.8 L 593.9 53.1 L 596.8 51.9 L 601.2 48.6 L 603.5 45.6 L 603.7 42.9 L 601.2 41.2 L 595.8 40.4 L 596.1 37.8 L 605.3 30.6 L 606 29.4 L 600.6 27.8 L 601.4 26.5 L 604.1 25.5 L 608.7 24.8 L 611.2 21.3 L 611.6 15.1 L 613.5 11.2 L 616.9 9.6 L 619.6 6.4 L 621.5 1.6 L 626.4 -1.3 M 1211.7 443.8 L 1213.1 451.7 L 1212.1 457.9 L 1209.4 465 L 1208.9 472.1 L 1210.8 479.2 L 1213.8 483.6 L 1218 485.4 L 1220.7 488.6 L 1221.7 493.1 L 1226.4 494.5 L 1234.9 492.8 L 1242.8 495.3 L 1250.1 502.1 L 1259.7 506.9 L 1271.5 509.8 L 1282.2 514.6 L 1296.5 524.7 L 1312.1 523.8 L 1322.1 524.6 L 1331.7 527 L 1338.4 532.9 L 1342.3 542.3 L 1348.2 551 L 1356.3 558.8 L 1362.3 567.7 L 1366.2 577.7 L 1366.6 593 L 1361.8 624.1 L 1358.6 652 L 1358.2 668.6 L 1360.4 690.4 L 1364.1 707.6 L 1361.6 723.8 L 1350.8 755.2 L 1346.4 760.7 L 1345.3 763.8 L 1346 766.2 L 1343.5 768 M 568.7 37.5 L 566.2 29.3 L 567.8 24.9 L 572.5 21.3 L 575.7 16.9 L 577.3 11.7 L 580.7 9.8 L 585.9 11.2 L 593.4 7.5 L 603.2 -1.3 L 613 -6.1 L 622.6 -6.9 L 628.9 -9.6 M 626.4 -1.3 L 628.9 -9.6 M 628.9 -9.6 L 632.1 -14.3 L 635.3 -16.8 L 638.6 -17.2 L 640.3 -19 L 640.3 -22.2 L 643.7 -25.8 L 646.6 -27.4 M 646.6 -27.4 L 649 -19.6 L 649.1 -16.2 L 647.8 -14.2 L 645.8 -12.9 L 643.1 -12.3 L 640.8 -9.7 L 638.9 -5.3 L 634.1 -2.5 L 626.4 -1.3 M 646.6 -27.4 L 650.6 -29.5 L 654.9 -34.8 L 656.8 -41.6 L 660.6 -44.8 L 666.3 -44.3 L 681.1 -47.7 L 705 -55 L 720.4 -58.3 L 727.3 -57.5 L 731.5 -58.1 L 733 -60.2 L 742.1 -63.9 L 758.8 -69.1 L 774.3 -72.5 L 788.6 -74.1 L 798.1 -73.4 L 802.9 -70.6 L 809.2 -69.7 L 816.9 -70.5 L 823.2 -69.5 L 827.9 -66.4 L 835.4 -65.5 L 845.8 -66.8 L 853.7 -60.8 L 859.3 -47.7 L 864 -39.6 L 868 -36.4 L 872.2 -28.6 L 878.8 -10.2 L 889 3.2 L 897.3 11.2 L 907.3 18.2 L 912.6 25.1 L 913.3 31.9 L 918.1 37.3 L 927 41.2 L 931.9 44.5 L 932.6 47.3 L 931 53.7 L 927.2 63.7 L 926 70.7 L 927.3 74.9 L 930.6 77.8 L 936.1 79.3 L 940.2 84.1 L 942.8 92 L 948.1 100.7 L 956.1 110.2 L 965.7 118.6 L 976.7 125.9 L 984 135.5 L 987.5 147.5 L 992.5 157.1 L 999 164.3 L 1009.1 171.2 L 1022.9 177.8 L 1031.6 183.8 L 1035.2 189.1 L 1039.6 193.3 L 1045 196.6 L 1048.2 205.4 L 1049.3 219.8 L 1052.6 231.2 L 1057.9 239.4 L 1060.2 244.9 L 1059.2 247.6 L 1059.8 250.3 L 1061.5 252 L 1063.8 251.9 L 1065.6 250.3 L 1067 250.3 L 1067.8 251.8 L 1069.7 252.5 L 1072.5 251.9 L 1074.4 252.7 L 1075.7 256.4 L 1078 259 L 1081.4 259.9 L 1083.4 261.3 L 1105.4 281.6 L 1113.9 290.7 L 1116.2 295.3 L 1120.6 298.7 L 1127.1 300.7 L 1133 305.4 L 1137.6 311.9 L 1144.7 317.4 L 1156 321 L 1168.3 327.2 L 1176.3 334 L 1184 343.3 L 1193.2 349.9 L 1203.7 353.8 L 1211.3 358.9 L 1216.2 365.2 L 1217.5 373.8 L 1213.9 390.4" />
<path class="river" d="M 886.1 697.8 L 885.8 708.6 L 889.9 714 L 898.5 717.5 L 906 719.1 L 912.5 718.9 L 917.8 720.6 L 921.9 724.4 L 924.7 729.6 L 927 739.4" />
<g class="city"><circle cx="589.1446941934873" cy="770.8812181633372" r="5" /><text x="601.1446941934873" y="774.8812181633372">Abidjan</text></g>
<g class="city"><circle cx="862.8992064502161" cy="754.4011251622018" r="5" /><text x="874.8992064502161" y="758.4011251622018">Accra</text></g>
<g class="city"><circle cx="966.5576476949548" cy="712.4974854720948" r="5" /><text x="978.5576476949548" y="716.4974854720948">Lomé</text></g>
<g class="city"><circle cx="768.7077416463273" cy="263.2631872018867" r="5" /><text x="780.7077416463273" y="267.2631872018867">Ouagadougou</text></g>
<g class="city"><circle cx="1030.9285507756174" cy="180.71005806465658" r="5" /><text x="1042.9285507756174" y="184.71005806465658">Niamey</text></g>
<g class="city"><circle cx="1051.786287749032" cy="695.9998937049371" r="5" /><text x="1063.786287749032" y="699.9998937049371">Cotonou</text></g>
<g class="city"><circle cx="516.4270957543184" cy="600.4406446959938" r="5" /><text x="528.4270957543184" y="604.4406446959938">Bouaké</text></g>
<g class="city"><circle cx="569.7178954078497" cy="349.12142277585406" r="5" /><text x="581.7178954078497" y="353.12142277585406">Bobo Dioulasso</text></g>
<text class="map-title" x="80" y="105">Ghana Physical Study Map</text>
<text class="map-subtitle" x="80" y="145">Landmark: Cape Coast Castle | Study terrain and water systems</text>
  <text class="footer" x="80" y="1036">Made with Natural Earth. Free vector and raster map data @ naturalearthdata.com.</text>
</svg>
