<?xml version="1.0" encoding="UTF-8"?>
<svg xmlns="http://www.w3.org/2000/svg" width="1600" height="1100" viewBox="0 0 1600 1100" role="img" aria-labelledby="title desc">
  <title id="title">Gambia Physical Study Map</title>
  <desc id="desc">Made with Natural Earth. Free vector and raster map data @ naturalearthdata.com.</desc>
  <defs>
    <linearGradient id="terrain" x1="0" x2="1" y1="0" y2="1">
      <stop offset="0%" stop-color="#6c8c53" />
      <stop offset="42%" stop-color="#d5c487" />
      <stop offset="72%" stop-color="#b88b5f" />
      <stop offset="100%" stop-color="#f1f5ee" />
    </linearGradient>
    <filter id="softShadow" x="-10%" y="-10%" width="120%" height="120%">
      <feDropShadow dx="0" dy="10" stdDeviation="12" flood-color="#0f172a" flood-opacity="0.16" />
    </filter>
    <style>
      .neighbor { fill: #ffffff; stroke: #94a3b8; stroke-width: 1.2; opacity: 0.72; }
      .country { fill: url(#terrain); stroke: #1f2937; stroke-width: 4; filter: url(#softShadow); }
      .admin1 { fill: none; stroke: #64748b; stroke-width: 1.1; stroke-dasharray: 6 7; opacity: 0.75; }
      .river { fill: none; stroke: #1d9bd1; stroke-width: 3; stroke-linecap: round; opacity: 0.88; }
      .lake { fill: #8ed1ea; stroke: #0ea5e9; stroke-width: 1.5; opacity: 0.8; }
      .city circle { fill: #ef4444; stroke: #ffffff; stroke-width: 2; }
      .city text, .terrain-label { fill: #172033; font: 700 24px system-ui, sans-serif; paint-order: stroke; stroke: #ffffff; stroke-width: 5; stroke-linejoin: round; }
      .map-title { fill: #0f172a; font: 800 46px system-ui, sans-serif; }
      .map-subtitle { fill: #475569; font: 600 24px system-ui, sans-serif; }
      .footer { fill: #64748b; font: 500 18px system-ui, sans-serif; }
    </style>
  </defs>
  <rect width="100%" height="100%" fill="#d8edf0" />
  <rect x="40" y="40" width="1520" height="1020" rx="32" fill="#ffffff" opacity="0.54" />
  <path class="neighbor" d="M -6793 2539.4 L -6916.7 2730.8 L -6980.9 2884.7 L -7061.1 2964.1 L -7161.2 2979.1 L -7189.7 2920.2 L -7236.5 2911.5 L -7301.2 2968.2 L -7392.5 2925 L -7339.2 2837.1 L -7320.8 2741.5 L -7284.2 2651.5 L -7366.3 2527.6 L -7382.9 2384.6 L -7274 2204.8 L -7203 2227.8 L -7049 2277.3 L -6827.7 2453.8 L -6793 2539.4 Z M 5301.6 -6934 L 5400.3 -6879.2 L 5701.6 -6840.7 L 5595.9 -6697.6 L 5569.4 -6548.6 L 5512 -6512.9 L 5416.7 -6532.1 L 5423.4 -6479 L 5270.5 -6361.5 L 5267.4 -6266.8 L 5367.2 -6299.6 L 5439.1 -6207.9 L 5430.4 -6148.8 L 5492 -6070.3 L 5419.5 -6006.6 L 5473.4 -5844.8 L 5586.7 -5818.3 L 5562.8 -5727.6 L 5373.3 -5609.4 L 4961 -5666 L 4656.4 -5598.2 L 4632.5 -5472.3 L 4390.1 -5445.2 L 4154.8 -5539.8 L 4078.8 -5494.6 L 3693.9 -5589.6 L 3610.6 -5670.9 L 3718.7 -5796.3 L 3758.5 -6212.9 L 3542.8 -6432.3 L 3388.5 -6538.1 L 3069 -6618.5 L 3047.9 -6771 L 3319 -6816.5 L 3670.1 -6762.7 L 3603.9 -6999.3 L 3801.2 -6909.7 L 4288.1 -7072.7 L 4350.8 -7244 L 4533.7 -7286.3 L 4564 -7212.7 L 4661.2 -7209.3 L 4758.4 -7125.4 L 4904.3 -7026.8 L 5011.6 -7043.1 L 5194.5 -6947.7 L 5241.3 -6929.6 L 5301.6 -6934 Z M 5836.8 -5504.7 L 5971.5 -5584.6 L 6007 -5405.3 L 5938 -5243.7 L 5843.1 -5286.3 L 5794.7 -5427 L 5836.8 -5504.7 Z" />
<path class="neighbor" d="M 513.4 565.9 L 427.2 403.1 L 322.9 328.6 L 414.9 288.9 L 516.2 142.1 L 565.8 34.7 L 637.4 -32.3 L 741.4 -14.2 L 843.4 -59.8 L 960.1 -62.1 L 1060.1 -0.6 L 1198.8 54.7 L 1325.4 208.6 L 1463.3 352.2 L 1472.9 482.3 L 1514.2 602 L 1592.4 660.7 L 1610.3 741.6 L 1600.7 806.7 L 1570.5 818.5 L 1456.5 802 L 1440.8 825.2 L 1394.7 829.9 L 1244.4 778.9 L 1143.5 776.8 L 757.1 768 L 701 791.5 L 631.8 784.8 L 521 818.9 L 486.7 658.6 L 677 663 L 727.3 633.7 L 764.8 632 L 842.3 583.7 L 931.9 627.9 L 1022.8 631.6 L 1113.3 584.7 L 1071 524.2 L 1002.1 559.4 L 937.2 558.5 L 854.7 507 L 788.4 510.4 L 741.2 559.9 L 513.4 565.9 Z" />
<path class="neighbor" d="M 440.3 -982.4 L 486 -1052.2 L 1304.8 -1050.9 L 1265.1 -1352.8 L 1316.3 -1460.2 L 1512.2 -1479 L 1505.4 -2014 L 2191.7 -2003.1 L 2192.3 -2319.8 L 2978.7 -1813.5 L 2658.7 -1809.8 L 2759.6 -907.4 L 2860.5 -5 L 2896.8 20.8 L 2850.2 167.2 L 2011.3 170.3 L 1979.9 216.8 L 1899.1 203 L 1781.1 244.3 L 1635.1 186.1 L 1568.9 190.9 L 1533.7 314.1 L 1463.3 352.2 L 1325.4 208.6 L 1198.8 54.7 L 1060.1 -0.6 L 960.1 -62.1 L 843.4 -59.8 L 741.4 -14.2 L 637.4 -32.3 L 565.8 34.7 L 547.7 -77.9 L 606.1 -181 L 632.1 -377.9 L 609 -584.5 L 583.7 -688.5 L 604.6 -792.7 L 550.5 -892.1 L 440.3 -982.4 Z" />
<path class="neighbor" d="M 1143.5 776.8 L 1244.4 778.9 L 1394.7 829.9 L 1440.8 825.2 L 1456.5 802 L 1570.5 818.5 L 1600.7 806.7 L 1612.8 883.3 L 1645.9 883 L 1700.5 855.2 L 1735.1 862.2 L 1793.2 915.2 L 1882.7 931.9 L 1940 886.7 L 2007.6 858.7 L 2057.8 829.4 L 2099.7 834.9 L 2146.1 880.9 L 2171 938.5 L 2256.7 1026.1 L 2213.9 1079.9 L 2205.7 1148 L 2250.2 1127.4 L 2276.4 1151.8 L 2265.3 1214.1 L 2329.1 1274.3 L 2287.5 1290.5 L 2270.7 1361.5 L 2318.9 1448 L 2370.5 1615.3 L 2292.9 1640.5 L 2272.9 1669.5 L 2289 1709.9 L 2276.7 1801.1 L 2243.6 1801.4 L 2184.4 1796 L 2141.8 1880.2 L 2082.7 1879.2 L 2042 1834.6 L 2055.8 1750.7 L 1968.4 1622.6 L 1913.8 1646.1 L 1869.1 1650.8 L 1811.5 1662.8 L 1813.9 1586.1 L 1780.3 1531.4 L 1787.1 1470.6 L 1741.8 1382.7 L 1683.6 1307.9 L 1516.3 1307.7 L 1467.6 1347.1 L 1410 1351.9 L 1374.3 1396.9 L 1350.2 1455 L 1238.4 1546.9 L 1146.7 1423.2 L 1065.4 1341.3 L 1011.8 1314.2 L 959.7 1272.7 L 935.9 1180.3 L 905.3 1134.2 L 844.5 1100 L 937.5 998.1 L 1000.9 1002 L 1055.5 966.9 L 1101.6 966.5 L 1134.6 938.8 L 1116.8 869.5 L 1139.7 847.7 L 1143.5 776.8 Z" />
<path class="neighbor" d="M 521 818.9 L 631.8 784.8 L 701 791.5 L 757.1 768 L 1143.5 776.8 L 1139.7 847.7 L 1116.8 869.5 L 1134.6 938.8 L 1101.6 966.5 L 1055.5 966.9 L 1000.9 1002 L 937.5 998.1 L 844.5 1100 L 732.9 1012.6 L 644.9 998.7 L 596.9 939.8 L 598.1 908 L 534.3 863.6 L 521 818.9 Z" />

<path class="country" d="M 513.4 565.9 L 741.2 559.9 L 788.4 510.4 L 854.7 507 L 937.2 558.5 L 1002.1 559.4 L 1071 524.2 L 1113.3 584.7 L 1022.8 631.6 L 931.9 627.9 L 842.3 583.7 L 764.8 632 L 727.3 633.7 L 677 663 L 486.7 658.6 L 513.4 565.9 Z" />

<path class="river" d="M 1730.6 527.6 L 1726.1 525.2 L 1718.2 522.7 L 1705.8 511.4 L 1695.1 487 L 1681.1 471.7 L 1663.6 465.7 L 1656.8 459.2 L 1660.6 452.4 L 1660.1 441.1 L 1655.3 425.3 L 1645.5 409.5 L 1630.6 393.8 L 1608.4 378.8 L 1579 364.7 L 1553.5 356.2 L 1531.9 353.2 L 1512.5 345.9 L 1486.3 328.6 L 1435.8 310.3 L 1413.6 295.3 L 1402.9 277.4 L 1385.4 263.9 L 1361.1 254.9 L 1345.3 244.6 L 1338 233 L 1329 225.3 L 1319.5 221.4 L 1318.7 217.2 L 1320.9 211.5 L 1318.7 200.9 L 1304.4 177.4 L 1291.1 166.5 L 1279.8 168.2 L 1273.4 165.3 L 1269.5 160.2 L 1267.9 152.5 L 1260.2 145.9 L 1246.8 143.1 L 1236 125.6 L 1227.8 93.5 L 1217.3 68.5 L 1204.3 50.6 L 1195 43.9 L 1188.1 42.7 L 1185.8 39.9 L 1183.9 34.7 L 1173.8 32.9 L 1159.6 38.2 L 1146.8 36.4 L 1140.5 27.7 L 1131.7 26.9 L 1120.6 34.1 L 1108.4 32 L 1095 20.6 L 1087.5 9.2 L 1086.1 -2.1 L 1062.9 -24.6 L 1018.1 -58.4 L 969.3 -74.2 L 916.4 -72.1 L 886.7 -73.7 L 880.2 -79 L 873.7 -78.6 L 867.2 -72.4 L 860.2 -71 L 852.8 -74.5 L 848.2 -71.9 L 846.4 -63.2 L 827.7 -58.8 L 792.3 -58.7 L 763.7 -53.4 L 742 -42.9 L 711.1 -38.4 L 671.3 -39.9 L 647.2 -43.8 L 639 -50 L 627.5 -51.4 L 612.7 -48.1 L 599.5 -31.4 L 587.8 -1.2 L 578.1 16 L 570.5 20.2 L 562.3 42.7 L 557.7 80.3 L 550.8 96.8" />
<g class="city"><circle cx="354.2533090909089" cy="331.0820909090912" r="5" /><text x="366.2533090909089" y="335.0820909090912">Dakar</text></g>
<g class="city"><circle cx="746.6573545454546" cy="927.5670181818185" r="5" /><text x="758.6573545454546" y="931.5670181818185">Bissau</text></g>
<g class="city"><circle cx="641.7671090909091" cy="449.8045363636366" r="5" /><text x="653.7671090909091" y="453.8045363636366">Kaolack</text></g>
<g class="city"><circle cx="538.958990909091" cy="595.3525090909095" r="5" /><text x="550.958990909091" y="599.3525090909095">Banjul</text></g>
<text class="map-title" x="80" y="105">Gambia Physical Study Map</text>
<text class="map-subtitle" x="80" y="145">Landmark: Kunta Kinteh Island | Study terrain and water systems</text>
  <text class="footer" x="80" y="1036">Made with Natural Earth. Free vector and raster map data @ naturalearthdata.com.</text>
</svg>
