<?xml version="1.0" encoding="UTF-8"?>
<svg xmlns="http://www.w3.org/2000/svg" width="1600" height="1100" viewBox="0 0 1600 1100" role="img" aria-labelledby="title desc">
  <title id="title">Equatorial Guinea Political Study Map</title>
  <desc id="desc">Made with Natural Earth. Free vector and raster map data @ naturalearthdata.com.</desc>
  <defs>
    <linearGradient id="terrain" x1="0" x2="1" y1="0" y2="1">
      <stop offset="0%" stop-color="#6c8c53" />
      <stop offset="42%" stop-color="#d5c487" />
      <stop offset="72%" stop-color="#b88b5f" />
      <stop offset="100%" stop-color="#f1f5ee" />
    </linearGradient>
    <filter id="softShadow" x="-10%" y="-10%" width="120%" height="120%">
      <feDropShadow dx="0" dy="10" stdDeviation="12" flood-color="#0f172a" flood-opacity="0.16" />
    </filter>
    <style>
      .neighbor { fill: #ffffff; stroke: #94a3b8; stroke-width: 1.2; opacity: 0.72; }
      .country { fill: #f7f1df; stroke: #1f2937; stroke-width: 4; filter: url(#softShadow); }
      .admin1 { fill: none; stroke: #64748b; stroke-width: 1.1; stroke-dasharray: 6 7; opacity: 0.75; }
      .river { fill: none; stroke: #1d9bd1; stroke-width: 3; stroke-linecap: round; opacity: 0.88; }
      .lake { fill: #8ed1ea; stroke: #0ea5e9; stroke-width: 1.5; opacity: 0.8; }
      .city circle { fill: #ef4444; stroke: #ffffff; stroke-width: 2; }
      .city text, .terrain-label { fill: #172033; font: 700 24px system-ui, sans-serif; paint-order: stroke; stroke: #ffffff; stroke-width: 5; stroke-linejoin: round; }
      .map-title { fill: #0f172a; font: 800 46px system-ui, sans-serif; }
      .map-subtitle { fill: #475569; font: 600 24px system-ui, sans-serif; }
      .footer { fill: #64748b; font: 500 18px system-ui, sans-serif; }
    </style>
  </defs>
  <rect width="100%" height="100%" fill="#eaf3f8" />
  <rect x="40" y="40" width="1520" height="1020" rx="32" fill="#ffffff" opacity="0.54" />
  <path class="neighbor" d="M 4782.1 1870.3 L 4819.7 2062.6 L 4798.8 2171.4 L 4840.6 2292.6 L 4961.9 2409.7 L 5074.8 2673.2 L 5074.8 2673.2 L 4992.4 2651.9 L 4711.6 2687.2 L 4655.5 2712.2 L 4595.9 2845.7 L 4642.7 2937.9 L 4605.6 3185.4 L 4579.7 3395.3 L 4636.2 3432.5 L 4782.4 3513.9 L 4839.8 3475.9 L 4857.3 3701.3 L 4697.2 3699.6 L 4611.4 3584.5 L 4534.3 3495.4 L 4374.1 3466.2 L 4327.2 3356.7 L 4199.3 3422.7 L 4031.9 3393.5 L 3962 3298.6 L 3829.3 3279.3 L 3731.3 3284.3 L 3719.3 3219.3 L 3647.2 3214.1 L 3551.9 3201.7 L 3422.4 3233.1 L 3331.6 3227.9 L 3279.8 3247.1 L 3291 2998.3 L 3221.2 2920.7 L 3205.9 2792.1 L 3236.7 2666.1 L 3194.3 2585.4 L 3190.5 2453.8 L 2936.8 2455.7 L 2955 2380.3 L 2848.3 2381.1 L 2837 2417.3 L 2707.4 2425.5 L 2654.9 2547.4 L 2623.6 2599.6 L 2508 2570.1 L 2439 2599.5 L 2300.8 2616.4 L 2220.7 2507.1 L 2172.6 2439.5 L 2112.6 2314.1 L 2061.1 2158.3 L 1444.1 2155.5 L 1370.7 2180.7 L 1310.1 2176.7 L 1223.8 2204.8 L 1194.6 2140 L 1247.7 2117.9 L 1254.3 2026.8 L 1288.5 1973 L 1364.6 1929.1 L 1419.5 1950.4 L 1491 1870.3 L 1604.9 1872.4 L 1618.3 1931.6 L 1696.4 1968.6 L 1819.5 1837.6 L 1941.3 1735.5 L 1994.1 1668.5 L 1987.1 1496.5 L 2077.9 1293.4 L 2173.7 1185.7 L 2311.4 1084.9 L 2335.4 1018.2 L 2340.6 941.5 L 2374.7 869 L 2363.8 750.5 L 2389.8 565.2 L 2430.7 434.7 L 2493.3 322.9 L 2505.7 196.6 L 2524.5 50.8 L 2605.9 -55.3 L 2717.9 -122.7 L 2889.9 -51.6 L 3023.1 25.5 L 3176.1 46.1 L 3332 86.9 L 3394.6 -39.4 L 3423.3 -55.5 L 3518.6 -34.5 L 3751.4 -138.8 L 3833.8 -94.6 L 3901.5 -100.9 L 3932.9 -151.7 L 4010.6 -169.6 L 4167.9 -147.6 L 4302 -142.8 L 4371 -165 L 4497.7 7.6 L 4591.6 33 L 4647.6 -2.1 L 4744.2 11.6 L 4860.7 -32.6 L 4910.3 56.7 L 5094.4 195.6 L 5094.4 195.6 L 5081.8 440.1 L 5165.6 468.4 L 5098.3 542.7 L 5018 598.2 L 4938.1 707.3 L 4894.1 804.5 L 4882.3 972.3 L 4833.9 1052.2 L 4832.1 1209.8 L 4772 1268.1 L 4764.3 1392.5 L 4735.5 1408.7 L 4716.2 1523 L 4768.8 1618.1 L 4782.1 1870.3 Z" />
<path class="neighbor" d="M -12153.8 60.3 L -12277.5 251.7 L -12341.7 405.7 L -12421.9 485.1 L -12522 500 L -12550.5 441.2 L -12597.3 432.4 L -12662 489.1 L -12753.3 446 L -12700 358.1 L -12681.6 262.4 L -12645 172.5 L -12727.1 48.6 L -12743.7 -94.5 L -12634.8 -274.3 L -12563.8 -251.3 L -12409.8 -201.8 L -12188.5 -25.3 L -12153.8 60.3 Z M -59.2 -9413.1 L 39.5 -9358.3 L 340.8 -9319.8 L 235.1 -9176.6 L 208.6 -9027.7 L 151.2 -8991.9 L 55.9 -9011.2 L 62.6 -8958.1 L -90.3 -8840.6 L -93.4 -8745.9 L 6.4 -8778.7 L 78.3 -8687 L 69.6 -8627.9 L 131.2 -8549.4 L 58.7 -8485.7 L 112.6 -8323.9 L 225.9 -8297.4 L 202 -8206.6 L 12.5 -8088.5 L -399.8 -8145.1 L -704.4 -8077.3 L -728.3 -7951.4 L -970.7 -7924.2 L -1206 -8018.8 L -1282 -7973.6 L -1666.9 -8068.6 L -1750.2 -8149.9 L -1642.1 -8275.4 L -1602.3 -8691.9 L -1818 -8911.4 L -1972.3 -9017.2 L -2291.8 -9097.6 L -2312.9 -9250 L -2041.8 -9295.5 L -1690.7 -9241.7 L -1756.9 -9478.4 L -1559.6 -9388.7 L -1072.7 -9551.8 L -1010 -9723.1 L -827.1 -9765.3 L -796.8 -9691.8 L -699.6 -9688.3 L -602.4 -9604.4 L -456.5 -9505.8 L -349.2 -9522.1 L -166.3 -9426.8 L -119.5 -9408.6 L -59.2 -9413.1 Z M 476 -7983.8 L 610.7 -8063.6 L 646.2 -7884.3 L 577.2 -7722.8 L 482.3 -7765.4 L 433.9 -7906.1 L 476 -7983.8 Z" />
<path class="neighbor" d="M 1678.3 -1759.4 L 1761.4 -1625.5 L 1775.4 -1486.8 L 1767.7 -1347.9 L 1881.5 -1157.8 L 1764.7 -1159.9 L 1705.8 -1145 L 1610.5 -1166 L 1565 -1067.3 L 1688.5 -945.3 L 1779.5 -909.8 L 1809 -823.3 L 1874.9 -679.1 L 1842.1 -622.5 L 1737 -410.6 L 1686.8 -372.6 L 1670.7 -210.5 L 1691.5 -122.5 L 1674.6 -60.2 L 1773.4 49 L 1791.3 124.1 L 1868.5 232 L 1964.1 299.3 L 1973.4 394.6 L 1995.5 455.2 L 1980.4 568.1 L 1814.3 518.7 L 1645.2 463.5 L 1381.4 455.3 L 1355.3 443.9 L 1231.6 470.9 L 1104.5 442.9 L 1005.1 456.6 L 664.9 451.8 L 695.4 286.8 L 613.7 148.5 L 518.3 113.1 L 475.8 19.4 L 422.3 -10.6 L 424.7 -68.4 L 478.5 -216.4 L 577.9 -418.1 L 638.4 -420 L 763 -542.4 L 842.2 -545.8 L 959.6 -459.9 L 1103.3 -530.4 L 1122.8 -617.3 L 1169.8 -701.5 L 1202.2 -807.3 L 1314 -893.4 L 1356.2 -1039.8 L 1400.6 -1086.4 L 1430.1 -1195.1 L 1485.3 -1328.5 L 1661.5 -1490.3 L 1672.5 -1559.8 L 1695.3 -1597.6 L 1612.5 -1680.8 L 1619.3 -1747.4 L 1678.3 -1759.4 Z" />
<path class="neighbor" d="M 2505.7 196.6 L 2493.3 322.9 L 2430.7 434.7 L 2389.8 565.2 L 2363.8 750.5 L 2374.7 869 L 2340.6 941.5 L 2335.4 1018.2 L 2311.4 1084.9 L 2173.7 1185.7 L 2077.9 1293.4 L 1987.1 1496.5 L 1994.1 1668.5 L 1941.3 1735.5 L 1819.5 1837.6 L 1696.4 1968.6 L 1618.3 1931.6 L 1604.9 1872.4 L 1491 1870.3 L 1419.5 1950.4 L 1364.6 1929.1 L 1286.2 1857.3 L 1223 1892.5 L 1138.6 1982.8 L 966.9 1761.3 L 1126.1 1645.9 L 1047.3 1507.6 L 1119 1455.1 L 1260.1 1429.5 L 1276.7 1336.8 L 1388.4 1437.2 L 1573 1446 L 1637.2 1347.2 L 1663.6 1208.2 L 1640.8 1044.9 L 1541.8 921.3 L 1632.4 679.1 L 1580.2 637.5 L 1424.6 654.6 L 1366.2 546.5 L 1381.4 455.3 L 1645.2 463.5 L 1814.3 518.7 L 1980.4 568.1 L 1995.5 455.2 L 2105.1 260.6 L 2229.7 149.8 L 2371.2 185 L 2505.7 196.6 Z" />
<path class="neighbor" d="M 1005.1 456.6 L 1104.5 442.9 L 1231.6 470.9 L 1355.3 443.9 L 1381.4 455.3 L 1366.2 546.5 L 1424.6 654.6 L 1580.2 637.5 L 1632.4 679.1 L 1541.8 921.3 L 1640.8 1044.9 L 1663.6 1208.2 L 1637.2 1347.2 L 1573 1446 L 1388.4 1437.2 L 1276.7 1336.8 L 1260.1 1429.5 L 1119 1455.1 L 1047.3 1507.6 L 1126.1 1645.9 L 966.9 1761.3 L 752.1 1550.3 L 613.9 1377.7 L 486.9 1161.7 L 493.6 1092.3 L 539.3 1025.4 L 590.1 873.2 L 632.2 718.2 L 702.8 706.1 L 1006.9 708.2 L 1005.1 456.6 Z" />

<path class="country" d="M 664.9 451.8 L 1005.1 456.6 L 1006.9 708.2 L 702.8 706.1 L 632.2 718.2 L 593.1 686.6 L 664.9 451.8 Z" />


<g class="city"><circle cx="624.9112454545457" cy="848.7899272727273" r="5" /><text x="636.9112454545457" y="852.7899272727273">Libreville</text></g>
<g class="city"><circle cx="483.84032727272745" cy="145.27721818181828" r="5" /><text x="495.84032727272745" y="149.27721818181828">Malabo</text></g>
<g class="city"><circle cx="978.7016363636366" cy="323.00449090909103" r="5" /><text x="990.7016363636366" y="327.00449090909103">Ebolowa</text></g>
<text class="map-title" x="80" y="105">Equatorial Guinea Political Study Map</text>
<text class="map-subtitle" x="80" y="145">Capital: Malabo | Continent: Africa</text>
  <text class="footer" x="80" y="1036">Made with Natural Earth. Free vector and raster map data @ naturalearthdata.com.</text>
</svg>
