<?xml version="1.0" encoding="UTF-8"?>
<svg xmlns="http://www.w3.org/2000/svg" width="1600" height="1100" viewBox="0 0 1600 1100" role="img" aria-labelledby="title desc">
  <title id="title">Greece Physical Study Map</title>
  <desc id="desc">Made with Natural Earth. Free vector and raster map data @ naturalearthdata.com.</desc>
  <defs>
    <linearGradient id="terrain" x1="0" x2="1" y1="0" y2="1">
      <stop offset="0%" stop-color="#6c8c53" />
      <stop offset="42%" stop-color="#d5c487" />
      <stop offset="72%" stop-color="#b88b5f" />
      <stop offset="100%" stop-color="#f1f5ee" />
    </linearGradient>
    <filter id="softShadow" x="-10%" y="-10%" width="120%" height="120%">
      <feDropShadow dx="0" dy="10" stdDeviation="12" flood-color="#0f172a" flood-opacity="0.16" />
    </filter>
    <style>
      .neighbor { fill: #ffffff; stroke: #94a3b8; stroke-width: 1.2; opacity: 0.72; }
      .country { fill: url(#terrain); stroke: #1f2937; stroke-width: 4; filter: url(#softShadow); }
      .admin1 { fill: none; stroke: #64748b; stroke-width: 1.1; stroke-dasharray: 6 7; opacity: 0.75; }
      .river { fill: none; stroke: #1d9bd1; stroke-width: 3; stroke-linecap: round; opacity: 0.88; }
      .lake { fill: #8ed1ea; stroke: #0ea5e9; stroke-width: 1.5; opacity: 0.8; }
      .city circle { fill: #ef4444; stroke: #ffffff; stroke-width: 2; }
      .city text, .terrain-label { fill: #172033; font: 700 24px system-ui, sans-serif; paint-order: stroke; stroke: #ffffff; stroke-width: 5; stroke-linejoin: round; }
      .map-title { fill: #0f172a; font: 800 46px system-ui, sans-serif; }
      .map-subtitle { fill: #475569; font: 600 24px system-ui, sans-serif; }
      .footer { fill: #64748b; font: 500 18px system-ui, sans-serif; }
    </style>
  </defs>
  <rect width="100%" height="100%" fill="#d8edf0" />
  <rect x="40" y="40" width="1520" height="1020" rx="32" fill="#ffffff" opacity="0.54" />
  <path class="neighbor" d="M 11146.2 -1594.5 L 11231.1 -1622.3 L 11231.1 -1576.7 L 11158 -1573.3 L 11146.2 -1594.5 Z M 2513.2 50.5 L 2482.9 90 L 2418.3 100.9 L 2352.1 169.7 L 2412.6 232.9 L 2406.1 277.8 L 2478.8 356.2 L 2478.8 356.2 L 2439 383 L 2427.6 400 L 2398.1 395.4 L 2352.4 355 L 2333.7 352.8 L 2291.8 337.3 L 2271.4 310 L 2209.3 296.1 L 2168.9 306.5 L 2157.2 294.1 L 2066.5 262.2 L 1968.5 251.4 L 1912.2 240 L 1904.1 247.9 L 1819.2 191.6 L 1743.2 166.5 L 1685.7 127.4 L 1734.1 116.7 L 1789.4 61 L 1752.2 34.7 L 1850.3 7.5 L 1848.6 -7.1 L 1788.8 3.7 L 1790.9 -25.9 L 1825.2 -44.5 L 1889.7 -49.4 L 1900.1 -71.6 L 1885.4 -108.3 L 1912.5 -143.2 L 1911.7 -162.8 L 1813.5 -184.4 L 1774.6 -183.7 L 1733.5 -214.9 L 1682.4 -204.4 L 1597.8 -227.8 L 1599.3 -240.9 L 1575.6 -269.8 L 1522.5 -273 L 1516.9 -293.7 L 1533.6 -307.1 L 1491 -344.8 L 1422 -338.4 L 1401.7 -341.8 L 1384.9 -326.6 L 1360 -329.3 L 1360 -329.3 L 1343.6 -371.9 L 1328 -394.1 L 1340.8 -400.3 L 1394.6 -398 L 1420.5 -412.5 L 1401.3 -430.3 L 1356.4 -442 L 1360.4 -454 L 1333.3 -466.2 L 1291.5 -509.8 L 1305.8 -527.8 L 1299.3 -559 L 1234.2 -574.9 L 1199.2 -567 L 1189.8 -583.5 L 1119.7 -600.2 L 1098.2 -639.5 L 1092.6 -671.8 L 1060.5 -687.1 L 1089 -708.3 L 1069.3 -770.4 L 1116.7 -808.8 L 1106.6 -820.4 L 1106.6 -820.4 L 1182.3 -857.2 L 1112.5 -888.9 L 1112.5 -888.9 L 1255.1 -973.9 L 1317 -1012.3 L 1342.1 -1046.3 L 1243.5 -1091.9 L 1270.7 -1135.3 L 1210.7 -1184.9 L 1255.6 -1242 L 1178.1 -1317.8 L 1239.6 -1368 L 1137.6 -1412.4 L 1147.3 -1459 L 1201.1 -1465.2 L 1314.4 -1491.9 L 1314.4 -1491.9 L 1383.1 -1515.1 L 1492.5 -1474.8 L 1674.9 -1458.9 L 1926.6 -1383.6 L 1977.7 -1352 L 1982.1 -1307.6 L 1908.1 -1272.7 L 1799.4 -1254.9 L 1502.1 -1305.5 L 1453.2 -1297.1 L 1561.7 -1248.3 L 1566 -1217.4 L 1570.3 -1149.3 L 1656.1 -1129 L 1708.1 -1111.7 L 1716.7 -1144 L 1676.6 -1172.6 L 1719 -1197.9 L 1880 -1156.4 L 1936.1 -1172.6 L 1891.3 -1221.4 L 2046.5 -1286.6 L 2108 -1282.8 L 2170.1 -1259.5 L 2208.9 -1305.3 L 2153.4 -1345 L 2186 -1384.8 L 2137 -1426.1 L 2323.3 -1404.8 L 2361.4 -1367.5 L 2277.1 -1359.3 L 2277.5 -1322.2 L 2329.9 -1299.4 L 2432.8 -1313.8 L 2449.1 -1356.3 L 2588.2 -1388 L 2820.7 -1445.2 L 2870.9 -1441.9 L 2805.2 -1401.5 L 2887.9 -1394.6 L 2935.6 -1417.3 L 3060.4 -1419.2 L 3159.3 -1446.8 L 3235.2 -1406.7 L 3310.9 -1450.8 L 3241.1 -1489.4 L 3275.7 -1511.3 L 3472.4 -1491.2 L 3564.6 -1470.4 L 3806 -1394.3 L 3850.5 -1429.1 L 3782.8 -1464.3 L 3780.9 -1478.5 L 3700.6 -1485 L 3722.6 -1516.6 L 3687 -1568.5 L 3684.9 -1589.9 L 3807.8 -1650.2 L 3851.6 -1710.7 L 3901.1 -1723.8 L 4077.4 -1706.2 L 4091.3 -1669.2 L 4028.2 -1615.2 L 4069.6 -1593.9 L 4091 -1547.4 L 4075.9 -1456.1 L 4149.4 -1415.3 L 4120.8 -1370.8 L 3990.3 -1276.2 L 4066.5 -1266.4 L 4092.9 -1290.4 L 4166.2 -1307.5 L 4183.9 -1340.5 L 4241.5 -1372.2 L 4202.7 -1410 L 4233.8 -1454 L 4161 -1459.5 L 4145 -1496.5 L 4198.1 -1563.4 L 4111.6 -1617.7 L 4230.8 -1662.6 L 4215.4 -1710 L 4248.6 -1711.5 L 4283.6 -1674.5 L 4257.3 -1610.3 L 4328.6 -1598.1 L 4298.2 -1646.1 L 4409.7 -1672.3 L 4547.9 -1675.8 L 4671 -1637.9 L 4611.8 -1693.3 L 4605.1 -1764.3 L 4720.9 -1777.7 L 4881.1 -1774.8 L 5025.4 -1783.5 L 4971.3 -1818.3 L 5048.4 -1862.1 L 5124.9 -1863.9 L 5254.4 -1896.9 L 5430.3 -1905.8 L 5452.5 -1924.1 L 5627.4 -1930.2 L 5681.8 -1915.3 L 5831.3 -1950.7 L 5953.7 -1949.6 L 5972 -1978.3 L 6035.7 -2006.7 L 6192.9 -2034 L 6307.1 -2012.4 L 6216.4 -1996 L 6367.3 -1985.8 L 6385.3 -1952.9 L 6446.1 -1969.1 L 6640.8 -1968.2 L 6791 -1935.7 L 6844.4 -1910.8 L 6827.8 -1876.2 L 6754.2 -1856.4 L 6579.1 -1819.5 L 6529.1 -1799.7 L 6611.7 -1790.4 L 6710.2 -1773.6 L 6770.2 -1786.2 L 6804.1 -1743.4 L 6833.4 -1760.7 L 6939.9 -1771.3 L 7153.6 -1760.3 L 7169.8 -1729.1 L 7448.2 -1719.2 L 7452 -1770.1 L 7593.4 -1758.4 L 7699.7 -1758.8 L 7807.3 -1723.7 L 7837.9 -1681.1 L 7798.5 -1653.2 L 7882.2 -1600.8 L 7986.9 -1573.7 L 8051.2 -1643.6 L 8158 -1613.7 L 8271.5 -1631.6 L 8400.4 -1611.1 L 8449.5 -1629.8 L 8558.4 -1620.4 L 8510.3 -1682.2 L 8598.3 -1711.1 L 9199.8 -1667.8 L 9256.5 -1628.3 L 9430.8 -1577.4 L 9699.7 -1590 L 9832.3 -1579 L 9887.8 -1551.5 L 9879.7 -1502.8 L 9961.7 -1483.8 L 10050.9 -1497.5 L 10169 -1499.2 L 10294.7 -1486.2 L 10420.9 -1493.5 L 10536.9 -1434.3 L 10619.5 -1455.6 L 10565.6 -1498.2 L 10595.3 -1527.8 L 10807.8 -1509.2 L 10946.3 -1513.2 L 11137.8 -1481.4 L 11231.1 -1452.3 L 11231.1 -1187 L 11230.6 -1186.6 L 11145 -1157.4 L 11058.7 -1162.2 L 11118.7 -1126.8 L 11158.4 -1071.9 L 11189.1 -1054 L 11196.9 -1026.4 L 11179.7 -1008.8 L 11055.5 -1023.3 L 10869.4 -973.2 L 10810.2 -965.4 L 10708.3 -918.6 L 10611.6 -877.7 L 10587.1 -847.5 L 10491.8 -893.5 L 10318.3 -841.2 L 10288 -866 L 10223.9 -837.5 L 10134.8 -846.6 L 10113.3 -802.8 L 10033.4 -738.3 L 10035.8 -711.4 L 10111.7 -696.5 L 10102.7 -599.5 L 10040.9 -597.1 L 10012.4 -541.4 L 10040.1 -512.7 L 9923.6 -478.7 L 9900.5 -402.6 L 9801.2 -386.4 L 9781.3 -318.7 L 9685.3 -256.7 L 9660.6 -302.5 L 9632.1 -399.7 L 9595 -547.7 L 9627 -640.1 L 9683.2 -679.8 L 9686.6 -710.9 L 9790.1 -725.8 L 9909.1 -809.7 L 10023.7 -878.2 L 10143.5 -931.3 L 10197 -1025.2 L 10116.1 -1019.6 L 10076.1 -964.7 L 9907.2 -891.6 L 9852.6 -973.5 L 9680.7 -950.9 L 9514 -839.2 L 9569 -798.4 L 9420.3 -781 L 9317.4 -774.1 L 9322.2 -822.3 L 9218.7 -832.4 L 9136.2 -799.7 L 8932.5 -811.1 L 8713.4 -791.4 L 8497.7 -661.4 L 8242.5 -504.3 L 8347.4 -495.9 L 8380.2 -454.2 L 8444.8 -439.4 L 8487.5 -472.7 L 8560.5 -468.4 L 8656.7 -395.1 L 8658.9 -338.4 L 8606.9 -271.9 L 8601.2 -192.4 L 8571.2 -85.9 L 8470.8 10.5 L 8448.5 56.6 L 8358.1 134.1 L 8268.4 211 L 8225.4 250.4 L 8136.6 289.4 L 8094.6 290.3 L 8052.8 257.9 L 7963.4 306.7 L 7953 328.8 L 7953 328.8 L 7953 328.8 L 7953 328.8 L 7943.7 317.2 L 7943.7 317.2 L 7943.3 283.3 L 7977.3 281.5 L 7986.9 202.8 L 7969.4 145.8 L 8026.5 122.3 L 8107.3 134.1 L 8152.1 69.3 L 8175 -3.7 L 8200.8 -28.1 L 8235.8 -88 L 8125.8 -68.3 L 8068 -42.1 L 7966.8 -42.2 L 7939.9 -104.7 L 7861 -152.1 L 7745.1 -173.4 L 7720.4 -238.6 L 7697.2 -279.5 L 7672.3 -308.2 L 7631.1 -375.3 L 7572.6 -399.9 L 7472.9 -419.7 L 7384.6 -417.9 L 7301.9 -405.9 L 7246.9 -372.7 L 7283.4 -356.9 L 7284.2 -320.1 L 7247.2 -298.8 L 7187.1 -228.1 L 7187.7 -198.8 L 7093.8 -156.8 L 7013.9 -181.9 L 6934.4 -176.4 L 6899.6 -198.7 L 6859.6 -205.9 L 6762.1 -158.9 L 6674.4 -147.9 L 6613.2 -131.4 L 6529.3 -142.2 L 6467.5 -141.5 L 6427.1 -175.6 L 6361.9 -207.6 L 6295.1 -216.4 L 6210.9 -207.7 L 6147.9 -195.3 L 6053.3 -223.3 L 6040.6 -273.2 L 5962.3 -290.3 L 5901.9 -298.2 L 5827.3 -325.7 L 5758.3 -256.7 L 5785.3 -217.5 L 5720.6 -171.1 L 5624.3 -187.8 L 5557.8 -190.2 L 5513.3 -221.3 L 5443.8 -222.3 L 5385.9 -242.8 L 5284.6 -211.4 L 5157.5 -154.1 L 5087.3 -142.5 L 5061.3 -137 L 5025.9 -177.8 L 4940.1 -168.9 L 4911.8 -197.1 L 4865.2 -210.1 L 4833.2 -248.6 L 4796.4 -260.5 L 4700.7 -243.4 L 4608.9 -281.8 L 4573.4 -246.9 L 4424.6 -416.1 L 4339.7 -467.5 L 4364 -488.4 L 4197.1 -425.5 L 4133.2 -421.7 L 4138.7 -458.1 L 4053.2 -480.8 L 3983.7 -464.6 L 3962.7 -533.6 L 3843 -548 L 3783.1 -520.4 L 3616.5 -495.8 L 3584 -479.3 L 3334.8 -456.1 L 3304.2 -433.4 L 3352.3 -387.8 L 3288.4 -370.5 L 3300.8 -352.3 L 3236.9 -319.9 L 3344.8 -274.1 L 3328.2 -242.5 L 3234.6 -245.4 L 3215.3 -225.7 L 3130.1 -260.2 L 3024.5 -258.8 L 2953.8 -230.7 L 2875 -257.7 L 2728.2 -303.8 L 2624.1 -302.1 L 2486.7 -229.6 L 2478.4 -181 L 2409.9 -219.6 L 2356.7 -146.4 L 2376.2 -132.9 L 2337.7 -82.4 L 2394.3 -37.2 L 2443.7 -39.1 L 2486.2 5.4 L 2479.4 39.7 L 2513.2 50.5 Z M 5488.7 -2255.6 L 5632.7 -2270.6 L 5762.1 -2237.1 L 5915.5 -2172.7 L 5899.1 -2112.8 L 5753.8 -2104.5 L 5568.3 -2123.7 L 5457.7 -2149.1 L 5406.6 -2196.9 L 5315.7 -2210.1 L 5488.7 -2255.6 Z M 6092.1 -2139.5 L 6260.9 -2101.6 L 6241.1 -2074.6 L 5865.7 -2048.9 L 5987.3 -2136.3 L 6042 -2143.8 L 6092.1 -2139.5 Z M 8489.2 -1930 L 8665.1 -1927.1 L 8905.8 -1891.8 L 8853.5 -1842.3 L 8608 -1844.2 L 8497.5 -1828.4 L 8365.6 -1871.8 L 8401.4 -1917.5 L 8489.2 -1930 Z M 9114.7 -1877.4 L 9281.8 -1859.9 L 9204.8 -1833.6 L 9098.4 -1839.6 L 8974.6 -1865.8 L 8990.5 -1887.4 L 9114.7 -1877.4 Z M 8558 -1745.8 L 8621.1 -1772.1 L 8704.4 -1778.2 L 8799 -1752.8 L 8807.1 -1735.3 L 8706.1 -1734.8 L 8569.6 -1742.2 L 8558 -1745.8 Z M 2229.9 -2226.6 L 2359.9 -2238.7 L 2461.1 -2239.5 L 2474.7 -2221.6 L 2513 -2237.5 L 2575.7 -2248.5 L 2674.5 -2233.9 L 2648.8 -2223.8 L 2559.3 -2215 L 2499.5 -2209.9 L 2490.2 -2199 L 2412.3 -2188 L 2340.2 -2203.8 L 2378.1 -2224.6 L 2229.9 -2226.6 Z M 757 -477.5 L 634.5 -476.5 L 552.5 -484.1 L 567.7 -513.4 L 659.6 -535 L 729.3 -523.3 L 758.8 -512.8 L 751.6 -494.5 L 757 -477.5 Z M 2806.7 -1771.1 L 2966.2 -1829.5 L 2948.2 -1859.7 L 3097.1 -1894.9 L 3317 -1937.7 L 3538.7 -1950.2 L 3652.7 -1974.9 L 3782.3 -1983.5 L 3828.6 -1957.2 L 3783.9 -1936.5 L 3547.9 -1903.5 L 3344.5 -1871.7 L 3137.7 -1808.3 L 3038.4 -1743.3 L 2934 -1679.3 L 2947.6 -1623.9 L 3075 -1569.3 L 3035.6 -1563.5 L 2818 -1572.1 L 2800.3 -1601.7 L 2679.8 -1619.5 L 2670 -1655.5 L 2738.1 -1669.8 L 2735.9 -1706.1 L 2868 -1762.9 L 2806.7 -1771.1 Z M 8761.2 -436.1 L 8784.2 -371.9 L 8782.5 -306.3 L 8810 -239.1 L 8877 -121.2 L 8778.5 -143.1 L 8737.5 -46.9 L 8802.4 21.3 L 8800.5 67.9 L 8750.1 27.7 L 8706.4 79.3 L 8694.1 23.4 L 8701.5 -41.5 L 8693.9 -113.3 L 8709.3 -163.7 L 8712.3 -252.8 L 8673.2 -318.2 L 8679.1 -409.2 L 8740.7 -439.9 L 8714.2 -470.7 L 8743.9 -480.1 L 8761.2 -436.1 Z M -12407.1 -1335.2 L -12412.8 -1293.8 L -12367.9 -1277.3 L -12383.4 -1325.7 L -12202.6 -1315.7 L -12072.2 -1253.4 L -12138.2 -1224.4 L -12247.4 -1217.5 L -12249.1 -1152.4 L -12275.7 -1138.6 L -12338.1 -1140.5 L -12388.8 -1163.8 L -12477.4 -1183.2 L -12492.3 -1212.1 L -12559.9 -1223 L -12635.7 -1214.3 L -12671.9 -1237.6 L -12657.4 -1262.4 L -12737.2 -1246.6 L -12707.1 -1215.2 L -12744.9 -1187 L -12744.9 -1452.3 L -12581.7 -1401.4 L -12407.1 -1335.2 Z M -12657.9 -1580.8 L -12744.9 -1576.7 L -12744.9 -1622.3 L -12736.4 -1625.1 L -12679.9 -1624.9 L -12583.6 -1605.9 L -12589.3 -1596.8 L -12657.9 -1580.8 Z M 1469.9 78.9 L 1487.5 62.4 L 1534.8 76.7 L 1556.2 79.4 L 1564.9 92.5 L 1574.9 94.5 L 1575.5 100.3 L 1608.1 116.4 L 1676 112.4 L 1663 136.1 L 1590.1 147.7 L 1499.7 186.2 L 1462.6 172.7 L 1477.3 141.4 L 1404.5 121.9 L 1416.3 109.1 L 1480.1 87 L 1469.9 78.9 Z" />
<path class="neighbor" d="M 1123.4 111.2 L 1153.2 123.4 L 1184.5 112.7 L 1214.7 124.1 L 1216.2 141.3 L 1183.9 155.6 L 1163.7 149.4 L 1145.1 229.8 L 1105.9 222.8 L 1057.4 198.6 L 979 214 L 946 231 L 848.2 227.5 L 797 217.1 L 771.2 222 L 752.1 194.6 L 739.9 183 L 755.3 171.8 L 738.9 163.5 L 717.9 178.4 L 679.1 159.1 L 673.9 131.6 L 633.3 115.9 L 625.8 94.7 L 589.7 68.6 L 643.1 56 L 683.4 10.9 L 714.9 -34.3 L 755.6 -48.3 L 784.4 -62.5 L 825.6 -55.2 L 868.3 -54.9 L 899.2 -38.6 L 921.9 -48.9 L 971.1 -55.3 L 987.8 -70.8 L 1015.9 -70.8 L 1036.2 -64.3 L 1056.9 -44.6 L 1078 -16.5 L 1116.4 23.1 L 1118.5 52.3 L 1111.5 80.8 L 1123.4 111.2 Z" />
<path class="neighbor" d="M 752.1 194.6 L 771.2 222 L 797 217.1 L 848.2 227.5 L 946 231 L 979 214 L 1057.4 198.6 L 1105.9 222.8 L 1145.1 229.8 L 1110.5 257.3 L 1086.2 305 L 1107.7 343 L 1050.3 334 L 982.5 355 L 981.8 388.2 L 921.2 394.5 L 874.3 371.2 L 821 389.5 L 771.7 387.6 L 767 343.5 L 733.6 322.1 L 744.6 312.7 L 737.4 304.8 L 748.6 283.6 L 774 262.8 L 741.6 234.1 L 735.6 209.7 L 752.1 194.6 Z" />
<path class="neighbor" d="M 2224.9 665.1 L 2193 676.4 L 2169.6 659.4 L 2092.2 650.8 L 2063.6 661.2 L 1987.8 671.5 L 1951.9 670.4 L 1875.3 695.4 L 1820.5 695.6 L 1785.1 683.1 L 1711.7 701.6 L 1689.9 688.6 L 1686.3 725.8 L 1668.5 740.4 L 1650.7 755 L 1626.2 724.8 L 1651.4 699.7 L 1610.8 705.4 L 1555.1 690.1 L 1509.3 728.4 L 1408.2 735.9 L 1354.3 700.2 L 1282.5 697.9 L 1267.1 725.6 L 1221.1 733.5 L 1156.7 698 L 1084 699.2 L 1044.5 633 L 995.9 596 L 1028.3 544.2 L 986.1 512.4 L 1059.9 448.7 L 1162.5 446 L 1190.5 395.4 L 1317.4 404.2 L 1397.5 361 L 1475.1 342.2 L 1585.3 340.8 L 1701.5 387.7 L 1797 413.5 L 1874.6 403.2 L 1932 409.2 L 2010.6 374.4 L 2081.5 371.2 L 2145.7 403.9 L 2157 427.4 L 2150.6 459.8 L 2200.1 476.3 L 2226.4 495.8 L 2180.8 514.8 L 2201.5 591.1 L 2188.5 611.8 L 2224.9 665.1 L 2224.9 665.1 Z M 982.5 355 L 1050.3 334 L 1107.7 343 L 1115.6 368.6 L 1173.7 390.1 L 1161.6 406.4 L 1082.5 410.1 L 1054.1 430.7 L 998.5 466.5 L 977.6 435.5 L 978.5 421.8 L 994.3 414.3 L 1014.9 372.6 L 982.5 355 Z" />
<path class="neighbor" d="M 643 420.5 L 641.7 438 L 620 447.7 L 616 469.3 L 585.1 501.6 L 573.8 497 L 572.4 482.3 L 535.5 460 L 529.7 428.2 L 535.4 382.8 L 544.5 362.1 L 533.2 351.6 L 533.2 351.6 L 528.8 330.4 L 557.6 297.6 L 561.9 310.2 L 579.8 304.3 L 594 322.1 L 609.9 329 L 614.4 353.1 L 614.4 353.1 L 605.9 375.8 L 615.4 404.3 L 643 420.5 Z" />
<path class="neighbor" d="M 346.3 43.5 L 367.5 51.7 L 417.2 80.3 L 472.3 93.1 L 497.2 83.1 L 513.3 108.9 L 534.5 127.9 L 508.9 153 L 478.7 138.2 L 432.7 139.2 L 375.4 128.1 L 344.3 129.6 L 329.9 143.4 L 306 128.1 L 292 155.7 L 324.6 186.9 L 339.1 207.5 L 369.7 232.4 L 395.1 247.1 L 420.2 275 L 479.2 300.2 L 471.9 311.5 L 471.9 311.5 L 409.2 286.9 L 370.6 262.9 L 309.7 243.1 L 253.7 194.1 L 267.1 189.1 L 236.8 161.1 L 235.5 138.6 L 192.7 128.1 L 172.3 156.9 L 152.6 134.6 L 154.1 111.4 L 156.5 110.4 L 202.9 112.6 L 215.1 101.4 L 237.8 112.3 L 263.9 113.5 L 263.7 94.9 L 286.8 88.1 L 293.3 61.2 L 346.3 43.5 Z" />
<path class="neighbor" d="M -61.4 17.6 L -21.1 27 L -13.3 14.4 L 52.5 2.8 L 67.4 26 L 162.6 43.2 L 155.4 76 L 171.3 104.3 L 118.3 94.6 L 64.2 118.2 L 67.9 151.3 L 59.7 170.3 L 81.5 204.2 L 144 237.7 L 177.5 292.8 L 251.6 346.5 L 303.8 346 L 320 360.8 L 301.3 374 L 361 398.1 L 409.9 418.3 L 467 453 L 473.9 465.4 L 461.4 489.3 L 424.5 458.2 L 366.6 447.2 L 338.6 490.3 L 386.7 515 L 378.8 549.7 L 351 553.7 L 315.4 610.8 L 287.6 615.9 L 287.9 595.6 L 301.5 559.9 L 316 545.6 L 290 507 L 269.6 473.5 L 242 465.2 L 222.3 436.4 L 179.5 424.3 L 150.7 397.5 L 101.4 393.2 L 49.4 363.1 L -11.5 319.8 L -56.8 281.4 L -77.6 215.6 L -110.7 207.9 L -164.9 185.9 L -195.6 194.9 L -234.1 225.8 L -261.7 230.7 L -254.1 201.8 L -290.2 193.3 L -307.4 141.8 L -284.3 121.5 L -303.9 96.5 L -301.1 77.7 L -272.5 91.9 L -240.4 88.8 L -203 66.2 L -191.5 76.7 L -159.8 74.6 L -145.3 47.8 L -96.1 56.1 L -66.7 44.9 L -61.4 17.6 Z M 226.2 600.3 L 276.7 594.5 L 252.8 646.9 L 262.7 667.5 L 248.7 701.8 L 197.8 676.7 L 163.9 669.5 L 71 635.6 L 80.3 601.5 L 158.2 607.5 L 226.2 600.3 Z M -176.8 416.7 L -143.5 396.1 L -103.6 443.4 L -112.9 531.5 L -143.2 527.3 L -170.4 549.5 L -195.6 531.8 L -198.3 451.5 L -213.5 413.4 L -176.8 416.7 Z" />
<path class="neighbor" d="M 1698.4 1675.5 L 1434.2 1675.5 L 1175.8 1675.5 L 908.1 1675.5 L 908.1 1430.2 L 908.1 1193.4 L 888.1 1139.7 L 905.3 1098.6 L 895 1070.1 L 919.1 1038.2 L 1007.7 1037.1 L 1071.8 1054.7 L 1137.9 1074.4 L 1168.7 1084.7 L 1220 1063.6 L 1247.4 1044.5 L 1306.1 1039.1 L 1353.5 1047.5 L 1371.6 1080.5 L 1387.1 1058.7 L 1440.5 1074.5 L 1492.4 1078.2 L 1525.2 1061.5 L 1525.2 1061.5 L 1562.3 1158.6 L 1568.9 1175.9 L 1550.2 1202.6 L 1535.9 1253 L 1517.8 1287.6 L 1502.2 1299.3 L 1480.1 1277.8 L 1450 1248.1 L 1402.5 1152.6 L 1395.6 1158.6 L 1423.2 1228.9 L 1464.1 1295.9 L 1514.4 1399.6 L 1539 1435.8 L 1560.4 1473.4 L 1620.2 1547.2 L 1607 1558.8 L 1609.1 1602 L 1686.7 1661.8 L 1698.4 1675.5 Z" />
<path class="neighbor" d="M 908.1 1675.5 L 908.1 1808.5 L 831.5 1808.7 L 830.7 1836.6 L 565 1709.1 L 299.4 1581.6 L 232.2 1618 L 185.1 1642.8 L 147.6 1606.2 L 42.3 1577.5 L 13 1535.7 L -39.5 1504.8 L -70.7 1517 L -94.4 1479.9 L -96.9 1451.3 L -136.2 1402.8 L -109.8 1375 L -115.6 1333.1 L -107.2 1296.6 L -112 1266.3 L -100.2 1211.9 L -103.9 1181 L -125.4 1122.2 L -92.9 1106.8 L -87.1 1078.6 L -94.2 1051 L -48.5 1025.4 L -28 1004 L 4.5 984.9 L 8.2 933.7 L 86.5 956.7 L 114.4 950.9 L 170.1 962.1 L 258.4 991.8 L 289.6 1051 L 349.4 1063.9 L 443.3 1091.8 L 514.2 1124.9 L 546.7 1107.7 L 578.6 1077 L 563.1 1026 L 584 993.6 L 632 962.4 L 677.8 953.3 L 767.9 966.9 L 790.7 996.7 L 815.5 997 L 836.7 1008.4 L 902.8 1016.2 L 919.1 1038.2 L 895 1070.1 L 905.3 1098.6 L 888.1 1139.7 L 908.1 1193.4 L 908.1 1430.2 L 908.1 1675.5 Z" />
<path class="neighbor" d="M 479.2 300.2 L 420.2 275 L 395.1 247.1 L 369.7 232.4 L 339.1 207.5 L 324.6 186.9 L 292 155.7 L 306 128.1 L 329.9 143.4 L 344.3 129.6 L 375.4 128.1 L 432.7 139.2 L 478.7 138.2 L 508.9 153 L 508.9 153 L 533 152.8 L 516.3 182.1 L 548.4 207.7 L 538.7 239 L 523 242 L 510.6 248.1 L 488.9 263.5 L 479.2 300.2 Z" />
<path class="neighbor" d="M 733.6 322.1 L 767 343.5 L 771.7 387.6 L 759 389.8 L 748.1 401.4 L 712 400.1 L 686.6 414.6 L 643 420.5 L 615.4 404.3 L 605.9 375.8 L 614.4 353.1 L 614.4 353.1 L 622.9 353.7 L 625.8 340 L 665.2 329.7 L 680.1 327.1 L 702.8 323.2 L 733.6 322.1 Z" />
<path class="neighbor" d="M 497.2 83.1 L 497.2 83.1 L 548.2 65.6 L 589.7 68.6 L 625.8 94.7 L 633.3 115.9 L 673.9 131.6 L 679.1 159.1 L 717.9 178.4 L 738.9 163.5 L 755.3 171.8 L 739.9 183 L 752.1 194.6 L 735.6 209.7 L 741.6 234.1 L 774 262.8 L 748.6 283.6 L 737.4 304.8 L 744.6 312.7 L 733.6 322.1 L 702.8 323.2 L 680.1 327.1 L 677.9 322.1 L 685.8 314.2 L 693.3 298 L 683.8 298.4 L 670.9 286 L 659.9 282.9 L 651.2 272.3 L 638.8 268.2 L 629.3 258.8 L 617.4 262.4 L 608.2 284.6 L 592.2 289.3 L 597.7 283.6 L 572.3 269.8 L 550.4 262.6 L 540.7 253.4 L 523 242 L 538.7 239 L 548.4 207.7 L 516.3 182.1 L 533 152.8 L 508.9 153 L 508.9 153 L 534.5 127.9 L 513.3 108.9 L 497.2 83.1 Z" />
<path class="neighbor" d="M 579.8 304.3 L 561.9 310.2 L 557.6 297.6 L 528.8 330.4 L 533.2 351.6 L 519.3 346.5 L 500.6 324.7 L 471.9 311.5 L 479.2 300.2 L 488.9 263.5 L 510.6 248.1 L 523 242 L 540.7 253.4 L 550.4 262.6 L 572.3 269.8 L 597.7 283.6 L 592.2 289.3 L 579.8 304.3 Z" />
<path class="neighbor" d="M 614.4 353.1 L 609.9 329 L 594 322.1 L 579.8 304.3 L 592.2 289.3 L 608.2 284.6 L 617.4 262.4 L 629.3 258.8 L 638.8 268.2 L 651.2 272.3 L 659.9 282.9 L 670.9 286 L 683.8 298.4 L 693.3 298 L 685.8 314.2 L 677.9 322.1 L 680.1 327.1 L 665.2 329.7 L 625.8 340 L 622.9 353.7 L 614.4 353.1 Z" />
<path class="lake" d="M 528 325.9 L 528 325.9 L 528 325.9 L 528 325.9 L 532.7 324.2 L 534.6 328.3 L 538.5 333 L 540.5 336.3 L 539.6 338.2 L 534.8 337.6 L 522.9 332.9 L 515.1 325 L 520.2 325 L 528 325.9 Z" />
<path class="country" d="M 994 789.7 L 985.7 809.3 L 889.8 815 L 890.4 804 L 809.2 791 L 821.5 762.7 L 857.9 785.2 L 909.8 781.4 L 959.3 786.1 L 957.7 797.7 L 994 789.7 Z M 771.7 387.6 L 821 389.5 L 874.3 371.2 L 921.2 394.5 L 981.8 388.2 L 982.5 355 L 1014.9 372.6 L 994.3 414.3 L 978.5 421.8 L 937.9 419.9 L 903.1 413.6 L 822.5 430.9 L 868.7 468.3 L 834.8 479.2 L 797.7 479.3 L 762.5 445 L 750 459.6 L 764.9 499.4 L 798.2 530.6 L 773.1 545.2 L 810.2 575.9 L 843.2 595.2 L 844.1 632.8 L 782.5 615.2 L 802.2 649.2 L 759.9 656.2 L 785.2 714.9 L 740.9 715.8 L 686.3 686.8 L 661.3 633.5 L 649.7 589.2 L 623.7 558.6 L 589.6 520.6 L 585.1 501.6 L 616 469.3 L 620 447.7 L 641.7 438 L 643 420.5 L 686.6 414.6 L 712 400.1 L 748.1 401.4 L 759 389.8 L 771.7 387.6 Z" />

<path class="river" d="M 1059 201.1 L 1092.5 186.1 L 1103.2 177.9 L 1103.5 170.8 L 1102.7 165.6 L 1099.7 160.7" />
<path class="river" d="M 1221.5 126.4 L 1217.9 122.8 L 1212.3 119 L 1201.4 115.7 L 1189.4 116.8 L 1176.3 122.3 L 1167.4 124.4 L 1162.8 123 L 1159.9 123 L 1158.9 124.6 L 1159.2 125.9 L 1160.6 126.9 L 1160.4 127.6 L 1158.5 128.1 L 1159.9 129.1 L 1166.7 131.7" />
<path class="river" d="M 1166.7 131.7 L 1179.5 137 L 1184.3 138.1 L 1186.1 137.7 L 1188.1 138.3 L 1192.9 143.2 L 1197.7 145.7 L 1202.5 145.6 L 1207.4 147 L 1214.8 149.3" />
<path class="river" d="M 1166.7 131.7 L 1219.7 133.6" />
<path class="river" d="M 389 -60.2 L 407.3 -48.6 L 417.6 -43.5 L 426 -40.8 L 451.6 -40.4 L 492.1 -42 L 494.8 -43.4 L 508.5 -44.1 L 513.2 -43.2 L 515.4 -41.4 L 516.7 -38.2 L 516.7 -36.8 L 513.4 -26.3 L 512.5 -21.6 L 510.5 -17 L 505.7 -13.8 L 502.3 -6.8 L 500.7 0.4 L 503.7 4.9 L 504.2 8.3 L 504.5 10.5 L 504.3 18.1 L 504.8 23.6 L 507.3 27.8 L 506.2 31.4 L 501.4 34.6 L 500.1 38.1 L 502.1 41.9 L 503.1 48.9 L 502.9 59 L 499.1 67 L 491.7 72.9 L 490.3 76.1 L 492.5 81.4 L 497.8 88 L 501.5 92.6 L 505 100 L 503 103.7 L 505.4 106.5 L 512.2 108.6 L 512.8 109.4 L 510.7 110.2 L 509 112.6 L 508.8 117.1 L 514.7 121.2 L 526.7 125.2 L 540.1 127.5 L 555 128.2 L 563.7 127.6 L 566 125.8 L 568.9 126.4 L 572.4 129.5 L 578.1 131.3 L 586 131.7 L 592 133.7 L 593.9 135.3 L 596.1 137.1 L 597.7 141.1 L 596.8 145.7 L 598.6 149.6 L 603.1 152.7 L 608.4 154.2 L 614.5 153.8 L 617.4 155.1 L 617.3 157.9 L 619.4 160.9 L 623.8 164.1 L 635.9 163.1 L 665.7 155.2 L 676.5 157.7 L 681.4 160 L 684.1 163 L 691 164.9 L 702.2 165.9 L 710.1 169 L 714.5 174.2 L 721.7 172.9 L 731.6 165.2 L 741.4 163.2 L 751 166.9 L 756.3 169.9 L 757.2 172.3 L 755 173.3 L 749.6 172.8 L 745.2 174.3 L 741.7 177.7 L 741.2 181.3 L 743.6 185.1 L 747 187.7 L 751.4 189.2 L 753.8 191.2 L 754.1 193.7 L 759.9 197.3 L 771.2 201.8 L 776.8 205.1 L 776.5 207.1 L 773.9 209.1 L 769 211.1 L 766.1 213.7 L 765.3 217 L 766.1 219.3 L 769.5 221.3 L 789.8 218.7 L 810.5 220 L 838.2 224.5 L 856.6 226 L 870.2 224 L 918.7 231.2 L 941.2 232.2 L 953.8 229.5 L 962.6 225.8 L 970.3 218.9 L 989.1 209.8 L 1007.3 204.7 L 1031.1 200.5 L 1047.1 199.1 L 1056.1 200.7 L 1059 201.1 L 1063.8 201.4 L 1068.8 201.1 L 1080.9 198.3 L 1098.6 192.8 L 1109.4 187.5 L 1113.2 182.3 L 1113.4 178.6 L 1110 176.1 L 1108.7 173.1 L 1109.5 169.6 L 1107.4 166.1 L 1101.7 162.4 L 1099.7 160.7 L 1097.9 159.1 L 1096.6 157.3 L 1096.6 155 L 1098.7 152.7 L 1100.9 145.8 L 1103 134.4 L 1105.5 125.8 L 1108.6 119.9 L 1113.1 116.1 L 1122 113.7 L 1129 120.6 L 1137.9 124.2 L 1158.5 128.1" />
<path class="river" d="M 587 59.7 L 580.9 66 L 579.5 67.9 L 579.4 69.3 L 580.3 72 L 580 73.8 L 579.2 75.1 L 580.4 77 L 582 79.1 L 583.3 82.2 L 583.2 84.4 L 581.6 85.5 L 582.1 88.1 L 584.4 91.8 L 584.1 94.3 L 582.4 95.5 L 580.7 97.8 L 579.8 101.6 L 582.1 106.2 L 587.6 111.5 L 589.9 115 L 589 116.6 L 590.5 120.4 L 594.4 126.6 L 595.6 130.9 L 593.9 135.3" />
<g class="city"><circle cx="1172.7710438680533" cy="408.89950103642485" r="5" /><text x="1184.7710438680533" y="412.89950103642485">Istanbul</text></g>
<g class="city"><circle cx="823.5942809215746" cy="610.852383921799" r="5" /><text x="835.5942809215746" y="614.852383921799">Athens</text></g>
<g class="city"><circle cx="1051.2642500264592" cy="580.6943495918656" r="5" /><text x="1063.2642500264592" y="584.6943495918656">İzmir</text></g>
<g class="city"><circle cx="981.2113421950779" cy="181.27994805786665" r="5" /><text x="993.2113421950779" y="185.27994805786665">Bucharest</text></g>
<g class="city"><circle cx="1179.0164497416145" cy="463.2229770532932" r="5" /><text x="1191.0164497416145" y="467.2229770532932">Bursa</text></g>
<g class="city"><circle cx="795.8442992727435" cy="297.8313095408554" r="5" /><text x="807.8442992727435" y="301.8313095408554">Sofia</text></g>
<g class="city"><circle cx="579.3992109648918" cy="1001.5669067689685" r="5" /><text x="591.3992109648918" y="1005.5669067689685">Banghazi</text></g>
<g class="city"><circle cx="606.1236207123958" cy="155.6208037536859" r="5" /><text x="618.1236207123958" y="159.6208037536859">Belgrade</text></g>
<text class="map-title" x="80" y="105">Greece Physical Study Map</text>
<text class="map-subtitle" x="80" y="145">Landmark: Parthenon | Study terrain and water systems</text>
  <text class="footer" x="80" y="1036">Made with Natural Earth. Free vector and raster map data @ naturalearthdata.com.</text>
</svg>
