<?xml version="1.0" encoding="UTF-8"?>
<svg xmlns="http://www.w3.org/2000/svg" width="1600" height="1100" viewBox="0 0 1600 1100" role="img" aria-labelledby="title desc">
  <title id="title">Honduras Physical Study Map</title>
  <desc id="desc">Made with Natural Earth. Free vector and raster map data @ naturalearthdata.com.</desc>
  <defs>
    <linearGradient id="terrain" x1="0" x2="1" y1="0" y2="1">
      <stop offset="0%" stop-color="#6c8c53" />
      <stop offset="42%" stop-color="#d5c487" />
      <stop offset="72%" stop-color="#b88b5f" />
      <stop offset="100%" stop-color="#f1f5ee" />
    </linearGradient>
    <filter id="softShadow" x="-10%" y="-10%" width="120%" height="120%">
      <feDropShadow dx="0" dy="10" stdDeviation="12" flood-color="#0f172a" flood-opacity="0.16" />
    </filter>
    <style>
      .neighbor { fill: #ffffff; stroke: #94a3b8; stroke-width: 1.2; opacity: 0.72; }
      .country { fill: url(#terrain); stroke: #1f2937; stroke-width: 4; filter: url(#softShadow); }
      .admin1 { fill: none; stroke: #64748b; stroke-width: 1.1; stroke-dasharray: 6 7; opacity: 0.75; }
      .river { fill: none; stroke: #1d9bd1; stroke-width: 3; stroke-linecap: round; opacity: 0.88; }
      .lake { fill: #8ed1ea; stroke: #0ea5e9; stroke-width: 1.5; opacity: 0.8; }
      .city circle { fill: #ef4444; stroke: #ffffff; stroke-width: 2; }
      .city text, .terrain-label { fill: #172033; font: 700 24px system-ui, sans-serif; paint-order: stroke; stroke: #ffffff; stroke-width: 5; stroke-linejoin: round; }
      .map-title { fill: #0f172a; font: 800 46px system-ui, sans-serif; }
      .map-subtitle { fill: #475569; font: 600 24px system-ui, sans-serif; }
      .footer { fill: #64748b; font: 500 18px system-ui, sans-serif; }
    </style>
  </defs>
  <rect width="100%" height="100%" fill="#d8edf0" />
  <rect x="40" y="40" width="1520" height="1020" rx="32" fill="#ffffff" opacity="0.54" />
  <path class="neighbor" d="M -2732.5 -1478.9 L -2602.5 -1487.7 L -2457.2 -1500.1 L -2467.9 -1477.7 L -2295.2 -1422.1 L -2034.2 -1341.5 L -1806.7 -1342.3 L -1715.9 -1342.4 L -1715.7 -1389.6 L -1517.5 -1389.5 L -1475.8 -1349 L -1417.3 -1312.8 L -1349.3 -1262.5 L -1311.4 -1202.7 L -1282.9 -1139.9 L -1223.8 -1105.3 L -1128.8 -1071 L -1056.7 -1161.4 L -963.2 -1163.6 L -882.6 -1118 L -825.2 -1039.7 L -785.6 -972.6 L -718.1 -907.4 L -692.9 -827.3 L -660.9 -773.5 L -571.7 -738.1 L -490.4 -712.9 L -445.8 -716.3 L -490.2 -615.9 L -510.2 -533.6 L -518.6 -380.3 L -529.6 -324.4 L -509.8 -262 L -474.3 -206.2 L -451.5 -117.5 L -375.5 -32.3 L -348.8 33 L -304.1 89.3 L -182.6 119.6 L -135.3 167.5 L -35 135.5 L 52.3 124 L 137.9 103.4 L 209.9 83.8 L 282.7 37.1 L 310 -29.6 L 319.4 -125.7 L 339.1 -159.2 L 416.6 -189.1 L 537.6 -215.7 L 638.9 -211.7 L 708.3 -221.4 L 735.7 -197.1 L 731.9 -142 L 670.4 -74 L 643.2 -4.4 L 664.3 15.6 L 647.1 65 L 618.5 154.3 L 589.5 124.9 L 565.5 126.8 L 543.8 128.3 L 502.8 197.4 L 482 183.8 L 468.2 189.1 L 469.1 206 L 363.2 204.7 L 256.4 204.9 L 256.4 269.3 L 204.7 269.6 L 247.3 307.8 L 289.6 334.2 L 302.3 359 L 320.8 365.9 L 317.9 404.9 L 171 405.2 L 116 498.5 L 132.2 519.8 L 119 546.7 L 116.2 580 L -13.3 456.8 L -72.3 419.7 L -165.7 389.8 L -229.6 398.1 L -321.5 441.2 L -379.2 452.5 L -460 422.3 L -545.7 400.6 L -652.6 348.1 L -738.4 332 L -867.9 278.9 L -963.6 224.2 L -992.5 193.6 L -1056.5 186.8 L -1173.5 150.6 L -1221.2 98.4 L -1344.1 33.5 L -1401.4 -38.7 L -1428.7 -94.4 L -1390.5 -105.6 L -1402.3 -138.2 L -1376 -167.9 L -1375.4 -207.5 L -1414 -258.9 L -1424.4 -304.4 L -1462.7 -362.1 L -1563.5 -475.8 L -1678.6 -565.2 L -1734.2 -636.5 L -1832.4 -683.2 L -1853.5 -711.2 L -1836 -781.9 L -1894.3 -808.6 L -1961.9 -864.2 L -1990.4 -944 L -2051.9 -953.3 L -2118.4 -1013.5 L -2172 -1069.2 L -2177 -1104.9 L -2238.5 -1191.2 L -2279 -1278.8 L -2277.3 -1322.8 L -2360 -1368.2 L -2398.2 -1363.2 L -2463.5 -1394.7 L -2481.8 -1348.2 L -2462.9 -1293.3 L -2451.8 -1207.4 L -2412.5 -1160.3 L -2327.6 -1081.5 L -2308.8 -1054.5 L -2291.4 -1046.4 L -2276.3 -1007.1 L -2255.9 -1008.7 L -2233 -934.9 L -2198.2 -905.8 L -2173.9 -865.3 L -2102 -807 L -2064 -700.6 L -2030.1 -650.5 L -1998.3 -596.9 L -1992 -536.6 L -1936.8 -532.8 L -1890.9 -480.8 L -1849.5 -429.7 L -1852.2 -409.2 L -1900.4 -367.2 L -1920.6 -367.8 L -1950.8 -437.3 L -2025.7 -502.5 L -2108.2 -557.8 L -2166.7 -586.9 L -2162.9 -670.6 L -2180.3 -732.6 L -2234.8 -768 L -2313.4 -819.1 L -2328.5 -804.4 L -2357.4 -834.2 L -2427.9 -861.9 L -2495.4 -928.3 L -2487 -936.9 L -2439.9 -930.4 L -2397.5 -973.2 L -2393.2 -1024.8 L -2481.3 -1106.4 L -2548.4 -1138.1 L -2590.6 -1209.5 L -2633 -1284.5 L -2686 -1376 L -2732.5 -1478.9 Z" />
<path class="neighbor" d="M 1096.8 991.9 L 1069.4 1016.1 L 1035.7 1008.5 L 1016.7 984.9 L 980.4 975.4 L 954.1 990.3 L 878.8 960 L 861.5 974.7 L 821.9 938.7 L 768.5 892.5 L 743.3 854 L 695.1 818 L 637.8 766.3 L 650.5 748.7 L 669.3 765.9 L 678 757.8 L 713.6 753.1 L 727.9 727 L 744.7 725.9 L 742.2 669.7 L 769.1 667 L 792.9 667.8 L 817.6 637.3 L 851.4 660.4 L 863.1 646.2 L 884.2 632.6 L 924.1 601.1 L 926 577.5 L 937 578.5 L 951.7 551.2 L 963.6 547.9 L 983.1 565.4 L 1006 570.5 L 1031.3 556 L 1060.2 555.9 L 1099.9 541 L 1115.8 525.4 L 1155 527.7 L 1145.2 538.7 L 1139.3 564.2 L 1151 606.1 L 1124.7 645.1 L 1112.4 691.1 L 1108.7 741.5 L 1114.8 771 L 1117.7 822.5 L 1100.2 833.7 L 1089.5 882.7 L 1097.4 912.9 L 1074 942.1 L 1079.3 973.1 L 1096.8 991.9 Z" />
<path class="neighbor" d="M 445 593.1 L 478.7 602.7 L 503.4 625.6 L 537.9 643.9 L 542.2 659.3 L 592.3 645.7 L 615.9 653.8 L 631.5 666.2 L 623.5 712.1 L 610.8 739 L 544.5 737.3 L 503.4 726.3 L 456 703.6 L 392.5 696.5 L 360.1 671.9 L 363.6 655.1 L 402.8 626.3 L 424.3 613.6 L 418.2 600.2 L 445 593.1 Z" />
<path class="neighbor" d="M 116.2 580 L 119 546.7 L 132.2 519.8 L 116 498.5 L 171 405.2 L 317.9 404.9 L 320.8 365.9 L 302.3 359 L 289.6 334.2 L 247.3 307.8 L 204.7 269.6 L 256.4 269.3 L 256.4 204.9 L 363.2 204.7 L 469.1 206 L 468.2 296.6 L 459.2 425.8 L 493.4 425.7 L 530.7 446.4 L 540.5 429.4 L 574.1 444 L 522 487.6 L 467.7 519.6 L 459.7 541.6 L 468.8 564.1 L 445 593.1 L 418.2 600.2 L 424.3 613.6 L 402.8 626.3 L 363.6 655.1 L 360.1 671.9 L 301.4 652 L 230 649.9 L 177.7 627.2 L 116.2 580 Z" />
<path class="neighbor" d="M 469.1 206 L 468.2 189.1 L 482 183.8 L 502.8 197.4 L 543.8 128.3 L 565.5 126.8 L 565.9 143.6 L 587.6 144.1 L 585.7 175.2 L 567.2 224.7 L 577.2 242.4 L 565.2 283.4 L 572.4 294.3 L 559.2 352.1 L 536.7 382.5 L 516 386.1 L 493.4 425.7 L 459.2 425.8 L 468.2 296.6 L 469.1 206 Z" />
<path class="lake" d="M 964.3 955.1 L 966.9 961.3 L 968.1 966.9 L 969.4 971.4 L 965.6 977.4 L 961.1 979.2 L 954.9 980.8 L 949.9 979 L 942.4 978.3 L 930.4 975.6 L 913.3 970.7 L 896 965 L 883.9 960.2 L 876.2 956.2 L 869.8 952.4 L 864.8 948.6 L 860.8 944.5 L 856.7 938.4 L 851.8 929.6 L 847.6 920.4 L 845.3 913.2 L 844.1 908.9 L 842.7 906.7 L 841.3 905.8 L 840.2 904.5 L 839.8 902.4 L 839.9 899.6 L 839.9 893.9 L 839.1 884.9 L 838.4 875.8 L 838.7 870.1 L 840.7 866.4 L 843.3 859.3 L 847.5 858 L 851.8 858.2 L 857.1 859.7 L 865.7 863.1 L 875.7 868.6 L 884.3 875.2 L 892.5 881.7 L 901.6 887 L 913.4 895.3 L 927.9 909 L 942 924.6 L 952.6 937.5 L 959.4 947.2 L 964.3 955.1 L 964.3 955.1 L 964.3 955.1 L 964.3 955.1 Z" />
<path class="lake" d="M 499.4 445.8 L 494.1 449.7 L 488.8 454.4 L 485.7 461.7 L 482.9 471.3 L 476.4 476.5 L 464.6 479.5 L 458.2 480.3 L 453.6 482 L 450.9 483.6 L 448.1 480.1 L 443.6 474.6 L 441 471.4 L 442.9 469.4 L 449.1 467.5 L 457.2 464.5 L 464.5 461.4 L 473.4 458.3 L 488.8 448.6 L 501.2 439.8 L 503.4 439.7 L 502.3 442.4 L 499.4 445.8 L 499.4 445.8 L 499.4 445.8 L 499.4 445.8 Z" />
<path class="lake" d="M 816.8 834.7 L 817 839.4 L 816.6 846.7 L 808.6 849.3 L 798.8 850.8 L 792.6 850.1 L 793.6 846.9 L 794.7 842.8 L 793.9 840.1 L 791.7 838.4 L 784.4 839.1 L 774.9 839.1 L 768.1 835.7 L 763.2 831.2 L 761.3 827 L 761.3 824.1 L 766.2 823.5 L 775.1 821.5 L 782.9 817.4 L 789.9 815.5 L 795 816.2 L 801.7 826.7 L 810.2 834.4 L 815 832.8 L 816.8 834.7 L 816.8 834.7 L 816.8 834.7 L 816.8 834.7 Z" />
<path class="country" d="M 1155 527.7 L 1115.8 525.4 L 1099.9 541 L 1060.2 555.9 L 1031.3 556 L 1006 570.5 L 983.1 565.4 L 963.6 547.9 L 951.7 551.2 L 937 578.5 L 926 577.5 L 924.1 601.1 L 884.2 632.6 L 863.1 646.2 L 851.4 660.4 L 817.6 637.3 L 792.9 667.8 L 769.1 667 L 742.2 669.7 L 744.7 725.9 L 727.9 727 L 713.6 753.1 L 678 757.8 L 658.2 722 L 623.5 712.1 L 631.5 666.2 L 615.9 653.8 L 592.3 645.7 L 542.2 659.3 L 537.9 643.9 L 503.4 625.6 L 478.7 602.7 L 445 593.1 L 468.8 564.1 L 459.7 541.6 L 467.7 519.6 L 522 487.6 L 574.1 444 L 586 448.4 L 611.1 428.3 L 643.8 426.7 L 654.4 436 L 672.2 430.3 L 725.3 440.7 L 778.2 437.7 L 815 425 L 828.4 412.2 L 864.9 418.1 L 892.2 425.9 L 922.2 423.2 L 944.9 413.3 L 997.2 429.2 L 1015.3 431.7 L 1050.2 453.1 L 1083.3 478.7 L 1124.9 496.2 L 1155 527.7 Z" />

<path class="river" d="M 969.4 971.4 L 945.6 961.1 L 914.1 933.1 L 843.3 859.3" />
<path class="river" d="M 224.8 525.2 L 226.4 509.2 L 222 500.2 L 222.8 496.3 L 227.3 494.7 L 251.2 492 L 270.2 494.3 L 293.6 500.3 L 307.5 501.5 L 314.7 494.5 L 315.8 491.1 L 309.9 487.6 L 297.1 483.9 L 293.6 478.4 L 299.7 470.8 L 301.1 463.4 L 297.8 456 L 292.5 451.7 L 285.3 450.3 L 280.6 447.5 L 278.5 443.4 L 280.7 433.7 L 287.3 418.5 L 298.1 410.6 L 313.1 410.2 L 319.9 404.8 L 318.4 394.3 L 319.5 382.9 L 323.3 372.6 L 323.3 368.1" />
<path class="river" d="M 732.1 707.9 L 755.5 697.4 L 772.3 686.2 L 781.6 683.3 L 789 684.9 L 796.4 690.6 L 803.9 700.3 L 811.7 703.3 L 820 699.6 L 828.2 698.3 L 836.1 699.3 L 845.1 689.6 L 855 669.2 L 859.8 655.8 L 859.4 649.4 L 865 643.6 L 876.7 638.4 L 888.5 629.2 L 900.3 616 L 910.5 608.3 L 919.2 606 L 922.5 602.4 L 920.4 597.5 L 921.1 590.5 L 924.6 581.6 L 929.6 576.4 L 936.2 574.9 L 938.9 572.1 L 937.5 567.9 L 938.8 563.2 L 944.7 555.6 L 959 549 L 967.2 551.2 L 973.9 560 L 983.5 566 L 995.9 569.2 L 1005.6 568 L 1012.4 562.5 L 1018.6 560.8 L 1024 563 L 1026.9 561.8 L 1027.2 557.1 L 1030.1 556.1 L 1035.4 558.6 L 1040.2 559.2 L 1044.3 558 L 1046 555.8 L 1046.8 553.4 L 1049.9 551.7 L 1060.6 553.4 L 1072.6 550.7 L 1085.9 543.7 L 1094.8 540.6 L 1099.1 541.4 L 1104.4 537.8 L 1110.5 529.9 L 1124.4 526.3 L 1153.8 528" />
<path class="river" d="M 3234.5 6682.6 L 3277.3 6686.9 L 3300.9 6691 L 3319.5 6696.5 L 3346.8 6709.4 L 3382.8 6729.8 L 3407.7 6741.1 L 3421.5 6743.3 L 3435.4 6748.5 L 3449.5 6756.6 L 3469.2 6762.1 L 3494.6 6765 L 3515.2 6774.6 L 3539 6799 L 3542.4 6802.5 L 3545.3 6805.7 M 2624.5 6280.4 L 2633.6 6315 L 2640.1 6330 L 2650.8 6340.4 L 2674.5 6345.8 L 2686.3 6357.7 L 2694 6377.8 L 2696.7 6391.5 L 2694.4 6398.8 L 2694.2 6408.3 L 2696.1 6420 L 2694.1 6430 L 2688 6438.5 L 2683.7 6451 L 2681.3 6467.6 L 2682.4 6478.5 L 2686.8 6483.6 L 2693.5 6488.4 L 2702.5 6492.9 L 2720.5 6496.1 L 2747.7 6498 L 2764.8 6503.7 L 2771.7 6513.1 L 2788.3 6520.1 L 2814.6 6524.5 L 2830.5 6529.5 L 2836.2 6535 L 2856.7 6540 L 2892.2 6544.6 L 2912.7 6551.6 L 2918.2 6560.8 L 2916.4 6570.1 L 2907.3 6579.3 L 2903.2 6587 L 2904.1 6593.2 L 2908 6597 L 2914.8 6598.5 L 2923.4 6604.6 L 2933.7 6615.2 L 2949.7 6619.4 L 2971.3 6617.2 L 2985.1 6621.4 L 2991.2 6632.1 L 3003.1 6640.5 L 3029.5 6649.7 L 3042 6655.1 L 3047.7 6660.4 L 3050.8 6667.4 L 3057.3 6671.8 L 3067 6673.7 L 3108.9 6675.3 L 3129 6677.7 L 3144.5 6682 L 3155.8 6683 L 3163.1 6680.6 L 3172.3 6681.2 L 3183.5 6684.7 L 3200.2 6685.5 L 3233.7 6682.6 M -2457.1 -1500.5 L -2464.8 -1482.2 L -2470.7 -1475.3 L -2477.3 -1473.7 L -2484.4 -1465.7 L -2491.9 -1451.3 L -2499.7 -1442 L -2507.9 -1437.7 L -2511.8 -1431.8 L -2511.5 -1424.3 L -2510.5 -1422.6 L -2508.8 -1422.8 L -2506.6 -1421.8 L -2503.4 -1416.3 L -2499.7 -1413.6 L -2493.1 -1413.7 L -2490.2 -1411.5 L -2486.9 -1408.2 L -2481.5 -1406.3 M -2393.4 -1675.4 L -2412.3 -1662.7 L -2422.5 -1652.3 L -2432.9 -1635.4 L -2431.3 -1621.8 L -2431.8 -1610.5 L -2434.3 -1601.5 L -2438.3 -1593.3 L -2443.6 -1585.8 L -2449.2 -1581.3 L -2454.9 -1579.8 L -2457 -1569.9 L -2455.2 -1551.5 L -2448.8 -1540.2 L -2437.6 -1536.2 L -2430.8 -1530.2 L -2428.3 -1522 L -2429.3 -1514 L -2433.7 -1506 L -2441.3 -1501.7 L -2457.1 -1500.5 M -2442.3 -1801.2 L -2444.5 -1760.6 L -2444.6 -1750.2 L -2438.4 -1737.3 L -2420.2 -1713.9 L -2418 -1708.3 M -2459.5 -1876.8 L -2458.4 -1873.4 L -2453.3 -1865.8 L -2452.9 -1853.9 L -2452.1 -1844.3 L -2449 -1839 L -2448.5 -1833 M -2246.1 -1907.3 L -2283.9 -1889.5 L -2294.1 -1880.7 L -2297.4 -1874.6 L -2297.2 -1856.4 L -2300.9 -1848.2 L -2308.5 -1848.1 L -2326.5 -1852.5 L -2333 -1855.9 M -2085.6 -1981.9 L -2099 -1972.4 L -2109.6 -1960.8 L -2121.6 -1943.8 L -2128.9 -1931.1 L -2131.4 -1922.6 L -2130.4 -1911.9 L -2125.9 -1898.8 L -2126.9 -1889.6 L -2133.4 -1884.5 L -2145.3 -1883.6 L -2162.7 -1886.9 L -2175.2 -1892.6 L -2182.7 -1900.5 L -2188.9 -1903.4 L -2193.9 -1901.1 L -2198.4 -1901.4 L -2202.5 -1904.3 L -2203 -1908.2 L -2199.7 -1913.3 L -2199.3 -1917.1 L -2201.8 -1919.7 L -2206.8 -1921.1 L -2214.2 -1921.2 L -2225.1 -1917.8 L -2246.7 -1907.3 M -1443.6 -2351.7 L -1457.7 -2347.4 L -1473.8 -2343.5 L -1492 -2343.3 L -1505.3 -2340 L -1514.6 -2335 L -1527.5 -2324 L -1532.5 -2320.7 L -1536.8 -2320.3 L -1542.5 -2323.7 L -1550.2 -2324.2 L -1559.7 -2321.7 L -1570.3 -2313.2 L -1582 -2298.7 L -1588.9 -2292.1 L -1600.8 -2287.4 L -1635.7 -2284.7 L -1657.8 -2284.7 L -1670.7 -2282.1 L -1681.8 -2277 L -1700.4 -2265.4 L -1716 -2254.4 L -1724.2 -2238.9 L -1737.8 -2229.8 L -1752.1 -2228.7 L -1779.9 -2239.5 L -1787.4 -2241.4 L -1797.2 -2241.1 L -1808.4 -2234.6 L -1825 -2222.2 L -1832.9 -2211 L -1837.7 -2196.9 L -1844.2 -2188 L -1852.3 -2184.4 L -1859.7 -2178.5 L -1866.3 -2170.5 L -1870.8 -2167.4 L -1872.9 -2168.3 L -1875.2 -2166.5 L -1876.8 -2159.6 L -1879.3 -2155.9 L -1882.7 -2155.4 L -1885.4 -2151.4 L -1887.2 -2144.1 L -1892.4 -2136 L -1905.3 -2122.9 L -1932 -2099.7 L -1945.5 -2092 L -1959.1 -2092.4 M -1441.8 -2379.1 L -1438.4 -2357.5 L -1438.9 -2354" />
<path class="river" d="M 2725.7 5822.1 L 2728.1 5821.4 L 2752.4 5820.5 L 2764.5 5823.5 L 2770.2 5830.1 L 2773.1 5837.2 L 2773.2 5844.8 L 2779.9 5849.1 L 2793.1 5850.3 L 2808.6 5848.7 L 2826.2 5844.3 L 2836.3 5843.7 L 2840.1 5848.4 L 2845.9 5855.3 L 2847 5864.6 L 2845.6 5878.4 L 2848 5890.8 L 2854.2 5901.8 L 2855.9 5909.3 L 2857 5912.5 L 2862.1 5913.8 L 2877.7 5912.7 L 2890.9 5917 L 2901.7 5926.7 L 2917.2 5932.7 L 2937.4 5935.1 L 2950.9 5939.4 L 2960.9 5948.8 M 969.4 971.4 L 1001.6 979.8 L 1017.6 987.1 L 1028.2 996.2 L 1034 1003 L 1034.9 1007.5 L 1038.2 1010 L 1046.4 1010.5 L 1066.7 1015.1 L 1079 1014.2 L 1090.3 1009.3 L 1096.5 1003.5 L 1098.5 994.6 M 816.6 846.7 L 843.3 859.3" />
<path class="river" d="M 323.3 368.1 L 317.1 362.5 L 305.1 359.3 L 298.5 354.4 L 298.4 348.2 L 295.5 340.6 L 289.7 331.8 L 277.7 322.8 L 259.4 313.5 L 243.8 301.1 L 231 285.6 L 220.1 275.6 L 211.7 271.4 L 208.9 268.2 L 208.9 265.6 L 210.9 262.4 L 209.3 258.3 L 203.3 254.4 L 199.8 250.3 L 198.9 246 L 200.7 243.4 L 205.3 242.7 L 205.2 239.5 L 200.5 234.1 L 202.5 231 L 211.1 230.4 L 214.7 226.7 L 213.4 219.9 L 210.8 217.1 L 207.1 218.2 L 205.6 216.7 L 206.3 212.5 L 204.5 209.3 L 200.1 207.1 L 196.7 207.6 L 194.1 210.7 L 191.7 210 L 189.5 205.4 L 186.5 204.8 L 182.8 208.3 L 182.1 211 L 183.4 212.6 L 183.2 214.2 L 177.6 214.7 L 172.9 211.3 L 166.3 201.9 L 159.4 198 L 152.3 199.8 L 143 196.9 L 131.6 189.2 L 126.5 182.6 L 127.7 176.9 L 125.7 170.1 L 120.5 162.2 L 117.9 160.6 M 117.9 160.6 L 108.3 154.8 L 89.1 147.8 L 76.7 145.7 L 71.2 148.3 L 67.6 145.9 L 65.5 134.8 L 65 129 L 64.6 121.9 L 63.5 117.9 L 61 114 M 117.9 160.6 L 112.2 142.8 L 106.8 135.3 L 99.7 130.6 L 93.9 123.3 L 86.7 108" />
<g class="city"><circle cx="460.7590740862167" cy="675.5807553753104" r="5" /><text x="472.7590740862167" y="679.5807553753104">San Salvador</text></g>
<g class="city"><circle cx="310.5090300570048" cy="570.3523553493355" r="5" /><text x="322.5090300570048" y="574.3523553493355">Guatemala City</text></g>
<g class="city"><circle cx="689.119898351735" cy="629.7380378714064" r="5" /><text x="701.119898351735" y="633.7380378714064">Tegucigalpa</text></g>
<g class="city"><circle cx="797.6931118010042" cy="852.7136633319417" r="5" /><text x="809.6931118010042" y="856.7136633319417">Managua</text></g>
<g class="city"><circle cx="197.12435106258783" cy="546.684800149272" r="5" /><text x="209.12435106258783" y="550.684800149272">Quetzaltenango</text></g>
<g class="city"><circle cx="512.0693608730869" cy="269.5911986370829" r="5" /><text x="524.0693608730869" y="273.5911986370829">Belmopan</text></g>
<text class="map-title" x="80" y="105">Honduras Physical Study Map</text>
<text class="map-subtitle" x="80" y="145">Landmark: Copán Mayan Ruins | Study terrain and water systems</text>
  <text class="footer" x="80" y="1036">Made with Natural Earth. Free vector and raster map data @ naturalearthdata.com.</text>
</svg>
