<?xml version="1.0" encoding="UTF-8"?>
<svg xmlns="http://www.w3.org/2000/svg" width="1600" height="1100" viewBox="0 0 1600 1100" role="img" aria-labelledby="title desc">
  <title id="title">Croatia Political Study Map</title>
  <desc id="desc">Made with Natural Earth. Free vector and raster map data @ naturalearthdata.com.</desc>
  <defs>
    <linearGradient id="terrain" x1="0" x2="1" y1="0" y2="1">
      <stop offset="0%" stop-color="#6c8c53" />
      <stop offset="42%" stop-color="#d5c487" />
      <stop offset="72%" stop-color="#b88b5f" />
      <stop offset="100%" stop-color="#f1f5ee" />
    </linearGradient>
    <filter id="softShadow" x="-10%" y="-10%" width="120%" height="120%">
      <feDropShadow dx="0" dy="10" stdDeviation="12" flood-color="#0f172a" flood-opacity="0.16" />
    </filter>
    <style>
      .neighbor { fill: #ffffff; stroke: #94a3b8; stroke-width: 1.2; opacity: 0.72; }
      .country { fill: #f7f1df; stroke: #1f2937; stroke-width: 4; filter: url(#softShadow); }
      .admin1 { fill: none; stroke: #64748b; stroke-width: 1.1; stroke-dasharray: 6 7; opacity: 0.75; }
      .river { fill: none; stroke: #1d9bd1; stroke-width: 3; stroke-linecap: round; opacity: 0.88; }
      .lake { fill: #8ed1ea; stroke: #0ea5e9; stroke-width: 1.5; opacity: 0.8; }
      .city circle { fill: #ef4444; stroke: #ffffff; stroke-width: 2; }
      .city text, .terrain-label { fill: #172033; font: 700 24px system-ui, sans-serif; paint-order: stroke; stroke: #ffffff; stroke-width: 5; stroke-linejoin: round; }
      .map-title { fill: #0f172a; font: 800 46px system-ui, sans-serif; }
      .map-subtitle { fill: #475569; font: 600 24px system-ui, sans-serif; }
      .footer { fill: #64748b; font: 500 18px system-ui, sans-serif; }
    </style>
  </defs>
  <rect width="100%" height="100%" fill="#eaf3f8" />
  <rect x="40" y="40" width="1520" height="1020" rx="32" fill="#ffffff" opacity="0.54" />
  <path class="neighbor" d="M 19343 -2456.7 L 19488.8 -2504.4 L 19488.8 -2426.3 L 19363.4 -2420.4 L 19343 -2456.7 Z M 4524.3 366.9 L 4472.2 434.7 L 4361.3 453.6 L 4247.7 571.6 L 4351.6 680.1 L 4340.4 757.1 L 4465.2 891.7 L 4465.2 891.7 L 4396.9 937.8 L 4377.3 966.9 L 4326.8 959.1 L 4248.2 889.6 L 4216 885.8 L 4144.2 859.3 L 4109.2 812.4 L 4002.6 788.5 L 3933.2 806.4 L 3913.2 785.2 L 3757.6 730.4 L 3589.3 711.9 L 3492.6 692.3 L 3478.7 705.8 L 3332.9 609.2 L 3202.5 566.1 L 3103.8 498.9 L 3187 480.7 L 3281.8 385.1 L 3217.9 339.8 L 3386.4 293.2 L 3383.4 268.2 L 3280.7 286.6 L 3284.4 235.8 L 3343.3 203.9 L 3453.9 195.5 L 3471.9 157.4 L 3446.6 94.3 L 3493.1 34.5 L 3491.7 0.9 L 3323.2 -36.3 L 3256.4 -35.1 L 3185.8 -88.6 L 3098.1 -70.5 L 2952.9 -110.7 L 2955.4 -133.2 L 2914.8 -182.7 L 2823.6 -188.3 L 2814.1 -223.8 L 2842.7 -246.9 L 2769.6 -311.6 L 2651.1 -300.6 L 2616.4 -306.3 L 2587.5 -280.3 L 2544.8 -285 L 2544.8 -285 L 2516.7 -358.2 L 2489.8 -396.1 L 2511.8 -406.8 L 2604.1 -402.8 L 2648.6 -427.8 L 2615.6 -458.3 L 2538.5 -478.4 L 2545.4 -499.1 L 2498.9 -519.9 L 2427.2 -594.8 L 2451.7 -625.6 L 2440.5 -679.3 L 2328.8 -706.6 L 2268.8 -692.9 L 2252.5 -721.3 L 2132.2 -750 L 2095.4 -817.4 L 2085.7 -872.9 L 2030.6 -899.2 L 2079.6 -935.5 L 2045.7 -1042.1 L 2127 -1108 L 2109.8 -1127.9 L 2109.8 -1127.9 L 2239.8 -1191.1 L 2120 -1245.5 L 2120 -1245.5 L 2364.8 -1391.4 L 2470.9 -1457.4 L 2513.9 -1515.7 L 2344.7 -1594.1 L 2391.5 -1668.6 L 2288.5 -1753.6 L 2365.5 -1851.6 L 2232.5 -1981.8 L 2338 -2068 L 2163 -2144.2 L 2179.6 -2224.2 L 2272 -2234.7 L 2466.5 -2280.6 L 2466.5 -2280.6 L 2584.4 -2320.4 L 2772.2 -2251.3 L 3085.3 -2224 L 3517.3 -2094.7 L 3605 -2040.4 L 3612.5 -1964.3 L 3485.6 -1904.3 L 3299 -1873.8 L 2788.6 -1960.7 L 2704.7 -1946.1 L 2891 -1862.4 L 2898.3 -1809.4 L 2905.8 -1692.6 L 3053 -1657.7 L 3142.3 -1628 L 3157.1 -1683.5 L 3088.2 -1732.6 L 3161 -1775.9 L 3437.4 -1704.7 L 3533.6 -1732.6 L 3456.7 -1816.3 L 3723.1 -1928.3 L 3828.6 -1921.7 L 3935.4 -1881.7 L 4002 -1960.3 L 3906.6 -2028.4 L 3962.6 -2096.8 L 3878.6 -2167.7 L 4198.3 -2131.1 L 4263.7 -2067 L 4118.9 -2052.9 L 4119.7 -1989.3 L 4209.7 -1950.2 L 4386.3 -1975 L 4414.3 -2047.9 L 4653.1 -2102.3 L 5052 -2200.5 L 5138.2 -2194.9 L 5025.5 -2125.5 L 5167.4 -2113.6 L 5249.3 -2152.6 L 5463.5 -2155.8 L 5633.3 -2203.2 L 5763.6 -2134.3 L 5893.5 -2210 L 5773.7 -2276.2 L 5833.1 -2314 L 6170.8 -2279.4 L 6329.1 -2243.6 L 6743.4 -2113 L 6819.8 -2172.9 L 6703.6 -2233.3 L 6700.3 -2257.5 L 6562.5 -2268.8 L 6600.2 -2323 L 6539 -2412.2 L 6535.6 -2448.7 L 6746.6 -2552.3 L 6821.6 -2656.2 L 6906.6 -2678.6 L 7209.3 -2648.5 L 7233.1 -2584.9 L 7124.7 -2492.2 L 7195.8 -2455.7 L 7232.6 -2375.8 L 7206.7 -2219.2 L 7332.8 -2149.1 L 7283.7 -2072.8 L 7059.8 -1910.4 L 7190.5 -1893.6 L 7235.9 -1934.7 L 7361.7 -1964.1 L 7392.1 -2020.7 L 7491 -2075.1 L 7424.4 -2140.1 L 7477.7 -2215.6 L 7352.7 -2225 L 7325.2 -2288.5 L 7416.4 -2403.3 L 7268 -2496.6 L 7472.6 -2573.6 L 7446.1 -2654.9 L 7503.1 -2657.5 L 7563.2 -2594.1 L 7518.1 -2483.8 L 7640.4 -2462.9 L 7588.3 -2545.4 L 7779.6 -2590.3 L 8016.9 -2596.4 L 8228.1 -2531.2 L 8126.5 -2626.4 L 8115.1 -2748.2 L 8313.9 -2771.2 L 8588.9 -2766.2 L 8836.6 -2781.2 L 8743.7 -2840.9 L 8876 -2916 L 9007.3 -2919.2 L 9229.6 -2975.9 L 9531.5 -2991.1 L 9569.6 -3022.4 L 9869.8 -3033 L 9963.3 -3007.4 L 10219.9 -3068.1 L 10429.9 -3066.2 L 10461.4 -3115.6 L 10570.7 -3164.2 L 10840.6 -3211.1 L 11036.6 -3174.1 L 10881 -3145.9 L 11139.9 -3128.4 L 11170.8 -3071.9 L 11275.2 -3099.7 L 11609.4 -3098.2 L 11867.2 -3042.4 L 11958.9 -2999.6 L 11930.5 -2940.2 L 11804 -2906.4 L 11503.6 -2842.9 L 11417.7 -2809 L 11559.5 -2793 L 11728.6 -2764.1 L 11831.5 -2785.8 L 11889.8 -2712.4 L 11940 -2742.1 L 12122.8 -2760.1 L 12489.6 -2741.3 L 12517.5 -2687.8 L 12995.4 -2670.8 L 13001.9 -2758.1 L 13244.6 -2738.1 L 13427.1 -2738.7 L 13611.7 -2678.5 L 13664.3 -2605.3 L 13596.7 -2557.5 L 13740.2 -2467.5 L 13920 -2421.1 L 14030.3 -2541 L 14213.7 -2489.6 L 14408.6 -2520.3 L 14629.8 -2485.2 L 14714 -2517.2 L 14901 -2501.2 L 14818.5 -2607.3 L 14969.4 -2656.9 L 16002 -2582.6 L 16099.3 -2514.8 L 16398.5 -2427.4 L 16860.2 -2449 L 17087.8 -2430.2 L 17182.9 -2382.9 L 17169 -2299.3 L 17309.9 -2266.8 L 17462.9 -2290.2 L 17665.6 -2293.2 L 17881.5 -2270.8 L 18098.1 -2283.4 L 18297.3 -2181.8 L 18438.9 -2218.4 L 18346.5 -2291.4 L 18397.4 -2342.2 L 18762.1 -2310.2 L 18999.9 -2317.1 L 19328.7 -2262.5 L 19488.8 -2212.6 L 19488.8 -1757.2 L 19487.9 -1756.6 L 19341 -1706.3 L 19192.8 -1714.7 L 19295.9 -1653.9 L 19364 -1559.7 L 19416.8 -1528.9 L 19430 -1481.6 L 19400.5 -1451.3 L 19187.4 -1476.2 L 18867.9 -1390.2 L 18766.3 -1376.8 L 18591.3 -1296.5 L 18425.4 -1226.3 L 18383.4 -1174.4 L 18219.9 -1253.5 L 17922 -1163.7 L 17870 -1206.2 L 17759.9 -1157.2 L 17607 -1172.9 L 17570.1 -1097.7 L 17433 -987.1 L 17437 -940.9 L 17567.2 -915.3 L 17551.9 -748.8 L 17445.8 -744.6 L 17396.9 -649 L 17444.4 -599.7 L 17244.5 -541.3 L 17204.8 -410.8 L 17034.4 -382.9 L 17000.1 -266.8 L 16835.3 -160.3 L 16793.1 -239 L 16744.1 -405.8 L 16680.3 -659.9 L 16735.3 -818.4 L 16831.7 -886.6 L 16837.7 -940.1 L 17015.4 -965.6 L 17219.6 -1109.6 L 17416.4 -1227.1 L 17621.9 -1318.3 L 17713.8 -1479.5 L 17574.8 -1469.9 L 17506.2 -1375.7 L 17216.2 -1250.1 L 17122.6 -1390.7 L 16827.4 -1351.9 L 16541.3 -1160.3 L 16635.7 -1090.2 L 16380.6 -1060.3 L 16203.8 -1048.5 L 16212.1 -1131.2 L 16034.4 -1148.5 L 15892.8 -1092.4 L 15543.2 -1112 L 15167.2 -1078.2 L 14796.9 -855 L 14358.7 -585.4 L 14538.9 -571 L 14595.1 -499.4 L 14706.1 -474 L 14779.3 -531.1 L 14904.7 -523.7 L 15069.7 -397.9 L 15073.6 -300.6 L 14984.2 -186.4 L 14974.6 -49.9 L 14923 132.9 L 14750.7 298.3 L 14712.4 377.4 L 14557.2 510.5 L 14403.2 642.5 L 14329.4 710 L 14177.1 777.1 L 14105 778.6 L 14033.1 723 L 13879.7 806.7 L 13861.9 844.7 L 13861.9 844.7 L 13861.9 844.7 L 13861.9 844.7 L 13845.9 824.7 L 13845.9 824.7 L 13845.2 766.6 L 13903.6 763.6 L 13920 628.5 L 13889.9 530.6 L 13988 490.2 L 14126.8 510.4 L 14203.7 399.2 L 14242.8 274 L 14287.3 232.1 L 14347.3 129.3 L 14158.4 163 L 14059.3 208.1 L 13885.6 207.9 L 13839.3 100.5 L 13703.9 19.3 L 13504.9 -17.3 L 13462.6 -129.3 L 13422.8 -199.5 L 13380 -248.7 L 13309.3 -364 L 13208.9 -406.1 L 13037.8 -440.1 L 12886.2 -437 L 12744.2 -416.4 L 12649.7 -359.5 L 12712.5 -332.4 L 12713.9 -269.2 L 12650.3 -232.6 L 12547.1 -111.3 L 12548.2 -61 L 12387.1 11.2 L 12249.8 -32 L 12113.4 -22.4 L 12053.6 -60.7 L 11985 -73.1 L 11817.6 7.5 L 11667.1 26.4 L 11562 54.8 L 11418 36.1 L 11312 37.3 L 11242.6 -21.1 L 11130.6 -76.1 L 11016 -91.1 L 10871.4 -76.2 L 10763.4 -55 L 10601 -103.1 L 10579.2 -188.7 L 10444.8 -218.1 L 10341 -231.5 L 10212.9 -278.8 L 10094.5 -160.3 L 10140.9 -93 L 10029.8 -13.4 L 9864.5 -42.1 L 9750.4 -46.2 L 9674 -99.6 L 9554.8 -101.3 L 9455.4 -136.4 L 9281.5 -82.6 L 9063.3 15.8 L 8942.8 35.7 L 8898.1 45 L 8837.4 -24.9 L 8690.2 -9.6 L 8641.5 -58.1 L 8561.6 -80.3 L 8506.5 -146.4 L 8443.4 -166.9 L 8279.1 -137.5 L 8121.7 -203.4 L 8060.7 -143.6 L 7805.3 -433.9 L 7659.4 -522.2 L 7701.3 -558.1 L 7414.7 -450.2 L 7305.1 -443.7 L 7314.6 -506 L 7167.7 -545 L 7048.4 -517.2 L 7012.4 -635.7 L 6806.9 -660.3 L 6704.1 -612.9 L 6418.1 -570.7 L 6362.3 -542.5 L 5934.5 -502.7 L 5882.1 -463.7 L 5964.6 -385.4 L 5854.8 -355.6 L 5876.3 -324.5 L 5766.5 -268.8 L 5951.8 -190.2 L 5923.1 -136 L 5762.6 -141 L 5729.4 -107 L 5583.1 -166.3 L 5401.9 -164 L 5280.6 -115.8 L 5145.2 -162 L 4893.3 -241.2 L 4714.7 -238.2 L 4478.7 -113.9 L 4464.5 -30.4 L 4346.9 -96.7 L 4255.7 28.9 L 4289.1 52.2 L 4223.1 138.9 L 4320.1 216.4 L 4404.9 213.2 L 4477.8 289.6 L 4466.2 348.5 L 4524.3 366.9 Z M 9631.7 -3591.5 L 9879 -3617.3 L 10101.2 -3559.7 L 10364.4 -3449.2 L 10336.2 -3346.4 L 10086.8 -3332.1 L 9768.3 -3365.1 L 9578.6 -3408.8 L 9490.9 -3490.8 L 9334.9 -3513.4 L 9631.7 -3591.5 Z M 10667.5 -3392.2 L 10957.3 -3327.2 L 10923.3 -3280.8 L 10278.9 -3236.6 L 10487.7 -3386.8 L 10581.6 -3399.6 L 10667.5 -3392.2 Z M 14782.3 -3032.7 L 15084.2 -3027.7 L 15497.4 -2967 L 15407.5 -2882.1 L 14986.1 -2885.3 L 14796.5 -2858.3 L 14570 -2932.6 L 14631.5 -3011.2 L 14782.3 -3032.7 Z M 15855.9 -2942.3 L 16142.8 -2912.3 L 16010.7 -2867.2 L 15827.9 -2877.4 L 15615.5 -2922.5 L 15642.8 -2959.5 L 15855.9 -2942.3 Z M 14900.3 -2716.4 L 15008.7 -2761.5 L 15151.7 -2772.1 L 15314.1 -2728.4 L 15327.9 -2698.4 L 15154.6 -2697.6 L 14920.3 -2710.3 L 14900.3 -2716.4 Z M 4037.9 -3541.8 L 4261.1 -3562.6 L 4434.8 -3564 L 4458.2 -3533.1 L 4523.8 -3560.5 L 4631.6 -3579.4 L 4801.1 -3554.3 L 4756.9 -3536.9 L 4603.5 -3521.8 L 4500.6 -3513.1 L 4484.7 -3494.4 L 4351.1 -3475.5 L 4227.2 -3502.6 L 4292.4 -3538.3 L 4037.9 -3541.8 Z M 1509.6 -539.4 L 1299.4 -537.7 L 1158.6 -550.7 L 1184.7 -601 L 1342.4 -638.1 L 1462.1 -618 L 1512.7 -599.9 L 1500.5 -568.6 L 1509.6 -539.4 Z M 5028.1 -2759.8 L 5301.8 -2860.1 L 5270.9 -2912 L 5526.6 -2972.4 L 5904 -3045.8 L 6284.5 -3067.2 L 6480.3 -3109.6 L 6702.8 -3124.5 L 6782.2 -3079.3 L 6705.5 -3043.7 L 6300.4 -2987.1 L 5951.3 -2932.5 L 5596.1 -2823.7 L 5425.8 -2712.1 L 5246.6 -2602.2 L 5269.8 -2507.2 L 5488.5 -2413.5 L 5421 -2403.4 L 5047.4 -2418.3 L 5017.1 -2469.1 L 4810.2 -2499.7 L 4793.5 -2561.5 L 4910.4 -2586 L 4906.5 -2648.3 L 5133.2 -2745.8 L 5028.1 -2759.8 Z M 15249.1 -468.2 L 15288.7 -358 L 15285.8 -245.5 L 15333 -130.2 L 15448 72.3 L 15278.8 34.6 L 15208.4 199.8 L 15319.9 316.9 L 15316.6 396.8 L 15230 327.9 L 15155.1 416.4 L 15133.9 320.5 L 15146.7 209.1 L 15133.6 85.7 L 15160.1 -0.7 L 15165.1 -153.6 L 15098.2 -266 L 15108.3 -422.2 L 15214 -474.8 L 15168.5 -527.8 L 15219.4 -543.8 L 15249.1 -468.2 Z M -21087 -2011.7 L -21096.8 -1940.6 L -21019.7 -1912.2 L -21046.2 -1995.3 L -20735.9 -1978.2 L -20512.1 -1871.2 L -20625.4 -1821.4 L -20812.8 -1809.6 L -20815.7 -1697.9 L -20861.4 -1674.1 L -20968.5 -1677.5 L -21055.6 -1717.4 L -21207.6 -1750.7 L -21233.2 -1800.3 L -21349.3 -1819 L -21479.3 -1804.2 L -21541.4 -1844.2 L -21516.6 -1886.6 L -21653.5 -1859.5 L -21601.9 -1805.7 L -21666.8 -1757.2 L -21666.8 -2212.6 L -21386.7 -2125.3 L -21087 -2011.7 Z M -21517.4 -2433.2 L -21666.8 -2426.3 L -21666.8 -2504.4 L -21652.1 -2509.2 L -21555.2 -2508.9 L -21389.9 -2476.2 L -21399.7 -2460.6 L -21517.4 -2433.2 Z M 2733.4 415.8 L 2763.5 387.5 L 2844.8 412 L 2881.6 416.5 L 2896.4 439.1 L 2913.7 442.6 L 2914.6 452.5 L 2970.5 480 L 3087.1 473.2 L 3064.8 514 L 2939.7 533.8 L 2784.5 599.9 L 2720.9 576.7 L 2746.1 522.9 L 2621.2 489.5 L 2641.4 467.6 L 2750.8 429.6 L 2733.4 415.8 Z" />
<path class="neighbor" d="M 2544.8 -285 L 2587.5 -280.3 L 2616.4 -306.3 L 2651.1 -300.6 L 2769.6 -311.6 L 2842.7 -246.9 L 2814.1 -223.8 L 2823.6 -188.3 L 2914.8 -182.7 L 2955.4 -133.2 L 2952.9 -110.7 L 3098.1 -70.5 L 3185.8 -88.6 L 3256.4 -35.1 L 3323.2 -36.3 L 3491.7 0.9 L 3493.1 34.5 L 3446.6 94.3 L 3471.9 157.4 L 3453.9 195.5 L 3343.3 203.9 L 3284.4 235.8 L 3280.7 286.6 L 3189.5 295.7 L 3113.4 332.7 L 3006.4 338.7 L 2907.9 381.4 L 2913.7 442.6 L 2896.4 439.1 L 2881.6 416.5 L 2844.8 412 L 2763.5 387.5 L 2733.4 415.8 L 2717.7 403.4 L 2540 374.5 L 2532.1 331.9 L 2426.2 345.9 L 2383.8 408.9 L 2295.3 493.4 L 2243.4 473.8 L 2189.7 492.2 L 2138.7 471.1 L 2167.5 458.7 L 2187.4 419.5 L 2218.7 383 L 2210.6 362.5 L 2234.5 353.4 L 2245.8 369.2 L 2313.2 372.6 L 2343.4 364.1 L 2322.1 352.5 L 2330.2 335.5 L 2290.3 306.4 L 2273.8 258.6 L 2232.1 239.9 L 2240.3 201.2 L 2188.7 170.4 L 2141.7 166.2 L 2057.4 130.5 L 1981.4 141.9 L 1954.1 158.7 L 1905.9 158.7 L 1877.2 185.4 L 1792.8 196.4 L 1753.7 214 L 1700.7 186 L 1627.4 185.6 L 1556.6 172.9 L 1507.3 197.4 L 1499.3 166.8 L 1435.8 135.7 L 1458.2 89.6 L 1489.9 59.8 L 1514.8 66.5 L 1485.3 15.1 L 1589.1 -80 L 1645.9 -93.3 L 1658.1 -125.3 L 1600.6 -225.1 L 1655.3 -229.6 L 1717.9 -260.6 L 1806.5 -263.1 L 1922 -254.2 L 2049.6 -226.7 L 2139.6 -224.4 L 2182.6 -207.9 L 2225.5 -227.8 L 2255.4 -201.1 L 2358.6 -206.6 L 2404.1 -195.5 L 2411.4 -253.1 L 2446.7 -278.2 L 2544.8 -285 Z" />
<path class="neighbor" d="M 852.1 169.8 L 843.4 216.5 L 779.1 216.8 L 801.2 241.5 L 763.3 315.1 L 741.5 334.4 L 641.5 337.3 L 583.8 363.2 L 489.4 354.4 L 325.9 324.8 L 300.3 285.1 L 187.4 304.9 L 174.1 326.7 L 104.8 310.4 L 46.5 307.3 L -5.2 286.5 L 12.2 258.5 L 7.8 238.2 L 42.3 231.9 L 100.2 263.7 L 116.4 233.5 L 217.3 238.4 L 299 217.9 L 353.8 221.4 L 389.5 244.8 L 400.1 225.4 L 383.9 150.9 L 425 136.4 L 465.3 83.7 L 550.2 120.5 L 614.5 73.7 L 654.8 65.2 L 743.5 100 L 797.2 94.1 L 849.9 115.7 L 840.7 130.2 L 852.1 169.8 Z" />
<path class="neighbor" d="M 1435.8 135.7 L 1499.3 166.8 L 1507.3 197.4 L 1437.5 221.4 L 1383.4 298.9 L 1314.2 376.5 L 1222.6 398 L 1151.2 393 L 1063.6 423 L 1063.6 423 L 1020.9 440.1 L 926.5 418.1 L 841 369.1 L 804.7 355 L 782.5 316.4 L 763.3 315.1 L 801.2 241.5 L 779.1 216.8 L 843.4 216.5 L 852.1 169.8 L 910.3 199.1 L 952.4 211.6 L 1048.4 197.6 L 1057.6 174.6 L 1103 171.2 L 1158.7 153.5 L 1171.1 160.8 L 1224.7 146.5 L 1251.5 119.6 L 1289 112.6 L 1411.4 147.4 L 1435.8 135.7 Z" />
<path class="neighbor" d="M 2138.7 471.1 L 2189.7 492.2 L 2243.4 473.8 L 2295.3 493.4 L 2297.9 522.9 L 2242.5 547.5 L 2207.8 536.8 L 2175.8 674.7 L 2108.6 662.7 L 2025.4 621.1 L 1890.8 647.7 L 1834.1 676.8 L 1666.2 670.8 L 1578.4 653 L 1534.1 661.4 L 1501.2 614.4 L 1480.2 594.4 L 1506.7 575.2 L 1478.5 560.9 L 1442.6 586.5 L 1376 553.3 L 1367 506.2 L 1297.4 479.3 L 1284.5 442.9 L 1222.6 398 L 1314.2 376.5 L 1383.4 298.9 L 1437.5 221.4 L 1507.3 197.4 L 1556.6 172.9 L 1627.4 185.6 L 1700.7 186 L 1753.7 214 L 1792.8 196.4 L 1877.2 185.4 L 1905.9 158.7 L 1954.1 158.7 L 1989 169.9 L 2024.4 203.8 L 2060.7 252 L 2126.6 319.9 L 2130.3 370.1 L 2118.2 418.9 L 2138.7 471.1 Z" />
<path class="neighbor" d="M 525.2 -474.2 L 551.9 -416 L 520 -385.5 L 561.5 -344.8 L 589.8 -283.6 L 580.9 -244.2 L 627.7 -171.2 L 576.7 -159.3 L 546.6 -172.4 L 517.9 -150.7 L 435.8 -128.5 L 393.4 -100 L 310.3 -75.1 L 330.3 -41.2 L 342.4 7 L 400.7 34.5 L 465.3 83.7 L 425 136.4 L 383.9 150.9 L 400.1 225.4 L 389.5 244.8 L 353.8 221.4 L 299 217.9 L 217.3 238.4 L 116.4 233.5 L 100.2 263.7 L 42.3 231.9 L 7.8 238.2 L -114.7 203.3 L -138.2 228.1 L -235.4 227.3 L -220.9 145.9 L -163.1 67.6 L -327.8 46.5 L -381.8 16.6 L -375.3 -33.5 L -398.2 -59.3 L -385.2 -136.6 L -404.4 -256.4 L -335.7 -256.4 L -306.7 -299.5 L -278.2 -404.1 L -299.6 -442.8 L -277.3 -467 L -181.7 -473.2 L -160.5 -448 L -82.9 -504.4 L -109 -547.2 L -114.3 -612 L -27.9 -597 L 45.3 -614.4 L 47.3 -570.2 L 162.8 -543.5 L 161.6 -503 L 277.8 -524.4 L 342.1 -555.8 L 471.2 -510.6 L 525.2 -474.2 Z" />
<path class="neighbor" d="M 1916.5 1635.8 L 1902.2 1669.5 L 1737.6 1679.3 L 1738.7 1660.4 L 1599.2 1638.1 L 1620.4 1589.5 L 1682.9 1628 L 1771.9 1621.5 L 1857 1629.6 L 1854.2 1649.5 L 1916.5 1635.8 Z M 1534.9 945.6 L 1619.5 948.9 L 1711 917.4 L 1791.6 957.4 L 1895.5 946.6 L 1896.7 889.7 L 1952.4 919.9 L 1917 991.5 L 1889.8 1004.3 L 1820.2 1001.1 L 1760.5 990.2 L 1622.1 1020 L 1701.3 1084.2 L 1643.3 1102.9 L 1579.6 1103 L 1519.1 1044.1 L 1497.7 1069.2 L 1523.2 1137.5 L 1580.4 1191.1 L 1537.3 1216.2 L 1601 1268.9 L 1657.6 1302 L 1659.3 1366.6 L 1553.5 1336.3 L 1587.2 1394.6 L 1514.6 1406.6 L 1558 1507.5 L 1482.1 1508.9 L 1388.3 1459.2 L 1345.5 1367.7 L 1325.5 1291.7 L 1280.9 1239.1 L 1222.3 1173.9 L 1214.6 1141.4 L 1267.7 1085.9 L 1274.6 1048.8 L 1311.7 1032.2 L 1314 1002.2 L 1388.8 992.1 L 1432.4 967.1 L 1494.3 969.3 L 1513.1 949.3 L 1534.9 945.6 Z" />
<path class="neighbor" d="M 1314 1002.2 L 1311.7 1032.2 L 1274.6 1048.8 L 1267.7 1085.9 L 1214.6 1141.4 L 1195.1 1133.4 L 1192.8 1108.2 L 1129.5 1069.8 L 1119.6 1015.4 L 1129.2 937.4 L 1144.8 901.9 L 1125.6 883.9 L 1125.6 883.9 L 1117.9 847.5 L 1167.5 791.2 L 1174.7 812.7 L 1205.5 802.6 L 1229.9 833.3 L 1257.2 845 L 1264.9 886.4 L 1264.9 886.4 L 1250.4 925.3 L 1266.6 974.3 L 1314 1002.2 Z" />
<path class="neighbor" d="M 104.8 310.4 L 174.1 326.7 L 187.4 304.9 L 300.3 285.1 L 325.9 324.8 L 489.4 354.4 L 477 410.7 L 504.4 459.3 L 413.4 442.7 L 320.4 483.3 L 326.7 540 L 312.7 572.6 L 350.2 630.8 L 457.4 688.4 L 514.9 782.9 L 642.1 875 L 731.7 874.3 L 759.5 899.6 L 727.5 922.3 L 829.9 963.7 L 913.8 998.2 L 1011.8 1057.9 L 1023.7 1079.2 L 1002.3 1120.1 L 938.9 1066.8 L 839.5 1048 L 791.4 1121.9 L 874.1 1164.3 L 860.5 1223.9 L 812.7 1230.7 L 751.7 1328.8 L 704 1337.6 L 704.5 1302.6 L 727.8 1241.3 L 752.6 1216.9 L 708 1150.6 L 673.1 1093 L 625.6 1078.7 L 591.9 1029.4 L 518.4 1008.6 L 469 962.7 L 384.4 955.3 L 295 903.7 L 190.5 829.2 L 112.7 763.4 L 77.1 650.4 L 20.2 637.1 L -72.8 599.4 L -125.4 614.8 L -191.5 667.9 L -239 676.2 L -225.9 626.6 L -287.9 612.1 L -317.3 523.7 L -277.7 488.8 L -311.4 445.9 L -306.6 413.6 L -257.5 438.1 L -202.3 432.7 L -138.2 393.9 L -118.4 412 L -64 408.4 L -39.2 362.3 L 45.4 376.6 L 95.7 357.3 L 104.8 310.4 Z M 598.5 1310.7 L 685.3 1300.7 L 644.1 1390.7 L 661.2 1426.1 L 637.2 1484.9 L 549.8 1441.9 L 491.7 1429.5 L 332.1 1371.4 L 348.1 1312.7 L 481.9 1323.2 L 598.5 1310.7 Z M -93.3 995.6 L -36.1 960.2 L 32.5 1041.4 L 16.4 1192.6 L -35.6 1185.3 L -82.2 1223.5 L -125.5 1193.2 L -130.1 1055.3 L -156.1 989.9 L -93.3 995.6 Z" />
<path class="neighbor" d="M 489.4 354.4 L 583.8 363.2 L 641.5 337.3 L 741.5 334.4 L 763.3 315.1 L 782.5 316.4 L 804.7 355 L 713.7 385.4 L 702.6 431.5 L 662.8 443.3 L 663.3 475.2 L 618.4 473 L 579.5 454.3 L 558.6 473.6 L 478.9 469.7 L 504.4 459.3 L 477 410.7 L 489.4 354.4 Z" />
<path class="neighbor" d="M 1489.9 59.8 L 1458.2 89.6 L 1435.8 135.7 L 1411.4 147.4 L 1289 112.6 L 1251.5 119.6 L 1224.7 146.5 L 1171.1 160.8 L 1158.7 153.5 L 1103 171.2 L 1057.6 174.6 L 1048.4 197.6 L 952.4 211.6 L 910.3 199.1 L 852.1 169.8 L 840.7 130.2 L 849.9 115.7 L 866.1 90.6 L 916.8 92.5 L 955.8 80.7 L 958.9 70 L 980.8 64.6 L 988.3 38.6 L 1014.5 33.6 L 1032.2 13 L 1066.3 12.9 L 1072.8 19.8 L 1119.8 4.3 L 1177.4 44.8 L 1244.9 20.3 L 1298.9 32 L 1381.2 15.9 L 1489.9 59.8 Z" />
<path class="neighbor" d="M 1032.8 795.6 L 931.6 752.3 L 888.4 704.5 L 844.9 679.2 L 792.3 636.5 L 767.5 601.1 L 711.5 547.6 L 735.5 500.2 L 776.5 526.4 L 801.3 502.7 L 854.7 500.2 L 953 519.2 L 1032 517.6 L 1083.7 542.9 L 1083.7 542.9 L 1125.2 542.6 L 1096.5 592.9 L 1151.7 636.8 L 1135 690.6 L 1108.1 695.7 L 1086.7 706.1 L 1049.5 732.7 L 1032.8 795.6 Z" />
<path class="neighbor" d="M 1469.6 833.3 L 1526.8 870 L 1534.9 945.6 L 1513.1 949.3 L 1494.3 969.3 L 1432.4 967.1 L 1388.8 992.1 L 1314 1002.2 L 1266.6 974.3 L 1250.4 925.3 L 1264.9 886.4 L 1264.9 886.4 L 1279.4 887.4 L 1284.5 863.9 L 1352.1 846.2 L 1377.7 841.8 L 1416.6 835.2 L 1469.6 833.3 Z" />
<path class="neighbor" d="M 1063.6 423 L 1063.6 423 L 1151.2 393 L 1222.6 398 L 1284.5 442.9 L 1297.4 479.3 L 1367 506.2 L 1376 553.3 L 1442.6 586.5 L 1478.5 560.9 L 1506.7 575.2 L 1480.2 594.4 L 1501.2 614.4 L 1473 640.3 L 1483.2 682.1 L 1538.8 731.4 L 1495.2 767.2 L 1476 803.5 L 1488.4 817.1 L 1469.6 833.3 L 1416.6 835.2 L 1377.7 841.8 L 1373.8 833.3 L 1387.5 819.7 L 1400.3 791.8 L 1384.1 792.5 L 1361.9 771.3 L 1343.1 765.9 L 1328.1 747.7 L 1306.8 740.6 L 1290.5 724.5 L 1270 730.8 L 1254.2 768.7 L 1226.9 777 L 1236.3 767.2 L 1192.7 743.4 L 1155.1 731.1 L 1138.4 715.3 L 1108.1 695.7 L 1135 690.6 L 1151.7 636.8 L 1096.5 592.9 L 1125.2 542.6 L 1083.7 542.9 L 1083.7 542.9 L 1127.7 499.9 L 1091.4 467.3 L 1063.6 423 Z" />
<path class="neighbor" d="M 1205.5 802.6 L 1174.7 812.7 L 1167.5 791.2 L 1117.9 847.5 L 1125.6 883.9 L 1101.7 875 L 1069.6 837.7 L 1020.2 815 L 1032.8 795.6 L 1049.5 732.7 L 1086.7 706.1 L 1108.1 695.7 L 1138.4 715.3 L 1155.1 731.1 L 1192.7 743.4 L 1236.3 767.2 L 1226.9 777 L 1205.5 802.6 Z" />
<path class="neighbor" d="M 1264.9 886.4 L 1257.2 845 L 1229.9 833.3 L 1205.5 802.6 L 1226.9 777 L 1254.2 768.7 L 1270 730.8 L 1290.5 724.5 L 1306.8 740.6 L 1328.1 747.7 L 1343.1 765.9 L 1361.9 771.3 L 1384.1 792.5 L 1400.3 791.8 L 1387.5 819.7 L 1373.8 833.3 L 1377.7 841.8 L 1352.1 846.2 L 1284.5 863.9 L 1279.4 887.4 L 1264.9 886.4 Z" />

<path class="country" d="M 804.7 355 L 841 369.1 L 926.5 418.1 L 1020.9 440.1 L 1063.6 423 L 1091.4 467.3 L 1127.7 499.9 L 1083.7 542.9 L 1032 517.6 L 953 519.2 L 854.7 500.2 L 801.3 502.7 L 776.5 526.4 L 735.5 500.2 L 711.5 547.6 L 767.5 601.1 L 792.3 636.5 L 844.9 679.2 L 888.4 704.5 L 931.6 752.3 L 1032.8 795.6 L 1020.2 815 L 1020.2 815 L 912.7 772.7 L 846.4 731.5 L 741.9 697.6 L 645.7 613.4 L 668.8 604.9 L 616.7 556.8 L 614.6 518.2 L 541.1 500.2 L 506 549.5 L 472.3 511.3 L 474.8 471.6 L 478.9 469.7 L 558.6 473.6 L 579.5 454.3 L 618.4 473 L 663.3 475.2 L 662.8 443.3 L 702.6 431.5 L 713.7 385.4 L 804.7 355 Z" />


<g class="city"><circle cx="337.8675716245514" cy="881.5449579497777" r="5" /><text x="349.8675716245514" y="885.5449579497777">Rome</text></g>
<g class="city"><circle cx="781.8191989581883" cy="160.85904725928162" r="5" /><text x="793.8191989581883" y="164.85904725928162">Vienna</text></g>
<g class="city"><circle cx="539.2728194524532" cy="1002.2599757440794" r="5" /><text x="551.2728194524532" y="1006.2599757440794">Naples</text></g>
<g class="city"><circle cx="1092.392821639461" cy="240.88472970554994" r="5" /><text x="1104.392821639461" y="244.88472970554994">Budapest</text></g>
<g class="city"><circle cx="197.10271984412742" cy="666.3816430403407" r="5" /><text x="209.10271984412742" y="670.3816430403407">Florence</text></g>
<g class="city"><circle cx="234.0338688192153" cy="168.86985804322507" r="5" /><text x="246.0338688192153" y="172.86985804322507">Munich</text></g>
<g class="city"><circle cx="1250.689588842276" cy="547.4204226892264" r="5" /><text x="1262.689588842276" y="551.4204226892264">Belgrade</text></g>
<g class="city"><circle cx="1176.7054247768247" cy="946.7491599896613" r="5" /><text x="1188.7054247768247" y="950.7491599896613">Tirana</text></g>
<text class="map-title" x="80" y="105">Croatia Political Study Map</text>
<text class="map-subtitle" x="80" y="145">Capital: Zagreb | Continent: Europe</text>
  <text class="footer" x="80" y="1036">Made with Natural Earth. Free vector and raster map data @ naturalearthdata.com.</text>
</svg>
