<?xml version="1.0" encoding="UTF-8"?>
<svg xmlns="http://www.w3.org/2000/svg" width="1600" height="1100" viewBox="0 0 1600 1100" role="img" aria-labelledby="title desc">
  <title id="title">Haiti Physical Study Map</title>
  <desc id="desc">Made with Natural Earth. Free vector and raster map data @ naturalearthdata.com.</desc>
  <defs>
    <linearGradient id="terrain" x1="0" x2="1" y1="0" y2="1">
      <stop offset="0%" stop-color="#6c8c53" />
      <stop offset="42%" stop-color="#d5c487" />
      <stop offset="72%" stop-color="#b88b5f" />
      <stop offset="100%" stop-color="#f1f5ee" />
    </linearGradient>
    <filter id="softShadow" x="-10%" y="-10%" width="120%" height="120%">
      <feDropShadow dx="0" dy="10" stdDeviation="12" flood-color="#0f172a" flood-opacity="0.16" />
    </filter>
    <style>
      .neighbor { fill: #ffffff; stroke: #94a3b8; stroke-width: 1.2; opacity: 0.72; }
      .country { fill: url(#terrain); stroke: #1f2937; stroke-width: 4; filter: url(#softShadow); }
      .admin1 { fill: none; stroke: #64748b; stroke-width: 1.1; stroke-dasharray: 6 7; opacity: 0.75; }
      .river { fill: none; stroke: #1d9bd1; stroke-width: 3; stroke-linecap: round; opacity: 0.88; }
      .lake { fill: #8ed1ea; stroke: #0ea5e9; stroke-width: 1.5; opacity: 0.8; }
      .city circle { fill: #ef4444; stroke: #ffffff; stroke-width: 2; }
      .city text, .terrain-label { fill: #172033; font: 700 24px system-ui, sans-serif; paint-order: stroke; stroke: #ffffff; stroke-width: 5; stroke-linejoin: round; }
      .map-title { fill: #0f172a; font: 800 46px system-ui, sans-serif; }
      .map-subtitle { fill: #475569; font: 600 24px system-ui, sans-serif; }
      .footer { fill: #64748b; font: 500 18px system-ui, sans-serif; }
    </style>
  </defs>
  <rect width="100%" height="100%" fill="#d8edf0" />
  <rect x="40" y="40" width="1520" height="1020" rx="32" fill="#ffffff" opacity="0.54" />
  <path class="neighbor" d="M -9612.4 -5693.3 L -9018.6 -5693.3 L -8397.9 -5693.3 L -8192.3 -5693.3 L -7555 -5693.3 L -6938.2 -5693.3 L -6310.9 -5693.3 L -5683.2 -5693.3 L -4972.7 -5693.3 L -4257.3 -5693.4 L -3824.6 -5693.3 L -3824 -5773.6 L -3753.2 -5774.6 L -3716.1 -5659.8 L -3651.1 -5624.5 L -3505.1 -5611.6 L -3291.6 -5578.3 L -3088.8 -5513.5 L -2919.4 -5540.7 L -2662.2 -5486.3 L -2593.9 -5488.4 L -2406.8 -5547.5 L -2210.6 -5471.7 L -2006.1 -5390.8 L -1836.8 -5321.2 L -1674.5 -5254.2 L -1654.3 -5199.2 L -1605 -5178.7 L -1617.8 -5157.9 L -1561.7 -5151.5 L -1521 -5173.1 L -1510.5 -5123.6 L -1468.5 -5090.5 L -1411.1 -5090.5 L -1380.4 -5064.9 L -1406.2 -5027.7 L -1188.3 -4929.6 L -1143.8 -4739.8 L -1101.9 -4558.2 L -1163.1 -4434.6 L -1261.3 -4319.6 L -1307.3 -4246.4 L -1311.9 -4224.6 L -1288.5 -4194.7 L -1217.4 -4161.7 L -1165 -4161.7 L -922.1 -4273.4 L -706.7 -4306.2 L -433.2 -4410.2 L -429.2 -4431.4 L -448 -4495.2 L -481.8 -4536.3 L -387.4 -4569.5 L -182 -4570.3 L 9.9 -4570.2 L 76.8 -4651.7 L 103 -4668 L 324 -4818.6 L 418.3 -4857 L 735.9 -4858.5 L 1121.2 -4858.7 L 1142.2 -4910.3 L 1209.1 -4920.8 L 1297.9 -4953.1 L 1372.2 -5048.3 L 1435.9 -5210.9 L 1595.4 -5368.7 L 1664.9 -5313.8 L 1805.1 -5349.3 L 1897.9 -5289 L 1897.8 -5003.9 L 2034.5 -4885.7 L 2070.6 -4817.1 L 1847.3 -4715.8 L 1632.5 -4643.7 L 1411.7 -4581.8 L 1301 -4457.6 L 1265.6 -4410.6 L 1263.4 -4299.7 L 1332.4 -4188.9 L 1419.2 -4183.7 L 1397.3 -4260 L 1460 -4213.5 L 1443.3 -4153.8 L 1302.1 -4119.9 L 1201.7 -4124 L 1047 -4087.5 L 956.1 -4077 L 834.5 -4066.7 L 660.2 -4006.2 L 967.3 -4045.6 L 1029.3 -4005.9 L 736.5 -3943.2 L 603.3 -3942.8 L 609.5 -3968.5 L 545.9 -3910.5 L 607.4 -3900.9 L 562.3 -3750.7 L 410.1 -3589.8 L 394.6 -3643.5 L 348.7 -3654.3 L 280.1 -3706.6 L 323.6 -3594 L 375.5 -3556.8 L 378.6 -3477.8 L 311.6 -3396.5 L 193.9 -3229.6 L 174.9 -3237.9 L 239.5 -3380.1 L 132.7 -3460 L 108.2 -3633.8 L 67.9 -3543.3 L 112.5 -3410.7 L -25.6 -3443.5 L 118.3 -3376.1 L 127.3 -3177.2 L 187.3 -3162.7 L 209 -3090.4 L 238.4 -2881.2 L 105.5 -2726 L -110.8 -2664 L -248.3 -2541.4 L -352.7 -2527.9 L -458.6 -2451.1 L -488.4 -2381 L -718 -2245.3 L -835.8 -2145.7 L -934.4 -2021.8 L -966.6 -1873.2 L -929.7 -1728 L -859.9 -1549.1 L -767 -1401.1 L -765.8 -1310.8 L -666.8 -1068.2 L -673.4 -927.2 L -682.5 -845.9 L -734.6 -718.2 L -797.2 -691.8 L -900.1 -717.2 L -933.1 -808.9 L -1012.5 -857 L -1123.3 -1036.8 L -1220.6 -1196.8 L -1252 -1278.6 L -1209.1 -1417.4 L -1267.6 -1532.4 L -1430.6 -1707.3 L -1512.2 -1739.4 L -1723.2 -1644.5 L -1760.6 -1654.9 L -1862.1 -1752.5 L -1993.2 -1804.2 L -2229.5 -1777.9 L -2415.1 -1801.1 L -2574.5 -1786.6 L -2661 -1754 L -2623.3 -1698.5 L -2626.7 -1613.7 L -2582.3 -1572.3 L -2622.1 -1544.9 L -2699.7 -1575.7 L -2778.2 -1536 L -2929.9 -1542.5 L -3086 -1653 L -3268.4 -1627 L -3420.5 -1675.4 L -3550.5 -1660.7 L -3726.5 -1611.8 L -3916.8 -1456.8 L -4124.6 -1366.7 L -4238.8 -1266.8 L -4286.9 -1172.8 L -4289 -1028.5 L -4278.5 -928.1 L -4238.8 -857 L -4320.3 -850.8 L -4468.8 -896.8 L -4631.9 -961.6 L -4690.4 -1059.8 L -4736.4 -1206.2 L -4859.8 -1325.4 L -4932.1 -1447.9 L -5037 -1591.1 L -5184.4 -1674.4 L -5355.3 -1670.4 L -5487.1 -1505.2 L -5660.6 -1567.9 L -5768.7 -1631.1 L -5820.7 -1746 L -5890.1 -1855.2 L -6014.3 -1947.2 L -6121.2 -2013.3 L -6197.5 -2087.4 L -6559.7 -2087.5 L -6560.1 -2001.2 L -6725.9 -2001.2 L -7141.7 -1999.7 L -7618.7 -2146.9 L -7934.5 -2248.6 L -7914.9 -2289.5 L -8180.4 -2266.8 L -8418 -2250.7 L -8453.2 -2357.5 L -8588.7 -2477.7 L -8686.3 -2502.8 L -8709.1 -2562.7 L -8826.5 -2573.2 L -8901.3 -2629.8 L -9095.5 -2650.4 L -9148.8 -2684.2 L -9174.2 -2798.8 L -9377.1 -3008.9 L -9551.3 -3299.6 L -9543.8 -3348 L -9636.1 -3417.1 L -9797.9 -3592.3 L -9826.8 -3762.8 L -9938.2 -3877 L -9892.4 -4050.3 L -9899.7 -4229.6 L -9966.4 -4389.8 L -9884.7 -4586.9 L -9859.3 -4776.6 L -9833.8 -4966.4 L -9871.6 -5246.8 L -9937.7 -5425.7 L -9998.7 -5522.8 L -9973.3 -5563.6 L -9671 -5492.6 L -9559.6 -5295.2 L -9507.9 -5350.4 L -9541.3 -5521.8 L -9612.4 -5693.3 Z M -16420.9 353.7 L -16383.7 371.8 L -16349.8 399.8 L -16296.5 473.1 L -16301.5 484.6 L -16383.2 529.3 L -16450.1 562 L -16480.7 596.9 L -16532.6 567 L -16526.7 508.6 L -16561.2 432.4 L -16550.8 409.2 L -16514.5 375.1 L -16529 334 L -16516.8 314.5 L -16500.9 318.3 L -16420.9 353.7 Z M -16545 210.6 L -16562.5 235.7 L -16632.5 250.6 L -16668.6 206.6 L -16692.6 189.6 L -16694.4 176.6 L -16674 158.6 L -16599.6 178.5 L -16545 210.6 Z M -16704.4 124.3 L -16710.9 146.9 L -16823 140.8 L -16807.3 115.3 L -16704.4 124.3 Z M -16969.3 11.3 L -16951.9 24.8 L -16891.5 93.9 L -16902.8 106 L -16917.8 103.3 L -16990.5 95.9 L -17017.1 48.5 L -17025.3 40.2 L -16969.3 11.3 Z M -17249.6 -92.8 L -17245.3 -44.1 L -17270.1 -23.4 L -17340.5 -61.5 L -17329.7 -76.7 L -17297.8 -97.2 L -17249.6 -92.8 Z M -18734.6 -8073.6 L -18568.7 -8054.7 L -18548.8 -7974.5 L -18677.1 -7942 L -18814.2 -7981.1 L -18941.1 -8037.9 L -18734.6 -8073.6 Z M -15966.4 -7568.6 L -15827.6 -7554.5 L -15739 -7489.6 L -15919.9 -7390.3 L -16128.8 -7310.6 L -16235.7 -7364.5 L -16268 -7462.5 L -16078.1 -7536.8 L -15966.4 -7568.6 Z M -13406.6 -10024 L -13406.6 -10024 L -13407.9 -9247.9 L -13409.1 -8057.4 L -13203.1 -8051.2 L -12999.5 -7993.3 L -12853.5 -7901.7 L -12667.8 -7764.3 L -12464.4 -7881.2 L -12254.5 -7948.9 L -12143.5 -7840.8 L -12002.6 -7755.2 L -11811.1 -7660.9 L -11680.4 -7510.9 L -11466.6 -7272.4 L -11111.1 -7139.3 L -11105.3 -7007.4 L -11221.6 -6906.6 L -11221.6 -6906.6 L -11221.6 -6906.6 L -11336.5 -6985.3 L -11520.8 -7051.9 L -11580 -7234.3 L -11849.5 -7403.4 L -11962.2 -7600.9 L -12163 -7614.4 L -12495.4 -7619.5 L -12740.4 -7679.7 L -13172.8 -7896.7 L -13373 -7936.3 L -13738.7 -8011 L -14028.2 -7993.1 L -14439.4 -8089.2 L -14688 -8178.3 L -14920.1 -8134 L -14876.9 -7988.8 L -14992.5 -7975.4 L -15234.4 -7931.8 L -15418.5 -7861.2 L -15650.2 -7816.8 L -15680.1 -7940 L -15586.1 -8145.1 L -15363.9 -8209.4 L -15421.2 -8261.9 L -15687.7 -8145.4 L -15830.4 -8006.2 L -16131.7 -7857.5 L -15978.7 -7755.9 L -16176.3 -7605.7 L -16401.1 -7518.2 L -16610.3 -7454.4 L -16662.2 -7361.8 L -16988.6 -7253.9 L -17054.7 -7155.7 L -17299.3 -7066.3 L -17442.8 -7082.4 L -17638 -7024.1 L -17850.1 -6952.9 L -18024 -6883 L -18382.9 -6823.3 L -18415.6 -6858.4 L -18186.9 -6956.1 L -17982.3 -7020.6 L -17759.5 -7135 L -17500.1 -7158.6 L -17397 -7244.3 L -17107.2 -7369.5 L -17060.5 -7411.4 L -16906.1 -7485.2 L -16870 -7643.8 L -16763.7 -7767.3 L -17004.8 -7703.9 L -17072.2 -7739.8 L -17185.4 -7663.8 L -17322 -7769.9 L -17378.3 -7694.8 L -17456.5 -7799.1 L -17665.6 -7715.4 L -17793.9 -7715.6 L -17811.9 -7840 L -17774.1 -7916.7 L -17908.7 -7991.2 L -18180.6 -7951.1 L -18357.1 -8049.2 L -18500.1 -8099.4 L -18501.1 -8217.8 L -18662.2 -8306.9 L -18581.3 -8427.2 L -18410.8 -8543.9 L -18336.2 -8651.2 L -18167 -8666.5 L -18023.6 -8633 L -17854.9 -8733.9 L -17703.1 -8715.9 L -17543.8 -8780.8 L -17582.6 -8876.3 L -17699.7 -8913.9 L -17544.9 -8994.6 L -17673.3 -8992.2 L -17895.2 -8946.6 L -17958.9 -8900.5 L -18123.8 -8946.6 L -18419.5 -8923.1 L -18725.7 -8973.2 L -18813.5 -9057.3 L -19078.1 -9178.8 L -18784.3 -9266.3 L -18317.9 -9368.4 L -18145.9 -9368.4 L -18174.4 -9264 L -17733 -9272.1 L -17902.8 -9401.6 L -18160 -9481.3 L -18308.7 -9585.8 L -18509.3 -9675 L -18796.6 -9741.1 L -18679.6 -9850.7 L -18308.7 -9857.5 L -18044.8 -9952.7 L -17995 -10054.5 L -17781.4 -10153.9 L -17577.7 -10177.8 L -17181.3 -10270.6 L -16989.1 -10256.7 L -16667.3 -10368.1 L -16351 -10324.2 L -16199.7 -10229.8 L -16106.8 -10270.3 L -15753.4 -10257.8 L -15766 -10209.7 L -15446.1 -10174.1 L -15232.8 -10195 L -14792.3 -10129 L -14390.1 -10109.3 L -14229.2 -10082.1 L -13950.9 -10116.1 L -13633.8 -10053.3 L -13406.6 -10024 L -13406.6 -10024 Z M -19835.2 -8784.2 L -19706.2 -8744.4 L -19575.8 -8765.9 L -19406.8 -8710.7 L -19199.1 -8682.8 L -19216.4 -8660 L -19374.8 -8615.8 L -19533.9 -8661.2 L -19613.5 -8699.2 L -19797.9 -8687 L -19847.7 -8705.4 L -19835.2 -8784.2 Z" />
<path class="neighbor" d="M 1078.7 779.1 L 1083 722.3 L 1029.2 659.5 L 1080.2 624.3 L 1096.2 543.9 L 1077.9 430 L 1104 394.4 L 1267.3 395.4 L 1391.1 449.2 L 1446.2 443.9 L 1484.2 518.1 L 1598.6 513.9 L 1591.8 576.2 L 1684.9 583.8 L 1787.6 660.5 L 1710 745.6 L 1610.5 700.1 L 1514.6 708.9 L 1445.8 699 L 1408.1 737.1 L 1327.8 750 L 1296 699.3 L 1226.9 729.3 L 1143.2 872.5 L 1089.3 839.2 L 1078.7 779.1 Z" />
<path class="neighbor" d="M -1129.2 -296.4 L -948.6 -281.5 L -784.3 -279.1 L -588 -207.9 L -504.7 -131.3 L -309.4 -154.9 L -235.4 -105.8 L -58.3 23.7 L 71.9 118 L 140.7 115.1 L 265.4 157.8 L 250.2 216.6 L 404.3 225.2 L 562.4 310.8 L 537.6 359.8 L 398.5 386.3 L 257.8 396.7 L 113.7 380.2 L -185.7 400.6 L -45.5 283.9 L -130.7 229.6 L -265.5 215.6 L -337.7 155.3 L -387.3 36.2 L -505.5 44.3 L -700.4 -11.7 L -763.2 -55.6 L -1035.7 -88 L -1108.7 -128.8 L -1030.3 -181 L -1235.4 -191.7 L -1385.6 -83.1 L -1472.3 -80.2 L -1502.2 -29.1 L -1605.7 -6.3 L -1695.2 -26.1 L -1584.8 -90.7 L -1539.5 -166.1 L -1445 -212.6 L -1338.2 -253.4 L -1179.9 -273.4 L -1129.2 -296.4 Z" />
<path class="lake" d="M 1120.4 690.2 L 1114.7 697.8 L 1100 700.5 L 1060.9 685.1 L 1064.4 677.4 L 1084 673.3 L 1104.8 681 L 1120.4 690.2 L 1120.4 690.2 L 1120.4 690.2 Z" />
<path class="country" d="M 1077.9 430 L 1096.2 543.9 L 1080.2 624.3 L 1029.2 659.5 L 1083 722.3 L 1078.7 779.1 L 939.9 743.6 L 841.2 758.1 L 713.6 743 L 615.8 782 L 503.8 716.9 L 522.2 649.5 L 714.7 678.5 L 872.5 695.3 L 947.7 648.8 L 852.2 558.2 L 853.8 478.3 L 721.9 445.7 L 769 388 L 896.6 397.2 L 1077.9 430 Z" />

<path class="river" d="M 2487.6 12665.6 L 2565.8 12673.5 L 2608.9 12681.1 L 2642.9 12691.1 L 2692.8 12714.7 L 2758.6 12752 L 2804.1 12772.7 L 2829.3 12776.7 L 2854.8 12786.2 L 2880.6 12801 L 2916.6 12811.1 L 2963 12816.3 L 3000.6 12833.9 L 3044.1 12878.5 L 3050.3 12884.8 L 3055.6 12890.8 M 1372.8 11930.6 L 1389.3 11993.8 L 1401.3 12021.3 L 1420.8 12040.4 L 1464.1 12050.2 L 1485.6 12071.9 L 1499.8 12108.7 L 1504.8 12133.7 L 1500.4 12147.1 L 1500 12164.4 L 1503.7 12185.7 L 1499.9 12204.1 L 1488.7 12219.5 L 1480.9 12242.4 L 1476.6 12272.8 L 1478.5 12292.6 L 1486.6 12302 L 1498.8 12310.7 L 1515.2 12319 L 1548.2 12324.8 L 1597.9 12328.3 L 1629.1 12338.7 L 1641.8 12356 L 1672.1 12368.7 L 1720.1 12376.7 L 1749.3 12385.8 L 1759.6 12395.9 L 1797.1 12405.2 L 1862 12413.6 L 1899.4 12426.2 L 1909.6 12443.2 L 1906.3 12460.1 L 1889.6 12477 L 1882.1 12491 L 1883.7 12502.3 L 1890.8 12509.3 L 1903.3 12512.1 L 1919 12523.2 L 1937.9 12542.6 L 1967.1 12550.3 L 2006.5 12546.2 L 2031.8 12553.9 L 2043 12573.4 L 2064.7 12588.7 L 2112.9 12605.6 L 2135.7 12615.5 L 2146.2 12625.2 L 2151.9 12637.9 L 2163.7 12646 L 2181.5 12649.4 L 2258 12652.4 L 2294.8 12656.8 L 2323 12664.7 L 2343.8 12666.4 L 2357 12662 L 2373.9 12663.1 L 2394.3 12669.6 L 2424.9 12671.1 L 2486.1 12665.6 M -7914.8 -2290.2 L -7928.8 -2256.9 L -7939.6 -2244.2 L -7951.7 -2241.2 L -7964.6 -2226.5 L -7978.3 -2200.3 L -7992.6 -2183.3 L -8007.5 -2175.5 L -8014.7 -2164.7 L -8014.1 -2151 L -8012.2 -2147.9 L -8009.3 -2148.2 L -8005.1 -2146.3 L -7999.4 -2136.3 L -7992.6 -2131.4 L -7980.5 -2131.7 L -7975.1 -2127.5 L -7969.2 -2121.5 L -7959.3 -2118 M -7798.2 -2609.9 L -7832.9 -2586.6 L -7851.5 -2567.6 L -7870.5 -2536.9 L -7867.6 -2511.9 L -7868.5 -2491.3 L -7873.1 -2474.9 L -7880.3 -2459.8 L -7890.1 -2446.1 L -7900.2 -2437.9 L -7910.8 -2435.2 L -7914.5 -2417 L -7911.3 -2383.3 L -7899.6 -2362.9 L -7879.2 -2355.5 L -7866.7 -2344.4 L -7862.1 -2329.5 L -7863.9 -2314.8 L -7872 -2300.3 L -7885.8 -2292.4 L -7914.8 -2290.2 M -7887.6 -2839.8 L -7891.7 -2765.5 L -7891.8 -2746.7 L -7880.6 -2723.1 L -7847.3 -2680.2 L -7843.3 -2670 M -7919.1 -2977.9 L -7917.2 -2971.7 L -7907.7 -2957.8 L -7907 -2936.1 L -7905.6 -2918.6 L -7900 -2908.9 L -7899 -2897.9 M -7529.1 -3033.8 L -7598.1 -3001.1 L -7616.8 -2985.1 L -7622.9 -2974 L -7622.5 -2940.7 L -7629.3 -2925.8 L -7643.2 -2925.4 L -7676.1 -2933.6 L -7687.9 -2939.7 M -7235.8 -3170 L -7260.3 -3152.7 L -7279.5 -3131.5 L -7301.6 -3100.4 L -7314.9 -3077.1 L -7319.4 -3061.7 L -7317.6 -3042 L -7309.4 -3018.1 L -7311.3 -3001.4 L -7323 -2992 L -7344.8 -2990.3 L -7376.6 -2996.4 L -7399.4 -3006.8 L -7413.2 -3021.4 L -7424.6 -3026.6 L -7433.6 -3022.4 L -7441.9 -3022.9 L -7449.5 -3028.1 L -7450.3 -3035.4 L -7444.3 -3044.6 L -7443.6 -3051.6 L -7448.2 -3056.4 L -7457.2 -3058.9 L -7470.9 -3059.1 L -7490.8 -3052.8 L -7530.2 -3033.8 M -6062.3 -3845.9 L -6088.2 -3838.1 L -6117.6 -3830.9 L -6150.8 -3830.5 L -6175.2 -3824.5 L -6192.1 -3815.4 L -6215.7 -3795.3 L -6224.8 -3789.3 L -6232.7 -3788.5 L -6243.2 -3794.8 L -6257.2 -3795.7 L -6274.6 -3791.1 L -6294 -3775.5 L -6315.3 -3749 L -6328 -3737 L -6349.6 -3728.3 L -6413.5 -3723.4 L -6453.8 -3723.5 L -6477.5 -3718.8 L -6497.8 -3709.4 L -6531.7 -3688.2 L -6560.2 -3668.2 L -6575.2 -3639.7 L -6600.2 -3623.2 L -6626.2 -3621.2 L -6677 -3640.9 L -6690.8 -3644.3 L -6708.6 -3643.9 L -6729.2 -3631.9 L -6759.5 -3609.3 L -6774 -3588.8 L -6782.7 -3563.1 L -6794.5 -3546.8 L -6809.4 -3540.1 L -6822.9 -3529.5 L -6834.9 -3514.8 L -6843.2 -3509.1 L -6847 -3510.7 L -6851.3 -3507.5 L -6854.2 -3494.8 L -6858.8 -3488 L -6865 -3487.1 L -6869.8 -3479.9 L -6873.1 -3466.4 L -6882.6 -3451.7 L -6906.3 -3427.8 L -6955.1 -3385.3 L -6979.6 -3371.3 L -7004.6 -3372 M -6059 -3896 L -6052.9 -3856.5 L -6053.8 -3850.1" />
<g class="city"><circle cx="947.0899136363607" cy="674.9861409090901" r="5" /><text x="959.0899136363607" y="678.9861409090901">Port-au-Prince</text></g>
<g class="city"><circle cx="1295.846859090906" cy="474.87777727272686" r="5" /><text x="1307.846859090906" y="478.87777727272686">Santiago</text></g>
<g class="city"><circle cx="218.7539318181804" cy="365.1035863636364" r="5" /><text x="230.7539318181804" y="369.1035863636364">Santiago de Cuba</text></g>
<text class="map-title" x="80" y="105">Haiti Physical Study Map</text>
<text class="map-subtitle" x="80" y="145">Landmark: Citadelle Laferrière | Study terrain and water systems</text>
  <text class="footer" x="80" y="1036">Made with Natural Earth. Free vector and raster map data @ naturalearthdata.com.</text>
</svg>
