<?xml version="1.0" encoding="UTF-8"?>
<svg xmlns="http://www.w3.org/2000/svg" width="1600" height="1100" viewBox="0 0 1600 1100" role="img" aria-labelledby="title desc">
  <title id="title">Hungary Physical Study Map</title>
  <desc id="desc">Made with Natural Earth. Free vector and raster map data @ naturalearthdata.com.</desc>
  <defs>
    <linearGradient id="terrain" x1="0" x2="1" y1="0" y2="1">
      <stop offset="0%" stop-color="#6c8c53" />
      <stop offset="42%" stop-color="#d5c487" />
      <stop offset="72%" stop-color="#b88b5f" />
      <stop offset="100%" stop-color="#f1f5ee" />
    </linearGradient>
    <filter id="softShadow" x="-10%" y="-10%" width="120%" height="120%">
      <feDropShadow dx="0" dy="10" stdDeviation="12" flood-color="#0f172a" flood-opacity="0.16" />
    </filter>
    <style>
      .neighbor { fill: #ffffff; stroke: #94a3b8; stroke-width: 1.2; opacity: 0.72; }
      .country { fill: url(#terrain); stroke: #1f2937; stroke-width: 4; filter: url(#softShadow); }
      .admin1 { fill: none; stroke: #64748b; stroke-width: 1.1; stroke-dasharray: 6 7; opacity: 0.75; }
      .river { fill: none; stroke: #1d9bd1; stroke-width: 3; stroke-linecap: round; opacity: 0.88; }
      .lake { fill: #8ed1ea; stroke: #0ea5e9; stroke-width: 1.5; opacity: 0.8; }
      .city circle { fill: #ef4444; stroke: #ffffff; stroke-width: 2; }
      .city text, .terrain-label { fill: #172033; font: 700 24px system-ui, sans-serif; paint-order: stroke; stroke: #ffffff; stroke-width: 5; stroke-linejoin: round; }
      .map-title { fill: #0f172a; font: 800 46px system-ui, sans-serif; }
      .map-subtitle { fill: #475569; font: 600 24px system-ui, sans-serif; }
      .footer { fill: #64748b; font: 500 18px system-ui, sans-serif; }
    </style>
  </defs>
  <rect width="100%" height="100%" fill="#d8edf0" />
  <rect x="40" y="40" width="1520" height="1020" rx="32" fill="#ffffff" opacity="0.54" />
  <path class="neighbor" d="M 18175.1 -2023.1 L 18314.1 -2068.6 L 18314.1 -1994 L 18194.5 -1988.4 L 18175.1 -2023.1 Z M 4034 671.4 L 3984.3 736.1 L 3878.5 754.1 L 3770.1 866.7 L 3869.3 970.3 L 3858.5 1043.7 L 3977.6 1172.2 L 3977.6 1172.2 L 3912.5 1216.2 L 3893.8 1243.9 L 3845.5 1236.5 L 3770.6 1170.2 L 3739.9 1166.6 L 3671.3 1141.3 L 3637.9 1096.5 L 3536.2 1073.7 L 3470 1090.8 L 3450.9 1070.6 L 3302.4 1018.2 L 3141.8 1000.6 L 3049.5 981.9 L 3036.2 994.8 L 2897.2 902.6 L 2772.7 861.5 L 2678.5 797.4 L 2757.9 780 L 2848.4 688.7 L 2787.4 645.6 L 2948.2 601 L 2945.3 577.2 L 2847.4 594.8 L 2850.8 546.3 L 2907 515.8 L 3012.6 507.8 L 3029.8 471.5 L 3005.7 411.3 L 3050 354.2 L 3048.7 322.2 L 2887.9 286.7 L 2824.1 287.8 L 2756.8 236.7 L 2673.1 254 L 2534.5 215.7 L 2536.9 194.2 L 2498.1 146.9 L 2411.1 141.6 L 2402.1 107.7 L 2429.3 85.7 L 2359.6 23.9 L 2246.5 34.4 L 2213.4 29 L 2185.8 53.8 L 2145.1 49.4 L 2145.1 49.4 L 2118.2 -20.5 L 2092.6 -56.7 L 2113.6 -66.9 L 2201.6 -63.1 L 2244.1 -87 L 2212.7 -116.1 L 2139.1 -135.3 L 2145.7 -155 L 2101.3 -174.9 L 2032.9 -246.3 L 2056.2 -275.7 L 2045.6 -326.9 L 1938.9 -353 L 1881.7 -339.9 L 1866.2 -367 L 1751.3 -394.4 L 1716.3 -458.8 L 1707 -511.7 L 1654.4 -536.8 L 1701.1 -571.4 L 1668.8 -673.2 L 1746.4 -736 L 1730 -755.1 L 1730 -755.1 L 1854 -815.4 L 1739.7 -867.2 L 1739.7 -867.2 L 1973.3 -1006.5 L 2074.6 -1069.5 L 2115.6 -1125.1 L 1954.1 -1199.9 L 1998.7 -1271 L 1900.5 -1352.2 L 1974 -1445.7 L 1847.1 -1569.9 L 1947.8 -1652.1 L 1780.7 -1724.8 L 1796.6 -1801.2 L 1884.7 -1811.2 L 2070.3 -1855 L 2070.3 -1855 L 2182.9 -1893 L 2362.1 -1827 L 2660.9 -1801 L 3073 -1677.7 L 3156.8 -1625.8 L 3164 -1553.2 L 3042.9 -1495.9 L 2864.7 -1466.8 L 2377.7 -1549.7 L 2297.6 -1535.9 L 2475.5 -1456 L 2482.4 -1405.3 L 2489.6 -1293.9 L 2630 -1260.6 L 2715.3 -1232.3 L 2729.4 -1285.2 L 2663.6 -1332.1 L 2733.1 -1373.4 L 2996.8 -1305.5 L 3088.7 -1332.1 L 3015.3 -1412 L 3269.5 -1518.8 L 3370.2 -1512.5 L 3472 -1474.4 L 3535.6 -1549.4 L 3444.6 -1614.4 L 3498 -1679.6 L 3417.8 -1747.3 L 3723 -1712.3 L 3785.3 -1651.2 L 3647.2 -1637.7 L 3647.9 -1577 L 3733.8 -1539.7 L 3902.3 -1563.3 L 3929 -1632.9 L 4156.9 -1684.9 L 4537.6 -1778.6 L 4619.9 -1773.2 L 4512.4 -1707 L 4647.7 -1695.6 L 4725.8 -1732.9 L 4930.3 -1735.9 L 5092.3 -1781.1 L 5216.6 -1715.4 L 5340.6 -1787.7 L 5226.3 -1850.9 L 5283 -1886.9 L 5605.3 -1853.8 L 5756.3 -1819.7 L 6151.6 -1695.1 L 6224.5 -1752.2 L 6113.7 -1809.9 L 6110.5 -1833 L 5979 -1843.7 L 6015 -1895.4 L 5956.6 -1980.6 L 5953.3 -2015.5 L 6154.7 -2114.3 L 6226.3 -2213.4 L 6307.4 -2234.9 L 6596.2 -2206.1 L 6619 -2145.4 L 6515.5 -2056.9 L 6583.4 -2022.2 L 6618.5 -1945.9 L 6593.7 -1796.4 L 6714.1 -1729.5 L 6667.2 -1656.7 L 6453.6 -1501.8 L 6578.3 -1485.7 L 6621.7 -1525 L 6741.7 -1553 L 6770.6 -1607 L 6865.1 -1658.9 L 6801.5 -1720.9 L 6852.4 -1792.9 L 6733.1 -1801.9 L 6706.9 -1862.6 L 6793.9 -1972.1 L 6652.2 -2061.1 L 6847.5 -2134.6 L 6822.2 -2212.2 L 6876.6 -2214.7 L 6934 -2154.2 L 6890.9 -2048.9 L 7007.7 -2029 L 6957.9 -2107.7 L 7140.5 -2150.6 L 7366.9 -2156.3 L 7568.5 -2094.1 L 7471.5 -2185 L 7460.6 -2301.2 L 7650.3 -2323.2 L 7912.7 -2318.4 L 8149.1 -2332.7 L 8060.5 -2389.7 L 8186.7 -2461.4 L 8312 -2464.4 L 8524.1 -2518.5 L 8812.2 -2533 L 8848.6 -2562.9 L 9135.1 -2573 L 9224.3 -2548.6 L 9469.2 -2606.5 L 9669.6 -2604.7 L 9699.7 -2651.8 L 9803.9 -2698.2 L 10061.4 -2743 L 10248.5 -2707.7 L 10100 -2680.8 L 10347.1 -2664.1 L 10376.5 -2610.1 L 10476.2 -2636.7 L 10795.2 -2635.2 L 11041.1 -2582 L 11128.6 -2541.2 L 11101.5 -2484.4 L 10980.8 -2452.2 L 10694.1 -2391.6 L 10612.2 -2359.2 L 10747.5 -2344 L 10908.8 -2316.4 L 11007 -2337.1 L 11062.7 -2267 L 11110.6 -2295.4 L 11285 -2312.6 L 11635.1 -2294.6 L 11661.6 -2243.6 L 12117.7 -2227.4 L 12124 -2310.7 L 12355.5 -2291.6 L 12529.6 -2292.2 L 12705.8 -2234.7 L 12756 -2164.9 L 12691.5 -2119.2 L 12828.5 -2033.4 L 13000.1 -1989.1 L 13105.3 -2103.5 L 13280.3 -2054.5 L 13466.3 -2083.8 L 13677.4 -2050.2 L 13757.8 -2080.8 L 13936.2 -2065.5 L 13857.5 -2166.8 L 14001.5 -2214.1 L 14986.8 -2143.2 L 15079.6 -2078.5 L 15365.2 -1995.1 L 15805.7 -2015.7 L 16022.9 -1997.8 L 16113.8 -1952.7 L 16100.5 -1872.9 L 16234.9 -1841.8 L 16380.9 -1864.2 L 16574.4 -1867 L 16780.3 -1845.6 L 16987.1 -1857.7 L 17177.1 -1760.7 L 17312.3 -1795.6 L 17224.1 -1865.3 L 17272.7 -1913.8 L 17620.7 -1883.3 L 17847.6 -1889.8 L 18161.4 -1837.8 L 18314.1 -1790.2 L 18314.1 -1355.5 L 18313.3 -1355 L 18173.1 -1307 L 18031.7 -1315 L 18130.1 -1256.9 L 18195 -1167.1 L 18245.4 -1137.7 L 18258.1 -1092.5 L 18229.9 -1063.7 L 18026.6 -1087.4 L 17721.7 -1005.3 L 17624.7 -992.6 L 17457.7 -915.9 L 17299.4 -849 L 17259.3 -799.4 L 17103.2 -874.9 L 16819 -789.2 L 16769.4 -829.7 L 16664.3 -783 L 16518.4 -798 L 16483.2 -726.2 L 16352.3 -620.6 L 16356.2 -576.6 L 16480.5 -552.1 L 16465.9 -393.3 L 16364.6 -389.3 L 16317.9 -298 L 16363.3 -251 L 16172.5 -195.3 L 16134.6 -70.7 L 15972 -44.1 L 15939.3 66.7 L 15782.1 168.3 L 15741.7 93.2 L 15695 -66 L 15634.1 -308.4 L 15686.6 -459.7 L 15778.6 -524.8 L 15784.3 -575.8 L 15953.8 -600.2 L 16148.7 -737.5 L 16336.5 -849.7 L 16532.6 -936.8 L 16620.3 -1090.5 L 16487.7 -1081.3 L 16422.2 -991.5 L 16145.5 -871.7 L 16056.2 -1005.8 L 15774.5 -968.8 L 15501.5 -785.9 L 15591.6 -719 L 15348.1 -690.5 L 15179.4 -679.3 L 15187.3 -758.2 L 15017.7 -774.7 L 14882.6 -721.1 L 14549 -739.9 L 14190.2 -707.6 L 13836.8 -494.6 L 13418.7 -237.3 L 13590.6 -223.6 L 13644.2 -155.3 L 13750.2 -131 L 13820 -185.5 L 13939.7 -178.4 L 14097.2 -58.4 L 14100.9 34.4 L 14015.6 143.4 L 14006.4 273.7 L 13957.2 448.1 L 13792.7 605.9 L 13756.2 681.4 L 13608.1 808.4 L 13461.2 934.4 L 13390.7 998.8 L 13245.3 1062.8 L 13176.5 1064.3 L 13108 1011.2 L 12961.6 1091.1 L 12944.6 1127.4 L 12944.6 1127.4 L 12944.6 1127.4 L 12944.6 1127.4 L 12929.3 1108.3 L 12929.3 1108.3 L 12928.6 1052.9 L 12984.4 1049.9 L 13000.1 921 L 12971.3 827.6 L 13065 789.1 L 13197.4 808.4 L 13270.7 702.2 L 13308.1 582.7 L 13350.5 542.8 L 13407.8 444.6 L 13227.5 476.8 L 13132.9 519.8 L 12967.2 519.7 L 12923 417.2 L 12793.8 339.7 L 12603.9 304.8 L 12563.6 197.9 L 12525.6 130.9 L 12484.7 84 L 12417.3 -26 L 12321.5 -66.2 L 12158.2 -98.7 L 12013.6 -95.7 L 11878 -76.1 L 11787.9 -21.8 L 11847.7 4.1 L 11849.1 64.4 L 11788.4 99.3 L 11689.9 215 L 11690.9 263 L 11537.2 332 L 11406.2 290.8 L 11276.1 299.9 L 11219 263.3 L 11153.5 251.5 L 10993.8 328.4 L 10850.1 346.5 L 10749.9 373.5 L 10612.4 355.8 L 10511.3 356.9 L 10445.1 301.1 L 10338.2 248.7 L 10228.9 234.3 L 10090.9 248.6 L 9987.8 268.8 L 9832.8 222.9 L 9812 141.2 L 9683.7 113.2 L 9584.7 100.4 L 9462.5 55.3 L 9349.5 168.3 L 9393.8 232.6 L 9287.8 308.5 L 9130 281.1 L 9021.2 277.2 L 8948.3 226.2 L 8834.4 224.6 L 8739.6 191.1 L 8573.6 242.4 L 8365.5 336.4 L 8250.5 355.3 L 8207.8 364.3 L 8149.9 297.5 L 8009.4 312.1 L 7962.9 265.8 L 7886.7 244.7 L 7834.1 181.6 L 7773.9 162 L 7617.1 190 L 7466.9 127.2 L 7408.7 184.3 L 7165 -92.8 L 7025.8 -177 L 7065.7 -211.3 L 6792.3 -108.3 L 6687.6 -102.1 L 6696.7 -161.6 L 6556.6 -198.8 L 6442.7 -172.3 L 6408.3 -285.3 L 6212.3 -308.9 L 6114.2 -263.6 L 5841.2 -223.3 L 5787.9 -196.4 L 5379.7 -158.4 L 5329.7 -121.2 L 5408.5 -46.5 L 5303.7 -18.1 L 5324.2 11.6 L 5219.5 64.8 L 5396.2 139.8 L 5368.9 191.5 L 5215.7 186.8 L 5184 219.1 L 5044.5 162.6 L 4871.5 164.8 L 4755.8 210.8 L 4626.6 166.7 L 4386.1 91.1 L 4215.7 94 L 3990.5 212.6 L 3976.9 292.3 L 3864.7 229 L 3777.7 348.9 L 3809.6 371.1 L 3746.6 453.8 L 3839.2 527.8 L 3920.1 524.8 L 3989.7 597.7 L 3978.6 653.8 L 4034 671.4 Z M 8907.9 -3105.9 L 9143.9 -3130.6 L 9355.9 -3075.6 L 9607.1 -2970.2 L 9580.1 -2872.1 L 9342.1 -2858.5 L 9038.3 -2889.9 L 8857.2 -2931.6 L 8773.5 -3009.8 L 8624.6 -3031.4 L 8907.9 -3105.9 Z M 9896.3 -2915.7 L 10172.8 -2853.8 L 10140.4 -2809.4 L 9525.4 -2767.3 L 9724.7 -2910.6 L 9814.3 -2922.8 L 9896.3 -2915.7 Z M 13822.9 -2572.7 L 14111 -2567.9 L 14505.3 -2510.1 L 14419.5 -2429 L 14017.4 -2432.1 L 13836.5 -2406.3 L 13620.3 -2477.2 L 13679 -2552.2 L 13822.9 -2572.7 Z M 14847.4 -2486.4 L 15121.2 -2457.9 L 14995.1 -2414.7 L 14820.7 -2424.5 L 14618 -2467.6 L 14644.1 -2502.9 L 14847.4 -2486.4 Z M 13935.5 -2270.8 L 14039 -2314 L 14175.4 -2324.1 L 14330.4 -2282.3 L 14343.6 -2253.7 L 14178.2 -2252.9 L 13954.6 -2265.1 L 13935.5 -2270.8 Z M 3569.9 -3058.5 L 3782.9 -3078.4 L 3948.6 -3079.7 L 3970.9 -3050.3 L 4033.6 -3076.4 L 4136.4 -3094.4 L 4298.2 -3070.5 L 4256 -3053.9 L 4109.6 -3039.5 L 4011.5 -3031.2 L 3996.3 -3013.3 L 3868.7 -2995.3 L 3750.6 -3021.1 L 3812.7 -3055.2 L 3569.9 -3058.5 Z M 1157.2 -193.5 L 956.6 -191.8 L 822.3 -204.2 L 847.1 -252.2 L 997.7 -287.6 L 1111.9 -268.5 L 1160.2 -251.2 L 1148.5 -221.3 L 1157.2 -193.5 Z M 4514.8 -2312.3 L 4776 -2408 L 4746.5 -2457.6 L 4990.5 -2515.2 L 5350.6 -2585.3 L 5713.7 -2605.7 L 5900.6 -2646.1 L 6112.9 -2660.3 L 6188.7 -2617.2 L 6115.4 -2583.3 L 5728.9 -2529.2 L 5395.8 -2477.1 L 5056.9 -2373.3 L 4894.3 -2266.8 L 4723.3 -2161.9 L 4745.5 -2071.3 L 4954.2 -1981.8 L 4889.7 -1972.2 L 4533.3 -1986.4 L 4504.3 -2034.9 L 4306.8 -2064.1 L 4290.9 -2123 L 4402.4 -2146.4 L 4398.7 -2205.9 L 4615.1 -2299 L 4514.8 -2312.3 Z M 14268.4 -125.5 L 14306.1 -20.4 L 14303.4 87 L 14348.4 197.1 L 14458.1 390.3 L 14296.7 354.3 L 14229.5 511.9 L 14335.9 623.7 L 14332.8 700 L 14250.2 634.2 L 14178.6 718.6 L 14158.4 627.1 L 14170.6 520.8 L 14158.2 403.1 L 14183.4 320.6 L 14188.2 174.7 L 14124.3 67.5 L 14134 -81.6 L 14234.8 -131.8 L 14191.5 -182.3 L 14240 -197.7 L 14268.4 -125.5 Z M -20405.9 -1598.4 L -20415.3 -1530.6 L -20341.7 -1503.5 L -20367 -1582.7 L -20070.9 -1566.5 L -19857.3 -1464.4 L -19965.5 -1416.8 L -20144.3 -1405.5 L -20147 -1298.9 L -20190.7 -1276.2 L -20292.9 -1279.5 L -20376 -1317.5 L -20521 -1349.3 L -20545.4 -1396.7 L -20656.2 -1414.5 L -20780.3 -1400.4 L -20839.6 -1438.5 L -20815.9 -1479.1 L -20946.5 -1453.2 L -20897.3 -1401.8 L -20959.2 -1355.5 L -20959.2 -1790.2 L -20691.9 -1706.9 L -20405.9 -1598.4 Z M -20816.7 -2000.6 L -20959.2 -1994 L -20959.2 -2068.6 L -20945.2 -2073.1 L -20852.8 -2072.9 L -20695 -2041.7 L -20704.3 -2026.8 L -20816.7 -2000.6 Z M 2325.1 718.1 L 2353.8 691 L 2431.4 714.4 L 2466.5 718.7 L 2480.6 740.3 L 2497.1 743.6 L 2498 753.1 L 2551.3 779.4 L 2662.6 772.8 L 2641.3 811.7 L 2521.9 830.6 L 2373.8 893.8 L 2313.1 871.6 L 2337.2 820.3 L 2218 788.4 L 2237.2 767.5 L 2341.7 731.2 L 2325.1 718.1 Z" />
<path class="neighbor" d="M 2145.1 49.4 L 2185.8 53.8 L 2213.4 29 L 2246.5 34.4 L 2359.6 23.9 L 2429.3 85.7 L 2402.1 107.7 L 2411.1 141.6 L 2498.1 146.9 L 2536.9 194.2 L 2534.5 215.7 L 2673.1 254 L 2756.8 236.7 L 2824.1 287.8 L 2887.9 286.7 L 3048.7 322.2 L 3050 354.2 L 3005.7 411.3 L 3029.8 471.5 L 3012.6 507.8 L 2907 515.8 L 2850.8 546.3 L 2847.4 594.8 L 2760.3 603.5 L 2687.7 638.8 L 2585.5 644.5 L 2491.6 685.2 L 2497.1 743.6 L 2480.6 740.3 L 2466.5 718.7 L 2431.4 714.4 L 2353.8 691 L 2325.1 718.1 L 2310.1 706.2 L 2140.5 678.6 L 2133 638 L 2031.9 651.4 L 1991.4 711.5 L 1906.9 792.1 L 1857.5 773.4 L 1806.2 790.9 L 1757.5 770.8 L 1785 759 L 1804 721.5 L 1833.9 686.8 L 1826.2 667.2 L 1849 658.5 L 1859.8 673.6 L 1924 676.8 L 1952.9 668.8 L 1932.6 657.7 L 1940.3 641.4 L 1902.2 613.7 L 1886.4 568.1 L 1846.7 550.2 L 1854.5 513.3 L 1805.2 483.9 L 1760.4 479.8 L 1680 445.9 L 1607.4 456.6 L 1581.4 472.7 L 1535.4 472.7 L 1508 498.2 L 1427.4 508.7 L 1390.2 525.5 L 1339.5 498.8 L 1269.6 498.4 L 1202.1 486.3 L 1155 509.7 L 1147.4 480.4 L 1086.8 450.8 L 1108.1 406.8 L 1138.4 378.4 L 1162.2 384.7 L 1134 335.7 L 1233.1 245 L 1287.2 232.3 L 1298.9 201.7 L 1244.1 106.4 L 1296.2 102.2 L 1356 72.6 L 1440.5 70.2 L 1550.7 78.7 L 1672.5 104.9 L 1758.4 107.1 L 1799.4 122.9 L 1840.4 103.9 L 1868.9 129.4 L 1967.4 124.1 L 2010.8 134.7 L 2017.8 79.8 L 2051.4 55.8 L 2145.1 49.4 Z" />
<path class="neighbor" d="M 1239.4 -148.2 L 1244.1 -99.9 L 1274.4 -58.4 L 1273.8 -14.9 L 1208.3 7.3 L 1242 57.9 L 1244.1 106.4 L 1298.9 201.7 L 1287.2 232.3 L 1233.1 245 L 1134 335.7 L 1162.2 384.7 L 1138.4 378.4 L 1034.7 336.4 L 956.2 351.9 L 904.7 340.7 L 840.2 364 L 785.2 325.4 L 740.3 340.2 L 734.2 333.6 L 684 279.9 L 602.9 273.3 L 592.5 239.1 L 517.7 226.9 L 501.4 255.1 L 442.2 232.5 L 449 202.5 L 367.4 193 L 315.7 157.9 L 271 88.2 L 279.5 50.6 L 252.5 -7.7 L 212.9 -46.6 L 243.3 -75.7 L 217.8 -131.2 L 292.3 -163.3 L 462.6 -213.7 L 600 -250.6 L 708.8 -232.2 L 717.1 -205.6 L 822.3 -204.2 L 956.6 -191.8 L 1157.2 -193.5 L 1213.2 -181.8 L 1239.4 -148.2 Z" />
<path class="neighbor" d="M 529.8 483.3 L 521.5 527.9 L 460.1 528.1 L 481.2 551.8 L 445 622 L 424.2 640.4 L 328.8 643.1 L 273.7 667.9 L 183.6 659.4 L 27.6 631.3 L 3.3 593.3 L -104.6 612.3 L -117.2 633 L -183.3 617.5 L -239 614.6 L -288.4 594.7 L -271.7 568 L -275.9 548.6 L -243 542.6 L -187.8 572.9 L -172.2 544.1 L -76 548.8 L 2 529.2 L 54.3 532.6 L 88.3 554.9 L 98.5 536.4 L 83 465.3 L 122.2 451.4 L 160.7 401.1 L 241.7 436.2 L 303.1 391.6 L 341.5 383.5 L 426.2 416.8 L 477.4 411.1 L 527.7 431.7 L 518.9 445.5 L 529.8 483.3 Z" />
<path class="neighbor" d="M 1757.5 770.8 L 1806.2 790.9 L 1857.5 773.4 L 1906.9 792.1 L 1909.5 820.2 L 1856.6 843.7 L 1823.4 833.5 L 1792.9 965.1 L 1728.8 953.6 L 1649.4 914 L 1521 939.4 L 1466.9 967.2 L 1306.7 961.4 L 1222.8 944.4 L 1180.6 952.4 L 1149.2 907.6 L 1129.2 888.5 L 1154.5 870.1 L 1127.6 856.5 L 1093.3 881 L 1029.7 849.3 L 1021.1 804.3 L 954.7 778.7 L 942.4 744 L 883.3 701.1 L 970.8 680.5 L 1036.7 606.5 L 1088.4 532.6 L 1155 509.7 L 1202.1 486.3 L 1269.6 498.4 L 1339.5 498.8 L 1390.2 525.5 L 1427.4 508.7 L 1508 498.2 L 1535.4 472.7 L 1581.4 472.7 L 1614.7 483.4 L 1648.5 515.7 L 1683.1 561.7 L 1746 626.6 L 1749.5 674.5 L 1738 721 L 1757.5 770.8 Z" />
<path class="neighbor" d="M 217.8 -131.2 L 243.3 -75.7 L 212.9 -46.6 L 252.5 -7.7 L 279.5 50.6 L 271 88.2 L 315.7 157.9 L 267 169.3 L 238.2 156.7 L 210.9 177.5 L 132.5 198.6 L 92 225.8 L 12.8 249.6 L 31.9 282 L 43.4 328 L 99.1 354.2 L 160.7 401.1 L 122.2 451.4 L 83 465.3 L 98.5 536.4 L 88.3 554.9 L 54.3 532.6 L 2 529.2 L -76 548.8 L -172.2 544.1 L -187.8 572.9 L -243 542.6 L -275.9 548.6 L -392.8 515.3 L -415.2 539 L -508 538.2 L -494.1 460.5 L -439 385.8 L -596.2 365.7 L -647.7 337.1 L -641.5 289.3 L -663.3 264.7 L -650.9 191 L -669.2 76.6 L -603.7 76.6 L -576 35.5 L -548.9 -64.4 L -569.3 -101.2 L -547.9 -124.3 L -456.8 -130.3 L -436.5 -106.2 L -362.5 -160 L -387.4 -200.9 L -392.4 -262.8 L -309.9 -248.4 L -240.1 -265 L -238.2 -222.8 L -128 -197.4 L -129.1 -158.7 L -18.2 -179.2 L 43.1 -209.1 L 166.3 -166 L 217.8 -131.2 Z" />
<path class="neighbor" d="M 484.5 660 L 519.2 673.5 L 600.8 720.3 L 690.9 741.2 L 731.6 724.9 L 758.1 767.2 L 792.8 798.3 L 750.8 839.3 L 701.5 815.2 L 626 816.7 L 532.3 798.6 L 481.3 801 L 457.6 823.6 L 418.5 798.6 L 395.7 843.9 L 449.1 894.9 L 472.7 928.7 L 522.9 969.4 L 564.5 993.6 L 605.7 1039.2 L 702.2 1080.5 L 690.2 1099 L 690.2 1099 L 587.7 1058.6 L 524.4 1019.4 L 424.6 986.9 L 332.9 906.7 L 354.9 898.5 L 305.1 852.6 L 303.1 815.8 L 233 798.6 L 199.5 845.7 L 167.3 809.2 L 169.8 771.3 L 173.7 769.5 L 249.7 773.2 L 269.7 754.8 L 306.8 772.6 L 349.6 774.8 L 349.2 744.3 L 387.1 733.1 L 397.7 689 L 484.5 660 Z" />
<path class="neighbor" d="M -183.3 617.5 L -117.2 633 L -104.6 612.3 L 3.3 593.3 L 27.6 631.3 L 183.6 659.4 L 171.8 713.2 L 197.9 759.6 L 111.1 743.7 L 22.4 782.4 L 28.4 836.6 L 15.1 867.7 L 50.8 923.2 L 153.1 978.2 L 208 1068.4 L 329.4 1156.3 L 414.9 1155.6 L 441.5 1179.7 L 410.9 1201.4 L 508.6 1240.9 L 588.7 1273.9 L 682.2 1330.8 L 693.5 1351.1 L 673.1 1390.2 L 612.6 1339.3 L 517.8 1321.3 L 471.9 1391.9 L 550.7 1432.3 L 537.8 1489.2 L 492.2 1495.7 L 433.9 1589.3 L 388.5 1597.7 L 388.9 1564.3 L 411.1 1505.8 L 434.9 1482.5 L 392.3 1419.3 L 359 1364.3 L 313.7 1350.7 L 281.5 1303.6 L 211.4 1283.8 L 164.2 1239.9 L 83.4 1232.9 L -1.8 1183.6 L -101.6 1112.6 L -175.8 1049.8 L -209.8 941.9 L -264.1 929.2 L -352.8 893.2 L -403.1 908 L -466.1 958.6 L -511.4 966.6 L -498.9 919.2 L -558.1 905.4 L -586.2 821 L -548.4 787.8 L -580.5 746.8 L -576 716 L -529 739.3 L -476.4 734.1 L -415.3 697.1 L -396.4 714.4 L -344.4 711 L -320.8 667 L -240 680.6 L -192 662.2 L -183.3 617.5 Z M 287.8 1572 L 370.6 1562.5 L 331.3 1648.4 L 347.6 1682.2 L 324.7 1738.3 L 241.3 1697.2 L 185.8 1685.4 L 33.6 1630 L 48.8 1574 L 176.5 1583.9 L 287.8 1572 Z M -372.4 1271.4 L -317.8 1237.6 L -252.4 1315 L -267.7 1459.3 L -317.3 1452.4 L -361.8 1488.8 L -403.1 1459.9 L -407.5 1328.3 L -432.4 1265.9 L -372.4 1271.4 Z" />
<path class="neighbor" d="M 183.6 659.4 L 273.7 667.9 L 328.8 643.1 L 424.2 640.4 L 445 622 L 463.4 623.2 L 484.5 660 L 397.7 689 L 387.1 733.1 L 349.2 744.3 L 349.6 774.8 L 306.8 772.6 L 269.7 754.8 L 249.7 773.2 L 173.7 769.5 L 197.9 759.6 L 171.8 713.2 L 183.6 659.4 Z" />
<path class="neighbor" d="M 1138.4 378.4 L 1108.1 406.8 L 1086.8 450.8 L 1063.5 461.9 L 946.7 428.8 L 911 435.4 L 885.4 461.1 L 834.2 474.7 L 822.4 467.7 L 769.2 484.7 L 725.9 487.9 L 717.1 509.8 L 625.5 523.2 L 585.3 511.3 L 529.8 483.3 L 518.9 445.5 L 527.7 431.7 L 543.1 407.7 L 591.5 409.5 L 628.7 398.3 L 631.7 388.1 L 652.6 382.9 L 659.7 358.1 L 684.8 353.4 L 701.7 333.7 L 734.2 333.6 L 740.3 340.2 L 785.2 325.4 L 840.2 364 L 904.7 340.7 L 956.2 351.9 L 1034.7 336.4 L 1138.4 378.4 Z" />
<path class="neighbor" d="M 315.7 157.9 L 367.4 193 L 449 202.5 L 442.2 232.5 L 501.4 255.1 L 517.7 226.9 L 592.5 239.1 L 602.9 273.3 L 684 279.9 L 734.2 333.6 L 701.7 333.7 L 684.8 353.4 L 659.7 358.1 L 652.6 382.9 L 631.7 388.1 L 628.7 398.3 L 591.5 409.5 L 543.1 407.7 L 527.7 431.7 L 477.4 411.1 L 426.2 416.8 L 341.5 383.5 L 303.1 391.6 L 241.7 436.2 L 160.7 401.1 L 99.1 354.2 L 43.4 328 L 31.9 282 L 12.8 249.6 L 92 225.8 L 132.5 198.6 L 210.9 177.5 L 238.2 156.7 L 267 169.3 L 315.7 157.9 Z" />
<path class="neighbor" d="M 702.2 1080.5 L 605.7 1039.2 L 564.5 993.6 L 522.9 969.4 L 472.7 928.7 L 449.1 894.9 L 395.7 843.9 L 418.5 798.6 L 457.6 823.6 L 481.3 801 L 532.3 798.6 L 626 816.7 L 701.5 815.2 L 750.8 839.3 L 750.8 839.3 L 790.4 839 L 763 887 L 815.6 929 L 799.7 980.3 L 774 985.1 L 753.7 995.1 L 718.2 1020.4 L 702.2 1080.5 Z" />
<path class="neighbor" d="M 731.6 724.9 L 731.6 724.9 L 815.2 696.3 L 883.3 701.1 L 942.4 744 L 954.7 778.7 L 1021.1 804.3 L 1029.7 849.3 L 1093.3 881 L 1127.6 856.5 L 1154.5 870.1 L 1129.2 888.5 L 1149.2 907.6 L 1122.3 932.3 L 1132 972.2 L 1185.1 1019.2 L 1143.5 1053.4 L 1125.1 1088.1 L 1136.9 1101 L 1119 1116.4 L 1068.4 1118.2 L 1031.3 1124.6 L 1027.7 1116.4 L 1040.7 1103.5 L 1052.9 1076.9 L 1037.5 1077.5 L 1016.2 1057.3 L 998.3 1052.1 L 984 1034.8 L 963.6 1028 L 948.2 1012.6 L 928.6 1018.6 L 913.5 1054.9 L 887.4 1062.7 L 896.4 1053.4 L 854.8 1030.7 L 818.9 1019 L 803 1003.8 L 774 985.1 L 799.7 980.3 L 815.6 929 L 763 887 L 790.4 839 L 750.8 839.3 L 750.8 839.3 L 792.8 798.3 L 758.1 767.2 L 731.6 724.9 Z" />
<path class="lake" d="M 595.9 631.5 L 583.9 636.1 L 562.3 636.3 L 561.4 634 L 561.5 632.1 L 565.7 631.7 L 573.9 630 L 584.2 627.7 L 604.6 622 L 621.9 615.6 L 628.1 612.1 L 636.2 607.3 L 645.4 601.9 L 649.6 599.9 L 655.3 601.6 L 659 604.8 L 656.7 609.9 L 628.1 620.5 L 605.4 628.8 L 595.9 631.5 L 595.9 631.5 L 595.9 631.5 L 595.9 631.5 Z" />
<path class="country" d="M 1086.8 450.8 L 1147.4 480.4 L 1155 509.7 L 1088.4 532.6 L 1036.7 606.5 L 970.8 680.5 L 883.3 701.1 L 815.2 696.3 L 731.6 724.9 L 731.6 724.9 L 690.9 741.2 L 600.8 720.3 L 519.2 673.5 L 484.5 660 L 463.4 623.2 L 445 622 L 481.2 551.8 L 460.1 528.1 L 521.5 527.9 L 529.8 483.3 L 585.3 511.3 L 625.5 523.2 L 717.1 509.8 L 725.9 487.9 L 769.2 484.7 L 822.4 467.7 L 834.2 474.7 L 885.4 461.1 L 911 435.4 L 946.7 428.8 L 1063.5 461.9 L 1086.8 450.8 Z" />

<path class="river" d="M 729.5 286.8 L 743.3 286.1" />
<path class="river" d="M 554.5 490.2 L 584.5 509.1 L 601.3 517.6 L 615.1 521.9 L 657 522.6 L 723.3 519.9 L 727.8 517.6 L 750.2 516.5 L 758 517.9 L 761.5 520.9 L 763.7 526.1 L 763.7 528.6 L 758.2 545.7 L 756.8 553.4 L 753.4 560.9 L 745.7 566.1 L 740.1 577.5 L 737.5 589.4 L 742.4 596.8 L 743.2 602.3 L 743.7 605.9 L 743.3 618.5 L 744.2 627.3 L 748.3 634.3 L 746.5 640.3 L 738.6 645.4 L 736.4 651.1 L 739.8 657.4 L 741.4 668.9 L 741.1 685.4 L 734.8 698.5 L 722.7 708.2 L 720.4 713.4 L 723.9 722.1 L 732.7 732.9 L 738.7 740.4 L 744.5 752.5 L 741.2 758.5 L 745.2 763.2 L 756.2 766.6 L 757.2 767.9 L 753.8 769.3 L 751 773.3 L 750.7 780.5 L 760.4 787.3 L 780 793.8 L 802 797.5 L 826.4 798.7 L 840.6 797.8 L 844.4 794.8 L 849.2 795.8 L 854.9 800.9 L 864.2 803.8 L 877.1 804.6 L 886.9 807.7 L 890.1 810.4 L 893.7 813.3 L 896.3 819.9 L 894.8 827.5 L 897.8 833.8 L 905.2 839 L 913.9 841.3 L 923.8 840.8 L 928.6 842.8 L 928.5 847.4 L 931.9 852.4 L 939.1 857.6 L 958.9 856 L 1007.7 843 L 1025.5 847 L 1033.5 850.8 L 1037.8 855.7 L 1049.1 858.9 L 1067.6 860.5 L 1080.4 865.6 L 1087.6 874.1 L 1099.4 872 L 1115.7 859.4 L 1131.8 856.1 L 1147.5 862.2 L 1156.1 867.1 L 1157.6 871 L 1153.9 872.6 L 1145.1 871.8 L 1137.9 874.2 L 1132.3 879.8 L 1131.4 885.7 L 1135.4 892 L 1141 896.3 L 1148.2 898.7 L 1152 901.9 L 1152.5 906.1 L 1162.1 911.9 L 1180.6 919.3 L 1189.7 924.7 L 1189.2 928 L 1185 931.3 L 1176.9 934.6 L 1172.2 938.9 L 1170.9 944.2 L 1172.1 948 L 1177.7 951.2 L 1211.1 946.9 L 1244.9 949.2 L 1290.3 956.5 L 1320.4 959 L 1342.6 955.6 L 1422.2 967.4 L 1459 969.1 L 1479.6 964.6 L 1494.1 958.6 L 1506.6 947.3 L 1537.4 932.4 L 1567.2 924 L 1606.3 917.2 L 1632.4 914.9 L 1647.1 917.6 L 1652 918.2 L 1659.9 918.6 L 1667.9 918.2 L 1687.8 913.6 L 1716.8 904.5 L 1734.5 895.8 L 1740.8 887.4 L 1741.1 881.2 L 1735.6 877.2 L 1733.4 872.3 L 1734.7 866.6 L 1731.2 860.8 L 1721.9 854.8 L 1718.6 852 L 1715.7 849.4 L 1713.5 846.4 L 1713.6 842.6 L 1717.1 838.8 L 1720.5 827.6 L 1724 809 L 1728.2 794.8 L 1733.3 785.1 L 1740.7 778.9 L 1755.2 775 L 1766.7 786.2 L 1781.3 792.2 L 1815 798.6" />
<path class="river" d="M 2002.4 704 L 2004 705.2 M 1169.8 358.6 L 1195.6 337.5 L 1228.9 327.3 L 1252.8 326.1 L 1278.4 330.6 L 1297.7 335.2 L 1310.9 340.2 L 1320.4 347.1 L 1326.3 356 L 1335 361 L 1346.5 361.9 L 1360.5 367.9 L 1377 379 L 1388.5 384.7 L 1395.1 384.9 L 1403.3 387.9 L 1418.1 396.7 L 1421.6 401 L 1425 400.6 L 1427.7 400.3 L 1429.9 402.5 L 1432.1 405 L 1437.7 405 L 1441.7 406 L 1448.1 404.6 L 1461.6 408.6 L 1477.7 421.6 L 1484.5 424.9 L 1489.9 424.8 L 1495 426 L 1502.3 430.5 L 1509.3 431.1 L 1514.4 429.9 L 1517.9 429.5 L 1521.7 434.4 L 1524 435.4 L 1528.1 434.4 L 1532.3 437.1 L 1541.5 439.1 L 1557.3 438.4 L 1568.2 440.5 L 1574.4 445.1 L 1578.3 445.9 L 1580.1 443 L 1583.5 441.8 L 1586.8 440.5 L 1589.6 438 L 1592.5 436.8 L 1596.6 435.5 L 1599.4 435.2 L 1601.5 433.6 L 1604.9 433.3 L 1610.2 435.9 L 1622.6 435.7 L 1652.6 431.3 L 1670.2 433.1 L 1675.3 441.2 L 1685.5 446.1 L 1700.9 447.8 L 1712.4 451.4 L 1720.1 457 L 1728 460.4 L 1736.2 461.8 L 1740.8 464.5 L 1741.7 468.8 L 1749.4 470.9 L 1763.8 470.8 L 1769.9 473.6 L 1767.7 479.2 L 1769.2 481.1 L 1774.3 479.1 L 1778.2 480.8 L 1780.3 485 L 1782.6 486.9 L 1786.1 486.4 L 1790.9 485.5 L 1794.7 489.3 L 1794.4 493.8 L 1798 495.8 L 1803.3 494.9 L 1815.6 498.3 L 1833.9 508 L 1842.2 519.1 L 1840.5 531.7 L 1843 542.3 L 1849.8 551 L 1852.4 556.9 L 1850.9 560 L 1852.4 563.2 L 1854.2 565.7 L 1853.8 568.8 L 1852.5 572.1 L 1857.9 580.3 L 1856.9 586.2 L 1855.5 589.2 L 1856.1 591.1 L 1859.9 591.1 L 1864.6 590.3 L 1870 590 L 1875.3 593.3 L 1880.3 598.7 L 1880.4 602.7 L 1875.7 605.4 L 1873.9 607.7 L 1875 609.5 L 1887.3 610.9 L 1892.7 615.5 L 1895.5 624.6 L 1899.7 627.7 L 1905.4 624.7 L 1910.4 626.4 L 1915 632.5 L 1916.4 637 L 1914.7 639.8 L 1916.8 642.5 L 1922.7 645.1 L 1924.4 647.3 L 1925.1 649.4 L 1929 651.6 L 1939.1 654.6 L 1964.5 668.8 L 1974.2 668.5 L 1977.9 671.3 L 1979.5 680.1" />
<path class="river" d="M -425.8 491.7 L -396.3 504.4 L -373.9 503.8 L -358.6 499.4 L -343 491.1 L -326.3 487.4 L -308.5 488.4 L -294.8 484.1 L -285.2 474.7 L -276.5 470.2 L -268.6 470.5 L -255.2 465.3 L -236.1 454.5 L -217.8 447.4 L -200.1 444.1 L -189.6 440.5 L -186.4 436.6 L -174.5 430.6 L -154 422.7 L -119.8 416.6 L -48 410.2 L -39 401.8 L -29.8 398 L -17.3 395.9 L -10.8 392.3 L -9.8 384.7 L 13 385.8 L 25.9 388.6 L 41.8 396 M 554.5 490.2 L 550.1 484 L 544.1 480.8 L 535.1 478.6 L 518.7 478.1 L 494.8 479.3 L 476 473.6 L 462.3 461.1 L 445.8 455.4 L 426.6 456.6 L 407.8 455.4 L 389.4 451.9 L 376.4 450.6 L 368.6 451.4 L 360.9 456.4 L 353.1 465.6 L 342.7 471.9 L 329.8 475.2 L 317.7 475.2 L 306.4 472 L 295.2 472 L 284 475.3 L 268.4 473 L 248.3 465 L 231.3 461 L 217.2 460.9 L 208.8 458.4 L 206.1 453.3 L 190.7 446.4 L 148.7 433.3 L 130.2 431.1 L 117.5 427.4 L 104.5 421.4 L 96.2 415.3 L 92.6 408.9 L 85.7 405.6 L 75.6 405.6 L 63.4 403 L 41.8 395.2" />
<path class="river" d="M 185.3 596 L 244.8 589.8 L 260.1 583.1 L 272.3 581.4 L 286.8 582.6 L 298.6 579.2 L 308 571.1 L 320.6 565.4 L 329.7 562.3 L 336.6 562.1 L 346.9 563 L 351.6 568 L 352.3 571.4 L 349.1 573.2 L 348.3 578.4 L 349.7 587 L 353.3 592.7 L 358.9 595.6 L 365.8 606.2 L 374.9 624.3 L 377.3 631.3 L 382.6 634.7 L 390.3 636.1 L 427.5 642.7 L 446 652.8 L 458 656.7 L 469.6 657.8 L 485.1 662.1 L 504.5 669.6 L 518 678 L 525.5 687.3 L 535.6 694.6 L 548.3 699.7 L 558.4 706.6 L 565.9 715.4 L 576.3 720.3 L 589.8 721.4 L 598.2 724.4 L 601.8 729.4 L 609.1 733.8 L 620.1 737.9 L 637.2 740.1 L 672 740.6 L 701.2 755.7 L 718.8 761.5 L 745.2 763.2" />
<path class="river" d="M 377.4 203.1 L 380.9 211.7 L 385 215.8 L 390.9 218.3 L 393.9 221.7 L 394.1 225.8 L 399.2 230.6 L 408.1 235.6 L 410.3 238 L 410.8 242.9 L 406 249 L 403.2 257.2 L 403 267 L 387.7 273 L 357.5 275.2 L 339.5 274.8 L 331.2 270.4 L 323.4 262 L 310.5 259.1 L 289.7 258.9 L 273.6 254.4 L 256.3 241.2 L 247.1 230.8 L 241 228.4 L 235 230.5 L 231 229.1 L 229 224.3 L 224.2 221.9 L 216.6 221.9 L 211.6 220.2 L 209 216.8 L 209.1 214.3 L 211.6 212.9 L 212.1 211.2 L 212.3 208.7 L 213.9 206.6 L 222.2 203.8 L 226.9 196.8 L 227.8 185.8 L 219.6 178.5 L 202.2 175 L 191 170.5 L 185.9 165.1 L 176.8 161 L 163.6 158.1 L 152.6 154.1 L 144 148.9 L 139 143.9 L 137.7 139.2 L 133.3 135.5 L 125.7 132.6 L 120.3 127.8 L 115.8 117.9 M 116.5 117.9 L 88.5 101.6 L 78.4 91.9 L 77 83.4 L 67.5 77.6 L 49.8 74.6 L 28.2 73.4 L 2.6 74.2 L -14 70.4 L -21.6 62 L -30.5 57 L -40.8 55.5 L -47.2 52.6 L -49.7 48.5 L -49.6 43.5 L -47 37.5 L -39.9 30.7 L -22.5 19.2 L -15.8 12.7 L -13.1 -0.8 L -11.9 -23.6 L -22.1 -39.8 L -43.6 -49.3 L -62 -54.6 L -77.3 -55.4 L -90.1 -58.8 L -100.4 -64.7 L -107.3 -66.8 L -111 -65.2 L -123.1 -70.5 L -143.9 -82.7 L -157.2 -88.9 L -166.1 -89.2 L -186.6 -94.1 L -198.3 -95.1 L -208.2 -93.7 L -222.7 -96.6 M -222.7 -96.6 L -251.4 -107.6 L -255.2 -109.2 L -242.6 -108.8 L -233 -107.3 L -226.4 -104.9 L -222.7 -96.6" />
<path class="river" d="M 741.5 685.9 L 740.2 720.5 L 739.9 722.5 L 738.6 729.7 L 732.7 732.9" />
<path class="river" d="M 599.4 307.1 L 624.4 316.4 L 635.3 318.2 L 642.8 314.4 L 656.6 308.1 L 665.6 301 L 674.6 291.1 L 675.7 281.6 L 668.7 272.6 L 666.3 263.6 L 668.6 254.7 L 661.3 243.6 L 644.6 230.5 L 636.6 220.6 L 637.2 213.9 L 634.4 207 L 628.1 199.9 L 615.2 193.5 L 581.1 182.4 L 571.4 177.4 L 564.8 172.3 L 561.3 167.1 L 553.1 162.1 L 533.7 155.2 L 517.7 144.6 L 503.4 141.9 L 485.5 143.8 L 474.7 142.8 L 471.2 139.1 L 470.9 135.1 L 473.8 130.9 L 474.7 123.6 L 473.4 113 L 467.4 104.6 L 456.8 98.4 L 447.3 95.7 L 438.8 96.6 L 425.2 94.2 L 406.2 88.4 L 397.7 81 L 399.7 72 L 396.5 64.7 L 388.3 59.3 L 360.1 55.5 L 287.8 52.1 L 281.6 48.4 L 280.3 44.1 L 281.7 37.8 L 278.9 33.2 L 271.9 30.2 L 267.4 26.2 L 265.2 21.2 L 266.9 13.4 L 272.3 2.8 L 260.8 -10 L 232.4 -24.9 L 218.8 -35.4 L 219.9 -41.3 L 225.9 -46.7 L 236.7 -51.6 L 245 -60.2 L 253.4 -78.7 L 268.1 -97.2 L 272.2 -106 L 271.3 -112.4 L 268.4 -118.4" />
<path class="river" d="M 756.8 553.4 L 760.2 558 L 760.9 560.3 L 760.4 562.9 L 755.9 567.3 L 747.4 575.9 L 744.6 584.1 L 747.2 590.1 L 747.6 594.9 L 743.2 602.3" />
<path class="river" d="M 878.8 686.5 L 868.8 696.9 L 866.6 699.9 L 866.3 702.2 L 867.9 706.7 L 867.3 709.7 L 866 711.8 L 868 714.9 L 870.7 718.4 L 872.8 723.5 L 872.6 727 L 870 728.8 L 870.7 733.1 L 874.6 739.2 L 874.1 743.1 L 871.3 745.1 L 868.5 748.9 L 867 755.2 L 870.7 762.6 L 879.8 771.4 L 883.6 777.1 L 882.1 779.7 L 884.5 786.1 L 890.9 796.2 L 892.9 803.1 L 890.1 810.4" />
<path class="river" d="M 1006.2 493.9 L 988.2 496.2 L 979.7 502.9 L 974.6 514.9 L 954.3 530.6 L 918.8 550.3 L 902.9 564.2 L 906.7 572.5 L 905.8 576.5 L 900.4 576.2 L 892.7 579.6 L 882.6 586.5 L 878.4 592.9 L 879.9 598.7 L 883.1 601.8 L 880.3 604.8 L 876.2 608.1 L 875 612.6 L 872.9 615.5 L 866.5 619.7 L 868 626.5 L 877.4 636 L 880.2 643.8 L 876.5 649.8 L 877.1 660.4 L 881.9 675.7 L 883 684.2 L 878.8 686.5 M 1323.6 461.7 L 1332.5 464.8 L 1331.9 471.3 L 1321.2 487.8 L 1314.2 501.7 L 1295.9 503.8 L 1263.9 498.7 L 1238.6 491.4 L 1220 482 L 1202.5 480 L 1186.1 485.3 L 1174 486.8 L 1166.4 484.7 L 1154 485.1 L 1136.9 488.3 L 1123.3 486.4 L 1113 479.5 L 1107.6 470.2 L 1107.3 458.6 L 1105.2 452.4 L 1101.4 451.6 L 1092 456 L 1077.1 465.8 L 1063.2 472.6 L 1050.2 476.6 L 1037.8 478.3 L 1026.2 477.8 L 1019.1 480.9 L 1016.8 487.8 L 1013 492 L 1005.4 493.9" />
<path class="river" d="M 737 317.5 L 727.1 298.5 L 725.2 290.9 L 729.5 286.8 M 743.3 286.1 L 757.6 283.8 L 765.6 280.1 L 772 274.1 L 788.2 273.6 L 814.2 278.7 L 843.1 278 L 891 268.1 L 916.2 263.7 L 929.7 258.2 L 939.8 250.2 L 955.7 245.1 L 977.3 243 L 1000 236.6 L 1023.5 225.7 L 1041.5 214.7 L 1053.9 203.5 L 1058.2 186.4 L 1054.6 163.3 L 1053.9 149 L 1056.2 143.5 L 1061.7 138.1 L 1070.4 133 L 1073.2 127.4 L 1070.2 121.3 L 1066.3 117.9 L 1061.6 117.4 L 1058.9 114.9 L 1058.3 110.4 L 1048.2 105.1 L 1028.7 98.9 L 1017.7 92.7 L 1015.3 86.3 L 1008.9 80 L 998.6 73.8 L 994.7 69.4 L 997.3 66.6 L 996.6 61.2 L 992.5 53.1 L 982.2 41.9 L 965.5 27.5 L 951.2 18.6 L 939 15 L 916.5 14.7 L 883.6 17.7 L 855.3 14.5 L 820 0.5 L 772.2 -9.8 L 745.8 -22.4 L 724.7 -40.8 L 699.8 -52.8 L 671 -58.4 L 662.9 -67.6 L 675.4 -80.6 L 691.6 -90.4 L 711.5 -97.1 L 721.8 -105.3 L 722.4 -115 L 725.9 -122.2 L 732.2 -126.7 L 736.1 -133.4 L 737.5 -142.3 L 736.3 -151.9 L 732.6 -162.4 L 734.2 -171.8 L 741 -180.1 L 744.7 -187.4 L 747.6 -195.8" />
<g class="city"><circle cx="462.7160912954407" cy="474.7844645389929" r="5" /><text x="474.7160912954407" y="478.7844645389929">Vienna</text></g>
<g class="city"><circle cx="759.0859692638539" cy="551.1502599860821" r="5" /><text x="771.0859692638539" y="555.1502599860821">Budapest</text></g>
<g class="city"><circle cx="910.1432070732562" cy="843.6668785521354" r="5" /><text x="922.1432070732562" y="847.6668785521354">Belgrade</text></g>
<g class="city"><circle cx="1298.9437463286881" cy="296.6341908779236" r="5" /><text x="1310.9437463286881" y="300.6341908779236">Lviv</text></g>
<g class="city"><circle cx="422.9302415878474" cy="736.8198495659267" r="5" /><text x="434.9302415878474" y="740.8198495659267">Zagreb</text></g>
<g class="city"><circle cx="544.7851383009796" cy="480.4510609869068" r="5" /><text x="556.7851383009796" y="484.4510609869068">Bratislava</text></g>
<g class="city"><circle cx="260.92490772841137" cy="708.9705838743023" r="5" /><text x="272.92490772841137" y="712.9705838743023">Ljubljana</text></g>
<g class="city"><circle cx="842.9308254636857" cy="796.7805193821423" r="5" /><text x="854.9308254636857" y="800.7805193821423">Novi Sad</text></g>
<text class="map-title" x="80" y="105">Hungary Physical Study Map</text>
<text class="map-subtitle" x="80" y="145">Landmark: Hungarian Parliament Building | Study terrain and water systems</text>
  <text class="footer" x="80" y="1036">Made with Natural Earth. Free vector and raster map data @ naturalearthdata.com.</text>
</svg>
