<?xml version="1.0" encoding="UTF-8"?>
<svg xmlns="http://www.w3.org/2000/svg" width="1600" height="1100" viewBox="0 0 1600 1100" role="img" aria-labelledby="title desc">
  <title id="title">Indonesia Political Study Map</title>
  <desc id="desc">Made with Natural Earth. Free vector and raster map data @ naturalearthdata.com.</desc>
  <defs>
    <linearGradient id="terrain" x1="0" x2="1" y1="0" y2="1">
      <stop offset="0%" stop-color="#6c8c53" />
      <stop offset="42%" stop-color="#d5c487" />
      <stop offset="72%" stop-color="#b88b5f" />
      <stop offset="100%" stop-color="#f1f5ee" />
    </linearGradient>
    <filter id="softShadow" x="-10%" y="-10%" width="120%" height="120%">
      <feDropShadow dx="0" dy="10" stdDeviation="12" flood-color="#0f172a" flood-opacity="0.16" />
    </filter>
    <style>
      .neighbor { fill: #ffffff; stroke: #94a3b8; stroke-width: 1.2; opacity: 0.72; }
      .country { fill: #f7f1df; stroke: #1f2937; stroke-width: 4; filter: url(#softShadow); }
      .admin1 { fill: none; stroke: #64748b; stroke-width: 1.1; stroke-dasharray: 6 7; opacity: 0.75; }
      .river { fill: none; stroke: #1d9bd1; stroke-width: 3; stroke-linecap: round; opacity: 0.88; }
      .lake { fill: #8ed1ea; stroke: #0ea5e9; stroke-width: 1.5; opacity: 0.8; }
      .city circle { fill: #ef4444; stroke: #ffffff; stroke-width: 2; }
      .city text, .terrain-label { fill: #172033; font: 700 24px system-ui, sans-serif; paint-order: stroke; stroke: #ffffff; stroke-width: 5; stroke-linejoin: round; }
      .map-title { fill: #0f172a; font: 800 46px system-ui, sans-serif; }
      .map-subtitle { fill: #475569; font: 600 24px system-ui, sans-serif; }
      .footer { fill: #64748b; font: 500 18px system-ui, sans-serif; }
    </style>
  </defs>
  <rect width="100%" height="100%" fill="#eaf3f8" />
  <rect x="40" y="40" width="1520" height="1020" rx="32" fill="#ffffff" opacity="0.54" />
  <path class="neighbor" d="M 1759.8 796.5 L 1759.8 804.1 L 1750 807.9 L 1740.1 811.2 L 1738.1 805.4 L 1745.8 802.2 L 1750.7 801.4 L 1759.8 796.5 Z M 1730.7 818.8 L 1734.6 816.3 L 1739.9 820.8 L 1737.4 828.9 L 1727.8 831 L 1719.2 829.1 L 1717.7 822.3 L 1723.7 816.9 L 1730.7 818.8 Z M -3825 795.8 L -3826.9 803.3 L -3828.2 804.1 L -3828.2 796.5 L -3825 795.8 Z" />
<path class="neighbor" d="M 1154.5 587.5 L 1181.4 598.2 L 1210.1 607.1 L 1220.8 615 L 1229.4 622.8 L 1231.8 632 L 1257.7 641.6 L 1261.4 649.8 L 1247.2 651.5 L 1250.6 661.8 L 1264.4 672 L 1274.5 688.4 L 1283.4 687.9 L 1282.8 694.8 L 1294.8 697.4 L 1290.1 700.4 L 1306.6 706.9 L 1304.9 711.4 L 1294.6 712.5 L 1290.8 708.5 L 1277.5 706.7 L 1261.8 704.4 L 1249.7 694.5 L 1240.9 685.9 L 1232.8 672.3 L 1212.6 665.6 L 1199.4 670 L 1190 675.1 L 1191.9 686.6 L 1179.8 691.9 L 1171.1 689.3 L 1155 688.7 L 1154.7 638.1 L 1154.5 587.5 Z M 1335.2 603.9 L 1341.1 608.9 L 1342.9 617 L 1338.1 621.1 L 1335.1 611.9 L 1331.5 605.9 L 1324.5 600.9 L 1315.7 594.2 L 1304.5 589.7 L 1308.8 585.9 L 1317.1 590.3 L 1322.4 593.7 L 1328.9 597.4 L 1335.2 603.9 Z M 1314.4 637.8 L 1305.9 641.6 L 1297.9 645.2 L 1289.7 645.2 L 1276.9 640.7 L 1268.1 636.3 L 1269.4 631.5 L 1283.3 633.8 L 1291.8 632.6 L 1294.1 625.1 L 1296.3 624.8 L 1297.9 633 L 1306.7 631.8 L 1311.1 626.5 L 1319.8 621 L 1318 611.8 L 1327.3 611.5 L 1330.5 614.1 L 1330.2 622.7 L 1325 632.2 L 1316.8 633.4 L 1314.4 637.8 Z M 1368.1 630 L 1372.8 633.5 L 1380.3 643.4 L 1387.6 648.6 L 1385.4 653 L 1381.1 654.5 L 1374.4 648.6 L 1367.6 638.7 L 1364.2 626.9 L 1366.4 625.4 L 1368.1 630 Z" />
<path class="neighbor" d="M 905.6 685.2 L 907.5 681.5 L 920.8 678 L 931.6 677.5 L 936.5 675.5 L 942.4 677.5 L 936.7 681.7 L 920.5 688.5 L 907.5 692.9 L 907.2 688.2 L 905.6 685.2 Z" />
<path class="neighbor" d="M 558.2 358 L 554.5 339.2 L 564.4 326.3 L 584.5 323.3 L 599.1 325.6 L 611.9 331.7 L 618.9 321 L 632.7 326.7 L 636.3 337 L 634.3 355.6 L 608.3 367.6 L 615.1 377 L 598.8 378.1 L 585.3 384.3 L 572.3 382.1 L 566 374 L 558.2 358 Z" />
<path class="neighbor" d="M 599.1 325.6 L 584.5 323.3 L 564.4 326.3 L 554.5 339.2 L 558.2 358 L 544.3 350.8 L 531 351.1 L 533.3 338.9 L 519.6 339 L 518.4 356.1 L 510 378.8 L 504.9 392.5 L 506 403.7 L 516.1 404.2 L 522.4 418.4 L 525.2 431.8 L 533.9 440.7 L 543.3 442.5 L 551.3 450.6 L 546.2 456.9 L 536 458.8 L 534.8 450.8 L 522.1 444 L 519.4 446.8 L 513.3 440.8 L 510.6 433.1 L 502.4 424.4 L 494.8 417 L 492.3 426.1 L 489.3 417.5 L 491 407.8 L 495.6 392.9 L 503.1 377 L 511.7 362.5 L 505.6 348.4 L 505.8 341.2 L 504.1 332.5 L 493.7 320.2 L 490 312.4 L 495.4 309.5 L 501 296 L 494.7 285.8 L 484.8 274.4 L 477.3 260.8 L 483.9 258 L 491 241.2 L 501.9 240.5 L 511 233.8 L 519.9 230.2 L 526.6 235 L 527.5 244.3 L 538 245 L 534.1 261.4 L 534.5 275.3 L 550.9 266 L 555.5 268.8 L 564.6 268.3 L 567.7 262.9 L 579.5 264 L 591.3 276.6 L 592.2 291.9 L 604.8 305.4 L 604.1 318.6 L 599.1 325.6 Z" />
<path class="neighbor" d="M 519.9 230.2 L 511 233.8 L 501.9 240.5 L 491 241.2 L 483.9 258 L 477.3 260.8 L 484.8 274.4 L 494.7 285.8 L 501 296 L 495.4 309.5 L 490 312.4 L 493.7 320.2 L 504.1 332.5 L 505.8 341.2 L 505.6 348.4 L 511.7 362.5 L 503.1 377 L 495.6 392.9 L 494.1 381.4 L 498.9 369.5 L 493.7 360.3 L 494.9 343.4 L 488.6 335.4 L 483.6 316.8 L 480.8 297.2 L 474.1 284.4 L 463.8 292.1 L 446.2 303.2 L 437.5 301.8 L 427.9 298.2 L 433.2 278.9 L 430 264.4 L 417.8 246.5 L 419.7 240.9 L 410.6 238.9 L 399.6 226.3 L 398.6 213.8 L 404 216.1 L 404.3 205 L 412 201.3 L 410.3 194.7 L 413.9 189.4 L 414.5 173.4 L 426.6 176.9 L 433.5 164.1 L 434.3 156.5 L 442.9 143.5 L 442.4 134.6 L 462.5 123.9 L 473.6 126.7 L 472.3 117.2 L 477.7 114.3 L 476.6 108.4 L 485.7 107.3 L 490.8 116.4 L 497.6 120.1 L 498.1 132 L 497.4 144.8 L 482.7 157.8 L 480.9 176.2 L 497.3 173.6 L 501 187.9 L 510.8 190.9 L 506.3 203.8 L 517.8 209.6 L 524.5 212.5 L 535.9 208 L 536.4 214.4 L 523.2 224.5 L 519.9 230.2 Z" />
<path class="neighbor" d="M 585.3 384.3 L 598.8 378.1 L 615.1 377 L 608.3 367.6 L 634.3 355.6 L 636.3 337 L 632.7 326.7 L 635.5 311.2 L 631.6 300.2 L 619.8 289.4 L 610 275.7 L 597.1 257.4 L 578.5 248.1 L 583 242.5 L 592.9 238.4 L 586.9 224.9 L 567.8 224.8 L 560.8 210.7 L 551.8 198.4 L 560.1 194.6 L 572.5 194.7 L 587.6 192.9 L 600.8 184.6 L 608.3 190.5 L 622.5 193.3 L 620 202.2 L 627.4 208.6 L 643 212.6 L 622.3 225.9 L 609.4 240.5 L 605.9 251.3 L 617.8 267.7 L 632.3 287.9 L 646.4 297.5 L 655.9 310 L 663 338.7 L 660.9 366 L 647.9 376.3 L 630.1 386.2 L 617.5 399.2 L 598.1 413.6 L 592.5 403.7 L 596.9 393.2 L 585.3 384.3 Z" />
<path class="neighbor" d="M 476.6 108.4 L 477.7 114.3 L 472.3 117.2 L 473.6 126.7 L 462.5 123.9 L 442.4 134.6 L 442.9 143.5 L 434.3 156.5 L 433.5 164.1 L 426.6 176.9 L 414.5 173.4 L 413.9 189.4 L 410.3 194.7 L 412 201.3 L 404.3 205 L 396.2 180.4 L 391.9 180.4 L 389.3 190.3 L 380.8 182.3 L 385.6 173.5 L 392.6 172.6 L 399.7 159.4 L 390.8 156.8 L 376.4 157 L 361.6 154.9 L 360.2 144.1 L 352.8 143.3 L 340.5 136.6 L 335.1 147.1 L 346.3 155.4 L 336.6 161.1 L 333.1 166.8 L 342.7 171 L 340 180.3 L 345.4 192 L 347.8 204.8 L 345.6 210.4 L 335 210.2 L 315.9 213.5 L 316.8 225.1 L 308.5 234.3 L 286.2 244.8 L 268.8 263 L 257.1 272.8 L 241.7 283 L 241.6 290.1 L 233.9 294 L 219.9 299.5 L 212.7 300.3 L 208 312.2 L 211.2 332.4 L 212.1 345.2 L 205.5 360 L 205.4 386.4 L 197.4 387.1 L 190.3 398.9 L 195 404.1 L 180.9 408.5 L 175.7 419 L 169.4 423.5 L 154.7 409 L 147.5 387.3 L 141.6 371.6 L 136.2 364.3 L 127.9 349.3 L 124.1 329.9 L 121.4 320.2 L 107.3 298.9 L 100.8 268.8 L 96.2 249 L 96.2 230.2 L 93.2 215.6 L 70.6 224.9 L 59.7 223.1 L 39.4 204.2 L 46.9 198.6 L 42.3 192.5 L 24.1 179.4 L 34.4 169 L 68.6 169.1 L 65.5 155.7 L 56.8 147.9 L 55 135.9 L 44.9 128.9 L 62 112.7 L 80 113.8 L 96.2 97.6 L 106 81.8 L 121 66.2 L 120.8 55.2 L 134 46.2 L 121.5 38.5 L 116.1 28 L 110.6 14.4 L 118.2 7.7 L 141.8 11.5 L 159.1 9.2 L 174.1 -3.8 L 190.7 14.4 L 189.2 27 L 195.3 35 L 194.8 42.9 L 183.7 40.8 L 188 57.9 L 203.3 67.8 L 224.9 78.6 L 215 85.7 L 209 100.2 L 224 106 L 238.7 113.7 L 258.9 122.4 L 280.2 124.4 L 289.1 132.3 L 301.1 133.8 L 319.8 137.4 L 332.7 137.1 L 334.5 131 L 332.5 121.1 L 333.7 114.4 L 343.1 111.2 L 344.4 123.4 L 344.8 126.5 L 358.9 132.4 L 368.6 130 L 381.7 131 L 394.4 130.5 L 395.5 121 L 389.2 116 L 401.7 114.1 L 415.8 102.6 L 433.7 92.7 L 446.7 96.5 L 457.8 90 L 465.1 99.6 L 459.8 106.1 L 476.6 108.4 Z" />
<path class="neighbor" d="M 1482.3 709.8 L 1486.6 715.2 L 1475.8 715.1 L 1469.9 705.5 L 1479.2 709.3 L 1482.3 709.8 Z M 1475.5 696.1 L 1473.1 699 L 1461.6 685.5 L 1458.4 676.3 L 1463.7 676.3 L 1469.3 688.7 L 1475.5 696.1 Z M 1462.6 700.4 L 1456.6 700.7 L 1447.1 699.1 L 1443.8 696.8 L 1444.8 690.6 L 1455 693 L 1460.1 696.3 L 1462.6 700.4 Z M 1443.8 671.6 L 1447.5 676.5 L 1448.1 679.7 L 1435.9 673.1 L 1427.5 667.5 L 1421.6 662.3 L 1423.9 660.7 L 1431.1 664.5 L 1443.8 671.6 Z M 1405 656.1 L 1411.2 661.2 L 1408.1 662.1 L 1401.3 658.5 L 1394.9 652.1 L 1395.7 649.6 L 1405 656.1 Z" />
<path class="neighbor" d="M 1258.3 1180.6 L 1267.6 1181.6 L 1268.7 1200 L 1263.4 1205.4 L 1261.8 1217.9 L 1256.4 1213.6 L 1245.6 1224.4 L 1242.4 1223.6 L 1232.8 1223.1 L 1223.3 1209.8 L 1221.1 1199.6 L 1212.2 1186.1 L 1212.6 1178.9 L 1222.7 1180.3 L 1237.7 1185.7 L 1246.2 1183.5 L 1258.3 1180.6 Z M 923.9 1047.2 L 907.5 1055.1 L 894 1058.7 L 891 1066.9 L 885.3 1073.2 L 872.1 1073.6 L 862.4 1074.9 L 848.7 1072.1 L 837.5 1073.8 L 826.9 1074.5 L 817.6 1082.8 L 813.1 1082.1 L 805.3 1086.5 L 797.9 1091.4 L 786.5 1090.8 L 776.1 1090.8 L 759.7 1080.9 L 751.3 1077.9 L 751.7 1069 L 759.4 1066.9 L 762 1063.4 L 761.4 1057.8 L 763.3 1047 L 761.6 1037.8 L 753.4 1022.1 L 750.9 1013.3 L 751.5 1004.4 L 745.3 994.3 L 744.9 989.8 L 738.1 983.6 L 736.1 971.4 L 727.3 959.1 L 725.1 952.5 L 731.9 959.2 L 726.7 944.8 L 734.4 949.3 L 739 955.3 L 738.7 947.4 L 731 935.2 L 729.6 930.3 L 726 925.6 L 727.6 916.7 L 730.8 912.8 L 732.9 905.1 L 731.3 896 L 737.7 884.8 L 738.9 896.6 L 745.4 886 L 758 880.8 L 765.6 874.2 L 777.5 868.5 L 784.5 867.2 L 788.8 869.2 L 801 863.4 L 810.4 861.7 L 812.8 858.3 L 816.9 856.8 L 825.5 857.2 L 841.8 852.7 L 850.2 845.8 L 854.2 837.5 L 863.3 829.6 L 864 823.4 L 864.4 815 L 875.3 801.8 L 881.8 815.2 L 888.4 812.1 L 882.9 804.7 L 887.8 797.2 L 894.6 800.6 L 896.5 788.8 L 905 781.1 L 908.7 775 L 916.5 772.4 L 916.8 768 L 923.6 769.8 L 923.9 765.9 L 930.7 763.7 L 938.2 761.6 L 949.7 768.7 L 958.3 777.9 L 968 778 L 977.9 779.5 L 974.6 771 L 982 758.5 L 989 754.5 L 986.6 750.6 L 993.3 741.7 L 1002.7 736.2 L 1010.7 738.1 L 1023.7 735.2 L 1023.4 727.2 L 1012.1 722.1 L 1020.3 719.9 L 1030.6 723.7 L 1038.8 730.1 L 1051.9 734 L 1056.4 732.5 L 1066 737.3 L 1075 732.8 L 1080.9 734.2 L 1084.5 731.2 L 1091.6 738.9 L 1087.5 747.2 L 1081.6 753.4 L 1076.3 754 L 1078.1 760.2 L 1073.5 767.9 L 1068 775.5 L 1069.1 779.9 L 1081.4 788.5 L 1093.4 793.5 L 1101.4 798.8 L 1112.6 808 L 1117 808 L 1125.1 812 L 1127.5 816.8 L 1142.3 822 L 1152.5 816.7 L 1155.6 808.4 L 1158.7 801.5 L 1160.7 793 L 1165.4 780.7 L 1163.2 773.1 L 1164.3 768.6 L 1162.5 759.7 L 1164.6 748.1 L 1167.6 744.9 L 1165.1 739.7 L 1168.9 731.5 L 1171.8 723 L 1172.2 718.5 L 1178 712.7 L 1182.4 720.3 L 1183.5 730 L 1187.3 731.9 L 1188 738.4 L 1193.6 746.3 L 1194.8 755.1 L 1194.2 760.8 L 1199.8 772.9 L 1209.8 767.1 L 1214.9 773.7 L 1222.4 779.7 L 1220.8 786.6 L 1224.1 799.9 L 1226.5 807.7 L 1230.4 809.6 L 1234.6 822.8 L 1233.1 830.9 L 1238.1 841.4 L 1254.9 849.5 L 1265.9 856.9 L 1276.3 863.6 L 1274.3 867.4 L 1283.1 877.1 L 1289.2 893.9 L 1295.4 890.5 L 1301.7 897.2 L 1305.5 894.9 L 1308.1 911.3 L 1319.2 920.8 L 1326.4 926.8 L 1338.5 939.3 L 1342.9 951.8 L 1343.3 960.7 L 1342.2 970.3 L 1349.6 983.5 L 1348.7 997.2 L 1346 1004.4 L 1341.8 1018.2 L 1342.1 1027.1 L 1339.1 1038.3 L 1332.2 1052.4 L 1320.7 1060 L 1315 1072 L 1309.9 1079.7 L 1305.3 1093.1 L 1299.3 1100.8 L 1295.3 1112.4 L 1293.3 1123.1 L 1294.1 1128 L 1285.2 1133.4 L 1267.9 1134 L 1253.5 1140.4 L 1246.4 1146.4 L 1237 1153 L 1224.2 1146.2 L 1214.7 1143.4 L 1217.1 1135.4 L 1208.6 1138.3 L 1195 1149.5 L 1181.6 1145.3 L 1172.8 1142.9 L 1163.9 1141.8 L 1148.9 1137.3 L 1138.8 1127.7 L 1136 1115.9 L 1132.3 1108.1 L 1124.7 1101.8 L 1109.8 1099.9 L 1114.9 1092.4 L 1111.1 1080.9 L 1103.5 1091.6 L 1089.7 1094.4 L 1097.9 1085.9 L 1100.2 1076.9 L 1106.2 1069.3 L 1105 1057.8 L 1092.3 1071 L 1082.6 1076.4 L 1076.7 1088.7 L 1064.6 1082.3 L 1065.1 1074.1 L 1055.3 1062.8 L 1047.2 1057 L 1050.1 1053.4 L 1030.2 1044 L 1019.2 1043.6 L 1004.3 1036 L 976.5 1037.5 L 956.4 1043 L 938.8 1048.2 L 923.9 1047.2 Z" />
<path class="neighbor" d="M 235.4 430.3 L 233 446.5 L 226.5 450.9 L 213 454.5 L 205.6 442.1 L 202.9 419.8 L 209.9 394.6 L 220.6 403.3 L 227.9 414.2 L 235.4 430.3 Z" />
<path class="neighbor" d="M 841.5 349.9 L 833.5 338.1 L 846.8 338.7 L 852.2 344.3 L 848.1 357.7 L 841.5 349.9 Z M 868.6 392.2 L 872.5 387.8 L 874.3 378.2 L 882.8 377.3 L 880.3 387.8 L 891.8 372.8 L 890.3 387.6 L 884.7 392.7 L 879.9 402.5 L 875 407.1 L 865.5 396.4 L 868.6 392.2 Z M 927.5 416.5 L 929.1 426.8 L 930 435.5 L 924.7 449.7 L 919 433.9 L 911.8 441.8 L 916.7 453.2 L 912.3 460.5 L 894 451.5 L 889.6 440.3 L 894.4 432.9 L 884.5 425.5 L 879.7 432 L 872.4 431.4 L 860.9 440 L 858.3 435.5 L 864.4 422.4 L 874.2 418 L 882.6 412.2 L 888.1 419.2 L 899.9 415 L 902.5 408 L 913.4 407.6 L 912.5 395.6 L 925.1 403 L 926.4 410.8 L 927.5 416.5 Z M 805.3 402.5 L 784.6 417.2 L 792.3 406.4 L 803.5 396.8 L 812.8 386.1 L 820.9 370.6 L 823.7 383.3 L 813.4 391.8 L 805.3 402.5 Z M 864.8 264.2 L 862.3 270.7 L 867.6 281.8 L 863.5 294.7 L 854.3 299.8 L 851.9 312.4 L 855.3 324.7 L 863.6 326.4 L 870.4 324.6 L 889.8 333.2 L 888.3 341.6 L 893.4 345.4 L 891.8 352.5 L 879.7 344.9 L 874 336.8 L 870 342.5 L 860.1 333.2 L 846 335.5 L 838.3 332 L 839.1 325.6 L 843.9 321.7 L 839.3 318.1 L 837.3 323.7 L 829.6 314.7 L 827.3 308 L 826.7 293.1 L 833 298.2 L 834.6 273.9 L 839.6 259.9 L 849 259.9 L 858.6 264.3 L 863.4 260.3 L 864.8 264.2 Z M 860.1 369.9 L 857.7 362.5 L 867.1 367.3 L 876.9 367.3 L 876.6 373.8 L 869.5 380.4 L 859.6 385.1 L 859 377.8 L 860.1 369.9 Z M 913.9 358.3 L 918.3 375.7 L 906.3 371.5 L 906.6 376.8 L 910.4 386.3 L 903 389.8 L 902.4 378.9 L 897.7 378.1 L 895.3 368.7 L 904.4 369.9 L 904.2 364.1 L 894.7 352.2 L 909.6 352.5 L 913.9 358.3 Z" />
<path class="neighbor" d="M 519.4 446.8 L 522.1 444 L 534.8 450.8 L 536 458.8 L 546.2 456.9 L 551.3 450.6 L 554.9 452 L 564 461.4 L 570.5 471.8 L 571.4 482.2 L 569.8 489.3 L 571.3 494.6 L 572.4 503.8 L 577.9 508.1 L 584 521.8 L 583.7 527.1 L 572.7 528.1 L 558 516.6 L 539.6 504.3 L 537.8 496.4 L 528.9 486 L 526.7 473.1 L 521.1 464.7 L 522.8 453.4 L 519.4 446.8 Z M 795.6 482.9 L 782.2 480.3 L 764.3 480.3 L 759 497.9 L 753 503.3 L 745 524.9 L 732.4 528.2 L 717.7 523.9 L 710.2 525.2 L 701.2 533.1 L 691.3 532 L 681.3 535.1 L 670.6 526.4 L 668.1 516 L 679.4 521.3 L 691.4 518.4 L 694.6 505.3 L 701.2 502.3 L 719.8 499 L 730.9 486.7 L 738.5 476.9 L 745.6 484.9 L 748.9 479.6 L 756.3 480.1 L 757.2 470.2 L 757.9 462.6 L 769.8 451.8 L 777.7 439.6 L 784 439.6 L 791.9 447.4 L 792.6 454.2 L 802.9 458.5 L 815.8 463.2 L 814.7 469.3 L 804.3 470 L 807.1 477.6 L 795.6 482.9 Z" />
<path class="neighbor" d="M 757.9 462.6 L 757.2 470.2 L 756.3 480.1 L 748.9 479.6 L 745.6 484.9 L 738.5 476.9 L 744.7 471.1 L 757.9 462.6 Z" />

<path class="country" d="M 1154.5 587.5 L 1154.7 638.1 L 1155 688.7 L 1141.2 675.9 L 1125.4 672.8 L 1121.6 677.2 L 1101.9 677.7 L 1108.5 665.1 L 1118.3 660.8 L 1114.2 643.9 L 1106.8 630.8 L 1076.7 617.7 L 1063.9 616.4 L 1040.6 602.1 L 1036 609.6 L 1030 611 L 1026.5 605.3 L 1026.5 598.5 L 1014.6 590.9 L 1031.3 585.3 L 1042.4 585.6 L 1041.1 581.5 L 1018.4 581.5 L 1012.2 572.2 L 998.4 569.4 L 991.8 561.7 L 1012.7 557.9 L 1020.7 552.9 L 1045.6 559.2 L 1048 565 L 1052.4 590.1 L 1068.4 599.4 L 1081.4 582.9 L 1099.2 573.6 L 1113 573.6 L 1126.3 579 L 1137.8 584.5 L 1154.5 587.5 Z M 905.6 685.2 L 907.2 688.2 L 907.5 692.9 L 897.4 704.5 L 884.1 707.9 L 882.2 706.1 L 883.6 700.8 L 890.3 691.3 L 905.6 685.2 Z M 1049.1 654.2 L 1047.6 642.5 L 1050.3 636.9 L 1053.6 631.6 L 1057.1 636.2 L 1057.1 643.6 L 1049.1 654.2 Z M 795.6 482.9 L 786.8 496.9 L 798.2 511.6 L 795.5 518.8 L 812.9 533.1 L 794.5 535 L 789.4 545.5 L 790 559.6 L 775.1 570.2 L 774.7 585.7 L 768.7 609.4 L 766.4 603.9 L 748.8 610.9 L 742.6 601.4 L 731.6 600.5 L 723.8 595.5 L 705.4 601.1 L 699.7 593.6 L 689.6 594.5 L 676.8 592.7 L 674.4 571.8 L 666.6 567.5 L 659.2 554.3 L 657 540.7 L 658.8 526.3 L 668.1 516 L 670.6 526.4 L 681.3 535.1 L 691.3 532 L 701.2 533.1 L 710.2 525.2 L 717.7 523.9 L 732.4 528.2 L 745 524.9 L 753 503.3 L 759 497.9 L 764.3 480.3 L 782.2 480.3 L 795.6 482.9 Z M 974 590.6 L 991 595.1 L 996.7 607 L 983.6 600.6 L 970.6 599.3 L 961.9 600.3 L 951.1 599.8 L 954.8 591.3 L 974 590.6 Z M 935.2 606 L 924.5 603.1 L 921.5 596.4 L 937.2 595.7 L 941 600.8 L 935.2 606 Z M 951.6 513.4 L 952.7 521.8 L 961.9 523.2 L 963.4 529.5 L 962.6 543.1 L 954.6 541.6 L 952.2 551 L 958.6 559.2 L 954.2 561.1 L 948 551.3 L 943.4 531.4 L 946.5 519 L 951.6 513.4 Z M 873.9 533.5 L 891.8 532.9 L 907.1 521.6 L 909.9 525.1 L 897.4 540.5 L 885.7 543.5 L 870.8 540.4 L 844.9 541.2 L 831.3 543.4 L 829.1 555.2 L 843 569 L 851.4 562 L 880.4 556.7 L 879.1 563.8 L 872.3 561.6 L 865.6 570.7 L 851.9 576.7 L 866.6 596.6 L 863.8 601.9 L 877.7 619.8 L 877.6 630 L 869.3 634.6 L 863.2 629.1 L 870.7 616.4 L 855.5 622.4 L 851.6 618.1 L 853.6 612.1 L 842.4 603 L 843.6 587.9 L 833.2 592.6 L 834.6 610.7 L 835.2 632.9 L 825.3 635.2 L 818.7 630.6 L 823.1 616.3 L 820.7 601.4 L 814.2 601.3 L 809.4 590.6 L 815.8 580.5 L 818 568.1 L 825.8 544.7 L 829.1 538.3 L 842.3 526.8 L 854.4 531.4 L 873.9 533.5 Z M 833.1 706.4 L 812.5 695.5 L 827 692.4 L 835.1 697.2 L 840.5 701.9 L 839.6 706.1 L 833.1 706.4 Z M 849.3 679.6 L 859.7 678.5 L 873.6 672.8 L 871.3 681.4 L 848 685.8 L 827.3 683.9 L 827.3 678.2 L 839.6 675 L 849.3 679.6 Z M 801.5 676.9 L 811.1 675.7 L 814.9 682.3 L 797 685.4 L 786.3 687.5 L 777.9 687.3 L 783.2 678.4 L 791.8 678.3 L 795.9 672.8 L 801.5 676.9 Z M 649.8 646.8 L 651.9 652.3 L 681.7 653.9 L 685.1 647.5 L 713.9 654.9 L 719.5 665 L 742.8 667.8 L 761.8 677.1 L 744.1 683 L 727.1 676.7 L 713 677.1 L 696.9 676 L 682.4 673.2 L 664.4 667.3 L 653 665.7 L 646.6 667.7 L 618.2 661.3 L 615.6 654.6 L 601.3 653.5 L 612 638.6 L 630.8 639.6 L 643.4 645.6 L 649.8 646.8 Z M 585.9 564 L 588.5 574.8 L 593.9 583.5 L 605.3 584.8 L 612.9 594.7 L 609 614 L 608.4 638 L 591.2 638.3 L 578.1 625.3 L 558.2 612.6 L 551.5 603.2 L 539.8 590.6 L 532.1 578.9 L 520.3 557.2 L 506.6 544.3 L 502.1 530.9 L 496.4 518.8 L 482.4 509 L 474.2 495.8 L 462.6 487.1 L 446.4 470 L 445 462.1 L 455 462.7 L 479 465.7 L 492.7 480.9 L 504.8 491.4 L 513.3 497.9 L 528 514.5 L 543.8 514.8 L 556.8 525.4 L 565.8 538.4 L 577.6 545.5 L 571.4 558.2 L 580.3 563.6 L 585.9 564 Z" />
<path class="admin1" d="M 444.2 455.4 L 444.8 455.6 L 446 455.9 L 446.1 456.4 L 446.1 456.9 L 445.8 457.3 L 444.8 457.1 L 443.8 455.7 L 444.2 455.4 Z M 476 513 L 476.6 513.8 L 476.7 514.9 L 476.6 515.3 L 475 513.6 L 473.2 512.7 L 473.9 512.5 L 475.4 512.7 L 476 513 Z M 462.5 508.1 L 462.9 508.9 L 463.1 509.6 L 463.2 510.5 L 462.2 510.6 L 461.3 510.3 L 460.5 509.4 L 456.3 506.8 L 455 506.8 L 454.1 506.1 L 453 505.9 L 451.8 504.2 L 451.6 503.3 L 452.4 502.8 L 453 501.9 L 454.4 502.3 L 455.9 504 L 457.6 504.6 L 458 504.9 L 458.8 505.8 L 462.5 508.1 Z M 488.4 513.1 L 487.1 512.4 L 485.8 512 L 483.8 511.7 L 482.4 510.5 L 481.8 508.4 L 481.4 505.6 L 481.1 503.9 L 480.7 502.9 L 477.6 500.9 L 476.4 499.4 L 475.3 497.6 L 474.4 496.3 L 471 491.6 L 469.8 490.4 L 468.4 489.6 L 464.1 488.7 L 462.9 487.9 L 460.8 485.2 L 459.5 483.9 L 455.8 480.9 L 449.4 474.8 L 448.1 473.2 L 447.2 471.6 L 446.4 469.9 L 443.7 465.1 L 443.9 464.1 L 444.3 463.1 L 444.2 462.3 L 443.9 461.5 L 444 460.7 L 444.8 460.3 L 446.6 459.8 L 448.5 459.8 L 450.2 460.1 L 451.9 460.5 L 453.5 461.5 L 456.4 464.1 L 458 464.9 L 459.9 465.4 L 463.6 466 L 465.5 466.1 L 469.1 465.3 L 471 465.3 L 472.8 465.9 L 474.5 466.3 L 478.5 465.8 L 479.3 466 L 480 466.3 L 480.6 466.9 L 482.5 468.9 L 485.6 471.4 L 486.5 473 L 487 474.8 L 487.3 475.2 L 490.9 478.6 L 491.3 480 L 491.1 480.6 L 489.9 480.5 L 488 481.3 L 487 485.3 L 485.3 486.4 L 485.4 487.4 L 483.7 489 L 484.6 491.6 L 485.7 493 L 485.6 493.8 L 486.9 495.4 L 484.9 496.6 L 486 498.4 L 485.4 499.3 L 485.8 502 L 487.9 503.5 L 488.1 505.6 L 487.4 507.1 L 488 509.2 L 489 511 L 488.4 513.1 Z" />
<path class="admin1" d="M 790.4 493.9 L 791.8 493.8 L 792.5 494.2 L 792.2 496.2 L 792 496.7 L 790.6 495.5 L 790.3 494.6 L 790.4 493.9 Z M 792 482.4 L 793.5 482.4 L 795.7 482.1 L 796.2 483.6 L 796.3 484.2 L 793.4 485 L 791.6 483.1 L 792 482.4 Z M 738.6 524.4 L 739.6 524.3 L 741.4 523.8 L 743.3 524.6 L 743.8 524.4 L 744.2 523.6 L 745.2 522 L 745.6 520.9 L 746 518.9 L 746.3 518.4 L 747 518.1 L 747.8 517.7 L 748 517.1 L 748.3 516.4 L 748 515.8 L 747.6 515.3 L 747.2 513.6 L 747.3 512.8 L 747.6 512.2 L 748.4 511.9 L 750.4 510.6 L 752.2 509.2 L 753.2 508.4 L 753.7 508 L 753.7 507.3 L 752.9 506.6 L 752.1 506.2 L 752.1 505.4 L 752.1 504.9 L 752.4 504.3 L 752.2 503.8 L 752.2 503 L 752.7 502.2 L 753.8 501 L 754.7 500.2 L 755.7 500.7 L 756.9 500.4 L 757.9 500 L 758.6 498.6 L 758.6 497.9 L 758.5 497.3 L 758.9 495.2 L 759 494.9 L 759.7 493.6 L 759.8 492.8 L 759.3 490.7 L 759.6 489.2 L 759.7 486 L 760.1 485.4 L 760.6 483.8 L 761.4 482 L 763 481.1 L 763.9 479.9 L 764.3 479.6 L 764.8 479.6 L 766.8 480.5 L 768.5 479.5 L 770.1 479.4 L 771.4 479.5 L 772.1 480 L 772.9 480.3 L 774.4 479.3 L 775 479.5 L 775.6 479.8 L 776.3 479.8 L 777.3 479.5 L 779.5 479.8 L 783.5 479.8 L 786.2 480.4 L 788.9 482 L 790.3 482.4 L 790.9 482.4 L 790.7 482.5 L 789.7 483 L 789.2 483.9 L 790.6 485.2 L 790.7 486.1 L 791.9 486.9 L 793.2 488.2 L 793.3 488.6 L 793.8 489.2 L 794 489.9 L 793 490.5 L 791.7 490.7 L 790.7 490 L 789.9 489.2 L 789.6 490.2 L 788.9 490.8 L 786.4 490.6 L 784.6 490.6 L 782.8 490.9 L 783.7 491 L 784.5 491.4 L 787.3 493.9 L 787.9 494.9 L 786.9 496.8 L 787.4 497.6 L 788.5 498 L 789.8 498.9 L 790.7 499 L 791.4 499.6 L 791.4 500.5 L 791.8 501.3 L 790.8 501.7 L 791.8 501.9 L 792.8 502.3 L 792.3 502.7 L 791.9 503.3 L 792.3 503.6 L 793.6 504 L 794.1 504.5 L 794.4 505.7 L 795.7 507.7 L 798 510.2 L 798.5 511.1 L 798.5 512 L 798.1 512.7 L 796.8 513.6 L 795.7 514.7 L 795.6 515.1 L 794.2 515.7 L 794.8 516 L 795.4 516.6 L 796.4 518.1 L 798.7 520.7 L 799.9 521.7 L 804.8 525.1 L 807.4 526.7 L 810.7 530.1 L 812.4 530.9 L 812.8 531.9 L 811.3 533.4 L 809.2 534.1 L 805.8 534.5 L 802.3 534 L 800.5 533.6 L 798.9 532.7 L 797.7 531 L 796.1 530.1 L 796.7 531.1 L 797.1 532.2 L 796.9 533.3 L 796.3 534.2 L 795.2 534.9 L 794 535.4 L 793.5 535.8 L 790.5 541.8 L 790 543.5 L 789.1 550.2 L 789.1 552.1 L 790.5 555.7 L 790.6 557.6 L 790.8 558.4 L 790.7 559.1 L 790 559.5 L 787.5 560.6 L 785.7 561.5 L 784.2 562.8 L 783 564.4 L 782 565.6 L 780.6 566.1 L 779.6 566 L 778.8 565.5 L 778.2 564.5 L 777.9 563.3 L 777.7 564.2 L 777.7 565 L 778.2 565.9 L 778.4 566.8 L 778.1 567.7 L 777.5 568.5 L 775.9 569.3 L 775 570 L 774.9 571.2 L 774.5 571.9 L 773.8 572.5 L 771.6 573.7 L 771.1 574.2 L 770.7 574.8 L 771.9 574.7 L 773 574.8 L 773.1 576.1 L 773.4 577 L 773 579 L 771.3 580.3 L 772.1 580.6 L 772.9 581.1 L 774.6 581.4 L 775.2 582.8 L 775.1 583.7 L 772.5 583 L 767.1 582.6 L 766.3 582.4 L 764.5 583.6 L 763.5 581 L 763.8 578.9 L 762.5 578.2 L 762.4 574.8 L 761.6 572.5 L 760.3 569.9 L 761.4 569.3 L 762.1 569.3 L 763.3 567.2 L 763.4 564 L 762.4 564.3 L 760.7 562.3 L 758.9 561.7 L 758 560.9 L 757.3 559.1 L 756.8 556.2 L 756 555.1 L 755.2 552 L 755.2 550.5 L 756.3 547.1 L 755.2 546.6 L 753.8 547 L 752.2 548.9 L 750.9 549.9 L 750.4 548.6 L 751.2 546.2 L 750.2 542.7 L 750.4 541.5 L 752.1 538.9 L 751.8 537.2 L 750.5 535.7 L 746.8 536.7 L 745.7 537.5 L 741.2 538 L 738.2 537 L 735.9 537.1 L 734.9 537.8 L 731.9 538.5 L 734.1 535.7 L 734.6 533.7 L 733.2 533.1 L 733.3 532 L 735.7 530.4 L 738.4 528.3 L 738.6 524.4 Z" />
<path class="admin1" d="M 626.5 640.7 L 626.9 640.4 L 627.4 638.8 L 629.2 639.6 L 631.9 639.9 L 632.5 640.4 L 634.1 642.1 L 635.5 643.1 L 637.1 643.6 L 638.8 643.7 L 640.4 643.9 L 642.4 644.6 L 644.4 644.9 L 645.3 644.7 L 646.2 644.4 L 646.8 644.4 L 647.4 644.7 L 648.7 646.2 L 650.2 647.6 L 650.6 648.3 L 651.6 651.6 L 652.8 652.5 L 654.3 652.8 L 656.2 652.8 L 654.7 654.8 L 654.5 656.7 L 653 658 L 651.5 658 L 650.7 660.1 L 653.2 661.8 L 653.8 664.1 L 653.6 665.2 L 654.6 666.1 L 653.7 666.1 L 651.1 666.8 L 650.3 667.2 L 649.3 668.2 L 647.4 668.1 L 645.7 667.9 L 641 667 L 639.2 666.5 L 637.5 665.6 L 636 664.6 L 635.2 664.2 L 631.1 663.1 L 627.8 662.7 L 621 662.2 L 619.5 661.9 L 618.3 661.5 L 617.6 660.6 L 617.7 659.5 L 618.2 658.5 L 618.8 657.5 L 619.3 656.6 L 617.4 655.9 L 618.2 653.2 L 619.1 652.4 L 617.8 651.1 L 617.5 648.4 L 617.9 647.1 L 617.7 646 L 619.9 645.8 L 621 646.2 L 622.7 646.3 L 623 644.9 L 625.5 646.2 L 626.5 643.9 L 626.5 640.7 Z" />
<path class="admin1" d="M 688 674.7 L 686.4 674.5 L 685.7 673.2 L 685.5 669.3 L 685 668.7 L 682.3 668.5 L 681.1 667.9 L 680.1 664.6 L 678 666.2 L 675.4 666.3 L 675.1 667.6 L 673.9 669.6 L 671 668.6 L 662.1 666.7 L 660.8 666.6 L 657.6 666.7 L 655.5 666.1 L 654.6 666.1 L 653.6 665.2 L 653.8 664.1 L 653.2 661.8 L 650.7 660.1 L 651.5 658 L 653 658 L 654.5 656.7 L 654.7 654.8 L 656.2 652.8 L 658 652.9 L 662.3 653.7 L 664 653.6 L 665.5 652.8 L 666.9 653.3 L 670.5 654.3 L 672.3 654.5 L 674.3 654.2 L 676.4 654.2 L 677.3 654.4 L 678.3 654.8 L 679.1 655 L 679.9 655 L 681.4 654.2 L 682.3 652.8 L 683.1 651 L 683.7 649.1 L 684.2 648.3 L 684.7 647.6 L 685.5 647.1 L 686.2 646.8 L 688.4 647 L 688.8 647.5 L 691.2 650.6 L 691.6 650.9 L 694.1 651.1 L 694.8 651 L 696.3 650.4 L 697.2 650.3 L 698.8 651.1 L 699.3 651.6 L 698.6 652.7 L 698.1 655.2 L 698.2 658.2 L 695.9 660 L 695.7 660.6 L 692.2 659.7 L 691.9 660.6 L 691.7 664 L 692.2 665.3 L 691.8 666.8 L 692.9 667.1 L 693.6 668.8 L 692.3 670.3 L 690.3 671.4 L 688.3 673.1 L 688 674.7 Z" />
<path class="admin1" d="M 554.9 630.4 L 555.4 631 L 554.8 632.2 L 553.5 632.2 L 551.2 630.3 L 550.8 629.7 L 551.5 629.2 L 552.2 629.2 L 554.9 630.4 Z M 573.8 623.6 L 570.9 621.9 L 569.8 621.1 L 568.3 619.7 L 566.8 618.5 L 563.4 616.5 L 557.5 611.6 L 554.9 608.7 L 552 604.2 L 551.1 603 L 546.3 599.6 L 543.7 597.5 L 542.6 596.3 L 540 592.1 L 539.3 590.7 L 538.3 589.5 L 536.8 588.5 L 535.4 587.3 L 534.1 585.5 L 536.2 583.9 L 538.8 582.8 L 540.3 581.8 L 541.6 582.9 L 542.3 585.2 L 545 588 L 547.6 589.7 L 548.5 589.6 L 550.1 590.3 L 552.6 593 L 552.9 594.6 L 555.8 595.1 L 556.7 596 L 556.3 597.6 L 557.8 599 L 558.9 599.5 L 561 598 L 562.6 599.5 L 564.2 599.8 L 564.9 601.2 L 564.5 602.8 L 563 603.5 L 560 606 L 558.9 606.3 L 561 608.6 L 562.2 609.2 L 563.2 609.1 L 564.3 609.8 L 566.3 609.5 L 566.8 609.9 L 567.5 613 L 570.7 614.4 L 574.2 615.7 L 574.3 617.1 L 575.4 619.1 L 575.8 621 L 576.5 621.7 L 573.8 623.6 Z" />
<path class="admin1" d="M 597.6 649.8 L 598.7 648.7 L 599.2 648.5 L 599.7 648.4 L 600 649 L 599.6 650.2 L 598.6 650.5 L 597.9 650.2 L 597.6 649.8 Z M 617.4 655.9 L 614.3 654.7 L 610.3 653.6 L 608.6 653.4 L 606.9 653.4 L 605 653.6 L 603.1 653.5 L 602.2 653.2 L 601.3 653.1 L 600.4 653.3 L 599.6 653.2 L 599.4 652.3 L 599.9 651.6 L 600.9 650.7 L 601.4 650.6 L 601.7 651.9 L 602 652.2 L 602.8 652.5 L 603.2 652.4 L 604.7 650.7 L 605.1 649.8 L 605.8 647.5 L 606.6 648 L 607.4 647.7 L 607.9 647.4 L 609.2 642.1 L 610.2 640.5 L 611.6 639.2 L 612.4 638.9 L 613.8 639.7 L 616.6 640 L 618.3 640.5 L 620 640.6 L 621.7 640.9 L 622.5 641.2 L 621.8 641.8 L 622.1 643.5 L 623 644.9 L 622.7 646.3 L 621 646.2 L 619.9 645.8 L 617.7 646 L 617.9 647.1 L 617.5 648.4 L 617.8 651.1 L 619.1 652.4 L 618.2 653.2 L 617.4 655.9 Z" />
<path class="admin1" d="M 622.5 641.2 L 624 641.8 L 624.8 641.7 L 625.7 641.4 L 626.5 640.7 L 626.5 643.9 L 625.5 646.2 L 623 644.9 L 622.1 643.5 L 621.8 641.8 L 622.5 641.2 Z" />
<path class="admin1" d="M 655.9 571 L 657.1 571.4 L 657 572.3 L 655.2 572.9 L 654.7 571.5 L 655.9 571 Z M 668.6 562.8 L 669.3 563.3 L 669.6 564.3 L 669.4 564.9 L 668.8 565.5 L 665.7 567 L 665 567 L 664.4 566.4 L 664.8 563.3 L 665.2 562.4 L 667.3 562.3 L 668.6 562.8 Z M 738.6 524.4 L 738.4 528.3 L 735.7 530.4 L 733.3 532 L 733.2 533.1 L 734.6 533.7 L 734.1 535.7 L 731.9 538.5 L 729.9 540.8 L 729.5 542.3 L 728.1 543.1 L 726.3 542.9 L 724.9 543.3 L 726.9 546.1 L 727.3 547.9 L 726.5 550.1 L 724.9 551 L 723.7 552.7 L 724.5 553.7 L 723.8 555.7 L 722.4 554.4 L 721.2 555.2 L 719.9 555.2 L 716 557 L 713.3 558.1 L 712 558 L 710.2 558.8 L 706.2 558.5 L 705.2 559.5 L 703.8 559.9 L 698.9 562.9 L 697.9 564.2 L 697.8 565.5 L 695.3 566.8 L 693.9 568.4 L 692.6 569.2 L 690.9 570.9 L 689 570.8 L 687.6 572.2 L 689.1 572.9 L 689.2 576.1 L 688.7 577.9 L 689 580.1 L 690.9 584.5 L 690.9 589.5 L 689.8 590 L 687.2 592.3 L 685.9 592.7 L 684.7 593.5 L 684.2 594 L 683.7 593.8 L 682.2 592 L 679.1 592.7 L 678.7 592.9 L 678 593.5 L 677.3 593.2 L 676.9 592.5 L 676.8 588.9 L 675.2 581.8 L 674.8 578.2 L 674.4 577.3 L 672.7 576 L 672.7 574.2 L 673.6 572.6 L 673.8 570.8 L 673.6 568.8 L 673 566.9 L 672.3 565.5 L 671.3 564.2 L 670 562.8 L 668.3 561.8 L 664.8 560.6 L 662.9 560.7 L 662.2 560.3 L 661.8 559.7 L 662 558.5 L 662.6 557.7 L 663.4 557.5 L 663.5 557 L 661.8 556.1 L 660.3 554.8 L 659.8 554 L 659.6 553.2 L 659.7 551.2 L 660.1 550 L 660.3 549.3 L 660.8 547.3 L 661.8 546.6 L 661.6 546.3 L 661.2 546 L 660.6 545.3 L 660.1 544.5 L 658.9 543.2 L 656.9 541.6 L 656.6 538.9 L 656.3 534.8 L 656.5 533 L 657.1 529.5 L 658.2 528.4 L 659.1 528.1 L 659.8 527.7 L 659.3 527.6 L 658.8 527.8 L 657.9 527.9 L 658.6 524.8 L 658.9 523.9 L 660.4 522.2 L 662 520.7 L 662.7 518.9 L 663.6 517.3 L 667.5 515.7 L 666.1 517.7 L 666.3 518.4 L 666.6 519.1 L 667.6 519.5 L 667.9 522.1 L 669.2 523.5 L 670.5 524.8 L 671.4 525.4 L 672.4 526.4 L 673.2 527.2 L 673.9 527.9 L 675.1 528.7 L 678.2 531.7 L 679.5 532.5 L 680.4 533.4 L 681.1 533.7 L 682.8 533.5 L 687.8 531.3 L 688.7 531.2 L 690.4 530.8 L 693.3 530.9 L 696.3 531.7 L 697.3 531.7 L 698.2 531.3 L 699.5 531.4 L 700.8 531.6 L 701.4 531.4 L 703.1 529.8 L 705.5 529.4 L 706.3 527.8 L 706.9 526.4 L 707.2 524.8 L 708.2 524.2 L 709.6 523.6 L 711.7 522.9 L 719 522.8 L 719.7 523.1 L 719.8 523.9 L 719.7 524.5 L 720 524.9 L 720.9 524.9 L 721.8 525.3 L 725.4 526.5 L 727 526.9 L 727.8 526.8 L 729.5 527.9 L 730.4 527.6 L 731.7 526.8 L 732.8 525.7 L 733.9 524.9 L 735.4 524.5 L 737.3 524.6 L 738.6 524.4 Z" />
<path class="admin1" d="M 608.6 611.7 L 609.4 617.8 L 609.5 619.5 L 609.3 621.5 L 609.4 624.9 L 608.3 635.2 L 608.1 635.9 L 607.3 637.4 L 606.2 637.4 L 605.3 637.1 L 604.6 636.5 L 604.3 635.8 L 603.8 635.2 L 601.1 633.3 L 600.4 633.6 L 597.7 636 L 596.9 636.3 L 596 636 L 594.6 635.3 L 590.1 632.8 L 589.8 633.6 L 589.7 634.7 L 590.6 637.4 L 590.8 638.6 L 589.9 638.8 L 589.5 638.8 L 587.6 637.2 L 585.9 635.5 L 583.9 633.1 L 582.5 632 L 581.2 630.7 L 577.5 626 L 576.6 625.2 L 573.8 623.6 L 576.5 621.7 L 577.9 622.5 L 578.4 623.7 L 581.4 623.9 L 583.4 623.1 L 584.8 623.1 L 585.4 621.9 L 584.3 620.2 L 584.9 619 L 584.7 616.9 L 584.9 616 L 586.3 615.5 L 588.3 614.2 L 590.6 613.8 L 593.2 612.6 L 595.8 611.8 L 597.4 610.1 L 597.7 608.5 L 599.8 607.4 L 600.5 605.4 L 603.6 607.2 L 606.7 611.5 L 608.6 611.7 Z" />
<path class="admin1" d="M 588.2 574 L 588.2 575.4 L 589 577 L 590.7 578 L 592.4 578.8 L 593.3 579.6 L 593.3 580.8 L 593 581.8 L 592.4 582.6 L 590.5 584.2 L 590.2 584.8 L 589.9 586.6 L 590.3 587.4 L 591 587.5 L 591.6 587 L 593.8 584.7 L 594.4 584.3 L 595.2 583.9 L 596.1 583.7 L 600.1 583.7 L 601.8 584.1 L 603.4 584.8 L 604.7 585.8 L 609.6 591.9 L 611.9 595.3 L 612.1 596.2 L 612.1 597.1 L 611.7 597.7 L 609.7 600.1 L 609.4 600.7 L 608.8 603.2 L 608.9 605 L 609.6 605.8 L 610.1 606.6 L 610.1 607.4 L 608.7 611.1 L 608.6 611.7 L 606.7 611.5 L 603.6 607.2 L 600.5 605.4 L 599.8 607.4 L 597.7 608.5 L 597.4 610.1 L 595.8 611.8 L 593.2 612.6 L 590.6 613.8 L 588.3 614.2 L 586.3 615.5 L 584.9 616 L 584.7 616.9 L 584.9 619 L 584.3 620.2 L 585.4 621.9 L 584.8 623.1 L 583.4 623.1 L 581.4 623.9 L 578.4 623.7 L 577.9 622.5 L 576.5 621.7 L 575.8 621 L 575.4 619.1 L 574.3 617.1 L 574.2 615.7 L 570.7 614.4 L 567.5 613 L 566.8 609.9 L 566.3 609.5 L 564.3 609.8 L 563.2 609.1 L 562.2 609.2 L 561 608.6 L 558.9 606.3 L 560 606 L 563 603.5 L 564.5 602.8 L 564.9 601.2 L 564.2 599.8 L 562.6 599.5 L 561 598 L 558.9 599.5 L 557.8 599 L 556.3 597.6 L 556.7 596 L 555.8 595.1 L 552.9 594.6 L 552.6 593 L 550.1 590.3 L 552.7 588.8 L 553.1 588.1 L 555.3 589.2 L 556.7 589.5 L 558.4 589.2 L 558.7 588.6 L 561.4 587 L 562.5 585.3 L 562.5 583.7 L 566.5 584.3 L 567.8 583.8 L 567.3 582.6 L 568 581.1 L 568.9 581.4 L 569.3 582.6 L 571.1 584.3 L 571.8 583.6 L 571.8 581.9 L 572.8 581.7 L 572.9 577.7 L 578.4 575 L 579.5 574.9 L 582.1 575.5 L 585.1 575.1 L 586 573.7 L 586.8 573.4 L 588.2 574 Z" />
<path class="admin1" d="M 633.4 592.5 L 633.1 592.1 L 633 591.7 L 633.2 591.2 L 634.1 591.1 L 634.5 591.3 L 634.1 592.1 L 633.4 592.5 Z M 623.6 592.1 L 625.3 592.7 L 625 593.8 L 624.7 594.1 L 623.8 593.9 L 623.2 593.5 L 622.8 593.1 L 622.7 592.6 L 623.6 592.1 Z M 645.6 589 L 646.8 591.1 L 645.5 593.7 L 645.2 595.3 L 644.8 595.9 L 643.5 596.7 L 643.1 597.2 L 641.9 597.1 L 641.7 596.3 L 641.3 595.7 L 640 595 L 639.7 595.2 L 639.5 596.2 L 637 596.9 L 636.3 596.9 L 636.6 595.6 L 636 594.6 L 635.9 593.3 L 635.8 592.8 L 635.5 592.5 L 636.1 591.6 L 636 590.6 L 636.7 589.5 L 637.1 587 L 639.7 586.4 L 640.3 586.9 L 643.4 587.4 L 645.6 589 Z M 616.9 585.4 L 623.9 587.1 L 622.7 587.8 L 622.2 588.4 L 621.7 589.1 L 620.7 592.1 L 620.8 592.7 L 621.4 593.7 L 621.6 594.8 L 620.7 594.8 L 619.7 594.6 L 618.9 594.1 L 618.2 593.6 L 617.4 593.2 L 616.5 592.9 L 615.1 592 L 613.2 591.4 L 611.2 591 L 610.2 589.7 L 609.8 588.2 L 610.3 585.8 L 609.8 585.2 L 609.1 584.6 L 608.2 582.9 L 607.9 581 L 606.6 580.2 L 605 579.8 L 604.3 579.4 L 601 580.1 L 600.2 579.9 L 599.5 579.4 L 597.7 578.8 L 597.8 577.7 L 598.6 576.9 L 600.6 576 L 601.5 575.3 L 601.7 574.3 L 601.3 573.6 L 601.5 572.8 L 602.1 572.1 L 602.8 571.6 L 604.8 570.8 L 605.6 572.1 L 606 573.2 L 606.6 574 L 607.4 572.9 L 606.9 570.9 L 608.3 570.5 L 609.8 570.5 L 610.9 571 L 611.6 571.9 L 611.9 573 L 612.4 574.1 L 613.2 575.1 L 613.7 576.1 L 614.4 581.1 L 616.9 585.4 Z" />
<path class="admin1" d="M 758.4 682.4 L 759.3 681.8 L 759.6 681.7 L 760.4 682.4 L 760.4 683.3 L 759.9 683.8 L 758.7 682.8 L 758.4 682.4 Z M 759.4 674.5 L 761.6 676.9 L 761.8 677.6 L 761.2 678.3 L 759.6 679.3 L 756.1 680.9 L 755.5 681.6 L 754.7 683.1 L 754.6 683.7 L 754.3 684 L 753.9 684.3 L 753.1 684.5 L 752.3 684.2 L 753.1 683.2 L 753.1 682.1 L 752.5 681.1 L 751.8 680.2 L 750.2 679 L 748.4 678 L 746.7 677.4 L 744.9 677.2 L 744.2 676.7 L 743.2 675.4 L 742.8 674.6 L 742.6 673.9 L 742.8 673.2 L 743.2 673.1 L 745 673.3 L 748.3 674.1 L 749.9 674.2 L 750.9 674 L 753.3 672.3 L 753.9 672.3 L 756.2 673.1 L 757.8 673.7 L 759.4 674.5 Z" />
<path class="admin1" d="M 713.4 637.2 L 714.4 636.1 L 715 636 L 715.6 636.4 L 715.5 637.3 L 715.2 637.9 L 713.7 637.8 L 713.4 637.2 Z M 720.9 653.9 L 735 653.8 L 736.5 655.2 L 736.7 655.6 L 733.6 656.5 L 733 657.4 L 732.7 657.6 L 730 657.5 L 728.3 658.8 L 727.2 659.2 L 722.9 659.2 L 722.4 659 L 722.1 659 L 721.8 659.3 L 720.5 659.1 L 716.2 657.9 L 715.6 656.9 L 716.3 655.8 L 717.8 654.2 L 720.9 653.9 Z M 740 657.3 L 740.4 657 L 740.8 656.9 L 741.3 657 L 741.8 657.9 L 741.5 658.5 L 740.8 658.3 L 740 657.3 Z M 699.3 651.6 L 699.5 651.8 L 700.3 652.3 L 704.2 652.8 L 705.7 654.1 L 706.5 654.3 L 709.2 654.1 L 711.1 654.3 L 712.7 654.6 L 713.4 656.6 L 714 658.5 L 714.4 659.2 L 716 659.9 L 716.7 660.5 L 716.5 662.5 L 716.7 664.4 L 720.1 666 L 723.7 666.9 L 727.6 667 L 731.5 666.7 L 733.5 666.3 L 736 665.6 L 736.5 665.6 L 741.3 667.7 L 741.7 668.1 L 742.3 669.7 L 742.3 671.4 L 741.3 675.4 L 741.3 676.5 L 741.4 677.6 L 742.3 680 L 742.9 680.7 L 744.6 681.9 L 744.7 682.6 L 744.4 683.2 L 742.5 682.8 L 741.3 682.3 L 740.6 681.4 L 739.7 680.8 L 737.9 681 L 734.4 680.1 L 730.6 678.7 L 723.8 675.8 L 721.9 675.8 L 720.1 676.2 L 718.3 676.9 L 716.3 677.5 L 714.9 677.7 L 713.4 677.5 L 709.8 676.8 L 706.1 676.3 L 696.7 676 L 694.1 675.4 L 689.7 675 L 688 674.7 L 688.3 673.1 L 690.3 671.4 L 692.3 670.3 L 693.6 668.8 L 692.9 667.1 L 691.8 666.8 L 692.2 665.3 L 691.7 664 L 691.9 660.6 L 692.2 659.7 L 695.7 660.6 L 695.9 660 L 698.2 658.2 L 698.1 655.2 L 698.6 652.7 L 699.3 651.6 Z" />
<path class="admin1" d="M 771.5 602.1 L 772.6 600.3 L 773 599.9 L 773 600.9 L 772.4 603.6 L 771.5 602.1 Z M 770.8 602 L 771.2 604.8 L 771.4 605.5 L 770.9 606.4 L 771.1 607.2 L 767.9 610.1 L 767.3 609.3 L 767.6 606.4 L 766.7 604.6 L 766.8 603.2 L 767.4 600.8 L 768.2 599 L 770.1 597.7 L 770.6 597.6 L 770.5 599.8 L 770.9 600.7 L 771 601.4 L 770.8 602 Z M 775.1 583.7 L 774.9 584.5 L 774.6 586.1 L 773.4 586.5 L 772.6 586.2 L 771.9 586.3 L 771.3 586.7 L 771.2 587.5 L 772.2 587.1 L 772.2 589.1 L 771.9 591.1 L 771.6 592.2 L 770.9 593.1 L 769.9 593.3 L 769 592.7 L 768.8 593.4 L 769.1 594.1 L 770.4 595.7 L 769.6 596 L 769 596.5 L 768.7 597.3 L 767.3 599.1 L 766.7 600.4 L 766.4 601.8 L 765.7 602.9 L 754.9 607.8 L 746.1 611.8 L 745.5 611.6 L 745.1 610.9 L 744.8 604.6 L 743.7 601.4 L 743.5 599.5 L 742.3 601.2 L 741.5 601 L 740.7 600.6 L 740.3 600.2 L 742.7 593.8 L 743.2 591.8 L 745.2 590.9 L 745.9 590 L 747.6 588.9 L 748.1 586.9 L 749.5 584.7 L 749 583.2 L 749.4 582.2 L 752.9 581.4 L 756 578.7 L 755.7 578 L 756.5 576.7 L 756.1 574.5 L 757.2 570 L 757.5 569.4 L 761.5 568.2 L 761.4 569.3 L 760.3 569.9 L 761.6 572.5 L 762.4 574.8 L 762.5 578.2 L 763.8 578.9 L 763.5 581 L 764.5 583.6 L 766.3 582.4 L 767.1 582.6 L 772.5 583 L 775.1 583.7 Z" />
<path class="admin1" d="M 875.2 678.3 L 876.5 678.1 L 877.2 678.4 L 877.5 678.7 L 875.5 679 L 874.7 679.8 L 874.2 680.7 L 873.3 680.4 L 873.6 679.5 L 874 679 L 875.2 678.3 Z M 878.4 675 L 880.3 675.5 L 880 676.8 L 879.7 677.5 L 875.5 677.4 L 875.6 676.5 L 876.8 675.6 L 877.1 675.2 L 878.4 675 Z M 820.3 678.4 L 820.5 678.6 L 820.8 678.8 L 821.5 678.8 L 821.6 679.4 L 821.6 679.9 L 821.3 680.5 L 820.5 681.1 L 819.9 681.7 L 820.2 682.8 L 819.6 683 L 819 682.7 L 819.2 681.3 L 818.9 680.4 L 819.5 679.7 L 819.7 678.4 L 819.9 678 L 820.3 678.4 Z M 902.3 673.8 L 904.9 673.9 L 906.9 674.1 L 908.1 674.5 L 908.2 676.4 L 907.6 676.8 L 897.5 678.2 L 896.5 677.7 L 896.1 677.3 L 897.2 675.9 L 896.7 675.2 L 897.3 674.1 L 898.5 673.4 L 899.5 673.5 L 899.9 674.4 L 901.1 673.9 L 902.3 673.8 Z M 894.3 674.5 L 894.7 674.4 L 895.1 674.5 L 895.3 674.9 L 895 676.4 L 894.1 677.4 L 893.5 679 L 892.9 679.6 L 891.6 679.9 L 890.9 678.2 L 889.5 678.3 L 890.2 676.8 L 890.8 676.2 L 891.7 676.2 L 892.1 676.8 L 892.3 677 L 894.3 674.5 Z M 880.3 709.9 L 880.6 709.7 L 880.8 709.7 L 881 711.2 L 881.5 712 L 881.6 712.5 L 879.9 713.2 L 878.4 714.9 L 875.2 716 L 874.3 716.5 L 872.8 716.5 L 872.4 716.3 L 872.3 714.9 L 872.7 714.2 L 876 713.2 L 877.3 712.3 L 879.2 710.4 L 880.3 709.9 Z M 856.4 710.2 L 857.5 709.2 L 858.8 709.1 L 859.5 709.3 L 859.3 710.5 L 857.7 711.5 L 857 711.7 L 855.3 711.2 L 855 711 L 856.4 710.2 Z M 881.2 705 L 882.2 704.5 L 882.7 705.1 L 882.8 705.4 L 881.4 705.9 L 881.5 707 L 880.1 707.6 L 880.1 706.4 L 881.2 705 Z M 839.4 700.8 L 840.7 701.7 L 841.4 702.9 L 841 704 L 839.3 705.6 L 838.4 705.9 L 837.2 706 L 835.3 706.9 L 834.6 706.4 L 832.5 706.1 L 830.8 705.5 L 829.3 704.3 L 828.5 703 L 827.4 701.8 L 825.6 701.1 L 822.3 698.8 L 820.3 698.6 L 819.5 698.8 L 818.6 698.8 L 814.3 697.8 L 813.6 697.2 L 813.1 696.5 L 812.6 695.7 L 812.3 694.9 L 812.9 694.2 L 813.5 693.7 L 815.9 692.8 L 817.6 692.5 L 819.6 692.6 L 822.5 692.3 L 825.3 692.7 L 826.2 692.4 L 827.6 691.5 L 828.1 691.8 L 828.7 692.6 L 829.4 693.3 L 831.9 694.7 L 832.4 695.3 L 832.5 696.2 L 833 696.9 L 834.2 697 L 835.4 696.8 L 836.3 697.3 L 837.1 698 L 838.3 699.3 L 839.4 700.8 Z M 874.7 673.7 L 875.2 676.4 L 874.4 676.8 L 873.9 677.2 L 873.6 677.8 L 872.1 678.8 L 872.7 680 L 872.3 680.5 L 871.7 680.8 L 869.5 681.3 L 868.1 681.9 L 866.9 682.6 L 866 682.7 L 864.5 682.8 L 862.4 682.6 L 861 682.9 L 857 684.7 L 855.5 684.8 L 854.1 685.3 L 853.7 684.6 L 853.1 684 L 851.8 683.9 L 850.5 684 L 849.1 685.5 L 847 685.2 L 846.2 685.3 L 845.4 685.7 L 844.6 685.8 L 843.7 685.7 L 840.6 684.5 L 837.1 683.7 L 833.5 684 L 830.4 683.4 L 828.7 683.9 L 827.1 684.6 L 826.6 683.8 L 826 683.2 L 825.5 682.1 L 825.5 681 L 825.7 680.2 L 826.1 679.4 L 826.4 678.6 L 826.6 677.8 L 827.2 678.2 L 827.9 678.1 L 830 677.2 L 832.1 675.8 L 834 675.3 L 835.1 675.2 L 836 675.4 L 837 675.3 L 838 675 L 839.5 676.1 L 840.2 676.3 L 842.3 676.4 L 844.2 677 L 845.9 677.9 L 848.3 678.7 L 849.8 679.9 L 850.9 680.3 L 851.8 680.4 L 852.5 680.2 L 853.5 679.5 L 854.6 679.2 L 855.6 679.2 L 857.4 679 L 858.2 678.8 L 859 678.4 L 859.9 678.6 L 860.6 679 L 863.6 681 L 864.6 681.1 L 866.3 680.6 L 866.8 680.1 L 867.1 679.3 L 867.5 678.6 L 868.2 678 L 868.9 677.5 L 871.2 676.8 L 872.8 676 L 873.8 674.7 L 871.3 674.2 L 871.9 673.3 L 872.7 672.7 L 873.8 672.9 L 874.7 673.7 Z M 891.2 692.1 L 891.4 692.7 L 892 693.3 L 892.4 693.4 L 892.7 693.2 L 895 693.5 L 895.6 693.2 L 896.4 692.3 L 897 691.7 L 897.4 690.5 L 897.5 689.8 L 899.5 689.2 L 900.6 688.6 L 901.6 687.8 L 904.4 686.3 L 904.9 685.9 L 904.8 687.3 L 905.1 687.7 L 905.7 687.8 L 907.7 686.9 L 908.1 687.1 L 908.4 687.5 L 908.4 688.7 L 907.7 689.8 L 905.8 689.9 L 905.5 690.1 L 905.5 690.8 L 905.6 691.4 L 906.1 691.9 L 906.6 692.8 L 907.2 694.8 L 906.1 695.6 L 905.5 697.2 L 903.7 698.6 L 901.6 701 L 899.9 702.2 L 898.5 703.7 L 897.2 704.7 L 895.7 705 L 893.3 705.2 L 890.1 706.9 L 888.4 707.7 L 886.7 707.7 L 885.1 707.2 L 884.5 706.5 L 884.6 705.7 L 885.1 705 L 885.8 704.3 L 886.2 703.6 L 884.4 702.6 L 884.2 701.8 L 884.9 699.8 L 885.4 697.8 L 886.1 696.4 L 888.7 693.9 L 890.2 692.6 L 891.2 692.1 Z" />
<path class="admin1" d="M 838.3 656.1 L 840.1 656.7 L 840.6 656.8 L 840.5 657.6 L 838.9 657.7 L 838.5 657.6 L 838.3 656.1 Z M 835.9 636.8 L 836.8 638.8 L 837 639.8 L 836.7 644.9 L 836.1 647.5 L 835.8 646.6 L 835.7 644.2 L 835.3 643.1 L 835.5 641.7 L 835.4 638.3 L 835.9 636.8 Z M 845.1 592.4 L 845.1 591.8 L 844.8 589.8 L 843.9 588.6 L 842.2 588.2 L 840.4 588.1 L 838.7 588.5 L 837 589.5 L 833.8 591.7 L 832.6 592.9 L 832.5 594.5 L 833.2 596.1 L 834.1 597.5 L 834.6 599.1 L 835.3 604.7 L 835.3 605.3 L 834.5 606.9 L 834.1 610.5 L 834.5 615.7 L 835 618.8 L 834.8 620.5 L 833.3 624.2 L 832.9 626.2 L 832.8 627 L 834.6 630.8 L 835 632.3 L 835.2 633.9 L 833.3 633.1 L 832.5 633.2 L 831.6 633.4 L 829.7 633.7 L 827.8 633.7 L 827.1 634 L 825.7 635 L 824.9 635.4 L 824.1 635.5 L 821.6 634.2 L 820.2 632.8 L 818.8 631.3 L 818.6 629.6 L 819 627.8 L 819.7 626 L 821 622.8 L 821 620.7 L 821.4 619 L 822.2 617.3 L 822.5 615.8 L 822.7 609.7 L 822.5 609.2 L 820.6 605.6 L 820.4 605 L 820.4 604.1 L 820.6 603.1 L 820.7 602.3 L 820.2 601.7 L 820 598.1 L 819.4 597 L 822.9 595.6 L 821.4 592.2 L 821.7 589.8 L 823.2 589.9 L 825.2 589 L 824.5 586.9 L 824 583.7 L 822.7 582.7 L 823 580.9 L 824.7 579.4 L 825.8 578.9 L 826.5 577.5 L 829.3 576 L 830.9 576 L 833 576.6 L 835.5 576.1 L 837.1 578.6 L 838.2 579.8 L 841 581.9 L 849.5 583.6 L 851 584.2 L 853.9 586.8 L 855.5 587.6 L 856.3 588.6 L 856 590.6 L 853.3 593.3 L 851.4 594 L 848.3 591.8 L 846.6 591.7 L 845.1 592.4 Z" />
<path class="admin1" d="M 820.2 601.7 L 819.5 601.1 L 818.6 600.8 L 816.7 601.1 L 812.9 602 L 811.8 601.2 L 810.9 599.9 L 810.4 598 L 810.1 596.1 L 810.2 594.3 L 810.8 592.6 L 810.3 591.4 L 809.6 590 L 809.6 589.4 L 810 588.8 L 810.7 588.3 L 811.5 588 L 812.3 587.4 L 814.4 585.7 L 815.1 584.1 L 815.1 582.2 L 815.7 580.3 L 816.7 578.6 L 818 577.1 L 818.4 575.5 L 817.8 572.9 L 818 571.7 L 817.8 570.3 L 817.8 569 L 818.6 566.4 L 820.9 561.2 L 821.8 560.1 L 821.9 563.5 L 822.3 565 L 821.2 566.1 L 820.7 567.8 L 822.9 568.8 L 823.7 569.8 L 824.2 572.2 L 825.8 574 L 826.1 574.9 L 825.8 576.2 L 826.5 577.5 L 825.8 578.9 L 824.7 579.4 L 823 580.9 L 822.7 582.7 L 824 583.7 L 824.5 586.9 L 825.2 589 L 823.2 589.9 L 821.7 589.8 L 821.4 592.2 L 822.9 595.6 L 819.4 597 L 820 598.1 L 820.2 601.7 Z" />
<path class="admin1" d="M 614.5 498.6 L 614.3 497.4 L 614.7 497 L 615.4 497.2 L 615.6 498.1 L 615.6 499.2 L 614.5 498.6 Z M 607 500 L 607.5 500.4 L 608 500.6 L 608.4 500.8 L 608.7 500.9 L 608.2 502 L 607.5 502.7 L 606.8 502.7 L 606.6 502.3 L 606.7 501.5 L 606.6 500.9 L 606.4 500.4 L 606.4 499.6 L 607 500 Z M 654.4 502.3 L 655.7 500.7 L 656 500.6 L 656 502 L 655.3 502.8 L 654.4 502.3 Z M 648.3 485.2 L 648.4 487 L 648.3 487.6 L 647.1 489.9 L 645 490.4 L 643.8 489.6 L 645.1 488.6 L 645.6 488.6 L 645.9 488.4 L 646 488 L 643.6 487.3 L 642.9 486.8 L 642.3 485.3 L 642.3 484.4 L 645.4 481.9 L 646.1 481.7 L 646.2 482.7 L 648.3 485.2 Z M 593.2 549.3 L 594.3 550.4 L 594.9 551 L 595.8 551.5 L 594.9 551.5 L 594.6 552 L 594.3 552.1 L 591.1 550.4 L 588.9 550.9 L 587.5 550.4 L 587.1 550.1 L 587.9 549.1 L 588.6 546.8 L 590 547.4 L 590.4 548.1 L 590.3 548.3 L 591.2 548.7 L 592.2 549.9 L 592.7 550.1 L 593.2 549.3 Z M 585.8 553.4 L 587.5 552.3 L 589 553.8 L 589.3 554.4 L 588.6 555.2 L 588 556.4 L 587.7 556.6 L 586.6 556.2 L 585.8 557.3 L 585.3 555.5 L 584.1 554.3 L 584.8 553.1 L 585.1 553 L 585.4 553.1 L 585.8 553.4 Z M 582.8 533.2 L 583.7 533.5 L 583.9 534.2 L 582.9 534.6 L 581.7 533.2 L 581.7 532.9 L 581.8 532.6 L 582.1 532.5 L 582.8 533.2 Z M 588.6 543.7 L 590.4 545.5 L 590.9 546.2 L 591 546.6 L 590.3 546.2 L 589.8 545.9 L 589.5 545.6 L 587.9 543.5 L 588.6 543.7 Z M 576.3 533.3 L 577.2 534 L 577.5 534.7 L 577.6 535.1 L 576.2 534.2 L 576.1 533.6 L 576.3 533.3 Z M 580.5 528.8 L 581.5 529.5 L 582.3 529 L 582.3 529.6 L 582.1 530.2 L 581.2 531.8 L 579.6 531.4 L 579.2 530.9 L 579.1 530.5 L 579.3 530.3 L 579.5 529.5 L 580.1 529.5 L 580.5 528.8 Z M 570.5 529.5 L 570.9 530.5 L 571.2 530.9 L 571.3 531.7 L 570.3 531.5 L 569.5 530.5 L 570.1 529.8 L 570.5 529.5 Z M 570.6 533.6 L 571.4 534.3 L 571.9 535 L 572.4 535.9 L 571.6 536.8 L 571.3 537 L 570 535 L 570.3 533.9 L 570.6 533.6 Z" />
<path class="admin1" d="M 862.6 531.2 L 866.3 531.3 L 868.1 531.8 L 869.8 532.5 L 871.8 533.7 L 872.6 534 L 873.4 533.9 L 874.5 532.8 L 875.3 532.5 L 876.1 532.5 L 876.2 532.5 L 878.3 534.1 L 878.9 535.7 L 880.1 536.8 L 881.9 537.6 L 882.5 538.5 L 882.8 540.5 L 882.2 542.4 L 879.9 542.2 L 879.2 542.1 L 877.9 540.7 L 876.4 539.6 L 875 539.5 L 873.7 539.6 L 863.9 539.7 L 860.5 539.9 L 857.1 540.3 L 855.2 540.1 L 853.4 539.6 L 852 539.4 L 850.6 539.4 L 849.2 539.6 L 849.2 538.2 L 848 538 L 846.5 536.5 L 847.7 535.9 L 848.7 534.3 L 849.9 533.8 L 851.9 534 L 857.1 532.1 L 859.4 532.6 L 860.3 532.5 L 862.6 531.2 Z" />
<path class="admin1" d="M 572.8 558.6 L 572.9 558.8 L 573.6 559.5 L 575.8 560.9 L 579.2 562.3 L 581.1 563 L 583.2 563.5 L 584.1 563.5 L 585.7 563.2 L 586.1 563.8 L 586.8 566.5 L 587.1 568.3 L 587.6 572 L 588.2 573.5 L 588.2 574 L 586.8 573.4 L 586 573.7 L 585.1 575.1 L 582.1 575.5 L 579.5 574.9 L 578.4 575 L 572.9 577.7 L 572.8 581.7 L 571.8 581.9 L 571.8 583.6 L 571.1 584.3 L 569.3 582.6 L 568.9 581.4 L 568 581.1 L 567.3 582.6 L 567.8 583.8 L 566.5 584.3 L 562.5 583.7 L 562.5 585.3 L 561.4 587 L 558.7 588.6 L 558.4 589.2 L 556.7 589.5 L 555.3 589.2 L 553.1 588.1 L 552.7 588.8 L 550.1 590.3 L 548.5 589.6 L 547.6 589.7 L 545 588 L 542.3 585.2 L 541.6 582.9 L 540.3 581.8 L 538.8 582.8 L 537.6 579.4 L 535.8 576.9 L 535.4 573.6 L 537.1 574 L 541 573.5 L 541.6 572.6 L 544.1 570.4 L 544.1 567.1 L 545.9 566.4 L 546.6 565.2 L 545.7 564.7 L 545.5 563.2 L 547.3 562.6 L 548.1 561.5 L 549.3 560.8 L 552 560.4 L 553.2 560.8 L 554.6 562.8 L 556.1 563.7 L 557.5 564 L 559.7 561.2 L 561.6 559.4 L 563.3 559 L 566.2 559.1 L 572.8 558.6 Z" />
<path class="admin1" d="M 740.3 600.2 L 740.1 600.1 L 740.1 599.4 L 740.7 597.3 L 739.9 598.4 L 739 599.3 L 738.1 599.2 L 737.4 598.8 L 737.1 598.1 L 736.7 598 L 734.7 599.8 L 732.2 600.8 L 730.8 600.8 L 729.7 600.2 L 729.7 598.8 L 729.6 597.5 L 729.3 596.7 L 728.6 596.4 L 728 596.5 L 726.2 597.2 L 725.6 597.2 L 725.2 597.5 L 720.4 592.7 L 719.4 596.6 L 716.1 598.7 L 713.6 599.9 L 711.2 599.5 L 708.8 598.7 L 706.3 599.6 L 703.6 601.9 L 702.9 602.3 L 702.1 602.3 L 701.6 602 L 701.8 600.2 L 701.8 598.5 L 701.6 594.6 L 701.4 593.8 L 700.6 592.7 L 699.6 592 L 699 592.5 L 698.5 593.3 L 696.5 593.3 L 694.5 592.7 L 692.8 593 L 689.5 594.6 L 687.7 594.8 L 686.8 594.4 L 686.2 593.6 L 686.5 592.9 L 687.2 592.3 L 689.8 590 L 690.9 589.5 L 690.9 584.5 L 689 580.1 L 688.7 577.9 L 689.2 576.1 L 689.1 572.9 L 687.6 572.2 L 689 570.8 L 690.9 570.9 L 692.6 569.2 L 693.9 568.4 L 695.3 566.8 L 697.8 565.5 L 697.9 564.2 L 698.9 562.9 L 703.8 559.9 L 705.2 559.5 L 706.2 558.5 L 710.2 558.8 L 712 558 L 713.3 558.1 L 716 557 L 719.9 555.2 L 721.2 555.2 L 722.4 554.4 L 723.8 555.7 L 724.5 553.7 L 723.7 552.7 L 724.9 551 L 726.5 550.1 L 727.3 547.9 L 726.9 546.1 L 724.9 543.3 L 726.3 542.9 L 728.1 543.1 L 729.5 542.3 L 729.9 540.8 L 731.9 538.5 L 734.9 537.8 L 735.9 537.1 L 738.2 537 L 741.2 538 L 745.7 537.5 L 746.8 536.7 L 750.5 535.7 L 751.8 537.2 L 752.1 538.9 L 750.4 541.5 L 750.2 542.7 L 751.2 546.2 L 750.4 548.6 L 750.9 549.9 L 752.2 548.9 L 753.8 547 L 755.2 546.6 L 756.3 547.1 L 755.2 550.5 L 755.2 552 L 756 555.1 L 756.8 556.2 L 757.3 559.1 L 758 560.9 L 758.9 561.7 L 760.7 562.3 L 762.4 564.3 L 763.4 564 L 763.3 567.2 L 762.1 569.3 L 761.4 569.3 L 761.5 568.2 L 757.5 569.4 L 757.2 570 L 756.1 574.5 L 756.5 576.7 L 755.7 578 L 756 578.7 L 752.9 581.4 L 749.4 582.2 L 749 583.2 L 749.5 584.7 L 748.1 586.9 L 747.6 588.9 L 745.9 590 L 745.2 590.9 L 743.2 591.8 L 742.7 593.8 L 740.3 600.2 Z" />
<path class="admin1" d="M 993.3 553.6 L 993.9 553.9 L 994.4 554.4 L 993.5 555.3 L 992.6 555.4 L 991 554.7 L 991.9 554.1 L 992.5 554 L 993 553.6 L 993.3 553.6 Z M 1003.5 549.4 L 1004.2 550.3 L 1004 550.9 L 1004.5 551.6 L 1003.2 552.8 L 1002.6 552.9 L 1002 552.5 L 1000.8 552.2 L 999.3 552.7 L 998.4 552.4 L 997.6 551.3 L 996.3 550.6 L 994.3 548.4 L 993.4 548.5 L 993.6 549.3 L 994.5 549.9 L 995.5 551.6 L 996.2 551.8 L 996.8 551.8 L 997.7 552.5 L 997.6 553.6 L 995.4 554 L 994.6 553.2 L 994.4 551.7 L 993.1 552.2 L 992.7 552.7 L 992.3 552.8 L 991.4 551.3 L 989 551.2 L 987.4 550.4 L 988.2 549.5 L 988.3 548.7 L 989.4 548.3 L 990.4 548.7 L 991.5 548.1 L 992.2 548.2 L 992.8 547.8 L 994.9 547.6 L 996.4 547.2 L 999 547.8 L 999.7 547.7 L 1003.5 549.4 Z M 999.8 561.4 L 1000.4 562.2 L 1000 565.6 L 999.3 567.5 L 998.7 568 L 996.8 567.6 L 995.9 566.6 L 995.2 565.3 L 994.8 564.3 L 994.7 563.4 L 994.1 562.4 L 994.2 562 L 997.7 560.9 L 998.3 561.3 L 999.8 561.4 Z M 996.3 559 L 997.8 559.2 L 997.4 560 L 996.7 560.5 L 990 561.5 L 990.5 560.9 L 990.8 560.3 L 991.2 560 L 991.9 560.1 L 992.2 560 L 992.6 559.9 L 992.9 560 L 993.6 559.7 L 995 559.9 L 996.4 559.8 L 996.3 559 Z M 1037.5 612.3 L 1039.2 613 L 1039.9 613.9 L 1038.1 613.2 L 1035.5 611.8 L 1035.3 610.9 L 1037.5 612.3 Z M 990.3 575.1 L 990 576.5 L 989.6 576.7 L 989.8 577.3 L 990.2 577.7 L 989.5 578 L 989 577.9 L 988.1 578.3 L 987.6 578.9 L 985.8 579.2 L 985.2 578.6 L 982 578 L 979.9 576.5 L 979.7 576.1 L 983.6 574.4 L 985.4 574 L 986.8 574 L 988.7 573.4 L 989.2 573.4 L 989.4 574.3 L 990.3 575.1 Z M 1051.3 578.7 L 1051.6 578.6 L 1051.9 578.6 L 1052.3 579 L 1051.6 580.1 L 1051.2 580.3 L 1051 579.6 L 1051.3 578.7 Z M 1059.3 613.3 L 1057.5 612.2 L 1056.4 610.4 L 1056.5 609.4 L 1056.8 608.5 L 1059.6 608.3 L 1057.6 608 L 1056.8 608.1 L 1055.2 608.8 L 1054.3 608.9 L 1053.1 608.4 L 1051.9 607.8 L 1050 608.4 L 1049 607.5 L 1048.6 606.5 L 1048.1 606.1 L 1047.4 606.1 L 1046.4 606.5 L 1045.4 606.4 L 1044.8 605.7 L 1044.3 604.9 L 1043.7 604.3 L 1042.8 603.8 L 1041.5 602.7 L 1040.8 601.1 L 1040.9 598.5 L 1041.1 597.5 L 1042.4 596 L 1043.4 594.5 L 1042.2 594.4 L 1041.2 595 L 1040.7 595.7 L 1040.6 596.6 L 1040.4 599.3 L 1039.6 600.2 L 1038.3 600.1 L 1038.7 601.7 L 1038.2 603.2 L 1036.7 605.1 L 1036.6 605.9 L 1036.9 606.8 L 1036.5 607.6 L 1034.2 610.2 L 1033.4 610.3 L 1031.6 610.3 L 1029.8 610.7 L 1029 610.1 L 1028.3 609.3 L 1027.8 608.4 L 1027.1 606.5 L 1026.5 604.6 L 1028.3 602.2 L 1027.7 600.1 L 1026.4 598.3 L 1023.4 595.7 L 1020.2 593.3 L 1018.7 592.8 L 1016.4 592.6 L 1015.6 592.4 L 1014.9 591.5 L 1014.3 590.4 L 1015.8 590 L 1018.4 588.7 L 1019.8 588.8 L 1023.7 589.5 L 1024.9 590.1 L 1026 590.4 L 1028.7 588.4 L 1030.8 585.7 L 1032.1 585.2 L 1033.3 585 L 1034.4 585.2 L 1036.7 586.1 L 1038.5 586.6 L 1039.7 586.7 L 1040.4 587.5 L 1041.2 587.9 L 1041.3 586.6 L 1042 585.2 L 1043.3 584.7 L 1043.9 584.6 L 1044.3 584.2 L 1044.2 582.9 L 1042.6 582.7 L 1043.5 581.6 L 1044.3 581 L 1044.6 580.5 L 1044.6 579.8 L 1041.3 581.1 L 1037.9 581.7 L 1035.8 581.5 L 1033.8 581.5 L 1029.7 582.4 L 1028.2 582.4 L 1024.6 582 L 1022.6 581.6 L 1021 581.9 L 1019.5 581.9 L 1018 580.9 L 1016.7 579.6 L 1016 578.7 L 1015.1 578 L 1014.8 577.1 L 1013.8 573.7 L 1013.7 571.3 L 1012.1 571.3 L 1010.6 571 L 1003.8 568.8 L 1003 569.3 L 1002 569.6 L 1001.1 569.7 L 1000.1 569.6 L 999.2 569.2 L 999.3 568.6 L 1000 567.1 L 1000.7 566.5 L 1001.6 566 L 1002.2 565.2 L 1003.2 562.8 L 1003.3 561.9 L 1003.2 561.1 L 1003.2 560.4 L 1003.9 560.1 L 1006.4 559.3 L 1011.7 558 L 1013.1 557.3 L 1014.2 556.2 L 1015.5 555.5 L 1016.1 554.7 L 1016.8 554.2 L 1020.9 552.6 L 1022.7 552.5 L 1024.5 552.7 L 1028.1 553.6 L 1031.5 555.1 L 1034.5 557 L 1037.6 558.4 L 1041.5 558.6 L 1043.5 558.5 L 1045.4 558.7 L 1046.2 559.1 L 1047.5 560.3 L 1047.2 561.1 L 1046.9 562.7 L 1047.6 564.2 L 1048.7 565.8 L 1049.7 567.5 L 1049.8 568.3 L 1049.5 570 L 1049.2 570.9 L 1048.1 572.3 L 1047.5 573.8 L 1047.9 575.8 L 1048.1 577.7 L 1048 579.5 L 1048.2 581.2 L 1048.8 583 L 1051.4 587.8 L 1053 591.1 L 1053.4 589.3 L 1053.3 587.2 L 1053.9 586.5 L 1054.6 586.1 L 1055.6 586.5 L 1055.8 587.3 L 1055.9 589.1 L 1056.4 591.1 L 1052.7 594.1 L 1052.8 594.9 L 1051 596.6 L 1049.8 598.5 L 1049.8 599.9 L 1065.5 605.5 L 1059.3 613.3 Z" />
<path class="admin1" d="M 483.7 529.3 L 485.5 531.3 L 486 532 L 485.5 533.4 L 485.1 537.4 L 484.2 538.4 L 482.1 537.9 L 482.1 537.2 L 480.9 534.2 L 478.7 532.5 L 477.8 532.4 L 477.2 530.7 L 476.1 528.7 L 472.7 525 L 475.3 525 L 476.5 524.1 L 476.8 523.4 L 477 523.2 L 479 524.4 L 482.3 528.8 L 483.7 529.3 Z M 493.5 547.4 L 494.5 549.7 L 495.5 551.1 L 495.1 553 L 494.1 555.4 L 493.2 556.1 L 491.8 555.4 L 492.3 554.4 L 492.5 553 L 493.4 551.9 L 493.6 550.6 L 492 547.1 L 492.8 547 L 493.5 547.4 Z M 505.6 542.3 L 505 541.7 L 504.3 540 L 503.5 536.5 L 501.5 531.1 L 499.4 523.9 L 497.9 520.7 L 496.3 518.2 L 495.8 517.6 L 488.4 513.1 L 489 511 L 488 509.2 L 487.4 507.1 L 488.1 505.6 L 487.9 503.5 L 485.8 502 L 485.4 499.3 L 486 498.4 L 484.9 496.6 L 486.9 495.4 L 485.6 493.8 L 485.7 493 L 484.6 491.6 L 483.7 489 L 485.4 487.4 L 485.3 486.4 L 487 485.3 L 488 481.3 L 489.9 480.5 L 491.1 480.6 L 490.8 482 L 491.8 483.6 L 495.2 485.1 L 497.2 486.2 L 497.7 486.8 L 498 487.6 L 499.1 488.8 L 500.5 489.5 L 504.9 491.5 L 510.6 495.7 L 513.9 497.7 L 516.6 500.7 L 517.6 502.2 L 518.4 503.8 L 520 506 L 522.7 508.7 L 522.4 510.6 L 522.9 513.3 L 523 515.4 L 522.8 517.9 L 523.9 519 L 524.8 521.3 L 524.9 522.3 L 523.5 523.5 L 519.7 525.2 L 519.2 526 L 520.1 526.9 L 520.4 528.1 L 521.6 529.3 L 521.3 530.8 L 521.3 533.7 L 520.8 535.4 L 515.4 533.6 L 513.6 533.9 L 514.9 535 L 515.2 536.1 L 516.7 538.3 L 516.6 539.3 L 515.2 539.9 L 513.2 539.4 L 511.6 538.4 L 507.9 539.8 L 505.6 542.3 Z" />
<path class="admin1" d="M 565.7 531.4 L 567.2 533.6 L 566.8 534.1 L 566 534 L 565.1 533.4 L 564.1 532.5 L 562.9 531.7 L 561.3 531.1 L 560.4 531 L 560 530.8 L 560.4 529.1 L 561.4 529 L 564.6 530.6 L 565.7 531.4 Z M 568.3 536.3 L 569.2 537.6 L 569 538.7 L 567.3 538.8 L 566.8 538.6 L 567 537.1 L 567.5 536.3 L 568.3 536.3 Z M 556.7 524.5 L 556.9 526.5 L 555.7 525.9 L 554.8 525.2 L 553.4 524.6 L 551.6 524.4 L 550.3 523.9 L 549.4 522.9 L 549.4 522.5 L 549.5 522.2 L 549.8 521.9 L 556.4 523.7 L 556.7 524.5 Z M 561.2 532.2 L 563.8 533.3 L 564.7 533.8 L 565.1 535.5 L 564.8 536.1 L 564.2 535.7 L 561.2 535 L 560.1 534.9 L 557.5 534.2 L 556.7 533.8 L 556.2 533.3 L 556.3 532.4 L 556.7 531.8 L 557 530.2 L 557.6 529.6 L 558.9 530.8 L 560.4 531.8 L 561.2 532.2 Z M 543.5 514.1 L 544.6 514.9 L 545.4 516.1 L 545.6 517 L 545 517.9 L 544.8 519.4 L 542.9 520.5 L 541.4 520.2 L 540.8 519.8 L 539.8 517.6 L 539.9 515.7 L 540.6 515 L 542 515.1 L 543.5 514.1 Z M 553.4 525.5 L 554.7 526.2 L 555.5 527.6 L 556 528 L 556.1 529.2 L 555.8 530.6 L 555.7 531.8 L 555 532.2 L 554.2 531.5 L 553.4 530.4 L 553.1 529.3 L 552.7 527.5 L 552.7 526.2 L 553.1 525.4 L 553.4 525.5 Z M 574.1 550.7 L 575.9 551.4 L 576.5 552.1 L 576.1 552.5 L 574 553.1 L 571.8 552.7 L 572.1 551.7 L 573.2 550.7 L 574.1 550.7 Z M 572.8 558.6 L 566.2 559.1 L 563.3 559 L 561.6 559.4 L 559.7 561.2 L 557.5 564 L 556.1 563.7 L 554.6 562.8 L 553.2 560.8 L 552 560.4 L 549.3 560.8 L 548.1 561.5 L 547.3 562.6 L 545.5 563.2 L 544 562.1 L 541.7 561.6 L 540.3 560.3 L 538.7 559.3 L 537.2 558 L 534.2 554.5 L 533.6 553.4 L 531.3 552.1 L 530.3 550.3 L 529.7 548.1 L 531.2 547.6 L 531.2 544.2 L 526 540.2 L 523.8 540.7 L 522.2 540.1 L 520.6 537.1 L 521.3 536.1 L 520.8 535.4 L 521.3 533.7 L 521.3 530.8 L 521.6 529.3 L 520.4 528.1 L 520.1 526.9 L 519.2 526 L 519.7 525.2 L 523.5 523.5 L 524.9 522.3 L 524.8 521.3 L 523.9 519 L 522.8 517.9 L 523 515.4 L 522.9 513.3 L 522.4 510.6 L 522.7 508.7 L 522.8 508.8 L 523.5 509.7 L 524.3 510.9 L 525.2 512.1 L 526.2 513.1 L 527.4 514 L 528.7 514.2 L 530.7 516.2 L 531.8 516.9 L 531.7 515.3 L 530.7 513.9 L 530.8 513.1 L 530.9 512.3 L 531.7 511.7 L 532.6 511.5 L 534.3 512.1 L 537.1 514.5 L 538.3 515.9 L 539.1 517.8 L 539.9 519.8 L 541 520.8 L 542.5 521.2 L 544.2 521.3 L 545.8 522 L 549.4 524.7 L 550.6 526 L 551.5 527.6 L 552.2 529.4 L 552.6 531.3 L 552.8 531.8 L 555.2 534.1 L 556.4 535 L 557.9 535.5 L 562.3 536 L 563.8 536.8 L 565.1 538.1 L 565.7 539.5 L 564.7 540.7 L 561.3 542.5 L 557.6 543.8 L 561.2 543.3 L 563 542.8 L 564.7 542 L 566.3 540.9 L 568.9 539.4 L 569.9 539.2 L 571 539.3 L 572.1 539.7 L 573.6 541.1 L 575.1 542.6 L 576.2 544.4 L 576.8 546.4 L 575.6 547.4 L 573.8 548.2 L 571.3 550.1 L 571 550.9 L 571.5 551.3 L 570.9 552.7 L 572.3 553.6 L 572.5 554.4 L 571.3 555.4 L 571.4 556.1 L 572.8 558.6 Z" />
<path class="admin1" d="M 915.2 491.7 L 916.1 493.2 L 916.3 493.8 L 915.9 494.3 L 914.1 493.4 L 914.2 492 L 913.9 491.3 L 913.4 490.6 L 913.2 489.9 L 913.4 489.2 L 914.6 490.2 L 915.2 491.7 Z M 912.2 503.6 L 912.9 503.9 L 913 504.2 L 912.4 505.1 L 912.4 506 L 912.3 506.3 L 911.7 504.5 L 912.2 503.6 Z M 931.5 484.4 L 932.3 485 L 933.1 486.3 L 932.8 487 L 932.8 487.6 L 931.9 486.1 L 931.5 484.4 Z M 934.1 488.4 L 933.7 487.9 L 933.7 487.5 L 934.1 487.2 L 934.9 487.9 L 935 488.3 L 934.9 488.6 L 934.6 488.8 L 934.1 488.4 Z M 935.1 477.6 L 935.4 479.3 L 935.9 480.5 L 934.8 482.2 L 934.3 484.5 L 933.7 484.8 L 932.7 484.7 L 932.6 483.9 L 933.6 482.5 L 934.3 481 L 933.6 480.6 L 932.8 479.7 L 932.8 478.6 L 933.4 476.5 L 934.3 476.7 L 935.1 477.6 Z M 876.2 532.5 L 879.4 532.7 L 888.2 534.1 L 889.5 533.9 L 894.8 531.3 L 897 528.7 L 898.9 528 L 899.5 526.9 L 899.9 525.5 L 900.6 525.1 L 902.2 524.8 L 902.8 524.3 L 904 522.7 L 905.3 521.2 L 906 520.7 L 907.8 521 L 908.7 521.6 L 909.7 523.8 L 909.6 524.2 L 908.3 525.3 L 907.9 525.7 L 906.6 528.8 L 905.6 530.3 L 904.4 531.7 L 901.4 534.3 L 900.5 535.6 L 899.7 537 L 898.6 538.5 L 897.2 539.8 L 896.6 540.2 L 894.9 540.9 L 894 541.2 L 892.2 541.3 L 886.8 542.4 L 885 542.5 L 883.2 542.5 L 882.2 542.4 L 882.8 540.5 L 882.5 538.5 L 881.9 537.6 L 880.1 536.8 L 878.9 535.7 L 878.3 534.1 L 876.2 532.5 Z" />
<path class="admin1" d="M 949.6 557.9 L 950.2 558.4 L 950.6 558.9 L 950.8 559.7 L 950.2 560.3 L 949 560.8 L 947.5 560 L 947.1 559.3 L 946.8 559 L 944.9 559.6 L 944.3 559.6 L 944 558.6 L 944.4 557.1 L 943.1 556.4 L 941.8 554.9 L 941.8 554.3 L 942.3 553.2 L 942.2 552.3 L 942.9 552.3 L 944.2 553.4 L 944.8 552.3 L 945.3 551.9 L 946 552.1 L 947.8 554.4 L 946.6 556.6 L 947.4 557.8 L 949.6 557.9 Z M 951.2 569.5 L 953.2 570.9 L 955 572 L 955.1 572.9 L 954.1 573.5 L 953.6 573.7 L 951.3 573.3 L 948.7 573.4 L 945.9 574 L 944.3 573.5 L 943.3 572.7 L 943.3 571.8 L 944.3 569.7 L 946.3 568.1 L 947.2 567.8 L 948.7 568.2 L 951.2 569.5 Z M 941.5 553.2 L 941 554.8 L 940.1 555.2 L 939 555.2 L 938.8 553.5 L 939.1 551.4 L 940.1 551.1 L 941.7 551.5 L 941.1 552.1 L 941.5 553.2 Z M 941.2 556.8 L 941.8 558.9 L 941.8 559.2 L 941.7 559.6 L 940 559.2 L 939.6 558.9 L 940.4 556.7 L 941.2 556.8 Z M 943.9 544.9 L 944.1 546.1 L 944.2 547.2 L 944.1 547.7 L 943.6 547 L 943.3 546.9 L 943.7 545.2 L 943.9 544.9 Z M 943.7 537.2 L 943.1 537.3 L 943 537.3 L 942.8 536.6 L 943.1 535.6 L 943.8 535.6 L 944 535.7 L 944.1 536.5 L 943.7 537.2 Z M 973 546.4 L 976.6 549.3 L 976.7 550 L 976.1 550.1 L 975.5 549.2 L 974 548.2 L 973 546.4 Z M 962 506.8 L 963.4 508.7 L 962.4 512.6 L 961.2 514.6 L 959.7 515.3 L 957.3 515.5 L 956.7 514.8 L 956.1 511.5 L 957.8 508.8 L 960 507.2 L 961.5 506.8 L 962 506.8 Z M 909 573.7 L 909.2 574.8 L 910.1 574.6 L 910.9 575 L 911.1 575.2 L 911 576.3 L 908.2 576.4 L 906.2 577.3 L 903.5 576.5 L 900.5 577.8 L 898.7 578.3 L 897.1 578.2 L 895.7 576 L 896.5 573.3 L 897.1 572.9 L 898.1 572.6 L 900.9 572.5 L 905.6 573.6 L 907.1 574.1 L 907.6 574.1 L 908.1 573.5 L 908.4 573.4 L 909 573.7 Z M 921.3 580.8 L 922.7 583.8 L 922.5 585.2 L 922.2 585.5 L 921.3 584.6 L 920.7 582.2 L 920.1 581.6 L 919.5 579.4 L 919.7 578.7 L 920.4 577.8 L 921.1 577.8 L 921.5 578.4 L 921.3 580.8 Z M 922 574.9 L 926.8 575.4 L 926.1 576 L 921 576.9 L 919.1 576.7 L 913.6 577.2 L 912.8 577.2 L 912.7 576.3 L 912.1 575.7 L 913 575.2 L 914.2 575.1 L 917.3 575.3 L 922 574.9 Z M 942.9 534.8 L 942.4 535.4 L 941.9 535.2 L 941.6 534.5 L 941.7 534 L 942.1 533.7 L 942.7 534 L 942.9 534.8 Z M 947.8 548.4 L 947.7 546.6 L 947.8 544.8 L 948.2 542.7 L 947.5 541.9 L 946.7 541.2 L 945.8 539.5 L 945.5 537.6 L 945.6 536.6 L 946 535.6 L 946.5 534.8 L 946.6 534 L 945.2 532.8 L 943.8 529.4 L 943.7 527.7 L 945.5 524.3 L 945.5 522.7 L 945.8 521.8 L 946 520.7 L 947 518.5 L 948.5 516.6 L 951.1 513.9 L 952.1 513.4 L 953.3 513 L 953.3 513.6 L 953.2 514.2 L 951.2 516.9 L 951 517.5 L 950.9 518.7 L 951.9 519.3 L 952.9 520.7 L 953.1 522.5 L 953.1 524.5 L 952.9 526.5 L 952.5 527.1 L 950.9 529.1 L 947.3 531.4 L 947 532 L 947 532.6 L 947.7 533.4 L 948.5 534 L 949.7 534.3 L 950.8 534.2 L 951.4 533.5 L 951.6 532.6 L 952.2 530.9 L 953.5 529.8 L 954.5 529.6 L 955.2 529.2 L 955.1 527.9 L 955.1 526.7 L 956.1 525.4 L 959.3 523.6 L 961.1 522.9 L 963.4 522.7 L 963.6 523.4 L 963.4 524.4 L 963.8 525.9 L 963.6 530 L 963.1 530.5 L 960.7 531.9 L 958.1 533 L 957.3 533.5 L 956.7 534.6 L 956.7 535.7 L 958.9 537.2 L 962.2 538.6 L 962.9 539.2 L 963.3 540.3 L 963.4 541.5 L 964.2 542.1 L 965.3 542.4 L 966.1 543 L 966.6 543.8 L 961.1 541.9 L 959.6 541 L 957.9 540.9 L 956.1 540.7 L 954.3 540 L 952.4 539.8 L 951.5 540.3 L 951.2 541.3 L 950.9 542.5 L 951.4 543.9 L 951.3 544.8 L 951 546.4 L 952.3 551 L 954.1 554.7 L 956.6 558.5 L 957.9 559.8 L 959.3 561 L 957 560.6 L 956.3 559.4 L 953.4 558.1 L 952.9 557.3 L 951 553.7 L 950.4 553 L 948.7 551.8 L 947.9 550.9 L 947.6 549.7 L 947.8 548.4 Z" />
<path class="admin1" d="M 525.3 595.5 L 524.8 595.9 L 524.7 596.5 L 525.3 598.8 L 523.4 597.2 L 523.5 596.2 L 523.2 595.4 L 522.1 594.6 L 521.2 593.5 L 520.8 590.9 L 521.1 590.4 L 521.9 590.3 L 525.1 593.7 L 525.3 594.3 L 525.3 595.5 Z M 504.6 569.5 L 505.8 571.3 L 506.7 572.4 L 506.8 574.1 L 505.1 574.7 L 503.7 574.8 L 500.6 572.9 L 499.9 572.1 L 499.7 571 L 496.8 566.7 L 496.4 565.7 L 497.5 562.2 L 500.5 561.3 L 501.5 561.9 L 501.8 563.5 L 503.6 566.4 L 504.1 567.9 L 504.5 568.6 L 504.7 569.1 L 504.6 569.5 Z M 518.2 586.1 L 521.2 588.7 L 521.2 589.7 L 520.1 590.9 L 518.3 590.9 L 517.9 590.1 L 518 588.2 L 517.6 587.6 L 517.6 587.4 L 517.9 586.3 L 518.2 586.1 Z M 513.9 580.9 L 515.2 582.6 L 515.6 583.5 L 515.7 583.9 L 513.2 582.5 L 512 582.2 L 510.9 580.7 L 511.2 580 L 511.3 579 L 511.4 578.6 L 512.2 578.4 L 513.2 579.2 L 513.9 580.9 Z M 534.1 585.5 L 532.7 583.5 L 531.9 582 L 531.2 580.4 L 531.3 577.1 L 525.6 567.3 L 524.2 564.2 L 522.8 560 L 522.5 559.5 L 519.4 555.7 L 518.3 554.5 L 517 553.3 L 515.9 552 L 513.7 547.6 L 512.9 546.4 L 511.8 545.5 L 507.7 543.9 L 506.2 543 L 505.6 542.3 L 507.9 539.8 L 511.6 538.4 L 513.2 539.4 L 515.2 539.9 L 516.6 539.3 L 516.7 538.3 L 515.2 536.1 L 514.9 535 L 513.6 533.9 L 515.4 533.6 L 520.8 535.4 L 521.3 536.1 L 520.6 537.1 L 522.2 540.1 L 523.8 540.7 L 526 540.2 L 531.2 544.2 L 531.2 547.6 L 529.7 548.1 L 530.3 550.3 L 531.3 552.1 L 533.6 553.4 L 534.2 554.5 L 537.2 558 L 538.7 559.3 L 540.3 560.3 L 541.7 561.6 L 544 562.1 L 545.5 563.2 L 545.7 564.7 L 546.6 565.2 L 545.9 566.4 L 544.1 567.1 L 544.1 570.4 L 541.6 572.6 L 541 573.5 L 537.1 574 L 535.4 573.6 L 535.8 576.9 L 537.6 579.4 L 538.8 582.8 L 536.2 583.9 L 534.1 585.5 Z" />
<path class="admin1" d="M 686.4 674.5 L 686.2 674.4 L 682.7 673.6 L 673.9 669.6 L 675.1 667.6 L 675.4 666.3 L 678 666.2 L 680.1 664.6 L 681.1 667.9 L 682.3 668.5 L 685 668.7 L 685.5 669.3 L 685.7 673.2 L 686.4 674.5 Z" />
<path class="admin1" d="M 950.1 593.8 L 951.7 593 L 952.5 592.7 L 951.7 594 L 950.4 593.9 L 950.1 593.8 Z M 945.8 597.6 L 946.6 598.6 L 946.9 599.3 L 945.4 598.8 L 944.7 598.2 L 945.4 597.8 L 945.8 597.6 Z M 1058.2 646.4 L 1058.6 645.7 L 1059 645.3 L 1059.6 645.3 L 1058.5 647 L 1058.2 647.1 L 1058.2 646.4 Z M 1055.6 651.3 L 1056.1 650.5 L 1056.6 650 L 1057.2 649.9 L 1057.1 650.6 L 1056.3 651.9 L 1056 652.1 L 1055.6 651.6 L 1055.6 651.3 Z M 932.9 666.1 L 934.1 666.1 L 934.3 666.9 L 934.3 667.2 L 932.4 667.5 L 930.6 668.3 L 929.7 669.3 L 929 670.5 L 926.5 670 L 924.3 669.9 L 923.3 669.5 L 922.3 669.5 L 920.9 669.9 L 918.9 671 L 918.5 671.1 L 918.7 669.4 L 919.2 668.5 L 921.3 666.1 L 923 666.6 L 925 666.8 L 927.2 666.3 L 928.8 665.2 L 931.1 664.7 L 932.9 666.1 Z M 952.7 673.5 L 954.2 673.4 L 954.5 674 L 953.1 675.3 L 949.9 674.3 L 949.4 673.2 L 949.9 672.8 L 952.7 673.5 Z M 942.9 663.7 L 944.5 664 L 944.5 664.8 L 944.4 665 L 943.7 665.5 L 942.7 665.8 L 943 664.7 L 942.9 663.7 Z M 978.4 668.1 L 980.8 668.5 L 981.3 669.6 L 981.2 670.6 L 980.3 672 L 979.3 671.9 L 977.4 670 L 977.5 668.7 L 977.7 668.3 L 978.4 668.1 Z M 962.4 656.8 L 962.9 657.2 L 963.1 657.5 L 963 657.9 L 963.1 658.6 L 962.4 659 L 961.2 658.2 L 960.9 657.9 L 961.6 657.1 L 962.4 656.8 Z M 999.6 672.7 L 1000.6 673.2 L 1002 673.3 L 999.9 674.6 L 997.8 675.1 L 997.1 676.3 L 995.8 676.7 L 996.7 675.5 L 999.6 672.7 Z M 1010.1 658 L 1010.7 658.8 L 1009.2 659.9 L 1010 662.6 L 1008.9 665.5 L 1008.3 666.4 L 1007 667.1 L 1006.6 667.8 L 1005.1 669.3 L 1004.7 670.5 L 1004.6 671 L 1004.3 671.3 L 1004.1 671.5 L 1002.1 671.3 L 1001 671.3 L 1001.2 670.1 L 1000.6 669.2 L 1001.4 667.9 L 1001.4 666.4 L 1002.2 666.2 L 1002.3 665.4 L 1003.3 663.1 L 1003.9 662.6 L 1004.7 662.4 L 1005.6 661.1 L 1006.2 660.7 L 1006.7 659.7 L 1007.6 659.2 L 1007.5 658.3 L 1008 657.9 L 1009.2 657.5 L 1010.1 658 Z M 1056.4 647.3 L 1057.1 648.1 L 1056.9 648.8 L 1056.1 648.9 L 1055.7 647.7 L 1056.4 647.3 Z M 963 601.7 L 963.5 601.8 L 963.9 602.2 L 963.9 602.8 L 963.8 603 L 962.9 602.8 L 962.3 602.8 L 961.8 601.6 L 961.9 601.4 L 963 601.7 Z M 959.7 601.7 L 961 602.1 L 961.4 602.8 L 958.8 603.6 L 959.3 602.1 L 959.7 601.7 Z M 1030.4 634.4 L 1032.1 629.6 L 1032.4 629.7 L 1033 630.1 L 1032.2 633.7 L 1029.8 636.2 L 1029.2 638.7 L 1027.9 640.1 L 1029.1 636.9 L 1029.3 635.3 L 1030.4 634.4 Z M 1026.2 635 L 1027.3 637 L 1027.3 637.9 L 1026.4 639.4 L 1025.7 638.9 L 1025.4 638.9 L 1025.1 638 L 1025.4 636.2 L 1024.6 634.2 L 1025.6 634.2 L 1025.9 634.8 L 1026.2 635 Z M 1057.4 643.4 L 1056.9 644.8 L 1056.4 645.4 L 1056.1 645.5 L 1055.7 645.9 L 1052.7 645.5 L 1051.3 644.5 L 1050.2 643.4 L 1049.9 642.9 L 1048.5 641.7 L 1048.2 641.2 L 1048.2 640.6 L 1049.3 640.4 L 1050.5 640.4 L 1050.5 639.8 L 1051.1 637.7 L 1049.3 636.3 L 1049 635.7 L 1049.7 635.3 L 1051.1 635.8 L 1052.9 633.4 L 1053.4 632.9 L 1053.7 631.5 L 1054.7 631.4 L 1055.4 631.5 L 1055.8 632.4 L 1056 633.1 L 1055.8 633.8 L 1056.7 634.1 L 1057.4 635.7 L 1057.3 636.3 L 1057.3 637.4 L 1057.5 638.4 L 1056.9 639.5 L 1057.5 641 L 1057.6 641.8 L 1057.6 642.9 L 1057.4 643.4 Z M 1053.9 648.2 L 1053.6 649.4 L 1052.2 650.8 L 1051.3 652.9 L 1050.8 653.4 L 1048.9 654.4 L 1047.2 653.2 L 1046.7 652.2 L 1047.5 647.6 L 1048.2 647.7 L 1048.7 647.7 L 1048.8 647.4 L 1047.8 646.9 L 1047.5 644.2 L 1047.6 643.2 L 1048.4 643 L 1049.5 643.8 L 1050.8 645.2 L 1052.3 646.3 L 1054.2 647.1 L 1053.9 648.2 Z M 1013.6 657.4 L 1014.5 658.9 L 1014.3 659.7 L 1013.6 659.3 L 1013 658.4 L 1012 658.3 L 1011.3 658 L 1010.9 657.6 L 1013.6 657.4 Z M 939.7 598.9 L 940.7 599.8 L 941 601 L 940.7 603.5 L 939.6 603.7 L 938.5 604.1 L 936.2 605.6 L 935.1 605.8 L 934 605.9 L 933.1 606.3 L 932.3 606.5 L 930.1 605.7 L 928 604.7 L 925 603.1 L 924.4 602.7 L 923.9 601.8 L 922.5 600.2 L 922.2 599.2 L 922.1 596.3 L 922.4 595.7 L 923 595.3 L 925.1 596 L 926.4 595.3 L 930.3 594.7 L 934.2 594.8 L 935 595.1 L 937.6 596.3 L 938.1 597.1 L 938.6 598 L 939.1 598.5 L 939.7 598.9 Z M 995.7 600.2 L 996.9 602 L 997.1 602.5 L 996.2 607 L 992.7 605.3 L 989.4 603.4 L 987.9 602.7 L 984 601.1 L 983.4 600.5 L 983 599.8 L 981.3 598.8 L 977.9 598.6 L 976.7 598.6 L 976.2 598.8 L 976.3 599.3 L 976.3 600.4 L 975.5 600.7 L 973.4 600 L 971.5 599.8 L 969.9 599.1 L 967.7 598.8 L 967.5 598.4 L 967.6 597.9 L 967.6 597.4 L 967 597.3 L 966.1 597.3 L 965.1 597.8 L 964.3 598.4 L 963.2 599.8 L 962.6 600.4 L 960.7 600.7 L 959.9 600.5 L 959.2 600.1 L 957 597.4 L 956.3 596.8 L 955.5 596.4 L 954.7 596.1 L 954 596.5 L 953.6 597.4 L 953.4 598.4 L 953.2 599 L 952.2 600.6 L 951.5 601.5 L 951.2 601.4 L 951.6 599.9 L 951.6 599 L 951.1 598.1 L 950.8 597.1 L 954.4 592.7 L 955.8 591.6 L 961.5 591.2 L 965 591.5 L 966.8 591.4 L 968.1 591 L 969.1 591.2 L 969.4 592.1 L 970 592.7 L 970.9 592.7 L 972.5 592 L 974 590.9 L 974.8 590.4 L 975.7 590.4 L 976.6 590.4 L 977.5 590.7 L 979.9 591.6 L 983.5 593.3 L 985.3 593.6 L 988.4 593.4 L 989.6 593.5 L 992.6 595.7 L 993.4 597.2 L 993.7 598.5 L 994.1 599.8 L 994.9 600.1 L 995.7 600.2 Z" />
<path class="admin1" d="M 790.4 673.7 L 792.3 673.6 L 792.3 674.2 L 790.6 677 L 790.2 677 L 789.6 676.7 L 789.8 676.1 L 789.4 675 L 789.6 674.1 L 790.4 673.7 Z M 813.6 673.8 L 814.2 673.5 L 814.5 673.5 L 815 674.1 L 815.1 674.4 L 814.6 674.8 L 814.1 675 L 813.5 675 L 813.3 674.4 L 813.6 673.8 Z M 772.7 674.5 L 776.5 675.7 L 777.1 676 L 777.6 676.5 L 777.8 677.3 L 776.4 680.8 L 774.4 684 L 775.1 684.6 L 775.5 685.1 L 772.3 685.7 L 770.9 685.4 L 770.1 685.5 L 766.8 684.9 L 764.5 684.1 L 764.2 683.5 L 764.4 682.8 L 765.1 683.1 L 766.9 683.2 L 767.6 682.9 L 767.6 680.8 L 767.4 678.1 L 769.8 675.9 L 771.1 675 L 772.7 674.5 Z M 813.7 678.4 L 813.6 680 L 814 680.6 L 814.6 681.1 L 815 681.7 L 814.6 682.3 L 814.2 682.6 L 813.1 682.9 L 812.5 682.8 L 812 682.4 L 811.5 682.2 L 810.2 682.4 L 809 682.7 L 809.2 683.3 L 810.2 683.6 L 810.5 683.9 L 810.4 684.2 L 810 684.3 L 808.8 683.8 L 807.9 683.9 L 804.9 684.6 L 804.1 684.6 L 803.6 683.9 L 803.7 682.2 L 803.3 681.8 L 801.1 683.8 L 800.4 684.3 L 799.5 684.6 L 798.6 684.5 L 795.3 685.8 L 794.3 685.6 L 793.3 685.6 L 789.8 686.9 L 788 687.3 L 787 687.3 L 786.1 687.2 L 785.2 687.4 L 784.4 687.9 L 782.9 688.4 L 781.3 688 L 779.9 687.5 L 778.7 686.9 L 778.3 686.1 L 778.4 685.2 L 778.9 683.9 L 778.6 681.6 L 778.9 680.6 L 779.4 679.6 L 780.2 679.2 L 781.2 679.1 L 782.9 678.2 L 784.5 677 L 785.4 677.1 L 787.5 678 L 788.7 678.1 L 790.7 677.9 L 791.6 678.4 L 791.9 679.6 L 792.4 680 L 793 680.3 L 794.5 682.3 L 795.8 682.2 L 797 682.6 L 799.1 681.4 L 800.7 681.4 L 801.1 680.5 L 800.2 679.5 L 799 678.7 L 798.4 678.5 L 797.7 678.6 L 797.1 678.4 L 794.6 676.6 L 793.8 675.6 L 793.4 674.5 L 793.7 673.6 L 795.4 672.9 L 796.2 672.7 L 799.3 673.2 L 799.8 673.6 L 800.6 675.5 L 801.2 676.2 L 802 676.8 L 802.7 676.8 L 804.2 675.9 L 805.1 675.5 L 806 675.5 L 807 675.7 L 807.9 676.3 L 808.2 677.4 L 808.5 677.7 L 809.1 676.4 L 809.8 676 L 810.6 675.9 L 811.8 675.9 L 812.8 676.5 L 813.7 678.4 Z" />
<path class="admin1" d="M 891 638.7 L 891.4 639.9 L 891.2 640.6 L 890.7 639.7 L 890.2 639.3 L 890.2 638.4 L 891 638.7 Z M 883.6 629.9 L 883.5 629.4 L 883.5 628.9 L 883.8 628.6 L 884.8 629 L 884.7 630.5 L 884.1 630.4 L 883.6 629.9 Z M 875.9 627.2 L 877.4 628.2 L 878.2 629 L 878 629.9 L 876.9 630.8 L 875.7 631.2 L 874.9 630.8 L 874.6 631 L 874.1 631.5 L 873.7 632.1 L 873.8 632.8 L 872.7 634.6 L 872.2 635.2 L 870.9 634.6 L 870.2 635.1 L 869.6 635 L 868.6 633.2 L 868.7 632.3 L 869.5 631.4 L 869.5 630.7 L 870 629.9 L 870.9 628.8 L 871.4 628 L 871.5 627.5 L 871.9 625.5 L 872 624.7 L 872.3 623.9 L 872.7 622.1 L 872.8 618.8 L 874.2 616.1 L 875.7 615.3 L 876.2 615.2 L 876.1 615.9 L 877.9 617.8 L 878.2 621.1 L 878.1 622 L 877.2 620.7 L 876.9 620.4 L 876.7 620.7 L 876.4 620.8 L 875.9 620.8 L 875.4 622.1 L 875.3 623.3 L 874.9 624.2 L 874.6 626.9 L 874.8 627.6 L 875.5 627.3 L 875.9 627.2 Z M 871 619.7 L 871.3 623.7 L 869.1 626.9 L 869.6 628.9 L 869.2 629.9 L 868.3 630.8 L 867.6 630.8 L 866.9 630.6 L 865.6 629.9 L 865.3 630.7 L 864.3 630.6 L 863.9 629.7 L 864.7 626.9 L 865.7 625.8 L 865.6 624.7 L 864.7 622.4 L 865.3 621.1 L 867.7 620.2 L 869.8 619.1 L 870.4 618.8 L 871 619.7 Z M 860.2 627.2 L 860.5 628.2 L 860.2 631.5 L 859.2 631.9 L 857.4 630.2 L 856.6 628.7 L 856.8 627.9 L 857.3 627.2 L 857.6 627 L 857.5 626.2 L 858.2 625.9 L 859 625.9 L 859.6 626.9 L 860.2 627.2 Z M 874.6 609.7 L 875.5 608.9 L 878.4 609.2 L 878.9 609.8 L 878.8 611 L 877.3 612.8 L 876.3 612.7 L 875 611.5 L 874.6 610.2 L 874.6 609.7 Z M 865 597.5 L 864.5 598 L 864.4 599.6 L 863.6 601.9 L 863.5 602.6 L 863.5 603.3 L 864 604 L 864.7 604.5 L 865.5 604.7 L 866.3 605.2 L 867.8 606.9 L 868.5 607.4 L 869 608 L 869 609 L 869.6 609.5 L 870.3 610.5 L 871.2 610.8 L 871.6 610.5 L 871.9 610.1 L 872.7 610.2 L 873.2 610.9 L 873.4 611.8 L 873.5 612.8 L 873.5 614.6 L 873.1 615.3 L 872.2 615.3 L 870.7 614.5 L 870.7 615.1 L 870.8 615.6 L 870 615.8 L 869.1 615.7 L 866.9 615.8 L 862.8 616.9 L 861.3 617.6 L 860.4 618.8 L 860.3 619.7 L 860.7 621.5 L 860.1 622.1 L 858.3 622.4 L 855.6 621.9 L 854.1 621.4 L 853.2 621 L 852 619.8 L 851.6 618.2 L 852.4 613.6 L 852.7 613 L 853.1 612.5 L 853.5 611.6 L 853.6 610.7 L 852.4 609.4 L 850.5 609 L 848.9 608 L 842.7 602.3 L 842.4 601.8 L 842.3 600.8 L 842.6 600 L 844.6 596.9 L 844.9 596.3 L 845.1 593.8 L 845.1 592.4 L 846.6 591.7 L 848.3 591.8 L 851.4 594 L 853.3 593.3 L 856.2 593.5 L 860.5 595.1 L 862.8 595.4 L 865 597.5 Z" />
<path class="admin1" d="M 883.6 570.5 L 883.8 571.2 L 884.1 571.8 L 884.6 572.4 L 884.3 573.6 L 883.3 573.7 L 882.6 573.2 L 882.6 570.9 L 883.3 570.5 L 883.6 570.5 Z M 856.4 553.6 L 857.4 553.4 L 858.1 554.1 L 857.7 554.9 L 857.2 554.7 L 855.8 554.7 L 855.2 554.8 L 854.6 555.3 L 854.2 555.3 L 854.5 554.6 L 855.7 553.4 L 856.4 553.6 Z M 881.8 566.3 L 882.7 566.7 L 883.3 567.1 L 883.6 567.9 L 883 569.6 L 882 570.4 L 880.8 570.5 L 880.2 569.5 L 879.3 569.4 L 878.8 571.6 L 878.5 571.9 L 877.8 572.2 L 877.1 571.6 L 877 571.3 L 877.9 570.3 L 877.4 567.4 L 876.7 567.9 L 874.8 570.6 L 873.4 571.8 L 872.9 571.2 L 872.1 569.4 L 872.5 567 L 873.6 565.5 L 874.6 565.6 L 877.5 565.1 L 878.4 565.3 L 878.7 566.3 L 878.1 567.1 L 878.8 568.7 L 880.3 566.6 L 881.8 566.3 Z M 876.2 575.9 L 876.4 575.3 L 876.7 574.9 L 877.2 574.6 L 877.4 575.3 L 876.3 576.6 L 876.2 575.9 Z M 887.2 576.3 L 888.2 577.5 L 888.5 578.1 L 887.5 578.1 L 887.1 576.9 L 887.2 576.3 Z M 821.8 560.1 L 823.1 558.4 L 824 557.7 L 825.2 559 L 826.1 560.5 L 826.1 559.1 L 825.9 557.8 L 825 554.6 L 824.2 548.5 L 824.4 547.9 L 825.2 548 L 826 547.5 L 826.4 546.5 L 825.6 544.2 L 825.5 543.4 L 827.2 540.2 L 828.5 539 L 829.1 538.3 L 829.4 536.4 L 830.1 535.6 L 830.9 535.1 L 832.1 533.8 L 832.7 532.1 L 833.1 531.9 L 833.5 531.9 L 834.2 533.3 L 835 534 L 836.5 534.4 L 837.9 533.9 L 838.2 533.1 L 838.7 532.5 L 839.5 531.8 L 840.2 531 L 841 529.3 L 842 527.7 L 842.7 527.1 L 843.5 526.8 L 844.4 526.5 L 845.3 526.5 L 847.3 527.5 L 848.4 527.7 L 849.6 527.7 L 850.3 527.8 L 850.9 528.3 L 851.4 529.2 L 852 530 L 852.6 530.4 L 853.2 530.5 L 857.5 530.2 L 861.2 531.1 L 862.6 531.2 L 860.3 532.5 L 859.4 532.6 L 857.1 532.1 L 851.9 534 L 849.9 533.8 L 848.7 534.3 L 847.7 535.9 L 846.5 536.5 L 848 538 L 849.2 538.2 L 849.2 539.6 L 844.2 540.3 L 842.6 540.2 L 839.4 539.1 L 837.5 538.9 L 835.6 539.2 L 833.9 540.2 L 833.3 540.8 L 831.5 543 L 830.5 544.5 L 829.7 546.5 L 829.1 548.5 L 828.7 550.2 L 828.7 551.9 L 829 553.8 L 829.5 555.7 L 830 557.2 L 832.2 560.6 L 832.7 561.1 L 835.1 562 L 836.5 563.3 L 837.9 566.7 L 838.9 568.4 L 839.8 568.4 L 840.9 568.3 L 842.7 568.5 L 844.6 569 L 846.3 567.9 L 847.3 565.9 L 848.3 564.5 L 850.7 561.7 L 852.1 560.4 L 853 560 L 853.9 560.2 L 854.6 560.9 L 855.5 561.5 L 857.3 561.8 L 859.1 561.6 L 861 560.7 L 861.7 560.2 L 862.3 559.4 L 863.9 558.9 L 867.8 558.9 L 869.8 559.1 L 873.3 558.8 L 873.3 558.3 L 872.6 557.8 L 872.4 557.4 L 873.1 557.1 L 875.4 556.4 L 877.7 556 L 879.4 556.3 L 881 557.2 L 881.6 558.1 L 881.8 559.2 L 881.2 562.1 L 880.9 562.7 L 879.7 563.1 L 878.6 562.7 L 877.4 561.2 L 875.8 560.7 L 873.6 561.1 L 872.8 561.5 L 872.1 562.1 L 870.8 563.6 L 869.7 565.4 L 867.4 568 L 864.7 570.4 L 863.4 571.3 L 862 571.9 L 857.4 573.4 L 856.1 574.6 L 855.2 576 L 854.1 576.5 L 852.9 576.7 L 852 576.4 L 850.2 575.6 L 849.5 576.3 L 849.4 577.3 L 850.4 577.7 L 851.8 578.9 L 853 580.5 L 853.7 580.9 L 855.3 581.4 L 856 581.9 L 857.2 583.3 L 859.1 586.6 L 859.8 588.4 L 860.8 589.8 L 864.1 592.3 L 864.3 592.9 L 864.1 593.8 L 864.3 594.5 L 865.5 595.9 L 865.7 596.8 L 865 597.5 L 862.8 595.4 L 860.5 595.1 L 856.2 593.5 L 853.3 593.3 L 856 590.6 L 856.3 588.6 L 855.5 587.6 L 853.9 586.8 L 851 584.2 L 849.5 583.6 L 841 581.9 L 838.2 579.8 L 837.1 578.6 L 835.5 576.1 L 833 576.6 L 830.9 576 L 829.3 576 L 826.5 577.5 L 825.8 576.2 L 826.1 574.9 L 825.8 574 L 824.2 572.2 L 823.7 569.8 L 822.9 568.8 L 820.7 567.8 L 821.2 566.1 L 822.3 565 L 821.9 563.5 L 821.8 560.1 Z" />
<path class="admin1" d="M 1120.3 674 L 1121.8 676.5 L 1121.8 677.3 L 1121 677.5 L 1117.1 677.1 L 1116.7 676.4 L 1116.7 676.1 L 1117.5 675.5 L 1118.4 674.4 L 1119.7 674 L 1120.3 674 Z M 1088 574 L 1089.5 574.3 L 1090.7 575.1 L 1087.9 575.6 L 1086.5 576.2 L 1084 576.5 L 1081.9 576.2 L 1080.4 576.5 L 1079.9 576 L 1077.6 575.4 L 1074.8 574.3 L 1068.9 573 L 1068.6 572.2 L 1068.7 571.8 L 1074.8 572.6 L 1076.5 572.5 L 1080 572.8 L 1082.9 573.8 L 1088 574 Z M 1060.7 563.1 L 1061.3 563.2 L 1060.8 564.4 L 1060.1 564.7 L 1059.2 564.4 L 1058.4 563.2 L 1058.7 562.3 L 1059.6 561.7 L 1060.4 562.3 L 1060.7 563.1 Z M 1081.3 563.7 L 1082.7 564.1 L 1081.6 565.3 L 1079.4 566 L 1078.6 566 L 1076.9 565.3 L 1075.5 565.4 L 1074.4 564.5 L 1074.2 563.1 L 1072.9 559.9 L 1071.4 560.8 L 1069.5 559.3 L 1069 559.3 L 1068.8 559.6 L 1068 559.1 L 1067.4 558.1 L 1067.3 557.2 L 1070.6 557.8 L 1071.8 557.8 L 1073 558.5 L 1074.4 558.2 L 1075.2 558.4 L 1077.9 560.7 L 1079.3 562.3 L 1081.3 563.7 Z M 1119.9 661.8 L 1120.4 662.2 L 1121.9 663.7 L 1122.8 664.9 L 1123.3 666.6 L 1121.8 669.5 L 1120.1 672.2 L 1117.4 674.4 L 1116.2 675.5 L 1112.5 677.6 L 1107.6 677.2 L 1105.9 677.2 L 1103.1 677.7 L 1102.5 677.3 L 1103 675.4 L 1105.3 670.3 L 1108 665.7 L 1109.2 664.6 L 1110.8 663.5 L 1112.5 662.6 L 1116.3 661.7 L 1119.9 661.8 Z M 1059.3 613.3 L 1065.5 605.5 L 1049.8 599.9 L 1049.8 598.5 L 1051 596.6 L 1052.8 594.9 L 1052.7 594.1 L 1056.4 591.1 L 1056.7 592.7 L 1057.8 592.8 L 1058.9 592.3 L 1059.1 593.4 L 1059.1 595.4 L 1059.6 596.9 L 1060.1 597.6 L 1061.9 598.9 L 1062.8 599.1 L 1065.2 599.4 L 1067.1 599.5 L 1068.9 599 L 1070 597.9 L 1071.1 596.6 L 1074.7 593.6 L 1075.7 592.2 L 1076.7 590 L 1077.1 589.6 L 1080.6 587.2 L 1081 586.4 L 1081.6 584.8 L 1082.3 583.2 L 1082.9 582.4 L 1086.4 581.7 L 1090 581.2 L 1093.5 579.8 L 1095 578.6 L 1095.1 577.8 L 1094.3 576.3 L 1094.3 575.7 L 1095.1 575.1 L 1098.3 573.3 L 1102 571.4 L 1104.9 570.1 L 1106.5 570.2 L 1108 571.3 L 1109.6 572.2 L 1118 574.9 L 1119.3 575.8 L 1120.5 576.9 L 1122.2 577.7 L 1124 578 L 1125.7 578.8 L 1127.4 579.7 L 1130.9 581.5 L 1135.7 583.6 L 1136.9 583.7 L 1141.4 583.6 L 1142.1 584 L 1142.8 584.6 L 1143.5 584.7 L 1148.6 585.1 L 1149.4 585.5 L 1150.1 586.1 L 1150.6 587.6 L 1154.1 587.6 L 1154.1 590.6 L 1154.1 593.8 L 1154.1 597 L 1154.1 600.1 L 1154.1 603.3 L 1154.1 606.4 L 1154.1 609.6 L 1154.1 612.7 L 1154.1 615.9 L 1154.1 619 L 1154.1 622.2 L 1154.1 625.4 L 1154.1 628.5 L 1154.1 631.7 L 1154.1 634.8 L 1154.1 638 L 1154.1 641.1 L 1154.1 644.3 L 1154.1 645.6 L 1153.6 647.3 L 1152.5 649.7 L 1152.3 651.7 L 1153.2 653.3 L 1154.1 654.3 L 1154.1 656.9 L 1154.1 660.1 L 1154.1 663.2 L 1154.1 666.4 L 1154.1 669.5 L 1154.1 672.7 L 1154.1 675.8 L 1154.1 679 L 1154.1 682.2 L 1154.1 685.3 L 1154.1 688.7 L 1153.3 688.1 L 1151.2 686.4 L 1149.2 684.4 L 1148 682.6 L 1146.6 680.9 L 1140.5 676 L 1139 674.3 L 1138.7 673.9 L 1138.8 673.5 L 1139.5 672.6 L 1140.8 670.1 L 1139.5 671.7 L 1137.9 672.9 L 1135.7 673 L 1133.5 673.2 L 1131.5 674 L 1129.4 674.2 L 1128.4 673.9 L 1127.8 673 L 1127.4 672 L 1127.3 671 L 1126.4 672.6 L 1124.7 673.5 L 1122.4 675.4 L 1121.7 675 L 1121.3 674.3 L 1121.2 673.6 L 1121.6 672.8 L 1122 671.9 L 1122.4 670 L 1123.5 668.8 L 1124.1 666.5 L 1124.6 665.7 L 1124.8 664.9 L 1124.2 664 L 1123.2 663.7 L 1122.5 663.1 L 1121.7 661.6 L 1121.2 661.1 L 1120.2 660.4 L 1119.5 659.7 L 1120.3 659.1 L 1121.3 658.9 L 1122.2 658.9 L 1123.7 659.3 L 1124.4 659.3 L 1126.2 658.7 L 1125.2 658.9 L 1124.2 658.9 L 1121 657.9 L 1119.1 656.9 L 1117.2 654.8 L 1117.2 654.4 L 1118.5 654 L 1121.3 653.6 L 1120.5 652.5 L 1119.2 651.6 L 1118.7 650 L 1117.9 649 L 1116 647.3 L 1114.7 645.6 L 1113.6 642.1 L 1112.5 639.5 L 1112.8 638.5 L 1113.7 637.8 L 1112.3 637.8 L 1111 637.3 L 1111.7 636 L 1113.2 635.2 L 1111.8 635.4 L 1110.5 635.8 L 1109.9 635.9 L 1109.3 635.7 L 1108.9 635.2 L 1108.9 634.5 L 1109.1 633.2 L 1108.9 632 L 1107.7 631.4 L 1106.7 630.5 L 1106.2 630.2 L 1105.4 630.2 L 1104.7 629.6 L 1104.2 628.7 L 1097.1 625 L 1096.7 623.9 L 1096.1 624.4 L 1095.4 624.6 L 1094.6 624 L 1093.8 623.6 L 1092.8 623.6 L 1092 623.3 L 1091.1 623.1 L 1090.2 623.1 L 1086.5 621.9 L 1083 620.1 L 1080.1 619.3 L 1078.4 618.3 L 1076.5 617.5 L 1072.5 616.6 L 1068.3 616.1 L 1066.8 616.1 L 1065.6 616.2 L 1064.4 616.2 L 1059.3 613.3 Z" />

<g class="city"><circle cx="624.0407296099114" cy="642.9350313874961" r="5" /><text x="636.0407296099114" y="646.9350313874961">Jakarta</text></g>
<g class="city"><circle cx="211.93401142340542" cy="343.9083312575073" r="5" /><text x="223.93401142340542" y="347.9083312575073">Chennai</text></g>
<g class="city"><circle cx="169.71369406402943" cy="345.7708911946628" r="5" /><text x="181.71369406402943" y="349.7708911946628">Bengaluru</text></g>
<g class="city"><circle cx="622.108102289189" cy="380.0721816873181" r="5" /><text x="634.108102289189" y="384.0721816873181">Ho Chi Minh City</text></g>
<g class="city"><circle cx="577.8835380016967" cy="527.0234776695987" r="5" /><text x="589.8835380016967" y="531.0234776695987">Singapore</text></g>
<g class="city"><circle cx="715.9540337115905" cy="659.6186124841734" r="5" /><text x="727.9540337115905" y="663.6186124841734">Surabaya</text></g>
<g class="city"><circle cx="523.1753005509782" cy="463.0930593601437" r="5" /><text x="535.1753005509782" y="467.0930593601437">George Town</text></g>
<g class="city"><circle cx="635.5361112193295" cy="654.9742501370657" r="5" /><text x="647.5361112193295" y="658.9742501370657">Bandung</text></g>
<text class="map-title" x="80" y="105">Indonesia Political Study Map</text>
<text class="map-subtitle" x="80" y="145">Capital: Jakarta | Continent: Asia</text>
  <text class="footer" x="80" y="1036">Made with Natural Earth. Free vector and raster map data @ naturalearthdata.com.</text>
</svg>
