<?xml version="1.0" encoding="UTF-8"?>
<svg xmlns="http://www.w3.org/2000/svg" width="1600" height="1100" viewBox="0 0 1600 1100" role="img" aria-labelledby="title desc">
  <title id="title">Indonesia Physical Study Map</title>
  <desc id="desc">Made with Natural Earth. Free vector and raster map data @ naturalearthdata.com.</desc>
  <defs>
    <linearGradient id="terrain" x1="0" x2="1" y1="0" y2="1">
      <stop offset="0%" stop-color="#6c8c53" />
      <stop offset="42%" stop-color="#d5c487" />
      <stop offset="72%" stop-color="#b88b5f" />
      <stop offset="100%" stop-color="#f1f5ee" />
    </linearGradient>
    <filter id="softShadow" x="-10%" y="-10%" width="120%" height="120%">
      <feDropShadow dx="0" dy="10" stdDeviation="12" flood-color="#0f172a" flood-opacity="0.16" />
    </filter>
    <style>
      .neighbor { fill: #ffffff; stroke: #94a3b8; stroke-width: 1.2; opacity: 0.72; }
      .country { fill: url(#terrain); stroke: #1f2937; stroke-width: 4; filter: url(#softShadow); }
      .admin1 { fill: none; stroke: #64748b; stroke-width: 1.1; stroke-dasharray: 6 7; opacity: 0.75; }
      .river { fill: none; stroke: #1d9bd1; stroke-width: 3; stroke-linecap: round; opacity: 0.88; }
      .lake { fill: #8ed1ea; stroke: #0ea5e9; stroke-width: 1.5; opacity: 0.8; }
      .city circle { fill: #ef4444; stroke: #ffffff; stroke-width: 2; }
      .city text, .terrain-label { fill: #172033; font: 700 24px system-ui, sans-serif; paint-order: stroke; stroke: #ffffff; stroke-width: 5; stroke-linejoin: round; }
      .map-title { fill: #0f172a; font: 800 46px system-ui, sans-serif; }
      .map-subtitle { fill: #475569; font: 600 24px system-ui, sans-serif; }
      .footer { fill: #64748b; font: 500 18px system-ui, sans-serif; }
    </style>
  </defs>
  <rect width="100%" height="100%" fill="#d8edf0" />
  <rect x="40" y="40" width="1520" height="1020" rx="32" fill="#ffffff" opacity="0.54" />
  <path class="neighbor" d="M 1759.8 796.5 L 1759.8 804.1 L 1750 807.9 L 1740.1 811.2 L 1738.1 805.4 L 1745.8 802.2 L 1750.7 801.4 L 1759.8 796.5 Z M 1730.7 818.8 L 1734.6 816.3 L 1739.9 820.8 L 1737.4 828.9 L 1727.8 831 L 1719.2 829.1 L 1717.7 822.3 L 1723.7 816.9 L 1730.7 818.8 Z M -3825 795.8 L -3826.9 803.3 L -3828.2 804.1 L -3828.2 796.5 L -3825 795.8 Z" />
<path class="neighbor" d="M 1154.5 587.5 L 1181.4 598.2 L 1210.1 607.1 L 1220.8 615 L 1229.4 622.8 L 1231.8 632 L 1257.7 641.6 L 1261.4 649.8 L 1247.2 651.5 L 1250.6 661.8 L 1264.4 672 L 1274.5 688.4 L 1283.4 687.9 L 1282.8 694.8 L 1294.8 697.4 L 1290.1 700.4 L 1306.6 706.9 L 1304.9 711.4 L 1294.6 712.5 L 1290.8 708.5 L 1277.5 706.7 L 1261.8 704.4 L 1249.7 694.5 L 1240.9 685.9 L 1232.8 672.3 L 1212.6 665.6 L 1199.4 670 L 1190 675.1 L 1191.9 686.6 L 1179.8 691.9 L 1171.1 689.3 L 1155 688.7 L 1154.7 638.1 L 1154.5 587.5 Z M 1335.2 603.9 L 1341.1 608.9 L 1342.9 617 L 1338.1 621.1 L 1335.1 611.9 L 1331.5 605.9 L 1324.5 600.9 L 1315.7 594.2 L 1304.5 589.7 L 1308.8 585.9 L 1317.1 590.3 L 1322.4 593.7 L 1328.9 597.4 L 1335.2 603.9 Z M 1314.4 637.8 L 1305.9 641.6 L 1297.9 645.2 L 1289.7 645.2 L 1276.9 640.7 L 1268.1 636.3 L 1269.4 631.5 L 1283.3 633.8 L 1291.8 632.6 L 1294.1 625.1 L 1296.3 624.8 L 1297.9 633 L 1306.7 631.8 L 1311.1 626.5 L 1319.8 621 L 1318 611.8 L 1327.3 611.5 L 1330.5 614.1 L 1330.2 622.7 L 1325 632.2 L 1316.8 633.4 L 1314.4 637.8 Z M 1368.1 630 L 1372.8 633.5 L 1380.3 643.4 L 1387.6 648.6 L 1385.4 653 L 1381.1 654.5 L 1374.4 648.6 L 1367.6 638.7 L 1364.2 626.9 L 1366.4 625.4 L 1368.1 630 Z" />
<path class="neighbor" d="M 905.6 685.2 L 907.5 681.5 L 920.8 678 L 931.6 677.5 L 936.5 675.5 L 942.4 677.5 L 936.7 681.7 L 920.5 688.5 L 907.5 692.9 L 907.2 688.2 L 905.6 685.2 Z" />
<path class="neighbor" d="M 558.2 358 L 554.5 339.2 L 564.4 326.3 L 584.5 323.3 L 599.1 325.6 L 611.9 331.7 L 618.9 321 L 632.7 326.7 L 636.3 337 L 634.3 355.6 L 608.3 367.6 L 615.1 377 L 598.8 378.1 L 585.3 384.3 L 572.3 382.1 L 566 374 L 558.2 358 Z" />
<path class="neighbor" d="M 599.1 325.6 L 584.5 323.3 L 564.4 326.3 L 554.5 339.2 L 558.2 358 L 544.3 350.8 L 531 351.1 L 533.3 338.9 L 519.6 339 L 518.4 356.1 L 510 378.8 L 504.9 392.5 L 506 403.7 L 516.1 404.2 L 522.4 418.4 L 525.2 431.8 L 533.9 440.7 L 543.3 442.5 L 551.3 450.6 L 546.2 456.9 L 536 458.8 L 534.8 450.8 L 522.1 444 L 519.4 446.8 L 513.3 440.8 L 510.6 433.1 L 502.4 424.4 L 494.8 417 L 492.3 426.1 L 489.3 417.5 L 491 407.8 L 495.6 392.9 L 503.1 377 L 511.7 362.5 L 505.6 348.4 L 505.8 341.2 L 504.1 332.5 L 493.7 320.2 L 490 312.4 L 495.4 309.5 L 501 296 L 494.7 285.8 L 484.8 274.4 L 477.3 260.8 L 483.9 258 L 491 241.2 L 501.9 240.5 L 511 233.8 L 519.9 230.2 L 526.6 235 L 527.5 244.3 L 538 245 L 534.1 261.4 L 534.5 275.3 L 550.9 266 L 555.5 268.8 L 564.6 268.3 L 567.7 262.9 L 579.5 264 L 591.3 276.6 L 592.2 291.9 L 604.8 305.4 L 604.1 318.6 L 599.1 325.6 Z" />
<path class="neighbor" d="M 519.9 230.2 L 511 233.8 L 501.9 240.5 L 491 241.2 L 483.9 258 L 477.3 260.8 L 484.8 274.4 L 494.7 285.8 L 501 296 L 495.4 309.5 L 490 312.4 L 493.7 320.2 L 504.1 332.5 L 505.8 341.2 L 505.6 348.4 L 511.7 362.5 L 503.1 377 L 495.6 392.9 L 494.1 381.4 L 498.9 369.5 L 493.7 360.3 L 494.9 343.4 L 488.6 335.4 L 483.6 316.8 L 480.8 297.2 L 474.1 284.4 L 463.8 292.1 L 446.2 303.2 L 437.5 301.8 L 427.9 298.2 L 433.2 278.9 L 430 264.4 L 417.8 246.5 L 419.7 240.9 L 410.6 238.9 L 399.6 226.3 L 398.6 213.8 L 404 216.1 L 404.3 205 L 412 201.3 L 410.3 194.7 L 413.9 189.4 L 414.5 173.4 L 426.6 176.9 L 433.5 164.1 L 434.3 156.5 L 442.9 143.5 L 442.4 134.6 L 462.5 123.9 L 473.6 126.7 L 472.3 117.2 L 477.7 114.3 L 476.6 108.4 L 485.7 107.3 L 490.8 116.4 L 497.6 120.1 L 498.1 132 L 497.4 144.8 L 482.7 157.8 L 480.9 176.2 L 497.3 173.6 L 501 187.9 L 510.8 190.9 L 506.3 203.8 L 517.8 209.6 L 524.5 212.5 L 535.9 208 L 536.4 214.4 L 523.2 224.5 L 519.9 230.2 Z" />
<path class="neighbor" d="M 585.3 384.3 L 598.8 378.1 L 615.1 377 L 608.3 367.6 L 634.3 355.6 L 636.3 337 L 632.7 326.7 L 635.5 311.2 L 631.6 300.2 L 619.8 289.4 L 610 275.7 L 597.1 257.4 L 578.5 248.1 L 583 242.5 L 592.9 238.4 L 586.9 224.9 L 567.8 224.8 L 560.8 210.7 L 551.8 198.4 L 560.1 194.6 L 572.5 194.7 L 587.6 192.9 L 600.8 184.6 L 608.3 190.5 L 622.5 193.3 L 620 202.2 L 627.4 208.6 L 643 212.6 L 622.3 225.9 L 609.4 240.5 L 605.9 251.3 L 617.8 267.7 L 632.3 287.9 L 646.4 297.5 L 655.9 310 L 663 338.7 L 660.9 366 L 647.9 376.3 L 630.1 386.2 L 617.5 399.2 L 598.1 413.6 L 592.5 403.7 L 596.9 393.2 L 585.3 384.3 Z" />
<path class="neighbor" d="M 476.6 108.4 L 477.7 114.3 L 472.3 117.2 L 473.6 126.7 L 462.5 123.9 L 442.4 134.6 L 442.9 143.5 L 434.3 156.5 L 433.5 164.1 L 426.6 176.9 L 414.5 173.4 L 413.9 189.4 L 410.3 194.7 L 412 201.3 L 404.3 205 L 396.2 180.4 L 391.9 180.4 L 389.3 190.3 L 380.8 182.3 L 385.6 173.5 L 392.6 172.6 L 399.7 159.4 L 390.8 156.8 L 376.4 157 L 361.6 154.9 L 360.2 144.1 L 352.8 143.3 L 340.5 136.6 L 335.1 147.1 L 346.3 155.4 L 336.6 161.1 L 333.1 166.8 L 342.7 171 L 340 180.3 L 345.4 192 L 347.8 204.8 L 345.6 210.4 L 335 210.2 L 315.9 213.5 L 316.8 225.1 L 308.5 234.3 L 286.2 244.8 L 268.8 263 L 257.1 272.8 L 241.7 283 L 241.6 290.1 L 233.9 294 L 219.9 299.5 L 212.7 300.3 L 208 312.2 L 211.2 332.4 L 212.1 345.2 L 205.5 360 L 205.4 386.4 L 197.4 387.1 L 190.3 398.9 L 195 404.1 L 180.9 408.5 L 175.7 419 L 169.4 423.5 L 154.7 409 L 147.5 387.3 L 141.6 371.6 L 136.2 364.3 L 127.9 349.3 L 124.1 329.9 L 121.4 320.2 L 107.3 298.9 L 100.8 268.8 L 96.2 249 L 96.2 230.2 L 93.2 215.6 L 70.6 224.9 L 59.7 223.1 L 39.4 204.2 L 46.9 198.6 L 42.3 192.5 L 24.1 179.4 L 34.4 169 L 68.6 169.1 L 65.5 155.7 L 56.8 147.9 L 55 135.9 L 44.9 128.9 L 62 112.7 L 80 113.8 L 96.2 97.6 L 106 81.8 L 121 66.2 L 120.8 55.2 L 134 46.2 L 121.5 38.5 L 116.1 28 L 110.6 14.4 L 118.2 7.7 L 141.8 11.5 L 159.1 9.2 L 174.1 -3.8 L 190.7 14.4 L 189.2 27 L 195.3 35 L 194.8 42.9 L 183.7 40.8 L 188 57.9 L 203.3 67.8 L 224.9 78.6 L 215 85.7 L 209 100.2 L 224 106 L 238.7 113.7 L 258.9 122.4 L 280.2 124.4 L 289.1 132.3 L 301.1 133.8 L 319.8 137.4 L 332.7 137.1 L 334.5 131 L 332.5 121.1 L 333.7 114.4 L 343.1 111.2 L 344.4 123.4 L 344.8 126.5 L 358.9 132.4 L 368.6 130 L 381.7 131 L 394.4 130.5 L 395.5 121 L 389.2 116 L 401.7 114.1 L 415.8 102.6 L 433.7 92.7 L 446.7 96.5 L 457.8 90 L 465.1 99.6 L 459.8 106.1 L 476.6 108.4 Z" />
<path class="neighbor" d="M 1482.3 709.8 L 1486.6 715.2 L 1475.8 715.1 L 1469.9 705.5 L 1479.2 709.3 L 1482.3 709.8 Z M 1475.5 696.1 L 1473.1 699 L 1461.6 685.5 L 1458.4 676.3 L 1463.7 676.3 L 1469.3 688.7 L 1475.5 696.1 Z M 1462.6 700.4 L 1456.6 700.7 L 1447.1 699.1 L 1443.8 696.8 L 1444.8 690.6 L 1455 693 L 1460.1 696.3 L 1462.6 700.4 Z M 1443.8 671.6 L 1447.5 676.5 L 1448.1 679.7 L 1435.9 673.1 L 1427.5 667.5 L 1421.6 662.3 L 1423.9 660.7 L 1431.1 664.5 L 1443.8 671.6 Z M 1405 656.1 L 1411.2 661.2 L 1408.1 662.1 L 1401.3 658.5 L 1394.9 652.1 L 1395.7 649.6 L 1405 656.1 Z" />
<path class="neighbor" d="M 1258.3 1180.6 L 1267.6 1181.6 L 1268.7 1200 L 1263.4 1205.4 L 1261.8 1217.9 L 1256.4 1213.6 L 1245.6 1224.4 L 1242.4 1223.6 L 1232.8 1223.1 L 1223.3 1209.8 L 1221.1 1199.6 L 1212.2 1186.1 L 1212.6 1178.9 L 1222.7 1180.3 L 1237.7 1185.7 L 1246.2 1183.5 L 1258.3 1180.6 Z M 923.9 1047.2 L 907.5 1055.1 L 894 1058.7 L 891 1066.9 L 885.3 1073.2 L 872.1 1073.6 L 862.4 1074.9 L 848.7 1072.1 L 837.5 1073.8 L 826.9 1074.5 L 817.6 1082.8 L 813.1 1082.1 L 805.3 1086.5 L 797.9 1091.4 L 786.5 1090.8 L 776.1 1090.8 L 759.7 1080.9 L 751.3 1077.9 L 751.7 1069 L 759.4 1066.9 L 762 1063.4 L 761.4 1057.8 L 763.3 1047 L 761.6 1037.8 L 753.4 1022.1 L 750.9 1013.3 L 751.5 1004.4 L 745.3 994.3 L 744.9 989.8 L 738.1 983.6 L 736.1 971.4 L 727.3 959.1 L 725.1 952.5 L 731.9 959.2 L 726.7 944.8 L 734.4 949.3 L 739 955.3 L 738.7 947.4 L 731 935.2 L 729.6 930.3 L 726 925.6 L 727.6 916.7 L 730.8 912.8 L 732.9 905.1 L 731.3 896 L 737.7 884.8 L 738.9 896.6 L 745.4 886 L 758 880.8 L 765.6 874.2 L 777.5 868.5 L 784.5 867.2 L 788.8 869.2 L 801 863.4 L 810.4 861.7 L 812.8 858.3 L 816.9 856.8 L 825.5 857.2 L 841.8 852.7 L 850.2 845.8 L 854.2 837.5 L 863.3 829.6 L 864 823.4 L 864.4 815 L 875.3 801.8 L 881.8 815.2 L 888.4 812.1 L 882.9 804.7 L 887.8 797.2 L 894.6 800.6 L 896.5 788.8 L 905 781.1 L 908.7 775 L 916.5 772.4 L 916.8 768 L 923.6 769.8 L 923.9 765.9 L 930.7 763.7 L 938.2 761.6 L 949.7 768.7 L 958.3 777.9 L 968 778 L 977.9 779.5 L 974.6 771 L 982 758.5 L 989 754.5 L 986.6 750.6 L 993.3 741.7 L 1002.7 736.2 L 1010.7 738.1 L 1023.7 735.2 L 1023.4 727.2 L 1012.1 722.1 L 1020.3 719.9 L 1030.6 723.7 L 1038.8 730.1 L 1051.9 734 L 1056.4 732.5 L 1066 737.3 L 1075 732.8 L 1080.9 734.2 L 1084.5 731.2 L 1091.6 738.9 L 1087.5 747.2 L 1081.6 753.4 L 1076.3 754 L 1078.1 760.2 L 1073.5 767.9 L 1068 775.5 L 1069.1 779.9 L 1081.4 788.5 L 1093.4 793.5 L 1101.4 798.8 L 1112.6 808 L 1117 808 L 1125.1 812 L 1127.5 816.8 L 1142.3 822 L 1152.5 816.7 L 1155.6 808.4 L 1158.7 801.5 L 1160.7 793 L 1165.4 780.7 L 1163.2 773.1 L 1164.3 768.6 L 1162.5 759.7 L 1164.6 748.1 L 1167.6 744.9 L 1165.1 739.7 L 1168.9 731.5 L 1171.8 723 L 1172.2 718.5 L 1178 712.7 L 1182.4 720.3 L 1183.5 730 L 1187.3 731.9 L 1188 738.4 L 1193.6 746.3 L 1194.8 755.1 L 1194.2 760.8 L 1199.8 772.9 L 1209.8 767.1 L 1214.9 773.7 L 1222.4 779.7 L 1220.8 786.6 L 1224.1 799.9 L 1226.5 807.7 L 1230.4 809.6 L 1234.6 822.8 L 1233.1 830.9 L 1238.1 841.4 L 1254.9 849.5 L 1265.9 856.9 L 1276.3 863.6 L 1274.3 867.4 L 1283.1 877.1 L 1289.2 893.9 L 1295.4 890.5 L 1301.7 897.2 L 1305.5 894.9 L 1308.1 911.3 L 1319.2 920.8 L 1326.4 926.8 L 1338.5 939.3 L 1342.9 951.8 L 1343.3 960.7 L 1342.2 970.3 L 1349.6 983.5 L 1348.7 997.2 L 1346 1004.4 L 1341.8 1018.2 L 1342.1 1027.1 L 1339.1 1038.3 L 1332.2 1052.4 L 1320.7 1060 L 1315 1072 L 1309.9 1079.7 L 1305.3 1093.1 L 1299.3 1100.8 L 1295.3 1112.4 L 1293.3 1123.1 L 1294.1 1128 L 1285.2 1133.4 L 1267.9 1134 L 1253.5 1140.4 L 1246.4 1146.4 L 1237 1153 L 1224.2 1146.2 L 1214.7 1143.4 L 1217.1 1135.4 L 1208.6 1138.3 L 1195 1149.5 L 1181.6 1145.3 L 1172.8 1142.9 L 1163.9 1141.8 L 1148.9 1137.3 L 1138.8 1127.7 L 1136 1115.9 L 1132.3 1108.1 L 1124.7 1101.8 L 1109.8 1099.9 L 1114.9 1092.4 L 1111.1 1080.9 L 1103.5 1091.6 L 1089.7 1094.4 L 1097.9 1085.9 L 1100.2 1076.9 L 1106.2 1069.3 L 1105 1057.8 L 1092.3 1071 L 1082.6 1076.4 L 1076.7 1088.7 L 1064.6 1082.3 L 1065.1 1074.1 L 1055.3 1062.8 L 1047.2 1057 L 1050.1 1053.4 L 1030.2 1044 L 1019.2 1043.6 L 1004.3 1036 L 976.5 1037.5 L 956.4 1043 L 938.8 1048.2 L 923.9 1047.2 Z" />
<path class="neighbor" d="M 235.4 430.3 L 233 446.5 L 226.5 450.9 L 213 454.5 L 205.6 442.1 L 202.9 419.8 L 209.9 394.6 L 220.6 403.3 L 227.9 414.2 L 235.4 430.3 Z" />
<path class="neighbor" d="M 841.5 349.9 L 833.5 338.1 L 846.8 338.7 L 852.2 344.3 L 848.1 357.7 L 841.5 349.9 Z M 868.6 392.2 L 872.5 387.8 L 874.3 378.2 L 882.8 377.3 L 880.3 387.8 L 891.8 372.8 L 890.3 387.6 L 884.7 392.7 L 879.9 402.5 L 875 407.1 L 865.5 396.4 L 868.6 392.2 Z M 927.5 416.5 L 929.1 426.8 L 930 435.5 L 924.7 449.7 L 919 433.9 L 911.8 441.8 L 916.7 453.2 L 912.3 460.5 L 894 451.5 L 889.6 440.3 L 894.4 432.9 L 884.5 425.5 L 879.7 432 L 872.4 431.4 L 860.9 440 L 858.3 435.5 L 864.4 422.4 L 874.2 418 L 882.6 412.2 L 888.1 419.2 L 899.9 415 L 902.5 408 L 913.4 407.6 L 912.5 395.6 L 925.1 403 L 926.4 410.8 L 927.5 416.5 Z M 805.3 402.5 L 784.6 417.2 L 792.3 406.4 L 803.5 396.8 L 812.8 386.1 L 820.9 370.6 L 823.7 383.3 L 813.4 391.8 L 805.3 402.5 Z M 864.8 264.2 L 862.3 270.7 L 867.6 281.8 L 863.5 294.7 L 854.3 299.8 L 851.9 312.4 L 855.3 324.7 L 863.6 326.4 L 870.4 324.6 L 889.8 333.2 L 888.3 341.6 L 893.4 345.4 L 891.8 352.5 L 879.7 344.9 L 874 336.8 L 870 342.5 L 860.1 333.2 L 846 335.5 L 838.3 332 L 839.1 325.6 L 843.9 321.7 L 839.3 318.1 L 837.3 323.7 L 829.6 314.7 L 827.3 308 L 826.7 293.1 L 833 298.2 L 834.6 273.9 L 839.6 259.9 L 849 259.9 L 858.6 264.3 L 863.4 260.3 L 864.8 264.2 Z M 860.1 369.9 L 857.7 362.5 L 867.1 367.3 L 876.9 367.3 L 876.6 373.8 L 869.5 380.4 L 859.6 385.1 L 859 377.8 L 860.1 369.9 Z M 913.9 358.3 L 918.3 375.7 L 906.3 371.5 L 906.6 376.8 L 910.4 386.3 L 903 389.8 L 902.4 378.9 L 897.7 378.1 L 895.3 368.7 L 904.4 369.9 L 904.2 364.1 L 894.7 352.2 L 909.6 352.5 L 913.9 358.3 Z" />
<path class="neighbor" d="M 519.4 446.8 L 522.1 444 L 534.8 450.8 L 536 458.8 L 546.2 456.9 L 551.3 450.6 L 554.9 452 L 564 461.4 L 570.5 471.8 L 571.4 482.2 L 569.8 489.3 L 571.3 494.6 L 572.4 503.8 L 577.9 508.1 L 584 521.8 L 583.7 527.1 L 572.7 528.1 L 558 516.6 L 539.6 504.3 L 537.8 496.4 L 528.9 486 L 526.7 473.1 L 521.1 464.7 L 522.8 453.4 L 519.4 446.8 Z M 795.6 482.9 L 782.2 480.3 L 764.3 480.3 L 759 497.9 L 753 503.3 L 745 524.9 L 732.4 528.2 L 717.7 523.9 L 710.2 525.2 L 701.2 533.1 L 691.3 532 L 681.3 535.1 L 670.6 526.4 L 668.1 516 L 679.4 521.3 L 691.4 518.4 L 694.6 505.3 L 701.2 502.3 L 719.8 499 L 730.9 486.7 L 738.5 476.9 L 745.6 484.9 L 748.9 479.6 L 756.3 480.1 L 757.2 470.2 L 757.9 462.6 L 769.8 451.8 L 777.7 439.6 L 784 439.6 L 791.9 447.4 L 792.6 454.2 L 802.9 458.5 L 815.8 463.2 L 814.7 469.3 L 804.3 470 L 807.1 477.6 L 795.6 482.9 Z" />
<path class="neighbor" d="M 757.9 462.6 L 757.2 470.2 L 756.3 480.1 L 748.9 479.6 L 745.6 484.9 L 738.5 476.9 L 744.7 471.1 L 757.9 462.6 Z" />
<path class="lake" d="M 589 354.2 L 588.4 353.7 L 587.4 353 L 586.4 353 L 584.2 352.1 L 582.3 350.4 L 581.8 348.6 L 580.3 348.4 L 578.5 347.4 L 577.1 346.2 L 576.3 344.7 L 575.9 343.5 L 575.5 342.1 L 576 341.5 L 577.7 341.7 L 579.9 342.6 L 581.7 344.8 L 583.2 347.7 L 583.8 349 L 584.3 349.4 L 585.9 349.3 L 587 349.6 L 587.4 350.9 L 587.4 352 L 587.5 352.2 L 587.9 352.5 L 588.8 352.9 L 588.8 353.3 L 588.9 353.7 L 589.3 354.2 L 589 354.2 L 589 354.2 L 589 354.2 L 589 354.2 Z" />
<path class="lake" d="M 968.7 797.7 L 968.4 798 L 968.2 798.4 L 967.7 799 L 967.3 799.7 L 967.5 800.2 L 967.4 800.4 L 967.2 800.9 L 967.1 801.2 L 966.8 801.6 L 966.6 802.1 L 966.3 802.3 L 966.1 802.1 L 965.9 802 L 965.5 802 L 965.1 802.5 L 965 803.4 L 965.1 804.1 L 965 804.7 L 964.9 805.4 L 964.9 806.3 L 964.4 807.6 L 964.1 807.7 L 963.9 807.3 L 963.5 806.6 L 963 806 L 962.4 805.7 L 962.2 805.5 L 962 805.3 L 961.7 805 L 961.8 804.8 L 961.9 804.4 L 961.7 803.9 L 961 803.8 L 960.9 803.4 L 961.5 802.4 L 962.3 800.4 L 962.5 799.4 L 962.9 799.1 L 963.2 798.9 L 963.1 798.5 L 962.7 798 L 962.9 797.7 L 963.5 797.6 L 964.1 797.6 L 964.7 796.8 L 965.2 796.7 L 965.2 796.8 L 964.8 797.4 L 964.9 797.8 L 965 798.1 L 965.3 798.1 L 965.8 797.9 L 966.5 797.6 L 967.4 797.3 L 968.1 797.3 L 968.6 797.5 L 968.7 797.7 L 968.7 797.7 L 968.7 797.7 L 968.7 797.7 Z" />
<path class="lake" d="M 504.8 509.7 L 504.8 509.9 L 504 510.3 L 502.5 510.7 L 501.1 510.7 L 500.2 510.6 L 499.7 510.2 L 498.7 508.8 L 497.7 507.5 L 498.1 507.1 L 499.2 508.1 L 500.8 508.7 L 501.4 508.6 L 501.7 508.2 L 501.3 507.4 L 499.8 505.7 L 498.8 504.8 L 498.2 504.8 L 497.7 505.4 L 497.3 506.1 L 497 506 L 496 504.7 L 495.2 503.3 L 495.3 502.8 L 495.9 502.5 L 497 502.5 L 498 502.8 L 499.3 503.7 L 500.5 504.7 L 501.3 505.8 L 502.2 507.2 L 503.2 508.6 L 504.1 509.3 L 504.8 509.7 L 504.8 509.7 L 504.8 509.7 L 504.8 509.7 Z" />
<path class="country" d="M 1154.5 587.5 L 1154.7 638.1 L 1155 688.7 L 1141.2 675.9 L 1125.4 672.8 L 1121.6 677.2 L 1101.9 677.7 L 1108.5 665.1 L 1118.3 660.8 L 1114.2 643.9 L 1106.8 630.8 L 1076.7 617.7 L 1063.9 616.4 L 1040.6 602.1 L 1036 609.6 L 1030 611 L 1026.5 605.3 L 1026.5 598.5 L 1014.6 590.9 L 1031.3 585.3 L 1042.4 585.6 L 1041.1 581.5 L 1018.4 581.5 L 1012.2 572.2 L 998.4 569.4 L 991.8 561.7 L 1012.7 557.9 L 1020.7 552.9 L 1045.6 559.2 L 1048 565 L 1052.4 590.1 L 1068.4 599.4 L 1081.4 582.9 L 1099.2 573.6 L 1113 573.6 L 1126.3 579 L 1137.8 584.5 L 1154.5 587.5 Z M 905.6 685.2 L 907.2 688.2 L 907.5 692.9 L 897.4 704.5 L 884.1 707.9 L 882.2 706.1 L 883.6 700.8 L 890.3 691.3 L 905.6 685.2 Z M 1049.1 654.2 L 1047.6 642.5 L 1050.3 636.9 L 1053.6 631.6 L 1057.1 636.2 L 1057.1 643.6 L 1049.1 654.2 Z M 795.6 482.9 L 786.8 496.9 L 798.2 511.6 L 795.5 518.8 L 812.9 533.1 L 794.5 535 L 789.4 545.5 L 790 559.6 L 775.1 570.2 L 774.7 585.7 L 768.7 609.4 L 766.4 603.9 L 748.8 610.9 L 742.6 601.4 L 731.6 600.5 L 723.8 595.5 L 705.4 601.1 L 699.7 593.6 L 689.6 594.5 L 676.8 592.7 L 674.4 571.8 L 666.6 567.5 L 659.2 554.3 L 657 540.7 L 658.8 526.3 L 668.1 516 L 670.6 526.4 L 681.3 535.1 L 691.3 532 L 701.2 533.1 L 710.2 525.2 L 717.7 523.9 L 732.4 528.2 L 745 524.9 L 753 503.3 L 759 497.9 L 764.3 480.3 L 782.2 480.3 L 795.6 482.9 Z M 974 590.6 L 991 595.1 L 996.7 607 L 983.6 600.6 L 970.6 599.3 L 961.9 600.3 L 951.1 599.8 L 954.8 591.3 L 974 590.6 Z M 935.2 606 L 924.5 603.1 L 921.5 596.4 L 937.2 595.7 L 941 600.8 L 935.2 606 Z M 951.6 513.4 L 952.7 521.8 L 961.9 523.2 L 963.4 529.5 L 962.6 543.1 L 954.6 541.6 L 952.2 551 L 958.6 559.2 L 954.2 561.1 L 948 551.3 L 943.4 531.4 L 946.5 519 L 951.6 513.4 Z M 873.9 533.5 L 891.8 532.9 L 907.1 521.6 L 909.9 525.1 L 897.4 540.5 L 885.7 543.5 L 870.8 540.4 L 844.9 541.2 L 831.3 543.4 L 829.1 555.2 L 843 569 L 851.4 562 L 880.4 556.7 L 879.1 563.8 L 872.3 561.6 L 865.6 570.7 L 851.9 576.7 L 866.6 596.6 L 863.8 601.9 L 877.7 619.8 L 877.6 630 L 869.3 634.6 L 863.2 629.1 L 870.7 616.4 L 855.5 622.4 L 851.6 618.1 L 853.6 612.1 L 842.4 603 L 843.6 587.9 L 833.2 592.6 L 834.6 610.7 L 835.2 632.9 L 825.3 635.2 L 818.7 630.6 L 823.1 616.3 L 820.7 601.4 L 814.2 601.3 L 809.4 590.6 L 815.8 580.5 L 818 568.1 L 825.8 544.7 L 829.1 538.3 L 842.3 526.8 L 854.4 531.4 L 873.9 533.5 Z M 833.1 706.4 L 812.5 695.5 L 827 692.4 L 835.1 697.2 L 840.5 701.9 L 839.6 706.1 L 833.1 706.4 Z M 849.3 679.6 L 859.7 678.5 L 873.6 672.8 L 871.3 681.4 L 848 685.8 L 827.3 683.9 L 827.3 678.2 L 839.6 675 L 849.3 679.6 Z M 801.5 676.9 L 811.1 675.7 L 814.9 682.3 L 797 685.4 L 786.3 687.5 L 777.9 687.3 L 783.2 678.4 L 791.8 678.3 L 795.9 672.8 L 801.5 676.9 Z M 649.8 646.8 L 651.9 652.3 L 681.7 653.9 L 685.1 647.5 L 713.9 654.9 L 719.5 665 L 742.8 667.8 L 761.8 677.1 L 744.1 683 L 727.1 676.7 L 713 677.1 L 696.9 676 L 682.4 673.2 L 664.4 667.3 L 653 665.7 L 646.6 667.7 L 618.2 661.3 L 615.6 654.6 L 601.3 653.5 L 612 638.6 L 630.8 639.6 L 643.4 645.6 L 649.8 646.8 Z M 585.9 564 L 588.5 574.8 L 593.9 583.5 L 605.3 584.8 L 612.9 594.7 L 609 614 L 608.4 638 L 591.2 638.3 L 578.1 625.3 L 558.2 612.6 L 551.5 603.2 L 539.8 590.6 L 532.1 578.9 L 520.3 557.2 L 506.6 544.3 L 502.1 530.9 L 496.4 518.8 L 482.4 509 L 474.2 495.8 L 462.6 487.1 L 446.4 470 L 445 462.1 L 455 462.7 L 479 465.7 L 492.7 480.9 L 504.8 491.4 L 513.3 497.9 L 528 514.5 L 543.8 514.8 L 556.8 525.4 L 565.8 538.4 L 577.6 545.5 L 571.4 558.2 L 580.3 563.6 L 585.9 564 Z" />

<path class="river" d="M 964.1 797.6 L 963.7 802.2 L 963.8 804.4 L 964.3 805.4 L 964.4 806.3 L 964.1 807.7" />
<path class="river" d="M 748.4 538.4 L 748.9 540 L 748.6 540.7 L 747.7 540.9 L 746.8 541.6 L 745.6 543.6 L 745.6 544.3 L 745.3 544.7 L 744.6 544.9 L 743.5 544.9 L 742 544.5 L 740.8 544.4 L 740 544.6 L 739.4 544.9 L 739.1 545.5 L 738.8 545.7 L 738.3 546.5 L 738.8 547.2 L 739.7 547.8 L 739.2 548.8 L 737.5 550.2 L 736.6 551.6 L 736.4 553 L 737.5 554.9 L 740 557.4 L 742 558.6 L 743.6 558.3 L 744.5 557.8 L 744.5 557.1 L 745.3 556.7 L 746.9 556.7 L 748.2 557.4 L 749.1 558.7 L 749.7 559.9 L 749.8 561 L 749.4 561.8 L 748.5 562.3 L 748.4 563 L 748.9 564.1 L 748.8 565.2 L 747.9 566.2 L 747.9 567 L 748.8 567.5 L 749.1 568.6 L 748.7 571.4 L 747.7 574.6 L 747.7 575.7 L 748.2 575.9 L 748.6 576.5 L 749 577.6 L 749 578.7 L 748.5 580 L 748.6 581.6 L 749.2 583.6 L 748.8 586 L 747.5 588.7 L 747 590.6 L 747.5 591.8 L 747.6 592.9 L 747.3 593.7 L 746.5 594.5 L 745.2 595.4 L 744.4 596.6 L 743.5 599.5" />
<path class="river" d="M 1012.3 775.4 L 1010.9 774.8 L 1010.2 773.8 L 1009.8 772.1 L 1008 769.8 L 1003.2 765.6 L 1002.4 764.1 L 1002.1 763.3 L 1002.3 762.6 L 1002 762.1 L 1001.2 761.9 L 999.8 762.2 L 997.9 762.9 L 996.6 763.1 L 995.7 762.6 L 994.9 761.6 L 994.3 760.1 L 993.6 759.3 L 993 759.3 L 992.2 758.5 L 991.2 756.9 L 990.1 756 L 988.8 755.7 L 988.5 755.1 L 988.8 754.4 L 988.8 754 L 988.3 753.7 L 987.8 753.6" />
<path class="river" d="M 1149.6 622.5 L 1150.3 623.4 L 1150.5 624.2 L 1150.4 625.2 L 1149.8 626.4 L 1148.2 628.7 L 1143.9 633.1 L 1142.4 635.2 L 1142.3 636.5 L 1142.7 637.6 L 1143.4 638.4 L 1143.8 639.7 L 1143.5 642.1 L 1143.1 642.6 L 1143.1 643.6 L 1143.4 645.2 L 1143.8 646.1 L 1144.2 646.2 L 1144.3 646.9 L 1144.2 648.2 L 1144.4 649.2 L 1144.9 649.8 L 1144.7 650.7 L 1143.9 651.9 L 1143.1 652.7 L 1142.1 653.2 L 1141.3 653.9 L 1140.7 654.9 L 1140.4 655.9 L 1140.4 656.8 L 1139.9 657.6 L 1138.9 658.2 L 1137.7 658 L 1136.6 657.4 L 1135.8 657.4 L 1134.9 657.9 L 1134.4 658.9 L 1133.5 659.2 L 1133.1 658.8 L 1132.6 658.9 L 1132.1 659.4 L 1131.5 659.7 L 1131 659.6 L 1130.7 659.1 L 1130.5 658.3 L 1130 658.3 L 1129.4 658.7 L 1128.9 658.9 L 1127.1 658.5 L 1126.2 658.7" />
<path class="river" d="M 939.5 816.9 L 937.1 818.1 L 935.7 818.4 L 933.7 818.4 L 927.8 818.1 L 925.3 818.4 L 924.2 819.4 L 923.6 820 L 923.6 820.5 L 923.2 820.8 L 922.3 821 L 921.4 822 L 920.4 823.9 L 918.4 826.3 L 914 830.8 L 908.3 833.5 L 904.9 834.2 L 902 833.6 L 899.6 832 L 897.7 829.4 L 896 827.9 L 894.7 827.7 L 893.4 827.8 L 891.9 828.4 L 890.6 828.3 L 889.3 827.7 L 887.8 826 L 885.9 823.3 L 884.7 821.9 L 884.2 821.7 L 883.9 821.3 L 883.9 820.1 L 883.8 819.1" />
<path class="river" d="M 526.6 555.9 L 528.3 556 L 529.3 556.5 L 530.2 557.3 L 531.1 557.6 L 532.6 557.2 L 533.7 557.3 L 534.3 557 L 534.7 556.3 L 535.4 556.2 L 536.4 556.8 L 537.6 557 L 539.1 556.8 L 540.2 556.9 L 541.1 556.9 L 541.9 556.6 L 543.4 555 L 545.5 554.7 L 548.4 555.5 L 550.6 555.4 L 553.1 554 L 554.9 552.6 L 557.2 553 L 560.6 554.6 L 562.2 555 L 563.6 554.6 L 566.3 552.9 L 568.2 552.3 L 570 552.7 L 570.9 552.7" />
<path class="river" d="M 727.1 528.5 L 723.5 532.2 L 719.1 533.9 L 716.7 534.3 L 714.6 534.2 L 712.6 534.7 L 710.9 535.8 L 708.2 536.7 L 704.8 537.3 L 703.5 537.8 L 703.5 538.6 L 703 539.3 L 701.8 540 L 701.5 540.4 L 701.6 540.8 L 701.3 541.3 L 700.2 542 L 699.4 542.1 L 698.8 542.3 L 698.6 542.9 L 698.4 543.4 L 697.8 543.4 L 697.4 543.7 L 697.2 544.7 L 696.6 545.5 L 696 545.6 L 695.1 545.5 L 694.5 545.7 L 693.9 545.6 L 693.5 545.5 L 693.2 545.9 L 692.9 545.8 L 692.4 545.5 L 692 545.7 L 691.2 545.9 L 690 545.7 L 689.2 545.9 L 688.8 546.4 L 687.8 546.8 L 686.2 547 L 685.3 546.7 L 684.7 546.4 L 684.1 546.6 L 683.4 546.5 L 682.8 546.2 L 682.3 546.2 L 682.1 546.6 L 681.7 546.8 L 681.3 546.8 L 680.8 547.1 L 680.5 547.7 L 679.8 548.2 L 678.5 548.4 L 676 548 L 674.8 548.2 L 673.4 548.6 L 672.5 550 L 670.3 551.3 L 667 552.5 L 665.9 552.6 L 664.8 552.4 L 664 551.8 L 663 551.3 L 661.2 550.7 L 660.1 550" />
<path class="river" d="M 1032.4 753.5 L 1033.4 755.5 L 1033.8 756.8 L 1033.8 758.2 L 1033.5 759.2 L 1033 760 L 1032.4 760.3 L 1031.4 760.3 L 1029.8 759.8 L 1028.7 760.2 L 1027.7 761.3 L 1026.9 763.1 L 1026.3 765.5 L 1025.6 767.1 L 1024.8 767.9 L 1023.6 768.6 L 1022 769.1 L 1019.5 770.9 L 1015.9 773.8 L 1013.7 775.3 L 1012.3 775.4" />
<path class="river" d="M 747.2 519.8 L 749 517.9 L 750.2 517.1 L 752.2 516.9 L 755 515.9 L 756.5 515.6 L 757.7 515.6 L 758.5 515.9 L 758.8 516.5 L 759.5 516.6 L 760.5 516.3 L 761.7 515.1 L 763 513.2 L 764 512.9 L 764.7 514.4 L 765.8 515.1 L 767.4 515 L 768.6 513.8 L 769.4 511.6 L 771.5 508.9 L 774.7 505.4 L 776.6 503.7 L 777.1 503.6 L 777.6 503.9 L 778.2 504.7 L 779 504.7 L 780.2 503.7 L 781.7 503.5 L 783.5 504.2 L 784.6 504.4 L 784.9 504 L 785.5 503.9 L 786.4 504 L 787.2 503.5 L 788.2 502.4 L 789.1 501.8 L 789.9 501.7 L 790.8 501.7" />
<path class="river" d="M 1118.8 596.6 L 1118.3 596.8 L 1117.6 596.8 L 1117.2 596.1 L 1117.1 594.1 L 1116.6 592.9 L 1115.6 592.5 L 1114.9 591.4 L 1114.6 589.6 L 1114.2 588.3 L 1113.4 587.3 L 1111.3 584.7 L 1109.8 583.5 L 1108.2 582.8 L 1106.7 581.6 L 1105.4 579.9 L 1105 578.6 L 1105.6 577.8 L 1105.7 576.8 L 1105.3 575.4 L 1105.4 574.6 L 1105.6 574.1 L 1105.5 573.5 L 1105.6 572.7 L 1106.5 570.2" />
<path class="river" d="M 594.9 367.2 L 594.9 368.5 L 595.3 369.1 L 596.1 369.3 L 596.3 369.7 L 596 370.2 L 596.4 373.1 L 597.3 378.3 L 600.5 383.6 L 608.6 391.9 M 594.9 367.2 L 598.5 369.5 L 599.8 370.8 L 600.1 372.1 L 599.8 373.6 L 599.1 375.2 L 598.8 376.7 L 598.9 378.1 L 599.5 379.1 L 600.6 379.7 L 601.2 380.7 L 601.5 382 L 603.3 383.7 L 606.5 385.9 L 609.3 387.3 L 610.1 387.5 L 613.3 388.5 M 542.3 270.5 L 544.3 269.4 L 545.1 268.5 L 545.6 267.2 L 546.3 266.7 L 547.2 267 L 548.3 266.5 L 549.6 265.1 L 550.7 264.5 L 551.4 264.6 L 552.7 265.4 L 554.6 267 L 556.2 268 L 557.7 268.3 L 558.4 268.9 L 558.4 269.7 L 558.7 270.3 L 559.4 270.5 L 559.7 270.5 L 559.6 270 L 560.2 269.4 L 561.6 268.6 L 563.1 268.1 L 564.5 267.9 L 565.4 267.3 L 566 265.6 M 566 265.6 L 566 265.6 M 566 265.6 L 566.1 265.5 M 566 265.6 L 566.9 264.3 L 567.7 263.7 L 568.7 263.4 L 569 263 L 568.5 262.5 L 568.5 261.9 L 569.1 261.4 L 570.3 261.2 L 572.2 261.2 L 574.4 261.8 L 576.9 262.8 L 578.6 263.1 L 579.4 262.8 L 580.9 264.4 L 583.2 267.9 L 585.2 270.6 L 586.8 272.4 L 588.5 273.8 L 590.3 274.8 L 591.6 276.1 L 592.8 278.6 L 591.9 282 L 591.7 285 L 591.8 288.7 L 592.9 291.5 L 594.9 293.5 L 596.1 295.1 L 596.4 296.3 L 598 297.3 L 600.8 298.2 L 602 299 L 601.5 299.7 L 601.5 300.5 L 601.9 301.4 L 602.8 302.2 L 604.4 302.8 L 605.3 303.4 L 605.6 304.1 L 605.6 305.2 L 605.2 306.7 L 604.6 307.9 L 603.6 308.7 L 603.8 309.2 L 604.9 309.3 L 606 310 L 607.8 312.4 L 609.1 313.8 L 609.7 315.2 L 610 317 L 609.9 318.7 L 609.2 320.4 L 609 322.1 L 609.2 323.9 L 609.1 325.7 L 608.6 327.4 L 608.9 328.7 L 610.2 329.7 L 610.9 330.6 L 611.1 331.4 L 611.1 332.1 L 610.9 332.9 L 611.1 333.7 L 611.5 334.5 L 611.3 335.9 L 610.3 337.8 L 609.9 339 L 610.4 339.9 L 611.5 342.3 L 611.6 344.4 L 610.9 347 L 610.9 350.3 L 611.5 354.2 L 611 356.4 L 609.3 356.7 L 607.5 356.8 L 605.5 356.4 L 604.1 357.7 L 603.2 360.5 L 601.7 361.8 L 599.6 361.8 L 598.3 362.1 L 597.8 362.7 L 597.1 363.1 L 596.1 363.3 L 595.7 363.6 L 595.9 364.2 L 595.7 364.8 L 595.1 365.4 L 594.9 366.1 L 594.9 367.2" />
<path class="river" d="M 1192.8 803 L 1187.7 801.4 L 1181.6 797.1 L 1178.8 795.5 L 1177 795.2 L 1175.7 794.7 L 1174.2 793.5 L 1170.7 787.3 L 1168.1 784.7 L 1166.1 783.8 L 1163.5 783" />
<path class="river" d="M 946.1 820.7 L 951.6 818.2 L 955.1 819.1 L 956.7 820 L 957.5 821.2 L 958.2 821.8 L 958.9 822 L 960.5 821.1 L 963.1 819.3 L 964.9 817.7 L 966.1 816.2 L 966.5 815 L 966.1 814.2 L 966 813.4 L 966.2 812.6 L 965.7 811.8 L 964.3 810.8 L 963.5 809.9 L 963.4 809 L 963.5 808.3 L 964.1 807.7 M 964.1 797.6 L 963.6 796.8 L 963.6 796 L 964.2 794.4 L 964.3 792.4 L 963.7 790.1 L 962.2 788.7 L 959.6 788.3 L 958.1 787.6 L 957.2 786.2 L 957 785.4 L 956.6 784.6" />
<path class="river" d="M 1193.2 639.3 L 1195.4 644.8 L 1195.4 646.3 L 1196.1 647.4 L 1197.4 648.6 L 1199.1 649.4 L 1201.2 649.8 L 1203 649.5 L 1204.5 648.5 L 1205.7 647.9 L 1206.7 647.8 L 1208.7 649.1 L 1212.8 652.7 L 1213.2 653.1 L 1213.4 653.6 L 1213.5 654.2 L 1213.9 654.4 L 1214.8 654.3 L 1215.4 654.4 L 1215.9 654.7 L 1216.1 655 L 1216 655.4 L 1216.3 655.7 L 1217.2 655.6 L 1217.9 655.8 L 1218.2 656.2 L 1218.5 656.2 L 1218.9 656.1 L 1219.5 656.2 L 1220.7 657 L 1221.2 658.4 L 1221.2 660.3 L 1220.6 661.4 L 1219.2 661.6 L 1218.4 662.2 L 1218.1 663.1 L 1218.5 664.1 L 1219.6 665.2 L 1219.9 666.4 L 1219.5 668 L 1219.6 668.8" />
<path class="river" d="M 1143.5 604.7 L 1138.1 603.5 L 1135.7 602.3 L 1134 601.9 L 1132.4 601.9 L 1131.5 601.3 L 1131 601 L 1129.9 601.2 L 1129.4 601 L 1128.6 600.5 L 1126.7 600.6 L 1125.3 599.9 L 1124.5 598.6 L 1122.8 597.6 L 1119.6 596.9 L 1118.8 596.6" />
<path class="river" d="M 618.4 387.3 L 617.2 386.8 L 613.3 387.2 M 613.3 387.2 L 610.1 387.5 M 613.3 387.2 L 614 388 L 614.6 388.1 L 615.7 387.8 L 616.3 388.1 L 616.8 388.6 L 617.5 390.1 L 618.5 391.1 L 619.2 391.7 L 620.2 392.2 L 621.4 392.7" />
<g class="city"><circle cx="624.0407296099114" cy="642.9350313874961" r="5" /><text x="636.0407296099114" y="646.9350313874961">Jakarta</text></g>
<g class="city"><circle cx="211.93401142340542" cy="343.9083312575073" r="5" /><text x="223.93401142340542" y="347.9083312575073">Chennai</text></g>
<g class="city"><circle cx="169.71369406402943" cy="345.7708911946628" r="5" /><text x="181.71369406402943" y="349.7708911946628">Bengaluru</text></g>
<g class="city"><circle cx="622.108102289189" cy="380.0721816873181" r="5" /><text x="634.108102289189" y="384.0721816873181">Ho Chi Minh City</text></g>
<g class="city"><circle cx="577.8835380016967" cy="527.0234776695987" r="5" /><text x="589.8835380016967" y="531.0234776695987">Singapore</text></g>
<g class="city"><circle cx="715.9540337115905" cy="659.6186124841734" r="5" /><text x="727.9540337115905" y="663.6186124841734">Surabaya</text></g>
<g class="city"><circle cx="523.1753005509782" cy="463.0930593601437" r="5" /><text x="535.1753005509782" y="467.0930593601437">George Town</text></g>
<g class="city"><circle cx="635.5361112193295" cy="654.9742501370657" r="5" /><text x="647.5361112193295" y="658.9742501370657">Bandung</text></g>
<text class="map-title" x="80" y="105">Indonesia Physical Study Map</text>
<text class="map-subtitle" x="80" y="145">Landmark: Borobudur Temple | Study terrain and water systems</text>
  <text class="footer" x="80" y="1036">Made with Natural Earth. Free vector and raster map data @ naturalearthdata.com.</text>
</svg>
