<?xml version="1.0" encoding="UTF-8"?>
<svg xmlns="http://www.w3.org/2000/svg" width="1600" height="1100" viewBox="0 0 1600 1100" role="img" aria-labelledby="title desc">
  <title id="title">Israel Political Study Map</title>
  <desc id="desc">Made with Natural Earth. Free vector and raster map data @ naturalearthdata.com.</desc>
  <defs>
    <linearGradient id="terrain" x1="0" x2="1" y1="0" y2="1">
      <stop offset="0%" stop-color="#6c8c53" />
      <stop offset="42%" stop-color="#d5c487" />
      <stop offset="72%" stop-color="#b88b5f" />
      <stop offset="100%" stop-color="#f1f5ee" />
    </linearGradient>
    <filter id="softShadow" x="-10%" y="-10%" width="120%" height="120%">
      <feDropShadow dx="0" dy="10" stdDeviation="12" flood-color="#0f172a" flood-opacity="0.16" />
    </filter>
    <style>
      .neighbor { fill: #ffffff; stroke: #94a3b8; stroke-width: 1.2; opacity: 0.72; }
      .country { fill: #f7f1df; stroke: #1f2937; stroke-width: 4; filter: url(#softShadow); }
      .admin1 { fill: none; stroke: #64748b; stroke-width: 1.1; stroke-dasharray: 6 7; opacity: 0.75; }
      .river { fill: none; stroke: #1d9bd1; stroke-width: 3; stroke-linecap: round; opacity: 0.88; }
      .lake { fill: #8ed1ea; stroke: #0ea5e9; stroke-width: 1.5; opacity: 0.8; }
      .city circle { fill: #ef4444; stroke: #ffffff; stroke-width: 2; }
      .city text, .terrain-label { fill: #172033; font: 700 24px system-ui, sans-serif; paint-order: stroke; stroke: #ffffff; stroke-width: 5; stroke-linejoin: round; }
      .map-title { fill: #0f172a; font: 800 46px system-ui, sans-serif; }
      .map-subtitle { fill: #475569; font: 600 24px system-ui, sans-serif; }
      .footer { fill: #64748b; font: 500 18px system-ui, sans-serif; }
    </style>
  </defs>
  <rect width="100%" height="100%" fill="#eaf3f8" />
  <rect x="40" y="40" width="1520" height="1020" rx="32" fill="#ffffff" opacity="0.54" />
  <path class="neighbor" d="M 893.8 355 L 861.1 356.6 L 849.9 377.9 L 809.2 377.7 L 852.5 278.5 L 913.1 192.7 L 915.4 188.4 L 970.2 194.6 L 990.1 242.4 L 923.7 288.3 L 893.8 355 Z" />
<path class="neighbor" d="M 842.2 572.9 L 785 589.4 L 790.2 557.3 L 821.3 540.5 L 790.7 526.9 L 816.2 445.7 L 860.3 462.6 L 860.2 537.1 L 842.2 572.9 Z" />
<path class="neighbor" d="M 860.3 462.6 L 881.5 424.2 L 1017.2 472.5 L 1255.8 342.7 L 1304.9 491 L 1281.7 509.4 L 1037.7 570.5 L 1159.1 692.3 L 1118.8 713 L 1098.8 753.8 L 1005.8 770.7 L 976.7 814.5 L 924 852 L 788.4 832.6 L 784.4 815 L 845.1 620.2 L 842.2 572.9 L 860.2 537.1 L 860.3 462.6 Z" />
<path class="neighbor" d="M 881.5 424.2 L 879.2 423.4 L 895.7 404.9 L 893.8 355 L 923.7 288.3 L 990.1 242.4 L 970.2 194.6 L 915.4 188.4 L 904 95.2 L 933.9 45.1 L 966.5 18.4 L 999.1 -8.3 L 1005.7 -76.3 L 1045.6 -52.6 L 1179.7 -86.4 L 1244.5 -63.5 L 1344.7 -63.9 L 1484.9 -109.6 L 1550.5 -107.5 L 1689.1 -126.5 L 1626.7 -50.5 L 1560 -20.4 L 1571.5 68.6 L 1525.5 215.9 L 1255.8 342.7 L 1017.2 472.5 L 881.5 424.2 Z" />
<path class="neighbor" d="M 788.4 832.6 L 924 852 L 976.7 814.5 L 1005.8 770.7 L 1098.8 753.8 L 1118.8 713 L 1159.1 692.3 L 1037.7 570.5 L 1281.7 509.4 L 1304.9 491 L 1451.6 524 L 1633.1 609.3 L 1976.6 854.3 L 2203.1 864 L 2311.6 875.8 L 2342 933.8 L 2428.1 930.6 L 2475.8 1035.7 L 2535.8 1063.5 L 2556.6 1106.3 L 2639.6 1157.5 L 2647 1207.8 L 2634.9 1248.4 L 2650.3 1289.3 L 2685.3 1323.4 L 2701.5 1363.4 L 2719.8 1393.2 L 2756.6 1417.4 L 2790.4 1408.7 L 2813.5 1455.3 L 2818.1 1483.4 L 2864.8 1606.8 L 3231 1668.3 L 3255.6 1642.5 L 3311.4 1728.8 L 3230.2 1972.4 L 2864.7 2094.3 L 2513.5 2141 L 2399.8 2195.8 L 2312.5 2323.7 L 2255.6 2344 L 2225.2 2303.4 L 2178.5 2309.5 L 2060.7 2297.3 L 2038.4 2285.1 L 1897.8 2287.9 L 1864.8 2298.9 L 1814.7 2267.2 L 1782.5 2327.1 L 1795 2378.5 L 1741.5 2417.3 L 1725.7 2365.4 L 1688.9 2328.7 L 1679.5 2280.1 L 1616.6 2236.4 L 1551.7 2134.3 L 1517.3 2035 L 1433.1 1951.2 L 1378.7 1931.2 L 1298.1 1815.1 L 1284 1730.4 L 1289.2 1658.2 L 1219.3 1523.1 L 1162.2 1475.6 L 1096.4 1450.4 L 1056.3 1380.6 L 1063 1353 L 1029.1 1289.9 L 993.5 1262.7 L 946 1172.1 L 871.8 1073.8 L 809.7 990.2 L 749 990.8 L 767.9 923.9 L 773.4 881.3 L 788.4 832.6 Z" />
<path class="neighbor" d="M 517.5 128.1 L 526.1 127.4 L 543.7 98.1 L 631.4 99.7 L 742.2 63.3 L 659.9 115.2 L 668.8 138 L 655.7 133.8 L 632.4 143 L 614.2 140.4 L 608.1 145.1 L 605.7 132.8 L 596.9 125.3 L 573.4 124.1 L 540.4 134.5 L 517.5 128.1 Z" />
<path class="neighbor" d="M 517.5 128.1 L 540.4 134.5 L 573.4 124.1 L 596.9 125.3 L 605.7 132.8 L 608.1 145.1 L 614.2 140.4 L 632.4 143 L 655.7 133.8 L 668.8 138 L 672.6 147.8 L 547.7 197.3 L 488.1 181.5 L 459.6 132.6 L 517.5 128.1 Z" />
<path class="neighbor" d="M 1021.1 1728.8 L 538 1728.8 L 65.3 1728.8 L -424.4 1728.8 L -424.4 1280.2 L -424.4 847 L -460.9 748.9 L -429.6 673.7 L -448.4 621.6 L -404.3 563.1 L -242.2 561.1 L -125 593.3 L -4.1 629.3 L 52.4 648.3 L 146.1 609.7 L 196.3 574.8 L 303.7 564.7 L 390.3 580.1 L 423.5 640.5 L 451.8 600.7 L 549.4 629.5 L 644.4 636.4 L 704.3 605.7 L 704.3 605.7 L 772.3 783.4 L 784.4 815 L 750.2 864 L 723.9 956 L 690.8 1019.4 L 662.4 1040.7 L 621.8 1001.4 L 566.8 947 L 479.9 772.4 L 467.4 783.4 L 517.9 912 L 592.6 1034.4 L 684.7 1224.2 L 729.7 1290.4 L 768.8 1359.2 L 878.1 1494.1 L 853.9 1515.3 L 857.9 1594.5 L 999.8 1703.8 L 1021.1 1728.8 Z" />

<path class="country" d="M 881.5 424.2 L 860.3 462.6 L 816.2 445.7 L 790.7 526.9 L 821.3 540.5 L 790.2 557.3 L 785 589.4 L 842.2 572.9 L 845.1 620.2 L 784.4 815 L 772.3 783.4 L 704.3 605.7 L 704.3 605.7 L 704.3 605.7 L 739.8 565.6 L 731.4 558.7 L 763.7 501.7 L 788.4 409.8 L 805.8 379 L 809.2 377.7 L 849.9 377.9 L 861.1 356.6 L 893.8 355 L 895.7 404.9 L 879.2 423.4 L 881.5 424.2 Z" />


<g class="city"><circle cx="765.5436720425828" cy="500.63304467572306" r="5" /><text x="777.5436720425828" y="504.63304467572306">Tel Aviv</text></g>
<g class="city"><circle cx="951.9244988215354" cy="327.6450994412219" r="5" /><text x="963.9244988215354" y="331.6450994412219">Damascus</text></g>
<g class="city"><circle cx="855.652556870845" cy="282.3356902624395" r="5" /><text x="867.652556870845" y="286.3356902624395">Beirut</text></g>
<g class="city"><circle cx="907.254029289478" cy="516.4653478456606" r="5" /><text x="919.254029289478" y="520.4653478456606">Amman</text></g>
<g class="city"><circle cx="818.968528375837" cy="537.6085855777123" r="5" /><text x="830.968528375837" y="541.6085855777123">Jerusalem</text></g>
<g class="city"><circle cx="983.2218214559989" cy="951.1314213076981" r="5" /><text x="995.2218214559989" y="955.1314213076981">Tabuk</text></g>
<g class="city"><circle cx="726.1904716506447" cy="567.869473795715" r="5" /><text x="738.1904716506447" y="571.869473795715">Gaza City</text></g>
<g class="city"><circle cx="818.9177299329994" cy="522.4376367151293" r="5" /><text x="830.9177299329994" y="526.4376367151293">Ramallah</text></g>
<text class="map-title" x="80" y="105">Israel Political Study Map</text>
<text class="map-subtitle" x="80" y="145">Capital: Jerusalem | Continent: Asia</text>
  <text class="footer" x="80" y="1036">Made with Natural Earth. Free vector and raster map data @ naturalearthdata.com.</text>
</svg>
