<?xml version="1.0" encoding="UTF-8"?>
<svg xmlns="http://www.w3.org/2000/svg" width="1600" height="1100" viewBox="0 0 1600 1100" role="img" aria-labelledby="title desc">
  <title id="title">India Physical Study Map</title>
  <desc id="desc">Made with Natural Earth. Free vector and raster map data @ naturalearthdata.com.</desc>
  <defs>
    <linearGradient id="terrain" x1="0" x2="1" y1="0" y2="1">
      <stop offset="0%" stop-color="#6c8c53" />
      <stop offset="42%" stop-color="#d5c487" />
      <stop offset="72%" stop-color="#b88b5f" />
      <stop offset="100%" stop-color="#f1f5ee" />
    </linearGradient>
    <filter id="softShadow" x="-10%" y="-10%" width="120%" height="120%">
      <feDropShadow dx="0" dy="10" stdDeviation="12" flood-color="#0f172a" flood-opacity="0.16" />
    </filter>
    <style>
      .neighbor { fill: #ffffff; stroke: #94a3b8; stroke-width: 1.2; opacity: 0.72; }
      .country { fill: url(#terrain); stroke: #1f2937; stroke-width: 4; filter: url(#softShadow); }
      .admin1 { fill: none; stroke: #64748b; stroke-width: 1.1; stroke-dasharray: 6 7; opacity: 0.75; }
      .river { fill: none; stroke: #1d9bd1; stroke-width: 3; stroke-linecap: round; opacity: 0.88; }
      .lake { fill: #8ed1ea; stroke: #0ea5e9; stroke-width: 1.5; opacity: 0.8; }
      .city circle { fill: #ef4444; stroke: #ffffff; stroke-width: 2; }
      .city text, .terrain-label { fill: #172033; font: 700 24px system-ui, sans-serif; paint-order: stroke; stroke: #ffffff; stroke-width: 5; stroke-linejoin: round; }
      .map-title { fill: #0f172a; font: 800 46px system-ui, sans-serif; }
      .map-subtitle { fill: #475569; font: 600 24px system-ui, sans-serif; }
      .footer { fill: #64748b; font: 500 18px system-ui, sans-serif; }
    </style>
  </defs>
  <rect width="100%" height="100%" fill="#d8edf0" />
  <rect x="40" y="40" width="1520" height="1020" rx="32" fill="#ffffff" opacity="0.54" />
  <path class="neighbor" d="M 876.4 125.7 L 863.7 136.8 L 849.8 138.4 L 849 155.2 L 839.7 162.7 L 806.5 157.2 L 794.5 187.1 L 785.9 190.9 L 752.8 197.5 L 767.9 226.6 L 756.4 230.9 L 757.7 240.4 L 747.4 238 L 739.1 232 L 714.3 230.2 L 686.6 229.8 L 680.5 231.6 L 656.7 224.6 L 647.2 228 L 644.6 237.9 L 617.1 232.2 L 606.1 234.5 L 602.4 241.8 L 592.8 244.9 L 570.7 256.6 L 563.4 268.5 L 557.2 268.6 L 552.6 260.7 L 531.4 260.2 L 528 246.5 L 519.8 246.4 L 521.1 229.6 L 501.1 217.4 L 472.4 218.7 L 452.8 221.1 L 436.9 206.1 L 423.2 199.8 L 397.3 187.8 L 394.2 186.3 L 351.2 196.2 L 351.8 257.8 L 343.2 258.7 L 331.5 245.6 L 320.3 240.9 L 301.3 244.3 L 293.9 249.9 L 293 245.8 L 297.1 238.9 L 293.9 233 L 274.5 227.4 L 267 212.3 L 257.8 208.1 L 257.2 202.7 L 273.5 204.3 L 274.1 192 L 288.3 189.3 L 302.9 191.8 L 305.9 175.5 L 302.9 165.2 L 286.2 166 L 272 161.9 L 252.7 169.3 L 237.1 172.8 L 228.6 170.1 L 230.3 161.5 L 219.6 150.3 L 207.2 150.8 L 193 139.4 L 202.7 126.8 L 197.8 123.4 L 211.1 105 L 228.3 114.7 L 230.4 102.5 L 264.9 84.3 L 291 83.9 L 327.8 95.5 L 347.6 102.2 L 365.3 95.2 L 391.8 94.8 L 413.2 103.5 L 418.1 98.5 L 441.5 99.3 L 445.7 91.3 L 418.6 79.8 L 434.7 71.7 L 431.6 67.2 L 447.6 62.8 L 435.5 51.4 L 443.2 45.7 L 505.7 39.8 L 513.9 35.7 L 555.7 29.6 L 570.7 22.6 L 600.7 26.2 L 606 43.5 L 623.5 39.5 L 644.9 45.2 L 643.5 54.3 L 659.6 53.3 L 701.4 37.6 L 695.3 42.8 L 716.6 55.7 L 754 98.2 L 762.9 89.4 L 785.9 99 L 809.9 94.7 L 819.1 97.7 L 827.2 107.4 L 838.9 110.6 L 846 117.7 L 867.5 115.5 L 876.4 125.7 Z" />
<path class="neighbor" d="M 351.8 257.8 L 351.2 196.2 L 394.2 186.3 L 397.3 187.8 L 423.2 199.8 L 436.9 206.1 L 452.8 221.1 L 472.4 218.7 L 501.1 217.4 L 521.1 229.6 L 519.8 246.4 L 528 246.5 L 531.4 260.2 L 552.6 260.7 L 557.2 268.6 L 563.4 268.5 L 570.7 256.6 L 592.8 244.9 L 602.4 241.8 L 607.3 243.5 L 593.3 254.3 L 605.6 260.6 L 617.5 256.4 L 637.3 265.2 L 615.9 277.3 L 603.2 275.6 L 596.3 276.1 L 593.9 271.4 L 597.4 263.7 L 575.1 267.5 L 569.8 278.3 L 561.8 287.5 L 547.9 286.7 L 543.5 294.1 L 555.8 298.1 L 559.4 310.5 L 550 327.4 L 537.4 323.9 L 528.1 323.8 L 528.6 313.5 L 506.3 306.4 L 488.9 298.2 L 478 290.3 L 458.9 278.8 L 450.6 261.6 L 445 258.5 L 427 259.3 L 420.6 255.9 L 418.8 242.6 L 396.3 233.7 L 382.2 243.4 L 367.9 249.2 L 370.7 257.6 L 351.8 257.8 Z" />
<path class="neighbor" d="M 1772.7 991.6 L 1773 1046 L 1773.3 1100.5 L 1758.4 1086.7 L 1741.4 1083.4 L 1737.3 1088.1 L 1716.1 1088.7 L 1723.2 1075.1 L 1733.7 1070.4 L 1729.4 1052.3 L 1721.4 1038.2 L 1689 1024.1 L 1675.2 1022.7 L 1650.1 1007.2 L 1645.2 1015.4 L 1638.7 1016.8 L 1635 1010.7 L 1634.9 1003.4 L 1622.1 995.2 L 1640.1 989.2 L 1652 989.5 L 1650.6 985.1 L 1626.2 985.1 L 1619.6 975.1 L 1604.6 972 L 1597.6 963.8 L 1620.1 959.7 L 1628.7 954.3 L 1655.5 961.1 L 1658.1 967.4 L 1662.8 994.4 L 1680.1 1004.4 L 1694 986.7 L 1713.2 976.6 L 1728.1 976.6 L 1742.4 982.4 L 1754.8 988.4 L 1772.7 991.6 Z M 1504.8 1096.7 L 1506.5 1100 L 1506.8 1105.1 L 1495.9 1117.5 L 1481.6 1121.2 L 1479.6 1119.2 L 1481.1 1113.5 L 1488.3 1103.3 L 1504.8 1096.7 Z M 1659.2 1063.3 L 1657.6 1050.7 L 1660.6 1044.7 L 1664.1 1039.1 L 1667.9 1044 L 1667.8 1051.9 L 1659.2 1063.3 Z M 1386.4 879 L 1376.9 894.1 L 1389.2 909.9 L 1386.3 917.6 L 1405 933 L 1385.2 935 L 1379.6 946.4 L 1380.4 961.5 L 1364.3 973 L 1363.9 989.6 L 1357.4 1015.2 L 1355 1009.2 L 1336 1016.7 L 1329.4 1006.5 L 1317.4 1005.6 L 1309.1 1000.2 L 1289.2 1006.2 L 1283.1 998.1 L 1272.2 999.1 L 1258.4 997.1 L 1255.9 974.7 L 1247.5 970.1 L 1239.5 955.8 L 1237.2 941.2 L 1239.1 925.7 L 1249.1 914.6 L 1251.8 925.7 L 1263.3 935.2 L 1274.1 931.8 L 1284.7 933 L 1294.5 924.5 L 1302.5 923.1 L 1318.3 927.8 L 1331.9 924.2 L 1340.5 901 L 1346.9 895.1 L 1352.7 876.1 L 1371.9 876.1 L 1386.4 879 Z M 1578.4 994.9 L 1596.8 999.8 L 1602.8 1012.6 L 1588.7 1005.7 L 1574.8 1004.3 L 1565.3 1005.4 L 1553.8 1004.8 L 1557.7 995.6 L 1578.4 994.9 Z M 1536.7 1011.5 L 1525.1 1008.4 L 1521.9 1001.2 L 1538.8 1000.4 L 1542.9 1005.9 L 1536.7 1011.5 Z M 1554.3 911.8 L 1555.5 920.9 L 1565.4 922.4 L 1567 929.2 L 1566.1 943.8 L 1557.5 942.1 L 1554.9 952.3 L 1561.8 961.1 L 1557.1 963.1 L 1550.4 952.6 L 1545.4 931.2 L 1548.8 917.8 L 1554.3 911.8 Z M 1470.7 933.5 L 1489.9 932.8 L 1506.4 920.6 L 1509.4 924.4 L 1495.9 941 L 1483.4 944.2 L 1467.3 940.9 L 1439.4 941.7 L 1424.8 944.1 L 1422.5 956.8 L 1437.4 971.6 L 1446.4 964.1 L 1477.6 958.4 L 1476.2 966.1 L 1469 963.7 L 1461.7 973.5 L 1447 979.9 L 1462.8 1001.3 L 1459.7 1007.1 L 1474.8 1026.4 L 1474.6 1037.3 L 1465.7 1042.3 L 1459.2 1036.4 L 1467.2 1022.7 L 1450.8 1029.2 L 1446.7 1024.5 L 1448.8 1018.1 L 1436.8 1008.3 L 1438 992 L 1426.9 997.1 L 1428.3 1016.6 L 1429 1040.5 L 1418.4 1042.9 L 1411.2 1038 L 1416 1022.6 L 1413.4 1006.5 L 1406.4 1006.4 L 1401.2 994.9 L 1408.1 984 L 1410.5 970.7 L 1418.9 945.5 L 1422.4 938.6 L 1436.6 926.2 L 1449.6 931.2 L 1470.7 933.5 Z M 1426.7 1119.5 L 1404.5 1107.8 L 1420.1 1104.5 L 1428.9 1109.6 L 1434.7 1114.7 L 1433.7 1119.2 L 1426.7 1119.5 Z M 1444.2 1090.8 L 1455.3 1089.5 L 1470.3 1083.4 L 1467.9 1092.6 L 1442.7 1097.4 L 1420.5 1095.3 L 1420.5 1089.2 L 1433.7 1085.7 L 1444.2 1090.8 Z M 1392.7 1087.8 L 1403 1086.5 L 1407.2 1093.6 L 1387.9 1096.9 L 1376.3 1099.2 L 1367.3 1099 L 1373.1 1089.4 L 1382.2 1089.3 L 1386.7 1083.4 L 1392.7 1087.8 Z M 1229.4 1055.4 L 1231.7 1061.4 L 1263.7 1063 L 1267.4 1056.1 L 1298.4 1064.2 L 1304.5 1075 L 1329.5 1078 L 1350 1088 L 1331 1094.3 L 1312.6 1087.6 L 1297.5 1088.1 L 1280.1 1086.8 L 1264.5 1083.8 L 1245.1 1077.5 L 1232.9 1075.8 L 1225.9 1077.9 L 1195.4 1071 L 1192.5 1063.8 L 1177.2 1062.6 L 1188.7 1046.6 L 1209 1047.6 L 1222.5 1054.1 L 1229.4 1055.4 Z M 1160.6 966.2 L 1163.4 977.9 L 1169.3 987.2 L 1181.5 988.7 L 1189.7 999.3 L 1185.5 1020 L 1184.8 1045.9 L 1166.3 1046.2 L 1152.2 1032.3 L 1130.8 1018.6 L 1123.6 1008.5 L 1111 994.9 L 1102.7 982.4 L 1090 959 L 1075.3 945 L 1070.4 930.7 L 1064.2 917.6 L 1049.1 907.1 L 1040.4 892.8 L 1027.8 883.5 L 1010.4 865 L 1008.9 856.5 L 1019.7 857.2 L 1045.6 860.4 L 1060.3 876.8 L 1073.3 888.1 L 1082.5 895.1 L 1098.3 913 L 1115.3 913.3 L 1129.3 924.7 L 1139 938.7 L 1151.7 946.4 L 1145 960 L 1154.6 965.8 L 1160.6 966.2 Z" />
<path class="neighbor" d="M 2403.1 -240 L 2424.4 -246.9 L 2424.4 -235.5 L 2406.1 -234.6 L 2403.1 -240 Z M 237.1 172.8 L 229.5 182.7 L 213.3 185.4 L 196.6 202.7 L 211.8 218.5 L 210.2 229.8 L 228.4 249.5 L 228.4 249.5 L 218.5 256.2 L 215.6 260.5 L 208.2 259.3 L 196.7 249.2 L 192 248.6 L 181.5 244.7 L 176.4 237.9 L 160.8 234.4 L 150.7 237 L 147.7 233.9 L 125 225.9 L 100.4 223.2 L 86.3 220.3 L 84.2 222.3 L 62.9 208.2 L 43.9 201.9 L 29.4 192.1 L 41.6 189.4 L 55.5 175.4 L 46.1 168.8 L 70.7 162 L 70.3 158.3 L 55.3 161 L 55.8 153.6 L 64.4 148.9 L 80.6 147.7 L 83.2 142.1 L 79.6 132.9 L 86.3 124.2 L 86.1 119.3 L 61.5 113.8 L 51.7 114 L 41.4 106.2 L 28.6 108.8 L 7.4 103 L 7.8 99.7 L 1.8 92.4 L -11.5 91.6 L -12.9 86.4 L -8.7 83 L -19.4 73.6 L -36.7 75.2 L -41.8 74.4 L -46 78.2 L -52.3 77.5 L -52.3 77.5 L -56.4 66.8 L -60.3 61.2 L -57.1 59.7 L -43.6 60.3 L -37.1 56.6 L -41.9 52.1 L -53.2 49.2 L -52.2 46.2 L -59 43.1 L -69.5 32.2 L -65.9 27.7 L -67.5 19.8 L -83.8 15.9 L -92.6 17.9 L -95 13.7 L -112.6 9.5 L -118 -0.3 L -119.4 -8.4 L -127.4 -12.3 L -120.3 -17.6 L -125.2 -33.2 L -113.3 -42.8 L -115.8 -45.7 L -115.8 -45.7 L -96.9 -55 L -114.4 -62.9 L -114.4 -62.9 L -78.6 -84.2 L -63.1 -93.9 L -56.8 -102.4 L -81.5 -113.9 L -74.7 -124.8 L -89.7 -137.2 L -78.5 -151.5 L -97.9 -170.5 L -82.5 -183.1 L -108.1 -194.3 L -105.6 -206 L -92.1 -207.5 L -63.7 -214.2 L -63.7 -214.2 L -46.5 -220 L -19 -209.9 L 26.7 -205.9 L 89.9 -187 L 102.7 -179.1 L 103.8 -168 L 85.3 -159.2 L 58 -154.7 L -16.6 -167.4 L -28.9 -165.3 L -1.7 -153.1 L -0.6 -145.3 L 0.5 -128.3 L 22 -123.2 L 35.1 -118.8 L 37.2 -126.9 L 27.2 -134.1 L 37.8 -140.4 L 78.2 -130 L 92.3 -134.1 L 81 -146.3 L 120 -162.7 L 135.4 -161.7 L 151 -155.9 L 160.7 -167.4 L 146.8 -177.4 L 155 -187.3 L 142.7 -197.7 L 189.4 -192.4 L 199 -183 L 177.8 -180.9 L 177.9 -171.6 L 191.1 -165.9 L 216.9 -169.5 L 221 -180.2 L 255.9 -188.2 L 314.2 -202.5 L 326.8 -201.7 L 310.3 -191.5 L 331.1 -189.8 L 343 -195.5 L 374.4 -196 L 399.2 -202.9 L 418.2 -192.8 L 437.2 -203.9 L 419.7 -213.6 L 428.4 -219.1 L 477.7 -214 L 500.9 -208.8 L 561.4 -189.7 L 572.6 -198.5 L 555.6 -207.3 L 555.1 -210.8 L 535 -212.5 L 540.5 -220.4 L 531.6 -233.4 L 531.1 -238.8 L 561.9 -253.9 L 572.9 -269.1 L 585.3 -272.4 L 629.5 -268 L 633 -258.7 L 617.2 -245.1 L 627.6 -239.8 L 632.9 -228.1 L 629.1 -205.2 L 647.6 -195 L 640.4 -183.8 L 607.7 -160.1 L 626.8 -157.6 L 633.4 -163.7 L 651.8 -167.9 L 656.2 -176.2 L 670.7 -184.2 L 661 -193.7 L 668.8 -204.7 L 650.5 -206.1 L 646.5 -215.4 L 659.8 -232.2 L 638.1 -245.8 L 668 -257 L 664.1 -268.9 L 672.5 -269.3 L 681.3 -260 L 674.7 -243.9 L 692.5 -240.9 L 684.9 -252.9 L 712.9 -259.5 L 747.6 -260.4 L 778.5 -250.8 L 763.6 -264.8 L 761.9 -282.6 L 791 -285.9 L 831.2 -285.2 L 867.4 -287.4 L 853.8 -296.1 L 873.1 -307.1 L 892.3 -307.5 L 924.8 -315.8 L 969 -318.1 L 974.5 -322.6 L 1018.4 -324.2 L 1032.1 -320.4 L 1069.6 -329.3 L 1100.3 -329 L 1104.9 -336.3 L 1120.9 -343.4 L 1160.3 -350.2 L 1189 -344.8 L 1166.2 -340.7 L 1204.1 -338.1 L 1208.6 -329.9 L 1223.8 -333.9 L 1272.7 -333.7 L 1310.4 -325.6 L 1323.8 -319.3 L 1319.6 -310.6 L 1301.1 -305.7 L 1257.2 -296.4 L 1244.7 -291.4 L 1265.4 -289.1 L 1290.1 -284.9 L 1305.1 -288 L 1313.7 -277.3 L 1321 -281.7 L 1347.7 -284.3 L 1401.3 -281.5 L 1405.4 -273.7 L 1475.3 -271.2 L 1476.2 -284 L 1511.7 -281.1 L 1538.4 -281.2 L 1565.3 -272.4 L 1573 -261.7 L 1563.2 -254.7 L 1584.1 -241.5 L 1610.4 -234.7 L 1626.5 -252.3 L 1653.3 -244.8 L 1681.8 -249.3 L 1714.2 -244.1 L 1726.5 -248.8 L 1753.8 -246.5 L 1741.7 -262 L 1763.8 -269.2 L 1914.7 -258.4 L 1929 -248.4 L 1972.7 -235.7 L 2040.2 -238.8 L 2073.4 -236.1 L 2087.3 -229.2 L 2085.3 -216.9 L 2105.9 -212.2 L 2128.3 -215.6 L 2157.9 -216.1 L 2189.4 -212.8 L 2221.1 -214.6 L 2250.2 -199.8 L 2270.9 -205.1 L 2257.4 -215.8 L 2264.9 -223.2 L 2318.2 -218.5 L 2352.9 -219.5 L 2401 -211.6 L 2424.4 -204.3 L 2424.4 -137.7 L 2424.3 -137.6 L 2402.8 -130.3 L 2381.1 -131.5 L 2396.2 -122.6 L 2406.1 -108.8 L 2413.9 -104.3 L 2415.8 -97.4 L 2411.5 -93 L 2380.3 -96.6 L 2333.6 -84.1 L 2318.8 -82.1 L 2293.2 -70.4 L 2269 -60.1 L 2262.8 -52.5 L 2238.9 -64.1 L 2195.4 -51 L 2187.8 -57.2 L 2171.7 -50 L 2149.3 -52.3 L 2143.9 -41.3 L 2123.9 -25.1 L 2124.5 -18.4 L 2143.5 -14.6 L 2141.3 9.7 L 2125.8 10.3 L 2118.6 24.3 L 2125.6 31.5 L 2096.3 40 L 2090.5 59.1 L 2065.6 63.2 L 2060.6 80.1 L 2036.5 95.7 L 2030.4 84.2 L 2023.2 59.8 L 2013.9 22.7 L 2021.9 -0.5 L 2036 -10.5 L 2036.9 -18.3 L 2062.9 -22 L 2092.7 -43 L 2121.5 -60.2 L 2151.5 -73.6 L 2164.9 -97.1 L 2144.6 -95.7 L 2134.6 -81.9 L 2092.2 -63.6 L 2078.5 -84.1 L 2035.4 -78.5 L 1993.6 -50.5 L 2007.4 -40.2 L 1970.1 -35.8 L 1944.2 -34.1 L 1945.4 -46.2 L 1919.5 -48.7 L 1898.8 -40.5 L 1847.7 -43.4 L 1792.7 -38.5 L 1738.6 -5.8 L 1674.5 33.6 L 1700.9 35.7 L 1709.1 46.1 L 1725.3 49.9 L 1736 41.5 L 1754.3 42.6 L 1778.5 61 L 1779 75.2 L 1766 91.9 L 1764.6 111.8 L 1757 138.6 L 1731.8 162.7 L 1726.2 174.3 L 1703.6 193.8 L 1681 213 L 1670.3 222.9 L 1648 232.7 L 1637.4 232.9 L 1627 224.8 L 1604.5 237 L 1601.9 242.6 L 1601.9 242.6 L 1601.9 242.6 L 1601.9 242.6 L 1599.6 239.7 L 1599.6 239.7 L 1599.5 231.2 L 1608 230.7 L 1610.4 211 L 1606 196.7 L 1620.4 190.8 L 1640.6 193.7 L 1651.9 177.5 L 1657.6 159.2 L 1664.1 153.1 L 1672.9 138 L 1645.3 143 L 1630.8 149.6 L 1605.4 149.5 L 1598.6 133.8 L 1578.8 122 L 1549.7 116.6 L 1543.6 100.2 L 1537.7 90 L 1531.5 82.8 L 1521.1 65.9 L 1506.5 59.8 L 1481.5 54.8 L 1459.3 55.3 L 1438.5 58.3 L 1424.7 66.6 L 1433.9 70.6 L 1434.1 79.8 L 1424.8 85.1 L 1409.7 102.9 L 1409.9 110.2 L 1386.3 120.8 L 1366.3 114.5 L 1346.4 115.9 L 1337.6 110.3 L 1327.6 108.5 L 1303.1 120.2 L 1281.1 123 L 1265.7 127.1 L 1244.7 124.4 L 1229.2 124.6 L 1219.1 116.1 L 1202.7 108 L 1185.9 105.8 L 1164.8 108 L 1149 111.1 L 1125.3 104.1 L 1122.1 91.6 L 1102.4 87.3 L 1087.3 85.3 L 1068.6 78.4 L 1051.3 95.7 L 1058 105.5 L 1041.8 117.2 L 1017.6 113 L 1001 112.4 L 989.8 104.6 L 972.4 104.3 L 957.8 99.2 L 932.4 107.1 L 900.5 121.5 L 882.9 124.3 L 876.4 125.7 L 867.5 115.5 L 846 117.7 L 838.9 110.6 L 827.2 107.4 L 819.1 97.7 L 809.9 94.7 L 785.9 99 L 762.9 89.4 L 754 98.2 L 716.6 55.7 L 695.3 42.8 L 701.4 37.6 L 659.6 53.3 L 643.5 54.3 L 644.9 45.2 L 623.5 39.5 L 606 43.5 L 600.7 26.2 L 570.7 22.6 L 555.7 29.6 L 513.9 35.7 L 505.7 39.8 L 443.2 45.7 L 435.5 51.4 L 447.6 62.8 L 431.6 67.2 L 434.7 71.7 L 418.6 79.8 L 445.7 91.3 L 441.5 99.3 L 418.1 98.5 L 413.2 103.5 L 391.8 94.8 L 365.3 95.2 L 347.6 102.2 L 327.8 95.5 L 291 83.9 L 264.9 84.3 L 230.4 102.5 L 228.3 114.7 L 211.1 105 L 197.8 123.4 L 202.7 126.8 L 193 139.4 L 207.2 150.8 L 219.6 150.3 L 230.3 161.5 L 228.6 170.1 L 237.1 172.8 Z M 983.6 -405.8 L 1019.8 -409.6 L 1052.2 -401.2 L 1090.7 -385 L 1086.6 -370 L 1050.1 -367.9 L 1003.6 -372.7 L 975.8 -379.1 L 963 -391.1 L 940.2 -394.4 L 983.6 -405.8 Z M 1135 -376.7 L 1177.4 -367.2 L 1172.4 -360.4 L 1078.2 -354 L 1108.7 -375.9 L 1122.4 -377.8 L 1135 -376.7 Z M 1736.5 -324.1 L 1780.6 -323.4 L 1841 -314.5 L 1827.8 -302.1 L 1766.2 -302.6 L 1738.5 -298.7 L 1705.4 -309.5 L 1714.4 -321 L 1736.5 -324.1 Z M 1893.4 -310.9 L 1935.3 -306.5 L 1916 -299.9 L 1889.3 -301.4 L 1858.2 -308 L 1862.2 -313.4 L 1893.4 -310.9 Z M 1753.7 -277.9 L 1769.5 -284.5 L 1790.4 -286.1 L 1814.2 -279.7 L 1816.2 -275.3 L 1790.9 -275.2 L 1756.6 -277 L 1753.7 -277.9 Z M 166 -398.5 L 198.6 -401.6 L 224 -401.8 L 227.4 -397.3 L 237 -401.3 L 252.8 -404 L 277.5 -400.4 L 271.1 -397.8 L 248.6 -395.6 L 233.6 -394.4 L 231.3 -391.6 L 211.8 -388.9 L 193.6 -392.8 L 203.2 -398 L 166 -398.5 Z M -203.6 40.3 L -234.3 40.5 L -254.9 38.6 L -251.1 31.3 L -228 25.9 L -210.5 28.8 L -203.1 31.5 L -204.9 36 L -203.6 40.3 Z M 310.7 -284.3 L 350.7 -298.9 L 346.2 -306.5 L 383.6 -315.3 L 438.7 -326.1 L 494.4 -329.2 L 523 -335.4 L 555.5 -337.6 L 567.1 -331 L 555.9 -325.8 L 496.7 -317.5 L 445.6 -309.5 L 393.7 -293.6 L 368.8 -277.3 L 342.6 -261.2 L 346 -247.3 L 378 -233.6 L 368.1 -232.2 L 313.5 -234.3 L 309.1 -241.8 L 278.9 -246.2 L 276.4 -255.3 L 293.5 -258.8 L 292.9 -268 L 326.1 -282.2 L 310.7 -284.3 Z M 1804.7 50.7 L 1810.5 66.8 L 1810 83.3 L 1816.9 100.1 L 1833.8 129.7 L 1809 124.2 L 1798.7 148.3 L 1815 165.5 L 1814.6 177.1 L 1801.9 167.1 L 1790.9 180 L 1787.8 166 L 1789.7 149.7 L 1787.8 131.7 L 1791.7 119 L 1792.4 96.7 L 1782.6 80.3 L 1784.1 57.4 L 1799.5 49.7 L 1792.9 42 L 1800.3 39.7 L 1804.7 50.7 Z M -3506.5 -174.9 L -3507.9 -164.5 L -3496.6 -160.4 L -3500.5 -172.5 L -3455.1 -170 L -3422.4 -154.4 L -3439 -147.1 L -3466.4 -145.4 L -3466.8 -129 L -3473.5 -125.6 L -3489.1 -126.1 L -3501.9 -131.9 L -3524.1 -136.8 L -3527.8 -144 L -3544.8 -146.7 L -3563.8 -144.6 L -3572.9 -150.4 L -3569.3 -156.6 L -3589.3 -152.7 L -3581.7 -144.8 L -3591.2 -137.7 L -3591.2 -204.3 L -3550.3 -191.5 L -3506.5 -174.9 Z M -3569.4 -236.5 L -3591.2 -235.5 L -3591.2 -246.9 L -3589.1 -247.6 L -3574.9 -247.6 L -3550.7 -242.8 L -3552.2 -240.5 L -3569.4 -236.5 Z M -24.7 179.9 L -20.3 175.8 L -8.4 179.4 L -3 180 L -0.9 183.3 L 1.6 183.8 L 1.8 185.3 L 10 189.3 L 27 188.3 L 23.7 194.3 L 5.4 197.2 L -17.2 206.8 L -26.5 203.4 L -22.8 195.6 L -41.1 190.7 L -38.2 187.5 L -22.2 181.9 L -24.7 179.9 Z" />
<path class="neighbor" d="M 278.5 543 L 281.5 542.2 L 282.1 546.7 L 295.1 544.1 L 309 544.5 L 319.1 545 L 330.5 533.7 L 343 523 L 353.5 512.7 L 356.7 518.4 L 359 531.6 L 350.4 531.7 L 349.1 542.6 L 352 544.9 L 344.5 548.2 L 344.4 555 L 339.6 561.9 L 339.1 568.6 L 335.8 572.2 L 285.5 563.8 L 279.1 546.8 L 278.5 543 Z" />
<path class="neighbor" d="M 339.1 568.6 L 339.6 561.9 L 344.4 555 L 344.5 548.2 L 352 544.9 L 349.1 542.6 L 350.4 531.7 L 359 531.6 L 366.5 543 L 375.8 549.1 L 388.1 551.3 L 398 554.3 L 405.5 563.9 L 410 569.5 L 416 571.6 L 415.9 575.3 L 409.9 585.3 L 407.2 589.9 L 400.2 595.3 L 393.9 606.7 L 386.3 605.9 L 382.9 609.8 L 380.2 618.3 L 382.2 629.5 L 380.7 631.5 L 373 631.5 L 362.5 637.7 L 360.9 645.9 L 357.1 649.4 L 346.7 649.3 L 340.1 653.5 L 340.2 660.2 L 332.1 664.9 L 322.9 663.3 L 311.7 668.9 L 304 669.9 L 298.6 658.2 L 285.5 630.6 L 335.6 613.9 L 346.8 580.5 L 339.1 568.6 Z M 356.7 518.4 L 353.5 512.7 L 358.4 507 L 360.5 508.5 L 358.9 515.4 L 356.7 518.4 Z" />
<path class="neighbor" d="M 1130.8 744.5 L 1126.8 724.3 L 1137.5 710.4 L 1159.1 707.2 L 1174.8 709.6 L 1188.6 716.2 L 1196.1 704.6 L 1211 710.8 L 1214.8 721.9 L 1212.8 741.9 L 1184.7 754.8 L 1192 764.9 L 1174.5 766.1 L 1160 772.9 L 1146 770.4 L 1139.2 761.7 L 1130.8 744.5 Z" />
<path class="neighbor" d="M 1174.8 709.6 L 1159.1 707.2 L 1137.5 710.4 L 1126.8 724.3 L 1130.8 744.5 L 1115.8 736.8 L 1101.5 737.1 L 1103.9 724 L 1089.2 724.1 L 1087.9 742.5 L 1078.9 766.9 L 1073.4 781.6 L 1074.6 793.7 L 1085.5 794.2 L 1092.3 809.5 L 1095.3 824 L 1104.6 833.5 L 1114.7 835.5 L 1123.4 844.1 L 1117.9 851 L 1106.9 853 L 1105.6 844.4 L 1091.9 837.1 L 1089 840.1 L 1082.4 833.7 L 1079.6 825.4 L 1070.7 816 L 1062.6 808 L 1059.8 817.9 L 1056.7 808.6 L 1058.5 798.1 L 1063.4 782.1 L 1071.5 765 L 1080.7 749.4 L 1074.2 734.1 L 1074.4 726.4 L 1072.5 717 L 1061.4 703.8 L 1057.4 695.4 L 1063.1 692.3 L 1069.3 677.8 L 1062.4 666.7 L 1051.8 654.5 L 1043.7 639.9 L 1050.8 636.8 L 1058.4 618.8 L 1070.2 618 L 1080 610.8 L 1089.5 606.9 L 1096.8 612.1 L 1097.7 622.1 L 1109 622.9 L 1104.9 640.5 L 1105.3 655.5 L 1122.9 645.5 L 1127.9 648.4 L 1137.7 648 L 1141.1 642.2 L 1153.7 643.3 L 1166.4 656.9 L 1167.4 673.4 L 1181 687.9 L 1180.2 702.1 L 1174.8 709.6 Z" />
<path class="neighbor" d="M 1211 710.8 L 1196.1 704.6 L 1188.6 716.2 L 1174.8 709.6 L 1180.2 702.1 L 1181 687.9 L 1167.4 673.4 L 1166.4 656.9 L 1153.7 643.3 L 1141.1 642.2 L 1137.7 648 L 1127.9 648.4 L 1122.9 645.5 L 1105.3 655.5 L 1104.9 640.5 L 1109 622.9 L 1097.7 622.1 L 1096.8 612.1 L 1089.5 606.9 L 1093.1 600.8 L 1107.3 589.9 L 1108.8 593.8 L 1117.7 594.3 L 1115.2 575.2 L 1123.9 572.7 L 1133.6 585.9 L 1141.1 601.1 L 1161.7 601.2 L 1168.2 615.8 L 1157.5 620.2 L 1152.7 626.2 L 1172.7 636.2 L 1186.6 655.9 L 1197.1 670.6 L 1209.8 682.3 L 1214 694.1 L 1211 710.8 Z" />
<path class="neighbor" d="M 1089.5 606.9 L 1080 610.8 L 1070.2 618 L 1058.4 618.8 L 1050.8 636.8 L 1043.7 639.9 L 1051.8 654.5 L 1062.4 666.7 L 1069.3 677.8 L 1063.1 692.3 L 1057.4 695.4 L 1061.4 703.8 L 1072.5 717 L 1074.4 726.4 L 1074.2 734.1 L 1080.7 749.4 L 1071.5 765 L 1063.4 782.1 L 1061.8 769.7 L 1066.9 756.9 L 1061.3 747 L 1062.7 728.8 L 1055.9 720.2 L 1050.5 700.2 L 1047.4 679.1 L 1040.2 665.2 L 1029.2 673.6 L 1010.2 685.5 L 1000.8 684 L 990.5 680.1 L 996.2 659.4 L 992.8 643.8 L 979.7 624.5 L 981.7 618.5 L 971.9 616.3 L 960.1 602.7 L 959 589.2 L 964.8 591.8 L 965.1 579.8 L 973.4 575.8 L 971.6 568.7 L 975.4 563 L 976 545.8 L 989.1 549.6 L 996.6 535.8 L 997.4 527.6 L 1006.6 513.6 L 1006.1 504.1 L 1027.8 492.5 L 1039.7 495.5 L 1038.3 485.3 L 1044.2 482.2 L 1042.9 475.9 L 1052.7 474.6 L 1058.3 484.4 L 1065.6 488.4 L 1066.1 501.2 L 1065.4 515 L 1049.6 529 L 1047.6 548.8 L 1065.2 546 L 1069.2 561.4 L 1079.8 564.6 L 1074.9 578.5 L 1087.3 584.8 L 1094.5 587.9 L 1106.8 583 L 1107.3 589.9 L 1093.1 600.8 L 1089.5 606.9 Z" />
<path class="neighbor" d="M 1160 772.9 L 1174.5 766.1 L 1192 764.9 L 1184.7 754.8 L 1212.8 741.9 L 1214.8 721.9 L 1211 710.8 L 1214 694.1 L 1209.8 682.3 L 1197.1 670.6 L 1186.6 655.9 L 1172.7 636.2 L 1152.7 626.2 L 1157.5 620.2 L 1168.2 615.8 L 1161.7 601.2 L 1141.1 601.1 L 1133.6 585.9 L 1123.9 572.7 L 1132.8 568.6 L 1146.1 568.7 L 1162.4 566.8 L 1176.6 557.9 L 1184.7 564.2 L 1200 567.2 L 1197.3 576.8 L 1205.3 583.6 L 1222.1 588 L 1199.8 602.3 L 1185.9 618 L 1182.2 629.6 L 1195 647.3 L 1210.6 669.1 L 1225.8 679.4 L 1235.9 692.8 L 1243.6 723.8 L 1241.3 753.2 L 1227.4 764.2 L 1208.2 774.9 L 1194.6 788.8 L 1173.8 804.4 L 1167.7 793.7 L 1172.4 782.4 L 1160 772.9 Z" />
<path class="neighbor" d="M 882.9 124.3 L 900.5 121.5 L 932.4 107.1 L 957.8 99.2 L 972.4 104.3 L 989.8 104.6 L 1001 112.4 L 1017.6 113 L 1041.8 117.2 L 1058 105.5 L 1051.3 95.7 L 1068.6 78.4 L 1087.3 85.3 L 1102.4 87.3 L 1122.1 91.6 L 1125.3 104.1 L 1149 111.1 L 1164.8 108 L 1185.9 105.8 L 1202.7 108 L 1219.1 116.1 L 1229.2 124.6 L 1244.7 124.4 L 1265.7 127.1 L 1281.1 123 L 1303.1 120.2 L 1327.6 108.5 L 1337.6 110.3 L 1346.4 115.9 L 1366.3 114.5 L 1358.1 127.1 L 1346.3 143.8 L 1350.6 150.6 L 1360.1 148.5 L 1376.6 151.1 L 1389.4 144.9 L 1402.8 150.3 L 1418 161.9 L 1416.2 167.9 L 1403 166 L 1378.7 168.2 L 1366.9 173 L 1354.7 184 L 1329.2 190.5 L 1312.6 199.3 L 1295.4 196 L 1286 194.4 L 1277.2 205.2 L 1282.6 211.6 L 1285.3 217.2 L 1273.6 222.8 L 1261.6 231.7 L 1242 237.6 L 1217 238.2 L 1190 244 L 1170.6 253 L 1163.2 247.8 L 1142.9 247.8 L 1118.2 237.7 L 1101.7 235.2 L 1079.5 237.5 L 1045 233.8 L 1026.6 234.2 L 1016.8 224.2 L 1009.2 208.8 L 998.8 207 L 978.6 196.6 L 956.1 194.2 L 936.3 191.4 L 930.3 184.1 L 936.7 164.6 L 925.2 151.1 L 901.3 144.9 L 887.3 136 L 882.9 124.3 Z" />
<path class="neighbor" d="M 965.1 579.8 L 964.8 591.8 L 959 589.2 L 960.1 602.7 L 955.3 594 L 954.3 585.5 L 951.1 577.4 L 944.2 567.7 L 928.8 567 L 930.3 573.9 L 925 583.2 L 917.9 579.8 L 915.5 582.9 L 910.8 581 L 904.3 579.6 L 901.7 565.8 L 895.9 553.2 L 898.8 543.2 L 888.5 538.7 L 892.2 532.6 L 902.6 526.4 L 890.6 517.5 L 896.5 506.2 L 909.7 513.4 L 917.7 514.2 L 919.2 525.8 L 935.1 528.1 L 950.6 527.9 L 960.2 530.7 L 952.5 544.9 L 945 545.9 L 939.9 555.4 L 949 564 L 951.7 553.3 L 956.3 553.3 L 965.1 579.8 Z" />
<path class="neighbor" d="M 948.8 484 L 955.6 489.4 L 954.5 499.6 L 940.8 500.1 L 926.7 499 L 916.2 501.6 L 901 495.3 L 900.7 491.9 L 911.7 479.5 L 920.8 475.3 L 932.7 479.1 L 941.5 479.5 L 948.8 484 Z" />
<path class="neighbor" d="M 889.1 482.3 L 887.8 489.5 L 890 500.1 L 888.1 506.7 L 874.2 507 L 854.1 503.1 L 841.1 501.5 L 831.5 493 L 808.6 490.8 L 786.8 481.5 L 771.1 473.3 L 754.9 466.9 L 761.4 451.3 L 772 443.7 L 778.9 439.7 L 792.3 444.9 L 809.1 455.8 L 818.5 458.2 L 824.1 466.2 L 837.1 469.5 L 850.7 476.8 L 869.6 480.7 L 889.1 482.3 Z" />
<path class="neighbor" d="M 717.2 355 L 701.1 369 L 682.5 371.5 L 657.1 367.5 L 648.9 374.7 L 654.9 389.3 L 660.7 400.6 L 674.2 408.9 L 659.9 418.5 L 660.2 430.4 L 643.9 447.2 L 633.5 464.2 L 616 481.7 L 596.6 480.4 L 578.2 497.9 L 589.1 505.4 L 591 518.3 L 600.4 526.8 L 603.7 541.1 L 566.9 541.1 L 555.8 552.2 L 543.6 548 L 538.6 536 L 525.7 523.3 L 494.9 526.4 L 467.7 526.7 L 444.2 529 L 450.5 509.6 L 474.6 501 L 473.2 493.3 L 465.2 490.6 L 464.8 475.9 L 448.8 468.5 L 442.1 458.4 L 433.8 449.7 L 461.8 458.2 L 478.5 455.7 L 488.5 457.8 L 491.9 454.2 L 503.5 455.6 L 525.2 448.7 L 525.8 434.5 L 535.1 425 L 547.6 425 L 549.4 420.4 L 562.2 418.2 L 568.4 419.7 L 574.9 415 L 574 405 L 581.1 394.9 L 591.7 390.7 L 585.1 379.6 L 601 380.2 L 605.6 374.1 L 604.9 367.7 L 613.2 360.7 L 611.3 352.4 L 607.4 345.3 L 617.1 338 L 635.1 334.5 L 654.3 332.6 L 662.7 329.5 L 672.5 327.6 L 684.8 335.4 L 689.8 348.2 L 717.2 355 Z" />
<path class="neighbor" d="M 528.1 323.8 L 537.4 323.9 L 550 327.4 L 555.1 329.4 L 567.2 324.1 L 572.9 327.3 L 578.2 319.7 L 588.2 320 L 590.8 317.6 L 592.6 310.8 L 599.8 305 L 608.8 308.8 L 607 313.9 L 612.1 314.7 L 610.5 328.7 L 617.1 334.2 L 622.9 330.7 L 630.3 329 L 640.8 321.6 L 652.3 322.8 L 669.5 322.8 L 672.5 327.6 L 662.7 329.5 L 654.3 332.6 L 635.1 334.5 L 617.1 338 L 607.4 345.3 L 611.3 352.4 L 613.2 360.7 L 604.9 367.7 L 605.6 374.1 L 601 380.2 L 585.1 379.6 L 591.7 390.7 L 581.1 394.9 L 574 405 L 574.9 415 L 568.4 419.7 L 562.2 418.2 L 549.4 420.4 L 547.6 425 L 535.1 425 L 525.8 434.5 L 525.2 448.7 L 503.5 455.6 L 491.9 454.2 L 488.5 457.8 L 478.5 455.7 L 461.8 458.2 L 433.8 449.7 L 449 434.5 L 447.6 423.8 L 434.9 420.9 L 433.6 410.3 L 428.1 397 L 435.3 387.8 L 428 385.4 L 432.6 373.2 L 439.4 352.4 L 456.5 358.7 L 469.1 356.5 L 472.6 348.9 L 485.7 346.4 L 495.2 341.3 L 498.5 328 L 512.6 324.7 L 515.2 318.8 L 523.1 323.3 L 528.1 323.8 Z" />
<path class="neighbor" d="M 550 327.4 L 559.4 310.5 L 555.8 298.1 L 543.5 294.1 L 547.9 286.7 L 561.8 287.5 L 569.8 278.3 L 575.1 267.5 L 597.4 263.7 L 593.9 271.4 L 596.3 276.1 L 603.2 275.6 L 597.1 280.8 L 578.9 278 L 577.3 287.6 L 595.5 286.3 L 616.1 291.7 L 647.7 289.2 L 651.9 304.7 L 657.4 303 L 667.6 306.8 L 667 313.3 L 669.5 322.8 L 652.3 322.8 L 640.8 321.6 L 630.3 329 L 622.9 330.7 L 617.1 334.2 L 610.5 328.7 L 612.1 314.7 L 607 313.9 L 608.8 308.8 L 599.8 305 L 592.6 310.8 L 590.8 317.6 L 588.2 320 L 578.2 319.7 L 572.9 327.3 L 567.2 324.1 L 555.1 329.4 L 550 327.4 Z" />
<path class="neighbor" d="M 602.4 241.8 L 606.1 234.5 L 617.1 232.2 L 644.6 237.9 L 647.2 228 L 656.7 224.6 L 680.5 231.6 L 686.6 229.8 L 714.3 230.2 L 739.1 232 L 747.4 238 L 757.7 240.4 L 755.4 244.2 L 729.1 253.3 L 723.1 259.9 L 701.7 261.9 L 695.3 272.6 L 677.7 270.3 L 666.1 273.6 L 650.2 281.5 L 652.5 285.4 L 647.7 289.2 L 616.1 291.7 L 595.5 286.3 L 577.3 287.6 L 578.9 278 L 597.1 280.8 L 603.2 275.6 L 615.9 277.3 L 637.3 265.2 L 617.5 256.4 L 605.6 260.6 L 593.3 254.3 L 607.3 243.5 L 602.4 241.8 Z" />
<path class="neighbor" d="M 293.9 249.9 L 301.3 244.3 L 320.3 240.9 L 331.5 245.6 L 343.2 258.7 L 351.8 257.8 L 370.7 257.6 L 367.9 249.2 L 382.2 243.4 L 396.3 233.7 L 418.8 242.6 L 420.6 255.9 L 427 259.3 L 445 258.5 L 450.6 261.6 L 458.9 278.8 L 478 290.3 L 488.9 298.2 L 506.3 306.4 L 528.6 313.5 L 528.1 323.8 L 523.1 323.3 L 515.2 318.8 L 512.6 324.7 L 498.5 328 L 495.2 341.3 L 485.7 346.4 L 472.6 348.9 L 469.1 356.5 L 456.5 358.7 L 439.4 352.4 L 438 338.3 L 425.5 337.7 L 406.4 322.9 L 393.1 321.1 L 374.6 312.6 L 362.7 311.1 L 355.4 314.2 L 344.2 313.7 L 332.3 323.3 L 317.6 326.5 L 314.5 314.7 L 316.9 297.2 L 303.9 291.6 L 308.2 280.1 L 297.1 279.1 L 300.8 265.1 L 316.6 269.2 L 331.2 263.8 L 319.1 253.8 L 314.3 244.2 L 300.8 248.5 L 299.1 260.7 L 293.9 249.9 Z" />
<path class="neighbor" d="M 228.2 448 L 218.9 439.2 L 218.7 430.3 L 213.4 430.3 L 216.1 418.2 L 207.5 405.5 L 187.1 396.4 L 175.5 380.5 L 179.4 367.5 L 187.8 361.7 L 186.5 351.9 L 175.6 346.9 L 164.7 327 L 164.7 327 L 155.6 313.6 L 158.9 308.4 L 153.7 289.3 L 165.1 284.5 L 167.7 290.8 L 176.2 298.5 L 187.6 300.7 L 193.7 300.2 L 213.4 287.9 L 219.7 286.7 L 224.6 291.6 L 218.8 299.9 L 229.3 308.6 L 233.4 307.8 L 238.7 320.1 L 254.6 323.6 L 266.2 332 L 289.9 334.8 L 316 330.4 L 317.6 326.5 L 332.3 323.3 L 344.2 313.7 L 355.4 314.2 L 362.7 311.1 L 374.6 312.6 L 393.1 321.1 L 406.4 322.9 L 425.5 337.7 L 438 338.3 L 439.4 352.4 L 432.6 373.2 L 428 385.4 L 435.3 387.8 L 428.1 397 L 433.6 410.3 L 434.9 420.9 L 447.6 423.8 L 449 434.5 L 433.8 449.7 L 442.1 458.4 L 448.8 468.5 L 464.8 475.9 L 465.2 490.6 L 473.2 493.3 L 474.6 501 L 450.5 509.6 L 444.2 529 L 412.8 524 L 394.6 520.2 L 375.7 518 L 368.6 497.5 L 360.6 494.5 L 347.7 497.5 L 330.9 505.6 L 310.5 500.1 L 293.6 487.2 L 277.5 482.5 L 266.3 466.6 L 254 444.3 L 245 447 L 234.4 441.5 L 228.2 448 Z" />
<path class="neighbor" d="M 783.3 822.4 L 780.7 839.8 L 773.7 844.5 L 759.2 848.4 L 751.3 835.1 L 748.3 811.1 L 755.9 783.9 L 767.4 793.2 L 775.2 805 L 783.3 822.4 Z" />
<path class="neighbor" d="M 1245.9 644 L 1232.2 638.8 L 1231.7 624.5 L 1240 616.9 L 1258.2 612.2 L 1267.8 612.6 L 1271.6 619 L 1264.2 626.3 L 1260.4 636 L 1245.9 644 Z M 757.7 240.4 L 756.4 230.9 L 767.9 226.6 L 752.8 197.5 L 785.9 190.9 L 794.5 187.1 L 806.5 157.2 L 839.7 162.7 L 849 155.2 L 849.8 138.4 L 863.7 136.8 L 876.4 125.7 L 882.9 124.3 L 887.3 136 L 901.3 144.9 L 925.2 151.1 L 936.7 164.6 L 930.3 184.1 L 936.3 191.4 L 956.1 194.2 L 978.6 196.6 L 998.8 207 L 1009.2 208.8 L 1016.8 224.2 L 1026.6 234.2 L 1045 233.8 L 1079.5 237.5 L 1101.7 235.2 L 1118.2 237.7 L 1142.9 247.8 L 1163.2 247.8 L 1170.6 253 L 1190 244 L 1217 238.2 L 1242 237.6 L 1261.6 231.7 L 1273.6 222.8 L 1285.3 217.2 L 1282.6 211.6 L 1277.2 205.2 L 1286 194.4 L 1295.4 196 L 1312.6 199.3 L 1329.2 190.5 L 1354.7 184 L 1366.9 173 L 1378.7 168.2 L 1403 166 L 1416.2 167.9 L 1418 161.9 L 1402.8 150.3 L 1389.4 144.9 L 1376.6 151.1 L 1360.1 148.5 L 1350.6 150.6 L 1346.3 143.8 L 1358.1 127.1 L 1366.3 114.5 L 1386.3 120.8 L 1409.9 110.2 L 1409.7 102.9 L 1424.8 85.1 L 1434.1 79.8 L 1433.9 70.6 L 1424.7 66.6 L 1438.5 58.3 L 1459.3 55.3 L 1481.5 54.8 L 1506.5 59.8 L 1521.1 65.9 L 1531.5 82.8 L 1537.7 90 L 1543.6 100.2 L 1549.7 116.6 L 1578.8 122 L 1598.6 133.8 L 1605.4 149.5 L 1630.8 149.6 L 1645.3 143 L 1672.9 138 L 1664.1 153.1 L 1657.6 159.2 L 1651.9 177.5 L 1640.6 193.7 L 1620.4 190.8 L 1606 196.7 L 1610.4 211 L 1608 230.7 L 1599.5 231.2 L 1599.6 239.7 L 1588.8 229.8 L 1582.1 239.2 L 1556.3 246.4 L 1558.9 255.2 L 1544.5 254.6 L 1536.6 249.4 L 1525.1 261.2 L 1506.7 270.2 L 1493.1 280.9 L 1469.7 285.8 L 1457.4 293.6 L 1439.4 298.1 L 1448.3 290.4 L 1444.8 283.9 L 1458 272.6 L 1449.2 263.9 L 1434.6 269.8 L 1415.8 281.4 L 1405.5 292.2 L 1389.1 293 L 1380.6 300.8 L 1389.4 312.1 L 1403 314.8 L 1403.6 322.3 L 1416.8 327.2 L 1435.5 315.3 L 1450.4 321.8 L 1461.2 322.2 L 1463.9 331 L 1440.2 335.7 L 1432.4 344.7 L 1416.2 353.1 L 1407.6 364.8 L 1425.6 373.9 L 1432.2 390.4 L 1442.3 405.7 L 1453.7 418.5 L 1453.4 430.9 L 1442.9 435.5 L 1446.9 444.4 L 1456.7 449.6 L 1454.2 463.2 L 1449.9 476.5 L 1440.6 478 L 1428.4 496 L 1414.9 518 L 1399.3 537.9 L 1376.4 553.3 L 1353.1 567.4 L 1334.3 569.3 L 1324.1 576.7 L 1318.3 571.3 L 1308.8 579.6 L 1285.5 588 L 1267.8 590.6 L 1262.1 608.2 L 1252.8 609.2 L 1248.5 597.1 L 1252.4 590.6 L 1230 585.2 L 1222.1 588 L 1205.3 583.6 L 1197.3 576.8 L 1200 567.2 L 1184.7 564.2 L 1176.6 557.9 L 1162.4 566.8 L 1146.1 568.7 L 1132.8 568.6 L 1123.9 572.7 L 1115.2 575.2 L 1117.7 594.3 L 1108.8 593.8 L 1107.3 589.9 L 1106.8 583 L 1094.5 587.9 L 1087.3 584.8 L 1074.9 578.5 L 1079.8 564.6 L 1069.2 561.4 L 1065.2 546 L 1047.6 548.8 L 1049.6 529 L 1065.4 515 L 1066.1 501.2 L 1065.6 488.4 L 1058.3 484.4 L 1052.7 474.6 L 1042.9 475.9 L 1024.9 473.4 L 1030.5 466.3 L 1022.7 455.9 L 1010.8 463 L 996.8 458.9 L 977.5 469.5 L 962.3 481.9 L 948.8 484 L 941.5 479.5 L 932.7 479.1 L 920.8 475.3 L 911.7 479.5 L 900.7 491.9 L 899.3 478.8 L 889.1 482.3 L 869.6 480.7 L 850.7 476.8 L 837.1 469.5 L 824.1 466.2 L 818.5 458.2 L 809.1 455.8 L 792.3 444.9 L 778.9 439.7 L 772 443.7 L 748.7 432.1 L 732.3 421.5 L 727.6 403.1 L 739.6 405.3 L 740.2 396.8 L 733.5 388.2 L 735.2 374.6 L 717.2 355 L 689.8 348.2 L 684.8 335.4 L 672.5 327.6 L 669.5 322.8 L 667 313.3 L 667.6 306.8 L 657.4 303 L 651.9 304.7 L 647.7 289.2 L 652.5 285.4 L 650.2 281.5 L 666.1 273.6 L 677.7 270.3 L 695.3 272.6 L 701.7 261.9 L 723.1 259.9 L 729.1 253.3 L 755.4 244.2 L 757.7 240.4 Z" />
<path class="neighbor" d="M 1089 840.1 L 1091.9 837.1 L 1105.6 844.4 L 1106.9 853 L 1117.9 851 L 1123.4 844.1 L 1127.2 845.7 L 1137.1 855.8 L 1144.1 867 L 1145 878.2 L 1143.3 885.8 L 1144.9 891.6 L 1146.1 901.5 L 1152 906.1 L 1158.6 920.8 L 1158.2 926.5 L 1146.4 927.6 L 1130.6 915.2 L 1110.8 902 L 1108.9 893.5 L 1099.2 882.3 L 1096.9 868.4 L 1090.9 859.3 L 1092.7 847.2 L 1089 840.1 Z M 1386.4 879 L 1371.9 876.1 L 1352.7 876.1 L 1346.9 895.1 L 1340.5 901 L 1331.9 924.2 L 1318.3 927.8 L 1302.5 923.1 L 1294.5 924.5 L 1284.7 933 L 1274.1 931.8 L 1263.3 935.2 L 1251.8 925.7 L 1249.1 914.6 L 1261.3 920.3 L 1274.2 917.2 L 1277.6 903 L 1284.7 899.9 L 1304.7 896.3 L 1316.7 883 L 1324.9 872.5 L 1332.5 881.1 L 1336.1 875.4 L 1344 876 L 1345 865.3 L 1345.8 857.1 L 1358.6 845.5 L 1367.1 832.4 L 1373.8 832.3 L 1382.4 840.8 L 1383.2 848.1 L 1394.2 852.7 L 1408.1 857.7 L 1406.9 864.3 L 1395.7 865.1 L 1398.7 873.3 L 1386.4 879 Z" />
<path class="neighbor" d="M 0.7 457.6 L 19.3 460.2 L 26.5 455.1 L 30.5 449.1 L 43.3 446.7 L 46 441.1 L 51.5 438.3 L 34.9 421.6 L 68.4 413.2 L 71.5 410.7 L 91.7 415.2 L 116.6 426.9 L 163.7 460.5 L 194.8 461.9 L 209.6 463.5 L 213.8 471.4 L 225.6 471 L 232.2 485.4 L 240.4 489.2 L 243.2 495.1 L 254.6 502.1 L 255.6 509 L 254 514.6 L 256.1 520.2 L 260.9 524.9 L 263.1 530.4 L 265.6 534.5 L 270.7 537.8 L 275.3 536.6 L 278.5 543 L 279.1 546.8 L 285.5 563.8 L 335.8 572.2 L 339.1 568.6 L 346.8 580.5 L 335.6 613.9 L 285.5 630.6 L 237.3 637 L 221.7 644.5 L 209.8 662.1 L 202 664.9 L 197.8 659.3 L 191.4 660.1 L 175.2 658.5 L 172.2 656.8 L 152.9 657.2 L 148.3 658.7 L 141.5 654.3 L 137.1 662.6 L 138.8 669.6 L 131.4 674.9 L 129.3 667.8 L 124.2 662.8 L 122.9 656.1 L 114.3 650.1 L 105.4 636.1 L 100.7 622.5 L 89.1 611 L 81.7 608.2 L 70.6 592.3 L 68.7 580.7 L 69.4 570.8 L 59.8 552.3 L 52 545.7 L 42.9 542.3 L 37.4 532.7 L 38.4 528.9 L 33.7 520.3 L 28.8 516.5 L 22.3 504.1 L 12.1 490.6 L 3.6 479.2 L -4.7 479.2 L -2.1 470.1 L -1.4 464.2 L 0.7 457.6 Z" />
<path class="lake" d="M 725 236.5 L 724.9 236.9 L 722.6 237.1 L 720.2 238.1 L 717.8 239.1 L 717.5 239.6 L 717.5 240.2 L 715.2 242.3 L 713.2 242.9 L 711.9 243.2 L 705.5 243.5 L 703.6 243.4 L 701.9 243.1 L 696.2 241.4 L 693.8 240.9 L 692 240.8 L 690.9 240.8 L 690.3 239.8 L 690.1 239 L 690.3 238.6 L 694.1 238.1 L 699 236.8 L 702.7 236.1 L 706.4 235.5 L 708.9 235.1 L 712.2 235.4 L 714.7 234.6 L 721 234.1 L 724.1 234 L 722.5 235.1 L 722 235.6 L 722.2 236.1 L 725 236.5 L 725 236.5 L 725 236.5 Z" />
<path class="lake" d="M 828.8 147.2 L 827.4 148.4 L 826.8 149.1 L 826.2 150.5 L 825.2 151.1 L 824.3 150.9 L 820.1 148.6 L 816.3 146.8 L 814 145.8 L 810.9 145.2 L 807.8 144.4 L 804.9 143 L 804 142.5 L 804.2 141.9 L 806.6 141.9 L 808.1 141.7 L 810.8 141.5 L 811.8 140.9 L 812.4 139.8 L 811.2 138.8 L 810.1 137.7 L 810 136.8 L 810.5 136 L 810.6 133.6 L 811.4 131.7 L 813.4 129.9 L 816 128.7 L 818.1 128.3 L 820.8 127.5 L 822.2 126.7 L 821.9 125.3 L 819.8 123.8 L 817.7 122.3 L 815.6 122 L 814.6 121.9 L 813.7 121.2 L 812.5 120.4 L 811.5 120.3 L 810.6 119.7 L 809.6 118.9 L 809.6 118.6 L 810.1 118.4 L 813.7 119.2 L 815.9 118.8 L 818.4 117.3 L 819.6 117.2 L 819.6 117.6 L 817.2 118.7 L 816.8 119.3 L 816.2 119.9 L 815.7 120.4 L 817.3 121.2 L 825 125.3 L 826.3 126.6 L 825.7 127.2 L 822.7 127.9 L 818 129.4 L 816.5 129.7 L 813.7 130.8 L 812.1 132.4 L 811.7 134 L 812.2 135.7 L 813.8 138.7 L 816.4 139.2 L 818.9 139.4 L 818.7 139.8 L 814.9 140.1 L 813.5 141 L 813.2 141.6 L 814.1 142 L 815.9 142.7 L 818.2 143.5 L 821.1 144.6 L 823 145.1 L 825.8 145.6 L 828.1 146.5 L 828.8 147.2 L 828.8 147.2 L 828.8 147.2 L 828.8 147.2 Z" />
<path class="lake" d="M 1164 740.5 L 1163.3 739.9 L 1162.2 739.1 L 1161.1 739.1 L 1158.7 738.2 L 1156.8 736.4 L 1156.2 734.4 L 1154.6 734.2 L 1152.7 733.1 L 1151.2 731.8 L 1150.3 730.2 L 1149.8 728.8 L 1149.4 727.4 L 1149.9 726.7 L 1151.8 727 L 1154.1 727.9 L 1156.1 730.3 L 1157.8 733.5 L 1158.3 734.8 L 1158.9 735.2 L 1160.6 735.1 L 1161.8 735.5 L 1162.2 736.9 L 1162.2 738 L 1162.3 738.2 L 1162.8 738.6 L 1163.7 739 L 1163.7 739.5 L 1163.9 739.9 L 1164.3 740.4 L 1164 740.5 L 1164 740.5 L 1164 740.5 L 1164 740.5 Z" />
<path class="lake" d="M 1100.2 333 L 1100 333.5 L 1099.7 334.1 L 1099.7 335.3 L 1099.4 336.7 L 1098.1 337.2 L 1096.3 336.9 L 1094.8 335.8 L 1091.4 335.8 L 1086.9 335.2 L 1084.7 334.2 L 1082.6 332.3 L 1081.7 331.3 L 1082.3 330.7 L 1083.6 330.7 L 1084.5 330.6 L 1084.8 330 L 1084.3 328.7 L 1084 327.3 L 1084.9 326.8 L 1086.9 326.2 L 1089.3 326.5 L 1092.2 327.3 L 1095.1 329.4 L 1097.4 331.5 L 1100.2 333 L 1100.2 333 L 1100.2 333 L 1100.2 333 Z" />
<path class="lake" d="M 383.5 250.1 L 382.7 251.3 L 380.5 252.4 L 377.9 253.1 L 376.2 253.3 L 374.8 253.4 L 373.2 252.1 L 372 250.7 L 371 250.8 L 370.1 250.9 L 369.9 250.1 L 370.6 246.8 L 372.1 243.2 L 373.6 241.2 L 375.6 240.7 L 378.2 241.9 L 379.5 243.8 L 379.3 244.5 L 379.6 245.2 L 380.5 246.1 L 380.8 247.7 L 383.2 249 L 383.5 250.1 L 383.5 250.1 L 383.5 250.1 Z" />
<path class="lake" d="M 789 183.4 L 782.6 181.6 L 779.4 180 L 777.2 178.5 L 776.8 176.9 L 776.9 175.5 L 776.8 174.4 L 777.5 172.9 L 778.9 171.9 L 781 171.8 L 782.8 172.2 L 784.1 172.8 L 785.3 173.6 L 786.4 174.8 L 787.2 176.4 L 787.4 178.1 L 787.9 180.4 L 789 183.4 L 789 183.4 L 789 183.4 Z" />
<path class="lake" d="M 926.3 438 L 925.7 437.2 L 925.4 435.1 L 925.3 432.7 L 926.4 432.1 L 928.4 432.5 L 930.2 433 L 931.4 432.8 L 931.8 432.3 L 932.4 431.9 L 935 432 L 936.3 431.4 L 936.8 431.4 L 937.4 432 L 937.4 432.8 L 936.1 433.5 L 934.6 434.8 L 932.4 436.1 L 930.5 436.8 L 926.3 438 L 926.3 438 L 926.3 438 Z" />
<path class="lake" d="M 876.6 248.8 L 874.7 248.1 L 872.1 247.9 L 868.6 248.5 L 866.2 249.2 L 865.8 248.8 L 865.9 247.9 L 866.9 246.7 L 867.5 245.1 L 868.5 244.5 L 870.5 244.9 L 875.6 246 L 876.6 247.8 L 876.6 248.8 L 876.6 248.8 L 876.6 248.8 Z" />
<path class="lake" d="M 909.1 416.8 L 908.6 416.9 L 908 417.6 L 907.3 418.8 L 906.1 420 L 904.7 420.1 L 903.6 419.9 L 902.9 419.7 L 902.7 419.1 L 902.9 418.4 L 902.6 417.9 L 901.3 418 L 899.8 418.2 L 898.5 417.9 L 897.2 416.8 L 896.5 416 L 897.2 415.4 L 898.8 415.6 L 899.7 416.2 L 900.3 416.2 L 900.7 416 L 901.5 415.3 L 903.2 414.8 L 905.8 414.8 L 908.2 415.5 L 909.2 416.3 L 909.1 416.8 L 909.1 416.8 L 909.1 416.8 Z" />
<path class="lake" d="M 967 143 L 964.3 144.4 L 961.3 145.5 L 959.8 146.6 L 958.6 148.5 L 957.3 149.9 L 955.3 149.1 L 953.8 147.1 L 953.5 145.9 L 955.7 145.1 L 958.1 143.9 L 958.1 141.6 L 958.7 140.1 L 960 140 L 961 140 L 962 140.4 L 960.6 142.1 L 960.7 143.4 L 961.9 143.7 L 963 143.7 L 964.7 142.8 L 964.7 141.5 L 964.6 140.5 L 966.2 140.8 L 967.3 141.8 L 967 143 L 967 143 L 967 143 Z" />
<path class="lake" d="M 914 321.6 L 912.4 321.7 L 909.9 321.4 L 907.6 321 L 906.2 320.8 L 905.4 320.5 L 905.1 320 L 906.2 319.8 L 908.4 319.6 L 910.4 319.3 L 911.9 319.3 L 913.2 319.6 L 914.1 319.9 L 914.6 320.2 L 914.5 320.6 L 914.5 321 L 914.6 321.3 L 914 321.6 L 914 321.6 L 914 321.6 L 914 321.6 Z" />
<path class="lake" d="M 1135.7 638.5 L 1134.8 638.5 L 1133 639 L 1132.3 639.5 L 1131.8 639.8 L 1131.3 639.4 L 1130.5 638 L 1130.1 637 L 1129.8 636.1 L 1129.5 634.9 L 1129.8 634.6 L 1130.4 635 L 1130.7 635.7 L 1131.4 636 L 1131.7 636.1 L 1132 636.3 L 1132.8 636.3 L 1133.5 636.5 L 1133.6 637.3 L 1134.2 637.8 L 1135.2 638.1 L 1135.8 638.2 L 1135.9 638.3 L 1135.7 638.5 L 1135.7 638.5 L 1135.7 638.5 Z" />
<path class="lake" d="M 807.4 422.3 L 806.9 422.3 L 805.1 421.9 L 803.4 421.5 L 802.1 421.5 L 801.1 421.1 L 800.8 420.7 L 801.8 420.5 L 802.3 420.1 L 802.4 419.9 L 803.1 419.6 L 804.5 419.4 L 805.2 419.2 L 805.9 420.1 L 807 420.8 L 808.4 421.6 L 809.2 422.4 L 809.1 422.7 L 808.5 422.6 L 807.4 422.3 L 807.4 422.3 L 807.4 422.3 Z" />
<path class="lake" d="M 866.6 427.3 L 866.4 427.8 L 865.4 428 L 864.1 428.7 L 863.8 429.5 L 863.1 431 L 862.4 432.5 L 861.9 433.3 L 861.3 433.5 L 860.7 433.3 L 860.3 432.8 L 860.3 432.3 L 860.5 431.9 L 861.1 430.9 L 862.3 429.1 L 863.8 426.4 L 864.6 424 L 866 424.4 L 866.4 425.8 L 866.6 427.3 L 866.6 427.3 L 866.6 427.3 L 866.6 427.3 Z" />
<path class="lake" d="M 936 464.8 L 935.4 464.6 L 935 464.7 L 934.8 464.7 L 934.4 464.6 L 934 464.5 L 933.3 464.9 L 933 465.6 L 932.8 465.8 L 932.4 465.5 L 931.7 465.8 L 931 466.2 L 930.3 466.9 L 929.9 467.1 L 929.4 467.1 L 929 466.8 L 928.5 466.3 L 928.1 465.9 L 928 465.6 L 928.1 465.4 L 928.4 465.4 L 928.7 465.7 L 929 465.9 L 929.3 465.8 L 929.9 465.6 L 930.4 465.1 L 930.9 464.5 L 931.3 463.9 L 931.7 463.3 L 931.6 462.7 L 931.5 462 L 931.4 461.4 L 931 461 L 930.3 460.7 L 929.4 460.8 L 928.5 461.1 L 927.6 461.7 L 927 462 L 926.9 461.7 L 927.6 461.2 L 928.9 460.4 L 929.9 460 L 931.1 460.3 L 932 460.8 L 932.7 461.3 L 932.6 461.7 L 932.5 462 L 932.5 462.3 L 932.7 462.7 L 933.3 463.3 L 933.7 463.7 L 934.3 463.7 L 934.6 463.3 L 935.1 463.1 L 935.8 463.2 L 936.6 463.5 L 937.1 463.9 L 937 464.3 L 937.2 465.1 L 937.1 465.3 L 936.5 465 L 936 464.8 L 936 464.8 L 936 464.8 L 936 464.8 Z" />
<path class="lake" d="M 942.5 353.3 L 942.3 353.7 L 942 354.2 L 941.7 354.4 L 940 354.1 L 937.9 353.8 L 936.8 353.1 L 936.4 352.7 L 936.4 352.5 L 937.1 352.3 L 937.7 352.4 L 939.1 352.6 L 940.5 352.7 L 940.9 352.5 L 941.7 352.7 L 942.5 353.3 L 942.5 353.3 L 942.5 353.3 L 942.5 353.3 Z" />
<path class="lake" d="M 984 127.2 L 983.6 127.6 L 981.9 128.2 L 979.6 128.8 L 978.1 129.2 L 977.3 129.5 L 976 128.7 L 974.6 127.7 L 973.6 127.4 L 972.4 127 L 970.2 126.2 L 968.4 125.5 L 967.8 125.1 L 967.9 124.6 L 968.3 124.2 L 969.6 124 L 971.6 123.9 L 975 124.4 L 977.7 125.5 L 978.5 125.9 L 979.2 125.8 L 980 125.9 L 981.6 125.7 L 982.7 126.1 L 983.7 126.7 L 984 127.2 L 984 127.2 L 984 127.2 L 984 127.2 Z" />
<path class="lake" d="M 851.8 431.3 L 851.2 432 L 851.1 433 L 850.7 433.7 L 850.3 434.1 L 850 434.1 L 850.1 433.6 L 849.6 432.8 L 848.5 432.3 L 847.6 432.3 L 847 432.5 L 846.4 432.7 L 845.5 432.7 L 844.3 432.2 L 843.2 431.7 L 842.8 431 L 843 430.2 L 843.6 429.5 L 844.9 429.3 L 846.3 429.6 L 847.7 429.7 L 849.1 429.6 L 850.5 430 L 851.6 430.5 L 851.8 430.9 L 851.8 431.3 L 851.8 431.3 L 851.8 431.3 L 851.8 431.3 Z" />
<path class="lake" d="M 1052.3 366 L 1051.8 366.2 L 1050.8 366.2 L 1050 366.1 L 1049.4 366.2 L 1049.1 366.1 L 1049 366.4 L 1048.9 366.7 L 1048.3 366.8 L 1047.5 366.6 L 1047.1 366.2 L 1046.6 365.3 L 1046.7 364.9 L 1047.2 364.4 L 1047.9 364 L 1048.2 363.6 L 1048.1 363.2 L 1048.3 362.8 L 1048.9 362.4 L 1049.7 361.9 L 1050.2 361.8 L 1050.7 362.7 L 1050.8 363.6 L 1050.8 364.4 L 1051.6 365.2 L 1052.3 366 L 1052.3 366 L 1052.3 366 L 1052.3 366 Z" />
<path class="lake" d="M 1045.3 363.7 L 1045.1 363.9 L 1044.3 364.7 L 1043.5 365.5 L 1042.3 366 L 1041.3 366.2 L 1038.9 364.8 L 1038.7 364.4 L 1038.5 363.6 L 1038.6 363.3 L 1038.9 363.3 L 1039.4 363.1 L 1041.3 362.9 L 1043.3 362.9 L 1044.5 363.3 L 1045.3 363.7 L 1045.3 363.7 L 1045.3 363.7 L 1045.3 363.7 Z" />
<path class="lake" d="M 641.3 250.3 L 640.9 250.4 L 639.8 250.5 L 638.2 250.3 L 636 250.4 L 633.7 250.6 L 631.1 251.9 L 630.6 251.8 L 630.3 251.5 L 630.7 251.3 L 631.2 250.8 L 631.5 250.2 L 631.2 249.3 L 630.7 248.4 L 631.2 248 L 633.4 248 L 635.4 248.3 L 636.6 248.7 L 637.8 249.2 L 640.4 249.6 L 641.4 250 L 641.3 250.3 L 641.3 250.3 L 641.3 250.3 Z" />
<path class="lake" d="M 775.3 436.2 L 774.9 436.5 L 774.4 436.6 L 773.6 436.6 L 772.7 436.2 L 772.2 435.7 L 772.6 435.3 L 773.2 434.8 L 773.2 433.4 L 773.4 432.6 L 774 432.4 L 774.7 432.8 L 775 433.1 L 775.1 433.6 L 774.3 434.2 L 774.7 435 L 775.3 435.7 L 775.3 436.2 L 775.3 436.2 L 775.3 436.2 L 775.3 436.2 Z" />
<path class="lake" d="M 779.9 435.1 L 779.3 435.9 L 778.4 436.6 L 777.3 436.9 L 776.6 436.6 L 776.3 435.8 L 776.4 434.1 L 776.9 433.8 L 777.8 433.9 L 778.9 434.2 L 779.7 434.6 L 779.9 435.1 L 779.9 435.1 L 779.9 435.1 L 779.9 435.1 Z" />
<path class="lake" d="M 391 195.1 L 392 194 L 392.7 191.3 L 394.9 189.3 L 395.4 187.3 L 396.4 186.3 L 396.7 184.1 L 397.7 182.2 L 399.8 182.2 L 399.4 181.4 L 400 180.8 L 403.5 181.2 L 403.8 180.4 L 405.5 180.7 L 406.5 179.5 L 407.5 179.4 L 406.6 181.2 L 404.2 181.2 L 401 182.9 L 400.3 186.2 L 398.6 186.8 L 397 188.5 L 396.3 191.7 L 397.2 194 L 394.9 196 L 395.6 196.3 L 395.2 197.6 L 396.2 199.2 L 395.2 200 L 394.5 203.4 L 393.8 204.4 L 391.9 205.8 L 390.1 205.7 L 389.7 205.2 L 389.7 204.1 L 391.1 202.8 L 389.5 198.7 L 391 195.1 Z" />
<path class="lake" d="M 432.3 178 L 431.8 177.5 L 433 176.1 L 431.3 173.2 L 428.9 174.5 L 425 172.7 L 421.4 173.5 L 419 172.1 L 419.2 169.9 L 424 167.7 L 425.3 169.1 L 425.9 170.9 L 426 171 L 426.2 170.9 L 426.8 169.1 L 426.9 169 L 427.1 169 L 428.9 170 L 431.6 169 L 431.6 168.8 L 431.6 168.5 L 428 166.9 L 428 166.5 L 428.9 166.3 L 432.7 167 L 432.2 169.7 L 434.1 171.5 L 438.1 171.9 L 440.2 171.2 L 440.3 171.1 L 440.3 170.9 L 439.3 169.8 L 440.9 169.2 L 441.2 168.6 L 444.7 168.1 L 443.4 169.7 L 442.1 170.6 L 440.6 172 L 440.9 173 L 439.5 175.5 L 435.5 176.6 L 433.6 177.9 L 432.3 178 Z" />
<path class="country" d="M 1042.9 475.9 L 1044.2 482.2 L 1038.3 485.3 L 1039.7 495.5 L 1027.8 492.5 L 1006.1 504.1 L 1006.6 513.6 L 997.4 527.6 L 996.6 535.8 L 989.1 549.6 L 976 545.8 L 975.4 563 L 971.6 568.7 L 973.4 575.8 L 965.1 579.8 L 956.3 553.3 L 951.7 553.3 L 949 564 L 939.9 555.4 L 945 545.9 L 952.5 544.9 L 960.2 530.7 L 950.6 527.9 L 935.1 528.1 L 919.2 525.8 L 917.7 514.2 L 909.7 513.4 L 896.5 506.2 L 890.6 517.5 L 902.6 526.4 L 892.2 532.6 L 888.5 538.7 L 898.8 543.2 L 895.9 553.2 L 901.7 565.8 L 904.3 579.6 L 901.9 585.7 L 890.5 585.4 L 869.9 588.9 L 870.9 601.5 L 862 611.4 L 837.9 622.6 L 819.2 642.3 L 806.7 652.8 L 790 663.8 L 790 671.4 L 781.7 675.6 L 766.6 681.5 L 758.8 682.4 L 753.8 695.2 L 757.3 716.9 L 758.2 730.8 L 751.1 746.6 L 751 775 L 742.4 775.8 L 734.8 788.6 L 739.8 794.1 L 724.6 798.8 L 719 810.2 L 712.3 815 L 696.5 799.4 L 688.7 776 L 682.3 759.1 L 676.5 751.2 L 667.6 735.2 L 663.4 714.3 L 660.5 703.9 L 645.3 680.9 L 638.4 648.5 L 633.4 627.1 L 633.5 606.9 L 630.2 591.2 L 605.9 601.2 L 594.1 599.2 L 572.3 579 L 580.4 573 L 575.4 566.4 L 555.8 552.2 L 566.9 541.1 L 603.7 541.1 L 600.4 526.8 L 591 518.3 L 589.1 505.4 L 578.2 497.9 L 596.6 480.4 L 616 481.7 L 633.5 464.2 L 643.9 447.2 L 660.2 430.4 L 659.9 418.5 L 674.2 408.9 L 660.7 400.6 L 654.9 389.3 L 648.9 374.7 L 657.1 367.5 L 682.5 371.5 L 701.1 369 L 717.2 355 L 735.2 374.6 L 733.5 388.2 L 740.2 396.8 L 739.6 405.3 L 727.6 403.1 L 732.3 421.5 L 748.7 432.1 L 772 443.7 L 761.4 451.3 L 754.9 466.9 L 771.1 473.3 L 786.8 481.5 L 808.6 490.8 L 831.5 493 L 841.1 501.5 L 854.1 503.1 L 874.2 507 L 888.1 506.7 L 890 500.1 L 887.8 489.5 L 889.1 482.3 L 899.3 478.8 L 900.7 491.9 L 901 495.3 L 916.2 501.6 L 926.7 499 L 940.8 500.1 L 954.5 499.6 L 955.6 489.4 L 948.8 484 L 962.3 481.9 L 977.5 469.5 L 996.8 458.9 L 1010.8 463 L 1022.7 455.9 L 1030.5 466.3 L 1024.9 473.4 L 1042.9 475.9 Z" />

<path class="river" d="M 809.6 118.6 L 813.6 120.6 L 815.7 121.5 L 817.3 121.7 L 819.5 123 L 822.4 125.2 L 823.6 126.6 L 823.2 127.2 L 820.4 128.1 L 815.4 129.6 L 812.4 131.2 L 811.3 132.9 L 811 134.9 L 811.5 137 L 812.3 138.4 L 813.3 139.3 L 813.4 140 L 812.4 140.7 L 812 141.5 L 812.1 142.3 L 814.3 143.7 L 818.3 145.7 L 821.4 147.7 L 823.5 149.5 L 825 150.5 L 826.2 150.5" />
<path class="river" d="M 1279.4 403.9 L 1271.4 401" />
<path class="river" d="M 1042.3 366 L 1041.6 365.1 L 1040.7 364.7 L 1038.7 364.4 M 1050.2 361.8 L 1049.4 363.9 L 1048.5 364.8 L 1046.6 365.3" />
<path class="river" d="M 632.8 369.6 L 633.7 373.8 L 633.9 375.7 L 633.7 376.7 L 633.1 377.5 L 631.5 378.5" />
<path class="river" d="M 736.6 676.9 L 739.3 676.8 L 740.2 675.7 L 740.2 673.6 L 740.7 672.1 L 741.9 671.1" />
<path class="river" d="M 817.8 588.5 L 815.4 585.9 L 814.1 585 L 813.2 584.9 L 812.3 585.2 L 811.7 586 L 810.6 586.2 L 808.5 585.6" />
<path class="river" d="M 641.4 250 L 635.3 249.8 L 632.6 250.3 L 630.6 251.8" />
<path class="river" d="M 775 433.6 L 773.4 432.6 M 699.3 423.3 L 699 424.5 L 698.5 425.1 L 697.8 425.4 L 696.5 425 L 693.8 423" />
<path class="river" d="M 592.2 272.4 L 591.6 273.5 L 589.4 274.2 L 583.4 275.1 M 560.5 261.2 L 555.8 260.8 L 553.7 260.2 L 552.9 259.4 L 552.7 258.7 M 448.6 179.1 L 445.3 177.6" />
<path class="river" d="M 1303.2 463 L 1301.5 464.7 L 1299.7 465.6 L 1297.2 466.2 L 1294 465.8 L 1288 463.8 M 1304.7 461.1 L 1306 457" />
<path class="river" d="M 556.4 329.5 L 554 330.7 L 552.2 330.3 L 550.1 328.8 L 549 327.5 L 548.7 326.5 L 547.9 326 L 546.3 326.1 L 545.3 325.9 L 544.8 325.4 L 543.5 325.5 L 541.5 326.3 L 539.4 325.9 L 537.3 324.2 L 533.3 323.6 L 527.3 324.1 L 521.3 322.9 L 515.1 320.1 L 510.8 318.5 L 508.4 317.9 L 506.4 316.5 L 504.9 314.2 L 501.2 311.7 L 495.2 309 L 490.6 305.9 L 487.3 302.4 L 485.2 299.8 L 484.4 298 L 481.4 295.6 L 476.2 292.5 L 472.6 290.9 L 470.7 290.7 L 469.6 289.7 L 469.3 288.1 L 467.6 286.3 L 464.5 284.3 L 462.2 282.3 L 460 279.1 L 458.9 274.2 L 457.6 271.9 L 455.8 270.7 L 454.2 268.3 L 452.9 264.8 L 451.8 262.5 L 451 261.4 L 449.3 260.3 L 446.7 259 L 444.2 258.4 L 441.9 258.4 L 440.3 258 L 439.5 257 L 436.4 254.9 L 431.1 251.6 L 428 249.2 L 427.2 247.6 L 426.2 246.7 L 424.9 246.3 L 424.1 245.6 L 423.6 244.6 L 422.6 243.6 L 420.9 242.4 L 418.3 241.4 L 414.9 240.6 L 412.3 239.3 L 410.4 237.7 L 408.9 236.7 L 407.9 236.4 L 407.5 235.7 L 407.8 234.6 L 407.5 233.9 L 406.4 233.4 L 406 232.8 L 406.2 232.1 L 405.9 231.2 L 405.1 230.2 L 404.8 229.1 L 405 228.2 L 404.8 227 L 404.2 225.7 L 404 224.8 L 404.1 224.7 M 404.1 224.7 L 404.1 224.7 M 404.1 224.7 L 404.3 224.1 L 404.1 223.2 L 403.3 222.1 L 403.1 221.3 L 403.3 220.7 L 404.2 220.2 L 405.9 219.9 L 406.7 219 L 406.8 217.6 L 406 216.1 L 404.3 214.5 L 403.8 213.3 L 404.7 212.6 L 406.7 211.8 L 411.5 210.4 M 404.1 224.7 L 402.6 222.5 L 402.4 220.8 L 403 218.8 L 402.8 217.3 L 401.7 216.3 L 399.7 215.6 L 396.7 215 L 395.3 213.7 L 395.4 211.7 L 394.3 209.5 L 391 205.7" />
<path class="river" d="M 1046.1 518.6 L 1045.9 518.8 L 1046.1 519.2 L 1045.9 520.5 L 1045 523.4 L 1044 524.7 L 1043.1 524.5 L 1042.3 525.2 L 1041.6 526.7 L 1041.6 527.8 L 1042.4 528.3 L 1042.3 528.7 L 1041.5 528.8 L 1041.1 529.3 L 1041.1 530 L 1040.7 530.7 L 1039.4 531.5 L 1038.4 533.1 L 1038.4 534.4 L 1039 536 L 1039.4 537.8 L 1039.5 539.8 L 1039.8 541.3 L 1040.5 542.1 L 1040.8 542.9 L 1040.5 543.5 L 1039.4 544.1 L 1037.3 544.6 L 1035.7 544.2 L 1034.4 542.9 L 1033.1 541.9 L 1031.6 541.4 L 1030.1 541.3 L 1028.8 541.8 L 1027.5 542.9 L 1026.3 544.6 L 1025.6 546.1 L 1025.4 548 L 1022.2 552.9 L 1020.9 557.8 L 1020.4 564.3 L 1019.9 567.9 L 1019.4 568.4 L 1019.5 569.4 L 1020.2 570.9 L 1020.5 572.2 L 1020.3 573.4 L 1020.3 574.2 L 1020.8 574.7 L 1021.1 576.6 L 1021.3 580.1 L 1020.9 582 L 1019.8 582.6 L 1018.7 582.6 L 1017.6 581.9 L 1015.9 581.7 L 1013.7 581.8 L 1012.1 582.6 L 1011 584.2 L 1010.3 586.1 L 1009.8 588.3 L 1009.3 589.5 L 1008.5 589.9 L 1006.9 591.4 L 1005.1 592.4 L 1002.4 593.3 L 1001 594.7 L 1001 596.7 L 1000.6 598.3 L 999.7 599.6 L 1000 602.2 L 1001.6 605.9 L 1002.5 608.8 L 1002.6 610.8 L 1003.3 612.7 L 1005.4 615.4 L 1006.4 616.5 L 1006.9 618.7 L 1007.2 622.5 L 1007 626 L 1006.3 629.2 L 1006.4 631.5 L 1007.2 633.1 L 1007 634.4 L 1005.9 635.6 L 1005.3 636.6 L 1005.2 637.5 L 1006.4 639.3 L 1009.1 642.1 L 1010.7 644.3 L 1011.3 645.9 L 1011.6 648.1 L 1011.6 649.7 L 1011.7 650.6 L 1011.9 651.6 L 1012.1 652.4 L 1013 653.3 L 1013.4 654.2 L 1013.3 655.2 L 1013.7 656 L 1014.8 656.7 L 1015 657.5 L 1014.2 658.5 L 1014.1 659.8 L 1014.6 661.4 L 1014.5 662.6 L 1013.8 663.4 L 1013.6 664.4 L 1014.1 665.7 L 1013.1 666.7 L 1012.1 667.1 L 1010.8 667.6 L 1009.6 668.7 L 1009.4 669.9 L 1008 672 L 1003.9 676.6 L 1003.2 677.2 L 1002.2 677.7" />
<path class="river" d="M 916.1 541.5 L 915.7 544.8 L 915.6 547.7 L 916.2 549.4 L 918.3 551.7 L 920.4 553.4 L 921.7 554.2 L 924.9 556.1 M 916.1 541.5 L 917.3 544.2 L 919.2 545.7 L 922.4 547.5 L 924.1 549.3 L 924.1 550.8 L 924.6 551.5 L 925.4 551.3 L 926.4 551.9 L 928.4 554 L 929.9 554.8 M 1010.7 480.2 L 1011.5 482.2 L 1010.2 483.5 L 1007.2 484.7 L 1006 485.3 L 1005.8 485.5 L 1005.8 485.6 L 1006.1 485.6 L 1006.3 485.8 L 1006.3 486.2 L 1005.4 486.7 L 1003.6 487.1 L 1002 487.9 L 1000.7 488.8 L 999.4 490 L 998.2 491.6 L 997.9 492.3 L 997.3 493 L 996.8 493.8 L 996.7 494.8 L 996 495.7 L 994.7 496.7 L 992.9 497.7 L 990.5 498.8 L 989.3 499.2 L 987.7 499.2 L 983.2 501.4 L 977.4 501.3 L 974.7 501.7 L 973.3 502.4 L 970.8 503 L 967.1 503.4 L 964.9 504 L 964.2 504.7 L 963 504.9 L 961.3 504.8 L 959.1 505.4 L 956.5 506.7 L 955.1 507.6 L 954.9 508.3 L 953.3 509.1 L 948 510.9 L 946.3 511.2 L 944.5 511.1 L 941.4 510.6 L 939.7 510.2 L 938.1 510.4 L 935.8 511.1 L 933.2 511.1 L 930.2 510.2 L 926.4 510.7 L 922 512.6 L 918.6 515.3 L 916.5 519 L 915.5 522.2 L 915.5 524.9 L 915.1 527.5 L 914.2 529.9 L 914 531.2 L 914.1 532.1 L 916 536.2 L 916.3 540.2 L 916.1 541.5" />
<path class="river" d="M 1151.9 469.1 L 1153.5 469.8 L 1156 469.9 L 1160 469.6 L 1162.6 468.9 L 1163.8 467.7 L 1164.8 467.2 L 1165.3 466.9 L 1167 466.6 L 1168.4 466.6 L 1169.3 467 L 1170.1 467 L 1170.9 467 L 1171.3 467.2 L 1171.8 467.8 L 1172.7 468.1 L 1173.3 468 L 1173.7 467.4 L 1174.6 467.1 L 1176.1 467.1 L 1177 466.8 L 1177.4 466.1 L 1178.2 465.6 L 1179.5 465.3 L 1180.3 464.9 L 1180.8 464.8 L 1181.5 465.1 L 1182.4 465.2 L 1183.5 464.9 L 1184.2 465.1 L 1184.6 465.8 L 1185 466.2 L 1185.5 466.2 L 1185.9 466 L 1186 465.4 L 1185.8 464.9 L 1185.1 464.5 L 1185.1 463.8 L 1185.6 463.1 L 1186.9 462.5 L 1189.1 462.2 L 1190.3 461.4 L 1190.5 460.3 L 1192.1 458.9 L 1195.1 457.4 L 1196.5 456.4 L 1196.3 455.8 L 1196.6 454.9 L 1197.4 453.7 L 1198.2 453.3 L 1198.9 453.7 L 1199.9 453.9 L 1201.2 453.7 L 1202.8 452.7 L 1204.5 450.8 L 1206 450.4 L 1207.1 451.5 L 1208.5 451.8 L 1210.3 451.5 L 1211.6 450.6 L 1212.2 449.2 L 1213.4 448.6 L 1215.2 448.9 L 1218.6 446.1 L 1226.4 437.1 L 1227.8 435.2 L 1228.3 434.2 L 1228.2 433.3 L 1228.7 432.5 L 1229.6 431.9 L 1233.9 431.2 L 1245.7 429.9 L 1247.1 429.5 L 1248 429.6 L 1248.8 430 L 1250.4 429.8 L 1252.7 429.2 L 1254.4 429.1 L 1255.4 429.5 L 1257.1 429.6 L 1259.4 429.3 L 1262.6 429.8 L 1268.5 431.4 L 1270.9 432.6 L 1272.1 432.9 L 1273 432.7 L 1274.1 433 L 1275.2 433.8 L 1276.6 435.6 L 1278.1 438.3 L 1279.2 439.8 L 1279.9 440 L 1280.1 440.4 L 1279.9 440.9 L 1280 441.5 L 1280.4 442 L 1280.9 442 L 1281.6 441.6 L 1283.7 440.3 L 1285.1 439.7 L 1285.8 439.8 L 1286.6 440.3 L 1287.6 441.4 L 1289.1 441.9 L 1291.1 441.9 L 1292.2 442.2 L 1292.5 442.8 L 1292.3 443.6 L 1291.7 444.7 L 1292.3 445.7 L 1294.2 446.5 L 1294.9 448 L 1294.5 450.3 L 1295 451.2 L 1296.3 450.8 L 1297.2 450.3 L 1297.6 450.4 L 1298 450.7 L 1298.2 450.9 L 1298.6 450.9 L 1298.7 450.7 L 1299.1 450.3 L 1299.9 450.2 L 1300.5 450.4 L 1300.3 450.6 L 1300.5 450.9 L 1301.2 451.1 L 1301.8 451.2 L 1302.9 450.8 L 1303.8 451.1 L 1304.1 452 L 1303.8 452.3 L 1303.4 453.5 L 1303.5 454.7 L 1304 455 L 1304.6 455.1 L 1305.1 455.3 L 1305.3 455.5 L 1305.7 455.7 L 1306.4 455.9 L 1306.9 455.8" />
<path class="river" d="M 622 427 L 622 428.2 L 621.4 429.3 L 619.6 431.6 L 615.9 436.5 L 614.3 437.1 L 612.6 438.3 L 610.3 440.5 L 608.3 443.4 L 606.7 447 L 605.9 449.7 L 605.9 451.2 L 605.2 452.7 L 603.8 454 L 603.3 455.1 L 603.6 456 L 603.6 457 L 603.2 458.1 L 602.8 458.9 L 602.2 459.5 L 601.5 459.8 L 600.6 459.8 L 599.6 460.5 L 598.5 462.1 L 597.7 462.9 L 596.5 463.1 M 710.5 408.5 L 705.5 405.7 L 702.3 403.5 L 699.4 402.2 L 695.8 401.1 L 693.9 399.3 L 693.6 396.9 L 692.2 394.6 L 689.6 392.6 L 686.9 391.3 L 684.1 390.6 L 682.5 390.5 L 682.1 390.9 L 682.3 391.6 L 683 392.6 L 683.2 393.3 L 683 393.8 L 681.1 394.1 L 677.7 394.3 L 675 393.8 L 673.1 392.7 L 671.9 392.6 L 671.2 393.5 L 669.8 393.8 L 667.8 393.6 L 666.6 394.6 L 666.3 397 L 662.9 400.2 L 656.3 404.3 L 650.5 407.2 L 645.6 408.8 L 642 410.9 L 638.7 415 L 636 417.4 L 634 418.4 L 631.8 418.8 L 629.4 419.7 L 627 421.2 L 625.3 422.5 L 624.4 423.5 L 623.8 424.6 L 623.7 425.8 L 623.2 426.6 L 622 427" />
<path class="river" d="M 1088.8 396.6 L 1090.3 398.4 L 1091.6 399.4 L 1093.8 400.4 L 1096.1 402.9 L 1097.9 404.3 L 1099.9 405.3 L 1101 406.3 L 1101 407.2 L 1101.7 407.9 L 1103 408.5 L 1103.8 409.8 L 1104.3 413.2 L 1107.9 416.1 L 1111.4 416.7 L 1115.9 416 L 1119 416.3 L 1120.6 417.6 L 1121.7 419.3 L 1122.1 421.4 L 1121.9 422.9 L 1121.2 423.6 L 1121.1 424.2 L 1121.6 424.8 L 1121.2 425.8 L 1119.9 427.2 L 1119.1 428.3 L 1118.9 430.3 L 1119 431.4 L 1119.8 432.7 L 1121.2 434.3 L 1122 435.9 L 1122.1 437.3 L 1122.7 439.3 L 1123.8 441.9 L 1124.3 443.9 L 1124 445.2 L 1124.1 446.3 L 1124.6 447.2 L 1124.6 449.5 L 1124 453.3 L 1124.5 456.2 L 1125.8 458.2 L 1127.6 458.9 L 1131.3 457.7 L 1133.7 458.3 L 1134.7 458.8 L 1135 459.6 L 1135.7 459.6 L 1136.6 458.8 L 1137.4 458.7 L 1138.1 459.2 L 1138.7 459.2 L 1139.3 458.7 L 1140.2 458.7 L 1141.5 459.2 L 1142.4 459.1 L 1142.9 458.6 L 1143.7 458.3 L 1144.9 458.2 L 1146.2 458.6 L 1147.6 459.6 L 1148.5 459.6 L 1148.7 458.7 L 1148.4 458.1 L 1147.7 457.9 L 1147.2 457.5 L 1147.1 456.8 L 1147.7 455.9 L 1148.4 455.2 L 1149 454.7 L 1149.7 454.5" />
<path class="river" d="M 993.3 458.3 L 996.1 456.2 L 998 455.4 L 1000 455.3 L 1001.4 454.8 L 1002.3 453.8 L 1002.7 452.9 L 1002.5 452 L 1003.3 451.3 L 1005.2 450.9 L 1006.1 450.3 L 1006.2 449.3 L 1006.9 448.9 L 1008.3 449 L 1009 449.3 L 1008.9 449.7 L 1009.3 450.1 L 1010.1 450.5 L 1010.6 452 L 1011 454.6 L 1010.5 456.7 L 1009 458 L 1007.2 459.2 L 1005.1 460.2 L 1003.1 462 L 1001.2 464.6 L 1000.8 466.1 L 1002 466.4 L 1003.4 467.7 L 1004.9 470 L 1005.6 471.8 L 1005.6 472.9 L 1005.2 473.9 L 1004.3 474.9 L 1004.1 475.9 L 1004.4 476.9 L 1005.5 477.3 L 1007.4 477.4 L 1008.9 478.1 L 1010.7 480.2" />
<path class="river" d="M 841.4 146.1 L 836.9 147.2 L 834.9 148 L 834 148.9 L 832.4 149.7 L 830.3 150.3 L 828.4 150.6 L 826.2 150.5 M 809.6 118.6 L 805.7 117.9 L 803.4 116.8 L 801.4 115 L 798.4 113.5 L 794.5 112.3 L 792.2 110.9 L 791.4 109.5 L 789.3 108.9 L 786 109.2 L 783 108.8 L 780.4 107.7 L 778.2 107.2 L 776.4 107.3 L 774.2 107 L 771.6 106.2 L 769.5 106.1 L 767.9 106.5 L 764.9 106.6 L 760.5 106.4 L 757.4 105.8 L 755.7 104.7 L 753.7 104.3 L 751.4 104.6 L 748.4 104 L 744.7 102.4 L 741.9 101.5 L 740.1 101.3 L 738.6 101.5 L 737.5 102.1 L 735 101.7 L 729.1 99.8 L 725.8 98.3 L 724.1 97.2 L 722.8 96 L 721.7 94.3 L 720.8 92.1 L 719.3 90.3 L 717.2 88.8 L 714.8 87.6 L 712 86.5 L 710.6 85 L 710.8 83 L 708.8 81.1 L 704.7 79.2 L 702.6 77.4 L 702.4 75.5 L 701.6 74.1 L 700.2 73.2 L 699.6 72.3 L 699.8 71.6 L 699.8 70.8 L 699.5 70 L 698.8 69.3 L 697.8 69 L 697.5 68.5 L 697.9 68 L 697.9 67.4 L 697.6 66.9 L 695.7 65.5 L 695.1 65.4 L 694.8 65.3 L 694.6 65 L 694.6 64.4 L 694.2 64.2 L 691.8 64.1 L 690.9 63.6 L 690.6 62.8 L 689 62.2 L 686 61.9 L 684.1 61.2 L 683.3 60 L 682 59.1 L 680.2 58.4 L 679.3 57.8 L 679.3 57.4 L 678.9 57.1 L 678.5 56.9 L 678.2 56.7 L 678.3 56.4 L 678.2 55.8 L 677.5 54.9 L 675.8 53.8 L 673.2 52.6 L 671.5 51.6 L 670.7 50.6 L 670.5 49.3 L 671 47.6 L 670.9 46.6 L 669.7 46" />
<path class="river" d="M 925.9 151.9 L 925.2 154.5 L 924.7 155.5 L 923.8 155.9 L 922.7 156 L 921.6 156.8 L 920 158.2 L 918.4 159.2 L 916.5 159.6 L 914.7 160.6 L 912.9 162.2 L 910.6 162.9 L 907.7 162.6 L 904.3 161.7 L 900.5 160.1 L 895.7 158.8 L 889.8 158 L 884.5 156.9 L 879.7 155.6 L 876.8 154.5 L 875.9 153.5 L 874.8 153 L 873.5 153.2 L 872 152.9 L 869.4 151.7 L 863.8 148.8 L 860.9 148.1 L 858.8 148.5 L 856.2 148.1 L 853.1 147 L 850.2 146.4 L 847.5 146.3 L 846 146.1 L 845.6 145.8 L 844.4 145.7 L 841.4 146.1" />
<path class="river" d="M 911.8 575.9 L 910.9 572.2 L 910 570.8 L 908.8 570.1 M 908.8 570.1 L 908.1 570.9 L 908 573 L 908.6 575.3 L 909.7 577.8 L 910.1 579.5 L 909.7 580.9 L 909.6 582.4 L 909.4 584 L 909.7 585.1 M 894.4 564 L 893.5 566 L 892.9 568.2 L 892.8 570 L 891.9 571.3 L 890.2 572.2 L 889 573.6 L 888.5 576.8 M 894.4 564 L 895.7 564.2 L 897.1 564.2 L 898.5 564.5 L 899.7 565.2 L 900.8 566.1 L 901.1 567.1 L 900.8 568 L 901.2 568.8 L 902.3 569.5 L 903.3 571.9 L 904.6 575.9 L 904.7 577.4 L 904.6 578.9 M 921.7 554.2 L 922.1 558.1 L 922.6 559.6 L 923.5 560.3 L 924.3 560.8 L 924.6 561.5 L 924.9 561.8 L 925.5 562.3 L 925.5 562.9 L 925.8 563.5 L 926.5 564.4 L 926.5 565.8 L 927.1 567.5 L 927.8 567.9 M 905.6 547.2 L 907.4 550.3 L 908.8 551.5 L 910.1 552.2 L 911.2 553.1 L 912.1 554.2 L 912.5 555 L 912.3 555.4 L 912.6 555.7 L 913.4 555.8 L 913.8 556.4 L 913.8 557.4 L 914.1 558.1 L 914.3 558.7 L 914.4 559.6 L 914.8 560 L 915.6 560.6 L 915.8 561.5 L 916.6 563.4 L 919.3 566.4 L 920.6 569 L 920.7 571.1 L 920.2 572.7 M 905.6 547.2 L 907.1 548.2 L 908.5 548.2 L 910.1 548.7 L 912.1 549.7 L 913.9 550 L 916.3 549.6 M 893.7 540.6 L 895.6 542.7 L 896 543.6 L 895.9 544.3 L 896.3 544.9 L 897.4 545.4 L 897.8 546.1 L 897.7 546.9 L 898.6 547.6 L 900.5 548.3 L 901.5 549.5 L 901.6 551.2 L 901.1 552.6 L 900 553.8 L 899.8 554.9 L 900.6 556 L 901.3 556.4 L 901.8 556.7 L 902.2 557.3 L 902.5 557.7 L 903.6 558.2 L 903.8 559.4 L 904.2 560.7 L 905.3 561.9 L 905.7 563.1 L 905.4 564.3 L 905.7 565.6 L 906.3 567 L 907.3 568 L 908.3 568.7 L 908.4 568.7 L 908.3 569.1 L 908.8 570.1 M 893.7 540.6 L 895.4 541.3 L 897.8 541.6 L 899.2 542.5 L 899.5 543.8 L 899.9 544.7 L 900.5 544.9 L 901.4 544.9 L 902.5 544.5 L 903.9 545.2 L 905.6 547.2 M 885.7 533.3 L 886.1 535.9 L 887.4 538 L 890 540.6 L 891 543.2 L 890.6 545.7 L 890.5 548 L 890.9 549.9 L 890.7 551.4 L 890.1 552.1 L 890.6 553.1 L 891.6 554 L 892.1 554.7 L 892.8 554.9 L 893.1 556.1 L 893 558.2 L 893.3 559.5 L 894.3 560 L 894.9 560.7 L 895.2 561.5 L 894.7 563.3 L 894.4 564 M 885.7 533.3 L 886.2 534.5 L 887.1 536 L 888.4 537.9 L 889.5 538.9 L 890.8 539.4 L 891.9 539 L 892.7 539.5 L 893.7 540.6 M 750.7 432 L 750.4 432.8 L 750.5 433.7 L 751 434.7 L 751.1 435.5 L 750.6 436 L 749.1 437.7 L 747.8 438.1 L 746.2 437.6 L 744.5 438.2 L 741.9 440.6 L 740.6 441.8 L 739.3 442 L 737.8 441.8 L 735.7 441.9 L 733 442.5 L 731.1 443.4 L 730.2 444.9 L 728.7 445.3 L 726.4 444.7 L 724.7 445.3 L 723.4 446.8 L 722.8 448.7 L 723 450.7 L 722.3 452.3 L 720.6 453.4 L 720.3 455.3 L 721.4 458 L 721.7 460.5 L 721.4 462.8 L 721.6 465.5 L 722.9 469.9 L 724 471.5 L 724.5 472.8 L 724.7 474.3 L 725.6 476 L 727.2 477.8 L 730 479.8 L 734.3 482 L 737.1 483.2 L 738.5 483.2 L 739.5 483.8 L 739.9 484.9 L 740.9 485.6 L 742.7 485.9 L 744.1 486.6 L 745.3 487.4 L 746.5 489.1 L 747.7 491.6 L 748.9 493.3 L 750.7 494.5 L 752.1 494.8 L 753.4 496.5 L 755 499.7 L 757.4 502.8 L 760.6 506 L 762.5 508.3 L 763.1 509.9 L 764.3 511.3 L 766.1 512.5 L 767.9 513 L 769.7 512.8 L 772.1 513.8 L 775.2 516.2 L 776.7 517.9 L 776.7 518.8 L 777.7 519.6 L 779.7 520.2 L 780.9 520.9 L 781.6 521.7 L 782.7 522 L 784.4 521.9 L 785.2 522.2 L 785.2 523.5 L 787.5 525.1 L 788.8 525.6 L 789.9 525.4 L 790.4 525.8 L 790.4 526 L 790.6 526.3 L 790.8 526.3 L 791.1 526.2 L 791.4 526 L 791.8 526 L 792.1 526.5 L 792.6 526.6 L 793.2 526.2 L 794.1 526.4 L 795.4 527.3 L 796 527.3 L 796.2 527 L 796.6 526.7 L 797.2 526.7 L 799.9 527.9 L 801.5 528 L 802.9 527.2 L 803.8 526.4 L 804.1 525.4 L 804.8 524.8 L 805.8 524.6 L 806.2 524.1 L 805.8 523.2 L 805.8 522.5 L 806.4 521.8 L 807.6 521.7 L 809.4 522 L 810.9 522.6 L 811.7 522.9 L 812.1 522.6 L 812.1 522 L 812.2 521.4 L 813.5 520.6 L 814.7 520.2 L 815.4 520.5 L 816.1 521.3 L 816.9 521.7 L 818 521.6 L 819.5 520.7 L 821.6 518.9 L 823.1 518.3 L 824 518.8 L 825 518.6 L 826 517.9 L 827.4 517.9 L 829.2 518.5 L 830.8 518.5 L 832.1 518 L 834 517.9 L 836.6 518.1 L 838.9 518.9 L 840.9 520.5 L 842.6 521.3 L 843.8 521.4 L 844.6 521.4 L 845.3 521.2 L 846.2 521.3 L 847.3 522.1 L 848.6 522.4 L 850.1 522.1 L 851.6 522.6 L 853.3 524.1 L 855.3 524.9 L 857.6 525.3 L 859.8 524.7 L 862 523.1 L 863.2 522.9 L 863.4 524.1 L 864 525.1 L 864.8 525.7 L 866.1 525.7 L 867.7 524.9 L 869.8 525 L 872.3 526 L 874 525.9 L 875 524.7 L 876.2 524 L 877.8 523.8 L 879 524.2 L 879.9 525.3 L 881.1 526.1 L 882.6 526.4 L 883.4 527.1 L 883.4 528.3 L 884.1 529.3 L 885.6 530.1 L 886.1 531.1 L 885.7 532.1 L 885.7 533.3" />
<path class="river" d="M 782.4 665 L 784 669.6 L 784.4 671.5 L 784.1 672.3 L 783.5 673 L 782.4 673.4 L 781.9 674.1 L 782 675.2 M 782.4 665 L 784.9 667.8 L 787.4 668.8 L 792.5 668.9 M 647.3 613.7 L 651.3 614.1 L 653 613.9 L 653.7 613.4 L 654.5 613.3 L 655.8 613.9 L 660.2 615.3 L 663 616.7 L 665.6 618.5 L 668.4 619.7 L 671.4 620.4 L 673.1 620.9 L 674 621.7 L 677.7 623.5 L 679.7 624.3 L 681.2 624.6 L 682.7 624.6 L 684 624.3 L 685 624.6 L 685.2 625.2 L 685.6 625.4 L 686.3 625.1 L 686.7 625.2 L 687 625.4 L 688.1 625.8 L 691.9 626.3 L 692.3 626.6 L 692.4 627.2 L 692.2 628.3 L 692.3 628.5 L 692.7 628.6 L 693.2 628.8 L 693.7 629.3 L 694.5 629.4 L 695.5 629 L 696.3 629.2 L 696.8 630 L 697.5 630.6 L 698.4 630.9 L 699 630.7 L 699.4 630 L 700.8 629.4 L 703.3 628.9 L 704.8 628.8 L 705.3 629.3 L 706.5 629.1 L 708.6 628.4 L 710 628.6 L 710.8 629.8 L 712.9 631.2 L 716.4 632.7 L 719.4 632.8 L 722.2 631.3 L 723.9 630.9 L 724.6 631.5 L 725.3 631.5 L 726.1 631 L 727.1 631 L 728.4 631.4 L 729.6 631.2 L 730.7 630.4 L 731.7 630.2 L 732.5 630.4 L 733.9 630.2 L 735.9 629.6 L 737.5 630.1 L 738.8 631.7 L 740 632.8 L 742 633.7 L 743.4 633.2 L 745 633.8 L 747.2 635.2 L 748.8 635.8 L 749.8 635.4 L 750.4 634.6 L 751.3 633.9 L 752.1 633.8 L 753.9 634.9 L 755.8 635.6 L 757.5 635.5 L 758.7 635.9 L 759.5 636.8 L 759.9 637.8 L 759.9 638.8 L 760.2 639.6 L 760.9 640.1 L 761.3 640.8 L 761.5 641.9 L 762.4 643 L 764.9 644.6 L 767.4 647.4 L 768.3 649.6 L 768.3 652.1 L 769.9 653.6 L 772.9 654.3 L 774.6 655 L 775 655.6 L 776 656 L 777.6 656.2 L 778.9 656.6 L 779.9 657.2 L 780.9 659.4 L 782.4 665" />
<path class="river" d="M 1279.4 403.9 L 1281.5 405.6 L 1282.1 406.6 L 1282.1 407.5 L 1282.8 409 L 1284.4 411 L 1286.7 412.3 L 1289.8 412.8 L 1291.3 414 L 1291.1 415.8 L 1291.9 417.2 L 1293.5 418.1 L 1294.6 419.1 L 1295.3 420.3 L 1295.5 421.8 L 1295.1 423.6 L 1295.4 425 L 1296.8 426.2 L 1297.4 426.4 L 1297.7 427 L 1297.8 428.1 L 1297.6 428.5 L 1297.1 428.8 L 1296.8 429.4 L 1297.4 431.1 L 1298.1 432.2 L 1298.7 432.6 L 1298.7 433.2 L 1298.5 433.7 L 1298.2 434.9 L 1298.6 435.6 L 1299.6 435.8 L 1300 436.3 L 1299.9 436.8 L 1300.1 437.2 L 1300.7 437.2 L 1301.4 437.4 L 1302.3 438.1 L 1302.9 438.2 L 1304.4 437.9 L 1306 438.9 L 1308.3 439.6 L 1311.2 440 L 1313.4 439.4 L 1314.9 437.8 L 1316.1 436.8 L 1317.7 436.3 L 1318.2 436.4 L 1318.8 436.3 L 1319.2 436 L 1319.9 436.2 L 1320.3 436 L 1320.5 435.8 L 1320.9 435.8 L 1321.7 436.5 L 1323.1 437 L 1326.3 437.2 M 1194.5 395.5 L 1199.1 394.3 L 1201.7 394.4 L 1203.4 395 L 1205 396 L 1207.7 395.6 L 1211.6 393.9 L 1214.5 393.3 L 1216.6 393.8 L 1218 393.7 L 1218.9 393 L 1219.7 392.8 L 1220.2 393.1 L 1220.5 393.8 L 1220.5 394.8 L 1221.9 395.6 L 1224.5 396.3 L 1225.7 397.3 L 1225.4 398.7 L 1226.1 399.8 L 1227.7 400.8 L 1228.1 401.1 L 1228.1 401.5 L 1228.4 402.3 L 1229.8 404.2 L 1232.1 404.9 L 1233.3 404.6 L 1233.9 403.4 L 1234.3 403.1 L 1234.6 403.1 L 1234.9 403.2 L 1235.2 403.3 L 1235.5 403.2 L 1236.7 402.8 L 1239 401.1 L 1240.9 400.4 L 1242.3 400.7 L 1243.4 400.4 L 1244.3 399.4 L 1246.1 398.6 L 1249.9 397.8 L 1250.3 397.7 L 1250.8 397.8 L 1257 399.6 L 1259.8 399.9 L 1260.8 399.3 L 1262.6 399.3 L 1265.2 399.8 L 1266.6 399.8 L 1267 399.2 L 1268.2 399.2 L 1270.2 399.7 L 1270.8 400.2 L 1270.9 400.5 L 1271.4 401" />
<path class="river" d="M 446 426.7 L 448.5 429.9 L 449.5 433.4 L 450 438.4 L 453.1 441.6 L 459 443.2 L 464 443.6 L 468.3 442.8 L 472.6 441.1 L 477 438.4 L 480.4 437.3 L 482.9 437.7 L 484.5 437.8 L 485.2 437.5 L 486.1 436.5 L 487.1 434.8 L 488 432.2 L 488.8 428.8 L 490 426.1 L 491.5 424 L 492.2 421.9 L 492.1 420.4 L 492.6 419.1 L 493.6 417.9 L 496.7 415.9 L 499.4 413.4 L 501.6 410.4 L 503.8 408.6 L 506 408 L 508.3 405.3 L 510.7 400.3 L 513.1 397.3 L 516.8 395.6 L 518.4 394.7 L 519.7 393.3 L 521.3 391.2 L 522.7 390.1 L 523.7 390 L 524.6 389.3 L 525.4 388.2 L 527 386.9 L 529.4 385.5 L 531.6 384.7 L 533.5 384.5 L 535.5 383.4 L 537.6 381.7 L 539 380.8 L 539.8 380.7 L 540 380.2 L 539.9 379 L 540 378.1 L 540.6 377.3 L 544.5 374.9 L 548.4 373.4 L 556.4 371.4 L 558 371.7 L 559.2 371.5 L 561 370.4" />
<path class="river" d="M 1196.5 609.1 L 1194.3 608.1 L 1193.3 608 L 1192.7 608.2 L 1192.4 608.1 L 1192.5 607.6 L 1192.3 607.3 L 1191.8 607.1 L 1191.1 606.1 L 1190.3 604.3 L 1189.7 603.5 L 1189.1 603.6 L 1188.2 602.8 L 1187 601.2 L 1186.3 599.5 L 1186.1 597.8 L 1185.1 596.3 L 1183.3 595.2 L 1181.6 594.5 L 1180.1 594.4 L 1179.1 593.8 L 1178.3 592.3 L 1176.6 592.6 L 1175.7 592.2 L 1175.2 591 L 1174.7 590.7 L 1174.4 591.2 L 1173.1 590 L 1170.7 587.1 L 1166 582.6 L 1155.3 573.4 L 1145.7 565.4 L 1140.4 561.7 L 1136.2 559.8 L 1131.3 557.9 L 1123 555.2 L 1119.2 552.1 L 1116.7 549.5 L 1114.3 546.2 L 1112.8 543.6 L 1112 541.5 L 1111.1 539.8 L 1110.1 538.6 L 1109.2 538 L 1108.3 538.1 L 1106.3 536.1 L 1103.1 532.2 L 1101.1 530.3 L 1100.3 530.5 L 1098.3 530 L 1095.2 528.9 L 1093.4 527.8 L 1092.6 526.4 L 1090.6 522.9" />
<path class="river" d="M 1203.6 526.6 L 1203.9 526.6 L 1204.1 527 L 1204.3 528.1 L 1204.9 529.3 L 1205.6 529.9 L 1207.2 530.2 L 1209.2 532.4 L 1209.8 533.8 L 1209.8 534.9 L 1210.6 537 L 1212.4 540.1 L 1213.6 541.7 L 1214.4 541.9 L 1214.7 542.4 L 1214.7 543.1 L 1214.2 543.9 L 1213.2 544.7 L 1212.8 545.6 L 1213.1 546.6 L 1213.7 547.3 L 1214.6 547.8 L 1215.3 548 L 1215.8 547.7 L 1216.8 548.7 L 1218.3 550.8 L 1219.6 551.7 L 1220.8 551.4 L 1221.9 550.7 L 1222.8 549.8 L 1223.5 549.5 L 1223.8 549.7 L 1225 548.9 L 1227 547.1 L 1228.8 546.5 L 1230.5 546.9 L 1231.8 547.7 L 1232.8 548.9 L 1233.9 549.6 L 1235.2 549.8 L 1235.7 550.3 L 1235.6 551.1 L 1235.9 551.9 L 1236.6 552.7 L 1238 552.7 L 1239.8 551.9 L 1241.2 551.7 L 1242 552.2 L 1242.7 552.3 L 1243.4 552.1 L 1244.1 551.3 L 1245 550 L 1245.8 549.6 L 1246.8 550.5" />
<path class="river" d="M 1042.3 366 L 1046.6 365.3 M 1050.2 361.8 L 1053.1 361.9 L 1054.6 362.7 L 1055.9 364.3 L 1057.5 365.4 L 1059.5 366 L 1060.6 366.6 L 1060.8 367.5 L 1060.8 368.7 L 1060.6 369.4 L 1060 370 L 1060.4 371.1 L 1062 372.5 L 1063.6 373.5 L 1065.2 373.8 L 1066.1 373.6 L 1066.2 372.8 L 1066.7 372.3 L 1067.7 372.1 L 1069.1 372.2 L 1070.9 372.8 L 1071.8 374.9 L 1071.9 378.6 L 1072.9 381.4 L 1075 383.3 L 1076.3 384.2 L 1076.9 384.1 L 1077.2 383.8 L 1077.4 383.2 L 1078.2 383.1 L 1079.7 383.6 L 1081.2 383.7 L 1082.9 383.4 L 1085.4 384.3 L 1088.6 386.1 L 1090.8 386.6 L 1091.9 385.6 L 1092.2 384.8 L 1093.1 384 L 1094.8 383.3 L 1097.4 381.9 L 1099.1 381.2 L 1100 381.2 L 1101.4 382 L 1103.3 383.7 L 1104.4 383.9 L 1104.7 382.6 L 1106.4 382.9 L 1109.3 384.5 L 1112.3 385.4 L 1115.4 385.3 L 1117.8 386.5 L 1119.7 388.8 L 1121.1 390.2 L 1122.1 390.7 L 1124.2 390.5 L 1127.4 389.4 L 1129.1 388.6 L 1129.1 388 L 1128.5 387.4 L 1127.5 386.8 L 1126.9 386 L 1126.5 384.6 L 1126.3 384.2 L 1125.8 383.3 L 1124.4 381.7 L 1122.7 380.6 L 1120.6 380.2 L 1118.3 379.2 L 1115.8 377.6 L 1112.9 376.3 L 1109.8 375.4 L 1107.8 374.1 L 1107 372.4 L 1105.7 371.4 L 1104 371 L 1102.8 370 L 1102.3 368.7 L 1101.2 368.1 L 1099.6 368.5 L 1098.1 368.1 L 1096.6 367 L 1095.2 366.4 L 1093.9 366.1 L 1092.7 364.3 L 1091.3 359.2 L 1091.9 358.5 L 1091.5 357.6 L 1090.4 356.2 L 1090.5 354.2 L 1091.8 351.6 L 1093.2 350.3 L 1094.4 350.3 L 1096.7 348.7 L 1100 345.7 L 1102.6 344.2 L 1104.4 344.1 L 1105.5 344.3 L 1105.7 344.7 L 1107.2 345.1 L 1110 345.5 L 1112.6 345.1 L 1114.8 344 L 1117 344 L 1119.2 345.1 L 1120.9 346.6 L 1122.1 348.5 L 1124.1 349.1 L 1127 348.7 L 1131.2 348.9 L 1136.8 349.8 L 1140.7 349.7 L 1142.7 348.6 L 1143 347.7 L 1141.6 347 L 1142 345.9 L 1144.2 344.2 L 1147.1 343.9 L 1150.6 344.9 L 1153 345.4 L 1154.3 345.3 L 1154.9 344.8 L 1154.8 343.9 L 1155.6 342.7 L 1157.4 341.2 L 1160.3 339.4 L 1164.3 337.4 L 1166.3 336.1 L 1166.5 335.3 L 1166 334.4 L 1164.9 333.2 L 1163.3 332.3 L 1161.1 331.8 L 1159.9 330.7 L 1159.6 329.3 L 1159.7 328.3 L 1160.3 326.9 L 1161.9 326.5 L 1163.1 325.8 L 1164 324.7 L 1166 323.8 L 1170.4 322.9 L 1171.1 322.1 L 1173.7 321.8 L 1178.4 321.6 L 1182 321.1 L 1184.5 320.4 L 1186.3 318.8 L 1187.2 316.3 L 1188.5 314.5 L 1189.9 313.5 L 1191.1 312.1 L 1192 310.2 L 1193.5 308.4 L 1195.5 306.8 L 1196.7 304.8 L 1197.2 302.4 L 1198.5 300.1 L 1200.8 297.8 L 1202.1 296.1 L 1202.4 295.2 L 1202 293.4 L 1200.9 290.7 L 1200.5 288.3 L 1200.8 286.2 L 1200.7 283.7 L 1199.8 279.4 L 1205.3 274.9 L 1207 273.1 L 1207 272.4 L 1207.5 271.4 L 1208.5 269.8 L 1210.9 268.5 L 1214.5 267.4 L 1216.6 266.4 L 1217 265.7 L 1219 265.3 L 1222.4 265.1 L 1224.4 265.3 L 1225 265.8 L 1226.1 266.1 L 1227.8 266.1 L 1229.2 266.7 L 1230.5 268 L 1232.1 269.1 L 1234.1 270.1 L 1236 270.6 L 1237.8 270.5 L 1240.2 270.8 L 1243.1 271.5 L 1245.5 271.5 L 1247.3 270.8 L 1248.6 270.8 L 1249.5 271.4 L 1251.9 271.5 L 1256 271 L 1259.8 271.6 L 1263.1 273.5 L 1266 274.7 L 1268.2 275.2 L 1270 275.3 L 1271.3 274.9 L 1273.5 275.8 L 1276.5 277.9 L 1278.2 279.5 L 1278.5 280.7 L 1278.4 281.9 L 1277.7 283.2 L 1277.8 284.4 L 1278.7 285.5 L 1278.6 286.8 L 1277.6 288.3 L 1276.1 289.2 L 1274.9 289.5 L 1274.2 289.7 L 1274 290.2 L 1274 290.6 L 1274.6 291.5 L 1274.7 292.4 L 1273.8 294.3 L 1272.8 295.7 L 1271.5 296.5 L 1271.1 297.1 L 1271.3 297.7 L 1270.9 299.2 L 1269.8 301.6 L 1269.4 303.1 L 1269.6 303.8 L 1268 305.7 L 1264.7 308.8 L 1263.1 311.2 L 1263.2 313 L 1264.5 315.1 L 1266.8 317.6 L 1267.8 319.6 L 1267.4 321.1 L 1266.7 322.1 L 1265.8 322.6 L 1265.4 323.4 L 1265.7 324.6 L 1264.9 326.2 L 1263 328.4 L 1261.8 329.5 L 1261.2 329.5 L 1261.1 329.7 L 1261.5 330.2 L 1261.5 331.2 L 1261.2 332.8 L 1261.2 333.8 L 1261.8 334.2 L 1261.8 334.6 L 1261.4 334.9 L 1261.7 335.7 L 1262.6 337.1 L 1262.8 339.4 L 1262.4 342.6 L 1262.9 346.5 L 1264.3 351 L 1264.4 354.3 L 1262.4 357.5 L 1260.8 359.3 L 1260 361 L 1259.3 363.1 L 1259.1 365.5 L 1259.2 369.3 L 1262.5 370 L 1265 369.9 L 1268 369.2 L 1269.6 368.6 L 1270.9 367.9 L 1271.8 367.5 L 1273.1 366.7 L 1275.5 366.1 L 1279 365.7 L 1281.2 364.9 L 1282.3 363.7 L 1283.7 362.8 L 1285.5 362 L 1290.1 362.9 L 1297.4 365.4 L 1302.4 366.4 L 1305 366.1 L 1307.4 365.3 L 1309.6 364.3 L 1311.5 363.7 L 1313 363.6 L 1315.1 364 L 1317.9 364.9 L 1319.9 365 L 1320.9 364.4 L 1324.1 364.3 L 1329.4 364.8 L 1332.9 364.5 L 1334.9 363.6 L 1335.4 362.9 M 1023.5 361.1 L 1033.2 362.4 L 1038.7 364.4" />
<path class="river" d="M 1054.3 146 L 1047.8 144.8 L 1045 143.7 L 1044.4 142.7 L 1044.9 141.4 L 1045 140.1 L 1044.9 138.7 L 1046.3 137 L 1049.3 134.8 L 1055 133.7 L 1063.3 133.8 L 1069.6 134.4 L 1073.9 135.4 L 1080.7 133.9 L 1090.1 130 L 1095.5 128.1 L 1096.8 128 L 1097.8 127.7 L 1098.6 127 L 1099.1 126.2 L 1099.3 124.9" />
<path class="river" d="M 1096.8 957.6 L 1098.6 957.7 L 1099.7 958.2 L 1100.6 959.1 L 1101.6 959.4 L 1103.2 958.9 L 1104.4 959.1 L 1105 958.8 L 1105.5 958 L 1106.2 957.9 L 1107.3 958.5 L 1108.6 958.7 L 1110.2 958.5 L 1111.4 958.6 L 1112.4 958.7 L 1113.2 958.3 L 1114.8 956.6 L 1117.2 956.2 L 1120.2 957.1 L 1122.6 957 L 1125.3 955.5 L 1127.2 954 L 1129.7 954.4 L 1133.4 956.1 L 1135.1 956.6 L 1136.7 956.1 L 1139.5 954.3 L 1141.5 953.6 L 1143.5 954.1 L 1144.5 954.2" />
<path class="river" d="M 550.5 548.7 L 551.6 547.1 M 546.9 548.4 L 548 547.8 L 548.1 547.1 L 548.1 546 M 551.6 547.1 L 552.9 546.9 L 553.1 547.2 L 553.3 548.2 L 553.6 548.9 L 553.5 549.6 M 551.6 547.1 L 551.6 546.1 L 549.5 546.1 L 548.9 546.2 L 548.1 546 M 548.1 546 L 547.2 545.3 M 749 406 L 743.9 400.9 M 744 401.1 L 742.4 398.7 L 740.4 396.7 L 737.4 394.5 L 735.1 393.5 L 733.5 393.9 L 730.7 393.2 L 724.1 390 L 723 389.2 L 722.5 388.4 L 722.5 387.6 L 721.3 386.3 L 718.8 384.5 L 716.5 382.3 L 714.3 379.8 L 712.1 378.2 L 708.9 377.3 L 702.7 375.2 L 699.6 373.5 L 697.6 371.6 L 695.4 370.2 L 693 369.3 L 691.3 368.1 L 690.2 366.8 L 689.8 365.6 L 690 364.5 L 688.9 363.1 L 686.5 361.4 L 684.9 359.8 L 684.3 358.3 L 683.1 357.7 L 681.3 357.9 L 679.3 357.3 L 677 355.9 L 675.7 354.7 L 675.4 353.9 L 674.2 353.4 L 672.3 353.3 L 669.8 352.7 L 667 351.7 L 665.5 350.7 L 665.3 349.7 L 664.8 349.3 L 664.1 349.5 L 663.7 350.8 L 663.7 353.2 L 662.7 354.9 L 660.8 355.8 L 658.8 356.3 L 656.8 356.4 L 654.1 356 L 650.7 355 L 647.2 354.4 L 643.5 354.3 L 641.5 355.4 L 641.1 357.7 L 639.3 359.8 L 636.2 361.7 L 634.5 363.2 L 634.3 364.3 L 634.7 365.2 L 635.7 365.8 L 635.5 366.4 L 634.2 367 L 633.3 367.8 L 632.8 369.6 M 631.5 378.5 L 630.6 379.4 L 629.6 379.7 L 628.2 379.7 L 626.6 380 L 624.7 380.7 L 623.7 381.7 L 623.6 383.2 L 623 383.8 L 621.8 383.6 L 620.9 383.7 L 620.3 384 L 619.5 385.6 L 618.3 388.3 L 617 389.9 L 615.7 390.5 L 615.1 392.1 L 615 394.8 L 613.9 396.8 L 611.6 398 L 610.1 399.4 L 608.9 401.9 L 608.7 405.3 L 607.6 408.2 L 604.2 413.4 L 600.7 420.6 L 599.7 425.1 L 600.1 431.4 L 599.1 433.3 L 599.2 434.8 L 600 436.8 L 600.1 438.7 L 599.5 440.6 L 599.5 443.3 L 600.1 446.7 L 599.5 449.7 L 597.8 452.2 L 597.3 454.3 L 598 456 L 598 457.6 L 597.4 459.1 L 597.2 460.6 L 597.3 461.9 L 596.5 463.1 L 594.9 464.3 L 593.7 464.9 L 592.9 464.9 L 591.1 466.3 L 588.2 468.9 L 585.7 470.6 L 583.4 471.3 L 581.5 472.8 L 579.9 475 L 578.5 476.1 L 577.2 476.3 L 576.4 476.7 L 576.1 477.3 L 575.5 477.6 L 574.8 477.5 L 573.7 477.9 L 572.4 478.8 L 571.4 479.3 L 570.6 479.2 L 570 479.6 L 569.7 480.3 L 569.2 480.6 L 568.6 480.5 L 568.4 481 L 568.6 481.9 L 568.4 482.7 L 567.6 483.2 L 567.6 483.7 L 568.4 484.2 L 568.7 484.6 L 568.5 484.9 L 566.7 485.6 L 565.6 485.3 L 564.6 484.2 L 564 484.1 L 563.8 484.7 L 562.4 485.4 L 560 486.2 L 558.5 486.9 L 558 487.4 L 557.9 488.4 L 558.2 489.9 L 557.8 490.7 L 556.9 490.8 L 556.1 491.2 L 555.6 491.9 L 555.5 492.5 L 556 493.1 L 555.8 493.5 L 554.9 493.7 L 554.5 494.2 L 554.7 495 L 553.9 495.9 L 552.2 497 L 551.4 498.4 L 551.3 501.2 L 551 505.5 L 551.2 507.5 L 551.6 508.6 L 552.6 509.6 L 554 510.4 L 554.8 511.3 L 555 512.2 L 556.2 513.7 L 558.4 515.8 L 559.2 517.1 L 558.6 517.6 L 558.7 518.2 L 559.6 518.9 L 559.5 520 L 558.6 521.3 L 558.3 522.9 L 558.6 524.8 L 558.5 526 L 558.1 526.6 L 558.2 527.2 L 558.8 527.7 L 558.7 528 L 558.1 528.1 L 557.6 528.9 L 557.4 530.2 L 557 530.7 L 556.4 530.4 L 555.9 530.8 L 555.5 531.9 L 554.8 532.5 L 554 532.5 L 553.3 534.4 L 552.6 538 L 551.8 539.9 L 550.8 540.1 L 550.4 540.5 L 550.6 541 L 550.3 541.3 L 549.6 541.4 L 549.5 541.8 L 549.8 542.4 L 549.3 543.1 L 547.9 543.9 L 547.2 544.6 L 547.2 545.3 L 546.6 545.8 L 545.1 546.1 L 543.7 546.4" />
<path class="river" d="M 999.1 672.2 L 999.5 669.5 L 999.8 667.7 L 999.7 665.6 L 1000.6 663.4 L 1002.4 661.3 L 1003.3 659.7 L 1003.2 658.8 L 1003.7 658.1 L 1004.7 657.8 L 1006 656.1 L 1007.6 653.1 L 1009.1 651.2 L 1011.6 649.7 L 1012.1 649.3 L 1012.7 648.9 L 1013.6 648.9 L 1014.6 650.5 L 1015.6 653.6 L 1017.1 656.7 L 1019.1 659.8 L 1020 661.9 L 1019.9 662.8 L 1021.4 664.5 L 1022.2 666.6 L 1023.9 667.9 M 1012.1 667.1 L 1009.4 675.3 L 1008 678.5 L 1006.2 680.3 L 1005.7 681.4 L 1005.3 683.4 M 1014.1 665.7 L 1014.9 667.9 L 1016 668.9 L 1017.9 669.8 L 1018.6 670.8 L 1018.2 671.9 L 1018.2 672.8 L 1018.5 673.4 L 1019.2 673.9 L 1020.6 674.2 L 1021.5 675.1 M 1011.9 651.6 L 1010.8 652 L 1010 652.9 L 1009 654.8 L 1008.9 655.6 L 1009.4 656.2 L 1009.7 656.8 L 1009.6 657.7 L 1009.3 658.2 L 1008.7 658.6 L 1008.4 659 L 1008.3 660.3 L 1008.2 661.1 L 1007.6 661.6 L 1007.1 662.7 L 1006.8 664.4 L 1007 665.6 L 1007.6 666.5 L 1007.7 667.4 L 1007 669.5 L 1006.5 670.5 L 1005.8 671.1 L 1005 671.3 L 1004.3 672.3 L 1003.5 674.3 L 1002.5 675.9 L 1000.6 678 L 999.8 679.4 L 998.3 680.9" />
<path class="river" d="M 1077.5 478.2 L 1078.1 482.9 L 1079.1 486.2 L 1080.9 489.8 L 1083 492.8 L 1085.5 495.2 L 1086.8 497 L 1087 498.2 L 1087.5 498.5 L 1088.3 497.9 L 1088.6 496.7 L 1088.6 494.9 L 1089.4 493.2 L 1090.9 491.7 L 1091.5 490.3 L 1091 489 L 1091.2 487.7 L 1092.1 486.2 L 1092.5 484.9 L 1092.6 483.7 L 1093.1 483 L 1094.1 482.9 L 1094.7 484.3 L 1095 487.2 L 1095.5 488.8 L 1096.3 489.4 L 1096.7 490.4 L 1096.8 491.9 L 1096.3 493 L 1095.3 493.6 L 1095.1 494.1 L 1095.6 494.6 L 1095.7 496.1 L 1095.3 498.6 L 1094.9 500 L 1094.4 500.3 L 1094.4 502.1 L 1095 505.3 L 1095.1 507.3 L 1094.7 508.2 L 1094.7 509 L 1095.2 509.7 L 1097.3 510.3 L 1100.9 510.7 L 1103.6 510.1 L 1105.5 508.6 L 1107.6 507.7 L 1110.1 507.3 L 1111.8 506.3 L 1112.6 504.6 L 1114.2 503.7 L 1116.6 503.6 L 1118.4 504.4 L 1119.5 506 L 1120 507.6 L 1119.7 509.3 L 1119.3 510.4 L 1118.7 511 L 1118.5 512 L 1118.5 513.4 L 1119.5 514 L 1121.5 513.8 L 1123.1 512.7 L 1124.5 510.8 L 1126.5 509.2 L 1129.2 507.9 L 1130.7 507.5 L 1131.2 507.7 L 1131.4 508.2 L 1131.3 508.9 L 1131.6 509.4 L 1132.5 509.7 L 1133.6 509.3 L 1135 508.1 L 1136.1 507.5 L 1137.1 507.5 L 1137.5 507 L 1137.6 506 L 1137.9 505.3 L 1138.4 504.9 L 1138 503.1 L 1136.7 499.8 L 1136 496.7 L 1135.9 493.8 L 1136.1 491.7 L 1136.7 490.5 L 1137.2 490 L 1137.7 490.3 L 1138.5 490.3 L 1140.2 489.7 L 1141.1 488 L 1141.7 487.4 L 1142.3 487.2 L 1142.6 486.9 L 1142.5 486.5 L 1143.2 485.7 L 1144.6 484.7 L 1145.7 483.3 L 1146.7 481.5 L 1146.6 480.4 L 1145.6 479.8 L 1145.1 479.1 L 1145.3 478.4 L 1145.8 477.5 L 1147.6 476 L 1148.2 475.8 L 1148.8 475.9 L 1149.5 476.4 L 1150.4 476.2 L 1151.8 475.2 L 1152.1 473.9 L 1151.4 472.2 L 1151.2 470.8 L 1151.9 469.1 M 1063.2 418.6 L 1067.5 422.8 L 1068.5 424.7 L 1067.5 425.7 L 1066.5 425.9 L 1065.5 425.2 L 1064.8 425.4 L 1064.4 426.6 L 1065.1 428 L 1066.7 429.5 L 1067.5 430.7 L 1067.4 431.6 L 1068 432.7 L 1069.5 434 L 1070 434.9 L 1069.5 435.4 L 1069.9 438.8 L 1071.2 445.1 L 1071.5 449.3 L 1070.9 451.5 L 1071.1 454.3 L 1072.5 459.3 L 1073.3 469.5 L 1074.6 474.2 L 1077.5 478.1" />
<path class="river" d="M 1312.6 928 L 1308.7 932 L 1304 933.8 L 1301.4 934.3 L 1299.1 934.2 L 1297.1 934.7 L 1295.1 935.9 L 1292.3 936.9 L 1288.6 937.5 L 1287.3 938.1 L 1287.2 939 L 1286.7 939.7 L 1285.4 940.4 L 1285.1 940.9 L 1285.2 941.3 L 1284.8 941.8 L 1283.7 942.6 L 1282.8 942.7 L 1282.2 942.9 L 1282 943.6 L 1281.7 944.1 L 1281.1 944.1 L 1280.7 944.4 L 1280.4 945.5 L 1279.8 946.4 L 1279.2 946.5 L 1278.1 946.3 L 1277.5 946.6 L 1276.9 946.5 L 1276.5 946.4 L 1276.1 946.7 L 1275.8 946.6 L 1275.3 946.3 L 1274.8 946.6 L 1274 946.8 L 1272.7 946.6 L 1271.8 946.7 L 1271.3 947.3 L 1270.3 947.7 L 1268.6 948 L 1267.6 947.6 L 1266.9 947.3 L 1266.3 947.6 L 1265.6 947.4 L 1264.9 947.1 L 1264.4 947.1 L 1264.2 947.5 L 1263.8 947.8 L 1263.3 947.7 L 1262.8 948.1 L 1262.5 948.7 L 1261.7 949.2 L 1260.3 949.5 L 1257.6 949 L 1256.3 949.3 L 1254.8 949.7 L 1253.8 951.2 L 1251.5 952.6 L 1247.9 953.9 L 1246.7 954 L 1245.5 953.7 L 1244.7 953.2 L 1243.6 952.6 L 1241.6 952 L 1240.5 951.2" />
<path class="river" d="M 910.2 269.1 L 902.4 268.5 L 899 268.2 L 894.1 267.3 L 891.9 266.1 L 889.2 265.3 L 886.1 265 L 883.5 264.5 L 881.4 263.7 L 879.2 263.4 L 877 263.7 L 874.7 263.5 L 872.3 262.7 L 870.8 261.8 L 870.2 260.8 L 868.7 259.6 L 866.2 258.1 L 863.6 257.7 L 859.9 258.9" />
<path class="river" d="M 741.9 671.1 L 747.7 669.2 L 750.4 669 L 751.9 669.8 L 753.3 669.4 L 754.4 667.8 L 755.4 667.9 L 756.2 669.6 L 757.8 670.6 L 760.1 670.8 L 762.1 671.5 L 763.9 672.8 L 765.4 674.2 L 766.5 675.6 L 767.3 677.4 L 768.1 680.5 L 768.3 681.2 L 768.3 683 L 768.1 683.8 L 767.8 684.4 M 649.7 647.5 L 651.4 648.5 L 652.5 649.8 L 654 652.6 L 655.1 653.5 L 655.3 654.4 L 654.9 655.6 L 655.1 657 L 656.1 658.5 L 656.5 659.8 L 656.4 660.6 L 657 661.4 L 658.5 662 L 659.3 662.6 L 659.4 663.2 L 659.7 663.5 L 660.3 663.4 L 660.8 663.8 L 661.3 665 L 662.1 666.4 L 662.9 667.2 L 664.1 668 L 664.4 668.5 L 663.6 668.9 L 663.5 669.6 L 664.2 670.7 L 665.7 670.8 L 668.3 669.9 L 670.1 670.1 L 671.1 671.5 L 671.9 671.7 L 672.6 670.7 L 673.7 670.4 L 675.1 670.6 L 676.2 671.1 L 677 671.8 L 677.3 672.5 L 677.2 673.3 L 678 673.6 L 679.7 673.4 L 681.1 673.7 L 682.4 674.5 L 683.8 675.1 L 685.6 675.5 L 686.8 676.1 L 687.5 677 L 688.6 677.6 L 690.1 677.9 L 693.3 676.9 L 698.2 674.6 L 701.3 672.9 L 702.5 671.8 L 704.2 671.9 L 707.6 673.8 L 713.5 674.9 L 717.4 676.9 L 721.1 680 L 723.2 681.5 L 723.8 681.3 L 724 680.9 L 724 680.4 L 724.7 679.9 L 726 679.5 L 728.3 679.6 L 731.6 680 L 733.4 679.7 L 733.9 678.7 L 734.7 677.9 L 736.6 676.9" />
<path class="river" d="M 1036.5 414 L 1038.4 418.5 L 1039.5 420.5 L 1040.4 421.3 L 1040.9 422.4 L 1041.1 423.7 L 1040.9 424.7 L 1040.3 425.1 L 1040.3 426.2 L 1040.6 427.8 L 1041.5 429.3 L 1043 430.5 L 1043.8 431.9 L 1043.8 433.7 L 1045.7 436.5 L 1051.6 442.2 L 1053.5 444.1 L 1054.8 446 L 1056 448.6 L 1056.8 450 L 1057.4 450 L 1058.2 450.8 L 1059.3 452.1 L 1060.2 454 L 1061 456.4 L 1062.3 458.4 L 1063.9 460 L 1064.5 461.4 L 1064.1 462.5 L 1064.1 463.4 L 1064.6 464.1 L 1065.4 467.3 L 1066.3 469.7 L 1067.7 472.2 L 1068.6 475.1 L 1069 478.4 L 1069.8 480.9 L 1071.1 482.6 L 1071.5 484.1 L 1071 485.3 L 1071 486.5 L 1071.3 488.3 L 1072.4 490.6 L 1072.6 491.8 L 1072.4 492.5 L 1072.7 493.3 L 1073.4 494.3 L 1073.8 495.7 L 1073.9 497.8 L 1073.6 500.3 L 1073 503.1 L 1072.8 504.8 L 1073.1 505.3 L 1073.2 507.3 L 1073.1 510.7 L 1073.2 513.3 L 1073.5 515 L 1074.4 517.1 L 1076 519.6 L 1076.6 521.6 L 1076 523.3 L 1076.6 525.1 L 1078.2 527 L 1079.7 528.2 L 1080.9 528.5 L 1082.6 530.1 L 1084.7 532.8 L 1086.6 534.3 L 1088.1 534.7 L 1089 535.1 L 1089.4 535.6 L 1089.9 535.5 L 1090.7 534.9 L 1091.8 534.6 L 1093.1 534.5 L 1094.6 535.7 L 1096.1 538 L 1096.7 540.6 L 1096.4 543.5 L 1095.7 545.3 L 1094.5 545.8 L 1094.1 546.6 L 1094.3 547.9 L 1093.5 549.5 L 1091.8 551.6 L 1090.7 553.4 L 1089.9 555.9 L 1088.7 559.1 L 1089.4 561.3 L 1091.5 563.4 L 1092.8 565.7 L 1093.4 568.1 L 1094.5 569.9 L 1096.2 571.1 L 1097.1 572.1 L 1097 573 L 1097.4 573.8 L 1098.2 574.8 L 1098.4 575.4 L 1098 575.7 L 1098.1 576 L 1098.9 576.3 L 1099.4 577.1 L 1099.5 578.1 L 1100.5 579.7 L 1102.1 581.8 L 1104 583.1 L 1106.2 583.6 L 1107.1 584 L 1106.5 584.3 L 1106.4 585.4 L 1106.8 587.5 L 1105.6 589.4 L 1103.1 591.1 L 1101.3 591.9 L 1100.2 592 L 1099.3 593 L 1098.6 595 L 1097.8 596.2 L 1097.1 596.6 L 1096.5 597.3 L 1096.3 598.5 L 1096.8 599.1 L 1097.9 599.2 L 1098 599.5 L 1097 600.1 L 1095.8 600.3 L 1094.4 600.1 L 1093 600.6 L 1091.8 601.7 L 1090.7 604.1 L 1089.8 607.7 L 1089.5 609.6 L 1089.9 609.8 L 1090.5 609.3 L 1091.2 608.2 L 1092 607.6 L 1092.9 607.5 L 1093.8 608.2 L 1094.8 609.9 L 1095.8 610.8 L 1096.8 611.1 L 1097.4 612.7 L 1097.6 615.7 L 1098.5 616.8 L 1100.2 616.1 L 1101.9 616 L 1103.6 616.4 L 1104.9 616.4 L 1105.8 616 L 1106.9 616 L 1108 616.6 L 1109.9 616.9 L 1112.4 616.9 L 1116 615.7 L 1120.7 613.5 L 1123.3 612.5 L 1123.9 612.5 L 1124.4 612.9 L 1124.9 613.7 L 1123.4 615.5 L 1119.8 618.3 L 1118.1 620.5 L 1118 622 L 1118.4 623.1 L 1119.1 623.6 L 1119.1 624.4 L 1118.4 625.4 L 1118 627.6 L 1117.8 630.9 L 1117.9 633 L 1118.4 634.1 L 1118.1 635.7 L 1117.2 637.8 L 1115.3 640.3 L 1112.5 642.9 L 1111.1 645.3 L 1111.3 647.5 L 1112 649 L 1113.7 650.3" />
<g class="city"><circle cx="634.341297874292" cy="629.4713217858963" r="5" /><text x="646.341297874292" y="633.4713217858963">Mumbai</text></g>
<g class="city"><circle cx="707.0667481580438" cy="468.9966038801642" r="5" /><text x="719.0667481580438" y="472.9966038801642">Delhi</text></g>
<g class="city"><circle cx="893.2336636882355" cy="570.9668583167066" r="5" /><text x="905.2336636882355" y="574.9668583167066">Kolkata</text></g>
<g class="city"><circle cx="927.2803618798353" cy="551.6597074483785" r="5" /><text x="939.2803618798353" y="555.6597074483785">Dhaka</text></g>
<g class="city"><circle cx="535.9567357072995" cy="532.4945077778555" r="5" /><text x="547.9567357072995" y="536.4945077778555">Karachi</text></g>
<g class="city"><circle cx="758.0320740614945" cy="729.3380248996721" r="5" /><text x="770.0320740614945" y="733.3380248996721">Chennai</text></g>
<g class="city"><circle cx="712.5811386210098" cy="731.3431043673868" r="5" /><text x="724.5811386210098" y="735.3431043673868">Bengaluru</text></g>
<g class="city"><circle cx="1096.1858279472435" cy="718.3092606837104" r="5" /><text x="1108.1858279472435" y="722.3092606837104">Bangkok</text></g>
<text class="map-title" x="80" y="105">India Physical Study Map</text>
<text class="map-subtitle" x="80" y="145">Landmark: Taj Mahal | Study terrain and water systems</text>
  <text class="footer" x="80" y="1036">Made with Natural Earth. Free vector and raster map data @ naturalearthdata.com.</text>
</svg>
