<?xml version="1.0" encoding="UTF-8"?>
<svg xmlns="http://www.w3.org/2000/svg" width="1600" height="1100" viewBox="0 0 1600 1100" role="img" aria-labelledby="title desc">
  <title id="title">Iran Physical Study Map</title>
  <desc id="desc">Made with Natural Earth. Free vector and raster map data @ naturalearthdata.com.</desc>
  <defs>
    <linearGradient id="terrain" x1="0" x2="1" y1="0" y2="1">
      <stop offset="0%" stop-color="#6c8c53" />
      <stop offset="42%" stop-color="#d5c487" />
      <stop offset="72%" stop-color="#b88b5f" />
      <stop offset="100%" stop-color="#f1f5ee" />
    </linearGradient>
    <filter id="softShadow" x="-10%" y="-10%" width="120%" height="120%">
      <feDropShadow dx="0" dy="10" stdDeviation="12" flood-color="#0f172a" flood-opacity="0.16" />
    </filter>
    <style>
      .neighbor { fill: #ffffff; stroke: #94a3b8; stroke-width: 1.2; opacity: 0.72; }
      .country { fill: url(#terrain); stroke: #1f2937; stroke-width: 4; filter: url(#softShadow); }
      .admin1 { fill: none; stroke: #64748b; stroke-width: 1.1; stroke-dasharray: 6 7; opacity: 0.75; }
      .river { fill: none; stroke: #1d9bd1; stroke-width: 3; stroke-linecap: round; opacity: 0.88; }
      .lake { fill: #8ed1ea; stroke: #0ea5e9; stroke-width: 1.5; opacity: 0.8; }
      .city circle { fill: #ef4444; stroke: #ffffff; stroke-width: 2; }
      .city text, .terrain-label { fill: #172033; font: 700 24px system-ui, sans-serif; paint-order: stroke; stroke: #ffffff; stroke-width: 5; stroke-linejoin: round; }
      .map-title { fill: #0f172a; font: 800 46px system-ui, sans-serif; }
      .map-subtitle { fill: #475569; font: 600 24px system-ui, sans-serif; }
      .footer { fill: #64748b; font: 500 18px system-ui, sans-serif; }
    </style>
  </defs>
  <rect width="100%" height="100%" fill="#d8edf0" />
  <rect x="40" y="40" width="1520" height="1020" rx="32" fill="#ffffff" opacity="0.54" />
  <path class="neighbor" d="M 1857.6 56.3 L 1833.7 77.3 L 1807.6 80.2 L 1806.1 111.7 L 1788.6 125.9 L 1726.2 115.6 L 1703.5 171.9 L 1687.5 178.9 L 1625.2 191.4 L 1653.5 246 L 1631.9 254.2 L 1634.4 272.1 L 1615.1 267.5 L 1599.3 256.2 L 1552.7 252.9 L 1500.5 252.1 L 1489.1 255.5 L 1444.4 242.3 L 1426.5 248.8 L 1421.6 267.4 L 1369.9 256.5 L 1349.2 261 L 1342.2 274.7 L 1324.2 280.6 L 1282.7 302.5 L 1269 325 L 1257.2 325.2 L 1248.6 310.3 L 1208.7 309.3 L 1202.3 283.5 L 1186.9 283.3 L 1189.3 251.8 L 1151.7 228.8 L 1097.8 231.2 L 1060.9 235.8 L 1030.9 207.5 L 1005.2 195.6 L 956.4 173.1 L 950.6 170.4 L 869.7 188.9 L 870.9 304.8 L 854.8 306.4 L 832.8 281.7 L 811.5 272.9 L 775.8 279.5 L 762 289.9 L 760.2 282.3 L 767.9 269.2 L 761.9 258.2 L 725.5 247.5 L 711.3 219.3 L 694 211.3 L 692.9 201.1 L 723.5 204.1 L 724.7 181.1 L 751.4 176 L 778.9 180.7 L 784.5 150 L 778.9 130.6 L 747.5 132.1 L 720.8 124.4 L 684.4 138.2 L 655 144.8 L 639.1 139.8 L 642.3 123.6 L 622.2 102.6 L 598.9 103.5 L 572.2 82.1 L 590.4 58.3 L 581.2 51.9 L 606.3 17.4 L 638.6 35.6 L 642.5 12.6 L 707.4 -21.5 L 756.5 -22.4 L 825.8 -0.6 L 863 12.1 L 896.3 -1.1 L 946.2 -1.8 L 986.4 14.5 L 995.5 5.2 L 1039.7 6.5 L 1047.5 -8.3 L 996.6 -30 L 1026.8 -45.3 L 1020.9 -53.8 L 1051 -62 L 1028.4 -83.5 L 1042.8 -94.3 L 1160.4 -105.2 L 1175.7 -113 L 1254.4 -124.6 L 1282.6 -137.6 L 1339.1 -130.8 L 1349 -98.3 L 1381.8 -105.9 L 1422.2 -95.2 L 1419.6 -78 L 1449.8 -79.8 L 1528.5 -109.5 L 1517 -99.6 L 1557.1 -75.3 L 1627.4 4.5 L 1644.1 -12 L 1687.4 6.1 L 1732.6 -1.9 L 1749.9 3.7 L 1765.1 21.9 L 1787 28 L 1800.4 41.3 L 1840.9 37.1 L 1857.6 56.3 Z" />
<path class="neighbor" d="M 870.9 304.8 L 869.7 188.9 L 950.6 170.4 L 956.4 173.1 L 1005.2 195.6 L 1030.9 207.5 L 1060.9 235.8 L 1097.8 231.2 L 1151.7 228.8 L 1189.3 251.8 L 1186.9 283.3 L 1202.3 283.5 L 1208.7 309.3 L 1248.6 310.3 L 1257.2 325.2 L 1269 325 L 1282.7 302.5 L 1324.2 280.6 L 1342.2 274.7 L 1351.5 277.8 L 1325.1 298.2 L 1348.3 310 L 1370.7 302.2 L 1408 318.8 L 1367.7 341.4 L 1343.8 338.3 L 1330.8 339.1 L 1326.3 330.4 L 1332.9 315.8 L 1290.9 323.1 L 1280.9 343.3 L 1265.9 360.6 L 1239.7 359.2 L 1231.5 373 L 1254.6 380.5 L 1261.4 403.9 L 1243.7 435.7 L 1220 429.1 L 1202.5 428.9 L 1203.4 409.6 L 1161.6 396.2 L 1128.7 380.8 L 1108.2 366 L 1072.2 344.3 L 1056.8 311.9 L 1046.2 306.2 L 1012.3 307.6 L 1000.2 301.2 L 996.9 276.1 L 954.5 259.5 L 928 277.8 L 901.2 288.6 L 906.3 304.4 L 870.9 304.8 Z" />
<path class="neighbor" d="M -116.1 1344.6 L -140 1330.9 L -150.9 1321.8 L -153 1312 L -147.9 1299 L -147.9 1286.1 L -166.1 1266.5 L -169.6 1253 L -169.3 1245.4 L -180.8 1236.2 L -181.2 1217.9 L -187.7 1205.8 L -198.8 1207.6 L -195.6 1196 L -187.5 1182.9 L -191 1169.9 L -180.7 1160.3 L -187.3 1152.9 L -178.9 1133.5 L -164.6 1110.4 L -137.5 1112.6 L -139 987.8 L -138.7 974.6 L -102.5 974.5 L -102.5 911.8 L 23.9 911.8 L 145.8 911.8 L 270.5 911.8 L 280.6 942.6 L 273.7 948.3 L 278.3 980.7 L 289.8 1018.2 L 301.8 1025.9 L 319 1037.5 L 303.1 1055.5 L 279.9 1060.6 L 270 1070.3 L 266.9 1091.2 L 253.4 1137.4 L 256.7 1149.9 L 251.7 1176.9 L 239 1207.9 L 220 1223.5 L 206.5 1247.5 L 203.4 1260.3 L 188.5 1269.1 L 179.2 1302 L 179.6 1330.3 L 179.2 1305.8 L 174.9 1305.2 L 175.4 1289.5 L 171.6 1278.7 L 155.5 1266.3 L 151.7 1243.6 L 155.5 1220.4 L 140.9 1218.3 L 138.7 1225.3 L 119.8 1226.9 L 127.4 1236.1 L 130.1 1255 L 112.8 1272.2 L 97.2 1294.9 L 81 1298.1 L 54.5 1279.8 L 42.7 1286.3 L 39.4 1295.4 L 23.3 1301.4 L 22.2 1307.9 L -9.1 1307.9 L -13.4 1301.4 L -36.1 1300.3 L -47.4 1305.7 L -56.1 1303 L -72.3 1284.7 L -77.7 1276 L -100.3 1280.3 L -109 1294.9 L -117 1323 L -127.8 1328.9 L -137.5 1332.3 L -116.1 1344.6 Z" />
<path class="neighbor" d="M 4729.4 -631.5 L 4769.5 -644.6 L 4769.5 -623.1 L 4735 -621.5 L 4729.4 -631.5 Z M 655 144.8 L 640.7 163.5 L 610.2 168.7 L 579 201.1 L 607.6 230.9 L 604.5 252.1 L 638.8 289.1 L 638.8 289.1 L 620 301.8 L 614.6 309.8 L 600.7 307.6 L 579.1 288.5 L 570.3 287.5 L 550.5 280.2 L 540.9 267.3 L 511.6 260.7 L 492.5 265.7 L 487 259.8 L 444.2 244.8 L 398 239.7 L 371.4 234.3 L 367.6 238 L 327.5 211.5 L 291.6 199.6 L 264.5 181.1 L 287.4 176.1 L 313.4 149.8 L 295.9 137.4 L 342.2 124.5 L 341.4 117.7 L 313.1 122.7 L 314.1 108.8 L 330.3 100 L 360.7 97.7 L 365.7 87.2 L 358.7 69.9 L 371.5 53.4 L 371.1 44.2 L 324.8 34 L 306.4 34.3 L 287 19.6 L 262.9 24.6 L 223 13.5 L 223.7 7.3 L 212.5 -6.3 L 187.4 -7.8 L 184.8 -17.6 L 192.7 -23.9 L 172.6 -41.7 L 140 -38.7 L 130.5 -40.3 L 122.5 -33.1 L 110.8 -34.4 L 110.8 -34.4 L 103.1 -54.5 L 95.7 -65 L 101.7 -67.9 L 127.1 -66.8 L 139.3 -73.7 L 130.3 -82.1 L 109.1 -87.6 L 111 -93.3 L 98.2 -99 L 78.5 -119.6 L 85.2 -128.1 L 82.1 -142.8 L 51.4 -150.3 L 34.9 -146.6 L 30.4 -154.4 L -2.7 -162.2 L -12.8 -180.8 L -15.4 -196 L -30.6 -203.3 L -17.1 -213.3 L -26.4 -242.6 L -4.1 -260.7 L -8.8 -266.2 L -8.8 -266.2 L 26.9 -283.5 L -6 -298.5 L -6 -298.5 L 61.3 -338.6 L 90.5 -356.8 L 102.3 -372.8 L 55.8 -394.3 L 68.6 -414.8 L 40.3 -438.2 L 61.5 -465.2 L 24.9 -500.9 L 53.9 -524.6 L 5.8 -545.6 L 10.4 -567.6 L 35.8 -570.5 L 89.3 -583.1 L 89.3 -583.1 L 121.7 -594 L 173.3 -575 L 259.4 -567.5 L 378.2 -532 L 402.3 -517.1 L 404.4 -496.1 L 369.5 -479.6 L 318.1 -471.2 L 177.8 -495.1 L 154.7 -491.1 L 206 -468.1 L 208 -453.5 L 210.1 -421.4 L 250.5 -411.8 L 275.1 -403.7 L 279.1 -418.9 L 260.2 -432.4 L 280.2 -444.3 L 356.2 -424.8 L 382.7 -432.4 L 361.5 -455.4 L 434.8 -486.2 L 463.8 -484.4 L 493.1 -473.4 L 511.4 -495 L 485.2 -513.8 L 500.6 -532.6 L 477.5 -552.1 L 565.4 -542 L 583.4 -524.4 L 543.6 -520.5 L 543.8 -503 L 568.5 -492.2 L 617.1 -499.1 L 624.8 -519.1 L 690.5 -534.1 L 800.1 -561.1 L 823.9 -559.5 L 792.9 -540.4 L 831.9 -537.2 L 854.4 -547.9 L 913.3 -548.8 L 960 -561.8 L 995.8 -542.9 L 1031.5 -563.7 L 998.6 -581.9 L 1014.9 -592.3 L 1107.8 -582.8 L 1151.3 -572.9 L 1265.2 -537 L 1286.2 -553.5 L 1254.2 -570.1 L 1253.3 -576.8 L 1215.4 -579.8 L 1225.8 -594.7 L 1209 -619.3 L 1208 -629.3 L 1266 -657.8 L 1286.7 -686.4 L 1310 -692.5 L 1393.3 -684.2 L 1399.8 -666.8 L 1370 -641.3 L 1389.6 -631.2 L 1399.7 -609.3 L 1392.5 -566.2 L 1427.2 -546.9 L 1413.7 -526 L 1352.2 -481.3 L 1388.1 -476.7 L 1400.6 -488 L 1435.2 -496.1 L 1443.5 -511.6 L 1470.7 -526.6 L 1452.4 -544.5 L 1467.1 -565.2 L 1432.7 -567.8 L 1425.1 -585.3 L 1450.2 -616.8 L 1409.4 -642.5 L 1465.7 -663.7 L 1458.4 -686 L 1474.1 -686.7 L 1490.6 -669.3 L 1478.2 -639 L 1511.8 -633.2 L 1497.5 -655.9 L 1550.1 -668.2 L 1615.3 -669.9 L 1673.4 -652 L 1645.5 -678.2 L 1642.3 -711.7 L 1697 -718 L 1772.6 -716.6 L 1840.7 -720.7 L 1815.1 -737.2 L 1851.5 -757.8 L 1887.6 -758.7 L 1948.7 -774.3 L 2031.7 -778.4 L 2042.2 -787.1 L 2124.8 -790 L 2150.5 -782.9 L 2221 -799.6 L 2278.8 -799.1 L 2287.4 -812.7 L 2317.5 -826 L 2391.7 -838.9 L 2445.6 -828.8 L 2402.8 -821 L 2474 -816.2 L 2482.5 -800.7 L 2511.2 -808.3 L 2603.1 -807.9 L 2673.9 -792.6 L 2699.2 -780.8 L 2691.3 -764.4 L 2656.6 -755.1 L 2574 -737.7 L 2550.4 -728.4 L 2589.3 -724 L 2635.8 -716 L 2664.1 -722 L 2680.2 -701.8 L 2694 -710 L 2744.2 -714.9 L 2845.1 -709.8 L 2852.7 -695 L 2984.1 -690.4 L 2985.9 -714.4 L 3052.6 -708.9 L 3102.8 -709.1 L 3153.6 -692.5 L 3168 -672.4 L 3149.5 -659.2 L 3188.9 -634.5 L 3238.4 -621.7 L 3268.7 -654.7 L 3319.1 -640.6 L 3372.7 -649 L 3433.5 -639.3 L 3456.7 -648.2 L 3508.1 -643.7 L 3485.4 -672.9 L 3526.9 -686.5 L 3810.8 -666.1 L 3837.5 -647.5 L 3919.8 -623.5 L 4046.7 -629.4 L 4109.3 -624.2 L 4135.5 -611.2 L 4131.7 -588.2 L 4170.4 -579.3 L 4212.5 -585.7 L 4268.2 -586.6 L 4327.5 -580.4 L 4387.1 -583.9 L 4441.9 -555.9 L 4480.8 -566 L 4455.4 -586.1 L 4469.4 -600 L 4569.7 -591.2 L 4635.1 -593.1 L 4725.5 -578.1 L 4769.5 -564.4 L 4769.5 -439.2 L 4769.2 -439 L 4728.8 -425.2 L 4688.1 -427.5 L 4716.4 -410.8 L 4735.1 -384.9 L 4749.7 -376.4 L 4753.3 -363.4 L 4745.2 -355.1 L 4686.6 -361.9 L 4598.8 -338.3 L 4570.8 -334.6 L 4522.7 -312.5 L 4477.1 -293.2 L 4465.5 -278.9 L 4420.6 -300.7 L 4338.7 -276 L 4324.4 -287.7 L 4294.1 -274.2 L 4252.1 -278.5 L 4241.9 -257.9 L 4204.2 -227.4 L 4205.3 -214.7 L 4241.1 -207.7 L 4236.9 -161.9 L 4207.8 -160.8 L 4194.3 -134.5 L 4207.4 -120.9 L 4152.4 -104.9 L 4141.5 -69 L 4094.6 -61.3 L 4085.2 -29.4 L 4039.9 -0.1 L 4028.3 -21.8 L 4014.8 -67.6 L 3997.3 -137.5 L 4012.4 -181.1 L 4038.9 -199.8 L 4040.6 -214.5 L 4089.4 -221.5 L 4145.6 -261.1 L 4199.7 -293.4 L 4256.2 -318.5 L 4281.4 -362.8 L 4243.2 -360.2 L 4224.4 -334.3 L 4144.6 -299.8 L 4118.9 -338.4 L 4037.7 -327.7 L 3959.1 -275.1 L 3985 -255.8 L 3914.9 -247.6 L 3866.3 -244.3 L 3868.6 -267.1 L 3819.7 -271.8 L 3780.8 -256.4 L 3684.6 -261.8 L 3581.3 -252.5 L 3479.4 -191.1 L 3359 -117 L 3408.5 -113 L 3424 -93.4 L 3454.5 -86.4 L 3474.6 -102.1 L 3509.1 -100 L 3554.5 -65.5 L 3555.5 -38.7 L 3531 -7.3 L 3528.3 30.2 L 3514.1 80.5 L 3466.7 126 L 3456.2 147.7 L 3413.6 184.3 L 3371.2 220.6 L 3350.9 239.2 L 3309 257.6 L 3289.2 258 L 3269.5 242.7 L 3227.3 265.7 L 3222.4 276.2 L 3222.4 276.2 L 3222.4 276.2 L 3222.4 276.2 L 3218 270.7 L 3218 270.7 L 3217.8 254.7 L 3233.8 253.9 L 3238.4 216.7 L 3230.1 189.8 L 3257.1 178.7 L 3295.2 184.3 L 3316.3 153.7 L 3327.1 119.3 L 3339.3 107.8 L 3355.8 79.5 L 3303.9 88.8 L 3276.6 101.2 L 3228.9 101.1 L 3216.2 71.6 L 3178.9 49.2 L 3124.2 39.2 L 3112.6 8.4 L 3101.6 -10.9 L 3089.9 -24.4 L 3070.4 -56.1 L 3042.8 -67.7 L 2995.8 -77.1 L 2954.1 -76.2 L 2915.1 -70.5 L 2889.1 -54.9 L 2906.3 -47.4 L 2906.7 -30.1 L 2889.3 -20 L 2860.9 13.3 L 2861.2 27.2 L 2816.9 47 L 2779.1 35.2 L 2741.6 37.8 L 2725.2 27.3 L 2706.3 23.9 L 2660.3 46 L 2618.9 51.2 L 2590 59 L 2550.4 53.9 L 2521.3 54.2 L 2502.2 38.1 L 2471.4 23 L 2439.9 18.9 L 2400.2 23 L 2370.5 28.8 L 2325.8 15.6 L 2319.8 -7.9 L 2282.9 -16 L 2254.3 -19.7 L 2219.1 -32.7 L 2186.6 -0.1 L 2199.3 18.4 L 2168.8 40.3 L 2123.3 32.4 L 2092 31.2 L 2070.9 16.6 L 2038.1 16.1 L 2010.8 6.4 L 1963 21.2 L 1903 48.3 L 1869.9 53.7 L 1857.6 56.3 L 1840.9 37.1 L 1800.4 41.3 L 1787 28 L 1765.1 21.9 L 1749.9 3.7 L 1732.6 -1.9 L 1687.4 6.1 L 1644.1 -12 L 1627.4 4.5 L 1557.1 -75.3 L 1517 -99.6 L 1528.5 -109.5 L 1449.8 -79.8 L 1419.6 -78 L 1422.2 -95.2 L 1381.8 -105.9 L 1349 -98.3 L 1339.1 -130.8 L 1282.6 -137.6 L 1254.4 -124.6 L 1175.7 -113 L 1160.4 -105.2 L 1042.8 -94.3 L 1028.4 -83.5 L 1051 -62 L 1020.9 -53.8 L 1026.8 -45.3 L 996.6 -30 L 1047.5 -8.3 L 1039.7 6.5 L 995.5 5.2 L 986.4 14.5 L 946.2 -1.8 L 896.3 -1.1 L 863 12.1 L 825.8 -0.6 L 756.5 -22.4 L 707.4 -21.5 L 642.5 12.6 L 638.6 35.6 L 606.3 17.4 L 581.2 51.9 L 590.4 58.3 L 572.2 82.1 L 598.9 103.5 L 622.2 102.6 L 642.3 123.6 L 639.1 139.8 L 655 144.8 Z M 2059.3 -943.5 L 2127.3 -950.6 L 2188.4 -934.8 L 2260.8 -904.4 L 2253 -876.1 L 2184.4 -872.2 L 2096.9 -881.3 L 2044.7 -893.3 L 2020.6 -915.8 L 1977.7 -922 L 2059.3 -943.5 Z M 2344.1 -888.7 L 2423.8 -870.9 L 2414.4 -858.1 L 2237.2 -846 L 2294.7 -887.2 L 2320.5 -890.8 L 2344.1 -888.7 Z M 3475.4 -789.9 L 3558.4 -788.5 L 3672 -771.8 L 3647.3 -748.5 L 3531.5 -749.4 L 3479.3 -741.9 L 3417.1 -762.4 L 3434 -784 L 3475.4 -789.9 Z M 3770.6 -765 L 3849.5 -756.8 L 3813.2 -744.4 L 3762.9 -747.2 L 3704.5 -759.6 L 3712 -769.8 L 3770.6 -765 Z M 3507.9 -702.9 L 3537.7 -715.3 L 3577 -718.2 L 3621.6 -706.2 L 3625.5 -698 L 3577.8 -697.7 L 3513.4 -701.2 L 3507.9 -702.9 Z M 521.3 -929.8 L 582.7 -935.6 L 630.4 -935.9 L 636.9 -927.5 L 654.9 -935 L 684.5 -940.2 L 731.2 -933.3 L 719 -928.5 L 676.8 -924.4 L 648.5 -922 L 644.2 -916.8 L 607.4 -911.6 L 573.4 -919.1 L 591.3 -928.9 L 521.3 -929.8 Z M -173.8 -104.4 L -231.6 -103.9 L -270.3 -107.5 L -263.2 -121.3 L -219.8 -131.5 L -186.9 -126 L -173 -121 L -176.3 -112.4 L -173.8 -104.4 Z M 793.6 -714.8 L 868.8 -742.4 L 860.3 -756.7 L 930.6 -773.3 L 1034.4 -793.5 L 1139 -799.4 L 1192.8 -811 L 1254 -815.1 L 1275.9 -802.7 L 1254.7 -792.9 L 1143.4 -777.3 L 1047.4 -762.3 L 949.7 -732.4 L 902.9 -701.7 L 853.6 -671.5 L 860 -645.4 L 920.2 -619.6 L 901.6 -616.9 L 798.9 -621 L 790.5 -634.9 L 733.6 -643.3 L 729.1 -660.3 L 761.2 -667.1 L 760.1 -684.2 L 822.5 -711 L 793.6 -714.8 Z M 3603.8 -84.8 L 3614.7 -54.5 L 3613.9 -23.6 L 3626.8 8.2 L 3658.5 63.8 L 3611.9 53.5 L 3592.6 98.9 L 3623.2 131.1 L 3622.4 153.1 L 3598.5 134.1 L 3577.9 158.4 L 3572.1 132.1 L 3575.6 101.4 L 3572 67.5 L 3579.3 43.8 L 3580.7 1.7 L 3562.3 -29.2 L 3565.1 -72.1 L 3594.1 -86.6 L 3581.6 -101.2 L 3595.6 -105.6 L 3603.8 -84.8 Z M -6386.7 -509.2 L -6389.4 -489.6 L -6368.2 -481.8 L -6375.4 -504.6 L -6290.1 -500 L -6228.6 -470.5 L -6259.8 -456.8 L -6311.3 -453.6 L -6312.1 -422.9 L -6324.6 -416.3 L -6354.1 -417.3 L -6378 -428.2 L -6419.8 -437.4 L -6426.8 -451 L -6458.8 -456.2 L -6494.5 -452.1 L -6511.6 -463.1 L -6504.8 -474.8 L -6542.4 -467.3 L -6528.2 -452.5 L -6546.1 -439.2 L -6546.1 -564.4 L -6469.1 -540.4 L -6386.7 -509.2 Z M -6505 -625.1 L -6546.1 -623.1 L -6546.1 -644.6 L -6542 -645.9 L -6515.4 -645.9 L -6469.9 -636.9 L -6472.6 -632.6 L -6505 -625.1 Z M 162.7 158.3 L 170.9 150.5 L 193.3 157.2 L 203.4 158.5 L 207.5 164.7 L 212.2 165.6 L 212.5 168.3 L 227.8 175.9 L 259.9 174 L 253.8 185.3 L 219.4 190.7 L 176.7 208.9 L 159.2 202.5 L 166.1 187.7 L 131.8 178.5 L 137.3 172.5 L 167.4 162.1 L 162.7 158.3 Z" />
<path class="neighbor" d="M 234.4 575.1 L 229 585.1 L 217.6 580.7 L 211 601.6 L 218.9 605.2 L 210.9 609.5 L 209.5 617.8 L 224.3 613.5 L 225 625.7 L 209.4 676 L 206.3 667.8 L 188.7 622 L 188.7 622 L 188.7 622 L 197.9 611.6 L 195.7 609.8 L 204 595.1 L 210.4 571.4 L 214.9 563.5 L 215.8 563.1 L 226.3 563.2 L 229.2 557.7 L 237.6 557.3 L 238.1 570.1 L 233.8 574.9 L 234.4 575.1 Z" />
<path class="neighbor" d="M 237.6 557.3 L 229.2 557.7 L 226.3 563.2 L 215.8 563.1 L 227 537.5 L 242.6 515.4 L 243.2 514.3 L 257.3 515.9 L 262.5 528.2 L 245.3 540.1 L 237.6 557.3 Z" />
<path class="neighbor" d="M 224.3 613.5 L 209.5 617.8 L 210.9 609.5 L 218.9 605.2 L 211 601.6 L 217.6 580.7 L 229 585.1 L 229 604.3 L 224.3 613.5 Z" />
<path class="neighbor" d="M 229 585.1 L 234.4 575.1 L 269.5 587.6 L 331 554.1 L 343.7 592.4 L 337.7 597.1 L 274.7 612.9 L 306.1 644.3 L 295.7 649.7 L 290.5 660.2 L 266.5 664.5 L 259 675.8 L 245.4 685.5 L 210.4 680.5 L 209.4 676 L 225 625.7 L 224.3 613.5 L 229 604.3 L 229 585.1 Z" />
<path class="neighbor" d="M 732.9 841.2 L 738.5 839.6 L 739.7 848.3 L 764.3 843.3 L 790.3 844.1 L 809.3 845.1 L 830.8 823.8 L 854.3 803.7 L 874.1 784.3 L 880.1 795 L 884.4 819.8 L 868.3 819.9 L 865.7 840.4 L 871.3 844.8 L 857.1 851 L 857 863.8 L 847.8 876.8 L 847 889.5 L 840.7 896.1 L 746.2 880.3 L 734.1 848.4 L 732.9 841.2 Z" />
<path class="neighbor" d="M 708.8 825.2 L 706.7 802.3 L 715.1 785.8 L 723.7 782.4 L 733.2 792.3 L 733.8 810.7 L 727 829.2 L 718.3 831.4 L 708.8 825.2 Z" />
<path class="neighbor" d="M 619.6 661.1 L 626.2 674.9 L 623.4 682.1 L 633.5 705.8 L 611.3 706.6 L 603.5 691.7 L 575.4 688.6 L 598.5 658.4 L 619.6 661.1 Z" />
<path class="neighbor" d="M 343.7 592.4 L 331 554.1 L 400.6 521.4 L 412.5 483.4 L 409.5 460.4 L 426.7 452.7 L 442.8 433 L 456.3 428.2 L 492.9 432.2 L 503.9 440.2 L 519 434.9 L 539.4 472.4 L 560 481.8 L 562.3 500.2 L 546.5 511.1 L 539.2 535.6 L 561 565.5 L 599.5 582.7 L 615.7 606.6 L 610.5 629.3 L 620.6 629.3 L 620.9 646.1 L 638.3 662.6 L 619.6 661.1 L 598.5 658.4 L 575.4 688.6 L 517 686.1 L 428.4 622.9 L 381.5 600.9 L 343.7 592.4 Z" />
<path class="neighbor" d="M 847 889.5 L 847.8 876.8 L 857 863.8 L 857.1 851 L 871.3 844.8 L 865.7 840.4 L 868.3 819.9 L 884.4 819.8 L 898.5 841.3 L 916 852.7 L 939.1 856.8 L 957.7 862.5 L 971.9 880.6 L 980.3 891 L 991.6 895 L 991.5 902 L 980.1 920.7 L 975.1 929.5 L 961.8 939.6 L 950.1 961.1 L 935.8 959.5 L 929.3 967 L 924.2 982.9 L 928.1 1003.9 L 925.1 1007.8 L 910.7 1007.7 L 891 1019.4 L 888 1034.7 L 880.8 1041.4 L 861.2 1041.1 L 848.9 1049 L 849.1 1061.7 L 833.9 1070.5 L 816.5 1067.5 L 795.5 1078.1 L 781 1079.9 L 770.7 1057.9 L 746.2 1006.1 L 840.5 974.6 L 861.4 911.8 L 847 889.5 Z M 880.1 795 L 874.1 784.3 L 883.3 773.6 L 887.2 776.3 L 884.2 789.3 L 880.1 795 Z" />
<path class="neighbor" d="M 2170.9 714.9 L 2173.3 726.9 L 2162.2 732.6 L 2164.8 752 L 2142.3 746.3 L 2101.7 768 L 2102.6 786 L 2085.3 812.4 L 2083.7 827.7 L 2069.7 853.6 L 2045.1 846.4 L 2043.9 879 L 2036.8 889.7 L 2040.1 903 L 2024.6 910.5 L 2008 860.6 L 1999.4 860.7 L 1994.2 880.8 L 1977 864.5 L 1986.7 846.6 L 2000.8 844.8 L 2015.3 818.2 L 1997.1 812.8 L 1968 813.3 L 1938.1 809 L 1935.3 787.1 L 1920.3 785.6 L 1895.4 772 L 1884.3 793.3 L 1907 810 L 1887.3 821.7 L 1880.4 833.1 L 1899.7 841.5 L 1894.4 860.5 L 1905.3 884.1 L 1910.1 910 L 1905.6 921.5 L 1884.3 921.1 L 1845.5 927.6 L 1847.3 951.3 L 1830.5 969.9 L 1785.3 991 L 1750.1 1028 L 1726.5 1047.8 L 1695.2 1068.4 L 1695.1 1082.9 L 1679.5 1090.6 L 1651.1 1101.9 L 1636.5 1103.5 L 1627 1127.5 L 1633.6 1168.4 L 1635.3 1194.4 L 1621.9 1224.3 L 1621.8 1277.7 L 1605.5 1279.2 L 1591.2 1303.2 L 1600.8 1313.6 L 1572.1 1322.5 L 1561.5 1343.9 L 1548.9 1352.9 L 1519.2 1323.5 L 1504.6 1279.5 L 1492.6 1247.8 L 1481.5 1233 L 1464.8 1202.8 L 1457 1163.4 L 1451.6 1143.8 L 1423 1100.6 L 1410 1039.7 L 1400.6 999.5 L 1400.7 961.4 L 1394.6 932 L 1348.9 950.8 L 1326.7 947 L 1285.7 908.9 L 1300.8 897.6 L 1291.5 885.3 L 1254.6 858.6 L 1275.6 837.6 L 1344.7 837.7 L 1338.5 810.7 L 1320.8 794.8 L 1317.2 770.6 L 1296.7 756.5 L 1331.3 723.5 L 1367.8 725.9 L 1400.7 692.9 L 1420.4 661 L 1450.9 629.5 L 1450.4 607.1 L 1477.2 588.9 L 1451.9 573.4 L 1440.9 552.1 L 1429.8 524.6 L 1445.2 511 L 1492.9 518.7 L 1527.9 514 L 1558.3 487.6 L 1592.1 524.5 L 1588.9 550.1 L 1601.4 566.2 L 1600.4 582.2 L 1577.8 578 L 1586.6 612.7 L 1617.5 632.6 L 1661.2 654.5 L 1641.2 668.8 L 1629 698.2 L 1659.5 710.1 L 1689.1 725.5 L 1730.1 743.1 L 1773.2 747.2 L 1791.3 763.2 L 1815.6 766.2 L 1853.4 773.5 L 1879.6 773 L 1883.2 760.6 L 1879.1 740.6 L 1881.5 727 L 1900.7 720.4 L 1903.3 745.2 L 1904 751.5 L 1932.5 763.4 L 1952.3 758.5 L 1978.8 760.6 L 2004.5 759.7 L 2006.7 740.4 L 1993.9 730.3 L 2019.3 726.4 L 2047.9 703 L 2084.1 683 L 2110.5 690.7 L 2132.9 677.5 L 2147.6 697 L 2137 710.2 L 2170.9 714.9 Z" />
<path class="neighbor" d="M 1558.3 487.6 L 1527.9 514 L 1492.9 518.7 L 1445.2 511 L 1429.8 524.6 L 1440.9 552.1 L 1451.9 573.4 L 1477.2 588.9 L 1450.4 607.1 L 1450.9 629.5 L 1420.4 661 L 1400.7 692.9 L 1367.8 725.9 L 1331.3 723.5 L 1296.7 756.5 L 1317.2 770.6 L 1320.8 794.8 L 1338.5 810.7 L 1344.7 837.7 L 1275.6 837.6 L 1254.6 858.6 L 1231.6 850.6 L 1222.2 828 L 1197.9 804.1 L 1140 810 L 1088.9 810.6 L 1044.7 815 L 1056.5 778.5 L 1101.9 762.2 L 1099.3 747.8 L 1084.2 742.7 L 1083.4 715 L 1053.3 701.2 L 1040.7 682.2 L 1025.1 665.7 L 1077.8 681.7 L 1109.2 677 L 1128 681 L 1134.4 674.1 L 1156.2 676.9 L 1197.1 663.8 L 1198.2 637.1 L 1215.7 619.3 L 1239.1 619.3 L 1242.6 610.5 L 1266.6 606.4 L 1278.2 609.4 L 1290.5 600.5 L 1288.8 581.7 L 1302.1 562.7 L 1322.1 554.7 L 1309.8 533.9 L 1339.7 534.9 L 1348.3 523.6 L 1347 511.5 L 1362.6 498.3 L 1359 482.7 L 1351.6 469.4 L 1370 455.7 L 1403.7 449.1 L 1439.8 445.4 L 1455.8 439.6 L 1474.1 436.1 L 1497.3 450.7 L 1506.6 474.9 L 1558.3 487.6 Z" />
<path class="neighbor" d="M 1202.5 428.9 L 1220 429.1 L 1243.7 435.7 L 1253.3 439.5 L 1276.1 429.5 L 1286.7 435.5 L 1296.8 421.1 L 1315.6 421.8 L 1320.4 417.2 L 1323.8 404.5 L 1337.3 393.6 L 1354.3 400.7 L 1350.9 410.3 L 1360.4 411.8 L 1357.5 438.2 L 1369.9 448.5 L 1380.9 441.9 L 1394.8 438.8 L 1414.4 424.7 L 1436.1 427 L 1468.5 427.1 L 1474.1 436.1 L 1455.8 439.6 L 1439.8 445.4 L 1403.7 449.1 L 1370 455.7 L 1351.6 469.4 L 1359 482.7 L 1362.6 498.3 L 1347 511.5 L 1348.3 523.6 L 1339.7 534.9 L 1309.8 533.9 L 1322.1 554.7 L 1302.1 562.7 L 1288.8 581.7 L 1290.5 600.5 L 1278.2 609.4 L 1266.6 606.4 L 1242.6 610.5 L 1239.1 619.3 L 1215.7 619.3 L 1198.2 637.1 L 1197.1 663.8 L 1156.2 676.9 L 1134.4 674.1 L 1128 681 L 1109.2 677 L 1077.8 681.7 L 1025.1 665.7 L 1053.6 637.2 L 1051 616.9 L 1027.2 611.6 L 1024.8 591.7 L 1014.5 566.6 L 1027.9 549.4 L 1014.2 544.7 L 1022.9 521.9 L 1035.7 482.7 L 1067.7 494.6 L 1091.4 490.4 L 1098 476.2 L 1122.8 471.5 L 1140.5 461.9 L 1146.8 436.8 L 1173.3 430.7 L 1178.2 419.5 L 1193 427.9 L 1202.5 428.9 Z" />
<path class="neighbor" d="M 1243.7 435.7 L 1261.4 403.9 L 1254.6 380.5 L 1231.5 373 L 1239.7 359.2 L 1265.9 360.6 L 1280.9 343.3 L 1290.9 323.1 L 1332.9 315.8 L 1326.3 330.4 L 1330.8 339.1 L 1343.8 338.3 L 1332.3 348 L 1298.1 342.7 L 1295.1 360.9 L 1329.2 358.4 L 1368 368.6 L 1427.5 363.9 L 1435.4 392.9 L 1445.8 389.8 L 1464.8 396.9 L 1463.8 409.2 L 1468.5 427.1 L 1436.1 427 L 1414.4 424.7 L 1394.8 438.8 L 1380.9 441.9 L 1369.9 448.5 L 1357.5 438.2 L 1360.4 411.8 L 1350.9 410.3 L 1354.3 400.7 L 1337.3 393.6 L 1323.8 404.5 L 1320.4 417.2 L 1315.6 421.8 L 1296.8 421.1 L 1286.7 435.5 L 1276.1 429.5 L 1253.3 439.5 L 1243.7 435.7 Z" />
<path class="neighbor" d="M 1342.2 274.7 L 1349.2 261 L 1369.9 256.5 L 1421.6 267.4 L 1426.5 248.8 L 1444.4 242.3 L 1489.1 255.5 L 1500.5 252.1 L 1552.7 252.9 L 1599.3 256.2 L 1615.1 267.5 L 1634.4 272.1 L 1630 279.2 L 1580.5 296.2 L 1569.3 308.7 L 1529 312.5 L 1517.1 332.5 L 1483.8 328.3 L 1462.1 334.5 L 1432.1 349.3 L 1436.4 356.7 L 1427.5 363.9 L 1368 368.6 L 1329.2 358.4 L 1295.1 360.9 L 1298.1 342.7 L 1332.3 348 L 1343.8 338.3 L 1367.7 341.4 L 1408 318.8 L 1370.7 302.2 L 1348.3 310 L 1325.1 298.2 L 1351.5 277.8 L 1342.2 274.7 Z" />
<path class="neighbor" d="M 762 289.9 L 775.8 279.5 L 811.5 272.9 L 832.8 281.7 L 854.8 306.4 L 870.9 304.8 L 906.3 304.4 L 901.2 288.6 L 928 277.8 L 954.5 259.5 L 996.9 276.1 L 1000.2 301.2 L 1012.3 307.6 L 1046.2 306.2 L 1056.8 311.9 L 1072.2 344.3 L 1108.2 366 L 1128.7 380.8 L 1161.6 396.2 L 1203.4 409.6 L 1202.5 428.9 L 1193 427.9 L 1178.2 419.5 L 1173.3 430.7 L 1146.8 436.8 L 1140.5 461.9 L 1122.8 471.5 L 1098 476.2 L 1091.4 490.4 L 1067.7 494.6 L 1035.7 482.7 L 1032.9 456.3 L 1009.5 455.1 L 973.6 427.3 L 948.5 423.9 L 913.7 407.9 L 891.4 405 L 877.6 410.9 L 856.5 410 L 834.2 427.9 L 806.6 434 L 800.7 411.8 L 805.3 378.9 L 780.8 368.3 L 788.8 346.8 L 768 344.9 L 774.9 318.4 L 804.6 326.1 L 832.2 316.1 L 809.3 297.2 L 800.3 279.2 L 775 287.3 L 771.8 310.3 L 762 289.9 Z" />
<path class="neighbor" d="M 234.4 575.1 L 233.8 574.9 L 238.1 570.1 L 237.6 557.3 L 245.3 540.1 L 262.5 528.2 L 257.3 515.9 L 243.2 514.3 L 240.3 490.3 L 248 477.3 L 256.4 470.4 L 264.8 463.5 L 266.5 446 L 276.8 452.1 L 311.4 443.4 L 328.1 449.3 L 354 449.2 L 390.1 437.4 L 407.1 437.9 L 442.8 433 L 426.7 452.7 L 409.5 460.4 L 412.5 483.4 L 400.6 521.4 L 331 554.1 L 269.5 587.6 L 234.4 575.1 Z" />
<path class="neighbor" d="M 573.5 384.6 L 562.1 385.5 L 549.2 367.4 L 549.4 362.5 L 535.5 362.6 L 526.2 354.2 L 519.7 355 L 507.3 345.8 L 483.9 338 L 486.9 322.7 L 481.6 311.7 L 525.3 306.7 L 531.8 315 L 543.7 320.4 L 537.4 328.3 L 554.2 339.1 L 545.3 349.1 L 558.7 357.7 L 572.8 362.8 L 573.5 384.6 Z" />
<path class="neighbor" d="M 110.8 -34.4 L 122.5 -33.1 L 130.5 -40.3 L 140 -38.7 L 172.6 -41.7 L 192.7 -23.9 L 184.8 -17.6 L 187.4 -7.8 L 212.5 -6.3 L 223.7 7.3 L 223 13.5 L 262.9 24.6 L 287 19.6 L 306.4 34.3 L 324.8 34 L 371.1 44.2 L 371.5 53.4 L 358.7 69.9 L 365.7 87.2 L 360.7 97.7 L 330.3 100 L 314.1 108.8 L 313.1 122.7 L 288 125.3 L 267.1 135.4 L 237.7 137.1 L 210.6 148.8 L 212.2 165.6 L 207.5 164.7 L 203.4 158.5 L 193.3 157.2 L 170.9 150.5 L 162.7 158.3 L 158.3 154.9 L 109.5 146.9 L 107.3 135.2 L 78.2 139.1 L 66.5 156.4 L 42.2 179.6 L 27.9 174.2 L 13.2 179.3 L -0.9 173.5 L 7 170.1 L 12.5 159.3 L 21.1 149.3 L 18.9 143.6 L 25.5 141.1 L 28.6 145.5 L 47.1 146.4 L 55.4 144.1 L 49.6 140.9 L 51.8 136.2 L 40.8 128.2 L 36.3 115.1 L 24.8 109.9 L 27.1 99.3 L 12.9 90.8 L -0.1 89.6 L -23.2 79.8 L -44.1 82.9 L -51.6 87.6 L -64.9 87.6 L -72.8 94.9 L -96 97.9 L -106.7 102.8 L -121.3 95.1 L -141.5 95 L -160.9 91.5 L -174.5 98.2 L -176.7 89.8 L -194.1 81.3 L -188 68.6 L -179.3 60.4 L -172.4 62.2 L -180.5 48.1 L -152 22 L -136.4 18.3 L -133 9.5 L -148.8 -18 L -133.8 -19.2 L -116.6 -27.7 L -92.2 -28.4 L -60.5 -25.9 L -25.4 -18.4 L -0.6 -17.8 L 11.2 -13.2 L 23 -18.7 L 31.2 -11.3 L 59.6 -12.9 L 72.1 -9.8 L 74.1 -25.6 L 83.8 -32.5 L 110.8 -34.4 Z" />
<path class="neighbor" d="M 519 434.9 L 503.9 440.2 L 492.9 432.2 L 456.3 428.2 L 442.8 433 L 407.1 437.9 L 390.1 437.4 L 354 449.2 L 328.1 449.3 L 311.4 443.4 L 276.8 452.1 L 266.5 446 L 264.8 463.5 L 256.4 470.4 L 248 477.3 L 236.4 463.1 L 248.3 451.3 L 229.1 453.9 L 202.8 446.7 L 181.2 464.8 L 133.5 468.3 L 108.1 451.5 L 74.2 450.4 L 66.9 463.4 L 45.2 467.2 L 14.8 450.4 L -19.5 451 L -38.1 419.7 L -61.1 402.3 L -45.8 377.9 L -65.7 362.8 L -30.8 332.8 L 17.6 331.5 L 30.8 307.6 L 90.7 311.8 L 128.5 291.4 L 165.1 282.5 L 217.1 281.9 L 271.9 304 L 317 316.2 L 353.7 311.3 L 380.7 314.1 L 417.8 297.7 L 451.3 296.2 L 481.6 311.7 L 486.9 322.7 L 483.9 338 L 507.3 345.8 L 519.7 355 L 498.1 364 L 507.9 400 L 501.8 409.7 L 519 434.9 L 519 434.9 Z M -67.4 288.6 L -35.4 278.7 L -8.3 282.9 L -4.6 295 L 22.9 305.1 L 17.1 312.8 L -20.2 314.6 L -33.6 324.3 L -59.8 341.2 L -69.7 326.6 L -69.3 320.1 L -61.8 316.6 L -52.1 296.9 L -67.4 288.6 Z" />
<path class="neighbor" d="M 570.3 287.5 L 579.1 288.5 L 600.7 307.6 L 614.6 309.8 L 620 301.8 L 638.8 289.1 L 655.3 305.7 L 671.3 328 L 686 329.4 L 695.6 337.9 L 669.8 340.4 L 664.3 364.9 L 658.9 375.9 L 647.4 383.2 L 648.2 398.8 L 640.4 400.3 L 620.8 383.9 L 631.6 368.3 L 622.3 359.1 L 610.5 361.4 L 573.5 384.6 L 572.8 362.8 L 558.7 357.7 L 545.3 349.1 L 554.2 339.1 L 537.4 328.3 L 543.7 320.4 L 531.8 315 L 525.3 306.7 L 533 301.6 L 556.4 310.7 L 573.3 312.5 L 577.6 308.8 L 562.1 291.8 L 570.3 287.5 Z M 562.1 385.5 L 540.5 381.4 L 524.6 366.9 L 519.7 355 L 526.2 354.2 L 535.5 362.6 L 549.4 362.5 L 549.2 367.4 L 562.1 385.5 Z" />
<path class="neighbor" d="M 367.6 238 L 371.4 234.3 L 398 239.7 L 444.2 244.8 L 487 259.8 L 492.5 265.7 L 511.6 260.7 L 540.9 267.3 L 550.5 280.2 L 570.3 287.5 L 562.1 291.8 L 577.6 308.8 L 573.3 312.5 L 556.4 310.7 L 533 301.6 L 525.3 306.7 L 481.6 311.7 L 451.3 296.2 L 417.8 297.7 L 422.5 284.3 L 414.7 262.8 L 396.5 251.3 L 379.1 247.6 L 367.6 238 Z" />
<path class="neighbor" d="M 256.7 1149.9 L 253.4 1137.4 L 266.9 1091.2 L 270 1070.3 L 279.9 1060.6 L 303.1 1055.5 L 319 1037.5 L 337.2 1073.9 L 345.9 1102.8 L 363.1 1118.1 L 406 1147.8 L 423.5 1165.7 L 440.5 1183.8 L 450.4 1194.6 L 465.8 1204.1 L 456.3 1211.8 L 442.9 1209 L 432.1 1198.9 L 419.2 1180.4 L 405.3 1170.3 L 397.2 1159.5 L 369.8 1146.9 L 348.2 1146.5 L 340.7 1139.9 L 322.2 1147.3 L 303.2 1133.1 L 293.3 1156.5 L 256.7 1149.9 Z" />
<path class="neighbor" d="M 746.2 1006.1 L 770.7 1057.9 L 781 1079.9 L 758.3 1088.3 L 752.2 1102.3 L 751.4 1113 L 720.1 1126.3 L 669.9 1140.9 L 641.8 1163.1 L 627.9 1164.8 L 618.5 1163 L 600.1 1176 L 580.1 1182.1 L 553.7 1183.7 L 545.8 1185.5 L 538.9 1193.8 L 530.7 1196.1 L 525.8 1204.1 L 510.2 1203.4 L 500.2 1207.7 L 478.5 1206.1 L 470.3 1187.7 L 471.2 1170.5 L 466 1161.2 L 459.9 1138 L 450.9 1125.1 L 457.1 1123.5 L 453.9 1109.2 L 457.7 1103.1 L 456.3 1089.4 L 470.1 1079.4 L 466.9 1066.1 L 475.2 1050.7 L 488.2 1058.9 L 496.7 1056 L 532.9 1055.3 L 538.7 1058.4 L 569.1 1061.6 L 581.1 1060 L 589 1070.5 L 603.7 1065.2 L 626.2 1032.2 L 655.5 1018.1 L 746.2 1006.1 Z" />
<path class="neighbor" d="M 210.4 680.5 L 245.4 685.5 L 259 675.8 L 266.5 664.5 L 290.5 660.2 L 295.7 649.7 L 306.1 644.3 L 274.7 612.9 L 337.7 597.1 L 343.7 592.4 L 381.5 600.9 L 428.4 622.9 L 517 686.1 L 575.4 688.6 L 603.5 691.7 L 611.3 706.6 L 633.5 705.8 L 645.8 732.9 L 661.3 740.1 L 666.7 751.1 L 688.1 764.3 L 690 777.3 L 686.9 787.8 L 690.8 798.3 L 699.9 807.2 L 704.1 817.5 L 708.8 825.2 L 718.3 831.4 L 727 829.2 L 732.9 841.2 L 734.1 848.4 L 746.2 880.3 L 840.7 896.1 L 847 889.5 L 861.4 911.8 L 840.5 974.6 L 746.2 1006.1 L 655.5 1018.1 L 626.2 1032.2 L 603.7 1065.2 L 589 1070.5 L 581.1 1060 L 569.1 1061.6 L 538.7 1058.4 L 532.9 1055.3 L 496.7 1056 L 488.2 1058.9 L 475.2 1050.7 L 466.9 1066.1 L 470.1 1079.4 L 456.3 1089.4 L 452.3 1076 L 442.8 1066.5 L 440.4 1054 L 424.1 1042.7 L 407.4 1016.4 L 398.5 990.8 L 376.8 969.1 L 362.7 964 L 341.9 934 L 338.3 912.2 L 339.6 893.5 L 321.6 858.7 L 306.9 846.4 L 289.9 839.9 L 279.5 821.9 L 281.3 814.8 L 272.5 798.5 L 263.4 791.5 L 251.1 768.1 L 231.9 742.8 L 215.9 721.2 L 200.3 721.3 L 205.1 704.1 L 206.5 693.1 L 210.4 680.5 Z" />
<path class="neighbor" d="M 140.5 498.7 L 142.7 498.6 L 147.3 491 L 169.9 491.4 L 198.5 482 L 177.3 495.4 L 179.6 501.3 L 176.2 500.2 L 170.2 502.6 L 165.5 501.9 L 163.9 503.1 L 163.3 500 L 161 498 L 155 497.7 L 146.4 500.4 L 140.5 498.7 Z" />
<path class="neighbor" d="M 270.5 911.8 L 145.8 911.8 L 23.9 911.8 L -102.5 911.8 L -102.5 796 L -102.5 684.2 L -111.9 658.9 L -103.8 639.5 L -108.7 626.1 L -97.3 611 L -55.5 610.5 L -25.3 618.8 L 6 628.1 L 20.5 633 L 44.7 623 L 57.6 614 L 85.4 611.4 L 107.7 615.4 L 116.3 631 L 123.6 620.7 L 148.8 628.1 L 173.3 629.9 L 188.7 622 L 188.7 622 L 206.3 667.8 L 209.4 676 L 200.6 688.6 L 193.8 712.4 L 185.2 728.7 L 177.9 734.2 L 167.4 724.1 L 153.2 710 L 130.8 665 L 127.6 667.8 L 140.6 701 L 159.9 732.6 L 183.7 781.6 L 195.3 798.6 L 205.4 816.4 L 233.6 851.2 L 227.3 856.7 L 228.3 877.1 L 265 905.3 L 270.5 911.8 Z" />
<path class="lake" d="M 471.5 543.1 L 469.4 541.1 L 466.6 537.2 L 465.6 531 L 465.3 526.5 L 465.9 524.7 L 466.9 524.2 L 470.8 530.1 L 474.7 533.2 L 478 536.1 L 478.8 538.1 L 478.2 540.6 L 478.3 543.1 L 476.5 543.8 L 473.7 543.5 L 471.5 543.1 L 471.5 543.1 L 471.5 543.1 L 471.5 543.1 Z" />
<path class="lake" d="M 490.9 575.8 L 490.4 578.2 L 488.2 580.6 L 486.5 580.7 L 484.3 580 L 483 579.2 L 481.4 578.7 L 478.4 577.2 L 477 575 L 476.6 572 L 476.9 570.1 L 477.5 569.8 L 478.2 568.5 L 478 565.7 L 479.2 564.1 L 480.6 563.5 L 481.6 564.8 L 485.9 572 L 489.1 574.4 L 490.9 575.8 L 490.9 575.8 L 490.9 575.8 L 490.9 575.8 Z" />
<path class="lake" d="M 230.2 606.1 L 229.6 610.8 L 228.9 617.6 L 228.2 618.6 L 225.1 618.6 L 224.5 617.9 L 224.5 613.4 L 225.1 609.4 L 226.4 606.5 L 228.2 605.1 L 229.4 604.8 L 230.2 606.1 L 230.2 606.1 L 230.2 606.1 L 230.2 606.1 Z" />
<path class="lake" d="M 547.1 417 L 547.1 417 L 547.1 417 L 547.1 417 L 549.6 418.2 L 549.7 419.4 L 549.9 422.1 L 553.1 426.9 L 552.3 429.6 L 548.2 430.8 L 547 431.2 L 545.4 433.6 L 543 436 L 540.2 435.6 L 537.6 433.2 L 535.3 426.5 L 534.2 420.9 L 534.1 418.7 L 533.5 416.3 L 528.9 412.4 L 528.7 409.2 L 531 407.4 L 532.1 405.5 L 531.5 404.3 L 529 404.4 L 526.6 404.3 L 527 402.8 L 529.5 400.5 L 537.4 400.5 L 540.5 403.4 L 541.5 406.6 L 540.2 411 L 539.8 414.9 L 541.3 416.6 L 543.3 416.6 L 547.1 417 Z" />
<path class="lake" d="M 930.5 290.2 L 929 292.5 L 924.8 294.6 L 919.9 295.9 L 916.8 296.4 L 914.2 296.5 L 911.1 294 L 908.8 291.5 L 907 291.6 L 905.3 291.8 L 905 290.2 L 906.3 284.1 L 909.1 277.3 L 911.9 273.6 L 915.6 272.6 L 920.6 274.9 L 923 278.4 L 922.6 279.8 L 923.2 281.1 L 924.8 282.8 L 925.3 285.9 L 929.9 288.2 L 930.5 290.2 L 930.5 290.2 L 930.5 290.2 Z" />
<path class="lake" d="M 462.9 398 L 460.8 396.6 L 460.5 395.4 L 459.6 393.9 L 458.8 393.6 L 456.4 394.4 L 453.3 394.5 L 450.3 393.7 L 448.8 393.5 L 442.9 393.1 L 443.3 391.6 L 445.5 389.7 L 446.2 388.6 L 446.2 387.1 L 448.4 385.4 L 454.6 384.3 L 458.4 383.9 L 461.2 383.9 L 465.8 383.4 L 468.4 382.2 L 468.3 381.5 L 467.2 381.1 L 466 381.1 L 465.6 380 L 468.1 379.1 L 472.2 378.6 L 477 377.8 L 480.9 378.1 L 482.5 379.1 L 480 380.6 L 475.3 382.6 L 472.4 383.3 L 469.9 386.3 L 469.1 389.9 L 472.3 391.6 L 473.3 393.5 L 470.6 396 L 467.9 398.3 L 466 398.6 L 462.9 398 L 462.9 398 L 462.9 398 Z" />
<path class="lake" d="M 525.8 329.8 L 525.3 328.9 L 525.8 327.7 L 525.7 326.8 L 526.6 326.7 L 529.1 327.4 L 533.7 329.9 L 535.9 330.6 L 537.9 330.9 L 539.9 332.3 L 543 334.5 L 545.1 336 L 546.1 337.2 L 546.7 338.4 L 546.9 339.2 L 546.6 339.9 L 545.2 340.6 L 543.2 341.1 L 541.2 341.1 L 538.4 341.2 L 536 341.3 L 534.8 340.8 L 533.9 339.8 L 533 336.7 L 531.9 333.9 L 531 333.3 L 530.1 332.5 L 529.1 331.5 L 527.4 330.6 L 525.8 329.8 L 525.8 329.8 L 525.8 329.8 L 525.8 329.8 Z" />
<path class="lake" d="M 608.1 638.6 L 607 639.4 L 604.4 639.5 L 601.8 639 L 596.7 638 L 592.3 637 L 590.2 637 L 587.5 637.3 L 585.2 637.4 L 584.3 637.6 L 583.4 637.5 L 582.9 637.1 L 582.8 636.3 L 582.8 635.6 L 582.4 635.1 L 581.6 634.6 L 581.2 634.4 L 580.2 634 L 579.9 633.1 L 581.1 631.9 L 582.7 631.6 L 583.3 631.6 L 584.6 631.5 L 585.8 632 L 586.7 632.3 L 588.5 633.4 L 591 634.3 L 592.2 634.3 L 593.6 634.7 L 595.1 635.1 L 598.1 636 L 600.2 635.7 L 602.5 634.8 L 603.8 634.7 L 604.7 634.9 L 604.8 635.3 L 605.7 636.2 L 607.5 637.9 L 608.1 638.6 L 608.1 638.6 L 608.1 638.6 L 608.1 638.6 Z" />
<path class="lake" d="M 228.2 623.3 L 228.1 624 L 227.8 624.9 L 227.5 625.6 L 226.3 625.8 L 224.9 625.6 L 224.1 624.6 L 223.7 623.3 L 223.8 622.1 L 224.4 621.6 L 225.8 621.6 L 227.3 622.4 L 228.2 623.3 L 228.2 623.3 L 228.2 623.3 L 228.2 623.3 Z" />
<path class="lake" d="M 231.7 572.9 L 231.2 573.9 L 229.9 574.8 L 229.1 573.9 L 228.6 572.2 L 228.8 570.5 L 229.6 569.4 L 230.6 569.2 L 231.4 569.8 L 231.8 571.2 L 231.7 572.9 L 231.7 572.9 L 231.7 572.9 L 231.7 572.9 Z" />
<path class="lake" d="M 1415.4 290.7 L 1414.6 290.8 L 1412.6 291.1 L 1409.6 290.7 L 1405.4 290.8 L 1401.2 291.3 L 1396.1 293.7 L 1395.3 293.6 L 1394.8 292.9 L 1395.5 292.5 L 1396.5 291.7 L 1397.1 290.4 L 1396.4 288.7 L 1395.5 287.1 L 1396.3 286.3 L 1400.5 286.3 L 1404.3 286.9 L 1406.6 287.7 L 1408.9 288.5 L 1413.8 289.4 L 1415.7 290.1 L 1415.4 290.7 L 1415.4 290.7 L 1415.4 290.7 Z" />
<path class="lake" d="M 944.6 186.9 L 946.5 184.7 L 947.9 179.7 L 952 176 L 952.8 172.1 L 954.8 170.3 L 955.3 166.1 L 957.1 162.6 L 961.1 162.6 L 960.3 161.1 L 961.4 160 L 968.1 160.7 L 968.7 159.2 L 971.8 159.7 L 973.7 157.6 L 975.7 157.3 L 973.9 160.8 L 969.5 160.6 L 963.5 163.8 L 962.1 170.1 L 958.8 171.1 L 955.9 174.4 L 954.5 180.5 L 956.2 184.7 L 951.9 188.6 L 953.2 189.1 L 952.6 191.5 L 954.4 194.5 L 952.4 196 L 951.2 202.4 L 949.9 204.4 L 946.2 206.9 L 942.9 206.7 L 942.1 205.8 L 942.2 203.8 L 944.8 201.3 L 941.7 193.6 L 944.6 186.9 Z" />
<path class="lake" d="M 1022.2 154.7 L 1021.3 153.7 L 1023.5 151.1 L 1020.3 145.6 L 1015.8 148.2 L 1008.6 144.7 L 1001.8 146.2 L 997.3 143.6 L 997.7 139.4 L 1006.6 135.4 L 1009.2 138 L 1010.2 141.4 L 1010.5 141.5 L 1010.8 141.4 L 1011.9 138 L 1012.1 137.8 L 1012.4 137.8 L 1015.8 139.7 L 1020.9 137.7 L 1021.1 137.3 L 1021 136.8 L 1014.1 133.8 L 1014.1 133 L 1015.8 132.7 L 1023.1 133.9 L 1022 139.1 L 1025.7 142.5 L 1033.3 143.3 L 1037.1 141.9 L 1037.3 141.7 L 1037.4 141.3 L 1035.4 139.2 L 1038.4 138.2 L 1038.9 137 L 1045.7 136.1 L 1043.2 139 L 1040.7 140.8 L 1038 143.3 L 1038.5 145.3 L 1035.9 149.9 L 1028.3 152 L 1024.7 154.6 L 1022.2 154.7 Z" />
<path class="lake" d="M 989.1 154.8 L 984.8 150.8 L 982 147.4 L 989.2 147.3 L 990.8 148.5 L 991.7 153.5 L 989.1 154.8 Z" />
<path class="lake" d="M 224.4 180.8 L 220.5 179.3 L 214.6 177.6 L 213.8 176.9 L 213.2 176.2 L 213.1 175.3 L 214.3 173.1 L 213.4 171.1 L 212.6 169.8 L 211.8 169 L 208.1 167.2 L 206.6 166 L 204.3 165.5 L 203.7 164.1 L 201.9 163.6 L 201.6 163.1 L 200.7 162.5 L 195.9 164.1 L 195.9 163.6 L 199.8 160.1 L 199.8 159.4 L 199.5 159.2 L 198.2 158.9 L 196.9 160.3 L 196 160.6 L 194.8 160 L 193.3 160.9 L 192.6 160.9 L 192.3 160.5 L 192.6 158.9 L 192.4 158 L 191.8 157.4 L 188.9 156.5 L 187.5 156.7 L 186.3 156.5 L 186.1 156.9 L 186.3 158.1 L 186.2 158.8 L 185.6 159.1 L 184.8 158.6 L 184.6 157.1 L 184.2 156.6 L 182.7 155.5 L 180.3 155.1 L 179.7 155.8 L 179.1 156.1 L 178 156.2 L 176.8 155.5 L 175.1 152.9 L 174.6 152.9 L 173.2 153.2 L 171.2 151.7 L 170.8 151.1 L 171.1 150.6 L 171.8 150.2 L 173.4 150 L 175.6 150.1 L 177.9 150.7 L 181.3 152.4 L 182.8 152.9 L 183.7 152.9 L 183.6 151.7 L 183.9 151.3 L 184.5 151.4 L 185 151.4 L 185.5 151 L 185.3 149.6 L 185.4 149 L 185.9 149 L 187.8 150.7 L 188.9 151.4 L 189.7 151.7 L 190.2 151.7 L 190.7 151.4 L 197.5 152.3 L 197.8 153.1 L 197.6 153.8 L 195.9 153.8 L 195.1 154.2 L 193.9 156.7 L 194.3 157.4 L 195.4 157.9 L 196.8 157.8 L 198.9 156.7 L 200.5 152.6 L 201.3 151.9 L 202.9 152.2 L 204.1 153.3 L 204.1 153.8 L 202.9 154.5 L 202.8 155.7 L 203.6 156.3 L 205.2 156.6 L 206 158.7 L 206.8 162.3 L 209 163.9 L 212.8 168.8 L 217.5 174 L 221.2 177.4 L 225.2 179.5 L 225.6 180.2 L 224.4 180.8 L 224.4 180.8 L 224.4 180.8 Z" />
<path class="lake" d="M 221.3 110.5 L 220.3 111.8 L 218.5 111.8 L 213.4 112.5 L 210.6 113.2 L 205.8 111.4 L 199 109.6 L 193.6 110.6 L 186.4 112.8 L 185.9 113.7 L 186.1 115.1 L 185.8 115.8 L 183.4 116 L 177.4 121 L 171.5 127.8 L 170.9 129.1 L 170.6 130.3 L 166.5 131.5 L 165.9 131.3 L 167.1 129.6 L 168.7 124.9 L 169.6 124.4 L 169.9 124.6 L 171.1 124 L 172.9 122.2 L 173.4 120.8 L 175.2 119.3 L 178.3 117.1 L 179.2 115.5 L 179.3 114.7 L 178.7 111.8 L 178.4 108.9 L 179.9 108.5 L 182.5 108.4 L 185 108.9 L 187 109.1 L 187.9 107.9 L 188.8 107.4 L 190.3 108.1 L 192.3 108.4 L 194.1 108.1 L 195.7 107.3 L 203.3 107.8 L 211.7 107.5 L 214.6 104.7 L 214.5 100 L 215.1 99.5 L 215.9 99.6 L 219.4 105.6 L 221.3 110.5 L 221.3 110.5 L 221.3 110.5 Z" />
<path class="lake" d="M 482 556.4 L 482 556.4 L 482 556.4 L 482 556.4 L 481.1 559.1 L 478.4 560 L 476.9 559.7 L 475.9 557.9 L 472.8 556.3 L 473 555 L 475.3 552.3 L 476.7 553.8 L 478.3 555.4 L 480.7 555.1 L 482 556.4 Z" />
<path class="lake" d="M 1248.8 306.5 L 1248.8 306.5 L 1248.8 306.5 L 1248.8 306.5 L 1254.2 308.3 L 1256.7 308.6 L 1261.4 309.5 L 1263.4 311.2 L 1261.7 312.1 L 1257.9 312.9 L 1253.3 313 L 1249.8 311.4 L 1247 307.5 L 1248.8 306.5 Z" />
<path class="country" d="M 638.3 662.6 L 620.9 646.1 L 620.6 629.3 L 610.5 629.3 L 615.7 606.6 L 599.5 582.7 L 561 565.5 L 539.2 535.6 L 546.5 511.1 L 562.3 500.2 L 560 481.8 L 539.4 472.4 L 519 434.9 L 519 434.9 L 501.8 409.7 L 507.9 400 L 498.1 364 L 519.7 355 L 524.6 366.9 L 540.5 381.4 L 562.1 385.5 L 573.5 384.6 L 610.5 361.4 L 622.3 359.1 L 631.6 368.3 L 620.8 383.9 L 640.4 400.3 L 648.2 398.8 L 658.1 422 L 687.9 428.5 L 709.8 444.3 L 754.5 449.7 L 803.5 441.4 L 806.6 434 L 834.2 427.9 L 856.5 410 L 877.6 410.9 L 891.4 405 L 913.7 407.9 L 948.5 423.9 L 973.6 427.3 L 1009.5 455.1 L 1032.9 456.3 L 1035.7 482.7 L 1022.9 521.9 L 1014.2 544.7 L 1027.9 549.4 L 1014.5 566.6 L 1024.8 591.7 L 1027.2 611.6 L 1051 616.9 L 1053.6 637.2 L 1025.1 665.7 L 1040.7 682.2 L 1053.3 701.2 L 1083.4 715 L 1084.2 742.7 L 1099.3 747.8 L 1101.9 762.2 L 1056.5 778.5 L 1044.7 815 L 985.5 805.5 L 951.3 798.3 L 915.8 794.2 L 902.4 755.7 L 887.4 750.1 L 863.2 755.7 L 831.5 770.9 L 793.1 760.5 L 761.4 736.3 L 731.1 727.4 L 710.1 697.6 L 686.9 655.7 L 670 660.7 L 650 650.3 L 638.3 662.6 Z" />

<path class="river" d="M 323.8 476 L 317.6 474.7 L 313.9 473.2 L 310.5 471.1 L 308.6 469.4 L 308.2 468.1 L 309 466.5 L 311 464.4 L 312 462.8 L 311.9 460.9" />
<path class="river" d="M 165.9 131.3 L 168 130.1 L 169.7 127.3 L 172.2 124.4 L 175.9 121.3 L 179.6 116.3 L 180.3 113 L 185.3 110.6 L 194.5 108.9 L 202.7 108.6 L 210.1 109.6 L 214.6 109.4 L 216.2 107.9 L 216.5 105.3 L 215.1 99.5 M 155 60.1 L 145.3 56 L 136.5 53.6 L 114 45.7 M 99.9 31.7 L 101.2 33.8 L 101.4 35.7 L 100.8 39.4 M 70.6 -6.6 L 69.7 3.2 L 69.7 8.1 L 70.8 12.9" />
<path class="river" d="M 330.2 383.3 L 331.7 381.3 L 329.4 374.9" />
<path class="river" d="M 1399.4 515 L 1401 522.9 L 1401.4 526.5 L 1401.1 528.3 L 1400 529.9 L 1397 531.9" />
<path class="river" d="M 225.1 618.6 L 226.4 611.2 L 227.5 607.7 L 229.4 604.8 M 230.6 569.2 L 229.9 574.8" />
<path class="river" d="M 1415.7 290.1 L 1404.1 289.7 L 1399 290.6 L 1395.3 293.6" />
<path class="river" d="M 1323.1 332.3 L 1321.9 334.3 L 1317.8 335.6 L 1306.5 337.4 M 1263.4 311.2 L 1254.5 310.5 L 1250.7 309.4 L 1249.2 307.9 L 1248.8 306.5 M 1052.9 156.7 L 1046.7 153.9" />
<path class="river" d="M 323.7 476 L 334.9 474.4 L 344.7 475.5 L 356.8 478.5 L 363.7 481.7 L 365.5 484.9 L 369.1 488.3 L 374.6 491.7 L 377.3 493.8 L 377 494.4 L 378.2 495.2 L 380.8 496.1 L 382.3 497.9 L 382.7 500.7 L 383.9 502.6 L 385.8 503.8 L 387.3 505.7 L 388.5 508.3 L 391.3 510.9 L 395.8 513.7 L 398.1 516.3 L 398.2 518.7 L 398.7 520.2 L 400.2 521.1 M 306.9 445.4 L 307.9 448.4 L 309.3 449.9 L 311.6 450.9 L 313.4 452.3 L 314.7 454.2 L 314.5 456.6 L 311.9 460.9" />
<path class="river" d="M 1255.7 439.6 L 1251.2 441.9 L 1247.7 441.2 L 1243.9 438.3 L 1241.7 435.9 L 1241.3 434 L 1239.6 433.1 L 1236.7 433.3 L 1234.8 432.9 L 1233.9 431.9 L 1231.5 432.2 L 1227.7 433.7 L 1223.8 432.9 L 1219.8 429.8 L 1212.2 428.6 L 1201 429.4 L 1189.6 427.2 L 1178 422 L 1169.9 418.9 L 1165.4 417.9 L 1161.7 415.2 L 1158.9 410.8 L 1151.9 406.1 L 1140.6 401.1 L 1131.9 395.3 L 1125.7 388.7 L 1121.9 383.7 L 1120.3 380.4 L 1114.7 375.9 L 1104.9 370.1 L 1098.1 367 L 1094.5 366.6 L 1092.4 364.8 L 1091.9 361.7 L 1088.7 358.3 L 1082.8 354.7 L 1078.5 350.9 L 1074.4 344.8 L 1072.3 335.5 L 1069.8 331.3 L 1066.4 329 L 1063.5 324.5 L 1061 317.9 L 1059 313.6 L 1057.4 311.6 L 1054.2 309.4 L 1049.3 307 L 1044.7 305.9 L 1040.3 306 L 1037.3 305.1 L 1035.8 303.2 L 1030 299.2 L 1019.9 293.2 L 1014.2 288.6 L 1012.8 285.7 L 1010.8 283.8 L 1008.4 283.1 L 1006.8 281.8 L 1006 280 L 1004 278 L 1000.8 275.8 L 996 274 L 989.6 272.4 L 984.6 270 L 981.1 266.9 L 978.3 265.1 L 976.3 264.5 L 975.6 263.2 L 976.2 261.2 L 975.5 259.7 L 973.6 258.8 L 972.8 257.7 L 973.2 256.4 L 972.6 254.7 L 971.1 252.8 L 970.6 250.9 L 971 249 L 970.6 246.9 L 969.4 244.5 L 969.1 242.6 L 969.2 242.4 M 969.3 242.5 L 969.2 242.4 M 969.2 242.4 L 969.7 241.4 L 969.3 239.8 L 967.8 237.7 L 967.3 236 L 967.7 234.9 L 969.5 234 L 972.6 233.4 L 974.2 231.8 L 974.4 229.2 L 972.8 226.4 L 969.6 223.4 L 968.7 221.2 L 970.4 219.7 L 974.2 218.2 L 983.2 215.6 M 969.2 242.4 L 966.3 238.4 L 966 235.2 L 967.2 231.5 L 966.8 228.7 L 964.7 226.8 L 960.9 225.3 L 955.4 224.3 L 952.7 221.9 L 952.8 218.1 L 950.8 213.9 L 944.7 206.9" />
<path class="river" d="M 1379.2 623.1 L 1379.2 625.2 L 1378 627.4 L 1374.6 631.7 L 1367.6 641 L 1364.7 642 L 1361.5 644.3 L 1357 648.3 L 1353.3 653.8 L 1350.3 660.7 L 1348.8 665.7 L 1348.8 668.6 L 1347.5 671.3 L 1344.9 673.8 L 1343.9 675.9 L 1344.5 677.5 L 1344.5 679.4 L 1343.8 681.5 L 1343 683.1 L 1342 684.3 L 1340.6 684.8 L 1338.9 684.7 L 1337 686.1 L 1334.9 689.1 L 1333.4 690.6 L 1331.2 691 M 1545.7 588.2 L 1536.2 583.1 L 1530.1 578.8 L 1524.6 576.3 L 1517.9 574.3 L 1514.3 571 L 1513.8 566.4 L 1511.2 562.2 L 1506.2 558.4 L 1501.2 555.8 L 1495.9 554.6 L 1493 554.3 L 1492.2 555.1 L 1492.5 556.4 L 1493.8 558.3 L 1494.3 559.7 L 1493.9 560.6 L 1490.4 561.2 L 1483.8 561.5 L 1478.8 560.5 L 1475.3 558.4 L 1472.9 558.3 L 1471.6 560 L 1469.1 560.7 L 1465.3 560.2 L 1463.1 562.1 L 1462.5 566.6 L 1456 572.6 L 1443.6 580.4 L 1432.8 585.8 L 1423.5 588.8 L 1416.8 592.8 L 1410.6 600.5 L 1405.4 605 L 1401.6 606.9 L 1397.5 607.6 L 1393.1 609.3 L 1388.5 612.1 L 1385.3 614.5 L 1383.6 616.4 L 1382.6 618.5 L 1382.3 620.8 L 1381.4 622.2 L 1379.2 623.1" />
<path class="river" d="M 357.8 395.8 L 369.6 397.9 L 369.7 399.2 L 371.1 400.4 L 373.7 401.8 L 374.6 403.2 L 373.8 404.6 L 374.4 405.5 L 376.4 406 L 377.2 408.1 L 376.9 411.9 L 382.4 414.1 L 399.4 415.1 L 405.3 416.5 L 411.7 416.9 L 420.5 416.8 L 425.6 418 L 426.8 420.4 L 427.2 422.8 L 426.8 425.2 L 428.1 426.4 L 431.2 426.6 L 434.8 427.9 L 438.9 430.2 L 441.7 433.1 L 443.7 438.3" />
<path class="river" d="M 135.7 138 L 137.8 137 L 146.9 134.8 L 151 133.5 L 156.4 133 L 160.2 132.7 L 163.1 132 L 165.9 131.3 M 215.1 99.5 L 215.9 95.4 L 215.5 93.3 L 214.2 92 L 214.6 91.1 L 216.5 90.8 L 217.6 89.8 L 217.9 88.3 L 217.1 85.7 L 215.4 82.1 L 210.5 79.5 L 206.1 79.1 L 202.6 77.9 L 193.3 74.4 L 187.5 71.4 L 182.4 69.1 L 171.5 64.9 L 164.9 62.8 L 160.4 61 L 155 60.1 M 114 45.7 L 107.8 43.1 L 100.6 39.3 M 99.9 31.7 L 93.8 32.3 L 88.3 30.9 L 81.5 27.7 L 76.9 24.7 L 74.3 21.9 L 72.5 18.6 L 70.8 12.9 M 161.2 -122.9 L 152.4 -125.1 L 148.3 -125.5 L 145.9 -125.1 L 143.4 -124.2 L 140.7 -122.9 L 139.1 -121.4 L 138.6 -119.9 L 136.7 -118 L 133.6 -115.9 L 129.5 -115.9 L 124.5 -118.1 L 117.7 -118.5 L 104.9 -116.3 L 85.3 -114.7 L 77.2 -113.3 L 74.2 -111.8 L 72 -111.2 L 70.6 -111.5 L 69.2 -110.9 L 67.6 -109.6 L 66 -107.4 L 64.2 -104.3 L 64.7 -99.9 L 67.4 -94.1 L 67.4 -90.9 L 64.8 -90.3 L 63.3 -87.8 L 62.9 -83.6 L 63.6 -79.1 L 66.3 -72 L 63.4 -70.5 L 62.8 -69.1 L 63.6 -67.3 L 62.6 -66.4 L 59.7 -66.5 L 57.5 -65.8 L 55.8 -64.2 L 55.7 -61.2 L 57.2 -56.6 L 59.2 -53.5 L 61.6 -51.9 L 62.8 -50.3 L 62.6 -48.6 L 63.4 -47.1 L 65.4 -45.7 L 66.1 -44.7 L 65.7 -44.1 L 67.1 -43.1 L 70.5 -41.9 L 71.8 -40.8 L 71.2 -39.8 L 73 -37.4 L 77.4 -33.7 L 79.7 -31.1 L 80 -29.5 L 79 -27.9 L 76.6 -26.3 L 74.3 -23.8 L 72 -20.5 L 71.9 -16.9 L 73.9 -13.2 L 73.9 -10.1 L 70.6 -6.6" />
<path class="river" d="M 540.7 619.3 L 543.1 621.7 L 547.7 623.1 L 555.1 624.3 L 561.4 626.2 L 569 630 L 572.8 631.9 L 575.8 632 L 579.3 630.7 L 585.4 630.2 L 594 630.3 L 599.4 629.9 L 601.6 628.9 L 602.9 628.7 L 603.7 629.9 M 400.2 521.1 L 404.1 522.4 L 406 522.2 L 407 521 L 409.1 520.7 L 412.3 521 L 413.9 520.9 L 414.5 520.7 L 415.2 520.5 L 416.2 520.9 L 419 520.5 L 422.9 518.9 L 426.4 518.6 L 429.4 519.4 L 431.5 520.5 L 433.6 523 L 435.7 525.1 L 437.2 525.5 L 438.7 525 L 439.6 525.2 L 440.1 525.5 L 440.8 525.4 L 441.4 524.1 L 442.2 523.7 L 443.3 524.2 L 443.4 525.1 L 442.2 526.3 L 442.3 527.3 L 443.4 528.1 L 443.9 529.4 L 443.6 531 L 445 532.7 L 445.9 533.3 L 447.9 534.6 L 449.2 536.3 L 448.9 538.1 L 449.5 538.6 L 451.2 538 L 453 538 L 454.8 538.8 L 455.3 540.2 L 454.6 542.4 L 456 544.9 L 459.4 547.9 L 462.2 549.6 L 464.3 550.2 L 465.8 550.1 L 466.6 549.5 L 468.2 549.8 L 470.4 551.2 L 472.3 551.7 L 473.8 551.4 L 477.6 552.1 L 480.1 552.9 L 483.7 553.9 L 487.7 556.2 L 489.4 558.9 L 490.7 559.8 L 491.7 559.8 L 493.1 559.9 L 495.6 561 L 498.5 564.3 L 502.7 571.4 L 503 572.5 L 503 574.6 L 502.1 577.8 L 502.7 581.8 L 504.8 586.5 L 505.9 590 L 505.9 592.5 L 506.9 595.2 L 508.8 598 L 509.7 601.3 L 509.6 604.9 L 511.9 608.5 L 518.9 613.8 L 527.5 615 L 531.1 616.2 L 532.7 617.8 L 535.3 618.8 L 540.8 619.3" />
<path class="river" d="M 330.2 383.3 L 323.5 384.7 L 320.3 386.4 L 318.1 388.9 L 317.3 390.6 L 317.7 391.5 L 320.3 392.9 L 325.3 394.7 L 328.7 395.5 L 330.6 395.2 L 332.7 395.9 L 335 397.6 L 337.4 398.4 L 339.9 398.1 L 341.2 399.2 L 341.2 401.6 L 342.2 402.9 L 344.4 403.1 L 345.3 404 L 345.1 405.6 L 342.9 407.8 L 338.9 410.5 L 336.9 412.4 L 336.9 413.6 L 336.2 414.5 L 335.9 415.2 L 335.1 416.8 L 332.6 417.9 L 332.2 418.6 L 332.5 419.4 L 331.7 420 L 328.2 420.4 L 325.2 421.6 L 322.9 423.6 L 319.9 424.7 L 316.4 425.1 L 314 425.8 L 312.6 426.8 L 310.4 427 L 307.3 426.5 L 305.1 426.9 L 303.6 428.2 L 301.5 431.1 L 301.3 433.4 L 301.8 436.6 L 302.9 438.3 L 304.6 438.6 L 305.8 440.4 L 306.9 445.4 M 414.7 340.3 L 410.7 345.5 L 399.9 347.7 L 393.2 348.2 L 386.9 347.7 L 381.4 347.8 L 376.9 348.5 L 374.3 349.3 L 373.7 350.1 L 374.3 351.5 L 376.2 353.5 L 376.5 355.6 L 375.3 357.7 L 374.1 359 L 372.8 359.6 L 367.1 358.7 L 356.8 356.5 L 350.6 355.9 L 348.3 357 L 343.7 358 L 336.8 358.7 L 329.4 360.5 L 321.4 363.4 L 319.5 366.6 L 323.6 370.2 L 326.3 372.1 L 327.8 372.1 L 328.7 372.9 L 329.4 374.9" />
<path class="river" d="M 551.6 581.6 L 554.4 583.9 L 555.3 585.6 L 555.1 587.5 L 555.8 589.1 L 557.2 590.5 L 557.5 593.3 L 556.6 597.3 L 557.1 599.9 L 559 601.1 L 560.4 604.6 L 561.2 610.3 L 562.4 614.5 L 564 617.3 L 566.2 620 L 569.2 622.5 L 570.3 625.3 L 569.1 630" />
<path class="river" d="M 1048 622.4 L 1052.7 628.4 L 1054.7 635.1 L 1055.5 644.4 L 1061.4 650.6 L 1072.5 653.5 L 1082 654.3 L 1089.9 652.8 L 1098 649.5 L 1106.3 644.5 L 1112.8 642.4 L 1117.4 643.2 L 1120.4 643.4 L 1121.7 642.8 L 1123.4 640.9 L 1125.4 637.7 L 1127.1 632.9 L 1128.6 626.5 L 1130.8 621.3 L 1133.7 617.4 L 1135 613.5 L 1134.8 610.7 L 1135.6 608.2 L 1137.6 606 L 1143.5 602.2 L 1148.5 597.5 L 1152.6 591.7 L 1156.8 588.4 L 1160.9 587.3 L 1165.2 582.2 L 1169.7 572.9 L 1174.3 567.1 L 1181.3 564 L 1184.2 562.2 L 1186.7 559.7 L 1189.8 555.7 L 1192.3 553.6 L 1194.2 553.4 L 1195.9 552.1 L 1197.4 550 L 1200.4 547.6 L 1205 545 L 1209.1 543.5 L 1212.6 543 L 1216.4 541.1 L 1220.3 537.8 L 1223 536.1 L 1224.4 536 L 1225 534.9 L 1224.6 532.8 L 1224.8 531.1 L 1226 529.6 L 1233.3 525 L 1240.7 522.2 L 1255.7 518.4 L 1258.7 519.1 L 1260.9 518.6 L 1264.5 516.6" />
<path class="river" d="M 1244.7 852 L 1246.7 848.9 M 1237.9 851.4 L 1240 850.3 L 1240.1 848.9 L 1240.1 846.8 M 1246.7 848.9 L 1249.1 848.7 L 1249.6 849.2 L 1249.8 851 L 1250.4 852.3 L 1250.2 853.7 M 1246.7 848.9 L 1246.7 847.1 L 1242.8 847.1 L 1241.5 847.2 L 1240.1 846.8 M 1240.1 846.8 L 1238.4 845.6 M 1617.9 583.5 L 1608.3 574 M 1608.6 574.2 L 1605.5 569.8 L 1601.7 566.1 L 1596.2 561.8 L 1591.9 560.1 L 1588.8 560.8 L 1583.5 559.5 L 1571.1 553.5 L 1569.2 552 L 1568.2 550.5 L 1568.1 549 L 1565.8 546.5 L 1561.2 543.2 L 1556.9 539.1 L 1552.7 534.2 L 1548.6 531.2 L 1542.6 529.5 L 1530.9 525.5 L 1525.1 522.4 L 1521.3 518.9 L 1517.2 516.3 L 1512.7 514.5 L 1509.5 512.3 L 1507.5 509.8 L 1506.7 507.5 L 1507.1 505.5 L 1505 502.9 L 1500.4 499.6 L 1497.4 496.6 L 1496.2 493.8 L 1494 492.6 L 1490.7 493.1 L 1486.9 491.9 L 1482.6 489.2 L 1480.2 487.1 L 1479.6 485.5 L 1477.4 484.6 L 1473.7 484.4 L 1469.1 483.3 L 1463.8 481.3 L 1460.9 479.5 L 1460.6 477.6 L 1459.7 476.9 L 1458.2 477.2 L 1457.5 479.6 L 1457.5 484.3 L 1455.7 487.4 L 1452.1 489.1 L 1448.4 490.1 L 1444.6 490.3 L 1439.5 489.4 L 1433.2 487.5 L 1426.5 486.4 L 1419.5 486.2 L 1415.7 488.3 L 1415 492.8 L 1411.7 496.7 L 1405.8 500.2 L 1402.6 503 L 1402.2 505 L 1402.9 506.7 L 1404.8 508 L 1404.5 509.1 L 1402 510.2 L 1400.4 511.7 L 1399.4 515 M 1397 531.9 L 1395.3 533.6 L 1393.4 534.1 L 1390.8 534 L 1387.7 534.6 L 1384.1 535.9 L 1382.3 537.9 L 1382.2 540.6 L 1381 541.7 L 1378.7 541.4 L 1377 541.5 L 1376 542.2 L 1374.4 545.1 L 1372.1 550.2 L 1369.7 553.2 L 1367.3 554.3 L 1366.1 557.4 L 1366 562.5 L 1363.8 566.2 L 1359.6 568.4 L 1356.7 571.1 L 1354.5 575.8 L 1354.2 582.2 L 1351.9 587.7 L 1345.6 597.5 L 1339 611 L 1337.1 619.4 L 1338 631.4 L 1336.1 634.8 L 1336.3 637.8 L 1337.8 641.4 L 1338 645 L 1336.8 648.6 L 1336.8 653.6 L 1337.9 660.2 L 1336.8 665.8 L 1333.5 670.5 L 1332.6 674.4 L 1333.9 677.6 L 1334 680.6 L 1332.9 683.5 L 1332.4 686.2 L 1332.6 688.7 L 1331.2 691 L 1328.1 693.2 L 1325.9 694.4 L 1324.4 694.4 L 1321 696.9 L 1315.5 701.9 L 1310.7 705.1 L 1306.6 706.5 L 1303 709.2 L 1300 713.3 L 1297.3 715.4 L 1294.9 715.7 L 1293.4 716.5 L 1292.7 717.7 L 1291.7 718.2 L 1290.3 718 L 1288.3 718.7 L 1285.9 720.5 L 1283.9 721.3 L 1282.4 721.2 L 1281.3 721.9 L 1280.8 723.3 L 1279.9 723.9 L 1278.7 723.8 L 1278.3 724.6 L 1278.7 726.4 L 1278.2 727.8 L 1276.8 728.7 L 1276.9 729.7 L 1278.4 730.7 L 1278.9 731.4 L 1278.6 732 L 1275 733.3 L 1273 732.7 L 1271.2 730.7 L 1270.1 730.4 L 1269.6 731.6 L 1267.1 733 L 1262.5 734.4 L 1259.7 735.7 L 1258.7 736.6 L 1258.5 738.5 L 1259.1 741.4 L 1258.4 742.9 L 1256.6 743.1 L 1255.2 743.8 L 1254.2 745.2 L 1254.1 746.3 L 1255 747.3 L 1254.6 748.1 L 1252.9 748.5 L 1252.2 749.5 L 1252.5 750.9 L 1251.1 752.6 L 1247.9 754.7 L 1246.3 757.4 L 1246.1 762.7 L 1245.6 770.7 L 1245.9 774.4 L 1246.7 776.5 L 1248.5 778.4 L 1251.2 780 L 1252.7 781.6 L 1253.1 783.3 L 1255.4 786.1 L 1259.5 790 L 1261 792.5 L 1259.8 793.4 L 1260 794.6 L 1261.7 796 L 1261.6 798 L 1259.8 800.5 L 1259.2 803.5 L 1259.8 807 L 1259.7 809.2 L 1258.9 810.4 L 1259.1 811.4 L 1260.2 812.5 L 1260.1 813.1 L 1258.9 813.3 L 1258.1 814.7 L 1257.5 817.2 L 1256.8 818.1 L 1255.8 817.6 L 1254.8 818.3 L 1253.9 820.4 L 1252.7 821.5 L 1251.2 821.6 L 1249.8 825 L 1248.6 831.8 L 1247 835.4 L 1245.1 835.8 L 1244.4 836.5 L 1244.8 837.5 L 1244.3 838.1 L 1243 838.2 L 1242.7 838.9 L 1243.4 840 L 1242.4 841.4 L 1239.7 842.9 L 1238.4 844.3 L 1238.3 845.6 L 1237.3 846.4 L 1234.4 847 L 1231.9 847.6" />
<path class="river" d="M 225.1 618.7 L 224.4 621.6 M 229.9 574.8 L 229.1 585 L 229.8 590 L 228.6 594.2 L 228.5 597.9 L 229.4 604.8 M 239 547.3 L 233.7 552.5 L 231.3 558.3 L 230.5 562.5 L 230.6 569.2" />
<path class="river" d="M 1395.3 293.6 L 1385.8 298.9 L 1381.8 302.7 L 1380.2 306.8 L 1376.5 310.9 L 1370.7 314.9 L 1362.1 317.5 L 1350.7 318.6 L 1346.5 319.5 L 1345.3 320.1 L 1344.2 320.6 L 1342.3 321 L 1339.1 322.2 L 1333.9 325.2 L 1323.1 332.3 M 1555.1 286.9 L 1562.7 287.2 L 1564 288.3 L 1560.3 291 L 1555.9 294.9 L 1553.1 296.7 L 1550.4 297.7 L 1540.7 298.3 L 1524.1 298.5 L 1512.7 299.1 L 1503.4 300.4 L 1496.8 300.1 L 1492.6 300.7 L 1488.5 302 L 1484.1 302.1 L 1479.5 301 L 1471.2 300.5 L 1459.2 300.6 L 1451.4 301.2 L 1447.6 302.3 L 1443.3 302 L 1438.4 300.2 L 1436 298.2 L 1435.8 296 L 1435.2 294.1 L 1434.1 292.7 L 1431.3 291.3 L 1426.8 289.9 L 1422.3 289.5 L 1415.6 290.2" />
<path class="river" d="M 1425.2 426.3 L 1421.4 425.4 L 1418.3 425.7 L 1412.9 427.4 L 1402.9 431.9 L 1398.6 434.8 L 1395.5 439.4" />
<path class="river" d="M 1395.5 439.4 L 1386.1 440.8 L 1379.6 443.4 L 1373 447.6 L 1368.6 449.9 L 1366.4 450.2 L 1364.3 449.8 L 1362.1 448.7 L 1360.1 445.1 L 1357 436.3 L 1359.2 421.3 L 1360.5 415.3 L 1361.6 413.1 L 1361.7 411.7 L 1360.7 410.9 L 1358.7 411 L 1355.6 411.8 L 1353.4 411.9 L 1352.1 411.4 L 1352.3 408.6 L 1353.8 403.5 L 1351.4 399.2 L 1345 395.7 L 1339.6 394.5 L 1335.1 395.6 L 1331.3 398.3 L 1328.2 402.8 L 1325.1 406.5 L 1321.8 409.3 L 1319.4 410.7 L 1318.7 411.2 L 1318.2 412.4 L 1319.9 416.2 L 1319.8 419.4 L 1317.9 422 L 1315.7 423.2 L 1313.3 423.1 L 1311.5 422.5 L 1310.1 421.4 L 1306.3 421.1 L 1300.2 421.6 L 1296 422.9 L 1293.7 425 L 1293.1 427.7 L 1294 431.1 L 1293.5 433.7 L 1291.6 435.6 L 1290.1 436.6 L 1288.8 436.9 L 1286.2 435.3 L 1282.1 431.9 L 1279.3 430.1 L 1277.7 429.8 L 1276.9 430 L 1276 430.3 L 1275.4 430.8 L 1275 431.8 L 1273.7 432.2 L 1271.8 431.9 L 1270.1 432.2 L 1269.1 433.2 L 1266.3 434.5 L 1261.2 436 L 1258.5 437.5 L 1258 439.1 L 1257.3 439.9 L 1255.7 439.6" />
<path class="river" d="M 603.7 629.9 L 607.3 634.2 L 609.3 636 L 611 636.6 L 612.1 638.2 L 612.5 640.7 L 613.7 642.7 L 615.5 644.2 L 618.5 645.3 L 622.5 645.9 L 625.1 647.2 L 626.2 649.1 L 627.5 650.2 L 629.2 650.4 L 630.8 651.3 L 632.5 653.1 L 633 654.4 L 632.6 655.3 L 633 656.9 L 634.1 659.1 L 635.5 660.2 L 637.6 661.5" />
<path class="river" d="M 1669.5 636.5 L 1666.9 635.4 M 1664 633.5 L 1653.7 627.2 L 1649.2 625.1 L 1646 625.1 L 1643 626.8 L 1641.2 627.2 L 1639.4 626.9 L 1635.5 625 L 1629.6 621.5 L 1625.6 618.3 L 1623.6 615.5 L 1619.8 613.8 L 1614.2 613.1 L 1609.1 611.6 L 1604.7 609 L 1600.2 607.8 L 1595.5 608 L 1592.4 607 L 1590.7 604.7 L 1588.9 603.2 L 1586.9 602.6 L 1583.9 603.6 L 1579.8 606.3 L 1577.6 608.2 L 1577.4 609.4 L 1576.1 610 L 1573.8 610 L 1572.3 610.6 L 1571.8 611.9 L 1568.2 612.2 L 1561.4 611.5 L 1555.7 612.8 L 1551.2 616.1 L 1547.5 617.7 L 1544.9 617.6 L 1543.1 618.2 L 1542.1 619.5 L 1540.5 620.5 L 1538.1 621 L 1534.8 620.3 L 1530.4 618.3 L 1528.3 616.9 L 1528.3 616.2 L 1527.4 615.9 L 1524.6 616 M 1514.2 615.6 L 1512.6 616.1 L 1512.1 616.7 L 1512.3 617.7 L 1517.3 624.4 L 1518.3 627.2 L 1517.1 628.8 L 1511.8 629.2 L 1502.7 628.5 L 1494 628.5 L 1485.7 629 L 1478.7 627.8 L 1473 624.7 L 1468.6 623.3 L 1465.5 623.7 L 1460.5 626 L 1453.7 630.1 L 1449.6 632.2 L 1448.3 632.2 L 1444.4 636.1 L 1437.9 644 L 1431.6 648.9 L 1422.1 651.9 L 1418.2 653.1 L 1416.5 654.2 L 1415.5 655.6 L 1414.7 655.9 L 1413.9 655.3 L 1411.2 656.4 L 1406.5 659.4 L 1401.8 661.6 L 1397.1 663 L 1394.6 664.2 L 1394.4 665.2 L 1392.2 665.7 L 1388.2 665.5 L 1384.5 666.8 L 1381.1 669.6 L 1379.6 671.6 L 1379.9 672.9 L 1378.6 674.2 L 1375.7 675.6 L 1371.8 676.4 L 1366.8 676.7 L 1363.8 677.5 L 1362.7 678.9 L 1361.1 679.7 L 1359.1 680 L 1356.5 679.7 L 1353.4 678.7 L 1349.9 678.7 L 1343.8 681.5" />
<path class="river" d="M 1306.5 337.4 L 1302 336.5 L 1298.2 337 L 1293.5 338.6 L 1289.9 338.9 L 1287.4 337.8 L 1285.3 335.4 L 1283.7 331.5 L 1283.2 329 L 1283.4 327.8 L 1283.1 327.2 L 1281.1 325.3 L 1274.7 320.9 L 1271.1 317.7 L 1270.3 315.7 L 1268.2 313.8 L 1263.4 311.2 M 1248.8 306.5 L 1249.3 305.6 L 1251.2 304 L 1251.8 300 L 1250.7 293.9 L 1251.2 288.3 L 1253.3 283.4 L 1254.9 280.6 L 1255.4 280 L 1255.6 279 L 1255.1 278.4 L 1255 277.4 L 1257.1 275.7 L 1258 273.6 L 1257.8 271.3 L 1257 269.2 L 1255.7 267.4 L 1255.6 265.7 L 1256.7 264.2 L 1257.1 262.3 L 1256.8 260 L 1256.3 258.9 L 1256.1 258.2 L 1255.4 257.2 L 1253.3 255.9 L 1252.8 254.6 L 1253.1 253.4 L 1251.9 252 L 1246.8 250.7 L 1244 247.9 L 1243.3 243.5 L 1242.4 241 L 1241.2 240.2 L 1240.3 240.4 L 1239.4 241.3 L 1238.4 240.9 L 1237.9 239.5 L 1236.6 238.5 L 1234.9 238.5 L 1233.8 237.2 L 1233.5 234.9 L 1231.6 231.8 L 1228.1 228.1 L 1225.8 226.2 L 1224.6 226.2 L 1223.8 225.3 L 1223.2 223.6 L 1221 221.9 L 1217.2 220.2 L 1214.5 220 L 1212.9 221.3 L 1210.4 221.5 L 1207.1 220.7 L 1205.1 220.6 L 1203.8 220 L 1203 217 L 1201.7 215.5 L 1200.1 215.3 L 1199.4 214.6 L 1199.5 213.4 L 1198.2 211.8 L 1195.6 209.9 L 1194.5 208.6 L 1192.1 206.9 L 1186.8 205.9 L 1185.4 204.2 L 1184.9 203.3 L 1183.6 201.9 L 1181 200.1 L 1179.7 198.6 L 1179.6 197.5 L 1178 196.7 L 1174.1 196.5 L 1170.3 194.6 L 1166.4 191.1 L 1162 189 L 1157 188.4 L 1153.6 188.4 L 1151.8 189.2 L 1148 188.7 L 1142.3 187.2 L 1138 185.3 L 1135.1 182.9 L 1133.9 181.5 L 1133.4 180.3 L 1131.5 180 L 1130.3 178.7 L 1129.6 176.5 L 1126.9 174.8 L 1122.2 173.7 L 1119.7 172.8 L 1119.2 171.9 L 1119.5 171 L 1120.4 170.1 L 1119.4 169 L 1116.5 167.5 L 1115.5 166.4 L 1113.9 166.2 L 1102.5 168.9 L 1095.8 168.9 L 1092.1 166.8 L 1088.8 166.2 L 1085.9 167.1 L 1083.5 167.1 L 1081.6 166.2 L 1080.4 165 L 1079.8 163.4 L 1078.3 163.3 L 1075.7 164.5 L 1072.3 165 L 1068.2 164.6 L 1064.5 165.2 L 1061.1 166.9 L 1057.2 166.7 L 1052.9 164.4 L 1051.1 162.6 L 1051.8 161.3 L 1053 160.4 L 1054.7 160 L 1054.9 159 L 1052.9 156.7 M 1046.7 153.9 L 1037.4 155.8 L 1032 155.6 L 1025.2 153.1" />
<path class="river" d="M 443.7 438.3 L 445.5 440.6 L 446.5 441.3 L 447.2 441.5 L 447.8 442.1 L 448 444.2 L 449.4 445.5 L 454.3 447 L 455.7 448 L 456.2 448.7 L 455.8 449.1 L 458.8 449.5 L 460 450 L 460.2 450.9 L 459.7 451.4 L 458.5 451.5 L 457.3 452.6 L 456.1 454.7 L 458.4 456.7 L 464.2 458.4 L 468.6 461.2 L 471.4 465.2 L 473.3 469.3 L 474.2 473.4 L 474.1 476.2 L 473 477.6 L 472.6 479.1 L 473.1 480.6 L 472.7 481.7 L 471.5 482.5 L 471.1 484.7 L 471.5 488.4 L 474.2 493.2 L 479.2 499.2 L 481.1 502.9 L 480.2 504.5 L 481.6 508.4 L 485.5 514.8 L 487.9 520.3 L 488.9 525.2 L 490.1 528.5 L 491.7 530.3 L 493.5 531.5 L 496.4 532.2 L 502 533 L 505 534 L 507.4 535.4 L 508.1 537.4 L 507.3 540.1 L 507.2 541.8 L 507.8 542.8 L 507.3 544.1 L 505.7 545.8 L 504.7 547.6 L 504.4 549.3 L 504.9 551.8 L 506.1 555.1 L 507.2 556.8 L 508.2 556.9 L 509.8 558.6 L 511.8 562 L 515.9 565.3 L 522.1 568.4 L 525.5 569.5 L 527 569.4 L 527.4 569.8 L 527.4 570.5 L 527.5 571.3 L 528.6 572.2 L 530.5 572.7 L 533.2 573 L 534.3 573.8 L 534.3 575 L 535.5 576.6 L 538.2 578.5 L 542.5 580 L 551.6 581.6 L 558.5 578 L 561.9 577.6 L 563.9 579 L 568.4 580.4 L 575.3 581.9 L 579.3 583.5 L 580.5 585.3 L 580.7 587.3 L 579.8 589.6 L 579.5 591.4 L 580 592.7 L 581.3 593.9 L 583.6 595 L 585.5 597 L 587.1 600 L 589.2 601.6 L 591.9 601.7 L 593.4 602.9 L 593.6 605.3 L 595.9 609.1 L 600.4 614.4 L 602.6 619.9 L 602.9 628.9" />
<path class="river" d="M 954.6 -21.6 L 954.5 -19.2 L 955.5 -17.4 L 957.5 -15.4 L 958.4 -13.1 L 958.1 -10.7 L 957.2 -8.8 L 955.4 -7.5 L 951.3 -6.1 L 945 -4.5 L 941.3 -3.1 L 940.4 -2 L 936.2 -1.9 L 928.5 -2.8 L 920.2 -4.9 L 911.1 -8.4 L 900.4 -10.9 L 887.9 -12.3 L 878.9 -14.6 L 873.4 -17.8 L 868 -20.1 L 862.7 -21.6 L 854.8 -22.9 L 844.2 -23.9 L 829.4 -22.6 L 810.5 -19 L 798.6 -17.4 L 793.7 -17.6 L 790.3 -17.1 L 788.6 -15.9 L 784.7 -15 L 778.8 -14.3 L 774.5 -14.4 L 771.9 -15.3 L 769 -15.4 L 765.8 -14.8 L 763.6 -13.7 L 762.3 -12 L 759.6 -11.8 L 755.6 -12.9 L 753.2 -13 L 752.4 -12.1 L 750.2 -11.8 L 746.5 -12.1 L 744.3 -11.7 L 743.5 -10.6 L 738.9 -8.8 L 730.4 -6.2 L 727.2 -4.4 L 726.2 -2.1 L 724.7 0.3 L 721.7 3.3 L 720.5 5.7 L 721 7.6 L 720.7 9.4 L 719.4 11 L 719 13 L 719.6 15.2 L 719.4 16.6 L 718.5 17.2 L 718.4 17.9 L 718.9 18.9 L 718.9 20.2 L 718.2 21.8 L 719.6 23.7 L 723.2 25.8 L 725.1 27.8 L 725.4 30.8 L 724.8 33.1 L 725.6 34.4 L 727.8 35.6 L 729.5 37.9 L 730.8 41.3 L 732.3 43.3 L 733.4 43.8 L 733.9 44.7 L 734.7 45.9 L 737 47.8 L 738 49 L 738.1 49.9 L 738.6 50.4 L 740.7 51.3 L 741.4 52 L 741.4 52.5 L 741.7 52.9 L 742.5 53.2 L 743.5 54.4 L 744.5 56.6 L 744.2 58.8 L 742.4 60.9 L 741.4 63.1 L 741.2 65.4 L 741.6 66.4 L 742.4 67.2 L 742.3 68.9 L 740 74.9 L 739.1 76.1 L 737.7 76.9 L 735.7 77.3 L 734.4 78.3 L 733.8 79.8 L 733.7 80.6 L 733.9 81.2 L 734.7 81.8 L 734.6 82.4 L 733.7 82.9 L 733.2 84.5 L 733.3 87.3 L 733.1 88.8 L 732.6 89.3 L 733 90.8 L 734.9 94 L 735.3 98.2 L 734.3 103.5 L 735.9 107.8 L 740 111.2 L 742.4 113.5 L 742.8 114.6 L 742.8 115.5 L 742.1 116.2 L 742.3 116.7 L 743.3 117.2 L 743.9 118.1 L 744.1 119.6 L 742.5 122.1 L 737.5 127.7 M 979.6 -110.4 L 975.8 -106.7 L 972.3 -104.3 L 971.3 -102.8 L 971.6 -101.5 L 970.9 -99.6 L 969.2 -97 L 969.4 -94.5 L 971.6 -91.9 L 972.2 -89.8 L 971.1 -88 L 971.5 -86.1 L 973.4 -84.2 L 974.2 -82.8 L 973.8 -81.8 L 971.9 -80.7 L 968.5 -79.3 L 966.9 -77.2 L 967.1 -74.4 L 968.3 -72.3 L 970.4 -71 L 970.3 -69.5 L 967.7 -67.8 L 965.4 -64.9 L 963.2 -60.6 L 963.2 -56.7 L 965.3 -53.1 L 966 -50.7 L 965.7 -50.1 L 965.9 -49.1 L 966.5 -48.4 L 968 -47.8 L 968.8 -47.3 L 968.7 -46 L 968.1 -44.4 L 961 -37.4" />
<path class="river" d="M 615.5 134.3 L 624 135.9 L 627.3 138.4 L 628.3 142.2 L 630.3 144.8 L 633.3 146.2 L 636.2 148.8 L 641.9 154.7 M 547 24.7 L 541.5 27.8 L 539.2 29.9 L 538 31.9 L 537.5 34.3 L 537.4 37 L 535.7 39.9 L 532.3 43.2 L 529.5 47 L 527.7 50.3 L 526.5 52.1 L 526 53.2 L 525.8 53.9 L 525.7 54.9 L 525.4 57 L 521.2 62.7 L 513.2 71.7 L 511.8 73.6 L 511.3 75.7 L 513.4 77.4 L 521.9 79.9 L 527.5 80.9 L 530.2 80.3 L 533.3 80.5 L 536.7 81.3 L 539.1 81.2 L 540.2 80 L 543.7 80.3 L 549.2 82 L 551.2 82.5 L 552.3 82.9 L 553.3 83.4 L 554.7 84.4 L 560 87.7 L 562.5 91.1 L 562.2 94.7 L 563.6 97.1 L 566.8 98.2 L 568.6 99.5 L 568.9 100.7 L 570.4 101.7 L 573.2 102.2 L 576.9 104.8 L 581.6 109.5 L 585.1 112 L 587.4 112.4 L 589.3 113.3 L 590.8 114.7 L 591.6 116 L 591.7 118 L 591.7 119.2 L 595.7 121.4 L 603.6 125 L 607.4 127.8 L 607.1 129.6 L 608.2 130.5 L 610.7 130.5 L 614.2 133.1 L 618.6 138.2 L 620.5 141.5 L 619.8 142.8 L 619.8 144.2 L 620.4 145.8 L 617.8 149.5 L 612.1 155.6 L 609.2 159.6 L 609 161.6 L 608.2 162.6 L 607.2 163.2 L 606.6 164 L 606.7 164.9 L 607.5 165.6 L 608.8 167 L 609.4 168.2 M 680.3 -77 L 684.6 -76.9 L 686.7 -75.4 L 688 -72.3 L 687.3 -70 L 684.8 -68.7 L 682 -68.5 L 678.8 -69.3 L 674.4 -69 L 668.9 -67.5 L 665.3 -67.4 L 663.5 -68.7 L 660.3 -69.5 L 655.6 -69.9 L 649.3 -69.2 L 641.4 -67.5 L 636.9 -65.9 L 635.9 -64.4 L 636.3 -62.5 L 638.1 -60.1 L 636.3 -56.9 L 630.9 -52.8 L 626 -47.1 L 621.5 -39.7 L 617.3 -35.1 L 613.4 -33.3 L 609.2 -32.6 L 604.9 -32.9 L 597.6 -30.6 L 592.6 -28.7 L 588.1 -25.9 L 584.1 -24.1 L 581.9 -23.3 M 476.9 -178.1 L 483.9 -172.5 L 489.6 -169.6 L 496.2 -167.5 L 500 -165.5 L 500.9 -163.6 L 502.8 -162.6 L 505.7 -162.3 L 508.9 -161.3 L 512.5 -159.6 L 519.1 -159.5 L 528.7 -161 L 535 -161.2 L 537.9 -160.1 L 540.1 -160.2 L 541.5 -161.4 L 543.7 -161.9 L 546.7 -161.7 L 549.3 -162.2 L 551.5 -163.2 L 553.6 -163.2 L 555.6 -162 L 558.4 -162.3 L 561.9 -164.2 L 566.8 -165.9 L 573 -167.5 L 578.9 -166.6 L 584.5 -163.4 L 594.2 -161.7 L 615.1 -161.5 L 616.9 -160.8 L 618.1 -159.2 L 619.5 -156.7 L 622.5 -154.6 L 627.1 -152.9 L 634.9 -151.4 L 645.9 -150.1 L 651.9 -147.3 L 653.7 -140.7 M 279.3 -180.6 L 287 -184 L 289.7 -186.3 L 289.9 -188.6 L 292.2 -191.7 L 298.6 -197.5 M 136.3 -196.2 L 138.9 -190.8 L 138.7 -188.7 L 139.3 -187.5 L 140.4 -186.6 L 144.3 -186.2 L 150.7 -186.3 L 157.8 -185.2 L 165.6 -183 L 170.2 -181 L 171.6 -179.2 L 174.6 -177.1 L 179 -174.7 L 179.7 -172.9 L 176.8 -171.8 L 175.5 -170.9 L 175.9 -170.2 L 181.9 -168.1 L 193.7 -164.6 L 201.4 -163.5 L 205 -164.7 L 207.5 -166 L 208.8 -167.5 L 209 -168.5 L 208.1 -169 L 208.4 -170 L 209.9 -171.4 L 210.4 -172.7 L 209.8 -174.1 L 211.9 -175.1 L 218.8 -176.2 L 222.3 -179 L 225.1 -180.3 L 228.3 -180.8 L 230.9 -181.8 L 232.9 -183.2 L 236.1 -184 L 240.4 -184.2 L 245.3 -183.5 L 250.9 -182 L 254.1 -180.8 L 255 -179.1 M 411.2 -203.9 L 422.9 -202.4 L 428.4 -202.5 L 431.5 -203.7 L 437.3 -203.6 L 449.9 -201.4 M 369.2 -206.2 L 364.4 -209.4 L 362.6 -211.2 L 362.4 -212.6 L 359.4 -214.5 L 353.8 -217 L 345.3 -219.5 L 328.2 -223.4 M 315.6 -206.3 L 320.1 -212.3 L 321.2 -215.8 L 319.8 -220.3" />
<g class="city"><circle cx="1402.3286487805817" cy="1003.9009595370367" r="5" /><text x="1414.3286487805817" y="1007.9009595370367">Mumbai</text></g>
<g class="city"><circle cx="1217.2640594321765" cy="821.484390662618" r="5" /><text x="1229.2640594321765" y="825.484390662618">Karachi</text></g>
<g class="city"><circle cx="728.0040398322733" cy="481.9574409320927" r="5" /><text x="740.0040398322733" y="485.9574409320927">Tehran</text></g>
<g class="city"><circle cx="1392.9687956746284" cy="879.3173577220163" r="5" /><text x="1404.9687956746284" y="883.3173577220163">Ahmedabad</text></g>
<g class="city"><circle cx="507.02213277615766" cy="555.2975749663506" r="5" /><text x="519.0221327761576" y="559.2975749663506">Baghdad</text></g>
<g class="city"><circle cx="580.2135620070726" cy="828.9476367439015" r="5" /><text x="592.2135620070726" y="832.9476367439015">Riyadh</text></g>
<g class="city"><circle cx="1401.1422478500851" cy="936.8400909177502" r="5" /><text x="1413.1422478500851" y="940.8400909177502">Surat</text></g>
<g class="city"><circle cx="1286.2023301226682" cy="518.2693559979025" r="5" /><text x="1298.2023301226682" y="522.2693559979025">Kabul</text></g>
<text class="map-title" x="80" y="105">Iran Physical Study Map</text>
<text class="map-subtitle" x="80" y="145">Landmark: Persepolis ruins | Study terrain and water systems</text>
  <text class="footer" x="80" y="1036">Made with Natural Earth. Free vector and raster map data @ naturalearthdata.com.</text>
</svg>
