<?xml version="1.0" encoding="UTF-8"?>
<svg xmlns="http://www.w3.org/2000/svg" width="1600" height="1100" viewBox="0 0 1600 1100" role="img" aria-labelledby="title desc">
  <title id="title">Italy Political Study Map</title>
  <desc id="desc">Made with Natural Earth. Free vector and raster map data @ naturalearthdata.com.</desc>
  <defs>
    <linearGradient id="terrain" x1="0" x2="1" y1="0" y2="1">
      <stop offset="0%" stop-color="#6c8c53" />
      <stop offset="42%" stop-color="#d5c487" />
      <stop offset="72%" stop-color="#b88b5f" />
      <stop offset="100%" stop-color="#f1f5ee" />
    </linearGradient>
    <filter id="softShadow" x="-10%" y="-10%" width="120%" height="120%">
      <feDropShadow dx="0" dy="10" stdDeviation="12" flood-color="#0f172a" flood-opacity="0.16" />
    </filter>
    <style>
      .neighbor { fill: #ffffff; stroke: #94a3b8; stroke-width: 1.2; opacity: 0.72; }
      .country { fill: #f7f1df; stroke: #1f2937; stroke-width: 4; filter: url(#softShadow); }
      .admin1 { fill: none; stroke: #64748b; stroke-width: 1.1; stroke-dasharray: 6 7; opacity: 0.75; }
      .river { fill: none; stroke: #1d9bd1; stroke-width: 3; stroke-linecap: round; opacity: 0.88; }
      .lake { fill: #8ed1ea; stroke: #0ea5e9; stroke-width: 1.5; opacity: 0.8; }
      .city circle { fill: #ef4444; stroke: #ffffff; stroke-width: 2; }
      .city text, .terrain-label { fill: #172033; font: 700 24px system-ui, sans-serif; paint-order: stroke; stroke: #ffffff; stroke-width: 5; stroke-linejoin: round; }
      .map-title { fill: #0f172a; font: 800 46px system-ui, sans-serif; }
      .map-subtitle { fill: #475569; font: 600 24px system-ui, sans-serif; }
      .footer { fill: #64748b; font: 500 18px system-ui, sans-serif; }
    </style>
  </defs>
  <rect width="100%" height="100%" fill="#eaf3f8" />
  <rect x="40" y="40" width="1520" height="1020" rx="32" fill="#ffffff" opacity="0.54" />
  <path class="neighbor" d="M 8080.4 -696.2 L 8136.3 -714.4 L 8136.3 -684.5 L 8088.2 -682.2 L 8080.4 -696.2 Z M 2399.1 386.4 L 2379.2 412.4 L 2336.7 419.6 L 2293.1 464.8 L 2332.9 506.4 L 2328.6 536 L 2376.5 587.6 L 2376.5 587.6 L 2350.3 605.2 L 2342.8 616.4 L 2323.4 613.4 L 2293.3 586.8 L 2281 585.3 L 2253.4 575.1 L 2240 557.2 L 2199.1 548 L 2172.5 554.9 L 2164.9 546.7 L 2105.2 525.7 L 2040.7 518.6 L 2003.6 511.1 L 1998.3 516.3 L 1942.4 479.3 L 1892.4 462.7 L 1854.5 437 L 1886.4 430 L 1922.8 393.3 L 1898.3 376 L 1962.9 358.1 L 1961.7 348.5 L 1922.4 355.6 L 1923.8 336.1 L 1946.4 323.9 L 1988.8 320.7 L 1995.7 306 L 1986 281.9 L 2003.8 258.9 L 2003.3 246.1 L 1938.7 231.8 L 1913.1 232.3 L 1886 211.7 L 1852.4 218.7 L 1796.7 203.3 L 1797.7 194.7 L 1782.1 175.6 L 1747.1 173.5 L 1743.5 159.9 L 1754.4 151 L 1726.4 126.2 L 1681 130.5 L 1667.7 128.3 L 1656.6 138.2 L 1640.2 136.5 L 1640.2 136.5 L 1629.5 108.4 L 1619.2 93.8 L 1627.6 89.7 L 1663 91.3 L 1680 81.7 L 1667.4 70 L 1637.8 62.3 L 1640.5 54.4 L 1622.6 46.4 L 1595.2 17.7 L 1604.6 5.9 L 1600.3 -14.7 L 1557.4 -25.2 L 1534.4 -19.9 L 1528.2 -30.8 L 1482 -41.8 L 1468 -67.7 L 1464.2 -88.9 L 1443.1 -99 L 1461.9 -112.9 L 1448.9 -153.8 L 1480.1 -179.1 L 1473.5 -186.7 L 1473.5 -186.7 L 1523.3 -210.9 L 1477.4 -231.8 L 1477.4 -231.8 L 1571.2 -287.7 L 1611.9 -313.1 L 1628.4 -335.4 L 1563.5 -365.4 L 1581.4 -394 L 1542 -426.6 L 1571.5 -464.2 L 1520.5 -514.1 L 1561 -547.1 L 1493.8 -576.3 L 1500.2 -607 L 1535.6 -611.1 L 1610.2 -628.6 L 1610.2 -628.6 L 1655.4 -643.9 L 1727.4 -617.4 L 1847.5 -607 L 2013.1 -557.4 L 2046.7 -536.6 L 2049.6 -507.4 L 2000.9 -484.4 L 1929.4 -472.7 L 1733.7 -506 L 1701.5 -500.4 L 1773 -468.3 L 1775.8 -448 L 1778.6 -403.2 L 1835.1 -389.8 L 1869.3 -378.4 L 1875 -399.7 L 1848.6 -418.5 L 1876.5 -435.1 L 1982.4 -407.9 L 2019.3 -418.5 L 1989.8 -450.6 L 2092 -493.6 L 2132.4 -491 L 2173.4 -475.7 L 2198.9 -505.8 L 2162.3 -532 L 2183.8 -558.2 L 2151.6 -585.4 L 2274.2 -571.3 L 2299.2 -546.8 L 2243.7 -541.3 L 2244 -517 L 2278.5 -502 L 2346.2 -511.5 L 2357 -539.4 L 2448.5 -560.3 L 2601.5 -597.9 L 2634.5 -595.8 L 2591.3 -569.2 L 2645.7 -564.6 L 2677.1 -579.6 L 2759.2 -580.8 L 2824.3 -599 L 2874.3 -572.5 L 2924.1 -601.6 L 2878.1 -627 L 2900.9 -641.4 L 3030.4 -628.2 L 3091.1 -614.5 L 3249.9 -564.4 L 3279.2 -587.3 L 3234.7 -610.5 L 3233.4 -619.8 L 3180.6 -624.1 L 3195 -644.9 L 3171.6 -679.1 L 3170.2 -693.1 L 3251.1 -732.8 L 3279.9 -772.6 L 3312.5 -781.2 L 3428.5 -769.7 L 3437.7 -745.3 L 3396.1 -709.8 L 3423.4 -695.8 L 3437.5 -665.1 L 3427.5 -605.1 L 3475.9 -578.2 L 3457.1 -549 L 3371.2 -486.7 L 3421.3 -480.3 L 3438.7 -496 L 3487 -507.3 L 3498.6 -529 L 3536.5 -549.8 L 3511 -574.8 L 3531.4 -603.7 L 3483.5 -607.3 L 3473 -631.7 L 3507.9 -675.7 L 3451 -711.4 L 3529.5 -741 L 3519.3 -772.1 L 3541.2 -773.1 L 3564.2 -748.8 L 3546.9 -706.5 L 3593.8 -698.5 L 3573.8 -730.1 L 3647.2 -747.4 L 3738.1 -749.7 L 3819.1 -724.7 L 3780.2 -761.2 L 3775.8 -807.9 L 3852 -816.7 L 3957.4 -814.8 L 4052.4 -820.6 L 4016.8 -843.5 L 4067.5 -872.2 L 4117.9 -873.5 L 4203.1 -895.2 L 4318.8 -901 L 4333.4 -913 L 4448.5 -917.1 L 4484.4 -907.3 L 4582.7 -930.6 L 4663.3 -929.8 L 4675.3 -948.8 L 4717.2 -967.4 L 4820.7 -985.4 L 4895.9 -971.2 L 4836.2 -960.4 L 4935.5 -953.7 L 4947.3 -932 L 4987.3 -942.7 L 5115.5 -942.1 L 5214.3 -920.7 L 5249.4 -904.3 L 5238.5 -881.5 L 5190.1 -868.5 L 5074.9 -844.2 L 5042 -831.2 L 5096.3 -825.1 L 5161.1 -814 L 5200.6 -822.3 L 5223 -794.2 L 5242.2 -805.6 L 5312.3 -812.5 L 5452.9 -805.2 L 5463.6 -784.7 L 5646.8 -778.2 L 5649.3 -811.7 L 5742.3 -804 L 5812.3 -804.3 L 5883.1 -781.2 L 5903.3 -753.1 L 5877.3 -734.8 L 5932.4 -700.3 L 6001.3 -682.5 L 6043.6 -728.5 L 6113.9 -708.8 L 6188.6 -720.6 L 6273.4 -707.1 L 6305.7 -719.4 L 6377.4 -713.2 L 6345.8 -753.9 L 6403.6 -772.9 L 6799.5 -744.4 L 6836.8 -718.4 L 6951.5 -684.9 L 7128.5 -693.2 L 7215.8 -686 L 7252.3 -667.9 L 7246.9 -635.8 L 7300.9 -623.3 L 7359.6 -632.3 L 7437.3 -633.5 L 7520 -624.9 L 7603.1 -629.7 L 7679.5 -590.8 L 7733.8 -604.8 L 7698.3 -632.8 L 7717.8 -652.3 L 7857.7 -640 L 7948.9 -642.6 L 8074.9 -621.7 L 8136.3 -602.6 L 8136.3 -428 L 8135.9 -427.7 L 8079.6 -408.5 L 8022.8 -411.7 L 8062.3 -388.4 L 8088.4 -352.2 L 8108.7 -340.4 L 8113.8 -322.3 L 8102.4 -310.7 L 8020.7 -320.2 L 7898.2 -287.3 L 7859.3 -282.1 L 7792.2 -251.4 L 7728.6 -224.4 L 7712.5 -204.5 L 7649.8 -234.9 L 7535.6 -200.4 L 7515.6 -216.7 L 7473.4 -198 L 7414.8 -204 L 7400.7 -175.1 L 7348.1 -132.7 L 7349.7 -115 L 7399.6 -105.2 L 7393.7 -41.4 L 7353 -39.8 L 7334.3 -3.1 L 7352.5 15.8 L 7275.9 38.2 L 7260.6 88.2 L 7195.3 98.9 L 7182.2 143.4 L 7119 184.3 L 7102.8 154.1 L 7084 90.1 L 7059.6 -7.3 L 7080.6 -68.1 L 7117.6 -94.2 L 7119.9 -114.7 L 7188 -124.5 L 7266.3 -179.7 L 7341.7 -224.7 L 7420.5 -259.7 L 7455.8 -321.5 L 7402.5 -317.8 L 7376.2 -281.7 L 7265 -233.6 L 7229.1 -287.5 L 7116 -272.6 L 7006.3 -199.1 L 7042.5 -172.2 L 6944.6 -160.8 L 6876.9 -156.3 L 6880.1 -188 L 6811.9 -194.6 L 6757.6 -173.1 L 6623.6 -180.6 L 6479.4 -167.6 L 6337.5 -82.1 L 6169.5 21.3 L 6238.6 26.8 L 6260.1 54.3 L 6302.7 64 L 6330.7 42.1 L 6378.8 44.9 L 6442.1 93.2 L 6443.6 130.4 L 6409.3 174.2 L 6405.6 226.6 L 6385.8 296.7 L 6319.8 360.1 L 6305.1 390.4 L 6245.6 441.4 L 6186.6 492 L 6158.2 517.9 L 6099.8 543.6 L 6072.2 544.2 L 6044.7 522.9 L 5985.8 555 L 5979 569.6 L 5979 569.6 L 5979 569.6 L 5979 569.6 L 5972.9 561.9 L 5972.9 561.9 L 5972.6 539.6 L 5995 538.4 L 6001.3 486.7 L 5989.8 449.1 L 6027.4 433.6 L 6080.6 441.4 L 6110 398.8 L 6125.1 350.7 L 6142.1 334.7 L 6165.1 295.3 L 6092.7 308.2 L 6054.7 325.5 L 5988.1 325.4 L 5970.3 284.2 L 5918.4 253.1 L 5842.2 239.1 L 5825.9 196.1 L 5810.7 169.2 L 5794.2 150.4 L 5767.2 106.2 L 5728.7 90 L 5663.1 77 L 5605 78.2 L 5550.5 86.1 L 5514.3 107.9 L 5538.4 118.3 L 5538.9 142.5 L 5514.5 156.5 L 5475 203 L 5475.4 222.3 L 5413.6 250 L 5361 233.5 L 5308.7 237.1 L 5285.7 222.4 L 5259.5 217.7 L 5195.3 248.6 L 5137.6 255.8 L 5097.3 266.7 L 5042.1 259.6 L 5001.4 260 L 4974.8 237.6 L 4931.9 216.5 L 4888 210.8 L 4832.5 216.5 L 4791.1 224.6 L 4728.8 206.2 L 4720.5 173.4 L 4669 162.1 L 4629.2 157 L 4580.1 138.8 L 4534.7 184.3 L 4552.5 210.1 L 4509.9 240.6 L 4446.5 229.6 L 4402.8 228 L 4373.5 207.5 L 4327.7 206.9 L 4289.6 193.4 L 4223 214 L 4139.3 251.8 L 4093.1 259.4 L 4076 263 L 4052.7 236.2 L 3996.3 242 L 3977.6 223.4 L 3947 214.9 L 3925.9 189.6 L 3901.7 181.7 L 3838.7 193 L 3778.3 167.7 L 3755 190.7 L 3657 79.4 L 3601.1 45.5 L 3617.1 31.8 L 3507.3 73.1 L 3465.2 75.6 L 3468.9 51.7 L 3412.6 36.7 L 3366.8 47.4 L 3353 2 L 3274.3 -7.5 L 3234.9 10.7 L 3125.2 26.9 L 3103.8 37.7 L 2939.8 53 L 2919.7 67.9 L 2951.3 98 L 2909.3 109.4 L 2917.5 121.3 L 2875.4 142.6 L 2946.4 172.8 L 2935.4 193.5 L 2873.9 191.7 L 2861.1 204.7 L 2805.1 182 L 2735.6 182.8 L 2689.1 201.3 L 2637.2 183.6 L 2540.6 153.2 L 2472.1 154.4 L 2381.7 202 L 2376.2 234.1 L 2331.1 208.6 L 2296.2 256.8 L 2309 265.7 L 2283.7 299 L 2320.9 328.7 L 2353.4 327.5 L 2381.3 356.7 L 2376.9 379.3 L 2399.1 386.4 Z M 4357.2 -1131.2 L 4452.1 -1141.1 L 4537.2 -1119 L 4638.1 -1076.7 L 4627.3 -1037.2 L 4531.7 -1031.8 L 4409.6 -1044.4 L 4336.9 -1061.2 L 4303.2 -1092.6 L 4243.4 -1101.3 L 4357.2 -1131.2 Z M 4754.3 -1054.8 L 4865.4 -1029.9 L 4852.4 -1012.1 L 4605.3 -995.2 L 4685.4 -1052.7 L 4721.4 -1057.6 L 4754.3 -1054.8 Z M 6331.9 -917 L 6447.6 -915 L 6606 -891.8 L 6571.6 -859.3 L 6410 -860.5 L 6337.3 -850.1 L 6250.5 -878.6 L 6274.1 -908.7 L 6331.9 -917 Z M 6743.5 -882.3 L 6853.5 -870.8 L 6802.8 -853.5 L 6732.8 -857.4 L 6651.3 -874.7 L 6661.8 -888.9 L 6743.5 -882.3 Z M 6377.1 -795.7 L 6418.7 -813 L 6473.5 -817.1 L 6535.8 -800.3 L 6541.1 -788.8 L 6474.6 -788.5 L 6384.8 -793.4 L 6377.1 -795.7 Z M 2212.7 -1112.1 L 2298.2 -1120.1 L 2364.8 -1120.7 L 2373.8 -1108.8 L 2399 -1119.3 L 2440.3 -1126.6 L 2505.3 -1117 L 2488.3 -1110.3 L 2429.5 -1104.5 L 2390.1 -1101.2 L 2384 -1094 L 2332.7 -1086.7 L 2285.3 -1097.1 L 2310.2 -1110.8 L 2212.7 -1112.1 Z M 1243.4 38.9 L 1162.8 39.6 L 1108.8 34.6 L 1118.8 15.3 L 1179.3 1.1 L 1225.2 8.8 L 1244.5 15.7 L 1239.9 27.7 L 1243.4 38.9 Z M 2592.3 -812.4 L 2697.2 -850.8 L 2685.4 -870.7 L 2783.4 -893.9 L 2928.1 -922 L 3074 -930.2 L 3149 -946.5 L 3234.3 -952.2 L 3264.8 -934.9 L 3235.4 -921.2 L 3080.1 -899.5 L 2946.2 -878.6 L 2810.1 -836.9 L 2744.8 -794.1 L 2676.1 -751.9 L 2685 -715.5 L 2768.8 -679.6 L 2742.9 -675.7 L 2599.7 -681.4 L 2588.1 -700.9 L 2508.7 -712.6 L 2502.3 -736.3 L 2547.2 -745.7 L 2545.7 -769.6 L 2632.6 -807 L 2592.3 -812.4 Z M 6510.9 66.2 L 6526 108.4 L 6524.9 151.6 L 6543 195.8 L 6587.1 273.4 L 6522.2 259 L 6495.3 322.3 L 6538 367.2 L 6536.7 397.8 L 6503.5 371.4 L 6474.8 405.3 L 6466.7 368.6 L 6471.6 325.9 L 6466.6 278.6 L 6476.7 245.4 L 6478.7 186.8 L 6453 143.7 L 6456.9 83.9 L 6497.4 63.7 L 6480 43.4 L 6499.5 37.2 L 6510.9 66.2 Z M -7419.8 -525.5 L -7423.6 -498.3 L -7394 -487.4 L -7404.2 -519.2 L -7285.2 -512.7 L -7199.4 -471.7 L -7242.8 -452.6 L -7314.7 -448.1 L -7315.8 -405.2 L -7333.3 -396.1 L -7374.4 -397.4 L -7407.8 -412.7 L -7466 -425.5 L -7475.8 -444.5 L -7520.3 -451.7 L -7570.2 -446 L -7594 -461.3 L -7584.5 -477.6 L -7637 -467.2 L -7617.2 -446.6 L -7642.1 -428 L -7642.1 -602.6 L -7534.7 -569.1 L -7419.8 -525.5 Z M -7584.8 -687.1 L -7642.1 -684.5 L -7642.1 -714.4 L -7636.5 -716.3 L -7599.3 -716.2 L -7535.9 -703.6 L -7539.7 -697.7 L -7584.8 -687.1 Z M 1712.6 405.1 L 1724.1 394.3 L 1755.3 403.7 L 1769.4 405.4 L 1775 414 L 1781.7 415.4 L 1782 419.2 L 1803.5 429.7 L 1848.2 427.1 L 1839.6 442.8 L 1791.6 450.3 L 1732.1 475.7 L 1707.8 466.8 L 1717.4 446.2 L 1669.5 433.4 L 1677.3 425 L 1719.2 410.4 L 1712.6 405.1 Z" />
<path class="neighbor" d="M -2017 2237.8 L -2042.9 2278 L -2056.4 2310.2 L -2073.2 2326.9 L -2094.2 2330 L -2100.1 2317.7 L -2109.9 2315.8 L -2123.5 2327.7 L -2142.7 2318.7 L -2131.5 2300.2 L -2127.6 2280.2 L -2120 2261.3 L -2137.2 2235.4 L -2140.6 2205.4 L -2117.8 2167.7 L -2102.9 2172.5 L -2070.7 2182.9 L -2024.3 2219.9 L -2017 2237.8 Z M 518.2 252.1 L 538.9 263.5 L 602.1 271.6 L 579.9 301.6 L 574.4 332.9 L 562.3 340.3 L 542.4 336.3 L 543.8 347.4 L 511.7 372.1 L 511.1 391.9 L 532 385.1 L 547 404.3 L 545.2 416.7 L 558.1 433.1 L 542.9 446.5 L 554.2 480.4 L 578 485.9 L 573 505 L 533.3 529.7 L 446.8 517.9 L 383 532.1 L 378 558.5 L 327.2 564.2 L 277.8 544.3 L 261.9 553.8 L 181.2 533.9 L 163.8 516.8 L 186.4 490.6 L 194.8 403.2 L 149.5 357.2 L 117.2 335.1 L 50.2 318.2 L 45.8 286.2 L 102.6 276.7 L 176.2 288 L 162.4 238.4 L 203.7 257.2 L 305.8 223 L 318.9 187.1 L 357.3 178.2 L 363.6 193.6 L 384 194.4 L 404.4 212 L 434.9 232.6 L 457.4 229.2 L 495.8 249.2 L 505.6 253 L 518.2 252.1 Z M 630.4 551.7 L 658.6 534.9 L 666.1 572.5 L 651.6 606.4 L 631.7 597.5 L 621.6 568 L 630.4 551.7 Z" />
<path class="neighbor" d="M 662.7 1091.7 L 644 1013 L 617 995.3 L 616.6 984.7 L 580.7 958.6 L 576.9 925.6 L 603.9 901.1 L 614.2 865 L 607.3 823.2 L 616.2 800.7 L 663.9 783 L 694.6 788.3 L 693.3 810.4 L 730.5 794.3 L 733.6 802.7 L 711.7 824.2 L 711.4 844.5 L 726.6 855.4 L 720.8 893.3 L 691.9 915.3 L 700.3 939.2 L 722.9 940 L 734 960.8 L 750.6 967.7 L 748.2 1001.3 L 726.8 1013.9 L 713.3 1027.9 L 683.2 1044.8 L 687.9 1063 L 684.1 1081.5 L 662.7 1091.7 Z" />
<path class="neighbor" d="M -133.5 1219.3 L -132.7 1210.8 L -132.7 1207.9 L -133.1 1155.9 L -62.3 1123.6 L -18.5 1116.9 L 17.3 1105.1 L 34.1 1083.2 L 85.3 1065.8 L 87.2 1033.4 L 112.6 1029.6 L 132.4 1013.4 L 189.8 1006 L 197.8 988.9 L 186.3 979.6 L 171.1 933.3 L 168.5 906.7 L 152 878.6 L 194.1 854.7 L 241.5 847.1 L 269.2 829 L 311.4 815.6 L 385.7 807.8 L 458.2 804.3 L 480.3 810.8 L 521.5 793.5 L 568.4 793.2 L 586.2 803.4 L 616.2 800.7 L 607.3 823.2 L 614.2 865 L 603.9 901.1 L 576.9 925.6 L 580.7 958.6 L 616.6 984.7 L 617 995.3 L 644 1013 L 662.7 1091.7 L 676.9 1130.4 L 679.2 1150.7 L 671.5 1186.5 L 674.7 1206.5 L 669.1 1230.5 L 672.9 1258 L 655.6 1276.3 L 681.5 1308.3 L 683.1 1327.1 L 698.7 1351.5 L 719.2 1343.5 L 753.8 1363.8 L 773 1391.3 L 622.8 1474.8 L 495.9 1560.9 L 434.1 1580.5 L 385.5 1584.7 L 385 1556.9 L 364.7 1549.7 L 337.4 1537.2 L 327 1516.7 L 179.2 1421 L 31.3 1325.4 L -133.5 1219.3 Z" />
<path class="neighbor" d="M 1482 -41.8 L 1528.2 -30.8 L 1534.4 -19.9 L 1557.4 -25.2 L 1600.3 -14.7 L 1604.6 5.9 L 1595.2 17.7 L 1622.6 46.4 L 1640.5 54.4 L 1637.8 62.3 L 1667.4 70 L 1680 81.7 L 1663 91.3 L 1627.6 89.7 L 1619.2 93.8 L 1629.5 108.4 L 1640.2 136.5 L 1640.2 136.5 L 1602.6 139.1 L 1589.1 148.7 L 1586.3 170.7 L 1568.9 166.5 L 1529.3 168.6 L 1517.8 158.4 L 1501.4 166 L 1484.9 159.7 L 1450.4 158.8 L 1401.5 148.3 L 1357.2 144.8 L 1323.2 145.8 L 1299.2 157.7 L 1278.3 159.4 L 1277.4 139.9 L 1263.9 119.6 L 1290.2 110.6 L 1290.4 93.2 L 1278.3 76.5 L 1276.4 57.1 L 1318.7 57.4 L 1366.3 40.9 L 1376.5 16.1 L 1412.4 2.1 L 1408.3 -17.5 L 1435 -24.9 L 1482 -41.8 Z" />
<path class="neighbor" d="M 1640.2 136.5 L 1656.6 138.2 L 1667.7 128.3 L 1681 130.5 L 1726.4 126.2 L 1754.4 151 L 1743.5 159.9 L 1747.1 173.5 L 1782.1 175.6 L 1797.7 194.7 L 1796.7 203.3 L 1852.4 218.7 L 1886 211.7 L 1913.1 232.3 L 1938.7 231.8 L 2003.3 246.1 L 2003.8 258.9 L 1986 281.9 L 1995.7 306 L 1988.8 320.7 L 1946.4 323.9 L 1923.8 336.1 L 1922.4 355.6 L 1887.4 359.1 L 1858.2 373.3 L 1817.2 375.6 L 1779.5 391.9 L 1781.7 415.4 L 1775 414 L 1769.4 405.4 L 1755.3 403.7 L 1724.1 394.3 L 1712.6 405.1 L 1706.5 400.4 L 1638.4 389.3 L 1635.4 372.9 L 1594.8 378.3 L 1578.5 402.5 L 1544.6 434.9 L 1524.7 427.3 L 1504.1 434.4 L 1484.5 426.3 L 1495.6 421.6 L 1503.2 406.5 L 1515.2 392.5 L 1512.1 384.7 L 1521.3 381.2 L 1525.6 387.3 L 1551.4 388.5 L 1563 385.3 L 1554.9 380.9 L 1558 374.3 L 1542.7 363.2 L 1536.3 344.9 L 1520.4 337.7 L 1523.5 322.8 L 1503.7 311.1 L 1485.7 309.4 L 1453.4 295.8 L 1424.2 300.1 L 1413.8 306.6 L 1395.3 306.5 L 1384.3 316.8 L 1351.9 321 L 1337 327.7 L 1316.6 317 L 1288.5 316.9 L 1261.4 312 L 1242.5 321.4 L 1239.4 309.6 L 1215.1 297.7 L 1223.6 280.1 L 1235.8 268.6 L 1245.4 271.2 L 1234.1 251.5 L 1273.8 215.1 L 1295.6 209.9 L 1300.3 197.7 L 1278.3 159.4 L 1299.2 157.7 L 1323.2 145.8 L 1357.2 144.8 L 1401.5 148.3 L 1450.4 158.8 L 1484.9 159.7 L 1501.4 166 L 1517.8 158.4 L 1529.3 168.6 L 1568.9 166.5 L 1586.3 170.7 L 1589.1 148.7 L 1602.6 139.1 L 1640.2 136.5 Z" />
<path class="neighbor" d="M 1276.4 57.1 L 1278.3 76.5 L 1290.4 93.2 L 1290.2 110.6 L 1263.9 119.6 L 1277.4 139.9 L 1278.3 159.4 L 1300.3 197.7 L 1295.6 209.9 L 1273.8 215.1 L 1234.1 251.5 L 1245.4 271.2 L 1235.8 268.6 L 1194.1 251.8 L 1162.6 258 L 1141.9 253.5 L 1116 262.9 L 1093.9 247.3 L 1075.9 253.3 L 1073.4 250.7 L 1053.2 229.1 L 1020.6 226.4 L 1016.5 212.7 L 986.4 207.8 L 979.9 219.1 L 956.1 210 L 958.8 198 L 926 194.2 L 905.3 180.1 L 887.3 152.1 L 890.7 137 L 879.9 113.5 L 864 97.9 L 876.2 86.2 L 865.9 63.9 L 895.9 51 L 964.3 30.8 L 1019.5 15.9 L 1063.2 23.3 L 1066.5 34 L 1108.8 34.6 L 1162.8 39.6 L 1243.4 38.9 L 1265.9 43.6 L 1276.4 57.1 Z" />
<path class="neighbor" d="M 991.3 310.8 L 988 328.7 L 963.3 328.8 L 971.8 338.3 L 957.2 366.5 L 948.9 373.9 L 910.5 375 L 888.4 385 L 852.2 381.6 L 789.5 370.2 L 779.8 355 L 736.4 362.6 L 731.3 371 L 704.8 364.7 L 682.4 363.5 L 662.6 355.6 L 669.3 344.8 L 667.6 337 L 680.8 334.6 L 703 346.8 L 709.2 335.2 L 747.9 337.1 L 779.2 329.2 L 800.2 330.6 L 813.9 339.6 L 818 332.1 L 811.8 303.6 L 827.5 298 L 843 277.8 L 875.6 291.9 L 900.2 274 L 915.6 270.7 L 949.7 284.1 L 970.2 281.8 L 990.4 290.1 L 986.9 295.6 L 991.3 310.8 Z" />
<path class="neighbor" d="M 1215.1 297.7 L 1239.4 309.6 L 1242.5 321.4 L 1215.7 330.6 L 1195 360.3 L 1168.5 390 L 1133.3 398.3 L 1106 396.4 L 1072.4 407.9 L 1072.4 407.9 L 1056 414.4 L 1019.8 406 L 987 387.2 L 973.1 381.8 L 964.6 367 L 957.2 366.5 L 971.8 338.3 L 963.3 328.8 L 988 328.7 L 991.3 310.8 L 1013.6 322 L 1029.8 326.8 L 1066.5 321.4 L 1070.1 312.6 L 1087.5 311.3 L 1108.8 304.5 L 1113.6 307.3 L 1134.1 301.9 L 1144.4 291.6 L 1158.8 288.9 L 1205.7 302.2 L 1215.1 297.7 Z" />
<path class="neighbor" d="M 1484.5 426.3 L 1504.1 434.4 L 1524.7 427.3 L 1544.6 434.9 L 1545.6 446.2 L 1524.3 455.6 L 1511 451.5 L 1498.8 504.4 L 1473 499.8 L 1441.1 483.8 L 1389.5 494 L 1367.8 505.2 L 1303.4 502.9 L 1269.7 496.1 L 1252.7 499.3 L 1240.1 481.2 L 1232.1 473.6 L 1242.3 466.2 L 1231.4 460.8 L 1217.7 470.6 L 1192.1 457.8 L 1188.7 439.8 L 1162 429.5 L 1157.1 415.5 L 1133.3 398.3 L 1168.5 390 L 1195 360.3 L 1215.7 330.6 L 1242.5 321.4 L 1261.4 312 L 1288.5 316.9 L 1316.6 317 L 1337 327.7 L 1351.9 321 L 1384.3 316.8 L 1395.3 306.5 L 1413.8 306.6 L 1427.1 310.8 L 1440.7 323.8 L 1454.6 342.3 L 1479.9 368.4 L 1481.3 387.6 L 1476.7 406.3 L 1484.5 426.3 Z" />
<path class="neighbor" d="M 865.9 63.9 L 876.2 86.2 L 864 97.9 L 879.9 113.5 L 890.7 137 L 887.3 152.1 L 905.3 180.1 L 885.7 184.6 L 874.2 179.6 L 863.2 187.9 L 831.7 196.4 L 815.4 207.4 L 783.6 216.9 L 791.2 229.9 L 795.9 248.4 L 818.2 258.9 L 843 277.8 L 827.5 298 L 811.8 303.6 L 818 332.1 L 813.9 339.6 L 800.2 330.6 L 779.2 329.2 L 747.9 337.1 L 709.2 335.2 L 703 346.8 L 680.8 334.6 L 667.6 337 L 620.6 323.6 L 611.6 333.2 L 574.4 332.9 L 579.9 301.6 L 602.1 271.6 L 538.9 263.5 L 518.2 252.1 L 520.7 232.9 L 512 223 L 516.9 193.3 L 509.6 147.4 L 535.9 147.4 L 547 130.9 L 557.9 90.8 L 549.7 76 L 558.3 66.7 L 594.9 64.3 L 603.1 74 L 632.8 52.3 L 622.8 35.9 L 620.8 11.1 L 653.9 16.8 L 682 10.2 L 682.7 27.1 L 727 37.3 L 726.6 52.9 L 771.1 44.6 L 795.8 32.6 L 845.2 49.9 L 865.9 63.9 Z" />
<path class="neighbor" d="M 1240.1 481.2 L 1252.7 499.3 L 1269.7 496.1 L 1303.4 502.9 L 1367.8 505.2 L 1389.5 494 L 1441.1 483.8 L 1473 499.8 L 1498.8 504.4 L 1476 522.5 L 1460 553.9 L 1474.2 578.9 L 1436.4 573 L 1391.8 586.8 L 1391.3 608.6 L 1351.5 612.8 L 1320.6 597.4 L 1285.5 609.5 L 1253.1 608.2 L 1250 579.2 L 1228 565.2 L 1235.2 559 L 1230.5 553.8 L 1237.8 539.8 L 1254.5 526.1 L 1233.2 507.2 L 1229.3 491.2 L 1240.1 481.2 Z" />
<path class="neighbor" d="M 1399.4 872.9 L 1393.9 885.8 L 1330.8 889.5 L 1331.2 882.3 L 1277.7 873.7 L 1285.8 855.1 L 1309.8 869.9 L 1343.9 867.4 L 1376.5 870.5 L 1375.5 878.1 L 1399.4 872.9 Z M 1253.1 608.2 L 1285.5 609.5 L 1320.6 597.4 L 1351.5 612.8 L 1391.3 608.6 L 1391.8 586.8 L 1413.1 598.4 L 1399.6 625.8 L 1389.1 630.7 L 1362.4 629.5 L 1339.6 625.3 L 1286.5 636.7 L 1316.9 661.4 L 1294.6 668.5 L 1270.2 668.6 L 1247 646 L 1238.8 655.6 L 1248.6 681.8 L 1270.5 702.4 L 1254 712 L 1278.4 732.2 L 1300.1 744.9 L 1300.7 769.6 L 1260.2 758 L 1273.1 780.4 L 1245.3 785 L 1261.9 823.7 L 1232.8 824.2 L 1196.9 805.1 L 1180.4 770.1 L 1172.8 740.9 L 1155.7 720.8 L 1133.2 695.8 L 1130.2 683.3 L 1150.6 662 L 1153.3 647.8 L 1167.5 641.4 L 1168.4 629.9 L 1197 626 L 1213.8 616.5 L 1237.5 617.3 L 1244.7 609.7 L 1253.1 608.2 Z" />
<path class="neighbor" d="M 1168.4 629.9 L 1167.5 641.4 L 1153.3 647.8 L 1150.6 662 L 1130.2 683.3 L 1122.8 680.2 L 1121.9 670.6 L 1097.6 655.9 L 1093.8 635 L 1097.5 605.1 L 1103.5 591.5 L 1096.1 584.6 L 1096.1 584.6 L 1093.2 570.6 L 1112.2 549 L 1115 557.3 L 1126.8 553.4 L 1136.1 565.2 L 1146.6 569.7 L 1149.5 585.5 L 1149.5 585.5 L 1144 600.5 L 1150.2 619.3 L 1168.4 629.9 Z" />
<path class="neighbor" d="M 973.1 381.8 L 987 387.2 L 1019.8 406 L 1056 414.4 L 1072.4 407.9 L 1083 424.9 L 1097 437.3 L 1080.1 453.8 L 1060.3 444.1 L 1030 444.7 L 992.3 437.5 L 971.8 438.4 L 962.3 447.5 L 946.6 437.5 L 937.4 455.7 L 958.9 476.2 L 968.4 489.7 L 988.5 506.1 L 1005.2 515.8 L 1021.8 534.1 L 1060.6 550.7 L 1055.7 558.2 L 1055.7 558.2 L 1014.5 541.9 L 989.1 526.2 L 949 513.1 L 912.2 480.9 L 921 477.6 L 901 459.2 L 900.2 444.4 L 872 437.5 L 858.6 456.4 L 845.7 441.7 L 846.6 426.5 L 848.2 425.8 L 878.8 427.3 L 886.8 419.9 L 901.7 427 L 918.9 427.9 L 918.7 415.6 L 934 411.2 L 938.2 393.5 L 973.1 381.8 Z" />
<path class="neighbor" d="M 667.6 337 L 669.3 344.8 L 662.6 355.6 L 682.4 363.5 L 704.8 364.7 L 701.3 382.7 L 682 390.1 L 649.6 384.6 L 640.1 402.3 L 619.2 403.7 L 611.6 396.7 L 587 411.6 L 565.9 413.7 L 547 404.3 L 532 385.1 L 511.1 391.9 L 511.7 372.1 L 543.8 347.4 L 542.4 336.3 L 562.3 340.3 L 574.4 332.9 L 611.6 333.2 L 620.6 323.6 L 667.6 337 Z" />
<path class="neighbor" d="M 512 223 L 520.7 232.9 L 518.2 252.1 L 505.6 253 L 495.8 249.2 L 500.5 224.6 L 512 223 Z" />
<path class="neighbor" d="M 516.9 193.3 L 512 223 L 500.5 224.6 L 495.8 249.2 L 457.4 229.2 L 434.9 232.6 L 404.4 212 L 384 194.4 L 363.6 193.6 L 357.3 178.2 L 392.4 169.6 L 392.4 169.6 L 392.4 169.6 L 424.5 173 L 465.1 163.9 L 492.8 183.1 L 516.9 193.3 Z" />
<path class="neighbor" d="M 549.7 76 L 557.9 90.8 L 547 130.9 L 535.9 147.4 L 509.6 147.4 L 516.9 193.3 L 492.8 183.1 L 465.1 163.9 L 424.5 173 L 392.4 169.6 L 392.4 169.6 L 415 157.5 L 453.4 93.1 L 513.3 74.7 L 549.7 76 Z" />
<path class="neighbor" d="M -79.6 794.1 L -83.2 779.5 L -67 763.1 L -61 751.2 L -76.1 738.2 L -64 709.4 L -81.6 683.1 L -62.6 679.5 L -60.9 658.8 L -53.7 652.4 L -53.2 618.2 L -32.9 606.3 L -45.2 584.3 L -70.7 582.8 L -78.2 588.3 L -104.1 588.4 L -115.1 566.9 L -133 573.3 L -148.9 584.4 L -146.7 553.2 L -164.6 534.2 L -102.6 502.6 L -48.9 510.5 L 9.9 510.2 L 56.5 517.7 L 92.9 515.4 L 163.8 516.8 L 181.2 533.9 L 261.9 553.8 L 277.8 544.3 L 327.2 564.2 L 378 558.5 L 380.3 583.9 L 338.8 613.1 L 282.6 622.4 L 278.7 637.1 L 251.8 661.4 L 234.9 697.1 L 252 722.1 L 226.6 741.7 L 217.1 770.2 L 184.1 778.9 L 153 812.6 L 97.4 813.3 L 55.6 812.5 L 28.2 827.9 L 11.4 844.5 L -10 840.9 L -26.2 826.1 L -38.7 800.8 L -79.6 794.1 Z" />
<path class="neighbor" d="M -24.5 59.1 L -57.7 50 L -84.8 50.6 L -75.7 27.1 L -84.8 3.7 L -48 1.9 L -1.1 28.9 L -24.5 59.1 Z M 111.5 79.4 L 111.6 79.4 L 118 53.9 L 88.7 26.9 L 88 26.3 L 34.8 18.6 L 24.3 6.7 L 40.3 -12.9 L 25.9 -24.9 L 2.3 -4.2 L -0.3 -46.5 L -22.4 -68.8 L -6.5 -114.1 L 27.5 -149.7 L 62.5 -146.2 L 115.4 -149.9 L 68.5 -102.5 L 113.2 -108.5 L 161.2 -108.2 L 149.8 -72.5 L 110.4 -33.3 L 155.7 -30.5 L 159.2 -25.8 L 198.2 25.9 L 228.2 32.9 L 255.2 82.8 L 267.7 100.2 L 320.8 108.5 L 315.5 136.5 L 293.1 149.4 L 310.6 172.1 L 271.2 195 L 212.6 194.6 L 138 206.7 L 117.5 198 L 88.5 218.6 L 48 213.6 L 17.2 230.3 L -6.1 221.6 L 58.2 175.5 L 97.4 166.1 L 97.1 166 L 28.6 158.7 L 16.2 141.3 L 62 127.7 L 38 104.1 L 46.4 75.4 L 111.5 79.4 Z" />
<path class="neighbor" d="M 852.2 381.6 L 888.4 385 L 910.5 375 L 948.9 373.9 L 957.2 366.5 L 964.6 367 L 973.1 381.8 L 938.2 393.5 L 934 411.2 L 918.7 415.6 L 918.9 427.9 L 901.7 427 L 886.8 419.9 L 878.8 427.3 L 848.2 425.8 L 858 421.8 L 847.5 403.2 L 852.2 381.6 Z" />
<path class="neighbor" d="M 1235.8 268.6 L 1223.6 280.1 L 1215.1 297.7 L 1205.7 302.2 L 1158.8 288.9 L 1144.4 291.6 L 1134.1 301.9 L 1113.6 307.3 L 1108.8 304.5 L 1087.5 311.3 L 1070.1 312.6 L 1066.5 321.4 L 1029.8 326.8 L 1013.6 322 L 991.3 310.8 L 986.9 295.6 L 990.4 290.1 L 996.7 280.4 L 1016.1 281.2 L 1031 276.6 L 1032.2 272.6 L 1040.6 270.5 L 1043.5 260.5 L 1053.5 258.6 L 1060.3 250.7 L 1073.4 250.7 L 1075.9 253.3 L 1093.9 247.3 L 1116 262.9 L 1141.9 253.5 L 1162.6 258 L 1194.1 251.8 L 1235.8 268.6 Z" />
<path class="neighbor" d="M 905.3 180.1 L 926 194.2 L 958.8 198 L 956.1 210 L 979.9 219.1 L 986.4 207.8 L 1016.5 212.7 L 1020.6 226.4 L 1053.2 229.1 L 1073.4 250.7 L 1060.3 250.7 L 1053.5 258.6 L 1043.5 260.5 L 1040.6 270.5 L 1032.2 272.6 L 1031 276.6 L 1016.1 281.2 L 996.7 280.4 L 990.4 290.1 L 970.2 281.8 L 949.7 284.1 L 915.6 270.7 L 900.2 274 L 875.6 291.9 L 843 277.8 L 818.2 258.9 L 795.9 248.4 L 791.2 229.9 L 783.6 216.9 L 815.4 207.4 L 831.7 196.4 L 863.2 187.9 L 874.2 179.6 L 885.7 184.6 L 905.3 180.1 Z" />
<path class="neighbor" d="M 1342.8 1455.8 L 1342.8 1543.3 L 1292.4 1543.4 L 1291.9 1561.8 L 1117.1 1477.9 L 942.3 1394 L 898 1418 L 867 1434.2 L 842.4 1410.2 L 773 1391.3 L 753.8 1363.8 L 719.2 1343.5 L 698.7 1351.5 L 683.1 1327.1 L 681.5 1308.3 L 655.6 1276.3 L 672.9 1258 L 669.1 1230.5 L 674.7 1206.5 L 671.5 1186.5 L 679.2 1150.7 L 676.9 1130.4 L 662.7 1091.7 L 684.1 1081.5 L 687.9 1063 L 683.2 1044.8 L 713.3 1027.9 L 726.8 1013.9 L 748.2 1001.3 L 750.6 967.7 L 802.1 982.7 L 820.5 979 L 857.1 986.3 L 915.3 1005.9 L 935.8 1044.8 L 975.2 1053.3 L 1036.9 1071.7 L 1083.6 1093.5 L 1105 1082.1 L 1126 1061.9 L 1115.8 1028.4 L 1129.5 1007 L 1161.1 986.5 L 1191.3 980.5 L 1250.6 989.5 L 1265.5 1009.1 L 1281.9 1009.3 L 1295.8 1016.8 L 1339.4 1021.9 L 1350 1036.4 L 1334.2 1057.4 L 1341 1076.1 L 1329.7 1103.2 L 1342.8 1138.5 L 1342.8 1294.4 L 1342.8 1455.8 Z" />
<path class="neighbor" d="M 1060.6 550.7 L 1021.8 534.1 L 1005.2 515.8 L 988.5 506.1 L 968.4 489.7 L 958.9 476.2 L 937.4 455.7 L 946.6 437.5 L 962.3 447.5 L 971.8 438.4 L 992.3 437.5 L 1030 444.7 L 1060.3 444.1 L 1080.1 453.8 L 1080.1 453.8 L 1096 453.7 L 1085 473 L 1106.1 489.9 L 1099.7 510.5 L 1089.4 512.4 L 1081.2 516.4 L 1067 526.6 L 1060.6 550.7 Z" />
<path class="neighbor" d="M 1228 565.2 L 1250 579.2 L 1253.1 608.2 L 1244.7 609.7 L 1237.5 617.3 L 1213.8 616.5 L 1197 626 L 1168.4 629.9 L 1150.2 619.3 L 1144 600.5 L 1149.5 585.5 L 1149.5 585.5 L 1155.1 585.9 L 1157.1 576.9 L 1183 570.1 L 1192.8 568.5 L 1207.7 565.9 L 1228 565.2 Z" />
<path class="neighbor" d="M 1072.4 407.9 L 1072.4 407.9 L 1106 396.4 L 1133.3 398.3 L 1157.1 415.5 L 1162 429.5 L 1188.7 439.8 L 1192.1 457.8 L 1217.7 470.6 L 1231.4 460.8 L 1242.3 466.2 L 1232.1 473.6 L 1240.1 481.2 L 1229.3 491.2 L 1233.2 507.2 L 1254.5 526.1 L 1237.8 539.8 L 1230.5 553.8 L 1235.2 559 L 1228 565.2 L 1207.7 565.9 L 1192.8 568.5 L 1191.3 565.2 L 1196.6 560 L 1201.5 549.3 L 1195.2 549.5 L 1186.7 541.4 L 1179.5 539.3 L 1173.8 532.4 L 1165.6 529.6 L 1159.4 523.4 L 1151.5 525.9 L 1145.4 540.4 L 1135 543.6 L 1138.6 539.8 L 1121.9 530.7 L 1107.5 526 L 1101.1 519.9 L 1089.4 512.4 L 1099.7 510.5 L 1106.1 489.9 L 1085 473 L 1096 453.7 L 1080.1 453.8 L 1080.1 453.8 L 1097 437.3 L 1083 424.9 L 1072.4 407.9 Z" />
<path class="neighbor" d="M 1126.8 553.4 L 1115 557.3 L 1112.2 549 L 1093.2 570.6 L 1096.1 584.6 L 1087 581.2 L 1074.7 566.9 L 1055.7 558.2 L 1060.6 550.7 L 1067 526.6 L 1081.2 516.4 L 1089.4 512.4 L 1101.1 519.9 L 1107.5 526 L 1121.9 530.7 L 1138.6 539.8 L 1135 543.6 L 1126.8 553.4 Z" />
<path class="neighbor" d="M 1149.5 585.5 L 1146.6 569.7 L 1136.1 565.2 L 1126.8 553.4 L 1135 543.6 L 1145.4 540.4 L 1151.5 525.9 L 1159.4 523.4 L 1165.6 529.6 L 1173.8 532.4 L 1179.5 539.3 L 1186.7 541.4 L 1195.2 549.5 L 1201.5 549.3 L 1196.6 560 L 1191.3 565.2 L 1192.8 568.5 L 1183 570.1 L 1157.1 576.9 L 1155.1 585.9 L 1149.5 585.5 Z" />

<path class="country" d="M 704.8 364.7 L 731.3 371 L 736.4 362.6 L 779.8 355 L 789.5 370.2 L 852.2 381.6 L 847.5 403.2 L 858 421.8 L 823.1 415.4 L 787.4 431 L 789.9 452.7 L 784.5 465.2 L 798.9 487.5 L 840 509.6 L 862 545.8 L 910.8 581.2 L 945.1 580.9 L 955.8 590.6 L 943.5 599.3 L 982.8 615.2 L 1014.9 628.4 L 1052.5 651.3 L 1057.1 659.5 L 1048.9 675.2 L 1024.5 654.7 L 986.5 647.5 L 968 675.8 L 999.7 692.1 L 994.5 714.9 L 976.2 717.5 L 952.8 755.1 L 934.5 758.5 L 934.7 745.1 L 943.6 721.6 L 953.1 712.2 L 936 686.8 L 922.7 664.7 L 904.5 659.3 L 891.5 640.4 L 863.4 632.4 L 844.4 614.8 L 812 611.9 L 777.7 592.2 L 737.6 563.6 L 707.8 538.4 L 694.2 495 L 672.3 490 L 636.7 475.5 L 616.5 481.4 L 591.2 501.7 L 573 505 L 578 485.9 L 554.2 480.4 L 542.9 446.5 L 558.1 433.1 L 545.2 416.7 L 547 404.3 L 565.9 413.7 L 587 411.6 L 611.6 396.7 L 619.2 403.7 L 640.1 402.3 L 649.6 384.6 L 682 390.1 L 701.3 382.7 L 704.8 364.7 Z M 894.1 748.2 L 927.3 744.4 L 911.6 778.9 L 918.1 792.5 L 908.9 815 L 875.4 798.5 L 853.1 793.8 L 791.9 771.5 L 798.1 749 L 849.4 753 L 894.1 748.2 Z M 628.8 627.4 L 650.8 613.8 L 677.1 644.9 L 670.9 702.9 L 651 700.1 L 633.1 714.8 L 616.5 703.2 L 614.7 650.3 L 604.7 625.2 L 628.8 627.4 Z" />


<g class="city"><circle cx="350.22510420273414" cy="278.61976849680696" r="5" /><text x="362.22510420273414" y="282.61976849680696">Paris</text></g>
<g class="city"><circle cx="342.7055018166997" cy="606.1449371277299" r="5" /><text x="354.7055018166997" y="610.1449371277299">Barcelona</text></g>
<g class="city"><circle cx="380.7130052901242" cy="808.6437866243571" r="5" /><text x="392.7130052901242" y="812.6437866243571">Algiers</text></g>
<g class="city"><circle cx="794.136245896538" cy="583.6758473183406" r="5" /><text x="806.136245896538" y="587.6758473183406">Rome</text></g>
<g class="city"><circle cx="1287.2118372552713" cy="755.1613334443657" r="5" /><text x="1299.2118372552713" y="759.1613334443657">Athens</text></g>
<g class="city"><circle cx="650.4548104189587" cy="427.0312410972951" r="5" /><text x="662.4548104189587" y="431.0312410972951">Milan</text></g>
<g class="city"><circle cx="627.311153089266" cy="224.18956350997735" r="5" /><text x="639.311153089266" y="228.18956350997735">Frankfurt</text></g>
<g class="city"><circle cx="693.2585761808548" cy="806.9885081148834" r="5" /><text x="705.2585761808548" y="810.9885081148834">Tunis</text></g>
<text class="map-title" x="80" y="105">Italy Political Study Map</text>
<text class="map-subtitle" x="80" y="145">Capital: Rome | Continent: Europe</text>
  <text class="footer" x="80" y="1036">Made with Natural Earth. Free vector and raster map data @ naturalearthdata.com.</text>
</svg>
