<?xml version="1.0" encoding="UTF-8"?>
<svg xmlns="http://www.w3.org/2000/svg" width="1600" height="1100" viewBox="0 0 1600 1100" role="img" aria-labelledby="title desc">
  <title id="title">Jamaica Political Study Map</title>
  <desc id="desc">Made with Natural Earth. Free vector and raster map data @ naturalearthdata.com.</desc>
  <defs>
    <linearGradient id="terrain" x1="0" x2="1" y1="0" y2="1">
      <stop offset="0%" stop-color="#6c8c53" />
      <stop offset="42%" stop-color="#d5c487" />
      <stop offset="72%" stop-color="#b88b5f" />
      <stop offset="100%" stop-color="#f1f5ee" />
    </linearGradient>
    <filter id="softShadow" x="-10%" y="-10%" width="120%" height="120%">
      <feDropShadow dx="0" dy="10" stdDeviation="12" flood-color="#0f172a" flood-opacity="0.16" />
    </filter>
    <style>
      .neighbor { fill: #ffffff; stroke: #94a3b8; stroke-width: 1.2; opacity: 0.72; }
      .country { fill: #f7f1df; stroke: #1f2937; stroke-width: 4; filter: url(#softShadow); }
      .admin1 { fill: none; stroke: #64748b; stroke-width: 1.1; stroke-dasharray: 6 7; opacity: 0.75; }
      .river { fill: none; stroke: #1d9bd1; stroke-width: 3; stroke-linecap: round; opacity: 0.88; }
      .lake { fill: #8ed1ea; stroke: #0ea5e9; stroke-width: 1.5; opacity: 0.8; }
      .city circle { fill: #ef4444; stroke: #ffffff; stroke-width: 2; }
      .city text, .terrain-label { fill: #172033; font: 700 24px system-ui, sans-serif; paint-order: stroke; stroke: #ffffff; stroke-width: 5; stroke-linejoin: round; }
      .map-title { fill: #0f172a; font: 800 46px system-ui, sans-serif; }
      .map-subtitle { fill: #475569; font: 600 24px system-ui, sans-serif; }
      .footer { fill: #64748b; font: 500 18px system-ui, sans-serif; }
    </style>
  </defs>
  <rect width="100%" height="100%" fill="#eaf3f8" />
  <rect x="40" y="40" width="1520" height="1020" rx="32" fill="#ffffff" opacity="0.54" />
  <path class="neighbor" d="M -8728.5 -5873.3 L -8134.7 -5873.3 L -7514 -5873.3 L -7308.4 -5873.3 L -6671.1 -5873.3 L -6054.3 -5873.3 L -5427 -5873.3 L -4799.4 -5873.2 L -4088.8 -5873.3 L -3373.5 -5873.4 L -2940.7 -5873.3 L -2940.1 -5953.6 L -2869.3 -5954.6 L -2832.2 -5839.8 L -2767.2 -5804.4 L -2621.2 -5791.6 L -2407.7 -5758.3 L -2204.9 -5693.4 L -2035.5 -5720.6 L -1778.4 -5666.3 L -1710 -5668.3 L -1522.9 -5727.5 L -1326.7 -5651.6 L -1122.2 -5570.8 L -953 -5501.1 L -790.6 -5434.2 L -770.4 -5379.2 L -721.1 -5358.6 L -733.9 -5337.9 L -677.9 -5331.5 L -637.2 -5353.1 L -626.7 -5303.6 L -584.6 -5270.4 L -527.2 -5270.4 L -496.5 -5244.9 L -522.3 -5207.7 L -304.5 -5109.6 L -259.9 -4919.8 L -218.1 -4738.1 L -279.2 -4614.5 L -377.5 -4499.5 L -423.5 -4426.4 L -428.1 -4404.5 L -404.6 -4374.7 L -333.6 -4341.7 L -281.1 -4341.7 L -38.3 -4453.3 L 177.2 -4486.2 L 450.7 -4590.2 L 454.7 -4611.4 L 435.9 -4675.2 L 402.1 -4716.2 L 496.5 -4749.4 L 701.9 -4750.2 L 893.8 -4750.2 L 960.7 -4831.7 L 986.9 -4847.9 L 1207.8 -4998.5 L 1302.2 -5037 L 1619.8 -5038.4 L 2005.1 -5038.6 L 2026 -5090.2 L 2093 -5100.7 L 2181.8 -5133.1 L 2256 -5228.2 L 2319.8 -5390.9 L 2479.3 -5548.7 L 2548.8 -5493.8 L 2689 -5529.3 L 2781.8 -5469 L 2781.6 -5183.8 L 2918.4 -5065.7 L 2954.5 -4997.1 L 2731.2 -4895.8 L 2516.4 -4823.6 L 2295.5 -4761.7 L 2184.9 -4637.6 L 2149.4 -4590.6 L 2147.3 -4479.7 L 2216.3 -4368.9 L 2303.1 -4363.6 L 2281.1 -4439.9 L 2343.9 -4393.5 L 2327.1 -4333.8 L 2186 -4299.9 L 2085.6 -4303.9 L 1930.9 -4267.4 L 1840 -4257 L 1718.4 -4246.7 L 1544.1 -4186.1 L 1851.2 -4225.5 L 1913.1 -4185.9 L 1620.4 -4123.2 L 1487.2 -4122.8 L 1493.4 -4148.4 L 1429.8 -4090.4 L 1491.3 -4080.9 L 1446.2 -3930.7 L 1294 -3769.7 L 1278.5 -3823.4 L 1232.5 -3834.3 L 1164 -3886.6 L 1207.5 -3774 L 1259.3 -3736.8 L 1262.5 -3657.8 L 1195.4 -3576.5 L 1077.8 -3409.5 L 1058.7 -3417.8 L 1123.4 -3560.1 L 1016.6 -3640 L 992.1 -3813.7 L 951.8 -3723.3 L 996.4 -3590.7 L 858.3 -3623.4 L 1002.2 -3556.1 L 1011.2 -3357.1 L 1071.2 -3342.7 L 1092.9 -3270.3 L 1122.3 -3061.1 L 989.3 -2906 L 773 -2844 L 635.6 -2721.3 L 531.2 -2707.9 L 425.3 -2631.1 L 395.4 -2560.9 L 165.9 -2425.2 L 48 -2325.7 L -50.5 -2201.7 L -82.7 -2053.2 L -45.8 -1908 L 24 -1729.1 L 116.9 -1581.1 L 118.1 -1490.7 L 217.1 -1248.2 L 210.5 -1107.2 L 201.4 -1025.9 L 149.2 -898.2 L 86.7 -871.8 L -16.2 -897.2 L -49.2 -988.9 L -128.6 -1037 L -239.5 -1216.8 L -336.7 -1376.8 L -368.1 -1458.6 L -325.2 -1597.4 L -383.7 -1712.4 L -546.7 -1887.3 L -628.4 -1919.4 L -839.3 -1824.5 L -876.7 -1834.9 L -978.2 -1932.4 L -1109.3 -1984.2 L -1345.6 -1957.9 L -1531.2 -1981 L -1690.6 -1966.6 L -1777.1 -1934 L -1739.4 -1878.4 L -1742.8 -1793.6 L -1698.4 -1752.3 L -1738.3 -1724.8 L -1815.9 -1755.7 L -1894.3 -1716 L -2046 -1722.5 L -2202.1 -1833 L -2384.5 -1806.9 L -2536.6 -1855.3 L -2666.7 -1840.7 L -2842.6 -1791.8 L -3033 -1636.8 L -3240.8 -1546.6 L -3354.9 -1446.8 L -3403 -1352.7 L -3405.1 -1208.4 L -3394.6 -1108.1 L -3354.9 -1037 L -3436.5 -1030.7 L -3584.9 -1076.7 L -3748 -1141.5 L -3806.5 -1239.8 L -3852.5 -1386.2 L -3975.9 -1505.4 L -4048.2 -1627.9 L -4153.1 -1771 L -4300.5 -1854.4 L -4471.5 -1850.4 L -4603.2 -1685.2 L -4776.7 -1747.9 L -4884.8 -1811 L -4936.8 -1926 L -5006.2 -2035.2 L -5130.4 -2127.2 L -5237.3 -2193.3 L -5313.6 -2267.4 L -5675.8 -2267.5 L -5676.2 -2181.2 L -5842 -2181.1 L -6257.8 -2179.6 L -6734.9 -2326.9 L -7050.6 -2428.5 L -7031 -2469.4 L -7296.6 -2446.8 L -7534.2 -2430.6 L -7569.3 -2537.5 L -7704.8 -2657.7 L -7802.4 -2682.7 L -7825.3 -2742.7 L -7942.6 -2753.2 L -8017.4 -2809.8 L -8211.6 -2830.4 L -8265 -2864.1 L -8290.4 -2978.8 L -8493.2 -3188.9 L -8667.4 -3479.5 L -8660 -3528 L -8752.2 -3597 L -8914.1 -3772.2 L -8942.9 -3942.7 L -9054.3 -4056.9 L -9008.5 -4230.2 L -9015.8 -4409.5 L -9082.5 -4569.8 L -9000.8 -4766.8 L -8975.4 -4956.6 L -8950 -5146.3 L -8987.7 -5426.8 L -9053.8 -5605.7 L -9114.8 -5702.7 L -9089.5 -5743.6 L -8787.1 -5672.5 L -8675.7 -5475.2 L -8624 -5530.4 L -8657.5 -5701.8 L -8728.5 -5873.3 Z M -15537 173.7 L -15499.9 191.8 L -15465.9 219.8 L -15412.6 293.1 L -15417.7 304.7 L -15499.4 349.3 L -15566.3 382 L -15596.8 417 L -15648.8 387 L -15642.8 328.6 L -15677.4 252.5 L -15667 229.2 L -15630.7 195.1 L -15645.1 154 L -15633 134.5 L -15617.1 138.4 L -15537 173.7 Z M -15661.1 30.6 L -15678.6 55.7 L -15748.7 70.7 L -15784.7 26.7 L -15808.7 9.7 L -15810.6 -3.4 L -15790.1 -21.3 L -15715.8 -1.5 L -15661.1 30.6 Z M -15820.5 -55.7 L -15827 -33.1 L -15939.1 -39.2 L -15923.4 -64.6 L -15820.5 -55.7 Z M -16085.5 -168.6 L -16068 -155.2 L -16007.6 -86.1 L -16018.9 -74 L -16033.9 -76.7 L -16106.7 -84 L -16133.3 -131.5 L -16141.4 -139.8 L -16085.5 -168.6 Z M -16365.7 -272.7 L -16361.4 -224 L -16386.2 -203.3 L -16456.7 -241.5 L -16445.8 -256.7 L -16413.9 -277.2 L -16365.7 -272.7 Z M -17850.7 -8253.6 L -17684.8 -8234.7 L -17664.9 -8154.4 L -17793.2 -8121.9 L -17930.3 -8161 L -18057.2 -8217.8 L -17850.7 -8253.6 Z M -15082.6 -7748.6 L -14943.7 -7734.5 L -14855.2 -7669.6 L -15036 -7570.2 L -15244.9 -7490.5 L -15351.8 -7544.5 L -15384.1 -7642.4 L -15194.2 -7716.7 L -15082.6 -7748.6 Z M -12522.7 -10204 L -12522.7 -10204 L -12524.1 -9427.8 L -12525.2 -8237.3 L -12319.3 -8231.1 L -12115.6 -8173.3 L -11969.6 -8081.7 L -11783.9 -7944.3 L -11580.5 -8061.2 L -11370.6 -8128.9 L -11259.6 -8020.7 L -11118.7 -7935.1 L -10927.3 -7840.9 L -10796.5 -7690.9 L -10582.7 -7452.3 L -10227.3 -7319.3 L -10221.5 -7187.4 L -10337.7 -7086.6 L -10337.7 -7086.6 L -10337.7 -7086.6 L -10452.7 -7165.2 L -10637 -7231.9 L -10696.1 -7414.3 L -10965.6 -7583.4 L -11078.3 -7780.8 L -11279.1 -7794.3 L -11611.5 -7799.4 L -11856.5 -7859.6 L -12288.9 -8076.6 L -12489.1 -8116.3 L -12854.8 -8190.9 L -13144.3 -8173.1 L -13555.5 -8269.2 L -13804.1 -8358.2 L -14036.2 -8314 L -13993.1 -8168.7 L -14108.6 -8155.3 L -14350.6 -8111.7 L -14534.6 -8041.2 L -14766.3 -7996.8 L -14796.2 -8119.9 L -14702.2 -8325 L -14480 -8389.4 L -14537.3 -8441.8 L -14803.9 -8325.3 L -14946.6 -8186.2 L -15247.8 -8037.4 L -15094.8 -7935.9 L -15292.4 -7785.7 L -15517.2 -7698.2 L -15726.5 -7634.4 L -15778.3 -7541.8 L -16104.7 -7433.8 L -16170.8 -7335.7 L -16415.4 -7246.3 L -16558.9 -7262.4 L -16754.1 -7204.1 L -16966.3 -7132.9 L -17140.2 -7062.9 L -17499 -7003.2 L -17531.7 -7038.4 L -17303 -7136.1 L -17098.5 -7200.6 L -16875.6 -7314.9 L -16616.2 -7338.6 L -16513.1 -7424.3 L -16223.3 -7549.5 L -16176.6 -7591.3 L -16022.2 -7665.2 L -15986.1 -7823.7 L -15879.8 -7947.2 L -16120.9 -7883.8 L -16188.3 -7919.8 L -16301.5 -7843.8 L -16438.1 -7949.8 L -16494.5 -7874.8 L -16572.6 -7979 L -16781.7 -7895.3 L -16910 -7895.5 L -16928 -8020 L -16890.2 -8096.7 L -17024.9 -8171.1 L -17296.7 -8131 L -17473.2 -8229.2 L -17616.2 -8279.4 L -17617.2 -8397.8 L -17778.3 -8486.9 L -17697.4 -8607.1 L -17526.9 -8723.8 L -17452.3 -8831.1 L -17283.2 -8846.4 L -17139.7 -8813 L -16971 -8913.8 L -16819.2 -8895.8 L -16659.9 -8960.7 L -16698.7 -9056.2 L -16815.8 -9093.8 L -16661 -9174.5 L -16789.4 -9172.1 L -17011.3 -9126.6 L -17075 -9080.4 L -17239.9 -9126.5 L -17535.6 -9103.1 L -17841.8 -9153.2 L -17929.6 -9237.3 L -18194.2 -9358.8 L -17900.4 -9446.3 L -17434 -9548.4 L -17262.1 -9548.4 L -17290.5 -9443.9 L -16849.2 -9452.1 L -17018.9 -9581.6 L -17276.1 -9661.2 L -17424.8 -9765.8 L -17625.4 -9854.9 L -17912.7 -9921 L -17795.7 -10030.6 L -17424.8 -10037.4 L -17160.9 -10132.7 L -17111.1 -10234.5 L -16897.5 -10333.9 L -16693.8 -10357.8 L -16297.5 -10450.6 L -16105.2 -10436.6 L -15783.4 -10548.1 L -15467.1 -10504.2 L -15315.8 -10409.8 L -15222.9 -10450.3 L -14869.5 -10437.7 L -14882.1 -10389.6 L -14562.2 -10354.1 L -14348.9 -10375 L -13908.4 -10308.9 L -13506.3 -10289.3 L -13345.3 -10262.1 L -13067.1 -10296.1 L -12749.9 -10233.2 L -12522.7 -10204 L -12522.7 -10204 Z M -18951.3 -8964.2 L -18822.3 -8924.4 L -18692 -8945.8 L -18522.9 -8890.7 L -18315.2 -8862.7 L -18332.5 -8840 L -18490.9 -8795.7 L -18650 -8841.2 L -18729.7 -8879.1 L -18914 -8867 L -18963.8 -8885.4 L -18951.3 -8964.2 Z" />
<path class="neighbor" d="M -245.3 -476.3 L -64.8 -461.4 L 99.5 -459.1 L 295.9 -387.8 L 379.1 -311.3 L 574.4 -334.9 L 648.5 -285.8 L 825.6 -156.3 L 955.7 -62 L 1024.6 -64.8 L 1149.3 -22.2 L 1134 36.7 L 1288.2 45.3 L 1446.2 130.9 L 1421.4 179.8 L 1282.4 206.4 L 1141.7 216.8 L 997.6 200.2 L 698.2 220.6 L 838.4 103.9 L 753.2 49.6 L 618.4 35.7 L 546.1 -24.7 L 496.6 -143.8 L 378.4 -135.6 L 183.4 -191.7 L 120.7 -235.6 L -151.8 -268 L -224.8 -308.7 L -146.4 -361 L -351.5 -371.7 L -501.8 -263 L -588.4 -260.1 L -618.4 -209.1 L -721.8 -186.2 L -811.3 -206.1 L -700.9 -270.7 L -655.6 -346.1 L -561.1 -392.6 L -454.3 -433.4 L -296 -453.4 L -245.3 -476.3 Z" />

<path class="country" d="M 737.1 506 L 877.8 524.7 L 988.9 575 L 1023.5 632.2 L 876.6 636.1 L 813 671.1 L 696 637.5 L 576.5 561.3 L 601.6 513.5 L 689.5 498.9 L 737.1 506 Z" />


<g class="city"><circle cx="904.8078636363637" cy="613.3506363636363" r="5" /><text x="916.8078636363637" y="617.3506363636363">Kingston</text></g>
<g class="city"><circle cx="1102.630445454544" cy="185.14500000000126" r="5" /><text x="1114.630445454544" y="189.14500000000126">Santiago de Cuba</text></g>
<text class="map-title" x="80" y="105">Jamaica Political Study Map</text>
<text class="map-subtitle" x="80" y="145">Capital: Kingston | Continent: North America</text>
  <text class="footer" x="80" y="1036">Made with Natural Earth. Free vector and raster map data @ naturalearthdata.com.</text>
</svg>
