<?xml version="1.0" encoding="UTF-8"?>
<svg xmlns="http://www.w3.org/2000/svg" width="1600" height="1100" viewBox="0 0 1600 1100" role="img" aria-labelledby="title desc">
  <title id="title">Jordan Physical Study Map</title>
  <desc id="desc">Made with Natural Earth. Free vector and raster map data @ naturalearthdata.com.</desc>
  <defs>
    <linearGradient id="terrain" x1="0" x2="1" y1="0" y2="1">
      <stop offset="0%" stop-color="#6c8c53" />
      <stop offset="42%" stop-color="#d5c487" />
      <stop offset="72%" stop-color="#b88b5f" />
      <stop offset="100%" stop-color="#f1f5ee" />
    </linearGradient>
    <filter id="softShadow" x="-10%" y="-10%" width="120%" height="120%">
      <feDropShadow dx="0" dy="10" stdDeviation="12" flood-color="#0f172a" flood-opacity="0.16" />
    </filter>
    <style>
      .neighbor { fill: #ffffff; stroke: #94a3b8; stroke-width: 1.2; opacity: 0.72; }
      .country { fill: url(#terrain); stroke: #1f2937; stroke-width: 4; filter: url(#softShadow); }
      .admin1 { fill: none; stroke: #64748b; stroke-width: 1.1; stroke-dasharray: 6 7; opacity: 0.75; }
      .river { fill: none; stroke: #1d9bd1; stroke-width: 3; stroke-linecap: round; opacity: 0.88; }
      .lake { fill: #8ed1ea; stroke: #0ea5e9; stroke-width: 1.5; opacity: 0.8; }
      .city circle { fill: #ef4444; stroke: #ffffff; stroke-width: 2; }
      .city text, .terrain-label { fill: #172033; font: 700 24px system-ui, sans-serif; paint-order: stroke; stroke: #ffffff; stroke-width: 5; stroke-linejoin: round; }
      .map-title { fill: #0f172a; font: 800 46px system-ui, sans-serif; }
      .map-subtitle { fill: #475569; font: 600 24px system-ui, sans-serif; }
      .footer { fill: #64748b; font: 500 18px system-ui, sans-serif; }
    </style>
  </defs>
  <rect width="100%" height="100%" fill="#d8edf0" />
  <rect x="40" y="40" width="1520" height="1020" rx="32" fill="#ffffff" opacity="0.54" />
  <path class="neighbor" d="M 652.7 428.7 L 633.5 463.3 L 593.7 448.1 L 570.7 521.4 L 598.3 533.7 L 570.2 548.8 L 565.5 577.8 L 617.2 562.9 L 619.8 605.7 L 565 781.6 L 554 753 L 492.7 592.6 L 492.7 592.6 L 492.7 592.6 L 524.7 556.3 L 517.2 550.1 L 546.3 498.7 L 568.6 415.7 L 584.3 387.8 L 587.3 386.7 L 624.2 386.9 L 634.3 367.6 L 663.8 366.1 L 665.5 411.2 L 650.6 427.9 L 652.7 428.7 Z" />
<path class="neighbor" d="M 663.8 366.1 L 634.3 367.6 L 624.2 386.9 L 587.3 386.7 L 626.5 297 L 681.2 219.5 L 683.3 215.7 L 732.8 221.3 L 750.8 264.4 L 690.8 305.9 L 663.8 366.1 Z" />
<path class="neighbor" d="M 617.2 562.9 L 565.5 577.8 L 570.2 548.8 L 598.3 533.7 L 570.7 521.4 L 593.7 448.1 L 633.5 463.3 L 633.5 530.6 L 617.2 562.9 Z" />
<path class="neighbor" d="M 1035 489 L 990.7 355 L 1234.2 240.5 L 1275.8 107.5 L 1265.4 27.1 L 1325.7 0 L 1382 -68.7 L 1429.3 -85.8 L 1557.3 -71.6 L 1595.9 -43.6 L 1648.6 -62.2 L 1719.9 69.1 L 1792.1 102.1 L 1800.4 166.4 L 1745 204.3 L 1719.5 290.2 L 1795.7 394.8 L 1930.5 455.1 L 1987.1 538.7 L 1969.1 618.4 L 2004.2 618.3 L 2005.3 676.9 L 2066.2 734.8 L 2000.9 729.4 L 1927 720.2 L 1846.2 825.8 L 1641.7 817 L 1331.5 595.8 L 1167.6 518.8 L 1035 489 Z" />
<path class="neighbor" d="M 652.7 428.7 L 650.6 427.9 L 665.5 411.2 L 663.8 366.1 L 690.8 305.9 L 750.8 264.4 L 732.8 221.3 L 683.3 215.7 L 673 131.5 L 700 86.2 L 729.4 62.1 L 758.9 38 L 764.8 -23.3 L 800.8 -1.9 L 922 -32.5 L 980.5 -11.8 L 1071 -12.2 L 1197.6 -53.4 L 1256.9 -51.6 L 1382 -68.7 L 1325.7 0 L 1265.4 27.1 L 1275.8 107.5 L 1234.2 240.5 L 990.7 355 L 775.2 472.2 L 652.7 428.7 Z" />
<path class="neighbor" d="M 568.6 797.5 L 691.1 815 L 738.6 781.1 L 765 741.5 L 848.9 726.3 L 867 689.5 L 903.4 670.8 L 793.7 560.8 L 1014.1 505.6 L 1035 489 L 1167.6 518.8 L 1331.5 595.8 L 1641.7 817 L 1846.2 825.8 L 1944.3 836.5 L 1971.7 888.9 L 2049.5 886 L 2092.5 980.9 L 2146.7 1006 L 2165.5 1044.7 L 2240.5 1090.9 L 2247.1 1136.3 L 2236.2 1172.9 L 2250.1 1209.9 L 2281.7 1240.7 L 2296.4 1276.8 L 2312.8 1303.8 L 2346.1 1325.6 L 2376.6 1317.8 L 2397.5 1359.8 L 2401.7 1385.2 L 2443.8 1496.7 L 2774.6 1552.2 L 2796.7 1528.9 L 2847.1 1606.8 L 2773.8 1826.9 L 2443.8 1936.9 L 2126.5 1979.1 L 2023.9 2028.6 L 1945 2144.1 L 1893.7 2162.4 L 1866.2 2125.8 L 1824 2131.3 L 1717.6 2120.3 L 1697.5 2109.3 L 1570.5 2111.8 L 1540.7 2121.7 L 1495.5 2093.1 L 1466.3 2147.2 L 1477.6 2193.6 L 1429.3 2228.7 L 1415.1 2181.7 L 1381.9 2148.6 L 1373.4 2104.7 L 1316.6 2065.3 L 1257.9 1973 L 1226.9 1883.4 L 1150.8 1807.7 L 1101.7 1789.6 L 1028.9 1684.7 L 1016.1 1608.3 L 1020.8 1543.1 L 957.7 1421.1 L 906.1 1378.2 L 846.7 1355.4 L 810.5 1292.4 L 816.6 1267.5 L 786 1210.5 L 753.9 1185.9 L 710.9 1104.1 L 643.9 1015.3 L 587.8 939.8 L 533 940.3 L 550.1 879.9 L 555 841.4 L 568.6 797.5 Z" />
<path class="neighbor" d="M 323.9 161.2 L 331.7 160.6 L 347.6 134.1 L 426.8 135.6 L 526.9 102.7 L 452.5 149.6 L 460.6 170.2 L 448.8 166.3 L 427.7 174.7 L 411.3 172.4 L 405.8 176.6 L 403.6 165.5 L 395.7 158.7 L 374.4 157.6 L 344.6 167 L 323.9 161.2 Z" />
<path class="neighbor" d="M 323.9 161.2 L 344.6 167 L 374.4 157.6 L 395.7 158.7 L 403.6 165.5 L 405.8 176.6 L 411.3 172.4 L 427.7 174.7 L 448.8 166.3 L 460.6 170.2 L 464 179 L 351.2 223.7 L 297.4 209.5 L 271.7 165.3 L 323.9 161.2 Z" />
<path class="neighbor" d="M 778.8 1606.8 L 342.4 1606.8 L -84.4 1606.8 L -526.7 1606.8 L -526.7 1201.7 L -526.7 810.5 L -559.7 721.8 L -531.4 653.9 L -548.4 606.9 L -508.6 554.1 L -362.2 552.3 L -256.3 581.4 L -147.1 613.9 L -96.1 631 L -11.4 596.1 L 33.8 564.6 L 130.9 555.5 L 209.1 569.4 L 239.1 624 L 264.6 588.1 L 352.8 614 L 438.5 620.3 L 492.7 592.6 L 492.7 592.6 L 554 753 L 565 781.6 L 534.1 825.8 L 510.4 908.9 L 480.5 966.2 L 454.8 985.4 L 418.1 949.9 L 368.5 900.8 L 290 743.1 L 278.7 753.1 L 324.3 869.2 L 391.8 979.8 L 475 1151.1 L 515.6 1210.9 L 550.9 1273.1 L 649.6 1394.9 L 627.8 1414.1 L 631.3 1485.6 L 759.5 1584.3 L 778.8 1606.8 Z" />
<path class="lake" d="M 637.9 537 L 635.8 553.5 L 633.4 577.2 L 630.8 580.7 L 620 580.9 L 617.8 578.4 L 617.7 562.5 L 619.8 548.6 L 624.4 538.5 L 630.9 533.5 L 635 532.5 L 637.9 537 L 637.9 537 L 637.9 537 L 637.9 537 Z" />
<path class="lake" d="M 631 597.2 L 630.3 599.7 L 629.4 602.9 L 628.3 605.2 L 624 606.1 L 619.3 605.2 L 616.5 601.8 L 614.9 597.1 L 615.5 593 L 617.6 591.3 L 622.5 591.2 L 627.8 594.1 L 631 597.2 L 631 597.2 L 631 597.2 L 631 597.2 Z" />
<path class="lake" d="M 643 420.7 L 641.2 424.3 L 636.9 427.4 L 634.1 424.2 L 632.2 418.3 L 632.8 412.5 L 635.6 408.6 L 639.4 407.7 L 642 410 L 643.4 414.9 L 643 420.7 L 643 420.7 L 643 420.7 L 643 420.7 Z" />
<path class="country" d="M 633.5 463.3 L 652.7 428.7 L 775.2 472.2 L 990.7 355 L 1035 489 L 1014.1 505.6 L 793.7 560.8 L 903.4 670.8 L 867 689.5 L 848.9 726.3 L 765 741.5 L 738.6 781.1 L 691.1 815 L 568.6 797.5 L 565 781.6 L 619.8 605.7 L 617.2 562.9 L 633.5 530.6 L 633.5 463.3 Z" />

<path class="river" d="M 620 580.9 L 624.7 554.8 L 628.4 542.7 L 635 532.5 M 639.4 407.7 L 636.9 427.4" />
<path class="river" d="M 965.1 81.7 L 1004.3 76.2 L 1038.5 79.7 L 1080.9 90.4 L 1105.2 101.5 L 1111.3 112.9 L 1124 124.6 L 1143.3 136.7 L 1152.5 143.9 L 1151.8 146.1 L 1155.9 148.8 L 1165 151.8 L 1170.2 158.2 L 1171.7 167.9 L 1175.8 174.9 L 1182.5 179.1 L 1187.8 185.6 L 1191.8 194.5 L 1201.7 203.9 L 1217.6 213.7 L 1225.6 222.7 L 1225.8 231 L 1227.6 236.2 L 1232.8 239.5 M 906.4 -25.3 L 909.7 -14.9 L 914.8 -9.8 L 922.7 -6.4 L 928.9 -1.4 L 933.5 5.2 L 932.8 13.6 L 923.7 28.9" />
<path class="river" d="M 1724.6 583.1 L 1733.1 591.5 L 1749 596.4 L 1775.1 600.7 L 1797 607.2 L 1823.6 620.5 L 1836.8 627.4 L 1847.4 627.5 L 1859.8 623.1 L 1881.1 621.2 L 1911.3 621.9 L 1930.1 620.4 L 1937.6 616.7 L 1942.3 616.2 L 1945.2 620.2 M 1232.8 239.5 L 1246.7 244 L 1253 243.4 L 1256.5 239.3 L 1263.9 237.9 L 1275.4 239.3 L 1280.9 238.7 L 1282.9 238.3 L 1285.3 237.2 L 1288.8 238.7 L 1298.6 237.3 L 1312.5 232 L 1324.6 230.6 L 1334.9 233.4 L 1342.4 237.6 L 1349.6 246 L 1357 253.4 L 1362.2 254.9 L 1367.8 253 L 1370.9 254 L 1372.5 254.8 L 1375.1 254.5 L 1376.9 249.9 L 1379.9 248.5 L 1383.8 250.4 L 1383.9 253.4 L 1380 257.6 L 1380.1 261.2 L 1384.2 264.1 L 1385.8 268.4 L 1384.9 274.1 L 1389.5 280.2 L 1392.7 282.2 L 1399.7 286.6 L 1404.2 292.9 L 1403.2 299 L 1405.6 300.9 L 1411.5 298.6 L 1417.6 298.8 L 1423.9 301.4 L 1425.8 306.5 L 1423.2 313.9 L 1428 322.8 L 1440.1 333.2 L 1449.8 339.4 L 1457.2 341.3 L 1462.3 341.1 L 1465.2 338.8 L 1470.7 340 L 1478.7 344.8 L 1485.3 346.6 L 1490.3 345.4 L 1503.6 348 L 1512.5 350.7 L 1525.1 354.5 L 1539 362.4 L 1545.2 371.8 L 1549.6 374.8 L 1553.2 374.8 L 1557.9 375.2 L 1566.8 379.1 L 1577 390.8 L 1591.5 415.6 L 1592.5 419.4 L 1592.6 426.7 L 1589.7 438 L 1591.7 452.1 L 1599 468.3 L 1602.7 480.8 L 1602.8 489.4 L 1606.2 498.7 L 1612.9 508.7 L 1616.1 520.1 L 1615.9 532.8 L 1623.9 545.4 L 1648.3 564 L 1678.2 568.2 L 1691 572.4 L 1696.7 578 L 1705.9 581.3 L 1725 583.1" />
<path class="river" d="M 620.1 581 L 617.6 591.3 M 636.9 427.4 L 634.1 463.2 L 636.4 480.5 L 632.3 495.3 L 631.9 508.3 L 635 532.5 M 668.5 331.1 L 650 349.3 L 641.6 369.8 L 638.9 384.5 L 639.4 407.7" />
<path class="river" d="M 297.3 2307.1 L 302.3 2262.5 L 312.6 2238.7 L 329.7 2220.9 L 345.6 2211.1 L 360.1 2209.1 L 371.6 2204.7 L 379.9 2197.8 L 392.9 2191.5 L 410.5 2185.7 L 423.3 2176.2 L 431.1 2163.1 L 433.9 2153.7 L 431.8 2148.2 L 432.1 2140.3 L 434.9 2129.8 L 442.6 2115.2 L 455.2 2096.5 L 458.2 2080.1 L 460 2069.8 L 457 2035.1 L 452.5 2016.3 L 446.4 2013.4 L 439.7 2006.9 L 432.5 1996.8 L 428.5 1985.9 L 427.7 1974.1 L 424.4 1967.3 L 418.4 1965.4 L 415.8 1953.7 L 416.6 1932.1 L 412.7 1917.8 L 404.4 1910.8 L 398.9 1903.1 L 395.2 1890.3 L 368.7 1881.6 L 355.4 1880.7 L 346.7 1884.8 L 335.6 1894.8 L 322.3 1910.7 L 311.6 1919.2 L 303.5 1920.2 L 294.9 1927.8 L 285.8 1942 L 277.1 1949 L 268.7 1948.9 L 260.3 1951.7 L 251.7 1957.6 L 247.7 1965.1 L 248.3 1974.2 L 243.9 1980.2 L 234.7 1983.1 L 221.4 1997.1 L 204 2022.4 L 185.6 2038.4 L 166 2045.2 L 149.5 2046.7 L 135.9 2042.9 L 123.6 2037.3 L 112.4 2030 L 105.2 2018.6 L 102.2 2003.2 L 97.5 1992 L 91.1 1985.1 L 85.2 1974.3 L 79.6 1959.6 L 76.9 1938.2 L 77.1 1910.2 L 73.8 1885.1 L 67 1862.9 L 61.9 1850.4 L 61.6 1846.5 L 64.1 1842.6 L 78.4 1836.3 L 86.7 1830.5 L 88.8 1825.1 L 89.4 1816.1 L 88.4 1803.3 L 86.2 1794.9 L 82.7 1790.7 L 77.2 1788.3 L 69.8 1787.5 L 63.7 1781 L 58.7 1768.9 L 58.2 1759.1 L 62.1 1751.7 L 63.3 1746 L 64.1 1741.7 L 67.1 1738.3 L 79.5 1734.4 L 86.8 1727.8 L 88.8 1718.5 L 92.9 1712 L 99 1708.5 L 101.4 1703.6 L 100.2 1697.4 L 107.3 1689.5 L 122.7 1679.8 L 130.1 1672.9 L 129.5 1668.9 L 132.8 1662.7 L 143.4 1649.8 M 340.2 1388.2 L 343.9 1350.7 L 343.8 1336.9 L 341.3 1334.2 L 341.5 1327.4 L 344.6 1316.5 L 344.7 1302.1 L 341.9 1284.1 L 339.2 1272.7 L 336.7 1267.7 L 327.8 1260.3 L 312.6 1250.5 L 302.9 1238.3 L 298.7 1223.6 L 297.7 1214.6 L 301 1209.5 L 320.9 1193.8 L 327.5 1180.1 L 327.4 1163 L 324.2 1152.6 L 318 1148.8 L 304.3 1151.1 L 283.2 1159.4 L 268.6 1158.3 L 260.4 1147.9 L 253.8 1145.9 L 248 1145.9 L 245.1 1144.8 L 243.1 1139.6 L 239.6 1134.1 L 229.3 1125.6 L 223.6 1117.8 L 222.8 1110.7 L 219.5 1107.2 L 213.7 1107 L 211.1 1104.7 L 211.7 1100.2 L 209.8 1097.3 L 205.5 1096 L 194.2 1082.9 L 174 1055.7 L 170.9 1050.5 L 166.8 1045.9 L 164 1043.3 L 160.4 1041 L 130 1017.6 L 118.9 1001.7 L 121.2 988.7 L 120.6 972.3 L 119.9 957.6 L 118.3 948.4 L 115.5 942.6 L 112.2 937.3 L 108.5 933.5 L 105.3 928.5 L 104.8 921.5 L 107.2 912.8 L 112.6 902.6 L 115.3 892.6 L 115.5 882.7 L 117.8 871.8 L 122.3 859.7 L 132.8 843 L 149.4 821.7 L 157.5 805.7 L 157.1 794.9 L 159.4 783 L 164.3 769.8 L 165 750.6 L 161.5 726.8 L 161.3 717.9 L 159.5 713.4" />
<g class="city"><circle cx="547.9555538122985" cy="497.6637864665832" r="5" /><text x="559.9555538122985" y="501.6637864665832">Tel Aviv</text></g>
<g class="city"><circle cx="716.2790386758226" cy="341.43562563872337" r="5" /><text x="728.2790386758226" y="345.43562563872337">Damascus</text></g>
<g class="city"><circle cx="629.334318857952" cy="300.51597858122227" r="5" /><text x="641.334318857952" y="304.51597858122227">Beirut</text></g>
<g class="city"><circle cx="675.9364281612582" cy="511.96219091641615" r="5" /><text x="687.9364281612582" y="515.9621909164161">Amman</text></g>
<g class="city"><circle cx="596.2043900888525" cy="531.0569847203826" r="5" /><text x="608.2043900888525" y="535.0569847203826">Jerusalem</text></g>
<g class="city"><circle cx="744.5441478277359" cy="904.5160254578184" r="5" /><text x="756.5441478277359" y="908.5160254578184">Tabuk</text></g>
<g class="city"><circle cx="512.4150535098732" cy="558.3860734895873" r="5" /><text x="524.4150535098732" y="562.3860734895873">Gaza City</text></g>
<g class="city"><circle cx="393.77502008399046" cy="158.29148799947205" r="5" /><text x="405.77502008399046" y="162.29148799947205">Nicosia</text></g>
<text class="map-title" x="80" y="105">Jordan Physical Study Map</text>
<text class="map-subtitle" x="80" y="145">Landmark: Petra Rock City | Study terrain and water systems</text>
  <text class="footer" x="80" y="1036">Made with Natural Earth. Free vector and raster map data @ naturalearthdata.com.</text>
</svg>
