<?xml version="1.0" encoding="UTF-8"?>
<svg xmlns="http://www.w3.org/2000/svg" width="1600" height="1100" viewBox="0 0 1600 1100" role="img" aria-labelledby="title desc">
  <title id="title">Japan Political Study Map</title>
  <desc id="desc">Made with Natural Earth. Free vector and raster map data @ naturalearthdata.com.</desc>
  <defs>
    <linearGradient id="terrain" x1="0" x2="1" y1="0" y2="1">
      <stop offset="0%" stop-color="#6c8c53" />
      <stop offset="42%" stop-color="#d5c487" />
      <stop offset="72%" stop-color="#b88b5f" />
      <stop offset="100%" stop-color="#f1f5ee" />
    </linearGradient>
    <filter id="softShadow" x="-10%" y="-10%" width="120%" height="120%">
      <feDropShadow dx="0" dy="10" stdDeviation="12" flood-color="#0f172a" flood-opacity="0.16" />
    </filter>
    <style>
      .neighbor { fill: #ffffff; stroke: #94a3b8; stroke-width: 1.2; opacity: 0.72; }
      .country { fill: #f7f1df; stroke: #1f2937; stroke-width: 4; filter: url(#softShadow); }
      .admin1 { fill: none; stroke: #64748b; stroke-width: 1.1; stroke-dasharray: 6 7; opacity: 0.75; }
      .river { fill: none; stroke: #1d9bd1; stroke-width: 3; stroke-linecap: round; opacity: 0.88; }
      .lake { fill: #8ed1ea; stroke: #0ea5e9; stroke-width: 1.5; opacity: 0.8; }
      .city circle { fill: #ef4444; stroke: #ffffff; stroke-width: 2; }
      .city text, .terrain-label { fill: #172033; font: 700 24px system-ui, sans-serif; paint-order: stroke; stroke: #ffffff; stroke-width: 5; stroke-linejoin: round; }
      .map-title { fill: #0f172a; font: 800 46px system-ui, sans-serif; }
      .map-subtitle { fill: #475569; font: 600 24px system-ui, sans-serif; }
      .footer { fill: #64748b; font: 500 18px system-ui, sans-serif; }
    </style>
  </defs>
  <rect width="100%" height="100%" fill="#eaf3f8" />
  <rect x="40" y="40" width="1520" height="1020" rx="32" fill="#ffffff" opacity="0.54" />
  <path class="neighbor" d="M 2106.6 -454.2 L 2147 -467.5 L 2147 -445.8 L 2112.3 -444.2 L 2106.6 -454.2 Z M -1999.4 328.1 L -2013.8 346.9 L -2044.5 352.1 L -2076 384.8 L -2047.2 414.9 L -2050.3 436.2 L -2015.8 473.6 L -2015.8 473.6 L -2034.7 486.3 L -2040.1 494.4 L -2054.1 492.2 L -2075.9 473 L -2084.8 471.9 L -2104.7 464.6 L -2114.4 451.6 L -2143.9 444.9 L -2163.1 449.9 L -2168.7 444 L -2211.8 428.8 L -2258.5 423.7 L -2285.2 418.3 L -2289.1 422 L -2329.5 395.3 L -2365.6 383.3 L -2393 364.7 L -2369.9 359.7 L -2343.6 333.2 L -2361.4 320.6 L -2314.7 307.7 L -2315.5 300.8 L -2343.9 305.9 L -2342.9 291.8 L -2326.6 283 L -2296 280.6 L -2291 270.1 L -2298 252.6 L -2285.1 236 L -2285.5 226.7 L -2332.2 216.4 L -2350.7 216.8 L -2370.2 201.9 L -2394.5 206.9 L -2434.8 195.8 L -2434.1 189.6 L -2445.4 175.8 L -2470.6 174.3 L -2473.2 164.5 L -2465.3 158.1 L -2485.6 140.1 L -2518.4 143.2 L -2528 141.6 L -2536 148.8 L -2547.9 147.5 L -2547.9 147.5 L -2555.7 127.2 L -2563.1 116.7 L -2557 113.8 L -2531.4 114.9 L -2519.1 107.9 L -2528.2 99.5 L -2549.6 93.9 L -2547.7 88.2 L -2560.6 82.4 L -2580.4 61.7 L -2573.7 53.1 L -2576.8 38.3 L -2607.7 30.7 L -2624.3 34.5 L -2628.8 26.6 L -2662.2 18.7 L -2672.4 0 L -2675.1 -15.4 L -2690.3 -22.7 L -2676.8 -32.7 L -2686.2 -62.3 L -2663.6 -80.5 L -2668.4 -86.1 L -2668.4 -86.1 L -2632.4 -103.6 L -2665.6 -118.6 L -2665.6 -118.6 L -2597.7 -159.1 L -2568.3 -177.4 L -2556.4 -193.5 L -2603.3 -215.2 L -2590.3 -235.9 L -2618.9 -259.4 L -2597.5 -286.6 L -2634.4 -322.6 L -2605.1 -346.5 L -2653.7 -367.6 L -2649 -389.8 L -2623.5 -392.7 L -2569.6 -405.4 L -2569.6 -405.4 L -2536.9 -416.5 L -2484.8 -397.3 L -2398.1 -389.8 L -2278.4 -353.9 L -2254.1 -338.9 L -2252 -317.8 L -2287.2 -301.2 L -2338.9 -292.7 L -2480.3 -316.8 L -2503.6 -312.8 L -2451.9 -289.6 L -2449.9 -274.9 L -2447.8 -242.5 L -2407.1 -232.8 L -2382.3 -224.6 L -2378.2 -240 L -2397.3 -253.6 L -2377.1 -265.6 L -2300.5 -245.9 L -2273.9 -253.6 L -2295.2 -276.8 L -2221.4 -307.8 L -2192.1 -306 L -2162.6 -294.9 L -2144.1 -316.7 L -2170.5 -335.6 L -2155 -354.5 L -2178.3 -374.2 L -2089.7 -364 L -2071.6 -346.3 L -2111.7 -342.4 L -2111.5 -324.7 L -2086.6 -313.9 L -2037.6 -320.8 L -2029.9 -341 L -1963.7 -356 L -1853.2 -383.2 L -1829.3 -381.7 L -1860.5 -362.5 L -1821.2 -359.2 L -1798.5 -370 L -1739.1 -370.9 L -1692.1 -384 L -1656 -364.9 L -1620 -385.9 L -1653.2 -404.2 L -1636.7 -414.7 L -1543.2 -405.1 L -1499.3 -395.2 L -1384.5 -359 L -1363.3 -375.6 L -1395.5 -392.3 L -1396.5 -399.1 L -1434.6 -402.2 L -1424.2 -417.2 L -1441.1 -441.9 L -1442.1 -452 L -1383.6 -480.7 L -1362.8 -509.5 L -1339.3 -515.7 L -1255.4 -507.4 L -1248.8 -489.8 L -1278.8 -464.1 L -1259.1 -454 L -1248.9 -431.8 L -1256.1 -388.4 L -1221.2 -369 L -1234.8 -347.9 L -1296.8 -302.9 L -1260.6 -298.2 L -1248 -309.6 L -1213.2 -317.7 L -1204.8 -333.4 L -1177.4 -348.5 L -1195.8 -366.5 L -1181 -387.4 L -1215.7 -390 L -1223.3 -407.6 L -1198 -439.4 L -1239.2 -465.3 L -1182.5 -486.6 L -1189.8 -509.2 L -1174 -509.9 L -1157.4 -492.3 L -1169.8 -461.7 L -1135.9 -456 L -1150.4 -478.8 L -1097.4 -491.3 L -1031.6 -492.9 L -973.1 -474.9 L -1001.3 -501.3 L -1004.4 -535 L -949.3 -541.4 L -873.2 -540 L -804.5 -544.1 L -830.3 -560.7 L -793.6 -581.5 L -757.2 -582.4 L -695.6 -598.1 L -612 -602.3 L -601.4 -611 L -518.2 -613.9 L -492.3 -606.8 L -421.2 -623.7 L -363 -623.1 L -354.3 -636.8 L -324 -650.3 L -249.3 -663.3 L -194.9 -653 L -238.1 -645.2 L -166.3 -640.4 L -157.8 -624.7 L -128.8 -632.4 L -36.2 -632 L 35.2 -616.5 L 60.6 -604.7 L 52.7 -588.2 L 17.7 -578.8 L -65.5 -561.2 L -89.3 -551.8 L -50.1 -547.4 L -3.2 -539.4 L 25.3 -545.4 L 41.5 -525.1 L 55.4 -533.3 L 106 -538.3 L 207.7 -533.1 L 215.4 -518.3 L 347.8 -513.6 L 349.6 -537.8 L 416.8 -532.2 L 467.4 -532.4 L 518.6 -515.7 L 533.2 -495.4 L 514.4 -482.2 L 554.2 -457.2 L 604 -444.4 L 634.6 -477.6 L 685.4 -463.4 L 739.4 -471.9 L 800.7 -462.1 L 824 -471 L 875.8 -466.6 L 853 -496 L 894.8 -509.7 L 1180.9 -489.1 L 1207.8 -470.3 L 1290.8 -446.1 L 1418.7 -452.1 L 1481.7 -446.9 L 1508.1 -433.8 L 1504.3 -410.6 L 1543.3 -401.6 L 1585.7 -408.1 L 1641.9 -408.9 L 1701.7 -402.7 L 1761.7 -406.2 L 1816.9 -378.1 L 1856.1 -388.2 L 1830.5 -408.4 L 1844.6 -422.5 L 1945.7 -413.7 L 2011.6 -415.5 L 2102.7 -400.4 L 2147 -386.6 L 2147 -260.4 L 2146.8 -260.2 L 2106.1 -246.3 L 2065 -248.6 L 2093.6 -231.8 L 2112.4 -205.7 L 2127.1 -197.2 L 2130.7 -184 L 2122.6 -175.7 L 2063.5 -182.6 L 1975 -158.7 L 1946.8 -155 L 1898.3 -132.8 L 1852.4 -113.3 L 1840.7 -98.9 L 1795.4 -120.8 L 1712.9 -96 L 1698.5 -107.7 L 1668 -94.2 L 1625.6 -98.5 L 1615.4 -77.7 L 1577.4 -47 L 1578.5 -34.2 L 1614.6 -27.1 L 1610.3 19 L 1580.9 20.2 L 1567.4 46.7 L 1580.6 60.3 L 1525.2 76.5 L 1514.2 112.6 L 1466.9 120.4 L 1457.5 152.6 L 1411.8 182.1 L 1400.1 160.2 L 1386.5 114 L 1368.8 43.6 L 1384.1 -0.3 L 1410.8 -19.2 L 1412.4 -34 L 1461.7 -41.1 L 1518.3 -81 L 1572.8 -113.5 L 1629.7 -138.8 L 1655.2 -183.5 L 1616.7 -180.8 L 1597.7 -154.7 L 1517.3 -119.9 L 1491.4 -158.9 L 1409.6 -148.1 L 1330.3 -95 L 1356.5 -75.6 L 1285.8 -67.3 L 1236.8 -64.1 L 1239.1 -87 L 1189.9 -91.8 L 1150.6 -76.2 L 1053.8 -81.7 L 949.6 -72.3 L 847 -10.4 L 725.6 64.3 L 775.5 68.3 L 791.1 88.1 L 821.8 95.1 L 842.1 79.3 L 876.8 81.4 L 922.6 116.2 L 923.6 143.2 L 898.9 174.8 L 896.2 212.6 L 881.9 263.3 L 834.2 309.1 L 823.6 331 L 780.6 367.9 L 737.9 404.5 L 717.4 423.2 L 675.2 441.8 L 655.3 442.2 L 635.4 426.8 L 592.8 450 L 587.9 460.5 L 587.9 460.5 L 587.9 460.5 L 587.9 460.5 L 583.5 455 L 583.5 455 L 583.3 438.9 L 599.5 438 L 604 400.6 L 595.7 373.5 L 622.9 362.3 L 661.3 367.9 L 682.6 337.1 L 693.5 302.4 L 705.8 290.8 L 722.4 262.3 L 670.1 271.6 L 642.6 284.1 L 594.5 284.1 L 581.6 254.3 L 544.1 231.8 L 489 221.7 L 477.3 190.7 L 466.2 171.2 L 454.4 157.6 L 434.8 125.6 L 407 114 L 359.6 104.5 L 317.6 105.4 L 278.2 111.1 L 252 126.9 L 269.4 134.4 L 269.8 151.9 L 252.2 162 L 223.6 195.6 L 223.9 209.6 L 179.3 229.6 L 141.2 217.6 L 103.4 220.3 L 86.8 209.6 L 67.9 206.2 L 21.5 228.5 L -20.2 233.8 L -49.4 241.6 L -89.3 236.5 L -118.6 236.8 L -137.9 220.6 L -168.9 205.4 L -200.6 201.2 L -240.7 205.4 L -270.6 211.2 L -315.6 197.9 L -321.7 174.2 L -358.9 166 L -387.7 162.3 L -423.2 149.2 L -456 182.1 L -443.1 200.7 L -473.9 222.8 L -519.7 214.8 L -551.3 213.7 L -572.5 198.9 L -605.5 198.4 L -633.1 188.7 L -681.3 203.6 L -741.7 230.9 L -775.1 236.3 L -787.5 239 L -804.3 219.6 L -845.1 223.8 L -858.6 210.4 L -880.7 204.2 L -896 185.9 L -913.5 180.2 L -959 188.4 L -1002.6 170.1 L -1019.5 186.7 L -1090.3 106.2 L -1130.7 81.8 L -1119.1 71.8 L -1198.5 101.7 L -1228.9 103.5 L -1226.2 86.3 L -1266.9 75.5 L -1300 83.2 L -1310 50.3 L -1366.9 43.5 L -1395.4 56.6 L -1474.6 68.3 L -1490.1 76.2 L -1608.6 87.2 L -1623.2 98 L -1600.3 119.7 L -1630.7 127.9 L -1624.8 136.6 L -1655.2 152 L -1603.8 173.8 L -1611.8 188.8 L -1656.3 187.4 L -1665.5 196.8 L -1706 180.4 L -1756.2 181 L -1789.8 194.4 L -1827.3 181.6 L -1897.1 159.6 L -1946.6 160.5 L -2012 194.9 L -2016 218.1 L -2048.5 199.7 L -2073.8 234.5 L -2064.6 240.9 L -2082.8 265 L -2056 286.4 L -2032.4 285.6 L -2012.3 306.7 L -2015.5 323 L -1999.4 328.1 Z M -584.2 -768.7 L -515.7 -775.8 L -454.1 -759.9 L -381.2 -729.2 L -389 -700.8 L -458.1 -696.8 L -546.3 -705.9 L -598.9 -718 L -623.2 -740.8 L -666.4 -747 L -584.2 -768.7 Z M -297.2 -713.4 L -216.9 -695.4 L -226.3 -682.6 L -404.9 -670.3 L -347 -711.9 L -321 -715.5 L -297.2 -713.4 Z M 842.9 -613.8 L 926.6 -612.4 L 1041.1 -595.6 L 1016.2 -572.1 L 899.4 -573 L 846.9 -565.5 L 784.1 -586.1 L 801.1 -607.9 L 842.9 -613.8 Z M 1140.4 -588.8 L 1219.9 -580.5 L 1183.3 -568 L 1132.7 -570.8 L 1073.8 -583.3 L 1081.4 -593.6 L 1140.4 -588.8 Z M 875.6 -526.2 L 905.7 -538.7 L 945.3 -541.6 L 990.3 -529.5 L 994.1 -521.2 L 946.1 -521 L 881.2 -524.5 L 875.6 -526.2 Z M -2134.1 -754.9 L -2072.3 -760.7 L -2024.2 -761 L -2017.7 -752.5 L -1999.5 -760.1 L -1969.6 -765.3 L -1922.7 -758.4 L -1934.9 -753.5 L -1977.4 -749.4 L -2005.9 -747 L -2010.3 -741.8 L -2047.4 -736.5 L -2081.7 -744 L -2063.6 -753.9 L -2134.1 -754.9 Z M -2834.7 77 L -2892.9 77.5 L -2931.9 73.9 L -2924.7 59.9 L -2881 49.7 L -2847.8 55.2 L -2833.8 60.2 L -2837.2 68.9 L -2834.7 77 Z M -1859.8 -538.2 L -1783.9 -566 L -1792.5 -580.4 L -1721.7 -597.1 L -1617.1 -617.5 L -1511.7 -623.4 L -1457.4 -635.1 L -1395.8 -639.3 L -1373.7 -626.8 L -1395 -616.9 L -1507.3 -601.2 L -1604 -586.1 L -1702.4 -555.9 L -1749.6 -525 L -1799.2 -494.6 L -1792.8 -468.2 L -1732.2 -442.3 L -1750.9 -439.5 L -1854.4 -443.6 L -1862.8 -457.7 L -1920.2 -466.2 L -1924.8 -483.3 L -1892.4 -490.1 L -1893.5 -507.3 L -1830.7 -534.3 L -1859.8 -538.2 Z M 972.3 96.7 L 983.2 127.3 L 982.4 158.4 L 995.5 190.4 L 1027.4 246.5 L 980.5 236.1 L 961 281.8 L 991.9 314.3 L 991 336.4 L 967 317.3 L 946.2 341.8 L 940.4 315.3 L 943.9 284.4 L 940.3 250.2 L 947.6 226.3 L 949 183.9 L 930.5 152.8 L 933.3 109.5 L 962.5 94.9 L 950 80.2 L 964.1 75.8 L 972.3 96.7 Z M -9095.8 -330.9 L -9098.5 -311.2 L -9077.2 -303.4 L -9084.5 -326.4 L -8998.5 -321.7 L -8936.5 -292 L -8967.9 -278.2 L -9019.8 -274.9 L -9020.6 -244 L -9033.3 -237.4 L -9063 -238.3 L -9087.1 -249.4 L -9129.2 -258.6 L -9136.3 -272.4 L -9168.5 -277.5 L -9204.5 -273.4 L -9221.7 -284.5 L -9214.8 -296.3 L -9252.8 -288.8 L -9238.5 -273.9 L -9256.5 -260.4 L -9256.5 -386.6 L -9178.8 -362.4 L -9095.8 -330.9 Z M -9215.1 -447.7 L -9256.5 -445.8 L -9256.5 -467.5 L -9252.4 -468.8 L -9225.5 -468.7 L -9179.7 -459.7 L -9182.4 -455.3 L -9215.1 -447.7 Z M -2495.6 341.7 L -2487.2 333.8 L -2464.7 340.6 L -2454.5 341.9 L -2450.4 348.1 L -2445.7 349.1 L -2445.4 351.8 L -2429.9 359.5 L -2397.6 357.6 L -2403.8 368.9 L -2438.5 374.4 L -2481.5 392.7 L -2499.1 386.3 L -2492.1 371.4 L -2526.7 362.1 L -2521.1 356 L -2490.8 345.5 L -2495.6 341.7 Z" />
<path class="neighbor" d="M 587.9 460.5 L 587.9 460.5 L 587.9 460.5 L 587.9 460.5 Z M 583.5 455 L 583.5 455 L 587.9 460.5 L 575.9 458.6 L 562.1 469.4 L 552.7 480.1 L 553.9 502.9 L 537.5 509.9 L 531.8 515.5 L 519.9 524.8 L 498.8 530 L 485.1 538.6 L 484.1 552.3 L 480.4 555.8 L 493 560.9 L 510.9 574.8 L 506.4 582.5 L 492.9 584.6 L 470.5 586.1 L 458.1 600.4 L 444 599.3 L 442 602.1 L 426.6 596.1 L 422.8 602.1 L 413.5 604.7 L 412.4 598.7 L 404.2 595.8 L 395.7 590.8 L 404.4 576.8 L 411.8 573.1 L 409 567.3 L 417.1 550.2 L 415 545.1 L 396.5 541.6 L 381.6 533.1 L 407.3 512.8 L 442.3 495.8 L 464 473.3 L 479.1 483.2 L 506.4 484.4 L 501.5 467.7 L 550.4 454 L 563 436.3 L 583.5 455 Z" />
<path class="neighbor" d="M 442 602.1 L 444 599.3 L 458.1 600.4 L 470.5 586.1 L 492.9 584.6 L 506.4 582.5 L 510.9 574.8 L 538.3 612.2 L 546.1 632.7 L 546.4 669.2 L 534.4 686.6 L 505.7 692.7 L 480.4 705.8 L 451.9 708.6 L 448.3 691.3 L 454.2 667.5 L 440.2 634.6 L 463.7 629.2 L 442 602.1 Z" />
<path class="neighbor" d="M -87 1221.5 L -112.9 1211.6 L -113.8 1184.4 L -98.2 1170 L -63.6 1161.2 L -45.4 1161.9 L -38.3 1174 L -52.3 1187.9 L -59.6 1206.2 L -87 1221.5 Z M -1012.4 456.4 L -1014.9 438.4 L -993.2 430.1 L -1021.7 375.1 L -958.9 362.4 L -942.7 355.4 L -919.9 298.7 L -857 309.1 L -839.4 294.8 L -837.9 263 L -811.6 260 L -787.5 239 L -775.1 236.3 L -766.8 258.5 L -740.1 275.3 L -695 287.1 L -673.1 312.7 L -685.3 349.7 L -673.9 363.4 L -636.3 368.8 L -593.6 373.2 L -555.3 393 L -535.8 396.5 L -521.3 425.7 L -502.7 444.5 L -467.8 443.8 L -402.4 450.9 L -360.3 446.5 L -329 451.2 L -282.2 470.4 L -243.8 470.4 L -229.8 480.3 L -192.9 463.2 L -141.8 452.2 L -94.3 451 L -57.3 439.9 L -34.5 422.9 L -12.4 412.3 L -17.5 401.8 L -27.6 389.7 L -11 369.2 L 6.8 372.1 L 39.4 378.5 L 71 361.7 L 119.3 349.4 L 142.5 328.5 L 164.8 319.5 L 210.8 315.3 L 235.8 318.9 L 239.2 307.6 L 210.5 285.5 L 185.1 275.3 L 160.8 287 L 129.5 282.1 L 111.6 286.1 L 103.4 273.2 L 125.8 241.5 L 141.2 217.6 L 179.3 229.6 L 223.9 209.6 L 223.6 195.6 L 252.2 162 L 269.8 151.9 L 269.4 134.4 L 252 126.9 L 278.2 111.1 L 317.6 105.4 L 359.6 104.5 L 407 114 L 434.8 125.6 L 454.4 157.6 L 466.2 171.2 L 477.3 190.7 L 489 221.7 L 544.1 231.8 L 581.6 254.3 L 594.5 284.1 L 642.6 284.1 L 670.1 271.6 L 722.4 262.3 L 705.8 290.8 L 693.5 302.4 L 682.6 337.1 L 661.3 367.9 L 622.9 362.3 L 595.7 373.5 L 604 400.6 L 599.5 438 L 583.3 438.9 L 583.5 455 L 563 436.3 L 550.4 454 L 501.5 467.7 L 506.4 484.4 L 479.1 483.2 L 464 473.3 L 442.3 495.8 L 407.3 512.8 L 381.6 533.1 L 337.3 542.3 L 313.9 557.1 L 279.8 565.8 L 296.7 551.1 L 290 538.8 L 315.1 517.5 L 298.4 500.9 L 270.8 512.1 L 235 534.1 L 215.5 554.5 L 184.4 556.1 L 168.3 570.8 L 185 592.3 L 210.9 597.5 L 212 611.7 L 237 620.9 L 272.5 598.3 L 300.6 610.6 L 321.1 611.5 L 326.3 628.1 L 281.4 636.9 L 266.6 654 L 235.8 669.9 L 219.5 692.1 L 253.6 709.5 L 266.1 740.7 L 285.4 769.7 L 306.9 794 L 306.4 817.5 L 286.5 826.2 L 294.1 843.1 L 312.7 852.9 L 307.8 878.7 L 299.8 903.8 L 282.1 906.7 L 259 941 L 233.3 982.5 L 203.9 1020.3 L 160.3 1049.6 L 116.3 1076.2 L 80.6 1079.9 L 61.2 1093.9 L 50.3 1083.7 L 32.3 1099.4 L -11.9 1115.3 L -45.5 1120.1 L -56.3 1153.6 L -73.8 1155.4 L -82.1 1132.4 L -74.6 1120.2 L -117.1 1110 L -132.1 1115.2 L -164 1107 L -179.1 1094.1 L -174.1 1075.9 L -203 1070.1 L -218.3 1058.2 L -245.3 1075.1 L -276.1 1078.7 L -301.3 1078.6 L -318.3 1086.3 L -334.8 1090.9 L -330 1127.2 L -346.9 1126.3 L -349.7 1118.9 L -350.7 1105.8 L -373.9 1115 L -387.6 1109.2 L -411.1 1097.3 L -401.9 1071 L -422 1064.8 L -429.5 1035.7 L -463 1040.9 L -459.2 1003.3 L -429.2 976.9 L -427.9 950.8 L -428.8 926.5 L -442.6 919 L -453.2 900.3 L -471.8 902.7 L -505.9 897.9 L -495.2 884.6 L -510.1 864.9 L -532.7 878.3 L -559.2 870.5 L -595.7 890.7 L -624.6 914.2 L -650.1 918.2 L -664 909.7 L -680.7 908.9 L -703.4 901.6 L -720.5 909.6 L -741.4 933.2 L -744.1 908.2 L -763.4 914.9 L -800.3 911.8 L -836.2 904.5 L -861.9 890.6 L -886.5 884.4 L -897.1 869.1 L -914.9 864.6 L -946.9 844 L -972.3 834.2 L -985.4 841.8 L -1029.4 819.7 L -1060.6 799.6 L -1069.5 764.7 L -1046.7 768.9 L -1045.7 752.8 L -1058.3 736.5 L -1055.1 710.7 L -1089.1 673.6 L -1141.2 660.8 L -1150.6 636.4 L -1174 621.7 L -1179.6 612.6 L -1184.4 594.5 L -1183.3 582.2 L -1202.5 575 L -1212.9 578.2 L -1221 548.9 L -1211.9 541.6 L -1216.3 534.2 L -1186.1 519.2 L -1164.2 513 L -1130.7 517.3 L -1118.7 497.1 L -1078 493.3 L -1066.8 480.7 L -1016.8 463.6 L -1012.4 456.4 Z" />
<path class="neighbor" d="M 302.7 1025.2 L 283.7 1076 L 270.1 1102 L 253.4 1075.2 L 249.8 1051.7 L 268.4 1020.6 L 293.8 996.6 L 308.2 1006.1 L 302.7 1025.2 Z" />

<path class="country" d="M 939.7 556.8 L 910.4 588.7 L 910.9 621.4 L 899 646.7 L 904.5 662.5 L 888 684.9 L 847.5 699.8 L 791.8 701.7 L 746.7 737.9 L 725.4 725.7 L 724.1 702 L 669 709 L 631.5 723.9 L 594.4 724.5 L 626.5 747.8 L 605.4 801.7 L 584.9 815 L 569.6 802.7 L 577.4 774.1 L 557.3 764.9 L 544.5 743.2 L 574.4 733.4 L 591 713.5 L 622.9 697.2 L 646.1 675.5 L 709.2 666.1 L 743 672.5 L 776.2 616.2 L 797.3 631.3 L 843.8 599.7 L 861.8 587.4 L 881.7 548.6 L 876.3 513 L 889.6 493 L 923.3 487.2 L 940.6 531.1 L 939.7 556.8 Z M 1026.1 405.4 L 1048.5 392 L 1055.5 427.5 L 1008.6 436.2 L 980.8 467.6 L 931 446 L 913.8 480.7 L 878.5 481.1 L 874.2 449.6 L 889.8 425.3 L 923.7 423.5 L 932.9 379.7 L 942.3 355 L 979.5 388 L 1003.8 398.6 L 1026.1 405.4 Z M 638.3 737.9 L 655.8 719 L 673.8 722.7 L 686.9 709.3 L 710.1 716.2 L 714.2 727 L 696.3 746.2 L 683.3 736 L 667.1 743.4 L 658.7 761.9 L 638 752.9 L 638.3 737.9 Z" />


<g class="city"><circle cx="872.021170226714" cy="667.4713673909429" r="5" /><text x="884.021170226714" y="671.4713673909429">Tokyo</text></g>
<g class="city"><circle cx="291.8730450221955" cy="809.0189151505203" r="5" /><text x="303.8730450221955" y="813.0189151505203">Shanghai</text></g>
<g class="city"><circle cx="737.5329047761228" cy="699.0167680491486" r="5" /><text x="749.5329047761228" y="703.0167680491486">Ōsaka</text></g>
<g class="city"><circle cx="468.0953888691181" cy="607.8777548729149" r="5" /><text x="480.0953888691181" y="611.8777548729149">Seoul</text></g>
<g class="city"><circle cx="296.1105086495547" cy="1004.8596189590567" r="5" /><text x="308.1105086495547" y="1008.8596189590567">Taipei</text></g>
<g class="city"><circle cx="355.65226708563847" cy="473.61369418225064" r="5" /><text x="367.65226708563847" y="477.61369418225064">Shenyeng</text></g>
<g class="city"><circle cx="457.0167341692937" cy="348.6505832843959" r="5" /><text x="469.0167341692937" y="352.6505832843959">Harbin</text></g>
<g class="city"><circle cx="531.7747672756966" cy="686.1592364196873" r="5" /><text x="543.7747672756966" y="690.1592364196873">Busan</text></g>
<text class="map-title" x="80" y="105">Japan Political Study Map</text>
<text class="map-subtitle" x="80" y="145">Capital: Tokyo | Continent: Asia</text>
  <text class="footer" x="80" y="1036">Made with Natural Earth. Free vector and raster map data @ naturalearthdata.com.</text>
</svg>
