<?xml version="1.0" encoding="UTF-8"?>
<svg xmlns="http://www.w3.org/2000/svg" width="1600" height="1100" viewBox="0 0 1600 1100" role="img" aria-labelledby="title desc">
  <title id="title">Kenya Physical Study Map</title>
  <desc id="desc">Made with Natural Earth. Free vector and raster map data @ naturalearthdata.com.</desc>
  <defs>
    <linearGradient id="terrain" x1="0" x2="1" y1="0" y2="1">
      <stop offset="0%" stop-color="#6c8c53" />
      <stop offset="42%" stop-color="#d5c487" />
      <stop offset="72%" stop-color="#b88b5f" />
      <stop offset="100%" stop-color="#f1f5ee" />
    </linearGradient>
    <filter id="softShadow" x="-10%" y="-10%" width="120%" height="120%">
      <feDropShadow dx="0" dy="10" stdDeviation="12" flood-color="#0f172a" flood-opacity="0.16" />
    </filter>
    <style>
      .neighbor { fill: #ffffff; stroke: #94a3b8; stroke-width: 1.2; opacity: 0.72; }
      .country { fill: url(#terrain); stroke: #1f2937; stroke-width: 4; filter: url(#softShadow); }
      .admin1 { fill: none; stroke: #64748b; stroke-width: 1.1; stroke-dasharray: 6 7; opacity: 0.75; }
      .river { fill: none; stroke: #1d9bd1; stroke-width: 3; stroke-linecap: round; opacity: 0.88; }
      .lake { fill: #8ed1ea; stroke: #0ea5e9; stroke-width: 1.5; opacity: 0.8; }
      .city circle { fill: #ef4444; stroke: #ffffff; stroke-width: 2; }
      .city text, .terrain-label { fill: #172033; font: 700 24px system-ui, sans-serif; paint-order: stroke; stroke: #ffffff; stroke-width: 5; stroke-linejoin: round; }
      .map-title { fill: #0f172a; font: 800 46px system-ui, sans-serif; }
      .map-subtitle { fill: #475569; font: 600 24px system-ui, sans-serif; }
      .footer { fill: #64748b; font: 500 18px system-ui, sans-serif; }
    </style>
  </defs>
  <rect width="100%" height="100%" fill="#d8edf0" />
  <rect x="40" y="40" width="1520" height="1020" rx="32" fill="#ffffff" opacity="0.54" />
  <path class="neighbor" d="M 620.6 646.6 L 628.3 651.6 L 792.1 743.6 L 795.1 769.8 L 860 815 L 839.1 870.7 L 841.8 896.3 L 870.7 912.7 L 872.1 924.5 L 859.6 951.7 L 862.2 965.5 L 859.3 987.1 L 875.1 1015.4 L 893.7 1059.9 L 910.3 1069.8 L 910.3 1069.8 L 874.4 1096 L 825 1113.5 L 797.9 1112.8 L 781.8 1126.3 L 750.3 1127.5 L 738.6 1133.2 L 684.3 1120.5 L 650.3 1124.1 L 637.6 1062.7 L 622.3 1041.6 L 613.2 1029.1 L 568.9 1020.7 L 543.3 1007.2 L 514.6 999.5 L 496.6 992 L 477.7 980.5 L 477.7 980.5 L 453.3 923.6 L 427.1 898.3 L 418.1 872.1 L 422.6 848.6 L 414.5 807 L 433.1 804.9 L 449.5 788.5 L 467.1 764.9 L 478.3 755.5 L 477.8 740.8 L 468.1 730.6 L 465.5 712.8 L 465.5 712.8 L 478.5 707.1 L 481.2 680.5 L 463.2 655 L 479.1 649.6 L 528.6 650.1 L 620.6 646.6 Z" />
<path class="neighbor" d="M 414.5 807 L 422.6 848.6 L 418.1 872.1 L 427.1 898.3 L 453.3 923.6 L 477.7 980.5 L 477.7 980.5 L 459.9 975.9 L 399.2 983.5 L 387.1 988.9 L 374.3 1017.7 L 384.4 1037.7 L 376.3 1091.2 L 370.8 1136.5 L 383 1144.5 L 414.5 1162.1 L 426.9 1153.9 L 430.7 1202.6 L 396.1 1202.2 L 377.6 1177.4 L 360.9 1158.1 L 326.3 1151.8 L 316.2 1128.1 L 288.6 1142.4 L 252.4 1136.1 L 237.3 1115.6 L 208.6 1111.4 L 187.4 1112.5 L 184.9 1098.5 L 169.3 1097.3 L 148.7 1094.7 L 120.7 1101.4 L 101.1 1100.3 L 89.9 1104.5 L 92.3 1050.7 L 77.2 1034 L 73.9 1006.2 L 80.6 978.9 L 71.4 961.5 L 70.6 933.1 L 15.8 933.5 L 19.7 917.2 L -3.3 917.4 L -5.8 925.2 L -33.8 927 L -45.1 953.3 L -51.9 964.6 L -76.8 958.2 L -91.7 964.6 L -121.6 968.2 L -138.9 944.6 L -149.3 930 L -162.3 902.9 L -173.4 869.2 L -306.7 868.6 L -322.6 874.1 L -335.6 873.2 L -354.3 879.3 L -360.6 865.3 L -349.1 860.5 L -347.7 840.8 L -340.3 829.2 L -323.9 819.7 L -312 824.3 L -296.6 807 L -272 807.5 L -269.1 820.3 L -252.2 828.3 L -225.6 799.9 L -199.3 777.9 L -187.9 763.4 L -189.4 726.3 L -169.8 682.4 L -149.1 659.1 L -119.3 637.3 L -114.1 622.9 L -113 606.4 L -105.6 590.7 L -108 565.1 L -102.4 525 L -93.6 496.9 L -80 472.7 L -77.3 445.4 L -73.3 413.9 L -55.7 391 L -31.5 376.4 L 5.7 391.8 L 34.4 408.5 L 67.5 412.9 L 101.2 421.7 L 114.7 394.4 L 120.9 391 L 141.5 395.5 L 191.8 372.9 L 209.6 382.5 L 224.2 381.1 L 231 370.2 L 247.8 366.3 L 281.8 371 L 310.8 372.1 L 325.7 367.3 L 353 404.6 L 373.3 410.1 L 385.4 402.5 L 406.3 405.4 L 431.5 395.9 L 442.2 415.2 L 482 445.2 L 482 445.2 L 479.2 498 L 497.3 504.1 L 482.8 520.2 L 465.4 532.2 L 448.2 555.7 L 438.7 576.7 L 436.1 613 L 425.7 630.3 L 425.3 664.3 L 412.3 676.9 L 410.6 703.8 L 404.4 707.3 L 400.2 732 L 411.6 752.5 L 414.5 807 Z" />
<path class="neighbor" d="M 967.6 679.8 L 940.9 642.5 L 940.3 477.9 L 979.8 426.7 L 992.2 412.5 L 1021.1 411.6 L 1061.4 379.8 L 1120.3 377.8 L 1247.9 242.2 L 1279.4 204.5 L 1299.8 176.8 L 1299.8 153.2 L 1299.8 107.6 L 1300 89 L 1300.3 88.3 L 1300.3 88.3 L 1314.7 87.4 L 1335.5 80.7 L 1359.5 76.1 L 1380.8 60.6 L 1398 60.5 L 1399 73 L 1394.8 99.3 L 1395 123 L 1385.5 139.4 L 1372.7 188.2 L 1351 238.6 L 1323 296.3 L 1284.3 362.5 L 1245.7 413.1 L 1192.6 474.7 L 1147.4 511.3 L 1079.8 556.2 L 1037.7 590.5 L 988.3 645.3 L 977.8 669.1 L 967.6 679.8 Z" />
<path class="neighbor" d="M 198.9 232 L 164.5 212.2 L 148.8 199.2 L 145.9 185.2 L 153.2 166.4 L 153.1 148 L 127 119.7 L 121.9 100.4 L 122.5 89.4 L 105.9 76.1 L 105.4 49.9 L 95.9 32.5 L 80 35.1 L 84.6 18.5 L 96.3 -0.4 L 91.2 -19.1 L 106 -32.9 L 96.6 -43.5 L 108.5 -71.4 L 129.2 -104.6 L 168.1 -101.5 L 165.9 -280.8 L 166.5 -299.8 L 218.4 -299.9 L 218.4 -390.1 L 400 -390.1 L 575.3 -390.1 L 754.5 -390.1 L 769 -345.8 L 759.1 -337.6 L 765.7 -291.1 L 782.3 -237.1 L 799.5 -226 L 824.2 -209.3 L 801.3 -183.5 L 768.1 -176.1 L 753.8 -162.3 L 749.4 -132.2 L 729.9 -65.9 L 734.7 -47.8 L 727.5 -9 L 709.2 35.5 L 681.9 57.9 L 662.5 92.4 L 658 110.9 L 636.6 123.5 L 623.2 170.8 L 623.8 211.4 L 623.3 176.2 L 617.1 175.3 L 617.8 152.8 L 612.4 137.3 L 589.2 119.5 L 583.7 86.9 L 589.2 53.5 L 568.2 50.4 L 565.1 60.5 L 538 62.8 L 548.8 76 L 552.7 103.2 L 527.9 128 L 505.4 160.6 L 482.1 165.2 L 444.1 138.8 L 427.1 148.2 L 422.4 161.3 L 399.2 169.9 L 397.6 179.2 L 352.6 179.2 L 346.4 169.9 L 313.8 168.3 L 297.6 176.1 L 285.1 172.2 L 261.9 145.8 L 254.1 133.4 L 221.6 139.6 L 209.1 160.6 L 197.5 200.9 L 182 209.4 L 168.1 214.3 L 198.9 232 Z" />
<path class="neighbor" d="M 477.7 980.5 L 496.6 992 L 514.6 999.5 L 543.3 1007.2 L 568.9 1020.7 L 590.3 1040.9 L 601.7 1079.2 L 594 1091.5 L 585 1128.1 L 593.6 1165.5 L 579.4 1181.2 L 565.7 1223.2 L 589.5 1234.9 L 452.4 1272.1 L 456.7 1304.3 L 422.5 1310.5 L 396.7 1328.5 L 391.2 1344.1 L 375.1 1347.7 L 335.8 1384.8 L 310.8 1414.1 L 295.5 1415.1 L 280.8 1409.9 L 230.3 1405 L 222.2 1401.6 L 221.9 1397.8 L 204.1 1387.7 L 174.8 1385.1 L 137.8 1395.3 L 108.3 1367.1 L 77.8 1330.1 L 79.9 1186.4 L 174 1187 L 170.1 1171.4 L 176.8 1154.5 L 168.9 1133.3 L 174 1111.4 L 169.3 1097.3 L 184.9 1098.5 L 187.4 1112.5 L 208.6 1111.4 L 237.3 1115.6 L 252.4 1136.1 L 288.6 1142.4 L 316.2 1128.1 L 326.3 1151.8 L 360.9 1158.1 L 377.6 1177.4 L 396.1 1202.2 L 430.7 1202.6 L 426.9 1153.9 L 414.5 1162.1 L 383 1144.5 L 370.8 1136.5 L 376.3 1091.2 L 384.4 1037.7 L 374.3 1017.7 L 387.1 988.9 L 399.2 983.5 L 459.9 975.9 L 477.7 980.5 Z" />
<path class="neighbor" d="M 568.9 1020.7 L 613.2 1029.1 L 622.3 1041.6 L 637.6 1062.7 L 650.3 1124.1 L 637.6 1158.5 L 650.3 1217.2 L 666 1216.5 L 682.3 1231.1 L 701.2 1263.8 L 705 1321.9 L 685.5 1331.4 L 671.7 1362.7 L 642.2 1334.8 L 638.9 1303 L 648.4 1282 L 645.7 1263.9 L 627.9 1252.4 L 615.5 1256.6 L 589.5 1234.9 L 565.7 1223.2 L 579.4 1181.2 L 593.6 1165.5 L 585 1128.1 L 594 1091.5 L 601.7 1079.2 L 590.3 1040.9 L 568.9 1020.7 Z" />
<path class="neighbor" d="M 465.5 712.8 L 468.1 730.6 L 477.8 740.8 L 478.3 755.5 L 467.1 764.9 L 449.5 788.5 L 433.1 804.9 L 414.5 807 L 411.6 752.5 L 400.2 732 L 427.7 735.5 L 441.5 709.8 L 465.5 712.8 Z" />
<path class="neighbor" d="M 1247.9 242.2 L 1120.3 377.8 L 1061.4 379.8 L 1021.1 411.6 L 992.2 412.5 L 979.8 426.7 L 949 426.7 L 930.7 411.4 L 889.5 430.3 L 876.1 449.1 L 846 445.6 L 836 440.4 L 825.4 441.6 L 811.1 441.2 L 754 402.8 L 722.5 402.8 L 707.1 387.9 L 707.1 362.6 L 683.6 355 L 656.9 305.8 L 636.3 295.4 L 628.4 277.3 L 605.5 255.3 L 577.7 252 L 593.1 226.3 L 617.1 225.2 L 623.8 211.4 L 623.2 170.8 L 636.6 123.5 L 658 110.9 L 662.5 92.4 L 681.9 57.9 L 709.2 35.5 L 727.5 -9 L 734.7 -47.8 L 787.3 -38.3 L 801.4 -72.1 L 828.8 -51.5 L 855.3 -62.2 L 866.2 -52.7 L 897.2 -52.2 L 936.5 -34.1 L 948.2 -18.5 L 968.2 -4 L 986.8 22.5 L 1002.3 37.1 L 986.4 57.1 L 971.1 78.3 L 974.6 90.8 L 975.3 104.5 L 1000.6 105.3 L 1011.4 102.1 L 1021.5 110.1 L 1011.6 126.1 L 1028.3 151 L 1045 172.7 L 1062.2 188.9 L 1209.9 242.5 L 1247.9 242.2 Z" />
<path class="neighbor" d="M 1300.3 88.3 L 1300.3 88.3 L 1300 89 L 1299.8 107.6 L 1299.8 153.2 L 1299.8 176.8 L 1279.4 204.5 L 1247.9 242.2 L 1209.9 242.5 L 1062.2 188.9 L 1045 172.7 L 1028.3 151 L 1011.6 126.1 L 1021.5 110.1 L 1038.1 85.9 L 1052.8 94.3 L 1061.7 112.9 L 1082 131.9 L 1104.5 132 L 1147.1 120.5 L 1196.2 115.1 L 1236 101.1 L 1258.4 98.1 L 1274.5 89.8 L 1300.3 88.3 L 1300.3 88.3 Z" />
<path class="neighbor" d="M 620.6 646.6 L 528.6 650.1 L 479.1 649.6 L 463.2 655 L 436.2 668.9 L 425.3 664.3 L 425.7 630.3 L 436.1 613 L 438.7 576.7 L 448.2 555.7 L 465.4 532.2 L 482.8 520.2 L 497.3 504.1 L 479.2 498 L 482 445.2 L 482 445.2 L 500.5 432.9 L 529.3 443 L 565.6 432.4 L 597.4 432.5 L 625.2 411.7 L 646.6 443.1 L 651.9 465.8 L 671.8 517.6 L 655.3 550.6 L 633.1 580.5 L 620.2 598.8 L 620.6 646.6 Z" />
<path class="neighbor" d="M 463.2 655 L 481.2 680.5 L 478.5 707.1 L 465.5 712.8 L 465.5 712.8 L 441.5 709.8 L 427.7 735.5 L 400.2 732 L 404.4 707.3 L 410.6 703.8 L 412.3 676.9 L 425.3 664.3 L 436.2 668.9 L 463.2 655 Z" />
<path class="neighbor" d="M 482 445.2 L 442.2 415.2 L 431.5 395.9 L 406.3 405.4 L 385.4 402.5 L 373.3 410.1 L 353 404.6 L 325.7 367.3 L 318.4 353 L 284.6 335.1 L 273.2 308 L 254.4 288.4 L 224 264.9 L 223.6 250.2 L 198.9 232 L 168.1 214.3 L 182 209.4 L 197.5 200.9 L 209.1 160.6 L 221.6 139.6 L 254.1 133.4 L 261.9 145.8 L 285.1 172.2 L 297.6 176.1 L 313.8 168.3 L 346.4 169.9 L 352.6 179.2 L 397.6 179.2 L 399.2 169.9 L 422.4 161.3 L 427.1 148.2 L 444.1 138.8 L 482.1 165.2 L 505.4 160.6 L 527.9 128 L 552.7 103.2 L 548.8 76 L 538 62.8 L 565.1 60.5 L 568.2 50.4 L 589.2 53.5 L 583.7 86.9 L 589.2 119.5 L 612.4 137.3 L 617.8 152.8 L 617.1 175.3 L 623.3 176.2 L 623.8 211.4 L 617.1 225.2 L 593.1 226.3 L 577.7 252 L 605.5 255.3 L 628.4 277.3 L 636.3 295.4 L 656.9 305.8 L 683.6 355 L 653 384.8 L 625.2 411.7 L 597.4 432.5 L 565.6 432.4 L 529.3 443 L 500.5 432.9 L 482 445.2 Z" />
<path class="lake" d="M 510.8 496 L 507.3 500.7 L 506.8 501.6 L 507 504.3 L 507.5 518.1 L 507 519.8 L 506.1 520.8 L 505 520.9 L 504 522.3 L 503.2 525 L 501.6 527.5 L 496.9 531.2 L 495.3 532 L 491.3 533.1 L 490.1 533.9 L 488.1 534.7 L 484.6 538.3 L 479.7 544.6 L 477.1 548.5 L 476.7 549.9 L 471.1 556.7 L 470 557.3 L 468.6 557.6 L 467.2 556.7 L 466.9 556.3 L 467 553.1 L 466.5 550.7 L 466.5 549.4 L 467 549 L 466.6 548.2 L 465.9 547.8 L 465.4 546.9 L 464.6 546.8 L 463 547 L 462.3 547 L 461.8 545.1 L 464.2 541.3 L 465.9 537.5 L 468.2 534.5 L 471 532.4 L 474.7 528 L 476.5 526.8 L 483.5 519.8 L 486.5 517.2 L 488.6 516.4 L 497.5 510.1 L 501.2 506.5 L 503.2 503.2 L 505 500.2 L 508.9 495.9 L 510.9 495.3 L 510.8 496 L 510.8 496 L 510.8 496 Z" />
<path class="lake" d="M 681.9 1248.7 L 681.9 1248.7 L 681.9 1248.7 L 681.9 1248.7 L 683 1252.7 L 682.5 1253.8 L 681.8 1254.4 L 680.8 1254.3 L 678.9 1252.1 L 676 1249.2 L 672.3 1244.2 L 670.8 1243.3 L 668.3 1242.9 L 667.8 1242.2 L 667.5 1239.4 L 667 1238.1 L 665.9 1237.1 L 664.8 1236.7 L 663.7 1236.8 L 663.3 1237.8 L 663.7 1239.5 L 663.4 1241.2 L 662.2 1242.9 L 661.9 1244.2 L 662.2 1245.1 L 662 1246 L 659.8 1247.7 L 657.9 1248.3 L 656.9 1248 L 656.7 1246.9 L 655.6 1245.9 L 653.8 1245 L 652.1 1243.3 L 650.6 1240.9 L 649.7 1238.3 L 649.3 1235.5 L 649.7 1233.4 L 650.8 1232 L 651.9 1229.2 L 653.1 1224.9 L 652.3 1221.2 L 649.7 1218.1 L 647.5 1216.6 L 645.7 1216.8 L 643.5 1214.9 L 639.5 1208.1 L 639.1 1206.6 L 639.4 1204.9 L 640.3 1203 L 640.5 1198.1 L 639.9 1188.5 L 639.4 1187.4 L 638.5 1184.5 L 637.4 1183.1 L 637 1181.5 L 637.3 1180 L 636.8 1178.8 L 635.7 1178 L 634.6 1176.7 L 633.8 1174.8 L 633.9 1167.5 L 633.1 1165 L 631.7 1163.6 L 629.8 1163.2 L 628.3 1161.8 L 626.7 1157.1 L 626.4 1155.2 L 627.7 1148 L 629.5 1144.8 L 632.4 1142.5 L 633.8 1140.4 L 633.6 1138.6 L 635 1136.3 L 639.3 1131.3 L 639.6 1130.1 L 638 1119.9 L 636.8 1114.7 L 635.4 1110.9 L 635.1 1108.2 L 635.9 1106.6 L 636 1105.1 L 635.6 1104 L 634.1 1083.2 L 633.5 1082.1 L 633.8 1081.1 L 634.8 1080.1 L 635.3 1078.8 L 635.2 1077.4 L 635.7 1076.3 L 636.7 1075.7 L 636.2 1073.6 L 634.2 1069.9 L 632 1067 L 627.6 1062.6 L 625.7 1059.9 L 624.3 1056.6 L 622.3 1049.8 L 621.3 1048.4 L 620.8 1046.5 L 620.7 1044.2 L 621.2 1042.5 L 622.9 1040 L 623.1 1038.6 L 622.7 1035.8 L 623.3 1034.3 L 624.8 1032.7 L 629 1034.6 L 639.5 1043.3 L 639.8 1044.5 L 646.5 1053.2 L 648.7 1056.8 L 648.7 1058.8 L 650.7 1066.4 L 651.2 1069.9 L 650.7 1072.6 L 650.8 1074.8 L 651.6 1077.9 L 651.3 1079.2 L 653.7 1083.7 L 654.9 1087.5 L 655.1 1091.3 L 654.4 1094.9 L 652.3 1100.2 L 652 1102.3 L 652.4 1104.3 L 653.8 1106.4 L 656.1 1108.7 L 657.8 1111.4 L 659 1114.6 L 659.9 1116.1 L 661.2 1116 L 663.4 1116.5 L 665.2 1118.4 L 667.3 1121.6 L 668.3 1126.7 L 668.2 1133.8 L 667.2 1140 L 665.2 1145.2 L 663.7 1148 L 662.6 1148.4 L 660.6 1150.1 L 657.8 1152.9 L 656.6 1154.9 L 657.1 1156 L 657.2 1158.4 L 657.1 1162.3 L 656.7 1164 L 656.3 1164.9 L 660.7 1174.9 L 661.5 1180.5 L 659.9 1185.1 L 659.8 1189.3 L 661.1 1193 L 661.6 1197.4 L 661.1 1202.6 L 661.6 1206 L 663.2 1207.5 L 663.9 1211.8 L 663.8 1218.8 L 664.2 1222.7 L 665.1 1223.4 L 671.5 1224 L 672.7 1224.6 L 674.5 1228.3 L 678.3 1239.1 L 678.2 1240.2 L 681.9 1248.7 Z M 653.1 1148.8 L 653.1 1148.8 L 653.1 1148.8 L 653.1 1148.8 L 654 1146.4 L 653.2 1145.1 L 651.7 1144.5 L 650 1145 L 649.4 1146.7 L 651.2 1148.8 L 653.1 1148.8 Z M 654.9 1150.4 L 654.9 1150.4 L 654.9 1150.4 L 654.9 1150.4 L 655.9 1151.2 L 657.5 1150.8 L 658.7 1149.8 L 659.1 1148.5 L 659.1 1147.2 L 658.4 1146.4 L 657.3 1145.9 L 655.7 1146.2 L 655.1 1148 L 654.9 1150.4 Z" />
<path class="lake" d="M 657.4 607.9 L 657.4 607.9 L 657.4 607.9 L 661.7 616.2 L 661 617.1 L 656.8 618.4 L 651 618.6 L 646.6 619.7 L 645.7 620.4 L 646.4 624.7 L 645.6 626.1 L 644.2 626.4 L 642 624.5 L 639.8 624.5 L 637.4 623.8 L 634.8 623.7 L 632.9 625 L 628.6 629.9 L 627.7 632.9 L 628.1 636.5 L 629.8 639.8 L 632.3 643.4 L 631.5 646.2 L 630.5 647.8 L 628.1 648.8 L 627.8 650.4 L 621.9 657.4 L 620.6 660.1 L 620.8 661.5 L 622.8 663.4 L 622.4 664.2 L 617.9 664.4 L 617.2 665.3 L 617.2 666.5 L 616.6 667.2 L 616.9 668.1 L 621.2 671.3 L 621.4 672.1 L 620 672.1 L 615.5 670.8 L 612.8 670.6 L 610.8 671 L 610 671.8 L 609 674.7 L 609.9 676.2 L 610.3 677.7 L 607 680.1 L 606.6 683.3 L 604.5 685 L 601.9 686 L 598 685.6 L 596.3 686.4 L 594.8 688 L 593.3 690.5 L 600.2 690.2 L 601.4 690.8 L 602 691.9 L 603.3 693.2 L 603.5 693.9 L 598.4 694 L 596.7 695.5 L 593.4 695.1 L 590.3 697.3 L 590 698.4 L 592.3 699.7 L 603.2 701.4 L 606.2 701.6 L 613.8 699.1 L 615.7 699.7 L 616.4 701.2 L 616.4 702.8 L 614.5 704.8 L 606.6 710.2 L 602.9 713.5 L 599.3 714.8 L 599.8 716.8 L 599.6 717.7 L 598.6 718.1 L 589.3 716.2 L 582.8 712.6 L 579.8 712.2 L 577.3 713.1 L 575.6 714.4 L 574.9 716 L 574.6 724.1 L 577.4 731 L 578.1 732.4 L 574.9 733 L 569.9 738 L 569 738.6 L 569.6 735.2 L 569.2 733.2 L 572.9 730.1 L 573.6 728.3 L 571.4 723.3 L 571.9 718.6 L 571.3 717.3 L 568.6 717.3 L 566.4 716.7 L 565.6 716.3 L 565 714.7 L 563.7 713.9 L 559.4 717 L 558.8 716.4 L 558.8 715 L 558.2 714.6 L 554.5 714.2 L 552.3 713.2 L 550.8 711.9 L 549.1 707.8 L 547.4 706.8 L 545.5 706.9 L 544.1 708.1 L 542.5 710.6 L 539.8 711.1 L 539 711.9 L 541 716 L 541.4 717.8 L 540.5 718.3 L 536 717.4 L 534 718.8 L 533.2 721.6 L 533.7 724.7 L 534.8 728.3 L 533.3 728 L 530.9 724.5 L 530 724.8 L 529.4 725.7 L 527.8 725.9 L 526.5 730.1 L 525.7 729.8 L 524.9 728 L 524.8 725.4 L 526.3 722.1 L 524.2 721.1 L 523 719.7 L 522.7 718 L 525 715.1 L 524.7 713.9 L 524.1 712.1 L 522.8 710.2 L 521.2 708.9 L 519.9 706.6 L 520 697.7 L 519.4 694.8 L 519.5 691 L 523.9 671.1 L 526.1 667.8 L 526.8 665.1 L 528.5 653.1 L 528.3 650.9 L 527.8 649.6 L 526.9 649.5 L 525.8 649.9 L 524.8 649.4 L 524.1 646 L 523.6 643.8 L 522.5 641.6 L 522.1 639.4 L 526.4 629.4 L 528.6 625.5 L 534.4 618.2 L 534.7 615.2 L 533.5 613.3 L 531.9 611.9 L 531.6 610.9 L 532.4 609.7 L 536.1 607.8 L 537.1 606.3 L 541.8 605.5 L 544.1 603.3 L 546.3 604 L 547.6 602.8 L 550.5 603.1 L 552 600.7 L 553.3 599.7 L 554.4 599.5 L 554.9 601.2 L 556.6 601.3 L 558.7 600.6 L 560.1 599.3 L 561.2 595 L 562.4 593.1 L 563.9 592.3 L 565.4 595.2 L 566.8 595.6 L 565.2 597.5 L 564.9 598.4 L 565.9 598.9 L 567.8 598.8 L 569.8 598.4 L 573.1 596.1 L 574.3 596.1 L 575.1 598.7 L 576 599.4 L 577.9 598.9 L 580.8 597.1 L 583 595 L 583.3 592.9 L 586 592.3 L 588.9 586.2 L 588.3 584.4 L 590.9 583.3 L 592.1 582.8 L 593.9 583.3 L 596.3 582.4 L 596.4 583.3 L 594.8 587.1 L 595.8 588 L 600.6 588.6 L 601.7 589.5 L 601.7 590.5 L 599.7 591.5 L 600 592.7 L 601.6 593.9 L 603.9 594.4 L 606 593.7 L 608.7 590.2 L 610.5 589.4 L 612 589.8 L 612.7 593.3 L 613.4 594.3 L 618.7 595.4 L 622.5 593.9 L 623.8 594.1 L 623.8 599.7 L 624.2 602.6 L 625.1 604.8 L 626.3 606.6 L 627.7 607.4 L 630.2 607.3 L 630.6 607.8 L 629.8 609.8 L 630.3 611.1 L 635.2 615.4 L 637.8 619.6 L 639 619.8 L 640.1 619 L 640.9 617.9 L 641.7 614.7 L 643.9 612.6 L 649.3 610.2 L 657.4 607.9 Z M 537.1 708.9 L 537.1 708.9 L 537.1 708.9 L 537.3 706.1 L 536.6 705 L 533.5 706.1 L 530.1 706.9 L 529 706 L 527.4 703.8 L 526.4 702.7 L 525.2 704.7 L 524.8 708.6 L 527.5 711.3 L 527.8 714.6 L 530.1 714.1 L 530.9 710.9 L 533.1 710.6 L 536.3 709.9 L 537.1 708.9 Z M 548.1 621.4 L 548.1 621.4 L 548.1 621.4 L 549 619 L 546.8 616.8 L 543.4 618.7 L 542.7 617.8 L 542.9 614.4 L 541.3 614.2 L 538.5 614.2 L 537.6 615.2 L 538.3 616.8 L 539.3 618.3 L 540.5 618.9 L 544 620.1 L 543.9 621.7 L 542.1 623.7 L 541.2 625.7 L 540.6 627.5 L 546.9 625.1 L 548.1 621.4 Z M 587.7 701.3 L 587.7 701.3 L 587.7 701.3 L 588.1 699.3 L 586.1 697.2 L 585.2 694.6 L 584.2 692.5 L 581 692.9 L 578.5 692.9 L 577.5 689.6 L 574.6 689.8 L 572.1 691.3 L 572.9 693.1 L 573.1 696.8 L 575.2 697.9 L 579.3 698.8 L 582.5 700.2 L 585.4 701.2 L 587.7 701.3 Z M 596.6 594 L 596.6 594 L 596.6 594 L 597.4 591.4 L 594.2 590.3 L 589.9 591.2 L 589.8 593.2 L 589.7 595.1 L 588 595.8 L 588.1 597 L 591.7 597.2 L 592.1 598.3 L 595.1 600.1 L 594.5 597.3 L 594.1 595.4 L 596.6 594 Z" />
<path class="lake" d="M 746.3 489.1 L 743.9 494.2 L 741.1 495.1 L 739.5 493.1 L 734.5 480.2 L 730.3 473.9 L 726.3 469.8 L 724.4 469.4 L 722.3 466.5 L 720.4 460.7 L 717 456.3 L 713.8 451.6 L 712.5 446.4 L 711.5 444.8 L 709.6 441.2 L 708.4 433.2 L 708.9 428.7 L 710.3 421.3 L 711.7 410.8 L 712 405.6 L 713.1 398.1 L 715.1 397.5 L 717.4 398.7 L 718.7 398 L 719.8 394.9 L 721.3 393.5 L 722.3 393.5 L 723.2 394.5 L 724.2 403.6 L 725 416.4 L 725 420.6 L 725.5 428.5 L 725.3 446.8 L 729.4 458.9 L 734.6 467.7 L 739.7 471.7 L 744.8 474.6 L 746.8 480.6 L 746.3 489.1 L 746.3 489.1 L 746.3 489.1 L 746.3 489.1 Z" />
<path class="lake" d="M 557.8 966.9 L 558.6 968.3 L 558.2 969.2 L 551 966.6 L 542.4 963.5 L 537 963.8 L 532.8 964.5 L 531 963.3 L 528.9 959.9 L 526.6 955.3 L 525.3 951.6 L 525.6 949.5 L 527.1 947.9 L 530 946.4 L 535.8 948.6 L 546.1 957.3 L 554.9 964.6 L 557.8 966.9 L 557.8 966.9 L 557.8 966.9 L 557.8 966.9 Z" />
<path class="lake" d="M 703.8 768 L 704.6 764.2 L 705.9 760.9 L 707.3 758.8 L 708.5 758 L 709.4 758.4 L 710 759.7 L 709.4 765.3 L 708 770.9 L 706.6 772.5 L 705.1 773.5 L 704.2 773.1 L 703.7 771.2 L 703.8 768 L 703.8 768 L 703.8 768 L 703.8 768 Z" />
<path class="lake" d="M 808.2 306.6 L 810.3 306.7 L 811.9 306.6 L 812.2 307.4 L 811.5 309.2 L 810.9 311.3 L 810.5 312.4 L 809.6 313.6 L 808.3 315.5 L 806.3 318.8 L 803.1 323.6 L 800 327.8 L 798.6 329.4 L 796.7 330.4 L 793.9 332.1 L 792.2 332 L 791.9 330.7 L 792.5 328.7 L 794.1 326.5 L 796.2 324.9 L 797.8 324.2 L 799.6 322.7 L 800.6 320.8 L 800 316.4 L 799.5 312.1 L 799.8 310.5 L 802.8 307.9 L 806.5 306.1 L 808.2 306.6 L 808.2 306.6 L 808.2 306.6 L 808.2 306.6 Z" />
<path class="lake" d="M 601.8 529.5 L 599.8 529.6 L 594.9 530.4 L 590.1 532.1 L 587.1 534.1 L 585.5 535.8 L 586.1 536.8 L 589.1 537 L 591.5 537.3 L 591.1 538 L 589.2 539.1 L 588.7 540.5 L 590.8 541.1 L 592.5 540.4 L 593.5 539.6 L 594.1 539.6 L 594.3 540.6 L 594.5 542.5 L 593.6 544.8 L 592 547.1 L 591.6 548.5 L 590.2 547.1 L 587.3 545.5 L 585.4 544.4 L 580.7 541.3 L 575.2 539.1 L 573.9 539 L 573.6 539.6 L 573.8 540.3 L 574.9 541.4 L 575 544.5 L 573.5 543.6 L 571.8 541 L 570.1 540.4 L 569.1 540.7 L 568.6 542.4 L 568.2 543.2 L 564.5 541.6 L 560.9 540 L 559.7 538.8 L 558.9 536.1 L 559.2 535 L 562.2 535.3 L 567.9 533.9 L 570.8 532.3 L 570.9 532.7 L 570.7 533.4 L 571.3 533.7 L 573.6 533.5 L 577 533.1 L 579 533.6 L 579.8 533.8 L 580.8 533.3 L 582.8 531.4 L 584.4 529.9 L 584.9 530.4 L 585.6 530.7 L 587.2 529.7 L 589.1 528.7 L 590.5 528.3 L 592 528.6 L 593.8 528.9 L 596 528 L 598.5 525.5 L 599.9 525.7 L 600.4 527.7 L 601.1 528.3 L 601.6 529 L 601.8 529.5 L 601.8 529.5 L 601.8 529.5 L 601.8 529.5 Z" />
<path class="lake" d="M 480.7 991.2 L 480.4 990.7 L 476.4 989.2 L 475.1 988.3 L 474.6 987.8 L 473.8 988 L 472.3 989.7 L 469.3 991.3 L 468.4 991.3 L 469.6 990.2 L 470 989.4 L 469.9 988.3 L 468.8 987.9 L 466.6 988 L 465.3 987.6 L 464.5 985.4 L 465.1 982.4 L 465.9 981.2 L 467.2 980.1 L 469.1 979.2 L 470.2 977 L 470.5 973.3 L 469.9 970.3 L 468.3 968 L 466.8 966.6 L 465.4 966.1 L 464.2 965 L 462.2 961.9 L 460.9 960.7 L 457.6 959.4 L 456.8 958.3 L 456.3 954.6 L 454.3 950.2 L 453.5 946.4 L 453.9 945.1 L 453.7 941.4 L 450.9 933.5 L 448.3 929.6 L 444.9 926.5 L 441 924.2 L 436.9 922.8 L 433.1 919.7 L 426.9 911.9 L 423.3 908.8 L 422.2 907.3 L 420.8 903.4 L 421 899.1 L 420.6 898 L 419.6 898.1 L 418.8 897.8 L 418.3 897 L 413.2 883.4 L 412.2 882.7 L 411.3 880.7 L 410.4 879.7 L 408.8 878.8 L 407.8 876.5 L 407.4 872.9 L 407.7 870.9 L 408.8 869.9 L 414 865.7 L 414.5 864.2 L 414.5 863.3 L 414.2 859.5 L 414.5 858.3 L 415.8 858.1 L 415.9 857.4 L 409.3 846.4 L 406.2 840.3 L 404.4 835.2 L 403.7 832 L 404.2 830.8 L 404.3 816.7 L 404.7 810.9 L 405.8 808.3 L 406.8 807.2 L 408.3 807.5 L 408.2 804.2 L 410.6 789 L 410.2 787.4 L 409.4 787.6 L 409 789.8 L 405.7 799.6 L 405.1 799.9 L 402 798.8 L 401.7 797.4 L 403.1 795.5 L 403.6 793.7 L 403.1 792 L 403 788.6 L 403.8 779.7 L 404.4 777.8 L 404.4 776.1 L 403.8 774.8 L 404.1 773.1 L 405.3 771 L 405.8 767.1 L 405.4 761.4 L 405.5 757.7 L 406.2 756 L 407 754.9 L 408 754.5 L 412.6 755.3 L 414.1 756.9 L 414.1 760.1 L 414.2 769.2 L 414.7 775.1 L 415.6 777.9 L 418.7 783.4 L 418.7 784.5 L 422.7 793.6 L 425.3 798 L 427.5 801 L 428.6 803.4 L 428.1 806.5 L 426.5 820.1 L 426.8 824.2 L 426.2 824.9 L 426.6 825.4 L 427.9 825.7 L 430 826.8 L 432.9 828.9 L 434.9 831.5 L 435.8 834.5 L 436 836.5 L 435.4 837.2 L 435.3 841.2 L 434.7 841.5 L 434.1 845.6 L 433.1 847.9 L 433.4 850.7 L 435.8 853.4 L 438.2 858.1 L 440.8 864.5 L 442.1 868.5 L 441.9 870.2 L 440.5 872 L 437.8 873.9 L 436 874.6 L 435.2 874.3 L 434.1 874.8 L 432.9 876.1 L 432 879.1 L 431.5 883.6 L 431.7 885.8 L 432.9 887.8 L 436.2 891.5 L 441.7 896.4 L 442 897.3 L 442.7 897.4 L 445.3 896 L 448.5 895.4 L 450.5 895.8 L 451.8 896.6 L 452.5 897.8 L 457.8 902.6 L 460.4 906 L 462.3 909.9 L 464.8 913.4 L 468.1 916.5 L 469.7 919.6 L 469.6 922.9 L 468.8 924.6 L 467.8 924.8 L 467.4 925.2 L 467.8 927.4 L 470.3 932.4 L 471.3 936.9 L 470.9 940.9 L 471.6 944.4 L 473.4 947.5 L 477 951.6 L 481.6 961.1 L 485.2 966.8 L 485.5 968.5 L 486.1 969.6 L 487.5 970.6 L 487.7 971.4 L 487.1 972.4 L 487.2 973.7 L 487.8 975.9 L 490.1 978.8 L 494 982.5 L 495.9 985.5 L 495.7 987.7 L 496.3 990 L 497.8 992.3 L 498.4 994.6 L 498 998.1 L 497.5 998.6 L 496.9 998.5 L 496.3 997.6 L 495.5 997.9 L 494.6 999.2 L 493.3 1000.2 L 491.5 1000.9 L 490.5 1000.7 L 488.2 998.8 L 480.7 991.2 L 480.7 991.2 L 480.7 991.2 Z" />
<path class="country" d="M 860 815 L 795.1 769.8 L 792.1 743.6 L 628.3 651.6 L 620.6 646.6 L 620.2 598.8 L 633.1 580.5 L 655.3 550.6 L 671.8 517.6 L 651.9 465.8 L 646.6 443.1 L 625.2 411.7 L 653 384.8 L 683.6 355 L 707.1 362.6 L 707.1 387.9 L 722.5 402.8 L 754 402.8 L 811.1 441.2 L 825.4 441.6 L 836 440.4 L 846 445.6 L 876.1 449.1 L 889.5 430.3 L 930.7 411.4 L 949 426.7 L 979.8 426.7 L 940.3 477.9 L 940.9 642.5 L 967.6 679.8 L 936 697.8 L 924.8 716.7 L 907.9 720 L 901.5 751.8 L 887 770 L 878.2 800.1 L 860 815 Z" />

<path class="river" d="M 506 504.6 L 505.5 501.9 L 506.7 499.6 L 510.9 495.3" />
<path class="river" d="M 419.5 631.1 L 426.1 609.8 M 506 504.6 L 496.6 516.9 L 486.9 527.7 L 465.9 547.8" />
<path class="river" d="M 588.3 584.4 L 591.5 586.6 L 590.3 590.4 L 585.7 596.6 L 580.6 606.1 L 575.2 619 L 568.3 628.4 L 559.9 634.2 L 547.8 639.4 L 524.1 646 M 559.2 535 L 562.4 538 L 565.6 539.3 L 569.8 539.5 L 572.4 540.3 L 575 544.5 M 545.5 528.5 L 556.1 533.6" />
<path class="river" d="M 778 78.2 L 778.3 81 L 780.9 82.7 L 785.8 84.1 L 791.2 87.8 L 797.2 93.8 L 806.5 98.4 L 819.3 101.6 L 826.6 105.1 L 828.3 109.1 L 828.9 117.1 L 828.4 129.2 L 827.3 137.8 L 825.5 143 L 822.6 145.9 L 818.7 146.4 L 810.7 149.8 L 798.4 156 L 790.3 157.2 L 786.4 153.5 L 782.7 151.1 L 779 149.8 L 776.5 149.6 L 775.3 150.5 L 774.4 150.2 L 773.9 148.5 L 772.4 147.3 L 770.1 146.4 L 769 144.6 L 769.3 141.9 L 767.7 140 L 762.6 138.3 L 745.9 135.7 L 739.8 133.7 L 738.5 131.5 L 737.2 130.8 L 735.6 131.5 L 733.2 135 L 729.8 141.5 L 724.7 145 L 717.8 145.5 L 713.4 147 L 711.4 149.4 L 708.5 150.4 L 704.9 150 L 702.9 150.6 L 702.9 151.6 L 702.7 152.1 L 702 152.2 L 698.5 151.2 L 686.8 145.6 L 686.1 145" />
<path class="river" d="M 535.3 440.5 L 531.7 444.4 L 529.4 445.2 L 527.3 444.4 L 524.9 444.6 L 522.2 445.7 L 517.6 451.8 L 511.4 462.9 L 507.7 470.4 L 506.7 474.3 L 507 477.1 L 508.5 478.6 L 509.1 480.9 L 508.7 484 L 509.8 486.8 L 512.2 489.4 L 512.7 491.9 L 510.9 495.3" />
<path class="river" d="M 468.5 252.9 L 472.3 240.9 L 473.5 232.7 L 473.2 224.3 L 474.5 219 L 477.3 217 L 479.7 213.4 L 481.7 208.1 L 482.2 202.9 L 481.3 197.8 L 484.5 190.9 L 495.7 177.9" />
<path class="river" d="M 535.3 440.5 L 521.6 425.5 L 516 418.5 L 514 414.2 L 512.8 408.3 L 512.4 400.6 L 513.2 395.7 L 515.2 393.4 L 518.2 386.1 L 522 373.9 L 524.3 364.3 L 525 357.3 L 525.1 351.2 L 524.4 346.1 L 523 341.6 L 519.9 335.8 L 510.3 316.6 L 504.3 306.4 L 496.2 295.2" />
<path class="river" d="M 496.2 295.2 L 485.9 288.3 L 479.1 280.6 L 472.1 269.9 L 469 264 L 469.6 262.9 L 469.1 261.2 L 467.4 259 L 467.2 256.2 L 468.5 252.9 L 467.2 247.8 L 463.5 240.6 L 460.8 236.7 L 459.2 236 L 458.9 232.1 L 460 225.1 L 459.6 220.4 L 457.7 218.2 L 457.1 215.7 L 457.9 212.8 L 457.3 210.5 L 455.5 208.8 L 454.1 205.4 L 453.3 200.2 L 454.8 195.2 L 458.6 190.5 L 460.1 186.5 L 459.3 183.1 L 461 179.3 L 465.1 175.1 L 472.2 173.2 L 482.5 173.7 L 489.5 174.8 L 495.1 177.6" />
<path class="river" d="M 495.1 177.6 L 505.1 180.6 L 509.9 181.2 L 512.9 180.2 L 515.7 177.1 L 518.4 171.8 L 523.1 167.5 L 530.1 164.2 L 536.3 159.5 L 541.8 153.4 L 545.2 148.7 L 546.7 145.3 L 546.8 140.9 L 545.7 135.3 L 543.7 132.3 L 540.9 131.8 L 539.5 130.7 L 539.4 128.9 L 545.5 122.4 L 557.7 111 L 563.8 102.2 L 563.6 96 L 565 88.1 L 567.9 78.6 L 569.1 70.9 L 568.5 61.8 L 567.6 53.1 L 568.2 46.6 L 570 39.5 L 570.4 32.2 L 569.2 24.5 L 569.3 19.2 L 570.6 16.3 L 568.6 11.2 L 563.3 4 L 561.1 -2.7 L 561.9 -8.8 L 561.1 -12.4 L 558.8 -13.4 L 557.2 -15.3 L 556.4 -18 L 554.5 -20.8 L 551.5 -23.6 L 548 -30.2 L 543.9 -40.6 L 542.4 -49.7 L 543.5 -57.5 L 546.5 -64.1 L 551.3 -69.5 L 554.5 -79.8 L 556.8 -102.6" />
<path class="river" d="M 686.1 145 L 685.6 143.6 L 683.4 133.4 L 681.1 128.6 L 676.8 126.1 L 678.4 108 L 677.4 100.5 L 674.5 97.7 L 669.8 95.6 L 660.1 93.4 M 642.1 71.4 L 639.6 59.5 L 639.3 52.9 L 640.4 47.7 L 638.6 43.4 L 634 40 L 632.1 37.5 L 633 35.8 L 632.9 32.9 L 631.9 28.7 L 630.3 25.3 L 627.9 22.6 L 626.8 22.2 L 625 20.9 L 624.1 18.3 L 623.2 10 L 621.8 4.8 L 620 2.9 L 617.2 1.8 L 613.4 1.4 L 611.1 -0.7 L 610.2 -4.6 L 608.7 -7.5 L 606.6 -9.4 L 606.1 -11.5 L 607.2 -13.8 L 607 -15.5 L 605.9 -16.7 L 606 -17.7 L 606.8 -18.4 L 606.9 -19.4 L 606 -20.5 L 605.7 -21.5 L 606.1 -22.2 L 606.7 -22.7 L 607.1 -23.6 L 606.5 -25.9 L 607.3 -29.2 L 609.5 -33.6 L 605.4 -44.3 L 595 -61.1 L 589.3 -71.9 L 588.3 -76.8 L 585.9 -81.1 L 581.9 -84.9 L 577.5 -87.6 L 572.7 -89.2 L 567.8 -93 L 563 -98.9 L 559.6 -102 L 556.8 -102.6" />
<path class="river" d="M 840.6 305.4 L 838.4 308.2 L 840 312.2 L 847.2 321.2 L 850.4 327 L 855.8 330.2 L 867 333.5 L 868.4 334.1 L 869.3 334.9 L 872.4 341.9 L 876.1 345.1 L 880.4 345.8 L 882.5 348.1 L 882.4 352 L 884.1 354.1 L 887.5 354.3 L 890.6 355.8 L 893.6 358.6 L 897.4 360.5 L 902.1 361.4 L 908.4 361.2 L 916.1 359.8 L 924.4 355.9 L 933.3 349.5 L 939.1 346.1 L 941.9 345.9 L 944.5 346.5 L 946.8 348.1 L 950 354.1 L 954.2 364.7 L 959 373.8 L 964.5 381.4 L 967.4 386.8 L 967.7 390.2 L 972.1 396 L 984.8 408.4" />
<path class="river" d="M 984.8 408.4 L 987.7 409.9 L 988.9 411.5 L 989.4 413.7 L 991.8 415.2 L 996.3 416 L 1001.8 419.5 L 1008.5 425.6 L 1010.9 432.3 L 1008.9 439.5 L 1008.8 444.6 L 1010.6 447.6 L 1010.5 450.2 L 1008.4 452.4 L 1007.7 455.6 L 1008.4 459.7 L 1009.7 462.3 L 1011.7 463.4 L 1012.4 465 L 1011.8 467.3 L 1009 470.8 L 1004.1 475.5 L 1002 479.5 L 1002.6 482.8 L 1002 485.7 L 1000 488.1 L 999.7 490.7 L 1000.9 493.3 L 1000.6 495.9 L 998.8 498.4 L 996.7 499 L 994.5 497.7 L 992.9 497.8 L 992.1 499.3 L 992.9 500.7 L 995.4 502 L 995.6 503.4 L 993.5 504.9 L 994.4 507.3 L 998.3 510.6 L 999.8 513.7 L 998.8 516.6 L 1000.2 520.8 L 1003.9 526.4 L 1005.6 530.7 L 1005.2 533.6 L 1005.5 535.4 L 1005.6 537.7 L 1007.3 541.6 L 1011.7 548.7 L 1013.7 555.4 L 1013.3 561.7 L 1014.7 567.2 L 1017.9 571.9 L 1019.7 577.5 L 1020.3 587.4 L 1019.3 597.7 L 1017.3 603.1 L 1013.9 607 L 1012.8 610.4 L 1015 615.1" />
<path class="river" d="M 425.9 738.5 L 436.5 741.4 L 439.8 743.4 L 439.5 745.4 L 440.2 746.5 L 441.7 746.5 L 443.2 747.6 L 445.2 750.8 L 443.9 753.5 L 443.8 754.8 L 444.8 755.7 L 449 753.5 L 456.6 748.1 L 461.9 743.2 L 464.9 738.9 L 465.5 735.7 L 463.9 733.6 L 463.4 731.3 L 464.2 728.8 L 468.2 724.8 L 475.5 719.1 L 479.3 715 L 479.5 712.3 L 480.3 710.5 L 481.7 709.4 L 482.9 706.1 L 483.9 700.6 L 483.3 696.1 L 481.3 692.6 L 480.7 687.3 L 481.7 680.2 L 481 674.3 L 478.7 669.6 L 476.4 666.8 L 472.8 665.5 L 467.2 658.3 L 465.5 654.8 L 465.8 652.7 L 467.8 651.7 L 471.3 652.1 L 474.7 651.2 L 477.8 649.2 L 480.8 648.7 L 483.8 649.5 L 486.8 651.7 L 490 655.4 L 495.1 657.9 L 502.1 659.5 L 508 659.7 L 512.6 658.5 L 515.4 656 L 516.3 652.1 L 518.6 649.2 L 524.1 646" />
<path class="river" d="M 461.1 498.3 L 464.1 483.4 L 460.7 476.1 L 456.8 473.7 L 451.5 473.8 L 444.6 471.6 L 436.4 467.1 L 429.8 464.6 L 424.9 464 L 422.1 461.4 L 421.4 456.9 L 419 454.6 L 414.8 454.5 L 410.2 451 L 405.2 444 L 400.6 441.2 L 396.3 442.6 L 390.7 442.7 L 380.4 441.3" />
<path class="river" d="M 761.9 190.3 L 761.9 194.8 L 763.5 197.3 L 766.8 199.3 L 768.8 201.4 L 769.7 204.5 L 767.6 208.8 L 767.3 211.1 L 768 212.6 L 779 225.9 L 783.9 230.5 L 786.5 232 L 787.6 237.3 L 787.2 247.9 L 784.3 258.2 L 779 268.3 L 777.5 274.6 L 779.8 277.1 L 781.9 278.4 L 784 278.4 L 784.2 279.2 L 782.3 280.9 L 780.9 284.3 L 779.9 289.4 L 778.4 292.4 L 776.3 293.1 L 774.1 295.6 L 771.7 300 L 768 302.9 L 762.9 304.4 L 759.7 304.1 L 758.4 301.9 L 755 300.8 L 749.4 300.6 L 741.5 304 L 731.4 310.9 L 724.8 313.9 L 721.8 313.1 L 719.2 313.8 L 716.9 316.1 L 715.5 318.9 L 714.6 323.8 L 713.3 324.9 L 713.5 327.3 L 714.8 331.4 L 714.3 339.9 L 712 352.9 L 711.4 360.2 L 712.3 361.9 L 714.6 362.3 L 718.3 361.4 L 720.5 359.3 L 721.1 356.1 L 722.3 355.2 L 724.2 356.6 L 724.5 359 L 723.2 362.3 L 723.1 365 L 724 367 L 722.9 368.5 L 719.6 369.4 L 718.3 370.4 L 718.9 371.5 L 718.6 372.7 L 717.3 374.1 L 717.5 375.9 L 719.2 378.3 L 718.7 381.8 L 715.7 386.3 L 715 391.1 L 717.4 398.7" />
<path class="river" d="M 437 658 L 434.4 655.3 L 430.6 655.6 L 424.6 658.1 L 420.6 658.9 L 418.7 657.9 L 417 656 L 415.7 653.3 L 416.2 646.7 L 419.5 631.1 M 426.1 609.8 L 427.9 598.6 L 426.8 593.2 L 423.4 589.7 L 423.2 586.3 L 426.4 582.8 L 429 578.5 L 430.9 573.4 L 436.8 568.8 L 446.4 564.7 L 452.5 559.8 L 455.1 553.9 L 458.8 550.2 L 465.9 547.8" />
<path class="river" d="M 575 544.5 L 580.3 567.2 L 583.6 577.1 L 588.3 584.4 M 556.1 533.6 L 559.2 535 M 506 504.7 L 507 504.3 L 523.4 498.8 L 532.3 498.3 L 538.6 501.4 L 543.1 502.7 L 545.8 502.3 L 548 504.4 L 549.7 508.9 L 550.4 513.2 L 550.2 517.3 L 547.4 521.1 L 542 524.5 L 539.3 527 L 539.3 528.5 L 540.9 529.1 L 545.5 528.5" />
<g class="city"><circle cx="837.2116015583188" cy="195.5681597443525" r="5" /><text x="849.2116015583188" y="199.5681597443525">Addis Ababa</text></g>
<g class="city"><circle cx="752.1325827844489" cy="661.6164177330922" r="5" /><text x="764.1325827844489" y="665.6164177330922">Nairobi</text></g>
<g class="city"><circle cx="862.8858552240698" cy="910.8282098093149" r="5" /><text x="874.8858552240698" y="914.8282098093149">Dar es Salaam</text></g>
<g class="city"><circle cx="560.8945228066628" cy="589.3371891931174" r="5" /><text x="572.8945228066628" y="593.3371891931174">Kampala</text></g>
<g class="city"><circle cx="1138.3742105537099" cy="510.28108559851586" r="5" /><text x="1150.3742105537099" y="514.2810855985158">Mogadishu</text></g>
<g class="city"><circle cx="881.9302763393459" cy="786.1475953988943" r="5" /><text x="893.9302763393459" y="790.1475953988943">Mombasa</text></g>
<g class="city"><circle cx="446.9290379729682" cy="691.8942085503256" r="5" /><text x="458.9290379729682" y="695.8942085503256">Kigali</text></g>
<g class="city"><circle cx="576.6442431676256" cy="717.5699981439234" r="5" /><text x="588.6442431676256" y="721.5699981439234">Mwanza</text></g>
<text class="map-title" x="80" y="105">Kenya Physical Study Map</text>
<text class="map-subtitle" x="80" y="145">Landmark: Maasai Mara Reserve | Study terrain and water systems</text>
  <text class="footer" x="80" y="1036">Made with Natural Earth. Free vector and raster map data @ naturalearthdata.com.</text>
</svg>
