<?xml version="1.0" encoding="UTF-8"?>
<svg xmlns="http://www.w3.org/2000/svg" width="1600" height="1100" viewBox="0 0 1600 1100" role="img" aria-labelledby="title desc">
  <title id="title">Kyrgyzstan Political Study Map</title>
  <desc id="desc">Made with Natural Earth. Free vector and raster map data @ naturalearthdata.com.</desc>
  <defs>
    <linearGradient id="terrain" x1="0" x2="1" y1="0" y2="1">
      <stop offset="0%" stop-color="#6c8c53" />
      <stop offset="42%" stop-color="#d5c487" />
      <stop offset="72%" stop-color="#b88b5f" />
      <stop offset="100%" stop-color="#f1f5ee" />
    </linearGradient>
    <filter id="softShadow" x="-10%" y="-10%" width="120%" height="120%">
      <feDropShadow dx="0" dy="10" stdDeviation="12" flood-color="#0f172a" flood-opacity="0.16" />
    </filter>
    <style>
      .neighbor { fill: #ffffff; stroke: #94a3b8; stroke-width: 1.2; opacity: 0.72; }
      .country { fill: #f7f1df; stroke: #1f2937; stroke-width: 4; filter: url(#softShadow); }
      .admin1 { fill: none; stroke: #64748b; stroke-width: 1.1; stroke-dasharray: 6 7; opacity: 0.75; }
      .river { fill: none; stroke: #1d9bd1; stroke-width: 3; stroke-linecap: round; opacity: 0.88; }
      .lake { fill: #8ed1ea; stroke: #0ea5e9; stroke-width: 1.5; opacity: 0.8; }
      .city circle { fill: #ef4444; stroke: #ffffff; stroke-width: 2; }
      .city text, .terrain-label { fill: #172033; font: 700 24px system-ui, sans-serif; paint-order: stroke; stroke: #ffffff; stroke-width: 5; stroke-linejoin: round; }
      .map-title { fill: #0f172a; font: 800 46px system-ui, sans-serif; }
      .map-subtitle { fill: #475569; font: 600 24px system-ui, sans-serif; }
      .footer { fill: #64748b; font: 500 18px system-ui, sans-serif; }
    </style>
  </defs>
  <rect width="100%" height="100%" fill="#eaf3f8" />
  <rect x="40" y="40" width="1520" height="1020" rx="32" fill="#ffffff" opacity="0.54" />
  <path class="neighbor" d="M 1622 63.7 L 1571.9 107.5 L 1517.3 113.6 L 1514.1 179.6 L 1477.6 209.3 L 1347.1 187.7 L 1299.6 305.4 L 1266 320.1 L 1135.7 346.3 L 1194.9 460.6 L 1149.7 477.7 L 1155 515.2 L 1114.5 505.6 L 1081.5 481.9 L 983.9 475 L 874.8 473.2 L 850.9 480.5 L 757.3 452.8 L 719.9 466.5 L 709.7 505.3 L 601.5 482.6 L 558.2 491.9 L 543.5 520.7 L 505.8 532.9 L 419 578.7 L 390.3 625.8 L 365.7 626.2 L 347.7 595.1 L 264.1 592.9 L 250.7 539 L 218.7 538.6 L 223.6 472.6 L 144.8 424.6 L 32 429.7 L -45.1 439.3 L -107.9 380 L -161.7 355.1 L -263.7 308 L -276 302.3 L -445.3 341.2 L -442.7 583.7 L -476.4 586.9 L -522.5 535.3 L -566.9 516.9 L -641.6 530.6 L -670.6 552.5 L -674.3 536.4 L -658.2 509 L -670.7 486.1 L -746.9 463.7 L -776.6 404.6 L -812.9 388 L -815.1 366.6 L -751.1 372.8 L -748.6 324.7 L -692.7 314.1 L -635.2 323.9 L -623.4 259.7 L -635.1 219 L -700.9 222.2 L -756.8 206.2 L -833 235.1 L -894.3 248.9 L -927.7 238.2 L -921.1 204.4 L -963 160.5 L -1011.8 162.3 L -1067.6 117.7 L -1029.7 67.8 L -1048.9 54.4 L -996.4 -17.8 L -928.8 20.3 L -920.6 -27.7 L -784.8 -99.3 L -682.1 -101 L -537.1 -55.4 L -459.2 -28.8 L -389.4 -56.6 L -285.2 -57.9 L -201 -23.8 L -181.9 -43.3 L -89.5 -40.5 L -73.1 -71.6 L -179.6 -116.9 L -116.5 -148.9 L -128.8 -166.8 L -65.7 -183.9 L -113.2 -229 L -83 -251.4 L 163.1 -274.3 L 195.2 -290.6 L 359.8 -314.8 L 418.9 -342.1 L 537.1 -328 L 557.8 -259.8 L 626.5 -275.8 L 711 -253.4 L 705.5 -217.5 L 768.6 -221.2 L 933.4 -283.3 L 909.4 -262.7 L 993.3 -211.8 L 1140.2 -44.8 L 1175.3 -79.2 L 1265.9 -41.4 L 1360.4 -58.3 L 1396.7 -46.4 L 1428.4 -8.4 L 1474.4 4.4 L 1502.4 32.3 L 1587.1 23.5 L 1622 63.7 Z" />
<path class="neighbor" d="M -442.7 583.7 L -445.3 341.2 L -276 302.3 L -263.7 308 L -161.7 355.1 L -107.9 380 L -45.1 439.3 L 32 429.7 L 144.8 424.6 L 223.6 472.6 L 218.7 538.6 L 250.7 539 L 264.1 592.9 L 347.7 595.1 L 365.7 626.2 L 390.3 625.8 L 419 578.7 L 505.8 532.9 L 543.5 520.7 L 563 527.2 L 507.8 569.8 L 556.3 594.6 L 603.2 578.2 L 681.2 612.8 L 596.9 660.2 L 546.9 653.7 L 519.7 655.4 L 510.3 637.1 L 524 606.6 L 436.1 621.9 L 415.2 664.1 L 383.9 700.5 L 329 697.4 L 312 726.3 L 360.2 742 L 374.4 791 L 337.5 857.5 L 287.9 843.7 L 251.2 843.2 L 253 803 L 165.5 774.8 L 96.8 742.6 L 53.9 711.7 L -21.4 666.2 L -53.7 598.4 L -75.8 586.5 L -146.9 589.5 L -172 576 L -179.1 523.6 L -267.7 488.8 L -323.1 527 L -379.3 549.7 L -368.5 582.8 L -442.7 583.7 Z" />
<path class="neighbor" d="M 7631.1 -1375.6 L 7715 -1403 L 7715 -1358.1 L 7642.8 -1354.7 L 7631.1 -1375.6 Z M -894.3 248.9 L -924.3 287.9 L -988.1 298.7 L -1053.4 366.6 L -993.7 429 L -1000.1 473.3 L -928.3 550.8 L -928.3 550.8 L -967.6 577.3 L -978.9 594 L -1008 589.5 L -1053.2 549.6 L -1071.7 547.4 L -1113 532.2 L -1133.1 505.2 L -1194.5 491.4 L -1234.4 501.7 L -1245.9 489.5 L -1335.4 458 L -1432.3 447.3 L -1487.9 436.1 L -1495.9 443.8 L -1579.7 388.3 L -1654.8 363.5 L -1711.6 324.8 L -1663.7 314.3 L -1609.1 259.3 L -1645.9 233.3 L -1549 206.4 L -1550.7 192.1 L -1609.8 202.7 L -1607.7 173.4 L -1573.8 155.1 L -1510.1 150.3 L -1499.8 128.3 L -1514.3 92.1 L -1487.6 57.6 L -1488.4 38.3 L -1585.3 16.9 L -1623.8 17.6 L -1664.4 -13.2 L -1714.8 -2.8 L -1798.4 -25.9 L -1796.9 -38.8 L -1820.3 -67.4 L -1872.8 -70.5 L -1878.2 -91 L -1861.8 -104.3 L -1903.8 -141.5 L -1972 -135.2 L -1992 -138.5 L -2008.6 -123.5 L -2033.2 -126.2 L -2033.2 -126.2 L -2049.3 -168.3 L -2064.8 -190.1 L -2052.1 -196.3 L -1999.1 -194 L -1973.5 -208.4 L -1992.4 -225.9 L -2036.8 -237.5 L -2032.8 -249.3 L -2059.6 -261.3 L -2100.8 -304.4 L -2086.7 -322.2 L -2093.2 -353 L -2157.4 -368.7 L -2192 -360.9 L -2201.3 -377.2 L -2270.5 -393.7 L -2291.7 -432.5 L -2297.3 -464.4 L -2329 -479.5 L -2300.8 -500.4 L -2320.3 -561.8 L -2273.5 -599.7 L -2283.4 -611.1 L -2283.4 -611.1 L -2208.7 -647.5 L -2277.6 -678.8 L -2277.6 -678.8 L -2136.7 -762.7 L -2075.6 -800.7 L -2050.9 -834.2 L -2148.3 -879.3 L -2121.4 -922.2 L -2180.6 -971.1 L -2136.3 -1027.5 L -2212.8 -1102.4 L -2152.1 -1152 L -2252.8 -1195.8 L -2243.2 -1241.8 L -2190.1 -1247.9 L -2078.2 -1274.3 L -2078.2 -1274.3 L -2010.4 -1297.2 L -1902.3 -1257.4 L -1722.2 -1241.7 L -1473.7 -1167.4 L -1423.2 -1136.1 L -1418.9 -1092.3 L -1491.9 -1057.8 L -1599.3 -1040.2 L -1892.9 -1090.2 L -1941.2 -1081.9 L -1834 -1033.7 L -1829.8 -1003.2 L -1825.5 -936 L -1740.8 -915.9 L -1689.4 -898.8 L -1680.9 -930.7 L -1720.5 -959 L -1678.7 -983.9 L -1519.7 -943 L -1464.3 -959 L -1508.5 -1007.2 L -1355.3 -1071.6 L -1294.6 -1067.8 L -1233.1 -1044.8 L -1194.8 -1090 L -1249.7 -1129.2 L -1217.5 -1168.5 L -1265.8 -1209.3 L -1081.9 -1188.2 L -1044.3 -1151.4 L -1127.6 -1143.3 L -1127.1 -1106.7 L -1075.3 -1084.2 L -973.7 -1098.4 L -957.6 -1140.4 L -820.2 -1171.7 L -590.7 -1228.2 L -541.1 -1225 L -606 -1185 L -524.4 -1178.2 L -477.2 -1200.7 L -354 -1202.5 L -256.3 -1229.7 L -181.4 -1190.1 L -106.6 -1233.7 L -175.5 -1271.8 L -141.3 -1293.5 L 52.9 -1273.6 L 144 -1253 L 382.3 -1177.9 L 426.3 -1212.3 L 359.5 -1247.1 L 357.5 -1261 L 278.3 -1267.5 L 300 -1298.7 L 264.8 -1350 L 262.8 -1371 L 384.2 -1430.6 L 427.3 -1490.4 L 476.2 -1503.3 L 650.4 -1485.9 L 664.1 -1449.4 L 601.7 -1396 L 642.7 -1375 L 663.8 -1329.1 L 648.9 -1238.9 L 721.4 -1198.6 L 693.2 -1154.7 L 564.4 -1061.3 L 639.6 -1051.6 L 665.7 -1075.3 L 738.1 -1092.2 L 755.5 -1124.7 L 812.5 -1156 L 774.1 -1193.4 L 804.8 -1236.9 L 732.9 -1242.3 L 717.1 -1278.9 L 769.6 -1344.9 L 684.2 -1398.5 L 801.9 -1442.9 L 786.6 -1489.6 L 819.4 -1491.1 L 854 -1454.7 L 828.1 -1391.2 L 898.4 -1379.2 L 868.4 -1426.6 L 978.5 -1452.5 L 1115 -1455.9 L 1236.6 -1418.4 L 1178.1 -1473.2 L 1171.5 -1543.3 L 1285.9 -1556.6 L 1444.1 -1553.7 L 1586.6 -1562.3 L 1533.2 -1596.7 L 1609.3 -1639.9 L 1684.8 -1641.7 L 1812.7 -1674.3 L 1986.4 -1683.1 L 2008.3 -1701.1 L 2181 -1707.2 L 2234.8 -1692.4 L 2382.4 -1727.4 L 2503.3 -1726.3 L 2521.4 -1754.7 L 2584.3 -1782.7 L 2739.5 -1809.6 L 2852.3 -1788.3 L 2762.8 -1772.1 L 2911.7 -1762 L 2929.5 -1729.5 L 2989.6 -1745.5 L 3181.9 -1744.7 L 3330.1 -1712.6 L 3382.9 -1687.9 L 3366.6 -1653.8 L 3293.8 -1634.3 L 3121 -1597.8 L 3071.6 -1578.3 L 3153.1 -1569.1 L 3250.4 -1552.5 L 3309.6 -1564.9 L 3343.2 -1522.7 L 3372 -1539.8 L 3477.2 -1550.2 L 3688.2 -1539.3 L 3704.3 -1508.5 L 3979.2 -1498.8 L 3983 -1549 L 4122.6 -1537.5 L 4227.6 -1537.8 L 4333.8 -1503.2 L 4364 -1461.1 L 4325.1 -1433.6 L 4407.7 -1381.8 L 4511.2 -1355.1 L 4574.6 -1424.1 L 4680.1 -1394.5 L 4792.2 -1412.2 L 4919.5 -1392 L 4968 -1410.4 L 5075.6 -1401.2 L 5028.1 -1462.3 L 5114.9 -1490.8 L 5709 -1448 L 5764.9 -1409 L 5937.1 -1358.7 L 6202.7 -1371.2 L 6333.6 -1360.3 L 6388.4 -1333.2 L 6380.4 -1285.1 L 6461.4 -1266.3 L 6549.4 -1279.8 L 6666.1 -1281.5 L 6790.2 -1268.6 L 6914.9 -1275.9 L 7029.5 -1217.4 L 7111 -1238.5 L 7057.8 -1280.5 L 7087.1 -1309.7 L 7296.9 -1291.3 L 7433.7 -1295.3 L 7622.9 -1263.9 L 7715 -1235.2 L 7715 -973.2 L 7714.5 -972.8 L 7629.9 -943.9 L 7544.7 -948.7 L 7604 -913.7 L 7643.2 -859.5 L 7673.5 -841.8 L 7681.2 -814.6 L 7664.2 -797.2 L 7541.6 -811.5 L 7357.8 -762 L 7299.3 -754.3 L 7198.7 -708.1 L 7103.2 -667.8 L 7079 -637.9 L 6984.9 -683.4 L 6813.6 -631.7 L 6783.6 -656.2 L 6720.3 -628 L 6632.3 -637 L 6611.1 -593.7 L 6532.2 -530.1 L 6534.6 -503.5 L 6609.5 -488.8 L 6600.7 -393 L 6539.6 -390.6 L 6511.5 -335.6 L 6538.8 -307.3 L 6423.8 -273.7 L 6401 -198.6 L 6302.9 -182.5 L 6283.2 -115.7 L 6188.4 -54.4 L 6164.1 -99.7 L 6135.9 -195.7 L 6099.2 -341.8 L 6130.8 -433.1 L 6186.3 -472.3 L 6189.8 -503.1 L 6292 -517.8 L 6409.5 -600.6 L 6522.7 -668.2 L 6640.9 -720.7 L 6693.8 -813.4 L 6613.9 -807.8 L 6574.4 -753.7 L 6407.5 -681.4 L 6353.7 -762.3 L 6183.9 -740 L 6019.3 -629.7 L 6073.6 -589.4 L 5926.8 -572.2 L 5825.1 -565.5 L 5829.9 -613 L 5727.6 -623 L 5646.1 -590.7 L 5445 -602 L 5228.7 -582.5 L 5015.6 -454.1 L 4763.6 -299 L 4867.2 -290.7 L 4899.5 -249.5 L 4963.4 -234.9 L 5005.5 -267.8 L 5077.7 -263.5 L 5172.6 -191.1 L 5174.8 -135.2 L 5123.4 -69.5 L 5117.9 9.1 L 5088.2 114.2 L 4989.1 209.4 L 4967 254.9 L 4877.8 331.5 L 4789.2 407.4 L 4746.7 446.3 L 4659.1 484.9 L 4617.6 485.7 L 4576.3 453.7 L 4488 501.9 L 4477.7 523.8 L 4477.7 523.8 L 4477.7 523.8 L 4477.7 523.8 L 4468.5 512.3 L 4468.5 512.2 L 4468.1 478.8 L 4501.7 477.1 L 4511.2 399.4 L 4493.9 343 L 4550.3 319.8 L 4630.1 331.4 L 4674.4 267.5 L 4696.9 195.4 L 4722.4 171.3 L 4757 112.2 L 4648.3 131.5 L 4591.3 157.5 L 4491.4 157.4 L 4464.7 95.6 L 4386.8 48.9 L 4272.4 27.8 L 4248 -36.6 L 4225.1 -77 L 4200.5 -105.3 L 4159.8 -171.6 L 4102.1 -195.8 L 4003.6 -215.4 L 3916.4 -213.6 L 3834.7 -201.8 L 3780.4 -169.1 L 3816.5 -153.4 L 3817.3 -117.1 L 3780.7 -96 L 3721.3 -26.3 L 3721.9 2.7 L 3629.2 44.2 L 3550.3 19.4 L 3471.8 24.9 L 3437.4 2.8 L 3397.9 -4.3 L 3301.6 42.1 L 3215 53 L 3154.6 69.3 L 3071.7 58.6 L 3010.7 59.3 L 2970.8 25.6 L 2906.4 -6 L 2840.5 -14.6 L 2757.3 -6 L 2695.1 6.1 L 2601.7 -21.5 L 2589.1 -70.8 L 2511.8 -87.7 L 2452.1 -95.4 L 2378.4 -122.6 L 2310.3 -54.4 L 2337 -15.7 L 2273.1 30.1 L 2178 13.5 L 2112.4 11.2 L 2068.4 -19.5 L 1999.8 -20.5 L 1942.6 -40.7 L 1842.5 -9.8 L 1717 46.9 L 1647.7 58.3 L 1622 63.7 L 1587.1 23.5 L 1502.4 32.3 L 1474.4 4.4 L 1428.4 -8.4 L 1396.7 -46.4 L 1360.4 -58.3 L 1265.9 -41.4 L 1175.3 -79.2 L 1140.2 -44.8 L 993.3 -211.8 L 909.4 -262.7 L 933.4 -283.3 L 768.6 -221.2 L 705.5 -217.5 L 711 -253.4 L 626.5 -275.8 L 557.8 -259.8 L 537.1 -328 L 418.9 -342.1 L 359.8 -314.8 L 195.2 -290.6 L 163.1 -274.3 L -83 -251.4 L -113.2 -229 L -65.7 -183.9 L -128.8 -166.8 L -116.5 -148.9 L -179.6 -116.9 L -73.1 -71.6 L -89.5 -40.5 L -181.9 -43.3 L -201 -23.8 L -285.2 -57.9 L -389.4 -56.6 L -459.2 -28.8 L -537.1 -55.4 L -682.1 -101 L -784.8 -99.3 L -920.6 -27.7 L -928.8 20.3 L -996.4 -17.8 L -1048.9 54.4 L -1029.7 67.8 L -1067.6 117.7 L -1011.8 162.3 L -963 160.5 L -921.1 204.4 L -927.7 238.2 L -894.3 248.9 Z M 2044.1 -2028.4 L 2186.3 -2043.3 L 2314.1 -2010.2 L 2465.6 -1946.6 L 2449.3 -1887.4 L 2305.9 -1879.2 L 2122.7 -1898.2 L 2013.5 -1923.3 L 1963 -1970.5 L 1873.3 -1983.5 L 2044.1 -2028.4 Z M 2640 -1913.8 L 2806.7 -1876.4 L 2787.1 -1849.7 L 2416.4 -1824.3 L 2536.5 -1910.7 L 2590.5 -1918.1 L 2640 -1913.8 Z M 5007.3 -1707 L 5180.9 -1704.1 L 5418.7 -1669.2 L 5366.9 -1620.4 L 5124.5 -1622.2 L 5015.4 -1606.6 L 4885.1 -1649.4 L 4920.5 -1694.6 L 5007.3 -1707 Z M 5624.9 -1654.9 L 5790 -1637.7 L 5713.9 -1611.7 L 5608.8 -1617.6 L 5486.6 -1643.6 L 5502.3 -1664.9 L 5624.9 -1654.9 Z M 5075.1 -1525 L 5137.5 -1551 L 5219.8 -1557.1 L 5313.2 -1531.9 L 5321.2 -1514.6 L 5221.4 -1514.2 L 5086.6 -1521.5 L 5075.1 -1525 Z M -1174.1 -1999.8 L -1045.7 -2011.8 L -945.8 -2012.6 L -932.4 -1994.9 L -894.6 -2010.6 L -832.6 -2021.5 L -735.1 -2007.1 L -760.5 -1997 L -848.8 -1988.4 L -907.9 -1983.4 L -917.1 -1972.6 L -994 -1961.7 L -1065.2 -1977.3 L -1027.8 -1997.8 L -1174.1 -1999.8 Z M -2628.7 -272.6 L -2749.7 -271.6 L -2830.7 -279 L -2815.7 -308 L -2724.9 -329.3 L -2656 -317.8 L -2627 -307.4 L -2634 -289.3 L -2628.7 -272.6 Z M -604.5 -1550 L -447 -1607.7 L -464.8 -1637.6 L -317.7 -1672.3 L -100.6 -1714.5 L 118.3 -1726.8 L 231 -1751.2 L 359 -1759.8 L 404.7 -1733.8 L 360.5 -1713.3 L 127.5 -1680.7 L -73.4 -1649.4 L -277.7 -1586.8 L -375.7 -1522.6 L -478.8 -1459.3 L -465.4 -1404.7 L -339.6 -1350.7 L -378.4 -1345 L -593.4 -1353.5 L -610.8 -1382.7 L -729.9 -1400.3 L -739.5 -1435.9 L -672.2 -1450 L -674.5 -1485.8 L -544 -1541.9 L -604.5 -1550 Z M 5275.8 -231.6 L 5298.6 -168.2 L 5296.9 -103.5 L 5324.1 -37.1 L 5390.2 79.4 L 5292.9 57.7 L 5252.4 152.7 L 5316.5 220.1 L 5314.7 266.1 L 5264.9 226.4 L 5221.7 277.3 L 5209.6 222.1 L 5216.9 158.1 L 5209.4 87.1 L 5224.6 37.4 L 5227.5 -50.6 L 5189 -115.2 L 5194.8 -205.1 L 5255.6 -235.4 L 5229.5 -265.8 L 5258.7 -275.1 L 5275.8 -231.6 Z M -15628.9 -1119.6 L -15634.5 -1078.7 L -15590.2 -1062.3 L -15605.4 -1110.1 L -15426.9 -1100.3 L -15298.1 -1038.8 L -15363.3 -1010.1 L -15471.2 -1003.3 L -15472.8 -939 L -15499.1 -925.3 L -15560.7 -927.3 L -15610.8 -950.2 L -15698.3 -969.4 L -15713 -998 L -15779.8 -1008.7 L -15854.6 -1000.2 L -15890.3 -1023.2 L -15876 -1047.6 L -15954.8 -1032 L -15925.1 -1001.1 L -15962.4 -973.2 L -15962.4 -1235.2 L -15801.3 -1185 L -15628.9 -1119.6 Z M -15876.5 -1362.1 L -15962.4 -1358.1 L -15962.4 -1403 L -15954 -1405.8 L -15898.3 -1405.7 L -15803.1 -1386.8 L -15808.8 -1377.8 L -15876.5 -1362.1 Z M -1924.6 277 L -1907.3 260.7 L -1860.6 274.8 L -1839.4 277.4 L -1830.9 290.4 L -1820.9 292.4 L -1820.4 298.1 L -1788.2 314 L -1721.1 310 L -1734 333.5 L -1806 344.9 L -1895.3 382.9 L -1931.8 369.5 L -1917.3 338.6 L -1989.2 319.4 L -1977.6 306.8 L -1914.6 284.9 L -1924.6 277 Z" />
<path class="neighbor" d="M 251.2 843.2 L 287.9 843.7 L 337.5 857.5 L 357.6 865.6 L 405.2 844.4 L 427.3 857.1 L 448.5 827 L 487.9 828.4 L 498 818.7 L 504.9 792.2 L 533.3 769.3 L 568.9 784.3 L 561.7 804.4 L 581.6 807.5 L 575.5 862.8 L 601.5 884.3 L 624.4 870.5 L 653.6 864 L 694.6 834.5 L 739.9 839.4 L 807.7 839.5 L 819.4 858.3 L 781.2 865.7 L 747.7 877.9 L 672.2 885.5 L 601.6 899.3 L 563.2 928 L 578.8 955.8 L 586.3 988.5 L 553.5 1016.2 L 556.3 1041.4 L 538.2 1065.1 L 475.6 1063.1 L 501.5 1106.6 L 459.6 1123.2 L 431.7 1162.9 L 435.3 1202.4 L 409.6 1220.9 L 385.3 1214.8 L 335 1223.4 L 327.8 1241.8 L 278.9 1241.7 L 242.2 1278.9 L 239.9 1334.8 L 154.4 1362.2 L 108.6 1356.4 L 95.3 1370.8 L 56 1362.4 L -9.8 1372.3 L -120 1338.7 L -60.4 1279.1 L -65.7 1236.7 L -115.6 1225.7 L -120.7 1183.9 L -142.3 1131.4 L -114.1 1095.4 L -142.8 1085.7 L -124.7 1037.8 L -97.9 955.9 L -30.8 980.8 L 18.8 972.1 L 32.5 942.2 L 84.4 932.3 L 121.5 912.3 L 134.6 859.7 L 190.1 847 L 200.4 823.6 L 231.4 841.2 L 251.2 843.2 Z" />
<path class="neighbor" d="M 337.5 857.5 L 374.4 791 L 360.2 742 L 312 726.3 L 329 697.4 L 383.9 700.5 L 415.2 664.1 L 436.1 621.9 L 524 606.6 L 510.3 637.1 L 519.7 655.4 L 546.9 653.7 L 522.8 674 L 451.2 663 L 445 700.9 L 516.3 695.8 L 597.6 717.2 L 721.9 707.2 L 738.6 768 L 760.2 761.4 L 800.2 776.4 L 797.9 802 L 807.7 839.5 L 739.9 839.4 L 694.6 834.5 L 653.6 864 L 624.4 870.5 L 601.5 884.3 L 575.5 862.8 L 581.6 807.5 L 561.7 804.4 L 568.9 784.3 L 533.3 769.3 L 504.9 792.2 L 498 818.7 L 487.9 828.4 L 448.5 827 L 427.3 857.1 L 405.2 844.4 L 357.6 865.6 L 337.5 857.5 Z" />
<path class="neighbor" d="M -670.6 552.5 L -641.6 530.6 L -566.9 516.9 L -522.5 535.3 L -476.4 586.9 L -442.7 583.7 L -368.5 582.8 L -379.3 549.7 L -323.1 527 L -267.7 488.8 L -179.1 523.6 L -172 576 L -146.9 589.5 L -75.8 586.5 L -53.7 598.4 L -21.4 666.2 L 53.9 711.7 L 96.8 742.6 L 165.5 774.8 L 253 803 L 251.2 843.2 L 231.4 841.2 L 200.4 823.6 L 190.1 847 L 134.6 859.7 L 121.5 912.3 L 84.4 932.3 L 32.5 942.2 L 18.8 972.1 L -30.8 980.8 L -97.9 955.9 L -103.6 900.5 L -152.7 898.2 L -227.8 839.9 L -280.4 832.7 L -353.1 799.4 L -399.9 793.3 L -428.7 805.6 L -472.7 803.7 L -519.5 841.3 L -577.3 854 L -589.5 807.5 L -580 738.7 L -631.3 716.4 L -614.4 671.4 L -658 667.6 L -643.5 612.1 L -581.5 628.3 L -523.7 607.2 L -571.6 567.7 L -590.4 530.1 L -643.4 546.9 L -650.1 595.1 L -670.6 552.5 Z" />
<path class="neighbor" d="M 3076.5 2103.7 L 3022.6 2083.3 L 3020.7 2026.8 L 3053.1 1997 L 3124.9 1978.5 L 3162.7 1980.1 L 3177.4 2005.2 L 3148.5 2034.1 L 3133.3 2072.1 L 3076.5 2103.7 Z M 1155 515.2 L 1149.7 477.7 L 1194.9 460.6 L 1135.7 346.3 L 1266 320.1 L 1299.6 305.4 L 1347.1 187.7 L 1477.6 209.3 L 1514.1 179.6 L 1517.3 113.6 L 1571.9 107.5 L 1622 63.7 L 1647.7 58.3 L 1665 104.2 L 1720.3 139.1 L 1814.1 163.8 L 1859.5 216.7 L 1834.1 293.6 L 1857.8 322.1 L 1936 333.4 L 2024.5 342.5 L 2104 383.5 L 2144.6 390.8 L 2174.6 451.4 L 2213.2 490.5 L 2285.7 489 L 2421.5 503.7 L 2508.9 494.6 L 2573.9 504.4 L 2671.2 544.3 L 2750.7 544.3 L 2779.9 564.7 L 2856.4 529.4 L 2962.7 506.6 L 3061.3 504.1 L 3138.1 480.9 L 3185.3 445.7 L 3231.4 423.6 L 3220.7 401.9 L 3199.7 376.6 L 3234.2 334.2 L 3271.2 340.2 L 3338.8 353.5 L 3404.4 318.6 L 3504.7 293.1 L 3552.9 249.6 L 3599.1 230.9 L 3694.7 222.2 L 3746.6 229.6 L 3753.8 206.2 L 3694.2 160.2 L 3641.4 139.2 L 3590.8 163.5 L 3526 153.2 L 3488.7 161.6 L 3471.8 134.7 L 3518.3 69 L 3550.3 19.4 L 3629.2 44.2 L 3721.9 2.7 L 3721.3 -26.3 L 3780.7 -96 L 3817.3 -117.1 L 3816.5 -153.4 L 3780.4 -169.1 L 3834.7 -201.8 L 3916.4 -213.6 L 4003.6 -215.4 L 4102.1 -195.8 L 4159.8 -171.6 L 4200.5 -105.3 L 4225.1 -77 L 4248 -36.6 L 4272.4 27.8 L 4386.8 48.9 L 4464.7 95.6 L 4491.4 157.4 L 4591.3 157.5 L 4648.3 131.5 L 4757 112.2 L 4722.4 171.3 L 4696.9 195.4 L 4674.4 267.5 L 4630.1 331.4 L 4550.3 319.8 L 4493.9 343 L 4511.2 399.4 L 4501.7 477.1 L 4468.1 478.8 L 4468.5 512.2 L 4426.1 473.4 L 4399.9 510.3 L 4298.3 538.6 L 4308.6 573.3 L 4251.7 570.9 L 4220.5 550.3 L 4175.3 596.9 L 4102.8 632.3 L 4049.3 674.5 L 3957.3 693.6 L 3908.9 724.3 L 3838.1 742.3 L 3873 711.8 L 3859.3 686.2 L 3911.4 642 L 3876.6 607.5 L 3819.3 630.7 L 3745 676.5 L 3704.5 718.9 L 3640 722.1 L 3606.4 752.8 L 3641.1 797.3 L 3694.9 808.1 L 3697.1 837.6 L 3749.2 856.8 L 3822.9 809.8 L 3881.3 835.4 L 3923.8 837.2 L 3934.5 871.6 L 3841.3 890 L 3810.6 925.5 L 3746.7 958.5 L 3712.9 1004.6 L 3783.7 1040.7 L 3809.5 1105.4 L 3849.6 1165.7 L 3894.2 1216.2 L 3893.2 1265 L 3851.9 1283 L 3867.6 1318.1 L 3906.3 1338.5 L 3896.2 1392.1 L 3879.5 1444.2 L 3842.8 1450.1 L 3794.7 1521.3 L 3741.5 1607.6 L 3680.4 1686.1 L 3589.9 1746.8 L 3498.5 1802.2 L 3424.3 1809.7 L 3384.1 1838.9 L 3361.4 1817.6 L 3324.2 1850.3 L 3232.3 1883.2 L 3162.7 1893.3 L 3140.2 1962.8 L 3103.8 1966.6 L 3086.5 1918.9 L 3102.1 1893.4 L 3013.9 1872.4 L 2982.8 1883.1 L 2916.6 1866 L 2885.2 1839.3 L 2895.6 1801.4 L 2835.5 1789.4 L 2803.8 1764.7 L 2747.8 1799.8 L 2683.8 1807.4 L 2631.4 1807 L 2596.1 1823.1 L 2562 1832.7 L 2571.9 1907.9 L 2536.8 1906.1 L 2530.9 1890.7 L 2528.9 1863.5 L 2480.7 1882.7 L 2452.2 1870.5 L 2403.4 1845.9 L 2422.5 1791.2 L 2380.9 1778.5 L 2365.2 1717.9 L 2295.8 1728.8 L 2303.7 1650.8 L 2366 1595.9 L 2368.6 1541.7 L 2366.7 1491.3 L 2338 1475.6 L 2316 1436.9 L 2277.5 1441.8 L 2206.6 1432 L 2228.8 1404.4 L 2198 1363.5 L 2151.1 1391.2 L 2095.9 1375 L 2020.1 1416.9 L 1960.2 1465.8 L 1907.2 1474 L 1878.4 1456.3 L 1843.7 1454.7 L 1796.6 1439.5 L 1761.1 1456.2 L 1717.6 1505.1 L 1712.1 1453.3 L 1672 1467.1 L 1595.3 1460.7 L 1520.9 1445.6 L 1467.5 1416.7 L 1416.4 1403.8 L 1394.3 1372.2 L 1357.4 1362.7 L 1291 1319.9 L 1238.3 1299.7 L 1211 1315.4 L 1119.6 1269.4 L 1055 1227.8 L 1036.5 1155.3 L 1083.7 1164.1 L 1085.9 1130.5 L 1059.7 1096.9 L 1066.4 1043.2 L 995.7 966.1 L 887.5 939.5 L 868 889 L 819.4 858.3 L 807.7 839.5 L 797.9 802 L 800.2 776.4 L 760.2 761.4 L 738.6 768 L 721.9 707.2 L 740.6 692.1 L 731.6 676.7 L 794.4 645.7 L 839.8 632.8 L 909.4 641.6 L 934.3 599.6 L 1018.7 591.8 L 1042.1 565.7 L 1145.8 530.1 L 1155 515.2 Z" />

<path class="country" d="M 543.5 520.7 L 558.2 491.9 L 601.5 482.6 L 709.7 505.3 L 719.9 466.5 L 757.3 452.8 L 850.9 480.5 L 874.8 473.2 L 983.9 475 L 1081.5 481.9 L 1114.5 505.6 L 1155 515.2 L 1145.8 530.1 L 1042.1 565.7 L 1018.7 591.8 L 934.3 599.6 L 909.4 641.6 L 839.8 632.8 L 794.4 645.7 L 731.6 676.7 L 740.6 692.1 L 721.9 707.2 L 597.6 717.2 L 516.3 695.8 L 445 700.9 L 451.2 663 L 522.8 674 L 546.9 653.7 L 596.9 660.2 L 681.2 612.8 L 603.2 578.2 L 556.3 594.6 L 507.8 569.8 L 563 527.2 L 543.5 520.7 Z" />


<g class="city"><circle cx="432.1047603714383" cy="584.018242808799" r="5" /><text x="444.1047603714383" y="588.018242808799">Tashkent</text></g>
<g class="city"><circle cx="934.8725033008025" cy="450.9572910050041" r="5" /><text x="946.8725033008025" y="454.9572910050041">Almaty</text></g>
<g class="city"><circle cx="399.5520149275085" cy="764.479052677867" r="5" /><text x="411.5520149275085" y="768.479052677867">Dushanbe</text></g>
<g class="city"><circle cx="957.0314609318698" cy="773.285270645403" r="5" /><text x="969.0314609318698" y="777.285270645403">Shache</text></g>
<g class="city"><circle cx="781.6381413868866" cy="480.6797318191401" r="5" /><text x="793.6381413868866" y="484.6797318191401">Bishkek</text></g>
<g class="city"><circle cx="279.26554799893904" cy="691.4747802776867" r="5" /><text x="291.26554799893904" y="695.4747802776867">Samarkand</text></g>
<g class="city"><circle cx="634.0956297498968" cy="617.8128680198787" r="5" /><text x="646.0956297498968" y="621.8128680198787">Andijan</text></g>
<g class="city"><circle cx="1226.691294654623" cy="413.26529955295416" r="5" /><text x="1238.691294654623" y="417.26529955295416">Yining</text></g>
<text class="map-title" x="80" y="105">Kyrgyzstan Political Study Map</text>
<text class="map-subtitle" x="80" y="145">Capital: Bishkek | Continent: Asia</text>
  <text class="footer" x="80" y="1036">Made with Natural Earth. Free vector and raster map data @ naturalearthdata.com.</text>
</svg>
