<?xml version="1.0" encoding="UTF-8"?>
<svg xmlns="http://www.w3.org/2000/svg" width="1600" height="1100" viewBox="0 0 1600 1100" role="img" aria-labelledby="title desc">
  <title id="title">Cambodia Physical Study Map</title>
  <desc id="desc">Made with Natural Earth. Free vector and raster map data @ naturalearthdata.com.</desc>
  <defs>
    <linearGradient id="terrain" x1="0" x2="1" y1="0" y2="1">
      <stop offset="0%" stop-color="#6c8c53" />
      <stop offset="42%" stop-color="#d5c487" />
      <stop offset="72%" stop-color="#b88b5f" />
      <stop offset="100%" stop-color="#f1f5ee" />
    </linearGradient>
    <filter id="softShadow" x="-10%" y="-10%" width="120%" height="120%">
      <feDropShadow dx="0" dy="10" stdDeviation="12" flood-color="#0f172a" flood-opacity="0.16" />
    </filter>
    <style>
      .neighbor { fill: #ffffff; stroke: #94a3b8; stroke-width: 1.2; opacity: 0.72; }
      .country { fill: url(#terrain); stroke: #1f2937; stroke-width: 4; filter: url(#softShadow); }
      .admin1 { fill: none; stroke: #64748b; stroke-width: 1.1; stroke-dasharray: 6 7; opacity: 0.75; }
      .river { fill: none; stroke: #1d9bd1; stroke-width: 3; stroke-linecap: round; opacity: 0.88; }
      .lake { fill: #8ed1ea; stroke: #0ea5e9; stroke-width: 1.5; opacity: 0.8; }
      .city circle { fill: #ef4444; stroke: #ffffff; stroke-width: 2; }
      .city text, .terrain-label { fill: #172033; font: 700 24px system-ui, sans-serif; paint-order: stroke; stroke: #ffffff; stroke-width: 5; stroke-linejoin: round; }
      .map-title { fill: #0f172a; font: 800 46px system-ui, sans-serif; }
      .map-subtitle { fill: #475569; font: 600 24px system-ui, sans-serif; }
      .footer { fill: #64748b; font: 500 18px system-ui, sans-serif; }
    </style>
  </defs>
  <rect width="100%" height="100%" fill="#d8edf0" />
  <rect x="40" y="40" width="1520" height="1020" rx="32" fill="#ffffff" opacity="0.54" />
  <path class="neighbor" d="M 826.7 388.5 L 721.2 372.3 L 575.5 393.8 L 503.4 487.5 L 530.1 623.5 L 429 571.8 L 332.6 573.9 L 349.1 485.4 L 250 486.1 L 241 610 L 180.2 774.5 L 143.6 874 L 151.4 955.5 L 224.7 959 L 270.4 1061.8 L 290.7 1159.3 L 353.5 1223.8 L 421.7 1236.9 L 480.1 1295.4 L 443.3 1341.6 L 368.9 1355.1 L 360.1 1297.3 L 268.2 1247.9 L 248.6 1268 L 204.1 1224.8 L 184.8 1169 L 125 1105.4 L 70.4 1052 L 51.9 1118.2 L 30.6 1055.6 L 42.9 985.4 L 76 877.4 L 130.6 761.6 L 192.5 656.6 L 148.4 553.9 L 150.2 501.6 L 137.3 438.7 L 62.2 349.2 L 35.3 292.7 L 74.2 271.9 L 115.4 174 L 69.3 99.6 L -2.2 17.4 L -56.6 -81.4 L -9.1 -101.9 L 42.2 -223.7 L 121.8 -228.7 L 187.5 -277.6 L 252 -303.6 L 300.8 -268.8 L 307.2 -201.2 L 383.3 -196 L 355.6 -77.3 L 358.3 23.6 L 477 -43.6 L 510.7 -23.7 L 576.7 -27 L 599.4 -66.1 L 684.6 -58.4 L 770.2 33.1 L 777.2 144.2 L 868.4 242.4 L 863.4 337.7 L 826.7 388.5 Z" />
<path class="neighbor" d="M 1070.5 396.5 L 970.6 355 L 919.7 432.7 L 826.7 388.5 L 863.4 337.7 L 868.4 242.4 L 777.2 144.2 L 770.2 33.1 L 684.6 -58.4 L 599.4 -66.1 L 576.7 -27 L 510.7 -23.7 L 477 -43.6 L 358.3 23.6 L 355.6 -77.3 L 383.3 -196 L 307.2 -201.2 L 300.8 -268.8 L 252 -303.6 L 276 -345.1 L 371.8 -418.3 L 382 -391.9 L 442 -388.8 L 425 -517.6 L 483.4 -534.1 L 549.2 -445.2 L 599.8 -342.9 L 738.5 -342 L 782.1 -243.8 L 710.1 -214.3 L 677.8 -173.8 L 812.8 -106.4 L 906.4 26.7 L 977.4 125.9 L 1062.6 204.3 L 1091 283.9 L 1070.5 396.5 Z" />
<path class="neighbor" d="M 252 -303.6 L 187.5 -277.6 L 121.8 -228.7 L 42.2 -223.7 L -9.1 -101.9 L -56.6 -81.4 L -2.2 17.4 L 69.3 99.6 L 115.4 174 L 74.2 271.9 L 35.3 292.7 L 62.2 349.2 L 137.3 438.7 L 150.2 501.6 L 148.4 553.9 L 192.5 656.6 L 130.6 761.6 L 76 877.4 L 65.2 793.7 L 99.8 707.5 L 61.9 640.8 L 71.1 518.1 L 25.3 459.8 L -11.4 325 L -31.7 182.7 L -80.4 89.4 L -154.6 145.9 L -282.6 226.2 L -345.8 216.1 L -415.6 189.7 L -376.8 50.1 L -400.3 -55.3 L -488.6 -185.2 L -474.8 -225.8 L -540.7 -240.2 L -620.6 -332.1 L -628 -422.7 L -588.7 -405.7 L -586.4 -486.4 L -530.8 -513.2 L -542.7 -561 L -517.2 -599.4 L -512.9 -715.9 L -424.8 -690.3 L -374.6 -783.1 L -368.9 -838 L -306.8 -932.5 L -310.2 -996.9 L -164.4 -1074.8 L -83.9 -1054.4 L -93.1 -1123.7 L -53.6 -1144.4 L -62.1 -1187.1 L 3.8 -1195.4 L 41.4 -1129.1 L 90.6 -1102.3 L 93.9 -1016.1 L 89.3 -923.2 L -17.3 -829.1 L -30.9 -695.5 L 88 -714.2 L 114.9 -610.5 L 186.2 -588.7 L 153.4 -495.1 L 237.1 -452.8 L 285.9 -432.1 L 368.5 -464.9 L 371.8 -418.3 L 276 -345.1 L 252 -303.6 Z" />
<path class="neighbor" d="M 727.1 815 L 824.6 769.6 L 942.9 761.5 L 893.4 693.2 L 1082.7 606.6 L 1096.6 471.6 L 1070.5 396.5 L 1091 283.9 L 1062.6 204.3 L 977.4 125.9 L 906.4 26.7 L 812.8 -106.4 L 677.8 -173.8 L 710.1 -214.3 L 782.1 -243.8 L 738.5 -342 L 599.8 -342.9 L 549.2 -445.2 L 483.4 -534.1 L 543.8 -561.6 L 633.7 -561.1 L 743.2 -574.1 L 839.2 -634.1 L 893.5 -591.8 L 996.4 -571.3 L 978.6 -506.4 L 1032.3 -460.6 L 1145.7 -431.4 L 995.3 -335 L 901.4 -228.6 L 876.7 -150.5 L 962.8 -31.7 L 1068.1 115.4 L 1170.4 185 L 1238.8 275.5 L 1290.4 483.9 L 1275.2 682.1 L 1181.2 756.2 L 1052.3 828.7 L 960.4 922.6 L 819.9 1027.5 L 779 955.3 L 810.7 879 L 727.1 815 Z" />
<path class="lake" d="M 753.7 596.5 L 749.4 592.9 L 741.7 587.5 L 734.7 587.3 L 718.5 581 L 705.3 568.9 L 701.3 555.7 L 690.3 554 L 677.7 546.9 L 667.7 537.9 L 661.8 527.5 L 658.4 518.2 L 655.6 508.6 L 659.2 503.8 L 671.7 505.5 L 687.3 511.7 L 700.7 527.9 L 711.9 549.4 L 715.9 558.5 L 719.6 561.3 L 731.1 560.4 L 739 563 L 742.2 572.5 L 742.2 580.2 L 742.5 581.6 L 745.6 583.7 L 752 586.6 L 752.3 589.8 L 753.1 592.4 L 756 595.9 L 753.7 596.5 L 753.7 596.5 L 753.7 596.5 L 753.7 596.5 Z" />
<path class="country" d="M 530.1 623.5 L 503.4 487.5 L 575.5 393.8 L 721.2 372.3 L 826.7 388.5 L 919.7 432.7 L 970.6 355 L 1070.5 396.5 L 1096.6 471.6 L 1082.7 606.6 L 893.4 693.2 L 942.9 761.5 L 824.6 769.6 L 727.1 815 L 632.8 798.6 L 587.1 739.9 L 530.1 623.5 Z" />

<path class="river" d="M 796.6 690.6 L 796.6 699.9 L 799.4 704.1 L 805 706.1 L 806.8 709 L 804.7 712.7 L 807.1 733.3 L 813.9 770.8 L 837.1 809.5 L 895.7 869.7 M 796.6 690.6 L 822.5 706.9 L 832.1 717 L 833.9 726.3 L 832.1 736.9 L 826.6 748.7 L 824.5 759.6 L 825.8 769.6 L 830.1 776.9 L 837.6 781.4 L 842.4 788.3 L 844.6 797.6 L 857.3 810.2 L 880.6 825.9 L 901.2 836.1 L 907 837.9 L 930.1 844.8 M 415.1 -11.1 L 429 -18.8 L 435.4 -25.9 L 438.8 -35 L 443.8 -38.5 L 450.2 -36.5 L 458.3 -40.4 L 468.1 -50.4 L 475.6 -55 L 480.9 -54.2 L 490.3 -48 L 503.8 -36.4 L 515.9 -29.5 L 526.4 -27.3 L 531.6 -23 L 531.3 -16.6 L 533.7 -12.5 L 538.6 -10.8 L 540.8 -11.5 L 540.3 -14.6 L 545 -19.1 L 555.1 -25.1 L 565.4 -28.7 L 575.9 -29.7 L 582.6 -34.5 L 587.1 -46.8 M 587 -46.7 L 587.1 -46.8 M 587.1 -46.8 L 587.2 -47.2 M 587.1 -46.8 L 593.6 -56.2 L 599.3 -60.5 L 606.5 -62.6 L 608.3 -65.6 L 604.9 -69.4 L 605.2 -73.3 L 609.3 -77.3 L 618.2 -78.9 L 631.8 -78.4 L 647.8 -74.4 L 666.1 -66.9 L 678.1 -64.5 L 683.8 -67.2 L 695 -55.7 L 711.6 -30 L 725.8 -10.5 L 737.7 2.6 L 750.2 12.7 L 763.3 19.8 L 772.8 29.4 L 781.4 47.5 L 775 72.7 L 773.2 94.4 L 774 121.1 L 781.8 141.5 L 796.5 155.7 L 805 167.2 L 807.4 175.9 L 818.9 183.5 L 839.3 189.7 L 847.9 195.4 L 844.4 200.5 L 844.1 206.4 L 847 213.2 L 854.1 218.7 L 865.4 223.1 L 872.2 227.8 L 874.3 232.7 L 874.1 240.6 L 871.4 251.6 L 866.7 260.1 L 859.9 266 L 860.7 269.3 L 869.1 270.2 L 877.1 275.8 L 890.1 293.1 L 899.9 302.9 L 904.2 312.9 L 906.4 326.3 L 905.1 339 L 900.5 351 L 898.9 363.6 L 900.5 376.5 L 899.4 389.2 L 895.8 401.5 L 898.4 411.4 L 907.3 418.8 L 912.5 425.1 L 914.3 430.5 L 914.3 435.9 L 912.7 441.4 L 913.7 447.2 L 917.2 453.3 L 915.3 463.3 L 908 477.2 L 905.5 486.3 L 909 492.5 L 917.3 509.8 L 917.6 525.1 L 912.6 543.9 L 912.3 567.7 L 916.7 596.3 L 913 611.9 L 901.2 614.6 L 888.1 614.8 L 873.7 612.5 L 863.3 621.5 L 856.9 641.7 L 845.9 651.7 L 830.5 651.4 L 821 653.5 L 817.5 658.1 L 812.2 660.9 L 805 662 L 802.1 664.6 L 803.6 668.7 L 802.3 673 L 798.2 677.7 L 796.3 682.5 L 796.6 690.6" />
<path class="river" d="M 967 836.2 L 958.1 832.6 L 930.2 835.3 M 930.2 835.3 L 907 837.9 M 930.2 835.3 L 935.4 841.3 L 939.8 842.2 L 947.6 840.3 L 951.9 841.9 L 955.3 846 L 960.6 856.6 L 967.4 864.1 L 973.2 868.1 L 980 872.2 L 988.9 875.6" />
<g class="city"><circle cx="296.90814242759546" cy="447.2062320643285" r="5" /><text x="308.90814242759546" y="451.2062320643285">Bangkok</text></g>
<g class="city"><circle cx="993.9168788748391" cy="783.9603284982517" r="5" /><text x="1005.9168788748391" y="787.9603284982517">Ho Chi Minh City</text></g>
<g class="city"><circle cx="792.4947184650487" cy="694.9965916102682" r="5" /><text x="804.4947184650487" y="698.9965916102682">Phnom Penh</text></g>
<g class="city"><circle cx="1168.1594328165247" cy="187.23736790041247" r="5" /><text x="1180.1594328165247" y="191.23736790041247">Da Nang</text></g>
<g class="city"><circle cx="475.46737789051986" cy="306.6304149812441" r="5" /><text x="487.46737789051986" y="310.6304149812441">Nakhon Ratchasima</text></g>
<g class="city"><circle cx="599.3684709258475" cy="520.635659787857" r="5" /><text x="611.3684709258475" y="524.635659787857">Battambang</text></g>
<g class="city"><circle cx="672.5787137246446" cy="490.6047345275756" r="5" /><text x="684.5787137246446" y="494.6047345275756">Siem Reap</text></g>
<text class="map-title" x="80" y="105">Cambodia Physical Study Map</text>
<text class="map-subtitle" x="80" y="145">Landmark: Angkor Wat | Study terrain and water systems</text>
  <text class="footer" x="80" y="1036">Made with Natural Earth. Free vector and raster map data @ naturalearthdata.com.</text>
</svg>
