<?xml version="1.0" encoding="UTF-8"?>
<svg xmlns="http://www.w3.org/2000/svg" width="1600" height="1100" viewBox="0 0 1600 1100" role="img" aria-labelledby="title desc">
  <title id="title">Cambodia Political Study Map</title>
  <desc id="desc">Made with Natural Earth. Free vector and raster map data @ naturalearthdata.com.</desc>
  <defs>
    <linearGradient id="terrain" x1="0" x2="1" y1="0" y2="1">
      <stop offset="0%" stop-color="#6c8c53" />
      <stop offset="42%" stop-color="#d5c487" />
      <stop offset="72%" stop-color="#b88b5f" />
      <stop offset="100%" stop-color="#f1f5ee" />
    </linearGradient>
    <filter id="softShadow" x="-10%" y="-10%" width="120%" height="120%">
      <feDropShadow dx="0" dy="10" stdDeviation="12" flood-color="#0f172a" flood-opacity="0.16" />
    </filter>
    <style>
      .neighbor { fill: #ffffff; stroke: #94a3b8; stroke-width: 1.2; opacity: 0.72; }
      .country { fill: #f7f1df; stroke: #1f2937; stroke-width: 4; filter: url(#softShadow); }
      .admin1 { fill: none; stroke: #64748b; stroke-width: 1.1; stroke-dasharray: 6 7; opacity: 0.75; }
      .river { fill: none; stroke: #1d9bd1; stroke-width: 3; stroke-linecap: round; opacity: 0.88; }
      .lake { fill: #8ed1ea; stroke: #0ea5e9; stroke-width: 1.5; opacity: 0.8; }
      .city circle { fill: #ef4444; stroke: #ffffff; stroke-width: 2; }
      .city text, .terrain-label { fill: #172033; font: 700 24px system-ui, sans-serif; paint-order: stroke; stroke: #ffffff; stroke-width: 5; stroke-linejoin: round; }
      .map-title { fill: #0f172a; font: 800 46px system-ui, sans-serif; }
      .map-subtitle { fill: #475569; font: 600 24px system-ui, sans-serif; }
      .footer { fill: #64748b; font: 500 18px system-ui, sans-serif; }
    </style>
  </defs>
  <rect width="100%" height="100%" fill="#eaf3f8" />
  <rect x="40" y="40" width="1520" height="1020" rx="32" fill="#ffffff" opacity="0.54" />
  <path class="neighbor" d="M 826.7 388.5 L 721.2 372.3 L 575.5 393.8 L 503.4 487.5 L 530.1 623.5 L 429 571.8 L 332.6 573.9 L 349.1 485.4 L 250 486.1 L 241 610 L 180.2 774.5 L 143.6 874 L 151.4 955.5 L 224.7 959 L 270.4 1061.8 L 290.7 1159.3 L 353.5 1223.8 L 421.7 1236.9 L 480.1 1295.4 L 443.3 1341.6 L 368.9 1355.1 L 360.1 1297.3 L 268.2 1247.9 L 248.6 1268 L 204.1 1224.8 L 184.8 1169 L 125 1105.4 L 70.4 1052 L 51.9 1118.2 L 30.6 1055.6 L 42.9 985.4 L 76 877.4 L 130.6 761.6 L 192.5 656.6 L 148.4 553.9 L 150.2 501.6 L 137.3 438.7 L 62.2 349.2 L 35.3 292.7 L 74.2 271.9 L 115.4 174 L 69.3 99.6 L -2.2 17.4 L -56.6 -81.4 L -9.1 -101.9 L 42.2 -223.7 L 121.8 -228.7 L 187.5 -277.6 L 252 -303.6 L 300.8 -268.8 L 307.2 -201.2 L 383.3 -196 L 355.6 -77.3 L 358.3 23.6 L 477 -43.6 L 510.7 -23.7 L 576.7 -27 L 599.4 -66.1 L 684.6 -58.4 L 770.2 33.1 L 777.2 144.2 L 868.4 242.4 L 863.4 337.7 L 826.7 388.5 Z" />
<path class="neighbor" d="M 1070.5 396.5 L 970.6 355 L 919.7 432.7 L 826.7 388.5 L 863.4 337.7 L 868.4 242.4 L 777.2 144.2 L 770.2 33.1 L 684.6 -58.4 L 599.4 -66.1 L 576.7 -27 L 510.7 -23.7 L 477 -43.6 L 358.3 23.6 L 355.6 -77.3 L 383.3 -196 L 307.2 -201.2 L 300.8 -268.8 L 252 -303.6 L 276 -345.1 L 371.8 -418.3 L 382 -391.9 L 442 -388.8 L 425 -517.6 L 483.4 -534.1 L 549.2 -445.2 L 599.8 -342.9 L 738.5 -342 L 782.1 -243.8 L 710.1 -214.3 L 677.8 -173.8 L 812.8 -106.4 L 906.4 26.7 L 977.4 125.9 L 1062.6 204.3 L 1091 283.9 L 1070.5 396.5 Z" />
<path class="neighbor" d="M 252 -303.6 L 187.5 -277.6 L 121.8 -228.7 L 42.2 -223.7 L -9.1 -101.9 L -56.6 -81.4 L -2.2 17.4 L 69.3 99.6 L 115.4 174 L 74.2 271.9 L 35.3 292.7 L 62.2 349.2 L 137.3 438.7 L 150.2 501.6 L 148.4 553.9 L 192.5 656.6 L 130.6 761.6 L 76 877.4 L 65.2 793.7 L 99.8 707.5 L 61.9 640.8 L 71.1 518.1 L 25.3 459.8 L -11.4 325 L -31.7 182.7 L -80.4 89.4 L -154.6 145.9 L -282.6 226.2 L -345.8 216.1 L -415.6 189.7 L -376.8 50.1 L -400.3 -55.3 L -488.6 -185.2 L -474.8 -225.8 L -540.7 -240.2 L -620.6 -332.1 L -628 -422.7 L -588.7 -405.7 L -586.4 -486.4 L -530.8 -513.2 L -542.7 -561 L -517.2 -599.4 L -512.9 -715.9 L -424.8 -690.3 L -374.6 -783.1 L -368.9 -838 L -306.8 -932.5 L -310.2 -996.9 L -164.4 -1074.8 L -83.9 -1054.4 L -93.1 -1123.7 L -53.6 -1144.4 L -62.1 -1187.1 L 3.8 -1195.4 L 41.4 -1129.1 L 90.6 -1102.3 L 93.9 -1016.1 L 89.3 -923.2 L -17.3 -829.1 L -30.9 -695.5 L 88 -714.2 L 114.9 -610.5 L 186.2 -588.7 L 153.4 -495.1 L 237.1 -452.8 L 285.9 -432.1 L 368.5 -464.9 L 371.8 -418.3 L 276 -345.1 L 252 -303.6 Z" />
<path class="neighbor" d="M 727.1 815 L 824.6 769.6 L 942.9 761.5 L 893.4 693.2 L 1082.7 606.6 L 1096.6 471.6 L 1070.5 396.5 L 1091 283.9 L 1062.6 204.3 L 977.4 125.9 L 906.4 26.7 L 812.8 -106.4 L 677.8 -173.8 L 710.1 -214.3 L 782.1 -243.8 L 738.5 -342 L 599.8 -342.9 L 549.2 -445.2 L 483.4 -534.1 L 543.8 -561.6 L 633.7 -561.1 L 743.2 -574.1 L 839.2 -634.1 L 893.5 -591.8 L 996.4 -571.3 L 978.6 -506.4 L 1032.3 -460.6 L 1145.7 -431.4 L 995.3 -335 L 901.4 -228.6 L 876.7 -150.5 L 962.8 -31.7 L 1068.1 115.4 L 1170.4 185 L 1238.8 275.5 L 1290.4 483.9 L 1275.2 682.1 L 1181.2 756.2 L 1052.3 828.7 L 960.4 922.6 L 819.9 1027.5 L 779 955.3 L 810.7 879 L 727.1 815 Z" />

<path class="country" d="M 530.1 623.5 L 503.4 487.5 L 575.5 393.8 L 721.2 372.3 L 826.7 388.5 L 919.7 432.7 L 970.6 355 L 1070.5 396.5 L 1096.6 471.6 L 1082.7 606.6 L 893.4 693.2 L 942.9 761.5 L 824.6 769.6 L 727.1 815 L 632.8 798.6 L 587.1 739.9 L 530.1 623.5 Z" />


<g class="city"><circle cx="296.90814242759546" cy="447.2062320643285" r="5" /><text x="308.90814242759546" y="451.2062320643285">Bangkok</text></g>
<g class="city"><circle cx="993.9168788748391" cy="783.9603284982517" r="5" /><text x="1005.9168788748391" y="787.9603284982517">Ho Chi Minh City</text></g>
<g class="city"><circle cx="792.4947184650487" cy="694.9965916102682" r="5" /><text x="804.4947184650487" y="698.9965916102682">Phnom Penh</text></g>
<g class="city"><circle cx="1168.1594328165247" cy="187.23736790041247" r="5" /><text x="1180.1594328165247" y="191.23736790041247">Da Nang</text></g>
<g class="city"><circle cx="475.46737789051986" cy="306.6304149812441" r="5" /><text x="487.46737789051986" y="310.6304149812441">Nakhon Ratchasima</text></g>
<g class="city"><circle cx="599.3684709258475" cy="520.635659787857" r="5" /><text x="611.3684709258475" y="524.635659787857">Battambang</text></g>
<g class="city"><circle cx="672.5787137246446" cy="490.6047345275756" r="5" /><text x="684.5787137246446" y="494.6047345275756">Siem Reap</text></g>
<text class="map-title" x="80" y="105">Cambodia Political Study Map</text>
<text class="map-subtitle" x="80" y="145">Capital: Phnom Penh | Continent: Asia</text>
  <text class="footer" x="80" y="1036">Made with Natural Earth. Free vector and raster map data @ naturalearthdata.com.</text>
</svg>
