<?xml version="1.0" encoding="UTF-8"?>
<svg xmlns="http://www.w3.org/2000/svg" width="1600" height="1100" viewBox="0 0 1600 1100" role="img" aria-labelledby="title desc">
  <title id="title">Comoros Political Study Map</title>
  <desc id="desc">Generated from local app country data. Run npm run maps:build with network access for Natural Earth/Commons upgrades.</desc>
  <defs>
    <linearGradient id="terrain" x1="0" x2="1" y1="0" y2="1">
      <stop offset="0%" stop-color="#6c8c53" />
      <stop offset="42%" stop-color="#d5c487" />
      <stop offset="72%" stop-color="#b88b5f" />
      <stop offset="100%" stop-color="#f1f5ee" />
    </linearGradient>
    <filter id="softShadow" x="-10%" y="-10%" width="120%" height="120%">
      <feDropShadow dx="0" dy="10" stdDeviation="12" flood-color="#0f172a" flood-opacity="0.16" />
    </filter>
    <style>
      .neighbor { fill: #ffffff; stroke: #94a3b8; stroke-width: 1.2; opacity: 0.72; }
      .country { fill: #f7f1df; stroke: #1f2937; stroke-width: 4; filter: url(#softShadow); }
      .admin1 { fill: none; stroke: #64748b; stroke-width: 1.1; stroke-dasharray: 6 7; opacity: 0.75; }
      .river { fill: none; stroke: #1d9bd1; stroke-width: 3; stroke-linecap: round; opacity: 0.88; }
      .lake { fill: #8ed1ea; stroke: #0ea5e9; stroke-width: 1.5; opacity: 0.8; }
      .city circle { fill: #ef4444; stroke: #ffffff; stroke-width: 2; }
      .city text, .terrain-label { fill: #172033; font: 700 24px system-ui, sans-serif; paint-order: stroke; stroke: #ffffff; stroke-width: 5; stroke-linejoin: round; }
      .map-title { fill: #0f172a; font: 800 46px system-ui, sans-serif; }
      .map-subtitle { fill: #475569; font: 600 24px system-ui, sans-serif; }
      .footer { fill: #64748b; font: 500 18px system-ui, sans-serif; }
    </style>
  </defs>
  <rect width="100%" height="100%" fill="#eaf3f8" />
  <rect x="40" y="40" width="1520" height="1020" rx="32" fill="#ffffff" opacity="0.54" />
  <path class="country" d="M 1230.7 565 L 1179.7 660.7 L 1120.7 740.8 L 1049.4 810.6 L 953 849.1 L 851.3 866.7 L 744.1 898.3 L 616.5 915.8 L 508.8 858.7 L 470.6 746.4 L 468 646.7 L 444.7 565 L 425.6 470.8 L 459.5 376.4 L 534.7 301.2 L 626.5 236 L 739.5 199.6 L 856 231.1 L 943 302.7 L 1023.5 349.3 L 1131.8 382 L 1222.1 456.8 Z" />
<g class="city"><circle cx="800" cy="505" r="7" /><text x="816" y="510">Moroni</text></g>
<text class="map-title" x="80" y="105">Comoros Political Study Map</text>
<text class="map-subtitle" x="80" y="145">Capital: Moroni | Continent: Africa</text>
  <text class="footer" x="80" y="1036">Generated from local app country data. Run npm run maps:build with network access for Natural Earth/Commons upgrades.</text>
</svg>
