<?xml version="1.0" encoding="UTF-8"?>
<svg xmlns="http://www.w3.org/2000/svg" width="1600" height="1100" viewBox="0 0 1600 1100" role="img" aria-labelledby="title desc">
  <title id="title">North Korea Physical Study Map</title>
  <desc id="desc">Made with Natural Earth. Free vector and raster map data @ naturalearthdata.com.</desc>
  <defs>
    <linearGradient id="terrain" x1="0" x2="1" y1="0" y2="1">
      <stop offset="0%" stop-color="#6c8c53" />
      <stop offset="42%" stop-color="#d5c487" />
      <stop offset="72%" stop-color="#b88b5f" />
      <stop offset="100%" stop-color="#f1f5ee" />
    </linearGradient>
    <filter id="softShadow" x="-10%" y="-10%" width="120%" height="120%">
      <feDropShadow dx="0" dy="10" stdDeviation="12" flood-color="#0f172a" flood-opacity="0.16" />
    </filter>
    <style>
      .neighbor { fill: #ffffff; stroke: #94a3b8; stroke-width: 1.2; opacity: 0.72; }
      .country { fill: url(#terrain); stroke: #1f2937; stroke-width: 4; filter: url(#softShadow); }
      .admin1 { fill: none; stroke: #64748b; stroke-width: 1.1; stroke-dasharray: 6 7; opacity: 0.75; }
      .river { fill: none; stroke: #1d9bd1; stroke-width: 3; stroke-linecap: round; opacity: 0.88; }
      .lake { fill: #8ed1ea; stroke: #0ea5e9; stroke-width: 1.5; opacity: 0.8; }
      .city circle { fill: #ef4444; stroke: #ffffff; stroke-width: 2; }
      .city text, .terrain-label { fill: #172033; font: 700 24px system-ui, sans-serif; paint-order: stroke; stroke: #ffffff; stroke-width: 5; stroke-linejoin: round; }
      .map-title { fill: #0f172a; font: 800 46px system-ui, sans-serif; }
      .map-subtitle { fill: #475569; font: 600 24px system-ui, sans-serif; }
      .footer { fill: #64748b; font: 500 18px system-ui, sans-serif; }
    </style>
  </defs>
  <rect width="100%" height="100%" fill="#d8edf0" />
  <rect x="40" y="40" width="1520" height="1020" rx="32" fill="#ffffff" opacity="0.54" />
  <path class="neighbor" d="M 5230.4 -2077.5 L 5340.6 -2113.6 L 5340.6 -2054.5 L 5245.8 -2050.1 L 5230.4 -2077.5 Z M -5985.5 59.6 L -6025 110.9 L -6108.8 125.2 L -6194.8 214.5 L -6116.2 296.6 L -6124.7 354.9 L -6030.2 456.8 L -6030.2 456.8 L -6081.9 491.7 L -6096.7 513.7 L -6135 507.8 L -6194.5 455.2 L -6218.8 452.3 L -6273.2 432.3 L -6299.7 396.8 L -6380.4 378.7 L -6432.9 392.2 L -6448 376.2 L -6565.8 334.7 L -6693.2 320.7 L -6766.3 305.9 L -6776.9 316.1 L -6887.2 243 L -6985.9 210.3 L -7060.7 159.5 L -6997.7 145.7 L -6925.9 73.3 L -6974.3 39.1 L -6846.8 3.8 L -6849 -15.2 L -6926.7 -1.2 L -6924 -39.6 L -6879.4 -63.8 L -6795.7 -70.2 L -6782 -99 L -6801.2 -146.7 L -6766 -192 L -6767 -217.4 L -6894.6 -245.6 L -6945.1 -244.6 L -6998.5 -285.2 L -7064.9 -271.5 L -7174.8 -301.9 L -7172.9 -318.9 L -7203.7 -356.4 L -7272.7 -360.6 L -7279.9 -387.5 L -7258.3 -405 L -7313.6 -454 L -7403.3 -445.6 L -7429.6 -450 L -7451.4 -430.3 L -7483.7 -433.8 L -7483.7 -433.8 L -7505 -489.2 L -7525.3 -517.9 L -7508.7 -526 L -7438.9 -523 L -7405.2 -541.9 L -7430.1 -565 L -7488.5 -580.2 L -7483.3 -595.9 L -7518.5 -611.6 L -7572.7 -668.3 L -7554.2 -691.6 L -7562.7 -732.3 L -7647.2 -752.9 L -7692.6 -742.6 L -7704.9 -764 L -7796 -785.7 L -7823.8 -836.8 L -7831.2 -878.8 L -7872.9 -898.7 L -7835.8 -926.1 L -7861.5 -1006.8 L -7799.9 -1056.7 L -7813 -1071.8 L -7813 -1071.8 L -7714.6 -1119.6 L -7805.3 -1160.8 L -7805.3 -1160.8 L -7620 -1271.2 L -7539.6 -1321.2 L -7507.1 -1365.3 L -7635.2 -1424.6 L -7599.8 -1481 L -7677.7 -1545.4 L -7619.4 -1619.6 L -7720.1 -1718.1 L -7640.2 -1783.3 L -7772.7 -1841 L -7760.1 -1901.5 L -7690.2 -1909.5 L -7543 -1944.2 L -7543 -1944.2 L -7453.7 -1974.3 L -7311.6 -1922 L -7074.6 -1901.4 L -6747.7 -1803.6 L -6681.3 -1762.4 L -6675.6 -1704.9 L -6771.6 -1659.4 L -6912.9 -1636.3 L -7299.2 -1702.1 L -7362.7 -1691.1 L -7221.7 -1627.7 L -7216.1 -1587.6 L -7210.5 -1499.2 L -7099.1 -1472.8 L -7031.5 -1450.3 L -7020.3 -1492.3 L -7072.4 -1529.5 L -7017.4 -1562.2 L -6808.2 -1508.4 L -6735.3 -1529.5 L -6793.5 -1592.8 L -6591.9 -1677.6 L -6512 -1672.6 L -6431.3 -1642.3 L -6380.8 -1701.8 L -6453 -1753.4 L -6410.6 -1805.1 L -6474.2 -1858.8 L -6232.2 -1831 L -6182.8 -1782.6 L -6292.3 -1771.9 L -6291.7 -1723.8 L -6223.6 -1694.1 L -6090 -1712.9 L -6068.8 -1768.1 L -5888 -1809.3 L -5586.1 -1883.6 L -5520.8 -1879.3 L -5606.1 -1826.8 L -5498.8 -1817.8 L -5436.8 -1847.4 L -5274.6 -1849.8 L -5146.1 -1885.6 L -5047.6 -1833.5 L -4949.2 -1890.8 L -5039.9 -1940.9 L -4994.9 -1969.5 L -4739.3 -1943.3 L -4619.5 -1916.3 L -4306 -1817.4 L -4248.1 -1862.7 L -4336 -1908.4 L -4338.6 -1926.8 L -4442.9 -1935.3 L -4414.3 -1976.3 L -4460.6 -2043.8 L -4463.2 -2071.5 L -4303.5 -2149.9 L -4246.8 -2228.5 L -4182.4 -2245.5 L -3953.3 -2222.7 L -3935.3 -2174.6 L -4017.3 -2104.4 L -3963.5 -2076.8 L -3935.7 -2016.3 L -3955.3 -1897.7 L -3859.9 -1844.7 L -3897 -1787 L -4066.5 -1664.1 L -3967.6 -1651.3 L -3933.2 -1682.5 L -3838 -1704.7 L -3815 -1747.5 L -3740.1 -1788.7 L -3790.5 -1837.9 L -3750.1 -1895 L -3844.8 -1902.1 L -3865.6 -1950.2 L -3796.5 -2037.1 L -3908.9 -2107.7 L -3754 -2166 L -3774.1 -2227.5 L -3730.9 -2229.5 L -3685.5 -2181.5 L -3719.6 -2098 L -3627 -2082.2 L -3666.4 -2144.6 L -3521.6 -2178.6 L -3342.1 -2183.2 L -3182.2 -2133.9 L -3259.1 -2206 L -3267.7 -2298.1 L -3117.3 -2315.6 L -2909.2 -2311.8 L -2721.7 -2323.1 L -2792 -2368.3 L -2691.8 -2425.2 L -2592.4 -2427.6 L -2424.2 -2470.5 L -2195.7 -2482 L -2166.9 -2505.7 L -1939.7 -2513.7 L -1868.9 -2494.3 L -1674.7 -2540.3 L -1515.7 -2538.9 L -1491.9 -2576.2 L -1409.2 -2613 L -1204.9 -2648.5 L -1056.5 -2620.5 L -1174.3 -2599.2 L -978.3 -2585.9 L -955 -2543.2 L -875.9 -2564.2 L -623 -2563.1 L -427.9 -2520.9 L -358.5 -2488.4 L -380 -2443.5 L -475.7 -2417.9 L -703.1 -2369.8 L -768.1 -2344.1 L -660.8 -2332 L -532.8 -2310.2 L -454.9 -2326.6 L -410.8 -2271 L -372.8 -2293.5 L -234.4 -2307.2 L 43.2 -2292.9 L 64.3 -2252.4 L 426 -2239.6 L 431 -2305.6 L 614.6 -2290.5 L 752.7 -2291 L 892.4 -2245.4 L 932.3 -2190 L 881.1 -2153.8 L 989.8 -2085.7 L 1125.8 -2050.6 L 1209.3 -2141.4 L 1348.1 -2102.4 L 1495.6 -2125.7 L 1663.1 -2099.1 L 1726.8 -2123.3 L 1868.3 -2111.2 L 1805.9 -2191.5 L 1920.1 -2229 L 2701.6 -2172.8 L 2775.2 -2121.5 L 3001.7 -2055.3 L 3351.1 -2071.7 L 3523.4 -2057.5 L 3595.4 -2021.7 L 3584.9 -1958.4 L 3691.5 -1933.8 L 3807.3 -1951.5 L 3960.8 -1953.8 L 4124.1 -1936.8 L 4288.1 -1946.4 L 4438.8 -1869.4 L 4546.1 -1897.1 L 4476.1 -1952.4 L 4514.6 -1990.9 L 4790.7 -1966.7 L 4970.7 -1971.8 L 5219.5 -1930.6 L 5340.6 -1892.8 L 5340.6 -1548.1 L 5340 -1547.6 L 5228.8 -1509.6 L 5116.7 -1515.9 L 5194.7 -1469.9 L 5246.2 -1398.6 L 5286.2 -1375.3 L 5296.2 -1339.5 L 5273.9 -1316.6 L 5112.6 -1335.4 L 4870.7 -1270.3 L 4793.8 -1260.2 L 4661.4 -1199.4 L 4535.8 -1146.3 L 4504 -1107 L 4380.2 -1166.8 L 4154.8 -1098.9 L 4115.4 -1131.1 L 4032.1 -1094 L 3916.4 -1105.8 L 3888.5 -1048.9 L 3784.7 -965.2 L 3787.8 -930.2 L 3886.3 -910.8 L 3874.7 -784.9 L 3794.4 -781.7 L 3757.3 -709.3 L 3793.3 -672 L 3642 -627.8 L 3612 -529.1 L 3483 -507.9 L 3457.1 -420 L 3332.4 -339.4 L 3300.4 -399 L 3263.3 -525.3 L 3215 -717.5 L 3256.6 -837.5 L 3329.6 -889.2 L 3334.1 -929.6 L 3468.6 -949 L 3623.2 -1057.9 L 3772.1 -1146.9 L 3927.6 -1215.9 L 3997.2 -1337.9 L 3892.1 -1330.6 L 3840.1 -1259.3 L 3620.6 -1164.3 L 3549.8 -1270.7 L 3326.4 -1241.3 L 3109.8 -1096.3 L 3181.3 -1043.2 L 2988.2 -1020.6 L 2854.4 -1011.7 L 2860.6 -1074.3 L 2726.1 -1087.4 L 2619 -1044.9 L 2354.4 -1059.8 L 2069.8 -1034.1 L 1789.5 -865.2 L 1457.9 -661.2 L 1594.2 -650.3 L 1636.8 -596.1 L 1720.8 -576.9 L 1776.2 -620.1 L 1871.1 -614.5 L 1996 -519.3 L 1998.9 -445.7 L 1931.3 -359.2 L 1924 -255.9 L 1885 -117.5 L 1754.5 7.7 L 1725.6 67.5 L 1608.1 168.3 L 1491.6 268.2 L 1435.7 319.3 L 1320.4 370 L 1265.8 371.2 L 1211.5 329.1 L 1095.3 392.4 L 1081.8 421.2 L 1081.8 421.2 L 1081.8 421.2 L 1081.8 421.2 L 1069.7 406.1 L 1069.7 406.1 L 1069.2 362.1 L 1113.4 359.8 L 1125.8 257.6 L 1103 183.5 L 1177.3 152.9 L 1282.3 168.2 L 1340.5 84 L 1370.2 -10.8 L 1403.8 -42.4 L 1449.2 -120.3 L 1306.2 -94.8 L 1231.2 -60.6 L 1099.8 -60.7 L 1064.7 -142 L 962.2 -203.5 L 811.6 -231.2 L 779.6 -316 L 749.5 -369.1 L 717.1 -406.3 L 663.6 -493.6 L 587.6 -525.5 L 458.1 -551.2 L 343.4 -548.9 L 235.9 -533.3 L 164.4 -490.2 L 211.9 -469.7 L 213 -421.9 L 164.8 -394.2 L 86.7 -302.4 L 87.5 -264.3 L -34.4 -209.6 L -138.3 -242.3 L -241.5 -235.1 L -286.8 -264.1 L -338.7 -273.4 L -465.5 -212.5 L -579.4 -198.1 L -658.9 -176.7 L -767.9 -190.8 L -848.1 -189.9 L -900.6 -234.1 L -985.4 -275.7 L -1072.1 -287.1 L -1181.6 -275.8 L -1263.3 -259.7 L -1386.2 -296.1 L -1402.7 -361 L -1504.5 -383.2 L -1583 -393.3 L -1680 -429.1 L -1769.6 -339.4 L -1734.4 -288.5 L -1818.5 -228.2 L -1943.6 -250 L -2030 -253.1 L -2087.8 -293.5 L -2178.1 -294.8 L -2253.3 -321.4 L -2385 -280.7 L -2550.1 -206.1 L -2641.3 -191.1 L -2675.1 -184 L -2721 -236.9 L -2832.5 -225.4 L -2869.3 -262.1 L -2929.8 -278.9 L -2971.5 -328.9 L -3019.2 -344.5 L -3143.6 -322.2 L -3262.8 -372.1 L -3308.9 -326.8 L -3502.2 -546.5 L -3612.6 -613.4 L -3581 -640.5 L -3797.8 -558.8 L -3880.8 -553.9 L -3873.6 -601.1 L -3984.8 -630.6 L -4075.1 -609.6 L -4102.4 -699.3 L -4257.9 -717.9 L -4335.6 -682 L -4552.2 -650.1 L -4594.4 -628.7 L -4918.2 -598.6 L -4957.9 -569.1 L -4895.4 -509.8 L -4978.5 -487.3 L -4962.3 -463.7 L -5045.3 -421.6 L -4905.1 -362.1 L -4926.8 -321.1 L -5048.3 -324.8 L -5073.4 -299.1 L -5184.1 -344 L -5321.3 -342.2 L -5413.1 -305.7 L -5515.5 -340.7 L -5706.3 -400.7 L -5841.4 -398.4 L -6020 -304.3 L -6030.8 -241.1 L -6119.8 -291.3 L -6188.8 -196.2 L -6163.5 -178.6 L -6213.5 -113 L -6140 -54.3 L -6075.8 -56.7 L -6020.7 1.1 L -6029.5 45.6 L -5985.5 59.6 Z M -2119.8 -2936.4 L -1932.7 -2955.9 L -1764.5 -2912.4 L -1565.3 -2828.7 L -1586.7 -2750.9 L -1775.4 -2740.1 L -2016.4 -2765.1 L -2160.1 -2798.1 L -2226.5 -2860.2 L -2344.5 -2877.3 L -2119.8 -2936.4 Z M -1335.9 -2785.5 L -1116.6 -2736.4 L -1142.3 -2701.2 L -1630.1 -2667.8 L -1472 -2781.4 L -1400.9 -2791.2 L -1335.9 -2785.5 Z M 1778.5 -2513.5 L 2006.9 -2509.7 L 2319.7 -2463.8 L 2251.7 -2399.5 L 1932.7 -2401.9 L 1789.2 -2381.5 L 1617.8 -2437.7 L 1664.3 -2497.2 L 1778.5 -2513.5 Z M 2591 -2445 L 2808.2 -2422.4 L 2708.2 -2388.2 L 2569.9 -2395.9 L 2409.1 -2430.1 L 2429.8 -2458.1 L 2591 -2445 Z M 1867.8 -2274 L 1949.8 -2308.2 L 2058 -2316.2 L 2181 -2283.2 L 2191.4 -2260.4 L 2060.2 -2259.8 L 1882.9 -2269.5 L 1867.8 -2274 Z M -6353.6 -2898.8 L -6184.7 -2914.5 L -6053.2 -2915.6 L -6035.6 -2892.3 L -5985.9 -2913 L -5904.3 -2927.2 L -5776 -2908.3 L -5809.4 -2895.1 L -5925.6 -2883.7 L -6003.4 -2877.1 L -6015.5 -2862.9 L -6116.6 -2848.6 L -6210.3 -2869.1 L -6161.1 -2896.1 L -6353.6 -2898.8 Z M -8267.2 -626.4 L -8426.3 -625.1 L -8532.9 -634.9 L -8513.2 -673 L -8393.8 -701.1 L -8303.2 -685.9 L -8264.9 -672.2 L -8274.1 -648.5 L -8267.2 -626.4 Z M -5604.2 -2306.9 L -5397 -2382.9 L -5420.4 -2422.1 L -5226.9 -2467.8 L -4941.2 -2523.4 L -4653.3 -2539.6 L -4505.1 -2571.7 L -4336.7 -2582.9 L -4276.5 -2548.8 L -4334.7 -2521.8 L -4641.2 -2478.9 L -4905.5 -2437.7 L -5174.3 -2355.3 L -5303.2 -2270.9 L -5438.8 -2187.6 L -5421.2 -2115.8 L -5255.7 -2044.8 L -5306.8 -2037.2 L -5589.6 -2048.5 L -5612.5 -2086.9 L -5769.1 -2110.1 L -5781.8 -2156.8 L -5693.3 -2175.4 L -5696.3 -2222.6 L -5524.6 -2296.3 L -5604.2 -2306.9 Z M 2131.8 -572.5 L 2161.8 -489.1 L 2159.5 -403.9 L 2195.2 -316.6 L 2282.3 -163.4 L 2154.2 -191.9 L 2101 -66.9 L 2185.3 21.8 L 2182.9 82.2 L 2117.3 30.1 L 2060.6 97 L 2044.6 24.4 L 2054.2 -59.9 L 2044.4 -153.2 L 2064.4 -218.6 L 2068.2 -334.3 L 2017.5 -419.4 L 2025.2 -537.7 L 2105.2 -577.5 L 2070.8 -617.6 L 2109.3 -629.7 L 2131.8 -572.5 Z M -25369.9 -1740.7 L -25377.3 -1686.9 L -25319 -1665.4 L -25339.1 -1728.3 L -25104.2 -1715.4 L -24934.8 -1634.4 L -25020.6 -1596.7 L -25162.4 -1587.7 L -25164.6 -1503.2 L -25199.2 -1485.2 L -25280.2 -1487.8 L -25346.2 -1517.9 L -25461.2 -1543.2 L -25480.6 -1580.7 L -25568.4 -1594.9 L -25666.8 -1583.6 L -25713.9 -1613.9 L -25695.1 -1646.1 L -25798.7 -1625.5 L -25759.7 -1584.8 L -25808.7 -1548.1 L -25808.7 -1892.8 L -25596.8 -1826.7 L -25369.9 -1740.7 Z M -25695.7 -2059.7 L -25808.7 -2054.5 L -25808.7 -2113.6 L -25797.7 -2117.2 L -25724.3 -2117.1 L -25599.2 -2092.3 L -25606.6 -2080.5 L -25695.7 -2059.7 Z M -7341 96.6 L -7318.2 75.2 L -7256.7 93.7 L -7228.8 97.1 L -7217.6 114.2 L -7204.5 116.9 L -7203.8 124.3 L -7161.5 145.2 L -7073.3 140 L -7090.1 170.9 L -7184.9 185.9 L -7302.3 235.9 L -7350.4 218.3 L -7331.4 177.7 L -7425.9 152.3 L -7410.6 135.8 L -7327.8 107 L -7341 96.6 Z" />
<path class="neighbor" d="M 683.4 808 L 688.8 800.2 L 727.4 803.3 L 761.1 764.2 L 822.3 760 L 859.1 754.3 L 871.5 733.4 L 946.2 835.5 L 967.7 891.6 L 968.3 991.2 L 935.7 1038.8 L 857.4 1055.4 L 788.2 1091.3 L 710.3 1098.7 L 700.6 1051.6 L 716.6 986.7 L 678.4 896.6 L 742.7 882.1 L 683.4 808 Z" />
<path class="neighbor" d="M -761.6 2499.8 L -832.5 2473 L -835 2398.5 L -792.4 2359.3 L -697.9 2335.1 L -648.1 2337.1 L -628.8 2370.1 L -666.8 2408.2 L -686.8 2458.2 L -761.6 2499.8 Z M -3289.5 410 L -3296.4 360.7 L -3237 338.1 L -3314.9 187.8 L -3143.5 153.3 L -3099.2 134 L -3036.8 -20.9 L -2865.1 7.5 L -2817 -31.6 L -2812.9 -118.3 L -2741 -126.4 L -2675.1 -184 L -2641.3 -191.1 L -2618.6 -130.8 L -2545.8 -84.9 L -2422.4 -52.4 L -2362.7 17.3 L -2396 118.4 L -2364.9 155.9 L -2262.1 170.7 L -2145.5 182.8 L -2041 236.7 L -1987.5 246.3 L -1948.1 326.1 L -1897.3 377.5 L -1801.9 375.5 L -1623.3 394.9 L -1508.3 382.8 L -1422.8 395.7 L -1294.8 448.3 L -1190.1 448.2 L -1151.8 475.1 L -1051.1 428.6 L -911.3 398.6 L -781.6 395.3 L -680.5 364.9 L -618.4 318.5 L -557.9 289.4 L -571.9 260.9 L -599.5 227.6 L -554.1 171.9 L -505.4 179.7 L -416.5 197.2 L -330.2 151.3 L -198.3 117.8 L -134.9 60.6 L -74 35.9 L 51.7 24.5 L 119.9 34.2 L 129.4 3.5 L 51 -57 L -18.4 -84.7 L -84.9 -52.7 L -170.3 -66.2 L -219.3 -55.2 L -241.6 -90.6 L -180.4 -177.1 L -138.3 -242.3 L -34.4 -209.6 L 87.5 -264.3 L 86.7 -302.4 L 164.8 -394.2 L 213 -421.9 L 211.9 -469.7 L 164.4 -490.2 L 235.9 -533.3 L 343.4 -548.9 L 458.1 -551.2 L 587.6 -525.5 L 663.6 -493.6 L 717.1 -406.3 L 749.5 -369.1 L 779.6 -316 L 811.6 -231.2 L 962.2 -203.5 L 1064.7 -142 L 1099.8 -60.7 L 1231.2 -60.6 L 1306.2 -94.8 L 1449.2 -120.3 L 1403.8 -42.4 L 1370.2 -10.8 L 1340.5 84 L 1282.3 168.2 L 1177.3 152.9 L 1103 183.5 L 1125.8 257.6 L 1113.4 359.8 L 1069.2 362.1 L 1069.7 406.1 L 1013.8 355 L 979.4 403.5 L 845.8 440.8 L 859.3 486.4 L 784.5 483.3 L 743.4 456.1 L 684 517.5 L 588.6 564 L 518.2 619.5 L 397.2 644.7 L 333.5 685.1 L 240.3 708.7 L 286.3 668.6 L 268.2 634.9 L 336.7 576.8 L 291 531.4 L 215.6 562 L 117.9 622.1 L 64.6 678 L -20.3 682.2 L -64.4 722.5 L -18.8 781 L 52 795.3 L 54.9 834.1 L 123.4 859.4 L 220.3 797.6 L 297.1 831.3 L 353.1 833.6 L 367.1 878.9 L 244.6 903.1 L 204.2 949.8 L 120.1 993.2 L 75.6 1053.7 L 168.8 1101.3 L 202.8 1186.4 L 255.4 1265.7 L 314.2 1332.2 L 312.8 1396.4 L 258.5 1420.1 L 279.2 1466.2 L 330.1 1493.1 L 316.8 1563.5 L 294.8 1632.1 L 246.5 1639.9 L 183.3 1733.5 L 113.2 1847.1 L 32.9 1950.4 L -86.1 2030.2 L -206.5 2103 L -304 2113 L -356.9 2151.4 L -386.8 2123.3 L -435.7 2166.3 L -556.7 2209.7 L -648.2 2222.9 L -677.8 2314.3 L -725.7 2319.4 L -748.4 2256.6 L -727.9 2223.1 L -844 2195.4 L -884.9 2209.5 L -972 2187.1 L -1013.2 2151.9 L -999.5 2102.1 L -1078.6 2086.3 L -1120.3 2053.8 L -1194.1 2099.9 L -1278.2 2109.9 L -1347.2 2109.5 L -1393.6 2130.6 L -1438.5 2143.3 L -1425.4 2242.2 L -1471.6 2239.9 L -1479.3 2219.5 L -1481.9 2183.8 L -1545.4 2209 L -1582.9 2193 L -1647.1 2160.5 L -1621.9 2088.7 L -1676.7 2071.9 L -1697.4 1992.3 L -1788.7 2006.6 L -1778.3 1904 L -1696.4 1831.7 L -1692.9 1760.3 L -1695.4 1694.1 L -1733.2 1673.5 L -1762.1 1622.6 L -1812.7 1629 L -1906 1616.1 L -1876.8 1579.7 L -1917.4 1525.9 L -1979 1562.4 L -2051.6 1541.1 L -2151.4 1596.2 L -2230.1 1660.5 L -2299.9 1671.4 L -2337.8 1648.1 L -2383.5 1646 L -2445.3 1626 L -2492.1 1647.9 L -2549.3 1712.3 L -2556.6 1644.1 L -2609.3 1662.3 L -2710.2 1653.9 L -2808.1 1634 L -2878.3 1596 L -2945.6 1579 L -2974.6 1537.4 L -3023.2 1525 L -3110.6 1468.6 L -3179.9 1442 L -3215.8 1462.7 L -3336.1 1402.2 L -3421.1 1347.4 L -3445.3 1252 L -3383.2 1263.7 L -3380.4 1219.5 L -3414.8 1175.2 L -3406.1 1104.6 L -3499.1 1003.2 L -3641.4 968.2 L -3667 901.7 L -3730.9 861.4 L -3746.3 836.6 L -3759.3 787.2 L -3756.3 753.6 L -3808.8 733.9 L -3837.3 742.6 L -3859.2 662.5 L -3834.6 642.7 L -3846.5 622.5 L -3763.9 581.6 L -3704.1 564.7 L -3612.5 576.3 L -3579.8 521 L -3468.8 510.8 L -3438 476.4 L -3301.6 429.5 L -3289.5 410 Z" />
<path class="neighbor" d="M 2042.7 684.2 L 1962.6 771.3 L 1964.1 860.6 L 1931.5 929.7 L 1946.6 973 L 1901.5 1034 L 1791 1074.7 L 1638.9 1080 L 1515.6 1178.8 L 1457.4 1145.5 L 1453.8 1080.9 L 1303.4 1099.9 L 1201 1140.7 L 1099.7 1142.4 L 1187.4 1206 L 1129.7 1353.1 L 1073.7 1389.5 L 1031.9 1355.9 L 1053.1 1277.9 L 998.3 1252.7 L 963.2 1193.4 L 1045 1166.7 L 1090.3 1112.3 L 1177.4 1067.6 L 1240.8 1008.4 L 1413.1 982.6 L 1505.6 1000.3 L 1596.1 846.5 L 1653.8 887.8 L 1780.8 801.3 L 1830 767.7 L 1884.3 661.9 L 1869.5 564.6 L 1906.1 509.9 L 1998.1 494 L 2045.2 614 L 2042.7 684.2 Z M 2278.8 270.6 L 2340 233.9 L 2359.2 331.1 L 2230.9 354.7 L 2155.1 440.7 L 2019 381.5 L 1971.9 476.2 L 1875.7 477.5 L 1863.8 391.5 L 1906.6 324.9 L 1999.1 320.1 L 2024.3 200.4 L 2049.9 133 L 2151.5 223.1 L 2217.9 252.1 L 2278.8 270.6 Z M 1219.5 1178.9 L 1267.4 1127.3 L 1316.6 1137.3 L 1352.1 1100.9 L 1415.7 1119.6 L 1426.8 1149.2 L 1378 1201.6 L 1342.5 1173.8 L 1298.2 1193.9 L 1275.2 1244.6 L 1218.8 1219.9 L 1219.5 1178.9 Z" />
<path class="lake" d="M 1257.5 176.2 L 1251.7 185.6 L 1240.5 205.7 L 1227.2 214.2 L 1219 221.4 L 1211.3 218 L 1208 214.8 L 1208.3 212.7 L 1202 208.9 L 1193.4 203 L 1194.7 193.5 L 1196.8 183.4 L 1188.7 174.3 L 1188.9 169.7 L 1187.8 162.2 L 1193.5 155.9 L 1207.3 152.3 L 1222.2 152.2 L 1237.5 155.1 L 1250.1 160.8 L 1257.3 167.8 L 1257.5 176.2 L 1257.5 176.2 L 1257.5 176.2 L 1257.5 176.2 Z" />
<path class="country" d="M 1081.8 421.2 L 1081.8 421.2 L 1081.8 421.2 L 1081.8 421.2 Z M 1069.7 406.1 L 1069.7 406.1 L 1081.8 421.2 L 1049 416 L 1011.4 445.3 L 985.6 474.8 L 988.8 536.9 L 944.1 556.1 L 928.7 571.3 L 896.1 596.9 L 838.5 611.1 L 800.9 634.4 L 798.2 671.8 L 788.1 681.4 L 822.5 695.4 L 871.5 733.4 L 859.1 754.3 L 822.3 760 L 761.1 764.2 L 727.4 803.3 L 688.8 800.2 L 683.4 808 L 641.3 791.6 L 630.9 807.8 L 605.5 815 L 602.5 798.7 L 580.1 790.8 L 556.8 777 L 580.5 738.9 L 600.9 728.8 L 593.2 712.9 L 615.2 666.3 L 609.5 652.1 L 559 642.7 L 518.2 619.5 L 588.6 564 L 684 517.5 L 743.4 456.1 L 784.5 483.3 L 859.3 486.4 L 845.8 440.8 L 979.4 403.5 L 1013.8 355 L 1069.7 406.1 Z" />

<path class="river" d="M 456.6 311.9 L 461.8 319.3 L 460.9 328.7 L 455.8 342.6 L 454.8 352.1 L 458.1 356.9 L 459.1 364.4 L 457.8 374.5 L 461.5 383.1 L 470.3 390.4 L 475.6 396.7 L 477.6 402 L 480.5 405.1 L 475.3 412 L 453 422.7 L 439 427.3 L 433.1 425.9 L 424 427.7 L 411.5 432.9 L 399.4 444 L 387.7 460.9 L 380.7 476.7 L 377.2 498.7 L 361.7 508.3 L 356.8 515.3 L 360.2 522.1 L 357.6 526.6 L 350.3 530 L 347.6 535.6 L 342.6 539.6 L 335.3 542.1 L 334.9 545.8 L 334.3 553.8" />
<path class="river" d="M 553.6 141.7 L 565.7 142.1 L 570.9 140.3 L 573.2 136.5 L 577.1 135.5 L 582.6 137.2 L 586.2 140.3 L 588 145 L 595.2 147 L 607.8 146.5 L 615.8 144.3 L 619.1 140.6 L 629.2 138.4 L 646.1 137.9 L 658.5 133.1 L 666.4 124.2 L 677.5 120 L 691.8 120.3 L 704.1 119.2 L 714.4 116.5 L 722.8 111.8 L 729.2 104.9 L 737.6 99.1 L 748.1 94.4 L 762 94.4 L 779.3 98.9 L 790.8 100.9 L 796.2 100.2 L 800.4 97.6 L 803.1 92.9 L 810.2 93.2 L 821.5 98.2 L 833.5 100.9 L 846.1 101.3 L 857.4 100.1 L 867.5 97.4 L 877.5 97.7 L 887.4 101 L 897.3 101.1 L 907.2 98 L 915.7 98.6 L 922.7 102.9 L 930.9 102.9 L 940.3 98.7 L 949.1 90.5 L 957.4 78.3 L 965.2 70.2 L 972.4 66.4 L 977.8 61.1 L 981.2 54.5 L 988.6 48.8 L 999.8 43.8 L 1007 38 L 1010.3 31.5 L 1014.6 28.1 L 1019.9 27.8 L 1023.3 26.3 L 1024.7 23.5 L 1029.8 22.1 L 1043.1 21.9 M 1236 -58.9 L 1223.2 -41.4 L 1213.4 -33.9 L 1199.7 -27 L 1191.2 -21.2 L 1188 -16.6 L 1161.9 -12.9 L 1112.7 -10.1 L 1084.4 -5.4 L 1076.8 1.2 L 1070.2 5.3 L 1064.4 6.7 L 1060.3 10.2 L 1057.8 15.6 L 1053.2 19.1 L 1042.9 21.7" />
<path class="river" d="M 214.7 317.1 L 240.7 309.7 L 265.8 309 L 298.7 312.7 L 324.7 308.7 L 343.9 297 L 361 289 L 376.1 284.9 L 388.7 283.2 L 398.8 283.8 L 410.1 287.5 L 422.7 294.3 L 431.9 297.8 L 437.9 298.1 L 443.7 299.4 L 449.2 301.8 L 453.1 305.2 L 456.6 311.9" />
<g class="city"><circle cx="754.5711240641065" cy="823.7197525504507" r="5" /><text x="766.5711240641065" y="827.7197525504507">Seoul</text></g>
<g class="city"><circle cx="447.4245548985415" cy="456.9677009417802" r="5" /><text x="459.4245548985415" y="460.9677009417802">Shenyeng</text></g>
<g class="city"><circle cx="928.5159798627473" cy="1037.551315610284" r="5" /><text x="940.5159798627473" y="1041.551315610284">Busan</text></g>
<g class="city"><circle cx="646.842689561719" cy="697.9895664591797" r="5" /><text x="658.842689561719" y="701.9895664591797">Pyongyang</text></g>
<g class="city"><circle cx="610.9600633220444" cy="278.72146050009087" r="5" /><text x="622.9600633220444" y="282.72146050009087">Changchun</text></g>
<g class="city"><circle cx="289.9347104272959" cy="706.3480726126888" r="5" /><text x="301.9347104272959" y="710.3480726126888">Dalian</text></g>
<g class="city"><circle cx="723.6383089342312" cy="831.5244917721222" r="5" /><text x="735.6383089342312" y="835.5244917721222">Incheon</text></g>
<g class="city"><circle cx="715.6613828071913" cy="280.0225532116603" r="5" /><text x="727.6613828071913" y="284.0225532116603">Jilin</text></g>
<text class="map-title" x="80" y="105">North Korea Physical Study Map</text>
<text class="map-subtitle" x="80" y="145">Landmark: Juche Tower | Study terrain and water systems</text>
  <text class="footer" x="80" y="1036">Made with Natural Earth. Free vector and raster map data @ naturalearthdata.com.</text>
</svg>
