<?xml version="1.0" encoding="UTF-8"?>
<svg xmlns="http://www.w3.org/2000/svg" width="1600" height="1100" viewBox="0 0 1600 1100" role="img" aria-labelledby="title desc">
  <title id="title">Kuwait Political Study Map</title>
  <desc id="desc">Made with Natural Earth. Free vector and raster map data @ naturalearthdata.com.</desc>
  <defs>
    <linearGradient id="terrain" x1="0" x2="1" y1="0" y2="1">
      <stop offset="0%" stop-color="#6c8c53" />
      <stop offset="42%" stop-color="#d5c487" />
      <stop offset="72%" stop-color="#b88b5f" />
      <stop offset="100%" stop-color="#f1f5ee" />
    </linearGradient>
    <filter id="softShadow" x="-10%" y="-10%" width="120%" height="120%">
      <feDropShadow dx="0" dy="10" stdDeviation="12" flood-color="#0f172a" flood-opacity="0.16" />
    </filter>
    <style>
      .neighbor { fill: #ffffff; stroke: #94a3b8; stroke-width: 1.2; opacity: 0.72; }
      .country { fill: #f7f1df; stroke: #1f2937; stroke-width: 4; filter: url(#softShadow); }
      .admin1 { fill: none; stroke: #64748b; stroke-width: 1.1; stroke-dasharray: 6 7; opacity: 0.75; }
      .river { fill: none; stroke: #1d9bd1; stroke-width: 3; stroke-linecap: round; opacity: 0.88; }
      .lake { fill: #8ed1ea; stroke: #0ea5e9; stroke-width: 1.5; opacity: 0.8; }
      .city circle { fill: #ef4444; stroke: #ffffff; stroke-width: 2; }
      .city text, .terrain-label { fill: #172033; font: 700 24px system-ui, sans-serif; paint-order: stroke; stroke: #ffffff; stroke-width: 5; stroke-linejoin: round; }
      .map-title { fill: #0f172a; font: 800 46px system-ui, sans-serif; }
      .map-subtitle { fill: #475569; font: 600 24px system-ui, sans-serif; }
      .footer { fill: #64748b; font: 500 18px system-ui, sans-serif; }
    </style>
  </defs>
  <rect width="100%" height="100%" fill="#eaf3f8" />
  <rect x="40" y="40" width="1520" height="1020" rx="32" fill="#ffffff" opacity="0.54" />
  <path class="neighbor" d="M -934.8 -14.8 L -1019.1 -269.4 L -556.2 -487 L -477.2 -739.7 L -496.9 -892.5 L -382.5 -944.1 L -275.3 -1074.6 L -185.5 -1107.1 L 57.7 -1080.1 L 131.1 -1026.9 L 231.3 -1062.2 L 366.8 -812.8 L 503.9 -750 L 519.7 -627.9 L 414.4 -555.7 L 366 -392.5 L 510.8 -193.8 L 767 -79.2 L 874.6 79.7 L 840.3 231.2 L 907.1 231.1 L 909.2 342.5 L 1024.9 452.4 L 900.8 442.1 L 760.3 424.7 L 606.9 625.5 L 218.1 608.8 L -371.4 188.3 L -683 41.9 L -934.8 -14.8 Z" />
<path class="neighbor" d="M 1024.9 452.4 L 909.2 342.5 L 907.1 231.1 L 840.3 231.2 L 874.6 79.7 L 767 -79.2 L 510.8 -193.8 L 366 -392.5 L 414.4 -555.7 L 519.7 -627.9 L 503.9 -750 L 366.8 -812.8 L 231.3 -1062.2 L 231.3 -1062.2 L 117 -1229.7 L 157.9 -1294.5 L 92.6 -1534.3 L 235.8 -1593.8 L 269 -1514.9 L 374.6 -1418.4 L 518 -1390.6 L 593.7 -1396.8 L 840.3 -1551 L 918.7 -1566.5 L 980.5 -1505.1 L 908.4 -1401.7 L 1038.8 -1292.2 L 1090.8 -1302.6 L 1157 -1148.4 L 1355.2 -1104.9 L 1500.4 -1000 L 1797.7 -963.9 L 2124.3 -1019.2 L 2144.3 -1068.1 L 2328 -1108.6 L 2476.7 -1228.1 L 2616.6 -1222.1 L 2708.4 -1261 L 2857 -1241.8 L 3088.2 -1135.8 L 3255.2 -1112.9 L 3494.2 -927.7 L 3650 -920.3 L 3668.4 -744.3 L 3583.2 -483.8 L 3525.7 -331.6 L 3616.7 -300.8 L 3527.3 -186.3 L 3595.8 -19.3 L 3612.2 113.4 L 3770.5 148.6 L 3787.7 283.2 L 3598 472.8 L 3701.5 582.8 L 3785.7 709 L 3985.6 801 L 3991.4 985.1 L 4091.4 1019 L 4108.7 1115.3 L 3807.1 1223.3 L 3728.3 1466.2 L 3335 1403 L 3107 1355 L 2871 1327.8 L 2781.8 1071.4 L 2681.8 1034.4 L 2521.1 1071.7 L 2310.2 1172.9 L 2054.7 1103.6 L 1843.6 942.9 L 1642.3 883.3 L 1502.7 685 L 1348.4 406.2 L 1235.8 440.1 L 1103 370.8 L 1024.9 452.4 Z" />
<path class="neighbor" d="M -1821.2 571.6 L -1588.5 604.9 L -1498.2 540.5 L -1448.1 465.3 L -1288.6 436.3 L -1254.2 366.3 L -1185 330.8 L -1393.4 121.7 L -974.7 16.8 L -934.8 -14.8 L -683 41.9 L -371.4 188.3 L 218.1 608.8 L 606.9 625.5 L 793.2 645.6 L 845.3 745.3 L 993.1 739.8 L 1075 920.2 L 1177.9 967.9 L 1213.7 1041.4 L 1356.2 1129.2 L 1368.8 1215.5 L 1348 1285.2 L 1374.5 1355.4 L 1434.6 1414 L 1462.4 1482.6 L 1493.7 1533.8 L 1556.9 1575.3 L 1614.9 1560.4 L 1654.6 1640.3 L 1662.6 1688.7 L 1742.7 1900.5 L 2371.2 2005.9 L 2413.3 1961.7 L 2509.2 2109.8 L 2369.8 2528 L 1742.5 2737.1 L 1139.6 2817.2 L 944.5 2911.3 L 794.6 3130.9 L 697 3165.7 L 644.8 3096 L 564.6 3106.5 L 362.5 3085.6 L 324.2 3064.7 L 82.9 3069.5 L 26.2 3088.4 L -59.7 3034 L -115.1 3136.8 L -93.7 3224.9 L -185.5 3291.6 L -212.6 3202.4 L -275.7 3139.4 L -291.8 3056 L -399.8 2981.1 L -511.2 2805.7 L -570.2 2635.4 L -714.8 2491.5 L -808.1 2457.1 L -946.5 2257.9 L -970.7 2112.6 L -961.8 1988.6 L -1081.7 1756.8 L -1179.8 1675.2 L -1292.7 1631.9 L -1361.5 1512.1 L -1350.1 1464.9 L -1408.2 1356.5 L -1469.2 1309.8 L -1550.9 1154.2 L -1678.2 985.6 L -1784.8 842 L -1888.9 843 L -1856.4 728.3 L -1847.1 655.1 L -1821.2 571.6 Z" />

<path class="country" d="M 900.8 442.1 L 944.4 534.4 L 925.8 582.1 L 993.1 739.8 L 845.3 745.3 L 793.2 645.6 L 606.9 625.5 L 760.3 424.7 L 900.8 442.1 Z" />


<g class="city"><circle cx="901.1898590909082" cy="568.4614318181818" r="5" /><text x="913.1898590909082" y="572.4614318181818">Kuwait City</text></g>
<g class="city"><circle cx="1056.2750954545443" cy="169.04134090909142" r="5" /><text x="1068.2750954545443" y="173.04134090909142">Ahvaz</text></g>
<g class="city"><circle cx="866.7433863636358" cy="329.3019954545456" r="5" /><text x="878.7433863636358" y="333.3019954545456">Basra</text></g>
<text class="map-title" x="80" y="105">Kuwait Political Study Map</text>
<text class="map-subtitle" x="80" y="145">Capital: Kuwait City | Continent: Asia</text>
  <text class="footer" x="80" y="1036">Made with Natural Earth. Free vector and raster map data @ naturalearthdata.com.</text>
</svg>
