<?xml version="1.0" encoding="UTF-8"?>
<svg xmlns="http://www.w3.org/2000/svg" width="1600" height="1100" viewBox="0 0 1600 1100" role="img" aria-labelledby="title desc">
  <title id="title">Kazakhstan Physical Study Map</title>
  <desc id="desc">Made with Natural Earth. Free vector and raster map data @ naturalearthdata.com.</desc>
  <defs>
    <linearGradient id="terrain" x1="0" x2="1" y1="0" y2="1">
      <stop offset="0%" stop-color="#6c8c53" />
      <stop offset="42%" stop-color="#d5c487" />
      <stop offset="72%" stop-color="#b88b5f" />
      <stop offset="100%" stop-color="#f1f5ee" />
    </linearGradient>
    <filter id="softShadow" x="-10%" y="-10%" width="120%" height="120%">
      <feDropShadow dx="0" dy="10" stdDeviation="12" flood-color="#0f172a" flood-opacity="0.16" />
    </filter>
    <style>
      .neighbor { fill: #ffffff; stroke: #94a3b8; stroke-width: 1.2; opacity: 0.72; }
      .country { fill: url(#terrain); stroke: #1f2937; stroke-width: 4; filter: url(#softShadow); }
      .admin1 { fill: none; stroke: #64748b; stroke-width: 1.1; stroke-dasharray: 6 7; opacity: 0.75; }
      .river { fill: none; stroke: #1d9bd1; stroke-width: 3; stroke-linecap: round; opacity: 0.88; }
      .lake { fill: #8ed1ea; stroke: #0ea5e9; stroke-width: 1.5; opacity: 0.8; }
      .city circle { fill: #ef4444; stroke: #ffffff; stroke-width: 2; }
      .city text, .terrain-label { fill: #172033; font: 700 24px system-ui, sans-serif; paint-order: stroke; stroke: #ffffff; stroke-width: 5; stroke-linejoin: round; }
      .map-title { fill: #0f172a; font: 800 46px system-ui, sans-serif; }
      .map-subtitle { fill: #475569; font: 600 24px system-ui, sans-serif; }
      .footer { fill: #64748b; font: 500 18px system-ui, sans-serif; }
    </style>
  </defs>
  <rect width="100%" height="100%" fill="#d8edf0" />
  <rect x="40" y="40" width="1520" height="1020" rx="32" fill="#ffffff" opacity="0.54" />
  <path class="neighbor" d="M 610 701.6 L 609.3 637.6 L 654 627.3 L 657.2 628.8 L 684.1 641.2 L 698.3 647.8 L 714.9 663.5 L 735.3 660.9 L 765.1 659.6 L 785.8 672.3 L 784.6 689.7 L 793 689.8 L 796.5 704 L 818.6 704.6 L 823.4 712.8 L 829.9 712.7 L 837.4 700.3 L 860.3 688.2 L 870.3 685 L 875.5 686.7 L 860.9 697.9 L 873.7 704.5 L 886.1 700.1 L 906.6 709.3 L 884.4 721.8 L 871.2 720.1 L 864 720.5 L 861.5 715.7 L 865.2 707.6 L 842 711.7 L 836.4 722.8 L 828.2 732.4 L 813.7 731.6 L 809.2 739.2 L 821.9 743.4 L 825.7 756.3 L 815.9 773.9 L 802.8 770.2 L 793.1 770.1 L 793.6 759.5 L 770.5 752 L 752.4 743.5 L 741.1 735.4 L 721.2 723.4 L 712.7 705.5 L 706.8 702.3 L 688.1 703.1 L 681.4 699.6 L 679.6 685.7 L 656.2 676.5 L 641.5 686.6 L 626.7 692.6 L 629.6 701.4 L 610 701.6 Z" />
<path class="neighbor" d="M 2741.3 184.4 L 2763.4 177.1 L 2763.4 189 L 2744.4 189.9 L 2741.3 184.4 Z M 490.7 613.2 L 482.8 623.5 L 466 626.4 L 448.7 644.3 L 464.5 660.8 L 462.8 672.5 L 481.8 692.9 L 481.8 692.9 L 471.4 699.9 L 468.4 704.3 L 460.7 703.1 L 448.8 692.6 L 443.9 692 L 433 688 L 427.7 680.9 L 411.5 677.2 L 401 680 L 397.9 676.7 L 374.3 668.4 L 348.7 665.6 L 334.1 662.6 L 331.9 664.7 L 309.8 650 L 290 643.5 L 275 633.3 L 287.6 630.5 L 302 616 L 292.3 609.1 L 317.9 602 L 317.5 598.2 L 301.9 601 L 302.4 593.3 L 311.4 588.4 L 328.2 587.2 L 330.9 581.4 L 327.1 571.8 L 334.1 562.7 L 333.9 557.6 L 308.3 552 L 298.2 552.2 L 287.5 544 L 274.2 546.8 L 252.1 540.7 L 252.5 537.3 L 246.3 529.7 L 232.5 528.9 L 231 523.5 L 235.4 520 L 224.3 510.1 L 206.3 511.8 L 201 511 L 196.6 514.9 L 190.1 514.2 L 190.1 514.2 L 185.8 503.1 L 181.8 497.3 L 185.1 495.7 L 199.1 496.3 L 205.9 492.5 L 200.9 487.9 L 189.2 484.8 L 190.2 481.7 L 183.1 478.5 L 172.3 467.1 L 176 462.5 L 174.3 454.3 L 157.3 450.2 L 148.2 452.2 L 145.7 447.9 L 127.5 443.6 L 121.9 433.3 L 120.4 424.9 L 112 420.9 L 119.5 415.4 L 114.3 399.2 L 126.7 389.2 L 124.1 386.2 L 124.1 386.2 L 143.8 376.6 L 125.6 368.3 L 125.6 368.3 L 162.8 346.2 L 178.9 336.1 L 185.4 327.3 L 159.7 315.4 L 166.8 304.1 L 151.2 291.1 L 162.9 276.3 L 142.7 256.5 L 158.7 243.4 L 132.1 231.8 L 134.7 219.7 L 148.7 218.1 L 178.2 211.1 L 178.2 211.1 L 196.1 205.1 L 224.7 215.6 L 272.2 219.7 L 337.8 239.3 L 351.1 247.6 L 352.3 259.2 L 333 268.3 L 304.7 272.9 L 227.1 259.7 L 214.4 261.9 L 242.7 274.6 L 243.8 282.7 L 244.9 300.4 L 267.3 305.7 L 280.9 310.2 L 283.1 301.8 L 272.6 294.3 L 283.7 287.8 L 325.7 298.6 L 340.3 294.3 L 328.6 281.6 L 369.1 264.6 L 385.1 265.6 L 401.3 271.7 L 411.4 259.8 L 396.9 249.4 L 405.4 239 L 392.7 228.3 L 441.2 233.8 L 451.2 243.6 L 429.2 245.7 L 429.3 255.4 L 443 261.3 L 469.8 257.5 L 474 246.5 L 510.3 238.2 L 570.9 223.3 L 584 224.1 L 566.9 234.7 L 588.4 236.5 L 600.8 230.6 L 633.4 230.1 L 659.2 222.9 L 679 233.3 L 698.7 221.8 L 680.5 211.8 L 689.5 206 L 740.8 211.3 L 764.8 216.7 L 827.8 236.6 L 839.4 227.5 L 821.7 218.3 L 821.2 214.6 L 800.3 212.9 L 806 204.7 L 796.7 191.1 L 796.2 185.6 L 828.2 169.9 L 839.6 154.1 L 852.6 150.7 L 898.5 155.2 L 902.1 164.9 L 885.7 179 L 896.5 184.5 L 902.1 196.7 L 898.1 220.4 L 917.3 231.1 L 909.8 242.7 L 875.8 267.3 L 895.7 269.9 L 902.6 263.6 L 921.7 259.2 L 926.3 250.6 L 941.3 242.3 L 931.2 232.5 L 939.3 221 L 920.3 219.6 L 916.1 209.9 L 930 192.5 L 907.4 178.3 L 938.5 166.6 L 934.5 154.3 L 943.1 153.9 L 952.3 163.5 L 945.4 180.3 L 964 183.4 L 956.1 170.9 L 985.1 164.1 L 1021.2 163.2 L 1053.3 173.1 L 1037.8 158.6 L 1036.1 140.1 L 1066.3 136.6 L 1108 137.4 L 1145.7 135.1 L 1131.6 126 L 1151.6 114.6 L 1171.6 114.1 L 1205.4 105.5 L 1251.2 103.2 L 1257 98.5 L 1302.6 96.8 L 1316.8 100.7 L 1355.8 91.5 L 1387.6 91.8 L 1392.4 84.3 L 1409 76.9 L 1450 69.8 L 1479.8 75.4 L 1456.1 79.7 L 1495.5 82.4 L 1500.2 90.9 L 1516 86.7 L 1566.8 86.9 L 1605.9 95.4 L 1619.9 101.9 L 1615.5 110.9 L 1596.3 116.1 L 1550.7 125.7 L 1537.7 130.9 L 1559.2 133.3 L 1584.9 137.7 L 1600.5 134.4 L 1609.4 145.5 L 1617 141 L 1644.7 138.3 L 1700.5 141.2 L 1704.7 149.3 L 1777.3 151.9 L 1778.3 138.6 L 1815.1 141.6 L 1842.8 141.5 L 1870.9 150.7 L 1878.9 161.8 L 1868.6 169.1 L 1890.4 182.7 L 1917.7 189.8 L 1934.4 171.6 L 1962.3 179.4 L 1991.9 174.7 L 2025.5 180 L 2038.3 175.2 L 2066.7 177.6 L 2054.2 161.5 L 2077.1 154 L 2233.9 165.2 L 2248.7 175.6 L 2294.1 188.8 L 2364.2 185.5 L 2398.8 188.4 L 2413.2 195.6 L 2411.1 208.3 L 2432.5 213.2 L 2455.8 209.7 L 2486.5 209.2 L 2519.3 212.6 L 2552.2 210.7 L 2582.5 226.1 L 2604 220.6 L 2590 209.5 L 2597.7 201.8 L 2653.1 206.6 L 2689.2 205.6 L 2739.1 213.9 L 2763.4 221.4 L 2763.4 290.6 L 2763.3 290.7 L 2741 298.3 L 2718.5 297.1 L 2734.1 306.3 L 2744.5 320.6 L 2752.5 325.3 L 2754.5 332.5 L 2750 337.1 L 2717.7 333.3 L 2669.1 346.4 L 2653.7 348.4 L 2627.1 360.6 L 2601.9 371.2 L 2595.6 379.1 L 2570.7 367.1 L 2525.5 380.7 L 2517.6 374.3 L 2500.9 381.7 L 2477.6 379.3 L 2472 390.8 L 2451.2 407.6 L 2451.8 414.6 L 2471.6 418.5 L 2469.3 443.8 L 2453.2 444.4 L 2445.7 458.9 L 2453 466.4 L 2422.6 475.3 L 2416.6 495.1 L 2390.7 499.3 L 2385.5 517 L 2360.5 533.1 L 2354 521.2 L 2346.6 495.8 L 2336.9 457.3 L 2345.3 433.2 L 2359.9 422.8 L 2360.8 414.7 L 2387.8 410.8 L 2418.8 389 L 2448.7 371.1 L 2479.9 357.3 L 2493.9 332.8 L 2472.8 334.2 L 2462.3 348.5 L 2418.3 367.6 L 2404.1 346.3 L 2359.3 352.2 L 2315.8 381.3 L 2330.1 391.9 L 2291.4 396.4 L 2264.5 398.2 L 2265.8 385.7 L 2238.8 383 L 2217.3 391.6 L 2164.2 388.6 L 2107.1 393.7 L 2050.9 427.6 L 1984.3 468.6 L 2011.7 470.8 L 2020.2 481.6 L 2037.1 485.5 L 2048.2 476.8 L 2067.2 477.9 L 2092.3 497 L 2092.9 511.8 L 2079.3 529.2 L 2077.9 549.9 L 2070 577.7 L 2043.9 602.8 L 2038 614.8 L 2014.5 635 L 1991.1 655.1 L 1979.9 665.3 L 1956.7 675.5 L 1945.8 675.7 L 1934.9 667.3 L 1911.6 680 L 1908.9 685.8 L 1908.9 685.8 L 1908.9 685.8 L 1908.9 685.8 L 1906.4 682.7 L 1906.4 682.7 L 1906.3 673.9 L 1915.2 673.4 L 1917.7 652.9 L 1913.1 638.1 L 1928 631.9 L 1949.1 635 L 1960.8 618.1 L 1966.7 599.1 L 1973.5 592.7 L 1982.6 577.1 L 1953.9 582.2 L 1938.8 589.1 L 1912.5 589.1 L 1905.4 572.7 L 1884.9 560.4 L 1854.7 554.9 L 1848.2 537.8 L 1842.2 527.2 L 1835.7 519.7 L 1824.9 502.2 L 1809.7 495.8 L 1783.7 490.6 L 1760.7 491.1 L 1739.1 494.2 L 1724.8 502.9 L 1734.3 507 L 1734.5 516.6 L 1724.9 522.2 L 1709.2 540.6 L 1709.3 548.2 L 1684.9 559.2 L 1664 552.6 L 1643.3 554.1 L 1634.2 548.3 L 1623.8 546.4 L 1598.4 558.6 L 1575.5 561.5 L 1559.6 565.8 L 1537.7 563 L 1521.6 563.1 L 1511.1 554.3 L 1494.1 545.9 L 1476.7 543.6 L 1454.7 545.9 L 1438.3 549.1 L 1413.6 541.8 L 1410.3 528.8 L 1389.9 524.4 L 1374.1 522.3 L 1354.7 515.1 L 1336.7 533.1 L 1343.8 543.4 L 1326.9 555.4 L 1301.8 551.1 L 1284.5 550.5 L 1272.8 542.3 L 1254.7 542.1 L 1239.6 536.8 L 1213.2 544.9 L 1180.1 559.9 L 1161.8 562.9 L 1155 564.3 L 1145.8 553.7 L 1123.4 556 L 1116 548.7 L 1103.9 545.3 L 1095.5 535.2 L 1086 532.1 L 1061 536.6 L 1037.1 526.6 L 1027.8 535.7 L 989 491.6 L 966.9 478.2 L 973.2 472.7 L 929.7 489.1 L 913.1 490.1 L 914.5 480.6 L 892.2 474.7 L 874.1 478.9 L 868.6 460.9 L 837.4 457.2 L 821.8 464.4 L 778.4 470.8 L 769.9 475.1 L 704.9 481.1 L 697 487.1 L 709.5 498.9 L 692.8 503.5 L 696.1 508.2 L 679.4 516.7 L 707.5 528.6 L 703.2 536.8 L 678.8 536.1 L 673.8 541.2 L 651.6 532.2 L 624 532.6 L 605.6 539.9 L 585.1 532.9 L 546.8 520.8 L 519.7 521.3 L 483.8 540.2 L 481.7 552.9 L 463.8 542.8 L 450 561.9 L 455 565.4 L 445 578.6 L 459.7 590.3 L 472.6 589.9 L 483.7 601.5 L 481.9 610.4 L 490.7 613.2 Z M 1266.4 12 L 1304 8.1 L 1337.7 16.9 L 1377.7 33.6 L 1373.4 49.3 L 1335.5 51.4 L 1287.2 46.4 L 1258.4 39.8 L 1245 27.3 L 1221.3 23.9 L 1266.4 12 Z M 1423.7 42.3 L 1467.7 52.2 L 1462.6 59.2 L 1364.7 65.9 L 1396.4 43.1 L 1410.7 41.2 L 1423.7 42.3 Z M 2048.6 96.9 L 2094.5 97.7 L 2157.3 106.9 L 2143.6 119.8 L 2079.6 119.3 L 2050.8 123.4 L 2016.4 112.1 L 2025.7 100.2 L 2048.6 96.9 Z M 2211.7 110.6 L 2255.3 115.2 L 2235.2 122 L 2207.5 120.5 L 2175.2 113.6 L 2179.3 108 L 2211.7 110.6 Z M 2066.6 144.9 L 2083 138.1 L 2104.7 136.5 L 2129.4 143.1 L 2131.5 147.7 L 2105.2 147.8 L 2069.6 145.9 L 2066.6 144.9 Z M 416.9 19.6 L 450.8 16.4 L 477.2 16.2 L 480.7 20.9 L 490.7 16.7 L 507 13.9 L 532.8 17.7 L 526.1 20.3 L 502.8 22.6 L 487.2 23.9 L 484.7 26.8 L 464.4 29.6 L 445.6 25.5 L 455.5 20.1 L 416.9 19.6 Z M 32.9 475.6 L 1 475.8 L -20.4 473.8 L -16.5 466.2 L 7.5 460.6 L 25.7 463.6 L 33.4 466.4 L 31.5 471.1 L 32.9 475.6 Z M 567.3 138.3 L 608.8 123.1 L 604.1 115.2 L 643 106.1 L 700.3 94.9 L 758.1 91.6 L 787.8 85.2 L 821.6 83 L 833.7 89.8 L 822 95.2 L 760.5 103.8 L 707.5 112.1 L 653.5 128.6 L 627.7 145.6 L 600.4 162.3 L 604 176.7 L 637.2 190.9 L 626.9 192.5 L 570.2 190.2 L 565.6 182.5 L 534.2 177.8 L 531.6 168.5 L 549.4 164.7 L 548.8 155.3 L 583.2 140.5 L 567.3 138.3 Z M 2119.5 486.4 L 2125.6 503.1 L 2125.1 520.2 L 2132.3 537.7 L 2149.8 568.5 L 2124.1 562.7 L 2113.4 587.8 L 2130.3 605.6 L 2129.8 617.7 L 2116.7 607.3 L 2105.3 620.7 L 2102.1 606.1 L 2104 589.2 L 2102 570.5 L 2106 557.4 L 2106.8 534.2 L 2096.6 517.1 L 2098.2 493.4 L 2114.2 485.4 L 2107.3 477.3 L 2115 474.9 L 2119.5 486.4 Z M -3398.9 252 L -3400.4 262.7 L -3388.7 267.1 L -3392.7 254.5 L -3345.6 257 L -3311.6 273.3 L -3328.8 280.9 L -3357.3 282.7 L -3357.7 299.6 L -3364.6 303.2 L -3380.9 302.7 L -3394.1 296.7 L -3417.2 291.6 L -3421.1 284.1 L -3438.7 281.2 L -3458.5 283.5 L -3467.9 277.4 L -3464.1 270.9 L -3484.9 275.1 L -3477.1 283.2 L -3486.9 290.6 L -3486.9 221.4 L -3444.4 234.7 L -3398.9 252 Z M -3464.3 187.9 L -3486.9 189 L -3486.9 177.1 L -3484.7 176.4 L -3470 176.4 L -3444.9 181.4 L -3446.4 183.8 L -3464.3 187.9 Z M 218.8 620.6 L 223.3 616.3 L 235.7 620 L 241.3 620.7 L 243.5 624.2 L 246.1 624.7 L 246.3 626.2 L 254.8 630.4 L 272.5 629.3 L 269.1 635.5 L 250.1 638.5 L 226.5 648.6 L 216.9 645.1 L 220.7 636.9 L 201.7 631.8 L 204.8 628.5 L 221.4 622.7 L 218.8 620.6 Z" />
<path class="neighbor" d="M -98.8 35.5 L -92.3 29.5 L -66.8 28.9 L -44.9 35 L 12.3 47.9 L -31.4 54.8 L -41 67.6 L -56.3 70.8 L -64.5 85.2 L -85.5 85.9 L -122.8 75.3 L -107.1 69.1 L -133.1 64.1 L -166.9 49.5 L -180.4 35.9 L -133.1 29.6 L -123.6 35.7 L -98.8 35.5 Z M 178.2 211.1 L 148.7 218.1 L 134.7 219.7 L 142 207.5 L 119.7 200.6 L 92.8 206.5 L 84.3 219.2 L 67.7 226.9 L 49.1 222.7 L 26.4 223.6 L 7.1 214.4 L -3.3 219 L -14.1 219.7 L -16.6 231.1 L -49.3 228.3 L -53.9 238 L -70.6 237.9 L -82.1 250.3 L -99.4 269.5 L -126.4 294 L -120.1 299.9 L -126.1 306.8 L -143.3 306.5 L -154.6 322.8 L -153.5 345.8 L -142.5 354.6 L -148.2 375 L -162.6 386.9 L -170.3 396.9 L -181.9 386.3 L -216.2 406.4 L -239.4 410.4 L -263.4 401.6 L -269.6 382.9 L -275.1 342.8 L -259.1 331.7 L -213.3 317.1 L -179 299.2 L -147.2 275 L -105.5 241.5 L -76.4 228.4 L -28.7 206.6 L 9.4 199 L 38 199.9 L 64.4 185.6 L 96.1 186.3 L 127.3 182.9 L 181.6 195.6 L 159.2 200.2 L 178.2 211.1 Z M 114.1 28.8 L 88.4 38.2 L 38 40.2 L -13.2 37.3 L -16.3 32.6 L -41.2 32.3 L -60.2 24.3 L -6.6 19.4 L 18.6 23.6 L 36.2 18.4 L 80.1 22.8 L 114.1 28.8 Z M 67.5 67.1 L 28.7 74.2 L -1.9 70.2 L 10.1 65.7 L -0.4 60.1 L 35.6 56.6 L 42.5 63.2 L 67.5 67.1 Z" />
<path class="neighbor" d="M 260.2 841 L 255.5 841.3 L 253.9 844.3 L 248.1 844.3 L 254.3 830.1 L 262.9 817.9 L 263.3 817.3 L 271.1 818.2 L 273.9 825 L 264.4 831.5 L 260.2 841 Z" />
<path class="neighbor" d="M 255.4 856.4 L 258.4 850.9 L 277.8 857.8 L 311.8 839.3 L 318.8 860.4 L 315.5 863 L 280.7 871.7 L 298 889.1 L 292.2 892.1 L 289.4 897.9 L 276.1 900.3 L 272 906.5 L 264.5 911.9 L 245.2 909.1 L 244.6 906.6 L 253.2 878.8 L 252.8 872.1 L 255.4 867 L 255.4 856.4 Z" />
<path class="neighbor" d="M 318.8 860.4 L 311.8 839.3 L 350.2 821.2 L 356.8 800.2 L 355.1 787.5 L 364.6 783.2 L 373.5 772.4 L 381 769.7 L 401.2 771.9 L 407.3 776.4 L 415.6 773.4 L 426.8 794.1 L 438.2 799.4 L 439.5 809.5 L 430.8 815.5 L 426.8 829 L 438.8 845.5 L 460.1 855.1 L 469 868.3 L 466.2 880.8 L 471.7 880.8 L 471.9 890.1 L 481.5 899.2 L 471.2 898.4 L 459.5 896.9 L 446.8 913.6 L 414.5 912.2 L 365.5 877.3 L 339.7 865.1 L 318.8 860.4 Z" />
<path class="neighbor" d="M 1161.8 562.9 L 1180.1 559.9 L 1213.2 544.9 L 1239.6 536.8 L 1254.7 542.1 L 1272.8 542.3 L 1284.5 550.5 L 1301.8 551.1 L 1326.9 555.4 L 1343.8 543.4 L 1336.7 533.1 L 1354.7 515.1 L 1374.1 522.3 L 1389.9 524.4 L 1410.3 528.8 L 1413.6 541.8 L 1438.3 549.1 L 1454.7 545.9 L 1476.7 543.6 L 1494.1 545.9 L 1511.1 554.3 L 1521.6 563.1 L 1537.7 563 L 1559.6 565.8 L 1575.5 561.5 L 1598.4 558.6 L 1623.8 546.4 L 1634.2 548.3 L 1643.3 554.1 L 1664 552.6 L 1655.6 565.7 L 1643.3 583.1 L 1647.8 590.2 L 1657.6 588 L 1674.7 590.7 L 1688.1 584.3 L 1702 589.8 L 1717.8 601.9 L 1715.9 608.1 L 1702.2 606.2 L 1676.9 608.5 L 1664.7 613.4 L 1652 624.9 L 1625.5 631.6 L 1608.2 640.8 L 1590.4 637.3 L 1580.6 635.7 L 1571.5 646.9 L 1577 653.6 L 1579.8 659.3 L 1567.7 665.2 L 1555.2 674.5 L 1534.9 680.6 L 1508.9 681.2 L 1480.9 687.3 L 1460.7 696.6 L 1453 691.2 L 1432 691.2 L 1406.3 680.6 L 1389.1 678.1 L 1366.1 680.5 L 1330.2 676.6 L 1311.1 677 L 1300.9 666.7 L 1293 650.7 L 1282.2 648.7 L 1261.3 637.9 L 1237.9 635.5 L 1217.3 632.5 L 1211 625 L 1217.7 604.7 L 1205.7 590.7 L 1180.9 584.2 L 1166.4 575 L 1161.8 562.9 Z" />
<path class="neighbor" d="M 1328.1 928.1 L 1329.4 934.7 L 1323.3 937.9 L 1324.7 948.6 L 1312.3 945.4 L 1289.8 957.4 L 1290.3 967.4 L 1280.8 981.9 L 1279.9 990.4 L 1272.1 1004.7 L 1258.6 1000.7 L 1257.9 1018.7 L 1254 1024.6 L 1255.8 1032 L 1247.2 1036.1 L 1238.1 1008.6 L 1233.3 1008.6 L 1230.5 1019.7 L 1221 1010.7 L 1226.3 1000.8 L 1234.1 999.8 L 1242.1 985.1 L 1232.1 982.2 L 1216 982.4 L 1199.5 980.1 L 1197.9 968 L 1189.6 967.1 L 1175.9 959.6 L 1169.8 971.4 L 1182.3 980.6 L 1171.4 987.1 L 1167.6 993.4 L 1178.3 998 L 1175.3 1008.5 L 1181.3 1021.6 L 1184 1035.9 L 1181.5 1042.2 L 1169.7 1042 L 1148.3 1045.6 L 1149.3 1058.6 L 1140.1 1068.9 L 1115.1 1080.6 L 1095.6 1101 L 1082.6 1112 L 1065.3 1123.4 L 1065.3 1131.3 L 1056.6 1135.6 L 1041 1141.8 L 1032.9 1142.8 L 1027.7 1156 L 1031.3 1178.6 L 1032.2 1193 L 1024.8 1209.5 L 1024.7 1239 L 1015.8 1239.8 L 1007.9 1253.1 L 1013.1 1258.8 L 997.3 1263.7 L 991.5 1275.5 L 984.5 1280.5 L 968.1 1264.3 L 960 1240 L 953.4 1222.5 L 947.3 1214.2 L 938.1 1197.6 L 933.7 1175.9 L 930.7 1165 L 915 1141.2 L 907.8 1107.5 L 902.6 1085.3 L 902.6 1064.3 L 899.3 1048 L 874 1058.4 L 861.8 1056.3 L 839.1 1035.3 L 847.4 1029 L 842.3 1022.2 L 821.9 1007.5 L 833.5 995.9 L 871.7 995.9 L 868.3 981 L 858.5 972.2 L 856.5 958.8 L 845.2 951 L 864.3 932.8 L 884.5 934.2 L 902.6 916 L 913.5 898.3 L 930.4 880.9 L 930.1 868.5 L 944.9 858.5 L 930.9 849.9 L 924.9 838.2 L 918.7 823 L 927.2 815.5 L 953.5 819.7 L 972.9 817.1 L 989.7 802.5 L 1008.3 822.9 L 1006.6 837.1 L 1013.5 845.9 L 1012.9 854.8 L 1000.5 852.5 L 1005.3 871.6 L 1022.4 882.6 L 1046.5 894.7 L 1035.5 902.6 L 1028.8 918.9 L 1045.6 925.4 L 1061.9 934 L 1084.6 943.7 L 1108.4 945.9 L 1118.4 954.8 L 1131.8 956.4 L 1152.7 960.5 L 1167.2 960.2 L 1169.1 953.3 L 1166.9 942.3 L 1168.2 934.8 L 1178.8 931.1 L 1180.2 944.8 L 1180.6 948.3 L 1196.4 954.9 L 1207.3 952.2 L 1222 953.3 L 1236.1 952.8 L 1237.4 942.2 L 1230.3 936.6 L 1244.3 934.4 L 1260.1 921.5 L 1280.1 910.5 L 1294.7 914.7 L 1307.1 907.4 L 1315.2 918.2 L 1309.3 925.5 L 1328.1 928.1 Z" />
<path class="neighbor" d="M 989.7 802.5 L 972.9 817.1 L 953.5 819.7 L 927.2 815.5 L 918.7 823 L 924.9 838.2 L 930.9 849.9 L 944.9 858.5 L 930.1 868.5 L 930.4 880.9 L 913.5 898.3 L 902.6 916 L 884.5 934.2 L 864.3 932.8 L 845.2 951 L 856.5 958.8 L 858.5 972.2 L 868.3 981 L 871.7 995.9 L 833.5 995.9 L 821.9 1007.5 L 809.2 1003.1 L 804 990.6 L 790.6 977.4 L 758.6 980.6 L 730.4 981 L 706 983.4 L 712.5 963.2 L 737.6 954.2 L 736.1 946.3 L 727.8 943.4 L 727.3 928.1 L 710.7 920.5 L 703.7 910 L 695.2 900.9 L 724.2 909.8 L 741.6 907.2 L 752 909.4 L 755.5 905.6 L 767.6 907.1 L 790.2 899.9 L 790.8 885.1 L 800.4 875.3 L 813.4 875.3 L 815.3 870.4 L 828.5 868.2 L 835 869.8 L 841.7 864.9 L 840.8 854.5 L 848.2 844 L 859.2 839.6 L 852.4 828.1 L 868.9 828.7 L 873.7 822.4 L 873 815.8 L 881.6 808.5 L 879.6 799.8 L 875.5 792.5 L 885.6 784.9 L 904.3 781.3 L 924.2 779.2 L 933 776 L 943.1 774.1 L 956 782.2 L 961.1 795.5 L 989.7 802.5 Z" />
<path class="neighbor" d="M 793.1 770.1 L 802.8 770.2 L 815.9 773.9 L 821.2 776 L 833.8 770.4 L 839.6 773.8 L 845.2 765.8 L 855.6 766.2 L 858.3 763.6 L 860.1 756.6 L 867.6 750.6 L 877 754.5 L 875.1 759.8 L 880.4 760.7 L 878.7 775.3 L 885.6 780.9 L 891.7 777.3 L 899.4 775.6 L 910.2 767.8 L 922.2 769.1 L 940.1 769.1 L 943.1 774.1 L 933 776 L 924.2 779.2 L 904.3 781.3 L 885.6 784.9 L 875.5 792.5 L 879.6 799.8 L 881.6 808.5 L 873 815.8 L 873.7 822.4 L 868.9 828.7 L 852.4 828.1 L 859.2 839.6 L 848.2 844 L 840.8 854.5 L 841.7 864.9 L 835 869.8 L 828.5 868.2 L 815.3 870.4 L 813.4 875.3 L 800.4 875.3 L 790.8 885.1 L 790.2 899.9 L 767.6 907.1 L 755.5 905.6 L 752 909.4 L 741.6 907.2 L 724.2 909.8 L 695.2 900.9 L 710.9 885.2 L 709.5 874 L 696.3 871.1 L 695 860 L 689.3 846.2 L 696.7 836.7 L 689.1 834.1 L 693.9 821.5 L 701 799.8 L 718.7 806.4 L 731.8 804.1 L 735.4 796.2 L 749.1 793.6 L 758.9 788.3 L 762.4 774.5 L 777 771.1 L 779.7 764.9 L 787.9 769.6 L 793.1 770.1 Z" />
<path class="neighbor" d="M 815.9 773.9 L 825.7 756.3 L 821.9 743.4 L 809.2 739.2 L 813.7 731.6 L 828.2 732.4 L 836.4 722.8 L 842 711.7 L 865.2 707.6 L 861.5 715.7 L 864 720.5 L 871.2 720.1 L 864.8 725.4 L 845.9 722.5 L 844.3 732.5 L 863.1 731.2 L 884.6 736.8 L 917.4 734.2 L 921.8 750.3 L 927.5 748.5 L 938.1 752.5 L 937.5 759.2 L 940.1 769.1 L 922.2 769.1 L 910.2 767.8 L 899.4 775.6 L 891.7 777.3 L 885.6 780.9 L 878.7 775.3 L 880.4 760.7 L 875.1 759.8 L 877 754.5 L 867.6 750.6 L 860.1 756.6 L 858.3 763.6 L 855.6 766.2 L 845.2 765.8 L 839.6 773.8 L 833.8 770.4 L 821.2 776 L 815.9 773.9 Z" />
<path class="neighbor" d="M 870.3 685 L 874.2 677.4 L 885.6 674.9 L 914.2 680.9 L 916.9 670.6 L 926.7 667 L 951.5 674.3 L 957.8 672.4 L 986.6 672.9 L 1012.3 674.7 L 1021 681 L 1031.7 683.5 L 1029.3 687.4 L 1001.9 696.8 L 995.7 703.7 L 973.5 705.8 L 966.9 716.9 L 948.5 714.6 L 936.5 717.9 L 920 726.2 L 922.3 730.2 L 917.4 734.2 L 884.6 736.8 L 863.1 731.2 L 844.3 732.5 L 845.9 722.5 L 864.8 725.4 L 871.2 720.1 L 884.4 721.8 L 906.6 709.3 L 886.1 700.1 L 873.7 704.5 L 860.9 697.9 L 875.5 686.7 L 870.3 685 Z" />
<path class="neighbor" d="M 549.8 693.3 L 557.5 687.6 L 577.2 684 L 588.9 688.8 L 601.1 702.4 L 610 701.6 L 629.6 701.4 L 626.7 692.6 L 641.5 686.6 L 656.2 676.5 L 679.6 685.7 L 681.4 699.6 L 688.1 703.1 L 706.8 702.3 L 712.7 705.5 L 721.2 723.4 L 741.1 735.4 L 752.4 743.5 L 770.5 752 L 793.6 759.5 L 793.1 770.1 L 787.9 769.6 L 779.7 764.9 L 777 771.1 L 762.4 774.5 L 758.9 788.3 L 749.1 793.6 L 735.4 796.2 L 731.8 804.1 L 718.7 806.4 L 701 799.8 L 699.5 785.2 L 686.5 784.6 L 666.7 769.2 L 652.8 767.3 L 633.6 758.5 L 621.3 756.9 L 613.7 760.2 L 602 759.7 L 589.7 769.6 L 574.4 772.9 L 571.2 760.7 L 573.7 742.5 L 560.2 736.6 L 564.6 724.7 L 553.1 723.7 L 557 709.1 L 573.3 713.4 L 588.6 707.8 L 575.9 697.4 L 571 687.4 L 557 691.9 L 555.2 704.6 L 549.8 693.3 Z" />
<path class="neighbor" d="M 481.5 899.2 L 471.9 890.1 L 471.7 880.8 L 466.2 880.8 L 469 868.3 L 460.1 855.1 L 438.8 845.5 L 426.8 829 L 430.8 815.5 L 439.5 809.5 L 438.2 799.4 L 426.8 794.1 L 415.6 773.4 L 415.6 773.4 L 406.1 759.5 L 409.5 754.2 L 404.1 734.2 L 416 729.3 L 418.7 735.8 L 427.5 743.9 L 439.4 746.2 L 445.7 745.7 L 466.2 732.8 L 472.7 731.6 L 477.8 736.7 L 471.8 745.2 L 482.6 754.3 L 487 753.5 L 492.5 766.3 L 508.9 769.9 L 521 778.6 L 545.7 781.6 L 572.8 777 L 574.4 772.9 L 589.7 769.6 L 602 759.7 L 613.7 760.2 L 621.3 756.9 L 633.6 758.5 L 652.8 767.3 L 666.7 769.2 L 686.5 784.6 L 699.5 785.2 L 701 799.8 L 693.9 821.5 L 689.1 834.1 L 696.7 836.7 L 689.3 846.2 L 695 860 L 696.3 871.1 L 709.5 874 L 710.9 885.2 L 695.2 900.9 L 703.7 910 L 710.7 920.5 L 727.3 928.1 L 727.8 943.4 L 736.1 946.3 L 737.6 954.2 L 712.5 963.2 L 706 983.4 L 673.3 978.1 L 654.4 974.2 L 634.8 971.9 L 627.4 950.6 L 619.1 947.5 L 605.7 950.6 L 588.2 959 L 567 953.3 L 549.5 939.9 L 532.8 935 L 521.2 918.5 L 508.3 895.4 L 499 898.2 L 488 892.4 L 481.5 899.2 Z" />
<path class="neighbor" d="M 258.4 850.9 L 258.1 850.8 L 260.4 848.1 L 260.2 841 L 264.4 831.5 L 273.9 825 L 271.1 818.2 L 263.3 817.3 L 261.6 804 L 265.9 796.9 L 270.5 793.1 L 275.2 789.3 L 276.1 779.6 L 281.8 782.9 L 300.9 778.1 L 310.2 781.4 L 324.4 781.3 L 344.4 774.8 L 353.8 775.1 L 373.5 772.4 L 364.6 783.2 L 355.1 787.5 L 356.8 800.2 L 350.2 821.2 L 311.8 839.3 L 277.8 857.8 L 258.4 850.9 Z" />
<path class="neighbor" d="M 445.7 745.7 L 439.4 746.2 L 432.3 736.1 L 432.4 733.4 L 424.7 733.5 L 419.6 728.8 L 416 729.3 L 409.1 724.2 L 396.2 719.9 L 397.9 711.5 L 394.9 705.3 L 419.1 702.6 L 422.7 707.2 L 429.3 710.2 L 425.8 714.6 L 435 720.5 L 430.1 726 L 437.5 730.8 L 445.3 733.6 L 445.7 745.7 Z" />
<path class="neighbor" d="M 127.5 443.6 L 145.7 447.9 L 148.2 452.2 L 157.3 450.2 L 174.3 454.3 L 176 462.5 L 172.3 467.1 L 183.1 478.5 L 190.2 481.7 L 189.2 484.8 L 200.9 487.9 L 205.9 492.5 L 199.1 496.3 L 185.1 495.7 L 181.8 497.3 L 185.8 503.1 L 190.1 514.2 L 190.1 514.2 L 175.2 515.2 L 169.9 519 L 168.7 527.8 L 161.8 526.1 L 146.2 526.9 L 141.6 522.9 L 135.1 525.9 L 128.6 523.4 L 114.9 523 L 95.5 518.9 L 78 517.5 L 64.5 517.9 L 55 522.6 L 46.7 523.3 L 46.4 515.6 L 41 507.5 L 51.4 504 L 51.5 497 L 46.7 490.4 L 46 482.8 L 62.8 482.9 L 81.6 476.3 L 85.6 466.5 L 99.9 461 L 98.2 453.2 L 108.8 450.3 L 127.5 443.6 Z" />
<path class="neighbor" d="M 190.1 514.2 L 196.6 514.9 L 201 511 L 206.3 511.8 L 224.3 510.1 L 235.4 520 L 231 523.5 L 232.5 528.9 L 246.3 529.7 L 252.5 537.3 L 252.1 540.7 L 274.2 546.8 L 287.5 544 L 298.2 552.2 L 308.3 552 L 333.9 557.6 L 334.1 562.7 L 327.1 571.8 L 330.9 581.4 L 328.2 587.2 L 311.4 588.4 L 302.4 593.3 L 301.9 601 L 288 602.4 L 276.5 608 L 260.2 608.9 L 245.3 615.4 L 246.1 624.7 L 243.5 624.2 L 241.3 620.7 L 235.7 620 L 223.3 616.3 L 218.8 620.6 L 216.4 618.7 L 189.4 614.3 L 188.2 607.9 L 172.1 610 L 165.7 619.6 L 152.2 632.4 L 144.3 629.4 L 136.2 632.2 L 128.4 629 L 132.8 627.1 L 135.8 621.2 L 140.6 615.6 L 139.4 612.5 L 143 611.1 L 144.7 613.6 L 154.9 614.1 L 159.5 612.8 L 156.3 611 L 157.5 608.4 L 151.5 604 L 149 596.8 L 142.6 593.9 L 143.9 588 L 136 583.4 L 128.9 582.7 L 116.1 577.3 L 104.6 579 L 100.4 581.6 L 93.1 581.6 L 88.7 585.6 L 75.9 587.3 L 70 590 L 61.9 585.7 L 50.8 585.7 L 40 583.7 L 32.5 587.5 L 31.3 582.8 L 21.7 578.1 L 25.1 571.1 L 29.9 566.6 L 33.7 567.6 L 29.2 559.8 L 45 545.3 L 53.6 543.3 L 55.5 538.4 L 46.7 523.3 L 55 522.6 L 64.5 517.9 L 78 517.5 L 95.5 518.9 L 114.9 523 L 128.6 523.4 L 135.1 525.9 L 141.6 522.9 L 146.2 526.9 L 161.8 526.1 L 168.7 527.8 L 169.9 519 L 175.2 515.2 L 190.1 514.2 Z" />
<path class="neighbor" d="M 100.4 581.6 L 104.6 579 L 116.1 577.3 L 128.9 582.7 L 136 583.4 L 143.9 588 L 142.6 593.9 L 149 596.8 L 151.5 604 L 157.5 608.4 L 156.3 611 L 159.5 612.8 L 154.9 614.1 L 144.7 613.6 L 143 611.1 L 139.4 612.5 L 140.6 615.6 L 135.8 621.2 L 132.8 627.1 L 128.4 629 L 125.3 621.1 L 127.2 613.7 L 126.6 606.1 L 116.6 595.7 L 111.1 588.4 L 105.7 583.3 L 100.4 581.6 Z" />
<path class="neighbor" d="M 128.4 629 L 136.2 632.2 L 144.3 629.4 L 152.2 632.4 L 152.6 636.9 L 144.2 640.6 L 138.9 639 L 134.1 659.9 L 123.9 658.1 L 111.2 651.8 L 90.8 655.8 L 82.2 660.3 L 56.7 659.4 L 43.3 656.6 L 36.6 657.9 L 31.6 650.8 L 28.4 647.8 L 32.5 644.8 L 28.2 642.7 L 22.7 646.6 L 12.6 641.5 L 11.2 634.4 L 0.7 630.3 L -1.3 624.7 L -10.7 617.9 L 3.2 614.6 L 13.7 602.9 L 21.9 591.1 L 32.5 587.5 L 40 583.7 L 50.8 585.7 L 61.9 585.7 L 70 590 L 75.9 587.3 L 88.7 585.6 L 93.1 581.6 L 100.4 581.6 L 105.7 583.3 L 111.1 588.4 L 116.6 595.7 L 126.6 606.1 L 127.2 613.7 L 125.3 621.1 L 128.4 629 Z" />
<path class="neighbor" d="M 98.2 453.2 L 99.9 461 L 85.6 466.5 L 81.6 476.3 L 62.8 482.9 L 46 482.8 L 41.8 477.4 L 32.9 475.6 L 31.5 471.1 L 33.4 466.4 L 25.7 463.6 L 7.5 460.6 L 3.8 446 L 23.7 440.7 L 52.8 441.8 L 69.9 440 L 72.3 443.7 L 81.6 444.8 L 98.2 453.2 Z" />
<path class="neighbor" d="M 112 420.9 L 120.4 424.9 L 121.9 433.3 L 127.5 443.6 L 108.8 450.3 L 98.2 453.2 L 81.6 444.8 L 72.3 443.7 L 69.9 440 L 52.8 441.8 L 23.7 440.7 L 3.8 446 L 4.4 432.9 L 12.9 422 L 29.3 416.1 L 43.1 429 L 57 428.7 L 60.4 415.4 L 75.2 412.3 L 82.8 414.4 L 97.7 420.9 L 112 420.9 Z" />
<path class="neighbor" d="M 124.1 386.2 L 124.1 386.2 L 126.7 389.2 L 114.3 399.2 L 119.5 415.4 L 112 420.9 L 97.7 420.9 L 82.8 414.4 L 75.2 412.3 L 60.4 415.4 L 62.4 405.1 L 56 407.3 L 45 401.2 L 43.5 391.2 L 65.4 386.3 L 87.3 383.8 L 106.1 386.7 L 124.1 386.2 L 124.1 386.2 Z" />
<path class="neighbor" d="M 31.6 650.8 L 36.6 657.9 L 43.3 656.6 L 56.7 659.4 L 82.2 660.3 L 90.8 655.8 L 111.2 651.8 L 123.9 658.1 L 134.1 659.9 L 125.1 667.1 L 118.7 679.6 L 124.3 689.5 L 109.4 687.1 L 91.7 692.6 L 91.5 701.2 L 75.7 702.9 L 63.5 696.8 L 49.6 701.6 L 36.7 701.1 L 35.5 689.6 L 26.8 684 L 29.7 681.6 L 27.8 679.5 L 30.7 674 L 37.3 668.6 L 28.9 661.1 L 27.3 654.7 L 31.6 650.8 Z" />
<path class="neighbor" d="M 94.7 805.9 L 92.5 811 L 67.5 812.5 L 67.7 809.6 L 46.5 806.3 L 49.7 798.9 L 59.2 804.7 L 72.7 803.7 L 85.7 805 L 85.2 808 L 94.7 805.9 Z M 36.7 701.1 L 49.6 701.6 L 63.5 696.8 L 75.7 702.9 L 91.5 701.2 L 91.7 692.6 L 100.1 697.2 L 94.8 708.1 L 90.6 710 L 80.1 709.5 L 71 707.9 L 50 712.4 L 62 722.1 L 53.2 725 L 43.5 725 L 34.3 716 L 31.1 719.9 L 35 730.2 L 43.6 738.4 L 37.1 742.2 L 46.8 750.2 L 55.4 755.2 L 55.6 765 L 39.6 760.4 L 44.7 769.3 L 33.7 771.1 L 40.2 786.4 L 28.7 786.6 L 14.5 779.1 L 8 765.2 L 4.9 753.6 L -1.8 745.7 L -10.7 735.8 L -11.9 730.8 L -3.8 722.4 L -2.8 716.8 L 2.8 714.2 L 3.2 709.7 L 14.6 708.1 L 21.2 704.3 L 30.6 704.7 L 33.4 701.7 L 36.7 701.1 Z" />
<path class="neighbor" d="M 415.6 773.4 L 407.3 776.4 L 401.2 771.9 L 381 769.7 L 373.5 772.4 L 353.8 775.1 L 344.4 774.8 L 324.4 781.3 L 310.2 781.4 L 300.9 778.1 L 281.8 782.9 L 276.1 779.6 L 275.2 789.3 L 270.5 793.1 L 265.9 796.9 L 259.5 789 L 266.1 782.5 L 255.5 783.9 L 241 779.9 L 229 789.9 L 202.7 791.9 L 188.6 782.6 L 169.9 782 L 165.9 789.2 L 153.9 791.3 L 137.1 782 L 118.2 782.3 L 107.9 765.1 L 95.2 755.4 L 103.6 741.9 L 92.6 733.6 L 111.9 717 L 138.6 716.3 L 145.9 703.1 L 179 705.4 L 199.9 694.2 L 220.1 689.3 L 248.8 688.9 L 279.1 701.1 L 304 707.8 L 324.3 705.2 L 339.2 706.7 L 359.7 697.6 L 378.2 696.8 L 394.9 705.3 L 397.9 711.5 L 396.2 719.9 L 409.1 724.2 L 416 729.3 L 404.1 734.2 L 409.5 754.2 L 406.1 759.5 L 415.6 773.4 L 415.6 773.4 Z M 91.7 692.6 L 109.4 687.1 L 124.3 689.5 L 126.4 696.1 L 141.5 701.7 L 138.4 706 L 117.8 707 L 110.4 712.3 L 95.9 721.7 L 90.4 713.6 L 90.6 710 L 94.8 708.1 L 100.1 697.2 L 91.7 692.6 Z" />
<path class="neighbor" d="M 1539 1102.8 L 1524.7 1097.5 L 1524.2 1082.5 L 1532.8 1074.7 L 1551.8 1069.8 L 1561.7 1070.2 L 1565.6 1076.8 L 1558 1084.5 L 1554 1094.5 L 1539 1102.8 Z M 1031.7 683.5 L 1030.3 673.6 L 1042.3 669.1 L 1026.6 638.9 L 1061 632 L 1069.9 628.1 L 1082.4 597 L 1116.9 602.8 L 1126.5 594.9 L 1127.4 577.5 L 1141.8 575.9 L 1155 564.3 L 1161.8 562.9 L 1166.4 575 L 1180.9 584.2 L 1205.7 590.7 L 1217.7 604.7 L 1211 625 L 1217.3 632.5 L 1237.9 635.5 L 1261.3 637.9 L 1282.2 648.7 L 1293 650.7 L 1300.9 666.7 L 1311.1 677 L 1330.2 676.6 L 1366.1 680.5 L 1389.1 678.1 L 1406.3 680.6 L 1432 691.2 L 1453 691.2 L 1460.7 696.6 L 1480.9 687.3 L 1508.9 681.2 L 1534.9 680.6 L 1555.2 674.5 L 1567.7 665.2 L 1579.8 659.3 L 1577 653.6 L 1571.5 646.9 L 1580.6 635.7 L 1590.4 637.3 L 1608.2 640.8 L 1625.5 631.6 L 1652 624.9 L 1664.7 613.4 L 1676.9 608.5 L 1702.2 606.2 L 1715.9 608.1 L 1717.8 601.9 L 1702 589.8 L 1688.1 584.3 L 1674.7 590.7 L 1657.6 588 L 1647.8 590.2 L 1643.3 583.1 L 1655.6 565.7 L 1664 552.6 L 1684.9 559.2 L 1709.3 548.2 L 1709.2 540.6 L 1724.9 522.2 L 1734.5 516.6 L 1734.3 507 L 1724.8 502.9 L 1739.1 494.2 L 1760.7 491.1 L 1783.7 490.6 L 1809.7 495.8 L 1824.9 502.2 L 1835.7 519.7 L 1842.2 527.2 L 1848.2 537.8 L 1854.7 554.9 L 1884.9 560.4 L 1905.4 572.7 L 1912.5 589.1 L 1938.8 589.1 L 1953.9 582.2 L 1982.6 577.1 L 1973.5 592.7 L 1966.7 599.1 L 1960.8 618.1 L 1949.1 635 L 1928 631.9 L 1913.1 638.1 L 1917.7 652.9 L 1915.2 673.4 L 1906.3 673.9 L 1906.4 682.7 L 1895.2 672.5 L 1888.3 682.2 L 1861.5 689.7 L 1864.2 698.8 L 1849.2 698.2 L 1841 692.8 L 1829 705.1 L 1809.9 714.4 L 1795.8 725.6 L 1771.5 730.6 L 1758.7 738.7 L 1740 743.5 L 1749.2 735.4 L 1745.6 728.6 L 1759.4 717 L 1750.2 707.9 L 1735 714 L 1715.4 726.1 L 1704.7 737.3 L 1687.7 738.1 L 1678.9 746.2 L 1688 758 L 1702.2 760.8 L 1702.8 768.6 L 1716.5 773.7 L 1736 761.3 L 1751.4 768 L 1762.6 768.5 L 1765.5 777.6 L 1740.9 782.5 L 1732.8 791.8 L 1715.9 800.5 L 1707 812.7 L 1725.7 822.2 L 1732.5 839.3 L 1743 855.2 L 1754.8 868.6 L 1754.5 881.4 L 1743.7 886.2 L 1747.8 895.5 L 1758 900.8 L 1755.4 915 L 1750.9 928.7 L 1741.2 930.3 L 1728.6 949.1 L 1714.5 971.9 L 1698.4 992.6 L 1674.5 1008.6 L 1650.4 1023.2 L 1630.8 1025.2 L 1620.2 1032.9 L 1614.2 1027.3 L 1604.4 1035.9 L 1580.1 1044.6 L 1561.7 1047.3 L 1555.8 1065.6 L 1546.2 1066.6 L 1541.6 1054 L 1545.7 1047.3 L 1522.4 1041.8 L 1514.2 1044.6 L 1496.7 1040.1 L 1488.5 1033 L 1491.2 1023 L 1475.4 1019.9 L 1467 1013.4 L 1452.2 1022.6 L 1435.3 1024.6 L 1421.5 1024.5 L 1412.1 1028.8 L 1403.1 1031.3 L 1405.8 1051.2 L 1396.5 1050.7 L 1394.9 1046.6 L 1394.4 1039.4 L 1381.7 1044.5 L 1374.2 1041.3 L 1361.3 1034.8 L 1366.3 1020.4 L 1355.3 1017 L 1351.2 1001 L 1332.9 1003.9 L 1335 983.3 L 1351.4 968.8 L 1352.1 954.5 L 1351.6 941.2 L 1344 937 L 1338.2 926.8 L 1328.1 928.1 L 1309.3 925.5 L 1315.2 918.2 L 1307.1 907.4 L 1294.7 914.7 L 1280.1 910.5 L 1260.1 921.5 L 1244.3 934.4 L 1230.3 936.6 L 1222.7 932 L 1213.5 931.5 L 1201.1 927.5 L 1191.7 931.9 L 1180.2 944.8 L 1178.8 931.1 L 1168.2 934.8 L 1148 933.1 L 1128.3 929.1 L 1114.2 921.5 L 1100.7 918.1 L 1094.9 909.7 L 1085.2 907.2 L 1067.6 895.9 L 1053.7 890.6 L 1046.5 894.7 L 1022.4 882.6 L 1005.3 871.6 L 1000.5 852.5 L 1012.9 854.8 L 1013.5 845.9 L 1006.6 837.1 L 1008.3 822.9 L 989.7 802.5 L 961.1 795.5 L 956 782.2 L 943.1 774.1 L 940.1 769.1 L 937.5 759.2 L 938.1 752.5 L 927.5 748.5 L 921.8 750.3 L 917.4 734.2 L 922.3 730.2 L 920 726.2 L 936.5 717.9 L 948.5 714.6 L 966.9 716.9 L 973.5 705.8 L 995.7 703.7 L 1001.9 696.8 L 1029.3 687.4 L 1031.7 683.5 Z" />
<path class="neighbor" d="M 443.9 692 L 448.8 692.6 L 460.7 703.1 L 468.4 704.3 L 471.4 699.9 L 481.8 692.9 L 490.9 702 L 499.7 714.4 L 507.8 715.2 L 513.2 719.9 L 498.9 721.3 L 495.9 734.7 L 492.9 740.8 L 486.5 744.9 L 487 753.5 L 482.6 754.3 L 471.8 745.2 L 477.8 736.7 L 472.7 731.6 L 466.2 732.8 L 445.7 745.7 L 445.3 733.6 L 437.5 730.8 L 430.1 726 L 435 720.5 L 425.8 714.6 L 429.3 710.2 L 422.7 707.2 L 419.1 702.6 L 423.3 699.8 L 436.3 704.8 L 445.6 705.8 L 448 703.8 L 439.4 694.4 L 443.9 692 Z M 439.4 746.2 L 427.5 743.9 L 418.7 735.8 L 416 729.3 L 419.6 728.8 L 424.7 733.5 L 432.4 733.4 L 432.3 736.1 L 439.4 746.2 Z" />
<path class="neighbor" d="M 331.9 664.7 L 334.1 662.6 L 348.7 665.6 L 374.3 668.4 L 397.9 676.7 L 401 680 L 411.5 677.2 L 427.7 680.9 L 433 688 L 443.9 692 L 439.4 694.4 L 448 703.8 L 445.6 705.8 L 436.3 704.8 L 423.3 699.8 L 419.1 702.6 L 394.9 705.3 L 378.2 696.8 L 359.7 697.6 L 362.3 690.2 L 358 678.4 L 347.9 672 L 338.3 670 L 331.9 664.7 Z" />
<path class="neighbor" d="M 134.7 219.7 L 132.1 231.8 L 158.7 243.4 L 142.7 256.5 L 162.9 276.3 L 151.2 291.1 L 166.8 304.1 L 159.7 315.4 L 185.4 327.3 L 178.9 336.1 L 162.8 346.2 L 125.6 368.3 L 125.6 368.3 L 125.6 368.3 L 94.1 369.7 L 63.6 376.1 L 35.3 379.7 L 25.3 370.3 L 8.4 364.6 L 12.3 347.5 L 3.9 331.8 L 12.2 321.7 L 27.9 310.8 L 67.6 292 L 79.2 288.3 L 77.4 281 L 53.3 272.8 L 47.4 266 L 46.9 239.3 L 19.8 227.5 L -3.3 219 L 7.1 214.4 L 26.4 223.6 L 49.1 222.7 L 67.7 226.9 L 84.3 219.2 L 92.8 206.5 L 119.7 200.6 L 142 207.5 L 134.7 219.7 Z" />
<path class="neighbor" d="M 206.5 808.7 L 207.8 808.6 L 210.3 804.4 L 222.8 804.6 L 238.6 799.5 L 226.8 806.9 L 228.1 810.1 L 226.2 809.5 L 222.9 810.8 L 220.3 810.4 L 219.5 811.1 L 219.1 809.4 L 217.9 808.3 L 214.5 808.1 L 209.8 809.6 L 206.5 808.7 Z" />
<path class="neighbor" d="M 206.5 808.7 L 209.8 809.6 L 214.5 808.1 L 217.9 808.3 L 219.1 809.4 L 219.5 811.1 L 220.3 810.4 L 222.9 810.8 L 226.2 809.5 L 228.1 810.1 L 228.6 811.5 L 210.8 818.6 L 202.3 816.3 L 198.3 809.3 L 206.5 808.7 Z" />
<path class="lake" d="M 156.3 355.8 L 156.3 355.8 L 156.3 355.8 L 156.3 355.8 L 156.7 355.6 L 156.8 355.3 L 156.6 355 L 157.2 354.6 L 158.2 354.7 L 159.6 355.3 L 160.5 355.5 L 160.7 355.2 L 160.7 355 L 160.7 354.5 L 161.4 354.3 L 162.1 354.3 L 162.5 354 L 162.5 353.7 L 162.3 353.4 L 162.2 353.2 L 162.6 353 L 162.8 352.4 L 162.9 352.2 L 163.2 352 L 163.5 351.7 L 163.5 351.5 L 163.2 351.2 L 163.3 350.8 L 164.1 350.7 L 167.2 351.2 L 167.5 351.2 L 167.6 350.8 L 168 350.6 L 168.7 350.4 L 169.6 350.3 L 169.8 350 L 169.4 349.6 L 169.4 349.2 L 172.3 347 L 173.9 346.2 L 174.5 346.4 L 174.7 346.6 L 174.8 346.8 L 176.9 347.3 L 177.5 347.7 L 177.7 348.5 L 178.2 348.9 L 179.3 349 L 179.5 348.8 L 180.6 348.5 L 180.9 348.6 L 181.4 349 L 181.8 349.2 L 182.2 349 L 182.3 348.8 L 182.8 348.8 L 184.9 350.1 L 185.7 351.1 L 186.5 352.1 L 186.9 352.4 L 187.2 352.3 L 187.2 352 L 187.2 351.7 L 187.5 351.7 L 188.6 352.5 L 189.7 353 L 191.6 353.7 L 192.1 354.1 L 200.1 356.6 L 203 357.7 L 203.6 358.3 L 203.9 358.9 L 203.9 359.5 L 204.1 359.7 L 204.8 359.9 L 205 360.2 L 207.1 361.7 L 207.9 362.7 L 207.9 363.9 L 208.5 364.7 L 209.5 365 L 210.1 365.4 L 210.2 365.9 L 209.6 366.9 L 208.4 368.4 L 208 368.7 L 207.4 368.6 L 206.4 368 L 205 367.7 L 204.2 367.8 L 204.2 368.2 L 204.6 368.8 L 205.4 369.7 L 205.6 370.3 L 205.2 370.6 L 204.2 370.9 L 204.1 371.3 L 204.5 372.1 L 204.5 372.8 L 204 373.4 L 202.5 374 L 200.1 374.5 L 198.3 374.4 L 197.2 373.7 L 194.8 373.1 L 191.1 372.8 L 188.6 373 L 186.9 374.1 L 186.7 374.4 L 186.8 374.6 L 187 374.6 L 187 374.7 L 186 375.8 L 185.9 376.5 L 186.3 377.1 L 186.3 377.6 L 186 378.1 L 185.3 378.4 L 184.4 378.7 L 183.4 378.6 L 182.5 378.2 L 181.2 378.1 L 179.5 378.4 L 178.3 378.3 L 177.6 378.1 L 177.2 377.9 L 177.6 377.7 L 179 377 L 178.9 376.5 L 178.3 376.1 L 178.1 375.6 L 178.5 374.7 L 178.4 374.5 L 176.8 373.7 L 175.7 372.5 L 173.8 369.4 L 173.6 369.1 L 173.3 369.1 L 173.1 369.3 L 172.6 369.3 L 172.5 368.5 L 172.3 368 L 171.7 367.3 L 170.6 366.8 L 168.4 366.1 L 168.2 365.7 L 167.9 364.9 L 167.9 364.4 L 168.2 364.2 L 168.4 363.8 L 168.3 363 L 167.8 362.4 L 167 362.1 L 166.8 361.9 L 166.7 361.4 L 166.2 361 L 164.2 359.6 L 161.3 358.2 L 156.6 356.4 L 156.1 356 L 156.3 355.8 Z" />
<path class="lake" d="M 1545.7 454.5 L 1545.7 454.5 L 1545.7 454.5 L 1545.6 456.1 L 1545 456.9 L 1544.4 458.2 L 1544.3 459 L 1543.7 460.7 L 1543.6 461.5 L 1544.1 462.4 L 1544 463.2 L 1543.1 465.1 L 1542.9 465.6 L 1542.6 466.5 L 1541.9 467.2 L 1541.7 467.8 L 1541.3 469.5 L 1540.2 470.3 L 1539.8 471.5 L 1539.2 474.6 L 1539.3 476.7 L 1540.3 478.2 L 1540.4 478.6 L 1540.1 479.2 L 1539.4 480.2 L 1538.1 481.3 L 1534.9 483.5 L 1534.4 484.2 L 1534.2 484.8 L 1534.3 485.8 L 1534.3 486.8 L 1534.2 487.1 L 1533.8 487.5 L 1531.2 487.5 L 1530.9 487 L 1531.3 485.4 L 1531.8 484.6 L 1531.8 484.2 L 1531.3 483.7 L 1530.6 483.5 L 1529.7 483.6 L 1528.8 484 L 1527.9 484.6 L 1524.1 488.5 L 1522.6 489.7 L 1522.8 489.8 L 1524.6 489.1 L 1526.1 488.7 L 1528 488.4 L 1529.3 488.8 L 1530.2 489.8 L 1530.5 490.8 L 1530.4 491.8 L 1529.5 492.6 L 1526.7 493.7 L 1526 493.8 L 1525.6 493.7 L 1525.1 493.3 L 1524.8 493.4 L 1520.2 495.8 L 1518.6 496.7 L 1518.5 497 L 1519.1 497.6 L 1519.2 498 L 1518.4 498.8 L 1517.4 499.5 L 1513.5 501.4 L 1512.4 502.4 L 1509.2 503.6 L 1507.7 503.8 L 1506 503.8 L 1502.7 504.7 L 1497.7 506.6 L 1494.9 507.7 L 1494.3 508.2 L 1493.3 509.8 L 1492.6 510.3 L 1491.7 510.5 L 1490.7 510.1 L 1489 509.5 L 1487.3 509.3 L 1485.4 509.8 L 1484.1 510.4 L 1483.3 511.1 L 1483.1 512 L 1483.5 513 L 1483.2 514.2 L 1481.9 516.7 L 1481 517.4 L 1479.8 518.3 L 1478.1 519.9 L 1475.1 521.2 L 1468.8 522.7 L 1462.4 523.7 L 1459.6 524.3 L 1458.3 524.8 L 1455.3 525 L 1450.7 524.7 L 1446.6 524 L 1440.7 522.3 L 1439.5 521.7 L 1438.9 521.3 L 1439.1 521 L 1439.4 520.8 L 1440.3 520.6 L 1446.2 520 L 1449.9 519.7 L 1453.2 519.7 L 1455.4 519.3 L 1456.4 518.6 L 1458 518.2 L 1459 518.2 L 1460.1 518.2 L 1462.2 518 L 1464.1 517.6 L 1465.5 517 L 1466.2 516.3 L 1467.3 515.8 L 1468.5 515.4 L 1471.2 514.1 L 1473.3 512.2 L 1476.2 509.3 L 1479.7 507.1 L 1483.7 505.7 L 1486.5 504.6 L 1488 503.7 L 1488.7 503.1 L 1490.8 501.5 L 1491.8 500.9 L 1492.2 500.2 L 1493.9 499.1 L 1494.2 498.6 L 1493.8 498.1 L 1492.1 498.2 L 1492.2 497.8 L 1493.4 496.8 L 1497.2 494.4 L 1500 493.1 L 1505.3 491 L 1505.5 490.7 L 1505.6 489.9 L 1506 489.1 L 1506.9 488 L 1509.7 486.2 L 1514.4 483.9 L 1517.2 481.7 L 1518.1 480.6 L 1518.5 479.9 L 1519.6 478.2 L 1520.4 477.6 L 1521.6 476.4 L 1522.4 475.2 L 1522.8 473.8 L 1523.6 472.7 L 1525.9 470.8 L 1527 469.6 L 1527.7 468.4 L 1528.1 467.4 L 1528.7 466.4 L 1529.5 465.7 L 1529.7 465.1 L 1529.3 464.7 L 1529.9 464.2 L 1531.6 463.4 L 1532.6 462.2 L 1533.7 460.5 L 1534.1 459.3 L 1534.4 456.8 L 1534 455.8 L 1534.1 454.6 L 1534.9 453.9 L 1536.2 453.3 L 1539.5 451.2 L 1540.7 450.5 L 1542.3 450.4 L 1543.9 450.4 L 1545.4 450.8 L 1547.3 452.2 L 1545.7 453.9 L 1545.7 454.5 Z M 1509.3 494 L 1509.3 494 L 1509.3 494 L 1509.8 491.8 L 1508.9 491.7 L 1506.1 493.7 L 1502.1 495 L 1497.6 496.3 L 1495.9 496.8 L 1495.3 497.2 L 1495.3 498.2 L 1501.4 497.4 L 1503.6 496.8 L 1507.1 494.8 L 1509.3 494 Z" />
<path class="lake" d="M 270.6 352.9 L 270.6 352.9 L 270.6 352.9 L 270.7 353.2 L 270.7 353.6 L 270.4 354.2 L 270.1 354.5 L 269.9 354.8 L 269.9 354.8 L 269.8 355 L 269.7 355.2 L 269.8 355.5 L 270 355.8 L 270.1 356.1 L 270 356.5 L 269.6 356.9 L 268.9 357.4 L 268.1 357.7 L 267.2 358 L 266.1 358.3 L 265 358.6 L 263.9 359.2 L 262.9 359.8 L 261.8 360.3 L 261.2 360.6 L 261.3 360.9 L 261.6 361.2 L 261.7 361.4 L 261.5 361.6 L 261.2 361.8 L 260.8 362 L 260.3 362 L 259.8 361.9 L 259.3 361.7 L 258.4 361.4 L 256.9 361.1 L 255.5 360.8 L 254.6 360.2 L 254.1 359.7 L 253.7 359.3 L 253.3 359.1 L 252.9 359 L 252.2 359 L 251.4 359.2 L 250.3 359.5 L 249.1 359.6 L 248.2 359.6 L 247.9 359.3 L 247.5 358.9 L 246.3 358.6 L 244.9 358.5 L 244.1 358.9 L 243.6 359.2 L 243.3 359.2 L 242.9 359 L 242.7 358.7 L 242.5 358.4 L 242.4 358 L 242.4 357.6 L 242.5 357.1 L 242.8 356.7 L 243.1 356.3 L 244 356.1 L 245.5 356 L 247.2 356.1 L 248.6 356.3 L 249.5 356.6 L 249.9 356.8 L 249.5 356.9 L 248.4 357 L 247.3 357.1 L 246.8 357.3 L 247 357.5 L 247.3 357.8 L 247.8 358.1 L 248.4 358.4 L 249.3 358.5 L 250.4 358.5 L 251.9 358.4 L 253.6 358.6 L 255.1 359.3 L 256 359.1 L 256.6 358.4 L 256.9 357.8 L 256.8 357.1 L 256.5 356.3 L 255.9 355.4 L 255.2 354.6 L 254.5 354 L 253.9 353.5 L 252.8 353 L 251.2 352.2 L 248.6 351.3 L 245.3 350.3 L 242 349.3 L 239.5 348.3 L 237.8 347.5 L 236.3 346.6 L 235.3 345.9 L 234.5 345.3 L 234.2 344.9 L 234 344.6 L 234.4 344.7 L 235.2 345.1 L 236.3 345.5 L 237.1 345.7 L 237.8 345.6 L 238.3 345.4 L 238.7 345 L 238.9 344.5 L 238.9 344 L 238.7 343.4 L 238.4 342.9 L 237.9 342.4 L 236.8 341.7 L 235.2 340.7 L 233.7 339.9 L 233 339.4 L 233 339.1 L 233.1 338.7 L 233.2 338.2 L 233 337.8 L 232.4 337.2 L 231.4 336.5 L 230.3 335.8 L 229.3 335.5 L 228.6 335.4 L 228.2 335.3 L 227.9 335 L 227.6 334.5 L 227.5 334 L 227.6 333.7 L 227.8 333.5 L 228.2 333.4 L 228.6 333.4 L 229 333.5 L 229.5 333.8 L 230 334.3 L 230.9 335.2 L 232.3 336.2 L 233.6 337.2 L 234.2 337.8 L 234.3 338.1 L 234.1 338.4 L 234.5 338.9 L 235.8 339.6 L 237.5 340.3 L 238.8 340.7 L 239.6 340.7 L 239.9 340.5 L 239.7 340 L 239.5 339.2 L 239.8 338.7 L 240 338.1 L 239.2 337.1 L 239.1 336.5 L 239.5 336.3 L 240.4 336.5 L 240.6 336 L 240 335.3 L 238.8 334.4 L 238.1 333.7 L 237.7 333.3 L 237.6 332.9 L 237.8 332.9 L 238.2 333 L 238.9 333.3 L 239.7 333.9 L 240.6 334.7 L 241.7 335.7 L 242.6 336.6 L 243.1 337 L 243.3 337.2 L 243.5 337.8 L 243.7 338.5 L 244.1 339.1 L 244.7 339.6 L 245.5 340.3 L 246.4 341 L 247.2 341.4 L 247.9 341.4 L 248.5 341.1 L 248.8 340.9 L 248.8 340.7 L 248.4 340.1 L 247.5 339.4 L 246.8 338.7 L 246.7 338.4 L 247.6 338.6 L 249.2 339 L 250.8 339.5 L 251.8 339.8 L 252.6 339.6 L 253.8 339.2 L 254.9 338.7 L 255.5 338.2 L 255.7 337.8 L 255.8 337.4 L 255.6 336.8 L 255.3 336.2 L 254.6 335.3 L 253.4 334.2 L 252 333.3 L 250.6 332.9 L 249.4 332.8 L 248.5 332.6 L 247.5 332.3 L 246.3 331.7 L 245.3 331.2 L 244.9 331.2 L 243.6 331.7 L 243.1 332.1 L 242 331.5 L 241.4 331.6 L 240.8 331.2 L 240 330.5 L 239.3 330 L 238.7 329.2 L 237.9 328.1 L 236.9 327.2 L 237.1 326.7 L 237.8 326.4 L 239.1 327.2 L 240.8 327.7 L 242.2 327.9 L 243.4 328 L 244.4 328.2 L 245.2 328.5 L 246 328.9 L 247.4 329.5 L 249.4 330.1 L 251.6 330.8 L 253.1 331.5 L 254 331.9 L 254.4 331.8 L 254.5 331.6 L 254.7 331.5 L 254.9 331.6 L 255.4 331.9 L 256.1 332.3 L 257.1 332.7 L 258 333 L 258.8 333.3 L 259.3 333.7 L 259.9 334.3 L 260.2 335.2 L 260.2 336.2 L 259.8 337.5 L 259.2 338.8 L 258.6 339.9 L 257.6 341 L 257.9 341.6 L 258.9 342.4 L 260.1 343.2 L 260.6 344 L 261 344.9 L 262 345.7 L 263 346.6 L 263.7 347.5 L 264.3 348.3 L 265.2 349.1 L 266 349.8 L 266.8 350.5 L 267.6 351.1 L 268.7 351.7 L 269.7 352.2 L 270.3 352.6 L 270.6 352.9 Z M 251.6 343.5 L 251.6 343.5 L 251.6 343.5 L 251.9 342.4 L 251.8 341.8 L 251.3 341 L 250.3 341 L 249.3 342.6 L 248.9 344 L 248.7 344.8 L 249.4 345.1 L 250.7 344.6 L 251.6 343.5 Z" />
<path class="lake" d="M 309.8 409.9 L 308.6 409.8 L 304.7 409.7 L 304.2 410.1 L 305.6 411.2 L 305.6 411.5 L 305.2 411.5 L 304.4 411.2 L 303.4 411.1 L 302.9 410.9 L 302.5 410.6 L 302.3 410 L 302.4 408.3 L 301.8 407.7 L 300.6 407.5 L 297 406.6 L 296.2 406.7 L 289.4 402.5 L 287.9 401.1 L 286.1 400.4 L 283.3 399.7 L 283.3 399.5 L 283.6 399.2 L 283.3 397.1 L 286 398.6 L 287.1 399.1 L 288 399.2 L 287.8 399.8 L 287.8 400.2 L 288.6 400.8 L 290 401.2 L 290.4 402.2 L 291.2 402.3 L 292.1 402.1 L 292.2 401.9 L 291.4 400.9 L 291.6 400.7 L 293.1 401.1 L 294 401.1 L 297.9 402.2 L 299.3 402.4 L 299.3 401.5 L 299.8 401 L 299.7 400.8 L 297.8 400.1 L 297.7 399.8 L 297.1 399.3 L 297 399 L 297.3 398.9 L 298.4 398.8 L 297.9 396.8 L 296.6 396.9 L 295.7 396.2 L 295 395.9 L 294.1 395.7 L 293 395.7 L 291.8 395.8 L 290.7 396.2 L 289.3 397.1 L 288.8 396.9 L 288.7 396.6 L 289.1 395.7 L 289.3 395.4 L 291.2 394.6 L 292.3 394 L 292.7 393.3 L 292.4 392.7 L 291.8 392 L 291.8 391.7 L 295.3 391.7 L 297 391.4 L 297.8 391.4 L 298 391.7 L 298.1 391.9 L 298.5 392.2 L 300 392.6 L 300.8 392.7 L 301.1 392.5 L 301.1 392.1 L 301.1 391.9 L 300.2 390.9 L 300.5 390.8 L 301.2 390.9 L 303.1 391.6 L 305.2 391.4 L 305.1 391.8 L 303.8 392.8 L 302.2 393.3 L 301 393.3 L 296.4 392.6 L 295.7 392.8 L 295.5 393.1 L 296.6 393.7 L 298.8 394.5 L 300.1 395.2 L 305.4 398.8 L 308.6 400.7 L 311.1 402.3 L 315.2 403.2 L 315.4 403.5 L 314.9 404.1 L 315.4 405.1 L 315.5 405.6 L 313.1 406 L 312.4 406.7 L 312.1 407.4 L 312.2 409.5 L 312 409.7 L 311.5 409.5 L 310 408.2 L 309.1 408 L 308.8 408.3 L 310.1 409.5 L 310.2 409.8 L 309.8 409.9 L 309.8 409.9 L 309.8 409.9 Z" />
<path class="lake" d="M 997.7 679.4 L 997.6 679.8 L 995.2 680 L 992.7 681.1 L 990.2 682.2 L 989.9 682.6 L 990 683.2 L 987.6 685.4 L 985.5 686.1 L 984.1 686.4 L 977.5 686.7 L 975.5 686.6 L 973.8 686.3 L 967.8 684.5 L 965.3 684 L 963.5 683.9 L 962.3 683.9 L 961.7 682.8 L 961.5 682 L 961.7 681.6 L 965.6 681.1 L 970.7 679.8 L 974.5 679 L 978.4 678.4 L 981 678 L 984.4 678.3 L 987 677.4 L 993.6 677 L 996.8 676.8 L 995.1 677.9 L 994.6 678.4 L 994.9 679 L 997.7 679.4 L 997.7 679.4 L 997.7 679.4 Z" />
<path class="lake" d="M 1105.6 586.6 L 1104.1 587.9 L 1103.5 588.6 L 1102.9 590.1 L 1101.8 590.6 L 1100.9 590.5 L 1096.6 588.1 L 1092.6 586.3 L 1090.1 585.2 L 1087 584.6 L 1083.8 583.8 L 1080.7 582.3 L 1079.8 581.7 L 1080 581.1 L 1082.5 581.1 L 1084.1 580.9 L 1086.9 580.7 L 1087.9 580.1 L 1088.5 578.9 L 1087.3 577.9 L 1086.1 576.7 L 1086 575.8 L 1086.5 575 L 1086.6 572.5 L 1087.5 570.5 L 1089.5 568.7 L 1092.3 567.4 L 1094.4 567 L 1097.3 566.1 L 1098.8 565.3 L 1098.4 563.9 L 1096.2 562.3 L 1094 560.8 L 1091.9 560.4 L 1090.8 560.4 L 1089.9 559.6 L 1088.7 558.8 L 1087.6 558.7 L 1086.7 558.1 L 1085.6 557.2 L 1085.6 556.9 L 1086.1 556.7 L 1089.9 557.5 L 1092.1 557.1 L 1094.8 555.5 L 1096 555.4 L 1096 555.9 L 1093.5 557 L 1093.1 557.7 L 1092.4 558.3 L 1092 558.8 L 1093.6 559.6 L 1101.7 563.9 L 1102.9 565.3 L 1102.4 565.9 L 1099.3 566.6 L 1094.3 568.1 L 1092.8 568.5 L 1089.9 569.6 L 1088.2 571.3 L 1087.8 572.9 L 1088.3 574.7 L 1090 577.8 L 1092.7 578.3 L 1095.3 578.5 L 1095.1 578.9 L 1091.1 579.3 L 1089.7 580.2 L 1089.4 580.8 L 1090.3 581.2 L 1092.2 582 L 1094.6 582.8 L 1097.6 584 L 1099.6 584.4 L 1102.5 585 L 1104.8 585.9 L 1105.6 586.6 L 1105.6 586.6 L 1105.6 586.6 L 1105.6 586.6 Z" />
<path class="lake" d="M 1388.1 526.4 L 1387.8 528.2 L 1387.5 529.5 L 1387.1 530.9 L 1386.3 533 L 1386.4 533.6 L 1383.3 536.6 L 1382.6 537.9 L 1382.2 539.2 L 1382.7 539.8 L 1382.7 540.2 L 1382.2 540.8 L 1380.9 541.3 L 1377.8 542.1 L 1377.6 541.5 L 1377.8 540.4 L 1378.4 539.3 L 1378.8 537.8 L 1379.6 531.4 L 1379.4 529 L 1380.6 527.2 L 1381.4 526.5 L 1381.2 525.7 L 1381.1 525.2 L 1383 523.7 L 1383.6 523 L 1384.2 522.7 L 1387.5 525.6 L 1388.1 526.4 L 1388.1 526.4 L 1388.1 526.4 L 1388.1 526.4 Z" />
<path class="lake" d="M 1241.1 545.5 L 1239.6 543.5 L 1241.6 542.4 L 1245 541.3 L 1249.3 540 L 1251.1 539.3 L 1252.3 539.6 L 1252.8 540.1 L 1252.5 541.3 L 1254.2 543.3 L 1256.9 544.4 L 1257.4 544.5 L 1257.3 545 L 1258.6 545.3 L 1259.2 545.8 L 1258.1 546.3 L 1256.7 546.3 L 1254.6 547.2 L 1253.2 548.2 L 1251.4 549.7 L 1248.1 550.5 L 1246 550.6 L 1244.2 549.8 L 1242.2 548.2 L 1241.4 546.7 L 1241.1 545.5 L 1241.1 545.5 L 1241.1 545.5 L 1241.1 545.5 Z" />
<path class="lake" d="M 1387.5 779.7 L 1387.4 780.2 L 1387 780.8 L 1387 782.1 L 1386.7 783.5 L 1385.4 784.1 L 1383.5 783.7 L 1381.9 782.6 L 1378.4 782.6 L 1373.7 782 L 1371.5 780.9 L 1369.3 778.9 L 1368.4 777.9 L 1368.9 777.3 L 1370.3 777.3 L 1371.3 777.2 L 1371.6 776.6 L 1371.1 775.2 L 1370.8 773.8 L 1371.6 773.2 L 1373.7 772.6 L 1376.3 772.9 L 1379.2 773.8 L 1382.2 776 L 1384.6 778.1 L 1387.5 779.7 L 1387.5 779.7 L 1387.5 779.7 L 1387.5 779.7 Z" />
<path class="lake" d="M 389.4 833.2 L 388.2 832.1 L 386.7 830 L 386.1 826.5 L 386 824 L 386.3 823 L 386.8 822.8 L 389 826 L 391.1 827.7 L 392.9 829.3 L 393.4 830.4 L 393.1 831.8 L 393.1 833.2 L 392.1 833.6 L 390.6 833.4 L 389.4 833.2 L 389.4 833.2 L 389.4 833.2 L 389.4 833.2 Z" />
<path class="lake" d="M 115.7 408.6 L 116.9 408.1 L 117.3 408.8 L 119.4 408.9 L 122 408.8 L 122 408.8 L 122 408.8 L 122 408.8 L 122 408.8 L 123.9 409.5 L 126.1 411 L 127 412.2 L 127.3 413.3 L 126.1 414.2 L 124.2 414.1 L 122.8 413.6 L 122.2 413.2 L 122.3 412.9 L 121 412 L 118.8 411.5 L 117.9 411.5 L 115.7 408.6 Z" />
<path class="lake" d="M 431.1 763.5 L 431.1 763.5 L 431.1 763.5 L 431.1 763.5 L 432.5 764.2 L 432.5 764.9 L 432.6 766.4 L 434.4 769 L 434 770.5 L 431.7 771.1 L 431 771.4 L 430.2 772.7 L 428.8 774.1 L 427.3 773.8 L 425.9 772.5 L 424.6 768.8 L 424 765.7 L 423.9 764.5 L 423.6 763.1 L 421.1 761 L 420.9 759.2 L 422.2 758.3 L 422.8 757.2 L 422.5 756.5 L 421.1 756.6 L 419.8 756.5 L 420 755.7 L 421.4 754.4 L 425.7 754.4 L 427.5 756 L 428 757.8 L 427.3 760.2 L 427.1 762.4 L 427.9 763.3 L 429 763.3 L 431.1 763.5 Z" />
<path class="lake" d="M 642.9 693.5 L 642.1 694.8 L 639.8 695.9 L 637 696.6 L 635.3 696.9 L 633.9 697 L 632.2 695.6 L 630.9 694.2 L 629.9 694.3 L 629 694.4 L 628.8 693.5 L 629.5 690.1 L 631.1 686.4 L 632.6 684.3 L 634.7 683.8 L 637.4 685.1 L 638.8 687 L 638.5 687.8 L 638.9 688.4 L 639.7 689.4 L 640 691.1 L 642.6 692.4 L 642.9 693.5 L 642.9 693.5 L 642.9 693.5 Z" />
<path class="lake" d="M 970.7 466.8 L 972.9 465.9 L 976.3 465.3 L 977.5 465.2 L 978 465.8 L 979.4 466.4 L 980.2 465.8 L 980.5 465.2 L 980.8 464.4 L 982.6 463.5 L 985 463 L 986.2 462.9 L 986.7 462.9 L 987.2 463.1 L 987.7 463.4 L 990.4 463.7 L 993.1 464.3 L 993.3 465.1 L 991.4 465.8 L 989.1 466.3 L 988.6 466.3 L 987.2 466.8 L 986.3 467.3 L 986.2 467.9 L 987.2 468.4 L 987.8 469.2 L 988 469.8 L 987.2 470.2 L 985.5 470.6 L 984.9 470.4 L 985.1 470 L 984.2 469.7 L 982.7 469.4 L 981.3 469.2 L 979.4 468.7 L 976 468.5 L 975.4 468.6 L 974.1 468.8 L 972.1 469.1 L 970.5 468.8 L 970.8 467.6 L 970.7 466.8 L 970.7 466.8 L 970.7 466.8 Z" />
<path class="lake" d="M 1064.2 624.2 L 1057.6 622.4 L 1054.2 620.7 L 1052 619.2 L 1051.6 617.5 L 1051.7 616.1 L 1051.5 614.8 L 1052.3 613.3 L 1053.8 612.3 L 1055.9 612.2 L 1057.8 612.7 L 1059.2 613.3 L 1060.4 614 L 1061.5 615.3 L 1062.4 616.9 L 1062.6 618.8 L 1063 621.1 L 1064.2 624.2 L 1064.2 624.2 L 1064.2 624.2 Z" />
<path class="lake" d="M 116.9 408.1 L 115.7 408.6 L 115.2 408 L 114.4 406.5 L 112.6 404.8 L 111.1 403.9 L 109.7 400.5 L 106.4 397.8 L 106.6 396.4 L 108.9 395.2 L 112.2 394.5 L 116.1 394.3 L 118.9 394.8 L 120 396 L 121.1 401.9 L 121.3 403.4 L 120.9 404 L 120 404.3 L 117.1 406.5 L 116.8 407.3 L 116.9 408.1 Z" />
<path class="lake" d="M 214.1 567.7 L 214 568.2 L 212.5 568 L 212.3 567.7 L 211.9 567 L 210.9 566.6 L 208.8 566.5 L 207.2 566 L 206.3 565.6 L 204.6 564.6 L 200.9 562.8 L 198.9 562 L 196.8 561 L 192.1 559.1 L 191.9 558.4 L 193.1 558.2 L 195.8 558.7 L 197 559 L 199.9 559.9 L 201.8 560.7 L 204.8 561.4 L 205.7 561.1 L 205.3 560 L 205.4 558.7 L 206.2 558.3 L 206.9 559.6 L 208.8 561 L 211.5 563.2 L 213 564.6 L 214.6 566 L 214.6 566.4 L 214.1 567.7 L 214.1 567.7 L 214.1 567.7 Z" />
<path class="lake" d="M 219.1 744.2 L 220.3 744.9 L 221.6 745.2 L 222.9 746.7 L 221.9 749 L 220.4 750 L 218.5 749.3 L 216.8 748.4 L 215.3 747.5 L 213.9 745.6 L 215 743.8 L 216.3 742.2 L 216.6 740.7 L 216.5 739.5 L 217.3 739.6 L 218.6 740.7 L 219.1 741.8 L 218.8 742.7 L 219.1 744.2 L 219.1 744.2 L 219.1 744.2 Z" />
<path class="lake" d="M 116.3 360.8 L 114.5 360.2 L 113 359.7 L 112.9 359.3 L 113.4 359.1 L 114.8 359.8 L 117.1 360 L 119 359.5 L 119.2 358.7 L 119.6 358.4 L 120.5 358.5 L 121.1 358.9 L 121.8 360 L 119.9 360.6 L 116.3 360.8 L 116.3 360.8 L 116.3 360.8 Z" />
<path class="lake" d="M 149.9 327.2 L 150.8 327.9 L 151.5 327.9 L 151.9 326.9 L 151.1 325.4 L 150.3 324.5 L 150.8 324.1 L 152.1 325.3 L 154.7 327.1 L 156 328.5 L 155.8 329.6 L 154.6 330.2 L 153.3 330.5 L 152.6 329.5 L 151.1 328.9 L 149.7 327.9 L 149.1 327 L 149.4 326.8 L 149.9 327.2 L 149.9 327.2 L 149.9 327.2 Z" />
<path class="lake" d="M 145.7 330.1 L 145.6 328.9 L 146.8 328.4 L 147.7 329.4 L 148.5 329.8 L 149.8 329.6 L 150.8 330.1 L 149.6 331.2 L 147.6 330.9 L 145.5 331.1 L 145 330.5 L 145.7 330.1 L 145.7 330.1 L 145.7 330.1 Z" />
<path class="lake" d="M 159 319.9 L 159.2 320.3 L 158.5 320.4 L 158.4 321 L 159 322.6 L 161.5 325.4 L 164.8 327.9 L 164.6 328.3 L 163.1 328.4 L 161.6 329.8 L 160.7 329.7 L 161.8 328.6 L 162.9 327.3 L 161.5 326.2 L 160.2 326 L 159.7 325.7 L 156.6 323.5 L 155.9 322.5 L 152.1 322.2 L 150.9 321.9 L 148.6 321.8 L 146.9 320.5 L 145.9 319.4 L 143.9 317.9 L 142.5 316.7 L 143 316.2 L 143.1 315.2 L 143.3 315 L 145 316.1 L 147.1 317 L 148.2 317.3 L 150.9 318.4 L 154.3 319.5 L 155.4 319.9 L 156.2 319.9 L 157.6 319.5 L 159 319.9 L 159 319.9 L 159 319.9 Z" />
<path class="lake" d="M 1155.3 692.2 L 1153.3 691.4 L 1150.5 691.3 L 1146.9 691.8 L 1144.5 692.6 L 1144 692.2 L 1144.2 691.3 L 1145.2 690 L 1145.8 688.3 L 1146.8 687.7 L 1148.9 688.1 L 1154.2 689.3 L 1155.3 691.2 L 1155.3 692.2 L 1155.3 692.2 L 1155.3 692.2 Z" />
<path class="lake" d="M 174.2 342.8 L 174.2 342.2 L 173.9 341.5 L 173.9 340.9 L 175.2 340.9 L 176 341.2 L 177.4 342.9 L 176.8 343.6 L 175.4 343.7 L 174.5 343.4 L 174.2 342.8 L 174.2 342.8 L 174.2 342.8 Z" />
<path class="lake" d="M 185.7 407.8 L 184.2 408.2 L 183.3 409.3 L 179.2 408.8 L 174.3 408.1 L 174 407.6 L 175.7 406.9 L 176.8 406.2 L 177.9 406 L 179.4 405.6 L 180.8 404.4 L 181.6 403.5 L 183 404.3 L 183.9 404.6 L 185.3 405 L 185.5 405.3 L 187.5 405.1 L 187.8 405.4 L 187.7 405.7 L 187.7 406.4 L 188.4 408.3 L 187.4 408.2 L 185.7 407.8 L 185.7 407.8 L 185.7 407.8 Z" />
<path class="country" d="M 1155 564.3 L 1141.8 575.9 L 1127.4 577.5 L 1126.5 594.9 L 1116.9 602.8 L 1082.4 597 L 1069.9 628.1 L 1061 632 L 1026.6 638.9 L 1042.3 669.1 L 1030.3 673.6 L 1031.7 683.5 L 1021 681 L 1012.3 674.7 L 986.6 672.9 L 957.8 672.4 L 951.5 674.3 L 926.7 667 L 916.9 670.6 L 914.2 680.9 L 885.6 674.9 L 874.2 677.4 L 870.3 685 L 860.3 688.2 L 837.4 700.3 L 829.9 712.7 L 823.4 712.8 L 818.6 704.6 L 796.5 704 L 793 689.8 L 784.6 689.7 L 785.8 672.3 L 765.1 659.6 L 735.3 660.9 L 714.9 663.5 L 698.3 647.8 L 684.1 641.2 L 657.2 628.8 L 654 627.3 L 609.3 637.6 L 610 701.6 L 601.1 702.4 L 588.9 688.8 L 577.2 684 L 557.5 687.6 L 549.8 693.3 L 548.8 689.1 L 553.1 681.9 L 549.8 675.8 L 529.7 669.9 L 521.8 654.3 L 512.2 649.9 L 511.7 644.3 L 528.5 645.9 L 529.2 633.2 L 544 630.4 L 559.1 633 L 562.3 616.1 L 559.2 605.3 L 541.8 606.2 L 527 601.9 L 506.9 609.6 L 490.7 613.2 L 481.9 610.4 L 483.7 601.5 L 472.6 589.9 L 459.7 590.3 L 445 578.6 L 455 565.4 L 450 561.9 L 463.8 542.8 L 481.7 552.9 L 483.8 540.2 L 519.7 521.3 L 546.8 520.8 L 585.1 532.9 L 605.6 539.9 L 624 532.6 L 651.6 532.2 L 673.8 541.2 L 678.8 536.1 L 703.2 536.8 L 707.5 528.6 L 679.4 516.7 L 696.1 508.2 L 692.8 503.5 L 709.5 498.9 L 697 487.1 L 704.9 481.1 L 769.9 475.1 L 778.4 470.8 L 821.8 464.4 L 837.4 457.2 L 868.6 460.9 L 874.1 478.9 L 892.2 474.7 L 914.5 480.6 L 913.1 490.1 L 929.7 489.1 L 973.2 472.7 L 966.9 478.2 L 989 491.6 L 1027.8 535.7 L 1037.1 526.6 L 1061 536.6 L 1086 532.1 L 1095.5 535.2 L 1103.9 545.3 L 1116 548.7 L 1123.4 556 L 1145.8 553.7 L 1155 564.3 Z" />

<path class="river" d="M 540 451.7 L 539 452 L 538 451.8 L 536.7 451.8 L 535.2 453.3 L 533.8 453.5 L 532.6 453.8 L 532.5 454.7 L 532.1 455.3 L 530.1 455.8 L 527.4 455.2 L 526 455.5 L 525.1 455.8 L 523.4 455.8 L 520.8 456 L 518.3 456.6 L 513.5 456.9 L 507.7 457.3 L 503.3 458.1 L 498.2 459.4 L 495.6 460.9 L 493.3 461.9" />
<path class="river" d="M 570.5 408.2 L 570.2 407 L 569.3 405.6 L 568 404.9 L 566.5 404.5 L 565.9 404.2 L 566.1 403.4 L 566.6 402.9 L 567 401.6 L 565.1 400.1 L 563.6 398.2 L 562.7 397.5 L 561.9 395.6 L 562.6 394.2 L 562.2 392.7 L 561 392.2 L 559.5 391.3 L 558.5 390.8 L 557.8 389.5 L 556.9 388.5 L 556.1 387.4 L 555.2 385.9 L 553 384.3 L 551.7 383.9 L 551.6 382.6 L 552.2 382.1 L 553 381.7 L 554.4 381.9 L 555 381.3 L 556.1 380.6 L 557 378.9 L 558 377.8 L 559 377.5 L 560.6 377.2 L 562.3 376.8 L 564 376.2 L 565.4 376.1 L 566.3 375.8 L 567 374.9 L 567.6 374.7 L 568.8 374.7 L 571.1 373.9 L 572.8 373.4 L 574 372.6 L 574.9 372 L 575.6 371.5 L 576.5 371.2 L 577.6 371.2 L 578.5 370.9 L 580.4 370.8 L 581.2 371.2 L 582.6 372.3 L 584.8 372.9 L 590.5 372.8 L 593.8 373.1 L 595.7 373.5 L 597.5 373.2 L 599.4 372.7 L 603.1 371.7 L 604.7 369.8 L 605.6 368.6 L 608.3 368.4 L 610.2 369.1 L 612.4 369.7 L 612.9 370.3 L 612.9 370.4 L 613.4 371.3 L 613.2 372.1 L 613.1 373 L 613.2 373.5 L 613.4 374.4 L 614.6 374.3 L 615.3 374.6 L 615.4 375.2 L 615.7 376.2 L 615.6 377.1 L 615.9 378 L 616.5 378.3 L 616.8 378.4 L 617.2 378.5 L 618.1 379.1 L 618.7 379.7 L 620.1 380.3 L 620.8 381.1 L 621.3 382.4 L 622 383.6 L 622.4 384.7 L 622.4 386.6 L 622.3 387.7 L 621.2 388.4 L 620.5 388.7 L 617.9 389.1 L 616.5 389.6 L 614.7 390.1 L 614.2 391 L 613.6 392.7 L 614.4 394.5 L 614.9 396.4 L 615.2 397.7 L 613 399.7 L 612.1 400.4 L 612.2 401.9 L 613.6 402.2 L 614.9 402.7 L 617.3 404.1 L 616.4 407.3 L 616.3 409.3 L 616.3 409.4 L 616.3 409.9 L 616.2 410.1 L 616.1 410.4 L 615.9 410.8 L 614 411.3 L 611.7 411.3 L 608.6 412.7 L 607.6 412.7 L 607 411.4 L 605.8 410.5 L 604.6 410.6 L 604.1 411.5 L 601.4 413.6 L 598.4 413.9 L 597.4 414 L 596.8 414.7 L 597.8 415.3 L 599.2 415.9 L 600.1 417.3 L 601 418.9 L 602.3 419.1 L 602.6 419.9 L 601.1 423.4 L 599.3 423.7 L 597.5 423.8 L 595.5 423.2 L 594.6 423.2 L 593.9 423.9 L 593.4 425 L 592.8 427.2 L 591.8 427.6 L 590.6 427.7 L 589.4 428.2 L 587.4 428.4 L 585.2 428.2 L 583.7 428.4 L 582.4 429.2 L 581.2 429.4 L 579.6 429.5 L 578.7 430.2 L 578.4 431.4 L 578.2 432.3 L 577.3 433.1 L 576.6 433.4 L 575.7 433.7 L 574.9 433.7 L 574.4 433 L 574.2 432.4 L 573.8 432.1 L 572.9 431.9 L 572.3 432 L 571.4 432.5 L 571.3 432.7 L 571.5 433 L 571.5 433.3 L 571.4 434.1 L 571.6 434.8 L 571.9 435 L 572 435.2 L 572.2 435.9 L 572.3 437.3 L 572.6 438 L 573.1 438.6 L 573.3 439.2 L 573.5 439.6 L 574.1 439.7 L 575.4 440.3 L 576.4 440.6 L 577.6 441.7 L 578.5 442.3 L 579 443.2 L 577.8 443.8 L 577.5 444 L 577.2 444.4 L 576.6 445.5 L 575.9 446 L 574.9 446.1 L 573.9 446 L 572.9 445.6 L 571.9 445.6 L 571.3 445.9 L 570 446.6 L 569.6 446.8 L 568.2 447 L 567.9 447.2 L 567.8 447.4 L 567.8 447.6 L 567.8 447.9 L 567.8 448 L 567.7 448.1 L 567.6 448.2 L 567.1 448.4 L 563.4 449.1 L 559.5 448.8 L 558.3 448.2 L 557 447.8 L 555.7 447.7 L 554.3 447.3 L 553.4 447.1 L 551.6 447.8 L 550.3 448.9 L 549.2 449.1 L 547.6 448.8 L 546.8 448.7 L 546.4 449.3 L 546.6 449.9 L 547 450.8 L 547.2 451.2 L 546.9 451.6 L 545.9 451.8 L 542.7 451.8 L 541.5 451.3 L 540 451.7" />
<path class="river" d="M 307.7 796.1 L 304.3 795.4 L 302.3 794.6 L 300.4 793.4 L 299.4 792.5 L 299.1 791.8 L 299.6 790.9 L 300.7 789.7 L 301.3 788.8 L 301.2 787.8" />
<path class="river" d="M 1487.3 509.3 L 1486.2 508.8 L 1484.7 509 L 1482.5 509.7 L 1479.8 511.4 L 1476.8 513.9 L 1473.9 516 L 1470.9 517.6 L 1467.5 518.6 L 1463.7 519.2 L 1461.1 519.1 L 1458.9 518.2 M 1433 496.7 L 1433.6 493.7 L 1433.6 491.2 L 1433.2 488.3 L 1431.4 484.8 L 1428.1 480.7 L 1427.5 477.4 L 1429.8 475.1 L 1430.9 472.9 L 1430.7 470.9 L 1429.9 469.2 L 1428.4 467.8 L 1428.8 465.8 L 1431.2 463 L 1432.3 460.7 L 1432 459 L 1431.4 457.3 L 1430.3 455.7 L 1429.8 453.9 L 1429.8 451.9 L 1429.2 450.4 L 1427.8 449.5 L 1427 448.3 L 1426.7 446.9 L 1425.9 445.5 L 1424.7 444.3 L 1422.2 443.5 L 1418.6 443.1 L 1414.5 443.6 L 1409.7 444.9 L 1406.8 445.3 L 1405.7 444.7 L 1405.3 443.6 L 1405.8 441.5 M 1420.9 412.8 L 1420.9 414.3 L 1420.5 415.4 L 1419.7 416.7 L 1418.4 418.1 L 1416.7 419.6 L 1415.6 421.4 L 1415.2 423.6 L 1415.1 425.8 L 1415.4 429.1" />
<path class="river" d="M 1161.9 527 L 1160.7 522.3 L 1159.1 520.6 L 1155.6 520.1" />
<path class="river" d="M 167.4 618.4 L 164.5 616.1 L 163.6 615.1 L 163.8 614.6" />
<path class="river" d="M 220.6 605.7 L 221.7 605.1 L 222.7 603.5 L 224 601.9 L 226.1 600.2 L 228.1 597.4 L 228.5 595.6 L 231.2 594.3 L 236.3 593.4 L 240.9 593.2 L 245 593.7 L 247.4 593.6 L 248.3 592.8 L 248.5 591.4 L 247.8 588.2 M 214.6 566.4 L 209.2 564.1 L 204.3 562.8 L 191.9 558.4 M 184.1 550.7 L 184.8 551.9 L 184.9 552.9 L 184.6 555 M 167.9 529.6 L 167.4 535 L 167.4 537.7 L 168 540.3" />
<path class="river" d="M 369.4 592.3 L 372.7 591.3 L 375.9 590.1 L 379 589 L 381.9 588.2 L 382.8 587.4 L 383.5 586.1 L 385.6 582.2 L 387.1 580.3 L 388.9 578.7 L 392.8 576 L 394 574.7 L 393.9 574.1 L 393.2 573.3 L 392.9 572.6 L 393.1 572.1 L 393.9 571.2 L 395.3 569.9 L 396.8 569.3 L 398.2 569.3 L 399.5 568.9 L 400.4 568.6 L 400.8 567.9 L 401.1 566.8 L 401.9 565.7 L 401.4 564.8 L 400.5 564.5 L 398.4 564.5 L 397.8 564.5 L 397.1 563.7 L 397 562.4 L 396.3 561.1 L 395.3 559.6 L 394.3 559.3" />
<path class="river" d="M 1085.6 556.9 L 1089.8 559 L 1092 559.9 L 1093.6 560.2 L 1096 561.5 L 1099 563.8 L 1100.2 565.2 L 1099.7 565.8 L 1096.9 566.8 L 1091.7 568.3 L 1088.6 570 L 1087.4 571.8 L 1087.1 573.8 L 1087.6 576 L 1088.4 577.5 L 1089.5 578.4 L 1089.5 579.2 L 1088.5 579.9 L 1088.1 580.7 L 1088.3 581.6 L 1090.5 583 L 1094.7 585.1 L 1097.9 587.1 L 1100.1 589 L 1101.6 590 L 1102.9 590.1" />
<path class="river" d="M 311.3 744.9 L 312.1 743.8 L 310.8 740.3" />
<path class="river" d="M 1327.4 814 L 1326.7 813 L 1325.7 812.6 L 1323.6 812.3 M 1335.6 809.6 L 1334.8 811.8 L 1333.8 812.7 L 1331.8 813.3" />
<path class="river" d="M 901.9 817.7 L 902.8 822 L 903 824 L 902.9 825 L 902.2 825.9 L 900.6 827" />
<path class="river" d="M 910.9 693.5 L 904.5 693.2 L 901.7 693.7 L 899.7 695.4" />
<path class="river" d="M 177.2 377.9 L 179.6 377.4 L 181.2 376.1 L 183.7 373" />
<path class="river" d="M 1079.7 466.6 L 1067.4 472.7 L 1062 475 L 1059.5 475.5 L 1057.4 476.6 L 1055.7 478.2 L 1053.6 479.4 L 1051.4 480.3 L 1050.3 481.4 L 1050.4 483.2" />
<path class="river" d="M 1364.5 527.3 L 1362.5 526.2" />
<path class="river" d="M 316.3 379.4 L 324 383.7 L 327.3 385.2 L 329.2 385.3" />
<path class="river" d="M 183.7 373 L 186.8 370 L 190.3 368 L 195.3 366.2 L 200 365.7 L 204.4 366.7 L 206.2 367.6 L 208.1 368.7" />
<path class="river" d="M 859.8 716.8 L 859.1 717.9 L 856.8 718.6 L 850.6 719.6 M 826.8 705.1 L 821.9 704.7 L 819.7 704.1 L 818.9 703.3 L 818.7 702.5 M 710.5 619.8 L 707.1 618.2" />
<path class="river" d="M 659.7 512.5 L 658.8 514.7 L 658.6 516.4 L 658.7 518.2 L 658.1 519.7 L 656.2 521.3" />
<path class="river" d="M 1227.1 485.8 L 1226.1 484.2 L 1226.3 482.9 L 1227.4 481.5 L 1227.9 480.4 L 1227.8 479.9 L 1226.6 478.3 L 1224.4 475.8 L 1223.2 474 L 1222.9 472.9 L 1221.3 471.7 L 1218.5 470.3 L 1217.1 468.7 L 1217.3 466.8 L 1218 465.2 L 1219.3 463.8 L 1224.3 462.4 L 1233 460.8 L 1238.7 458.8 L 1242.7 455.1" />
<path class="river" d="M 431.1 546.8 L 434 544.5 L 434.1 542.8 L 432.3 540.8 L 431.3 539.5 L 431.3 538.6 L 432.5 537.8 L 434.9 537.1 L 436.6 536.4 L 437.4 535.6 L 437.7 534.6 L 437.3 533.3 L 436.3 532.2 L 434.8 531.2 L 434.1 530.1 L 434.1 528.8 L 434.6 527.7 L 435.8 526.8 L 436.4 526 L 436.5 525.3 L 437.5 524.5 L 439.2 523.8 L 440.7 522.7 L 442 521 L 443.2 520.4 L 445.2 519.9 L 446.7 520.3 L 448.7 520.4 L 450.4 520.3 M 490 455.5 L 493.9 459.8 L 493.3 461.9 L 489.4 463.3 L 487.3 465.4 L 486.9 468.5 L 485.2 470.5 L 482.2 471.6 L 480.4 472.7 L 479.8 473.9 L 479.5 475.3 L 479.6 476.8 L 481.8 478.9 L 486.1 481.6 L 488.4 484.2 L 488.6 486.8 L 489.1 488.5 L 489.8 489.5 L 490.8 490.2 L 492.6 490.6 L 498.8 490.5 L 504.7 490.7 M 392.3 434.8 L 390.8 433.8 L 389.8 432.4 L 388.8 430.2 L 387.9 428.7 L 386.9 427.9 L 386.4 427.1 L 386.2 426.4 L 386.6 425.5 L 387.9 423.4 L 382.6 422 L 380 421.7 L 377.5 421.9 M 283.3 433.4 L 278.6 432.9 L 276.1 433.5 L 274.1 435 L 272.3 435.4 L 269.8 434.3 M 293.9 424.1 L 297 423.7 L 299.4 422.5 L 303.2 419.2 M 356 420.6 L 353.7 420.2 L 351.8 418.9 L 349.7 416.8 L 348.2 415.5 L 347.3 415.3 L 345 415.4 L 341.3 416 L 337.8 417.1 L 332.9 419.3 M 305.6 411.5 L 303.7 410.4 L 303.5 409.2 L 305.1 406.8 L 310.2 409.8" />
<path class="river" d="M 167.4 367.1 L 164.3 365.7 L 161.1 365.3 L 156.9 365.5 L 154.1 365.3 L 152.1 364.6 M 168.4 366.1 L 170.5 365.8 L 172.9 366 L 176.1 366.8 L 179.2 368.6 L 183.6 373" />
<path class="river" d="M 307.7 796.1 L 313.9 795.3 L 319.3 795.8 L 326 797.5 L 329.8 799.3 L 330.8 801.1 L 332.8 802.9 L 335.8 804.8 L 337.3 806 L 337.2 806.3 L 337.8 806.7 L 339.3 807.2 L 340.1 808.2 L 340.3 809.7 L 341 810.8 L 342 811.5 L 342.9 812.5 L 343.5 813.9 L 345.1 815.4 L 347.6 817 L 348.8 818.4 L 348.9 819.7 L 349.2 820.5 L 350 821 M 298.5 779.3 L 299 780.9 L 299.8 781.7 L 301 782.2 L 302 783 L 302.7 784.1 L 302.6 785.4 L 301.2 787.8" />
<path class="river" d="M 822.6 776 L 820 777.3 L 818.1 776.9 L 816 775.3 L 814.8 774 L 814.6 772.9 L 813.7 772.5 L 812.1 772.5 L 811 772.3 L 810.5 771.8 L 809.2 771.9 L 807.1 772.8 L 804.9 772.3 L 802.7 770.6 L 798.5 770 L 792.3 770.4 L 786 769.2 L 779.6 766.3 L 775.1 764.6 L 772.6 764 L 770.6 762.6 L 769.1 760.1 L 765.2 757.5 L 759 754.7 L 754.1 751.5 L 750.7 747.9 L 748.6 745.2 L 747.8 743.3 L 744.6 740.8 L 739.2 737.6 L 735.5 735.9 L 733.5 735.7 L 732.3 734.7 L 732 733 L 730.3 731.1 L 727 729.1 L 724.6 727 L 722.4 723.7 L 721.2 718.5 L 719.9 716.2 L 718 714.9 L 716.3 712.4 L 715 708.8 L 713.9 706.4 L 713 705.3 L 711.2 704.1 L 708.5 702.8 L 706 702.2 L 703.5 702.2 L 701.9 701.7 L 701.1 700.7 L 697.9 698.5 L 692.3 695.1 L 689.1 692.6 L 688.3 691 L 687.3 690 L 685.9 689.6 L 685 688.9 L 684.6 687.9 L 683.5 686.7 L 681.7 685.6 L 679.1 684.5 L 675.5 683.7 L 672.8 682.4 L 670.9 680.6 L 669.3 679.6 L 668.2 679.3 L 667.8 678.6 L 668.2 677.5 L 667.8 676.7 L 666.7 676.2 L 666.3 675.6 L 666.5 674.8 L 666.1 673.9 L 665.3 672.8 L 665 671.8 L 665.3 670.8 L 665.1 669.6 L 664.4 668.2 L 664.2 667.2 L 664.3 667.1 M 664.3 667.2 L 664.3 667.1 M 664.3 667.1 L 664.6 666.6 L 664.3 665.7 L 663.5 664.5 L 663.2 663.6 L 663.5 663 L 664.4 662.5 L 666.1 662.1 L 667 661.2 L 667.1 659.8 L 666.3 658.2 L 664.5 656.6 L 664 655.4 L 664.9 654.6 L 667 653.7 L 672 652.3 M 664.3 667.1 L 662.7 664.9 L 662.5 663.1 L 663.2 661.1 L 662.9 659.5 L 661.8 658.5 L 659.7 657.7 L 656.6 657.1 L 655.1 655.8 L 655.2 653.7 L 654.1 651.4 L 650.7 647.5" />
<path class="river" d="M 1459 518.2 L 1451.5 513.1 L 1448.9 511 L 1448.8 510.1 L 1447.5 509 L 1444.9 507.8 L 1443.4 506.6 L 1443 505.4 L 1441.8 504.3 L 1439.9 503.2 L 1438.9 502.1 L 1438.7 500.8 L 1437.3 499.8 L 1434.7 498.9 L 1433.3 498.1 L 1433 496.7 M 1405.8 441.5 L 1406 436.8 L 1405.2 434.6 L 1403.4 433.3 L 1401.6 432.6 L 1399.6 432.5 L 1398.6 431.8 L 1398.5 430.6 L 1399.8 429.7 L 1402.4 429.1 L 1405.3 429.4 L 1408.5 430.4 L 1411.1 430.9 L 1413.3 431 L 1414.7 430.6 L 1415.4 429.1 M 1420.9 412.8 L 1423 409.7 L 1423.7 407.5 L 1423.8 405.3 L 1422.7 402.7 L 1420.6 399.7 L 1417.5 397.4 L 1417.2 397.3 M 1417.7 397.4 L 1417.2 397.3 M 1417.2 397.3 L 1410.9 395.6 M 1417.2 397.3 L 1413.4 395.8 L 1410.9 395.6 M 1410.9 395.6 L 1406.4 395.2 L 1396.6 395.5 L 1391.5 396.2 L 1391 397.4 L 1388.6 398.6 L 1384.3 400 L 1382 400.9 L 1381.8 401.4 L 1382 402.2 L 1382.5 403.1 L 1382.1 404.2 L 1380.7 405.3 L 1378.8 405.8 L 1376.4 405.5 L 1374.2 404.6 L 1372.4 403.3 L 1370.2 402.5 L 1367.6 402.2 L 1365.3 401.5 L 1363.4 400.3 L 1361.3 399.6 L 1359.1 399.3 L 1356.4 399.6 L 1353.4 400.5 L 1351.7 401.4 L 1351.4 402.3 L 1350.6 403 L 1349.5 403.5 L 1345.3 404.1 L 1338 404.6 L 1332.3 404.7 L 1328.3 404.3 L 1325.3 404.3 L 1323.5 404.8 L 1322.1 405 L 1321 404.9 L 1319.8 404.3 L 1318.3 403.3 L 1313.9 402.6 L 1306.7 402.4 L 1301.1 402.7 L 1297.2 403.6 L 1294.9 404.4 L 1294.3 405.2 L 1291.7 406.5 L 1287.2 408.3 L 1280.7 409.4 L 1272.2 409.7 L 1265.6 409.6 L 1261 408.9 L 1257.8 409 L 1255.8 409.9 L 1254.3 410.3 L 1252.9 410.1 M 1410.9 395.6 L 1408.3 394.9" />
<path class="river" d="M 1155.6 520.1 L 1151.8 518.6 L 1150.6 516.4 L 1150.7 513 L 1150 510.9 L 1148.4 510 L 1147.5 509.3 L 1147.2 508.5 L 1146.5 508.1 L 1145.3 508 L 1143.3 507.2 L 1140.7 505.6 L 1138.9 505 L 1137.8 505.2 L 1137.2 505.8 L 1136.9 506.7 L 1135.7 506.6 L 1133.5 505.5 L 1131.7 505.3 L 1130.4 505.9 L 1128.9 506 L 1127.2 505.6 L 1124.5 505.5 L 1120.8 505.9 L 1118 506.7 L 1115 508.4" />
<path class="river" d="M 111.6 652.5 L 120.4 648.6 L 123.2 646.4 L 123.2 644.6 L 123 643.2 L 122.2 641.9" />
<path class="river" d="M 154 633 L 153.1 632 L 151.6 631.1 L 148.8 630.2 L 145.6 630.5 L 142.2 631.9 L 139.9 632.5 L 138.7 632.1 L 138 632.1 L 137.7 632.5 L 137.7 632.9 L 138.1 633.1 L 138.1 633.3 L 137.6 633.4 L 137.9 633.7 L 139.7 634.4" />
<path class="river" d="M 139.7 634.4 L 143.1 635.8 L 144.3 636 L 144.8 636 L 145.3 636.1 L 146.5 637.4 L 147.8 638 L 149 638 L 150.3 638.4 L 152.3 639" />
<path class="river" d="M 139.7 634.4 L 153.5 634.9" />
<path class="river" d="M 890.7 877.4 L 890.7 878.5 L 890.1 879.7 L 888.2 882.2 L 884.3 887.3 L 882.7 887.8 L 881 889.1 L 878.5 891.3 L 876.4 894.4 L 874.8 898.2 L 874 900.9 L 873.9 902.5 L 873.2 904 L 871.8 905.4 L 871.3 906.5 L 871.6 907.5 L 871.6 908.5 L 871.2 909.6 L 870.7 910.5 L 870.2 911.2 L 869.4 911.5 L 868.5 911.4 L 867.4 912.2 L 866.3 913.8 L 865.5 914.6 L 864.2 914.9 M 982.7 858.1 L 977.5 855.3 L 974.1 852.9 L 971.1 851.6 L 967.4 850.4 L 965.4 848.6 L 965.1 846 L 963.6 843.7 L 960.9 841.6 L 958.1 840.2 L 955.2 839.5 L 953.6 839.4 L 953.2 839.8 L 953.4 840.5 L 954.1 841.6 L 954.3 842.3 L 954.1 842.9 L 952.2 843.2 L 948.5 843.3 L 945.8 842.8 L 943.8 841.7 L 942.5 841.6 L 941.8 842.5 L 940.4 842.9 L 938.3 842.6 L 937.1 843.7 L 936.7 846.2 L 933.2 849.5 L 926.3 853.8 L 920.3 856.8 L 915.2 858.4 L 911.5 860.7 L 908.1 864.9 L 905.2 867.4 L 903.1 868.4 L 900.8 868.8 L 898.4 869.8 L 895.9 871.3 L 894.1 872.6 L 893.2 873.7 L 892.6 874.9 L 892.5 876.1 L 892 876.9 L 890.7 877.4" />
<path class="river" d="M 1194.9 541.9 L 1190.5 540.3 L 1186.8 539.9 L 1182.5 540.1 L 1179.3 539.3 L 1177.2 537.4 L 1175 536.3 L 1172.8 535.8 L 1169.9 534.6 L 1166.3 532.5 L 1163.7 530.7 L 1162.2 529.2 L 1161.5 528.1 L 1161.9 527" />
<path class="river" d="M -63 584.4 L -58.3 587.4 L -55.6 588.7 L -53.4 589.4 L -46.7 589.5 L -36.2 589.1 L -35.4 588.7 L -31.9 588.6 L -30.6 588.8 L -30.1 589.2 L -29.7 590.1 L -29.7 590.5 L -30.6 593.2 L -30.8 594.4 L -31.4 595.6 L -32.6 596.4 L -33.5 598.3 L -33.9 600.2 L -33.1 601.3 L -33 602.2 L -32.9 602.8 L -33 604.8 L -32.8 606.2 L -32.2 607.3 L -32.5 608.2 L -33.7 609.1 L -34.1 610 L -33.5 611 L -33.3 612.8 L -33.3 615.4 L -34.3 617.5 L -36.3 619 L -36.6 619.9 L -36.1 621.3 L -34.7 623 L -33.7 624.2 L -32.8 626.1 L -33.3 627.1 L -32.7 627.8 L -30.9 628.3 L -30.8 628.6 L -31.3 628.8 L -31.7 629.4 L -31.8 630.6 L -30.3 631.6 L -27.1 632.7 L -23.6 633.3 L -19.7 633.5 L -17.5 633.3 L -16.9 632.8 L -16.1 633 L -15.2 633.8 L -13.7 634.3 L -11.7 634.4 L -10.1 634.9 L -9.6 635.3 L -9 635.8 L -8.6 636.8 L -8.9 638 L -8.4 639 L -7.2 639.9 L -5.8 640.2 L -4.3 640.2 L -3.5 640.5 L -3.5 641.2 L -3 642 L -1.8 642.8 L 1.3 642.6 L 9.1 640.5 L 11.9 641.1 L 13.2 641.7 L 13.9 642.5 L 15.7 643 L 18.6 643.3 L 20.7 644.1 L 21.8 645.5 L 23.7 645.1 L 26.3 643.1 L 28.9 642.6 L 31.4 643.6 L 32.7 644.3 L 33 645 L 32.4 645.2 L 31 645.1 L 29.8 645.5 L 28.9 646.4 L 28.8 647.3 L 29.4 648.3 L 30.3 649 L 31.5 649.4 L 32.1 649.9 L 32.2 650.6 L 33.7 651.5 L 36.6 652.7 L 38.1 653.5 L 38 654 L 37.3 654.6 L 36 655.1 L 35.3 655.8 L 35.1 656.6 L 35.3 657.2 L 36.2 657.7 L 41.5 657.1 L 46.9 657.4 L 54.1 658.6 L 58.9 659 L 62.4 658.4 L 75.1 660.3 L 80.9 660.6 L 84.2 659.9 L 86.5 658.9 L 88.5 657.1 L 93.4 654.7 L 98.2 653.4 L 104.4 652.3 L 108.5 652 L 110.9 652.4 L 111.6 652.5 L 112.9 652.5 L 114.2 652.5 L 117.3 651.7 L 122 650.3 L 124.8 648.9 L 125.8 647.6 L 125.8 646.6 L 124.9 645.9 L 124.6 645.2 L 124.8 644.3 L 124.2 643.3 L 122.8 642.4 L 122.2 641.9 L 121.8 641.5 L 121.4 641 L 121.4 640.4 L 122 639.8 L 122.6 638.1 L 123.1 635.1 L 123.8 632.8 L 124.6 631.3 L 125.8 630.3 L 128.1 629.7 L 129.9 631.5 L 132.2 632.4 L 137.6 633.4" />
<path class="river" d="M 195.2 430.8 L 194.9 431.3 L 195.5 431.6 L 196.9 431.8 L 198 432.3 L 199.3 433.5 L 198.6 435.9 L 197.9 436.9 L 197 437.3 L 196.2 438.2 L 195.3 439.7 L 195.1 441 L 195.4 442.3 L 195 443.1 L 193.9 443.5 L 193.4 444 L 193.6 444.9 L 191.7 445.3 L 187.6 445.4 L 184.8 445.8 L 183.2 446.7 L 183.1 448.4 L 184.3 451.1 L 183.7 452.5 L 181.3 452.8 L 179.4 453.4 L 177.4 455 L 170.3 456.3 L 166.2 457.5 L 162.8 458.9 L 162 459.8 L 161.7 460.5 L 160.6 460.7 L 157.8 460.3 L 155.9 460.3 L 154.9 460.6 L 154.3 461.1 L 154.3 461.6 L 153.7 461.9 L 152.5 461.8 L 151.4 462 L 150.3 462.7 L 149.6 462.6 L 149.4 461.9 L 148.8 461.6 L 147.9 461.6 L 147.2 461.2 L 146.7 460.4 L 145.3 459.4 L 142.7 458.2 L 141.8 457.3 L 141.6 456.8 L 140.3 456 L 136.9 454.8 L 133.1 454.1 L 128.9 453.8 L 125.9 453.1 L 124.1 452 L 123.1 451 L 122.9 450.1 L 122.3 449.7 L 121.9 449.7 L 120.3 449.8 L 117.5 450 L 115 449.9 L 113.1 449.4 L 107.3 448.3 L 103.7 448.1 L 100.4 448.6 L 98.2 448.3 L 96.8 447.1 L 96 445.8 L 95.6 444.4 L 94.8 443.4 L 93.6 442.9 L 92.9 441.9 L 92.5 440.6 L 90.8 439.3 L 87.6 438 L 85.8 436.9 L 85.5 436.1 L 84.6 435.9 L 83.1 436.3 L 81.6 436.3 L 80 435.8 L 78.5 435.8 L 77.1 436.2 L 75.3 436.2 L 73.2 435.9 L 70.4 434.9 L 66.9 433.2 L 63.7 432.2 L 60.9 431.6 L 58.8 431 L 57.4 430.3 L 56.5 429.4 L 55.9 428" />
<g class="city"><circle cx="291.2950517544051" cy="450.78488625729597" r="5" /><text x="303.2950517544051" y="454.78488625729597">Moscow</text></g>
<g class="city"><circle cx="141.29812314536676" cy="706.6425296337875" r="5" /><text x="153.29812314536676" y="710.6425296337875">Istanbul</text></g>
<g class="city"><circle cx="531.0460428893339" cy="799.420941932028" r="5" /><text x="543.0460428893339" y="803.420941932028">Tehran</text></g>
<g class="city"><circle cx="408.98179501478046" cy="839.9319883754697" r="5" /><text x="420.98179501478046" y="843.9319883754697">Baghdad</text></g>
<g class="city"><circle cx="164.55989608525817" cy="378.09211710392105" r="5" /><text x="176.55989608525817" y="382.09211710392105">St.  Petersburg</text></g>
<g class="city"><circle cx="208.80514430597884" cy="725.5398195812129" r="5" /><text x="220.80514430597884" y="729.5398195812129">Ankara</text></g>
<g class="city"><circle cx="1158.699703160823" cy="658.2132780975295" r="5" /><text x="1170.699703160823" y="662.2132780975295">Ürümqi</text></g>
<g class="city"><circle cx="839.379224446394" cy="819.4786319956186" r="5" /><text x="851.379224446394" y="823.4786319956186">Kabul</text></g>
<text class="map-title" x="80" y="105">Kazakhstan Physical Study Map</text>
<text class="map-subtitle" x="80" y="145">Landmark: Baiterek Tower | Study terrain and water systems</text>
  <text class="footer" x="80" y="1036">Made with Natural Earth. Free vector and raster map data @ naturalearthdata.com.</text>
</svg>
