<?xml version="1.0" encoding="UTF-8"?>
<svg xmlns="http://www.w3.org/2000/svg" width="1600" height="1100" viewBox="0 0 1600 1100" role="img" aria-labelledby="title desc">
  <title id="title">Laos Political Study Map</title>
  <desc id="desc">Made with Natural Earth. Free vector and raster map data @ naturalearthdata.com.</desc>
  <defs>
    <linearGradient id="terrain" x1="0" x2="1" y1="0" y2="1">
      <stop offset="0%" stop-color="#6c8c53" />
      <stop offset="42%" stop-color="#d5c487" />
      <stop offset="72%" stop-color="#b88b5f" />
      <stop offset="100%" stop-color="#f1f5ee" />
    </linearGradient>
    <filter id="softShadow" x="-10%" y="-10%" width="120%" height="120%">
      <feDropShadow dx="0" dy="10" stdDeviation="12" flood-color="#0f172a" flood-opacity="0.16" />
    </filter>
    <style>
      .neighbor { fill: #ffffff; stroke: #94a3b8; stroke-width: 1.2; opacity: 0.72; }
      .country { fill: #f7f1df; stroke: #1f2937; stroke-width: 4; filter: url(#softShadow); }
      .admin1 { fill: none; stroke: #64748b; stroke-width: 1.1; stroke-dasharray: 6 7; opacity: 0.75; }
      .river { fill: none; stroke: #1d9bd1; stroke-width: 3; stroke-linecap: round; opacity: 0.88; }
      .lake { fill: #8ed1ea; stroke: #0ea5e9; stroke-width: 1.5; opacity: 0.8; }
      .city circle { fill: #ef4444; stroke: #ffffff; stroke-width: 2; }
      .city text, .terrain-label { fill: #172033; font: 700 24px system-ui, sans-serif; paint-order: stroke; stroke: #ffffff; stroke-width: 5; stroke-linejoin: round; }
      .map-title { fill: #0f172a; font: 800 46px system-ui, sans-serif; }
      .map-subtitle { fill: #475569; font: 600 24px system-ui, sans-serif; }
      .footer { fill: #64748b; font: 500 18px system-ui, sans-serif; }
    </style>
  </defs>
  <rect width="100%" height="100%" fill="#eaf3f8" />
  <rect x="40" y="40" width="1520" height="1020" rx="32" fill="#ffffff" opacity="0.54" />
  <path class="neighbor" d="M 732.7 905.8 L 720 841.1 L 754.4 796.5 L 823.6 786.3 L 873.9 794 L 918.1 815 L 942.3 778 L 989.8 797.8 L 1002.3 833.5 L 995.7 897.7 L 905.6 939 L 929.1 971.4 L 872.9 975.3 L 826.5 996.9 L 781.6 989.1 L 759.8 961.2 L 732.7 905.8 Z" />
<path class="neighbor" d="M 873.9 794 L 823.6 786.3 L 754.4 796.5 L 720 841.1 L 732.7 905.8 L 684.6 881.2 L 638.8 882.2 L 646.6 840.1 L 599.4 840.4 L 595.2 899.4 L 566.3 977.6 L 548.9 1025 L 552.5 1063.8 L 587.4 1065.4 L 609.2 1114.4 L 618.8 1160.7 L 648.7 1191.4 L 681.2 1197.7 L 708.9 1225.5 L 691.4 1247.5 L 656.1 1253.9 L 651.8 1226.4 L 608.1 1202.9 L 598.8 1212.5 L 577.6 1191.9 L 568.5 1165.4 L 540 1135.1 L 514 1109.7 L 505.2 1141.2 L 495.1 1111.4 L 500.9 1078 L 516.7 1026.6 L 542.7 971.5 L 572.1 921.6 L 551.1 872.7 L 552 847.8 L 545.8 817.9 L 510.1 775.3 L 497.3 748.4 L 515.8 738.5 L 535.4 691.9 L 513.5 656.5 L 479.5 617.4 L 453.6 570.4 L 476.2 560.7 L 500.6 502.7 L 538.4 500.3 L 569.7 477.1 L 600.4 464.7 L 623.6 481.2 L 626.7 513.4 L 662.9 515.9 L 649.7 572.4 L 651 620.4 L 707.5 588.4 L 723.5 597.9 L 754.9 596.3 L 765.7 577.7 L 806.2 581.4 L 847 624.9 L 850.3 677.8 L 893.7 724.5 L 891.3 769.8 L 873.9 794 Z" />
<path class="neighbor" d="M 600.4 464.7 L 569.7 477.1 L 538.4 500.3 L 500.6 502.7 L 476.2 560.7 L 453.6 570.4 L 479.5 617.4 L 513.5 656.5 L 535.4 691.9 L 515.8 738.5 L 497.3 748.4 L 510.1 775.3 L 545.8 817.9 L 552 847.8 L 551.1 872.7 L 572.1 921.6 L 542.7 971.5 L 516.7 1026.6 L 511.5 986.8 L 528 945.7 L 510 914 L 514.3 855.7 L 492.6 827.9 L 475.1 763.8 L 465.4 696.1 L 442.2 651.7 L 406.9 678.6 L 346 716.8 L 316 712 L 282.8 699.4 L 301.2 633 L 290.1 582.8 L 248.1 521 L 254.6 501.7 L 223.3 494.8 L 185.2 451.1 L 181.7 408 L 200.4 416.1 L 201.5 377.7 L 228 365 L 222.3 342.2 L 234.4 324 L 236.5 268.5 L 278.4 280.7 L 302.3 236.5 L 305 210.4 L 334.6 165.5 L 332.9 134.8 L 402.3 97.8 L 440.6 107.5 L 436.2 74.5 L 455 64.7 L 451 44.3 L 482.3 40.4 L 500.2 71.9 L 523.6 84.7 L 525.2 125.7 L 523 169.9 L 472.3 214.7 L 465.8 278.2 L 522.4 269.3 L 535.2 318.7 L 569.1 329 L 553.5 373.6 L 593.3 393.7 L 616.5 403.5 L 655.8 387.9 L 657.4 410.1 L 611.8 445 L 600.4 464.7 Z" />
<path class="neighbor" d="M 826.5 996.9 L 872.9 975.3 L 929.1 971.4 L 905.6 939 L 995.7 897.7 L 1002.3 833.5 L 989.8 797.8 L 999.6 744.2 L 986.1 706.3 L 945.5 669.1 L 911.8 621.8 L 867.2 558.5 L 803 526.5 L 818.4 507.2 L 852.6 493.2 L 831.9 446.4 L 765.9 446 L 741.8 397.3 L 710.5 355 L 739.3 341.9 L 782 342.2 L 834.1 336 L 879.8 307.4 L 905.6 327.6 L 954.6 337.3 L 946.1 368.2 L 971.7 390 L 1025.6 403.9 L 954.1 449.7 L 909.4 500.4 L 897.6 537.6 L 938.6 594 L 988.7 664.1 L 1037.4 697.2 L 1069.9 740.2 L 1094.5 839.4 L 1087.2 933.7 L 1042.5 969 L 981.2 1003.5 L 937.5 1048.1 L 870.6 1098 L 851.2 1063.7 L 866.2 1027.4 L 826.5 996.9 Z" />
<path class="neighbor" d="M 451 44.3 L 455 64.7 L 436.2 74.5 L 440.6 107.5 L 402.3 97.8 L 332.9 134.8 L 334.6 165.5 L 305 210.4 L 302.3 236.5 L 278.4 280.7 L 236.5 268.5 L 234.4 324 L 222.3 342.2 L 228 365 L 201.5 377.7 L 173.3 292.7 L 158.5 292.9 L 149.7 327.1 L 120.4 299.3 L 137 268.8 L 160.9 265.7 L 185.6 220.4 L 154.7 211.2 L 105 212 L 54 204.7 L 49.3 167.4 L 23.7 164.8 L -18.7 141.6 L -37.6 178 L 1 206.3 L -32.5 226.3 L -44.4 245.8 L -11.4 260.2 L -20.5 292.5 L -1.9 332.8 L 6.4 376.9 L -1.3 396.5 L -37.7 395.8 L -103.8 406.9 L -100.7 447.3 L -129.3 479 L -206.4 515 L -266.4 578.1 L -306.7 611.9 L -360.1 647 L -360.2 671.6 L -386.9 684.8 L -435.2 704 L -460.2 706.8 L -476.3 747.7 L -465.1 817.4 L -462.3 861.9 L -485 912.8 L -485.2 1003.8 L -512.9 1006.4 L -537.3 1047.3 L -521 1065 L -569.9 1080.2 L -587.9 1116.6 L -609.4 1132 L -660.2 1082 L -685 1006.9 L -705.6 952.9 L -724.3 927.5 L -752.8 876 L -766.1 809 L -775.4 775.6 L -824.1 701.9 L -846.3 598.1 L -862.3 529.5 L -862.1 464.6 L -872.5 414.4 L -950.5 446.5 L -988.3 440.1 L -1058.3 375.1 L -1032.5 355.7 L -1048.4 334.7 L -1111.2 289.2 L -1075.5 253.5 L -957.6 253.6 L -968.2 207.6 L -998.3 180.4 L -1004.5 139.2 L -1039.5 115.1 L -980.5 58.9 L -918.2 63 L -862.2 6.8 L -828.6 -47.6 L -776.6 -101.3 L -777.4 -139.5 L -731.7 -170.5 L -774.9 -197 L -793.6 -233.2 L -812.5 -280.2 L -786.3 -303.3 L -705 -290.2 L -645.2 -298.2 L -593.5 -343.2 L -535.9 -280.4 L -541.3 -236.7 L -520 -209.3 L -521.8 -181.9 L -560.2 -189.1 L -545.2 -130.1 L -492.5 -96.1 L -418.1 -58.6 L -452.1 -34.3 L -472.9 15.8 L -420.9 36.1 L -370.4 62.4 L -300.5 92.4 L -227.1 99.4 L -196.2 126.6 L -154.8 131.7 L -90.3 144.2 L -45.7 143.3 L -39.5 122.1 L -46.6 88.1 L -42.4 65 L -9.7 53.7 L -5.2 95.9 L -4.1 106.7 L 44.6 127 L 78.3 118.6 L 123.5 122.2 L 167.3 120.6 L 171 87.7 L 149.2 70.6 L 192.4 63.9 L 241.2 24 L 303 -10.1 L 347.9 3.1 L 386.1 -19.5 L 411.3 13.8 L 393.2 36.3 L 451 44.3 Z" />
<path class="neighbor" d="M 1102 583.7 L 1058 567.1 L 1056.5 521 L 1082.9 496.7 L 1141.4 481.7 L 1172.3 482.9 L 1184.2 503.4 L 1160.7 527 L 1148.3 557.9 L 1102 583.7 Z M -463.7 -710.7 L -467.9 -741.2 L -431.2 -755.2 L -479.4 -848.2 L -373.3 -869.7 L -345.8 -881.6 L -307.2 -977.5 L -200.8 -959.9 L -171 -984.1 L -168.5 -1037.9 L -124 -1042.9 L -83.2 -1078.5 L -62.2 -1083 L -48.1 -1045.6 L -3.1 -1017.1 L 73.3 -997 L 110.3 -953.9 L 89.7 -891.2 L 109 -868 L 172.7 -858.8 L 244.8 -851.4 L 309.6 -818 L 342.7 -812 L 367.1 -762.6 L 398.6 -730.8 L 457.6 -732 L 568.3 -720 L 639.5 -727.5 L 692.4 -719.5 L 771.7 -686.9 L 836.5 -687 L 860.3 -670.3 L 922.7 -699.1 L 1009.2 -717.7 L 1089.6 -719.7 L 1152.2 -738.6 L 1190.6 -767.3 L 1228.1 -785.3 L 1219.5 -803 L 1202.4 -823.6 L 1230.5 -858.1 L 1260.7 -853.3 L 1315.7 -842.4 L 1369.1 -870.9 L 1450.8 -891.6 L 1490.1 -927.1 L 1527.8 -942.3 L 1605.7 -949.4 L 1648 -943.4 L 1653.8 -962.4 L 1605.3 -999.9 L 1562.3 -1017 L 1521.1 -997.2 L 1468.2 -1005.6 L 1437.9 -998.8 L 1424.1 -1020.7 L 1461.9 -1074.2 L 1488 -1114.6 L 1552.4 -1094.4 L 1627.9 -1128.3 L 1627.4 -1151.9 L 1675.8 -1208.7 L 1705.6 -1225.9 L 1704.9 -1255.5 L 1675.5 -1268.2 L 1719.8 -1294.9 L 1786.4 -1304.5 L 1857.4 -1306 L 1937.6 -1290 L 1984.7 -1270.3 L 2017.8 -1216.2 L 2037.9 -1193.2 L 2056.5 -1160.3 L 2076.4 -1107.8 L 2169.6 -1090.6 L 2233.1 -1052.5 L 2254.8 -1002.2 L 2336.2 -1002.1 L 2382.7 -1023.3 L 2471.3 -1039.1 L 2443.1 -990.8 L 2422.3 -971.2 L 2403.9 -912.5 L 2367.9 -860.4 L 2302.8 -869.9 L 2256.8 -851 L 2271 -805.1 L 2263.2 -741.7 L 2235.9 -740.3 L 2236.2 -713.1 L 2201.6 -744.7 L 2180.3 -714.7 L 2097.5 -691.6 L 2105.9 -663.3 L 2059.6 -665.3 L 2034.1 -682.1 L 1997.3 -644.1 L 1938.2 -615.3 L 1894.6 -580.9 L 1819.7 -565.3 L 1780.2 -540.3 L 1722.5 -525.6 L 1751 -550.5 L 1739.8 -571.3 L 1782.2 -607.4 L 1753.9 -635.4 L 1707.2 -616.5 L 1646.7 -579.3 L 1613.7 -544.6 L 1561.1 -542.1 L 1533.8 -517.1 L 1562 -480.8 L 1605.9 -472 L 1607.7 -448 L 1650.1 -432.3 L 1710.1 -470.6 L 1757.7 -449.7 L 1792.4 -448.3 L 1801.1 -420.2 L 1725.2 -405.3 L 1700.1 -376.3 L 1648 -349.4 L 1620.5 -311.9 L 1678.2 -282.5 L 1699.2 -229.8 L 1731.9 -180.7 L 1768.3 -139.5 L 1767.4 -99.7 L 1733.8 -85.1 L 1746.6 -56.5 L 1778.1 -39.8 L 1769.9 3.8 L 1756.3 46.3 L 1726.3 51.1 L 1687.2 109.1 L 1643.8 179.4 L 1594 243.4 L 1520.3 292.8 L 1445.8 338 L 1385.4 344.1 L 1352.6 367.9 L 1334.1 350.5 L 1303.8 377.2 L 1228.9 404 L 1172.2 412.2 L 1153.9 468.8 L 1124.2 471.9 L 1110.1 433.1 L 1122.8 412.3 L 1050.9 395.2 L 1025.6 403.9 L 971.7 390 L 946.1 368.2 L 954.6 337.3 L 905.6 327.6 L 879.8 307.4 L 834.1 336 L 782 342.2 L 739.3 341.9 L 710.5 355 L 682.7 362.9 L 690.8 424.2 L 662.3 422.7 L 657.4 410.1 L 655.8 387.9 L 616.5 403.5 L 593.3 393.7 L 553.5 373.6 L 569.1 329 L 535.2 318.7 L 522.4 269.3 L 465.8 278.2 L 472.3 214.7 L 523 169.9 L 525.2 125.7 L 523.6 84.7 L 500.2 71.9 L 482.3 40.4 L 451 44.3 L 393.2 36.3 L 411.3 13.8 L 386.1 -19.5 L 347.9 3.1 L 303 -10.1 L 241.2 24 L 192.4 63.9 L 149.2 70.6 L 125.8 56.2 L 97.4 54.9 L 59.1 42.5 L 30.2 56.1 L -5.2 95.9 L -9.7 53.7 L -42.4 65 L -104.9 59.7 L -165.5 47.5 L -209 23.9 L -250.7 13.4 L -268.7 -12.4 L -298.8 -20.1 L -352.9 -55 L -395.8 -71.5 L -418.1 -58.6 L -492.5 -96.1 L -545.2 -130.1 L -560.2 -189.1 L -521.8 -181.9 L -520 -209.3 L -541.3 -236.7 L -535.9 -280.4 L -593.5 -343.2 L -681.6 -364.9 L -697.5 -406.1 L -737.1 -431.1 L -746.6 -446.5 L -754.7 -477 L -752.8 -497.8 L -785.3 -510 L -803 -504.6 L -816.5 -554.2 L -801.3 -566.5 L -808.7 -579 L -757.5 -604.4 L -720.5 -614.8 L -663.8 -607.7 L -643.5 -641.9 L -574.8 -648.2 L -555.6 -669.5 L -471.2 -698.5 L -463.7 -710.7 Z" />

<path class="country" d="M 989.8 797.8 L 942.3 778 L 918.1 815 L 873.9 794 L 891.3 769.8 L 893.7 724.5 L 850.3 677.8 L 847 624.9 L 806.2 581.4 L 765.7 577.7 L 754.9 596.3 L 723.5 597.9 L 707.5 588.4 L 651 620.4 L 649.7 572.4 L 662.9 515.9 L 626.7 513.4 L 623.6 481.2 L 600.4 464.7 L 611.8 445 L 657.4 410.1 L 662.3 422.7 L 690.8 424.2 L 682.7 362.9 L 710.5 355 L 741.8 397.3 L 765.9 446 L 831.9 446.4 L 852.6 493.2 L 818.4 507.2 L 803 526.5 L 867.2 558.5 L 911.8 621.8 L 945.5 669.1 L 986.1 706.3 L 999.6 744.2 L 989.8 797.8 Z" />


<g class="city"><circle cx="621.7827717354194" cy="821.9209575120734" r="5" /><text x="633.7827717354194" y="825.9209575120734">Bangkok</text></g>
<g class="city"><circle cx="953.4141383945447" cy="982.1459523918811" r="5" /><text x="965.4141383945447" y="986.1459523918811">Ho Chi Minh City</text></g>
<g class="city"><circle cx="907.5989816467604" cy="431.6060918987724" r="5" /><text x="919.5989816467604" y="435.6060918987724">Hanoi</text></g>
<g class="city"><circle cx="954.2237788487004" cy="134.3565776471629" r="5" /><text x="966.2237788487004" y="138.3565776471629">Guiyang</text></g>
<g class="city"><circle cx="738.7562569448792" cy="216.83883288973882" r="5" /><text x="750.7562569448792" y="220.83883288973882">Kunming</text></g>
<g class="city"><circle cx="1039.9683899482525" cy="335.85860556951116" r="5" /><text x="1051.9683899482525" y="339.85860556951116">Nanning</text></g>
<g class="city"><circle cx="952.0830654795113" cy="442.5021010845954" r="5" /><text x="964.0830654795113" y="446.5021010845954">Haiphong</text></g>
<g class="city"><circle cx="1150.362930180614" cy="422.6749131081816" r="5" /><text x="1162.362930180614" y="426.6749131081816">Zhanjiang</text></g>
<text class="map-title" x="80" y="105">Laos Political Study Map</text>
<text class="map-subtitle" x="80" y="145">Capital: Vientiane | Continent: Asia</text>
  <text class="footer" x="80" y="1036">Made with Natural Earth. Free vector and raster map data @ naturalearthdata.com.</text>
</svg>
