<?xml version="1.0" encoding="UTF-8"?>
<svg xmlns="http://www.w3.org/2000/svg" width="1600" height="1100" viewBox="0 0 1600 1100" role="img" aria-labelledby="title desc">
  <title id="title">Laos Physical Study Map</title>
  <desc id="desc">Made with Natural Earth. Free vector and raster map data @ naturalearthdata.com.</desc>
  <defs>
    <linearGradient id="terrain" x1="0" x2="1" y1="0" y2="1">
      <stop offset="0%" stop-color="#6c8c53" />
      <stop offset="42%" stop-color="#d5c487" />
      <stop offset="72%" stop-color="#b88b5f" />
      <stop offset="100%" stop-color="#f1f5ee" />
    </linearGradient>
    <filter id="softShadow" x="-10%" y="-10%" width="120%" height="120%">
      <feDropShadow dx="0" dy="10" stdDeviation="12" flood-color="#0f172a" flood-opacity="0.16" />
    </filter>
    <style>
      .neighbor { fill: #ffffff; stroke: #94a3b8; stroke-width: 1.2; opacity: 0.72; }
      .country { fill: url(#terrain); stroke: #1f2937; stroke-width: 4; filter: url(#softShadow); }
      .admin1 { fill: none; stroke: #64748b; stroke-width: 1.1; stroke-dasharray: 6 7; opacity: 0.75; }
      .river { fill: none; stroke: #1d9bd1; stroke-width: 3; stroke-linecap: round; opacity: 0.88; }
      .lake { fill: #8ed1ea; stroke: #0ea5e9; stroke-width: 1.5; opacity: 0.8; }
      .city circle { fill: #ef4444; stroke: #ffffff; stroke-width: 2; }
      .city text, .terrain-label { fill: #172033; font: 700 24px system-ui, sans-serif; paint-order: stroke; stroke: #ffffff; stroke-width: 5; stroke-linejoin: round; }
      .map-title { fill: #0f172a; font: 800 46px system-ui, sans-serif; }
      .map-subtitle { fill: #475569; font: 600 24px system-ui, sans-serif; }
      .footer { fill: #64748b; font: 500 18px system-ui, sans-serif; }
    </style>
  </defs>
  <rect width="100%" height="100%" fill="#d8edf0" />
  <rect x="40" y="40" width="1520" height="1020" rx="32" fill="#ffffff" opacity="0.54" />
  <path class="neighbor" d="M 732.7 905.8 L 720 841.1 L 754.4 796.5 L 823.6 786.3 L 873.9 794 L 918.1 815 L 942.3 778 L 989.8 797.8 L 1002.3 833.5 L 995.7 897.7 L 905.6 939 L 929.1 971.4 L 872.9 975.3 L 826.5 996.9 L 781.6 989.1 L 759.8 961.2 L 732.7 905.8 Z" />
<path class="neighbor" d="M 873.9 794 L 823.6 786.3 L 754.4 796.5 L 720 841.1 L 732.7 905.8 L 684.6 881.2 L 638.8 882.2 L 646.6 840.1 L 599.4 840.4 L 595.2 899.4 L 566.3 977.6 L 548.9 1025 L 552.5 1063.8 L 587.4 1065.4 L 609.2 1114.4 L 618.8 1160.7 L 648.7 1191.4 L 681.2 1197.7 L 708.9 1225.5 L 691.4 1247.5 L 656.1 1253.9 L 651.8 1226.4 L 608.1 1202.9 L 598.8 1212.5 L 577.6 1191.9 L 568.5 1165.4 L 540 1135.1 L 514 1109.7 L 505.2 1141.2 L 495.1 1111.4 L 500.9 1078 L 516.7 1026.6 L 542.7 971.5 L 572.1 921.6 L 551.1 872.7 L 552 847.8 L 545.8 817.9 L 510.1 775.3 L 497.3 748.4 L 515.8 738.5 L 535.4 691.9 L 513.5 656.5 L 479.5 617.4 L 453.6 570.4 L 476.2 560.7 L 500.6 502.7 L 538.4 500.3 L 569.7 477.1 L 600.4 464.7 L 623.6 481.2 L 626.7 513.4 L 662.9 515.9 L 649.7 572.4 L 651 620.4 L 707.5 588.4 L 723.5 597.9 L 754.9 596.3 L 765.7 577.7 L 806.2 581.4 L 847 624.9 L 850.3 677.8 L 893.7 724.5 L 891.3 769.8 L 873.9 794 Z" />
<path class="neighbor" d="M 600.4 464.7 L 569.7 477.1 L 538.4 500.3 L 500.6 502.7 L 476.2 560.7 L 453.6 570.4 L 479.5 617.4 L 513.5 656.5 L 535.4 691.9 L 515.8 738.5 L 497.3 748.4 L 510.1 775.3 L 545.8 817.9 L 552 847.8 L 551.1 872.7 L 572.1 921.6 L 542.7 971.5 L 516.7 1026.6 L 511.5 986.8 L 528 945.7 L 510 914 L 514.3 855.7 L 492.6 827.9 L 475.1 763.8 L 465.4 696.1 L 442.2 651.7 L 406.9 678.6 L 346 716.8 L 316 712 L 282.8 699.4 L 301.2 633 L 290.1 582.8 L 248.1 521 L 254.6 501.7 L 223.3 494.8 L 185.2 451.1 L 181.7 408 L 200.4 416.1 L 201.5 377.7 L 228 365 L 222.3 342.2 L 234.4 324 L 236.5 268.5 L 278.4 280.7 L 302.3 236.5 L 305 210.4 L 334.6 165.5 L 332.9 134.8 L 402.3 97.8 L 440.6 107.5 L 436.2 74.5 L 455 64.7 L 451 44.3 L 482.3 40.4 L 500.2 71.9 L 523.6 84.7 L 525.2 125.7 L 523 169.9 L 472.3 214.7 L 465.8 278.2 L 522.4 269.3 L 535.2 318.7 L 569.1 329 L 553.5 373.6 L 593.3 393.7 L 616.5 403.5 L 655.8 387.9 L 657.4 410.1 L 611.8 445 L 600.4 464.7 Z" />
<path class="neighbor" d="M 826.5 996.9 L 872.9 975.3 L 929.1 971.4 L 905.6 939 L 995.7 897.7 L 1002.3 833.5 L 989.8 797.8 L 999.6 744.2 L 986.1 706.3 L 945.5 669.1 L 911.8 621.8 L 867.2 558.5 L 803 526.5 L 818.4 507.2 L 852.6 493.2 L 831.9 446.4 L 765.9 446 L 741.8 397.3 L 710.5 355 L 739.3 341.9 L 782 342.2 L 834.1 336 L 879.8 307.4 L 905.6 327.6 L 954.6 337.3 L 946.1 368.2 L 971.7 390 L 1025.6 403.9 L 954.1 449.7 L 909.4 500.4 L 897.6 537.6 L 938.6 594 L 988.7 664.1 L 1037.4 697.2 L 1069.9 740.2 L 1094.5 839.4 L 1087.2 933.7 L 1042.5 969 L 981.2 1003.5 L 937.5 1048.1 L 870.6 1098 L 851.2 1063.7 L 866.2 1027.4 L 826.5 996.9 Z" />
<path class="neighbor" d="M 451 44.3 L 455 64.7 L 436.2 74.5 L 440.6 107.5 L 402.3 97.8 L 332.9 134.8 L 334.6 165.5 L 305 210.4 L 302.3 236.5 L 278.4 280.7 L 236.5 268.5 L 234.4 324 L 222.3 342.2 L 228 365 L 201.5 377.7 L 173.3 292.7 L 158.5 292.9 L 149.7 327.1 L 120.4 299.3 L 137 268.8 L 160.9 265.7 L 185.6 220.4 L 154.7 211.2 L 105 212 L 54 204.7 L 49.3 167.4 L 23.7 164.8 L -18.7 141.6 L -37.6 178 L 1 206.3 L -32.5 226.3 L -44.4 245.8 L -11.4 260.2 L -20.5 292.5 L -1.9 332.8 L 6.4 376.9 L -1.3 396.5 L -37.7 395.8 L -103.8 406.9 L -100.7 447.3 L -129.3 479 L -206.4 515 L -266.4 578.1 L -306.7 611.9 L -360.1 647 L -360.2 671.6 L -386.9 684.8 L -435.2 704 L -460.2 706.8 L -476.3 747.7 L -465.1 817.4 L -462.3 861.9 L -485 912.8 L -485.2 1003.8 L -512.9 1006.4 L -537.3 1047.3 L -521 1065 L -569.9 1080.2 L -587.9 1116.6 L -609.4 1132 L -660.2 1082 L -685 1006.9 L -705.6 952.9 L -724.3 927.5 L -752.8 876 L -766.1 809 L -775.4 775.6 L -824.1 701.9 L -846.3 598.1 L -862.3 529.5 L -862.1 464.6 L -872.5 414.4 L -950.5 446.5 L -988.3 440.1 L -1058.3 375.1 L -1032.5 355.7 L -1048.4 334.7 L -1111.2 289.2 L -1075.5 253.5 L -957.6 253.6 L -968.2 207.6 L -998.3 180.4 L -1004.5 139.2 L -1039.5 115.1 L -980.5 58.9 L -918.2 63 L -862.2 6.8 L -828.6 -47.6 L -776.6 -101.3 L -777.4 -139.5 L -731.7 -170.5 L -774.9 -197 L -793.6 -233.2 L -812.5 -280.2 L -786.3 -303.3 L -705 -290.2 L -645.2 -298.2 L -593.5 -343.2 L -535.9 -280.4 L -541.3 -236.7 L -520 -209.3 L -521.8 -181.9 L -560.2 -189.1 L -545.2 -130.1 L -492.5 -96.1 L -418.1 -58.6 L -452.1 -34.3 L -472.9 15.8 L -420.9 36.1 L -370.4 62.4 L -300.5 92.4 L -227.1 99.4 L -196.2 126.6 L -154.8 131.7 L -90.3 144.2 L -45.7 143.3 L -39.5 122.1 L -46.6 88.1 L -42.4 65 L -9.7 53.7 L -5.2 95.9 L -4.1 106.7 L 44.6 127 L 78.3 118.6 L 123.5 122.2 L 167.3 120.6 L 171 87.7 L 149.2 70.6 L 192.4 63.9 L 241.2 24 L 303 -10.1 L 347.9 3.1 L 386.1 -19.5 L 411.3 13.8 L 393.2 36.3 L 451 44.3 Z" />
<path class="neighbor" d="M 1102 583.7 L 1058 567.1 L 1056.5 521 L 1082.9 496.7 L 1141.4 481.7 L 1172.3 482.9 L 1184.2 503.4 L 1160.7 527 L 1148.3 557.9 L 1102 583.7 Z M -463.7 -710.7 L -467.9 -741.2 L -431.2 -755.2 L -479.4 -848.2 L -373.3 -869.7 L -345.8 -881.6 L -307.2 -977.5 L -200.8 -959.9 L -171 -984.1 L -168.5 -1037.9 L -124 -1042.9 L -83.2 -1078.5 L -62.2 -1083 L -48.1 -1045.6 L -3.1 -1017.1 L 73.3 -997 L 110.3 -953.9 L 89.7 -891.2 L 109 -868 L 172.7 -858.8 L 244.8 -851.4 L 309.6 -818 L 342.7 -812 L 367.1 -762.6 L 398.6 -730.8 L 457.6 -732 L 568.3 -720 L 639.5 -727.5 L 692.4 -719.5 L 771.7 -686.9 L 836.5 -687 L 860.3 -670.3 L 922.7 -699.1 L 1009.2 -717.7 L 1089.6 -719.7 L 1152.2 -738.6 L 1190.6 -767.3 L 1228.1 -785.3 L 1219.5 -803 L 1202.4 -823.6 L 1230.5 -858.1 L 1260.7 -853.3 L 1315.7 -842.4 L 1369.1 -870.9 L 1450.8 -891.6 L 1490.1 -927.1 L 1527.8 -942.3 L 1605.7 -949.4 L 1648 -943.4 L 1653.8 -962.4 L 1605.3 -999.9 L 1562.3 -1017 L 1521.1 -997.2 L 1468.2 -1005.6 L 1437.9 -998.8 L 1424.1 -1020.7 L 1461.9 -1074.2 L 1488 -1114.6 L 1552.4 -1094.4 L 1627.9 -1128.3 L 1627.4 -1151.9 L 1675.8 -1208.7 L 1705.6 -1225.9 L 1704.9 -1255.5 L 1675.5 -1268.2 L 1719.8 -1294.9 L 1786.4 -1304.5 L 1857.4 -1306 L 1937.6 -1290 L 1984.7 -1270.3 L 2017.8 -1216.2 L 2037.9 -1193.2 L 2056.5 -1160.3 L 2076.4 -1107.8 L 2169.6 -1090.6 L 2233.1 -1052.5 L 2254.8 -1002.2 L 2336.2 -1002.1 L 2382.7 -1023.3 L 2471.3 -1039.1 L 2443.1 -990.8 L 2422.3 -971.2 L 2403.9 -912.5 L 2367.9 -860.4 L 2302.8 -869.9 L 2256.8 -851 L 2271 -805.1 L 2263.2 -741.7 L 2235.9 -740.3 L 2236.2 -713.1 L 2201.6 -744.7 L 2180.3 -714.7 L 2097.5 -691.6 L 2105.9 -663.3 L 2059.6 -665.3 L 2034.1 -682.1 L 1997.3 -644.1 L 1938.2 -615.3 L 1894.6 -580.9 L 1819.7 -565.3 L 1780.2 -540.3 L 1722.5 -525.6 L 1751 -550.5 L 1739.8 -571.3 L 1782.2 -607.4 L 1753.9 -635.4 L 1707.2 -616.5 L 1646.7 -579.3 L 1613.7 -544.6 L 1561.1 -542.1 L 1533.8 -517.1 L 1562 -480.8 L 1605.9 -472 L 1607.7 -448 L 1650.1 -432.3 L 1710.1 -470.6 L 1757.7 -449.7 L 1792.4 -448.3 L 1801.1 -420.2 L 1725.2 -405.3 L 1700.1 -376.3 L 1648 -349.4 L 1620.5 -311.9 L 1678.2 -282.5 L 1699.2 -229.8 L 1731.9 -180.7 L 1768.3 -139.5 L 1767.4 -99.7 L 1733.8 -85.1 L 1746.6 -56.5 L 1778.1 -39.8 L 1769.9 3.8 L 1756.3 46.3 L 1726.3 51.1 L 1687.2 109.1 L 1643.8 179.4 L 1594 243.4 L 1520.3 292.8 L 1445.8 338 L 1385.4 344.1 L 1352.6 367.9 L 1334.1 350.5 L 1303.8 377.2 L 1228.9 404 L 1172.2 412.2 L 1153.9 468.8 L 1124.2 471.9 L 1110.1 433.1 L 1122.8 412.3 L 1050.9 395.2 L 1025.6 403.9 L 971.7 390 L 946.1 368.2 L 954.6 337.3 L 905.6 327.6 L 879.8 307.4 L 834.1 336 L 782 342.2 L 739.3 341.9 L 710.5 355 L 682.7 362.9 L 690.8 424.2 L 662.3 422.7 L 657.4 410.1 L 655.8 387.9 L 616.5 403.5 L 593.3 393.7 L 553.5 373.6 L 569.1 329 L 535.2 318.7 L 522.4 269.3 L 465.8 278.2 L 472.3 214.7 L 523 169.9 L 525.2 125.7 L 523.6 84.7 L 500.2 71.9 L 482.3 40.4 L 451 44.3 L 393.2 36.3 L 411.3 13.8 L 386.1 -19.5 L 347.9 3.1 L 303 -10.1 L 241.2 24 L 192.4 63.9 L 149.2 70.6 L 125.8 56.2 L 97.4 54.9 L 59.1 42.5 L 30.2 56.1 L -5.2 95.9 L -9.7 53.7 L -42.4 65 L -104.9 59.7 L -165.5 47.5 L -209 23.9 L -250.7 13.4 L -268.7 -12.4 L -298.8 -20.1 L -352.9 -55 L -395.8 -71.5 L -418.1 -58.6 L -492.5 -96.1 L -545.2 -130.1 L -560.2 -189.1 L -521.8 -181.9 L -520 -209.3 L -541.3 -236.7 L -535.9 -280.4 L -593.5 -343.2 L -681.6 -364.9 L -697.5 -406.1 L -737.1 -431.1 L -746.6 -446.5 L -754.7 -477 L -752.8 -497.8 L -785.3 -510 L -803 -504.6 L -816.5 -554.2 L -801.3 -566.5 L -808.7 -579 L -757.5 -604.4 L -720.5 -614.8 L -663.8 -607.7 L -643.5 -641.9 L -574.8 -648.2 L -555.6 -669.5 L -471.2 -698.5 L -463.7 -710.7 Z" />
<path class="lake" d="M 839.1 893 L 837.1 891.3 L 833.4 888.7 L 830.1 888.6 L 822.4 885.6 L 816.1 879.8 L 814.2 873.5 L 809 872.7 L 803 869.3 L 798.2 865.1 L 795.4 860.1 L 793.8 855.7 L 792.4 851.1 L 794.1 848.8 L 800.1 849.6 L 807.5 852.6 L 813.9 860.3 L 819.2 870.5 L 821.1 874.9 L 822.9 876.2 L 828.4 875.8 L 832.1 877 L 833.6 881.5 L 833.6 885.2 L 833.8 885.9 L 835.3 886.8 L 838.3 888.2 L 838.5 889.8 L 838.9 891 L 840.2 892.7 L 839.1 893 L 839.1 893 L 839.1 893 L 839.1 893 Z" />
<path class="lake" d="M 748.5 566 L 745.6 566 L 739.9 567.6 L 737.6 569.3 L 736 570.2 L 734.3 568.7 L 732 564.3 L 730.6 561.3 L 729.6 558.4 L 728.5 554.3 L 729.6 553.6 L 731.4 554.9 L 732.6 557 L 734.7 557.8 L 735.6 558.2 L 736.7 558.8 L 739.1 559.1 L 741.4 559.4 L 741.8 562.2 L 743.8 563.8 L 747 564.8 L 748.8 565.1 L 749.3 565.3 L 748.5 566 L 748.5 566 L 748.5 566 Z" />
<path class="country" d="M 989.8 797.8 L 942.3 778 L 918.1 815 L 873.9 794 L 891.3 769.8 L 893.7 724.5 L 850.3 677.8 L 847 624.9 L 806.2 581.4 L 765.7 577.7 L 754.9 596.3 L 723.5 597.9 L 707.5 588.4 L 651 620.4 L 649.7 572.4 L 662.9 515.9 L 626.7 513.4 L 623.6 481.2 L 600.4 464.7 L 611.8 445 L 657.4 410.1 L 662.3 422.7 L 690.8 424.2 L 682.7 362.9 L 710.5 355 L 741.8 397.3 L 765.9 446 L 831.9 446.4 L 852.6 493.2 L 818.4 507.2 L 803 526.5 L 867.2 558.5 L 911.8 621.8 L 945.5 669.1 L 986.1 706.3 L 999.6 744.2 L 989.8 797.8 Z" />

<path class="river" d="M 461.2 181.6 L 460.7 182.2 L 461 183.3 L 460.5 187.5 L 457.5 196.8 L 454.5 201.1 L 451.7 200.4 L 449.1 202.5 L 446.8 207.6 L 446.8 211 L 449.1 212.7 L 449 213.8 L 446.3 214.3 L 445 215.7 L 445.2 218.1 L 443.9 220.2 L 439.7 222.7 L 436.4 228 L 436.4 232.3 L 438.5 237.4 L 439.7 243.2 L 439.9 249.6 L 441.1 254.1 L 443.3 256.9 L 444 259.2 L 443.3 261.3 L 439.6 263.2 L 432.9 265 L 427.7 263.7 L 423.7 259.3 L 419.3 256.3 L 414.5 254.5 L 409.9 254.3 L 405.5 255.8 L 401.4 259.3 L 397.6 264.8 L 395.5 269.6 L 394.9 275.6 L 384.4 291.3 L 380.2 307.1 L 378.7 328.2 L 377.1 339.5 L 375.4 341.2 L 375.7 344.4 L 378.1 349.2 L 379 353.4 L 378.3 357 L 378.6 359.7 L 379.9 361.3 L 380.9 367.6 L 381.7 378.5 L 380.3 384.9 L 376.9 386.7 L 373.4 386.6 L 369.7 384.6 L 364.3 383.8 L 357.2 384.1 L 352 386.8 L 348.7 391.7 L 346.2 397.8 L 344.7 405 L 343.1 409 L 340.7 410 L 335.5 415 L 329.5 418.1 L 320.9 421.1 L 316.6 425.7 L 316.6 431.9 L 315.2 437.1 L 312.3 441.3 L 313.4 449.5 L 318.6 461.5 L 321.3 470.8 L 321.5 477.2 L 323.9 483.3 L 330.6 491.9 L 333.8 495.4 L 335.3 502.6 L 336.3 514.7 L 335.7 525.8 L 333.5 536 L 333.7 543.6 L 336.4 548.6 L 335.9 553 L 332.3 556.7 L 330.3 559.9 L 329.9 562.8 L 333.9 568.6 L 342.5 577.5 L 347.7 584.5 L 349.5 589.8 L 350.5 596.6 L 350.6 602 L 350.7 604.8 L 351.6 608 L 352.2 610.4 L 355.1 613.4 L 356.3 616.5 L 355.8 619.5 L 357.3 622.1 L 360.8 624.3 L 361.3 627 L 359 630.1 L 358.6 634.2 L 360.1 639.4 L 359.7 643.2 L 357.5 645.8 L 357 649.1 L 358.4 653.1 L 355.4 656.6 L 352 657.8 L 347.9 659.4 L 344 662.8 L 343.5 666.8 L 338.9 673.6 L 325.8 688 L 323.7 690.2 L 320.5 691.6" />
<path class="river" d="M 943.5 471.6 L 936.5 468.4 L 933.4 468 L 931.2 468.9 L 930.2 468.5 L 930.5 466.9 L 929.9 465.8 L 928.3 465.2 L 926.2 462.1 L 923.7 456.4 L 921.6 453.7 L 919.8 453.9 L 917 451.5 L 913.1 446.3 L 910.9 440.9 L 910.2 435.4 L 906.9 430.8 L 901 427 L 895.7 424.8 L 891 424.4 L 887.7 422.6 L 885 417.8 L 879.6 418.9 L 876.9 417.4 L 875.1 413.6 L 873.7 412.6 L 872.7 414.3 L 868.5 410.5 L 860.9 401.1 L 845.7 386.6 L 811.3 357.2 L 780.6 331.6 L 763.6 319.8 L 750 313.4 L 734.3 307.4 L 707.8 298.8 L 695.6 288.8 L 687.7 280.4 L 680 270.1 L 675 261.6 L 672.6 254.8 L 669.8 249.5 L 666.5 245.6 L 663.4 243.8 L 660.5 243.9 L 654.1 237.6 L 644.1 225 L 637.7 219 L 634.9 219.5 L 628.6 218 L 618.8 214.4 L 613 211.1 L 610.4 206.6 L 604 195.4" />
<path class="river" d="M 966.3 207.1 L 967.3 207.2 L 968 208.4 L 968.4 211.9 L 970.4 215.9 L 972.7 217.6 L 977.7 218.7 L 984.2 225.9 L 986.2 230 L 986 233.6 L 988.8 240.4 L 994.4 250.4 L 998.4 255.7 L 1000.8 256.2 L 1001.9 257.7 L 1001.9 260.1 L 1000.3 262.6 L 997 265.3 L 995.8 268.1 L 996.8 271.1 L 998.7 273.5 L 1001.5 275.2 L 1003.8 275.7 L 1005.4 274.8 L 1008.6 277.8 L 1013.3 284.7 L 1017.7 287.6 L 1021.6 286.5 L 1025 284.4 L 1027.9 281.5 L 1030 280.4 L 1031.1 281.1 L 1034.9 278.7 L 1041.3 273 L 1047.2 270.9 L 1052.5 272.3 L 1056.8 274.9 L 1060 278.6 L 1063.6 280.8 L 1067.5 281.5 L 1069.3 283.1 L 1068.7 285.7 L 1069.7 288.2 L 1072.2 290.8 L 1076.5 290.8 L 1082.5 288.2 L 1086.8 287.6 L 1089.3 289.1 L 1091.6 289.5 L 1093.8 288.8 L 1096.3 286.3 L 1099.2 282.1 L 1101.7 280.9 L 1104.8 283.6" />
<path class="river" d="M 562 52 L 563.7 66.8 L 567.1 77.6 L 572.8 89.1 L 579.6 98.8 L 587.5 106.5 L 591.8 112.3 L 592.5 116.1 L 594 117.1 L 596.4 115.2 L 597.6 111.3 L 597.6 105.5 L 600 100.1 L 604.9 95.1 L 606.6 90.6 L 605.2 86.6 L 605.9 82.3 L 608.6 77.6 L 610.1 73.3 L 610.2 69.4 L 611.9 67.3 L 615.1 67.1 L 617.1 71.6 L 617.9 80.7 L 619.5 86 L 622 87.6 L 623.4 90.9 L 623.7 95.8 L 622.2 99.2 L 619 101.1 L 618.3 102.9 L 620 104.5 L 620.2 109.3 L 619 117.3 L 617.6 121.8 L 616.1 122.8 L 616.2 128.5 L 618 138.8 L 618.2 145.3 L 617 148.1 L 617.1 150.6 L 618.8 152.9 L 625.4 154.7 L 636.9 156 L 645.7 154.2 L 651.6 149.4 L 658.5 146.4 L 666.5 145.1 L 671.7 141.8 L 674.3 136.5 L 679.4 133.7 L 687.1 133.5 L 692.9 135.8 L 696.7 140.9 L 698.2 146.1 L 697.4 151.5 L 696 155.2 L 694 157.1 L 693.2 160.3 L 693.5 164.7 L 696.7 166.5 L 702.8 165.9 L 708.1 162.5 L 712.6 156.4 L 719.1 151.3 L 727.6 147.3 L 732.6 145.7 L 734.2 146.6 L 734.7 148.2 L 734.3 150.5 L 735.4 152 L 738.1 152.9 L 741.7 151.5 L 746.2 147.8 L 749.9 146 L 752.9 146 L 754.4 144.4 L 754.6 141.1 L 755.6 138.9 L 757.2 137.5 L 756 131.6 L 751.8 121.2 L 749.5 111.3 L 749.1 101.8 L 749.8 95.2 L 751.6 91.3 L 753.3 89.9 L 754.9 90.8 L 757.5 90.6 L 762.8 88.7 L 765.7 83.4 L 767.7 81.3 L 769.8 80.7 L 770.7 79.8 L 770.4 78.3 L 772.4 76 L 776.9 72.8 L 780.7 68.3 L 783.6 62.6 L 783.5 58.8 L 780.2 57 L 778.8 54.9 L 779.2 52.4 L 780.9 49.7 L 786.6 45 L 788.5 44.2 L 790.5 44.6 L 792.6 46.1 L 795.8 45.3 L 800 42.4 L 801 38.2 L 798.7 32.7 L 798.3 28.1 L 800.6 22.6 M 516 -139.4 L 529.8 -125.9 L 532.9 -119.7 L 529.7 -116.4 L 526.6 -115.9 L 523.4 -118.2 L 521.2 -117.4 L 520 -113.5 L 522 -109.1 L 527.4 -104.3 L 529.8 -100.4 L 529.4 -97.5 L 531.5 -94 L 536.2 -89.8 L 537.7 -86.9 L 536.3 -85.2 L 537.5 -74.4 L 541.6 -54.3 L 542.7 -40.7 L 540.8 -33.6 L 541.4 -24.7 L 545.8 -8.6 L 548.4 24 L 552.5 39.1 L 562 51.6" />
<path class="river" d="M 430.3 -154.1 L 436.4 -139.5 L 439.9 -133.3 L 442.8 -130.7 L 444.5 -127.2 L 445 -122.8 L 444.4 -119.8 L 442.7 -118.3 L 442.4 -114.9 L 443.5 -109.6 L 446.4 -105.1 L 451.2 -101.3 L 453.7 -96.5 L 453.7 -90.9 L 460 -82 L 478.8 -63.7 L 485 -57.5 L 489 -51.3 L 492.8 -42.9 L 495.6 -38.6 L 497.4 -38.4 L 500 -36.1 L 503.5 -31.7 L 506.5 -25.7 L 509.1 -18.1 L 513 -11.7 L 518.2 -6.4 L 520.2 -2 L 518.9 1.7 L 518.8 4.3 L 520.5 6.8 L 522.9 17 L 526 24.5 L 530.4 32.7 L 533.3 42.1 L 534.6 52.5 L 537.3 60.5 L 541.2 66.1 L 542.5 70.8 L 541.2 74.7 L 540.9 78.6 L 542.1 84.3 L 545.3 91.8 L 546.2 95.4 L 545.6 97.8 L 546.5 100.4 L 548.7 103.4 L 550 108.1 L 550.4 114.7 L 549.5 122.6 L 547.3 131.7 L 546.7 137.1 L 547.8 138.8 L 548.2 145.2 L 547.8 156.1 L 548.1 164.4 L 549 170 L 552 176.7 L 557.2 184.6 L 558.9 191.2 L 557.1 196.5 L 558.9 202.3 L 564.2 208.5 L 568.8 212.2 L 572.7 213.3 L 578.1 218.2 L 585 227 L 590.9 231.9 L 595.8 232.9 L 598.8 234.3 L 599.9 235.9 L 601.7 235.8 L 604.2 233.8 L 607.6 232.7 L 612 232.6 L 616.6 236.2 L 621.6 243.5 L 623.6 251.9 L 622.5 261.4 L 620.2 267 L 616.5 268.6 L 615 271.3 L 615.7 275.3 L 613.3 280.5 L 607.7 287.2 L 604.1 293.1 L 601.6 301 L 597.8 311.4 L 599.9 318.3 L 606.7 325.1 L 611 332.4 L 612.8 340.1 L 616.5 345.8 L 621.9 349.7 L 624.6 353 L 624.5 355.7 L 625.7 358.6 L 628.3 361.5 L 628.9 363.5 L 627.5 364.5 L 628.1 365.5 L 630.5 366.6 L 632 368.9 L 632.5 372.3 L 635.5 377.4 L 640.7 384 L 646.9 388.2 L 654 389.9 L 656.7 391.2 L 655 392 L 654.7 395.7 L 655.7 402.3 L 652.1 408.4 L 643.9 413.9 L 638.1 416.7 L 634.7 416.7 L 631.9 420 L 629.5 426.5 L 627.1 430.3 L 624.6 431.5 L 622.9 433.9 L 622.2 437.7 L 623.6 439.7 L 627.3 440 L 627.6 441 L 624.5 442.9 L 620.6 443.5 L 616 443 L 611.7 444.4 L 607.6 448 L 604.1 455.5 L 601.1 467.1 L 600.4 473.3 L 601.7 473.9 L 603.5 472.5 L 605.9 468.9 L 608.5 466.9 L 611.2 466.4 L 614.2 468.8 L 617.3 474.2 L 620.5 477.2 L 623.9 478 L 625.7 483.2 L 626.2 492.8 L 629.2 496.5 L 634.7 494.1 L 640.1 493.6 L 645.6 495.2 L 649.8 495.2 L 652.7 493.8 L 656 493.9 L 659.7 495.8 L 665.7 496.6 L 673.7 496.6 L 685.3 493 L 700.3 485.9 L 708.7 482.4 L 710.6 482.7 L 712.3 484 L 713.8 486.5 L 708.9 492.3 L 697.6 501.3 L 691.9 508.3 L 691.8 513.2 L 692.9 516.5 L 695.2 518.2 L 695.3 520.7 L 693.1 524.1 L 691.7 531 L 691.1 541.5 L 691.5 548.4 L 692.9 551.7 L 692.1 556.9 L 689.1 563.9 L 683 571.6 L 673.9 580.2 L 669.7 587.9 L 670.2 594.7 L 672.4 599.5 L 678 603.9" />
<path class="river" d="M 859.5 937.7 L 859.5 942.2 L 860.9 944.1 L 863.5 945.1 L 864.4 946.5 L 863.4 948.2 L 864.5 958 L 867.8 975.9 L 878.8 994.3 L 906.7 1022.9 M 859.5 937.7 L 871.9 945.5 L 876.4 950.3 L 877.3 954.7 L 876.4 959.7 L 873.8 965.4 L 872.8 970.6 L 873.4 975.3 L 875.5 978.8 L 879 980.9 L 881.3 984.2 L 882.4 988.7 L 888.4 994.6 L 899.5 1002.1 L 909.3 1007 L 912 1007.8 L 923.1 1011.1 M 678 603.9 L 684.6 600.2 L 687.7 596.8 L 689.3 592.5 L 691.7 590.8 L 694.7 591.8 L 698.6 589.9 L 703.2 585.2 L 706.8 583 L 709.3 583.3 L 713.8 586.3 L 720.2 591.8 L 726 595.1 L 731 596.1 L 733.4 598.2 L 733.3 601.3 L 734.4 603.2 L 736.8 604 L 737.8 603.7 L 737.6 602.2 L 739.8 600 L 744.7 597.2 L 749.5 595.5 L 754.5 595 L 757.7 592.7 L 759.9 586.9 M 759.8 586.9 L 759.9 586.9 M 759.9 586.9 L 759.9 586.7 M 759.9 586.9 L 762.9 582.4 L 765.7 580.4 L 769.1 579.3 L 770 577.9 L 768.3 576.1 L 768.5 574.3 L 770.4 572.4 L 774.6 571.6 L 781.1 571.9 L 788.7 573.8 L 797.4 577.3 L 803.1 578.4 L 805.9 577.2 L 811.2 582.7 L 819.1 594.9 L 825.9 604.1 L 831.5 610.4 L 837.5 615.2 L 843.7 618.6 L 848.2 623.1 L 852.3 631.8 L 849.2 643.7 L 848.4 654.1 L 848.8 666.7 L 852.5 676.5 L 859.5 683.2 L 863.5 688.7 L 864.7 692.9 L 870.1 696.4 L 879.9 699.4 L 883.9 702.1 L 882.3 704.5 L 882.1 707.4 L 883.5 710.6 L 886.9 713.2 L 892.3 715.3 L 895.5 717.5 L 896.5 719.9 L 896.4 723.6 L 895.1 728.9 L 892.9 732.9 L 889.7 735.7 L 890 737.3 L 894 737.7 L 897.8 740.4 L 904 748.6 L 908.7 753.3 L 910.7 758 L 911.8 764.4 L 911.2 770.4 L 909 776.2 L 908.2 782.1 L 908.9 788.3 L 908.5 794.3 L 906.7 800.2 L 908 804.9 L 912.2 808.4 L 914.7 811.4 L 915.5 814 L 915.5 816.6 L 914.8 819.2 L 915.2 821.9 L 916.9 824.8 L 916 829.6 L 912.5 836.2 L 911.4 840.5 L 913 843.5 L 917 851.7 L 917.1 859 L 914.7 867.9 L 914.6 879.2 L 916.7 892.9 L 914.9 900.3 L 909.3 901.6 L 903.1 901.7 L 896.2 900.6 L 891.3 904.9 L 888.2 914.5 L 883 919.2 L 875.7 919.1 L 871.2 920.1 L 869.5 922.2 L 867 923.6 L 863.5 924.1 L 862.2 925.4 L 862.9 927.3 L 862.2 929.4 L 860.3 931.6 L 859.4 933.9 L 859.5 937.7" />
<path class="river" d="M 804.4 172 L 800.8 176.2 L 799.8 180.3 L 800.3 188.4 L 802.3 200.8 L 801.4 207.4 L 798.4 212.2 L 793.2 216.6 L 781.1 222.4 L 779 222.6 L 777.2 221.5 L 776 219.1 L 772.5 218.5 L 766.7 219.5 L 763.8 222.2 L 763.8 226.5 L 762 231.3 L 758.4 236.5 L 757.8 240.1 L 760.2 242.2 L 760.6 244.9 L 758.9 248.2 L 759.3 255.5 L 762.8 272.5 L 764 279.7 L 765.4 282.5 L 767.4 283.3 L 769 282.9 L 770.4 281.3 L 775.1 280.1 L 783.2 279.1 L 787.7 277.2 L 788.5 274.3 L 788.2 271.6 L 786.6 269.2 L 786.6 266.9 L 788.3 264.5 L 791.1 262.8 L 794.9 261.8 L 799.2 258.2 L 803.8 252.1 L 807.9 249.1 L 811.3 249.1 L 816.6 247.5 L 827.5 242.6 L 837.4 233 L 845.1 237.4 L 851.4 236.7 L 859 232.2 L 865.2 227.2 L 869.9 221.5 L 873.3 219.6 L 875.4 221.5 L 878.7 222.5 L 883 222.6 L 886.3 224.2 L 888.4 227.4 L 893.4 230.4 L 901.3 233.4 L 906.8 234.5 L 909.8 234 L 912.6 234.8 L 915.4 237.2 L 919.2 235.8 L 924 230.8 L 925.8 226.5 L 924.7 223 L 928.1 220.2 L 936.2 218.2 L 943 215.4 L 948.6 211.7 L 955.5 209 L 962.6 207.6 L 966.3 207.1" />
<path class="river" d="M 486.1 35.6 L 497.3 45 L 502.9 51.3 L 505 57.9 L 505.3 66.9 L 503.2 72.8 L 498.5 75.6 L 495.3 75.9 L 493.3 73.6 L 491.3 73 L 489.1 74.1 L 489.3 78.2 L 491.7 85.5 L 496.2 94.3 L 502.9 104.8 L 506.4 113.4 L 507 120 L 506 128 L 502.1 141.8 L 495.5 163.9 L 492.2 172.7 L 490 175.4 L 485.8 179.5 L 479.5 184.8 L 474.9 185.9 L 472 182.8 L 467.8 181.3 L 463.3 181.5 L 461.2 181.6" />
<path class="river" d="M 411.8 -72.8 L 416 -72.6 L 417.7 -70.6 L 418.3 -66.7 L 425.6 -62 L 439.7 -56.4 L 449 -50.6 L 453.6 -44.4 L 456.2 -39 L 456.8 -34.3 L 459 -29.3 L 462.7 -23.9 L 468.8 -19.2 L 477.3 -14.9 L 484.3 -7.3 L 489.8 3.5 L 495.8 11.7 L 505.4 20 L 506.7 27.4 L 507.9 30.4 L 509.7 31.4 L 511.2 36.8 L 512.4 46.5 L 515.7 53.7 L 521.1 58.2 L 523.6 63 L 523.3 68.1 L 525 73.2 L 530.8 80.8 L 533.6 93.7 L 534.7 108.8 L 535 130.4 L 534.4 146.1 L 532.9 156.1 L 532.9 169.2 L 534.3 185.7 L 534.3 199.2 L 532.9 209.9 L 533.7 219.6 L 536.7 228.4 L 539.6 234 L 542.2 236.4 L 542.5 240.9 L 540.5 247.3 L 541.5 252.2 L 545.4 255.7 L 543.7 259.4 L 536.5 263.3 L 528 266.5 L 518.3 269 L 512.3 271.3 L 510.2 273.6 L 509.5 276.3 L 510.4 279.6 L 513.6 284.3 L 519.1 290.6 L 521.2 296.1 L 520.1 301 L 521.1 304 L 524.1 305 L 525.7 307.2 L 525.8 310.6 L 522.1 313 L 514.5 314.5 L 512.4 317 L 515.7 320.5 L 516.4 322.7 L 514.7 323.6 L 514 325 L 514.5 326.9 L 516.7 328.8 L 520.7 330.7 L 520.7 333.2 L 516.9 336.4 L 516.6 342.1 L 519.9 350.1 L 520.5 356.8 L 518.5 361.9 L 518.5 366.5 L 520.5 370.4 L 523.3 373.8 L 526.8 376.4 L 525.5 380.2 L 519.5 385 L 517.8 391.2 L 520.4 398.6 L 520.7 403.2 L 518.6 405.1 L 518.9 407.6 L 521.7 410.9 L 523.5 415.4 L 524.3 421.1 L 526 425.7 L 528.4 429.4 L 525.8 432.4 L 514.2 436.1" />
<path class="river" d="M 1104.8 283.6 L 1105.6 287.2 L 1107.3 288.8 L 1110.2 289.4 L 1111.4 290.7 L 1110.9 292.6 L 1112 295.5 L 1115 299.4 L 1119.2 302 L 1124.7 303.3 L 1128.1 303.2 L 1129.4 301.9 L 1131.2 302.1 L 1134.9 304.6" />
<path class="river" d="M 514.2 436.1 L 513.9 442.7 L 515.8 448.9 L 519.8 457 L 522.4 464.9 L 523.4 472.5 L 516.6 479.1 L 494.6 487.6 L 484 489.2 L 479.8 490.9 L 478.5 493.3 L 476.8 494.7 L 474.7 495.1 L 470.7 502.2 L 461.9 523 L 457.9 548.6 L 457 549.7 L 455.2 549.9 L 452.4 549.1 L 451.2 552.5 L 451.7 560.3 L 453.8 567.8 L 457.6 575 L 461.5 578.4 L 465.5 578 L 467.3 578.7 L 466.8 580.4 L 468.3 585 L 472 592.3 L 473.1 597.7 L 470.9 603.2 L 473.9 617.2 L 473.6 624.1 L 470.9 628.4 L 468.7 634.4 L 467 642.1 L 466 650.7 L 465.9 660.1 L 466.8 666.5 L 469.3 671.9" />
<path class="river" d="M 1134.9 304.5 L 1140.9 297.1 L 1148 296.5 L 1163.4 302.2 L 1170 301.3 L 1173.7 302.4 L 1176.6 305.1 L 1183.5 304.9 L 1199.8 300.6" />
<path class="river" d="M 996.4 147.5 L 996.2 152.8 L 997.1 155.3 L 999.2 156.8 L 1002 156.6 L 1007.3 153.9 L 1011.1 146.4 L 1012.2 142.4 L 1011.8 139.5 L 1013.6 137.2 L 1017.5 135.3 L 1020.7 132.5 L 1023.2 128.7 L 1026.8 125.2 L 1031.4 122 L 1036.4 120.6 L 1041.6 120.8 L 1044.1 121.8 L 1044.1 123.5 L 1047.2 126.7 L 1053.4 131.5 L 1057.5 132.4 L 1059.5 129.6 L 1061.4 128.2 L 1063 128.3 L 1063.8 129.1 L 1063.6 130.8 L 1065.5 132.6 L 1069.5 134.7 L 1074.4 134.8 L 1080.4 133 L 1086.9 129.2 L 1097.4 120.6 L 1100 117.7 L 1100.3 114.4 L 1099.2 109.9 L 1100.1 107.7 L 1103 107.7 L 1106.3 106.2 L 1110.2 103.1 L 1112.3 102.5 L 1112.7 104.3 L 1113.6 105.1 L 1115 104.9 L 1116.2 103.8 L 1117 101.8 L 1120.6 101.8 L 1127 104.1 L 1132.8 101.8 L 1141.7 89.3 L 1144.2 85 L 1145.3 81.6 L 1144.9 79.2 L 1146.1 76.9 L 1148.9 74.7 L 1149.8 72.9 L 1148.7 71.3 L 1148.8 69.6 L 1150 67.6 L 1148.7 65.7 L 1144.8 63.9 L 1143.5 62.3 L 1144.8 60.8 L 1143.6 59.4 L 1139.8 58.1 L 1137.4 56.4 L 1136.2 54.3 L 1137 51.5 L 1139.7 48 L 1140.5 45.4 L 1139.5 43.6 L 1139.8 42.9 L 1141.7 43 L 1144.7 41.2 L 1148.9 37.3 L 1152.6 32.3 L 1155.7 26.1 L 1164 21.4 L 1177.6 18.1 L 1185.8 15.3 L 1188.7 13.1 L 1191.7 13.5 L 1194.8 16.5 L 1198.6 17.5 L 1205.4 16 L 1211.7 5.5 L 1213.7 4.5 L 1215.5 5.3 L 1217.3 5 L 1218.8 4.1 L 1220.1 4.1 L 1221.5 5.2 L 1223.6 5.4 L 1226.4 4.3 L 1230 4.2 L 1236.9 5.6 M 1285.8 3.1 L 1290.5 -3.1 M 1294.6 -16 L 1297.7 -20" />
<path class="river" d="M 940.6 1007 L 936.4 1005.3 L 923.1 1006.6 M 923.1 1006.6 L 912 1007.8 M 923.1 1006.6 L 925.6 1009.4 L 927.6 1009.9 L 931.4 1009 L 933.4 1009.7 L 935 1011.7 L 937.6 1016.7 L 940.8 1020.3 L 943.5 1022.2 L 946.8 1024.1 L 951 1025.7" />
<g class="city"><circle cx="621.7827717354194" cy="821.9209575120734" r="5" /><text x="633.7827717354194" y="825.9209575120734">Bangkok</text></g>
<g class="city"><circle cx="953.4141383945447" cy="982.1459523918811" r="5" /><text x="965.4141383945447" y="986.1459523918811">Ho Chi Minh City</text></g>
<g class="city"><circle cx="907.5989816467604" cy="431.6060918987724" r="5" /><text x="919.5989816467604" y="435.6060918987724">Hanoi</text></g>
<g class="city"><circle cx="954.2237788487004" cy="134.3565776471629" r="5" /><text x="966.2237788487004" y="138.3565776471629">Guiyang</text></g>
<g class="city"><circle cx="738.7562569448792" cy="216.83883288973882" r="5" /><text x="750.7562569448792" y="220.83883288973882">Kunming</text></g>
<g class="city"><circle cx="1039.9683899482525" cy="335.85860556951116" r="5" /><text x="1051.9683899482525" y="339.85860556951116">Nanning</text></g>
<g class="city"><circle cx="952.0830654795113" cy="442.5021010845954" r="5" /><text x="964.0830654795113" y="446.5021010845954">Haiphong</text></g>
<g class="city"><circle cx="1150.362930180614" cy="422.6749131081816" r="5" /><text x="1162.362930180614" y="426.6749131081816">Zhanjiang</text></g>
<text class="map-title" x="80" y="105">Laos Physical Study Map</text>
<text class="map-subtitle" x="80" y="145">Landmark: Pha That Luang | Study terrain and water systems</text>
  <text class="footer" x="80" y="1036">Made with Natural Earth. Free vector and raster map data @ naturalearthdata.com.</text>
</svg>
