<?xml version="1.0" encoding="UTF-8"?>
<svg xmlns="http://www.w3.org/2000/svg" width="1600" height="1100" viewBox="0 0 1600 1100" role="img" aria-labelledby="title desc">
  <title id="title">Lebanon Political Study Map</title>
  <desc id="desc">Made with Natural Earth. Free vector and raster map data @ naturalearthdata.com.</desc>
  <defs>
    <linearGradient id="terrain" x1="0" x2="1" y1="0" y2="1">
      <stop offset="0%" stop-color="#6c8c53" />
      <stop offset="42%" stop-color="#d5c487" />
      <stop offset="72%" stop-color="#b88b5f" />
      <stop offset="100%" stop-color="#f1f5ee" />
    </linearGradient>
    <filter id="softShadow" x="-10%" y="-10%" width="120%" height="120%">
      <feDropShadow dx="0" dy="10" stdDeviation="12" flood-color="#0f172a" flood-opacity="0.16" />
    </filter>
    <style>
      .neighbor { fill: #ffffff; stroke: #94a3b8; stroke-width: 1.2; opacity: 0.72; }
      .country { fill: #f7f1df; stroke: #1f2937; stroke-width: 4; filter: url(#softShadow); }
      .admin1 { fill: none; stroke: #64748b; stroke-width: 1.1; stroke-dasharray: 6 7; opacity: 0.75; }
      .river { fill: none; stroke: #1d9bd1; stroke-width: 3; stroke-linecap: round; opacity: 0.88; }
      .lake { fill: #8ed1ea; stroke: #0ea5e9; stroke-width: 1.5; opacity: 0.8; }
      .city circle { fill: #ef4444; stroke: #ffffff; stroke-width: 2; }
      .city text, .terrain-label { fill: #172033; font: 700 24px system-ui, sans-serif; paint-order: stroke; stroke: #ffffff; stroke-width: 5; stroke-linejoin: round; }
      .map-title { fill: #0f172a; font: 800 46px system-ui, sans-serif; }
      .map-subtitle { fill: #475569; font: 600 24px system-ui, sans-serif; }
      .footer { fill: #64748b; font: 500 18px system-ui, sans-serif; }
    </style>
  </defs>
  <rect width="100%" height="100%" fill="#eaf3f8" />
  <rect x="40" y="40" width="1520" height="1020" rx="32" fill="#ffffff" opacity="0.54" />
  <path class="neighbor" d="M 768.8 827.1 L 732.4 893 L 656.8 864 L 613 1003.3 L 665.6 1026.7 L 612.2 1055.5 L 603.1 1110.6 L 701.4 1082.2 L 706.3 1163.5 L 602.1 1497.8 L 581.4 1443.5 L 464.7 1138.6 L 464.7 1138.6 L 464.7 1138.6 L 525.6 1069.7 L 511.3 1057.8 L 566.6 960.1 L 609 802.4 L 638.9 749.4 L 644.7 747.3 L 714.7 747.7 L 733.9 711 L 790 708.3 L 793.2 793.9 L 764.9 825.7 L 768.8 827.1 Z" />
<path class="neighbor" d="M 701.4 1082.2 L 603.1 1110.6 L 612.2 1055.5 L 665.6 1026.7 L 613 1003.3 L 656.8 864 L 732.4 893 L 732.3 1020.8 L 701.4 1082.2 Z" />
<path class="neighbor" d="M 732.4 893 L 768.8 827.1 L 1001.8 909.9 L 1411.3 687.1 L 1495.6 941.7 L 1455.7 973.2 L 1037 1078.2 L 1245.4 1287.2 L 1176.2 1322.7 L 1141.8 1392.8 L 982.2 1421.7 L 932.2 1497 L 841.8 1561.3 L 609.1 1528.1 L 602.1 1497.8 L 706.3 1163.5 L 701.4 1082.2 L 732.3 1020.8 L 732.4 893 Z" />
<path class="neighbor" d="M 768.8 827.1 L 764.9 825.7 L 793.2 793.9 L 790 708.3 L 841.3 593.8 L 955.3 515 L 921.1 433 L 827.1 422.3 L 807.6 262.4 L 858.7 176.3 L 914.7 130.5 L 970.7 84.7 L 982 -31.9 L 1050.5 8.7 L 1280.7 -49.4 L 1391.9 -10.1 L 1564 -10.7 L 1804.5 -89.2 L 1917.2 -85.6 L 2155.1 -118.2 L 2047.9 12.3 L 1933.4 64 L 1953.1 216.7 L 1874.2 469.5 L 1411.3 687.1 L 1001.8 909.9 L 768.8 827.1 Z" />
<path class="neighbor" d="M 2661.7 -105.7 L 2561.5 -70.4 L 2488.1 -123.7 L 2244.9 -150.6 L 2155.1 -118.2 L 1917.2 -85.6 L 1804.5 -89.2 L 1564 -10.7 L 1391.9 -10.1 L 1280.7 -49.4 L 1050.5 8.7 L 982 -31.9 L 970.7 84.7 L 914.7 130.5 L 858.7 176.3 L 781.8 81.5 L 861 3 L 733.5 20.8 L 558.6 -27.3 L 414.9 93 L 97.5 116.5 L -71.8 4.3 L -297.2 -2.7 L -345.4 84 L -489.9 108.8 L -692.1 -2.5 L -920.3 1.3 L -1044.2 -206.7 L -1197 -322.7 L -1095.2 -485.3 L -1227.8 -585.2 L -995.9 -785.2 L -673.9 -793.5 L -586 -952.4 L -187.5 -924.8 L 63.8 -1060.4 L 307.5 -1119.5 L 653.4 -1124 L 1018.3 -976.6 L 1318.3 -895.7 L 1561.9 -927.9 L 1741.9 -909.3 L 1988.7 -1018.5 L 2211.5 -1028.4 L 2412.9 -925.7 L 2448.4 -852.1 L 2428.3 -750.4 L 2583.8 -698.4 L 2666.2 -637.4 L 2523 -577.8 L 2588.3 -338 L 2547.3 -273.2 L 2661.7 -105.7 L 2661.7 -105.7 Z M -1239 -1079.3 L -1026 -1145.1 L -846 -1117.1 L -821.2 -1036.7 L -638.6 -969.2 L -676.7 -917.9 L -925 -906.4 L -1014.2 -841.8 L -1188.6 -729.1 L -1254.4 -826.5 L -1251.6 -869.7 L -1201.9 -893.1 L -1137.2 -1024 L -1239 -1079.3 Z" />
<path class="neighbor" d="M 609.1 1528.1 L 841.8 1561.3 L 932.2 1497 L 982.2 1421.7 L 1141.8 1392.8 L 1176.2 1322.7 L 1245.4 1287.2 L 1037 1078.2 L 1455.7 973.2 L 1495.6 941.7 L 1747.4 998.4 L 2059 1144.7 L 2648.5 1565.2 L 3037.2 1581.9 L 3223.6 1602.1 L 3275.6 1701.7 L 3423.5 1696.3 L 3505.4 1876.6 L 3608.2 1924.4 L 3644.1 1997.8 L 3786.6 2085.7 L 3799.2 2172 L 3778.4 2241.6 L 3804.8 2311.9 L 3865 2370.5 L 3892.8 2439 L 3924.1 2490.3 L 3987.3 2531.8 L 4045.2 2516.9 L 4084.9 2596.8 L 4092.9 2645.1 L 4173 2856.9 L 4801.6 2962.4 L 4843.7 2918.2 L 4939.5 3066.3 L 4800.1 3484.5 L 4172.9 3693.5 L 3570 3773.7 L 3374.8 3867.8 L 3225 4087.3 L 3127.4 4122.2 L 3075.1 4052.5 L 2995 4062.9 L 2792.9 4042 L 2754.5 4021.1 L 2513.2 4025.9 L 2456.5 4044.8 L 2370.7 3990.5 L 2315.3 4093.2 L 2336.7 4181.4 L 2244.9 4248.1 L 2217.8 4158.9 L 2154.7 4095.9 L 2138.6 4012.5 L 2030.6 3937.5 L 1919.2 3762.2 L 1860.2 3591.8 L 1715.6 3447.9 L 1622.3 3413.6 L 1483.8 3214.3 L 1459.6 3069 L 1468.6 2945.1 L 1348.6 2713.2 L 1250.6 2631.6 L 1137.6 2588.4 L 1068.9 2468.6 L 1080.3 2421.3 L 1022.2 2312.9 L 961.1 2266.2 L 879.5 2110.7 L 752.2 1942.1 L 645.5 1798.5 L 541.4 1799.5 L 573.9 1684.7 L 583.2 1611.5 L 609.1 1528.1 Z" />
<path class="neighbor" d="M 144.1 318.8 L 158.8 317.7 L 189 267.2 L 339.6 270.1 L 529.8 207.7 L 388.5 296.7 L 403.7 335.9 L 381.3 328.5 L 341.4 344.4 L 310.1 340 L 299.6 348 L 295.5 326.9 L 280.4 314.1 L 240.1 311.9 L 183.3 329.7 L 144.1 318.8 Z" />
<path class="neighbor" d="M 144.1 318.8 L 183.3 329.7 L 240.1 311.9 L 280.4 314.1 L 295.5 326.9 L 299.6 348 L 310.1 340 L 341.4 344.4 L 381.3 328.5 L 403.7 335.9 L 410.3 352.7 L 195.9 437.6 L 93.6 410.5 L 44.7 326.5 L 144.1 318.8 Z" />

<path class="country" d="M 790 708.3 L 733.9 711 L 714.7 747.7 L 644.7 747.3 L 719.1 577 L 823.1 429.6 L 827.1 422.3 L 921.1 433 L 955.3 515 L 841.3 593.8 L 790 708.3 Z" />


<g class="city"><circle cx="569.8253045454544" cy="958.2356363636349" r="5" /><text x="581.8253045454544" y="962.2356363636349">Tel Aviv</text></g>
<g class="city"><circle cx="889.7310500000007" cy="661.3175545454534" r="5" /><text x="901.7310500000007" y="665.3175545454534">Damascus</text></g>
<g class="city"><circle cx="724.4890136363637" cy="583.5480727272718" r="5" /><text x="736.4890136363637" y="587.5480727272718">Beirut</text></g>
<g class="city"><circle cx="813.0582499999998" cy="985.4103454545445" r="5" /><text x="825.0582499999998" y="989.4103454545445">Amman</text></g>
<g class="city"><circle cx="661.5242136363638" cy="1021.7007909090902" r="5" /><text x="673.5242136363638" y="1025.7007909090903">Jerusalem</text></g>
<g class="city"><circle cx="661.4370227272732" cy="995.6612363636357" r="5" /><text x="673.4370227272732" y="999.6612363636357">Ramallah</text></g>
<text class="map-title" x="80" y="105">Lebanon Political Study Map</text>
<text class="map-subtitle" x="80" y="145">Capital: Beirut | Continent: Asia</text>
  <text class="footer" x="80" y="1036">Made with Natural Earth. Free vector and raster map data @ naturalearthdata.com.</text>
</svg>
