<?xml version="1.0" encoding="UTF-8"?>
<svg xmlns="http://www.w3.org/2000/svg" width="1600" height="1100" viewBox="0 0 1600 1100" role="img" aria-labelledby="title desc">
  <title id="title">Liberia Physical Study Map</title>
  <desc id="desc">Made with Natural Earth. Free vector and raster map data @ naturalearthdata.com.</desc>
  <defs>
    <linearGradient id="terrain" x1="0" x2="1" y1="0" y2="1">
      <stop offset="0%" stop-color="#6c8c53" />
      <stop offset="42%" stop-color="#d5c487" />
      <stop offset="72%" stop-color="#b88b5f" />
      <stop offset="100%" stop-color="#f1f5ee" />
    </linearGradient>
    <filter id="softShadow" x="-10%" y="-10%" width="120%" height="120%">
      <feDropShadow dx="0" dy="10" stdDeviation="12" flood-color="#0f172a" flood-opacity="0.16" />
    </filter>
    <style>
      .neighbor { fill: #ffffff; stroke: #94a3b8; stroke-width: 1.2; opacity: 0.72; }
      .country { fill: url(#terrain); stroke: #1f2937; stroke-width: 4; filter: url(#softShadow); }
      .admin1 { fill: none; stroke: #64748b; stroke-width: 1.1; stroke-dasharray: 6 7; opacity: 0.75; }
      .river { fill: none; stroke: #1d9bd1; stroke-width: 3; stroke-linecap: round; opacity: 0.88; }
      .lake { fill: #8ed1ea; stroke: #0ea5e9; stroke-width: 1.5; opacity: 0.8; }
      .city circle { fill: #ef4444; stroke: #ffffff; stroke-width: 2; }
      .city text, .terrain-label { fill: #172033; font: 700 24px system-ui, sans-serif; paint-order: stroke; stroke: #ffffff; stroke-width: 5; stroke-linejoin: round; }
      .map-title { fill: #0f172a; font: 800 46px system-ui, sans-serif; }
      .map-subtitle { fill: #475569; font: 600 24px system-ui, sans-serif; }
      .footer { fill: #64748b; font: 500 18px system-ui, sans-serif; }
    </style>
  </defs>
  <rect width="100%" height="100%" fill="#d8edf0" />
  <rect x="40" y="40" width="1520" height="1020" rx="32" fill="#ffffff" opacity="0.54" />
  <path class="neighbor" d="M -3834.7 836.9 L -3899.7 937.5 L -3933.4 1018.4 L -3975.6 1060.2 L -4028.2 1068 L -4043.2 1037.1 L -4067.8 1032.5 L -4101.8 1062.3 L -4149.8 1039.6 L -4121.8 993.4 L -4112.1 943.2 L -4092.9 895.9 L -4136 830.7 L -4144.7 755.5 L -4087.5 661 L -4050.2 673.1 L -3969.2 699.1 L -3852.9 791.9 L -3834.7 836.9 Z M 2522.9 -4142.8 L 2574.7 -4114 L 2733.1 -4093.7 L 2677.6 -4018.5 L 2663.6 -3940.2 L 2633.4 -3921.4 L 2583.4 -3931.5 L 2586.9 -3903.6 L 2506.5 -3841.8 L 2504.9 -3792.1 L 2557.4 -3809.3 L 2595.1 -3761.1 L 2590.6 -3730 L 2622.9 -3688.8 L 2584.8 -3655.3 L 2613.1 -3570.2 L 2672.7 -3556.3 L 2660.1 -3508.6 L 2560.6 -3446.5 L 2343.8 -3476.3 L 2183.7 -3440.6 L 2171.1 -3374.4 L 2043.7 -3360.2 L 1920.1 -3409.9 L 1880.1 -3386.1 L 1677.8 -3436.1 L 1634 -3478.8 L 1690.8 -3544.7 L 1711.7 -3763.7 L 1598.3 -3879 L 1517.3 -3934.6 L 1349.3 -3976.9 L 1338.2 -4057.1 L 1480.7 -4081 L 1665.3 -4052.7 L 1630.4 -4177.1 L 1734.2 -4130 L 1990.1 -4215.7 L 2023.1 -4305.7 L 2119.2 -4327.9 L 2135.1 -4289.3 L 2186.2 -4287.5 L 2237.3 -4243.3 L 2314 -4191.5 L 2370.4 -4200.1 L 2466.6 -4150 L 2491.2 -4140.4 L 2522.9 -4142.8 Z M 2804.2 -3391.5 L 2875 -3433.4 L 2893.7 -3339.2 L 2857.4 -3254.3 L 2807.5 -3276.7 L 2782 -3350.6 L 2804.2 -3391.5 Z" />
<path class="neighbor" d="M 577.5 -73.9 L 582.5 -108.1 L 573.1 -150.6 L 532 -181.5 L 510.3 -244.4 L 505.3 -312.8 L 542.3 -332.8 L 560.7 -397.6 L 595.6 -400.1 L 672.3 -369.5 L 734.3 -391.2 L 776.8 -383.9 L 793.3 -408.4 L 1234.3 -410 L 1258.8 -487 L 1239.7 -500.5 L 1186.7 -974.9 L 1133.6 -1449.2 L 1301.8 -1451.2 L 1672.6 -1211.4 L 2043.3 -971.6 L 2069.5 -920.1 L 2137.9 -888.6 L 2188.8 -870.8 L 2190.1 -800.8 L 2312 -811.6 L 2312.3 -558.5 L 2252.2 -485.1 L 2242.8 -417.3 L 2145.2 -399.9 L 1995.2 -390.5 L 1954.6 -351.4 L 1884.2 -347.1 L 1813.7 -346.6 L 1786.3 -367.7 L 1725.7 -352 L 1623 -306.4 L 1602 -272.1 L 1516.8 -222.8 L 1501.8 -194.6 L 1455.8 -172.2 L 1402.6 -187 L 1372.5 -160.2 L 1356.4 -84.8 L 1269.1 6.3 L 1271.7 43.5 L 1241.7 90.1 L 1249 153.9 L 1203.6 170.2 L 1178 184.1 L 1160.9 137.1 L 1129.2 149.4 L 1110.2 147.3 L 1090 179.4 L 1005.1 178.5 L 974.7 162 L 960.4 171.9 L 926.8 140.3 L 932.6 107.5 L 918.9 94.7 L 895.5 105.5 L 899.8 69.8 L 922.3 41.5 L 877.3 -4.6 L 864.2 -34.9 L 839.8 -59 L 817.8 -61.9 L 791.4 -46.5 L 755.8 -31.8 L 725.7 -8 L 678.7 -16.8 L 648.2 -44.7 L 629.9 -48.4 L 601.2 -33.7 L 583.8 -33.6 L 577.5 -73.9 Z" />
<path class="neighbor" d="M 960.4 171.9 L 974.7 162 L 1005.1 178.5 L 1090 179.4 L 1110.2 147.3 L 1129.2 149.4 L 1160.9 137.1 L 1178 184.1 L 1203.6 170.2 L 1249 153.9 L 1298.4 177.9 L 1317.6 214.2 L 1367 237.4 L 1405.5 209.8 L 1457 205.6 L 1532.2 233.9 L 1561.3 390.3 L 1515 482.6 L 1486.4 606.8 L 1534 701.4 L 1529 744.8 L 1479 745.9 L 1402.3 724.4 L 1331.9 725.7 L 1201.7 744.9 L 1125.4 776.6 L 1016.6 816.9 L 995.3 814 L 1003.8 723.5 L 1014.3 709.8 L 1010.9 666.4 L 964.4 620.4 L 929.5 613.1 L 897.4 582.9 L 921.3 534.1 L 910.3 480.9 L 915.4 449 L 932.8 448.8 L 939.3 400.9 L 930.8 379.7 L 941.3 364.4 L 982.1 351.2 L 955 263.2 L 929.7 217.8 L 938.5 180.5 L 960.4 171.9 Z" />
<path class="neighbor" d="M 337.2 -89.6 L 390.2 -88.5 L 469.2 -61.7 L 493.4 -64.1 L 501.7 -76.3 L 561.6 -67.7 L 577.5 -73.9 L 583.8 -33.6 L 601.2 -33.7 L 629.9 -48.4 L 648.2 -44.7 L 678.7 -16.8 L 725.7 -8 L 755.8 -31.8 L 791.4 -46.5 L 817.8 -61.9 L 839.8 -59 L 864.2 -34.9 L 877.3 -4.6 L 922.3 41.5 L 899.8 69.8 L 895.5 105.5 L 918.9 94.7 L 932.6 107.5 L 926.8 140.3 L 960.4 171.9 L 938.5 180.5 L 929.7 217.8 L 955 263.2 L 982.1 351.2 L 941.3 364.4 L 930.8 379.7 L 939.3 400.9 L 932.8 448.8 L 915.4 449 L 884.3 446.2 L 861.9 490.4 L 830.8 489.9 L 809.4 466.5 L 816.7 422.3 L 770.8 355 L 742 367.4 L 718.6 369.8 L 688.3 376.1 L 689.5 335.8 L 671.9 307.1 L 675.5 275.1 L 651.6 228.9 L 621 189.6 L 533.1 189.5 L 507.5 210.2 L 477.2 212.7 L 458.5 236.4 L 445.8 266.9 L 387 315.2 L 338.8 250.2 L 296.1 207.2 L 268 192.9 L 240.5 171.1 L 228 122.5 L 212 98.3 L 180 80.3 L 228.9 26.7 L 262.2 28.8 L 290.9 10.3 L 315.1 10.1 L 332.5 -4.4 L 323.1 -40.8 L 335.1 -52.3 L 337.2 -89.6 Z" />
<path class="neighbor" d="M 387 315.2 L 445.8 266.9 L 458.5 236.4 L 477.2 212.7 L 507.5 210.2 L 533.1 189.5 L 621 189.6 L 651.6 228.9 L 675.5 275.1 L 671.9 307.1 L 689.5 335.8 L 688.3 376.1 L 718.6 369.8 L 667.4 421.1 L 617.8 480.8 L 612 512.7 L 585.7 547.9 L 556.1 539.8 L 477 495.5 L 419.7 436.6 L 400.5 396.4 L 387 315.2 Z" />

<path class="country" d="M 915.4 449 L 910.3 480.9 L 921.3 534.1 L 897.4 582.9 L 929.5 613.1 L 964.4 620.4 L 1010.9 666.4 L 1014.3 709.8 L 1003.8 723.5 L 995.3 814 L 966.5 815 L 853.2 762.6 L 753.4 679 L 659.7 618.8 L 585.7 547.9 L 612 512.7 L 617.8 480.8 L 667.4 421.1 L 718.6 369.8 L 742 367.4 L 770.8 355 L 816.7 422.3 L 809.4 466.5 L 830.8 489.9 L 861.9 490.4 L 884.3 446.2 L 915.4 449 Z" />

<path class="river" d="M 1068.8 519.8 L 1067.3 534.2 L 1069.3 543.7 L 1074.3 553 L 1074.8 569.9 L 1070.8 594.1 L 1072.7 605.3" />
<path class="river" d="M 514.3 129.8 L 523.4 136.5 L 531.7 137.3 L 542.2 134.3 L 548.8 126.6 L 551.3 114.3 L 553.9 107.6 L 558 105.7 L 565.7 105.4 L 567.7 99.7 L 566.8 88.6 L 570.2 76.7 L 578 64.1 L 585.2 57.1 L 591.7 55.8 L 600.7 49.9 L 612.2 39.4 L 619.9 30 L 623.8 21.7 L 627.5 18.8 L 630.8 21.5 L 637.8 21.7 L 648.3 19.3 L 662.1 4 L 679.1 -24.1 L 692.7 -40.4 L 702.9 -44.9 L 706.4 -50.5 L 703.2 -57.3 L 705.9 -68.6 L 714.5 -84.5 L 717.7 -95.1 L 715.3 -100.3 L 716.1 -104.8 L 720.2 -108.6 L 719.4 -112.7 L 713.8 -117.3 L 711.6 -122.2 L 712.8 -127.6 L 711.8 -130.4 L 708.4 -130.7 L 705.2 -137.4 L 702.2 -150.3 L 696.6 -158.4 L 688.4 -161.6 L 676.9 -163.2 L 662.3 -163.1 L 655.5 -167.8 L 656.4 -177.1 L 659 -182 L 662.8 -183.2 L 663.1 -185 L 661.1 -190.3 L 652.3 -205.4 L 648.5 -215.9 L 647.9 -217.7 L 645.8 -220.6" />
<path class="river" d="M 2531.6 745.1 L 2527 753.1 L 2516.8 761.3 L 2510.9 776.1 L 2508.5 808 L 2510.8 822.2 M 2531.6 745.1 L 2532.2 806.6 M 2552.4 704.3 L 2543.5 706.2 L 2535.6 709.5 L 2528.8 714.1 L 2525.4 718.3 L 2525.5 722.1 L 2521.1 726.2 L 2512.3 730.5 L 2501.5 729.9 L 2488.8 724.2 L 2473.6 723.2 L 2444.8 727.3 M 2552.4 704.3 L 2545.7 711.1 L 2540.7 716 L 2538.7 719.9 L 2539.1 722.7 L 2541.7 724.4 L 2541.3 727.4 L 2537.7 731.7 L 2534.5 733.8 L 2531.6 733.7 L 2530.7 737.5 L 2531.6 745.1 M 2563.6 684.6 L 2569 701.8 L 2567 711.1 L 2559.8 718.3 L 2554.5 727 L 2551.1 737.1 L 2553 743.9 L 2560.3 747.5 L 2565.3 754.3 L 2568.2 764.5 L 2573.1 774 L 2580.3 787.3 L 2581 799.1 L 2580.4 804.5 L 2580.4 807.4 L 2581 816.5 M 663.4 294.7 L 670.8 287.7 L 675.5 278.7 L 680.1 265.5 L 679.7 254.8 L 671.8 242.4 L 673.3 222.1 L 668.6 204 L 658.3 181.3 L 654.2 167.4 L 656.4 162.3 L 661.8 159.3 L 670.5 158.2 L 674.2 155.2 L 673.1 150.3 L 676.4 147.9 L 684.4 147.9 L 691 145 L 696.3 139.3 L 704 137.1 L 714.1 138.2 L 719.9 140.7 L 722 142.2 L 724.7 142.8 L 727.2 141.6 L 738 132.1 L 747.2 127.8 L 754.7 128.5 L 758.6 126 L 760.5 124 L 765.7 121.8 L 781.4 120.1 L 794.9 108.9 L 806.2 88.1 L 816 77.6 L 824.3 77.3 L 831.9 74.1 L 838.8 67.8 L 841 58.4 L 838.3 46 L 844 38.7 L 858 36.6 L 870.1 29.2 L 880.2 16.6 L 892.1 5.7 L 905.7 -3.3 L 916.1 -14.7 L 923.3 -28.6 L 932.7 -41 L 944.5 -51.9 L 952.9 -66.4 L 958 -84.5 L 967.6 -94 L 981.6 -95.1 L 1000.3 -107.2 L 1023.8 -130.5 L 1042.9 -146.5 L 1065.1 -159.6 L 1079.2 -170.8 L 1096.9 -174.8 L 1122.9 -175.5 L 1143.1 -180 L 1157.4 -188.3 L 1167.4 -197.9 L 1173.2 -209 L 1181.2 -213.1 L 1194.2 -214.1 L 1207.1 -217 L 1228 -232.6 L 1245.6 -240.8 L 1259.9 -241.6 L 1269.9 -245.9 L 1275.4 -253.6 L 1293.8 -262 L 1325 -271 L 1343 -274.3 L 1349.8 -275.1 L 1357.8 -279.4 L 1381.3 -305.5 L 1390.5 -329.8 L 1398.7 -342.2 L 1409 -350.9 L 1412 -362.9 L 1405.6 -385.8 L 1408.4 -386.8 L 1412.8 -388.6 L 1419.6 -393.8 L 1423.1 -398.3 L 1423.3 -402.3 L 1419.4 -405 L 1411.3 -406.3 L 1411.8 -410.2 L 1425.8 -421.2 L 1426.8 -423 L 1418.6 -425.5 L 1419.9 -427.4 L 1424 -428.9 L 1431 -430 L 1434.8 -435.3 L 1435.4 -444.8 L 1438.3 -450.8 L 1443.5 -453.2 L 1447.6 -458.1 L 1450.5 -465.4 L 1457.9 -469.9 M 2351.4 209.5 L 2353.4 221.6 L 2351.9 231 L 2347.7 241.8 L 2347 252.6 L 2349.9 263.5 L 2354.5 270.2 L 2361 273 L 2365 277.8 L 2366.5 284.7 L 2373.8 286.9 L 2386.7 284.3 L 2398.7 288.1 L 2409.9 298.5 L 2424.5 305.8 L 2442.6 310.1 L 2458.9 317.5 L 2480.7 332.9 L 2504.6 331.5 L 2519.8 332.9 L 2534.4 336.4 L 2544.7 345.4 L 2550.6 359.8 L 2559.7 373 L 2571.9 385 L 2581.1 398.6 L 2587.1 413.8 L 2587.7 437.2 L 2580.4 484.6 L 2575.4 527.3 L 2574.9 552.6 L 2578.3 585.9 L 2583.8 612.1 L 2580.1 636.8 L 2563.5 684.7 L 2556.8 693.2 L 2555.1 697.8 L 2556.3 701.5 L 2552.4 704.3 M 1369.9 -410.6 L 1366.1 -423.1 L 1368.5 -430 L 1375.7 -435.3 L 1380.5 -442 L 1383 -450 L 1388.2 -452.9 L 1396.1 -450.8 L 1407.6 -456.5 L 1422.6 -469.9 L 1437.5 -477.2 L 1452.1 -478.3 L 1461.8 -482.5 M 1457.9 -469.9 L 1461.8 -482.5 M 1461.8 -482.5 L 1466.6 -489.7 L 1471.6 -493.5 L 1476.6 -494.1 L 1479.1 -496.9 L 1479.1 -501.8 L 1484.3 -507.2 L 1488.8 -509.6 M 1488.8 -509.6 L 1492.5 -497.8 L 1492.6 -492.6 L 1490.6 -489.6 L 1487.5 -487.6 L 1483.5 -486.6 L 1480 -482.8 L 1477.1 -475.9 L 1469.7 -471.7 L 1457.9 -469.9 M 1488.8 -509.6 L 1494.8 -512.9 L 1501.5 -521 L 1504.4 -531.4 L 1510.2 -536.3 L 1518.9 -535.5 L 1541.5 -540.6 L 1577.9 -551.8 L 1601.4 -556.8 L 1612 -555.6 L 1618.4 -556.6 L 1620.6 -559.8 L 1634.5 -565.4 L 1660.1 -573.4 L 1683.8 -578.6 L 1705.5 -581 L 1720.1 -580 L 1727.4 -575.7 L 1736.9 -574.2 L 1748.8 -575.6 L 1758.3 -573.9 L 1765.4 -569.2 L 1776.9 -567.9 L 1792.8 -569.8 L 1804.9 -560.7 L 1813.4 -540.7 L 1820.7 -528.3 L 1826.7 -523.4 L 1833.1 -511.6 L 1843.3 -483.5 L 1858.7 -462.9 L 1871.5 -450.7 L 1886.6 -440.1 L 1894.7 -429.5 L 1895.8 -419.2 L 1903.2 -411 L 1916.8 -405 L 1924.2 -399.9 L 1925.2 -395.7 L 1922.9 -386 L 1917.1 -370.7 L 1915.2 -359.9 L 1917.1 -353.5 L 1922.3 -349.1 L 1930.7 -346.8 L 1936.9 -339.6 L 1940.9 -327.5 L 1949 -314.3 L 1961.2 -299.7 L 1975.7 -286.9 L 1992.7 -275.7 L 2003.8 -261 L 2009.1 -242.8 L 2016.7 -228.2 L 2026.6 -217.1 L 2042.1 -206.6 L 2063.2 -196.4 L 2076.5 -187.4 L 2081.9 -179.3 L 2088.7 -172.8 L 2096.8 -167.9 L 2101.7 -154.4 L 2103.5 -132.4 L 2108.4 -115.1 L 2116.6 -102.5 L 2120 -94.1 L 2118.6 -90 L 2119.4 -85.8 L 2122.1 -83.3 L 2125.5 -83.4 L 2128.3 -85.8 L 2130.4 -85.8 L 2131.6 -83.5 L 2134.5 -82.6 L 2138.8 -83.4 L 2141.7 -82.2 L 2143.7 -76.6 L 2147.2 -72.7 L 2152.3 -71.3 L 2155.5 -69.1 L 2189.1 -38.1 L 2202.1 -24.3 L 2205.5 -17.2 L 2212.2 -12 L 2222.1 -8.9 L 2231.1 -1.8 L 2238.1 8.2 L 2249 16.6 L 2266.2 22.1 L 2285 31.5 L 2297.2 41.8 L 2309 56 L 2323 66.1 L 2339 72 L 2350.7 79.8 L 2358.2 89.4 L 2360.1 102.7 L 2354.7 127.9" />
<path class="river" d="M 1072.7 605.3 L 1078.7 613.9 L 1098.2 628.4 L 1106.4 637.2 L 1103.2 640.3 L 1102.9 645 L 1105.7 651.3 L 1109.2 655.2 L 1113.5 656.6 L 1118.4 663.3 L 1123.9 675.1 L 1130.6 685 L 1142.5 696.9 L 1153.4 709.1 L 1158 719.4 L 1159.8 732 L 1164.7 740.9 L 1176.7 749.4 M 1047.6 310.6 L 1051.5 323.5 L 1051.7 332.4 L 1049.4 341.4 L 1051.5 354.2 L 1058 370.7 L 1062.3 395.6 L 1065.7 445.3 L 1066.5 453.7 L 1069 457.3 L 1073.3 458.8 L 1074.8 463.6 L 1073.6 471.5 L 1070.7 477.6 L 1066.4 482 L 1065.4 493.1 L 1068.9 519.8 M 1055.2 226.1 L 1050 238 L 1048.3 248.4 L 1048.3 267.6 L 1051.2 283.4 L 1050.3 290.7 L 1046.7 294.9 L 1045.6 300.2 L 1047.6 309.8" />
<g class="city"><circle cx="655.9744868946075" cy="599.7082837550474" r="5" /><text x="667.9744868946075" y="603.7082837550474">Monrovia</text></g>
<g class="city"><circle cx="388.18223305378353" cy="362.5944567892385" r="5" /><text x="400.18223305378353" y="366.5944567892385">Freetown</text></g>
<g class="city"><circle cx="872.4581607053258" cy="440.84424533486236" r="5" /><text x="884.4581607053258" y="444.84424533486236">Nzérékoré</text></g>
<g class="city"><circle cx="819.6995579767282" cy="151.78546818627086" r="5" /><text x="831.6995579767282" y="155.78546818627086">Kankan</text></g>
<text class="map-title" x="80" y="105">Liberia Physical Study Map</text>
<text class="map-subtitle" x="80" y="145">Landmark: Sapo National Park | Study terrain and water systems</text>
  <text class="footer" x="80" y="1036">Made with Natural Earth. Free vector and raster map data @ naturalearthdata.com.</text>
</svg>
