<?xml version="1.0" encoding="UTF-8"?>
<svg xmlns="http://www.w3.org/2000/svg" width="1600" height="1100" viewBox="0 0 1600 1100" role="img" aria-labelledby="title desc">
  <title id="title">Liberia Political Study Map</title>
  <desc id="desc">Made with Natural Earth. Free vector and raster map data @ naturalearthdata.com.</desc>
  <defs>
    <linearGradient id="terrain" x1="0" x2="1" y1="0" y2="1">
      <stop offset="0%" stop-color="#6c8c53" />
      <stop offset="42%" stop-color="#d5c487" />
      <stop offset="72%" stop-color="#b88b5f" />
      <stop offset="100%" stop-color="#f1f5ee" />
    </linearGradient>
    <filter id="softShadow" x="-10%" y="-10%" width="120%" height="120%">
      <feDropShadow dx="0" dy="10" stdDeviation="12" flood-color="#0f172a" flood-opacity="0.16" />
    </filter>
    <style>
      .neighbor { fill: #ffffff; stroke: #94a3b8; stroke-width: 1.2; opacity: 0.72; }
      .country { fill: #f7f1df; stroke: #1f2937; stroke-width: 4; filter: url(#softShadow); }
      .admin1 { fill: none; stroke: #64748b; stroke-width: 1.1; stroke-dasharray: 6 7; opacity: 0.75; }
      .river { fill: none; stroke: #1d9bd1; stroke-width: 3; stroke-linecap: round; opacity: 0.88; }
      .lake { fill: #8ed1ea; stroke: #0ea5e9; stroke-width: 1.5; opacity: 0.8; }
      .city circle { fill: #ef4444; stroke: #ffffff; stroke-width: 2; }
      .city text, .terrain-label { fill: #172033; font: 700 24px system-ui, sans-serif; paint-order: stroke; stroke: #ffffff; stroke-width: 5; stroke-linejoin: round; }
      .map-title { fill: #0f172a; font: 800 46px system-ui, sans-serif; }
      .map-subtitle { fill: #475569; font: 600 24px system-ui, sans-serif; }
      .footer { fill: #64748b; font: 500 18px system-ui, sans-serif; }
    </style>
  </defs>
  <rect width="100%" height="100%" fill="#eaf3f8" />
  <rect x="40" y="40" width="1520" height="1020" rx="32" fill="#ffffff" opacity="0.54" />
  <path class="neighbor" d="M -3834.7 836.9 L -3899.7 937.5 L -3933.4 1018.4 L -3975.6 1060.2 L -4028.2 1068 L -4043.2 1037.1 L -4067.8 1032.5 L -4101.8 1062.3 L -4149.8 1039.6 L -4121.8 993.4 L -4112.1 943.2 L -4092.9 895.9 L -4136 830.7 L -4144.7 755.5 L -4087.5 661 L -4050.2 673.1 L -3969.2 699.1 L -3852.9 791.9 L -3834.7 836.9 Z M 2522.9 -4142.8 L 2574.7 -4114 L 2733.1 -4093.7 L 2677.6 -4018.5 L 2663.6 -3940.2 L 2633.4 -3921.4 L 2583.4 -3931.5 L 2586.9 -3903.6 L 2506.5 -3841.8 L 2504.9 -3792.1 L 2557.4 -3809.3 L 2595.1 -3761.1 L 2590.6 -3730 L 2622.9 -3688.8 L 2584.8 -3655.3 L 2613.1 -3570.2 L 2672.7 -3556.3 L 2660.1 -3508.6 L 2560.6 -3446.5 L 2343.8 -3476.3 L 2183.7 -3440.6 L 2171.1 -3374.4 L 2043.7 -3360.2 L 1920.1 -3409.9 L 1880.1 -3386.1 L 1677.8 -3436.1 L 1634 -3478.8 L 1690.8 -3544.7 L 1711.7 -3763.7 L 1598.3 -3879 L 1517.3 -3934.6 L 1349.3 -3976.9 L 1338.2 -4057.1 L 1480.7 -4081 L 1665.3 -4052.7 L 1630.4 -4177.1 L 1734.2 -4130 L 1990.1 -4215.7 L 2023.1 -4305.7 L 2119.2 -4327.9 L 2135.1 -4289.3 L 2186.2 -4287.5 L 2237.3 -4243.3 L 2314 -4191.5 L 2370.4 -4200.1 L 2466.6 -4150 L 2491.2 -4140.4 L 2522.9 -4142.8 Z M 2804.2 -3391.5 L 2875 -3433.4 L 2893.7 -3339.2 L 2857.4 -3254.3 L 2807.5 -3276.7 L 2782 -3350.6 L 2804.2 -3391.5 Z" />
<path class="neighbor" d="M 577.5 -73.9 L 582.5 -108.1 L 573.1 -150.6 L 532 -181.5 L 510.3 -244.4 L 505.3 -312.8 L 542.3 -332.8 L 560.7 -397.6 L 595.6 -400.1 L 672.3 -369.5 L 734.3 -391.2 L 776.8 -383.9 L 793.3 -408.4 L 1234.3 -410 L 1258.8 -487 L 1239.7 -500.5 L 1186.7 -974.9 L 1133.6 -1449.2 L 1301.8 -1451.2 L 1672.6 -1211.4 L 2043.3 -971.6 L 2069.5 -920.1 L 2137.9 -888.6 L 2188.8 -870.8 L 2190.1 -800.8 L 2312 -811.6 L 2312.3 -558.5 L 2252.2 -485.1 L 2242.8 -417.3 L 2145.2 -399.9 L 1995.2 -390.5 L 1954.6 -351.4 L 1884.2 -347.1 L 1813.7 -346.6 L 1786.3 -367.7 L 1725.7 -352 L 1623 -306.4 L 1602 -272.1 L 1516.8 -222.8 L 1501.8 -194.6 L 1455.8 -172.2 L 1402.6 -187 L 1372.5 -160.2 L 1356.4 -84.8 L 1269.1 6.3 L 1271.7 43.5 L 1241.7 90.1 L 1249 153.9 L 1203.6 170.2 L 1178 184.1 L 1160.9 137.1 L 1129.2 149.4 L 1110.2 147.3 L 1090 179.4 L 1005.1 178.5 L 974.7 162 L 960.4 171.9 L 926.8 140.3 L 932.6 107.5 L 918.9 94.7 L 895.5 105.5 L 899.8 69.8 L 922.3 41.5 L 877.3 -4.6 L 864.2 -34.9 L 839.8 -59 L 817.8 -61.9 L 791.4 -46.5 L 755.8 -31.8 L 725.7 -8 L 678.7 -16.8 L 648.2 -44.7 L 629.9 -48.4 L 601.2 -33.7 L 583.8 -33.6 L 577.5 -73.9 Z" />
<path class="neighbor" d="M 960.4 171.9 L 974.7 162 L 1005.1 178.5 L 1090 179.4 L 1110.2 147.3 L 1129.2 149.4 L 1160.9 137.1 L 1178 184.1 L 1203.6 170.2 L 1249 153.9 L 1298.4 177.9 L 1317.6 214.2 L 1367 237.4 L 1405.5 209.8 L 1457 205.6 L 1532.2 233.9 L 1561.3 390.3 L 1515 482.6 L 1486.4 606.8 L 1534 701.4 L 1529 744.8 L 1479 745.9 L 1402.3 724.4 L 1331.9 725.7 L 1201.7 744.9 L 1125.4 776.6 L 1016.6 816.9 L 995.3 814 L 1003.8 723.5 L 1014.3 709.8 L 1010.9 666.4 L 964.4 620.4 L 929.5 613.1 L 897.4 582.9 L 921.3 534.1 L 910.3 480.9 L 915.4 449 L 932.8 448.8 L 939.3 400.9 L 930.8 379.7 L 941.3 364.4 L 982.1 351.2 L 955 263.2 L 929.7 217.8 L 938.5 180.5 L 960.4 171.9 Z" />
<path class="neighbor" d="M 337.2 -89.6 L 390.2 -88.5 L 469.2 -61.7 L 493.4 -64.1 L 501.7 -76.3 L 561.6 -67.7 L 577.5 -73.9 L 583.8 -33.6 L 601.2 -33.7 L 629.9 -48.4 L 648.2 -44.7 L 678.7 -16.8 L 725.7 -8 L 755.8 -31.8 L 791.4 -46.5 L 817.8 -61.9 L 839.8 -59 L 864.2 -34.9 L 877.3 -4.6 L 922.3 41.5 L 899.8 69.8 L 895.5 105.5 L 918.9 94.7 L 932.6 107.5 L 926.8 140.3 L 960.4 171.9 L 938.5 180.5 L 929.7 217.8 L 955 263.2 L 982.1 351.2 L 941.3 364.4 L 930.8 379.7 L 939.3 400.9 L 932.8 448.8 L 915.4 449 L 884.3 446.2 L 861.9 490.4 L 830.8 489.9 L 809.4 466.5 L 816.7 422.3 L 770.8 355 L 742 367.4 L 718.6 369.8 L 688.3 376.1 L 689.5 335.8 L 671.9 307.1 L 675.5 275.1 L 651.6 228.9 L 621 189.6 L 533.1 189.5 L 507.5 210.2 L 477.2 212.7 L 458.5 236.4 L 445.8 266.9 L 387 315.2 L 338.8 250.2 L 296.1 207.2 L 268 192.9 L 240.5 171.1 L 228 122.5 L 212 98.3 L 180 80.3 L 228.9 26.7 L 262.2 28.8 L 290.9 10.3 L 315.1 10.1 L 332.5 -4.4 L 323.1 -40.8 L 335.1 -52.3 L 337.2 -89.6 Z" />
<path class="neighbor" d="M 387 315.2 L 445.8 266.9 L 458.5 236.4 L 477.2 212.7 L 507.5 210.2 L 533.1 189.5 L 621 189.6 L 651.6 228.9 L 675.5 275.1 L 671.9 307.1 L 689.5 335.8 L 688.3 376.1 L 718.6 369.8 L 667.4 421.1 L 617.8 480.8 L 612 512.7 L 585.7 547.9 L 556.1 539.8 L 477 495.5 L 419.7 436.6 L 400.5 396.4 L 387 315.2 Z" />

<path class="country" d="M 915.4 449 L 910.3 480.9 L 921.3 534.1 L 897.4 582.9 L 929.5 613.1 L 964.4 620.4 L 1010.9 666.4 L 1014.3 709.8 L 1003.8 723.5 L 995.3 814 L 966.5 815 L 853.2 762.6 L 753.4 679 L 659.7 618.8 L 585.7 547.9 L 612 512.7 L 617.8 480.8 L 667.4 421.1 L 718.6 369.8 L 742 367.4 L 770.8 355 L 816.7 422.3 L 809.4 466.5 L 830.8 489.9 L 861.9 490.4 L 884.3 446.2 L 915.4 449 Z" />


<g class="city"><circle cx="655.9744868946075" cy="599.7082837550474" r="5" /><text x="667.9744868946075" y="603.7082837550474">Monrovia</text></g>
<g class="city"><circle cx="388.18223305378353" cy="362.5944567892385" r="5" /><text x="400.18223305378353" y="366.5944567892385">Freetown</text></g>
<g class="city"><circle cx="872.4581607053258" cy="440.84424533486236" r="5" /><text x="884.4581607053258" y="444.84424533486236">Nzérékoré</text></g>
<g class="city"><circle cx="819.6995579767282" cy="151.78546818627086" r="5" /><text x="831.6995579767282" y="155.78546818627086">Kankan</text></g>
<text class="map-title" x="80" y="105">Liberia Political Study Map</text>
<text class="map-subtitle" x="80" y="145">Capital: Monrovia | Continent: Africa</text>
  <text class="footer" x="80" y="1036">Made with Natural Earth. Free vector and raster map data @ naturalearthdata.com.</text>
</svg>
