<?xml version="1.0" encoding="UTF-8"?>
<svg xmlns="http://www.w3.org/2000/svg" width="1600" height="1100" viewBox="0 0 1600 1100" role="img" aria-labelledby="title desc">
  <title id="title">Lesotho Physical Study Map</title>
  <desc id="desc">Made with Natural Earth. Free vector and raster map data @ naturalearthdata.com.</desc>
  <defs>
    <linearGradient id="terrain" x1="0" x2="1" y1="0" y2="1">
      <stop offset="0%" stop-color="#6c8c53" />
      <stop offset="42%" stop-color="#d5c487" />
      <stop offset="72%" stop-color="#b88b5f" />
      <stop offset="100%" stop-color="#f1f5ee" />
    </linearGradient>
    <filter id="softShadow" x="-10%" y="-10%" width="120%" height="120%">
      <feDropShadow dx="0" dy="10" stdDeviation="12" flood-color="#0f172a" flood-opacity="0.16" />
    </filter>
    <style>
      .neighbor { fill: #ffffff; stroke: #94a3b8; stroke-width: 1.2; opacity: 0.72; }
      .country { fill: url(#terrain); stroke: #1f2937; stroke-width: 4; filter: url(#softShadow); }
      .admin1 { fill: none; stroke: #64748b; stroke-width: 1.1; stroke-dasharray: 6 7; opacity: 0.75; }
      .river { fill: none; stroke: #1d9bd1; stroke-width: 3; stroke-linecap: round; opacity: 0.88; }
      .lake { fill: #8ed1ea; stroke: #0ea5e9; stroke-width: 1.5; opacity: 0.8; }
      .city circle { fill: #ef4444; stroke: #ffffff; stroke-width: 2; }
      .city text, .terrain-label { fill: #172033; font: 700 24px system-ui, sans-serif; paint-order: stroke; stroke: #ffffff; stroke-width: 5; stroke-linejoin: round; }
      .map-title { fill: #0f172a; font: 800 46px system-ui, sans-serif; }
      .map-subtitle { fill: #475569; font: 600 24px system-ui, sans-serif; }
      .footer { fill: #64748b; font: 500 18px system-ui, sans-serif; }
    </style>
  </defs>
  <rect width="100%" height="100%" fill="#d8edf0" />
  <rect x="40" y="40" width="1520" height="1020" rx="32" fill="#ffffff" opacity="0.54" />
  <path class="neighbor" d="M -1670.9 361.4 L -1570.7 258 L -1488.1 315.2 L -1452.9 404.6 L -1359.1 419.8 L -1227.6 459.4 L -1115.3 444.1 L -928.7 337.2 L -928.4 -435.1 L -872 -403.7 L -748 -205 L -767.3 -77.6 L -720.6 -4.2 L -570.9 -25.5 L -466.3 -118.8 L -367.3 -181.7 L -316.1 -281.9 L -214.1 -330.3 L -126 -304.9 L -26.1 -246.4 L 144.1 -236 L 277.8 -284.7 L 298.9 -349.9 L 335.7 -450 L 449.5 -466.7 L 512.3 -545.3 L 582 -684.6 L 769.7 -840.7 L 1065.5 -994.7 L 1150.6 -992.4 L 1251.8 -957 L 1322.2 -982.1 L 1433.4 -961.2 L 1533.5 -666.9 L 1587.9 -518.3 L 1550.7 -285.2 L 1568.5 -210.2 L 1463 -248.5 L 1402.6 -233.6 L 1382.8 -172.7 L 1325.7 -94.2 L 1327.7 -21.9 L 1452.5 91.5 L 1574.9 68.9 L 1617.4 -24 L 1776 -22.2 L 1723.8 130 L 1699.1 303.7 L 1645 398.1 L 1502.3 503.7 L 1461.4 533.9 L 1372.8 640.1 L 1314.5 747.6 L 1195.9 897.4 L 959.6 1113.1 L 812 1238.5 L 654.1 1333.7 L 435.6 1414.8 L 329 1425.7 L 302 1483.7 L 175 1452.8 L 71.5 1492.6 L -155.2 1452.3 L -281.8 1477.8 L -368.4 1466.9 L -584.1 1549.4 L -762.6 1582.5 L -891.7 1661.6 L -986.9 1666.6 L -1075.3 1592 L -1146 1588.2 L -1236 1494.9 L -1245.9 1523.9 L -1273.7 1467.7 L -1272.5 1345.1 L -1340.5 1205 L -1273 1166.9 L -1278.5 1006.4 L -1415.4 810.7 L -1520.4 633.6 L -1520.8 633 L -1670.9 361.4 Z M 970.6 440.6 L 879.3 376.2 L 781.6 418.8 L 668.3 500.6 L 556.8 633 L 713.7 793.8 L 788.5 773.1 L 826.9 706.3 L 943.5 673.6 L 979 605.4 L 1043.2 503.7 L 970.6 440.6 Z" />

<path class="country" d="M 970.6 440.6 L 1043.2 503.7 L 979 605.4 L 943.5 673.6 L 826.9 706.3 L 788.5 773.1 L 713.7 793.8 L 556.8 633 L 668.3 500.6 L 781.6 418.8 L 879.3 376.2 L 970.6 440.6 Z" />

<path class="river" d="M 342 773 L 327.5 773.4 L 314.6 780.5 L 298.5 794.4 L 279 797.7 L 244.6 786.9 M 82.5 654.6 L 134.2 714" />
<path class="river" d="M 366.9 157.9 L 360.4 175.9 L 355.6 177.7 L 350.4 169.5 L 338.4 162.2 L 319.7 155.9 L 300 157.4 L 268.9 171.5 M 869.9 29.7 L 859.4 26 L 791.9 3.8" />
<path class="river" d="M 244.6 786.9 L 210.8 776.1 L 183.2 757.9 L 134.2 714 M 82.5 654.6 L 32 621 L 11.6 603.7 L 4.5 591.6 L -8.4 584.4 L -27.1 582 L -48.8 572.3 L -73.6 555.6 L -86.3 542.1 L -86.9 532 L -94.9 522.4 L -110.3 513.4 L -125.6 498 L -148.2 465.3 L -158.8 484.5 L -166.6 492.7 L -175.3 496.3 L -184.9 495.6 L -193.3 492.3 L -200.7 494.1 L -206.6 501.2 L -220.8 510.1 L -245.3 519.3 L -258.6 527.3 L -261.1 531.4 L -267.7 536 L -276.4 539.9 L -278.9 551.5 L -283.4 556.9 L -295.3 559.1 L -301.9 560.4 L -306.5 562.2 L -310.3 566.5 L -307.9 580.4 L -310.7 588.1 L -318.6 589.7 L -333.4 578 L -355.1 552.9 L -382.4 534.1 L -415.3 521.5 L -432.7 505.8 L -434.7 486.9 L -444.8 462.6 L -463 432.8 L -476.7 419.3 L -485.9 422.1 L -496.2 420.1 L -507.7 413.4 L -522.9 391.5 L -541.9 354.6 L -559.2 332.8 L -575 326 L -595.9 324.5 L -621.8 328.1 L -648.3 344 L -675.3 372.3 L -703.8 390 L -733.8 397.3 L -759.4 399.6 L -780.7 397.1 L -805.2 385.5 L -833 364.9 L -862.8 348.2 L -894.7 335.4 L -932.2 334.7 L -975.3 346.1 L -1002.9 360.9 L -1014.8 379.1 L -1030.6 390.2 L -1050.4 394.1 L -1059.1 403.4 L -1056.7 418.1 L -1064.3 429.3 L -1081.9 437.1 L -1110.3 434.8 L -1149.4 422.5 L -1199.3 419.6 L -1259.8 426.1 L -1303.4 423 L -1329.8 410.4 L -1357.9 403.2 L -1387.7 401.4 L -1405 396.1 L -1440.3 386.7 L -1447 370.6 L -1451.1 358.4 L -1461.2 345.6 L -1462.3 335.2 L -1454.4 327.3 L -1453.3 314.6 L -1458.9 297.1 L -1468.7 288.6 L -1482.5 289 L -1491.1 282.3 L -1494.5 268.5 L -1502.7 258 L -1522.2 247.3 L -1547.9 255.3 L -1560 267.5 L -1567.1 286.5 L -1573.6 296.1 L -1576.9 312 L -1578.4 323.3 L -1585 335.3 L -1591.8 340.2 L -1598.9 338 L -1612.1 342.8 L -1641.2 360.6 L -1649.4 369.9 M 987.2 467 L 978.7 495.4 L 966.4 507.7 L 947.6 513.4 L 935.2 524.9 L 926.3 550.4 L 916.9 564.8 L 917.7 572.4 L 925.4 577.8 L 926.8 584.3 L 921.7 591.7 L 922.1 602.8 L 927.7 617.6 L 923.6 627.7 L 909.6 633.3 L 905.4 640 L 911.1 648.1 L 909.6 655.6 L 900.9 662.7 L 884.7 666.9 L 861.1 668.3 L 844.2 665.7 L 834 659.1 L 809.8 660.2 L 771.4 669.1 L 750.3 680.1 L 746.5 693.2 L 740.3 703.5 L 731.7 711.2 L 722.5 714.2 L 712.7 712.7 L 706.1 717.9 L 702.9 729.8 L 694.3 737.1 L 680.5 739.6 L 663.6 736.6 L 647.2 729.7 L 642.4 727 L 638.4 727.2 L 638 729 L 638.3 732.7 L 635.9 736.8 L 629.1 739.7 L 627.7 743.1 L 627.6 746 L 626.9 748.2 L 621.8 749 L 618.7 751.9 L 616.1 758.4 L 604.2 763.4 L 574.1 768.1 L 565.7 772.1 L 562.7 778.8 L 554.5 786.3 L 535.5 795.8 L 514.3 800.7 L 490.9 801 L 469.4 794.8 L 449.9 782.3 L 431.7 777 L 414.9 779 L 399.5 775.1 L 385.5 765.3 L 369.4 763.6 L 342 773" />
<path class="river" d="M 268.9 171.5 L 215.2 190.1 L 185.5 210.5 L 161.8 238.8 L 136.8 255.4 L 110.4 260.1 L 91.6 271.8 L 80.1 290.5 L 74.9 311 L 75.8 333.4 L 71.1 344.5 L 61.6 345.9 L 56.3 351.7 L 55.4 358.3 L 51.3 362.3 L 45.7 358.7 L 37.7 356.6 L 27.6 360.5 L 18.4 356.9 L 13.7 347.2 L 4.8 337.6 L -8.1 331.1 L -25.2 339.7 L -46.3 363.5 L -61.9 392 L -72 425.2 L -94.8 447.6 L -148.1 465.2 M 791.9 3.8 L 766.1 -27.6 L 747 -32.2 L 726.3 -20.6 L 706.6 -16.9 L 688 -21.1 L 673.4 -16 L 662.7 -1.8 L 648.3 4.7 L 630.3 3.5 L 614.6 8.1 L 601.4 18.3 L 581.8 18.4 L 555.8 8.4 L 545.2 8.8 L 540.6 17.6 L 533.3 20.9 L 520.3 18.1 L 493.8 29.6 L 453.8 55.7 L 441.9 68.7 L 441.9 77 L 445.6 80.7 L 447.6 89.9 L 443.9 100.3 L 445.3 107.5 L 438.2 114.8 L 417.6 116.8 L 395.6 127.9 L 366.9 157.9 M 1212.4 -97.2 L 1228.1 -77.3 L 1223.6 -60.3 L 1194.5 -29.2 L 1150.7 -7.8 L 1120.9 -0.6 L 1090.7 -0.5 L 1074.2 3.9 L 1071.5 12.7 L 1061.9 15.8 L 1045.4 13 L 1031.5 17.6 L 1020.1 29.6 L 1007.8 36.9 L 996.8 40.5 L 988.2 40.9 L 973.5 33.1 L 961.3 32.8 L 945.8 37.5 L 929.1 35.5 L 911.3 26.8 L 905.2 26.6 L 903.3 30.3 L 897.1 35.7 L 884.3 41.2 L 877.1 40.7 L 875.6 34.7 L 869.7 29.6" />
<g class="city"><circle cx="395.97342727272803" cy="474.9533636363633" r="5" /><text x="407.97342727272803" y="478.9533636363633">Bloemfontein</text></g>
<g class="city"><circle cx="500.5341454545462" cy="234.4973545454548" r="5" /><text x="512.5341454545462" y="238.4973545454548">Welkom</text></g>
<g class="city"><circle cx="658.0396090909096" cy="516.0773636363633" r="5" /><text x="670.0396090909096" y="520.0773636363633">Maseru</text></g>
<text class="map-title" x="80" y="105">Lesotho Physical Study Map</text>
<text class="map-subtitle" x="80" y="145">Landmark: Maletsunyane Falls | Study terrain and water systems</text>
  <text class="footer" x="80" y="1036">Made with Natural Earth. Free vector and raster map data @ naturalearthdata.com.</text>
</svg>
