<?xml version="1.0" encoding="UTF-8"?>
<svg xmlns="http://www.w3.org/2000/svg" width="1600" height="1100" viewBox="0 0 1600 1100" role="img" aria-labelledby="title desc">
  <title id="title">Lithuania Political Study Map</title>
  <desc id="desc">Made with Natural Earth. Free vector and raster map data @ naturalearthdata.com.</desc>
  <defs>
    <linearGradient id="terrain" x1="0" x2="1" y1="0" y2="1">
      <stop offset="0%" stop-color="#6c8c53" />
      <stop offset="42%" stop-color="#d5c487" />
      <stop offset="72%" stop-color="#b88b5f" />
      <stop offset="100%" stop-color="#f1f5ee" />
    </linearGradient>
    <filter id="softShadow" x="-10%" y="-10%" width="120%" height="120%">
      <feDropShadow dx="0" dy="10" stdDeviation="12" flood-color="#0f172a" flood-opacity="0.16" />
    </filter>
    <style>
      .neighbor { fill: #ffffff; stroke: #94a3b8; stroke-width: 1.2; opacity: 0.72; }
      .country { fill: #f7f1df; stroke: #1f2937; stroke-width: 4; filter: url(#softShadow); }
      .admin1 { fill: none; stroke: #64748b; stroke-width: 1.1; stroke-dasharray: 6 7; opacity: 0.75; }
      .river { fill: none; stroke: #1d9bd1; stroke-width: 3; stroke-linecap: round; opacity: 0.88; }
      .lake { fill: #8ed1ea; stroke: #0ea5e9; stroke-width: 1.5; opacity: 0.8; }
      .city circle { fill: #ef4444; stroke: #ffffff; stroke-width: 2; }
      .city text, .terrain-label { fill: #172033; font: 700 24px system-ui, sans-serif; paint-order: stroke; stroke: #ffffff; stroke-width: 5; stroke-linejoin: round; }
      .map-title { fill: #0f172a; font: 800 46px system-ui, sans-serif; }
      .map-subtitle { fill: #475569; font: 600 24px system-ui, sans-serif; }
      .footer { fill: #64748b; font: 500 18px system-ui, sans-serif; }
    </style>
  </defs>
  <rect width="100%" height="100%" fill="#eaf3f8" />
  <rect x="40" y="40" width="1520" height="1020" rx="32" fill="#ffffff" opacity="0.54" />
  <path class="neighbor" d="M 20679.2 -1463.2 L 20842.8 -1516.7 L 20842.8 -1428.9 L 20702.1 -1422.4 L 20679.2 -1463.2 Z M 4044.1 1706.6 L 3985.7 1782.7 L 3861.2 1803.9 L 3733.7 1936.3 L 3850.3 2058.1 L 3837.7 2144.6 L 3977.8 2295.7 L 3977.8 2295.7 L 3901.2 2347.4 L 3879.2 2380.1 L 3822.4 2371.3 L 3734.2 2293.4 L 3698.1 2289.1 L 3617.5 2259.3 L 3578.2 2206.7 L 3458.5 2179.8 L 3380.7 2200 L 3358.2 2176.1 L 3183.4 2114.6 L 2994.5 2093.8 L 2886 2071.9 L 2870.4 2087 L 2706.8 1978.6 L 2560.4 1930.2 L 2449.5 1854.8 L 2542.9 1834.3 L 2649.4 1726.9 L 2577.6 1676.2 L 2766.8 1623.8 L 2763.4 1595.7 L 2648.2 1616.4 L 2652.2 1559.4 L 2718.4 1523.6 L 2842.6 1514.2 L 2862.8 1471.4 L 2834.4 1400.6 L 2886.5 1333.4 L 2885 1295.7 L 2695.9 1254 L 2620.9 1255.3 L 2541.7 1195.2 L 2443.2 1215.6 L 2280.2 1170.4 L 2283 1145.2 L 2237.3 1089.5 L 2135 1083.3 L 2124.4 1043.5 L 2156.4 1017.5 L 2074.4 944.9 L 1941.4 957.2 L 1902.4 950.8 L 1870 980 L 1822 974.8 L 1822 974.8 L 1790.5 892.6 L 1760.3 850 L 1785 838 L 1888.6 842.5 L 1938.5 814.4 L 1901.6 780.2 L 1815 757.6 L 1822.7 734.4 L 1770.5 711 L 1690.1 627 L 1717.6 592.4 L 1705 532.1 L 1579.5 501.5 L 1512.2 516.9 L 1494 485 L 1358.8 452.8 L 1317.6 377.1 L 1306.7 314.8 L 1244.8 285.3 L 1299.8 244.6 L 1261.8 124.9 L 1353.1 50.9 L 1333.7 28.5 L 1333.7 28.5 L 1479.6 -42.4 L 1345.2 -103.4 L 1345.2 -103.4 L 1619.9 -267.2 L 1739.1 -341.4 L 1787.4 -406.8 L 1597.4 -494.8 L 1649.9 -578.4 L 1534.4 -673.9 L 1620.8 -783.9 L 1471.5 -930 L 1589.9 -1026.8 L 1393.4 -1112.3 L 1412.1 -1202.1 L 1515.8 -1213.9 L 1734.1 -1265.4 L 1734.1 -1265.4 L 1866.5 -1310.1 L 2077.4 -1232.5 L 2428.8 -1201.9 L 2913.7 -1056.8 L 3012.2 -995.8 L 3020.7 -910.4 L 2878.2 -843 L 2668.6 -808.8 L 2095.7 -906.3 L 2001.5 -890 L 2210.7 -796 L 2218.9 -736.5 L 2227.3 -605.3 L 2392.5 -566.2 L 2492.8 -532.9 L 2509.4 -595.1 L 2432.1 -650.3 L 2513.8 -698.9 L 2824 -619 L 2932.1 -650.3 L 2845.7 -744.2 L 3144.8 -869.9 L 3263.2 -862.5 L 3383.1 -817.7 L 3457.8 -905.9 L 3350.8 -982.4 L 3413.6 -1059.1 L 3319.3 -1138.7 L 3678.2 -1097.6 L 3751.6 -1025.7 L 3589.1 -1009.8 L 3590 -938.4 L 3691 -894.5 L 3889.2 -922.3 L 3920.6 -1004.2 L 4188.7 -1065.3 L 4636.6 -1175.5 L 4733.4 -1169.2 L 4606.8 -1091.3 L 4766 -1077.9 L 4858 -1121.8 L 5098.5 -1125.3 L 5289.1 -1178.5 L 5435.3 -1101.2 L 5581.2 -1186.2 L 5446.7 -1260.5 L 5513.4 -1302.9 L 5892.5 -1264.1 L 6070.1 -1223.9 L 6535.2 -1077.3 L 6621 -1144.5 L 6490.6 -1212.3 L 6486.8 -1239.6 L 6332.2 -1252.2 L 6374.5 -1313 L 6305.9 -1413.1 L 6302 -1454.2 L 6538.8 -1570.4 L 6623 -1687 L 6718.5 -1712.3 L 7058.2 -1678.4 L 7085 -1607.1 L 6963.3 -1503 L 7043.2 -1462.1 L 7084.4 -1372.3 L 7055.3 -1196.5 L 7196.9 -1117.8 L 7141.8 -1032.2 L 6890.4 -849.9 L 7037.1 -831 L 7088.2 -877.2 L 7229.4 -910.1 L 7263.4 -973.6 L 7374.5 -1034.7 L 7299.7 -1107.7 L 7359.6 -1192.4 L 7219.3 -1203 L 7188.4 -1274.4 L 7290.8 -1403.2 L 7124.1 -1507.9 L 7353.8 -1594.4 L 7324.1 -1685.6 L 7388.1 -1688.5 L 7455.5 -1617.4 L 7404.9 -1493.5 L 7542.2 -1470.1 L 7483.7 -1562.6 L 7698.5 -1613.1 L 7964.8 -1619.9 L 8202 -1546.7 L 8087.9 -1653.6 L 8075.1 -1790.3 L 8298.2 -1816.2 L 8606.9 -1810.6 L 8885 -1827.4 L 8780.7 -1894.5 L 8929.2 -1978.8 L 9076.7 -1982.3 L 9326.2 -2045.9 L 9665.1 -2063.1 L 9707.9 -2098.2 L 10044.9 -2110.1 L 10149.9 -2081.3 L 10437.9 -2149.5 L 10673.6 -2147.4 L 10709 -2202.8 L 10831.6 -2257.4 L 11134.6 -2310 L 11354.7 -2268.5 L 11180 -2236.8 L 11470.6 -2217.2 L 11505.3 -2153.7 L 11622.6 -2185 L 11997.7 -2183.3 L 12287 -2120.7 L 12390 -2072.6 L 12358.1 -2005.9 L 12216.1 -1967.9 L 11878.9 -1896.7 L 11782.5 -1858.6 L 11941.6 -1840.6 L 12131.4 -1808.2 L 12247 -1832.5 L 12312.4 -1750.1 L 12368.8 -1783.5 L 12574 -1803.8 L 12985.8 -1782.6 L 13017 -1722.5 L 13553.6 -1703.4 L 13560.9 -1801.5 L 13833.2 -1779 L 14038.1 -1779.7 L 14245.4 -1712.1 L 14304.4 -1630 L 14228.5 -1576.2 L 14389.7 -1475.2 L 14591.5 -1423.1 L 14715.3 -1557.8 L 14921.2 -1500.1 L 15139.9 -1534.6 L 15388.3 -1495.1 L 15482.8 -1531.1 L 15692.8 -1513.1 L 15600.1 -1632.2 L 15769.6 -1687.8 L 16928.6 -1604.5 L 17037.9 -1528.3 L 17373.8 -1430.2 L 17892 -1454.5 L 18147.5 -1433.4 L 18254.4 -1380.3 L 18238.7 -1286.5 L 18396.8 -1249.9 L 18568.6 -1276.2 L 18796.2 -1279.6 L 19038.5 -1254.4 L 19281.7 -1268.6 L 19505.3 -1154.5 L 19664.3 -1195.6 L 19560.5 -1277.6 L 19617.7 -1334.6 L 20027.1 -1298.7 L 20294 -1306.4 L 20663.1 -1245.1 L 20842.8 -1189.1 L 20842.8 -677.9 L 20841.9 -677.2 L 20676.9 -620.8 L 20510.6 -630.2 L 20626.3 -561.9 L 20702.7 -456.1 L 20762 -421.6 L 20776.9 -368.5 L 20743.8 -334.5 L 20504.5 -362.5 L 20145.9 -265.9 L 20031.7 -250.9 L 19835.4 -160.7 L 19649.1 -82 L 19601.9 -23.6 L 19418.4 -112.4 L 19084 -11.7 L 19025.6 -59.3 L 18902 -4.4 L 18730.3 -22 L 18689 62.4 L 18535 186.6 L 18539.6 238.5 L 18685.8 267.3 L 18668.6 454.1 L 18549.4 458.8 L 18494.5 566.2 L 18547.9 621.4 L 18323.5 687 L 18278.9 833.5 L 18087.6 864.8 L 18049.1 995.2 L 17864.2 1114.8 L 17816.7 1026.4 L 17761.8 839.1 L 17690.1 554 L 17751.8 376 L 17860.1 299.4 L 17866.8 239.4 L 18066.2 210.7 L 18295.5 49.1 L 18516.4 -82.8 L 18747.1 -185.2 L 18850.2 -366.1 L 18694.3 -355.3 L 18617.2 -249.6 L 18291.7 -108.7 L 18186.6 -266.5 L 17855.3 -222.9 L 17534.1 -7.8 L 17640.1 70.9 L 17353.7 104.4 L 17155.2 117.6 L 17164.5 24.8 L 16965 5.4 L 16806.1 68.4 L 16413.7 46.4 L 15991.5 84.4 L 15575.8 334.9 L 15084 637.6 L 15286.2 653.7 L 15349.3 734.1 L 15473.9 762.6 L 15556.1 698.5 L 15696.8 706.8 L 15882.1 848 L 15886.5 957.2 L 15786.1 1085.4 L 15775.3 1238.7 L 15717.4 1443.9 L 15524 1629.6 L 15481 1718.3 L 15306.8 1867.8 L 15133.9 2015.9 L 15051 2091.7 L 14880 2167 L 14799.1 2168.7 L 14718.5 2106.3 L 14546.2 2200.2 L 14526.2 2242.9 L 14526.2 2242.9 L 14526.2 2242.9 L 14526.2 2242.9 L 14508.3 2220.5 L 14508.3 2220.5 L 14507.5 2155.3 L 14573 2151.8 L 14591.5 2000.2 L 14557.7 1890.3 L 14667.9 1845 L 14823.6 1867.7 L 14909.9 1742.8 L 14953.9 1602.2 L 15003.7 1555.3 L 15071.2 1439.8 L 14859.1 1477.6 L 14747.8 1528.3 L 14552.8 1528.1 L 14500.9 1407.5 L 14348.9 1316.3 L 14125.5 1275.3 L 14078 1149.6 L 14033.3 1070.8 L 13985.2 1015.5 L 13905.9 886.1 L 13793.2 838.9 L 13601.2 800.6 L 13431 804.1 L 13271.5 827.3 L 13165.5 891.1 L 13236 921.6 L 13237.5 992.5 L 13166.2 1033.6 L 13050.3 1169.7 L 13051.5 1226.2 L 12870.6 1307.3 L 12716.6 1258.8 L 12563.5 1269.5 L 12496.3 1226.5 L 12419.3 1212.7 L 12231.4 1303.1 L 12062.4 1324.3 L 11944.4 1356.2 L 11782.8 1335.3 L 11663.8 1336.6 L 11585.9 1271 L 11460.2 1209.3 L 11331.6 1192.4 L 11169.3 1209.2 L 11048 1233 L 10865.7 1179 L 10841.2 1082.8 L 10690.3 1049.9 L 10573.8 1034.8 L 10430 981.8 L 10297.1 1114.8 L 10349.2 1190.3 L 10224.5 1279.7 L 10039 1247.4 L 9910.9 1242.8 L 9825.1 1182.8 L 9691.2 1181 L 9579.6 1141.6 L 9384.4 1201.9 L 9139.5 1312.5 L 9004.2 1334.7 L 8954 1345.3 L 8885.9 1266.8 L 8720.6 1283.9 L 8666 1229.5 L 8576.3 1204.6 L 8514.5 1130.4 L 8443.6 1107.3 L 8259.2 1140.3 L 8082.4 1066.3 L 8014.1 1133.5 L 7727.3 807.6 L 7563.6 708.5 L 7610.5 668.2 L 7288.9 789.3 L 7165.8 796.7 L 7176.4 726.6 L 7011.6 682.8 L 6877.6 714.1 L 6837.2 581.1 L 6606.6 553.4 L 6491.2 606.7 L 6170.1 654 L 6107.4 685.7 L 5627.2 730.4 L 5568.3 774.2 L 5661 862.1 L 5537.8 895.5 L 5561.8 930.4 L 5438.7 992.9 L 5646.6 1081.2 L 5614.5 1142 L 5434.2 1136.4 L 5396.9 1174.5 L 5232.8 1108 L 5029.3 1110.6 L 4893.2 1164.7 L 4741.2 1112.8 L 4458.4 1024 L 4257.9 1027.3 L 3993 1166.9 L 3977 1260.6 L 3845 1186.2 L 3742.6 1327.2 L 3780.1 1353.3 L 3706 1450.6 L 3815 1537.7 L 3910.2 1534.1 L 3992 1619.8 L 3979 1685.9 L 4044.1 1706.6 Z M 9777.6 -2737 L 10055.2 -2765.9 L 10304.6 -2701.3 L 10600.1 -2577.3 L 10568.4 -2461.9 L 10288.4 -2445.9 L 9931 -2482.9 L 9718 -2531.9 L 9619.5 -2623.9 L 9444.4 -2649.3 L 9777.6 -2737 Z M 10940.3 -2513.2 L 11265.6 -2440.4 L 11227.5 -2388.2 L 10504 -2338.7 L 10738.5 -2507.2 L 10843.9 -2521.6 L 10940.3 -2513.2 Z M 15559.5 -2109.7 L 15898.3 -2104.1 L 16362.2 -2036 L 16261.3 -1940.7 L 15788.2 -1944.3 L 15575.4 -1913.9 L 15321.2 -1997.4 L 15390.2 -2085.6 L 15559.5 -2109.7 Z M 16764.7 -2008.2 L 17086.7 -1974.6 L 16938.4 -1923.9 L 16733.2 -1935.4 L 16494.8 -1986 L 16525.5 -2027.6 L 16764.7 -2008.2 Z M 15691.9 -1754.6 L 15813.6 -1805.3 L 15974.1 -1817.2 L 16156.4 -1768.1 L 16172 -1734.4 L 15977.4 -1733.5 L 15714.4 -1747.8 L 15691.9 -1754.6 Z M 3498.2 -2681.2 L 3748.7 -2704.5 L 3943.7 -2706.1 L 3969.9 -2671.5 L 4043.6 -2702.2 L 4164.6 -2723.4 L 4354.9 -2695.3 L 4305.3 -2675.7 L 4133 -2658.8 L 4017.6 -2649.1 L 3999.7 -2628 L 3849.7 -2606.8 L 3710.7 -2637.2 L 3783.8 -2677.3 L 3498.2 -2681.2 Z M 660 689.2 L 424 691.1 L 266 676.5 L 295.2 620 L 472.3 578.4 L 606.7 600.9 L 663.4 621.3 L 649.7 656.4 L 660 689.2 Z M 4609.7 -1803.4 L 4917 -1916 L 4882.3 -1974.3 L 5169.3 -2042 L 5593 -2124.5 L 6020.1 -2148.5 L 6239.9 -2196.1 L 6489.6 -2212.7 L 6578.9 -2162.1 L 6492.7 -2122.1 L 6038 -2058.5 L 5646 -1997.3 L 5247.4 -1875.1 L 5056.1 -1749.9 L 4855 -1626.5 L 4881.1 -1519.9 L 5126.6 -1414.6 L 5050.8 -1403.3 L 4631.4 -1420 L 4597.4 -1477 L 4365.1 -1511.4 L 4346.3 -1580.7 L 4477.5 -1608.3 L 4473.2 -1678.2 L 4727.7 -1787.7 L 4609.7 -1803.4 Z M 16083.5 769.1 L 16127.9 892.8 L 16124.7 1019.1 L 16177.6 1148.6 L 16306.8 1375.9 L 16116.8 1333.5 L 16037.8 1518.9 L 16162.9 1650.5 L 16159.3 1740.2 L 16062.1 1662.8 L 15978 1762.1 L 15954.2 1654.4 L 15968.5 1529.4 L 15953.9 1390.9 L 15983.6 1293.9 L 15989.2 1122.3 L 15914 996.1 L 15925.4 820.8 L 16044 761.7 L 15993.1 702.3 L 16050.2 684.2 L 16083.5 769.1 Z M -24706.2 -963.6 L -24717.3 -883.8 L -24630.7 -851.9 L -24660.5 -945.1 L -24312.1 -926 L -24060.9 -805.9 L -24188.1 -750 L -24398.5 -736.7 L -24401.7 -611.3 L -24453 -584.6 L -24573.2 -588.4 L -24671 -633.2 L -24841.7 -670.6 L -24870.4 -726.3 L -25000.7 -747.2 L -25146.6 -730.6 L -25216.4 -775.5 L -25188.5 -823.2 L -25342.2 -792.7 L -25284.3 -732.3 L -25357.1 -677.9 L -25357.1 -1189.1 L -25042.7 -1091.1 L -24706.2 -963.6 Z M -25189.5 -1436.7 L -25357.1 -1428.9 L -25357.1 -1516.7 L -25340.7 -1522 L -25231.9 -1521.8 L -25046.3 -1485.1 L -25057.3 -1467.5 L -25189.5 -1436.7 Z M 2033.8 1761.5 L 2067.6 1729.7 L 2158.8 1757.2 L 2200.1 1762.3 L 2216.8 1787.6 L 2236.1 1791.5 L 2237.2 1802.6 L 2300 1833.6 L 2430.9 1825.9 L 2405.8 1871.7 L 2265.3 1893.9 L 2091.1 1968.1 L 2019.7 1942 L 2048 1881.7 L 1907.8 1844.2 L 1930.5 1819.6 L 2053.3 1776.9 L 2033.8 1761.5 Z" />
<path class="neighbor" d="M -842 108 L -785.4 34 L -678.6 -53.9 L -636.2 -204.8 L -718.2 -269.9 L -726.1 -440.3 L -642.7 -560.6 L -515.4 -558.4 L -470.8 -609.3 L -517.5 -653.1 L -318.2 -833.7 L -189.9 -976 L -105.2 -1067.3 L 18.1 -1066.8 L 52.1 -1138.3 L 293.9 -1117.7 L 312.7 -1202.2 L 392.4 -1207.4 L 563.4 -1144.6 L 763.7 -1057.3 L 767.1 -859.6 L 810.4 -809.7 L 589.7 -773.4 L 465.2 -683.8 L 485.3 -605.2 L 281.1 -502 L 33.3 -391.7 L -60.2 -210.9 L 31.2 -120.5 L 153.9 -49.3 L 36.1 95.5 L -97.4 125.5 L -146.4 340.9 L -219.3 461.1 L -374.9 448.7 L -447.6 550.5 L -596.2 556.4 L -636.9 435.1 L -744.4 289.5 L -842 108 Z" />
<path class="neighbor" d="M 1358.8 452.8 L 1494 485 L 1512.2 516.9 L 1579.5 501.5 L 1705 532.1 L 1717.6 592.4 L 1690.1 627 L 1770.5 711 L 1822.7 734.4 L 1815 757.6 L 1901.6 780.2 L 1938.5 814.4 L 1888.6 842.5 L 1785 838 L 1760.3 850 L 1790.5 892.6 L 1822 974.8 L 1822 974.8 L 1711.9 982.4 L 1672.3 1010.6 L 1664.1 1075.2 L 1613 1062.8 L 1497.2 1068.9 L 1463.6 1038.9 L 1415.4 1061.3 L 1367.2 1042.7 L 1266.1 1040.2 L 1122.9 1009.4 L 993.2 999.3 L 893.8 1002.2 L 823.5 1036.9 L 762.1 1042 L 759.7 984.8 L 720.1 925.4 L 797.1 899.2 L 797.8 848 L 762.2 799.2 L 756.6 742.4 L 880.7 743.3 L 1020 694.9 L 1049.8 622.5 L 1155 581.4 L 1142.9 523.9 L 1221 502.3 L 1358.8 452.8 Z" />
<path class="neighbor" d="M 756.6 742.4 L 762.2 799.2 L 797.8 848 L 797.1 899.2 L 720.1 925.4 L 759.7 984.8 L 762.1 1042 L 826.7 1154 L 812.9 1190 L 749.2 1204.9 L 632.7 1311.7 L 665.8 1369.3 L 637.8 1361.8 L 515.8 1312.5 L 423.5 1330.7 L 362.9 1317.5 L 287.1 1345 L 222.3 1299.5 L 169.6 1316.9 L 162.3 1309.2 L 103.3 1246 L 7.9 1238.2 L -4.3 1198 L -92.3 1183.7 L -111.5 1216.8 L -181.2 1190.3 L -173.2 1155 L -269.2 1143.8 L -330 1102.5 L -382.6 1020.6 L -372.6 976.3 L -404.3 907.7 L -450.9 861.9 L -415.2 827.7 L -445.1 762.4 L -357.5 724.7 L -157.2 665.3 L 4.4 621.9 L 132.5 643.6 L 142.2 674.9 L 266 676.5 L 424 691.1 L 660 689.2 L 725.8 702.9 L 756.6 742.4 Z" />
<path class="neighbor" d="M 1244.8 285.3 L 1306.7 314.8 L 1317.6 377.1 L 1358.8 452.8 L 1221 502.3 L 1142.9 523.9 L 1019.6 461.6 L 951.3 453.4 L 933.3 426.7 L 807.2 439.4 L 592 431.2 L 445 470.5 L 449.4 373.9 L 512.5 293.3 L 633.5 249.5 L 735.4 345.4 L 838.3 342.9 L 863 244.4 L 972.3 221.7 L 1028.5 237.4 L 1139 285.1 L 1244.8 285.3 Z" />
<path class="neighbor" d="M 1333.7 28.5 L 1333.7 28.5 L 1353.1 50.9 L 1261.8 124.9 L 1299.8 244.6 L 1244.8 285.3 L 1139 285.1 L 1028.5 237.4 L 972.3 221.7 L 863 244.4 L 877.9 168.6 L 830.7 184.8 L 749.2 139.2 L 738.1 65.5 L 900.4 29.7 L 1062.1 11.1 L 1201.3 32.3 L 1333.7 28.5 L 1333.7 28.5 Z" />

<path class="country" d="M 1142.9 523.9 L 1155 581.4 L 1049.8 622.5 L 1020 694.9 L 880.7 743.3 L 756.6 742.4 L 725.8 702.9 L 660 689.2 L 649.7 656.4 L 663.4 621.3 L 606.7 600.9 L 472.3 578.4 L 445 470.5 L 592 431.2 L 807.2 439.4 L 933.3 426.7 L 951.3 453.4 L 1019.6 461.6 L 1142.9 523.9 Z" />


<g class="city"><circle cx="1280.3046636055917" cy="743.7726442341682" r="5" /><text x="1292.3046636055917" y="747.7726442341682">Minsk</text></g>
<g class="city"><circle cx="835.6670319037811" cy="352.6004933773815" r="5" /><text x="847.6670319037811" y="356.6004933773815">Riga</text></g>
<g class="city"><circle cx="134.97810927072553" cy="684.9894260782561" r="5" /><text x="146.97810927072553" y="688.9894260782561">Gdańsk</text></g>
<g class="city"><circle cx="991.8060249302348" cy="643.487667101855" r="5" /><text x="1003.8060249302348" y="647.487667101855">Vilnius</text></g>
<g class="city"><circle cx="373.331500218979" cy="641.35220486151" r="5" /><text x="385.331500218979" y="645.35220486151">Kaliningrad</text></g>
<text class="map-title" x="80" y="105">Lithuania Political Study Map</text>
<text class="map-subtitle" x="80" y="145">Capital: Vilnius | Continent: Europe</text>
  <text class="footer" x="80" y="1036">Made with Natural Earth. Free vector and raster map data @ naturalearthdata.com.</text>
</svg>
