<?xml version="1.0" encoding="UTF-8"?>
<svg xmlns="http://www.w3.org/2000/svg" width="1600" height="1100" viewBox="0 0 1600 1100" role="img" aria-labelledby="title desc">
  <title id="title">Luxembourg Physical Study Map</title>
  <desc id="desc">Made with Natural Earth. Free vector and raster map data @ naturalearthdata.com.</desc>
  <defs>
    <linearGradient id="terrain" x1="0" x2="1" y1="0" y2="1">
      <stop offset="0%" stop-color="#6c8c53" />
      <stop offset="42%" stop-color="#d5c487" />
      <stop offset="72%" stop-color="#b88b5f" />
      <stop offset="100%" stop-color="#f1f5ee" />
    </linearGradient>
    <filter id="softShadow" x="-10%" y="-10%" width="120%" height="120%">
      <feDropShadow dx="0" dy="10" stdDeviation="12" flood-color="#0f172a" flood-opacity="0.16" />
    </filter>
    <style>
      .neighbor { fill: #ffffff; stroke: #94a3b8; stroke-width: 1.2; opacity: 0.72; }
      .country { fill: url(#terrain); stroke: #1f2937; stroke-width: 4; filter: url(#softShadow); }
      .admin1 { fill: none; stroke: #64748b; stroke-width: 1.1; stroke-dasharray: 6 7; opacity: 0.75; }
      .river { fill: none; stroke: #1d9bd1; stroke-width: 3; stroke-linecap: round; opacity: 0.88; }
      .lake { fill: #8ed1ea; stroke: #0ea5e9; stroke-width: 1.5; opacity: 0.8; }
      .city circle { fill: #ef4444; stroke: #ffffff; stroke-width: 2; }
      .city text, .terrain-label { fill: #172033; font: 700 24px system-ui, sans-serif; paint-order: stroke; stroke: #ffffff; stroke-width: 5; stroke-linejoin: round; }
      .map-title { fill: #0f172a; font: 800 46px system-ui, sans-serif; }
      .map-subtitle { fill: #475569; font: 600 24px system-ui, sans-serif; }
      .footer { fill: #64748b; font: 500 18px system-ui, sans-serif; }
    </style>
  </defs>
  <rect width="100%" height="100%" fill="#d8edf0" />
  <rect x="40" y="40" width="1520" height="1020" rx="32" fill="#ffffff" opacity="0.54" />
  <path class="neighbor" d="M 36924 -3871.4 L 37190.5 -3958.6 L 37190.5 -3815.7 L 36961.2 -3805 L 36924 -3871.4 Z M 9820.8 1293 L 9725.5 1417 L 9522.8 1451.4 L 9314.9 1667.3 L 9505 1865.7 L 9484.4 2006.6 L 9712.7 2252.8 L 9712.7 2252.8 L 9587.9 2337.1 L 9552 2390.3 L 9459.5 2376 L 9315.8 2249 L 9257 2242 L 9125.6 2193.5 L 9061.6 2107.7 L 8866.6 2064 L 8739.8 2096.8 L 8703.1 2057.9 L 8418.4 1957.7 L 8110.6 1923.9 L 7933.9 1888.1 L 7908.4 1912.8 L 7641.8 1736.1 L 7403.2 1657.2 L 7222.7 1534.4 L 7374.8 1501 L 7548.3 1326.1 L 7431.4 1243.4 L 7739.6 1158 L 7734 1112.3 L 7546.3 1146 L 7552.9 1053.1 L 7660.7 994.8 L 7863.1 979.4 L 7896 909.7 L 7849.8 794.4 L 7934.7 684.9 L 7932.2 623.5 L 7624 555.5 L 7501.8 557.8 L 7372.8 459.8 L 7212.4 493 L 6946.8 419.4 L 6951.4 378.3 L 6877 287.6 L 6710.3 277.5 L 6692.9 212.6 L 6745.2 170.3 L 6611.5 51.9 L 6394.7 72.1 L 6331.2 61.6 L 6278.4 109.1 L 6200.3 100.7 L 6200.3 100.7 L 6148.9 -33.2 L 6099.8 -102.6 L 6140 -122.2 L 6308.7 -114.9 L 6390.1 -160.6 L 6329.9 -216.4 L 6188.9 -253.2 L 6201.5 -290.9 L 6116.4 -329.1 L 5985.3 -466 L 6030.1 -522.4 L 6009.6 -620.5 L 5805.2 -670.4 L 5695.5 -645.4 L 5665.8 -697.4 L 5445.6 -749.8 L 5378.4 -873.2 L 5360.6 -974.6 L 5259.9 -1022.7 L 5349.5 -1089.1 L 5287.5 -1284.1 L 5436.2 -1404.6 L 5404.8 -1441.1 L 5404.8 -1441.1 L 5642.4 -1556.7 L 5423.3 -1656.1 L 5423.3 -1656.1 L 5871 -1923 L 6065.2 -2043.8 L 6143.9 -2150.4 L 5834.4 -2293.6 L 5919.9 -2429.9 L 5731.6 -2585.5 L 5872.4 -2764.8 L 5629.2 -3002.8 L 5822.2 -3160.4 L 5501.9 -3299.8 L 5532.5 -3446.2 L 5701.3 -3465.4 L 6057.1 -3549.3 L 6057.1 -3549.3 L 6272.8 -3622 L 6616.3 -3495.6 L 7188.9 -3445.9 L 7978.9 -3209.4 L 8139.4 -3110 L 8153.2 -2970.8 L 7921.1 -2861 L 7579.7 -2805.2 L 6646.2 -2964.2 L 6492.7 -2937.6 L 6833.6 -2784.5 L 6846.9 -2687.5 L 6860.6 -2473.8 L 7129.8 -2410 L 7293.2 -2355.8 L 7320.2 -2457.1 L 7194.2 -2547 L 7327.3 -2626.2 L 7832.8 -2496 L 8008.9 -2547 L 7868.2 -2700.1 L 8355.4 -2904.9 L 8548.4 -2892.9 L 8743.6 -2819.8 L 8865.4 -2963.5 L 8691.1 -3088.1 L 8793.5 -3213.2 L 8639.7 -3342.9 L 9224.6 -3275.8 L 9344.1 -3158.7 L 9079.3 -3132.9 L 9080.8 -3016.5 L 9245.3 -2944.9 L 9568.4 -2990.3 L 9619.5 -3123.6 L 10056.3 -3223.2 L 10786 -3402.8 L 10943.7 -3392.5 L 10737.6 -3265.6 L 10996.9 -3243.8 L 11146.7 -3315.2 L 11538.6 -3321 L 11849.1 -3407.7 L 12087.4 -3281.7 L 12325 -3420.2 L 12105.9 -3541.3 L 12214.6 -3610.3 L 12832.3 -3547.1 L 13121.7 -3481.7 L 13879.4 -3242.8 L 14019.2 -3352.2 L 13806.7 -3462.8 L 13800.6 -3507.1 L 13548.6 -3527.7 L 13617.6 -3626.8 L 13505.7 -3789.9 L 13499.4 -3856.8 L 13885.3 -4046.2 L 14022.5 -4236.2 L 14178 -4277.3 L 14731.5 -4222.2 L 14775.1 -4105.9 L 14576.9 -3936.3 L 14707 -3869.6 L 14774.3 -3723.5 L 14726.8 -3437 L 14957.4 -3308.8 L 14867.7 -3169.2 L 14458.2 -2872.2 L 14697.1 -2841.4 L 14780.3 -2916.7 L 15010.4 -2970.4 L 15065.9 -3073.9 L 15246.8 -3173.4 L 15125 -3292.3 L 15222.6 -3430.3 L 14993.9 -3447.5 L 14943.6 -3563.8 L 15110.5 -3773.8 L 14838.9 -3944.3 L 15213.1 -4085.2 L 15164.7 -4233.9 L 15269 -4238.6 L 15378.9 -4122.7 L 15296.4 -3921 L 15520.1 -3882.8 L 15424.8 -4033.5 L 15774.7 -4115.7 L 16208.7 -4126.8 L 16595.1 -4007.6 L 16409.1 -4181.7 L 16388.3 -4404.5 L 16751.9 -4446.7 L 17254.8 -4437.5 L 17707.9 -4464.9 L 17538 -4574.2 L 17779.9 -4711.5 L 18020.2 -4717.2 L 18426.7 -4821 L 18978.8 -4848.8 L 19048.6 -4906.1 L 19597.6 -4925.5 L 19768.7 -4878.6 L 20238 -4989.7 L 20622.1 -4986.2 L 20679.7 -5076.5 L 20879.5 -5165.5 L 21373.1 -5251.3 L 21731.7 -5183.5 L 21447 -5132 L 21920.6 -5099.9 L 21977.1 -4996.6 L 22168.1 -5047.5 L 22779.4 -5044.7 L 23250.7 -4942.7 L 23418.6 -4864.4 L 23366.6 -4755.7 L 23135.3 -4693.8 L 22585.8 -4577.7 L 22428.7 -4515.7 L 22688 -4486.4 L 22997.3 -4433.7 L 23185.5 -4473.2 L 23292.2 -4339 L 23384 -4393.4 L 23718.3 -4426.4 L 24389.2 -4391.9 L 24440.2 -4294.1 L 25314.3 -4263 L 25326.2 -4422.7 L 25770 -4386.1 L 26103.8 -4387.2 L 26441.4 -4277.1 L 26537.7 -4143.2 L 26414 -4055.7 L 26676.6 -3891.2 L 27005.4 -3806.3 L 27207.2 -4025.7 L 27542.6 -3931.6 L 27898.9 -3987.8 L 28303.6 -3923.5 L 28457.6 -3982.1 L 28799.7 -3952.8 L 28648.7 -4146.9 L 28924.8 -4237.5 L 30813.2 -4101.7 L 30991.2 -3977.6 L 31538.6 -3817.8 L 32382.9 -3857.4 L 32799.1 -3822.9 L 32973.2 -3736.5 L 32947.8 -3583.6 L 33205.4 -3524 L 33485.2 -3566.9 L 33856 -3572.3 L 34250.8 -3531.3 L 34647.1 -3554.4 L 35011.3 -3368.6 L 35270.4 -3435.5 L 35101.3 -3569.1 L 35194.4 -3662 L 35861.5 -3603.5 L 36296.4 -3616 L 36897.8 -3516.2 L 37190.5 -3425 L 37190.5 -2592 L 37189 -2590.9 L 36920.2 -2499 L 36649.2 -2514.3 L 36837.8 -2403 L 36962.2 -2230.7 L 37058.9 -2174.4 L 37083.1 -2087.9 L 37029.2 -2032.6 L 36639.4 -2078.1 L 36055 -1920.7 L 35869.1 -1896.3 L 35549.2 -1749.4 L 35245.7 -1621.1 L 35168.8 -1526.1 L 34869.7 -1670.7 L 34324.9 -1506.6 L 34229.8 -1584.2 L 34028.4 -1494.7 L 33748.7 -1523.3 L 33681.4 -1385.8 L 33430.5 -1183.5 L 33438 -1099 L 33676.1 -1052.1 L 33648.1 -747.7 L 33454 -740 L 33364.5 -565.1 L 33451.4 -475 L 33085.8 -368.2 L 33013.2 -129.5 L 32701.5 -78.5 L 32638.9 133.9 L 32337.5 328.7 L 32260.2 184.7 L 32170.6 -120.4 L 32053.9 -585 L 32154.4 -875 L 32330.9 -999.8 L 32341.8 -1097.5 L 32666.7 -1144.3 L 33040.2 -1407.5 L 33400.1 -1622.5 L 33776 -1789.3 L 33944.1 -2084.1 L 33690 -2066.5 L 33564.4 -1894.2 L 33034.1 -1664.6 L 32862.8 -1921.7 L 32323 -1850.7 L 31799.7 -1500.2 L 31972.4 -1372 L 31505.7 -1317.4 L 31182.4 -1295.9 L 31197.6 -1447.1 L 30872.6 -1478.8 L 30613.5 -1376.1 L 29974.2 -1412 L 29286.4 -1350.1 L 28609.1 -941.9 L 27807.8 -448.8 L 28137.2 -422.4 L 28240 -291.5 L 28443.1 -245 L 28576.9 -349.5 L 28806.3 -335.9 L 29108.2 -105.9 L 29115.3 72 L 28951.8 280.9 L 28934.2 530.6 L 28839.8 864.9 L 28524.7 1167.5 L 28454.6 1312.1 L 28170.8 1555.6 L 27889.2 1797 L 27754.1 1920.5 L 27475.5 2043.2 L 27343.6 2045.9 L 27212.3 1944.3 L 26931.7 2097.3 L 26899.1 2166.8 L 26899.1 2166.8 L 26899.1 2166.8 L 26899.1 2166.8 L 26869.8 2130.3 L 26869.8 2130.3 L 26868.5 2024 L 26975.3 2018.4 L 27005.4 1771.3 L 26950.3 1592.3 L 27129.8 1518.4 L 27383.6 1555.4 L 27524.2 1352 L 27595.8 1123 L 27677 1046.4 L 27786.9 858.3 L 27441.4 919.9 L 27260.1 1002.4 L 26942.4 1002.2 L 26857.7 805.7 L 26610.1 657.1 L 26246.2 590.2 L 26168.8 385.4 L 26096 257 L 26017.6 167 L 25888.4 -43.8 L 25704.8 -120.8 L 25391.8 -183.1 L 25114.6 -177.4 L 24854.8 -139.7 L 24682.1 -35.7 L 24796.8 14 L 24799.4 129.4 L 24683.1 196.5 L 24494.4 418.2 L 24496.3 510.2 L 24201.6 642.4 L 23950.6 563.4 L 23701.2 580.9 L 23591.7 510.8 L 23466.3 488.2 L 23160 635.6 L 22884.8 670.2 L 22692.6 722 L 22429.2 688 L 22235.3 690.1 L 22108.4 583.3 L 21903.6 482.8 L 21694.1 455.2 L 21429.6 482.6 L 21232 521.3 L 20934.9 433.4 L 20895.1 276.7 L 20649.2 223 L 20459.4 198.5 L 20225.2 112 L 20008.6 328.7 L 20093.5 451.8 L 19890.3 597.4 L 19588 544.8 L 19379.3 537.3 L 19239.6 439.6 L 19021.4 436.6 L 18839.6 372.4 L 18521.6 470.7 L 18122.6 650.8 L 17902.1 687.1 L 17820.3 704.3 L 17709.4 576.4 L 17440.1 604.3 L 17351 515.6 L 17204.8 475 L 17104.2 354.2 L 16988.8 316.6 L 16688.3 370.3 L 16400.3 249.8 L 16288.9 359.3 L 15821.6 -171.7 L 15554.9 -333.3 L 15631.4 -398.8 L 15107.3 -201.5 L 14906.8 -189.6 L 14924.1 -303.7 L 14655.6 -375 L 14437.3 -324.1 L 14371.4 -540.8 L 13995.7 -585.9 L 13807.7 -499.1 L 13284.5 -422 L 13182.4 -370.3 L 12400 -297.5 L 12304.1 -226.2 L 12455.1 -83 L 12254.3 -28.6 L 12293.5 28.4 L 12092.8 130.2 L 12431.6 274 L 12379.3 373 L 12085.6 364 L 12024.8 426.1 L 11757.4 317.7 L 11425.9 321.9 L 11204.1 410.1 L 10956.5 325.5 L 10495.6 180.8 L 10169 186.2 L 9737.4 413.6 L 9711.3 566.3 L 9496.3 445 L 9329.5 674.8 L 9390.6 717.4 L 9269.9 875.9 L 9447.3 1017.7 L 9602.5 1011.9 L 9735.8 1151.6 L 9714.6 1259.2 L 9820.8 1293 Z M 19162.2 -5946.8 L 19614.5 -5994.1 L 20020.8 -5888.8 L 20502.3 -5686.6 L 20450.6 -5498.6 L 19994.4 -5472.5 L 19412.1 -5532.9 L 19065 -5612.7 L 18904.6 -5762.7 L 18619.3 -5804 L 19162.2 -5946.8 Z M 21056.6 -5582.3 L 21586.6 -5463.6 L 21524.5 -5378.6 L 20345.8 -5297.9 L 20727.7 -5572.4 L 20899.5 -5595.9 L 21056.6 -5582.3 Z M 28582.5 -4924.8 L 29134.6 -4915.7 L 29890.4 -4804.8 L 29726 -4649.5 L 28955.2 -4655.3 L 28608.5 -4605.9 L 28194.3 -4741.9 L 28306.6 -4885.6 L 28582.5 -4924.8 Z M 30546.1 -4759.5 L 31070.8 -4704.7 L 30829.1 -4622.1 L 30494.9 -4640.8 L 30106.3 -4723.3 L 30156.4 -4791 L 30546.1 -4759.5 Z M 28798.3 -4346.3 L 28996.6 -4428.9 L 29258 -4448.3 L 29555.1 -4368.3 L 29580.4 -4313.4 L 29263.4 -4311.9 L 28834.9 -4335.2 L 28798.3 -4346.3 Z M 8931.2 -5855.9 L 9339.4 -5894 L 9657.1 -5896.5 L 9699.8 -5840.2 L 9819.9 -5890.3 L 10017 -5924.7 L 10327.1 -5878.9 L 10246.3 -5847 L 9965.6 -5819.5 L 9777.5 -5803.6 L 9748.4 -5769.3 L 9504 -5734.7 L 9277.5 -5784.3 L 9396.6 -5849.6 L 8931.2 -5855.9 Z M 4307 -364.7 L 3922.5 -361.6 L 3665 -385.3 L 3712.7 -477.3 L 4001.2 -545.2 L 4220.2 -508.5 L 4312.6 -475.3 L 4290.3 -418.1 L 4307 -364.7 Z M 10742.2 -4425.7 L 11242.8 -4609.3 L 11186.3 -4704.2 L 11654 -4814.6 L 12344.3 -4948.9 L 13040.2 -4988 L 13398.3 -5065.6 L 13805.2 -5092.7 L 13950.5 -5010.2 L 13810.1 -4945.1 L 13069.2 -4841.4 L 12430.7 -4741.7 L 11781.2 -4542.7 L 11469.6 -4338.6 L 11141.8 -4137.5 L 11184.4 -3963.8 L 11584.3 -3792.3 L 11460.8 -3774 L 10777.6 -3801.2 L 10722.1 -3894 L 10343.6 -3950.1 L 10313.1 -4063 L 10526.9 -4107.9 L 10519.8 -4221.9 L 10934.5 -4400.2 L 10742.2 -4425.7 Z M 29436.3 -234.5 L 29508.7 -32.9 L 29503.3 172.8 L 29589.6 383.8 L 29800 754.1 L 29490.5 685.1 L 29361.9 987.2 L 29565.7 1201.5 L 29559.8 1347.6 L 29401.4 1221.6 L 29264.3 1383.4 L 29225.6 1208 L 29248.9 1004.3 L 29225.1 778.7 L 29273.5 620.6 L 29282.7 341 L 29160.2 135.4 L 29178.7 -150.3 L 29372 -246.5 L 29288.9 -343.4 L 29382 -372.7 L 29436.3 -234.5 Z M -37021.8 -3057.5 L -37039.7 -2927.5 L -36898.7 -2875.5 L -36947.2 -3027.4 L -36379.6 -2996.3 L -35970.3 -2800.6 L -36177.6 -2709.4 L -36520.4 -2687.8 L -36525.5 -2483.5 L -36609.2 -2440 L -36805.1 -2446.2 L -36964.4 -2519.1 L -37242.4 -2580.1 L -37289.2 -2670.8 L -37501.5 -2705 L -37739.3 -2677.9 L -37852.9 -2751.1 L -37807.5 -2828.8 L -38057.9 -2779.1 L -37963.6 -2680.7 L -38082.2 -2592 L -38082.2 -3425 L -37569.9 -3265.3 L -37021.8 -3057.5 Z M -37809.1 -3828.4 L -38082.2 -3815.7 L -38082.2 -3958.6 L -38055.4 -3967.4 L -37878.2 -3966.9 L -37575.8 -3907.1 L -37593.7 -3878.5 L -37809.1 -3828.4 Z M 6545.3 1382.4 L 6600.4 1330.6 L 6749.1 1375.4 L 6816.3 1383.7 L 6843.4 1425 L 6875 1431.3 L 6876.7 1449.4 L 6979 1499.8 L 7192.2 1487.3 L 7151.4 1561.9 L 6922.5 1598.1 L 6638.7 1719.1 L 6522.4 1676.6 L 6568.5 1578.3 L 6340 1517.1 L 6377 1477 L 6577.1 1407.5 L 6545.3 1382.4 Z" />
<path class="neighbor" d="M -11247 10125.6 L -11370.7 10317 L -11434.9 10471 L -11515 10550.4 L -11615.2 10565.3 L -11643.7 10506.5 L -11690.4 10497.7 L -11755.2 10554.4 L -11846.5 10511.3 L -11793.1 10423.3 L -11774.8 10327.7 L -11738.2 10237.7 L -11820.3 10113.8 L -11836.8 9970.8 L -11728 9791 L -11657 9814 L -11503 9863.5 L -11281.6 10040 L -11247 10125.6 Z M 847.7 652.2 L 946.3 707 L 1247.6 745.5 L 1141.9 888.7 L 1115.4 1037.6 L 1058 1073.4 L 962.7 1054.1 L 969.4 1107.2 L 816.5 1224.7 L 813.4 1319.4 L 913.3 1286.6 L 985.1 1378.3 L 976.5 1437.4 L 1038 1515.9 L 965.5 1579.6 L 1019.4 1741.4 L 1132.7 1767.9 L 1108.8 1858.7 L 919.4 1976.8 L 507 1920.2 L 202.4 1988 L 178.5 2113.9 L -63.9 2141 L -299.2 2046.5 L -375.2 2091.7 L -760.1 1996.6 L -843.4 1915.4 L -735.3 1789.9 L -695.5 1373.4 L -911.2 1153.9 L -1065.4 1048.1 L -1385 967.7 L -1406.1 815.3 L -1135 769.8 L -783.8 823.6 L -850.1 586.9 L -652.7 676.6 L -165.9 513.5 L -103.1 342.2 L 79.7 300 L 110 373.5 L 207.2 377 L 304.4 460.9 L 450.3 559.5 L 557.6 543.2 L 740.5 638.5 L 787.3 656.7 L 847.7 652.2 Z M 1382.9 2081.5 L 1517.5 2001.7 L 1553.1 2181 L 1484 2342.5 L 1389.1 2299.9 L 1340.7 2159.2 L 1382.9 2081.5 Z" />
<path class="neighbor" d="M 2506.5 -245.4 L 2555.3 -139 L 2497 -83.2 L 2572.9 -8.7 L 2624.7 103.1 L 2608.4 175.2 L 2694.1 308.7 L 2600.8 330.5 L 2545.6 306.5 L 2493.2 346.3 L 2343 386.8 L 2265.4 438.9 L 2113.4 484.4 L 2150.1 546.6 L 2172.2 634.8 L 2278.9 685 L 2396.9 774.9 L 2323.2 871.3 L 2248.1 897.8 L 2277.7 1034.1 L 2258.2 1069.6 L 2193 1026.8 L 2092.8 1020.4 L 1943.3 1057.9 L 1758.9 1049 L 1729.1 1104.1 L 1623.3 1046.1 L 1560.2 1057.6 L 1336.2 993.7 L 1293.2 1039.1 L 1115.4 1037.6 L 1141.9 888.7 L 1247.6 745.5 L 946.3 707 L 847.7 652.2 L 859.5 560.6 L 817.7 513.3 L 841.5 372.1 L 806.3 153 L 931.9 152.9 L 984.9 74.2 L 1037 -117.3 L 998 -188 L 1038.8 -232.2 L 1213.5 -243.6 L 1252.3 -197.5 L 1394.3 -300.6 L 1346.5 -379 L 1336.9 -497.5 L 1494.9 -470 L 1628.7 -501.8 L 1632.4 -421 L 1843.7 -372.3 L 1841.5 -298.1 L 2054.1 -337.3 L 2171.6 -394.6 L 2407.7 -312 L 2506.5 -245.4 Z" />
<path class="neighbor" d="M 1560.2 1057.6 L 1568.3 1094.7 L 1536.3 1145.9 L 1630.9 1184 L 1737.6 1189.7 L 1721 1275.4 L 1628.9 1310.6 L 1474.2 1284.4 L 1428.9 1368.8 L 1329.3 1375.4 L 1293.1 1342.3 L 1175.9 1413.2 L 1075 1423.1 L 985.1 1378.3 L 913.3 1286.6 L 813.4 1319.4 L 816.5 1224.7 L 969.4 1107.2 L 962.7 1054.1 L 1058 1073.4 L 1115.4 1037.6 L 1293.2 1039.1 L 1336.2 993.7 L 1560.2 1057.6 Z" />
<path class="neighbor" d="M 841.5 372.1 L 817.7 513.3 L 763.2 521.2 L 740.5 638.5 L 557.6 543.2 L 450.3 559.5 L 304.4 460.9 L 207.2 377 L 110 373.5 L 79.7 300 L 247.3 258.7 L 247.3 258.7 L 247.3 258.7 L 400.4 275.1 L 594.2 231.7 L 726.5 323.2 L 841.5 372.1 Z" />
<path class="neighbor" d="M 998 -188 L 1037 -117.3 L 984.9 74.2 L 931.9 152.9 L 806.3 153 L 841.5 372.1 L 726.5 323.2 L 594.2 231.7 L 400.4 275.1 L 247.3 258.7 L 247.3 258.7 L 355 201.3 L 538.1 -106.3 L 824.2 -193.9 L 998 -188 Z" />

<path class="country" d="M 817.7 513.3 L 859.5 560.6 L 847.7 652.2 L 787.3 656.7 L 740.5 638.5 L 763.2 521.2 L 817.7 513.3 Z" />

<path class="river" d="M 668.8 129.7 L 633.3 123.3 L 599.4 126.7 L 555.1 137.7 L 515.1 143.4 L 479.6 143.6 L 449.1 138.9 L 408.3 123.2" />
<path class="river" d="M 816.8 148.7 L 792.5 130.2 L 755.9 125.8 L 668.8 129.7" />
<path class="river" d="M 1411.1 1030.1 L 1373.3 1023.9 L 1356.5 1028.9 L 1348.1 1043.1 L 1327.7 1046.9 L 1295.4 1040.5 L 1268.3 1040.5 L 1246.5 1046.9 L 1211.6 1049.5 L 1163.7 1048.2 L 1136 1040.6 L 1128.5 1026.5 L 1130.4 1005.6 L 1141.8 978 L 1145 957.8 L 1139.9 944.9 L 1146.7 925.5 L 1165.3 899.7 L 1177.8 872.6 L 1184 844 L 1193 825.3 L 1210.7 812.2 L 1275 756.4" />
<path class="river" d="M 1275 756.4 L 1314.1 704.5 L 1328.5 680.1 L 1331.1 666.1 L 1329.1 658 L 1322.6 655.8 L 1315.1 643.6 L 1306.5 621.4 L 1308.3 604.9 L 1317.1 596.9 L 1318.2 588.8 L 1310.8 578.8 L 1301.6 558.7 L 1290.6 544.2 L 1277.8 535.3 L 1253.9 534.6 L 1218.9 542.1 L 1185.7 531.3 L 1154.5 502.3 L 1144.7 493.6 L 1145.6 484.4 L 1149.3 472.4 L 1144.9 463.5 L 1134.2 456.5 L 1110.6 449.6 L 1089.6 438.5 L 1071.5 423.2 L 1060.4 410.1 L 1056.4 399.4 L 1043.9 386.6 L 1023.1 371.9 L 1016.6 361.8 L 1016.6 351.1 L 1012.2 343.9 L 1011.2 331.4 L 1004.8 322.6 L 992.9 317.6 L 986.6 310.7 L 985.9 302 L 979.4 295.7 L 967.1 291.9 L 967.5 283.5 L 963.7 275 L 952.9 267.7 L 954.7 254.8 L 956.6 242.8 L 954.6 235.3 L 953.7 229.2 L 952.4 221.4 L 939.2 214.1 L 932.7 207.3 L 933.3 197.7 L 883.4 169 L 853 156 L 825.4 149.3 L 816.8 148.7 L 803.5 147.7 L 787.4 151.3 L 762.8 150.5 L 729.7 145.3 L 702.4 147.5 L 680.9 156.9 L 651.8 160.9 L 596.5 158.8" />
<path class="river" d="M 538.5 1046.6 L 512.7 1012.7 L 506.3 997.5 L 510.6 989.6 L 508.7 981 L 496.3 967.1 L 475.9 941.2 L 457.8 927.9 L 435.2 918.6 L 410.6 899 L 384.1 868.9 L 360.9 850.3 L 341 843 L 298.8 848.4 L 234 866.3 L 189.5 876.1 L 165 877.7 L 143.6 872.7 L 115.9 855.3 L 92.2 846.8 L 76.7 836.7 L 61.8 822.3 L 56.9 812.1 L 62.3 806 L 62.3 798.2 L 56.8 788.7 L 45.9 783.9 L 34.3 780.1 L 28.8 775.3 L 24.6 768.4 L 17.7 767.7 L 8.6 769.3 L 2.5 764.2 L 1.1 760.1 L -4.4 758 L -14.8 758.8 L -25.9 757.4 L -32.7 750 L -47 748 L -68.8 751.3 L -86.6 750.9 L -95.7 745.6 L -97.1 739.3 L -104 736.6 L -114.4 738.3 L -132.9 731.6 L -153.8 715.8 L -162.8 705 L -171.1 703.4 L -178.5 704.8 L -185.7 703.1 L -187 698.2 L -189.1 690.2 L -197.3 685.1 L -217.4 684 L -225 680.6 L -227.8 675 L -231.9 669.5 L -242.6 670.1 L -251.4 667.7 L -258.2 660.5 L -267.4 662.5 L -272.7 660.1 L -281.7 650.8 L -295.6 648.8 L -309.6 652.9 L -323.5 654.4 L -342.7 646 L -354 650.3" />
<path class="river" d="M 596.5 158.8 L 542.2 172.8 L 512.1 180.7 L 478 176.3 L 405.9 155.2 L 386.1 153.8" />
<path class="river" d="M 198.8 1170.4 L 186 1136.2 L 163.8 1107.3 L 159 1091.4 L 164.2 1078.9 L 156.9 1063.1 L 137.2 1044.1 L 100.8 1022.9 L 47.6 999.4 L 2.7 985.2 L -33.8 980.4 L -60 980.8 L -76.1 986.3 L -109.6 1007.6 L -160.6 1044.7 L -203.7 1068.3 L -238.9 1078.5 L -275.3 1084.6 L -313 1086.6 L -356.4 1096.2 L -402.5 1116.4 L -430.1 1121.8 L -453.9 1115.3 L -491.1 1091.2 L -533.3 1083.2 L -598.7 1089.8 L -666.7 1089.1 L -706.9 1097.1 L -742 1113.5 L -771.8 1122.2 L -787.2 1125.2 L -810.2 1122.2 M 198.8 1170.5 L 216.6 1172.2 L 233.4 1177.5 L 250.2 1199.6 L 283.8 1203.1 L 312.2 1221.7 L 332.9 1243 L 338 1259.8 L 361.3 1270.5 L 387.1 1280.3 L 388.4 1297.2 L 398.8 1326.7 L 411.7 1341.9 L 411.7 1363.4 L 397.5 1381.3 L 401.4 1392.1 L 423.3 1407.4 L 434.9 1429.9 L 436.2 1454.3 L 444 1485.9 L 432.4 1508.6 L 418.2 1521.3 L 407.8 1535.9 L 380.7 1544.1 L 371.6 1561.4 L 374.2 1577.8 L 370.3 1591.5 L 375.5 1612.5 L 405.2 1625.4 L 425.9 1632.7 L 432.4 1622.6" />
<g class="city"><circle cx="459.8027136363642" cy="365.47472272727316" r="5" /><text x="471.8027136363642" y="369.47472272727316">Brussels</text></g>
<g class="city"><circle cx="1174.6084227272725" cy="837.0368227272722" r="5" /><text x="1186.6084227272725" y="841.0368227272722">Strasbourg</text></g>
<g class="city"><circle cx="850.5210681818182" cy="815.3509590909084" r="5" /><text x="862.5210681818182" y="819.3509590909084">Nancy</text></g>
<g class="city"><circle cx="396.78375909090965" cy="696.857259090908" r="5" /><text x="408.78375909090965" y="700.857259090908">Reims</text></g>
<g class="city"><circle cx="835.8803136363638" cy="621.3189863636359" r="5" /><text x="847.8803136363638" y="625.3189863636359">Luxembourg</text></g>
<text class="map-title" x="80" y="105">Luxembourg Physical Study Map</text>
<text class="map-subtitle" x="80" y="145">Landmark: Bock Casemates | Study terrain and water systems</text>
  <text class="footer" x="80" y="1036">Made with Natural Earth. Free vector and raster map data @ naturalearthdata.com.</text>
</svg>
