<?xml version="1.0" encoding="UTF-8"?>
<svg xmlns="http://www.w3.org/2000/svg" width="1600" height="1100" viewBox="0 0 1600 1100" role="img" aria-labelledby="title desc">
  <title id="title">Latvia Physical Study Map</title>
  <desc id="desc">Made with Natural Earth. Free vector and raster map data @ naturalearthdata.com.</desc>
  <defs>
    <linearGradient id="terrain" x1="0" x2="1" y1="0" y2="1">
      <stop offset="0%" stop-color="#6c8c53" />
      <stop offset="42%" stop-color="#d5c487" />
      <stop offset="72%" stop-color="#b88b5f" />
      <stop offset="100%" stop-color="#f1f5ee" />
    </linearGradient>
    <filter id="softShadow" x="-10%" y="-10%" width="120%" height="120%">
      <feDropShadow dx="0" dy="10" stdDeviation="12" flood-color="#0f172a" flood-opacity="0.16" />
    </filter>
    <style>
      .neighbor { fill: #ffffff; stroke: #94a3b8; stroke-width: 1.2; opacity: 0.72; }
      .country { fill: url(#terrain); stroke: #1f2937; stroke-width: 4; filter: url(#softShadow); }
      .admin1 { fill: none; stroke: #64748b; stroke-width: 1.1; stroke-dasharray: 6 7; opacity: 0.75; }
      .river { fill: none; stroke: #1d9bd1; stroke-width: 3; stroke-linecap: round; opacity: 0.88; }
      .lake { fill: #8ed1ea; stroke: #0ea5e9; stroke-width: 1.5; opacity: 0.8; }
      .city circle { fill: #ef4444; stroke: #ffffff; stroke-width: 2; }
      .city text, .terrain-label { fill: #172033; font: 700 24px system-ui, sans-serif; paint-order: stroke; stroke: #ffffff; stroke-width: 5; stroke-linejoin: round; }
      .map-title { fill: #0f172a; font: 800 46px system-ui, sans-serif; }
      .map-subtitle { fill: #475569; font: 600 24px system-ui, sans-serif; }
      .footer { fill: #64748b; font: 500 18px system-ui, sans-serif; }
    </style>
  </defs>
  <rect width="100%" height="100%" fill="#d8edf0" />
  <rect x="40" y="40" width="1520" height="1020" rx="32" fill="#ffffff" opacity="0.54" />
  <path class="neighbor" d="M 16165.7 -841.4 L 16292.7 -883 L 16292.7 -814.8 L 16183.4 -809.7 L 16165.7 -841.4 Z M 3241.3 1621.3 L 3195.9 1680.4 L 3099.2 1696.8 L 3000.1 1799.8 L 3090.7 1894.4 L 3080.9 1961.6 L 3189.8 2079 L 3189.8 2079 L 3130.2 2119.2 L 3113.1 2144.5 L 3069 2137.7 L 3000.5 2077.2 L 2972.5 2073.8 L 2909.8 2050.7 L 2879.3 2009.8 L 2786.3 1988.9 L 2725.8 2004.6 L 2708.4 1986.1 L 2572.6 1938.2 L 2425.8 1922.1 L 2341.5 1905.1 L 2329.4 1916.8 L 2202.2 1832.6 L 2088.5 1795 L 2002.4 1736.4 L 2074.9 1720.5 L 2157.7 1637.1 L 2101.9 1597.6 L 2248.9 1556.9 L 2246.2 1535.1 L 2156.7 1551.2 L 2159.9 1506.9 L 2211.3 1479.1 L 2307.8 1471.8 L 2323.5 1438.5 L 2301.4 1383.5 L 2341.9 1331.3 L 2340.7 1302 L 2193.8 1269.6 L 2135.5 1270.7 L 2074 1224 L 1997.5 1239.8 L 1870.8 1204.7 L 1873 1185.1 L 1837.5 1141.9 L 1758 1137 L 1749.8 1106.1 L 1774.7 1085.9 L 1711 1029.4 L 1607.6 1039.1 L 1577.3 1034.1 L 1552.1 1056.7 L 1514.9 1052.7 L 1514.9 1052.7 L 1490.3 988.9 L 1466.9 955.8 L 1486.1 946.5 L 1566.6 949.9 L 1605.4 928.1 L 1576.6 901.5 L 1509.4 884 L 1515.4 866 L 1474.8 847.8 L 1412.3 782.5 L 1433.7 755.6 L 1423.9 708.8 L 1326.5 685 L 1274.1 696.9 L 1260 672.2 L 1155 647.2 L 1123 588.3 L 1114.5 540 L 1066.4 517 L 1109.1 485.4 L 1079.6 392.4 L 1150.5 334.9 L 1135.5 317.5 L 1135.5 317.5 L 1248.8 262.4 L 1144.4 215 L 1144.4 215 L 1357.8 87.7 L 1450.5 30.1 L 1488 -20.7 L 1340.4 -89 L 1381.1 -154 L 1291.4 -228.2 L 1358.5 -313.7 L 1242.5 -427.2 L 1334.5 -502.4 L 1181.8 -568.8 L 1196.4 -638.6 L 1276.9 -647.8 L 1446.6 -687.8 L 1446.6 -687.8 L 1549.4 -722.5 L 1713.2 -662.2 L 1986.3 -638.5 L 2363 -525.7 L 2439.5 -478.3 L 2446.1 -412 L 2335.4 -359.6 L 2172.6 -333 L 1727.5 -408.8 L 1654.3 -396.1 L 1816.9 -323.1 L 1823.2 -276.8 L 1829.7 -174.9 L 1958.1 -144.5 L 2036 -118.6 L 2048.9 -167 L 1988.8 -209.8 L 2052.3 -247.6 L 2293.3 -185.5 L 2377.3 -209.8 L 2310.2 -282.9 L 2542.6 -380.5 L 2634.6 -374.8 L 2727.7 -339.9 L 2785.8 -408.4 L 2702.6 -467.9 L 2751.4 -527.5 L 2678.1 -589.4 L 2957 -557.4 L 3014 -501.5 L 2887.7 -489.2 L 2888.4 -433.7 L 2966.9 -399.6 L 3121 -421.2 L 3145.3 -484.8 L 3353.6 -532.3 L 3701.6 -617.9 L 3776.8 -613 L 3678.5 -552.5 L 3802.2 -542.1 L 3873.6 -576.2 L 4060.5 -578.9 L 4208.5 -620.3 L 4322.1 -560.2 L 4435.5 -626.2 L 4331 -684 L 4382.8 -716.9 L 4677.4 -686.7 L 4815.4 -655.6 L 5176.7 -541.7 L 5243.4 -593.8 L 5142 -646.5 L 5139.1 -667.7 L 5019 -677.5 L 5051.8 -724.8 L 4998.5 -802.5 L 4995.5 -834.5 L 5179.5 -924.7 L 5244.9 -1015.4 L 5319.1 -1035 L 5583 -1008.7 L 5603.8 -953.2 L 5509.3 -872.3 L 5571.3 -840.6 L 5603.4 -770.9 L 5580.8 -634.2 L 5690.8 -573.1 L 5648 -506.6 L 5452.7 -364.9 L 5566.6 -350.2 L 5606.3 -386.1 L 5716 -411.7 L 5742.5 -461.1 L 5828.8 -508.6 L 5770.7 -565.2 L 5817.2 -631.1 L 5708.2 -639.3 L 5684.2 -694.7 L 5763.7 -794.8 L 5634.2 -876.2 L 5812.7 -943.4 L 5789.6 -1014.3 L 5839.3 -1016.5 L 5891.7 -961.2 L 5852.4 -865 L 5959.1 -846.8 L 5913.6 -918.7 L 6080.5 -957.9 L 6287.4 -963.2 L 6471.7 -906.3 L 6383 -989.4 L 6373.1 -1095.6 L 6546.5 -1115.7 L 6786.3 -1111.3 L 7002.3 -1124.4 L 6921.3 -1176.5 L 7036.7 -1242 L 7151.2 -1244.7 L 7345.1 -1294.2 L 7608.4 -1307.5 L 7641.6 -1334.8 L 7903.5 -1344.1 L 7985 -1321.7 L 8208.8 -1374.7 L 8392 -1373 L 8419.5 -1416 L 8514.7 -1458.5 L 8750.1 -1499.4 L 8921.1 -1467.1 L 8785.4 -1442.5 L 9011.2 -1427.2 L 9038.1 -1378 L 9129.2 -1402.2 L 9420.7 -1400.9 L 9645.5 -1352.3 L 9725.5 -1314.9 L 9700.7 -1263.1 L 9590.4 -1233.6 L 9328.4 -1178.2 L 9253.5 -1148.6 L 9377.1 -1134.7 L 9524.6 -1109.5 L 9614.4 -1128.4 L 9665.2 -1064.4 L 9709 -1090.3 L 9868.5 -1106 L 10188.4 -1089.6 L 10212.7 -1042.9 L 10629.5 -1028.1 L 10635.2 -1104.3 L 10846.8 -1086.8 L 11006 -1087.4 L 11167 -1034.8 L 11212.9 -971 L 11153.9 -929.3 L 11279.1 -850.8 L 11435.9 -810.3 L 11532.1 -914.9 L 11692.1 -870.1 L 11862 -896.9 L 12055 -866.2 L 12128.4 -894.2 L 12291.5 -880.2 L 12219.5 -972.8 L 12351.2 -1016 L 13251.7 -951.2 L 13336.6 -892 L 13597.6 -815.8 L 14000.2 -834.7 L 14198.7 -818.3 L 14281.7 -777 L 14269.6 -704.1 L 14392.4 -675.8 L 14525.9 -696.2 L 14702.7 -698.8 L 14890.9 -679.2 L 15079.9 -690.3 L 15253.6 -601.6 L 15377.1 -633.5 L 15296.5 -697.2 L 15340.9 -741.5 L 15659 -713.7 L 15866.4 -719.6 L 16153.2 -672 L 16292.7 -628.5 L 16292.7 -231.3 L 16292 -230.8 L 16163.8 -187 L 16034.6 -194.3 L 16124.5 -141.2 L 16183.9 -59 L 16230 -32.2 L 16241.5 9.1 L 16215.8 35.5 L 16030 13.8 L 15751.3 88.8 L 15662.6 100.4 L 15510.1 170.5 L 15365.3 231.7 L 15328.7 277 L 15186.1 208 L 14926.3 286.3 L 14880.9 249.3 L 14784.9 292 L 14651.5 278.3 L 14619.4 343.9 L 14499.8 440.4 L 14503.3 480.7 L 14616.9 503 L 14603.5 648.2 L 14511 651.8 L 14468.3 735.3 L 14509.7 778.2 L 14335.4 829.1 L 14300.8 943 L 14152.1 967.3 L 14122.3 1068.6 L 13978.5 1161.5 L 13941.7 1092.8 L 13899 947.3 L 13843.3 725.7 L 13891.3 587.5 L 13975.4 528 L 13980.6 481.4 L 14135.5 459.1 L 14313.6 333.5 L 14485.3 231 L 14664.5 151.4 L 14744.7 10.9 L 14623.5 19.3 L 14563.6 101.4 L 14310.7 210.9 L 14229.1 88.3 L 13971.7 122.2 L 13722.1 289.3 L 13804.5 350.5 L 13581.9 376.5 L 13427.8 386.8 L 13435 314.7 L 13280 299.5 L 13156.5 348.5 L 12851.6 331.4 L 12523.6 360.9 L 12200.6 555.5 L 11818.5 790.7 L 11975.6 803.3 L 12024.7 865.7 L 12121.5 887.9 L 12185.3 838.1 L 12294.7 844.5 L 12438.6 954.2 L 12442 1039 L 12364.1 1138.7 L 12355.7 1257.7 L 12310.7 1417.1 L 12160.4 1561.4 L 12127 1630.4 L 11991.6 1746.5 L 11857.3 1861.6 L 11792.9 1920.5 L 11660.1 1979 L 11597.2 1980.3 L 11534.6 1931.8 L 11400.7 2004.8 L 11385.2 2038 L 11385.2 2038 L 11385.2 2038 L 11385.2 2038 L 11371.2 2020.5 L 11371.2 2020.5 L 11370.6 1969.9 L 11421.6 1967.2 L 11435.9 1849.4 L 11409.6 1764 L 11495.2 1728.8 L 11616.2 1746.4 L 11683.3 1649.4 L 11717.5 1540.2 L 11756.2 1503.7 L 11808.6 1414 L 11643.8 1443.4 L 11557.4 1482.7 L 11405.9 1482.6 L 11365.5 1388.9 L 11247.4 1318 L 11073.9 1286.2 L 11037 1188.5 L 11002.2 1127.3 L 10964.9 1084.4 L 10903.3 983.8 L 10815.7 947.1 L 10666.5 917.4 L 10534.3 920.1 L 10410.4 938.1 L 10328 987.7 L 10382.7 1011.4 L 10384 1066.4 L 10328.5 1098.4 L 10238.5 1204.1 L 10239.4 1248 L 10098.9 1311 L 9979.2 1273.4 L 9860.3 1281.7 L 9808.1 1248.3 L 9748.3 1237.5 L 9602.2 1307.8 L 9471 1324.3 L 9379.3 1349 L 9253.7 1332.8 L 9161.3 1333.8 L 9100.7 1282.8 L 9003.1 1234.9 L 8903.2 1221.8 L 8777 1234.8 L 8682.8 1253.3 L 8541.2 1211.4 L 8522.2 1136.6 L 8404.9 1111 L 8314.4 1099.3 L 8202.7 1058.1 L 8099.5 1161.5 L 8139.9 1220.2 L 8043 1289.6 L 7898.9 1264.5 L 7799.4 1260.9 L 7732.7 1214.4 L 7628.7 1212.9 L 7542 1182.3 L 7390.3 1229.2 L 7200.1 1315.1 L 7095 1332.3 L 7055.9 1340.5 L 7003 1279.6 L 6874.6 1292.9 L 6832.2 1250.6 L 6762.5 1231.2 L 6714.5 1173.6 L 6659.4 1155.7 L 6516.1 1181.3 L 6378.8 1123.8 L 6325.7 1176 L 6102.8 922.8 L 5975.7 845.8 L 6012.1 814.5 L 5762.2 908.6 L 5666.6 914.3 L 5674.9 859.9 L 5546.8 825.9 L 5442.7 850.2 L 5411.3 746.8 L 5232.1 725.3 L 5142.5 766.7 L 4893 803.5 L 4844.3 828.1 L 4471.2 862.8 L 4425.5 896.8 L 4497.5 965.1 L 4401.8 991.1 L 4420.4 1018.2 L 4324.7 1066.8 L 4486.3 1135.4 L 4461.3 1182.6 L 4321.3 1178.3 L 4292.3 1207.9 L 4164.8 1156.2 L 4006.7 1158.2 L 3900.9 1200.3 L 3782.9 1159.9 L 3563.1 1090.9 L 3407.4 1093.5 L 3201.5 1201.9 L 3189.1 1274.8 L 3086.6 1216.9 L 3007 1326.5 L 3036.2 1346.8 L 2978.6 1422.4 L 3063.2 1490 L 3137.2 1487.2 L 3200.8 1553.8 L 3190.7 1605.2 L 3241.3 1621.3 Z M 7695.8 -1831.1 L 7911.5 -1853.6 L 8105.2 -1803.4 L 8334.9 -1707 L 8310.2 -1617.3 L 8092.7 -1604.9 L 7815 -1633.7 L 7649.5 -1671.7 L 7573 -1743.3 L 7436.9 -1763 L 7695.8 -1831.1 Z M 8599.2 -1657.3 L 8851.9 -1600.6 L 8822.3 -1560.1 L 8260.2 -1521.6 L 8442.4 -1652.5 L 8524.3 -1663.8 L 8599.2 -1657.3 Z M 12187.9 -1343.7 L 12451.2 -1339.4 L 12811.6 -1286.5 L 12733.2 -1212.4 L 12365.7 -1215.2 L 12200.3 -1191.7 L 12002.8 -1256.5 L 12056.4 -1325 L 12187.9 -1343.7 Z M 13124.3 -1264.9 L 13374.5 -1238.8 L 13259.3 -1199.4 L 13099.9 -1208.3 L 12914.6 -1247.6 L 12938.5 -1279.9 L 13124.3 -1264.9 Z M 12290.8 -1067.9 L 12385.4 -1107.3 L 12510.1 -1116.5 L 12651.8 -1078.4 L 12663.8 -1052.2 L 12512.6 -1051.5 L 12308.3 -1062.6 L 12290.8 -1067.9 Z M 2817.1 -1787.7 L 3011.8 -1805.9 L 3163.3 -1807.1 L 3183.6 -1780.2 L 3240.9 -1804.1 L 3334.9 -1820.5 L 3482.8 -1798.7 L 3444.2 -1783.5 L 3310.4 -1770.3 L 3220.7 -1762.8 L 3206.8 -1746.4 L 3090.2 -1729.9 L 2982.2 -1753.6 L 3039 -1784.7 L 2817.1 -1787.7 Z M 612 830.8 L 428.7 832.3 L 305.9 821 L 328.6 777.1 L 466.2 744.7 L 570.6 762.2 L 614.7 778 L 604.1 805.3 L 612 830.8 Z M 3680.7 -1105.7 L 3919.4 -1193.2 L 3892.5 -1238.5 L 4115.5 -1291.2 L 4444.6 -1355.2 L 4776.5 -1373.9 L 4947.3 -1410.8 L 5141.3 -1423.8 L 5210.6 -1384.4 L 5143.6 -1353.4 L 4790.4 -1303.9 L 4485.9 -1256.4 L 4176.1 -1161.5 L 4027.5 -1064.2 L 3871.3 -968.3 L 3891.6 -885.5 L 4082.3 -803.7 L 4023.4 -794.9 L 3697.6 -807.9 L 3671.1 -852.2 L 3490.6 -878.9 L 3476.1 -932.8 L 3578 -954.1 L 3574.6 -1008.5 L 3772.4 -1093.5 L 3680.7 -1105.7 Z M 12595.1 892.9 L 12629.6 989 L 12627.1 1087.1 L 12668.2 1187.7 L 12768.5 1364.3 L 12621 1331.4 L 12559.6 1475.5 L 12656.8 1577.7 L 12654 1647.3 L 12578.5 1587.2 L 12513.1 1664.4 L 12494.6 1580.7 L 12505.7 1483.6 L 12494.4 1376 L 12517.4 1300.6 L 12521.9 1167.3 L 12463.4 1069.3 L 12472.3 933 L 12564.4 887.2 L 12524.8 841 L 12569.2 827 L 12595.1 892.9 Z M -19095.9 -453.3 L -19104.4 -391.3 L -19037.2 -366.5 L -19060.3 -438.9 L -18789.7 -424.1 L -18594.5 -330.8 L -18693.3 -287.3 L -18856.8 -277 L -18859.2 -179.6 L -18899.1 -158.8 L -18992.5 -161.8 L -19068.5 -196.6 L -19201.1 -225.6 L -19223.4 -268.9 L -19324.6 -285.2 L -19438 -272.3 L -19492.2 -307.2 L -19470.5 -344.2 L -19590 -320.5 L -19545 -273.6 L -19601.5 -231.3 L -19601.5 -628.5 L -19357.3 -552.4 L -19095.9 -453.3 Z M -19471.3 -820.9 L -19601.5 -814.8 L -19601.5 -883 L -19588.8 -887.2 L -19504.3 -887 L -19360.1 -858.4 L -19368.6 -844.8 L -19471.3 -820.9 Z M 1679.4 1663.9 L 1705.7 1639.2 L 1776.5 1660.6 L 1808.6 1664.5 L 1821.5 1684.2 L 1836.6 1687.2 L 1837.4 1695.9 L 1886.2 1719.9 L 1987.9 1713.9 L 1968.4 1749.5 L 1859.3 1766.8 L 1723.9 1824.5 L 1668.5 1804.2 L 1690.4 1757.3 L 1581.5 1728.2 L 1599.1 1709 L 1694.6 1675.9 L 1679.4 1663.9 Z" />
<path class="neighbor" d="M -144.6 -1696.4 L -106.7 -1730.5 L 39.7 -1734 L 165.4 -1699.2 L 493.7 -1624.8 L 242.8 -1585.6 L 187.4 -1512.2 L 99.9 -1493.4 L 52.4 -1410.8 L -67.8 -1406.9 L -282.2 -1467.7 L -191.7 -1503.2 L -341.2 -1532 L -535.5 -1616.2 L -613 -1694.3 L -341.2 -1730 L -286.6 -1695.1 L -144.6 -1696.4 Z M 1446.6 -687.8 L 1276.9 -647.8 L 1196.4 -638.6 L 1238.6 -708.6 L 1110.7 -748.2 L 955.9 -714.4 L 907 -641.3 L 811.9 -597.2 L 704.9 -621.3 L 574.7 -616.4 L 463.9 -669.1 L 404.1 -642.7 L 342.2 -638.6 L 327.6 -573 L 139.7 -589 L 113.3 -533.5 L 17.6 -533.8 L -48.3 -462.9 L -148 -352.4 L -302.8 -212.1 L -266.5 -178 L -301.2 -138.5 L -400.1 -140.2 L -464.8 -46.7 L -458.7 85.7 L -395 136.2 L -428 253.4 L -510.9 321.8 L -554.9 379.3 L -621.8 318.1 L -818.7 433.4 L -951.6 456.8 L -1089.5 406 L -1125.1 298.8 L -1156.7 68.7 L -1064.8 4.5 L -801.6 -79.2 L -604.7 -182.1 L -422.2 -321 L -182.6 -513.6 L -15.6 -588.6 L 258.4 -713.7 L 477.2 -757.3 L 641.2 -752 L 793 -834.6 L 974.9 -830.2 L 1153.9 -850.1 L 1465.8 -777.1 L 1337.3 -750.4 L 1446.6 -687.8 Z M 1078.3 -1734.5 L 930.5 -1680.8 L 641.3 -1669.1 L 347.2 -1685.7 L 329.5 -1713.2 L 186.4 -1715 L 77.3 -1760.7 L 385.2 -1788.6 L 530 -1764.6 L 630.8 -1794.4 L 882.9 -1769.5 L 1078.3 -1734.5 Z M 810.8 -1514.9 L 588 -1474.2 L 412.1 -1497.3 L 480.9 -1523 L 420.7 -1554.9 L 627.3 -1574.9 L 666.9 -1537.4 L 810.8 -1514.9 Z" />
<path class="neighbor" d="M -554.9 379.3 L -510.9 321.8 L -428 253.4 L -395 136.2 L -458.7 85.7 L -464.8 -46.7 L -400.1 -140.2 L -301.2 -138.5 L -266.5 -178 L -302.8 -212.1 L -148 -352.4 L -48.3 -462.9 L 17.6 -533.8 L 113.3 -533.5 L 139.7 -589 L 327.6 -573 L 342.2 -638.6 L 404.1 -642.7 L 537 -593.9 L 692.6 -526.1 L 695.3 -372.5 L 728.9 -333.7 L 557.4 -305.5 L 460.7 -235.9 L 476.3 -174.9 L 317.7 -94.7 L 125.1 -8.9 L 52.5 131.5 L 123.5 201.7 L 218.9 257 L 127.3 369.5 L 23.6 392.8 L -14.5 560.2 L -71.1 653.6 L -192 644 L -248.5 723.1 L -363.9 727.7 L -395.6 633.4 L -479.1 520.3 L -554.9 379.3 Z" />
<path class="neighbor" d="M 1155 647.2 L 1260 672.2 L 1274.1 696.9 L 1326.5 685 L 1423.9 708.8 L 1433.7 755.6 L 1412.3 782.5 L 1474.8 847.8 L 1515.4 866 L 1509.4 884 L 1576.6 901.5 L 1605.4 928.1 L 1566.6 949.9 L 1486.1 946.5 L 1466.9 955.8 L 1490.3 988.9 L 1514.9 1052.7 L 1514.9 1052.7 L 1429.3 1058.6 L 1398.6 1080.5 L 1392.1 1130.7 L 1352.5 1121.1 L 1262.5 1125.8 L 1236.4 1102.5 L 1199 1119.9 L 1161.5 1105.5 L 1082.9 1103.5 L 971.7 1079.6 L 870.9 1071.8 L 793.7 1074 L 739.1 1101 L 691.4 1104.9 L 689.5 1060.5 L 658.7 1014.3 L 718.5 993.9 L 719.1 954.2 L 691.4 916.3 L 687.1 872.2 L 783.5 872.8 L 891.7 835.3 L 914.9 779 L 996.6 747.1 L 987.3 702.4 L 1047.9 685.6 L 1155 647.2 Z" />
<path class="neighbor" d="M 687.1 872.2 L 691.4 916.3 L 719.1 954.2 L 718.5 993.9 L 658.7 1014.3 L 689.5 1060.5 L 691.4 1104.9 L 741.5 1191.9 L 730.9 1219.9 L 681.4 1231.5 L 590.8 1314.4 L 616.6 1359.2 L 594.8 1353.4 L 500 1315.1 L 428.3 1329.2 L 381.2 1319 L 322.3 1340.3 L 272 1305 L 231 1318.5 L 225.4 1312.5 L 179.5 1263.4 L 105.4 1257.4 L 95.9 1226.2 L 27.5 1215 L 12.6 1240.8 L -41.5 1220.1 L -35.3 1192.7 L -109.8 1184 L -157.1 1151.9 L -198 1088.3 L -190.2 1053.9 L -214.9 1000.6 L -251.1 965 L -223.3 938.4 L -246.6 887.7 L -178.5 858.4 L -22.9 812.3 L 102.7 778.5 L 202.2 795.4 L 209.7 819.7 L 305.9 821 L 428.7 832.3 L 612 830.8 L 663.2 841.5 L 687.1 872.2 Z" />
<path class="neighbor" d="M 987.3 702.4 L 996.6 747.1 L 914.9 779 L 891.7 835.3 L 783.5 872.8 L 687.1 872.2 L 663.2 841.5 L 612 830.8 L 604.1 805.3 L 614.7 778 L 570.6 762.2 L 466.2 744.7 L 445 660.9 L 559.2 630.3 L 726.4 636.7 L 824.4 626.9 L 838.4 647.6 L 891.4 654 L 987.3 702.4 Z" />
<path class="neighbor" d="M 1135.5 317.5 L 1135.5 317.5 L 1150.5 334.9 L 1079.6 392.4 L 1109.1 485.4 L 1066.4 517 L 984.2 516.8 L 898.4 479.8 L 854.7 467.6 L 769.7 485.2 L 781.3 426.4 L 744.7 439 L 681.4 403.5 L 672.7 346.2 L 798.8 318.5 L 924.4 304 L 1032.6 320.5 L 1135.5 317.5 L 1135.5 317.5 Z" />
<path class="lake" d="M 316.2 820.2 L 311.5 815.4 L 327.6 804.7 L 333.9 799 L 335.6 795.4 L 338.5 792.7 L 343.1 793.4 L 348.1 796.3 L 360.5 795.2 L 360.5 795.2 L 360.5 795.2 L 360.5 795.2 L 360.5 795.2 L 360.5 795.2 L 380.1 795.5 L 349.9 805.4 L 332.7 811.9 L 316.7 819.8 L 316.2 820.2 Z" />
<path class="lake" d="M 311.5 815.4 L 316.2 820.2 L 313.7 822.4 L 305.7 826.1 L 298.4 828.7 L 288 833.5 L 274.6 836.7 L 265 832.5 L 267.8 829.7 L 290.1 825.5 L 301.5 820.9 L 311.5 815.4 Z" />
<path class="lake" d="M 1087.2 446.3 L 1094.4 443.2 L 1096.7 447.2 L 1108.9 448.2 L 1123.9 447.3 L 1123.9 447.3 L 1123.9 447.3 L 1123.9 447.3 L 1123.9 447.3 L 1134.7 451.4 L 1147 460.2 L 1152.3 467.1 L 1154.3 473.1 L 1147.5 478.6 L 1136.6 477.8 L 1128.5 475 L 1125 472.6 L 1125.6 470.9 L 1117.7 465.6 L 1105.3 462.8 L 1099.9 463.2 L 1087.2 446.3 Z" />
<path class="lake" d="M 1094.4 443.2 L 1087.2 446.3 L 1084.8 443 L 1080.1 434.4 L 1070 424.5 L 1061.3 419.5 L 1053.3 400 L 1034.3 384.3 L 1035.1 376.4 L 1048.4 369.5 L 1067.4 365.4 L 1089.9 364.2 L 1105.8 366.9 L 1112.3 373.7 L 1118.8 407.7 L 1119.5 416.3 L 1117.3 420.1 L 1112.2 421.8 L 1095.8 434.1 L 1093.6 439 L 1094.4 443.2 Z" />
<path class="lake" d="M 1489.4 441.7 L 1481 444.1 L 1475.8 450.5 L 1452.1 447.5 L 1424.2 443.3 L 1422.2 440.8 L 1432 436.3 L 1438.4 432.7 L 1444.5 431.6 L 1453.5 428.8 L 1461.6 422.2 L 1466.2 417.1 L 1473.8 421.8 L 1479.4 423.1 L 1487.4 425.8 L 1488.2 427.5 L 1500 425.9 L 1501.7 427.9 L 1500.9 429.6 L 1501 433.9 L 1505.1 444.4 L 1499.4 444 L 1489.4 441.7 L 1489.4 441.7 L 1489.4 441.7 Z" />
<path class="lake" d="M 952.2 432 L 952 437.8 L 949 443.7 L 946.4 450.3 L 943.1 450.1 L 938.3 442.7 L 930.8 434.2 L 932.1 430.2 L 934.6 426.6 L 939.9 425.1 L 945.7 425.6 L 950.1 427.4 L 952.2 432 L 952.2 432 L 952.2 432 L 952.2 432 Z" />
<path class="country" d="M 1066.4 517 L 1114.5 540 L 1123 588.3 L 1155 647.2 L 1047.9 685.6 L 987.3 702.4 L 891.4 654 L 838.4 647.6 L 824.4 626.9 L 726.4 636.7 L 559.2 630.3 L 445 660.9 L 448.5 585.9 L 497.5 523.3 L 591.4 489.2 L 670.6 563.7 L 750.6 561.8 L 769.7 485.2 L 854.7 467.6 L 898.4 479.8 L 984.2 516.8 L 1066.4 517 Z" />

<path class="river" d="M 1543.9 573.5 L 1542.4 576.6 L 1545.9 578.2 L 1553.8 579.3 L 1560.3 582.2 L 1567.9 589.2 L 1563.4 603.3 L 1559.4 609 L 1554.5 611.1 L 1549.7 616.3 L 1544.9 624.7 L 1543.4 632.6 L 1545.3 640.1 L 1543 644.7 L 1536.4 646.4 L 1533.6 649.7 L 1534.8 654.6 L 1523.8 657.2 L 1500.5 657.5 L 1484.3 660.2 L 1475.3 665.1 L 1474.3 675.1 L 1481.3 690.1 L 1477.9 698.4 L 1464.3 700 L 1453.6 703.8 L 1442.1 713 L 1400.9 720.3 L 1377.5 726.9 L 1358.2 735.3 L 1353.4 740.3 L 1351.5 744.3 L 1345.5 745.5 L 1329.3 743.4 L 1318.3 743.3 L 1312.5 745.1 L 1309.5 747.6 L 1309.1 750.9 L 1305.6 752.2 L 1298.9 751.5 L 1292.4 753.1 L 1286.1 756.8 L 1282.2 756.7 L 1280.8 752.6 L 1277.5 750.6 L 1272.5 750.5 L 1268.6 748.2 L 1265.8 743.8 L 1257.2 738 L 1242.8 730.9 L 1237.2 725.8 L 1236.4 723 L 1229 718.4 L 1209.5 711.5 L 1187.6 707.3 L 1163.3 705.7 L 1146.1 701.9 L 1136 695.8 L 1130.2 690 L 1128.8 684.4 L 1125.5 682.3 L 1122.9 682.1 L 1113.9 683.1 L 1097.9 684.2 L 1083.5 683.6 L 1072.5 680.8 L 1039.2 674.1 L 1018.7 673.3 L 999.9 676 L 986.7 674.1 L 979.3 667.5 L 974.3 660.2 L 971.9 651.9 L 967.3 646.2 L 960.6 643.1 L 956.3 637.7 L 954.5 630 L 944.4 622.4 L 925.9 614.9 L 915.9 608.9 L 914.2 604.4 L 909 603.3 L 900.4 605.5 L 891.5 605.2 L 882.5 602.5 L 873.9 602.3 L 865.8 604.5 L 855.7 604.8 L 843.5 603 L 827.4 597.4 L 807.2 587.8 L 788.9 581.5 L 772.6 578.5 L 760.5 574.9 L 752.9 570.7 L 747.7 565.8 L 744 557.7" />
<path class="river" d="M 1593.8 1599.7 L 1600.6 1596.3 L 1629.3 1589.6 L 1642.6 1585.4 L 1659.5 1583.6 L 1671.5 1582.7 L 1680.9 1580.5 L 1689.7 1578.2 M 1845.8 1477.6 L 1848.3 1464.5 L 1847.1 1457.9 L 1843 1453.6 L 1844 1450.9 L 1850.2 1449.7 L 1853.8 1446.7 L 1854.6 1441.9 L 1852.2 1433.8 L 1846.6 1422.4 L 1831.2 1414.1 L 1817.2 1412.6 L 1806.2 1408.8 L 1776.5 1397.9 L 1758.1 1388.3 L 1742.1 1381.1 L 1707.4 1367.7 L 1686.5 1361.2 L 1672.1 1355.5 L 1655.3 1352.6 M 1525 1306.7 L 1505.4 1298.5 L 1482.6 1286.5 M 1480.4 1262.3 L 1460.9 1264.4 L 1443.6 1260 L 1422.1 1249.7 L 1407.3 1240.1 L 1399.1 1231.2 L 1393.3 1220.7 L 1388.1 1202.8 M 1674.9 772 L 1646.8 765.2 L 1633.7 763.6 L 1626.2 765.1 L 1618.2 767.9 L 1609.8 772.1 L 1604.7 776.6 L 1603 781.5 L 1597.2 787.4 L 1587.2 794.2 L 1574.3 794.2 L 1558.3 787.1 L 1536.8 786 L 1496.2 793 L 1433.9 798.1 L 1408.3 802.3 L 1398.8 807.2 L 1391.8 809.2 L 1387.5 808.3 L 1382.9 809.9 L 1378 814.1 L 1372.7 821.1 L 1367.1 830.9 L 1368.5 845 L 1377.2 863.4 L 1377.3 873.5 L 1369.1 875.5 L 1364.2 883.2 L 1362.9 896.7 L 1365.1 911 L 1373.8 933.6 L 1364.6 938.2 L 1362.7 942.6 L 1365.1 948.4 L 1361.9 951.2 L 1353 950.8 L 1345.8 953.1 L 1340.5 958 L 1340.2 967.7 L 1344.9 982.2 L 1351.1 992 L 1358.9 997.3 L 1362.5 1002.4 L 1361.9 1007.5 L 1364.7 1012.3 L 1370.8 1016.8 L 1373.2 1020 L 1371.8 1022 L 1376.4 1025 L 1387 1028.8 L 1391.2 1032.4 L 1389.1 1035.7 L 1395 1043.3 L 1408.8 1054.9 L 1416.2 1063.3 L 1417.1 1068.4 L 1413.9 1073.4 L 1406.5 1078.4 L 1399.1 1086.2 L 1391.8 1097 L 1391.4 1108.2 L 1397.9 1120 L 1397.7 1129.6 L 1387.4 1140.9" />
<g class="city"><circle cx="748.5226471788925" cy="569.3070147364612" r="5" /><text x="760.5226471788925" y="573.3070147364612">Riga</text></g>
<g class="city"><circle cx="869.8323985041799" cy="795.3072599298769" r="5" /><text x="881.8323985041799" y="799.3072599298769">Vilnius</text></g>
<g class="city"><circle cx="389.31827874783954" cy="793.6481459038441" r="5" /><text x="401.31827874783954" y="797.6481459038441">Kaliningrad</text></g>
<g class="city"><circle cx="1170.278107050659" cy="481.56819936892845" r="5" /><text x="1182.278107050659" y="485.56819936892845">Pskov</text></g>
<text class="map-title" x="80" y="105">Latvia Physical Study Map</text>
<text class="map-subtitle" x="80" y="145">Landmark: House of the Blackheads | Study terrain and water systems</text>
  <text class="footer" x="80" y="1036">Made with Natural Earth. Free vector and raster map data @ naturalearthdata.com.</text>
</svg>
