<?xml version="1.0" encoding="UTF-8"?>
<svg xmlns="http://www.w3.org/2000/svg" width="1600" height="1100" viewBox="0 0 1600 1100" role="img" aria-labelledby="title desc">
  <title id="title">Libya Physical Study Map</title>
  <desc id="desc">Made with Natural Earth. Free vector and raster map data @ naturalearthdata.com.</desc>
  <defs>
    <linearGradient id="terrain" x1="0" x2="1" y1="0" y2="1">
      <stop offset="0%" stop-color="#6c8c53" />
      <stop offset="42%" stop-color="#d5c487" />
      <stop offset="72%" stop-color="#b88b5f" />
      <stop offset="100%" stop-color="#f1f5ee" />
    </linearGradient>
    <filter id="softShadow" x="-10%" y="-10%" width="120%" height="120%">
      <feDropShadow dx="0" dy="10" stdDeviation="12" flood-color="#0f172a" flood-opacity="0.16" />
    </filter>
    <style>
      .neighbor { fill: #ffffff; stroke: #94a3b8; stroke-width: 1.2; opacity: 0.72; }
      .country { fill: url(#terrain); stroke: #1f2937; stroke-width: 4; filter: url(#softShadow); }
      .admin1 { fill: none; stroke: #64748b; stroke-width: 1.1; stroke-dasharray: 6 7; opacity: 0.75; }
      .river { fill: none; stroke: #1d9bd1; stroke-width: 3; stroke-linecap: round; opacity: 0.88; }
      .lake { fill: #8ed1ea; stroke: #0ea5e9; stroke-width: 1.5; opacity: 0.8; }
      .city circle { fill: #ef4444; stroke: #ffffff; stroke-width: 2; }
      .city text, .terrain-label { fill: #172033; font: 700 24px system-ui, sans-serif; paint-order: stroke; stroke: #ffffff; stroke-width: 5; stroke-linejoin: round; }
      .map-title { fill: #0f172a; font: 800 46px system-ui, sans-serif; }
      .map-subtitle { fill: #475569; font: 600 24px system-ui, sans-serif; }
      .footer { fill: #64748b; font: 500 18px system-ui, sans-serif; }
    </style>
  </defs>
  <rect width="100%" height="100%" fill="#d8edf0" />
  <rect x="40" y="40" width="1520" height="1020" rx="32" fill="#ffffff" opacity="0.54" />
  <path class="neighbor" d="M 1048.6 1200.2 L 1022.7 1185.3 L 1011 1175.6 L 1008.8 1165 L 1014.3 1150.9 L 1014.2 1137.1 L 994.6 1115.8 L 990.8 1101.3 L 991.2 1093.1 L 978.7 1083.1 L 978.3 1063.4 L 971.2 1050.3 L 959.3 1052.3 L 962.7 1039.8 L 971.5 1025.7 L 967.7 1011.6 L 978.8 1001.2 L 971.7 993.3 L 980.7 972.3 L 996.2 947.3 L 1025.5 949.7 L 1023.8 815 L 1024.2 800.8 L 1063.2 800.7 L 1063.2 732.9 L 1199.6 732.9 L 1331.3 732.9 L 1465.9 732.9 L 1476.8 766.2 L 1469.4 772.3 L 1474.3 807.3 L 1486.8 847.8 L 1499.7 856.1 L 1518.3 868.7 L 1501.1 888.1 L 1476.1 893.6 L 1465.4 904 L 1462.1 926.6 L 1447.5 976.4 L 1451.1 990 L 1445.7 1019.2 L 1431.9 1052.6 L 1411.4 1069.4 L 1396.8 1095.3 L 1393.4 1109.2 L 1377.4 1118.7 L 1367.3 1154.2 L 1367.8 1184.7 L 1367.4 1158.3 L 1362.7 1157.6 L 1363.3 1140.7 L 1359.2 1129 L 1341.7 1115.6 L 1337.6 1091.2 L 1341.7 1066.1 L 1326 1063.8 L 1323.7 1071.4 L 1303.3 1073.1 L 1311.4 1083 L 1314.3 1103.4 L 1295.7 1122.1 L 1278.8 1146.5 L 1261.3 1150 L 1232.8 1130.2 L 1220 1137.2 L 1216.5 1147.1 L 1199 1153.5 L 1197.8 1160.5 L 1164 1160.5 L 1159.4 1153.5 L 1134.9 1152.3 L 1122.7 1158.2 L 1113.4 1155.3 L 1095.9 1135.5 L 1090.1 1126.1 L 1065.6 1130.8 L 1056.3 1146.5 L 1047.5 1176.8 L 1035.9 1183.2 L 1025.5 1186.9 L 1048.6 1200.2 Z" />
<path class="neighbor" d="M 1023.8 815 L 1025.5 949.7 L 996.2 947.3 L 980.7 972.3 L 971.7 993.3 L 978.8 1001.2 L 967.7 1011.6 L 971.5 1025.7 L 962.7 1039.8 L 959.3 1052.3 L 971.2 1050.3 L 978.3 1063.4 L 978.7 1083.1 L 991.2 1093.1 L 990.8 1101.3 L 969.3 1107.1 L 952.1 1120.8 L 927.5 1157.9 L 895.6 1173.6 L 862.8 1171.5 L 853.3 1174.6 L 856.6 1186.5 L 838.9 1198.4 L 824.5 1211.6 L 781.8 1224.6 L 773.3 1216.9 L 767.7 1216.3 L 761.5 1225 L 733.4 1227.6 L 738.7 1218.4 L 728 1195 L 723.2 1180.9 L 708.5 1175.2 L 688.4 1155.4 L 695.8 1139.4 L 711.3 1142.8 L 720.8 1140.4 L 739.8 1140.7 L 721.3 1109.8 L 722.6 1087.3 L 720.3 1064.8 L 706.8 1043.1 L 710.2 1027.1 L 688.4 1026.3 L 688.5 1004.5 L 674.4 991.9 L 689 947.2 L 732.3 915.2 L 734.1 871.1 L 747.2 802.2 L 754.6 787.6 L 740.5 776 L 739.9 765.2 L 727.2 756.4 L 718.9 703.6 L 753.1 685.1 L 888.5 750 L 1023.8 815 Z" />
<path class="neighbor" d="M -1537.9 1338.4 L -1558 1369.4 L -1568.4 1394.4 L -1581.4 1407.3 L -1597.7 1409.7 L -1602.3 1400.2 L -1609.9 1398.8 L -1620.4 1408 L -1635.2 1401 L -1626.5 1386.7 L -1623.6 1371.2 L -1617.6 1356.6 L -1630.9 1336.5 L -1633.6 1313.2 L -1616 1284.1 L -1604.4 1287.8 L -1579.5 1295.8 L -1543.5 1324.5 L -1537.9 1338.4 Z M 424.9 -199 L 440.9 -190.1 L 489.8 -183.9 L 472.6 -160.6 L 468.3 -136.5 L 459 -130.7 L 443.5 -133.8 L 444.6 -125.2 L 419.8 -106.1 L 419.3 -90.7 L 435.5 -96 L 447.2 -81.2 L 445.8 -71.6 L 455.7 -58.8 L 444 -48.5 L 452.7 -22.2 L 471.1 -17.9 L 467.2 -3.2 L 436.5 16 L 369.6 6.8 L 320.1 17.8 L 316.3 38.2 L 276.9 42.6 L 238.7 27.3 L 226.4 34.6 L 163.9 19.2 L 150.4 6 L 168 -14.4 L 174.4 -82 L 139.4 -117.6 L 114.4 -134.8 L 62.5 -147.8 L 59.1 -172.5 L 103.1 -179.9 L 160.1 -171.2 L 149.3 -209.6 L 181.4 -195.1 L 260.4 -221.5 L 270.6 -249.3 L 300.2 -256.2 L 305.1 -244.2 L 320.9 -243.7 L 336.7 -230.1 L 360.4 -214.1 L 377.8 -216.7 L 407.5 -201.2 L 415.1 -198.3 L 424.9 -199 Z M 511.7 32.9 L 533.6 20 L 539.3 49.1 L 528.1 75.3 L 512.7 68.4 L 504.9 45.6 L 511.7 32.9 Z" />
<path class="neighbor" d="M -175.8 1057.2 L -174.2 1046.6 L -177.1 1033.5 L -189.8 1024 L -196.5 1004.5 L -198 983.4 L -186.6 977.2 L -180.9 957.3 L -170.2 956.5 L -146.5 965.9 L -127.3 959.2 L -114.2 961.5 L -109.1 953.9 L 27 953.4 L 34.6 929.6 L 28.7 925.5 L 12.3 779 L -4 632.6 L 47.9 632 L 162.3 706 L 276.8 780 L 284.9 795.9 L 306 805.6 L 321.7 811.2 L 322.1 832.8 L 359.7 829.4 L 359.8 907.6 L 341.3 930.2 L 338.4 951.1 L 308.3 956.5 L 262 959.4 L 249.4 971.5 L 227.7 972.8 L 205.9 973 L 197.4 966.5 L 178.8 971.3 L 147 985.4 L 140.6 996 L 114.2 1011.2 L 109.6 1019.9 L 95.4 1026.8 L 79 1022.3 L 69.7 1030.5 L 64.7 1053.8 L 37.8 1081.9 L 38.6 1093.4 L 29.3 1107.8 L 31.6 1127.5 L 17.6 1132.5 L 9.6 1136.8 L 4.4 1122.3 L -5.4 1126.1 L -11.3 1125.5 L -17.5 1135.4 L -43.7 1135.1 L -53.1 1130 L -57.5 1133.1 L -67.9 1123.3 L -66.1 1113.2 L -70.3 1109.2 L -77.6 1112.6 L -76.2 1101.5 L -69.3 1092.8 L -83.2 1078.6 L -87.2 1069.2 L -94.8 1061.8 L -101.6 1060.9 L -109.7 1065.6 L -120.7 1070.2 L -130 1077.5 L -144.5 1074.8 L -153.9 1066.2 L -159.6 1065.1 L -168.4 1069.6 L -173.8 1069.6 L -175.8 1057.2 Z" />
<path class="neighbor" d="M 718.9 703.6 L 727.2 756.4 L 739.9 765.2 L 740.5 776 L 754.6 787.6 L 747.2 802.2 L 734.1 871.1 L 732.3 915.2 L 689 947.2 L 674.4 991.9 L 688.5 1004.5 L 688.4 1026.3 L 710.2 1027.1 L 706.8 1043.1 L 697.2 1045 L 696.1 1055.8 L 689.8 1056.6 L 666.9 1019.4 L 658.9 1018.1 L 632.4 1037 L 606.1 1027.1 L 587.8 1025.1 L 578 1029.9 L 558.2 1028.9 L 538.1 1043.3 L 520.8 1044.2 L 479.8 1026.6 L 463.7 1035 L 446.4 1034.4 L 433.6 1021.6 L 399.6 1008.9 L 363.2 1012.9 L 354.3 1020.3 L 349.6 1039.8 L 339.8 1053.5 L 337.5 1083.8 L 311.6 1064.2 L 299.4 1064.3 L 288 1074.3 L 288.8 1051 L 249.7 1043.3 L 248.6 1026.9 L 229.5 1004.7 L 225 989.3 L 227.7 972.8 L 249.4 971.5 L 262 959.4 L 308.3 956.5 L 338.4 951.1 L 341.3 930.2 L 359.8 907.6 L 359.7 829.4 L 407.6 814.3 L 505.8 747.6 L 622.1 683 L 675.8 697.6 L 694.9 716.2 L 718.9 703.6 Z" />
<path class="neighbor" d="M 306.3 1267 L 308.2 1212.3 L 307.4 1190.8 L 313.8 1169.3 L 324.2 1158.9 L 340.7 1137.9 L 337.1 1128.8 L 343.8 1115.2 L 336.2 1095 L 337.5 1083.8 L 339.8 1053.5 L 349.6 1039.8 L 354.3 1020.3 L 363.2 1012.9 L 399.6 1008.9 L 433.6 1021.6 L 446.4 1034.4 L 463.7 1035 L 479.8 1026.6 L 520.8 1044.2 L 538.1 1043.3 L 558.2 1028.9 L 578 1029.9 L 587.8 1025.1 L 606.1 1027.1 L 632.4 1037 L 658.9 1018.1 L 666.9 1019.4 L 689.8 1056.6 L 696.1 1055.8 L 709.6 1069.3 L 705.9 1075.5 L 704.1 1086.7 L 675.5 1113 L 666.5 1134.6 L 661.7 1152.3 L 654.5 1159.8 L 647.7 1183.6 L 629.6 1197.6 L 624.3 1214.7 L 616.7 1228.4 L 613.5 1242.5 L 590.2 1253.9 L 571.1 1240 L 558.3 1240.6 L 538.1 1260.4 L 528.2 1260.7 L 512.1 1293.5 L 503.4 1317.5 L 468.1 1329.7 L 455.3 1327.9 L 442.2 1335.5 L 415.1 1334.8 L 396.9 1313.5 L 385.7 1289 L 361.7 1266.6 L 336.2 1267 L 306.3 1267 Z" />
<path class="neighbor" d="M 706.8 1043.1 L 720.3 1064.8 L 722.6 1087.3 L 721.3 1109.8 L 739.8 1140.7 L 720.8 1140.4 L 711.3 1142.8 L 695.8 1139.4 L 688.4 1155.4 L 708.5 1175.2 L 723.2 1180.9 L 728 1195 L 738.7 1218.4 L 733.4 1227.6 L 716.3 1262 L 708.2 1268.1 L 705.6 1294.4 L 709 1308.7 L 706.2 1318.8 L 722.3 1336.5 L 725.1 1348.7 L 737.7 1366.2 L 753.2 1377.1 L 754.7 1392.6 L 758.3 1402.5 L 755.8 1420.8 L 728.9 1412.8 L 701.5 1403.8 L 658.6 1402.5 L 654.4 1400.6 L 634.3 1405 L 613.7 1400.5 L 597.6 1402.7 L 542.4 1401.9 L 547.3 1375.1 L 534 1352.7 L 518.6 1346.9 L 511.7 1331.7 L 503 1326.9 L 503.4 1317.5 L 512.1 1293.5 L 528.2 1260.7 L 538.1 1260.4 L 558.3 1240.6 L 571.1 1240 L 590.2 1253.9 L 613.5 1242.5 L 616.7 1228.4 L 624.3 1214.7 L 629.6 1197.6 L 647.7 1183.6 L 654.5 1159.8 L 661.7 1152.3 L 666.5 1134.6 L 675.5 1113 L 704.1 1086.7 L 705.9 1075.5 L 709.6 1069.3 L 696.1 1055.8 L 697.2 1045 L 706.8 1043.1 Z" />
<path class="neighbor" d="M 31.6 1127.5 L 29.3 1107.8 L 38.6 1093.4 L 37.8 1081.9 L 64.7 1053.8 L 69.7 1030.5 L 79 1022.3 L 95.4 1026.8 L 109.6 1019.9 L 114.2 1011.2 L 140.6 996 L 147 985.4 L 178.8 971.3 L 197.4 966.5 L 205.9 973 L 227.7 972.8 L 225 989.3 L 229.5 1004.7 L 248.6 1026.9 L 249.7 1043.3 L 288.8 1051 L 288 1074.3 L 280.6 1084.4 L 264 1087.6 L 257.1 1102.4 L 245.5 1106.2 L 215.7 1105.5 L 200.1 1102.8 L 189.1 1108.3 L 174.1 1105.8 L 115.2 1107.4 L 114.4 1126.7 L 119 1152.2 L 95.8 1143.5 L 79.9 1144.8 L 68 1153.3 L 52.7 1146.1 L 46.8 1134.9 L 31.6 1127.5 Z" />
<path class="neighbor" d="M 536.7 451 L 522.2 390.1 L 501.3 376.4 L 501 368.2 L 473.3 348 L 470.3 322.4 L 491.2 303.5 L 499.2 275.5 L 493.8 243.2 L 500.7 225.7 L 537.6 212 L 561.4 216.1 L 560.4 233.3 L 589.2 220.8 L 591.6 227.3 L 574.6 243.9 L 574.4 259.6 L 586.1 268.1 L 581.7 297.4 L 559.3 314.5 L 565.8 333 L 583.3 333.6 L 591.9 349.7 L 604.8 355 L 602.9 381.1 L 586.3 390.8 L 575.9 401.7 L 552.6 414.8 L 556.2 428.8 L 553.2 443.1 L 536.7 451 Z" />
<path class="neighbor" d="M -79.7 549.8 L -79.1 543.2 L -79.1 541 L -79.4 500.8 L -24.6 475.7 L 9.3 470.5 L 37.1 461.4 L 50 444.4 L 89.7 431 L 91.2 405.9 L 110.8 402.9 L 126.2 390.4 L 170.6 384.7 L 176.8 371.5 L 167.8 364.3 L 156.1 328.4 L 154.1 307.8 L 141.3 286.1 L 173.9 267.5 L 210.6 261.6 L 232 247.6 L 264.7 237.3 L 322.2 231.3 L 378.3 228.5 L 395.5 233.5 L 427.4 220.2 L 463.7 219.9 L 477.5 227.8 L 500.7 225.7 L 493.8 243.2 L 499.2 275.5 L 491.2 303.5 L 470.3 322.4 L 473.3 348 L 501 368.2 L 501.3 376.4 L 522.2 390.1 L 536.7 451 L 547.7 481 L 549.5 496.7 L 543.5 524.4 L 546 539.9 L 541.7 558.5 L 544.6 579.8 L 531.2 594 L 551.2 618.7 L 552.5 633.2 L 564.6 652.2 L 580.4 645.9 L 607.2 661.7 L 622.1 683 L 505.8 747.6 L 407.6 814.3 L 359.7 829.4 L 322.1 832.8 L 321.7 811.2 L 306 805.6 L 284.9 795.9 L 276.8 780 L 162.3 706 L 47.9 632 L -79.7 549.8 Z" />
<path class="neighbor" d="M 1107 281.6 L 1102.8 291.6 L 1053.9 294.5 L 1054.2 288.9 L 1012.9 282.3 L 1019.1 267.9 L 1037.7 279.3 L 1064.1 277.4 L 1089.3 279.8 L 1088.5 285.7 L 1107 281.6 Z M 993.8 76.7 L 1018.9 77.7 L 1046 68.4 L 1069.9 80.2 L 1100.8 77 L 1101.1 60.1 L 1117.7 69.1 L 1107.2 90.4 L 1099.1 94.2 L 1078.4 93.2 L 1060.7 90 L 1019.6 98.8 L 1043.2 117.9 L 1025.9 123.4 L 1007 123.4 L 989.1 106 L 982.7 113.4 L 990.3 133.7 L 1007.3 149.6 L 994.5 157 L 1013.4 172.7 L 1030.2 182.5 L 1030.7 201.7 L 999.3 192.7 L 1009.3 210 L 987.7 213.6 L 1000.6 243.5 L 978.1 243.9 L 950.2 229.2 L 937.5 202 L 931.6 179.5 L 918.4 163.9 L 901 144.5 L 898.7 134.8 L 914.4 118.4 L 916.5 107.4 L 927.5 102.4 L 928.2 93.5 L 950.4 90.5 L 963.3 83.1 L 981.7 83.8 L 987.3 77.9 L 993.8 76.7 Z" />
<path class="neighbor" d="M 1734.2 218.1 L 1717.9 223.9 L 1706 215.2 L 1666.5 210.8 L 1651.9 216.1 L 1613.3 221.4 L 1595.1 220.8 L 1556 233.6 L 1528.1 233.7 L 1510 227.3 L 1472.7 236.7 L 1461.6 230.1 L 1459.7 249 L 1450.7 256.5 L 1441.6 263.9 L 1429.1 248.5 L 1441.9 235.8 L 1421.3 238.7 L 1392.9 230.9 L 1369.5 250.4 L 1318 254.2 L 1290.6 236 L 1254 234.9 L 1246.2 248.9 L 1222.7 253 L 1189.9 234.9 L 1152.9 235.5 L 1132.8 201.8 L 1108 182.9 L 1124.5 156.5 L 1103 140.3 L 1140.6 107.9 L 1192.9 106.5 L 1207.1 80.7 L 1271.8 85.2 L 1312.6 63.2 L 1352.1 53.6 L 1408.3 52.9 L 1467.5 76.8 L 1516.2 89.9 L 1555.7 84.7 L 1584.9 87.7 L 1625 70 L 1661.1 68.4 L 1693.8 85.1 L 1699.6 97 L 1696.3 113.5 L 1721.5 122 L 1734.9 131.9 L 1711.7 141.5 L 1722.2 180.4 L 1715.6 191 L 1734.2 218.1 L 1734.2 218.1 Z M 1101.1 60.1 L 1135.7 49.5 L 1164.9 54 L 1169 67.1 L 1198.6 78 L 1192.4 86.3 L 1152.1 88.2 L 1137.6 98.7 L 1109.3 117 L 1098.6 101.2 L 1099.1 94.2 L 1107.2 90.4 L 1117.7 69.1 L 1101.1 60.1 Z" />
<path class="neighbor" d="M 928.2 93.5 L 927.5 102.4 L 916.5 107.4 L 914.4 118.4 L 898.7 134.8 L 892.9 132.5 L 892.2 125 L 873.4 113.6 L 870.5 97.4 L 873.3 74.3 L 878 63.8 L 872.3 58.4 L 872.3 58.4 L 870 47.6 L 884.7 30.9 L 886.8 37.3 L 896 34.3 L 903.2 43.4 L 911.3 46.9 L 913.6 59.2 L 913.6 59.2 L 909.3 70.7 L 914.1 85.3 L 928.2 93.5 Z" />
<path class="neighbor" d="M -38 220.6 L -40.8 209.4 L -28.2 196.6 L -23.6 187.4 L -35.3 177.3 L -25.9 155 L -39.5 134.7 L -24.8 131.9 L -23.5 115.9 L -18 110.9 L -17.5 84.4 L -1.9 75.2 L -11.3 58.2 L -31.1 57 L -36.9 61.3 L -57 61.4 L -65.5 44.7 L -79.3 49.7 L -91.6 58.3 L -89.9 34.1 L -103.8 19.4 L -55.8 -5.1 L -14.3 1.1 L 31.3 0.8 L 67.4 6.6 L 95.6 4.9 L 150.4 6 L 163.9 19.2 L 226.4 34.6 L 238.7 27.3 L 276.9 42.6 L 316.3 38.2 L 318.1 57.9 L 285.9 80.5 L 242.4 87.7 L 239.4 99.1 L 218.6 117.9 L 205.5 145.5 L 218.7 164.9 L 199.1 180.1 L 191.8 202.1 L 166.1 208.9 L 142.1 235 L 99 235.5 L 66.7 234.9 L 45.4 246.8 L 32.5 259.7 L 15.9 256.8 L 3.3 245.4 L -6.3 225.9 L -38 220.6 Z" />
<path class="neighbor" d="M 569.3 -111.8 L 589.8 -107 L 593.8 -113.4 L 627.3 -119.3 L 634.9 -107.5 L 683.4 -98.7 L 679.7 -82 L 687.9 -67.6 L 660.9 -72.5 L 633.3 -60.5 L 635.2 -43.6 L 631 -34 L 642.1 -16.7 L 673.9 0.4 L 691 28.4 L 728.8 55.8 L 755.3 55.6 L 763.6 63.1 L 754.1 69.8 L 784.5 82.1 L 809.4 92.4 L 838.5 110.1 L 842 116.4 L 835.7 128.5 L 816.8 112.7 L 787.4 107.1 L 773.1 129.1 L 797.6 141.6 L 793.6 159.4 L 779.4 161.4 L 761.3 190.5 L 747.1 193.1 L 747.3 182.7 L 754.2 164.5 L 761.6 157.3 L 748.3 137.6 L 738 120.5 L 723.9 116.3 L 713.9 101.6 L 692 95.4 L 677.4 81.8 L 652.3 79.6 L 625.7 64.3 L 594.7 42.2 L 571.6 22.7 L 561 -10.9 L 544.2 -14.8 L 516.6 -26 L 500.9 -21.4 L 481.3 -5.7 L 467.2 -3.2 L 471.1 -17.9 L 452.7 -22.2 L 444 -48.5 L 455.7 -58.8 L 445.8 -71.6 L 447.2 -81.2 L 461.8 -73.9 L 478.1 -75.5 L 497.1 -87 L 503 -81.6 L 519.2 -82.7 L 526.5 -96.4 L 551.6 -92.2 L 566.6 -97.9 L 569.3 -111.8 Z M 715.8 185.1 L 741.6 182.1 L 729.4 208.9 L 734.4 219.4 L 727.3 236.8 L 701.4 224 L 684.1 220.4 L 636.7 203.1 L 641.5 185.7 L 681.2 188.8 L 715.8 185.1 Z M 510.5 91.6 L 527.5 81.1 L 547.8 105.2 L 543 150 L 527.6 147.9 L 513.8 159.2 L 500.9 150.2 L 499.6 109.3 L 491.8 89.9 L 510.5 91.6 Z" />
<path class="neighbor" d="M 1325.6 287 L 1328 286.8 L 1332.9 278.7 L 1357.3 279.1 L 1388.2 269 L 1365.3 283.4 L 1367.7 289.8 L 1364.1 288.6 L 1357.6 291.2 L 1352.5 290.5 L 1350.8 291.8 L 1350.2 288.3 L 1347.7 286.3 L 1341.2 285.9 L 1332 288.8 L 1325.6 287 Z" />
<path class="neighbor" d="M 1325.6 287 L 1332 288.8 L 1341.2 285.9 L 1347.7 286.3 L 1350.2 288.3 L 1350.8 291.8 L 1352.5 290.5 L 1357.6 291.2 L 1364.1 288.6 L 1367.7 289.8 L 1368.8 292.5 L 1334 306.3 L 1317.4 301.9 L 1309.5 288.3 L 1325.6 287 Z" />
<path class="neighbor" d="M 1465.9 732.9 L 1331.3 732.9 L 1199.6 732.9 L 1063.2 732.9 L 1063.2 607.9 L 1063.2 487.3 L 1053.1 459.9 L 1061.8 439 L 1056.6 424.5 L 1068.8 408.2 L 1114 407.6 L 1146.6 416.6 L 1180.3 426.6 L 1196 431.9 L 1222.2 421.2 L 1236.1 411.4 L 1266 408.7 L 1290.2 412.9 L 1299.4 429.8 L 1307.3 418.7 L 1334.5 426.7 L 1360.9 428.6 L 1377.6 420.1 L 1377.6 420.1 L 1396.6 469.6 L 1399.9 478.4 L 1390.4 492 L 1383.1 517.6 L 1373.9 535.3 L 1366 541.2 L 1354.7 530.3 L 1339.3 515.1 L 1315.1 466.5 L 1311.6 469.6 L 1325.7 505.4 L 1346.5 539.5 L 1372.2 592.3 L 1384.7 610.8 L 1395.6 630 L 1426.1 667.5 L 1419.3 673.4 L 1420.4 695.5 L 1459.9 725.9 L 1465.9 732.9 Z" />
<path class="neighbor" d="M 1836.5 1207.8 L 1740.6 1309.7 L 1696.4 1311.2 L 1666.2 1335.1 L 1644.4 1335.7 L 1635.2 1346.4 L 1612 1346.4 L 1598.3 1335 L 1567.3 1349.1 L 1557.3 1363.3 L 1534.6 1360.6 L 1527.1 1356.7 L 1519.2 1357.6 L 1508.5 1357.3 L 1465.5 1328.5 L 1441.9 1328.5 L 1430.3 1317.3 L 1430.3 1298.3 L 1412.7 1292.6 L 1392.6 1255.6 L 1377.1 1247.8 L 1371.2 1234.2 L 1354 1217.7 L 1333.1 1215.2 L 1344.7 1195.9 L 1362.7 1195.1 L 1367.8 1184.7 L 1367.3 1154.2 L 1377.4 1118.7 L 1393.4 1109.2 L 1396.8 1095.3 L 1411.4 1069.4 L 1431.9 1052.6 L 1445.7 1019.2 L 1451.1 990 L 1490.6 997.1 L 1501.2 971.8 L 1521.8 987.2 L 1541.7 979.2 L 1549.8 986.3 L 1573.1 986.7 L 1602.6 1000.3 L 1611.4 1012 L 1626.5 1022.9 L 1640.4 1042.8 L 1652 1053.8 L 1640.1 1068.8 L 1628.6 1084.7 L 1631.2 1094.1 L 1631.8 1104.4 L 1650.7 1105 L 1658.9 1102.6 L 1666.4 1108.6 L 1659 1120.7 L 1671.6 1139.3 L 1684.1 1155.7 L 1697 1167.8 L 1808 1208.1 L 1836.5 1207.8 Z" />
<path class="lake" d="M 715.2 1035.6 L 715.2 1036.2 L 714.3 1036.7 L 713.5 1037.5 L 713.3 1038.5 L 712.4 1038.9 L 711 1038.6 L 710.1 1038.6 L 707.5 1039 L 706.1 1039.9 L 703.8 1041.7 L 701.7 1042.5 L 700 1042.2 L 699.3 1041.6 L 698.8 1038.8 L 698.8 1038.1 L 699.6 1037.8 L 699.8 1037.3 L 700.4 1036.1 L 700.5 1035.5 L 700.6 1035.3 L 701.2 1034.3 L 701.2 1033.7 L 701.6 1032.8 L 702.5 1032 L 704.1 1031.2 L 706.8 1030.2 L 708.8 1030.2 L 710.1 1031 L 712.2 1031.2 L 712.7 1031.7 L 714 1033.6 L 715.2 1035.6 L 715.2 1035.6 L 715.2 1035.6 Z" />
<path class="lake" d="M 1308.7 710 L 1306.4 709.8 L 1305.1 709.5 L 1304 709.7 L 1302.6 710.3 L 1301.5 711.4 L 1300.3 712.6 L 1299.5 713.5 L 1299.2 714.7 L 1298.6 716.6 L 1297.3 717.9 L 1295.9 718.8 L 1295 720 L 1294.8 721 L 1293.7 720.8 L 1292.1 720.6 L 1291 721 L 1290.4 721.6 L 1289.9 721.8 L 1289.4 722 L 1288.7 722.3 L 1288.6 722.8 L 1288.8 723.6 L 1288 724.7 L 1285.6 725.8 L 1283.3 727.5 L 1281.8 729.4 L 1280.8 731 L 1280.1 733.4 L 1278.9 737 L 1277.7 739.3 L 1276.8 740.2 L 1275.5 740.9 L 1273.7 742.8 L 1272.1 744.8 L 1271 746.1 L 1269.9 746.2 L 1270.6 744.1 L 1272.6 741.4 L 1274.8 738.1 L 1277.1 735.2 L 1278.2 732.5 L 1279.5 729.4 L 1282.1 725.8 L 1287 721.4 L 1290 718.3 L 1290.7 717.5 L 1291.9 717 L 1293.5 716.5 L 1292.4 714.8 L 1289.9 712.4 L 1289.8 711.7 L 1291.6 712.4 L 1293.8 713.6 L 1294.8 713.7 L 1295.4 713.1 L 1296.1 712.1 L 1296.8 711.2 L 1297.8 710.5 L 1299.6 709.2 L 1301.6 708 L 1302.8 707.4 L 1303.8 707 L 1305.3 706.4 L 1306.4 706.2 L 1307.2 706.5 L 1308.3 706.8 L 1310.7 708.4 L 1312.2 709.5 L 1314.8 709.3 L 1317.8 707.2 L 1318.6 705.9 L 1319.2 704.8 L 1319.8 702.4 L 1320.5 701.4 L 1321.6 700.1 L 1322.3 698.8 L 1323.4 696.3 L 1324.5 693.8 L 1325.8 691.2 L 1327.5 689.7 L 1328.6 689.5 L 1329 689 L 1329.4 688.2 L 1329.8 687.4 L 1329.6 686 L 1329.7 684.1 L 1329.3 682.6 L 1327.5 681.9 L 1326 681.5 L 1324.7 682.2 L 1323.2 682.9 L 1321.9 682.8 L 1321.1 682.1 L 1322.8 680.8 L 1324.7 679.6 L 1324.4 679 L 1323.7 678.8 L 1323.2 679.3 L 1322.7 679.7 L 1322 679 L 1323 677.5 L 1325.8 677.8 L 1327.8 679.2 L 1329.1 678 L 1329.7 676 L 1329.4 675 L 1329.6 674.1 L 1330.3 673.2 L 1330.4 672.1 L 1330.1 670.9 L 1328.9 669.3 L 1328.7 668.1 L 1330.6 665.5 L 1332.4 667.1 L 1332.8 672.1 L 1334.2 675.4 L 1334 676.7 L 1333 677.2 L 1332 677.5 L 1331.6 678.3 L 1331.7 679.2 L 1332.1 679.7 L 1332.7 679.9 L 1333 680.1 L 1334.3 681 L 1334.9 681.7 L 1333 681.7 L 1332 682.5 L 1332.8 684.4 L 1334 685.5 L 1334.4 686.4 L 1334.5 687.5 L 1334.9 688.8 L 1334.9 690.1 L 1334.9 690.9 L 1334.5 691.1 L 1333.2 690.8 L 1332 690.5 L 1332.3 692 L 1331.7 693.5 L 1330.1 693.7 L 1329.7 694.1 L 1329.8 695 L 1330.3 696 L 1331.5 697.2 L 1332.8 698.8 L 1334.4 700.5 L 1333.7 701.2 L 1329.9 699.7 L 1327.4 697.6 L 1326 697.9 L 1325.8 698.7 L 1325.3 699.9 L 1324.7 700.8 L 1324.2 701.1 L 1323.2 701.6 L 1322.2 702.2 L 1321.7 702.5 L 1321.5 703.4 L 1321.4 705 L 1320.7 706.3 L 1318.3 708.3 L 1315.3 710.8 L 1313.3 712.4 L 1312 713.2 L 1311.9 714.2 L 1310.8 714.9 L 1309.4 714.7 L 1309.2 714.3 L 1309.9 713.8 L 1310.9 712.8 L 1310.8 712.1 L 1310.2 711.8 L 1309.5 711.1 L 1308.9 710.6 L 1308.7 710 L 1308.7 710 L 1308.7 710 L 1308.7 710 Z" />
<path class="country" d="M 1063.2 732.9 L 1063.2 800.7 L 1024.2 800.8 L 1023.8 815 L 888.5 750 L 753.1 685.1 L 718.9 703.6 L 694.9 716.2 L 675.8 697.6 L 622.1 683 L 607.2 661.7 L 580.4 645.9 L 564.6 652.2 L 552.5 633.2 L 551.2 618.7 L 531.2 594 L 544.6 579.8 L 541.7 558.5 L 546 539.9 L 543.5 524.4 L 549.5 496.7 L 547.7 481 L 536.7 451 L 553.2 443.1 L 556.2 428.8 L 552.6 414.8 L 575.9 401.7 L 586.3 390.8 L 602.9 381.1 L 604.8 355 L 644.6 366.7 L 658.9 363.8 L 687.2 369.4 L 732.3 384.6 L 748.1 414.7 L 778.6 421.3 L 826.4 435.5 L 862.6 452.4 L 879.1 443.6 L 895.4 428 L 887.5 402 L 898.1 385.5 L 922.6 369.6 L 945.9 365 L 991.8 371.9 L 1003.4 387.1 L 1016 387.2 L 1026.8 393 L 1060.6 397 L 1068.8 408.2 L 1056.6 424.5 L 1061.8 439 L 1053.1 459.9 L 1063.2 487.3 L 1063.2 607.9 L 1063.2 732.9 Z" />

<path class="river" d="M 371.9 1144.7 L 368.6 1132 L 368.9 1125.7 L 372.9 1119.4 M 79.9 960.9 L 73.6 958 L 70.8 956.1 L 68.9 953.2" />
<path class="river" d="M 1330.6 665.5 L 1331.6 671.5 L 1331.4 675.3 L 1330.3 678.9 L 1330.6 682.7 L 1331.4 684.9 L 1331.8 687.7 L 1329.8 691.9 L 1323.8 698.6 L 1320.7 703.2 L 1320.3 705.5 L 1318.2 707.8 L 1315 710.1 L 1311.8 710.7 L 1308.6 708.5 L 1305.4 708 L 1302.2 709.2 L 1299.4 711.5 L 1297.2 715.1 L 1291.8 719.5 L 1285.3 724.4 L 1280.4 729.7 L 1279.1 733.6 L 1276.3 738.2 L 1269.9 746.2" />
<path class="river" d="M 1319.8 455.3 L 1313 447" />
<path class="river" d="M 855.8 1179.6 L 854.3 1180.3 L 851.5 1179.3 L 846.9 1176.9 L 841.9 1172.6 L 833.6 1163.2 L 818.6 1149.5 L 812.9 1143 L 811.5 1139.2 L 809.4 1135.7 L 804.4 1130 L 802.5 1128.2 L 800.2 1126.9 L 797.6 1126.2 L 795.3 1124.6 L 793.5 1122.3 L 791.9 1120.9 L 790.5 1120.6 L 787.6 1121.5 L 783 1123.5 L 778.6 1123.8 L 774.3 1122.4 L 769.4 1119.8 L 764 1116.1 L 758.4 1113.9 L 752.7 1113.2 L 748 1111.8 L 744.4 1109.7 L 741.6 1107.6 L 739.7 1105.5 L 738.6 1102.6 L 738.3 1098.9 L 737 1094.5 L 734.9 1089.3 L 734.1 1084.5 L 734.8 1079.9 L 733.5 1075.8 L 730.2 1072 L 726.5 1069.3 M 726.5 1069.3 L 722.2 1070.8 L 718.6 1069.7 L 713.5 1067.3 L 709.8 1064.8 L 707.6 1062.1 L 704.1 1060.5 L 699.2 1060.1 L 696.7 1059.2 L 696 1056.2 M 726.5 1069.3 L 722.5 1067.8 L 719.9 1063.1 L 718.7 1055.2 L 715.8 1050 L 711.1 1047.5 L 708.5 1044.4 L 707.5 1039" />
<path class="river" d="M 1272.4 456.3 L 1269.5 450.4 L 1270.5 447.2 L 1274 444.2 L 1275.3 440.3 L 1274.5 435.5 L 1274.4 432 L 1275.1 429.8 L 1277.4 426.9 L 1281.1 423.2 L 1284.1 421.2 L 1286.5 421 L 1289.6 418.1 L 1295.3 409.7" />
<path class="river" d="M 1271.1 1159.3 L 1278.6 1161.6 L 1282.2 1162 L 1284.4 1161.3 L 1286.5 1158.9 L 1288.5 1155 L 1292.1 1151.7 L 1297.3 1149.2 L 1302 1145.7 L 1306.1 1141.2 L 1308.7 1137.6 L 1309.8 1135.1 L 1309.9 1131.7 L 1309.1 1127.6 L 1307.6 1125.3 L 1305.5 1125 L 1304.4 1124.1 L 1304.4 1122.8 L 1308.9 1117.8 L 1318.1 1109.3 L 1322.7 1102.7 L 1322.6 1098 L 1323.6 1092.1 L 1325.8 1085 L 1326.7 1079.2 L 1326.2 1072.4 L 1325.5 1065.8 L 1326 1060.9 L 1327.3 1055.6 L 1327.6 1050.1 L 1326.7 1044.3 L 1326.8 1040.3 L 1327.8 1038.1 L 1326.3 1034.3 L 1322.3 1028.9 L 1320.6 1023.9 L 1321.2 1019.3 L 1320.7 1016.6 L 1318.9 1015.8 L 1317.7 1014.4 L 1317.1 1012.4 L 1315.7 1010.3 L 1313.4 1008.2 L 1310.8 1003.3 L 1307.7 995.4 L 1306.6 988.6 L 1307.4 982.7 L 1309.7 977.8 L 1313.3 973.7 L 1315.7 966 L 1317.4 948.9" />
<path class="river" d="M 1414.6 1134.8 L 1414.2 1133.8 L 1412.5 1126.1 L 1410.8 1122.5 L 1407.6 1120.6 L 1408.7 1107 L 1408 1101.4 L 1405.9 1099.3 L 1402.3 1097.7 L 1395 1096.1 M 1381.5 1079.6 L 1379.6 1070.6 L 1379.4 1065.6 L 1380.2 1061.8 L 1378.8 1058.6 L 1375.4 1056 L 1374 1054.1 L 1374.6 1052.8 L 1374.6 1050.6 L 1373.8 1047.5 L 1372.6 1044.9 L 1370.8 1042.9 L 1370 1042.6 L 1368.6 1041.6 L 1368 1039.7 L 1367.3 1033.4 L 1366.3 1029.5 L 1364.9 1028.1 L 1362.8 1027.2 L 1359.9 1026.9 L 1358.2 1025.4 L 1357.5 1022.5 L 1356.4 1020.3 L 1354.8 1018.9 L 1354.5 1017.3 L 1355.3 1015.6 L 1355.1 1014.3 L 1354.3 1013.4 L 1354.4 1012.6 L 1354.9 1012.1 L 1355 1011.4 L 1354.4 1010.5 L 1354.2 1009.8 L 1354.4 1009.2 L 1354.9 1008.9 L 1355.2 1008.2 L 1354.8 1006.5 L 1355.4 1004 L 1357 1000.7 L 1353.9 992.7 L 1346.1 980.1 L 1341.8 971.9 L 1341.1 968.3 L 1339.2 965 L 1336.3 962.2 L 1333 960.1 L 1329.3 958.9 L 1325.7 956.1 L 1322.1 951.7 L 1319.5 949.3 L 1317.4 948.9" />
<path class="river" d="M 1274.9 457.3 L 1276.4 457.1 L 1277.8 455.3 L 1279.7 452 L 1283.2 448.6 L 1288.6 445 L 1296.2 442.8 L 1311.1 441.3" />
<path class="river" d="M 427.6 1310 L 426.1 1312.5 L 423 1315 L 421.2 1319.6 L 420.4 1329.4 L 421.1 1333.8 M 427.6 1310 L 427.7 1329 M 434 1297.4 L 431.2 1298 L 428.8 1299 L 426.7 1300.5 L 425.6 1301.8 L 425.7 1302.9 L 424.3 1304.2 L 421.6 1305.5 L 418.3 1305.3 L 414.3 1303.6 L 409.6 1303.2 L 400.8 1304.5 M 434 1297.4 L 431.9 1299.5 L 430.4 1301 L 429.7 1302.3 L 429.8 1303.1 L 430.7 1303.6 L 430.5 1304.5 L 429.4 1305.9 L 428.4 1306.5 L 427.6 1306.5 L 427.3 1307.7 L 427.6 1310 M 437.4 1291.3 L 439.1 1296.7 L 438.5 1299.5 L 436.3 1301.8 L 434.6 1304.4 L 433.6 1307.5 L 434.2 1309.7 L 436.4 1310.8 L 438 1312.9 L 438.9 1316 L 440.3 1318.9 L 442.6 1323.1 L 442.8 1326.7 L 442.6 1328.4 L 442.6 1329.3 L 442.8 1332.1 M -149.2 1171 L -146.9 1168.8 L -145.5 1166 L -144.1 1162 L -144.2 1158.7 L -146.6 1154.8 L -146.2 1148.6 L -147.6 1143 L -150.8 1136 L -152.1 1131.7 L -151.4 1130.1 L -149.7 1129.2 L -147 1128.8 L -145.9 1127.9 L -146.2 1126.4 L -145.2 1125.6 L -142.7 1125.6 L -140.7 1124.8 L -139.1 1123 L -136.7 1122.3 L -133.6 1122.7 L -131.8 1123.4 L -131.1 1123.9 L -130.3 1124.1 L -129.5 1123.7 L -126.2 1120.8 L -123.4 1119.4 L -121 1119.7 L -119.8 1118.9 L -119.2 1118.3 L -117.6 1117.6 L -112.8 1117.1 L -108.6 1113.6 L -105.1 1107.2 L -102.1 1104 L -99.5 1103.9 L -97.2 1102.9 L -95.1 1100.9 L -94.4 1098 L -95.2 1094.2 L -93.5 1091.9 L -89.2 1091.3 L -85.4 1089 L -82.3 1085.1 L -78.6 1081.8 L -74.4 1079 L -71.2 1075.4 L -69 1071.2 L -66.1 1067.3 L -62.4 1064 L -59.8 1059.5 L -58.3 1053.9 L -55.3 1051 L -51 1050.6 L -45.2 1046.9 L -38 1039.7 L -32.1 1034.8 L -25.2 1030.7 L -20.9 1027.3 L -15.4 1026 L -7.3 1025.8 L -1.1 1024.4 L 3.3 1021.9 L 6.4 1018.9 L 8.2 1015.5 L 10.6 1014.2 L 14.7 1013.9 L 18.6 1013 L 25.1 1008.2 L 30.5 1005.7 L 34.9 1005.4 L 38 1004.1 L 39.7 1001.7 L 45.4 999.1 L 55 996.3 L 60.6 995.3 L 62.7 995 L 65.1 993.7 L 72.4 985.7 L 75.2 978.2 L 77.8 974.3 L 81 971.7 L 81.9 968 L 79.9 960.9 L 80.8 960.6 L 82.1 960 L 84.2 958.4 L 85.3 957 L 85.4 955.8 L 84.2 955 L 81.7 954.6 L 81.8 953.3 L 86.1 950 L 86.4 949.4 L 83.9 948.6 L 84.3 948 L 85.6 947.6 L 87.8 947.2 L 88.9 945.6 L 89.1 942.7 L 90 940.8 L 91.6 940.1 L 92.9 938.6 L 93.8 936.3 L 96.1 934.9 M 371.9 1144.7 L 372.5 1148.4 L 372.1 1151.3 L 370.8 1154.6 L 370.6 1158 L 371.4 1161.3 L 372.9 1163.4 L 374.9 1164.3 L 376.1 1165.8 L 376.6 1167.9 L 378.8 1168.6 L 382.8 1167.8 L 386.5 1168.9 L 390 1172.1 L 394.5 1174.4 L 400.1 1175.7 L 405.1 1178 L 411.8 1182.8 L 419.2 1182.3 L 423.9 1182.8 L 428.4 1183.9 L 431.6 1186.6 L 433.4 1191.1 L 436.2 1195.1 L 440 1198.9 L 442.8 1203.1 L 444.7 1207.7 L 444.9 1215 L 442.6 1229.6 L 441.1 1242.8 L 440.9 1250.6 L 442 1260.9 L 443.7 1268.9 L 442.5 1276.6 L 437.4 1291.4 L 435.3 1294 L 434.8 1295.4 L 435.2 1296.6 L 434 1297.4 M 68.9 953.2 L 67.7 949.4 L 68.5 947.3 L 70.7 945.6 L 72.2 943.5 L 72.9 941.1 L 74.5 940.2 L 77 940.8 L 80.5 939.1 L 85.2 934.9 L 89.8 932.7 L 94.3 932.3 L 97.3 931 M 96.1 934.9 L 97.3 931 M 97.3 931 L 98.8 928.8 L 100.3 927.6 L 101.8 927.5 L 102.6 926.6 L 102.6 925.1 L 104.2 923.4 L 105.6 922.6 M 105.6 922.6 L 106.7 926.3 L 106.8 927.9 L 106.2 928.8 L 105.2 929.5 L 104 929.8 L 102.9 930.9 L 102 933.1 L 99.7 934.4 L 96.1 934.9 M 105.6 922.6 L 107.5 921.6 L 109.5 919.1 L 110.4 915.9 L 112.2 914.4 L 114.9 914.7 L 121.9 913.1 L 133.1 909.6 L 140.4 908.1 L 143.6 908.5 L 145.6 908.2 L 146.3 907.2 L 150.6 905.4 L 158.5 903 L 165.8 901.4 L 172.5 900.6 L 177 900.9 L 179.3 902.3 L 182.2 902.7 L 185.9 902.3 L 188.8 902.8 L 191 904.3 L 194.6 904.7 L 199.4 904.1 L 203.2 906.9 L 205.8 913.1 L 208.1 916.9 L 209.9 918.4 L 211.9 922 L 215 930.7 L 219.8 937.1 L 223.7 940.8 L 228.4 944.1 L 230.9 947.4 L 231.3 950.6 L 233.5 953.1 L 237.7 954.9 L 240 956.5 L 240.3 957.8 L 239.6 960.8 L 237.8 965.5 L 237.2 968.9 L 237.8 970.8 L 239.4 972.2 L 242 972.9 L 244 975.2 L 245.2 978.9 L 247.7 983 L 251.4 987.5 L 255.9 991.4 L 261.2 994.9 L 264.6 999.4 L 266.2 1005 L 268.6 1009.6 L 271.6 1013 L 276.4 1016.2 L 282.9 1019.3 L 287 1022.1 L 288.7 1024.6 L 290.8 1026.6 L 293.3 1028.2 L 294.8 1032.3 L 295.4 1039.1 L 296.9 1044.5 L 299.4 1048.3 L 300.5 1050.9 L 300 1052.2 L 300.3 1053.5 L 301.1 1054.3 L 302.2 1054.2 L 303.1 1053.5 L 303.7 1053.5 L 304.1 1054.2 L 305 1054.5 L 306.3 1054.2 L 307.2 1054.6 L 307.8 1056.3 L 308.9 1057.6 L 310.5 1058 L 311.4 1058.7 L 321.8 1068.2 L 325.8 1072.5 L 326.9 1074.7 L 328.9 1076.3 L 332 1077.2 L 334.8 1079.4 L 336.9 1082.5 L 340.3 1085.1 L 345.6 1086.8 L 351.4 1089.7 L 355.2 1092.9 L 358.8 1097.3 L 363.1 1100.4 L 368.1 1102.2 L 371.7 1104.6 L 374 1107.6 L 374.6 1111.7 L 372.9 1119.5" />
<path class="river" d="M 1317.4 948.9 L 1318.9 935.1 L 1322.1 927.8 L 1327.4 922.3 L 1332.3 919.3 L 1336.8 918.6 L 1340.3 917.3 L 1342.9 915.2 L 1346.9 913.2 L 1352.3 911.4 L 1356.2 908.5 L 1358.7 904.5 L 1359.5 901.6 L 1358.9 899.9 L 1358.9 897.4 L 1359.8 894.2 L 1362.2 889.7 L 1366.1 883.9 L 1367 878.9 L 1367.6 875.7 L 1366.6 865 L 1365.2 859.2 L 1363.4 858.3 L 1361.3 856.3 L 1359.1 853.2 L 1357.8 849.8 L 1357.6 846.2 L 1356.6 844.1 L 1354.7 843.5 L 1353.9 839.9 L 1354.2 833.2 L 1353 828.8 L 1350.4 826.6 L 1348.7 824.3 L 1347.6 820.3 L 1339.4 817.6 L 1335.3 817.4 L 1332.6 818.6 L 1329.2 821.7 L 1325.1 826.6 L 1321.8 829.2 L 1319.3 829.5 L 1316.6 831.9 L 1313.8 836.3 L 1311.2 838.4 L 1308.6 838.4 L 1306 839.3 L 1303.3 841.1 L 1302.1 843.4 L 1302.3 846.2 L 1300.9 848.1 L 1298.1 848.9 L 1294 853.3 L 1288.6 861.1 L 1282.9 866 L 1276.9 868.1 L 1271.8 868.6 L 1267.6 867.4 L 1263.8 865.7 L 1260.3 863.4 L 1258.1 859.9 L 1257.2 855.1 L 1255.8 851.7 L 1253.8 849.6 L 1252 846.2 L 1250.2 841.7 L 1249.4 835.1 L 1249.5 826.4 L 1248.4 818.7 L 1246.4 811.9 L 1244.8 808 L 1244.7 806.8 L 1245.4 805.6 L 1249.9 803.7 L 1252.4 801.9 L 1253.1 800.2 L 1253.2 797.4 L 1253 793.5 L 1252.3 790.9 L 1251.2 789.6 L 1249.5 788.9 L 1247.2 788.6 L 1245.3 786.6 L 1243.8 782.9 L 1243.6 779.9 L 1244.9 777.6 L 1245.2 775.8 L 1245.4 774.5 L 1246.4 773.4 L 1250.2 772.3 L 1252.5 770.2 L 1253.1 767.3 L 1254.3 765.3 L 1256.2 764.2 L 1257 762.7 L 1256.6 760.8 L 1258.8 758.4 L 1263.5 755.4 L 1265.8 753.3 L 1265.6 752.1 L 1266.6 750.1 L 1269.9 746.2 M 1330.6 665.5 L 1331.7 653.9 L 1331.7 649.6 L 1330.9 648.8 L 1331 646.7 L 1332 643.4 L 1332 638.9 L 1331.1 633.4 L 1330.3 629.8 L 1329.5 628.3 L 1326.8 626 L 1322.1 623 L 1319.1 619.2 L 1317.8 614.7 L 1317.5 611.9 L 1318.5 610.3 L 1324.7 605.5 L 1326.7 601.3 L 1326.7 596 L 1325.7 592.8 L 1323.8 591.6 L 1319.5 592.3 L 1313 594.9 L 1308.5 594.6 L 1306 591.4 L 1304 590.7 L 1302.2 590.7 L 1301.3 590.4 L 1300.7 588.8 L 1299.6 587.1 L 1296.4 584.5 L 1294.7 582.1 L 1294.4 579.9 L 1293.4 578.8 L 1291.6 578.7 L 1290.8 578 L 1291 576.6 L 1290.4 575.7 L 1289.1 575.3 L 1285.6 571.3 L 1279.4 562.9 L 1278.4 561.3 L 1277.1 559.9 L 1276.3 559.1 L 1275.1 558.4 L 1265.8 551.2 L 1262.4 546.3 L 1263.1 542.3 L 1262.9 537.2 L 1262.7 532.6 L 1262.2 529.8 L 1261.3 528 L 1260.3 526.4 L 1259.2 525.2 L 1258.2 523.7 L 1258 521.5 L 1258.8 518.8 L 1260.4 515.7 L 1261.3 512.6 L 1261.3 509.6 L 1262 506.2 L 1263.4 502.5 L 1266.7 497.3 L 1271.8 490.7 L 1274.3 485.8 L 1274.1 482.5 L 1274.8 478.8 L 1276.4 474.7 L 1276.6 468.8 L 1275.5 461.5 L 1275.4 458.7 L 1274.9 457.3" />
<path class="river" d="M 1274.9 457.3 L 1274 456.7 L 1272.4 456.3 L 1268.6 454.9 L 1265.9 453.1 L 1264.6 451.1 L 1263.3 450.1 L 1261.9 449.4 L 1262 448.4 L 1261.7 445.5 L 1259.6 438.8 L 1259 435 L 1259.5 433.9 L 1259.1 432.8 L 1258.8 432.1 L 1258.8 429.4 L 1258.3 427.2 L 1257.2 425.3 L 1255.1 423.5 L 1252.2 421.7 L 1250.7 419.7 L 1250.5 417.5 L 1249.5 415.4 L 1246.3 412" />
<path class="river" d="M 1319.8 455.3 L 1320 462.3 M 1313 447.1 L 1311.1 441.3 L 1312.1 438.1 L 1312.2 432.3 L 1311.7 418.8" />
<g class="city"><circle cx="1275.2483777923633" cy="459.68326472431073" r="5" /><text x="1287.2483777923633" y="463.68326472431073">Cairo</text></g>
<g class="city"><circle cx="1318.824221633182" cy="950.4038018294656" r="5" /><text x="1330.824221633182" y="954.4038018294656">Khartoum</text></g>
<g class="city"><circle cx="1231.1377317463189" cy="420.65946614936604" r="5" /><text x="1243.1377317463189" y="424.65946614936604">Alexandria</text></g>
<g class="city"><circle cx="318.38591170038706" cy="231.89420578693995" r="5" /><text x="330.38591170038706" y="235.89420578693995">Algiers</text></g>
<g class="city"><circle cx="1020.1935340956819" cy="190.4883131563353" r="5" /><text x="1032.193534095682" y="194.4883131563353">Athens</text></g>
<g class="city"><circle cx="1136.1891497866045" cy="175.12309053219104" r="5" /><text x="1148.1891497866045" y="179.12309053219104">İzmir</text></g>
<g class="city"><circle cx="560.3573917093508" cy="230.6126960550218" r="5" /><text x="572.3573917093508" y="234.6126960550218">Tunis</text></g>
<g class="city"><circle cx="1317.0525981361297" cy="949.4992765845761" r="5" /><text x="1329.0525981361297" y="953.4992765845761">Omdurman</text></g>
<text class="map-title" x="80" y="105">Libya Physical Study Map</text>
<text class="map-subtitle" x="80" y="145">Landmark: Leptis Magna Ruins | Study terrain and water systems</text>
  <text class="footer" x="80" y="1036">Made with Natural Earth. Free vector and raster map data @ naturalearthdata.com.</text>
</svg>
