<?xml version="1.0" encoding="UTF-8"?>
<svg xmlns="http://www.w3.org/2000/svg" width="1600" height="1100" viewBox="0 0 1600 1100" role="img" aria-labelledby="title desc">
  <title id="title">Morocco Political Study Map</title>
  <desc id="desc">Made with Natural Earth. Free vector and raster map data @ naturalearthdata.com.</desc>
  <defs>
    <linearGradient id="terrain" x1="0" x2="1" y1="0" y2="1">
      <stop offset="0%" stop-color="#6c8c53" />
      <stop offset="42%" stop-color="#d5c487" />
      <stop offset="72%" stop-color="#b88b5f" />
      <stop offset="100%" stop-color="#f1f5ee" />
    </linearGradient>
    <filter id="softShadow" x="-10%" y="-10%" width="120%" height="120%">
      <feDropShadow dx="0" dy="10" stdDeviation="12" flood-color="#0f172a" flood-opacity="0.16" />
    </filter>
    <style>
      .neighbor { fill: #ffffff; stroke: #94a3b8; stroke-width: 1.2; opacity: 0.72; }
      .country { fill: #f7f1df; stroke: #1f2937; stroke-width: 4; filter: url(#softShadow); }
      .admin1 { fill: none; stroke: #64748b; stroke-width: 1.1; stroke-dasharray: 6 7; opacity: 0.75; }
      .river { fill: none; stroke: #1d9bd1; stroke-width: 3; stroke-linecap: round; opacity: 0.88; }
      .lake { fill: #8ed1ea; stroke: #0ea5e9; stroke-width: 1.5; opacity: 0.8; }
      .city circle { fill: #ef4444; stroke: #ffffff; stroke-width: 2; }
      .city text, .terrain-label { fill: #172033; font: 700 24px system-ui, sans-serif; paint-order: stroke; stroke: #ffffff; stroke-width: 5; stroke-linejoin: round; }
      .map-title { fill: #0f172a; font: 800 46px system-ui, sans-serif; }
      .map-subtitle { fill: #475569; font: 600 24px system-ui, sans-serif; }
      .footer { fill: #64748b; font: 500 18px system-ui, sans-serif; }
    </style>
  </defs>
  <rect width="100%" height="100%" fill="#eaf3f8" />
  <rect x="40" y="40" width="1520" height="1020" rx="32" fill="#ffffff" opacity="0.54" />
  <path class="neighbor" d="M 813.1 615 L 813.1 617.1 L 812.4 623.3 L 812.4 671.9 L 707.1 670.2 L 708.1 752.3 L 678 755.2 L 670.2 771.7 L 676.3 818 L 550.7 817.8 L 543.7 828.5 L 545 814.9 L 545.6 815 L 617.8 812.4 L 621.7 800.9 L 634.8 786.5 L 645.4 742.2 L 690 707.6 L 705.1 667.1 L 715.1 664.8 L 725.6 639.8 L 752.6 636.3 L 764.2 640.5 L 778.7 640.5 L 789.1 633.2 L 808.9 632.1 L 808.2 615 L 813.1 615 Z" />
<path class="neighbor" d="M 6824.5 -778.7 L 6865.4 -792 L 6865.4 -770.1 L 6830.2 -768.5 L 6824.5 -778.7 Z M 2666.2 13.7 L 2651.6 32.7 L 2620.5 38 L 2588.6 71.1 L 2617.7 101.6 L 2614.6 123.2 L 2649.6 161 L 2649.6 161 L 2630.5 173.9 L 2625 182 L 2610.8 179.9 L 2588.7 160.4 L 2579.7 159.3 L 2559.5 151.9 L 2549.7 138.7 L 2519.8 132 L 2500.3 137 L 2494.7 131.1 L 2451 115.7 L 2403.8 110.5 L 2376.7 105 L 2372.8 108.8 L 2331.9 81.7 L 2295.3 69.6 L 2267.6 50.7 L 2290.9 45.6 L 2317.5 18.8 L 2299.6 6.1 L 2346.9 -7 L 2346 -14 L 2317.2 -8.9 L 2318.3 -23.1 L 2334.8 -32.1 L 2365.8 -34.4 L 2370.9 -45.1 L 2363.8 -62.8 L 2376.8 -79.6 L 2376.4 -89 L 2329.2 -99.5 L 2310.4 -99.1 L 2290.6 -114.1 L 2266 -109.1 L 2225.3 -120.3 L 2226 -126.6 L 2214.5 -140.6 L 2189 -142.1 L 2186.3 -152.1 L 2194.3 -158.6 L 2173.8 -176.7 L 2140.6 -173.6 L 2130.8 -175.2 L 2122.7 -167.9 L 2110.7 -169.2 L 2110.7 -169.2 L 2102.8 -189.8 L 2095.3 -200.4 L 2101.5 -203.4 L 2127.4 -202.3 L 2139.8 -209.3 L 2130.6 -217.9 L 2109 -223.5 L 2110.9 -229.3 L 2097.9 -235.2 L 2077.7 -256.2 L 2084.6 -264.8 L 2081.5 -279.9 L 2050.1 -287.5 L 2033.3 -283.7 L 2028.7 -291.7 L 1994.9 -299.7 L 1984.6 -318.7 L 1981.9 -334.2 L 1966.4 -341.6 L 1980.2 -351.8 L 1970.7 -381.7 L 1993.5 -400.2 L 1988.7 -405.8 L 1988.7 -405.8 L 2025.1 -423.5 L 1991.5 -438.8 L 1991.5 -438.8 L 2060.2 -479.7 L 2090 -498.2 L 2102.1 -514.6 L 2054.6 -536.6 L 2067.7 -557.5 L 2038.8 -581.4 L 2060.4 -608.9 L 2023.1 -645.4 L 2052.7 -669.6 L 2003.6 -690.9 L 2008.3 -713.4 L 2034.2 -716.4 L 2088.8 -729.2 L 2088.8 -729.2 L 2121.9 -740.4 L 2174.6 -721 L 2262.4 -713.4 L 2383.6 -677.1 L 2408.2 -661.8 L 2410.4 -640.5 L 2374.7 -623.6 L 2322.4 -615.1 L 2179.1 -639.5 L 2155.6 -635.4 L 2207.9 -611.9 L 2209.9 -597 L 2212 -564.2 L 2253.3 -554.4 L 2278.4 -546.1 L 2282.5 -561.7 L 2263.2 -575.5 L 2283.6 -587.6 L 2361.2 -567.6 L 2388.2 -575.5 L 2366.6 -599 L 2441.4 -630.4 L 2471 -628.5 L 2500.9 -617.3 L 2519.6 -639.4 L 2492.9 -658.5 L 2508.6 -677.7 L 2485 -697.6 L 2574.7 -687.3 L 2593.1 -669.3 L 2552.4 -665.3 L 2552.7 -647.5 L 2577.9 -636.5 L 2627.5 -643.5 L 2635.3 -663.9 L 2702.3 -679.2 L 2814.3 -706.8 L 2838.5 -705.2 L 2806.9 -685.7 L 2846.6 -682.4 L 2869.6 -693.3 L 2929.8 -694.2 L 2977.4 -707.5 L 3014 -688.2 L 3050.4 -709.4 L 3016.8 -728 L 3033.5 -738.6 L 3128.2 -728.9 L 3172.6 -718.9 L 3288.9 -682.2 L 3310.3 -699 L 3277.7 -716 L 3276.8 -722.8 L 3238.1 -725.9 L 3248.7 -741.1 L 3231.6 -766.2 L 3230.6 -776.4 L 3289.8 -805.5 L 3310.8 -834.6 L 3334.7 -840.9 L 3419.6 -832.5 L 3426.3 -814.6 L 3395.9 -788.6 L 3415.9 -778.4 L 3426.2 -756 L 3418.9 -712 L 3454.3 -692.3 L 3440.5 -670.9 L 3377.7 -625.4 L 3414.4 -620.6 L 3427.1 -632.2 L 3462.4 -640.4 L 3470.9 -656.3 L 3498.7 -671.6 L 3480 -689.8 L 3495 -711 L 3459.9 -713.6 L 3452.2 -731.5 L 3477.8 -763.7 L 3436.1 -789.8 L 3493.5 -811.5 L 3486.1 -834.3 L 3502.1 -835 L 3519 -817.2 L 3506.3 -786.3 L 3540.6 -780.4 L 3526 -803.5 L 3579.7 -816.1 L 3646.3 -817.8 L 3705.5 -799.6 L 3677 -826.3 L 3673.8 -860.4 L 3729.6 -866.9 L 3806.8 -865.5 L 3876.3 -869.7 L 3850.2 -886.5 L 3887.3 -907.5 L 3924.2 -908.4 L 3986.6 -924.3 L 4071.3 -928.6 L 4082 -937.4 L 4166.2 -940.4 L 4192.5 -933.2 L 4264.5 -950.2 L 4323.4 -949.7 L 4332.2 -963.5 L 4362.9 -977.2 L 4438.6 -990.4 L 4493.6 -980 L 4450 -972.1 L 4522.6 -967.1 L 4531.3 -951.3 L 4560.6 -959.1 L 4654.4 -958.7 L 4726.7 -943 L 4752.4 -931 L 4744.5 -914.3 L 4709 -904.8 L 4624.7 -887 L 4600.6 -877.5 L 4640.3 -873 L 4687.8 -864.9 L 4716.7 -871 L 4733 -850.4 L 4747.1 -858.7 L 4798.4 -863.8 L 4901.4 -858.5 L 4909.2 -843.5 L 5043.3 -838.7 L 5045.1 -863.2 L 5113.2 -857.6 L 5164.4 -857.8 L 5216.2 -840.9 L 5231 -820.4 L 5212 -806.9 L 5252.3 -781.7 L 5302.8 -768.7 L 5333.7 -802.3 L 5385.2 -787.9 L 5439.8 -796.5 L 5501.9 -786.6 L 5525.6 -795.6 L 5578 -791.1 L 5554.9 -820.9 L 5597.2 -834.8 L 5887 -814 L 5914.3 -794.9 L 5998.3 -770.4 L 6127.8 -776.5 L 6191.7 -771.2 L 6218.4 -758 L 6214.5 -734.5 L 6254 -725.4 L 6296.9 -731.9 L 6353.8 -732.8 L 6414.4 -726.5 L 6475.2 -730 L 6531.1 -701.5 L 6570.8 -711.8 L 6544.9 -732.3 L 6559.2 -746.5 L 6661.5 -737.6 L 6728.2 -739.5 L 6820.5 -724.2 L 6865.4 -710.2 L 6865.4 -582.4 L 6865.2 -582.2 L 6823.9 -568.1 L 6782.4 -570.4 L 6811.3 -553.4 L 6830.4 -526.9 L 6845.2 -518.3 L 6848.9 -505 L 6840.6 -496.5 L 6780.8 -503.5 L 6691.2 -479.4 L 6662.7 -475.6 L 6613.6 -453.1 L 6567 -433.4 L 6555.2 -418.8 L 6509.3 -441 L 6425.7 -415.8 L 6411.2 -427.7 L 6380.3 -414 L 6337.3 -418.4 L 6327 -397.3 L 6288.5 -366.3 L 6289.7 -353.3 L 6326.2 -346.1 L 6321.9 -299.4 L 6292.1 -298.2 L 6278.4 -271.4 L 6291.7 -257.6 L 6235.6 -241.2 L 6224.5 -204.6 L 6176.7 -196.7 L 6167.1 -164.1 L 6120.8 -134.3 L 6109 -156.4 L 6095.2 -203.2 L 6077.3 -274.4 L 6092.7 -318.9 L 6119.8 -338.1 L 6121.5 -353.1 L 6171.3 -360.2 L 6228.6 -400.6 L 6283.9 -433.6 L 6341.5 -459.2 L 6367.3 -504.4 L 6328.3 -501.7 L 6309.1 -475.3 L 6227.7 -440.1 L 6201.4 -479.5 L 6118.6 -468.6 L 6038.3 -414.9 L 6064.8 -395.2 L 5993.2 -386.8 L 5943.6 -383.5 L 5945.9 -406.7 L 5896.1 -411.6 L 5856.3 -395.8 L 5758.2 -401.3 L 5652.7 -391.8 L 5548.8 -329.2 L 5425.9 -253.5 L 5476.4 -249.5 L 5492.2 -229.4 L 5523.3 -222.3 L 5543.9 -238.3 L 5579.1 -236.2 L 5625.4 -200.9 L 5626.5 -173.6 L 5601.4 -141.6 L 5598.7 -103.3 L 5584.2 -52 L 5535.8 -5.6 L 5525.1 16.6 L 5481.6 54 L 5438.3 91 L 5417.6 110 L 5374.9 128.8 L 5354.6 129.2 L 5334.5 113.6 L 5291.4 137.1 L 5286.4 147.8 L 5286.4 147.8 L 5286.4 147.8 L 5286.4 147.8 L 5281.9 142.2 L 5281.9 142.1 L 5281.7 125.9 L 5298.1 125 L 5302.8 87.1 L 5294.3 59.6 L 5321.8 48.3 L 5360.8 54 L 5382.3 22.8 L 5393.3 -12.4 L 5405.8 -24.1 L 5422.7 -53 L 5369.6 -43.5 L 5341.8 -30.9 L 5293.1 -30.9 L 5280.1 -61.1 L 5242.1 -83.9 L 5186.3 -94.1 L 5174.4 -125.5 L 5163.2 -145.2 L 5151.2 -159.1 L 5131.4 -191.4 L 5103.2 -203.2 L 5055.2 -212.8 L 5012.7 -211.9 L 4972.8 -206.1 L 4946.3 -190.2 L 4963.9 -182.5 L 4964.3 -164.8 L 4946.5 -154.5 L 4917.5 -120.5 L 4917.8 -106.4 L 4872.6 -86.1 L 4834.1 -98.2 L 4795.8 -95.6 L 4779 -106.3 L 4759.8 -109.8 L 4712.8 -87.2 L 4670.5 -81.9 L 4641.1 -73.9 L 4600.6 -79.1 L 4570.9 -78.8 L 4551.4 -95.2 L 4520 -110.6 L 4487.9 -114.8 L 4447.3 -110.6 L 4417 -104.7 L 4371.4 -118.2 L 4365.3 -142.2 L 4327.6 -150.5 L 4298.4 -154.2 L 4262.5 -167.5 L 4229.3 -134.2 L 4242.3 -115.4 L 4211.1 -93 L 4164.7 -101.1 L 4132.7 -102.2 L 4111.3 -117.2 L 4077.8 -117.7 L 4049.9 -127.5 L 4001.1 -112.5 L 3939.9 -84.8 L 3906.1 -79.3 L 3893.5 -76.6 L 3876.5 -96.3 L 3835.2 -92 L 3821.5 -105.6 L 3799.1 -111.8 L 3783.7 -130.3 L 3766 -136.1 L 3719.9 -127.9 L 3675.7 -146.4 L 3658.6 -129.6 L 3586.9 -211 L 3546 -235.8 L 3557.7 -245.9 L 3477.3 -215.6 L 3446.5 -213.8 L 3449.2 -231.3 L 3408 -242.2 L 3374.5 -234.4 L 3364.4 -267.7 L 3306.7 -274.6 L 3277.9 -261.3 L 3197.6 -249.4 L 3182 -241.5 L 3061.9 -230.3 L 3047.2 -219.4 L 3070.4 -197.4 L 3039.6 -189.1 L 3045.6 -180.3 L 3014.8 -164.7 L 3066.8 -142.6 L 3058.7 -127.5 L 3013.7 -128.8 L 3004.4 -119.3 L 2963.3 -135.9 L 2912.5 -135.3 L 2878.4 -121.8 L 2840.4 -134.7 L 2769.7 -157 L 2719.6 -156.1 L 2653.4 -121.2 L 2649.4 -97.8 L 2616.4 -116.4 L 2590.8 -81.2 L 2600.2 -74.6 L 2581.7 -50.3 L 2608.9 -28.5 L 2632.7 -29.4 L 2653.2 -8 L 2649.9 8.5 L 2666.2 13.7 Z M 4099.4 -1097.1 L 4168.8 -1104.3 L 4231.1 -1088.2 L 4305 -1057.2 L 4297.1 -1028.3 L 4227.1 -1024.3 L 4137.7 -1033.6 L 4084.5 -1045.8 L 4059.9 -1068.8 L 4016.1 -1075.2 L 4099.4 -1097.1 Z M 4390.1 -1041.2 L 4471.4 -1022.9 L 4461.8 -1009.9 L 4281 -997.5 L 4339.6 -1039.6 L 4366 -1043.2 L 4390.1 -1041.2 Z M 5544.7 -940.3 L 5629.4 -938.9 L 5745.4 -921.9 L 5720.2 -898 L 5601.9 -898.9 L 5548.7 -891.3 L 5485.2 -912.2 L 5502.4 -934.3 L 5544.7 -940.3 Z M 5846 -914.9 L 5926.5 -906.5 L 5889.4 -893.8 L 5838.1 -896.7 L 5778.5 -909.4 L 5786.2 -919.7 L 5846 -914.9 Z M 5577.8 -851.5 L 5608.3 -864.2 L 5648.4 -867.2 L 5693.9 -854.9 L 5697.8 -846.5 L 5649.2 -846.2 L 5583.4 -849.8 L 5577.8 -851.5 Z M 2529.7 -1083.1 L 2592.3 -1089 L 2641.1 -1089.4 L 2647.6 -1080.7 L 2666.1 -1088.4 L 2696.3 -1093.7 L 2743.9 -1086.7 L 2731.5 -1081.8 L 2688.4 -1077.5 L 2659.6 -1075.1 L 2655.1 -1069.8 L 2617.6 -1064.5 L 2582.8 -1072.1 L 2601.1 -1082.2 L 2529.7 -1083.1 Z M 1820.3 -240.6 L 1761.3 -240.2 L 1721.8 -243.8 L 1729.1 -257.9 L 1773.3 -268.3 L 1806.9 -262.7 L 1821.1 -257.6 L 1817.7 -248.8 L 1820.3 -240.6 Z M 2807.6 -863.7 L 2884.4 -891.9 L 2875.7 -906.4 L 2947.5 -923.4 L 3053.4 -944 L 3160.1 -950 L 3215.1 -961.9 L 3277.5 -966 L 3299.8 -953.4 L 3278.3 -943.4 L 3164.6 -927.5 L 3066.6 -912.2 L 2967 -881.6 L 2919.2 -850.3 L 2868.9 -819.5 L 2875.4 -792.8 L 2936.8 -766.5 L 2917.8 -763.7 L 2813 -767.9 L 2804.5 -782.1 L 2746.4 -790.7 L 2741.7 -808 L 2774.5 -814.9 L 2773.4 -832.4 L 2837.1 -859.8 L 2807.6 -863.7 Z M 5675.7 -220.7 L 5686.8 -189.7 L 5686 -158.2 L 5699.2 -125.8 L 5731.5 -69 L 5684 -79.6 L 5664.3 -33.2 L 5695.6 -0.3 L 5694.7 22.1 L 5670.4 2.7 L 5649.3 27.6 L 5643.4 0.6 L 5647 -30.6 L 5643.3 -65.2 L 5650.7 -89.5 L 5652.1 -132.4 L 5633.3 -163.9 L 5636.2 -207.7 L 5665.8 -222.5 L 5653.1 -237.4 L 5667.4 -241.9 L 5675.7 -220.7 Z M -4520.6 -653.8 L -4523.4 -633.8 L -4501.7 -625.9 L -4509.2 -649.2 L -4422.1 -644.4 L -4359.3 -614.4 L -4391.1 -600.4 L -4443.7 -597.1 L -4444.5 -565.7 L -4457.3 -559 L -4487.4 -560 L -4511.8 -571.2 L -4554.5 -580.5 L -4561.6 -594.5 L -4594.2 -599.7 L -4630.7 -595.5 L -4648.1 -606.8 L -4641.2 -618.7 L -4679.6 -611.1 L -4665.1 -596 L -4683.3 -582.4 L -4683.3 -710.2 L -4604.7 -685.7 L -4520.6 -653.8 Z M -4641.4 -772.1 L -4683.3 -770.1 L -4683.3 -792 L -4679.2 -793.4 L -4652 -793.3 L -4605.6 -784.1 L -4608.4 -779.8 L -4641.4 -772.1 Z M 2163.7 27.4 L 2172.1 19.5 L 2194.9 26.3 L 2205.2 27.6 L 2209.4 33.9 L 2214.2 34.9 L 2214.5 37.7 L 2230.2 45.4 L 2262.9 43.5 L 2256.7 55 L 2221.5 60.5 L 2178 79.1 L 2160.1 72.5 L 2167.2 57.5 L 2132.2 48.1 L 2137.8 41.9 L 2168.5 31.3 L 2163.7 27.4 Z" />
<path class="neighbor" d="M -566.1 1368.8 L -585.1 1398.2 L -595 1421.8 L -607.2 1434 L -622.6 1436.3 L -627 1427.3 L -634.2 1425.9 L -644.1 1434.6 L -658.1 1428 L -649.9 1414.5 L -647.1 1399.8 L -641.5 1386 L -654.1 1367 L -656.6 1345.1 L -639.9 1317.5 L -629 1321 L -605.4 1328.6 L -571.4 1355.7 L -566.1 1368.8 Z M 1289.5 -84.6 L 1304.6 -76.2 L 1350.9 -70.3 L 1334.6 -48.3 L 1330.6 -25.5 L 1321.8 -20 L 1307.2 -23 L 1308.2 -14.8 L 1284.7 3.2 L 1284.2 17.7 L 1299.6 12.7 L 1310.6 26.8 L 1309.3 35.9 L 1318.7 47.9 L 1307.6 57.7 L 1315.8 82.5 L 1333.2 86.6 L 1329.6 100.5 L 1300.5 118.6 L 1237.2 109.9 L 1190.5 120.3 L 1186.8 139.6 L 1149.6 143.8 L 1113.6 129.3 L 1101.9 136.2 L 1042.8 121.7 L 1030 109.2 L 1046.6 89.9 L 1052.7 26 L 1019.6 -7.6 L 996 -23.9 L 947 -36.2 L 943.7 -59.6 L 985.3 -66.6 L 1039.2 -58.3 L 1029 -94.6 L 1059.3 -80.9 L 1134 -105.9 L 1143.6 -132.2 L 1171.7 -138.7 L 1176.3 -127.4 L 1191.2 -126.9 L 1206.2 -114 L 1228.5 -98.8 L 1245 -101.3 L 1273.1 -86.7 L 1280.2 -83.9 L 1289.5 -84.6 Z M 1371.6 134.7 L 1392.3 122.4 L 1397.7 149.9 L 1387.1 174.7 L 1372.6 168.2 L 1365.1 146.6 L 1371.6 134.7 Z" />
<path class="neighbor" d="M 554.9 1066 L 541.6 1041.1 L 525.6 1029.7 L 539.7 1023.6 L 555.3 1001 L 562.9 984.6 L 573.9 974.3 L 589.8 977 L 605.5 970.1 L 623.4 969.7 L 638.7 979.1 L 660 987.6 L 679.4 1011.2 L 700.6 1033.3 L 702.1 1053.2 L 708.4 1071.6 L 720.4 1080.6 L 723.2 1093 L 721.7 1103 L 717 1104.8 L 699.6 1102.3 L 697.1 1105.8 L 690.1 1106.6 L 667 1098.7 L 651.5 1098.4 L 592.3 1097.1 L 583.7 1100.7 L 573 1099.6 L 556 1104.9 L 550.8 1080.3 L 580 1081 L 587.7 1076.5 L 593.4 1076.2 L 605.3 1068.8 L 619.1 1075.6 L 633 1076.1 L 646.9 1068.9 L 640.4 1059.7 L 629.8 1065.1 L 619.9 1064.9 L 607.2 1057 L 597.1 1057.5 L 589.8 1065.1 L 554.9 1066 Z" />
<path class="neighbor" d="M 721.7 1103 L 723.2 1093 L 720.4 1080.6 L 708.4 1071.6 L 702.1 1053.2 L 700.6 1033.3 L 711.4 1027.4 L 716.8 1008.5 L 727 1007.8 L 749.4 1016.7 L 767.5 1010.4 L 779.9 1012.5 L 784.7 1005.4 L 913.4 1004.9 L 920.5 982.4 L 915 978.5 L 899.5 840 L 884 701.6 L 933.1 701 L 1041.3 771 L 1149.5 841 L 1157.2 856 L 1177.1 865.2 L 1192 870.4 L 1192.4 890.8 L 1227.9 887.7 L 1228 961.6 L 1210.5 983 L 1207.8 1002.8 L 1179.3 1007.8 L 1135.5 1010.6 L 1123.6 1022 L 1103.1 1023.3 L 1082.5 1023.4 L 1074.5 1017.2 L 1056.8 1021.8 L 1026.9 1035.1 L 1020.7 1045.2 L 995.8 1059.5 L 991.5 1067.8 L 978 1074.3 L 962.5 1070 L 953.7 1077.8 L 949 1099.8 L 923.6 1126.4 L 924.3 1137.3 L 915.5 1150.9 L 917.7 1169.5 L 904.4 1174.2 L 896.9 1178.3 L 892 1164.6 L 882.7 1168.2 L 877.2 1167.6 L 871.3 1176.9 L 846.5 1176.7 L 837.6 1171.8 L 833.4 1174.7 L 823.6 1165.5 L 825.3 1155.9 L 821.3 1152.2 L 814.5 1155.4 L 815.8 1144.9 L 822.3 1136.7 L 809.2 1123.2 L 805.4 1114.4 L 798.2 1107.3 L 791.8 1106.5 L 784.1 1111 L 773.7 1115.3 L 764.9 1122.2 L 751.2 1119.7 L 742.3 1111.5 L 737 1110.4 L 728.6 1114.7 L 723.5 1114.8 L 721.7 1103 Z" />
<path class="neighbor" d="M 543.7 828.5 L 550.7 817.8 L 676.3 818 L 670.2 771.7 L 678 755.2 L 708.1 752.3 L 707.1 670.2 L 812.4 671.9 L 812.4 623.3 L 933.1 701 L 884 701.6 L 899.5 840 L 915 978.5 L 920.5 982.4 L 913.4 1004.9 L 784.7 1005.4 L 779.9 1012.5 L 767.5 1010.4 L 749.4 1016.7 L 727 1007.8 L 716.8 1008.5 L 711.4 1027.4 L 700.6 1033.3 L 679.4 1011.2 L 660 987.6 L 638.7 979.1 L 623.4 969.7 L 605.5 970.1 L 589.8 977 L 573.9 974.3 L 562.9 984.6 L 560.1 967.3 L 569.1 951.5 L 573.1 921.3 L 569.5 889.6 L 565.7 873.6 L 568.9 857.6 L 560.6 842.4 L 543.7 828.5 Z" />
<path class="neighbor" d="M 1567.5 768.7 L 1575.3 818.6 L 1587.4 826.9 L 1587.9 837.1 L 1601.2 848.1 L 1594.2 862 L 1581.9 927 L 1580.2 968.8 L 1539.3 999 L 1525.4 1041.3 L 1538.8 1053.2 L 1538.7 1073.8 L 1559.3 1074.5 L 1556.1 1089.6 L 1547 1091.5 L 1546 1101.7 L 1540 1102.4 L 1518.3 1067.3 L 1510.8 1066 L 1485.7 1083.9 L 1460.9 1074.6 L 1443.6 1072.7 L 1434.3 1077.2 L 1415.5 1076.2 L 1396.6 1089.9 L 1380.2 1090.7 L 1341.4 1074.1 L 1326.2 1082 L 1309.8 1081.4 L 1297.8 1069.3 L 1265.7 1057.4 L 1231.2 1061.2 L 1222.8 1068.1 L 1218.3 1086.5 L 1209.1 1099.5 L 1206.9 1128.1 L 1182.4 1109.7 L 1170.9 1109.7 L 1160.2 1119.1 L 1160.9 1097.2 L 1123.9 1089.9 L 1122.9 1074.4 L 1104.8 1053.4 L 1100.5 1038.8 L 1103.1 1023.3 L 1123.6 1022 L 1135.5 1010.6 L 1179.3 1007.8 L 1207.8 1002.8 L 1210.5 983 L 1228 961.6 L 1227.9 887.7 L 1273.2 873.4 L 1366.1 810.4 L 1476 749.2 L 1526.7 763 L 1544.8 780.7 L 1567.5 768.7 Z" />
<path class="neighbor" d="M 917.7 1169.5 L 915.5 1150.9 L 924.3 1137.3 L 923.6 1126.4 L 949 1099.8 L 953.7 1077.8 L 962.5 1070 L 978 1074.3 L 991.5 1067.8 L 995.8 1059.5 L 1020.7 1045.2 L 1026.9 1035.1 L 1056.8 1021.8 L 1074.5 1017.2 L 1082.5 1023.4 L 1103.1 1023.3 L 1100.5 1038.8 L 1104.8 1053.4 L 1122.9 1074.4 L 1123.9 1089.9 L 1160.9 1097.2 L 1160.2 1119.1 L 1153.1 1128.7 L 1137.5 1131.7 L 1130.9 1145.7 L 1119.9 1149.4 L 1091.8 1148.7 L 1077 1146.1 L 1066.6 1151.3 L 1052.4 1149 L 996.7 1150.5 L 996 1168.7 L 1000.3 1192.8 L 978.4 1184.6 L 963.4 1185.8 L 952.1 1193.9 L 937.7 1187.1 L 932.1 1176.5 L 917.7 1169.5 Z" />
<path class="neighbor" d="M 812.4 623.3 L 813.1 617.1 L 813.1 615 L 812.8 577 L 864.6 553.3 L 896.6 548.4 L 922.9 539.8 L 935.1 523.7 L 972.7 511 L 974 487.3 L 992.6 484.5 L 1007.1 472.6 L 1049.1 467.2 L 1055 454.7 L 1046.5 447.9 L 1035.4 414 L 1033.5 394.5 L 1021.4 374 L 1052.3 356.4 L 1087 350.9 L 1107.2 337.6 L 1138.1 327.9 L 1192.5 322.2 L 1245.5 319.6 L 1261.7 324.3 L 1291.9 311.7 L 1326.2 311.4 L 1339.2 318.9 L 1361.2 316.9 L 1354.7 333.4 L 1359.8 364 L 1352.2 390.4 L 1332.4 408.3 L 1335.3 432.5 L 1361.5 451.6 L 1361.8 459.4 L 1381.5 472.3 L 1395.2 529.9 L 1405.6 558.2 L 1407.3 573.1 L 1401.7 599.3 L 1404 613.9 L 1399.9 631.5 L 1402.7 651.7 L 1390 665.1 L 1409 688.5 L 1410.2 702.2 L 1421.6 720.1 L 1436.6 714.2 L 1461.9 729.1 L 1476 749.2 L 1366.1 810.4 L 1273.2 873.4 L 1227.9 887.7 L 1192.4 890.8 L 1192 870.4 L 1177.1 865.2 L 1157.2 856 L 1149.5 841 L 1041.3 771 L 933.1 701 L 812.4 623.3 Z" />
<path class="neighbor" d="M 801.2 158.7 L 812.8 150.5 L 825.9 145.8 L 834 161.5 L 852.9 161.5 L 858.4 157.4 L 877.1 158.6 L 886.1 174.7 L 871.3 183.3 L 870.8 208.4 L 865.6 213.1 L 864.3 228.2 L 850.5 230.9 L 863.3 250.1 L 854.5 271.2 L 865.5 280.7 L 861.1 289.4 L 849.3 301.5 L 851.9 312.1 L 839 320.4 L 822.1 315.9 L 805.6 319.4 L 810.5 294.3 L 807.5 274.6 L 793.1 271.6 L 785.4 259.5 L 788 238.5 L 800.8 226.8 L 803.1 213.9 L 809.7 194.6 L 809 181 L 802.6 169.5 L 801.2 158.7 Z" />
<path class="neighbor" d="M 851.9 312.1 L 849.3 301.5 L 861.1 289.4 L 865.5 280.7 L 854.5 271.2 L 863.3 250.1 L 850.5 230.9 L 864.3 228.2 L 865.6 213.1 L 870.8 208.4 L 871.3 183.3 L 886.1 174.7 L 877.1 158.6 L 858.4 157.4 L 852.9 161.5 L 834 161.5 L 825.9 145.8 L 812.8 150.5 L 801.2 158.7 L 802.8 135.8 L 789.7 121.9 L 835.1 98.7 L 874.4 104.5 L 917.4 104.3 L 951.6 109.8 L 978.2 108.1 L 1030 109.2 L 1042.8 121.7 L 1101.9 136.2 L 1113.6 129.3 L 1149.6 143.8 L 1186.8 139.6 L 1188.5 158.3 L 1158.1 179.6 L 1117 186.4 L 1114.2 197.2 L 1094.5 215 L 1082.1 241.1 L 1094.6 259.4 L 1076.1 273.8 L 1069.1 294.6 L 1044.9 301 L 1022.2 325.7 L 981.5 326.2 L 950.9 325.6 L 930.8 336.9 L 918.5 349 L 902.8 346.3 L 891 335.5 L 881.9 317.1 L 851.9 312.1 Z" />
<path class="neighbor" d="M 1426 -2.2 L 1445.5 2.4 L 1449.2 -3.7 L 1480.9 -9.3 L 1488.1 1.9 L 1534 10.2 L 1530.5 26 L 1538.2 39.6 L 1512.6 34.9 L 1486.5 46.3 L 1488.3 62.3 L 1484.4 71.4 L 1494.9 87.7 L 1525 103.9 L 1541.1 130.4 L 1576.8 156.3 L 1602 156.1 L 1609.8 163.2 L 1600.8 169.5 L 1629.5 181.1 L 1653.1 190.8 L 1680.6 207.6 L 1683.9 213.6 L 1677.9 225.1 L 1660.1 210.1 L 1632.2 204.8 L 1618.7 225.5 L 1641.9 237.4 L 1638.1 254.2 L 1624.7 256.1 L 1607.6 283.6 L 1594.2 286.1 L 1594.3 276.3 L 1600.9 259.1 L 1607.8 252.2 L 1595.3 233.6 L 1585.5 217.4 L 1572.2 213.4 L 1562.7 199.6 L 1542.1 193.8 L 1528.2 180.9 L 1504.5 178.8 L 1479.4 164.3 L 1450.1 143.4 L 1428.3 124.9 L 1418.3 93.2 L 1402.3 89.5 L 1376.2 78.9 L 1361.4 83.2 L 1342.9 98.1 L 1329.6 100.5 L 1333.2 86.6 L 1315.8 82.5 L 1307.6 57.7 L 1318.7 47.9 L 1309.3 35.9 L 1310.6 26.8 L 1324.4 33.7 L 1339.9 32.1 L 1357.8 21.3 L 1363.4 26.3 L 1378.7 25.3 L 1385.6 12.4 L 1409.4 16.4 L 1423.5 11 L 1426 -2.2 Z M 1564.6 278.5 L 1588.9 275.7 L 1577.4 301 L 1582.2 310.9 L 1575.4 327.4 L 1550.9 315.3 L 1534.6 311.9 L 1489.8 295.6 L 1494.3 279.1 L 1531.9 282 L 1564.6 278.5 Z M 1370.5 190.1 L 1386.5 180.2 L 1405.7 202.9 L 1401.2 245.4 L 1386.7 243.3 L 1373.6 254.1 L 1361.4 245.5 L 1360.1 206.8 L 1352.8 188.5 L 1370.5 190.1 Z" />

<path class="country" d="M 1021.4 374 L 1033.5 394.5 L 1035.4 414 L 1046.5 447.9 L 1055 454.7 L 1049.1 467.2 L 1007.1 472.6 L 992.6 484.5 L 974 487.3 L 972.7 511 L 935.1 523.7 L 922.9 539.8 L 896.6 548.4 L 864.6 553.3 L 812.8 577 L 813.1 615 L 808.2 615 L 808.9 632.1 L 789.1 633.2 L 778.7 640.5 L 764.2 640.5 L 752.6 636.3 L 725.6 639.8 L 715.1 664.8 L 705.1 667.1 L 690 707.6 L 645.4 742.2 L 634.8 786.5 L 621.7 800.9 L 617.8 812.4 L 545.6 815 L 545 814.9 L 546.5 800.1 L 558.9 791.3 L 569.4 774.6 L 567.3 763.8 L 578.3 741.1 L 596.2 720.7 L 607 715.6 L 615.5 696.9 L 616.2 679.8 L 627.8 659.9 L 649.2 648.2 L 669.5 615.5 L 670.1 615 L 686.2 602.7 L 716.1 599.2 L 741.3 577.2 L 757.4 568.7 L 784.2 541.9 L 776.2 502 L 788.4 474.4 L 792.7 457.5 L 813.3 435.8 L 845.5 421.2 L 869.3 407.9 L 890.7 374.7 L 900.8 355 L 924.4 355.2 L 943.8 368.8 L 974.3 366.6 L 1007.5 373.6 L 1021.4 374 Z" />


<g class="city"><circle cx="972.8199075070434" cy="206.08621131894301" r="5" /><text x="984.8199075070434" y="210.08621131894301">Madrid</text></g>
<g class="city"><circle cx="1161.0229799960305" cy="174.54303759456388" r="5" /><text x="1173.0229799960305" y="178.54303759456388">Barcelona</text></g>
<g class="city"><circle cx="1188.8420129805918" cy="322.7590912330585" r="5" /><text x="1200.8420129805918" y="326.7590912330585">Algiers</text></g>
<g class="city"><circle cx="846.6496506722037" cy="424.2302653959543" r="5" /><text x="858.6496506722037" y="428.2302653959543">Casablanca</text></g>
<g class="city"><circle cx="797.6157511401918" cy="259.8937092543308" r="5" /><text x="809.6157511401918" y="263.8937092543308">Lisbon</text></g>
<g class="city"><circle cx="530.4469402662089" cy="1030.0293006874697" r="5" /><text x="542.4469402662089" y="1034.0293006874697">Dakar</text></g>
<g class="city"><circle cx="871.7329848540238" cy="410.64817109732496" r="5" /><text x="883.7329848540238" y="414.64817109732496">Rabat</text></g>
<g class="city"><circle cx="899.2061337361065" cy="302.22790878800254" r="5" /><text x="911.2061337361065" y="306.22790878800254">Seville</text></g>
<text class="map-title" x="80" y="105">Morocco Political Study Map</text>
<text class="map-subtitle" x="80" y="145">Capital: Rabat | Continent: Africa</text>
  <text class="footer" x="80" y="1036">Made with Natural Earth. Free vector and raster map data @ naturalearthdata.com.</text>
</svg>
