<?xml version="1.0" encoding="UTF-8"?>
<svg xmlns="http://www.w3.org/2000/svg" width="1600" height="1100" viewBox="0 0 1600 1100" role="img" aria-labelledby="title desc">
  <title id="title">Madagascar Physical Study Map</title>
  <desc id="desc">Made with Natural Earth. Free vector and raster map data @ naturalearthdata.com.</desc>
  <defs>
    <linearGradient id="terrain" x1="0" x2="1" y1="0" y2="1">
      <stop offset="0%" stop-color="#6c8c53" />
      <stop offset="42%" stop-color="#d5c487" />
      <stop offset="72%" stop-color="#b88b5f" />
      <stop offset="100%" stop-color="#f1f5ee" />
    </linearGradient>
    <filter id="softShadow" x="-10%" y="-10%" width="120%" height="120%">
      <feDropShadow dx="0" dy="10" stdDeviation="12" flood-color="#0f172a" flood-opacity="0.16" />
    </filter>
    <style>
      .neighbor { fill: #ffffff; stroke: #94a3b8; stroke-width: 1.2; opacity: 0.72; }
      .country { fill: url(#terrain); stroke: #1f2937; stroke-width: 4; filter: url(#softShadow); }
      .admin1 { fill: none; stroke: #64748b; stroke-width: 1.1; stroke-dasharray: 6 7; opacity: 0.75; }
      .river { fill: none; stroke: #1d9bd1; stroke-width: 3; stroke-linecap: round; opacity: 0.88; }
      .lake { fill: #8ed1ea; stroke: #0ea5e9; stroke-width: 1.5; opacity: 0.8; }
      .city circle { fill: #ef4444; stroke: #ffffff; stroke-width: 2; }
      .city text, .terrain-label { fill: #172033; font: 700 24px system-ui, sans-serif; paint-order: stroke; stroke: #ffffff; stroke-width: 5; stroke-linejoin: round; }
      .map-title { fill: #0f172a; font: 800 46px system-ui, sans-serif; }
      .map-subtitle { fill: #475569; font: 600 24px system-ui, sans-serif; }
      .footer { fill: #64748b; font: 500 18px system-ui, sans-serif; }
    </style>
  </defs>
  <rect width="100%" height="100%" fill="#d8edf0" />
  <rect x="40" y="40" width="1520" height="1020" rx="32" fill="#ffffff" opacity="0.54" />
  <path class="neighbor" d="M 5316.1 491.6 L 5316.1 508.1 L 5294.5 516.5 L 5272.8 523.6 L 5268.5 511 L 5285.4 504 L 5296.2 502.2 L 5316.1 491.6 Z M 5252.5 540.4 L 5260.9 534.8 L 5272.6 544.5 L 5267 562.3 L 5245.9 566.9 L 5227.3 562.7 L 5224 547.8 L 5237.1 536.2 L 5252.5 540.4 Z M -6888.5 490 L -6892.7 506.3 L -6895.5 508.1 L -6895.5 491.6 L -6888.5 490 Z" />
<path class="neighbor" d="M 360.3 -21.2 L 366.1 -17.5 L 489.1 51.6 L 491.4 71.3 L 540.1 105.2 L 524.4 147 L 526.4 166.2 L 548.1 178.6 L 549.1 187.4 L 539.8 207.9 L 541.7 218.2 L 539.5 234.4 L 551.4 255.7 L 565.4 289.1 L 577.9 296.5 L 577.9 296.5 L 550.9 316.2 L 513.8 329.4 L 493.4 328.8 L 481.3 339 L 457.7 339.9 L 448.9 344.2 L 408.1 334.6 L 382.6 337.3 L 373.1 291.2 L 361.6 275.4 L 354.8 266 L 321.5 259.7 L 302.3 249.5 L 280.7 243.8 L 267.2 238.1 L 253 229.5 L 253 229.5 L 234.7 186.7 L 215 167.7 L 208.2 148.1 L 211.6 130.4 L 205.5 99.2 L 219.5 97.6 L 231.9 85.3 L 245.1 67.6 L 253.4 60.5 L 253.1 49.5 L 245.8 41.8 L 243.8 28.5 L 243.8 28.5 L 253.6 24.2 L 255.6 4.2 L 242.1 -14.9 L 254 -19 L 291.2 -18.6 L 360.3 -21.2 Z" />
<path class="neighbor" d="M 382.6 337.3 L 408.1 334.6 L 448.9 344.2 L 457.7 339.9 L 481.3 339 L 493.4 328.8 L 513.8 329.4 L 550.9 316.2 L 577.9 296.5 L 577.9 296.5 L 577.9 296.5 L 583.3 311.7 L 582 345.5 L 586.1 375.3 L 587.5 428.3 L 593.4 444.9 L 583.3 469.2 L 570.1 492.7 L 548.5 513.8 L 517.5 526.7 L 479.3 543.1 L 441 579.5 L 427.9 585.7 L 404.2 609.8 L 390.3 617.7 L 387.4 641.9 L 403.5 667.5 L 410.2 687.4 L 410.6 697.6 L 416.6 695.9 L 415.6 729.2 L 410.1 744.9 L 418.1 750.7 L 413.1 764.8 L 398.9 776.9 L 370.9 788.4 L 330.1 806.7 L 315.2 819.3 L 318.2 833.6 L 326.8 835.8 L 323.9 853.7 L 298.2 853.4 L 295.3 838.4 L 290.2 823.2 L 287.4 811 L 293.4 773.2 L 284.6 749.1 L 268.3 701.4 L 304.1 662.9 L 313 638.4 L 318.1 635.3 L 322 615.3 L 316.5 605.3 L 318 579.9 L 324.6 556.4 L 324.5 513.5 L 306.9 502.6 L 290.7 500.1 L 283.4 491.8 L 267.7 484.6 L 239.4 485.3 L 237.2 472.6 L 234 448.5 L 336.9 420.5 L 356.5 436.8 L 365.8 433.7 L 379.2 442.3 L 381.2 455.9 L 374 471.6 L 376.5 495.5 L 398.7 516.5 L 409 493 L 423.7 485.8 L 420.8 442.2 L 406.6 417.7 L 394.4 406.7 L 382.6 407.2 L 373.1 363.1 L 382.6 337.3 Z" />

<path class="country" d="M 890.8 369.6 L 899.9 384 L 908.2 406.4 L 913.7 447.2 L 922.5 463.1 L 919.1 479.3 L 913.1 489.3 L 901.6 469.4 L 895.2 479.5 L 901.7 504.6 L 898.7 519 L 889.3 526.8 L 887.2 555.6 L 873.8 595.1 L 857.1 641.8 L 836.1 706.1 L 823.1 753.3 L 807.8 792.6 L 780.2 800.7 L 750.6 815 L 731.1 806.3 L 704.2 794.2 L 694.8 776.3 L 692.6 746.2 L 680.6 719.2 L 677.5 694.8 L 683.6 670.3 L 699.2 664.5 L 699.3 653.2 L 715.5 627.4 L 718.6 605.8 L 710.7 589.8 L 704.3 568.4 L 701.6 537.1 L 713.4 518.2 L 718 496.6 L 734.9 495.4 L 753.8 488.4 L 766.3 482.3 L 781.2 481.8 L 800.6 462.5 L 828.5 441.6 L 838.7 424.6 L 834 410.1 L 848.5 414.1 L 867.2 390.6 L 867.8 370.2 L 879 355 L 890.8 369.6 Z" />

<path class="river" d="M 810.2 693.2 L 810.1 691.9 L 808 690.8 L 803.8 689.3 L 801.3 687.8 L 800.4 685.6 L 795.4 683.9 L 793.5 681.1 L 793.2 677.3 L 792.2 676.3 L 790.9 674.9 L 790.1 674.7 L 787.4 671.8 L 782.3 669.1 L 776.9 668.3 L 771.2 669.1 L 767.2 670.7 L 764.9 673 L 762.5 674 L 758.9 673.4" />
<path class="river" d="M 758.9 673.4 L 754.2 673.8 L 751.1 675.9 L 746.7 681.7 L 730.1 683.5 L 722 685 L 716.7 687 L 713 687.6 L 711.1 686.7 L 708.4 687 L 705 688.6 L 702.3 689.1 L 699.9 688.5 L 699.2 688.1 L 698.5 687.3 L 695.5 680.5 L 692.5 675.9 L 687.3 669.6" />
<path class="river" d="M 417.8 313.2 L 409.7 309.9 L 406.3 309.4 L 405.1 310.4 L 404.5 312.1 L 404.3 315.6 L 410 333.5 L 412.8 339.7 L 414.6 340.2 L 416.7 340.1 L 418.9 339.4 L 421.4 337.8 L 424.2 335.1 L 428.4 335.1 L 434.2 337.9 L 437.4 340.4 L 437.9 342.5 L 441.8 343.7 L 449 344 L 454.3 342.9 L 457.6 340.4 L 461 339.1 L 464.6 338.9 L 467.4 339.8 L 469.2 341.7 L 472.8 343 L 478 343.8 L 483.7 342.6 L 489.9 339.4 L 493.5 336.1 L 494.4 332.6 L 495.4 330.4 L 496.6 329.7 L 499.9 329.3 L 505.3 329.2 L 510 330.3 L 516 333.7 L 526.2 327.5 L 532.8 325.4 L 539 325.4 L 544.1 323.9 L 548.1 320.9 L 552.3 319 L 556.8 318.2 L 560.9 316.7 L 566.7 313.6 L 582.8 301.5" />
<g class="city"><circle cx="822.0255194409624" cy="588.1782553591481" r="5" /><text x="834.0255194409624" y="592.1782553591481">Antananarivo</text></g>
<g class="city"><circle cx="591.3737083523431" cy="439.0583422443842" r="5" /><text x="603.3737083523431" y="443.0583422443842">Nacala</text></g>
<g class="city"><circle cx="807.3915116256859" cy="673.613319772755" r="5" /><text x="819.3915116256859" y="677.613319772755">Fianarantsoa</text></g>
<g class="city"><circle cx="782.3492861118052" cy="478.1152100266081" r="5" /><text x="794.3492861118052" y="482.1152100266081">Mahajanga</text></g>
<g class="city"><circle cx="677.0319736695493" cy="343.58897252736676" r="5" /><text x="689.0319736695493" y="347.58897252736676">Moroni</text></g>
<g class="city"><circle cx="692.2876536672369" cy="738.8605747991076" r="5" /><text x="704.2876536672369" y="742.8605747991076">Toliara</text></g>
<g class="city"><circle cx="585.177101746443" cy="386.97027301405353" r="5" /><text x="597.177101746443" y="390.97027301405353">Pemba</text></g>
<g class="city"><circle cx="882.9765980474565" cy="363.003516291756" r="5" /><text x="894.9765980474565" y="367.003516291756">Antsiranana</text></g>
<text class="map-title" x="80" y="105">Madagascar Physical Study Map</text>
<text class="map-subtitle" x="80" y="145">Landmark: Avenue of the Baobabs | Study terrain and water systems</text>
  <text class="footer" x="80" y="1036">Made with Natural Earth. Free vector and raster map data @ naturalearthdata.com.</text>
</svg>
