<?xml version="1.0" encoding="UTF-8"?>
<svg xmlns="http://www.w3.org/2000/svg" width="1600" height="1100" viewBox="0 0 1600 1100" role="img" aria-labelledby="title desc">
  <title id="title">Mali Physical Study Map</title>
  <desc id="desc">Made with Natural Earth. Free vector and raster map data @ naturalearthdata.com.</desc>
  <defs>
    <linearGradient id="terrain" x1="0" x2="1" y1="0" y2="1">
      <stop offset="0%" stop-color="#6c8c53" />
      <stop offset="42%" stop-color="#d5c487" />
      <stop offset="72%" stop-color="#b88b5f" />
      <stop offset="100%" stop-color="#f1f5ee" />
    </linearGradient>
    <filter id="softShadow" x="-10%" y="-10%" width="120%" height="120%">
      <feDropShadow dx="0" dy="10" stdDeviation="12" flood-color="#0f172a" flood-opacity="0.16" />
    </filter>
    <style>
      .neighbor { fill: #ffffff; stroke: #94a3b8; stroke-width: 1.2; opacity: 0.72; }
      .country { fill: url(#terrain); stroke: #1f2937; stroke-width: 4; filter: url(#softShadow); }
      .admin1 { fill: none; stroke: #64748b; stroke-width: 1.1; stroke-dasharray: 6 7; opacity: 0.75; }
      .river { fill: none; stroke: #1d9bd1; stroke-width: 3; stroke-linecap: round; opacity: 0.88; }
      .lake { fill: #8ed1ea; stroke: #0ea5e9; stroke-width: 1.5; opacity: 0.8; }
      .city circle { fill: #ef4444; stroke: #ffffff; stroke-width: 2; }
      .city text, .terrain-label { fill: #172033; font: 700 24px system-ui, sans-serif; paint-order: stroke; stroke: #ffffff; stroke-width: 5; stroke-linejoin: round; }
      .map-title { fill: #0f172a; font: 800 46px system-ui, sans-serif; }
      .map-subtitle { fill: #475569; font: 600 24px system-ui, sans-serif; }
      .footer { fill: #64748b; font: 500 18px system-ui, sans-serif; }
    </style>
  </defs>
  <rect width="100%" height="100%" fill="#d8edf0" />
  <rect x="40" y="40" width="1520" height="1020" rx="32" fill="#ffffff" opacity="0.54" />
  <path class="neighbor" d="M 654.2 272.1 L 654.2 274.2 L 653.6 280.1 L 653.5 327 L 552.1 325.4 L 553.1 404.5 L 524.1 407.2 L 516.5 423.1 L 522.4 467.8 L 401.3 467.6 L 394.6 477.9 L 395.9 464.8 L 396.4 464.9 L 466.1 462.4 L 469.8 451.3 L 482.4 437.4 L 492.7 394.7 L 535.6 361.3 L 550.2 322.3 L 559.8 320.1 L 569.9 296 L 595.9 292.7 L 607.1 296.7 L 621.1 296.7 L 631.1 289.6 L 650.2 288.6 L 649.5 272.1 L 654.2 272.1 Z" />
<path class="neighbor" d="M 1829.3 1266.3 L 1834.8 1294.7 L 1831.7 1310.8 L 1837.9 1328.7 L 1855.8 1346.1 L 1872.5 1385 L 1872.5 1385 L 1860.4 1381.9 L 1818.8 1387.1 L 1810.5 1390.8 L 1801.7 1410.5 L 1808.7 1424.1 L 1803.2 1460.8 L 1799.3 1491.8 L 1807.7 1497.3 L 1829.3 1509.3 L 1837.8 1503.7 L 1840.4 1537 L 1816.7 1536.8 L 1804 1519.8 L 1792.6 1506.6 L 1768.9 1502.3 L 1762 1486.1 L 1743.1 1495.8 L 1718.3 1491.5 L 1708 1477.5 L 1688.4 1474.6 L 1673.9 1475.4 L 1672.1 1465.8 L 1661.4 1465 L 1647.4 1463.2 L 1628.2 1467.8 L 1614.8 1467 L 1607.1 1469.9 L 1608.8 1433.1 L 1598.5 1421.6 L 1596.2 1402.6 L 1600.7 1384 L 1594.5 1372 L 1593.9 1352.6 L 1556.4 1352.8 L 1559.1 1341.7 L 1543.3 1341.8 L 1541.7 1347.2 L 1522.5 1348.4 L 1514.7 1366.4 L 1510.1 1374.1 L 1493 1369.8 L 1482.8 1374.1 L 1462.4 1376.6 L 1450.5 1360.5 L 1443.4 1350.5 L 1434.5 1331.9 L 1426.9 1308.9 L 1335.7 1308.5 L 1324.8 1312.2 L 1315.9 1311.6 L 1303.1 1315.8 L 1298.8 1306.2 L 1306.6 1302.9 L 1307.6 1289.4 L 1312.7 1281.5 L 1323.9 1275 L 1332 1278.1 L 1342.6 1266.3 L 1359.5 1266.6 L 1361.4 1275.3 L 1373 1280.8 L 1391.2 1261.4 L 1409.2 1246.3 L 1417 1236.5 L 1416 1211 L 1429.4 1181 L 1443.6 1165.1 L 1463.9 1150.2 L 1467.5 1140.3 L 1468.2 1129 L 1473.3 1118.2 L 1471.7 1100.7 L 1475.5 1073.3 L 1481.6 1054 L 1490.8 1037.5 L 1492.7 1018.8 L 1495.4 997.2 L 1507.5 981.5 L 1524 971.6 L 1549.5 982.1 L 1569.2 993.5 L 1591.8 996.5 L 1614.8 1002.6 L 1624.1 983.9 L 1628.3 981.5 L 1642.4 984.6 L 1676.9 969.2 L 1689 975.7 L 1699.1 974.8 L 1703.7 967.3 L 1715.2 964.7 L 1738.4 967.9 L 1758.3 968.6 L 1768.5 965.3 L 1787.2 990.9 L 1801.1 994.6 L 1809.4 989.4 L 1823.7 991.5 L 1840.9 984.9 L 1848.2 998.1 L 1875.4 1018.7 L 1875.4 1018.7 L 1873.6 1054.8 L 1886 1059 L 1876 1070 L 1864.1 1078.2 L 1852.3 1094.3 L 1845.8 1108.7 L 1844.1 1133.5 L 1836.9 1145.3 L 1836.7 1168.6 L 1827.8 1177.2 L 1826.6 1195.6 L 1822.4 1198 L 1819.5 1214.9 L 1827.3 1229 L 1829.3 1266.3 Z" />
<path class="neighbor" d="M -675 998.7 L -693.3 1026.9 L -702.8 1049.7 L -714.6 1061.5 L -729.4 1063.7 L -733.7 1055 L -740.6 1053.7 L -750.1 1062.1 L -763.6 1055.7 L -755.8 1042.7 L -753 1028.5 L -747.6 1015.2 L -759.8 996.9 L -762.2 975.8 L -746.1 949.2 L -735.6 952.6 L -712.9 959.9 L -680.1 986 L -675 998.7 Z M 1113.4 -402.2 L 1128 -394.1 L 1172.5 -388.4 L 1156.9 -367.2 L 1153 -345.2 L 1144.5 -339.9 L 1130.4 -342.7 L 1131.4 -334.9 L 1108.8 -317.5 L 1108.3 -303.5 L 1123.1 -308.3 L 1133.7 -294.8 L 1132.4 -286 L 1141.5 -274.4 L 1130.8 -265 L 1138.8 -241.1 L 1155.5 -237.2 L 1152 -223.8 L 1124 -206.3 L 1063 -214.7 L 1018 -204.6 L 1014.5 -186 L 978.6 -182 L 943.8 -196 L 932.6 -189.3 L 875.7 -203.4 L 863.3 -215.4 L 879.3 -233.9 L 885.2 -295.5 L 853.3 -328 L 830.5 -343.6 L 783.3 -355.5 L 780.1 -378 L 820.2 -384.8 L 872.2 -376.8 L 862.4 -411.8 L 891.5 -398.6 L 963.5 -422.7 L 972.8 -448 L 999.8 -454.2 L 1004.3 -443.4 L 1018.7 -442.9 L 1033.1 -430.4 L 1054.6 -415.9 L 1070.5 -418.3 L 1097.6 -404.2 L 1104.5 -401.5 L 1113.4 -402.2 Z M 1192.5 -190.8 L 1212.5 -202.6 L 1217.7 -176.1 L 1207.5 -152.2 L 1193.5 -158.5 L 1186.3 -179.3 L 1192.5 -190.8 Z" />
<path class="neighbor" d="M 405.4 706.8 L 392.6 682.8 L 377.2 671.8 L 390.8 665.9 L 405.8 644.2 L 413.1 628.3 L 423.7 618.4 L 439.1 621.1 L 454.2 614.3 L 471.4 614 L 486.2 623.1 L 506.7 631.3 L 525.4 654 L 545.8 675.2 L 547.3 694.5 L 553.4 712.2 L 564.9 720.9 L 567.6 732.8 L 566.1 742.4 L 561.7 744.2 L 544.8 741.7 L 542.5 745.2 L 535.7 745.9 L 513.5 738.3 L 498.5 738 L 441.4 736.7 L 433.1 740.2 L 422.9 739.2 L 406.5 744.2 L 401.4 720.5 L 429.6 721.2 L 437 716.9 L 442.5 716.6 L 454 709.5 L 467.3 716 L 480.7 716.6 L 494.1 709.6 L 487.8 700.7 L 477.6 705.9 L 468 705.7 L 455.8 698.1 L 446 698.6 L 439.1 705.9 L 405.4 706.8 Z" />
<path class="neighbor" d="M 394.6 477.9 L 401.3 467.6 L 522.4 467.8 L 516.5 423.1 L 524.1 407.2 L 553.1 404.5 L 552.1 325.4 L 653.5 327 L 653.6 280.1 L 769.9 355 L 722.6 355.6 L 737.5 489 L 752.4 622.4 L 757.8 626.2 L 750.9 647.9 L 626.9 648.3 L 622.2 655.2 L 610.3 653.2 L 592.8 659.3 L 571.2 650.7 L 561.4 651.4 L 556.2 669.6 L 545.8 675.2 L 525.4 654 L 506.7 631.3 L 486.2 623.1 L 471.4 614 L 454.2 614.3 L 439.1 621.1 L 423.7 618.4 L 413.1 628.3 L 410.5 611.6 L 419.1 596.4 L 422.9 567.3 L 419.5 536.7 L 415.8 521.4 L 418.9 505.9 L 410.9 491.2 L 394.6 477.9 Z" />
<path class="neighbor" d="M 1005.4 933.6 L 979.8 937.3 L 972.2 915.9 L 973.6 844.9 L 967.4 838.6 L 966.2 823.4 L 955.5 812.5 L 946 803.4 L 949.9 787.1 L 960.6 783.6 L 966.9 770.1 L 982 767.2 L 988.7 758 L 999.1 748.9 L 1010.2 748.9 L 1033.8 766.7 L 1032.6 776.9 L 1039.5 795.3 L 1033.4 807.7 L 1036.7 816 L 1021.7 835.2 L 1012.2 844.6 L 1006.3 864.1 L 1007.1 883.8 L 1005.4 933.6 Z" />
<path class="neighbor" d="M 1381.3 420.3 L 1388.9 468.3 L 1400.5 476.4 L 1401 486.2 L 1413.8 496.8 L 1407.1 510.1 L 1395.2 572.9 L 1393.6 613.1 L 1354.1 642.2 L 1340.8 683 L 1353.6 694.4 L 1353.6 714.3 L 1373.4 715 L 1370.3 729.6 L 1361.6 731.3 L 1360.6 741.2 L 1354.8 741.9 L 1333.9 708 L 1326.7 706.8 L 1302.5 724.1 L 1278.5 715.1 L 1261.9 713.3 L 1253 717.6 L 1234.9 716.7 L 1216.6 729.8 L 1200.9 730.6 L 1163.4 714.6 L 1148.8 722.2 L 1133 721.7 L 1121.4 710 L 1090.4 698.5 L 1057.2 702.1 L 1049.1 708.8 L 1044.8 726.6 L 1035.9 739 L 1033.8 766.7 L 1010.2 748.9 L 999.1 748.9 L 988.7 758 L 989.4 736.8 L 953.8 729.8 L 952.8 714.8 L 935.4 694.7 L 931.3 680.6 L 933.7 665.6 L 953.5 664.4 L 965 653.4 L 1007.2 650.7 L 1034.6 645.8 L 1037.3 626.8 L 1054.2 606.1 L 1054.1 534.9 L 1097.7 521.1 L 1187.2 460.4 L 1293.1 401.5 L 1342 414.8 L 1359.4 431.8 L 1381.3 420.3 Z" />
<path class="neighbor" d="M 1005.4 933.6 L 1007.1 883.8 L 1006.3 864.1 L 1012.2 844.6 L 1021.7 835.2 L 1036.7 816 L 1033.4 807.7 L 1039.5 795.3 L 1032.6 776.9 L 1033.8 766.7 L 1035.9 739 L 1044.8 726.6 L 1049.1 708.8 L 1057.2 702.1 L 1090.4 698.5 L 1121.4 710 L 1133 721.7 L 1148.8 722.2 L 1163.4 714.6 L 1200.9 730.6 L 1216.6 729.8 L 1234.9 716.7 L 1253 717.6 L 1261.9 713.3 L 1278.5 715.1 L 1302.5 724.1 L 1326.7 706.8 L 1333.9 708 L 1354.8 741.9 L 1360.6 741.2 L 1372.8 753.5 L 1369.5 759.1 L 1367.8 769.4 L 1341.8 793.3 L 1333.6 813 L 1329.2 829.1 L 1322.7 836 L 1316.4 857.6 L 1299.9 870.4 L 1295.1 886 L 1288.2 898.5 L 1285.3 911.3 L 1264 921.7 L 1246.7 909 L 1235 909.5 L 1216.6 927.6 L 1207.6 927.9 L 1192.9 957.7 L 1184.9 979.6 L 1152.8 990.7 L 1141.1 989.1 L 1129.2 996 L 1104.5 995.4 L 1087.9 976 L 1077.8 953.7 L 1055.9 933.3 L 1032.6 933.7 L 1005.4 933.6 Z" />
<path class="neighbor" d="M 1370.3 729.6 L 1382.6 749.4 L 1384.7 769.9 L 1383.5 790.4 L 1400.4 818.5 L 1383.1 818.2 L 1374.4 820.4 L 1360.3 817.3 L 1353.6 831.9 L 1371.8 850 L 1385.3 855.2 L 1389.6 868 L 1399.4 889.3 L 1394.5 897.7 L 1379 929 L 1371.6 934.6 L 1369.2 958.6 L 1372.3 971.6 L 1369.8 980.8 L 1384.4 997 L 1387 1008.1 L 1398.4 1024 L 1412.6 1034 L 1414 1048.1 L 1417.2 1057 L 1415 1073.7 L 1390.4 1066.4 L 1365.4 1058.3 L 1326.4 1057.1 L 1322.6 1055.4 L 1304.3 1059.4 L 1285.5 1055.2 L 1270.8 1057.2 L 1220.5 1056.5 L 1225 1032.1 L 1212.9 1011.7 L 1198.8 1006.4 L 1192.5 992.6 L 1184.6 988.2 L 1184.9 979.6 L 1192.9 957.7 L 1207.6 927.9 L 1216.6 927.6 L 1235 909.5 L 1246.7 909 L 1264 921.7 L 1285.3 911.3 L 1288.2 898.5 L 1295.1 886 L 1299.9 870.4 L 1316.4 857.6 L 1322.7 836 L 1329.2 829.1 L 1333.6 813 L 1341.8 793.3 L 1367.8 769.4 L 1369.5 759.1 L 1372.8 753.5 L 1360.6 741.2 L 1361.6 731.3 L 1370.3 729.6 Z" />
<path class="neighbor" d="M 949.9 787.1 L 946 803.4 L 955.5 812.5 L 966.2 823.4 L 967.4 838.6 L 973.6 844.9 L 972.2 915.9 L 979.8 937.3 L 954.9 943.9 L 948 933 L 939.8 913.4 L 937.3 898 L 944.1 870.2 L 936.4 858.9 L 933.4 834.5 L 933.5 812.1 L 920.6 796.1 L 922.9 786.5 L 949.9 787.1 Z" />
<path class="neighbor" d="M 922.9 786.5 L 920.6 796.1 L 933.5 812.1 L 933.4 834.5 L 936.4 858.9 L 944.1 870.2 L 937.3 898 L 939.8 913.4 L 948 933 L 954.9 943.9 L 906.4 961.9 L 889.2 972.6 L 861.4 981.5 L 833.8 972.7 L 835.2 960.5 L 821.8 933.9 L 829.9 899 L 842.9 873 L 834.7 829 L 830.5 805.8 L 831.2 788.2 L 884.9 786.8 L 898.6 789 L 908.6 784 L 922.9 786.5 Z" />
<path class="neighbor" d="M 673.9 811.6 L 677.9 808.8 L 686.5 813.4 L 710.3 813.7 L 716 804.7 L 721.4 805.3 L 730.3 801.8 L 735.1 815 L 742.3 811.1 L 755 806.5 L 768.9 813.3 L 774.4 823.5 L 788.3 830 L 799.1 822.2 L 813.6 821.1 L 834.7 829 L 842.9 873 L 829.9 899 L 821.8 933.9 L 835.2 960.5 L 833.8 972.7 L 819.8 973.1 L 798.2 967 L 778.4 967.4 L 741.7 972.8 L 720.3 981.7 L 689.7 993 L 683.7 992.2 L 686.1 966.8 L 689 962.9 L 688.1 950.7 L 675 937.7 L 665.2 935.7 L 656.2 927.2 L 662.9 913.5 L 659.8 898.5 L 661.2 889.5 L 666.1 889.5 L 667.9 876 L 665.5 870 L 668.5 865.7 L 680 862 L 672.3 837.3 L 665.2 824.5 L 667.7 814 L 673.9 811.6 Z" />
<path class="neighbor" d="M 498.5 738 L 513.5 738.3 L 535.7 745.9 L 542.5 745.2 L 544.8 741.7 L 561.7 744.2 L 566.1 742.4 L 567.9 753.8 L 572.8 753.7 L 580.9 749.6 L 586 750.6 L 594.6 758.5 L 607.8 761 L 616.3 754.3 L 626.3 750.1 L 633.7 745.8 L 639.9 746.6 L 646.8 753.4 L 650.5 761.9 L 663.2 774.9 L 656.8 782.8 L 655.6 792.9 L 662.2 789.9 L 666.1 793.5 L 664.4 802.7 L 673.9 811.6 L 667.7 814 L 665.2 824.5 L 672.3 837.3 L 680 862 L 668.5 865.7 L 665.5 870 L 667.9 876 L 666.1 889.5 L 661.2 889.5 L 652.5 888.7 L 646.2 901.2 L 637.4 901 L 631.4 894.4 L 633.4 882 L 620.5 863.1 L 612.4 866.6 L 605.8 867.3 L 597.3 869 L 597.7 857.7 L 592.7 849.6 L 593.7 840.6 L 587 827.6 L 578.4 816.6 L 553.7 816.5 L 546.5 822.4 L 538 823.1 L 532.7 829.7 L 529.1 838.3 L 512.6 851.9 L 499 833.6 L 487 821.5 L 479.1 817.5 L 471.4 811.3 L 467.9 797.7 L 463.3 790.9 L 454.3 785.8 L 468.1 770.7 L 477.5 771.3 L 485.5 766.1 L 492.4 766.1 L 497.2 762 L 494.6 751.7 L 498 748.5 L 498.5 738 Z" />
<path class="neighbor" d="M 406.5 744.2 L 422.9 739.2 L 433.1 740.2 L 441.4 736.7 L 498.5 738 L 498 748.5 L 494.6 751.7 L 497.2 762 L 492.4 766.1 L 485.5 766.1 L 477.5 771.3 L 468.1 770.7 L 454.3 785.8 L 437.8 772.9 L 424.8 770.8 L 417.7 762.1 L 417.9 757.4 L 408.5 750.9 L 406.5 744.2 Z" />
<path class="neighbor" d="M 661.2 889.5 L 659.8 898.5 L 662.9 913.5 L 656.2 927.2 L 665.2 935.7 L 675 937.7 L 688.1 950.7 L 689 962.9 L 686.1 966.8 L 683.7 992.2 L 675.6 992.5 L 643.7 977.7 L 615.6 954.2 L 589.3 937.3 L 568.5 917.4 L 575.9 907.5 L 577.5 898.5 L 591.5 881.7 L 605.8 867.3 L 612.4 866.6 L 620.5 863.1 L 633.4 882 L 631.4 894.4 L 637.4 901 L 646.2 901.2 L 652.5 888.7 L 661.2 889.5 Z" />
<path class="neighbor" d="M 512.6 851.9 L 529.1 838.3 L 532.7 829.7 L 538 823.1 L 546.5 822.4 L 553.7 816.5 L 578.4 816.6 L 587 827.6 L 593.7 840.6 L 592.7 849.6 L 597.7 857.7 L 597.3 869 L 605.8 867.3 L 591.5 881.7 L 577.5 898.5 L 575.9 907.5 L 568.5 917.4 L 560.1 915.1 L 537.9 902.6 L 521.8 886 L 516.4 874.7 L 512.6 851.9 Z" />
<path class="neighbor" d="M 755 806.5 L 753 788.6 L 761.4 775.5 L 760.7 765 L 785.3 739.4 L 789.8 718.2 L 798.3 710.6 L 813.2 714.8 L 826.2 708.5 L 830.4 700.5 L 854.4 686.7 L 860.3 677 L 889.2 664.2 L 906.2 659.8 L 913.9 665.7 L 933.7 665.6 L 931.3 680.6 L 935.4 694.7 L 952.8 714.8 L 953.8 729.8 L 989.4 736.8 L 988.7 758 L 982 767.2 L 966.9 770.1 L 960.6 783.6 L 949.9 787.1 L 922.9 786.5 L 908.6 784 L 898.6 789 L 884.9 786.8 L 831.2 788.2 L 830.5 805.8 L 834.7 829 L 813.6 821.1 L 799.1 822.2 L 788.3 830 L 774.4 823.5 L 768.9 813.3 L 755 806.5 Z" />
<path class="neighbor" d="M 1492.7 1018.8 L 1490.8 1037.5 L 1481.6 1054 L 1475.5 1073.3 L 1471.7 1100.7 L 1473.3 1118.2 L 1468.2 1129 L 1467.5 1140.3 L 1463.9 1150.2 L 1443.6 1165.1 L 1429.4 1181 L 1416 1211 L 1417 1236.5 L 1409.2 1246.3 L 1391.2 1261.4 L 1373 1280.8 L 1361.4 1275.3 L 1359.5 1266.6 L 1342.6 1266.3 L 1332 1278.1 L 1323.9 1275 L 1312.3 1264.4 L 1303 1269.6 L 1290.5 1282.9 L 1265.1 1250.2 L 1288.7 1233.1 L 1277 1212.7 L 1287.6 1204.9 L 1308.5 1201.1 L 1310.9 1187.4 L 1327.5 1202.2 L 1354.7 1203.5 L 1364.2 1188.9 L 1368.1 1168.4 L 1364.8 1144.2 L 1350.1 1126 L 1363.5 1090.1 L 1355.8 1084 L 1332.8 1086.5 L 1324.2 1070.5 L 1326.4 1057.1 L 1365.4 1058.3 L 1390.4 1066.4 L 1415 1073.7 L 1417.2 1057 L 1433.4 1028.3 L 1451.8 1011.9 L 1472.8 1017.1 L 1492.7 1018.8 Z" />
<path class="neighbor" d="M 405.4 706.8 L 439.1 705.9 L 446 698.6 L 455.8 698.1 L 468 705.7 L 477.6 705.9 L 487.8 700.7 L 494.1 709.6 L 480.7 716.6 L 467.3 716 L 454 709.5 L 442.5 716.6 L 437 716.9 L 429.6 721.2 L 401.4 720.5 L 405.4 706.8 Z" />
<path class="neighbor" d="M 1215.3 190.1 L 1202.1 134.6 L 1183.1 122.1 L 1182.8 114.7 L 1157.5 96.2 L 1154.8 72.9 L 1173.8 55.7 L 1181.1 30.2 L 1176.2 0.7 L 1182.5 -15.1 L 1216.2 -27.6 L 1237.8 -23.9 L 1236.9 -8.3 L 1263.1 -19.6 L 1265.3 -13.7 L 1249.9 1.4 L 1249.7 15.7 L 1260.4 23.4 L 1256.3 50.2 L 1235.9 65.7 L 1241.8 82.6 L 1257.8 83.1 L 1265.6 97.8 L 1277.3 102.6 L 1275.6 126.4 L 1260.5 135.3 L 1251 145.2 L 1229.8 157.1 L 1233.1 169.9 L 1230.4 183 L 1215.3 190.1 Z" />
<path class="neighbor" d="M 653.6 280.1 L 654.2 274.2 L 654.2 272.1 L 653.9 235.5 L 703.9 212.6 L 734.8 207.9 L 760.1 199.6 L 771.9 184.1 L 808 171.9 L 809.4 149 L 827.2 146.3 L 841.2 134.9 L 881.7 129.7 L 887.4 117.6 L 879.2 111.1 L 868.5 78.4 L 866.7 59.6 L 855 39.8 L 884.8 22.9 L 918.2 17.6 L 937.7 4.8 L 967.5 -4.6 L 1019.9 -10.1 L 1071 -12.6 L 1086.6 -8 L 1115.7 -20.2 L 1148.8 -20.5 L 1161.3 -13.3 L 1182.5 -15.1 L 1176.2 0.7 L 1181.1 30.2 L 1173.8 55.7 L 1154.8 72.9 L 1157.5 96.2 L 1182.8 114.7 L 1183.1 122.1 L 1202.1 134.6 L 1215.3 190.1 L 1225.3 217.4 L 1227 231.8 L 1221.5 257 L 1223.8 271.1 L 1219.8 288 L 1222.5 307.5 L 1210.3 320.4 L 1228.5 342.9 L 1229.7 356.2 L 1240.7 373.4 L 1255.2 367.7 L 1279.6 382.1 L 1293.1 401.5 L 1187.2 460.4 L 1097.7 521.1 L 1054.1 534.9 L 1019.8 537.9 L 1019.4 518.3 L 1005.1 513.2 L 985.9 504.4 L 978.5 489.9 L 874.2 422.5 L 769.9 355 L 653.6 280.1 Z" />
<path class="neighbor" d="M 855 39.8 L 866.7 59.6 L 868.5 78.4 L 879.2 111.1 L 887.4 117.6 L 881.7 129.7 L 841.2 134.9 L 827.2 146.3 L 809.4 149 L 808 171.9 L 771.9 184.1 L 760.1 199.6 L 734.8 207.9 L 703.9 212.6 L 653.9 235.5 L 654.2 272.1 L 649.5 272.1 L 650.2 288.6 L 631.1 289.6 L 621.1 296.7 L 607.1 296.7 L 595.9 292.7 L 569.9 296 L 559.8 320.1 L 550.2 322.3 L 535.6 361.3 L 492.7 394.7 L 482.4 437.4 L 469.8 451.3 L 466.1 462.4 L 396.4 464.9 L 395.9 464.8 L 397.4 450.5 L 409.2 442.1 L 419.4 426 L 417.4 415.5 L 428 393.7 L 445.2 374 L 455.6 369 L 463.8 351 L 464.5 334.5 L 475.7 315.4 L 496.3 304.2 L 515.9 272.6 L 516.4 272.2 L 532 260.3 L 560.7 256.9 L 585.1 235.7 L 600.6 227.5 L 626.4 201.7 L 618.7 163.2 L 630.4 136.6 L 634.6 120.3 L 654.5 99.4 L 685.5 85.3 L 708.4 72.5 L 729.1 40.5 L 738.8 21.5 L 761.6 21.7 L 780.2 34.8 L 809.6 32.7 L 841.6 39.5 L 855 39.8 Z" />
<path class="neighbor" d="M 1695.1 447 L 1695.1 508.7 L 1659.5 508.8 L 1659.1 521.8 L 1535.8 462.6 L 1412.5 403.4 L 1381.3 420.3 L 1359.4 431.8 L 1342 414.8 L 1293.1 401.5 L 1279.6 382.1 L 1255.2 367.7 L 1240.7 373.4 L 1229.7 356.2 L 1228.5 342.9 L 1210.3 320.4 L 1222.5 307.5 L 1219.8 288 L 1223.8 271.1 L 1221.5 257 L 1227 231.8 L 1225.3 217.4 L 1215.3 190.1 L 1230.4 183 L 1233.1 169.9 L 1229.8 157.1 L 1251 145.2 L 1260.5 135.3 L 1275.6 126.4 L 1277.3 102.6 L 1313.7 113.3 L 1326.6 110.6 L 1352.5 115.8 L 1393.5 129.6 L 1408 157.1 L 1435.7 163.1 L 1479.3 176 L 1512.2 191.4 L 1527.3 183.4 L 1542.1 169.1 L 1534.9 145.5 L 1544.6 130.4 L 1566.9 115.9 L 1588.2 111.7 L 1630 118 L 1640.6 131.9 L 1652.1 132 L 1661.9 137.3 L 1692.6 140.9 L 1700.2 151.1 L 1689 165.9 L 1693.8 179.2 L 1685.8 198.3 L 1695.1 223.2 L 1695.1 333.1 L 1695.1 447 Z" />
<path class="lake" d="M 1067 806.7 L 1066.8 807.3 L 1064.3 811.9 L 1064.3 814.5 L 1064.9 817.9 L 1066.2 821.5 L 1065.1 822.2 L 1064.2 822.1 L 1063.3 821 L 1062.4 817.1 L 1061.1 815.9 L 1060.5 815.8 L 1060.3 814.9 L 1061.1 814.1 L 1061.6 813.4 L 1061.4 812.6 L 1060.3 812.2 L 1060.1 811.9 L 1060.8 810.9 L 1060.2 808.5 L 1058.2 806.4 L 1058.2 805.5 L 1059.3 805.1 L 1059.7 804.4 L 1060 803.8 L 1060.3 798.6 L 1061 798.1 L 1063.3 799.3 L 1064.5 798.9 L 1066.1 799.2 L 1066.8 799.9 L 1065.9 802 L 1066.4 805.3 L 1067 806.7 L 1067 806.7 L 1067 806.7 Z" />
<path class="lake" d="M 930.5 920.8 L 930.5 920.8 L 930.5 920.8 L 931.4 919.4 L 931.9 918.8 L 931.7 920.1 L 930.7 921.6 L 929.2 922.6 L 928.1 922.9 L 927.4 922.6 L 927.1 922.5 L 926.8 922.8 L 926.9 923.2 L 926.8 924 L 926.7 925 L 926.5 926 L 926.2 927.8 L 926.4 930.3 L 925.3 931.2 L 924.6 930.7 L 924.4 929.2 L 923.4 929.1 L 921.8 929.9 L 921.1 929 L 920.3 927.7 L 919.1 926.5 L 916.7 925.2 L 914.2 923.5 L 912.1 922.4 L 908.9 921 L 905.1 919.5 L 902.5 918.4 L 901.3 916.9 L 901 915.9 L 901.7 915.8 L 903.1 916.7 L 904.2 917.4 L 905.1 916.6 L 906.1 917.1 L 907 918.9 L 907.7 919.3 L 908.5 919.2 L 909.2 919 L 909.5 918 L 909.6 916.4 L 910 916 L 910.8 917.8 L 911.8 919.5 L 912.7 919.5 L 913.8 919.3 L 915.1 919 L 916.1 918.7 L 916.7 919.3 L 917.1 920.5 L 917.7 921.6 L 919.2 922.2 L 920.4 922.2 L 920.9 920.7 L 921.3 919.4 L 921.6 919 L 921.4 918.5 L 920.6 917.9 L 920.1 917.3 L 919.9 916.6 L 920.1 916.1 L 920.8 915.5 L 921.8 915.3 L 922.5 915.5 L 923.1 915.4 L 924.5 914.8 L 925.6 913.9 L 925.3 913.5 L 924 913.4 L 923.4 912.4 L 924.8 911.5 L 925.9 911.6 L 925.9 911.3 L 925.2 910.6 L 924.9 910 L 925 909.6 L 925.3 909.1 L 925.1 908.3 L 924.8 907 L 924.7 906.2 L 924.2 906.1 L 923.5 905.7 L 923 905.3 L 922.4 905 L 922.4 904.3 L 922.6 904.2 L 923.2 904.5 L 924.1 904.7 L 924.7 904.7 L 925.2 904.8 L 925.8 904.5 L 926.5 903.9 L 926.9 903.3 L 927.1 902.9 L 927.5 902.9 L 927.8 902.5 L 927.8 901.9 L 927.5 901.3 L 927 901.2 L 926.3 901 L 925.3 900.1 L 924.2 898.6 L 923.7 897.4 L 923.7 896.9 L 923.6 896.5 L 923.5 896 L 922.1 895.3 L 920.2 895 L 920.3 896.3 L 920.1 897 L 918.8 896.6 L 918.2 896.2 L 917.9 895.4 L 917.3 895 L 915.7 894.9 L 914.6 894.8 L 915 894.3 L 915.7 893.8 L 916.9 893.7 L 918 893.6 L 918.9 893.7 L 919.9 893.8 L 921.3 893.9 L 922.5 894 L 921.6 892.4 L 920.2 890.9 L 918.7 890.8 L 916.5 890.7 L 914.6 891 L 911.7 891.6 L 908.8 892.4 L 907.5 892.5 L 906.7 892.3 L 905.7 892.9 L 903.5 893.6 L 901.9 893.7 L 903.2 893.2 L 905.3 892.2 L 907.2 891.4 L 909.1 890.7 L 911.1 890.2 L 913 890.1 L 914 889.6 L 914.2 888.9 L 914.3 888.5 L 915.6 888.7 L 917.1 888.4 L 918.3 887.9 L 919.1 887.7 L 919 887.4 L 918 887 L 917.3 886.7 L 917.2 886.2 L 917.4 885.6 L 917.4 884.7 L 916.9 883.2 L 916.4 882.1 L 916.2 881.2 L 915.2 880.5 L 913.3 879.3 L 912.4 878.6 L 911.5 878.6 L 911.3 879.8 L 910.2 880.4 L 909.2 880.7 L 909.9 879.8 L 910.4 878.3 L 909.3 877.4 L 908.4 877 L 906.7 878.1 L 905.9 877.9 L 905.9 875.9 L 905.3 875.1 L 904.8 875.7 L 903.9 876.7 L 902.8 877.2 L 902.3 877.1 L 902.3 876.5 L 900.7 876.4 L 898.8 876.7 L 898.6 876.2 L 899 875.7 L 899.8 875.7 L 901.9 875.4 L 903.5 874.9 L 903.6 874.5 L 902.9 873.9 L 901.2 872.4 L 899.7 871.1 L 898.8 870.6 L 897.6 870.1 L 897.4 869.5 L 897.9 868.5 L 896.2 866 L 893.9 862.7 L 892.3 861.1 L 891.2 860.3 L 890 859.9 L 888.5 860 L 887.2 860.3 L 886.9 861.4 L 886.5 862.8 L 885.6 861.2 L 884.4 859.5 L 883.4 859.2 L 881.8 858.3 L 880.4 857.4 L 878.7 857 L 877.5 857.2 L 876.1 858.3 L 874.4 859.3 L 872.5 859.9 L 870.7 860.4 L 869.1 860.3 L 870.7 859 L 872.9 858.3 L 875.2 857.2 L 876.8 856.3 L 878.5 855.7 L 879.6 854.9 L 880.2 855.3 L 882.1 856.6 L 882.9 857.4 L 887.3 858 L 889.3 857.5 L 889.1 856.6 L 888.2 855.6 L 887.1 854.7 L 886.7 852.8 L 885.8 850.6 L 885.7 849.5 L 885.7 848.1 L 885.8 846.6 L 886.5 845.3 L 887.2 846.5 L 887.3 848 L 887.4 849.5 L 887.5 851.1 L 888 852.1 L 888.9 853.4 L 889.8 853.7 L 890.4 853.7 L 891.3 855.8 L 893.3 859.6 L 895.1 861.7 L 896.1 861.9 L 896.9 861.3 L 896.9 859.7 L 896.7 858 L 897.1 856.8 L 897.7 856.3 L 897.9 856.4 L 897.5 857.5 L 897.2 858.5 L 898.3 859.5 L 899.8 860.1 L 900.3 859.9 L 900.3 860.5 L 898.7 862 L 897.3 863.7 L 897.5 864.4 L 898 865.3 L 899.8 867.4 L 901.7 868.8 L 902.8 869.6 L 903.8 870.9 L 904.6 871.3 L 905 872.1 L 905.9 872.6 L 907.1 873.3 L 908.3 873.3 L 910 873 L 911.2 872.3 L 912.3 872.3 L 913.3 872 L 914.5 872.2 L 915.9 873.2 L 916.2 874.1 L 914.2 874.1 L 912.2 874.3 L 911.9 874.9 L 912.6 875.4 L 914 876.5 L 916.3 878.2 L 918.2 879.5 L 918.9 880.6 L 919.6 883.6 L 920.5 885.6 L 921.4 886.2 L 922.2 886.2 L 922.7 886.3 L 923.8 886.2 L 924.3 885.3 L 923.9 884.1 L 923.9 883.4 L 924 882.3 L 924.4 880.8 L 924.6 879.7 L 924 878.6 L 924.3 877.3 L 925.2 876.9 L 926.1 877.1 L 926.9 877.4 L 927.4 877.1 L 927.2 876.3 L 926.8 874.8 L 925.9 873.3 L 925.4 872.3 L 926.4 872 L 927.4 870.9 L 928.3 869.4 L 928.9 868.6 L 927.1 868 L 925 867.4 L 924.6 866.5 L 925 865.6 L 924.9 864.4 L 924.8 862.9 L 925.4 861.8 L 926.3 861.3 L 926.8 860.2 L 927.1 858.2 L 927.8 856.9 L 928.2 857 L 927.8 858.5 L 927.3 860.5 L 926.8 861.5 L 926.1 862.1 L 925.9 863.8 L 925.6 865.7 L 925.3 866.4 L 925.7 867 L 927.6 867.5 L 929.6 868.1 L 930.2 868.8 L 930.8 869.3 L 931.2 869.5 L 930.9 869.7 L 929.6 869.9 L 928.8 870.1 L 928.8 870.7 L 928 872.1 L 927.8 873.5 L 928.3 874.7 L 929.3 875.9 L 930.4 876.5 L 930.4 876.9 L 929.6 877.1 L 928.3 877.4 L 927.1 878 L 926.6 879.2 L 925.9 880.7 L 925.5 881.7 L 926 882.5 L 926.6 883.1 L 927.3 884 L 929 883.4 L 930.1 882.8 L 929.9 883.7 L 929.9 884.1 L 929.8 884.5 L 929.5 885 L 929.8 885.9 L 930.7 887.2 L 930.8 889.1 L 930.8 891.7 L 930.8 892.9 L 930.1 892.8 L 929.6 892.9 L 929.2 893.5 L 929.2 894.1 L 929.6 894.9 L 929.9 895.6 L 931 894.8 L 932 894 L 931.8 895.1 L 931.5 896.2 L 931.3 896.7 L 931.3 897.9 L 931 898.9 L 930.7 899.8 L 930.7 900.2 L 930.7 900.5 L 931.2 901.4 L 931.2 902.1 L 930.7 902.8 L 930.5 903.5 L 930.8 904 L 930.8 904.5 L 930.8 905.1 L 930.7 905.4 L 930.5 906.5 L 931.1 907.4 L 931.6 907.7 L 931.4 908.5 L 930.8 909.3 L 930.6 910.7 L 930.3 912.3 L 929.6 913.9 L 929.5 917.9 L 930 920.8 L 930.5 920.8 Z M 926.2 920.7 L 926.2 920.7 L 926.2 920.7 L 927.7 919.2 L 927.1 917.9 L 925.7 917.1 L 924 916.7 L 922.7 917.6 L 922.5 919.5 L 923.6 920.2 L 924.9 921.3 L 926.2 920.7 Z" />
<path class="lake" d="M 930.5 920.8 L 930.5 920.8 L 930.5 920.8 L 931.4 919.4 L 931.9 918.8 L 931.7 920.1 L 930.7 921.6 L 929.2 922.6 L 928.1 922.9 L 927.4 922.6 L 927.1 922.5 L 926.8 922.8 L 926.9 923.2 L 926.8 924 L 926.7 925 L 926.5 926 L 926.2 927.8 L 926.4 930.3 L 925.3 931.2 L 924.6 930.7 L 924.4 929.2 L 923.4 929.1 L 921.8 929.9 L 921.1 929 L 920.3 927.7 L 919.1 926.5 L 916.7 925.2 L 914.2 923.5 L 912.1 922.4 L 908.9 921 L 905.1 919.5 L 902.5 918.4 L 901.3 916.9 L 901 915.9 L 901.7 915.8 L 903.1 916.7 L 904.2 917.4 L 905.1 916.6 L 906.1 917.1 L 907 918.9 L 907.7 919.3 L 908.5 919.2 L 909.2 919 L 909.5 918 L 909.6 916.4 L 910 916 L 910.8 917.8 L 911.8 919.5 L 912.7 919.5 L 913.8 919.3 L 915.1 919 L 916.1 918.7 L 916.7 919.3 L 917.1 920.5 L 917.7 921.6 L 919.2 922.2 L 920.4 922.2 L 920.9 920.7 L 921.3 919.4 L 921.6 919 L 921.4 918.5 L 920.6 917.9 L 920.1 917.3 L 919.9 916.6 L 920.1 916.1 L 920.8 915.5 L 921.8 915.3 L 922.5 915.5 L 923.1 915.4 L 924.5 914.8 L 925.6 913.9 L 925.3 913.5 L 924 913.4 L 923.4 912.4 L 924.8 911.5 L 925.9 911.6 L 925.9 911.3 L 925.2 910.6 L 924.9 910 L 925 909.6 L 925.3 909.1 L 925.1 908.3 L 924.8 907 L 924.7 906.2 L 924.2 906.1 L 923.5 905.7 L 923 905.3 L 922.4 905 L 922.4 904.3 L 922.6 904.2 L 923.2 904.5 L 924.1 904.7 L 924.7 904.7 L 925.2 904.8 L 925.8 904.5 L 926.5 903.9 L 926.9 903.3 L 927.1 902.9 L 927.5 902.9 L 927.8 902.5 L 927.8 901.9 L 927.5 901.3 L 927 901.2 L 926.3 901 L 925.3 900.1 L 924.2 898.6 L 923.7 897.4 L 923.7 896.9 L 923.6 896.5 L 923.5 896 L 922.1 895.3 L 920.2 895 L 920.3 896.3 L 920.1 897 L 918.8 896.6 L 918.2 896.2 L 917.9 895.4 L 917.3 895 L 915.7 894.9 L 914.6 894.8 L 915 894.3 L 915.7 893.8 L 916.9 893.7 L 918 893.6 L 918.9 893.7 L 919.9 893.8 L 921.3 893.9 L 922.5 894 L 921.6 892.4 L 920.2 890.9 L 918.7 890.8 L 916.5 890.7 L 914.6 891 L 911.7 891.6 L 908.8 892.4 L 907.5 892.5 L 906.7 892.3 L 905.7 892.9 L 903.5 893.6 L 901.9 893.7 L 903.2 893.2 L 905.3 892.2 L 907.2 891.4 L 909.1 890.7 L 911.1 890.2 L 913 890.1 L 914 889.6 L 914.2 888.9 L 914.3 888.5 L 915.6 888.7 L 917.1 888.4 L 918.3 887.9 L 919.1 887.7 L 919 887.4 L 918 887 L 917.3 886.7 L 917.2 886.2 L 917.4 885.6 L 917.4 884.7 L 916.9 883.2 L 916.4 882.1 L 916.2 881.2 L 915.2 880.5 L 913.3 879.3 L 912.4 878.6 L 911.5 878.6 L 911.3 879.8 L 910.2 880.4 L 909.2 880.7 L 909.9 879.8 L 910.4 878.3 L 909.3 877.4 L 908.4 877 L 906.7 878.1 L 905.9 877.9 L 905.9 875.9 L 905.3 875.1 L 904.8 875.7 L 903.9 876.7 L 902.8 877.2 L 902.3 877.1 L 902.3 876.5 L 900.7 876.4 L 898.8 876.7 L 898.6 876.2 L 899 875.7 L 899.8 875.7 L 901.9 875.4 L 903.5 874.9 L 903.6 874.5 L 902.9 873.9 L 901.2 872.4 L 899.7 871.1 L 898.8 870.6 L 897.6 870.1 L 897.4 869.5 L 897.9 868.5 L 896.2 866 L 893.9 862.7 L 892.3 861.1 L 891.2 860.3 L 890 859.9 L 888.5 860 L 887.2 860.3 L 886.9 861.4 L 886.5 862.8 L 885.6 861.2 L 884.4 859.5 L 883.4 859.2 L 881.8 858.3 L 880.4 857.4 L 878.7 857 L 877.5 857.2 L 876.1 858.3 L 874.4 859.3 L 872.5 859.9 L 870.7 860.4 L 869.1 860.3 L 870.7 859 L 872.9 858.3 L 875.2 857.2 L 876.8 856.3 L 878.5 855.7 L 879.6 854.9 L 880.2 855.3 L 882.1 856.6 L 882.9 857.4 L 887.3 858 L 889.3 857.5 L 889.1 856.6 L 888.2 855.6 L 887.1 854.7 L 886.7 852.8 L 885.8 850.6 L 885.7 849.5 L 885.7 848.1 L 885.8 846.6 L 886.5 845.3 L 887.2 846.5 L 887.3 848 L 887.4 849.5 L 887.5 851.1 L 888 852.1 L 888.9 853.4 L 889.8 853.7 L 890.4 853.7 L 891.3 855.8 L 893.3 859.6 L 895.1 861.7 L 896.1 861.9 L 896.9 861.3 L 896.9 859.7 L 896.7 858 L 897.1 856.8 L 897.7 856.3 L 897.9 856.4 L 897.5 857.5 L 897.2 858.5 L 898.3 859.5 L 899.8 860.1 L 900.3 859.9 L 900.3 860.5 L 898.7 862 L 897.3 863.7 L 897.5 864.4 L 898 865.3 L 899.8 867.4 L 901.7 868.8 L 902.8 869.6 L 903.8 870.9 L 904.6 871.3 L 905 872.1 L 905.9 872.6 L 907.1 873.3 L 908.3 873.3 L 910 873 L 911.2 872.3 L 912.3 872.3 L 913.3 872 L 914.5 872.2 L 915.9 873.2 L 916.2 874.1 L 914.2 874.1 L 912.2 874.3 L 911.9 874.9 L 912.6 875.4 L 914 876.5 L 916.3 878.2 L 918.2 879.5 L 918.9 880.6 L 919.6 883.6 L 920.5 885.6 L 921.4 886.2 L 922.2 886.2 L 922.7 886.3 L 923.8 886.2 L 924.3 885.3 L 923.9 884.1 L 923.9 883.4 L 924 882.3 L 924.4 880.8 L 924.6 879.7 L 924 878.6 L 924.3 877.3 L 925.2 876.9 L 926.1 877.1 L 926.9 877.4 L 927.4 877.1 L 927.2 876.3 L 926.8 874.8 L 925.9 873.3 L 925.4 872.3 L 926.4 872 L 927.4 870.9 L 928.3 869.4 L 928.9 868.6 L 927.1 868 L 925 867.4 L 924.6 866.5 L 925 865.6 L 924.9 864.4 L 924.8 862.9 L 925.4 861.8 L 926.3 861.3 L 926.8 860.2 L 927.1 858.2 L 927.8 856.9 L 928.2 857 L 927.8 858.5 L 927.3 860.5 L 926.8 861.5 L 926.1 862.1 L 925.9 863.8 L 925.6 865.7 L 925.3 866.4 L 925.7 867 L 927.6 867.5 L 929.6 868.1 L 930.2 868.8 L 930.8 869.3 L 931.2 869.5 L 930.9 869.7 L 929.6 869.9 L 928.8 870.1 L 928.8 870.7 L 928 872.1 L 927.8 873.5 L 928.3 874.7 L 929.3 875.9 L 930.4 876.5 L 930.4 876.9 L 929.6 877.1 L 928.3 877.4 L 927.1 878 L 926.6 879.2 L 925.9 880.7 L 925.5 881.7 L 926 882.5 L 926.6 883.1 L 927.3 884 L 929 883.4 L 930.1 882.8 L 929.9 883.7 L 929.9 884.1 L 929.8 884.5 L 929.5 885 L 929.8 885.9 L 930.7 887.2 L 930.8 889.1 L 930.8 891.7 L 930.8 892.9 L 930.1 892.8 L 929.6 892.9 L 929.2 893.5 L 929.2 894.1 L 929.6 894.9 L 929.9 895.6 L 931 894.8 L 932 894 L 931.8 895.1 L 931.5 896.2 L 931.3 896.7 L 931.3 897.9 L 931 898.9 L 930.7 899.8 L 930.7 900.2 L 930.7 900.5 L 931.2 901.4 L 931.2 902.1 L 930.7 902.8 L 930.5 903.5 L 930.8 904 L 930.8 904.5 L 930.8 905.1 L 930.7 905.4 L 930.5 906.5 L 931.1 907.4 L 931.6 907.7 L 931.4 908.5 L 930.8 909.3 L 930.6 910.7 L 930.3 912.3 L 929.6 913.9 L 929.5 917.9 L 930 920.8 L 930.5 920.8 Z M 926.2 920.7 L 926.2 920.7 L 926.2 920.7 L 927.7 919.2 L 927.1 917.9 L 925.7 917.1 L 924 916.7 L 922.7 917.6 L 922.5 919.5 L 923.6 920.2 L 924.9 921.3 L 926.2 920.7 Z" />
<path class="country" d="M 566.1 742.4 L 567.6 732.8 L 564.9 720.9 L 553.4 712.2 L 547.3 694.5 L 545.8 675.2 L 556.2 669.6 L 561.4 651.4 L 571.2 650.7 L 592.8 659.3 L 610.3 653.2 L 622.2 655.2 L 626.9 648.3 L 750.9 647.9 L 757.8 626.2 L 752.4 622.4 L 737.5 489 L 722.6 355.6 L 769.9 355 L 874.2 422.5 L 978.5 489.9 L 985.9 504.4 L 1005.1 513.2 L 1019.4 518.3 L 1019.8 537.9 L 1054.1 534.9 L 1054.2 606.1 L 1037.3 626.8 L 1034.6 645.8 L 1007.2 650.7 L 965 653.4 L 953.5 664.4 L 933.7 665.6 L 913.9 665.7 L 906.2 659.8 L 889.2 664.2 L 860.3 677 L 854.4 686.7 L 830.4 700.5 L 826.2 708.5 L 813.2 714.8 L 798.3 710.6 L 789.8 718.2 L 785.3 739.4 L 760.7 765 L 761.4 775.5 L 753 788.6 L 755 806.5 L 742.3 811.1 L 735.1 815 L 730.3 801.8 L 721.4 805.3 L 716 804.7 L 710.3 813.7 L 686.5 813.4 L 677.9 808.8 L 673.9 811.6 L 664.4 802.7 L 666.1 793.5 L 662.2 789.9 L 655.6 792.9 L 656.8 782.8 L 663.2 774.9 L 650.5 761.9 L 646.8 753.4 L 639.9 746.6 L 633.7 745.8 L 626.3 750.1 L 616.3 754.3 L 607.8 761 L 594.6 758.5 L 586 750.6 L 580.9 749.6 L 572.8 753.7 L 567.9 753.8 L 566.1 742.4 Z" />

<path class="river" d="M 869.2 860.3 L 873.6 858.7 L 875.7 857.7 L 877.7 856.4 L 879.6 856.3 L 881.9 857.7 L 885.8 859 L 892 859.4" />
<path class="river" d="M 892 859.4 L 887.8 853.4 L 886.4 849.8 L 886.5 845.3" />
<path class="river" d="M 1065.1 822.2 L 1062.2 810.6 L 1062.4 804.8 L 1066.1 799.1 M 799.1 654.7 L 793.3 652.1 L 790.8 650.4 L 789.1 647.7" />
<path class="river" d="M 704.4 909.4 L 703.9 913.5 L 704.5 916.2 L 705.9 918.8 L 706.1 923.5 L 704.9 930.4 L 705.5 933.5" />
<path class="river" d="M 892 859.4 L 899.7 868.6 L 905.9 873.7 L 913 877.7 L 917.4 881.5 L 919 885.1 L 920.5 887.3 L 921.8 887.9 L 923.3 890.7 L 925.2 895.6 L 926.9 898.5 L 928.6 899.6 L 929.3 903.2 L 928.9 909.2 L 928.2 913.1 L 927.1 915 L 927.1 916.8 L 928.2 918.8 L 928.1 920.4 L 926.3 922 L 925.5 924.6 L 925.3 931.2" />
<path class="river" d="M 548.4 799.7 L 550.9 801.6 L 553.3 801.8 L 556.2 801 L 558.1 798.8 L 558.8 795.4 L 559.5 793.5 L 560.7 793 L 562.8 792.9 L 563.4 791.3 L 563.1 788.2 L 564.1 784.8 L 566.3 781.3 L 568.3 779.3 L 570.1 778.9 L 572.7 777.3 L 575.9 774.3 L 578.1 771.7 L 579.2 769.3 L 580.2 768.5 L 581.1 769.3 L 583.1 769.3 L 586.1 768.7 L 590 764.4 L 594.7 756.4 L 598.6 751.9 L 601.4 750.6 L 602.4 749 L 601.5 747.1 L 602.3 743.9 L 604.7 739.5 L 605.6 736.5 L 604.9 735 L 605.2 733.7 L 606.3 732.7 L 606.1 731.5 L 604.5 730.2 L 603.9 728.8 L 604.2 727.3 L 603.9 726.5 L 603 726.4 L 602.1 724.6 L 601.2 720.9 L 599.7 718.7 L 597.3 717.8 L 594.1 717.3 L 590 717.3 L 588.1 716 L 588.3 713.4 L 589.1 712 L 590.1 711.7 L 590.3 711.2 L 589.7 709.7 L 587.2 705.4 L 586.1 702.5 L 586 702 L 585.4 701.2" />
<path class="river" d="M 1290.8 833.7 L 1286.5 833.5 L 1280 836.2 L 1269.9 841.8 L 1263.4 847 L 1260.4 852 L 1257.8 855.2 L 1255.7 856.8 L 1251 857.9 L 1243.7 858.7 L 1238.1 861.6 L 1234 866.6 L 1230.6 869.7 L 1226.6 871.4 L 1216.8 876.1 L 1212.6 878.6 L 1210.8 880.6 L 1204.8 883.1 L 1194.4 886.4 L 1183 886 L 1164.2 880.1 L 1151.6 879.2 L 1143.4 880.8 L 1131.6 886.2" />
<path class="river" d="M 1340.3 886.7 L 1344.9 884.3 L 1346.2 882.2 L 1345.8 879.6 L 1346.8 877.6 L 1350.3 875.5 L 1353.7 872.4 L 1354.9 870.2 L 1355 867.8 L 1354.3 865.8 L 1352.8 864.2 L 1352.7 861.3 L 1353.9 857.4 L 1352.6 854.1 L 1348.8 851.5 L 1345.1 847.2 L 1341.5 841.3 L 1338.8 839.2 L 1336.8 840.7 L 1333.9 841.9 L 1330.2 842.7 L 1326.7 842 L 1321.8 838.5 L 1318.5 837.3 L 1315.3 838 L 1311.1 840.3 L 1307.2 839.4 L 1303.7 835.2 L 1299.2 833.3 L 1290.8 833.7" />
<path class="river" d="M 759.4 782.8 L 761.8 783.2 L 763.7 782.3 L 765.7 780.1 L 767.9 778.9 L 771.3 778.3 L 776.4 774.5 L 778.7 773.7 L 780 774.6 L 781.8 774.3 L 784 772.6 L 786.7 771.4 L 789.9 770.6 L 794.6 765.5 L 800.9 756.2 L 804 750.7 L 804.2 749 L 805.1 747 L 807 744.8 L 808.8 743.7 L 810.6 743.7 L 811.8 741.4 L 812.4 736.7 L 813.6 734 L 815.5 733.3 L 816.8 733.9 L 817.7 735.6 L 819 736.2 L 820.8 735.5 L 821.7 736.4 L 821.7 738.6 L 823 740.7 L 825.5 742.5 L 828.7 743.9 L 832.5 744.7 L 834 745.7 L 833.3 746.9 L 833.6 748.9 L 835.1 751.5 L 834.8 753.1 L 832.9 753.8 L 832.6 755.6 L 833.9 758.4 L 833.9 760.5 L 832.5 761.8 L 833 763 L 835.5 764.1 L 835.9 768.3 L 834 775.6 L 833.8 779.6 L 835.1 780.1 L 835.4 781.9 L 834.6 786.8 L 832.2 795.5 L 832 799.7 L 833.1 802.3 L 834.4 803.9 L 835.8 804.6 L 836 805.6 L 834.8 806.8 L 834.9 808 L 836.3 809.3 L 836.6 810.6 L 835.9 812 L 836.1 815.4 L 837.1 820.8 L 837.1 824.2 L 836.2 825.8 L 836.6 828.6 L 838.5 832.4 L 839.1 835.5 L 838.5 838 L 838.6 839.6 L 839.5 840.2 L 839 842.1 L 837.2 845.5 L 837.2 847.5 L 839 848.1 L 840.2 850.2 L 841 853.9 L 843.1 857.2 L 846.5 860.3 L 849.1 863.9 L 850.7 868.1 L 852.7 871.3 L 855.1 873.7 L 857.6 874.9 L 860.3 874.7 L 862.3 873.9 L 863.6 872.5 L 865.1 871.9 L 866.7 872.3 L 867.5 871.8 L 867.4 870.4 L 866.6 869.7 L 864.9 869.5 L 863.8 868.8 L 863.3 867.5 L 863.4 865.3 L 864.3 862.1 L 865.8 860.5 L 869.2 860.3" />
<path class="river" d="M 857.7 694 L 858.6 704.2 L 857 707.7 L 857.1 710.6 L 858.3 713.9 L 858.2 717.4 L 856.5 720.9 L 856.1 723.1 L 857.1 723.9 L 860.6 724 L 866.9 723.5 L 871.8 724.2 L 875.4 726.3 L 878.5 726.9 L 881.1 726.1 L 883.1 726.4 L 884.5 727.7 L 885.6 730.3 L 886.2 734.3 L 886.9 736 L 887.7 735.5 L 888.3 735.8 L 888.7 736.8 L 888.4 745.8 L 889.8 751.4 L 893.1 756.9 L 895.6 760.3 L 897.5 761.4 L 898.3 763.8 L 898.1 767.3 L 899.8 769.8 L 903.3 771.5 L 905.6 773 L 906.7 774.5 L 906.9 775.6 L 906.3 776.2 L 907.2 778.1 L 909.6 781.1 L 910.6 784.5 L 910.3 788.5 L 910.6 791.2 L 911.5 792.6 L 911.6 793.7 L 911 794.5 L 911 795.7 L 911.7 798.3 L 903.3 801.1 L 900.5 801.1 L 900.4 799.2 L 899.7 798.2 L 898.5 798.1 L 896.9 799.3 L 894.9 801.7 L 893.2 802.5 L 891.6 801.8 L 890.4 801.9 L 889.6 802.6 L 889.1 804.2 L 889.2 806.6 L 889.7 808.6 L 890.7 810.2 L 890.5 811.6 L 889.1 813 L 889.1 814.4 L 890.3 815.7 L 891.2 819.2 L 891.9 824.9 L 890.6 827.4 L 887.2 826.8 L 883.9 827.7 L 880.6 830.1 L 879.3 832.7 L 879.9 835.6 L 881.1 837.8 L 882.9 839.4 L 883.7 841 L 883.6 842.7 L 884.3 844 L 886.5 845.3" />
<path class="river" d="M 1115.9 972.8 L 1114.6 975.1 L 1111.7 977.4 L 1110 981.5 L 1109.4 990.5 L 1110 994.5 M 1115.9 972.8 L 1116 990.1 M 1121.7 961.4 L 1119.2 961.9 L 1117 962.8 L 1115.1 964.1 L 1114.1 965.3 L 1114.1 966.4 L 1112.9 967.5 L 1110.4 968.7 L 1107.4 968.5 L 1103.8 966.9 L 1099.5 966.6 L 1091.4 967.8 M 1121.7 961.4 L 1119.8 963.3 L 1118.4 964.6 L 1117.9 965.7 L 1118 966.5 L 1118.7 967 L 1118.6 967.8 L 1117.6 969 L 1116.7 969.6 L 1115.9 969.6 L 1115.6 970.7 L 1115.9 972.8 M 1124.9 955.8 L 1126.4 960.6 L 1125.8 963.3 L 1123.8 965.3 L 1122.3 967.7 L 1121.3 970.6 L 1121.9 972.5 L 1123.9 973.5 L 1125.3 975.4 L 1126.2 978.3 L 1127.5 980.9 L 1129.6 984.7 L 1129.8 988 L 1129.6 989.5 L 1129.6 990.4 L 1129.8 992.9 M 590.3 846.1 L 592.4 844.1 L 593.7 841.6 L 595 837.9 L 594.9 834.9 L 592.7 831.4 L 593.1 825.7 L 591.8 820.6 L 588.9 814.2 L 587.7 810.3 L 588.3 808.9 L 589.9 808 L 592.3 807.7 L 593.4 806.9 L 593 805.5 L 594 804.8 L 596.2 804.8 L 598.1 804 L 599.6 802.4 L 601.7 801.8 L 604.6 802.1 L 606.2 802.8 L 606.8 803.2 L 607.6 803.4 L 608.3 803.1 L 611.3 800.4 L 613.9 799.2 L 616 799.4 L 617.1 798.7 L 617.6 798.1 L 619.1 797.5 L 623.5 797 L 627.3 793.8 L 630.5 788 L 633.3 785.1 L 635.6 785 L 637.7 784.1 L 639.7 782.3 L 640.3 779.7 L 639.5 776.2 L 641.1 774.1 L 645.1 773.5 L 648.5 771.5 L 651.3 767.9 L 654.7 764.8 L 658.5 762.3 L 661.4 759.1 L 663.4 755.2 L 666.1 751.7 L 669.4 748.6 L 671.8 744.6 L 673.2 739.5 L 675.9 736.8 L 679.8 736.5 L 685.1 733.1 L 691.7 726.5 L 697.1 722 L 703.3 718.3 L 707.3 715.2 L 712.3 714 L 719.6 713.8 L 725.3 712.6 L 729.3 710.3 L 732.1 707.5 L 733.7 704.4 L 736 703.3 L 739.6 703 L 743.3 702.2 L 749.1 697.8 L 754.1 695.5 L 758.1 695.3 L 760.9 694.1 L 762.5 691.9 L 767.7 689.5 L 776.4 687 L 781.5 686.1 L 783.4 685.8 L 785.6 684.6 L 792.3 677.3 L 794.8 670.4 L 797.2 667 L 800.1 664.5 L 800.9 661.1 L 799.1 654.7 L 799.9 654.4 L 801.1 653.9 L 803 652.5 L 804 651.2 L 804.1 650 L 803 649.3 L 800.7 648.9 L 800.8 647.8 L 804.8 644.8 L 805.1 644.2 L 802.8 643.5 L 803.1 643 L 804.3 642.6 L 806.2 642.2 L 807.3 640.8 L 807.5 638.1 L 808.3 636.4 L 809.8 635.7 L 810.9 634.4 L 811.7 632.3 L 813.8 631 M 1065.1 822.2 L 1065.7 825.5 L 1065.3 828.2 L 1064.1 831.2 L 1063.9 834.3 L 1064.7 837.3 L 1066 839.2 L 1067.9 840 L 1069 841.4 L 1069.4 843.3 L 1071.5 843.9 L 1075.1 843.2 L 1078.5 844.3 L 1081.6 847.2 L 1085.7 849.2 L 1090.8 850.5 L 1095.4 852.5 L 1101.5 856.9 L 1108.3 856.5 L 1112.5 856.9 L 1116.6 857.9 L 1119.5 860.4 L 1121.2 864.4 L 1123.8 868.2 L 1127.2 871.5 L 1129.8 875.4 L 1131.5 879.6 L 1131.6 886.2 L 1129.6 899.5 L 1128.2 911.6 L 1128 918.7 L 1129 928 L 1130.5 935.4 L 1129.5 942.3 L 1124.8 955.8 L 1122.9 958.2 L 1122.5 959.5 L 1122.8 960.6 L 1121.7 961.4 M 789.1 647.7 L 788 644.2 L 788.7 642.3 L 790.7 640.8 L 792 638.9 L 792.7 636.6 L 794.2 635.8 L 796.4 636.4 L 799.7 634.8 L 803.9 631 L 808.1 629 L 812.2 628.7 L 814.9 627.5 M 813.8 631 L 814.9 627.5 M 814.9 627.5 L 816.3 625.5 L 817.7 624.4 L 819.1 624.2 L 819.8 623.5 L 819.8 622.1 L 821.3 620.5 L 822.5 619.9 M 822.5 619.9 L 823.5 623.2 L 823.6 624.7 L 823 625.5 L 822.2 626.1 L 821 626.3 L 820 627.4 L 819.2 629.3 L 817.1 630.5 L 813.8 631 M 822.5 619.9 L 824.2 618.9 L 826.1 616.7 L 826.9 613.7 L 828.5 612.4 L 831 612.6 L 837.3 611.1 L 847.6 608 L 854.2 606.6 L 857.2 606.9 L 859 606.7 L 859.6 605.8 L 863.5 604.2 L 870.7 601.9 L 877.4 600.5 L 883.5 599.8 L 887.6 600.1 L 889.6 601.3 L 892.3 601.7 L 895.6 601.3 L 898.3 601.8 L 900.3 603.1 L 903.6 603.5 L 908 602.9 L 911.4 605.5 L 913.8 611.1 L 915.9 614.6 L 917.6 616 L 919.4 619.3 L 922.2 627.2 L 926.6 633 L 930.2 636.4 L 934.4 639.4 L 936.7 642.4 L 937 645.3 L 939.1 647.6 L 942.9 649.3 L 945 650.7 L 945.3 651.9 L 944.6 654.7 L 943 658.9 L 942.5 662 L 943 663.8 L 944.5 665 L 946.8 665.7 L 948.6 667.7 L 949.7 671.1 L 952 674.8 L 955.4 678.9 L 959.5 682.5 L 964.2 685.7 L 967.4 689.8 L 968.9 694.9 L 971 699 L 973.8 702.1 L 978.1 705.1 L 984.1 708 L 987.8 710.5 L 989.3 712.8 L 991.3 714.6 L 993.5 716 L 994.9 719.8 L 995.4 726 L 996.8 730.8 L 999.1 734.4 L 1000.1 736.7 L 999.7 737.9 L 999.9 739.1 L 1000.7 739.8 L 1001.6 739.8 L 1002.4 739.1 L 1003 739.1 L 1003.3 739.7 L 1004.2 740 L 1005.4 739.8 L 1006.2 740.1 L 1006.7 741.7 L 1007.7 742.8 L 1009.2 743.2 L 1010.1 743.8 L 1019.5 752.5 L 1023.2 756.4 L 1024.1 758.4 L 1026 759.8 L 1028.8 760.7 L 1031.3 762.7 L 1033.3 765.5 L 1036.4 767.9 L 1041.2 769.4 L 1046.5 772.1 L 1049.9 775 L 1053.2 779 L 1057.2 781.8 L 1061.7 783.5 L 1065 785.7 L 1067.1 788.4 L 1067.6 792.1 L 1066.1 799.2" />
<path class="river" d="M 1328 974.6 L 1323.9 973.1 L 1321 972.8 L 1315.2 973.8 L 1312.7 974.5 L 1310.1 976.4 L 1307.5 979.3 L 1305.1 980.8 L 1301.8 981.1 L 1297.2 985.7 L 1294.9 986.7 L 1293.5 985.5 L 1290.3 986.7 L 1285.2 990.4 L 1280.7 991.1 L 1276.7 989 L 1271.4 990.7 L 1264.7 996.5 L 1257.9 1000.2 L 1251 1001.8 L 1246.8 1002 L 1245.5 1000.8 L 1243.4 1002.1 L 1240.7 1006 L 1238.6 1007.8 L 1237.1 1007.7 L 1234.9 1009.3 L 1232 1012.7 L 1229.4 1014.5 L 1225.7 1015 L 1224.1 1015.1" />
<path class="river" d="M 705.5 933.5 L 707.2 935.9 L 712.6 940 L 715 942.5 L 714 943.4 L 714 944.7 L 714.7 946.4 L 715.7 947.5 L 716.9 947.9 L 718.3 949.8 L 719.9 953.1 L 721.7 955.9 L 725.1 959.3 L 728.2 962.7 L 729.4 965.6 L 730 969.1 L 731.3 971.6 L 734.7 974 M 698.4 850.6 L 699.5 854.2 L 699.5 856.7 L 698.9 859.3 L 699.5 862.9 L 701.3 867.5 L 702.5 874.5 L 703.5 888.5 L 703.7 890.8 L 704.4 891.9 L 705.6 892.3 L 706.1 893.6 L 705.7 895.9 L 704.9 897.6 L 703.7 898.8 L 703.4 901.9 L 704.4 909.4 M 700.5 826.8 L 699.1 830.2 L 698.6 833.1 L 698.6 838.5 L 699.4 842.9 L 699.2 845 L 698.2 846.2 L 697.8 847.7 L 698.4 850.4" />
<path class="river" d="M 585.4 701.2 L 584.7 700.8 L 583.5 700.4 L 581.7 698.8 L 580.1 695.2 L 578 692.9 L 575.5 692 L 574.4 691.1 L 575 690.1 L 574.9 688.4 L 574.2 686 L 572.8 683.7 L 570.6 681.4 L 567.3 679.2 L 562.9 677.1 L 559.2 675.8 L 556 675.4 L 553.1 674.3 L 549.2 671.8 L 541.8 669 L 538.5 666.8 L 536.9 664.2 L 534.3 662.2 L 530.7 660.9 L 528.4 659.3 L 527.3 657.6 L 526 656.5 L 524.6 655.9 L 524.4 655.3 L 524.8 654.4 L 524.4 652.9 L 522.3 649.4 L 520.4 647.8 L 518.7 648 L 517.8 647.6 L 517.2 646.8 L 516.9 645.7 L 515.8 644.7 L 513.8 644.3 L 512.2 641.7 L 511 637 L 509.5 633.3 L 507.5 630.6 L 506.2 629.7 L 505.1 629.5 L 504.8 629.1 L 504.5 628.3 L 503 628 L 500.9 628.8 L 499 628.5 L 498.1 627.3 L 496.8 627.1 L 495.2 628.2 L 493.4 627.9 L 491.4 626.2 L 490.3 624.5 L 490.1 622.9 L 486.6 619.5 L 480 614.5 L 472.8 612.2 L 465 612.5 L 460.6 612.3 L 459.6 611.5 L 458.7 611.5 L 457.7 612.5 L 456.7 612.7 L 455.6 612.1 L 454.9 612.5 L 454.6 613.8 L 451.9 614.5 L 446.6 614.5 L 442.4 615.3 L 439.2 616.8 L 434.6 617.5 L 428.7 617.3 L 425.2 616.7 L 423.9 615.8 L 422.2 615.6 L 420.1 616 L 418.1 618.5 L 416.4 623 L 414.9 625.5 L 413.8 626.1 L 412.6 629.5 L 411.9 635 L 410.9 637.5" />
<path class="river" d="M 925.3 931.2 L 925.2 935.8 L 927 938.1 L 930.6 939.6 L 933.9 940.3 L 936.7 940.2 L 938.9 941 L 940.7 942.6 L 941.9 944.8 L 942.9 949.1" />
<g class="city"><circle cx="1026.9313727394547" cy="927.8852221701624" r="5" /><text x="1038.9313727394547" y="931.8852221701624">Lagos</text></g>
<g class="city"><circle cx="797.8377094077091" cy="962.5774073136336" r="5" /><text x="809.8377094077091" y="966.5774073136336">Abidjan</text></g>
<g class="city"><circle cx="1185.4929701571014" cy="756.0844218993235" r="5" /><text x="1197.4929701571014" y="760.0844218993235">Kano</text></g>
<g class="city"><circle cx="1043.579034659606" cy="898.9226417850045" r="5" /><text x="1055.579034659606" y="902.9226417850045">Ibadan</text></g>
<g class="city"><circle cx="381.84422013584555" cy="672.1164547785409" r="5" /><text x="393.84422013584555" y="676.1164547785409">Dakar</text></g>
<g class="city"><circle cx="915.3727050419295" cy="955.5017699370212" r="5" /><text x="927.3727050419295" y="959.5017699370212">Accra</text></g>
<g class="city"><circle cx="1222.2835699421696" cy="1001.557505259536" r="5" /><text x="1234.2835699421696" y="1005.557505259536">Douala</text></g>
<g class="city"><circle cx="1278.1413265154895" cy="1007.5465403674486" r="5" /><text x="1290.1413265154895" y="1011.5465403674486">Yaoundé</text></g>
<text class="map-title" x="80" y="105">Mali Physical Study Map</text>
<text class="map-subtitle" x="80" y="145">Landmark: Great Mosque of Djenné | Study terrain and water systems</text>
  <text class="footer" x="80" y="1036">Made with Natural Earth. Free vector and raster map data @ naturalearthdata.com.</text>
</svg>
