<?xml version="1.0" encoding="UTF-8"?>
<svg xmlns="http://www.w3.org/2000/svg" width="1600" height="1100" viewBox="0 0 1600 1100" role="img" aria-labelledby="title desc">
  <title id="title">Mali Political Study Map</title>
  <desc id="desc">Made with Natural Earth. Free vector and raster map data @ naturalearthdata.com.</desc>
  <defs>
    <linearGradient id="terrain" x1="0" x2="1" y1="0" y2="1">
      <stop offset="0%" stop-color="#6c8c53" />
      <stop offset="42%" stop-color="#d5c487" />
      <stop offset="72%" stop-color="#b88b5f" />
      <stop offset="100%" stop-color="#f1f5ee" />
    </linearGradient>
    <filter id="softShadow" x="-10%" y="-10%" width="120%" height="120%">
      <feDropShadow dx="0" dy="10" stdDeviation="12" flood-color="#0f172a" flood-opacity="0.16" />
    </filter>
    <style>
      .neighbor { fill: #ffffff; stroke: #94a3b8; stroke-width: 1.2; opacity: 0.72; }
      .country { fill: #f7f1df; stroke: #1f2937; stroke-width: 4; filter: url(#softShadow); }
      .admin1 { fill: none; stroke: #64748b; stroke-width: 1.1; stroke-dasharray: 6 7; opacity: 0.75; }
      .river { fill: none; stroke: #1d9bd1; stroke-width: 3; stroke-linecap: round; opacity: 0.88; }
      .lake { fill: #8ed1ea; stroke: #0ea5e9; stroke-width: 1.5; opacity: 0.8; }
      .city circle { fill: #ef4444; stroke: #ffffff; stroke-width: 2; }
      .city text, .terrain-label { fill: #172033; font: 700 24px system-ui, sans-serif; paint-order: stroke; stroke: #ffffff; stroke-width: 5; stroke-linejoin: round; }
      .map-title { fill: #0f172a; font: 800 46px system-ui, sans-serif; }
      .map-subtitle { fill: #475569; font: 600 24px system-ui, sans-serif; }
      .footer { fill: #64748b; font: 500 18px system-ui, sans-serif; }
    </style>
  </defs>
  <rect width="100%" height="100%" fill="#eaf3f8" />
  <rect x="40" y="40" width="1520" height="1020" rx="32" fill="#ffffff" opacity="0.54" />
  <path class="neighbor" d="M 654.2 272.1 L 654.2 274.2 L 653.6 280.1 L 653.5 327 L 552.1 325.4 L 553.1 404.5 L 524.1 407.2 L 516.5 423.1 L 522.4 467.8 L 401.3 467.6 L 394.6 477.9 L 395.9 464.8 L 396.4 464.9 L 466.1 462.4 L 469.8 451.3 L 482.4 437.4 L 492.7 394.7 L 535.6 361.3 L 550.2 322.3 L 559.8 320.1 L 569.9 296 L 595.9 292.7 L 607.1 296.7 L 621.1 296.7 L 631.1 289.6 L 650.2 288.6 L 649.5 272.1 L 654.2 272.1 Z" />
<path class="neighbor" d="M 1829.3 1266.3 L 1834.8 1294.7 L 1831.7 1310.8 L 1837.9 1328.7 L 1855.8 1346.1 L 1872.5 1385 L 1872.5 1385 L 1860.4 1381.9 L 1818.8 1387.1 L 1810.5 1390.8 L 1801.7 1410.5 L 1808.7 1424.1 L 1803.2 1460.8 L 1799.3 1491.8 L 1807.7 1497.3 L 1829.3 1509.3 L 1837.8 1503.7 L 1840.4 1537 L 1816.7 1536.8 L 1804 1519.8 L 1792.6 1506.6 L 1768.9 1502.3 L 1762 1486.1 L 1743.1 1495.8 L 1718.3 1491.5 L 1708 1477.5 L 1688.4 1474.6 L 1673.9 1475.4 L 1672.1 1465.8 L 1661.4 1465 L 1647.4 1463.2 L 1628.2 1467.8 L 1614.8 1467 L 1607.1 1469.9 L 1608.8 1433.1 L 1598.5 1421.6 L 1596.2 1402.6 L 1600.7 1384 L 1594.5 1372 L 1593.9 1352.6 L 1556.4 1352.8 L 1559.1 1341.7 L 1543.3 1341.8 L 1541.7 1347.2 L 1522.5 1348.4 L 1514.7 1366.4 L 1510.1 1374.1 L 1493 1369.8 L 1482.8 1374.1 L 1462.4 1376.6 L 1450.5 1360.5 L 1443.4 1350.5 L 1434.5 1331.9 L 1426.9 1308.9 L 1335.7 1308.5 L 1324.8 1312.2 L 1315.9 1311.6 L 1303.1 1315.8 L 1298.8 1306.2 L 1306.6 1302.9 L 1307.6 1289.4 L 1312.7 1281.5 L 1323.9 1275 L 1332 1278.1 L 1342.6 1266.3 L 1359.5 1266.6 L 1361.4 1275.3 L 1373 1280.8 L 1391.2 1261.4 L 1409.2 1246.3 L 1417 1236.5 L 1416 1211 L 1429.4 1181 L 1443.6 1165.1 L 1463.9 1150.2 L 1467.5 1140.3 L 1468.2 1129 L 1473.3 1118.2 L 1471.7 1100.7 L 1475.5 1073.3 L 1481.6 1054 L 1490.8 1037.5 L 1492.7 1018.8 L 1495.4 997.2 L 1507.5 981.5 L 1524 971.6 L 1549.5 982.1 L 1569.2 993.5 L 1591.8 996.5 L 1614.8 1002.6 L 1624.1 983.9 L 1628.3 981.5 L 1642.4 984.6 L 1676.9 969.2 L 1689 975.7 L 1699.1 974.8 L 1703.7 967.3 L 1715.2 964.7 L 1738.4 967.9 L 1758.3 968.6 L 1768.5 965.3 L 1787.2 990.9 L 1801.1 994.6 L 1809.4 989.4 L 1823.7 991.5 L 1840.9 984.9 L 1848.2 998.1 L 1875.4 1018.7 L 1875.4 1018.7 L 1873.6 1054.8 L 1886 1059 L 1876 1070 L 1864.1 1078.2 L 1852.3 1094.3 L 1845.8 1108.7 L 1844.1 1133.5 L 1836.9 1145.3 L 1836.7 1168.6 L 1827.8 1177.2 L 1826.6 1195.6 L 1822.4 1198 L 1819.5 1214.9 L 1827.3 1229 L 1829.3 1266.3 Z" />
<path class="neighbor" d="M -675 998.7 L -693.3 1026.9 L -702.8 1049.7 L -714.6 1061.5 L -729.4 1063.7 L -733.7 1055 L -740.6 1053.7 L -750.1 1062.1 L -763.6 1055.7 L -755.8 1042.7 L -753 1028.5 L -747.6 1015.2 L -759.8 996.9 L -762.2 975.8 L -746.1 949.2 L -735.6 952.6 L -712.9 959.9 L -680.1 986 L -675 998.7 Z M 1113.4 -402.2 L 1128 -394.1 L 1172.5 -388.4 L 1156.9 -367.2 L 1153 -345.2 L 1144.5 -339.9 L 1130.4 -342.7 L 1131.4 -334.9 L 1108.8 -317.5 L 1108.3 -303.5 L 1123.1 -308.3 L 1133.7 -294.8 L 1132.4 -286 L 1141.5 -274.4 L 1130.8 -265 L 1138.8 -241.1 L 1155.5 -237.2 L 1152 -223.8 L 1124 -206.3 L 1063 -214.7 L 1018 -204.6 L 1014.5 -186 L 978.6 -182 L 943.8 -196 L 932.6 -189.3 L 875.7 -203.4 L 863.3 -215.4 L 879.3 -233.9 L 885.2 -295.5 L 853.3 -328 L 830.5 -343.6 L 783.3 -355.5 L 780.1 -378 L 820.2 -384.8 L 872.2 -376.8 L 862.4 -411.8 L 891.5 -398.6 L 963.5 -422.7 L 972.8 -448 L 999.8 -454.2 L 1004.3 -443.4 L 1018.7 -442.9 L 1033.1 -430.4 L 1054.6 -415.9 L 1070.5 -418.3 L 1097.6 -404.2 L 1104.5 -401.5 L 1113.4 -402.2 Z M 1192.5 -190.8 L 1212.5 -202.6 L 1217.7 -176.1 L 1207.5 -152.2 L 1193.5 -158.5 L 1186.3 -179.3 L 1192.5 -190.8 Z" />
<path class="neighbor" d="M 405.4 706.8 L 392.6 682.8 L 377.2 671.8 L 390.8 665.9 L 405.8 644.2 L 413.1 628.3 L 423.7 618.4 L 439.1 621.1 L 454.2 614.3 L 471.4 614 L 486.2 623.1 L 506.7 631.3 L 525.4 654 L 545.8 675.2 L 547.3 694.5 L 553.4 712.2 L 564.9 720.9 L 567.6 732.8 L 566.1 742.4 L 561.7 744.2 L 544.8 741.7 L 542.5 745.2 L 535.7 745.9 L 513.5 738.3 L 498.5 738 L 441.4 736.7 L 433.1 740.2 L 422.9 739.2 L 406.5 744.2 L 401.4 720.5 L 429.6 721.2 L 437 716.9 L 442.5 716.6 L 454 709.5 L 467.3 716 L 480.7 716.6 L 494.1 709.6 L 487.8 700.7 L 477.6 705.9 L 468 705.7 L 455.8 698.1 L 446 698.6 L 439.1 705.9 L 405.4 706.8 Z" />
<path class="neighbor" d="M 394.6 477.9 L 401.3 467.6 L 522.4 467.8 L 516.5 423.1 L 524.1 407.2 L 553.1 404.5 L 552.1 325.4 L 653.5 327 L 653.6 280.1 L 769.9 355 L 722.6 355.6 L 737.5 489 L 752.4 622.4 L 757.8 626.2 L 750.9 647.9 L 626.9 648.3 L 622.2 655.2 L 610.3 653.2 L 592.8 659.3 L 571.2 650.7 L 561.4 651.4 L 556.2 669.6 L 545.8 675.2 L 525.4 654 L 506.7 631.3 L 486.2 623.1 L 471.4 614 L 454.2 614.3 L 439.1 621.1 L 423.7 618.4 L 413.1 628.3 L 410.5 611.6 L 419.1 596.4 L 422.9 567.3 L 419.5 536.7 L 415.8 521.4 L 418.9 505.9 L 410.9 491.2 L 394.6 477.9 Z" />
<path class="neighbor" d="M 1005.4 933.6 L 979.8 937.3 L 972.2 915.9 L 973.6 844.9 L 967.4 838.6 L 966.2 823.4 L 955.5 812.5 L 946 803.4 L 949.9 787.1 L 960.6 783.6 L 966.9 770.1 L 982 767.2 L 988.7 758 L 999.1 748.9 L 1010.2 748.9 L 1033.8 766.7 L 1032.6 776.9 L 1039.5 795.3 L 1033.4 807.7 L 1036.7 816 L 1021.7 835.2 L 1012.2 844.6 L 1006.3 864.1 L 1007.1 883.8 L 1005.4 933.6 Z" />
<path class="neighbor" d="M 1381.3 420.3 L 1388.9 468.3 L 1400.5 476.4 L 1401 486.2 L 1413.8 496.8 L 1407.1 510.1 L 1395.2 572.9 L 1393.6 613.1 L 1354.1 642.2 L 1340.8 683 L 1353.6 694.4 L 1353.6 714.3 L 1373.4 715 L 1370.3 729.6 L 1361.6 731.3 L 1360.6 741.2 L 1354.8 741.9 L 1333.9 708 L 1326.7 706.8 L 1302.5 724.1 L 1278.5 715.1 L 1261.9 713.3 L 1253 717.6 L 1234.9 716.7 L 1216.6 729.8 L 1200.9 730.6 L 1163.4 714.6 L 1148.8 722.2 L 1133 721.7 L 1121.4 710 L 1090.4 698.5 L 1057.2 702.1 L 1049.1 708.8 L 1044.8 726.6 L 1035.9 739 L 1033.8 766.7 L 1010.2 748.9 L 999.1 748.9 L 988.7 758 L 989.4 736.8 L 953.8 729.8 L 952.8 714.8 L 935.4 694.7 L 931.3 680.6 L 933.7 665.6 L 953.5 664.4 L 965 653.4 L 1007.2 650.7 L 1034.6 645.8 L 1037.3 626.8 L 1054.2 606.1 L 1054.1 534.9 L 1097.7 521.1 L 1187.2 460.4 L 1293.1 401.5 L 1342 414.8 L 1359.4 431.8 L 1381.3 420.3 Z" />
<path class="neighbor" d="M 1005.4 933.6 L 1007.1 883.8 L 1006.3 864.1 L 1012.2 844.6 L 1021.7 835.2 L 1036.7 816 L 1033.4 807.7 L 1039.5 795.3 L 1032.6 776.9 L 1033.8 766.7 L 1035.9 739 L 1044.8 726.6 L 1049.1 708.8 L 1057.2 702.1 L 1090.4 698.5 L 1121.4 710 L 1133 721.7 L 1148.8 722.2 L 1163.4 714.6 L 1200.9 730.6 L 1216.6 729.8 L 1234.9 716.7 L 1253 717.6 L 1261.9 713.3 L 1278.5 715.1 L 1302.5 724.1 L 1326.7 706.8 L 1333.9 708 L 1354.8 741.9 L 1360.6 741.2 L 1372.8 753.5 L 1369.5 759.1 L 1367.8 769.4 L 1341.8 793.3 L 1333.6 813 L 1329.2 829.1 L 1322.7 836 L 1316.4 857.6 L 1299.9 870.4 L 1295.1 886 L 1288.2 898.5 L 1285.3 911.3 L 1264 921.7 L 1246.7 909 L 1235 909.5 L 1216.6 927.6 L 1207.6 927.9 L 1192.9 957.7 L 1184.9 979.6 L 1152.8 990.7 L 1141.1 989.1 L 1129.2 996 L 1104.5 995.4 L 1087.9 976 L 1077.8 953.7 L 1055.9 933.3 L 1032.6 933.7 L 1005.4 933.6 Z" />
<path class="neighbor" d="M 1370.3 729.6 L 1382.6 749.4 L 1384.7 769.9 L 1383.5 790.4 L 1400.4 818.5 L 1383.1 818.2 L 1374.4 820.4 L 1360.3 817.3 L 1353.6 831.9 L 1371.8 850 L 1385.3 855.2 L 1389.6 868 L 1399.4 889.3 L 1394.5 897.7 L 1379 929 L 1371.6 934.6 L 1369.2 958.6 L 1372.3 971.6 L 1369.8 980.8 L 1384.4 997 L 1387 1008.1 L 1398.4 1024 L 1412.6 1034 L 1414 1048.1 L 1417.2 1057 L 1415 1073.7 L 1390.4 1066.4 L 1365.4 1058.3 L 1326.4 1057.1 L 1322.6 1055.4 L 1304.3 1059.4 L 1285.5 1055.2 L 1270.8 1057.2 L 1220.5 1056.5 L 1225 1032.1 L 1212.9 1011.7 L 1198.8 1006.4 L 1192.5 992.6 L 1184.6 988.2 L 1184.9 979.6 L 1192.9 957.7 L 1207.6 927.9 L 1216.6 927.6 L 1235 909.5 L 1246.7 909 L 1264 921.7 L 1285.3 911.3 L 1288.2 898.5 L 1295.1 886 L 1299.9 870.4 L 1316.4 857.6 L 1322.7 836 L 1329.2 829.1 L 1333.6 813 L 1341.8 793.3 L 1367.8 769.4 L 1369.5 759.1 L 1372.8 753.5 L 1360.6 741.2 L 1361.6 731.3 L 1370.3 729.6 Z" />
<path class="neighbor" d="M 949.9 787.1 L 946 803.4 L 955.5 812.5 L 966.2 823.4 L 967.4 838.6 L 973.6 844.9 L 972.2 915.9 L 979.8 937.3 L 954.9 943.9 L 948 933 L 939.8 913.4 L 937.3 898 L 944.1 870.2 L 936.4 858.9 L 933.4 834.5 L 933.5 812.1 L 920.6 796.1 L 922.9 786.5 L 949.9 787.1 Z" />
<path class="neighbor" d="M 922.9 786.5 L 920.6 796.1 L 933.5 812.1 L 933.4 834.5 L 936.4 858.9 L 944.1 870.2 L 937.3 898 L 939.8 913.4 L 948 933 L 954.9 943.9 L 906.4 961.9 L 889.2 972.6 L 861.4 981.5 L 833.8 972.7 L 835.2 960.5 L 821.8 933.9 L 829.9 899 L 842.9 873 L 834.7 829 L 830.5 805.8 L 831.2 788.2 L 884.9 786.8 L 898.6 789 L 908.6 784 L 922.9 786.5 Z" />
<path class="neighbor" d="M 673.9 811.6 L 677.9 808.8 L 686.5 813.4 L 710.3 813.7 L 716 804.7 L 721.4 805.3 L 730.3 801.8 L 735.1 815 L 742.3 811.1 L 755 806.5 L 768.9 813.3 L 774.4 823.5 L 788.3 830 L 799.1 822.2 L 813.6 821.1 L 834.7 829 L 842.9 873 L 829.9 899 L 821.8 933.9 L 835.2 960.5 L 833.8 972.7 L 819.8 973.1 L 798.2 967 L 778.4 967.4 L 741.7 972.8 L 720.3 981.7 L 689.7 993 L 683.7 992.2 L 686.1 966.8 L 689 962.9 L 688.1 950.7 L 675 937.7 L 665.2 935.7 L 656.2 927.2 L 662.9 913.5 L 659.8 898.5 L 661.2 889.5 L 666.1 889.5 L 667.9 876 L 665.5 870 L 668.5 865.7 L 680 862 L 672.3 837.3 L 665.2 824.5 L 667.7 814 L 673.9 811.6 Z" />
<path class="neighbor" d="M 498.5 738 L 513.5 738.3 L 535.7 745.9 L 542.5 745.2 L 544.8 741.7 L 561.7 744.2 L 566.1 742.4 L 567.9 753.8 L 572.8 753.7 L 580.9 749.6 L 586 750.6 L 594.6 758.5 L 607.8 761 L 616.3 754.3 L 626.3 750.1 L 633.7 745.8 L 639.9 746.6 L 646.8 753.4 L 650.5 761.9 L 663.2 774.9 L 656.8 782.8 L 655.6 792.9 L 662.2 789.9 L 666.1 793.5 L 664.4 802.7 L 673.9 811.6 L 667.7 814 L 665.2 824.5 L 672.3 837.3 L 680 862 L 668.5 865.7 L 665.5 870 L 667.9 876 L 666.1 889.5 L 661.2 889.5 L 652.5 888.7 L 646.2 901.2 L 637.4 901 L 631.4 894.4 L 633.4 882 L 620.5 863.1 L 612.4 866.6 L 605.8 867.3 L 597.3 869 L 597.7 857.7 L 592.7 849.6 L 593.7 840.6 L 587 827.6 L 578.4 816.6 L 553.7 816.5 L 546.5 822.4 L 538 823.1 L 532.7 829.7 L 529.1 838.3 L 512.6 851.9 L 499 833.6 L 487 821.5 L 479.1 817.5 L 471.4 811.3 L 467.9 797.7 L 463.3 790.9 L 454.3 785.8 L 468.1 770.7 L 477.5 771.3 L 485.5 766.1 L 492.4 766.1 L 497.2 762 L 494.6 751.7 L 498 748.5 L 498.5 738 Z" />
<path class="neighbor" d="M 406.5 744.2 L 422.9 739.2 L 433.1 740.2 L 441.4 736.7 L 498.5 738 L 498 748.5 L 494.6 751.7 L 497.2 762 L 492.4 766.1 L 485.5 766.1 L 477.5 771.3 L 468.1 770.7 L 454.3 785.8 L 437.8 772.9 L 424.8 770.8 L 417.7 762.1 L 417.9 757.4 L 408.5 750.9 L 406.5 744.2 Z" />
<path class="neighbor" d="M 661.2 889.5 L 659.8 898.5 L 662.9 913.5 L 656.2 927.2 L 665.2 935.7 L 675 937.7 L 688.1 950.7 L 689 962.9 L 686.1 966.8 L 683.7 992.2 L 675.6 992.5 L 643.7 977.7 L 615.6 954.2 L 589.3 937.3 L 568.5 917.4 L 575.9 907.5 L 577.5 898.5 L 591.5 881.7 L 605.8 867.3 L 612.4 866.6 L 620.5 863.1 L 633.4 882 L 631.4 894.4 L 637.4 901 L 646.2 901.2 L 652.5 888.7 L 661.2 889.5 Z" />
<path class="neighbor" d="M 512.6 851.9 L 529.1 838.3 L 532.7 829.7 L 538 823.1 L 546.5 822.4 L 553.7 816.5 L 578.4 816.6 L 587 827.6 L 593.7 840.6 L 592.7 849.6 L 597.7 857.7 L 597.3 869 L 605.8 867.3 L 591.5 881.7 L 577.5 898.5 L 575.9 907.5 L 568.5 917.4 L 560.1 915.1 L 537.9 902.6 L 521.8 886 L 516.4 874.7 L 512.6 851.9 Z" />
<path class="neighbor" d="M 755 806.5 L 753 788.6 L 761.4 775.5 L 760.7 765 L 785.3 739.4 L 789.8 718.2 L 798.3 710.6 L 813.2 714.8 L 826.2 708.5 L 830.4 700.5 L 854.4 686.7 L 860.3 677 L 889.2 664.2 L 906.2 659.8 L 913.9 665.7 L 933.7 665.6 L 931.3 680.6 L 935.4 694.7 L 952.8 714.8 L 953.8 729.8 L 989.4 736.8 L 988.7 758 L 982 767.2 L 966.9 770.1 L 960.6 783.6 L 949.9 787.1 L 922.9 786.5 L 908.6 784 L 898.6 789 L 884.9 786.8 L 831.2 788.2 L 830.5 805.8 L 834.7 829 L 813.6 821.1 L 799.1 822.2 L 788.3 830 L 774.4 823.5 L 768.9 813.3 L 755 806.5 Z" />
<path class="neighbor" d="M 1492.7 1018.8 L 1490.8 1037.5 L 1481.6 1054 L 1475.5 1073.3 L 1471.7 1100.7 L 1473.3 1118.2 L 1468.2 1129 L 1467.5 1140.3 L 1463.9 1150.2 L 1443.6 1165.1 L 1429.4 1181 L 1416 1211 L 1417 1236.5 L 1409.2 1246.3 L 1391.2 1261.4 L 1373 1280.8 L 1361.4 1275.3 L 1359.5 1266.6 L 1342.6 1266.3 L 1332 1278.1 L 1323.9 1275 L 1312.3 1264.4 L 1303 1269.6 L 1290.5 1282.9 L 1265.1 1250.2 L 1288.7 1233.1 L 1277 1212.7 L 1287.6 1204.9 L 1308.5 1201.1 L 1310.9 1187.4 L 1327.5 1202.2 L 1354.7 1203.5 L 1364.2 1188.9 L 1368.1 1168.4 L 1364.8 1144.2 L 1350.1 1126 L 1363.5 1090.1 L 1355.8 1084 L 1332.8 1086.5 L 1324.2 1070.5 L 1326.4 1057.1 L 1365.4 1058.3 L 1390.4 1066.4 L 1415 1073.7 L 1417.2 1057 L 1433.4 1028.3 L 1451.8 1011.9 L 1472.8 1017.1 L 1492.7 1018.8 Z" />
<path class="neighbor" d="M 405.4 706.8 L 439.1 705.9 L 446 698.6 L 455.8 698.1 L 468 705.7 L 477.6 705.9 L 487.8 700.7 L 494.1 709.6 L 480.7 716.6 L 467.3 716 L 454 709.5 L 442.5 716.6 L 437 716.9 L 429.6 721.2 L 401.4 720.5 L 405.4 706.8 Z" />
<path class="neighbor" d="M 1215.3 190.1 L 1202.1 134.6 L 1183.1 122.1 L 1182.8 114.7 L 1157.5 96.2 L 1154.8 72.9 L 1173.8 55.7 L 1181.1 30.2 L 1176.2 0.7 L 1182.5 -15.1 L 1216.2 -27.6 L 1237.8 -23.9 L 1236.9 -8.3 L 1263.1 -19.6 L 1265.3 -13.7 L 1249.9 1.4 L 1249.7 15.7 L 1260.4 23.4 L 1256.3 50.2 L 1235.9 65.7 L 1241.8 82.6 L 1257.8 83.1 L 1265.6 97.8 L 1277.3 102.6 L 1275.6 126.4 L 1260.5 135.3 L 1251 145.2 L 1229.8 157.1 L 1233.1 169.9 L 1230.4 183 L 1215.3 190.1 Z" />
<path class="neighbor" d="M 653.6 280.1 L 654.2 274.2 L 654.2 272.1 L 653.9 235.5 L 703.9 212.6 L 734.8 207.9 L 760.1 199.6 L 771.9 184.1 L 808 171.9 L 809.4 149 L 827.2 146.3 L 841.2 134.9 L 881.7 129.7 L 887.4 117.6 L 879.2 111.1 L 868.5 78.4 L 866.7 59.6 L 855 39.8 L 884.8 22.9 L 918.2 17.6 L 937.7 4.8 L 967.5 -4.6 L 1019.9 -10.1 L 1071 -12.6 L 1086.6 -8 L 1115.7 -20.2 L 1148.8 -20.5 L 1161.3 -13.3 L 1182.5 -15.1 L 1176.2 0.7 L 1181.1 30.2 L 1173.8 55.7 L 1154.8 72.9 L 1157.5 96.2 L 1182.8 114.7 L 1183.1 122.1 L 1202.1 134.6 L 1215.3 190.1 L 1225.3 217.4 L 1227 231.8 L 1221.5 257 L 1223.8 271.1 L 1219.8 288 L 1222.5 307.5 L 1210.3 320.4 L 1228.5 342.9 L 1229.7 356.2 L 1240.7 373.4 L 1255.2 367.7 L 1279.6 382.1 L 1293.1 401.5 L 1187.2 460.4 L 1097.7 521.1 L 1054.1 534.9 L 1019.8 537.9 L 1019.4 518.3 L 1005.1 513.2 L 985.9 504.4 L 978.5 489.9 L 874.2 422.5 L 769.9 355 L 653.6 280.1 Z" />
<path class="neighbor" d="M 855 39.8 L 866.7 59.6 L 868.5 78.4 L 879.2 111.1 L 887.4 117.6 L 881.7 129.7 L 841.2 134.9 L 827.2 146.3 L 809.4 149 L 808 171.9 L 771.9 184.1 L 760.1 199.6 L 734.8 207.9 L 703.9 212.6 L 653.9 235.5 L 654.2 272.1 L 649.5 272.1 L 650.2 288.6 L 631.1 289.6 L 621.1 296.7 L 607.1 296.7 L 595.9 292.7 L 569.9 296 L 559.8 320.1 L 550.2 322.3 L 535.6 361.3 L 492.7 394.7 L 482.4 437.4 L 469.8 451.3 L 466.1 462.4 L 396.4 464.9 L 395.9 464.8 L 397.4 450.5 L 409.2 442.1 L 419.4 426 L 417.4 415.5 L 428 393.7 L 445.2 374 L 455.6 369 L 463.8 351 L 464.5 334.5 L 475.7 315.4 L 496.3 304.2 L 515.9 272.6 L 516.4 272.2 L 532 260.3 L 560.7 256.9 L 585.1 235.7 L 600.6 227.5 L 626.4 201.7 L 618.7 163.2 L 630.4 136.6 L 634.6 120.3 L 654.5 99.4 L 685.5 85.3 L 708.4 72.5 L 729.1 40.5 L 738.8 21.5 L 761.6 21.7 L 780.2 34.8 L 809.6 32.7 L 841.6 39.5 L 855 39.8 Z" />
<path class="neighbor" d="M 1695.1 447 L 1695.1 508.7 L 1659.5 508.8 L 1659.1 521.8 L 1535.8 462.6 L 1412.5 403.4 L 1381.3 420.3 L 1359.4 431.8 L 1342 414.8 L 1293.1 401.5 L 1279.6 382.1 L 1255.2 367.7 L 1240.7 373.4 L 1229.7 356.2 L 1228.5 342.9 L 1210.3 320.4 L 1222.5 307.5 L 1219.8 288 L 1223.8 271.1 L 1221.5 257 L 1227 231.8 L 1225.3 217.4 L 1215.3 190.1 L 1230.4 183 L 1233.1 169.9 L 1229.8 157.1 L 1251 145.2 L 1260.5 135.3 L 1275.6 126.4 L 1277.3 102.6 L 1313.7 113.3 L 1326.6 110.6 L 1352.5 115.8 L 1393.5 129.6 L 1408 157.1 L 1435.7 163.1 L 1479.3 176 L 1512.2 191.4 L 1527.3 183.4 L 1542.1 169.1 L 1534.9 145.5 L 1544.6 130.4 L 1566.9 115.9 L 1588.2 111.7 L 1630 118 L 1640.6 131.9 L 1652.1 132 L 1661.9 137.3 L 1692.6 140.9 L 1700.2 151.1 L 1689 165.9 L 1693.8 179.2 L 1685.8 198.3 L 1695.1 223.2 L 1695.1 333.1 L 1695.1 447 Z" />

<path class="country" d="M 566.1 742.4 L 567.6 732.8 L 564.9 720.9 L 553.4 712.2 L 547.3 694.5 L 545.8 675.2 L 556.2 669.6 L 561.4 651.4 L 571.2 650.7 L 592.8 659.3 L 610.3 653.2 L 622.2 655.2 L 626.9 648.3 L 750.9 647.9 L 757.8 626.2 L 752.4 622.4 L 737.5 489 L 722.6 355.6 L 769.9 355 L 874.2 422.5 L 978.5 489.9 L 985.9 504.4 L 1005.1 513.2 L 1019.4 518.3 L 1019.8 537.9 L 1054.1 534.9 L 1054.2 606.1 L 1037.3 626.8 L 1034.6 645.8 L 1007.2 650.7 L 965 653.4 L 953.5 664.4 L 933.7 665.6 L 913.9 665.7 L 906.2 659.8 L 889.2 664.2 L 860.3 677 L 854.4 686.7 L 830.4 700.5 L 826.2 708.5 L 813.2 714.8 L 798.3 710.6 L 789.8 718.2 L 785.3 739.4 L 760.7 765 L 761.4 775.5 L 753 788.6 L 755 806.5 L 742.3 811.1 L 735.1 815 L 730.3 801.8 L 721.4 805.3 L 716 804.7 L 710.3 813.7 L 686.5 813.4 L 677.9 808.8 L 673.9 811.6 L 664.4 802.7 L 666.1 793.5 L 662.2 789.9 L 655.6 792.9 L 656.8 782.8 L 663.2 774.9 L 650.5 761.9 L 646.8 753.4 L 639.9 746.6 L 633.7 745.8 L 626.3 750.1 L 616.3 754.3 L 607.8 761 L 594.6 758.5 L 586 750.6 L 580.9 749.6 L 572.8 753.7 L 567.9 753.8 L 566.1 742.4 Z" />


<g class="city"><circle cx="1026.9313727394547" cy="927.8852221701624" r="5" /><text x="1038.9313727394547" y="931.8852221701624">Lagos</text></g>
<g class="city"><circle cx="797.8377094077091" cy="962.5774073136336" r="5" /><text x="809.8377094077091" y="966.5774073136336">Abidjan</text></g>
<g class="city"><circle cx="1185.4929701571014" cy="756.0844218993235" r="5" /><text x="1197.4929701571014" y="760.0844218993235">Kano</text></g>
<g class="city"><circle cx="1043.579034659606" cy="898.9226417850045" r="5" /><text x="1055.579034659606" y="902.9226417850045">Ibadan</text></g>
<g class="city"><circle cx="381.84422013584555" cy="672.1164547785409" r="5" /><text x="393.84422013584555" y="676.1164547785409">Dakar</text></g>
<g class="city"><circle cx="915.3727050419295" cy="955.5017699370212" r="5" /><text x="927.3727050419295" y="959.5017699370212">Accra</text></g>
<g class="city"><circle cx="1222.2835699421696" cy="1001.557505259536" r="5" /><text x="1234.2835699421696" y="1005.557505259536">Douala</text></g>
<g class="city"><circle cx="1278.1413265154895" cy="1007.5465403674486" r="5" /><text x="1290.1413265154895" y="1011.5465403674486">Yaoundé</text></g>
<text class="map-title" x="80" y="105">Mali Political Study Map</text>
<text class="map-subtitle" x="80" y="145">Capital: Bamako | Continent: Africa</text>
  <text class="footer" x="80" y="1036">Made with Natural Earth. Free vector and raster map data @ naturalearthdata.com.</text>
</svg>
