<?xml version="1.0" encoding="UTF-8"?>
<svg xmlns="http://www.w3.org/2000/svg" width="1600" height="1100" viewBox="0 0 1600 1100" role="img" aria-labelledby="title desc">
  <title id="title">Myanmar Physical Study Map</title>
  <desc id="desc">Made with Natural Earth. Free vector and raster map data @ naturalearthdata.com.</desc>
  <defs>
    <linearGradient id="terrain" x1="0" x2="1" y1="0" y2="1">
      <stop offset="0%" stop-color="#6c8c53" />
      <stop offset="42%" stop-color="#d5c487" />
      <stop offset="72%" stop-color="#b88b5f" />
      <stop offset="100%" stop-color="#f1f5ee" />
    </linearGradient>
    <filter id="softShadow" x="-10%" y="-10%" width="120%" height="120%">
      <feDropShadow dx="0" dy="10" stdDeviation="12" flood-color="#0f172a" flood-opacity="0.16" />
    </filter>
    <style>
      .neighbor { fill: #ffffff; stroke: #94a3b8; stroke-width: 1.2; opacity: 0.72; }
      .country { fill: url(#terrain); stroke: #1f2937; stroke-width: 4; filter: url(#softShadow); }
      .admin1 { fill: none; stroke: #64748b; stroke-width: 1.1; stroke-dasharray: 6 7; opacity: 0.75; }
      .river { fill: none; stroke: #1d9bd1; stroke-width: 3; stroke-linecap: round; opacity: 0.88; }
      .lake { fill: #8ed1ea; stroke: #0ea5e9; stroke-width: 1.5; opacity: 0.8; }
      .city circle { fill: #ef4444; stroke: #ffffff; stroke-width: 2; }
      .city text, .terrain-label { fill: #172033; font: 700 24px system-ui, sans-serif; paint-order: stroke; stroke: #ffffff; stroke-width: 5; stroke-linejoin: round; }
      .map-title { fill: #0f172a; font: 800 46px system-ui, sans-serif; }
      .map-subtitle { fill: #475569; font: 600 24px system-ui, sans-serif; }
      .footer { fill: #64748b; font: 500 18px system-ui, sans-serif; }
    </style>
  </defs>
  <rect width="100%" height="100%" fill="#d8edf0" />
  <rect x="40" y="40" width="1520" height="1020" rx="32" fill="#ffffff" opacity="0.54" />
  <path class="neighbor" d="M 1906.3 1128.3 L 1906.7 1209.7 L 1907.1 1291.2 L 1884.9 1270.7 L 1859.5 1265.7 L 1853.3 1272.8 L 1821.7 1273.5 L 1832.3 1253.2 L 1848 1246.3 L 1841.5 1219.1 L 1829.5 1198.1 L 1781 1176.9 L 1760.4 1174.8 L 1722.9 1151.7 L 1715.5 1163.9 L 1705.9 1166.1 L 1700.2 1156.9 L 1700.2 1146.1 L 1681.1 1133.8 L 1708 1124.8 L 1725.8 1125.3 L 1723.7 1118.6 L 1687.1 1118.6 L 1677.2 1103.7 L 1654.9 1099.1 L 1644.3 1086.7 L 1678 1080.7 L 1690.8 1072.5 L 1730.9 1082.8 L 1734.9 1092.1 L 1741.9 1132.5 L 1767.7 1147.5 L 1788.6 1121 L 1817.3 1105.9 L 1839.5 1105.8 L 1860.9 1114.6 L 1879.5 1123.5 L 1906.3 1128.3 Z M 1505.6 1285.6 L 1508.1 1290.5 L 1508.6 1298.1 L 1492.2 1316.7 L 1470.9 1322.2 L 1467.9 1319.2 L 1470.1 1310.7 L 1480.8 1295.5 L 1505.6 1285.6 Z M 1736.6 1235.6 L 1734.1 1216.8 L 1738.6 1207.8 L 1743.8 1199.4 L 1749.5 1206.7 L 1749.4 1218.6 L 1736.6 1235.6 Z M 1328.4 959.9 L 1314.2 982.4 L 1332.6 1006.1 L 1328.3 1017.6 L 1356.3 1040.7 L 1326.7 1043.7 L 1318.3 1060.7 L 1319.4 1083.4 L 1295.4 1100.5 L 1294.7 1125.4 L 1285.1 1163.6 L 1281.4 1154.7 L 1253 1165.9 L 1243.1 1150.7 L 1225.3 1149.2 L 1212.8 1141.2 L 1183.1 1150.2 L 1174 1138.1 L 1157.6 1139.5 L 1137 1136.6 L 1133.2 1103.1 L 1120.7 1096.2 L 1108.7 1074.8 L 1105.2 1052.9 L 1108.1 1029.7 L 1123 1013.1 L 1127.2 1029.8 L 1144.3 1044 L 1160.4 1038.9 L 1176.3 1040.7 L 1190.9 1028 L 1202.9 1025.8 L 1226.5 1032.8 L 1246.9 1027.5 L 1259.7 992.8 L 1269.4 984.1 L 1278 955.6 L 1306.8 955.6 L 1328.4 959.9 Z M 1615.6 1133.3 L 1643.1 1140.6 L 1652.2 1159.7 L 1631.1 1149.4 L 1610.2 1147.3 L 1596.1 1149 L 1578.8 1148.1 L 1584.7 1134.4 L 1615.6 1133.3 Z M 1553.2 1158 L 1535.9 1153.5 L 1531.1 1142.7 L 1556.4 1141.5 L 1562.6 1149.7 L 1553.2 1158 Z M 1579.6 1008.9 L 1581.4 1022.6 L 1596.2 1024.8 L 1598.5 1035 L 1597.2 1056.8 L 1584.3 1054.4 L 1580.5 1069.6 L 1590.8 1082.8 L 1583.8 1085.8 L 1573.7 1069.9 L 1566.3 1038 L 1571.3 1018 L 1579.6 1008.9 Z M 1454.5 1041.4 L 1483.3 1040.4 L 1508 1022.2 L 1512.4 1027.8 L 1492.3 1052.6 L 1473.5 1057.4 L 1449.4 1052.5 L 1407.8 1053.8 L 1385.9 1057.4 L 1382.4 1076.3 L 1404.8 1098.5 L 1418.3 1087.2 L 1464.9 1078.7 L 1462.8 1090.2 L 1451.9 1086.6 L 1441.1 1101.2 L 1419.1 1110.9 L 1442.7 1142.9 L 1438.2 1151.5 L 1460.6 1180.4 L 1460.4 1196.8 L 1447.1 1204.1 L 1437.3 1195.3 L 1449.3 1174.9 L 1424.8 1184.5 L 1418.6 1177.6 L 1421.8 1168 L 1403.8 1153.3 L 1405.7 1129 L 1389 1136.6 L 1391.1 1165.7 L 1392.1 1201.5 L 1376.3 1205.1 L 1365.5 1197.8 L 1372.7 1174.8 L 1368.8 1150.6 L 1358.3 1150.4 L 1350.6 1133.3 L 1360.9 1117 L 1364.5 1097.1 L 1377 1059.4 L 1382.3 1049.1 L 1403.5 1030.6 L 1423 1037.9 L 1454.5 1041.4 Z M 1388.7 1319.7 L 1355.6 1302.2 L 1378.9 1297.3 L 1392 1304.9 L 1400.7 1312.5 L 1399.3 1319.2 L 1388.7 1319.7 Z M 1414.9 1276.7 L 1431.5 1274.8 L 1453.9 1265.6 L 1450.3 1279.5 L 1412.7 1286.6 L 1379.5 1283.5 L 1379.4 1274.4 L 1399.2 1269.2 L 1414.9 1276.7 Z M 1337.9 1272.3 L 1353.3 1270.3 L 1359.5 1280.9 L 1330.6 1285.9 L 1313.3 1289.3 L 1299.9 1289.1 L 1308.5 1274.7 L 1322.2 1274.5 L 1328.9 1265.6 L 1337.9 1272.3 Z M 1093.6 1223.8 L 1097 1232.7 L 1144.9 1235.2 L 1150.4 1224.9 L 1196.8 1236.9 L 1205.9 1253.1 L 1243.4 1257.7 L 1274 1272.5 L 1245.5 1282 L 1218 1272 L 1195.4 1272.7 L 1169.5 1270.8 L 1146.1 1266.3 L 1117.1 1256.8 L 1098.8 1254.3 L 1088.4 1257.4 L 1042.8 1247.1 L 1038.4 1236.4 L 1015.6 1234.5 L 1032.7 1210.7 L 1063 1212.1 L 1083.2 1221.9 L 1093.6 1223.8 Z M 990.7 1090.4 L 994.9 1107.8 L 1003.6 1121.8 L 1022 1124 L 1034.1 1139.8 L 1027.9 1170.9 L 1026.9 1209.6 L 999.2 1210.1 L 978.1 1189.2 L 946 1168.8 L 935.3 1153.6 L 916.4 1133.3 L 904 1114.5 L 885 1079.5 L 863 1058.7 L 855.7 1037.2 L 846.5 1017.7 L 823.9 1002 L 810.9 980.6 L 792.1 966.6 L 766 939 L 763.8 926.3 L 779.9 927.3 L 818.6 932.1 L 840.7 956.6 L 860 973.5 L 873.8 983.9 L 897.5 1010.8 L 922.9 1011.2 L 943.9 1028.3 L 958.4 1049.3 L 977.4 1060.7 L 967.4 1081.1 L 981.7 1089.8 L 990.7 1090.4 Z" />
<path class="neighbor" d="M 946.1 758.7 L 940.1 728.5 L 956.1 707.7 L 988.5 702.9 L 1011.9 706.5 L 1032.5 716.3 L 1043.8 699.1 L 1066 708.3 L 1071.8 725 L 1068.7 754.9 L 1026.7 774.1 L 1037.7 789.3 L 1011.4 791.1 L 989.8 801.2 L 968.9 797.5 L 958.7 784.5 L 946.1 758.7 Z" />
<path class="neighbor" d="M 1011.9 706.5 L 988.5 702.9 L 956.1 707.7 L 940.1 728.5 L 946.1 758.7 L 923.6 747.2 L 902.2 747.7 L 905.9 728 L 883.9 728.2 L 881.9 755.7 L 868.4 792.2 L 860.3 814.2 L 862 832.3 L 878.3 833.1 L 888.4 855.9 L 892.9 877.6 L 906.9 891.9 L 922 894.8 L 935 907.8 L 926.8 918 L 910.3 921 L 908.3 908.2 L 887.9 897.2 L 883.6 901.7 L 873.7 892.1 L 869.4 879.7 L 856.2 865.6 L 844 853.8 L 839.9 868.5 L 835.2 854.6 L 837.9 839 L 845.3 815 L 857.4 789.3 L 871.1 766 L 861.4 743.2 L 861.7 731.6 L 858.9 717.7 L 842.2 697.8 L 836.3 685.3 L 844.9 680.6 L 854 658.9 L 843.8 642.4 L 827.9 624.2 L 815.9 602.2 L 826.4 597.7 L 837.8 570.7 L 855.4 569.5 L 870 558.7 L 884.3 552.9 L 895.2 560.6 L 896.6 575.7 L 913.5 576.8 L 907.3 603.1 L 907.9 625.5 L 934.3 610.6 L 941.8 615 L 956.4 614.3 L 961.4 605.6 L 980.3 607.3 L 999.4 627.6 L 1000.9 652.3 L 1021.1 674.1 L 1020 695.2 L 1011.9 706.5 Z" />
<path class="neighbor" d="M 1066 708.3 L 1043.8 699.1 L 1032.5 716.3 L 1011.9 706.5 L 1020 695.2 L 1021.1 674.1 L 1000.9 652.3 L 999.4 627.6 L 980.3 607.3 L 961.4 605.6 L 956.4 614.3 L 941.8 615 L 934.3 610.6 L 907.9 625.5 L 907.3 603.1 L 913.5 576.8 L 896.6 575.7 L 895.2 560.6 L 884.3 552.9 L 889.7 543.7 L 910.9 527.5 L 913.2 533.3 L 926.5 534 L 922.7 505.4 L 935.7 501.8 L 950.3 521.5 L 961.5 544.2 L 992.3 544.4 L 1002 566.2 L 986 572.7 L 978.8 581.7 L 1008.8 596.7 L 1029.6 626.2 L 1045.3 648.2 L 1064.2 665.6 L 1070.5 683.3 L 1066 708.3 Z" />
<path class="neighbor" d="M 989.8 801.2 L 1011.4 791.1 L 1037.7 789.3 L 1026.7 774.1 L 1068.7 754.9 L 1071.8 725 L 1066 708.3 L 1070.5 683.3 L 1064.2 665.6 L 1045.3 648.2 L 1029.6 626.2 L 1008.8 596.7 L 978.8 581.7 L 986 572.7 L 1002 566.2 L 992.3 544.4 L 961.5 544.2 L 950.3 521.5 L 935.7 501.8 L 949.1 495.7 L 969 495.8 L 993.3 492.9 L 1014.7 479.6 L 1026.7 489 L 1049.6 493.5 L 1045.6 507.9 L 1057.5 518.1 L 1082.7 524.6 L 1049.3 545.9 L 1028.5 569.6 L 1023 586.9 L 1042.1 613.3 L 1065.5 645.9 L 1088.2 661.4 L 1103.3 681.4 L 1114.8 727.7 L 1111.4 771.7 L 1090.6 788.1 L 1061.9 804.2 L 1041.5 825.1 L 1010.4 848.3 L 1001.3 832.3 L 1008.3 815.4 L 989.8 801.2 Z" />
<path class="neighbor" d="M 814.6 356.9 L 816.5 366.3 L 807.8 370.9 L 809.8 386.3 L 791.9 381.8 L 759.6 399.1 L 760.3 413.4 L 746.5 434.3 L 745.3 446.5 L 734.1 467.1 L 714.6 461.4 L 713.6 487.3 L 708 495.8 L 710.6 506.4 L 698.3 512.3 L 685.1 472.7 L 678.2 472.8 L 674.1 488.7 L 660.5 475.8 L 668.2 461.6 L 679.4 460.1 L 690.9 439 L 676.5 434.7 L 653.3 435.1 L 629.5 431.6 L 627.3 414.3 L 615.4 413 L 595.6 402.2 L 586.7 419.2 L 604.8 432.4 L 589.2 441.7 L 583.6 450.8 L 599 457.5 L 594.7 472.6 L 603.4 491.4 L 607.3 512 L 603.7 521.1 L 586.7 520.8 L 555.9 526 L 557.3 544.8 L 544 559.6 L 508 576.4 L 480 605.8 L 461.2 621.6 L 436.3 637.9 L 436.3 649.4 L 423.8 655.6 L 401.3 664.5 L 389.6 665.9 L 382.2 684.9 L 387.4 717.4 L 388.7 738.2 L 378.1 761.9 L 378 804.4 L 365 805.6 L 353.7 824.7 L 361.3 832.9 L 338.5 840 L 330.1 857 L 320 864.2 L 296.4 840.8 L 284.8 805.8 L 275.2 780.6 L 266.4 768.8 L 253.2 744.8 L 247 713.5 L 242.6 697.9 L 219.9 663.6 L 209.6 615.1 L 202.1 583.2 L 202.2 552.9 L 197.3 529.5 L 160.9 544.4 L 143.3 541.4 L 110.7 511.1 L 122.7 502.1 L 115.3 492.3 L 86 471.1 L 102.6 454.4 L 157.6 454.5 L 152.7 433 L 138.6 420.3 L 135.8 401.1 L 119.4 389.9 L 147 363.7 L 176 365.6 L 202.2 339.4 L 217.8 314 L 242.1 288.9 L 241.7 271.1 L 263 256.6 L 242.8 244.3 L 234.2 227.4 L 225.3 205.5 L 237.6 194.7 L 275.5 200.8 L 303.3 197.1 L 327.5 176.1 L 354.3 205.4 L 351.8 225.8 L 361.8 238.6 L 360.9 251.3 L 343 248 L 350 275.5 L 374.6 291.3 L 409.3 308.8 L 393.4 320.2 L 383.7 343.5 L 408 353 L 431.5 365.3 L 464.1 379.3 L 498.4 382.5 L 512.8 395.2 L 532.1 397.6 L 562.2 403.4 L 583 403 L 585.9 393.1 L 582.6 377.2 L 584.5 366.5 L 599.8 361.2 L 601.8 380.9 L 602.4 385.9 L 625.1 395.4 L 640.8 391.5 L 661.9 393.2 L 682.3 392.4 L 684.1 377.1 L 673.9 369.1 L 694.1 366 L 716.8 347.4 L 745.6 331.5 L 766.6 337.6 L 784.4 327.1 L 796.1 342.6 L 787.7 353.1 L 814.6 356.9 Z" />
<path class="neighbor" d="M 698.3 512.3 L 697.8 530.3 L 689.1 526.5 L 690.7 546.6 L 683.6 533.6 L 682.1 520.8 L 677.4 508.8 L 666.9 494.3 L 643.9 493.3 L 646.2 503.6 L 638.3 517.5 L 627.7 512.4 L 624 516.9 L 617 514.2 L 607.3 512 L 603.4 491.4 L 594.7 472.6 L 599 457.5 L 583.6 450.8 L 589.2 441.7 L 604.8 432.4 L 586.7 419.2 L 595.6 402.2 L 615.4 413 L 627.3 414.3 L 629.5 431.6 L 653.3 435.1 L 676.5 434.7 L 690.9 439 L 679.4 460.1 L 668.2 461.6 L 660.5 475.8 L 674.1 488.7 L 678.2 472.8 L 685.1 472.7 L 698.3 512.3 Z" />
<path class="neighbor" d="M 673.9 369.1 L 684.1 377.1 L 682.3 392.4 L 661.9 393.2 L 640.8 391.5 L 625.1 395.4 L 602.4 385.9 L 601.8 380.9 L 618.4 362.3 L 631.9 356 L 649.7 361.8 L 663 362.4 L 673.9 369.1 Z" />
<path class="neighbor" d="M 584.5 366.5 L 582.6 377.2 L 585.9 393.1 L 583 403 L 562.2 403.4 L 532.1 397.6 L 512.8 395.2 L 498.4 382.5 L 464.1 379.3 L 431.5 365.3 L 408 353 L 383.7 343.5 L 393.4 320.2 L 409.3 308.8 L 419.7 302.8 L 439.7 310.5 L 464.9 326.8 L 479 330.4 L 487.4 342.4 L 506.8 347.3 L 527.1 358.3 L 555.4 364 L 584.5 366.5 Z" />
<path class="neighbor" d="M 1118.3 608.4 L 1097.8 600.7 L 1097.1 579.2 L 1109.4 567.8 L 1136.7 560.8 L 1151.1 561.4 L 1156.7 571 L 1145.7 582 L 1139.9 596.4 L 1118.3 608.4 Z M 388 4.7 L 386 -9.5 L 403.2 -16.1 L 380.7 -59.5 L 430.2 -69.5 L 443 -75 L 461 -119.8 L 510.6 -111.5 L 524.5 -122.8 L 525.7 -147.9 L 546.5 -150.2 L 565.5 -166.9 L 575.3 -168.9 L 581.8 -151.5 L 602.8 -138.2 L 638.5 -128.9 L 655.8 -108.7 L 646.1 -79.5 L 655.1 -68.7 L 684.8 -64.4 L 718.5 -60.9 L 748.7 -45.3 L 764.1 -42.6 L 775.5 -19.5 L 790.2 -4.7 L 817.8 -5.3 L 869.3 0.3 L 902.6 -3.1 L 927.3 0.6 L 964.2 15.8 L 994.5 15.7 L 1005.6 23.5 L 1034.7 10.1 L 1075 1.4 L 1112.5 0.5 L 1141.7 -8.3 L 1159.6 -21.7 L 1177.1 -30.1 L 1173.1 -38.4 L 1165.1 -48 L 1178.2 -64.1 L 1192.3 -61.8 L 1218 -56.8 L 1242.9 -70 L 1281 -79.7 L 1299.3 -96.2 L 1316.9 -103.3 L 1353.2 -106.7 L 1372.9 -103.8 L 1375.7 -112.7 L 1353 -130.2 L 1333 -138.2 L 1313.8 -129 L 1289.1 -132.9 L 1275 -129.7 L 1268.5 -139.9 L 1286.2 -164.9 L 1298.3 -183.7 L 1328.4 -174.3 L 1363.6 -190.1 L 1363.4 -201.1 L 1385.9 -227.6 L 1399.8 -235.6 L 1399.5 -249.4 L 1385.8 -255.3 L 1406.4 -267.8 L 1437.5 -272.3 L 1470.6 -273 L 1508 -265.5 L 1530 -256.3 L 1545.4 -231.1 L 1554.8 -220.4 L 1563.5 -205 L 1572.8 -180.5 L 1616.3 -172.5 L 1645.9 -154.8 L 1656 -131.3 L 1694 -131.2 L 1715.7 -141.1 L 1757 -148.5 L 1743.8 -126 L 1734.1 -116.8 L 1725.6 -89.5 L 1708.7 -65.1 L 1678.4 -69.6 L 1657 -60.7 L 1663.5 -39.3 L 1659.9 -9.8 L 1647.2 -9.1 L 1647.3 3.6 L 1631.2 -11.2 L 1621.2 2.8 L 1582.6 13.6 L 1586.5 26.8 L 1564.9 25.9 L 1553.1 18 L 1535.9 35.8 L 1508.3 49.2 L 1488 65.2 L 1453 72.5 L 1434.6 84.2 L 1407.7 91 L 1421 79.4 L 1415.8 69.7 L 1435.6 52.9 L 1422.4 39.8 L 1400.6 48.6 L 1372.4 66 L 1357 82.1 L 1332.4 83.3 L 1319.7 95 L 1332.9 111.9 L 1353.3 116 L 1354.2 127.2 L 1373.9 134.5 L 1401.9 116.7 L 1424.1 126.4 L 1440.3 127.1 L 1444.4 140.2 L 1409 147.1 L 1397.3 160.6 L 1373 173.2 L 1360.1 190.7 L 1387.1 204.4 L 1396.9 229 L 1412.1 251.9 L 1429.1 271.1 L 1428.7 289.7 L 1413 296.5 L 1418.9 309.8 L 1433.7 317.6 L 1429.8 338 L 1423.5 357.8 L 1409.5 360 L 1391.3 387.1 L 1371 419.9 L 1347.8 449.7 L 1313.4 472.8 L 1278.7 493.8 L 1250.5 496.7 L 1235.2 507.8 L 1226.6 499.7 L 1212.4 512.1 L 1177.5 524.6 L 1151 528.4 L 1142.5 554.8 L 1128.7 556.3 L 1122.1 538.2 L 1128 528.5 L 1094.5 520.5 L 1082.7 524.6 L 1057.5 518.1 L 1045.6 507.9 L 1049.6 493.5 L 1026.7 489 L 1014.7 479.6 L 993.3 492.9 L 969 495.8 L 949.1 495.7 L 935.7 501.8 L 922.7 505.4 L 926.5 534 L 913.2 533.3 L 910.9 527.5 L 910.2 517.1 L 891.9 524.4 L 881 519.8 L 862.5 510.4 L 869.7 489.7 L 853.9 484.8 L 848 461.8 L 821.6 465.9 L 824.6 436.3 L 848.2 415.4 L 849.3 394.8 L 848.5 375.7 L 837.6 369.7 L 829.3 355 L 814.6 356.9 L 787.7 353.1 L 796.1 342.6 L 784.4 327.1 L 766.6 337.6 L 745.6 331.5 L 716.8 347.4 L 694.1 366 L 673.9 369.1 L 663 362.4 L 649.7 361.8 L 631.9 356 L 618.4 362.3 L 601.8 380.9 L 599.8 361.2 L 584.5 366.5 L 555.4 364 L 527.1 358.3 L 506.8 347.3 L 487.4 342.4 L 479 330.4 L 464.9 326.8 L 439.7 310.5 L 419.7 302.8 L 409.3 308.8 L 374.6 291.3 L 350 275.5 L 343 248 L 360.9 251.3 L 361.8 238.6 L 351.8 225.8 L 354.3 205.4 L 327.5 176.1 L 286.4 166 L 279 146.8 L 260.5 135.1 L 256 127.9 L 252.3 113.7 L 253.2 104 L 238 98.3 L 229.8 100.8 L 223.4 77.7 L 230.6 71.9 L 227.1 66.1 L 251 54.3 L 268.2 49.4 L 294.7 52.7 L 304.2 36.8 L 336.2 33.8 L 345.1 23.9 L 384.5 10.4 L 388 4.7 Z" />
<path class="neighbor" d="M 883.6 901.7 L 887.9 897.2 L 908.3 908.2 L 910.3 921 L 926.8 918 L 935 907.8 L 940.7 910.1 L 955.5 925.2 L 966 941.9 L 967.4 958.8 L 964.7 970.1 L 967.2 978.7 L 969 993.5 L 977.8 1000.4 L 987.6 1022.5 L 987.1 1031 L 969.4 1032.6 L 945.8 1014.1 L 916.2 994.3 L 913.3 981.5 L 898.8 964.8 L 895.4 944.1 L 886.4 930.5 L 889.1 912.3 L 883.6 901.7 Z M 1328.4 959.9 L 1306.8 955.6 L 1278 955.6 L 1269.4 984.1 L 1259.7 992.8 L 1246.9 1027.5 L 1226.5 1032.8 L 1202.9 1025.8 L 1190.9 1028 L 1176.3 1040.7 L 1160.4 1038.9 L 1144.3 1044 L 1127.2 1029.8 L 1123 1013.1 L 1141.3 1021.7 L 1160.6 1017 L 1165.7 995.9 L 1176.3 991.1 L 1206.3 985.7 L 1224.2 966 L 1236.5 950.2 L 1247.9 963.1 L 1253.1 954.6 L 1265.1 955.4 L 1266.5 939.4 L 1267.7 927.1 L 1286.9 909.7 L 1299.5 890.2 L 1309.6 890.1 L 1322.5 902.8 L 1323.6 913.6 L 1340.1 920.6 L 1360.9 928.1 L 1359.1 937.9 L 1342.4 939.1 L 1346.8 951.3 L 1328.4 959.9 Z" />
<path class="lake" d="M 995.7 752.7 L 994.7 751.9 L 993 750.7 L 991.5 750.6 L 987.9 749.2 L 984.9 746.6 L 984 743.6 L 981.6 743.2 L 978.8 741.7 L 976.6 739.7 L 975.3 737.4 L 974.5 735.3 L 973.9 733.2 L 974.7 732.1 L 977.5 732.5 L 980.9 733.9 L 983.9 737.4 L 986.4 742.2 L 987.3 744.2 L 988.1 744.9 L 990.7 744.7 L 992.4 745.2 L 993.1 747.3 L 993.1 749.1 L 993.2 749.4 L 993.9 749.8 L 995.3 750.5 L 995.4 751.2 L 995.6 751.8 L 996.2 752.5 L 995.7 752.7 L 995.7 752.7 L 995.7 752.7 L 995.7 752.7 Z" />
<path class="lake" d="M 900.3 143.2 L 900.1 143.9 L 899.5 144.8 L 899.5 146.6 L 899.1 148.7 L 897.1 149.5 L 894.5 148.9 L 892.2 147.4 L 887.1 147.3 L 880.4 146.5 L 877.1 144.9 L 874 142.1 L 872.7 140.7 L 873.5 139.7 L 875.5 139.7 L 876.9 139.5 L 877.3 138.7 L 876.6 136.8 L 876.1 134.7 L 877.4 133.9 L 880.4 133 L 884.1 133.4 L 888.3 134.7 L 892.6 137.8 L 896.1 140.9 L 900.3 143.2 L 900.3 143.2 L 900.3 143.2 L 900.3 143.2 Z" />
<path class="lake" d="M 640.1 300.3 L 639.3 299.1 L 638.8 296 L 638.7 292.2 L 640.3 291.4 L 643.4 292 L 645.9 292.7 L 647.8 292.4 L 648.4 291.6 L 649.3 291 L 653.1 291.3 L 655.1 290.3 L 655.9 290.3 L 656.8 291.2 L 656.8 292.4 L 654.8 293.6 L 652.6 295.5 L 649.3 297.4 L 646.4 298.5 L 640.1 300.3 L 640.1 300.3 L 640.1 300.3 Z" />
<path class="lake" d="M 614.4 268.6 L 613.7 268.7 L 612.8 269.7 L 611.8 271.4 L 609.9 273.4 L 607.9 273.5 L 606.2 273.2 L 605.1 272.8 L 604.9 272 L 605.2 270.9 L 604.7 270.2 L 602.7 270.3 L 600.6 270.6 L 598.6 270.2 L 596.7 268.5 L 595.7 267.3 L 596.7 266.4 L 599.1 266.7 L 600.5 267.6 L 601.2 267.7 L 601.8 267.4 L 603.1 266.2 L 605.7 265.5 L 609.5 265.6 L 613.1 266.6 L 614.6 267.8 L 614.4 268.6 L 614.4 268.6 L 614.4 268.6 Z" />
<path class="lake" d="M 621.8 126.1 L 619.3 126.3 L 615.6 125.8 L 612.2 125.2 L 610.1 125 L 608.9 124.4 L 608.5 123.8 L 610.2 123.5 L 613.4 123.1 L 616.4 122.6 L 618.7 122.7 L 620.6 123.1 L 621.9 123.6 L 622.6 124.1 L 622.5 124.6 L 622.5 125.3 L 622.6 125.7 L 621.8 126.1 L 621.8 126.1 L 621.8 126.1 L 621.8 126.1 Z" />
<path class="lake" d="M 953.4 600.2 L 952.1 600.2 L 949.4 600.9 L 948.3 601.7 L 947.6 602.1 L 946.8 601.4 L 945.7 599.4 L 945.1 598 L 944.6 596.6 L 944.1 594.7 L 944.6 594.4 L 945.5 595 L 946 596 L 947 596.3 L 947.4 596.5 L 947.9 596.8 L 949 596.9 L 950.1 597.1 L 950.3 598.4 L 951.2 599.1 L 952.7 599.6 L 953.6 599.8 L 953.8 599.8 L 953.4 600.2 L 953.4 600.2 L 953.4 600.2 Z" />
<path class="lake" d="M 654.8 340.3 L 653.7 340.1 L 653.2 340.2 L 652.9 340.2 L 652.4 340.1 L 651.7 339.9 L 650.7 340.5 L 650.3 341.5 L 650 341.8 L 649.4 341.3 L 648.2 341.8 L 647.3 342.4 L 646.2 343.5 L 645.6 343.7 L 644.9 343.7 L 644.2 343.3 L 643.5 342.5 L 642.8 341.9 L 642.7 341.5 L 642.9 341.2 L 643.3 341.3 L 643.8 341.7 L 644.2 341.9 L 644.7 341.9 L 645.5 341.6 L 646.3 340.8 L 647 339.9 L 647.7 339 L 648.3 338.1 L 648.1 337.2 L 648 336.2 L 647.8 335.3 L 647.2 334.6 L 646.2 334.2 L 644.8 334.3 L 643.4 334.8 L 642.1 335.6 L 641.2 336.1 L 641.1 335.7 L 642.1 335 L 644.1 333.7 L 645.5 333.1 L 647.3 333.6 L 648.8 334.4 L 649.7 335.2 L 649.6 335.7 L 649.5 336.1 L 649.5 336.6 L 649.7 337.1 L 650.7 338.1 L 651.2 338.6 L 652.2 338.7 L 652.6 338.1 L 653.4 337.8 L 654.5 337.9 L 655.6 338.3 L 656.3 339 L 656.2 339.6 L 656.5 340.8 L 656.3 341.1 L 655.4 340.6 L 654.8 340.3 L 654.8 340.3 L 654.8 340.3 L 654.8 340.3 Z" />
<path class="lake" d="M 664.4 173.6 L 664.1 174.1 L 663.6 174.8 L 663.2 175.2 L 660.6 174.8 L 657.6 174.3 L 656 173.2 L 655.2 172.6 L 655.3 172.3 L 656.3 172.1 L 657.3 172.2 L 659.4 172.5 L 661.5 172.6 L 662 172.3 L 663.3 172.7 L 664.4 173.6 L 664.4 173.6 L 664.4 173.6 L 664.4 173.6 Z" />
<path class="lake" d="M 828.6 192.5 L 828 192.9 L 826.5 192.8 L 825.2 192.7 L 824.4 192.8 L 823.8 192.7 L 823.7 193.1 L 823.5 193.6 L 822.6 193.7 L 821.5 193.5 L 820.8 192.8 L 820.1 191.5 L 820.3 190.9 L 821 190.2 L 822.1 189.6 L 822.6 189 L 822.4 188.4 L 822.7 187.7 L 823.6 187.1 L 824.8 186.4 L 825.5 186.2 L 826.3 187.6 L 826.4 188.9 L 826.5 190.1 L 827.6 191.4 L 828.6 192.5 L 828.6 192.5 L 828.6 192.5 L 828.6 192.5 Z" />
<path class="lake" d="M 818.1 189 L 818 189.4 L 816.8 190.5 L 815.5 191.8 L 813.7 192.5 L 812.2 192.8 L 808.6 190.8 L 808.3 190.2 L 808 189 L 808.1 188.5 L 808.6 188.4 L 809.4 188.2 L 812.2 187.9 L 815.2 187.9 L 816.9 188.5 L 818.1 189 L 818.1 189 L 818.1 189 L 818.1 189 Z" />
<path class="lake" d="M 860 1003 L 860 1003.4 L 858.8 1004 L 856.4 1004.6 L 854.2 1004.7 L 852.6 1004.5 L 851.9 1003.8 L 850.3 1001.6 L 848.7 999.4 L 849.2 998.9 L 851.1 1000.4 L 853.6 1001.4 L 854.6 1001.2 L 855.2 1000.7 L 854.4 999.3 L 852.1 996.5 L 850.5 995.1 L 849.5 995.2 L 848.7 996.1 L 848 997.2 L 847.5 997 L 846 995 L 844.6 992.7 L 844.7 991.8 L 845.7 991.4 L 847.5 991.5 L 849.1 992 L 851.2 993.3 L 853.2 995 L 854.4 996.7 L 855.9 998.9 L 857.5 1001.2 L 859 1002.4 L 860 1003 L 860 1003 L 860 1003 L 860 1003 Z" />
<path class="lake" d="M 641.5 225.3 L 641.5 225.3 L 641.5 225.3 L 641.5 225.3 L 641.3 227.5 L 639.5 229.3 L 637.7 230.3 L 634 229 L 632.3 228.8 L 631.6 227.5 L 632.7 227.3 L 636.1 228 L 638.7 226.6 L 638.5 224.2 L 638.7 222.5 L 639.5 220.9 L 641.5 225.3 Z" />
<path class="lake" d="M 624.2 226.7 L 624.2 226.7 L 624.2 226.7 L 624.2 226.7 L 625.8 226.7 L 627.3 226.4 L 628.4 225.8 L 629.9 225.3 L 630.7 226.4 L 629.5 229 L 628.7 230.2 L 627.2 232 L 626.6 231.3 L 626.1 228 L 624.8 227.2 L 624.2 226.7 Z" />
<path class="lake" d="M 668.2 264.7 L 668.2 264.7 L 668.2 264.7 L 668.2 264.7 L 667.4 263.6 L 667.1 261.9 L 667.8 260.6 L 669.3 260.1 L 669.8 261.4 L 669.7 264.3 L 669.4 264.8 L 668.2 264.7 Z" />
<path class="country" d="M 884.3 552.9 L 870 558.7 L 855.4 569.5 L 837.8 570.7 L 826.4 597.7 L 815.9 602.2 L 827.9 624.2 L 843.8 642.4 L 854 658.9 L 844.9 680.6 L 836.3 685.3 L 842.2 697.8 L 858.9 717.7 L 861.7 731.6 L 861.4 743.2 L 871.1 766 L 857.4 789.3 L 845.3 815 L 842.9 796.4 L 850.6 777.3 L 842.2 762.5 L 844.2 735.3 L 834 722.3 L 825.9 692.4 L 821.4 660.8 L 810.6 640.1 L 794.1 652.7 L 765.7 670.5 L 751.7 668.3 L 736.2 662.4 L 744.8 631.4 L 739.6 608 L 720 579.2 L 723.1 570.2 L 708.4 567 L 690.7 546.6 L 689.1 526.5 L 697.8 530.3 L 698.3 512.3 L 710.6 506.4 L 708 495.8 L 713.6 487.3 L 714.6 461.4 L 734.1 467.1 L 745.3 446.5 L 746.5 434.3 L 760.3 413.4 L 759.6 399.1 L 791.9 381.8 L 809.8 386.3 L 807.8 370.9 L 816.5 366.3 L 814.6 356.9 L 829.3 355 L 837.6 369.7 L 848.5 375.7 L 849.3 394.8 L 848.2 415.4 L 824.6 436.3 L 821.6 465.9 L 848 461.8 L 853.9 484.8 L 869.7 489.7 L 862.5 510.4 L 881 519.8 L 891.9 524.4 L 910.2 517.1 L 910.9 527.5 L 889.7 543.7 L 884.3 552.9 Z" />

<path class="river" d="M 813.7 192.5 L 812.7 191.2 L 811.3 190.6 L 808.3 190.2 M 825.5 186.2 L 824.3 189.4 L 822.9 190.7 L 820.1 191.5" />
<path class="river" d="M 819.4 420.9 L 819.2 421.1 L 819.3 421.7 L 819.1 423.6 L 817.7 428 L 816.3 430 L 815 429.6 L 813.8 430.6 L 812.7 433 L 812.7 434.6 L 813.8 435.4 L 813.7 435.9 L 812.4 436.1 L 811.9 436.8 L 812 437.9 L 811.3 438.9 L 809.4 440.1 L 807.8 442.5 L 807.8 444.5 L 808.8 446.9 L 809.4 449.6 L 809.5 452.6 L 810 454.7 L 811.1 456 L 811.4 457.1 L 811 458 L 809.3 458.9 L 806.2 459.8 L 803.8 459.2 L 801.9 457.1 L 799.9 455.7 L 797.6 454.9 L 795.5 454.8 L 793.4 455.5 L 791.5 457.1 L 789.7 459.7 L 788.7 461.9 L 788.5 464.7 L 783.6 472.1 L 781.6 479.4 L 780.9 489.2 L 780.2 494.5 L 779.4 495.3 L 779.5 496.8 L 780.7 499 L 781.1 501 L 780.7 502.7 L 780.9 503.9 L 781.5 504.7 L 782 507.6 L 782.3 512.7 L 781.7 515.7 L 780.1 516.5 L 778.4 516.5 L 776.7 515.6 L 774.2 515.2 L 770.9 515.3 L 768.5 516.6 L 766.9 518.9 L 765.8 521.7 L 765.1 525.1 L 764.3 526.9 L 763.2 527.4 L 760.8 529.7 L 758 531.2 L 754 532.6 L 752 534.7 L 752 537.6 L 751.3 540.1 L 750 542 L 750.5 545.8 L 752.9 551.4 L 754.2 555.7 L 754.3 558.8 L 755.4 561.6 L 758.5 565.6 L 760 567.2 L 760.7 570.6 L 761.2 576.2 L 760.9 581.4 L 759.9 586.2 L 760 589.7 L 761.2 592.1 L 761 594.1 L 759.3 595.8 L 758.4 597.3 L 758.1 598.7 L 760 601.4 L 764 605.5 L 766.5 608.8 L 767.3 611.3 L 767.8 614.4 L 767.8 617 L 767.9 618.3 L 768.3 619.8 L 768.6 620.9 L 769.9 622.3 L 770.5 623.7 L 770.3 625.1 L 771 626.4 L 772.6 627.4 L 772.8 628.6 L 771.7 630.1 L 771.5 632 L 772.3 634.4 L 772.1 636.2 L 771 637.4 L 770.8 638.9 L 771.5 640.8 L 770 642.4 L 768.5 643 L 766.6 643.7 L 764.7 645.3 L 764.5 647.2 L 762.4 650.3 L 756.3 657.1 L 755.3 658.1 L 753.8 658.8" />
<path class="river" d="M 625 455.1 L 624.3 460 L 624.2 464.3 L 625.1 466.9 L 628.2 470.4 L 631.3 472.9 L 633.3 474 L 638.2 476.9 M 625 455.1 L 626.7 459.1 L 629.6 461.3 L 634.4 464.1 L 636.8 466.7 L 636.9 469 L 637.6 470 L 638.8 469.7 L 640.4 470.7 L 643.4 473.8 L 645.5 475 M 766.4 363.3 L 767.6 366.3 L 765.7 368.3 L 761.2 370.2 L 759.4 370.9 L 759.1 371.3 L 759.2 371.4 L 759.5 371.5 L 759.9 371.8 L 759.9 372.3 L 758.6 373 L 755.8 373.7 L 753.4 374.8 L 751.5 376.2 L 749.6 378.1 L 747.8 380.3 L 747.2 381.4 L 746.4 382.5 L 745.6 383.7 L 745.4 385.1 L 744.4 386.6 L 742.6 388 L 739.8 389.6 L 736.3 391.3 L 734.5 391.7 L 732 391.7 L 725.3 395.1 L 716.6 394.9 L 712.6 395.5 L 710.5 396.6 L 706.7 397.5 L 701.2 398.1 L 697.9 398.9 L 696.9 399.9 L 695.1 400.4 L 692.5 400.2 L 689.3 401 L 685.3 402.9 L 683.3 404.4 L 683 405.3 L 680.6 406.6 L 672.6 409.3 L 670.2 409.7 L 667.4 409.6 L 662.7 408.8 L 660.3 408.3 L 657.8 408.6 L 654.4 409.6 L 650.5 409.5 L 646 408.3 L 640.4 409 L 633.7 411.8 L 628.7 415.9 L 625.5 421.3 L 624 426.1 L 624 430.3 L 623.5 434.2 L 622 437.7 L 621.8 439.7 L 622 441 L 624.7 447.2 L 625.2 453.1 L 625 455.1" />
<path class="river" d="M 977.7 346.7 L 980 347.7 L 983.8 347.9 L 989.8 347.5 L 993.7 346.4 L 995.5 344.7 L 996.9 343.9 L 997.7 343.5 L 1000.2 343 L 1002.3 343 L 1003.7 343.7 L 1004.9 343.6 L 1006.1 343.6 L 1006.7 344 L 1007.5 344.8 L 1008.7 345.3 L 1009.6 345.1 L 1010.2 344.2 L 1011.6 343.7 L 1013.8 343.8 L 1015.2 343.3 L 1015.8 342.2 L 1017 341.5 L 1019 341.1 L 1020.1 340.5 L 1020.8 340.4 L 1021.9 340.8 L 1023.3 341 L 1025 340.5 L 1026 340.7 L 1026.5 341.9 L 1027.1 342.4 L 1027.9 342.5 L 1028.5 342.1 L 1028.7 341.3 L 1028.3 340.5 L 1027.4 339.8 L 1027.3 338.9 L 1028.1 337.8 L 1030.1 336.9 L 1033.3 336.4 L 1035.1 335.3 L 1035.3 333.5 L 1037.7 331.6 L 1042.3 329.3 L 1044.4 327.7 L 1044 326.8 L 1044.5 325.5 L 1045.7 323.7 L 1046.9 323.1 L 1047.9 323.8 L 1049.4 324 L 1051.5 323.7 L 1053.8 322.2 L 1056.4 319.3 L 1058.5 318.7 L 1060.2 320.4 L 1062.3 320.9 L 1065 320.4 L 1066.9 319.1 L 1067.9 317 L 1069.7 316.1 L 1072.3 316.6 L 1077.5 312.3 L 1089.1 298.9 L 1091.2 296.1 L 1091.9 294.5 L 1091.8 293.2 L 1092.5 292.1 L 1093.8 291.1 L 1100.3 290 L 1117.9 288.2 L 1120 287.5 L 1121.4 287.6 L 1122.6 288.2 L 1124.9 288 L 1128.5 287.1 L 1131 286.9 L 1132.5 287.5 L 1135 287.6 L 1138.5 287.3 L 1143.2 287.9 L 1152.1 290.4 L 1155.7 292.1 L 1157.5 292.5 L 1158.8 292.2 L 1160.4 292.7 L 1162.1 293.9 L 1164.1 296.6 L 1166.4 300.7 L 1168 303 L 1169.1 303.2 L 1169.4 303.8 L 1169.1 304.6 L 1169.2 305.5 L 1169.8 306.2 L 1170.7 306.2 L 1171.7 305.6 L 1174.8 303.7 L 1176.9 302.8 L 1177.9 302.9 L 1179.2 303.7 L 1180.6 305.3 L 1182.8 306.1 L 1185.9 306 L 1187.6 306.5 L 1188 307.4 L 1187.7 308.6 L 1186.8 310.3 L 1187.7 311.7 L 1190.5 312.9 L 1191.5 315.2 L 1190.9 318.6 L 1191.6 319.9 L 1193.7 319.3 L 1195 318.6 L 1195.6 318.8 L 1196.2 319.3 L 1196.5 319.6 L 1197.1 319.6 L 1197.2 319.3 L 1197.8 318.7 L 1199.1 318.4 L 1199.9 318.8 L 1199.7 319.1 L 1200 319.6 L 1200.9 319.8 L 1201.9 320 L 1203.5 319.4 L 1204.9 319.9 L 1205.3 321.1 L 1204.9 321.7 L 1204.3 323.4 L 1204.5 325.2 L 1205.2 325.7 L 1206.1 325.8 L 1206.8 326 L 1207.2 326.4 L 1207.7 326.7 L 1208.8 327 L 1209.6 326.8" />
<path class="river" d="M 883.2 238.3 L 885.6 241 L 887.5 242.4 L 890.7 243.9 L 894.2 247.7 L 896.8 249.8 L 899.9 251.3 L 901.5 252.7 L 901.5 254.2 L 902.5 255.3 L 904.5 256 L 905.7 258.1 L 906.4 263.2 L 911.8 267.5 L 917 268.4 L 923.8 267.4 L 928.4 267.8 L 930.9 269.7 L 932.4 272.3 L 933 275.5 L 932.8 277.6 L 931.7 278.7 L 931.5 279.7 L 932.3 280.5 L 931.7 282 L 929.7 284 L 928.6 285.8 L 928.3 288.8 L 928.5 290.3 L 929.6 292.3 L 931.8 294.7 L 932.9 297 L 933.1 299.2 L 934 302.2 L 935.7 306.1 L 936.3 309 L 935.9 311 L 936.1 312.6 L 936.8 313.9 L 936.8 317.4 L 936 323.1 L 936.6 327.4 L 938.6 330.5 L 941.4 331.5 L 946.8 329.7 L 950.4 330.6 L 951.9 331.4 L 952.4 332.5 L 953.4 332.5 L 954.7 331.4 L 955.9 331.2 L 957 331.9 L 958 331.9 L 958.8 331.2 L 960.2 331.2 L 962.1 331.9 L 963.4 331.9 L 964.2 331.1 L 965.4 330.6 L 967.1 330.5 L 969.1 331.1 L 971.3 332.5 L 972.5 332.5 L 972.8 331.2 L 972.4 330.4 L 971.3 330.1 L 970.7 329.4 L 970.4 328.4 L 971.3 327 L 972.5 326 L 973.4 325.3 L 974.4 325" />
<path class="river" d="M 740.4 330.7 L 744.6 327.4 L 747.5 326.3 L 750.4 326.2 L 752.6 325.4 L 753.9 323.9 L 754.4 322.5 L 754.2 321.2 L 755.4 320.2 L 758.2 319.6 L 759.6 318.6 L 759.7 317.1 L 760.7 316.5 L 762.8 316.7 L 763.8 317.1 L 763.7 317.8 L 764.3 318.4 L 765.5 318.9 L 766.3 321.1 L 766.9 325.1 L 766.1 328.1 L 763.9 330.2 L 761.2 331.9 L 758.1 333.4 L 755.1 336.2 L 752.2 340.1 L 751.7 342.2 L 753.5 342.7 L 755.5 344.6 L 757.8 348.2 L 758.9 350.8 L 758.8 352.4 L 758.2 354 L 756.9 355.5 L 756.5 356.9 L 757 358.4 L 758.7 359.1 L 761.5 359.2 L 763.7 360.2 L 766.4 363.3" />
<path class="river" d="M 618.6 506.5 L 617.1 501 L 615.8 498.8 L 614 497.9 M 614 497.9 L 613 499 L 612.9 502.2 L 613.7 505.7 L 615.3 509.4 L 616 511.9 L 615.3 514.1 L 615.3 516.2 L 614.9 518.7 L 615.3 520.3 M 592.5 488.7 L 591.1 491.7 L 590.2 495 L 590.1 497.6 L 588.7 499.6 L 586.1 501 L 584.4 503.1 L 583.7 507.9 M 592.5 488.7 L 594.5 489 L 596.4 489 L 598.5 489.5 L 600.4 490.5 L 602 491.9 L 602.6 493.3 L 602.1 494.7 L 602.6 495.9 L 604.2 496.9 L 605.8 500.6 L 607.7 506.5 L 607.9 508.7 L 607.8 511 M 633.3 474 L 633.9 479.9 L 634.7 482.1 L 636 483.2 L 637.2 483.9 L 637.6 484.9 L 638.1 485.5 L 639 486.2 L 639 487 L 639.4 488 L 640.5 489.4 L 640.5 491.5 L 641.3 494 L 642.4 494.6 M 609.2 463.6 L 612 468.2 L 614 470.1 L 616 471 L 617.7 472.4 L 619 474.1 L 619.5 475.3 L 619.2 475.9 L 619.7 476.3 L 620.9 476.5 L 621.4 477.3 L 621.4 478.8 L 621.9 480 L 622.3 480.9 L 622.4 482.1 L 623 482.8 L 624.2 483.6 L 624.5 485 L 625.6 487.9 L 629.6 492.4 L 631.7 496.2 L 631.8 499.3 L 631.1 501.7 M 609.2 463.6 L 611.5 465.1 L 613.5 465.1 L 616 465.9 L 618.9 467.3 L 621.6 467.8 L 625.2 467.2 M 591.4 453.7 L 594.2 456.8 L 594.8 458.2 L 594.7 459.2 L 595.3 460.2 L 596.9 460.9 L 597.6 461.9 L 597.4 463.1 L 598.7 464.2 L 601.6 465.2 L 603.1 467 L 603.2 469.6 L 602.4 471.7 L 600.8 473.4 L 600.6 475.1 L 601.8 476.8 L 602.8 477.4 L 603.6 477.8 L 604.1 478.6 L 604.6 479.3 L 606.2 480.1 L 606.5 481.8 L 607.2 483.7 L 608.7 485.6 L 609.3 487.4 L 609 489.1 L 609.3 491.1 L 610.3 493.1 L 611.7 494.7 L 613.2 495.7 L 613.4 495.8 L 613.3 496.4 L 614 497.9 M 591.4 453.7 L 594 454.7 L 597.6 455.2 L 599.6 456.5 L 600 458.5 L 600.7 459.8 L 601.6 460.2 L 602.9 460.1 L 604.6 459.5 L 606.7 460.7 L 609.2 463.6 M 579.5 442.8 L 580 446.7 L 582 449.8 L 585.9 453.7 L 587.4 457.5 L 586.7 461.4 L 586.6 464.8 L 587.2 467.6 L 586.9 469.9 L 586.1 470.9 L 586.8 472.5 L 588.3 473.7 L 589.1 474.8 L 590.1 475.1 L 590.5 476.9 L 590.3 480 L 590.9 482 L 592.2 482.7 L 593.2 483.7 L 593.6 485 L 593 487.7 L 592.5 488.7 M 579.5 442.8 L 580.2 444.6 L 581.5 446.8 L 583.5 449.6 L 585.1 451.2 L 587.1 451.9 L 588.7 451.4 L 589.9 452 L 591.4 453.7 M 377.5 291.2 L 377 292.5 L 377.2 293.7 L 378 295.4 L 378.1 296.4 L 377.4 297.2 L 375.2 299.8 L 373.2 300.4 L 370.8 299.7 L 368.3 300.5 L 364.4 304.1 L 362.3 305.9 L 360.5 306.3 L 358.2 305.9 L 355 306.1 L 351 306.9 L 348.3 308.4 L 346.9 310.5 L 344.5 311.2 L 341.2 310.3 L 338.6 311.1 L 336.6 313.5 L 335.8 316.2 L 336.1 319.2 L 335 321.6 L 332.5 323.3 L 332.1 326.1 L 333.7 330.1 L 334.2 333.9 L 333.6 337.4 L 334 341.3 L 335.9 347.9 L 337.6 350.4 L 338.3 352.3 L 338.6 354.6 L 340 357.1 L 342.3 359.7 L 346.6 362.7 L 352.9 366.1 L 357.2 367.8 L 359.3 367.9 L 360.7 368.7 L 361.3 370.3 L 362.9 371.4 L 365.5 372 L 367.7 372.9 L 369.5 374.2 L 371.3 376.7 L 373.1 380.5 L 374.8 383 L 377.5 384.8 L 379.6 385.3 L 381.5 387.8 L 383.9 392.5 L 387.5 397.2 L 392.3 401.9 L 395.1 405.5 L 396 407.8 L 397.8 409.9 L 400.5 411.7 L 403.2 412.5 L 406 412.1 L 409.6 413.7 L 414.1 417.3 L 416.4 419.8 L 416.5 421.1 L 418 422.2 L 420.8 423.2 L 422.7 424.3 L 423.7 425.4 L 425.4 425.9 L 427.9 425.7 L 429.2 426.2 L 429.1 428.1 L 432.6 430.6 L 434.5 431.3 L 436.1 431 L 436.9 431.6 L 436.9 431.9 L 437.2 432.3 L 437.5 432.4 L 437.9 432.2 L 438.4 431.8 L 439 431.9 L 439.5 432.6 L 440.1 432.7 L 441 432.2 L 442.4 432.5 L 444.3 433.8 L 445.3 433.8 L 445.6 433.3 L 446.1 432.9 L 447 432.9 L 451.2 434.8 L 453.5 434.8 L 455.6 433.7 L 456.9 432.4 L 457.3 431 L 458.4 430.1 L 460 429.8 L 460.5 429 L 459.9 427.7 L 460 426.6 L 460.8 425.6 L 462.6 425.4 L 465.4 425.9 L 467.5 426.7 L 468.7 427.3 L 469.4 426.8 L 469.4 426 L 469.5 425 L 471.5 423.8 L 473.3 423.2 L 474.3 423.6 L 475.3 424.8 L 476.6 425.4 L 478.2 425.3 L 480.5 424 L 483.6 421.3 L 485.8 420.3 L 487.2 421 L 488.6 420.9 L 490.1 419.8 L 492.2 419.7 L 495 420.6 L 497.4 420.7 L 499.3 419.9 L 502.2 419.7 L 506 420 L 509.5 421.3 L 512.5 423.6 L 515 424.8 L 516.8 425 L 517.9 424.9 L 519 424.8 L 520.4 424.8 L 521.9 426 L 523.9 426.5 L 526.2 426 L 528.5 426.8 L 531 429 L 533.9 430.3 L 537.4 430.8 L 540.8 429.9 L 544 427.5 L 545.8 427.2 L 546.1 429.1 L 546.9 430.5 L 548.2 431.5 L 550.1 431.4 L 552.5 430.2 L 555.6 430.4 L 559.4 431.9 L 562 431.7 L 563.4 429.9 L 565.3 428.8 L 567.6 428.5 L 569.4 429.2 L 570.8 430.9 L 572.6 432 L 574.8 432.5 L 576 433.6 L 576 435.3 L 577.1 436.8 L 579.3 438.1 L 580.1 439.5 L 579.5 441.1 L 579.5 442.8" />
<path class="river" d="M 1044.4 556.1 L 1041.1 554.7 L 1039.6 554.5 L 1038.6 554.9 L 1038.2 554.7 L 1038.3 553.9 L 1038 553.4 L 1037.3 553.2 L 1036.3 551.7 L 1035.1 549.1 L 1034.1 547.8 L 1033.3 547.9 L 1032 546.7 L 1030.2 544.3 L 1029.1 541.8 L 1028.8 539.3 L 1027.3 537.1 L 1024.6 535.3 L 1022.1 534.3 L 1019.9 534.1 L 1018.4 533.3 L 1017.1 531.1 L 1014.6 531.5 L 1013.3 530.8 L 1012.5 529.1 L 1011.8 528.6 L 1011.4 529.4 L 1009.4 527.6 L 1005.8 523.3 L 998.7 516.5 L 982.7 502.8 L 968.4 490.8 L 960.5 485.3 L 954.1 482.4 L 946.8 479.5 L 934.4 475.5 L 928.7 470.9 L 925.1 467 L 921.5 462.2 L 919.1 458.2 L 918 455 L 916.7 452.5 L 915.2 450.7 L 913.7 449.9 L 912.4 449.9 L 909.4 447 L 904.7 441.1 L 901.7 438.3 L 900.4 438.6 L 897.5 437.9 L 892.9 436.2 L 890.2 434.6 L 889 432.5 L 886 427.3" />
<path class="river" d="M 813.7 192.5 L 820.1 191.5 M 825.5 186.2 L 829.8 186.4 L 832.2 187.6 L 834 189.9 L 836.4 191.6 L 839.4 192.6 L 841 193.5 L 841.3 194.8 L 841.5 196.6 L 841 197.7 L 840.1 198.6 L 840.9 200.1 L 843.2 202.3 L 845.5 203.7 L 848 204.3 L 849.3 203.9 L 849.5 202.7 L 850.2 201.9 L 851.7 201.6 L 853.7 201.9 L 856.5 202.7 L 857.9 205.9 L 858 211.4 L 859.5 215.5 L 862.6 218.4 L 864.5 219.7 L 865.4 219.6 L 866 219.1 L 866.2 218.2 L 867.4 218.1 L 869.6 218.9 L 871.9 219.1 L 874.5 218.6 L 878.2 219.8 L 883 222.7 L 886.2 223.3 L 887.9 221.9 L 888.4 220.7 L 889.7 219.5 L 892.3 218.5 L 896.1 216.3 L 898.7 215.3 L 900 215.2 L 902.1 216.5 L 905 219 L 906.7 219.3 L 907.1 217.4 L 909.5 217.7 L 914 220.3 L 918.5 221.5 L 923 221.4 L 926.7 223.1 L 929.4 226.6 L 931.6 228.7 L 933.1 229.5 L 936.3 229.1 L 941.1 227.6 L 943.5 226.3 L 943.5 225.4 L 942.7 224.5 L 941.1 223.6 L 940.3 222.5 L 939.7 220.3 L 939.3 219.8 L 938.6 218.4 L 936.6 216 L 934 214.4 L 930.8 213.8 L 927.4 212.2 L 923.6 209.8 L 919.4 208 L 914.7 206.6 L 911.7 204.7 L 910.5 202.2 L 908.6 200.6 L 906 200 L 904.2 198.6 L 903.4 196.5 L 901.8 195.7 L 899.5 196.3 L 897.2 195.7 L 894.9 194.1 L 892.8 193.1 L 890.8 192.8 L 889.1 190 L 887 182.4 L 887.9 181.4 L 887.4 180 L 885.6 177.8 L 885.8 174.9 L 887.8 171 L 889.8 169.1 L 891.7 169 L 895.1 166.7 L 900 162.2 L 903.9 159.9 L 906.7 159.8 L 908.2 160.1 L 908.6 160.6 L 910.8 161.2 L 915 161.8 L 918.8 161.3 L 922.2 159.6 L 925.5 159.6 L 928.8 161.3 L 931.3 163.5 L 933 166.3 L 936.1 167.3 L 940.3 166.6 L 946.7 166.9 L 955.1 168.3 L 960.9 168.1 L 963.9 166.5 L 964.4 165.1 L 962.2 164.2 L 962.8 162.4 L 966.1 160 L 970.4 159.5 L 975.7 161 L 979.3 161.7 L 981.3 161.6 L 982.2 160.8 L 982 159.5 L 983.2 157.7 L 985.9 155.4 L 990.2 152.7 L 996.2 149.8 L 999.3 147.7 L 999.4 146.7 L 998.7 145.2 L 997.1 143.5 L 994.6 142.2 L 991.4 141.3 L 989.6 139.8 L 989.1 137.6 L 989.3 136.1 L 990.2 134.1 L 992.6 133.5 L 994.4 132.4 L 995.8 130.8 L 998.7 129.5 L 1005.3 128.1 L 1006.4 126.9 L 1010.2 126.4 L 1017.2 126.1 L 1022.6 125.4 L 1026.4 124.3 L 1029.1 121.9 L 1030.5 118.2 L 1032.3 115.5 L 1034.5 114 L 1036.3 111.8 L 1037.7 109 L 1039.9 106.4 L 1042.9 104 L 1044.7 101 L 1045.4 97.5 L 1047.4 93.9 L 1050.8 90.5 L 1052.7 88 L 1053.2 86.6 L 1052.6 83.9 L 1051 79.9 L 1050.4 76.4 L 1050.8 73.2 L 1050.6 69.4 L 1049.4 63 L 1057.5 56.3 L 1060.1 53.6 L 1060 52.6 L 1060.8 51 L 1062.4 48.7 L 1065.9 46.7 L 1071.4 45 L 1074.4 43.6 L 1075.1 42.5 L 1078 41.8 L 1083.2 41.6 L 1086.2 41.9 L 1087 42.7 L 1088.7 43.1 L 1091.1 43 L 1093.3 44 L 1095.2 45.9 L 1097.7 47.6 L 1100.7 49.1 L 1103.5 49.8 L 1106.2 49.6 L 1109.8 50.1 L 1114.1 51.2 L 1117.6 51.2 L 1120.3 50.2 L 1122.3 50.2 L 1123.6 51.1 L 1127.3 51.2 L 1133.4 50.4 L 1139 51.3 L 1144 54.1 L 1148.3 55.9 L 1151.7 56.7 L 1154.4 56.8 L 1156.3 56.3 L 1159.5 57.6 L 1164.1 60.7 L 1166.6 63.1 L 1167 64.9 L 1166.8 66.8 L 1165.9 68.7 L 1166 70.5 L 1167.3 72.1 L 1167.2 74 L 1165.7 76.2 L 1163.5 77.7 L 1161.7 78.1 L 1160.6 78.4 L 1160.3 79.2 L 1160.3 79.8 L 1161.2 81 L 1161.4 82.5 L 1160 85.3 L 1158.4 87.3 L 1156.6 88.5 L 1155.9 89.5 L 1156.3 90.4 L 1155.7 92.6 L 1154 96.2 L 1153.3 98.4 L 1153.7 99.5 L 1151.3 102.4 L 1146.4 107 L 1144 110.6 L 1144.2 113.2 L 1146 116.4 L 1149.5 120.1 L 1151 123.1 L 1150.4 125.3 L 1149.4 126.8 L 1148 127.6 L 1147.5 128.8 L 1147.8 130.5 L 1146.7 133 L 1143.9 136.3 L 1142.1 137.9 L 1141.2 138 L 1141 138.3 L 1141.6 138.9 L 1141.6 140.5 L 1141.1 142.9 L 1141.2 144.4 L 1142 145 L 1142.1 145.5 L 1141.5 146 L 1141.8 147.2 L 1143.2 149.3 L 1143.5 152.7 L 1142.9 157.5 L 1143.7 163.3 L 1145.8 170.1 L 1145.9 175.1 L 1142.9 179.8 L 1140.6 182.6 L 1139.3 185.1 L 1138.4 188.2 L 1138 191.7 L 1138.2 197.5 L 1143 198.5 L 1146.9 198.3 L 1151.3 197.3 L 1153.7 196.4 L 1155.7 195.3 L 1157.1 194.8 L 1158.9 193.6 L 1162.5 192.7 L 1167.7 192.1 L 1171.1 190.9 L 1172.7 189.1 L 1174.8 187.7 L 1177.5 186.6 L 1184.3 187.9 L 1195.4 191.6 L 1202.8 193.2 L 1206.7 192.6 L 1210.3 191.6 L 1213.6 189.9 L 1216.4 189.1 L 1218.6 189 L 1221.8 189.6 L 1226 190.9 L 1228.9 191.1 L 1230.5 190.2 L 1235.3 190 L 1243.2 190.7 L 1248.4 190.2 L 1251.3 189 L 1252.2 187.9 M 785.6 185.2 L 800.2 187.1 L 808.3 190.2" />
<path class="river" d="M 749.1 650.6 L 749.7 646.5 L 750.1 643.8 L 750 640.7 L 751.3 637.5 L 754 634.2 L 755.3 631.9 L 755.2 630.5 L 755.9 629.5 L 757.5 629.1 L 759.5 626.5 L 761.7 621.9 L 764.1 619.2 L 767.8 617 L 768.5 616.4 L 769.5 615.7 L 770.8 615.8 L 772.3 618.1 L 773.8 622.7 L 776 627.4 L 778.9 632.1 L 780.4 635.1 L 780.3 636.5 L 782.5 639.1 L 783.7 642.2 L 786.2 644.1 M 768.5 643 L 764.6 655.1 L 762.4 660 L 759.8 662.7 L 758.9 664.4 L 758.4 667.4 M 771.5 640.8 L 772.7 644.2 L 774.4 645.6 L 777.2 647 L 778.3 648.5 L 777.6 650.1 L 777.6 651.4 L 778.1 652.4 L 779.2 653 L 781.3 653.6 L 782.5 654.9 M 768.3 619.8 L 766.6 620.4 L 765.4 621.7 L 763.9 624.5 L 763.7 625.8 L 764.5 626.7 L 765 627.6 L 764.8 628.9 L 764.4 629.7 L 763.4 630.3 L 763.1 630.8 L 762.8 632.8 L 762.7 633.9 L 761.8 634.7 L 761.1 636.4 L 760.6 638.9 L 760.8 640.8 L 761.8 642.1 L 762 643.4 L 760.9 646.5 L 760.1 648.1 L 759.1 649 L 758 649.2 L 756.8 650.8 L 755.7 653.7 L 754.2 656.2 L 751.3 659.3 L 750.2 661.3 L 747.9 663.6" />
<path class="river" d="M 866.4 360.4 L 867.2 367.3 L 868.8 372.3 L 871.5 377.8 L 874.6 382.3 L 878.3 385.9 L 880.3 388.6 L 880.6 390.3 L 881.4 390.8 L 882.5 389.9 L 883 388.1 L 883 385.4 L 884.2 382.9 L 886.4 380.5 L 887.2 378.4 L 886.6 376.6 L 886.9 374.5 L 888.2 372.4 L 888.9 370.4 L 888.9 368.5 L 889.7 367.6 L 891.2 367.5 L 892.1 369.6 L 892.5 373.8 L 893.3 376.3 L 894.4 377 L 895.1 378.6 L 895.2 380.9 L 894.5 382.5 L 893 383.3 L 892.7 384.2 L 893.5 384.9 L 893.6 387.2 L 893 390.9 L 892.4 393 L 891.7 393.5 L 891.7 396.1 L 892.5 400.9 L 892.7 404 L 892.1 405.2 L 892.1 406.4 L 892.9 407.5 L 896 408.3 L 901.4 408.9 L 905.5 408.1 L 908.2 405.9 L 911.4 404.5 L 915.2 403.9 L 917.6 402.3 L 918.8 399.9 L 921.2 398.6 L 924.8 398.4 L 927.5 399.5 L 929.2 401.9 L 929.9 404.3 L 929.6 406.9 L 928.9 408.6 L 928 409.5 L 927.6 410.9 L 927.7 413 L 929.2 413.9 L 932.1 413.6 L 934.6 412 L 936.7 409.1 L 939.7 406.7 L 943.7 404.9 L 946 404.1 L 946.7 404.6 L 947 405.3 L 946.8 406.4 L 947.3 407.1 L 948.6 407.5 L 950.3 406.8 L 952.3 405.1 L 954.1 404.3 L 955.5 404.3 L 956.2 403.5 L 956.3 402 L 956.7 400.9 L 957.5 400.3 L 956.9 397.6 L 954.9 392.7 L 953.9 388.1 L 953.7 383.7 L 954 380.6 L 954.9 378.8 L 955.7 378.1 L 956.4 378.5 L 957.6 378.4 L 960.1 377.5 L 961.4 375.1 L 962.4 374.1 L 963.3 373.8 L 963.8 373.4 L 963.6 372.7 L 964.6 371.6 L 966.7 370.1 L 968.4 368.1 L 969.8 365.4 L 969.7 363.6 L 968.2 362.8 L 967.5 361.8 L 967.7 360.6 L 968.5 359.4 L 971.2 357.1 L 972.1 356.8 L 973 357 L 974 357.7 L 975.5 357.3 L 977.4 355.9 L 977.9 354 L 976.8 351.4 L 976.7 349.3 L 977.7 346.7 M 845 271.2 L 851.4 277.5 L 852.8 280.3 L 851.4 281.9 L 849.9 282.1 L 848.4 281 L 847.4 281.4 L 846.8 283.3 L 847.8 285.3 L 850.3 287.5 L 851.4 289.3 L 851.2 290.7 L 852.2 292.3 L 854.4 294.3 L 855.1 295.6 L 854.4 296.4 L 855 301.5 L 856.9 310.8 L 857.4 317.2 L 856.5 320.5 L 856.8 324.6 L 858.9 332.1 L 860.1 347.4 L 862 354.4 L 866.4 360.2" />
<path class="river" d="M 805 264.3 L 807.8 271.1 L 809.5 274 L 810.8 275.2 L 811.6 276.8 L 811.8 278.9 L 811.6 280.3 L 810.8 281 L 810.6 282.6 L 811.2 285.1 L 812.5 287.2 L 814.8 288.9 L 815.9 291.2 L 815.9 293.8 L 818.8 297.9 L 827.6 306.5 L 830.5 309.3 L 832.4 312.3 L 834.2 316.2 L 835.5 318.1 L 836.3 318.2 L 837.5 319.3 L 839.1 321.4 L 840.5 324.2 L 841.7 327.7 L 843.6 330.7 L 846 333.2 L 846.9 335.3 L 846.3 337 L 846.3 338.2 L 847.1 339.3 L 848.2 344.1 L 849.6 347.6 L 851.7 351.4 L 853 355.8 L 853.7 360.7 L 854.9 364.4 L 856.7 367 L 857.3 369.2 L 856.7 371 L 856.6 372.8 L 857.2 375.5 L 858.7 379 L 859 380.7 L 858.8 381.8 L 859.2 383 L 860.2 384.4 L 860.8 386.6 L 861 389.7 L 860.6 393.4 L 859.6 397.6 L 859.3 400.1 L 859.8 400.9 L 860 403.9 L 859.8 409 L 859.9 412.9 L 860.4 415.4 L 861.8 418.6 L 864.2 422.3 L 865 425.4 L 864.2 427.8 L 865 430.5 L 867.4 433.4 L 869.6 435.2 L 871.4 435.7 L 873.9 438 L 877.2 442.1 L 879.9 444.3 L 882.2 444.8 L 883.6 445.4 L 884.1 446.2 L 884.9 446.1 L 886.1 445.2 L 887.7 444.7 L 889.7 444.6 L 891.9 446.3 L 894.2 449.8 L 895.1 453.7 L 894.7 458.1 L 893.6 460.7 L 891.9 461.4 L 891.2 462.7 L 891.5 464.6 L 890.3 467 L 887.7 470.1 L 886.1 472.9 L 884.9 476.6 L 883.1 481.4 L 884.1 484.6 L 887.3 487.8 L 889.3 491.2 L 890.1 494.8 L 891.8 497.5 L 894.4 499.3 L 895.6 500.8 L 895.6 502.1 L 896.1 503.4 L 897.3 504.8 L 897.6 505.7 L 897 506.2 L 897.2 506.7 L 898.4 507.2 L 899.1 508.2 L 899.3 509.8 L 900.7 512.2 L 903.2 515.3 L 906 517.2 L 909.3 518 L 910.6 518.6 L 909.8 519 L 909.6 520.7 L 910.1 523.8 L 908.5 526.7 L 904.6 529.2 L 901.9 530.5 L 900.4 530.6 L 899 532.1 L 897.9 535.1 L 896.8 536.9 L 895.6 537.4 L 894.8 538.6 L 894.5 540.3 L 895.2 541.3 L 896.9 541.4 L 897 541.9 L 895.6 542.7 L 893.8 543 L 891.6 542.8 L 889.6 543.5 L 887.7 545.1 L 886 548.6 L 884.7 554.1 L 884.3 556.9 L 884.9 557.2 L 885.8 556.5 L 886.9 554.9 L 888.1 553.9 L 889.4 553.7 L 890.8 554.9 L 892.2 557.3 L 893.7 558.8 L 895.3 559.1 L 896.2 561.5 L 896.4 566 L 897.8 567.7 L 900.3 566.6 L 902.9 566.4 L 905.4 567.2 L 907.4 567.2 L 908.7 566.5 L 910.3 566.6 L 912 567.4 L 914.8 567.8 L 918.5 567.8 L 923.9 566.1 L 930.9 562.8 L 934.9 561.2 L 935.8 561.3 L 936.6 561.9 L 937.3 563.1 L 935 565.8 L 929.7 570 L 927 573.3 L 927 575.5 L 927.5 577.1 L 928.6 577.9 L 928.6 579.1 L 927.6 580.6 L 926.9 583.8 L 926.7 588.8 L 926.8 592 L 927.5 593.5 L 927.1 595.9 L 925.7 599.2 L 922.9 602.8 L 918.6 606.8 L 916.6 610.4 L 916.9 613.6 L 917.9 615.8 L 920.5 617.8" />
<path class="river" d="M 1005.2 773.6 L 1005.2 775.6 L 1005.8 776.5 L 1007.1 777 L 1007.5 777.6 L 1007 778.5 L 1007.5 783 L 1009 791.4 L 1014.2 799.9 L 1027.2 813.3 M 1005.2 773.6 L 1011 777.2 L 1013.1 779.4 L 1013.5 781.5 L 1013.1 783.8 L 1011.9 786.5 L 1011.4 788.9 L 1011.7 791.1 L 1012.6 792.7 L 1014.3 793.7 L 1015.4 795.2 L 1015.9 797.3 L 1018.7 800.1 L 1023.8 803.6 L 1028.4 805.8 L 1029.7 806.2 L 1034.8 807.8 M 920.5 617.8 L 923.6 616.1 L 925 614.5 L 925.8 612.5 L 926.9 611.7 L 928.3 612.2 L 930.1 611.3 L 932.3 609.1 L 934 608.1 L 935.1 608.3 L 937.2 609.6 L 940.2 612.2 L 942.9 613.7 L 945.2 614.2 L 946.4 615.2 L 946.3 616.6 L 946.9 617.5 L 948 617.9 L 948.4 617.8 L 948.3 617.1 L 949.4 616.1 L 951.6 614.7 L 953.9 613.9 L 956.2 613.7 L 957.7 612.6 L 958.7 609.9 M 958.7 609.9 L 958.7 609.9 M 958.7 609.9 L 958.7 609.8 M 958.7 609.9 L 960.1 607.8 L 961.4 606.9 L 963 606.4 L 963.4 605.7 L 962.7 604.9 L 962.7 604 L 963.6 603.1 L 965.6 602.8 L 968.6 602.9 L 972.2 603.8 L 976.2 605.4 L 978.9 606 L 980.2 605.4 L 982.6 607.9 L 986.3 613.6 L 989.5 618 L 992.1 620.9 L 994.9 623.1 L 997.8 624.7 L 999.9 626.8 L 1001.8 630.8 L 1000.4 636.4 L 1000 641.2 L 1000.2 647.2 L 1001.9 651.7 L 1005.2 654.9 L 1007.1 657.4 L 1007.6 659.3 L 1010.1 661 L 1014.7 662.4 L 1016.6 663.7 L 1015.8 664.8 L 1015.8 666.1 L 1016.4 667.6 L 1018 668.8 L 1020.5 669.8 L 1022 670.8 L 1022.4 671.9 L 1022.4 673.7 L 1021.8 676.1 L 1020.8 678 L 1019.3 679.3 L 1019.4 680.1 L 1021.3 680.3 L 1023.1 681.5 L 1026 685.3 L 1028.1 687.5 L 1029.1 689.7 L 1029.6 692.7 L 1029.3 695.5 L 1028.3 698.2 L 1027.9 701 L 1028.3 703.8 L 1028 706.7 L 1027.2 709.4 L 1027.8 711.6 L 1029.8 713.2 L 1030.9 714.6 L 1031.3 715.8 L 1031.3 717 L 1031 718.3 L 1031.2 719.5 L 1032 720.9 L 1031.5 723.1 L 1029.9 726.2 L 1029.4 728.2 L 1030.2 729.6 L 1032 733.4 L 1032 736.8 L 1030.9 741 L 1030.9 746.3 L 1031.9 752.6 L 1031 756.1 L 1028.4 756.7 L 1025.5 756.7 L 1022.3 756.2 L 1020 758.2 L 1018.6 762.7 L 1016.1 764.9 L 1012.7 764.9 L 1010.6 765.3 L 1009.9 766.3 L 1008.7 767 L 1007.1 767.2 L 1006.4 767.8 L 1006.8 768.7 L 1006.5 769.7 L 1005.6 770.7 L 1005.1 771.8 L 1005.2 773.6" />
<path class="river" d="M 974.4 325 L 975.6 325.5 L 977.2 328.8 L 978.1 330.5 L 977.9 331.1 L 979.6 332.8 L 985 336.8 L 987.7 338.5 L 988.7 339.7 L 989 341 L 990.9 342.2 L 996.9 343.9" />
<path class="river" d="M 979.5 416.4 L 977.8 418.4 L 977.3 420.3 L 977.6 424 L 978.5 429.9 L 978.1 432.9 L 976.7 435.2 L 974.2 437.2 L 968.6 439.9 L 967.6 440 L 966.8 439.5 L 966.2 438.4 L 964.6 438.1 L 961.9 438.5 L 960.6 439.8 L 960.6 441.8 L 959.7 444 L 958 446.5 L 957.8 448.2 L 958.9 449.1 L 959.1 450.4 L 958.3 451.9 L 958.4 455.3 L 960.1 463.3 L 960.7 466.6 L 961.3 467.9 L 962.2 468.3 L 963 468.1 L 963.6 467.4 L 965.8 466.8 L 969.6 466.4 L 971.7 465.5 L 972.1 464.1 L 971.9 462.9 L 971.2 461.8 L 971.2 460.6 L 972 459.5 L 973.3 458.8 L 975.1 458.3 L 977.1 456.6 L 979.2 453.8 L 981.1 452.3 L 982.7 452.3 L 985.2 451.6 L 990.3 449.3 L 994.9 444.9 L 998.5 446.9 L 1001.4 446.6 L 1005 444.5 L 1007.8 442.1 L 1010 439.5 L 1011.6 438.6 L 1012.6 439.5 L 1014.1 440 L 1016.2 440 L 1017.7 440.8 L 1018.6 442.2 L 1021 443.6 L 1024.7 445 L 1027.2 445.6 L 1028.6 445.3 L 1030 445.7 L 1031.3 446.8 L 1033 446.2 L 1035.3 443.8 L 1036.1 441.8 L 1035.6 440.2 L 1037.2 438.9 L 1041 438 L 1044.1 436.6 L 1046.8 434.9 L 1050 433.7 L 1053.3 433 L 1055 432.8" />
<path class="river" d="M 831 352.8 L 836.3 357.2 L 838.9 360.1 L 839.8 363.2 L 840 367.4 L 839 370.1 L 836.8 371.4 L 835.3 371.6 L 834.4 370.5 L 833.4 370.2 L 832.4 370.7 L 832.5 372.7 L 833.6 376 L 835.8 380.2 L 838.8 385.1 L 840.5 389.1 L 840.8 392.2 L 840.3 395.9 L 838.5 402.3 L 835.4 412.6 L 833.9 416.7 L 832.8 418 L 830.9 419.9 L 828 422.4 L 825.8 422.9 L 824.5 421.4 L 822.5 420.7 L 820.4 420.8 L 819.4 420.9" />
<path class="river" d="M 796.3 302.2 L 798.3 302.3 L 799.1 303.3 L 799.4 305.1 L 802.8 307.3 L 809.4 309.9 L 813.7 312.6 L 815.8 315.5 L 817.1 318 L 817.4 320.2 L 818.4 322.5 L 820.1 325 L 823 327.2 L 826.9 329.2 L 830.2 332.7 L 832.8 337.8 L 835.5 341.7 L 840 345.5 L 840.6 349 L 841.2 350.4 L 842 350.8 L 842.7 353.3 L 843.3 357.9 L 844.8 361.2 L 847.3 363.3 L 848.5 365.6 L 848.4 368 L 849.2 370.3 L 851.9 373.9 L 853.2 379.9 L 853.7 386.9 L 853.8 397 L 853.6 404.3 L 852.9 409 L 852.9 415.1 L 853.5 422.8 L 853.5 429.1 L 852.9 434.1 L 853.2 438.6 L 854.6 442.7 L 856 445.3 L 857.2 446.5 L 857.3 448.5 L 856.4 451.5 L 856.8 453.8 L 858.7 455.5 L 857.9 457.2 L 854.5 459 L 850.6 460.5 L 846 461.6 L 843.3 462.7 L 842.3 463.8 L 842 465.1 L 842.4 466.6 L 843.9 468.8 L 846.4 471.7 L 847.4 474.3 L 846.9 476.6 L 847.3 478 L 848.7 478.4 L 849.5 479.5 L 849.5 481 L 847.8 482.2 L 844.3 482.9 L 843.3 484 L 844.8 485.7 L 845.2 486.7 L 844.3 487.1 L 844.1 487.8 L 844.3 488.7 L 845.3 489.6 L 847.2 490.4 L 847.2 491.6 L 845.4 493.1 L 845.3 495.7 L 846.8 499.5 L 847.1 502.6 L 846.1 505 L 846.1 507.1 L 847.1 509 L 848.4 510.5 L 850 511.7 L 849.4 513.5 L 846.6 515.8 L 845.8 518.6 L 847 522.1 L 847.2 524.3 L 846.2 525.1 L 846.3 526.3 L 847.6 527.8 L 848.5 529.9 L 848.8 532.6 L 849.6 534.8 L 850.8 536.4 L 849.6 537.9 L 844.2 539.6" />
<path class="river" d="M 669.4 264.8 L 670.1 268 L 671.5 269.7 L 673.7 271 L 675.4 273.2 L 676.3 276.5 L 678.1 278 L 680.5 277.8 L 682.3 278.5 L 683.2 280.2 L 684.8 280.9 L 687 280.8 L 688.5 279.7 L 689.4 277.7 L 692.2 276.3 L 699 275.1 L 703.2 274.3 L 705.4 274.4 L 707.1 275.1 L 710.4 275.2 L 715.1 274.8 L 719.6 275 L 723.6 275.8 L 727 275.9 L 729.5 275.3 L 734.1 275.3 L 740.8 276 L 744.7 276.7 L 745.9 277.3 L 745.9 278.7 L 744.7 280.9 L 744.7 282.1 L 746 282.5 L 747.2 283.5 L 748.2 285.2 L 749.2 286.1 L 750.3 286.4 L 752 285.9 L 754.4 284.5 L 757.4 283.8 L 761 283.7 L 764 284.1 L 766.4 285 L 768.6 286.6 L 770.5 288.8 L 773.1 289.5 L 776.4 288.7 L 780.5 289 L 785.4 290.4 L 788.5 291.6 L 790 292.5 L 791.7 295.4 L 793.9 300.2 L 795.3 302.5 L 796.3 302.2" />
<path class="river" d="M 844.2 539.6 L 844 542.7 L 844.9 545.6 L 846.8 549.4 L 847.9 553 L 848.4 556.6 L 845.3 559.7 L 835 563.6 L 830 564.3 L 828.1 565.1 L 827.5 566.3 L 826.7 566.9 L 825.7 567.1 L 823.9 570.4 L 819.7 580.1 L 817.9 592.1 L 817.5 592.6 L 816.6 592.7 L 815.3 592.3 L 814.8 593.9 L 815 597.5 L 816 601 L 817.7 604.4 L 819.6 606 L 821.4 605.8 L 822.3 606.1 L 822 606.9 L 822.7 609 L 824.4 612.4 L 825 615 L 823.9 617.5 L 825.3 624.1 L 825.2 627.3 L 823.9 629.3 L 822.9 632.1 L 822.1 635.7 L 821.7 639.7 L 821.6 644.1 L 822 647.1 L 823.2 649.6" />
<path class="river" d="M 706.3 210.9 L 708.8 208.6 L 713 207.9 L 719.7 208 L 724.1 207.4 L 727.4 205.4 L 731.7 200.9 L 734.4 199.2 L 736.9 199 L 739.9 197.7 L 743.6 195.5 L 748 194.9 L 753.1 196.1 L 756.9 197.8 L 759.4 200.1 L 761.8 201.3 L 763.9 201.3 L 766.4 202.4 L 769.4 204.6 L 770.8 206.1 L 770.7 207 L 771.4 207.7 L 772.8 208.2 L 775.4 210.6 L 779.2 215.1 L 782 217.8 L 783.8 218.8 L 785.3 219.2 L 786.4 218.9 L 787 219.2 L 787.2 220 L 788.4 220.3 L 790.4 219.9 L 791.9 220.5 L 792.8 222.1 L 794.7 223.3 L 797.5 224.3 L 799 225.5 L 799.1 227.1 L 799.5 228.3 L 800.4 229.1 L 801 229.3 L 801.3 228.9 L 801.7 229.1 L 802 230.1 L 803.3 230.4 L 805.5 230.1 L 806.7 230.7 L 807 232.3 L 808.6 234.8 L 811.6 238.4 L 813.7 240.4 L 814.9 240.8 L 815.9 242.2 L 816.8 244.7 L 822.1 248.1 L 831.7 252.4 L 836.7 255.2 L 836.9 256.5 L 838.4 258.8 L 841.3 262.1 L 842.6 264.9 L 842.3 267 L 842.8 268.9 L 845 271.2" />
<path class="river" d="M 651.4 205.9 L 660.3 205.4 L 672.6 206.4 L 677.8 207.5 L 679.9 209.2 L 682.4 209.3 L 685.4 207.9 L 689.2 207.4 L 693.8 207.9 L 697 208.9 L 698.7 210.5 L 701.2 211.2 L 706.3 210.9" />
<path class="river" d="M 573 334.6 L 575.2 331.2 L 577.1 329.7 L 579.4 328.9 L 581.9 328.9 L 584.4 329.6 L 586 329.7 L 586.7 329.2 L 587.9 329.2 L 589.7 329.8 L 592.2 330 L 597.3 329.6 L 616.6 329.3 L 624 329.4 L 625.8 330 L 628 330.1 L 630.6 329.5 L 633.5 329.4 L 636.9 329.8 L 639.5 330.5 L 641.3 331.6 L 644.1 331.4 L 648 330.2 L 650.1 329.9 L 650.4 330.6 L 651.1 330.7 L 652.2 330.1 L 653.9 330 L 657.4 330.5 L 683.4 331.4 L 693.1 332.6 L 695.3 334.5 L 698.8 335.9 L 703.8 336.7 L 707 336.6 L 708.4 335.6 L 709.4 335.7 L 709.9 336.9 L 711 337.7 L 712.7 338.1 L 714.8 337.2 L 717.1 334.9 L 720.7 333.9 L 725.4 334.3 L 729.8 334.1 L 733.9 333.4 L 737.1 332.4 L 740.4 330.7" />
<path class="river" d="M 733.6 234.5 L 742.7 234.3 L 744.1 233.3 L 746.7 233.3 L 750.9 233.9 L 754.4 234.9 L 757.1 236.4 L 758.7 237.8 L 759.1 239.3 L 762.1 240.6 L 767.6 241.7 L 771 243.1 L 772.1 244.7 L 774.7 246.6 L 778.5 248.7 L 781.7 249.6 L 784.3 249.2 L 786 249.4 L 787.4 250.3 L 791 252.6 L 792.8 254.8 L 794.1 257.8 L 796.1 259.5 L 798.7 260.1 L 800.7 261.3 L 802.1 263.1 L 803.3 264.1 L 805 264.3" />
<g class="city"><circle cx="590.7216133687007" cy="499.1357671051733" r="5" /><text x="602.7216133687007" y="503.1357671051733">Kolkata</text></g>
<g class="city"><circle cx="641.6510511745784" cy="470.25477741790246" r="5" /><text x="653.6510511745784" y="474.25477741790246">Dhaka</text></g>
<g class="city"><circle cx="894.3116874789605" cy="719.5408611700764" r="5" /><text x="906.3116874789605" y="723.5408611700764">Bangkok</text></g>
<g class="city"><circle cx="977.7775469577355" cy="1030.914497566563" r="5" /><text x="989.7775469577355" y="1034.914497566563">Singapore</text></g>
<g class="city"><circle cx="676.4301090285082" cy="505.0758284593503" r="5" /><text x="688.4301090285082" y="509.0758284593503">Chattogram</text></g>
<g class="city"><circle cx="983.1316533703634" cy="296.60944759776737" r="5" /><text x="995.1316533703634" y="300.60944759776737">Chengdu</text></g>
<g class="city"><circle cx="785.5801518068944" cy="643.7192865722598" r="5" /><text x="797.5801518068944" y="647.7192865722598">Yangon</text></g>
<g class="city"><circle cx="948.8713613579536" cy="437.31379637596825" r="5" /><text x="960.8713613579536" y="441.31379637596825">Kunming</text></g>
<text class="map-title" x="80" y="105">Myanmar Physical Study Map</text>
<text class="map-subtitle" x="80" y="145">Landmark: Shwedagon Pagoda | Study terrain and water systems</text>
  <text class="footer" x="80" y="1036">Made with Natural Earth. Free vector and raster map data @ naturalearthdata.com.</text>
</svg>
