<?xml version="1.0" encoding="UTF-8"?>
<svg xmlns="http://www.w3.org/2000/svg" width="1600" height="1100" viewBox="0 0 1600 1100" role="img" aria-labelledby="title desc">
  <title id="title">Mongolia Political Study Map</title>
  <desc id="desc">Made with Natural Earth. Free vector and raster map data @ naturalearthdata.com.</desc>
  <defs>
    <linearGradient id="terrain" x1="0" x2="1" y1="0" y2="1">
      <stop offset="0%" stop-color="#6c8c53" />
      <stop offset="42%" stop-color="#d5c487" />
      <stop offset="72%" stop-color="#b88b5f" />
      <stop offset="100%" stop-color="#f1f5ee" />
    </linearGradient>
    <filter id="softShadow" x="-10%" y="-10%" width="120%" height="120%">
      <feDropShadow dx="0" dy="10" stdDeviation="12" flood-color="#0f172a" flood-opacity="0.16" />
    </filter>
    <style>
      .neighbor { fill: #ffffff; stroke: #94a3b8; stroke-width: 1.2; opacity: 0.72; }
      .country { fill: #f7f1df; stroke: #1f2937; stroke-width: 4; filter: url(#softShadow); }
      .admin1 { fill: none; stroke: #64748b; stroke-width: 1.1; stroke-dasharray: 6 7; opacity: 0.75; }
      .river { fill: none; stroke: #1d9bd1; stroke-width: 3; stroke-linecap: round; opacity: 0.88; }
      .lake { fill: #8ed1ea; stroke: #0ea5e9; stroke-width: 1.5; opacity: 0.8; }
      .city circle { fill: #ef4444; stroke: #ffffff; stroke-width: 2; }
      .city text, .terrain-label { fill: #172033; font: 700 24px system-ui, sans-serif; paint-order: stroke; stroke: #ffffff; stroke-width: 5; stroke-linejoin: round; }
      .map-title { fill: #0f172a; font: 800 46px system-ui, sans-serif; }
      .map-subtitle { fill: #475569; font: 600 24px system-ui, sans-serif; }
      .footer { fill: #64748b; font: 500 18px system-ui, sans-serif; }
    </style>
  </defs>
  <rect width="100%" height="100%" fill="#eaf3f8" />
  <rect x="40" y="40" width="1520" height="1020" rx="32" fill="#ffffff" opacity="0.54" />
  <path class="neighbor" d="M 436.3 532 L 419.4 546.7 L 401 548.8 L 400 571 L 387.6 581 L 343.7 573.7 L 327.7 613.4 L 316.3 618.4 L 272.4 627.2 L 292.3 665.8 L 277.1 671.5 L 278.9 684.2 L 265.2 680.9 L 254.1 672.9 L 221.2 670.6 L 184.5 670 L 176.4 672.5 L 144.8 663.1 L 132.2 667.7 L 128.8 680.8 L 92.3 673.2 L 77.7 676.3 L 72.7 686 L 60 690.1 L 30.8 705.6 L 21.1 721.4 L 12.8 721.6 L 6.8 711.1 L -21.4 710.4 L -26 692.2 L -36.8 692 L -35.1 669.8 L -61.7 653.6 L -99.7 655.3 L -125.7 658.6 L -146.9 638.6 L -165 630.2 L -199.4 614.3 L -203.5 612.4 L -260.6 625.5 L -259.7 707.3 L -271.1 708.3 L -286.6 690.9 L -301.6 684.7 L -326.8 689.4 L -336.6 696.7 L -337.8 691.3 L -332.4 682.1 L -336.6 674.4 L -362.3 666.8 L -372.3 646.9 L -384.5 641.3 L -385.3 634.1 L -363.7 636.2 L -362.8 620 L -344 616.4 L -324.6 619.7 L -320.6 598 L -324.6 584.3 L -346.8 585.4 L -365.6 580 L -391.3 589.7 L -412 594.4 L -423.2 590.8 L -421 579.4 L -435.1 564.6 L -451.6 565.2 L -470.4 550.1 L -457.6 533.3 L -464.1 528.8 L -446.4 504.5 L -423.6 517.3 L -420.8 501.1 L -375 477 L -340.4 476.4 L -291.5 491.8 L -265.3 500.8 L -241.8 491.4 L -206.6 491 L -178.2 502.5 L -171.8 495.9 L -140.7 496.8 L -135.1 486.3 L -171 471.1 L -149.8 460.3 L -153.9 454.2 L -132.6 448.5 L -148.6 433.3 L -138.5 425.7 L -55.5 418 L -44.7 412.5 L 10.8 404.3 L 30.7 395.1 L 70.6 399.9 L 77.6 422.9 L 100.7 417.5 L 129.2 425.1 L 127.4 437.2 L 148.6 435.9 L 204.2 415 L 196.1 421.9 L 224.4 439.1 L 273.9 495.4 L 285.7 483.8 L 316.3 496.5 L 348.1 490.8 L 360.4 494.8 L 371.1 507.6 L 386.6 511.9 L 396 521.4 L 424.6 518.4 L 436.3 532 Z" />
<path class="neighbor" d="M -259.7 707.3 L -260.6 625.5 L -203.5 612.4 L -199.4 614.3 L -165 630.2 L -146.9 638.6 L -125.7 658.6 L -99.7 655.3 L -61.7 653.6 L -35.1 669.8 L -36.8 692 L -26 692.2 L -21.4 710.4 L 6.8 711.1 L 12.8 721.6 L 21.1 721.4 L 30.8 705.6 L 60 690.1 L 72.7 686 L 79.3 688.2 L 60.7 702.6 L 77.1 710.9 L 92.9 705.4 L 119.2 717.1 L 90.8 733 L 73.9 730.9 L 64.7 731.4 L 61.6 725.3 L 66.2 715 L 36.5 720.1 L 29.5 734.4 L 19 746.6 L 0.4 745.6 L -5.3 755.3 L 11 760.6 L 15.8 777.1 L 3.3 799.6 L -13.4 794.9 L -25.8 794.7 L -25.2 781.2 L -54.7 771.7 L -77.9 760.8 L -92.3 750.4 L -117.7 735.1 L -128.6 712.2 L -136 708.2 L -160 709.2 L -168.5 704.7 L -170.8 687 L -200.7 675.3 L -219.4 688.1 L -238.3 695.8 L -234.7 707 L -259.7 707.3 Z" />
<path class="neighbor" d="M 2462.1 46.7 L 2490.4 37.5 L 2490.4 52.6 L 2466.1 53.8 L 2462.1 46.7 Z M -412 594.4 L -422.1 607.5 L -443.6 611.2 L -465.6 634.1 L -445.5 655.1 L -447.6 670 L -423.4 696.2 L -423.4 696.2 L -436.7 705.1 L -440.5 710.7 L -450.3 709.2 L -465.5 695.8 L -471.8 695 L -485.7 689.9 L -492.5 680.8 L -513.2 676.1 L -526.6 679.6 L -530.5 675.5 L -560.7 664.9 L -593.3 661.3 L -612.1 657.5 L -614.8 660.1 L -643 641.4 L -668.3 633 L -687.5 620 L -671.3 616.4 L -652.9 597.9 L -665.3 589.1 L -632.7 580.1 L -633.3 575.2 L -653.2 578.8 L -652.5 568.9 L -641 562.8 L -619.6 561.1 L -616.1 553.7 L -621 541.5 L -612 529.9 L -612.2 523.4 L -644.9 516.2 L -657.9 516.4 L -671.6 506 L -688.6 509.5 L -716.7 501.7 L -716.3 497.4 L -724.1 487.8 L -741.8 486.7 L -743.7 479.8 L -738.1 475.3 L -752.3 462.8 L -775.3 464.9 L -782 463.8 L -787.6 468.8 L -795.9 467.9 L -795.9 467.9 L -801.3 453.7 L -806.6 446.4 L -802.3 444.3 L -784.4 445.1 L -775.8 440.2 L -782.2 434.3 L -797.1 430.4 L -795.8 426.4 L -804.8 422.4 L -818.7 407.9 L -813.9 401.9 L -816.1 391.5 L -837.8 386.2 L -849.4 388.8 L -852.6 383.3 L -875.9 377.8 L -883 364.7 L -884.9 353.9 L -895.6 348.8 L -886.1 341.8 L -892.7 321.1 L -876.9 308.3 L -880.3 304.5 L -880.3 304.5 L -855.1 292.2 L -878.3 281.7 L -878.3 281.7 L -830.8 253.4 L -810.2 240.5 L -801.9 229.2 L -834.7 214 L -825.6 199.6 L -845.6 183.1 L -830.7 164.1 L -856.5 138.8 L -836 122.1 L -870 107.4 L -866.7 91.8 L -848.8 89.8 L -811.1 80.9 L -811.1 80.9 L -788.2 73.2 L -751.8 86.6 L -691.1 91.9 L -607.3 116.9 L -590.3 127.5 L -588.8 142.2 L -613.4 153.9 L -649.6 159.8 L -748.6 142.9 L -764.9 145.8 L -728.7 162 L -727.3 172.3 L -725.9 194.9 L -697.3 201.7 L -680 207.5 L -677.1 196.7 L -690.5 187.2 L -676.4 178.8 L -622.8 192.6 L -604.1 187.2 L -619 170.9 L -567.4 149.2 L -546.9 150.5 L -526.2 158.3 L -513.3 143 L -531.8 129.8 L -520.9 116.5 L -537.2 102.8 L -475.2 109.9 L -462.5 122.3 L -490.6 125 L -490.4 137.4 L -473 145 L -438.7 140.2 L -433.3 126 L -387 115.5 L -309.6 96.4 L -292.9 97.5 L -314.8 111 L -287.2 113.3 L -271.4 105.7 L -229.8 105.1 L -196.9 95.9 L -171.6 109.3 L -146.4 94.6 L -169.7 81.7 L -158.1 74.4 L -92.6 81.1 L -61.9 88.1 L 18.4 113.4 L 33.2 101.8 L 10.7 90.1 L 10.1 85.4 L -16.7 83.2 L -9.3 72.7 L -21.2 55.4 L -21.9 48.3 L 19 28.2 L 33.6 8 L 50.1 3.7 L 108.8 9.5 L 113.4 21.9 L 92.4 39.9 L 106.2 46.9 L 113.3 62.4 L 108.3 92.8 L 132.7 106.4 L 123.2 121.2 L 79.8 152.7 L 105.1 156 L 114 148 L 138.3 142.3 L 144.2 131.3 L 163.4 120.7 L 150.5 108.1 L 160.8 93.5 L 136.6 91.7 L 131.3 79.3 L 149 57.1 L 120.2 39 L 159.9 24.1 L 154.7 8.3 L 165.8 7.8 L 177.4 20.1 L 168.7 41.5 L 192.4 45.5 L 182.3 29.5 L 219.4 20.8 L 265.4 19.7 L 306.4 32.3 L 286.7 13.8 L 284.5 -9.8 L 323 -14.3 L 376.4 -13.3 L 424.4 -16.2 L 406.4 -27.8 L 432 -42.4 L 457.5 -43 L 500.6 -54 L 559.2 -56.9 L 566.6 -63 L 624.8 -65 L 642.9 -60.1 L 692.7 -71.9 L 733.4 -71.5 L 739.5 -81.1 L 760.7 -90.5 L 813.1 -99.6 L 851.1 -92.4 L 820.9 -86.9 L 871.1 -83.5 L 877.1 -72.6 L 897.4 -78 L 962.2 -77.7 L 1012.2 -66.9 L 1030 -58.6 L 1024.5 -47 L 999.9 -40.5 L 941.7 -28.2 L 925 -21.6 L 952.5 -18.5 L 985.3 -12.9 L 1005.3 -17.1 L 1016.6 -2.9 L 1026.3 -8.6 L 1061.8 -12.1 L 1132.9 -8.5 L 1138.3 1.9 L 1231 5.2 L 1232.3 -11.7 L 1279.3 -7.8 L 1314.7 -8 L 1350.5 3.7 L 1360.7 17.9 L 1347.6 27.2 L 1375.5 44.6 L 1410.3 53.6 L 1431.7 30.4 L 1467.3 40.4 L 1505.1 34.4 L 1548 41.2 L 1564.3 35 L 1600.6 38.1 L 1584.6 17.5 L 1613.9 7.9 L 1814.1 22.3 L 1833 35.5 L 1891 52.4 L 1980.6 48.2 L 2024.7 51.9 L 2043.2 61 L 2040.5 77.3 L 2067.8 83.6 L 2097.5 79 L 2136.8 78.4 L 2178.7 82.8 L 2220.7 80.3 L 2259.3 100.1 L 2286.8 93 L 2268.8 78.8 L 2278.7 68.9 L 2349.5 75.1 L 2395.6 73.8 L 2459.3 84.4 L 2490.4 94.1 L 2490.4 182.4 L 2490.2 182.5 L 2461.7 192.3 L 2433 190.6 L 2453 202.4 L 2466.2 220.7 L 2476.4 226.7 L 2479 235.9 L 2473.3 241.7 L 2432 236.9 L 2370 253.6 L 2350.3 256.2 L 2316.3 271.8 L 2284.2 285.4 L 2276 295.4 L 2244.3 280.1 L 2186.5 297.5 L 2176.4 289.3 L 2155.1 298.8 L 2125.4 295.7 L 2118.3 310.3 L 2091.7 331.8 L 2092.5 340.7 L 2117.7 345.7 L 2114.7 378 L 2094.2 378.8 L 2084.7 397.3 L 2093.9 406.9 L 2055.1 418.2 L 2047.4 443.5 L 2014.4 448.9 L 2007.7 471.5 L 1975.8 492.1 L 1967.6 476.9 L 1958.1 444.5 L 1945.7 395.2 L 1956.4 364.5 L 1975.1 351.2 L 1976.2 340.9 L 2010.7 335.9 L 2050.3 308 L 2088.4 285.2 L 2128.3 267.5 L 2146.1 236.3 L 2119.2 238.1 L 2105.9 256.4 L 2049.6 280.8 L 2031.5 253.5 L 1974.2 261 L 1918.7 298.2 L 1937 311.8 L 1887.6 317.6 L 1853.3 319.8 L 1854.9 303.8 L 1820.4 300.5 L 1792.9 311.3 L 1725.2 307.5 L 1652.2 314.1 L 1580.4 357.4 L 1495.4 409.7 L 1530.4 412.5 L 1541.3 426.4 L 1562.8 431.3 L 1577 420.2 L 1601.3 421.6 L 1633.3 446 L 1634.1 464.9 L 1616.7 487.1 L 1614.9 513.5 L 1604.9 549 L 1571.4 581.1 L 1564 596.4 L 1533.9 622.2 L 1504.1 647.8 L 1489.7 660.9 L 1460.2 673.9 L 1446.2 674.2 L 1432.3 663.4 L 1402.5 679.7 L 1399.1 687 L 1399.1 687 L 1399.1 687 L 1399.1 687 L 1396 683.2 L 1396 683.2 L 1395.8 671.9 L 1407.1 671.3 L 1410.3 645.1 L 1404.5 626.1 L 1423.5 618.3 L 1450.4 622.2 L 1465.3 600.6 L 1472.9 576.4 L 1481.6 568.2 L 1493.2 548.3 L 1456.6 554.8 L 1437.3 563.6 L 1403.7 563.5 L 1394.7 542.7 L 1368.4 526.9 L 1329.8 519.9 L 1321.6 498.1 L 1313.9 484.5 L 1305.6 475 L 1291.9 452.6 L 1272.4 444.5 L 1239.2 437.9 L 1209.8 438.5 L 1182.3 442.5 L 1164 453.5 L 1176.1 458.8 L 1176.4 471 L 1164.1 478.1 L 1144.1 501.6 L 1144.3 511.4 L 1113 525.4 L 1086.4 517 L 1059.9 518.9 L 1048.3 511.4 L 1035 509 L 1002.6 524.7 L 973.4 528.3 L 953 533.8 L 925.1 530.2 L 904.5 530.5 L 891 519.1 L 869.3 508.5 L 847.1 505.5 L 819.1 508.4 L 798.1 512.5 L 766.6 503.2 L 762.4 486.6 L 736.3 480.9 L 716.2 478.3 L 691.3 469.1 L 668.4 492.1 L 677.4 505.2 L 655.8 520.6 L 623.8 515 L 601.6 514.2 L 586.8 503.9 L 563.7 503.6 L 544.4 496.8 L 510.7 507.2 L 468.4 526.3 L 445 530.1 L 436.3 532 L 424.6 518.4 L 396 521.4 L 386.6 511.9 L 371.1 507.6 L 360.4 494.8 L 348.1 490.8 L 316.3 496.5 L 285.7 483.8 L 273.9 495.4 L 224.4 439.1 L 196.1 421.9 L 204.2 415 L 148.6 435.9 L 127.4 437.2 L 129.2 425.1 L 100.7 417.5 L 77.6 422.9 L 70.6 399.9 L 30.7 395.1 L 10.8 404.3 L -44.7 412.5 L -55.5 418 L -138.5 425.7 L -148.6 433.3 L -132.6 448.5 L -153.9 454.2 L -149.8 460.3 L -171 471.1 L -135.1 486.3 L -140.7 496.8 L -171.8 495.9 L -178.2 502.5 L -206.6 491 L -241.8 491.4 L -265.3 500.8 L -291.5 491.8 L -340.4 476.4 L -375 477 L -420.8 501.1 L -423.6 517.3 L -446.4 504.5 L -464.1 528.8 L -457.6 533.3 L -470.4 550.1 L -451.6 565.2 L -435.1 564.6 L -421 579.4 L -423.2 590.8 L -412 594.4 Z M 578.6 -173.4 L 626.6 -178.4 L 669.7 -167.2 L 720.7 -145.8 L 715.3 -125.8 L 666.9 -123.1 L 605.1 -129.5 L 568.3 -137.9 L 551.3 -153.8 L 521 -158.2 L 578.6 -173.4 Z M 779.5 -134.7 L 835.7 -122.1 L 829.1 -113.1 L 704.1 -104.5 L 744.6 -133.6 L 762.8 -136.1 L 779.5 -134.7 Z M 1577.6 -65 L 1636.1 -64 L 1716.3 -52.2 L 1698.8 -35.8 L 1617.1 -36.4 L 1580.3 -31.2 L 1536.4 -45.6 L 1548.3 -60.8 L 1577.6 -65 Z M 1785.8 -47.4 L 1841.4 -41.6 L 1815.8 -32.9 L 1780.4 -34.9 L 1739.2 -43.6 L 1744.5 -50.8 L 1785.8 -47.4 Z M 1600.5 -3.6 L 1621.5 -12.4 L 1649.2 -14.4 L 1680.7 -6 L 1683.4 -0.1 L 1649.8 0 L 1604.3 -2.5 L 1600.5 -3.6 Z M -506.3 -163.7 L -463 -167.7 L -429.3 -168 L -424.8 -162 L -412.1 -167.4 L -391.2 -171 L -358.3 -166.1 L -366.9 -162.8 L -396.6 -159.8 L -416.6 -158.2 L -419.6 -154.5 L -445.6 -150.9 L -469.6 -156.1 L -457 -163 L -506.3 -163.7 Z M -996.7 418.6 L -1037.4 418.9 L -1064.7 416.4 L -1059.7 406.6 L -1029.1 399.5 L -1005.9 403.3 L -996.1 406.9 L -998.4 412.9 L -996.7 418.6 Z M -314.3 -12.1 L -261.2 -31.5 L -267.2 -41.6 L -217.6 -53.3 L -144.4 -67.5 L -70.6 -71.7 L -32.6 -79.9 L 10.5 -82.8 L 26 -74 L 11.1 -67.1 L -67.5 -56.1 L -135.2 -45.6 L -204.1 -24.4 L -237.1 -2.8 L -271.9 18.5 L -267.4 36.9 L -225 55.1 L -238.1 57.1 L -310.5 54.2 L -316.4 44.3 L -356.5 38.4 L -359.8 26.4 L -337.1 21.7 L -337.8 9.6 L -293.9 -9.3 L -314.3 -12.1 Z M 1668.1 432.4 L 1675.8 453.8 L 1675.2 475.6 L 1684.4 498 L 1706.7 537.2 L 1673.9 529.9 L 1660.2 562 L 1681.8 584.7 L 1681.2 600.2 L 1664.4 586.8 L 1649.9 604 L 1645.8 585.4 L 1648.2 563.8 L 1645.7 539.8 L 1650.8 523.1 L 1651.8 493.4 L 1638.8 471.6 L 1640.8 441.3 L 1661.3 431.1 L 1652.5 420.9 L 1662.4 417.7 L 1668.1 432.4 Z M -5379.3 133 L -5381.2 146.8 L -5366.2 152.3 L -5371.4 136.2 L -5311.2 139.5 L -5267.8 160.3 L -5289.8 170 L -5326.1 172.2 L -5326.7 193.9 L -5335.5 198.5 L -5356.3 197.9 L -5373.2 190.1 L -5402.7 183.7 L -5407.6 174 L -5430.2 170.4 L -5455.4 173.3 L -5467.4 165.5 L -5462.6 157.3 L -5489.2 162.6 L -5479.2 173 L -5491.7 182.4 L -5491.7 94.1 L -5437.4 111 L -5379.3 133 Z M -5462.8 51.3 L -5491.7 52.6 L -5491.7 37.5 L -5488.9 36.6 L -5470.1 36.6 L -5438 42.9 L -5439.9 46 L -5462.8 51.3 Z M -759.3 603.9 L -753.5 598.4 L -737.7 603.1 L -730.6 604 L -727.7 608.4 L -724.3 609 L -724.2 611 L -713.3 616.3 L -690.7 615 L -695 622.9 L -719.3 626.7 L -749.4 639.6 L -761.7 635.1 L -756.8 624.6 L -781.1 618.1 L -777.2 613.9 L -755.9 606.5 L -759.3 603.9 Z" />
<path class="neighbor" d="M 1399.1 687 L 1399.1 687 L 1399.1 687 L 1399.1 687 Z M 1396 683.2 L 1396 683.2 L 1399.1 687 L 1390.6 685.7 L 1381 693.2 L 1374.4 700.8 L 1375.2 716.7 L 1363.8 721.6 L 1359.8 725.5 L 1351.5 732.1 L 1336.7 735.7 L 1327.1 741.7 L 1326.4 751.3 L 1323.8 753.7 L 1332.6 757.3 L 1345.2 767 L 1342 772.4 L 1332.5 773.9 L 1316.9 774.9 L 1308.2 784.9 L 1298.3 784.2 L 1296.9 786.2 L 1286.2 781.9 L 1283.5 786.1 L 1277 788 L 1276.2 783.8 L 1270.5 781.7 L 1264.5 778.2 L 1270.6 768.5 L 1275.8 765.9 L 1273.8 761.8 L 1279.5 749.8 L 1278 746.2 L 1265.1 743.8 L 1254.6 737.9 L 1272.7 723.6 L 1297.1 711.7 L 1312.3 696 L 1322.9 702.9 L 1342 703.7 L 1338.6 692.1 L 1372.8 682.5 L 1381.6 670.1 L 1396 683.2 Z" />
<path class="neighbor" d="M 1296.9 786.2 L 1298.3 784.2 L 1308.2 784.9 L 1316.9 774.9 L 1332.5 773.9 L 1342 772.4 L 1345.2 767 L 1364.3 793.2 L 1369.8 807.6 L 1370 833.1 L 1361.6 845.3 L 1341.5 849.6 L 1323.8 858.8 L 1303.8 860.7 L 1301.4 848.6 L 1305.5 832 L 1295.7 808.9 L 1312.1 805.1 L 1296.9 786.2 Z" />
<path class="neighbor" d="M 225.2 836.2 L 203.8 854.8 L 179.1 858.1 L 145.4 852.7 L 134.6 862.3 L 142.4 881.7 L 150.1 896.7 L 168 907.6 L 149.1 920.5 L 149.4 936.3 L 127.9 958.5 L 114 981 L 90.8 1004.3 L 65.1 1002.6 L 40.6 1025.8 L 55.2 1035.8 L 57.7 1052.8 L 70.1 1064.1 L 74.5 1083.1 L 25.7 1083.1 L 11 1097.9 L -5.3 1092.3 L -11.9 1076.3 L -29 1059.4 L -69.9 1063.6 L -105.9 1064 L -137.1 1067.1 L -128.8 1041.4 L -96.8 1029.9 L -98.6 1019.7 L -109.2 1016.1 L -109.8 996.6 L -131 986.8 L -140 973.4 L -150.9 961.8 L -113.8 973.1 L -91.6 969.8 L -78.3 972.6 L -73.9 967.8 L -58.4 969.7 L -29.6 960.5 L -28.8 941.6 L -16.5 929.1 L 0 929.1 L 2.5 922.9 L 19.4 920 L 27.6 922.1 L 36.3 915.8 L 35.1 902.5 L 44.5 889.1 L 58.6 883.5 L 49.9 868.9 L 71 869.6 L 77.1 861.6 L 76.1 853 L 87.2 843.7 L 84.6 832.7 L 79.4 823.3 L 92.3 813.7 L 116.2 809 L 141.6 806.4 L 152.9 802.3 L 165.8 799.8 L 182.2 810.2 L 188.7 827.2 L 225.2 836.2 Z" />
<path class="neighbor" d="M -25.8 794.7 L -13.4 794.9 L 3.3 799.6 L 10.1 802.3 L 26.1 795.2 L 33.6 799.4 L 40.7 789.3 L 54 789.7 L 57.4 786.5 L 59.8 777.5 L 69.3 769.8 L 81.3 774.9 L 78.9 781.7 L 85.6 782.7 L 83.5 801.3 L 92.3 808.6 L 100 803.9 L 109.9 801.7 L 123.7 791.8 L 139 793.4 L 161.8 793.5 L 165.8 799.8 L 152.9 802.3 L 141.6 806.4 L 116.2 809 L 92.3 813.7 L 79.4 823.3 L 84.6 832.7 L 87.2 843.7 L 76.1 853 L 77.1 861.6 L 71 869.6 L 49.9 868.9 L 58.6 883.5 L 44.5 889.1 L 35.1 902.5 L 36.3 915.8 L 27.6 922.1 L 19.4 920 L 2.5 922.9 L 0 929.1 L -16.5 929.1 L -28.8 941.6 L -29.6 960.5 L -58.4 969.7 L -73.9 967.8 L -78.3 972.6 L -91.6 969.8 L -113.8 973.1 L -150.9 961.8 L -130.8 941.7 L -132.6 927.4 L -149.4 923.7 L -151.2 909.6 L -158.4 891.9 L -148.9 879.8 L -158.6 876.5 L -152.5 860.3 L -143.5 832.7 L -120.9 841.1 L -104.1 838.2 L -99.5 828.1 L -82 824.8 L -69.5 818 L -65.1 800.3 L -46.4 796 L -42.9 788.1 L -32.5 794.1 L -25.8 794.7 Z" />
<path class="neighbor" d="M 3.3 799.6 L 15.8 777.1 L 11 760.6 L -5.3 755.3 L 0.4 745.6 L 19 746.6 L 29.5 734.4 L 36.5 720.1 L 66.2 715 L 61.6 725.3 L 64.7 731.4 L 73.9 730.9 L 65.8 737.7 L 41.6 734 L 39.5 746.8 L 63.6 745 L 91 752.2 L 132.9 748.9 L 138.5 769.4 L 145.8 767.2 L 159.3 772.2 L 158.5 780.8 L 161.8 793.5 L 139 793.4 L 123.7 791.8 L 109.9 801.7 L 100 803.9 L 92.3 808.6 L 83.5 801.3 L 85.6 782.7 L 78.9 781.7 L 81.3 774.9 L 69.3 769.8 L 59.8 777.5 L 57.4 786.5 L 54 789.7 L 40.7 789.3 L 33.6 799.4 L 26.1 795.2 L 10.1 802.3 L 3.3 799.6 Z" />
<path class="neighbor" d="M 72.7 686 L 77.7 676.3 L 92.3 673.2 L 128.8 680.8 L 132.2 667.7 L 144.8 663.1 L 176.4 672.5 L 184.5 670 L 221.2 670.6 L 254.1 672.9 L 265.2 680.9 L 278.9 684.2 L 275.8 689.2 L 240.8 701.2 L 232.9 710 L 204.5 712.6 L 196.1 726.8 L 172.6 723.8 L 157.3 728.1 L 136.2 738.6 L 139.2 743.8 L 132.9 748.9 L 91 752.2 L 63.6 745 L 39.5 746.8 L 41.6 734 L 65.8 737.7 L 73.9 730.9 L 90.8 733 L 119.2 717.1 L 92.9 705.4 L 77.1 710.9 L 60.7 702.6 L 79.3 688.2 L 72.7 686 Z" />
<path class="neighbor" d="M 926.7 1219.7 L 908.5 1212.8 L 907.9 1193.7 L 918.8 1183.7 L 943 1177.5 L 955.8 1178 L 960.7 1186.5 L 951 1196.2 L 945.8 1209 L 926.7 1219.7 Z M 278.9 684.2 L 277.1 671.5 L 292.3 665.8 L 272.4 627.2 L 316.3 618.4 L 327.7 613.4 L 343.7 573.7 L 387.6 581 L 400 571 L 401 548.8 L 419.4 546.7 L 436.3 532 L 445 530.1 L 450.8 545.6 L 469.5 557.4 L 501.1 565.7 L 516.4 583.5 L 507.8 609.4 L 515.8 619.1 L 542.2 622.9 L 572 626 L 598.8 639.8 L 612.5 642.2 L 622.6 662.7 L 635.6 675.8 L 660.1 675.3 L 705.9 680.3 L 735.3 677.2 L 757.2 680.5 L 790 694 L 816.9 694 L 826.7 700.9 L 852.5 688.9 L 888.3 681.2 L 921.5 680.4 L 947.4 672.6 L 963.4 660.7 L 978.9 653.3 L 975.3 646 L 968.2 637.4 L 979.8 623.1 L 992.3 625.1 L 1015.1 629.6 L 1037.2 617.9 L 1071 609.3 L 1087.3 594.6 L 1102.9 588.3 L 1135.1 585.4 L 1152.6 587.9 L 1155 580 L 1134.9 564.5 L 1117.1 557.4 L 1100.1 565.6 L 1078.2 562.1 L 1065.6 565 L 1059.9 555.9 L 1075.6 533.7 L 1086.4 517 L 1113 525.4 L 1144.3 511.4 L 1144.1 501.6 L 1164.1 478.1 L 1176.4 471 L 1176.1 458.8 L 1164 453.5 L 1182.3 442.5 L 1209.8 438.5 L 1239.2 437.9 L 1272.4 444.5 L 1291.9 452.6 L 1305.6 475 L 1313.9 484.5 L 1321.6 498.1 L 1329.8 519.9 L 1368.4 526.9 L 1394.7 542.7 L 1403.7 563.5 L 1437.3 563.6 L 1456.6 554.8 L 1493.2 548.3 L 1481.6 568.2 L 1472.9 576.4 L 1465.3 600.6 L 1450.4 622.2 L 1423.5 618.3 L 1404.5 626.1 L 1410.3 645.1 L 1407.1 671.3 L 1395.8 671.9 L 1396 683.2 L 1381.6 670.1 L 1372.8 682.5 L 1338.6 692.1 L 1342 703.7 L 1322.9 702.9 L 1312.3 696 L 1297.1 711.7 L 1272.7 723.6 L 1254.6 737.9 L 1223.6 744.3 L 1207.3 754.7 L 1183.4 760.7 L 1195.2 750.4 L 1190.6 741.8 L 1208.1 726.9 L 1196.4 715.3 L 1177.1 723.1 L 1152 738.5 L 1138.4 752.8 L 1116.6 753.9 L 1105.3 764.3 L 1117 779.3 L 1135.2 782.9 L 1135.9 792.8 L 1153.4 799.3 L 1178.3 783.5 L 1198 792.1 L 1212.3 792.7 L 1215.9 804.3 L 1184.5 810.5 L 1174.2 822.5 L 1152.6 833.6 L 1141.2 849.1 L 1165.1 861.3 L 1173.8 883.1 L 1187.3 903.4 L 1202.3 920.5 L 1202 936.9 L 1188.1 943 L 1193.4 954.8 L 1206.4 961.7 L 1203 979.8 L 1197.4 997.3 L 1185 999.3 L 1168.8 1023.3 L 1150.8 1052.4 L 1130.3 1078.9 L 1099.8 1099.4 L 1068.9 1118 L 1043.9 1120.6 L 1030.4 1130.4 L 1022.7 1123.2 L 1010.2 1134.2 L 979.2 1145.3 L 955.7 1148.7 L 948.2 1172.2 L 935.9 1173.5 L 930.1 1157.4 L 935.3 1148.8 L 905.6 1141.7 L 895.1 1145.3 L 872.8 1139.5 L 862.2 1130.5 L 865.7 1117.8 L 845.4 1113.7 L 834.7 1105.4 L 815.8 1117.2 L 794.3 1119.8 L 776.6 1119.7 L 764.7 1125.1 L 753.2 1128.3 L 756.6 1153.7 L 744.7 1153.1 L 742.7 1147.9 L 742.1 1138.7 L 725.8 1145.2 L 716.2 1141.1 L 699.8 1132.8 L 706.2 1114.3 L 692.2 1110 L 686.9 1089.6 L 663.5 1093.3 L 666.1 1067 L 687.1 1048.5 L 688 1030.2 L 687.4 1013.2 L 677.7 1007.9 L 670.3 994.9 L 657.3 996.5 L 633.4 993.2 L 640.9 983.9 L 630.5 970.1 L 614.7 979.5 L 596.1 974 L 570.5 988.1 L 550.4 1004.6 L 532.5 1007.4 L 522.8 1001.4 L 511.1 1000.9 L 495.2 995.8 L 483.2 1001.4 L 468.6 1017.9 L 466.7 1000.4 L 453.2 1005.1 L 427.3 1002.9 L 402.3 997.8 L 384.3 988.1 L 367 983.7 L 359.6 973.1 L 347.1 969.9 L 324.7 955.4 L 307 948.6 L 297.8 953.9 L 267 938.4 L 245.2 924.4 L 239 899.9 L 254.9 902.9 L 255.6 891.6 L 246.8 880.3 L 249 862.2 L 225.2 836.2 L 188.7 827.2 L 182.2 810.2 L 165.8 799.8 L 161.8 793.5 L 158.5 780.8 L 159.3 772.2 L 145.8 767.2 L 138.5 769.4 L 132.9 748.9 L 139.2 743.8 L 136.2 738.6 L 157.3 728.1 L 172.6 723.8 L 196.1 726.8 L 204.5 712.6 L 232.9 710 L 240.8 701.2 L 275.8 689.2 L 278.9 684.2 Z" />
<path class="neighbor" d="M 1645.3 754.4 L 1624.8 776.8 L 1625.1 799.6 L 1616.8 817.3 L 1620.7 828.4 L 1609.1 844.1 L 1580.8 854.5 L 1541.8 855.9 L 1510.2 881.2 L 1495.3 872.7 L 1494.4 856.1 L 1455.8 861 L 1429.6 871.4 L 1403.6 871.8 L 1426.1 888.2 L 1411.3 925.8 L 1397 935.2 L 1386.3 926.5 L 1391.7 906.6 L 1377.7 900.1 L 1368.6 884.9 L 1389.6 878.1 L 1401.2 864.1 L 1423.5 852.7 L 1439.8 837.5 L 1483.9 830.9 L 1507.6 835.4 L 1530.8 796 L 1545.6 806.6 L 1578.2 784.4 L 1590.8 775.8 L 1604.7 748.7 L 1600.9 723.8 L 1610.3 709.8 L 1633.8 705.7 L 1645.9 736.5 L 1645.3 754.4 Z M 1705.8 648.4 L 1721.5 639 L 1726.4 663.9 L 1693.5 670 L 1674.1 692 L 1639.2 676.9 L 1627.2 701.1 L 1602.5 701.5 L 1599.4 679.4 L 1610.4 662.4 L 1634.1 661.1 L 1640.6 630.5 L 1647.1 613.2 L 1673.2 636.3 L 1690.2 643.7 L 1705.8 648.4 Z M 1434.3 881.2 L 1446.6 868 L 1459.2 870.5 L 1468.3 861.2 L 1484.6 866 L 1487.4 873.6 L 1475 887 L 1465.9 879.9 L 1454.5 885.1 L 1448.6 898 L 1434.2 891.7 L 1434.3 881.2 Z" />

<path class="country" d="M 445 530.1 L 468.4 526.3 L 510.7 507.2 L 544.4 496.8 L 563.7 503.6 L 586.8 503.9 L 601.6 514.2 L 623.8 515 L 655.8 520.6 L 677.4 505.2 L 668.4 492.1 L 691.3 469.1 L 716.2 478.3 L 736.3 480.9 L 762.4 486.6 L 766.6 503.2 L 798.1 512.5 L 819.1 508.4 L 847.1 505.5 L 869.3 508.5 L 891 519.1 L 904.5 530.5 L 925.1 530.2 L 953 533.8 L 973.4 528.3 L 1002.6 524.7 L 1035 509 L 1048.3 511.4 L 1059.9 518.9 L 1086.4 517 L 1075.6 533.7 L 1059.9 555.9 L 1065.6 565 L 1078.2 562.1 L 1100.1 565.6 L 1117.1 557.4 L 1134.9 564.5 L 1155 580 L 1152.6 587.9 L 1135.1 585.4 L 1102.9 588.3 L 1087.3 594.6 L 1071 609.3 L 1037.2 617.9 L 1015.1 629.6 L 992.3 625.1 L 979.8 623.1 L 968.2 637.4 L 975.3 646 L 978.9 653.3 L 963.4 660.7 L 947.4 672.6 L 921.5 680.4 L 888.3 681.2 L 852.5 688.9 L 826.7 700.9 L 816.9 694 L 790 694 L 757.2 680.5 L 735.3 677.2 L 705.9 680.3 L 660.1 675.3 L 635.6 675.8 L 622.6 662.7 L 612.5 642.2 L 598.8 639.8 L 572 626 L 542.2 622.9 L 515.8 619.1 L 507.8 609.4 L 516.4 583.5 L 501.1 565.7 L 469.5 557.4 L 450.8 545.6 L 445 530.1 Z" />


<g class="city"><circle cx="1080.0872746362138" cy="738.4489350300237" r="5" /><text x="1092.0872746362138" y="742.4489350300237">Beijing</text></g>
<g class="city"><circle cx="1315.1958902064735" cy="790.1869437341593" r="5" /><text x="1327.1958902064735" y="794.1869437341593">Seoul</text></g>
<g class="city"><circle cx="1097.8786708080431" cy="756.6071097098331" r="5" /><text x="1109.8786708080431" y="760.6071097098331">Tianjin</text></g>
<g class="city"><circle cx="1236.4886857479773" cy="696.2056604987391" r="5" /><text x="1248.4886857479773" y="700.2056604987391">Shenyeng</text></g>
<g class="city"><circle cx="1307.4411256041242" cy="608.7347955564939" r="5" /><text x="1319.4411256041242" y="612.7347955564939">Harbin</text></g>
<g class="city"><circle cx="441.04876089734523" cy="651.8598063304848" r="5" /><text x="453.04876089734523" y="655.8598063304848">Ürümqi</text></g>
<g class="city"><circle cx="1287.5901645641252" cy="757.9682167264807" r="5" /><text x="1299.5901645641252" y="761.9682167264807">Pyongyang</text></g>
<g class="city"><circle cx="1278.3951369015128" cy="650.5295413465179" r="5" /><text x="1290.3951369015128" y="654.5295413465179">Changchun</text></g>
<text class="map-title" x="80" y="105">Mongolia Political Study Map</text>
<text class="map-subtitle" x="80" y="145">Capital: Ulaanbaatar | Continent: Asia</text>
  <text class="footer" x="80" y="1036">Made with Natural Earth. Free vector and raster map data @ naturalearthdata.com.</text>
</svg>
