<?xml version="1.0" encoding="UTF-8"?>
<svg xmlns="http://www.w3.org/2000/svg" width="1600" height="1100" viewBox="0 0 1600 1100" role="img" aria-labelledby="title desc">
  <title id="title">Mongolia Physical Study Map</title>
  <desc id="desc">Made with Natural Earth. Free vector and raster map data @ naturalearthdata.com.</desc>
  <defs>
    <linearGradient id="terrain" x1="0" x2="1" y1="0" y2="1">
      <stop offset="0%" stop-color="#6c8c53" />
      <stop offset="42%" stop-color="#d5c487" />
      <stop offset="72%" stop-color="#b88b5f" />
      <stop offset="100%" stop-color="#f1f5ee" />
    </linearGradient>
    <filter id="softShadow" x="-10%" y="-10%" width="120%" height="120%">
      <feDropShadow dx="0" dy="10" stdDeviation="12" flood-color="#0f172a" flood-opacity="0.16" />
    </filter>
    <style>
      .neighbor { fill: #ffffff; stroke: #94a3b8; stroke-width: 1.2; opacity: 0.72; }
      .country { fill: url(#terrain); stroke: #1f2937; stroke-width: 4; filter: url(#softShadow); }
      .admin1 { fill: none; stroke: #64748b; stroke-width: 1.1; stroke-dasharray: 6 7; opacity: 0.75; }
      .river { fill: none; stroke: #1d9bd1; stroke-width: 3; stroke-linecap: round; opacity: 0.88; }
      .lake { fill: #8ed1ea; stroke: #0ea5e9; stroke-width: 1.5; opacity: 0.8; }
      .city circle { fill: #ef4444; stroke: #ffffff; stroke-width: 2; }
      .city text, .terrain-label { fill: #172033; font: 700 24px system-ui, sans-serif; paint-order: stroke; stroke: #ffffff; stroke-width: 5; stroke-linejoin: round; }
      .map-title { fill: #0f172a; font: 800 46px system-ui, sans-serif; }
      .map-subtitle { fill: #475569; font: 600 24px system-ui, sans-serif; }
      .footer { fill: #64748b; font: 500 18px system-ui, sans-serif; }
    </style>
  </defs>
  <rect width="100%" height="100%" fill="#d8edf0" />
  <rect x="40" y="40" width="1520" height="1020" rx="32" fill="#ffffff" opacity="0.54" />
  <path class="neighbor" d="M 436.3 532 L 419.4 546.7 L 401 548.8 L 400 571 L 387.6 581 L 343.7 573.7 L 327.7 613.4 L 316.3 618.4 L 272.4 627.2 L 292.3 665.8 L 277.1 671.5 L 278.9 684.2 L 265.2 680.9 L 254.1 672.9 L 221.2 670.6 L 184.5 670 L 176.4 672.5 L 144.8 663.1 L 132.2 667.7 L 128.8 680.8 L 92.3 673.2 L 77.7 676.3 L 72.7 686 L 60 690.1 L 30.8 705.6 L 21.1 721.4 L 12.8 721.6 L 6.8 711.1 L -21.4 710.4 L -26 692.2 L -36.8 692 L -35.1 669.8 L -61.7 653.6 L -99.7 655.3 L -125.7 658.6 L -146.9 638.6 L -165 630.2 L -199.4 614.3 L -203.5 612.4 L -260.6 625.5 L -259.7 707.3 L -271.1 708.3 L -286.6 690.9 L -301.6 684.7 L -326.8 689.4 L -336.6 696.7 L -337.8 691.3 L -332.4 682.1 L -336.6 674.4 L -362.3 666.8 L -372.3 646.9 L -384.5 641.3 L -385.3 634.1 L -363.7 636.2 L -362.8 620 L -344 616.4 L -324.6 619.7 L -320.6 598 L -324.6 584.3 L -346.8 585.4 L -365.6 580 L -391.3 589.7 L -412 594.4 L -423.2 590.8 L -421 579.4 L -435.1 564.6 L -451.6 565.2 L -470.4 550.1 L -457.6 533.3 L -464.1 528.8 L -446.4 504.5 L -423.6 517.3 L -420.8 501.1 L -375 477 L -340.4 476.4 L -291.5 491.8 L -265.3 500.8 L -241.8 491.4 L -206.6 491 L -178.2 502.5 L -171.8 495.9 L -140.7 496.8 L -135.1 486.3 L -171 471.1 L -149.8 460.3 L -153.9 454.2 L -132.6 448.5 L -148.6 433.3 L -138.5 425.7 L -55.5 418 L -44.7 412.5 L 10.8 404.3 L 30.7 395.1 L 70.6 399.9 L 77.6 422.9 L 100.7 417.5 L 129.2 425.1 L 127.4 437.2 L 148.6 435.9 L 204.2 415 L 196.1 421.9 L 224.4 439.1 L 273.9 495.4 L 285.7 483.8 L 316.3 496.5 L 348.1 490.8 L 360.4 494.8 L 371.1 507.6 L 386.6 511.9 L 396 521.4 L 424.6 518.4 L 436.3 532 Z" />
<path class="neighbor" d="M -259.7 707.3 L -260.6 625.5 L -203.5 612.4 L -199.4 614.3 L -165 630.2 L -146.9 638.6 L -125.7 658.6 L -99.7 655.3 L -61.7 653.6 L -35.1 669.8 L -36.8 692 L -26 692.2 L -21.4 710.4 L 6.8 711.1 L 12.8 721.6 L 21.1 721.4 L 30.8 705.6 L 60 690.1 L 72.7 686 L 79.3 688.2 L 60.7 702.6 L 77.1 710.9 L 92.9 705.4 L 119.2 717.1 L 90.8 733 L 73.9 730.9 L 64.7 731.4 L 61.6 725.3 L 66.2 715 L 36.5 720.1 L 29.5 734.4 L 19 746.6 L 0.4 745.6 L -5.3 755.3 L 11 760.6 L 15.8 777.1 L 3.3 799.6 L -13.4 794.9 L -25.8 794.7 L -25.2 781.2 L -54.7 771.7 L -77.9 760.8 L -92.3 750.4 L -117.7 735.1 L -128.6 712.2 L -136 708.2 L -160 709.2 L -168.5 704.7 L -170.8 687 L -200.7 675.3 L -219.4 688.1 L -238.3 695.8 L -234.7 707 L -259.7 707.3 Z" />
<path class="neighbor" d="M 2462.1 46.7 L 2490.4 37.5 L 2490.4 52.6 L 2466.1 53.8 L 2462.1 46.7 Z M -412 594.4 L -422.1 607.5 L -443.6 611.2 L -465.6 634.1 L -445.5 655.1 L -447.6 670 L -423.4 696.2 L -423.4 696.2 L -436.7 705.1 L -440.5 710.7 L -450.3 709.2 L -465.5 695.8 L -471.8 695 L -485.7 689.9 L -492.5 680.8 L -513.2 676.1 L -526.6 679.6 L -530.5 675.5 L -560.7 664.9 L -593.3 661.3 L -612.1 657.5 L -614.8 660.1 L -643 641.4 L -668.3 633 L -687.5 620 L -671.3 616.4 L -652.9 597.9 L -665.3 589.1 L -632.7 580.1 L -633.3 575.2 L -653.2 578.8 L -652.5 568.9 L -641 562.8 L -619.6 561.1 L -616.1 553.7 L -621 541.5 L -612 529.9 L -612.2 523.4 L -644.9 516.2 L -657.9 516.4 L -671.6 506 L -688.6 509.5 L -716.7 501.7 L -716.3 497.4 L -724.1 487.8 L -741.8 486.7 L -743.7 479.8 L -738.1 475.3 L -752.3 462.8 L -775.3 464.9 L -782 463.8 L -787.6 468.8 L -795.9 467.9 L -795.9 467.9 L -801.3 453.7 L -806.6 446.4 L -802.3 444.3 L -784.4 445.1 L -775.8 440.2 L -782.2 434.3 L -797.1 430.4 L -795.8 426.4 L -804.8 422.4 L -818.7 407.9 L -813.9 401.9 L -816.1 391.5 L -837.8 386.2 L -849.4 388.8 L -852.6 383.3 L -875.9 377.8 L -883 364.7 L -884.9 353.9 L -895.6 348.8 L -886.1 341.8 L -892.7 321.1 L -876.9 308.3 L -880.3 304.5 L -880.3 304.5 L -855.1 292.2 L -878.3 281.7 L -878.3 281.7 L -830.8 253.4 L -810.2 240.5 L -801.9 229.2 L -834.7 214 L -825.6 199.6 L -845.6 183.1 L -830.7 164.1 L -856.5 138.8 L -836 122.1 L -870 107.4 L -866.7 91.8 L -848.8 89.8 L -811.1 80.9 L -811.1 80.9 L -788.2 73.2 L -751.8 86.6 L -691.1 91.9 L -607.3 116.9 L -590.3 127.5 L -588.8 142.2 L -613.4 153.9 L -649.6 159.8 L -748.6 142.9 L -764.9 145.8 L -728.7 162 L -727.3 172.3 L -725.9 194.9 L -697.3 201.7 L -680 207.5 L -677.1 196.7 L -690.5 187.2 L -676.4 178.8 L -622.8 192.6 L -604.1 187.2 L -619 170.9 L -567.4 149.2 L -546.9 150.5 L -526.2 158.3 L -513.3 143 L -531.8 129.8 L -520.9 116.5 L -537.2 102.8 L -475.2 109.9 L -462.5 122.3 L -490.6 125 L -490.4 137.4 L -473 145 L -438.7 140.2 L -433.3 126 L -387 115.5 L -309.6 96.4 L -292.9 97.5 L -314.8 111 L -287.2 113.3 L -271.4 105.7 L -229.8 105.1 L -196.9 95.9 L -171.6 109.3 L -146.4 94.6 L -169.7 81.7 L -158.1 74.4 L -92.6 81.1 L -61.9 88.1 L 18.4 113.4 L 33.2 101.8 L 10.7 90.1 L 10.1 85.4 L -16.7 83.2 L -9.3 72.7 L -21.2 55.4 L -21.9 48.3 L 19 28.2 L 33.6 8 L 50.1 3.7 L 108.8 9.5 L 113.4 21.9 L 92.4 39.9 L 106.2 46.9 L 113.3 62.4 L 108.3 92.8 L 132.7 106.4 L 123.2 121.2 L 79.8 152.7 L 105.1 156 L 114 148 L 138.3 142.3 L 144.2 131.3 L 163.4 120.7 L 150.5 108.1 L 160.8 93.5 L 136.6 91.7 L 131.3 79.3 L 149 57.1 L 120.2 39 L 159.9 24.1 L 154.7 8.3 L 165.8 7.8 L 177.4 20.1 L 168.7 41.5 L 192.4 45.5 L 182.3 29.5 L 219.4 20.8 L 265.4 19.7 L 306.4 32.3 L 286.7 13.8 L 284.5 -9.8 L 323 -14.3 L 376.4 -13.3 L 424.4 -16.2 L 406.4 -27.8 L 432 -42.4 L 457.5 -43 L 500.6 -54 L 559.2 -56.9 L 566.6 -63 L 624.8 -65 L 642.9 -60.1 L 692.7 -71.9 L 733.4 -71.5 L 739.5 -81.1 L 760.7 -90.5 L 813.1 -99.6 L 851.1 -92.4 L 820.9 -86.9 L 871.1 -83.5 L 877.1 -72.6 L 897.4 -78 L 962.2 -77.7 L 1012.2 -66.9 L 1030 -58.6 L 1024.5 -47 L 999.9 -40.5 L 941.7 -28.2 L 925 -21.6 L 952.5 -18.5 L 985.3 -12.9 L 1005.3 -17.1 L 1016.6 -2.9 L 1026.3 -8.6 L 1061.8 -12.1 L 1132.9 -8.5 L 1138.3 1.9 L 1231 5.2 L 1232.3 -11.7 L 1279.3 -7.8 L 1314.7 -8 L 1350.5 3.7 L 1360.7 17.9 L 1347.6 27.2 L 1375.5 44.6 L 1410.3 53.6 L 1431.7 30.4 L 1467.3 40.4 L 1505.1 34.4 L 1548 41.2 L 1564.3 35 L 1600.6 38.1 L 1584.6 17.5 L 1613.9 7.9 L 1814.1 22.3 L 1833 35.5 L 1891 52.4 L 1980.6 48.2 L 2024.7 51.9 L 2043.2 61 L 2040.5 77.3 L 2067.8 83.6 L 2097.5 79 L 2136.8 78.4 L 2178.7 82.8 L 2220.7 80.3 L 2259.3 100.1 L 2286.8 93 L 2268.8 78.8 L 2278.7 68.9 L 2349.5 75.1 L 2395.6 73.8 L 2459.3 84.4 L 2490.4 94.1 L 2490.4 182.4 L 2490.2 182.5 L 2461.7 192.3 L 2433 190.6 L 2453 202.4 L 2466.2 220.7 L 2476.4 226.7 L 2479 235.9 L 2473.3 241.7 L 2432 236.9 L 2370 253.6 L 2350.3 256.2 L 2316.3 271.8 L 2284.2 285.4 L 2276 295.4 L 2244.3 280.1 L 2186.5 297.5 L 2176.4 289.3 L 2155.1 298.8 L 2125.4 295.7 L 2118.3 310.3 L 2091.7 331.8 L 2092.5 340.7 L 2117.7 345.7 L 2114.7 378 L 2094.2 378.8 L 2084.7 397.3 L 2093.9 406.9 L 2055.1 418.2 L 2047.4 443.5 L 2014.4 448.9 L 2007.7 471.5 L 1975.8 492.1 L 1967.6 476.9 L 1958.1 444.5 L 1945.7 395.2 L 1956.4 364.5 L 1975.1 351.2 L 1976.2 340.9 L 2010.7 335.9 L 2050.3 308 L 2088.4 285.2 L 2128.3 267.5 L 2146.1 236.3 L 2119.2 238.1 L 2105.9 256.4 L 2049.6 280.8 L 2031.5 253.5 L 1974.2 261 L 1918.7 298.2 L 1937 311.8 L 1887.6 317.6 L 1853.3 319.8 L 1854.9 303.8 L 1820.4 300.5 L 1792.9 311.3 L 1725.2 307.5 L 1652.2 314.1 L 1580.4 357.4 L 1495.4 409.7 L 1530.4 412.5 L 1541.3 426.4 L 1562.8 431.3 L 1577 420.2 L 1601.3 421.6 L 1633.3 446 L 1634.1 464.9 L 1616.7 487.1 L 1614.9 513.5 L 1604.9 549 L 1571.4 581.1 L 1564 596.4 L 1533.9 622.2 L 1504.1 647.8 L 1489.7 660.9 L 1460.2 673.9 L 1446.2 674.2 L 1432.3 663.4 L 1402.5 679.7 L 1399.1 687 L 1399.1 687 L 1399.1 687 L 1399.1 687 L 1396 683.2 L 1396 683.2 L 1395.8 671.9 L 1407.1 671.3 L 1410.3 645.1 L 1404.5 626.1 L 1423.5 618.3 L 1450.4 622.2 L 1465.3 600.6 L 1472.9 576.4 L 1481.6 568.2 L 1493.2 548.3 L 1456.6 554.8 L 1437.3 563.6 L 1403.7 563.5 L 1394.7 542.7 L 1368.4 526.9 L 1329.8 519.9 L 1321.6 498.1 L 1313.9 484.5 L 1305.6 475 L 1291.9 452.6 L 1272.4 444.5 L 1239.2 437.9 L 1209.8 438.5 L 1182.3 442.5 L 1164 453.5 L 1176.1 458.8 L 1176.4 471 L 1164.1 478.1 L 1144.1 501.6 L 1144.3 511.4 L 1113 525.4 L 1086.4 517 L 1059.9 518.9 L 1048.3 511.4 L 1035 509 L 1002.6 524.7 L 973.4 528.3 L 953 533.8 L 925.1 530.2 L 904.5 530.5 L 891 519.1 L 869.3 508.5 L 847.1 505.5 L 819.1 508.4 L 798.1 512.5 L 766.6 503.2 L 762.4 486.6 L 736.3 480.9 L 716.2 478.3 L 691.3 469.1 L 668.4 492.1 L 677.4 505.2 L 655.8 520.6 L 623.8 515 L 601.6 514.2 L 586.8 503.9 L 563.7 503.6 L 544.4 496.8 L 510.7 507.2 L 468.4 526.3 L 445 530.1 L 436.3 532 L 424.6 518.4 L 396 521.4 L 386.6 511.9 L 371.1 507.6 L 360.4 494.8 L 348.1 490.8 L 316.3 496.5 L 285.7 483.8 L 273.9 495.4 L 224.4 439.1 L 196.1 421.9 L 204.2 415 L 148.6 435.9 L 127.4 437.2 L 129.2 425.1 L 100.7 417.5 L 77.6 422.9 L 70.6 399.9 L 30.7 395.1 L 10.8 404.3 L -44.7 412.5 L -55.5 418 L -138.5 425.7 L -148.6 433.3 L -132.6 448.5 L -153.9 454.2 L -149.8 460.3 L -171 471.1 L -135.1 486.3 L -140.7 496.8 L -171.8 495.9 L -178.2 502.5 L -206.6 491 L -241.8 491.4 L -265.3 500.8 L -291.5 491.8 L -340.4 476.4 L -375 477 L -420.8 501.1 L -423.6 517.3 L -446.4 504.5 L -464.1 528.8 L -457.6 533.3 L -470.4 550.1 L -451.6 565.2 L -435.1 564.6 L -421 579.4 L -423.2 590.8 L -412 594.4 Z M 578.6 -173.4 L 626.6 -178.4 L 669.7 -167.2 L 720.7 -145.8 L 715.3 -125.8 L 666.9 -123.1 L 605.1 -129.5 L 568.3 -137.9 L 551.3 -153.8 L 521 -158.2 L 578.6 -173.4 Z M 779.5 -134.7 L 835.7 -122.1 L 829.1 -113.1 L 704.1 -104.5 L 744.6 -133.6 L 762.8 -136.1 L 779.5 -134.7 Z M 1577.6 -65 L 1636.1 -64 L 1716.3 -52.2 L 1698.8 -35.8 L 1617.1 -36.4 L 1580.3 -31.2 L 1536.4 -45.6 L 1548.3 -60.8 L 1577.6 -65 Z M 1785.8 -47.4 L 1841.4 -41.6 L 1815.8 -32.9 L 1780.4 -34.9 L 1739.2 -43.6 L 1744.5 -50.8 L 1785.8 -47.4 Z M 1600.5 -3.6 L 1621.5 -12.4 L 1649.2 -14.4 L 1680.7 -6 L 1683.4 -0.1 L 1649.8 0 L 1604.3 -2.5 L 1600.5 -3.6 Z M -506.3 -163.7 L -463 -167.7 L -429.3 -168 L -424.8 -162 L -412.1 -167.4 L -391.2 -171 L -358.3 -166.1 L -366.9 -162.8 L -396.6 -159.8 L -416.6 -158.2 L -419.6 -154.5 L -445.6 -150.9 L -469.6 -156.1 L -457 -163 L -506.3 -163.7 Z M -996.7 418.6 L -1037.4 418.9 L -1064.7 416.4 L -1059.7 406.6 L -1029.1 399.5 L -1005.9 403.3 L -996.1 406.9 L -998.4 412.9 L -996.7 418.6 Z M -314.3 -12.1 L -261.2 -31.5 L -267.2 -41.6 L -217.6 -53.3 L -144.4 -67.5 L -70.6 -71.7 L -32.6 -79.9 L 10.5 -82.8 L 26 -74 L 11.1 -67.1 L -67.5 -56.1 L -135.2 -45.6 L -204.1 -24.4 L -237.1 -2.8 L -271.9 18.5 L -267.4 36.9 L -225 55.1 L -238.1 57.1 L -310.5 54.2 L -316.4 44.3 L -356.5 38.4 L -359.8 26.4 L -337.1 21.7 L -337.8 9.6 L -293.9 -9.3 L -314.3 -12.1 Z M 1668.1 432.4 L 1675.8 453.8 L 1675.2 475.6 L 1684.4 498 L 1706.7 537.2 L 1673.9 529.9 L 1660.2 562 L 1681.8 584.7 L 1681.2 600.2 L 1664.4 586.8 L 1649.9 604 L 1645.8 585.4 L 1648.2 563.8 L 1645.7 539.8 L 1650.8 523.1 L 1651.8 493.4 L 1638.8 471.6 L 1640.8 441.3 L 1661.3 431.1 L 1652.5 420.9 L 1662.4 417.7 L 1668.1 432.4 Z M -5379.3 133 L -5381.2 146.8 L -5366.2 152.3 L -5371.4 136.2 L -5311.2 139.5 L -5267.8 160.3 L -5289.8 170 L -5326.1 172.2 L -5326.7 193.9 L -5335.5 198.5 L -5356.3 197.9 L -5373.2 190.1 L -5402.7 183.7 L -5407.6 174 L -5430.2 170.4 L -5455.4 173.3 L -5467.4 165.5 L -5462.6 157.3 L -5489.2 162.6 L -5479.2 173 L -5491.7 182.4 L -5491.7 94.1 L -5437.4 111 L -5379.3 133 Z M -5462.8 51.3 L -5491.7 52.6 L -5491.7 37.5 L -5488.9 36.6 L -5470.1 36.6 L -5438 42.9 L -5439.9 46 L -5462.8 51.3 Z M -759.3 603.9 L -753.5 598.4 L -737.7 603.1 L -730.6 604 L -727.7 608.4 L -724.3 609 L -724.2 611 L -713.3 616.3 L -690.7 615 L -695 622.9 L -719.3 626.7 L -749.4 639.6 L -761.7 635.1 L -756.8 624.6 L -781.1 618.1 L -777.2 613.9 L -755.9 606.5 L -759.3 603.9 Z" />
<path class="neighbor" d="M 1399.1 687 L 1399.1 687 L 1399.1 687 L 1399.1 687 Z M 1396 683.2 L 1396 683.2 L 1399.1 687 L 1390.6 685.7 L 1381 693.2 L 1374.4 700.8 L 1375.2 716.7 L 1363.8 721.6 L 1359.8 725.5 L 1351.5 732.1 L 1336.7 735.7 L 1327.1 741.7 L 1326.4 751.3 L 1323.8 753.7 L 1332.6 757.3 L 1345.2 767 L 1342 772.4 L 1332.5 773.9 L 1316.9 774.9 L 1308.2 784.9 L 1298.3 784.2 L 1296.9 786.2 L 1286.2 781.9 L 1283.5 786.1 L 1277 788 L 1276.2 783.8 L 1270.5 781.7 L 1264.5 778.2 L 1270.6 768.5 L 1275.8 765.9 L 1273.8 761.8 L 1279.5 749.8 L 1278 746.2 L 1265.1 743.8 L 1254.6 737.9 L 1272.7 723.6 L 1297.1 711.7 L 1312.3 696 L 1322.9 702.9 L 1342 703.7 L 1338.6 692.1 L 1372.8 682.5 L 1381.6 670.1 L 1396 683.2 Z" />
<path class="neighbor" d="M 1296.9 786.2 L 1298.3 784.2 L 1308.2 784.9 L 1316.9 774.9 L 1332.5 773.9 L 1342 772.4 L 1345.2 767 L 1364.3 793.2 L 1369.8 807.6 L 1370 833.1 L 1361.6 845.3 L 1341.5 849.6 L 1323.8 858.8 L 1303.8 860.7 L 1301.4 848.6 L 1305.5 832 L 1295.7 808.9 L 1312.1 805.1 L 1296.9 786.2 Z" />
<path class="neighbor" d="M 225.2 836.2 L 203.8 854.8 L 179.1 858.1 L 145.4 852.7 L 134.6 862.3 L 142.4 881.7 L 150.1 896.7 L 168 907.6 L 149.1 920.5 L 149.4 936.3 L 127.9 958.5 L 114 981 L 90.8 1004.3 L 65.1 1002.6 L 40.6 1025.8 L 55.2 1035.8 L 57.7 1052.8 L 70.1 1064.1 L 74.5 1083.1 L 25.7 1083.1 L 11 1097.9 L -5.3 1092.3 L -11.9 1076.3 L -29 1059.4 L -69.9 1063.6 L -105.9 1064 L -137.1 1067.1 L -128.8 1041.4 L -96.8 1029.9 L -98.6 1019.7 L -109.2 1016.1 L -109.8 996.6 L -131 986.8 L -140 973.4 L -150.9 961.8 L -113.8 973.1 L -91.6 969.8 L -78.3 972.6 L -73.9 967.8 L -58.4 969.7 L -29.6 960.5 L -28.8 941.6 L -16.5 929.1 L 0 929.1 L 2.5 922.9 L 19.4 920 L 27.6 922.1 L 36.3 915.8 L 35.1 902.5 L 44.5 889.1 L 58.6 883.5 L 49.9 868.9 L 71 869.6 L 77.1 861.6 L 76.1 853 L 87.2 843.7 L 84.6 832.7 L 79.4 823.3 L 92.3 813.7 L 116.2 809 L 141.6 806.4 L 152.9 802.3 L 165.8 799.8 L 182.2 810.2 L 188.7 827.2 L 225.2 836.2 Z" />
<path class="neighbor" d="M -25.8 794.7 L -13.4 794.9 L 3.3 799.6 L 10.1 802.3 L 26.1 795.2 L 33.6 799.4 L 40.7 789.3 L 54 789.7 L 57.4 786.5 L 59.8 777.5 L 69.3 769.8 L 81.3 774.9 L 78.9 781.7 L 85.6 782.7 L 83.5 801.3 L 92.3 808.6 L 100 803.9 L 109.9 801.7 L 123.7 791.8 L 139 793.4 L 161.8 793.5 L 165.8 799.8 L 152.9 802.3 L 141.6 806.4 L 116.2 809 L 92.3 813.7 L 79.4 823.3 L 84.6 832.7 L 87.2 843.7 L 76.1 853 L 77.1 861.6 L 71 869.6 L 49.9 868.9 L 58.6 883.5 L 44.5 889.1 L 35.1 902.5 L 36.3 915.8 L 27.6 922.1 L 19.4 920 L 2.5 922.9 L 0 929.1 L -16.5 929.1 L -28.8 941.6 L -29.6 960.5 L -58.4 969.7 L -73.9 967.8 L -78.3 972.6 L -91.6 969.8 L -113.8 973.1 L -150.9 961.8 L -130.8 941.7 L -132.6 927.4 L -149.4 923.7 L -151.2 909.6 L -158.4 891.9 L -148.9 879.8 L -158.6 876.5 L -152.5 860.3 L -143.5 832.7 L -120.9 841.1 L -104.1 838.2 L -99.5 828.1 L -82 824.8 L -69.5 818 L -65.1 800.3 L -46.4 796 L -42.9 788.1 L -32.5 794.1 L -25.8 794.7 Z" />
<path class="neighbor" d="M 3.3 799.6 L 15.8 777.1 L 11 760.6 L -5.3 755.3 L 0.4 745.6 L 19 746.6 L 29.5 734.4 L 36.5 720.1 L 66.2 715 L 61.6 725.3 L 64.7 731.4 L 73.9 730.9 L 65.8 737.7 L 41.6 734 L 39.5 746.8 L 63.6 745 L 91 752.2 L 132.9 748.9 L 138.5 769.4 L 145.8 767.2 L 159.3 772.2 L 158.5 780.8 L 161.8 793.5 L 139 793.4 L 123.7 791.8 L 109.9 801.7 L 100 803.9 L 92.3 808.6 L 83.5 801.3 L 85.6 782.7 L 78.9 781.7 L 81.3 774.9 L 69.3 769.8 L 59.8 777.5 L 57.4 786.5 L 54 789.7 L 40.7 789.3 L 33.6 799.4 L 26.1 795.2 L 10.1 802.3 L 3.3 799.6 Z" />
<path class="neighbor" d="M 72.7 686 L 77.7 676.3 L 92.3 673.2 L 128.8 680.8 L 132.2 667.7 L 144.8 663.1 L 176.4 672.5 L 184.5 670 L 221.2 670.6 L 254.1 672.9 L 265.2 680.9 L 278.9 684.2 L 275.8 689.2 L 240.8 701.2 L 232.9 710 L 204.5 712.6 L 196.1 726.8 L 172.6 723.8 L 157.3 728.1 L 136.2 738.6 L 139.2 743.8 L 132.9 748.9 L 91 752.2 L 63.6 745 L 39.5 746.8 L 41.6 734 L 65.8 737.7 L 73.9 730.9 L 90.8 733 L 119.2 717.1 L 92.9 705.4 L 77.1 710.9 L 60.7 702.6 L 79.3 688.2 L 72.7 686 Z" />
<path class="neighbor" d="M 926.7 1219.7 L 908.5 1212.8 L 907.9 1193.7 L 918.8 1183.7 L 943 1177.5 L 955.8 1178 L 960.7 1186.5 L 951 1196.2 L 945.8 1209 L 926.7 1219.7 Z M 278.9 684.2 L 277.1 671.5 L 292.3 665.8 L 272.4 627.2 L 316.3 618.4 L 327.7 613.4 L 343.7 573.7 L 387.6 581 L 400 571 L 401 548.8 L 419.4 546.7 L 436.3 532 L 445 530.1 L 450.8 545.6 L 469.5 557.4 L 501.1 565.7 L 516.4 583.5 L 507.8 609.4 L 515.8 619.1 L 542.2 622.9 L 572 626 L 598.8 639.8 L 612.5 642.2 L 622.6 662.7 L 635.6 675.8 L 660.1 675.3 L 705.9 680.3 L 735.3 677.2 L 757.2 680.5 L 790 694 L 816.9 694 L 826.7 700.9 L 852.5 688.9 L 888.3 681.2 L 921.5 680.4 L 947.4 672.6 L 963.4 660.7 L 978.9 653.3 L 975.3 646 L 968.2 637.4 L 979.8 623.1 L 992.3 625.1 L 1015.1 629.6 L 1037.2 617.9 L 1071 609.3 L 1087.3 594.6 L 1102.9 588.3 L 1135.1 585.4 L 1152.6 587.9 L 1155 580 L 1134.9 564.5 L 1117.1 557.4 L 1100.1 565.6 L 1078.2 562.1 L 1065.6 565 L 1059.9 555.9 L 1075.6 533.7 L 1086.4 517 L 1113 525.4 L 1144.3 511.4 L 1144.1 501.6 L 1164.1 478.1 L 1176.4 471 L 1176.1 458.8 L 1164 453.5 L 1182.3 442.5 L 1209.8 438.5 L 1239.2 437.9 L 1272.4 444.5 L 1291.9 452.6 L 1305.6 475 L 1313.9 484.5 L 1321.6 498.1 L 1329.8 519.9 L 1368.4 526.9 L 1394.7 542.7 L 1403.7 563.5 L 1437.3 563.6 L 1456.6 554.8 L 1493.2 548.3 L 1481.6 568.2 L 1472.9 576.4 L 1465.3 600.6 L 1450.4 622.2 L 1423.5 618.3 L 1404.5 626.1 L 1410.3 645.1 L 1407.1 671.3 L 1395.8 671.9 L 1396 683.2 L 1381.6 670.1 L 1372.8 682.5 L 1338.6 692.1 L 1342 703.7 L 1322.9 702.9 L 1312.3 696 L 1297.1 711.7 L 1272.7 723.6 L 1254.6 737.9 L 1223.6 744.3 L 1207.3 754.7 L 1183.4 760.7 L 1195.2 750.4 L 1190.6 741.8 L 1208.1 726.9 L 1196.4 715.3 L 1177.1 723.1 L 1152 738.5 L 1138.4 752.8 L 1116.6 753.9 L 1105.3 764.3 L 1117 779.3 L 1135.2 782.9 L 1135.9 792.8 L 1153.4 799.3 L 1178.3 783.5 L 1198 792.1 L 1212.3 792.7 L 1215.9 804.3 L 1184.5 810.5 L 1174.2 822.5 L 1152.6 833.6 L 1141.2 849.1 L 1165.1 861.3 L 1173.8 883.1 L 1187.3 903.4 L 1202.3 920.5 L 1202 936.9 L 1188.1 943 L 1193.4 954.8 L 1206.4 961.7 L 1203 979.8 L 1197.4 997.3 L 1185 999.3 L 1168.8 1023.3 L 1150.8 1052.4 L 1130.3 1078.9 L 1099.8 1099.4 L 1068.9 1118 L 1043.9 1120.6 L 1030.4 1130.4 L 1022.7 1123.2 L 1010.2 1134.2 L 979.2 1145.3 L 955.7 1148.7 L 948.2 1172.2 L 935.9 1173.5 L 930.1 1157.4 L 935.3 1148.8 L 905.6 1141.7 L 895.1 1145.3 L 872.8 1139.5 L 862.2 1130.5 L 865.7 1117.8 L 845.4 1113.7 L 834.7 1105.4 L 815.8 1117.2 L 794.3 1119.8 L 776.6 1119.7 L 764.7 1125.1 L 753.2 1128.3 L 756.6 1153.7 L 744.7 1153.1 L 742.7 1147.9 L 742.1 1138.7 L 725.8 1145.2 L 716.2 1141.1 L 699.8 1132.8 L 706.2 1114.3 L 692.2 1110 L 686.9 1089.6 L 663.5 1093.3 L 666.1 1067 L 687.1 1048.5 L 688 1030.2 L 687.4 1013.2 L 677.7 1007.9 L 670.3 994.9 L 657.3 996.5 L 633.4 993.2 L 640.9 983.9 L 630.5 970.1 L 614.7 979.5 L 596.1 974 L 570.5 988.1 L 550.4 1004.6 L 532.5 1007.4 L 522.8 1001.4 L 511.1 1000.9 L 495.2 995.8 L 483.2 1001.4 L 468.6 1017.9 L 466.7 1000.4 L 453.2 1005.1 L 427.3 1002.9 L 402.3 997.8 L 384.3 988.1 L 367 983.7 L 359.6 973.1 L 347.1 969.9 L 324.7 955.4 L 307 948.6 L 297.8 953.9 L 267 938.4 L 245.2 924.4 L 239 899.9 L 254.9 902.9 L 255.6 891.6 L 246.8 880.3 L 249 862.2 L 225.2 836.2 L 188.7 827.2 L 182.2 810.2 L 165.8 799.8 L 161.8 793.5 L 158.5 780.8 L 159.3 772.2 L 145.8 767.2 L 138.5 769.4 L 132.9 748.9 L 139.2 743.8 L 136.2 738.6 L 157.3 728.1 L 172.6 723.8 L 196.1 726.8 L 204.5 712.6 L 232.9 710 L 240.8 701.2 L 275.8 689.2 L 278.9 684.2 Z" />
<path class="neighbor" d="M 1645.3 754.4 L 1624.8 776.8 L 1625.1 799.6 L 1616.8 817.3 L 1620.7 828.4 L 1609.1 844.1 L 1580.8 854.5 L 1541.8 855.9 L 1510.2 881.2 L 1495.3 872.7 L 1494.4 856.1 L 1455.8 861 L 1429.6 871.4 L 1403.6 871.8 L 1426.1 888.2 L 1411.3 925.8 L 1397 935.2 L 1386.3 926.5 L 1391.7 906.6 L 1377.7 900.1 L 1368.6 884.9 L 1389.6 878.1 L 1401.2 864.1 L 1423.5 852.7 L 1439.8 837.5 L 1483.9 830.9 L 1507.6 835.4 L 1530.8 796 L 1545.6 806.6 L 1578.2 784.4 L 1590.8 775.8 L 1604.7 748.7 L 1600.9 723.8 L 1610.3 709.8 L 1633.8 705.7 L 1645.9 736.5 L 1645.3 754.4 Z M 1705.8 648.4 L 1721.5 639 L 1726.4 663.9 L 1693.5 670 L 1674.1 692 L 1639.2 676.9 L 1627.2 701.1 L 1602.5 701.5 L 1599.4 679.4 L 1610.4 662.4 L 1634.1 661.1 L 1640.6 630.5 L 1647.1 613.2 L 1673.2 636.3 L 1690.2 643.7 L 1705.8 648.4 Z M 1434.3 881.2 L 1446.6 868 L 1459.2 870.5 L 1468.3 861.2 L 1484.6 866 L 1487.4 873.6 L 1475 887 L 1465.9 879.9 L 1454.5 885.1 L 1448.6 898 L 1434.2 891.7 L 1434.3 881.2 Z" />
<path class="lake" d="M 935.3 391.7 L 935.3 391.7 L 935.3 391.7 L 935.1 393.8 L 934.4 394.8 L 933.7 396.4 L 933.5 397.5 L 932.8 399.6 L 932.6 400.6 L 933.2 401.8 L 933.1 402.8 L 932 405.2 L 931.7 405.9 L 931.3 407 L 930.5 408 L 930.2 408.7 L 929.6 410.9 L 928.2 411.9 L 927.7 413.5 L 927 417.4 L 927.1 420 L 928.4 422 L 928.5 422.4 L 928.1 423.3 L 927.2 424.5 L 925.6 425.9 L 921.5 428.8 L 920.8 429.7 L 920.5 430.5 L 920.7 431.7 L 920.7 433 L 920.6 433.4 L 920.1 433.9 L 916.8 433.9 L 916.3 433.2 L 916.9 431.2 L 917.5 430.2 L 917.5 429.6 L 916.9 429 L 916 428.8 L 914.9 428.9 L 913.7 429.4 L 912.5 430.1 L 907.7 435.1 L 905.8 436.6 L 906 436.8 L 908.3 435.9 L 910.2 435.4 L 912.6 435 L 914.4 435.5 L 915.4 436.8 L 915.9 438 L 915.7 439.3 L 914.6 440.4 L 911 441.8 L 910.1 441.9 L 909.5 441.7 L 909 441.3 L 908.6 441.3 L 902.7 444.4 L 900.7 445.6 L 900.6 446 L 901.3 446.8 L 901.4 447.2 L 900.3 448.3 L 899.2 449.2 L 894.1 451.6 L 892.8 452.9 L 888.7 454.4 L 886.7 454.6 L 884.6 454.7 L 880.4 455.8 L 874 458.2 L 870.4 459.7 L 869.7 460.3 L 868.3 462.3 L 867.5 462.9 L 866.3 463.2 L 865 462.7 L 862.9 462 L 860.6 461.7 L 858.3 462.3 L 856.6 463 L 855.6 463.9 L 855.3 465.1 L 855.8 466.4 L 855.4 467.9 L 853.8 471.2 L 852.6 472.1 L 851.1 473.2 L 848.9 475.2 L 845.1 476.8 L 837.1 478.7 L 828.9 480 L 825.3 480.8 L 823.6 481.5 L 819.8 481.7 L 813.9 481.3 L 808.7 480.5 L 801.2 478.3 L 799.6 477.5 L 798.9 477 L 799.1 476.6 L 799.6 476.4 L 800.6 476.1 L 808.2 475.3 L 812.9 475 L 817.2 475 L 820 474.5 L 821.3 473.6 L 823.3 473.1 L 824.5 473.1 L 826 473.1 L 828.6 472.8 L 831.1 472.3 L 832.8 471.6 L 833.8 470.7 L 835.1 470 L 836.7 469.5 L 840.1 467.8 L 842.8 465.4 L 846.5 461.6 L 851 458.8 L 856.1 457.1 L 859.6 455.6 L 861.5 454.5 L 862.4 453.8 L 865.2 451.8 L 866.4 450.9 L 867 450.1 L 869.2 448.6 L 869.5 448 L 869 447.4 L 866.8 447.5 L 866.9 447 L 868.5 445.7 L 873.4 442.7 L 876.9 441 L 883.6 438.3 L 883.9 438 L 884 436.9 L 884.6 435.9 L 885.7 434.5 L 889.3 432.3 L 895.3 429.2 L 898.9 426.4 L 900.1 425 L 900.6 424.1 L 902 422 L 903 421.2 L 904.5 419.7 L 905.5 418.1 L 906.1 416.3 L 907.1 414.9 L 910 412.5 L 911.4 410.9 L 912.3 409.5 L 912.7 408.1 L 913.5 406.9 L 914.6 405.9 L 914.9 405.2 L 914.3 404.8 L 915.1 404.1 L 917.3 403.1 L 918.6 401.5 L 919.9 399.4 L 920.5 397.9 L 920.9 394.7 L 920.4 393.4 L 920.4 391.8 L 921.4 390.9 L 923.1 390.2 L 927.4 387.5 L 928.9 386.6 L 930.9 386.4 L 933 386.5 L 934.9 386.9 L 937.3 388.8 L 935.2 390.9 L 935.3 391.7 Z M 888.8 442.1 L 888.8 442.1 L 888.8 442.1 L 889.4 439.3 L 888.3 439.2 L 884.7 441.7 L 879.6 443.4 L 873.8 445.1 L 871.7 445.7 L 870.9 446.3 L 871 447.5 L 878.8 446.5 L 881.5 445.8 L 886 443.1 L 888.8 442.1 Z" />
<path class="lake" d="M 235.5 678.9 L 235.3 679.4 L 232.3 679.7 L 229.1 681.1 L 225.9 682.4 L 225.5 683 L 225.6 683.8 L 222.5 686.6 L 219.8 687.5 L 218 687.9 L 209.6 688.2 L 207.1 688.1 L 204.9 687.7 L 197.3 685.5 L 194 684.8 L 191.7 684.6 L 190.3 684.7 L 189.5 683.3 L 189.2 682.3 L 189.5 681.7 L 194.5 681.1 L 201 679.4 L 205.8 678.3 L 210.8 677.6 L 214.1 677.1 L 218.5 677.5 L 221.8 676.4 L 230.2 675.8 L 234.3 675.7 L 232.1 677 L 231.4 677.7 L 231.8 678.5 L 235.5 678.9 L 235.5 678.9 L 235.5 678.9 Z" />
<path class="lake" d="M 373.3 560.4 L 371.3 562.1 L 370.6 563 L 369.7 564.8 L 368.4 565.6 L 367.2 565.4 L 361.7 562.4 L 356.6 560 L 353.5 558.6 L 349.5 557.8 L 345.4 556.8 L 341.5 554.9 L 340.2 554.2 L 340.5 553.4 L 343.7 553.4 L 345.8 553.1 L 349.3 552.9 L 350.7 552.1 L 351.5 550.6 L 349.9 549.3 L 348.3 547.8 L 348.2 546.6 L 348.9 545.6 L 349 542.4 L 350.1 539.9 L 352.7 537.6 L 356.2 535.8 L 359 535.3 L 362.6 534.3 L 364.5 533.2 L 364 531.4 L 361.2 529.4 L 358.5 527.5 L 355.7 527 L 354.3 526.9 L 353.1 525.9 L 351.6 524.9 L 350.3 524.8 L 349.1 524 L 347.7 522.8 L 347.7 522.4 L 348.3 522.3 L 353.1 523.3 L 356.1 522.7 L 359.4 520.7 L 361 520.6 L 361 521.1 L 357.8 522.7 L 357.3 523.5 L 356.4 524.2 L 355.8 524.8 L 357.9 526 L 368.2 531.4 L 369.8 533.2 L 369.1 533.9 L 365.1 534.8 L 358.8 536.8 L 356.9 537.3 L 353.2 538.7 L 351.1 540.9 L 350.4 543 L 351.1 545.2 L 353.3 549.2 L 356.8 549.8 L 360 550.1 L 359.8 550.6 L 354.8 551.1 L 352.9 552.2 L 352.5 553 L 353.7 553.5 L 356.1 554.5 L 359.2 555.5 L 363 557 L 365.5 557.6 L 369.2 558.4 L 372.2 559.6 L 373.3 560.4 L 373.3 560.4 L 373.3 560.4 L 373.3 560.4 Z" />
<path class="lake" d="M 734 483.6 L 733.7 485.9 L 733.2 487.4 L 732.8 489.3 L 731.8 491.9 L 731.8 492.7 L 727.8 496.6 L 727 498.2 L 726.5 499.9 L 727.1 500.7 L 727.1 501.2 L 726.4 501.9 L 724.8 502.6 L 720.9 503.6 L 720.6 502.8 L 720.9 501.4 L 721.6 500 L 722.1 498.1 L 723.2 490 L 722.9 486.8 L 724.5 484.6 L 725.5 483.7 L 725.2 482.6 L 725 482 L 727.5 480 L 728.2 479.1 L 729 478.8 L 733.3 482.5 L 734 483.6 L 734 483.6 L 734 483.6 L 734 483.6 Z" />
<path class="lake" d="M 546.2 507.9 L 544.4 505.4 L 546.9 504 L 551.3 502.6 L 556.7 500.9 L 559 499.9 L 560.6 500.4 L 561.2 501.1 L 560.9 502.6 L 563.1 505.1 L 566.4 506.5 L 567.1 506.6 L 567 507.3 L 568.6 507.7 L 569.4 508.3 L 568 508.9 L 566.2 509 L 563.5 510.1 L 561.8 511.3 L 559.4 513.3 L 555.2 514.3 L 552.5 514.4 L 550.3 513.4 L 547.7 511.4 L 546.7 509.5 L 546.2 507.9 L 546.2 507.9 L 546.2 507.9 L 546.2 507.9 Z" />
<path class="lake" d="M 1444.1 624.3 L 1442.6 626.7 L 1439.7 631.8 L 1436.3 634 L 1434.2 635.8 L 1432.2 635 L 1431.4 634.1 L 1431.5 633.6 L 1429.8 632.6 L 1427.6 631.1 L 1428 628.7 L 1428.5 626.1 L 1426.4 623.8 L 1426.5 622.6 L 1426.2 620.7 L 1427.7 619 L 1431.2 618.1 L 1435 618.1 L 1439 618.8 L 1442.2 620.3 L 1444 622.1 L 1444.1 624.3 L 1444.1 624.3 L 1444.1 624.3 L 1444.1 624.3 Z" />
<path class="lake" d="M 733.3 807 L 733.1 807.6 L 732.6 808.4 L 732.6 810 L 732.2 811.9 L 730.5 812.6 L 728.2 812.1 L 726.1 810.7 L 721.6 810.7 L 715.7 809.9 L 712.8 808.6 L 709.9 806 L 708.8 804.8 L 709.5 804 L 711.3 803.9 L 712.5 803.8 L 712.9 803.1 L 712.2 801.3 L 711.9 799.5 L 713 798.7 L 715.6 798 L 718.9 798.3 L 722.7 799.5 L 726.5 802.2 L 729.6 804.9 L 733.3 807 L 733.3 807 L 733.3 807 L 733.3 807 Z" />
<path class="lake" d="M 201 407.4 L 203.7 406.3 L 208.1 405.5 L 209.6 405.4 L 210.3 406.2 L 212.1 406.9 L 213.1 406.1 L 213.4 405.3 L 213.9 404.4 L 216.2 403.2 L 219.3 402.5 L 220.7 402.4 L 221.4 402.5 L 222.1 402.6 L 222.7 403.1 L 226.1 403.5 L 229.5 404.2 L 229.9 405.3 L 227.4 406.1 L 224.5 406.7 L 223.8 406.8 L 222 407.4 L 220.9 408.1 L 220.7 408.8 L 222 409.4 L 222.8 410.5 L 223 411.2 L 222 411.8 L 219.9 412.2 L 219.1 412 L 219.3 411.5 L 218.2 411.1 L 216.3 410.7 L 214.5 410.5 L 212.1 409.8 L 207.8 409.6 L 207 409.7 L 205.4 410 L 202.8 410.3 L 200.7 410 L 201.1 408.4 L 201 407.4 L 201 407.4 L 201 407.4 Z" />
<path class="lake" d="M 320.4 608.5 L 311.9 606.1 L 307.6 604 L 304.8 602 L 304.3 599.9 L 304.4 598 L 304.2 596.5 L 305.1 594.5 L 307.1 593.2 L 309.7 593.1 L 312.2 593.7 L 313.9 594.5 L 315.5 595.5 L 316.9 597.1 L 318 599.1 L 318.3 601.5 L 318.9 604.5 L 320.4 608.5 L 320.4 608.5 L 320.4 608.5 Z" />
<path class="lake" d="M 1098.6 545.9 L 1096.1 546.4 L 1095.5 546 L 1095.9 544.9 L 1095.6 543.3 L 1093.8 541.5 L 1093.3 540.2 L 1094.8 538.8 L 1098.5 536.7 L 1102.2 533.6 L 1105.2 530.7 L 1107.6 529.1 L 1108.8 528.9 L 1109.2 529.6 L 1108.8 530.6 L 1108.7 531.8 L 1109.4 532.7 L 1110.1 532.9 L 1110.7 533.2 L 1111.5 533.9 L 1113.5 534.3 L 1115.9 534.4 L 1116.5 535.1 L 1114.9 535.9 L 1112.9 536 L 1111.8 535.4 L 1110.6 535.4 L 1109.8 536.1 L 1109.4 537 L 1104.9 540.1 L 1100.8 543.5 L 1100.4 544.8 L 1098.6 545.9 L 1098.6 545.9 L 1098.6 545.9 Z" />
<path class="lake" d="M 436.7 695.2 L 434.1 694.3 L 430.6 694.1 L 426 694.8 L 422.9 695.8 L 422.3 695.2 L 422.5 694.1 L 423.8 692.5 L 424.5 690.3 L 425.9 689.5 L 428.5 690.1 L 435.3 691.6 L 436.7 694 L 436.7 695.2 L 436.7 695.2 L 436.7 695.2 Z" />
<path class="lake" d="M 556.6 554.9 L 553 556.7 L 549 558.2 L 547 559.7 L 545.4 562.2 L 543.6 564 L 541.1 563 L 539 560.4 L 538.7 558.7 L 541.5 557.7 L 544.7 556 L 544.7 553 L 545.6 551.1 L 547.3 550.9 L 548.6 550.9 L 549.9 551.4 L 548.1 553.6 L 548.2 555.4 L 549.8 555.8 L 551.3 555.8 L 553.5 554.6 L 553.5 552.9 L 553.4 551.6 L 555.5 552 L 557 553.3 L 556.6 554.9 L 556.6 554.9 L 556.6 554.9 Z" />
<path class="lake" d="M 486.2 791.8 L 484.1 792 L 480.8 791.6 L 477.8 791.1 L 475.9 790.8 L 474.8 790.4 L 474.5 789.8 L 475.9 789.5 L 478.8 789.2 L 481.5 788.8 L 483.5 788.9 L 485.2 789.2 L 486.4 789.6 L 487 790 L 486.9 790.5 L 486.9 791.1 L 487 791.5 L 486.2 791.8 L 486.2 791.8 L 486.2 791.8 L 486.2 791.8 Z" />
<path class="lake" d="M 1106.4 565.9 L 1105.9 565.3 L 1105.2 564.7 L 1105.3 563.8 L 1106.1 562.5 L 1107.7 561.1 L 1109.2 560.1 L 1110.5 559.8 L 1111.3 560 L 1112.2 560.9 L 1112.8 561.9 L 1112.5 562.8 L 1111.4 563.9 L 1109.7 565.1 L 1108 566 L 1107 566.3 L 1106.5 566.2 L 1106.4 565.9 L 1106.4 565.9 L 1106.4 565.9 L 1106.4 565.9 Z" />
<path class="lake" d="M 268 448.8 L 267.5 449.5 L 267.2 450.3 L 267.3 450.8 L 267.6 451.1 L 267.2 451.5 L 266.3 451.8 L 264.3 451.6 L 262.4 451.2 L 261 450.3 L 259.8 449.3 L 259.5 448.6 L 259.5 447.9 L 259.8 447.1 L 260.4 446.4 L 261.4 445.8 L 264.1 444.8 L 265.1 445 L 266.4 445.4 L 267.3 446 L 268 447 L 268.5 447.8 L 268.9 448.1 L 268 448.8 L 268 448.8 L 268 448.8 Z" />
<path class="lake" d="M 126.5 446.5 L 125.1 445.5 L 122.3 443.5 L 119.9 442.1 L 118.2 442 L 117 442.5 L 116.4 442.3 L 116.2 441.8 L 117 441.2 L 117.5 440.4 L 117.6 439.9 L 118.6 439.5 L 120.3 439.3 L 122.4 439.2 L 125 439.6 L 126.9 440 L 127.3 440.6 L 127.3 442.4 L 127.2 444.6 L 127 445.6 L 126.9 446.1 L 126.9 446.4 L 126.5 446.5 L 126.5 446.5 L 126.5 446.5 L 126.5 446.5 Z" />
<path class="lake" d="M 280.4 391.7 L 280 392.7 L 277.8 393.7 L 275.3 394.5 L 272.8 395 L 270.9 395.1 L 269.7 394.9 L 269.2 394.3 L 269.2 393.7 L 270.5 393.1 L 272.8 392.2 L 275 391.5 L 277.2 391.2 L 279.1 391.2 L 279.9 391.2 L 280.4 391.7 L 280.4 391.7 L 280.4 391.7 Z" />
<path class="lake" d="M 95.8 377 L 96 377.6 L 95.5 378.3 L 94.6 379.1 L 92.9 379.1 L 91.7 379.4 L 90.8 379.6 L 90.2 380.1 L 89.5 380.2 L 88.6 380 L 88.3 379 L 87.4 377.6 L 87.8 377.3 L 89.6 377.1 L 91.8 377.3 L 92.7 377.3 L 93.1 376.9 L 94.5 376.8 L 95.8 377 L 95.8 377 L 95.8 377 L 95.8 377 Z" />
<path class="lake" d="M 579.1 533.9 L 578.7 534.4 L 576.4 535.2 L 573.3 536 L 571.4 536.5 L 570.2 536.9 L 568.5 535.9 L 566.7 534.6 L 565.4 534.2 L 563.7 533.6 L 560.8 532.6 L 558.4 531.7 L 557.7 531.1 L 557.7 530.5 L 558.4 529.9 L 560.1 529.7 L 562.7 529.6 L 567.1 530.2 L 570.7 531.7 L 571.8 532.2 L 572.8 532 L 573.8 532.2 L 575.9 532 L 577.4 532.5 L 578.8 533.2 L 579.1 533.9 L 579.1 533.9 L 579.1 533.9 L 579.1 533.9 Z" />
<path class="lake" d="M 124.4 697.3 L 123.8 697.4 L 122.4 697.6 L 120.3 697.3 L 117.3 697.4 L 114.4 697.7 L 110.8 699.4 L 110.2 699.3 L 109.8 698.9 L 110.3 698.5 L 111 698 L 111.5 697.1 L 111 695.9 L 110.4 694.7 L 111 694.2 L 113.9 694.2 L 116.6 694.6 L 118.2 695.1 L 119.8 695.7 L 123.2 696.3 L 124.6 696.9 L 124.4 697.3 L 124.4 697.3 L 124.4 697.3 Z" />
<path class="lake" d="M 250.8 586.6 L 250.8 586.6 L 250.8 586.6 L 250.8 586.6 L 251.4 586.2 L 251.5 585.6 L 252.1 585.3 L 252.8 585.3 L 253.7 585.5 L 254.9 586.3 L 255.9 587.3 L 256.4 588.2 L 256.4 588.9 L 256.2 589.2 L 255.8 589.7 L 254.5 589.9 L 253.1 590.3 L 252.5 591.6 L 251.5 593.3 L 250.3 594.2 L 248.5 595 L 246.2 594.7 L 244.6 594.4 L 242.7 594.8 L 240.9 594.3 L 239.1 594.5 L 238.5 594.9 L 238.4 595.4 L 239 596.3 L 238.7 596.6 L 237.9 596.6 L 236.9 595.7 L 235.8 595.5 L 234 595.8 L 232.4 596.2 L 231.6 596.2 L 230.5 596 L 229.2 595.6 L 225.8 593.7 L 224.7 593.5 L 223.9 593.9 L 222.7 594.2 L 221.1 594 L 219.1 593.6 L 216.1 592.2 L 214.5 592.1 L 212.9 592.7 L 210.3 592.4 L 208.9 593.2 L 206.7 593 L 203.3 592.3 L 200.9 591.4 L 194.7 591.2 L 189.7 590.9 L 188.4 591.4 L 185.2 591.9 L 182.4 591.4 L 181.5 591.4 L 178.1 591.8 L 175.8 592 L 174.6 591.5 L 173.7 590.7 L 173.2 590 L 173.1 589.2 L 173.5 589.1 L 174.4 589.2 L 174.7 588.9 L 174.7 588.8 L 174.5 588.3 L 173.6 588.2 L 172.5 588.4 L 171.5 589 L 171.2 589.7 L 171.9 591.2 L 172.2 592.2 L 171.3 592.8 L 170 592.8 L 169.6 591.9 L 169 591.7 L 168.4 591.8 L 167.9 592.7 L 167.6 593.3 L 167 593.8 L 165.6 593.5 L 165 593.3 L 164.3 593 L 163.8 593.2 L 162.5 594 L 160.3 594.3 L 159.8 594.9 L 159.1 596.7 L 158.2 598.5 L 157.7 600.3 L 157.2 600.8 L 153.4 602.7 L 152.3 603.1 L 148.3 602.8 L 146.3 603.1 L 145.8 603.8 L 145.7 604.5 L 146.8 607.9 L 146.5 608.5 L 145.7 608.5 L 145.5 608.7 L 145.5 609 L 147 610 L 147 610.5 L 146.5 611 L 145.2 611.8 L 142.3 613.5 L 142.1 614.1 L 141.9 617.6 L 142 617.8 L 142.9 617.9 L 143.4 618.4 L 143.6 619.4 L 143.3 623.1 L 143.1 623.9 L 142.3 624.1 L 142.2 624.5 L 142.7 625.4 L 142.3 625.7 L 141.3 625.5 L 140.5 625.1 L 140.3 624.7 L 140.4 624.2 L 140 622.9 L 140.3 622.2 L 140.1 621.2 L 139.7 620.9 L 137.4 620.1 L 136.5 619.6 L 132.6 615.7 L 131.6 614 L 128.2 612.5 L 127.6 611.9 L 127.8 610.8 L 128.9 610.2 L 129.7 609.1 L 129.4 608.5 L 127.9 608.1 L 127.7 607.5 L 128.2 607.1 L 128.8 607 L 130.3 607.3 L 132 605.3 L 133.8 603.6 L 134.3 603 L 132.6 601.9 L 132.4 601.2 L 132.2 599.9 L 133 599.2 L 134.6 598.7 L 135.1 598.7 L 136.3 599.1 L 137.8 598.6 L 139.7 599.1 L 140.6 598.7 L 140.7 598.3 L 139 596.8 L 140.6 595 L 142.2 593.7 L 146.3 592.8 L 148.4 591.7 L 149.6 590.4 L 151.7 589.4 L 152.4 587.9 L 154 586.6 L 157.9 585.9 L 160.9 585.1 L 161.7 585.2 L 164.2 585.2 L 165.9 586.1 L 166.7 586.4 L 169.8 587 L 171.7 586.9 L 180.6 585.1 L 183.3 585.6 L 188.9 585.9 L 191 586.5 L 191.9 587.1 L 193.4 588.6 L 194.4 589 L 195.4 589.1 L 197.7 588.5 L 199.3 588.3 L 200 588.4 L 202 589.3 L 203.5 589 L 208.4 589.4 L 210.5 590.9 L 211.6 590.7 L 212.5 589.7 L 214.8 589.4 L 220 589 L 220.9 588.7 L 221.9 588.6 L 225.7 588.9 L 231.8 590 L 232.5 590.4 L 235.4 592.8 L 236 592.5 L 236.5 591.9 L 236.7 589.4 L 236.9 589 L 237.6 588.7 L 238.4 588.8 L 238.8 589.5 L 239.4 589.4 L 240 588.5 L 241 587.6 L 241.7 587.2 L 242.8 586.7 L 245.7 587.2 L 246.2 586.9 L 246.2 586.5 L 246.4 585.9 L 247 585.6 L 248 585.5 L 249.4 585.8 L 250.8 586.6 Z" />
<path class="lake" d="M 373.3 560.4 L 371.3 562.1 L 370.6 563 L 369.7 564.8 L 368.4 565.6 L 367.2 565.4 L 361.7 562.4 L 356.6 560 L 353.5 558.6 L 349.5 557.8 L 345.4 556.8 L 341.5 554.9 L 340.2 554.2 L 340.5 553.4 L 343.7 553.4 L 345.8 553.1 L 349.3 552.9 L 350.7 552.1 L 351.5 550.6 L 349.9 549.3 L 348.3 547.8 L 348.2 546.6 L 348.9 545.6 L 349 542.4 L 350.1 539.9 L 352.7 537.6 L 356.2 535.8 L 359 535.3 L 362.6 534.3 L 364.5 533.2 L 364 531.4 L 361.2 529.4 L 358.5 527.5 L 355.7 527 L 354.3 526.9 L 353.1 525.9 L 351.6 524.9 L 350.3 524.8 L 349.1 524 L 347.7 522.8 L 347.7 522.4 L 348.3 522.3 L 353.1 523.3 L 356.1 522.7 L 359.4 520.7 L 361 520.6 L 361 521.1 L 357.8 522.7 L 357.3 523.5 L 356.4 524.2 L 355.8 524.8 L 357.9 526 L 368.2 531.4 L 369.8 533.2 L 369.1 533.9 L 365.1 534.8 L 358.8 536.8 L 356.9 537.3 L 353.2 538.7 L 351.1 540.9 L 350.4 543 L 351.1 545.2 L 353.3 549.2 L 356.8 549.8 L 360 550.1 L 359.8 550.6 L 354.8 551.1 L 352.9 552.2 L 352.5 553 L 353.7 553.5 L 356.1 554.5 L 359.2 555.5 L 363 557 L 365.5 557.6 L 369.2 558.4 L 372.2 559.6 L 373.3 560.4 L 373.3 560.4 L 373.3 560.4 L 373.3 560.4 Z" />
<path class="lake" d="M 794.9 433.9 L 794.9 433.9 L 794.9 433.9 L 794.9 433.9 L 799.2 434.7 L 799.4 435.7 L 799.6 437 L 799.2 437.3 L 798.3 436.7 L 796.6 435.8 L 794 435.5 L 792.9 436.5 L 792.5 437.5 L 792.9 443.1 L 791.4 445.6 L 790.7 443 L 790.7 435.3 L 789.2 433 L 785.2 431.6 L 780.2 430.5 L 781.5 429.9 L 785.7 430.9 L 787.7 430.1 L 785.7 427.2 L 783.2 424.4 L 782.8 422.4 L 783.5 419.6 L 785.5 416.7 L 786.9 416.5 L 787.9 415.1 L 787.2 412 L 785.1 410.1 L 783.8 408.5 L 784.6 405.4 L 788.1 402.7 L 789.4 400.2 L 789.1 397 L 787.1 392.9 L 786.4 390.9 L 786.2 388.5 L 784.8 386.2 L 782.9 384.8 L 782.2 382.4 L 781.3 380.1 L 779.8 379.2 L 778.6 379.1 L 776.8 378.3 L 774.1 378 L 772.7 378 L 772.2 378.1 L 771.9 378.7 L 771.6 379.1 L 770.7 379.5 L 769.7 379.5 L 767.8 379.1 L 766.2 379.2 L 764.9 380 L 760.6 380.9 L 760.9 382.4 L 760.4 383.7 L 758.8 385.2 L 759 386.3 L 760.7 387.5 L 762.8 387.8 L 763 388.3 L 762.1 389 L 763.2 389.7 L 768.3 390.6 L 769.5 391.6 L 769.1 392.9 L 767.9 394 L 767.8 394.8 L 768.2 395.8 L 768.5 396.6 L 769.6 397 L 770.5 397.4 L 769.6 397.9 L 768.6 398.5 L 768 399.4 L 767.2 400.5 L 766.1 401.4 L 765 402.1 L 763.6 402.5 L 764.1 401.9 L 765 401.1 L 765.5 400.4 L 766.7 399.6 L 767 398.8 L 768.2 397.7 L 767.8 397 L 767.2 396 L 766.7 394.6 L 766.9 393.8 L 767.7 392.7 L 767.6 391.9 L 765.7 392.3 L 762.5 393.6 L 756.2 394.5 L 755.6 394 L 755.6 393.3 L 760.5 392.1 L 760.3 391.2 L 758.9 390.6 L 756.6 389.2 L 756.2 386.6 L 755.2 385.8 L 749.9 384 L 747.9 383.2 L 745.9 382.7 L 744.8 381.9 L 746.6 381.8 L 749.5 382.2 L 752.3 382.2 L 752.8 382 L 754.4 382.1 L 754.9 381.2 L 755 380 L 754.3 379.4 L 753.7 378.5 L 754.4 377.6 L 754.2 376.7 L 754.5 375.7 L 755.8 375.2 L 756.6 375.1 L 758 376.3 L 759.4 376.1 L 760.1 376.5 L 759.2 377.8 L 759.7 378.7 L 762.1 378 L 766.6 376.5 L 766.7 375.9 L 771.2 375.9 L 771.4 374.6 L 772.5 373.8 L 773.8 374.1 L 774 374.9 L 774.8 375.9 L 777 376 L 778.7 375.7 L 779.2 376.3 L 780.3 377.1 L 781.8 377.1 L 783.1 376.6 L 783.6 376.8 L 783.3 378.3 L 783.5 380.5 L 784.5 383.3 L 786.3 385.8 L 788.6 387.9 L 788.6 388.8 L 788.1 391.3 L 790.5 395.8 L 791.2 398.8 L 790.8 400.8 L 789.9 403.2 L 787.2 406.4 L 786.5 408.1 L 787.9 409.9 L 789.3 413 L 789.4 415.2 L 790.8 418.7 L 792.5 421.3 L 793.4 422.3 L 791.9 422.1 L 790.2 419.1 L 788.9 418.3 L 787.7 419 L 786.3 420.5 L 785.4 422.6 L 786.7 425.8 L 789.7 428.6 L 789.7 429.4 L 790.4 430.8 L 792.8 433 L 794.9 433.9 Z" />
<path class="lake" d="M 518.2 509.9 L 518.2 509.9 L 518.2 509.9 L 518.2 509.9 L 519.6 510.7 L 519.9 511.7 L 518.8 512.3 L 516.2 512.8 L 514.6 511.5 L 515.7 509.8 L 518.2 509.9 Z" />
<path class="country" d="M 445 530.1 L 468.4 526.3 L 510.7 507.2 L 544.4 496.8 L 563.7 503.6 L 586.8 503.9 L 601.6 514.2 L 623.8 515 L 655.8 520.6 L 677.4 505.2 L 668.4 492.1 L 691.3 469.1 L 716.2 478.3 L 736.3 480.9 L 762.4 486.6 L 766.6 503.2 L 798.1 512.5 L 819.1 508.4 L 847.1 505.5 L 869.3 508.5 L 891 519.1 L 904.5 530.5 L 925.1 530.2 L 953 533.8 L 973.4 528.3 L 1002.6 524.7 L 1035 509 L 1048.3 511.4 L 1059.9 518.9 L 1086.4 517 L 1075.6 533.7 L 1059.9 555.9 L 1065.6 565 L 1078.2 562.1 L 1100.1 565.6 L 1117.1 557.4 L 1134.9 564.5 L 1155 580 L 1152.6 587.9 L 1135.1 585.4 L 1102.9 588.3 L 1087.3 594.6 L 1071 609.3 L 1037.2 617.9 L 1015.1 629.6 L 992.3 625.1 L 979.8 623.1 L 968.2 637.4 L 975.3 646 L 978.9 653.3 L 963.4 660.7 L 947.4 672.6 L 921.5 680.4 L 888.3 681.2 L 852.5 688.9 L 826.7 700.9 L 816.9 694 L 790 694 L 757.2 680.5 L 735.3 677.2 L 705.9 680.3 L 660.1 675.3 L 635.6 675.8 L 622.6 662.7 L 612.5 642.2 L 598.8 639.8 L 572 626 L 542.2 622.9 L 515.8 619.1 L 507.8 609.4 L 516.4 583.5 L 501.1 565.7 L 469.5 557.4 L 450.8 545.6 L 445 530.1 Z" />

<path class="river" d="M 860.6 461.7 L 859.3 461 L 857.4 461.2 L 854.5 462.2 L 851.1 464.3 L 847.3 467.6 L 843.5 470.2 L 839.8 472.2 L 835.5 473.6 L 830.6 474.3 L 827.2 474.2 L 824.5 473 M 791.4 445.6 L 792 441.8 L 792.1 438.6 L 791.6 434.8 L 789.3 430.4 L 785 425.1 L 784.4 421 L 787.3 418 L 788.7 415.2 L 788.4 412.6 L 787.4 410.4 L 785.5 408.7 L 786 406.1 L 789 402.6 L 790.4 399.7 L 790.1 397.4 L 789.3 395.3 L 787.9 393.3 L 787.2 390.9 L 787.3 388.3 L 786.4 386.5 L 784.7 385.3 L 783.6 383.8 L 783.3 382 L 782.3 380.2 L 780.7 378.7 L 777.6 377.7 L 773 377.2 L 767.7 377.8 L 761.6 379.5 L 757.9 379.9 L 756.5 379.1 L 756 377.8 L 756.6 375.1 M 775.9 338.4 L 775.9 340.4 L 775.4 341.8 L 774.4 343.4 L 772.8 345.2 L 770.6 347.1 L 769.2 349.5 L 768.6 352.2 L 768.4 355 L 768.9 359.3" />
<path class="river" d="M 445.1 484.3 L 443.5 478.3 L 441.5 476.1 L 437 475.5" />
<path class="river" d="M 347.7 522.4 L 353 525.2 L 355.8 526.3 L 358 526.6 L 360.9 528.3 L 364.8 531.3 L 366.4 533.1 L 365.7 533.8 L 362.1 535.2 L 355.5 537.1 L 351.5 539.2 L 350 541.5 L 349.6 544.1 L 350.3 546.9 L 351.3 548.8 L 352.7 549.9 L 352.7 550.9 L 351.4 551.8 L 350.9 552.8 L 351.1 554 L 353.9 555.9 L 359.3 558.5 L 363.4 561.1 L 366.2 563.5 L 368.1 564.8 L 369.7 564.8" />
<path class="river" d="M 124.6 696.9 L 116.4 696.6 L 112.8 697.2 L 110.2 699.3" />
<path class="river" d="M 340.2 407.1 L 324.4 415 L 317.6 417.9 L 314.4 418.5 L 311.7 419.9 L 309.5 421.9 L 306.9 423.5 L 304 424.7 L 302.6 426.1 L 302.7 428.4" />
<path class="river" d="M 703.9 484.6 L 701.3 483.3" />
<path class="river" d="M 528.4 431.7 L 527.1 429.6 L 527.4 428 L 528.7 426.1 L 529.4 424.8 L 529.2 424.1 L 527.8 422.2 L 525 419 L 523.4 416.7 L 523 415.2 L 521 413.7 L 517.4 411.9 L 515.7 409.9 L 515.9 407.4 L 516.8 405.3 L 518.4 403.6 L 524.8 401.8 L 536 399.8 L 543.2 397.2 L 548.3 392.5" />
<path class="river" d="M 1239.1 369.8 L 1231.1 369.1 L 1228.8 369.1 L 1228 368.6 L 1228 367.6 L 1228.5 366.4 L 1229.5 365 L 1230.3 363 L 1230.8 360.4 L 1233.1 357.3 L 1237.1 353.8 L 1238.9 351.8 L 1238.5 351.2 L 1238.8 350.3 L 1239.8 349.3 L 1239.6 348.6 L 1238.3 348.3 L 1237.8 347.4 L 1238.1 346 L 1238.7 344.9 L 1239.4 344.2 L 1240.5 344.2 L 1242 344.8 L 1243.3 344.5 L 1244.5 343.4 L 1244.4 341.8 L 1242.9 339.8 L 1242.5 337.7 L 1243.1 335.5 L 1244.8 333.8 L 1247.7 332.4 L 1248.4 331.2 L 1248.5 330.7 L 1249.2 330.2 L 1251 329.9 L 1253.8 329.8 L 1255.3 329.1 L 1255.6 327.6 L 1256.4 326 L 1258.6 323.2 L 1261.6 321.2 L 1263.2 320.6 L 1264.6 320.7 L 1265.6 320.3 L 1266.1 319.4 L 1267.5 318.9 L 1269.7 318.7 L 1271.6 318.1 L 1273.2 317 L 1274.1 316.1 L 1274.3 315.3 L 1275.4 314.6 L 1277.6 314.2 L 1278.4 313.5 L 1277.8 312.6 L 1277.8 311.8 L 1278.3 311.2 L 1278.4 310.4 L 1277.9 309.5 L 1277.9 308.6 L 1278.3 308 L 1279.9 308 L 1282.6 308.8 L 1285 310 L 1287.2 311.7 L 1290.3 312.9 L 1294.5 313.8 L 1297.4 314.8 L 1299 316 L 1303.5 317.3 L 1311 318.7 L 1315.4 319.9 L 1316.8 320.7 L 1318.3 320.6 L 1320.2 319.5 L 1322.3 319.2 L 1324.9 319.5 L 1326.8 319.3 L 1328 318.5 L 1329.8 318.3 L 1332.1 318.9 L 1333.3 319.6 L 1333.4 320.5 L 1334.2 321.3 L 1335.8 321.9 L 1337.5 321.4 L 1339.2 319.8 L 1340.9 319 L 1342.5 319.1 L 1343.8 319.6 L 1344.7 320.4 L 1345.8 320.2 L 1347 318.8 L 1348 319 L 1348.8 320.8 L 1350 321.8 L 1351.6 322 L 1352.7 322.8 L 1353.2 324.1 L 1355.5 325.1 L 1359.6 325.7 L 1363.4 325.7 L 1366.8 325.1 L 1370.4 325.2 L 1374.2 326.1 L 1378.2 325.5 L 1382.3 323.6 L 1387 322.9 L 1392 323.4 L 1394.7 323.2 L 1395.3 322.5 L 1395.3 321.3 L 1394.8 319.8 L 1395.1 318.6 L 1396.2 318 L 1399.1 317.2 L 1403.9 316.4 L 1407.1 316.4 L 1408.6 317.2 L 1409.8 317.1 L 1410.7 316.1 L 1412 315.8 L 1413.5 316.2 L 1415.6 316.2 L 1418.3 315.7 L 1421 314.8 L 1423.6 313.5 L 1425 312.4 L 1425 311.5 L 1426.2 311.2 L 1428.5 311.4 L 1430.7 311.1 L 1434.2 309.6 L 1440.3 306.7 L 1444 305.9 L 1447.4 306 L 1449.6 304.8 L 1450.5 302.3 L 1452.2 300.9 L 1454.7 300.7 L 1460 297.5 L 1468.2 291.3 L 1474.8 286.9 L 1482.7 283 L 1486.1 282.6 L 1489.1 283.1 L 1492.8 284.2 L 1494.9 284.1 L 1495.5 282.9 L 1494.6 281.6 L 1492.2 280.2 L 1491 278.9 L 1490.9 277.6 L 1493 276.1 L 1497.3 274.3 L 1500.7 271.8 L 1503.1 268.8 L 1503.8 266.5 L 1502.9 265 L 1502.9 263.7 L 1503.8 262.7 L 1503.2 261.9 L 1501.1 261.2 L 1501.1 260.2 L 1503.2 258.9 L 1504.3 257.8 L 1504.5 257 L 1503.4 256.6 L 1501.1 256.6 L 1499.1 256 L 1497.4 254.7 L 1498.5 253.8 L 1502.3 253.1 L 1504.4 252 L 1504.6 250.3 L 1505.9 248.9 L 1508.4 247.7 L 1509 246.4 L 1507.8 245 L 1508.5 243.8 L 1510.9 242.7 L 1511.1 241.5 L 1509 240.1 L 1507.1 238 L 1505.3 235 L 1503.5 233.5 L 1501.6 233.4 L 1499.8 233.8 L 1498.2 234.7 L 1495.1 234.8 L 1490.4 234.1 L 1484.6 232.6 L 1477.8 230.1 L 1474.5 228.3 L 1474.8 227.2 L 1473.7 226.6 L 1471.3 226.5 L 1469.8 226.1 L 1469.3 225.5 L 1469.3 224.7 L 1466.1 223.4 L 1458.1 224.3 L 1453.2 224.3 L 1451.6 223.3 L 1451.5 222.4 L 1452.9 221.5 L 1453.5 220.2 L 1453.4 218.7 L 1447.7 218.4 L 1436.5 219.4 L 1426.5 219.2 L 1417.7 217.8 L 1411.5 217.7 L 1408.1 219 L 1404.1 219.4 L 1397 218.7 L 1391.3 218.8 L 1384.1 217.9 L 1368.1 215.4" />
<path class="river" d="M 1532.8 519.9 L 1533.5 520.5 L 1533.5 521.7 L 1533.1 523.5 L 1530.8 525.2 L 1526.6 526.7 L 1523.5 528.6 L 1521.7 530.8 L 1520.8 532.9 L 1520.9 534.8 L 1518.4 537 L 1510.8 540.8 L 1509.1 541.9 L 1507.5 542.2 L 1505.2 541.8 L 1502.5 541.9 L 1499.4 542.4 L 1496.7 543.3 L 1494.3 544.6 L 1493.2 546.2 L 1493.3 548.2 L 1491.8 549.6 L 1488.7 550.3 L 1486.2 550.4 L 1484.3 549.9 L 1481.2 549.9 L 1475 550.9 L 1467 552.8 L 1463.2 554.3 L 1461 555.9 L 1458.7 556.7 L 1455 556.6 L 1451.5 556.5 L 1448.7 557.5 L 1445.6 559.4 L 1443.2 560.2 L 1441.8 560.1 L 1440.2 561.3 L 1438.6 564 L 1436.7 565.2 L 1434.5 564.9 L 1429.4 565.1 L 1421.3 566 L 1416.3 565.9 L 1414.2 565 L 1411 564.9 L 1406.6 565.6 L 1404 565.7 L 1403.1 565.3 L 1402.4 564.2 L 1402.1 562.4 L 1400.6 560.5 L 1398 558.5 L 1397.6 556.1 L 1399.2 553.2 L 1399.6 551.3 L 1398.7 550.3 L 1398.3 549.3 L 1396.4 548.2 L 1395 546.1 L 1394 545.5 L 1394.3 543.8 L 1395.4 541.7 L 1394 539.8 L 1389.6 539.7 L 1386.1 539.1 L 1382.6 537.3 L 1377.2 532.3 L 1374.5 530.5 L 1372.7 530.4 L 1371.4 529.5 L 1370.6 528.1 L 1369.4 528.1 L 1368.1 528.1 L 1367.4 528.7 L 1366.5 528.9 L 1365.1 528.3 L 1363.7 528.3 L 1362.3 528.7 L 1361 528.4 L 1360 527.4 L 1358.2 526.8 L 1355.6 526.4 L 1354.5 525.7 L 1355 524.7 L 1354.5 523.9 L 1353 523.4 L 1349.1 523.5 L 1342.7 524.3 L 1337.4 524.1 L 1333.3 522.9 L 1331 521.8 L 1330.5 520.8 L 1329.4 519.9 L 1327.5 518.9 L 1326.4 517.4 L 1326.1 515.1 L 1326.6 513 L 1328.3 509.9 M 1600.3 479.5 L 1599.2 479.9 L 1597 480 L 1594.7 480.3 L 1592.3 481.2 L 1591.3 482.4 L 1589.7 483.4 L 1587.6 484.1 L 1584.8 484.3 L 1581.5 484.1 L 1579.5 484.6 L 1578.9 485.9 L 1577.4 486.9 L 1574.1 487.8 L 1560.7 495.6 L 1552.7 498.7 L 1545.6 499.8 L 1541.1 501.1 L 1539.1 502.6 L 1538.2 503.6 L 1538.5 504.5 M 1606 475.4 L 1606.7 474.9 L 1608.1 474.3 L 1608.3 473 L 1607.5 471 L 1608.2 469.2 L 1610.5 467.5 L 1612 465.2 L 1612.8 462.2 L 1612.5 459.8 L 1611 458.1 L 1609.3 457.1 L 1607.4 456.7 L 1606.3 455.6 L 1605.8 453.9 L 1603.4 452 L 1599.1 449.8 L 1598.1 447.3 L 1600.4 444.6 L 1603.5 443.3 L 1607.4 443.2 L 1611.1 443.9 L 1614.7 445.4 L 1617.1 446 L 1619.2 445.6 L 1620.9 445.7 L 1622.1 446.1" />
<path class="river" d="M 824.5 473.1 L 815 466.5 L 811.7 463.8 L 811.5 462.7 L 809.8 461.3 L 806.6 459.8 L 804.7 458.2 L 804.1 456.7 L 802.6 455.3 L 800.2 454 L 798.8 452.5 L 798.6 450.9 L 796.8 449.5 L 793.5 448.4 L 791.7 447.3 L 791.4 445.6 M 756.6 375.1 L 756.9 369.1 L 755.8 366.3 L 753.6 364.7 L 751.2 363.8 L 748.7 363.6 L 747.4 362.7 L 747.3 361.1 L 749 360 L 752.3 359.3 L 756 359.6 L 760 360.9 L 763.4 361.6 L 766.2 361.7 L 767.9 361.1 L 768.9 359.2 M 775.9 338.4 L 778.6 334.5 L 779.5 331.7 L 779.5 328.9 L 778.2 325.6 L 775.5 321.7 L 771.6 318.8 L 771.2 318.6 M 771.8 318.8 L 771.2 318.6 M 771.2 318.6 L 763.2 316.5 M 771.2 318.6 L 766.3 316.8 L 763.2 316.5 M 763.2 316.5 L 757.4 316 L 744.9 316.3 L 738.3 317.2 L 737.7 318.8 L 734.7 320.4 L 729.2 322.1 L 726.3 323.3 L 726 323.9 L 726.2 324.9 L 726.9 326.1 L 726.4 327.4 L 724.6 328.9 L 722.1 329.5 L 719 329.1 L 716.3 328 L 714 326.3 L 711.1 325.3 L 707.8 324.9 L 704.9 324 L 702.4 322.5 L 699.8 321.6 L 696.9 321.3 L 693.6 321.6 L 689.7 322.7 L 687.6 323.9 L 687.1 325 L 686.2 326 L 684.8 326.6 L 679.4 327.3 L 670 328 L 662.7 328.1 L 657.6 327.6 L 653.9 327.6 L 651.5 328.2 L 649.7 328.4 L 648.4 328.3 L 646.7 327.6 L 644.8 326.3 L 639.3 325.5 L 630.1 325.2 L 622.9 325.6 L 617.9 326.7 L 615 327.7 L 614.2 328.7 L 610.9 330.3 L 605.2 332.7 L 596.8 334.1 L 585.9 334.5 L 577.6 334.3 L 571.7 333.4 L 567.6 333.6 L 565.1 334.7 L 563.1 335.3 L 561.3 334.9 M 763.2 316.5 L 759.8 315.6" />
<path class="river" d="M 1191.2 441 L 1181.9 441.7 L 1175.6 444.2 L 1169.4 448.7 L 1164.9 451.6 L 1162.1 452.7 L 1161 454.3 L 1161.5 456.2 L 1163.9 456.8 L 1168 456.3 L 1171.6 456.6 L 1174.6 457.6 L 1175.5 459.3 L 1174.5 461.4 L 1174.8 463.5 L 1176.5 465.6 L 1176.7 468.1 L 1175.1 470.8 L 1171.4 473.6 L 1165.3 476.3 L 1161.5 479.1 L 1159.3 483 L 1155.9 486.5 L 1154.6 488.4 L 1154.4 490 L 1153.1 491.7 L 1150.6 493.6 L 1149.2 495.4 L 1149 497.3 L 1147.7 499 L 1145.5 500.5 L 1144.1 502.1 L 1143.5 503.8 L 1142.7 505 L 1141.5 505.5 L 1142.1 506.1 L 1144.6 506.7 L 1145.5 508.4 L 1145.1 511.1 L 1143.6 513.1 L 1141.1 514.2 L 1137.4 515 L 1132.5 515.4 L 1125.7 518 L 1112.9 525.3" />
<path class="river" d="M 437 475.5 L 432.3 473.6 L 430.7 470.7 L 430.8 466.4 L 429.9 463.7 L 428 462.6 L 426.8 461.6 L 426.4 460.7 L 425.4 460.1 L 423.9 460 L 421.4 459 L 418.1 457 L 415.7 456.2 L 414.4 456.5 L 413.6 457.2 L 413.2 458.4 L 411.6 458.2 L 408.9 456.8 L 406.6 456.5 L 404.9 457.3 L 403 457.5 L 400.8 456.9 L 397.4 456.9 L 392.7 457.4 L 389.1 458.4 L 385.2 460.6" />
<path class="river" d="M 487.2 503.4 L 481.6 501.3 L 477 500.7 L 471.5 501.1 L 467.4 500 L 464.6 497.6 L 461.9 496.1 L 459.1 495.5 L 455.4 493.9 L 450.7 491.3 L 447.4 489 L 445.5 487.1 L 444.6 485.7 L 445.1 484.3" />
<path class="river" d="M 389.9 559 L 384 560.5 L 381.3 561.6 L 380 562.7 L 378 563.7 L 375.1 564.6 L 372.7 565 L 369.7 564.8 M 347.7 522.4 L 342.5 521.6 L 339.4 520.1 L 336.8 517.7 L 332.9 515.7 L 327.7 514.1 L 324.6 512.3 L 323.5 510.4 L 320.8 509.7 L 316.4 510.1 L 312.5 509.5 L 308.9 508 L 306 507.3 L 303.7 507.5 L 300.8 507.1 L 297.3 506.1 L 294.5 505.8 L 292.4 506.4 L 288.5 506.6 L 282.6 506.3 L 278.5 505.5 L 276.2 504.1 L 273.5 503.6 L 270.5 503.9 L 266.5 503.1 L 261.6 501.1 L 257.9 499.9 L 255.5 499.5 L 253.5 499.8 L 252.1 500.6 L 248.7 500.1 L 240.9 497.5 L 236.5 495.5 L 234.2 494.1 L 232.6 492.5 L 231.1 490.3 L 229.9 487.4 L 227.9 484.9 L 225.2 483 L 221.9 481.3 L 218.2 479.9 L 216.4 477.9 L 216.6 475.3 L 214 472.7 L 208.6 470.3 L 205.7 467.8 L 205.5 465.3 L 204.4 463.5 L 202.5 462.2 L 201.7 461.1 L 202.1 460.1 L 202.1 459.1 L 201.6 458 L 200.7 457.1 L 199.4 456.6 L 199 456 L 199.5 455.3 L 199.5 454.6 L 199.1 453.9 L 196.6 452.1 L 195.8 451.9 L 195.4 451.8 L 195.1 451.3 L 195.2 450.6 L 194.7 450.3 L 191.4 450.1 L 190.2 449.6 L 189.8 448.5 L 187.6 447.7 L 183.7 447.3 L 181.2 446.3 L 180.1 444.8 L 178.4 443.6 L 176 442.6 L 174.9 441.8 L 174.8 441.3 L 174.4 440.9 L 173.8 440.7 L 173.4 440.4 L 173.5 440 L 173.4 439.2 L 172.4 437.9 L 170.2 436.5 L 166.8 434.9 L 164.5 433.5 L 163.4 432.3 L 163.2 430.5 L 163.8 428.3 L 163.6 426.9 L 162.1 426.2" />
<path class="river" d="M 502.1 566.6 L 501.2 570.2 L 500.5 571.5 L 499.3 572 L 497.8 572.2 L 496.3 573.2 L 494.3 575.1 L 492 576.3 L 489.6 576.9 L 487.2 578.3 L 484.8 580.4 L 481.7 581.3 L 477.9 580.9 L 473.4 579.7 L 468.3 577.5 L 461.9 575.9 L 454.2 574.8 L 447.1 573.3 L 440.7 571.6 L 436.9 570.1 L 435.7 568.8 L 434.2 568.2 L 432.6 568.4 L 430.6 568 L 427.1 566.4 L 419.6 562.6 L 415.8 561.6 L 413 562.1 L 409.6 561.6 L 405.4 560.1 L 401.6 559.3 L 398.1 559.3 L 396.1 559 L 395.5 558.5 L 394 558.5 L 389.9 559" />
<path class="river" d="M 1112.9 525.3 L 1113.7 527.2 L 1115 528.4 L 1116.9 529.6 L 1119.6 529.3 L 1122.9 527.6 L 1125.4 527 L 1127.3 527.7 L 1128.6 529 L 1129.4 530.9 L 1132.3 532 L 1139.8 532.5 L 1143 532.3 L 1145.3 531.7 L 1147.8 530.6 L 1153.6 530.6 L 1162.7 531.7 L 1171.5 531 L 1180.2 528.6 L 1187 526.2 L 1191.8 524 L 1196.1 522.6 L 1201.7 521.7 L 1210.7 517.9" />
<path class="river" d="M 1328.3 509.9 L 1324 507.9 L 1322.7 506.8 L 1323 505.8 L 1322.8 505.1 L 1322 504.5 L 1322.1 503.6 L 1322.9 502.3 L 1322.9 500.8 L 1322.1 498.8 L 1319.6 496.2 L 1315.7 492.7 L 1313.6 490.2 L 1313.3 488.6 L 1312.8 487.3 L 1312 486.6 L 1311.6 485.4 L 1311.9 484.1 L 1311.4 483.2 L 1310.9 482.4 L 1310.9 481.2 L 1310.2 480.3 L 1308.8 479.8 L 1308.3 478.8 L 1308.6 476.8 L 1307.6 475 L 1304.4 471.8 L 1303.5 469.5 L 1303.2 467.4 L 1301.8 466.4 L 1301.8 465.4 L 1301.6 463.8 L 1300.8 463.4 L 1300.3 462.8 L 1300.6 462.2 L 1300 461.3 L 1298.3 460.3 L 1297.6 459.5 L 1297.4 458.7 L 1296.5 458.1 L 1294.1 457.5 L 1293.4 456.7 L 1293.6 455.9 L 1294.1 455.3 L 1294.4 454.9 L 1294.3 454.3 L 1294.1 453.8 L 1293.2 453.2 L 1291.8 452.4 L 1290.2 450.9 L 1288.3 450.4 L 1287 450.4 L 1286 449.6 L 1286.3 449 L 1286.2 447.9 L 1285.3 447.1 L 1284.1 446.8 L 1283 447 L 1280.3 446.2 L 1275.9 444.4 L 1272.6 443.5 L 1270.3 443.7 L 1268.8 444.2 L 1268.3 445.2 L 1266.7 445.1 L 1262.9 443.4 L 1259.1 442.9 L 1256.9 442 L 1255.2 440.5 L 1253.6 439.8 L 1252.1 440.1 L 1248.6 439 L 1243 436.7 L 1240 435.9 L 1239 436.3 L 1238.4 436.4 L 1237.4 436.3 L 1236 436.3 L 1233.4 435.7 L 1230 436 L 1225.6 437 L 1220.9 437.6 L 1215.8 437.9 L 1212.8 437.8 L 1211.9 437.3 L 1206.4 438 L 1191.2 441" />
<path class="river" d="M 656.5 850.8 L 662.2 849.9 M 667 845.2 L 670.8 845.3 L 672.9 846.4 L 674.5 848.5 L 676.6 849.9 L 679.3 850.8 L 680.7 851.6 L 681 852.7 L 681.1 854.4 L 680.7 855.3 L 680 856.1 L 680.6 857.5 L 682.6 859.4 L 684.7 860.7 L 686.9 861.2 L 688.1 860.9 L 688.2 859.8 L 688.9 859.1 L 690.2 858.8 L 692 859.1 L 694.4 859.8 L 695.7 862.6 L 695.8 867.5 L 697.1 871.2 L 699.8 873.7 L 701.6 874.9 L 702.4 874.8 L 702.9 874.4 L 703.1 873.5 L 704.1 873.5 L 706.1 874.2 L 708.2 874.3 L 710.4 873.9 L 713.7 875 L 718 877.5 L 720.8 878.1 L 722.3 876.8 L 722.7 875.8 L 723.9 874.7 L 726.2 873.8 L 729.6 871.9 L 731.9 870.9 L 733 870.9 L 734.9 872 L 737.5 874.3 L 739 874.5 L 739.3 872.9 L 741.5 873.1 L 745.4 875.4 L 749.4 876.5 L 753.5 876.4 L 756.7 877.9 L 759.1 881 L 761 882.9 L 762.4 883.6 L 765.2 883.2 L 769.5 881.9 L 771.6 880.8 L 771.6 879.9 L 770.9 879.1 L 769.5 878.4 L 768.7 877.3 L 768.2 875.4 L 767.9 875 L 767.3 873.7 L 765.5 871.6 L 763.2 870.2 L 760.4 869.6 L 757.3 868.3 L 754 866.1 L 750.2 864.5 L 746 863.2 L 743.4 861.5 L 742.4 859.3 L 740.7 857.9 L 738.4 857.4 L 736.8 856.1 L 736.1 854.3 L 734.6 853.6 L 732.6 854.1 L 730.5 853.6 L 728.6 852.2 L 726.7 851.3 L 724.9 851 L 723.4 848.6 L 721.5 841.8 L 722.3 840.9 L 721.8 839.6 L 720.3 837.7 L 720.4 835.1 L 722.2 831.7 L 724 830 L 725.7 829.9 L 728.7 827.9 L 733.1 823.9 L 736.5 821.8 L 739 821.7 L 740.3 822 L 740.6 822.5 L 742.7 823 L 746.4 823.5 L 749.7 823.1 L 752.7 821.6 L 755.7 821.6 L 758.6 823.1 L 760.8 825 L 762.3 827.5 L 765 828.4 L 768.8 827.8 L 774.5 828.1 L 781.9 829.3 L 787 829.1 L 789.7 827.7 L 790.1 826.5 L 788.2 825.6 L 788.8 824.1 L 791.7 821.9 L 795.5 821.5 L 800.2 822.8 L 803.4 823.5 L 805.2 823.3 L 806 822.6 L 805.8 821.5 L 806.9 819.9 L 809.2 817.8 L 813.1 815.5 L 818.4 812.8 L 821.1 811 L 821.2 810.1 L 820.6 808.8 L 819.1 807.3 L 817 806.1 L 814.1 805.4 L 812.5 804 L 812.1 802 L 812.2 800.7 L 813.1 798.9 L 815.2 798.4 L 816.8 797.4 L 818 796 L 820.6 794.8 L 826.5 793.6 L 827.4 792.6 L 830.8 792.1 L 837 791.8 L 841.8 791.2 L 845.2 790.3 L 847.5 788.1 L 848.8 784.8 L 850.4 782.5 L 852.4 781.1 L 854 779.2 L 855.2 776.7 L 857.1 774.4 L 859.8 772.2 L 861.4 769.6 L 862 766.4 L 863.8 763.3 L 866.8 760.3 L 868.5 758.1 L 868.9 756.8 L 868.4 754.4 L 867 750.9 L 866.4 747.7 L 866.8 744.9 L 866.7 741.6 L 865.5 735.9 L 872.8 729.9 L 875.1 727.5 L 875 726.6 L 875.7 725.2 L 877.1 723.1 L 880.2 721.4 L 885 719.9 L 887.7 718.7 L 888.3 717.7 L 890.9 717.1 L 895.5 716.9 L 898.2 717.1 L 898.9 717.9 L 900.4 718.2 L 902.6 718.2 L 904.5 719 L 906.2 720.7 L 908.4 722.3 L 911 723.6 L 913.6 724.1 L 916 724 L 919.1 724.4 L 923 725.4 L 926.1 725.4 L 928.5 724.5 L 930.2 724.5 L 931.4 725.3 L 934.7 725.4 L 940.1 724.7 L 945 725.5 L 949.5 728 L 953.3 729.6 L 956.3 730.3 L 958.7 730.4 L 960.4 729.9 L 963.3 731.1 L 967.3 733.8 L 969.5 736 L 969.9 737.6 L 969.7 739.2 L 968.9 740.9 L 969 742.5 L 970.2 744 L 970.1 745.7 L 968.7 747.6 L 966.8 748.9 L 965.2 749.3 L 964.2 749.6 L 963.9 750.2 L 963.9 750.7 L 964.7 751.9 L 964.9 753.1 L 963.7 755.7 L 962.3 757.5 L 960.7 758.5 L 960 759.4 L 960.4 760.2 L 959.8 762.2 L 958.4 765.3 L 957.8 767.3 L 958.1 768.3 L 956 770.8 L 951.6 774.9 L 949.5 778.1 L 949.6 780.4 L 951.3 783.3 L 954.4 786.5 L 955.7 789.2 L 955.1 791.2 L 954.2 792.5 L 953 793.2 L 952.6 794.3 L 952.9 795.8 L 951.8 798 L 949.4 800.9 L 947.8 802.3 L 947 802.4 L 946.8 802.7 L 947.3 803.2 L 947.4 804.6 L 946.9 806.7 L 947 808 L 947.7 808.6 L 947.8 809.1 L 947.2 809.5 L 947.6 810.6 L 948.8 812.4 L 949.1 815.5 L 948.5 819.7 L 949.2 824.8 L 951.1 830.9 L 951.2 835.3 L 948.5 839.5 L 946.4 841.9 L 945.3 844.1 L 944.5 847 L 944.1 850.1 L 944.3 855.2 L 948.6 856.1 L 952 855.9 L 955.9 855 L 958.1 854.2 L 959.8 853.2 L 961.1 852.8 L 962.7 851.7 L 965.9 850.9 L 970.5 850.4 L 973.5 849.4 L 974.9 847.8 L 976.8 846.5 L 979.2 845.5 L 985.3 846.7 L 995 850 L 1001.7 851.4 L 1005.1 850.9 L 1008.3 849.9 L 1011.2 848.5 L 1013.7 847.7 L 1015.7 847.6 L 1018.5 848.2 L 1022.2 849.3 L 1024.8 849.5 L 1026.2 848.7 L 1030.5 848.6 L 1037.5 849.1 L 1042.1 848.7 L 1044.7 847.6 L 1045.4 846.7 M 631.5 844.3 L 644.5 846 L 651.7 848.7" />
<path class="river" d="M 1045.6 846.7 L 1046.1 845.8 L 1046.2 843.9 L 1047.1 842.1 L 1049.5 839.8 L 1052.2 838.1 L 1055.2 837 L 1056.7 836 L 1056.7 835.2 L 1057.6 833.9 L 1059.4 832 L 1062.4 830.3 L 1066.5 828.7 L 1068.5 827.6 L 1068.4 827 L 1068.8 826.3 L 1069.7 825.7 L 1070.6 825.5 L 1072.1 823.4 L 1073.1 822.5 L 1073.9 821.8 L 1076.4 820.5 L 1081.3 817.5 L 1084.2 815.2 L 1084.5 814.1 L 1085.6 812.5 L 1087.6 810.4 L 1090.5 808.9 L 1094.1 807.8 L 1096.9 805.8 L 1098.8 802.9 L 1101.3 801 L 1104.3 800 L 1106.2 798.9 L 1107 797.7 L 1108.9 797.1 L 1111.8 797 L 1115 796.4 L 1118.5 795.1 L 1121 793.2 L 1122.3 790.8 L 1124.2 789.4 L 1126.7 789.1 L 1130 787.8 L 1134 785.5 L 1136.7 784.5 L 1138.7 784.8" />
<path class="river" d="M 672.4 558.9 L 663.7 557.2 L 660.1 555.8 L 659.2 554.4 L 659.9 552.7 L 660.1 551 L 659.9 549.2 L 661.8 546.9 L 665.8 544 L 673.4 542.6 L 684.4 542.7 L 692.7 543.4 L 698.4 544.7 L 707.5 542.8 L 719.9 537.6 L 727.1 535 L 728.8 535 L 730.2 534.5 L 731.2 533.6 L 731.8 532.6 L 732.1 530.9" />
<path class="river" d="M 162.1 426.2 L 160.5 425.8 L 160.1 425.2 L 160.6 424.4 L 159.4 423 L 156.6 421.1 L 154.7 419.4 L 153.8 417.9 L 152.5 417 L 150.8 416.8 L 149 415.9 L 146.9 414.4 L 142.9 412.9 L 134.1 410.5 M 133.9 410.5 L 129.9 408 L 127.6 407.1 L 125.6 407 L 125 406.2 L 125.6 404.6 L 124.8 403.5 L 122.4 402.9 L 121.4 401.5 L 121.7 399.4 L 120.8 398.3 L 118.6 398.2 L 117.8 397.8 L 118.4 396.9 L 121.5 395.1 L 127.3 392.2 L 132.6 390 L 137.4 388.4 L 141.9 387.5 L 146.1 387.3 L 150.5 385.2 L 155 381.3 L 155.8 380.2 L 155.8 379.5 L 155.1 378.7 L 155 378.2 L 155.4 377.9 L 155.6 377 L 155.2 375.7 L 155.6 375.2 L 156.3 375.1 L 156.5 374.5 L 156.1 374 L 156.5 373.3 L 156.7 372.7 L 156.4 372.2 L 155.7 372.1 L 155.1 370.9 L 155.2 369 L 154.6 368.1 L 153.5 368 L 153.2 367.6 L 153.6 366.8 L 153.3 366.1 L 152.9 365.6 L 153.1 365.2 L 153.3 364.7 L 152.3 362.8 L 151.4 361.7 L 150.2 361 L 148.7 360.8 L 148.2 360.4 L 147.5 359.6 L 144.1 359 L 142.7 358.2 L 143.2 357.2 L 142.7 356.4 L 141.2 355.7 L 139.3 355.5 L 137.2 355.6 L 135 355.4 L 132.8 354.6 L 132 354 L 132 353.6 L 131.2 353.3 L 129.1 353.5 L 127.7 353.2 L 127.6 352.6 L 126.2 352.1 L 123.4 351.8 L 121.9 351.3 L 121.7 350.7 L 120.4 350.3 L 118.1 350 L 116.8 349.6 L 115.8 349.2 L 115 349.4 L 113 349.5 L 109.6 348.9 L 107.5 348.2 L 106.7 347.8 L 105.7 347.5 L 104.9 347.6 L 104.4 347.5 L 103.2 346.8 L 100.9 346.5 L 94.7 346.5 L 92.5 345.9 L 91.8 345.4 L 90.2 345.1 L 87 345.3 L 85.3 345 L 85 344.4 L 84.1 343.8 L 82.5 343.4 L 80.5 343.3 L 78.2 343.7 L 76 343.6 L 73.7 342.9 L 72.8 342.4 L 71.8 342.4 L 70.8 342.5 L 68.8 342.1 L 66.6 341.1 L 65.1 341.1 L 64.6 341.1 L 64 340.5 L 63.1 340.3 L 61.8 340.6 L 60.8 340.2 L 60.2 339.3 L 60.2 338.8 L 59.7 338.1 L 57.9 337.7 L 56.4 337.7 L 55.3 338.2 L 54.4 338.1 L 53.8 337.4 L 52.6 337 L 50.8 336.8 L 48.7 337.1 L 46.1 337.9 L 43.6 338 L 41.1 337.6 L 39.9 337.2 L 38.7 336.8 L 36.2 337.3 L 34.5 337.2 L 33.6 336.4 L 32.3 336.4 L 30.8 337.2 L 29.2 337.2 L 27.7 336.4 L 26.4 336.3 L 25.2 336.9 L 23.2 336.3 L 20.5 334.8 L 17.3 333.9 L 12.1 333.4 M 26.2 267.9 L 29.5 270.2 L 32.8 271.2 L 37.3 271.6 L 40.7 273.2 L 43 276.1 L 45.3 277.7 L 47 278 L 47.6 278.4 L 47.8 279 L 47.3 279.4 L 46.6 280.2 L 46.3 281.5 L 47 282.5 L 47.1 283.5 L 46.5 284.4 L 46.6 285 L 47.5 285.2 L 48.2 285.9 L 48.6 287.1 L 48.4 287.5 L 47.4 287.6 L 46.3 288.2 L 45.4 289 L 45.2 290 L 45.6 290.7 L 46.6 291.1 L 48.2 291.5 L 48.9 292.7 L 48.4 294.1 L 48.4 295 L 48.9 295.8 L 48.6 296.5 L 47.4 296.4 L 46.5 296.9 L 46 298 L 44.7 298.5 L 42.6 298.4 L 40.3 298.9 L 36.6 300.6 L 35.5 302.2 L 34.2 302.7 L 32.2 302.5 L 30.9 303.1 L 30.3 304.3 L 29.2 305 L 27.6 305 L 27.3 305.5 L 27.7 306.1 L 27.1 307.1 L 25.5 308.5 L 24.8 309.7 L 25 310.6 L 25.7 311.2 L 26.6 311.4 L 26.6 311.9 L 26.2 312.3 L 26 313.1 L 26.4 313.7 L 26 314.5 L 25.1 314.7 L 24.8 315 L 25.3 315.7 L 25.1 316.4 L 24 316.6 L 23.7 317.2 L 23.7 317.7 L 23.4 318.1 L 22.5 318.2 L 22.3 318.8 L 22.7 319.7 L 21.9 320.2 L 21 320.1 L 19.7 320.5 L 19.4 322.1 L 19.6 323.7 L 19.6 324.7 L 19.2 325.6 L 17.5 325.8 L 15.9 326.1 L 14.9 326.8 L 14.4 327.6 L 14.3 328.7 L 13.3 329.3 L 12.4 329.6 L 11.9 329.9 L 11.8 330.7 L 12.2 331.7 L 12 333.5" />
<path class="river" d="M 481.3 722.2 L 470.9 721.4 L 466.4 721 L 459.9 719.8 L 456.9 718.2 L 453.3 717.2 L 449.3 716.8 L 445.8 716.1 L 443 715 L 440.1 714.7 L 437.1 715.1 L 434.1 714.7 L 430.9 713.7 L 428.9 712.6 L 428.1 711.2 L 426.1 709.6 L 422.8 707.6 L 419.4 707.1 L 414.4 708.7" />
<path class="river" d="M 672.2 481 L 669.6 480.9 L 665.7 481.7 L 656.7 484.4 L 639.5 484.7 L 633.1 484.5 L 631.8 483.9 L 630.1 483.9 L 627.1 484.8 L 623 485.8" />
<path class="river" d="M 1174.4 283.9 L 1167.7 284 L 1164.1 285.1 L 1161.6 287 L 1157.2 287.7 L 1151.1 287.2 L 1145.7 288.6 L 1141 291.8 L 1136.9 293.6 L 1133.5 294 L 1130.7 294.7 L 1128.4 295.7 L 1127 296.7 L 1126.4 297.7 L 1125 298.5 L 1122.8 298.9 L 1115.7 297.1 L 1103.4 293.1 L 1096.4 289.8 L 1094.5 287.3 L 1092.7 285.5 L 1090.9 284.4 L 1086.2 283.1 L 1078.5 281.6 L 1072 279.6 L 1066.9 276.9 L 1060.3 275.6 L 1052.4 275.7 L 1046.8 276.3 L 1043.5 277.5 L 1039.2 280.3 L 1033.9 284.6 L 1030 287.1 L 1027.6 287.5 L 1023.1 290.1 L 1016.3 294.8 L 1010.1 297.7 L 1004.5 298.9 L 1001.2 300 L 1000.4 301.3 L 999.2 302.2 L 996.9 302.9 L 994.7 306.9 L 991.4 308.9 L 986.2 310.2 L 982.9 310.6 L 981.4 310.2 L 979.2 310.8 L 976.5 312.7 L 972.6 314.6 L 967.6 316.5 L 965 318.4 L 964.6 320.1 L 963.1 320.8 L 960.3 320.4 L 959.3 320.6 L 958.9 321.4 L 956.2 322.6 L 950.7 322.5 L 944.6 322.9 L 937.6 323.7 L 933.8 325.2 L 933.1 327.3 L 931.5 329.2 L 929.2 331 L 927.2 332 L 925.6 332.4 L 923.7 332.2 L 921.4 331.4 L 919.6 331.1 L 918 331.3 L 914.8 332.5 L 910 334.6 L 907.4 336.2 L 907.1 337.1 L 906.2 337.8 L 904.7 338.1 L 903 339.2 L 901.3 341 L 899 341.9 L 896.2 341.9 L 894.7 342.5 L 894.6 343.8 L 893 344.7 L 891.8 345.3 L 891.6 345.8 L 892.1 346.7 L 891.1 347.7 L 887.3 349.6 L 885.5 350.3 L 884.9 350.8 L 884.8 351.4 L 884.3 351.7 L 883.3 351.7 L 882.6 352 L 882.2 352.9 L 881 353.3 L 878.8 353.5 L 877.4 353.2 L 876.5 352.5 L 875.1 352.1 L 873.1 352.1 L 871.5 352.5 L 870.4 353.3 L 870 354.2 L 870.2 355 L 869.9 356.1 L 868.8 357.5 L 866.2 358.4 L 862 358.8 L 859 358.7 L 857.3 358.2 L 855.3 359.1 L 852.9 361.4 L 849.3 363 L 844.4 364.1 L 842.4 365 L 843.2 365.7 L 845.9 366.1 L 850.3 366 L 853.5 366.6 L 855.3 367.8 L 856.1 369.1 L 855.8 370.4 L 855.2 371.5 L 854.1 372.4 L 850.9 373.4 L 845.7 374.5 L 842.9 375.6 L 842.4 376.7 L 843.4 378.1 L 845.7 380 L 846.3 382 L 845.4 384.4 L 843.7 386.9 L 841 389.6 L 839 392.8 L 837.4 396.5 L 834.8 399.3 L 831.1 401.4 L 829.1 403.5 L 829 405.6 L 829.8 407 L 831.7 407.7 L 832.6 409.1 L 832.8 411.5 L 832.4 413.7 L 831.5 415.7 L 832.3 417.3 L 834.8 418.4 L 837.6 420.6 L 842.2 425.4 L 845.3 425.7 L 846.8 426.5 L 847.7 427.7 L 849 428.6 L 850.9 429 L 856.4 429 L 870.2 428.4 L 871.7 429.2 L 873 429.3 L 874.4 429 L 875.3 428.2 L 875.6 426.9 L 877 425.9 L 879.5 425.1 L 881.9 423.5 L 884.3 421.3 L 886.4 420 L 889.2 419.3 L 894.4 420.4 L 896.3 421.4 L 896.6 422.8 L 895.9 424 L 893.5 425.8 M 1308.4 20.2 L 1313 25.6 L 1315.7 28 L 1318.1 29 L 1319 30.2 L 1318.4 31.5 L 1318.8 33.8 L 1320.3 36.9 L 1321 39.8 L 1320.8 42.4 L 1322.3 44.8 L 1325.4 47.1 L 1326.5 48.9 L 1325.5 50.4 L 1325.7 51.6 L 1324.4 54.6 L 1317.3 57.7 L 1310.6 59.1 L 1304.4 59 L 1298.2 59.4 L 1292.1 60.3 L 1288.7 61.1 L 1288 61.9 L 1289.4 62.9 L 1292.9 64.3 L 1293.5 65.9 L 1291.3 67.9 L 1288 69.6 L 1281.6 71.7 L 1275.4 73.2 L 1272.6 75 L 1271.4 77.4 L 1268.7 80.4 L 1264.7 84.4 L 1262.5 85.8 L 1254.3 89.2 L 1250.8 91.1 L 1249.3 92.6 L 1248.4 94.9 L 1248.1 98 L 1247.1 101.4 L 1245.5 104.9 L 1243.7 107.7 L 1241.8 109.7 L 1238.4 111.6 L 1233.4 113.4 L 1229.9 117 L 1227.8 122.4 L 1228.7 127.5 L 1232.4 132.4 L 1235.4 137.7 L 1237.6 143.4 L 1239.6 146.9 L 1242 148.6 L 1242.9 149.6 L 1246 155.4 L 1249.3 159.3 L 1253.4 162.6 L 1255.1 165.7 L 1254.3 168.6 L 1254.7 170.8 L 1256.2 172.2 L 1257 173.6 L 1257.1 174.9 L 1257.8 176.4 L 1259.1 177.9 L 1261.9 179.8 L 1266.3 182.1 L 1269.9 183.5 L 1272.8 183.8 L 1275.8 184.6 L 1278.9 186 L 1281 187.6 L 1282.1 189.4 L 1287.4 191.4 L 1297 193.5 L 1302.5 195.2 L 1304.3 195.7 L 1312 199.2 L 1321.7 204.9 L 1328.2 207.6 L 1334.8 209.2 L 1339.1 210.8 L 1341.4 212.6 L 1343.9 213.9 L 1346.7 214.6 L 1351.6 214.9 L 1358.8 214.6 L 1363.7 214.7 L 1368 215.4 L 1372.6 219.5 L 1373.7 221.9 L 1373 223.9 L 1373.4 225.5 L 1375 226.9 L 1376.5 229.4 L 1377.9 233 L 1379.8 235.8 L 1382 237.9 L 1382.9 239.7 L 1382.6 241.3 L 1381.7 242.5 L 1380.3 243.2 L 1379.4 244.9 L 1379 247.8 L 1377.1 250.8 L 1373.7 254.1 L 1370.2 256.7 L 1364.4 259.6 L 1354.1 263.5 L 1348.1 264.7 L 1342.9 264.7 L 1335 265.6 L 1324.4 267.5 L 1316.3 268.4 L 1310.7 268.2 L 1305.4 268.4 L 1300.2 269.1 L 1295.2 270.3 L 1290.4 272.2 L 1283.7 273.8 L 1270.8 276 L 1268.5 277.1 L 1264.9 277.6 L 1259.2 277.9 L 1254.9 278.5 L 1252 279.5 L 1238.8 280 L 1211 280.1 L 1196.7 279.6 L 1191.6 278.6 L 1185.8 279 L 1179.2 280.9 L 1175.6 282.3 L 1174.5 283.8" />
<path class="river" d="M 1238.8 659 L 1240.2 660.9 L 1239.9 663.3 L 1238.6 666.9 L 1238.4 669.3 L 1239.2 670.6 L 1239.5 672.5 L 1239.2 675.1 L 1240.1 677.3 L 1242.3 679.1 L 1243.7 680.8 L 1244.2 682.1 L 1245 682.9 L 1243.6 684.7 L 1237.9 687.4 L 1234.3 688.6 L 1232.8 688.2 L 1230.5 688.7 L 1227.3 690 L 1224.2 692.9 L 1221.2 697.2 L 1219.4 701.3 L 1218.5 706.9 L 1214.5 709.4 L 1213.3 711.1 L 1214.1 712.9 L 1213.5 714 L 1211.6 714.9 L 1210.9 716.4 L 1209.6 717.4 L 1207.8 718 L 1207.7 719 L 1207.5 721" />
<path class="river" d="M 623 485.8 L 618.1 481.8 L 610.8 479.4 L 593.9 476.1" />
<path class="river" d="M 110.2 699.3 L 103.5 703.1 L 100.7 705.8 L 99.5 708.6 L 96.9 711.5 L 92.9 714.4 L 86.8 716.2 L 78.8 716.9 L 75.8 717.6 L 74.9 718 L 74.2 718.3 L 72.8 718.6 L 70.6 719.5 L 66.9 721.6 L 59.3 726.6 M 223 694.6 L 228.3 694.8 L 229.2 695.6 L 226.6 697.5 L 223.5 700.3 L 221.5 701.5 L 219.6 702.2 L 212.8 702.6 L 201.1 702.8 L 193 703.2 L 186.5 704.1 L 181.8 703.9 L 178.8 704.3 L 175.9 705.2 L 172.9 705.3 L 169.6 704.5 L 163.7 704.2 L 155.3 704.3 L 149.8 704.7 L 147.1 705.5 L 144.1 705.2 L 140.7 704 L 138.9 702.6 L 138.8 701 L 138.4 699.7 L 137.6 698.7 L 135.6 697.7 L 132.5 696.7 L 129.3 696.4 L 124.5 696.9" />
<path class="river" d="M 385.2 460.6 L 374.9 460.8 L 369.5 461.5 L 365.7 462.6 L 361.9 462.8 L 358.1 462.2 L 355.8 461 L 355 459.4 L 354.8 457.1 L 355.1 452.7 L 354.2 448.9 L 354.2 447.1 L 354.8 446.2 L 357.8 445.6 L 358.7 444.2 L 358.5 443.6 L 358.2 440.2 L 355.4 438.7 L 350.6 438.5 L 347 437.9 L 344.7 436.9 L 342.5 436.8 L 340.3 437.7 L 337.4 438.3 L 333.6 438.6 L 330.4 438.1 L 327.6 437 L 326.1 435.9 L 325.9 435.1 L 324.8 434 L 322.7 432.9 L 320 432.1 L 316.6 431.8 L 314.5 431.2 L 313.8 430.5 L 311.4 430.3 L 307.3 430.6 L 304.6 430.1 L 302.7 428.4 M 59.3 264 L 68.8 263.9 L 73.1 264 L 75.4 264.4 L 77 265.1 L 78 266.2 L 79.3 266.3 L 80.9 265.5 L 83.5 265 L 89 264.7 L 96.7 265 L 100.7 264.8 L 103.4 264.2 L 106.1 264.3 L 108.6 265.1 L 110.8 265.3 L 112.5 264.8 L 115.9 264.8 L 123.2 265.4 L 130.5 266.3 L 133.7 266.3 L 135.2 265.8 L 137.4 265.9 L 140.1 266.7 L 142.7 266.8 L 145 266.1 L 147.1 266.2 L 148.6 266.9 L 149.6 266.9 L 150.1 266.5 L 151.5 265.9 L 154.4 265.9 L 156.7 266.2 L 159.4 267.1 L 169.7 267.9 L 174.1 268.8 L 176.2 270.1 L 178.1 270.4 L 179.9 269.8 L 181.9 269.5 L 184.3 269.8 L 187.4 270.7 L 191.3 272.2 L 194.1 272.7 L 195.9 272.3 L 198.3 272.9 L 201.4 274.6 L 205.7 276.3 L 211.4 277.9 L 215.5 278.4 L 218 278 L 220 278.1 L 221.5 278.9 L 222.4 279.8 L 222.8 280.9 L 224.5 282.1 L 227.7 283.5 L 231.2 284 L 235.3 283.8 L 236.3 284.6 L 236.4 285.5 L 237.4 286.1 L 238.5 286.3 L 239.5 287.4 L 241.3 288.5 L 243.9 289.5 L 246.2 289.9 L 247.3 289.7 L 248.1 290.2 L 248.2 290.9 L 248.9 291.4 L 250.1 291.6 L 250.5 292.4 L 250 293.2 L 249.9 294.3 L 250.5 295.4 L 251.8 296.3 L 253.8 297.1 L 254.6 298 L 254.2 298.9 L 254.2 299.7 L 255 300.6 L 257.2 302.6 L 259.6 303.5 L 262.7 304 L 264.8 304.8 L 265.7 305.9 L 268.2 306.1 L 272.4 305.5 L 275.2 305.6 L 276.6 306.5 L 276.9 307.2 L 276.1 308 L 276.5 308.6 L 278.2 309.1 L 279.7 308.9 L 281 308.1 L 282.3 307.7 L 283.5 307.7 L 284.3 308.4 L 284.6 309.6 L 286.8 311 L 290.9 312.6 L 294.7 313 L 298.2 312.1 L 301 312.4 L 303.2 313.8 L 304.4 314.9 L 304.5 315.8 L 305.2 316.2 L 305.9 316.4 L 306.3 316.9 L 306.5 317.5 L 307.2 318.4 L 307.9 318.7 L 308 319.5 L 307.3 320.6 L 307.6 321.2 L 309.7 321.6 L 310.9 321.5 L 311.6 321.1 L 312.5 320.8 L 314.3 321.6 L 315.3 322.5 L 315.4 323.6 L 316.7 324.2 L 319.1 324.2 L 321.3 325 L 323.3 326.5 L 325 327.4 L 326.4 327.7 L 327.1 328.2 L 327.1 329 L 327.7 329.2 L 329 328.8 L 330.2 329.1 L 331.5 330 L 333.8 330.4 L 337.1 330.2 L 338.1 330.9 L 338.2 331.8 L 338.8 332.9 L 340.3 333.8 L 341.8 334.3 L 343.2 334.4 L 344.6 335.9 L 346 338.9 L 347.4 341 L 348.7 342.1 L 351.8 342.9 L 355.2 343.1 L 356.9 343.8 L 357.8 345.1 L 358.1 346.5 L 359.8 348.1 L 360.6 349.5 L 360.5 350.8 L 360.9 351.8 L 361.8 352.5 L 364.1 353.2 L 368 353.7 L 369.4 354.7 L 369.6 355.7 L 370.2 356.3 L 370.8 356.9 L 371 357.8 L 370.8 359.1 L 371.5 361.3 L 370.7 363.9 L 368.7 366.2 L 365 369 L 363.2 371.4 L 363.3 373.3 L 363 374.5 L 362.4 375 L 362.2 375.7 L 362.4 376.5 L 361.7 377.5 L 360.2 378.8 L 359.3 380.7 L 359.1 383.1 L 357.8 385.2 L 355.4 387.1 L 354.1 388.6 L 353.9 389.7 L 351.5 391.2 L 346.8 393.1 L 343.1 394 L 340.4 393.8 L 338.4 394.1 L 337.2 394.7 L 336.7 396.1 L 337.2 398.3 L 336.9 399.8 L 336 400.8 L 337 402.2 L 339.7 404.1 L 340.8 405.6 L 340.2 407.1" />
<path class="river" d="M 131.3 792.9 L 128.6 792.3 L 126.4 792.5 L 122.6 793.7 L 115.6 796.9 L 112.5 799 L 110.3 802.1" />
<path class="river" d="M 110.3 802.1 L 103.7 803.2 L 99.2 805 L 94.5 808 L 91.4 809.6 L 89.9 809.8 L 88.3 809.5 L 86.8 808.7 L 85.4 806.2 L 83.2 800 L 84.8 789.4 L 85.7 785.1 L 86.4 783.6 L 86.5 782.6 L 85.8 782.1 L 84.4 782.1 L 82.2 782.7 L 80.7 782.8 L 79.8 782.4 L 79.9 780.4 L 81 776.8 L 79.3 773.8 L 74.7 771.3 L 70.9 770.5 L 67.7 771.2 L 65.1 773.2 L 62.9 776.4 L 60.7 778.9 L 58.4 781 L 56.7 781.9 L 56.2 782.3 L 55.8 783.1 L 57.1 785.8 L 57 788.1 L 55.6 789.9 L 54.1 790.7 L 52.4 790.7 L 51.1 790.2 L 50.1 789.5 L 47.4 789.3 L 43.1 789.6 L 40.1 790.5 L 38.6 792 L 38.1 793.9 L 38.8 796.3 L 38.4 798.2 L 37.1 799.5 L 36 800.2 L 35.1 800.4 L 33.2 799.3 L 30.3 796.9 L 28.4 795.6 L 27.3 795.4 L 26.7 795.5 L 26 795.8 L 25.7 796.1 L 25.3 796.8 L 24.4 797.1 L 23.1 796.8 L 21.9 797.1 L 21.2 797.8 L 19.2 798.7 L 15.6 799.7 L 13.7 800.8 L 13.4 802 L 12.9 802.5 L 11.8 802.3" />
<path class="river" d="M 732.1 530.9 L 740.1 529.1 L 742.4 527.6 L 744.4 527 L 747 526.6 L 749.1 526.9 L 750.9 527.7 L 754.2 528.1 L 759 527.9 L 762.3 528.2 L 764.2 528.8 L 768.1 528.9 L 773.8 528.2 L 777.3 528.2 L 778.5 528.7 L 779.4 528.7 L 780 528.2 L 782.6 528.4 L 787.1 529.2 L 793 528.7 L 800.1 526.8 L 805.5 526 L 809.4 526.2 L 812.9 525.4 L 815.9 523.5 L 822.2 521.4 L 831.8 518.9 L 840.8 515.5 L 853.1 508.9 L 851.5 506.2 L 852.2 504.6 L 854.6 503.3 L 855.6 502.2 L 855.1 501.2 L 855.3 500.3 L 856.1 499.2 L 856.3 497.9 L 855.8 496.2 L 855.8 494.9 L 856.3 493.9 L 858.3 492.9 L 862 491.9 L 864.7 490.4 L 866.5 488.3 L 868.5 486.8 L 871.6 485.4 L 873.2 483 L 875.1 481.8 L 877.8 481 L 880.5 478.9 L 883.2 475.5 L 884.1 473.5 L 883.2 472.9 L 882.9 471.7 L 883.2 470 L 882.9 468.6 L 882 467.4 L 879.5 467 L 875.4 467.3 L 871.8 467.9 L 868.7 468.9 L 866.3 469 L 864.5 468.2 L 863.3 467 M 863.3 467 L 862.6 465.5 L 863.2 464.3 L 866.3 463.2 M 863.3 467 L 860.7 465 L 860.2 463.8 L 860.6 461.7" />
<path class="river" d="M 690.2 500.6 L 694.1 502.2 L 695.8 502.3 L 697.1 501 L 699 497.9 L 701.6 496.6 L 703.3 494.6 L 705 491.3 L 705.3 489.1 L 704.2 487.9 L 704.8 485.1 L 703.8 484.6 M 701.3 483.3 L 694.5 481.9 L 689.2 481.9 L 683 482.7 L 678 482.6 L 672.2 481" />
<path class="river" d="M 1263.7 615.4 L 1266.8 615.5 L 1268.1 615.1 L 1268.7 614.1 L 1269.7 613.8 L 1271.1 614.3 L 1272 615.1 L 1272.5 616.3 L 1274.3 616.8 L 1277.6 616.6 L 1279.6 616.1 L 1280.5 615.1 L 1283.1 614.6 L 1287.4 614.4 L 1290.6 613.2 L 1292.6 610.9 L 1295.4 609.8 L 1299.1 609.9 L 1302.3 609.6 L 1304.9 609 L 1307 607.7 L 1308.7 606 L 1310.8 604.5 L 1313.5 603.3 L 1317.1 603.3 L 1321.5 604.5 L 1324.5 605 L 1325.9 604.8 L 1326.9 604.1 L 1327.6 602.9 L 1329.4 603 L 1332.4 604.3 L 1335.4 605 L 1338.6 605.1 L 1341.6 604.8 L 1344.1 604.1 L 1346.7 604.1 L 1349.2 605 L 1351.8 605 L 1354.3 604.2 L 1356.5 604.4 L 1358.3 605.5 L 1360.4 605.5 L 1362.8 604.4 L 1365.1 602.3 L 1367.2 599.2 L 1369.2 597.1 L 1371 596.1 L 1372.4 594.8 L 1373.3 593.1 L 1375.2 591.6 L 1378 590.3 L 1379.9 588.8 L 1380.7 587.2 L 1381.8 586.3 L 1383.2 586.2 L 1384.1 585.8 L 1384.4 585.1 L 1385.7 584.8 L 1389.1 584.7 M 1438.6 564 L 1435.3 568.5 L 1432.8 570.4 L 1429.3 572.2 L 1427.1 573.7 L 1426.3 574.8 L 1419.6 575.8 L 1407 576.5 L 1399.7 577.7 L 1397.8 579.4 L 1396.1 580.5 L 1394.6 580.8 L 1393.5 581.7 L 1392.9 583.1 L 1391.7 584 L 1389.1 584.7" />
<path class="river" d="M 292.8 725.9 L 295.9 724.8 L 298.2 724.4 L 300.7 724.4 L 302.9 723.5 L 304.8 721.7 L 307.4 720.6 L 310.7 720.3 L 313.3 719.6 L 315.2 718.3 L 320.2 716.6 L 328.2 714.4 L 334.1 714 L 337.7 715.5 L 341.5 715.7 L 345.4 714.7 L 349.7 714.1 L 354.4 713.9 L 357.2 714.1 L 358.2 714.7 L 359.5 714.1 L 361.3 712.6 L 363.8 711.2 L 367.3 710.1 L 372.4 709.8 L 379.2 710.4 L 383.7 711.2 L 385.7 712.4 L 388.8 713.5 L 393 714.5 L 397.7 714.3 L 402.8 712.9 L 407 712.5 L 410.3 713.2 L 413.6 713.3 L 417 712.8 L 417.4 711.9 L 414.9 710.5 L 413.8 709.5 L 414.4 708.7 L 414.6 707.9 L 414.3 707.8 L 413.6 708 L 412.1 707.5 L 409.8 706.3 L 407.5 705.6 L 405.3 705.5 L 403.4 704.6 L 402 703.1 L 401.4 701.4 L 401.6 699.7 L 402.4 698.4 L 403.7 697.7 L 405.6 697.4 L 408.1 697.4 L 409.8 697 L 410.9 696 L 412.9 695.9 L 416 696.7 L 418.9 696.7 L 422.9 695.8" />
<path class="river" d="M 489.8 433.7 L 481.4 438.4 L 476.6 438.3 L 474.5 437.3 L 473.4 435.5 L 472.1 434.3 L 470.6 433.5 L 467 433 L 461.3 432.8 L 457.5 432.9 L 455.7 433.4 L 453.1 433 L 449.8 431.8 L 445.8 430.8 L 441.2 430.1 L 437.2 430.1 L 434 430.7 L 432.3 430.3 L 432.2 428.9 L 433.9 427.2 L 437.3 425.2 L 439.2 423.5 L 439.8 422.1 L 439.7 420.7 L 438.9 419.5 L 439.1 418.2 L 440.2 417 L 440.3 415.3 L 439.4 413.2 L 437.2 411.8 L 432.2 410.8 L 430.3 410 L 429.9 409.2 L 429.5 407.4 L 429.6 406.9 L 430.6 406 L 431 404.9 L 430.8 403.6 L 429.2 403.1 L 424.8 402.2 L 423.9 401.4 L 422 400.6 L 419.3 400.5 L 415.8 401.3 L 414.4 400 L 413.7 398.5 L 412 396.3 L 409.8 395.1 L 407.2 394.9 L 405.4 394.1 L 404.5 392.5 L 402.5 391 L 399.4 389.5 L 395.9 388.8 L 391.9 389 L 388.3 388.6 L 385 387.7 L 383.3 386.7 L 383.1 385.5 L 383.5 384.5 L 383.8 383.3 L 383.6 382.5 L 383.1 381.6 L 382.8 380.4 L 382.9 378.4 L 382.1 377.1 L 381.9 376.3 L 382 375 L 381.7 373.9 L 381.8 373.1 L 382.7 372.6 L 382.8 371.6 L 382 370.1 L 380.8 368.9 L 379.2 368.2 L 377.7 366.8 L 376.5 364.8 L 375.1 363.6 L 373.4 363.3 L 372.3 362.7 L 371.5 361.3" />
<g class="city"><circle cx="1080.0872746362138" cy="738.4489350300237" r="5" /><text x="1092.0872746362138" y="742.4489350300237">Beijing</text></g>
<g class="city"><circle cx="1315.1958902064735" cy="790.1869437341593" r="5" /><text x="1327.1958902064735" y="794.1869437341593">Seoul</text></g>
<g class="city"><circle cx="1097.8786708080431" cy="756.6071097098331" r="5" /><text x="1109.8786708080431" y="760.6071097098331">Tianjin</text></g>
<g class="city"><circle cx="1236.4886857479773" cy="696.2056604987391" r="5" /><text x="1248.4886857479773" y="700.2056604987391">Shenyeng</text></g>
<g class="city"><circle cx="1307.4411256041242" cy="608.7347955564939" r="5" /><text x="1319.4411256041242" y="612.7347955564939">Harbin</text></g>
<g class="city"><circle cx="441.04876089734523" cy="651.8598063304848" r="5" /><text x="453.04876089734523" y="655.8598063304848">Ürümqi</text></g>
<g class="city"><circle cx="1287.5901645641252" cy="757.9682167264807" r="5" /><text x="1299.5901645641252" y="761.9682167264807">Pyongyang</text></g>
<g class="city"><circle cx="1278.3951369015128" cy="650.5295413465179" r="5" /><text x="1290.3951369015128" y="654.5295413465179">Changchun</text></g>
<text class="map-title" x="80" y="105">Mongolia Physical Study Map</text>
<text class="map-subtitle" x="80" y="145">Landmark: Genghis Khan Statue | Study terrain and water systems</text>
  <text class="footer" x="80" y="1036">Made with Natural Earth. Free vector and raster map data @ naturalearthdata.com.</text>
</svg>
