<?xml version="1.0" encoding="UTF-8"?>
<svg xmlns="http://www.w3.org/2000/svg" width="1600" height="1100" viewBox="0 0 1600 1100" role="img" aria-labelledby="title desc">
  <title id="title">Mauritania Political Study Map</title>
  <desc id="desc">Made with Natural Earth. Free vector and raster map data @ naturalearthdata.com.</desc>
  <defs>
    <linearGradient id="terrain" x1="0" x2="1" y1="0" y2="1">
      <stop offset="0%" stop-color="#6c8c53" />
      <stop offset="42%" stop-color="#d5c487" />
      <stop offset="72%" stop-color="#b88b5f" />
      <stop offset="100%" stop-color="#f1f5ee" />
    </linearGradient>
    <filter id="softShadow" x="-10%" y="-10%" width="120%" height="120%">
      <feDropShadow dx="0" dy="10" stdDeviation="12" flood-color="#0f172a" flood-opacity="0.16" />
    </filter>
    <style>
      .neighbor { fill: #ffffff; stroke: #94a3b8; stroke-width: 1.2; opacity: 0.72; }
      .country { fill: #f7f1df; stroke: #1f2937; stroke-width: 4; filter: url(#softShadow); }
      .admin1 { fill: none; stroke: #64748b; stroke-width: 1.1; stroke-dasharray: 6 7; opacity: 0.75; }
      .river { fill: none; stroke: #1d9bd1; stroke-width: 3; stroke-linecap: round; opacity: 0.88; }
      .lake { fill: #8ed1ea; stroke: #0ea5e9; stroke-width: 1.5; opacity: 0.8; }
      .city circle { fill: #ef4444; stroke: #ffffff; stroke-width: 2; }
      .city text, .terrain-label { fill: #172033; font: 700 24px system-ui, sans-serif; paint-order: stroke; stroke: #ffffff; stroke-width: 5; stroke-linejoin: round; }
      .map-title { fill: #0f172a; font: 800 46px system-ui, sans-serif; }
      .map-subtitle { fill: #475569; font: 600 24px system-ui, sans-serif; }
      .footer { fill: #64748b; font: 500 18px system-ui, sans-serif; }
    </style>
  </defs>
  <rect width="100%" height="100%" fill="#eaf3f8" />
  <rect x="40" y="40" width="1520" height="1020" rx="32" fill="#ffffff" opacity="0.54" />
  <path class="neighbor" d="M 883.8 345.6 L 883.8 348 L 883.1 355 L 883 409.5 L 764.9 407.6 L 766 499.7 L 732.3 503 L 723.5 521.5 L 730.3 573.5 L 589.4 573.2 L 581.5 585.2 L 583 570 L 583.7 570.1 L 664.7 567.2 L 669.1 554.2 L 683.8 538.1 L 695.7 488.4 L 745.7 449.5 L 762.7 404.1 L 773.9 401.5 L 785.6 373.4 L 815.9 369.6 L 828.9 374.3 L 845.3 374.3 L 856.9 366.1 L 879.1 364.9 L 878.3 345.6 L 883.8 345.6 Z" />
<path class="neighbor" d="M -663.8 1191.5 L -685.1 1224.5 L -696.1 1251 L -709.9 1264.7 L -727.2 1267.2 L -732.1 1257.1 L -740.1 1255.6 L -751.3 1265.4 L -767 1257.9 L -757.8 1242.8 L -754.6 1226.3 L -748.4 1210.8 L -762.5 1189.5 L -765.3 1164.9 L -746.6 1133.9 L -734.4 1137.9 L -707.9 1146.4 L -669.7 1176.8 L -663.8 1191.5 Z M 1418.4 -439.4 L 1435.4 -430 L 1487.3 -423.3 L 1469.1 -398.7 L 1464.5 -373 L 1454.6 -366.9 L 1438.2 -370.2 L 1439.4 -361 L 1413.1 -340.8 L 1412.5 -324.5 L 1429.7 -330.2 L 1442.1 -314.4 L 1440.6 -304.2 L 1451.2 -290.7 L 1438.7 -279.7 L 1448 -251.9 L 1467.5 -247.3 L 1463.4 -231.7 L 1430.8 -211.3 L 1359.8 -221.1 L 1307.3 -209.4 L 1303.2 -187.7 L 1261.5 -183.1 L 1221 -199.4 L 1207.9 -191.6 L 1141.6 -207.9 L 1127.3 -221.9 L 1145.9 -243.5 L 1152.8 -315.2 L 1115.6 -353 L 1089.1 -371.2 L 1034 -385.1 L 1030.4 -411.3 L 1077.1 -419.1 L 1137.5 -409.9 L 1126.1 -450.6 L 1160.1 -435.2 L 1243.9 -463.3 L 1254.7 -492.8 L 1286.2 -500 L 1291.4 -487.4 L 1308.2 -486.8 L 1324.9 -472.3 L 1350 -455.4 L 1368.5 -458.2 L 1400 -441.7 L 1408 -438.6 L 1418.4 -439.4 Z M 1510.6 -193.3 L 1533.7 -207.1 L 1539.9 -176.2 L 1528 -148.4 L 1511.6 -155.7 L 1503.3 -179.9 L 1510.6 -193.3 Z" />
<path class="neighbor" d="M 594.1 851.8 L 579.2 823.8 L 561.3 810.9 L 577.1 804.1 L 594.6 778.8 L 603.1 760.3 L 615.4 748.8 L 633.3 751.9 L 650.9 744.1 L 671 743.7 L 688.2 754.3 L 712.1 763.8 L 733.9 790.3 L 757.6 815 L 759.3 837.4 L 766.4 858 L 779.8 868.1 L 782.9 882 L 781.3 893.3 L 776.1 895.3 L 756.4 892.4 L 753.7 896.4 L 745.8 897.2 L 719.9 888.5 L 702.6 888.1 L 636 886.6 L 626.4 890.6 L 614.5 889.5 L 595.4 895.3 L 589.5 867.8 L 622.3 868.5 L 630.9 863.5 L 637.4 863.2 L 650.7 854.9 L 666.1 862.5 L 681.8 863.1 L 697.4 855 L 690.1 844.6 L 678.2 850.7 L 667 850.5 L 652.8 841.6 L 641.4 842.2 L 633.3 850.8 L 594.1 851.8 Z" />
<path class="neighbor" d="M 781.3 893.3 L 782.9 882 L 779.8 868.1 L 766.4 858 L 759.3 837.4 L 757.6 815 L 769.7 808.4 L 775.8 787.2 L 787.2 786.4 L 812.3 796.4 L 832.6 789.3 L 846.5 791.7 L 851.9 783.7 L 996.4 783.1 L 1004.4 757.9 L 998.2 753.5 L 980.8 598.2 L 963.4 442.8 L 1018.5 442.2 L 1139.9 520.7 L 1261.4 599.2 L 1269.9 616.1 L 1292.3 626.4 L 1309 632.3 L 1309.4 655.2 L 1349.3 651.6 L 1349.4 734.5 L 1329.8 758.6 L 1326.7 780.8 L 1294.7 786.5 L 1245.6 789.6 L 1232.3 802.4 L 1209.2 803.8 L 1186.1 803.9 L 1177.2 797 L 1157.3 802.1 L 1123.7 817.1 L 1116.8 828.3 L 1088.9 844.5 L 1084 853.7 L 1068.9 861 L 1051.5 856.2 L 1041.6 865 L 1036.4 889.7 L 1007.8 919.5 L 1008.6 931.7 L 998.8 946.9 L 1001.2 967.8 L 986.3 973.2 L 977.9 977.7 L 972.4 962.3 L 962 966.4 L 955.8 965.7 L 949.1 976.2 L 921.3 975.9 L 911.4 970.5 L 906.7 973.8 L 895.7 963.4 L 897.6 952.7 L 893.1 948.5 L 885.4 952 L 886.8 940.3 L 894.2 931 L 879.5 915.9 L 875.2 906 L 867.2 898.1 L 860 897.2 L 851.3 902.2 L 839.7 907 L 829.8 914.8 L 814.4 911.9 L 804.4 902.8 L 798.4 901.6 L 789 906.4 L 783.3 906.4 L 781.3 893.3 Z" />
<path class="neighbor" d="M 1292.6 1115.9 L 1262.9 1120.1 L 1254 1095.2 L 1255.6 1012.6 L 1248.4 1005.1 L 1247 987.5 L 1234.5 974.9 L 1223.5 964.2 L 1228.1 945.3 L 1240.5 941.2 L 1247.8 925.5 L 1265.4 922.1 L 1273.3 911.4 L 1285.4 900.8 L 1298.3 900.7 L 1325.7 921.4 L 1324.3 933.4 L 1332.4 954.7 L 1325.3 969.2 L 1329.1 978.9 L 1311.6 1001.2 L 1300.6 1012.2 L 1293.8 1034.9 L 1294.7 1057.8 L 1292.6 1115.9 Z" />
<path class="neighbor" d="M 1730.3 518.2 L 1739.2 574.1 L 1752.6 583.5 L 1753.2 594.9 L 1768.2 607.3 L 1760.4 622.8 L 1746.5 695.8 L 1744.6 742.6 L 1698.7 776.6 L 1683.1 824 L 1698.1 837.3 L 1698 860.5 L 1721.1 861.3 L 1717.5 878.3 L 1707.4 880.3 L 1706.2 891.8 L 1699.5 892.6 L 1675.2 853.2 L 1666.7 851.7 L 1638.6 871.9 L 1610.7 861.4 L 1591.3 859.3 L 1580.9 864.3 L 1559.8 863.2 L 1538.6 878.6 L 1520.2 879.4 L 1476.7 860.8 L 1459.6 869.7 L 1441.2 869.1 L 1427.7 855.5 L 1391.7 842 L 1353 846.3 L 1343.6 854.1 L 1338.5 874.8 L 1328.2 889.3 L 1325.7 921.4 L 1298.3 900.7 L 1285.4 900.8 L 1273.3 911.4 L 1274.1 886.7 L 1232.6 878.5 L 1231.5 861.1 L 1211.2 837.6 L 1206.4 821.2 L 1209.2 803.8 L 1232.3 802.4 L 1245.6 789.6 L 1294.7 786.5 L 1326.7 780.8 L 1329.8 758.6 L 1349.4 734.5 L 1349.3 651.6 L 1400.1 635.6 L 1504.3 564.9 L 1627.7 496.3 L 1684.6 511.8 L 1704.9 531.5 L 1730.3 518.2 Z" />
<path class="neighbor" d="M 1228.1 945.3 L 1223.5 964.2 L 1234.5 974.9 L 1247 987.5 L 1248.4 1005.1 L 1255.6 1012.6 L 1254 1095.2 L 1262.9 1120.1 L 1233.9 1127.7 L 1225.9 1115.1 L 1216.3 1092.3 L 1213.4 1074.4 L 1221.4 1041.9 L 1212.3 1028.8 L 1208.9 1000.4 L 1209 974.3 L 1193.9 955.7 L 1196.6 944.5 L 1228.1 945.3 Z" />
<path class="neighbor" d="M 1196.6 944.5 L 1193.9 955.7 L 1209 974.3 L 1208.9 1000.4 L 1212.3 1028.8 L 1221.4 1041.9 L 1213.4 1074.4 L 1216.3 1092.3 L 1225.9 1115.1 L 1233.9 1127.7 L 1177.5 1148.8 L 1157.4 1161.2 L 1125 1171.6 L 1092.9 1161.4 L 1094.6 1147.2 L 1078.9 1116.2 L 1088.3 1075.5 L 1103.5 1045.3 L 1093.9 994.1 L 1089 967 L 1089.9 946.5 L 1152.4 944.8 L 1168.3 947.5 L 1179.9 941.7 L 1196.6 944.5 Z" />
<path class="neighbor" d="M 906.7 973.8 L 911.4 970.5 L 921.3 975.9 L 949.1 976.2 L 955.8 965.7 L 962 966.4 L 972.4 962.3 L 977.9 977.7 L 986.3 973.2 L 1001.2 967.8 L 1017.4 975.7 L 1023.7 987.6 L 1039.9 995.2 L 1052.4 986.1 L 1069.3 984.8 L 1093.9 994.1 L 1103.5 1045.3 L 1088.3 1075.5 L 1078.9 1116.2 L 1094.6 1147.2 L 1092.9 1161.4 L 1076.5 1161.7 L 1051.4 1154.7 L 1028.3 1155.1 L 985.7 1161.4 L 960.7 1171.8 L 925.1 1185 L 918.1 1184 L 920.9 1154.4 L 924.3 1149.9 L 923.2 1135.7 L 908 1120.6 L 896.5 1118.2 L 886.1 1108.3 L 893.9 1092.4 L 890.3 1075 L 891.9 1064.5 L 897.6 1064.4 L 899.8 1048.7 L 897 1041.8 L 900.4 1036.8 L 913.8 1032.5 L 904.9 1003.6 L 896.6 988.8 L 899.5 976.5 L 906.7 973.8 Z" />
<path class="neighbor" d="M 702.6 888.1 L 719.9 888.5 L 745.8 897.2 L 753.7 896.4 L 756.4 892.4 L 776.1 895.3 L 781.3 893.3 L 783.3 906.4 L 789 906.4 L 798.4 901.6 L 804.4 902.8 L 814.4 911.9 L 829.8 914.8 L 839.7 907 L 851.3 902.2 L 860 897.2 L 867.2 898.1 L 875.2 906 L 879.5 915.9 L 894.2 931 L 886.8 940.3 L 885.4 952 L 893.1 948.5 L 897.6 952.7 L 895.7 963.4 L 906.7 973.8 L 899.5 976.5 L 896.6 988.8 L 904.9 1003.6 L 913.8 1032.5 L 900.4 1036.8 L 897 1041.8 L 899.8 1048.7 L 897.6 1064.4 L 891.9 1064.5 L 881.8 1063.6 L 874.4 1078.1 L 864.2 1077.9 L 857.2 1070.2 L 859.6 1055.8 L 844.6 1033.7 L 835.2 1037.8 L 827.5 1038.6 L 817.6 1040.6 L 818 1027.4 L 812.2 1018 L 813.4 1007.5 L 805.6 992.4 L 795.5 979.5 L 766.7 979.5 L 758.4 986.3 L 748.4 987.1 L 742.3 994.9 L 738.1 1004.9 L 718.9 1020.7 L 703.1 999.4 L 689.1 985.3 L 679.9 980.6 L 670.9 973.5 L 666.8 957.6 L 661.6 949.6 L 651.1 943.7 L 667.1 926.2 L 678 926.9 L 687.4 920.8 L 695.3 920.8 L 701 916 L 698 904.1 L 701.9 900.3 L 702.6 888.1 Z" />
<path class="neighbor" d="M 595.4 895.3 L 614.5 889.5 L 626.4 890.6 L 636 886.6 L 702.6 888.1 L 701.9 900.3 L 698 904.1 L 701 916 L 695.3 920.8 L 687.4 920.8 L 678 926.9 L 667.1 926.2 L 651.1 943.7 L 631.9 928.7 L 616.7 926.3 L 608.4 916.2 L 608.7 910.7 L 597.7 903 L 595.4 895.3 Z" />
<path class="neighbor" d="M 891.9 1064.5 L 890.3 1075 L 893.9 1092.4 L 886.1 1108.3 L 896.5 1118.2 L 908 1120.6 L 923.2 1135.7 L 924.3 1149.9 L 920.9 1154.4 L 918.1 1184 L 908.7 1184.4 L 871.6 1167.2 L 838.9 1139.8 L 808.2 1120.1 L 784 1096.9 L 792.6 1085.4 L 794.5 1074.9 L 810.7 1055.4 L 827.5 1038.6 L 835.2 1037.8 L 844.6 1033.7 L 859.6 1055.8 L 857.2 1070.2 L 864.2 1077.9 L 874.4 1078.1 L 881.8 1063.6 L 891.9 1064.5 Z" />
<path class="neighbor" d="M 718.9 1020.7 L 738.1 1004.9 L 742.3 994.9 L 748.4 987.1 L 758.4 986.3 L 766.7 979.5 L 795.5 979.5 L 805.6 992.4 L 813.4 1007.5 L 812.2 1018 L 818 1027.4 L 817.6 1040.6 L 827.5 1038.6 L 810.7 1055.4 L 794.5 1074.9 L 792.6 1085.4 L 784 1096.9 L 774.3 1094.2 L 748.4 1079.7 L 729.6 1060.4 L 723.3 1047.3 L 718.9 1020.7 Z" />
<path class="neighbor" d="M 1001.2 967.8 L 998.8 946.9 L 1008.6 931.7 L 1007.8 919.5 L 1036.4 889.7 L 1041.6 865 L 1051.5 856.2 L 1068.9 861 L 1084 853.7 L 1088.9 844.5 L 1116.8 828.3 L 1123.7 817.1 L 1157.3 802.1 L 1177.2 797 L 1186.1 803.9 L 1209.2 803.8 L 1206.4 821.2 L 1211.2 837.6 L 1231.5 861.1 L 1232.6 878.5 L 1274.1 886.7 L 1273.3 911.4 L 1265.4 922.1 L 1247.8 925.5 L 1240.5 941.2 L 1228.1 945.3 L 1196.6 944.5 L 1179.9 941.7 L 1168.3 947.5 L 1152.4 944.8 L 1089.9 946.5 L 1089 967 L 1093.9 994.1 L 1069.3 984.8 L 1052.4 986.1 L 1039.9 995.2 L 1023.7 987.6 L 1017.4 975.7 L 1001.2 967.8 Z" />
<path class="neighbor" d="M 594.1 851.8 L 633.3 850.8 L 641.4 842.2 L 652.8 841.6 L 667 850.5 L 678.2 850.7 L 690.1 844.6 L 697.4 855 L 681.8 863.1 L 666.1 862.5 L 650.7 854.9 L 637.4 863.2 L 630.9 863.5 L 622.3 868.5 L 589.5 867.8 L 594.1 851.8 Z" />
<path class="neighbor" d="M 883.1 355 L 883.8 348 L 883.8 345.6 L 883.5 303 L 941.6 276.4 L 977.6 270.9 L 1007 261.2 L 1020.8 243.2 L 1062.9 229 L 1064.4 202.3 L 1085.3 199.2 L 1101.5 185.9 L 1148.6 179.8 L 1155.2 165.8 L 1145.8 158.2 L 1133.3 120.2 L 1131.2 98.3 L 1117.6 75.2 L 1152.2 55.5 L 1191.1 49.3 L 1213.9 34.4 L 1248.5 23.5 L 1309.5 17.1 L 1369.1 14.1 L 1387.2 19.5 L 1421.1 5.3 L 1459.6 5 L 1474.2 13.4 L 1498.9 11.2 L 1491.5 29.7 L 1497.2 64 L 1488.8 93.7 L 1466.6 113.8 L 1469.8 140.9 L 1499.2 162.3 L 1499.5 171 L 1521.7 185.6 L 1537.1 250.2 L 1548.7 282 L 1550.7 298.7 L 1544.3 328.1 L 1546.9 344.5 L 1542.3 364.2 L 1545.5 386.8 L 1531.2 401.8 L 1552.5 428.1 L 1553.8 443.5 L 1566.6 463.6 L 1583.5 457 L 1611.9 473.7 L 1627.7 496.3 L 1504.3 564.9 L 1400.1 635.6 L 1349.3 651.6 L 1309.4 655.2 L 1309 632.3 L 1292.3 626.4 L 1269.9 616.1 L 1261.4 599.2 L 1139.9 520.7 L 1018.5 442.2 L 883.1 355 Z" />
<path class="neighbor" d="M 1117.6 75.2 L 1131.2 98.3 L 1133.3 120.2 L 1145.8 158.2 L 1155.2 165.8 L 1148.6 179.8 L 1101.5 185.9 L 1085.3 199.2 L 1064.4 202.3 L 1062.9 229 L 1020.8 243.2 L 1007 261.2 L 977.6 270.9 L 941.6 276.4 L 883.5 303 L 883.8 345.6 L 878.3 345.6 L 879.1 364.9 L 856.9 366.1 L 845.3 374.3 L 828.9 374.3 L 815.9 369.6 L 785.6 373.4 L 773.9 401.5 L 762.7 404.1 L 745.7 449.5 L 695.7 488.4 L 683.8 538.1 L 669.1 554.2 L 664.7 567.2 L 583.7 570.1 L 583 570 L 584.7 553.3 L 598.6 543.5 L 610.3 524.8 L 608 512.6 L 620.4 487.2 L 640.4 464.3 L 652.6 458.5 L 662.1 437.5 L 662.9 418.3 L 675.9 396.1 L 699.9 383 L 722.7 346.2 L 723.4 345.7 L 741.5 331.9 L 775 327.9 L 803.3 303.3 L 821.4 293.7 L 851.4 263.6 L 842.4 218.9 L 856.1 187.9 L 860.9 168.9 L 884.1 144.6 L 920.2 128.2 L 946.9 113.3 L 971 76 L 982.3 53.9 L 1008.8 54.1 L 1030.5 69.4 L 1064.7 66.9 L 1102 74.8 L 1117.6 75.2 Z" />

<path class="country" d="M 581.5 585.2 L 589.4 573.2 L 730.3 573.5 L 723.5 521.5 L 732.3 503 L 766 499.7 L 764.9 407.6 L 883 409.5 L 883.1 355 L 1018.5 442.2 L 963.4 442.8 L 980.8 598.2 L 998.2 753.5 L 1004.4 757.9 L 996.4 783.1 L 851.9 783.7 L 846.5 791.7 L 832.6 789.3 L 812.3 796.4 L 787.2 786.4 L 775.8 787.2 L 769.7 808.4 L 757.6 815 L 733.9 790.3 L 712.1 763.8 L 688.2 754.3 L 671 743.7 L 650.9 744.1 L 633.3 751.9 L 615.4 748.8 L 603.1 760.3 L 600 741 L 610 723.2 L 614.5 689.3 L 610.5 653.7 L 606.2 635.8 L 609.8 617.9 L 600.5 600.8 L 581.5 585.2 Z" />


<g class="city"><circle cx="921.4916467836458" cy="131.5973874141064" r="5" /><text x="933.4916467836458" y="135.5973874141064">Casablanca</text></g>
<g class="city"><circle cx="566.679618214699" cy="811.3663379740526" r="5" /><text x="578.679618214699" y="815.3663379740526">Dakar</text></g>
<g class="city"><circle cx="907.6806785555262" cy="885.7291967781289" r="5" /><text x="919.6806785555262" y="889.7291967781289">Bamako</text></g>
<g class="city"><circle cx="703.2117402814481" cy="997.9849259443881" r="5" /><text x="715.2117402814481" y="1001.9849259443881">Conakry</text></g>
<g class="city"><circle cx="1140.771364693859" cy="895.7974326448814" r="5" /><text x="1152.771364693859" y="899.7974326448814">Ouagadougou</text></g>
<g class="city"><circle cx="907.6825503896655" cy="202.5104918964137" r="5" /><text x="919.6825503896655" y="206.5104918964137">Marrakesh</text></g>
<g class="city"><circle cx="719.2670016456802" cy="1036.1959721134276" r="5" /><text x="731.2670016456802" y="1040.1959721134276">Freetown</text></g>
<g class="city"><circle cx="620.6653306111398" cy="690.1057187193587" r="5" /><text x="632.6653306111398" y="694.1057187193587">Nouakchott</text></g>
<text class="map-title" x="80" y="105">Mauritania Political Study Map</text>
<text class="map-subtitle" x="80" y="145">Capital: Nouakchott | Continent: Africa</text>
  <text class="footer" x="80" y="1036">Made with Natural Earth. Free vector and raster map data @ naturalearthdata.com.</text>
</svg>
