<?xml version="1.0" encoding="UTF-8"?>
<svg xmlns="http://www.w3.org/2000/svg" width="1600" height="1100" viewBox="0 0 1600 1100" role="img" aria-labelledby="title desc">
  <title id="title">Mauritania Physical Study Map</title>
  <desc id="desc">Made with Natural Earth. Free vector and raster map data @ naturalearthdata.com.</desc>
  <defs>
    <linearGradient id="terrain" x1="0" x2="1" y1="0" y2="1">
      <stop offset="0%" stop-color="#6c8c53" />
      <stop offset="42%" stop-color="#d5c487" />
      <stop offset="72%" stop-color="#b88b5f" />
      <stop offset="100%" stop-color="#f1f5ee" />
    </linearGradient>
    <filter id="softShadow" x="-10%" y="-10%" width="120%" height="120%">
      <feDropShadow dx="0" dy="10" stdDeviation="12" flood-color="#0f172a" flood-opacity="0.16" />
    </filter>
    <style>
      .neighbor { fill: #ffffff; stroke: #94a3b8; stroke-width: 1.2; opacity: 0.72; }
      .country { fill: url(#terrain); stroke: #1f2937; stroke-width: 4; filter: url(#softShadow); }
      .admin1 { fill: none; stroke: #64748b; stroke-width: 1.1; stroke-dasharray: 6 7; opacity: 0.75; }
      .river { fill: none; stroke: #1d9bd1; stroke-width: 3; stroke-linecap: round; opacity: 0.88; }
      .lake { fill: #8ed1ea; stroke: #0ea5e9; stroke-width: 1.5; opacity: 0.8; }
      .city circle { fill: #ef4444; stroke: #ffffff; stroke-width: 2; }
      .city text, .terrain-label { fill: #172033; font: 700 24px system-ui, sans-serif; paint-order: stroke; stroke: #ffffff; stroke-width: 5; stroke-linejoin: round; }
      .map-title { fill: #0f172a; font: 800 46px system-ui, sans-serif; }
      .map-subtitle { fill: #475569; font: 600 24px system-ui, sans-serif; }
      .footer { fill: #64748b; font: 500 18px system-ui, sans-serif; }
    </style>
  </defs>
  <rect width="100%" height="100%" fill="#d8edf0" />
  <rect x="40" y="40" width="1520" height="1020" rx="32" fill="#ffffff" opacity="0.54" />
  <path class="neighbor" d="M 883.8 345.6 L 883.8 348 L 883.1 355 L 883 409.5 L 764.9 407.6 L 766 499.7 L 732.3 503 L 723.5 521.5 L 730.3 573.5 L 589.4 573.2 L 581.5 585.2 L 583 570 L 583.7 570.1 L 664.7 567.2 L 669.1 554.2 L 683.8 538.1 L 695.7 488.4 L 745.7 449.5 L 762.7 404.1 L 773.9 401.5 L 785.6 373.4 L 815.9 369.6 L 828.9 374.3 L 845.3 374.3 L 856.9 366.1 L 879.1 364.9 L 878.3 345.6 L 883.8 345.6 Z" />
<path class="neighbor" d="M -663.8 1191.5 L -685.1 1224.5 L -696.1 1251 L -709.9 1264.7 L -727.2 1267.2 L -732.1 1257.1 L -740.1 1255.6 L -751.3 1265.4 L -767 1257.9 L -757.8 1242.8 L -754.6 1226.3 L -748.4 1210.8 L -762.5 1189.5 L -765.3 1164.9 L -746.6 1133.9 L -734.4 1137.9 L -707.9 1146.4 L -669.7 1176.8 L -663.8 1191.5 Z M 1418.4 -439.4 L 1435.4 -430 L 1487.3 -423.3 L 1469.1 -398.7 L 1464.5 -373 L 1454.6 -366.9 L 1438.2 -370.2 L 1439.4 -361 L 1413.1 -340.8 L 1412.5 -324.5 L 1429.7 -330.2 L 1442.1 -314.4 L 1440.6 -304.2 L 1451.2 -290.7 L 1438.7 -279.7 L 1448 -251.9 L 1467.5 -247.3 L 1463.4 -231.7 L 1430.8 -211.3 L 1359.8 -221.1 L 1307.3 -209.4 L 1303.2 -187.7 L 1261.5 -183.1 L 1221 -199.4 L 1207.9 -191.6 L 1141.6 -207.9 L 1127.3 -221.9 L 1145.9 -243.5 L 1152.8 -315.2 L 1115.6 -353 L 1089.1 -371.2 L 1034 -385.1 L 1030.4 -411.3 L 1077.1 -419.1 L 1137.5 -409.9 L 1126.1 -450.6 L 1160.1 -435.2 L 1243.9 -463.3 L 1254.7 -492.8 L 1286.2 -500 L 1291.4 -487.4 L 1308.2 -486.8 L 1324.9 -472.3 L 1350 -455.4 L 1368.5 -458.2 L 1400 -441.7 L 1408 -438.6 L 1418.4 -439.4 Z M 1510.6 -193.3 L 1533.7 -207.1 L 1539.9 -176.2 L 1528 -148.4 L 1511.6 -155.7 L 1503.3 -179.9 L 1510.6 -193.3 Z" />
<path class="neighbor" d="M 594.1 851.8 L 579.2 823.8 L 561.3 810.9 L 577.1 804.1 L 594.6 778.8 L 603.1 760.3 L 615.4 748.8 L 633.3 751.9 L 650.9 744.1 L 671 743.7 L 688.2 754.3 L 712.1 763.8 L 733.9 790.3 L 757.6 815 L 759.3 837.4 L 766.4 858 L 779.8 868.1 L 782.9 882 L 781.3 893.3 L 776.1 895.3 L 756.4 892.4 L 753.7 896.4 L 745.8 897.2 L 719.9 888.5 L 702.6 888.1 L 636 886.6 L 626.4 890.6 L 614.5 889.5 L 595.4 895.3 L 589.5 867.8 L 622.3 868.5 L 630.9 863.5 L 637.4 863.2 L 650.7 854.9 L 666.1 862.5 L 681.8 863.1 L 697.4 855 L 690.1 844.6 L 678.2 850.7 L 667 850.5 L 652.8 841.6 L 641.4 842.2 L 633.3 850.8 L 594.1 851.8 Z" />
<path class="neighbor" d="M 781.3 893.3 L 782.9 882 L 779.8 868.1 L 766.4 858 L 759.3 837.4 L 757.6 815 L 769.7 808.4 L 775.8 787.2 L 787.2 786.4 L 812.3 796.4 L 832.6 789.3 L 846.5 791.7 L 851.9 783.7 L 996.4 783.1 L 1004.4 757.9 L 998.2 753.5 L 980.8 598.2 L 963.4 442.8 L 1018.5 442.2 L 1139.9 520.7 L 1261.4 599.2 L 1269.9 616.1 L 1292.3 626.4 L 1309 632.3 L 1309.4 655.2 L 1349.3 651.6 L 1349.4 734.5 L 1329.8 758.6 L 1326.7 780.8 L 1294.7 786.5 L 1245.6 789.6 L 1232.3 802.4 L 1209.2 803.8 L 1186.1 803.9 L 1177.2 797 L 1157.3 802.1 L 1123.7 817.1 L 1116.8 828.3 L 1088.9 844.5 L 1084 853.7 L 1068.9 861 L 1051.5 856.2 L 1041.6 865 L 1036.4 889.7 L 1007.8 919.5 L 1008.6 931.7 L 998.8 946.9 L 1001.2 967.8 L 986.3 973.2 L 977.9 977.7 L 972.4 962.3 L 962 966.4 L 955.8 965.7 L 949.1 976.2 L 921.3 975.9 L 911.4 970.5 L 906.7 973.8 L 895.7 963.4 L 897.6 952.7 L 893.1 948.5 L 885.4 952 L 886.8 940.3 L 894.2 931 L 879.5 915.9 L 875.2 906 L 867.2 898.1 L 860 897.2 L 851.3 902.2 L 839.7 907 L 829.8 914.8 L 814.4 911.9 L 804.4 902.8 L 798.4 901.6 L 789 906.4 L 783.3 906.4 L 781.3 893.3 Z" />
<path class="neighbor" d="M 1292.6 1115.9 L 1262.9 1120.1 L 1254 1095.2 L 1255.6 1012.6 L 1248.4 1005.1 L 1247 987.5 L 1234.5 974.9 L 1223.5 964.2 L 1228.1 945.3 L 1240.5 941.2 L 1247.8 925.5 L 1265.4 922.1 L 1273.3 911.4 L 1285.4 900.8 L 1298.3 900.7 L 1325.7 921.4 L 1324.3 933.4 L 1332.4 954.7 L 1325.3 969.2 L 1329.1 978.9 L 1311.6 1001.2 L 1300.6 1012.2 L 1293.8 1034.9 L 1294.7 1057.8 L 1292.6 1115.9 Z" />
<path class="neighbor" d="M 1730.3 518.2 L 1739.2 574.1 L 1752.6 583.5 L 1753.2 594.9 L 1768.2 607.3 L 1760.4 622.8 L 1746.5 695.8 L 1744.6 742.6 L 1698.7 776.6 L 1683.1 824 L 1698.1 837.3 L 1698 860.5 L 1721.1 861.3 L 1717.5 878.3 L 1707.4 880.3 L 1706.2 891.8 L 1699.5 892.6 L 1675.2 853.2 L 1666.7 851.7 L 1638.6 871.9 L 1610.7 861.4 L 1591.3 859.3 L 1580.9 864.3 L 1559.8 863.2 L 1538.6 878.6 L 1520.2 879.4 L 1476.7 860.8 L 1459.6 869.7 L 1441.2 869.1 L 1427.7 855.5 L 1391.7 842 L 1353 846.3 L 1343.6 854.1 L 1338.5 874.8 L 1328.2 889.3 L 1325.7 921.4 L 1298.3 900.7 L 1285.4 900.8 L 1273.3 911.4 L 1274.1 886.7 L 1232.6 878.5 L 1231.5 861.1 L 1211.2 837.6 L 1206.4 821.2 L 1209.2 803.8 L 1232.3 802.4 L 1245.6 789.6 L 1294.7 786.5 L 1326.7 780.8 L 1329.8 758.6 L 1349.4 734.5 L 1349.3 651.6 L 1400.1 635.6 L 1504.3 564.9 L 1627.7 496.3 L 1684.6 511.8 L 1704.9 531.5 L 1730.3 518.2 Z" />
<path class="neighbor" d="M 1228.1 945.3 L 1223.5 964.2 L 1234.5 974.9 L 1247 987.5 L 1248.4 1005.1 L 1255.6 1012.6 L 1254 1095.2 L 1262.9 1120.1 L 1233.9 1127.7 L 1225.9 1115.1 L 1216.3 1092.3 L 1213.4 1074.4 L 1221.4 1041.9 L 1212.3 1028.8 L 1208.9 1000.4 L 1209 974.3 L 1193.9 955.7 L 1196.6 944.5 L 1228.1 945.3 Z" />
<path class="neighbor" d="M 1196.6 944.5 L 1193.9 955.7 L 1209 974.3 L 1208.9 1000.4 L 1212.3 1028.8 L 1221.4 1041.9 L 1213.4 1074.4 L 1216.3 1092.3 L 1225.9 1115.1 L 1233.9 1127.7 L 1177.5 1148.8 L 1157.4 1161.2 L 1125 1171.6 L 1092.9 1161.4 L 1094.6 1147.2 L 1078.9 1116.2 L 1088.3 1075.5 L 1103.5 1045.3 L 1093.9 994.1 L 1089 967 L 1089.9 946.5 L 1152.4 944.8 L 1168.3 947.5 L 1179.9 941.7 L 1196.6 944.5 Z" />
<path class="neighbor" d="M 906.7 973.8 L 911.4 970.5 L 921.3 975.9 L 949.1 976.2 L 955.8 965.7 L 962 966.4 L 972.4 962.3 L 977.9 977.7 L 986.3 973.2 L 1001.2 967.8 L 1017.4 975.7 L 1023.7 987.6 L 1039.9 995.2 L 1052.4 986.1 L 1069.3 984.8 L 1093.9 994.1 L 1103.5 1045.3 L 1088.3 1075.5 L 1078.9 1116.2 L 1094.6 1147.2 L 1092.9 1161.4 L 1076.5 1161.7 L 1051.4 1154.7 L 1028.3 1155.1 L 985.7 1161.4 L 960.7 1171.8 L 925.1 1185 L 918.1 1184 L 920.9 1154.4 L 924.3 1149.9 L 923.2 1135.7 L 908 1120.6 L 896.5 1118.2 L 886.1 1108.3 L 893.9 1092.4 L 890.3 1075 L 891.9 1064.5 L 897.6 1064.4 L 899.8 1048.7 L 897 1041.8 L 900.4 1036.8 L 913.8 1032.5 L 904.9 1003.6 L 896.6 988.8 L 899.5 976.5 L 906.7 973.8 Z" />
<path class="neighbor" d="M 702.6 888.1 L 719.9 888.5 L 745.8 897.2 L 753.7 896.4 L 756.4 892.4 L 776.1 895.3 L 781.3 893.3 L 783.3 906.4 L 789 906.4 L 798.4 901.6 L 804.4 902.8 L 814.4 911.9 L 829.8 914.8 L 839.7 907 L 851.3 902.2 L 860 897.2 L 867.2 898.1 L 875.2 906 L 879.5 915.9 L 894.2 931 L 886.8 940.3 L 885.4 952 L 893.1 948.5 L 897.6 952.7 L 895.7 963.4 L 906.7 973.8 L 899.5 976.5 L 896.6 988.8 L 904.9 1003.6 L 913.8 1032.5 L 900.4 1036.8 L 897 1041.8 L 899.8 1048.7 L 897.6 1064.4 L 891.9 1064.5 L 881.8 1063.6 L 874.4 1078.1 L 864.2 1077.9 L 857.2 1070.2 L 859.6 1055.8 L 844.6 1033.7 L 835.2 1037.8 L 827.5 1038.6 L 817.6 1040.6 L 818 1027.4 L 812.2 1018 L 813.4 1007.5 L 805.6 992.4 L 795.5 979.5 L 766.7 979.5 L 758.4 986.3 L 748.4 987.1 L 742.3 994.9 L 738.1 1004.9 L 718.9 1020.7 L 703.1 999.4 L 689.1 985.3 L 679.9 980.6 L 670.9 973.5 L 666.8 957.6 L 661.6 949.6 L 651.1 943.7 L 667.1 926.2 L 678 926.9 L 687.4 920.8 L 695.3 920.8 L 701 916 L 698 904.1 L 701.9 900.3 L 702.6 888.1 Z" />
<path class="neighbor" d="M 595.4 895.3 L 614.5 889.5 L 626.4 890.6 L 636 886.6 L 702.6 888.1 L 701.9 900.3 L 698 904.1 L 701 916 L 695.3 920.8 L 687.4 920.8 L 678 926.9 L 667.1 926.2 L 651.1 943.7 L 631.9 928.7 L 616.7 926.3 L 608.4 916.2 L 608.7 910.7 L 597.7 903 L 595.4 895.3 Z" />
<path class="neighbor" d="M 891.9 1064.5 L 890.3 1075 L 893.9 1092.4 L 886.1 1108.3 L 896.5 1118.2 L 908 1120.6 L 923.2 1135.7 L 924.3 1149.9 L 920.9 1154.4 L 918.1 1184 L 908.7 1184.4 L 871.6 1167.2 L 838.9 1139.8 L 808.2 1120.1 L 784 1096.9 L 792.6 1085.4 L 794.5 1074.9 L 810.7 1055.4 L 827.5 1038.6 L 835.2 1037.8 L 844.6 1033.7 L 859.6 1055.8 L 857.2 1070.2 L 864.2 1077.9 L 874.4 1078.1 L 881.8 1063.6 L 891.9 1064.5 Z" />
<path class="neighbor" d="M 718.9 1020.7 L 738.1 1004.9 L 742.3 994.9 L 748.4 987.1 L 758.4 986.3 L 766.7 979.5 L 795.5 979.5 L 805.6 992.4 L 813.4 1007.5 L 812.2 1018 L 818 1027.4 L 817.6 1040.6 L 827.5 1038.6 L 810.7 1055.4 L 794.5 1074.9 L 792.6 1085.4 L 784 1096.9 L 774.3 1094.2 L 748.4 1079.7 L 729.6 1060.4 L 723.3 1047.3 L 718.9 1020.7 Z" />
<path class="neighbor" d="M 1001.2 967.8 L 998.8 946.9 L 1008.6 931.7 L 1007.8 919.5 L 1036.4 889.7 L 1041.6 865 L 1051.5 856.2 L 1068.9 861 L 1084 853.7 L 1088.9 844.5 L 1116.8 828.3 L 1123.7 817.1 L 1157.3 802.1 L 1177.2 797 L 1186.1 803.9 L 1209.2 803.8 L 1206.4 821.2 L 1211.2 837.6 L 1231.5 861.1 L 1232.6 878.5 L 1274.1 886.7 L 1273.3 911.4 L 1265.4 922.1 L 1247.8 925.5 L 1240.5 941.2 L 1228.1 945.3 L 1196.6 944.5 L 1179.9 941.7 L 1168.3 947.5 L 1152.4 944.8 L 1089.9 946.5 L 1089 967 L 1093.9 994.1 L 1069.3 984.8 L 1052.4 986.1 L 1039.9 995.2 L 1023.7 987.6 L 1017.4 975.7 L 1001.2 967.8 Z" />
<path class="neighbor" d="M 594.1 851.8 L 633.3 850.8 L 641.4 842.2 L 652.8 841.6 L 667 850.5 L 678.2 850.7 L 690.1 844.6 L 697.4 855 L 681.8 863.1 L 666.1 862.5 L 650.7 854.9 L 637.4 863.2 L 630.9 863.5 L 622.3 868.5 L 589.5 867.8 L 594.1 851.8 Z" />
<path class="neighbor" d="M 883.1 355 L 883.8 348 L 883.8 345.6 L 883.5 303 L 941.6 276.4 L 977.6 270.9 L 1007 261.2 L 1020.8 243.2 L 1062.9 229 L 1064.4 202.3 L 1085.3 199.2 L 1101.5 185.9 L 1148.6 179.8 L 1155.2 165.8 L 1145.8 158.2 L 1133.3 120.2 L 1131.2 98.3 L 1117.6 75.2 L 1152.2 55.5 L 1191.1 49.3 L 1213.9 34.4 L 1248.5 23.5 L 1309.5 17.1 L 1369.1 14.1 L 1387.2 19.5 L 1421.1 5.3 L 1459.6 5 L 1474.2 13.4 L 1498.9 11.2 L 1491.5 29.7 L 1497.2 64 L 1488.8 93.7 L 1466.6 113.8 L 1469.8 140.9 L 1499.2 162.3 L 1499.5 171 L 1521.7 185.6 L 1537.1 250.2 L 1548.7 282 L 1550.7 298.7 L 1544.3 328.1 L 1546.9 344.5 L 1542.3 364.2 L 1545.5 386.8 L 1531.2 401.8 L 1552.5 428.1 L 1553.8 443.5 L 1566.6 463.6 L 1583.5 457 L 1611.9 473.7 L 1627.7 496.3 L 1504.3 564.9 L 1400.1 635.6 L 1349.3 651.6 L 1309.4 655.2 L 1309 632.3 L 1292.3 626.4 L 1269.9 616.1 L 1261.4 599.2 L 1139.9 520.7 L 1018.5 442.2 L 883.1 355 Z" />
<path class="neighbor" d="M 1117.6 75.2 L 1131.2 98.3 L 1133.3 120.2 L 1145.8 158.2 L 1155.2 165.8 L 1148.6 179.8 L 1101.5 185.9 L 1085.3 199.2 L 1064.4 202.3 L 1062.9 229 L 1020.8 243.2 L 1007 261.2 L 977.6 270.9 L 941.6 276.4 L 883.5 303 L 883.8 345.6 L 878.3 345.6 L 879.1 364.9 L 856.9 366.1 L 845.3 374.3 L 828.9 374.3 L 815.9 369.6 L 785.6 373.4 L 773.9 401.5 L 762.7 404.1 L 745.7 449.5 L 695.7 488.4 L 683.8 538.1 L 669.1 554.2 L 664.7 567.2 L 583.7 570.1 L 583 570 L 584.7 553.3 L 598.6 543.5 L 610.3 524.8 L 608 512.6 L 620.4 487.2 L 640.4 464.3 L 652.6 458.5 L 662.1 437.5 L 662.9 418.3 L 675.9 396.1 L 699.9 383 L 722.7 346.2 L 723.4 345.7 L 741.5 331.9 L 775 327.9 L 803.3 303.3 L 821.4 293.7 L 851.4 263.6 L 842.4 218.9 L 856.1 187.9 L 860.9 168.9 L 884.1 144.6 L 920.2 128.2 L 946.9 113.3 L 971 76 L 982.3 53.9 L 1008.8 54.1 L 1030.5 69.4 L 1064.7 66.9 L 1102 74.8 L 1117.6 75.2 Z" />
<path class="lake" d="M 1205.5 1100.9 L 1205.5 1100.9 L 1205.5 1100.9 L 1206.5 1099.3 L 1207.1 1098.6 L 1206.8 1100.1 L 1205.7 1101.8 L 1204 1103 L 1202.6 1103.3 L 1201.9 1103.1 L 1201.5 1102.9 L 1201.2 1103.2 L 1201.3 1103.7 L 1201.2 1104.7 L 1201 1105.8 L 1200.8 1107 L 1200.5 1109 L 1200.7 1112 L 1199.4 1113 L 1198.6 1112.5 L 1198.4 1110.6 L 1197.2 1110.6 L 1195.3 1111.5 L 1194.5 1110.5 L 1193.6 1108.9 L 1192.2 1107.5 L 1189.4 1106 L 1186.5 1104.1 L 1184.1 1102.8 L 1180.3 1101.1 L 1175.9 1099.4 L 1172.9 1098.1 L 1171.5 1096.3 L 1171.1 1095.1 L 1172 1095.1 L 1173.6 1096.1 L 1174.9 1096.9 L 1175.9 1096 L 1177.1 1096.6 L 1178.1 1098.7 L 1178.9 1099.2 L 1179.8 1099 L 1180.7 1098.9 L 1181 1097.6 L 1181.1 1095.8 L 1181.6 1095.4 L 1182.5 1097.4 L 1183.7 1099.4 L 1184.7 1099.4 L 1186 1099.2 L 1187.5 1098.8 L 1188.7 1098.5 L 1189.4 1099.1 L 1189.8 1100.5 L 1190.6 1101.9 L 1192.3 1102.6 L 1193.7 1102.5 L 1194.2 1100.8 L 1194.8 1099.2 L 1195.1 1098.8 L 1194.9 1098.3 L 1193.9 1097.5 L 1193.3 1096.8 L 1193.2 1096 L 1193.3 1095.5 L 1194.2 1094.7 L 1195.3 1094.5 L 1196.2 1094.8 L 1196.8 1094.6 L 1198.5 1093.9 L 1199.7 1092.9 L 1199.5 1092.4 L 1197.8 1092.3 L 1197.2 1091.1 L 1198.8 1090.1 L 1200.1 1090.2 L 1200.2 1089.8 L 1199.3 1089 L 1198.9 1088.4 L 1199.1 1087.8 L 1199.4 1087.3 L 1199.2 1086.3 L 1198.8 1084.8 L 1198.8 1083.9 L 1198.1 1083.7 L 1197.4 1083.3 L 1196.7 1082.8 L 1196.1 1082.5 L 1196 1081.6 L 1196.3 1081.6 L 1197 1082 L 1198 1082.1 L 1198.7 1082.2 L 1199.3 1082.2 L 1200 1081.9 L 1200.8 1081.2 L 1201.2 1080.5 L 1201.5 1080.1 L 1202 1080.1 L 1202.3 1079.6 L 1202.3 1078.9 L 1201.9 1078.2 L 1201.3 1078.1 L 1200.6 1077.9 L 1199.4 1076.8 L 1198.2 1075 L 1197.5 1073.6 L 1197.5 1073 L 1197.4 1072.6 L 1197.4 1072 L 1195.6 1071.2 L 1193.5 1070.9 L 1193.6 1072.4 L 1193.4 1073.2 L 1191.9 1072.7 L 1191.1 1072.2 L 1190.8 1071.3 L 1190.1 1070.8 L 1188.3 1070.7 L 1187 1070.6 L 1187.4 1070 L 1188.2 1069.5 L 1189.7 1069.4 L 1190.9 1069.3 L 1191.9 1069.3 L 1193.2 1069.4 L 1194.8 1069.5 L 1196.2 1069.7 L 1195.1 1067.9 L 1193.4 1066.1 L 1191.8 1066 L 1189.2 1065.9 L 1187 1066.2 L 1183.6 1067 L 1180.2 1067.8 L 1178.6 1068 L 1177.8 1067.7 L 1176.6 1068.4 L 1174 1069.3 L 1172.2 1069.3 L 1173.7 1068.8 L 1176.2 1067.6 L 1178.4 1066.7 L 1180.6 1065.8 L 1182.9 1065.3 L 1185.1 1065.2 L 1186.3 1064.6 L 1186.5 1063.8 L 1186.6 1063.3 L 1188.2 1063.5 L 1189.9 1063.2 L 1191.2 1062.5 L 1192.2 1062.3 L 1192.1 1062 L 1190.9 1061.6 L 1190.1 1061.2 L 1190 1060.6 L 1190.2 1059.9 L 1190.2 1058.9 L 1189.6 1057.2 L 1189 1055.8 L 1188.8 1054.8 L 1187.7 1054 L 1185.5 1052.6 L 1184.4 1051.7 L 1183.4 1051.8 L 1183.1 1053.1 L 1181.9 1053.9 L 1180.7 1054.2 L 1181.5 1053.2 L 1182.1 1051.5 L 1180.8 1050.3 L 1179.7 1049.9 L 1177.8 1051.1 L 1176.8 1050.9 L 1176.8 1048.6 L 1176.2 1047.7 L 1175.5 1048.4 L 1174.5 1049.6 L 1173.3 1050.1 L 1172.6 1050.1 L 1172.6 1049.4 L 1170.8 1049.2 L 1168.5 1049.5 L 1168.3 1048.9 L 1168.8 1048.3 L 1169.8 1048.3 L 1172.1 1048.1 L 1174 1047.5 L 1174.1 1047 L 1173.4 1046.3 L 1171.4 1044.6 L 1169.7 1043.1 L 1168.6 1042.5 L 1167.1 1041.8 L 1166.9 1041.1 L 1167.5 1040 L 1165.6 1037.1 L 1162.9 1033.2 L 1161 1031.5 L 1159.8 1030.5 L 1158.3 1029.9 L 1156.6 1030.2 L 1155.1 1030.4 L 1154.7 1031.8 L 1154.2 1033.3 L 1153.2 1031.5 L 1151.9 1029.5 L 1150.6 1029.2 L 1148.8 1028.1 L 1147.1 1027.1 L 1145.2 1026.6 L 1143.8 1026.9 L 1142.1 1028.1 L 1140.1 1029.3 L 1138 1030 L 1135.8 1030.6 L 1134 1030.5 L 1135.9 1029 L 1138.4 1028.2 L 1141.1 1026.9 L 1142.9 1025.8 L 1144.9 1025.1 L 1146.2 1024.2 L 1146.9 1024.7 L 1149.1 1026.2 L 1150 1027.1 L 1155.2 1027.8 L 1157.5 1027.2 L 1157.3 1026.2 L 1156.3 1025 L 1154.9 1023.9 L 1154.5 1021.7 L 1153.5 1019.2 L 1153.3 1017.9 L 1153.3 1016.2 L 1153.5 1014.5 L 1154.3 1013 L 1155 1014.4 L 1155.2 1016.2 L 1155.2 1017.9 L 1155.4 1019.7 L 1155.9 1020.9 L 1157 1022.5 L 1158.1 1022.8 L 1158.8 1022.8 L 1159.9 1025.3 L 1162.2 1029.7 L 1164.3 1032.1 L 1165.4 1032.3 L 1166.3 1031.6 L 1166.3 1029.8 L 1166.1 1027.7 L 1166.6 1026.4 L 1167.3 1025.8 L 1167.6 1026 L 1167.1 1027.2 L 1166.7 1028.4 L 1168 1029.6 L 1169.7 1030.2 L 1170.3 1030 L 1170.3 1030.7 L 1168.5 1032.4 L 1166.8 1034.5 L 1167 1035.3 L 1167.6 1036.3 L 1169.8 1038.7 L 1172 1040.3 L 1173.2 1041.3 L 1174.3 1042.8 L 1175.4 1043.3 L 1175.8 1044.2 L 1176.8 1044.8 L 1178.3 1045.6 L 1179.6 1045.6 L 1181.6 1045.2 L 1182.9 1044.4 L 1184.3 1044.4 L 1185.4 1044.1 L 1186.9 1044.4 L 1188.5 1045.5 L 1188.8 1046.5 L 1186.5 1046.5 L 1184.2 1046.8 L 1183.8 1047.5 L 1184.6 1048.1 L 1186.3 1049.3 L 1188.9 1051.3 L 1191.1 1052.8 L 1192 1054.1 L 1192.8 1057.6 L 1193.8 1060 L 1194.9 1060.7 L 1195.8 1060.6 L 1196.4 1060.8 L 1197.7 1060.7 L 1198.3 1059.6 L 1197.8 1058.1 L 1197.7 1057.3 L 1197.9 1056.1 L 1198.4 1054.3 L 1198.6 1053.1 L 1197.9 1051.7 L 1198.2 1050.3 L 1199.3 1049.8 L 1200.4 1050.1 L 1201.3 1050.4 L 1201.9 1050.1 L 1201.7 1049 L 1201.2 1047.4 L 1200.2 1045.6 L 1199.5 1044.5 L 1200.6 1044.1 L 1201.8 1042.8 L 1202.9 1041 L 1203.6 1040.1 L 1201.5 1039.5 L 1199 1038.7 L 1198.6 1037.7 L 1199.1 1036.6 L 1199 1035.2 L 1198.8 1033.5 L 1199.5 1032.2 L 1200.6 1031.7 L 1201.1 1030.4 L 1201.5 1028 L 1202.3 1026.5 L 1202.8 1026.6 L 1202.4 1028.4 L 1201.8 1030.7 L 1201.2 1031.9 L 1200.3 1032.5 L 1200.1 1034.5 L 1199.8 1036.7 L 1199.4 1037.6 L 1199.9 1038.2 L 1202.1 1038.8 L 1204.4 1039.5 L 1205.1 1040.4 L 1205.8 1040.9 L 1206.3 1041.1 L 1206 1041.4 L 1204.5 1041.6 L 1203.4 1041.9 L 1203.5 1042.5 L 1202.6 1044.1 L 1202.3 1045.8 L 1203 1047.2 L 1204 1048.7 L 1205.4 1049.4 L 1205.3 1049.8 L 1204.4 1050 L 1202.8 1050.3 L 1201.5 1051 L 1201 1052.4 L 1200.1 1054.2 L 1199.6 1055.4 L 1200.2 1056.3 L 1201 1057 L 1201.8 1058.1 L 1203.7 1057.4 L 1205 1056.6 L 1204.8 1057.7 L 1204.8 1058.1 L 1204.6 1058.6 L 1204.3 1059.2 L 1204.6 1060.3 L 1205.7 1061.7 L 1205.8 1064 L 1205.8 1067 L 1205.9 1068.5 L 1205 1068.3 L 1204.4 1068.4 L 1203.9 1069.2 L 1204 1069.9 L 1204.4 1070.8 L 1204.7 1071.5 L 1206 1070.7 L 1207.2 1069.7 L 1207 1071 L 1206.6 1072.3 L 1206.4 1072.9 L 1206.4 1074.2 L 1206.1 1075.4 L 1205.7 1076.5 L 1205.7 1077 L 1205.7 1077.3 L 1206.3 1078.3 L 1206.3 1079.2 L 1205.7 1079.9 L 1205.5 1080.7 L 1205.8 1081.3 L 1205.8 1082 L 1205.8 1082.6 L 1205.7 1083 L 1205.5 1084.2 L 1206.1 1085.4 L 1206.7 1085.6 L 1206.5 1086.6 L 1205.9 1087.5 L 1205.5 1089.1 L 1205.2 1091 L 1204.4 1092.9 L 1204.3 1097.5 L 1204.9 1101 L 1205.5 1100.9 Z M 1200.4 1100.7 L 1200.4 1100.7 L 1200.4 1100.7 L 1202.2 1099 L 1201.5 1097.6 L 1199.9 1096.5 L 1198 1096.1 L 1196.4 1097.1 L 1196.1 1099.3 L 1197.5 1100.2 L 1199 1101.5 L 1200.4 1100.7 Z" />
<path class="lake" d="M 1205.5 1100.9 L 1205.5 1100.9 L 1205.5 1100.9 L 1206.5 1099.3 L 1207.1 1098.6 L 1206.8 1100.1 L 1205.7 1101.8 L 1204 1103 L 1202.6 1103.3 L 1201.9 1103.1 L 1201.5 1102.9 L 1201.2 1103.2 L 1201.3 1103.7 L 1201.2 1104.7 L 1201 1105.8 L 1200.8 1107 L 1200.5 1109 L 1200.7 1112 L 1199.4 1113 L 1198.6 1112.5 L 1198.4 1110.6 L 1197.2 1110.6 L 1195.3 1111.5 L 1194.5 1110.5 L 1193.6 1108.9 L 1192.2 1107.5 L 1189.4 1106 L 1186.5 1104.1 L 1184.1 1102.8 L 1180.3 1101.1 L 1175.9 1099.4 L 1172.9 1098.1 L 1171.5 1096.3 L 1171.1 1095.1 L 1172 1095.1 L 1173.6 1096.1 L 1174.9 1096.9 L 1175.9 1096 L 1177.1 1096.6 L 1178.1 1098.7 L 1178.9 1099.2 L 1179.8 1099 L 1180.7 1098.9 L 1181 1097.6 L 1181.1 1095.8 L 1181.6 1095.4 L 1182.5 1097.4 L 1183.7 1099.4 L 1184.7 1099.4 L 1186 1099.2 L 1187.5 1098.8 L 1188.7 1098.5 L 1189.4 1099.1 L 1189.8 1100.5 L 1190.6 1101.9 L 1192.3 1102.6 L 1193.7 1102.5 L 1194.2 1100.8 L 1194.8 1099.2 L 1195.1 1098.8 L 1194.9 1098.3 L 1193.9 1097.5 L 1193.3 1096.8 L 1193.2 1096 L 1193.3 1095.5 L 1194.2 1094.7 L 1195.3 1094.5 L 1196.2 1094.8 L 1196.8 1094.6 L 1198.5 1093.9 L 1199.7 1092.9 L 1199.5 1092.4 L 1197.8 1092.3 L 1197.2 1091.1 L 1198.8 1090.1 L 1200.1 1090.2 L 1200.2 1089.8 L 1199.3 1089 L 1198.9 1088.4 L 1199.1 1087.8 L 1199.4 1087.3 L 1199.2 1086.3 L 1198.8 1084.8 L 1198.8 1083.9 L 1198.1 1083.7 L 1197.4 1083.3 L 1196.7 1082.8 L 1196.1 1082.5 L 1196 1081.6 L 1196.3 1081.6 L 1197 1082 L 1198 1082.1 L 1198.7 1082.2 L 1199.3 1082.2 L 1200 1081.9 L 1200.8 1081.2 L 1201.2 1080.5 L 1201.5 1080.1 L 1202 1080.1 L 1202.3 1079.6 L 1202.3 1078.9 L 1201.9 1078.2 L 1201.3 1078.1 L 1200.6 1077.9 L 1199.4 1076.8 L 1198.2 1075 L 1197.5 1073.6 L 1197.5 1073 L 1197.4 1072.6 L 1197.4 1072 L 1195.6 1071.2 L 1193.5 1070.9 L 1193.6 1072.4 L 1193.4 1073.2 L 1191.9 1072.7 L 1191.1 1072.2 L 1190.8 1071.3 L 1190.1 1070.8 L 1188.3 1070.7 L 1187 1070.6 L 1187.4 1070 L 1188.2 1069.5 L 1189.7 1069.4 L 1190.9 1069.3 L 1191.9 1069.3 L 1193.2 1069.4 L 1194.8 1069.5 L 1196.2 1069.7 L 1195.1 1067.9 L 1193.4 1066.1 L 1191.8 1066 L 1189.2 1065.9 L 1187 1066.2 L 1183.6 1067 L 1180.2 1067.8 L 1178.6 1068 L 1177.8 1067.7 L 1176.6 1068.4 L 1174 1069.3 L 1172.2 1069.3 L 1173.7 1068.8 L 1176.2 1067.6 L 1178.4 1066.7 L 1180.6 1065.8 L 1182.9 1065.3 L 1185.1 1065.2 L 1186.3 1064.6 L 1186.5 1063.8 L 1186.6 1063.3 L 1188.2 1063.5 L 1189.9 1063.2 L 1191.2 1062.5 L 1192.2 1062.3 L 1192.1 1062 L 1190.9 1061.6 L 1190.1 1061.2 L 1190 1060.6 L 1190.2 1059.9 L 1190.2 1058.9 L 1189.6 1057.2 L 1189 1055.8 L 1188.8 1054.8 L 1187.7 1054 L 1185.5 1052.6 L 1184.4 1051.7 L 1183.4 1051.8 L 1183.1 1053.1 L 1181.9 1053.9 L 1180.7 1054.2 L 1181.5 1053.2 L 1182.1 1051.5 L 1180.8 1050.3 L 1179.7 1049.9 L 1177.8 1051.1 L 1176.8 1050.9 L 1176.8 1048.6 L 1176.2 1047.7 L 1175.5 1048.4 L 1174.5 1049.6 L 1173.3 1050.1 L 1172.6 1050.1 L 1172.6 1049.4 L 1170.8 1049.2 L 1168.5 1049.5 L 1168.3 1048.9 L 1168.8 1048.3 L 1169.8 1048.3 L 1172.1 1048.1 L 1174 1047.5 L 1174.1 1047 L 1173.4 1046.3 L 1171.4 1044.6 L 1169.7 1043.1 L 1168.6 1042.5 L 1167.1 1041.8 L 1166.9 1041.1 L 1167.5 1040 L 1165.6 1037.1 L 1162.9 1033.2 L 1161 1031.5 L 1159.8 1030.5 L 1158.3 1029.9 L 1156.6 1030.2 L 1155.1 1030.4 L 1154.7 1031.8 L 1154.2 1033.3 L 1153.2 1031.5 L 1151.9 1029.5 L 1150.6 1029.2 L 1148.8 1028.1 L 1147.1 1027.1 L 1145.2 1026.6 L 1143.8 1026.9 L 1142.1 1028.1 L 1140.1 1029.3 L 1138 1030 L 1135.8 1030.6 L 1134 1030.5 L 1135.9 1029 L 1138.4 1028.2 L 1141.1 1026.9 L 1142.9 1025.8 L 1144.9 1025.1 L 1146.2 1024.2 L 1146.9 1024.7 L 1149.1 1026.2 L 1150 1027.1 L 1155.2 1027.8 L 1157.5 1027.2 L 1157.3 1026.2 L 1156.3 1025 L 1154.9 1023.9 L 1154.5 1021.7 L 1153.5 1019.2 L 1153.3 1017.9 L 1153.3 1016.2 L 1153.5 1014.5 L 1154.3 1013 L 1155 1014.4 L 1155.2 1016.2 L 1155.2 1017.9 L 1155.4 1019.7 L 1155.9 1020.9 L 1157 1022.5 L 1158.1 1022.8 L 1158.8 1022.8 L 1159.9 1025.3 L 1162.2 1029.7 L 1164.3 1032.1 L 1165.4 1032.3 L 1166.3 1031.6 L 1166.3 1029.8 L 1166.1 1027.7 L 1166.6 1026.4 L 1167.3 1025.8 L 1167.6 1026 L 1167.1 1027.2 L 1166.7 1028.4 L 1168 1029.6 L 1169.7 1030.2 L 1170.3 1030 L 1170.3 1030.7 L 1168.5 1032.4 L 1166.8 1034.5 L 1167 1035.3 L 1167.6 1036.3 L 1169.8 1038.7 L 1172 1040.3 L 1173.2 1041.3 L 1174.3 1042.8 L 1175.4 1043.3 L 1175.8 1044.2 L 1176.8 1044.8 L 1178.3 1045.6 L 1179.6 1045.6 L 1181.6 1045.2 L 1182.9 1044.4 L 1184.3 1044.4 L 1185.4 1044.1 L 1186.9 1044.4 L 1188.5 1045.5 L 1188.8 1046.5 L 1186.5 1046.5 L 1184.2 1046.8 L 1183.8 1047.5 L 1184.6 1048.1 L 1186.3 1049.3 L 1188.9 1051.3 L 1191.1 1052.8 L 1192 1054.1 L 1192.8 1057.6 L 1193.8 1060 L 1194.9 1060.7 L 1195.8 1060.6 L 1196.4 1060.8 L 1197.7 1060.7 L 1198.3 1059.6 L 1197.8 1058.1 L 1197.7 1057.3 L 1197.9 1056.1 L 1198.4 1054.3 L 1198.6 1053.1 L 1197.9 1051.7 L 1198.2 1050.3 L 1199.3 1049.8 L 1200.4 1050.1 L 1201.3 1050.4 L 1201.9 1050.1 L 1201.7 1049 L 1201.2 1047.4 L 1200.2 1045.6 L 1199.5 1044.5 L 1200.6 1044.1 L 1201.8 1042.8 L 1202.9 1041 L 1203.6 1040.1 L 1201.5 1039.5 L 1199 1038.7 L 1198.6 1037.7 L 1199.1 1036.6 L 1199 1035.2 L 1198.8 1033.5 L 1199.5 1032.2 L 1200.6 1031.7 L 1201.1 1030.4 L 1201.5 1028 L 1202.3 1026.5 L 1202.8 1026.6 L 1202.4 1028.4 L 1201.8 1030.7 L 1201.2 1031.9 L 1200.3 1032.5 L 1200.1 1034.5 L 1199.8 1036.7 L 1199.4 1037.6 L 1199.9 1038.2 L 1202.1 1038.8 L 1204.4 1039.5 L 1205.1 1040.4 L 1205.8 1040.9 L 1206.3 1041.1 L 1206 1041.4 L 1204.5 1041.6 L 1203.4 1041.9 L 1203.5 1042.5 L 1202.6 1044.1 L 1202.3 1045.8 L 1203 1047.2 L 1204 1048.7 L 1205.4 1049.4 L 1205.3 1049.8 L 1204.4 1050 L 1202.8 1050.3 L 1201.5 1051 L 1201 1052.4 L 1200.1 1054.2 L 1199.6 1055.4 L 1200.2 1056.3 L 1201 1057 L 1201.8 1058.1 L 1203.7 1057.4 L 1205 1056.6 L 1204.8 1057.7 L 1204.8 1058.1 L 1204.6 1058.6 L 1204.3 1059.2 L 1204.6 1060.3 L 1205.7 1061.7 L 1205.8 1064 L 1205.8 1067 L 1205.9 1068.5 L 1205 1068.3 L 1204.4 1068.4 L 1203.9 1069.2 L 1204 1069.9 L 1204.4 1070.8 L 1204.7 1071.5 L 1206 1070.7 L 1207.2 1069.7 L 1207 1071 L 1206.6 1072.3 L 1206.4 1072.9 L 1206.4 1074.2 L 1206.1 1075.4 L 1205.7 1076.5 L 1205.7 1077 L 1205.7 1077.3 L 1206.3 1078.3 L 1206.3 1079.2 L 1205.7 1079.9 L 1205.5 1080.7 L 1205.8 1081.3 L 1205.8 1082 L 1205.8 1082.6 L 1205.7 1083 L 1205.5 1084.2 L 1206.1 1085.4 L 1206.7 1085.6 L 1206.5 1086.6 L 1205.9 1087.5 L 1205.5 1089.1 L 1205.2 1091 L 1204.4 1092.9 L 1204.3 1097.5 L 1204.9 1101 L 1205.5 1100.9 Z M 1200.4 1100.7 L 1200.4 1100.7 L 1200.4 1100.7 L 1202.2 1099 L 1201.5 1097.6 L 1199.9 1096.5 L 1198 1096.1 L 1196.4 1097.1 L 1196.1 1099.3 L 1197.5 1100.2 L 1199 1101.5 L 1200.4 1100.7 Z" />
<path class="country" d="M 581.5 585.2 L 589.4 573.2 L 730.3 573.5 L 723.5 521.5 L 732.3 503 L 766 499.7 L 764.9 407.6 L 883 409.5 L 883.1 355 L 1018.5 442.2 L 963.4 442.8 L 980.8 598.2 L 998.2 753.5 L 1004.4 757.9 L 996.4 783.1 L 851.9 783.7 L 846.5 791.7 L 832.6 789.3 L 812.3 796.4 L 787.2 786.4 L 775.8 787.2 L 769.7 808.4 L 757.6 815 L 733.9 790.3 L 712.1 763.8 L 688.2 754.3 L 671 743.7 L 650.9 744.1 L 633.3 751.9 L 615.4 748.8 L 603.1 760.3 L 600 741 L 610 723.2 L 614.5 689.3 L 610.5 653.7 L 606.2 635.8 L 609.8 617.9 L 600.5 600.8 L 581.5 585.2 Z" />

<path class="river" d="M 1134.1 1030.5 L 1139.2 1028.6 L 1141.7 1027.5 L 1144 1026 L 1146.2 1025.8 L 1148.9 1027.5 L 1153.4 1029 L 1160.6 1029.4" />
<path class="river" d="M 1160.7 1029.4 L 1155.7 1022.4 L 1154.1 1018.3 L 1154.3 1013" />
<path class="river" d="M 1362.2 986.1 L 1358.8 972.6 L 1359 965.9 L 1363.3 959.3 M 1052.5 791.1 L 1045.8 788.1 L 1042.8 786 L 1040.8 783" />
<path class="river" d="M 1160.6 1029.4 L 1169.6 1040.1 L 1176.8 1046.1 L 1185.1 1050.7 L 1190.2 1055.2 L 1192.1 1059.4 L 1193.8 1061.9 L 1195.3 1062.6 L 1197.1 1065.9 L 1199.2 1071.5 L 1201.3 1075 L 1203.3 1076.2 L 1204 1080.4 L 1203.6 1087.4 L 1202.7 1092 L 1201.5 1094.1 L 1201.5 1096.3 L 1202.8 1098.5 L 1202.7 1100.4 L 1200.6 1102.3 L 1199.6 1105.4 L 1199.4 1113" />
<path class="river" d="M 760.6 959.9 L 763.6 962.2 L 766.3 962.4 L 769.7 961.4 L 771.9 958.9 L 772.7 954.9 L 773.6 952.7 L 774.9 952.1 L 777.4 952 L 778.1 950.1 L 777.8 946.5 L 778.9 942.6 L 781.5 938.4 L 783.8 936.2 L 785.9 935.7 L 788.9 933.8 L 792.6 930.3 L 795.2 927.3 L 796.4 924.5 L 797.6 923.6 L 798.7 924.5 L 801 924.5 L 804.5 923.8 L 809 918.8 L 814.5 909.5 L 819 904.2 L 822.3 902.7 L 823.5 900.9 L 822.4 898.7 L 823.3 895 L 826.2 889.8 L 827.2 886.3 L 826.4 884.6 L 826.7 883.1 L 828 881.9 L 827.7 880.5 L 825.9 879 L 825.2 877.4 L 825.6 875.7 L 825.2 874.7 L 824.1 874.6 L 823.1 872.5 L 822.1 868.2 L 820.3 865.6 L 817.6 864.5 L 813.8 864 L 809.1 864 L 806.8 862.5 L 807.1 859.4 L 808 857.8 L 809.2 857.4 L 809.3 856.9 L 808.6 855.1 L 805.8 850.2 L 804.5 846.7 L 804.3 846.2 L 803.6 845.2" />
<path class="river" d="M 1006.3 940.2 L 1009.1 940.7 L 1011.2 939.6 L 1013.6 937.1 L 1016.1 935.7 L 1020.1 935 L 1026 930.6 L 1028.8 929.6 L 1030.3 930.7 L 1032.3 930.3 L 1034.9 928.4 L 1038 926.9 L 1041.8 926 L 1047.3 920.1 L 1054.5 909.3 L 1058.2 902.9 L 1058.4 900.8 L 1059.5 898.6 L 1061.6 896 L 1063.7 894.7 L 1065.9 894.7 L 1067.3 892 L 1067.9 886.6 L 1069.4 883.5 L 1071.5 882.6 L 1073.1 883.3 L 1074.1 885.3 L 1075.6 886 L 1077.7 885.2 L 1078.8 886.2 L 1078.8 888.8 L 1080.3 891.2 L 1083.2 893.4 L 1086.9 894.9 L 1091.4 895.8 L 1093.2 897 L 1092.2 898.5 L 1092.6 900.7 L 1094.3 903.8 L 1094.1 905.7 L 1091.8 906.5 L 1091.5 908.5 L 1093 911.8 L 1093 914.2 L 1091.3 915.7 L 1091.9 917.1 L 1094.9 918.5 L 1095.3 923.4 L 1093.2 931.9 L 1092.9 936.5 L 1094.3 937.1 L 1094.8 939.2 L 1093.9 944.9 L 1091.1 955 L 1090.8 959.9 L 1092.1 962.9 L 1093.6 964.8 L 1095.3 965.6 L 1095.4 966.7 L 1094.1 968.1 L 1094.2 969.6 L 1095.8 971.1 L 1096.1 972.6 L 1095.4 974.3 L 1095.5 978.2 L 1096.7 984.4 L 1096.7 988.5 L 1095.6 990.3 L 1096.2 993.5 L 1098.3 998 L 1099 1001.6 L 1098.3 1004.5 L 1098.5 1006.3 L 1099.5 1007 L 1098.9 1009.3 L 1096.9 1013.2 L 1096.8 1015.6 L 1098.9 1016.3 L 1100.4 1018.7 L 1101.2 1023 L 1103.7 1026.9 L 1107.7 1030.5 L 1110.6 1034.7 L 1112.5 1039.5 L 1114.9 1043.3 L 1117.6 1046.1 L 1120.6 1047.4 L 1123.7 1047.2 L 1126.1 1046.3 L 1127.6 1044.6 L 1129.3 1044 L 1131.2 1044.4 L 1132.1 1043.8 L 1132 1042.3 L 1131 1041.4 L 1129.1 1041.2 L 1127.8 1040.4 L 1127.2 1038.9 L 1127.4 1036.3 L 1128.4 1032.6 L 1130.2 1030.7 L 1134.1 1030.5" />
<path class="river" d="M 1120.8 836.8 L 1121.7 848.7 L 1119.9 852.8 L 1120 856.2 L 1121.5 860.1 L 1121.2 864.1 L 1119.3 868.2 L 1118.9 870.8 L 1120 871.7 L 1124.1 871.8 L 1131.4 871.2 L 1137.1 872.1 L 1141.3 874.4 L 1144.9 875.1 L 1148 874.3 L 1150.3 874.6 L 1152 876.1 L 1153.1 879.1 L 1153.8 883.7 L 1154.7 885.8 L 1155.6 885.2 L 1156.3 885.5 L 1156.8 886.7 L 1156.4 897.2 L 1158.1 903.7 L 1161.9 910.1 L 1164.8 914 L 1167 915.3 L 1168 918.1 L 1167.7 922.1 L 1169.7 925.1 L 1173.8 927 L 1176.5 928.9 L 1177.7 930.6 L 1178 931.9 L 1177.3 932.6 L 1178.3 934.7 L 1181.1 938.2 L 1182.3 942.3 L 1181.9 946.8 L 1182.3 950 L 1183.3 951.7 L 1183.5 953 L 1182.8 953.8 L 1182.7 955.3 L 1183.6 958.2 L 1173.8 961.5 L 1170.5 961.5 L 1170.4 959.3 L 1169.7 958.1 L 1168.2 958.1 L 1166.3 959.4 L 1164.1 962.2 L 1162 963.2 L 1160.2 962.4 L 1158.8 962.4 L 1157.8 963.3 L 1157.3 965.2 L 1157.3 968 L 1157.9 970.3 L 1159.1 972.1 L 1158.9 973.8 L 1157.3 975.4 L 1157.2 977 L 1158.6 978.5 L 1159.7 982.6 L 1160.5 989.2 L 1159 992.1 L 1155 991.4 L 1151.2 992.5 L 1147.4 995.3 L 1145.9 998.4 L 1146.6 1001.7 L 1147.9 1004.3 L 1150 1006.1 L 1151 1008 L 1150.9 1010 L 1151.7 1011.5 L 1154.3 1013" />
<path class="river" d="M 1421.3 1161.5 L 1419.8 1164.1 L 1416.4 1166.8 L 1414.5 1171.6 L 1413.7 1182.1 L 1414.5 1186.7 M 1421.3 1161.5 L 1421.5 1181.6 M 1428.1 1148.1 L 1425.2 1148.7 L 1422.6 1149.8 L 1420.4 1151.3 L 1419.3 1152.7 L 1419.3 1153.9 L 1417.8 1155.3 L 1415 1156.7 L 1411.4 1156.5 L 1407.2 1154.6 L 1402.3 1154.3 L 1392.8 1155.6 M 1428.1 1148.1 L 1425.9 1150.3 L 1424.3 1152 L 1423.6 1153.2 L 1423.7 1154.1 L 1424.6 1154.7 L 1424.4 1155.7 L 1423.3 1157.1 L 1422.2 1157.8 L 1421.3 1157.7 L 1421 1159 L 1421.3 1161.5 M 1431.8 1141.7 L 1433.5 1147.3 L 1432.9 1150.3 L 1430.5 1152.7 L 1428.8 1155.5 L 1427.7 1158.8 L 1428.3 1161.1 L 1430.7 1162.3 L 1432.3 1164.5 L 1433.3 1167.8 L 1434.9 1170.9 L 1437.2 1175.3 L 1437.5 1179.2 L 1437.3 1180.9 L 1437.3 1181.9 L 1437.5 1184.8 M 809.4 1014 L 811.8 1011.7 L 813.4 1008.7 L 814.9 1004.4 L 814.8 1000.9 L 812.2 996.8 L 812.6 990.2 L 811.1 984.2 L 807.7 976.8 L 806.4 972.3 L 807.1 970.6 L 808.9 969.6 L 811.7 969.3 L 812.9 968.3 L 812.6 966.7 L 813.7 965.9 L 816.3 965.9 L 818.4 964.9 L 820.2 963.1 L 822.7 962.3 L 826 962.7 L 827.9 963.5 L 828.6 964 L 829.5 964.2 L 830.3 963.8 L 833.8 960.7 L 836.8 959.3 L 839.3 959.5 L 840.6 958.7 L 841.2 958.1 L 842.9 957.3 L 848.1 956.8 L 852.5 953.1 L 856.2 946.3 L 859.4 942.9 L 862.1 942.8 L 864.6 941.7 L 866.9 939.6 L 867.6 936.6 L 866.7 932.5 L 868.6 930.1 L 873.1 929.4 L 877.1 927 L 880.4 922.9 L 884.3 919.3 L 888.8 916.4 L 892.2 912.6 L 894.5 908.1 L 897.6 904 L 901.5 900.5 L 904.2 895.7 L 905.9 889.8 L 909 886.6 L 913.6 886.3 L 919.8 882.3 L 927.4 874.7 L 933.7 869.5 L 941 865.2 L 945.6 861.5 L 951.4 860.2 L 959.9 859.9 L 966.5 858.5 L 971.2 855.8 L 974.5 852.6 L 976.4 849 L 979 847.6 L 983.3 847.3 L 987.5 846.4 L 994.3 841.3 L 1000.1 838.6 L 1004.8 838.3 L 1008 836.9 L 1009.9 834.4 L 1015.9 831.6 L 1026.1 828.7 L 1032 827.6 L 1034.2 827.3 L 1036.8 825.9 L 1044.5 817.4 L 1047.5 809.4 L 1050.2 805.4 L 1053.6 802.5 L 1054.6 798.6 L 1052.5 791.1 L 1053.4 790.8 L 1054.8 790.2 L 1057.1 788.5 L 1058.2 787 L 1058.3 785.7 L 1057 784.8 L 1054.4 784.4 L 1054.5 783.1 L 1059.1 779.5 L 1059.4 778.9 L 1056.7 778.1 L 1057.2 777.5 L 1058.5 777 L 1060.8 776.6 L 1062 774.9 L 1062.2 771.8 L 1063.2 769.8 L 1064.9 769 L 1066.2 767.4 L 1067.2 765 L 1069.6 763.5 M 1362.2 986.1 L 1362.9 990 L 1362.4 993.1 L 1361.1 996.6 L 1360.8 1000.2 L 1361.7 1003.7 L 1363.3 1005.9 L 1365.4 1006.8 L 1366.7 1008.4 L 1367.2 1010.7 L 1369.6 1011.4 L 1373.8 1010.5 L 1377.8 1011.8 L 1381.4 1015.2 L 1386.2 1017.6 L 1392.1 1019 L 1397.5 1021.4 L 1404.6 1026.5 L 1412.4 1026 L 1417.4 1026.5 L 1422.2 1027.6 L 1425.6 1030.6 L 1427.5 1035.3 L 1430.5 1039.6 L 1434.5 1043.5 L 1437.5 1048 L 1439.4 1053 L 1439.6 1060.6 L 1437.3 1076.2 L 1435.6 1090.1 L 1435.5 1098.4 L 1436.6 1109.3 L 1438.4 1117.9 L 1437.2 1126 L 1431.7 1141.7 L 1429.5 1144.5 L 1429 1146 L 1429.4 1147.2 L 1428.1 1148.1 M 1040.8 783 L 1039.6 778.9 L 1040.3 776.6 L 1042.7 774.9 L 1044.3 772.7 L 1045.1 770.1 L 1046.8 769.1 L 1049.4 769.8 L 1053.1 767.9 L 1058.1 763.5 L 1062.9 761.1 L 1067.7 760.8 L 1070.9 759.4 M 1069.6 763.5 L 1070.9 759.4 M 1070.9 759.4 L 1072.5 757.1 L 1074.1 755.8 L 1075.7 755.6 L 1076.6 754.7 L 1076.6 753.1 L 1078.3 751.3 L 1079.8 750.5 M 1079.8 750.5 L 1080.9 754.4 L 1081 756.1 L 1080.3 757.1 L 1079.3 757.7 L 1078 758.1 L 1076.9 759.3 L 1075.9 761.6 L 1073.5 763 L 1069.6 763.5 M 1079.8 750.5 L 1081.7 749.5 L 1083.9 746.8 L 1084.8 743.4 L 1086.7 741.8 L 1089.6 742.1 L 1097 740.4 L 1108.9 736.7 L 1116.6 735.1 L 1120.1 735.5 L 1122.2 735.2 L 1122.9 734.1 L 1127.5 732.3 L 1135.8 729.6 L 1143.6 727.9 L 1150.7 727.2 L 1155.5 727.5 L 1157.9 728.9 L 1161 729.4 L 1164.9 728.9 L 1168 729.5 L 1170.3 731 L 1174.1 731.5 L 1179.3 730.8 L 1183.3 733.8 L 1186 740.4 L 1188.4 744.4 L 1190.4 746 L 1192.5 749.9 L 1195.8 759.1 L 1200.9 765.8 L 1205.1 769.8 L 1210 773.3 L 1212.7 776.8 L 1213 780.2 L 1215.4 782.8 L 1219.9 784.8 L 1222.3 786.5 L 1222.7 787.8 L 1221.9 791 L 1220 796 L 1219.4 799.6 L 1220 801.7 L 1221.7 803.1 L 1224.5 803.9 L 1226.5 806.2 L 1227.8 810.2 L 1230.5 814.5 L 1234.5 819.3 L 1239.2 823.5 L 1244.8 827.1 L 1248.4 831.9 L 1250.2 837.9 L 1252.6 842.7 L 1255.9 846.3 L 1260.9 849.8 L 1267.9 853.1 L 1272.2 856.1 L 1274 858.7 L 1276.2 860.8 L 1278.9 862.5 L 1280.5 866.9 L 1281.1 874.1 L 1282.7 879.7 L 1285.3 883.9 L 1286.5 886.6 L 1286 888 L 1286.3 889.3 L 1287.2 890.2 L 1288.3 890.1 L 1289.2 889.3 L 1289.9 889.3 L 1290.3 890.1 L 1291.2 890.4 L 1292.6 890.1 L 1293.6 890.5 L 1294.2 892.4 L 1295.4 893.6 L 1297.1 894.1 L 1298.1 894.8 L 1309.1 904.9 L 1313.3 909.5 L 1314.5 911.8 L 1316.7 913.5 L 1319.9 914.5 L 1322.9 916.8 L 1325.2 920.1 L 1328.7 922.9 L 1334.4 924.7 L 1340.5 927.8 L 1344.5 931.1 L 1348.4 935.8 L 1352.9 939.1 L 1358.2 941 L 1362 943.6 L 1364.5 946.7 L 1365.1 951.1 L 1363.3 959.3" />
<path class="river" d="M 943.5 1115.7 L 945.4 1118.5 L 951.8 1123.2 L 954.5 1126.1 L 953.4 1127.2 L 953.3 1128.7 L 954.2 1130.7 L 955.4 1132 L 956.8 1132.5 L 958.4 1134.7 L 960.2 1138.6 L 962.4 1141.8 L 966.3 1145.7 L 969.9 1149.7 L 971.4 1153.1 L 972 1157.2 L 973.6 1160.1 L 977.5 1162.9 M 935.2 1019.2 L 936.5 1023.4 L 936.6 1026.3 L 935.8 1029.3 L 936.5 1033.4 L 938.6 1038.9 L 940.1 1047 L 941.2 1063.3 L 941.4 1066 L 942.2 1067.2 L 943.7 1067.7 L 944.2 1069.3 L 943.7 1071.9 L 942.8 1073.9 L 941.4 1075.3 L 941.1 1078.9 L 942.2 1087.7 M 937.7 991.5 L 936 995.4 L 935.5 998.8 L 935.5 1005.1 L 936.4 1010.2 L 936.1 1012.6 L 935 1014 L 934.6 1015.7 L 935.2 1018.9" />
<path class="river" d="M 803.6 845.2 L 802.9 844.8 L 801.5 844.4 L 799.4 842.4 L 797.5 838.2 L 795.1 835.6 L 792.1 834.5 L 790.9 833.4 L 791.6 832.2 L 791.5 830.3 L 790.7 827.6 L 789 824.9 L 786.4 822.2 L 782.6 819.6 L 777.5 817.2 L 773.1 815.7 L 769.4 815.2 L 766.1 813.9 L 761.6 810.9 L 752.9 807.8 L 749.1 805.2 L 747.2 802.1 L 744.2 799.8 L 740 798.3 L 737.3 796.5 L 736 794.5 L 734.5 793.2 L 732.9 792.5 L 732.7 791.8 L 733.1 790.8 L 732.7 789 L 730.3 784.9 L 728 783 L 726 783.3 L 724.9 782.8 L 724.2 781.9 L 724 780.6 L 722.6 779.5 L 720.3 779 L 718.5 776 L 717.1 770.5 L 715.3 766.2 L 713 763.1 L 711.4 761.9 L 710.2 761.7 L 709.8 761.2 L 709.5 760.3 L 707.8 760 L 705.3 761 L 703.1 760.6 L 702 759.1 L 700.5 759 L 698.6 760.2 L 696.5 759.9 L 694.2 757.9 L 692.9 756 L 692.7 754 L 688.7 750.1 L 681 744.3 L 672.6 741.6 L 663.5 742 L 658.3 741.7 L 657.2 740.8 L 656.1 740.8 L 655 741.9 L 653.8 742.1 L 652.5 741.5 L 651.7 742 L 651.4 743.5 L 648.2 744.2 L 642.1 744.3 L 637.2 745.2 L 633.4 747 L 628.1 747.7 L 621.3 747.5 L 617.1 746.8 L 615.7 745.8 L 613.7 745.5 L 611.2 746.1 L 608.9 749 L 606.9 754.2 L 605.2 757.1 L 603.9 757.8 L 602.5 761.7 L 601.7 768.2 L 600.5 771" />
<g class="city"><circle cx="921.4916467836458" cy="131.5973874141064" r="5" /><text x="933.4916467836458" y="135.5973874141064">Casablanca</text></g>
<g class="city"><circle cx="566.679618214699" cy="811.3663379740526" r="5" /><text x="578.679618214699" y="815.3663379740526">Dakar</text></g>
<g class="city"><circle cx="907.6806785555262" cy="885.7291967781289" r="5" /><text x="919.6806785555262" y="889.7291967781289">Bamako</text></g>
<g class="city"><circle cx="703.2117402814481" cy="997.9849259443881" r="5" /><text x="715.2117402814481" y="1001.9849259443881">Conakry</text></g>
<g class="city"><circle cx="1140.771364693859" cy="895.7974326448814" r="5" /><text x="1152.771364693859" y="899.7974326448814">Ouagadougou</text></g>
<g class="city"><circle cx="907.6825503896655" cy="202.5104918964137" r="5" /><text x="919.6825503896655" y="206.5104918964137">Marrakesh</text></g>
<g class="city"><circle cx="719.2670016456802" cy="1036.1959721134276" r="5" /><text x="731.2670016456802" y="1040.1959721134276">Freetown</text></g>
<g class="city"><circle cx="620.6653306111398" cy="690.1057187193587" r="5" /><text x="632.6653306111398" y="694.1057187193587">Nouakchott</text></g>
<text class="map-title" x="80" y="105">Mauritania Physical Study Map</text>
<text class="map-subtitle" x="80" y="145">Landmark: Richat Structure | Study terrain and water systems</text>
  <text class="footer" x="80" y="1036">Made with Natural Earth. Free vector and raster map data @ naturalearthdata.com.</text>
</svg>
