<?xml version="1.0" encoding="UTF-8"?>
<svg xmlns="http://www.w3.org/2000/svg" width="1600" height="1100" viewBox="0 0 1600 1100" role="img" aria-labelledby="title desc">
  <title id="title">Maldives Political Study Map</title>
  <desc id="desc">Generated from local app country data. Run npm run maps:build with network access for Natural Earth/Commons upgrades.</desc>
  <defs>
    <linearGradient id="terrain" x1="0" x2="1" y1="0" y2="1">
      <stop offset="0%" stop-color="#6c8c53" />
      <stop offset="42%" stop-color="#d5c487" />
      <stop offset="72%" stop-color="#b88b5f" />
      <stop offset="100%" stop-color="#f1f5ee" />
    </linearGradient>
    <filter id="softShadow" x="-10%" y="-10%" width="120%" height="120%">
      <feDropShadow dx="0" dy="10" stdDeviation="12" flood-color="#0f172a" flood-opacity="0.16" />
    </filter>
    <style>
      .neighbor { fill: #ffffff; stroke: #94a3b8; stroke-width: 1.2; opacity: 0.72; }
      .country { fill: #f7f1df; stroke: #1f2937; stroke-width: 4; filter: url(#softShadow); }
      .admin1 { fill: none; stroke: #64748b; stroke-width: 1.1; stroke-dasharray: 6 7; opacity: 0.75; }
      .river { fill: none; stroke: #1d9bd1; stroke-width: 3; stroke-linecap: round; opacity: 0.88; }
      .lake { fill: #8ed1ea; stroke: #0ea5e9; stroke-width: 1.5; opacity: 0.8; }
      .city circle { fill: #ef4444; stroke: #ffffff; stroke-width: 2; }
      .city text, .terrain-label { fill: #172033; font: 700 24px system-ui, sans-serif; paint-order: stroke; stroke: #ffffff; stroke-width: 5; stroke-linejoin: round; }
      .map-title { fill: #0f172a; font: 800 46px system-ui, sans-serif; }
      .map-subtitle { fill: #475569; font: 600 24px system-ui, sans-serif; }
      .footer { fill: #64748b; font: 500 18px system-ui, sans-serif; }
    </style>
  </defs>
  <rect width="100%" height="100%" fill="#eaf3f8" />
  <rect x="40" y="40" width="1520" height="1020" rx="32" fill="#ffffff" opacity="0.54" />
  <path class="country" d="M 1255.4 565 L 1261.1 673.4 L 1198.8 769.4 L 1107.6 847.4 L 996.3 907.5 L 864.3 917 L 741.5 877 L 631.6 846.4 L 501.7 836.7 L 374.2 786.7 L 321.6 678.4 L 347.4 565 L 389.9 471.6 L 434.9 382.3 L 513 306.3 L 619.1 256.2 L 735 208.2 L 870.7 168.3 L 1008.8 195.1 L 1096.3 295.6 L 1138.1 399.6 L 1192.8 476.7 Z" />
<g class="city"><circle cx="800" cy="505" r="7" /><text x="816" y="510">Malé</text></g>
<text class="map-title" x="80" y="105">Maldives Political Study Map</text>
<text class="map-subtitle" x="80" y="145">Capital: Malé | Continent: Asia</text>
  <text class="footer" x="80" y="1036">Generated from local app country data. Run npm run maps:build with network access for Natural Earth/Commons upgrades.</text>
</svg>
