<?xml version="1.0" encoding="UTF-8"?>
<svg xmlns="http://www.w3.org/2000/svg" width="1600" height="1100" viewBox="0 0 1600 1100" role="img" aria-labelledby="title desc">
  <title id="title">Malawi Physical Study Map</title>
  <desc id="desc">Made with Natural Earth. Free vector and raster map data @ naturalearthdata.com.</desc>
  <defs>
    <linearGradient id="terrain" x1="0" x2="1" y1="0" y2="1">
      <stop offset="0%" stop-color="#6c8c53" />
      <stop offset="42%" stop-color="#d5c487" />
      <stop offset="72%" stop-color="#b88b5f" />
      <stop offset="100%" stop-color="#f1f5ee" />
    </linearGradient>
    <filter id="softShadow" x="-10%" y="-10%" width="120%" height="120%">
      <feDropShadow dx="0" dy="10" stdDeviation="12" flood-color="#0f172a" flood-opacity="0.16" />
    </filter>
    <style>
      .neighbor { fill: #ffffff; stroke: #94a3b8; stroke-width: 1.2; opacity: 0.72; }
      .country { fill: url(#terrain); stroke: #1f2937; stroke-width: 4; filter: url(#softShadow); }
      .admin1 { fill: none; stroke: #64748b; stroke-width: 1.1; stroke-dasharray: 6 7; opacity: 0.75; }
      .river { fill: none; stroke: #1d9bd1; stroke-width: 3; stroke-linecap: round; opacity: 0.88; }
      .lake { fill: #8ed1ea; stroke: #0ea5e9; stroke-width: 1.5; opacity: 0.8; }
      .city circle { fill: #ef4444; stroke: #ffffff; stroke-width: 2; }
      .city text, .terrain-label { fill: #172033; font: 700 24px system-ui, sans-serif; paint-order: stroke; stroke: #ffffff; stroke-width: 5; stroke-linejoin: round; }
      .map-title { fill: #0f172a; font: 800 46px system-ui, sans-serif; }
      .map-subtitle { fill: #475569; font: 600 24px system-ui, sans-serif; }
      .footer { fill: #64748b; font: 500 18px system-ui, sans-serif; }
    </style>
  </defs>
  <rect width="100%" height="100%" fill="#d8edf0" />
  <rect x="40" y="40" width="1520" height="1020" rx="32" fill="#ffffff" opacity="0.54" />
  <path class="neighbor" d="M 9657.1 770.4 L 9657.1 800 L 9618.4 815 L 9579.6 827.8 L 9571.8 805.1 L 9602.2 792.7 L 9621.4 789.3 L 9657.1 770.4 Z M 9543.2 857.7 L 9558.2 847.7 L 9579.2 865.3 L 9569.1 897 L 9531.5 905.3 L 9498 897.8 L 9492.1 871.1 L 9515.5 850.2 L 9543.2 857.7 Z M -12204.2 767.6 L -12211.7 796.8 L -12216.7 800 L -12216.7 770.4 L -12204.2 767.6 Z" />
<path class="neighbor" d="M 780.2 -148.1 L 790.4 -141.5 L 1010.8 -17.7 L 1014.9 17.6 L 1102.1 78.3 L 1074.1 153.2 L 1077.7 187.6 L 1116.6 209.7 L 1118.4 225.5 L 1101.7 262.2 L 1105.1 280.7 L 1101.2 309.7 L 1122.4 347.8 L 1147.5 407.7 L 1169.8 421 L 1169.8 421 L 1121.5 456.2 L 1055 479.8 L 1018.6 478.8 L 996.9 497.1 L 954.6 498.6 L 938.8 506.3 L 865.8 489.2 L 820 494.1 L 803 411.5 L 782.4 383.1 L 770.2 366.3 L 710.6 355 L 676.2 336.8 L 637.5 326.5 L 613.3 316.4 L 587.9 300.9 L 587.9 300.9 L 555.1 224.3 L 519.9 190.3 L 507.7 155.1 L 513.8 123.5 L 502.9 67.6 L 528 64.7 L 550 42.7 L 573.7 11 L 588.7 -1.7 L 588.1 -21.5 L 575 -35.3 L 571.5 -59.2 L 571.5 -59.2 L 589.1 -66.9 L 592.6 -102.6 L 568.4 -136.9 L 589.8 -144.2 L 656.4 -143.4 L 780.2 -148.1 Z" />
<path class="neighbor" d="M 502.9 67.6 L 513.8 123.5 L 507.7 155.1 L 519.9 190.3 L 555.1 224.3 L 587.9 300.9 L 587.9 300.9 L 564 294.7 L 482.4 305 L 466.1 312.2 L 448.8 351 L 462.4 377.8 L 451.6 449.7 L 444.1 510.7 L 460.5 521.5 L 503 545.2 L 519.6 534.1 L 524.7 599.7 L 478.2 599.2 L 453.3 565.7 L 430.9 539.8 L 384.3 531.3 L 370.7 499.5 L 333.5 518.7 L 284.9 510.2 L 264.6 482.6 L 226 477 L 197.5 478.5 L 194 459.6 L 173.1 458.1 L 145.4 454.5 L 107.8 463.6 L 81.4 462.1 L 66.3 467.7 L 69.6 395.4 L 49.3 372.8 L 44.9 335.4 L 53.8 298.8 L 41.5 275.4 L 40.4 237.1 L -33.3 237.7 L -28.1 215.8 L -59.1 216 L -62.3 226.5 L -100 228.9 L -115.3 264.3 L -124.4 279.5 L -157.9 270.9 L -178 279.5 L -218.2 284.4 L -241.4 252.6 L -255.4 233 L -272.8 196.5 L -287.8 151.3 L -467.1 150.5 L -488.4 157.8 L -506 156.6 L -531.1 164.8 L -539.6 145.9 L -524.2 139.5 L -522.3 113 L -512.3 97.4 L -490.2 84.6 L -474.3 90.8 L -453.5 67.6 L -420.4 68.2 L -416.5 85.4 L -393.8 96.1 L -358 58.1 L -322.6 28.4 L -307.3 8.9 L -309.3 -41 L -282.9 -100.1 L -255.1 -131.4 L -215.1 -160.7 L -208.1 -180 L -206.6 -202.3 L -196.7 -223.4 L -199.9 -257.8 L -192.3 -311.7 L -180.4 -349.6 L -162.2 -382.1 L -158.6 -418.8 L -153.2 -461.2 L -129.5 -492 L -97 -511.6 L -47 -490.9 L -8.3 -468.5 L 36.2 -462.5 L 81.5 -450.7 L 99.7 -487.4 L 108 -492 L 135.7 -485.9 L 203.4 -516.3 L 227.3 -503.4 L 247 -505.2 L 256.1 -520 L 278.7 -525.2 L 324.4 -518.8 L 363.4 -517.4 L 383.4 -523.9 L 420.2 -473.7 L 447.5 -466.3 L 463.8 -476.5 L 491.9 -472.6 L 525.7 -485.4 L 540.2 -459.5 L 593.6 -419.1 L 593.6 -419.1 L 590 -348 L 614.3 -339.8 L 594.8 -318.2 L 571.4 -302.1 L 548.2 -270.4 L 535.4 -242.2 L 532 -193.4 L 517.9 -170.2 L 517.4 -124.4 L 500 -107.4 L 497.7 -71.3 L 489.4 -66.6 L 483.7 -33.3 L 499 -5.7 L 502.9 67.6 Z" />
<path class="neighbor" d="M 615.4 1146.2 L 583.1 1140.1 L 562.6 1147.4 L 533.2 1137.1 L 508.5 1136.4 L 469.7 1109 L 422.8 1099.6 L 404.9 1061.1 L 404.7 1039.7 L 378.7 1033.1 L 310 966.4 L 290.8 931.2 L 278.6 920.4 L 255.2 871.8 L 323.1 878.5 L 342.9 885.5 L 363.4 884.1 L 397 844.7 L 449.9 794.8 L 471.6 790 L 479 768.9 L 513.6 744.7 L 559.6 736.4 L 563.6 759.1 L 614.3 757.9 L 642.4 770.7 L 655.5 785.7 L 684.4 790.1 L 716 809.7 L 716.1 886.6 L 704.3 928.7 L 701.7 974.1 L 711.5 992.1 L 704.6 1027.8 L 695.4 1033.4 L 679.4 1077.2 L 615.4 1146.2 Z" />
<path class="neighbor" d="M 587.9 300.9 L 613.3 316.4 L 637.5 326.5 L 676.2 336.8 L 710.6 355 L 739.3 382.1 L 754.8 433.7 L 744.4 450.1 L 732.2 499.4 L 743.9 549.7 L 724.8 570.9 L 706.3 627.3 L 738.3 643.1 L 553.9 693.2 L 559.6 736.4 L 513.6 744.7 L 479 768.9 L 471.6 790 L 449.9 794.8 L 397 844.7 L 363.4 884.1 L 342.9 885.5 L 323.1 878.5 L 255.2 871.8 L 244.3 867.3 L 243.9 862.2 L 219.9 848.5 L 180.5 845 L 130.7 858.9 L 91.1 820.9 L 50.1 771.2 L 52.9 577.9 L 179.4 578.6 L 174.2 557.7 L 183.3 534.9 L 172.6 506.4 L 179.5 476.9 L 173.1 458.1 L 194 459.6 L 197.5 478.5 L 226 477 L 264.6 482.6 L 284.9 510.2 L 333.5 518.7 L 370.7 499.5 L 384.3 531.3 L 430.9 539.8 L 453.3 565.7 L 478.2 599.2 L 524.7 599.7 L 519.6 534.1 L 503 545.2 L 460.5 521.5 L 444.1 510.7 L 451.6 449.7 L 462.4 377.8 L 448.8 351 L 466.1 312.2 L 482.4 305 L 564 294.7 L 587.9 300.9 Z" />
<path class="neighbor" d="M 820 494.1 L 865.8 489.2 L 938.8 506.3 L 954.6 498.6 L 996.9 497.1 L 1018.6 478.8 L 1055 479.8 L 1121.5 456.2 L 1169.8 421 L 1169.8 421 L 1169.8 421 L 1179.7 448.3 L 1177.2 508.8 L 1184.7 562.1 L 1187 657.1 L 1197.7 686.8 L 1179.6 730.2 L 1156 772.4 L 1117.3 810.1 L 1061.8 833.2 L 993.3 862.7 L 924.6 927.9 L 901.3 939 L 858.8 982.2 L 833.8 996.2 L 828.7 1039.6 L 857.5 1085.6 L 869.5 1121.2 L 870.2 1139.4 L 881 1136.3 L 879.2 1195.9 L 869.4 1224.2 L 883.7 1234.6 L 874.7 1259.8 L 849.3 1281.5 L 799.1 1302 L 726.1 1334.9 L 699.4 1357.3 L 704.6 1382.9 L 720.2 1387 L 714.9 1419 L 668.9 1418.5 L 663.6 1391.6 L 654.6 1364.4 L 649.5 1342.6 L 660.3 1274.8 L 644.5 1231.7 L 615.4 1146.2 L 679.4 1077.2 L 695.4 1033.4 L 704.6 1027.8 L 711.5 992.1 L 701.7 974.1 L 704.3 928.7 L 716.1 886.6 L 716 809.7 L 684.4 790.1 L 655.5 785.7 L 642.4 770.7 L 614.3 757.9 L 563.6 759.1 L 559.6 736.4 L 553.9 693.2 L 738.3 643.1 L 773.2 672.2 L 790 666.7 L 814 682 L 817.5 706.4 L 804.7 734.6 L 809.2 777.5 L 848.8 815 L 867.4 772.8 L 893.7 760 L 888.5 681.9 L 863.1 638 L 841.1 618.4 L 820 619.3 L 803 540.3 L 820 494.1 Z" />
<path class="lake" d="M 862.6 661.6 L 862.6 661.6 L 862.6 661.6 L 862.6 661.6 L 864 667 L 863.4 668.5 L 862.4 669.3 L 861.1 669.2 L 858.5 666.2 L 854.7 662.3 L 849.7 655.5 L 847.6 654.3 L 844.3 653.8 L 843.6 653 L 843.3 649.1 L 842.5 647.3 L 841.1 646.1 L 839.6 645.5 L 838.1 645.7 L 837.6 646.9 L 838.2 649.3 L 837.7 651.6 L 836.1 653.9 L 835.6 655.6 L 836.1 656.7 L 835.8 658 L 832.8 660.3 L 830.3 661.1 L 829 660.7 L 828.6 659.2 L 827.2 657.8 L 824.7 656.6 L 822.5 654.4 L 820.5 651.2 L 819.2 647.7 L 818.7 643.9 L 819.2 641 L 820.7 639.2 L 822.2 635.4 L 823.8 629.7 L 822.8 624.7 L 819.2 620.5 L 816.3 618.5 L 813.8 618.8 L 810.9 616.2 L 805.5 607.1 L 805 605.1 L 805.4 602.8 L 806.6 600.2 L 806.9 593.6 L 806.1 580.7 L 805.4 579.3 L 804.2 575.3 L 802.8 573.4 L 802.2 571.3 L 802.6 569.2 L 802 567.6 L 800.4 566.6 L 799 564.8 L 797.9 562.3 L 798 552.5 L 796.9 549.1 L 795.1 547.1 L 792.5 546.6 L 790.5 544.7 L 788.3 538.4 L 788 535.9 L 789.6 526.2 L 792.1 521.8 L 796 518.7 L 797.8 516 L 797.7 513.6 L 799.5 510.4 L 805.3 503.8 L 805.6 502.2 L 803.6 488.3 L 801.9 481.4 L 800 476.3 L 799.6 472.7 L 800.7 470.4 L 800.9 468.5 L 800.3 467 L 798.3 439 L 797.5 437.6 L 797.9 436.2 L 799.3 434.8 L 799.9 433.2 L 799.8 431.2 L 800.5 429.8 L 801.8 428.9 L 801.1 426.1 L 798.4 421.2 L 795.5 417.3 L 789.5 411.3 L 787 407.7 L 785.1 403.2 L 782.5 394.1 L 781.1 392.2 L 780.4 389.7 L 780.3 386.6 L 780.9 384.3 L 783.2 381 L 783.6 379.1 L 783 375.3 L 783.7 373.3 L 785.8 371.1 L 791.4 373.7 L 805.5 385.4 L 805.9 387 L 814.9 398.6 L 817.9 403.6 L 817.9 406.2 L 820.7 416.4 L 821.3 421.2 L 820.6 424.8 L 820.8 427.7 L 821.8 431.9 L 821.5 433.7 L 824.7 439.8 L 826.2 444.9 L 826.6 449.9 L 825.7 454.8 L 822.8 461.9 L 822.3 464.8 L 823 467.4 L 824.8 470.2 L 827.9 473.3 L 830.2 477 L 831.7 481.3 L 833 483.3 L 834.7 483.2 L 837.7 483.9 L 840.1 486.4 L 843 490.7 L 844.3 497.6 L 844.2 507.2 L 842.8 515.4 L 840.2 522.4 L 838.1 526.2 L 836.6 526.8 L 833.9 529 L 830.1 532.8 L 828.6 535.4 L 829.2 536.9 L 829.4 540.2 L 829.2 545.4 L 828.7 547.7 L 828.2 548.9 L 834.1 562.3 L 835.1 569.8 L 833 576.1 L 832.8 581.8 L 834.7 586.7 L 835.3 592.7 L 834.6 599.7 L 835.3 604.2 L 837.4 606.3 L 838.4 612 L 838.2 621.4 L 838.7 626.6 L 840 627.6 L 848.6 628.4 L 850.2 629.2 L 852.7 634.2 L 857.7 648.7 L 857.6 650.2 L 862.6 661.6 Z M 823.8 527.3 L 823.8 527.3 L 823.8 527.3 L 823.8 527.3 L 825 524.1 L 824 522.3 L 822 521.5 L 819.7 522.2 L 818.9 524.4 L 821.3 527.3 L 823.8 527.3 Z M 826.3 529.4 L 826.3 529.4 L 826.3 529.4 L 826.3 529.4 L 827.6 530.5 L 829.7 530 L 831.4 528.6 L 832 526.9 L 832 525.1 L 830.9 524.1 L 829.5 523.4 L 827.3 523.8 L 826.6 526.2 L 826.3 529.4 Z" />
<path class="lake" d="M 866.5 682.4 L 864.6 686.3 L 863.2 689.3 L 861.9 689.7 L 858.8 686.2 L 858.8 680 L 859.4 677.1 L 861.4 675.8 L 863 676.2 L 864.9 679 L 866.5 682.4 L 866.5 682.4 L 866.5 682.4 L 866.5 682.4 Z" />
<path class="lake" d="M 695.7 282.6 L 696.7 284.5 L 696.2 285.7 L 686.6 282.2 L 674.9 278 L 667.6 278.5 L 662.1 279.4 L 659.7 277.7 L 656.8 273.2 L 653.8 267.1 L 652 262.1 L 652.3 259.2 L 654.4 257.1 L 658.3 255 L 666.1 258 L 680 269.7 L 691.7 279.6 L 695.7 282.6 L 695.7 282.6 L 695.7 282.6 L 695.7 282.6 Z" />
<path class="lake" d="M 592 315.4 L 591.5 314.6 L 586.2 312.7 L 584.4 311.5 L 583.8 310.8 L 582.7 311 L 580.7 313.3 L 576.7 315.5 L 575.4 315.4 L 577 314 L 577.6 312.9 L 577.5 311.5 L 576 310.8 L 573 311 L 571.2 310.5 L 570.2 307.5 L 571 303.5 L 572 301.8 L 573.8 300.4 L 576.3 299.2 L 577.8 296.2 L 578.3 291.2 L 577.4 287.2 L 575.3 284.1 L 573.3 282.2 L 571.4 281.5 L 569.8 280 L 567 275.9 L 565.3 274.3 L 560.9 272.5 L 559.8 271 L 559.1 266.1 L 556.4 260.1 L 555.4 255.1 L 556 253.3 L 555.6 248.3 L 551.9 237.6 L 548.4 232.5 L 543.8 228.3 L 538.6 225.2 L 533 223.3 L 527.9 219.2 L 519.6 208.7 L 514.8 204.5 L 513.3 202.4 L 511.4 197.2 L 511.6 191.4 L 511.2 190 L 509.8 190.1 L 508.7 189.6 L 508 188.6 L 501.1 170.3 L 499.8 169.4 L 498.6 166.7 L 497.4 165.3 L 495.3 164.1 L 494 161 L 493.4 156.1 L 493.7 153.5 L 495.2 152.2 L 502.2 146.5 L 502.9 144.5 L 502.9 143.3 L 502.5 138.2 L 503 136.5 L 504.7 136.2 L 504.8 135.4 L 496 120.5 L 491.8 112.3 L 489.3 105.5 L 488.4 101.2 L 489 99.5 L 489.2 80.6 L 489.8 72.8 L 491.2 69.3 L 492.5 67.8 L 494.5 68.2 L 494.5 63.7 L 497.7 43.3 L 497.1 41.1 L 496.1 41.5 L 495.5 44.3 L 491.1 57.5 L 490.3 58.1 L 486 56.5 L 485.7 54.6 L 487.6 52.1 L 488.3 49.7 L 487.6 47.4 L 487.5 42.8 L 488.5 30.8 L 489.3 28.2 L 489.3 26 L 488.5 24.3 L 488.9 22 L 490.6 19.2 L 491.2 13.9 L 490.6 6.2 L 490.9 1.2 L 491.8 -1.1 L 492.9 -2.5 L 494.1 -3 L 500.4 -2 L 502.4 0.1 L 502.3 4.5 L 502.6 16.7 L 503.2 24.7 L 504.4 28.4 L 508.6 35.8 L 508.5 37.2 L 514 49.5 L 517.4 55.4 L 520.5 59.4 L 521.9 62.7 L 521.2 66.9 L 519.1 85.1 L 519.5 90.7 L 518.7 91.7 L 519.2 92.3 L 520.9 92.7 L 523.8 94.2 L 527.7 97 L 530.3 100.4 L 531.6 104.6 L 531.8 107.2 L 531 108.2 L 530.9 113.6 L 530.1 113.9 L 529.2 119.5 L 527.9 122.6 L 528.3 126.3 L 531.6 130 L 534.8 136.3 L 538.3 144.8 L 540 150.3 L 539.8 152.6 L 537.9 155 L 534.3 157.5 L 531.9 158.5 L 530.7 158.1 L 529.3 158.7 L 527.7 160.5 L 526.5 164.5 L 525.8 170.6 L 526.1 173.5 L 527.7 176.2 L 532.1 181.2 L 539.5 187.8 L 539.9 189 L 540.9 189.1 L 544.4 187.2 L 548.7 186.5 L 551.3 187 L 553.1 188 L 554.1 189.7 L 561.2 196.1 L 564.6 200.7 L 567.1 206 L 570.6 210.7 L 575.1 214.8 L 577.2 219 L 577.1 223.4 L 576 225.8 L 574.6 226 L 574.1 226.5 L 574.7 229.5 L 578 236.3 L 579.4 242.3 L 578.7 247.7 L 579.7 252.4 L 582.2 256.5 L 587 262.1 L 593.1 274.8 L 598 282.5 L 598.4 284.8 L 599.2 286.2 L 601.1 287.6 L 601.4 288.7 L 600.6 290 L 600.7 291.8 L 601.6 294.7 L 604.6 298.6 L 609.9 303.6 L 612.4 307.6 L 612.1 310.6 L 612.9 313.7 L 614.9 316.8 L 615.8 319.8 L 615.2 324.6 L 614.6 325.3 L 613.8 325.1 L 612.9 323.9 L 611.8 324.3 L 610.6 326 L 608.9 327.4 L 606.5 328.3 L 605.1 328 L 602 325.5 L 592 315.4 L 592 315.4 L 592 315.4 Z" />
<path class="country" d="M 710.6 355 L 770.2 366.3 L 782.4 383.1 L 803 411.5 L 820 494.1 L 803 540.3 L 820 619.3 L 841.1 618.4 L 863.1 638 L 888.5 681.9 L 893.7 760 L 867.4 772.8 L 848.8 815 L 809.2 777.5 L 804.7 734.6 L 817.5 706.4 L 814 682 L 790 666.7 L 773.2 672.2 L 738.3 643.1 L 706.3 627.3 L 724.8 570.9 L 743.9 549.7 L 732.2 499.4 L 744.4 450.1 L 754.8 433.7 L 739.3 382.1 L 710.6 355 Z" />

<path class="river" d="M 862.4 675.4 L 863.7 690.8" />
<path class="river" d="M 362 885.3 L 368.6 878.7 L 377.2 866.1 L 387.3 858.2 L 399.4 843 L 406.7 830.7 L 417.3 820.8 L 431.4 813.1 L 445.8 806.6 L 467.7 798.6 M 707.5 740.7 L 694.7 739.9 L 685.5 741.4 L 675.7 744.8 L 659.9 746.1 L 638.1 745 L 623.7 745.8 L 616.7 748.3 L 607.7 748.3 L 591.4 744.6" />
<path class="river" d="M 883.2 450.8 L 868.5 445 L 862.6 444 L 860.4 445.9 L 859.2 448.9 L 858.9 455.1 L 869.2 487.2 L 874.2 498.3 L 877.4 499.3 L 881.1 499.1 L 885.1 497.9 L 889.6 494.8 L 894.5 490 L 902.2 490.1 L 912.5 495.2 L 918.2 499.5 L 919.2 503.3 L 926.1 505.4 L 939.1 506 L 948.5 504.1 L 954.4 499.6 L 960.6 497.2 L 967 497 L 971.9 498.5 L 975.2 501.8 L 981.6 504.2 L 991 505.7 L 1001.2 503.5 L 1012.3 497.8 L 1018.7 491.8 L 1020.3 485.5 L 1022.1 481.8 L 1024.2 480.4 L 1030.1 479.7 L 1039.8 479.4 L 1048.2 481.4 L 1058.9 487.6 L 1077.4 476.4 L 1089.1 472.7 L 1100.2 472.6 L 1109.4 470 L 1116.5 464.6 L 1124.1 461.2 L 1132 459.8 L 1139.5 457.2 L 1149.9 451.6 L 1178.8 430" />
<path class="river" d="M 863.7 690.8 L 864.6 700.7 L 862 709 L 853.3 723.9 L 844.4 728.2 L 839.2 732.6 L 834.7 738.6 L 832.1 743.5 L 831.2 747.2 L 831.6 753.2 L 834.3 765.8 L 840.1 774.2 L 842.2 780 L 842.8 785.9 L 845.3 790.1 L 849.8 792.7 L 854.9 797.7 L 860.7 805.2 L 863.9 815.4 L 864.5 834.9 L 864.5 869.9 M 862.4 675.4 L 861.1 669.2" />
<path class="river" d="M 909.9 908.3 L 913.9 913.6 L 916.1 920.4 L 916.4 925.5 L 914.9 929 L 915.4 931.6 L 916.7 933.4 L 916.9 936.1 L 915.1 939 M 909.9 908.3 L 937.8 922.8 M 467.7 798.6 L 472.1 792.1 L 473.5 784.9 L 473.5 775 L 474.7 768.5 L 476.9 765.6 L 480.6 763.3 L 485.3 760.3 L 499.7 752.7 L 511.8 747.9 L 526.6 744.7 L 591.4 744.6 M 707.5 740.8 L 720.7 741.1 L 727 744 L 730.7 749.6 L 737.6 756.3 L 747.9 764 L 759.5 775.2 L 779 797.1 L 785.1 802.7 L 798.5 808.7 L 821.4 817 L 834.3 822.4 L 837.3 824.9 L 840.5 830.6 L 845.6 844.1 L 852.6 858.7 L 858.1 865.7 L 864.5 869.9 L 870.4 875.7 L 876 883 L 883.4 888.6 L 892.6 892.7 L 898.2 896.7 L 900.1 900.7 L 904 904.5 L 909.9 908.3 M 194.6 485.5 L 198.3 481.4 L 198.7 477 L 197.1 471.1 L 192.2 468.6 L 179.8 470.2 L 163.3 482.7 L 154 488.2 L 146.6 490.9 L 141.2 494.2 L 137.7 498.1 L 128.2 504.2 L 112.5 512.5 L 103.1 520.4 L 99.9 527.8 L 96.4 533.3 L 92.6 537.1 L 90.5 544.3 L 90 555 L 92.2 565.2 L 97.1 574.8 L 99.3 581.9 L 98.7 586.4 L 102.6 592.1 L 115.5 602.6 L 119.1 605.6 L 122.2 611.8 L 126 622.3 L 128.9 628.2 L 131.1 629.4 L 131.5 631.7 L 130.2 635.1 L 130.2 639.3 L 131.5 644.4 L 131.3 648.8 L 129.6 652.7 L 129.5 657.9 L 130.9 664.5 L 129.2 671.7 L 124.2 679.6 L 119.7 692.4 L 115.7 710.2 L 116.5 722.4 L 122.1 729.1 L 125.2 734.8 L 125.9 739.8 L 125.4 743.5 L 123.7 746 L 124.9 750.3 L 129.2 756.4 L 132.6 767.1 L 135.4 782.4 L 147.5 799.7 L 169 819.1 L 183.1 835.6 L 192.9 856.1 L 222.9 858.5 L 235.1 860.1 L 239.3 861.6 L 244.8 865.6 L 254.9 875.3 L 266.6 878.4 L 273 878.7 L 278 877.1 L 284.2 879.2 L 291.6 884.9 L 299.7 886 L 308.4 882.5 L 320.2 883.5 L 335 889.2 L 347.3 890.4 L 362 885.3" />
<g class="city"><circle cx="772.8562546585844" cy="643.776450159635" r="5" /><text x="784.8562546585844" y="647.776450159635">Lilongwe</text></g>
<g class="city"><circle cx="846.1726754233194" cy="753.5532753175695" r="5" /><text x="858.1726754233194" y="757.5532753175695">Blantyre</text></g>
<g class="city"><circle cx="838.8849936089139" cy="998.4206237969245" r="5" /><text x="850.8849936089139" y="1002.4206237969245">Beira</text></g>
<g class="city"><circle cx="751.3919807426023" cy="334.3058661278526" r="5" /><text x="763.3919807426023" y="338.3058661278526">Mbeya</text></g>
<g class="city"><circle cx="892.3541611272191" cy="169.84478385819216" r="5" /><text x="904.3541611272191" y="173.84478385819216">Dodoma</text></g>
<g class="city"><circle cx="961.6201009655513" cy="880.5428975467397" r="5" /><text x="973.6201009655513" y="884.5428975467397">Quelimane</text></g>
<g class="city"><circle cx="760.5039374821434" cy="776.6439877892416" r="5" /><text x="772.5039374821434" y="780.6439877892416">Tete</text></g>
<g class="city"><circle cx="787.2369414668468" cy="490.4588538102349" r="5" /><text x="799.2369414668468" y="494.4588538102349">Mzuzu</text></g>
<text class="map-title" x="80" y="105">Malawi Physical Study Map</text>
<text class="map-subtitle" x="80" y="145">Landmark: Lake Malawi | Study terrain and water systems</text>
  <text class="footer" x="80" y="1036">Made with Natural Earth. Free vector and raster map data @ naturalearthdata.com.</text>
</svg>
