<?xml version="1.0" encoding="UTF-8"?>
<svg xmlns="http://www.w3.org/2000/svg" width="1600" height="1100" viewBox="0 0 1600 1100" role="img" aria-labelledby="title desc">
  <title id="title">Mexico Political Study Map</title>
  <desc id="desc">Made with Natural Earth. Free vector and raster map data @ naturalearthdata.com.</desc>
  <defs>
    <linearGradient id="terrain" x1="0" x2="1" y1="0" y2="1">
      <stop offset="0%" stop-color="#6c8c53" />
      <stop offset="42%" stop-color="#d5c487" />
      <stop offset="72%" stop-color="#b88b5f" />
      <stop offset="100%" stop-color="#f1f5ee" />
    </linearGradient>
    <filter id="softShadow" x="-10%" y="-10%" width="120%" height="120%">
      <feDropShadow dx="0" dy="10" stdDeviation="12" flood-color="#0f172a" flood-opacity="0.16" />
    </filter>
    <style>
      .neighbor { fill: #ffffff; stroke: #94a3b8; stroke-width: 1.2; opacity: 0.72; }
      .country { fill: #f7f1df; stroke: #1f2937; stroke-width: 4; filter: url(#softShadow); }
      .admin1 { fill: none; stroke: #64748b; stroke-width: 1.1; stroke-dasharray: 6 7; opacity: 0.75; }
      .river { fill: none; stroke: #1d9bd1; stroke-width: 3; stroke-linecap: round; opacity: 0.88; }
      .lake { fill: #8ed1ea; stroke: #0ea5e9; stroke-width: 1.5; opacity: 0.8; }
      .city circle { fill: #ef4444; stroke: #ffffff; stroke-width: 2; }
      .city text, .terrain-label { fill: #172033; font: 700 24px system-ui, sans-serif; paint-order: stroke; stroke: #ffffff; stroke-width: 5; stroke-linejoin: round; }
      .map-title { fill: #0f172a; font: 800 46px system-ui, sans-serif; }
      .map-subtitle { fill: #475569; font: 600 24px system-ui, sans-serif; }
      .footer { fill: #64748b; font: 500 18px system-ui, sans-serif; }
    </style>
  </defs>
  <rect width="100%" height="100%" fill="#eaf3f8" />
  <rect x="40" y="40" width="1520" height="1020" rx="32" fill="#ffffff" opacity="0.54" />
  <path class="neighbor" d="M 311.2 -9.2 L 308.1 -9.2 L 262.7 -32.2 L 246 -42.3 L 203.6 -52 L 190.5 -72.8 L 193.9 -87.2 L 163.9 -97.1 L 159.8 -116 L 131.5 -133 L 131 -145.1 L 131 -145.1 L 144 -156.4 L 143.3 -171.1 L 103.5 -186 L 79.6 -212.8 L 64.9 -229.6 L 43.5 -240.1 L 27.7 -249.7 L 15.3 -261.8 L -8.2 -254.2 L -31 -241.1 L -51.8 -256.5 L -68.2 -266.8 L -91 -273.3 L -114 -274 L -113.9 -407.3 L -113.8 -494.3 L -113.8 -494.3 L -70.1 -488.6 L -33.2 -477.3 L -8.8 -475.2 L 11.8 -485 L 40.1 -492.3 L 74.9 -489.4 L 110 -499.7 L 148.3 -505.5 L 164.4 -495.8 L 181.9 -501.3 L 187.1 -512.3 L 203.3 -509.8 L 242.9 -488.8 L 274.1 -504.7 L 277.3 -486.9 L 306 -490.8 L 314.9 -497.6 L 343.3 -496.3 L 379.1 -486.4 L 433.9 -477.8 L 466.1 -473.9 L 489.1 -475.4 L 520.6 -463.5 L 487.7 -451.9 L 530 -446.9 L 593.2 -449.6 L 613.2 -453.7 L 638.2 -439.7 L 663.6 -451.5 L 639.7 -461.5 L 654.9 -469.5 L 683.4 -470.6 L 702.1 -472.9 L 721 -467.3 L 744.5 -454.6 L 770.7 -456.4 L 812.1 -445.9 L 848.4 -449.6 L 882.6 -449 L 879.9 -463.6 L 900.7 -467.7 L 937 -459.8 L 936.9 -437.6 L 951.8 -456.3 L 970.6 -455.7 L 981.2 -479.2 L 956.1 -493.6 L 928.8 -503.1 L 930.7 -529 L 958.3 -546 L 989.2 -542.2 L 1012.9 -531.9 L 1044.7 -505.5 L 1024 -494 L 1067.5 -489.2 L 1067.4 -465.3 L 1098.7 -483.6 L 1126.7 -468.6 L 1119.7 -451.2 L 1142.4 -435.4 L 1166.8 -452.3 L 1183.9 -472.5 L 1185.2 -498.2 L 1218.5 -496.4 L 1253.1 -493 L 1284.5 -481.4 L 1286 -469.7 L 1268.5 -457.3 L 1285 -444.7 L 1282.1 -433.3 L 1236.2 -417 L 1203.6 -413.3 L 1179.4 -420.4 L 1172.4 -408.6 L 1149.9 -388.9 L 1143 -378.6 L 1115.9 -362.8 L 1082.3 -361.2 L 1063.8 -351.3 L 1062.3 -336.1 L 1035.1 -333.2 L 1006.4 -314.2 L 981 -287.8 L 971.9 -269.4 L 970.6 -242.2 L 1005 -238.3 L 1015.6 -216.3 L 1026.5 -198.6 L 1059.3 -203.2 L 1102.8 -193.1 L 1126.2 -184.2 L 1143 -173.1 L 1172.3 -166.6 L 1197.2 -156.8 L 1235.8 -155.4 L 1261.3 -153.2 L 1257.5 -132.9 L 1264.8 -109.3 L 1281.7 -83.1 L 1316.6 -60.9 L 1334.6 -68.5 L 1347.3 -92.6 L 1335 -129.6 L 1318.5 -141.9 L 1356 -152.9 L 1382.6 -169.3 L 1395.5 -185.6 L 1393.6 -201.3 L 1377.7 -221.2 L 1349.3 -238.8 L 1376.9 -263.3 L 1366.7 -284.5 L 1358.9 -321.1 L 1375.2 -326.5 L 1415.3 -320.2 L 1439.4 -317.9 L 1458.8 -324 L 1480.6 -316.1 L 1509.5 -302.5 L 1516.6 -293.4 L 1558.3 -291.7 L 1557.6 -272 L 1565.4 -242.4 L 1586.8 -238.7 L 1603.8 -224.9 L 1637.7 -237.9 L 1660.1 -263.8 L 1675.6 -274.7 L 1693.8 -253.7 L 1724.3 -223.9 L 1750.2 -195.8 L 1740.8 -181.1 L 1772 -167.9 L 1793 -154.5 L 1830.4 -148.4 L 1845.4 -140.9 L 1854.7 -121.1 L 1872.9 -118 L 1882.3 -109.2 L 1884 -82.9 L 1867 -74.1 L 1850.2 -65.8 L 1811.6 -57.5 L 1782.2 -38.3 L 1742.6 -34.5 L 1692.5 -39.4 L 1657.3 -39.6 L 1633.1 -38 L 1613.5 -21.2 L 1583.6 -10.8 L 1549.8 20.2 L 1522.9 41.8 L 1542.8 38 L 1580.4 7.2 L 1629.5 -12.3 L 1664.5 -14.6 L 1685.3 -3.1 L 1663.1 12.6 L 1670.6 37.8 L 1678.2 55.5 L 1708.6 67.2 L 1747.3 63.8 L 1770.8 37.5 L 1772.4 54.5 L 1787.6 63 L 1758.6 78.3 L 1706.7 92.2 L 1683.5 101.7 L 1657.3 118.6 L 1639.5 116.9 L 1638.6 97 L 1679.3 77.7 L 1641.8 78.4 L 1615.8 81.3 L 1600.5 68 L 1600.5 36.1 L 1590.1 29.4 L 1574.4 33.3 L 1566.6 27.2 L 1548.7 44.9 L 1541.6 63.1 L 1533.3 73.7 L 1523.3 77.4 L 1515.8 78.5 L 1513.5 84.3 L 1470.3 84.3 L 1434.8 84.5 L 1424.2 88.8 L 1399.4 105.7 L 1396.5 107.5 L 1389 116.6 L 1367.5 116.6 L 1344.5 116.7 L 1333.9 120.4 L 1337.7 125 L 1339.8 132.2 L 1339.4 134.5 L 1308.7 146.2 L 1284.6 149.9 L 1257.4 162.4 L 1251.5 162.4 L 1243.6 158.7 L 1241 155.3 L 1241.5 152.9 L 1246.6 144.7 L 1257.6 131.8 L 1264.5 118 L 1259.8 97.6 L 1254.8 76.4 L 1230.4 65.4 L 1233.3 61.2 L 1229.8 58.3 L 1223.4 58.3 L 1218.7 54.6 L 1217.5 49.1 L 1213 51.5 L 1206.7 50.8 L 1208.1 48.5 L 1202.6 46.2 L 1200.3 40 L 1182.2 32.5 L 1163.2 24.7 L 1140.3 15.7 L 1118.3 7.2 L 1097.4 13.8 L 1089.7 14 L 1060.9 7.9 L 1041.9 11 L 1019.2 3.7 L 995.3 0 L 978.9 -1.5 L 971.7 -5.4 L 967.5 -18.3 L 959.6 -18.2 L 959.5 -9.2 L 911 -9.2 L 830.9 -9.2 L 751.3 -9.2 L 681 -9.2 L 610.8 -9.2 L 541.7 -9.2 L 470.3 -9.2 L 447.3 -9.2 L 377.7 -9.2 L 311.2 -9.2 Z M 1221 -324.2 L 1238.4 -335 L 1270.6 -334.8 L 1270.1 -330.3 L 1242.7 -317.4 L 1226.1 -317.9 L 1221 -324.2 Z M 1319.8 -566.6 L 1294 -579.1 L 1295 -587.5 L 1306.3 -589 L 1359.9 -586.5 L 1400.3 -573.7 L 1402.3 -567.2 L 1377.4 -567.9 L 1352.2 -568.4 L 1326.6 -565.2 L 1319.8 -566.6 Z M 1307.2 -315.6 L 1316.2 -322.7 L 1325.8 -322.2 L 1331.7 -317.4 L 1322.6 -305 L 1312.2 -307 L 1306.1 -314 L 1307.2 -315.6 Z M 995.7 -617.6 L 983 -608.5 L 949 -610.3 L 920.6 -616.4 L 933.1 -626.9 L 966.7 -633.3 L 987.2 -625 L 995.7 -617.6 Z M 990.4 -677.1 L 979.7 -676.4 L 935.8 -677.9 L 929.6 -684.5 L 976.8 -684.1 L 993.2 -679.8 L 990.4 -677.1 Z M 922.1 -706.3 L 950.1 -698.2 L 943.8 -689.7 L 909.1 -684.9 L 890.1 -690.3 L 880 -699.1 L 878.2 -708.8 L 908.5 -707.8 L 922.1 -706.3 Z M 1123.7 -603.9 L 1085.8 -606.8 L 1023.6 -614.3 L 1015.5 -627.2 L 1012.7 -638.8 L 989.1 -649 L 940.7 -651.9 L 913.6 -659.1 L 922.4 -668.7 L 970.6 -667.2 L 996.6 -659.7 L 1042.7 -659.8 L 1063 -652 L 1057.6 -643.3 L 1084.5 -638 L 1099.4 -632.4 L 1131 -631.4 L 1165.1 -629.4 L 1202.4 -634.5 L 1250.1 -636.5 L 1288.1 -634.8 L 1313.2 -626 L 1318.4 -616.3 L 1303.8 -610.1 L 1268.9 -605 L 1238.9 -607.9 L 1171.7 -604.3 L 1123.7 -603.9 Z M 582.3 -691.9 L 615.3 -688.3 L 607.6 -681.3 L 563.9 -674.5 L 529.2 -682.1 L 548.1 -689.6 L 582.3 -691.9 Z M 589.4 -707.2 L 619.8 -702.5 L 591.3 -697.9 L 552.4 -697.9 L 552.8 -701.3 L 576.8 -708.3 L 589.4 -707.2 Z M 1886 -63.4 L 1873.5 -48.7 L 1858 -28.2 L 1873.3 -36.1 L 1889 -31.1 L 1880.8 -22.9 L 1901.6 -16.5 L 1912.4 -22.2 L 1935.7 -15 L 1928.5 2.1 L 1944.9 -1.9 L 1947.9 10.6 L 1955.1 25.1 L 1945.3 45.7 L 1934.7 46.6 L 1919.3 42.2 L 1924.4 23 L 1917.8 20 L 1890.7 40.4 L 1876.7 39.5 L 1893.2 28.5 L 1870.7 22.9 L 1845.6 24.3 L 1800.1 23.5 L 1796.5 16.6 L 1811.1 8.4 L 1800.9 2 L 1820.6 -12.1 L 1844.8 -49.4 L 1859.3 -62.7 L 1879.6 -70.8 L 1890.5 -69.8 L 1886 -63.4 Z M 1223.6 -386.5 L 1249.3 -378.4 L 1276.1 -371.1 L 1278.2 -360 L 1295.4 -361.8 L 1312.1 -354.1 L 1291.3 -346.7 L 1254.9 -352.3 L 1241.7 -362.9 L 1218.5 -350.4 L 1185.2 -338.3 L 1177.1 -352 L 1145.4 -349.7 L 1165.8 -361.3 L 1168.7 -379.7 L 1176.7 -401.2 L 1193.7 -399.3 L 1198 -389 L 1210 -392.6 L 1223.6 -386.5 Z M 1343.3 -556.1 L 1365.5 -565.4 L 1417.4 -553.5 L 1449.7 -542.4 L 1452.7 -532.2 L 1496.2 -537.5 L 1520.6 -522.5 L 1577.2 -513.3 L 1597.6 -503.9 L 1619.7 -481.9 L 1576.7 -471 L 1631.9 -455.7 L 1669.1 -450.6 L 1702.7 -429.1 L 1739.6 -427.5 L 1732.3 -411.1 L 1691.2 -383.9 L 1662.4 -393.9 L 1625.5 -416.4 L 1595.2 -413.5 L 1592.3 -400.1 L 1616.9 -386.4 L 1648.7 -375.7 L 1658.3 -369.4 L 1673.6 -346.3 L 1665.5 -329.4 L 1636 -335.8 L 1577.2 -354.5 L 1610.3 -334.3 L 1634.7 -320.2 L 1638.5 -312 L 1575 -321.4 L 1524.8 -335 L 1496.4 -346.4 L 1504.6 -353 L 1469.6 -365 L 1435.5 -376.4 L 1435.9 -369.6 L 1368.2 -365.9 L 1348.4 -373.9 L 1363.8 -391.1 L 1407.8 -391.6 L 1456 -394.5 L 1448.2 -402.9 L 1456.3 -414.6 L 1486.6 -437.4 L 1480.2 -447.8 L 1471.2 -455.8 L 1435.3 -467.1 L 1387.9 -475.1 L 1402.9 -481 L 1378.1 -495.6 L 1357.4 -496.9 L 1339 -504.9 L 1326.4 -498 L 1284 -495 L 1198.7 -500.2 L 1149.2 -507.1 L 1111.2 -510.6 L 1091.7 -518.8 L 1116.2 -529.5 L 1083 -529.6 L 1075.5 -553.3 L 1093.5 -574.3 L 1117.6 -583.9 L 1178.1 -590.1 L 1160.9 -574.9 L 1179.3 -560.3 L 1200.9 -579.2 L 1260.3 -588.8 L 1300.5 -564.6 L 1297 -549.3 L 1343.3 -556.1 Z M 974.9 -597.8 L 1023.7 -597 L 1068.4 -591.3 L 1033.4 -570.5 L 1005.5 -565.9 L 980.4 -548.4 L 953.6 -549.3 L 939 -569.9 L 939.4 -581.5 L 951.6 -591.5 L 974.9 -597.8 Z M 310.9 -644.2 L 310.9 -644.2 L 350.6 -661.8 L 398.7 -676.9 L 434.6 -676.6 L 466.8 -680 L 463.5 -662.1 L 445.5 -653.9 L 423.6 -652.8 L 380.1 -642.8 L 342.6 -639.2 L 310.9 -644.2 Z M 80.1 -127.2 L 102.5 -129.1 L 95.5 -102.5 L 115.9 -83.7 L 106.6 -83.7 L 92.5 -94.4 L 83.8 -105.2 L 72 -112.5 L 67.7 -122.8 L 69.1 -130.3 L 80.1 -127.2 Z M 717.5 -718.8 L 763.5 -715.7 L 826.8 -707.1 L 844.7 -696 L 853.8 -686.2 L 815.6 -688.8 L 777 -696.4 L 724.9 -697.3 L 747.5 -704.2 L 719.2 -709.9 L 717.5 -718.8 Z M 295.5 2.3 L 283.7 5.6 L 245.3 -5.1 L 238.3 -13.4 L 217.3 -21.6 L 213.1 -28.3 L 189 -32.5 L 180 -45.2 L 182 -50.6 L 206.6 -45.5 L 220.9 -42 L 242.9 -39.5 L 250.9 -31.4 L 262.5 -20.3 L 285.9 -10.6 L 295.5 2.3 Z M 341.7 -605.2 L 375.2 -600.3 L 435 -599 L 457.7 -592.2 L 482.9 -582.4 L 453.4 -576.5 L 396 -560 L 367 -543.6 L 367 -533.4 L 305.3 -522.1 L 293 -532.4 L 238.9 -544.8 L 248.9 -554.7 L 265.1 -571.8 L 285.5 -587.2 L 262.6 -601.5 L 341.7 -605.2 Z M 663 -637.9 L 683.9 -641.8 L 708.4 -640.8 L 712.5 -629.3 L 698.3 -618.2 L 619 -614.6 L 559.9 -604.4 L 524.3 -603.9 L 521.3 -611.5 L 569.9 -621.9 L 464.1 -619.1 L 431.4 -623.3 L 463.3 -646.2 L 485.4 -652.7 L 551.3 -644.8 L 592.9 -631 L 633.8 -629.2 L 600.3 -651.6 L 621.7 -660.1 L 645.9 -657.4 L 653.8 -646.2 L 663 -637.9 Z M 693.4 -573 L 719.6 -563.6 L 734.3 -540.8 L 741.6 -524.3 L 780.9 -512.7 L 823.2 -501.6 L 820.6 -491.3 L 782.2 -489.4 L 797.1 -480.4 L 789.2 -471.8 L 746.8 -475.5 L 706.6 -481.8 L 679.3 -480.4 L 635.4 -472.4 L 576 -468.9 L 534.3 -466.7 L 521.6 -477.8 L 489.7 -484.1 L 468.9 -481.5 L 440 -500.1 L 455.6 -502.6 L 491.8 -506.6 L 524.8 -505.5 L 555.3 -509.6 L 510.1 -515 L 460 -513.2 L 426.8 -513.7 L 414.4 -522.3 L 468.8 -531.7 L 432.6 -531.3 L 391.7 -537.5 L 411.4 -555 L 427.7 -564.4 L 490.4 -578.6 L 514.3 -574.1 L 502.6 -563.1 L 554.8 -570.2 L 587.3 -558.4 L 613.8 -570.3 L 635.2 -562.7 L 654.4 -539.7 L 666.1 -549.4 L 649.5 -573.4 L 670.1 -576.8 L 693.4 -573 Z M 835.9 -564.4 L 810.1 -579.7 L 837.8 -591 L 865.7 -586.1 L 907.5 -589.1 L 913.6 -582.3 L 891.7 -571 L 927.2 -561 L 923 -539.9 L 884.6 -530.8 L 862 -532.8 L 845.8 -541.7 L 787.6 -559.8 L 788.1 -567.3 L 835.9 -564.4 Z M 691.6 -585.3 L 722.9 -586.2 L 740.7 -581.1 L 720.1 -565.6 L 683.6 -582 L 691.6 -585.3 Z M 881.3 -658.4 L 899.2 -647.5 L 899.9 -635.5 L 889.2 -618.1 L 850.6 -615.7 L 825.4 -619.4 L 825.9 -633.1 L 787.5 -631.3 L 786 -649.4 L 811.2 -648.7 L 846.5 -656.7 L 879.5 -655.3 L 881.3 -658.4 Z M 939.4 -749.3 L 955.7 -756.4 L 979.7 -758.1 L 969.4 -763.5 L 1023.9 -764.6 L 1053.8 -752.1 L 1093.2 -747.1 L 1131.6 -742.7 L 1150.1 -727.2 L 1178.4 -719.7 L 1146.2 -712.7 L 1102.9 -695.1 L 1061.5 -693.4 L 1013 -696.4 L 987.8 -705.9 L 988.2 -714.4 L 1006.7 -720.7 L 963.8 -720.5 L 938 -728.3 L 923.2 -738.9 L 939.4 -749.3 Z M 1043.2 -779.6 L 1078 -784 L 1105.3 -784.8 L 1151.3 -788.6 L 1185.7 -797.3 L 1214.8 -796.1 L 1240.1 -789.5 L 1257.9 -802.2 L 1288.8 -805.9 L 1330.8 -808.5 L 1402.4 -809.5 L 1414.8 -807 L 1482.4 -810.9 L 1533.1 -809.4 L 1583.9 -807.9 L 1646.5 -806.1 L 1696.8 -803.1 L 1739.6 -796.8 L 1738.6 -790.5 L 1681.4 -780.3 L 1624.8 -775.6 L 1603.6 -770.4 L 1654.6 -770.5 L 1599.3 -756.3 L 1561.2 -749.6 L 1521.1 -730.5 L 1472.8 -726.6 L 1457.9 -721.9 L 1387 -719.3 L 1419.2 -716.4 L 1403.1 -712.2 L 1422.4 -700.7 L 1400.2 -692.6 L 1364 -686 L 1352.9 -676.8 L 1320.2 -669.8 L 1323.4 -664.5 L 1363.5 -665.5 L 1364 -659.7 L 1301.4 -645.7 L 1240.2 -652.2 L 1171.4 -648.5 L 1136.5 -651.4 L 1092.3 -652.6 L 1089.3 -663.8 L 1132.6 -669.1 L 1121.1 -686 L 1135.4 -687.7 L 1198 -677.6 L 1166.1 -692.6 L 1128.1 -697.1 L 1147 -706.1 L 1188.6 -711.7 L 1195.2 -719.9 L 1162.1 -729 L 1152.2 -741.1 L 1216.2 -740.1 L 1234.7 -737.5 L 1271.3 -746.1 L 1218.5 -748.8 L 1136.6 -747.3 L 1095.2 -755.2 L 1075.7 -764.7 L 1048.3 -771.6 L 1043.2 -779.6 Z M 1426.6 -441.1 L 1411.4 -434.2 L 1385.1 -433 L 1379.3 -444.5 L 1389.2 -457.6 L 1410.7 -460.9 L 1429 -454.4 L 1429.2 -444.4 L 1426.6 -441.1 Z M 933.8 -489.1 L 948.1 -480.1 L 933.5 -471.9 L 901.9 -479 L 882.9 -476.4 L 850.9 -486.9 L 871.5 -494.2 L 887.9 -504.4 L 912.7 -497.7 L 926.8 -493.5 L 933.8 -489.1 Z M 1677.1 -29.6 L 1685.2 -31.6 L 1716 -25.7 L 1740 -15.9 L 1740.6 -11.6 L 1729.2 -11.2 L 1698.9 -18.6 L 1677.1 -29.6 Z M 1688.9 36.8 L 1697.1 48.2 L 1714.1 51.3 L 1735.8 50.7 L 1724.3 60.3 L 1715.6 61.8 L 1685.9 51.9 L 1680.1 44 L 1688.9 36.8 Z" />
<path class="neighbor" d="M 311.2 -9.2 L 377.7 -9.2 L 447.3 -9.2 L 470.3 -9.2 L 541.7 -9.2 L 610.8 -9.2 L 681 -9.2 L 751.3 -9.2 L 830.9 -9.2 L 911 -9.2 L 959.5 -9.2 L 959.6 -18.2 L 967.5 -18.3 L 971.7 -5.4 L 978.9 -1.5 L 995.3 0 L 1019.2 3.7 L 1041.9 11 L 1060.9 7.9 L 1089.7 14 L 1097.4 13.8 L 1118.3 7.2 L 1140.3 15.7 L 1163.2 24.7 L 1182.2 32.5 L 1200.3 40 L 1202.6 46.2 L 1208.1 48.5 L 1206.7 50.8 L 1213 51.5 L 1217.5 49.1 L 1218.7 54.6 L 1223.4 58.3 L 1229.8 58.3 L 1233.3 61.2 L 1230.4 65.4 L 1254.8 76.4 L 1259.8 97.6 L 1264.5 118 L 1257.6 131.8 L 1246.6 144.7 L 1241.5 152.9 L 1241 155.3 L 1243.6 158.7 L 1251.5 162.4 L 1257.4 162.4 L 1284.6 149.9 L 1308.7 146.2 L 1339.4 134.5 L 1339.8 132.2 L 1337.7 125 L 1333.9 120.4 L 1344.5 116.7 L 1367.5 116.6 L 1389 116.6 L 1396.5 107.5 L 1399.4 105.7 L 1424.2 88.8 L 1434.8 84.5 L 1470.3 84.3 L 1513.5 84.3 L 1515.8 78.5 L 1523.3 77.4 L 1533.3 73.7 L 1541.6 63.1 L 1548.7 44.9 L 1566.6 27.2 L 1574.4 33.3 L 1590.1 29.4 L 1600.5 36.1 L 1600.5 68 L 1615.8 81.3 L 1619.8 89 L 1594.8 100.3 L 1570.8 108.4 L 1546 115.3 L 1533.6 129.2 L 1529.7 134.5 L 1529.4 146.9 L 1537.1 159.3 L 1546.9 159.9 L 1544.4 151.4 L 1551.4 156.6 L 1549.6 163.3 L 1533.8 167.1 L 1522.5 166.6 L 1505.2 170.7 L 1495 171.9 L 1481.4 173 L 1461.9 179.8 L 1496.2 175.4 L 1503.2 179.8 L 1470.4 186.9 L 1455.5 186.9 L 1456.2 184 L 1449 190.5 L 1455.9 191.6 L 1450.9 208.4 L 1433.8 226.4 L 1432.1 220.4 L 1427 219.2 L 1419.3 213.4 L 1424.1 226 L 1430 230.1 L 1430.3 239 L 1422.8 248.1 L 1409.6 266.8 L 1407.5 265.9 L 1414.7 249.9 L 1402.8 241 L 1400 221.5 L 1395.5 231.6 L 1400.5 246.5 L 1385 242.8 L 1401.2 250.4 L 1402.2 272.7 L 1408.9 274.3 L 1411.3 282.4 L 1414.6 305.8 L 1399.7 323.2 L 1375.5 330.1 L 1360.1 343.9 L 1348.4 345.4 L 1336.5 354 L 1333.2 361.8 L 1307.5 377 L 1294.3 388.2 L 1283.2 402.1 L 1279.6 418.7 L 1283.8 435 L 1291.6 455 L 1302 471.6 L 1302.1 481.7 L 1313.2 508.9 L 1312.5 524.7 L 1311.5 533.8 L 1305.6 548.1 L 1298.6 551 L 1287.1 548.2 L 1283.4 537.9 L 1274.5 532.5 L 1262.1 512.4 L 1251.2 494.5 L 1247.7 485.3 L 1252.5 469.8 L 1245.9 456.9 L 1227.7 437.3 L 1218.5 433.7 L 1194.9 444.3 L 1190.7 443.2 L 1179.3 432.2 L 1164.6 426.4 L 1138.2 429.4 L 1117.4 426.8 L 1099.5 428.4 L 1089.8 432.1 L 1094.1 438.3 L 1093.7 447.8 L 1098.7 452.4 L 1094.2 455.5 L 1085.5 452 L 1076.7 456.5 L 1059.7 455.8 L 1042.2 443.4 L 1021.8 446.3 L 1004.8 440.9 L 990.2 442.5 L 970.5 448 L 949.2 465.4 L 925.9 475.4 L 913.1 486.6 L 907.7 497.2 L 907.5 513.3 L 908.7 524.6 L 913.1 532.5 L 904 533.2 L 887.4 528.1 L 869.1 520.8 L 862.5 509.8 L 857.4 493.4 L 843.6 480.1 L 835.5 466.3 L 823.7 450.3 L 807.2 441 L 788.1 441.4 L 773.3 459.9 L 753.9 452.9 L 741.8 445.8 L 735.9 433 L 728.2 420.7 L 714.2 410.4 L 702.3 403 L 693.7 394.7 L 653.2 394.7 L 653.1 404.4 L 634.5 404.4 L 588 404.6 L 534.5 388.1 L 499.2 376.7 L 501.4 372.1 L 471.6 374.6 L 445 376.4 L 441.1 364.5 L 425.9 351 L 415 348.2 L 412.4 341.5 L 399.3 340.3 L 390.9 334 L 369.1 331.7 L 363.1 327.9 L 360.3 315 L 337.6 291.5 L 318.1 258.9 L 318.9 253.5 L 308.6 245.8 L 290.4 226.2 L 287.2 207.1 L 274.7 194.3 L 279.9 174.9 L 279 154.8 L 271.6 136.8 L 280.7 114.8 L 283.6 93.5 L 286.4 72.2 L 282.2 40.8 L 274.8 20.8 L 268 9.9 L 270.8 5.4 L 304.7 13.3 L 317.1 35.4 L 322.9 29.2 L 319.2 10 L 311.2 -9.2 Z M -451.4 668.1 L -447.2 670.2 L -443.4 673.3 L -437.5 681.5 L -438 682.8 L -447.2 687.8 L -454.7 691.5 L -458.1 695.4 L -463.9 692 L -463.2 685.5 L -467.1 677 L -465.9 674.4 L -461.9 670.5 L -463.5 665.9 L -462.1 663.8 L -460.4 664.2 L -451.4 668.1 Z M -465.3 652.1 L -467.2 654.9 L -475.1 656.6 L -479.1 651.7 L -481.8 649.8 L -482 648.3 L -479.7 646.3 L -471.4 648.5 L -465.3 652.1 Z M -483.2 642.4 L -483.9 645 L -496.4 644.3 L -494.7 641.4 L -483.2 642.4 Z M -512.8 629.8 L -510.9 631.3 L -504.1 639 L -505.4 640.4 L -507 640.1 L -515.2 639.3 L -518.2 634 L -519.1 633 L -512.8 629.8 Z M -544.2 618.1 L -543.7 623.6 L -546.5 625.9 L -554.4 621.6 L -553.2 619.9 L -549.6 617.6 L -544.2 618.1 Z M -710.6 -275.8 L -692 -273.7 L -689.7 -264.7 L -704.1 -261 L -719.5 -265.4 L -733.7 -271.8 L -710.6 -275.8 Z M -400.5 -219.2 L -384.9 -217.6 L -375 -210.4 L -395.3 -199.2 L -418.7 -190.3 L -430.6 -196.4 L -434.3 -207.3 L -413 -215.7 L -400.5 -219.2 Z M -113.8 -494.3 L -113.8 -494.3 L -113.9 -407.3 L -114 -274 L -91 -273.3 L -68.2 -266.8 L -51.8 -256.5 L -31 -241.1 L -8.2 -254.2 L 15.3 -261.8 L 27.7 -249.7 L 43.5 -240.1 L 64.9 -229.6 L 79.6 -212.8 L 103.5 -186 L 143.3 -171.1 L 144 -156.4 L 131 -145.1 L 131 -145.1 L 131 -145.1 L 118.1 -153.9 L 97.5 -161.4 L 90.8 -181.8 L 60.6 -200.7 L 48 -222.8 L 25.5 -224.4 L -11.7 -224.9 L -39.1 -231.7 L -87.6 -256 L -110 -260.4 L -151 -268.8 L -183.4 -266.8 L -229.4 -277.5 L -257.3 -287.5 L -283.3 -282.6 L -278.5 -266.3 L -291.4 -264.8 L -318.5 -259.9 L -339.1 -252 L -365.1 -247 L -368.4 -260.8 L -357.9 -283.8 L -333 -291 L -339.4 -296.9 L -369.3 -283.8 L -385.3 -268.2 L -419 -251.6 L -401.9 -240.2 L -424 -223.4 L -449.2 -213.6 L -472.6 -206.4 L -478.4 -196.1 L -515 -184 L -522.4 -173 L -549.8 -163 L -565.9 -164.8 L -587.7 -158.2 L -611.5 -150.3 L -631 -142.4 L -671.2 -135.7 L -674.8 -139.7 L -649.2 -150.6 L -626.3 -157.8 L -601.3 -170.7 L -572.3 -173.3 L -560.7 -182.9 L -528.3 -196.9 L -523 -201.6 L -505.7 -209.9 L -501.7 -227.6 L -489.8 -241.5 L -516.8 -234.4 L -524.3 -238.4 L -537 -229.9 L -552.3 -241.8 L -558.6 -233.4 L -567.4 -245 L -590.8 -235.7 L -605.2 -235.7 L -607.2 -249.6 L -603 -258.2 L -618 -266.6 L -648.5 -262.1 L -668.3 -273.1 L -684.3 -278.7 L -684.4 -291.9 L -702.4 -301.9 L -693.4 -315.4 L -674.3 -328.5 L -665.9 -340.5 L -647 -342.2 L -630.9 -338.4 L -612 -349.7 L -595 -347.7 L -577.2 -355 L -581.5 -365.7 L -594.6 -369.9 L -577.3 -378.9 L -591.7 -378.7 L -616.5 -373.6 L -623.7 -368.4 L -642.1 -373.6 L -675.3 -370.9 L -709.6 -376.6 L -719.4 -386 L -749 -399.6 L -716.1 -409.4 L -663.9 -420.8 L -644.6 -420.8 L -647.8 -409.1 L -598.4 -410 L -617.4 -424.5 L -646.2 -433.5 L -662.8 -445.2 L -685.3 -455.2 L -717.5 -462.6 L -704.4 -474.8 L -662.8 -475.6 L -633.3 -486.3 L -627.7 -497.7 L -603.8 -508.8 L -581 -511.5 L -536.6 -521.9 L -515 -520.3 L -479 -532.8 L -443.6 -527.9 L -426.6 -517.3 L -416.2 -521.8 L -376.6 -520.4 L -378 -515 L -342.2 -511.1 L -318.3 -513.4 L -269 -506 L -223.9 -503.8 L -205.9 -500.8 L -174.7 -504.6 L -139.2 -497.5 L -113.8 -494.3 L -113.8 -494.3 Z M -833.8 -355.4 L -819.4 -350.9 L -804.8 -353.3 L -785.8 -347.2 L -762.6 -344 L -764.5 -341.5 L -782.3 -336.5 L -800.1 -341.6 L -809 -345.9 L -829.6 -344.5 L -835.2 -346.6 L -833.8 -355.4 Z" />
<path class="neighbor" d="M 1508.6 676.7 L 1510.7 689.5 L 1508.9 698.5 L 1503.2 702.4 L 1509.2 709.4 L 1508.7 715.8 L 1493.2 711.8 L 1482.1 713.4 L 1467.8 711.7 L 1456.9 716.1 L 1444.3 708.8 L 1446.4 701.3 L 1468 704.5 L 1485.6 706.4 L 1494.1 701.2 L 1483.4 691.1 L 1483.5 682.1 L 1468.8 678.5 L 1474 672 L 1488.3 673 L 1508.6 676.7 Z" />
<path class="neighbor" d="M 1508.7 715.8 L 1509.2 709.4 L 1503.2 702.4 L 1508.9 698.5 L 1510.7 689.5 L 1508.6 676.7 L 1511.6 672.7 L 1529.8 672.8 L 1543.7 678.8 L 1549.9 678.3 L 1554.1 686.6 L 1567 686.1 L 1566.2 693.1 L 1576.6 693.9 L 1588.1 702.5 L 1579.4 712 L 1568.3 707 L 1557.5 707.9 L 1549.8 706.8 L 1545.6 711.1 L 1536.6 712.5 L 1533.1 706.9 L 1525.3 710.2 L 1515.9 726.3 L 1509.9 722.5 L 1508.7 715.8 Z" />
<path class="neighbor" d="M 7373.9 -526.7 L 7403.8 -536.5 L 7403.8 -520.5 L 7378.1 -519.3 L 7373.9 -526.7 Z M 4338.1 51.7 L 4327.4 65.6 L 4304.7 69.5 L 4281.4 93.7 L 4302.7 115.9 L 4300.4 131.7 L 4326 159.2 L 4326 159.2 L 4312 168.7 L 4308 174.6 L 4297.6 173 L 4281.5 158.8 L 4275 158 L 4260.2 152.6 L 4253.1 143 L 4231.2 138.1 L 4217 141.8 L 4212.9 137.4 L 4181 126.2 L 4146.6 122.4 L 4126.8 118.4 L 4123.9 121.2 L 4094 101.4 L 4067.3 92.5 L 4047.1 78.8 L 4064.1 75 L 4083.6 55.4 L 4070.5 46.2 L 4105 36.6 L 4104.4 31.5 L 4083.4 35.3 L 4084.1 24.9 L 4096.2 18.3 L 4118.8 16.6 L 4122.5 8.8 L 4117.3 -4.1 L 4126.8 -16.4 L 4126.6 -23.2 L 4092 -30.9 L 4078.4 -30.6 L 4063.9 -41.6 L 4045.9 -37.9 L 4016.2 -46.1 L 4016.7 -50.7 L 4008.4 -60.9 L 3989.7 -62 L 3987.8 -69.3 L 3993.6 -74 L 3978.6 -87.3 L 3954.4 -85 L 3947.2 -86.2 L 3941.3 -80.9 L 3932.6 -81.8 L 3932.6 -81.8 L 3926.8 -96.8 L 3921.3 -104.6 L 3925.8 -106.8 L 3944.7 -106 L 3953.8 -111.1 L 3947.1 -117.3 L 3931.3 -121.5 L 3932.7 -125.7 L 3923.2 -130 L 3908.5 -145.3 L 3913.5 -151.6 L 3911.2 -162.6 L 3888.3 -168.2 L 3876 -165.4 L 3872.7 -171.2 L 3848.1 -177.1 L 3840.5 -190.9 L 3838.5 -202.3 L 3827.2 -207.6 L 3837.3 -215.1 L 3830.3 -236.9 L 3847 -250.4 L 3843.5 -254.5 L 3843.5 -254.5 L 3870.1 -267.5 L 3845.6 -278.6 L 3845.6 -278.6 L 3895.7 -308.5 L 3917.5 -322 L 3926.3 -334 L 3891.6 -350 L 3901.2 -365.3 L 3880.1 -382.7 L 3895.9 -402.8 L 3868.6 -429.4 L 3890.2 -447.1 L 3854.4 -462.7 L 3857.8 -479.1 L 3876.7 -481.3 L 3916.5 -490.6 L 3916.5 -490.6 L 3940.7 -498.8 L 3979.2 -484.6 L 4043.3 -479.1 L 4131.8 -452.6 L 4149.8 -441.4 L 4151.3 -425.9 L 4125.3 -413.5 L 4087.1 -407.3 L 3982.5 -425.1 L 3965.3 -422.1 L 4003.5 -405 L 4005 -394.1 L 4006.5 -370.2 L 4036.7 -363 L 4055 -357 L 4058 -368.3 L 4043.9 -378.4 L 4058.8 -387.2 L 4115.4 -372.7 L 4135.2 -378.4 L 4119.4 -395.5 L 4174 -418.5 L 4195.6 -417.1 L 4217.5 -408.9 L 4231.1 -425 L 4211.6 -439 L 4223 -453 L 4205.8 -467.5 L 4271.3 -460 L 4284.7 -446.9 L 4255.1 -444 L 4255.2 -431 L 4273.7 -423 L 4309.8 -428 L 4315.6 -443 L 4364.5 -454.1 L 4446.2 -474.2 L 4463.9 -473.1 L 4440.8 -458.9 L 4469.8 -456.4 L 4486.6 -464.4 L 4530.5 -465.1 L 4565.3 -474.8 L 4592 -460.7 L 4618.6 -476.2 L 4594.1 -489.8 L 4606.2 -497.5 L 4675.4 -490.4 L 4707.8 -483.1 L 4792.7 -456.3 L 4808.4 -468.6 L 4784.6 -481 L 4783.9 -485.9 L 4755.7 -488.2 L 4763.4 -499.3 L 4750.9 -517.6 L 4750.1 -525.1 L 4793.4 -546.3 L 4808.7 -567.6 L 4826.2 -572.2 L 4888.2 -566 L 4893 -553 L 4870.8 -534 L 4885.4 -526.5 L 4892.9 -510.2 L 4887.6 -478.1 L 4913.5 -463.7 L 4903.4 -448.1 L 4857.5 -414.8 L 4884.3 -411.4 L 4893.6 -419.8 L 4919.4 -425.8 L 4925.6 -437.4 L 4945.9 -448.5 L 4932.2 -461.9 L 4943.2 -477.3 L 4917.5 -479.2 L 4911.9 -492.3 L 4930.6 -515.8 L 4900.2 -534.9 L 4942.1 -550.7 L 4936.7 -567.3 L 4948.4 -567.9 L 4960.7 -554.9 L 4951.4 -532.3 L 4976.5 -528 L 4965.8 -544.9 L 5005 -554.1 L 5053.6 -555.3 L 5096.9 -542 L 5076.1 -561.5 L 5073.7 -586.4 L 5114.5 -591.2 L 5170.8 -590.1 L 5221.5 -593.2 L 5202.5 -605.4 L 5229.6 -620.8 L 5256.5 -621.5 L 5302.1 -633.1 L 5363.9 -636.2 L 5371.7 -642.6 L 5433.2 -644.8 L 5452.4 -639.5 L 5504.9 -652 L 5548 -651.6 L 5554.4 -661.7 L 5576.8 -671.7 L 5632.1 -681.3 L 5672.2 -673.7 L 5640.4 -667.9 L 5693.4 -664.3 L 5699.7 -652.8 L 5721.1 -658.5 L 5789.6 -658.1 L 5842.4 -646.7 L 5861.2 -637.9 L 5855.4 -625.8 L 5829.5 -618.8 L 5767.9 -605.8 L 5750.3 -598.9 L 5779.4 -595.6 L 5814 -589.7 L 5835.1 -594.1 L 5847 -579.1 L 5857.3 -585.2 L 5894.8 -588.9 L 5969.9 -585 L 5975.6 -574.1 L 6073.5 -570.6 L 6074.9 -588.5 L 6124.6 -584.4 L 6162 -584.5 L 6199.8 -572.2 L 6210.6 -557.2 L 6196.7 -547.4 L 6226.1 -528.9 L 6262.9 -519.4 L 6285.5 -544 L 6323.1 -533.5 L 6363 -539.8 L 6408.4 -532.6 L 6425.6 -539.1 L 6463.9 -535.8 L 6447 -557.6 L 6477.9 -567.7 L 6689.5 -552.5 L 6709.4 -538.6 L 6770.7 -520.7 L 6865.3 -525.2 L 6911.9 -521.3 L 6931.4 -511.6 L 6928.5 -494.5 L 6957.4 -487.8 L 6988.7 -492.6 L 7030.3 -493.2 L 7074.5 -488.6 L 7118.9 -491.2 L 7159.7 -470.4 L 7188.7 -477.9 L 7169.8 -492.9 L 7180.2 -503.3 L 7254.9 -496.7 L 7303.6 -498.1 L 7371 -486.9 L 7403.8 -476.7 L 7403.8 -383.4 L 7403.6 -383.3 L 7373.5 -373 L 7343.1 -374.7 L 7364.3 -362.3 L 7378.2 -343 L 7389 -336.6 L 7391.7 -327 L 7385.7 -320.8 L 7342 -325.9 L 7276.6 -308.2 L 7255.8 -305.5 L 7219.9 -289 L 7185.9 -274.7 L 7177.3 -264 L 7143.8 -280.2 L 7082.8 -261.8 L 7072.1 -270.5 L 7049.6 -260.5 L 7018.3 -263.7 L 7010.7 -248.3 L 6982.6 -225.7 L 6983.5 -216.2 L 7010.1 -210.9 L 7007 -176.8 L 6985.2 -176 L 6975.2 -156.4 L 6985 -146.3 L 6944 -134.3 L 6935.9 -107.6 L 6901 -101.9 L 6893.9 -78.1 L 6860.2 -56.3 L 6851.5 -72.4 L 6841.5 -106.6 L 6828.4 -158.6 L 6839.7 -191.1 L 6859.4 -205.1 L 6860.7 -216 L 6897.1 -221.3 L 6938.9 -250.7 L 6979.2 -274.8 L 7021.3 -293.5 L 7040.1 -326.5 L 7011.7 -324.6 L 6997.6 -305.3 L 6938.2 -279.5 L 6919 -308.3 L 6858.6 -300.4 L 6800 -261.1 L 6819.3 -246.8 L 6767 -240.7 L 6730.8 -238.2 L 6732.5 -255.2 L 6696.1 -258.7 L 6667.1 -247.2 L 6595.5 -251.3 L 6518.4 -244.3 L 6442.6 -198.6 L 6352.8 -143.4 L 6389.7 -140.4 L 6401.2 -125.7 L 6424 -120.5 L 6439 -132.2 L 6464.7 -130.7 L 6498.5 -105 L 6499.3 -85 L 6481 -61.6 L 6479 -33.7 L 6468.4 3.8 L 6433.1 37.7 L 6425.3 53.9 L 6393.5 81.1 L 6361.9 108.2 L 6346.8 122 L 6315.6 135.8 L 6300.8 136.1 L 6286.1 124.7 L 6254.7 141.8 L 6251 149.6 L 6251 149.6 L 6251 149.6 L 6251 149.6 L 6247.8 145.5 L 6247.8 145.5 L 6247.6 133.6 L 6259.6 133 L 6262.9 105.3 L 6256.8 85.3 L 6276.9 77 L 6305.3 81.1 L 6321.1 58.3 L 6329.1 32.7 L 6338.2 24.1 L 6350.5 3 L 6311.8 10 L 6291.5 19.2 L 6255.9 19.2 L 6246.4 -2.8 L 6218.7 -19.5 L 6177.9 -27 L 6169.2 -49.9 L 6161.1 -64.3 L 6152.3 -74.4 L 6137.8 -98 L 6117.3 -106.6 L 6082.2 -113.6 L 6051.2 -113 L 6022.1 -108.7 L 6002.7 -97.1 L 6015.6 -91.5 L 6015.9 -78.6 L 6002.8 -71.1 L 5981.7 -46.2 L 5981.9 -35.9 L 5948.9 -21.1 L 5920.8 -30 L 5892.8 -28 L 5880.6 -35.9 L 5866.5 -38.4 L 5832.2 -21.9 L 5801.4 -18 L 5779.9 -12.2 L 5750.4 -16 L 5728.7 -15.8 L 5714.4 -27.8 L 5691.5 -39 L 5668 -42.1 L 5638.4 -39 L 5616.3 -34.7 L 5583 -44.6 L 5578.5 -62.1 L 5551 -68.1 L 5529.7 -70.9 L 5503.5 -80.5 L 5479.2 -56.3 L 5488.8 -42.5 L 5466 -26.2 L 5432.1 -32.1 L 5408.8 -32.9 L 5393.1 -43.8 L 5368.7 -44.2 L 5348.3 -51.4 L 5312.7 -40.4 L 5268 -20.2 L 5243.3 -16.1 L 5234.1 -14.2 L 5221.7 -28.5 L 5191.5 -25.4 L 5181.6 -35.3 L 5165.2 -39.9 L 5153.9 -53.4 L 5141 -57.6 L 5107.3 -51.6 L 5075.1 -65.1 L 5062.6 -52.8 L 5010.3 -112.3 L 4980.4 -130.4 L 4989 -137.8 L 4930.3 -115.7 L 4907.8 -114.3 L 4909.7 -127.1 L 4879.6 -135.1 L 4855.2 -129.4 L 4847.8 -153.7 L 4805.7 -158.7 L 4784.7 -149 L 4726.1 -140.4 L 4714.6 -134.6 L 4627 -126.4 L 4616.3 -118.4 L 4633.2 -102.4 L 4610.7 -96.3 L 4615.1 -89.9 L 4592.6 -78.5 L 4630.5 -62.4 L 4624.7 -51.3 L 4591.8 -52.3 L 4585 -45.4 L 4555 -57.5 L 4517.9 -57 L 4493 -47.2 L 4465.3 -56.6 L 4413.7 -72.8 L 4377.1 -72.2 L 4328.8 -46.8 L 4325.8 -29.7 L 4301.8 -43.2 L 4283.1 -17.5 L 4289.9 -12.7 L 4276.4 5 L 4296.3 20.9 L 4313.7 20.2 L 4328.6 35.9 L 4326.2 47.9 L 4338.1 51.7 Z M 5384.4 -759.2 L 5435.1 -764.5 L 5480.6 -752.7 L 5534.5 -730 L 5528.8 -709 L 5477.7 -706.1 L 5412.4 -712.8 L 5373.6 -721.8 L 5355.6 -738.6 L 5323.6 -743.2 L 5384.4 -759.2 Z M 5596.6 -718.4 L 5656 -705.1 L 5649 -695.5 L 5517 -686.5 L 5559.8 -717.3 L 5579 -719.9 L 5596.6 -718.4 Z M 6439.6 -644.7 L 6501.4 -643.7 L 6586.1 -631.3 L 6567.7 -613.9 L 6481.3 -614.5 L 6442.5 -609 L 6396.1 -624.2 L 6408.7 -640.3 L 6439.6 -644.7 Z M 6659.5 -626.2 L 6718.3 -620.1 L 6691.2 -610.8 L 6653.8 -612.9 L 6610.3 -622.1 L 6615.9 -629.7 L 6659.5 -626.2 Z M 6463.8 -579.9 L 6486 -589.2 L 6515.3 -591.3 L 6548.5 -582.4 L 6551.4 -576.2 L 6515.9 -576.1 L 6467.9 -578.7 L 6463.8 -579.9 Z M 4238.5 -749 L 4284.2 -753.3 L 4319.8 -753.6 L 4324.6 -747.2 L 4338 -752.9 L 4360.1 -756.7 L 4394.8 -751.6 L 4385.8 -748 L 4354.3 -744.9 L 4333.3 -743.2 L 4330 -739.3 L 4302.6 -735.4 L 4277.3 -741 L 4290.6 -748.3 L 4238.5 -749 Z M 3720.5 -133.9 L 3677.4 -133.6 L 3648.6 -136.3 L 3653.9 -146.6 L 3686.3 -154.2 L 3710.8 -150.1 L 3721.1 -146.3 L 3718.6 -139.9 L 3720.5 -133.9 Z M 4441.3 -588.8 L 4497.4 -609.4 L 4491.1 -620 L 4543.4 -632.4 L 4620.8 -647.4 L 4698.7 -651.8 L 4738.8 -660.5 L 4784.4 -663.5 L 4800.7 -654.3 L 4784.9 -647 L 4702 -635.4 L 4630.4 -624.2 L 4557.7 -601.9 L 4522.8 -579.1 L 4486.1 -556.5 L 4490.8 -537.1 L 4535.6 -517.9 L 4521.8 -515.8 L 4445.3 -518.9 L 4439.1 -529.3 L 4396.7 -535.5 L 4393.3 -548.2 L 4417.2 -553.2 L 4416.4 -566 L 4462.9 -586 L 4441.3 -588.8 Z M 6535.2 -119.4 L 6543.3 -96.8 L 6542.7 -73.7 L 6552.4 -50.1 L 6576 -8.6 L 6541.3 -16.4 L 6526.9 17.5 L 6549.7 41.5 L 6549.1 57.9 L 6531.3 43.7 L 6516 61.9 L 6511.6 42.2 L 6514.2 19.4 L 6511.6 -5.9 L 6517 -23.6 L 6518 -54.9 L 6504.3 -77.9 L 6506.4 -109.9 L 6528 -120.7 L 6518.7 -131.6 L 6529.1 -134.8 L 6535.2 -119.4 Z M -908.7 -435.6 L -910.7 -421 L -894.9 -415.2 L -900.3 -432.2 L -836.8 -428.7 L -790.9 -406.8 L -814.1 -396.6 L -852.5 -394.2 L -853.1 -371.3 L -862.5 -366.4 L -884.4 -367.1 L -902.3 -375.3 L -933.4 -382.1 L -938.6 -392.2 L -962.4 -396.1 L -989.1 -393 L -1001.8 -401.2 L -996.7 -409.9 L -1024.8 -404.4 L -1014.2 -393.4 L -1027.5 -383.4 L -1027.5 -476.7 L -970.1 -458.8 L -908.7 -435.6 Z M -996.9 -521.9 L -1027.5 -520.5 L -1027.5 -536.5 L -1024.5 -537.5 L -1004.6 -537.4 L -970.8 -530.7 L -972.8 -527.5 L -996.9 -521.9 Z M 3971.2 61.7 L 3977.4 55.9 L 3994 61 L 4001.6 61.9 L 4004.6 66.5 L 4008.2 67.2 L 4008.3 69.3 L 4019.8 74.9 L 4043.7 73.5 L 4039.1 81.9 L 4013.5 85.9 L 3981.7 99.5 L 3968.7 94.7 L 3973.8 83.7 L 3948.2 76.8 L 3952.4 72.3 L 3974.8 64.6 L 3971.2 61.7 Z" />
<path class="neighbor" d="M 1338.4 511 L 1349.4 509.1 L 1364.9 509.8 L 1365.6 515.9 L 1340.1 519.7 L 1338.4 511 Z M 1366.3 505.1 L 1384.8 515.7 L 1380.8 532.3 L 1376.5 529.3 L 1376.8 517.1 L 1366.3 507.8 L 1366.3 505.1 Z M 1356.9 548 L 1364 548.9 L 1372.2 568.4 L 1372.3 582 L 1366.5 583.1 L 1360.6 569.6 L 1351.8 562.8 L 1356.9 548 Z" />
<path class="neighbor" d="M 1621.9 1109.1 L 1617.5 1111.9 L 1612.9 1098.1 L 1606.4 1090.7 L 1598.7 1098.8 L 1553 1098.3 L 1553.3 1112.9 L 1567 1115.3 L 1566.2 1124.3 L 1561.6 1121.9 L 1548.4 1125.7 L 1548.3 1142.8 L 1558.6 1151.3 L 1562.3 1164.7 L 1561.8 1174.9 L 1551.2 1239.1 L 1539.5 1226.6 L 1532.5 1226.1 L 1547.6 1202.2 L 1529.7 1191.3 L 1515.6 1193.3 L 1507.2 1189.2 L 1494.3 1195.4 L 1476.8 1192.5 L 1463 1167.9 L 1452.2 1161.9 L 1444.7 1150.8 L 1429.1 1139.8 L 1422.9 1142 L 1412.9 1136.4 L 1401.4 1128.7 L 1394.7 1132.4 L 1374.8 1129.1 L 1369.1 1119.1 L 1364.8 1119.4 L 1341.3 1106.1 L 1338.2 1098.8 L 1346.9 1097 L 1345.9 1085.3 L 1351.4 1076.8 L 1363 1075.3 L 1372.8 1060.5 L 1381.8 1048.3 L 1373.2 1042.7 L 1377.6 1029.1 L 1372.3 1007.7 L 1377.3 1001.5 L 1373.6 981.7 L 1364.2 969.2 L 1367.2 957.8 L 1374.7 959.5 L 1379.1 952.6 L 1373.7 938.8 L 1376.5 935.3 L 1388.6 936.1 L 1406.2 919.7 L 1415.8 917.3 L 1416.1 909.5 L 1420.4 889.7 L 1433.8 878.8 L 1448.6 878.4 L 1450.4 873.5 L 1468.8 875.5 L 1487.2 863.6 L 1496.3 858.4 L 1507.7 847.1 L 1516 848.6 L 1522.1 854.7 L 1517.6 862.6 L 1502.5 866.5 L 1496.6 878.2 L 1487.5 885 L 1480.7 893.7 L 1477.8 910.4 L 1471.3 924.1 L 1483.4 925.6 L 1486.4 936.4 L 1491.6 941.6 L 1493.4 951 L 1490.7 959.7 L 1491.5 964.5 L 1497.3 966.5 L 1502.8 974.7 L 1532.9 972.4 L 1546.6 975.4 L 1563 995.6 L 1572.5 993 L 1589.4 994.3 L 1602.7 991.6 L 1611 995.7 L 1606.8 1008.3 L 1601.6 1016.1 L 1599.7 1032.9 L 1604.4 1048.5 L 1611.1 1055.5 L 1611.9 1060.7 L 1600 1072.4 L 1608.5 1077.5 L 1614.8 1085.7 L 1621.9 1109.1 Z" />
<path class="neighbor" d="M 1376.5 935.3 L 1373.7 938.8 L 1379.1 952.6 L 1374.7 959.5 L 1367.2 957.8 L 1364.2 969.2 L 1356.3 962.5 L 1351.3 949.8 L 1357.1 943.6 L 1351.2 942 L 1346.8 934.2 L 1335.1 927.7 L 1324.9 929.2 L 1320.1 937.4 L 1310.7 943.2 L 1305.6 944.1 L 1303.3 948.9 L 1314.5 961.6 L 1308.1 964.6 L 1304.7 968.1 L 1293.8 969.3 L 1289.7 955.3 L 1286.7 959.3 L 1279 957.9 L 1274.2 948.5 L 1264.6 946.9 L 1258.5 944.2 L 1248.5 944.2 L 1247.8 949.3 L 1245.1 945.8 L 1246.3 941.1 L 1248.3 936.4 L 1247.4 932.1 L 1250.9 929.4 L 1246 925.9 L 1245.8 916.5 L 1254.9 914.4 L 1263.3 922.8 L 1262.8 927.7 L 1272.2 928.8 L 1274.4 926.9 L 1280.8 932.6 L 1292.4 930.9 L 1302.3 925 L 1316.5 920.3 L 1324.5 913.3 L 1337.5 914.7 L 1336.6 917 L 1349.6 917.8 L 1360.1 921.8 L 1367.7 928.9 L 1376.5 935.3 Z" />
<path class="neighbor" d="M 1254.9 914.4 L 1245.8 916.5 L 1246 925.9 L 1250.9 929.4 L 1247.4 932.1 L 1248.3 936.4 L 1246.3 941.1 L 1245.1 945.8 L 1232.4 940.6 L 1227.6 935.7 L 1230.3 931.6 L 1229.5 926.4 L 1223 920.8 L 1213.8 916.2 L 1205.7 913.2 L 1204.2 906.4 L 1198 902.2 L 1199.5 909 L 1194.8 914.6 L 1189.5 908.1 L 1182 905.8 L 1178.8 901.1 L 1178.9 893.9 L 1182 886.5 L 1175.4 883.2 L 1180.7 878.7 L 1184.3 875.7 L 1199.7 881.9 L 1205.1 878.9 L 1212.5 880.8 L 1216.4 885.6 L 1223.3 887.2 L 1228.9 882.2 L 1234.9 895 L 1243.9 904.4 L 1254.9 914.4 Z" />
<path class="neighbor" d="M 1228.9 882.2 L 1223.3 887.2 L 1216.4 885.6 L 1212.5 880.8 L 1205.1 878.9 L 1199.7 881.9 L 1184.3 875.7 L 1180.7 878.7 L 1172.6 871.3 L 1161.7 861.9 L 1156.5 854 L 1146.7 846.6 L 1134.9 836.1 L 1137.5 832.4 L 1141.4 836 L 1143.2 834.3 L 1150.5 833.3 L 1153.4 828 L 1156.8 827.8 L 1156.3 816.3 L 1161.8 815.7 L 1166.7 815.9 L 1171.8 809.6 L 1178.7 814.4 L 1181.1 811.5 L 1185.4 808.7 L 1193.6 802.2 L 1194 797.4 L 1196.2 797.6 L 1199.2 792 L 1201.7 791.3 L 1205.6 794.9 L 1210.3 796 L 1215.5 793 L 1221.4 793 L 1229.6 789.9 L 1232.8 786.7 L 1240.8 787.2 L 1238.8 789.5 L 1237.6 794.7 L 1240 803.3 L 1234.6 811.2 L 1232.1 820.7 L 1231.3 831 L 1232.6 837 L 1233.2 847.6 L 1229.6 849.9 L 1227.4 859.9 L 1229 866.1 L 1224.2 872 L 1225.3 878.4 L 1228.9 882.2 Z" />
<path class="neighbor" d="M 1240.8 787.2 L 1232.8 786.7 L 1229.6 789.9 L 1221.4 793 L 1215.5 793 L 1210.3 796 L 1205.6 794.9 L 1201.7 791.3 L 1199.2 792 L 1196.2 797.6 L 1194 797.4 L 1193.6 802.2 L 1185.4 808.7 L 1181.1 811.5 L 1178.7 814.4 L 1171.8 809.6 L 1166.7 815.9 L 1161.8 815.7 L 1156.3 816.3 L 1156.8 827.8 L 1153.4 828 L 1150.5 833.3 L 1143.2 834.3 L 1139.1 827 L 1132 824.9 L 1133.7 815.6 L 1130.5 813 L 1125.6 811.4 L 1115.4 814.2 L 1114.5 811 L 1107.4 807.2 L 1102.4 802.6 L 1095.5 800.6 L 1100.3 794.7 L 1098.5 790.1 L 1100.1 785.6 L 1111.2 779 L 1121.9 770.1 L 1124.3 771 L 1129.5 766.9 L 1136.2 766.5 L 1138.3 768.4 L 1142 767.3 L 1152.9 769.4 L 1163.7 768.8 L 1171.2 766.2 L 1174 763.6 L 1181.4 764.8 L 1187 766.4 L 1193.2 765.8 L 1197.8 763.8 L 1208.5 767 L 1212.2 767.6 L 1219.4 771.9 L 1226.2 777.2 L 1234.7 780.8 L 1240.8 787.2 Z" />
<path class="neighbor" d="M 1095.5 800.6 L 1102.4 802.6 L 1107.4 807.2 L 1114.5 811 L 1115.4 814.2 L 1125.6 811.4 L 1130.5 813 L 1133.7 815.6 L 1132 824.9 L 1129.4 830.5 L 1115.9 830.1 L 1107.4 827.9 L 1097.7 823.2 L 1084.7 821.8 L 1078.1 816.7 L 1078.8 813.3 L 1086.8 807.4 L 1091.2 804.8 L 1090 802 L 1095.5 800.6 Z" />
<path class="neighbor" d="M 1028.2 797.9 L 1028.7 791.1 L 1031.5 785.6 L 1028.1 781.2 L 1039.4 762.1 L 1069.5 762.1 L 1070.1 754.1 L 1066.3 752.7 L 1063.7 747.6 L 1055 742.2 L 1046.3 734.4 L 1056.9 734.3 L 1056.9 721.1 L 1078.7 721.1 L 1100.4 721.3 L 1100.2 739.9 L 1098.4 766.3 L 1105.4 766.3 L 1113 770.6 L 1115 767.1 L 1121.9 770.1 L 1111.2 779 L 1100.1 785.6 L 1098.5 790.1 L 1100.3 794.7 L 1095.5 800.6 L 1090 802 L 1091.2 804.8 L 1086.8 807.4 L 1078.8 813.3 L 1078.1 816.7 L 1066.1 812.6 L 1051.5 812.2 L 1040.8 807.6 L 1028.2 797.9 Z" />
<path class="neighbor" d="M 1100.4 721.3 L 1100.2 717.9 L 1103.1 716.8 L 1107.3 719.6 L 1115.7 705.4 L 1120.1 705.1 L 1120.2 708.6 L 1124.7 708.7 L 1124.3 715.1 L 1120.5 725.2 L 1122.5 728.8 L 1120.1 737.2 L 1121.6 739.4 L 1118.9 751.3 L 1114.3 757.5 L 1110 758.2 L 1105.4 766.3 L 1098.4 766.3 L 1100.2 739.9 L 1100.4 721.3 Z" />
<path class="neighbor" d="M 1765.8 1016.6 L 1768.9 1023.2 L 1760.3 1032.2 L 1734.1 1040.9 L 1717.3 1044.6 L 1710.5 1050.1 L 1691.9 1044.3 L 1674.5 1041.3 L 1670.1 1043.4 L 1680.6 1049.5 L 1679.7 1065.2 L 1682.9 1079.9 L 1702.8 1081.9 L 1704 1086.9 L 1687.3 1093.5 L 1684.6 1103.5 L 1674.9 1107.3 L 1657.5 1112.8 L 1653 1119.9 L 1634.8 1121.4 L 1621.9 1109.1 L 1614.8 1085.7 L 1608.5 1077.5 L 1600 1072.4 L 1611.9 1060.7 L 1611.1 1055.5 L 1604.4 1048.5 L 1599.7 1032.9 L 1601.6 1016.1 L 1606.8 1008.3 L 1611 995.7 L 1602.7 991.6 L 1589.4 994.3 L 1572.5 993 L 1563 995.6 L 1546.6 975.4 L 1532.9 972.4 L 1502.8 974.7 L 1497.3 966.5 L 1491.5 964.5 L 1490.7 959.7 L 1493.4 951 L 1491.6 941.6 L 1486.4 936.4 L 1483.4 925.6 L 1471.3 924.1 L 1477.8 910.4 L 1480.7 893.7 L 1487.5 885 L 1496.6 878.2 L 1502.5 866.5 L 1517.6 862.6 L 1516.9 868.1 L 1503.1 870.9 L 1510.8 881.5 L 1510.5 893.8 L 1500.2 907.4 L 1509 925.9 L 1519.1 924.4 L 1524.4 907.5 L 1517.1 899.2 L 1515.9 881.5 L 1545.1 872 L 1541.9 861 L 1550.1 853.6 L 1558.5 870 L 1574.9 870.4 L 1590.1 883.5 L 1591 891.2 L 1612.1 891.4 L 1637.1 889 L 1650.5 899.5 L 1668.4 902.4 L 1681.5 895.1 L 1681.8 889.2 L 1710.8 887.8 L 1738.9 887.5 L 1719 894.4 L 1727 905.4 L 1745.7 907.2 L 1763.5 918.7 L 1767.2 937.5 L 1779.4 936.9 L 1788.6 942.5 L 1770 956.2 L 1768 964.8 L 1776 973.4 L 1770.2 977.8 L 1755.8 981.6 L 1756.3 992.4 L 1749.9 998.9 L 1765.8 1016.6 Z" />
<path class="neighbor" d="M 1371.5 705.4 L 1387.2 707.5 L 1399.7 713.1 L 1403.5 719.5 L 1387.1 719.9 L 1380 723.9 L 1366.9 720.1 L 1353.5 711.6 L 1356.3 706.2 L 1366.1 704.6 L 1371.5 705.4 Z" />
<path class="neighbor" d="M 1261.4 595.3 L 1281.6 597 L 1300 597.3 L 1322 605.2 L 1331.4 613.8 L 1353.2 611.2 L 1361.5 616.7 L 1381.4 631.2 L 1396 641.7 L 1403.7 641.4 L 1417.6 646.2 L 1415.9 652.8 L 1433.2 653.8 L 1450.9 663.3 L 1448.1 668.8 L 1432.5 671.8 L 1416.8 673 L 1400.6 671.1 L 1367.1 673.4 L 1382.8 660.3 L 1373.3 654.2 L 1358.2 652.7 L 1350.1 645.9 L 1344.5 632.6 L 1331.3 633.5 L 1309.4 627.2 L 1302.4 622.3 L 1271.9 618.7 L 1263.7 614.1 L 1272.5 608.3 L 1249.5 607.1 L 1232.7 619.2 L 1223 619.6 L 1219.6 625.3 L 1208 627.8 L 1198 625.6 L 1210.4 618.4 L 1215.5 609.9 L 1226.1 604.7 L 1238 600.1 L 1255.7 597.9 L 1261.4 595.3 Z" />

<path class="country" d="M 445 376.4 L 471.6 374.6 L 501.4 372.1 L 499.2 376.7 L 534.5 388.1 L 588 404.6 L 634.5 404.4 L 653.1 404.4 L 653.2 394.7 L 693.7 394.7 L 702.3 403 L 714.2 410.4 L 728.2 420.7 L 735.9 433 L 741.8 445.8 L 753.9 452.9 L 773.3 459.9 L 788.1 441.4 L 807.2 441 L 823.7 450.3 L 835.5 466.3 L 843.6 480.1 L 857.4 493.4 L 862.5 509.8 L 869.1 520.8 L 887.4 528.1 L 904 533.2 L 913.1 532.5 L 904 553.1 L 899.9 570 L 898.2 601.3 L 896 612.8 L 900 625.5 L 907.3 637 L 912 655.1 L 927.5 672.6 L 933 685.9 L 942.1 697.5 L 967 703.7 L 976.7 713.5 L 997.2 706.9 L 1015.1 704.6 L 1032.6 700.4 L 1047.4 696.3 L 1062.3 686.8 L 1067.8 673.1 L 1069.8 653.4 L 1073.8 646.6 L 1089.7 640.5 L 1114.4 635 L 1135.2 635.8 L 1149.4 633.9 L 1155 638.8 L 1154.2 650.1 L 1141.6 664 L 1136.1 678.3 L 1140.4 682.4 L 1136.9 692.5 L 1131 710.8 L 1125.1 704.8 L 1120.1 705.1 L 1115.7 705.4 L 1107.3 719.6 L 1103.1 716.8 L 1100.2 717.9 L 1100.4 721.3 L 1078.7 721.1 L 1056.9 721.1 L 1056.9 734.3 L 1046.3 734.4 L 1055 742.2 L 1063.7 747.6 L 1066.3 752.7 L 1070.1 754.1 L 1069.5 762.1 L 1039.4 762.1 L 1028.1 781.2 L 1031.5 785.6 L 1028.7 791.1 L 1028.2 797.9 L 1001.7 772.7 L 989.6 765.1 L 970.5 759 L 957.4 760.7 L 938.6 769.5 L 926.8 771.8 L 910.2 765.6 L 892.7 761.2 L 870.8 750.4 L 853.2 747.2 L 826.7 736.3 L 807.1 725.1 L 801.2 718.8 L 788.1 717.4 L 764.1 710 L 754.4 699.3 L 729.2 686 L 717.5 671.3 L 711.9 659.8 L 719.7 657.6 L 717.3 650.9 L 722.7 644.8 L 722.8 636.7 L 714.9 626.2 L 712.8 616.9 L 704.9 605 L 684.3 581.8 L 660.8 563.5 L 649.4 548.9 L 629.3 539.3 L 625 533.6 L 628.5 519.1 L 616.6 513.7 L 602.8 502.3 L 596.9 485.9 L 584.3 484 L 570.7 471.7 L 559.7 460.3 L 558.7 453 L 546.1 435.3 L 537.8 417.4 L 538.2 408.4 L 521.3 399.1 L 513.4 400.1 L 500.1 393.7 L 496.3 403.2 L 500.2 414.4 L 502.5 432 L 510.5 441.7 L 527.9 457.8 L 531.7 463.3 L 535.3 465 L 538.4 473 L 542.6 472.7 L 547.3 487.8 L 554.4 493.8 L 559.4 502 L 574.1 514 L 581.8 535.8 L 588.8 546 L 595.3 557 L 596.6 569.3 L 607.9 570.1 L 617.3 580.8 L 625.8 591.2 L 625.2 595.4 L 615.3 604 L 611.2 603.9 L 605 589.7 L 589.7 576.3 L 572.8 565 L 560.8 559 L 561.6 541.9 L 558.1 529.2 L 546.9 521.9 L 530.8 511.5 L 527.7 514.5 L 521.8 508.4 L 507.3 502.7 L 493.5 489.1 L 495.2 487.4 L 504.9 488.7 L 513.6 480 L 514.5 469.4 L 496.4 452.7 L 482.7 446.2 L 474.1 431.6 L 465.4 416.2 L 454.5 397.5 L 445 376.4 Z" />


<g class="city"><circle cx="1455.1587965184335" cy="184.7090994992771" r="5" /><text x="1467.1587965184335" y="188.7090994992771">New York</text></g>
<g class="city"><circle cx="866.4414837052834" cy="683.0236583405513" r="5" /><text x="878.4414837052834" y="687.0236583405513">Mexico City</text></g>
<g class="city"><circle cx="419.1388639275556" cy="340.9763584163994" r="5" /><text x="431.1388639275556" y="344.9763584163994">Los Angeles</text></g>
<g class="city"><circle cx="1309.2434536893627" cy="534.4188628442919" r="5" /><text x="1321.2434536893627" y="538.4188628442919">Miami</text></g>
<g class="city"><circle cx="1427.426460900987" cy="202.87423449927604" r="5" /><text x="1439.426460900987" y="206.87423449927604">Philadelphia</text></g>
<g class="city"><circle cx="921.2035739277413" cy="370.8899997552429" r="5" /><text x="933.2035739277413" y="374.8899997552429">Dallas</text></g>
<g class="city"><circle cx="1212.2468039579915" cy="348.2310302245911" r="5" /><text x="1224.2468039579915" y="352.2310302245911">Atlanta</text></g>
<g class="city"><circle cx="955.0749860353242" cy="441.8690902473292" r="5" /><text x="967.0749860353242" y="445.8690902473292">Houston</text></g>
<text class="map-title" x="80" y="105">Mexico Political Study Map</text>
<text class="map-subtitle" x="80" y="145">Capital: Mexico City | Continent: North America</text>
  <text class="footer" x="80" y="1036">Made with Natural Earth. Free vector and raster map data @ naturalearthdata.com.</text>
</svg>
