<?xml version="1.0" encoding="UTF-8"?>
<svg xmlns="http://www.w3.org/2000/svg" width="1600" height="1100" viewBox="0 0 1600 1100" role="img" aria-labelledby="title desc">
  <title id="title">Mexico Physical Study Map</title>
  <desc id="desc">Made with Natural Earth. Free vector and raster map data @ naturalearthdata.com.</desc>
  <defs>
    <linearGradient id="terrain" x1="0" x2="1" y1="0" y2="1">
      <stop offset="0%" stop-color="#6c8c53" />
      <stop offset="42%" stop-color="#d5c487" />
      <stop offset="72%" stop-color="#b88b5f" />
      <stop offset="100%" stop-color="#f1f5ee" />
    </linearGradient>
    <filter id="softShadow" x="-10%" y="-10%" width="120%" height="120%">
      <feDropShadow dx="0" dy="10" stdDeviation="12" flood-color="#0f172a" flood-opacity="0.16" />
    </filter>
    <style>
      .neighbor { fill: #ffffff; stroke: #94a3b8; stroke-width: 1.2; opacity: 0.72; }
      .country { fill: url(#terrain); stroke: #1f2937; stroke-width: 4; filter: url(#softShadow); }
      .admin1 { fill: none; stroke: #64748b; stroke-width: 1.1; stroke-dasharray: 6 7; opacity: 0.75; }
      .river { fill: none; stroke: #1d9bd1; stroke-width: 3; stroke-linecap: round; opacity: 0.88; }
      .lake { fill: #8ed1ea; stroke: #0ea5e9; stroke-width: 1.5; opacity: 0.8; }
      .city circle { fill: #ef4444; stroke: #ffffff; stroke-width: 2; }
      .city text, .terrain-label { fill: #172033; font: 700 24px system-ui, sans-serif; paint-order: stroke; stroke: #ffffff; stroke-width: 5; stroke-linejoin: round; }
      .map-title { fill: #0f172a; font: 800 46px system-ui, sans-serif; }
      .map-subtitle { fill: #475569; font: 600 24px system-ui, sans-serif; }
      .footer { fill: #64748b; font: 500 18px system-ui, sans-serif; }
    </style>
  </defs>
  <rect width="100%" height="100%" fill="#d8edf0" />
  <rect x="40" y="40" width="1520" height="1020" rx="32" fill="#ffffff" opacity="0.54" />
  <path class="neighbor" d="M 311.2 -9.2 L 308.1 -9.2 L 262.7 -32.2 L 246 -42.3 L 203.6 -52 L 190.5 -72.8 L 193.9 -87.2 L 163.9 -97.1 L 159.8 -116 L 131.5 -133 L 131 -145.1 L 131 -145.1 L 144 -156.4 L 143.3 -171.1 L 103.5 -186 L 79.6 -212.8 L 64.9 -229.6 L 43.5 -240.1 L 27.7 -249.7 L 15.3 -261.8 L -8.2 -254.2 L -31 -241.1 L -51.8 -256.5 L -68.2 -266.8 L -91 -273.3 L -114 -274 L -113.9 -407.3 L -113.8 -494.3 L -113.8 -494.3 L -70.1 -488.6 L -33.2 -477.3 L -8.8 -475.2 L 11.8 -485 L 40.1 -492.3 L 74.9 -489.4 L 110 -499.7 L 148.3 -505.5 L 164.4 -495.8 L 181.9 -501.3 L 187.1 -512.3 L 203.3 -509.8 L 242.9 -488.8 L 274.1 -504.7 L 277.3 -486.9 L 306 -490.8 L 314.9 -497.6 L 343.3 -496.3 L 379.1 -486.4 L 433.9 -477.8 L 466.1 -473.9 L 489.1 -475.4 L 520.6 -463.5 L 487.7 -451.9 L 530 -446.9 L 593.2 -449.6 L 613.2 -453.7 L 638.2 -439.7 L 663.6 -451.5 L 639.7 -461.5 L 654.9 -469.5 L 683.4 -470.6 L 702.1 -472.9 L 721 -467.3 L 744.5 -454.6 L 770.7 -456.4 L 812.1 -445.9 L 848.4 -449.6 L 882.6 -449 L 879.9 -463.6 L 900.7 -467.7 L 937 -459.8 L 936.9 -437.6 L 951.8 -456.3 L 970.6 -455.7 L 981.2 -479.2 L 956.1 -493.6 L 928.8 -503.1 L 930.7 -529 L 958.3 -546 L 989.2 -542.2 L 1012.9 -531.9 L 1044.7 -505.5 L 1024 -494 L 1067.5 -489.2 L 1067.4 -465.3 L 1098.7 -483.6 L 1126.7 -468.6 L 1119.7 -451.2 L 1142.4 -435.4 L 1166.8 -452.3 L 1183.9 -472.5 L 1185.2 -498.2 L 1218.5 -496.4 L 1253.1 -493 L 1284.5 -481.4 L 1286 -469.7 L 1268.5 -457.3 L 1285 -444.7 L 1282.1 -433.3 L 1236.2 -417 L 1203.6 -413.3 L 1179.4 -420.4 L 1172.4 -408.6 L 1149.9 -388.9 L 1143 -378.6 L 1115.9 -362.8 L 1082.3 -361.2 L 1063.8 -351.3 L 1062.3 -336.1 L 1035.1 -333.2 L 1006.4 -314.2 L 981 -287.8 L 971.9 -269.4 L 970.6 -242.2 L 1005 -238.3 L 1015.6 -216.3 L 1026.5 -198.6 L 1059.3 -203.2 L 1102.8 -193.1 L 1126.2 -184.2 L 1143 -173.1 L 1172.3 -166.6 L 1197.2 -156.8 L 1235.8 -155.4 L 1261.3 -153.2 L 1257.5 -132.9 L 1264.8 -109.3 L 1281.7 -83.1 L 1316.6 -60.9 L 1334.6 -68.5 L 1347.3 -92.6 L 1335 -129.6 L 1318.5 -141.9 L 1356 -152.9 L 1382.6 -169.3 L 1395.5 -185.6 L 1393.6 -201.3 L 1377.7 -221.2 L 1349.3 -238.8 L 1376.9 -263.3 L 1366.7 -284.5 L 1358.9 -321.1 L 1375.2 -326.5 L 1415.3 -320.2 L 1439.4 -317.9 L 1458.8 -324 L 1480.6 -316.1 L 1509.5 -302.5 L 1516.6 -293.4 L 1558.3 -291.7 L 1557.6 -272 L 1565.4 -242.4 L 1586.8 -238.7 L 1603.8 -224.9 L 1637.7 -237.9 L 1660.1 -263.8 L 1675.6 -274.7 L 1693.8 -253.7 L 1724.3 -223.9 L 1750.2 -195.8 L 1740.8 -181.1 L 1772 -167.9 L 1793 -154.5 L 1830.4 -148.4 L 1845.4 -140.9 L 1854.7 -121.1 L 1872.9 -118 L 1882.3 -109.2 L 1884 -82.9 L 1867 -74.1 L 1850.2 -65.8 L 1811.6 -57.5 L 1782.2 -38.3 L 1742.6 -34.5 L 1692.5 -39.4 L 1657.3 -39.6 L 1633.1 -38 L 1613.5 -21.2 L 1583.6 -10.8 L 1549.8 20.2 L 1522.9 41.8 L 1542.8 38 L 1580.4 7.2 L 1629.5 -12.3 L 1664.5 -14.6 L 1685.3 -3.1 L 1663.1 12.6 L 1670.6 37.8 L 1678.2 55.5 L 1708.6 67.2 L 1747.3 63.8 L 1770.8 37.5 L 1772.4 54.5 L 1787.6 63 L 1758.6 78.3 L 1706.7 92.2 L 1683.5 101.7 L 1657.3 118.6 L 1639.5 116.9 L 1638.6 97 L 1679.3 77.7 L 1641.8 78.4 L 1615.8 81.3 L 1600.5 68 L 1600.5 36.1 L 1590.1 29.4 L 1574.4 33.3 L 1566.6 27.2 L 1548.7 44.9 L 1541.6 63.1 L 1533.3 73.7 L 1523.3 77.4 L 1515.8 78.5 L 1513.5 84.3 L 1470.3 84.3 L 1434.8 84.5 L 1424.2 88.8 L 1399.4 105.7 L 1396.5 107.5 L 1389 116.6 L 1367.5 116.6 L 1344.5 116.7 L 1333.9 120.4 L 1337.7 125 L 1339.8 132.2 L 1339.4 134.5 L 1308.7 146.2 L 1284.6 149.9 L 1257.4 162.4 L 1251.5 162.4 L 1243.6 158.7 L 1241 155.3 L 1241.5 152.9 L 1246.6 144.7 L 1257.6 131.8 L 1264.5 118 L 1259.8 97.6 L 1254.8 76.4 L 1230.4 65.4 L 1233.3 61.2 L 1229.8 58.3 L 1223.4 58.3 L 1218.7 54.6 L 1217.5 49.1 L 1213 51.5 L 1206.7 50.8 L 1208.1 48.5 L 1202.6 46.2 L 1200.3 40 L 1182.2 32.5 L 1163.2 24.7 L 1140.3 15.7 L 1118.3 7.2 L 1097.4 13.8 L 1089.7 14 L 1060.9 7.9 L 1041.9 11 L 1019.2 3.7 L 995.3 0 L 978.9 -1.5 L 971.7 -5.4 L 967.5 -18.3 L 959.6 -18.2 L 959.5 -9.2 L 911 -9.2 L 830.9 -9.2 L 751.3 -9.2 L 681 -9.2 L 610.8 -9.2 L 541.7 -9.2 L 470.3 -9.2 L 447.3 -9.2 L 377.7 -9.2 L 311.2 -9.2 Z M 1221 -324.2 L 1238.4 -335 L 1270.6 -334.8 L 1270.1 -330.3 L 1242.7 -317.4 L 1226.1 -317.9 L 1221 -324.2 Z M 1319.8 -566.6 L 1294 -579.1 L 1295 -587.5 L 1306.3 -589 L 1359.9 -586.5 L 1400.3 -573.7 L 1402.3 -567.2 L 1377.4 -567.9 L 1352.2 -568.4 L 1326.6 -565.2 L 1319.8 -566.6 Z M 1307.2 -315.6 L 1316.2 -322.7 L 1325.8 -322.2 L 1331.7 -317.4 L 1322.6 -305 L 1312.2 -307 L 1306.1 -314 L 1307.2 -315.6 Z M 995.7 -617.6 L 983 -608.5 L 949 -610.3 L 920.6 -616.4 L 933.1 -626.9 L 966.7 -633.3 L 987.2 -625 L 995.7 -617.6 Z M 990.4 -677.1 L 979.7 -676.4 L 935.8 -677.9 L 929.6 -684.5 L 976.8 -684.1 L 993.2 -679.8 L 990.4 -677.1 Z M 922.1 -706.3 L 950.1 -698.2 L 943.8 -689.7 L 909.1 -684.9 L 890.1 -690.3 L 880 -699.1 L 878.2 -708.8 L 908.5 -707.8 L 922.1 -706.3 Z M 1123.7 -603.9 L 1085.8 -606.8 L 1023.6 -614.3 L 1015.5 -627.2 L 1012.7 -638.8 L 989.1 -649 L 940.7 -651.9 L 913.6 -659.1 L 922.4 -668.7 L 970.6 -667.2 L 996.6 -659.7 L 1042.7 -659.8 L 1063 -652 L 1057.6 -643.3 L 1084.5 -638 L 1099.4 -632.4 L 1131 -631.4 L 1165.1 -629.4 L 1202.4 -634.5 L 1250.1 -636.5 L 1288.1 -634.8 L 1313.2 -626 L 1318.4 -616.3 L 1303.8 -610.1 L 1268.9 -605 L 1238.9 -607.9 L 1171.7 -604.3 L 1123.7 -603.9 Z M 582.3 -691.9 L 615.3 -688.3 L 607.6 -681.3 L 563.9 -674.5 L 529.2 -682.1 L 548.1 -689.6 L 582.3 -691.9 Z M 589.4 -707.2 L 619.8 -702.5 L 591.3 -697.9 L 552.4 -697.9 L 552.8 -701.3 L 576.8 -708.3 L 589.4 -707.2 Z M 1886 -63.4 L 1873.5 -48.7 L 1858 -28.2 L 1873.3 -36.1 L 1889 -31.1 L 1880.8 -22.9 L 1901.6 -16.5 L 1912.4 -22.2 L 1935.7 -15 L 1928.5 2.1 L 1944.9 -1.9 L 1947.9 10.6 L 1955.1 25.1 L 1945.3 45.7 L 1934.7 46.6 L 1919.3 42.2 L 1924.4 23 L 1917.8 20 L 1890.7 40.4 L 1876.7 39.5 L 1893.2 28.5 L 1870.7 22.9 L 1845.6 24.3 L 1800.1 23.5 L 1796.5 16.6 L 1811.1 8.4 L 1800.9 2 L 1820.6 -12.1 L 1844.8 -49.4 L 1859.3 -62.7 L 1879.6 -70.8 L 1890.5 -69.8 L 1886 -63.4 Z M 1223.6 -386.5 L 1249.3 -378.4 L 1276.1 -371.1 L 1278.2 -360 L 1295.4 -361.8 L 1312.1 -354.1 L 1291.3 -346.7 L 1254.9 -352.3 L 1241.7 -362.9 L 1218.5 -350.4 L 1185.2 -338.3 L 1177.1 -352 L 1145.4 -349.7 L 1165.8 -361.3 L 1168.7 -379.7 L 1176.7 -401.2 L 1193.7 -399.3 L 1198 -389 L 1210 -392.6 L 1223.6 -386.5 Z M 1343.3 -556.1 L 1365.5 -565.4 L 1417.4 -553.5 L 1449.7 -542.4 L 1452.7 -532.2 L 1496.2 -537.5 L 1520.6 -522.5 L 1577.2 -513.3 L 1597.6 -503.9 L 1619.7 -481.9 L 1576.7 -471 L 1631.9 -455.7 L 1669.1 -450.6 L 1702.7 -429.1 L 1739.6 -427.5 L 1732.3 -411.1 L 1691.2 -383.9 L 1662.4 -393.9 L 1625.5 -416.4 L 1595.2 -413.5 L 1592.3 -400.1 L 1616.9 -386.4 L 1648.7 -375.7 L 1658.3 -369.4 L 1673.6 -346.3 L 1665.5 -329.4 L 1636 -335.8 L 1577.2 -354.5 L 1610.3 -334.3 L 1634.7 -320.2 L 1638.5 -312 L 1575 -321.4 L 1524.8 -335 L 1496.4 -346.4 L 1504.6 -353 L 1469.6 -365 L 1435.5 -376.4 L 1435.9 -369.6 L 1368.2 -365.9 L 1348.4 -373.9 L 1363.8 -391.1 L 1407.8 -391.6 L 1456 -394.5 L 1448.2 -402.9 L 1456.3 -414.6 L 1486.6 -437.4 L 1480.2 -447.8 L 1471.2 -455.8 L 1435.3 -467.1 L 1387.9 -475.1 L 1402.9 -481 L 1378.1 -495.6 L 1357.4 -496.9 L 1339 -504.9 L 1326.4 -498 L 1284 -495 L 1198.7 -500.2 L 1149.2 -507.1 L 1111.2 -510.6 L 1091.7 -518.8 L 1116.2 -529.5 L 1083 -529.6 L 1075.5 -553.3 L 1093.5 -574.3 L 1117.6 -583.9 L 1178.1 -590.1 L 1160.9 -574.9 L 1179.3 -560.3 L 1200.9 -579.2 L 1260.3 -588.8 L 1300.5 -564.6 L 1297 -549.3 L 1343.3 -556.1 Z M 974.9 -597.8 L 1023.7 -597 L 1068.4 -591.3 L 1033.4 -570.5 L 1005.5 -565.9 L 980.4 -548.4 L 953.6 -549.3 L 939 -569.9 L 939.4 -581.5 L 951.6 -591.5 L 974.9 -597.8 Z M 310.9 -644.2 L 310.9 -644.2 L 350.6 -661.8 L 398.7 -676.9 L 434.6 -676.6 L 466.8 -680 L 463.5 -662.1 L 445.5 -653.9 L 423.6 -652.8 L 380.1 -642.8 L 342.6 -639.2 L 310.9 -644.2 Z M 80.1 -127.2 L 102.5 -129.1 L 95.5 -102.5 L 115.9 -83.7 L 106.6 -83.7 L 92.5 -94.4 L 83.8 -105.2 L 72 -112.5 L 67.7 -122.8 L 69.1 -130.3 L 80.1 -127.2 Z M 717.5 -718.8 L 763.5 -715.7 L 826.8 -707.1 L 844.7 -696 L 853.8 -686.2 L 815.6 -688.8 L 777 -696.4 L 724.9 -697.3 L 747.5 -704.2 L 719.2 -709.9 L 717.5 -718.8 Z M 295.5 2.3 L 283.7 5.6 L 245.3 -5.1 L 238.3 -13.4 L 217.3 -21.6 L 213.1 -28.3 L 189 -32.5 L 180 -45.2 L 182 -50.6 L 206.6 -45.5 L 220.9 -42 L 242.9 -39.5 L 250.9 -31.4 L 262.5 -20.3 L 285.9 -10.6 L 295.5 2.3 Z M 341.7 -605.2 L 375.2 -600.3 L 435 -599 L 457.7 -592.2 L 482.9 -582.4 L 453.4 -576.5 L 396 -560 L 367 -543.6 L 367 -533.4 L 305.3 -522.1 L 293 -532.4 L 238.9 -544.8 L 248.9 -554.7 L 265.1 -571.8 L 285.5 -587.2 L 262.6 -601.5 L 341.7 -605.2 Z M 663 -637.9 L 683.9 -641.8 L 708.4 -640.8 L 712.5 -629.3 L 698.3 -618.2 L 619 -614.6 L 559.9 -604.4 L 524.3 -603.9 L 521.3 -611.5 L 569.9 -621.9 L 464.1 -619.1 L 431.4 -623.3 L 463.3 -646.2 L 485.4 -652.7 L 551.3 -644.8 L 592.9 -631 L 633.8 -629.2 L 600.3 -651.6 L 621.7 -660.1 L 645.9 -657.4 L 653.8 -646.2 L 663 -637.9 Z M 693.4 -573 L 719.6 -563.6 L 734.3 -540.8 L 741.6 -524.3 L 780.9 -512.7 L 823.2 -501.6 L 820.6 -491.3 L 782.2 -489.4 L 797.1 -480.4 L 789.2 -471.8 L 746.8 -475.5 L 706.6 -481.8 L 679.3 -480.4 L 635.4 -472.4 L 576 -468.9 L 534.3 -466.7 L 521.6 -477.8 L 489.7 -484.1 L 468.9 -481.5 L 440 -500.1 L 455.6 -502.6 L 491.8 -506.6 L 524.8 -505.5 L 555.3 -509.6 L 510.1 -515 L 460 -513.2 L 426.8 -513.7 L 414.4 -522.3 L 468.8 -531.7 L 432.6 -531.3 L 391.7 -537.5 L 411.4 -555 L 427.7 -564.4 L 490.4 -578.6 L 514.3 -574.1 L 502.6 -563.1 L 554.8 -570.2 L 587.3 -558.4 L 613.8 -570.3 L 635.2 -562.7 L 654.4 -539.7 L 666.1 -549.4 L 649.5 -573.4 L 670.1 -576.8 L 693.4 -573 Z M 835.9 -564.4 L 810.1 -579.7 L 837.8 -591 L 865.7 -586.1 L 907.5 -589.1 L 913.6 -582.3 L 891.7 -571 L 927.2 -561 L 923 -539.9 L 884.6 -530.8 L 862 -532.8 L 845.8 -541.7 L 787.6 -559.8 L 788.1 -567.3 L 835.9 -564.4 Z M 691.6 -585.3 L 722.9 -586.2 L 740.7 -581.1 L 720.1 -565.6 L 683.6 -582 L 691.6 -585.3 Z M 881.3 -658.4 L 899.2 -647.5 L 899.9 -635.5 L 889.2 -618.1 L 850.6 -615.7 L 825.4 -619.4 L 825.9 -633.1 L 787.5 -631.3 L 786 -649.4 L 811.2 -648.7 L 846.5 -656.7 L 879.5 -655.3 L 881.3 -658.4 Z M 939.4 -749.3 L 955.7 -756.4 L 979.7 -758.1 L 969.4 -763.5 L 1023.9 -764.6 L 1053.8 -752.1 L 1093.2 -747.1 L 1131.6 -742.7 L 1150.1 -727.2 L 1178.4 -719.7 L 1146.2 -712.7 L 1102.9 -695.1 L 1061.5 -693.4 L 1013 -696.4 L 987.8 -705.9 L 988.2 -714.4 L 1006.7 -720.7 L 963.8 -720.5 L 938 -728.3 L 923.2 -738.9 L 939.4 -749.3 Z M 1043.2 -779.6 L 1078 -784 L 1105.3 -784.8 L 1151.3 -788.6 L 1185.7 -797.3 L 1214.8 -796.1 L 1240.1 -789.5 L 1257.9 -802.2 L 1288.8 -805.9 L 1330.8 -808.5 L 1402.4 -809.5 L 1414.8 -807 L 1482.4 -810.9 L 1533.1 -809.4 L 1583.9 -807.9 L 1646.5 -806.1 L 1696.8 -803.1 L 1739.6 -796.8 L 1738.6 -790.5 L 1681.4 -780.3 L 1624.8 -775.6 L 1603.6 -770.4 L 1654.6 -770.5 L 1599.3 -756.3 L 1561.2 -749.6 L 1521.1 -730.5 L 1472.8 -726.6 L 1457.9 -721.9 L 1387 -719.3 L 1419.2 -716.4 L 1403.1 -712.2 L 1422.4 -700.7 L 1400.2 -692.6 L 1364 -686 L 1352.9 -676.8 L 1320.2 -669.8 L 1323.4 -664.5 L 1363.5 -665.5 L 1364 -659.7 L 1301.4 -645.7 L 1240.2 -652.2 L 1171.4 -648.5 L 1136.5 -651.4 L 1092.3 -652.6 L 1089.3 -663.8 L 1132.6 -669.1 L 1121.1 -686 L 1135.4 -687.7 L 1198 -677.6 L 1166.1 -692.6 L 1128.1 -697.1 L 1147 -706.1 L 1188.6 -711.7 L 1195.2 -719.9 L 1162.1 -729 L 1152.2 -741.1 L 1216.2 -740.1 L 1234.7 -737.5 L 1271.3 -746.1 L 1218.5 -748.8 L 1136.6 -747.3 L 1095.2 -755.2 L 1075.7 -764.7 L 1048.3 -771.6 L 1043.2 -779.6 Z M 1426.6 -441.1 L 1411.4 -434.2 L 1385.1 -433 L 1379.3 -444.5 L 1389.2 -457.6 L 1410.7 -460.9 L 1429 -454.4 L 1429.2 -444.4 L 1426.6 -441.1 Z M 933.8 -489.1 L 948.1 -480.1 L 933.5 -471.9 L 901.9 -479 L 882.9 -476.4 L 850.9 -486.9 L 871.5 -494.2 L 887.9 -504.4 L 912.7 -497.7 L 926.8 -493.5 L 933.8 -489.1 Z M 1677.1 -29.6 L 1685.2 -31.6 L 1716 -25.7 L 1740 -15.9 L 1740.6 -11.6 L 1729.2 -11.2 L 1698.9 -18.6 L 1677.1 -29.6 Z M 1688.9 36.8 L 1697.1 48.2 L 1714.1 51.3 L 1735.8 50.7 L 1724.3 60.3 L 1715.6 61.8 L 1685.9 51.9 L 1680.1 44 L 1688.9 36.8 Z" />
<path class="neighbor" d="M 311.2 -9.2 L 377.7 -9.2 L 447.3 -9.2 L 470.3 -9.2 L 541.7 -9.2 L 610.8 -9.2 L 681 -9.2 L 751.3 -9.2 L 830.9 -9.2 L 911 -9.2 L 959.5 -9.2 L 959.6 -18.2 L 967.5 -18.3 L 971.7 -5.4 L 978.9 -1.5 L 995.3 0 L 1019.2 3.7 L 1041.9 11 L 1060.9 7.9 L 1089.7 14 L 1097.4 13.8 L 1118.3 7.2 L 1140.3 15.7 L 1163.2 24.7 L 1182.2 32.5 L 1200.3 40 L 1202.6 46.2 L 1208.1 48.5 L 1206.7 50.8 L 1213 51.5 L 1217.5 49.1 L 1218.7 54.6 L 1223.4 58.3 L 1229.8 58.3 L 1233.3 61.2 L 1230.4 65.4 L 1254.8 76.4 L 1259.8 97.6 L 1264.5 118 L 1257.6 131.8 L 1246.6 144.7 L 1241.5 152.9 L 1241 155.3 L 1243.6 158.7 L 1251.5 162.4 L 1257.4 162.4 L 1284.6 149.9 L 1308.7 146.2 L 1339.4 134.5 L 1339.8 132.2 L 1337.7 125 L 1333.9 120.4 L 1344.5 116.7 L 1367.5 116.6 L 1389 116.6 L 1396.5 107.5 L 1399.4 105.7 L 1424.2 88.8 L 1434.8 84.5 L 1470.3 84.3 L 1513.5 84.3 L 1515.8 78.5 L 1523.3 77.4 L 1533.3 73.7 L 1541.6 63.1 L 1548.7 44.9 L 1566.6 27.2 L 1574.4 33.3 L 1590.1 29.4 L 1600.5 36.1 L 1600.5 68 L 1615.8 81.3 L 1619.8 89 L 1594.8 100.3 L 1570.8 108.4 L 1546 115.3 L 1533.6 129.2 L 1529.7 134.5 L 1529.4 146.9 L 1537.1 159.3 L 1546.9 159.9 L 1544.4 151.4 L 1551.4 156.6 L 1549.6 163.3 L 1533.8 167.1 L 1522.5 166.6 L 1505.2 170.7 L 1495 171.9 L 1481.4 173 L 1461.9 179.8 L 1496.2 175.4 L 1503.2 179.8 L 1470.4 186.9 L 1455.5 186.9 L 1456.2 184 L 1449 190.5 L 1455.9 191.6 L 1450.9 208.4 L 1433.8 226.4 L 1432.1 220.4 L 1427 219.2 L 1419.3 213.4 L 1424.1 226 L 1430 230.1 L 1430.3 239 L 1422.8 248.1 L 1409.6 266.8 L 1407.5 265.9 L 1414.7 249.9 L 1402.8 241 L 1400 221.5 L 1395.5 231.6 L 1400.5 246.5 L 1385 242.8 L 1401.2 250.4 L 1402.2 272.7 L 1408.9 274.3 L 1411.3 282.4 L 1414.6 305.8 L 1399.7 323.2 L 1375.5 330.1 L 1360.1 343.9 L 1348.4 345.4 L 1336.5 354 L 1333.2 361.8 L 1307.5 377 L 1294.3 388.2 L 1283.2 402.1 L 1279.6 418.7 L 1283.8 435 L 1291.6 455 L 1302 471.6 L 1302.1 481.7 L 1313.2 508.9 L 1312.5 524.7 L 1311.5 533.8 L 1305.6 548.1 L 1298.6 551 L 1287.1 548.2 L 1283.4 537.9 L 1274.5 532.5 L 1262.1 512.4 L 1251.2 494.5 L 1247.7 485.3 L 1252.5 469.8 L 1245.9 456.9 L 1227.7 437.3 L 1218.5 433.7 L 1194.9 444.3 L 1190.7 443.2 L 1179.3 432.2 L 1164.6 426.4 L 1138.2 429.4 L 1117.4 426.8 L 1099.5 428.4 L 1089.8 432.1 L 1094.1 438.3 L 1093.7 447.8 L 1098.7 452.4 L 1094.2 455.5 L 1085.5 452 L 1076.7 456.5 L 1059.7 455.8 L 1042.2 443.4 L 1021.8 446.3 L 1004.8 440.9 L 990.2 442.5 L 970.5 448 L 949.2 465.4 L 925.9 475.4 L 913.1 486.6 L 907.7 497.2 L 907.5 513.3 L 908.7 524.6 L 913.1 532.5 L 904 533.2 L 887.4 528.1 L 869.1 520.8 L 862.5 509.8 L 857.4 493.4 L 843.6 480.1 L 835.5 466.3 L 823.7 450.3 L 807.2 441 L 788.1 441.4 L 773.3 459.9 L 753.9 452.9 L 741.8 445.8 L 735.9 433 L 728.2 420.7 L 714.2 410.4 L 702.3 403 L 693.7 394.7 L 653.2 394.7 L 653.1 404.4 L 634.5 404.4 L 588 404.6 L 534.5 388.1 L 499.2 376.7 L 501.4 372.1 L 471.6 374.6 L 445 376.4 L 441.1 364.5 L 425.9 351 L 415 348.2 L 412.4 341.5 L 399.3 340.3 L 390.9 334 L 369.1 331.7 L 363.1 327.9 L 360.3 315 L 337.6 291.5 L 318.1 258.9 L 318.9 253.5 L 308.6 245.8 L 290.4 226.2 L 287.2 207.1 L 274.7 194.3 L 279.9 174.9 L 279 154.8 L 271.6 136.8 L 280.7 114.8 L 283.6 93.5 L 286.4 72.2 L 282.2 40.8 L 274.8 20.8 L 268 9.9 L 270.8 5.4 L 304.7 13.3 L 317.1 35.4 L 322.9 29.2 L 319.2 10 L 311.2 -9.2 Z M -451.4 668.1 L -447.2 670.2 L -443.4 673.3 L -437.5 681.5 L -438 682.8 L -447.2 687.8 L -454.7 691.5 L -458.1 695.4 L -463.9 692 L -463.2 685.5 L -467.1 677 L -465.9 674.4 L -461.9 670.5 L -463.5 665.9 L -462.1 663.8 L -460.4 664.2 L -451.4 668.1 Z M -465.3 652.1 L -467.2 654.9 L -475.1 656.6 L -479.1 651.7 L -481.8 649.8 L -482 648.3 L -479.7 646.3 L -471.4 648.5 L -465.3 652.1 Z M -483.2 642.4 L -483.9 645 L -496.4 644.3 L -494.7 641.4 L -483.2 642.4 Z M -512.8 629.8 L -510.9 631.3 L -504.1 639 L -505.4 640.4 L -507 640.1 L -515.2 639.3 L -518.2 634 L -519.1 633 L -512.8 629.8 Z M -544.2 618.1 L -543.7 623.6 L -546.5 625.9 L -554.4 621.6 L -553.2 619.9 L -549.6 617.6 L -544.2 618.1 Z M -710.6 -275.8 L -692 -273.7 L -689.7 -264.7 L -704.1 -261 L -719.5 -265.4 L -733.7 -271.8 L -710.6 -275.8 Z M -400.5 -219.2 L -384.9 -217.6 L -375 -210.4 L -395.3 -199.2 L -418.7 -190.3 L -430.6 -196.4 L -434.3 -207.3 L -413 -215.7 L -400.5 -219.2 Z M -113.8 -494.3 L -113.8 -494.3 L -113.9 -407.3 L -114 -274 L -91 -273.3 L -68.2 -266.8 L -51.8 -256.5 L -31 -241.1 L -8.2 -254.2 L 15.3 -261.8 L 27.7 -249.7 L 43.5 -240.1 L 64.9 -229.6 L 79.6 -212.8 L 103.5 -186 L 143.3 -171.1 L 144 -156.4 L 131 -145.1 L 131 -145.1 L 131 -145.1 L 118.1 -153.9 L 97.5 -161.4 L 90.8 -181.8 L 60.6 -200.7 L 48 -222.8 L 25.5 -224.4 L -11.7 -224.9 L -39.1 -231.7 L -87.6 -256 L -110 -260.4 L -151 -268.8 L -183.4 -266.8 L -229.4 -277.5 L -257.3 -287.5 L -283.3 -282.6 L -278.5 -266.3 L -291.4 -264.8 L -318.5 -259.9 L -339.1 -252 L -365.1 -247 L -368.4 -260.8 L -357.9 -283.8 L -333 -291 L -339.4 -296.9 L -369.3 -283.8 L -385.3 -268.2 L -419 -251.6 L -401.9 -240.2 L -424 -223.4 L -449.2 -213.6 L -472.6 -206.4 L -478.4 -196.1 L -515 -184 L -522.4 -173 L -549.8 -163 L -565.9 -164.8 L -587.7 -158.2 L -611.5 -150.3 L -631 -142.4 L -671.2 -135.7 L -674.8 -139.7 L -649.2 -150.6 L -626.3 -157.8 L -601.3 -170.7 L -572.3 -173.3 L -560.7 -182.9 L -528.3 -196.9 L -523 -201.6 L -505.7 -209.9 L -501.7 -227.6 L -489.8 -241.5 L -516.8 -234.4 L -524.3 -238.4 L -537 -229.9 L -552.3 -241.8 L -558.6 -233.4 L -567.4 -245 L -590.8 -235.7 L -605.2 -235.7 L -607.2 -249.6 L -603 -258.2 L -618 -266.6 L -648.5 -262.1 L -668.3 -273.1 L -684.3 -278.7 L -684.4 -291.9 L -702.4 -301.9 L -693.4 -315.4 L -674.3 -328.5 L -665.9 -340.5 L -647 -342.2 L -630.9 -338.4 L -612 -349.7 L -595 -347.7 L -577.2 -355 L -581.5 -365.7 L -594.6 -369.9 L -577.3 -378.9 L -591.7 -378.7 L -616.5 -373.6 L -623.7 -368.4 L -642.1 -373.6 L -675.3 -370.9 L -709.6 -376.6 L -719.4 -386 L -749 -399.6 L -716.1 -409.4 L -663.9 -420.8 L -644.6 -420.8 L -647.8 -409.1 L -598.4 -410 L -617.4 -424.5 L -646.2 -433.5 L -662.8 -445.2 L -685.3 -455.2 L -717.5 -462.6 L -704.4 -474.8 L -662.8 -475.6 L -633.3 -486.3 L -627.7 -497.7 L -603.8 -508.8 L -581 -511.5 L -536.6 -521.9 L -515 -520.3 L -479 -532.8 L -443.6 -527.9 L -426.6 -517.3 L -416.2 -521.8 L -376.6 -520.4 L -378 -515 L -342.2 -511.1 L -318.3 -513.4 L -269 -506 L -223.9 -503.8 L -205.9 -500.8 L -174.7 -504.6 L -139.2 -497.5 L -113.8 -494.3 L -113.8 -494.3 Z M -833.8 -355.4 L -819.4 -350.9 L -804.8 -353.3 L -785.8 -347.2 L -762.6 -344 L -764.5 -341.5 L -782.3 -336.5 L -800.1 -341.6 L -809 -345.9 L -829.6 -344.5 L -835.2 -346.6 L -833.8 -355.4 Z" />
<path class="neighbor" d="M 1508.6 676.7 L 1510.7 689.5 L 1508.9 698.5 L 1503.2 702.4 L 1509.2 709.4 L 1508.7 715.8 L 1493.2 711.8 L 1482.1 713.4 L 1467.8 711.7 L 1456.9 716.1 L 1444.3 708.8 L 1446.4 701.3 L 1468 704.5 L 1485.6 706.4 L 1494.1 701.2 L 1483.4 691.1 L 1483.5 682.1 L 1468.8 678.5 L 1474 672 L 1488.3 673 L 1508.6 676.7 Z" />
<path class="neighbor" d="M 1508.7 715.8 L 1509.2 709.4 L 1503.2 702.4 L 1508.9 698.5 L 1510.7 689.5 L 1508.6 676.7 L 1511.6 672.7 L 1529.8 672.8 L 1543.7 678.8 L 1549.9 678.3 L 1554.1 686.6 L 1567 686.1 L 1566.2 693.1 L 1576.6 693.9 L 1588.1 702.5 L 1579.4 712 L 1568.3 707 L 1557.5 707.9 L 1549.8 706.8 L 1545.6 711.1 L 1536.6 712.5 L 1533.1 706.9 L 1525.3 710.2 L 1515.9 726.3 L 1509.9 722.5 L 1508.7 715.8 Z" />
<path class="neighbor" d="M 7373.9 -526.7 L 7403.8 -536.5 L 7403.8 -520.5 L 7378.1 -519.3 L 7373.9 -526.7 Z M 4338.1 51.7 L 4327.4 65.6 L 4304.7 69.5 L 4281.4 93.7 L 4302.7 115.9 L 4300.4 131.7 L 4326 159.2 L 4326 159.2 L 4312 168.7 L 4308 174.6 L 4297.6 173 L 4281.5 158.8 L 4275 158 L 4260.2 152.6 L 4253.1 143 L 4231.2 138.1 L 4217 141.8 L 4212.9 137.4 L 4181 126.2 L 4146.6 122.4 L 4126.8 118.4 L 4123.9 121.2 L 4094 101.4 L 4067.3 92.5 L 4047.1 78.8 L 4064.1 75 L 4083.6 55.4 L 4070.5 46.2 L 4105 36.6 L 4104.4 31.5 L 4083.4 35.3 L 4084.1 24.9 L 4096.2 18.3 L 4118.8 16.6 L 4122.5 8.8 L 4117.3 -4.1 L 4126.8 -16.4 L 4126.6 -23.2 L 4092 -30.9 L 4078.4 -30.6 L 4063.9 -41.6 L 4045.9 -37.9 L 4016.2 -46.1 L 4016.7 -50.7 L 4008.4 -60.9 L 3989.7 -62 L 3987.8 -69.3 L 3993.6 -74 L 3978.6 -87.3 L 3954.4 -85 L 3947.2 -86.2 L 3941.3 -80.9 L 3932.6 -81.8 L 3932.6 -81.8 L 3926.8 -96.8 L 3921.3 -104.6 L 3925.8 -106.8 L 3944.7 -106 L 3953.8 -111.1 L 3947.1 -117.3 L 3931.3 -121.5 L 3932.7 -125.7 L 3923.2 -130 L 3908.5 -145.3 L 3913.5 -151.6 L 3911.2 -162.6 L 3888.3 -168.2 L 3876 -165.4 L 3872.7 -171.2 L 3848.1 -177.1 L 3840.5 -190.9 L 3838.5 -202.3 L 3827.2 -207.6 L 3837.3 -215.1 L 3830.3 -236.9 L 3847 -250.4 L 3843.5 -254.5 L 3843.5 -254.5 L 3870.1 -267.5 L 3845.6 -278.6 L 3845.6 -278.6 L 3895.7 -308.5 L 3917.5 -322 L 3926.3 -334 L 3891.6 -350 L 3901.2 -365.3 L 3880.1 -382.7 L 3895.9 -402.8 L 3868.6 -429.4 L 3890.2 -447.1 L 3854.4 -462.7 L 3857.8 -479.1 L 3876.7 -481.3 L 3916.5 -490.6 L 3916.5 -490.6 L 3940.7 -498.8 L 3979.2 -484.6 L 4043.3 -479.1 L 4131.8 -452.6 L 4149.8 -441.4 L 4151.3 -425.9 L 4125.3 -413.5 L 4087.1 -407.3 L 3982.5 -425.1 L 3965.3 -422.1 L 4003.5 -405 L 4005 -394.1 L 4006.5 -370.2 L 4036.7 -363 L 4055 -357 L 4058 -368.3 L 4043.9 -378.4 L 4058.8 -387.2 L 4115.4 -372.7 L 4135.2 -378.4 L 4119.4 -395.5 L 4174 -418.5 L 4195.6 -417.1 L 4217.5 -408.9 L 4231.1 -425 L 4211.6 -439 L 4223 -453 L 4205.8 -467.5 L 4271.3 -460 L 4284.7 -446.9 L 4255.1 -444 L 4255.2 -431 L 4273.7 -423 L 4309.8 -428 L 4315.6 -443 L 4364.5 -454.1 L 4446.2 -474.2 L 4463.9 -473.1 L 4440.8 -458.9 L 4469.8 -456.4 L 4486.6 -464.4 L 4530.5 -465.1 L 4565.3 -474.8 L 4592 -460.7 L 4618.6 -476.2 L 4594.1 -489.8 L 4606.2 -497.5 L 4675.4 -490.4 L 4707.8 -483.1 L 4792.7 -456.3 L 4808.4 -468.6 L 4784.6 -481 L 4783.9 -485.9 L 4755.7 -488.2 L 4763.4 -499.3 L 4750.9 -517.6 L 4750.1 -525.1 L 4793.4 -546.3 L 4808.7 -567.6 L 4826.2 -572.2 L 4888.2 -566 L 4893 -553 L 4870.8 -534 L 4885.4 -526.5 L 4892.9 -510.2 L 4887.6 -478.1 L 4913.5 -463.7 L 4903.4 -448.1 L 4857.5 -414.8 L 4884.3 -411.4 L 4893.6 -419.8 L 4919.4 -425.8 L 4925.6 -437.4 L 4945.9 -448.5 L 4932.2 -461.9 L 4943.2 -477.3 L 4917.5 -479.2 L 4911.9 -492.3 L 4930.6 -515.8 L 4900.2 -534.9 L 4942.1 -550.7 L 4936.7 -567.3 L 4948.4 -567.9 L 4960.7 -554.9 L 4951.4 -532.3 L 4976.5 -528 L 4965.8 -544.9 L 5005 -554.1 L 5053.6 -555.3 L 5096.9 -542 L 5076.1 -561.5 L 5073.7 -586.4 L 5114.5 -591.2 L 5170.8 -590.1 L 5221.5 -593.2 L 5202.5 -605.4 L 5229.6 -620.8 L 5256.5 -621.5 L 5302.1 -633.1 L 5363.9 -636.2 L 5371.7 -642.6 L 5433.2 -644.8 L 5452.4 -639.5 L 5504.9 -652 L 5548 -651.6 L 5554.4 -661.7 L 5576.8 -671.7 L 5632.1 -681.3 L 5672.2 -673.7 L 5640.4 -667.9 L 5693.4 -664.3 L 5699.7 -652.8 L 5721.1 -658.5 L 5789.6 -658.1 L 5842.4 -646.7 L 5861.2 -637.9 L 5855.4 -625.8 L 5829.5 -618.8 L 5767.9 -605.8 L 5750.3 -598.9 L 5779.4 -595.6 L 5814 -589.7 L 5835.1 -594.1 L 5847 -579.1 L 5857.3 -585.2 L 5894.8 -588.9 L 5969.9 -585 L 5975.6 -574.1 L 6073.5 -570.6 L 6074.9 -588.5 L 6124.6 -584.4 L 6162 -584.5 L 6199.8 -572.2 L 6210.6 -557.2 L 6196.7 -547.4 L 6226.1 -528.9 L 6262.9 -519.4 L 6285.5 -544 L 6323.1 -533.5 L 6363 -539.8 L 6408.4 -532.6 L 6425.6 -539.1 L 6463.9 -535.8 L 6447 -557.6 L 6477.9 -567.7 L 6689.5 -552.5 L 6709.4 -538.6 L 6770.7 -520.7 L 6865.3 -525.2 L 6911.9 -521.3 L 6931.4 -511.6 L 6928.5 -494.5 L 6957.4 -487.8 L 6988.7 -492.6 L 7030.3 -493.2 L 7074.5 -488.6 L 7118.9 -491.2 L 7159.7 -470.4 L 7188.7 -477.9 L 7169.8 -492.9 L 7180.2 -503.3 L 7254.9 -496.7 L 7303.6 -498.1 L 7371 -486.9 L 7403.8 -476.7 L 7403.8 -383.4 L 7403.6 -383.3 L 7373.5 -373 L 7343.1 -374.7 L 7364.3 -362.3 L 7378.2 -343 L 7389 -336.6 L 7391.7 -327 L 7385.7 -320.8 L 7342 -325.9 L 7276.6 -308.2 L 7255.8 -305.5 L 7219.9 -289 L 7185.9 -274.7 L 7177.3 -264 L 7143.8 -280.2 L 7082.8 -261.8 L 7072.1 -270.5 L 7049.6 -260.5 L 7018.3 -263.7 L 7010.7 -248.3 L 6982.6 -225.7 L 6983.5 -216.2 L 7010.1 -210.9 L 7007 -176.8 L 6985.2 -176 L 6975.2 -156.4 L 6985 -146.3 L 6944 -134.3 L 6935.9 -107.6 L 6901 -101.9 L 6893.9 -78.1 L 6860.2 -56.3 L 6851.5 -72.4 L 6841.5 -106.6 L 6828.4 -158.6 L 6839.7 -191.1 L 6859.4 -205.1 L 6860.7 -216 L 6897.1 -221.3 L 6938.9 -250.7 L 6979.2 -274.8 L 7021.3 -293.5 L 7040.1 -326.5 L 7011.7 -324.6 L 6997.6 -305.3 L 6938.2 -279.5 L 6919 -308.3 L 6858.6 -300.4 L 6800 -261.1 L 6819.3 -246.8 L 6767 -240.7 L 6730.8 -238.2 L 6732.5 -255.2 L 6696.1 -258.7 L 6667.1 -247.2 L 6595.5 -251.3 L 6518.4 -244.3 L 6442.6 -198.6 L 6352.8 -143.4 L 6389.7 -140.4 L 6401.2 -125.7 L 6424 -120.5 L 6439 -132.2 L 6464.7 -130.7 L 6498.5 -105 L 6499.3 -85 L 6481 -61.6 L 6479 -33.7 L 6468.4 3.8 L 6433.1 37.7 L 6425.3 53.9 L 6393.5 81.1 L 6361.9 108.2 L 6346.8 122 L 6315.6 135.8 L 6300.8 136.1 L 6286.1 124.7 L 6254.7 141.8 L 6251 149.6 L 6251 149.6 L 6251 149.6 L 6251 149.6 L 6247.8 145.5 L 6247.8 145.5 L 6247.6 133.6 L 6259.6 133 L 6262.9 105.3 L 6256.8 85.3 L 6276.9 77 L 6305.3 81.1 L 6321.1 58.3 L 6329.1 32.7 L 6338.2 24.1 L 6350.5 3 L 6311.8 10 L 6291.5 19.2 L 6255.9 19.2 L 6246.4 -2.8 L 6218.7 -19.5 L 6177.9 -27 L 6169.2 -49.9 L 6161.1 -64.3 L 6152.3 -74.4 L 6137.8 -98 L 6117.3 -106.6 L 6082.2 -113.6 L 6051.2 -113 L 6022.1 -108.7 L 6002.7 -97.1 L 6015.6 -91.5 L 6015.9 -78.6 L 6002.8 -71.1 L 5981.7 -46.2 L 5981.9 -35.9 L 5948.9 -21.1 L 5920.8 -30 L 5892.8 -28 L 5880.6 -35.9 L 5866.5 -38.4 L 5832.2 -21.9 L 5801.4 -18 L 5779.9 -12.2 L 5750.4 -16 L 5728.7 -15.8 L 5714.4 -27.8 L 5691.5 -39 L 5668 -42.1 L 5638.4 -39 L 5616.3 -34.7 L 5583 -44.6 L 5578.5 -62.1 L 5551 -68.1 L 5529.7 -70.9 L 5503.5 -80.5 L 5479.2 -56.3 L 5488.8 -42.5 L 5466 -26.2 L 5432.1 -32.1 L 5408.8 -32.9 L 5393.1 -43.8 L 5368.7 -44.2 L 5348.3 -51.4 L 5312.7 -40.4 L 5268 -20.2 L 5243.3 -16.1 L 5234.1 -14.2 L 5221.7 -28.5 L 5191.5 -25.4 L 5181.6 -35.3 L 5165.2 -39.9 L 5153.9 -53.4 L 5141 -57.6 L 5107.3 -51.6 L 5075.1 -65.1 L 5062.6 -52.8 L 5010.3 -112.3 L 4980.4 -130.4 L 4989 -137.8 L 4930.3 -115.7 L 4907.8 -114.3 L 4909.7 -127.1 L 4879.6 -135.1 L 4855.2 -129.4 L 4847.8 -153.7 L 4805.7 -158.7 L 4784.7 -149 L 4726.1 -140.4 L 4714.6 -134.6 L 4627 -126.4 L 4616.3 -118.4 L 4633.2 -102.4 L 4610.7 -96.3 L 4615.1 -89.9 L 4592.6 -78.5 L 4630.5 -62.4 L 4624.7 -51.3 L 4591.8 -52.3 L 4585 -45.4 L 4555 -57.5 L 4517.9 -57 L 4493 -47.2 L 4465.3 -56.6 L 4413.7 -72.8 L 4377.1 -72.2 L 4328.8 -46.8 L 4325.8 -29.7 L 4301.8 -43.2 L 4283.1 -17.5 L 4289.9 -12.7 L 4276.4 5 L 4296.3 20.9 L 4313.7 20.2 L 4328.6 35.9 L 4326.2 47.9 L 4338.1 51.7 Z M 5384.4 -759.2 L 5435.1 -764.5 L 5480.6 -752.7 L 5534.5 -730 L 5528.8 -709 L 5477.7 -706.1 L 5412.4 -712.8 L 5373.6 -721.8 L 5355.6 -738.6 L 5323.6 -743.2 L 5384.4 -759.2 Z M 5596.6 -718.4 L 5656 -705.1 L 5649 -695.5 L 5517 -686.5 L 5559.8 -717.3 L 5579 -719.9 L 5596.6 -718.4 Z M 6439.6 -644.7 L 6501.4 -643.7 L 6586.1 -631.3 L 6567.7 -613.9 L 6481.3 -614.5 L 6442.5 -609 L 6396.1 -624.2 L 6408.7 -640.3 L 6439.6 -644.7 Z M 6659.5 -626.2 L 6718.3 -620.1 L 6691.2 -610.8 L 6653.8 -612.9 L 6610.3 -622.1 L 6615.9 -629.7 L 6659.5 -626.2 Z M 6463.8 -579.9 L 6486 -589.2 L 6515.3 -591.3 L 6548.5 -582.4 L 6551.4 -576.2 L 6515.9 -576.1 L 6467.9 -578.7 L 6463.8 -579.9 Z M 4238.5 -749 L 4284.2 -753.3 L 4319.8 -753.6 L 4324.6 -747.2 L 4338 -752.9 L 4360.1 -756.7 L 4394.8 -751.6 L 4385.8 -748 L 4354.3 -744.9 L 4333.3 -743.2 L 4330 -739.3 L 4302.6 -735.4 L 4277.3 -741 L 4290.6 -748.3 L 4238.5 -749 Z M 3720.5 -133.9 L 3677.4 -133.6 L 3648.6 -136.3 L 3653.9 -146.6 L 3686.3 -154.2 L 3710.8 -150.1 L 3721.1 -146.3 L 3718.6 -139.9 L 3720.5 -133.9 Z M 4441.3 -588.8 L 4497.4 -609.4 L 4491.1 -620 L 4543.4 -632.4 L 4620.8 -647.4 L 4698.7 -651.8 L 4738.8 -660.5 L 4784.4 -663.5 L 4800.7 -654.3 L 4784.9 -647 L 4702 -635.4 L 4630.4 -624.2 L 4557.7 -601.9 L 4522.8 -579.1 L 4486.1 -556.5 L 4490.8 -537.1 L 4535.6 -517.9 L 4521.8 -515.8 L 4445.3 -518.9 L 4439.1 -529.3 L 4396.7 -535.5 L 4393.3 -548.2 L 4417.2 -553.2 L 4416.4 -566 L 4462.9 -586 L 4441.3 -588.8 Z M 6535.2 -119.4 L 6543.3 -96.8 L 6542.7 -73.7 L 6552.4 -50.1 L 6576 -8.6 L 6541.3 -16.4 L 6526.9 17.5 L 6549.7 41.5 L 6549.1 57.9 L 6531.3 43.7 L 6516 61.9 L 6511.6 42.2 L 6514.2 19.4 L 6511.6 -5.9 L 6517 -23.6 L 6518 -54.9 L 6504.3 -77.9 L 6506.4 -109.9 L 6528 -120.7 L 6518.7 -131.6 L 6529.1 -134.8 L 6535.2 -119.4 Z M -908.7 -435.6 L -910.7 -421 L -894.9 -415.2 L -900.3 -432.2 L -836.8 -428.7 L -790.9 -406.8 L -814.1 -396.6 L -852.5 -394.2 L -853.1 -371.3 L -862.5 -366.4 L -884.4 -367.1 L -902.3 -375.3 L -933.4 -382.1 L -938.6 -392.2 L -962.4 -396.1 L -989.1 -393 L -1001.8 -401.2 L -996.7 -409.9 L -1024.8 -404.4 L -1014.2 -393.4 L -1027.5 -383.4 L -1027.5 -476.7 L -970.1 -458.8 L -908.7 -435.6 Z M -996.9 -521.9 L -1027.5 -520.5 L -1027.5 -536.5 L -1024.5 -537.5 L -1004.6 -537.4 L -970.8 -530.7 L -972.8 -527.5 L -996.9 -521.9 Z M 3971.2 61.7 L 3977.4 55.9 L 3994 61 L 4001.6 61.9 L 4004.6 66.5 L 4008.2 67.2 L 4008.3 69.3 L 4019.8 74.9 L 4043.7 73.5 L 4039.1 81.9 L 4013.5 85.9 L 3981.7 99.5 L 3968.7 94.7 L 3973.8 83.7 L 3948.2 76.8 L 3952.4 72.3 L 3974.8 64.6 L 3971.2 61.7 Z" />
<path class="neighbor" d="M 1338.4 511 L 1349.4 509.1 L 1364.9 509.8 L 1365.6 515.9 L 1340.1 519.7 L 1338.4 511 Z M 1366.3 505.1 L 1384.8 515.7 L 1380.8 532.3 L 1376.5 529.3 L 1376.8 517.1 L 1366.3 507.8 L 1366.3 505.1 Z M 1356.9 548 L 1364 548.9 L 1372.2 568.4 L 1372.3 582 L 1366.5 583.1 L 1360.6 569.6 L 1351.8 562.8 L 1356.9 548 Z" />
<path class="neighbor" d="M 1621.9 1109.1 L 1617.5 1111.9 L 1612.9 1098.1 L 1606.4 1090.7 L 1598.7 1098.8 L 1553 1098.3 L 1553.3 1112.9 L 1567 1115.3 L 1566.2 1124.3 L 1561.6 1121.9 L 1548.4 1125.7 L 1548.3 1142.8 L 1558.6 1151.3 L 1562.3 1164.7 L 1561.8 1174.9 L 1551.2 1239.1 L 1539.5 1226.6 L 1532.5 1226.1 L 1547.6 1202.2 L 1529.7 1191.3 L 1515.6 1193.3 L 1507.2 1189.2 L 1494.3 1195.4 L 1476.8 1192.5 L 1463 1167.9 L 1452.2 1161.9 L 1444.7 1150.8 L 1429.1 1139.8 L 1422.9 1142 L 1412.9 1136.4 L 1401.4 1128.7 L 1394.7 1132.4 L 1374.8 1129.1 L 1369.1 1119.1 L 1364.8 1119.4 L 1341.3 1106.1 L 1338.2 1098.8 L 1346.9 1097 L 1345.9 1085.3 L 1351.4 1076.8 L 1363 1075.3 L 1372.8 1060.5 L 1381.8 1048.3 L 1373.2 1042.7 L 1377.6 1029.1 L 1372.3 1007.7 L 1377.3 1001.5 L 1373.6 981.7 L 1364.2 969.2 L 1367.2 957.8 L 1374.7 959.5 L 1379.1 952.6 L 1373.7 938.8 L 1376.5 935.3 L 1388.6 936.1 L 1406.2 919.7 L 1415.8 917.3 L 1416.1 909.5 L 1420.4 889.7 L 1433.8 878.8 L 1448.6 878.4 L 1450.4 873.5 L 1468.8 875.5 L 1487.2 863.6 L 1496.3 858.4 L 1507.7 847.1 L 1516 848.6 L 1522.1 854.7 L 1517.6 862.6 L 1502.5 866.5 L 1496.6 878.2 L 1487.5 885 L 1480.7 893.7 L 1477.8 910.4 L 1471.3 924.1 L 1483.4 925.6 L 1486.4 936.4 L 1491.6 941.6 L 1493.4 951 L 1490.7 959.7 L 1491.5 964.5 L 1497.3 966.5 L 1502.8 974.7 L 1532.9 972.4 L 1546.6 975.4 L 1563 995.6 L 1572.5 993 L 1589.4 994.3 L 1602.7 991.6 L 1611 995.7 L 1606.8 1008.3 L 1601.6 1016.1 L 1599.7 1032.9 L 1604.4 1048.5 L 1611.1 1055.5 L 1611.9 1060.7 L 1600 1072.4 L 1608.5 1077.5 L 1614.8 1085.7 L 1621.9 1109.1 Z" />
<path class="neighbor" d="M 1376.5 935.3 L 1373.7 938.8 L 1379.1 952.6 L 1374.7 959.5 L 1367.2 957.8 L 1364.2 969.2 L 1356.3 962.5 L 1351.3 949.8 L 1357.1 943.6 L 1351.2 942 L 1346.8 934.2 L 1335.1 927.7 L 1324.9 929.2 L 1320.1 937.4 L 1310.7 943.2 L 1305.6 944.1 L 1303.3 948.9 L 1314.5 961.6 L 1308.1 964.6 L 1304.7 968.1 L 1293.8 969.3 L 1289.7 955.3 L 1286.7 959.3 L 1279 957.9 L 1274.2 948.5 L 1264.6 946.9 L 1258.5 944.2 L 1248.5 944.2 L 1247.8 949.3 L 1245.1 945.8 L 1246.3 941.1 L 1248.3 936.4 L 1247.4 932.1 L 1250.9 929.4 L 1246 925.9 L 1245.8 916.5 L 1254.9 914.4 L 1263.3 922.8 L 1262.8 927.7 L 1272.2 928.8 L 1274.4 926.9 L 1280.8 932.6 L 1292.4 930.9 L 1302.3 925 L 1316.5 920.3 L 1324.5 913.3 L 1337.5 914.7 L 1336.6 917 L 1349.6 917.8 L 1360.1 921.8 L 1367.7 928.9 L 1376.5 935.3 Z" />
<path class="neighbor" d="M 1254.9 914.4 L 1245.8 916.5 L 1246 925.9 L 1250.9 929.4 L 1247.4 932.1 L 1248.3 936.4 L 1246.3 941.1 L 1245.1 945.8 L 1232.4 940.6 L 1227.6 935.7 L 1230.3 931.6 L 1229.5 926.4 L 1223 920.8 L 1213.8 916.2 L 1205.7 913.2 L 1204.2 906.4 L 1198 902.2 L 1199.5 909 L 1194.8 914.6 L 1189.5 908.1 L 1182 905.8 L 1178.8 901.1 L 1178.9 893.9 L 1182 886.5 L 1175.4 883.2 L 1180.7 878.7 L 1184.3 875.7 L 1199.7 881.9 L 1205.1 878.9 L 1212.5 880.8 L 1216.4 885.6 L 1223.3 887.2 L 1228.9 882.2 L 1234.9 895 L 1243.9 904.4 L 1254.9 914.4 Z" />
<path class="neighbor" d="M 1228.9 882.2 L 1223.3 887.2 L 1216.4 885.6 L 1212.5 880.8 L 1205.1 878.9 L 1199.7 881.9 L 1184.3 875.7 L 1180.7 878.7 L 1172.6 871.3 L 1161.7 861.9 L 1156.5 854 L 1146.7 846.6 L 1134.9 836.1 L 1137.5 832.4 L 1141.4 836 L 1143.2 834.3 L 1150.5 833.3 L 1153.4 828 L 1156.8 827.8 L 1156.3 816.3 L 1161.8 815.7 L 1166.7 815.9 L 1171.8 809.6 L 1178.7 814.4 L 1181.1 811.5 L 1185.4 808.7 L 1193.6 802.2 L 1194 797.4 L 1196.2 797.6 L 1199.2 792 L 1201.7 791.3 L 1205.6 794.9 L 1210.3 796 L 1215.5 793 L 1221.4 793 L 1229.6 789.9 L 1232.8 786.7 L 1240.8 787.2 L 1238.8 789.5 L 1237.6 794.7 L 1240 803.3 L 1234.6 811.2 L 1232.1 820.7 L 1231.3 831 L 1232.6 837 L 1233.2 847.6 L 1229.6 849.9 L 1227.4 859.9 L 1229 866.1 L 1224.2 872 L 1225.3 878.4 L 1228.9 882.2 Z" />
<path class="neighbor" d="M 1240.8 787.2 L 1232.8 786.7 L 1229.6 789.9 L 1221.4 793 L 1215.5 793 L 1210.3 796 L 1205.6 794.9 L 1201.7 791.3 L 1199.2 792 L 1196.2 797.6 L 1194 797.4 L 1193.6 802.2 L 1185.4 808.7 L 1181.1 811.5 L 1178.7 814.4 L 1171.8 809.6 L 1166.7 815.9 L 1161.8 815.7 L 1156.3 816.3 L 1156.8 827.8 L 1153.4 828 L 1150.5 833.3 L 1143.2 834.3 L 1139.1 827 L 1132 824.9 L 1133.7 815.6 L 1130.5 813 L 1125.6 811.4 L 1115.4 814.2 L 1114.5 811 L 1107.4 807.2 L 1102.4 802.6 L 1095.5 800.6 L 1100.3 794.7 L 1098.5 790.1 L 1100.1 785.6 L 1111.2 779 L 1121.9 770.1 L 1124.3 771 L 1129.5 766.9 L 1136.2 766.5 L 1138.3 768.4 L 1142 767.3 L 1152.9 769.4 L 1163.7 768.8 L 1171.2 766.2 L 1174 763.6 L 1181.4 764.8 L 1187 766.4 L 1193.2 765.8 L 1197.8 763.8 L 1208.5 767 L 1212.2 767.6 L 1219.4 771.9 L 1226.2 777.2 L 1234.7 780.8 L 1240.8 787.2 Z" />
<path class="neighbor" d="M 1095.5 800.6 L 1102.4 802.6 L 1107.4 807.2 L 1114.5 811 L 1115.4 814.2 L 1125.6 811.4 L 1130.5 813 L 1133.7 815.6 L 1132 824.9 L 1129.4 830.5 L 1115.9 830.1 L 1107.4 827.9 L 1097.7 823.2 L 1084.7 821.8 L 1078.1 816.7 L 1078.8 813.3 L 1086.8 807.4 L 1091.2 804.8 L 1090 802 L 1095.5 800.6 Z" />
<path class="neighbor" d="M 1028.2 797.9 L 1028.7 791.1 L 1031.5 785.6 L 1028.1 781.2 L 1039.4 762.1 L 1069.5 762.1 L 1070.1 754.1 L 1066.3 752.7 L 1063.7 747.6 L 1055 742.2 L 1046.3 734.4 L 1056.9 734.3 L 1056.9 721.1 L 1078.7 721.1 L 1100.4 721.3 L 1100.2 739.9 L 1098.4 766.3 L 1105.4 766.3 L 1113 770.6 L 1115 767.1 L 1121.9 770.1 L 1111.2 779 L 1100.1 785.6 L 1098.5 790.1 L 1100.3 794.7 L 1095.5 800.6 L 1090 802 L 1091.2 804.8 L 1086.8 807.4 L 1078.8 813.3 L 1078.1 816.7 L 1066.1 812.6 L 1051.5 812.2 L 1040.8 807.6 L 1028.2 797.9 Z" />
<path class="neighbor" d="M 1100.4 721.3 L 1100.2 717.9 L 1103.1 716.8 L 1107.3 719.6 L 1115.7 705.4 L 1120.1 705.1 L 1120.2 708.6 L 1124.7 708.7 L 1124.3 715.1 L 1120.5 725.2 L 1122.5 728.8 L 1120.1 737.2 L 1121.6 739.4 L 1118.9 751.3 L 1114.3 757.5 L 1110 758.2 L 1105.4 766.3 L 1098.4 766.3 L 1100.2 739.9 L 1100.4 721.3 Z" />
<path class="neighbor" d="M 1765.8 1016.6 L 1768.9 1023.2 L 1760.3 1032.2 L 1734.1 1040.9 L 1717.3 1044.6 L 1710.5 1050.1 L 1691.9 1044.3 L 1674.5 1041.3 L 1670.1 1043.4 L 1680.6 1049.5 L 1679.7 1065.2 L 1682.9 1079.9 L 1702.8 1081.9 L 1704 1086.9 L 1687.3 1093.5 L 1684.6 1103.5 L 1674.9 1107.3 L 1657.5 1112.8 L 1653 1119.9 L 1634.8 1121.4 L 1621.9 1109.1 L 1614.8 1085.7 L 1608.5 1077.5 L 1600 1072.4 L 1611.9 1060.7 L 1611.1 1055.5 L 1604.4 1048.5 L 1599.7 1032.9 L 1601.6 1016.1 L 1606.8 1008.3 L 1611 995.7 L 1602.7 991.6 L 1589.4 994.3 L 1572.5 993 L 1563 995.6 L 1546.6 975.4 L 1532.9 972.4 L 1502.8 974.7 L 1497.3 966.5 L 1491.5 964.5 L 1490.7 959.7 L 1493.4 951 L 1491.6 941.6 L 1486.4 936.4 L 1483.4 925.6 L 1471.3 924.1 L 1477.8 910.4 L 1480.7 893.7 L 1487.5 885 L 1496.6 878.2 L 1502.5 866.5 L 1517.6 862.6 L 1516.9 868.1 L 1503.1 870.9 L 1510.8 881.5 L 1510.5 893.8 L 1500.2 907.4 L 1509 925.9 L 1519.1 924.4 L 1524.4 907.5 L 1517.1 899.2 L 1515.9 881.5 L 1545.1 872 L 1541.9 861 L 1550.1 853.6 L 1558.5 870 L 1574.9 870.4 L 1590.1 883.5 L 1591 891.2 L 1612.1 891.4 L 1637.1 889 L 1650.5 899.5 L 1668.4 902.4 L 1681.5 895.1 L 1681.8 889.2 L 1710.8 887.8 L 1738.9 887.5 L 1719 894.4 L 1727 905.4 L 1745.7 907.2 L 1763.5 918.7 L 1767.2 937.5 L 1779.4 936.9 L 1788.6 942.5 L 1770 956.2 L 1768 964.8 L 1776 973.4 L 1770.2 977.8 L 1755.8 981.6 L 1756.3 992.4 L 1749.9 998.9 L 1765.8 1016.6 Z" />
<path class="neighbor" d="M 1371.5 705.4 L 1387.2 707.5 L 1399.7 713.1 L 1403.5 719.5 L 1387.1 719.9 L 1380 723.9 L 1366.9 720.1 L 1353.5 711.6 L 1356.3 706.2 L 1366.1 704.6 L 1371.5 705.4 Z" />
<path class="neighbor" d="M 1261.4 595.3 L 1281.6 597 L 1300 597.3 L 1322 605.2 L 1331.4 613.8 L 1353.2 611.2 L 1361.5 616.7 L 1381.4 631.2 L 1396 641.7 L 1403.7 641.4 L 1417.6 646.2 L 1415.9 652.8 L 1433.2 653.8 L 1450.9 663.3 L 1448.1 668.8 L 1432.5 671.8 L 1416.8 673 L 1400.6 671.1 L 1367.1 673.4 L 1382.8 660.3 L 1373.3 654.2 L 1358.2 652.7 L 1350.1 645.9 L 1344.5 632.6 L 1331.3 633.5 L 1309.4 627.2 L 1302.4 622.3 L 1271.9 618.7 L 1263.7 614.1 L 1272.5 608.3 L 1249.5 607.1 L 1232.7 619.2 L 1223 619.6 L 1219.6 625.3 L 1208 627.8 L 1198 625.6 L 1210.4 618.4 L 1215.5 609.9 L 1226.1 604.7 L 1238 600.1 L 1255.7 597.9 L 1261.4 595.3 Z" />
<path class="lake" d="M 1241.8 148.1 L 1242.5 148.3 L 1241.8 149.7 L 1241.5 152 L 1241.8 153.1 L 1242.8 153.6 L 1245.8 154.6 L 1248.2 154.8 L 1251.5 153.9 L 1252.6 153.9 L 1253.5 154.2 L 1254.4 154.8 L 1255.7 156.4 L 1256.1 156.1 L 1256.2 154.7 L 1256.9 153.4 L 1258.1 152.4 L 1260.4 151.1 L 1263.9 149.6 L 1266.7 148.7 L 1269.2 148.5 L 1269.4 148.2 L 1270.6 147.4 L 1270.8 147.6 L 1270.4 148.4 L 1270.3 148.7 L 1270.8 148.7 L 1271.4 147.8 L 1272.2 146.1 L 1274 144.3 L 1279.5 140.9 L 1281.6 140 L 1285.2 139.5 L 1290.2 139.3 L 1295.2 139.7 L 1300.1 140.8 L 1303.5 141.3 L 1305.2 141.2 L 1312.3 142 L 1313.1 141.8 L 1312.1 141.4 L 1307.4 141 L 1305.9 140.5 L 1304.1 140.6 L 1304 140.4 L 1305.3 138.9 L 1306 138.8 L 1306.9 138.2 L 1307.8 137.5 L 1309.4 136.6 L 1312.2 136 L 1316.3 135.5 L 1320.5 134.7 L 1321.6 134.6 L 1322.5 134.8 L 1324 134.8 L 1328.9 134.1 L 1331.8 134.2 L 1333.8 134.3 L 1335.1 134.7 L 1336.6 134.6 L 1339.4 133.5 L 1339.8 133.1 L 1339.2 132.5 L 1337.7 131.6 L 1337 130.8 L 1337.1 130.3 L 1337 129.9 L 1336.2 129.2 L 1336.4 128.9 L 1340.1 129.7 L 1340.4 130 L 1340.3 130.6 L 1340.3 130.6 L 1340.3 130.6 L 1340.3 130.6 L 1340.3 130.6 L 1340.3 130.6 L 1339.7 131.4 L 1339.8 132.6 L 1340.6 134 L 1340.9 135.2 L 1340.8 136.1 L 1339.9 136.9 L 1338.1 137.7 L 1336.5 138.8 L 1335 140.5 L 1333.1 141.8 L 1330.6 142.8 L 1328.2 144.1 L 1326 145.6 L 1321.5 147.7 L 1312.8 151.3 L 1311.6 151.8 L 1310.6 152.2 L 1308.6 153 L 1306.7 153.8 L 1294.2 157.3 L 1285.8 160.1 L 1280.6 162.5 L 1276.2 165.3 L 1274.2 166.2 L 1272 166.5 L 1268.5 166.3 L 1264.9 166.6 L 1261.1 167.5 L 1258.6 168.2 L 1257.5 168.7 L 1256.4 168.9 L 1255.4 168.7 L 1252.6 167.3 L 1252.4 167.4 L 1251.9 167.6 L 1250.3 167.3 L 1248.4 167.3 L 1246.8 167.8 L 1245.2 167.9 L 1243.6 167.5 L 1245 167 L 1251.3 166 L 1251.2 165.8 L 1248.9 165.2 L 1248.2 164.6 L 1247.7 164.7 L 1247.2 165.3 L 1246.4 165.6 L 1245.1 165.5 L 1243.9 165 L 1242.7 164.1 L 1238.6 162.7 L 1237.5 162 L 1236 161.5 L 1233.9 161.2 L 1233.6 160.8 L 1233.9 160.2 L 1235.8 157.6 L 1236.9 156.6 L 1237.3 156.3 L 1237.9 156.3 L 1238.1 156 L 1238.1 155.5 L 1238.3 155.1 L 1239.5 154.1 L 1240.1 153.6 L 1239.9 152.8 L 1240.2 151.3 L 1240.9 149.4 L 1241.8 148.1 Z M 1338.2 131.5 L 1338.2 131.5 L 1338.2 131.5 L 1338.2 131.5 L 1338.9 131.6 L 1339.6 130.8 L 1340 130.4 L 1339.9 130.1 L 1338.2 129.9 L 1337.6 130.1 L 1337.5 130.8 L 1337.7 131.3 L 1338.2 131.5 Z M 1252.7 160.7 L 1252.7 160.7 L 1252.7 160.7 L 1252.7 160.7 L 1253 160.1 L 1252.6 159.1 L 1252.4 158.8 L 1251.9 159.3 L 1251.6 160.5 L 1251.7 161 L 1252.7 160.7 Z" />
<path class="lake" d="M 1299.8 508.7 L 1298.9 510.2 L 1297.9 512.1 L 1297.1 513.2 L 1296.2 513.3 L 1295.2 512.9 L 1294.4 512.6 L 1293.6 511.9 L 1292.7 510.5 L 1291.6 509.5 L 1290.5 509 L 1289.4 508 L 1289.2 507.1 L 1289.8 506.3 L 1291.2 505.3 L 1292.5 504.3 L 1294.2 502.6 L 1295.7 501.8 L 1296.8 501.8 L 1297.9 503 L 1298.4 503.5 L 1298.8 504 L 1299.2 504.8 L 1299.6 505.9 L 1300 507.3 L 1299.8 508.7 L 1299.8 508.7 L 1299.8 508.7 L 1299.8 508.7 Z" />
<path class="lake" d="M 1201.8 874.7 L 1202.3 876 L 1202.6 877.1 L 1202.8 878 L 1202 879.3 L 1201.1 879.6 L 1199.9 880 L 1198.8 879.6 L 1197.3 879.5 L 1194.9 878.9 L 1191.3 877.9 L 1187.8 876.7 L 1185.3 875.7 L 1183.8 874.9 L 1182.4 874.2 L 1181.4 873.4 L 1180.6 872.5 L 1179.8 871.3 L 1178.8 869.5 L 1177.9 867.6 L 1177.4 866.1 L 1177.2 865.2 L 1176.9 864.8 L 1176.6 864.6 L 1176.4 864.3 L 1176.3 863.9 L 1176.3 863.3 L 1176.3 862.2 L 1176.2 860.3 L 1176 858.5 L 1176.1 857.3 L 1176.5 856.6 L 1177 855.1 L 1177.9 854.8 L 1178.8 854.9 L 1179.8 855.2 L 1181.6 855.9 L 1183.7 857 L 1185.4 858.3 L 1187.1 859.7 L 1189 860.8 L 1191.4 862.5 L 1194.3 865.3 L 1197.2 868.5 L 1199.4 871.1 L 1200.8 873.1 L 1201.8 874.7 L 1201.8 874.7 L 1201.8 874.7 L 1201.8 874.7 Z" />
<path class="lake" d="M 565.7 178.1 L 565.7 178.1 L 565.7 178.1 L 566.2 178.9 L 566 179.6 L 563.8 180.5 L 562.8 181 L 560.6 183.6 L 558.8 184.3 L 557.3 185.2 L 556.4 185.2 L 555.9 183.9 L 554.9 182.5 L 554.7 181.1 L 553.9 179.5 L 553.5 179.6 L 553.2 180.1 L 552.9 181 L 552.3 182 L 551.5 181.7 L 550.3 179.9 L 548.9 178.7 L 548 177.7 L 547.5 176.8 L 547.1 175.5 L 546.6 174.1 L 546 172.9 L 545.3 172.1 L 544.5 171.4 L 543.6 170.5 L 542.6 169.3 L 542 168.2 L 541.7 166.7 L 541.7 165.7 L 541.8 165.1 L 541.7 164.7 L 541.5 164.6 L 541.3 164.2 L 541.7 163.8 L 542.5 163.8 L 543.8 163.3 L 545.3 162.8 L 546.4 162.6 L 547 162.6 L 547.7 162.8 L 548.3 163.3 L 548.5 164.1 L 547.9 165 L 547.8 165.6 L 548.5 166.6 L 549.5 167.3 L 550.9 168.1 L 552.1 168.1 L 552.7 168.3 L 553.1 169.3 L 553.6 171 L 554.4 172.4 L 554.9 173.1 L 555.2 173.1 L 555.6 173.1 L 556 173 L 556.3 172.7 L 556.5 172.4 L 556.2 170.6 L 556 169.2 L 555.7 168.1 L 556 167.7 L 556.3 167.5 L 557.4 167.8 L 558.3 168.6 L 559.4 169 L 561.1 168.9 L 562.9 168.6 L 563.6 168.8 L 563.6 169.1 L 563.3 170.1 L 562.4 170.3 L 560.9 170.2 L 559.4 170.1 L 558.8 170.4 L 558.4 170.8 L 558 171.6 L 558.4 171.9 L 559.4 173 L 560.1 173.7 L 560.9 174.4 L 561.5 175 L 563.2 176.7 L 565.7 178.1 Z M 561.1 181.1 L 561.1 181.1 L 561.1 181.1 L 561.4 179.2 L 560.5 176.9 L 559.6 176.6 L 558.9 176.8 L 559.2 177.7 L 559.2 179 L 560 180 L 561.1 181.1 Z" />
<path class="lake" d="M 1203 65.9 L 1202.8 65.9 L 1202 66.4 L 1200.6 66.5 L 1198.6 66.3 L 1197.9 66.5 L 1198.5 67.1 L 1198 68 L 1196.3 69.1 L 1195.4 70.3 L 1195.1 71.6 L 1195.4 72.6 L 1196.2 73.6 L 1197.3 74.2 L 1198.8 74.5 L 1199.1 74.8 L 1198.2 75.3 L 1196.7 75.6 L 1194.5 75.6 L 1192.2 76.2 L 1190 77.1 L 1188.6 78 L 1188.3 78.8 L 1188.2 79.9 L 1188.5 82.7 L 1188.3 83.7 L 1187.4 85.7 L 1186.1 88.2 L 1184.6 89.9 L 1184.3 89.6 L 1184.5 88.8 L 1185.8 86.3 L 1186 85.2 L 1185.9 84.6 L 1185.4 84.6 L 1184.9 85.1 L 1184.4 86.1 L 1184.3 86.7 L 1184.6 86.8 L 1184.3 87.5 L 1183.5 88.8 L 1182.9 89.1 L 1182.3 88.3 L 1182.3 87.3 L 1183.3 85.2 L 1182.9 84.8 L 1183.5 83.5 L 1183.7 82.6 L 1183.4 81.6 L 1183.7 80.7 L 1184.4 79.9 L 1184.2 79.7 L 1183 80 L 1181.3 81.5 L 1179.1 84.2 L 1177.3 85.4 L 1176.1 85.1 L 1175.1 85.3 L 1174.4 86.1 L 1173.6 86.5 L 1172.7 86.5 L 1172.1 87.4 L 1171.9 89.3 L 1171.1 90.4 L 1168.5 91.1 L 1168 91.6 L 1167.9 92.3 L 1168.3 93.2 L 1168.3 95 L 1167.9 97.8 L 1167.1 100.2 L 1165.8 102.3 L 1164.3 104 L 1161.9 106.2 L 1161.8 106.6 L 1163 108.4 L 1163.5 109.7 L 1163.8 112.3 L 1163.7 112.7 L 1161.4 116 L 1161.3 116.4 L 1163.8 121.8 L 1166 125.7 L 1166.3 126.1 L 1167 127.6 L 1168.2 130.7 L 1168.8 133.7 L 1168.9 136.7 L 1168.6 139.5 L 1167.9 142.3 L 1167 145 L 1165.8 147.5 L 1164.5 149.5 L 1161.8 152.8 L 1160.5 155.1 L 1159.2 156.8 L 1157.8 158.2 L 1155.3 159.7 L 1148.9 162.5 L 1146.9 163 L 1144.7 163.3 L 1142.3 163.1 L 1140.9 162.8 L 1140.6 162.3 L 1140.1 162.2 L 1139.4 161.9 L 1138.5 161.3 L 1137.6 160.2 L 1136.5 158.1 L 1135.3 154.8 L 1134.3 152.8 L 1133.4 152.2 L 1132.6 151.2 L 1131.9 149.8 L 1131.6 146.8 L 1131.6 142.1 L 1131.8 138.8 L 1132.3 137.1 L 1132.2 135.8 L 1131.4 134.9 L 1131 133.8 L 1130.8 132.4 L 1130.4 131.5 L 1129.8 131.1 L 1129.7 130.4 L 1130 129.5 L 1130 128.9 L 1129.7 128.6 L 1129.6 128.1 L 1129.8 127.5 L 1129.5 125.6 L 1129.6 124.5 L 1130 123.2 L 1131.3 121 L 1131.7 119.9 L 1131.8 118.7 L 1132.5 117.3 L 1134.2 114.4 L 1134.3 113.7 L 1133.7 112.4 L 1133.5 111.4 L 1133.6 110.1 L 1134.2 108.5 L 1135.2 106.5 L 1136.5 105 L 1138.1 103.8 L 1138.6 102.5 L 1138 101.1 L 1138.2 98.9 L 1139.2 96 L 1140.3 93.9 L 1141.5 92.4 L 1142.3 91.1 L 1142.7 89.8 L 1142.5 89.2 L 1141.6 88.6 L 1140.8 87.7 L 1139.4 87.5 L 1137.6 88.1 L 1137.3 88 L 1136.4 88.1 L 1134.8 89.4 L 1133.2 91.7 L 1132.2 92.7 L 1130.7 93.3 L 1129.6 94 L 1128.8 94.8 L 1127.9 95 L 1126.7 94.6 L 1126.5 93.5 L 1127.2 91.7 L 1128.3 90 L 1130.5 87.3 L 1130.6 86.7 L 1131.2 85.9 L 1134.6 84.7 L 1135.9 83.8 L 1136.4 82.6 L 1136.5 80.8 L 1136.7 80.3 L 1137.2 80.1 L 1138.7 78.7 L 1141.3 76 L 1143.5 73.2 L 1145.5 70.3 L 1147 68.7 L 1147.9 68.3 L 1148.6 67.4 L 1149.7 64.7 L 1150.5 63.5 L 1151 63 L 1151.3 63.3 L 1150.8 64.8 L 1150.8 66 L 1151.2 67.6 L 1152.1 68.1 L 1153.3 67.6 L 1154.4 66.6 L 1155.3 65 L 1156.4 64.4 L 1157.6 64.6 L 1158.5 64.5 L 1159.3 64.1 L 1160.8 63.8 L 1161.1 64.4 L 1160.9 65.6 L 1160.4 66.2 L 1159.7 66.2 L 1158.8 66.8 L 1157.8 68.1 L 1157.9 69.1 L 1158.9 69.9 L 1159.5 69.9 L 1159.4 69.2 L 1159.9 68.5 L 1161.5 67.3 L 1161.7 66.9 L 1164.7 65.8 L 1165.8 65 L 1166.1 64.2 L 1167.7 62.6 L 1169.1 62 L 1171.1 61.8 L 1173.1 62 L 1175 62.5 L 1176 62.5 L 1176.3 61.9 L 1177.9 61.6 L 1180.9 61.4 L 1183 60.6 L 1184.4 59.3 L 1186.2 58.6 L 1188.4 58.5 L 1191.4 59 L 1195.1 60 L 1198.1 61.3 L 1202.1 64 L 1203.1 64.3 L 1203 65.9 Z M 1185.9 66.7 L 1184.8 66.3 L 1184 67.2 L 1183.2 69.1 L 1183.1 70.2 L 1183.7 70.5 L 1184.5 70.4 L 1185.5 69.9 L 1185.9 69 L 1185.7 66.9 L 1185.9 66.7 L 1185.9 66.7 L 1185.9 66.7 Z M 1172.8 80.8 L 1172.6 81.1 L 1173.1 82.1 L 1173.6 82.4 L 1174.3 82.4 L 1174.6 82.1 L 1174.5 81.4 L 1174.1 81 L 1172.8 80.8 L 1172.8 80.8 L 1172.8 80.8 Z M 1152.3 74.8 L 1152 74.5 L 1151.4 75.9 L 1151.8 76.4 L 1153.1 76.5 L 1153.8 76.3 L 1154 75.3 L 1153.8 74.9 L 1153.4 74.8 L 1152.3 74.8 L 1152.3 74.8 L 1152.3 74.8 Z M 1149.4 77.4 L 1148.5 78 L 1147.7 79.2 L 1146.7 80.1 L 1145.4 80.4 L 1144.5 81.3 L 1144.1 82.6 L 1143.2 83.8 L 1141.3 85.6 L 1141.2 86.1 L 1141.3 86.8 L 1141.6 87.7 L 1142.3 88.3 L 1143.2 88.6 L 1144 88.4 L 1146.2 86.3 L 1146.4 85.9 L 1146.1 85.7 L 1146.4 84.9 L 1147.3 83.6 L 1147.9 82.9 L 1148.3 82.9 L 1148.8 82.7 L 1149.2 82.1 L 1149.2 81.6 L 1148.6 81.1 L 1148.6 80.9 L 1149.3 81 L 1149.5 80.5 L 1149.3 79.4 L 1149.6 79 L 1150.4 79.2 L 1150.8 78.9 L 1150.9 78.1 L 1150.5 77.6 L 1149.4 77.4 L 1149.4 77.4 L 1149.4 77.4 Z" />
<path class="lake" d="M 906.4 544.6 L 905.7 546.5 L 903.8 551 L 902.1 558 L 900.3 565.2 L 899.5 570.4 L 898.6 578.3 L 898.5 578.3 L 898.2 574.4 L 898.6 572.6 L 898.8 570.2 L 899 567.2 L 898.4 566.1 L 897.5 565.9 L 897 565.2 L 896.9 564.2 L 897.1 563.6 L 897.7 563.5 L 899 564.6 L 899.4 564.6 L 900.3 560.8 L 900 559.7 L 899.9 556.6 L 901.3 555.1 L 901.1 554.4 L 899.8 553.7 L 899.3 553.1 L 900 549.2 L 900 548.2 L 899.9 547.6 L 898.7 546.9 L 899.5 546.2 L 900.5 544.8 L 901.1 544.4 L 901.3 544.4 L 902.1 545.3 L 902.9 545.6 L 903.7 545.6 L 904 545.2 L 904.3 542.7 L 904.5 542.4 L 905.3 542.6 L 906.1 543.4 L 906.4 544.6 L 906.4 544.6 L 906.4 544.6 Z" />
<path class="lake" d="M 379.1 224.4 L 378.5 226 L 376.9 226.3 L 375.8 225.7 L 375.1 223.6 L 374.5 222.9 L 374.6 221.7 L 376.3 219.8 L 378.1 219.4 L 378.6 219.1 L 379.2 219.1 L 379.6 220.2 L 379.1 224.4 L 379.1 224.4 L 379.1 224.4 L 379.1 224.4 Z" />
<path class="lake" d="M 480.5 359.1 L 480.4 360.3 L 478.5 362.3 L 476.4 362.1 L 473.5 358.5 L 470 355.4 L 470.2 353.8 L 471.2 353.3 L 472.6 353.4 L 474.1 355 L 479.4 358 L 480.5 359.1 L 480.5 359.1 L 480.5 359.1 L 480.5 359.1 Z" />
<path class="lake" d="M 1070.4 429.4 L 1069.4 431.2 L 1067.7 431.6 L 1066.9 431.2 L 1066.8 430.3 L 1067.3 429.2 L 1068.8 427.7 L 1070.2 428.2 L 1070.4 429.4 L 1070.4 429.4 L 1070.4 429.4 Z" />
<path class="lake" d="M 1513.4 705.8 L 1512.8 706.7 L 1511.1 707 L 1506.7 705.3 L 1507.1 704.4 L 1509.3 703.9 L 1511.6 704.8 L 1513.4 705.8 L 1513.4 705.8 L 1513.4 705.8 Z" />
<path class="lake" d="M 526.8 299.3 L 526 299 L 524.7 297.1 L 523.1 295.1 L 520.7 293.4 L 519.4 292.2 L 518.5 291.4 L 517.3 291.5 L 515.7 294.5 L 513.4 295.2 L 511.4 294.6 L 510.7 293.5 L 509.5 292.9 L 508.7 293.2 L 507.7 293.4 L 506.5 292.8 L 503.3 292.8 L 501.5 294.7 L 500.9 295 L 500.3 294.8 L 499.2 293.5 L 499.1 292.4 L 503 291.7 L 506.3 290.7 L 508.1 289.7 L 508.6 287.1 L 509.2 284 L 509.7 283.2 L 510.4 283.1 L 510.4 284.9 L 509.9 287.5 L 509.6 290.4 L 511.3 292.7 L 513 294.1 L 514.5 293.5 L 516 291.7 L 517.6 289.6 L 518.3 289.6 L 520 291.2 L 521.6 292.6 L 523.5 294.2 L 525.3 296.3 L 526.9 298.6 L 526.8 299.3 L 526.8 299.3 L 526.8 299.3 Z" />
<path class="lake" d="M 1106.6 770.4 L 1105.5 771.2 L 1104.4 772.2 L 1103.8 773.7 L 1103.2 775.7 L 1101.9 776.7 L 1099.5 777.3 L 1098.2 777.5 L 1097.3 777.9 L 1096.7 778.2 L 1096.1 777.5 L 1095.2 776.3 L 1094.7 775.7 L 1095.1 775.3 L 1096.3 774.9 L 1098 774.3 L 1099.5 773.6 L 1101.3 773 L 1104.4 771 L 1107 769.2 L 1107.4 769.2 L 1107.2 769.7 L 1106.6 770.4 L 1106.6 770.4 L 1106.6 770.4 L 1106.6 770.4 Z" />
<path class="lake" d="M 571.1 197.2 L 569.2 197.9 L 568.6 199.4 L 568.2 200 L 567.6 200.1 L 567.6 199.7 L 567.7 198.9 L 567.4 198 L 567.1 197.5 L 568.6 195.7 L 568.4 194.1 L 567.9 192.8 L 569.9 193 L 570.6 193.7 L 571.4 194.9 L 572.1 196 L 572.6 196.3 L 572.4 196.8 L 571.1 197.2 L 571.1 197.2 L 571.1 197.2 L 571.1 197.2 Z" />
<path class="lake" d="M 370.1 155.1 L 369.5 156.6 L 368.9 158.7 L 368.5 159.6 L 367.4 159.8 L 366.8 159.4 L 366.4 157.8 L 366.3 155 L 366.6 153.3 L 367.2 152.7 L 368.1 152.3 L 369 152.7 L 369.7 153.2 L 370.2 153.8 L 370.1 155.1 L 370.1 155.1 L 370.1 155.1 Z" />
<path class="lake" d="M 391 203.9 L 391 204.3 L 390.7 204.7 L 389.8 204.5 L 388.3 203.3 L 386.3 200.9 L 384.8 198.7 L 385.1 198.1 L 386.1 197.1 L 387.6 196.7 L 388.7 197.4 L 389.1 199.7 L 389.8 202.2 L 390.5 203.2 L 391 203.9 L 391 203.9 L 391 203.9 L 391 203.9 Z" />
<path class="lake" d="M 387 270.5 L 387.1 270.7 L 387 271.1 L 386.1 271.7 L 384.9 271.9 L 385.4 271.2 L 386.6 270.8 L 387 270.5 L 387 270.5 L 387 270.5 Z" />
<path class="lake" d="M 824.6 447.5 L 824.6 447.6 L 824.2 447.9 L 823.2 448 L 821.8 448.4 L 820.4 448.5 L 819.2 448.3 L 818.3 447.7 L 817.3 447.5 L 816.3 447.6 L 816 447.4 L 816.3 446.9 L 816.6 446.1 L 816.4 445.7 L 816.1 445.5 L 815.6 445.6 L 815.4 445.1 L 815.5 444.7 L 815.6 444.4 L 816.3 444.1 L 817.7 445.1 L 818.5 445.7 L 819.4 446.1 L 820.2 446.9 L 821 447.3 L 821.9 446.9 L 822.6 446.4 L 822.9 446.7 L 823.3 446.2 L 823.9 444.9 L 824 445 L 823.7 446 L 823.9 446.8 L 824.3 447.4 L 824.6 447.5 L 824.6 447.5 L 824.6 447.5 L 824.6 447.5 Z" />
<path class="lake" d="M 782.7 665.5 L 782.9 665.8 L 782.6 666.2 L 781.9 666.8 L 780.9 667.1 L 779.3 666.8 L 777.4 666.1 L 775.7 665.7 L 773.8 665.8 L 771.9 665.8 L 769.9 665.3 L 767.9 664.6 L 767.2 663.9 L 769.5 663.4 L 773.4 662.8 L 775.8 662.3 L 778.4 662.6 L 781.3 665.4 L 781.9 665.4 L 782.7 665.5 L 782.7 665.5 L 782.7 665.5 L 782.7 665.5 Z" />
<path class="lake" d="M 1171.6 850.1 L 1171.6 851 L 1171.6 852.5 L 1169.9 853 L 1167.9 853.3 L 1166.6 853.2 L 1166.8 852.5 L 1167.1 851.7 L 1166.9 851.2 L 1166.5 850.8 L 1165 851 L 1163 851 L 1161.6 850.3 L 1160.6 849.3 L 1160.2 848.5 L 1160.2 847.9 L 1161.2 847.8 L 1163.1 847.3 L 1164.7 846.5 L 1166.1 846.1 L 1167.1 846.3 L 1168.5 848.4 L 1170.2 850 L 1171.2 849.7 L 1171.6 850.1 L 1171.6 850.1 L 1171.6 850.1 L 1171.6 850.1 Z" />
<path class="lake" d="M 1322.2 924.3 L 1321.8 924.7 L 1321.8 925.2 L 1319.2 925.9 L 1318.5 926.6 L 1318.1 926.6 L 1317.9 926.4 L 1318.4 925.8 L 1319 925.2 L 1318.4 924.9 L 1317.5 924.4 L 1316.9 924 L 1316.6 924.8 L 1316.3 925.8 L 1315.8 926 L 1315.6 926.6 L 1315.5 927.1 L 1315.2 927.1 L 1314.7 926.7 L 1314.3 926.2 L 1314 926.3 L 1314.1 926.8 L 1313.8 927 L 1313.2 927.1 L 1312.7 927.3 L 1313 926.7 L 1314.2 925.4 L 1315.6 923.1 L 1316.3 921.4 L 1317.9 920.8 L 1318.7 920.1 L 1319 920.2 L 1319.1 920.9 L 1319.2 921.7 L 1318.7 922.1 L 1318.2 922.4 L 1318.3 922.8 L 1318.9 923.3 L 1319 923.6 L 1319.8 924.2 L 1320.6 924.6 L 1321.2 924.7 L 1321.9 924.5 L 1322.2 924.3 L 1322.2 924.3 L 1322.2 924.3 L 1322.2 924.3 Z" />
<path class="lake" d="M 728.1 627.8 L 728.1 628 L 727.6 627.7 L 728.1 627.8 L 728.1 627.8 L 728.1 627.8 Z" />
<path class="lake" d="M 526.8 299.3 L 526 299 L 524.7 297.1 L 523.1 295.1 L 520.7 293.4 L 519.4 292.2 L 518.5 291.4 L 517.3 291.5 L 515.7 294.5 L 513.4 295.2 L 511.4 294.6 L 510.7 293.5 L 509.5 292.9 L 508.7 293.2 L 507.7 293.4 L 506.5 292.8 L 503.3 292.8 L 501.5 294.7 L 500.9 295 L 500.3 294.8 L 499.2 293.5 L 499.1 292.4 L 503 291.7 L 506.3 290.7 L 508.1 289.7 L 508.6 287.1 L 509.2 284 L 509.7 283.2 L 510.4 283.1 L 510.4 284.9 L 509.9 287.5 L 509.6 290.4 L 511.3 292.7 L 513 294.1 L 514.5 293.5 L 516 291.7 L 517.6 289.6 L 518.3 289.6 L 520 291.2 L 521.6 292.6 L 523.5 294.2 L 525.3 296.3 L 526.9 298.6 L 526.8 299.3 L 526.8 299.3 L 526.8 299.3 Z" />
<path class="lake" d="M 603.3 250.8 L 603.4 251.5 L 602.4 252.9 L 601.8 255.2 L 598.8 258.2 L 596.2 261.3 L 595.6 262.7 L 593.8 264.6 L 592.4 266.6 L 593.4 267.3 L 596.7 267 L 596.1 267.8 L 593.4 267.9 L 588.6 269.2 L 585.9 270.1 L 584.1 271.3 L 581.3 271.5 L 579.6 272.4 L 577.8 273.8 L 577.4 273.5 L 576.1 271.2 L 578.2 270.5 L 579.5 270.6 L 580.6 270.4 L 581.4 269.5 L 582.5 268.4 L 583.6 269.1 L 584.2 268.7 L 584.7 268 L 586.8 268.6 L 589.4 268.3 L 591.2 265.7 L 591.8 264 L 593.2 263.6 L 594.7 261.8 L 594.2 259.6 L 594.8 259.3 L 596 259.4 L 598 258 L 598.9 257.1 L 599.9 256.1 L 601.5 253.9 L 601.7 251.5 L 602.5 250.6 L 603.3 250.8 L 603.3 250.8 L 603.3 250.8 Z" />
<path class="lake" d="M 865.3 511.7 L 865.3 511.7 L 865.3 511.7 L 865.3 511.7 L 866 511.9 L 866.8 511.9 L 866.9 512.5 L 866.1 514.2 L 866.1 515.6 L 865.5 516.3 L 864.9 516.3 L 863.9 515.8 L 863.6 513.8 L 862.9 511.7 L 861.8 510.7 L 860.3 510.9 L 860.5 510.6 L 861 510.3 L 860.9 508.7 L 860.2 507.1 L 858.7 505.5 L 858.9 504.7 L 859.8 505 L 860.9 506 L 863.1 507.9 L 864.4 508.2 L 864.5 510.6 L 865.3 511.7 Z" />
<path class="lake" d="M 1125.8 279.6 L 1125.8 279.6 L 1125.8 279.6 L 1125.8 279.6 L 1126.6 282.9 L 1127 285.3 L 1128.2 288.2 L 1129.3 290.9 L 1128.7 293.6 L 1127.8 296.6 L 1126.2 296.5 L 1127.6 293 L 1127.4 289.8 L 1126.3 288.1 L 1125.6 287.9 L 1125 289.2 L 1124.5 288.4 L 1124.4 287 L 1125.2 284.8 L 1125.2 282.3 L 1124.2 279.9 L 1120.8 273 L 1120.5 271.4 L 1122.3 272.6 L 1125.8 279.6 Z" />
<path class="country" d="M 445 376.4 L 471.6 374.6 L 501.4 372.1 L 499.2 376.7 L 534.5 388.1 L 588 404.6 L 634.5 404.4 L 653.1 404.4 L 653.2 394.7 L 693.7 394.7 L 702.3 403 L 714.2 410.4 L 728.2 420.7 L 735.9 433 L 741.8 445.8 L 753.9 452.9 L 773.3 459.9 L 788.1 441.4 L 807.2 441 L 823.7 450.3 L 835.5 466.3 L 843.6 480.1 L 857.4 493.4 L 862.5 509.8 L 869.1 520.8 L 887.4 528.1 L 904 533.2 L 913.1 532.5 L 904 553.1 L 899.9 570 L 898.2 601.3 L 896 612.8 L 900 625.5 L 907.3 637 L 912 655.1 L 927.5 672.6 L 933 685.9 L 942.1 697.5 L 967 703.7 L 976.7 713.5 L 997.2 706.9 L 1015.1 704.6 L 1032.6 700.4 L 1047.4 696.3 L 1062.3 686.8 L 1067.8 673.1 L 1069.8 653.4 L 1073.8 646.6 L 1089.7 640.5 L 1114.4 635 L 1135.2 635.8 L 1149.4 633.9 L 1155 638.8 L 1154.2 650.1 L 1141.6 664 L 1136.1 678.3 L 1140.4 682.4 L 1136.9 692.5 L 1131 710.8 L 1125.1 704.8 L 1120.1 705.1 L 1115.7 705.4 L 1107.3 719.6 L 1103.1 716.8 L 1100.2 717.9 L 1100.4 721.3 L 1078.7 721.1 L 1056.9 721.1 L 1056.9 734.3 L 1046.3 734.4 L 1055 742.2 L 1063.7 747.6 L 1066.3 752.7 L 1070.1 754.1 L 1069.5 762.1 L 1039.4 762.1 L 1028.1 781.2 L 1031.5 785.6 L 1028.7 791.1 L 1028.2 797.9 L 1001.7 772.7 L 989.6 765.1 L 970.5 759 L 957.4 760.7 L 938.6 769.5 L 926.8 771.8 L 910.2 765.6 L 892.7 761.2 L 870.8 750.4 L 853.2 747.2 L 826.7 736.3 L 807.1 725.1 L 801.2 718.8 L 788.1 717.4 L 764.1 710 L 754.4 699.3 L 729.2 686 L 717.5 671.3 L 711.9 659.8 L 719.7 657.6 L 717.3 650.9 L 722.7 644.8 L 722.8 636.7 L 714.9 626.2 L 712.8 616.9 L 704.9 605 L 684.3 581.8 L 660.8 563.5 L 649.4 548.9 L 629.3 539.3 L 625 533.6 L 628.5 519.1 L 616.6 513.7 L 602.8 502.3 L 596.9 485.9 L 584.3 484 L 570.7 471.7 L 559.7 460.3 L 558.7 453 L 546.1 435.3 L 537.8 417.4 L 538.2 408.4 L 521.3 399.1 L 513.4 400.1 L 500.1 393.7 L 496.3 403.2 L 500.2 414.4 L 502.5 432 L 510.5 441.7 L 527.9 457.8 L 531.7 463.3 L 535.3 465 L 538.4 473 L 542.6 472.7 L 547.3 487.8 L 554.4 493.8 L 559.4 502 L 574.1 514 L 581.8 535.8 L 588.8 546 L 595.3 557 L 596.6 569.3 L 607.9 570.1 L 617.3 580.8 L 625.8 591.2 L 625.2 595.4 L 615.3 604 L 611.2 603.9 L 605 589.7 L 589.7 576.3 L 572.8 565 L 560.8 559 L 561.6 541.9 L 558.1 529.2 L 546.9 521.9 L 530.8 511.5 L 527.7 514.5 L 521.8 508.4 L 507.3 502.7 L 493.5 489.1 L 495.2 487.4 L 504.9 488.7 L 513.6 480 L 514.5 469.4 L 496.4 452.7 L 482.7 446.2 L 474.1 431.6 L 465.4 416.2 L 454.5 397.5 L 445 376.4 Z" />

<path class="river" d="M 1161.8 364.8 L 1161.8 365.2 L 1163.2 369.4 L 1163.6 370 M 1169.3 351.8 L 1169.1 352.4 L 1166.3 355.1" />
<path class="river" d="M 1198.2 414.2 L 1200.1 418 L 1200.2 418.9 M 1195.9 397.5 L 1194.5 394.2 L 1194.5 391.8 L 1195.9 387.8 M 1225.2 333.6 L 1219.1 338.2" />
<path class="river" d="M 509.4 329.5 L 509.6 330.7 L 511 332 L 514.5 333.8 L 515.3 334.7 L 515.3 334.8 L 515.3 335.4 L 514.4 336.2 M 504.4 310.4 L 503.1 307.6 L 502.7 305.9 L 503.1 303.9 M 500.9 295 L 501.5 293.3 L 502.6 292.4 L 504.4 291.8 L 506.4 291.6 L 508.7 291.8 L 510.5 292.6 L 511.7 293.9 L 512.8 294.5 L 514 294.6 L 515.5 293.5 L 516.8 291.2 L 518.1 290.7 L 519.4 291.5 L 523.9 295.1 L 526.8 299.2 M 603.3 250.8 L 602.6 251.2 L 602.1 252.4 L 601.9 253.8 L 600.9 255.4 L 599.3 257.2 L 596.6 259.7 L 595.7 260.6 L 595.6 261.3 L 595 262.4 L 593.6 264 L 590.5 268.2 L 588.1 268.9 L 581.5 270.6 L 578.4 271.8 L 577.4 273.5 M 709.8 197.3 L 708.9 197.8" />
<path class="river" d="M 1321.8 925.2 L 1320.2 925 L 1318.9 924.1 L 1316.3 921.4" />
<path class="river" d="M 328.7 183.3 L 322.2 183.7" />
<path class="river" d="M 858.9 504.7 L 859.2 505.2 L 862.5 508.8 L 864.2 511.6 L 865.5 516.3 M 821.8 448.4 L 815.6 444.4 M 675.3 367.6 L 675.6 362.9 M 677.9 361.5 L 678.2 357.2" />
<path class="river" d="M 781 662.8 L 781.3 665.4 M 759.3 648.1 L 762 647.3 M 726.6 627.3 L 727.6 627.7 L 728.2 628.4" />
<path class="river" d="M 322.2 183.7 L 321.3 184.7" />
<path class="river" d="M 384.8 271.9 L 387.1 270.4" />
<path class="river" d="M 1202.8 878 L 1198 875.9 L 1191.5 870.2 L 1177 855.1" />
<path class="river" d="M 1253.9 341.7 L 1259.5 345.9 L 1261.7 348 L 1262.8 350" />
<path class="river" d="M 1153 328.7 L 1144.9 324.5 L 1141.2 323 L 1139.2 322.7 L 1137.2 323 L 1134.2 324 M 1127.8 296.6 L 1127.1 296.2 L 1127.4 295 L 1128.4 292.9 L 1128.1 290.2 L 1126.6 286.9 L 1125.9 284 L 1125.8 281.5 L 1124.5 278 L 1120.5 271.4" />
<path class="river" d="M 1240.4 328.1 L 1243 330.2 L 1244.8 331 L 1246.7 331.2 L 1247.8 331.9 L 1248.5 333.6" />
<path class="river" d="M 1163.6 370 L 1167.7 374.4 L 1168.3 376.6 L 1166.8 378.1 L 1166.3 379.1 L 1166.1 379.4 L 1165.2 379.2 L 1164.1 379.4 L 1162.7 380.4 L 1161.3 380.5 L 1159.9 379.7 L 1158.8 379.7 L 1158 380.2 L 1157.2 380.3 L 1156.2 380 L 1155.6 380.2 L 1155.4 380.7 L 1155.1 380.7 L 1154.7 380.5 L 1154.3 379.4 L 1154 379.1 L 1153.6 379.1 L 1152.7 380.1 L 1151.8 380.2 L 1150.9 379.7 L 1150 379.5 L 1149.3 379.8 L 1149.2 380.3 L 1149.9 381 L 1149.4 381.5 L 1147.8 382 L 1147.3 382.9 L 1148 384.1 L 1147.5 384.8 L 1145.7 385.1 L 1144.8 385.7 L 1144.8 386.9 L 1143.9 387 L 1142.3 386 L 1141 386.4 L 1140 388.1 L 1140 389.4 L 1141.1 390.3 L 1140.8 390.9 L 1139.3 391.3 L 1139 392.1 L 1140.1 393.3 L 1139.9 394.5 L 1138.4 395.6 L 1137.9 396.9 L 1138.4 398.3 L 1138.1 399.3 L 1136.9 399.9 L 1136.5 400.7 L 1136.8 401.8 L 1135.9 402.7 L 1133.8 403.4 L 1132.1 405 L 1130.7 407.4 L 1129.7 408.7 L 1129 408.8 L 1128.6 409.1 L 1128.5 409.6 L 1128.3 414.3 L 1127.9 416.4 L 1127.1 417.1 L 1126.8 418 L 1126.9 419.6 M 1166.3 355.1 L 1165.4 355.7 L 1165.2 356.6 L 1165.3 357.9 L 1164.6 359.1 L 1163.2 360.2 L 1162.7 361.1 L 1163 361.9 L 1162.9 362.9 L 1161.9 364.1 L 1161.8 364.8 M 1193.2 336.1 L 1185.7 337.2 L 1182 337.3 L 1181 337.4 L 1180.4 337.6 L 1180.3 338.1 L 1180.9 338.5 L 1180.9 339 L 1180.2 339.5 L 1179.4 339.6 L 1178.4 339.5 L 1177.8 339.8 L 1177.6 340.4 L 1177.2 340.8 L 1176.8 340.8 L 1176.4 341 L 1176.3 341.4 L 1175.9 341.9 L 1175.2 341.9 L 1174.8 342.3 L 1174.8 342.9 L 1174.4 343.4 L 1173.2 343.8 L 1172.7 344.8 L 1172.9 346.6 L 1172.1 347.9 L 1170.3 348.9 L 1169.5 349.9 L 1169.5 351.1 L 1169.3 351.8" />
<path class="river" d="M 1364.7 158.7 L 1361.4 159.9 L 1359.4 160.1 L 1356.8 159.7 L 1353.6 157.6 L 1352.8 156.1 L 1353.2 154.5 L 1351.5 153.4 L 1348 152.9 L 1345.6 152.2 L 1344.4 151.4 L 1342.7 151.8 L 1340.4 153.3 L 1339 155.1 L 1338.5 157.1 L 1336.6 158.3 L 1333.3 158.7 L 1330.7 159.7 L 1329 161.5 L 1328.2 163 L 1328.2 164.8 L 1327.4 166.3 L 1325.9 166.9 L 1323.7 167.1 L 1321.6 167.7 L 1319.7 168.7 L 1319 169.4 L 1319.5 169.9 L 1319.3 170.5 L 1318.4 171.2 L 1318.8 172 L 1320.5 173 L 1322 174.6 L 1323.3 176.6 L 1323.8 177.9 L 1323.4 178.4 L 1324.2 179 L 1325.7 179.6 L 1325.9 180.4 L 1325.3 182.3 L 1321.6 186.7 L 1318.5 189.4 L 1315.8 190.9 L 1314.8 191.1" />
<path class="river" d="M 1055.1 346.9 L 1054.1 346.2 L 1053.4 345.3 L 1053 344 L 1051.8 343.2 L 1049.9 343 L 1049.4 342.7 L 1049.2 342.3 L 1048.9 342 L 1047.9 342 L 1047.1 341.5 L 1046.6 340.6 L 1045.5 340 L 1043.7 339.8 L 1040.9 338.5 L 1037.2 336.3 L 1035.4 335.8 L 1034.9 335.9 L 1034.1 335.7 L 1033.1 334.7 L 1030.9 331.6 L 1029.9 328.9 L 1029.9 326.4 L 1028.2 324.4 L 1024.9 323 L 1023 321.6 L 1022.5 320.3 L 1021.6 319.4 L 1020.4 318.9 L 1020 317.9 L 1020.3 316.5 L 1019.6 315.9 L 1016.8 316.5 L 1014 314.9 L 1011.7 314.4 L 1008.9 314.4 L 1005.6 313 L 1001.7 310.2 L 997.9 309 L 994.1 309.4 L 991.4 308.9 L 989.8 307.5 L 987.7 307.1 L 984.8 307.8 L 983.4 308.5 L 983.4 309.4 L 982.9 310 L 981.9 310.1 L 980.4 309.7 L 978.3 308.6 L 976.6 309 L 975.3 310.7 L 974.3 311.4 L 973.4 311 L 972.6 311.1 L 971.8 311.8 L 971.1 311.7 L 970.4 310.9 L 968.1 309.9 L 964.2 308.8 L 961.5 307.3 L 960 305.5 L 958.8 304.6 L 957.9 304.5 L 957.5 303.8 L 957.7 302.3 L 957.4 301.2 L 956.4 300.4 L 954.1 300.1 L 950.5 300.2 L 948.5 299.6 L 948.2 298.2 L 946.3 297 L 943 296.1 L 940.8 294.6 L 939.7 292.7 L 937.8 291.7 L 935.1 291.7 L 933.7 291.2 L 933.6 290.3 L 932.4 289.3 L 930.2 288.2 L 928.6 287.7 L 927.6 288 L 927.1 287.5 L 927.2 286.3 L 926.3 285.6 L 924.4 285.2 L 923.2 284.2 L 922.4 282.7 L 921.9 282.6 L 920.9 282.8 L 919.5 283.7 L 918.3 284.3 L 917.3 284.2 L 916.7 283.9 L 916.4 283.3 L 916.9 282.6 L 917.7 282 L 917.8 281.7 L 917.4 281.5 L 916.4 281.4 L 915.4 280.8 L 915.2 279.7 L 916.6 278.7 L 919.6 277.8 L 920.2 277.3 L 920.2 277 L 919.3 276.6 L 918.4 275 L 918 272.3 L 916.7 270.5 L 914.7 269.6 L 913.2 267.4 L 912.5 264.1 L 910.9 260.2 L 908.3 255.7 L 900.1 250.2 L 886.2 243.7 L 878.1 240.3 L 875.9 240.3 L 873 241.2 L 869.3 243.2 L 864.5 247.2 L 858.5 253 L 853.2 255.5 L 846.4 254.4 L 828 250 L 819.7 249.1 L 815.6 250.4 L 808 249.6 L 797.1 246.9 L 786.2 245.7 L 775.5 246 L 768.4 246.6 L 764.9 247.5 L 762 247.3 L 759.5 246.1 L 756.4 245.3 L 750.7 244.4 L 746.9 242.9 L 742.8 242.4 L 737.2 242.3 L 733.1 241.5 L 730.4 239.7 L 726.9 238.5 L 722.4 237.7 L 718 237.9 L 713.7 239.1 L 709.5 238.5 L 705.5 236.1 L 703.5 234.1 L 703.6 232.6 L 702.4 229.7 L 698.9 223.2 L 696.7 219.8" />
<path class="river" d="M 834.4 367.8 L 835.8 366.6 L 838.7 365.7 L 843.4 364.7 L 846.2 363.4 L 846.9 361.7 L 847 359.8 L 846.4 357.6 L 848.7 355.4 L 853.7 353.1 L 858 351.9 L 861.7 351.9 L 863.8 352.5 L 864.3 353.9 L 865.2 354.6 L 866.6 354.6 L 867.7 355.3 L 868.4 356.6 L 869 357.1 L 869.7 356.8 L 870.2 357.2 L 870.7 358.4 L 872.3 359.8 L 876.6 362.4 L 876.3 363.6 L 876.7 364.6 L 877.8 365.8 L 878.7 365.8 L 879.5 364.8 L 880.8 364.8 L 882.8 365.7 L 883.5 366.7 L 882.7 367.5 L 882.8 368.4 L 883.6 369.2 L 885 369.4 L 886.9 369 L 888.3 369.4 L 889 370.6 L 888.9 371.4 L 888.4 371.7 L 888.6 372.1 L 889.3 372.5 L 893.6 373.8 L 896.5 375.5 L 898 377.8 L 899.6 379.2 L 901.5 380 L 901.8 380.6 L 900.6 381.1 L 900.1 381.9 L 900.4 382.9 L 901.6 384 L 903.6 385 L 904.7 385.3 L 905.3 385 L 905.5 385.2 L 905.6 385.4 L 905.5 386.9 L 906.6 388.9 L 909 391.5 L 910.2 393.5 L 910.3 394.8 L 911.9 396.9 L 915 399.7 L 917.1 402.5 L 918.6 406.7 L 924.5 417.3 L 927.8 421.5 L 930.6 422.9 L 932.3 424.4 L 933.1 426.2 L 934.1 427 L 935.6 426.9 L 936.7 427.3 L 937.6 428.2 L 937.5 429.8 L 936.3 432 L 936.2 433.7 L 937.2 434.8 L 938 437.4 L 938.5 441.5 L 939.1 443.6 L 940.3 444.1 L 942 444.4 L 945.5 445.2 L 947.9 446.1 L 949.2 447.4 L 949.8 449.4 L 949.8 452.3 L 949.4 454.4 L 948.7 455.9 L 949.9 457.5 L 952.9 459.1 L 954.4 460.5 L 954.2 461.6" />
<path class="river" d="M 1200.1 418.9 L 1199.9 420.2 L 1198.4 422.4 L 1195.6 429.4 L 1194.7 431.8 L 1194.8 433.9 L 1196.4 435.9 L 1197.1 437.9 L 1196.7 440 L 1196.9 441.2 L 1198.2 441.8 M 1195.9 397.5 L 1196.2 399 L 1195.3 405.5 L 1195.9 409.6 L 1198.2 414.2 M 1219.1 338.2 L 1218.4 340 L 1217.3 341.1 L 1215.5 342.2 L 1214 342.6 L 1212.9 342.2 L 1210.8 343.9 L 1207.6 347.6 L 1203.8 351 L 1199.3 353.9 L 1196.6 356.3 L 1195.6 358 L 1195.4 359.6 L 1195.7 361.2 L 1195.2 363 L 1193.7 365 L 1193.1 367 L 1193.8 370.1 L 1197.1 376.6 L 1198 379.4 L 1197.8 380.5 L 1198.2 381.5 L 1199.3 382.3 L 1199.1 383.2 L 1197.6 384.2 L 1196.6 385.5 L 1195.9 387.8 M 1226.8 325.4 L 1228.1 325.7 L 1228.8 326.7 L 1229.4 328.4 L 1228.5 330.3 L 1225.1 333.6" />
<path class="river" d="M 1241.5 316.9 L 1241.4 318.7 L 1240.3 320.3 L 1236.9 323.3 L 1235.9 325.5" />
<path class="river" d="M 1050.4 786.7 L 1050.7 783.4 L 1049.8 781.6 L 1050 780.8 L 1050.9 780.4 L 1055.8 779.9 L 1059.7 780.4 L 1064.5 781.6 L 1067.3 781.8 L 1068.8 780.4 L 1069 779.7 L 1067.8 779 L 1065.2 778.2 L 1064.5 777.1 L 1065.7 775.6 L 1066 774 L 1065.3 772.5 L 1064.3 771.6 L 1062.8 771.4 L 1061.8 770.8 L 1061.4 770 L 1061.8 768 L 1063.2 764.8 L 1065.4 763.2 L 1068.5 763.2 L 1069.9 762 L 1069.6 759.9 L 1069.8 757.6 L 1070.6 755.5 L 1070.6 754.5" />
<path class="river" d="M 1154.3 824.1 L 1159 821.9 L 1162.5 819.7 L 1164.4 819.1 L 1165.9 819.4 L 1167.4 820.6 L 1168.9 822.5 L 1170.6 823.2 L 1172.3 822.4 L 1173.9 822.1 L 1175.5 822.3 L 1177.4 820.3 L 1179.4 816.2 L 1180.4 813.4 L 1180.3 812.1 L 1181.5 810.9 L 1183.9 809.9 L 1186.3 808 L 1188.7 805.3 L 1190.8 803.7 L 1192.6 803.2 L 1193.2 802.5 L 1192.8 801.5 L 1193 800.1 L 1193.7 798.2 L 1194.7 797.2 L 1196 796.9 L 1196.6 796.3 L 1196.3 795.4 L 1196.6 794.5 L 1197.8 792.9 L 1200.7 791.6 L 1202.4 792 L 1203.8 793.8 L 1205.7 795 L 1208.3 795.7 L 1210.2 795.5 L 1211.6 794.3 L 1212.9 794 L 1214 794.4 L 1214.6 794.2 L 1214.7 793.2 L 1215.3 793 L 1216.4 793.5 L 1217.3 793.7 L 1218.2 793.4 L 1218.5 793 L 1218.7 792.5 L 1219.3 792.1 L 1221.5 792.5 L 1224 791.9 L 1226.7 790.5 L 1228.5 789.8 L 1229.4 790 L 1230.5 789.3 L 1231.7 787.7 L 1234.6 786.9 L 1240.6 787.3" />
<path class="river" d="M 1666.5 2047.2 L 1675.3 2048.1 L 1680.1 2048.9 L 1683.9 2050.1 L 1689.5 2052.7 L 1696.9 2056.9 L 1702 2059.2 L 1704.8 2059.6 L 1707.7 2060.7 L 1710.6 2062.4 L 1714.6 2063.5 L 1719.8 2064.1 L 1724 2066 L 1728.9 2071 L 1729.6 2071.8 L 1730.2 2072.4 M 1541.7 1964.9 L 1543.5 1971.9 L 1544.9 1975 L 1547 1977.2 L 1551.9 1978.3 L 1554.3 1980.7 L 1555.9 1984.8 L 1556.4 1987.6 L 1556 1989.1 L 1555.9 1991.1 L 1556.3 1993.4 L 1555.9 1995.5 L 1554.6 1997.2 L 1553.8 1999.8 L 1553.3 2003.2 L 1553.5 2005.4 L 1554.4 2006.5 L 1555.8 2007.4 L 1557.6 2008.4 L 1561.3 2009 L 1566.9 2009.4 L 1570.4 2010.6 L 1571.8 2012.5 L 1575.2 2013.9 L 1580.6 2014.8 L 1583.8 2015.9 L 1585 2017 L 1589.2 2018 L 1596.5 2019 L 1600.7 2020.4 L 1601.8 2022.3 L 1601.4 2024.2 L 1599.6 2026.1 L 1598.7 2027.6 L 1598.9 2028.9 L 1599.7 2029.7 L 1601.1 2030 L 1602.9 2031.2 L 1605 2033.4 L 1608.2 2034.3 L 1612.7 2033.8 L 1615.5 2034.7 L 1616.7 2036.9 L 1619.2 2038.6 L 1624.6 2040.5 L 1627.1 2041.6 L 1628.3 2042.7 L 1628.9 2044.1 L 1630.3 2045 L 1632.2 2045.4 L 1640.8 2045.7 L 1644.9 2046.2 L 1648.1 2047.1 L 1650.4 2047.3 L 1651.9 2046.8 L 1653.8 2046.9 L 1656.1 2047.6 L 1659.5 2047.8 L 1666.4 2047.2 M 501.4 372 L 499.8 375.7 L 498.6 377.2 L 497.2 377.5 L 495.8 379.1 L 494.3 382.1 L 492.7 384 L 491 384.9 L 490.2 386.1 L 490.2 387.6 L 490.5 387.9 L 490.8 387.9 L 491.3 388.1 L 491.9 389.2 L 492.7 389.8 L 494 389.8 L 494.6 390.2 L 495.3 390.9 L 496.4 391.3 M 514.4 336.2 L 510.5 338.8 L 508.5 340.9 L 506.3 344.4 L 506.7 347.2 L 506.6 349.5 L 506 351.3 L 505.2 353 L 504.1 354.5 L 503 355.5 L 501.8 355.8 L 501.4 357.8 L 501.8 361.6 L 503.1 363.9 L 505.4 364.7 L 506.8 365.9 L 507.3 367.6 L 507.1 369.2 L 506.2 370.9 L 504.6 371.8 L 501.4 372 M 504.4 310.4 L 504 318.8 L 503.9 320.9 L 505.2 323.5 L 508.9 328.3 L 509.4 329.5 M 500.9 295 L 501.1 295.7 L 502.2 297.2 L 502.2 299.7 L 502.4 301.6 L 503 302.7 L 503.1 303.9 M 544.6 288.7 L 536.8 292.4 L 534.8 294.2 L 534.1 295.4 L 534.1 299.1 L 533.3 300.8 L 531.8 300.9 L 528.1 299.9 L 526.8 299.3 M 577.4 273.5 L 574.7 275.4 L 572.5 277.8 L 570 281.3 L 568.6 283.9 L 568.1 285.6 L 568.3 287.8 L 569.2 290.5 L 569 292.3 L 567.7 293.4 L 565.2 293.6 L 561.6 292.9 L 559.1 291.7 L 557.5 290.1 L 556.3 289.5 L 555.3 290 L 554.3 289.9 L 553.5 289.3 L 553.4 288.5 L 554.1 287.5 L 554.1 286.7 L 553.6 286.2 L 552.6 285.9 L 551.1 285.9 L 548.9 286.6 L 544.5 288.7 M 708.9 197.8 L 706 198.6 L 702.7 199.4 L 698.9 199.5 L 696.2 200.2 L 694.3 201.2 L 691.7 203.4 L 690.7 204.1 L 689.8 204.2 L 688.6 203.5 L 687 203.4 L 685.1 203.9 L 682.9 205.6 L 680.5 208.6 L 679.1 210 L 676.7 210.9 L 669.5 211.5 L 665 211.5 L 662.4 212 L 660.1 213 L 656.3 215.4 L 653.1 217.7 L 651.4 220.9 L 648.6 222.7 L 645.7 222.9 L 640 220.7 L 638.5 220.3 L 636.5 220.4 L 634.2 221.7 L 630.8 224.3 L 629.2 226.5 L 628.2 229.4 L 626.9 231.3 L 625.2 232 L 623.7 233.2 L 622.3 234.8 L 621.4 235.5 L 621 235.3 L 620.5 235.7 L 620.2 237.1 L 619.7 237.8 L 619 237.9 L 618.4 238.7 L 618 240.3 L 617 241.9 L 614.3 244.6 L 608.9 249.3 L 606.1 250.9 L 603.3 250.8 M 709.2 192.1 L 709.9 196.6 L 709.8 197.3" />
<path class="river" d="M 807.1 352.9 L 812.7 356.2 L 815.1 359.3 L 816.8 360.8 L 818.5 361.8 L 820.2 362.3 L 822.8 362.3 L 826.6 363.1 L 829.5 364.5 L 834.4 367.8" />
<path class="river" d="M 582.7 363.1 L 577.9 364.6 L 573.3 364.3 L 567.5 362.6 L 562.2 360.4 L 557.6 357.5 L 553.1 356.8 L 548.8 358.3 L 547.1 360 L 548.2 361.9 L 548.6 363.5 L 548.3 364.7 L 546.1 364.9 L 542.1 364 L 539.7 364 L 538.9 364.8 L 537.1 365.5 L 534.3 366 L 529.4 367.8 L 522.4 370.7 L 518.1 372 L 516.6 371.8 L 515.2 372 L 513.8 372.7 L 512.1 372.4 L 510.2 371.1 L 508.2 370.8 L 504.6 371.8 M 654 352 L 656.1 355.9 L 653 361.4 L 650.6 363.4 L 647.9 363.7 L 645.8 365.7 L 644.2 369.6 L 642.1 372.2 L 639.5 373.5 L 636.7 373.6 L 633.8 372.3 L 631.7 370.6 L 630.5 368.3 L 629.2 367 L 627.8 366.4 L 626.1 366.9 L 623.8 368.3 L 621.5 369 L 619.1 369.1 L 615.6 367.1 L 610.9 363.2 L 606.6 361.2 L 602.6 361 L 599 362 L 595.7 364.2 L 592.9 364.7 L 590.5 363.3 L 587.6 362.7 L 582.5 362.9" />
<path class="river" d="M 1303.7 289.8 L 1303.9 290.5 L 1303.3 293.1 L 1303.8 295 L 1305.4 296.6 L 1306 297.8 L 1305.7 298.6 L 1305 299 L 1304.1 299 L 1303.6 299.6 L 1303.8 300.6 L 1304.6 301.3 L 1306.3 301.8 L 1308.2 303.4 L 1311.7 307.8 L 1312.9 309.3 L 1313.2 311.4 L 1313.2 314.6 L 1313.9 316.1 L 1315.4 316.1 L 1316.5 316.5 L 1317.3 317.3 L 1317.3 319.3 L 1316.5 322.3 L 1317.1 324.8 L 1318.9 326.9 L 1319.7 328.5 L 1319.2 329.9 L 1319.4 330.3 L 1320.3 330.3 L 1321.1 331.2 L 1322.1 333.7 L 1323.1 335.1 L 1324 335.4 L 1325.1 337.6 L 1326.9 343.7 L 1330.1 347.1 L 1332.2 348.8 L 1334.2 349.8 L 1335.3 350.8 L 1335.5 351.9 L 1335.1 353.2 L 1333.5 355.3 L 1332.7 356.1" />
<path class="river" d="M 1281.3 271.7 L 1274.8 273.5 L 1270.6 275.3 L 1264.5 277.4 L 1253.9 281 L 1252.1 283.1 L 1245.8 285.9 L 1243.7 286.6 L 1239.7 287.7 L 1235.2 289.3 L 1233.7 290.6 L 1226.8 293.5 L 1223.2 295.8 L 1221.5 297.3 L 1221.6 298.3" />
<path class="river" d="M 1453.3 105.6 L 1453.6 107.6 L 1453.2 108.3 L 1452.3 108.6 L 1451.5 109.3 L 1450.9 110.4 L 1450.9 111.2 L 1451.6 111.9 L 1455.7 114.1 L 1457.7 115.9 L 1458.8 117.9 L 1459 119.5 L 1458.3 120.8 L 1458.2 122.4 L 1458.7 124.3 L 1460.2 124.9 L 1462.8 124.4 L 1464 125.9 L 1463.9 131.3 L 1461.4 138 L 1460.5 142 L 1460.4 145.6 L 1459.3 148.6 L 1457.4 151.1 L 1456.4 154.3 L 1456.3 160.3 L 1455.4 164.8 L 1455.4 167.4 L 1456 170.4 L 1455.8 171.6 L 1455.8 172.3" />
<path class="river" d="M 289.2 171.7 L 287.9 171.1 L 286.8 169.7 L 285.5 167.3 L 284.3 165.9 L 282.5 165.6 L 281.9 165.5 M 335.4 148.9 L 335.9 149.7 L 335.6 150.5 L 334.5 151.6 L 333.2 151.8 L 331.7 151.3 L 329.7 152 L 327.2 153.9 L 324.9 155 L 322.6 155.1 L 320.4 155.9 L 318.2 157.4 L 316 157.9 L 313.6 157.4 L 311.9 157.3 L 310.2 157.9 L 307.5 158.9 L 305.1 158.7 L 302.3 157.9 L 299.5 159.2 L 296.7 162.6 L 295.5 165.7 L 295.7 168.6 L 294.9 170.8 L 293.2 172.5 L 291.6 172.9 L 289.2 171.7" />
<path class="river" d="M 1396.3 1092.9 L 1401.6 1094 L 1404 1094 L 1405.9 1092.8 L 1413.1 1088.8 L 1415.5 1086.9 L 1415.4 1085.8 L 1416.1 1084.6 L 1417.6 1083.3 L 1418.2 1082.2 L 1418 1081.1 L 1419.5 1078.2 L 1422.8 1073.4 L 1424.8 1068.6 L 1425.4 1063.7 L 1427.9 1057.4 L 1432.3 1049.6 L 1435 1043.8 L 1435.9 1040.2 L 1435.8 1038.3 L 1434.7 1038.2 L 1434.9 1034.9 L 1437 1024.9 L 1437.4 1016.9 L 1438.1 1012.7 L 1439.4 1009.7 L 1439.9 1006.9 L 1439.7 1004.5 L 1440.1 1001.9 L 1441.1 999.2 L 1441.6 996.6 L 1441.5 994.1 L 1442.6 991.7 L 1444.9 989.4 L 1446 987 L 1446 984.5 L 1447.6 982.3 L 1450.9 980.3 L 1453.8 978 L 1456.4 975.4 L 1457.4 972.6 L 1456.8 969.9 L 1457.2 965.5 L 1458.7 959.3 L 1459 954.7 L 1458.4 951.6 L 1458.5 949.4 L 1460 947.5 M 1459.8 947.5 L 1460.6 943.3 L 1460.1 938.5 L 1458.7 931.7 L 1456.4 927.8 L 1453.1 926.9 L 1449.8 925.2 L 1446.6 922.6 L 1444.4 921.5 L 1443.2 921.8 L 1442 921.1 L 1440.8 919.5 L 1439.5 918.5 L 1437.7 917.8 L 1436.7 917.3 L 1436.4 916.1 L 1436.6 913.9 L 1436.2 911.5 L 1435.1 908.7 L 1434.9 906.4 L 1435.8 904.5 L 1435.4 902.8 L 1433.7 901.2 L 1434.2 897.8 L 1436.8 892.6 L 1438 888.2 L 1438 884.5 L 1437.2 881.4 L 1435.3 878.2" />
<path class="river" d="M 1458.1 1029 L 1457.2 1030.5 L 1457 1032.1 L 1457.2 1034.3 L 1457.7 1036.2 L 1459 1038.7 L 1461.1 1040.2 L 1461.6 1041.4 L 1461.3 1042.8 L 1465.1 1044.2 L 1473 1045.7 L 1477.7 1045.7 L 1479 1044.4 L 1480.2 1042.4 L 1481.2 1039.7 L 1482.3 1038.1 L 1484.4 1037.4 L 1490.7 1037 L 1493.2 1036.4 L 1493.9 1035.6 L 1495.3 1034.9 L 1497.4 1034.4 L 1499.2 1034.5 L 1500.8 1035.1 L 1502.8 1034.3 L 1505.2 1032.2 L 1509.8 1029.8 L 1516.8 1027 L 1521.3 1025 L 1523.2 1023.6 L 1524.7 1021.9 L 1525.7 1019.7 L 1527.8 1017.4 L 1530.9 1015.1 L 1532.6 1013.4 L 1533 1012.4 L 1536.6 1010.4 L 1543.3 1007.6 L 1548 1003.9 L 1550.9 999.3 L 1554.2 996.9 L 1557.9 996.6 L 1560.3 996.1 L 1562 995 L 1563.8 994.4 L 1564.9 994.7 L 1565.9 995.6 L 1567.6 995.2 L 1570.1 993.6 L 1573.6 993.3 L 1578.3 994.2 L 1584.5 994.2 L 1592.2 993.3 L 1597 992.2 L 1598.9 991.1 L 1602 991.2 L 1609.1 993.2" />
<path class="river" d="M 1094.9 459.7 L 1097.7 455.6 L 1103.4 454.5 M 1097.6 455.6 L 1097 455.1 M 1097 455.1 L 1099.5 451.4 M 1097 455.1 L 1093.6 452.3 L 1091.6 451.1 L 1089.3 450.2 L 1088.2 449.5 L 1088.1 448.8 L 1087 447.9 L 1086 447.4 L 1083.4 445 L 1081 443.1 L 1080.2 441.6 L 1080.1 440.2 L 1080.6 439.1 L 1081.3 438.7 L 1081.9 438.7 L 1082.1 438.4 L 1082.2 438.1 L 1081.9 437.8 L 1079.4 437.4 L 1074.5 437.1 L 1071.2 436.4 L 1069.5 435.1 L 1066.7 434.7 L 1062.9 435.3 L 1060.4 434.9 L 1059.8 434 L 1059.3 433.5 L 1058.2 432.8 L 1057.1 432.8 L 1056.4 432.4 L 1056 431.6 L 1055.2 431 L 1054.3 430.9 L 1053.8 430.5 L 1053.9 430 L 1053.5 429.5 L 1052.7 429.1 L 1052.4 428.6 L 1052.5 428.1 L 1052.3 427.6 L 1051.6 427.2 L 1051.4 426.4 L 1051.8 424.6 L 1051.6 424 L 1050.9 423.3 L 1050.9 422.6 L 1050.5 421.4 L 1049 419.3 L 1047.8 418.4 L 1047 418.2 L 1044.5 418.1 L 1043.9 417.5 L 1044.1 416.7 L 1044.7 415.8 L 1044.6 415.4 L 1044.1 414.5 L 1042.4 413.8 L 1041.8 413.5 L 1041.5 413 L 1041.5 412.5 L 1041.6 411.7 L 1042.6 410.9 L 1042.9 409.8 L 1042.1 407.3 L 1042.4 405.9 L 1043.8 405.6 L 1044.5 404.3 L 1044.5 401.9 L 1045.1 400.2 L 1046.2 399.4 L 1047.2 397.4 L 1048.2 394.3 L 1050.2 391.7 L 1053.3 389.7 L 1054.7 387.9 L 1054.8 386.5 L 1055.2 385.9 L 1055.8 385.6 L 1056.8 384.6 L 1058.1 383.3 L 1058.4 382.5 L 1058.3 381.9 L 1058.2 381.2 L 1057.1 380 L 1055.5 379 L 1054.5 377.5 L 1054.6 376.3 L 1054.2 375.2 L 1053.4 374.3 L 1053.6 373.5 L 1054.7 372.7 L 1054.8 372 L 1053.7 371.3 L 1053.7 370 L 1054.7 368.2 L 1054.7 367 L 1053.5 366.3 L 1053.3 364.6 L 1054.4 360.4 L 1054.2 359.9 L 1053.1 358.7 L 1053 357.1 L 1053.6 355.3 L 1053.3 353.8 L 1052.4 353.3 L 1052.2 352.7 L 1051.9 351.9 L 1052.9 351.1 L 1052.9 350.4 L 1052.1 349.7 L 1052.6 348.8 L 1054.6 347.6 L 1055.1 346.9 L 1055.7 346.2 L 1056 344.4 L 1055.7 343.4 L 1055.3 342.7 L 1055.5 342.4 L 1055.9 342.1 L 1058.2 341.4 L 1058.9 341 L 1059.1 340.5 L 1058.3 339.1 L 1059 337.7 L 1061.2 336.2 L 1062.3 334.9 L 1062.5 333.8 L 1063.5 333 L 1065.5 332.4 L 1066.7 330.3 L 1067.1 326.6 L 1067.7 325.1 L 1068.7 324.8 L 1069.2 324.3 L 1069.4 323.3 L 1070.6 322.2 L 1072.8 321.1 L 1073.7 320 L 1073.5 319.4 L 1073.5 318.6 L 1074.3 317.6 L 1077 316 L 1078.2 313.9 L 1077.8 311.4 L 1078.8 309 L 1081.1 306.9 L 1082.1 304.9 L 1081.7 302.8 L 1082.8 301.1 L 1085.5 299.8 L 1085.9 299.3 L 1085.8 298.9 L 1085.7 298.5 L 1085.7 298.3 L 1085.9 297.9 L 1086.5 297.7 L 1087.3 297.5 L 1087.6 297.1 L 1087.6 296.6 L 1087.1 295.7 L 1087.4 294.6 L 1088.7 292.8 L 1088.9 291.4 L 1088 290.1 L 1088.4 289.5 L 1089 289.3 L 1089.8 289.2 L 1090.1 288.9 L 1090.1 288.6 L 1089.4 287.7 L 1089.6 287 L 1090.8 286.6 L 1091.1 285.3 L 1090.6 283.3 L 1090.7 282.6 L 1090.9 282.3 L 1091.2 282.3 L 1091.6 282.3 L 1092.1 282.9 L 1092.4 283.6 L 1092.7 283.8 L 1093.2 283.6 L 1094.4 281.5 L 1095.5 281 L 1096 280.9 L 1097.2 281.2 L 1097.8 281.4 L 1099 280.6 L 1100.1 278.5 L 1100.7 276.3 L 1100.9 273.9 L 1100.1 272.1 L 1098.5 270.6 L 1097.4 270 L 1097.2 270 L 1096.9 270.2 L 1096.8 270.7 L 1096.9 271 L 1097.1 271.3 L 1097 271.6 L 1096.7 271.6 L 1095.5 271 L 1094.1 269.5 L 1092.4 266.9 L 1092 264.8 L 1092.9 263.3 L 1092.9 261.7 L 1092 260 L 1091.5 258.4 L 1091.5 256.8 L 1089.2 254.4 L 1084.5 251.2 L 1081 249.2 L 1078.8 248.4 L 1076.3 246.8 L 1073.3 244.4 L 1071.8 242.5 L 1071.6 241.2 L 1072.9 237.7 L 1076.8 230.2 L 1077.2 229.3 L 1077.4 228.9 L 1077.2 228.6 L 1076.8 228.3 L 1075.2 227.4 L 1072 226.7 L 1069.1 226.2 L 1066.8 227.1 L 1064.8 225.3 L 1063.1 220.8 L 1058.8 216 L 1052 210.9 L 1048 207.5 L 1046.9 205.7 L 1046 202.9 L 1045.2 199.3 L 1045.2 196.3 L 1046.6 192.7 L 1047.8 192.3 L 1048 191.1 L 1047.7 189 L 1049 187.5 L 1051.9 186.4 L 1054.5 184 L 1056.9 180.4 L 1058 177.8 L 1057.8 176.3 L 1056.9 174.8 L 1055.4 173.4 L 1055 171.6 L 1055.8 169.5 L 1058.4 168.2 L 1062.7 167.7 L 1066.6 166.6 L 1070.1 165.1 L 1072.2 163.4 L 1072.9 161.6 L 1073.9 160.2 L 1075.2 159.1 L 1076.2 157.5 L 1076.8 155.2 L 1076.8 153.5 L 1076.4 152.4 L 1074.9 151.2 L 1072.2 149.7 L 1070.7 148.4 L 1070.4 147.1 L 1069 145.8 L 1066.5 144.4 L 1064.9 142.6 L 1064.2 140.5 L 1061.9 138.9 L 1057.9 137.9 L 1055.3 136.3 L 1054.2 134.1 L 1053.4 131.7 L 1053.1 129 L 1053.5 126.7 L 1054.4 124.8 L 1054.2 123.6 L 1052.7 122.9 L 1051.8 122.1 L 1051.3 121 L 1050.4 112.7 L 1049.4 109.4 L 1048 108.1 L 1044.9 106.7 L 1040.1 105 L 1037.2 103.4 L 1035.6 101.2 L 1032.2 98.6 L 1030 97.5 L 1027.9 97.1 L 1026.2 96.3 L 1024.9 95 L 1023.2 94.2 L 1020.9 93.9 L 1018.4 92.8 L 1014.3 90.2 L 1011 89.4 L 1009.4 88.3 L 1008.4 86.6 L 1007.3 86 L 1006 86.5 L 1004.6 85.4 L 1003.3 82.5 L 1001.9 80.6 L 1000.5 79.8 L 988.2 75.4 L 985.2 74.2 L 983.5 72.9 L 982.2 71 L 981.7 69.7 L 981.9 69 L 981.1 67.8 L 979.2 66 L 978 64.5 L 977.5 63.3 L 977.6 61.7 L 978.2 59.9 L 978.1 58.2 L 977.4 56.5 L 978.8 54.4 L 982.4 51.8 L 984.5 49.8 L 985.3 48.4 L 987.6 47.8 L 991.4 48 L 993.9 47.4 L 995.1 45.8 L 996.7 44.8 L 998.7 44.1 L 1000.6 42.2 L 1002.5 39 L 1002.8 37.1 L 1001.7 36.6 L 1000.7 35.6 L 999.7 33.9 L 998.2 32.7 L 996.2 32 L 994.2 31.8 L 992.3 32.3 L 991.4 32 L 991.5 30.9 L 990.7 30.4 L 989 30.5 L 987.2 29.8 L 984.5 27.5 M 962.6 34 L 964 30.2 L 966.1 27.1 L 968.1 26.4 L 971.7 27.4 M 974.8 27 L 979 28.2" />
<path class="river" d="M 879.9 129.9 L 889.6 134.8 L 893.8 135.9 L 895.8 134.9 L 900 134.3 L 906.6 134.1 L 910.8 134.6 L 912.5 135.7 L 915.9 137 L 921 138.3 L 924 139.8 L 925 141.4 L 926.7 142.5 L 929.3 142.9 L 930.8 145 L 931.5 148.7 L 932.9 151.7 L 935.1 153.9 L 936.2 155.6 L 936.2 156.6 L 936.7 157.8 L 937.8 159 L 938.2 161 L 938 163.9 L 938.4 165.4 L 939.5 165.6 L 940 166 L 939.9 166.6 L 940.2 167.1 L 941.1 167.4 L 941.4 168.2 L 941 169.6 L 941.3 170.4 L 942.3 170.8 L 942.5 171.5 L 941.9 172.4 L 942 173.2 L 942.8 173.8 L 943.4 176.3 L 943.7 180.8 L 943.6 183.4 L 943.1 184.2 L 943.9 185.8 L 945.9 188.2 L 947.2 190.7 L 947.7 193.1 L 949 194.7 L 951 195.4 L 952.4 197 L 953.1 199.4 L 954.7 201.4 L 960.5 204.6 L 961.9 204.6 L 963.6 204.2 L 964.9 204.9 L 965.7 206.7 L 965.6 207.7 L 964.5 207.7 L 963.1 208.8 L 961.5 211 L 961.9 213.1 L 964.3 215 L 966 217 L 966.8 219 L 968.4 220.5 L 972.1 222.1 L 974.8 222.1 L 976.8 221.5 L 978.8 220.2 L 981.1 220.2 L 983.5 221.3 L 986 221.4 L 988.7 220.6 L 992 220.1 L 995.9 219.9 L 998.1 219.5 L 998.3 218.7 L 999.1 218.7 L 1000.3 219.4 L 1002 218.7 L 1004.4 216.6 L 1007.5 216.6 L 1011.5 218.8 L 1013 220.5 L 1011.9 221.7 L 1011.7 223 L 1012.2 224.3 L 1014.4 225.2 L 1018.2 225.6 L 1021.7 227.6 L 1026.6 233 L 1030.6 234.7 L 1034 234.4 L 1038.2 232.8 L 1042.4 231.9 L 1046.8 231.9 L 1051.4 232.8 L 1056.1 234.7 L 1059.9 234.9 L 1062.7 233.3 L 1064.9 232.5 L 1066.3 232.5 L 1068.3 231.3 L 1070.9 228.9 L 1072.9 228.3 L 1074.3 228.7 L 1077.2 229.3 M 836.9 97.7 L 837.4 98.2 L 838.1 99.2 L 840.9 100.2 L 845.7 101.2 L 848 102.2 L 847.7 103.1 L 848 103.9 L 848.9 104.6 L 850.7 105.1 L 853.5 105.3 L 854.4 104.8 L 853.4 103.7 L 853.5 103.1 L 854.9 103.1 L 855.8 103.8 L 856.2 105.2 L 857.6 106.5 L 861 108.1 M 572.1 45.6 L 570.8 45.4 L 569.5 44.4 L 567.8 42.7 L 567.1 41.5 L 567.5 40.9 L 567 39.6 L 565.7 37.7 L 565.3 36.3 L 566.1 35.4 L 574.1 29.7 L 577.9 27.9 L 580.4 28 L 581.7 27.4 L 581.7 26 L 583 25 L 585.3 24.4 L 587.7 22.9 L 590 20.4 L 591.9 19.3 L 593.4 19.5 L 597.5 17.9 L 604.2 14.6 L 608 13.2 L 609 13.8 L 609.8 15 L 610.5 16.9 L 612.1 18.6 L 614.6 19.8 L 621.1 20 L 631.5 19.1 L 636.9 19 L 637.2 19.9 L 638.3 20.8 L 640.3 21.8 L 644.6 22.6 L 654.3 23.6 M 813.4 25.8 L 812.8 26.3 L 813.2 27.6 L 814.2 29.7 L 816.9 31.1 L 821.2 31.6 L 823.2 32.3 L 823 33.1 L 823.5 34.2 L 824.7 35.6 L 825 36.9 L 824.6 37.9 L 825.2 39.9 L 827.9 44.4 M 696.1 13.8 L 697 12.9 L 700.4 12.9 L 706.7 13.5 L 712 13.3 L 716.3 12.2 L 721.1 11.9 L 726.1 12.3 L 729.6 12 L 731.4 11.1 L 734.9 10.7 L 740.1 11 L 746 12.1 L 752.5 13.8 L 756.3 14.4 L 757.8 13.6" />
<path class="river" d="M 1193.1 232.2 L 1192.5 232 L 1191.7 231.4 L 1190.3 231.2 L 1187.9 231.4 L 1187 232.5 L 1187.5 234.5 L 1186.7 236 L 1184.6 237.1 L 1183.2 238.5 L 1182.3 240.3 L 1180.9 241.4 L 1179 241.8 L 1177.4 243.4 L 1176.2 246.3 L 1174.9 248.1 L 1173.5 248.8 L 1171.6 248.6 L 1169.2 247.6 L 1167.7 246.5 L 1167.4 245.4 L 1166.6 244.6 L 1166 244.3 L 1165.6 244.3 L 1165.5 244.4 L 1165.7 244.7 L 1165.5 245.1 L 1164 245.2 L 1163.3 245.6 L 1163.5 246.4 L 1163.2 247 L 1162.3 247.3 L 1161.8 248.1 L 1161.8 249.3 L 1161.2 250.4 L 1160 251.4 L 1158.3 251 L 1156 249.4 L 1153.7 249 L 1151.3 249.9 L 1149.6 251.1 L 1148.4 252.6 L 1147.3 253 L 1145.7 251.8 L 1141.9 250.2 L 1139.9 249.9 L 1138.5 250.3 L 1137.4 250.1 L 1137.1 249.7 L 1136.8 249.5 L 1136.6 249.7 L 1136.5 251.1 L 1136.2 252 L 1135.5 252.4 L 1135 252.1 L 1134.7 251.1 L 1133.9 250.8 L 1132.6 251.1 L 1131.3 251 L 1130.1 250.4 L 1129.7 250.5 L 1129.4 250.7 L 1129.5 251.8 L 1129.2 252.7 L 1128.6 253.3 L 1127.8 253.4 L 1126.7 253.1 L 1126.2 253.4 L 1125.5 253.8 L 1124.2 255.5 L 1123.9 257.3 L 1124.7 259.4 L 1122.7 261 L 1118.1 262.2 L 1115.6 263.3 L 1115.3 264.3 L 1115.6 265.7 L 1116.6 267.7 L 1116.7 269 L 1116.1 269.8 L 1112.8 269.3 L 1106.7 267.5 L 1102.7 267.6 L 1100.6 269.5 L 1099.9 270.9 L 1100.1 272.1 M 1314.8 191.1 L 1311 189.4 L 1309.3 187.9 L 1308.3 186.1 L 1306.5 185.5 L 1302.4 186.5 L 1299.6 187.5 L 1299.1 188.4 L 1299.9 189.6 L 1300.4 191.2 L 1300.4 193.1 L 1298.9 197.3 L 1295.7 203.7 L 1294.1 207.8 L 1294.1 209.5 L 1292 211.7 L 1287.9 214.3 L 1285 216 L 1283.3 216.5 L 1281.9 216.5 L 1280.8 215.8 L 1279.6 216.3 L 1278.2 217.8 L 1276.9 218.6 L 1275.7 218.7 L 1274.7 219.7 L 1273.9 221.6 L 1273.1 222.7 L 1272.3 223 L 1272.3 224 L 1272.9 225.7 L 1272.8 226.3 L 1272.5 226.3 L 1272.2 226.2 L 1271.4 226.6 L 1270.5 227.5 L 1270.1 227.5 L 1269.9 227.4 L 1269.6 226.1 L 1268.9 225.3 L 1267.7 224.8 L 1266 225.9 L 1263.9 228.7 L 1262.9 230.5 L 1263.3 231.7 L 1263.5 233.5 L 1263 234.3 L 1261.8 234.5 L 1260.9 235.5 L 1260.2 237.2 L 1258.6 238.3 L 1256 238.7 L 1253.1 237.9 L 1249.9 235.8 L 1247.9 233.7 L 1247.1 231.8 L 1244.3 231.7 L 1239.5 233.5 L 1235.9 233.8 L 1233.5 232.5 L 1231.7 232.1 L 1229.8 232.5 L 1228.1 233.2 L 1226.7 232.8 L 1224.9 231.3 L 1222.1 230.3 L 1218.2 229.8 L 1215.5 228.2 L 1214.1 225.6 L 1212.5 223.9 L 1210.8 222.9 L 1208.9 222.6 L 1206.9 223 L 1205.4 222.8 L 1204.3 222 L 1202.9 222.1 L 1201.2 223.1 L 1200.7 224.1 L 1201.3 225.1 L 1201.3 226 L 1200.6 226.6 L 1200.9 227.1 L 1201.9 227.4 L 1202.4 228.1 L 1202.1 229.3 L 1199.7 230.4 L 1195.2 231.7 L 1194.3 232.1 L 1193.5 232.3 L 1193.1 232.2" />
<path class="river" d="M 1321.8 925.2 L 1324.7 928.4 L 1325 929.4 M 1316.3 921.4 L 1316.3 920.5 L 1316.5 919.2" />
<path class="river" d="M 367.7 161.6 L 367 165.1 L 365.7 166.5 L 361.8 167.6 L 355 168.9 L 351.6 171.4 L 351.7 175.2 L 351.3 177.6 L 350.3 178.8 L 349.1 178.7 L 347.7 177.4 L 346.2 177.2 L 344.7 178 L 342.7 178.2 L 340.2 177.7 L 338.2 177.8 L 336.4 178.6 L 334.9 178.5 L 333.5 177.7 L 332.5 177.7 L 331.8 178.5 L 331.6 179.4 L 332 180.5 L 331.3 181.6 L 328.7 183.3" />
<g class="city"><circle cx="1455.1587965184335" cy="184.7090994992771" r="5" /><text x="1467.1587965184335" y="188.7090994992771">New York</text></g>
<g class="city"><circle cx="866.4414837052834" cy="683.0236583405513" r="5" /><text x="878.4414837052834" y="687.0236583405513">Mexico City</text></g>
<g class="city"><circle cx="419.1388639275556" cy="340.9763584163994" r="5" /><text x="431.1388639275556" y="344.9763584163994">Los Angeles</text></g>
<g class="city"><circle cx="1309.2434536893627" cy="534.4188628442919" r="5" /><text x="1321.2434536893627" y="538.4188628442919">Miami</text></g>
<g class="city"><circle cx="1427.426460900987" cy="202.87423449927604" r="5" /><text x="1439.426460900987" y="206.87423449927604">Philadelphia</text></g>
<g class="city"><circle cx="921.2035739277413" cy="370.8899997552429" r="5" /><text x="933.2035739277413" y="374.8899997552429">Dallas</text></g>
<g class="city"><circle cx="1212.2468039579915" cy="348.2310302245911" r="5" /><text x="1224.2468039579915" y="352.2310302245911">Atlanta</text></g>
<g class="city"><circle cx="955.0749860353242" cy="441.8690902473292" r="5" /><text x="967.0749860353242" y="445.8690902473292">Houston</text></g>
<text class="map-title" x="80" y="105">Mexico Physical Study Map</text>
<text class="map-subtitle" x="80" y="145">Landmark: Chichen Itza | Study terrain and water systems</text>
  <text class="footer" x="80" y="1036">Made with Natural Earth. Free vector and raster map data @ naturalearthdata.com.</text>
</svg>
