<?xml version="1.0" encoding="UTF-8"?>
<svg xmlns="http://www.w3.org/2000/svg" width="1600" height="1100" viewBox="0 0 1600 1100" role="img" aria-labelledby="title desc">
  <title id="title">Malaysia Physical Study Map</title>
  <desc id="desc">Made with Natural Earth. Free vector and raster map data @ naturalearthdata.com.</desc>
  <defs>
    <linearGradient id="terrain" x1="0" x2="1" y1="0" y2="1">
      <stop offset="0%" stop-color="#6c8c53" />
      <stop offset="42%" stop-color="#d5c487" />
      <stop offset="72%" stop-color="#b88b5f" />
      <stop offset="100%" stop-color="#f1f5ee" />
    </linearGradient>
    <filter id="softShadow" x="-10%" y="-10%" width="120%" height="120%">
      <feDropShadow dx="0" dy="10" stdDeviation="12" flood-color="#0f172a" flood-opacity="0.16" />
    </filter>
    <style>
      .neighbor { fill: #ffffff; stroke: #94a3b8; stroke-width: 1.2; opacity: 0.72; }
      .country { fill: url(#terrain); stroke: #1f2937; stroke-width: 4; filter: url(#softShadow); }
      .admin1 { fill: none; stroke: #64748b; stroke-width: 1.1; stroke-dasharray: 6 7; opacity: 0.75; }
      .river { fill: none; stroke: #1d9bd1; stroke-width: 3; stroke-linecap: round; opacity: 0.88; }
      .lake { fill: #8ed1ea; stroke: #0ea5e9; stroke-width: 1.5; opacity: 0.8; }
      .city circle { fill: #ef4444; stroke: #ffffff; stroke-width: 2; }
      .city text, .terrain-label { fill: #172033; font: 700 24px system-ui, sans-serif; paint-order: stroke; stroke: #ffffff; stroke-width: 5; stroke-linejoin: round; }
      .map-title { fill: #0f172a; font: 800 46px system-ui, sans-serif; }
      .map-subtitle { fill: #475569; font: 600 24px system-ui, sans-serif; }
      .footer { fill: #64748b; font: 500 18px system-ui, sans-serif; }
    </style>
  </defs>
  <rect width="100%" height="100%" fill="#d8edf0" />
  <rect x="40" y="40" width="1520" height="1020" rx="32" fill="#ffffff" opacity="0.54" />
  <path class="neighbor" d="M 1966.2 824.8 L 1966.8 946 L 1967.5 1067.2 L 1934.4 1036.7 L 1896.6 1029.2 L 1887.4 1039.8 L 1840.3 1040.9 L 1856.1 1010.7 L 1879.5 1000.3 L 1869.8 959.9 L 1852 928.7 L 1779.9 897.2 L 1749.2 894.1 L 1693.4 859.7 L 1682.4 877.8 L 1668.2 881.1 L 1659.7 867.5 L 1659.6 851.3 L 1631.2 833 L 1671.2 819.6 L 1697.8 820.4 L 1694.6 810.5 L 1640.2 810.4 L 1625.5 788.3 L 1592.3 781.4 L 1576.5 763 L 1626.7 754 L 1645.7 741.9 L 1705.4 757.2 L 1711.3 771 L 1721.7 831.1 L 1760.1 853.4 L 1791.2 813.9 L 1833.9 791.5 L 1866.9 791.5 L 1898.7 804.4 L 1926.3 817.7 L 1966.2 824.8 Z M 1370.2 1058.8 L 1373.9 1066.1 L 1374.6 1077.4 L 1350.3 1105.2 L 1318.5 1113.4 L 1314.1 1108.9 L 1317.4 1096.3 L 1333.4 1073.6 L 1370.2 1058.8 Z M 1713.8 984.5 L 1710.1 956.5 L 1716.7 943.2 L 1724.5 930.6 L 1733 941.5 L 1732.9 959.2 L 1713.8 984.5 Z M 1106.7 574.3 L 1085.5 607.9 L 1112.9 643.1 L 1106.4 660.2 L 1148.1 694.6 L 1104.1 699 L 1091.7 724.4 L 1093.3 758 L 1057.5 783.5 L 1056.5 820.5 L 1042.2 877.4 L 1036.7 864.1 L 994.5 880.9 L 979.8 858.1 L 953.3 856 L 934.7 844.1 L 890.5 857.5 L 876.9 839.5 L 852.6 841.5 L 821.9 837.3 L 816.3 787.4 L 797.7 777.1 L 779.8 745.3 L 774.7 712.7 L 779 678.3 L 801.1 653.6 L 807.3 678.4 L 832.7 699.4 L 856.7 691.9 L 880.4 694.5 L 902.1 675.7 L 919.9 672.5 L 955.1 682.9 L 985.4 675 L 1004.5 623.3 L 1018.8 610.3 L 1031.7 568 L 1074.4 568.1 L 1106.7 574.3 Z M 1533.8 832.4 L 1574.7 843.2 L 1588.3 871.6 L 1556.9 856.3 L 1525.8 853.2 L 1504.8 855.6 L 1479.1 854.3 L 1487.9 833.9 L 1533.8 832.4 Z M 1441 869.1 L 1415.3 862.3 L 1408.1 846.3 L 1445.7 844.5 L 1454.9 856.8 L 1441 869.1 Z M 1480.3 647.3 L 1483 667.6 L 1505 670.9 L 1508.4 686.1 L 1506.5 718.6 L 1487.3 714.9 L 1481.7 737.5 L 1497 757.2 L 1486.6 761.6 L 1471.6 738.1 L 1460.5 690.5 L 1468 660.8 L 1480.3 647.3 Z M 1294.3 695.6 L 1337 694.1 L 1373.8 667.1 L 1380.3 675.4 L 1350.4 712.3 L 1322.4 719.4 L 1286.7 712.1 L 1224.7 714 L 1192.2 719.3 L 1186.9 747.5 L 1220.2 780.5 L 1240.3 763.7 L 1309.6 751.1 L 1306.6 768.2 L 1290.4 762.8 L 1274.2 784.6 L 1241.5 799 L 1276.7 846.6 L 1269.9 859.4 L 1303.3 902.3 L 1303 926.7 L 1283.1 937.7 L 1268.6 924.6 L 1286.5 894.1 L 1250 908.5 L 1240.8 898.2 L 1245.6 883.9 L 1218.8 862.1 L 1221.6 825.9 L 1196.8 837.2 L 1199.9 880.5 L 1201.4 933.7 L 1177.9 939.1 L 1161.9 928.2 L 1172.5 894 L 1166.8 858.1 L 1151.1 857.8 L 1139.6 832.3 L 1155 808 L 1160.3 778.5 L 1178.9 722.4 L 1186.7 707.1 L 1218.4 679.5 L 1247.4 690.5 L 1294.3 695.6 Z M 1196.4 1109.6 L 1147 1083.5 L 1181.7 1076.2 L 1201.2 1087.5 L 1214.3 1098.8 L 1212 1108.9 L 1196.4 1109.6 Z M 1235.3 1045.6 L 1260.1 1042.7 L 1293.4 1029.1 L 1287.9 1049.8 L 1232.1 1060.3 L 1182.6 1055.7 L 1182.5 1042.1 L 1212 1034.4 L 1235.3 1045.6 Z M 1120.7 1039.1 L 1143.7 1036 L 1152.9 1051.9 L 1110 1059.3 L 1084.2 1064.3 L 1064.2 1064 L 1077 1042.6 L 1097.4 1042.3 L 1107.3 1029.2 L 1120.7 1039.1 Z M 757.4 966.9 L 762.4 980.2 L 833.7 983.9 L 841.9 968.5 L 910.8 986.4 L 924.4 1010.5 L 980.1 1017.3 L 1025.7 1039.4 L 983.3 1053.6 L 942.4 1038.6 L 908.8 1039.6 L 870.2 1036.8 L 835.4 1030.2 L 792.3 1016 L 765 1012.3 L 749.6 1016.9 L 681.8 1001.6 L 675.3 985.6 L 641.3 982.9 L 666.8 947.4 L 711.9 949.6 L 741.9 964.1 L 757.4 966.9 Z M 604.3 768.5 L 610.6 794.4 L 623.5 815.2 L 650.8 818.5 L 668.9 842 L 659.6 888.2 L 658.1 945.8 L 616.9 946.5 L 585.6 915.5 L 537.9 885.1 L 522 862.5 L 493.8 832.3 L 475.4 804.4 L 447.1 752.3 L 414.4 721.4 L 403.5 689.4 L 389.8 660.4 L 356.3 637 L 336.8 605.1 L 308.9 584.3 L 270.1 543.4 L 266.8 524.4 L 290.7 525.9 L 348.3 533.1 L 381.2 569.5 L 409.9 594.7 L 430.4 610.1 L 465.7 650.1 L 503.5 650.7 L 534.7 676.2 L 556.2 707.3 L 584.5 724.3 L 569.6 754.6 L 590.9 767.5 L 604.3 768.5 Z" />
<path class="neighbor" d="M 635.8 197.5 L 601 192.1 L 552.9 199.2 L 529.1 230.2 L 537.9 275.1 L 504.5 258 L 472.7 258.7 L 478.2 229.5 L 445.4 229.7 L 442.5 270.6 L 422.4 324.9 L 410.3 357.7 L 412.9 384.6 L 437.1 385.8 L 452.2 419.7 L 458.9 451.9 L 479.6 473.2 L 502.2 477.5 L 521.4 496.8 L 509.3 512.1 L 484.7 516.6 L 481.8 497.5 L 451.5 481.2 L 445 487.8 L 430.3 473.5 L 424 455.1 L 404.2 434.1 L 386.2 416.5 L 380.1 438.4 L 373 417.7 L 377.1 394.5 L 388 358.9 L 406 320.6 L 426.5 286 L 411.9 252.1 L 412.5 234.8 L 408.3 214.1 L 383.5 184.5 L 374.6 165.9 L 387.4 159 L 401 126.7 L 385.8 102.1 L 362.2 75 L 344.2 42.4 L 359.9 35.6 L 376.9 -4.6 L 403.1 -6.3 L 424.8 -22.4 L 446.1 -31 L 462.2 -19.5 L 464.4 2.8 L 489.5 4.5 L 480.3 43.7 L 481.2 77 L 520.4 54.9 L 531.5 61.4 L 553.3 60.3 L 560.8 47.4 L 588.9 50 L 617.2 80.2 L 619.5 116.9 L 649.6 149.3 L 648 180.7 L 635.8 197.5 Z" />
<path class="neighbor" d="M 446.1 -31 L 424.8 -22.4 L 403.1 -6.3 L 376.9 -4.6 L 359.9 35.6 L 344.2 42.4 L 362.2 75 L 385.8 102.1 L 401 126.7 L 387.4 159 L 374.6 165.9 L 383.5 184.5 L 408.3 214.1 L 412.5 234.8 L 411.9 252.1 L 426.5 286 L 406 320.6 L 388 358.9 L 384.4 331.3 L 395.9 302.8 L 383.4 280.8 L 386.4 240.3 L 371.3 221 L 359.2 176.5 L 352.5 129.5 L 336.4 98.8 L 311.9 117.4 L 269.6 143.9 L 248.8 140.6 L 225.7 131.9 L 238.6 85.8 L 230.8 51 L 201.7 8.1 L 206.2 -5.3 L 184.5 -10.1 L 158.1 -40.4 L 155.6 -70.3 L 168.6 -64.7 L 169.4 -91.3 L 187.7 -100.2 L 183.8 -115.9 L 192.2 -128.6 L 193.6 -167.1 L 222.7 -158.6 L 239.3 -189.3 L 241.2 -207.4 L 261.7 -238.6 L 260.5 -259.8 L 308.7 -285.5 L 335.3 -278.8 L 332.2 -301.7 L 345.2 -308.5 L 342.4 -322.6 L 364.2 -325.4 L 376.6 -303.5 L 392.8 -294.6 L 393.9 -266.2 L 392.4 -235.5 L 357.2 -204.5 L 352.8 -160.3 L 392 -166.5 L 400.9 -132.3 L 424.4 -125.1 L 413.6 -94.2 L 441.2 -80.2 L 457.3 -73.4 L 484.6 -84.2 L 485.7 -68.9 L 454 -44.7 L 446.1 -31 Z" />
<path class="neighbor" d="M 603 338.3 L 635.1 323.3 L 674.2 320.6 L 657.8 298.1 L 720.3 269.5 L 724.9 224.9 L 716.3 200.1 L 723.1 162.9 L 713.7 136.7 L 685.6 110.8 L 662.1 78.1 L 631.2 34.1 L 586.7 11.9 L 597.4 -1.5 L 621.1 -11.2 L 606.7 -43.6 L 560.9 -43.9 L 544.2 -77.7 L 522.5 -107.1 L 542.5 -116.2 L 572.1 -116 L 608.3 -120.3 L 640 -140.1 L 657.9 -126.1 L 691.9 -119.3 L 686 -97.9 L 703.7 -82.8 L 741.1 -73.2 L 691.5 -41.3 L 660.5 -6.2 L 652.3 19.6 L 680.8 58.8 L 715.5 107.4 L 749.3 130.3 L 771.9 160.2 L 788.9 229 L 783.9 294.4 L 752.9 318.9 L 710.3 342.8 L 680 373.8 L 633.6 408.4 L 620.1 384.6 L 630.5 359.4 L 603 338.3 Z" />
<path class="neighbor" d="M 342.4 -322.6 L 345.2 -308.5 L 332.2 -301.7 L 335.3 -278.8 L 308.7 -285.5 L 260.5 -259.8 L 261.7 -238.6 L 241.2 -207.4 L 239.3 -189.3 L 222.7 -158.6 L 193.6 -167.1 L 192.2 -128.6 L 183.8 -115.9 L 187.7 -100.2 L 169.4 -91.3 L 149.8 -150.3 L 139.5 -150.2 L 133.5 -126.4 L 113.1 -145.7 L 124.6 -166.9 L 141.2 -169 L 158.4 -200.5 L 136.9 -206.8 L 102.4 -206.3 L 67.1 -211.4 L 63.8 -237.2 L 46 -239.1 L 16.6 -255.1 L 3.4 -229.9 L 30.3 -210.2 L 7 -196.4 L -1.2 -182.8 L 21.7 -172.9 L 15.3 -150.4 L 28.2 -122.5 L 34 -91.9 L 28.7 -78.3 L 3.4 -78.8 L -42.4 -71 L -40.3 -43.1 L -60.1 -21.1 L -113.7 3.9 L -155.3 47.7 L -183.2 71.1 L -220.3 95.5 L -220.3 112.6 L -238.9 121.7 L -272.3 135.1 L -289.7 137 L -300.9 165.4 L -293.1 213.7 L -291.1 244.6 L -306.9 279.9 L -307.1 343.1 L -326.3 344.9 L -343.2 373.2 L -331.9 385.5 L -365.8 396 L -378.3 421.3 L -393.3 432 L -428.5 397.3 L -445.7 345.2 L -459.9 307.7 L -473 290.1 L -492.7 254.4 L -501.9 207.9 L -508.4 184.7 L -542.2 133.6 L -557.6 61.6 L -568.7 14 L -568.6 -31 L -575.8 -65.9 L -629.9 -43.6 L -656.1 -48.1 L -704.7 -93.1 L -686.8 -106.6 L -697.8 -121.1 L -741.4 -152.7 L -716.6 -177.5 L -634.8 -177.4 L -642.2 -209.3 L -663.1 -228.2 L -667.3 -256.8 L -691.7 -273.5 L -650.7 -312.5 L -607.5 -309.7 L -568.6 -348.6 L -545.3 -386.4 L -509.2 -423.7 L -509.8 -450.2 L -478.1 -471.7 L -508.1 -490 L -521 -515.2 L -534.2 -547.8 L -515.9 -563.8 L -459.5 -554.7 L -418.1 -560.3 L -382.2 -591.5 L -342.2 -547.9 L -346 -517.6 L -331.2 -498.6 L -332.4 -479.6 L -359.1 -484.6 L -348.7 -443.6 L -312.2 -420.1 L -260.5 -394.1 L -284.1 -377.2 L -298.5 -342.4 L -262.5 -328.4 L -227.4 -310.1 L -178.9 -289.3 L -128 -284.4 L -106.5 -265.5 L -77.8 -262 L -33.1 -253.3 L -2.1 -253.9 L 2.1 -268.7 L -2.7 -292.3 L 0.1 -308.3 L 22.8 -316.1 L 25.9 -286.8 L 26.7 -279.4 L 60.5 -265.3 L 83.9 -271.1 L 115.3 -268.6 L 145.6 -269.7 L 148.2 -292.5 L 133.1 -304.4 L 163.1 -309 L 196.9 -336.7 L 239.8 -360.4 L 271 -351.2 L 297.5 -366.9 L 314.9 -343.8 L 302.3 -328.2 L 342.4 -322.6 Z" />
<path class="neighbor" d="M 1216.4 255.8 L 1197.4 227.5 L 1229.3 228.8 L 1242.2 242.2 L 1232.3 274.4 L 1216.4 255.8 Z M 1281.6 357.1 L 1290.9 346.7 L 1295 323.6 L 1315.5 321.4 L 1309.5 346.4 L 1337 310.5 L 1333.5 346 L 1320.1 358.2 L 1308.5 381.7 L 1296.8 392.7 L 1273.9 367 L 1281.6 357.1 Z M 1422.5 415.3 L 1426.3 440 L 1428.5 460.9 L 1415.8 494.9 L 1402.2 457 L 1384.8 475.8 L 1396.7 503.2 L 1386.1 520.7 L 1342.3 499.1 L 1331.9 472.2 L 1343.2 454.5 L 1319.6 436.9 L 1308 452.3 L 1290.5 450.9 L 1263 471.6 L 1256.8 460.8 L 1271.4 429.4 L 1294.8 419 L 1315.1 405 L 1328.2 421.8 L 1356.5 411.6 L 1362.6 395 L 1388.8 394 L 1386.6 365.3 L 1416.8 382.9 L 1419.9 401.6 L 1422.5 415.3 Z M 1129.8 381.8 L 1080.4 417.1 L 1098.6 391.1 L 1125.4 368.1 L 1147.8 342.4 L 1167.3 305.4 L 1173.9 335.8 L 1149.3 356.2 L 1129.8 381.8 Z M 1272.3 50.6 L 1266.3 66 L 1278.9 92.6 L 1269.2 123.5 L 1247.2 135.8 L 1241.4 165.8 L 1249.7 195.4 L 1269.4 199.5 L 1285.9 195.1 L 1332.3 215.7 L 1328.8 236 L 1340.9 244.9 L 1337 262 L 1308 243.8 L 1294.3 224.3 L 1284.7 237.9 L 1261.1 215.7 L 1227.3 221.2 L 1208.8 212.9 L 1210.7 197.6 L 1222.3 188.1 L 1211.2 179.5 L 1206.4 192.9 L 1188 171.5 L 1182.5 155.4 L 1181.1 119.8 L 1196.1 132 L 1199.9 73.8 L 1212 40.1 L 1234.5 40.2 L 1257.5 50.8 L 1268.9 41.1 L 1272.3 50.6 Z M 1261.2 303.7 L 1255.4 286 L 1277.8 297.5 L 1301.4 297.5 L 1300.7 313 L 1283.5 328.8 L 1259.9 340 L 1258.6 322.7 L 1261.2 303.7 Z M 1390 276 L 1400.4 317.5 L 1371.8 307.6 L 1372.5 320.1 L 1381.6 343 L 1363.9 351.4 L 1362.4 325.2 L 1351.2 323.3 L 1345.4 300.8 L 1367.3 303.7 L 1366.8 289.7 L 1344.1 261.3 L 1379.8 262.1 L 1390 276 Z" />
<path class="neighbor" d="M 1016.3 525.6 L 1014.6 543.9 L 1012.4 567.7 L 994.7 566.5 L 986.9 579.2 L 969.9 559.9 L 984.6 546 L 1016.3 525.6 Z" />
<path class="lake" d="M 409.9 638.5 L 410 639.1 L 408.1 640 L 404.6 640.8 L 401.2 641 L 398.9 640.7 L 397.9 639.7 L 395.5 636.4 L 393.1 633.2 L 393.9 632.4 L 396.6 634.7 L 400.3 636.1 L 401.9 635.9 L 402.7 635.1 L 401.6 633.1 L 398.2 628.9 L 395.7 626.7 L 394.3 626.9 L 393.1 628.2 L 392.1 629.9 L 391.3 629.6 L 389.1 626.6 L 387 623.2 L 387.2 621.9 L 388.7 621.2 L 391.3 621.4 L 393.8 622.1 L 396.9 624.1 L 399.8 626.6 L 401.6 629.1 L 403.9 632.4 L 406.2 635.9 L 408.4 637.6 L 409.9 638.5 L 409.9 638.5 L 409.9 638.5 L 409.9 638.5 Z" />
<path class="country" d="M 445 487.8 L 451.5 481.2 L 481.8 497.5 L 484.7 516.6 L 509.3 512.1 L 521.4 496.8 L 530 500.3 L 551.9 522.8 L 567.5 547.7 L 569.7 572.7 L 565.7 589.6 L 569.3 602.4 L 572 624.4 L 585.1 634.6 L 599.8 667.5 L 599 680.1 L 572.7 682.6 L 537.5 655 L 493.5 625.5 L 489.2 606.6 L 467.7 581.7 L 462.5 550.9 L 449.1 530.6 L 453.2 503.6 L 445 487.8 Z M 1106.7 574.3 L 1074.4 568.1 L 1031.7 568 L 1018.8 610.3 L 1004.5 623.3 L 985.4 675 L 955.1 682.9 L 919.9 672.5 L 902.1 675.7 L 880.4 694.5 L 856.7 691.9 L 832.7 699.4 L 807.3 678.4 L 801.1 653.6 L 828.3 666.3 L 857.1 659.4 L 864.6 627.9 L 880.4 620.9 L 925 612.8 L 951.7 583.4 L 969.9 559.9 L 986.9 579.2 L 994.7 566.5 L 1012.4 567.7 L 1014.6 543.9 L 1016.3 525.6 L 1044.9 499.8 L 1063.7 470.7 L 1078.7 470.6 L 1097.8 489.4 L 1099.5 505.5 L 1124 515.9 L 1155 527.1 L 1152.4 541.7 L 1127.4 543.5 L 1134 561.7 L 1106.7 574.3 Z" />

<path class="river" d="M 993.5 707.2 L 994.7 711.1 L 994 712.7 L 991.8 713.2 L 989.7 715 L 986.8 719.7 L 986.8 721.4 L 986 722.2 L 984.4 722.9 L 981.7 722.8 L 978.1 722 L 975.3 721.7 L 973.3 722 L 972 722.9 L 971.2 724.2 L 970.5 724.7 L 969.5 726.7 L 970.5 728.3 L 972.6 729.8 L 971.6 732.2 L 967.5 735.5 L 965.3 738.8 L 964.8 742.2 L 967.5 746.9 L 973.4 752.9 L 978.2 755.6 L 982.1 754.9 L 984.1 753.8 L 984.2 752 L 986.1 751.1 L 989.9 751.2 L 993 752.8 L 995.3 755.9 L 996.6 758.8 L 996.9 761.4 L 996 763.3 L 993.8 764.4 L 993.4 766.3 L 994.8 768.8 L 994.5 771.4 L 992.3 773.9 L 992.3 775.8 L 994.5 776.9 L 995.3 779.7 L 994.4 786.4 L 991.9 794 L 991.8 796.7 L 993 797 L 994 798.5 L 995 801.1 L 994.9 803.9 L 993.9 806.9 L 994 810.8 L 995.4 815.7 L 994.5 821.3 L 991.3 827.7 L 990.3 832.4 L 991.4 835.3 L 991.6 837.7 L 990.8 839.6 L 989 841.6 L 986 843.8 L 984.1 846.8 L 981.9 853.7" />
<path class="river" d="M 462.3 749.2 L 466.4 749.4 L 468.7 750.5 L 470.8 752.6 L 473 753.3 L 476.7 752.2 L 479.2 752.6 L 480.6 751.9 L 481.6 750.1 L 483.3 749.9 L 485.7 751.4 L 488.6 751.8 L 492.2 751.3 L 494.8 751.5 L 497 751.7 L 498.8 750.9 L 502.4 747.1 L 507.6 746.2 L 514.4 748.2 L 519.8 748 L 525.7 744.6 L 530 741.4 L 535.6 742.2 L 543.8 746 L 547.5 747 L 551 746 L 557.3 742.1 L 561.9 740.5 L 566.2 741.6 L 568.4 741.6" />
<path class="river" d="M 942.4 683.5 L 933.8 692.3 L 923.4 696.4 L 917.5 697.5 L 912.5 697.1 L 907.9 698.3 L 903.6 701.1 L 897.3 703.2 L 889 704.5 L 886.1 705.9 L 885.9 707.8 L 884.9 709.5 L 882 711 L 881.3 712.2 L 881.5 713 L 880.6 714.2 L 878.1 715.9 L 876.1 716.2 L 874.8 716.6 L 874.3 718 L 873.8 719.2 L 872.3 719.2 L 871.4 720 L 870.9 722.3 L 869.4 724.3 L 868.1 724.5 L 865.8 724.2 L 864.5 724.8 L 863 724.5 L 862.1 724.4 L 861.3 725.1 L 860.6 724.9 L 859.4 724.2 L 858.5 724.9 L 856.6 725.2 L 853.7 724.7 L 851.7 725.1 L 850.7 726.4 L 848.3 727.3 L 844.6 727.9 L 842.3 727.1 L 840.8 726.4 L 839.5 726.9 L 837.9 726.6 L 836.4 726 L 835.2 726 L 834.7 726.9 L 833.8 727.4 L 832.8 727.3 L 831.7 728.2 L 830.9 729.6 L 829.2 730.6 L 826.1 731.2 L 820.2 730.3 L 817.2 730.8 L 813.9 731.7 L 811.7 735.1 L 806.6 738.2 L 798.6 741 L 795.8 741.3 L 793.3 740.7 L 791.4 739.5 L 788.9 738.1 L 784.6 736.7 L 782 735.1" />
<path class="river" d="M 990.7 662.7 L 994.9 658.1 L 997.9 656.3 L 1002.7 655.7 L 1009.2 653.4 L 1012.9 652.7 L 1015.9 652.8 L 1017.7 653.4 L 1018.5 654.7 L 1020.1 655 L 1022.5 654.3 L 1025.3 651.5 L 1028.6 646.8 L 1030.9 646.2 L 1032.5 649.7 L 1035.2 651.3 L 1039 651.1 L 1042 648.4 L 1043.9 643.2 L 1048.8 636.5 L 1056.6 628.3 L 1061.1 624.1 L 1062.2 623.9 L 1063.4 624.7 L 1064.8 626.7 L 1066.9 626.4 L 1069.7 624 L 1073.2 623.7 L 1077.6 625.4 L 1080.1 625.8 L 1081 624.8 L 1082.4 624.6 L 1084.4 624.9 L 1086.6 623.7 L 1088.8 620.9 L 1091 619.5 L 1092.9 619.3 L 1095 619.3" />
<path class="river" d="M 625.9 297.2 L 625.9 300.3 L 626.8 301.7 L 628.7 302.3 L 629.2 303.3 L 628.6 304.5 L 629.4 311.3 L 631.6 323.7 L 639.3 336.5 L 658.6 356.3 M 625.9 297.2 L 634.4 302.6 L 637.6 305.9 L 638.2 309 L 637.6 312.5 L 635.8 316.4 L 635.1 320 L 635.5 323.3 L 637 325.7 L 639.4 327.2 L 641 329.5 L 641.7 332.5 L 645.9 336.7 L 653.6 341.9 L 660.4 345.2 L 662.3 345.8 L 670 348.1 M 499.9 65.6 L 504.6 63 L 506.7 60.7 L 507.8 57.7 L 509.4 56.5 L 511.5 57.2 L 514.2 55.9 L 517.5 52.6 L 519.9 51.1 L 521.7 51.3 L 524.8 53.4 L 529.3 57.2 L 533.2 59.5 L 536.7 60.2 L 538.4 61.6 L 538.3 63.8 L 539.1 65.1 L 540.7 65.7 L 541.5 65.5 L 541.3 64.4 L 542.9 62.9 L 546.2 60.9 L 549.6 59.8 L 553 59.4 L 555.3 57.9 L 556.7 53.8 M 556.7 53.8 L 556.7 53.8 M 556.7 53.8 L 556.8 53.7 M 556.7 53.8 L 558.9 50.7 L 560.8 49.3 L 563.1 48.6 L 563.7 47.6 L 562.6 46.3 L 562.7 45 L 564.1 43.7 L 567 43.2 L 571.5 43.4 L 576.8 44.7 L 582.8 47.2 L 586.8 47.9 L 588.7 47.1 L 592.3 50.9 L 597.8 59.4 L 602.5 65.8 L 606.5 70.1 L 610.6 73.4 L 614.9 75.8 L 618 78.9 L 620.9 84.9 L 618.8 93.2 L 618.2 100.4 L 618.4 109.2 L 621 116 L 625.9 120.6 L 628.7 124.4 L 629.5 127.3 L 633.2 129.8 L 640 131.9 L 642.8 133.7 L 641.7 135.4 L 641.6 137.4 L 642.5 139.6 L 644.9 141.4 L 648.6 142.9 L 650.8 144.4 L 651.5 146.1 L 651.5 148.7 L 650.6 152.3 L 649 155.1 L 646.8 157 L 647.1 158.2 L 649.8 158.4 L 652.5 160.3 L 656.8 166 L 660 169.2 L 661.4 172.5 L 662.1 176.9 L 661.7 181.1 L 660.2 185.1 L 659.7 189.3 L 660.2 193.5 L 659.8 197.7 L 658.6 201.8 L 659.5 205 L 662.4 207.5 L 664.2 209.6 L 664.7 211.3 L 664.8 213.1 L 664.2 215 L 664.5 216.9 L 665.7 218.9 L 665.1 222.2 L 662.7 226.8 L 661.9 229.8 L 663 231.8 L 665.7 237.5 L 665.8 242.6 L 664.2 248.8 L 664.1 256.6 L 665.5 266.1 L 664.3 271.2 L 660.4 272.1 L 656.1 272.2 L 651.4 271.4 L 647.9 274.4 L 645.8 281.1 L 642.2 284.4 L 637.1 284.3 L 634 285 L 632.8 286.5 L 631 287.4 L 628.7 287.8 L 627.7 288.6 L 628.2 290 L 627.8 291.4 L 626.4 292.9 L 625.8 294.6 L 625.9 297.2" />
<path class="river" d="M 682.1 345.3 L 679.2 344.1 L 670 345 M 670 345 L 662.3 345.8 M 670 345 L 671.7 346.9 L 673.1 347.3 L 675.8 346.6 L 677.2 347.2 L 678.3 348.5 L 680 352 L 682.3 354.5 L 684.2 355.8 L 686.4 357.1 L 689.4 358.3" />
<g class="city"><circle cx="585.0996640840688" cy="680.018394548387" r="5" /><text x="597.0996640840688" y="684.018394548387">Singapore</text></g>
<g class="city"><circle cx="454.05752401256643" cy="526.8864491355246" r="5" /><text x="466.05752401256643" y="530.8864491355246">George Town</text></g>
<g class="city"><circle cx="391.5472940693218" cy="594.9892988884093" r="5" /><text x="403.5472940693218" y="598.9892988884093">Medan</text></g>
<g class="city"><circle cx="504.59782462923" cy="611.4275536839971" r="5" /><text x="516.59782462923" y="615.4275536839971">Kuala Lumpur</text></g>
<g class="city"><circle cx="1394.6694820164503" cy="463.74132881360833" r="5" /><text x="1406.6694820164503" y="467.74132881360833">Davao</text></g>
<g class="city"><circle cx="1377.8147709587695" cy="500.9638407685069" r="5" /><text x="1389.8147709587695" y="504.9638407685069">General Santos</text></g>
<g class="city"><circle cx="455.12459790972486" cy="763.7870417000875" r="5" /><text x="467.12459790972486" y="767.7870417000875">Padang</text></g>
<g class="city"><circle cx="1262.6808064998656" cy="470.80706830545455" r="5" /><text x="1274.6808064998656" y="474.80706830545455">Zamboanga</text></g>
<text class="map-title" x="80" y="105">Malaysia Physical Study Map</text>
<text class="map-subtitle" x="80" y="145">Landmark: Petronas Twin Towers | Study terrain and water systems</text>
  <text class="footer" x="80" y="1036">Made with Natural Earth. Free vector and raster map data @ naturalearthdata.com.</text>
</svg>
