<?xml version="1.0" encoding="UTF-8"?>
<svg xmlns="http://www.w3.org/2000/svg" width="1600" height="1100" viewBox="0 0 1600 1100" role="img" aria-labelledby="title desc">
  <title id="title">Malaysia Political Study Map</title>
  <desc id="desc">Made with Natural Earth. Free vector and raster map data @ naturalearthdata.com.</desc>
  <defs>
    <linearGradient id="terrain" x1="0" x2="1" y1="0" y2="1">
      <stop offset="0%" stop-color="#6c8c53" />
      <stop offset="42%" stop-color="#d5c487" />
      <stop offset="72%" stop-color="#b88b5f" />
      <stop offset="100%" stop-color="#f1f5ee" />
    </linearGradient>
    <filter id="softShadow" x="-10%" y="-10%" width="120%" height="120%">
      <feDropShadow dx="0" dy="10" stdDeviation="12" flood-color="#0f172a" flood-opacity="0.16" />
    </filter>
    <style>
      .neighbor { fill: #ffffff; stroke: #94a3b8; stroke-width: 1.2; opacity: 0.72; }
      .country { fill: #f7f1df; stroke: #1f2937; stroke-width: 4; filter: url(#softShadow); }
      .admin1 { fill: none; stroke: #64748b; stroke-width: 1.1; stroke-dasharray: 6 7; opacity: 0.75; }
      .river { fill: none; stroke: #1d9bd1; stroke-width: 3; stroke-linecap: round; opacity: 0.88; }
      .lake { fill: #8ed1ea; stroke: #0ea5e9; stroke-width: 1.5; opacity: 0.8; }
      .city circle { fill: #ef4444; stroke: #ffffff; stroke-width: 2; }
      .city text, .terrain-label { fill: #172033; font: 700 24px system-ui, sans-serif; paint-order: stroke; stroke: #ffffff; stroke-width: 5; stroke-linejoin: round; }
      .map-title { fill: #0f172a; font: 800 46px system-ui, sans-serif; }
      .map-subtitle { fill: #475569; font: 600 24px system-ui, sans-serif; }
      .footer { fill: #64748b; font: 500 18px system-ui, sans-serif; }
    </style>
  </defs>
  <rect width="100%" height="100%" fill="#eaf3f8" />
  <rect x="40" y="40" width="1520" height="1020" rx="32" fill="#ffffff" opacity="0.54" />
  <path class="neighbor" d="M 1966.2 824.8 L 1966.8 946 L 1967.5 1067.2 L 1934.4 1036.7 L 1896.6 1029.2 L 1887.4 1039.8 L 1840.3 1040.9 L 1856.1 1010.7 L 1879.5 1000.3 L 1869.8 959.9 L 1852 928.7 L 1779.9 897.2 L 1749.2 894.1 L 1693.4 859.7 L 1682.4 877.8 L 1668.2 881.1 L 1659.7 867.5 L 1659.6 851.3 L 1631.2 833 L 1671.2 819.6 L 1697.8 820.4 L 1694.6 810.5 L 1640.2 810.4 L 1625.5 788.3 L 1592.3 781.4 L 1576.5 763 L 1626.7 754 L 1645.7 741.9 L 1705.4 757.2 L 1711.3 771 L 1721.7 831.1 L 1760.1 853.4 L 1791.2 813.9 L 1833.9 791.5 L 1866.9 791.5 L 1898.7 804.4 L 1926.3 817.7 L 1966.2 824.8 Z M 1370.2 1058.8 L 1373.9 1066.1 L 1374.6 1077.4 L 1350.3 1105.2 L 1318.5 1113.4 L 1314.1 1108.9 L 1317.4 1096.3 L 1333.4 1073.6 L 1370.2 1058.8 Z M 1713.8 984.5 L 1710.1 956.5 L 1716.7 943.2 L 1724.5 930.6 L 1733 941.5 L 1732.9 959.2 L 1713.8 984.5 Z M 1106.7 574.3 L 1085.5 607.9 L 1112.9 643.1 L 1106.4 660.2 L 1148.1 694.6 L 1104.1 699 L 1091.7 724.4 L 1093.3 758 L 1057.5 783.5 L 1056.5 820.5 L 1042.2 877.4 L 1036.7 864.1 L 994.5 880.9 L 979.8 858.1 L 953.3 856 L 934.7 844.1 L 890.5 857.5 L 876.9 839.5 L 852.6 841.5 L 821.9 837.3 L 816.3 787.4 L 797.7 777.1 L 779.8 745.3 L 774.7 712.7 L 779 678.3 L 801.1 653.6 L 807.3 678.4 L 832.7 699.4 L 856.7 691.9 L 880.4 694.5 L 902.1 675.7 L 919.9 672.5 L 955.1 682.9 L 985.4 675 L 1004.5 623.3 L 1018.8 610.3 L 1031.7 568 L 1074.4 568.1 L 1106.7 574.3 Z M 1533.8 832.4 L 1574.7 843.2 L 1588.3 871.6 L 1556.9 856.3 L 1525.8 853.2 L 1504.8 855.6 L 1479.1 854.3 L 1487.9 833.9 L 1533.8 832.4 Z M 1441 869.1 L 1415.3 862.3 L 1408.1 846.3 L 1445.7 844.5 L 1454.9 856.8 L 1441 869.1 Z M 1480.3 647.3 L 1483 667.6 L 1505 670.9 L 1508.4 686.1 L 1506.5 718.6 L 1487.3 714.9 L 1481.7 737.5 L 1497 757.2 L 1486.6 761.6 L 1471.6 738.1 L 1460.5 690.5 L 1468 660.8 L 1480.3 647.3 Z M 1294.3 695.6 L 1337 694.1 L 1373.8 667.1 L 1380.3 675.4 L 1350.4 712.3 L 1322.4 719.4 L 1286.7 712.1 L 1224.7 714 L 1192.2 719.3 L 1186.9 747.5 L 1220.2 780.5 L 1240.3 763.7 L 1309.6 751.1 L 1306.6 768.2 L 1290.4 762.8 L 1274.2 784.6 L 1241.5 799 L 1276.7 846.6 L 1269.9 859.4 L 1303.3 902.3 L 1303 926.7 L 1283.1 937.7 L 1268.6 924.6 L 1286.5 894.1 L 1250 908.5 L 1240.8 898.2 L 1245.6 883.9 L 1218.8 862.1 L 1221.6 825.9 L 1196.8 837.2 L 1199.9 880.5 L 1201.4 933.7 L 1177.9 939.1 L 1161.9 928.2 L 1172.5 894 L 1166.8 858.1 L 1151.1 857.8 L 1139.6 832.3 L 1155 808 L 1160.3 778.5 L 1178.9 722.4 L 1186.7 707.1 L 1218.4 679.5 L 1247.4 690.5 L 1294.3 695.6 Z M 1196.4 1109.6 L 1147 1083.5 L 1181.7 1076.2 L 1201.2 1087.5 L 1214.3 1098.8 L 1212 1108.9 L 1196.4 1109.6 Z M 1235.3 1045.6 L 1260.1 1042.7 L 1293.4 1029.1 L 1287.9 1049.8 L 1232.1 1060.3 L 1182.6 1055.7 L 1182.5 1042.1 L 1212 1034.4 L 1235.3 1045.6 Z M 1120.7 1039.1 L 1143.7 1036 L 1152.9 1051.9 L 1110 1059.3 L 1084.2 1064.3 L 1064.2 1064 L 1077 1042.6 L 1097.4 1042.3 L 1107.3 1029.2 L 1120.7 1039.1 Z M 757.4 966.9 L 762.4 980.2 L 833.7 983.9 L 841.9 968.5 L 910.8 986.4 L 924.4 1010.5 L 980.1 1017.3 L 1025.7 1039.4 L 983.3 1053.6 L 942.4 1038.6 L 908.8 1039.6 L 870.2 1036.8 L 835.4 1030.2 L 792.3 1016 L 765 1012.3 L 749.6 1016.9 L 681.8 1001.6 L 675.3 985.6 L 641.3 982.9 L 666.8 947.4 L 711.9 949.6 L 741.9 964.1 L 757.4 966.9 Z M 604.3 768.5 L 610.6 794.4 L 623.5 815.2 L 650.8 818.5 L 668.9 842 L 659.6 888.2 L 658.1 945.8 L 616.9 946.5 L 585.6 915.5 L 537.9 885.1 L 522 862.5 L 493.8 832.3 L 475.4 804.4 L 447.1 752.3 L 414.4 721.4 L 403.5 689.4 L 389.8 660.4 L 356.3 637 L 336.8 605.1 L 308.9 584.3 L 270.1 543.4 L 266.8 524.4 L 290.7 525.9 L 348.3 533.1 L 381.2 569.5 L 409.9 594.7 L 430.4 610.1 L 465.7 650.1 L 503.5 650.7 L 534.7 676.2 L 556.2 707.3 L 584.5 724.3 L 569.6 754.6 L 590.9 767.5 L 604.3 768.5 Z" />
<path class="neighbor" d="M 635.8 197.5 L 601 192.1 L 552.9 199.2 L 529.1 230.2 L 537.9 275.1 L 504.5 258 L 472.7 258.7 L 478.2 229.5 L 445.4 229.7 L 442.5 270.6 L 422.4 324.9 L 410.3 357.7 L 412.9 384.6 L 437.1 385.8 L 452.2 419.7 L 458.9 451.9 L 479.6 473.2 L 502.2 477.5 L 521.4 496.8 L 509.3 512.1 L 484.7 516.6 L 481.8 497.5 L 451.5 481.2 L 445 487.8 L 430.3 473.5 L 424 455.1 L 404.2 434.1 L 386.2 416.5 L 380.1 438.4 L 373 417.7 L 377.1 394.5 L 388 358.9 L 406 320.6 L 426.5 286 L 411.9 252.1 L 412.5 234.8 L 408.3 214.1 L 383.5 184.5 L 374.6 165.9 L 387.4 159 L 401 126.7 L 385.8 102.1 L 362.2 75 L 344.2 42.4 L 359.9 35.6 L 376.9 -4.6 L 403.1 -6.3 L 424.8 -22.4 L 446.1 -31 L 462.2 -19.5 L 464.4 2.8 L 489.5 4.5 L 480.3 43.7 L 481.2 77 L 520.4 54.9 L 531.5 61.4 L 553.3 60.3 L 560.8 47.4 L 588.9 50 L 617.2 80.2 L 619.5 116.9 L 649.6 149.3 L 648 180.7 L 635.8 197.5 Z" />
<path class="neighbor" d="M 446.1 -31 L 424.8 -22.4 L 403.1 -6.3 L 376.9 -4.6 L 359.9 35.6 L 344.2 42.4 L 362.2 75 L 385.8 102.1 L 401 126.7 L 387.4 159 L 374.6 165.9 L 383.5 184.5 L 408.3 214.1 L 412.5 234.8 L 411.9 252.1 L 426.5 286 L 406 320.6 L 388 358.9 L 384.4 331.3 L 395.9 302.8 L 383.4 280.8 L 386.4 240.3 L 371.3 221 L 359.2 176.5 L 352.5 129.5 L 336.4 98.8 L 311.9 117.4 L 269.6 143.9 L 248.8 140.6 L 225.7 131.9 L 238.6 85.8 L 230.8 51 L 201.7 8.1 L 206.2 -5.3 L 184.5 -10.1 L 158.1 -40.4 L 155.6 -70.3 L 168.6 -64.7 L 169.4 -91.3 L 187.7 -100.2 L 183.8 -115.9 L 192.2 -128.6 L 193.6 -167.1 L 222.7 -158.6 L 239.3 -189.3 L 241.2 -207.4 L 261.7 -238.6 L 260.5 -259.8 L 308.7 -285.5 L 335.3 -278.8 L 332.2 -301.7 L 345.2 -308.5 L 342.4 -322.6 L 364.2 -325.4 L 376.6 -303.5 L 392.8 -294.6 L 393.9 -266.2 L 392.4 -235.5 L 357.2 -204.5 L 352.8 -160.3 L 392 -166.5 L 400.9 -132.3 L 424.4 -125.1 L 413.6 -94.2 L 441.2 -80.2 L 457.3 -73.4 L 484.6 -84.2 L 485.7 -68.9 L 454 -44.7 L 446.1 -31 Z" />
<path class="neighbor" d="M 603 338.3 L 635.1 323.3 L 674.2 320.6 L 657.8 298.1 L 720.3 269.5 L 724.9 224.9 L 716.3 200.1 L 723.1 162.9 L 713.7 136.7 L 685.6 110.8 L 662.1 78.1 L 631.2 34.1 L 586.7 11.9 L 597.4 -1.5 L 621.1 -11.2 L 606.7 -43.6 L 560.9 -43.9 L 544.2 -77.7 L 522.5 -107.1 L 542.5 -116.2 L 572.1 -116 L 608.3 -120.3 L 640 -140.1 L 657.9 -126.1 L 691.9 -119.3 L 686 -97.9 L 703.7 -82.8 L 741.1 -73.2 L 691.5 -41.3 L 660.5 -6.2 L 652.3 19.6 L 680.8 58.8 L 715.5 107.4 L 749.3 130.3 L 771.9 160.2 L 788.9 229 L 783.9 294.4 L 752.9 318.9 L 710.3 342.8 L 680 373.8 L 633.6 408.4 L 620.1 384.6 L 630.5 359.4 L 603 338.3 Z" />
<path class="neighbor" d="M 342.4 -322.6 L 345.2 -308.5 L 332.2 -301.7 L 335.3 -278.8 L 308.7 -285.5 L 260.5 -259.8 L 261.7 -238.6 L 241.2 -207.4 L 239.3 -189.3 L 222.7 -158.6 L 193.6 -167.1 L 192.2 -128.6 L 183.8 -115.9 L 187.7 -100.2 L 169.4 -91.3 L 149.8 -150.3 L 139.5 -150.2 L 133.5 -126.4 L 113.1 -145.7 L 124.6 -166.9 L 141.2 -169 L 158.4 -200.5 L 136.9 -206.8 L 102.4 -206.3 L 67.1 -211.4 L 63.8 -237.2 L 46 -239.1 L 16.6 -255.1 L 3.4 -229.9 L 30.3 -210.2 L 7 -196.4 L -1.2 -182.8 L 21.7 -172.9 L 15.3 -150.4 L 28.2 -122.5 L 34 -91.9 L 28.7 -78.3 L 3.4 -78.8 L -42.4 -71 L -40.3 -43.1 L -60.1 -21.1 L -113.7 3.9 L -155.3 47.7 L -183.2 71.1 L -220.3 95.5 L -220.3 112.6 L -238.9 121.7 L -272.3 135.1 L -289.7 137 L -300.9 165.4 L -293.1 213.7 L -291.1 244.6 L -306.9 279.9 L -307.1 343.1 L -326.3 344.9 L -343.2 373.2 L -331.9 385.5 L -365.8 396 L -378.3 421.3 L -393.3 432 L -428.5 397.3 L -445.7 345.2 L -459.9 307.7 L -473 290.1 L -492.7 254.4 L -501.9 207.9 L -508.4 184.7 L -542.2 133.6 L -557.6 61.6 L -568.7 14 L -568.6 -31 L -575.8 -65.9 L -629.9 -43.6 L -656.1 -48.1 L -704.7 -93.1 L -686.8 -106.6 L -697.8 -121.1 L -741.4 -152.7 L -716.6 -177.5 L -634.8 -177.4 L -642.2 -209.3 L -663.1 -228.2 L -667.3 -256.8 L -691.7 -273.5 L -650.7 -312.5 L -607.5 -309.7 L -568.6 -348.6 L -545.3 -386.4 L -509.2 -423.7 L -509.8 -450.2 L -478.1 -471.7 L -508.1 -490 L -521 -515.2 L -534.2 -547.8 L -515.9 -563.8 L -459.5 -554.7 L -418.1 -560.3 L -382.2 -591.5 L -342.2 -547.9 L -346 -517.6 L -331.2 -498.6 L -332.4 -479.6 L -359.1 -484.6 L -348.7 -443.6 L -312.2 -420.1 L -260.5 -394.1 L -284.1 -377.2 L -298.5 -342.4 L -262.5 -328.4 L -227.4 -310.1 L -178.9 -289.3 L -128 -284.4 L -106.5 -265.5 L -77.8 -262 L -33.1 -253.3 L -2.1 -253.9 L 2.1 -268.7 L -2.7 -292.3 L 0.1 -308.3 L 22.8 -316.1 L 25.9 -286.8 L 26.7 -279.4 L 60.5 -265.3 L 83.9 -271.1 L 115.3 -268.6 L 145.6 -269.7 L 148.2 -292.5 L 133.1 -304.4 L 163.1 -309 L 196.9 -336.7 L 239.8 -360.4 L 271 -351.2 L 297.5 -366.9 L 314.9 -343.8 L 302.3 -328.2 L 342.4 -322.6 Z" />
<path class="neighbor" d="M 1216.4 255.8 L 1197.4 227.5 L 1229.3 228.8 L 1242.2 242.2 L 1232.3 274.4 L 1216.4 255.8 Z M 1281.6 357.1 L 1290.9 346.7 L 1295 323.6 L 1315.5 321.4 L 1309.5 346.4 L 1337 310.5 L 1333.5 346 L 1320.1 358.2 L 1308.5 381.7 L 1296.8 392.7 L 1273.9 367 L 1281.6 357.1 Z M 1422.5 415.3 L 1426.3 440 L 1428.5 460.9 L 1415.8 494.9 L 1402.2 457 L 1384.8 475.8 L 1396.7 503.2 L 1386.1 520.7 L 1342.3 499.1 L 1331.9 472.2 L 1343.2 454.5 L 1319.6 436.9 L 1308 452.3 L 1290.5 450.9 L 1263 471.6 L 1256.8 460.8 L 1271.4 429.4 L 1294.8 419 L 1315.1 405 L 1328.2 421.8 L 1356.5 411.6 L 1362.6 395 L 1388.8 394 L 1386.6 365.3 L 1416.8 382.9 L 1419.9 401.6 L 1422.5 415.3 Z M 1129.8 381.8 L 1080.4 417.1 L 1098.6 391.1 L 1125.4 368.1 L 1147.8 342.4 L 1167.3 305.4 L 1173.9 335.8 L 1149.3 356.2 L 1129.8 381.8 Z M 1272.3 50.6 L 1266.3 66 L 1278.9 92.6 L 1269.2 123.5 L 1247.2 135.8 L 1241.4 165.8 L 1249.7 195.4 L 1269.4 199.5 L 1285.9 195.1 L 1332.3 215.7 L 1328.8 236 L 1340.9 244.9 L 1337 262 L 1308 243.8 L 1294.3 224.3 L 1284.7 237.9 L 1261.1 215.7 L 1227.3 221.2 L 1208.8 212.9 L 1210.7 197.6 L 1222.3 188.1 L 1211.2 179.5 L 1206.4 192.9 L 1188 171.5 L 1182.5 155.4 L 1181.1 119.8 L 1196.1 132 L 1199.9 73.8 L 1212 40.1 L 1234.5 40.2 L 1257.5 50.8 L 1268.9 41.1 L 1272.3 50.6 Z M 1261.2 303.7 L 1255.4 286 L 1277.8 297.5 L 1301.4 297.5 L 1300.7 313 L 1283.5 328.8 L 1259.9 340 L 1258.6 322.7 L 1261.2 303.7 Z M 1390 276 L 1400.4 317.5 L 1371.8 307.6 L 1372.5 320.1 L 1381.6 343 L 1363.9 351.4 L 1362.4 325.2 L 1351.2 323.3 L 1345.4 300.8 L 1367.3 303.7 L 1366.8 289.7 L 1344.1 261.3 L 1379.8 262.1 L 1390 276 Z" />
<path class="neighbor" d="M 1016.3 525.6 L 1014.6 543.9 L 1012.4 567.7 L 994.7 566.5 L 986.9 579.2 L 969.9 559.9 L 984.6 546 L 1016.3 525.6 Z" />

<path class="country" d="M 445 487.8 L 451.5 481.2 L 481.8 497.5 L 484.7 516.6 L 509.3 512.1 L 521.4 496.8 L 530 500.3 L 551.9 522.8 L 567.5 547.7 L 569.7 572.7 L 565.7 589.6 L 569.3 602.4 L 572 624.4 L 585.1 634.6 L 599.8 667.5 L 599 680.1 L 572.7 682.6 L 537.5 655 L 493.5 625.5 L 489.2 606.6 L 467.7 581.7 L 462.5 550.9 L 449.1 530.6 L 453.2 503.6 L 445 487.8 Z M 1106.7 574.3 L 1074.4 568.1 L 1031.7 568 L 1018.8 610.3 L 1004.5 623.3 L 985.4 675 L 955.1 682.9 L 919.9 672.5 L 902.1 675.7 L 880.4 694.5 L 856.7 691.9 L 832.7 699.4 L 807.3 678.4 L 801.1 653.6 L 828.3 666.3 L 857.1 659.4 L 864.6 627.9 L 880.4 620.9 L 925 612.8 L 951.7 583.4 L 969.9 559.9 L 986.9 579.2 L 994.7 566.5 L 1012.4 567.7 L 1014.6 543.9 L 1016.3 525.6 L 1044.9 499.8 L 1063.7 470.7 L 1078.7 470.6 L 1097.8 489.4 L 1099.5 505.5 L 1124 515.9 L 1155 527.1 L 1152.4 541.7 L 1127.4 543.5 L 1134 561.7 L 1106.7 574.3 Z" />


<g class="city"><circle cx="585.0996640840688" cy="680.018394548387" r="5" /><text x="597.0996640840688" y="684.018394548387">Singapore</text></g>
<g class="city"><circle cx="454.05752401256643" cy="526.8864491355246" r="5" /><text x="466.05752401256643" y="530.8864491355246">George Town</text></g>
<g class="city"><circle cx="391.5472940693218" cy="594.9892988884093" r="5" /><text x="403.5472940693218" y="598.9892988884093">Medan</text></g>
<g class="city"><circle cx="504.59782462923" cy="611.4275536839971" r="5" /><text x="516.59782462923" y="615.4275536839971">Kuala Lumpur</text></g>
<g class="city"><circle cx="1394.6694820164503" cy="463.74132881360833" r="5" /><text x="1406.6694820164503" y="467.74132881360833">Davao</text></g>
<g class="city"><circle cx="1377.8147709587695" cy="500.9638407685069" r="5" /><text x="1389.8147709587695" y="504.9638407685069">General Santos</text></g>
<g class="city"><circle cx="455.12459790972486" cy="763.7870417000875" r="5" /><text x="467.12459790972486" y="767.7870417000875">Padang</text></g>
<g class="city"><circle cx="1262.6808064998656" cy="470.80706830545455" r="5" /><text x="1274.6808064998656" y="474.80706830545455">Zamboanga</text></g>
<text class="map-title" x="80" y="105">Malaysia Political Study Map</text>
<text class="map-subtitle" x="80" y="145">Capital: Kuala Lumpur | Continent: Asia</text>
  <text class="footer" x="80" y="1036">Made with Natural Earth. Free vector and raster map data @ naturalearthdata.com.</text>
</svg>
