<?xml version="1.0" encoding="UTF-8"?>
<svg xmlns="http://www.w3.org/2000/svg" width="1600" height="1100" viewBox="0 0 1600 1100" role="img" aria-labelledby="title desc">
  <title id="title">Mozambique Political Study Map</title>
  <desc id="desc">Made with Natural Earth. Free vector and raster map data @ naturalearthdata.com.</desc>
  <defs>
    <linearGradient id="terrain" x1="0" x2="1" y1="0" y2="1">
      <stop offset="0%" stop-color="#6c8c53" />
      <stop offset="42%" stop-color="#d5c487" />
      <stop offset="72%" stop-color="#b88b5f" />
      <stop offset="100%" stop-color="#f1f5ee" />
    </linearGradient>
    <filter id="softShadow" x="-10%" y="-10%" width="120%" height="120%">
      <feDropShadow dx="0" dy="10" stdDeviation="12" flood-color="#0f172a" flood-opacity="0.16" />
    </filter>
    <style>
      .neighbor { fill: #ffffff; stroke: #94a3b8; stroke-width: 1.2; opacity: 0.72; }
      .country { fill: #f7f1df; stroke: #1f2937; stroke-width: 4; filter: url(#softShadow); }
      .admin1 { fill: none; stroke: #64748b; stroke-width: 1.1; stroke-dasharray: 6 7; opacity: 0.75; }
      .river { fill: none; stroke: #1d9bd1; stroke-width: 3; stroke-linecap: round; opacity: 0.88; }
      .lake { fill: #8ed1ea; stroke: #0ea5e9; stroke-width: 1.5; opacity: 0.8; }
      .city circle { fill: #ef4444; stroke: #ffffff; stroke-width: 2; }
      .city text, .terrain-label { fill: #172033; font: 700 24px system-ui, sans-serif; paint-order: stroke; stroke: #ffffff; stroke-width: 5; stroke-linejoin: round; }
      .map-title { fill: #0f172a; font: 800 46px system-ui, sans-serif; }
      .map-subtitle { fill: #475569; font: 600 24px system-ui, sans-serif; }
      .footer { fill: #64748b; font: 500 18px system-ui, sans-serif; }
    </style>
  </defs>
  <rect width="100%" height="100%" fill="#eaf3f8" />
  <rect x="40" y="40" width="1520" height="1020" rx="32" fill="#ffffff" opacity="0.54" />
  <path class="neighbor" d="M 4847.5 516 L 4847.5 529.7 L 4829.7 536.6 L 4811.8 542.5 L 4808.2 532.1 L 4822.2 526.3 L 4831.1 524.8 L 4847.5 516 Z M 4795 556.3 L 4801.9 551.7 L 4811.6 559.8 L 4807 574.4 L 4789.6 578.2 L 4774.2 574.8 L 4771.5 562.5 L 4782.3 552.8 L 4795 556.3 Z M -5228.9 514.7 L -5232.3 528.2 L -5234.6 529.7 L -5234.6 516 L -5228.9 514.7 Z" />
<path class="neighbor" d="M 755.9 92.7 L 760.7 95.7 L 862.2 152.8 L 864.1 169 L 904.3 197 L 891.4 231.5 L 893 247.4 L 911 257.6 L 911.8 264.9 L 904.1 281.8 L 905.7 290.3 L 903.9 303.7 L 913.7 321.3 L 925.2 348.9 L 935.5 355 L 935.5 355 L 913.2 371.2 L 882.6 382.1 L 865.8 381.7 L 855.8 390.1 L 836.3 390.8 L 829 394.3 L 795.4 386.4 L 774.3 388.7 L 766.5 350.6 L 757 337.5 L 751.3 329.8 L 723.9 324.6 L 708 316.2 L 690.2 311.4 L 679 306.8 L 667.3 299.6 L 667.3 299.6 L 652.2 264.3 L 636 248.7 L 630.4 232.4 L 633.2 217.9 L 628.1 192.1 L 639.7 190.8 L 649.9 180.6 L 660.8 166 L 667.7 160.1 L 667.4 151 L 661.4 144.7 L 659.8 133.7 L 659.8 133.7 L 667.8 130.1 L 669.5 113.6 L 658.3 97.8 L 668.2 94.5 L 698.9 94.8 L 755.9 92.7 Z" />
<path class="neighbor" d="M 628.1 192.1 L 633.2 217.9 L 630.4 232.4 L 636 248.7 L 652.2 264.3 L 667.3 299.6 L 667.3 299.6 L 656.3 296.8 L 618.7 301.5 L 611.2 304.9 L 603.2 322.7 L 609.5 335.1 L 604.5 368.2 L 601 396.4 L 608.6 401.3 L 628.2 412.2 L 635.8 407.1 L 638.2 437.3 L 616.8 437.1 L 605.2 421.7 L 594.9 409.8 L 573.5 405.8 L 567.2 391.2 L 550.1 400 L 527.6 396.1 L 518.3 383.4 L 500.5 380.8 L 487.4 381.5 L 485.8 372.8 L 476.1 372.1 L 463.3 370.4 L 446 374.6 L 433.8 373.9 L 426.9 376.5 L 428.4 343.2 L 419.1 332.8 L 417 315.6 L 421.1 298.7 L 415.5 287.9 L 414.9 270.2 L 381 270.5 L 383.4 260.4 L 369.1 260.5 L 367.6 265.4 L 350.2 266.5 L 343.2 282.8 L 339 289.8 L 323.5 285.8 L 314.3 289.8 L 295.8 292 L 285 277.4 L 278.6 268.3 L 270.6 251.5 L 263.7 230.7 L 181 230.3 L 171.2 233.7 L 163.1 233.1 L 151.5 236.9 L 147.6 228.2 L 154.7 225.3 L 155.6 213 L 160.2 205.8 L 170.4 200 L 177.7 202.8 L 187.3 192.1 L 202.6 192.4 L 204.4 200.3 L 214.8 205.3 L 231.3 187.7 L 247.6 174 L 254.7 165.1 L 253.8 142 L 265.9 114.8 L 278.7 100.4 L 297.2 86.9 L 300.4 78 L 301.1 67.7 L 305.7 58 L 304.2 42.1 L 307.7 17.3 L 313.2 -0.2 L 321.6 -15.2 L 323.2 -32.1 L 325.7 -51.6 L 336.6 -65.8 L 351.6 -74.9 L 374.7 -65.3 L 392.5 -55 L 413 -52.2 L 433.9 -46.8 L 442.3 -63.7 L 446.1 -65.9 L 458.9 -63 L 490.1 -77 L 501.1 -71.1 L 510.2 -71.9 L 514.4 -78.7 L 524.8 -81.1 L 545.9 -78.2 L 563.8 -77.6 L 573.1 -80.5 L 590 -57.4 L 602.6 -54 L 610.1 -58.7 L 623 -56.9 L 638.6 -62.8 L 645.3 -50.8 L 670 -32.2 L 670 -32.2 L 668.3 0.5 L 679.5 4.3 L 670.5 14.3 L 659.7 21.7 L 649 36.3 L 643.1 49.3 L 641.5 71.8 L 635.1 82.5 L 634.8 103.6 L 626.8 111.4 L 625.7 128.1 L 621.9 130.3 L 619.3 145.6 L 626.3 158.3 L 628.1 192.1 Z" />
<path class="neighbor" d="M 904.3 197 L 864.1 169 L 862.2 152.8 L 760.7 95.7 L 755.9 92.7 L 755.6 63 L 763.7 51.6 L 777.4 33.1 L 787.6 12.7 L 775.3 -19.5 L 772 -33.5 L 758.8 -53 L 776 -69.7 L 795 -88.1 L 809.5 -83.4 L 809.5 -67.7 L 819.1 -58.5 L 838.6 -58.5 L 874 -34.7 L 882.9 -34.4 L 889.4 -35.2 L 895.6 -32 L 914.3 -29.8 L 922.6 -41.4 L 948.2 -53.2 L 959.5 -43.7 L 978.6 -43.7 L 954.1 -11.9 L 954.5 90.1 L 971.1 113.2 L 951.4 124.4 L 944.5 136.1 L 934 138.1 L 930.1 157.9 L 921.1 169.2 L 915.6 187.8 L 904.3 197 Z" />
<path class="neighbor" d="M 264.2 866.4 L 277.6 852.5 L 288.7 860.2 L 293.4 872.2 L 305.9 874.2 L 323.5 879.5 L 338.6 877.5 L 363.6 863.1 L 363.6 759.7 L 371.2 763.9 L 387.8 790.5 L 385.2 807.6 L 391.5 817.4 L 411.5 814.6 L 425.5 802.1 L 438.8 793.6 L 445.6 780.2 L 459.3 773.7 L 471.1 777.1 L 484.5 785 L 507.3 786.4 L 525.2 779.8 L 528 771.1 L 532.9 757.7 L 548.2 755.5 L 556.6 744.9 L 565.9 726.3 L 591.1 705.4 L 630.7 684.7 L 642.1 685.1 L 655.6 689.8 L 665.1 686.4 L 680 689.2 L 693.4 728.7 L 700.7 748.5 L 695.7 779.8 L 698.1 789.8 L 683.9 784.7 L 675.8 786.7 L 673.2 794.8 L 665.5 805.4 L 665.8 815 L 682.5 830.2 L 698.9 827.2 L 704.6 814.8 L 725.9 815 L 718.9 835.4 L 715.6 858.7 L 708.3 871.3 L 689.2 885.4 L 683.7 889.5 L 671.9 903.7 L 664 918.1 L 648.2 938.2 L 616.5 967.1 L 596.7 983.9 L 575.6 996.6 L 546.3 1007.5 L 532 1008.9 L 528.4 1016.7 L 511.4 1012.6 L 497.5 1017.9 L 467.2 1012.5 L 450.2 1015.9 L 438.6 1014.5 L 409.7 1025.5 L 385.8 1029.9 L 368.5 1040.5 L 355.8 1041.2 L 343.9 1031.2 L 334.5 1030.7 L 322.4 1018.2 L 321.1 1022.1 L 317.4 1014.6 L 317.5 998.1 L 308.4 979.4 L 317.5 974.3 L 316.7 952.8 L 298.4 926.6 L 284.3 902.8 L 284.3 902.8 L 264.2 866.4 Z M 618 877 L 605.8 868.4 L 592.7 874.1 L 577.5 885 L 562.6 902.8 L 583.6 924.3 L 593.6 921.5 L 598.7 912.6 L 614.3 908.2 L 619.1 899.1 L 627.7 885.4 L 618 877 Z" />
<path class="neighbor" d="M 618 877 L 627.7 885.4 L 619.1 899.1 L 614.3 908.2 L 598.7 912.6 L 593.6 921.5 L 583.6 924.3 L 562.6 902.8 L 577.5 885 L 592.7 874.1 L 605.8 868.4 L 618 877 Z" />
<path class="neighbor" d="M 680 689.2 L 665.1 686.4 L 655.6 689.8 L 642.1 685.1 L 630.7 684.7 L 612.8 672.1 L 591.2 667.8 L 582.9 650 L 582.9 640.2 L 570.9 637.1 L 539.2 606.4 L 530.4 590.2 L 524.7 585.2 L 514 562.8 L 545.3 565.9 L 554.4 569.1 L 563.8 568.4 L 579.3 550.3 L 603.7 527.3 L 613.7 525.1 L 617.1 515.4 L 633.1 504.2 L 654.3 500.4 L 656.1 510.8 L 679.5 510.3 L 692.4 516.2 L 698.5 523.1 L 711.8 525.1 L 726.3 534.1 L 726.4 569.6 L 721 589 L 719.7 609.9 L 724.3 618.2 L 721.1 634.7 L 716.9 637.2 L 709.5 657.4 L 680 689.2 Z" />
<path class="neighbor" d="M 630.7 684.7 L 591.1 705.4 L 565.9 726.3 L 556.6 744.9 L 548.2 755.5 L 532.9 757.7 L 528 771.1 L 525.2 779.8 L 507.3 786.4 L 484.5 785 L 471.1 777.1 L 459.3 773.7 L 445.6 780.2 L 438.8 793.6 L 425.5 802.1 L 411.5 814.6 L 391.5 817.4 L 385.2 807.6 L 387.8 790.5 L 371.2 763.9 L 363.6 759.7 L 363.6 678 L 391.2 677 L 392 577.2 L 412.9 576.3 L 456.1 566.5 L 466.8 578 L 484.7 567.1 L 493.1 567 L 508.9 560.7 L 514 562.8 L 524.7 585.2 L 530.4 590.2 L 539.2 606.4 L 570.9 637.1 L 582.9 640.2 L 582.9 650 L 591.2 667.8 L 612.8 672.1 L 630.7 684.7 Z" />
<path class="neighbor" d="M 363.6 759.7 L 363.6 863.1 L 338.6 877.5 L 323.5 879.5 L 305.9 874.2 L 293.4 872.2 L 288.7 860.2 L 277.6 852.5 L 264.2 866.4 L 243.4 845.2 L 232.4 824.8 L 226.2 797.5 L 219.3 777.2 L 209.9 734.1 L 209.3 700.6 L 205.7 685.3 L 194.8 673.8 L 180.4 650.6 L 165.6 617 L 159.5 599.4 L 136.7 572.1 L 135 550.6 L 148.5 545.3 L 165.3 540.5 L 183.4 541.4 L 200.1 554 L 204.4 552 L 317.9 550.8 L 337.3 564.3 L 405.1 568.2 L 456.6 556.8 L 479.5 550.4 L 497.7 552.1 L 508.7 558.4 L 508.9 560.7 L 493.1 567 L 484.7 567.1 L 466.8 578 L 456.1 566.5 L 412.9 576.3 L 392 577.2 L 391.2 677 L 363.6 678 L 363.6 759.7 Z" />
<path class="neighbor" d="M 667.3 299.6 L 679 306.8 L 690.2 311.4 L 708 316.2 L 723.9 324.6 L 737.1 337.1 L 744.2 360.8 L 739.4 368.4 L 733.8 391.1 L 739.2 414.3 L 730.4 424.1 L 721.9 450.1 L 736.6 457.4 L 651.6 480.4 L 654.3 500.4 L 633.1 504.2 L 617.1 515.4 L 613.7 525.1 L 603.7 527.3 L 579.3 550.3 L 563.8 568.4 L 554.4 569.1 L 545.3 565.9 L 514 562.8 L 508.9 560.7 L 508.7 558.4 L 497.7 552.1 L 479.5 550.4 L 456.6 556.8 L 438.3 539.3 L 419.4 516.4 L 420.7 427.3 L 479 427.6 L 476.6 418 L 480.8 407.5 L 475.9 394.4 L 479.1 380.8 L 476.1 372.1 L 485.8 372.8 L 487.4 381.5 L 500.5 380.8 L 518.3 383.4 L 527.6 396.1 L 550.1 400 L 567.2 391.2 L 573.5 405.8 L 594.9 409.8 L 605.2 421.7 L 616.8 437.1 L 638.2 437.3 L 635.8 407.1 L 628.2 412.2 L 608.6 401.3 L 601 396.4 L 604.5 368.2 L 609.5 335.1 L 603.2 322.7 L 611.2 304.9 L 618.7 301.5 L 656.3 296.8 L 667.3 299.6 Z" />
<path class="neighbor" d="M 723.9 324.6 L 751.3 329.8 L 757 337.5 L 766.5 350.6 L 774.3 388.7 L 766.5 410 L 774.3 446.4 L 784 446 L 794.1 455 L 805.9 475.3 L 808.2 511.3 L 796.1 517.2 L 787.6 536.6 L 769.3 519.3 L 767.2 499.6 L 773.1 486.5 L 771.5 475.3 L 760.4 468.2 L 752.7 470.8 L 736.6 457.4 L 721.9 450.1 L 730.4 424.1 L 739.2 414.3 L 733.8 391.1 L 739.4 368.4 L 744.2 360.8 L 737.1 337.1 L 723.9 324.6 Z" />
<path class="neighbor" d="M 704.6 814.8 L 698.9 827.2 L 682.5 830.2 L 665.8 815 L 665.5 805.4 L 673.2 794.8 L 675.8 786.7 L 683.9 784.7 L 698.1 789.8 L 702.2 802.4 L 704.6 814.8 Z" />
<path class="neighbor" d="M 659.8 133.7 L 661.4 144.7 L 667.4 151 L 667.7 160.1 L 660.8 166 L 649.9 180.6 L 639.7 190.8 L 628.1 192.1 L 626.3 158.3 L 619.3 145.6 L 636.3 147.8 L 644.9 131.8 L 659.8 133.7 Z" />
<path class="neighbor" d="M 1193.9 415.3 L 1201.4 427.2 L 1208.3 445.7 L 1212.8 479.4 L 1220.1 492.5 L 1217.3 505.9 L 1212.3 514.2 L 1202.8 497.8 L 1197.5 506 L 1202.9 526.8 L 1200.4 538.7 L 1192.7 545.1 L 1190.9 568.9 L 1179.9 601.5 L 1166.1 640.1 L 1148.8 693.2 L 1138 732.1 L 1125.4 764.6 L 1102.6 771.2 L 1078.2 783.1 L 1062 775.9 L 1039.8 765.9 L 1032.1 751.1 L 1030.2 726.3 L 1020.4 703.9 L 1017.8 683.8 L 1022.8 663.6 L 1035.7 658.8 L 1035.8 649.4 L 1049.2 628.2 L 1051.7 610.4 L 1045.2 597.1 L 1039.9 579.4 L 1037.6 553.6 L 1047.4 538 L 1051.2 520.2 L 1065.1 519.2 L 1080.8 513.4 L 1091.1 508.4 L 1103.4 508 L 1119.4 492 L 1142.4 474.8 L 1150.9 460.7 L 1147 448.7 L 1158.9 452.1 L 1174.4 432.6 L 1174.9 415.8 L 1184.2 403.3 L 1193.9 415.3 Z" />
<path class="neighbor" d="M 658.3 97.8 L 669.5 113.6 L 667.8 130.1 L 659.8 133.7 L 659.8 133.7 L 644.9 131.8 L 636.3 147.8 L 619.3 145.6 L 621.9 130.3 L 625.7 128.1 L 626.8 111.4 L 634.8 103.6 L 641.6 106.5 L 658.3 97.8 Z" />

<path class="country" d="M 774.3 388.7 L 795.4 386.4 L 829 394.3 L 836.3 390.8 L 855.8 390.1 L 865.8 381.7 L 882.6 382.1 L 913.2 371.2 L 935.5 355 L 935.5 355 L 935.5 355 L 940.1 367.6 L 938.9 395.5 L 942.4 420 L 943.5 463.8 L 948.4 477.5 L 940 497.5 L 929.2 517 L 911.3 534.3 L 885.7 545 L 854.2 558.6 L 822.5 588.6 L 811.7 593.8 L 792.2 613.7 L 780.6 620.1 L 778.3 640.1 L 791.6 661.3 L 797.1 677.7 L 797.4 686.1 L 802.4 684.7 L 801.6 712.2 L 797 725.2 L 803.6 730 L 799.5 741.6 L 787.8 751.6 L 764.7 761.1 L 731 776.2 L 718.7 786.6 L 721.1 798.4 L 728.3 800.3 L 725.9 815 L 704.6 814.8 L 702.2 802.4 L 698.1 789.8 L 695.7 779.8 L 700.7 748.5 L 693.4 728.7 L 680 689.2 L 709.5 657.4 L 716.9 637.2 L 721.1 634.7 L 724.3 618.2 L 719.7 609.9 L 721 589 L 726.4 569.6 L 726.3 534.1 L 711.8 525.1 L 698.5 523.1 L 692.4 516.2 L 679.5 510.3 L 656.1 510.8 L 654.3 500.4 L 651.6 480.4 L 736.6 457.4 L 752.7 470.8 L 760.4 468.2 L 771.5 475.3 L 773.1 486.5 L 767.2 499.6 L 769.3 519.3 L 787.6 536.6 L 796.1 517.2 L 808.2 511.3 L 805.9 475.3 L 794.1 455 L 784 446 L 774.3 446.4 L 766.5 410 L 774.3 388.7 Z" />


<g class="city"><circle cx="591.3722732579463" cy="798.9219947329382" r="5" /><text x="603.3722732579463" y="802.9219947329382">Johannesburg</text></g>
<g class="city"><circle cx="906.1121517950337" cy="256.4463391873022" r="5" /><text x="918.1121517950337" y="260.4463391873022">Dar es Salaam</text></g>
<g class="city"><circle cx="674.9105856063186" cy="902.3356356638649" r="5" /><text x="686.9105856063186" y="906.3356356638649">Durban</text></g>
<g class="city"><circle cx="675.8017341268508" cy="565.0093710258984" r="5" /><text x="687.8017341268508" y="569.0093710258984">Harare</text></g>
<g class="city"><circle cx="719.0555683814574" cy="792.9072463259881" r="5" /><text x="731.0555683814574" y="796.9072463259881">Maputo</text></g>
<g class="city"><circle cx="575.9692387794872" cy="393.115587269627" r="5" /><text x="587.9692387794872" y="397.115587269627">Lubumbashi</text></g>
<g class="city"><circle cx="596.9571867342511" cy="785.9517789119774" r="5" /><text x="608.9571867342511" y="789.9517789119774">Pretoria</text></g>
<g class="city"><circle cx="598.4666780638604" cy="497.7630572143993" r="5" /><text x="610.4666780638604" y="501.7630572143993">Lusaka</text></g>
<text class="map-title" x="80" y="105">Mozambique Political Study Map</text>
<text class="map-subtitle" x="80" y="145">Capital: Maputo | Continent: Africa</text>
  <text class="footer" x="80" y="1036">Made with Natural Earth. Free vector and raster map data @ naturalearthdata.com.</text>
</svg>
