<?xml version="1.0" encoding="UTF-8"?>
<svg xmlns="http://www.w3.org/2000/svg" width="1600" height="1100" viewBox="0 0 1600 1100" role="img" aria-labelledby="title desc">
  <title id="title">Namibia Physical Study Map</title>
  <desc id="desc">Made with Natural Earth. Free vector and raster map data @ naturalearthdata.com.</desc>
  <defs>
    <linearGradient id="terrain" x1="0" x2="1" y1="0" y2="1">
      <stop offset="0%" stop-color="#6c8c53" />
      <stop offset="42%" stop-color="#d5c487" />
      <stop offset="72%" stop-color="#b88b5f" />
      <stop offset="100%" stop-color="#f1f5ee" />
    </linearGradient>
    <filter id="softShadow" x="-10%" y="-10%" width="120%" height="120%">
      <feDropShadow dx="0" dy="10" stdDeviation="12" flood-color="#0f172a" flood-opacity="0.16" />
    </filter>
    <style>
      .neighbor { fill: #ffffff; stroke: #94a3b8; stroke-width: 1.2; opacity: 0.72; }
      .country { fill: url(#terrain); stroke: #1f2937; stroke-width: 4; filter: url(#softShadow); }
      .admin1 { fill: none; stroke: #64748b; stroke-width: 1.1; stroke-dasharray: 6 7; opacity: 0.75; }
      .river { fill: none; stroke: #1d9bd1; stroke-width: 3; stroke-linecap: round; opacity: 0.88; }
      .lake { fill: #8ed1ea; stroke: #0ea5e9; stroke-width: 1.5; opacity: 0.8; }
      .city circle { fill: #ef4444; stroke: #ffffff; stroke-width: 2; }
      .city text, .terrain-label { fill: #172033; font: 700 24px system-ui, sans-serif; paint-order: stroke; stroke: #ffffff; stroke-width: 5; stroke-linejoin: round; }
      .map-title { fill: #0f172a; font: 800 46px system-ui, sans-serif; }
      .map-subtitle { fill: #475569; font: 600 24px system-ui, sans-serif; }
      .footer { fill: #64748b; font: 500 18px system-ui, sans-serif; }
    </style>
  </defs>
  <rect width="100%" height="100%" fill="#d8edf0" />
  <rect x="40" y="40" width="1520" height="1020" rx="32" fill="#ffffff" opacity="0.54" />
  <path class="neighbor" d="M 6941 321.8 L 6941 340.3 L 6916.9 349.7 L 6892.6 357.7 L 6887.7 343.5 L 6906.7 335.7 L 6918.7 333.6 L 6941 321.8 Z M 6869.8 376.4 L 6879.2 370.1 L 6892.3 381.1 L 6886 401 L 6862.5 406.2 L 6841.5 401.5 L 6837.8 384.8 L 6852.5 371.7 L 6869.8 376.4 Z M -6732.4 320 L -6737.1 338.3 L -6740.3 340.3 L -6740.3 321.8 L -6732.4 320 Z" />
<path class="neighbor" d="M 1388.8 -252.7 L 1395.3 -248.6 L 1533.1 -171.1 L 1535.7 -149.1 L 1590.2 -111.1 L 1572.7 -64.3 L 1574.9 -42.7 L 1599.2 -28.9 L 1600.4 -19 L 1589.9 3.9 L 1592.1 15.5 L 1589.6 33.6 L 1602.9 57.5 L 1618.6 94.9 L 1632.6 103.3 L 1632.6 103.3 L 1602.3 125.3 L 1560.8 140 L 1538 139.4 L 1524.4 150.8 L 1498 151.8 L 1488 156.6 L 1442.4 145.9 L 1413.8 149 L 1403.1 97.3 L 1390.3 79.6 L 1382.6 69.1 L 1345.4 62 L 1323.8 50.6 L 1299.6 44.2 L 1284.5 37.8 L 1268.6 28.1 L 1268.6 28.1 L 1248.1 -19.8 L 1226 -41 L 1218.4 -63.1 L 1222.2 -82.9 L 1215.4 -117.8 L 1231.1 -119.6 L 1244.9 -133.4 L 1259.7 -153.2 L 1269.1 -161.2 L 1268.7 -173.5 L 1260.5 -182.1 L 1258.3 -197.1 L 1258.3 -197.1 L 1269.3 -201.9 L 1271.5 -224.3 L 1256.4 -245.7 L 1269.7 -250.3 L 1311.4 -249.8 L 1388.8 -252.7 Z" />
<path class="neighbor" d="M 1215.4 -117.8 L 1222.2 -82.9 L 1218.4 -63.1 L 1226 -41 L 1248.1 -19.8 L 1268.6 28.1 L 1268.6 28.1 L 1253.6 24.3 L 1202.6 30.7 L 1192.4 35.2 L 1181.6 59.5 L 1190.1 76.2 L 1183.3 121.2 L 1178.6 159.4 L 1188.9 166.1 L 1215.5 180.9 L 1225.9 174 L 1229.1 215 L 1200 214.7 L 1184.4 193.8 L 1170.4 177.6 L 1141.3 172.3 L 1132.7 152.3 L 1109.5 164.3 L 1079.1 159 L 1066.4 141.8 L 1042.2 138.3 L 1024.4 139.2 L 1022.2 127.4 L 1009.1 126.4 L 991.8 124.2 L 968.3 129.9 L 951.8 128.9 L 942.4 132.4 L 944.4 87.2 L 931.7 73.1 L 928.9 49.7 L 934.5 26.8 L 926.8 12.2 L 926.1 -11.8 L 880 -11.4 L 883.3 -25.1 L 863.9 -25 L 861.9 -18.4 L 838.3 -16.9 L 828.8 5.2 L 823.1 14.8 L 802.1 9.4 L 789.5 14.7 L 764.4 17.8 L 749.9 -2.1 L 741.1 -14.4 L 730.2 -37.1 L 720.8 -65.5 L 608.7 -66 L 595.4 -61.4 L 584.4 -62.1 L 568.7 -57 L 563.4 -68.8 L 573 -72.8 L 574.2 -89.4 L 580.4 -99.1 L 594.3 -107.1 L 604.2 -103.3 L 617.2 -117.8 L 637.9 -117.4 L 640.4 -106.7 L 654.6 -99.9 L 676.9 -123.8 L 699.1 -142.3 L 708.7 -154.5 L 707.4 -185.8 L 723.9 -222.7 L 741.3 -242.2 L 766.3 -260.6 L 770.7 -272.7 L 771.7 -286.6 L 777.9 -299.8 L 775.9 -321.4 L 780.6 -355 L 788 -378.7 L 799.4 -399.1 L 801.7 -422 L 805.1 -448.5 L 819.9 -467.8 L 840.2 -480 L 871.5 -467.1 L 895.7 -453.1 L 923.5 -449.4 L 951.9 -442 L 963.2 -464.9 L 968.4 -467.8 L 985.8 -464 L 1028.1 -483 L 1043.1 -474.9 L 1055.4 -476.1 L 1061.1 -485.3 L 1075.2 -488.6 L 1103.8 -484.6 L 1128.2 -483.7 L 1140.7 -487.7 L 1163.7 -456.4 L 1180.8 -451.8 L 1191 -458.1 L 1208.5 -455.6 L 1229.7 -463.7 L 1238.7 -447.4 L 1272.2 -422.2 L 1272.2 -422.2 L 1269.9 -377.8 L 1285.1 -372.6 L 1272.9 -359.1 L 1258.3 -349 L 1243.8 -329.2 L 1235.8 -311.5 L 1233.6 -281 L 1224.8 -266.5 L 1224.5 -237.9 L 1213.6 -227.3 L 1212.2 -204.6 L 1206.9 -201.7 L 1203.4 -180.9 L 1213 -163.7 L 1215.4 -117.8 Z" />
<path class="neighbor" d="M 721.5 797.2 L 739.8 778.4 L 754.8 788.8 L 761.2 805 L 778.2 807.8 L 802.1 815 L 822.5 812.2 L 856.5 792.8 L 856.5 652.4 L 866.7 658.1 L 889.3 694.3 L 885.8 717.4 L 894.3 730.7 L 921.5 726.9 L 940.5 709.9 L 958.5 698.5 L 967.8 680.3 L 986.3 671.5 L 1002.3 676.1 L 1020.5 686.7 L 1051.4 688.6 L 1075.7 679.8 L 1079.6 667.9 L 1086.3 649.7 L 1106.9 646.7 L 1118.4 632.4 L 1131 607.1 L 1165.1 578.7 L 1218.9 550.7 L 1234.4 551.1 L 1252.8 557.6 L 1265.6 553 L 1285.8 556.8 L 1304 610.3 L 1313.9 637.3 L 1307.1 679.7 L 1310.3 693.3 L 1291.2 686.3 L 1280.2 689.1 L 1276.6 700.1 L 1266.2 714.4 L 1266.6 727.5 L 1289.2 748.1 L 1311.5 744 L 1319.2 727.1 L 1348 727.5 L 1338.5 755.1 L 1334.1 786.7 L 1324.2 803.9 L 1298.3 823.1 L 1290.9 828.5 L 1274.8 847.9 L 1264.2 867.4 L 1242.6 894.6 L 1199.7 933.8 L 1172.8 956.6 L 1144.1 973.9 L 1104.4 988.7 L 1085 990.6 L 1080.1 1001.2 L 1057 995.6 L 1038.2 1002.8 L 997 995.5 L 974 1000.1 L 958.3 998.1 L 919.1 1013.1 L 886.6 1019.1 L 863.2 1033.5 L 845.9 1034.4 L 829.8 1020.9 L 816.9 1020.2 L 800.6 1003.2 L 798.8 1008.5 L 793.7 998.3 L 793.9 976 L 781.6 950.5 L 793.9 943.6 L 792.9 914.4 L 768 878.9 L 748.9 846.7 L 748.8 846.6 L 721.5 797.2 Z M 1201.7 811.6 L 1185.1 799.9 L 1167.3 807.6 L 1146.7 822.5 L 1126.4 846.6 L 1155 875.8 L 1168.6 872 L 1175.5 859.9 L 1196.7 853.9 L 1203.2 841.5 L 1214.8 823.1 L 1201.7 811.6 Z" />
<path class="neighbor" d="M 1201.7 811.6 L 1214.8 823.1 L 1203.2 841.5 L 1196.7 853.9 L 1175.5 859.9 L 1168.6 872 L 1155 875.8 L 1126.4 846.6 L 1146.7 822.5 L 1167.3 807.6 L 1185.1 799.9 L 1201.7 811.6 Z" />
<path class="neighbor" d="M 1285.8 556.8 L 1265.6 553 L 1252.8 557.6 L 1234.4 551.1 L 1218.9 550.7 L 1194.7 533.5 L 1165.3 527.7 L 1154.1 503.6 L 1154 490.2 L 1137.7 486.1 L 1094.7 444.4 L 1082.8 422.4 L 1075.1 415.6 L 1060.5 385.2 L 1103 389.4 L 1115.3 393.8 L 1128.2 392.9 L 1149.2 368.3 L 1182.3 337 L 1195.9 334 L 1200.5 320.9 L 1222.1 305.7 L 1250.9 300.5 L 1253.4 314.7 L 1285.1 313.9 L 1302.7 322 L 1310.9 331.4 L 1329 334.1 L 1348.7 346.3 L 1348.8 394.4 L 1341.4 420.8 L 1339.8 449.2 L 1345.9 460.4 L 1341.6 482.8 L 1335.8 486.3 L 1325.8 513.7 L 1285.8 556.8 Z" />
<path class="neighbor" d="M 1218.9 550.7 L 1165.1 578.7 L 1131 607.1 L 1118.4 632.4 L 1106.9 646.7 L 1086.3 649.7 L 1079.6 667.9 L 1075.7 679.8 L 1051.4 688.6 L 1020.5 686.7 L 1002.3 676.1 L 986.3 671.5 L 967.8 680.3 L 958.5 698.5 L 940.5 709.9 L 921.5 726.9 L 894.3 730.7 L 885.8 717.4 L 889.3 694.3 L 866.7 658.1 L 856.5 652.4 L 856.5 541.5 L 893.9 540.2 L 895.1 404.8 L 923.3 403.6 L 981.9 390.3 L 996.5 405.9 L 1020.7 391 L 1032.3 390.9 L 1053.7 382.4 L 1060.5 385.2 L 1075.1 415.6 L 1082.8 422.4 L 1094.7 444.4 L 1137.7 486.1 L 1154 490.2 L 1154.1 503.6 L 1165.3 527.7 L 1194.7 533.5 L 1218.9 550.7 Z" />
<path class="neighbor" d="M 1268.6 28.1 L 1284.5 37.8 L 1299.6 44.2 L 1323.8 50.6 L 1345.4 62 L 1363.3 78.9 L 1373 111.2 L 1366.5 121.5 L 1358.8 152.3 L 1366.1 183.8 L 1354.2 197 L 1342.6 232.3 L 1362.6 242.1 L 1247.3 273.5 L 1250.9 300.5 L 1222.1 305.7 L 1200.5 320.9 L 1195.9 334 L 1182.3 337 L 1149.2 368.3 L 1128.2 392.9 L 1115.3 393.8 L 1103 389.4 L 1060.5 385.2 L 1053.7 382.4 L 1053.4 379.2 L 1038.4 370.7 L 1013.8 368.5 L 982.6 377.1 L 957.8 353.4 L 932.2 322.3 L 933.9 201.4 L 1013.1 201.8 L 1009.8 188.7 L 1015.5 174.5 L 1008.8 156.7 L 1013.1 138.2 L 1009.1 126.4 L 1022.2 127.4 L 1024.4 139.2 L 1042.2 138.3 L 1066.4 141.8 L 1079.1 159 L 1109.5 164.3 L 1132.7 152.3 L 1141.3 172.3 L 1170.4 177.6 L 1184.4 193.8 L 1200 214.7 L 1229.1 215 L 1225.9 174 L 1215.5 180.9 L 1188.9 166.1 L 1178.6 159.4 L 1183.3 121.2 L 1190.1 76.2 L 1181.6 59.5 L 1192.4 35.2 L 1202.6 30.7 L 1253.6 24.3 L 1268.6 28.1 Z" />
<path class="neighbor" d="M 1413.8 149 L 1442.4 145.9 L 1488 156.6 L 1498 151.8 L 1524.4 150.8 L 1538 139.4 L 1560.8 140 L 1602.3 125.3 L 1632.6 103.3 L 1632.6 103.3 L 1632.6 103.3 L 1638.7 120.3 L 1637.1 158.2 L 1641.8 191.5 L 1643.3 250.9 L 1650 269.5 L 1638.7 296.7 L 1623.9 323.1 L 1599.7 346.6 L 1565 361.1 L 1522.1 379.5 L 1479.2 420.3 L 1464.6 427.2 L 1438 454.2 L 1422.4 463 L 1419.2 490.1 L 1437.2 518.9 L 1444.7 541.2 L 1445.2 552.6 L 1451.9 550.7 L 1450.8 587.9 L 1444.6 605.6 L 1453.6 612.1 L 1447.9 627.9 L 1432.1 641.4 L 1400.7 654.3 L 1355 674.8 L 1338.3 688.9 L 1341.6 704.9 L 1351.3 707.5 L 1348 727.5 L 1319.2 727.1 L 1316 710.4 L 1310.3 693.3 L 1307.1 679.7 L 1313.9 637.3 L 1304 610.3 L 1285.8 556.8 L 1325.8 513.7 L 1335.8 486.3 L 1341.6 482.8 L 1345.9 460.4 L 1339.8 449.2 L 1341.4 420.8 L 1348.8 394.4 L 1348.7 346.3 L 1329 334.1 L 1310.9 331.4 L 1302.7 322 L 1285.1 313.9 L 1253.4 314.7 L 1250.9 300.5 L 1247.3 273.5 L 1362.6 242.1 L 1384.5 260.4 L 1395 256.9 L 1410 266.5 L 1412.2 281.7 L 1404.2 299.4 L 1407 326.2 L 1431.8 349.7 L 1443.4 323.3 L 1459.8 315.3 L 1456.6 266.4 L 1440.7 239 L 1427 226.7 L 1413.8 227.3 L 1403.1 177.9 L 1413.8 149 Z" />
<path class="neighbor" d="M 1319.2 727.1 L 1311.5 744 L 1289.2 748.1 L 1266.6 727.5 L 1266.2 714.4 L 1276.6 700.1 L 1280.2 689.1 L 1291.2 686.3 L 1310.3 693.3 L 1316 710.4 L 1319.2 727.1 Z" />
<path class="neighbor" d="M 594.3 -107.1 L 580.4 -99.1 L 574.2 -89.4 L 573 -72.8 L 563.4 -68.8 L 553.2 -97.4 L 568.5 -113.8 L 580 -120.2 L 594.3 -107.1 Z M 568.7 -57 L 584.4 -62.1 L 595.4 -61.4 L 608.7 -66 L 720.8 -65.5 L 730.2 -37.1 L 741.1 -14.4 L 749.9 -2.1 L 764.4 17.8 L 789.5 14.7 L 802.1 9.4 L 823.1 14.8 L 828.8 5.2 L 838.3 -16.9 L 861.9 -18.4 L 863.9 -25 L 883.3 -25.1 L 880 -11.4 L 926.1 -11.8 L 926.8 12.2 L 934.5 26.8 L 928.9 49.7 L 931.7 73.1 L 944.4 87.2 L 942.4 132.4 L 951.8 128.9 L 968.3 129.9 L 991.8 124.2 L 1009.1 126.4 L 1013.1 138.2 L 1008.8 156.7 L 1015.5 174.5 L 1009.8 188.7 L 1013.1 201.8 L 933.9 201.4 L 932.2 322.3 L 957.8 353.4 L 982.6 377.1 L 912.8 392.6 L 820.8 387.2 L 794.5 369 L 640.4 370.6 L 634.7 373.3 L 612 356.1 L 587.4 355 L 564.6 361.5 L 546.3 368.7 L 542.7 344.8 L 548 311.4 L 561.1 276.6 L 563.1 260.3 L 575.4 226 L 584.5 210.5 L 606.3 185.6 L 618.5 168.7 L 622.5 140.5 L 620.5 119 L 609.1 105.4 L 599 82.3 L 589.7 59.5 L 591.7 51.6 L 603.4 36.6 L 591.9 -0.1 L 584.1 -25.6 L 565.1 -49.6 L 568.7 -57 Z" />
<path class="lake" d="M 1240.3 132.6 L 1238.1 137.4 L 1237.3 140.6 L 1234.3 143.7 L 1231.1 145 L 1227.9 145 L 1224.8 144.2 L 1223.8 140.5 L 1223.4 138.6 L 1221.9 138 L 1221.3 136.6 L 1222.2 135.8 L 1223.9 135.2 L 1230.7 126.6 L 1231.8 126.7 L 1234.7 124.9 L 1237.7 124.6 L 1240.5 126.8 L 1241.2 129.7 L 1240.3 132.6 L 1240.3 132.6 L 1240.3 132.6 Z" />
<path class="lake" d="M 1202 342.4 L 1201.3 343 L 1200.3 344.2 L 1199.9 345.4 L 1198.7 345.2 L 1197.4 344.9 L 1196.9 346.8 L 1196 348.5 L 1194.5 349.3 L 1193.4 349.9 L 1192 349.6 L 1191 348.6 L 1191.1 347.6 L 1190.7 346.2 L 1189.4 345.8 L 1187.8 346.4 L 1186.7 346.9 L 1185.6 347.3 L 1183.8 348.1 L 1182.5 349.4 L 1181.9 350.9 L 1182 352.1 L 1181.7 352.1 L 1180.4 351 L 1179 349.5 L 1177.4 349.2 L 1173.7 350.3 L 1170.2 351.1 L 1168.9 351.9 L 1168.3 353.3 L 1167.7 355.2 L 1167.9 356.4 L 1168.4 357 L 1168.1 357.9 L 1167.4 359 L 1166.3 359.7 L 1164.4 359.2 L 1162.9 358.7 L 1162.3 359.2 L 1161.2 360.2 L 1159.6 361.7 L 1158.4 362.8 L 1157.4 363.2 L 1155 363.9 L 1153.3 365.1 L 1152.4 366 L 1151.9 366.9 L 1151.3 368.4 L 1149.7 371.7 L 1148.4 374.4 L 1148 374.5 L 1147.3 375.2 L 1145.5 376.5 L 1143.8 377.5 L 1143.2 378.2 L 1143.6 378.5 L 1144 378.5 L 1143.7 378.8 L 1142 379.3 L 1139.9 380.1 L 1139.3 380.7 L 1137.4 382.8 L 1135.1 385.9 L 1133.9 387.7 L 1132.7 389.3 L 1130.9 391.9 L 1129.4 393.6 L 1128.4 393.8 L 1127.3 393.7 L 1127.2 392.5 L 1128 391.6 L 1128.9 390.5 L 1130.1 389.4 L 1130.1 387.9 L 1130.5 386.5 L 1133 383.4 L 1136.2 380.4 L 1137.6 379.3 L 1138.6 378.7 L 1139.3 378.1 L 1139.9 377.3 L 1140.6 376.4 L 1140.6 375.4 L 1139.5 374.7 L 1140.6 372 L 1142.9 368.6 L 1144.4 366.6 L 1147.4 363 L 1149.6 360 L 1150.9 359.8 L 1151.9 360.1 L 1152.6 359.7 L 1152.5 358.8 L 1153.2 357.2 L 1153.7 355.7 L 1153.3 354.9 L 1153.8 354.5 L 1155.1 354.3 L 1156.9 354.1 L 1158.1 353.5 L 1157.5 352.2 L 1156.5 351 L 1156.6 350.4 L 1157.9 350 L 1159.1 349.4 L 1159.8 348.6 L 1160.6 348.5 L 1161.3 348.9 L 1162.3 349.5 L 1163.5 350.3 L 1164.8 350.5 L 1166.1 350.3 L 1167.3 349.2 L 1168.5 347.9 L 1169.7 347.2 L 1170.9 346.1 L 1171.3 345 L 1171.1 344.1 L 1172.3 343.8 L 1173.8 343.2 L 1175.3 342.1 L 1175.8 340.8 L 1175.5 339.9 L 1176.4 340.1 L 1177.8 340.5 L 1178.6 341 L 1179.4 341.5 L 1181.3 340.4 L 1183.4 339.8 L 1184.6 340 L 1185.4 339.6 L 1185.7 339 L 1186.5 338.4 L 1188.2 338 L 1190.4 338.5 L 1193.4 339.4 L 1196.9 340.9 L 1198.6 340.9 L 1200.3 341.1 L 1201.2 341.9 L 1202 342.4 L 1202 342.4 L 1202 342.4 L 1202 342.4 Z" />
<path class="country" d="M 856.5 652.4 L 856.5 792.8 L 822.5 812.2 L 802.1 815 L 778.2 807.8 L 761.2 805 L 754.8 788.8 L 739.8 778.4 L 721.5 797.2 L 693.3 768.5 L 678.4 740.7 L 670 703.7 L 660.7 676.2 L 647.9 617.7 L 647.1 572.2 L 642.2 551.5 L 627.4 535.8 L 607.8 504.4 L 587.8 458.8 L 579.6 435 L 548.6 397.9 L 546.3 368.7 L 564.6 361.5 L 587.4 355 L 612 356.1 L 634.7 373.3 L 640.4 370.6 L 794.5 369 L 820.8 387.2 L 912.8 392.6 L 982.6 377.1 L 1013.8 368.5 L 1038.4 370.7 L 1053.4 379.2 L 1053.7 382.4 L 1032.3 390.9 L 1020.7 391 L 996.5 405.9 L 981.9 390.3 L 923.3 403.6 L 895.1 404.8 L 893.9 540.2 L 856.5 541.5 L 856.5 652.4 Z" />

<path class="river" d="M 1087.4 872 L 1084.8 872.1 L 1082.4 873.4 L 1079.5 875.9 L 1075.9 876.5 L 1069.7 874.5 M 1040.2 850.5 L 1049.6 861.3" />
<path class="river" d="M 1091.9 760.2 L 1090.7 763.5 L 1089.9 763.8 L 1088.9 762.3 L 1086.8 761 L 1083.3 759.8 L 1079.8 760.1 L 1074.1 762.7 M 1183.4 736.9 L 1181.4 736.2 L 1169.2 732.2" />
<path class="river" d="M 1127.3 393.7 L 1131.4 389.5 L 1136.8 381.7 L 1143.1 376.7 L 1150.7 367.2 L 1155.2 359.5 L 1161.9 353.3 L 1170.7 348.5 L 1179.7 344.4 L 1193.4 339.4 M 1343.4 303.2 L 1335.4 302.7 L 1329.6 303.6 L 1323.5 305.8 L 1313.6 306.6 L 1300 305.9 L 1291 306.4 L 1286.6 308 L 1281 308 L 1270.8 305.6" />
<path class="river" d="M 714 192.1 L 715.7 191.3 L 717.3 192.3 L 719.4 194.8 L 720.9 198.4 L 722.3 205.6 L 724.8 221.8 L 724.2 232.2 L 721.2 242.3 L 719.4 250.7 L 718.8 257.2 L 719.6 262 L 721.9 265 L 725.4 267.6 L 730 269.8 L 733 274.4 L 734.2 281.4 L 736.9 287.5 L 741.1 292.8 L 744.3 296.2 L 746.6 297.8 L 751 299.2 L 757.4 300.5 L 760.8 302.3 L 761.4 304.6 L 764 308.4 L 768.7 313.6 L 771.7 319.9 L 772.9 327.3 L 775.6 335.1 L 779.7 343.4 L 788.1 355.4 L 806.8 378.9 L 811.7 384 L 815.8 386.4 L 820.7 387.8 L 825.4 388.3 L 829.6 388 L 836.8 388.6 L 846.7 390.2 L 857.1 390.7 L 867.8 390.1 L 875.4 391 L 879.7 393.4 L 884.2 395.1 L 888.8 396 L 895 395.5 L 902.8 393.6 L 909.4 393.8 L 917.6 397.5" />
<path class="river" d="M 1132.4 153 L 1131.9 157.7 L 1133.4 161.6 L 1138.5 168.7 L 1140.4 173.1 L 1143.4 176.9 L 1148.1 181.6 L 1151.4 183.5 L 1153.3 182.6 L 1157.7 183.2 L 1164.5 185.2 L 1169.6 189.5 L 1173 195.9 L 1173.6 203.1 L 1171.5 211 L 1169.2 216 L 1166.8 218.1 L 1163.1 219.2 L 1158.3 219.3 L 1155.4 220.7 L 1154.3 223.3 L 1152.6 224.8 L 1150.3 225.2 L 1149.4 227 L 1149.9 230.3 L 1147.8 234.5 L 1143 239.5 L 1141.1 243.7 L 1142.1 246.8 L 1142 249.5 L 1140.9 251.6 L 1138.5 253.8 L 1134.9 256.3 L 1131.1 257.8 L 1124.9 258.8 L 1113.4 259.9 L 1107.5 262.8 L 1103.3 267.9 L 1099.6 269.5 L 1096.3 267.7 L 1094.2 267.8 L 1093.3 269.8 L 1093.4 271.2 L 1094.7 271.9 L 1095.3 273.2 L 1095.2 275.2 L 1092.7 276.7 L 1087.8 277.7 L 1086.5 279.2 L 1088.7 281.2 L 1089.1 283.3 L 1087.6 285.4 L 1087.2 292.2 L 1088 303.5 L 1090.3 309.9 L 1094.2 311.5 L 1099.3 310.7 L 1105.7 307.5 L 1110.1 306.4 L 1112.4 307.4 L 1116.9 306.6 L 1123.5 303.9 L 1129.5 304.2 L 1135.1 307.8 L 1140.6 308.6 L 1146.1 306.8 L 1148.3 306.8 L 1150.2 307.3 L 1150.9 307.2 L 1151.3 306.5 L 1152.1 305.8 L 1153.5 305.8 L 1160.4 306.3 L 1165.9 308 L 1170.9 310.9 L 1174.9 312 L 1177.9 311.4 L 1182.8 312.6 L 1189.7 315.8 L 1195 317.4 L 1201.5 317.3" />
<path class="river" d="M 945.5 138.7 L 944.7 129.7 L 943.2 125.1 L 944.2 122.7 L 947.1 121 L 948.1 117.5 L 947.2 112.2 L 947.2 108.4 L 948 106.3 L 946.9 101.1 L 944 92.7 L 939.8 86 L 934.5 80.8 L 931 75.8 L 929.4 71 L 930 59.6 L 932.9 41.5 L 932.5 28.2 L 928.9 19.4 L 928.1 10.1 L 930.1 0.1 L 930.4 -6.8 L 928.3 -12.4 L 924.8 -18.7 L 919.3 -24.2 L 906.3 -34.5 L 896.1 -40.5 L 890.2 -46.9 L 885.1 -55.7 L 882.5 -61.1 L 882.5 -63 L 884.7 -65.5 L 889.2 -68.7 L 892.2 -71.8 L 894.6 -76.2 L 899.9 -85.9 L 901.3 -94.9 L 900.5 -106.4 L 897.2 -113.6 L 891.2 -116.4 L 886.6 -119.5 L 883.5 -122.9 L 880.3 -125.1 L 878.1 -125.6 L 875.8 -125.4 L 874.7 -124.7 L 873.9 -123.1 L 872.7 -122 L 871.3 -122 L 866 -124.9 L 856.8 -130.7 L 850.6 -133.7 L 847.5 -134.1 L 838 -138.4 L 822.1 -146.6 L 812.6 -151 L 807.8 -152 L 803.8 -152.1 L 800.2 -153.9 L 795.5 -157.5 L 789.4 -159.2 L 781.7 -159.1 L 776.7 -160 L 774.4 -161.9 L 772 -162.9 L 769.7 -163 L 762.7 -165.9 L 759.9 -167.2 L 748.7 -172.6 L 745.6 -172.8 L 742.1 -172.1 L 736.8 -171.6 L 728.2 -172.2 L 722.3 -172 L 719.1 -171.2 L 717.2 -169.6 L 715.7 -167.4" />
<path class="river" d="M 814.7 138.9 L 811.3 124.6 L 808.5 119 L 808.1 116.2 L 809.2 114.3 L 807.6 111.2 L 803.3 106.8 L 802.7 105 L 803 104.1 L 803.3 103.2 L 802.7 101.9 L 803.3 100 L 804.8 97.7 L 806.8 95.6 L 809.1 94 L 810.2 91.1 L 809.9 87 L 809.1 83.8 L 807.6 81.3 L 805.2 79.1 L 801.7 77.1 L 798.2 73 L 794.6 66.8 L 791.6 62.8 L 789.3 61.2 L 787.9 61 L 786.6 60.4 L 786.1 59 L 786.3 57.6 L 786.1 53.6 L 785 48.5 L 782.1 42.4 L 777.5 35.4 L 773.3 30.9 L 769.7 29 L 767.7 25.5 L 766.8 18.1 L 755.8 0.9 L 752.3 -5.3 L 751.1 -6.9 L 748.9 -9 L 745.9 -13 L 744.6 -16.8 L 745.1 -20.4 L 743.4 -25.3 L 739.3 -31.5 L 736.7 -37.3 L 735.4 -42.9 L 735.1 -47.7 L 735.7 -51.6 L 734.9 -54.6 L 732.7 -56.5 L 731.3 -59.3 L 730.4 -65 L 728 -83.9 L 727.8 -92.8 L 728.8 -97.9 L 728.8 -104.9 L 727.8 -113.6 L 727.7 -119.4 L 728.8 -122.1 L 728.8 -124.9 L 727.9 -127.5 L 730.7 -130 L 737.3 -132.3 L 741.5 -134.4 L 743.4 -136.4 L 746.2 -137.1 L 749.7 -136.7 L 753.4 -139.9 L 757.3 -146.6 L 758.7 -151.6 L 757.5 -154.9 L 757.8 -157.6 L 760.3 -160.8 L 760.7 -163.6 L 759.9 -167.2" />
<path class="river" d="M 1125 613.3 L 1129.7 607.2 L 1132 605.2 L 1133.5 605.1 L 1135.6 603.9 L 1138.4 601.4 L 1141.6 599.8 L 1145.4 599.2 L 1147.9 597.6 L 1149 594.9 L 1150.9 593.5 L 1153.7 593.6 L 1155.3 592.7 L 1155.7 590.9 L 1157.4 589.4 L 1160.3 588.1 L 1161.9 586.5 L 1162 584.8 L 1165.5 580.5 L 1172.5 573.6 L 1179 569.8 L 1185.1 569 L 1190.9 567.6 L 1196.4 565.5 L 1200.4 562.3 L 1203 557.8 L 1207.4 555.4 L 1216.8 554.6 L 1227.7 552.8 L 1236.8 554.2 L 1247.7 558.3 L 1258 559.8 L 1267.5 558.6 L 1275.3 558.3 L 1281.3 558.9 L 1286 560.4 L 1289.4 562.5 L 1293.4 563.9 L 1297.9 564.4 L 1302.5 566.5 L 1307 570.1 L 1311.8 575.4 L 1317.1 582.4 L 1321 586.6 L 1323.6 588.2 L 1325.3 590.3 L 1325.9 593 L 1328 596.7 L 1331.5 601.4 L 1335 609.4 L 1338.4 620.9 L 1342.1 628.6 L 1347.8 634.5 L 1349.6 638.6 L 1350.9 640 L 1352.3 640 L 1354.9 641.7 L 1358.6 645 L 1361.4 646.6 L 1363.4 646.4 L 1364.5 647 L 1364.9 648.2 L 1367 649.8 L 1370.9 651.8 L 1372.9 652.6 L 1373.9 652.5 L 1374.5 652 L 1374.9 651.6 L 1375.5 651.3 L 1376.1 651.8 L 1377.2 654.5 L 1378.5 659.3 L 1377.8 662.8 L 1375.2 665 L 1374.1 666.7 L 1374.6 668.4" />
<path class="river" d="M 1097.9 157.4 L 1094.8 154.7 L 1093 154.2 L 1091.5 155 L 1089.6 155 L 1086.1 154 L 1084.1 152.9 L 1082.4 150 L 1080.2 145 L 1077.7 141.8 L 1074.8 140.2 L 1073.4 138.6 L 1073.4 136.8 L 1072.9 135.6 L 1071.7 135 L 1071.4 133.5 L 1072 131.2 L 1073.7 129.4 L 1076.5 128 L 1078.1 124.6 L 1078.4 119 L 1076.9 114.3 L 1073.6 110.5 L 1071 108.9 L 1069.1 109.7 L 1067.5 109.6 L 1066.3 108.8 L 1066.2 106.7 L 1067.2 103.3 L 1067.2 99.9 L 1066.2 96.4 L 1067.2 92.6 L 1070.4 88.4 L 1071.2 84 L 1069.7 79.5 L 1069.1 75.5 L 1069.5 70.5 L 1071.8 63.3 L 1073.7 61.9 L 1075.9 63.8 L 1078.2 63.7 L 1080.3 61.6 L 1082.5 60.7 L 1084.7 60.9 L 1087.2 58.4 L 1089.9 53 L 1090.7 48.7 L 1089.6 45.3 L 1091.7 42 L 1096.9 38.8 L 1099.3 35.9 L 1098.6 33.2 L 1099.2 31.2 L 1100.9 29.7 L 1101.6 28.4 L 1101.4 27.1 L 1102.3 26.2 L 1105.2 25.5" />
<path class="river" d="M 1040.6 519.3 L 1038.7 516.3 L 1035.1 513.7 L 1029.3 510.6 L 1026.4 507.1 L 1026.4 503.2 L 1027.7 498 L 1030.2 491.8 L 1031.3 488 L 1030.9 486.7 L 1029.7 486.1 L 1027.8 486.2 L 1024.7 484.4 L 1020.5 480.7 L 1016.2 479.9 L 1011.7 482.2 L 1007.9 481.9 L 1004.8 479.3 L 1001 477.3 L 996.4 476 L 991.9 475.8 L 989.8 475.7 L 988.5 475.2 L 988.5 474.3 L 989.4 473.1 L 995.2 466.9 L 997.1 461.2 L 996.5 459.2 M 987.9 454.4 L 991 456.9 L 996.5 459.2 M 994.5 453.1 L 996.5 459.2 M 983.5 446.1 L 987.9 454.4 M 983.5 446.1 L 985.6 448 L 988.5 448.6 L 991.1 450 L 994.4 453 M 956.5 431 L 957.1 436 L 960.6 440.8 L 965.8 447.2 L 970.4 451.2 L 974.4 452.9 L 979.2 453.9 L 987.9 454.4 M 956.5 431 L 958.5 434.8 L 961.6 436.4 L 965.9 435.8 L 970.4 436.2 L 975.3 437.5 L 979.3 440.5 L 982.5 445.2 L 983.5 446.1 M 917.6 397.5 L 922.7 398.9 L 926.5 402.3 L 930.7 408.1 L 934.1 411.1 L 936.5 411.3 L 939.8 414.9 L 944 422 L 948.5 426.5 L 953.2 428.3 L 956.5 431" />
<path class="river" d="M 1069.7 874.5 L 1063.5 872.6 L 1058.5 869.3 L 1049.6 861.3 M 1040.2 850.5 L 1031.1 844.4 L 1027.4 841.2 L 1026.1 839 L 1023.7 837.7 L 1020.3 837.3 L 1016.4 835.5 L 1011.9 832.5 L 1009.6 830 L 1009.4 828.2 L 1008 826.5 L 1005.2 824.8 L 1002.4 822 L 998.3 816.1 L 996.4 819.6 L 995 821.1 L 993.4 821.7 L 991.6 821.6 L 990.1 821 L 988.8 821.3 L 987.7 822.6 L 985.1 824.2 L 980.7 825.9 L 978.2 827.3 L 977.8 828.1 L 976.6 828.9 L 975 829.6 L 974.6 831.7 L 973.7 832.7 L 971.6 833.1 L 970.4 833.4 L 969.5 833.7 L 968.8 834.5 L 969.3 837 L 968.8 838.4 L 967.3 838.7 L 964.6 836.6 L 960.7 832 L 955.7 828.6 L 949.8 826.3 L 946.6 823.4 L 946.2 820 L 944.4 815.6 L 941.1 810.2 L 938.6 807.7 L 936.9 808.2 L 935 807.9 L 933 806.6 L 930.2 802.7 L 926.8 796 L 923.6 792 L 920.7 790.8 L 916.9 790.5 L 912.2 791.1 L 907.4 794 L 902.5 799.2 L 897.3 802.4 L 891.9 803.7 L 887.2 804.1 L 883.3 803.7 L 878.9 801.6 L 873.8 797.8 L 868.4 794.8 L 862.6 792.5 L 855.8 792.3 L 848 794.4 L 843 797.1 L 840.8 800.4 L 837.9 802.4 L 834.3 803.1 L 832.7 804.8 L 833.2 807.5 L 831.8 809.5 L 828.6 810.9 L 823.4 810.5 L 816.3 808.3 L 807.3 807.8 L 796.3 808.9 L 788.3 808.4 L 783.5 806.1 L 778.4 804.8 L 773 804.5 L 769.9 803.5 L 763.5 801.8 L 762.2 798.9 L 761.5 796.7 L 759.7 794.3 L 759.5 792.4 L 760.9 791 L 761.1 788.7 L 760.1 785.5 L 758.3 784 L 755.8 784 L 754.2 782.8 L 753.6 780.3 L 752.1 778.4 L 748.6 776.4 L 743.9 777.9 L 741.7 780.1 L 740.4 783.6 L 739.2 785.3 L 738.6 788.2 L 738.4 790.3 L 737.2 792.5 L 735.9 793.3 L 734.6 792.9 L 732.2 793.8 L 726.9 797 L 725.4 798.7 M 1204.7 816.4 L 1203.1 821.5 L 1200.9 823.8 L 1197.5 824.8 L 1195.2 826.9 L 1193.6 831.5 L 1191.9 834.2 L 1192 835.5 L 1193.4 836.5 L 1193.7 837.7 L 1192.8 839.1 L 1192.8 841.1 L 1193.9 843.8 L 1193.1 845.6 L 1190.6 846.6 L 1189.8 847.8 L 1190.8 849.3 L 1190.6 850.7 L 1189 851.9 L 1186 852.7 L 1181.7 853 L 1178.7 852.5 L 1176.8 851.3 L 1172.4 851.5 L 1165.4 853.1 L 1161.6 855.1 L 1160.9 857.5 L 1159.8 859.4 L 1158.2 860.8 L 1156.6 861.3 L 1154.8 861 L 1153.6 862 L 1153 864.2 L 1151.4 865.5 L 1148.9 865.9 L 1145.8 865.4 L 1142.9 864.1 L 1142 863.6 L 1141.3 863.7 L 1141.2 864 L 1141.3 864.7 L 1140.8 865.4 L 1139.6 865.9 L 1139.3 866.6 L 1139.3 867.1 L 1139.2 867.5 L 1138.3 867.6 L 1137.7 868.2 L 1137.2 869.4 L 1135.1 870.3 L 1129.6 871.1 L 1128.1 871.8 L 1127.5 873.1 L 1126 874.4 L 1122.6 876.1 L 1118.7 877 L 1114.5 877.1 L 1110.6 876 L 1107 873.7 L 1103.7 872.7 L 1100.6 873.1 L 1097.8 872.4 L 1095.3 870.6 L 1092.4 870.3 L 1087.4 872" />
<path class="river" d="M 1074.1 762.7 L 1064.4 766.1 L 1059 769.8 L 1054.6 774.9 L 1050.1 777.9 L 1045.3 778.8 L 1041.9 780.9 L 1039.8 784.3 L 1038.8 788 L 1039 792.1 L 1038.2 794.1 L 1036.4 794.4 L 1035.5 795.4 L 1035.3 796.6 L 1034.6 797.4 L 1033.5 796.7 L 1032.1 796.3 L 1030.3 797 L 1028.6 796.4 L 1027.7 794.6 L 1026.1 792.9 L 1023.8 791.7 L 1020.7 793.3 L 1016.8 797.6 L 1014 802.8 L 1012.2 808.8 L 1008 812.9 L 998.3 816.1 M 1169.2 732.2 L 1164.5 726.5 L 1161 725.7 L 1157.2 727.8 L 1153.7 728.4 L 1150.3 727.7 L 1147.6 728.6 L 1145.7 731.2 L 1143.1 732.4 L 1139.8 732.1 L 1136.9 733 L 1134.5 734.8 L 1131 734.9 L 1126.3 733 L 1124.3 733.1 L 1123.5 734.7 L 1122.2 735.3 L 1119.8 734.8 L 1115 736.9 L 1107.7 741.6 L 1105.6 744 L 1105.6 745.5 L 1106.2 746.2 L 1106.6 747.9 L 1105.9 749.7 L 1106.2 751 L 1104.9 752.4 L 1101.1 752.7 L 1097.1 754.8 L 1091.9 760.2 M 1245.6 713.8 L 1248.5 717.4 L 1247.6 720.5 L 1242.4 726.2 L 1234.4 730.1 L 1229 731.4 L 1223.5 731.4 L 1220.5 732.2 L 1220 733.8 L 1218.3 734.4 L 1215.3 733.9 L 1212.7 734.7 L 1210.6 736.9 L 1208.4 738.2 L 1206.4 738.9 L 1204.8 738.9 L 1202.2 737.5 L 1200 737.5 L 1197.1 738.3 L 1194.1 738 L 1190.9 736.4 L 1189.8 736.3 L 1189.4 737 L 1188.3 738 L 1186 739 L 1184.7 738.9 L 1184.4 737.8 L 1183.3 736.9" />
<path class="river" d="M 1470 408 L 1472.5 411.4 L 1473.8 415.6 L 1474 418.8 L 1473.1 421 L 1473.4 422.6 L 1474.2 423.7 L 1474.3 425.4 L 1473.3 427.2 M 1470 408 L 1487.4 417.1 M 1193.4 339.4 L 1196.1 335.3 L 1197 330.9 L 1197 324.6 L 1197.8 320.6 L 1199.2 318.8 L 1201.5 317.3 L 1204.4 315.5 L 1213.4 310.7 L 1221 307.7 L 1230.2 305.7 L 1270.8 305.6 M 1343.4 303.3 L 1351.7 303.5 L 1355.6 305.3 L 1357.9 308.8 L 1362.2 313 L 1368.6 317.8 L 1375.9 324.8 L 1388.1 338.5 L 1391.9 342 L 1400.3 345.7 L 1414.6 350.9 L 1422.7 354.3 L 1424.6 355.9 L 1426.6 359.5 L 1429.8 367.9 L 1434.2 377 L 1437.6 381.4 L 1441.6 384 L 1445.3 387.6 L 1448.8 392.2 L 1453.4 395.7 L 1459.2 398.3 L 1462.7 400.8 L 1463.8 403.3 L 1466.3 405.7 L 1470 408 M 1022.6 143.6 L 1024.9 141 L 1025.2 138.3 L 1024.2 134.6 L 1021.1 133 L 1013.3 134 L 1003 141.8 L 997.2 145.3 L 992.6 147 L 989.2 149 L 987 151.5 L 981 155.3 L 971.2 160.5 L 965.3 165.4 L 963.3 170 L 961.2 173.5 L 958.8 175.9 L 957.5 180.4 L 957.1 187.1 L 958.5 193.4 L 961.6 199.5 L 963 203.9 L 962.6 206.7 L 965.1 210.2 L 973.1 216.8 L 975.3 218.7 L 977.3 222.6 L 979.7 229.2 L 981.5 232.8 L 982.9 233.6 L 983.1 235 L 982.3 237.1 L 982.3 239.8 L 983.1 242.9 L 983 245.7 L 981.9 248.2 L 981.9 251.4 L 982.8 255.5 L 981.7 260 L 978.5 265 L 975.7 273 L 973.3 284.2 L 973.8 291.8 L 977.2 295.9 L 979.2 299.5 L 979.6 302.6 L 979.3 305 L 978.2 306.5 L 979 309.2 L 981.7 313 L 983.8 319.7 L 985.6 329.3 L 993.1 340.1 L 1006.6 352.2 L 1015.4 362.6 L 1021.5 375.4 L 1040.3 376.9 L 1047.9 377.9 L 1050.5 378.8 L 1054 381.3 L 1060.3 387.4 L 1067.6 389.3 L 1071.6 389.5 L 1074.8 388.5 L 1078.7 389.8 L 1083.3 393.4 L 1088.3 394.1 L 1093.8 391.9 L 1101.1 392.5 L 1110.4 396.1 L 1118.1 396.8 L 1127.3 393.7" />
<g class="city"><circle cx="1165.5467845284734" cy="705.649870511022" r="5" /><text x="1177.5467845284734" y="709.649870511022">Johannesburg</text></g>
<g class="city"><circle cx="800.901483205841" cy="1000.1764163918084" r="5" /><text x="812.901483205841" y="1004.1764163918084">Cape Town</text></g>
<g class="city"><circle cx="1278.906939034555" cy="845.9805281987067" r="5" /><text x="1290.906939034555" y="849.9805281987067">Durban</text></g>
<g class="city"><circle cx="1280.1162133320072" cy="388.2341792079207" r="5" /><text x="1292.1162133320072" y="392.2341792079207">Harare</text></g>
<g class="city"><circle cx="1144.6451129570025" cy="154.9770623537325" r="5" /><text x="1156.6451129570025" y="158.9770623537325">Lubumbashi</text></g>
<g class="city"><circle cx="1173.1254228415964" cy="688.0494949694397" r="5" /><text x="1185.1254228415964" y="692.0494949694397">Pretoria</text></g>
<g class="city"><circle cx="1175.1737784468248" cy="296.98200629058573" r="5" /><text x="1187.1737784468248" y="300.98200629058573">Lusaka</text></g>
<g class="city"><circle cx="699.242710683859" cy="195.63942365404685" r="5" /><text x="711.242710683859" y="199.63942365404685">Huambo</text></g>
<text class="map-title" x="80" y="105">Namibia Physical Study Map</text>
<text class="map-subtitle" x="80" y="145">Landmark: Sossusvlei Dunes | Study terrain and water systems</text>
  <text class="footer" x="80" y="1036">Made with Natural Earth. Free vector and raster map data @ naturalearthdata.com.</text>
</svg>
