<?xml version="1.0" encoding="UTF-8"?>
<svg xmlns="http://www.w3.org/2000/svg" width="1600" height="1100" viewBox="0 0 1600 1100" role="img" aria-labelledby="title desc">
  <title id="title">Niger Physical Study Map</title>
  <desc id="desc">Made with Natural Earth. Free vector and raster map data @ naturalearthdata.com.</desc>
  <defs>
    <linearGradient id="terrain" x1="0" x2="1" y1="0" y2="1">
      <stop offset="0%" stop-color="#6c8c53" />
      <stop offset="42%" stop-color="#d5c487" />
      <stop offset="72%" stop-color="#b88b5f" />
      <stop offset="100%" stop-color="#f1f5ee" />
    </linearGradient>
    <filter id="softShadow" x="-10%" y="-10%" width="120%" height="120%">
      <feDropShadow dx="0" dy="10" stdDeviation="12" flood-color="#0f172a" flood-opacity="0.16" />
    </filter>
    <style>
      .neighbor { fill: #ffffff; stroke: #94a3b8; stroke-width: 1.2; opacity: 0.72; }
      .country { fill: url(#terrain); stroke: #1f2937; stroke-width: 4; filter: url(#softShadow); }
      .admin1 { fill: none; stroke: #64748b; stroke-width: 1.1; stroke-dasharray: 6 7; opacity: 0.75; }
      .river { fill: none; stroke: #1d9bd1; stroke-width: 3; stroke-linecap: round; opacity: 0.88; }
      .lake { fill: #8ed1ea; stroke: #0ea5e9; stroke-width: 1.5; opacity: 0.8; }
      .city circle { fill: #ef4444; stroke: #ffffff; stroke-width: 2; }
      .city text, .terrain-label { fill: #172033; font: 700 24px system-ui, sans-serif; paint-order: stroke; stroke: #ffffff; stroke-width: 5; stroke-linejoin: round; }
      .map-title { fill: #0f172a; font: 800 46px system-ui, sans-serif; }
      .map-subtitle { fill: #475569; font: 600 24px system-ui, sans-serif; }
      .footer { fill: #64748b; font: 500 18px system-ui, sans-serif; }
    </style>
  </defs>
  <rect width="100%" height="100%" fill="#d8edf0" />
  <rect x="40" y="40" width="1520" height="1020" rx="32" fill="#ffffff" opacity="0.54" />
  <path class="neighbor" d="M 1441.3 948.6 L 1411.7 931.6 L 1398.2 920.4 L 1395.7 908.3 L 1402 892.1 L 1401.9 876.2 L 1379.4 851.8 L 1375 835.2 L 1375.5 825.7 L 1361.2 814.3 L 1360.7 791.6 L 1352.6 776.6 L 1338.9 778.9 L 1342.8 764.6 L 1352.9 748.3 L 1348.5 732.2 L 1361.3 720.2 L 1353.2 711.1 L 1363.5 687.1 L 1381.3 658.4 L 1414.8 661.1 L 1412.9 506.5 L 1413.4 490.2 L 1458.2 490.1 L 1458.2 412.3 L 1614.8 412.3 L 1765.9 412.3 L 1920.3 412.3 L 1932.9 450.5 L 1924.3 457.6 L 1930 497.7 L 1944.3 544.2 L 1959.1 553.8 L 1980.5 568.2 L 1960.7 590.4 L 1932.1 596.8 L 1919.8 608.7 L 1915.9 634.6 L 1899.2 691.8 L 1903.3 707.4 L 1897.1 740.9 L 1881.3 779.2 L 1857.8 798.5 L 1841.1 828.3 L 1837.2 844.2 L 1818.7 855.1 L 1807.2 895.9 L 1807.7 930.9 L 1807.3 900.5 L 1801.9 899.7 L 1802.6 880.4 L 1797.9 867 L 1777.8 851.6 L 1773.1 823.5 L 1777.8 794.8 L 1759.8 792.1 L 1757.1 800.8 L 1733.7 802.8 L 1743 814.2 L 1746.4 837.6 L 1725 859 L 1705.6 887 L 1685.5 891.1 L 1652.8 868.3 L 1638.1 876.3 L 1634.1 887.7 L 1614 895.1 L 1612.7 903.1 L 1573.9 903.1 L 1568.5 895.1 L 1540.5 893.7 L 1526.4 900.4 L 1515.7 897.1 L 1495.7 874.3 L 1489 863.6 L 1460.9 869 L 1450.2 887 L 1440.2 921.8 L 1426.8 929.2 L 1414.8 933.4 L 1441.3 948.6 Z" />
<path class="neighbor" d="M 1412.9 506.5 L 1414.8 661.1 L 1381.3 658.4 L 1363.5 687.1 L 1353.2 711.1 L 1361.3 720.2 L 1348.5 732.2 L 1352.9 748.3 L 1342.8 764.6 L 1338.9 778.9 L 1352.6 776.6 L 1360.7 791.6 L 1361.2 814.3 L 1375.5 825.7 L 1375 835.2 L 1350.4 841.8 L 1330.6 857.6 L 1302.4 900.1 L 1265.8 918.1 L 1228.2 915.7 L 1217.2 919.3 L 1221.1 933 L 1200.7 946.6 L 1184.2 961.8 L 1135.2 976.7 L 1125.5 967.9 L 1119 967.1 L 1111.8 977.1 L 1079.6 980.1 L 1085.7 969.5 L 1073.4 942.7 L 1068 926.5 L 1051 919.9 L 1028 897.2 L 1036.5 878.8 L 1054.2 882.7 L 1065.2 880 L 1087 880.3 L 1065.8 844.9 L 1067.2 819.1 L 1064.6 793.2 L 1049.1 768.3 L 1053 750 L 1028 749.1 L 1028.1 724 L 1011.9 709.6 L 1028.7 658.3 L 1078.4 621.6 L 1080.4 570.9 L 1095.4 491.9 L 1103.9 475.1 L 1087.7 461.8 L 1087.1 449.4 L 1072.5 439.2 L 1063 378.7 L 1102.3 357.4 L 1257.6 432 L 1412.9 506.5 Z" />
<path class="neighbor" d="M -1527.3 1107.2 L -1550.3 1142.9 L -1562.2 1171.6 L -1577.2 1186.4 L -1595.8 1189.1 L -1601.1 1178.2 L -1609.8 1176.5 L -1621.9 1187.1 L -1638.9 1179.1 L -1629 1162.7 L -1625.5 1144.9 L -1618.7 1128.1 L -1634 1105 L -1637.1 1078.4 L -1616.8 1044.9 L -1603.6 1049.2 L -1574.9 1058.4 L -1533.7 1091.3 L -1527.3 1107.2 Z M 725.5 -657.3 L 743.9 -647.1 L 800 -639.9 L 780.3 -613.2 L 775.4 -585.5 L 764.7 -578.8 L 746.9 -582.4 L 748.2 -572.5 L 719.7 -550.6 L 719.1 -533 L 737.7 -539.1 L 751.1 -522 L 749.5 -511 L 760.9 -496.4 L 747.4 -484.5 L 757.5 -454.4 L 778.6 -449.5 L 774.1 -432.6 L 738.8 -410.6 L 662 -421.1 L 605.3 -408.5 L 600.9 -385 L 555.7 -380 L 511.9 -397.6 L 497.7 -389.2 L 426 -406.9 L 410.5 -422 L 430.7 -445.4 L 438.1 -522.9 L 397.9 -563.8 L 369.2 -583.5 L 309.6 -598.5 L 305.7 -626.9 L 356.2 -635.4 L 421.6 -625.4 L 409.3 -669.4 L 446 -652.7 L 536.7 -683.1 L 548.4 -715 L 582.5 -722.9 L 588.1 -709.2 L 606.2 -708.5 L 624.3 -692.9 L 651.5 -674.5 L 671.5 -677.6 L 705.5 -659.8 L 714.3 -656.4 L 725.5 -657.3 Z M 825.2 -391 L 850.3 -405.9 L 856.9 -372.5 L 844 -342.4 L 826.3 -350.4 L 817.3 -376.6 L 825.2 -391 Z" />
<path class="neighbor" d="M 36.2 784.5 L 37.9 772.4 L 34.6 757.3 L 20 746.4 L 12.4 724.1 L 10.6 699.9 L 23.7 692.8 L 30.2 669.8 L 42.6 668.9 L 69.8 679.8 L 91.7 672.1 L 106.8 674.6 L 112.6 666 L 268.9 665.4 L 277.6 638.1 L 270.8 633.3 L 252 465.2 L 233.2 297.2 L 292.8 296.5 L 424.2 381.4 L 555.6 466.4 L 564.8 484.7 L 589.1 495.8 L 607.1 502.1 L 607.6 526.9 L 650.8 523.1 L 650.9 612.8 L 629.6 638.8 L 626.3 662.8 L 591.7 669 L 538.5 672.3 L 524.1 686.2 L 499.2 687.7 L 474.2 687.9 L 464.5 680.4 L 443 685.9 L 406.6 702.1 L 399.2 714.3 L 369 731.7 L 363.7 741.7 L 347.4 749.7 L 328.5 744.4 L 317.9 753.9 L 312.1 780.6 L 281.2 812.9 L 282.1 826.1 L 271.5 842.6 L 274.1 865.2 L 258 871 L 248.9 875.9 L 242.9 859.2 L 231.7 863.6 L 224.9 862.9 L 217.8 874.2 L 187.7 873.9 L 176.9 868.1 L 171.8 871.6 L 159.9 860.4 L 162 848.8 L 157.1 844.2 L 148.8 848.1 L 150.4 835.4 L 158.4 825.4 L 142.4 809.1 L 137.7 798.3 L 129.1 789.8 L 121.3 788.7 L 111.9 794.2 L 99.4 799.4 L 88.7 807.8 L 72 804.7 L 61.2 794.8 L 54.7 793.5 L 44.6 798.7 L 38.4 798.8 L 36.2 784.5 Z" />
<path class="neighbor" d="M -180 451.3 L -171.5 438.3 L -19 438.5 L -26.3 382.3 L -16.8 362.3 L 19.7 358.8 L 18.4 259.1 L 146.2 261.2 L 146.4 202.2 L 292.8 296.5 L 233.2 297.2 L 252 465.2 L 270.8 633.3 L 277.6 638.1 L 268.9 665.4 L 112.6 666 L 106.8 674.6 L 91.7 672.1 L 69.8 679.8 L 42.6 668.9 L 30.2 669.8 L 23.7 692.8 L 10.6 699.9 L -15.1 673.1 L -38.7 644.5 L -64.5 634.1 L -83.1 622.7 L -104.9 623.1 L -123.9 631.6 L -143.3 628.2 L -156.6 640.7 L -160 619.7 L -149.1 600.5 L -144.3 563.9 L -148.6 525.4 L -153.3 506 L -149.4 486.6 L -159.4 468.1 L -180 451.3 Z" />
<path class="neighbor" d="M 589.4 1025.4 L 557.2 1029.9 L 547.6 1003 L 549.4 913.6 L 541.5 905.6 L 540.1 886.5 L 526.5 872.8 L 514.6 861.3 L 519.6 840.8 L 533 836.4 L 540.9 819.4 L 560 815.7 L 568.5 804.1 L 581.5 792.7 L 595.5 792.6 L 625.2 815 L 623.7 827.9 L 632.4 851 L 624.8 866.7 L 628.9 877.2 L 610 901.3 L 598 913.2 L 590.6 937.8 L 591.6 962.6 L 589.4 1025.4 Z" />
<path class="neighbor" d="M 589.4 1025.4 L 591.6 962.6 L 590.6 937.8 L 598 913.2 L 610 901.3 L 628.9 877.2 L 624.8 866.7 L 632.4 851 L 623.7 827.9 L 625.2 815 L 627.9 780.2 L 639.1 764.5 L 644.6 742.1 L 654.7 733.7 L 696.5 729.1 L 735.6 743.6 L 750.2 758.3 L 770.1 759 L 788.5 749.4 L 835.7 769.6 L 855.5 768.6 L 878.5 752 L 901.3 753.2 L 912.6 747.7 L 933.5 750 L 963.7 761.4 L 994.1 739.6 L 1003.3 741.2 L 1029.6 783.8 L 1036.9 782.9 L 1052.3 798.4 L 1048 805.5 L 1046 818.4 L 1013.2 848.6 L 1002.9 873.4 L 997.4 893.7 L 989.1 902.3 L 981.3 929.6 L 960.4 945.6 L 954.4 965.3 L 945.6 981 L 942 997.2 L 915.3 1010.3 L 893.4 994.3 L 878.6 995 L 855.4 1017.8 L 844.2 1018.1 L 825.6 1055.7 L 815.6 1083.3 L 775.2 1097.3 L 760.4 1095.2 L 745.4 1104 L 714.3 1103.1 L 693.4 1078.7 L 680.6 1050.6 L 653 1024.9 L 623.8 1025.4 L 589.4 1025.4 Z" />
<path class="neighbor" d="M 1049.1 768.3 L 1064.6 793.2 L 1067.2 819.1 L 1065.8 844.9 L 1087 880.3 L 1065.2 880 L 1054.2 882.7 L 1036.5 878.8 L 1028 897.2 L 1051 919.9 L 1068 926.5 L 1073.4 942.7 L 1085.7 969.5 L 1079.6 980.1 L 1060 1019.5 L 1050.7 1026.6 L 1047.7 1056.8 L 1051.6 1073.2 L 1048.4 1084.8 L 1066.8 1105.1 L 1070.2 1119.1 L 1084.5 1139.2 L 1102.3 1151.7 L 1104.1 1169.5 L 1108.2 1180.8 L 1105.4 1201.8 L 1074.4 1192.6 L 1043 1182.3 L 993.8 1180.8 L 989 1178.7 L 965.9 1183.7 L 942.2 1178.5 L 923.7 1181 L 860.4 1180.2 L 866 1149.4 L 850.8 1123.7 L 833.1 1117.1 L 825.1 1099.6 L 815.2 1094 L 815.6 1083.3 L 825.6 1055.7 L 844.2 1018.1 L 855.4 1017.8 L 878.6 995 L 893.4 994.3 L 915.3 1010.3 L 942 997.2 L 945.6 981 L 954.4 965.3 L 960.4 945.6 L 981.3 929.6 L 989.1 902.3 L 997.4 893.7 L 1002.9 873.4 L 1013.2 848.6 L 1046 818.4 L 1048 805.5 L 1052.3 798.4 L 1036.9 782.9 L 1038.1 770.5 L 1049.1 768.3 Z" />
<path class="neighbor" d="M 519.6 840.8 L 514.6 861.3 L 526.5 872.8 L 540.1 886.5 L 541.5 905.6 L 549.4 913.6 L 547.6 1003 L 557.2 1029.9 L 525.9 1038.2 L 517.2 1024.5 L 506.8 999.8 L 503.7 980.5 L 512.3 945.4 L 502.5 931.2 L 498.8 900.5 L 498.9 872.2 L 482.6 852.1 L 485.5 840 L 519.6 840.8 Z" />
<path class="neighbor" d="M 485.5 840 L 482.6 852.1 L 498.9 872.2 L 498.8 900.5 L 502.5 931.2 L 512.3 945.4 L 503.7 980.5 L 506.8 999.8 L 517.2 1024.5 L 525.9 1038.2 L 464.8 1061 L 443.1 1074.4 L 408.1 1085.7 L 373.3 1074.6 L 375.1 1059.2 L 358.2 1025.7 L 368.4 981.7 L 384.8 949 L 374.4 893.6 L 369.1 864.3 L 370.1 842.2 L 437.7 840.3 L 454.9 843.2 L 467.5 836.9 L 485.5 840 Z" />
<path class="neighbor" d="M 171.8 871.6 L 176.9 868.1 L 187.7 873.9 L 217.8 874.2 L 224.9 862.9 L 231.7 863.6 L 242.9 859.2 L 248.9 875.9 L 258 871 L 274.1 865.2 L 291.6 873.7 L 298.4 886.6 L 315.9 894.8 L 329.5 885 L 347.8 883.5 L 374.4 893.6 L 384.8 949 L 368.4 981.7 L 358.2 1025.7 L 375.1 1059.2 L 373.3 1074.6 L 355.6 1075 L 328.4 1067.4 L 303.5 1067.8 L 257.3 1074.6 L 230.3 1085.9 L 191.7 1100.2 L 184.2 1099.1 L 187.2 1067.1 L 190.9 1062.2 L 189.7 1046.8 L 173.3 1030.5 L 160.9 1027.9 L 149.5 1017.2 L 158 999.9 L 154.1 981.1 L 155.9 969.8 L 162.1 969.7 L 164.4 952.7 L 161.4 945.2 L 165.1 939.8 L 179.5 935.1 L 169.9 903.9 L 160.9 887.9 L 164.1 874.6 L 171.8 871.6 Z" />
<path class="neighbor" d="M 274.1 865.2 L 271.5 842.6 L 282.1 826.1 L 281.2 812.9 L 312.1 780.6 L 317.9 753.9 L 328.5 744.4 L 347.4 749.7 L 363.7 741.7 L 369 731.7 L 399.2 714.3 L 406.6 702.1 L 443 685.9 L 464.5 680.4 L 474.2 687.9 L 499.2 687.7 L 496.1 706.6 L 501.3 724.3 L 523.2 749.7 L 524.5 768.6 L 569.4 777.4 L 568.5 804.1 L 560 815.7 L 540.9 819.4 L 533 836.4 L 519.6 840.8 L 485.5 840 L 467.5 836.9 L 454.9 843.2 L 437.7 840.3 L 370.1 842.2 L 369.1 864.3 L 374.4 893.6 L 347.8 883.5 L 329.5 885 L 315.9 894.8 L 298.4 886.6 L 291.6 873.7 L 274.1 865.2 Z" />
<path class="neighbor" d="M 1550.7 1065.3 L 1537.8 1069.4 L 1512.8 1068.5 L 1483.5 1064.4 L 1469.1 1067.7 L 1463.2 1077.2 L 1450.6 1078.4 L 1435.2 1070.1 L 1391.9 1089.6 L 1374.1 1085.7 L 1368.8 1088.7 L 1357.1 1112.2 L 1328.1 1104.6 L 1299.6 1100.8 L 1274.8 1086.4 L 1242.7 1073.2 L 1221.9 1085.7 L 1206.7 1105.5 L 1203.2 1132.6 L 1178.2 1130.5 L 1151.8 1123.9 L 1128.6 1144.5 L 1108.2 1180.8 L 1104.1 1169.5 L 1102.3 1151.7 L 1084.5 1139.2 L 1070.2 1119.1 L 1066.8 1105.1 L 1048.4 1084.8 L 1051.6 1073.2 L 1047.7 1056.8 L 1050.7 1026.6 L 1060 1019.5 L 1079.6 980.1 L 1111.8 977.1 L 1119 967.1 L 1125.5 967.9 L 1135.2 976.7 L 1184.2 961.8 L 1200.7 946.6 L 1221.1 933 L 1217.2 919.3 L 1228.2 915.7 L 1265.8 918.1 L 1302.4 900.1 L 1330.6 857.6 L 1350.4 841.8 L 1375 835.2 L 1379.4 851.8 L 1401.9 876.2 L 1402 892.1 L 1395.7 908.3 L 1398.2 920.4 L 1411.7 931.6 L 1441.3 948.6 L 1462.7 964.4 L 1463 977 L 1489.2 997.3 L 1505.5 1014.1 L 1515.3 1037.5 L 1544.4 1052.9 L 1550.7 1065.3 Z" />
<path class="neighbor" d="M 146.4 202.2 L 147.1 194.6 L 147.1 192 L 146.8 145.9 L 209.6 117.1 L 248.5 111.2 L 280.4 100.7 L 295.3 81.2 L 340.8 65.8 L 342.5 37 L 365 33.6 L 382.7 19.2 L 433.6 12.6 L 440.8 -2.5 L 430.5 -10.8 L 417.1 -51.9 L 414.7 -75.6 L 400.1 -100.5 L 437.5 -121.8 L 479.6 -128.6 L 504.2 -144.7 L 541.7 -156.5 L 607.7 -163.4 L 672.1 -166.6 L 691.8 -160.8 L 728.4 -176.2 L 770 -176.5 L 785.9 -167.4 L 812.5 -169.8 L 804.6 -149.8 L 810.8 -112.7 L 801.6 -80.5 L 777.6 -58.8 L 781 -29.5 L 812.9 -6.3 L 813.2 3.1 L 837.2 18.9 L 853.8 88.8 L 866.4 123.2 L 868.6 141.3 L 861.7 173 L 864.5 190.8 L 859.6 212.1 L 863 236.6 L 847.5 252.9 L 870.5 281.2 L 872 297.9 L 885.9 319.7 L 904.1 312.5 L 934.8 330.6 L 951.9 355 L 818.4 429.2 L 705.7 505.7 L 650.8 523.1 L 607.6 526.9 L 607.1 502.1 L 589.1 495.8 L 564.8 484.7 L 555.6 466.4 L 424.2 381.4 L 292.8 296.5 L 146.4 202.2 Z" />
<path class="neighbor" d="M 400.1 -100.5 L 414.7 -75.6 L 417.1 -51.9 L 430.5 -10.8 L 440.8 -2.5 L 433.6 12.6 L 382.7 19.2 L 365 33.6 L 342.5 37 L 340.8 65.8 L 295.3 81.2 L 280.4 100.7 L 248.5 111.2 L 209.6 117.1 L 146.8 145.9 L 147.1 192 L 141.2 192 L 142 212.9 L 118 214.1 L 105.4 223 L 87.7 223 L 73.6 217.9 L 40.9 222.1 L 28.2 252.5 L 16 255.3 L -2.3 304.4 L -56.4 346.5 L -69.3 400.2 L -85.2 417.7 L -89.9 431.8 L -177.6 434.9 L -178.3 434.8 L -176.5 416.8 L -161.5 406.2 L -148.8 385.9 L -151.3 372.7 L -137.9 345.2 L -116.2 320.4 L -103.1 314.2 L -92.8 291.4 L -91.9 270.7 L -77.8 246.6 L -51.9 232.4 L -27.2 192.7 L -26.5 192.1 L -6.9 177.2 L 29.3 172.9 L 60 146.2 L 79.6 135.9 L 112.1 103.3 L 102.3 54.9 L 117.1 21.4 L 122.3 0.9 L 147.4 -25.4 L 186.5 -43.2 L 215.4 -59.3 L 241.4 -99.7 L 253.6 -123.6 L 282.3 -123.4 L 305.8 -106.9 L 342.8 -109.5 L 383.1 -100.9 L 400.1 -100.5 Z" />
<path class="neighbor" d="M 1458.2 412.3 L 1458.2 490.1 L 1413.4 490.2 L 1412.9 506.5 L 1257.6 432 L 1102.3 357.4 L 1063 378.7 L 1035.4 393.2 L 1013.5 371.8 L 951.9 355 L 934.8 330.6 L 904.1 312.5 L 885.9 319.7 L 872 297.9 L 870.5 281.2 L 847.5 252.9 L 863 236.6 L 859.6 212.1 L 864.5 190.8 L 861.7 173 L 868.6 141.3 L 866.4 123.2 L 853.8 88.8 L 872.8 79.7 L 876.2 63.3 L 872.1 47.2 L 898.8 32.2 L 910.8 19.7 L 929.8 8.5 L 932 -21.4 L 977.7 -8 L 994.1 -11.4 L 1026.6 -4.9 L 1078.3 12.5 L 1096.5 47.2 L 1131.5 54.7 L 1186.4 71 L 1227.9 90.4 L 1246.9 80.3 L 1265.5 62.4 L 1256.5 32.5 L 1268.7 13.6 L 1296.7 -4.7 L 1323.6 -10 L 1376.2 -2 L 1389.5 15.4 L 1404 15.6 L 1416.4 22.2 L 1455.1 26.8 L 1464.6 39.6 L 1450.5 58.3 L 1456.5 75 L 1446.5 99 L 1458.2 130.4 L 1458.2 268.9 L 1458.2 412.3 Z" />
<path class="lake" d="M 1058.7 759.8 L 1058.7 760.4 L 1057.7 761 L 1056.8 761.9 L 1056.5 763.1 L 1055.5 763.5 L 1053.9 763.1 L 1052.9 763.2 L 1049.9 763.6 L 1048.3 764.7 L 1045.6 766.7 L 1043.3 767.6 L 1041.3 767.3 L 1040.5 766.6 L 1039.9 763.4 L 1039.9 762.7 L 1040.8 762.3 L 1041 761.7 L 1041.8 760.3 L 1041.9 759.6 L 1041.9 759.4 L 1042.7 758.3 L 1042.7 757.6 L 1043.1 756.5 L 1044.2 755.6 L 1045.9 754.7 L 1049.1 753.5 L 1051.4 753.5 L 1052.8 754.5 L 1055.2 754.7 L 1055.8 755.2 L 1057.3 757.5 L 1058.7 759.8 L 1058.7 759.8 L 1058.7 759.8 Z" />
<path class="lake" d="M 667 865.4 L 666.8 866.2 L 663.6 872 L 663.7 875.3 L 664.4 879.5 L 666 884.1 L 664.7 884.9 L 663.5 884.8 L 662.4 883.4 L 661.3 878.6 L 659.6 877.1 L 658.8 876.9 L 658.6 875.8 L 659.6 874.7 L 660.2 873.9 L 660 872.9 L 658.7 872.4 L 658.4 872 L 659.2 870.7 L 658.5 867.8 L 655.9 865 L 655.9 863.9 L 657.4 863.4 L 657.9 862.6 L 658.2 861.7 L 658.7 855.2 L 659.5 854.6 L 662.4 856.2 L 664 855.6 L 665.9 856 L 666.8 856.9 L 665.6 859.5 L 666.3 863.7 L 667 865.4 L 667 865.4 L 667 865.4 Z" />
<path class="lake" d="M 495.2 1009.2 L 495.2 1009.2 L 495.2 1009.2 L 496.2 1007.4 L 496.9 1006.7 L 496.6 1008.3 L 495.3 1010.2 L 493.5 1011.5 L 492 1011.8 L 491.3 1011.5 L 490.8 1011.4 L 490.5 1011.7 L 490.6 1012.2 L 490.4 1013.2 L 490.3 1014.5 L 490 1015.8 L 489.7 1017.9 L 489.9 1021.2 L 488.6 1022.3 L 487.7 1021.7 L 487.4 1019.7 L 486.2 1019.7 L 484.1 1020.7 L 483.3 1019.5 L 482.2 1017.8 L 480.7 1016.4 L 477.8 1014.7 L 474.6 1012.6 L 472 1011.2 L 467.9 1009.4 L 463.1 1007.5 L 459.9 1006.1 L 458.3 1004.2 L 457.9 1002.9 L 458.9 1002.9 L 460.6 1004 L 462 1004.9 L 463.1 1003.9 L 464.4 1004.5 L 465.5 1006.7 L 466.4 1007.3 L 467.3 1007.1 L 468.3 1007 L 468.6 1005.6 L 468.8 1003.6 L 469.2 1003.2 L 470.2 1005.3 L 471.5 1007.5 L 472.7 1007.5 L 474 1007.3 L 475.7 1006.9 L 477 1006.6 L 477.7 1007.2 L 478.2 1008.7 L 479 1010.2 L 480.8 1011 L 482.3 1010.9 L 483 1009.1 L 483.6 1007.4 L 483.9 1006.9 L 483.7 1006.3 L 482.6 1005.5 L 482 1004.7 L 481.8 1003.9 L 482 1003.3 L 482.9 1002.4 L 484.1 1002.2 L 485 1002.5 L 485.8 1002.3 L 487.6 1001.6 L 488.9 1000.5 L 488.6 1000 L 486.9 999.8 L 486.2 998.6 L 487.9 997.5 L 489.3 997.6 L 489.4 997.1 L 488.4 996.3 L 488 995.6 L 488.2 995 L 488.5 994.4 L 488.4 993.4 L 487.9 991.8 L 487.9 990.8 L 487.1 990.6 L 486.3 990.1 L 485.6 989.6 L 485 989.2 L 484.9 988.3 L 485.1 988.3 L 485.9 988.7 L 487 988.9 L 487.8 988.9 L 488.4 989 L 489.2 988.6 L 490.1 987.8 L 490.5 987.1 L 490.8 986.7 L 491.3 986.7 L 491.7 986.1 L 491.7 985.3 L 491.3 984.7 L 490.6 984.5 L 489.8 984.3 L 488.5 983.1 L 487.2 981.2 L 486.5 979.7 L 486.5 979 L 486.4 978.6 L 486.3 977.9 L 484.5 977 L 482.1 976.7 L 482.3 978.4 L 482 979.2 L 480.4 978.7 L 479.6 978.1 L 479.3 977.2 L 478.5 976.6 L 476.5 976.5 L 475.1 976.4 L 475.5 975.8 L 476.5 975.2 L 478 975.1 L 479.3 974.9 L 480.5 975 L 481.8 975.1 L 483.5 975.2 L 485 975.4 L 483.9 973.4 L 482.1 971.5 L 480.3 971.4 L 477.5 971.3 L 475.1 971.6 L 471.5 972.4 L 467.7 973.4 L 466.1 973.5 L 465.2 973.3 L 463.9 974 L 461.1 974.9 L 459.1 975 L 460.8 974.4 L 463.4 973.1 L 465.8 972.2 L 468.1 971.2 L 470.7 970.6 L 473.1 970.5 L 474.4 969.8 L 474.6 969 L 474.7 968.4 L 476.4 968.7 L 478.3 968.4 L 479.7 967.7 L 480.8 967.4 L 480.7 967.1 L 479.3 966.6 L 478.4 966.2 L 478.4 965.6 L 478.6 964.8 L 478.6 963.7 L 478 961.8 L 477.3 960.4 L 477.1 959.3 L 475.9 958.4 L 473.5 957 L 472.3 956 L 471.2 956.1 L 470.9 957.5 L 469.6 958.3 L 468.3 958.6 L 469.2 957.5 L 469.8 955.7 L 468.4 954.5 L 467.2 954 L 465.2 955.3 L 464.1 955.1 L 464.1 952.6 L 463.4 951.6 L 462.7 952.3 L 461.6 953.6 L 460.3 954.2 L 459.5 954.2 L 459.5 953.4 L 457.6 953.3 L 455.1 953.6 L 454.9 952.9 L 455.4 952.3 L 456.5 952.3 L 459 952 L 461.1 951.4 L 461.2 950.8 L 460.4 950.1 L 458.3 948.3 L 456.4 946.6 L 455.2 946 L 453.6 945.3 L 453.4 944.5 L 454 943.3 L 451.9 940.1 L 449 935.9 L 447 934 L 445.7 933 L 444 932.4 L 442.3 932.6 L 440.6 932.9 L 440.1 934.4 L 439.7 936.1 L 438.6 934 L 437.1 931.9 L 435.7 931.5 L 433.8 930.4 L 431.9 929.4 L 429.9 928.8 L 428.4 929.1 L 426.6 930.4 L 424.4 931.7 L 422.1 932.5 L 419.8 933.1 L 417.8 933 L 419.8 931.3 L 422.6 930.5 L 425.4 929.1 L 427.5 927.9 L 429.6 927.1 L 431 926.2 L 431.8 926.7 L 434.2 928.3 L 435.1 929.3 L 440.7 930.1 L 443.2 929.4 L 443 928.3 L 441.9 927 L 440.4 925.9 L 440 923.5 L 438.8 920.8 L 438.7 919.4 L 438.7 917.6 L 438.8 915.7 L 439.7 914.1 L 440.5 915.6 L 440.7 917.5 L 440.8 919.3 L 440.9 921.4 L 441.5 922.6 L 442.7 924.3 L 443.9 924.7 L 444.6 924.7 L 445.8 927.4 L 448.3 932.1 L 450.6 934.7 L 451.8 935 L 452.8 934.2 L 452.7 932.2 L 452.5 930 L 453.1 928.6 L 453.8 927.9 L 454.1 928.1 L 453.6 929.5 L 453.2 930.7 L 454.6 932 L 456.4 932.7 L 457.1 932.5 L 457 933.2 L 455.1 935.1 L 453.2 937.3 L 453.5 938.2 L 454.1 939.3 L 456.5 941.9 L 458.9 943.7 L 460.2 944.7 L 461.4 946.3 L 462.5 946.8 L 463 947.8 L 464.1 948.5 L 465.7 949.4 L 467.1 949.4 L 469.2 948.9 L 470.7 948.1 L 472.2 948 L 473.4 947.7 L 475 948 L 476.7 949.2 L 477.1 950.3 L 474.6 950.3 L 472.1 950.6 L 471.7 951.4 L 472.6 952 L 474.3 953.3 L 477.2 955.5 L 479.6 957.1 L 480.5 958.5 L 481.4 962.4 L 482.5 964.9 L 483.6 965.6 L 484.6 965.6 L 485.3 965.8 L 486.7 965.6 L 487.3 964.5 L 486.8 962.9 L 486.8 962 L 486.9 960.7 L 487.4 958.7 L 487.6 957.4 L 487 956 L 487.3 954.4 L 488.4 953.9 L 489.6 954.2 L 490.6 954.5 L 491.2 954.2 L 491 953.1 L 490.5 951.3 L 489.4 949.4 L 488.7 948.1 L 489.9 947.7 L 491.2 946.3 L 492.3 944.4 L 493 943.4 L 490.8 942.7 L 488.1 941.8 L 487.7 940.8 L 488.2 939.6 L 488.1 938.1 L 487.9 936.2 L 488.7 934.8 L 489.8 934.3 L 490.4 932.9 L 490.8 930.3 L 491.7 928.7 L 492.3 928.8 L 491.8 930.7 L 491.1 933.2 L 490.5 934.5 L 489.5 935.2 L 489.3 937.4 L 489 939.7 L 488.6 940.7 L 489 941.4 L 491.5 942 L 494 942.8 L 494.7 943.7 L 495.5 944.3 L 496 944.5 L 495.6 944.8 L 494 945 L 492.9 945.3 L 493 946 L 492 947.8 L 491.7 949.5 L 492.4 951.1 L 493.6 952.7 L 495 953.4 L 495 953.9 L 493.9 954.1 L 492.3 954.5 L 490.8 955.2 L 490.2 956.7 L 489.3 958.6 L 488.8 959.9 L 489.4 960.9 L 490.2 961.7 L 491.1 962.9 L 493.2 962.1 L 494.6 961.2 L 494.3 962.4 L 494.4 962.9 L 494.2 963.4 L 493.8 964 L 494.2 965.2 L 495.4 966.8 L 495.4 969.3 L 495.5 972.5 L 495.5 974.1 L 494.7 973.8 L 493.9 974 L 493.5 974.8 L 493.5 975.6 L 494 976.6 L 494.3 977.4 L 495.7 976.4 L 497 975.4 L 496.8 976.8 L 496.3 978.2 L 496.1 978.9 L 496.1 980.3 L 495.8 981.6 L 495.3 982.7 L 495.3 983.3 L 495.4 983.6 L 496 984.7 L 496 985.7 L 495.3 986.4 L 495.1 987.4 L 495.4 988 L 495.5 988.7 L 495.4 989.4 L 495.3 989.8 L 495.1 991.1 L 495.8 992.3 L 496.5 992.6 L 496.2 993.7 L 495.5 994.6 L 495.2 996.4 L 494.8 998.5 L 493.9 1000.5 L 493.8 1005.5 L 494.5 1009.2 L 495.2 1009.2 Z M 489.6 1009 L 489.6 1009 L 489.6 1009 L 491.6 1007.2 L 490.8 1005.6 L 489 1004.5 L 487 1004 L 485.2 1005.1 L 485 1007.5 L 486.5 1008.4 L 488.1 1009.8 L 489.6 1009 Z" />
<path class="lake" d="M 495.2 1009.2 L 495.2 1009.2 L 495.2 1009.2 L 496.2 1007.4 L 496.9 1006.7 L 496.6 1008.3 L 495.3 1010.2 L 493.5 1011.5 L 492 1011.8 L 491.3 1011.5 L 490.8 1011.4 L 490.5 1011.7 L 490.6 1012.2 L 490.4 1013.2 L 490.3 1014.5 L 490 1015.8 L 489.7 1017.9 L 489.9 1021.2 L 488.6 1022.3 L 487.7 1021.7 L 487.4 1019.7 L 486.2 1019.7 L 484.1 1020.7 L 483.3 1019.5 L 482.2 1017.8 L 480.7 1016.4 L 477.8 1014.7 L 474.6 1012.6 L 472 1011.2 L 467.9 1009.4 L 463.1 1007.5 L 459.9 1006.1 L 458.3 1004.2 L 457.9 1002.9 L 458.9 1002.9 L 460.6 1004 L 462 1004.9 L 463.1 1003.9 L 464.4 1004.5 L 465.5 1006.7 L 466.4 1007.3 L 467.3 1007.1 L 468.3 1007 L 468.6 1005.6 L 468.8 1003.6 L 469.2 1003.2 L 470.2 1005.3 L 471.5 1007.5 L 472.7 1007.5 L 474 1007.3 L 475.7 1006.9 L 477 1006.6 L 477.7 1007.2 L 478.2 1008.7 L 479 1010.2 L 480.8 1011 L 482.3 1010.9 L 483 1009.1 L 483.6 1007.4 L 483.9 1006.9 L 483.7 1006.3 L 482.6 1005.5 L 482 1004.7 L 481.8 1003.9 L 482 1003.3 L 482.9 1002.4 L 484.1 1002.2 L 485 1002.5 L 485.8 1002.3 L 487.6 1001.6 L 488.9 1000.5 L 488.6 1000 L 486.9 999.8 L 486.2 998.6 L 487.9 997.5 L 489.3 997.6 L 489.4 997.1 L 488.4 996.3 L 488 995.6 L 488.2 995 L 488.5 994.4 L 488.4 993.4 L 487.9 991.8 L 487.9 990.8 L 487.1 990.6 L 486.3 990.1 L 485.6 989.6 L 485 989.2 L 484.9 988.3 L 485.1 988.3 L 485.9 988.7 L 487 988.9 L 487.8 988.9 L 488.4 989 L 489.2 988.6 L 490.1 987.8 L 490.5 987.1 L 490.8 986.7 L 491.3 986.7 L 491.7 986.1 L 491.7 985.3 L 491.3 984.7 L 490.6 984.5 L 489.8 984.3 L 488.5 983.1 L 487.2 981.2 L 486.5 979.7 L 486.5 979 L 486.4 978.6 L 486.3 977.9 L 484.5 977 L 482.1 976.7 L 482.3 978.4 L 482 979.2 L 480.4 978.7 L 479.6 978.1 L 479.3 977.2 L 478.5 976.6 L 476.5 976.5 L 475.1 976.4 L 475.5 975.8 L 476.5 975.2 L 478 975.1 L 479.3 974.9 L 480.5 975 L 481.8 975.1 L 483.5 975.2 L 485 975.4 L 483.9 973.4 L 482.1 971.5 L 480.3 971.4 L 477.5 971.3 L 475.1 971.6 L 471.5 972.4 L 467.7 973.4 L 466.1 973.5 L 465.2 973.3 L 463.9 974 L 461.1 974.9 L 459.1 975 L 460.8 974.4 L 463.4 973.1 L 465.8 972.2 L 468.1 971.2 L 470.7 970.6 L 473.1 970.5 L 474.4 969.8 L 474.6 969 L 474.7 968.4 L 476.4 968.7 L 478.3 968.4 L 479.7 967.7 L 480.8 967.4 L 480.7 967.1 L 479.3 966.6 L 478.4 966.2 L 478.4 965.6 L 478.6 964.8 L 478.6 963.7 L 478 961.8 L 477.3 960.4 L 477.1 959.3 L 475.9 958.4 L 473.5 957 L 472.3 956 L 471.2 956.1 L 470.9 957.5 L 469.6 958.3 L 468.3 958.6 L 469.2 957.5 L 469.8 955.7 L 468.4 954.5 L 467.2 954 L 465.2 955.3 L 464.1 955.1 L 464.1 952.6 L 463.4 951.6 L 462.7 952.3 L 461.6 953.6 L 460.3 954.2 L 459.5 954.2 L 459.5 953.4 L 457.6 953.3 L 455.1 953.6 L 454.9 952.9 L 455.4 952.3 L 456.5 952.3 L 459 952 L 461.1 951.4 L 461.2 950.8 L 460.4 950.1 L 458.3 948.3 L 456.4 946.6 L 455.2 946 L 453.6 945.3 L 453.4 944.5 L 454 943.3 L 451.9 940.1 L 449 935.9 L 447 934 L 445.7 933 L 444 932.4 L 442.3 932.6 L 440.6 932.9 L 440.1 934.4 L 439.7 936.1 L 438.6 934 L 437.1 931.9 L 435.7 931.5 L 433.8 930.4 L 431.9 929.4 L 429.9 928.8 L 428.4 929.1 L 426.6 930.4 L 424.4 931.7 L 422.1 932.5 L 419.8 933.1 L 417.8 933 L 419.8 931.3 L 422.6 930.5 L 425.4 929.1 L 427.5 927.9 L 429.6 927.1 L 431 926.2 L 431.8 926.7 L 434.2 928.3 L 435.1 929.3 L 440.7 930.1 L 443.2 929.4 L 443 928.3 L 441.9 927 L 440.4 925.9 L 440 923.5 L 438.8 920.8 L 438.7 919.4 L 438.7 917.6 L 438.8 915.7 L 439.7 914.1 L 440.5 915.6 L 440.7 917.5 L 440.8 919.3 L 440.9 921.4 L 441.5 922.6 L 442.7 924.3 L 443.9 924.7 L 444.6 924.7 L 445.8 927.4 L 448.3 932.1 L 450.6 934.7 L 451.8 935 L 452.8 934.2 L 452.7 932.2 L 452.5 930 L 453.1 928.6 L 453.8 927.9 L 454.1 928.1 L 453.6 929.5 L 453.2 930.7 L 454.6 932 L 456.4 932.7 L 457.1 932.5 L 457 933.2 L 455.1 935.1 L 453.2 937.3 L 453.5 938.2 L 454.1 939.3 L 456.5 941.9 L 458.9 943.7 L 460.2 944.7 L 461.4 946.3 L 462.5 946.8 L 463 947.8 L 464.1 948.5 L 465.7 949.4 L 467.1 949.4 L 469.2 948.9 L 470.7 948.1 L 472.2 948 L 473.4 947.7 L 475 948 L 476.7 949.2 L 477.1 950.3 L 474.6 950.3 L 472.1 950.6 L 471.7 951.4 L 472.6 952 L 474.3 953.3 L 477.2 955.5 L 479.6 957.1 L 480.5 958.5 L 481.4 962.4 L 482.5 964.9 L 483.6 965.6 L 484.6 965.6 L 485.3 965.8 L 486.7 965.6 L 487.3 964.5 L 486.8 962.9 L 486.8 962 L 486.9 960.7 L 487.4 958.7 L 487.6 957.4 L 487 956 L 487.3 954.4 L 488.4 953.9 L 489.6 954.2 L 490.6 954.5 L 491.2 954.2 L 491 953.1 L 490.5 951.3 L 489.4 949.4 L 488.7 948.1 L 489.9 947.7 L 491.2 946.3 L 492.3 944.4 L 493 943.4 L 490.8 942.7 L 488.1 941.8 L 487.7 940.8 L 488.2 939.6 L 488.1 938.1 L 487.9 936.2 L 488.7 934.8 L 489.8 934.3 L 490.4 932.9 L 490.8 930.3 L 491.7 928.7 L 492.3 928.8 L 491.8 930.7 L 491.1 933.2 L 490.5 934.5 L 489.5 935.2 L 489.3 937.4 L 489 939.7 L 488.6 940.7 L 489 941.4 L 491.5 942 L 494 942.8 L 494.7 943.7 L 495.5 944.3 L 496 944.5 L 495.6 944.8 L 494 945 L 492.9 945.3 L 493 946 L 492 947.8 L 491.7 949.5 L 492.4 951.1 L 493.6 952.7 L 495 953.4 L 495 953.9 L 493.9 954.1 L 492.3 954.5 L 490.8 955.2 L 490.2 956.7 L 489.3 958.6 L 488.8 959.9 L 489.4 960.9 L 490.2 961.7 L 491.1 962.9 L 493.2 962.1 L 494.6 961.2 L 494.3 962.4 L 494.4 962.9 L 494.2 963.4 L 493.8 964 L 494.2 965.2 L 495.4 966.8 L 495.4 969.3 L 495.5 972.5 L 495.5 974.1 L 494.7 973.8 L 493.9 974 L 493.5 974.8 L 493.5 975.6 L 494 976.6 L 494.3 977.4 L 495.7 976.4 L 497 975.4 L 496.8 976.8 L 496.3 978.2 L 496.1 978.9 L 496.1 980.3 L 495.8 981.6 L 495.3 982.7 L 495.3 983.3 L 495.4 983.6 L 496 984.7 L 496 985.7 L 495.3 986.4 L 495.1 987.4 L 495.4 988 L 495.5 988.7 L 495.4 989.4 L 495.3 989.8 L 495.1 991.1 L 495.8 992.3 L 496.5 992.6 L 496.2 993.7 L 495.5 994.6 L 495.2 996.4 L 494.8 998.5 L 493.9 1000.5 L 493.8 1005.5 L 494.5 1009.2 L 495.2 1009.2 Z M 489.6 1009 L 489.6 1009 L 489.6 1009 L 491.6 1007.2 L 490.8 1005.6 L 489 1004.5 L 487 1004 L 485.2 1005.1 L 485 1007.5 L 486.5 1008.4 L 488.1 1009.8 L 489.6 1009 Z" />
<path class="country" d="M 1063 378.7 L 1072.5 439.2 L 1087.1 449.4 L 1087.7 461.8 L 1103.9 475.1 L 1095.4 491.9 L 1080.4 570.9 L 1078.4 621.6 L 1028.7 658.3 L 1011.9 709.6 L 1028.1 724 L 1028 749.1 L 1053 750 L 1049.1 768.3 L 1038.1 770.5 L 1036.9 782.9 L 1029.6 783.8 L 1003.3 741.2 L 994.1 739.6 L 963.7 761.4 L 933.5 750 L 912.6 747.7 L 901.3 753.2 L 878.5 752 L 855.5 768.6 L 835.7 769.6 L 788.5 749.4 L 770.1 759 L 750.2 758.3 L 735.6 743.6 L 696.5 729.1 L 654.7 733.7 L 644.6 742.1 L 639.1 764.5 L 627.9 780.2 L 625.2 815 L 595.5 792.6 L 581.5 792.7 L 568.5 804.1 L 569.4 777.4 L 524.5 768.6 L 523.2 749.7 L 501.3 724.3 L 496.1 706.6 L 499.2 687.7 L 524.1 686.2 L 538.5 672.3 L 591.7 669 L 626.3 662.8 L 629.6 638.8 L 650.9 612.8 L 650.8 523.1 L 705.7 505.7 L 818.4 429.2 L 951.9 355 L 1013.5 371.8 L 1035.4 393.2 L 1063 378.7 Z" />

<path class="river" d="M 417.9 933 L 423.4 931 L 426.1 929.7 L 428.6 928.1 L 431 927.9 L 433.9 929.7 L 438.7 931.4 L 446.5 931.8" />
<path class="river" d="M 446.6 931.8 L 441.3 924.2 L 439.6 919.8 L 439.7 914.1" />
<path class="river" d="M 664.7 884.9 L 661 870.4 L 661.3 863.1 L 665.9 855.9 M 329.6 674 L 322.3 670.7 L 319.2 668.5 L 317 665.2" />
<path class="river" d="M 210.3 994.9 L 209.7 1000 L 210.4 1003.3 L 212.2 1006.6 L 212.4 1012.6 L 211 1021.2 L 211.7 1025.2" />
<path class="river" d="M 446.5 931.8 L 456.3 943.4 L 464.1 949.8 L 473.1 954.9 L 478.6 959.7 L 480.6 964.2 L 482.5 966.9 L 484.1 967.8 L 486.1 971.3 L 488.4 977.4 L 490.6 981.1 L 492.7 982.5 L 493.5 987 L 493.1 994.6 L 492.2 999.5 L 490.8 1001.8 L 490.8 1004.2 L 492.2 1006.6 L 492.1 1008.6 L 489.8 1010.7 L 488.8 1014 L 488.6 1022.3" />
<path class="river" d="M 1253.1 975.5 L 1248.9 974.7 L 1247.6 973.1 L 1247.6 970.5 L 1244.9 968.2 L 1239.7 966.2 L 1237.4 962 L 1238.1 955.6 L 1235.6 947.9 L 1227 934.2 L 1228.8 932 L 1227 929.7 L 1220.1 925" />
<path class="river" d="M 948.9 899.5 L 943.5 899.3 L 935.3 902.7 L 922.7 909.6 L 914.4 916.2 L 910.7 922.5 L 907.4 926.6 L 904.7 928.5 L 898.8 930 L 889.7 930.9 L 882.5 934.6 L 877.4 940.9 L 873.1 944.8 L 868.1 946.9 L 855.7 952.8 L 850.5 956 L 848.2 958.5 L 840.6 961.7 L 827.6 965.8 L 813.2 965.4 L 789.5 957.9 L 773.6 956.8 L 763.3 958.8 L 748.5 965.6" />
<path class="river" d="M 1011.3 966.2 L 1017.1 963.2 L 1018.8 960.6 L 1018.3 957.3 L 1019.5 954.8 L 1024 952.2 L 1028.2 948.2 L 1029.7 945.4 L 1029.8 942.4 L 1028.9 939.9 L 1027.1 937.8 L 1026.9 934.3 L 1028.5 929.3 L 1026.9 925.1 L 1022 921.8 L 1017.4 916.5 L 1012.9 909.1 L 1009.4 906.4 L 1006.9 908.3 L 1003.3 909.8 L 998.5 910.9 L 994.1 909.9 L 988 905.6 L 983.9 904 L 979.8 904.9 L 974.5 907.8 L 969.7 906.6 L 965.2 901.3 L 959.5 898.9 L 948.9 899.5" />
<path class="river" d="M 1220.1 925 L 1218.4 925.8 L 1215.2 924.7 L 1209.9 922 L 1204.1 917 L 1194.6 906.2 L 1177.4 890.5 L 1170.9 883.1 L 1169.3 878.7 L 1166.9 874.6 L 1161.1 868.1 L 1158.9 866 L 1156.3 864.6 L 1153.3 863.7 L 1150.7 861.9 L 1148.6 859.2 L 1146.8 857.7 L 1145.2 857.3 L 1141.8 858.3 L 1136.6 860.6 L 1131.5 860.9 L 1126.5 859.3 L 1120.9 856.4 L 1114.7 852.1 L 1108.3 849.6 L 1101.8 848.8 L 1096.4 847.2 L 1092.2 844.8 L 1089 842.4 L 1086.9 840 L 1085.6 836.6 L 1085.2 832.4 L 1083.8 827.3 L 1081.3 821.4 L 1080.5 815.9 L 1081.3 810.6 L 1079.8 805.8 L 1075.9 801.5 L 1071.7 798.5 M 1071.7 798.5 L 1066.8 800.1 L 1062.6 798.9 L 1056.7 796.2 L 1052.5 793.2 L 1050 790.1 L 1046 788.4 L 1040.4 787.9 L 1037.5 786.8 L 1036.7 783.4 M 1071.7 798.5 L 1067.1 796.7 L 1064.1 791.3 L 1062.8 782.2 L 1059.4 776.2 L 1054.1 773.3 L 1051 769.8 L 1049.9 763.6" />
<path class="river" d="M 1053.8 1040.7 L 1053.8 1055.1 L 1049 1063.2 L 1047.8 1067.3 L 1048.7 1070.1 L 1046.8 1073.2 L 1042.2 1076.7 L 1039.7 1082.3 L 1039.3 1090 L 1041.4 1096.6 L 1046.1 1102 L 1049.2 1104.4 L 1050.8 1104.4 L 1052 1105.1 L 1052.2 1106 L 1054 1106.6 L 1056.3 1105.3 L 1059.2 1104.5 L 1062 1104.4 L 1063.8 1105.4 L 1064.6 1107.6 L 1067.1 1108.7 L 1071.2 1108.8 L 1074.5 1109.8 L 1077.9 1112.6 L 1083.1 1111.2 L 1086.3 1111.5 L 1089.4 1113.1 L 1091.3 1116 L 1091.8 1120.1 L 1094.1 1122.8 L 1098.1 1124.1 L 1103.1 1127 L 1108.9 1131.5 L 1111.9 1136.7 L 1112 1142.7 L 1113.8 1148.3 L 1117.5 1153.4 L 1117.9 1155.2 L 1117.2 1156.8 L 1114.5 1159.1 L 1112.3 1163.3 L 1111.4 1167.9 L 1111.8 1172.8 L 1113 1177 L 1114.8 1180.7 L 1114.6 1183.2 L 1112.2 1184.7 L 1110.8 1187.1 L 1110.4 1190.4 L 1111.1 1194.4 L 1112.9 1199.2 L 1113 1202.3 L 1111.5 1204.7" />
<path class="river" d="M 1299.9 983.1 L 1295.8 986.4 L 1293.4 987.4 L 1291.3 987.2 L 1289.7 988.2 L 1288.7 990.5 L 1286.7 992.4 L 1282.4 994.7 L 1278.4 995.5 L 1275.3 995.2 L 1271.8 994.1 L 1267.6 991.9 L 1262.8 988.6 L 1258.6 984.1 L 1253.1 975.5" />
<path class="river" d="M 1055.7 1008.2 L 1057.2 1009.7 L 1056.6 1012.7 L 1053 1020.1 L 1048.2 1023.7 L 1046.6 1026.8 L 1046.6 1030.6 L 1046 1033.8 L 1044.8 1036.3 L 1042 1038.3 L 1037.6 1039.7 L 1034.9 1042.7 L 1033.7 1047.2 L 1032.4 1049.5 L 1030.9 1049.6 L 1029.4 1050.8 L 1027.9 1053 L 1026.3 1054 L 1024.6 1053.8 L 1023.9 1055 L 1024.3 1057.4 L 1022.1 1059.9 L 1017.3 1062.3 L 1014 1062.7 L 1011.4 1060.5 L 1009 1059.5 L 1007.3 1060.3 L 1005.6 1062.4 L 1005 1065.3 L 1005.7 1068.9 L 1004.9 1072.2 L 1002.5 1075.2 L 999.9 1076.8 L 995.8 1077" />
<path class="river" d="M 279.6 835.3 L 282.6 835.9 L 284.9 834.7 L 287.5 832 L 290.2 830.4 L 294.6 829.7 L 301 824.9 L 303.9 823.9 L 305.6 825.1 L 307.8 824.6 L 310.5 822.5 L 313.9 820.9 L 318 819.9 L 324 813.6 L 331.8 801.9 L 335.8 794.9 L 336 792.7 L 337.2 790.2 L 339.5 787.5 L 341.8 786.1 L 344.1 786.1 L 345.6 783.2 L 346.3 777.3 L 347.8 773.9 L 350.2 773 L 351.9 773.7 L 353 775.9 L 354.7 776.6 L 356.9 775.8 L 358 776.8 L 358.1 779.7 L 359.6 782.3 L 362.8 784.6 L 366.8 786.3 L 371.7 787.3 L 373.6 788.6 L 372.6 790.2 L 373 792.6 L 374.9 795.9 L 374.6 798 L 372.2 798.8 L 371.8 801 L 373.5 804.6 L 373.4 807.2 L 371.6 808.8 L 372.3 810.4 L 375.4 811.8 L 375.9 817.1 L 373.6 826.3 L 373.3 831.3 L 374.9 831.9 L 375.3 834.3 L 374.3 840.4 L 371.3 851.3 L 371 856.6 L 372.5 859.9 L 374.1 861.9 L 375.9 862.8 L 376 864 L 374.6 865.5 L 374.7 867.1 L 376.4 868.7 L 376.8 870.4 L 376 872.2 L 376.2 876.4 L 377.4 883.2 L 377.5 887.6 L 376.3 889.6 L 376.8 893 L 379.2 897.8 L 380 901.8 L 379.2 904.9 L 379.3 906.9 L 380.4 907.6 L 379.8 910.1 L 377.6 914.3 L 377.6 916.8 L 379.8 917.6 L 381.4 920.3 L 382.3 924.8 L 385 929.1 L 389.3 933 L 392.5 937.5 L 394.6 942.8 L 397.1 946.9 L 400.1 949.9 L 403.3 951.3 L 406.7 951.1 L 409.2 950.1 L 410.9 948.3 L 412.7 947.6 L 414.7 948 L 415.7 947.4 L 415.7 945.7 L 414.6 944.8 L 412.5 944.6 L 411.1 943.7 L 410.4 942 L 410.6 939.2 L 411.7 935.2 L 413.6 933.2 L 417.9 933" />
<path class="river" d="M 403.5 723.5 L 404.5 736.3 L 402.5 740.8 L 402.6 744.4 L 404.2 748.6 L 404 753 L 401.9 757.4 L 401.4 760.2 L 402.6 761.2 L 407.1 761.3 L 415 760.7 L 421.2 761.6 L 425.7 764.1 L 429.6 764.9 L 432.9 764 L 435.4 764.3 L 437.2 765.9 L 438.5 769.2 L 439.3 774.2 L 440.1 776.4 L 441.1 775.8 L 441.9 776.2 L 442.4 777.4 L 442 788.8 L 443.9 795.8 L 447.9 802.7 L 451.2 806.9 L 453.5 808.4 L 454.5 811.4 L 454.3 815.8 L 456.4 819 L 460.9 821.1 L 463.8 823 L 465.1 825 L 465.4 826.3 L 464.6 827.1 L 465.7 829.4 L 468.8 833.2 L 470.1 837.5 L 469.6 842.5 L 470 845.9 L 471.2 847.7 L 471.4 849.1 L 470.6 850.1 L 470.5 851.6 L 471.5 854.8 L 460.9 858.4 L 457.3 858.4 L 457.2 856 L 456.4 854.7 L 454.8 854.7 L 452.8 856.1 L 450.3 859.2 L 448.1 860.2 L 446.1 859.3 L 444.6 859.3 L 443.5 860.3 L 443 862.3 L 443 865.4 L 443.7 867.9 L 444.9 869.8 L 444.7 871.6 L 443 873.4 L 442.9 875.1 L 444.4 876.8 L 445.6 881.2 L 446.5 888.3 L 444.8 891.5 L 440.6 890.7 L 436.4 891.9 L 432.3 894.9 L 430.6 898.2 L 431.4 901.8 L 432.9 904.6 L 435.1 906.6 L 436.2 908.7 L 436.1 910.8 L 436.9 912.4 L 439.7 914.1" />
<path class="river" d="M 728.6 1074.7 L 726.9 1077.5 L 723.3 1080.5 L 721.3 1085.7 L 720.4 1097 L 721.2 1102 M 728.6 1074.7 L 728.8 1096.5 M 736 1060.3 L 732.8 1060.9 L 730 1062.1 L 727.6 1063.7 L 726.4 1065.2 L 726.4 1066.6 L 724.9 1068 L 721.7 1069.5 L 717.9 1069.3 L 713.4 1067.3 L 708 1066.9 L 697.8 1068.4 M 736 1060.3 L 733.6 1062.7 L 731.8 1064.4 L 731.1 1065.8 L 731.2 1066.8 L 732.2 1067.4 L 732 1068.4 L 730.7 1069.9 L 729.6 1070.7 L 728.6 1070.7 L 728.3 1072 L 728.6 1074.7 M 739.9 1053.3 L 741.8 1059.4 L 741.1 1062.7 L 738.6 1065.2 L 736.7 1068.3 L 735.5 1071.9 L 736.2 1074.3 L 738.7 1075.5 L 740.5 1078 L 741.6 1081.6 L 743.3 1084.9 L 745.8 1089.7 L 746.1 1093.8 L 745.9 1095.7 L 745.9 1096.8 L 746.1 1100 M 66.6 915.1 L 69.2 912.6 L 70.9 909.4 L 72.5 904.8 L 72.4 901 L 69.6 896.6 L 70.1 889.4 L 68.5 883 L 64.8 874.9 L 63.3 870 L 64.1 868.2 L 66 867.1 L 69.1 866.7 L 70.4 865.7 L 70 864 L 71.2 863.1 L 74 863.1 L 76.4 862.1 L 78.2 860.1 L 81 859.2 L 84.6 859.7 L 86.6 860.5 L 87.4 861.1 L 88.3 861.3 L 89.2 860.9 L 93 857.5 L 96.3 856 L 99 856.2 L 100.3 855.3 L 101 854.6 L 102.9 853.9 L 108.4 853.2 L 113.2 849.3 L 117.2 841.9 L 120.7 838.2 L 123.6 838.1 L 126.3 836.9 L 128.8 834.7 L 129.5 831.4 L 128.6 827 L 130.6 824.4 L 135.5 823.7 L 139.8 821 L 143.4 816.6 L 147.7 812.7 L 152.5 809.5 L 156.2 805.5 L 158.7 800.6 L 162 796.2 L 166.2 792.3 L 169.2 787.2 L 171 780.8 L 174.4 777.4 L 179.4 777 L 186 772.7 L 194.3 764.4 L 201.1 758.8 L 208.9 754.1 L 213.9 750.2 L 220.2 748.7 L 229.4 748.5 L 236.6 746.9 L 241.7 744 L 245.2 740.5 L 247.2 736.6 L 250.1 735.2 L 254.7 734.8 L 259.3 733.8 L 266.7 728.3 L 272.9 725.4 L 278 725.1 L 281.5 723.6 L 283.5 720.8 L 290 717.9 L 301.1 714.7 L 307.4 713.5 L 309.8 713.2 L 312.6 711.7 L 321 702.4 L 324.2 693.8 L 327.1 689.4 L 330.8 686.3 L 331.9 682.1 L 329.6 674 L 330.6 673.6 L 332.1 673 L 334.5 671.2 L 335.8 669.5 L 335.9 668.1 L 334.5 667.2 L 331.6 666.7 L 331.8 665.3 L 336.7 661.5 L 337.1 660.8 L 334.2 659.9 L 334.6 659.2 L 336.1 658.7 L 338.6 658.3 L 339.9 656.4 L 340.1 653.1 L 341.2 651 L 343 650.1 L 344.5 648.4 L 345.5 645.8 L 348.1 644.2 M 664.7 884.9 L 665.4 889.2 L 664.9 892.5 L 663.4 896.4 L 663.2 900.2 L 664.2 904 L 665.8 906.4 L 668.1 907.4 L 669.5 909.1 L 670.1 911.6 L 672.7 912.3 L 677.2 911.4 L 681.5 912.8 L 685.5 916.4 L 690.6 919 L 697 920.6 L 702.8 923.2 L 710.5 928.7 L 719 928.2 L 724.4 928.6 L 729.6 929.9 L 733.2 933.1 L 735.3 938.2 L 738.5 942.9 L 742.9 947.1 L 746.1 951.9 L 748.3 957.3 L 748.5 965.6 L 745.9 982.4 L 744.1 997.5 L 743.9 1006.5 L 745.1 1018.3 L 747.1 1027.6 L 745.8 1036.3 L 739.9 1053.3 L 737.5 1056.3 L 736.9 1058 L 737.3 1059.3 L 736 1060.3 M 316.9 665.2 L 315.6 660.8 L 316.4 658.3 L 319 656.4 L 320.7 654.1 L 321.6 651.2 L 323.4 650.2 L 326.2 650.9 L 330.3 648.9 L 335.6 644.2 L 340.9 641.6 L 346.1 641.2 L 349.5 639.7 M 348.1 644.2 L 349.5 639.7 M 349.5 639.7 L 351.2 637.2 L 353 635.8 L 354.8 635.6 L 355.6 634.6 L 355.6 632.9 L 357.5 631 L 359.1 630.1 M 359.1 630.1 L 360.4 634.3 L 360.4 636.1 L 359.7 637.2 L 358.6 637.9 L 357.2 638.2 L 356 639.6 L 354.9 642 L 352.3 643.6 L 348.1 644.2 M 359.1 630.1 L 361.2 628.9 L 363.6 626.1 L 364.6 622.4 L 366.7 620.7 L 369.7 620.9 L 377.7 619.1 L 390.7 615.2 L 399 613.4 L 402.7 613.8 L 405 613.5 L 405.8 612.3 L 410.7 610.3 L 419.8 607.5 L 428.2 605.7 L 435.9 604.8 L 441 605.2 L 443.6 606.7 L 447 607.2 L 451.2 606.7 L 454.6 607.3 L 457.1 609 L 461.2 609.5 L 466.8 608.8 L 471.1 612 L 474.1 619.1 L 476.7 623.5 L 478.8 625.2 L 481.1 629.4 L 484.7 639.4 L 490.2 646.6 L 494.7 651 L 500 654.8 L 502.9 658.5 L 503.3 662.2 L 505.9 665.1 L 510.7 667.2 L 513.3 669 L 513.7 670.5 L 512.9 673.9 L 510.9 679.3 L 510.2 683.1 L 510.9 685.4 L 512.7 687 L 515.7 687.8 L 517.9 690.4 L 519.3 694.6 L 522.1 699.3 L 526.5 704.5 L 531.6 709 L 537.6 713 L 541.6 718.2 L 543.5 724.7 L 546.1 729.8 L 549.6 733.7 L 555.1 737.5 L 562.6 741.1 L 567.3 744.3 L 569.2 747.1 L 571.6 749.4 L 574.5 751.2 L 576.3 756 L 576.9 763.8 L 578.6 769.9 L 581.5 774.4 L 582.7 777.3 L 582.2 778.8 L 582.5 780.3 L 583.5 781.2 L 584.7 781.1 L 585.7 780.3 L 586.4 780.3 L 586.8 781.1 L 587.9 781.4 L 589.4 781.1 L 590.4 781.5 L 591.1 783.5 L 592.4 784.9 L 594.2 785.4 L 595.3 786.2 L 607.2 797.2 L 611.8 802.1 L 613.1 804.6 L 615.4 806.4 L 618.9 807.5 L 622.1 810 L 624.6 813.6 L 628.5 816.6 L 634.6 818.5 L 641.2 821.9 L 645.5 825.5 L 649.7 830.5 L 654.7 834.1 L 660.3 836.2 L 664.5 839 L 667.1 842.4 L 667.8 847.1 L 665.9 856" />
<path class="river" d="M 1081.3 1017.4 L 1084.3 1022.1 L 1088.1 1022.8 L 1096.5 1020.1 L 1099.5 1017.5 L 1101.7 1016.5 L 1104.1 1016.3 L 1106.1 1018.4 L 1107.7 1022.7 L 1110.6 1024.9 L 1114.8 1025.2 L 1118.5 1023.7 L 1121.6 1020.5 L 1123.4 1018 L 1123.8 1016.1 L 1126.1 1013.6 L 1130.4 1010.6 L 1133.5 1009.3 L 1135.3 1009.7 L 1137.8 1011.7 L 1141.1 1015.4 L 1144 1017 L 1146.7 1016.5 L 1149.8 1016.9 L 1153.4 1018.3 L 1157.6 1018 L 1162.2 1016.1 L 1166.5 1015.2 L 1170.2 1015.4 L 1174.2 1013.7 L 1178.6 1010.1 L 1181.7 1005.4 L 1183.5 999.4 L 1185.6 995.6 L 1188 994.1 L 1190.5 991.1 L 1193.2 986.6 L 1195.3 984.3 L 1196.7 984.3 L 1196.3 982.4 L 1194.1 978.7 L 1191.2 977.4 L 1187.6 978.6 L 1185 978.2 L 1183.4 976.3 L 1180.8 975.1 L 1177.1 974.6 L 1175.8 972.7 L 1176.9 969.3 L 1176.5 964.3 L 1174.6 957.8 L 1173.8 952.6 L 1174.3 948.8 L 1176.6 943.2 L 1181 935.7 L 1183.4 928.6 L 1184 921.7 L 1185.3 918.2 L 1187.1 917.9 L 1189.4 916.4 L 1192 913.7 L 1193.6 910.8 L 1194.7 906.3" />
<path class="river" d="M 211.7 1025.2 L 213.8 1028.2 L 220.7 1033.3 L 223.6 1036.5 L 222.4 1037.6 L 222.3 1039.2 L 223.3 1041.5 L 224.6 1042.8 L 226.1 1043.3 L 227.8 1045.7 L 229.8 1049.9 L 232.1 1053.4 L 236.4 1057.6 L 240.2 1061.9 L 241.8 1065.6 L 242.5 1070 L 244.2 1073.2 L 248.5 1076.2 M 202.7 920.7 L 204.1 925.3 L 204.2 928.4 L 203.4 931.7 L 204.1 936.2 L 206.4 942 L 208 950.9 L 209.2 968.5 L 209.4 971.4 L 210.3 972.7 L 211.8 973.3 L 212.4 974.9 L 211.9 977.7 L 210.9 979.9 L 209.4 981.5 L 209 985.4 L 210.3 994.9 M 205.4 890.8 L 203.6 895 L 203 898.7 L 203 905.5 L 204 911.1 L 203.7 913.7 L 202.4 915.2 L 202 917 L 202.7 920.5" />
<path class="river" d="M 488.6 1022.3 L 488.4 1028.1 L 490.7 1031 L 495.3 1032.9 L 499.4 1033.8 L 502.9 1033.7 L 505.7 1034.6 L 507.9 1036.7 L 509.5 1039.5 L 510.7 1044.8" />
<g class="city"><circle cx="616.574007825085" cy="1018.0970610763188" r="5" /><text x="628.574007825085" y="1022.0970610763188">Lagos</text></g>
<g class="city"><circle cx="816.3041877573392" cy="801.6902809388916" r="5" /><text x="828.3041877573392" y="805.6902809388916">Kano</text></g>
<g class="city"><circle cx="637.5440318719864" cy="981.6147003670405" r="5" /><text x="649.5440318719864" y="985.6147003670405">Ibadan</text></g>
<g class="city"><circle cx="776.2457718117282" cy="916.4732691467411" r="5" /><text x="788.2457718117282" y="920.4732691467411">Abuja</text></g>
<g class="city"><circle cx="532.1109036014982" cy="1030.221642025006" r="5" /><text x="544.1109036014982" y="1034.221642025006">Lomé</text></g>
<g class="city"><circle cx="774.2420078531933" cy="859.3275380495672" r="5" /><text x="786.2420078531933" y="863.3275380495672">Kaduna</text></g>
<g class="city"><circle cx="703.3622509112092" cy="1022.1000324175563" r="5" /><text x="715.3622509112092" y="1026.1000324175563">Benin City</text></g>
<g class="city"><circle cx="425.1100016839519" cy="787.2673942964575" r="5" /><text x="437.1100016839519" y="791.2673942964575">Ouagadougou</text></g>
<text class="map-title" x="80" y="105">Niger Physical Study Map</text>
<text class="map-subtitle" x="80" y="145">Landmark: Air Mountains | Study terrain and water systems</text>
  <text class="footer" x="80" y="1036">Made with Natural Earth. Free vector and raster map data @ naturalearthdata.com.</text>
</svg>
