<?xml version="1.0" encoding="UTF-8"?>
<svg xmlns="http://www.w3.org/2000/svg" width="1600" height="1100" viewBox="0 0 1600 1100" role="img" aria-labelledby="title desc">
  <title id="title">Nigeria Political Study Map</title>
  <desc id="desc">Made with Natural Earth. Free vector and raster map data @ naturalearthdata.com.</desc>
  <defs>
    <linearGradient id="terrain" x1="0" x2="1" y1="0" y2="1">
      <stop offset="0%" stop-color="#6c8c53" />
      <stop offset="42%" stop-color="#d5c487" />
      <stop offset="72%" stop-color="#b88b5f" />
      <stop offset="100%" stop-color="#f1f5ee" />
    </linearGradient>
    <filter id="softShadow" x="-10%" y="-10%" width="120%" height="120%">
      <feDropShadow dx="0" dy="10" stdDeviation="12" flood-color="#0f172a" flood-opacity="0.16" />
    </filter>
    <style>
      .neighbor { fill: #ffffff; stroke: #94a3b8; stroke-width: 1.2; opacity: 0.72; }
      .country { fill: #f7f1df; stroke: #1f2937; stroke-width: 4; filter: url(#softShadow); }
      .admin1 { fill: none; stroke: #64748b; stroke-width: 1.1; stroke-dasharray: 6 7; opacity: 0.75; }
      .river { fill: none; stroke: #1d9bd1; stroke-width: 3; stroke-linecap: round; opacity: 0.88; }
      .lake { fill: #8ed1ea; stroke: #0ea5e9; stroke-width: 1.5; opacity: 0.8; }
      .city circle { fill: #ef4444; stroke: #ffffff; stroke-width: 2; }
      .city text, .terrain-label { fill: #172033; font: 700 24px system-ui, sans-serif; paint-order: stroke; stroke: #ffffff; stroke-width: 5; stroke-linejoin: round; }
      .map-title { fill: #0f172a; font: 800 46px system-ui, sans-serif; }
      .map-subtitle { fill: #475569; font: 600 24px system-ui, sans-serif; }
      .footer { fill: #64748b; font: 500 18px system-ui, sans-serif; }
    </style>
  </defs>
  <rect width="100%" height="100%" fill="#eaf3f8" />
  <rect x="40" y="40" width="1520" height="1020" rx="32" fill="#ffffff" opacity="0.54" />
  <path class="neighbor" d="M 1789.5 1232.7 L 1798.1 1276.7 L 1793.4 1301.5 L 1802.9 1329.3 L 1830.6 1356 L 1856.4 1416.2 L 1856.4 1416.2 L 1837.6 1411.4 L 1773.4 1419.4 L 1760.6 1425.1 L 1747 1455.7 L 1757.7 1476.7 L 1749.2 1533.3 L 1743.3 1581.3 L 1756.2 1589.8 L 1789.6 1608.4 L 1802.7 1599.7 L 1806.7 1651.2 L 1770.1 1650.8 L 1750.5 1624.5 L 1732.9 1604.2 L 1696.3 1597.5 L 1685.6 1572.4 L 1656.3 1587.5 L 1618.1 1580.9 L 1602.1 1559.2 L 1571.8 1554.8 L 1549.4 1555.9 L 1546.6 1541.1 L 1530.1 1539.9 L 1508.4 1537 L 1478.8 1544.2 L 1458 1543 L 1446.2 1547.4 L 1448.7 1490.5 L 1432.8 1472.8 L 1429.3 1443.4 L 1436.3 1414.6 L 1426.6 1396.2 L 1425.8 1366.1 L 1367.8 1366.5 L 1371.9 1349.3 L 1347.5 1349.5 L 1345 1357.8 L 1315.3 1359.6 L 1303.3 1387.5 L 1296.2 1399.4 L 1269.8 1392.7 L 1254 1399.4 L 1222.4 1403.3 L 1204.1 1378.3 L 1193.1 1362.8 L 1179.4 1334.2 L 1167.6 1298.5 L 1026.6 1297.9 L 1009.8 1303.7 L 996 1302.8 L 976.3 1309.2 L 969.6 1294.4 L 981.7 1289.3 L 983.2 1268.5 L 991 1256.2 L 1008.4 1246.2 L 1021 1251 L 1037.3 1232.7 L 1063.4 1233.2 L 1066.4 1246.7 L 1084.3 1255.2 L 1112.4 1225.2 L 1140.2 1201.9 L 1152.3 1186.6 L 1150.7 1147.3 L 1171.5 1100.9 L 1193.4 1076.2 L 1224.8 1053.2 L 1230.3 1038 L 1231.5 1020.4 L 1239.3 1003.9 L 1236.8 976.8 L 1242.8 934.4 L 1252.1 904.6 L 1266.4 879 L 1269.2 850.2 L 1273.5 816.9 L 1292.1 792.6 L 1317.7 777.2 L 1357.1 793.4 L 1387.5 811.1 L 1422.5 815.8 L 1458.1 825.1 L 1472.4 796.2 L 1479 792.6 L 1500.7 797.4 L 1553.9 773.5 L 1572.8 783.6 L 1588.3 782.2 L 1595.4 770.6 L 1613.2 766.5 L 1649.2 771.5 L 1679.8 772.6 L 1695.6 767.5 L 1724.5 807 L 1746 812.8 L 1758.8 804.7 L 1780.9 807.9 L 1807.5 797.8 L 1818.9 818.2 L 1860.9 850 L 1860.9 850 L 1858 905.8 L 1877.2 912.3 L 1861.8 929.3 L 1843.5 942 L 1825.2 966.9 L 1815.1 989.1 L 1812.4 1027.5 L 1801.4 1045.7 L 1801 1081.8 L 1787.2 1095.1 L 1785.5 1123.5 L 1778.9 1127.2 L 1774.5 1153.4 L 1786.5 1175.1 L 1789.5 1232.7 Z" />
<path class="neighbor" d="M 1526.6 81.9 L 1528.9 271.6 L 1487.7 268.3 L 1465.9 303.5 L 1453.3 333 L 1463.2 344.1 L 1447.5 358.8 L 1452.9 378.6 L 1440.5 398.5 L 1435.7 416.1 L 1452.5 413.3 L 1462.5 431.7 L 1463.1 459.5 L 1480.6 473.6 L 1480 485.2 L 1449.8 493.3 L 1425.5 512.7 L 1391 564.8 L 1346 586.9 L 1299.9 584 L 1286.4 588.4 L 1291.1 605.2 L 1266.2 621.9 L 1245.9 640.5 L 1185.7 658.8 L 1173.8 648 L 1165.9 647.1 L 1157.1 659.4 L 1117.6 663 L 1125.1 650 L 1110 617.1 L 1103.3 597.3 L 1082.4 589.2 L 1054.2 561.3 L 1064.6 538.7 L 1086.4 543.5 L 1099.9 540.1 L 1126.6 540.6 L 1100.6 497.2 L 1102.3 465.4 L 1099.1 433.7 L 1080.1 403.1 L 1084.9 380.6 L 1054.2 379.5 L 1054.4 348.8 L 1034.5 331 L 1055.1 268.1 L 1116.1 223 L 1118.6 160.9 L 1137 63.9 L 1147.4 43.3 L 1127.5 26.9 L 1126.7 11.7 L 1108.8 -0.7 L 1097.1 -75 L 1145.4 -101.1 L 1336 -9.6 L 1526.6 81.9 Z" />
<path class="neighbor" d="M -2081.4 819 L -2109.7 862.8 L -2124.3 898 L -2142.7 916.1 L -2165.5 919.5 L -2172.1 906.1 L -2182.8 904.1 L -2197.5 917 L -2218.4 907.2 L -2206.2 887.1 L -2202 865.2 L -2193.7 844.7 L -2212.4 816.3 L -2216.2 783.6 L -2191.3 742.6 L -2175.1 747.8 L -2139.9 759.1 L -2089.3 799.5 L -2081.4 819 Z M 683 -1346.2 L 705.6 -1333.7 L 774.4 -1324.9 L 750.3 -1292.2 L 744.2 -1258.2 L 731.1 -1250 L 709.3 -1254.4 L 710.8 -1242.2 L 675.9 -1215.4 L 675.2 -1193.8 L 698 -1201.2 L 714.4 -1180.3 L 712.4 -1166.8 L 726.5 -1148.8 L 709.9 -1134.3 L 722.3 -1097.3 L 748.2 -1091.2 L 742.7 -1070.5 L 699.4 -1043.5 L 605.1 -1056.4 L 535.5 -1040.9 L 530.1 -1012.1 L 474.7 -1006 L 420.9 -1027.6 L 403.5 -1017.2 L 315.5 -1039 L 296.5 -1057.5 L 321.2 -1086.2 L 330.3 -1181.4 L 281 -1231.6 L 245.7 -1255.8 L 172.7 -1274.1 L 167.9 -1309 L 229.8 -1319.4 L 310.1 -1307.1 L 295 -1361.2 L 340.1 -1340.7 L 451.3 -1377.9 L 465.7 -1417.1 L 507.5 -1426.8 L 514.4 -1409.9 L 536.6 -1409.2 L 558.8 -1390 L 592.2 -1367.4 L 616.7 -1371.2 L 658.5 -1349.4 L 669.2 -1345.2 L 683 -1346.2 Z M 805.3 -1019.6 L 836.1 -1037.8 L 844.2 -996.8 L 828.5 -959.9 L 806.8 -969.6 L 795.7 -1001.8 L 805.3 -1019.6 Z" />
<path class="neighbor" d="M -162.9 423 L -160.7 408.1 L -164.8 389.6 L -182.7 376.2 L -192.1 348.8 L -194.3 319.1 L -178.2 310.4 L -170.2 282.2 L -155 281.1 L -121.7 294.5 L -94.7 285 L -76.2 288.2 L -69.1 277.6 L 122.7 276.8 L 133.3 243.4 L 125.1 237.5 L 102 31.2 L 78.9 -175 L 152.1 -175.9 L 313.3 -71.6 L 474.5 32.7 L 485.9 55.1 L 515.6 68.7 L 537.7 76.5 L 538.3 106.9 L 591.3 102.2 L 591.4 212.3 L 565.3 244.2 L 561.2 273.7 L 518.8 281.2 L 453.6 285.3 L 435.9 302.3 L 405.3 304.2 L 374.6 304.4 L 362.7 295.3 L 336.4 302.1 L 291.7 321.9 L 282.6 336.8 L 245.5 358.2 L 239 370.5 L 219 380.2 L 195.9 373.8 L 182.8 385.5 L 175.8 418.2 L 137.8 457.8 L 138.9 474 L 125.9 494.3 L 129.1 522 L 109.4 529.1 L 98.2 535.1 L 90.8 514.7 L 77 520.1 L 68.8 519.2 L 60 533.1 L 23.1 532.7 L 9.8 525.5 L 3.6 529.9 L -11 516.1 L -8.5 501.9 L -14.4 496.3 L -24.6 501 L -22.8 485.5 L -13 473.2 L -32.5 453.1 L -38.2 440 L -48.9 429.5 L -58.4 428.2 L -69.9 434.9 L -85.3 441.3 L -98.4 451.6 L -118.9 447.8 L -132.2 435.7 L -140.1 434.1 L -152.6 440.4 L -160.1 440.5 L -162.9 423 Z" />
<path class="neighbor" d="M 516 718.5 L 476.5 724.1 L 464.7 691.2 L 466.9 581.4 L 457.3 571.6 L 455.5 548.1 L 438.9 531.4 L 424.3 517.3 L 430.3 492.1 L 446.8 486.7 L 456.5 465.8 L 479.9 461.3 L 490.3 447 L 506.4 433 L 523.5 432.9 L 559.9 460.4 L 558.1 476.3 L 568.8 504.6 L 559.4 523.9 L 564.4 536.7 L 541.3 566.3 L 526.5 581 L 517.5 611.1 L 518.7 641.5 L 516 718.5 Z" />
<path class="neighbor" d="M 1097.1 -75 L 1108.8 -0.7 L 1126.7 11.7 L 1127.5 26.9 L 1147.4 43.3 L 1137 63.9 L 1118.6 160.9 L 1116.1 223 L 1055.1 268.1 L 1034.5 331 L 1054.4 348.8 L 1054.2 379.5 L 1084.9 380.6 L 1080.1 403.1 L 1066.6 405.8 L 1065.1 421.1 L 1056.2 422.1 L 1023.9 369.8 L 1012.6 367.9 L 975.3 394.6 L 938.3 380.7 L 912.6 377.9 L 898.8 384.6 L 870.7 383.1 L 842.6 403.5 L 818.2 404.7 L 760.3 380 L 737.7 391.7 L 713.3 390.9 L 695.4 372.8 L 647.5 355 L 596.1 360.7 L 583.7 371 L 577 398.5 L 563.3 417.8 L 559.9 460.4 L 523.5 432.9 L 506.4 433 L 490.3 447 L 491.4 414.3 L 436.3 403.5 L 434.8 380.3 L 407.9 349.1 L 401.5 327.4 L 405.3 304.2 L 435.9 302.3 L 453.6 285.3 L 518.8 281.2 L 561.2 273.7 L 565.3 244.2 L 591.4 212.3 L 591.3 102.2 L 658.7 80.9 L 797.1 -13 L 960.8 -104.1 L 1036.4 -83.5 L 1063.3 -57.2 L 1097.1 -75 Z" />
<path class="neighbor" d="M 1080.1 403.1 L 1099.1 433.7 L 1102.3 465.4 L 1100.6 497.2 L 1126.6 540.6 L 1099.9 540.1 L 1086.4 543.5 L 1064.6 538.7 L 1054.2 561.3 L 1082.4 589.2 L 1103.3 597.3 L 1110 617.1 L 1125.1 650 L 1117.6 663 L 1093.5 711.4 L 1082.1 720.1 L 1078.4 757.1 L 1083.1 777.2 L 1079.3 791.5 L 1101.9 816.4 L 1105.9 833.6 L 1123.6 858.3 L 1145.4 873.6 L 1147.6 895.4 L 1152.6 909.3 L 1149.2 935.1 L 1111.2 923.8 L 1072.6 911.2 L 1012.3 909.3 L 1006.3 906.7 L 978 912.9 L 949 906.5 L 926.3 909.6 L 848.5 908.5 L 855.5 870.8 L 836.8 839.2 L 815 831.1 L 805.3 809.7 L 793 802.8 L 793.6 789.6 L 805.9 755.8 L 828.6 709.7 L 842.5 709.2 L 870.9 681.3 L 889 680.5 L 915.9 700.1 L 948.7 684 L 953.2 664.2 L 963.9 644.9 L 971.3 620.7 L 996.9 601 L 1006.5 567.6 L 1016.6 556.9 L 1023.4 532.1 L 1036 501.6 L 1076.3 464.6 L 1078.8 448.7 L 1084 440.1 L 1065.1 421.1 L 1066.6 405.8 L 1080.1 403.1 Z" />
<path class="neighbor" d="M 430.3 492.1 L 424.3 517.3 L 438.9 531.4 L 455.5 548.1 L 457.3 571.6 L 466.9 581.4 L 464.7 691.2 L 476.5 724.1 L 438 734.3 L 427.4 717.5 L 414.6 687.2 L 410.8 663.4 L 421.4 620.4 L 409.4 603 L 404.8 565.3 L 404.9 530.6 L 385 506 L 388.5 491.1 L 430.3 492.1 Z" />
<path class="neighbor" d="M 388.5 491.1 L 385 506 L 404.9 530.6 L 404.8 565.3 L 409.4 603 L 421.4 620.4 L 410.8 663.4 L 414.6 687.2 L 427.4 717.5 L 438 734.3 L 363.1 762.3 L 336.5 778.7 L 293.5 792.5 L 250.9 779 L 253 760.1 L 232.3 718.9 L 244.8 665 L 264.9 624.8 L 252.2 556.8 L 245.7 520.9 L 246.8 493.7 L 329.8 491.5 L 351 495 L 366.4 487.3 L 388.5 491.1 Z" />
<path class="neighbor" d="M 3.6 529.9 L 9.8 525.5 L 23.1 532.7 L 60 533.1 L 68.8 519.2 L 77 520.1 L 90.8 514.7 L 98.2 535.1 L 109.4 529.1 L 129.1 522 L 150.6 532.5 L 158.9 548.3 L 180.4 558.4 L 197.1 546.3 L 219.5 544.5 L 252.2 556.8 L 264.9 624.8 L 244.8 665 L 232.3 718.9 L 253 760.1 L 250.9 779 L 229.1 779.5 L 195.8 770.1 L 165.1 770.7 L 108.5 779 L 75.3 792.8 L 28 810.3 L 18.8 809.1 L 22.5 769.7 L 27 763.7 L 25.6 744.9 L 5.3 724.9 L -9.8 721.7 L -23.8 708.6 L -13.4 687.3 L -18.2 664.2 L -16 650.3 L -8.4 650.3 L -5.6 629.4 L -9.3 620.2 L -4.7 613.6 L 13.1 607.8 L 1.2 569.6 L -9.8 549.8 L -5.9 533.6 L 3.6 529.9 Z" />
<path class="neighbor" d="M 129.1 522 L 125.9 494.3 L 138.9 474 L 137.8 457.8 L 175.8 418.2 L 182.8 385.5 L 195.9 373.8 L 219 380.2 L 239 370.5 L 245.5 358.2 L 282.6 336.8 L 291.7 321.9 L 336.4 302.1 L 362.7 295.3 L 374.6 304.4 L 405.3 304.2 L 401.5 327.4 L 407.9 349.1 L 434.8 380.3 L 436.3 403.5 L 491.4 414.3 L 490.3 447 L 479.9 461.3 L 456.5 465.8 L 446.8 486.7 L 430.3 492.1 L 388.5 491.1 L 366.4 487.3 L 351 495 L 329.8 491.5 L 246.8 493.7 L 245.7 520.9 L 252.2 556.8 L 219.5 544.5 L 197.1 546.3 L 180.4 558.4 L 158.9 548.3 L 150.6 532.5 L 129.1 522 Z" />
<path class="neighbor" d="M 1695.6 767.5 L 1679.8 772.6 L 1649.2 771.5 L 1613.2 766.5 L 1595.4 770.6 L 1588.3 782.2 L 1572.8 783.6 L 1553.9 773.5 L 1500.7 797.4 L 1479 792.6 L 1472.4 796.2 L 1458.1 825.1 L 1422.5 815.8 L 1387.5 811.1 L 1357.1 793.4 L 1317.7 777.2 L 1292.1 792.6 L 1273.5 816.9 L 1269.2 850.2 L 1238.5 847.5 L 1206.2 839.5 L 1177.7 864.8 L 1152.6 909.3 L 1147.6 895.4 L 1145.4 873.6 L 1123.6 858.3 L 1105.9 833.6 L 1101.9 816.4 L 1079.3 791.5 L 1083.1 777.2 L 1078.4 757.1 L 1082.1 720.1 L 1093.5 711.4 L 1117.6 663 L 1157.1 659.4 L 1165.9 647.1 L 1173.8 648 L 1185.7 658.8 L 1245.9 640.5 L 1266.2 621.9 L 1291.1 605.2 L 1286.4 588.4 L 1299.9 584 L 1346 586.9 L 1391 564.8 L 1425.5 512.7 L 1449.8 493.3 L 1480 485.2 L 1485.5 505.6 L 1513 535.5 L 1513.2 555 L 1505.4 574.9 L 1508.5 589.7 L 1525 603.5 L 1561.4 624.4 L 1587.6 643.7 L 1588.1 659.2 L 1620.2 684.1 L 1640.1 704.8 L 1652.2 733.5 L 1687.9 752.4 L 1695.6 767.5 Z" />
<path class="neighbor" d="M 1269.2 850.2 L 1266.4 879 L 1252.1 904.6 L 1242.8 934.4 L 1236.8 976.8 L 1239.3 1003.9 L 1231.5 1020.4 L 1230.3 1038 L 1224.8 1053.2 L 1193.4 1076.2 L 1171.5 1100.9 L 1150.7 1147.3 L 1152.3 1186.6 L 1140.2 1201.9 L 1112.4 1225.2 L 1084.3 1255.2 L 1066.4 1246.7 L 1063.4 1233.2 L 1037.3 1232.7 L 1021 1251 L 1008.4 1246.2 L 990.5 1229.8 L 976.1 1237.8 L 956.8 1258.4 L 917.5 1207.8 L 953.9 1181.4 L 935.9 1149.8 L 952.3 1137.8 L 984.5 1132 L 988.3 1110.8 L 1013.9 1133.7 L 1056.1 1135.7 L 1070.7 1113.2 L 1076.8 1081.4 L 1071.5 1044.1 L 1048.9 1015.8 L 1069.6 960.5 L 1057.7 951 L 1022.1 954.9 L 1008.8 930.2 L 1012.3 909.3 L 1072.6 911.2 L 1111.2 923.8 L 1149.2 935.1 L 1152.6 909.3 L 1177.7 864.8 L 1206.2 839.5 L 1238.5 847.5 L 1269.2 850.2 Z" />
<path class="neighbor" d="M 926.3 909.6 L 949 906.5 L 978 912.9 L 1006.3 906.7 L 1012.3 909.3 L 1008.8 930.2 L 1022.1 954.9 L 1057.7 951 L 1069.6 960.5 L 1048.9 1015.8 L 1071.5 1044.1 L 1076.8 1081.4 L 1070.7 1113.2 L 1056.1 1135.7 L 1013.9 1133.7 L 988.3 1110.8 L 984.5 1132 L 952.3 1137.8 L 935.9 1149.8 L 953.9 1181.4 L 917.5 1207.8 L 868.4 1159.6 L 836.8 1120.1 L 807.8 1070.8 L 809.4 1054.9 L 819.8 1039.6 L 831.4 1004.8 L 841 969.4 L 857.2 966.6 L 926.7 967.1 L 926.3 909.6 Z" />
<path class="neighbor" d="M 848.5 908.5 L 926.3 909.6 L 926.7 967.1 L 857.2 966.6 L 841 969.4 L 832.1 962.2 L 848.5 908.5 Z" />

<path class="country" d="M 516 718.5 L 518.7 641.5 L 517.5 611.1 L 526.5 581 L 541.3 566.3 L 564.4 536.7 L 559.4 523.9 L 568.8 504.6 L 558.1 476.3 L 559.9 460.4 L 563.3 417.8 L 577 398.5 L 583.7 371 L 596.1 360.7 L 647.5 355 L 695.4 372.8 L 713.3 390.9 L 737.7 391.7 L 760.3 380 L 818.2 404.7 L 842.6 403.5 L 870.7 383.1 L 898.8 384.6 L 912.6 377.9 L 938.3 380.7 L 975.3 394.6 L 1012.6 367.9 L 1023.9 369.8 L 1056.2 422.1 L 1065.1 421.1 L 1084 440.1 L 1078.8 448.7 L 1076.3 464.6 L 1036 501.6 L 1023.4 532.1 L 1016.6 556.9 L 1006.5 567.6 L 996.9 601 L 971.3 620.7 L 963.9 644.9 L 953.2 664.2 L 948.7 684 L 915.9 700.1 L 889 680.5 L 870.9 681.3 L 842.5 709.2 L 828.6 709.7 L 805.9 755.8 L 793.6 789.6 L 744 806.8 L 725.8 804.3 L 707.5 815 L 669.2 814 L 643.6 784.1 L 627.9 749.5 L 594.1 718 L 558.2 718.6 L 516 718.5 Z" />


<g class="city"><circle cx="549.3453938722101" cy="709.6402419449514" r="5" /><text x="561.3453938722101" y="713.6402419449514">Lagos</text></g>
<g class="city"><circle cx="794.4396628479232" cy="444.0816688882355" r="5" /><text x="806.4396628479232" y="448.0816688882355">Kano</text></g>
<g class="city"><circle cx="575.0782736799674" cy="664.8717571241714" r="5" /><text x="587.0782736799674" y="668.8717571241714">Ibadan</text></g>
<g class="city"><circle cx="376.90521571727925" cy="752.3281165424978" r="5" /><text x="388.90521571727925" y="756.3281165424978">Accra</text></g>
<g class="city"><circle cx="851.3081941086696" cy="823.5180954834796" r="5" /><text x="863.3081941086696" y="827.5180954834796">Douala</text></g>
<g class="city"><circle cx="937.6495039650589" cy="832.7755588639559" r="5" /><text x="949.6495039650589" y="836.7755588639559">Yaoundé</text></g>
<g class="city"><circle cx="745.2829045861286" cy="584.9349570352393" r="5" /><text x="757.2829045861286" y="588.9349570352393">Abuja</text></g>
<g class="city"><circle cx="445.6984498193828" cy="724.5186409193243" r="5" /><text x="457.6984498193828" y="728.5186409193243">Lomé</text></g>
<text class="map-title" x="80" y="105">Nigeria Political Study Map</text>
<text class="map-subtitle" x="80" y="145">Capital: Abuja | Continent: Africa</text>
  <text class="footer" x="80" y="1036">Made with Natural Earth. Free vector and raster map data @ naturalearthdata.com.</text>
</svg>
