<?xml version="1.0" encoding="UTF-8"?>
<svg xmlns="http://www.w3.org/2000/svg" width="1600" height="1100" viewBox="0 0 1600 1100" role="img" aria-labelledby="title desc">
  <title id="title">Nigeria Physical Study Map</title>
  <desc id="desc">Made with Natural Earth. Free vector and raster map data @ naturalearthdata.com.</desc>
  <defs>
    <linearGradient id="terrain" x1="0" x2="1" y1="0" y2="1">
      <stop offset="0%" stop-color="#6c8c53" />
      <stop offset="42%" stop-color="#d5c487" />
      <stop offset="72%" stop-color="#b88b5f" />
      <stop offset="100%" stop-color="#f1f5ee" />
    </linearGradient>
    <filter id="softShadow" x="-10%" y="-10%" width="120%" height="120%">
      <feDropShadow dx="0" dy="10" stdDeviation="12" flood-color="#0f172a" flood-opacity="0.16" />
    </filter>
    <style>
      .neighbor { fill: #ffffff; stroke: #94a3b8; stroke-width: 1.2; opacity: 0.72; }
      .country { fill: url(#terrain); stroke: #1f2937; stroke-width: 4; filter: url(#softShadow); }
      .admin1 { fill: none; stroke: #64748b; stroke-width: 1.1; stroke-dasharray: 6 7; opacity: 0.75; }
      .river { fill: none; stroke: #1d9bd1; stroke-width: 3; stroke-linecap: round; opacity: 0.88; }
      .lake { fill: #8ed1ea; stroke: #0ea5e9; stroke-width: 1.5; opacity: 0.8; }
      .city circle { fill: #ef4444; stroke: #ffffff; stroke-width: 2; }
      .city text, .terrain-label { fill: #172033; font: 700 24px system-ui, sans-serif; paint-order: stroke; stroke: #ffffff; stroke-width: 5; stroke-linejoin: round; }
      .map-title { fill: #0f172a; font: 800 46px system-ui, sans-serif; }
      .map-subtitle { fill: #475569; font: 600 24px system-ui, sans-serif; }
      .footer { fill: #64748b; font: 500 18px system-ui, sans-serif; }
    </style>
  </defs>
  <rect width="100%" height="100%" fill="#d8edf0" />
  <rect x="40" y="40" width="1520" height="1020" rx="32" fill="#ffffff" opacity="0.54" />
  <path class="neighbor" d="M 1789.5 1232.7 L 1798.1 1276.7 L 1793.4 1301.5 L 1802.9 1329.3 L 1830.6 1356 L 1856.4 1416.2 L 1856.4 1416.2 L 1837.6 1411.4 L 1773.4 1419.4 L 1760.6 1425.1 L 1747 1455.7 L 1757.7 1476.7 L 1749.2 1533.3 L 1743.3 1581.3 L 1756.2 1589.8 L 1789.6 1608.4 L 1802.7 1599.7 L 1806.7 1651.2 L 1770.1 1650.8 L 1750.5 1624.5 L 1732.9 1604.2 L 1696.3 1597.5 L 1685.6 1572.4 L 1656.3 1587.5 L 1618.1 1580.9 L 1602.1 1559.2 L 1571.8 1554.8 L 1549.4 1555.9 L 1546.6 1541.1 L 1530.1 1539.9 L 1508.4 1537 L 1478.8 1544.2 L 1458 1543 L 1446.2 1547.4 L 1448.7 1490.5 L 1432.8 1472.8 L 1429.3 1443.4 L 1436.3 1414.6 L 1426.6 1396.2 L 1425.8 1366.1 L 1367.8 1366.5 L 1371.9 1349.3 L 1347.5 1349.5 L 1345 1357.8 L 1315.3 1359.6 L 1303.3 1387.5 L 1296.2 1399.4 L 1269.8 1392.7 L 1254 1399.4 L 1222.4 1403.3 L 1204.1 1378.3 L 1193.1 1362.8 L 1179.4 1334.2 L 1167.6 1298.5 L 1026.6 1297.9 L 1009.8 1303.7 L 996 1302.8 L 976.3 1309.2 L 969.6 1294.4 L 981.7 1289.3 L 983.2 1268.5 L 991 1256.2 L 1008.4 1246.2 L 1021 1251 L 1037.3 1232.7 L 1063.4 1233.2 L 1066.4 1246.7 L 1084.3 1255.2 L 1112.4 1225.2 L 1140.2 1201.9 L 1152.3 1186.6 L 1150.7 1147.3 L 1171.5 1100.9 L 1193.4 1076.2 L 1224.8 1053.2 L 1230.3 1038 L 1231.5 1020.4 L 1239.3 1003.9 L 1236.8 976.8 L 1242.8 934.4 L 1252.1 904.6 L 1266.4 879 L 1269.2 850.2 L 1273.5 816.9 L 1292.1 792.6 L 1317.7 777.2 L 1357.1 793.4 L 1387.5 811.1 L 1422.5 815.8 L 1458.1 825.1 L 1472.4 796.2 L 1479 792.6 L 1500.7 797.4 L 1553.9 773.5 L 1572.8 783.6 L 1588.3 782.2 L 1595.4 770.6 L 1613.2 766.5 L 1649.2 771.5 L 1679.8 772.6 L 1695.6 767.5 L 1724.5 807 L 1746 812.8 L 1758.8 804.7 L 1780.9 807.9 L 1807.5 797.8 L 1818.9 818.2 L 1860.9 850 L 1860.9 850 L 1858 905.8 L 1877.2 912.3 L 1861.8 929.3 L 1843.5 942 L 1825.2 966.9 L 1815.1 989.1 L 1812.4 1027.5 L 1801.4 1045.7 L 1801 1081.8 L 1787.2 1095.1 L 1785.5 1123.5 L 1778.9 1127.2 L 1774.5 1153.4 L 1786.5 1175.1 L 1789.5 1232.7 Z" />
<path class="neighbor" d="M 1526.6 81.9 L 1528.9 271.6 L 1487.7 268.3 L 1465.9 303.5 L 1453.3 333 L 1463.2 344.1 L 1447.5 358.8 L 1452.9 378.6 L 1440.5 398.5 L 1435.7 416.1 L 1452.5 413.3 L 1462.5 431.7 L 1463.1 459.5 L 1480.6 473.6 L 1480 485.2 L 1449.8 493.3 L 1425.5 512.7 L 1391 564.8 L 1346 586.9 L 1299.9 584 L 1286.4 588.4 L 1291.1 605.2 L 1266.2 621.9 L 1245.9 640.5 L 1185.7 658.8 L 1173.8 648 L 1165.9 647.1 L 1157.1 659.4 L 1117.6 663 L 1125.1 650 L 1110 617.1 L 1103.3 597.3 L 1082.4 589.2 L 1054.2 561.3 L 1064.6 538.7 L 1086.4 543.5 L 1099.9 540.1 L 1126.6 540.6 L 1100.6 497.2 L 1102.3 465.4 L 1099.1 433.7 L 1080.1 403.1 L 1084.9 380.6 L 1054.2 379.5 L 1054.4 348.8 L 1034.5 331 L 1055.1 268.1 L 1116.1 223 L 1118.6 160.9 L 1137 63.9 L 1147.4 43.3 L 1127.5 26.9 L 1126.7 11.7 L 1108.8 -0.7 L 1097.1 -75 L 1145.4 -101.1 L 1336 -9.6 L 1526.6 81.9 Z" />
<path class="neighbor" d="M -2081.4 819 L -2109.7 862.8 L -2124.3 898 L -2142.7 916.1 L -2165.5 919.5 L -2172.1 906.1 L -2182.8 904.1 L -2197.5 917 L -2218.4 907.2 L -2206.2 887.1 L -2202 865.2 L -2193.7 844.7 L -2212.4 816.3 L -2216.2 783.6 L -2191.3 742.6 L -2175.1 747.8 L -2139.9 759.1 L -2089.3 799.5 L -2081.4 819 Z M 683 -1346.2 L 705.6 -1333.7 L 774.4 -1324.9 L 750.3 -1292.2 L 744.2 -1258.2 L 731.1 -1250 L 709.3 -1254.4 L 710.8 -1242.2 L 675.9 -1215.4 L 675.2 -1193.8 L 698 -1201.2 L 714.4 -1180.3 L 712.4 -1166.8 L 726.5 -1148.8 L 709.9 -1134.3 L 722.3 -1097.3 L 748.2 -1091.2 L 742.7 -1070.5 L 699.4 -1043.5 L 605.1 -1056.4 L 535.5 -1040.9 L 530.1 -1012.1 L 474.7 -1006 L 420.9 -1027.6 L 403.5 -1017.2 L 315.5 -1039 L 296.5 -1057.5 L 321.2 -1086.2 L 330.3 -1181.4 L 281 -1231.6 L 245.7 -1255.8 L 172.7 -1274.1 L 167.9 -1309 L 229.8 -1319.4 L 310.1 -1307.1 L 295 -1361.2 L 340.1 -1340.7 L 451.3 -1377.9 L 465.7 -1417.1 L 507.5 -1426.8 L 514.4 -1409.9 L 536.6 -1409.2 L 558.8 -1390 L 592.2 -1367.4 L 616.7 -1371.2 L 658.5 -1349.4 L 669.2 -1345.2 L 683 -1346.2 Z M 805.3 -1019.6 L 836.1 -1037.8 L 844.2 -996.8 L 828.5 -959.9 L 806.8 -969.6 L 795.7 -1001.8 L 805.3 -1019.6 Z" />
<path class="neighbor" d="M -162.9 423 L -160.7 408.1 L -164.8 389.6 L -182.7 376.2 L -192.1 348.8 L -194.3 319.1 L -178.2 310.4 L -170.2 282.2 L -155 281.1 L -121.7 294.5 L -94.7 285 L -76.2 288.2 L -69.1 277.6 L 122.7 276.8 L 133.3 243.4 L 125.1 237.5 L 102 31.2 L 78.9 -175 L 152.1 -175.9 L 313.3 -71.6 L 474.5 32.7 L 485.9 55.1 L 515.6 68.7 L 537.7 76.5 L 538.3 106.9 L 591.3 102.2 L 591.4 212.3 L 565.3 244.2 L 561.2 273.7 L 518.8 281.2 L 453.6 285.3 L 435.9 302.3 L 405.3 304.2 L 374.6 304.4 L 362.7 295.3 L 336.4 302.1 L 291.7 321.9 L 282.6 336.8 L 245.5 358.2 L 239 370.5 L 219 380.2 L 195.9 373.8 L 182.8 385.5 L 175.8 418.2 L 137.8 457.8 L 138.9 474 L 125.9 494.3 L 129.1 522 L 109.4 529.1 L 98.2 535.1 L 90.8 514.7 L 77 520.1 L 68.8 519.2 L 60 533.1 L 23.1 532.7 L 9.8 525.5 L 3.6 529.9 L -11 516.1 L -8.5 501.9 L -14.4 496.3 L -24.6 501 L -22.8 485.5 L -13 473.2 L -32.5 453.1 L -38.2 440 L -48.9 429.5 L -58.4 428.2 L -69.9 434.9 L -85.3 441.3 L -98.4 451.6 L -118.9 447.8 L -132.2 435.7 L -140.1 434.1 L -152.6 440.4 L -160.1 440.5 L -162.9 423 Z" />
<path class="neighbor" d="M 516 718.5 L 476.5 724.1 L 464.7 691.2 L 466.9 581.4 L 457.3 571.6 L 455.5 548.1 L 438.9 531.4 L 424.3 517.3 L 430.3 492.1 L 446.8 486.7 L 456.5 465.8 L 479.9 461.3 L 490.3 447 L 506.4 433 L 523.5 432.9 L 559.9 460.4 L 558.1 476.3 L 568.8 504.6 L 559.4 523.9 L 564.4 536.7 L 541.3 566.3 L 526.5 581 L 517.5 611.1 L 518.7 641.5 L 516 718.5 Z" />
<path class="neighbor" d="M 1097.1 -75 L 1108.8 -0.7 L 1126.7 11.7 L 1127.5 26.9 L 1147.4 43.3 L 1137 63.9 L 1118.6 160.9 L 1116.1 223 L 1055.1 268.1 L 1034.5 331 L 1054.4 348.8 L 1054.2 379.5 L 1084.9 380.6 L 1080.1 403.1 L 1066.6 405.8 L 1065.1 421.1 L 1056.2 422.1 L 1023.9 369.8 L 1012.6 367.9 L 975.3 394.6 L 938.3 380.7 L 912.6 377.9 L 898.8 384.6 L 870.7 383.1 L 842.6 403.5 L 818.2 404.7 L 760.3 380 L 737.7 391.7 L 713.3 390.9 L 695.4 372.8 L 647.5 355 L 596.1 360.7 L 583.7 371 L 577 398.5 L 563.3 417.8 L 559.9 460.4 L 523.5 432.9 L 506.4 433 L 490.3 447 L 491.4 414.3 L 436.3 403.5 L 434.8 380.3 L 407.9 349.1 L 401.5 327.4 L 405.3 304.2 L 435.9 302.3 L 453.6 285.3 L 518.8 281.2 L 561.2 273.7 L 565.3 244.2 L 591.4 212.3 L 591.3 102.2 L 658.7 80.9 L 797.1 -13 L 960.8 -104.1 L 1036.4 -83.5 L 1063.3 -57.2 L 1097.1 -75 Z" />
<path class="neighbor" d="M 1080.1 403.1 L 1099.1 433.7 L 1102.3 465.4 L 1100.6 497.2 L 1126.6 540.6 L 1099.9 540.1 L 1086.4 543.5 L 1064.6 538.7 L 1054.2 561.3 L 1082.4 589.2 L 1103.3 597.3 L 1110 617.1 L 1125.1 650 L 1117.6 663 L 1093.5 711.4 L 1082.1 720.1 L 1078.4 757.1 L 1083.1 777.2 L 1079.3 791.5 L 1101.9 816.4 L 1105.9 833.6 L 1123.6 858.3 L 1145.4 873.6 L 1147.6 895.4 L 1152.6 909.3 L 1149.2 935.1 L 1111.2 923.8 L 1072.6 911.2 L 1012.3 909.3 L 1006.3 906.7 L 978 912.9 L 949 906.5 L 926.3 909.6 L 848.5 908.5 L 855.5 870.8 L 836.8 839.2 L 815 831.1 L 805.3 809.7 L 793 802.8 L 793.6 789.6 L 805.9 755.8 L 828.6 709.7 L 842.5 709.2 L 870.9 681.3 L 889 680.5 L 915.9 700.1 L 948.7 684 L 953.2 664.2 L 963.9 644.9 L 971.3 620.7 L 996.9 601 L 1006.5 567.6 L 1016.6 556.9 L 1023.4 532.1 L 1036 501.6 L 1076.3 464.6 L 1078.8 448.7 L 1084 440.1 L 1065.1 421.1 L 1066.6 405.8 L 1080.1 403.1 Z" />
<path class="neighbor" d="M 430.3 492.1 L 424.3 517.3 L 438.9 531.4 L 455.5 548.1 L 457.3 571.6 L 466.9 581.4 L 464.7 691.2 L 476.5 724.1 L 438 734.3 L 427.4 717.5 L 414.6 687.2 L 410.8 663.4 L 421.4 620.4 L 409.4 603 L 404.8 565.3 L 404.9 530.6 L 385 506 L 388.5 491.1 L 430.3 492.1 Z" />
<path class="neighbor" d="M 388.5 491.1 L 385 506 L 404.9 530.6 L 404.8 565.3 L 409.4 603 L 421.4 620.4 L 410.8 663.4 L 414.6 687.2 L 427.4 717.5 L 438 734.3 L 363.1 762.3 L 336.5 778.7 L 293.5 792.5 L 250.9 779 L 253 760.1 L 232.3 718.9 L 244.8 665 L 264.9 624.8 L 252.2 556.8 L 245.7 520.9 L 246.8 493.7 L 329.8 491.5 L 351 495 L 366.4 487.3 L 388.5 491.1 Z" />
<path class="neighbor" d="M 3.6 529.9 L 9.8 525.5 L 23.1 532.7 L 60 533.1 L 68.8 519.2 L 77 520.1 L 90.8 514.7 L 98.2 535.1 L 109.4 529.1 L 129.1 522 L 150.6 532.5 L 158.9 548.3 L 180.4 558.4 L 197.1 546.3 L 219.5 544.5 L 252.2 556.8 L 264.9 624.8 L 244.8 665 L 232.3 718.9 L 253 760.1 L 250.9 779 L 229.1 779.5 L 195.8 770.1 L 165.1 770.7 L 108.5 779 L 75.3 792.8 L 28 810.3 L 18.8 809.1 L 22.5 769.7 L 27 763.7 L 25.6 744.9 L 5.3 724.9 L -9.8 721.7 L -23.8 708.6 L -13.4 687.3 L -18.2 664.2 L -16 650.3 L -8.4 650.3 L -5.6 629.4 L -9.3 620.2 L -4.7 613.6 L 13.1 607.8 L 1.2 569.6 L -9.8 549.8 L -5.9 533.6 L 3.6 529.9 Z" />
<path class="neighbor" d="M 129.1 522 L 125.9 494.3 L 138.9 474 L 137.8 457.8 L 175.8 418.2 L 182.8 385.5 L 195.9 373.8 L 219 380.2 L 239 370.5 L 245.5 358.2 L 282.6 336.8 L 291.7 321.9 L 336.4 302.1 L 362.7 295.3 L 374.6 304.4 L 405.3 304.2 L 401.5 327.4 L 407.9 349.1 L 434.8 380.3 L 436.3 403.5 L 491.4 414.3 L 490.3 447 L 479.9 461.3 L 456.5 465.8 L 446.8 486.7 L 430.3 492.1 L 388.5 491.1 L 366.4 487.3 L 351 495 L 329.8 491.5 L 246.8 493.7 L 245.7 520.9 L 252.2 556.8 L 219.5 544.5 L 197.1 546.3 L 180.4 558.4 L 158.9 548.3 L 150.6 532.5 L 129.1 522 Z" />
<path class="neighbor" d="M 1695.6 767.5 L 1679.8 772.6 L 1649.2 771.5 L 1613.2 766.5 L 1595.4 770.6 L 1588.3 782.2 L 1572.8 783.6 L 1553.9 773.5 L 1500.7 797.4 L 1479 792.6 L 1472.4 796.2 L 1458.1 825.1 L 1422.5 815.8 L 1387.5 811.1 L 1357.1 793.4 L 1317.7 777.2 L 1292.1 792.6 L 1273.5 816.9 L 1269.2 850.2 L 1238.5 847.5 L 1206.2 839.5 L 1177.7 864.8 L 1152.6 909.3 L 1147.6 895.4 L 1145.4 873.6 L 1123.6 858.3 L 1105.9 833.6 L 1101.9 816.4 L 1079.3 791.5 L 1083.1 777.2 L 1078.4 757.1 L 1082.1 720.1 L 1093.5 711.4 L 1117.6 663 L 1157.1 659.4 L 1165.9 647.1 L 1173.8 648 L 1185.7 658.8 L 1245.9 640.5 L 1266.2 621.9 L 1291.1 605.2 L 1286.4 588.4 L 1299.9 584 L 1346 586.9 L 1391 564.8 L 1425.5 512.7 L 1449.8 493.3 L 1480 485.2 L 1485.5 505.6 L 1513 535.5 L 1513.2 555 L 1505.4 574.9 L 1508.5 589.7 L 1525 603.5 L 1561.4 624.4 L 1587.6 643.7 L 1588.1 659.2 L 1620.2 684.1 L 1640.1 704.8 L 1652.2 733.5 L 1687.9 752.4 L 1695.6 767.5 Z" />
<path class="neighbor" d="M 1269.2 850.2 L 1266.4 879 L 1252.1 904.6 L 1242.8 934.4 L 1236.8 976.8 L 1239.3 1003.9 L 1231.5 1020.4 L 1230.3 1038 L 1224.8 1053.2 L 1193.4 1076.2 L 1171.5 1100.9 L 1150.7 1147.3 L 1152.3 1186.6 L 1140.2 1201.9 L 1112.4 1225.2 L 1084.3 1255.2 L 1066.4 1246.7 L 1063.4 1233.2 L 1037.3 1232.7 L 1021 1251 L 1008.4 1246.2 L 990.5 1229.8 L 976.1 1237.8 L 956.8 1258.4 L 917.5 1207.8 L 953.9 1181.4 L 935.9 1149.8 L 952.3 1137.8 L 984.5 1132 L 988.3 1110.8 L 1013.9 1133.7 L 1056.1 1135.7 L 1070.7 1113.2 L 1076.8 1081.4 L 1071.5 1044.1 L 1048.9 1015.8 L 1069.6 960.5 L 1057.7 951 L 1022.1 954.9 L 1008.8 930.2 L 1012.3 909.3 L 1072.6 911.2 L 1111.2 923.8 L 1149.2 935.1 L 1152.6 909.3 L 1177.7 864.8 L 1206.2 839.5 L 1238.5 847.5 L 1269.2 850.2 Z" />
<path class="neighbor" d="M 926.3 909.6 L 949 906.5 L 978 912.9 L 1006.3 906.7 L 1012.3 909.3 L 1008.8 930.2 L 1022.1 954.9 L 1057.7 951 L 1069.6 960.5 L 1048.9 1015.8 L 1071.5 1044.1 L 1076.8 1081.4 L 1070.7 1113.2 L 1056.1 1135.7 L 1013.9 1133.7 L 988.3 1110.8 L 984.5 1132 L 952.3 1137.8 L 935.9 1149.8 L 953.9 1181.4 L 917.5 1207.8 L 868.4 1159.6 L 836.8 1120.1 L 807.8 1070.8 L 809.4 1054.9 L 819.8 1039.6 L 831.4 1004.8 L 841 969.4 L 857.2 966.6 L 926.7 967.1 L 926.3 909.6 Z" />
<path class="neighbor" d="M 848.5 908.5 L 926.3 909.6 L 926.7 967.1 L 857.2 966.6 L 841 969.4 L 832.1 962.2 L 848.5 908.5 Z" />
<path class="lake" d="M 1091.9 392.7 L 1091.9 393.4 L 1090.6 394.2 L 1089.6 395.3 L 1089.2 396.7 L 1088 397.2 L 1086 396.8 L 1084.7 396.9 L 1081.1 397.4 L 1079.1 398.7 L 1075.9 401.2 L 1073 402.3 L 1070.5 401.9 L 1069.6 401 L 1068.8 397 L 1068.8 396.2 L 1069.9 395.7 L 1070.2 395 L 1071.1 393.3 L 1071.3 392.5 L 1071.3 392.2 L 1072.2 390.8 L 1072.2 389.9 L 1072.8 388.6 L 1074.1 387.5 L 1076.2 386.4 L 1080.1 385 L 1082.9 385 L 1084.7 386.2 L 1087.6 386.4 L 1088.4 387.1 L 1090.2 389.8 L 1091.9 392.7 L 1091.9 392.7 L 1091.9 392.7 Z" />
<path class="lake" d="M 611.3 522.3 L 610.9 523.3 L 607.1 530.4 L 607.2 534.4 L 608 539.6 L 610 545.3 L 608.4 546.2 L 606.9 546.1 L 605.6 544.4 L 604.2 538.4 L 602.2 536.6 L 601.2 536.4 L 600.9 535 L 602.2 533.7 L 602.9 532.7 L 602.7 531.5 L 601 530.9 L 600.7 530.4 L 601.7 528.8 L 600.8 525.2 L 597.6 521.8 L 597.6 520.5 L 599.4 519.8 L 600.1 518.8 L 600.5 517.8 L 601 509.8 L 602 509 L 605.6 510.9 L 607.5 510.3 L 609.9 510.7 L 611 511.8 L 609.6 515.1 L 610.4 520.2 L 611.3 522.3 L 611.3 522.3 L 611.3 522.3 Z" />
<path class="lake" d="M 400.3 698.7 L 400.3 698.7 L 400.3 698.7 L 401.6 696.6 L 402.5 695.6 L 402.1 697.6 L 400.5 699.9 L 398.3 701.5 L 396.5 701.9 L 395.6 701.5 L 395 701.4 L 394.6 701.7 L 394.7 702.4 L 394.6 703.7 L 394.4 705.2 L 394.1 706.8 L 393.7 709.4 L 394 713.4 L 392.3 714.8 L 391.2 714.1 L 390.9 711.6 L 389.3 711.6 L 386.8 712.8 L 385.8 711.4 L 384.5 709.3 L 382.6 707.5 L 379 705.5 L 375.2 702.9 L 371.9 701.2 L 366.9 699 L 361.1 696.6 L 357.1 694.9 L 355.2 692.6 L 354.7 691 L 355.8 691 L 357.9 692.3 L 359.7 693.4 L 361 692.2 L 362.6 693 L 363.9 695.7 L 365.1 696.4 L 366.2 696.2 L 367.3 696 L 367.8 694.3 L 368 691.9 L 368.6 691.3 L 369.8 694 L 371.3 696.7 L 372.8 696.6 L 374.4 696.4 L 376.4 695.8 L 378.1 695.5 L 379 696.3 L 379.5 698.1 L 380.5 699.9 L 382.7 700.9 L 384.6 700.8 L 385.4 698.6 L 386.1 696.5 L 386.5 695.9 L 386.3 695.2 L 385 694.2 L 384.1 693.2 L 383.9 692.2 L 384.2 691.5 L 385.4 690.4 L 386.8 690.2 L 387.9 690.5 L 388.8 690.3 L 391 689.4 L 392.7 688.1 L 392.3 687.4 L 390.2 687.2 L 389.3 685.7 L 391.5 684.4 L 393.1 684.5 L 393.2 683.9 L 392.1 682.9 L 391.6 682 L 391.8 681.4 L 392.2 680.6 L 392 679.3 L 391.4 677.3 L 391.4 676.1 L 390.5 675.9 L 389.5 675.3 L 388.7 674.7 L 387.8 674.2 L 387.7 673.1 L 388.1 673.1 L 389 673.6 L 390.4 673.8 L 391.3 673.9 L 392.1 673.9 L 393 673.4 L 394.1 672.5 L 394.7 671.6 L 395 671.1 L 395.7 671.1 L 396.1 670.4 L 396.1 669.4 L 395.6 668.6 L 394.8 668.4 L 393.8 668.1 L 392.2 666.7 L 390.6 664.4 L 389.8 662.5 L 389.8 661.7 L 389.6 661.1 L 389.5 660.3 L 387.2 659.2 L 384.3 658.9 L 384.6 660.9 L 384.2 661.9 L 382.3 661.2 L 381.2 660.6 L 380.8 659.4 L 379.9 658.8 L 377.5 658.6 L 375.8 658.4 L 376.3 657.7 L 377.4 657 L 379.3 656.8 L 380.9 656.7 L 382.3 656.8 L 383.9 656.9 L 386.1 657 L 387.9 657.2 L 386.5 654.8 L 384.3 652.5 L 382.1 652.3 L 378.7 652.2 L 375.8 652.6 L 371.3 653.6 L 366.7 654.8 L 364.7 655 L 363.6 654.6 L 362 655.6 L 358.5 656.7 L 356.1 656.8 L 358.1 656 L 361.4 654.5 L 364.3 653.3 L 367.2 652.1 L 370.3 651.4 L 373.3 651.2 L 374.8 650.4 L 375.1 649.4 L 375.2 648.7 L 377.3 649 L 379.6 648.7 L 381.4 647.8 L 382.7 647.5 L 382.6 647 L 381 646.5 L 379.8 645.9 L 379.7 645.2 L 380.1 644.3 L 380.1 642.9 L 379.2 640.6 L 378.5 638.8 L 378.2 637.5 L 376.7 636.4 L 373.7 634.6 L 372.3 633.4 L 370.9 633.5 L 370.6 635.2 L 369 636.3 L 367.4 636.7 L 368.5 635.3 L 369.2 633 L 367.5 631.6 L 366.1 631 L 363.5 632.6 L 362.2 632.4 L 362.2 629.2 L 361.4 628 L 360.5 628.9 L 359.1 630.5 L 357.5 631.3 L 356.6 631.2 L 356.6 630.3 L 354.2 630.1 L 351.2 630.5 L 351 629.7 L 351.6 628.9 L 352.9 628.9 L 356 628.5 L 358.5 627.8 L 358.7 627.1 L 357.7 626.2 L 355.1 623.9 L 352.7 621.9 L 351.3 621.1 L 349.4 620.3 L 349.1 619.4 L 349.9 617.9 L 347.3 614 L 343.8 608.8 L 341.3 606.5 L 339.6 605.2 L 337.6 604.5 L 335.4 604.8 L 333.4 605.1 L 332.8 606.9 L 332.3 609 L 331 606.5 L 329.1 603.9 L 327.4 603.4 L 325 602 L 322.8 600.7 L 320.2 600 L 318.4 600.4 L 316.2 602 L 313.5 603.6 L 310.7 604.6 L 307.9 605.3 L 305.4 605.2 L 307.9 603.2 L 311.3 602.1 L 314.8 600.4 L 317.3 599 L 319.9 598 L 321.6 596.9 L 322.6 597.5 L 325.5 599.5 L 326.7 600.7 L 333.5 601.7 L 336.6 600.8 L 336.3 599.5 L 335 597.9 L 333.2 596.5 L 332.6 593.6 L 331.2 590.2 L 331 588.5 L 331.1 586.3 L 331.2 584 L 332.3 582 L 333.3 583.9 L 333.5 586.2 L 333.6 588.5 L 333.8 590.9 L 334.5 592.5 L 336 594.6 L 337.4 595 L 338.3 595 L 339.7 598.3 L 342.9 604.1 L 345.6 607.4 L 347.1 607.7 L 348.3 606.7 L 348.3 604.2 L 348 601.6 L 348.7 599.8 L 349.6 598.9 L 350 599.2 L 349.3 600.9 L 348.8 602.4 L 350.6 604 L 352.8 604.8 L 353.6 604.6 L 353.6 605.5 L 351.2 607.7 L 348.9 610.5 L 349.3 611.6 L 350 612.9 L 352.9 616.1 L 355.8 618.3 L 357.4 619.6 L 359 621.6 L 360.3 622.2 L 360.9 623.3 L 362.2 624.2 L 364.2 625.3 L 365.9 625.3 L 368.5 624.8 L 370.4 623.7 L 372.2 623.7 L 373.7 623.2 L 375.6 623.6 L 377.7 625.2 L 378.2 626.4 L 375.1 626.5 L 372 626.9 L 371.6 627.8 L 372.6 628.5 L 374.8 630.2 L 378.3 632.8 L 381.2 634.8 L 382.4 636.5 L 383.4 641.2 L 384.9 644.3 L 386.2 645.2 L 387.4 645.2 L 388.3 645.4 L 390 645.3 L 390.7 643.9 L 390.1 641.9 L 390 640.8 L 390.2 639.2 L 390.9 636.8 L 391.1 635.2 L 390.3 633.4 L 390.7 631.5 L 392.1 630.9 L 393.5 631.2 L 394.7 631.6 L 395.5 631.2 L 395.2 629.8 L 394.6 627.6 L 393.2 625.3 L 392.4 623.8 L 393.9 623.2 L 395.4 621.5 L 396.8 619.2 L 397.7 618 L 395 617.1 L 391.8 616.1 L 391.2 614.8 L 391.8 613.3 L 391.7 611.4 L 391.4 609.1 L 392.4 607.5 L 393.8 606.8 L 394.5 605.1 L 395 601.9 L 396.1 599.9 L 396.8 600.1 L 396.2 602.4 L 395.4 605.5 L 394.6 607 L 393.5 607.9 L 393.2 610.6 L 392.8 613.5 L 392.3 614.6 L 392.8 615.5 L 395.9 616.3 L 398.9 617.2 L 399.8 618.4 L 400.7 619.1 L 401.4 619.4 L 400.9 619.7 L 398.9 619.9 L 397.6 620.3 L 397.7 621.2 L 396.4 623.3 L 396.1 625.5 L 397 627.4 L 398.4 629.3 L 400.2 630.3 L 400.1 630.8 L 398.8 631.1 L 396.8 631.5 L 395.1 632.5 L 394.3 634.3 L 393.1 636.7 L 392.5 638.3 L 393.3 639.5 L 394.3 640.4 L 395.4 641.9 L 397.9 641 L 399.7 639.9 L 399.4 641.3 L 399.4 641.9 L 399.2 642.5 L 398.7 643.3 L 399.2 644.8 L 400.6 646.7 L 400.7 649.7 L 400.8 653.7 L 400.8 655.6 L 399.7 655.3 L 398.8 655.5 L 398.3 656.5 L 398.3 657.5 L 398.9 658.7 L 399.3 659.7 L 401 658.5 L 402.7 657.2 L 402.3 659 L 401.8 660.7 L 401.5 661.5 L 401.5 663.3 L 401.1 664.9 L 400.6 666.3 L 400.6 666.9 L 400.6 667.4 L 401.3 668.6 L 401.4 669.8 L 400.5 670.8 L 400.3 671.9 L 400.7 672.7 L 400.8 673.5 L 400.7 674.4 L 400.5 674.9 L 400.3 676.6 L 401.1 678 L 401.9 678.4 L 401.7 679.7 L 400.8 680.9 L 400.4 683.1 L 399.9 685.6 L 398.8 688.1 L 398.7 694.2 L 399.5 698.8 L 400.3 698.7 Z M 393.6 698.5 L 393.6 698.5 L 393.6 698.5 L 396 696.2 L 395 694.3 L 392.8 692.9 L 390.3 692.3 L 388.2 693.7 L 387.9 696.6 L 389.7 697.7 L 391.6 699.4 L 393.6 698.5 Z" />
<path class="lake" d="M 400.3 698.7 L 400.3 698.7 L 400.3 698.7 L 401.6 696.6 L 402.5 695.6 L 402.1 697.6 L 400.5 699.9 L 398.3 701.5 L 396.5 701.9 L 395.6 701.5 L 395 701.4 L 394.6 701.7 L 394.7 702.4 L 394.6 703.7 L 394.4 705.2 L 394.1 706.8 L 393.7 709.4 L 394 713.4 L 392.3 714.8 L 391.2 714.1 L 390.9 711.6 L 389.3 711.6 L 386.8 712.8 L 385.8 711.4 L 384.5 709.3 L 382.6 707.5 L 379 705.5 L 375.2 702.9 L 371.9 701.2 L 366.9 699 L 361.1 696.6 L 357.1 694.9 L 355.2 692.6 L 354.7 691 L 355.8 691 L 357.9 692.3 L 359.7 693.4 L 361 692.2 L 362.6 693 L 363.9 695.7 L 365.1 696.4 L 366.2 696.2 L 367.3 696 L 367.8 694.3 L 368 691.9 L 368.6 691.3 L 369.8 694 L 371.3 696.7 L 372.8 696.6 L 374.4 696.4 L 376.4 695.8 L 378.1 695.5 L 379 696.3 L 379.5 698.1 L 380.5 699.9 L 382.7 700.9 L 384.6 700.8 L 385.4 698.6 L 386.1 696.5 L 386.5 695.9 L 386.3 695.2 L 385 694.2 L 384.1 693.2 L 383.9 692.2 L 384.2 691.5 L 385.4 690.4 L 386.8 690.2 L 387.9 690.5 L 388.8 690.3 L 391 689.4 L 392.7 688.1 L 392.3 687.4 L 390.2 687.2 L 389.3 685.7 L 391.5 684.4 L 393.1 684.5 L 393.2 683.9 L 392.1 682.9 L 391.6 682 L 391.8 681.4 L 392.2 680.6 L 392 679.3 L 391.4 677.3 L 391.4 676.1 L 390.5 675.9 L 389.5 675.3 L 388.7 674.7 L 387.8 674.2 L 387.7 673.1 L 388.1 673.1 L 389 673.6 L 390.4 673.8 L 391.3 673.9 L 392.1 673.9 L 393 673.4 L 394.1 672.5 L 394.7 671.6 L 395 671.1 L 395.7 671.1 L 396.1 670.4 L 396.1 669.4 L 395.6 668.6 L 394.8 668.4 L 393.8 668.1 L 392.2 666.7 L 390.6 664.4 L 389.8 662.5 L 389.8 661.7 L 389.6 661.1 L 389.5 660.3 L 387.2 659.2 L 384.3 658.9 L 384.6 660.9 L 384.2 661.9 L 382.3 661.2 L 381.2 660.6 L 380.8 659.4 L 379.9 658.8 L 377.5 658.6 L 375.8 658.4 L 376.3 657.7 L 377.4 657 L 379.3 656.8 L 380.9 656.7 L 382.3 656.8 L 383.9 656.9 L 386.1 657 L 387.9 657.2 L 386.5 654.8 L 384.3 652.5 L 382.1 652.3 L 378.7 652.2 L 375.8 652.6 L 371.3 653.6 L 366.7 654.8 L 364.7 655 L 363.6 654.6 L 362 655.6 L 358.5 656.7 L 356.1 656.8 L 358.1 656 L 361.4 654.5 L 364.3 653.3 L 367.2 652.1 L 370.3 651.4 L 373.3 651.2 L 374.8 650.4 L 375.1 649.4 L 375.2 648.7 L 377.3 649 L 379.6 648.7 L 381.4 647.8 L 382.7 647.5 L 382.6 647 L 381 646.5 L 379.8 645.9 L 379.7 645.2 L 380.1 644.3 L 380.1 642.9 L 379.2 640.6 L 378.5 638.8 L 378.2 637.5 L 376.7 636.4 L 373.7 634.6 L 372.3 633.4 L 370.9 633.5 L 370.6 635.2 L 369 636.3 L 367.4 636.7 L 368.5 635.3 L 369.2 633 L 367.5 631.6 L 366.1 631 L 363.5 632.6 L 362.2 632.4 L 362.2 629.2 L 361.4 628 L 360.5 628.9 L 359.1 630.5 L 357.5 631.3 L 356.6 631.2 L 356.6 630.3 L 354.2 630.1 L 351.2 630.5 L 351 629.7 L 351.6 628.9 L 352.9 628.9 L 356 628.5 L 358.5 627.8 L 358.7 627.1 L 357.7 626.2 L 355.1 623.9 L 352.7 621.9 L 351.3 621.1 L 349.4 620.3 L 349.1 619.4 L 349.9 617.9 L 347.3 614 L 343.8 608.8 L 341.3 606.5 L 339.6 605.2 L 337.6 604.5 L 335.4 604.8 L 333.4 605.1 L 332.8 606.9 L 332.3 609 L 331 606.5 L 329.1 603.9 L 327.4 603.4 L 325 602 L 322.8 600.7 L 320.2 600 L 318.4 600.4 L 316.2 602 L 313.5 603.6 L 310.7 604.6 L 307.9 605.3 L 305.4 605.2 L 307.9 603.2 L 311.3 602.1 L 314.8 600.4 L 317.3 599 L 319.9 598 L 321.6 596.9 L 322.6 597.5 L 325.5 599.5 L 326.7 600.7 L 333.5 601.7 L 336.6 600.8 L 336.3 599.5 L 335 597.9 L 333.2 596.5 L 332.6 593.6 L 331.2 590.2 L 331 588.5 L 331.1 586.3 L 331.2 584 L 332.3 582 L 333.3 583.9 L 333.5 586.2 L 333.6 588.5 L 333.8 590.9 L 334.5 592.5 L 336 594.6 L 337.4 595 L 338.3 595 L 339.7 598.3 L 342.9 604.1 L 345.6 607.4 L 347.1 607.7 L 348.3 606.7 L 348.3 604.2 L 348 601.6 L 348.7 599.8 L 349.6 598.9 L 350 599.2 L 349.3 600.9 L 348.8 602.4 L 350.6 604 L 352.8 604.8 L 353.6 604.6 L 353.6 605.5 L 351.2 607.7 L 348.9 610.5 L 349.3 611.6 L 350 612.9 L 352.9 616.1 L 355.8 618.3 L 357.4 619.6 L 359 621.6 L 360.3 622.2 L 360.9 623.3 L 362.2 624.2 L 364.2 625.3 L 365.9 625.3 L 368.5 624.8 L 370.4 623.7 L 372.2 623.7 L 373.7 623.2 L 375.6 623.6 L 377.7 625.2 L 378.2 626.4 L 375.1 626.5 L 372 626.9 L 371.6 627.8 L 372.6 628.5 L 374.8 630.2 L 378.3 632.8 L 381.2 634.8 L 382.4 636.5 L 383.4 641.2 L 384.9 644.3 L 386.2 645.2 L 387.4 645.2 L 388.3 645.4 L 390 645.3 L 390.7 643.9 L 390.1 641.9 L 390 640.8 L 390.2 639.2 L 390.9 636.8 L 391.1 635.2 L 390.3 633.4 L 390.7 631.5 L 392.1 630.9 L 393.5 631.2 L 394.7 631.6 L 395.5 631.2 L 395.2 629.8 L 394.6 627.6 L 393.2 625.3 L 392.4 623.8 L 393.9 623.2 L 395.4 621.5 L 396.8 619.2 L 397.7 618 L 395 617.1 L 391.8 616.1 L 391.2 614.8 L 391.8 613.3 L 391.7 611.4 L 391.4 609.1 L 392.4 607.5 L 393.8 606.8 L 394.5 605.1 L 395 601.9 L 396.1 599.9 L 396.8 600.1 L 396.2 602.4 L 395.4 605.5 L 394.6 607 L 393.5 607.9 L 393.2 610.6 L 392.8 613.5 L 392.3 614.6 L 392.8 615.5 L 395.9 616.3 L 398.9 617.2 L 399.8 618.4 L 400.7 619.1 L 401.4 619.4 L 400.9 619.7 L 398.9 619.9 L 397.6 620.3 L 397.7 621.2 L 396.4 623.3 L 396.1 625.5 L 397 627.4 L 398.4 629.3 L 400.2 630.3 L 400.1 630.8 L 398.8 631.1 L 396.8 631.5 L 395.1 632.5 L 394.3 634.3 L 393.1 636.7 L 392.5 638.3 L 393.3 639.5 L 394.3 640.4 L 395.4 641.9 L 397.9 641 L 399.7 639.9 L 399.4 641.3 L 399.4 641.9 L 399.2 642.5 L 398.7 643.3 L 399.2 644.8 L 400.6 646.7 L 400.7 649.7 L 400.8 653.7 L 400.8 655.6 L 399.7 655.3 L 398.8 655.5 L 398.3 656.5 L 398.3 657.5 L 398.9 658.7 L 399.3 659.7 L 401 658.5 L 402.7 657.2 L 402.3 659 L 401.8 660.7 L 401.5 661.5 L 401.5 663.3 L 401.1 664.9 L 400.6 666.3 L 400.6 666.9 L 400.6 667.4 L 401.3 668.6 L 401.4 669.8 L 400.5 670.8 L 400.3 671.9 L 400.7 672.7 L 400.8 673.5 L 400.7 674.4 L 400.5 674.9 L 400.3 676.6 L 401.1 678 L 401.9 678.4 L 401.7 679.7 L 400.8 680.9 L 400.4 683.1 L 399.9 685.6 L 398.8 688.1 L 398.7 694.2 L 399.5 698.8 L 400.3 698.7 Z M 393.6 698.5 L 393.6 698.5 L 393.6 698.5 L 396 696.2 L 395 694.3 L 392.8 692.9 L 390.3 692.3 L 388.2 693.7 L 387.9 696.6 L 389.7 697.7 L 391.6 699.4 L 393.6 698.5 Z" />
<path class="country" d="M 516 718.5 L 518.7 641.5 L 517.5 611.1 L 526.5 581 L 541.3 566.3 L 564.4 536.7 L 559.4 523.9 L 568.8 504.6 L 558.1 476.3 L 559.9 460.4 L 563.3 417.8 L 577 398.5 L 583.7 371 L 596.1 360.7 L 647.5 355 L 695.4 372.8 L 713.3 390.9 L 737.7 391.7 L 760.3 380 L 818.2 404.7 L 842.6 403.5 L 870.7 383.1 L 898.8 384.6 L 912.6 377.9 L 938.3 380.7 L 975.3 394.6 L 1012.6 367.9 L 1023.9 369.8 L 1056.2 422.1 L 1065.1 421.1 L 1084 440.1 L 1078.8 448.7 L 1076.3 464.6 L 1036 501.6 L 1023.4 532.1 L 1016.6 556.9 L 1006.5 567.6 L 996.9 601 L 971.3 620.7 L 963.9 644.9 L 953.2 664.2 L 948.7 684 L 915.9 700.1 L 889 680.5 L 870.9 681.3 L 842.5 709.2 L 828.6 709.7 L 805.9 755.8 L 793.6 789.6 L 744 806.8 L 725.8 804.3 L 707.5 815 L 669.2 814 L 643.6 784.1 L 627.9 749.5 L 594.1 718 L 558.2 718.6 L 516 718.5 Z" />

<path class="river" d="M 305.5 605.2 L 312.3 602.8 L 315.6 601.2 L 318.7 599.2 L 321.6 598.9 L 325.2 601.2 L 331.1 603.2 L 340.7 603.7" />
<path class="river" d="M 340.8 603.7 L 334.3 594.4 L 332.1 589 L 332.3 582" />
<path class="river" d="M 608.4 546.2 L 603.8 528.4 L 604.2 519.5 L 609.9 510.6 M 197.2 287.4 L 188.2 283.4 L 184.4 280.7 L 181.7 276.6" />
<path class="river" d="M 340.7 603.7 L 352.7 618 L 362.2 625.9 L 373.3 632.1 L 380 638 L 382.5 643.5 L 384.8 646.8 L 386.8 647.9 L 389.2 652.2 L 392 659.7 L 394.7 664.3 L 397.4 665.9 L 398.4 671.4 L 397.8 680.7 L 396.7 686.8 L 395 689.7 L 395 692.6 L 396.8 695.5 L 396.6 698 L 393.8 700.6 L 392.5 704.6 L 392.3 714.8" />
<path class="river" d="M 1330.4 657.4 L 1325.3 656.3 L 1323.7 654.4 L 1323.7 651.3 L 1320.4 648.5 L 1314 645.9 L 1311.2 640.8 L 1312.1 633 L 1309 623.5 L 1298.4 606.7 L 1300.6 604 L 1298.4 601.1 L 1289.9 595.4" />
<path class="river" d="M 957.2 564.1 L 950.5 563.8 L 940.5 568 L 924.9 576.5 L 914.9 584.6 L 910.2 592.3 L 906.3 597.3 L 902.9 599.7 L 895.6 601.5 L 884.4 602.7 L 875.7 607.1 L 869.4 614.9 L 864.1 619.7 L 858 622.3 L 842.8 629.6 L 836.4 633.5 L 833.6 636.5 L 824.2 640.5 L 808.2 645.5 L 790.6 644.9 L 761.5 635.8 L 742 634.4 L 729.4 636.9 L 711.2 645.2" />
<path class="river" d="M 1379.2 1031.1 L 1372.4 1031.7 L 1367.2 1031 L 1361.3 1029.2 L 1357.4 1028.8 L 1355.3 1029.8 L 1353.7 1028.5 L 1352.5 1025 L 1350.6 1023.9 L 1348 1025.1 L 1344.5 1024.7 L 1340.2 1022.7 L 1336.7 1022.7 L 1334 1024.7 L 1329.5 1024.8 L 1323 1023 L 1315 1023.1 L 1305.6 1025.1 L 1300.1 1027.2 L 1298.4 1029.5 L 1296.5 1030 L 1293 1028.1" />
<path class="river" d="M 1033.7 646 L 1040.8 642.3 L 1042.9 639.1 L 1042.3 635 L 1043.8 631.9 L 1049.3 628.7 L 1054.5 623.8 L 1056.3 620.4 L 1056.4 616.8 L 1055.3 613.7 L 1053.1 611.1 L 1052.9 606.8 L 1054.8 600.6 L 1052.8 595.5 L 1046.9 591.5 L 1041.2 584.9 L 1035.6 575.9 L 1031.3 572.5 L 1028.3 574.9 L 1023.9 576.7 L 1018.1 578 L 1012.7 576.9 L 1005.1 571.5 L 1000.1 569.6 L 995.1 570.8 L 988.6 574.3 L 982.6 572.9 L 977.2 566.4 L 970.1 563.4 L 957.2 564.1" />
<path class="river" d="M 1289.9 595.4 L 1287.8 596.4 L 1283.9 595 L 1277.4 591.7 L 1270.3 585.6 L 1258.6 572.3 L 1237.6 553 L 1229.6 543.9 L 1227.6 538.5 L 1224.7 533.6 L 1217.6 525.6 L 1214.9 523 L 1211.7 521.2 L 1207.9 520.2 L 1204.8 518 L 1202.2 514.7 L 1200 512.8 L 1198 512.4 L 1193.9 513.6 L 1187.5 516.4 L 1181.2 516.8 L 1175.1 514.8 L 1168.2 511.2 L 1160.6 505.9 L 1152.8 502.8 L 1144.8 501.9 L 1138.2 499.9 L 1133 497 L 1129.1 494 L 1126.5 491.1 L 1124.9 487 L 1124.4 481.7 L 1122.7 475.5 L 1119.6 468.3 L 1118.6 461.5 L 1119.6 455 L 1117.7 449.2 L 1113 443.9 L 1107.8 440.1 M 1107.8 440.1 L 1101.8 442.1 L 1096.7 440.7 L 1089.5 437.3 L 1084.3 433.7 L 1081.2 429.9 L 1076.3 427.7 L 1069.5 427.1 L 1065.9 425.8 L 1064.8 421.7 M 1107.8 440.1 L 1102.1 437.9 L 1098.5 431.3 L 1096.9 420.2 L 1092.8 412.8 L 1086.2 409.3 L 1082.5 405 L 1081.1 397.4" />
<path class="river" d="M 1651 1413 L 1661.2 1410.6 L 1665.4 1409.2 L 1667 1407.9 L 1667.8 1405.9 L 1667.8 1403.3 L 1670 1400.5 L 1674.2 1397.6 L 1676.4 1395.2 L 1676.4 1393.5 L 1674.3 1390.6 L 1670 1386.6 L 1671.3 1377.5 L 1678.1 1363.1 L 1680 1351.8 L 1676.9 1343.4 L 1675.9 1336.1 L 1676.8 1330.1 L 1676.3 1324.6 L 1674.4 1319.7 L 1673.2 1312.7 L 1672.7 1303.6 L 1672.9 1295.7 L 1674.4 1285.8 M 1548.3 980.3 L 1542.8 973.5 L 1534.6 968.8 L 1521.6 964 L 1508.6 953.5 L 1495.3 937.4 L 1485 928.1 L 1473.9 924.5 L 1465.4 917.2 L 1457.7 914.4 L 1448 913.5 L 1437.3 913.6 L 1425.4 914.5 L 1414.8 916.7 L 1405.5 920.1 L 1388.3 922.3 L 1363.1 923.4 L 1338.5 928.6 L 1302.2 942.5 L 1281.7 959.2 L 1272.7 967.4 L 1268.4 972.6 L 1264 984.6 L 1257.1 1012.9 L 1256.4 1014.6 L 1252.8 1023.6 L 1242.8 1036.3 L 1235.8 1043.9 L 1225.7 1054.7 L 1213.1 1065.4 L 1204.9 1068.5 L 1198.6 1072.1 L 1194.1 1076.2 L 1192.6 1078.5 L 1189.3 1083.4 L 1181.8 1098.9 L 1177.8 1105.6 L 1172.7 1111.4 L 1165.1 1118.4 L 1162.3 1121.7 L 1161.2 1126.6 L 1161.7 1135.5 L 1162.4 1162.5 L 1161.1 1170.3 L 1159 1183.2 L 1151.5 1197.6 L 1145.9 1205.7 L 1140.3 1208.1 L 1132.9 1210.3 L 1129.4 1213 L 1127.2 1217 L 1123.1 1220.5 L 1117 1223.5 L 1109.3 1230.9 L 1100 1242.5 L 1093.7 1249.2 L 1090.3 1251 L 1086.7 1251.1 L 1083.1 1249.7 L 1080 1249.5 L 1076.4 1251 L 1067.6 1252.4 L 1062.8 1254 L 1059 1256.2 L 1056.6 1259.1 L 1055.7 1262.8 L 1053.5 1266.4 L 1049.9 1269.9 L 1048.4 1271 L 1047.3 1271.1 L 1045.7 1269.9 L 1044.6 1269.9 L 1043.7 1271.1 L 1041.7 1271.4 L 1038.4 1270.9 L 1036 1271.7 L 1034.6 1273.7 L 1034.9 1276.4 L 1037.1 1279.6 L 1036.9 1281.1 L 1035.6 1282 L 1035.1 1284.1 L 1035.6 1287.9 L 1033.1 1292.1 L 1027.7 1296.8 L 1023.1 1298.8 L 1017.4 1297.5 L 1011.9 1297.9" />
<path class="river" d="M 1085.9 737.4 L 1085.9 755 L 1080 765 L 1078.5 770 L 1079.6 773.4 L 1077.3 777.3 L 1071.7 781.5 L 1068.6 788.4 L 1068 797.9 L 1070.6 806 L 1076.4 812.5 L 1080.2 815.5 L 1082.2 815.6 L 1083.6 816.4 L 1083.9 817.5 L 1086.2 818.3 L 1088.9 816.7 L 1092.5 815.6 L 1095.9 815.5 L 1098.2 816.8 L 1099.1 819.5 L 1102.2 820.9 L 1107.3 821 L 1111.2 822.2 L 1115.5 825.6 L 1121.8 823.9 L 1125.8 824.3 L 1129.6 826.3 L 1131.9 829.8 L 1132.5 834.8 L 1135.3 838.2 L 1140.3 839.7 L 1146.3 843.2 L 1153.5 848.7 L 1157.2 855.2 L 1157.3 862.5 L 1159.6 869.4 L 1164.1 875.7 L 1164.6 877.9 L 1163.7 879.8 L 1160.3 882.7 L 1157.6 887.9 L 1156.6 893.4 L 1157.1 899.5 L 1158.5 904.7 L 1160.8 909.2 L 1160.4 912.3 L 1157.5 914.1 L 1155.8 917 L 1155.3 921 L 1156.2 926 L 1158.5 931.8 L 1158.5 935.7 L 1156.7 938.6" />
<path class="river" d="M 1387.8 666.8 L 1382.8 670.7 L 1379.8 671.9 L 1377.3 671.7 L 1375.3 673 L 1374.1 675.8 L 1371.7 678.1 L 1366.4 680.9 L 1361.5 681.9 L 1357.7 681.5 L 1353.3 680.2 L 1348.2 677.5 L 1342.3 673.4 L 1337.1 667.9 L 1330.4 657.4" />
<path class="river" d="M 1088.2 697.5 L 1090.1 699.3 L 1089.3 703 L 1084.9 712.1 L 1078.9 716.5 L 1077 720.3 L 1077.1 725 L 1076.4 728.9 L 1074.9 732 L 1071.4 734.4 L 1066 736.2 L 1062.6 739.8 L 1061.2 745.3 L 1059.6 748.1 L 1057.8 748.3 L 1056 749.7 L 1054.1 752.5 L 1052.1 753.7 L 1050 753.5 L 1049.2 754.9 L 1049.6 757.9 L 1046.9 760.9 L 1041.1 763.9 L 1037.1 764.4 L 1033.9 761.6 L 1030.9 760.5 L 1028.8 761.4 L 1026.7 764 L 1026 767.5 L 1026.9 772 L 1025.8 776 L 1022.9 779.7 L 1019.8 781.7 L 1014.7 781.9" />
<path class="river" d="M 135.8 485.3 L 139.6 486 L 142.4 484.6 L 145.6 481.3 L 148.9 479.3 L 154.2 478.5 L 162 472.6 L 165.7 471.3 L 167.7 472.8 L 170.4 472.2 L 173.8 469.6 L 178 467.7 L 183 466.5 L 190.3 458.7 L 199.9 444.3 L 204.8 435.8 L 205 433.1 L 206.5 430 L 209.3 426.7 L 212.1 425 L 215 425 L 216.8 421.4 L 217.7 414.2 L 219.6 410 L 222.5 408.9 L 224.6 409.7 L 225.9 412.5 L 227.9 413.3 L 230.7 412.3 L 232.1 413.6 L 232.1 417.1 L 234.1 420.3 L 238 423.1 L 242.9 425.2 L 248.8 426.4 L 251.2 428 L 250 429.9 L 250.5 432.9 L 252.8 436.9 L 252.4 439.5 L 249.4 440.6 L 249 443.3 L 251 447.7 L 251 450.8 L 248.7 452.8 L 249.6 454.7 L 253.5 456.5 L 254 463 L 251.2 474.3 L 250.8 480.4 L 252.8 481.2 L 253.3 484.1 L 252.1 491.6 L 248.4 505 L 248.1 511.4 L 249.8 515.5 L 251.8 518 L 254 519.1 L 254.2 520.5 L 252.4 522.4 L 252.6 524.3 L 254.6 526.3 L 255.1 528.4 L 254.1 530.6 L 254.3 535.8 L 255.9 544.1 L 255.9 549.4 L 254.5 551.9 L 255.2 556.1 L 258 562 L 259 566.9 L 258 570.8 L 258.2 573.1 L 259.6 574 L 258.8 577.1 L 256.1 582.3 L 256.1 585.4 L 258.8 586.3 L 260.7 589.6 L 261.9 595.2 L 265.2 600.4 L 270.5 605.2 L 274.4 610.8 L 276.9 617.2 L 280 622.2 L 283.7 626 L 287.6 627.7 L 291.8 627.4 L 294.9 626.2 L 296.9 624 L 299.2 623.2 L 301.7 623.7 L 302.9 622.9 L 302.8 620.8 L 301.5 619.7 L 298.9 619.4 L 297.2 618.3 L 296.3 616.3 L 296.6 612.9 L 297.9 608 L 300.3 605.4 L 305.5 605.2" />
<path class="river" d="M 287.8 348.1 L 289.1 363.9 L 286.6 369.3 L 286.8 373.8 L 288.8 378.9 L 288.5 384.3 L 285.9 389.8 L 285.3 393.1 L 286.8 394.4 L 292.3 394.6 L 301.9 393.7 L 309.6 394.9 L 315.1 398 L 319.9 399 L 323.9 397.8 L 327 398.2 L 329.3 400.2 L 330.8 404.2 L 331.8 410.4 L 332.8 413.1 L 334.1 412.3 L 335 412.7 L 335.6 414.3 L 335.2 428.2 L 337.4 436.9 L 342.4 445.4 L 346.4 450.5 L 349.2 452.3 L 350.5 455.9 L 350.2 461.4 L 352.8 465.3 L 358.3 467.8 L 361.8 470.3 L 363.5 472.6 L 363.8 474.3 L 362.9 475.2 L 364.3 478.1 L 368 482.7 L 369.5 488.1 L 369 494.2 L 369.5 498.3 L 370.9 500.6 L 371.1 502.3 L 370.2 503.5 L 370.1 505.3 L 371.3 509.3 L 358.3 513.7 L 353.9 513.7 L 353.8 510.7 L 352.7 509.2 L 350.8 509.1 L 348.3 510.9 L 345.3 514.6 L 342.6 515.9 L 340.1 514.8 L 338.3 514.8 L 337 516 L 336.4 518.5 L 336.4 522.2 L 337.2 525.3 L 338.7 527.7 L 338.4 529.9 L 336.3 532.1 L 336.2 534.2 L 338.1 536.2 L 339.6 541.6 L 340.6 550.4 L 338.6 554.3 L 333.3 553.4 L 328.2 554.7 L 323.2 558.5 L 321.2 562.6 L 322.1 567 L 323.9 570.4 L 326.7 572.9 L 328 575.4 L 327.8 578 L 328.9 580 L 332.3 582" />
<path class="river" d="M 686.8 779.1 L 684.8 782.6 L 680.4 786.2 L 677.8 792.6 L 676.7 806.4 L 677.8 812.6 M 686.8 779.1 L 687 805.8 M 695.8 761.4 L 692 762.2 L 688.5 763.6 L 685.6 765.6 L 684.1 767.5 L 684.1 769.1 L 682.2 770.9 L 678.4 772.8 L 673.7 772.5 L 668.2 770 L 661.6 769.6 L 649.1 771.4 M 695.8 761.4 L 692.9 764.3 L 690.8 766.5 L 689.9 768.2 L 690 769.4 L 691.2 770.1 L 691 771.4 L 689.4 773.3 L 688 774.2 L 686.8 774.1 L 686.4 775.8 L 686.8 779.1 M 700.7 752.8 L 703.1 760.3 L 702.2 764.3 L 699.1 767.5 L 696.8 771.2 L 695.3 775.6 L 696.1 778.6 L 699.3 780.1 L 701.5 783.1 L 702.7 787.5 L 704.8 791.7 L 708 797.5 L 708.3 802.6 L 708 804.9 L 708 806.2 L 708.3 810.1 M -125.5 583.2 L -122.3 580.2 L -120.3 576.3 L -118.3 570.6 L -118.4 565.9 L -121.9 560.5 L -121.2 551.7 L -123.3 543.8 L -127.8 534 L -129.5 527.9 L -128.6 525.7 L -126.2 524.4 L -122.5 523.9 L -120.8 522.6 L -121.3 520.5 L -119.9 519.4 L -116.4 519.4 L -113.5 518.2 L -111.3 515.7 L -107.9 514.7 L -103.5 515.2 L -101 516.3 L -100 516.9 L -98.9 517.2 L -97.8 516.7 L -93.1 512.6 L -89.1 510.7 L -85.8 511 L -84.1 509.9 L -83.3 509.1 L -81.1 508.1 L -74.2 507.3 L -68.3 502.4 L -63.4 493.4 L -59.2 488.9 L -55.6 488.7 L -52.3 487.3 L -49.3 484.6 L -48.3 480.5 L -49.5 475.1 L -47 472 L -40.9 471 L -35.7 467.8 L -31.3 462.3 L -26.1 457.6 L -20.2 453.7 L -15.6 448.7 L -12.5 442.7 L -8.4 437.3 L -3.3 432.6 L 0.3 426.3 L 2.6 418.4 L 6.7 414.2 L 12.8 413.8 L 21 408.5 L 31.2 398.4 L 39.5 391.4 L 49.1 385.7 L 55.2 380.9 L 63 379.1 L 74.3 378.8 L 83.1 376.8 L 89.3 373.2 L 93.6 369 L 96.1 364.3 L 99.6 362.4 L 105.3 362 L 110.9 360.8 L 119.9 354 L 127.6 350.4 L 133.8 350.1 L 138.2 348.2 L 140.6 344.8 L 148.6 341.2 L 162.2 337.3 L 170 335.9 L 172.9 335.5 L 176.4 333.6 L 186.6 322.3 L 190.6 311.7 L 194.2 306.3 L 198.7 302.5 L 200 297.3 L 197.2 287.4 L 198.4 286.9 L 200.3 286.1 L 203.3 283.9 L 204.8 281.9 L 204.9 280.2 L 203.2 279 L 199.7 278.5 L 199.9 276.7 L 206 272 L 206.4 271.2 L 202.8 270.1 L 203.4 269.3 L 205.2 268.6 L 208.2 268.1 L 209.9 265.8 L 210.1 261.7 L 211.4 259.1 L 213.7 258.1 L 215.4 255.9 L 216.7 252.8 L 219.9 250.8 M 608.4 546.2 L 609.3 551.5 L 608.7 555.6 L 606.8 560.3 L 606.5 565 L 607.8 569.7 L 609.8 572.6 L 612.6 573.8 L 614.3 575.9 L 615 578.9 L 618.2 579.9 L 623.8 578.7 L 629 580.4 L 633.9 584.9 L 640.2 588.1 L 648.1 590 L 655.2 593.2 L 664.7 599.9 L 675 599.3 L 681.7 599.9 L 688 601.4 L 692.5 605.3 L 695.1 611.6 L 699 617.3 L 704.3 622.5 L 708.3 628.4 L 710.9 635.1 L 711.2 645.2 L 708 665.8 L 705.8 684.4 L 705.6 695.4 L 707.1 709.9 L 709.5 721.2 L 707.9 732 L 700.7 752.8 L 697.8 756.5 L 697 758.6 L 697.5 760.2 L 695.8 761.4 M 181.7 276.6 L 180 271.1 L 181 268.2 L 184.2 265.8 L 186.3 262.9 L 187.3 259.4 L 189.6 258.2 L 193.1 259.1 L 198 256.6 L 204.6 250.8 L 211 247.6 L 217.4 247.1 L 221.6 245.3 M 219.9 250.8 L 221.6 245.3 M 221.6 245.3 L 223.7 242.2 L 225.9 240.5 L 228.1 240.3 L 229.1 239.1 L 229.1 236.9 L 231.4 234.6 L 233.4 233.5 M 233.4 233.5 L 235 238.7 L 235 240.9 L 234.1 242.2 L 232.8 243.1 L 231.1 243.5 L 229.5 245.2 L 228.3 248.2 L 225.1 250 L 219.9 250.8 M 233.4 233.5 L 236 232.1 L 238.9 228.6 L 240.2 224 L 242.7 221.9 L 246.5 222.3 L 256.3 220 L 272.1 215.2 L 282.3 213 L 286.9 213.5 L 289.7 213.1 L 290.7 211.7 L 296.7 209.3 L 307.8 205.8 L 318.1 203.5 L 327.6 202.5 L 333.9 202.9 L 337.1 204.8 L 341.3 205.4 L 346.4 204.9 L 350.5 205.6 L 353.7 207.6 L 358.7 208.2 L 365.5 207.4 L 370.8 211.3 L 374.5 220 L 377.7 225.4 L 380.3 227.5 L 383.1 232.7 L 387.5 244.9 L 394.2 253.8 L 399.8 259.1 L 406.3 263.8 L 409.9 268.3 L 410.3 272.9 L 413.5 276.4 L 419.5 279 L 422.7 281.2 L 423.1 283.1 L 422.1 287.3 L 419.6 293.9 L 418.8 298.6 L 419.6 301.4 L 421.9 303.3 L 425.5 304.3 L 428.2 307.5 L 430 312.7 L 433.5 318.5 L 438.8 324.8 L 445.1 330.4 L 452.5 335.2 L 457.3 341.6 L 459.6 349.5 L 462.9 355.9 L 467.2 360.7 L 473.9 365.3 L 483.1 369.7 L 488.9 373.6 L 491.2 377.2 L 494.2 380 L 497.7 382.1 L 499.9 388 L 500.6 397.5 L 502.8 405.1 L 506.3 410.6 L 507.8 414.2 L 507.2 416 L 507.6 417.8 L 508.7 418.9 L 510.2 418.8 L 511.5 417.8 L 512.3 417.8 L 512.9 418.8 L 514.1 419.2 L 516 418.8 L 517.3 419.4 L 518.1 421.8 L 519.6 423.5 L 521.9 424.1 L 523.3 425.1 L 537.9 438.5 L 543.5 444.6 L 545 447.7 L 547.9 449.9 L 552.2 451.2 L 556.1 454.3 L 559.2 458.7 L 563.9 462.3 L 571.4 464.7 L 579.6 468.8 L 584.9 473.3 L 590 479.5 L 596.1 483.9 L 603.1 486.4 L 608.2 489.8 L 611.4 494 L 612.2 499.8 L 609.9 510.7" />
<path class="river" d="M 1119.6 708.8 L 1123.3 714.6 L 1127.9 715.4 L 1138.3 712.1 L 1142 708.9 L 1144.7 707.7 L 1147.6 707.5 L 1150.1 710 L 1152 715.3 L 1155.6 718 L 1160.7 718.3 L 1165.2 716.5 L 1169.1 712.6 L 1171.3 709.5 L 1171.8 707.1 L 1174.7 704.1 L 1179.9 700.5 L 1183.7 698.9 L 1185.9 699.3 L 1189 701.8 L 1193 706.4 L 1196.6 708.3 L 1199.9 707.7 L 1203.7 708.2 L 1208.1 709.9 L 1213.2 709.5 L 1219 707.1 L 1224.1 706.1 L 1228.7 706.3 L 1233.7 704.2 L 1239 699.9 L 1242.8 694 L 1245.1 686.7 L 1247.7 682 L 1250.6 680.1 L 1253.7 676.5 L 1257 671 L 1259.5 668.2 L 1261.2 668.1 L 1260.7 665.8 L 1258.1 661.3 L 1254.5 659.7 L 1250 661.1 L 1246.8 660.7 L 1244.9 658.4 L 1241.7 656.9 L 1237.2 656.3 L 1235.6 653.9 L 1237 649.8 L 1236.5 643.7 L 1234.1 635.6 L 1233.2 629.2 L 1233.7 624.6 L 1236.6 617.7 L 1241.9 608.6 L 1245 599.8 L 1245.7 591.4 L 1247.2 587 L 1249.5 586.7 L 1252.2 584.9 L 1255.4 581.5 L 1257.5 578 L 1258.8 572.5" />
<path class="river" d="M 1293 1028.1 L 1286 1023.5 L 1279.2 1021 L 1270.3 1019.2 L 1264.8 1017.1 L 1262.8 1014.7 L 1260.6 1013.7 L 1256.4 1014.6" />
<path class="river" d="M 1014.7 781.9 L 1008.3 779.5 L 1003.9 779 L 994.9 780.6 L 991 781.8 L 987 784.6 L 983 789.1 L 979.3 791.5 L 974.2 791.9 L 967.1 799 L 963.6 800.5 L 961.4 798.7 L 956.4 800.6 L 948.5 806.3 L 941.5 807.4 L 935.4 804.1 L 927.2 806.8 L 916.8 815.6 L 906.3 821.4 L 895.7 824 L 889.3 824.3 L 887.2 822.3 L 884 824.3 L 879.8 830.4 L 876.5 833.2 L 874.2 832.9 L 870.8 835.4 L 866.4 840.7 L 862.3 843.6 L 856.6 844.3 L 854.1 844.5" />
<path class="river" d="M 1156.7 938.6 L 1156.3 940.4 L 1159.2 946.6 L 1162.1 949.5 L 1165.4 949.8 L 1169 952.4 L 1172.9 957.1 L 1176 959.3 L 1178.5 961.1 L 1180.7 967.1 L 1183.8 983.5 L 1186.9 992.6 L 1190.1 994.6 L 1193.1 995 L 1195.2 995.8 L 1196.1 997.1 L 1198.1 998.1 L 1199.4 998.2 L 1201.5 998.8 L 1203.3 1000.4 L 1204.4 1002.6 L 1204.7 1005.4 L 1206 1007.1 L 1208.4 1007.6 L 1208.9 1009.6 L 1207.5 1013.1 L 1207.3 1017.7 L 1208.2 1023.2 L 1208.1 1027.9 L 1206.9 1031.9 L 1206.8 1034.2 L 1207.8 1034.9 L 1208.1 1036.4 L 1207.4 1038.7 L 1207.9 1040.2 L 1209.7 1040.8 L 1210.7 1044.2 L 1211.1 1050.3 L 1210.7 1053.2 L 1208.4 1054.6 L 1207.7 1057.9 L 1204.7 1061.6 L 1199.3 1065.9 L 1195.6 1070.3 L 1192.6 1078.5" />
<path class="river" d="M 1276.1 841.9 L 1277.3 859.8 L 1271 877.9 L 1257.7 902.3 L 1251 921.4 L 1251.1 935.5 L 1250.3 944.3 L 1248.1 949.7 L 1242.9 964.2 L 1242.1 976.7 L 1244 992 L 1242.2 1006.5 L 1236.7 1020.2 L 1234.4 1030.9 L 1235.8 1043.9" />
<path class="river" d="M 1753.5 845.8 L 1746 843.3 L 1742.1 843.2 L 1739.4 844.6 L 1736.9 843.9 L 1734.8 841.1 L 1732.2 839.4 L 1729.3 838.9 L 1724.5 839.9 L 1717.6 842.3 L 1711 843.5 L 1704.5 843.6 L 1698.3 841 L 1692.5 835.9 L 1688.6 833.6 L 1686.6 834.2 L 1685.8 836.6 L 1686.3 840.9 L 1685 844.8 L 1681.9 848.3 L 1679.6 849.6 L 1678 848.7 L 1675.5 848.7 L 1671.9 849.7 L 1669.7 846.4 L 1668.9 838.9 L 1667.4 833 L 1665.3 828.8 L 1663.2 826.4 L 1661.3 825.9 L 1656.7 828.7 L 1645.9 837.7 L 1641.1 841.8 L 1637.4 842.3 L 1633.2 840.7 L 1629.3 840.1 L 1625.9 840.6 L 1623.2 842.9 L 1621.1 847.1 L 1618.5 848.4 L 1615.4 846.7 L 1611.7 846.8 L 1607.5 848.5 L 1602.6 849.2 L 1597.1 848.9 L 1592.9 850.1 L 1590.1 852.8 L 1587 854.4 L 1583.6 855.1 L 1581.1 854.3 L 1579.7 852.2 L 1574.4 851.3 L 1565.3 851.5 L 1556.4 848.8 L 1547.5 843.2 L 1538.2 840.4 L 1528.4 840.4 L 1521.6 838.7 L 1517.6 835.2 L 1512.6 833.9 L 1506.4 834.9 L 1500.9 834.4 L 1496.1 832.2 L 1488.9 832 L 1479.4 833.6 L 1470.7 830.8 L 1458.9 820 L 1434.4 814.4 L 1423.8 813.1 L 1416.7 814.8 L 1407.7 811.6 L 1403.8 811.1 L 1401.9 812.1 L 1397 810.6 L 1388.8 806.8 L 1381.1 805.1 L 1374.1 805.7 L 1369.8 804.4 L 1366.4 800.6 L 1362 793.7 L 1354 786.8 L 1343.3 781.3 L 1336.6 777.2 L 1333.9 774.4 L 1328.2 772.9 L 1319.3 772.6 L 1310.8 775.3 L 1298.7 783.9 L 1287.3 801.5 L 1281 808.2 L 1276 810 L 1274.7 814.2 L 1277.2 820.9 L 1277.9 828.7 L 1276.1 841.9" />
<path class="river" d="M 392.3 714.8 L 392.1 721.9 L 394.8 725.5 L 400.5 727.8 L 405.5 728.9 L 409.8 728.7 L 413.3 729.9 L 416 732.4 L 417.9 735.8 L 419.5 742.4" />
<g class="city"><circle cx="549.3453938722101" cy="709.6402419449514" r="5" /><text x="561.3453938722101" y="713.6402419449514">Lagos</text></g>
<g class="city"><circle cx="794.4396628479232" cy="444.0816688882355" r="5" /><text x="806.4396628479232" y="448.0816688882355">Kano</text></g>
<g class="city"><circle cx="575.0782736799674" cy="664.8717571241714" r="5" /><text x="587.0782736799674" y="668.8717571241714">Ibadan</text></g>
<g class="city"><circle cx="376.90521571727925" cy="752.3281165424978" r="5" /><text x="388.90521571727925" y="756.3281165424978">Accra</text></g>
<g class="city"><circle cx="851.3081941086696" cy="823.5180954834796" r="5" /><text x="863.3081941086696" y="827.5180954834796">Douala</text></g>
<g class="city"><circle cx="937.6495039650589" cy="832.7755588639559" r="5" /><text x="949.6495039650589" y="836.7755588639559">Yaoundé</text></g>
<g class="city"><circle cx="745.2829045861286" cy="584.9349570352393" r="5" /><text x="757.2829045861286" y="588.9349570352393">Abuja</text></g>
<g class="city"><circle cx="445.6984498193828" cy="724.5186409193243" r="5" /><text x="457.6984498193828" y="728.5186409193243">Lomé</text></g>
<text class="map-title" x="80" y="105">Nigeria Physical Study Map</text>
<text class="map-subtitle" x="80" y="145">Landmark: Zuma Rock | Study terrain and water systems</text>
  <text class="footer" x="80" y="1036">Made with Natural Earth. Free vector and raster map data @ naturalearthdata.com.</text>
</svg>
