<?xml version="1.0" encoding="UTF-8"?>
<svg xmlns="http://www.w3.org/2000/svg" width="1600" height="1100" viewBox="0 0 1600 1100" role="img" aria-labelledby="title desc">
  <title id="title">Nicaragua Physical Study Map</title>
  <desc id="desc">Made with Natural Earth. Free vector and raster map data @ naturalearthdata.com.</desc>
  <defs>
    <linearGradient id="terrain" x1="0" x2="1" y1="0" y2="1">
      <stop offset="0%" stop-color="#6c8c53" />
      <stop offset="42%" stop-color="#d5c487" />
      <stop offset="72%" stop-color="#b88b5f" />
      <stop offset="100%" stop-color="#f1f5ee" />
    </linearGradient>
    <filter id="softShadow" x="-10%" y="-10%" width="120%" height="120%">
      <feDropShadow dx="0" dy="10" stdDeviation="12" flood-color="#0f172a" flood-opacity="0.16" />
    </filter>
    <style>
      .neighbor { fill: #ffffff; stroke: #94a3b8; stroke-width: 1.2; opacity: 0.72; }
      .country { fill: url(#terrain); stroke: #1f2937; stroke-width: 4; filter: url(#softShadow); }
      .admin1 { fill: none; stroke: #64748b; stroke-width: 1.1; stroke-dasharray: 6 7; opacity: 0.75; }
      .river { fill: none; stroke: #1d9bd1; stroke-width: 3; stroke-linecap: round; opacity: 0.88; }
      .lake { fill: #8ed1ea; stroke: #0ea5e9; stroke-width: 1.5; opacity: 0.8; }
      .city circle { fill: #ef4444; stroke: #ffffff; stroke-width: 2; }
      .city text, .terrain-label { fill: #172033; font: 700 24px system-ui, sans-serif; paint-order: stroke; stroke: #ffffff; stroke-width: 5; stroke-linejoin: round; }
      .map-title { fill: #0f172a; font: 800 46px system-ui, sans-serif; }
      .map-subtitle { fill: #475569; font: 600 24px system-ui, sans-serif; }
      .footer { fill: #64748b; font: 500 18px system-ui, sans-serif; }
    </style>
  </defs>
  <rect width="100%" height="100%" fill="#d8edf0" />
  <rect x="40" y="40" width="1520" height="1020" rx="32" fill="#ffffff" opacity="0.54" />
  <path class="neighbor" d="M -2601.7 -1523.8 L -2479.8 -1532 L -2343.6 -1543.6 L -2353.6 -1522.7 L -2191.7 -1470.5 L -1947 -1395 L -1733.8 -1395.8 L -1648.7 -1395.8 L -1648.5 -1440.1 L -1462.7 -1440 L -1423.6 -1402 L -1368.8 -1368.1 L -1305.1 -1320.9 L -1269.5 -1264.9 L -1242.8 -1206 L -1187.4 -1173.6 L -1098.4 -1141.4 L -1030.8 -1226.1 L -943.1 -1228.2 L -867.6 -1185.4 L -813.8 -1112 L -776.7 -1049.2 L -713.4 -988.1 L -689.8 -913 L -659.8 -862.6 L -576.1 -829.3 L -500 -805.7 L -458.2 -809 L -499.8 -714.8 L -518.5 -637.6 L -526.4 -493.9 L -536.7 -441.6 L -518.1 -383.1 L -484.9 -330.8 L -463.5 -247.6 L -392.3 -167.8 L -367.2 -106.6 L -325.3 -53.8 L -211.4 -25.3 L -167.1 19.5 L -73 -10.4 L 8.8 -21.3 L 89.1 -40.5 L 156.6 -58.9 L 224.8 -102.7 L 250.3 -165.2 L 259.1 -255.3 L 277.7 -286.7 L 350.3 -314.8 L 463.7 -339.6 L 558.6 -335.9 L 623.7 -345 L 649.4 -322.2 L 645.8 -270.6 L 588.2 -206.8 L 562.7 -141.6 L 582.4 -122.9 L 566.4 -76.5 L 539.5 7.2 L 512.3 -20.4 L 489.8 -18.6 L 469.5 -17.2 L 431 47.5 L 411.6 34.9 L 398.6 39.8 L 399.4 55.6 L 300.3 54.4 L 200.1 54.6 L 200.1 115 L 151.6 115.2 L 191.5 151 L 231.2 175.8 L 243.1 199 L 260.5 205.5 L 257.7 242 L 120.1 242.4 L 68.5 329.8 L 83.7 349.8 L 71.3 375 L 68.6 406.2 L -52.7 290.7 L -108 255.9 L -195.6 228 L -255.5 235.7 L -341.6 276.1 L -395.7 286.7 L -471.4 258.4 L -551.8 238 L -652 188.8 L -732.4 173.8 L -853.8 123.9 L -943.5 72.7 L -970.6 44 L -1030.6 37.6 L -1140.3 3.7 L -1185 -45.3 L -1300.2 -106.1 L -1353.9 -173.7 L -1379.5 -226 L -1343.7 -236.5 L -1354.8 -267.1 L -1330.1 -294.9 L -1329.6 -332 L -1365.8 -380.1 L -1375.4 -422.8 L -1411.4 -476.9 L -1505.9 -583.5 L -1613.7 -667.3 L -1665.9 -734.1 L -1757.9 -777.9 L -1777.7 -804.1 L -1761.3 -870.4 L -1816 -895.4 L -1879.3 -947.5 L -1906 -1022.4 L -1963.7 -1031.1 L -2026 -1087.6 L -2076.2 -1139.7 L -2080.9 -1173.2 L -2138.6 -1254.1 L -2176.6 -1336.2 L -2174.9 -1377.4 L -2252.5 -1420 L -2288.3 -1415.3 L -2349.5 -1444.8 L -2366.7 -1401.3 L -2348.9 -1349.8 L -2338.5 -1269.3 L -2301.7 -1225.1 L -2222.1 -1151.2 L -2204.5 -1126 L -2188.2 -1118.3 L -2174 -1081.5 L -2154.9 -1083 L -2133.4 -1013.8 L -2100.9 -986.5 L -2078 -948.6 L -2010.6 -894 L -1975 -794.2 L -1943.2 -747.3 L -1913.4 -697 L -1907.5 -640.4 L -1855.8 -636.9 L -1812.8 -588.2 L -1773.9 -540.3 L -1776.5 -521.1 L -1821.6 -481.7 L -1840.6 -482.2 L -1868.9 -547.4 L -1939.1 -608.5 L -2016.4 -660.4 L -2071.3 -687.6 L -2067.7 -766.1 L -2084 -824.2 L -2135.1 -857.4 L -2208.8 -905.3 L -2223 -891.5 L -2250 -919.4 L -2316.2 -945.4 L -2379.4 -1007.6 L -2371.6 -1015.7 L -2327.4 -1009.7 L -2287.6 -1049.7 L -2283.6 -1098.1 L -2366.2 -1174.6 L -2429.1 -1204.3 L -2468.6 -1271.3 L -2508.4 -1341.6 L -2558.1 -1427.3 L -2601.7 -1523.8 Z" />
<path class="neighbor" d="M 1663.8 1035.5 L 1650.8 1051.2 L 1675.6 1114.4 L 1655.4 1146.2 L 1620.9 1138.5 L 1607.1 1190.7 L 1571.4 1159.7 L 1548.4 1101.8 L 1574.9 1073.2 L 1547.7 1065.8 L 1527.7 1030.4 L 1474.3 1000.6 L 1427.4 1007.4 L 1405.6 1044.7 L 1362.3 1071.7 L 1338.9 1075.4 L 1328.4 1097.7 L 1379.5 1156 L 1350.3 1169.7 L 1334.8 1185.5 L 1284.9 1191 L 1266.3 1127 L 1252.4 1145.2 L 1217 1138.9 L 1195.3 1095.7 L 1151.4 1088.6 L 1123.5 1076.1 L 1077.5 1076.2 L 1074.2 1099.5 L 1061.9 1083.3 L 1067.5 1062 L 1076.5 1040.3 L 1072.3 1020.9 L 1088.3 1008.2 L 1066 992.2 L 1065.4 949.1 L 1106.9 939.5 L 1145.4 977.9 L 1143.2 1000.7 L 1186 1005.5 L 1196.1 996.8 L 1225.6 1023.1 L 1278.4 1015.4 L 1324 988.3 L 1389.1 966.6 L 1425.7 934.6 L 1484.9 940.9 L 1480.9 951.4 L 1540.7 955.1 L 1588.4 973.6 L 1623.4 1005.9 L 1663.8 1035.5 Z" />
<path class="neighbor" d="M 1106.9 939.5 L 1065.4 949.1 L 1066 992.2 L 1088.3 1008.2 L 1072.3 1020.9 L 1076.5 1040.3 L 1067.5 1062 L 1061.9 1083.3 L 1003.7 1059.5 L 981.9 1037 L 994.3 1018.4 L 990.4 994.7 L 960.6 969 L 918.4 947.9 L 881.5 934.2 L 874.5 902.8 L 846.3 883.6 L 853.2 914.8 L 831.8 940.4 L 807.3 910.7 L 772.9 900.1 L 758.2 878.5 L 758.8 845.8 L 773 812.1 L 742.7 796.9 L 767.3 776.2 L 783.5 762.4 L 854.1 790.8 L 878.8 776.8 L 912.8 785.8 L 930.6 807.9 L 962.2 815 L 987.9 792.3 L 1015.1 850.5 L 1056.5 893.7 L 1106.9 939.5 Z" />
<path class="neighbor" d="M 1042.4 357.2 L 1005.7 355 L 990.8 369.6 L 953.6 383.6 L 926.5 383.7 L 902.8 397.3 L 881.3 392.5 L 863 376.1 L 851.8 379.2 L 838.1 404.8 L 827.8 403.9 L 826 426 L 788.6 455.5 L 768.8 468.3 L 757.8 481.6 L 726.2 459.9 L 703 488.5 L 680.7 487.7 L 655.5 490.3 L 657.8 543 L 642.1 544 L 628.6 568.5 L 595.3 572.9 L 576.8 539.3 L 544.2 530 L 551.7 487 L 537.1 475.4 L 515 467.8 L 468 480.6 L 464 466.1 L 431.6 448.9 L 408.5 427.5 L 376.9 418.5 L 399.2 391.3 L 390.6 370.2 L 398.2 349.6 L 449 319.6 L 497.9 278.7 L 509 282.9 L 532.5 264 L 563.2 262.5 L 573.2 271.2 L 589.8 265.9 L 639.6 275.6 L 689.2 272.8 L 723.7 260.9 L 736.3 248.9 L 770.5 254.5 L 796.1 261.8 L 824.2 259.2 L 845.5 249.9 L 894.5 264.8 L 911.5 267.2 L 944.2 287.2 L 975.2 311.3 L 1014.2 327.7 L 1042.4 357.2 Z" />
<path class="neighbor" d="M 376.9 418.5 L 408.5 427.5 L 431.6 448.9 L 464 466.1 L 468 480.6 L 515 467.8 L 537.1 475.4 L 551.7 487 L 544.2 530 L 532.3 555.2 L 470.2 553.6 L 431.6 543.4 L 387.2 522.1 L 327.7 515.4 L 297.3 492.4 L 300.6 476.6 L 337.4 449.6 L 357.5 437.7 L 351.8 425.1 L 376.9 418.5 Z" />
<path class="neighbor" d="M 68.6 406.2 L 71.3 375 L 83.7 349.8 L 68.5 329.8 L 120.1 242.4 L 257.7 242 L 260.5 205.5 L 243.1 199 L 231.2 175.8 L 191.5 151 L 151.6 115.2 L 200.1 115 L 200.1 54.6 L 300.3 54.4 L 399.4 55.6 L 398.6 140.6 L 390.2 261.6 L 422.2 261.6 L 457.2 281 L 466.4 265 L 497.9 278.7 L 449 319.6 L 398.2 349.6 L 390.6 370.2 L 399.2 391.3 L 376.9 418.5 L 351.8 425.1 L 357.5 437.7 L 337.4 449.6 L 300.6 476.6 L 297.3 492.4 L 242.3 473.7 L 175.4 471.7 L 126.3 450.4 L 68.6 406.2 Z" />
<path class="neighbor" d="M 399.4 55.6 L 398.6 39.8 L 411.6 34.9 L 431 47.5 L 469.5 -17.2 L 489.8 -18.6 L 490.2 -2.9 L 510.6 -2.4 L 508.8 26.8 L 491.4 73.2 L 500.8 89.8 L 489.6 128.1 L 496.3 138.4 L 483.9 192.6 L 462.8 221 L 443.5 224.4 L 422.2 261.6 L 390.2 261.6 L 398.6 140.6 L 399.4 55.6 Z" />
<path class="lake" d="M 863.7 757.8 L 866.1 763.6 L 867.3 768.9 L 868.5 773.1 L 864.9 778.7 L 860.7 780.4 L 854.8 781.9 L 850.2 780.2 L 843.2 779.6 L 831.9 777.1 L 815.8 772.5 L 799.6 767.1 L 788.3 762.6 L 781.1 758.9 L 775.1 755.3 L 770.4 751.7 L 766.6 747.9 L 762.8 742.2 L 758.2 734 L 754.3 725.3 L 752.1 718.5 L 751 714.5 L 749.7 712.5 L 748.3 711.6 L 747.3 710.4 L 746.9 708.4 L 747.1 705.8 L 747.1 700.5 L 746.3 692 L 745.7 683.5 L 745.9 678.2 L 747.8 674.7 L 750.3 668 L 754.2 666.8 L 758.2 667 L 763.2 668.4 L 771.3 671.6 L 780.6 676.7 L 788.7 682.9 L 796.4 689 L 804.9 694 L 815.9 701.7 L 829.6 714.6 L 842.8 729.2 L 852.7 741.3 L 859.1 750.4 L 863.7 757.8 L 863.7 757.8 L 863.7 757.8 L 863.7 757.8 Z" />
<path class="lake" d="M 427.9 280.4 L 422.9 284.1 L 418 288.5 L 415.1 295.3 L 412.4 304.3 L 406.3 309.2 L 395.2 312 L 389.2 312.8 L 385 314.4 L 382.5 315.8 L 379.8 312.6 L 375.6 307.4 L 373.2 304.4 L 374.9 302.5 L 380.7 300.8 L 388.3 297.9 L 395.2 295.1 L 403.5 292.2 L 417.9 283 L 429.6 274.8 L 431.6 274.7 L 430.6 277.2 L 427.9 280.4 L 427.9 280.4 L 427.9 280.4 L 427.9 280.4 Z" />
<path class="lake" d="M 725.4 645 L 725.6 649.4 L 725.3 656.2 L 717.7 658.6 L 708.5 660 L 702.8 659.4 L 703.6 656.4 L 704.7 652.5 L 703.9 650 L 701.9 648.5 L 695 649.1 L 686.1 649.1 L 679.8 645.9 L 675.2 641.7 L 673.4 637.7 L 673.3 635 L 678 634.5 L 686.3 632.6 L 693.6 628.8 L 700.2 627 L 704.9 627.7 L 711.2 637.4 L 719.2 644.6 L 723.7 643.2 L 725.4 645 L 725.4 645 L 725.4 645 L 725.4 645 Z" />
<path class="country" d="M 987.9 792.3 L 962.2 815 L 930.6 807.9 L 912.8 785.8 L 878.8 776.8 L 854.1 790.8 L 783.5 762.4 L 767.3 776.2 L 730.2 742.4 L 680.1 699.2 L 656.5 663 L 611.3 629.3 L 557.6 580.9 L 569.5 564.3 L 587.2 580.4 L 595.3 572.9 L 628.6 568.5 L 642.1 544 L 657.8 543 L 655.5 490.3 L 680.7 487.7 L 703 488.5 L 726.2 459.9 L 757.8 481.6 L 768.8 468.3 L 788.6 455.5 L 826 426 L 827.8 403.9 L 838.1 404.8 L 851.8 379.2 L 863 376.1 L 881.3 392.5 L 902.8 397.3 L 926.5 383.7 L 953.6 383.6 L 990.8 369.6 L 1005.7 355 L 1042.4 357.2 L 1033.2 367.5 L 1027.7 391.4 L 1038.7 430.7 L 1014 467.2 L 1002.5 510.3 L 999 557.6 L 1004.8 585.2 L 1007.5 633.5 L 991.1 644.1 L 981 689.9 L 988.4 718.2 L 966.5 745.7 L 971.5 774.7 L 987.9 792.3 Z" />

<path class="river" d="M 868.4 773.1 L 846.1 763.5 L 816.6 737.2 L 750.3 668" />
<path class="river" d="M 646 526.1 L 668 516.2 L 683.7 505.8 L 692.4 503 L 699.3 504.6 L 706.3 509.9 L 713.3 519 L 720.7 521.8 L 728.4 518.4 L 736.1 517.1 L 743.5 518 L 751.9 508.9 L 761.2 489.8 L 765.7 477.3 L 765.3 471.3 L 770.6 465.9 L 781.6 461 L 792.6 452.3 L 803.7 440 L 813.3 432.7 L 821.4 430.5 L 824.5 427.2 L 822.6 422.6 L 823.2 416.1 L 826.4 407.7 L 831.2 402.8 L 837.4 401.5 L 839.8 398.8 L 838.5 394.8 L 839.7 390.5 L 845.3 383.3 L 858.7 377.1 L 866.3 379.2 L 872.7 387.5 L 881.7 393.1 L 893.3 396.1 L 902.3 395 L 908.8 389.8 L 914.5 388.2 L 919.7 390.3 L 922.4 389.1 L 922.7 384.8 L 925.3 383.8 L 930.3 386.1 L 934.8 386.7 L 938.7 385.6 L 940.2 383.5 L 941 381.3 L 943.9 379.7 L 954 381.3 L 965.2 378.8 L 977.7 372.2 L 986 369.2 L 990.1 370 L 995 366.7 L 1000.7 359.2 L 1013.7 355.9 L 1041.3 357.5" />
<path class="river" d="M 2991.7 6126.7 L 3031.8 6130.7 L 3053.9 6134.6 L 3071.4 6139.7 L 3097 6151.9 L 3130.7 6171 L 3154.1 6181.6 L 3167 6183.6 L 3180 6188.5 L 3193.3 6196.1 L 3211.8 6201.2 L 3235.5 6204 L 3254.9 6213 L 3277.2 6235.9 L 3280.3 6239.1 L 3283 6242.1 M 2420 5749.7 L 2428.4 5782.1 L 2434.6 5796.2 L 2444.6 5806 L 2466.8 5811 L 2477.8 5822.1 L 2485.1 5841 L 2487.6 5853.9 L 2485.4 5860.7 L 2485.2 5869.6 L 2487.1 5880.5 L 2485.1 5889.9 L 2479.4 5897.9 L 2475.4 5909.6 L 2473.2 5925.2 L 2474.2 5935.4 L 2478.3 5940.1 L 2484.6 5944.6 L 2493 5948.9 L 2509.9 5951.9 L 2535.4 5953.6 L 2551.4 5959 L 2557.9 5967.8 L 2573.5 5974.4 L 2598.1 5978.5 L 2613 5983.2 L 2618.3 5988.3 L 2637.6 5993.1 L 2670.8 5997.4 L 2690.1 6003.9 L 2695.3 6012.6 L 2693.6 6021.2 L 2685 6029.9 L 2681.2 6037.1 L 2682 6042.9 L 2685.7 6046.5 L 2692.1 6047.9 L 2700.1 6053.6 L 2709.8 6063.6 L 2724.8 6067.5 L 2745 6065.4 L 2758 6069.4 L 2763.7 6079.4 L 2774.8 6087.2 L 2799.5 6095.9 L 2811.2 6100.9 L 2816.6 6105.9 L 2819.6 6112.5 L 2825.6 6116.6 L 2834.7 6118.3 L 2874 6119.9 L 2892.8 6122.1 L 2907.3 6126.2 L 2918 6127.1 L 2924.8 6124.8 L 2933.4 6125.4 L 2943.9 6128.7 L 2959.6 6129.5 L 2990.9 6126.7 M -2343.5 -1544 L -2350.7 -1526.9 L -2356.2 -1520.4 L -2362.5 -1518.9 L -2369.1 -1511.4 L -2376.1 -1497.9 L -2383.5 -1489.2 L -2391.1 -1485.2 L -2394.8 -1479.7 L -2394.5 -1472.6 L -2393.5 -1471 L -2392 -1471.2 L -2389.9 -1470.2 L -2386.9 -1465.1 L -2383.4 -1462.6 L -2377.2 -1462.7 L -2374.5 -1460.6 L -2371.4 -1457.5 L -2366.4 -1455.7 M -2283.8 -1708 L -2301.5 -1696.1 L -2311.1 -1686.3 L -2320.8 -1670.5 L -2319.3 -1657.7 L -2319.8 -1647.1 L -2322.2 -1638.7 L -2325.9 -1631 L -2330.9 -1624 L -2336.1 -1619.8 L -2341.5 -1618.4 L -2343.4 -1609.1 L -2341.8 -1591.8 L -2335.7 -1581.3 L -2325.3 -1577.5 L -2318.9 -1571.8 L -2316.5 -1564.2 L -2317.4 -1556.6 L -2321.6 -1549.2 L -2328.7 -1545.1 L -2343.5 -1544 M -2329.6 -1825.9 L -2331.7 -1787.8 L -2331.7 -1778.1 L -2326 -1766 L -2308.9 -1744.1 L -2306.9 -1738.8 M -2345.7 -1896.8 L -2344.8 -1893.6 L -2339.9 -1886.4 L -2339.6 -1875.3 L -2338.8 -1866.3 L -2336 -1861.4 L -2335.4 -1855.7 M -2145.7 -1925.4 L -2181.1 -1908.6 L -2190.7 -1900.4 L -2193.8 -1894.7 L -2193.6 -1877.6 L -2197.1 -1870 L -2204.2 -1869.8 L -2221.1 -1874 L -2227.2 -1877.2 M -1995.3 -1995.3 L -2007.9 -1986.4 L -2017.7 -1975.5 L -2029.1 -1959.6 L -2035.9 -1947.6 L -2038.2 -1939.7 L -2037.3 -1929.6 L -2033.1 -1917.4 L -2034 -1908.8 L -2040 -1904 L -2051.2 -1903.1 L -2067.5 -1906.2 L -2079.2 -1911.5 L -2086.3 -1919 L -2092.1 -1921.7 L -2096.8 -1919.6 L -2101 -1919.8 L -2104.9 -1922.5 L -2105.3 -1926.2 L -2102.2 -1930.9 L -2101.9 -1934.5 L -2104.2 -1937 L -2108.9 -1938.3 L -2115.8 -1938.4 L -2126.1 -1935.2 L -2146.3 -1925.4 M -1393.4 -2341.9 L -1406.7 -2337.9 L -1421.8 -2334.2 L -1438.8 -2334 L -1451.3 -2330.9 L -1460 -2326.3 L -1472.1 -2316 L -1476.8 -2312.9 L -1480.8 -2312.5 L -1486.2 -2315.7 L -1493.4 -2316.2 L -1502.3 -2313.8 L -1512.3 -2305.8 L -1523.2 -2292.2 L -1529.7 -2286.1 L -1540.8 -2281.6 L -1573.5 -2279.1 L -1594.2 -2279.1 L -1606.4 -2276.7 L -1616.8 -2271.9 L -1634.2 -2261 L -1648.8 -2250.8 L -1656.5 -2236.1 L -1669.3 -2227.7 L -1682.6 -2226.7 L -1708.7 -2236.8 L -1715.8 -2238.5 L -1724.9 -2238.3 L -1735.5 -2232.1 L -1751 -2220.6 L -1758.4 -2210.1 L -1762.9 -2196.8 L -1768.9 -2188.5 L -1776.6 -2185.1 L -1783.5 -2179.6 L -1789.7 -2172.1 L -1793.9 -2169.2 L -1795.9 -2170 L -1798.1 -2168.4 L -1799.6 -2161.8 L -1801.9 -2158.3 L -1805.1 -2157.9 L -1807.6 -2154.2 L -1809.3 -2147.3 L -1814.2 -2139.7 L -1826.3 -2127.5 L -1851.3 -2105.7 L -1863.9 -2098.5 L -1876.7 -2098.8 M -1391.7 -2367.6 L -1388.6 -2347.4 L -1389.1 -2344.1" />
<path class="river" d="M 2514.7 5320.1 L 2517 5319.5 L 2539.8 5318.6 L 2551.2 5321.4 L 2556.5 5327.6 L 2559.2 5334.3 L 2559.3 5341.4 L 2565.6 5345.4 L 2578 5346.5 L 2592.5 5345 L 2609 5340.9 L 2618.5 5340.4 L 2622 5344.8 L 2627.4 5351.2 L 2628.5 5359.9 L 2627.1 5372.9 L 2629.4 5384.5 L 2635.3 5394.8 L 2636.8 5401.8 L 2637.9 5404.8 L 2642.6 5406 L 2657.3 5405 L 2669.7 5409 L 2679.8 5418.1 L 2694.3 5423.8 L 2713.3 5426 L 2725.9 5430 L 2735.3 5438.8 M 868.5 773.1 L 898.6 781 L 913.6 787.9 L 923.6 796.4 L 929 802.7 L 929.9 807 L 932.9 809.3 L 940.7 809.8 L 959.6 814.1 L 971.2 813.2 L 981.8 808.7 L 987.6 803.2 L 989.4 794.8 M 725.3 656.2 L 750.3 668" />
<g class="city"><circle cx="391.65856146787064" cy="495.8052588830025" r="5" /><text x="403.65856146787064" y="499.8052588830025">San Salvador</text></g>
<g class="city"><circle cx="942.5270036004817" cy="900.4135516437156" r="5" /><text x="954.5270036004817" y="904.4135516437156">San José</text></g>
<g class="city"><circle cx="605.7212430188835" cy="452.8328485756141" r="5" /><text x="617.7212430188835" y="456.8328485756141">Tegucigalpa</text></g>
<g class="city"><circle cx="707.4964633979179" cy="661.847509737895" r="5" /><text x="719.4964633979179" y="665.847509737895">Managua</text></g>
<g class="city"><circle cx="1054.644059767411" cy="892.9442573695138" r="5" /><text x="1066.644059767411" y="896.9442573695138">Limón</text></g>
<text class="map-title" x="80" y="105">Nicaragua Physical Study Map</text>
<text class="map-subtitle" x="80" y="145">Landmark: Masaya Volcano | Study terrain and water systems</text>
  <text class="footer" x="80" y="1036">Made with Natural Earth. Free vector and raster map data @ naturalearthdata.com.</text>
</svg>
