<?xml version="1.0" encoding="UTF-8"?>
<svg xmlns="http://www.w3.org/2000/svg" width="1600" height="1100" viewBox="0 0 1600 1100" role="img" aria-labelledby="title desc">
  <title id="title">Nicaragua Political Study Map</title>
  <desc id="desc">Made with Natural Earth. Free vector and raster map data @ naturalearthdata.com.</desc>
  <defs>
    <linearGradient id="terrain" x1="0" x2="1" y1="0" y2="1">
      <stop offset="0%" stop-color="#6c8c53" />
      <stop offset="42%" stop-color="#d5c487" />
      <stop offset="72%" stop-color="#b88b5f" />
      <stop offset="100%" stop-color="#f1f5ee" />
    </linearGradient>
    <filter id="softShadow" x="-10%" y="-10%" width="120%" height="120%">
      <feDropShadow dx="0" dy="10" stdDeviation="12" flood-color="#0f172a" flood-opacity="0.16" />
    </filter>
    <style>
      .neighbor { fill: #ffffff; stroke: #94a3b8; stroke-width: 1.2; opacity: 0.72; }
      .country { fill: #f7f1df; stroke: #1f2937; stroke-width: 4; filter: url(#softShadow); }
      .admin1 { fill: none; stroke: #64748b; stroke-width: 1.1; stroke-dasharray: 6 7; opacity: 0.75; }
      .river { fill: none; stroke: #1d9bd1; stroke-width: 3; stroke-linecap: round; opacity: 0.88; }
      .lake { fill: #8ed1ea; stroke: #0ea5e9; stroke-width: 1.5; opacity: 0.8; }
      .city circle { fill: #ef4444; stroke: #ffffff; stroke-width: 2; }
      .city text, .terrain-label { fill: #172033; font: 700 24px system-ui, sans-serif; paint-order: stroke; stroke: #ffffff; stroke-width: 5; stroke-linejoin: round; }
      .map-title { fill: #0f172a; font: 800 46px system-ui, sans-serif; }
      .map-subtitle { fill: #475569; font: 600 24px system-ui, sans-serif; }
      .footer { fill: #64748b; font: 500 18px system-ui, sans-serif; }
    </style>
  </defs>
  <rect width="100%" height="100%" fill="#eaf3f8" />
  <rect x="40" y="40" width="1520" height="1020" rx="32" fill="#ffffff" opacity="0.54" />
  <path class="neighbor" d="M -2601.7 -1523.8 L -2479.8 -1532 L -2343.6 -1543.6 L -2353.6 -1522.7 L -2191.7 -1470.5 L -1947 -1395 L -1733.8 -1395.8 L -1648.7 -1395.8 L -1648.5 -1440.1 L -1462.7 -1440 L -1423.6 -1402 L -1368.8 -1368.1 L -1305.1 -1320.9 L -1269.5 -1264.9 L -1242.8 -1206 L -1187.4 -1173.6 L -1098.4 -1141.4 L -1030.8 -1226.1 L -943.1 -1228.2 L -867.6 -1185.4 L -813.8 -1112 L -776.7 -1049.2 L -713.4 -988.1 L -689.8 -913 L -659.8 -862.6 L -576.1 -829.3 L -500 -805.7 L -458.2 -809 L -499.8 -714.8 L -518.5 -637.6 L -526.4 -493.9 L -536.7 -441.6 L -518.1 -383.1 L -484.9 -330.8 L -463.5 -247.6 L -392.3 -167.8 L -367.2 -106.6 L -325.3 -53.8 L -211.4 -25.3 L -167.1 19.5 L -73 -10.4 L 8.8 -21.3 L 89.1 -40.5 L 156.6 -58.9 L 224.8 -102.7 L 250.3 -165.2 L 259.1 -255.3 L 277.7 -286.7 L 350.3 -314.8 L 463.7 -339.6 L 558.6 -335.9 L 623.7 -345 L 649.4 -322.2 L 645.8 -270.6 L 588.2 -206.8 L 562.7 -141.6 L 582.4 -122.9 L 566.4 -76.5 L 539.5 7.2 L 512.3 -20.4 L 489.8 -18.6 L 469.5 -17.2 L 431 47.5 L 411.6 34.9 L 398.6 39.8 L 399.4 55.6 L 300.3 54.4 L 200.1 54.6 L 200.1 115 L 151.6 115.2 L 191.5 151 L 231.2 175.8 L 243.1 199 L 260.5 205.5 L 257.7 242 L 120.1 242.4 L 68.5 329.8 L 83.7 349.8 L 71.3 375 L 68.6 406.2 L -52.7 290.7 L -108 255.9 L -195.6 228 L -255.5 235.7 L -341.6 276.1 L -395.7 286.7 L -471.4 258.4 L -551.8 238 L -652 188.8 L -732.4 173.8 L -853.8 123.9 L -943.5 72.7 L -970.6 44 L -1030.6 37.6 L -1140.3 3.7 L -1185 -45.3 L -1300.2 -106.1 L -1353.9 -173.7 L -1379.5 -226 L -1343.7 -236.5 L -1354.8 -267.1 L -1330.1 -294.9 L -1329.6 -332 L -1365.8 -380.1 L -1375.4 -422.8 L -1411.4 -476.9 L -1505.9 -583.5 L -1613.7 -667.3 L -1665.9 -734.1 L -1757.9 -777.9 L -1777.7 -804.1 L -1761.3 -870.4 L -1816 -895.4 L -1879.3 -947.5 L -1906 -1022.4 L -1963.7 -1031.1 L -2026 -1087.6 L -2076.2 -1139.7 L -2080.9 -1173.2 L -2138.6 -1254.1 L -2176.6 -1336.2 L -2174.9 -1377.4 L -2252.5 -1420 L -2288.3 -1415.3 L -2349.5 -1444.8 L -2366.7 -1401.3 L -2348.9 -1349.8 L -2338.5 -1269.3 L -2301.7 -1225.1 L -2222.1 -1151.2 L -2204.5 -1126 L -2188.2 -1118.3 L -2174 -1081.5 L -2154.9 -1083 L -2133.4 -1013.8 L -2100.9 -986.5 L -2078 -948.6 L -2010.6 -894 L -1975 -794.2 L -1943.2 -747.3 L -1913.4 -697 L -1907.5 -640.4 L -1855.8 -636.9 L -1812.8 -588.2 L -1773.9 -540.3 L -1776.5 -521.1 L -1821.6 -481.7 L -1840.6 -482.2 L -1868.9 -547.4 L -1939.1 -608.5 L -2016.4 -660.4 L -2071.3 -687.6 L -2067.7 -766.1 L -2084 -824.2 L -2135.1 -857.4 L -2208.8 -905.3 L -2223 -891.5 L -2250 -919.4 L -2316.2 -945.4 L -2379.4 -1007.6 L -2371.6 -1015.7 L -2327.4 -1009.7 L -2287.6 -1049.7 L -2283.6 -1098.1 L -2366.2 -1174.6 L -2429.1 -1204.3 L -2468.6 -1271.3 L -2508.4 -1341.6 L -2558.1 -1427.3 L -2601.7 -1523.8 Z" />
<path class="neighbor" d="M 1663.8 1035.5 L 1650.8 1051.2 L 1675.6 1114.4 L 1655.4 1146.2 L 1620.9 1138.5 L 1607.1 1190.7 L 1571.4 1159.7 L 1548.4 1101.8 L 1574.9 1073.2 L 1547.7 1065.8 L 1527.7 1030.4 L 1474.3 1000.6 L 1427.4 1007.4 L 1405.6 1044.7 L 1362.3 1071.7 L 1338.9 1075.4 L 1328.4 1097.7 L 1379.5 1156 L 1350.3 1169.7 L 1334.8 1185.5 L 1284.9 1191 L 1266.3 1127 L 1252.4 1145.2 L 1217 1138.9 L 1195.3 1095.7 L 1151.4 1088.6 L 1123.5 1076.1 L 1077.5 1076.2 L 1074.2 1099.5 L 1061.9 1083.3 L 1067.5 1062 L 1076.5 1040.3 L 1072.3 1020.9 L 1088.3 1008.2 L 1066 992.2 L 1065.4 949.1 L 1106.9 939.5 L 1145.4 977.9 L 1143.2 1000.7 L 1186 1005.5 L 1196.1 996.8 L 1225.6 1023.1 L 1278.4 1015.4 L 1324 988.3 L 1389.1 966.6 L 1425.7 934.6 L 1484.9 940.9 L 1480.9 951.4 L 1540.7 955.1 L 1588.4 973.6 L 1623.4 1005.9 L 1663.8 1035.5 Z" />
<path class="neighbor" d="M 1106.9 939.5 L 1065.4 949.1 L 1066 992.2 L 1088.3 1008.2 L 1072.3 1020.9 L 1076.5 1040.3 L 1067.5 1062 L 1061.9 1083.3 L 1003.7 1059.5 L 981.9 1037 L 994.3 1018.4 L 990.4 994.7 L 960.6 969 L 918.4 947.9 L 881.5 934.2 L 874.5 902.8 L 846.3 883.6 L 853.2 914.8 L 831.8 940.4 L 807.3 910.7 L 772.9 900.1 L 758.2 878.5 L 758.8 845.8 L 773 812.1 L 742.7 796.9 L 767.3 776.2 L 783.5 762.4 L 854.1 790.8 L 878.8 776.8 L 912.8 785.8 L 930.6 807.9 L 962.2 815 L 987.9 792.3 L 1015.1 850.5 L 1056.5 893.7 L 1106.9 939.5 Z" />
<path class="neighbor" d="M 1042.4 357.2 L 1005.7 355 L 990.8 369.6 L 953.6 383.6 L 926.5 383.7 L 902.8 397.3 L 881.3 392.5 L 863 376.1 L 851.8 379.2 L 838.1 404.8 L 827.8 403.9 L 826 426 L 788.6 455.5 L 768.8 468.3 L 757.8 481.6 L 726.2 459.9 L 703 488.5 L 680.7 487.7 L 655.5 490.3 L 657.8 543 L 642.1 544 L 628.6 568.5 L 595.3 572.9 L 576.8 539.3 L 544.2 530 L 551.7 487 L 537.1 475.4 L 515 467.8 L 468 480.6 L 464 466.1 L 431.6 448.9 L 408.5 427.5 L 376.9 418.5 L 399.2 391.3 L 390.6 370.2 L 398.2 349.6 L 449 319.6 L 497.9 278.7 L 509 282.9 L 532.5 264 L 563.2 262.5 L 573.2 271.2 L 589.8 265.9 L 639.6 275.6 L 689.2 272.8 L 723.7 260.9 L 736.3 248.9 L 770.5 254.5 L 796.1 261.8 L 824.2 259.2 L 845.5 249.9 L 894.5 264.8 L 911.5 267.2 L 944.2 287.2 L 975.2 311.3 L 1014.2 327.7 L 1042.4 357.2 Z" />
<path class="neighbor" d="M 376.9 418.5 L 408.5 427.5 L 431.6 448.9 L 464 466.1 L 468 480.6 L 515 467.8 L 537.1 475.4 L 551.7 487 L 544.2 530 L 532.3 555.2 L 470.2 553.6 L 431.6 543.4 L 387.2 522.1 L 327.7 515.4 L 297.3 492.4 L 300.6 476.6 L 337.4 449.6 L 357.5 437.7 L 351.8 425.1 L 376.9 418.5 Z" />
<path class="neighbor" d="M 68.6 406.2 L 71.3 375 L 83.7 349.8 L 68.5 329.8 L 120.1 242.4 L 257.7 242 L 260.5 205.5 L 243.1 199 L 231.2 175.8 L 191.5 151 L 151.6 115.2 L 200.1 115 L 200.1 54.6 L 300.3 54.4 L 399.4 55.6 L 398.6 140.6 L 390.2 261.6 L 422.2 261.6 L 457.2 281 L 466.4 265 L 497.9 278.7 L 449 319.6 L 398.2 349.6 L 390.6 370.2 L 399.2 391.3 L 376.9 418.5 L 351.8 425.1 L 357.5 437.7 L 337.4 449.6 L 300.6 476.6 L 297.3 492.4 L 242.3 473.7 L 175.4 471.7 L 126.3 450.4 L 68.6 406.2 Z" />
<path class="neighbor" d="M 399.4 55.6 L 398.6 39.8 L 411.6 34.9 L 431 47.5 L 469.5 -17.2 L 489.8 -18.6 L 490.2 -2.9 L 510.6 -2.4 L 508.8 26.8 L 491.4 73.2 L 500.8 89.8 L 489.6 128.1 L 496.3 138.4 L 483.9 192.6 L 462.8 221 L 443.5 224.4 L 422.2 261.6 L 390.2 261.6 L 398.6 140.6 L 399.4 55.6 Z" />

<path class="country" d="M 987.9 792.3 L 962.2 815 L 930.6 807.9 L 912.8 785.8 L 878.8 776.8 L 854.1 790.8 L 783.5 762.4 L 767.3 776.2 L 730.2 742.4 L 680.1 699.2 L 656.5 663 L 611.3 629.3 L 557.6 580.9 L 569.5 564.3 L 587.2 580.4 L 595.3 572.9 L 628.6 568.5 L 642.1 544 L 657.8 543 L 655.5 490.3 L 680.7 487.7 L 703 488.5 L 726.2 459.9 L 757.8 481.6 L 768.8 468.3 L 788.6 455.5 L 826 426 L 827.8 403.9 L 838.1 404.8 L 851.8 379.2 L 863 376.1 L 881.3 392.5 L 902.8 397.3 L 926.5 383.7 L 953.6 383.6 L 990.8 369.6 L 1005.7 355 L 1042.4 357.2 L 1033.2 367.5 L 1027.7 391.4 L 1038.7 430.7 L 1014 467.2 L 1002.5 510.3 L 999 557.6 L 1004.8 585.2 L 1007.5 633.5 L 991.1 644.1 L 981 689.9 L 988.4 718.2 L 966.5 745.7 L 971.5 774.7 L 987.9 792.3 Z" />


<g class="city"><circle cx="391.65856146787064" cy="495.8052588830025" r="5" /><text x="403.65856146787064" y="499.8052588830025">San Salvador</text></g>
<g class="city"><circle cx="942.5270036004817" cy="900.4135516437156" r="5" /><text x="954.5270036004817" y="904.4135516437156">San José</text></g>
<g class="city"><circle cx="605.7212430188835" cy="452.8328485756141" r="5" /><text x="617.7212430188835" y="456.8328485756141">Tegucigalpa</text></g>
<g class="city"><circle cx="707.4964633979179" cy="661.847509737895" r="5" /><text x="719.4964633979179" y="665.847509737895">Managua</text></g>
<g class="city"><circle cx="1054.644059767411" cy="892.9442573695138" r="5" /><text x="1066.644059767411" y="896.9442573695138">Limón</text></g>
<text class="map-title" x="80" y="105">Nicaragua Political Study Map</text>
<text class="map-subtitle" x="80" y="145">Capital: Managua | Continent: North America</text>
  <text class="footer" x="80" y="1036">Made with Natural Earth. Free vector and raster map data @ naturalearthdata.com.</text>
</svg>
