<?xml version="1.0" encoding="UTF-8"?>
<svg xmlns="http://www.w3.org/2000/svg" width="1600" height="1100" viewBox="0 0 1600 1100" role="img" aria-labelledby="title desc">
  <title id="title">Netherlands Political Study Map</title>
  <desc id="desc">Made with Natural Earth. Free vector and raster map data @ naturalearthdata.com.</desc>
  <defs>
    <linearGradient id="terrain" x1="0" x2="1" y1="0" y2="1">
      <stop offset="0%" stop-color="#6c8c53" />
      <stop offset="42%" stop-color="#d5c487" />
      <stop offset="72%" stop-color="#b88b5f" />
      <stop offset="100%" stop-color="#f1f5ee" />
    </linearGradient>
    <filter id="softShadow" x="-10%" y="-10%" width="120%" height="120%">
      <feDropShadow dx="0" dy="10" stdDeviation="12" flood-color="#0f172a" flood-opacity="0.16" />
    </filter>
    <style>
      .neighbor { fill: #ffffff; stroke: #94a3b8; stroke-width: 1.2; opacity: 0.72; }
      .country { fill: #f7f1df; stroke: #1f2937; stroke-width: 4; filter: url(#softShadow); }
      .admin1 { fill: none; stroke: #64748b; stroke-width: 1.1; stroke-dasharray: 6 7; opacity: 0.75; }
      .river { fill: none; stroke: #1d9bd1; stroke-width: 3; stroke-linecap: round; opacity: 0.88; }
      .lake { fill: #8ed1ea; stroke: #0ea5e9; stroke-width: 1.5; opacity: 0.8; }
      .city circle { fill: #ef4444; stroke: #ffffff; stroke-width: 2; }
      .city text, .terrain-label { fill: #172033; font: 700 24px system-ui, sans-serif; paint-order: stroke; stroke: #ffffff; stroke-width: 5; stroke-linejoin: round; }
      .map-title { fill: #0f172a; font: 800 46px system-ui, sans-serif; }
      .map-subtitle { fill: #475569; font: 600 24px system-ui, sans-serif; }
      .footer { fill: #64748b; font: 500 18px system-ui, sans-serif; }
    </style>
  </defs>
  <rect width="100%" height="100%" fill="#eaf3f8" />
  <rect x="40" y="40" width="1520" height="1020" rx="32" fill="#ffffff" opacity="0.54" />
  <path class="neighbor" d="M 30290 -2634.1 L 30506.6 -2705 L 30506.6 -2588.8 L 30320.3 -2580.2 L 30290 -2634.1 Z M 8260.4 1563.5 L 8182.9 1664.3 L 8018.2 1692.3 L 7849.3 1867.8 L 8003.7 2029 L 7987 2143.5 L 8172.6 2343.7 L 8172.6 2343.7 L 8071.1 2412.2 L 8041.9 2455.4 L 7966.7 2443.8 L 7850 2340.6 L 7802.2 2334.9 L 7695.4 2295.5 L 7643.3 2225.7 L 7484.8 2190.2 L 7381.8 2216.9 L 7352 2185.3 L 7120.6 2103.8 L 6870.4 2076.3 L 6726.7 2047.2 L 6706 2067.3 L 6489.3 1923.7 L 6295.4 1859.6 L 6148.7 1759.8 L 6272.3 1732.6 L 6413.3 1590.5 L 6318.3 1523.2 L 6568.8 1453.8 L 6564.3 1416.7 L 6411.7 1444.1 L 6417.1 1368.6 L 6504.7 1321.1 L 6669.2 1308.7 L 6695.9 1252 L 6658.4 1158.3 L 6727.4 1069.3 L 6725.4 1019.4 L 6474.9 964.1 L 6375.6 965.9 L 6270.7 886.3 L 6140.3 913.3 L 5924.4 853.5 L 5928.1 820.1 L 5867.7 746.4 L 5732.2 738.1 L 5718.1 685.4 L 5760.5 651 L 5651.9 554.7 L 5475.7 571.2 L 5424.1 562.6 L 5381.2 601.3 L 5317.7 594.4 L 5317.7 594.4 L 5275.9 485.6 L 5236 429.2 L 5268.7 413.3 L 5405.8 419.2 L 5471.9 382 L 5423 336.7 L 5308.4 306.8 L 5318.6 276.1 L 5249.4 245.1 L 5142.9 133.8 L 5179.3 88 L 5162.7 8.2 L 4996.5 -32.3 L 4907.4 -12 L 4883.2 -54.2 L 4704.3 -96.9 L 4649.7 -197.2 L 4635.2 -279.6 L 4553.3 -318.7 L 4626.1 -372.6 L 4575.7 -531.1 L 4696.6 -629.1 L 4671 -658.7 L 4671.1 -658.7 L 4864.2 -752.7 L 4686.2 -833.5 L 4686.2 -833.5 L 5050 -1050.4 L 5207.9 -1148.6 L 5271.8 -1235.3 L 5020.3 -1351.7 L 5089.7 -1462.5 L 4936.7 -1588.9 L 5051.1 -1734.6 L 4853.5 -1928.1 L 5010.3 -2056.2 L 4750 -2169.5 L 4774.9 -2288.5 L 4912.1 -2304.1 L 5201.3 -2372.3 L 5201.3 -2372.3 L 5376.6 -2431.4 L 5655.8 -2328.7 L 6121.2 -2288.2 L 6763.3 -2096 L 6893.8 -2015.2 L 6905 -1902.1 L 6716.3 -1812.8 L 6438.8 -1767.5 L 5680.1 -1896.7 L 5555.4 -1875.1 L 5832.4 -1750.6 L 5843.3 -1671.8 L 5854.4 -1498.1 L 6073.2 -1446.3 L 6206 -1402.2 L 6227.9 -1484.6 L 6125.6 -1557.6 L 6233.7 -1622 L 6644.6 -1516.2 L 6787.7 -1557.6 L 6673.3 -1682.1 L 7069.4 -1848.5 L 7226.2 -1838.7 L 7384.9 -1779.3 L 7483.9 -1896.1 L 7342.2 -1997.5 L 7425.4 -2099.1 L 7300.5 -2204.5 L 7775.8 -2150 L 7872.9 -2054.8 L 7657.8 -2033.8 L 7658.9 -1939.3 L 7792.7 -1881.1 L 8055.3 -1917.9 L 8096.8 -2026.3 L 8451.8 -2107.3 L 9044.9 -2253.2 L 9173.1 -2244.8 L 9005.6 -2141.7 L 9216.4 -2124 L 9338.1 -2182.1 L 9656.7 -2186.7 L 9909.1 -2257.2 L 10102.7 -2154.8 L 10295.8 -2267.4 L 10117.7 -2365.8 L 10206.1 -2421.9 L 10708.2 -2370.5 L 10943.4 -2317.4 L 11559.3 -2123.2 L 11672.9 -2212.1 L 11500.2 -2302 L 11495.2 -2338 L 11290.4 -2354.7 L 11346.4 -2435.3 L 11255.5 -2567.9 L 11250.4 -2622.3 L 11564 -2776.2 L 11675.6 -2930.6 L 11802 -2964.1 L 12251.9 -2919.2 L 12287.3 -2824.7 L 12126.2 -2686.9 L 12231.9 -2632.7 L 12286.6 -2513.9 L 12248 -2281 L 12435.5 -2176.8 L 12362.6 -2063.4 L 12029.7 -1822 L 12223.9 -1796.9 L 12291.5 -1858.1 L 12478.5 -1901.8 L 12523.6 -1985.9 L 12670.7 -2066.8 L 12571.7 -2163.4 L 12651 -2275.6 L 12465.2 -2289.6 L 12424.3 -2384.1 L 12559.9 -2554.8 L 12339.2 -2693.3 L 12643.3 -2807.9 L 12604 -2928.7 L 12688.8 -2932.6 L 12778.1 -2838.4 L 12711 -2674.4 L 12892.9 -2643.3 L 12815.4 -2765.9 L 13099.8 -2832.7 L 13452.5 -2841.7 L 13766.6 -2744.8 L 13615.4 -2886.4 L 13598.5 -3067.4 L 13894 -3101.7 L 14302.8 -3094.2 L 14671.1 -3116.5 L 14533 -3205.3 L 14729.6 -3316.9 L 14924.9 -3321.6 L 15255.3 -3405.9 L 15704.1 -3428.6 L 15760.8 -3475.1 L 16207 -3490.9 L 16346.1 -3452.7 L 16727.5 -3543.1 L 17039.7 -3540.2 L 17086.6 -3613.6 L 17249 -3685.9 L 17650.2 -3755.7 L 17941.7 -3700.6 L 17710.3 -3658.7 L 18095.2 -3632.7 L 18141.1 -3548.7 L 18296.4 -3590 L 18793.2 -3587.8 L 19176.3 -3504.9 L 19312.7 -3441.2 L 19270.5 -3352.9 L 19082.5 -3302.6 L 18635.8 -3208.2 L 18508.2 -3157.8 L 18718.9 -3134 L 18970.3 -3091.1 L 19123.3 -3123.3 L 19210 -3014.2 L 19284.6 -3058.4 L 19556.4 -3085.2 L 20101.7 -3057.1 L 20143.1 -2977.6 L 20853.6 -2952.4 L 20863.3 -3082.2 L 21224 -3052.4 L 21495.3 -3053.4 L 21769.7 -2963.8 L 21847.9 -2855.1 L 21747.4 -2783.9 L 21960.9 -2650.2 L 22228.1 -2581.2 L 22392.1 -2759.5 L 22664.7 -2683 L 22954.4 -2728.7 L 23283.3 -2676.4 L 23408.5 -2724.1 L 23686.5 -2700.3 L 23563.8 -2858 L 23788.2 -2931.7 L 25323.2 -2821.3 L 25467.8 -2720.4 L 25912.7 -2590.5 L 26598.9 -2622.7 L 26937.3 -2594.7 L 27078.8 -2524.4 L 27058.1 -2400.2 L 27267.5 -2351.8 L 27495 -2386.6 L 27796.3 -2391 L 28117.2 -2357.7 L 28439.3 -2376.5 L 28735.3 -2225.4 L 28946 -2279.8 L 28808.5 -2388.4 L 28884.2 -2463.9 L 29426.4 -2416.4 L 29779.9 -2426.5 L 30268.7 -2345.4 L 30506.6 -2271.3 L 30506.6 -1594.2 L 30505.4 -1593.3 L 30286.9 -1518.6 L 30066.7 -1531.1 L 30219.9 -1440.6 L 30321.1 -1300.6 L 30399.6 -1254.8 L 30419.3 -1184.5 L 30375.5 -1139.5 L 30058.7 -1176.5 L 29583.7 -1048.6 L 29432.6 -1028.8 L 29172.5 -909.4 L 28925.8 -805 L 28863.4 -727.8 L 28620.3 -845.4 L 28177.5 -712 L 28100.1 -775.1 L 27936.4 -702.3 L 27709.1 -725.6 L 27654.4 -613.8 L 27450.5 -449.4 L 27456.5 -380.7 L 27650.1 -342.6 L 27627.3 -95.2 L 27469.6 -88.9 L 27396.8 53.3 L 27467.5 126.5 L 27170.3 213.3 L 27111.3 407.3 L 26858 448.8 L 26807 621.4 L 26562.1 779.8 L 26499.2 662.7 L 26426.4 414.7 L 26331.6 37.1 L 26413.3 -198.6 L 26556.7 -300 L 26565.5 -379.5 L 26829.6 -417.5 L 27133.2 -631.5 L 27425.8 -806.2 L 27731.3 -941.8 L 27867.9 -1181.4 L 27661.4 -1167 L 27559.3 -1027 L 27128.3 -840.4 L 26989.1 -1049.4 L 26550.3 -991.7 L 26125 -706.8 L 26265.3 -602.6 L 25886 -558.2 L 25623.2 -540.7 L 25635.5 -663.6 L 25371.4 -689.4 L 25160.8 -605.9 L 24641.2 -635.1 L 24082.2 -584.8 L 23531.6 -253 L 22880.3 147.8 L 23148.1 169.2 L 23231.7 275.6 L 23396.7 313.4 L 23505.5 228.5 L 23691.9 239.6 L 23937.3 426.5 L 23943 571.1 L 23810.2 740.9 L 23795.8 943.9 L 23719.2 1215.6 L 23463 1461.5 L 23406.1 1579.1 L 23175.4 1777 L 22946.5 1973.2 L 22836.7 2073.6 L 22610.2 2173.3 L 22503.1 2175.5 L 22396.3 2092.9 L 22168.2 2217.3 L 22141.7 2273.8 L 22141.7 2273.8 L 22141.7 2273.8 L 22141.7 2273.8 L 22117.9 2244.1 L 22117.9 2244.1 L 22116.9 2157.7 L 22203.7 2153.1 L 22228.1 1952.3 L 22183.4 1806.8 L 22329.2 1746.8 L 22535.5 1776.9 L 22649.8 1611.5 L 22708 1425.3 L 22774 1363.1 L 22863.4 1210.2 L 22582.5 1260.3 L 22435.1 1327.4 L 22176.9 1327.2 L 22108.1 1167.5 L 21906.8 1046.7 L 21611 992.3 L 21548.1 825.9 L 21488.9 721.5 L 21425.3 648.4 L 21320.2 477 L 21171 414.4 L 20916.6 363.8 L 20691.3 368.4 L 20480.1 399 L 20339.7 483.6 L 20433 524 L 20435.1 617.8 L 20340.6 672.3 L 20187.2 852.5 L 20188.7 927.3 L 19949.2 1034.7 L 19745.2 970.5 L 19542.4 984.7 L 19453.4 927.8 L 19351.5 909.4 L 19102.6 1029.2 L 18878.9 1057.3 L 18722.6 1099.4 L 18508.6 1071.8 L 18351 1073.5 L 18247.8 986.7 L 18081.4 905 L 17911.1 882.6 L 17696.1 904.8 L 17535.5 936.3 L 17294 864.8 L 17261.6 737.5 L 17061.8 693.8 L 16907.5 673.9 L 16717.2 603.6 L 16541.1 779.8 L 16610.1 879.8 L 16444.9 998.1 L 16199.2 955.4 L 16029.6 949.3 L 15916 869.9 L 15738.7 867.4 L 15590.9 815.3 L 15332.4 895.2 L 15008.2 1041.6 L 14829 1071 L 14762.5 1085 L 14672.3 981 L 14453.4 1003.8 L 14381 931.7 L 14262.2 898.7 L 14180.4 800.5 L 14086.6 769.9 L 13842.4 813.6 L 13608.3 715.6 L 13517.7 804.6 L 13137.9 373 L 12921.1 241.7 L 12983.3 188.4 L 12557.3 348.8 L 12394.3 358.5 L 12408.4 265.7 L 12190.1 207.8 L 12012.7 249.1 L 11959.2 73 L 11653.8 36.4 L 11501 106.9 L 11075.7 169.6 L 10992.7 211.6 L 10356.8 270.7 L 10278.9 328.7 L 10401.6 445.1 L 10238.4 489.3 L 10270.2 535.6 L 10107.1 618.4 L 10382.5 735.3 L 10339.9 815.8 L 10101.2 808.5 L 10051.9 858.9 L 9834.5 770.8 L 9565.1 774.2 L 9384.7 845.9 L 9183.5 777.2 L 8808.9 659.5 L 8543.4 663.9 L 8192.6 848.8 L 8171.5 972.9 L 7996.7 874.3 L 7861.1 1061 L 7910.7 1095.7 L 7812.6 1224.5 L 7956.9 1339.8 L 8083 1335 L 8191.3 1448.6 L 8174.1 1536 L 8260.4 1563.5 Z M 15853.2 -4321 L 16220.8 -4359.4 L 16551 -4273.8 L 16942.4 -4109.5 L 16900.4 -3956.7 L 16529.6 -3935.5 L 16056.2 -3984.6 L 15774.2 -4049.4 L 15643.7 -4171.3 L 15411.9 -4204.9 L 15853.2 -4321 Z M 17392.9 -4024.8 L 17823.7 -3928.2 L 17773.2 -3859.2 L 16815.2 -3793.6 L 17125.6 -4016.7 L 17265.2 -4035.8 L 17392.9 -4024.8 Z M 23510 -3490.3 L 23958.7 -3482.9 L 24573 -3392.8 L 24439.4 -3266.6 L 23812.9 -3271.3 L 23531.1 -3231.1 L 23194.4 -3341.6 L 23285.8 -3458.5 L 23510 -3490.3 Z M 25106 -3355.9 L 25532.5 -3311.4 L 25336.1 -3244.3 L 25064.4 -3259.5 L 24748.6 -3326.6 L 24789.3 -3381.6 L 25106 -3355.9 Z M 23685.4 -3020.1 L 23846.6 -3087.3 L 24059.1 -3103 L 24300.5 -3038 L 24321.1 -2993.4 L 24063.4 -2992.2 L 23715.1 -3011.1 L 23685.4 -3020.1 Z M 7537.4 -4247.1 L 7869.2 -4278.1 L 8127.4 -4280.1 L 8162.1 -4234.4 L 8259.7 -4275 L 8419.9 -4303.1 L 8672 -4265.8 L 8606.2 -4239.9 L 8378.1 -4217.5 L 8225.3 -4204.6 L 8201.6 -4176.7 L 8002.9 -4148.6 L 7818.8 -4188.9 L 7915.6 -4242 L 7537.4 -4247.1 Z M 3778.8 216.1 L 3466.3 218.7 L 3257 199.4 L 3295.7 124.6 L 3530.2 69.5 L 3708.2 99.2 L 3783.3 126.2 L 3765.2 172.8 L 3778.8 216.1 Z M 9009.4 -3084.7 L 9416.3 -3233.8 L 9370.3 -3311 L 9750.4 -3400.7 L 10311.5 -3509.9 L 10877.1 -3541.7 L 11168.2 -3604.7 L 11498.9 -3626.8 L 11617.1 -3559.7 L 11502.9 -3506.8 L 10900.8 -3422.5 L 10381.8 -3341.5 L 9853.8 -3179.7 L 9600.6 -3013.9 L 9334.2 -2850.4 L 9368.8 -2709.2 L 9693.8 -2569.8 L 9593.5 -2554.9 L 9038.1 -2577 L 8993 -2652.5 L 8685.4 -2698 L 8660.6 -2789.8 L 8834.3 -2826.3 L 8828.5 -2919 L 9165.6 -3063.9 L 9009.4 -3084.7 Z M 24204 322 L 24262.8 485.8 L 24258.5 653 L 24328.6 824.5 L 24499.6 1125.6 L 24248 1069.4 L 24143.5 1315 L 24309.1 1489.2 L 24304.4 1608 L 24175.6 1505.5 L 24064.2 1637 L 24032.7 1494.4 L 24051.7 1328.9 L 24032.3 1145.5 L 24071.6 1017 L 24079.1 789.7 L 23979.5 622.7 L 23994.6 390.4 L 24151.7 312.2 L 24084.2 233.5 L 24159.8 209.6 L 24204 322 Z M -29813.4 -1972.5 L -29828 -1866.9 L -29713.4 -1824.6 L -29752.8 -1948.1 L -29291.4 -1922.8 L -28958.7 -1763.7 L -29127.2 -1689.7 L -29405.8 -1672.1 L -29410 -1506 L -29478.1 -1470.6 L -29637.2 -1475.7 L -29766.7 -1535 L -29992.7 -1584.5 L -30030.7 -1658.3 L -30203.3 -1686.1 L -30396.6 -1664 L -30488.9 -1723.5 L -30452 -1786.7 L -30655.5 -1746.3 L -30578.9 -1666.3 L -30675.3 -1594.2 L -30675.3 -2271.3 L -30258.9 -2141.5 L -29813.4 -1972.5 Z M -30453.3 -2599.2 L -30675.3 -2588.8 L -30675.3 -2705 L -30653.5 -2712.1 L -30509.5 -2711.8 L -30263.7 -2663.2 L -30278.2 -2639.9 L -30453.3 -2599.2 Z M 5598.1 1636.2 L 5642.9 1594.1 L 5763.7 1630.5 L 5818.4 1637.2 L 5840.4 1670.8 L 5866.1 1676 L 5867.4 1690.7 L 5950.6 1731.7 L 6123.9 1721.5 L 6090.7 1782.1 L 5904.7 1811.5 L 5674 1909.9 L 5579.5 1875.3 L 5617 1795.4 L 5431.2 1745.7 L 5461.3 1713.1 L 5624 1656.6 L 5598.1 1636.2 Z" />
<path class="neighbor" d="M -8863.6 8742.7 L -8964.1 8898.3 L -9016.3 9023.4 L -9081.4 9088 L -9162.8 9100.1 L -9186 9052.3 L -9224 9045.2 L -9276.6 9091.2 L -9350.8 9056.2 L -9307.5 8984.7 L -9292.5 8907 L -9262.8 8833.9 L -9329.5 8733.1 L -9343 8616.9 L -9254.5 8470.8 L -9196.8 8489.5 L -9071.6 8529.7 L -8891.7 8673.1 L -8863.6 8742.7 Z M 967 1042.7 L 1047.2 1087.2 L 1292.1 1118.5 L 1206.2 1234.9 L 1184.6 1356 L 1138 1385 L 1060.5 1369.4 L 1066 1412.5 L 941.7 1508 L 939.2 1585 L 1020.4 1558.4 L 1078.7 1632.9 L 1071.7 1680.9 L 1121.7 1744.7 L 1062.8 1796.5 L 1106.6 1928 L 1198.7 1949.6 L 1179.3 2023.3 L 1025.3 2119.3 L 690.1 2073.3 L 442.6 2128.5 L 423.1 2230.8 L 226.1 2252.8 L 34.9 2176 L -26.9 2212.7 L -339.7 2135.5 L -407.5 2069.4 L -319.6 1967.4 L -287.2 1628.9 L -462.6 1450.5 L -587.9 1364.5 L -847.7 1299.1 L -864.8 1175.2 L -644.5 1138.2 L -359.1 1182 L -412.9 989.6 L -252.5 1062.5 L 143.2 930 L 194.2 790.7 L 342.8 756.4 L 367.5 816.2 L 446.5 819 L 525.5 887.2 L 644.1 967.3 L 731.3 954.1 L 880 1031.6 L 918 1046.3 L 967 1042.7 Z M 1402 2204.4 L 1511.5 2139.5 L 1540.4 2285.3 L 1484.3 2416.6 L 1407.1 2382 L 1367.8 2267.6 L 1402 2204.4 Z" />
<path class="neighbor" d="M 2315.3 313.1 L 2355 399.6 L 2307.6 444.9 L 2369.3 505.5 L 2411.4 596.4 L 2398.1 655 L 2467.8 763.5 L 2392 781.2 L 2347.1 761.7 L 2304.5 794.1 L 2182.5 827 L 2119.4 869.3 L 1995.9 906.3 L 2025.6 956.8 L 2043.6 1028.5 L 2130.3 1069.4 L 2226.3 1142.4 L 2166.4 1220.8 L 2105.3 1242.4 L 2129.4 1353.1 L 2113.6 1382 L 2060.6 1347.2 L 1979.1 1342 L 1857.6 1372.4 L 1707.7 1365.2 L 1683.5 1410 L 1597.5 1362.8 L 1546.2 1372.2 L 1364.1 1320.2 L 1329.2 1357.2 L 1184.6 1356 L 1206.2 1234.9 L 1292.1 1118.5 L 1047.2 1087.2 L 967 1042.7 L 976.6 968.2 L 942.7 929.8 L 962 815 L 933.4 636.9 L 1035.5 636.8 L 1078.6 572.9 L 1121 417.3 L 1089.2 359.8 L 1122.4 323.8 L 1264.4 314.6 L 1295.9 352 L 1411.3 268.3 L 1372.5 204.6 L 1364.7 108.2 L 1493.1 130.6 L 1601.9 104.7 L 1604.9 170.4 L 1776.6 210 L 1774.8 270.3 L 1947.6 238.4 L 2043.2 191.9 L 2235 259 L 2315.3 313.1 Z" />
<path class="neighbor" d="M 942.7 929.8 L 976.6 968.2 L 967 1042.7 L 918 1046.3 L 880 1031.6 L 898.4 936.2 L 942.7 929.8 Z" />
<path class="neighbor" d="M 962 815 L 942.7 929.8 L 898.4 936.2 L 880 1031.6 L 731.3 954.1 L 644.1 967.3 L 525.5 887.2 L 446.5 819 L 367.5 816.2 L 342.8 756.4 L 479 722.9 L 479 722.9 L 479 722.9 L 603.5 736.2 L 761 700.9 L 868.6 775.3 L 962 815 Z" />
<path class="neighbor" d="M 1601.9 104.7 L 1493.1 130.6 L 1364.7 108.2 L 1295.7 13.9 L 1290.6 -159.9 L 1318.9 -205.8 L 1367.6 -256.8 L 1517.4 -267.3 L 1577 -314.2 L 1713.7 -362.1 L 1708 -274.7 L 1657.6 -219.4 L 1678 -171.8 L 1770.2 -146 L 1728.7 -81.9 L 1678 -100.4 L 1555.7 22 L 1601.9 104.7 Z M 2018.1 -87 L 2072.3 -1.8 L 1970.4 135.8 L 1792.5 39.8 L 1768.8 -30.7 L 2018.1 -87 Z" />
<path class="neighbor" d="M -1137.7 294.3 L -1266.1 259.3 L -1371.2 261.6 L -1336.2 170.5 L -1371.2 79.5 L -1228.8 72.5 L -1046.6 177.5 L -1137.7 294.3 Z M -610.1 373 L -609.8 373 L -584.8 274.3 L -698.7 169.7 L -701.3 167.3 L -907.6 137.4 L -948.1 91.4 L -886.3 15.4 L -942.2 -31.4 L -1033.7 49 L -1043.7 -114.8 L -1129.5 -201.5 L -1067.8 -377.2 L -935.8 -515.1 L -800.1 -501.6 L -595 -515.9 L -776.7 -332 L -603.5 -355.3 L -417.3 -354.4 L -461.6 -216 L -614.4 -63.7 L -438.7 -52.8 L -425.2 -34.9 L -273.8 165.6 L -157.5 192.9 L -52.9 386.5 L -4.5 453.6 L 201.4 486 L 180.8 594.7 L 94.2 644.5 L 162.1 732.5 L 9.2 821.5 L -218.2 819.9 L -507.5 866.6 L -586.8 833.2 L -699.1 912.8 L -856.3 893.5 L -975.7 958.4 L -1066.1 924.5 L -816.8 746 L -664.7 709.2 L -666 709.1 L -931.4 680.8 L -979.5 613.2 L -801.9 560.5 L -895 468.9 L -862.7 357.6 L -610.1 373 Z" />

<path class="country" d="M 1089.2 359.8 L 1121 417.3 L 1078.6 572.9 L 1035.5 636.8 L 933.4 636.9 L 962 815 L 868.6 775.3 L 761 700.9 L 603.5 736.2 L 479 722.9 L 479 722.9 L 566.6 676.2 L 715.4 426.1 L 948 355 L 1089.2 359.8 Z" />


<g class="city"><circle cx="1389.9811577422097" cy="934.6011352645035" r="5" /><text x="1401.9811577422097" y="938.6011352645035">Frankfurt</text></g>
<g class="city"><circle cx="651.7798322817384" cy="809.639444160784" r="5" /><text x="663.7798322817384" y="813.639444160784">Brussels</text></g>
<g class="city"><circle cx="641.3432165285765" cy="598.0903815076908" r="5" /><text x="653.3432165285765" y="602.0903815076908">The Hague</text></g>
<g class="city"><circle cx="438.780248289234" cy="840.799395717708" r="5" /><text x="450.780248289234" y="844.799395717708">Lille</text></g>
<g class="city"><circle cx="750.9154455528947" cy="551.8849462182843" r="5" /><text x="762.9154455528947" y="555.8849462182843">Amsterdam</text></g>
<g class="city"><circle cx="306.5494653601718" cy="968.5231105833632" r="5" /><text x="318.5494653601718" y="972.5231105833632">Amiens</text></g>
<g class="city"><circle cx="957.4569380518288" cy="1017.5905001030774" r="5" /><text x="969.4569380518288" y="1021.5905001030774">Luxembourg</text></g>
<text class="map-title" x="80" y="105">Netherlands Political Study Map</text>
<text class="map-subtitle" x="80" y="145">Capital: Amsterdam | Continent: Europe</text>
  <text class="footer" x="80" y="1036">Made with Natural Earth. Free vector and raster map data @ naturalearthdata.com.</text>
</svg>
