<?xml version="1.0" encoding="UTF-8"?>
<svg xmlns="http://www.w3.org/2000/svg" width="1600" height="1100" viewBox="0 0 1600 1100" role="img" aria-labelledby="title desc">
  <title id="title">Norway Physical Study Map</title>
  <desc id="desc">Made with Natural Earth. Free vector and raster map data @ naturalearthdata.com.</desc>
  <defs>
    <linearGradient id="terrain" x1="0" x2="1" y1="0" y2="1">
      <stop offset="0%" stop-color="#6c8c53" />
      <stop offset="42%" stop-color="#d5c487" />
      <stop offset="72%" stop-color="#b88b5f" />
      <stop offset="100%" stop-color="#f1f5ee" />
    </linearGradient>
    <filter id="softShadow" x="-10%" y="-10%" width="120%" height="120%">
      <feDropShadow dx="0" dy="10" stdDeviation="12" flood-color="#0f172a" flood-opacity="0.16" />
    </filter>
    <style>
      .neighbor { fill: #ffffff; stroke: #94a3b8; stroke-width: 1.2; opacity: 0.72; }
      .country { fill: url(#terrain); stroke: #1f2937; stroke-width: 4; filter: url(#softShadow); }
      .admin1 { fill: none; stroke: #64748b; stroke-width: 1.1; stroke-dasharray: 6 7; opacity: 0.75; }
      .river { fill: none; stroke: #1d9bd1; stroke-width: 3; stroke-linecap: round; opacity: 0.88; }
      .lake { fill: #8ed1ea; stroke: #0ea5e9; stroke-width: 1.5; opacity: 0.8; }
      .city circle { fill: #ef4444; stroke: #ffffff; stroke-width: 2; }
      .city text, .terrain-label { fill: #172033; font: 700 24px system-ui, sans-serif; paint-order: stroke; stroke: #ffffff; stroke-width: 5; stroke-linejoin: round; }
      .map-title { fill: #0f172a; font: 800 46px system-ui, sans-serif; }
      .map-subtitle { fill: #475569; font: 600 24px system-ui, sans-serif; }
      .footer { fill: #64748b; font: 500 18px system-ui, sans-serif; }
    </style>
  </defs>
  <rect width="100%" height="100%" fill="#d8edf0" />
  <rect x="40" y="40" width="1520" height="1020" rx="32" fill="#ffffff" opacity="0.54" />
  <path class="neighbor" d="M 4071.6 549.7 L 4097.6 541.2 L 4097.6 555.2 L 4075.3 556.2 L 4071.6 549.7 Z M 1430.7 1053 L 1421.4 1065 L 1401.7 1068.4 L 1381.4 1089.4 L 1400 1108.8 L 1398 1122.5 L 1420.2 1146.5 L 1420.2 1146.5 L 1408 1154.7 L 1404.5 1159.9 L 1395.5 1158.5 L 1381.5 1146.1 L 1375.8 1145.4 L 1363 1140.7 L 1356.8 1132.3 L 1337.8 1128.1 L 1325.4 1131.3 L 1321.8 1127.5 L 1294.1 1117.7 L 1264.1 1114.4 L 1246.9 1110.9 L 1244.4 1113.3 L 1218.4 1096.1 L 1195.2 1088.4 L 1177.6 1076.5 L 1192.4 1073.2 L 1209.3 1056.2 L 1197.9 1048.1 L 1227.9 1039.8 L 1227.4 1035.4 L 1209.1 1038.6 L 1209.8 1029.6 L 1220.3 1023.9 L 1240 1022.4 L 1243.2 1015.6 L 1238.7 1004.4 L 1247 993.7 L 1246.7 987.7 L 1216.7 981.1 L 1204.8 981.3 L 1192.2 971.8 L 1176.6 975 L 1150.7 967.8 L 1151.1 963.8 L 1143.9 955 L 1127.6 954 L 1126 947.7 L 1131 943.6 L 1118 932 L 1096.9 934 L 1090.7 933 L 1085.6 937.6 L 1078 936.8 L 1078 936.8 L 1073 923.7 L 1068.2 917 L 1072.1 915.1 L 1088.5 915.8 L 1096.5 911.3 L 1090.6 905.9 L 1076.8 902.3 L 1078.1 898.6 L 1069.8 894.9 L 1057 881.6 L 1061.4 876.1 L 1059.4 866.5 L 1039.5 861.6 L 1028.8 864.1 L 1025.9 859 L 1004.4 853.9 L 997.9 841.9 L 996.1 832 L 986.3 827.3 L 995.1 820.8 L 989 801.8 L 1003.5 790.1 L 1000.4 786.5 L 1000.4 786.5 L 1023.6 775.3 L 1002.3 765.6 L 1002.3 765.6 L 1045.9 739.6 L 1064.8 727.8 L 1072.5 717.4 L 1042.3 703.5 L 1050.6 690.2 L 1032.3 675 L 1046 657.6 L 1022.3 634.4 L 1041.1 619 L 1009.9 605.4 L 1012.9 591.2 L 1029.3 589.3 L 1064 581.1 L 1064 581.1 L 1085 574 L 1118.5 586.4 L 1174.3 591.2 L 1251.3 614.2 L 1266.9 623.9 L 1268.3 637.5 L 1245.6 648.2 L 1212.4 653.6 L 1121.4 638.1 L 1106.5 640.7 L 1139.7 655.7 L 1141 665.1 L 1142.3 685.9 L 1168.5 692.1 L 1184.4 697.4 L 1187.1 687.5 L 1174.8 678.8 L 1187.8 671.1 L 1237 683.8 L 1254.2 678.8 L 1240.5 663.9 L 1288 643.9 L 1306.8 645.1 L 1325.8 652.2 L 1337.6 638.2 L 1320.7 626.1 L 1330.6 613.9 L 1315.7 601.2 L 1372.6 607.8 L 1384.3 619.2 L 1358.5 621.7 L 1358.6 633 L 1374.7 640 L 1406.1 635.6 L 1411.1 622.6 L 1453.7 612.9 L 1524.8 595.4 L 1540.2 596.4 L 1520.1 608.8 L 1545.3 610.9 L 1559.9 603.9 L 1598.1 603.4 L 1628.4 594.9 L 1651.6 607.2 L 1674.7 593.7 L 1653.4 581.9 L 1664 575.2 L 1724.2 581.3 L 1752.4 587.7 L 1826.2 611 L 1839.8 600.3 L 1819.1 589.6 L 1818.5 585.2 L 1794 583.2 L 1800.7 573.6 L 1789.8 557.7 L 1789.2 551.2 L 1826.8 532.7 L 1840.1 514.2 L 1855.3 510.2 L 1909.2 515.6 L 1913.5 526.9 L 1894.2 543.4 L 1906.8 549.9 L 1913.4 564.2 L 1908.8 592.1 L 1931.2 604.6 L 1922.5 618.2 L 1882.6 647.1 L 1905.9 650.1 L 1914 642.8 L 1936.4 637.5 L 1941.8 627.5 L 1959.4 617.8 L 1947.6 606.2 L 1957.1 592.7 L 1934.8 591 L 1929.9 579.7 L 1946.2 559.3 L 1919.7 542.6 L 1956.2 528.9 L 1951.4 514.4 L 1961.6 514 L 1972.3 525.3 L 1964.3 544.9 L 1986.1 548.6 L 1976.8 533.9 L 2010.9 525.9 L 2053.2 524.9 L 2090.8 536.5 L 2072.7 519.5 L 2070.7 497.8 L 2106.1 493.7 L 2155.1 494.6 L 2199.2 491.9 L 2182.7 481.3 L 2206.3 467.9 L 2229.7 467.3 L 2269.3 457.2 L 2323.1 454.5 L 2329.9 448.9 L 2383.4 447 L 2400 451.6 L 2445.8 440.8 L 2483.2 441.1 L 2488.8 432.3 L 2508.3 423.7 L 2556.4 415.3 L 2591.3 421.9 L 2563.6 426.9 L 2609.7 430 L 2615.2 440.1 L 2633.8 435.1 L 2693.4 435.4 L 2739.3 445.4 L 2755.7 453 L 2750.6 463.6 L 2728.1 469.6 L 2674.5 480.9 L 2659.2 487 L 2684.5 489.8 L 2714.6 495 L 2733 491.1 L 2743.4 504.2 L 2752.3 498.9 L 2784.9 495.7 L 2850.3 499 L 2855.2 508.6 L 2940.4 511.6 L 2941.6 496 L 2984.8 499.6 L 3017.3 499.5 L 3050.2 510.2 L 3059.6 523.3 L 3047.6 531.8 L 3073.1 547.8 L 3105.2 556.1 L 3124.8 534.7 L 3157.5 543.9 L 3192.2 538.4 L 3231.7 544.7 L 3246.7 539 L 3280 541.8 L 3265.3 522.9 L 3292.2 514.1 L 3476.2 527.3 L 3493.6 539.4 L 3546.9 555 L 3629.2 551.1 L 3669.7 554.5 L 3686.7 562.9 L 3684.2 577.8 L 3709.3 583.6 L 3736.6 579.4 L 3772.7 578.9 L 3811.2 582.9 L 3849.8 580.6 L 3885.3 598.7 L 3910.5 592.2 L 3894 579.2 L 3903.1 570.1 L 3968.1 575.8 L 4010.5 574.6 L 4069.1 584.3 L 4097.6 593.2 L 4097.6 674.4 L 4097.5 674.5 L 4071.3 683.5 L 4044.9 682 L 4063.2 692.8 L 4075.4 709.6 L 4084.8 715.1 L 4087.1 723.5 L 4081.9 728.9 L 4043.9 724.5 L 3987 739.8 L 3968.9 742.2 L 3937.7 756.5 L 3908.1 769 L 3900.6 778.3 L 3871.5 764.2 L 3818.4 780.2 L 3809.1 772.6 L 3789.5 781.3 L 3762.2 778.5 L 3755.7 791.9 L 3731.2 811.7 L 3732 819.9 L 3755.2 824.5 L 3752.4 854.1 L 3733.5 854.9 L 3724.8 871.9 L 3733.3 880.7 L 3697.7 891.1 L 3690.6 914.3 L 3660.2 919.3 L 3654.1 940 L 3624.7 959 L 3617.2 945 L 3608.5 915.2 L 3597.1 870 L 3606.9 841.7 L 3624.1 829.6 L 3625.2 820 L 3656.8 815.5 L 3693.2 789.8 L 3728.3 768.9 L 3764.9 752.6 L 3781.3 723.9 L 3756.5 725.6 L 3744.3 742.4 L 3692.6 764.8 L 3675.9 739.7 L 3623.3 746.6 L 3572.3 780.8 L 3589.2 793.3 L 3543.7 798.6 L 3512.2 800.7 L 3513.7 786 L 3482 782.9 L 3456.8 792.9 L 3394.5 789.4 L 3327.4 795.4 L 3261.4 835.2 L 3183.4 883.2 L 3215.5 885.8 L 3225.5 898.6 L 3245.3 903.1 L 3258.3 892.9 L 3280.7 894.2 L 3310.1 916.7 L 3310.8 934 L 3294.8 954.3 L 3293.1 978.7 L 3283.9 1011.2 L 3253.2 1040.7 L 3246.4 1054.8 L 3218.7 1078.5 L 3191.3 1102.1 L 3178.1 1114.1 L 3151 1126.1 L 3138.1 1126.3 L 3125.3 1116.4 L 3098 1131.3 L 3094.8 1138.1 L 3094.8 1138.1 L 3094.8 1138.1 L 3094.8 1138.1 L 3092 1134.5 L 3092 1134.5 L 3091.8 1124.2 L 3102.3 1123.6 L 3105.2 1099.6 L 3099.8 1082.1 L 3117.3 1074.9 L 3142 1078.5 L 3155.7 1058.7 L 3162.7 1036.4 L 3170.6 1028.9 L 3181.3 1010.6 L 3147.7 1016.6 L 3130 1024.6 L 3099 1024.6 L 3090.8 1005.5 L 3066.7 991 L 3031.2 984.5 L 3023.7 964.5 L 3016.6 952 L 3008.9 943.2 L 2996.3 922.7 L 2978.5 915.2 L 2948 909.1 L 2921 909.7 L 2895.6 913.4 L 2878.8 923.5 L 2890 928.3 L 2890.2 939.6 L 2878.9 946.1 L 2860.5 967.7 L 2860.7 976.7 L 2832 989.6 L 2807.5 981.9 L 2783.2 983.6 L 2772.6 976.7 L 2760.3 974.5 L 2730.5 988.9 L 2703.7 992.3 L 2684.9 997.3 L 2659.3 994 L 2640.4 994.2 L 2628 983.8 L 2608.1 974 L 2587.7 971.3 L 2561.9 974 L 2542.6 977.8 L 2513.7 969.2 L 2509.8 953.9 L 2485.8 948.7 L 2467.4 946.3 L 2444.5 937.9 L 2423.4 959 L 2431.7 971 L 2411.9 985.2 L 2382.4 980.1 L 2362.1 979.3 L 2348.5 969.8 L 2327.2 969.5 L 2309.5 963.3 L 2278.5 972.8 L 2239.7 990.4 L 2218.2 993.9 L 2210.2 995.6 L 2199.4 983.1 L 2173.1 985.9 L 2164.5 977.2 L 2150.2 973.3 L 2140.4 961.5 L 2129.2 957.8 L 2099.9 963 L 2071.8 951.3 L 2061 962 L 2015.5 910.2 L 1989.5 894.5 L 1996.9 888.1 L 1945.9 907.3 L 1926.3 908.5 L 1928 897.4 L 1901.8 890.4 L 1880.6 895.4 L 1874.1 874.3 L 1837.5 869.9 L 1819.2 878.3 L 1768.2 885.9 L 1758.3 890.9 L 1682.1 898 L 1672.7 904.9 L 1687.4 918.9 L 1667.9 924.2 L 1671.7 929.7 L 1652.1 939.7 L 1685.1 953.7 L 1680 963.3 L 1651.4 962.4 L 1645.5 968.5 L 1619.4 957.9 L 1587.1 958.3 L 1565.5 966.9 L 1541.4 958.7 L 1496.5 944.6 L 1464.7 945.1 L 1422.6 967.3 L 1420.1 982.1 L 1399.1 970.3 L 1382.9 992.7 L 1388.8 996.9 L 1377.1 1012.3 L 1394.3 1026.1 L 1409.5 1025.6 L 1422.5 1039.2 L 1420.4 1049.7 L 1430.7 1053 Z M 2341 347.5 L 2385 342.9 L 2424.6 353.2 L 2471.5 372.9 L 2466.5 391.2 L 2422 393.7 L 2365.3 387.9 L 2331.5 380.1 L 2315.8 365.5 L 2288.1 361.4 L 2341 347.5 Z M 2525.5 383 L 2577.2 394.6 L 2571.1 402.9 L 2456.3 410.7 L 2493.5 384 L 2510.2 381.7 L 2525.5 383 Z M 3258.9 447.1 L 3312.7 448 L 3386.3 458.8 L 3370.3 473.9 L 3295.2 473.4 L 3261.4 478.2 L 3221 464.9 L 3232 450.9 L 3258.9 447.1 Z M 3450.2 463.2 L 3501.3 468.5 L 3477.8 476.6 L 3445.2 474.8 L 3407.3 466.7 L 3412.2 460.1 L 3450.2 463.2 Z M 3279.9 503.5 L 3299.2 495.4 L 3324.7 493.5 L 3353.6 501.3 L 3356.1 506.7 L 3325.2 506.8 L 3283.4 504.5 L 3279.9 503.5 Z M 1344.1 356.4 L 1383.8 352.7 L 1414.8 352.4 L 1419 357.9 L 1430.7 353 L 1449.9 349.7 L 1480.1 354.1 L 1472.2 357.2 L 1444.8 359.9 L 1426.5 361.5 L 1423.7 364.8 L 1399.9 368.2 L 1377.8 363.4 L 1389.4 357 L 1344.1 356.4 Z M 893.5 891.4 L 856 891.7 L 830.9 889.4 L 835.6 880.5 L 863.7 873.8 L 885 877.4 L 894 880.6 L 891.9 886.2 L 893.5 891.4 Z M 1520.5 495.7 L 1569.3 477.8 L 1563.8 468.6 L 1609.4 457.8 L 1676.6 444.8 L 1744.4 440.9 L 1779.3 433.4 L 1819 430.7 L 1833.1 438.8 L 1819.4 445.1 L 1747.3 455.2 L 1685 464.9 L 1621.8 484.3 L 1591.4 504.2 L 1559.5 523.8 L 1563.6 540.7 L 1602.6 557.4 L 1590.5 559.2 L 1524 556.6 L 1518.6 547.5 L 1481.7 542.1 L 1478.7 531.1 L 1499.5 526.7 L 1498.8 515.6 L 1539.3 498.2 L 1520.5 495.7 Z M 3342 904.1 L 3349.1 923.8 L 3348.6 943.8 L 3357 964.4 L 3377.5 1000.5 L 3347.3 993.7 L 3334.8 1023.2 L 3354.7 1044 L 3354.1 1058.3 L 3338.6 1046 L 3325.3 1061.8 L 3321.5 1044.7 L 3323.8 1024.8 L 3321.5 1002.8 L 3326.2 987.4 L 3327.1 960.2 L 3315.1 940.2 L 3316.9 912.3 L 3335.8 902.9 L 3327.7 893.5 L 3336.8 890.6 L 3342 904.1 Z M -3133.5 629.1 L -3135.3 641.7 L -3121.6 646.8 L -3126.3 632 L -3071 635 L -3031.1 654.1 L -3051.3 663 L -3084.7 665.1 L -3085.2 685 L -3093.4 689.2 L -3112.4 688.6 L -3128 681.5 L -3155 675.6 L -3159.6 666.7 L -3180.3 663.4 L -3203.5 666 L -3214.5 658.9 L -3210.1 651.3 L -3234.5 656.2 L -3225.3 665.8 L -3236.9 674.4 L -3236.9 593.2 L -3187 608.8 L -3133.5 629.1 Z M -3210.3 553.9 L -3236.9 555.2 L -3236.9 541.2 L -3234.3 540.4 L -3217 540.4 L -3187.5 546.3 L -3189.3 549 L -3210.3 553.9 Z M 1111.6 1061.7 L 1116.9 1056.6 L 1131.4 1061 L 1138 1061.8 L 1140.6 1065.8 L 1143.7 1066.4 L 1143.9 1068.2 L 1153.8 1073.1 L 1174.6 1071.9 L 1170.6 1079.2 L 1148.3 1082.7 L 1120.7 1094.5 L 1109.3 1090.3 L 1113.8 1080.8 L 1091.6 1074.8 L 1095.2 1070.9 L 1114.7 1064.1 L 1111.6 1061.7 Z" />
<path class="neighbor" d="M -622.1 1913.6 L -634.1 1932.2 L -640.4 1947.2 L -648.2 1955 L -658 1956.4 L -660.7 1950.7 L -665.3 1949.9 L -671.6 1955.4 L -680.5 1951.2 L -675.3 1942.6 L -673.5 1933.3 L -669.9 1924.5 L -677.9 1912.4 L -679.6 1898.5 L -669 1881 L -662 1883.2 L -647 1888.1 L -625.5 1905.3 L -622.1 1913.6 Z M 556.4 990.5 L 566 995.9 L 595.4 999.6 L 585.1 1013.6 L 582.5 1028.1 L 576.9 1031.6 L 567.6 1029.7 L 568.3 1034.9 L 553.4 1046.3 L 553.1 1055.5 L 562.8 1052.3 L 569.8 1061.3 L 569 1067 L 575 1074.7 L 567.9 1080.9 L 573.1 1096.6 L 584.2 1099.2 L 581.8 1108.1 L 563.4 1119.6 L 523.2 1114.1 L 493.5 1120.7 L 491.2 1132.9 L 467.6 1135.6 L 444.7 1126.4 L 437.3 1130.8 L 399.8 1121.5 L 391.6 1113.6 L 402.2 1101.4 L 406 1060.8 L 385 1039.4 L 370 1029.1 L 338.9 1021.3 L 336.8 1006.4 L 363.2 1002 L 397.4 1007.2 L 391 984.2 L 410.2 992.9 L 457.6 977 L 463.8 960.3 L 481.6 956.2 L 484.5 963.4 L 494 963.7 L 503.5 971.9 L 517.7 981.5 L 528.1 979.9 L 546 989.2 L 550.5 991 L 556.4 990.5 Z M 608.6 1129.8 L 621.7 1122 L 625.1 1139.5 L 618.4 1155.2 L 609.2 1151.1 L 604.4 1137.4 L 608.6 1129.8 Z" />
<path class="neighbor" d="M 655 799.2 L 664 787.4 L 681 773.5 L 687.7 749.5 L 674.7 739.2 L 673.4 712.1 L 686.7 693 L 706.9 693.4 L 714 685.3 L 706.5 678.3 L 738.2 649.7 L 758.6 627.1 L 772 612.6 L 791.6 612.7 L 797 601.3 L 835.4 604.6 L 838.4 591.2 L 851 590.3 L 878.1 600.3 L 910 614.2 L 910.5 645.5 L 917.4 653.5 L 882.3 659.2 L 862.6 673.5 L 865.7 685.9 L 833.3 702.3 L 794 719.8 L 779.2 748.5 L 793.7 762.9 L 813.1 774.2 L 794.4 797.2 L 773.2 801.9 L 765.5 836.1 L 753.9 855.2 L 729.2 853.3 L 717.6 869.4 L 694.1 870.4 L 687.6 851.1 L 670.5 828 L 655 799.2 Z" />
<path class="neighbor" d="M 1004.4 853.9 L 1025.9 859 L 1028.8 864.1 L 1039.5 861.6 L 1059.4 866.5 L 1061.4 876.1 L 1057 881.6 L 1069.8 894.9 L 1078.1 898.6 L 1076.8 902.3 L 1090.6 905.9 L 1096.5 911.3 L 1088.5 915.8 L 1072.1 915.1 L 1068.2 917 L 1073 923.7 L 1078 936.8 L 1078 936.8 L 1060.5 938 L 1054.2 942.5 L 1052.9 952.7 L 1044.8 950.7 L 1026.4 951.7 L 1021.1 947 L 1013.4 950.5 L 1005.8 947.6 L 989.7 947.2 L 967 942.3 L 946.4 940.7 L 930.6 941.1 L 919.4 946.6 L 909.7 947.4 L 909.3 938.4 L 903 928.9 L 915.2 924.8 L 915.4 916.6 L 909.7 908.9 L 908.8 899.9 L 928.5 900 L 950.6 892.3 L 955.4 880.8 L 972.1 874.3 L 970.2 865.2 L 982.5 861.8 L 1004.4 853.9 Z" />
<path class="neighbor" d="M 1078 936.8 L 1085.6 937.6 L 1090.7 933 L 1096.9 934 L 1118 932 L 1131 943.6 L 1126 947.7 L 1127.6 954 L 1143.9 955 L 1151.1 963.8 L 1150.7 967.8 L 1176.6 975 L 1192.2 971.8 L 1204.8 981.3 L 1216.7 981.1 L 1246.7 987.7 L 1247 993.7 L 1238.7 1004.4 L 1243.2 1015.6 L 1240 1022.4 L 1220.3 1023.9 L 1209.8 1029.6 L 1209.1 1038.6 L 1192.9 1040.3 L 1179.3 1046.9 L 1160.2 1047.9 L 1142.7 1055.5 L 1143.7 1066.4 L 1140.6 1065.8 L 1138 1061.8 L 1131.4 1061 L 1116.9 1056.6 L 1111.6 1061.7 L 1108.8 1059.4 L 1077.1 1054.3 L 1075.7 1046.7 L 1056.8 1049.2 L 1049.3 1060.4 L 1033.5 1075.5 L 1024.3 1072 L 1014.7 1075.3 L 1005.6 1071.5 L 1010.7 1069.3 L 1014.3 1062.3 L 1019.9 1055.8 L 1018.4 1052.2 L 1022.7 1050.5 L 1024.7 1053.4 L 1036.7 1054 L 1042.1 1052.5 L 1038.3 1050.4 L 1039.7 1047.4 L 1032.6 1042.2 L 1029.7 1033.7 L 1022.2 1030.3 L 1023.7 1023.4 L 1014.5 1017.9 L 1006.1 1017.2 L 991.1 1010.8 L 977.6 1012.8 L 972.7 1015.8 L 964.1 1015.8 L 959 1020.6 L 943.9 1022.6 L 937 1025.7 L 927.5 1020.7 L 914.5 1020.6 L 901.9 1018.4 L 893.1 1022.7 L 891.6 1017.3 L 880.3 1011.7 L 884.3 1003.5 L 890 998.2 L 894.4 999.4 L 889.1 990.3 L 907.6 973.3 L 917.8 970.9 L 919.9 965.2 L 909.7 947.4 L 919.4 946.6 L 930.6 941.1 L 946.4 940.7 L 967 942.3 L 989.7 947.2 L 1005.8 947.6 L 1013.4 950.5 L 1021.1 947 L 1026.4 951.7 L 1044.8 950.7 L 1052.9 952.7 L 1054.2 942.5 L 1060.5 938 L 1078 936.8 Z" />
<path class="neighbor" d="M 908.8 899.9 L 909.7 908.9 L 915.4 916.6 L 915.2 924.8 L 903 928.9 L 909.3 938.4 L 909.7 947.4 L 919.9 965.2 L 917.8 970.9 L 907.6 973.3 L 889.1 990.3 L 894.4 999.4 L 890 998.2 L 870.6 990.4 L 855.9 993.3 L 846.3 991.2 L 834.3 995.5 L 824 988.3 L 815.6 991.1 L 814.5 989.9 L 805.1 979.8 L 789.9 978.6 L 788 972.2 L 774 969.9 L 771 975.2 L 759.9 971 L 761.2 965.4 L 746 963.6 L 736.3 957 L 728 944 L 729.6 937 L 724.5 926.1 L 717.1 918.9 L 722.8 913.4 L 718 903.1 L 732 897.1 L 763.7 887.6 L 789.4 880.8 L 809.7 884.2 L 811.3 889.2 L 830.9 889.4 L 856 891.7 L 893.5 891.4 L 903.9 893.6 L 908.8 899.9 Z" />
<path class="neighbor" d="M 776.3 1017.8 L 774.8 1026.2 L 763.3 1026.2 L 767.2 1030.6 L 760.5 1043.7 L 756.6 1047.2 L 738.8 1047.7 L 728.5 1052.3 L 711.7 1050.7 L 682.5 1045.5 L 678 1038.4 L 657.8 1041.9 L 655.5 1045.8 L 643.1 1042.9 L 632.7 1042.3 L 623.5 1038.6 L 626.6 1033.6 L 625.8 1030 L 632 1028.9 L 642.3 1034.6 L 645.2 1029.2 L 663.2 1030 L 677.7 1026.4 L 687.5 1027 L 693.9 1031.2 L 695.8 1027.7 L 692.9 1014.5 L 700.2 1011.9 L 707.4 1002.5 L 722.5 1009 L 734 1000.7 L 741.1 999.2 L 756.9 1005.4 L 766.5 1004.3 L 775.9 1008.2 L 774.3 1010.8 L 776.3 1017.8 Z" />
<path class="neighbor" d="M 880.3 1011.7 L 891.6 1017.3 L 893.1 1022.7 L 880.6 1027 L 871 1040.8 L 858.7 1054.7 L 842.3 1058.5 L 829.6 1057.6 L 814 1062.9 L 814 1062.9 L 806.4 1066 L 789.6 1062.1 L 774.3 1053.3 L 767.9 1050.8 L 763.9 1043.9 L 760.5 1043.7 L 767.2 1030.6 L 763.3 1026.2 L 774.8 1026.2 L 776.3 1017.8 L 786.7 1023 L 794.2 1025.3 L 811.3 1022.8 L 812.9 1018.7 L 821 1018.1 L 830.9 1014.9 L 833.1 1016.2 L 842.7 1013.7 L 847.5 1008.9 L 854.2 1007.6 L 876 1013.8 L 880.3 1011.7 Z" />
<path class="neighbor" d="M 972.7 1015.8 L 977.6 1012.8 L 991.1 1010.8 L 1006.1 1017.2 L 1014.5 1017.9 L 1023.7 1023.4 L 1022.2 1030.3 L 1029.7 1033.7 L 1032.6 1042.2 L 1039.7 1047.4 L 1038.3 1050.4 L 1042.1 1052.5 L 1036.7 1054 L 1024.7 1053.4 L 1022.7 1050.5 L 1018.4 1052.2 L 1019.9 1055.8 L 1014.3 1062.3 L 1010.7 1069.3 L 1005.6 1071.5 L 1001.9 1062.2 L 1004.1 1053.5 L 1003.4 1044.6 L 991.7 1032.5 L 985.2 1023.9 L 978.9 1017.8 L 972.7 1015.8 Z" />
<path class="neighbor" d="M 1005.6 1071.5 L 1014.7 1075.3 L 1024.3 1072 L 1033.5 1075.5 L 1034 1080.7 L 1024.1 1085.1 L 1017.9 1083.2 L 1012.2 1107.8 L 1000.2 1105.7 L 985.4 1098.3 L 961.4 1103 L 951.3 1108.2 L 921.4 1107.1 L 905.7 1103.9 L 897.8 1105.4 L 892 1097.1 L 888.2 1093.5 L 893 1090.1 L 887.9 1087.5 L 881.5 1092.1 L 869.7 1086.2 L 868.1 1077.8 L 855.7 1073 L 853.4 1066.5 L 842.3 1058.5 L 858.7 1054.7 L 871 1040.8 L 880.6 1027 L 893.1 1022.7 L 901.9 1018.4 L 914.5 1020.6 L 927.5 1020.7 L 937 1025.7 L 943.9 1022.6 L 959 1020.6 L 964.1 1015.8 L 972.7 1015.8 L 978.9 1017.8 L 985.2 1023.9 L 991.7 1032.5 L 1003.4 1044.6 L 1004.1 1053.5 L 1001.9 1062.2 L 1005.6 1071.5 Z" />
<path class="neighbor" d="M 970.2 865.2 L 972.1 874.3 L 955.4 880.8 L 950.6 892.3 L 928.5 900 L 908.8 899.9 L 903.9 893.6 L 893.5 891.4 L 891.9 886.2 L 894 880.6 L 885 877.4 L 863.7 873.8 L 859.3 856.7 L 882.7 850.5 L 916.9 851.8 L 936.9 849.8 L 939.7 854 L 950.6 855.3 L 970.2 865.2 Z" />
<path class="neighbor" d="M 986.3 827.3 L 996.1 832 L 997.9 841.9 L 1004.4 853.9 L 982.5 861.8 L 970.2 865.2 L 950.6 855.3 L 939.7 854 L 936.9 849.8 L 916.9 851.8 L 882.7 850.5 L 859.3 856.7 L 860.1 841.4 L 870.1 828.6 L 889.3 821.6 L 905.4 836.9 L 921.8 836.5 L 925.7 820.8 L 943.1 817.2 L 952 819.7 L 969.5 827.3 L 986.3 827.3 Z" />
<path class="neighbor" d="M 1000.4 786.5 L 1000.4 786.5 L 1003.5 790.1 L 989 801.8 L 995.1 820.8 L 986.3 827.3 L 969.5 827.3 L 952 819.7 L 943.1 817.2 L 925.7 820.8 L 928.1 808.8 L 920.6 811.4 L 907.7 804.1 L 905.9 792.4 L 931.6 786.7 L 957.3 783.8 L 979.4 787.2 L 1000.4 786.5 L 1000.4 786.5 Z" />
<path class="neighbor" d="M 718 903.1 L 722.8 913.4 L 717.1 918.9 L 724.5 926.1 L 729.6 937 L 728 944 L 736.3 957 L 727.2 959.2 L 721.9 956.8 L 716.7 960.7 L 702.1 964.7 L 694.5 969.7 L 679.7 974.2 L 683.3 980.2 L 685.5 988.8 L 695.9 993.7 L 707.4 1002.5 L 700.2 1011.9 L 692.9 1014.5 L 695.8 1027.7 L 693.9 1031.2 L 687.5 1027 L 677.7 1026.4 L 663.2 1030 L 645.2 1029.2 L 642.3 1034.6 L 632 1028.9 L 625.8 1030 L 604 1023.8 L 599.8 1028.2 L 582.5 1028.1 L 585.1 1013.6 L 595.4 999.6 L 566 995.9 L 556.4 990.5 L 557.6 981.6 L 553.5 977 L 555.8 963.2 L 552.4 941.9 L 564.6 941.9 L 569.8 934.2 L 574.9 915.5 L 571 908.7 L 575 904.3 L 592.1 903.2 L 595.8 907.7 L 609.7 897.7 L 605 890 L 604.1 878.5 L 619.5 881.2 L 632.5 878.1 L 632.9 885.9 L 653.5 890.7 L 653.2 897.9 L 674 894.1 L 685.4 888.5 L 708.4 896.6 L 718 903.1 Z" />
<path class="neighbor" d="M 625.8 1030 L 626.6 1033.6 L 623.5 1038.6 L 632.7 1042.3 L 643.1 1042.9 L 641.5 1051.2 L 632.5 1054.7 L 617.5 1052.1 L 613 1060.3 L 603.3 1061 L 599.8 1057.8 L 588.4 1064.7 L 578.6 1065.6 L 569.8 1061.3 L 562.8 1052.3 L 553.1 1055.5 L 553.4 1046.3 L 568.3 1034.9 L 567.6 1029.7 L 576.9 1031.6 L 582.5 1028.1 L 599.8 1028.2 L 604 1023.8 L 625.8 1030 Z" />
<path class="neighbor" d="M 553.5 977 L 557.6 981.6 L 556.4 990.5 L 550.5 991 L 546 989.2 L 548.2 977.8 L 553.5 977 Z" />
<path class="neighbor" d="M 555.8 963.2 L 553.5 977 L 548.2 977.8 L 546 989.2 L 528.1 979.9 L 517.7 981.5 L 503.5 971.9 L 494 963.7 L 484.5 963.4 L 481.6 956.2 L 497.9 952.2 L 497.9 952.2 L 497.9 952.2 L 512.8 953.8 L 531.7 949.5 L 544.6 958.5 L 555.8 963.2 Z" />
<path class="neighbor" d="M 571 908.7 L 574.9 915.5 L 569.8 934.2 L 564.6 941.9 L 552.4 941.9 L 555.8 963.2 L 544.6 958.5 L 531.7 949.5 L 512.8 953.8 L 497.9 952.2 L 497.9 952.2 L 508.4 946.6 L 526.2 916.6 L 554.1 908.1 L 571 908.7 Z" />
<path class="neighbor" d="M 304.1 900.8 L 307.5 915.4 L 292.1 933.5 L 255.9 945.6 L 227.1 942.5 L 243.6 921.2 L 233 900.5 L 260.7 884.6 L 276.1 875 L 280.3 886 L 276.1 896.9 L 288.7 896.6 L 304.1 900.8 Z" />
<path class="neighbor" d="M 643.1 1042.9 L 655.5 1045.8 L 657.8 1041.9 L 678 1038.4 L 682.5 1045.5 L 711.7 1050.7 L 709.4 1060.7 L 714.3 1069.4 L 698.1 1066.5 L 681.5 1073.7 L 682.7 1083.8 L 680.2 1089.6 L 686.9 1100 L 706 1110.2 L 716.2 1127.1 L 738.9 1143.5 L 754.8 1143.4 L 759.8 1147.9 L 754.1 1151.9 L 772.3 1159.3 L 787.3 1165.5 L 804.8 1176.1 L 806.9 1179.9 L 803.1 1187.2 L 791.8 1177.7 L 774.1 1174.3 L 765.5 1187.5 L 780.2 1195.1 L 777.8 1205.7 L 769.3 1206.9 L 758.4 1224.4 L 749.9 1225.9 L 750 1219.7 L 754.1 1208.8 L 758.6 1204.4 L 750.6 1192.6 L 744.4 1182.3 L 735.9 1179.8 L 729.9 1171 L 716.8 1167.3 L 708 1159.1 L 692.9 1157.8 L 677 1148.6 L 658.4 1135.3 L 644.5 1123.6 L 638.2 1103.5 L 628 1101.1 L 611.5 1094.4 L 602.1 1097.1 L 590.3 1106.6 L 581.8 1108.1 L 584.2 1099.2 L 573.1 1096.6 L 567.9 1080.9 L 575 1074.7 L 569 1067 L 569.8 1061.3 L 578.6 1065.6 L 588.4 1064.7 L 599.8 1057.8 L 603.3 1061 L 613 1060.3 L 617.5 1052.1 L 632.5 1054.7 L 641.5 1051.2 L 643.1 1042.9 Z M 731.1 1221.1 L 746.6 1219.4 L 739.2 1235.4 L 742.3 1241.7 L 738 1252.2 L 722.4 1244.5 L 712.1 1242.3 L 683.6 1232 L 686.5 1221.5 L 710.3 1223.4 L 731.1 1221.1 Z M 607.8 1165 L 618 1158.7 L 630.2 1173.1 L 627.4 1200.1 L 618.1 1198.8 L 609.8 1205.6 L 602.1 1200.2 L 601.3 1175.6 L 596.6 1164 L 607.8 1165 Z" />
<path class="neighbor" d="M 632.5 878.1 L 619.5 881.2 L 604.1 878.5 L 595.8 867.2 L 595.2 846.4 L 598.6 840.9 L 604.4 834.7 L 622.4 833.5 L 629.5 827.9 L 645.9 822.1 L 645.2 832.6 L 639.2 839.2 L 641.6 844.9 L 652.7 848 L 647.7 855.7 L 641.6 853.5 L 627 868.2 L 632.5 878.1 Z M 682.4 855.1 L 688.9 865.3 L 676.7 881.8 L 655.4 870.3 L 652.5 861.8 L 682.4 855.1 Z" />
<path class="neighbor" d="M 304.1 900.8 L 288.7 896.6 L 276.1 896.9 L 280.3 886 L 276.1 875 L 293.2 874.2 L 315 886.8 L 304.1 900.8 Z M 367.3 910.2 L 367.4 910.2 L 370.4 898.4 L 356.7 885.9 L 356.4 885.6 L 331.7 882 L 326.8 876.5 L 334.2 867.4 L 327.5 861.8 L 316.6 871.4 L 315.4 851.8 L 305.1 841.4 L 312.5 820.3 L 328.3 803.8 L 344.6 805.4 L 369.1 803.7 L 347.4 825.7 L 368.1 822.9 L 390.4 823 L 385.1 839.6 L 366.8 857.9 L 387.9 859.2 L 389.5 861.3 L 407.7 885.4 L 421.6 888.6 L 434.1 911.9 L 439.9 919.9 L 464.6 923.8 L 462.1 936.8 L 451.8 942.8 L 459.9 953.3 L 441.6 964 L 414.3 963.8 L 379.6 969.4 L 370.1 965.4 L 356.7 974.9 L 337.8 972.6 L 323.5 980.4 L 312.7 976.3 L 342.6 954.9 L 360.8 950.5 L 360.6 950.5 L 328.8 947.1 L 323.1 939 L 344.3 932.7 L 333.2 921.7 L 337.1 908.4 L 367.3 910.2 Z" />
<path class="neighbor" d="M 711.7 1050.7 L 728.5 1052.3 L 738.8 1047.7 L 756.6 1047.2 L 760.5 1043.7 L 763.9 1043.9 L 767.9 1050.8 L 751.6 1056.2 L 749.7 1064.5 L 742.6 1066.6 L 742.6 1072.2 L 734.7 1071.9 L 727.7 1068.5 L 724 1072 L 709.8 1071.3 L 714.3 1069.4 L 709.4 1060.7 L 711.7 1050.7 Z" />
<path class="neighbor" d="M 1012.9 591.2 L 1009.9 605.4 L 1041.1 619 L 1022.3 634.4 L 1046 657.6 L 1032.3 675 L 1050.6 690.2 L 1042.3 703.5 L 1072.5 717.4 L 1064.8 727.8 L 1045.9 739.6 L 1002.3 765.6 L 1002.3 765.6 L 1002.3 765.6 L 965.3 767.2 L 929.5 774.7 L 896.3 779 L 884.5 767.9 L 864.8 761.2 L 869.3 741.1 L 859.4 722.7 L 869.1 710.9 L 887.6 698.1 L 934.2 676 L 947.8 671.7 L 945.7 663.1 L 917.4 653.5 L 910.5 645.5 L 910 614.2 L 878.1 600.3 L 851 590.3 L 863.2 585 L 885.8 595.7 L 912.4 594.7 L 934.3 599.6 L 953.7 590.6 L 963.7 575.7 L 995.4 568.8 L 1021.5 576.9 L 1012.9 591.2 Z" />
<path class="neighbor" d="M 890 998.2 L 884.3 1003.5 L 880.3 1011.7 L 876 1013.8 L 854.2 1007.6 L 847.5 1008.9 L 842.7 1013.7 L 833.1 1016.2 L 830.9 1014.9 L 821 1018.1 L 812.9 1018.7 L 811.3 1022.8 L 794.2 1025.3 L 786.7 1023 L 776.3 1017.8 L 774.3 1010.8 L 775.9 1008.2 L 778.8 1003.7 L 787.8 1004 L 794.8 1001.9 L 795.3 1000 L 799.2 999.1 L 800.6 994.4 L 805.2 993.6 L 808.4 989.9 L 814.5 989.9 L 815.6 991.1 L 824 988.3 L 834.3 995.5 L 846.3 991.2 L 855.9 993.3 L 870.6 990.4 L 890 998.2 Z" />
<path class="neighbor" d="M 736.3 957 L 746 963.6 L 761.2 965.4 L 759.9 971 L 771 975.2 L 774 969.9 L 788 972.2 L 789.9 978.6 L 805.1 979.8 L 814.5 989.9 L 808.4 989.9 L 805.2 993.6 L 800.6 994.4 L 799.2 999.1 L 795.3 1000 L 794.8 1001.9 L 787.8 1004 L 778.8 1003.7 L 775.9 1008.2 L 766.5 1004.3 L 756.9 1005.4 L 741.1 999.2 L 734 1000.7 L 722.5 1009 L 707.4 1002.5 L 695.9 993.7 L 685.5 988.8 L 683.3 980.2 L 679.7 974.2 L 694.5 969.7 L 702.1 964.7 L 716.7 960.7 L 721.9 956.8 L 727.2 959.2 L 736.3 957 Z" />
<path class="lake" d="M 796.7 789.5 L 794.6 790.7 L 788.3 790.8 L 786.4 790.3 L 784.3 790.2 L 782.9 790.7 L 780.3 789 L 778.1 788.6 L 775 787.2 L 771.5 787.5 L 768.8 787 L 759.3 787.1 L 757.2 786.5 L 761.5 786.2 L 766 785.7 L 768 783.8 L 769.5 784.8 L 771.7 785.2 L 773.5 784.3 L 776.3 785 L 778 784.6 L 784.3 786.1 L 784.7 784.3 L 787.6 785.2 L 790.7 785.2 L 790.4 784.1 L 792.2 783.6 L 792.7 784.1 L 793.2 785 L 792.5 787.8 L 793.6 788.5 L 796.4 788.9 L 796.7 789.5 Z" />
<path class="lake" d="M 1038.2 750.9 L 1038.2 750.9 L 1038.2 750.9 L 1038.2 750.9 L 1038.7 750.6 L 1038.8 750.4 L 1038.6 750 L 1039.4 749.5 L 1040.5 749.6 L 1042.2 750.3 L 1043.2 750.5 L 1043.5 750.2 L 1043.4 750 L 1043.4 749.4 L 1044.2 749.1 L 1045.1 749.1 L 1045.5 748.8 L 1045.6 748.4 L 1045.3 748.1 L 1045.2 747.9 L 1045.7 747.6 L 1045.9 747 L 1046 746.7 L 1046.4 746.4 L 1046.7 746.1 L 1046.7 745.9 L 1046.4 745.4 L 1046.4 745 L 1047.4 745 L 1051.1 745.6 L 1051.4 745.5 L 1051.5 745 L 1052 744.8 L 1052.8 744.6 L 1053.9 744.5 L 1054.1 744.1 L 1053.7 743.7 L 1053.7 743.1 L 1057 740.5 L 1058.9 739.7 L 1059.7 739.9 L 1059.8 740.1 L 1060 740.4 L 1062.5 740.9 L 1063.1 741.4 L 1063.4 742.3 L 1064 742.8 L 1065.2 742.9 L 1065.5 742.7 L 1066.8 742.4 L 1067.2 742.4 L 1067.8 743 L 1068.2 743.2 L 1068.6 742.9 L 1068.8 742.7 L 1069.4 742.7 L 1071.9 744.3 L 1072.8 745.4 L 1073.7 746.6 L 1074.2 746.9 L 1074.6 746.8 L 1074.5 746.5 L 1074.6 746.1 L 1074.9 746.1 L 1076.2 747 L 1077.5 747.7 L 1079.7 748.4 L 1080.3 748.9 L 1089.6 751.8 L 1093.1 753.1 L 1093.8 753.9 L 1094.2 754.6 L 1094.2 755.2 L 1094.4 755.5 L 1095.2 755.8 L 1095.4 756.1 L 1097.9 757.8 L 1098.8 759 L 1098.9 760.4 L 1099.5 761.3 L 1100.7 761.7 L 1101.4 762.2 L 1101.6 762.8 L 1100.8 763.9 L 1099.5 765.7 L 1098.9 766 L 1098.3 765.9 L 1097 765.2 L 1095.4 764.9 L 1094.5 765 L 1094.5 765.4 L 1094.9 766.2 L 1095.8 767.2 L 1096.1 767.9 L 1095.7 768.3 L 1094.4 768.6 L 1094.3 769.1 L 1094.8 770 L 1094.8 770.9 L 1094.2 771.6 L 1092.5 772.3 L 1089.7 772.8 L 1087.6 772.7 L 1086.3 771.9 L 1083.5 771.2 L 1079.1 770.8 L 1076.2 771.1 L 1074.2 772.4 L 1074 772.7 L 1074.1 772.9 L 1074.3 773 L 1074.3 773.1 L 1073.1 774.4 L 1073 775.2 L 1073.5 775.9 L 1073.5 776.5 L 1073.1 777.1 L 1072.3 777.5 L 1071.2 777.8 L 1070.1 777.7 L 1069.1 777.2 L 1067.5 777.1 L 1065.5 777.4 L 1064.1 777.3 L 1063.3 777 L 1062.8 776.9 L 1063.2 776.6 L 1064.9 775.7 L 1064.9 775.2 L 1064.1 774.7 L 1063.9 774.2 L 1064.3 773.1 L 1064.2 772.9 L 1062.3 771.9 L 1061.1 770.5 L 1058.9 766.8 L 1058.5 766.5 L 1058.2 766.5 L 1057.9 766.8 L 1057.4 766.7 L 1057.3 765.8 L 1057 765.2 L 1056.3 764.4 L 1055.1 763.8 L 1052.5 763 L 1052.2 762.5 L 1051.8 761.5 L 1051.9 761 L 1052.3 760.8 L 1052.4 760.3 L 1052.3 759.3 L 1051.8 758.7 L 1050.9 758.3 L 1050.6 758.1 L 1050.5 757.5 L 1049.9 757 L 1047.5 755.4 L 1044.1 753.7 L 1038.7 751.7 L 1038 751.1 L 1038.2 750.9 Z" />
<path class="lake" d="M 716.4 794.5 L 716.4 794.5 L 716.4 794.5 L 716.4 794.5 L 716.4 794.5 L 716.9 794.3 L 717.3 794.2 L 717.4 794.4 L 717.4 794.6 L 717.3 794.9 L 717.1 795.7 L 716.7 795.9 L 716.6 796 L 716.4 796.1 L 715.8 796.2 L 715.4 796.5 L 715.5 797.4 L 715.3 798.3 L 715.1 799 L 714.7 799.4 L 714.1 799.8 L 713.4 800.3 L 712.7 800.9 L 712.1 801.4 L 711.5 801.9 L 710.2 802.3 L 708.1 802.7 L 705.8 803.1 L 704.1 803.5 L 702.5 804 L 701.3 805.2 L 700.1 806.1 L 699.2 806.2 L 698.7 806.2 L 698.2 806 L 698 805.6 L 698.3 805.2 L 698.3 804.9 L 698.2 804.4 L 697.6 804.2 L 696.1 804.3 L 694.2 805 L 693.4 805.5 L 692.5 806.3 L 691.1 806.7 L 689.7 807.4 L 688.7 808 L 688.1 808.5 L 687.6 808.8 L 687.1 808.9 L 686.7 809 L 686.3 809 L 686.1 808.9 L 686.1 808.6 L 686.5 808.1 L 686.5 807.8 L 686.1 807.8 L 685.2 808.5 L 682.5 808.8 L 681.7 809 L 681.2 808.6 L 681.6 807.8 L 684.8 806.2 L 687.2 804 L 687.3 803.5 L 686.3 803.4 L 685.6 803.1 L 685.1 802.5 L 685.1 801.8 L 685 801 L 684.5 800.7 L 684 800.7 L 683.5 800.3 L 683.7 800.1 L 684.2 800 L 684.5 799.5 L 684.5 798.7 L 684.3 797.8 L 684.4 797.6 L 684.7 797.6 L 685 797.9 L 685.2 798.2 L 685.4 798.9 L 685.6 799.4 L 685.8 799.7 L 686.2 799.9 L 686.6 799.8 L 687.1 799.4 L 687.4 798.5 L 688 797.6 L 688.6 796.5 L 689.3 795.5 L 690 794.9 L 690.8 794.7 L 691.5 794.6 L 692.5 794.8 L 694.1 795.3 L 696.1 795.9 L 696.5 796.7 L 697 797.3 L 697.7 797.8 L 698.5 798.2 L 699.2 798.3 L 700 798.2 L 700.2 797.7 L 699.7 796.4 L 698.8 794.3 L 697.7 792.2 L 697.3 791 L 697.3 790.7 L 697.4 790.5 L 697.6 790.2 L 697.9 789.7 L 698.1 789.3 L 698.4 789 L 698.8 789.2 L 699.1 789.6 L 699.7 789.9 L 700.2 789.9 L 700.4 789.8 L 700.3 789.6 L 700.3 789.4 L 700.3 789.2 L 700.5 789.1 L 700.9 789 L 701.7 788.9 L 702.9 788.8 L 704.6 788.7 L 706.4 788.5 L 708 788.3 L 709.1 788.3 L 709.9 788.5 L 710.3 788.9 L 710.4 789.3 L 710.5 789.5 L 710.8 789.5 L 711.5 789.4 L 712.1 789.3 L 712.9 789.4 L 713.6 789.6 L 714.2 789.5 L 714.8 789.4 L 715.5 789.5 L 716.2 789.7 L 716.5 789.8 L 716.7 790 L 716.7 790.3 L 716.7 790.8 L 716.6 791.3 L 716.2 792.1 L 715.5 793 L 714.5 793.9 L 714.2 794.4 L 714.5 794.9 L 715.1 794.9 L 715.7 794.8 L 716.4 794.5 Z" />
<path class="lake" d="M 1172.4 747.5 L 1172.4 747.5 L 1172.4 747.5 L 1172.5 747.9 L 1172.5 748.4 L 1172.1 749 L 1171.9 749.3 L 1171.6 749.7 L 1171.6 749.8 L 1171.4 750 L 1171.4 750.3 L 1171.5 750.6 L 1171.7 750.9 L 1171.9 751.3 L 1171.7 751.7 L 1171.2 752.2 L 1170.4 752.7 L 1169.5 753.2 L 1168.4 753.5 L 1167.1 753.8 L 1165.8 754.2 L 1164.6 754.9 L 1163.3 755.6 L 1162.1 756.2 L 1161.4 756.6 L 1161.5 756.9 L 1161.9 757.2 L 1162 757.5 L 1161.8 757.7 L 1161.4 758 L 1160.9 758.1 L 1160.3 758.2 L 1159.8 758.1 L 1159.2 757.8 L 1158.1 757.4 L 1156.4 757.1 L 1154.7 756.7 L 1153.6 756.1 L 1153.1 755.4 L 1152.6 755 L 1152.1 754.8 L 1151.6 754.7 L 1150.8 754.7 L 1149.9 754.9 L 1148.6 755.2 L 1147.2 755.4 L 1146.2 755.3 L 1145.8 755 L 1145.3 754.6 L 1143.9 754.2 L 1142.3 754.1 L 1141.3 754.5 L 1140.8 754.9 L 1140.3 754.9 L 1139.9 754.7 L 1139.7 754.4 L 1139.4 754 L 1139.3 753.5 L 1139.3 753 L 1139.4 752.4 L 1139.7 751.9 L 1140.1 751.5 L 1141.1 751.3 L 1142.9 751.2 L 1145 751.3 L 1146.6 751.5 L 1147.7 751.9 L 1148.2 752.1 L 1147.7 752.3 L 1146.4 752.3 L 1145 752.4 L 1144.5 752.6 L 1144.7 752.9 L 1145.1 753.3 L 1145.6 753.6 L 1146.3 753.9 L 1147.4 754.1 L 1148.7 754.1 L 1150.5 754 L 1152.4 754.2 L 1154.2 755 L 1155.3 754.8 L 1156 753.9 L 1156.3 753.3 L 1156.3 752.4 L 1155.9 751.5 L 1155.2 750.5 L 1154.4 749.5 L 1153.5 748.8 L 1152.8 748.2 L 1151.6 747.6 L 1149.6 746.7 L 1146.6 745.6 L 1142.7 744.4 L 1138.8 743.2 L 1135.9 742.2 L 1133.9 741.1 L 1132.2 740.1 L 1131 739.3 L 1130.1 738.6 L 1129.6 738.1 L 1129.5 737.8 L 1129.9 737.9 L 1130.9 738.3 L 1132.1 738.8 L 1133.1 739 L 1133.9 739 L 1134.5 738.7 L 1134.9 738.2 L 1135.2 737.7 L 1135.2 737 L 1135 736.4 L 1134.6 735.7 L 1134 735.1 L 1132.8 734.3 L 1130.8 733.2 L 1129.1 732.2 L 1128.3 731.7 L 1128.3 731.3 L 1128.4 730.8 L 1128.5 730.3 L 1128.3 729.8 L 1127.6 729.1 L 1126.4 728.2 L 1125.1 727.4 L 1123.9 727 L 1123.1 726.9 L 1122.6 726.8 L 1122.3 726.5 L 1122 725.9 L 1121.9 725.3 L 1121.9 724.9 L 1122.2 724.7 L 1122.6 724.6 L 1123.1 724.6 L 1123.6 724.7 L 1124.2 725 L 1124.8 725.7 L 1125.9 726.7 L 1127.5 727.9 L 1129 729.1 L 1129.7 729.7 L 1129.8 730.1 L 1129.6 730.5 L 1130.1 731.1 L 1131.6 731.9 L 1133.5 732.7 L 1135.1 733.1 L 1136 733.2 L 1136.4 732.9 L 1136.2 732.3 L 1136 731.4 L 1136.3 730.8 L 1136.5 730.1 L 1135.6 728.9 L 1135.5 728.2 L 1136 728 L 1137 728.2 L 1137.2 727.7 L 1136.5 726.8 L 1135.1 725.8 L 1134.2 725 L 1133.8 724.4 L 1133.7 724.1 L 1133.9 724 L 1134.4 724.1 L 1135.2 724.5 L 1136.1 725.1 L 1137.2 726.1 L 1138.5 727.3 L 1139.6 728.3 L 1140.2 728.8 L 1140.4 729.1 L 1140.6 729.8 L 1140.8 730.6 L 1141.3 731.3 L 1142 731.9 L 1142.9 732.7 L 1144 733.5 L 1145 734 L 1145.8 734 L 1146.5 733.7 L 1146.8 733.5 L 1146.9 733.1 L 1146.4 732.5 L 1145.4 731.6 L 1144.5 730.8 L 1144.4 730.5 L 1145.4 730.7 L 1147.3 731.2 L 1149.2 731.8 L 1150.4 732.1 L 1151.3 731.9 L 1152.7 731.4 L 1154 730.8 L 1154.7 730.3 L 1154.9 729.8 L 1155 729.3 L 1154.8 728.6 L 1154.4 727.9 L 1153.6 726.9 L 1152.3 725.6 L 1150.6 724.5 L 1149 724 L 1147.5 723.9 L 1146.4 723.7 L 1145.3 723.3 L 1143.9 722.6 L 1142.8 722.1 L 1142.3 722 L 1140.8 722.7 L 1140.2 723.1 L 1138.9 722.4 L 1138.1 722.5 L 1137.4 722 L 1136.5 721.3 L 1135.7 720.6 L 1134.9 719.7 L 1134 718.4 L 1132.8 717.3 L 1133 716.7 L 1133.9 716.5 L 1135.4 717.3 L 1137.4 717.9 L 1139.1 718.2 L 1140.5 718.3 L 1141.6 718.5 L 1142.6 718.9 L 1143.6 719.4 L 1145.1 720 L 1147.6 720.7 L 1150.1 721.5 L 1151.9 722.3 L 1152.9 722.8 L 1153.4 722.8 L 1153.5 722.5 L 1153.7 722.4 L 1154 722.5 L 1154.5 722.9 L 1155.4 723.4 L 1156.5 723.8 L 1157.7 724.2 L 1158.5 724.5 L 1159.2 725 L 1159.8 725.7 L 1160.2 726.7 L 1160.2 727.9 L 1159.7 729.4 L 1159 730.9 L 1158.3 732.3 L 1157.2 733.5 L 1157.5 734.3 L 1158.7 735.1 L 1160.1 736.1 L 1160.6 737.1 L 1161.2 738.1 L 1162.3 739.1 L 1163.5 740.1 L 1164.3 741.2 L 1165.1 742.2 L 1166 743 L 1167.1 743.8 L 1167.9 744.7 L 1168.9 745.4 L 1170.2 746.1 L 1171.4 746.7 L 1172.1 747.1 L 1172.4 747.5 Z M 1150.1 736.4 L 1150.1 736.4 L 1150.1 736.4 L 1150.5 735.2 L 1150.4 734.4 L 1149.7 733.6 L 1148.6 733.5 L 1147.4 735.4 L 1146.9 737 L 1146.7 738 L 1147.6 738.4 L 1149 737.8 L 1150.1 736.4 Z" />
<path class="lake" d="M 549.9 927.4 L 549.9 927.4 L 549.9 927.4 L 549.9 927.4 L 550 929 L 548.4 930.1 L 542.3 933.7 L 538.7 932.9 L 533 931.8 L 532.5 931.4 L 533 930.6 L 533.5 930.1 L 533.6 929.7 L 533.7 928.2 L 533.5 927.3 L 533.6 926.1 L 535 926.1 L 537.2 925.2 L 537.3 924 L 535.6 922.8 L 534.6 921.8 L 534.2 920.8 L 533.6 920 L 535.3 919.2 L 537.7 917.9 L 539.9 917.2 L 540.3 917.6 L 540.7 920.5 L 540.8 921 L 541.5 921.4 L 543.4 921.6 L 545.6 921.5 L 545.8 922.2 L 545 922.9 L 544.8 923.4 L 544.7 924.9 L 544.8 925.4 L 545.5 926 L 549.3 926.4 L 549.9 927.4 Z M 548.6 929.4 L 548.6 929.4 L 548.6 929.4 L 548.6 929.4 L 549.2 928.6 L 549.1 927.9 L 548.5 927.3 L 547.2 927 L 545.6 926.9 L 543.2 927.5 L 539.9 928.9 L 535.7 931.1 L 536 931.5 L 537.2 932 L 540.9 932.8 L 542.4 932.7 L 543.4 932.2 L 544.9 931.2 L 547.3 930.1 L 548.6 929.4 Z" />
<path class="lake" d="M 1218.4 814.4 L 1217 814.3 L 1212.4 814.1 L 1211.8 814.6 L 1213.5 815.9 L 1213.5 816.3 L 1213 816.3 L 1212.1 816 L 1210.9 815.8 L 1210.3 815.5 L 1209.8 815.2 L 1209.6 814.5 L 1209.7 812.6 L 1209.1 811.8 L 1207.6 811.5 L 1203.4 810.5 L 1202.5 810.7 L 1194.5 805.7 L 1192.7 804.1 L 1190.6 803.2 L 1187.4 802.4 L 1187.3 802.2 L 1187.6 801.8 L 1187.3 799.3 L 1190.5 801.1 L 1191.8 801.7 L 1192.8 801.8 L 1192.6 802.6 L 1192.6 803 L 1193.5 803.7 L 1195.1 804.1 L 1195.7 805.3 L 1196.6 805.5 L 1197.7 805.2 L 1197.8 804.9 L 1196.8 803.8 L 1197.1 803.6 L 1198.8 804 L 1199.8 804 L 1204.5 805.4 L 1206.1 805.6 L 1206.1 804.6 L 1206.7 804 L 1206.5 803.7 L 1204.3 802.9 L 1204.2 802.5 L 1203.4 801.9 L 1203.4 801.6 L 1203.8 801.5 L 1205.1 801.4 L 1204.5 799.1 L 1202.9 799.1 L 1201.9 798.3 L 1201.1 798 L 1200 797.7 L 1198.7 797.7 L 1197.3 797.9 L 1196 798.3 L 1194.4 799.4 L 1193.8 799.1 L 1193.7 798.8 L 1194.1 797.7 L 1194.4 797.4 L 1196.6 796.5 L 1197.9 795.7 L 1198.4 794.9 L 1198 794.1 L 1197.2 793.4 L 1197.3 793 L 1201.4 793.1 L 1203.3 792.7 L 1204.3 792.6 L 1204.6 793 L 1204.7 793.3 L 1205.1 793.6 L 1206.9 794.1 L 1207.8 794.2 L 1208.2 793.9 L 1208.2 793.5 L 1208.2 793.2 L 1207.1 792.1 L 1207.5 792 L 1208.3 792.1 L 1210.6 792.9 L 1213 792.7 L 1212.9 793.1 L 1211.3 794.3 L 1209.4 795 L 1208 794.9 L 1202.7 794.1 L 1201.8 794.3 L 1201.7 794.7 L 1202.9 795.4 L 1205.5 796.4 L 1207 797.2 L 1213.3 801.4 L 1217 803.6 L 1219.9 805.5 L 1224.7 806.5 L 1225 806.9 L 1224.3 807.6 L 1224.9 808.7 L 1225 809.3 L 1222.3 809.9 L 1221.5 810.6 L 1221.1 811.5 L 1221.2 813.9 L 1221 814.1 L 1220.4 813.9 L 1218.7 812.4 L 1217.6 812.1 L 1217.2 812.5 L 1218.8 813.9 L 1218.9 814.3 L 1218.4 814.4 L 1218.4 814.4 L 1218.4 814.4 Z" />
<path class="lake" d="M 833 889.3 L 832.1 888.3 L 835.4 886.1 L 836.6 884.9 L 837 884.2 L 837.6 883.6 L 838.5 883.8 L 839.6 884.4 L 842.1 884.2 L 842.1 884.2 L 842.1 884.2 L 842.1 884.2 L 842.1 884.2 L 842.1 884.2 L 846.1 884.2 L 839.9 886.2 L 836.4 887.6 L 833.1 889.2 L 833 889.3 Z" />
<path class="lake" d="M 832.1 888.3 L 833 889.3 L 832.5 889.7 L 830.9 890.5 L 829.4 891 L 827.3 892 L 824.5 892.6 L 822.6 891.8 L 823.1 891.2 L 827.7 890.3 L 830 889.4 L 832.1 888.3 Z" />
<path class="lake" d="M 990.6 812.9 L 992 812.2 L 992.5 813 L 995 813.3 L 998.1 813.1 L 998.1 813.1 L 998.1 813.1 L 998.1 813.1 L 998.1 813.1 L 1000.3 813.9 L 1002.8 815.7 L 1003.9 817.1 L 1004.3 818.3 L 1002.9 819.5 L 1000.7 819.3 L 999 818.7 L 998.3 818.2 L 998.4 817.9 L 996.8 816.8 L 994.3 816.2 L 993.2 816.3 L 990.6 812.9 Z" />
<path class="lake" d="M 1009.9 585.9 L 1009.9 585.9 L 1009.9 585.9 L 1009.9 585.9 L 1011.6 585.6 L 1013.7 585.1 L 1014.6 584.5 L 1016.3 584 L 1016.1 584.5 L 1015 585.1 L 1012.1 586.4 L 1011.7 587.3 L 1012.4 588 L 1011.8 588.6 L 1009.9 589.4 L 1009.8 590.1 L 1009 590.8 L 1005.9 591.2 L 1002.7 592.3 L 1002.7 592.9 L 1006.2 594.1 L 1007.5 594.7 L 1008.1 595.1 L 1007.7 595.4 L 1006.8 595.5 L 1002.4 595 L 1000.6 594.9 L 998.6 595.3 L 999.2 596 L 1000.4 596.2 L 1000.7 596.8 L 998.2 597.7 L 997.6 597.6 L 997.5 596.9 L 996.3 596.7 L 994.7 597.4 L 993.8 598 L 992 597.6 L 989.9 597.4 L 989.3 597.4 L 987.9 597.6 L 986.2 598.3 L 985.7 597.9 L 987.8 597.2 L 989.2 596.5 L 988.9 595.7 L 987.1 594.9 L 986 594.7 L 984 594.4 L 983.7 594.1 L 985.4 593.6 L 990.3 592.4 L 991.2 591.9 L 991.9 591.2 L 995.6 589.9 L 999.6 588.9 L 1000.5 589.2 L 1002.6 589.2 L 1002.5 588.6 L 1001.8 588.4 L 1001 587.9 L 1000.6 587.3 L 1001.5 586.6 L 1002.9 586.4 L 1003.2 587 L 1003.6 587.7 L 1005.6 587.4 L 1007.1 586.7 L 1007.4 586.3 L 1007.8 585.9 L 1009.9 585.9 Z" />
<path class="lake" d="M 976 686.4 L 976.7 685.9 L 977 685.4 L 976.7 684.8 L 976.9 684.1 L 977.7 683.6 L 982.7 683.7 L 984.8 684.2 L 984.9 685.9 L 985.8 686.8 L 987.9 687.6 L 990 687.5 L 992.2 686.6 L 995.3 686.3 L 999.3 686.6 L 999.1 687.6 L 999.4 688.1 L 998.4 688.1 L 996.8 688.2 L 995.5 688.6 L 996 689.4 L 998 689.6 L 999.6 690.2 L 1002 690.7 L 1004 691.1 L 1004.6 691.5 L 1004.7 691.7 L 1004.2 691.9 L 1002.3 691.9 L 1001 691.8 L 999.4 691.4 L 993.8 689.8 L 991.9 688.8 L 990.8 688.9 L 990.3 689.3 L 989 689.7 L 987 690.1 L 986.2 690.8 L 986.3 691.7 L 985.7 691.9 L 984.5 691.1 L 981.9 690.3 L 979.3 689.5 L 978.8 688.7 L 976.2 687 L 976 686.4 L 976 686.4 L 976 686.4 Z" />
<path class="lake" d="M 992 812.2 L 990.6 812.9 L 990.1 812.2 L 989.1 810.4 L 987.1 808.4 L 985.3 807.4 L 983.6 803.4 L 979.8 800.2 L 979.9 798.6 L 982.6 797.2 L 986.5 796.3 L 991.1 796.1 L 994.4 796.6 L 995.7 798 L 997 805 L 997.2 806.7 L 996.7 807.5 L 995.7 807.8 L 992.3 810.4 L 991.9 811.4 L 992 812.2 Z" />
<path class="lake" d="M 1106.1 999.6 L 1106 1000.1 L 1104.2 999.9 L 1104 999.5 L 1103.6 998.7 L 1102.3 998.3 L 1099.9 998.2 L 1098 997.6 L 1097 997.1 L 1095 995.9 L 1090.6 993.8 L 1088.3 992.9 L 1085.8 991.7 L 1080.3 989.5 L 1080 988.7 L 1081.4 988.4 L 1084.7 988.9 L 1086.1 989.4 L 1089.5 990.4 L 1091.7 991.3 L 1095.2 992.2 L 1096.2 991.8 L 1095.8 990.5 L 1095.9 989 L 1096.8 988.6 L 1097.7 990.1 L 1099.9 991.7 L 1103 994.3 L 1104.8 995.9 L 1106.7 997.6 L 1106.6 998.1 L 1106.1 999.6 L 1106.1 999.6 L 1106.1 999.6 Z" />
<path class="lake" d="M 991.4 756.7 L 989.2 756.1 L 987.4 755.5 L 987.4 755 L 987.9 754.8 L 989.6 755.6 L 992.3 755.8 L 994.5 755.3 L 994.8 754.3 L 995.2 753.9 L 996.3 754.1 L 997 754.6 L 997.7 755.8 L 995.6 756.5 L 991.4 756.7 L 991.4 756.7 L 991.4 756.7 Z" />
<path class="lake" d="M 1030.8 717.4 L 1031.8 718.1 L 1032.7 718.1 L 1033.1 717 L 1032.1 715.2 L 1031.3 714.1 L 1031.8 713.7 L 1033.3 715.1 L 1036.4 717.3 L 1038 718.9 L 1037.7 720.2 L 1036.3 720.9 L 1034.8 721.2 L 1033.9 720 L 1032.2 719.3 L 1030.5 718.2 L 1029.8 717.1 L 1030.2 716.9 L 1030.8 717.4 L 1030.8 717.4 L 1030.8 717.4 Z" />
<path class="lake" d="M 1025.9 720.7 L 1025.7 719.4 L 1027.2 718.7 L 1028.2 719.9 L 1029.1 720.4 L 1030.7 720.1 L 1031.8 720.7 L 1030.5 722.1 L 1028.1 721.7 L 1025.7 721.9 L 1025 721.2 L 1025.9 720.7 L 1025.9 720.7 L 1025.9 720.7 Z" />
<path class="lake" d="M 1143.7 704.4 L 1143.7 704.4 L 1143.7 704.4 L 1143.7 704.4 L 1146.4 704.9 L 1148.5 704.7 L 1151.1 704.7 L 1151.9 705.6 L 1151.2 705.9 L 1147.4 706.5 L 1147 707 L 1145.5 706.9 L 1144.4 706.6 L 1143 706 L 1140.8 705.3 L 1140 705.9 L 1141.1 708.8 L 1142.5 711.1 L 1142.6 712.3 L 1142.3 714.1 L 1141.6 715.7 L 1140.7 716.4 L 1140.6 715.9 L 1140.7 715.2 L 1140.7 714.5 L 1140.9 713.9 L 1141.4 713.6 L 1141.2 712.6 L 1140.6 711.2 L 1140.4 710.2 L 1140.1 709.1 L 1139.4 708.1 L 1137.4 706.6 L 1134.3 705.4 L 1133.6 704.9 L 1133.8 704.5 L 1132.3 702 L 1130.4 700.5 L 1129.3 700.6 L 1128.5 701.4 L 1127.5 702.2 L 1127.4 701 L 1128.9 698.9 L 1130.1 697.4 L 1131.8 697.5 L 1134.5 698.1 L 1136.2 698.7 L 1135.6 699.1 L 1140.5 700.1 L 1140.6 700.7 L 1143.2 702.8 L 1143.1 703.2 L 1142.5 703.7 L 1143.7 704.4 Z" />
<path class="lake" d="M 1111.7 705.7 L 1114.6 704.8 L 1115.7 705 L 1116.1 705.9 L 1116.9 706.4 L 1120 705.8 L 1121.7 706.2 L 1122.9 708.7 L 1124.4 710.1 L 1123.4 710.7 L 1121 710.9 L 1117 710.9 L 1114.4 710.6 L 1112.9 710.3 L 1108.9 709 L 1108.3 708.3 L 1108.3 707.8 L 1108.5 707 L 1107.9 706.1 L 1109.9 706.1 L 1111.7 705.7 L 1111.7 705.7 L 1111.7 705.7 Z" />
<path class="lake" d="M 1053.9 717.3 L 1053.5 716 L 1054.1 715.4 L 1055.4 715.3 L 1055.9 714.5 L 1057 713.7 L 1058.5 714.2 L 1058.8 715.7 L 1056.7 717.5 L 1055.6 717.8 L 1055 718.7 L 1055.2 719.1 L 1055 719.5 L 1054.5 719.3 L 1051.8 719.2 L 1051.4 719.1 L 1052.6 718.4 L 1053.9 717.3 L 1053.9 717.3 L 1053.9 717.3 Z" />
<path class="lake" d="M 1041.4 708.8 L 1041.7 709.2 L 1040.9 709.3 L 1040.7 710.1 L 1041.5 711.9 L 1044.4 715.3 L 1048.3 718.2 L 1048 718.6 L 1046.2 718.7 L 1044.5 720.4 L 1043.4 720.3 L 1044.7 719 L 1046 717.4 L 1044.4 716.2 L 1042.9 715.9 L 1042.2 715.6 L 1038.6 713 L 1037.8 711.8 L 1033.3 711.5 L 1032 711.1 L 1029.2 711 L 1027.3 709.5 L 1026 708.2 L 1023.7 706.5 L 1022.1 705.1 L 1022.7 704.4 L 1022.8 703.3 L 1023.1 703.1 L 1025 704.3 L 1027.5 705.4 L 1028.8 705.8 L 1031.9 707.1 L 1035.9 708.3 L 1037.2 708.7 L 1038.1 708.8 L 1039.8 708.3 L 1041.4 708.8 L 1041.4 708.8 L 1041.4 708.8 Z" />
<path class="lake" d="M 1065.4 651.4 L 1065.4 651.4 L 1065.4 651.4 L 1065.4 651.4 L 1066.2 652.4 L 1066.8 653.5 L 1067.6 654.5 L 1068.8 655.3 L 1068 655.6 L 1065.1 655.4 L 1060.9 654.3 L 1054.8 652.6 L 1055.9 650.9 L 1056.3 649.8 L 1057.6 648.9 L 1059.9 648.3 L 1062.6 648.1 L 1064.1 648.6 L 1065.5 650.8 L 1065.4 651.4 Z" />
<path class="lake" d="M 1092.9 663.1 L 1092.9 663.1 L 1092.9 663.1 L 1092.9 663.1 L 1095.9 664.3 L 1096.3 664.8 L 1096.8 665.5 L 1096.7 666.1 L 1095.9 666.1 L 1095.3 665.5 L 1092.1 664.4 L 1087.9 663.7 L 1084.5 662.9 L 1082.2 662.4 L 1081.2 661.8 L 1081.2 661.3 L 1080.2 661 L 1079.2 660.9 L 1076.9 660.3 L 1073.6 659 L 1072.3 657.8 L 1076.1 656.5 L 1082 655.9 L 1083.4 656.1 L 1084.7 657 L 1085.2 658 L 1086.5 658.4 L 1089 659.7 L 1089.7 660.4 L 1089.7 661.2 L 1090 662.2 L 1091 663 L 1092.9 663.1 Z" />
<path class="lake" d="M 1059.3 735.6 L 1059.3 734.9 L 1058.9 734.1 L 1058.9 733.4 L 1060.4 733.4 L 1061.4 733.8 L 1063 735.7 L 1062.4 736.6 L 1060.7 736.7 L 1059.6 736.3 L 1059.3 735.6 L 1059.3 735.6 L 1059.3 735.6 Z" />
<path class="lake" d="M 1072.8 811.9 L 1071 812.4 L 1070 813.7 L 1065.1 813.1 L 1059.4 812.2 L 1059 811.7 L 1061 810.8 L 1062.3 810.1 L 1063.6 809.9 L 1065.4 809.3 L 1067.1 807.9 L 1068 806.9 L 1069.6 807.9 L 1070.7 808.1 L 1072.4 808.7 L 1072.5 809 L 1074.9 808.7 L 1075.3 809.1 L 1075.1 809.4 L 1075.1 810.3 L 1076 812.5 L 1074.8 812.4 L 1072.8 811.9 L 1072.8 811.9 L 1072.8 811.9 Z" />
<path class="lake" d="M 298.2 883.4 L 298.8 883.5 L 301.6 883.7 L 302.6 884.7 L 302.4 885.8 L 301 887.4 L 300.9 887.9 L 299.4 887.9 L 296.7 887.6 L 296.2 886.7 L 297.1 885.4 L 297.7 883.9 L 298.2 883.4 L 298.2 883.4 L 298.2 883.4 Z" />
<path class="country" d="M 738.9 375 L 746.6 368.1 L 776.5 367.4 L 802.2 374.5 L 869.3 389.7 L 818 397.7 L 806.7 412.7 L 788.8 416.5 L 779.1 433.4 L 754.6 434.2 L 710.8 421.8 L 729.2 414.5 L 698.7 408.6 L 659 391.4 L 643.2 375.5 L 698.7 368.2 L 709.9 375.3 L 738.9 375 Z M 1064 581.1 L 1029.3 589.3 L 1012.9 591.2 L 1021.5 576.9 L 995.4 568.8 L 963.7 575.7 L 953.7 590.6 L 934.3 599.6 L 912.4 594.7 L 885.8 595.7 L 863.2 585 L 851 590.3 L 838.4 591.2 L 835.4 604.6 L 797 601.3 L 791.6 612.7 L 772 612.6 L 758.6 627.1 L 738.2 649.7 L 706.5 678.3 L 714 685.3 L 706.9 693.4 L 686.7 693 L 673.4 712.1 L 674.7 739.2 L 687.7 749.5 L 681 773.5 L 664 787.4 L 655 799.2 L 641.4 786.7 L 601.1 810.2 L 574 815 L 545.8 804.6 L 538.5 782.7 L 532.1 735.7 L 550.8 722.6 L 604.6 705.5 L 644.9 684.5 L 682.2 656.1 L 731.1 616.7 L 765.2 601.4 L 821.2 575.8 L 865.9 566.9 L 899.4 568 L 930.5 551.1 L 967.6 552 L 1004.2 548 L 1067.9 562.9 L 1041.7 568.3 L 1064 581.1 Z M 988.8 367.2 L 958.5 378.2 L 899.5 380.6 L 839.4 377.2 L 835.7 371.6 L 806.5 371.2 L 784.2 361.9 L 847.1 356.2 L 876.7 361.1 L 897.3 355 L 948.8 360.1 L 988.8 367.2 Z M 934.1 412.1 L 888.6 420.4 L 852.6 415.7 L 866.7 410.5 L 854.4 403.9 L 896.6 399.9 L 904.7 407.5 L 934.1 412.1 Z" />

<path class="river" d="M 765.2 772.7 L 762.9 773.4 M 785.2 765.5 L 784.6 766.5 L 781.7 767.7 L 776.3 769.4 L 773.3 770.7 L 772.8 771.6 L 771 772.1 L 766.5 772.5 M 726.8 755.5 L 728.5 757.1 L 730.4 757.9 L 733.3 758.6 L 734.9 759.4 L 735.4 761 M 709.8 747 L 708.9 745.9 L 707.3 745.3 L 704.6 744.6 L 702.3 743.7 L 699.5 742" />
<path class="river" d="M 1113.7 1044.2 L 1115.1 1043.4 L 1116.2 1041.6 L 1117.7 1039.7 L 1120.2 1037.7 L 1122.6 1034.5 L 1123 1032.3 L 1126.2 1030.7 L 1132.2 1029.7 L 1137.6 1029.5 L 1142.3 1030.1 L 1145.2 1030 L 1146.3 1029 L 1146.5 1027.3 L 1145.6 1023.6 M 1106.6 998.1 L 1100.3 995.4 L 1094.6 993.8 L 1080 988.7 M 1070.9 979.6 L 1071.7 981 L 1071.9 982.2 L 1071.5 984.6 M 1051.9 954.8 L 1051.3 961.2 L 1051.3 964.3 L 1052.1 967.4" />
<path class="river" d="M 1288.3 1028.5 L 1292.2 1027.3 L 1295.9 1025.9 L 1299.6 1024.5 L 1303 1023.7 L 1304 1022.7 L 1304.9 1021.1 L 1307.3 1016.6 L 1309.1 1014.4 L 1311.3 1012.4 L 1315.8 1009.4 L 1317.2 1007.8 L 1317.1 1007 L 1316.2 1006.1 L 1315.9 1005.3 L 1316.1 1004.7 L 1317.1 1003.6 L 1318.8 1002.2 L 1320.5 1001.4 L 1322.2 1001.4 L 1323.6 1001 L 1324.7 1000.6 L 1325.2 999.8 L 1325.5 998.5 L 1326.5 997.2 L 1325.9 996.2 L 1324.9 995.8 L 1322.4 995.8 L 1321.7 995.7 L 1320.9 994.9 L 1320.7 993.3 L 1319.9 991.8 L 1318.7 990.1 L 1317.6 989.6" />
<path class="river" d="M 988.3 638 L 991 640 L 990.9 641 L 988.9 641.6 L 987.9 642.4 L 987.8 644.1" />
<path class="river" d="M 1062.8 776.9 L 1065.6 776.2 L 1067.5 774.8 L 1070.4 771.1" />
<path class="river" d="M 616.3 1027.1 L 611.3 1027.3 M 617.5 1027.1 L 625 1030.3" />
<path class="river" d="M 1226 778.5 L 1235.1 783.7 L 1238.9 785.4 L 1241.2 785.5" />
<path class="river" d="M 1070.4 771.1 L 1074.1 767.6 L 1078.2 765.3 L 1084.1 763.1 L 1089.6 762.5 L 1094.8 763.7 L 1096.8 764.8 L 1099.1 766" />
<path class="river" d="M 813.6 981.1 L 816.2 981" />
<path class="river" d="M 1360.7 975.1 L 1364.1 972.3 L 1364.2 970.3 L 1362.1 968 L 1361 966.4 L 1360.9 965.4 L 1362.3 964.5 L 1365.2 963.7 L 1367.2 962.8 L 1368.2 961.9 L 1368.4 960.7 L 1368 959.2 L 1366.9 957.9 L 1365.1 956.7 L 1364.2 955.4 L 1364.2 953.9 L 1364.9 952.7 L 1366.2 951.6 L 1367 950.6 L 1367.1 949.8 L 1368.2 948.9 L 1370.2 948.1 L 1372 946.7 L 1373.5 944.8 L 1375 944 L 1377.3 943.5 L 1379.1 943.9 L 1381.4 944.1 L 1383.3 944 M 1429.9 867.9 L 1434.5 873 L 1433.7 875.4 L 1429.2 877 L 1426.6 879.6 L 1426.2 883.1 L 1424.2 885.5 L 1420.8 886.8 L 1418.6 888.1 L 1417.9 889.5 L 1417.5 891.1 L 1417.6 892.9 L 1420.2 895.4 L 1425.3 898.5 L 1427.9 901.6 L 1428.2 904.6 L 1428.8 906.7 L 1429.7 907.8 L 1430.8 908.6 L 1432.9 909.1 L 1440.2 909 L 1447.1 909.2 M 1315.2 843.6 L 1313.4 842.4 L 1312.3 840.8 L 1311.1 838.3 L 1310 836.5 L 1308.9 835.5 L 1308.2 834.6 L 1308.1 833.8 L 1308.5 832.6 L 1310.1 830.3 L 1303.9 828.6 L 1300.8 828.2 L 1297.8 828.5 M 1187.3 842 L 1181.8 841.4 L 1178.8 842.1 L 1176.5 843.8 L 1174.4 844.3 L 1171.4 843 M 1199.7 831.1 L 1203.4 830.6 L 1206.2 829.2 L 1210.7 825.3 M 1272.7 826.9 L 1269.9 826.4 L 1267.7 825 L 1265.2 822.4 L 1263.4 821 L 1262.4 820.7 L 1259.7 820.9 L 1255.4 821.6 L 1251.3 822.8 L 1245.5 825.4 M 1213.5 816.2 L 1211.2 814.9 L 1211.1 813.6 L 1212.9 810.7 L 1218.9 814.3" />
<path class="river" d="M 657.9 788.3 L 658.6 787 L 658.6 786.1 M 658.5 782.6 L 658.4 781.6 L 657.7 779.3 L 657.7 777.7" />
<path class="river" d="M 1051.3 764.2 L 1047.6 762.5 L 1043.9 762.1 L 1039 762.2 L 1035.7 762.1 L 1033.4 761.3 M 1052.5 763 L 1055 762.6 L 1057.7 762.9 L 1061.5 763.8 L 1065.2 765.9 L 1070.3 771.1" />
<path class="river" d="M 765.2 772.7 L 766.5 772.5 M 785.2 765.5 L 786 762.8 M 735.4 761 L 736.9 761.4 L 737.1 762 L 736.6 763 L 736.9 763.8 L 738.1 764.5 L 740.2 764.9 L 743 764.8 L 745.7 765.6 L 748.4 767.1 L 751.3 767.7 L 754.4 767.5 L 756.5 767.9 L 757.5 769 L 757.8 770.2 L 757.4 771.4 L 758.6 772.3 L 762.9 773.4 M 709.9 747.1 L 710 748.7 L 710.3 749.4 L 710.9 749.7 L 714.6 750 L 716.3 750.7 L 717.5 751.8 L 720.3 753.1 L 726.8 755.5 M 676.8 732.1 L 679.2 731.9 L 680.8 732.7 L 683.2 735.1 L 699.5 742" />
<path class="river" d="M 780.9 1019.1 L 786.5 1022.6 L 789.7 1024.2 L 792.2 1025 L 800.1 1025.2 L 812.4 1024.7 L 813.3 1024.2 L 817.5 1024 L 818.9 1024.3 L 819.6 1024.8 L 820 1025.8 L 820 1026.3 L 819 1029.5 L 818.7 1030.9 L 818.1 1032.3 L 816.6 1033.3 L 815.6 1035.4 L 815.1 1037.6 L 816 1039 L 816.1 1040 L 816.2 1040.7 L 816.2 1043.1 L 816.3 1044.7 L 817.1 1046 L 816.8 1047.1 L 815.3 1048.1 L 814.9 1049.2 L 815.5 1050.3 L 815.8 1052.5 L 815.8 1055.6 L 814.6 1058 L 812.3 1059.8 L 811.9 1060.8 L 812.6 1062.4 L 814.2 1064.4 L 815.3 1065.8 L 816.4 1068.1 L 815.8 1069.2 L 816.5 1070.1 L 818.6 1070.7 L 818.8 1071 L 818.1 1071.2 L 817.6 1072 L 817.6 1073.3 L 819.4 1074.6 L 823 1075.8 L 827.1 1076.5 L 831.7 1076.7 L 834.3 1076.5 L 835.1 1076 L 835.9 1076.2 L 837 1077.1 L 838.8 1077.7 L 841.2 1077.8 L 843 1078.4 L 843.6 1078.9 L 844.3 1079.5 L 844.7 1080.7 L 844.5 1082.1 L 845 1083.3 L 846.4 1084.2 L 848 1084.7 L 849.9 1084.6 L 850.8 1085 L 850.8 1085.8 L 851.4 1086.7 L 852.7 1087.7 L 856.4 1087.4 L 865.5 1085 L 868.9 1085.7 L 870.4 1086.4 L 871.2 1087.4 L 873.3 1088 L 876.7 1088.3 L 879.1 1089.2 L 880.5 1090.8 L 882.7 1090.4 L 885.7 1088.1 L 888.7 1087.4 L 891.7 1088.6 L 893.3 1089.5 L 893.5 1090.2 L 892.9 1090.5 L 891.2 1090.4 L 889.9 1090.8 L 888.8 1091.9 L 888.7 1093 L 889.4 1094.1 L 890.4 1094.9 L 891.8 1095.4 L 892.5 1096 L 892.6 1096.8 L 894.4 1097.9 L 897.8 1099.2 L 899.5 1100.2 L 899.5 1100.9 L 898.7 1101.5 L 897.2 1102.1 L 896.3 1102.9 L 896 1103.9 L 896.3 1104.6 L 897.3 1105.2 L 903.5 1104.4 L 909.9 1104.8 L 918.3 1106.2 L 924 1106.7 L 928.1 1106 L 943 1108.2 L 949.8 1108.5 L 953.7 1107.7 L 956.4 1106.6 L 958.7 1104.5 L 964.5 1101.7 L 970 1100.1 L 977.4 1098.9 L 982.2 1098.4 L 985 1098.9 L 985.9 1099 L 987.3 1099.1 L 988.9 1099 L 992.6 1098.2 L 998 1096.5 L 1001.3 1094.9 L 1002.5 1093.3 L 1002.5 1092.1 L 1001.5 1091.4 L 1001.1 1090.5 L 1001.3 1089.4 L 1000.7 1088.3 L 998.9 1087.2 L 998.3 1086.7 L 997.8 1086.2 L 997.4 1085.6 L 997.4 1084.9 L 998 1084.2 L 998.7 1082.1 L 999.3 1078.6 L 1000.1 1076 L 1001.1 1074.2 L 1002.4 1073 L 1005.2 1072.3 L 1007.3 1074.4 L 1010 1075.5 L 1016.3 1076.7" />
<path class="river" d="M 1083.9 838.9 L 1083.6 839.5 L 1084.3 839.8 L 1085.9 840 L 1087.2 840.6 L 1088.8 842.1 L 1087.9 844.9 L 1087.1 846.1 L 1086.1 846.5 L 1085.1 847.6 L 1084.1 849.3 L 1083.8 850.9 L 1084.2 852.5 L 1083.7 853.4 L 1082.4 853.8 L 1081.8 854.4 L 1082 855.4 L 1079.8 856 L 1075 856 L 1071.7 856.6 L 1069.9 857.6 L 1069.7 859.6 L 1071.1 862.7 L 1070.4 864.4 L 1067.6 864.7 L 1065.4 865.5 L 1063.1 867.4 L 1054.7 868.8 L 1049.9 870.2 L 1045.9 871.9 L 1045 872.9 L 1044.6 873.8 L 1043.4 874 L 1040.1 873.6 L 1037.8 873.6 L 1036.6 873.9 L 1036 874.4 L 1035.9 875.1 L 1035.2 875.4 L 1033.8 875.2 L 1032.5 875.5 L 1031.2 876.3 L 1030.4 876.3 L 1030.1 875.5 L 1029.5 875 L 1028.4 875 L 1027.6 874.6 L 1027.1 873.7 L 1025.3 872.5 L 1022.4 871 L 1021.2 870 L 1021.1 869.4 L 1019.5 868.5 L 1015.6 867.1 L 1011.1 866.2 L 1006.1 865.9 L 1002.6 865.1 L 1000.5 863.8 L 999.4 862.7 L 999.1 861.5 L 998.4 861.1 L 997.9 861 L 996 861.3 L 992.8 861.5 L 989.8 861.4 L 987.6 860.8 L 980.8 859.4 L 976.6 859.2 L 972.7 859.8 L 970 859.4 L 968.5 858.1 L 967.5 856.6 L 967 854.9 L 966.1 853.7 L 964.7 853.1 L 963.8 852 L 963.5 850.4 L 961.4 848.8 L 957.6 847.3 L 955.6 846.1 L 955.2 845.2 L 954.2 844.9 L 952.4 845.4 L 950.6 845.3 L 948.7 844.8 L 947 844.7 L 945.3 845.2 L 943.3 845.2 L 940.8 844.9 L 937.5 843.7 L 933.4 841.8 L 929.6 840.5 L 926.3 839.9 L 923.8 839.1 L 922.3 838.3 L 921.2 837.3 L 920.4 835.6" />
<path class="river" d="M 1117.7 859.9 L 1119.4 860.9 L 1119.5 861.4 L 1118.7 861.8 L 1119.1 862.2 L 1120.5 862.6 L 1120.8 863.2 L 1119.9 864.3 L 1118.3 866.1 L 1117 866.6 L 1115.4 866.4 L 1114.6 867.6 L 1114.7 870.1 L 1114.3 871.9 L 1113.4 872.8 L 1112.3 874.8 L 1110.7 879.4" />
<path class="river" d="M 1051.3 1059 L 1051.6 1059.3 M 895.8 994.5 L 900.6 990.6 L 906.9 988.7 L 911.3 988.5 L 916.1 989.3 L 919.7 990.2 L 922.2 991.1 L 924 992.4 L 925.1 994.1 L 926.7 995 L 928.8 995.1 L 931.4 996.3 L 934.5 998.3 L 936.7 999.4 L 937.9 999.4 L 939.4 1000 L 942.2 1001.6 L 942.9 1002.4 L 943.5 1002.4 L 944 1002.3 L 944.4 1002.7 L 944.8 1003.2 L 945.9 1003.2 L 946.6 1003.4 L 947.8 1003.1 L 950.3 1003.9 L 953.3 1006.3 L 954.6 1006.9 L 955.6 1006.9 L 956.6 1007.1 L 957.9 1008 L 959.2 1008.1 L 960.2 1007.8 L 960.8 1007.8 L 961.5 1008.7 L 962 1008.9 L 962.7 1008.7 L 963.5 1009.2 L 965.2 1009.6 L 968.2 1009.4 L 970.2 1009.8 L 971.4 1010.7 L 972.1 1010.8 L 972.5 1010.3 L 973.1 1010.1 L 973.7 1009.8 L 974.2 1009.4 L 974.8 1009.1 L 975.5 1008.9 L 976.1 1008.8 L 976.5 1008.5 L 977.1 1008.5 L 978.1 1009 L 980.4 1008.9 L 986 1008.1 L 989.3 1008.5 L 990.2 1010 L 992.1 1010.9 L 995 1011.2 L 997.2 1011.9 L 998.6 1012.9 L 1000.1 1013.5 L 1001.6 1013.8 L 1002.5 1014.3 L 1002.6 1015.1 L 1004.1 1015.5 L 1006.8 1015.5 L 1007.9 1016 L 1007.5 1017.1 L 1007.8 1017.4 L 1008.7 1017 L 1009.4 1017.4 L 1009.8 1018.1 L 1010.3 1018.5 L 1010.9 1018.4 L 1011.8 1018.2 L 1012.5 1018.9 L 1012.5 1019.8 L 1013.1 1020.2 L 1014.1 1020 L 1016.4 1020.6 L 1019.9 1022.4 L 1021.4 1024.5 L 1021.1 1026.9 L 1021.6 1028.8 L 1022.8 1030.5 L 1023.3 1031.6 L 1023 1032.1 L 1023.3 1032.7 L 1023.6 1033.2 L 1023.6 1033.8 L 1023.3 1034.4 L 1024.3 1035.9 L 1024.1 1037 L 1023.9 1037.6 L 1024 1038 L 1024.7 1038 L 1025.6 1037.8 L 1026.6 1037.7 L 1027.6 1038.4 L 1028.5 1039.4 L 1028.5 1040.1 L 1027.7 1040.6 L 1027.3 1041 L 1027.5 1041.4 L 1029.8 1041.6 L 1030.8 1042.5 L 1031.4 1044.2 L 1032.1 1044.8 L 1033.2 1044.2 L 1034.1 1044.5 L 1035 1045.7 L 1035.3 1046.5 L 1034.9 1047 L 1035.3 1047.6 L 1036.4 1048 L 1036.8 1048.4 L 1036.9 1048.8 L 1037.6 1049.3 L 1039.5 1049.8 L 1044.2 1052.5 L 1046.1 1052.4 L 1046.8 1052.9 L 1047.1 1054.6" />
<path class="river" d="M 1094.1 1048.5 L 1095.5 1047.9 L 1101.3 1046.5 L 1104.1 1045.6 L 1107.5 1045.3 L 1110 1045.1 L 1111.9 1044.6 L 1113.7 1044.2 M 1145.6 1023.6 L 1146.1 1020.9 L 1145.8 1019.6 L 1145 1018.7 L 1145.2 1018.1 L 1146.5 1017.9 L 1147.2 1017.3 L 1147.4 1016.3 L 1146.9 1014.6 L 1145.7 1012.3 L 1142.6 1010.6 L 1139.7 1010.3 L 1137.5 1009.5 L 1131.4 1007.3 L 1127.7 1005.3 L 1124.4 1003.9 L 1117.3 1001.1 L 1113 999.8 L 1110.1 998.6 L 1106.6 998.1 M 1080 988.7 L 1076 987 L 1071.4 984.6 M 1070.9 979.6 L 1066.9 980 L 1063.4 979.1 L 1059 977 L 1056 975.1 L 1054.3 973.2 L 1053.1 971.1 L 1052.1 967.4 M 1110.7 879.4 L 1104.9 878 L 1102.2 877.7 L 1100.7 878 L 1099.1 878.6 L 1097.4 879.4 L 1096.3 880.4 L 1096 881.4 L 1094.8 882.6 L 1092.7 884 L 1090.1 883.9 L 1086.8 882.5 L 1082.4 882.3 L 1074.1 883.7 L 1061.4 884.8 L 1056.2 885.6 L 1054.2 886.6 L 1052.8 887 L 1051.9 886.8 L 1051 887.2 L 1050 888 L 1048.9 889.4 L 1047.8 891.5 L 1048.1 894.3 L 1049.8 898.1 L 1049.9 900.2 L 1048.2 900.6 L 1047.2 902.1 L 1046.9 904.9 L 1047.4 907.8 L 1049.1 912.4 L 1047.3 913.4 L 1046.9 914.3 L 1047.4 915.5 L 1046.7 916 L 1044.9 916 L 1043.4 916.4 L 1042.3 917.4 L 1042.3 919.4 L 1043.2 922.4 L 1044.5 924.4 L 1046.1 925.4 L 1046.8 926.5 L 1046.7 927.5 L 1047.3 928.5 L 1048.5 929.4 L 1049 930.1 L 1048.7 930.5 L 1049.7 931.1 L 1051.8 931.9 L 1052.7 932.6 L 1052.3 933.3 L 1053.5 934.8 L 1056.3 937.2 L 1057.8 938.9 L 1058 940 L 1057.3 941 L 1055.8 942 L 1054.3 943.6 L 1052.8 945.8 L 1052.7 948.1 L 1054.1 950.5 L 1054 952.5 L 1051.9 954.8" />
<path class="river" d="M 1288.3 1028.5 L 1286.4 1029.3 L 1283.1 1029.2 L 1281.1 1028.7 L 1277.8 1028.5 L 1274 1028.5 L 1271.7 1029.2 L 1269.4 1029.6 L 1267.2 1029.5 L 1265.9 1029.2 L 1265.5 1028.5 L 1265.1 1028.3 L 1264.2 1028.8 L 1257.3 1030.7 L 1253.7 1032.5 L 1251.1 1034.9 L 1247.6 1036.2 L 1243.3 1036.3 L 1239 1036.9 L 1232.6 1038.5 L 1230.9 1038.6 M 1317.6 989.6 L 1314.2 990.1 L 1312.9 990.7 L 1312.6 991.7 L 1311.6 992.5 L 1309.8 993.3 L 1308.4 993.4 L 1307.3 992.8 L 1306.8 992.2 L 1306.8 991.6 L 1305.5 991 L 1303.1 990.4 L 1302.3 989.5 L 1301.7 988.3 L 1300.9 988.1 L 1299.2 988.4 L 1295.2 988.2 L 1292.1 987.8 L 1286.2 987.5 L 1282.6 987.8 L 1280.2 987.4 L 1275.2 987.5 L 1273.4 988 L 1272.1 988 L 1271.2 987.6 L 1271 987.1 L 1271.6 986.8 L 1271.4 986.1 L 1270.5 985 L 1268.5 984.3 L 1265.6 983.9 L 1264.1 983.1 L 1263.9 982.1 L 1263.4 981.2 L 1262.6 980.5 L 1261.2 980.3 L 1259.1 980.7 L 1258.4 980.5 L 1258 980.1 L 1257.5 979.1 L 1255.5 977.1 L 1254.1 976.8 L 1253.2 977.9 L 1251.9 978.3 L 1249.3 977.6 L 1246.1 977.5 L 1245.3 976.9 L 1245.9 975.8 L 1245.9 974.7 L 1245.1 973.7 L 1245.3 972.6 L 1246.6 971.3 L 1246.1 969.9 L 1243.7 968.4 L 1243.4 967 L 1242.9 966.4 L 1241.1 965.5 L 1240.4 964.7 L 1240.6 963.8 L 1241.1 963.4 L 1241.5 962.6 L 1241 961.8 L 1240.7 960.9 L 1240.8 960.2 L 1240.1 960 L 1238.7 960.1 L 1235.4 960 L 1230.4 959.5 L 1227.9 958.7 L 1227.9 957.8 L 1228.6 957 L 1230.2 956.3 L 1230.3 955.7 L 1229 955.1 L 1228.5 954.4 L 1228.2 953.2 L 1227.6 951.8 L 1226 950.5 L 1226 949.5 L 1226.1 948.9 L 1225.7 948.2 L 1225.3 947.7 L 1225.2 947.1 L 1225.7 946.5 L 1225.9 945.8 L 1225.6 945.2 L 1226.2 943.8 L 1227.4 941.7 L 1227.8 940.2 L 1227.6 938.6 M 1227.6 938.5 L 1228 937.8 L 1228.3 937.1 L 1228.1 936.3 L 1226.9 935.2 L 1224.7 933.8 L 1224.1 933 L 1224.1 932.2 L 1223 929.9 L 1223.5 927.1 L 1223.6 925.3 L 1223.1 924.5 L 1224.2 922.7 L 1226.8 919.7 L 1228.1 916.1 L 1228 911.7 L 1227.2 909.3 L 1226.1 907.9 L 1225.4 907 L 1224.9 906.7 L 1222.3 905.9 L 1217.6 904.5 L 1215.4 903.1 L 1215.6 901.8 L 1215.3 900.9 L 1214.3 900.4 L 1210.8 896.8" />
<path class="river" d="M 597.8 1019.4 L 603.3 1021.8 L 607.5 1021.6 L 610.4 1020.8 L 613.3 1019.3 L 616.4 1018.6 L 619.7 1018.8 L 622.3 1018 L 624.1 1016.2 L 625.7 1015.4 L 627.2 1015.4 L 629.7 1014.5 L 633.3 1012.4 L 636.7 1011.1 L 640 1010.5 L 641.9 1009.8 L 642.6 1009.1 L 644.8 1008 L 648.6 1006.5 L 655 1005.4 L 668.4 1004.2 L 670.1 1002.6 L 671.8 1001.9 L 674.1 1001.5 L 675.3 1000.8 L 675.5 999.4 L 679.8 999.6 L 682.2 1000.1 L 685.2 1001.5 M 780.9 1019.1 L 780.1 1018 L 779 1017.4 L 777.3 1016.9 L 774.2 1016.8 L 769.8 1017.1 L 766.3 1016 L 763.7 1013.7 L 760.6 1012.6 L 757 1012.8 L 753.5 1012.6 L 750.1 1012 L 747.6 1011.7 L 746.2 1011.9 L 744.8 1012.8 L 743.3 1014.5 L 741.4 1015.7 L 739 1016.3 L 736.7 1016.3 L 734.6 1015.7 L 732.5 1015.7 L 730.4 1016.3 L 727.5 1015.9 L 723.7 1014.4 L 720.6 1013.7 L 717.9 1013.6 L 716.3 1013.2 L 715.8 1012.2 L 713 1010.9 L 705.1 1008.5 L 701.7 1008.1 L 699.3 1007.4 L 696.9 1006.3 L 695.3 1005.1 L 694.6 1003.9 L 693.4 1003.3 L 691.5 1003.3 L 689.2 1002.8 L 685.2 1001.4" />
<path class="river" d="M 712 1038.9 L 723.1 1037.7 L 725.9 1036.5 L 728.2 1036.1 L 730.9 1036.4 L 733.1 1035.7 L 734.9 1034.2 L 737.2 1033.2 L 738.9 1032.6 L 740.2 1032.5 L 742.1 1032.7 L 743 1033.6 L 743.2 1034.3 L 742.6 1034.6 L 742.4 1035.6 L 742.7 1037.2 L 743.3 1038.2 L 744.4 1038.8 L 745.7 1040.8 L 747.4 1044.2 L 747.8 1045.5 L 748.8 1046.1 L 750.3 1046.4 L 757.2 1047.6 L 760.7 1049.5 L 762.9 1050.2 L 765.1 1050.4 L 768 1051.2 L 771.6 1052.6 L 774.1 1054.2 L 775.5 1055.9 L 777.4 1057.3 L 779.8 1058.2 L 781.7 1059.5 L 783 1061.2 L 785 1062.1 L 787.5 1062.3 L 789.1 1062.8 L 789.8 1063.8 L 791.1 1064.6 L 793.2 1065.4 L 796.4 1065.8 L 802.9 1065.9 L 808.3 1068.7 L 811.6 1069.8 L 816.5 1070.1" />
<path class="river" d="M 747.8 965.5 L 748.5 967.1 L 749.3 967.9 L 750.4 968.3 L 750.9 969 L 751 969.7 L 751.9 970.6 L 753.6 971.6 L 754 972 L 754.1 972.9 L 753.2 974.1 L 752.7 975.6 L 752.6 977.4 L 749.8 978.5 L 744.1 979 L 740.8 978.9 L 739.2 978.1 L 737.8 976.5 L 735.3 975.9 L 731.5 975.9 L 728.5 975.1 L 725.2 972.6 L 723.5 970.7 L 722.4 970.2 L 721.2 970.6 L 720.5 970.3 L 720.1 969.4 L 719.2 969 L 717.8 969 L 716.9 968.7 L 716.4 968 L 716.4 967.6 L 716.9 967.3 L 717 967 L 717 966.5 L 717.3 966.1 L 718.9 965.6 L 719.7 964.3 L 719.9 962.3 L 718.4 960.9 L 715.1 960.2 L 713 959.4 L 712.1 958.4 L 710.4 957.6 L 707.9 957.1 L 705.9 956.3 L 704.3 955.4 L 703.3 954.4 L 703.1 953.6 L 702.3 952.9 L 700.8 952.3 L 699.8 951.4 L 699 949.6 M 699.1 949.6 L 693.9 946.5 L 692 944.7 L 691.7 943.1 L 690 942.1 L 686.7 941.5 L 682.6 941.3 L 677.8 941.4 L 674.7 940.7 L 673.3 939.1 L 671.7 938.2 L 669.7 937.9 L 668.6 937.4 L 668.1 936.6 L 668.1 935.7 L 668.6 934.6 L 669.9 933.3 L 673.2 931.1 L 674.4 929.9 L 674.9 927.4 L 675.1 923.2 L 673.2 920.1 L 669.2 918.3 L 665.8 917.4 L 662.9 917.2 L 660.5 916.6 L 658.6 915.5 L 657.3 915.1 L 656.6 915.4 L 654.4 914.4 L 650.5 912.1 L 648 911 L 646.3 910.9 L 642.5 910 L 640.3 909.8 L 638.5 910.1 L 635.8 909.5 M 635.8 909.5 L 630.4 907.5 L 629.7 907.2 L 632.1 907.2 L 633.9 907.5 L 635.1 908 L 635.8 909.5" />
<path class="river" d="M 664.3 721.1 L 658.3 725 L 656.2 726.1 L 654.1 727.1 L 649.8 728.8 L 647.5 730.1 L 647 731 L 646.8 731.9 L 647 732.8 L 648.4 733.9 L 650.8 735 L 652.2 736.1 L 652.5 737.3 L 652.1 738.5 L 651.1 739.7 L 651.7 741.2 L 653.8 743.1 L 655.2 744.8 L 655.9 746.9 L 659.5 749 L 661 750.7 L 661.5 752.8 L 662.7 754.9 L 664.5 757.1 L 666.3 758.6 L 667.9 759.2 L 669.5 760.3 L 670.9 761.9 L 672.4 763 L 674.1 763.5 L 675 764.1 L 675.4 765.2" />
<path class="river" d="M 681.7 809 L 678.3 811.7 L 677.1 813.7 L 677 816 L 675.4 818.1 L 671 821.1 L 669.3 821.4" />
<path class="river" d="M 1073.6 697 L 1076.5 698.1 L 1078.9 699.1 L 1081.2 699.1 L 1087.1 697.4 L 1088.3 696.3 L 1089.6 694.7 L 1090 693.6 L 1089.6 693.1 L 1089.7 692.1 L 1090.2 690.8 L 1089.2 689.3 L 1086.7 687.7 L 1086.1 686.7 L 1087.4 686.1 L 1088.5 685.3 L 1089.2 684.2 L 1088.5 682.8 L 1086.3 681 L 1085.2 679.6 L 1085.4 679.1 M 1083.2 685 L 1086.4 686.5 M 1085.4 679.1 L 1085.5 678.7 L 1087.6 677.6 L 1091.7 676.6 L 1094.3 675.4 L 1095.6 674.1 L 1097.4 673.7 L 1100 674.1 L 1101.7 673.7 L 1102.7 672.3 L 1104 671.7 L 1106.5 671.9 L 1123.2 674.5 L 1130.9 675.1 L 1137.5 674.4 L 1139.4 674.3 M 1081.4 676.8 L 1085.4 679.1" />
<path class="river" d="M 987.8 644.1 L 987 645.4 L 986 646 L 984.3 646.5 L 978.4 646.4 L 968.3 645.6 L 961.4 644.6 L 957.8 643.6 L 954.1 643.6 L 950.4 644.6 L 947.9 646.2 L 945.9 649.7 L 938.6 651.2 L 935.6 652.6 L 933.8 655.4 L 932.1 656.5 M 1016.7 610.7 L 1019.8 612.6 L 1020.3 613.7 L 1018.7 614.9 L 1018.2 616.7 L 1017.2 617.9 L 1015.6 619.3 L 1012.1 621.2 L 1006.7 623.8 L 1004.6 625.7 L 1005.8 627 L 1005.4 627.4 L 1003.5 627.1 L 1002.6 627.3 L 1002.6 628 L 1002.1 628.5 L 1000.7 628.9 L 992.8 630 L 990.6 631.1 L 991.5 632.5 L 991 634.4 L 988.3 638" />
<path class="river" d="M 890.4 751.2 L 886.7 749.5 L 885.5 749.3 L 885.6 750.1 L 884.7 750.3 L 882.9 749.9 L 879.7 748.5 L 872.8 744.9 L 871.6 744.4 L 870.4 743.7" />
<path class="river" d="M 539 939.6 L 535.5 939 L 532.2 939.3 L 527.9 940.4 L 524 940.9 L 520.5 941 L 517.6 940.5 L 513.6 939" />
<path class="river" d="M 553.4 941.5 L 551 939.7 L 547.5 939.2 L 539 939.6" />
<path class="river" d="M 1062.8 776.9 L 1062.2 777.2 L 1061.6 778.3 L 1060 779.1 L 1057.8 779.7 L 1054.9 779.2 L 1051.3 777.6 L 1048.7 776.9 L 1046.1 777.6 L 1044.8 777.8" />
<path class="river" d="M 789.3 984.9 L 794 986.6 L 796 987 L 797.4 986.3 L 800 985.1 L 801.7 983.8 L 803.4 981.9 L 803.5 980.2 L 802.2 978.5 L 801.8 976.8 L 802.2 975.1 L 800.9 973.1 L 797.7 970.6 L 796.2 968.8 L 796.4 967.5 L 795.8 966.2 L 794.7 964.9 L 792.2 963.7 L 785.9 961.6 L 784.1 960.7 L 782.8 959.7 L 782.2 958.8 L 780.7 957.8 L 777 956.6 L 774.1 954.6 L 771.4 954.1 L 768 954.4 L 766 954.2 L 765.4 953.5 L 765.3 952.8 L 765.9 952 L 766 950.6 L 765.8 948.7 L 764.7 947.1 L 762.7 945.9 L 760.9 945.4 L 759.3 945.6 L 756.8 945.1 L 753.2 944.1 L 751.6 942.7 L 752 941 L 751.4 939.6 L 749.9 938.6 L 744.6 937.9 L 731.1 937.3 L 730 936.6 L 729.7 935.8 L 730 934.6 L 729.4 933.8 L 728.1 933.2 L 727.3 932.4 L 726.9 931.5 L 727.2 930.1 L 728.2 928.1 L 726.1 925.7 L 720.8 922.9 L 718.2 921 L 718.4 919.8 L 719.5 918.8 L 721.6 917.9 L 723.1 916.3 L 724.7 912.9 L 727.4 909.4 L 728.2 907.8 L 728 906.6 L 727.5 905.4" />
<path class="river" d="M 608.7 1047.3 L 614.7 1045.7 L 622.2 1044.1 M 622.1 1044.1 L 624.3 1042.6 L 624.6 1041.5 L 623.8 1040.2 L 623.5 1038.7 L 623.6 1037.2 L 624.5 1035.2 L 626.1 1032.7 L 626.5 1031.2 L 625 1030.3 M 616.3 1027.1 L 617.5 1027.1" />
<path class="river" d="M 611.3 1027.3 L 607.6 1026.7 L 606 1027.2 L 605.2 1028.6 L 603.2 1029 L 600 1028.4 L 597.4 1028.4 L 595.3 1029 L 591.9 1029.2 L 587.2 1029.1 L 584.5 1028.4 L 583.8 1027 L 584 1025 L 585.1 1022.3 L 585.4 1020.3 L 584.9 1019 L 585.5 1017.1 L 587.4 1014.6 L 588.6 1012 L 589.2 1009.2 L 590.1 1007.4 L 591.8 1006.1 L 598 1000.7" />
<path class="river" d="M 598 1000.7 L 601.9 995.6 L 603.3 993.2 L 603.5 991.9 L 603.3 991.1 L 602.7 990.9 L 602 989.7 L 601.1 987.5 L 601.3 985.9 L 602.1 985.1 L 602.3 984.3 L 601.5 983.4 L 600.6 981.4 L 599.6 980 L 598.3 979.1 L 596 979.1 L 592.6 979.8 L 589.3 978.7 L 586.3 975.9 L 585.3 975.1 L 585.4 974.2 L 585.8 973 L 585.4 972.1 L 584.3 971.4 L 582 970.8 L 580 969.7 L 578.2 968.2 L 577.1 966.9 L 576.7 965.9 L 575.5 964.6 L 573.5 963.2 L 572.9 962.2 L 572.9 961.2 L 572.4 960.5 L 572.3 959.3 L 571.7 958.4 L 570.6 957.9 L 569.9 957.2 L 569.9 956.4 L 569.2 955.8 L 568 955.4 L 568.1 954.6 L 567.7 953.8 L 566.7 953.1 L 566.8 951.8 L 567 950.6 L 566.8 949.9 L 566.7 949.3 L 566.6 948.5 L 565.3 947.8 L 564.7 947.2 L 564.7 946.2 L 559.9 943.4 L 556.9 942.2 L 554.2 941.5 L 553.4 941.5 L 552.1 941.4 L 550.5 941.7 L 548.1 941.6 L 544.9 941.1 L 542.3 941.3 L 540.2 942.3 L 537.3 942.6 L 531.9 942.4" />
<path class="river" d="M 526.3 1028.9 L 523.8 1025.6 L 523.1 1024.2 L 523.6 1023.4 L 523.4 1022.6 L 522.2 1021.2 L 520.2 1018.7 L 518.4 1017.4 L 516.2 1016.5 L 513.8 1014.6 L 511.2 1011.6 L 509 1009.8 L 507 1009.1 L 502.9 1009.6 L 496.6 1011.4 L 492.3 1012.3 L 489.9 1012.5 L 487.8 1012 L 485.1 1010.3 L 482.8 1009.5 L 481.3 1008.5 L 479.8 1007.1 L 479.4 1006.1 L 479.9 1005.5 L 479.9 1004.7 L 479.3 1003.8 L 478.3 1003.4 L 477.2 1003 L 476.6 1002.5 L 476.2 1001.8 L 475.5 1001.8 L 474.6 1001.9 L 474.1 1001.4 L 473.9 1001 L 473.4 1000.8 L 472.4 1000.9 L 471.3 1000.8 L 470.6 1000 L 469.2 999.8 L 467.1 1000.2 L 465.4 1000.1 L 464.5 999.6 L 464.3 999 L 463.7 998.7 L 462.7 998.9 L 460.9 998.3 L 458.8 996.7 L 457.9 995.7 L 457.1 995.5 L 456.4 995.6 L 455.7 995.5 L 455.6 995 L 455.4 994.2 L 454.6 993.7 L 452.6 993.6 L 451.9 993.3 L 451.6 992.7 L 451.2 992.2 L 450.2 992.3 L 449.3 992 L 448.6 991.3 L 447.8 991.5 L 447.2 991.3 L 446.4 990.4 L 445 990.2 L 443.6 990.6 L 442.3 990.7 L 440.4 989.9 L 439.3 990.3" />
<g class="city"><circle cx="1196.690504051242" cy="862.3639704742528" r="5" /><text x="1208.690504051242" y="866.3639704742528">Moscow</text></g>
<g class="city"><circle cx="478.3061334221503" cy="1002.8605490414232" r="5" /><text x="490.3061334221503" y="1006.8605490414232">Paris</text></g>
<g class="city"><circle cx="427.94956918735096" cy="948.9958783360631" r="5" /><text x="439.94956918735096" y="952.9958783360631">London</text></g>
<g class="city"><circle cx="1047.973491314211" cy="777.0628445238917" r="5" /><text x="1059.973491314211" y="781.0628445238917">St.  Petersburg</text></g>
<g class="city"><circle cx="703.3651530277355" cy="928.1776850829073" r="5" /><text x="715.3651530277355" y="932.1776850829073">Berlin</text></g>
<g class="city"><circle cx="607.1083785907329" cy="977.5589048934684" r="5" /><text x="619.1083785907329" y="981.5589048934684">Frankfurt</text></g>
<g class="city"><circle cx="1052.0605945719467" cy="970.7269098681653" r="5" /><text x="1064.0605945719467" y="974.7269098681653">Kyiv</text></g>
<g class="city"><circle cx="763.7746531397902" cy="1016.2282868564718" r="5" /><text x="775.7746531397902" y="1020.2282868564718">Vienna</text></g>
<text class="map-title" x="80" y="105">Norway Physical Study Map</text>
<text class="map-subtitle" x="80" y="145">Landmark: Geirangerfjord | Study terrain and water systems</text>
  <text class="footer" x="80" y="1036">Made with Natural Earth. Free vector and raster map data @ naturalearthdata.com.</text>
</svg>
