<?xml version="1.0" encoding="UTF-8"?>
<svg xmlns="http://www.w3.org/2000/svg" width="1600" height="1100" viewBox="0 0 1600 1100" role="img" aria-labelledby="title desc">
  <title id="title">Nepal Political Study Map</title>
  <desc id="desc">Made with Natural Earth. Free vector and raster map data @ naturalearthdata.com.</desc>
  <defs>
    <linearGradient id="terrain" x1="0" x2="1" y1="0" y2="1">
      <stop offset="0%" stop-color="#6c8c53" />
      <stop offset="42%" stop-color="#d5c487" />
      <stop offset="72%" stop-color="#b88b5f" />
      <stop offset="100%" stop-color="#f1f5ee" />
    </linearGradient>
    <filter id="softShadow" x="-10%" y="-10%" width="120%" height="120%">
      <feDropShadow dx="0" dy="10" stdDeviation="12" flood-color="#0f172a" flood-opacity="0.16" />
    </filter>
    <style>
      .neighbor { fill: #ffffff; stroke: #94a3b8; stroke-width: 1.2; opacity: 0.72; }
      .country { fill: #f7f1df; stroke: #1f2937; stroke-width: 4; filter: url(#softShadow); }
      .admin1 { fill: none; stroke: #64748b; stroke-width: 1.1; stroke-dasharray: 6 7; opacity: 0.75; }
      .river { fill: none; stroke: #1d9bd1; stroke-width: 3; stroke-linecap: round; opacity: 0.88; }
      .lake { fill: #8ed1ea; stroke: #0ea5e9; stroke-width: 1.5; opacity: 0.8; }
      .city circle { fill: #ef4444; stroke: #ffffff; stroke-width: 2; }
      .city text, .terrain-label { fill: #172033; font: 700 24px system-ui, sans-serif; paint-order: stroke; stroke: #ffffff; stroke-width: 5; stroke-linejoin: round; }
      .map-title { fill: #0f172a; font: 800 46px system-ui, sans-serif; }
      .map-subtitle { fill: #475569; font: 600 24px system-ui, sans-serif; }
      .footer { fill: #64748b; font: 500 18px system-ui, sans-serif; }
    </style>
  </defs>
  <rect width="100%" height="100%" fill="#eaf3f8" />
  <rect x="40" y="40" width="1520" height="1020" rx="32" fill="#ffffff" opacity="0.54" />
  <path class="neighbor" d="M 1958.6 598.1 L 1965.2 631.3 L 1934.4 647.4 L 1941.6 701.5 L 1878.9 685.6 L 1765.2 746.3 L 1767.9 796.5 L 1719.4 870.2 L 1715 912.9 L 1675.8 985.3 L 1607.2 965.3 L 1603.8 1056.2 L 1584 1086.1 L 1593.2 1123.4 L 1549.9 1144.2 L 1503.7 1004.9 L 1479.4 1005.2 L 1465.1 1061.3 L 1417 1015.8 L 1444.1 965.9 L 1483.4 960.8 L 1523.9 886.5 L 1473.3 871.5 L 1391.8 872.8 L 1308.3 860.7 L 1300.5 799.7 L 1258.6 795.4 L 1189.1 757.4 L 1158.1 817 L 1221.4 863.5 L 1166.6 896.2 L 1147.1 928.2 L 1201.1 951.7 L 1186.2 1004.6 L 1216.6 1070.6 L 1230.3 1142.9 L 1217.7 1175 L 1158 1173.9 L 1049.7 1192.1 L 1054.8 1258.2 L 1007.9 1310.1 L 881.5 1369.2 L 783.3 1472.5 L 717.3 1527.9 L 629.8 1585.4 L 629.6 1625.8 L 585.9 1647.4 L 506.8 1678.9 L 465.8 1683.5 L 439.4 1750.5 L 457.7 1864.7 L 462.4 1937.5 L 425.2 2020.9 L 424.8 2170.1 L 379.3 2174.3 L 339.4 2241.3 L 366.1 2270.3 L 286 2295.1 L 256.5 2354.9 L 221.2 2380.1 L 138.1 2298.1 L 97.4 2175.2 L 63.8 2086.6 L 33 2045.1 L -13.6 1960.7 L -35.4 1850.9 L -50.6 1796.1 L -130.5 1675.5 L -166.8 1505.3 L -193.1 1393 L -192.8 1286.6 L -209.8 1204.4 L -337.6 1256.9 L -399.5 1246.4 L -514.2 1140 L -472 1108.3 L -497.9 1073.8 L -600.9 999.3 L -542.4 940.7 L -349.2 940.9 L -366.6 865.5 L -415.9 821 L -426 753.4 L -483.4 714 L -386.7 622 L -284.7 628.6 L -192.9 536.6 L -137.8 447.5 L -52.6 359.4 L -53.9 296.8 L 20.9 246 L -49.9 202.7 L -80.4 143.3 L -111.5 66.3 L -68.5 28.5 L 64.7 49.9 L 162.6 36.8 L 247.4 -37 L 341.7 65.9 L 332.8 137.6 L 367.8 182.5 L 364.9 227.3 L 301.9 215.5 L 326.5 312.3 L 412.8 367.9 L 534.8 429.3 L 479.1 469.1 L 445 551.3 L 530.1 584.5 L 612.8 627.6 L 727.4 676.8 L 847.7 688.2 L 898.4 732.9 L 966.2 741.2 L 1071.8 761.7 L 1144.9 760.2 L 1155 725.5 L 1143.4 669.7 L 1150.2 631.9 L 1203.8 613.4 L 1211.1 682.5 L 1213 700.1 L 1292.8 733.5 L 1348 719.7 L 1422.2 725.6 L 1493.8 723 L 1500 669.1 L 1464.2 641.1 L 1535 630.1 L 1615 564.8 L 1716.2 508.9 L 1789.8 530.4 L 1852.4 493.5 L 1893.6 548.1 L 1863.9 584.9 L 1958.6 598.1 Z" />
<path class="neighbor" d="M 1549.9 1144.2 L 1548.1 1207.2 L 1517.5 1193.9 L 1523.2 1264.5 L 1498.1 1218.8 L 1493.1 1174 L 1476.4 1131.8 L 1439.7 1080.7 L 1358.8 1077.2 L 1366.8 1113.3 L 1339.2 1162.2 L 1301.9 1144.4 L 1289.1 1160.4 L 1264.2 1150.8 L 1230.3 1142.9 L 1216.6 1070.6 L 1186.2 1004.6 L 1201.1 951.7 L 1147.1 928.2 L 1166.6 896.2 L 1221.4 863.5 L 1158.1 817 L 1189.1 757.4 L 1258.6 795.4 L 1300.5 799.7 L 1308.3 860.7 L 1391.8 872.8 L 1473.3 871.5 L 1523.9 886.5 L 1483.4 960.8 L 1444.1 965.9 L 1417 1015.8 L 1465.1 1061.3 L 1479.4 1005.2 L 1503.7 1004.9 L 1549.9 1144.2 Z" />
<path class="neighbor" d="M 1464.2 641.1 L 1500 669.1 L 1493.8 723 L 1422.2 725.6 L 1348 719.7 L 1292.8 733.5 L 1213 700.1 L 1211.1 682.5 L 1269.2 617.3 L 1316.6 595 L 1379.4 615.3 L 1425.8 617.5 L 1464.2 641.1 Z" />
<path class="neighbor" d="M 247.4 -37 L 162.6 36.8 L 64.7 49.9 L -68.5 28.5 L -111.5 66.3 L -80.4 143.3 L -49.9 202.7 L 20.9 246 L -53.9 296.8 L -52.6 359.4 L -137.8 447.5 L -192.9 536.6 L -284.7 628.6 L -386.7 622 L -483.4 714 L -426 753.4 L -415.9 821 L -366.6 865.5 L -349.2 940.9 L -542.4 940.7 L -600.9 999.3 L -665.2 977.1 L -691.4 914 L -759.3 847.1 L -921 863.6 L -1063.7 865.3 L -1187.3 877.6 L -1154.2 775.6 L -1027.6 730.2 L -1034.9 689.8 L -1076.9 675.6 L -1079.3 598.2 L -1163.2 559.6 L -1198.6 506.6 L -1242 460.4 L -1094.9 505.3 L -1007.1 492.1 L -954.6 503.3 L -936.8 484.1 L -875.7 491.8 L -761.6 455.3 L -758.5 380.5 L -709.6 330.8 L -644.2 331 L -634.6 306.4 L -567.5 295 L -535 303.2 L -500.7 278.5 L -505.5 225.7 L -468.3 172.8 L -412.4 150.5 L -446.9 92.4 L -363.4 95.2 L -339.2 63.6 L -342.9 29.8 L -299.2 -7 L -309.2 -50.7 L -329.9 -87.9 L -278.7 -126.2 L -184.4 -144.6 L -83.6 -154.8 L -39 -171 L 12.1 -180.9 L 77 -139.9 L 103 -72.5 L 247.4 -37 Z" />
<path class="neighbor" d="M 3025.2 1481.7 L 2953.2 1454.5 L 2950.7 1378.9 L 2993.9 1339.2 L 3089.9 1314.6 L 3140.4 1316.6 L 3160 1350.1 L 3121.4 1388.8 L 3101.1 1439.5 L 3025.2 1481.7 Z M 460.1 -638.9 L 453.1 -689 L 513.3 -711.8 L 434.3 -864.4 L 608.2 -899.4 L 653.1 -919 L 716.5 -1076.2 L 890.7 -1047.3 L 939.5 -1087 L 943.7 -1175 L 1016.6 -1183.2 L 1083.5 -1241.7 L 1117.8 -1248.9 L 1140.9 -1187.6 L 1214.7 -1141.1 L 1339.9 -1108.1 L 1400.5 -1037.4 L 1366.7 -934.8 L 1398.3 -896.7 L 1502.6 -881.7 L 1620.9 -869.5 L 1727 -814.7 L 1781.2 -805 L 1821.2 -724.1 L 1872.7 -671.9 L 1969.5 -674 L 2150.8 -654.3 L 2267.5 -666.5 L 2354.2 -653.4 L 2484.1 -600.1 L 2590.3 -600.2 L 2629.2 -572.9 L 2731.4 -620 L 2873.3 -650.5 L 3004.9 -653.8 L 3107.5 -684.7 L 3170.5 -731.7 L 3231.9 -761.3 L 3217.7 -790.2 L 3189.7 -824 L 3235.8 -880.6 L 3285.2 -872.6 L 3375.4 -854.8 L 3462.9 -901.4 L 3596.8 -935.5 L 3661.1 -993.5 L 3722.9 -1018.5 L 3850.5 -1030.1 L 3919.7 -1020.2 L 3929.4 -1051.4 L 3849.8 -1112.8 L 3779.3 -1140.9 L 3711.9 -1108.5 L 3625.2 -1122.1 L 3575.5 -1111 L 3552.9 -1146.9 L 3614.9 -1234.6 L 3657.7 -1300.8 L 3763.1 -1267.7 L 3886.8 -1323.2 L 3886 -1361.8 L 3965.3 -1454.9 L 4014.1 -1483.1 L 4013 -1531.5 L 3964.9 -1552.4 L 4037.4 -1596.1 L 4146.5 -1611.9 L 4262.9 -1614.3 L 4394.3 -1588.2 L 4471.4 -1555.8 L 4525.7 -1467.3 L 4558.6 -1429.5 L 4589.2 -1375.6 L 4621.6 -1289.6 L 4774.5 -1261.5 L 4878.5 -1199.1 L 4914 -1116.6 L 5047.4 -1116.5 L 5123.5 -1151.1 L 5268.7 -1177 L 5222.5 -1098 L 5188.4 -1065.9 L 5158.3 -969.7 L 5099.3 -884.3 L 4992.7 -899.8 L 4917.3 -868.8 L 4940.5 -793.6 L 4927.8 -689.9 L 4883 -687.5 L 4883.5 -642.9 L 4826.8 -694.7 L 4791.9 -645.5 L 4656.3 -607.7 L 4670 -561.4 L 4594.1 -564.6 L 4552.4 -592.1 L 4492.1 -529.8 L 4395.3 -482.6 L 4323.8 -426.3 L 4201.1 -400.8 L 4136.5 -359.8 L 4041.9 -335.8 L 4088.6 -376.5 L 4070.2 -410.7 L 4139.7 -469.7 L 4093.3 -515.7 L 4016.8 -484.7 L 3917.7 -423.6 L 3863.6 -367 L 3777.5 -362.7 L 3732.7 -321.8 L 3779 -262.4 L 3850.8 -248 L 3853.8 -208.6 L 3923.2 -182.9 L 4021.6 -245.6 L 4099.6 -211.4 L 4156.3 -209.1 L 4170.6 -163.1 L 4046.3 -138.6 L 4005.2 -91.2 L 3919.9 -47.1 L 3874.8 14.3 L 3969.3 62.6 L 4003.8 148.9 L 4057.2 229.4 L 4116.9 296.8 L 4115.4 362.1 L 4060.3 386 L 4081.3 432.9 L 4133 460.1 L 4119.5 531.6 L 4097.2 601.2 L 4048.2 609.1 L 3984 704.2 L 3912.9 819.4 L 3831.4 924.2 L 3710.6 1005.2 L 3588.5 1079.1 L 3489.6 1089.2 L 3435.9 1128.2 L 3405.5 1099.7 L 3355.9 1143.3 L 3233.2 1187.3 L 3140.3 1200.8 L 3110.3 1293.5 L 3061.6 1298.6 L 3038.6 1234.9 L 3059.4 1201 L 2941.6 1172.8 L 2900.1 1187.1 L 2811.7 1164.4 L 2769.9 1128.7 L 2783.8 1078.1 L 2703.5 1062.1 L 2661.2 1029.1 L 2586.4 1075.9 L 2501 1086 L 2431 1085.6 L 2383.8 1107 L 2338.3 1119.9 L 2351.6 1220.3 L 2304.8 1217.9 L 2296.9 1197.3 L 2294.3 1161 L 2229.8 1186.6 L 2191.8 1170.4 L 2126.6 1137.4 L 2152.2 1064.5 L 2096.6 1047.5 L 2075.6 966.7 L 1983 981.2 L 1993.5 877.1 L 2076.7 803.8 L 2080.2 731.3 L 2077.6 664.2 L 2039.3 643.2 L 2009.9 591.5 L 1958.6 598.1 L 1863.9 584.9 L 1893.6 548.1 L 1852.4 493.5 L 1789.8 530.4 L 1716.2 508.9 L 1615 564.8 L 1535 630.1 L 1464.2 641.1 L 1425.8 617.5 L 1379.4 615.3 L 1316.6 595 L 1269.2 617.3 L 1211.1 682.5 L 1203.8 613.4 L 1150.2 631.9 L 1047.9 623.3 L 948.5 603.2 L 877.3 564.6 L 809 547.3 L 779.6 505.1 L 730.2 492.5 L 641.6 435.3 L 571.2 408.3 L 534.8 429.3 L 412.8 367.9 L 326.5 312.3 L 301.9 215.5 L 364.9 227.3 L 367.8 182.5 L 332.8 137.6 L 341.7 65.9 L 247.4 -37 L 103 -72.5 L 77 -139.9 L 12.1 -180.9 L -3.5 -206.1 L -16.7 -256.1 L -13.6 -290.3 L -67 -310.2 L -95.8 -301.4 L -118.1 -382.7 L -93.1 -402.7 L -105.2 -423.3 L -21.4 -464.8 L 39.3 -481.9 L 132.2 -470.2 L 165.4 -526.2 L 278.1 -536.7 L 309.4 -571.5 L 447.7 -619.1 L 460.1 -638.9 Z" />

<path class="country" d="M 1150.2 631.9 L 1143.4 669.7 L 1155 725.5 L 1144.9 760.2 L 1071.8 761.7 L 966.2 741.2 L 898.4 732.9 L 847.7 688.2 L 727.4 676.8 L 612.8 627.6 L 530.1 584.5 L 445 551.3 L 479.1 469.1 L 534.8 429.3 L 571.2 408.3 L 641.6 435.3 L 730.2 492.5 L 779.6 505.1 L 809 547.3 L 877.3 564.6 L 948.5 603.2 L 1047.9 623.3 L 1150.2 631.9 Z" />


<g class="city"><circle cx="193.8541447290562" cy="562.028239091935" r="5" /><text x="205.8541447290562" y="566.028239091935">Delhi</text></g>
<g class="city"><circle cx="465.16152718045976" cy="756.0700642401256" r="5" /><text x="477.16152718045976" y="760.0700642401256">Kanpur</text></g>
<g class="city"><circle cx="517.4039622679079" cy="721.3847743223514" r="5" /><text x="529.4039622679079" y="725.3847743223514">Lucknow</text></g>
<g class="city"><circle cx="887.4927745780908" cy="829.3882206114755" r="5" /><text x="899.4927745780908" y="833.3882206114755">Patna</text></g>
<g class="city"><circle cx="262.78018319448034" cy="693.6937014700896" r="5" /><text x="274.78018319448034" y="697.6937014700896">Agra</text></g>
<g class="city"><circle cx="235.12080685310391" cy="533.0168002266528" r="5" /><text x="247.12080685310391" y="537.0168002266528">Meerut</text></g>
<g class="city"><circle cx="201.46332678693418" cy="582.8074531258058" r="5" /><text x="213.46332678693418" y="586.8074531258058">Faridabad</text></g>
<g class="city"><circle cx="700.4746679570667" cy="855.2870796681684" r="5" /><text x="712.4746679570667" y="859.2870796681684">Varanasi</text></g>
<text class="map-title" x="80" y="105">Nepal Political Study Map</text>
<text class="map-subtitle" x="80" y="145">Capital: Kathmandu | Continent: Asia</text>
  <text class="footer" x="80" y="1036">Made with Natural Earth. Free vector and raster map data @ naturalearthdata.com.</text>
</svg>
