<?xml version="1.0" encoding="UTF-8"?>
<svg xmlns="http://www.w3.org/2000/svg" width="1600" height="1100" viewBox="0 0 1600 1100" role="img" aria-labelledby="title desc">
  <title id="title">Nepal Physical Study Map</title>
  <desc id="desc">Made with Natural Earth. Free vector and raster map data @ naturalearthdata.com.</desc>
  <defs>
    <linearGradient id="terrain" x1="0" x2="1" y1="0" y2="1">
      <stop offset="0%" stop-color="#6c8c53" />
      <stop offset="42%" stop-color="#d5c487" />
      <stop offset="72%" stop-color="#b88b5f" />
      <stop offset="100%" stop-color="#f1f5ee" />
    </linearGradient>
    <filter id="softShadow" x="-10%" y="-10%" width="120%" height="120%">
      <feDropShadow dx="0" dy="10" stdDeviation="12" flood-color="#0f172a" flood-opacity="0.16" />
    </filter>
    <style>
      .neighbor { fill: #ffffff; stroke: #94a3b8; stroke-width: 1.2; opacity: 0.72; }
      .country { fill: url(#terrain); stroke: #1f2937; stroke-width: 4; filter: url(#softShadow); }
      .admin1 { fill: none; stroke: #64748b; stroke-width: 1.1; stroke-dasharray: 6 7; opacity: 0.75; }
      .river { fill: none; stroke: #1d9bd1; stroke-width: 3; stroke-linecap: round; opacity: 0.88; }
      .lake { fill: #8ed1ea; stroke: #0ea5e9; stroke-width: 1.5; opacity: 0.8; }
      .city circle { fill: #ef4444; stroke: #ffffff; stroke-width: 2; }
      .city text, .terrain-label { fill: #172033; font: 700 24px system-ui, sans-serif; paint-order: stroke; stroke: #ffffff; stroke-width: 5; stroke-linejoin: round; }
      .map-title { fill: #0f172a; font: 800 46px system-ui, sans-serif; }
      .map-subtitle { fill: #475569; font: 600 24px system-ui, sans-serif; }
      .footer { fill: #64748b; font: 500 18px system-ui, sans-serif; }
    </style>
  </defs>
  <rect width="100%" height="100%" fill="#d8edf0" />
  <rect x="40" y="40" width="1520" height="1020" rx="32" fill="#ffffff" opacity="0.54" />
  <path class="neighbor" d="M 1958.6 598.1 L 1965.2 631.3 L 1934.4 647.4 L 1941.6 701.5 L 1878.9 685.6 L 1765.2 746.3 L 1767.9 796.5 L 1719.4 870.2 L 1715 912.9 L 1675.8 985.3 L 1607.2 965.3 L 1603.8 1056.2 L 1584 1086.1 L 1593.2 1123.4 L 1549.9 1144.2 L 1503.7 1004.9 L 1479.4 1005.2 L 1465.1 1061.3 L 1417 1015.8 L 1444.1 965.9 L 1483.4 960.8 L 1523.9 886.5 L 1473.3 871.5 L 1391.8 872.8 L 1308.3 860.7 L 1300.5 799.7 L 1258.6 795.4 L 1189.1 757.4 L 1158.1 817 L 1221.4 863.5 L 1166.6 896.2 L 1147.1 928.2 L 1201.1 951.7 L 1186.2 1004.6 L 1216.6 1070.6 L 1230.3 1142.9 L 1217.7 1175 L 1158 1173.9 L 1049.7 1192.1 L 1054.8 1258.2 L 1007.9 1310.1 L 881.5 1369.2 L 783.3 1472.5 L 717.3 1527.9 L 629.8 1585.4 L 629.6 1625.8 L 585.9 1647.4 L 506.8 1678.9 L 465.8 1683.5 L 439.4 1750.5 L 457.7 1864.7 L 462.4 1937.5 L 425.2 2020.9 L 424.8 2170.1 L 379.3 2174.3 L 339.4 2241.3 L 366.1 2270.3 L 286 2295.1 L 256.5 2354.9 L 221.2 2380.1 L 138.1 2298.1 L 97.4 2175.2 L 63.8 2086.6 L 33 2045.1 L -13.6 1960.7 L -35.4 1850.9 L -50.6 1796.1 L -130.5 1675.5 L -166.8 1505.3 L -193.1 1393 L -192.8 1286.6 L -209.8 1204.4 L -337.6 1256.9 L -399.5 1246.4 L -514.2 1140 L -472 1108.3 L -497.9 1073.8 L -600.9 999.3 L -542.4 940.7 L -349.2 940.9 L -366.6 865.5 L -415.9 821 L -426 753.4 L -483.4 714 L -386.7 622 L -284.7 628.6 L -192.9 536.6 L -137.8 447.5 L -52.6 359.4 L -53.9 296.8 L 20.9 246 L -49.9 202.7 L -80.4 143.3 L -111.5 66.3 L -68.5 28.5 L 64.7 49.9 L 162.6 36.8 L 247.4 -37 L 341.7 65.9 L 332.8 137.6 L 367.8 182.5 L 364.9 227.3 L 301.9 215.5 L 326.5 312.3 L 412.8 367.9 L 534.8 429.3 L 479.1 469.1 L 445 551.3 L 530.1 584.5 L 612.8 627.6 L 727.4 676.8 L 847.7 688.2 L 898.4 732.9 L 966.2 741.2 L 1071.8 761.7 L 1144.9 760.2 L 1155 725.5 L 1143.4 669.7 L 1150.2 631.9 L 1203.8 613.4 L 1211.1 682.5 L 1213 700.1 L 1292.8 733.5 L 1348 719.7 L 1422.2 725.6 L 1493.8 723 L 1500 669.1 L 1464.2 641.1 L 1535 630.1 L 1615 564.8 L 1716.2 508.9 L 1789.8 530.4 L 1852.4 493.5 L 1893.6 548.1 L 1863.9 584.9 L 1958.6 598.1 Z" />
<path class="neighbor" d="M 1549.9 1144.2 L 1548.1 1207.2 L 1517.5 1193.9 L 1523.2 1264.5 L 1498.1 1218.8 L 1493.1 1174 L 1476.4 1131.8 L 1439.7 1080.7 L 1358.8 1077.2 L 1366.8 1113.3 L 1339.2 1162.2 L 1301.9 1144.4 L 1289.1 1160.4 L 1264.2 1150.8 L 1230.3 1142.9 L 1216.6 1070.6 L 1186.2 1004.6 L 1201.1 951.7 L 1147.1 928.2 L 1166.6 896.2 L 1221.4 863.5 L 1158.1 817 L 1189.1 757.4 L 1258.6 795.4 L 1300.5 799.7 L 1308.3 860.7 L 1391.8 872.8 L 1473.3 871.5 L 1523.9 886.5 L 1483.4 960.8 L 1444.1 965.9 L 1417 1015.8 L 1465.1 1061.3 L 1479.4 1005.2 L 1503.7 1004.9 L 1549.9 1144.2 Z" />
<path class="neighbor" d="M 1464.2 641.1 L 1500 669.1 L 1493.8 723 L 1422.2 725.6 L 1348 719.7 L 1292.8 733.5 L 1213 700.1 L 1211.1 682.5 L 1269.2 617.3 L 1316.6 595 L 1379.4 615.3 L 1425.8 617.5 L 1464.2 641.1 Z" />
<path class="neighbor" d="M 247.4 -37 L 162.6 36.8 L 64.7 49.9 L -68.5 28.5 L -111.5 66.3 L -80.4 143.3 L -49.9 202.7 L 20.9 246 L -53.9 296.8 L -52.6 359.4 L -137.8 447.5 L -192.9 536.6 L -284.7 628.6 L -386.7 622 L -483.4 714 L -426 753.4 L -415.9 821 L -366.6 865.5 L -349.2 940.9 L -542.4 940.7 L -600.9 999.3 L -665.2 977.1 L -691.4 914 L -759.3 847.1 L -921 863.6 L -1063.7 865.3 L -1187.3 877.6 L -1154.2 775.6 L -1027.6 730.2 L -1034.9 689.8 L -1076.9 675.6 L -1079.3 598.2 L -1163.2 559.6 L -1198.6 506.6 L -1242 460.4 L -1094.9 505.3 L -1007.1 492.1 L -954.6 503.3 L -936.8 484.1 L -875.7 491.8 L -761.6 455.3 L -758.5 380.5 L -709.6 330.8 L -644.2 331 L -634.6 306.4 L -567.5 295 L -535 303.2 L -500.7 278.5 L -505.5 225.7 L -468.3 172.8 L -412.4 150.5 L -446.9 92.4 L -363.4 95.2 L -339.2 63.6 L -342.9 29.8 L -299.2 -7 L -309.2 -50.7 L -329.9 -87.9 L -278.7 -126.2 L -184.4 -144.6 L -83.6 -154.8 L -39 -171 L 12.1 -180.9 L 77 -139.9 L 103 -72.5 L 247.4 -37 Z" />
<path class="neighbor" d="M 3025.2 1481.7 L 2953.2 1454.5 L 2950.7 1378.9 L 2993.9 1339.2 L 3089.9 1314.6 L 3140.4 1316.6 L 3160 1350.1 L 3121.4 1388.8 L 3101.1 1439.5 L 3025.2 1481.7 Z M 460.1 -638.9 L 453.1 -689 L 513.3 -711.8 L 434.3 -864.4 L 608.2 -899.4 L 653.1 -919 L 716.5 -1076.2 L 890.7 -1047.3 L 939.5 -1087 L 943.7 -1175 L 1016.6 -1183.2 L 1083.5 -1241.7 L 1117.8 -1248.9 L 1140.9 -1187.6 L 1214.7 -1141.1 L 1339.9 -1108.1 L 1400.5 -1037.4 L 1366.7 -934.8 L 1398.3 -896.7 L 1502.6 -881.7 L 1620.9 -869.5 L 1727 -814.7 L 1781.2 -805 L 1821.2 -724.1 L 1872.7 -671.9 L 1969.5 -674 L 2150.8 -654.3 L 2267.5 -666.5 L 2354.2 -653.4 L 2484.1 -600.1 L 2590.3 -600.2 L 2629.2 -572.9 L 2731.4 -620 L 2873.3 -650.5 L 3004.9 -653.8 L 3107.5 -684.7 L 3170.5 -731.7 L 3231.9 -761.3 L 3217.7 -790.2 L 3189.7 -824 L 3235.8 -880.6 L 3285.2 -872.6 L 3375.4 -854.8 L 3462.9 -901.4 L 3596.8 -935.5 L 3661.1 -993.5 L 3722.9 -1018.5 L 3850.5 -1030.1 L 3919.7 -1020.2 L 3929.4 -1051.4 L 3849.8 -1112.8 L 3779.3 -1140.9 L 3711.9 -1108.5 L 3625.2 -1122.1 L 3575.5 -1111 L 3552.9 -1146.9 L 3614.9 -1234.6 L 3657.7 -1300.8 L 3763.1 -1267.7 L 3886.8 -1323.2 L 3886 -1361.8 L 3965.3 -1454.9 L 4014.1 -1483.1 L 4013 -1531.5 L 3964.9 -1552.4 L 4037.4 -1596.1 L 4146.5 -1611.9 L 4262.9 -1614.3 L 4394.3 -1588.2 L 4471.4 -1555.8 L 4525.7 -1467.3 L 4558.6 -1429.5 L 4589.2 -1375.6 L 4621.6 -1289.6 L 4774.5 -1261.5 L 4878.5 -1199.1 L 4914 -1116.6 L 5047.4 -1116.5 L 5123.5 -1151.1 L 5268.7 -1177 L 5222.5 -1098 L 5188.4 -1065.9 L 5158.3 -969.7 L 5099.3 -884.3 L 4992.7 -899.8 L 4917.3 -868.8 L 4940.5 -793.6 L 4927.8 -689.9 L 4883 -687.5 L 4883.5 -642.9 L 4826.8 -694.7 L 4791.9 -645.5 L 4656.3 -607.7 L 4670 -561.4 L 4594.1 -564.6 L 4552.4 -592.1 L 4492.1 -529.8 L 4395.3 -482.6 L 4323.8 -426.3 L 4201.1 -400.8 L 4136.5 -359.8 L 4041.9 -335.8 L 4088.6 -376.5 L 4070.2 -410.7 L 4139.7 -469.7 L 4093.3 -515.7 L 4016.8 -484.7 L 3917.7 -423.6 L 3863.6 -367 L 3777.5 -362.7 L 3732.7 -321.8 L 3779 -262.4 L 3850.8 -248 L 3853.8 -208.6 L 3923.2 -182.9 L 4021.6 -245.6 L 4099.6 -211.4 L 4156.3 -209.1 L 4170.6 -163.1 L 4046.3 -138.6 L 4005.2 -91.2 L 3919.9 -47.1 L 3874.8 14.3 L 3969.3 62.6 L 4003.8 148.9 L 4057.2 229.4 L 4116.9 296.8 L 4115.4 362.1 L 4060.3 386 L 4081.3 432.9 L 4133 460.1 L 4119.5 531.6 L 4097.2 601.2 L 4048.2 609.1 L 3984 704.2 L 3912.9 819.4 L 3831.4 924.2 L 3710.6 1005.2 L 3588.5 1079.1 L 3489.6 1089.2 L 3435.9 1128.2 L 3405.5 1099.7 L 3355.9 1143.3 L 3233.2 1187.3 L 3140.3 1200.8 L 3110.3 1293.5 L 3061.6 1298.6 L 3038.6 1234.9 L 3059.4 1201 L 2941.6 1172.8 L 2900.1 1187.1 L 2811.7 1164.4 L 2769.9 1128.7 L 2783.8 1078.1 L 2703.5 1062.1 L 2661.2 1029.1 L 2586.4 1075.9 L 2501 1086 L 2431 1085.6 L 2383.8 1107 L 2338.3 1119.9 L 2351.6 1220.3 L 2304.8 1217.9 L 2296.9 1197.3 L 2294.3 1161 L 2229.8 1186.6 L 2191.8 1170.4 L 2126.6 1137.4 L 2152.2 1064.5 L 2096.6 1047.5 L 2075.6 966.7 L 1983 981.2 L 1993.5 877.1 L 2076.7 803.8 L 2080.2 731.3 L 2077.6 664.2 L 2039.3 643.2 L 2009.9 591.5 L 1958.6 598.1 L 1863.9 584.9 L 1893.6 548.1 L 1852.4 493.5 L 1789.8 530.4 L 1716.2 508.9 L 1615 564.8 L 1535 630.1 L 1464.2 641.1 L 1425.8 617.5 L 1379.4 615.3 L 1316.6 595 L 1269.2 617.3 L 1211.1 682.5 L 1203.8 613.4 L 1150.2 631.9 L 1047.9 623.3 L 948.5 603.2 L 877.3 564.6 L 809 547.3 L 779.6 505.1 L 730.2 492.5 L 641.6 435.3 L 571.2 408.3 L 534.8 429.3 L 412.8 367.9 L 326.5 312.3 L 301.9 215.5 L 364.9 227.3 L 367.8 182.5 L 332.8 137.6 L 341.7 65.9 L 247.4 -37 L 103 -72.5 L 77 -139.9 L 12.1 -180.9 L -3.5 -206.1 L -16.7 -256.1 L -13.6 -290.3 L -67 -310.2 L -95.8 -301.4 L -118.1 -382.7 L -93.1 -402.7 L -105.2 -423.3 L -21.4 -464.8 L 39.3 -481.9 L 132.2 -470.2 L 165.4 -526.2 L 278.1 -536.7 L 309.4 -571.5 L 447.7 -619.1 L 460.1 -638.9 Z" />
<path class="lake" d="M 1345.6 399.4 L 1342.8 395.1 L 1340.9 384.2 L 1340.6 371.1 L 1346.2 368.1 L 1357 370.4 L 1366.1 372.6 L 1372.4 371.7 L 1374.6 369 L 1377.8 366.9 L 1391.3 367.7 L 1398.1 364.3 L 1400.9 364.4 L 1404.1 367.5 L 1404.3 371.7 L 1397.1 375.8 L 1389.3 382.4 L 1377.9 389.1 L 1367.6 393.1 L 1345.6 399.4 L 1345.6 399.4 L 1345.6 399.4 Z" />
<path class="lake" d="M 1255.3 287.9 L 1252.6 288.5 L 1249.7 291.8 L 1246 298 L 1239.6 304.8 L 1232.5 305.3 L 1226.5 304.2 L 1222.7 302.8 L 1221.9 299.9 L 1222.9 296.1 L 1221 293.7 L 1214.3 293.9 L 1206.7 295.1 L 1199.8 293.6 L 1193 287.7 L 1189.4 283.5 L 1193 280.3 L 1201.5 281.5 L 1206.3 284.4 L 1209 284.9 L 1211.1 283.8 L 1215.5 279.7 L 1224.7 277 L 1238 277.5 L 1250.8 281 L 1255.8 285.3 L 1255.3 287.9 L 1255.3 287.9 L 1255.3 287.9 Z" />
<path class="lake" d="M 720.9 316.9 L 718.3 316.9 L 708.9 314.4 L 699.8 312.4 L 693 312.2 L 688.1 310.1 L 686.4 308.1 L 691.4 307.2 L 694.3 305.3 L 694.8 303.8 L 698.3 302.5 L 705.9 301.3 L 709.4 300.4 L 713.1 305.2 L 719 308.7 L 726.1 313 L 730.6 317.1 L 729.9 318.5 L 726.6 318.4 L 720.9 316.9 L 720.9 316.9 L 720.9 316.9 Z" />
<path class="lake" d="M 1032.3 343 L 1031.1 345.7 L 1025.9 346.8 L 1019.2 350.2 L 1017.4 354.6 L 1013.7 362.6 L 1009.9 370.1 L 1007.4 374.2 L 1004.1 375.6 L 1000.9 374.6 L 998.9 371.6 L 998.8 369 L 1000.2 366.9 L 1003.1 361.9 L 1009.4 352.6 L 1017.3 338.2 L 1021.5 325.4 L 1029.2 327.6 L 1031.2 335.1 L 1032.3 343 L 1032.3 343 L 1032.3 343 L 1032.3 343 Z" />
<path class="lake" d="M 1397 540 L 1393.4 539.1 L 1391.4 539.6 L 1390.4 539.6 L 1388.5 539.1 L 1386.2 538.6 L 1382.7 540.7 L 1381.2 544.2 L 1380.2 545 L 1378 543.5 L 1374.1 545.2 L 1370.7 547.4 L 1367.1 551 L 1365 551.9 L 1362.2 552 L 1359.9 550.4 L 1357.3 547.7 L 1355.1 545.5 L 1354.5 544 L 1355.3 543.1 L 1356.9 543.3 L 1358.4 544.7 L 1360.1 545.6 L 1361.8 545.4 L 1364.5 544.3 L 1367.4 541.8 L 1369.8 538.6 L 1372.1 535.5 L 1374.3 532.3 L 1373.6 529.1 L 1373.1 525.4 L 1372.6 522.2 L 1370.6 520 L 1367 518.5 L 1362.2 518.7 L 1357.2 520.5 L 1352.5 523.4 L 1349.3 525 L 1349.2 523.8 L 1352.5 521.1 L 1359.4 516.7 L 1364.6 514.7 L 1370.8 516.3 L 1376 519.1 L 1379.3 521.8 L 1379 523.7 L 1378.4 525 L 1378.6 526.9 L 1379.4 528.7 L 1382.7 532.1 L 1384.5 534 L 1388 534.2 L 1389.4 532.1 L 1392.2 531.1 L 1395.9 531.4 L 1399.8 533 L 1402.4 535.2 L 1402 537.6 L 1403.3 541.6 L 1402.4 542.7 L 1399.2 541 L 1397 540 L 1397 540 L 1397 540 L 1397 540 Z" />
<path class="lake" d="M 954.2 363.9 L 951 367.6 L 950.5 372.8 L 948.8 376.6 L 946.6 378.8 L 945 378.8 L 945.3 376.1 L 942.7 371.7 L 937 369 L 932.5 369.2 L 929 370.4 L 926.1 371.5 L 921.3 371.2 L 914.7 368.9 L 909.4 365.9 L 907.2 362.5 L 907.9 358.3 L 911.5 354.5 L 918.1 353.6 L 925.5 355.1 L 933 355.4 L 939.9 355.2 L 947.4 357.2 L 953.1 359.5 L 954.3 361.8 L 954.2 363.9 L 954.2 363.9 L 954.2 363.9 L 954.2 363.9 Z" />
<path class="lake" d="M 552.2 389.6 L 550.5 391.3 L 547.4 392 L 543.6 391.8 L 538.9 389.8 L 536.1 387.3 L 538.2 385.1 L 541.3 382.2 L 541.2 374.8 L 542.5 370.6 L 545.6 369.7 L 549.2 371.8 L 550.9 373.7 L 551.1 376.1 L 547.2 379.3 L 549.5 383.2 L 552.1 387.3 L 552.2 389.6 L 552.2 389.6 L 552.2 389.6 L 552.2 389.6 Z" />
<path class="lake" d="M 576.3 384 L 573.5 388 L 568.4 391.9 L 563.1 393.5 L 559.5 391.9 L 557.8 387.5 L 558 378.9 L 561 377.1 L 565.4 377.5 L 571.1 378.9 L 575.4 381.1 L 576.3 384 L 576.3 384 L 576.3 384 L 576.3 384 Z" />
<path class="lake" d="M 100.9 278.6 L 100.9 278.6 L 100.9 278.6 L 100.9 278.6 L 93.2 277.8 L 83.8 272.2 L 80.6 264.4 L 80.4 257.6 L 84.5 256.4 L 94.3 263.4 L 101.1 273.2 L 100.9 278.6 Z" />
<path class="lake" d="M 1444.2 274.4 L 1444.2 274.4 L 1444.2 274.4 L 1444.2 274.4 L 1441.4 270.6 L 1440.3 264.4 L 1443 260 L 1448 258.1 L 1449.8 262.8 L 1449.5 272.8 L 1448.6 274.8 L 1444.2 274.4 Z" />
<path class="lake" d="M 1088.3 282.8 L 1088.3 282.8 L 1088.3 282.8 L 1088.3 282.8 L 1089.1 277.6 L 1094.8 273.8 L 1099.8 272.6 L 1103.7 274.4 L 1104.2 278.3 L 1098.4 283.2 L 1088.3 282.8 Z" />
<path class="country" d="M 1150.2 631.9 L 1143.4 669.7 L 1155 725.5 L 1144.9 760.2 L 1071.8 761.7 L 966.2 741.2 L 898.4 732.9 L 847.7 688.2 L 727.4 676.8 L 612.8 627.6 L 530.1 584.5 L 445 551.3 L 479.1 469.1 L 534.8 429.3 L 571.2 408.3 L 641.6 435.3 L 730.2 492.5 L 779.6 505.1 L 809 547.3 L 877.3 564.6 L 948.5 603.2 L 1047.9 623.3 L 1150.2 631.9 Z" />

<path class="river" d="M 550.9 375.9 L 542.5 370.6 M 153.2 321.7 L 151.3 328.3 L 148.8 331.4 L 145 333.2 L 138.4 330.7 L 124.2 320.5" />
<path class="river" d="M 1292.4 943.2 L 1290.1 960.4 L 1289.6 975.5 L 1292.8 984.6 L 1303.6 996.8 L 1314.7 1005.5 L 1321.8 1009.7 L 1338.7 1019.7 M 1292.4 943.2 L 1298.5 957.1 L 1308.5 965 L 1325.4 974.8 L 1334.1 983.7 L 1334.4 991.9 L 1336.7 995.5 L 1340.8 994.6 L 1346.5 997.8 L 1357.1 1008.8 L 1364.6 1012.9 M 1789.1 620.8 L 1793.2 631.2 L 1786.7 638.1 L 1770.8 644.8 L 1764.5 647.5 L 1763.4 648.8 L 1763.8 649.3 L 1765 649.5 L 1766.3 650.4 L 1766.4 652.3 L 1761.6 654.8 L 1751.8 657.4 L 1743.6 661.1 L 1736.8 666.1 L 1730.1 672.6 L 1723.7 680.5 L 1721.8 684.4 L 1718.9 688.3 L 1716.2 692.2 L 1715.5 697.4 L 1711.9 702.5 L 1705.4 707.6 L 1695.9 713.1 L 1683.4 718.9 L 1677 720.5 L 1668.5 720.5 L 1644.7 732.4 L 1614.1 731.8 L 1600.2 733.6 L 1592.8 737.7 L 1579.4 740.8 L 1560 742.9 L 1548.5 745.7 L 1544.9 749.4 L 1538.6 750.8 L 1529.7 750.2 L 1518.3 753.2 L 1504.4 759.9 L 1497.1 764.9 L 1496.3 768.3 L 1487.9 772.9 L 1459.6 782.2 L 1451.1 783.7 L 1441.4 783.4 L 1425 780.5 L 1416.4 778.7 L 1407.6 779.8 L 1395.8 783.4 L 1382 783 L 1366.2 778.7 L 1346.5 781.3 L 1323 790.9 L 1305.6 805.3 L 1294.3 824.5 L 1288.8 841.4 L 1289 855.9 L 1287.2 869.6 L 1282 882.1 L 1281.2 889 L 1281.9 893.7 L 1291.5 915.2 L 1293.3 936.1 L 1292.4 943.2" />
<path class="river" d="M -253 341.5 L -253 347.4 L -256.1 353.4 L -265.7 365.6 L -285.2 391.5 L -293.4 394.2 L -302.3 400.8 L -314.8 412 L -325.2 427.3 L -333.6 446.6 L -337.8 460.4 L -337.9 468.6 L -341.5 476.2 L -348.7 483.1 L -351.5 488.9 L -349.8 493.6 L -349.9 498.8 L -351.7 504.6 L -354.1 509.1 L -356.9 512.3 L -360.7 513.9 L -365.5 513.6 L -370.8 517.6 L -376.6 525.8 L -380.7 529.9 L -387.1 531.2 M 212.1 244.1 L 185.6 229.7 L 168.5 217.7 L 153.4 210.9 L 134.5 205.2 L 124.4 195.9 L 123.2 183 L 115.7 171.3 L 102 160.7 L 87.8 153.6 L 73.2 150.1 L 64.9 149.4 L 62.9 151.6 L 63.7 155.2 L 67.4 160.4 L 68.6 164.3 L 67.4 167 L 57.6 168.7 L 39.3 169.4 L 25.3 166.8 L 15.6 160.9 L 8.9 160.4 L 5.3 165.3 L -1.8 167.1 L -12.4 165.7 L -18.6 171.2 L -20.3 183.6 L -38.4 200.6 L -73 222.2 L -103.3 237.2 L -129.2 245.6 L -147.9 257 L -165.2 278.4 L -179.6 291 L -190.2 296.2 L -201.8 298.2 L -214.1 303 L -227 310.9 L -235.9 317.5 L -240.7 322.9 L -243.5 328.8 L -244.2 335.1 L -246.7 339.1 L -253 341.5" />
<path class="river" d="M 1269.9 1123.6 L 1264.8 1104.3 L 1260.1 1096.8 L 1253.8 1093.5 M 1253.8 1093.5 L 1250.4 1097.5 L 1249.9 1108.7 L 1252.6 1120.8 L 1258.5 1133.8 L 1260.7 1142.7 L 1258.4 1150.3 L 1258.2 1157.9 L 1256.9 1166.4 L 1258.5 1172.3 M 1178.3 1061.2 L 1173.5 1071.6 L 1170.1 1083.3 L 1169.8 1092.6 L 1165.1 1099.6 L 1155.9 1104.3 L 1150 1111.8 L 1147.3 1128.7 M 1178.3 1061.2 L 1185.2 1062.2 L 1192.2 1062.3 L 1199.5 1064.1 L 1206.1 1067.5 L 1211.7 1072.5 L 1213.6 1077.3 L 1211.9 1082.1 L 1213.9 1086.4 L 1219.5 1090 L 1224.9 1103 L 1231.8 1123.7 L 1232.4 1131.5 L 1232 1139.7 M 1321.8 1009.7 L 1323.7 1030.2 L 1326.4 1037.9 L 1331.1 1042 L 1335.3 1044.4 L 1336.6 1047.9 L 1338.5 1049.9 L 1341.5 1052.3 L 1341.8 1055.2 L 1342.9 1058.7 L 1347 1063.5 L 1347 1070.9 L 1349.9 1079.8 L 1353.5 1081.8 M 1237.1 972.9 L 1246.6 989.1 L 1253.9 995.7 L 1260.9 999.1 L 1266.7 1003.8 L 1271.3 1009.8 L 1273.1 1014 L 1272.1 1016.2 L 1273.7 1017.6 L 1277.9 1018.2 L 1280 1021.1 L 1279.9 1026.4 L 1281.5 1030.4 L 1283 1033.6 L 1283.4 1037.9 L 1285.4 1040.5 L 1289.7 1043.1 L 1290.6 1048.3 L 1294.7 1058.3 L 1308.8 1074.1 L 1315.9 1087.7 L 1316.4 1098.4 L 1314 1106.9 M 1237.1 972.9 L 1245 978.1 L 1252.1 978.3 L 1260.8 980.9 L 1271.1 986 L 1280.5 987.8 L 1293.2 985.6 M 1174.5 938.1 L 1184.4 949.3 L 1186.5 953.9 L 1185.9 957.7 L 1188.3 960.9 L 1193.7 963.6 L 1196.1 967 L 1195.5 971.2 L 1200.3 975.1 L 1210.4 978.6 L 1215.6 984.9 L 1215.8 994 L 1213.2 1001.6 L 1207.5 1007.5 L 1206.7 1013.4 L 1210.9 1019.3 L 1214.5 1021.3 L 1217.3 1022.9 L 1219.2 1025.8 L 1221 1028.1 L 1226.5 1030.8 L 1227.6 1036.9 L 1229.9 1043.7 L 1235.2 1050.1 L 1237.4 1056.5 L 1236.2 1062.7 L 1237.4 1069.5 L 1241 1076.8 L 1245.8 1082.1 L 1251 1085.7 L 1251.6 1086.1 L 1251.2 1088.2 L 1253.8 1093.5 M 1174.5 938.1 L 1183.4 941.8 L 1196 943.6 L 1203.2 948.1 L 1204.8 955.3 L 1207.2 959.6 L 1210.4 961 L 1215 960.7 L 1221 958.6 L 1228.3 962.7 L 1237.1 972.9 M 1132.6 899.8 L 1134.4 913.8 L 1141.3 924.6 L 1155 938.1 L 1160.6 951.7 L 1158 965.3 L 1157.7 977.1 L 1159.6 987 L 1158.6 995.1 L 1155.8 998.6 L 1158.4 1004.1 L 1163.5 1008.5 L 1166.3 1012.4 L 1169.9 1013.5 L 1171.3 1019.6 L 1170.6 1030.8 L 1172.6 1037.6 L 1177.4 1040.1 L 1180.6 1043.7 L 1182.3 1048.3 L 1179.9 1057.6 L 1178.3 1061.2 M 1132.6 899.8 L 1134.9 906.1 L 1139.6 914.2 L 1146.6 923.9 L 1152.4 929.6 L 1159.4 931.8 L 1164.9 930.1 L 1169.3 932.4 L 1174.5 938.1 M 423.3 367.4 L 421.5 371.9 L 422.2 376.3 L 424.9 382 L 425.3 385.8 L 422.7 388.5 L 414.8 397.7 L 408 399.6 L 399.5 397.1 L 390.7 400.1 L 376.9 412.8 L 369.8 419 L 363.4 420.4 L 355.3 419.1 L 344.1 419.8 L 329.9 422.6 L 320.3 427.7 L 315.5 435.3 L 307.3 437.5 L 295.6 434.6 L 286.3 437.3 L 279.5 445.6 L 276.6 455.2 L 277.7 465.8 L 273.9 474.1 L 265.2 480 L 263.6 490 L 269.1 504.1 L 270.9 517.3 L 269 529.7 L 270.3 543.6 L 277.1 566.5 L 282.9 575.2 L 285.4 582.1 L 286.5 590.1 L 291.2 598.8 L 299.4 608.2 L 314.6 618.7 L 336.7 630.4 L 351.6 636.4 L 359.3 636.8 L 364.1 639.8 L 366.3 645.3 L 371.8 649.1 L 380.9 651.1 L 388.6 654.4 L 395 659 L 401.3 667.9 L 407.6 681 L 413.8 689.7 L 423 696.1 L 430.4 697.8 L 437.1 706.6 L 445.5 723.2 L 458.1 739.7 L 475 756.3 L 485 768.8 L 488.1 777.1 L 494.5 784.5 L 504 790.8 L 513.5 793.3 L 523.1 792 L 535.8 797.6 L 551.6 810.3 L 559.7 819 L 560 823.7 L 565.2 827.7 L 575.3 831.2 L 582 834.9 L 585.3 839 L 591.4 840.6 L 600.3 839.9 L 604.7 841.7 L 604.3 848.2 L 616.5 857 L 623.4 859.4 L 628.9 858.4 L 631.7 860.5 L 631.9 861.7 L 632.7 863.1 L 633.8 863.2 L 635.2 862.9 L 636.9 861.4 L 639.2 861.6 L 640.8 864.2 L 643.1 864.5 L 646.2 862.5 L 651.1 863.8 L 657.8 868.3 L 661.3 868.3 L 662.3 866.6 L 664.2 865.3 L 667.2 865.1 L 681.8 871.8 L 690 872 L 697.6 868 L 702.1 863.5 L 703.6 858.5 L 707.1 855.4 L 712.8 854.2 L 714.6 851.4 L 712.5 846.9 L 712.8 843 L 715.6 839.6 L 721.9 838.9 L 731.7 840.7 L 739.2 843.5 L 743.6 845.4 L 745.7 843.9 L 745.7 840.8 L 746.1 837.6 L 753.3 833.1 L 759.4 831.1 L 763.2 832.6 L 766.7 836.9 L 771.2 838.9 L 776.7 838.6 L 784.9 833.8 L 795.6 824.4 L 803.5 821 L 808.3 823.5 L 813.3 822.9 L 818.6 819.1 L 826.1 818.8 L 835.9 822 L 844.1 822.2 L 850.9 819.6 L 861 818.8 L 874.6 820 L 886.7 824.5 L 897.2 832.5 L 906 836.7 L 912.5 837.5 L 916.3 837.2 L 920.2 836.6 L 925 836.7 L 930.5 841.1 L 937.4 842.8 L 945.3 841 L 953.5 843.8 L 962.2 851.4 L 972.6 856 L 984.8 857.8 L 996.6 854.5 L 1007.9 846.1 L 1014.2 845.1 L 1015.4 851.7 L 1018.2 856.7 L 1022.7 860.2 L 1029.3 859.9 L 1037.9 855.8 L 1048.8 856.3 L 1062 861.6 L 1071 861 L 1076 854.5 L 1082.6 850.8 L 1090.8 849.8 L 1097.3 852.3 L 1102 858.1 L 1108.4 861.9 L 1116.3 863.6 L 1120.3 867.5 L 1120.4 873.5 L 1124.2 878.8 L 1131.8 883.3 L 1134.6 888.3 L 1132.5 893.9 L 1132.6 899.8" />
<path class="river" d="M -628.7 980.8 L -623 972.2 M -647.5 979.3 L -641.7 976 L -641.5 972.2 L -641.5 966.4 M -623 972.2 L -616.4 971.6 L -614.9 973.1 L -614.2 978.1 L -612.7 981.7 L -613.1 985.6 M -623 972.2 L -623 967.3 L -633.9 967.1 L -637.4 967.6 L -641.5 966.4 M -641.5 966.4 L -646.2 963 M 413.9 230.8 L 387.2 204.4 M 387.8 205 L 379.4 192.5 L 368.8 182.3 L 353.3 170.3 L 341.2 165.4 L 332.7 167.6 L 317.8 163.8 L 283.2 147.1 L 277.7 142.9 L 274.9 138.7 L 274.8 134.4 L 268.4 127.6 L 255.6 118.2 L 243.4 106.7 L 231.7 93.2 L 220.3 84.9 L 203.6 80.2 L 170.9 68.9 L 154.7 60.3 L 144 50.5 L 132.5 43.1 L 120.1 38.1 L 111.1 32 L 105.5 24.9 L 103.3 18.6 L 104.4 13.1 L 98.5 5.7 L 85.6 -3.5 L 77.4 -12 L 74 -19.7 L 67.7 -23 L 58.6 -21.8 L 48.1 -24.9 L 36.1 -32.5 L 29.2 -38.4 L 27.5 -42.8 L 21.4 -45.4 L 11 -46.1 L -1.7 -49.1 L -16.7 -54.5 L -24.6 -59.7 L -25.5 -64.9 L -28 -67 L -32.2 -66.1 L -34.2 -59.2 L -34.1 -46.3 L -39.1 -37.5 L -49.1 -32.7 L -59.5 -30 L -70.2 -29.4 L -84.4 -31.9 L -102.1 -37.2 L -120.7 -40.2 L -140.2 -40.8 L -150.9 -35 L -152.8 -22.6 L -162 -11.5 L -178.6 -1.7 L -187.5 6 L -188.6 11.7 L -186.6 16.4 L -181.4 20 L -182.2 23.2 L -189.3 26 L -193.7 30.4 L -196.6 39.6 M -203.1 86.7 L -208 91.4 L -213.2 92.9 L -220.5 92.6 L -229.1 94.2 L -239.1 97.9 L -244.2 103.4 L -244.5 111 L -247.8 114.2 L -254.3 113.2 L -258.9 113.6 L -261.8 115.5 L -266.4 123.6 L -272.7 137.8 L -279.3 146.3 L -286.1 149.3 L -289.6 158 L -289.8 172.3 L -295.8 182.6 L -307.7 188.8 L -315.7 196.3 L -321.9 209.3 L -322.8 227.4 L -329 242.5 L -346.8 269.9 L -365.2 307.6 L -370.5 331.3 L -368 364.7 L -373.2 374.2 L -372.8 382.5 L -368.5 392.7 L -368 402.8 L -371.2 412.7 L -371.3 426.8 L -368.2 445.1 L -371.3 460.8 L -380.4 473.9 L -383.1 484.9 L -379.4 493.7 L -379.1 502.2 L -382.3 510.3 L -383.6 517.8 L -383.1 524.6 L -387.1 531.2 L -395.6 537.5 L -401.9 540.6 L -405.9 540.7 L -415.6 547.7 L -430.7 561.6 L -444.1 570.5 L -455.8 574.4 L -465.8 582 L -474.1 593.4 L -481.6 599.4 L -488.4 600.2 L -492.6 602.4 L -494.4 605.9 L -497.3 607.3 L -501.3 606.5 L -506.7 608.6 L -513.6 613.6 L -519.2 616 L -523.4 615.7 L -526.3 617.5 L -527.9 621.5 L -530.4 623.2 L -533.7 622.7 L -534.8 625 L -533.6 630 L -534.9 633.9 L -538.9 636.6 L -538.7 639.3 L -534.6 642 L -533 644.1 L -534 645.7 L -543.8 649.3 L -549.4 647.6 L -554.5 642.1 L -557.6 641.2 L -559 644.7 L -566.1 648.4 L -579 652.5 L -586.8 655.9 L -589.5 658.6 L -590 663.9 L -588.5 672 L -590.3 676.2 L -595.4 676.7 L -599.4 678.8 L -602.1 682.5 L -602.3 685.7 L -599.9 688.6 L -601 690.6 L -605.8 691.9 L -607.7 694.5 L -606.9 698.6 L -610.8 703.4 L -619.6 709 L -624.2 716.7 L -624.8 731.5 L -626 753.9 L -625.2 764.3 L -622.9 770.1 L -618 775.3 L -610.5 779.8 L -606.1 784.3 L -605 788.9 L -598.7 796.7 L -587.2 807.8 L -583.1 814.6 L -586.5 817.2 L -585.8 820.5 L -581.2 824.4 L -581.4 829.9 L -586.3 837.1 L -588 845.5 L -586.5 855.1 L -586.8 861.5 L -588.9 864.6 L -588.4 867.6 L -585.4 870.5 L -585.5 872.3 L -588.8 872.8 L -591.3 876.6 L -592.7 883.6 L -594.9 886.3 L -597.6 884.7 L -600.3 886.8 L -602.8 892.6 L -606.2 895.6 L -610.4 895.9 L -614.2 905.5 L -617.6 924.4 L -622 934.5 L -627.4 935.5 L -629.6 937.5 L -628.4 940.4 L -629.7 942 L -633.4 942.5 L -634.3 944.3 L -632.3 947.5 L -635.1 951.2 L -642.5 955.5 L -646.3 959.5 L -646.4 963.1 L -649.2 965.4 L -657.4 966.9 L -664.3 968.7" />
<path class="river" d="M 648 409.3 L 676.3 413.4 L 685.3 412.8 L 690.6 415.9 L 695.3 422.5 L 715.1 434.3 L 767.5 460.1 L 781.9 466.4 L 786.9 470.8 L 787.3 475.4 L 789.7 479 L 793.9 481.8 L 805 484.5 L 822.8 487.1 L 832.4 493.5 L 833.8 503.8 L 844.1 511 L 863.4 514.9 L 877.5 513.8 L 886.3 507.7 L 896.1 505.8 L 912.1 509.1 L 928.2 515.3 L 952.4 516.1 L 990 513.5 L 1028.5 514.9 L 1068 520.2 L 1093.3 522.1 L 1109.8 519.9" />
<path class="river" d="M 1448.6 274.8 L 1451 286.1 L 1455.7 292.1 L 1463.7 296.5 L 1469.4 304.4 L 1472.7 315.6 L 1478.8 320.9 L 1487.6 320.3 L 1493.7 322.9 L 1497.1 328.7 L 1502.6 331.4 L 1510.2 330.9 L 1515.7 327.1 L 1518.8 320 L 1528.5 315 L 1552.6 310.8 L 1567.1 308.2 L 1575 308.5 L 1581 310.7 L 1592.4 311.2 L 1609.1 309.8 L 1624.6 310.5 L 1638.9 313.3 L 1650.6 313.6 L 1659.6 311.5 L 1675.8 311.7 L 1699.1 314.2 L 1712.8 316.5 L 1717 318.8 L 1717 323.6 L 1712.9 331.2 L 1713.1 335.6 L 1717.6 336.9 L 1721.7 340.4 L 1725.2 346.3 L 1728.8 349.7 L 1732.5 350.6 L 1738.6 348.6 L 1747.1 343.8 L 1757.6 341.3 L 1770.1 341.1 L 1780.7 342.6 L 1789.3 345.6 L 1796.9 351.1 L 1803.7 359 L 1812.9 361.4 L 1824.4 358.5 L 1838.8 359.5 L 1855.9 364.6 L 1866.9 368.7 L 1871.9 372.1 L 1878.1 382.2 L 1885.7 399 L 1890.7 407 L 1894.4 406.1" />
<path class="river" d="M 581.2 318.1 L 573.2 322.1 L 569 322.5 L 564.2 319.7 L 550.8 310.6 L 544.8 304.7 L 541.8 299 L 541.5 292.4 L 543.8 284.9 L 548.6 278.6 L 556 273.6 L 557.2 269.7 L 552.2 266.9 L 549.8 262.8 L 549.9 257.3 L 547.1 250.2 L 541.5 241.3 L 527.6 233 L 505.3 225.1 L 484.2 221.3 L 464.3 221.3 L 444.3 223.7 L 413.9 230.8" />
<path class="river" d="M 558 378.9 L 550.8 375.9 M 542.5 370.6 L 514 352.9 L 501.4 347 L 492.4 347 L 484.1 351.8 L 478.9 352.9 L 474 352 L 463.2 346.7 L 446.6 337 L 435.5 328.1 L 430 320.2 L 419.3 315.4 L 403.5 313.7 L 389.4 309.3 L 377.1 302.1 L 364.4 298.8 L 351.4 299.3 L 342.6 296.4 L 337.9 290.1 L 332.9 286 L 327.4 284.1 L 318.8 287 L 307.3 294.5 L 301.3 300 L 300.7 303.3 L 297.2 304.9 L 290.6 304.9 L 286.6 306.6 L 285.3 310.1 L 275.1 310.9 L 256.1 309 L 240.3 312.7 L 227.5 321.9 L 217.3 326.4 L 209.9 326.2 L 204.8 327.9 L 202.2 331.6 L 197.6 334.2 L 191.1 335.7 L 181.7 333.7 L 169.6 328.1 L 163.5 324.2 L 163.6 322.2 L 161 321.4 L 153.2 321.7 M 124.2 320.5 L 119.7 321.9 L 118.5 323.7 L 119 326.5 L 133 345 L 135.8 352.9 L 132.2 357.4 L 117.6 358.6 L 92.1 356.6 L 67.7 356.5 L 44.5 358.1 L 25 354.6 L 9.1 345.9 L -3.2 342.1 L -11.8 343.2 L -25.7 349.5 L -44.8 361.2 L -56.2 367 L -59.8 367 L -70.6 377.9 L -88.8 399.8 L -106.6 413.5 L -133 421.9 L -143.9 425.3 L -148.8 428.4 L -151.5 432.2 L -153.8 433.2 L -155.9 431.4 L -163.5 434.6 L -176.7 442.8 L -189.8 448.9 L -202.9 452.9 L -209.8 456.3 L -210.5 459.2 L -216.5 460.4 L -227.8 459.9 L -238.1 463.5 L -247.5 471.4 L -251.8 477.1 L -251 480.6 L -254.6 484.3 L -262.6 488.1 L -273.5 490.5 L -287.4 491.2 L -295.9 493.5 L -299 497.3 L -303.4 499.6 L -309.1 500.6 L -316.3 499.7 L -324.8 497 L -334.6 497 L -351.7 504.6" />
<path class="river" d="M 291.5 365.1 L 268 380.7 L 260.5 395.6 L 256.6 399.9 L 253.8 398.7 L 245.4 400.6 L 231.4 405.4 L 224.3 411.1 L 223.9 421 L 220.2 427.6 L 212.7 434.2 L 200.2 443.1 L 190.2 456.7 L 182.7 475.2 L 180.3 486 L 183 489.2 L 183.2 492 L 182.1 493.7 L 182 495.7 L 184.4 498 L 186.5 503.3 L 185.9 516.4 L 187.5 527.4 L 191.3 536.3 L 193.3 545.7 L 193.3 555.6 L 195.7 564.3 L 202.6 575.4 L 213.7 583.7 L 216.8 588.2 L 215.5 591.6 L 216.4 596.3 L 219.5 602.2 L 219.6 608.1 L 216.5 614 L 217.4 622.4 L 222.3 633.3 L 227.1 638.8 L 232 638.8 L 233.6 643 L 232.1 651.5 L 232.5 656.1 L 234.7 656.8 L 235.3 658.8 L 234.4 662 L 236.3 667.8 L 241 676.3 L 246 682 L 251.1 685.2 L 254.6 685.7 L 256.5 683.7 L 258.7 683.4 L 261.1 684.8 L 262.7 687.4 L 263.4 691.1 L 267.6 692.7 L 275.3 692.3 L 279.5 694.3 L 280.1 698.9 L 283.5 700.4 L 287.3 699.5 L 288.7 700.4 L 289.1 701.9 L 290.3 703.4 L 295.3 703.7 L 300 706.7 L 304.5 712.2 L 306.2 712.9 L 307.4 712.3 L 309.4 712.5 L 315.1 716.7 L 319.9 718.1 L 323.7 716.7 L 330 719.4 L 338.8 726.3 L 344.9 729.7 L 348.2 729.7 L 351.6 733.3 L 355 740.5 L 361.4 745.7 L 370.5 749 L 372.5 751.7 L 372.4 754 L 371.5 755.2 L 372.8 757.5 L 374 758.6 L 376.7 759.1 L 384.7 758.3 L 391 760.1 L 392.8 764 L 394.9 765.1 L 396.5 765.5 L 397.3 767.2 L 396.7 769.8 L 401.4 775.2 L 412 783 L 420 787.2 L 425.6 787.9 L 429.5 786.8 L 431.2 785.6 L 432.6 785.6 L 433.4 788.3 L 436.3 790.3 L 441.6 790.4 L 444.3 792 L 444.3 795.2 L 447.2 798.5 L 455.8 803.6 L 476.1 806.3 L 483.3 808 L 484.2 809.6 L 483.1 811.1 L 480.1 812.5 L 483.3 815.8 L 492.6 820.9 L 500.1 822.8 L 506.1 821.3 L 511.3 821.4 L 516 823.3 L 518.9 825.8 L 520.2 828.9 L 522.3 830.2 L 525.5 829.7 L 526.9 831.3 L 526.7 835 L 530.2 837.8 L 537.5 839.9 L 541 843.5 L 540.5 848.7 L 544.5 852.2 L 553 854.1 L 558.2 856.4 L 560 859.1 L 566.5 858.5 L 577.5 854.8 L 586 853.6 L 591.9 854.8 L 595.6 853.6 L 597 849.8 L 599.4 847.9 L 604.3 848" />
<path class="river" d="M 1109.8 519.9 L 1117.5 507.9 L 1124.1 502.6 L 1132.4 499.9 L 1141 499.8 L 1150 502.4 L 1155.6 502.7 L 1157.9 500.9 L 1162.2 501.1 L 1168.4 503.1 L 1177.4 503.7 L 1195 502.4 L 1262.9 501.1 L 1288.8 501.7 L 1295.4 503.8 L 1303.2 503.9 L 1312 501.9 L 1322.5 501.6 L 1334.4 503 L 1343.5 505.5 L 1349.7 509.2 L 1359.7 508.8 L 1373.4 504.3 L 1380.8 503.4 L 1381.9 506 L 1384.3 506.2 L 1388 504.1 L 1394 503.6 L 1406.4 505.4 L 1497.5 508.5 L 1531.7 512.9 L 1539.3 519.6 L 1551.8 524.3 L 1569.4 527.1 L 1580.7 526.9 L 1585.5 523.5 L 1588.9 523.9 L 1590.8 527.9 L 1594.7 530.7 L 1600.6 532.1 L 1607.7 528.9 L 1616.1 520.9 L 1628.5 517.6 L 1645 518.9 L 1660.5 518.2 L 1675 515.5 L 1686.1 512.1 L 1697.7 506" />
<g class="city"><circle cx="193.8541447290562" cy="562.028239091935" r="5" /><text x="205.8541447290562" y="566.028239091935">Delhi</text></g>
<g class="city"><circle cx="465.16152718045976" cy="756.0700642401256" r="5" /><text x="477.16152718045976" y="760.0700642401256">Kanpur</text></g>
<g class="city"><circle cx="517.4039622679079" cy="721.3847743223514" r="5" /><text x="529.4039622679079" y="725.3847743223514">Lucknow</text></g>
<g class="city"><circle cx="887.4927745780908" cy="829.3882206114755" r="5" /><text x="899.4927745780908" y="833.3882206114755">Patna</text></g>
<g class="city"><circle cx="262.78018319448034" cy="693.6937014700896" r="5" /><text x="274.78018319448034" y="697.6937014700896">Agra</text></g>
<g class="city"><circle cx="235.12080685310391" cy="533.0168002266528" r="5" /><text x="247.12080685310391" y="537.0168002266528">Meerut</text></g>
<g class="city"><circle cx="201.46332678693418" cy="582.8074531258058" r="5" /><text x="213.46332678693418" y="586.8074531258058">Faridabad</text></g>
<g class="city"><circle cx="700.4746679570667" cy="855.2870796681684" r="5" /><text x="712.4746679570667" y="859.2870796681684">Varanasi</text></g>
<text class="map-title" x="80" y="105">Nepal Physical Study Map</text>
<text class="map-subtitle" x="80" y="145">Landmark: Mount Everest | Study terrain and water systems</text>
  <text class="footer" x="80" y="1036">Made with Natural Earth. Free vector and raster map data @ naturalearthdata.com.</text>
</svg>
