<?xml version="1.0" encoding="UTF-8"?>
<svg xmlns="http://www.w3.org/2000/svg" width="1600" height="1100" viewBox="0 0 1600 1100" role="img" aria-labelledby="title desc">
  <title id="title">Oman Political Study Map</title>
  <desc id="desc">Made with Natural Earth. Free vector and raster map data @ naturalearthdata.com.</desc>
  <defs>
    <linearGradient id="terrain" x1="0" x2="1" y1="0" y2="1">
      <stop offset="0%" stop-color="#6c8c53" />
      <stop offset="42%" stop-color="#d5c487" />
      <stop offset="72%" stop-color="#b88b5f" />
      <stop offset="100%" stop-color="#f1f5ee" />
    </linearGradient>
    <filter id="softShadow" x="-10%" y="-10%" width="120%" height="120%">
      <feDropShadow dx="0" dy="10" stdDeviation="12" flood-color="#0f172a" flood-opacity="0.16" />
    </filter>
    <style>
      .neighbor { fill: #ffffff; stroke: #94a3b8; stroke-width: 1.2; opacity: 0.72; }
      .country { fill: #f7f1df; stroke: #1f2937; stroke-width: 4; filter: url(#softShadow); }
      .admin1 { fill: none; stroke: #64748b; stroke-width: 1.1; stroke-dasharray: 6 7; opacity: 0.75; }
      .river { fill: none; stroke: #1d9bd1; stroke-width: 3; stroke-linecap: round; opacity: 0.88; }
      .lake { fill: #8ed1ea; stroke: #0ea5e9; stroke-width: 1.5; opacity: 0.8; }
      .city circle { fill: #ef4444; stroke: #ffffff; stroke-width: 2; }
      .city text, .terrain-label { fill: #172033; font: 700 24px system-ui, sans-serif; paint-order: stroke; stroke: #ffffff; stroke-width: 5; stroke-linejoin: round; }
      .map-title { fill: #0f172a; font: 800 46px system-ui, sans-serif; }
      .map-subtitle { fill: #475569; font: 600 24px system-ui, sans-serif; }
      .footer { fill: #64748b; font: 500 18px system-ui, sans-serif; }
    </style>
  </defs>
  <rect width="100%" height="100%" fill="#eaf3f8" />
  <rect x="40" y="40" width="1520" height="1020" rx="32" fill="#ffffff" opacity="0.54" />
  <path class="neighbor" d="M 124.1 1680.5 L 96.1 1641.5 L 95.6 1469.6 L 136.8 1416 L 149.7 1401.1 L 180 1400.3 L 222.1 1367 L 283.6 1364.9 L 417 1223.2 L 449.9 1183.8 L 471.2 1154.8 L 471.2 1130.2 L 471.2 1082.6 L 471.4 1063.1 L 471.7 1062.4 L 471.7 1062.4 L 486.7 1061.4 L 508.5 1054.4 L 533.5 1049.7 L 555.9 1033.5 L 573.8 1033.4 L 574.8 1046.4 L 570.5 1073.9 L 570.6 1098.7 L 560.7 1115.8 L 547.4 1166.8 L 524.7 1219.5 L 495.5 1279.8 L 455 1349 L 414.7 1401.8 L 359.1 1466.2 L 311.9 1504.4 L 241.3 1551.3 L 197.3 1587.2 L 145.6 1644.4 L 134.7 1669.3 L 124.1 1680.5 Z" />
<path class="neighbor" d="M 595.9 456.5 L 604.3 454.2 L 606 467.2 L 643 459.7 L 682 461 L 710.5 462.4 L 742.8 430.4 L 778 400.2 L 807.9 371.1 L 816.9 387.2 L 823.3 424.4 L 799.2 424.6 L 795.3 455.4 L 803.6 461.9 L 782.3 471.2 L 782.1 490.5 L 768.4 510.1 L 767.2 529.1 L 757.6 539 L 615.7 515.2 L 597.7 467.4 L 595.9 456.5 Z" />
<path class="neighbor" d="M 559.5 432.5 L 556.4 398.1 L 569.1 373.4 L 582 368.3 L 596.3 383.1 L 597.1 410.7 L 586.9 438.5 L 573.8 441.8 L 559.5 432.5 Z" />
<path class="neighbor" d="M 425.7 186 L 435.5 206.8 L 431.3 217.6 L 446.5 253.2 L 413.2 254.4 L 401.4 232 L 359.3 227.4 L 394 182.1 L 425.7 186 Z" />
<path class="neighbor" d="M 11.3 82.9 L -7.7 25.4 L 96.8 -23.7 L 114.6 -80.8 L 110.1 -115.3 L 136 -127 L 160.2 -156.4 L 180.4 -163.7 L 235.4 -157.7 L 251.9 -145.6 L 274.6 -153.6 L 305.1 -97.3 L 336.1 -83.1 L 339.7 -55.6 L 315.9 -39.3 L 305 -2.4 L 337.6 42.4 L 395.5 68.3 L 419.8 104.2 L 412 138.4 L 427.1 138.4 L 427.6 163.5 L 453.7 188.3 L 425.7 186 L 394 182.1 L 359.3 227.4 L 271.6 223.6 L 138.5 128.7 L 68.1 95.7 L 11.3 82.9 Z" />
<path class="neighbor" d="M 1835.4 -74.5 L 1789.8 -34.8 L 1737.1 -27.8 L 1665.5 -39.3 L 1642.4 -18.9 L 1659.1 22.4 L 1675.5 54.4 L 1713.6 77.7 L 1673.4 105 L 1674.1 138.6 L 1628.3 186 L 1598.7 233.9 L 1549.3 283.4 L 1494.5 279.8 L 1442.5 329.3 L 1473.4 350.5 L 1478.7 386.8 L 1505.3 410.7 L 1514.6 451.3 L 1410.8 451.1 L 1379.3 482.6 L 1344.7 470.7 L 1330.6 436.8 L 1294.2 400.8 L 1207.2 409.7 L 1130.5 410.6 L 1064 417.2 L 1081.8 362.4 L 1149.9 338 L 1146 316.2 L 1123.4 308.6 L 1122.1 267 L 1077 246.3 L 1058 217.8 L 1034.6 192.9 L 1113.7 217 L 1160.9 210 L 1189.2 216 L 1198.7 205.6 L 1231.6 209.8 L 1292.9 190.2 L 1294.6 150 L 1320.9 123.3 L 1356 123.4 L 1361.2 110.2 L 1397.3 104 L 1414.7 108.4 L 1433.2 95.1 L 1430.6 66.8 L 1450.6 38.3 L 1480.7 26.3 L 1462.1 -4.9 L 1507 -3.4 L 1520 -20.4 L 1518 -38.6 L 1541.5 -58.4 L 1536.1 -81.9 L 1525 -101.9 L 1552.5 -122.4 L 1603.2 -132.3 L 1657.4 -137.8 L 1681.4 -146.5 L 1708.9 -151.8 L 1743.7 -129.8 L 1757.7 -93.6 L 1835.4 -74.5 Z" />
<path class="neighbor" d="M 1301.1 -162.7 L 1327.4 -162.4 L 1363 -152.4 L 1377.4 -146.6 L 1411.6 -161.8 L 1427.5 -152.7 L 1442.7 -174.3 L 1470.9 -173.3 L 1478.2 -180.3 L 1483.2 -199.3 L 1503.5 -215.7 L 1529 -205 L 1523.9 -190.6 L 1538.2 -188.3 L 1533.8 -148.7 L 1552.5 -133.2 L 1568.9 -143.1 L 1589.9 -147.8 L 1619.3 -168.9 L 1651.8 -165.5 L 1700.5 -165.4 L 1708.9 -151.8 L 1681.4 -146.5 L 1657.4 -137.8 L 1603.2 -132.3 L 1552.5 -122.4 L 1525 -101.9 L 1536.1 -81.9 L 1541.5 -58.4 L 1518 -38.6 L 1520 -20.4 L 1507 -3.4 L 1462.1 -4.9 L 1480.7 26.3 L 1450.6 38.3 L 1430.6 66.8 L 1433.2 95.1 L 1414.7 108.4 L 1397.3 104 L 1361.2 110.2 L 1356 123.4 L 1320.9 123.3 L 1294.6 150 L 1292.9 190.2 L 1231.6 209.8 L 1198.7 205.6 L 1189.2 216 L 1160.9 210 L 1113.7 217 L 1034.6 192.9 L 1077.4 150.1 L 1073.6 119.8 L 1037.8 111.8 L 1034.1 81.8 L 1018.7 44.1 L 1038.8 18.3 L 1018.3 11.3 L 1031.3 -23 L 1050.5 -81.8 L 1098.6 -63.9 L 1134.2 -70.2 L 1144.1 -91.6 L 1181.4 -98.7 L 1208 -113.1 L 1217.4 -150.8 L 1257.2 -160 L 1264.6 -176.8 L 1286.8 -164.1 L 1301.1 -162.7 Z" />
<path class="neighbor" d="M 453.7 188.3 L 427.6 163.5 L 427.1 138.4 L 412 138.4 L 419.8 104.2 L 395.5 68.3 L 337.6 42.4 L 305 -2.4 L 315.9 -39.3 L 339.7 -55.6 L 336.1 -83.1 L 305.1 -97.3 L 274.6 -153.6 L 274.6 -153.6 L 248.7 -191.4 L 258 -206 L 243.2 -260.2 L 275.6 -273.6 L 283 -255.8 L 306.9 -234 L 339.3 -227.7 L 356.4 -229.1 L 412 -264 L 429.7 -267.4 L 443.7 -253.6 L 427.4 -230.2 L 456.8 -205.5 L 468.6 -207.9 L 483.5 -173.1 L 528.3 -163.2 L 561.1 -139.6 L 628.2 -131.4 L 701.9 -143.9 L 706.4 -154.9 L 747.9 -164.1 L 781.5 -191.1 L 813 -189.7 L 833.8 -198.5 L 867.3 -194.1 L 919.5 -170.2 L 957.2 -165.1 L 1011.2 -123.2 L 1046.4 -121.6 L 1050.5 -81.8 L 1031.3 -23 L 1018.3 11.3 L 1038.8 18.3 L 1018.7 44.1 L 1034.1 81.8 L 1037.8 111.8 L 1073.6 119.8 L 1077.4 150.1 L 1034.6 192.9 L 1058 217.8 L 1077 246.3 L 1122.1 267 L 1123.4 308.6 L 1146 316.2 L 1149.9 338 L 1081.8 362.4 L 1064 417.2 L 975.2 402.9 L 923.8 392.1 L 870.5 386 L 850.4 328.1 L 827.8 319.7 L 791.5 328.2 L 743.9 351 L 686.2 335.3 L 638.5 299.1 L 593.1 285.6 L 561.6 240.8 L 526.7 177.9 L 501.3 185.5 L 471.3 169.9 L 453.7 188.3 Z" />
<path class="neighbor" d="M 615.7 704.1 L 652.6 782 L 668 815 L 633.9 827.7 L 624.8 848.6 L 623.7 864.7 L 576.7 884.7 L 501.2 906.7 L 459 940 L 438.2 942.6 L 424 939.8 L 396.4 959.4 L 366.3 968.5 L 326.7 970.9 L 314.8 973.6 L 304.5 986.1 L 292.1 989.5 L 284.8 1001.5 L 261.4 1000.5 L 246.3 1006.9 L 213.7 1004.5 L 201.4 976.9 L 202.7 951.1 L 195 937.2 L 185.8 902.3 L 172.2 882.9 L 181.7 880.6 L 176.8 859 L 182.6 849.9 L 180.5 829.3 L 201.2 814.3 L 196.3 794.4 L 208.8 771.2 L 228.2 783.4 L 241 779.2 L 295.5 778.1 L 304.2 782.8 L 349.8 787.5 L 367.9 785.2 L 379.7 800.9 L 401.7 793 L 435.6 743.5 L 479.6 722.2 L 615.7 704.1 Z" />
<path class="neighbor" d="M -188.8 215.2 L -136.3 222.8 L -115.9 208.2 L -104.6 191.2 L -68.6 184.7 L -60.8 168.9 L -45.2 160.9 L -92.2 113.7 L 2.3 90 L 11.3 82.9 L 68.1 95.7 L 138.5 128.7 L 271.6 223.6 L 359.3 227.4 L 401.4 232 L 413.2 254.4 L 446.5 253.2 L 465 293.9 L 488.2 304.7 L 496.3 321.3 L 528.5 341.1 L 531.4 360.6 L 526.7 376.3 L 532.6 392.2 L 546.2 405.4 L 552.5 420.9 L 559.5 432.5 L 573.8 441.8 L 586.9 438.5 L 595.9 456.5 L 597.7 467.4 L 615.7 515.2 L 757.6 539 L 767.2 529.1 L 788.8 562.5 L 757.3 656.9 L 615.7 704.1 L 479.6 722.2 L 435.6 743.5 L 401.7 793 L 379.7 800.9 L 367.9 785.2 L 349.8 787.5 L 304.2 782.8 L 295.5 778.1 L 241 779.2 L 228.2 783.4 L 208.8 771.2 L 196.3 794.4 L 201.2 814.3 L 180.5 829.3 L 174.3 809.2 L 160.1 794.9 L 156.5 776.1 L 132.1 759.2 L 106.9 719.6 L 93.6 681.2 L 61 648.7 L 39.9 640.9 L 8.6 595.9 L 3.2 563.1 L 5.2 535.1 L -21.9 482.8 L -44 464.4 L -69.5 454.6 L -85 427.6 L -82.5 416.9 L -95.6 392.4 L -109.4 381.9 L -127.8 346.8 L -156.5 308.7 L -180.6 276.3 L -204.1 276.5 L -196.8 250.6 L -194.7 234.1 L -188.8 215.2 Z" />

<path class="country" d="M 767.2 529.1 L 768.4 510.1 L 782.1 490.5 L 782.3 471.2 L 803.6 461.9 L 795.3 455.4 L 799.2 424.6 L 823.3 424.4 L 844.4 456.7 L 870.8 473.8 L 905.4 480 L 933.4 488.6 L 954.7 515.7 L 967.4 531.3 L 984.3 537.3 L 984.2 547.8 L 967 576 L 959.5 589.2 L 939.6 604.3 L 922 636.7 L 900.6 634.2 L 890.7 645.4 L 883.2 669.4 L 889 700.9 L 884.5 706.7 L 862.8 706.6 L 833.3 724.2 L 828.7 747.2 L 817.9 757.2 L 788.6 756.8 L 770.1 768.7 L 770.3 787.7 L 747.5 800.9 L 721.4 796.4 L 689.8 812.3 L 668 815 L 652.6 782 L 615.7 704.1 L 757.3 656.9 L 788.8 562.5 L 767.2 529.1 Z M 816.9 387.2 L 807.9 371.1 L 821.6 355 L 827.5 359.1 L 823 378.6 L 816.9 387.2 Z" />


<g class="city"><circle cx="593.6670127286288" cy="407.36736859744747" r="5" /><text x="605.6670127286288" y="411.36736859744747">Doha</text></g>
<g class="city"><circle cx="770.8707698183755" cy="410.7492706685139" r="5" /><text x="782.8707698183755" y="414.7492706685139">Dubai</text></g>
<g class="city"><circle cx="642.5280016189008" cy="202.24833330477134" r="5" /><text x="654.5280016189008" y="206.24833330477134">Shiraz</text></g>
<g class="city"><circle cx="916.7963699512861" cy="487.6796124694365" r="5" /><text x="928.7963699512861" y="491.6796124694365">Muscat</text></g>
<g class="city"><circle cx="727.426186645853" cy="446.06882042606355" r="5" /><text x="739.426186645853" y="450.06882042606355">Abu Dhabi</text></g>
<g class="city"><circle cx="548.8269299898215" cy="362.5431464903171" r="5" /><text x="560.8269299898215" y="366.5431464903171">Manama</text></g>
<g class="city"><circle cx="817.375888453458" cy="316.8530094204313" r="5" /><text x="829.375888453458" y="320.8530094204313">Bandar-e-Abbas</text></g>
<text class="map-title" x="80" y="105">Oman Political Study Map</text>
<text class="map-subtitle" x="80" y="145">Capital: Muscat | Continent: Asia</text>
  <text class="footer" x="80" y="1036">Made with Natural Earth. Free vector and raster map data @ naturalearthdata.com.</text>
</svg>
