<?xml version="1.0" encoding="UTF-8"?>
<svg xmlns="http://www.w3.org/2000/svg" width="1600" height="1100" viewBox="0 0 1600 1100" role="img" aria-labelledby="title desc">
  <title id="title">Panama Physical Study Map</title>
  <desc id="desc">Made with Natural Earth. Free vector and raster map data @ naturalearthdata.com.</desc>
  <defs>
    <linearGradient id="terrain" x1="0" x2="1" y1="0" y2="1">
      <stop offset="0%" stop-color="#6c8c53" />
      <stop offset="42%" stop-color="#d5c487" />
      <stop offset="72%" stop-color="#b88b5f" />
      <stop offset="100%" stop-color="#f1f5ee" />
    </linearGradient>
    <filter id="softShadow" x="-10%" y="-10%" width="120%" height="120%">
      <feDropShadow dx="0" dy="10" stdDeviation="12" flood-color="#0f172a" flood-opacity="0.16" />
    </filter>
    <style>
      .neighbor { fill: #ffffff; stroke: #94a3b8; stroke-width: 1.2; opacity: 0.72; }
      .country { fill: url(#terrain); stroke: #1f2937; stroke-width: 4; filter: url(#softShadow); }
      .admin1 { fill: none; stroke: #64748b; stroke-width: 1.1; stroke-dasharray: 6 7; opacity: 0.75; }
      .river { fill: none; stroke: #1d9bd1; stroke-width: 3; stroke-linecap: round; opacity: 0.88; }
      .lake { fill: #8ed1ea; stroke: #0ea5e9; stroke-width: 1.5; opacity: 0.8; }
      .city circle { fill: #ef4444; stroke: #ffffff; stroke-width: 2; }
      .city text, .terrain-label { fill: #172033; font: 700 24px system-ui, sans-serif; paint-order: stroke; stroke: #ffffff; stroke-width: 5; stroke-linejoin: round; }
      .map-title { fill: #0f172a; font: 800 46px system-ui, sans-serif; }
      .map-subtitle { fill: #475569; font: 600 24px system-ui, sans-serif; }
      .footer { fill: #64748b; font: 500 18px system-ui, sans-serif; }
    </style>
  </defs>
  <rect width="100%" height="100%" fill="#d8edf0" />
  <rect x="40" y="40" width="1520" height="1020" rx="32" fill="#ffffff" opacity="0.54" />
  <path class="neighbor" d="M 2441 1473.6 L 2417.6 1488.9 L 2393.4 1415.7 L 2358.9 1376.3 L 2317.9 1419.1 L 2076.2 1416.3 L 2077.7 1494 L 2150.4 1506.8 L 2146.2 1554.3 L 2121.4 1541.5 L 2051.6 1561.9 L 2050.9 1652 L 2106 1697.3 L 2125.4 1768.3 L 2122.4 1822.1 L 2066.7 2162.3 L 2004.6 2096.3 L 1967.6 2093.4 L 2047.6 1967.1 L 1952.6 1909 L 1878.1 1919.7 L 1833.3 1898.2 L 1765 1931 L 1672.6 1915.5 L 1599.5 1785.4 L 1542.1 1753.5 L 1502.5 1694.9 L 1420 1636.2 L 1386.9 1647.9 L 1333.8 1618.5 L 1272.9 1577.5 L 1237.6 1597.2 L 1132.4 1580 L 1102.1 1526.6 L 1079 1528.6 L 954.9 1457.8 L 938.1 1419.2 L 984.4 1409.9 L 978.9 1347.8 L 1008 1302.9 L 1069.5 1294.5 L 1121.8 1216.6 L 1169.3 1151.5 L 1123.5 1122 L 1146.9 1050 L 1118.9 936.5 L 1145.5 903.9 L 1126 799 L 1075.7 732.9 L 1091.6 672.6 L 1131.6 681.5 L 1155 644.6 L 1126.2 571.6 L 1141.3 553.4 L 1205.4 557.4 L 1298.4 470.8 L 1349.5 457.6 L 1350.7 416.5 L 1373.6 311.7 L 1444.8 254.1 L 1522.9 251.8 L 1532.8 225.9 L 1629.9 236.3 L 1727.5 173.6 L 1775.8 145.9 L 1835.9 86.1 L 1879.8 93.7 L 1912.4 126.4 L 1888.3 168.1 L 1808.6 188.9 L 1777.1 251 L 1729.1 286.5 L 1693.1 332.6 L 1677.9 421.2 L 1643.5 493.7 L 1707.5 502 L 1723.4 559 L 1750.8 586.3 L 1760.6 636.3 L 1745.9 682.2 L 1750.2 708.1 L 1780.8 718.4 L 1810.3 761.7 L 1969.8 749.8 L 2041.9 765.6 L 2129.2 872.3 L 2179.4 859.1 L 2268.7 865.7 L 2339.4 851.6 L 2383.3 872.9 L 2361 939.7 L 2333.3 981.4 L 2323.6 1070.3 L 2348.5 1152.8 L 2383.8 1189.6 L 2388 1217.4 L 2325.2 1279.1 L 2370.2 1306.5 L 2403.2 1349.9 L 2441 1473.6 Z" />
<path class="neighbor" d="M 497.1 442.3 L 449.1 453.4 L 449.8 503.3 L 475.6 521.8 L 457 536.5 L 461.9 558.9 L 451.5 584.1 L 445 608.7 L 377.7 581.2 L 352.5 555.1 L 366.8 533.6 L 362.3 506.2 L 327.9 476.5 L 279.1 452.1 L 236.4 436.2 L 228.2 399.9 L 195.7 377.7 L 203.6 413.8 L 178.9 443.5 L 150.5 409 L 110.7 396.8 L 93.7 371.8 L 94.4 334 L 110.9 294.9 L 75.8 277.4 L 104.2 253.5 L 122.9 237.5 L 204.7 270.4 L 233.2 254.2 L 272.5 264.5 L 293.1 290.1 L 329.7 298.3 L 359.4 272 L 390.8 339.4 L 438.8 389.4 L 497.1 442.3 Z" />
<path class="neighbor" d="M 359.4 272 L 329.7 298.3 L 293.1 290.1 L 272.5 264.5 L 233.2 254.2 L 204.7 270.4 L 122.9 237.5 L 104.2 253.5 L 61.3 214.4 L 3.4 164.4 L -24 122.5 L -76.3 83.5 L -138.4 27.5 L -124.6 8.3 L -104.1 27 L -94.8 18.2 L -56.2 13.1 L -40.7 -15.2 L -22.4 -16.3 L -25.1 -77.3 L 4 -80.2 L 29.9 -79.4 L 56.6 -112.5 L 93.2 -87.4 L 106 -102.8 L 128.8 -117.5 L 172.1 -151.7 L 174.2 -177.2 L 186.1 -176.1 L 202 -205.8 L 215 -209.4 L 236.1 -190.4 L 261 -184.8 L 288.4 -200.6 L 319.7 -200.7 L 362.8 -216.9 L 380 -233.8 L 422.5 -231.3 L 411.8 -219.4 L 405.5 -191.7 L 418.2 -146.3 L 389.6 -104 L 376.3 -54.1 L 372.3 0.6 L 378.9 32.6 L 382 88.4 L 363.1 100.6 L 351.5 153.7 L 360 186.4 L 334.6 218.1 L 340.4 251.7 L 359.4 272 Z" />
<path class="lake" d="M 853.8 494.7 L 851.6 497.2 L 851.3 499.7 L 837.8 503.5 L 834 506.9 L 831.8 507 L 830.9 505.8 L 833.6 502.6 L 836.4 499.5 L 833.3 497.9 L 828.4 495.3 L 825.3 493.4 L 823.8 497.5 L 822.2 502.9 L 819.6 504.2 L 818.7 507.2 L 817.9 509.8 L 816.2 509.6 L 813.8 507.7 L 811.5 505.1 L 810.3 505.6 L 810.5 508 L 809.2 509.4 L 805.7 509.9 L 803.4 510.5 L 804.5 507.5 L 811.3 500.5 L 818.7 488.7 L 822.4 479.4 L 830.6 476.1 L 835 472.8 L 836.6 473.4 L 837.1 477.2 L 837.9 481.1 L 835 483 L 832.3 485 L 833 486.9 L 835.8 489.6 L 836.8 491.2 L 840.7 494.2 L 845.3 496.5 L 848 496.9 L 851.8 495.9 L 853.8 494.7 L 853.8 494.7 L 853.8 494.7 L 853.8 494.7 Z" />
<path class="country" d="M 1141.3 553.4 L 1126.2 571.6 L 1155 644.6 L 1131.6 681.5 L 1091.6 672.6 L 1075.7 732.9 L 1034.4 697.1 L 1007.8 630.2 L 1038.4 597 L 1007 588.5 L 983.9 547.5 L 922.1 513 L 867.8 520.9 L 842.6 564.1 L 792.5 595.3 L 765.5 599.6 L 753.3 625.4 L 812.5 692.7 L 778.6 708.6 L 760.7 727 L 703 733.3 L 681.5 659.2 L 665.3 680.3 L 624.4 673 L 599.4 623.1 L 548.5 614.9 L 516.3 600.3 L 463.1 600.5 L 459.2 627.5 L 445 608.7 L 451.5 584.1 L 461.9 558.9 L 457 536.5 L 475.6 521.8 L 449.8 503.3 L 449.1 453.4 L 497.1 442.3 L 541.6 486.8 L 539.1 513.1 L 588.6 518.7 L 600.3 508.6 L 634.4 539.1 L 695.4 530.1 L 748.2 498.8 L 823.5 473.8 L 865.9 436.7 L 934.4 444 L 929.7 456.2 L 998.9 460.4 L 1054.1 481.8 L 1094.6 519.2 L 1141.3 553.4 Z" />

<path class="river" d="M 851.3 499.7 L 843.2 498.7 L 835.9 493.6 L 822.4 479.4" />
<path class="river" d="M 2677.5 6442.9 L 2723.8 6447.6 L 2749.4 6452.1 L 2769.6 6458 L 2799.2 6472 L 2838.3 6494.2 L 2865.3 6506.4 L 2880.2 6508.8 L 2895.3 6514.4 L 2910.6 6523.2 L 2932 6529.2 L 2959.5 6532.3 L 2981.8 6542.7 L 3007.6 6569.2 L 3011.3 6572.9 L 3014.4 6576.5 M 2016 6006.8 L 2025.8 6044.3 L 2032.9 6060.6 L 2044.5 6071.9 L 2070.2 6077.7 L 2083 6090.6 L 2091.4 6112.4 L 2094.3 6127.3 L 2091.7 6135.2 L 2091.5 6145.5 L 2093.7 6158.1 L 2091.4 6169 L 2084.8 6178.2 L 2080.2 6191.8 L 2077.6 6209.8 L 2078.7 6221.6 L 2083.5 6227.1 L 2090.8 6232.3 L 2100.5 6237.2 L 2120.1 6240.7 L 2149.6 6242.7 L 2168.1 6248.9 L 2175.6 6259.2 L 2193.6 6266.7 L 2222.1 6271.5 L 2239.4 6276.9 L 2245.5 6282.9 L 2267.8 6288.4 L 2306.2 6293.3 L 2328.5 6300.8 L 2334.5 6310.9 L 2332.5 6320.9 L 2322.6 6331 L 2318.2 6339.3 L 2319.2 6346 L 2323.4 6350.1 L 2330.8 6351.8 L 2340.1 6358.4 L 2351.3 6369.9 L 2368.6 6374.5 L 2392 6372 L 2407 6376.6 L 2413.7 6388.2 L 2426.5 6397.3 L 2455.1 6407.2 L 2468.7 6413.1 L 2474.9 6418.9 L 2478.3 6426.4 L 2485.3 6431.2 L 2495.8 6433.3 L 2541.2 6435 L 2563 6437.6 L 2579.8 6442.3 L 2592.1 6443.4 L 2600 6440.8 L 2610 6441.4 L 2622.1 6445.3 L 2640.3 6446.1 L 2676.5 6442.9 M -3494.4 -2430.6 L -3502.7 -2410.8 L -3509.1 -2403.3 L -3516.3 -2401.5 L -3524 -2392.8 L -3532.1 -2377.2 L -3540.6 -2367.1 L -3549.4 -2362.5 L -3553.7 -2356.1 L -3553.3 -2348 L -3552.2 -2346.1 L -3550.5 -2346.3 L -3548 -2345.2 L -3544.6 -2339.3 L -3540.6 -2336.3 L -3533.4 -2336.5 L -3530.2 -2334 L -3526.7 -2330.5 L -3520.8 -2328.4 M -3425.3 -2620.3 L -3445.8 -2606.5 L -3456.9 -2595.2 L -3468.1 -2576.9 L -3466.4 -2562.1 L -3466.9 -2549.9 L -3469.7 -2540.2 L -3474 -2531.2 L -3479.7 -2523.1 L -3485.8 -2518.2 L -3492 -2516.6 L -3494.2 -2505.8 L -3492.4 -2485.8 L -3485.4 -2473.7 L -3473.3 -2469.4 L -3465.9 -2462.8 L -3463.2 -2453.9 L -3464.2 -2445.2 L -3469.1 -2436.6 L -3477.2 -2431.9 L -3494.4 -2430.6 M -3478.3 -2756.7 L -3480.7 -2712.6 L -3480.8 -2701.4 L -3474.1 -2687.4 L -3454.4 -2662 L -3452 -2655.9 M -3497 -2838.6 L -3495.8 -2834.9 L -3490.2 -2826.7 L -3489.8 -2813.8 L -3489 -2803.4 L -3485.6 -2797.7 L -3485 -2791.1 M -3265.6 -2871.7 L -3306.5 -2852.4 L -3317.6 -2842.9 L -3321.2 -2836.3 L -3321 -2816.5 L -3325 -2807.7 L -3333.3 -2807.5 L -3352.8 -2812.3 L -3359.8 -2816 M -3091.5 -2952.6 L -3106.1 -2942.3 L -3117.5 -2929.7 L -3130.6 -2911.3 L -3138.5 -2897.5 L -3141.2 -2888.3 L -3140.1 -2876.7 L -3135.3 -2862.5 L -3136.3 -2852.6 L -3143.3 -2847 L -3156.3 -2846 L -3175.1 -2849.6 L -3188.7 -2855.7 L -3196.8 -2864.4 L -3203.6 -2867.5 L -3208.9 -2865 L -3213.9 -2865.3 L -3218.3 -2868.4 L -3218.8 -2872.7 L -3215.3 -2878.2 L -3214.9 -2882.4 L -3217.6 -2885.2 L -3222.9 -2886.7 L -3231 -2886.8 L -3242.8 -2883.1 L -3266.2 -2871.7 M -2395.3 -3353.6 L -2410.7 -3349 L -2428.1 -3344.7 L -2447.8 -3344.5 L -2462.3 -3340.9 L -2472.3 -3335.5 L -2486.3 -3323.6 L -2491.7 -3320 L -2496.4 -3319.5 L -2502.6 -3323.3 L -2510.9 -3323.8 L -2521.3 -3321.1 L -2532.8 -3311.9 L -2545.4 -3296.1 L -2553 -3289 L -2565.8 -3283.9 L -2603.7 -3280.9 L -2627.6 -3281 L -2641.6 -3278.2 L -2653.7 -3272.6 L -2673.8 -3260 L -2690.7 -3248.1 L -2699.6 -3231.2 L -2714.4 -3221.5 L -2729.9 -3220.3 L -2760 -3231.9 L -2768.2 -3234 L -2778.8 -3233.7 L -2791 -3226.6 L -2809 -3213.2 L -2817.5 -3201.1 L -2822.7 -3185.8 L -2829.7 -3176.1 L -2838.6 -3172.2 L -2846.6 -3165.9 L -2853.7 -3157.2 L -2858.6 -3153.8 L -2860.9 -3154.7 L -2863.4 -3152.8 L -2865.2 -3145.3 L -2867.9 -3141.2 L -2871.6 -3140.7 L -2874.4 -3136.5 L -2876.4 -3128.5 L -2882 -3119.7 L -2896 -3105.6 L -2925 -3080.3 L -2939.6 -3072 L -2954.4 -3072.4 M -2393.4 -3383.3 L -2389.8 -3359.9 L -2390.3 -3356.1" />
<path class="river" d="M 1246.2 1388.1 L 1274.3 1393.8 L 1287 1393.7 L 1297.1 1387.4 L 1335.1 1366.3 L 1347.6 1356.4 L 1347.3 1350.4 L 1351.1 1344.1 L 1358.9 1337.3 L 1362.2 1331.2 L 1360.8 1325.7 L 1368.9 1310.2 L 1386.5 1284.9 L 1396.9 1259.2 L 1400.2 1233.3 L 1413.5 1199.7 L 1436.8 1158.5 L 1450.8 1128.2 L 1455.5 1108.7 L 1455.1 1098.8 L 1449.5 1098.4 L 1450.4 1080.5 L 1461.7 1027.6 L 1463.5 985.4 L 1467.5 963.2 L 1474.4 947 L 1477.1 932.5 L 1475.7 919.5 L 1477.8 905.9 L 1483.3 891.7 L 1485.8 877.9 L 1485.5 864.6 L 1491.4 851.9 L 1503.5 839.8 L 1509.5 827 L 1509.4 813.7 L 1517.9 802 L 1535.2 791.8 L 1550.6 779.6 L 1564.3 765.3 L 1569.6 751 L 1566.6 736.4 L 1568.8 712.9 L 1576.4 680.3 L 1578.4 655.7 L 1574.9 639.3 L 1575.7 627.8 L 1583.4 618 M 1582.5 618 L 1586.4 595.8 L 1584 570.3 L 1576.8 534 L 1564.4 513.5 L 1547 508.8 L 1529.6 499.7 L 1512.4 486.2 L 1500.7 480.1 L 1494.3 481.7 L 1487.9 478.1 L 1481.5 469.5 L 1475 464 L 1465.2 460.7 L 1459.8 457.9 L 1458.6 451.2 L 1459.7 439.9 L 1457.3 426.8 L 1451.3 412 L 1450.6 399.8 L 1455.2 390.2 L 1453 381 L 1444.1 372.3 L 1446.6 354.3 L 1460.3 327.1 L 1467.1 303.7 L 1466.9 284.2 L 1462.8 267.9 L 1452.5 250.8" />
<path class="river" d="M 851.3 499.7 L 866.8 516.5 L 868.5 521.9 M 822.4 479.4 L 822 474.8 L 823.5 467.7" />
<path class="river" d="M 2125.7 5509.9 L 2128.3 5509.1 L 2154.6 5508.2 L 2167.8 5511.4 L 2173.9 5518.6 L 2177.1 5526.2 L 2177.3 5534.4 L 2184.5 5539.1 L 2198.9 5540.4 L 2215.6 5538.6 L 2234.7 5534 L 2245.7 5533.3 L 2249.8 5538.4 L 2256 5545.9 L 2257.3 5555.9 L 2255.7 5570.9 L 2258.3 5584.4 L 2265.1 5596.3 L 2266.9 5604.4 L 2268.1 5607.8 L 2273.6 5609.2 L 2290.5 5608 L 2304.9 5612.7 L 2316.6 5623.3 L 2333.4 5629.8 L 2355.3 5632.4 L 2369.9 5637 L 2380.8 5647.2 M 221.3 249.8 L 256.1 259 L 273.5 266.9 L 285 276.8 L 291.3 284.1 L 292.3 289 L 295.8 291.7 L 304.8 292.3 L 326.7 297.3 L 340.1 296.3 L 352.3 291 L 359 284.7 L 361.2 275 M 55.6 114.6 L 84.5 128.3" />
<g class="city"><circle cx="1361.629086403678" cy="850.3716982948573" r="5" /><text x="1373.629086403678" y="854.3716982948573">Medellín</text></g>
<g class="city"><circle cx="306.9217111634953" cy="397.14240085602233" r="5" /><text x="318.9217111634953" y="401.14240085602233">San José</text></g>
<g class="city"><circle cx="870.6116795851007" cy="516.2868750215133" r="5" /><text x="882.6116795851007" y="520.2868750215133">Panama City</text></g>
<g class="city"><circle cx="1369.1489952241886" cy="338.6731465887108" r="5" /><text x="1381.1489952241886" y="342.6731465887108">Cartagena</text></g>
<g class="city"><circle cx="511.05466471042484" cy="582.8605904686124" r="5" /><text x="523.0546647104248" y="586.8605904686124">David</text></g>
<g class="city"><circle cx="436.6191418218118" cy="388.5018932533924" r="5" /><text x="448.6191418218118" y="392.5018932533924">Limón</text></g>
<text class="map-title" x="80" y="105">Panama Physical Study Map</text>
<text class="map-subtitle" x="80" y="145">Landmark: Panama Canal | Study terrain and water systems</text>
  <text class="footer" x="80" y="1036">Made with Natural Earth. Free vector and raster map data @ naturalearthdata.com.</text>
</svg>
