<?xml version="1.0" encoding="UTF-8"?>
<svg xmlns="http://www.w3.org/2000/svg" width="1600" height="1100" viewBox="0 0 1600 1100" role="img" aria-labelledby="title desc">
  <title id="title">Peru Physical Study Map</title>
  <desc id="desc">Made with Natural Earth. Free vector and raster map data @ naturalearthdata.com.</desc>
  <defs>
    <linearGradient id="terrain" x1="0" x2="1" y1="0" y2="1">
      <stop offset="0%" stop-color="#6c8c53" />
      <stop offset="42%" stop-color="#d5c487" />
      <stop offset="72%" stop-color="#b88b5f" />
      <stop offset="100%" stop-color="#f1f5ee" />
    </linearGradient>
    <filter id="softShadow" x="-10%" y="-10%" width="120%" height="120%">
      <feDropShadow dx="0" dy="10" stdDeviation="12" flood-color="#0f172a" flood-opacity="0.16" />
    </filter>
    <style>
      .neighbor { fill: #ffffff; stroke: #94a3b8; stroke-width: 1.2; opacity: 0.72; }
      .country { fill: url(#terrain); stroke: #1f2937; stroke-width: 4; filter: url(#softShadow); }
      .admin1 { fill: none; stroke: #64748b; stroke-width: 1.1; stroke-dasharray: 6 7; opacity: 0.75; }
      .river { fill: none; stroke: #1d9bd1; stroke-width: 3; stroke-linecap: round; opacity: 0.88; }
      .lake { fill: #8ed1ea; stroke: #0ea5e9; stroke-width: 1.5; opacity: 0.8; }
      .city circle { fill: #ef4444; stroke: #ffffff; stroke-width: 2; }
      .city text, .terrain-label { fill: #172033; font: 700 24px system-ui, sans-serif; paint-order: stroke; stroke: #ffffff; stroke-width: 5; stroke-linejoin: round; }
      .map-title { fill: #0f172a; font: 800 46px system-ui, sans-serif; }
      .map-subtitle { fill: #475569; font: 600 24px system-ui, sans-serif; }
      .footer { fill: #64748b; font: 500 18px system-ui, sans-serif; }
    </style>
  </defs>
  <rect width="100%" height="100%" fill="#d8edf0" />
  <rect x="40" y="40" width="1520" height="1020" rx="32" fill="#ffffff" opacity="0.54" />
  <path class="neighbor" d="M 7214 757.6 L 7214 769.9 L 7198 776.1 L 7182 781.4 L 7178.7 772 L 7191.3 766.9 L 7199.3 765.5 L 7214 757.6 Z M 7166.9 793.8 L 7173.1 789.6 L 7181.8 796.9 L 7177.6 810 L 7162 813.5 L 7148.2 810.4 L 7145.7 799.3 L 7155.5 790.7 L 7166.9 793.8 Z M -1834.5 756.5 L -1837.6 768.6 L -1839.7 769.9 L -1839.7 757.6 L -1834.5 756.5 Z" />
<path class="neighbor" d="M 961.1 1677.3 L 970.7 1689 L 983.3 1707.9 L 1016 1722.9 L 1051.2 1729.2 L 1039.9 1741.8 L 1016 1743.1 L 1003.2 1734.2 L 988 1733.5 L 961.1 1733.5 L 961.1 1677.3 Z M 1237.9 1113.5 L 1231.6 1133.6 L 1224.9 1159.5 L 1225.2 1184.5 L 1219.7 1190.1 L 1217.8 1206.4 L 1216 1219.5 L 1248 1241 L 1244.5 1258.4 L 1260.2 1269.3 L 1259 1281.6 L 1234.8 1313.9 L 1197.5 1327.3 L 1147.1 1332.6 L 1119.4 1330.1 L 1124.7 1345 L 1119.6 1363.9 L 1124.2 1376.6 L 1109.1 1385.4 L 1083.4 1388.9 L 1059.2 1379.7 L 1049.5 1386.3 L 1053 1411.3 L 1070 1418.9 L 1083.7 1410.9 L 1091.2 1424 L 1068.1 1431.8 L 1047.9 1447.4 L 1044.2 1472.7 L 1038.2 1486.2 L 1014.5 1486.3 L 994.8 1499.2 L 987.6 1518 L 1012.3 1536.4 L 1036.3 1541.5 L 1027.7 1564.1 L 998 1578.3 L 981.6 1607.7 L 958.7 1617.7 L 948.4 1629.4 L 956.5 1655.6 L 973.2 1670.1 L 962.6 1668.9 L 939.3 1664.9 L 878.5 1661.6 L 868.1 1646.9 L 868.6 1628.1 L 851.9 1629.7 L 843 1620.6 L 840.8 1593.9 L 860.1 1582.8 L 868.1 1566.9 L 865.2 1554.2 L 878.5 1532.7 L 887.7 1499.4 L 885 1484.6 L 896 1479.9 L 893.3 1470.4 L 881.6 1465.3 L 889.9 1454.8 L 878.5 1445.3 L 872.7 1416.2 L 882.8 1411.1 L 878.5 1380.5 L 884.4 1354.7 L 891.2 1332.3 L 906.2 1323.1 L 898.6 1298.6 L 898.5 1275.5 L 917.5 1259.1 L 916.9 1238.1 L 931.3 1213.5 L 931.4 1190.4 L 924.8 1185.8 L 913.2 1142.4 L 928.7 1116.5 L 926.4 1092.1 L 935.4 1069.3 L 951.8 1045.7 L 969.6 1030.1 L 962 1020.2 L 967.3 1012.1 L 966.5 970.2 L 993.9 957.8 L 1002.5 931.7 L 999.5 925.4 L 1020.4 902.6 L 1053.3 908.8 L 1068.1 926.9 L 1077.9 906.7 L 1106.6 907.7 L 1110.7 913.1 L 1156.9 954.1 L 1177.5 958 L 1208.2 976.5 L 1234.1 986.4 L 1237.7 997.5 L 1212.9 1035.7 L 1238.3 1042.5 L 1266.6 1046.4 L 1286.4 1042.3 L 1309.3 1023.1 L 1313.4 1000.9 L 1325.8 996.1 L 1338.4 1010.6 L 1337.9 1030.7 L 1316.7 1044.5 L 1299.9 1054.8 L 1271.5 1079.2 L 1237.9 1113.5 Z" />
<path class="neighbor" d="M 961.1 1677.3 L 961.1 1733.5 L 988 1733.5 L 1003.2 1734.2 L 994.8 1744.3 L 973.3 1752.2 L 960.9 1751.4 L 946 1749.3 L 927.8 1741.8 L 901.4 1738.1 L 869.8 1724.1 L 844.1 1710.6 L 809.4 1682.4 L 830.2 1687.7 L 865.5 1704.5 L 898.8 1713.5 L 911.8 1702 L 920 1684.7 L 943.2 1674.4 L 961.1 1677.3 Z M 937 795.7 L 949.3 812.8 L 952.7 830.9 L 965.9 841.6 L 958 865.9 L 971.5 894.1 L 981.3 928.8 L 999.5 925.4 L 1002.5 931.7 L 993.9 957.8 L 966.5 970.2 L 967.3 1012.1 L 962 1020.2 L 969.6 1030.1 L 951.8 1045.7 L 935.4 1069.3 L 926.4 1092.1 L 928.7 1116.5 L 913.2 1142.4 L 924.8 1185.8 L 931.4 1190.4 L 931.3 1213.5 L 916.9 1238.1 L 917.5 1259.1 L 898.5 1275.5 L 898.6 1298.6 L 906.2 1323.1 L 891.2 1332.3 L 884.4 1354.7 L 878.5 1380.5 L 882.8 1411.1 L 872.7 1416.2 L 878.5 1445.3 L 889.9 1454.8 L 881.6 1465.3 L 893.3 1470.4 L 896 1479.9 L 885 1484.6 L 887.7 1499.4 L 878.5 1532.7 L 865.2 1554.2 L 868.1 1566.9 L 860.1 1582.8 L 840.8 1593.9 L 843 1620.6 L 851.9 1629.7 L 868.6 1628.1 L 868.1 1646.9 L 878.5 1661.6 L 939.3 1664.9 L 962.6 1668.9 L 940.3 1668.7 L 928.1 1674.9 L 905.4 1683.9 L 901.4 1707.4 L 890.7 1708 L 862.4 1699.8 L 833.6 1682.3 L 833.6 1682.3 L 802.3 1667.9 L 794.4 1652 L 801.5 1637.3 L 788.9 1620.5 L 785.7 1577.7 L 796.4 1553.5 L 822.9 1534.1 L 784.7 1526.7 L 808.7 1504.5 L 817.3 1462.7 L 845.2 1471.6 L 858.4 1419.5 L 841.5 1412.8 L 833.6 1444.2 L 817.8 1440.6 L 825.7 1404.7 L 834.2 1358.1 L 845.8 1340.9 L 838.5 1316.3 L 836.5 1288 L 847.1 1287.2 L 862.5 1246.6 L 879.9 1206.4 L 890.5 1168.9 L 884.7 1131.2 L 892.2 1110.4 L 889.2 1079.4 L 903.9 1048.7 L 908.5 1000 L 916.5 947.8 L 924.4 891.6 L 922.6 850.4 L 917.3 815 L 930.3 808.6 L 937 795.7 Z" />
<path class="neighbor" d="M 1344.8 1202.8 L 1337.9 1188.6 L 1349 1176.6 L 1334.4 1159.5 L 1314.7 1145.6 L 1288.8 1129.5 L 1279.5 1130.2 L 1254.2 1110.8 L 1237.9 1113.5 L 1271.5 1079.2 L 1299.9 1054.8 L 1316.7 1044.5 L 1337.9 1030.7 L 1338.4 1010.6 L 1325.8 996.1 L 1313.4 1000.9 L 1318.3 986.4 L 1321.7 971.5 L 1321.7 957.7 L 1312.7 953.1 L 1303.2 957.2 L 1293.9 956.1 L 1290.9 946.4 L 1288.6 923.3 L 1283.9 915.8 L 1266.9 909 L 1256.6 913.9 L 1230.1 909.1 L 1231.7 875 L 1224.3 861 L 1232.2 855.8 L 1229.8 841.5 L 1236.6 830.4 L 1241.1 810.6 L 1235.2 795 L 1221.4 787.9 L 1218.7 778 L 1222.4 763.5 L 1174.2 762.4 L 1164.5 733.2 L 1171.9 732.7 L 1171.5 721.9 L 1166.6 714.6 L 1165.5 700 L 1150.9 692.6 L 1135.1 692.8 L 1124.7 685.5 L 1107.7 680.5 L 1097.8 671.1 L 1069.6 667 L 1042.3 644.4 L 1044.4 627.6 L 1041.3 617.9 L 1043.9 599.1 L 1011 603.3 L 997.8 612.8 L 975.8 623 L 970.2 630.6 L 957.2 631.1 L 938.5 629 L 924.3 633.3 L 912.9 630.4 L 914.6 592.2 L 893.9 607.1 L 871.8 606.4 L 862.2 593 L 845.6 591.5 L 850.9 580.7 L 836.9 565.4 L 826.4 542.8 L 833.1 538.2 L 833 527.6 L 848.2 520.3 L 845.7 506.7 L 852.1 497.9 L 854 486.2 L 882.7 469.1 L 903.3 464.3 L 906.7 460.5 L 929.4 461.7 L 940.7 392.7 L 941.3 381.8 L 937.3 367.4 L 926.2 358.2 L 926.3 339.9 L 940.5 335.8 L 945.5 338.4 L 946.4 328.8 L 931.6 326.2 L 931.3 310.4 L 980.3 311 L 988.6 302.3 L 995.6 310.3 L 1000.5 325.1 L 1005.3 322 L 1019.1 335.3 L 1038.7 333.7 L 1043.5 326 L 1062.2 320.1 L 1072.6 316 L 1075.5 305.4 L 1093.5 298.2 L 1092.1 292.9 L 1070.8 290.8 L 1067.3 274.9 L 1068.3 258.1 L 1057.1 251.5 L 1061.8 249.2 L 1080.4 252.4 L 1100.4 258.7 L 1107.7 252.8 L 1125.7 248.9 L 1153.9 239.5 L 1163.1 229.9 L 1159.7 222.8 L 1172.8 221.7 L 1178.7 227.5 L 1175.4 238.5 L 1184 242.3 L 1189.8 254 L 1182.8 262.9 L 1178.8 284.3 L 1185.3 297 L 1187.1 308.6 L 1202.6 320.4 L 1214.9 321.7 L 1217.7 316.7 L 1225.6 315.7 L 1237 311.2 L 1245.2 304.6 L 1259.1 306.7 L 1265.2 305.8 L 1278.9 307.8 L 1281.2 302.7 L 1276.9 297.7 L 1279.5 290.4 L 1289.6 292.7 L 1301.5 290.1 L 1315.9 295.4 L 1326.9 300.6 L 1334.7 293.8 L 1340.3 294.8 L 1343.7 301.9 L 1355.8 300.1 L 1365.4 290.6 L 1373.1 272.1 L 1388 249 L 1396.6 247.8 L 1402.8 261.8 L 1416.9 305.7 L 1430.3 309.9 L 1431 327.3 L 1412.1 348 L 1419.9 355.5 L 1464.4 359.5 L 1465.3 384.7 L 1484.4 368.2 L 1516 377.2 L 1557.8 392.6 L 1570.1 407.3 L 1566 421.2 L 1595.2 413.5 L 1644.1 426.8 L 1681.7 425.8 L 1718.9 446.6 L 1751 474.8 L 1770.4 482.1 L 1791.9 483.1 L 1801 491 L 1809.5 523 L 1813.7 538.2 L 1803.7 579.8 L 1790.9 596.2 L 1755.5 631.2 L 1739.4 659.7 L 1720.8 681.5 L 1714.5 682 L 1707.5 700.5 L 1709.3 747.6 L 1702.3 786.3 L 1699.6 802.9 L 1691.7 812.8 L 1687.2 846.5 L 1661.7 879.3 L 1657.4 905.3 L 1637.1 916.2 L 1631.2 931.2 L 1603.9 931.2 L 1564.3 940.8 L 1546.6 952 L 1518.4 959.4 L 1488.8 979.4 L 1467.5 1004.4 L 1463.9 1023.1 L 1468 1037 L 1463.4 1062.4 L 1457.6 1074.7 L 1440.1 1088.5 L 1412.2 1132.8 L 1390 1152.7 L 1372.9 1164.5 L 1361.5 1188.4 L 1344.8 1202.8 Z" />
<path class="neighbor" d="M 938.5 629 L 957.2 631.1 L 970.2 630.6 L 975.8 623 L 997.8 612.8 L 1011 603.3 L 1043.9 599.1 L 1041.3 617.9 L 1044.4 627.6 L 1042.3 644.4 L 1069.6 667 L 1097.8 671.1 L 1107.7 680.5 L 1124.7 685.5 L 1135.1 692.8 L 1150.9 692.6 L 1165.5 700 L 1166.6 714.6 L 1171.5 721.9 L 1171.9 732.7 L 1164.5 733.2 L 1174.2 762.4 L 1222.4 763.5 L 1218.7 778 L 1221.4 787.9 L 1235.2 795 L 1241.1 810.6 L 1236.6 830.4 L 1229.8 841.5 L 1232.2 855.8 L 1224.3 861 L 1223.9 853.2 L 1200.5 840.4 L 1177.1 840 L 1133.3 847.3 L 1121.2 869.5 L 1120.6 883 L 1110.7 913.1 L 1106.6 907.7 L 1077.9 906.7 L 1068.1 926.9 L 1053.3 908.8 L 1020.4 902.6 L 999.5 925.4 L 981.3 928.8 L 971.5 894.1 L 958 865.9 L 965.9 841.6 L 952.7 830.9 L 949.3 812.8 L 937 795.7 L 952.9 768.5 L 942 747.4 L 947.8 738.9 L 943.3 729.6 L 953.1 717.1 L 953.6 695.7 L 954.9 678 L 960.3 669.5 L 938.5 629 Z" />
<path class="neighbor" d="M 1005.3 322 L 1000.5 325.1 L 995.6 310.3 L 988.6 302.3 L 980.3 311 L 931.3 310.4 L 931.6 326.2 L 946.4 328.8 L 945.5 338.4 L 940.5 335.8 L 926.3 339.9 L 926.2 358.2 L 937.3 367.4 L 941.3 381.8 L 940.7 392.7 L 929.4 461.7 L 916.8 448.3 L 909.3 447.7 L 925.5 422.1 L 906.2 410.3 L 891.2 412.5 L 882.1 408.1 L 868.2 414.8 L 849.5 411.6 L 834.7 385.3 L 823 378.8 L 815 366.9 L 798.3 355 L 791.6 357.4 L 780.8 351.4 L 768.5 343.1 L 761.3 347.1 L 740 343.6 L 733.8 332.8 L 729.2 333.2 L 704 318.8 L 700.6 311 L 710 309.1 L 708.9 296.5 L 714.8 287.4 L 727.2 285.7 L 737.8 269.9 L 747.4 256.7 L 738.2 250.8 L 742.9 236.2 L 737.2 213.2 L 742.6 206.6 L 738.7 185.3 L 728.5 171.9 L 731.7 159.7 L 739.8 161.5 L 744.6 154 L 738.7 139.2 L 741.8 135.5 L 754.8 136.3 L 773.6 118.7 L 784 116.1 L 784.2 107.8 L 788.9 86.5 L 803.3 74.8 L 819.1 74.4 L 821.1 69.1 L 840.8 71.2 L 860.6 58.5 L 870.4 52.9 L 882.6 40.8 L 891.5 42.3 L 898.1 48.9 L 893.2 57.4 L 877.1 61.6 L 870.7 74.2 L 860.9 81.4 L 853.6 90.7 L 850.6 108.7 L 843.6 123.4 L 856.6 125.1 L 859.8 136.6 L 865.3 142.2 L 867.3 152.3 L 864.3 161.6 L 865.2 166.9 L 871.4 169 L 877.4 177.7 L 909.7 175.3 L 924.4 178.5 L 942.1 200.2 L 952.2 197.5 L 970.3 198.8 L 984.7 195.9 L 993.6 200.3 L 989 213.8 L 983.4 222.3 L 981.5 240.3 L 986.5 257 L 993.7 264.5 L 994.5 270.1 L 981.8 282.6 L 990.9 288.2 L 997.6 297 L 1005.3 322 Z" />
<path class="neighbor" d="M 741.8 135.5 L 738.7 139.2 L 744.6 154 L 739.8 161.5 L 731.7 159.7 L 728.5 171.9 L 720.1 164.6 L 714.7 151.1 L 720.9 144.3 L 714.6 142.6 L 709.9 134.3 L 697.3 127.3 L 686.3 128.9 L 681.2 137.7 L 671.1 144 L 665.6 144.9 L 663.1 150.1 L 675.1 163.7 L 668.3 167 L 664.6 170.7 L 652.9 172 L 648.6 156.9 L 645.3 161.2 L 637 159.7 L 631.9 149.6 L 621.6 148 L 615.1 145 L 604.3 145.1 L 603.5 150.5 L 600.6 146.7 L 601.9 141.7 L 604 136.6 L 603.1 132.1 L 606.8 129.1 L 601.6 125.3 L 601.4 115.2 L 611.2 113 L 620.2 122 L 619.7 127.3 L 629.7 128.5 L 632.1 126.4 L 639 132.6 L 651.4 130.8 L 662.1 124.4 L 677.4 119.4 L 685.9 111.8 L 699.8 113.3 L 698.9 115.8 L 712.9 116.6 L 724.1 121 L 732.3 128.6 L 741.8 135.5 Z" />
<path class="neighbor" d="M 611.2 113 L 601.4 115.2 L 601.6 125.3 L 606.8 129.1 L 603.1 132.1 L 604 136.6 L 601.9 141.7 L 600.6 146.7 L 587 141.1 L 581.9 135.8 L 584.8 131.5 L 583.9 125.9 L 576.9 119.9 L 567 115 L 558.3 111.7 L 556.7 104.4 L 550.1 99.9 L 551.7 107.2 L 546.7 113.2 L 540.9 106.2 L 532.8 103.7 L 529.4 98.7 L 529.6 91 L 532.9 83.1 L 525.8 79.6 L 531.5 74.7 L 535.3 71.5 L 551.9 78.1 L 557.7 74.8 L 565.7 76.9 L 569.8 82.1 L 577.3 83.8 L 583.3 78.5 L 589.6 92.1 L 599.4 102.2 L 611.2 113 Z" />
<path class="neighbor" d="M 1159.7 222.8 L 1163.1 229.9 L 1153.9 239.5 L 1125.7 248.9 L 1107.7 252.8 L 1100.4 258.7 L 1080.4 252.4 L 1061.8 249.2 L 1057.1 251.5 L 1068.3 258.1 L 1067.3 274.9 L 1070.8 290.8 L 1092.1 292.9 L 1093.5 298.2 L 1075.5 305.4 L 1072.6 316 L 1062.2 320.1 L 1043.5 326 L 1038.7 333.7 L 1019.1 335.3 L 1005.3 322 L 997.6 297 L 990.9 288.2 L 981.8 282.6 L 994.5 270.1 L 993.7 264.5 L 986.5 257 L 981.5 240.3 L 983.4 222.3 L 989 213.8 L 993.6 200.3 L 984.7 195.9 L 970.3 198.8 L 952.2 197.5 L 942.1 200.2 L 924.4 178.5 L 909.7 175.3 L 877.4 177.7 L 871.4 169 L 865.2 166.9 L 864.3 161.6 L 867.3 152.3 L 865.3 142.2 L 859.8 136.6 L 856.6 125.1 L 843.6 123.4 L 850.6 108.7 L 853.6 90.7 L 860.9 81.4 L 870.7 74.2 L 877.1 61.6 L 893.2 57.4 L 892.5 63.3 L 877.7 66.3 L 885.9 77.7 L 885.6 90.8 L 874.5 105.4 L 884.1 125.4 L 894.9 123.8 L 900.5 105.6 L 892.7 96.7 L 891.5 77.7 L 922.8 67.5 L 919.3 55.6 L 928.1 47.7 L 937.2 65.4 L 954.8 65.8 L 971.1 79.8 L 972.1 88.1 L 994.7 88.3 L 1021.6 85.8 L 1036 97 L 1055.2 100.1 L 1069.3 92.3 L 1069.6 85.9 L 1100.8 84.4 L 1130.9 84.1 L 1109.5 91.5 L 1118.1 103.4 L 1138.2 105.3 L 1157.3 117.6 L 1161.3 137.8 L 1174.4 137.2 L 1184.3 143.1 L 1164.3 157.9 L 1162.2 167.1 L 1170.8 176.4 L 1164.5 181.1 L 1149 185.2 L 1149.5 196.8 L 1142.7 203.7 L 1159.7 222.8 Z" />
<path class="neighbor" d="M 791.6 357.4 L 795.1 376.5 L 787.2 392.8 L 759.8 419.2 L 729.6 429.1 L 714.2 451 L 709.4 467.9 L 695.2 478.3 L 684.6 465.6 L 674.5 462.9 L 664.1 464.9 L 663.4 455.6 L 670.6 449.7 L 667.6 439.2 L 681 420.4 L 675.5 409.4 L 665.9 421.1 L 650.9 410.1 L 656 403 L 651.7 380.2 L 660.5 376.4 L 665.2 360.7 L 674.7 344.5 L 672.9 334.2 L 686.7 328.8 L 704 318.8 L 729.2 333.2 L 733.8 332.8 L 740 343.6 L 761.3 347.1 L 768.5 343.1 L 780.8 351.4 L 791.6 357.4 Z" />
<path class="neighbor" d="M 1224.3 861 L 1231.7 875 L 1230.1 909.1 L 1256.6 913.9 L 1266.9 909 L 1283.9 915.8 L 1288.6 923.3 L 1290.9 946.4 L 1293.9 956.1 L 1303.2 957.2 L 1312.7 953.1 L 1321.7 957.7 L 1321.7 971.5 L 1318.3 986.4 L 1313.4 1000.9 L 1309.3 1023.1 L 1286.4 1042.3 L 1266.6 1046.4 L 1238.3 1042.5 L 1212.9 1035.7 L 1237.7 997.5 L 1234.1 986.4 L 1208.2 976.5 L 1177.5 958 L 1156.9 954.1 L 1110.7 913.1 L 1120.6 883 L 1121.2 869.5 L 1133.3 847.3 L 1177.1 840 L 1200.5 840.4 L 1223.9 853.2 L 1224.3 861 Z" />
<path class="lake" d="M 942.6 761.6 L 941.8 761 L 940.9 760.7 L 939.7 760.5 L 939.6 760 L 940.6 758.8 L 940.8 757.4 L 940.6 756.7 L 939.6 756.3 L 937.8 755.7 L 936.1 755.1 L 935 754.5 L 934.5 754 L 933.8 753.6 L 933 753.1 L 932.2 752.3 L 931.4 751.6 L 930.9 751.4 L 930.6 751.6 L 930.4 751.9 L 930.4 752.4 L 930.7 753 L 930.9 753.6 L 930.9 753.8 L 930.6 753.9 L 930.3 753.9 L 929.8 753.8 L 929.3 753.4 L 928.6 752.9 L 927.7 752.4 L 926.8 752 L 926.4 751.6 L 926.3 751.1 L 926.2 750.2 L 926.3 749.2 L 926.7 748.6 L 927.2 747.9 L 927.8 747.1 L 928.7 746.7 L 930.1 747.4 L 931.3 748.2 L 931.8 748.2 L 931.3 746.9 L 930 744.2 L 928.5 741.5 L 928.3 740.8 L 928.9 740.2 L 930.4 739.4 L 930.6 739 L 930.9 738.6 L 931.8 738.3 L 932.7 738 L 933.2 737.6 L 934.6 737.4 L 936.1 739.4 L 938.2 740.2 L 940.6 742.7 L 941.7 743.1 L 942.8 743.7 L 944.3 746.4 L 945.1 746.6 L 946.2 747.4 L 947.1 747.9 L 947.6 748.3 L 948.2 749 L 949.3 750 L 950.9 750.8 L 951.5 752.1 L 951.5 753.7 L 952 754.1 L 954.3 754.5 L 956.1 754.6 L 957 755.2 L 956.6 755.8 L 956.2 756.4 L 955.5 757.2 L 954.7 758.1 L 955.1 759.4 L 956.1 760.7 L 957.8 761 L 959.5 761.5 L 961 761.5 L 962.1 762 L 962.1 762.8 L 962.3 763.2 L 962.2 763.5 L 961.6 763.8 L 960.5 764 L 959.6 764.2 L 959.3 764.5 L 959.1 765 L 958.4 765.6 L 957.2 766.2 L 955.4 766.4 L 954.2 766.6 L 953.7 767.2 L 954.4 767.6 L 955.2 768.5 L 955.4 769.1 L 955.5 769.7 L 955.3 770.3 L 955.1 770.8 L 954.3 770.8 L 953.3 770.6 L 951.7 769.8 L 950.6 769.2 L 949.9 769.1 L 949.4 768.1 L 950.5 766.4 L 950.9 765.1 L 950.8 764 L 950.8 763 L 951.7 762.3 L 953.2 761.6 L 954.2 762 L 954.7 762 L 954.6 761.1 L 953.2 760.4 L 951.5 758.7 L 949.9 758 L 949.3 758.1 L 949.2 759.3 L 948.8 760.4 L 948.4 761.8 L 947.4 762.2 L 946.3 762.3 L 945.1 762.3 L 943.7 762.1 L 942.6 761.6 L 942.6 761.6 L 942.6 761.6 L 942.6 761.6 Z" />
<path class="lake" d="M 683.5 123.6 L 683.1 124.1 L 683 124.6 L 680.2 125.4 L 679.5 126.1 L 679 126.1 L 678.8 125.8 L 679.4 125.2 L 680 124.6 L 679.3 124.2 L 678.4 123.7 L 677.7 123.3 L 677.4 124.2 L 677.1 125.2 L 676.6 125.5 L 676.4 126.1 L 676.2 126.7 L 675.9 126.6 L 675.4 126.2 L 674.9 125.7 L 674.7 125.8 L 674.7 126.3 L 674.5 126.6 L 673.7 126.7 L 673.3 126.8 L 673.5 126.2 L 674.9 124.8 L 676.4 122.4 L 677.1 120.5 L 678.8 119.8 L 679.7 119.2 L 680 119.3 L 680.1 120 L 680.3 120.8 L 679.7 121.2 L 679.1 121.6 L 679.3 122 L 679.8 122.6 L 680 122.9 L 680.8 123.5 L 681.8 124 L 682.3 124 L 683.1 123.8 L 683.5 123.6 L 683.5 123.6 L 683.5 123.6 L 683.5 123.6 Z" />
<path class="country" d="M 929.4 461.7 L 906.7 460.5 L 903.3 464.3 L 882.7 469.1 L 854 486.2 L 852.1 497.9 L 845.7 506.7 L 848.2 520.3 L 833 527.6 L 833.1 538.2 L 826.4 542.8 L 836.9 565.4 L 850.9 580.7 L 845.6 591.5 L 862.2 593 L 871.8 606.4 L 893.9 607.1 L 914.6 592.2 L 912.9 630.4 L 924.3 633.3 L 938.5 629 L 960.3 669.5 L 954.9 678 L 953.6 695.7 L 953.1 717.1 L 943.3 729.6 L 947.8 738.9 L 942 747.4 L 952.9 768.5 L 937 795.7 L 930.3 808.6 L 917.3 815 L 892.1 800.6 L 889.9 790.2 L 840.1 765 L 795 737.5 L 775.6 722 L 765.2 701.2 L 769.3 694 L 748 661 L 723.2 614.6 L 699.4 564.5 L 689.1 553 L 681.2 534.5 L 661.7 518.1 L 643.8 507.9 L 651.9 496.7 L 639.7 472.7 L 647.6 455.1 L 667.6 439.2 L 670.6 449.7 L 663.4 455.6 L 664.1 464.9 L 674.5 462.9 L 684.6 465.6 L 695.2 478.3 L 709.4 467.9 L 714.2 451 L 729.6 429.1 L 759.8 419.2 L 787.2 392.8 L 795.1 376.5 L 791.6 357.4 L 798.3 355 L 815 366.9 L 823 378.8 L 834.7 385.3 L 849.5 411.6 L 868.2 414.8 L 882.1 408.1 L 891.2 412.5 L 906.2 410.3 L 925.5 422.1 L 909.3 447.7 L 916.8 448.3 L 929.4 461.7 Z" />

<path class="river" d="M 1362.7 392.6 L 1357.4 394.1 L 1354.2 395.5 L 1350.6 397.9 L 1345.2 399.8 L 1338.2 401.1 L 1333 402.8 L 1329.8 404.8 L 1328 407.4 L 1327.5 410.6 L 1324.4 412.9 L 1317.3 414.9 L 1315.9 414.9 L 1314.9 414.9 L 1313 414.4 L 1312.1 412.9 L 1312.1 410.2 L 1311.6 408.5 L 1310.6 407.7 L 1309.1 406.9 L 1307.1 406.1 L 1305 406.5 L 1302.8 408.1 L 1300.2 408.4 L 1297.2 407.5 L 1294.5 405.9 L 1292.4 403.5 L 1291 402.6 L 1290 401.9 L 1288.7 401.8 L 1287.1 402 L 1285.4 402.9 L 1282.8 403.6 L 1279.3 404 L 1275.5 405.9 L 1271.6 409.2 L 1268.7 412.3 L 1266.7 415.3 L 1265 417.1 L 1263.5 417.9 L 1261.8 418.3 L 1259.8 418.5 L 1257.5 418.1 L 1254.9 417.1 L 1252.4 417 L 1250 417.7 L 1247.5 417.1 L 1244.8 415.1 L 1242.6 414 L 1240.9 413.8 L 1238.4 416 L 1235 420.5 L 1231.4 423.6 L 1227.6 425.2 L 1225.1 428 L 1223.9 431.9 L 1222.6 434 L 1221.8 434.4 L 1220.5 434.3 L 1218.9 434.1 L 1217.1 433.6 L 1214.7 434.2 L 1212.3 436.7 L 1211.2 437.6 L 1208.2 437.7 L 1206.1 437.1 L 1203.8 435.8 L 1201 435 L 1197.9 434.7 L 1193.8 433.6 L 1188.7 431.7 L 1184.8 431 L 1182.3 431.3 L 1180.8 432.2 L 1180.6 433.3 L 1180.1 434.2 L 1179.3 435 L 1175.6 436.7 L 1173.1 437.2 L 1171.2 436.6 L 1167.9 436.6 L 1163.2 437 L 1159.4 439 L 1156.6 442.5 L 1152.1 444.4 L 1146 444.5 L 1141.3 446 L 1138 449 L 1135 451.2 L 1132.3 452.6 L 1130.6 452.8 L 1127.6 451.5 L 1120.9 448.2 L 1118.7 447.1 L 1118 447 L 1117.2 447.4 L 1116.6 449.2 L 1114.2 450.4 L 1110.2 451.1 L 1106.2 452.6 L 1102.3 455 L 1100.3 456.1 L 1098.9 456 L 1098.3 455 L 1097.3 453.5 L 1095.6 452.2 L 1091.4 450.9 L 1088.3 450.5 L 1086.3 450.9 L 1083.9 450.8 L 1081.3 450.2 L 1076.7 448.2 L 1070.3 444.9 L 1066.1 442.2 L 1063.1 439 L 1057.7 434.6 L 1054.8 432.2 L 1050.7 428.3 L 1047.9 424.8 L 1045.2 422.6 L 1042.5 421.6 L 1040.9 420.5 L 1040.4 419.3 L 1038.4 418.8 L 1033.3 419 L 1029.8 416.3 L 1027.9 415.6 L 1026.4 416.1 L 1024.9 415.9 L 1023.5 415 L 1022 415.4 L 1020.5 417.2 L 1018.9 417.4 L 1017.1 415.8 L 1015.5 414.9 L 1014 414.6 L 1012.9 415.9 L 1012.3 418.6 L 1011.2 420.4 L 1009.5 421.3 L 1007.2 421.8 L 1004 422.2 L 1000.2 421.3 L 995.7 419.4 L 992.5 419.5 L 990.7 421.7 L 987.8 423.5 L 983.6 424.9 L 980.9 427.2 L 978.7 431.7 L 978.8 434.6 L 978.4 436.1 L 977.3 437.2 L 974.6 437.4 L 970.3 436.7 L 962 437.7 L 949.7 440.3 L 943 442.9 L 941.8 445.5 L 941.4 448.2 L 941.7 451.1 L 941.2 453.5 L 939.8 455.4 L 939.8 457 L 940.9 458.2 L 940.3 459.8 L 937.9 461.7 L 934.6 462.6 L 930.6 462.5 L 928 461.3 L 927.6 460.1 L 926.3 458.2 L 924.3 456.5 L 922.5 455.4 L 921.7 454 L 920.7 451.2 L 919.2 450.2 L 918.2 449.5 L 917.2 449.6 L 916.1 450.4 L 914.5 450.9 L 913.4 450.8 L 912.7 450.9 L 904.1 453.2 L 900.1 453.8 L 898.1 453.2 L 896.7 451.7 L 894.4 450.9 L 891.3 450.7 L 888.4 449.8 L 885.9 448.2 L 884.2 445.4 L 883.5 441.4 L 882.6 438.9 L 881.7 438 L 878.6 438.7 L 873.2 440.8 L 869 441.7 L 864.4 441.1 L 857.6 440.5 L 854 440.8 L 851.3 441.7 L 848.9 443.1 L 846.7 445.2 L 845.9 448.7 L 846.5 453.7 L 846.4 456.7 L 845.7 457.4 L 844.5 457.6 L 842.9 457.1 L 842.1 457.5 L 842.1 458.8 L 841.6 460 L 840.4 461.1 L 839.6 462.6 L 839 465.3" />
<path class="river" d="M 1083.1 282 L 1085.1 278.1 L 1085.2 276.2 L 1084.1 275.1 L 1083.6 274 L 1083.7 272.4 L 1083.2 266.4 L 1084.1 263.1 L 1086.2 260.4 L 1089.2 260.1 L 1092.9 262.2 L 1095.5 262.7 L 1096.9 261.5 L 1098 262.1 L 1098.7 264.5 L 1100 266.6 L 1101.8 268.2 L 1106.2 270.5 L 1113.2 273.2 L 1118.3 274.5 L 1121.5 274.4 L 1123.7 273.7 L 1125.1 272.4 L 1126.7 271.8 L 1128.5 271.9 L 1130.4 271.4 L 1132.3 270.2 L 1134.9 269.7 L 1138.3 270 L 1140.5 270 L 1141.8 269.2 L 1144.2 269.1 L 1145.5 268.5 L 1146.7 267.4 L 1150.7 266.7 L 1157.4 266.4 L 1161.5 266.7 L 1162.7 267.5 L 1163.9 270.1 L 1165 274.5 L 1163.7 279.5 L 1160 285.1 L 1158.1 289.7 L 1157.7 293.1 L 1156.3 296.1 L 1153.7 298.7 L 1152.3 300.4 L 1152.1 301.3 L 1152.5 302.5 L 1153.5 304.1 L 1152.4 306.7 L 1149.2 310.3 L 1146.6 316.6 L 1144.6 325.6 L 1141.5 333.1 L 1137.1 339.1 L 1134 347.3 L 1132.3 357.6 L 1131.7 364.1 L 1132.6 368 L 1131.2 373.5 L 1131 377.6 L 1131.4 382.3 L 1131.3 385.5 L 1130.9 388.5" />
<path class="river" d="M 762.4 320.1 L 762.3 324.9 L 763 327 L 765.2 328.4 L 769.2 328.9 L 772.2 328.7 L 775.4 327.9 L 777.8 328.5 L 779.4 330.5 L 783.6 332.3 L 790.6 334.1 L 794.6 336.6 L 795.7 339.6 L 797.5 341.2 L 799.9 341.6 L 801.3 343 L 801.7 345.5 L 803.7 347.5 L 807.2 349 L 809 351.1 L 809.3 353.6 L 810.1 355.3 L 811.4 356.1 L 812.9 356.3 L 814.5 355.9 L 815.9 355.9 L 817.2 356.4 L 818.4 357.3 L 819.5 358.6 L 821.9 360.2 L 825.7 362 L 829 363 L 831.9 363.2 L 833.8 363.8 L 835.4 365.2 L 838.3 366.5 L 840.2 366.8 L 842.3 366.6 L 844 367 L 845.4 368.2 L 847.4 368.3 L 850 367.3 L 852 367.3 L 853.4 368.2 L 855 368.4 L 856.7 367.9 L 858.7 368.4 L 861 370 L 863.1 370 L 864.9 368.4 L 866.4 368 L 867.6 368.9 L 869.2 368.8 L 871.1 367.7 L 872.9 368.5 L 874.5 371.1 L 876.6 372.8 L 879.3 373.6 L 881.4 374.9 L 882.7 376.6 L 884.5 377.4 L 886.9 377.3 L 887.9 378.1 L 887.6 379.8 L 887.7 380.9 L 888.4 381.4 L 889.6 381.5 L 892 381.1 L 895.8 380.3 L 898.3 381.1 L 900.7 383.3 L 902.9 384.8 L 905.1 385.3 L 907.1 386.4 L 908.9 387.9 L 911 389 L 913.4 389.7 L 915.6 389.7 L 917.8 389.2 L 920.3 389.8 L 923.2 391.4 L 925 392 L 925.9 391.8 L 927.3 389.7 L 929.4 385.6 L 931.7 384.1 L 934.3 385.1 L 936.8 385.1 L 938.7 384.4 L 940.2 384.5" />
<path class="river" d="M 1053.2 1329.4 L 1062.6 1330.4 L 1067.8 1331.3 L 1071.9 1332.5 L 1077.9 1335.4 L 1085.8 1339.8 L 1091.3 1342.3 L 1094.3 1342.8 L 1097.4 1343.9 L 1100.5 1345.7 L 1104.8 1346.9 L 1110.4 1347.6 L 1114.9 1349.7 L 1120.1 1355.1 L 1120.9 1355.8 L 1121.5 1356.5 M 919.1 1241 L 921.1 1248.6 L 922.5 1251.9 L 924.9 1254.2 L 930.1 1255.4 L 932.7 1258 L 934.4 1262.5 L 935 1265.5 L 934.5 1267.1 L 934.4 1269.2 L 934.8 1271.7 L 934.4 1273.9 L 933 1275.8 L 932.1 1278.5 L 931.6 1282.2 L 931.8 1284.6 L 932.8 1285.7 L 934.3 1286.8 L 936.2 1287.7 L 940.2 1288.5 L 946.2 1288.9 L 949.9 1290.1 L 951.5 1292.2 L 955.1 1293.7 L 960.9 1294.7 L 964.4 1295.8 L 965.6 1297 L 970.1 1298.1 L 977.9 1299.1 L 982.5 1300.6 L 983.7 1302.7 L 983.3 1304.7 L 981.3 1306.8 L 980.4 1308.4 L 980.6 1309.8 L 981.4 1310.6 L 982.9 1311 L 984.8 1312.3 L 987.1 1314.7 L 990.6 1315.6 L 995.3 1315.1 L 998.4 1316 L 999.7 1318.4 L 1002.3 1320.2 L 1008.1 1322.2 L 1010.9 1323.4 L 1012.1 1324.6 L 1012.8 1326.1 L 1014.2 1327.1 L 1016.4 1327.5 L 1025.6 1327.9 L 1030 1328.4 L 1033.4 1329.3 L 1035.9 1329.5 L 1037.5 1329 L 1039.5 1329.1 L 1042 1329.9 L 1045.7 1330.1 L 1053 1329.4 M -198 -469.4 L -199.7 -465.4 L -201 -463.9 L -202.4 -463.5 L -204 -461.8 L -205.6 -458.6 L -207.4 -456.6 L -209.1 -455.6 L -210 -454.3 L -209.9 -452.7 L -209.7 -452.3 L -209.4 -452.4 L -208.9 -452.1 L -208.2 -450.9 L -207.3 -450.3 L -205.9 -450.4 L -205.3 -449.9 L -204.5 -449.1 L -203.3 -448.7 M -184 -507.9 L -188.1 -505.1 L -190.4 -502.8 L -192.7 -499.1 L -192.3 -496.1 L -192.4 -493.6 L -193 -491.6 L -193.8 -489.8 L -195 -488.2 L -196.2 -487.2 L -197.5 -486.9 L -198 -484.7 L -197.6 -480.6 L -196.2 -478.2 L -193.7 -477.3 L -192.2 -476 L -191.7 -474.2 L -191.9 -472.4 L -192.9 -470.7 L -194.5 -469.7 L -198 -469.4 M -194.7 -535.5 L -195.2 -526.6 L -195.2 -524.3 L -193.9 -521.5 L -189.9 -516.3 L -189.4 -515.1 M -198.5 -552.2 L -198.3 -551.4 L -197.1 -549.7 L -197.1 -547.1 L -196.9 -545 L -196.2 -543.9 L -196.1 -542.5 M -151.6 -558.9 L -159.9 -554.9 L -162.2 -553 L -162.9 -551.7 L -162.8 -547.7 L -163.7 -545.9 L -165.3 -545.8 L -169.3 -546.8 L -170.7 -547.6 M -116.3 -575.3 L -119.3 -573.2 L -121.6 -570.6 L -124.2 -566.9 L -125.8 -564.1 L -126.4 -562.2 L -126.2 -559.9 L -125.2 -557 L -125.4 -555 L -126.8 -553.8 L -129.4 -553.6 L -133.3 -554.4 L -136 -555.6 L -137.7 -557.4 L -139 -558 L -140.1 -557.5 L -141.1 -557.6 L -142 -558.2 L -142.1 -559.1 L -141.4 -560.2 L -141.3 -561 L -141.9 -561.6 L -143 -561.9 L -144.6 -561.9 L -147 -561.2 L -151.7 -558.9 M 24.8 -656.6 L 21.7 -655.6 L 18.2 -654.7 L 14.2 -654.7 L 11.2 -654 L 9.2 -652.9 L 6.4 -650.5 L 5.3 -649.7 L 4.3 -649.6 L 3.1 -650.4 L 1.4 -650.5 L -0.7 -650 L -3.1 -648.1 L -5.6 -644.9 L -7.1 -643.5 L -9.7 -642.4 L -17.4 -641.8 L -22.3 -641.8 L -25.1 -641.3 L -27.6 -640.1 L -31.6 -637.6 L -35.1 -635.2 L -36.9 -631.7 L -39.9 -629.8 L -43 -629.5 L -49.1 -631.9 L -50.8 -632.3 L -52.9 -632.3 L -55.4 -630.8 L -59 -628.1 L -60.8 -625.6 L -61.8 -622.5 L -63.2 -620.6 L -65 -619.8 L -66.7 -618.5 L -68.1 -616.7 L -69.1 -616 L -69.6 -616.2 L -70.1 -615.8 L -70.4 -614.3 L -71 -613.5 L -71.7 -613.4 L -72.3 -612.5 L -72.7 -610.9 L -73.9 -609.1 L -76.7 -606.3 L -82.6 -601.2 L -85.5 -599.5 L -88.5 -599.5 M 25.2 -662.6 L 25.9 -657.8 L 25.8 -657.1" />
<path class="river" d="M 1569.3 910.7 L 1572.9 908 L 1575.4 905.5 L 1577.8 902.4 L 1579 900.1 L 1579.1 898.9 L 1578.9 898.3 L 1578.3 898.2 L 1577.4 897.1 L 1576.3 894.9 L 1574.5 893.7 L 1570.8 893.4 M 1565.1 889.7 L 1563.3 887.6 L 1562 886.9 L 1560.5 886.8 L 1559 886.1 L 1557.6 885 L 1556.2 884.8 L 1554.8 885.7 L 1553.5 886.1 L 1552.4 885.9 L 1551.3 885.2 L 1550.3 884 M 1522.1 873.3 L 1515.5 872.2 M 1503.3 863.7 L 1496.9 859.5 L 1494.4 857.5 L 1493.6 856.6 L 1492.1 856.4 L 1490.2 857 L 1488.6 857.1 L 1487.6 856.3 L 1486.3 856 L 1484.6 856.1 L 1483.5 856.8 L 1483.5 857.9 L 1482.3 858.6 L 1480.2 858.6 L 1478.7 859.6 L 1477.2 859.5 L 1475.5 858.6 L 1473.6 858.9 L 1470.9 860 L 1462 860.2 L 1459.6 860.5 L 1458.4 862.4 L 1457.7 865.9 L 1456.9 867.3 L 1456 866.9 L 1455.4 865.1 L 1455 861.9 L 1453.8 861.3 L 1452 863.1 L 1450.7 864 L 1449.8 864 L 1448.8 862.7 L 1447.7 860.3 L 1447.5 858.4 L 1448.3 857 L 1447.8 856.2 L 1445.2 856 M 1420.5 853 L 1418.8 851.5 L 1417.4 851.3 L 1415 852 M 1083.7 832.1 L 1087.2 833.2 L 1088.5 832.6 L 1089 830.8 L 1090.2 829.6 L 1092.4 829 L 1094.9 827.5 L 1097.9 825.3 L 1100.9 821.7 L 1104 816.9 L 1106.3 811.2 L 1108.5 801.2 L 1108.1 796.1 L 1108.4 792.8 L 1109.2 789.5 L 1109.3 787.2 L 1108.7 785.9 L 1107.2 784.9 L 1104.7 784.1 L 1102.7 781.9 L 1101.3 778.1 L 1096.2 774.4 L 1087.6 770.7 L 1082.5 767.2 L 1080.9 764.1 L 1078.5 761.9 L 1075.3 760.8 L 1073.5 759.7 L 1073.2 758.6 L 1070 756.6 L 1060.9 752.4 M 1019.2 795.6 L 1026.8 802.8 L 1028.3 805 L 1029.4 805.7 L 1030.6 805.5 L 1032.5 806.5 L 1036.3 809.5 L 1042.6 815.6 L 1045.2 818.6 L 1046.2 820.7 L 1047.7 822 L 1049.7 822.5 L 1051.2 822.1 L 1052 820.9 L 1053.6 819.8 L 1055.9 818.9 L 1058.6 819.6 L 1061.6 821.9 L 1064.3 822.6 L 1066.6 821.8 L 1069 823.5 L 1071.5 827.7 L 1073.6 830.3 L 1075.2 831 L 1076.3 832.5 L 1077.1 834.6 L 1078 835.5 L 1079.1 835.4 L 1080 834.5 L 1080.5 832.9 L 1081.6 832.1 L 1083.9 832.1" />
<path class="river" d="M 1051.7 653.2 L 1051.5 651.1 L 1050.2 648.8 L 1049.6 648.7 L 1048.9 649.1 L 1048.3 649.4 L 1047.8 649.1 L 1047.7 648.1 L 1048 646.5 L 1047.3 644.8 L 1045.4 643.1 L 1044.4 641.2 L 1044.3 639.4 L 1043.8 638.1 L 1043.1 637.5 L 1042.6 636.4 L 1042.6 634.8 L 1043.1 633 L 1044.3 630.8 L 1044 627.5 L 1042.3 623 L 1041.4 619.8 L 1041.2 617.8 L 1041.5 616.3 L 1042.5 614.9" />
<path class="river" d="M 940.2 384.5 L 940.5 386.2 L 940.6 390 L 943.3 393.9 L 948.6 397.7 L 954 399.3 L 959.4 398.7 L 965.5 397.5 L 972.2 395.6 L 977.9 394.8 L 982.6 395.1 L 986.3 395.9 L 988.9 397.4 L 993.1 398.8 L 998.7 400.2 L 1007 399.4 L 1018.2 396.5 L 1027.8 396.7 L 1035.9 400.2 L 1041.2 401.5 L 1043.8 400.6 L 1045.7 401.5 L 1047.6 405.5 L 1046.7 407.3 L 1047.9 410.5 L 1050.8 415.7 L 1052.2 419.1 L 1052.2 420.6 L 1053 421.7 L 1054.6 422.3 L 1055.2 423.4 L 1054.9 425 L 1055.6 427.2 L 1057.4 429.8 L 1058.1 431.8 L 1057.7 434.6" />
<path class="river" d="M 1042.5 614.9 L 1044.6 611.4 L 1044.9 608.7 L 1044.3 605.7 L 1044.2 603.4 L 1044.7 601.9 L 1044 599.8 L 1042 597.2 L 1041.8 595.3 L 1043.4 593.9 L 1046.6 593.6 L 1051.5 594.5 L 1054.6 594.6 L 1055.9 593.8 L 1056.6 592.4 L 1056.8 590.4 L 1057.4 589.3 L 1058.5 589.1 L 1060 587.9 L 1061.8 585.7 L 1064.2 584.5 L 1067 584.5 L 1069 583.4 L 1070.4 581.3 L 1072.2 580 L 1074.4 579.3 L 1075.6 578.3 L 1075.7 577 L 1076.7 575.7 L 1078.6 574.4 L 1079.6 573.1 L 1079.8 571.6 L 1081.4 570.3 L 1084.4 569.1 L 1086.8 568.7 L 1088.4 569.1 L 1089 568.7 L 1088.6 567.5 L 1089 566.5 L 1090.3 565.6 L 1091.7 563.8 L 1094.1 559.4 L 1096.6 560.2 L 1099.4 559.2 L 1105.6 555.6 L 1106.1 553.4 L 1105.3 549.8 L 1103.2 544.1 L 1103.3 538.4 L 1105.3 532.7 L 1107.2 529.7 L 1108.8 529.5 L 1110.6 527.9 L 1112.4 525.2 L 1114.6 523.6 L 1117.1 523.4 L 1118.7 522.6 L 1119.3 521.4 L 1119.3 520.4 L 1118.7 519.5 L 1119.1 518 L 1120.7 515.9 L 1121.6 513.7 L 1122 511.5 L 1123.3 510.2 L 1124.7 510 L 1125.6 510 L 1126.4 510 L 1130.3 510.4 L 1131.8 509.7 L 1132.3 508.2 L 1133.4 506.6 L 1135.3 505.1 L 1136.2 503.8 L 1136.3 502.6 L 1136.7 502 L 1137.7 501.8 L 1138 501.5 L 1137.5 500.8 L 1139.3 500.4 L 1143.4 500.1 L 1145.8 498.9 L 1146.6 496.9 L 1150.1 494.8 L 1156.4 492.6 L 1159.7 490.6 L 1160 488.6 L 1161.9 486.7 L 1164.9 485.1 L 1166.7 484.3 L 1167.5 483.7 L 1168.4 483 L 1169.1 481.9 L 1171.7 478.7 L 1173.9 477.1 L 1175.5 477.2 L 1177.3 476.7 L 1179 475.6 L 1179.9 474 L 1179.9 472.1 L 1180.4 471 L 1181.1 469.1 L 1183.6 465 L 1185.8 463.4 L 1187.1 463.3 L 1188.2 463.5 L 1188.9 463.4 L 1189.6 463.1 L 1190.3 462.8 L 1191.1 462.1 L 1192.6 460.4 L 1194.3 458.1 L 1195.1 455.3 L 1197 453 L 1199.9 451 L 1201.2 449.1 L 1201.1 447.1 L 1203.4 444 L 1211.2 437.6" />
<path class="river" d="M 872.2 659.9 L 874 656.9 L 874.1 654.4 L 872.9 651.2 L 873.5 648.9 L 875.7 647.4 L 878.1 646.8 L 882 647.2 L 886.4 647.5 L 888.2 648.2 L 888.9 649.5 L 891.5 651.5 L 896 654.5 L 899.4 657.4 L 901.6 660.2 L 903.8 661.9 L 905.9 662.4 L 907.7 663.6 L 909.2 665.7 L 911.9 667.7 L 915.7 669.5 L 918.7 670.4 L 920.9 670.4 L 922.2 670.2 L 922.8 669.6 L 923.8 669.6 L 926.1 670.1 L 932.5 671.8 L 937.3 672 L 940.4 670.5 L 942 669.4 L 943.2 669.3 L 944.1 669.6 L 945.1 670 L 945.9 669.8 L 946.5 669.2 L 947.1 669.1 L 947.9 669.8 L 949.2 669.8 L 950.3 669 L 951.7 668.8 L 953.1 669.3 L 955.4 669.1 L 959.9 667.8 L 961.8 666.1 L 963 665.7 L 964.3 665.8 L 965.5 664.7 L 966.6 662.5 L 968.1 660.9 L 969.9 659.8 L 971 658.4 L 971.4 656.7 L 973 655.5 L 975.7 654.7 L 977.6 652.8 L 978.6 649.6 L 980 647.9 L 981.8 647.5 L 983.3 646.2 L 984.7 643.9 L 986 642.6 L 987.4 642.3 L 989.1 642.7 L 991.2 643.9 L 993.1 644.1 L 994.8 643.1 L 996.1 641.8 L 997.2 640.2 L 999 639.3 L 1002.7 638.9 L 1003.1 637.6 L 1004.3 637.2 L 1006.2 637.1 L 1007.1 636.6 L 1007.5 635.8 L 1008.5 636 L 1010.4 635.4 L 1013 633.5 L 1015.2 632.6 L 1016.9 632.6 L 1018 631.8 L 1018.7 630.9 L 1019.4 630.7 L 1020.4 630.4 L 1021.9 628.9 L 1023.3 628.9 L 1024.3 629.1 L 1025.3 628.6 L 1025.7 627.5 L 1025.8 626.7 L 1025 626.4 L 1025.2 625.9 L 1026.4 625.2 L 1027.7 625.1 L 1029.2 625.3 L 1029.8 624.7 L 1029.9 623.3 L 1030.5 622.6 L 1031.8 622.6 L 1032.8 621.8 L 1033.1 620.1 L 1033.8 619.3 L 1034.9 619.4 L 1037.2 618.3 L 1042.5 614.9" />
<path class="river" d="M 763 304.7 L 768.7 305.9 L 771.3 305.8 L 773.4 304.6 L 781.1 300.3 L 783.6 298.3 L 783.5 297.1 L 784.3 295.8 L 785.9 294.4 L 786.6 293.2 L 786.3 292.1 L 787.9 288.9 L 791.5 283.8 L 793.6 278.6 L 794.3 273.3 L 797 266.5 L 801.7 258.2 L 804.5 252 L 805.5 248.1 L 805.4 246.1 L 804.3 246 L 804.4 242.4 L 806.7 231.6 L 807.1 223.1 L 807.9 218.6 L 809.3 215.3 L 809.9 212.3 L 809.6 209.7 L 810 207 L 811.1 204.1 L 811.6 201.3 L 811.6 198.6 L 812.8 196 L 815.2 193.5 L 816.4 191 L 816.4 188.3 L 818.1 185.9 L 821.6 183.8 L 824.8 181.3 L 827.5 178.5 L 828.6 175.5 L 828 172.6 L 828.4 167.8 L 830 161.2 L 830.4 156.2 L 829.7 152.9 L 829.8 150.6 L 831.4 148.6 M 831.2 148.6 L 832 144.1 L 831.5 138.9 L 830.1 131.6 L 827.6 127.4 L 824 126.5 L 820.5 124.6 L 817 121.9 L 814.6 120.6 L 813.3 121 L 812.1 120.2 L 810.7 118.5 L 809.4 117.4 L 807.4 116.7 L 806.3 116.1 L 806.1 114.8 L 806.3 112.5 L 805.8 109.8 L 804.6 106.8 L 804.5 104.4 L 805.4 102.4 L 805 100.6 L 803.2 98.8 L 803.7 95.1 L 806.5 89.6 L 807.8 84.9 L 807.8 80.9 L 807 77.6 L 804.9 74.2" />
<path class="river" d="M 1060.9 752.4 L 1059.5 750.9 L 1058.3 747.8 L 1056.8 742.6 L 1055.2 738.9 L 1053.6 736.8 L 1052.5 734.8 L 1051.9 732.9 L 1051.9 731.4 L 1052.5 730.3 L 1052 728.1 L 1050.4 724.7 L 1050.3 723.7 L 1050.8 723.2 L 1051.8 721.1 L 1053 716.9 L 1053.1 713.9 L 1052 712.1 L 1051.5 710.7 L 1051.6 709.5 L 1050.9 707.8 L 1049.4 705.6 L 1048.3 704.4 L 1047.4 704.4 L 1047.1 703.6 L 1047.4 702 L 1046.6 700.1 L 1044.8 698 L 1044.9 693.9 L 1046.8 688 L 1047.7 685.6 L 1047.8 684.1 L 1049 683.3 L 1049.5 681.8 L 1050 681.1 L 1051 680.4 L 1051.7 678.9 L 1052 676.5 L 1051.1 672.8 L 1049 668 L 1048.2 665.2 L 1048.7 664.4 L 1048.7 663.8 L 1048.1 663.2 L 1048.2 662.7 L 1048.9 662.1 L 1048.8 661.3 L 1048.1 659.5 L 1048.6 658.5 L 1049.4 658.1 L 1049.6 657.4 L 1049.3 656 L 1049.6 655 L 1050.9 654.2 L 1051.7 653.2" />
<path class="river" d="M 760.3 602.9 L 757.9 596 L 756.6 591.8 L 756.5 589.1 L 757.4 586.4 L 754.8 582.9 L 748.8 578.3 L 745 574.1 L 743.4 570.2 L 742 567.9 L 740.8 567.2 L 739.7 565.4 L 738.5 562.4 L 737.2 560.2 L 735.8 558.7 L 735 556.2 L 735 552.5 L 732.6 545.4 L 727.8 534.9 L 725.3 528 L 725 524.7 L 723.9 521.3 L 722 517.8 L 720 515.3 L 717.8 514 L 716.1 512 L 714.2 508.2 L 711.2 506.7 L 709.3 504.9 L 707.5 502.3 L 707.8 498.5 L 710.3 493.4 L 712.2 490.5 L 713.5 489.8 L 714 488.2 L 714 485.8 L 714.6 484.3 L 715.9 483.6 L 716.3 482.2 L 715.8 480 L 715.9 478.4 L 716.7 477.4 L 717.1 476.1 L 717.1 474.4 L 717.8 473.3 L 719.4 472.9 L 720.3 472 L 720.4 470.6 L 721.4 470.1 L 723.2 470.4 L 726.6 469.2 L 731.5 466.4 L 735 465.1 L 737.1 465.1 L 738.8 465.5 L 739.9 466.3 L 740.4 467.4 L 740.4 468.9 L 740.9 469.7 L 742.1 469.8 L 742.3 470.3 L 742 470.5 L 742.2 471.3 L 742.9 472.5 L 743.6 472.6 L 744 471.5 L 746.4 472 L 750.6 473.9 L 754.9 474.8 L 759.2 474.9 L 761.6 475.3 L 761.9 476.1 L 763 476.8 L 764.7 477.4 L 767 477.7 L 769.8 477.5 L 771.5 477.9 L 772.4 479.3 L 779.8 480.3 L 782.8 480.4 L 783.7 479.9 L 784.5 480.1 L 785.1 480.9 L 786.9 479.5 L 789.8 475.9 L 794.4 473.8 L 800.9 473 L 804.8 471.5 L 806.1 469.2 L 807.9 467.5 L 810.4 466.2 L 812.3 466.4 L 813.7 468 L 815.7 469.4 L 818.3 470.6 L 819.9 470.2 L 820.6 468.1 L 821.6 466.8 L 823 466.2 L 824.8 466.1 L 827 466.5 L 828.9 467.5 L 830.4 469 L 833.1 468.7 L 839 465.3" />
<path class="river" d="M 829.3 236.1 L 828.4 237.7 L 828.2 239.4 L 828.4 241.7 L 829 243.8 L 830.3 246.5 L 832.6 248.1 L 833.2 249.4 L 832.8 250.9 L 836.9 252.4 L 845.4 254 L 850.4 254 L 851.8 252.6 L 853.1 250.5 L 854.1 247.6 L 855.4 245.9 L 857.6 245.1 L 864.4 244.6 L 867 244 L 867.9 243.1 L 869.4 242.4 L 871.5 241.9 L 873.5 242 L 875.2 242.6 L 877.4 241.8 L 879.9 239.6 L 884.9 236.9 L 892.4 233.9 L 897.2 231.7 L 899.3 230.3 L 900.9 228.4 L 902 226 L 904.2 223.6 L 907.5 221.2 L 909.4 219.4 L 909.8 218.2 L 913.6 216.1 L 920.8 213.1 L 925.9 209.1 L 929 204.2 L 932.5 201.6 L 936.5 201.3 L 939.1 200.7 L 941 199.6 L 942.9 198.9 L 944 199.2 L 945.1 200.2 L 947 199.8 L 949.6 198 L 953.4 197.7 L 958.5 198.7 L 965.1 198.7 L 973.4 197.7 L 978.5 196.6 L 980.5 195.4 L 983.9 195.5 L 991.5 197.6" />
<path class="river" d="M 976.6 1333.7 L 983.1 1335.7 L 987.1 1336.3 L 990.7 1336.1 L 994.3 1336.5 L 997.6 1337.5 L 1002.5 1337.6 L 1008.8 1337 L 1014 1336.9 L 1017.9 1337.3 L 1021.7 1338.3 L 1025.2 1339.7 L 1029 1340.6 L 1033.2 1341 L 1036.6 1342.7 L 1039.3 1345.9 L 1041.5 1349.3 L 1043.2 1353 L 1046.6 1355.3 L 1051.5 1356.1 L 1055 1357.3 L 1057 1358.9 L 1059.3 1360.2 L 1062 1361.1 L 1065 1361.5 L 1068.3 1361.4 L 1073.3 1363.7 L 1080 1368.4 L 1084.2 1371 L 1085.9 1371.3 L 1088.3 1373 L 1093 1377.4 L 1098.4 1378.2 L 1102 1380.3 L 1106.3 1383.4 L 1107.8 1385.9 M 918.2 301.8 L 927.5 300.5 L 934.7 299.3 L 938.6 298.1 L 941.8 296.7 L 945.5 296.5 L 949.9 297.5 L 953.6 298 L 956.6 297.9 L 959.4 296.6 L 961.8 294.2 L 964.5 293.7 L 967.3 295.2 L 970 293.9 L 972.6 289.8 L 974.2 288 L 974.7 288.5 L 975.3 288 L 976 286.5 L 978.1 284.9 L 980.5 283.3 L 982.9 282.3 L 985.4 283.1 L 986.6 283.3 L 987.1 283.9 L 987.9 285.9 L 988.7 286.2 L 989.9 287.1 L 992.3 289.2 L 994.3 291.4 L 995.8 292.5 L 996.8 293.5 L 997.2 294.9 L 996.7 296.3 L 998 299.7 L 998.8 300.7 L 999.3 302 L 998.8 303.3 L 999.9 304.8 L 1002.4 311.3 L 1002.6 313.3 L 1003.2 314.2 L 1003.9 316.9 L 1005.1 319.4 L 1004.8 321.1 L 1005.3 322.8 L 1005.7 327.9 L 1005.2 330 L 1004.1 330.8 L 1002 331.2 L 998.7 331.2 L 996.3 334.2 L 994.1 343.4 L 995.2 349.6 L 997.1 353.4 L 1000.2 356.6 L 1002.6 358.1 L 1004.1 357.7 L 1007.9 359 L 1013.8 362 L 1017.9 363.1 L 1020.1 362.2 L 1023 361.7 L 1026.5 361.7 L 1028.8 361.2 L 1029.9 360.3 L 1031.3 360.2 L 1033 360.9 L 1035.3 361.1 L 1038.2 360.9 L 1041.2 361.5 L 1045.9 363.6 L 1052.3 365.1 L 1057.5 364.9 L 1066.8 362.8 L 1073.8 361.5 L 1078.3 361.2 L 1082.7 361.6 L 1086.8 363.2 L 1090.7 365.9 L 1095 368.3 L 1102.1 371.2 L 1105.8 375.5 L 1109.5 378.3 L 1117 382.4 L 1129.6 388.2 L 1130.9 388.5 L 1133 388.5 L 1135 388.8 L 1137.5 390 L 1139.5 392 L 1141.2 394.8 L 1142.1 397.2 L 1142.1 399.2 L 1144.1 402 L 1148.1 405.7 L 1149.5 407.6 L 1150.7 409.4 L 1152 412.9 L 1155.5 417.8 L 1163.8 427.1 L 1166.9 429.7 L 1169.1 430.7 L 1171.6 430.8 L 1174.2 431.4 L 1176.9 432.6 L 1178.8 433 L 1180.8 432.2" />
<path class="river" d="M 1091.8 293.9 L 1086.6 295.4 L 1084.3 296.8 L 1083.2 298.5 L 1081.4 299.3 L 1077.8 299.4 L 1070.6 296.6 L 1067.3 295.9 L 1065.7 296.4 L 1060.5 295.1 L 1051.9 291.8 L 1047.5 288.5 L 1047.4 285.2 L 1046.3 282.7 L 1044.2 281 L 1042.6 279 L 1041.3 276.6 L 1040.1 275.2 L 1039 274.5 L 1037 274.3 L 1033 274.5 L 1028.8 274 L 1027 274.8 L 1026.4 276.8 L 1024.1 277.5 L 1020 277 L 1016.9 275.8 L 1014.7 274.1 L 1013.3 272.2 L 1012.7 270.1 L 1011.1 267.5 L 1007.2 262.9 L 1003.5 260.4 L 1002.1 258.2 L 1001.8 255.6 L 999.2 254.3 L 994.6 254.3 L 990.1 253.4 L 983.7 250.8 L 982.5 248 L 982.1 245.8 L 982.1 243.4 L 981.7 241.5 L 980.6 240.2 L 980.6 236.2 L 981.7 229.6 L 981.9 224.5 L 981.4 221 L 982.3 218.4 L 984.7 216.6 L 986 213.8 L 986.3 210 L 987.7 206.9 L 990.2 204.4 L 991.1 202 L 990.3 199.7 L 991.5 197.6 L 992.1 196.6 L 996.5 193 L 999.2 188.7 L 1000.6 181.3 L 1000.4 176.7 L 1003.2 173.7 L 1009 170.8 L 1013.1 167.6 L 1015.7 163.9 L 1019.8 161.7 L 1025.5 161 L 1029.5 159.6 L 1033.1 156.4 L 1036.3 155.1 L 1039.4 154.9 L 1043.4 155.3 L 1046.9 156 L 1049.8 156.8 L 1052.3 158.1 L 1054.2 159.7 L 1054.9 160.4 L 1055.3 160.7 L 1055.6 160.8 L 1056.1 160.7 L 1056.5 160.7 L 1057.8 160.3 L 1058.9 159.7 L 1062.8 158.4 L 1064.8 156.8 L 1064.1 155.1 L 1063.9 153.8 L 1064.2 152.9 L 1065.5 152.4 L 1067.7 152.2 L 1069.3 151.7 L 1070.4 150.7 L 1072 150.9 L 1073.7 152.2 L 1074.7 152.9 L 1075.4 153 L 1076.4 153.1 L 1077.8 153 L 1079.5 152 L 1081.4 150.1 L 1084.5 149 L 1088.7 148.7 L 1092.7 147.6 L 1096.5 145.5 L 1100.2 144.7 L 1103.9 145.2 L 1108 144 L 1112.4 141 L 1117.1 138.5 L 1122 136.4 L 1124.1 136.2 M 1124.1 136.2 L 1125.6 136.1 L 1127.8 137.3 L 1130.9 137.7 L 1136.7 137.2 L 1137.5 137.3 L 1143.1 132.9 L 1150.6 128.7 M 1126.3 126.3 L 1126 127.8 L 1126.3 129 L 1127.3 129.8 L 1126.9 131.5 L 1124.4 135.4 L 1124.1 136.2 M 1134.5 111.3 L 1134.4 112 L 1131.7 120 L 1129.8 123.4 L 1126.8 125.8 L 1126.3 126.3 M 1120.4 107.4 L 1120.1 108.4 L 1119.7 109.1 L 1117.5 113.1 L 1118.1 116.6 L 1120.9 121.1 L 1123.4 123.8 L 1125.4 125 L 1126.3 126.3" />
<path class="river" d="M 683 124.6 L 686.1 128 L 686.5 129.1 M 677.1 120.5 L 677.1 119.6 L 677.3 118.1" />
<path class="river" d="M 1016.1 840.7 L 1017.6 839.1 L 1017.9 838.1 L 1017.6 837.2 L 1018.3 836.3 L 1019.8 835.6 L 1022.1 836.6 L 1025.1 839.4 L 1027.8 840.6 L 1031.6 840 L 1032.9 837.7 L 1034.8 836.1 L 1037.8 834.4 L 1040.8 835 L 1043.6 837.8 L 1046.1 839.6 L 1048.1 840.5 L 1050.5 840.9 L 1053.1 840.8 L 1056.5 845.1 L 1060.5 853.9 L 1062.8 860.5 L 1063.2 865 L 1065.1 867.6 L 1068.3 868.4 L 1070.7 871.3 L 1072.4 876.3 L 1074.3 879.2 L 1076.5 879.9 L 1078.2 881.7 L 1079.5 884.6 L 1081.5 886.1 L 1084.2 886.2 L 1088.9 887.8 L 1095.4 890.9 L 1099.7 893.4 L 1101.7 895.2 L 1103.3 897.6 L 1105.1 902 L 1107.4 908.1 L 1109.2 910.9 L 1111.2 912.3 L 1112.2 913.4 L 1112.2 914.2 L 1114.3 915.6 L 1118.5 917.9 L 1122.5 922.2 L 1126.2 928.7 L 1129.7 933.5 L 1133 936.6 L 1136 938.8 L 1138.7 940 L 1140.1 941.1 L 1140.3 941.9 L 1142.9 943.5 L 1147.8 946 L 1150.9 948.5 L 1152.2 951 L 1157.1 953.6 L 1165.5 956.2 L 1171.6 957.5 L 1175.4 957.4 L 1180.9 959.5 L 1188 963.9 L 1192.4 966.9 L 1194 968.6 L 1198.6 971.3 L 1210.3 976.9 L 1215.4 978.3 L 1217.9 979.6 L 1219.3 981.3 L 1220.7 981.8 L 1222.1 981.1 L 1225.1 981.7 L 1229.5 983.5 L 1233 985.7 L 1237.4 990.6" />
<path class="river" d="M 865.7 626.3 L 867.6 627.9 L 870.9 627.7 L 878.6 625.8 L 881.4 623.1 L 884.2 621.7 L 888 620.7 L 892 618.7 L 896.2 615.8 L 898.1 614 L 897.9 613.2 L 898.4 612.4 L 899.7 611.7 L 900.6 609.6 L 901.2 606.1 L 903.3 602.8 L 906.9 599.7 L 908.9 597.4 L 909.2 595.9 L 910.1 594.9 L 911.7 594.4 L 912.9 592.8 L 913.6 590.3 L 915.3 588.2 L 917.8 586.6 L 919.2 585.2 L 919.4 584.1 L 921.1 583 L 924.2 582 L 926.8 581.8 L 929 582.5 L 930.5 582.4 L 931.3 581.5 L 932.6 581.1 L 935.3 581.1 L 936.4 581.4 L 936.9 581 L 937.5 580.2 L 938.2 579.9 L 939.5 580 L 941.3 579 L 943.7 576.7 L 947.1 574.8 L 951.5 573.3 L 953.8 573.1 L 954.6 573.6 L 955.2 574.1 L 956.3 574.4 L 957.6 574.1 L 959.1 574.8 L 961.1 577 L 962.1 578.7 L 962.2 580.1 L 962.8 580.6 L 964 580.4 L 964.7 580.6 L 965.1 581.4 L 966.8 581.5 L 969.6 581.1 L 971.5 581.1 L 972.4 581.6 L 974.4 581 L 978.9 578.6 L 989.1 574.3 L 992.7 571.9 L 992.9 569.9 L 992.6 569.2 L 992.1 568.9 L 992 568.2 L 992.3 567 L 992.1 566.3 L 991.8 565.9 L 991.8 565.4 L 993.2 564.3 L 993.4 563.4 L 993 562.7 L 993.2 562.2 L 993.6 561.2 L 995.5 558.5 L 996.3 556.5 L 995.9 555.1 L 997.1 553.2 L 999.9 550.8 L 1000.9 549.7 L 1001 549.1 L 1001.5 548.7 L 1002.2 548.7 L 1002.7 548.3 L 1003 547.2 L 1004.1 546.5 L 1006.1 546 L 1007.4 546.1 L 1008.2 546.8 L 1009.2 546.5 L 1010.6 545.2 L 1012.1 544.8 L 1013.6 545.4 L 1014.4 545.1 L 1014.7 544.1 L 1015.9 543.2 L 1017.9 542.4 L 1018.9 542.8 L 1019 543.7 L 1019.8 544.2 L 1021.3 543.9 L 1022.4 544.4 L 1023.2 545.7 L 1024.2 546.2 L 1025.6 546.1 L 1026.2 546.8 L 1026.8 547.1 L 1028.4 546.6 L 1029.5 546.7 L 1030.2 547.3 L 1030.9 547.2 L 1031.4 546.8 L 1032.6 546.8 L 1033.8 547.2 L 1035.5 547 L 1036.1 546.3 L 1036.9 545.8 L 1037.9 545.9 L 1038.8 545.5 L 1039.3 544.7 L 1040.2 544.5 L 1041.1 544.6 L 1041.7 544.2 L 1041.6 543.7 L 1042.1 543.4 L 1042.8 543.5 L 1043.1 543 L 1042.9 542.5 L 1043.2 542 L 1044.9 540.9 L 1046.7 540 L 1047.6 539.9 L 1048.2 540.3 L 1048.6 539.7 L 1048.7 537.8 L 1049.4 537.4 L 1050 537.3 L 1051.6 537.8 L 1052.7 537.4 L 1053.1 536.3 L 1053.5 536.1 L 1054.1 535.9 L 1055.7 536.5 L 1057.7 535.9 L 1060.3 534.1 L 1061.4 532.9 L 1061.1 532.4 L 1061.3 532 L 1062.1 531.8 L 1062.2 531.5 L 1062.3 531.2 L 1062.9 530.8 L 1062.9 530.1 L 1061.6 527.8 L 1061.6 526.4 L 1063 525.8 L 1063.4 525.2 L 1062.8 524.6 L 1062.6 523.8 L 1062.9 522.7 L 1063.7 522.1 L 1065.1 522.1 L 1066 521.5 L 1066.2 520.5 L 1067.2 519.6 L 1068.9 518.7 L 1070.1 516.4 L 1071 510.6 L 1069.9 505.1 L 1068.6 502.8 L 1066.7 502 L 1066.2 501.1 L 1067.1 500.3 L 1067.6 499.1 L 1067.7 497.6 L 1068.3 496.8 L 1069.4 496.6 L 1069.8 496 L 1069.5 495 L 1070.3 494.4 L 1072.1 494.2 L 1073.1 494.5 L 1073 495.2 L 1073.5 495.6 L 1074.5 495.7 L 1075.2 495.4 L 1075.7 494.5 L 1077.1 494.1 L 1079.4 494.2 L 1081.2 495 L 1082.4 496.7 L 1084 497.3 L 1086.2 497 L 1086.9 497.5 L 1086.8 498.3 L 1087.1 499.1 L 1087.9 499.7 L 1089.1 499.4 L 1090.7 498.3 L 1092 498 L 1093.1 498.5 L 1095.1 497.7 L 1097.9 495.8 L 1098.8 496 L 1099.1 496.5 L 1099.7 497.3 L 1100.9 497.6 L 1101.5 497.1 L 1101.2 495 L 1101.6 493.7 L 1102.7 493.4 L 1102.9 492.7 L 1103.3 491.2 L 1103.8 490.9 L 1104.4 490.3 L 1105.2 490.3 L 1106.4 490.1 L 1107 489.2 L 1107.1 486.2 L 1106.8 484.5 L 1106.2 484 L 1106.7 483.2 L 1108.2 482 L 1108.7 480.8 L 1108.3 479.8 L 1109.1 478.5 L 1110.3 477.9 L 1111.4 478.1 L 1112.4 477.7 L 1112.8 477.1 L 1113.1 476.2 L 1114 475.7 L 1115.1 475.8 L 1116 475.2 L 1116.3 474.5 L 1115.9 473.7 L 1116.5 472.9 L 1118 472.1 L 1120 471.9 L 1122.5 472.2 L 1125 470.9 L 1125.9 470 L 1127.1 469 L 1127.5 467.7 L 1126.9 466.4 L 1127.3 465.3 L 1128.1 465 L 1129.9 464.6 L 1131 463.7 L 1131.6 462.3 L 1133.2 461.2 L 1135.9 460.4 L 1138.9 457.8 L 1141.9 453.5 L 1142.8 449.9 L 1141.3 446" />
<path class="river" d="M 1030.7 962.4 L 1031.8 967.6 L 1031 970.5 L 1031.6 973.3 L 1033.3 977 L 1036.1 980.4 L 1039.9 983.4 L 1041.8 985.7 L 1041.7 987.2 L 1042.8 988.2 L 1045.2 988.8 L 1047.3 988 L 1049.3 985.9 L 1051.2 985.3 L 1053.1 986.1 L 1054.4 987.4 L 1055.1 989.1 L 1056.7 990.4 L 1059.4 991.1 L 1062.5 990.6 L 1065.9 988.8 L 1068.3 986.9 L 1069.8 985.2 L 1071.2 984.5 L 1072.6 984.8 L 1074.7 988 L 1077.5 993.9 L 1078.8 997.7 L 1078.8 999.3 L 1080.2 1002.3 L 1083.1 1006.6 L 1084.2 1009.7 L 1083.4 1011.8 L 1083.8 1015.1 L 1085.3 1019.8 L 1085.7 1024 L 1085 1027.6 L 1084.9 1031 L 1085.4 1034.3 L 1086.5 1037.8 L 1088.3 1041.5 L 1089 1044.6 L 1088.7 1048.1 L 1088.4 1049.3 L 1089.4 1052 L 1091.8 1056.7 L 1094.7 1060.3 L 1098 1063 L 1099.8 1065.2 L 1100.1 1066.9 L 1101.3 1068.2 L 1103.4 1069.1 L 1105.7 1070.9 L 1108.3 1073.4 L 1110.4 1077.3 L 1112.1 1082.6 L 1115.2 1086.8 L 1119.7 1090 L 1123.7 1091.9 L 1127.3 1092.5 L 1130.5 1092 L 1133.3 1090.5 L 1135.4 1090.4 L 1136.7 1091.8 L 1140.3 1093.5 L 1146 1095.5 L 1151.4 1097.9 L 1156.6 1100.8 L 1159.5 1103 L 1160.2 1104.3 L 1160.4 1107 L 1160.2 1111.1 L 1160.5 1113.6 L 1161.3 1114.6 L 1161.6 1116.7 L 1161.4 1120 L 1161.7 1122.5 L 1162.7 1124.2 L 1162.9 1125.5 L 1162.5 1126.5 L 1161.1 1127.2 L 1158.8 1127.8 L 1157.5 1128.9 L 1157.2 1131.3 L 1157.9 1134.9 L 1157.4 1137.5 L 1155.8 1140.2 L 1155.8 1141.8 L 1157.4 1142.2 L 1158.4 1144.4 L 1158.9 1148.5 L 1158.7 1151.6 L 1157.6 1153.7 L 1157.8 1155.4 L 1160.5 1157.3" />
<path class="river" d="M 941.3 1140.3 L 941.9 1140.1 L 947.2 1140 L 949.9 1140.6 L 951.1 1142.1 L 951.8 1143.6 L 951.8 1145.3 L 953.3 1146.2 L 956.2 1146.5 L 959.6 1146.1 L 963.4 1145.2 L 965.7 1145 L 966.5 1146.1 L 967.8 1147.6 L 968 1149.6 L 967.7 1152.7 L 968.2 1155.4 L 969.6 1157.8 L 970 1159.5 L 970.2 1160.2 L 971.3 1160.4 L 974.8 1160.2 L 977.7 1161.1 L 980 1163.3 L 983.4 1164.6 L 987.9 1165.1 L 990.9 1166.1 L 993.1 1168.1 M 555.3 74 L 562.3 75.8 L 565.9 77.4 L 568.2 79.4 L 569.5 80.9 L 569.7 81.9 L 570.4 82.4 L 572.2 82.6 L 576.6 83.6 L 579.4 83.4 L 581.8 82.3 L 583.2 81 L 583.6 79.1 M 521.7 46.5 L 527.5 49.3" />
<path class="river" d="M 884.7 739.3 L 885 736.3 L 885.5 735.1 L 886.4 734.9 L 886.5 733.7 L 886 731.5 L 886.6 729.2 L 888.9 725.6 L 890.1 723.1 L 890.1 719.9 L 889.3 715.3 L 888.5 712.3 L 887.7 710.9 L 886.5 709.7 L 884.7 708.9 L 883 706.7 L 881.5 702.9 L 878.6 700.9 L 874.4 700.4 L 870.6 699.1 L 867.2 696.7 L 862.6 694.3 L 856.6 691.7 L 852.4 690.8 L 850 691.6 L 848 691.8 L 845.7 691.1 L 839.2 684.9 L 837.1 682 L 837.2 680.4 L 836.6 677.9 L 835.2 674.5 L 833.2 671.6 L 830.9 669.2 L 828.2 665.2 L 825.3 659.6 L 824.7 655.5 L 826.4 653.1 L 825.3 648.3 L 821.5 641.1 L 819.6 636.6 L 819.6 634.9 L 821 634.1 L 823.6 634.1 L 826.5 634.9 L 829.8 636.6 L 832.1 637.3 L 833.2 637 L 833.2 635.1 L 832.1 631.4 L 831.8 628 L 832.3 624.9 L 831 622.3 L 827.9 620.2 L 826 617.9 L 825.4 615.2 L 825.3 612.9 L 825.8 610.9 L 825.7 610.2 L 825.1 609.8 L 824.8 609.4 L 825.1 608.3 L 825.7 607.5 L 826 606.9 L 825.9 606.5 L 825.4 606.3 L 824.6 605.4 L 824.3 604.1 L 824.7 603.4 L 825.7 603.4 L 826.5 602.7 L 827 601.5 L 826.1 600.8 L 823.6 600.8 L 822.3 599.2 L 822.1 596.2 L 821.6 594 L 820.8 592.5 L 819.9 592.1 L 819.4 592.2 L 819 591.9 L 818.8 591.3 L 818.2 590.3 L 816.6 589.1 L 815.9 587.3 L 816.2 584.7 L 815.7 583.4 L 814.9 582.8 L 814.6 582.1 L 814.7 581.5 L 814.6 580.9 L 814.1 580.6 L 812.6 576.1 L 813.3 573.2 L 815.9 570.3 L 817.8 569.1 L 818.9 569.4 L 819.4 568.7 L 819.3 566.8 L 818.6 566.3 L 817.2 567 L 816 567 L 815 566.2 L 814.2 566 L 813.6 566 L 813.4 565.3 L 813.3 562.8 L 812.7 561.3 L 811.5 560.7 L 811 560 L 811.4 559 L 811.2 558.6 L 810.3 558.7 L 810 558.1 L 810.4 556.7 L 810.1 555.5 L 809.4 554.6 L 808.4 554.2 L 807.9 554.1 L 807.4 553.8 L 807.8 553.3 L 807.6 552.7 L 805.6 551.8 L 804.5 551.9 L 804.3 552.8 L 803.5 552.8 L 802.2 551.7 L 801.8 550.7 L 802.3 549.9 L 801.9 548.5 L 800.6 546.6 L 800.6 546 L 801.2 545.9 L 801.5 545.3 L 800.6 543.6 L 800.5 542.1 L 801.4 540.6 L 800.5 538.8 L 797.9 536.6 L 796 535.7 L 795 535.9 L 794.6 535.6 L 794.8 534.7 L 794.2 534.2 L 793.9 533.6 L 794.3 532.8 L 797.2 530.9 L 797.5 529.9 L 797.4 529.3 L 796.8 528.6 L 797.2 527.2 L 798.7 525.2 L 798.8 523.3 L 797.7 521.2 L 797.7 519.8 L 798.3 519.2 L 797.8 517.9 L 796.9 516.9 L 796.5 515.9 L 797.1 515 L 797.2 513.1 L 796.3 510.4 L 796.4 508.4 L 797.7 507.1 L 798.4 507.1 L 798.9 507.3 L 799.4 507 L 799.6 506.4 L 800.5 506 L 801.9 506.3 L 803.8 505.7 L 806 504 L 807.1 504.1 L 807.9 504.1 L 808.6 503.8 L 808.7 503 L 809.8 501 L 812.1 498.4 L 813.9 497.6 L 815.2 498.7 L 816 498.8 L 816.5 498 L 817.1 497.9 L 817.7 498.2 L 818.4 497.9 L 818.9 496.1 L 820 495.1 L 821.3 494.5 L 821.7 493.9 L 821.4 493.3 L 821.5 492.7 L 822 492.2 L 821.9 491.5 L 821.7 491.1 L 821.8 490.8 L 822.1 490.2 L 822.2 489.7 L 822 489.2 L 822.4 488.7 L 823.4 488 L 823.9 487 L 823.6 484.7 L 823.9 482.5 L 824.9 480.1 L 825.4 479.8 L 826.1 479.9 L 827 480.9 L 828.6 480.8 L 830.7 479.2 L 831.8 477.7 L 832 476.7 L 832.6 476.3 L 833.3 476.5 L 833.5 475.9 L 833.1 475 L 833.6 473.5 L 835.3 472 L 836.3 471.8 L 837.1 471.7 L 837.3 471.2 L 837.2 470.4 L 837.5 469.4 L 838.9 468.1 L 838.9 467.3 L 838.5 467 L 838.4 466.5 L 839 465.3" />
<g class="city"><circle cx="749.3494046450753" cy="656.5114464836636" r="5" /><text x="761.3494046450753" y="660.5114464836636">Lima</text></g>
<g class="city"><circle cx="823.9602755925532" cy="237.9155885728157" r="5" /><text x="835.9602755925532" y="241.9155885728157">Bogota</text></g>
<g class="city"><circle cx="786.4459249118547" cy="195.70048226509874" r="5" /><text x="798.4459249118547" y="199.70048226509874">Medellín</text></g>
<g class="city"><circle cx="677.1714263532922" cy="409.3446875117887" r="5" /><text x="689.1714263532922" y="413.3446875117887">Guayaquil</text></g>
<g class="city"><circle cx="763.1839321143945" cy="268.0058165949274" r="5" /><text x="775.1839321143945" y="272.0058165949274">Cali</text></g>
<g class="city"><circle cx="1097.0149408690834" cy="800.0109437710933" r="5" /><text x="1109.0149408690834" y="804.0109437710933">Santa Cruz</text></g>
<g class="city"><circle cx="712.8832011992936" cy="358.9191909361935" r="5" /><text x="724.8832011992936" y="362.9191909361935">Quito</text></g>
<g class="city"><circle cx="973.1800809916697" cy="768.4248355864734" r="5" /><text x="985.1800809916697" y="772.4248355864734">La Paz</text></g>
<text class="map-title" x="80" y="105">Peru Physical Study Map</text>
<text class="map-subtitle" x="80" y="145">Landmark: Machu Picchu | Study terrain and water systems</text>
  <text class="footer" x="80" y="1036">Made with Natural Earth. Free vector and raster map data @ naturalearthdata.com.</text>
</svg>
