<?xml version="1.0" encoding="UTF-8"?>
<svg xmlns="http://www.w3.org/2000/svg" width="1600" height="1100" viewBox="0 0 1600 1100" role="img" aria-labelledby="title desc">
  <title id="title">Peru Political Study Map</title>
  <desc id="desc">Made with Natural Earth. Free vector and raster map data @ naturalearthdata.com.</desc>
  <defs>
    <linearGradient id="terrain" x1="0" x2="1" y1="0" y2="1">
      <stop offset="0%" stop-color="#6c8c53" />
      <stop offset="42%" stop-color="#d5c487" />
      <stop offset="72%" stop-color="#b88b5f" />
      <stop offset="100%" stop-color="#f1f5ee" />
    </linearGradient>
    <filter id="softShadow" x="-10%" y="-10%" width="120%" height="120%">
      <feDropShadow dx="0" dy="10" stdDeviation="12" flood-color="#0f172a" flood-opacity="0.16" />
    </filter>
    <style>
      .neighbor { fill: #ffffff; stroke: #94a3b8; stroke-width: 1.2; opacity: 0.72; }
      .country { fill: #f7f1df; stroke: #1f2937; stroke-width: 4; filter: url(#softShadow); }
      .admin1 { fill: none; stroke: #64748b; stroke-width: 1.1; stroke-dasharray: 6 7; opacity: 0.75; }
      .river { fill: none; stroke: #1d9bd1; stroke-width: 3; stroke-linecap: round; opacity: 0.88; }
      .lake { fill: #8ed1ea; stroke: #0ea5e9; stroke-width: 1.5; opacity: 0.8; }
      .city circle { fill: #ef4444; stroke: #ffffff; stroke-width: 2; }
      .city text, .terrain-label { fill: #172033; font: 700 24px system-ui, sans-serif; paint-order: stroke; stroke: #ffffff; stroke-width: 5; stroke-linejoin: round; }
      .map-title { fill: #0f172a; font: 800 46px system-ui, sans-serif; }
      .map-subtitle { fill: #475569; font: 600 24px system-ui, sans-serif; }
      .footer { fill: #64748b; font: 500 18px system-ui, sans-serif; }
    </style>
  </defs>
  <rect width="100%" height="100%" fill="#eaf3f8" />
  <rect x="40" y="40" width="1520" height="1020" rx="32" fill="#ffffff" opacity="0.54" />
  <path class="neighbor" d="M 7214 757.6 L 7214 769.9 L 7198 776.1 L 7182 781.4 L 7178.7 772 L 7191.3 766.9 L 7199.3 765.5 L 7214 757.6 Z M 7166.9 793.8 L 7173.1 789.6 L 7181.8 796.9 L 7177.6 810 L 7162 813.5 L 7148.2 810.4 L 7145.7 799.3 L 7155.5 790.7 L 7166.9 793.8 Z M -1834.5 756.5 L -1837.6 768.6 L -1839.7 769.9 L -1839.7 757.6 L -1834.5 756.5 Z" />
<path class="neighbor" d="M 961.1 1677.3 L 970.7 1689 L 983.3 1707.9 L 1016 1722.9 L 1051.2 1729.2 L 1039.9 1741.8 L 1016 1743.1 L 1003.2 1734.2 L 988 1733.5 L 961.1 1733.5 L 961.1 1677.3 Z M 1237.9 1113.5 L 1231.6 1133.6 L 1224.9 1159.5 L 1225.2 1184.5 L 1219.7 1190.1 L 1217.8 1206.4 L 1216 1219.5 L 1248 1241 L 1244.5 1258.4 L 1260.2 1269.3 L 1259 1281.6 L 1234.8 1313.9 L 1197.5 1327.3 L 1147.1 1332.6 L 1119.4 1330.1 L 1124.7 1345 L 1119.6 1363.9 L 1124.2 1376.6 L 1109.1 1385.4 L 1083.4 1388.9 L 1059.2 1379.7 L 1049.5 1386.3 L 1053 1411.3 L 1070 1418.9 L 1083.7 1410.9 L 1091.2 1424 L 1068.1 1431.8 L 1047.9 1447.4 L 1044.2 1472.7 L 1038.2 1486.2 L 1014.5 1486.3 L 994.8 1499.2 L 987.6 1518 L 1012.3 1536.4 L 1036.3 1541.5 L 1027.7 1564.1 L 998 1578.3 L 981.6 1607.7 L 958.7 1617.7 L 948.4 1629.4 L 956.5 1655.6 L 973.2 1670.1 L 962.6 1668.9 L 939.3 1664.9 L 878.5 1661.6 L 868.1 1646.9 L 868.6 1628.1 L 851.9 1629.7 L 843 1620.6 L 840.8 1593.9 L 860.1 1582.8 L 868.1 1566.9 L 865.2 1554.2 L 878.5 1532.7 L 887.7 1499.4 L 885 1484.6 L 896 1479.9 L 893.3 1470.4 L 881.6 1465.3 L 889.9 1454.8 L 878.5 1445.3 L 872.7 1416.2 L 882.8 1411.1 L 878.5 1380.5 L 884.4 1354.7 L 891.2 1332.3 L 906.2 1323.1 L 898.6 1298.6 L 898.5 1275.5 L 917.5 1259.1 L 916.9 1238.1 L 931.3 1213.5 L 931.4 1190.4 L 924.8 1185.8 L 913.2 1142.4 L 928.7 1116.5 L 926.4 1092.1 L 935.4 1069.3 L 951.8 1045.7 L 969.6 1030.1 L 962 1020.2 L 967.3 1012.1 L 966.5 970.2 L 993.9 957.8 L 1002.5 931.7 L 999.5 925.4 L 1020.4 902.6 L 1053.3 908.8 L 1068.1 926.9 L 1077.9 906.7 L 1106.6 907.7 L 1110.7 913.1 L 1156.9 954.1 L 1177.5 958 L 1208.2 976.5 L 1234.1 986.4 L 1237.7 997.5 L 1212.9 1035.7 L 1238.3 1042.5 L 1266.6 1046.4 L 1286.4 1042.3 L 1309.3 1023.1 L 1313.4 1000.9 L 1325.8 996.1 L 1338.4 1010.6 L 1337.9 1030.7 L 1316.7 1044.5 L 1299.9 1054.8 L 1271.5 1079.2 L 1237.9 1113.5 Z" />
<path class="neighbor" d="M 961.1 1677.3 L 961.1 1733.5 L 988 1733.5 L 1003.2 1734.2 L 994.8 1744.3 L 973.3 1752.2 L 960.9 1751.4 L 946 1749.3 L 927.8 1741.8 L 901.4 1738.1 L 869.8 1724.1 L 844.1 1710.6 L 809.4 1682.4 L 830.2 1687.7 L 865.5 1704.5 L 898.8 1713.5 L 911.8 1702 L 920 1684.7 L 943.2 1674.4 L 961.1 1677.3 Z M 937 795.7 L 949.3 812.8 L 952.7 830.9 L 965.9 841.6 L 958 865.9 L 971.5 894.1 L 981.3 928.8 L 999.5 925.4 L 1002.5 931.7 L 993.9 957.8 L 966.5 970.2 L 967.3 1012.1 L 962 1020.2 L 969.6 1030.1 L 951.8 1045.7 L 935.4 1069.3 L 926.4 1092.1 L 928.7 1116.5 L 913.2 1142.4 L 924.8 1185.8 L 931.4 1190.4 L 931.3 1213.5 L 916.9 1238.1 L 917.5 1259.1 L 898.5 1275.5 L 898.6 1298.6 L 906.2 1323.1 L 891.2 1332.3 L 884.4 1354.7 L 878.5 1380.5 L 882.8 1411.1 L 872.7 1416.2 L 878.5 1445.3 L 889.9 1454.8 L 881.6 1465.3 L 893.3 1470.4 L 896 1479.9 L 885 1484.6 L 887.7 1499.4 L 878.5 1532.7 L 865.2 1554.2 L 868.1 1566.9 L 860.1 1582.8 L 840.8 1593.9 L 843 1620.6 L 851.9 1629.7 L 868.6 1628.1 L 868.1 1646.9 L 878.5 1661.6 L 939.3 1664.9 L 962.6 1668.9 L 940.3 1668.7 L 928.1 1674.9 L 905.4 1683.9 L 901.4 1707.4 L 890.7 1708 L 862.4 1699.8 L 833.6 1682.3 L 833.6 1682.3 L 802.3 1667.9 L 794.4 1652 L 801.5 1637.3 L 788.9 1620.5 L 785.7 1577.7 L 796.4 1553.5 L 822.9 1534.1 L 784.7 1526.7 L 808.7 1504.5 L 817.3 1462.7 L 845.2 1471.6 L 858.4 1419.5 L 841.5 1412.8 L 833.6 1444.2 L 817.8 1440.6 L 825.7 1404.7 L 834.2 1358.1 L 845.8 1340.9 L 838.5 1316.3 L 836.5 1288 L 847.1 1287.2 L 862.5 1246.6 L 879.9 1206.4 L 890.5 1168.9 L 884.7 1131.2 L 892.2 1110.4 L 889.2 1079.4 L 903.9 1048.7 L 908.5 1000 L 916.5 947.8 L 924.4 891.6 L 922.6 850.4 L 917.3 815 L 930.3 808.6 L 937 795.7 Z" />
<path class="neighbor" d="M 1344.8 1202.8 L 1337.9 1188.6 L 1349 1176.6 L 1334.4 1159.5 L 1314.7 1145.6 L 1288.8 1129.5 L 1279.5 1130.2 L 1254.2 1110.8 L 1237.9 1113.5 L 1271.5 1079.2 L 1299.9 1054.8 L 1316.7 1044.5 L 1337.9 1030.7 L 1338.4 1010.6 L 1325.8 996.1 L 1313.4 1000.9 L 1318.3 986.4 L 1321.7 971.5 L 1321.7 957.7 L 1312.7 953.1 L 1303.2 957.2 L 1293.9 956.1 L 1290.9 946.4 L 1288.6 923.3 L 1283.9 915.8 L 1266.9 909 L 1256.6 913.9 L 1230.1 909.1 L 1231.7 875 L 1224.3 861 L 1232.2 855.8 L 1229.8 841.5 L 1236.6 830.4 L 1241.1 810.6 L 1235.2 795 L 1221.4 787.9 L 1218.7 778 L 1222.4 763.5 L 1174.2 762.4 L 1164.5 733.2 L 1171.9 732.7 L 1171.5 721.9 L 1166.6 714.6 L 1165.5 700 L 1150.9 692.6 L 1135.1 692.8 L 1124.7 685.5 L 1107.7 680.5 L 1097.8 671.1 L 1069.6 667 L 1042.3 644.4 L 1044.4 627.6 L 1041.3 617.9 L 1043.9 599.1 L 1011 603.3 L 997.8 612.8 L 975.8 623 L 970.2 630.6 L 957.2 631.1 L 938.5 629 L 924.3 633.3 L 912.9 630.4 L 914.6 592.2 L 893.9 607.1 L 871.8 606.4 L 862.2 593 L 845.6 591.5 L 850.9 580.7 L 836.9 565.4 L 826.4 542.8 L 833.1 538.2 L 833 527.6 L 848.2 520.3 L 845.7 506.7 L 852.1 497.9 L 854 486.2 L 882.7 469.1 L 903.3 464.3 L 906.7 460.5 L 929.4 461.7 L 940.7 392.7 L 941.3 381.8 L 937.3 367.4 L 926.2 358.2 L 926.3 339.9 L 940.5 335.8 L 945.5 338.4 L 946.4 328.8 L 931.6 326.2 L 931.3 310.4 L 980.3 311 L 988.6 302.3 L 995.6 310.3 L 1000.5 325.1 L 1005.3 322 L 1019.1 335.3 L 1038.7 333.7 L 1043.5 326 L 1062.2 320.1 L 1072.6 316 L 1075.5 305.4 L 1093.5 298.2 L 1092.1 292.9 L 1070.8 290.8 L 1067.3 274.9 L 1068.3 258.1 L 1057.1 251.5 L 1061.8 249.2 L 1080.4 252.4 L 1100.4 258.7 L 1107.7 252.8 L 1125.7 248.9 L 1153.9 239.5 L 1163.1 229.9 L 1159.7 222.8 L 1172.8 221.7 L 1178.7 227.5 L 1175.4 238.5 L 1184 242.3 L 1189.8 254 L 1182.8 262.9 L 1178.8 284.3 L 1185.3 297 L 1187.1 308.6 L 1202.6 320.4 L 1214.9 321.7 L 1217.7 316.7 L 1225.6 315.7 L 1237 311.2 L 1245.2 304.6 L 1259.1 306.7 L 1265.2 305.8 L 1278.9 307.8 L 1281.2 302.7 L 1276.9 297.7 L 1279.5 290.4 L 1289.6 292.7 L 1301.5 290.1 L 1315.9 295.4 L 1326.9 300.6 L 1334.7 293.8 L 1340.3 294.8 L 1343.7 301.9 L 1355.8 300.1 L 1365.4 290.6 L 1373.1 272.1 L 1388 249 L 1396.6 247.8 L 1402.8 261.8 L 1416.9 305.7 L 1430.3 309.9 L 1431 327.3 L 1412.1 348 L 1419.9 355.5 L 1464.4 359.5 L 1465.3 384.7 L 1484.4 368.2 L 1516 377.2 L 1557.8 392.6 L 1570.1 407.3 L 1566 421.2 L 1595.2 413.5 L 1644.1 426.8 L 1681.7 425.8 L 1718.9 446.6 L 1751 474.8 L 1770.4 482.1 L 1791.9 483.1 L 1801 491 L 1809.5 523 L 1813.7 538.2 L 1803.7 579.8 L 1790.9 596.2 L 1755.5 631.2 L 1739.4 659.7 L 1720.8 681.5 L 1714.5 682 L 1707.5 700.5 L 1709.3 747.6 L 1702.3 786.3 L 1699.6 802.9 L 1691.7 812.8 L 1687.2 846.5 L 1661.7 879.3 L 1657.4 905.3 L 1637.1 916.2 L 1631.2 931.2 L 1603.9 931.2 L 1564.3 940.8 L 1546.6 952 L 1518.4 959.4 L 1488.8 979.4 L 1467.5 1004.4 L 1463.9 1023.1 L 1468 1037 L 1463.4 1062.4 L 1457.6 1074.7 L 1440.1 1088.5 L 1412.2 1132.8 L 1390 1152.7 L 1372.9 1164.5 L 1361.5 1188.4 L 1344.8 1202.8 Z" />
<path class="neighbor" d="M 938.5 629 L 957.2 631.1 L 970.2 630.6 L 975.8 623 L 997.8 612.8 L 1011 603.3 L 1043.9 599.1 L 1041.3 617.9 L 1044.4 627.6 L 1042.3 644.4 L 1069.6 667 L 1097.8 671.1 L 1107.7 680.5 L 1124.7 685.5 L 1135.1 692.8 L 1150.9 692.6 L 1165.5 700 L 1166.6 714.6 L 1171.5 721.9 L 1171.9 732.7 L 1164.5 733.2 L 1174.2 762.4 L 1222.4 763.5 L 1218.7 778 L 1221.4 787.9 L 1235.2 795 L 1241.1 810.6 L 1236.6 830.4 L 1229.8 841.5 L 1232.2 855.8 L 1224.3 861 L 1223.9 853.2 L 1200.5 840.4 L 1177.1 840 L 1133.3 847.3 L 1121.2 869.5 L 1120.6 883 L 1110.7 913.1 L 1106.6 907.7 L 1077.9 906.7 L 1068.1 926.9 L 1053.3 908.8 L 1020.4 902.6 L 999.5 925.4 L 981.3 928.8 L 971.5 894.1 L 958 865.9 L 965.9 841.6 L 952.7 830.9 L 949.3 812.8 L 937 795.7 L 952.9 768.5 L 942 747.4 L 947.8 738.9 L 943.3 729.6 L 953.1 717.1 L 953.6 695.7 L 954.9 678 L 960.3 669.5 L 938.5 629 Z" />
<path class="neighbor" d="M 1005.3 322 L 1000.5 325.1 L 995.6 310.3 L 988.6 302.3 L 980.3 311 L 931.3 310.4 L 931.6 326.2 L 946.4 328.8 L 945.5 338.4 L 940.5 335.8 L 926.3 339.9 L 926.2 358.2 L 937.3 367.4 L 941.3 381.8 L 940.7 392.7 L 929.4 461.7 L 916.8 448.3 L 909.3 447.7 L 925.5 422.1 L 906.2 410.3 L 891.2 412.5 L 882.1 408.1 L 868.2 414.8 L 849.5 411.6 L 834.7 385.3 L 823 378.8 L 815 366.9 L 798.3 355 L 791.6 357.4 L 780.8 351.4 L 768.5 343.1 L 761.3 347.1 L 740 343.6 L 733.8 332.8 L 729.2 333.2 L 704 318.8 L 700.6 311 L 710 309.1 L 708.9 296.5 L 714.8 287.4 L 727.2 285.7 L 737.8 269.9 L 747.4 256.7 L 738.2 250.8 L 742.9 236.2 L 737.2 213.2 L 742.6 206.6 L 738.7 185.3 L 728.5 171.9 L 731.7 159.7 L 739.8 161.5 L 744.6 154 L 738.7 139.2 L 741.8 135.5 L 754.8 136.3 L 773.6 118.7 L 784 116.1 L 784.2 107.8 L 788.9 86.5 L 803.3 74.8 L 819.1 74.4 L 821.1 69.1 L 840.8 71.2 L 860.6 58.5 L 870.4 52.9 L 882.6 40.8 L 891.5 42.3 L 898.1 48.9 L 893.2 57.4 L 877.1 61.6 L 870.7 74.2 L 860.9 81.4 L 853.6 90.7 L 850.6 108.7 L 843.6 123.4 L 856.6 125.1 L 859.8 136.6 L 865.3 142.2 L 867.3 152.3 L 864.3 161.6 L 865.2 166.9 L 871.4 169 L 877.4 177.7 L 909.7 175.3 L 924.4 178.5 L 942.1 200.2 L 952.2 197.5 L 970.3 198.8 L 984.7 195.9 L 993.6 200.3 L 989 213.8 L 983.4 222.3 L 981.5 240.3 L 986.5 257 L 993.7 264.5 L 994.5 270.1 L 981.8 282.6 L 990.9 288.2 L 997.6 297 L 1005.3 322 Z" />
<path class="neighbor" d="M 741.8 135.5 L 738.7 139.2 L 744.6 154 L 739.8 161.5 L 731.7 159.7 L 728.5 171.9 L 720.1 164.6 L 714.7 151.1 L 720.9 144.3 L 714.6 142.6 L 709.9 134.3 L 697.3 127.3 L 686.3 128.9 L 681.2 137.7 L 671.1 144 L 665.6 144.9 L 663.1 150.1 L 675.1 163.7 L 668.3 167 L 664.6 170.7 L 652.9 172 L 648.6 156.9 L 645.3 161.2 L 637 159.7 L 631.9 149.6 L 621.6 148 L 615.1 145 L 604.3 145.1 L 603.5 150.5 L 600.6 146.7 L 601.9 141.7 L 604 136.6 L 603.1 132.1 L 606.8 129.1 L 601.6 125.3 L 601.4 115.2 L 611.2 113 L 620.2 122 L 619.7 127.3 L 629.7 128.5 L 632.1 126.4 L 639 132.6 L 651.4 130.8 L 662.1 124.4 L 677.4 119.4 L 685.9 111.8 L 699.8 113.3 L 698.9 115.8 L 712.9 116.6 L 724.1 121 L 732.3 128.6 L 741.8 135.5 Z" />
<path class="neighbor" d="M 611.2 113 L 601.4 115.2 L 601.6 125.3 L 606.8 129.1 L 603.1 132.1 L 604 136.6 L 601.9 141.7 L 600.6 146.7 L 587 141.1 L 581.9 135.8 L 584.8 131.5 L 583.9 125.9 L 576.9 119.9 L 567 115 L 558.3 111.7 L 556.7 104.4 L 550.1 99.9 L 551.7 107.2 L 546.7 113.2 L 540.9 106.2 L 532.8 103.7 L 529.4 98.7 L 529.6 91 L 532.9 83.1 L 525.8 79.6 L 531.5 74.7 L 535.3 71.5 L 551.9 78.1 L 557.7 74.8 L 565.7 76.9 L 569.8 82.1 L 577.3 83.8 L 583.3 78.5 L 589.6 92.1 L 599.4 102.2 L 611.2 113 Z" />
<path class="neighbor" d="M 1159.7 222.8 L 1163.1 229.9 L 1153.9 239.5 L 1125.7 248.9 L 1107.7 252.8 L 1100.4 258.7 L 1080.4 252.4 L 1061.8 249.2 L 1057.1 251.5 L 1068.3 258.1 L 1067.3 274.9 L 1070.8 290.8 L 1092.1 292.9 L 1093.5 298.2 L 1075.5 305.4 L 1072.6 316 L 1062.2 320.1 L 1043.5 326 L 1038.7 333.7 L 1019.1 335.3 L 1005.3 322 L 997.6 297 L 990.9 288.2 L 981.8 282.6 L 994.5 270.1 L 993.7 264.5 L 986.5 257 L 981.5 240.3 L 983.4 222.3 L 989 213.8 L 993.6 200.3 L 984.7 195.9 L 970.3 198.8 L 952.2 197.5 L 942.1 200.2 L 924.4 178.5 L 909.7 175.3 L 877.4 177.7 L 871.4 169 L 865.2 166.9 L 864.3 161.6 L 867.3 152.3 L 865.3 142.2 L 859.8 136.6 L 856.6 125.1 L 843.6 123.4 L 850.6 108.7 L 853.6 90.7 L 860.9 81.4 L 870.7 74.2 L 877.1 61.6 L 893.2 57.4 L 892.5 63.3 L 877.7 66.3 L 885.9 77.7 L 885.6 90.8 L 874.5 105.4 L 884.1 125.4 L 894.9 123.8 L 900.5 105.6 L 892.7 96.7 L 891.5 77.7 L 922.8 67.5 L 919.3 55.6 L 928.1 47.7 L 937.2 65.4 L 954.8 65.8 L 971.1 79.8 L 972.1 88.1 L 994.7 88.3 L 1021.6 85.8 L 1036 97 L 1055.2 100.1 L 1069.3 92.3 L 1069.6 85.9 L 1100.8 84.4 L 1130.9 84.1 L 1109.5 91.5 L 1118.1 103.4 L 1138.2 105.3 L 1157.3 117.6 L 1161.3 137.8 L 1174.4 137.2 L 1184.3 143.1 L 1164.3 157.9 L 1162.2 167.1 L 1170.8 176.4 L 1164.5 181.1 L 1149 185.2 L 1149.5 196.8 L 1142.7 203.7 L 1159.7 222.8 Z" />
<path class="neighbor" d="M 791.6 357.4 L 795.1 376.5 L 787.2 392.8 L 759.8 419.2 L 729.6 429.1 L 714.2 451 L 709.4 467.9 L 695.2 478.3 L 684.6 465.6 L 674.5 462.9 L 664.1 464.9 L 663.4 455.6 L 670.6 449.7 L 667.6 439.2 L 681 420.4 L 675.5 409.4 L 665.9 421.1 L 650.9 410.1 L 656 403 L 651.7 380.2 L 660.5 376.4 L 665.2 360.7 L 674.7 344.5 L 672.9 334.2 L 686.7 328.8 L 704 318.8 L 729.2 333.2 L 733.8 332.8 L 740 343.6 L 761.3 347.1 L 768.5 343.1 L 780.8 351.4 L 791.6 357.4 Z" />
<path class="neighbor" d="M 1224.3 861 L 1231.7 875 L 1230.1 909.1 L 1256.6 913.9 L 1266.9 909 L 1283.9 915.8 L 1288.6 923.3 L 1290.9 946.4 L 1293.9 956.1 L 1303.2 957.2 L 1312.7 953.1 L 1321.7 957.7 L 1321.7 971.5 L 1318.3 986.4 L 1313.4 1000.9 L 1309.3 1023.1 L 1286.4 1042.3 L 1266.6 1046.4 L 1238.3 1042.5 L 1212.9 1035.7 L 1237.7 997.5 L 1234.1 986.4 L 1208.2 976.5 L 1177.5 958 L 1156.9 954.1 L 1110.7 913.1 L 1120.6 883 L 1121.2 869.5 L 1133.3 847.3 L 1177.1 840 L 1200.5 840.4 L 1223.9 853.2 L 1224.3 861 Z" />

<path class="country" d="M 929.4 461.7 L 906.7 460.5 L 903.3 464.3 L 882.7 469.1 L 854 486.2 L 852.1 497.9 L 845.7 506.7 L 848.2 520.3 L 833 527.6 L 833.1 538.2 L 826.4 542.8 L 836.9 565.4 L 850.9 580.7 L 845.6 591.5 L 862.2 593 L 871.8 606.4 L 893.9 607.1 L 914.6 592.2 L 912.9 630.4 L 924.3 633.3 L 938.5 629 L 960.3 669.5 L 954.9 678 L 953.6 695.7 L 953.1 717.1 L 943.3 729.6 L 947.8 738.9 L 942 747.4 L 952.9 768.5 L 937 795.7 L 930.3 808.6 L 917.3 815 L 892.1 800.6 L 889.9 790.2 L 840.1 765 L 795 737.5 L 775.6 722 L 765.2 701.2 L 769.3 694 L 748 661 L 723.2 614.6 L 699.4 564.5 L 689.1 553 L 681.2 534.5 L 661.7 518.1 L 643.8 507.9 L 651.9 496.7 L 639.7 472.7 L 647.6 455.1 L 667.6 439.2 L 670.6 449.7 L 663.4 455.6 L 664.1 464.9 L 674.5 462.9 L 684.6 465.6 L 695.2 478.3 L 709.4 467.9 L 714.2 451 L 729.6 429.1 L 759.8 419.2 L 787.2 392.8 L 795.1 376.5 L 791.6 357.4 L 798.3 355 L 815 366.9 L 823 378.8 L 834.7 385.3 L 849.5 411.6 L 868.2 414.8 L 882.1 408.1 L 891.2 412.5 L 906.2 410.3 L 925.5 422.1 L 909.3 447.7 L 916.8 448.3 L 929.4 461.7 Z" />


<g class="city"><circle cx="749.3494046450753" cy="656.5114464836636" r="5" /><text x="761.3494046450753" y="660.5114464836636">Lima</text></g>
<g class="city"><circle cx="823.9602755925532" cy="237.9155885728157" r="5" /><text x="835.9602755925532" y="241.9155885728157">Bogota</text></g>
<g class="city"><circle cx="786.4459249118547" cy="195.70048226509874" r="5" /><text x="798.4459249118547" y="199.70048226509874">Medellín</text></g>
<g class="city"><circle cx="677.1714263532922" cy="409.3446875117887" r="5" /><text x="689.1714263532922" y="413.3446875117887">Guayaquil</text></g>
<g class="city"><circle cx="763.1839321143945" cy="268.0058165949274" r="5" /><text x="775.1839321143945" y="272.0058165949274">Cali</text></g>
<g class="city"><circle cx="1097.0149408690834" cy="800.0109437710933" r="5" /><text x="1109.0149408690834" y="804.0109437710933">Santa Cruz</text></g>
<g class="city"><circle cx="712.8832011992936" cy="358.9191909361935" r="5" /><text x="724.8832011992936" y="362.9191909361935">Quito</text></g>
<g class="city"><circle cx="973.1800809916697" cy="768.4248355864734" r="5" /><text x="985.1800809916697" y="772.4248355864734">La Paz</text></g>
<text class="map-title" x="80" y="105">Peru Political Study Map</text>
<text class="map-subtitle" x="80" y="145">Capital: Lima | Continent: South America</text>
  <text class="footer" x="80" y="1036">Made with Natural Earth. Free vector and raster map data @ naturalearthdata.com.</text>
</svg>
