<?xml version="1.0" encoding="UTF-8"?>
<svg xmlns="http://www.w3.org/2000/svg" width="1600" height="1100" viewBox="0 0 1600 1100" role="img" aria-labelledby="title desc">
  <title id="title">Papua New Guinea Political Study Map</title>
  <desc id="desc">Made with Natural Earth. Free vector and raster map data @ naturalearthdata.com.</desc>
  <defs>
    <linearGradient id="terrain" x1="0" x2="1" y1="0" y2="1">
      <stop offset="0%" stop-color="#6c8c53" />
      <stop offset="42%" stop-color="#d5c487" />
      <stop offset="72%" stop-color="#b88b5f" />
      <stop offset="100%" stop-color="#f1f5ee" />
    </linearGradient>
    <filter id="softShadow" x="-10%" y="-10%" width="120%" height="120%">
      <feDropShadow dx="0" dy="10" stdDeviation="12" flood-color="#0f172a" flood-opacity="0.16" />
    </filter>
    <style>
      .neighbor { fill: #ffffff; stroke: #94a3b8; stroke-width: 1.2; opacity: 0.72; }
      .country { fill: #f7f1df; stroke: #1f2937; stroke-width: 4; filter: url(#softShadow); }
      .admin1 { fill: none; stroke: #64748b; stroke-width: 1.1; stroke-dasharray: 6 7; opacity: 0.75; }
      .river { fill: none; stroke: #1d9bd1; stroke-width: 3; stroke-linecap: round; opacity: 0.88; }
      .lake { fill: #8ed1ea; stroke: #0ea5e9; stroke-width: 1.5; opacity: 0.8; }
      .city circle { fill: #ef4444; stroke: #ffffff; stroke-width: 2; }
      .city text, .terrain-label { fill: #172033; font: 700 24px system-ui, sans-serif; paint-order: stroke; stroke: #ffffff; stroke-width: 5; stroke-linejoin: round; }
      .map-title { fill: #0f172a; font: 800 46px system-ui, sans-serif; }
      .map-subtitle { fill: #475569; font: 600 24px system-ui, sans-serif; }
      .footer { fill: #64748b; font: 500 18px system-ui, sans-serif; }
    </style>
  </defs>
  <rect width="100%" height="100%" fill="#eaf3f8" />
  <rect x="40" y="40" width="1520" height="1020" rx="32" fill="#ffffff" opacity="0.54" />
  <path class="neighbor" d="M 445 397 L 445.8 551.1 L 446.6 705.1 L 404.5 666.4 L 356.5 656.8 L 344.8 670.3 L 285 671.8 L 305 633.3 L 334.8 620.2 L 322.5 568.8 L 299.8 529.1 L 208.1 489.1 L 169.1 485.1 L 98.2 441.4 L 84.2 464.4 L 66.1 468.6 L 55.3 451.2 L 55.2 430.7 L 19.1 407.5 L 70 390.4 L 103.7 391.4 L 99.7 378.8 L 30.5 378.7 L 11.8 350.6 L -30.4 341.9 L -50.4 318.5 L 13.3 307 L 37.5 291.6 L 113.4 311 L 120.9 328.6 L 134.1 405 L 183 433.3 L 222.5 383.2 L 276.7 354.7 L 318.8 354.6 L 359.2 371.1 L 394.3 388 L 445 397 Z M -312.8 694.5 L -308 703.8 L -307.2 718.2 L -338 753.5 L -378.5 763.9 L -384.1 758.2 L -379.9 742.1 L -359.6 713.3 L -312.8 694.5 Z M 124 600.1 L 119.4 564.5 L 127.8 547.5 L 137.7 531.5 L 148.5 545.4 L 148.3 567.9 L 124 600.1 Z M -647.8 78.5 L -674.7 121.2 L -640 166 L -648.1 187.7 L -595.1 231.5 L -651.1 237.1 L -666.9 269.3 L -664.9 312.1 L -710.3 344.5 L -711.6 391.5 L -729.8 463.8 L -736.7 447 L -790.4 468.3 L -809.2 439.4 L -842.9 436.7 L -866.5 421.6 L -922.7 438.6 L -939.9 415.7 L -970.9 418.3 L -1009.8 412.8 L -1017.1 349.4 L -1040.6 336.3 L -1063.3 295.9 L -1069.9 254.5 L -1064.4 210.7 L -1036.3 179.3 L -1028.4 210.9 L -996.1 237.6 L -965.6 228 L -935.4 231.4 L -907.9 207.5 L -885.2 203.3 L -840.5 216.6 L -802 206.5 L -777.7 140.8 L -759.5 124.3 L -743.1 70.6 L -688.8 70.6 L -647.8 78.5 Z M -104.7 406.6 L -52.7 420.4 L -35.5 456.5 L -75.4 437 L -114.9 433.1 L -141.6 436.2 L -174.3 434.5 L -163.1 408.6 L -104.7 406.6 Z M -222.7 453.3 L -255.4 444.7 L -264.6 424.3 L -216.8 422.1 L -205 437.6 L -222.7 453.3 Z M -172.7 171.3 L -169.3 197.2 L -141.4 201.3 L -137 220.6 L -139.5 261.9 L -163.9 257.3 L -171 286.1 L -151.6 311 L -164.8 316.7 L -183.9 286.7 L -197.9 226.3 L -188.4 188.5 L -172.7 171.3 Z M -409.3 232.8 L -355 230.8 L -308.2 196.5 L -300 207 L -338 253.9 L -373.5 263 L -419 253.8 L -497.8 256.1 L -539 262.9 L -545.8 298.7 L -503.5 340.7 L -477.9 319.3 L -389.8 303.2 L -393.7 325 L -414.3 318.1 L -434.8 345.8 L -476.4 364.2 L -431.7 424.7 L -440.3 441 L -397.8 495.5 L -398.2 526.6 L -423.4 540.5 L -442 523.9 L -419.1 485.2 L -465.5 503.5 L -477.3 490.4 L -471.2 472.1 L -505.2 444.4 L -501.7 398.3 L -533.3 412.7 L -529.3 467.8 L -527.3 535.5 L -557.3 542.3 L -577.6 528.4 L -564.1 484.9 L -571.4 439.3 L -591.3 439 L -606 406.6 L -586.4 375.6 L -579.7 338.1 L -555.9 266.8 L -546 247.4 L -505.8 212.2 L -468.9 226.2 L -409.3 232.8 Z M -533.8 759.1 L -596.5 725.9 L -552.4 716.7 L -527.6 731.1 L -511 745.4 L -513.9 758.2 L -533.8 759.1 Z M -484.3 677.7 L -452.8 674.1 L -410.4 656.8 L -417.4 683 L -488.4 696.4 L -551.3 690.6 L -551.4 673.3 L -513.9 663.5 L -484.3 677.7 Z M -629.9 669.4 L -600.7 665.6 L -589 685.7 L -643.6 695.2 L -676.4 701.5 L -701.8 701.1 L -685.6 673.9 L -659.6 673.5 L -647 656.8 L -629.9 669.4 Z M -1091.9 577.7 L -1085.5 594.5 L -994.9 599.2 L -984.5 579.8 L -896.8 602.5 L -879.6 633.1 L -808.7 641.7 L -750.7 669.8 L -804.6 687.8 L -856.6 668.8 L -899.4 670.1 L -948.5 666.6 L -992.7 658.1 L -1047.5 640 L -1082.2 635.4 L -1101.8 641.3 L -1188 621.8 L -1196.2 601.5 L -1239.5 598 L -1207.1 552.8 L -1149.7 555.6 L -1111.5 574.1 L -1091.9 577.7 Z M -1286.5 325.4 L -1278.5 358.4 L -1262.1 384.8 L -1227.4 388.9 L -1204.4 418.9 L -1216.2 477.7 L -1218.1 550.8 L -1270.5 551.8 L -1310.3 512.3 L -1371 473.6 L -1391.2 445 L -1427 406.5 L -1450.5 371.1 L -1486.4 304.9 L -1527.9 265.5 L -1541.8 224.8 L -1559.2 187.9 L -1601.9 158.2 L -1626.6 117.7 L -1662.2 91.2 L -1711.5 39.2 L -1715.6 15.1 L -1685.2 17 L -1612 26.1 L -1570.2 72.4 L -1533.7 104.4 L -1507.6 124.1 L -1462.8 174.9 L -1414.7 175.6 L -1375 208 L -1347.7 247.6 L -1311.7 269.2 L -1330.6 307.8 L -1303.5 324.2 L -1286.5 325.4 Z" />
<path class="neighbor" d="M 1443.3 769.7 L 1456.5 785.9 L 1423.5 785.6 L 1405.5 756.5 L 1433.8 768 L 1443.3 769.7 Z M 1422.6 727.9 L 1415.4 736.6 L 1380.4 695.7 L 1370.6 667.4 L 1386.6 667.4 L 1403.6 705.2 L 1422.6 727.9 Z M 1383.4 740.8 L 1365 741.9 L 1336 737.1 L 1326.1 729.8 L 1329.1 711.1 L 1360.3 718.5 L 1375.7 728.4 L 1383.4 740.8 Z M 1326.1 653.2 L 1337.2 668.2 L 1339.2 677.7 L 1302.2 657.7 L 1276.3 640.7 L 1258.6 625 L 1265.6 620.2 L 1287.4 631.5 L 1326.1 653.2 Z M 1207.9 606.1 L 1226.8 621.5 L 1217.4 624.2 L 1196.7 613.4 L 1177.3 594 L 1179.7 586.1 L 1207.9 606.1 Z" />
<path class="neighbor" d="M 761.2 2203.2 L 789.6 2206.4 L 792.9 2262.5 L 776.7 2278.8 L 771.8 2316.8 L 755.3 2303.8 L 722.5 2336.8 L 712.7 2334.2 L 683.6 2332.8 L 654.5 2292.3 L 648 2261.1 L 620.7 2219.9 L 622 2198.3 L 652.9 2202.4 L 698.6 2218.8 L 724.3 2212.3 L 761.2 2203.2 Z M -257 1797 L -307.2 1821.3 L -348.1 1832.2 L -357.2 1857 L -374.7 1876.2 L -414.8 1877.3 L -444.5 1881.5 L -486.3 1872.9 L -520.3 1878.1 L -552.7 1880.2 L -580.8 1905.4 L -594.6 1903.3 L -618.3 1916.7 L -641.1 1931.7 L -675.5 1929.8 L -707.2 1929.8 L -757.4 1899.6 L -782.8 1890.6 L -781.8 1863.5 L -758.3 1857.1 L -750.3 1846.3 L -751.9 1829.4 L -746.2 1796.5 L -751.5 1768.5 L -776.5 1720.7 L -784.2 1693.7 L -782.2 1666.8 L -801 1636 L -802.2 1622.1 L -823.1 1603.3 L -829 1566.3 L -856 1528.9 L -862.6 1508.7 L -841.8 1529.1 L -857.8 1485.3 L -834.3 1499 L -820.3 1517.3 L -821.1 1493.1 L -844.5 1455.9 L -849 1441 L -860 1426.8 L -854.9 1399.5 L -845.2 1387.9 L -838.7 1364.2 L -843.8 1336.6 L -824.2 1302.6 L -820.7 1338.6 L -800.7 1306 L -762.3 1290.2 L -739.3 1270.1 L -703.1 1252.7 L -681.7 1249 L -668.6 1254.9 L -631.4 1237.2 L -602.7 1232 L -595.6 1221.6 L -583 1217.3 L -556.9 1218.4 L -507.2 1204.6 L -481.5 1183.6 L -469.5 1158.4 L -441.7 1134.4 L -439.6 1115.5 L -438.4 1089.8 L -405.3 1049.6 L -385.4 1090.4 L -365.3 1081 L -382.1 1058.7 L -367.3 1035.7 L -346.4 1046 L -340.7 1010 L -314.8 986.8 L -303.4 968.1 L -279.7 960 L -278.9 946.8 L -258.2 952.3 L -257.3 940.5 L -236.5 933.7 L -213.7 927.3 L -178.8 949 L -152.5 977 L -122.9 977.3 L -92.9 981.8 L -102.9 955.8 L -80.3 917.9 L -58.9 905.6 L -66.3 893.7 L -45.8 866.7 L -17.2 850.1 L 7 855.7 L 46.7 846.8 L 45.9 822.6 L 11.3 807.1 L 36.4 800.2 L 67.7 811.9 L 92.9 831.3 L 132.7 843.4 L 146.2 838.6 L 175.5 853.1 L 203.1 839.6 L 220.8 843.7 L 231.9 834.6 L 253.6 858 L 241 883.3 L 223.1 902.4 L 206.8 904 L 212.3 922.9 L 198.4 946.5 L 181.6 969.7 L 185 983.1 L 222.6 1009.2 L 259 1024.4 L 283.3 1040.6 L 317.5 1068.6 L 330.8 1068.6 L 355.6 1080.7 L 362.8 1095.3 L 407.9 1111.3 L 439.1 1095.2 L 448.4 1069.8 L 457.9 1048.9 L 463.8 1022.9 L 478.2 985.3 L 471.6 962.5 L 475 948.7 L 469.6 921.7 L 475.8 886 L 484.8 876.4 L 477.5 860.7 L 488.9 835.6 L 497.9 809.6 L 499.1 796.1 L 516.6 778.4 L 530 801.6 L 533.2 831.2 L 545 836.9 L 547 856.8 L 564.2 880.8 L 567.8 907.6 L 566.1 924.8 L 583.1 961.8 L 613.5 944 L 629.1 964 L 651.8 982.5 L 646.9 1003.4 L 657 1044 L 664.2 1067.6 L 676.1 1073.3 L 688.9 1113.7 L 684.4 1138.3 L 699.7 1170.3 L 750.9 1195 L 784.3 1217.5 L 816 1238 L 809.8 1249.5 L 836.8 1279.1 L 855.2 1330.3 L 874.1 1319.9 L 893.3 1340.4 L 904.8 1333.1 L 913 1383.2 L 946.5 1412.2 L 968.4 1430.3 L 1005.4 1468.6 L 1018.7 1506.5 L 1019.9 1533.5 L 1016.6 1562.8 L 1039.2 1602.9 L 1036.5 1644.8 L 1028.3 1666.7 L 1015.5 1708.8 L 1016.5 1735.9 L 1007.1 1769.8 L 986.2 1812.8 L 951.2 1836 L 934 1872.7 L 918.2 1896 L 904.2 1936.8 L 885.9 1960.4 L 874 1995.8 L 867.9 2028.3 L 870.3 2043.3 L 843.2 2059.7 L 790.3 2061.4 L 746.7 2080.8 L 724.9 2099.1 L 696.4 2119.4 L 657.2 2098.5 L 628.3 2090.2 L 635.6 2065.5 L 609.8 2074.5 L 568.4 2108.7 L 527.5 2095.9 L 500.7 2088.4 L 473.7 2085 L 427.9 2071.3 L 397.3 2042.2 L 388.6 2006.3 L 377.6 1982.4 L 354.4 1963.3 L 308.9 1957.6 L 324.4 1934.6 L 313 1899.5 L 289.9 1932.3 L 247.8 1940.9 L 272.6 1914.8 L 279.7 1887.5 L 298 1864.4 L 294.2 1829.4 L 255.8 1869.7 L 226.2 1885.8 L 208.1 1923.4 L 171.2 1904 L 172.7 1878.9 L 143.1 1844.6 L 118.2 1826.9 L 127 1816 L 66.4 1787.3 L 33.2 1786 L -12.3 1763 L -96.9 1767.4 L -158.1 1784.4 L -211.9 1800.2 L -257 1797 Z" />

<path class="country" d="M 445 397 L 527 429.6 L 614.4 456.7 L 647 480.9 L 673.3 504.7 L 680.5 532.5 L 759.3 561.7 L 770.7 586.8 L 727.2 591.9 L 737.7 623.4 L 779.9 654.4 L 810.6 704.5 L 837.7 703 L 835.8 723.9 L 872.3 731.9 L 858.1 740.8 L 908.3 760.7 L 903.1 774.4 L 871.8 777.7 L 860.1 765.4 L 819.5 760.1 L 771.8 753 L 735 722.9 L 708.2 696.9 L 683.6 655.5 L 622 634.8 L 581.9 648.3 L 553.1 663.9 L 559.1 698.8 L 522 715 L 495.5 707.1 L 446.6 705.1 L 445.8 551.1 L 445 397 Z M 995.2 447.1 L 1013.2 462.3 L 1018.9 486.9 L 1004.1 499.4 L 995.2 471.5 L 984.2 453.3 L 962.8 437.8 L 935.9 417.6 L 901.7 403.7 L 914.9 392.3 L 940.4 405.5 L 956.5 415.9 L 976.3 427.3 L 995.2 447.1 Z M 931.9 550.2 L 906.1 561.7 L 881.8 572.8 L 856.7 572.7 L 818 559 L 791 545.8 L 794.9 531.2 L 837.3 538.1 L 863.1 534.4 L 870.3 511.7 L 877 510.6 L 881.6 535.6 L 908.6 532 L 921.9 515.9 L 948.3 499 L 943.1 471.2 L 971.4 470.3 L 981 478 L 980 504.2 L 964.2 533.1 L 939.4 537 L 931.9 550.2 Z M 1095.4 526.6 L 1109.8 537.3 L 1132.7 567.2 L 1155 583.3 L 1148.4 596.5 L 1135.1 601.2 L 1114.7 583.1 L 1094 553.1 L 1083.8 517.1 L 1090.4 512.5 L 1095.4 526.6 Z" />


<g class="city"><circle cx="737.7164084900196" cy="721.541041448412" r="5" /><text x="749.7164084900196" y="725.541041448412">Port Moresby</text></g>
<g class="city"><circle cx="430.8078044548677" cy="393.87107479449605" r="5" /><text x="442.8078044548677" y="397.87107479449605">Jayapura</text></g>
<g class="city"><circle cx="728.1454807352056" cy="592.4096940995375" r="5" /><text x="740.1454807352056" y="596.4096940995375">Lae</text></g>
<g class="city"><circle cx="1340.765926940885" cy="720.2782418887655" r="5" /><text x="1352.765926940885" y="724.2782418887655">Honiara</text></g>
<g class="city"><circle cx="597.0526200327513" cy="551.2949182593193" r="5" /><text x="609.0526200327513" y="555.2949182593193">Mt.  Hagen</text></g>
<g class="city"><circle cx="652.2965318009518" cy="561.6988096676678" r="5" /><text x="664.2965318009518" y="565.6988096676678">Goroka</text></g>
<g class="city"><circle cx="971.7520615349579" cy="472.9321407040263" r="5" /><text x="983.7520615349579" y="476.9321407040263">Rabaul</text></g>
<text class="map-title" x="80" y="105">Papua New Guinea Political Study Map</text>
<text class="map-subtitle" x="80" y="145">Capital: Port Moresby | Continent: Oceania</text>
  <text class="footer" x="80" y="1036">Made with Natural Earth. Free vector and raster map data @ naturalearthdata.com.</text>
</svg>
