<?xml version="1.0" encoding="UTF-8"?>
<svg xmlns="http://www.w3.org/2000/svg" width="1600" height="1100" viewBox="0 0 1600 1100" role="img" aria-labelledby="title desc">
  <title id="title">Philippines Physical Study Map</title>
  <desc id="desc">Made with Natural Earth. Free vector and raster map data @ naturalearthdata.com.</desc>
  <defs>
    <linearGradient id="terrain" x1="0" x2="1" y1="0" y2="1">
      <stop offset="0%" stop-color="#6c8c53" />
      <stop offset="42%" stop-color="#d5c487" />
      <stop offset="72%" stop-color="#b88b5f" />
      <stop offset="100%" stop-color="#f1f5ee" />
    </linearGradient>
    <filter id="softShadow" x="-10%" y="-10%" width="120%" height="120%">
      <feDropShadow dx="0" dy="10" stdDeviation="12" flood-color="#0f172a" flood-opacity="0.16" />
    </filter>
    <style>
      .neighbor { fill: #ffffff; stroke: #94a3b8; stroke-width: 1.2; opacity: 0.72; }
      .country { fill: url(#terrain); stroke: #1f2937; stroke-width: 4; filter: url(#softShadow); }
      .admin1 { fill: none; stroke: #64748b; stroke-width: 1.1; stroke-dasharray: 6 7; opacity: 0.75; }
      .river { fill: none; stroke: #1d9bd1; stroke-width: 3; stroke-linecap: round; opacity: 0.88; }
      .lake { fill: #8ed1ea; stroke: #0ea5e9; stroke-width: 1.5; opacity: 0.8; }
      .city circle { fill: #ef4444; stroke: #ffffff; stroke-width: 2; }
      .city text, .terrain-label { fill: #172033; font: 700 24px system-ui, sans-serif; paint-order: stroke; stroke: #ffffff; stroke-width: 5; stroke-linejoin: round; }
      .map-title { fill: #0f172a; font: 800 46px system-ui, sans-serif; }
      .map-subtitle { fill: #475569; font: 600 24px system-ui, sans-serif; }
      .footer { fill: #64748b; font: 500 18px system-ui, sans-serif; }
    </style>
  </defs>
  <rect width="100%" height="100%" fill="#d8edf0" />
  <rect x="40" y="40" width="1520" height="1020" rx="32" fill="#ffffff" opacity="0.54" />
  <path class="neighbor" d="M 1481.4 1106.2 L 1482 1222.2 L 1482.6 1338.2 L 1450.9 1309 L 1414.7 1301.8 L 1406 1311.9 L 1360.9 1313 L 1376 1284.1 L 1398.4 1274.2 L 1389.1 1235.5 L 1372 1205.6 L 1303 1175.5 L 1273.7 1172.5 L 1220.2 1139.6 L 1209.7 1156.9 L 1196.1 1160 L 1188 1147 L 1187.9 1131.5 L 1160.7 1114 L 1199 1101.2 L 1224.4 1101.9 L 1221.4 1092.5 L 1169.3 1092.4 L 1155.2 1071.2 L 1123.4 1064.6 L 1108.4 1047 L 1156.3 1038.4 L 1174.6 1026.8 L 1231.7 1041.4 L 1237.3 1054.6 L 1247.3 1112.2 L 1284.1 1133.5 L 1313.9 1095.8 L 1354.7 1074.3 L 1386.3 1074.2 L 1416.8 1086.6 L 1443.2 1099.4 L 1481.4 1106.2 Z M 910.8 1330.2 L 914.4 1337.2 L 915.1 1348 L 891.8 1374.5 L 861.4 1382.4 L 857.1 1378.1 L 860.3 1366 L 875.6 1344.3 L 910.8 1330.2 Z M 1239.7 1259.1 L 1236.2 1232.3 L 1242.6 1219.5 L 1250 1207.4 L 1258.1 1217.9 L 1258 1234.8 L 1239.7 1259.1 Z M 658.6 866.4 L 638.3 898.5 L 664.5 932.2 L 658.3 948.6 L 698.2 981.5 L 656.1 985.7 L 644.2 1010 L 645.7 1042.2 L 611.5 1066.6 L 610.6 1102 L 596.8 1156.5 L 591.6 1143.8 L 551.2 1159.8 L 537.1 1138.1 L 511.7 1136 L 493.9 1124.6 L 451.6 1137.4 L 438.6 1120.2 L 415.3 1122.2 L 386 1118.1 L 380.6 1070.3 L 362.8 1060.4 L 345.7 1030 L 340.7 998.9 L 344.9 965.9 L 366 942.2 L 372 966 L 396.3 986.1 L 419.3 978.9 L 442 981.4 L 462.7 963.5 L 479.8 960.3 L 513.5 970.3 L 542.5 962.7 L 560.8 913.2 L 574.5 900.8 L 586.8 860.4 L 627.7 860.4 L 658.6 866.4 Z M 1067.5 1113.4 L 1106.6 1123.8 L 1119.6 1151 L 1089.5 1136.3 L 1059.8 1133.3 L 1039.7 1135.7 L 1015.1 1134.4 L 1023.5 1114.9 L 1067.5 1113.4 Z M 978.6 1148.6 L 954 1142 L 947.1 1126.7 L 983.1 1125 L 992 1136.8 L 978.6 1148.6 Z M 1016.3 936.2 L 1018.8 955.7 L 1039.8 958.8 L 1043.2 973.3 L 1041.3 1004.4 L 1023 1001 L 1017.5 1022.6 L 1032.2 1041.4 L 1022.2 1045.7 L 1007.9 1023.1 L 997.3 977.6 L 1004.5 949.2 L 1016.3 936.2 Z M 838.1 982.5 L 879.1 981 L 914.3 955.2 L 920.5 963.1 L 891.9 998.4 L 865.1 1005.3 L 830.9 998.3 L 771.6 1000.1 L 740.5 1005.2 L 735.4 1032.1 L 767.3 1063.8 L 786.5 1047.7 L 852.8 1035.6 L 849.9 1051.9 L 834.4 1046.8 L 819 1067.6 L 787.6 1081.4 L 821.3 1127 L 814.8 1139.3 L 846.8 1180.3 L 846.5 1203.7 L 827.5 1214.2 L 813.5 1201.7 L 830.7 1172.5 L 795.8 1186.3 L 787 1176.5 L 791.6 1162.7 L 765.9 1141.8 L 768.6 1107.2 L 744.8 1118 L 747.8 1159.5 L 749.3 1210.4 L 726.7 1215.6 L 711.4 1205.1 L 721.6 1172.4 L 716.1 1138 L 701.1 1137.7 L 690.1 1113.4 L 704.8 1090.1 L 709.9 1061.8 L 727.8 1008.1 L 735.2 993.5 L 765.5 967 L 793.3 977.6 L 838.1 982.5 Z M 744.4 1378.8 L 697.2 1353.8 L 730.4 1346.8 L 749.1 1357.7 L 761.5 1368.5 L 759.4 1378.1 L 744.4 1378.8 Z M 781.7 1317.5 L 805.4 1314.8 L 837.3 1301.7 L 832.1 1321.5 L 778.6 1331.6 L 731.3 1327.2 L 731.1 1314.2 L 759.4 1306.8 L 781.7 1317.5 Z M 672 1311.3 L 694 1308.4 L 702.9 1323.5 L 661.7 1330.6 L 637.1 1335.4 L 617.9 1335.1 L 630.2 1314.6 L 649.7 1314.4 L 659.2 1301.8 L 672 1311.3 Z M 324.2 1242.2 L 329 1254.9 L 397.2 1258.4 L 405.1 1243.7 L 471.1 1260.9 L 484 1283.9 L 537.4 1290.4 L 581.1 1311.6 L 540.5 1325.1 L 501.3 1310.8 L 469.1 1311.8 L 432.2 1309.1 L 398.9 1302.7 L 357.7 1289.1 L 331.5 1285.6 L 316.7 1290.1 L 251.8 1275.4 L 245.6 1260.1 L 213.1 1257.5 L 237.5 1223.5 L 280.7 1225.6 L 309.4 1239.5 L 324.2 1242.2 Z M 177.6 1052.3 L 183.7 1077.1 L 196.1 1096.9 L 222.2 1100.1 L 239.5 1122.6 L 230.6 1166.9 L 229.2 1221.9 L 189.8 1222.7 L 159.8 1192.9 L 114.1 1163.8 L 98.8 1142.3 L 71.9 1113.3 L 54.2 1086.6 L 27.2 1036.8 L -4.1 1007.1 L -14.6 976.5 L -27.7 948.7 L -59.8 926.3 L -78.4 895.9 L -105.2 875.9 L -142.3 836.7 L -145.4 818.6 L -122.5 820 L -67.4 826.9 L -35.9 861.7 L -8.4 885.9 L 11.2 900.7 L 44.9 938.9 L 81.1 939.5 L 111 963.9 L 131.6 993.7 L 158.7 1009.9 L 144.5 1039 L 164.9 1051.3 L 177.6 1052.3 Z" />
<path class="neighbor" d="M 359.3 365.9 L 330.2 354.9 L 329.1 324.3 L 346.7 308.2 L 385.6 298.2 L 406 299 L 414 312.6 L 398.3 328.3 L 390.1 348.8 L 359.3 365.9 Z M -680.5 -493.7 L -683.3 -514 L -658.9 -523.2 L -690.9 -585.1 L -620.4 -599.3 L -602.2 -607.2 L -576.5 -670.9 L -505.9 -659.2 L -486.1 -675.3 L -484.4 -711 L -454.9 -714.3 L -427.8 -738 L -413.9 -741 L -404.5 -716.1 L -374.6 -697.2 L -323.8 -683.9 L -299.3 -655.2 L -313 -613.6 L -300.2 -598.2 L -257.9 -592.1 L -209.9 -587.1 L -166.9 -565 L -144.9 -561 L -128.7 -528.2 L -107.8 -507.1 L -68.6 -507.9 L 4.9 -499.9 L 52.2 -504.9 L 87.3 -499.6 L 140 -477.9 L 183.1 -478 L 198.8 -466.9 L 240.3 -486 L 297.8 -498.4 L 351.1 -499.7 L 392.7 -512.2 L 418.2 -531.3 L 443.1 -543.3 L 437.4 -555 L 426 -568.7 L 444.7 -591.6 L 464.7 -588.4 L 501.3 -581.2 L 536.8 -600.1 L 591 -613.9 L 617.1 -637.4 L 642.2 -647.5 L 693.9 -652.3 L 722 -648.3 L 725.9 -660.9 L 693.6 -685.8 L 665 -697.2 L 637.7 -684 L 602.6 -689.6 L 582.4 -685 L 573.3 -699.6 L 598.4 -735.2 L 615.7 -762 L 658.5 -748.6 L 708.6 -771 L 708.3 -786.7 L 740.4 -824.5 L 760.2 -835.9 L 759.8 -855.5 L 740.2 -864 L 769.6 -881.7 L 813.9 -888.1 L 861.1 -889.1 L 914.3 -878.5 L 945.6 -865.4 L 967.6 -829.5 L 980.9 -814.2 L 993.3 -792.3 L 1006.5 -757.4 L 1068.4 -746.1 L 1110.6 -720.8 L 1125 -687.3 L 1179.1 -687.3 L 1209.9 -701.3 L 1268.8 -711.8 L 1250.1 -679.8 L 1236.2 -666.8 L 1224 -627.8 L 1200.1 -593.1 L 1156.9 -599.4 L 1126.4 -586.9 L 1135.7 -556.4 L 1130.6 -514.3 L 1112.4 -513.4 L 1112.6 -495.3 L 1089.7 -516.3 L 1075.5 -496.4 L 1020.5 -481 L 1026.1 -462.2 L 995.3 -463.5 L 978.4 -474.7 L 954 -449.5 L 914.8 -430.3 L 885.8 -407.5 L 836 -397.2 L 809.8 -380.5 L 771.5 -370.8 L 790.4 -387.3 L 782.9 -401.2 L 811.1 -425.1 L 792.3 -443.7 L 761.3 -431.2 L 721.1 -406.4 L 699.2 -383.4 L 664.3 -381.7 L 646.1 -365.1 L 664.9 -341 L 694 -335.2 L 695.2 -319.2 L 723.4 -308.8 L 763.3 -334.2 L 794.9 -320.4 L 817.9 -319.4 L 823.6 -300.8 L 773.2 -290.9 L 756.6 -271.6 L 722 -253.8 L 703.7 -228.9 L 742 -209.3 L 756 -174.3 L 777.7 -141.7 L 801.9 -114.4 L 801.3 -87.9 L 778.9 -78.2 L 787.5 -59.2 L 808.4 -48.2 L 802.9 -19.2 L 793.9 9 L 774 12.2 L 748 50.8 L 719.2 97.5 L 686.1 139.9 L 637.2 172.8 L 587.7 202.7 L 547.6 206.8 L 525.8 222.6 L 513.5 211.1 L 493.4 228.8 L 443.6 246.6 L 406 252.1 L 393.8 289.7 L 374.1 291.7 L 364.8 265.9 L 373.2 252.1 L 325.4 240.7 L 308.6 246.5 L 272.8 237.3 L 255.8 222.8 L 261.5 202.3 L 228.9 195.8 L 211.8 182.5 L 181.4 201.5 L 146.8 205.6 L 118.5 205.4 L 99.4 214.1 L 80.9 219.3 L 86.3 260 L 67.3 259 L 64.1 250.7 L 63 236 L 36.9 246.3 L 21.5 239.8 L -4.9 226.4 L 5.4 196.8 L -17.1 189.9 L -25.6 157.2 L -63.1 163.1 L -58.9 120.9 L -25.2 91.1 L -23.7 61.8 L -24.8 34.5 L -40.3 26.1 L -52.2 5.1 L -73 7.8 L -111.4 2.4 L -99.4 -12.5 L -116.1 -34.6 L -141.4 -19.7 L -171.3 -28.4 L -212.3 -5.7 L -244.7 20.7 L -273.4 25.2 L -289 15.6 L -307.8 14.7 L -333.3 6.5 L -352.5 15.5 L -376 42 L -379 14 L -400.7 21.5 L -442.2 18 L -482.5 9.8 L -511.4 -5.8 L -539 -12.8 L -551 -29.9 L -571 -35 L -606.9 -58.2 L -635.4 -69.2 L -650.2 -60.7 L -699.7 -85.5 L -734.6 -108.1 L -744.6 -147.3 L -719.1 -142.5 L -717.9 -160.7 L -732.1 -178.9 L -728.5 -207.9 L -766.7 -249.7 L -825.2 -264.1 L -835.8 -291.4 L -862.1 -308 L -868.4 -318.2 L -873.7 -338.5 L -872.5 -352.3 L -894.1 -360.4 L -905.8 -356.9 L -914.8 -389.8 L -904.7 -397.9 L -909.6 -406.3 L -875.6 -423.1 L -851 -430 L -813.4 -425.3 L -799.9 -448 L -754.3 -452.2 L -741.6 -466.4 L -685.5 -485.6 L -680.5 -493.7 Z" />
<path class="neighbor" d="M 797.2 145.4 L 775.8 202.5 L 760.5 231.7 L 741.8 201.6 L 737.7 175.2 L 758.7 140.3 L 787.2 113.3 L 803.4 123.9 L 797.2 145.4 Z" />
<path class="neighbor" d="M 25.2 783.6 L 31.3 777.2 L 60.4 792.8 L 63.2 811.1 L 86.7 806.8 L 98.3 792.2 L 106.5 795.5 L 127.5 817 L 142.4 840.8 L 144.5 864.8 L 140.7 881 L 144.2 893.2 L 146.8 914.3 L 159.3 924.1 L 173.3 955.6 L 172.6 967.6 L 147.4 970 L 113.7 943.6 L 71.6 915.4 L 67.4 897.2 L 46.9 873.4 L 41.9 844 L 29.1 824.6 L 33 798.6 L 25.2 783.6 Z M 658.6 866.4 L 627.7 860.4 L 586.8 860.4 L 574.5 900.8 L 560.8 913.2 L 542.5 962.7 L 513.5 970.3 L 479.8 960.3 L 462.7 963.5 L 442 981.4 L 419.3 978.9 L 396.3 986.1 L 372 966 L 366 942.2 L 392.1 954.4 L 419.6 947.8 L 426.8 917.6 L 442 910.9 L 484.6 903.2 L 510.2 875.1 L 527.7 852.6 L 543.9 871 L 551.3 858.9 L 568.4 860 L 570.4 837.3 L 572 819.7 L 599.4 795 L 617.4 767.2 L 631.8 767.1 L 650.1 785.1 L 651.7 800.5 L 675.1 810.5 L 704.8 821.2 L 702.3 835.1 L 678.4 836.9 L 684.8 854.3 L 658.6 866.4 Z" />
<path class="neighbor" d="M 572 819.7 L 570.4 837.3 L 568.4 860 L 551.3 858.9 L 543.9 871 L 527.7 852.6 L 541.7 839.2 L 572 819.7 Z" />

<path class="country" d="M 763.6 561.5 L 745.5 534.3 L 775.9 535.6 L 788.3 548.5 L 778.9 579.2 L 763.6 561.5 Z M 826 658.4 L 834.9 648.4 L 838.9 626.3 L 858.5 624.2 L 852.7 648.2 L 879.1 613.8 L 875.7 647.8 L 862.9 659.5 L 851.8 682 L 840.6 692.5 L 818.7 667.9 L 826 658.4 Z M 960.9 714.1 L 964.5 737.8 L 966.6 757.8 L 954.5 790.3 L 941.5 754 L 924.9 772.1 L 936.2 798.3 L 926 815 L 884.1 794.3 L 874.1 768.6 L 885 751.7 L 862.4 734.8 L 851.3 749.6 L 834.5 748.2 L 808.2 768.1 L 802.3 757.7 L 816.2 727.7 L 838.7 717.6 L 858.1 704.2 L 870.7 720.3 L 897.7 710.6 L 903.5 694.7 L 928.7 693.8 L 926.6 666.2 L 955.4 683.1 L 958.4 701.1 L 960.9 714.1 Z M 680.7 682.1 L 633.4 715.8 L 650.8 690.9 L 676.5 668.9 L 697.9 644.3 L 716.6 609 L 722.9 638 L 699.4 657.6 L 680.7 682.1 Z M 817.1 365 L 811.3 379.7 L 823.5 405.2 L 814.1 434.8 L 793.1 446.6 L 787.5 475.3 L 795.5 503.7 L 814.3 507.6 L 830.1 503.4 L 874.5 523.1 L 871.2 542.5 L 882.8 551 L 879.1 567.4 L 851.3 550 L 838.2 531.3 L 829 544.3 L 806.4 523 L 774 528.3 L 756.3 520.4 L 758.1 505.7 L 769.2 496.7 L 758.6 488.4 L 754 501.2 L 736.5 480.8 L 731.1 465.3 L 729.8 431.2 L 744.1 442.9 L 747.8 387.3 L 759.4 355 L 781 355 L 802.9 365.2 L 813.9 355.9 L 817.1 365 Z M 806.5 607.3 L 801 590.4 L 822.4 601.4 L 845 601.4 L 844.3 616.2 L 827.8 631.3 L 805.2 642 L 804 625.5 L 806.5 607.3 Z M 929.8 580.7 L 939.8 620.5 L 912.3 611 L 913.1 623 L 921.8 645 L 904.9 652.9 L 903.4 627.9 L 892.7 626 L 887.1 604.5 L 908 607.3 L 907.6 593.9 L 885.8 566.7 L 920 567.5 L 929.8 580.7 Z" />

<path class="river" d="M 550.2 993.5 L 551.4 997.3 L 550.7 998.8 L 548.6 999.3 L 546.6 1001 L 543.8 1005.5 L 543.9 1007.1 L 543.1 1008 L 541.5 1008.6 L 539 1008.5 L 535.5 1007.7 L 532.8 1007.4 L 530.9 1007.7 L 529.6 1008.6 L 528.9 1009.9 L 528.2 1010.3 L 527.2 1012.2 L 528.3 1013.8 L 530.2 1015.2 L 529.2 1017.5 L 525.3 1020.7 L 523.2 1023.9 L 522.8 1027.1 L 525.4 1031.5 L 530.9 1037.3 L 535.6 1039.9 L 539.4 1039.3 L 541.2 1038.1 L 541.3 1036.5 L 543.1 1035.6 L 546.8 1035.7 L 549.7 1037.2 L 552 1040.2 L 553.2 1043 L 553.5 1045.5 L 552.6 1047.3 L 550.5 1048.4 L 550.2 1050.1 L 551.5 1052.6 L 551.1 1055 L 549.1 1057.5 L 549.1 1059.2 L 551.2 1060.3 L 551.9 1063 L 551 1069.4 L 548.7 1076.7 L 548.6 1079.2 L 549.7 1079.5 L 550.7 1081 L 551.6 1083.5 L 551.6 1086.1 L 550.6 1089 L 550.7 1092.7 L 552 1097.4 L 551.2 1102.8 L 548.1 1108.9 L 547.1 1113.4 L 548.2 1116.2 L 548.4 1118.5 L 547.7 1120.3 L 545.9 1122.3 L 543 1124.3 L 541.2 1127.2 L 539.1 1133.8" />
<path class="river" d="M 535.1 134.3 L 537.5 134.2 L 539.3 133.3 L 542.2 130.4 L 546.4 128 L 547.5 125.5 L 547 122 L 548.2 119.8 L 551.2 119 L 552.4 116.9 L 551.9 113.5 L 553.5 108.5 L 557.1 102 L 559.2 97.3 L 559.6 94.4 L 558.4 93.1 L 555.7 93.2 L 553.8 92.5 L 552.9 90.7 L 552.7 88.5 L 553.8 84.5 L 552.6 83.8 L 552.7 82.8 L 553.8 81.3 L 554.1 79.8 L 553.5 78.2 L 551.1 75.1 L 546.7 70.6 L 545.9 66.4 L 548.8 62.5 L 551.7 60.2 L 554.6 59.3 L 555.8 58 L 555.3 56.3 L 555.6 54.7 L 556.7 53.2 L 556.7 51.5 L 555.6 49.7 L 556.3 47.7 L 558.7 45.6 L 559.5 42.5 L 558.7 38.6 L 560.6 34.4 L 565.4 30.1 L 569.1 24.7 L 571.8 18.3 L 576.5 13.1 L 583.2 9.3 L 586.2 5.8 L 585.1 1 L 585 -3.8 L 586.9 -8.4 L 590.7 -14.5 L 592.1 -20.3 L 590.9 -28.5" />
<path class="river" d="M 501.4 970.9 L 493.1 979.3 L 483.2 983.2 L 477.5 984.3 L 472.7 983.9 L 468.3 985.1 L 464.2 987.7 L 458.2 989.7 L 450.2 991 L 447.4 992.3 L 447.3 994.2 L 446.2 995.8 L 443.5 997.2 L 442.8 998.3 L 443 999.1 L 442.2 1000.3 L 439.8 1001.9 L 437.8 1002.2 L 436.6 1002.6 L 436.1 1003.9 L 435.6 1005 L 434.2 1005 L 433.4 1005.8 L 432.9 1008 L 431.4 1010 L 430.2 1010.1 L 428 1009.9 L 426.7 1010.5 L 425.3 1010.1 L 424.4 1010 L 423.6 1010.7 L 423 1010.5 L 421.9 1009.9 L 421 1010.5 L 419.2 1010.8 L 416.4 1010.4 L 414.5 1010.7 L 413.5 1011.9 L 411.2 1012.8 L 407.7 1013.4 L 405.5 1012.6 L 404.1 1012 L 402.8 1012.5 L 401.3 1012.1 L 399.9 1011.5 L 398.7 1011.5 L 398.2 1012.4 L 397.4 1012.9 L 396.4 1012.8 L 395.3 1013.7 L 394.6 1015 L 392.9 1016 L 390 1016.5 L 384.3 1015.6 L 381.5 1016.1 L 378.3 1017 L 376.1 1020.2 L 371.3 1023.2 L 363.6 1026 L 361 1026.2 L 358.5 1025.6 L 356.8 1024.5 L 354.4 1023.1 L 350.2 1021.8 L 347.8 1020.2" />
<path class="river" d="M 547.5 951 L 551.6 946.5 L 554.4 944.9 L 559 944.3 L 565.3 942 L 568.8 941.4 L 571.7 941.5 L 573.4 942.1 L 574.1 943.3 L 575.6 943.6 L 578 942.9 L 580.7 940.3 L 583.8 935.8 L 586.1 935.2 L 587.5 938.5 L 590.1 940.1 L 593.8 939.9 L 596.6 937.3 L 598.5 932.3 L 603.2 925.9 L 610.7 918.1 L 614.9 914 L 616 913.8 L 617.2 914.6 L 618.5 916.5 L 620.5 916.2 L 623.1 914 L 626.5 913.6 L 630.7 915.2 L 633.2 915.6 L 634 914.7 L 635.3 914.5 L 637.3 914.8 L 639.3 913.7 L 641.5 911 L 643.6 909.6 L 645.4 909.4 L 647.4 909.4" />
<path class="river" d="M 486.1 202.3 L 488.2 204.6 L 490.7 210.1 L 492.4 213.4 L 494.2 217.7 L 499.6 224.3 M 486.1 202.3 L 495.4 205.8 L 498.9 207.5 L 500.6 209.3 L 502.3 209.6 L 504.5 209.7 M 484.1 193.6 L 500.7 193.1 M 477.9 189.8 L 478.4 192.1 L 480.9 197.9 L 483.5 201.3 L 486.1 202.3 M 477.9 189.8 L 481.7 191 L 483.9 193.2 L 485.7 196.7 L 488 198.3 L 492.4 198.2 L 496.8 199 M 424.3 177.9 L 429 179 L 431.4 181.7 L 432.9 186.2 L 438.8 189.3 L 454.1 191.8 L 458.9 190 L 461.8 190.3 L 464.4 192.3 L 466.9 192.3 L 469.3 190.2 L 472.1 189.1 L 475.4 189.2 L 477.9 189.8" />
<g class="city"><circle cx="768.8363409671636" cy="493.77785776538695" r="5" /><text x="780.8363409671636" y="497.77785776538695">Manila</text></g>
<g class="city"><circle cx="494.119378463264" cy="190.58253400745772" r="5" /><text x="506.119378463264" y="194.58253400745772">Guangzhou</text></g>
<g class="city"><circle cx="522.5705829611123" cy="211.1058520805583" r="5" /><text x="534.5705829611123" y="215.1058520805583">Shenzhen</text></g>
<g class="city"><circle cx="526.9096132967054" cy="219.68959374272686" r="5" /><text x="538.9096132967054" y="223.68959374272686">Hong Kong</text></g>
<g class="city"><circle cx="511.51283589637546" cy="194.25513825820425" r="5" /><text x="523.5128358963755" y="198.25513825820425">Dongguan</text></g>
<g class="city"><circle cx="743.4353776288619" cy="208.07305103966024" r="5" /><text x="755.4353776288619" y="212.07305103966024">Kaohsiung</text></g>
<g class="city"><circle cx="758.2084038469156" cy="154.0168338153224" r="5" /><text x="770.2084038469156" y="158.0168338153224">Taichung</text></g>
<g class="city"><circle cx="665.5410096575233" cy="143.34419304400805" r="5" /><text x="677.5410096575233" y="147.34419304400805">Xiamen</text></g>
<text class="map-title" x="80" y="105">Philippines Physical Study Map</text>
<text class="map-subtitle" x="80" y="145">Landmark: Chocolate Hills | Study terrain and water systems</text>
  <text class="footer" x="80" y="1036">Made with Natural Earth. Free vector and raster map data @ naturalearthdata.com.</text>
</svg>
