<?xml version="1.0" encoding="UTF-8"?>
<svg xmlns="http://www.w3.org/2000/svg" width="1600" height="1100" viewBox="0 0 1600 1100" role="img" aria-labelledby="title desc">
  <title id="title">Pakistan Political Study Map</title>
  <desc id="desc">Made with Natural Earth. Free vector and raster map data @ naturalearthdata.com.</desc>
  <defs>
    <linearGradient id="terrain" x1="0" x2="1" y1="0" y2="1">
      <stop offset="0%" stop-color="#6c8c53" />
      <stop offset="42%" stop-color="#d5c487" />
      <stop offset="72%" stop-color="#b88b5f" />
      <stop offset="100%" stop-color="#f1f5ee" />
    </linearGradient>
    <filter id="softShadow" x="-10%" y="-10%" width="120%" height="120%">
      <feDropShadow dx="0" dy="10" stdDeviation="12" flood-color="#0f172a" flood-opacity="0.16" />
    </filter>
    <style>
      .neighbor { fill: #ffffff; stroke: #94a3b8; stroke-width: 1.2; opacity: 0.72; }
      .country { fill: #f7f1df; stroke: #1f2937; stroke-width: 4; filter: url(#softShadow); }
      .admin1 { fill: none; stroke: #64748b; stroke-width: 1.1; stroke-dasharray: 6 7; opacity: 0.75; }
      .river { fill: none; stroke: #1d9bd1; stroke-width: 3; stroke-linecap: round; opacity: 0.88; }
      .lake { fill: #8ed1ea; stroke: #0ea5e9; stroke-width: 1.5; opacity: 0.8; }
      .city circle { fill: #ef4444; stroke: #ffffff; stroke-width: 2; }
      .city text, .terrain-label { fill: #172033; font: 700 24px system-ui, sans-serif; paint-order: stroke; stroke: #ffffff; stroke-width: 5; stroke-linejoin: round; }
      .map-title { fill: #0f172a; font: 800 46px system-ui, sans-serif; }
      .map-subtitle { fill: #475569; font: 600 24px system-ui, sans-serif; }
      .footer { fill: #64748b; font: 500 18px system-ui, sans-serif; }
    </style>
  </defs>
  <rect width="100%" height="100%" fill="#eaf3f8" />
  <rect x="40" y="40" width="1520" height="1020" rx="32" fill="#ffffff" opacity="0.54" />
  <path class="neighbor" d="M 1416.2 -58.5 L 1390.1 -35.7 L 1361.7 -32.5 L 1360.1 1.8 L 1341 17.3 L 1273.1 6 L 1248.4 67.3 L 1230.9 74.9 L 1163.1 88.6 L 1193.9 148 L 1170.4 156.9 L 1173.2 176.5 L 1152.1 171.4 L 1134.9 159.1 L 1084.1 155.6 L 1027.4 154.6 L 1015 158.4 L 966.2 144 L 946.8 151.1 L 941.5 171.3 L 885.2 159.5 L 862.6 164.3 L 855 179.3 L 835.4 185.7 L 790.2 209.5 L 775.2 234 L 762.5 234.2 L 753.1 218 L 709.6 216.9 L 702.6 188.9 L 686 188.6 L 688.5 154.3 L 647.5 129.3 L 588.8 132 L 548.7 136.9 L 516 106.1 L 488 93.2 L 435 68.7 L 428.6 65.7 L 340.5 85.9 L 341.8 212.1 L 324.3 213.8 L 300.3 186.9 L 277.2 177.3 L 238.3 184.5 L 223.2 195.9 L 221.3 187.5 L 229.7 173.2 L 223.2 161.3 L 183.5 149.7 L 168.1 118.9 L 149.2 110.3 L 148 99.1 L 181.3 102.4 L 182.6 77.3 L 211.8 71.8 L 241.6 76.9 L 247.8 43.5 L 241.7 22.3 L 207.5 24 L 178.4 15.7 L 138.7 30.7 L 106.8 37.9 L 89.4 32.3 L 92.9 14.7 L 71.1 -8.1 L 45.7 -7.2 L 16.6 -30.4 L 36.4 -56.3 L 26.4 -63.3 L 53.7 -100.9 L 88.9 -81.1 L 93.2 -106.1 L 163.8 -143.3 L 217.3 -144.2 L 292.7 -120.5 L 333.2 -106.6 L 369.5 -121.1 L 423.8 -121.8 L 467.6 -104 L 477.5 -114.2 L 525.6 -112.7 L 534.2 -128.9 L 478.7 -152.4 L 511.5 -169.1 L 505.1 -178.4 L 538 -187.3 L 513.3 -210.8 L 529 -222.5 L 657 -234.4 L 673.8 -242.8 L 759.4 -255.5 L 790.2 -269.7 L 851.7 -262.3 L 862.4 -226.8 L 898.2 -235.1 L 942.1 -223.5 L 939.3 -204.8 L 972.1 -206.7 L 1057.9 -239 L 1045.4 -228.3 L 1089 -201.9 L 1165.5 -114.9 L 1183.7 -132.9 L 1230.9 -113.1 L 1280.1 -121.9 L 1299 -115.8 L 1315.4 -96 L 1339.4 -89.4 L 1353.9 -74.8 L 1398 -79.4 L 1416.2 -58.5 Z" />
<path class="neighbor" d="M 341.8 212.1 L 340.5 85.9 L 428.6 65.7 L 435 68.7 L 488 93.2 L 516 106.1 L 548.7 136.9 L 588.8 132 L 647.5 129.3 L 688.5 154.3 L 686 188.6 L 702.6 188.9 L 709.6 216.9 L 753.1 218 L 762.5 234.2 L 775.2 234 L 790.2 209.5 L 835.4 185.7 L 855 179.3 L 865.1 182.7 L 836.4 204.9 L 861.7 217.7 L 886 209.2 L 926.6 227.2 L 882.8 251.9 L 856.8 248.5 L 842.6 249.4 L 837.7 239.9 L 844.9 224 L 799.1 232 L 788.2 253.9 L 772 272.8 L 743.4 271.2 L 734.5 286.3 L 759.6 294.5 L 767 320 L 747.8 354.6 L 722 347.4 L 702.9 347.1 L 703.8 326.2 L 658.3 311.5 L 622.5 294.8 L 600.2 278.7 L 561.1 255 L 544.2 219.8 L 532.8 213.5 L 495.8 215.1 L 482.7 208.1 L 479 180.8 L 432.9 162.7 L 404.1 182.6 L 374.8 194.4 L 380.4 211.6 L 341.8 212.1 Z" />
<path class="neighbor" d="M 4543 -807.4 L 4586.6 -821.7 L 4586.6 -798.3 L 4549.1 -796.6 L 4543 -807.4 Z M 106.8 37.9 L 91.2 58.2 L 58 63.8 L 24 99.1 L 55.1 131.6 L 51.8 154.7 L 89.1 195 L 89.1 195 L 68.7 208.8 L 62.8 217.5 L 47.7 215.1 L 24.2 194.4 L 14.5 193.2 L -7 185.3 L -17.4 171.2 L -49.4 164.1 L -70.1 169.4 L -76.1 163.1 L -122.7 146.7 L -173.1 141.1 L -202 135.3 L -206.2 139.3 L -249.8 110.4 L -288.9 97.5 L -318.4 77.4 L -293.5 71.9 L -265.1 43.3 L -284.3 29.8 L -233.8 15.8 L -234.7 8.3 L -265.5 13.8 L -264.4 -1.4 L -246.7 -10.9 L -213.6 -13.4 L -208.2 -24.9 L -215.8 -43.7 L -201.9 -61.7 L -202.3 -71.7 L -252.7 -82.8 L -272.7 -82.5 L -293.9 -98.5 L -320.1 -93.1 L -363.6 -105.1 L -362.8 -111.8 L -375 -126.7 L -402.3 -128.3 L -405.1 -139 L -396.6 -145.9 L -418.5 -165.3 L -454 -162 L -464.3 -163.7 L -473 -155.9 L -485.8 -157.3 L -485.8 -157.3 L -494.2 -179.2 L -502.2 -190.6 L -495.6 -193.8 L -468 -192.6 L -454.7 -200 L -464.6 -209.2 L -487.6 -215.2 L -485.6 -221.4 L -499.5 -227.6 L -521 -250 L -513.6 -259.3 L -517 -275.3 L -550.4 -283.5 L -568.4 -279.4 L -573.3 -287.9 L -609.3 -296.5 L -620.3 -316.7 L -623.2 -333.3 L -639.7 -341.2 L -625 -352 L -635.2 -383.9 L -610.8 -403.7 L -616 -409.6 L -616 -409.6 L -577.1 -428.5 L -612.9 -444.8 L -612.9 -444.8 L -539.7 -488.5 L -507.9 -508.3 L -495 -525.7 L -545.7 -549.2 L -531.7 -571.5 L -562.5 -596.9 L -539.4 -626.3 L -579.2 -665.2 L -547.7 -691 L -600.1 -713.9 L -595.1 -737.8 L -567.4 -741 L -509.2 -754.7 L -509.2 -754.7 L -473.9 -766.6 L -417.7 -745.9 L -324 -737.8 L -194.7 -699.1 L -168.4 -682.8 L -166.1 -660 L -204.1 -642 L -260 -632.9 L -412.8 -658.9 L -437.9 -654.6 L -382.1 -629.5 L -379.9 -613.6 L -377.7 -578.7 L -333.6 -568.2 L -306.9 -559.3 L -302.5 -575.9 L -323.1 -590.6 L -301.3 -603.6 L -218.6 -582.3 L -189.8 -590.6 L -212.8 -615.7 L -133 -649.2 L -101.4 -647.3 L -69.5 -635.3 L -49.5 -658.8 L -78.1 -679.2 L -61.3 -699.7 L -86.5 -720.9 L 9.2 -709.9 L 28.8 -690.8 L -14.5 -686.5 L -14.3 -667.5 L 12.6 -655.8 L 65.5 -663.2 L 73.9 -685 L 145.4 -701.3 L 264.8 -730.7 L 290.6 -729 L 256.9 -708.3 L 299.3 -704.7 L 323.8 -716.4 L 388 -717.3 L 438.8 -731.5 L 477.8 -710.9 L 516.7 -733.6 L 480.8 -753.4 L 498.6 -764.7 L 599.7 -754.3 L 647.1 -743.6 L 771.1 -704.5 L 794 -722.4 L 759.2 -740.5 L 758.2 -747.8 L 717 -751.2 L 728.3 -767.4 L 710 -794.1 L 708.9 -805 L 772.1 -836 L 794.5 -867.1 L 820 -873.9 L 910.6 -864.8 L 917.7 -845.8 L 885.3 -818 L 906.6 -807.1 L 917.6 -783.2 L 909.8 -736.3 L 947.6 -715.3 L 932.9 -692.5 L 865.9 -643.9 L 905 -638.8 L 918.6 -651.2 L 956.2 -659.9 L 965.3 -676.9 L 994.9 -693.2 L 975 -712.6 L 991 -735.2 L 953.5 -738 L 945.3 -757.1 L 972.6 -791.4 L 928.2 -819.3 L 989.4 -842.4 L 981.5 -866.8 L 998.6 -867.5 L 1016.6 -848.6 L 1003.1 -815.5 L 1039.7 -809.3 L 1024.1 -834 L 1081.3 -847.4 L 1152.4 -849.2 L 1215.6 -829.7 L 1185.2 -858.2 L 1181.8 -894.7 L 1241.3 -901.6 L 1323.6 -900.1 L 1397.8 -904.6 L 1369.9 -922.4 L 1409.6 -944.9 L 1448.9 -945.9 L 1515.4 -962.8 L 1605.8 -967.4 L 1617.2 -976.8 L 1707.1 -980 L 1735.1 -972.3 L 1811.9 -990.5 L 1874.7 -989.9 L 1884.2 -1004.7 L 1916.9 -1019.2 L 1997.7 -1033.3 L 2056.4 -1022.2 L 2009.8 -1013.7 L 2087.3 -1008.5 L 2096.5 -991.6 L 2127.8 -999.9 L 2227.9 -999.5 L 2305 -982.8 L 2332.5 -969.9 L 2324 -952.2 L 2286.1 -942 L 2196.2 -923 L 2170.5 -912.9 L 2212.9 -908.1 L 2263.5 -899.5 L 2294.3 -905.9 L 2311.8 -884 L 2326.8 -892.9 L 2381.5 -898.3 L 2491.3 -892.6 L 2499.7 -876.6 L 2642.8 -871.5 L 2644.7 -897.6 L 2717.3 -891.7 L 2772 -891.8 L 2827.2 -873.8 L 2843 -851.9 L 2822.7 -837.6 L 2865.7 -810.7 L 2919.6 -796.8 L 2952.6 -832.7 L 3007.5 -817.3 L 3065.8 -826.5 L 3132 -815.9 L 3157.3 -825.5 L 3213.2 -820.7 L 3188.5 -852.5 L 3233.7 -867.3 L 3542.8 -845.1 L 3571.9 -824.8 L 3661.5 -798.6 L 3799.7 -805.1 L 3867.9 -799.5 L 3896.4 -785.3 L 3892.2 -760.3 L 3934.3 -750.6 L 3980.2 -757.6 L 4040.8 -758.5 L 4105.5 -751.8 L 4170.3 -755.5 L 4229.9 -725.1 L 4272.3 -736.1 L 4244.7 -757.9 L 4259.9 -773.1 L 4369.1 -763.6 L 4440.3 -765.6 L 4538.7 -749.3 L 4586.6 -734.4 L 4586.6 -598 L 4586.4 -597.8 L 4542.4 -582.8 L 4498 -585.3 L 4528.9 -567.1 L 4549.3 -538.9 L 4565.1 -529.7 L 4569 -515.5 L 4560.2 -506.4 L 4496.4 -513.9 L 4400.8 -488.1 L 4370.3 -484.1 L 4318 -460.1 L 4268.3 -439.1 L 4255.7 -423.5 L 4206.8 -447.2 L 4117.6 -420.4 L 4102 -433.1 L 4069.1 -418.4 L 4023.3 -423.1 L 4012.3 -400.6 L 3971.2 -367.5 L 3972.4 -353.6 L 4011.4 -346 L 4006.8 -296.1 L 3975 -294.9 L 3960.4 -266.2 L 3974.6 -251.5 L 3914.8 -234 L 3902.9 -195 L 3851.9 -186.6 L 3841.6 -151.8 L 3792.3 -120 L 3779.6 -143.5 L 3765 -193.5 L 3745.9 -269.5 L 3762.3 -317 L 3791.2 -337.4 L 3793 -353.4 L 3846.2 -361 L 3907.3 -404.1 L 3966.2 -439.3 L 4027.7 -466.6 L 4055.3 -514.9 L 4013.7 -512 L 3993.1 -483.8 L 3906.3 -446.2 L 3878.3 -488.3 L 3789.9 -476.7 L 3704.3 -419.3 L 3732.5 -398.3 L 3656.2 -389.4 L 3603.2 -385.9 L 3605.7 -410.6 L 3552.5 -415.8 L 3510.1 -399 L 3405.5 -404.9 L 3292.9 -394.7 L 3182 -327.9 L 3050.9 -247.2 L 3104.8 -242.9 L 3121.6 -221.5 L 3154.9 -213.9 L 3176.8 -231 L 3214.3 -228.7 L 3263.7 -191.1 L 3264.9 -162 L 3238.1 -127.8 L 3235.2 -86.9 L 3219.8 -32.2 L 3168.2 17.3 L 3156.8 41 L 3110.3 80.9 L 3064.2 120.4 L 3042.1 140.6 L 2996.5 160.7 L 2974.9 161.1 L 2953.4 144.5 L 2907.5 169.5 L 2902.1 180.9 L 2902.1 180.9 L 2902.1 180.9 L 2902.1 180.9 L 2897.4 174.9 L 2897.4 174.9 L 2897.1 157.5 L 2914.6 156.6 L 2919.6 116.2 L 2910.5 86.9 L 2939.9 74.8 L 2981.4 80.8 L 3004.5 47.5 L 3016.2 10 L 3029.5 -2.5 L 3047.5 -33.3 L 2990.9 -23.2 L 2961.2 -9.7 L 2909.2 -9.7 L 2895.4 -41.9 L 2854.8 -66.2 L 2795.3 -77.1 L 2782.6 -110.7 L 2770.7 -131.7 L 2757.9 -146.4 L 2736.7 -180.9 L 2706.7 -193.5 L 2655.4 -203.7 L 2610.1 -202.8 L 2567.5 -196.6 L 2539.3 -179.6 L 2558.1 -171.5 L 2558.5 -152.6 L 2539.5 -141.6 L 2508.6 -105.3 L 2508.9 -90.2 L 2460.6 -68.6 L 2419.6 -81.5 L 2378.7 -78.7 L 2360.8 -90.2 L 2340.3 -93.9 L 2290.2 -69.7 L 2245.1 -64.1 L 2213.6 -55.6 L 2170.5 -61.2 L 2138.8 -60.8 L 2118 -78.3 L 2084.5 -94.7 L 2050.2 -99.2 L 2006.9 -94.8 L 1974.6 -88.4 L 1926 -102.8 L 1919.4 -128.5 L 1879.2 -137.3 L 1848.1 -141.3 L 1809.8 -155.4 L 1774.3 -120 L 1788.2 -99.8 L 1755 -76 L 1705.5 -84.6 L 1671.3 -85.8 L 1648.5 -101.8 L 1612.8 -102.3 L 1583 -112.8 L 1530.9 -96.7 L 1465.6 -67.2 L 1429.6 -61.3 L 1416.2 -58.5 L 1398 -79.4 L 1353.9 -74.8 L 1339.4 -89.4 L 1315.4 -96 L 1299 -115.8 L 1280.1 -121.9 L 1230.9 -113.1 L 1183.7 -132.9 L 1165.5 -114.9 L 1089 -201.9 L 1045.4 -228.3 L 1057.9 -239 L 972.1 -206.7 L 939.3 -204.8 L 942.1 -223.5 L 898.2 -235.1 L 862.4 -226.8 L 851.7 -262.3 L 790.2 -269.7 L 759.4 -255.5 L 673.8 -242.8 L 657 -234.4 L 529 -222.5 L 513.3 -210.8 L 538 -187.3 L 505.1 -178.4 L 511.5 -169.1 L 478.7 -152.4 L 534.2 -128.9 L 525.6 -112.7 L 477.5 -114.2 L 467.6 -104 L 423.8 -121.8 L 369.5 -121.1 L 333.2 -106.6 L 292.7 -120.5 L 217.3 -144.2 L 163.8 -143.3 L 93.2 -106.1 L 88.9 -81.1 L 53.7 -100.9 L 26.4 -63.3 L 36.4 -56.3 L 16.6 -30.4 L 45.7 -7.2 L 71.1 -8.1 L 92.9 14.7 L 89.4 32.3 L 106.8 37.9 Z M 1635.8 -1147.1 L 1709.8 -1154.8 L 1776.3 -1137.6 L 1855.1 -1104.5 L 1846.7 -1073.8 L 1772 -1069.5 L 1676.7 -1079.4 L 1619.9 -1092.4 L 1593.6 -1117 L 1546.9 -1123.7 L 1635.8 -1147.1 Z M 1945.9 -1087.5 L 2032.6 -1068 L 2022.4 -1054.1 L 1829.5 -1040.9 L 1892 -1085.8 L 1920.2 -1089.7 L 1945.9 -1087.5 Z M 3177.7 -979.8 L 3268.1 -978.3 L 3391.8 -960.2 L 3364.8 -934.8 L 3238.7 -935.7 L 3181.9 -927.6 L 3114.1 -949.9 L 3132.5 -973.4 L 3177.7 -979.8 Z M 3499.1 -952.8 L 3585 -943.8 L 3545.4 -930.3 L 3490.7 -933.4 L 3427.1 -946.9 L 3435.3 -957.9 L 3499.1 -952.8 Z M 3213 -885.1 L 3245.5 -898.7 L 3288.3 -901.8 L 3336.9 -888.8 L 3341 -879.8 L 3289.1 -879.5 L 3219 -883.3 L 3213 -885.1 Z M -38.8 -1132.2 L 28 -1138.5 L 80 -1138.9 L 87 -1129.7 L 106.7 -1137.9 L 138.9 -1143.5 L 189.7 -1136 L 176.5 -1130.8 L 130.5 -1126.3 L 99.7 -1123.7 L 95 -1118.1 L 55 -1112.4 L 17.9 -1120.5 L 37.4 -1131.2 L -38.8 -1132.2 Z M -795.7 -233.5 L -858.6 -232.9 L -900.7 -236.8 L -892.9 -251.9 L -845.7 -263 L -809.9 -257 L -794.7 -251.6 L -798.4 -242.2 L -795.7 -233.5 Z M 257.6 -898.2 L 339.6 -928.2 L 330.3 -943.7 L 406.9 -961.8 L 519.9 -983.8 L 633.8 -990.2 L 692.4 -1002.9 L 759 -1007.3 L 782.8 -993.8 L 759.8 -983.2 L 638.5 -966.2 L 534 -949.9 L 427.7 -917.3 L 376.7 -883.9 L 323 -851 L 330 -822.5 L 395.5 -794.5 L 375.3 -791.5 L 263.4 -795.9 L 254.3 -811.1 L 192.4 -820.3 L 187.4 -838.8 L 222.4 -846.1 L 221.2 -864.8 L 289.1 -894 L 257.6 -898.2 Z M 3317.4 -212.1 L 3329.3 -179.2 L 3328.4 -145.5 L 3342.5 -110.9 L 3377 -50.3 L 3326.3 -61.6 L 3305.3 -12.2 L 3338.6 22.9 L 3337.7 46.8 L 3311.7 26.2 L 3289.3 52.7 L 3282.9 24 L 3286.8 -9.4 L 3282.9 -46.3 L 3290.8 -72.2 L 3292.3 -117.9 L 3272.2 -151.6 L 3275.3 -198.4 L 3306.9 -214.1 L 3293.3 -230 L 3308.5 -234.8 L 3317.4 -212.1 Z M -7560.3 -674.2 L -7563.2 -652.9 L -7540.1 -644.4 L -7548.1 -669.3 L -7455.2 -664.2 L -7388.2 -632.1 L -7422.1 -617.2 L -7478.2 -613.7 L -7479 -580.3 L -7492.7 -573.1 L -7524.8 -574.2 L -7550.9 -586.1 L -7596.4 -596.1 L -7604 -610.9 L -7638.8 -616.5 L -7677.7 -612.1 L -7696.3 -624 L -7688.9 -636.8 L -7729.8 -628.6 L -7714.4 -612.5 L -7733.8 -598 L -7733.8 -734.4 L -7650 -708.2 L -7560.3 -674.2 Z M -7689.1 -800.4 L -7733.8 -798.3 L -7733.8 -821.7 L -7729.4 -823.1 L -7700.4 -823.1 L -7650.9 -813.3 L -7653.9 -808.6 L -7689.1 -800.4 Z M -429.3 52.5 L -420.3 44 L -396 51.4 L -384.9 52.7 L -380.5 59.5 L -375.3 60.5 L -375.1 63.5 L -358.3 71.7 L -323.4 69.7 L -330.1 81.9 L -367.6 87.8 L -414 107.6 L -433.1 100.7 L -425.5 84.6 L -462.9 74.6 L -456.9 68 L -424.1 56.6 L -429.3 52.5 Z" />
<path class="neighbor" d="M 191.6 796.1 L 197.7 794.4 L 199 803.8 L 225.8 798.4 L 254.1 799.3 L 274.7 800.3 L 298.2 777.2 L 323.7 755.2 L 345.3 734.1 L 351.9 745.8 L 356.5 772.8 L 339 772.9 L 336.2 795.2 L 342.3 800 L 326.8 806.7 L 326.7 820.7 L 316.7 834.9 L 315.8 848.7 L 308.9 855.9 L 206 838.6 L 192.9 804 L 191.6 796.1 Z" />
<path class="neighbor" d="M 315.8 848.7 L 316.7 834.9 L 326.7 820.7 L 326.8 806.7 L 342.3 800 L 336.2 795.2 L 339 772.9 L 356.5 772.8 L 371.8 796.2 L 390.9 808.6 L 416.1 813.1 L 436.3 819.3 L 451.8 838.9 L 461 850.3 L 473.2 854.6 L 473.2 862.3 L 460.7 882.7 L 455.3 892.3 L 440.8 903.2 L 428.1 926.7 L 412.5 924.9 L 405.4 933 L 399.9 950.4 L 404.1 973.3 L 400.9 977.5 L 385.2 977.4 L 363.8 990.1 L 360.4 1006.8 L 352.6 1014 L 331.3 1013.8 L 317.9 1022.4 L 318.1 1036.2 L 301.5 1045.7 L 282.7 1042.5 L 259.8 1054 L 244 1056 L 232.8 1032.1 L 206 975.6 L 308.7 941.4 L 331.5 872.9 L 315.8 848.7 Z M 351.9 745.8 L 345.3 734.1 L 355.3 722.5 L 359.5 725.4 L 356.3 739.6 L 351.9 745.8 Z" />
<path class="neighbor" d="M 1757.3 658.6 L 1759.9 671.6 L 1747.9 677.9 L 1750.7 698.9 L 1726.2 692.7 L 1681.9 716.4 L 1682.9 736 L 1664.1 764.7 L 1662.3 781.3 L 1647.1 809.6 L 1620.3 801.8 L 1619 837.2 L 1611.2 848.8 L 1614.9 863.4 L 1598 871.5 L 1580 817.2 L 1570.5 817.3 L 1564.9 839.2 L 1546.2 821.4 L 1556.7 802 L 1572.1 800 L 1587.8 771 L 1568.1 765.2 L 1536.4 765.7 L 1503.8 761 L 1500.8 737.2 L 1484.4 735.5 L 1457.3 720.7 L 1445.2 743.9 L 1469.9 762.1 L 1448.6 774.8 L 1441 787.3 L 1462 796.5 L 1456.2 817.1 L 1468.1 842.8 L 1473.4 871 L 1468.5 883.5 L 1445.2 883.1 L 1403 890.2 L 1405 915.9 L 1386.7 936.2 L 1337.5 959.2 L 1299.2 999.5 L 1273.4 1021.1 L 1239.3 1043.5 L 1239.3 1059.2 L 1222.2 1067.6 L 1191.4 1079.9 L 1175.4 1081.7 L 1165.1 1107.8 L 1172.3 1152.3 L 1174.1 1180.7 L 1159.6 1213.2 L 1159.4 1271.4 L 1141.7 1273 L 1126.1 1299.1 L 1136.5 1310.4 L 1105.3 1320.1 L 1093.8 1343.4 L 1080.1 1353.2 L 1047.7 1321.3 L 1031.8 1273.3 L 1018.7 1238.8 L 1006.7 1222.6 L 988.5 1189.7 L 980 1146.9 L 974.1 1125.6 L 943 1078.6 L 928.8 1012.2 L 918.6 968.4 L 918.7 927 L 912.1 894.9 L 862.3 915.4 L 838.1 911.3 L 793.4 869.8 L 809.9 857.5 L 799.8 844 L 759.6 815 L 782.4 792.2 L 857.7 792.3 L 851 762.9 L 831.7 745.5 L 827.8 719.2 L 805.4 703.8 L 843.1 667.9 L 882.9 670.5 L 918.7 634.7 L 940.1 599.9 L 973.4 565.6 L 972.8 541.2 L 1002 521.4 L 974.4 504.5 L 962.5 481.3 L 950.4 451.4 L 967.2 436.6 L 1019.1 444.9 L 1057.2 439.9 L 1090.3 411.1 L 1127.1 451.2 L 1123.6 479.1 L 1137.2 496.6 L 1136.1 514.1 L 1111.5 509.5 L 1121.1 547.2 L 1154.7 568.9 L 1202.3 592.8 L 1180.6 608.4 L 1167.3 640.4 L 1200.5 653.3 L 1232.7 670.1 L 1277.4 689.3 L 1324.3 693.7 L 1344 711.2 L 1370.5 714.4 L 1411.6 722.4 L 1440.1 721.8 L 1444.1 708.3 L 1439.5 686.5 L 1442.2 671.8 L 1463.1 664.6 L 1465.9 691.5 L 1466.7 698.4 L 1497.8 711.4 L 1519.3 706 L 1548.2 708.3 L 1576.1 707.3 L 1578.5 686.3 L 1564.6 675.4 L 1592.2 671.1 L 1623.3 645.6 L 1662.8 623.8 L 1691.5 632.3 L 1715.9 617.8 L 1731.9 639.1 L 1720.4 653.5 L 1757.3 658.6 Z" />
<path class="neighbor" d="M 1442.2 671.8 L 1439.5 686.5 L 1444.1 708.3 L 1440.1 721.8 L 1411.6 722.4 L 1370.5 714.4 L 1344 711.2 L 1324.3 693.7 L 1277.4 689.3 L 1232.7 670.1 L 1200.5 653.3 L 1167.3 640.4 L 1180.6 608.4 L 1202.3 592.8 L 1216.5 584.7 L 1243.9 595.2 L 1278.5 617.5 L 1297.7 622.4 L 1309.2 638.8 L 1335.8 645.6 L 1363.6 660.6 L 1402.3 668.4 L 1442.2 671.8 Z" />
<path class="neighbor" d="M 702.9 347.1 L 722 347.4 L 747.8 354.6 L 758.2 358.8 L 783 347.8 L 794.5 354.4 L 805.6 338.7 L 826 339.4 L 831.3 334.4 L 834.9 320.6 L 849.7 308.7 L 868.2 316.5 L 864.5 326.9 L 874.8 328.6 L 871.6 357.3 L 885.2 368.5 L 897.1 361.3 L 912.3 357.9 L 933.6 342.6 L 957.2 345.1 L 992.5 345.2 L 998.6 355 L 978.6 358.8 L 961.3 365.2 L 922 369.1 L 885.2 376.3 L 865.2 391.2 L 873.3 405.7 L 877.3 422.8 L 860.2 437.1 L 861.6 450.3 L 852.2 462.6 L 819.7 461.5 L 833.1 484.2 L 811.3 492.8 L 796.8 513.5 L 798.7 534 L 785.3 543.7 L 772.7 540.5 L 746.5 544.9 L 742.8 554.5 L 717.3 554.5 L 698.2 573.8 L 697 603 L 652.5 617.2 L 628.7 614.2 L 621.8 621.7 L 601.3 617.3 L 567.1 622.4 L 509.7 605 L 540.8 573.9 L 538 551.9 L 512 546.1 L 509.4 524.4 L 498.2 497.1 L 512.8 478.3 L 497.9 473.3 L 507.3 448.4 L 521.2 405.8 L 556.2 418.7 L 582 414.2 L 589.1 398.7 L 616.1 393.5 L 635.4 383.1 L 642.2 355.7 L 671.1 349.1 L 676.4 336.9 L 692.6 346.1 L 702.9 347.1 Z" />
<path class="neighbor" d="M 747.8 354.6 L 767 320 L 759.6 294.5 L 734.5 286.3 L 743.4 271.2 L 772 272.8 L 788.2 253.9 L 799.1 232 L 844.9 224 L 837.7 239.9 L 842.6 249.4 L 856.8 248.5 L 844.2 259.1 L 807 253.4 L 803.7 273.1 L 840.8 270.4 L 883.1 281.5 L 947.8 276.3 L 956.5 308 L 967.8 304.6 L 988.5 312.4 L 987.3 325.7 L 992.5 345.2 L 957.2 345.1 L 933.6 342.6 L 912.3 357.9 L 897.1 361.3 L 885.2 368.5 L 871.6 357.3 L 874.8 328.6 L 864.5 326.9 L 868.2 316.5 L 849.7 308.7 L 834.9 320.6 L 831.3 334.4 L 826 339.4 L 805.6 338.7 L 794.5 354.4 L 783 347.8 L 758.2 358.8 L 747.8 354.6 Z" />
<path class="neighbor" d="M 855 179.3 L 862.6 164.3 L 885.2 159.5 L 941.5 171.3 L 946.8 151.1 L 966.2 144 L 1015 158.4 L 1027.4 154.6 L 1084.1 155.6 L 1134.9 159.1 L 1152.1 171.4 L 1173.2 176.5 L 1168.4 184.2 L 1114.4 202.7 L 1102.2 216.3 L 1058.3 220.4 L 1045.4 242.2 L 1009.2 237.6 L 985.5 244.3 L 952.9 260.5 L 957.6 268.5 L 947.8 276.3 L 883.1 281.5 L 840.8 270.4 L 803.7 273.1 L 807 253.4 L 844.2 259.1 L 856.8 248.5 L 882.8 251.9 L 926.6 227.2 L 886 209.2 L 861.7 217.7 L 836.4 204.9 L 865.1 182.7 L 855 179.3 Z" />
<path class="neighbor" d="M 223.2 195.9 L 238.3 184.5 L 277.2 177.3 L 300.3 186.9 L 324.3 213.8 L 341.8 212.1 L 380.4 211.6 L 374.8 194.4 L 404.1 182.6 L 432.9 162.7 L 479 180.8 L 482.7 208.1 L 495.8 215.1 L 532.8 213.5 L 544.2 219.8 L 561.1 255 L 600.2 278.7 L 622.5 294.8 L 658.3 311.5 L 703.8 326.2 L 702.9 347.1 L 692.6 346.1 L 676.4 336.9 L 671.1 349.1 L 642.2 355.7 L 635.4 383.1 L 616.1 393.5 L 589.1 398.7 L 582 414.2 L 556.2 418.7 L 521.2 405.8 L 518.2 377 L 492.7 375.7 L 453.6 345.4 L 426.3 341.7 L 388.4 324.3 L 364.1 321.2 L 349.1 327.5 L 326.2 326.6 L 301.9 346.1 L 271.8 352.7 L 265.4 328.5 L 270.4 292.7 L 243.7 281.2 L 252.5 257.7 L 229.8 255.7 L 237.3 226.9 L 269.6 235.3 L 299.7 224.3 L 274.8 203.8 L 264.9 184.2 L 237.4 192.9 L 233.9 218 L 223.2 195.9 Z" />
<path class="neighbor" d="M 88.6 601.6 L 69.6 583.6 L 69.3 565.4 L 58.4 565.4 L 64 540.6 L 46.4 514.6 L 4.4 495.9 L -19.3 463.3 L -11.3 436.6 L 5.9 424.8 L 3.3 404.8 L -19.1 394.5 L -41.3 353.7 L -41.3 353.7 L -60 326.3 L -53.3 315.7 L -64 276.5 L -40.6 266.7 L -35.2 279.6 L -17.9 295.4 L 5.6 300 L 18 299 L 58.4 273.7 L 71.2 271.2 L 81.3 281.2 L 69.5 298.2 L 90.8 316.1 L 99.4 314.4 L 110.2 339.6 L 142.6 346.7 L 166.4 363.9 L 215.1 369.8 L 268.5 360.7 L 271.8 352.7 L 301.9 346.1 L 326.2 326.6 L 349.1 327.5 L 364.1 321.2 L 388.4 324.3 L 426.3 341.7 L 453.6 345.4 L 492.7 375.7 L 518.2 377 L 521.2 405.8 L 507.3 448.4 L 497.9 473.3 L 512.8 478.3 L 498.2 497.1 L 509.4 524.4 L 512 546.1 L 538 551.9 L 540.8 573.9 L 509.7 605 L 526.7 623 L 540.4 643.6 L 573.2 658.7 L 574.1 688.8 L 590.5 694.4 L 593.3 710.1 L 544 727.8 L 531.1 767.6 L 466.7 757.2 L 429.4 749.4 L 390.7 744.9 L 376.1 702.9 L 359.8 696.9 L 333.5 703 L 298.9 719.6 L 257.1 708.2 L 222.6 681.9 L 189.6 672.2 L 166.8 639.7 L 141.5 594.1 L 123.1 599.6 L 101.3 588.3 L 88.6 601.6 Z" />
<path class="neighbor" d="M 2173 1003 L 2145 992.4 L 2144 963 L 2160.8 947.5 L 2198.2 937.9 L 2217.9 938.7 L 2225.6 951.8 L 2210.5 966.8 L 2202.6 986.6 L 2173 1003 Z M 1173.2 176.5 L 1170.4 156.9 L 1193.9 148 L 1163.1 88.6 L 1230.9 74.9 L 1248.4 67.3 L 1273.1 6 L 1341 17.3 L 1360.1 1.8 L 1361.7 -32.5 L 1390.1 -35.7 L 1416.2 -58.5 L 1429.6 -61.3 L 1438.5 -37.4 L 1467.3 -19.3 L 1516.1 -6.4 L 1539.7 21.1 L 1526.6 61.1 L 1538.9 76 L 1579.5 81.8 L 1625.6 86.6 L 1667 107.9 L 1688.1 111.7 L 1703.7 143.3 L 1723.8 163.6 L 1761.5 162.8 L 1832.2 170.5 L 1877.7 165.7 L 1911.5 170.8 L 1962.1 191.6 L 2003.5 191.6 L 2018.7 202.2 L 2058.5 183.8 L 2113.8 172 L 2165.1 170.7 L 2205.1 158.6 L 2229.6 140.3 L 2253.6 128.8 L 2248.1 117.5 L 2237.1 104.3 L 2255.1 82.3 L 2274.4 85.4 L 2309.5 92.3 L 2343.6 74.1 L 2395.8 60.9 L 2420.9 38.3 L 2445 28.5 L 2494.7 24 L 2521.7 27.8 L 2525.4 15.7 L 2494.4 -8.2 L 2467 -19.2 L 2440.7 -6.6 L 2406.9 -11.9 L 2387.5 -7.5 L 2378.7 -21.5 L 2402.9 -55.7 L 2419.6 -81.5 L 2460.6 -68.6 L 2508.9 -90.2 L 2508.6 -105.3 L 2539.5 -141.6 L 2558.5 -152.6 L 2558.1 -171.5 L 2539.3 -179.6 L 2567.5 -196.6 L 2610.1 -202.8 L 2655.4 -203.7 L 2706.7 -193.5 L 2736.7 -180.9 L 2757.9 -146.4 L 2770.7 -131.7 L 2782.6 -110.7 L 2795.3 -77.1 L 2854.8 -66.2 L 2895.4 -41.9 L 2909.2 -9.7 L 2961.2 -9.7 L 2990.9 -23.2 L 3047.5 -33.3 L 3029.5 -2.5 L 3016.2 10 L 3004.5 47.5 L 2981.4 80.8 L 2939.9 74.8 L 2910.5 86.9 L 2919.6 116.2 L 2914.6 156.6 L 2897.1 157.5 L 2897.4 174.9 L 2875.3 154.7 L 2861.7 173.9 L 2808.8 188.6 L 2814.1 206.7 L 2784.5 205.4 L 2768.3 194.7 L 2744.8 219 L 2707.1 237.4 L 2679.2 259.3 L 2631.4 269.3 L 2606.2 285.3 L 2569.3 294.6 L 2587.5 278.8 L 2580.3 265.4 L 2607.4 242.4 L 2589.4 224.5 L 2559.5 236.6 L 2520.9 260.4 L 2499.8 282.5 L 2466.2 284.1 L 2448.8 300.1 L 2466.8 323.2 L 2494.8 328.8 L 2496 344.2 L 2523 354.2 L 2561.4 329.8 L 2591.8 343.1 L 2613.9 344 L 2619.5 361.9 L 2571 371.5 L 2555 390 L 2521.7 407.1 L 2504.2 431.1 L 2541 449.9 L 2554.5 483.6 L 2575.3 514.9 L 2598.5 541.2 L 2598 566.6 L 2576.5 576 L 2584.7 594.2 L 2604.8 604.8 L 2599.6 632.7 L 2590.9 659.8 L 2571.7 662.9 L 2546.8 700 L 2519 744.9 L 2487.3 785.7 L 2440.2 817.3 L 2392.6 846.1 L 2354 850 L 2333.1 865.2 L 2321.3 854.1 L 2301.9 871.1 L 2254.1 888.3 L 2217.9 893.5 L 2206.2 929.7 L 2187.2 931.7 L 2178.2 906.8 L 2186.3 893.6 L 2140.4 882.7 L 2124.3 888.2 L 2089.8 879.3 L 2073.5 865.4 L 2078.9 845.7 L 2047.6 839.5 L 2031.1 826.6 L 2002 844.9 L 1968.7 848.8 L 1941.4 848.6 L 1923 857 L 1905.3 862 L 1910.5 901.2 L 1892.2 900.2 L 1889.1 892.2 L 1888.1 878 L 1863 888 L 1848.2 881.7 L 1822.8 868.9 L 1832.7 840.4 L 1811.1 833.8 L 1802.9 802.3 L 1766.8 808 L 1770.9 767.4 L 1803.3 738.8 L 1804.7 710.6 L 1803.7 684.4 L 1788.7 676.2 L 1777.3 656.1 L 1757.3 658.6 L 1720.4 653.5 L 1731.9 639.1 L 1715.9 617.8 L 1691.5 632.3 L 1662.8 623.8 L 1623.3 645.6 L 1592.2 671.1 L 1564.6 675.4 L 1549.6 666.2 L 1531.5 665.3 L 1507.1 657.4 L 1488.6 666.1 L 1465.9 691.5 L 1463.1 664.6 L 1442.2 671.8 L 1402.3 668.4 L 1363.6 660.6 L 1335.8 645.6 L 1309.2 638.8 L 1297.7 622.4 L 1278.5 617.5 L 1243.9 595.2 L 1216.5 584.7 L 1202.3 592.8 L 1154.7 568.9 L 1121.1 547.2 L 1111.5 509.5 L 1136.1 514.1 L 1137.2 496.6 L 1123.6 479.1 L 1127.1 451.2 L 1090.3 411.1 L 1034 397.3 L 1023.9 371 L 998.6 355 L 992.5 345.2 L 987.3 325.7 L 988.5 312.4 L 967.8 304.6 L 956.5 308 L 947.8 276.3 L 957.6 268.5 L 952.9 260.5 L 985.5 244.3 L 1009.2 237.6 L 1045.4 242.2 L 1058.3 220.4 L 1102.2 216.3 L 1114.4 202.7 L 1168.4 184.2 L 1173.2 176.5 Z" />
<path class="neighbor" d="M 206 975.6 L 232.8 1032.1 L 244 1056 L 219.2 1065.2 L 212.6 1080.4 L 211.8 1092 L 177.7 1106.5 L 123 1122.4 L 92.4 1146.6 L 77.3 1148.5 L 67 1146.4 L 47 1160.6 L 25.2 1167.2 L -3.5 1169 L -12.2 1171 L -19.6 1180 L -28.6 1182.5 L -33.9 1191.2 L -50.8 1190.4 L -61.8 1195.1 L -85.5 1193.3 L -94.4 1173.4 L -93.4 1154.6 L -99 1144.5 L -105.7 1119.2 L -115.5 1105.2 L -108.7 1103.5 L -112.2 1087.9 L -108 1081.3 L -109.5 1066.3 L -94.5 1055.4 L -98 1041 L -89 1024.2 L -74.9 1033.1 L -65.6 1030 L -26.1 1029.2 L -19.9 1032.6 L 13.2 1036 L 26.3 1034.3 L 34.9 1045.7 L 50.9 1040 L 75.4 1004.1 L 107.3 988.7 L 206 975.6 Z" />
<path class="neighbor" d="M -377.3 621.1 L -339.2 626.6 L -324.4 616 L -316.2 603.7 L -290.1 599 L -284.5 587.5 L -273.1 581.7 L -307.3 547.5 L -238.7 530.3 L -232.2 525.2 L -191 534.4 L -140 558.4 L -43.5 627.2 L 20.1 630 L 50.6 633.3 L 59.2 649.6 L 83.4 648.7 L 96.8 678.2 L 113.6 686 L 119.5 698 L 142.8 712.4 L 144.9 726.5 L 141.5 737.9 L 145.8 749.4 L 155.6 759 L 160.2 770.2 L 165.3 778.6 L 175.6 785.4 L 185.1 783 L 191.6 796.1 L 192.9 804 L 206 838.6 L 308.9 855.9 L 315.8 848.7 L 331.5 872.9 L 308.7 941.4 L 206 975.6 L 107.3 988.7 L 75.4 1004.1 L 50.9 1040 L 34.9 1045.7 L 26.3 1034.3 L 13.2 1036 L -19.9 1032.6 L -26.1 1029.2 L -65.6 1030 L -74.9 1033.1 L -89 1024.2 L -98 1041 L -94.5 1055.4 L -109.5 1066.3 L -114 1051.7 L -124.3 1041.4 L -126.9 1027.8 L -144.6 1015.5 L -162.9 986.8 L -172.5 958.9 L -196.2 935.4 L -211.4 929.8 L -234.1 897.1 L -238.1 873.4 L -236.6 853.1 L -256.2 815.1 L -272.3 801.8 L -290.8 794.7 L -302 775.1 L -300.2 767.3 L -309.7 749.6 L -319.7 742 L -333 716.5 L -353.9 688.9 L -371.3 665.4 L -388.4 665.6 L -383 646.8 L -381.5 634.8 L -377.3 621.1 Z" />

<path class="country" d="M 1090.3 411.1 L 1057.2 439.9 L 1019.1 444.9 L 967.2 436.6 L 950.4 451.4 L 962.5 481.3 L 974.4 504.5 L 1002 521.4 L 972.8 541.2 L 973.4 565.6 L 940.1 599.9 L 918.7 634.7 L 882.9 670.5 L 843.1 667.9 L 805.4 703.8 L 827.8 719.2 L 831.7 745.5 L 851 762.9 L 857.7 792.3 L 782.4 792.2 L 759.6 815 L 734.6 806.3 L 724.4 781.7 L 697.9 755.7 L 634.9 762.1 L 579.3 762.8 L 531.1 767.6 L 544 727.8 L 593.3 710.1 L 590.5 694.4 L 574.1 688.8 L 573.2 658.7 L 540.4 643.6 L 526.7 623 L 509.7 605 L 567.1 622.4 L 601.3 617.3 L 621.8 621.7 L 628.7 614.2 L 652.5 617.2 L 697 603 L 698.2 573.8 L 717.3 554.5 L 742.8 554.5 L 746.5 544.9 L 772.7 540.5 L 785.3 543.7 L 798.7 534 L 796.8 513.5 L 811.3 492.8 L 833.1 484.2 L 819.7 461.5 L 852.2 462.6 L 861.6 450.3 L 860.2 437.1 L 877.3 422.8 L 873.3 405.7 L 865.2 391.2 L 885.2 376.3 L 922 369.1 L 961.3 365.2 L 978.6 358.8 L 998.6 355 L 1023.9 371 L 1034 397.3 L 1090.3 411.1 Z" />


<g class="city"><circle cx="920.4662762611237" cy="973.2341921392244" r="5" /><text x="932.4662762611237" y="977.2341921392244">Mumbai</text></g>
<g class="city"><circle cx="1069.4143388627062" cy="644.5679792064111" r="5" /><text x="1081.4143388627062" y="648.5679792064111">Delhi</text></g>
<g class="city"><circle cx="718.9661154851852" cy="774.6172223244791" r="5" /><text x="730.9661154851852" y="778.6172223244791">Karachi</text></g>
<g class="city"><circle cx="970.8514466040116" cy="545.6628864109439" r="5" /><text x="982.8514466040116" y="549.6628864109439">Lahore</text></g>
<g class="city"><circle cx="1112.1919727200207" cy="1030.2668962417115" r="5" /><text x="1124.1919727200207" y="1034.2668962417115">Hyderabad</text></g>
<g class="city"><circle cx="910.275175346955" cy="837.5863305782443" r="5" /><text x="922.275175346955" y="841.5863305782443">Ahmedabad</text></g>
<g class="city"><circle cx="953.8702027056485" cy="992.1260300336296" r="5" /><text x="965.8702027056485" y="996.1260300336296">Pune</text></g>
<g class="city"><circle cx="919.1745111585641" cy="900.2176531236435" r="5" /><text x="931.1745111585641" y="904.2176531236435">Surat</text></g>
<text class="map-title" x="80" y="105">Pakistan Political Study Map</text>
<text class="map-subtitle" x="80" y="145">Capital: Islamabad | Continent: Asia</text>
  <text class="footer" x="80" y="1036">Made with Natural Earth. Free vector and raster map data @ naturalearthdata.com.</text>
</svg>
