<?xml version="1.0" encoding="UTF-8"?>
<svg xmlns="http://www.w3.org/2000/svg" width="1600" height="1100" viewBox="0 0 1600 1100" role="img" aria-labelledby="title desc">
  <title id="title">Pakistan Physical Study Map</title>
  <desc id="desc">Made with Natural Earth. Free vector and raster map data @ naturalearthdata.com.</desc>
  <defs>
    <linearGradient id="terrain" x1="0" x2="1" y1="0" y2="1">
      <stop offset="0%" stop-color="#6c8c53" />
      <stop offset="42%" stop-color="#d5c487" />
      <stop offset="72%" stop-color="#b88b5f" />
      <stop offset="100%" stop-color="#f1f5ee" />
    </linearGradient>
    <filter id="softShadow" x="-10%" y="-10%" width="120%" height="120%">
      <feDropShadow dx="0" dy="10" stdDeviation="12" flood-color="#0f172a" flood-opacity="0.16" />
    </filter>
    <style>
      .neighbor { fill: #ffffff; stroke: #94a3b8; stroke-width: 1.2; opacity: 0.72; }
      .country { fill: url(#terrain); stroke: #1f2937; stroke-width: 4; filter: url(#softShadow); }
      .admin1 { fill: none; stroke: #64748b; stroke-width: 1.1; stroke-dasharray: 6 7; opacity: 0.75; }
      .river { fill: none; stroke: #1d9bd1; stroke-width: 3; stroke-linecap: round; opacity: 0.88; }
      .lake { fill: #8ed1ea; stroke: #0ea5e9; stroke-width: 1.5; opacity: 0.8; }
      .city circle { fill: #ef4444; stroke: #ffffff; stroke-width: 2; }
      .city text, .terrain-label { fill: #172033; font: 700 24px system-ui, sans-serif; paint-order: stroke; stroke: #ffffff; stroke-width: 5; stroke-linejoin: round; }
      .map-title { fill: #0f172a; font: 800 46px system-ui, sans-serif; }
      .map-subtitle { fill: #475569; font: 600 24px system-ui, sans-serif; }
      .footer { fill: #64748b; font: 500 18px system-ui, sans-serif; }
    </style>
  </defs>
  <rect width="100%" height="100%" fill="#d8edf0" />
  <rect x="40" y="40" width="1520" height="1020" rx="32" fill="#ffffff" opacity="0.54" />
  <path class="neighbor" d="M 1416.2 -58.5 L 1390.1 -35.7 L 1361.7 -32.5 L 1360.1 1.8 L 1341 17.3 L 1273.1 6 L 1248.4 67.3 L 1230.9 74.9 L 1163.1 88.6 L 1193.9 148 L 1170.4 156.9 L 1173.2 176.5 L 1152.1 171.4 L 1134.9 159.1 L 1084.1 155.6 L 1027.4 154.6 L 1015 158.4 L 966.2 144 L 946.8 151.1 L 941.5 171.3 L 885.2 159.5 L 862.6 164.3 L 855 179.3 L 835.4 185.7 L 790.2 209.5 L 775.2 234 L 762.5 234.2 L 753.1 218 L 709.6 216.9 L 702.6 188.9 L 686 188.6 L 688.5 154.3 L 647.5 129.3 L 588.8 132 L 548.7 136.9 L 516 106.1 L 488 93.2 L 435 68.7 L 428.6 65.7 L 340.5 85.9 L 341.8 212.1 L 324.3 213.8 L 300.3 186.9 L 277.2 177.3 L 238.3 184.5 L 223.2 195.9 L 221.3 187.5 L 229.7 173.2 L 223.2 161.3 L 183.5 149.7 L 168.1 118.9 L 149.2 110.3 L 148 99.1 L 181.3 102.4 L 182.6 77.3 L 211.8 71.8 L 241.6 76.9 L 247.8 43.5 L 241.7 22.3 L 207.5 24 L 178.4 15.7 L 138.7 30.7 L 106.8 37.9 L 89.4 32.3 L 92.9 14.7 L 71.1 -8.1 L 45.7 -7.2 L 16.6 -30.4 L 36.4 -56.3 L 26.4 -63.3 L 53.7 -100.9 L 88.9 -81.1 L 93.2 -106.1 L 163.8 -143.3 L 217.3 -144.2 L 292.7 -120.5 L 333.2 -106.6 L 369.5 -121.1 L 423.8 -121.8 L 467.6 -104 L 477.5 -114.2 L 525.6 -112.7 L 534.2 -128.9 L 478.7 -152.4 L 511.5 -169.1 L 505.1 -178.4 L 538 -187.3 L 513.3 -210.8 L 529 -222.5 L 657 -234.4 L 673.8 -242.8 L 759.4 -255.5 L 790.2 -269.7 L 851.7 -262.3 L 862.4 -226.8 L 898.2 -235.1 L 942.1 -223.5 L 939.3 -204.8 L 972.1 -206.7 L 1057.9 -239 L 1045.4 -228.3 L 1089 -201.9 L 1165.5 -114.9 L 1183.7 -132.9 L 1230.9 -113.1 L 1280.1 -121.9 L 1299 -115.8 L 1315.4 -96 L 1339.4 -89.4 L 1353.9 -74.8 L 1398 -79.4 L 1416.2 -58.5 Z" />
<path class="neighbor" d="M 341.8 212.1 L 340.5 85.9 L 428.6 65.7 L 435 68.7 L 488 93.2 L 516 106.1 L 548.7 136.9 L 588.8 132 L 647.5 129.3 L 688.5 154.3 L 686 188.6 L 702.6 188.9 L 709.6 216.9 L 753.1 218 L 762.5 234.2 L 775.2 234 L 790.2 209.5 L 835.4 185.7 L 855 179.3 L 865.1 182.7 L 836.4 204.9 L 861.7 217.7 L 886 209.2 L 926.6 227.2 L 882.8 251.9 L 856.8 248.5 L 842.6 249.4 L 837.7 239.9 L 844.9 224 L 799.1 232 L 788.2 253.9 L 772 272.8 L 743.4 271.2 L 734.5 286.3 L 759.6 294.5 L 767 320 L 747.8 354.6 L 722 347.4 L 702.9 347.1 L 703.8 326.2 L 658.3 311.5 L 622.5 294.8 L 600.2 278.7 L 561.1 255 L 544.2 219.8 L 532.8 213.5 L 495.8 215.1 L 482.7 208.1 L 479 180.8 L 432.9 162.7 L 404.1 182.6 L 374.8 194.4 L 380.4 211.6 L 341.8 212.1 Z" />
<path class="neighbor" d="M 4543 -807.4 L 4586.6 -821.7 L 4586.6 -798.3 L 4549.1 -796.6 L 4543 -807.4 Z M 106.8 37.9 L 91.2 58.2 L 58 63.8 L 24 99.1 L 55.1 131.6 L 51.8 154.7 L 89.1 195 L 89.1 195 L 68.7 208.8 L 62.8 217.5 L 47.7 215.1 L 24.2 194.4 L 14.5 193.2 L -7 185.3 L -17.4 171.2 L -49.4 164.1 L -70.1 169.4 L -76.1 163.1 L -122.7 146.7 L -173.1 141.1 L -202 135.3 L -206.2 139.3 L -249.8 110.4 L -288.9 97.5 L -318.4 77.4 L -293.5 71.9 L -265.1 43.3 L -284.3 29.8 L -233.8 15.8 L -234.7 8.3 L -265.5 13.8 L -264.4 -1.4 L -246.7 -10.9 L -213.6 -13.4 L -208.2 -24.9 L -215.8 -43.7 L -201.9 -61.7 L -202.3 -71.7 L -252.7 -82.8 L -272.7 -82.5 L -293.9 -98.5 L -320.1 -93.1 L -363.6 -105.1 L -362.8 -111.8 L -375 -126.7 L -402.3 -128.3 L -405.1 -139 L -396.6 -145.9 L -418.5 -165.3 L -454 -162 L -464.3 -163.7 L -473 -155.9 L -485.8 -157.3 L -485.8 -157.3 L -494.2 -179.2 L -502.2 -190.6 L -495.6 -193.8 L -468 -192.6 L -454.7 -200 L -464.6 -209.2 L -487.6 -215.2 L -485.6 -221.4 L -499.5 -227.6 L -521 -250 L -513.6 -259.3 L -517 -275.3 L -550.4 -283.5 L -568.4 -279.4 L -573.3 -287.9 L -609.3 -296.5 L -620.3 -316.7 L -623.2 -333.3 L -639.7 -341.2 L -625 -352 L -635.2 -383.9 L -610.8 -403.7 L -616 -409.6 L -616 -409.6 L -577.1 -428.5 L -612.9 -444.8 L -612.9 -444.8 L -539.7 -488.5 L -507.9 -508.3 L -495 -525.7 L -545.7 -549.2 L -531.7 -571.5 L -562.5 -596.9 L -539.4 -626.3 L -579.2 -665.2 L -547.7 -691 L -600.1 -713.9 L -595.1 -737.8 L -567.4 -741 L -509.2 -754.7 L -509.2 -754.7 L -473.9 -766.6 L -417.7 -745.9 L -324 -737.8 L -194.7 -699.1 L -168.4 -682.8 L -166.1 -660 L -204.1 -642 L -260 -632.9 L -412.8 -658.9 L -437.9 -654.6 L -382.1 -629.5 L -379.9 -613.6 L -377.7 -578.7 L -333.6 -568.2 L -306.9 -559.3 L -302.5 -575.9 L -323.1 -590.6 L -301.3 -603.6 L -218.6 -582.3 L -189.8 -590.6 L -212.8 -615.7 L -133 -649.2 L -101.4 -647.3 L -69.5 -635.3 L -49.5 -658.8 L -78.1 -679.2 L -61.3 -699.7 L -86.5 -720.9 L 9.2 -709.9 L 28.8 -690.8 L -14.5 -686.5 L -14.3 -667.5 L 12.6 -655.8 L 65.5 -663.2 L 73.9 -685 L 145.4 -701.3 L 264.8 -730.7 L 290.6 -729 L 256.9 -708.3 L 299.3 -704.7 L 323.8 -716.4 L 388 -717.3 L 438.8 -731.5 L 477.8 -710.9 L 516.7 -733.6 L 480.8 -753.4 L 498.6 -764.7 L 599.7 -754.3 L 647.1 -743.6 L 771.1 -704.5 L 794 -722.4 L 759.2 -740.5 L 758.2 -747.8 L 717 -751.2 L 728.3 -767.4 L 710 -794.1 L 708.9 -805 L 772.1 -836 L 794.5 -867.1 L 820 -873.9 L 910.6 -864.8 L 917.7 -845.8 L 885.3 -818 L 906.6 -807.1 L 917.6 -783.2 L 909.8 -736.3 L 947.6 -715.3 L 932.9 -692.5 L 865.9 -643.9 L 905 -638.8 L 918.6 -651.2 L 956.2 -659.9 L 965.3 -676.9 L 994.9 -693.2 L 975 -712.6 L 991 -735.2 L 953.5 -738 L 945.3 -757.1 L 972.6 -791.4 L 928.2 -819.3 L 989.4 -842.4 L 981.5 -866.8 L 998.6 -867.5 L 1016.6 -848.6 L 1003.1 -815.5 L 1039.7 -809.3 L 1024.1 -834 L 1081.3 -847.4 L 1152.4 -849.2 L 1215.6 -829.7 L 1185.2 -858.2 L 1181.8 -894.7 L 1241.3 -901.6 L 1323.6 -900.1 L 1397.8 -904.6 L 1369.9 -922.4 L 1409.6 -944.9 L 1448.9 -945.9 L 1515.4 -962.8 L 1605.8 -967.4 L 1617.2 -976.8 L 1707.1 -980 L 1735.1 -972.3 L 1811.9 -990.5 L 1874.7 -989.9 L 1884.2 -1004.7 L 1916.9 -1019.2 L 1997.7 -1033.3 L 2056.4 -1022.2 L 2009.8 -1013.7 L 2087.3 -1008.5 L 2096.5 -991.6 L 2127.8 -999.9 L 2227.9 -999.5 L 2305 -982.8 L 2332.5 -969.9 L 2324 -952.2 L 2286.1 -942 L 2196.2 -923 L 2170.5 -912.9 L 2212.9 -908.1 L 2263.5 -899.5 L 2294.3 -905.9 L 2311.8 -884 L 2326.8 -892.9 L 2381.5 -898.3 L 2491.3 -892.6 L 2499.7 -876.6 L 2642.8 -871.5 L 2644.7 -897.6 L 2717.3 -891.7 L 2772 -891.8 L 2827.2 -873.8 L 2843 -851.9 L 2822.7 -837.6 L 2865.7 -810.7 L 2919.6 -796.8 L 2952.6 -832.7 L 3007.5 -817.3 L 3065.8 -826.5 L 3132 -815.9 L 3157.3 -825.5 L 3213.2 -820.7 L 3188.5 -852.5 L 3233.7 -867.3 L 3542.8 -845.1 L 3571.9 -824.8 L 3661.5 -798.6 L 3799.7 -805.1 L 3867.9 -799.5 L 3896.4 -785.3 L 3892.2 -760.3 L 3934.3 -750.6 L 3980.2 -757.6 L 4040.8 -758.5 L 4105.5 -751.8 L 4170.3 -755.5 L 4229.9 -725.1 L 4272.3 -736.1 L 4244.7 -757.9 L 4259.9 -773.1 L 4369.1 -763.6 L 4440.3 -765.6 L 4538.7 -749.3 L 4586.6 -734.4 L 4586.6 -598 L 4586.4 -597.8 L 4542.4 -582.8 L 4498 -585.3 L 4528.9 -567.1 L 4549.3 -538.9 L 4565.1 -529.7 L 4569 -515.5 L 4560.2 -506.4 L 4496.4 -513.9 L 4400.8 -488.1 L 4370.3 -484.1 L 4318 -460.1 L 4268.3 -439.1 L 4255.7 -423.5 L 4206.8 -447.2 L 4117.6 -420.4 L 4102 -433.1 L 4069.1 -418.4 L 4023.3 -423.1 L 4012.3 -400.6 L 3971.2 -367.5 L 3972.4 -353.6 L 4011.4 -346 L 4006.8 -296.1 L 3975 -294.9 L 3960.4 -266.2 L 3974.6 -251.5 L 3914.8 -234 L 3902.9 -195 L 3851.9 -186.6 L 3841.6 -151.8 L 3792.3 -120 L 3779.6 -143.5 L 3765 -193.5 L 3745.9 -269.5 L 3762.3 -317 L 3791.2 -337.4 L 3793 -353.4 L 3846.2 -361 L 3907.3 -404.1 L 3966.2 -439.3 L 4027.7 -466.6 L 4055.3 -514.9 L 4013.7 -512 L 3993.1 -483.8 L 3906.3 -446.2 L 3878.3 -488.3 L 3789.9 -476.7 L 3704.3 -419.3 L 3732.5 -398.3 L 3656.2 -389.4 L 3603.2 -385.9 L 3605.7 -410.6 L 3552.5 -415.8 L 3510.1 -399 L 3405.5 -404.9 L 3292.9 -394.7 L 3182 -327.9 L 3050.9 -247.2 L 3104.8 -242.9 L 3121.6 -221.5 L 3154.9 -213.9 L 3176.8 -231 L 3214.3 -228.7 L 3263.7 -191.1 L 3264.9 -162 L 3238.1 -127.8 L 3235.2 -86.9 L 3219.8 -32.2 L 3168.2 17.3 L 3156.8 41 L 3110.3 80.9 L 3064.2 120.4 L 3042.1 140.6 L 2996.5 160.7 L 2974.9 161.1 L 2953.4 144.5 L 2907.5 169.5 L 2902.1 180.9 L 2902.1 180.9 L 2902.1 180.9 L 2902.1 180.9 L 2897.4 174.9 L 2897.4 174.9 L 2897.1 157.5 L 2914.6 156.6 L 2919.6 116.2 L 2910.5 86.9 L 2939.9 74.8 L 2981.4 80.8 L 3004.5 47.5 L 3016.2 10 L 3029.5 -2.5 L 3047.5 -33.3 L 2990.9 -23.2 L 2961.2 -9.7 L 2909.2 -9.7 L 2895.4 -41.9 L 2854.8 -66.2 L 2795.3 -77.1 L 2782.6 -110.7 L 2770.7 -131.7 L 2757.9 -146.4 L 2736.7 -180.9 L 2706.7 -193.5 L 2655.4 -203.7 L 2610.1 -202.8 L 2567.5 -196.6 L 2539.3 -179.6 L 2558.1 -171.5 L 2558.5 -152.6 L 2539.5 -141.6 L 2508.6 -105.3 L 2508.9 -90.2 L 2460.6 -68.6 L 2419.6 -81.5 L 2378.7 -78.7 L 2360.8 -90.2 L 2340.3 -93.9 L 2290.2 -69.7 L 2245.1 -64.1 L 2213.6 -55.6 L 2170.5 -61.2 L 2138.8 -60.8 L 2118 -78.3 L 2084.5 -94.7 L 2050.2 -99.2 L 2006.9 -94.8 L 1974.6 -88.4 L 1926 -102.8 L 1919.4 -128.5 L 1879.2 -137.3 L 1848.1 -141.3 L 1809.8 -155.4 L 1774.3 -120 L 1788.2 -99.8 L 1755 -76 L 1705.5 -84.6 L 1671.3 -85.8 L 1648.5 -101.8 L 1612.8 -102.3 L 1583 -112.8 L 1530.9 -96.7 L 1465.6 -67.2 L 1429.6 -61.3 L 1416.2 -58.5 L 1398 -79.4 L 1353.9 -74.8 L 1339.4 -89.4 L 1315.4 -96 L 1299 -115.8 L 1280.1 -121.9 L 1230.9 -113.1 L 1183.7 -132.9 L 1165.5 -114.9 L 1089 -201.9 L 1045.4 -228.3 L 1057.9 -239 L 972.1 -206.7 L 939.3 -204.8 L 942.1 -223.5 L 898.2 -235.1 L 862.4 -226.8 L 851.7 -262.3 L 790.2 -269.7 L 759.4 -255.5 L 673.8 -242.8 L 657 -234.4 L 529 -222.5 L 513.3 -210.8 L 538 -187.3 L 505.1 -178.4 L 511.5 -169.1 L 478.7 -152.4 L 534.2 -128.9 L 525.6 -112.7 L 477.5 -114.2 L 467.6 -104 L 423.8 -121.8 L 369.5 -121.1 L 333.2 -106.6 L 292.7 -120.5 L 217.3 -144.2 L 163.8 -143.3 L 93.2 -106.1 L 88.9 -81.1 L 53.7 -100.9 L 26.4 -63.3 L 36.4 -56.3 L 16.6 -30.4 L 45.7 -7.2 L 71.1 -8.1 L 92.9 14.7 L 89.4 32.3 L 106.8 37.9 Z M 1635.8 -1147.1 L 1709.8 -1154.8 L 1776.3 -1137.6 L 1855.1 -1104.5 L 1846.7 -1073.8 L 1772 -1069.5 L 1676.7 -1079.4 L 1619.9 -1092.4 L 1593.6 -1117 L 1546.9 -1123.7 L 1635.8 -1147.1 Z M 1945.9 -1087.5 L 2032.6 -1068 L 2022.4 -1054.1 L 1829.5 -1040.9 L 1892 -1085.8 L 1920.2 -1089.7 L 1945.9 -1087.5 Z M 3177.7 -979.8 L 3268.1 -978.3 L 3391.8 -960.2 L 3364.8 -934.8 L 3238.7 -935.7 L 3181.9 -927.6 L 3114.1 -949.9 L 3132.5 -973.4 L 3177.7 -979.8 Z M 3499.1 -952.8 L 3585 -943.8 L 3545.4 -930.3 L 3490.7 -933.4 L 3427.1 -946.9 L 3435.3 -957.9 L 3499.1 -952.8 Z M 3213 -885.1 L 3245.5 -898.7 L 3288.3 -901.8 L 3336.9 -888.8 L 3341 -879.8 L 3289.1 -879.5 L 3219 -883.3 L 3213 -885.1 Z M -38.8 -1132.2 L 28 -1138.5 L 80 -1138.9 L 87 -1129.7 L 106.7 -1137.9 L 138.9 -1143.5 L 189.7 -1136 L 176.5 -1130.8 L 130.5 -1126.3 L 99.7 -1123.7 L 95 -1118.1 L 55 -1112.4 L 17.9 -1120.5 L 37.4 -1131.2 L -38.8 -1132.2 Z M -795.7 -233.5 L -858.6 -232.9 L -900.7 -236.8 L -892.9 -251.9 L -845.7 -263 L -809.9 -257 L -794.7 -251.6 L -798.4 -242.2 L -795.7 -233.5 Z M 257.6 -898.2 L 339.6 -928.2 L 330.3 -943.7 L 406.9 -961.8 L 519.9 -983.8 L 633.8 -990.2 L 692.4 -1002.9 L 759 -1007.3 L 782.8 -993.8 L 759.8 -983.2 L 638.5 -966.2 L 534 -949.9 L 427.7 -917.3 L 376.7 -883.9 L 323 -851 L 330 -822.5 L 395.5 -794.5 L 375.3 -791.5 L 263.4 -795.9 L 254.3 -811.1 L 192.4 -820.3 L 187.4 -838.8 L 222.4 -846.1 L 221.2 -864.8 L 289.1 -894 L 257.6 -898.2 Z M 3317.4 -212.1 L 3329.3 -179.2 L 3328.4 -145.5 L 3342.5 -110.9 L 3377 -50.3 L 3326.3 -61.6 L 3305.3 -12.2 L 3338.6 22.9 L 3337.7 46.8 L 3311.7 26.2 L 3289.3 52.7 L 3282.9 24 L 3286.8 -9.4 L 3282.9 -46.3 L 3290.8 -72.2 L 3292.3 -117.9 L 3272.2 -151.6 L 3275.3 -198.4 L 3306.9 -214.1 L 3293.3 -230 L 3308.5 -234.8 L 3317.4 -212.1 Z M -7560.3 -674.2 L -7563.2 -652.9 L -7540.1 -644.4 L -7548.1 -669.3 L -7455.2 -664.2 L -7388.2 -632.1 L -7422.1 -617.2 L -7478.2 -613.7 L -7479 -580.3 L -7492.7 -573.1 L -7524.8 -574.2 L -7550.9 -586.1 L -7596.4 -596.1 L -7604 -610.9 L -7638.8 -616.5 L -7677.7 -612.1 L -7696.3 -624 L -7688.9 -636.8 L -7729.8 -628.6 L -7714.4 -612.5 L -7733.8 -598 L -7733.8 -734.4 L -7650 -708.2 L -7560.3 -674.2 Z M -7689.1 -800.4 L -7733.8 -798.3 L -7733.8 -821.7 L -7729.4 -823.1 L -7700.4 -823.1 L -7650.9 -813.3 L -7653.9 -808.6 L -7689.1 -800.4 Z M -429.3 52.5 L -420.3 44 L -396 51.4 L -384.9 52.7 L -380.5 59.5 L -375.3 60.5 L -375.1 63.5 L -358.3 71.7 L -323.4 69.7 L -330.1 81.9 L -367.6 87.8 L -414 107.6 L -433.1 100.7 L -425.5 84.6 L -462.9 74.6 L -456.9 68 L -424.1 56.6 L -429.3 52.5 Z" />
<path class="neighbor" d="M 191.6 796.1 L 197.7 794.4 L 199 803.8 L 225.8 798.4 L 254.1 799.3 L 274.7 800.3 L 298.2 777.2 L 323.7 755.2 L 345.3 734.1 L 351.9 745.8 L 356.5 772.8 L 339 772.9 L 336.2 795.2 L 342.3 800 L 326.8 806.7 L 326.7 820.7 L 316.7 834.9 L 315.8 848.7 L 308.9 855.9 L 206 838.6 L 192.9 804 L 191.6 796.1 Z" />
<path class="neighbor" d="M 315.8 848.7 L 316.7 834.9 L 326.7 820.7 L 326.8 806.7 L 342.3 800 L 336.2 795.2 L 339 772.9 L 356.5 772.8 L 371.8 796.2 L 390.9 808.6 L 416.1 813.1 L 436.3 819.3 L 451.8 838.9 L 461 850.3 L 473.2 854.6 L 473.2 862.3 L 460.7 882.7 L 455.3 892.3 L 440.8 903.2 L 428.1 926.7 L 412.5 924.9 L 405.4 933 L 399.9 950.4 L 404.1 973.3 L 400.9 977.5 L 385.2 977.4 L 363.8 990.1 L 360.4 1006.8 L 352.6 1014 L 331.3 1013.8 L 317.9 1022.4 L 318.1 1036.2 L 301.5 1045.7 L 282.7 1042.5 L 259.8 1054 L 244 1056 L 232.8 1032.1 L 206 975.6 L 308.7 941.4 L 331.5 872.9 L 315.8 848.7 Z M 351.9 745.8 L 345.3 734.1 L 355.3 722.5 L 359.5 725.4 L 356.3 739.6 L 351.9 745.8 Z" />
<path class="neighbor" d="M 1757.3 658.6 L 1759.9 671.6 L 1747.9 677.9 L 1750.7 698.9 L 1726.2 692.7 L 1681.9 716.4 L 1682.9 736 L 1664.1 764.7 L 1662.3 781.3 L 1647.1 809.6 L 1620.3 801.8 L 1619 837.2 L 1611.2 848.8 L 1614.9 863.4 L 1598 871.5 L 1580 817.2 L 1570.5 817.3 L 1564.9 839.2 L 1546.2 821.4 L 1556.7 802 L 1572.1 800 L 1587.8 771 L 1568.1 765.2 L 1536.4 765.7 L 1503.8 761 L 1500.8 737.2 L 1484.4 735.5 L 1457.3 720.7 L 1445.2 743.9 L 1469.9 762.1 L 1448.6 774.8 L 1441 787.3 L 1462 796.5 L 1456.2 817.1 L 1468.1 842.8 L 1473.4 871 L 1468.5 883.5 L 1445.2 883.1 L 1403 890.2 L 1405 915.9 L 1386.7 936.2 L 1337.5 959.2 L 1299.2 999.5 L 1273.4 1021.1 L 1239.3 1043.5 L 1239.3 1059.2 L 1222.2 1067.6 L 1191.4 1079.9 L 1175.4 1081.7 L 1165.1 1107.8 L 1172.3 1152.3 L 1174.1 1180.7 L 1159.6 1213.2 L 1159.4 1271.4 L 1141.7 1273 L 1126.1 1299.1 L 1136.5 1310.4 L 1105.3 1320.1 L 1093.8 1343.4 L 1080.1 1353.2 L 1047.7 1321.3 L 1031.8 1273.3 L 1018.7 1238.8 L 1006.7 1222.6 L 988.5 1189.7 L 980 1146.9 L 974.1 1125.6 L 943 1078.6 L 928.8 1012.2 L 918.6 968.4 L 918.7 927 L 912.1 894.9 L 862.3 915.4 L 838.1 911.3 L 793.4 869.8 L 809.9 857.5 L 799.8 844 L 759.6 815 L 782.4 792.2 L 857.7 792.3 L 851 762.9 L 831.7 745.5 L 827.8 719.2 L 805.4 703.8 L 843.1 667.9 L 882.9 670.5 L 918.7 634.7 L 940.1 599.9 L 973.4 565.6 L 972.8 541.2 L 1002 521.4 L 974.4 504.5 L 962.5 481.3 L 950.4 451.4 L 967.2 436.6 L 1019.1 444.9 L 1057.2 439.9 L 1090.3 411.1 L 1127.1 451.2 L 1123.6 479.1 L 1137.2 496.6 L 1136.1 514.1 L 1111.5 509.5 L 1121.1 547.2 L 1154.7 568.9 L 1202.3 592.8 L 1180.6 608.4 L 1167.3 640.4 L 1200.5 653.3 L 1232.7 670.1 L 1277.4 689.3 L 1324.3 693.7 L 1344 711.2 L 1370.5 714.4 L 1411.6 722.4 L 1440.1 721.8 L 1444.1 708.3 L 1439.5 686.5 L 1442.2 671.8 L 1463.1 664.6 L 1465.9 691.5 L 1466.7 698.4 L 1497.8 711.4 L 1519.3 706 L 1548.2 708.3 L 1576.1 707.3 L 1578.5 686.3 L 1564.6 675.4 L 1592.2 671.1 L 1623.3 645.6 L 1662.8 623.8 L 1691.5 632.3 L 1715.9 617.8 L 1731.9 639.1 L 1720.4 653.5 L 1757.3 658.6 Z" />
<path class="neighbor" d="M 1442.2 671.8 L 1439.5 686.5 L 1444.1 708.3 L 1440.1 721.8 L 1411.6 722.4 L 1370.5 714.4 L 1344 711.2 L 1324.3 693.7 L 1277.4 689.3 L 1232.7 670.1 L 1200.5 653.3 L 1167.3 640.4 L 1180.6 608.4 L 1202.3 592.8 L 1216.5 584.7 L 1243.9 595.2 L 1278.5 617.5 L 1297.7 622.4 L 1309.2 638.8 L 1335.8 645.6 L 1363.6 660.6 L 1402.3 668.4 L 1442.2 671.8 Z" />
<path class="neighbor" d="M 702.9 347.1 L 722 347.4 L 747.8 354.6 L 758.2 358.8 L 783 347.8 L 794.5 354.4 L 805.6 338.7 L 826 339.4 L 831.3 334.4 L 834.9 320.6 L 849.7 308.7 L 868.2 316.5 L 864.5 326.9 L 874.8 328.6 L 871.6 357.3 L 885.2 368.5 L 897.1 361.3 L 912.3 357.9 L 933.6 342.6 L 957.2 345.1 L 992.5 345.2 L 998.6 355 L 978.6 358.8 L 961.3 365.2 L 922 369.1 L 885.2 376.3 L 865.2 391.2 L 873.3 405.7 L 877.3 422.8 L 860.2 437.1 L 861.6 450.3 L 852.2 462.6 L 819.7 461.5 L 833.1 484.2 L 811.3 492.8 L 796.8 513.5 L 798.7 534 L 785.3 543.7 L 772.7 540.5 L 746.5 544.9 L 742.8 554.5 L 717.3 554.5 L 698.2 573.8 L 697 603 L 652.5 617.2 L 628.7 614.2 L 621.8 621.7 L 601.3 617.3 L 567.1 622.4 L 509.7 605 L 540.8 573.9 L 538 551.9 L 512 546.1 L 509.4 524.4 L 498.2 497.1 L 512.8 478.3 L 497.9 473.3 L 507.3 448.4 L 521.2 405.8 L 556.2 418.7 L 582 414.2 L 589.1 398.7 L 616.1 393.5 L 635.4 383.1 L 642.2 355.7 L 671.1 349.1 L 676.4 336.9 L 692.6 346.1 L 702.9 347.1 Z" />
<path class="neighbor" d="M 747.8 354.6 L 767 320 L 759.6 294.5 L 734.5 286.3 L 743.4 271.2 L 772 272.8 L 788.2 253.9 L 799.1 232 L 844.9 224 L 837.7 239.9 L 842.6 249.4 L 856.8 248.5 L 844.2 259.1 L 807 253.4 L 803.7 273.1 L 840.8 270.4 L 883.1 281.5 L 947.8 276.3 L 956.5 308 L 967.8 304.6 L 988.5 312.4 L 987.3 325.7 L 992.5 345.2 L 957.2 345.1 L 933.6 342.6 L 912.3 357.9 L 897.1 361.3 L 885.2 368.5 L 871.6 357.3 L 874.8 328.6 L 864.5 326.9 L 868.2 316.5 L 849.7 308.7 L 834.9 320.6 L 831.3 334.4 L 826 339.4 L 805.6 338.7 L 794.5 354.4 L 783 347.8 L 758.2 358.8 L 747.8 354.6 Z" />
<path class="neighbor" d="M 855 179.3 L 862.6 164.3 L 885.2 159.5 L 941.5 171.3 L 946.8 151.1 L 966.2 144 L 1015 158.4 L 1027.4 154.6 L 1084.1 155.6 L 1134.9 159.1 L 1152.1 171.4 L 1173.2 176.5 L 1168.4 184.2 L 1114.4 202.7 L 1102.2 216.3 L 1058.3 220.4 L 1045.4 242.2 L 1009.2 237.6 L 985.5 244.3 L 952.9 260.5 L 957.6 268.5 L 947.8 276.3 L 883.1 281.5 L 840.8 270.4 L 803.7 273.1 L 807 253.4 L 844.2 259.1 L 856.8 248.5 L 882.8 251.9 L 926.6 227.2 L 886 209.2 L 861.7 217.7 L 836.4 204.9 L 865.1 182.7 L 855 179.3 Z" />
<path class="neighbor" d="M 223.2 195.9 L 238.3 184.5 L 277.2 177.3 L 300.3 186.9 L 324.3 213.8 L 341.8 212.1 L 380.4 211.6 L 374.8 194.4 L 404.1 182.6 L 432.9 162.7 L 479 180.8 L 482.7 208.1 L 495.8 215.1 L 532.8 213.5 L 544.2 219.8 L 561.1 255 L 600.2 278.7 L 622.5 294.8 L 658.3 311.5 L 703.8 326.2 L 702.9 347.1 L 692.6 346.1 L 676.4 336.9 L 671.1 349.1 L 642.2 355.7 L 635.4 383.1 L 616.1 393.5 L 589.1 398.7 L 582 414.2 L 556.2 418.7 L 521.2 405.8 L 518.2 377 L 492.7 375.7 L 453.6 345.4 L 426.3 341.7 L 388.4 324.3 L 364.1 321.2 L 349.1 327.5 L 326.2 326.6 L 301.9 346.1 L 271.8 352.7 L 265.4 328.5 L 270.4 292.7 L 243.7 281.2 L 252.5 257.7 L 229.8 255.7 L 237.3 226.9 L 269.6 235.3 L 299.7 224.3 L 274.8 203.8 L 264.9 184.2 L 237.4 192.9 L 233.9 218 L 223.2 195.9 Z" />
<path class="neighbor" d="M 88.6 601.6 L 69.6 583.6 L 69.3 565.4 L 58.4 565.4 L 64 540.6 L 46.4 514.6 L 4.4 495.9 L -19.3 463.3 L -11.3 436.6 L 5.9 424.8 L 3.3 404.8 L -19.1 394.5 L -41.3 353.7 L -41.3 353.7 L -60 326.3 L -53.3 315.7 L -64 276.5 L -40.6 266.7 L -35.2 279.6 L -17.9 295.4 L 5.6 300 L 18 299 L 58.4 273.7 L 71.2 271.2 L 81.3 281.2 L 69.5 298.2 L 90.8 316.1 L 99.4 314.4 L 110.2 339.6 L 142.6 346.7 L 166.4 363.9 L 215.1 369.8 L 268.5 360.7 L 271.8 352.7 L 301.9 346.1 L 326.2 326.6 L 349.1 327.5 L 364.1 321.2 L 388.4 324.3 L 426.3 341.7 L 453.6 345.4 L 492.7 375.7 L 518.2 377 L 521.2 405.8 L 507.3 448.4 L 497.9 473.3 L 512.8 478.3 L 498.2 497.1 L 509.4 524.4 L 512 546.1 L 538 551.9 L 540.8 573.9 L 509.7 605 L 526.7 623 L 540.4 643.6 L 573.2 658.7 L 574.1 688.8 L 590.5 694.4 L 593.3 710.1 L 544 727.8 L 531.1 767.6 L 466.7 757.2 L 429.4 749.4 L 390.7 744.9 L 376.1 702.9 L 359.8 696.9 L 333.5 703 L 298.9 719.6 L 257.1 708.2 L 222.6 681.9 L 189.6 672.2 L 166.8 639.7 L 141.5 594.1 L 123.1 599.6 L 101.3 588.3 L 88.6 601.6 Z" />
<path class="neighbor" d="M 2173 1003 L 2145 992.4 L 2144 963 L 2160.8 947.5 L 2198.2 937.9 L 2217.9 938.7 L 2225.6 951.8 L 2210.5 966.8 L 2202.6 986.6 L 2173 1003 Z M 1173.2 176.5 L 1170.4 156.9 L 1193.9 148 L 1163.1 88.6 L 1230.9 74.9 L 1248.4 67.3 L 1273.1 6 L 1341 17.3 L 1360.1 1.8 L 1361.7 -32.5 L 1390.1 -35.7 L 1416.2 -58.5 L 1429.6 -61.3 L 1438.5 -37.4 L 1467.3 -19.3 L 1516.1 -6.4 L 1539.7 21.1 L 1526.6 61.1 L 1538.9 76 L 1579.5 81.8 L 1625.6 86.6 L 1667 107.9 L 1688.1 111.7 L 1703.7 143.3 L 1723.8 163.6 L 1761.5 162.8 L 1832.2 170.5 L 1877.7 165.7 L 1911.5 170.8 L 1962.1 191.6 L 2003.5 191.6 L 2018.7 202.2 L 2058.5 183.8 L 2113.8 172 L 2165.1 170.7 L 2205.1 158.6 L 2229.6 140.3 L 2253.6 128.8 L 2248.1 117.5 L 2237.1 104.3 L 2255.1 82.3 L 2274.4 85.4 L 2309.5 92.3 L 2343.6 74.1 L 2395.8 60.9 L 2420.9 38.3 L 2445 28.5 L 2494.7 24 L 2521.7 27.8 L 2525.4 15.7 L 2494.4 -8.2 L 2467 -19.2 L 2440.7 -6.6 L 2406.9 -11.9 L 2387.5 -7.5 L 2378.7 -21.5 L 2402.9 -55.7 L 2419.6 -81.5 L 2460.6 -68.6 L 2508.9 -90.2 L 2508.6 -105.3 L 2539.5 -141.6 L 2558.5 -152.6 L 2558.1 -171.5 L 2539.3 -179.6 L 2567.5 -196.6 L 2610.1 -202.8 L 2655.4 -203.7 L 2706.7 -193.5 L 2736.7 -180.9 L 2757.9 -146.4 L 2770.7 -131.7 L 2782.6 -110.7 L 2795.3 -77.1 L 2854.8 -66.2 L 2895.4 -41.9 L 2909.2 -9.7 L 2961.2 -9.7 L 2990.9 -23.2 L 3047.5 -33.3 L 3029.5 -2.5 L 3016.2 10 L 3004.5 47.5 L 2981.4 80.8 L 2939.9 74.8 L 2910.5 86.9 L 2919.6 116.2 L 2914.6 156.6 L 2897.1 157.5 L 2897.4 174.9 L 2875.3 154.7 L 2861.7 173.9 L 2808.8 188.6 L 2814.1 206.7 L 2784.5 205.4 L 2768.3 194.7 L 2744.8 219 L 2707.1 237.4 L 2679.2 259.3 L 2631.4 269.3 L 2606.2 285.3 L 2569.3 294.6 L 2587.5 278.8 L 2580.3 265.4 L 2607.4 242.4 L 2589.4 224.5 L 2559.5 236.6 L 2520.9 260.4 L 2499.8 282.5 L 2466.2 284.1 L 2448.8 300.1 L 2466.8 323.2 L 2494.8 328.8 L 2496 344.2 L 2523 354.2 L 2561.4 329.8 L 2591.8 343.1 L 2613.9 344 L 2619.5 361.9 L 2571 371.5 L 2555 390 L 2521.7 407.1 L 2504.2 431.1 L 2541 449.9 L 2554.5 483.6 L 2575.3 514.9 L 2598.5 541.2 L 2598 566.6 L 2576.5 576 L 2584.7 594.2 L 2604.8 604.8 L 2599.6 632.7 L 2590.9 659.8 L 2571.7 662.9 L 2546.8 700 L 2519 744.9 L 2487.3 785.7 L 2440.2 817.3 L 2392.6 846.1 L 2354 850 L 2333.1 865.2 L 2321.3 854.1 L 2301.9 871.1 L 2254.1 888.3 L 2217.9 893.5 L 2206.2 929.7 L 2187.2 931.7 L 2178.2 906.8 L 2186.3 893.6 L 2140.4 882.7 L 2124.3 888.2 L 2089.8 879.3 L 2073.5 865.4 L 2078.9 845.7 L 2047.6 839.5 L 2031.1 826.6 L 2002 844.9 L 1968.7 848.8 L 1941.4 848.6 L 1923 857 L 1905.3 862 L 1910.5 901.2 L 1892.2 900.2 L 1889.1 892.2 L 1888.1 878 L 1863 888 L 1848.2 881.7 L 1822.8 868.9 L 1832.7 840.4 L 1811.1 833.8 L 1802.9 802.3 L 1766.8 808 L 1770.9 767.4 L 1803.3 738.8 L 1804.7 710.6 L 1803.7 684.4 L 1788.7 676.2 L 1777.3 656.1 L 1757.3 658.6 L 1720.4 653.5 L 1731.9 639.1 L 1715.9 617.8 L 1691.5 632.3 L 1662.8 623.8 L 1623.3 645.6 L 1592.2 671.1 L 1564.6 675.4 L 1549.6 666.2 L 1531.5 665.3 L 1507.1 657.4 L 1488.6 666.1 L 1465.9 691.5 L 1463.1 664.6 L 1442.2 671.8 L 1402.3 668.4 L 1363.6 660.6 L 1335.8 645.6 L 1309.2 638.8 L 1297.7 622.4 L 1278.5 617.5 L 1243.9 595.2 L 1216.5 584.7 L 1202.3 592.8 L 1154.7 568.9 L 1121.1 547.2 L 1111.5 509.5 L 1136.1 514.1 L 1137.2 496.6 L 1123.6 479.1 L 1127.1 451.2 L 1090.3 411.1 L 1034 397.3 L 1023.9 371 L 998.6 355 L 992.5 345.2 L 987.3 325.7 L 988.5 312.4 L 967.8 304.6 L 956.5 308 L 947.8 276.3 L 957.6 268.5 L 952.9 260.5 L 985.5 244.3 L 1009.2 237.6 L 1045.4 242.2 L 1058.3 220.4 L 1102.2 216.3 L 1114.4 202.7 L 1168.4 184.2 L 1173.2 176.5 Z" />
<path class="neighbor" d="M 206 975.6 L 232.8 1032.1 L 244 1056 L 219.2 1065.2 L 212.6 1080.4 L 211.8 1092 L 177.7 1106.5 L 123 1122.4 L 92.4 1146.6 L 77.3 1148.5 L 67 1146.4 L 47 1160.6 L 25.2 1167.2 L -3.5 1169 L -12.2 1171 L -19.6 1180 L -28.6 1182.5 L -33.9 1191.2 L -50.8 1190.4 L -61.8 1195.1 L -85.5 1193.3 L -94.4 1173.4 L -93.4 1154.6 L -99 1144.5 L -105.7 1119.2 L -115.5 1105.2 L -108.7 1103.5 L -112.2 1087.9 L -108 1081.3 L -109.5 1066.3 L -94.5 1055.4 L -98 1041 L -89 1024.2 L -74.9 1033.1 L -65.6 1030 L -26.1 1029.2 L -19.9 1032.6 L 13.2 1036 L 26.3 1034.3 L 34.9 1045.7 L 50.9 1040 L 75.4 1004.1 L 107.3 988.7 L 206 975.6 Z" />
<path class="neighbor" d="M -377.3 621.1 L -339.2 626.6 L -324.4 616 L -316.2 603.7 L -290.1 599 L -284.5 587.5 L -273.1 581.7 L -307.3 547.5 L -238.7 530.3 L -232.2 525.2 L -191 534.4 L -140 558.4 L -43.5 627.2 L 20.1 630 L 50.6 633.3 L 59.2 649.6 L 83.4 648.7 L 96.8 678.2 L 113.6 686 L 119.5 698 L 142.8 712.4 L 144.9 726.5 L 141.5 737.9 L 145.8 749.4 L 155.6 759 L 160.2 770.2 L 165.3 778.6 L 175.6 785.4 L 185.1 783 L 191.6 796.1 L 192.9 804 L 206 838.6 L 308.9 855.9 L 315.8 848.7 L 331.5 872.9 L 308.7 941.4 L 206 975.6 L 107.3 988.7 L 75.4 1004.1 L 50.9 1040 L 34.9 1045.7 L 26.3 1034.3 L 13.2 1036 L -19.9 1032.6 L -26.1 1029.2 L -65.6 1030 L -74.9 1033.1 L -89 1024.2 L -98 1041 L -94.5 1055.4 L -109.5 1066.3 L -114 1051.7 L -124.3 1041.4 L -126.9 1027.8 L -144.6 1015.5 L -162.9 986.8 L -172.5 958.9 L -196.2 935.4 L -211.4 929.8 L -234.1 897.1 L -238.1 873.4 L -236.6 853.1 L -256.2 815.1 L -272.3 801.8 L -290.8 794.7 L -302 775.1 L -300.2 767.3 L -309.7 749.6 L -319.7 742 L -333 716.5 L -353.9 688.9 L -371.3 665.4 L -388.4 665.6 L -383 646.8 L -381.5 634.8 L -377.3 621.1 Z" />
<path class="lake" d="M 1106.2 168.3 L 1105.8 169.1 L 1101.2 169.6 L 1096.3 171.8 L 1091.4 173.8 L 1090.8 174.7 L 1090.8 175.9 L 1086.1 180.2 L 1082 181.6 L 1079.2 182.2 L 1066.3 182.7 L 1062.4 182.5 L 1058.9 181.9 L 1047.2 178.5 L 1042.2 177.5 L 1038.6 177.1 L 1036.4 177.2 L 1035.2 175.1 L 1034.8 173.5 L 1035.1 172.7 L 1042.9 171.7 L 1053 169.1 L 1060.4 167.5 L 1068.1 166.3 L 1073.2 165.5 L 1079.9 166.1 L 1085 164.4 L 1098 163.6 L 1104.3 163.3 L 1101 165.4 L 1099.9 166.5 L 1100.5 167.6 L 1106.2 168.3 L 1106.2 168.3 L 1106.2 168.3 Z" />
<path class="lake" d="M 406.7 196.2 L 405.1 198.7 L 400.6 200.9 L 395.2 202.3 L 391.8 202.9 L 389 203 L 385.6 200.3 L 383.1 197.5 L 381.1 197.6 L 379.3 197.9 L 379 196.2 L 380.3 189.5 L 383.4 182.1 L 386.5 178.1 L 390.6 177 L 396 179.5 L 398.6 183.3 L 398.1 184.8 L 398.8 186.2 L 400.5 188.1 L 401.1 191.4 L 406.1 194 L 406.7 196.2 L 406.7 196.2 L 406.7 196.2 Z" />
<path class="lake" d="M 1274.8 549 L 1273.8 549 L 1270.2 548.1 L 1266.6 547.3 L 1264 547.2 L 1262.1 546.4 L 1261.4 545.6 L 1263.3 545.2 L 1264.5 544.5 L 1264.7 543.9 L 1266.1 543.4 L 1269 543 L 1270.4 542.6 L 1271.8 544.5 L 1274.1 545.8 L 1276.9 547.5 L 1278.6 549.1 L 1278.4 549.7 L 1277.1 549.6 L 1274.8 549 L 1274.8 549 L 1274.8 549 Z" />
<path class="lake" d="M 1365.8 567.3 L 1364.5 568.8 L 1364.3 570.8 L 1363.7 572.3 L 1362.8 573.1 L 1362.2 573.1 L 1362.3 572.1 L 1361.3 570.4 L 1359.1 569.3 L 1357.3 569.4 L 1355.9 569.9 L 1354.8 570.3 L 1352.9 570.2 L 1350.4 569.3 L 1348.3 568.1 L 1347.5 566.8 L 1347.7 565.2 L 1349.1 563.7 L 1351.7 563.3 L 1354.6 563.9 L 1357.5 564 L 1360.2 563.9 L 1363.1 564.7 L 1365.4 565.6 L 1365.8 566.5 L 1365.8 567.3 L 1365.8 567.3 L 1365.8 567.3 L 1365.8 567.3 Z" />
<path class="lake" d="M 934.7 196.7 L 933.8 196.8 L 931.6 197.1 L 928.4 196.7 L 923.8 196.8 L 919.2 197.3 L 913.7 200 L 912.9 199.8 L 912.2 199.1 L 913 198.7 L 914.1 197.7 L 914.7 196.4 L 914 194.5 L 913 192.7 L 914 191.9 L 918.5 191.9 L 922.7 192.6 L 925.1 193.4 L 927.6 194.3 L 932.9 195.2 L 935 196.1 L 934.7 196.7 L 934.7 196.7 L 934.7 196.7 Z" />
<path class="lake" d="M 1209.1 577.4 L 1208.4 578 L 1207.2 578.3 L 1205.7 578.2 L 1203.9 577.4 L 1202.8 576.5 L 1203.6 575.6 L 1204.8 574.5 L 1204.8 571.6 L 1205.3 570 L 1206.5 569.6 L 1207.9 570.4 L 1208.6 571.1 L 1208.7 572.1 L 1207.1 573.3 L 1208 574.9 L 1209.1 576.5 L 1209.1 577.4 L 1209.1 577.4 L 1209.1 577.4 L 1209.1 577.4 Z" />
<path class="lake" d="M 1218.5 575.2 L 1217.4 576.7 L 1215.4 578.2 L 1213.3 578.9 L 1211.9 578.3 L 1211.3 576.6 L 1211.4 573.2 L 1212.5 572.5 L 1214.2 572.6 L 1216.5 573.2 L 1218.1 574 L 1218.5 575.2 L 1218.5 575.2 L 1218.5 575.2 L 1218.5 575.2 Z" />
<path class="lake" d="M 753.3 213.9 L 753.3 213.9 L 753.3 213.9 L 753.3 213.9 L 759.1 215.8 L 761.9 216.2 L 767 217.1 L 769.2 219 L 767.4 220 L 763.2 220.9 L 758.2 221 L 754.4 219.3 L 751.3 215 L 753.3 213.9 Z" />
<path class="lake" d="M 1033.2 534.1 L 1033.2 534.1 L 1033.2 534.1 L 1033.2 534.1 L 1030.2 533.8 L 1026.5 531.6 L 1025.3 528.6 L 1025.2 525.9 L 1026.8 525.4 L 1030.6 528.2 L 1033.3 532 L 1033.2 534.1 Z" />
<path class="lake" d="M 1111 464.3 L 1111 464.3 L 1111 464.3 L 1111 464.3 L 1112.6 463.1 L 1118.3 468.5 L 1121.8 470.9 L 1128.7 471.1 L 1129.2 471.7 L 1127.1 472.6 L 1121 473.3 L 1114.7 467.3 L 1111 464.3 Z" />
<path class="country" d="M 1090.3 411.1 L 1057.2 439.9 L 1019.1 444.9 L 967.2 436.6 L 950.4 451.4 L 962.5 481.3 L 974.4 504.5 L 1002 521.4 L 972.8 541.2 L 973.4 565.6 L 940.1 599.9 L 918.7 634.7 L 882.9 670.5 L 843.1 667.9 L 805.4 703.8 L 827.8 719.2 L 831.7 745.5 L 851 762.9 L 857.7 792.3 L 782.4 792.2 L 759.6 815 L 734.6 806.3 L 724.4 781.7 L 697.9 755.7 L 634.9 762.1 L 579.3 762.8 L 531.1 767.6 L 544 727.8 L 593.3 710.1 L 590.5 694.4 L 574.1 688.8 L 573.2 658.7 L 540.4 643.6 L 526.7 623 L 509.7 605 L 567.1 622.4 L 601.3 617.3 L 621.8 621.7 L 628.7 614.2 L 652.5 617.2 L 697 603 L 698.2 573.8 L 717.3 554.5 L 742.8 554.5 L 746.5 544.9 L 772.7 540.5 L 785.3 543.7 L 798.7 534 L 796.8 513.5 L 811.3 492.8 L 833.1 484.2 L 819.7 461.5 L 852.2 462.6 L 861.6 450.3 L 860.2 437.1 L 877.3 422.8 L 873.3 405.7 L 865.2 391.2 L 885.2 376.3 L 922 369.1 L 961.3 365.2 L 978.6 358.8 L 998.6 355 L 1023.9 371 L 1034 397.3 L 1090.3 411.1 Z" />

<path class="river" d="M 917.2 440.9 L 919.1 449.5 L 919.5 453.4 L 919.2 455.4 L 917.9 457.2 L 914.7 459.3" />
<path class="river" d="M 1296.3 889.3 L 1291.4 884.1 L 1288.7 882.2 L 1286.7 881.9 L 1285 882.6 L 1283.6 884.2 L 1281.5 884.6 L 1277.2 883.3" />
<path class="river" d="M 935 196.1 L 922.4 195.6 L 916.9 196.6 L 912.9 199.8" />
<path class="river" d="M 1208.6 572 L 1205.3 570 M 1053.6 550.9 L 1052.8 553.5 L 1051.8 554.7 L 1050.4 555.4 L 1047.8 554.4 L 1042.3 550.4" />
<path class="river" d="M 834.2 242 L 832.9 244.2 L 828.4 245.6 L 816.1 247.6 M 769.2 219 L 759.5 218.2 L 755.3 217 L 753.7 215.4 L 753.3 213.9 M 540.1 50.8 L 533.3 47.8" />
<path class="river" d="M 760.9 358.8 L 755.9 361.3 L 752.2 360.5 L 747.9 357.4 L 745.6 354.8 L 745.1 352.7 L 743.3 351.8 L 740.2 351.9 L 738.1 351.5 L 737.1 350.4 L 734.5 350.7 L 730.3 352.4 L 726.1 351.5 L 721.7 348.1 L 713.5 346.8 L 701.3 347.8 L 688.9 345.4 L 676.2 339.7 L 667.4 336.3 L 662.5 335.2 L 658.5 332.3 L 655.4 327.5 L 647.8 322.3 L 635.5 316.9 L 626 310.5 L 619.3 303.4 L 615.1 298 L 613.4 294.4 L 607.2 289.4 L 596.6 283.2 L 589.3 279.8 L 585.3 279.3 L 583 277.4 L 582.4 274 L 579 270.3 L 572.6 266.4 L 567.9 262.2 L 563.4 255.6 L 561.1 245.5 L 558.5 240.9 L 554.7 238.4 L 551.5 233.5 L 548.9 226.3 L 546.7 221.6 L 544.9 219.5 L 541.4 217.1 L 536.1 214.5 L 531 213.2 L 526.3 213.3 L 523 212.4 L 521.4 210.3 L 515.1 206 L 504.1 199.4 L 497.8 194.4 L 496.3 191.2 L 494.2 189.2 L 491.5 188.4 L 489.8 187.1 L 488.9 185 L 486.7 182.8 L 483.3 180.5 L 478.1 178.5 L 471.1 176.7 L 465.7 174.2 L 461.8 170.8 L 458.8 168.8 L 456.6 168.2 L 455.8 166.8 L 456.5 164.6 L 455.8 163 L 453.7 162 L 452.8 160.8 L 453.2 159.3 L 452.6 157.5 L 450.9 155.4 L 450.3 153.3 L 450.8 151.3 L 450.4 149 L 449.1 146.3 L 448.8 144.4 L 448.9 144.1 M 449 144.2 L 448.9 144.1 M 448.9 144.1 L 449.4 143.1 L 449 141.3 L 447.4 138.9 L 446.8 137.2 L 447.3 136 L 449.2 135 L 452.6 134.3 L 454.3 132.5 L 454.5 129.7 L 452.8 126.6 L 449.3 123.4 L 448.4 121 L 450.2 119.4 L 454.3 117.7 L 464.1 114.9 M 448.9 144.1 L 445.7 139.7 L 445.3 136.2 L 446.7 132.2 L 446.2 129.2 L 444 127.1 L 439.8 125.5 L 433.8 124.4 L 430.9 121.8 L 431 117.7 L 428.9 113.1 L 422.2 105.4" />
<path class="river" d="M 895.2 558.6 L 895.3 560.9 L 894 563.3 L 890.3 568 L 882.7 578.1 L 879.5 579.2 L 876 581.7 L 871.2 586.1 L 867.1 592.1 L 863.8 599.6 L 862.2 605 L 862.2 608.2 L 860.7 611.1 L 857.9 613.8 L 856.9 616.1 L 857.5 617.9 L 857.5 619.9 L 856.8 622.2 L 855.8 623.9 L 854.7 625.2 L 853.2 625.8 L 851.4 625.7 L 849.3 627.3 L 847.1 630.5 L 845.4 632.1 L 843 632.5 M 1076.5 520.6 L 1066.2 515 L 1059.6 510.4 L 1053.7 507.7 L 1046.3 505.5 L 1042.4 501.9 L 1041.9 496.8 L 1039 492.3 L 1033.6 488.1 L 1028.1 485.4 L 1022.4 484 L 1019.2 483.8 L 1018.4 484.6 L 1018.7 486 L 1020.1 488 L 1020.6 489.5 L 1020.1 490.6 L 1016.3 491.2 L 1009.2 491.5 L 1003.7 490.5 L 999.9 488.2 L 997.3 488 L 995.9 489.9 L 993.1 490.6 L 989 490.1 L 986.6 492.2 L 986 497.1 L 978.9 503.7 L 965.4 512.1 L 953.6 518 L 943.5 521.2 L 936.2 525.7 L 929.5 534 L 923.8 538.9 L 919.7 541 L 915.2 541.7 L 910.4 543.6 L 905.4 546.7 L 901.9 549.2 L 900 551.4 L 898.9 553.7 L 898.7 556.1 L 897.7 557.7 L 895.2 558.6" />
<path class="river" d="M 1488.8 863.5 L 1486.8 855.9 L 1485 853 L 1482.5 851.7 M 1482.5 851.7 L 1481.2 853.3 L 1481 857.7 L 1482.1 862.4 L 1484.4 867.4 L 1485.2 870.9 L 1484.3 873.9 L 1484.3 876.8 L 1483.8 880.1 L 1484.4 882.4 M 1453.1 839.1 L 1451.2 843.2 L 1449.9 847.7 L 1449.8 851.4 L 1448 854.1 L 1444.4 855.9 L 1442.1 858.9 L 1441 865.5 M 1453.1 839.1 L 1455.8 839.5 L 1458.5 839.5 L 1461.4 840.3 L 1463.9 841.6 L 1466.1 843.5 L 1466.9 845.4 L 1466.2 847.3 L 1467 848.9 L 1469.2 850.4 L 1471.3 855.4 L 1474 863.5 L 1474.2 866.5 L 1474.1 869.7 M 1509.1 819.1 L 1509.8 827 L 1510.9 830.1 L 1512.7 831.6 L 1514.3 832.6 L 1514.9 833.9 L 1515.6 834.7 L 1516.7 835.7 L 1516.9 836.8 L 1517.3 838.1 L 1518.9 840 L 1518.9 842.9 L 1520 846.4 L 1521.4 847.2 M 1476 804.7 L 1479.8 811 L 1482.6 813.6 L 1485.3 814.9 L 1487.6 816.8 L 1489.4 819.1 L 1490.1 820.7 L 1489.7 821.6 L 1490.3 822.1 L 1492 822.4 L 1492.8 823.5 L 1492.8 825.6 L 1493.3 827.1 L 1493.9 828.4 L 1494.1 830 L 1494.9 831.1 L 1496.6 832.1 L 1496.9 834.1 L 1498.5 838 L 1504 844.2 L 1506.8 849.5 L 1507 853.6 L 1506 856.9 M 1476 804.7 L 1479.1 806.8 L 1481.9 806.8 L 1485.3 807.8 L 1489.3 809.8 L 1493 810.5 L 1497.9 809.7 M 1451.7 791.1 L 1455.5 795.5 L 1456.3 797.3 L 1456.1 798.8 L 1457 800 L 1459.1 801.1 L 1460.1 802.4 L 1459.8 804.1 L 1461.7 805.6 L 1465.6 806.9 L 1467.7 809.4 L 1467.8 813 L 1466.7 815.9 L 1464.5 818.2 L 1464.2 820.5 L 1465.8 822.8 L 1467.3 823.6 L 1468.3 824.2 L 1469.1 825.3 L 1469.8 826.2 L 1471.9 827.3 L 1472.4 829.7 L 1473.2 832.3 L 1475.3 834.8 L 1476.2 837.3 L 1475.7 839.7 L 1476.2 842.4 L 1477.6 845.2 L 1479.4 847.3 L 1481.5 848.7 L 1481.7 848.9 L 1481.6 849.7 L 1482.5 851.7 M 1451.7 791.1 L 1455.1 792.6 L 1460.1 793.3 L 1462.8 795 L 1463.5 797.8 L 1464.4 799.5 L 1465.7 800.1 L 1467.4 800 L 1469.8 799.2 L 1472.6 800.7 L 1476 804.7 M 1435.3 776.2 L 1436 781.7 L 1438.7 785.9 L 1444 791.2 L 1446.2 796.4 L 1445.2 801.8 L 1445.1 806.4 L 1445.8 810.2 L 1445.4 813.4 L 1444.3 814.7 L 1445.4 816.9 L 1447.4 818.6 L 1448.5 820.1 L 1449.9 820.5 L 1450.4 822.9 L 1450.1 827.3 L 1450.9 829.9 L 1452.8 830.9 L 1454 832.3 L 1454.7 834.1 L 1453.8 837.7 L 1453.1 839.1 M 1435.3 776.2 L 1436.2 778.7 L 1438 781.8 L 1440.8 785.6 L 1443 787.8 L 1445.8 788.7 L 1447.9 788 L 1449.6 788.9 L 1451.7 791.1 M 1158.8 568.7 L 1158.1 570.5 L 1158.4 572.2 L 1159.5 574.4 L 1159.6 575.9 L 1158.6 576.9 L 1155.6 580.5 L 1152.9 581.2 L 1149.6 580.3 L 1146.1 581.5 L 1140.8 586.4 L 1138 588.8 L 1135.5 589.4 L 1132.3 588.8 L 1128 589.1 L 1122.4 590.2 L 1118.7 592.2 L 1116.8 595.2 L 1113.6 596 L 1109.1 594.9 L 1105.5 595.9 L 1102.8 599.2 L 1101.7 602.9 L 1102.1 607.1 L 1100.6 610.3 L 1097.2 612.6 L 1096.6 616.5 L 1098.8 622 L 1099.5 627.2 L 1098.7 632 L 1099.2 637.4 L 1101.9 646.3 L 1104.1 649.7 L 1105.1 652.4 L 1105.5 655.5 L 1107.4 658.9 L 1110.6 662.6 L 1116.5 666.7 L 1125.1 671.2 L 1130.9 673.6 L 1133.9 673.7 L 1135.8 674.9 L 1136.6 677 L 1138.8 678.5 L 1142.3 679.3 L 1145.3 680.6 L 1147.8 682.4 L 1150.3 685.8 L 1152.7 691 L 1155.1 694.3 L 1158.7 696.8 L 1161.6 697.5 L 1164.2 700.9 L 1167.5 707.4 L 1172.4 713.8 L 1179 720.3 L 1182.9 725.2 L 1184.1 728.4 L 1186.6 731.3 L 1190.3 733.8 L 1194 734.7 L 1197.8 734.2 L 1202.7 736.4 L 1208.9 741.3 L 1212 744.7 L 1212.1 746.5 L 1214.2 748.1 L 1218.1 749.5 L 1220.7 750.9 L 1222 752.5 L 1224.4 753.2 L 1227.8 752.9 L 1229.5 753.6 L 1229.4 756.1 L 1234.2 759.5 L 1236.8 760.5 L 1239 760.1 L 1240.1 760.9 L 1240.2 761.4 L 1240.5 761.9 L 1240.9 762 L 1241.4 761.8 L 1242.1 761.3 L 1243 761.3 L 1243.6 762.4 L 1244.5 762.5 L 1245.7 761.7 L 1247.6 762.2 L 1250.3 764 L 1251.6 763.9 L 1252 763.3 L 1252.7 762.8 L 1253.9 762.7 L 1259.6 765.3 L 1262.8 765.4 L 1265.8 763.8 L 1267.5 762.1 L 1268.1 760.1 L 1269.5 758.9 L 1271.7 758.5 L 1272.4 757.3 L 1271.6 755.6 L 1271.7 754.1 L 1272.8 752.8 L 1275.2 752.5 L 1279 753.2 L 1282 754.3 L 1283.7 755 L 1284.5 754.4 L 1284.5 753.2 L 1284.7 752 L 1287.5 750.2 L 1289.9 749.5 L 1291.3 750 L 1292.7 751.7 L 1294.4 752.5 L 1296.6 752.4 L 1299.8 750.5 L 1304 746.9 L 1307 745.5 L 1308.9 746.5 L 1310.9 746.2 L 1312.9 744.8 L 1315.8 744.7 L 1319.7 745.9 L 1322.9 746 L 1325.5 745 L 1329.5 744.7 L 1334.8 745.1 L 1339.5 746.9 L 1343.6 750 L 1347 751.6 L 1349.5 751.9 L 1351 751.8 L 1352.5 751.6 L 1354.4 751.6 L 1356.5 753.3 L 1359.2 754 L 1362.3 753.3 L 1365.5 754.4 L 1368.9 757.3 L 1373 759.2 L 1377.7 759.9 L 1382.3 758.6 L 1386.7 755.3 L 1389.2 754.9 L 1389.6 757.5 L 1390.7 759.4 L 1392.5 760.8 L 1395 760.7 L 1398.4 759.1 L 1402.6 759.3 L 1407.8 761.3 L 1411.3 761.1 L 1413.3 758.6 L 1415.8 757.1 L 1419 756.8 L 1421.6 757.7 L 1423.4 760 L 1425.9 761.4 L 1429 762.1 L 1430.5 763.6 L 1430.6 766 L 1432.1 768 L 1435 769.8 L 1436.1 771.7 L 1435.3 773.9 L 1435.3 776.2" />
<path class="river" d="M 1223.8 1046 L 1227 1055.3 L 1227.8 1059.3 L 1227.2 1061 L 1225.9 1062.3 L 1223.7 1063.1 L 1222.7 1064.6 L 1222.9 1066.8 M 1223.8 1046 L 1228.9 1051.7 L 1233.9 1053.8 L 1244.3 1054.1 M 947 940.9 L 955.1 941.7 L 958.6 941.4 L 960.1 940.3 L 961.8 940.1 L 964.5 941.3 L 973.4 944.2 L 979.1 947 L 984.6 950.7 L 990.3 953.3 L 996.3 954.6 L 999.9 955.8 L 1001.6 957.3 L 1009.3 961 L 1013.4 962.6 L 1016.3 963.2 L 1019.5 963.2 L 1022.1 962.7 L 1024.1 963.2 L 1024.5 964.4 L 1025.4 964.8 L 1026.9 964.2 L 1027.8 964.4 L 1028.3 965 L 1030.5 965.6 L 1038.3 966.8 L 1039.3 967.3 L 1039.5 968.7 L 1038.9 970.8 L 1039.2 971.3 L 1040 971.5 L 1040.9 971.8 L 1042 972.9 L 1043.6 973.1 L 1045.7 972.2 L 1047.3 972.6 L 1048.4 974.4 L 1049.9 975.5 L 1051.7 976.1 L 1053 975.7 L 1053.7 974.4 L 1056.7 973.2 L 1061.8 972 L 1064.8 971.9 L 1065.7 972.8 L 1068.3 972.5 L 1072.5 971 L 1075.5 971.5 L 1077.1 973.9 L 1081.4 976.7 L 1088.4 979.9 L 1094.7 980 L 1100.4 977 L 1103.9 976.1 L 1105.3 977.3 L 1106.8 977.4 L 1108.4 976.4 L 1110.5 976.3 L 1113.1 977.1 L 1115.5 976.7 L 1117.8 975.2 L 1119.8 974.6 L 1121.5 975.1 L 1124.4 974.7 L 1128.4 973.4 L 1131.8 974.4 L 1134.3 977.7 L 1136.9 980 L 1140.9 981.9 L 1143.8 980.9 L 1147 982.1 L 1151.6 985.1 L 1154.9 986.2 L 1156.9 985.5 L 1158.2 983.7 L 1160 982.4 L 1161.7 982.2 L 1165.3 984.3 L 1169.1 985.8 L 1172.6 985.5 L 1175.2 986.3 L 1176.8 988.2 L 1177.6 990.2 L 1177.6 992.4 L 1178.3 994 L 1179.6 994.9 L 1180.5 996.5 L 1180.9 998.7 L 1182.8 1000.9 L 1187.8 1004.1 L 1193 1010 L 1194.8 1014.4 L 1194.9 1019.5 L 1198 1022.7 L 1204.2 1024.1 L 1207.6 1025.4 L 1208.5 1026.7 L 1210.6 1027.5 L 1213.9 1027.9 L 1216.6 1028.7 L 1218.6 1030 L 1220.6 1034.5 L 1223.8 1046" />
<path class="river" d="M 534.7 557.9 L 539.8 564.4 L 542 571.7 L 542.8 581.8 L 549.3 588.5 L 561.4 591.7 L 571.7 592.6 L 580.3 591 L 589.1 587.4 L 598.1 581.9 L 605.2 579.6 L 610.3 580.5 L 613.5 580.7 L 615 580.1 L 616.8 578 L 618.9 574.5 L 620.8 569.3 L 622.4 562.3 L 624.8 556.7 L 627.9 552.4 L 629.4 548.2 L 629.2 545.1 L 630.1 542.4 L 632.3 540 L 638.6 535.9 L 644.1 530.7 L 648.6 524.5 L 653.1 520.8 L 657.6 519.7 L 662.3 514 L 667.2 503.9 L 672.1 497.7 L 679.8 494.2 L 683 492.3 L 685.7 489.5 L 689 485.3 L 691.8 483 L 693.9 482.7 L 695.7 481.4 L 697.3 479 L 700.6 476.4 L 705.6 473.6 L 710.1 471.9 L 713.9 471.4 L 718 469.4 L 722.3 465.7 L 725.3 463.9 L 726.8 463.8 L 727.3 462.6 L 727 460.3 L 727.2 458.5 L 728.5 456.8 L 736.4 451.8 L 744.5 448.7 L 760.8 444.7 L 764.1 445.4 L 766.5 444.9 L 770.3 442.7" />
<path class="river" d="M 748.8 807.8 L 751 804.4 M 741.5 807.2 L 743.7 805.9 L 743.8 804.4 L 743.8 802.2 M 751 804.4 L 753.6 804.2 L 754.2 804.8 L 754.4 806.7 L 755.1 808.2 L 754.9 809.7 M 751 804.4 L 751 802.5 L 746.8 802.5 L 745.4 802.6 L 743.8 802.2 M 743.8 802.2 L 742 800.9 M 1155.2 515.5 L 1144.8 505.2 M 1145 505.4 L 1141.7 500.5 L 1137.6 496.6 L 1131.6 491.9 L 1126.9 490 L 1123.5 490.8 L 1117.7 489.3 L 1104.2 482.8 L 1102.1 481.2 L 1101 479.6 L 1101 477.9 L 1098.5 475.2 L 1093.5 471.6 L 1088.7 467.1 L 1084.2 461.8 L 1079.7 458.6 L 1073.2 456.7 L 1060.5 452.4 L 1054.2 449 L 1050 445.2 L 1045.5 442.3 L 1040.7 440.3 L 1037.1 438 L 1035 435.2 L 1034.1 432.8 L 1034.5 430.6 L 1032.2 427.7 L 1027.2 424.1 L 1024 420.8 L 1022.7 417.8 L 1020.2 416.5 L 1016.7 417 L 1012.6 415.8 L 1007.9 412.8 L 1005.2 410.5 L 1004.6 408.8 L 1002.2 407.8 L 998.1 407.5 L 993.2 406.4 L 987.4 404.3 L 984.3 402.2 L 983.9 400.2 L 982.9 399.4 L 981.3 399.7 L 980.5 402.4 L 980.6 407.4 L 978.6 410.9 L 974.7 412.8 L 970.7 413.8 L 966.5 414 L 960.9 413.1 L 954 411 L 946.8 409.8 L 939.2 409.6 L 935 411.9 L 934.3 416.7 L 930.7 421 L 924.2 424.8 L 920.8 427.8 L 920.3 430.1 L 921.1 431.9 L 923.2 433.3 L 922.8 434.5 L 920.1 435.6 L 918.3 437.4 L 917.2 440.9 M 914.7 459.3 L 912.8 461.1 L 910.7 461.7 L 907.9 461.6 L 904.5 462.2 L 900.7 463.6 L 898.7 465.8 L 898.6 468.8 L 897.3 470 L 894.7 469.6 L 892.9 469.8 L 891.8 470.5 L 890 473.7 L 887.5 479.2 L 885 482.5 L 882.3 483.7 L 881 487.1 L 880.9 492.7 L 878.5 496.7 L 873.9 499.1 L 870.8 502 L 868.4 507.1 L 868 514.1 L 865.6 520 L 858.7 530.7 L 851.5 545.4 L 849.5 554.6 L 850.4 567.6 L 848.4 571.4 L 848.6 574.6 L 850.2 578.6 L 850.4 582.5 L 849.2 586.4 L 849.1 591.9 L 850.3 599 L 849.1 605.1 L 845.6 610.2 L 844.5 614.5 L 846 617.9 L 846.1 621.2 L 844.8 624.4 L 844.3 627.3 L 844.5 630 L 843 632.5 L 839.7 635 L 837.2 636.2 L 835.6 636.2 L 831.9 639 L 826 644.4 L 820.7 647.9 L 816.2 649.4 L 812.3 652.4 L 809.1 656.8 L 806.1 659.2 L 803.5 659.5 L 801.8 660.3 L 801.1 661.7 L 800 662.2 L 798.5 661.9 L 796.3 662.7 L 793.7 664.7 L 791.5 665.6 L 789.8 665.5 L 788.7 666.2 L 788.1 667.7 L 787.1 668.4 L 785.8 668.2 L 785.4 669.1 L 785.9 671.1 L 785.3 672.6 L 783.8 673.6 L 783.9 674.7 L 785.5 675.7 L 786.1 676.6 L 785.7 677.2 L 781.9 678.6 L 779.7 677.9 L 777.7 675.8 L 776.5 675.4 L 776 676.8 L 773.2 678.3 L 768.2 679.8 L 765.1 681.2 L 764.1 682.2 L 763.9 684.3 L 764.5 687.4 L 763.8 689.1 L 761.8 689.3 L 760.2 690.1 L 759.2 691.5 L 759.1 692.8 L 760 693.9 L 759.6 694.7 L 757.7 695.2 L 757 696.2 L 757.3 697.8 L 755.8 699.7 L 752.3 701.9 L 750.5 704.9 L 750.3 710.6 L 749.9 719.3 L 750.2 723.4 L 751.1 725.7 L 753 727.7 L 755.9 729.4 L 757.6 731.2 L 758 733 L 760.5 736 L 765 740.4 L 766.6 743 L 765.3 744 L 765.5 745.3 L 767.3 746.8 L 767.2 749 L 765.3 751.8 L 764.7 755 L 765.2 758.8 L 765.1 761.3 L 764.3 762.5 L 764.5 763.7 L 765.7 764.8 L 765.6 765.5 L 764.3 765.7 L 763.4 767.2 L 762.8 769.9 L 762 771 L 760.9 770.3 L 759.9 771.1 L 758.9 773.4 L 757.6 774.6 L 755.9 774.7 L 754.4 778.4 L 753.1 785.8 L 751.4 789.7 L 749.3 790.2 L 748.5 790.9 L 748.9 792 L 748.4 792.7 L 747 792.9 L 746.6 793.6 L 747.4 794.8 L 746.3 796.3 L 743.4 797.9 L 741.9 799.5 L 741.9 800.9 L 740.8 801.8 L 737.6 802.4 L 734.9 803.1" />
<path class="river" d="M 1140.8 1058.4 L 1152.5 1054.6 L 1158.1 1054.2 L 1161.3 1055.8 L 1164 1055 L 1166.4 1051.8 L 1168.4 1052 L 1170.1 1055.5 L 1173.2 1057.5 L 1178 1057.8 L 1182.2 1059.3 L 1185.8 1062 L 1188.8 1064.8 L 1191.1 1067.7 L 1192.8 1071.4 L 1194.5 1077.8 L 1194.8 1079.2 L 1194.8 1082.8 L 1194.3 1084.4 L 1193.9 1085.7 M 952 1010.1 L 955.4 1012.2 L 957.6 1014.8 L 960.8 1020.5 L 963 1022.4 L 963.3 1024.2 L 962.5 1026.7 L 963.1 1029.5 L 965.1 1032.8 L 965.9 1035.3 L 965.5 1037.1 L 966.9 1038.6 L 969.9 1039.9 L 971.6 1041.2 L 971.8 1042.4 L 972.5 1042.9 L 973.6 1042.7 L 974.6 1043.5 L 975.8 1046 L 977.3 1048.9 L 979 1050.6 L 981.5 1052 L 981.9 1053.2 L 980.4 1053.9 L 980.3 1055.4 L 981.5 1057.7 L 984.8 1057.9 L 990 1056 L 993.6 1056.5 L 995.7 1059.4 L 997.5 1059.8 L 998.9 1057.8 L 1001.1 1057 L 1004 1057.4 L 1006.3 1058.4 L 1007.8 1059.9 L 1008.5 1061.4 L 1008.3 1062.9 L 1009.9 1063.5 L 1013.4 1063.2 L 1016.3 1063.8 L 1018.8 1065.5 L 1021.8 1066.7 L 1025.4 1067.4 L 1027.9 1068.7 L 1029.4 1070.6 L 1031.6 1071.8 L 1034.7 1072.5 L 1041.2 1070.5 L 1051.3 1065.7 L 1057.6 1062.2 L 1060 1060 L 1063.6 1060.2 L 1070.5 1064 L 1082.7 1066.3 L 1090.5 1070.3 L 1098.1 1076.8 L 1102.4 1079.8 L 1103.6 1079.3 L 1104.2 1078.5 L 1104.2 1077.5 L 1105.5 1076.5 L 1108.2 1075.8 L 1112.9 1075.8 L 1119.6 1076.6 L 1123.4 1076.1 L 1124.3 1074.1 L 1126.1 1072.4 L 1130 1070.4" />
<path class="river" d="M 1185.7 920.9 L 1185.9 916.9 L 1187 915.2 L 1190.4 914 L 1194.7 908.1 L 1198.7 905.5 L 1203.9 904.3 L 1207.8 899.6 L 1210.5 891.5 L 1213.1 887 L 1217.1 885.5 L 1220.4 886.9 L 1221.8 885.9 L 1222.3 882.7 L 1224 881 L 1227.1 880.6 L 1230 879.4 L 1232.8 877.6 L 1236.6 878.1 L 1241.4 881.1 L 1245.6 882.2 L 1249.1 881.6 L 1257.5 881.8 L 1277.2 883.3 M 1296.3 889.3 L 1299.4 891.6 L 1299.2 895.6 L 1295.4 905.3 L 1295.4 908.4 L 1296.6 910.3 L 1298.8 911.9 L 1302.8 912.4 L 1308.4 911.7 L 1311.8 912.4 L 1313 914.4 L 1316.4 916.4 L 1321.8 918.3 L 1325.4 920.3 L 1327.1 922.4 L 1332.7 924.9 L 1347.2 929.1 L 1358.2 926.2 L 1363.9 926.1 L 1368 927.9 L 1371.3 930.7 L 1375.1 936.5 L 1375.7 938.1 L 1378 939.5" />
<path class="river" d="M 1246.4 585 L 1257.5 586.6 L 1261 586.4 L 1263 587.6 L 1264.9 590.2 L 1272.6 594.8 L 1293 604.8 L 1298.6 607.3 L 1300.6 609 L 1300.7 610.8 L 1301.7 612.2 L 1303.3 613.3 L 1307.6 614.3 L 1314.6 615.4 L 1318.3 617.9 L 1318.9 621.9 L 1322.9 624.7 L 1330.4 626.2 L 1335.9 625.8 L 1339.3 623.4 L 1343.1 622.6 L 1349.4 624 L 1355.7 626.4 L 1365.1 626.7 L 1379.7 625.7 L 1394.8 626.2 L 1410.2 628.3 L 1420 629 L 1426.4 628.2" />
<path class="river" d="M 1218.2 847.1 L 1208.1 842.9 L 1201.8 840.2 L 1199.4 839.7 L 1198.8 840.6 L 1197.6 840.9 L 1195.7 840.5 L 1194.3 839.4 L 1193.5 837.7 L 1192.8 837.3 L 1192.1 838.3 L 1189.3 839.2 L 1184.5 839.9 L 1181.7 841.2 L 1181 843.1 L 1180.8 845.9 L 1181.3 849.7 L 1180.9 852 L 1179.6 852.8 L 1178.3 852.9 L 1177.1 852.3 L 1175.7 850.4 L 1174.2 847.2 L 1171.7 845.9 L 1166.3 846.4 L 1163 843.8 L 1162 840.9 L 1162.2 837.1 L 1158.6 834.8 L 1151.3 834.3 L 1144.4 834.5 L 1137.7 835.6 L 1134 836.6 L 1133.3 837.6 L 1130 837.9 L 1123.9 837.3 L 1118.8 837.4 L 1114.8 838.1 L 1111 839.7 L 1107.4 842.1 L 1104.6 843.2 L 1102.7 842.9 L 1101.3 843.5 L 1100.4 845.1 L 1098.4 845.7 L 1095.3 845.4 L 1093.1 844.7 L 1091.7 843.6 L 1088.7 844.7 L 1083.9 848 L 1077.2 851 L 1064.6 855.3 L 1057.6 857.2 L 1054.9 859 L 1054 861.2 L 1051.8 863 L 1048.4 864.4 L 1045.5 864.2 L 1043.1 862.3 L 1037.8 862.7 L 1029.8 865.2 L 1014 867.9 L 978.4 872.2 L 974.9 871.7 L 972.2 872.5 L 969 874.4 L 965.9 875.2 L 962.6 875 L 958.4 875.8 L 953.2 877.6 L 948.8 877.3 L 945.1 874.8 L 942.5 873.5 L 940.7 873.4 L 939 874.2 L 937.2 876 L 935.3 876.4 L 933.6 875.7 L 932.8 876 L 933 877.5 L 932.2 878.2 L 930.3 878.2 L 929.3 879 L 929.4 880.3 L 928.6 881.4" />
<path class="river" d="M 912.9 199.8 L 902.4 205.6 L 898.1 209.8 L 896.3 214.2 L 892.3 218.7 L 886 223.1 L 876.7 225.9 L 864.3 227 L 859.7 228.1 L 858.4 228.8 L 857.2 229.2 L 855.1 229.6 L 851.6 231 L 845.9 234.3 L 834.2 242 M 1086.8 192.6 L 1095.1 192.9 L 1096.5 194 L 1092.4 197 L 1087.7 201.3 L 1084.6 203.3 L 1081.7 204.3 L 1071.1 204.9 L 1053.1 205.2 L 1040.7 205.8 L 1030.5 207.3 L 1023.3 206.9 L 1018.7 207.5 L 1014.3 209 L 1009.5 209.1 L 1004.5 207.9 L 995.4 207.4 L 982.4 207.5 L 973.9 208.2 L 969.8 209.3 L 965.1 209 L 959.8 207.1 L 957.1 204.9 L 957 202.4 L 956.3 200.4 L 955 198.9 L 952 197.3 L 947.1 195.9 L 942.3 195.4 L 934.9 196.1" />
<path class="river" d="M 945.4 344.3 L 941.2 343.4 L 937.8 343.7 L 931.9 345.6 L 921.1 350.4 L 916.4 353.6 L 913 358.6" />
<path class="river" d="M 913 358.6 L 902.8 360.1 L 895.7 363 L 888.5 367.5 L 883.7 370 L 881.4 370.4 L 879 369.9 L 876.7 368.7 L 874.4 364.9 L 871.1 355.2 L 873.6 338.9 L 875 332.3 L 876.1 330 L 876.2 328.4 L 875.2 327.6 L 873 327.7 L 869.6 328.5 L 867.2 328.7 L 865.8 328.1 L 865.9 325.1 L 867.7 319.5 L 865 314.8 L 858.1 311 L 852.1 309.7 L 847.2 310.9 L 843.1 313.9 L 839.8 318.8 L 836.3 322.7 L 832.8 325.8 L 830.2 327.3 L 829.4 327.9 L 828.9 329.2 L 830.8 333.4 L 830.7 336.8 L 828.5 339.6 L 826.1 341 L 823.6 340.8 L 821.5 340.2 L 820 339 L 815.9 338.7 L 809.2 339.2 L 804.7 340.6 L 802.2 342.9 L 801.5 345.9 L 802.5 349.6 L 802 352.4 L 799.9 354.4 L 798.2 355.6 L 796.9 355.8 L 794 354.1 L 789.5 350.4 L 786.5 348.4 L 784.8 348.1 L 783.9 348.3 L 782.9 348.7 L 782.3 349.2 L 781.8 350.3 L 780.4 350.7 L 778.3 350.4 L 776.5 350.7 L 775.4 351.9 L 772.3 353.3 L 766.8 354.8 L 763.8 356.5 L 763.3 358.3 L 762.5 359.1 L 760.9 358.8" />
<path class="river" d="M 1220.4 549.5 L 1217.3 551.1 L 1215.6 551.2 L 1213.8 550.1 L 1208.5 546.6 L 1206.2 544.3 L 1205.1 542.1 L 1204.9 539.5 L 1205.8 536.5 L 1207.7 534.1 L 1210.6 532.1 L 1211 530.6 L 1209.1 529.5 L 1208.2 527.9 L 1208.2 525.8 L 1207.1 523 L 1204.9 519.6 L 1199.5 516.3 L 1190.8 513.3 L 1182.6 511.7 L 1174.8 511.8 L 1167 512.7 L 1155.2 515.5" />
<path class="river" d="M 1211.4 573.2 L 1208.6 572 M 1205.3 570 L 1194.2 563 L 1189.3 560.7 L 1185.8 560.7 L 1182.6 562.6 L 1180.5 563.1 L 1178.6 562.7 L 1174.4 560.6 L 1167.9 556.8 L 1163.6 553.4 L 1161.4 550.3 L 1157.3 548.4 L 1151.1 547.8 L 1145.6 546.1 L 1140.8 543.3 L 1135.9 542 L 1130.8 542.2 L 1127.4 541 L 1125.6 538.6 L 1123.6 537 L 1121.5 536.3 L 1118.1 537.4 L 1113.6 540.3 L 1111.3 542.4 L 1111.1 543.7 L 1109.7 544.3 L 1107.1 544.3 L 1105.6 545 L 1105 546.4 L 1101.1 546.7 L 1093.7 546 L 1087.5 547.4 L 1082.5 551 L 1078.6 552.7 L 1075.7 552.7 L 1073.7 553.3 L 1072.7 554.7 L 1070.9 555.7 L 1068.3 556.4 L 1064.7 555.6 L 1060 553.4 L 1057.6 551.9 L 1057.6 551.1 L 1056.6 550.8 L 1053.6 550.9 M 1042.3 550.4 L 1040.5 551 L 1040 551.7 L 1040.2 552.7 L 1045.7 560 L 1046.8 563.1 L 1045.4 564.8 L 1039.7 565.3 L 1029.7 564.5 L 1020.2 564.4 L 1011.2 565.1 L 1003.6 563.7 L 997.4 560.3 L 992.6 558.8 L 989.2 559.3 L 983.8 561.7 L 976.4 566.3 L 972 568.5 L 970.6 568.5 L 966.3 572.8 L 959.2 581.3 L 952.3 586.7 L 942 589.9 L 937.8 591.3 L 935.9 592.5 L 934.8 594 L 933.9 594.3 L 933.1 593.6 L 930.1 594.9 L 925 598.1 L 919.9 600.5 L 914.8 602 L 912.1 603.4 L 911.8 604.5 L 909.5 605 L 905.1 604.8 L 901.1 606.2 L 897.4 609.2 L 895.7 611.5 L 896 612.8 L 894.6 614.3 L 891.5 615.8 L 887.2 616.7 L 881.8 617 L 878.5 617.9 L 877.3 619.3 L 875.6 620.3 L 873.4 620.6 L 870.6 620.3 L 867.2 619.2 L 863.4 619.2 L 856.8 622.2" />
<path class="river" d="M 816.1 247.6 L 811.2 246.6 L 807.1 247.1 L 802 248.9 L 798.1 249.2 L 795.3 248 L 793 245.3 L 791.3 241.1 L 790.8 238.4 L 791 237.1 L 790.6 236.4 L 788.5 234.4 L 781.5 229.6 L 777.6 226.1 L 776.7 223.9 L 774.5 221.9 L 769.2 219 M 753.3 213.9 L 753.9 212.9 L 756 211.2 L 756.6 206.8 L 755.4 200.1 L 755.9 194.1 L 758.2 188.8 L 760 185.7 L 760.5 185 L 760.7 183.9 L 760.2 183.3 L 760 182.2 L 762.3 180.3 L 763.3 178.1 L 763.1 175.5 L 762.3 173.3 L 760.8 171.3 L 760.7 169.5 L 761.9 167.8 L 762.3 165.7 L 762 163.3 L 761.4 162.1 L 761.3 161.3 L 760.4 160.2 L 758.2 158.8 L 757.7 157.4 L 758 156 L 756.6 154.5 L 751.2 153.1 L 748.1 150.1 L 747.4 145.3 L 746.4 142.5 L 745.1 141.7 L 744 141.9 L 743.1 142.9 L 742 142.5 L 741.5 140.9 L 740.1 139.9 L 738.1 139.8 L 737 138.5 L 736.6 135.9 L 734.6 132.6 L 730.8 128.5 L 728.2 126.5 L 727 126.4 L 726 125.5 L 725.4 123.6 L 723 121.7 L 718.9 119.9 L 716 119.7 L 714.2 121.1 L 711.5 121.4 L 707.9 120.5 L 705.8 120.4 L 704.3 119.7 L 703.4 116.5 L 702 114.8 L 700.3 114.6 L 699.5 113.8 L 699.6 112.5 L 698.2 110.8 L 695.4 108.7 L 694.2 107.3 L 691.6 105.4 L 685.8 104.3 L 684.3 102.6 L 683.7 101.5 L 682.3 100 L 679.5 98.1 L 678.1 96.5 L 678 95.3 L 676.2 94.4 L 672 94.1 L 667.8 92.1 L 663.6 88.3 L 658.8 86 L 653.4 85.3 L 649.7 85.3 L 647.7 86.1 L 643.5 85.7 L 637.3 84 L 632.7 81.9 L 629.6 79.4 L 628.1 77.8 L 627.6 76.5 L 625.6 76.2 L 624.3 74.7 L 623.5 72.3 L 620.5 70.5 L 615.5 69.3 L 612.7 68.3 L 612.2 67.3 L 612.5 66.4 L 613.5 65.4 L 612.5 64.1 L 609.3 62.5 L 608.2 61.4 L 606.4 61.2 L 594 64 L 586.7 64.1 L 582.7 61.8 L 579.1 61.1 L 575.9 62.1 L 573.3 62.1 L 571.3 61.1 L 570 59.8 L 569.3 58.1 L 567.6 57.9 L 564.8 59.3 L 561.1 59.8 L 556.7 59.3 L 552.6 60.1 L 548.9 61.9 L 544.7 61.6 L 540 59.2 L 538.1 57.3 L 538.8 55.8 L 540.1 54.9 L 542 54.4 L 542.2 53.3 L 540.1 50.8 M 533.3 47.8 L 523.1 49.8 L 517.2 49.6 L 509.9 46.8" />
<path class="river" d="M 1194.7 240.9 L 1199.4 239.1 L 1202.9 238.6 L 1206.8 238.6 L 1210.2 237.2 L 1213.2 234.3 L 1217.2 232.7 L 1222.2 232.3 L 1226.2 231.1 L 1229.2 229.2 L 1236.9 226.5 L 1249.3 223.1 L 1258.4 222.5 L 1263.9 224.7 L 1269.8 225.1 L 1275.9 223.6 L 1282.5 222.7 L 1289.7 222.4 L 1294.1 222.6 L 1295.5 223.5 L 1297.6 222.7 L 1300.3 220.3 L 1304.3 218.2 L 1309.6 216.4 L 1317.5 216 L 1328 216.9 L 1334.9 218.2 L 1338 220 L 1342.9 221.7 L 1349.3 223.2 L 1356.5 222.9 L 1364.4 220.8 L 1370.9 220.2 L 1376 221.2 L 1381.1 221.4 L 1386.3 220.7 L 1386.9 219.2 L 1383 217.1 L 1381.4 215.6 L 1382.3 214.3 L 1382.7 213.1 L 1382.2 212.9 L 1381.1 213.2 L 1378.7 212.5 L 1375.2 210.6 L 1371.7 209.6 L 1368.2 209.4 L 1365.4 208.1 L 1363.2 205.7 L 1362.3 203.1 L 1362.6 200.4 L 1363.8 198.5 L 1365.8 197.4 L 1368.7 196.9 L 1372.5 196.9 L 1375.3 196.2 L 1376.9 194.8 L 1380 194.6 L 1384.8 195.8 L 1389.2 195.9 L 1395.4 194.4" />
<path class="river" d="M 1107.5 567.8 L 1098.3 573.9 L 1095.4 579.7 L 1093.9 581.4 L 1092.8 580.9 L 1089.5 581.6 L 1084 583.5 L 1081.3 585.7 L 1081.1 589.6 L 1079.7 592.2 L 1076.8 594.8 L 1071.9 598.2 L 1068 603.5 L 1065.1 610.7 L 1064.1 614.9 L 1065.2 616.2 L 1065.3 617.3 L 1064.8 617.9 L 1064.8 618.7 L 1065.7 619.6 L 1066.6 621.7 L 1066.3 626.8 L 1066.9 631.1 L 1068.4 634.5 L 1069.2 638.2 L 1069.2 642.1 L 1070.1 645.4 L 1072.8 649.8 L 1077.2 653 L 1078.4 654.8 L 1077.8 656.1 L 1078.2 657.9 L 1079.4 660.2 L 1079.4 662.5 L 1078.2 664.8 L 1078.6 668.1 L 1080.5 672.4 L 1082.4 674.5 L 1084.3 674.5 L 1084.9 676.1 L 1084.3 679.4 L 1084.5 681.2 L 1085.3 681.5 L 1085.6 682.3 L 1085.2 683.5 L 1086 685.8 L 1087.8 689.1 L 1089.7 691.3 L 1091.7 692.6 L 1093.1 692.8 L 1093.8 692 L 1094.7 691.9 L 1095.6 692.4 L 1096.3 693.4 L 1096.5 694.9 L 1098.2 695.5 L 1101.2 695.3 L 1102.8 696.1 L 1103 697.9 L 1104.4 698.5 L 1105.8 698.2 L 1106.4 698.5 L 1106.5 699.1 L 1107 699.7 L 1108.9 699.8 L 1110.8 701 L 1112.5 703.1 L 1113.2 703.4 L 1113.7 703.1 L 1114.4 703.2 L 1116.7 704.9 L 1118.5 705.4 L 1120 704.8 L 1122.5 705.9 L 1125.9 708.6 L 1128.3 709.9 L 1129.6 709.9 L 1130.9 711.3 L 1132.2 714.1 L 1134.7 716.2 L 1138.3 717.5 L 1139 718.5 L 1139 719.4 L 1138.7 719.9 L 1139.2 720.7 L 1139.6 721.2 L 1140.7 721.4 L 1143.8 721.1 L 1146.2 721.8 L 1147 723.3 L 1147.8 723.7 L 1148.4 723.9 L 1148.7 724.5 L 1148.5 725.5 L 1150.3 727.7 L 1154.4 730.7 L 1157.6 732.3 L 1159.8 732.6 L 1161.3 732.2 L 1161.9 731.7 L 1162.5 731.7 L 1162.8 732.8 L 1163.9 733.5 L 1166 733.6 L 1167 734.2 L 1167 735.4 L 1168.2 736.7 L 1171.5 738.7 L 1179.4 739.8 L 1182.2 740.5 L 1182.6 741.1 L 1182.2 741.7 L 1181 742.2 L 1182.2 743.5 L 1185.8 745.5 L 1188.8 746.2 L 1191.1 745.6 L 1193.2 745.7 L 1195 746.4 L 1196.1 747.4 L 1196.6 748.6 L 1197.5 749.1 L 1198.7 748.9 L 1199.2 749.5 L 1199.1 751 L 1200.5 752.1 L 1203.4 752.9 L 1204.7 754.3 L 1204.5 756.3 L 1206.1 757.7 L 1209.4 758.4 L 1211.4 759.3 L 1212.1 760.4 L 1214.7 760.1 L 1219 758.7 L 1222.3 758.2 L 1224.6 758.7 L 1226 758.2 L 1226.6 756.7 L 1227.5 756 L 1229.4 756" />
<path class="river" d="M 1079.6 410.2 L 1083.4 408.1 L 1085 406.4 L 1085.9 403.5 L 1081.6 398.7 L 1082.1 394.8 L 1085.7 390.2 L 1085.6 387.1 L 1081.7 385.4 L 1079.1 383.2 L 1077.7 380.5 L 1073.9 378.8 L 1067.5 378.3 L 1062.2 378.7 L 1057.9 380 L 1054.2 380.5 L 1051 380.2 L 1045.2 379.1 L 1043.3 377.8 L 1042.3 375.8 L 1039.1 373.7 L 1033.6 371.4 L 1029.4 367.9 L 1026.3 363.3 L 1025.6 359.2 L 1027.1 355.4 L 1027 352.3 L 1025.4 350.2 L 1025.7 349.5 L 1026.3 349.2 L 1027.6 349.4 L 1029.3 349.8 L 1032.2 348.9 L 1034.7 346.5 L 1035.2 341.7 L 1033.8 334.5 L 1034.8 329.6 L 1038.1 327 L 1041.1 325.7 L 1043.8 325.6 L 1045.3 326.1 L 1045.6 327.1 L 1047.8 328.1 L 1051.9 328.9 L 1059.1 325.4 L 1069.5 317.6 L 1074.2 311.6 L 1073.3 307.5 L 1075 302.9 L 1079.1 298 L 1081.1 294.4 L 1080.8 292 L 1081.4 289.7 L 1083 287.5 L 1084.5 286.3 L 1086 286.1 L 1089.1 284.1 L 1093.7 280.3 L 1100 276.6 L 1107.9 272.9 L 1116.6 270.7 L 1126 269.8 L 1133.5 268.5 L 1139.1 266.7 L 1150.5 261.6 L 1167.6 253.2 L 1177.2 247.5 L 1179.2 244.5 L 1183.9 242.5 L 1194.7 240.9" />
<g class="city"><circle cx="920.4662762611237" cy="973.2341921392244" r="5" /><text x="932.4662762611237" y="977.2341921392244">Mumbai</text></g>
<g class="city"><circle cx="1069.4143388627062" cy="644.5679792064111" r="5" /><text x="1081.4143388627062" y="648.5679792064111">Delhi</text></g>
<g class="city"><circle cx="718.9661154851852" cy="774.6172223244791" r="5" /><text x="730.9661154851852" y="778.6172223244791">Karachi</text></g>
<g class="city"><circle cx="970.8514466040116" cy="545.6628864109439" r="5" /><text x="982.8514466040116" y="549.6628864109439">Lahore</text></g>
<g class="city"><circle cx="1112.1919727200207" cy="1030.2668962417115" r="5" /><text x="1124.1919727200207" y="1034.2668962417115">Hyderabad</text></g>
<g class="city"><circle cx="910.275175346955" cy="837.5863305782443" r="5" /><text x="922.275175346955" y="841.5863305782443">Ahmedabad</text></g>
<g class="city"><circle cx="953.8702027056485" cy="992.1260300336296" r="5" /><text x="965.8702027056485" y="996.1260300336296">Pune</text></g>
<g class="city"><circle cx="919.1745111585641" cy="900.2176531236435" r="5" /><text x="931.1745111585641" y="904.2176531236435">Surat</text></g>
<text class="map-title" x="80" y="105">Pakistan Physical Study Map</text>
<text class="map-subtitle" x="80" y="145">Landmark: Badshahi Mosque | Study terrain and water systems</text>
  <text class="footer" x="80" y="1036">Made with Natural Earth. Free vector and raster map data @ naturalearthdata.com.</text>
</svg>
