<?xml version="1.0" encoding="UTF-8"?>
<svg xmlns="http://www.w3.org/2000/svg" width="1600" height="1100" viewBox="0 0 1600 1100" role="img" aria-labelledby="title desc">
  <title id="title">Poland Physical Study Map</title>
  <desc id="desc">Made with Natural Earth. Free vector and raster map data @ naturalearthdata.com.</desc>
  <defs>
    <linearGradient id="terrain" x1="0" x2="1" y1="0" y2="1">
      <stop offset="0%" stop-color="#6c8c53" />
      <stop offset="42%" stop-color="#d5c487" />
      <stop offset="72%" stop-color="#b88b5f" />
      <stop offset="100%" stop-color="#f1f5ee" />
    </linearGradient>
    <filter id="softShadow" x="-10%" y="-10%" width="120%" height="120%">
      <feDropShadow dx="0" dy="10" stdDeviation="12" flood-color="#0f172a" flood-opacity="0.16" />
    </filter>
    <style>
      .neighbor { fill: #ffffff; stroke: #94a3b8; stroke-width: 1.2; opacity: 0.72; }
      .country { fill: url(#terrain); stroke: #1f2937; stroke-width: 4; filter: url(#softShadow); }
      .admin1 { fill: none; stroke: #64748b; stroke-width: 1.1; stroke-dasharray: 6 7; opacity: 0.75; }
      .river { fill: none; stroke: #1d9bd1; stroke-width: 3; stroke-linecap: round; opacity: 0.88; }
      .lake { fill: #8ed1ea; stroke: #0ea5e9; stroke-width: 1.5; opacity: 0.8; }
      .city circle { fill: #ef4444; stroke: #ffffff; stroke-width: 2; }
      .city text, .terrain-label { fill: #172033; font: 700 24px system-ui, sans-serif; paint-order: stroke; stroke: #ffffff; stroke-width: 5; stroke-linejoin: round; }
      .map-title { fill: #0f172a; font: 800 46px system-ui, sans-serif; }
      .map-subtitle { fill: #475569; font: 600 24px system-ui, sans-serif; }
      .footer { fill: #64748b; font: 500 18px system-ui, sans-serif; }
    </style>
  </defs>
  <rect width="100%" height="100%" fill="#d8edf0" />
  <rect x="40" y="40" width="1520" height="1020" rx="32" fill="#ffffff" opacity="0.54" />
  <path class="neighbor" d="M 12187.5 -781.4 L 12278.4 -811.1 L 12278.4 -762.4 L 12200.2 -758.7 L 12187.5 -781.4 Z M 2943 980.1 L 2910.5 1022.4 L 2841.4 1034.2 L 2770.5 1107.8 L 2835.3 1175.5 L 2828.3 1223.5 L 2906.2 1307.5 L 2906.2 1307.5 L 2863.6 1336.2 L 2851.3 1354.4 L 2819.8 1349.5 L 2770.8 1306.2 L 2750.7 1303.8 L 2705.9 1287.3 L 2684.1 1258 L 2617.6 1243.1 L 2574.3 1254.3 L 2561.8 1241 L 2464.7 1206.8 L 2359.7 1195.3 L 2299.4 1183.1 L 2290.7 1191.5 L 2199.8 1131.3 L 2118.4 1104.4 L 2056.8 1062.5 L 2108.7 1051.1 L 2167.9 991.4 L 2128 963.2 L 2233.2 934.1 L 2231.3 918.5 L 2167.3 930 L 2169.5 898.3 L 2206.3 878.4 L 2275.3 873.2 L 2286.5 849.4 L 2270.7 810.1 L 2299.7 772.7 L 2298.9 751.8 L 2193.7 728.6 L 2152.1 729.3 L 2108.1 695.9 L 2053.3 707.2 L 1962.8 682.2 L 1964.3 668.1 L 1938.9 637.2 L 1882.1 633.7 L 1876.2 611.6 L 1894 597.2 L 1848.4 556.8 L 1774.4 563.7 L 1752.8 560.1 L 1734.8 576.3 L 1708.1 573.4 L 1708.1 573.4 L 1690.6 527.8 L 1673.9 504.1 L 1687.6 497.4 L 1745.1 499.9 L 1772.9 484.3 L 1752.3 465.3 L 1704.2 452.7 L 1708.5 439.9 L 1679.5 426.8 L 1634.8 380.2 L 1650.1 360.9 L 1643.1 327.4 L 1573.4 310.4 L 1535.9 318.9 L 1525.8 301.2 L 1450.7 283.4 L 1427.8 241.3 L 1421.7 206.7 L 1387.4 190.3 L 1417.9 167.6 L 1396.8 101.1 L 1447.5 60 L 1436.8 47.6 L 1436.8 47.6 L 1517.8 8.1 L 1443.1 -25.8 L 1443.1 -25.8 L 1595.8 -116.8 L 1662.1 -158 L 1688.9 -194.4 L 1583.3 -243.2 L 1612.5 -289.7 L 1548.3 -342.8 L 1596.3 -403.9 L 1513.3 -485.1 L 1579.2 -538.9 L 1469.9 -586.4 L 1480.3 -636.3 L 1537.9 -642.9 L 1659.3 -671.5 L 1659.3 -671.5 L 1732.9 -696.3 L 1850 -653.2 L 2045.3 -636.2 L 2314.8 -555.6 L 2369.5 -521.7 L 2374.2 -474.2 L 2295.1 -436.7 L 2178.6 -417.7 L 1860.2 -471.9 L 1807.9 -462.9 L 1924.1 -410.6 L 1928.7 -377.6 L 1933.4 -304.7 L 2025.2 -282.9 L 2080.9 -264.4 L 2090.1 -299 L 2047.2 -329.6 L 2092.5 -356.7 L 2264.9 -312.3 L 2325 -329.6 L 2277 -381.9 L 2443.2 -451.7 L 2509 -447.6 L 2575.6 -422.7 L 2617.2 -471.7 L 2557.7 -514.2 L 2592.6 -556.9 L 2540.2 -601.1 L 2739.7 -578.2 L 2780.4 -538.3 L 2690.1 -529.5 L 2690.6 -489.8 L 2746.7 -465.4 L 2856.9 -480.8 L 2874.4 -526.3 L 3023.4 -560.3 L 3272.2 -621.5 L 3326 -618 L 3255.7 -574.8 L 3344.2 -567.3 L 3395.3 -591.7 L 3529 -593.7 L 3634.9 -623.2 L 3716.1 -580.3 L 3797.2 -627.5 L 3722.4 -668.8 L 3759.5 -692.3 L 3970.2 -670.8 L 4068.9 -648.5 L 4327.4 -567 L 4375 -604.3 L 4302.6 -642 L 4300.5 -657.1 L 4214.5 -664.1 L 4238 -698 L 4199.9 -753.6 L 4197.7 -776.4 L 4329.4 -841 L 4376.2 -905.8 L 4429.2 -919.8 L 4618 -901 L 4632.9 -861.4 L 4565.3 -803.5 L 4609.6 -780.8 L 4632.6 -730.9 L 4616.4 -633.2 L 4695.1 -589.5 L 4664.4 -541.9 L 4524.8 -440.6 L 4606.3 -430.1 L 4634.6 -455.8 L 4713.1 -474.1 L 4732 -509.4 L 4793.8 -543.3 L 4752.2 -583.9 L 4785.5 -630.9 L 4707.5 -636.8 L 4690.3 -676.5 L 4747.3 -748.1 L 4654.6 -806.2 L 4782.3 -854.3 L 4765.8 -905 L 4801.3 -906.6 L 4838.8 -867.1 L 4810.7 -798.3 L 4887 -785.3 L 4854.5 -836.7 L 4973.8 -864.7 L 5121.8 -868.5 L 5253.6 -827.8 L 5190.2 -887.2 L 5183.1 -963.2 L 5307.1 -977.6 L 5478.6 -974.5 L 5633.2 -983.8 L 5575.2 -1021.1 L 5657.8 -1067.9 L 5739.7 -1069.9 L 5878.4 -1105.3 L 6066.7 -1114.8 L 6090.5 -1134.3 L 6277.7 -1140.9 L 6336.1 -1124.9 L 6496.2 -1162.8 L 6627.2 -1161.6 L 6646.8 -1192.4 L 6715 -1222.8 L 6883.3 -1252 L 7005.7 -1228.9 L 6908.5 -1211.3 L 7070.1 -1200.4 L 7089.3 -1165.2 L 7154.5 -1182.5 L 7363 -1181.6 L 7523.8 -1146.8 L 7581 -1120.1 L 7563.3 -1083 L 7484.4 -1061.9 L 7297 -1022.3 L 7243.4 -1001.1 L 7331.8 -991.2 L 7437.3 -973.2 L 7501.5 -986.7 L 7537.9 -940.9 L 7569.2 -959.4 L 7683.3 -970.7 L 7912.1 -958.9 L 7929.5 -925.5 L 8227.6 -914.9 L 8231.7 -969.4 L 8383 -956.9 L 8496.9 -957.3 L 8612.1 -919.7 L 8644.9 -874.1 L 8602.7 -844.2 L 8692.3 -788.1 L 8804.4 -759.2 L 8873.2 -834 L 8987.6 -801.9 L 9109.2 -821.1 L 9247.2 -799.1 L 9299.8 -819.1 L 9416.4 -809.1 L 9364.9 -875.4 L 9459.1 -906.2 L 10103.2 -859.9 L 10163.9 -817.6 L 10350.6 -763.1 L 10638.6 -776.6 L 10780.6 -764.8 L 10840 -735.4 L 10831.3 -683.2 L 10919.1 -662.9 L 11014.6 -677.5 L 11141.1 -679.4 L 11275.7 -665.4 L 11410.9 -673.3 L 11535.1 -609.9 L 11623.5 -632.7 L 11565.8 -678.3 L 11597.6 -710 L 11825.1 -690 L 11973.5 -694.3 L 12178.6 -660.2 L 12278.4 -629.1 L 12278.4 -345 L 12277.9 -344.6 L 12186.2 -313.3 L 12093.8 -318.5 L 12158.1 -280.5 L 12200.5 -221.8 L 12233.5 -202.6 L 12241.8 -173.1 L 12223.4 -154.2 L 12090.4 -169.7 L 11891.1 -116 L 11827.7 -107.7 L 11718.6 -57.6 L 11615 -13.8 L 11588.8 18.6 L 11486.8 -30.8 L 11301 25.2 L 11268.6 -1.3 L 11199.9 29.3 L 11104.5 19.5 L 11081.5 66.4 L 10995.9 135.4 L 10998.5 164.3 L 11079.7 180.2 L 11070.1 284.1 L 11003.9 286.7 L 10973.4 346.4 L 11003.1 377.1 L 10878.4 413.5 L 10853.6 494.9 L 10747.3 512.3 L 10725.9 584.8 L 10623.1 651.2 L 10596.7 602.1 L 10566.2 498 L 10526.4 339.6 L 10560.7 240.6 L 10620.9 198.1 L 10624.6 164.8 L 10735.4 148.8 L 10862.8 59 L 10985.6 -14.3 L 11113.8 -71.2 L 11171.1 -171.8 L 11084.4 -165.7 L 11041.6 -107 L 10860.7 -28.7 L 10802.3 -116.4 L 10618.2 -92.2 L 10439.7 27.4 L 10498.6 71.1 L 10339.4 89.7 L 10229.1 97.1 L 10234.3 45.5 L 10123.5 34.7 L 10035.1 69.7 L 9817 57.5 L 9582.4 78.6 L 9351.4 217.8 L 9078.1 386 L 9190.5 395 L 9225.5 439.7 L 9294.8 455.5 L 9340.5 419.9 L 9418.7 424.5 L 9521.6 503 L 9524.1 563.7 L 9468.3 634.9 L 9462.3 720.1 L 9430.1 834.1 L 9322.6 937.3 L 9298.7 986.6 L 9201.9 1069.7 L 9105.9 1152 L 9059.8 1194.1 L 8964.8 1236 L 8919.8 1236.9 L 8875 1202.2 L 8779.3 1254.4 L 8768.2 1278.2 L 8768.2 1278.2 L 8768.2 1278.2 L 8768.2 1278.2 L 8758.2 1265.7 L 8758.2 1265.7 L 8757.7 1229.5 L 8794.2 1227.5 L 8804.4 1143.3 L 8785.6 1082.2 L 8846.9 1057 L 8933.4 1069.6 L 8981.4 1000.2 L 9005.8 922.1 L 9033.5 896 L 9071 831.8 L 8953.1 852.9 L 8891.3 881 L 8782.9 880.9 L 8754.1 813.9 L 8669.6 763.2 L 8545.5 740.4 L 8519.1 670.6 L 8494.2 626.8 L 8467.5 596.1 L 8423.4 524.1 L 8360.8 497.9 L 8254.1 476.6 L 8159.5 478.6 L 8070.9 491.4 L 8012 526.9 L 8051.1 543.9 L 8052 583.2 L 8012.3 606.1 L 7948 681.7 L 7948.6 713.1 L 7848.1 758.2 L 7762.5 731.3 L 7677.4 737.2 L 7640.1 713.3 L 7597.3 705.6 L 7492.8 755.9 L 7398.9 767.7 L 7333.4 785.4 L 7243.6 773.7 L 7177.4 774.5 L 7134.1 738 L 7064.3 703.8 L 6992.8 694.4 L 6902.6 703.7 L 6835.2 716.9 L 6733.9 686.9 L 6720.3 633.5 L 6636.4 615.1 L 6571.7 606.8 L 6491.8 577.3 L 6417.9 651.2 L 6446.9 693.2 L 6377.6 742.9 L 6274.5 724.9 L 6203.3 722.4 L 6155.6 689 L 6081.2 688 L 6019.2 666.1 L 5910.7 699.7 L 5774.6 761.1 L 5699.4 773.4 L 5671.5 779.3 L 5633.7 735.7 L 5541.8 745.2 L 5511.5 715 L 5461.6 701.1 L 5427.3 659.9 L 5387.9 647.1 L 5285.4 665.4 L 5187.2 624.3 L 5149.2 661.6 L 4989.8 480.5 L 4898.8 425.4 L 4924.9 403.1 L 4746.2 470.4 L 4677.8 474.4 L 4683.7 435.5 L 4592.1 411.2 L 4517.6 428.5 L 4495.2 354.6 L 4367 339.3 L 4302.9 368.8 L 4124.4 395.2 L 4089.6 412.8 L 3822.8 437.6 L 3790 461.9 L 3841.5 510.8 L 3773.1 529.3 L 3786.4 548.8 L 3718 583.5 L 3833.5 632.6 L 3815.7 666.3 L 3715.5 663.3 L 3694.8 684.4 L 3603.6 647.5 L 3490.5 648.9 L 3414.8 679 L 3330.4 650.1 L 3173.2 600.7 L 3061.8 602.6 L 2914.6 680.2 L 2905.7 732.2 L 2832.4 690.9 L 2775.5 769.2 L 2796.3 783.8 L 2755.1 837.8 L 2815.6 886.2 L 2868.6 884.2 L 2914 931.9 L 2906.8 968.6 L 2943 980.1 Z M 6129.2 -1489.3 L 6283.5 -1505.4 L 6422.1 -1469.5 L 6586.3 -1400.5 L 6568.7 -1336.4 L 6413.1 -1327.5 L 6214.5 -1348.1 L 6096.1 -1375.3 L 6041.4 -1426.5 L 5944.1 -1440.6 L 6129.2 -1489.3 Z M 6775.4 -1365 L 6956.1 -1324.4 L 6935 -1295.5 L 6532.9 -1267.9 L 6663.2 -1361.6 L 6721.8 -1369.6 L 6775.4 -1365 Z M 9342.3 -1140.7 L 9530.7 -1137.6 L 9788.4 -1099.7 L 9732.4 -1046.8 L 9469.5 -1048.8 L 9351.2 -1031.9 L 9209.9 -1078.3 L 9248.2 -1127.3 L 9342.3 -1140.7 Z M 10012.1 -1084.3 L 10191.1 -1065.6 L 10108.6 -1037.4 L 9994.6 -1043.8 L 9862.1 -1072 L 9879.2 -1095.1 L 10012.1 -1084.3 Z M 9415.9 -943.4 L 9483.6 -971.5 L 9572.8 -978.1 L 9674.1 -950.9 L 9682.7 -932.1 L 9574.6 -931.6 L 9428.4 -939.6 L 9415.9 -943.4 Z M 2639.6 -1458.3 L 2778.8 -1471.3 L 2887.2 -1472.1 L 2901.8 -1452.9 L 2942.7 -1470 L 3010 -1481.7 L 3115.7 -1466.1 L 3088.1 -1455.2 L 2992.4 -1445.8 L 2928.3 -1440.4 L 2918.3 -1428.7 L 2835 -1416.9 L 2757.7 -1433.8 L 2798.3 -1456.1 L 2639.6 -1458.3 Z M 1062.4 414.7 L 931.2 415.8 L 843.4 407.7 L 859.6 376.3 L 958.1 353.1 L 1032.7 365.6 L 1064.3 377 L 1056.7 396.5 L 1062.4 414.7 Z M 3257.3 -970.5 L 3428.1 -1033.1 L 3408.8 -1065.4 L 3568.3 -1103.1 L 3803.7 -1148.9 L 4041.1 -1162.3 L 4163.2 -1188.7 L 4302 -1198 L 4351.6 -1169.8 L 4303.7 -1147.6 L 4051 -1112.2 L 3833.2 -1078.2 L 3611.7 -1010.3 L 3505.4 -940.7 L 3393.6 -872.1 L 3408.1 -812.9 L 3544.5 -754.4 L 3502.4 -748.2 L 3269.4 -757.4 L 3250.5 -789.1 L 3121.4 -808.2 L 3110.9 -846.7 L 3183.9 -862 L 3181.4 -900.9 L 3322.9 -961.7 L 3257.3 -970.5 Z M 9633.6 459.1 L 9658.3 527.9 L 9656.4 598 L 9685.9 670 L 9757.6 796.3 L 9652.1 772.8 L 9608.2 875.8 L 9677.7 948.9 L 9675.7 998.8 L 9621.7 955.8 L 9574.9 1011 L 9561.7 951.1 L 9569.7 881.6 L 9561.5 804.7 L 9578 750.8 L 9581.2 655.4 L 9539.4 585.3 L 9545.7 487.8 L 9611.6 455 L 9583.3 422 L 9615 412 L 9633.6 459.1 Z M -13034.2 -503.8 L -13040.4 -459.4 L -12992.3 -441.7 L -13008.8 -493.5 L -12815.2 -482.9 L -12675.6 -416.1 L -12746.3 -385.1 L -12863.2 -377.7 L -12865 -308 L -12893.5 -293.1 L -12960.3 -295.3 L -13014.7 -320.1 L -13109.5 -340.9 L -13125.4 -371.9 L -13197.9 -383.5 L -13279 -374.3 L -13317.7 -399.3 L -13302.2 -425.8 L -13387.6 -408.8 L -13355.5 -375.3 L -13395.9 -345 L -13395.9 -629.1 L -13221.2 -574.7 L -13034.2 -503.8 Z M -13302.8 -766.7 L -13395.9 -762.4 L -13395.9 -811.1 L -13386.8 -814.1 L -13326.3 -814 L -13223.2 -793.6 L -13229.3 -783.8 L -13302.8 -766.7 Z M 1825.8 1010.6 L 1844.6 992.9 L 1895.3 1008.2 L 1918.2 1011 L 1927.5 1025.1 L 1938.3 1027.3 L 1938.8 1033.5 L 1973.7 1050.7 L 2046.5 1046.4 L 2032.5 1071.8 L 1954.5 1084.2 L 1857.7 1125.4 L 1818 1110.9 L 1833.7 1077.4 L 1755.8 1056.6 L 1768.4 1042.9 L 1836.7 1019.2 L 1825.8 1010.6 Z" />
<path class="neighbor" d="M -4242.9 3992.8 L -4285.1 4058.1 L -4307 4110.6 L -4334.3 4137.7 L -4368.4 4142.8 L -4378.2 4122.7 L -4394.1 4119.7 L -4416.2 4139 L -4447.3 4124.3 L -4429.1 4094.3 L -4422.9 4061.7 L -4410.4 4031 L -4438.4 3988.8 L -4444 3940 L -4406.9 3878.7 L -4382.7 3886.5 L -4330.2 3903.4 L -4254.7 3963.6 L -4242.9 3992.8 Z M -117.6 761.6 L -83.9 780.2 L 18.9 793.4 L -17.2 842.2 L -26.2 893 L -45.8 905.2 L -78.3 898.6 L -76 916.8 L -128.2 956.8 L -129.2 989.1 L -95.2 977.9 L -70.7 1009.2 L -73.6 1029.4 L -52.6 1056.2 L -77.4 1077.9 L -59 1133.1 L -20.3 1142.1 L -28.5 1173.1 L -93.1 1213.3 L -233.8 1194 L -337.6 1217.2 L -345.8 1260.1 L -428.5 1269.4 L -508.7 1237.1 L -534.7 1252.5 L -665.9 1220.1 L -694.4 1192.4 L -657.5 1149.6 L -643.9 1007.5 L -717.5 932.7 L -770.1 896.6 L -879.1 869.2 L -886.3 817.2 L -793.8 801.6 L -674 820 L -696.7 739.3 L -629.3 769.9 L -463.3 714.2 L -441.9 655.8 L -379.5 641.4 L -369.2 666.5 L -336 667.7 L -302.9 696.3 L -253.1 729.9 L -216.5 724.4 L -154.1 756.9 L -138.1 763.1 L -117.6 761.6 Z M 65 1249.1 L 110.9 1221.8 L 123 1283 L 99.5 1338.1 L 67.1 1323.6 L 50.6 1275.6 L 65 1249.1 Z" />
<path class="neighbor" d="M 227.7 91.7 L 259.1 50.6 L 318.5 1.7 L 342.1 -82.1 L 296.5 -118.3 L 292.1 -213 L 338.4 -279.9 L 409.2 -278.6 L 434 -306.9 L 408 -331.3 L 518.7 -431.6 L 590.1 -510.7 L 637.2 -561.4 L 705.6 -561.2 L 724.5 -600.9 L 858.9 -589.4 L 869.4 -636.4 L 913.6 -639.3 L 1008.7 -604.4 L 1120 -555.8 L 1121.9 -446 L 1146 -418.3 L 1023.3 -398.1 L 954.1 -348.3 L 965.3 -304.6 L 851.8 -247.3 L 714.1 -185.9 L 662.2 -85.5 L 712.9 -35.3 L 781.1 4.3 L 715.6 84.8 L 641.5 101.4 L 614.3 221.2 L 573.7 288 L 487.2 281.1 L 446.9 337.6 L 364.3 340.9 L 341.6 273.5 L 281.9 192.6 L 227.7 91.7 Z" />
<path class="neighbor" d="M 1450.7 283.4 L 1525.8 301.2 L 1535.9 318.9 L 1573.4 310.4 L 1643.1 327.4 L 1650.1 360.9 L 1634.8 380.2 L 1679.5 426.8 L 1708.5 439.9 L 1704.2 452.7 L 1752.3 465.3 L 1772.9 484.3 L 1745.1 499.9 L 1687.6 497.4 L 1673.9 504.1 L 1690.6 527.8 L 1708.1 573.4 L 1708.1 573.4 L 1646.9 577.7 L 1624.9 593.3 L 1620.4 629.2 L 1592 622.3 L 1527.6 625.7 L 1508.9 609.1 L 1482.2 621.5 L 1455.4 611.2 L 1399.2 609.8 L 1319.6 592.6 L 1247.6 587.1 L 1192.3 588.6 L 1153.2 608 L 1119.1 610.7 L 1117.8 579 L 1095.8 546 L 1138.5 531.4 L 1138.9 503 L 1119.2 475.8 L 1116.1 444.3 L 1185 444.8 L 1262.4 417.9 L 1279 377.6 L 1337.5 354.8 L 1330.8 322.9 L 1374.1 310.9 L 1450.7 283.4 Z" />
<path class="neighbor" d="M 1708.1 573.4 L 1734.8 576.3 L 1752.8 560.1 L 1774.4 563.7 L 1848.4 556.8 L 1894 597.2 L 1876.2 611.6 L 1882.1 633.7 L 1938.9 637.2 L 1964.3 668.1 L 1962.8 682.2 L 2053.3 707.2 L 2108.1 695.9 L 2152.1 729.3 L 2193.7 728.6 L 2298.9 751.8 L 2299.7 772.7 L 2270.7 810.1 L 2286.5 849.4 L 2275.3 873.2 L 2206.3 878.4 L 2169.5 898.3 L 2167.3 930 L 2110.3 935.7 L 2062.9 958.8 L 1996.1 962.5 L 1934.7 989.1 L 1938.3 1027.3 L 1927.5 1025.1 L 1918.2 1011 L 1895.3 1008.2 L 1844.6 992.9 L 1825.8 1010.6 L 1816 1002.8 L 1705.2 984.8 L 1700.2 958.2 L 1634.2 967 L 1607.7 1006.3 L 1552.5 1059 L 1520.1 1046.7 L 1486.6 1058.2 L 1454.8 1045.1 L 1472.7 1037.3 L 1485.2 1012.9 L 1504.7 990.1 L 1499.7 977.4 L 1514.6 971.7 L 1521.6 981.5 L 1563.6 983.6 L 1582.5 978.4 L 1569.2 971.1 L 1574.3 960.5 L 1549.4 942.4 L 1539.1 912.5 L 1513.1 900.9 L 1518.2 876.7 L 1486 857.5 L 1456.6 854.9 L 1404.1 832.6 L 1356.7 839.7 L 1339.7 850.2 L 1309.6 850.2 L 1291.6 866.9 L 1239 873.7 L 1214.6 884.7 L 1181.5 867.2 L 1135.8 867 L 1091.7 859.1 L 1060.9 874.4 L 1055.9 855.2 L 1016.3 835.8 L 1030.3 807.1 L 1050 788.5 L 1065.6 792.7 L 1047.2 760.6 L 1112 701.3 L 1147.4 693 L 1155 673 L 1119.1 610.7 L 1153.2 608 L 1192.3 588.6 L 1247.6 587.1 L 1319.6 592.6 L 1399.2 609.8 L 1455.4 611.2 L 1482.2 621.5 L 1508.9 609.1 L 1527.6 625.7 L 1592 622.3 L 1620.4 629.2 L 1624.9 593.3 L 1646.9 577.7 L 1708.1 573.4 Z" />
<path class="neighbor" d="M 652.2 857.1 L 646.8 886.3 L 606.6 886.4 L 620.4 901.9 L 596.7 947.8 L 583.2 959.8 L 520.8 961.6 L 484.8 977.8 L 425.9 972.3 L 323.9 953.8 L 308 929 L 237.5 941.4 L 229.2 955 L 186 944.9 L 149.6 942.9 L 117.3 929.9 L 128.2 912.5 L 125.5 899.8 L 147 895.9 L 183.1 915.7 L 193.2 896.9 L 256.1 899.9 L 307.1 887.1 L 341.3 889.3 L 363.6 903.9 L 370.2 891.8 L 360.1 845.3 L 385.7 836.3 L 410.9 803.4 L 463.9 826.4 L 504 797.2 L 529.1 791.8 L 584.4 813.6 L 617.9 809.9 L 650.8 823.4 L 645.1 832.4 L 652.2 857.1 Z" />
<path class="neighbor" d="M 1016.3 835.8 L 1055.9 855.2 L 1060.9 874.4 L 1017.3 889.3 L 983.6 937.7 L 940.5 986 L 883.3 999.5 L 838.8 996.3 L 784.1 1015.1 L 784.1 1015.1 L 757.5 1025.7 L 698.6 1012 L 645.3 981.4 L 622.6 972.7 L 608.7 948.6 L 596.7 947.8 L 620.4 901.9 L 606.6 886.4 L 646.8 886.3 L 652.2 857.1 L 688.5 875.4 L 714.8 883.2 L 774.6 874.4 L 780.4 860.1 L 808.7 858 L 843.4 846.9 L 851.2 851.5 L 884.6 842.6 L 901.4 825.8 L 924.7 821.5 L 1001.1 843.1 L 1016.3 835.8 Z" />
<path class="neighbor" d="M 1339.7 850.2 L 1356.7 839.7 L 1404.1 832.6 L 1456.6 854.9 L 1486 857.5 L 1518.2 876.7 L 1513.1 900.9 L 1539.1 912.5 L 1549.4 942.4 L 1574.3 960.5 L 1569.2 971.1 L 1582.5 978.4 L 1563.6 983.6 L 1521.6 981.5 L 1514.6 971.7 L 1499.7 977.4 L 1504.7 990.1 L 1485.2 1012.9 L 1472.7 1037.3 L 1454.8 1045.1 L 1442 1012.5 L 1449.5 982.1 L 1447.3 950.8 L 1406.1 908.4 L 1383.5 878.3 L 1361.4 857.2 L 1339.7 850.2 Z" />
<path class="neighbor" d="M 1454.8 1045.1 L 1486.6 1058.2 L 1520.1 1046.7 L 1552.5 1059 L 1554.1 1077.4 L 1519.5 1092.7 L 1497.9 1086 L 1477.9 1172.1 L 1436 1164.6 L 1384.1 1138.7 L 1300.1 1155.3 L 1264.8 1173.4 L 1160 1169.7 L 1105.2 1158.6 L 1077.6 1163.8 L 1057.1 1134.5 L 1044 1122 L 1060.6 1110 L 1043 1101.1 L 1020.6 1117.1 L 979 1096.4 L 973.4 1067 L 929.9 1050.2 L 921.9 1027.5 L 883.3 999.5 L 940.5 986 L 983.6 937.7 L 1017.3 889.3 L 1060.9 874.4 L 1091.7 859.1 L 1135.8 867 L 1181.5 867.2 L 1214.6 884.7 L 1239 873.7 L 1291.6 866.9 L 1309.6 850.2 L 1339.7 850.2 L 1361.4 857.2 L 1383.5 878.3 L 1406.1 908.4 L 1447.3 950.8 L 1449.5 982.1 L 1442 1012.5 L 1454.8 1045.1 Z" />
<path class="neighbor" d="M 1330.8 322.9 L 1337.5 354.8 L 1279 377.6 L 1262.4 417.9 L 1185 444.8 L 1116.1 444.3 L 1098.9 422.3 L 1062.4 414.7 L 1056.7 396.5 L 1064.3 377 L 1032.7 365.6 L 958.1 353.1 L 942.9 293.2 L 1024.6 271.3 L 1144.2 275.9 L 1214.2 268.8 L 1224.2 283.7 L 1262.2 288.3 L 1330.8 322.9 Z" />
<path class="neighbor" d="M 1387.4 190.3 L 1421.7 206.7 L 1427.8 241.3 L 1450.7 283.4 L 1374.1 310.9 L 1330.8 322.9 L 1262.2 288.3 L 1224.2 283.7 L 1214.2 268.8 L 1144.2 275.9 L 1024.6 271.3 L 942.9 293.2 L 945.4 239.5 L 980.4 194.7 L 1047.6 170.4 L 1104.3 223.7 L 1161.5 222.3 L 1175.2 167.5 L 1235.9 154.9 L 1267.2 163.7 L 1328.6 190.1 L 1387.4 190.3 Z" />
<path class="neighbor" d="M 1436.8 47.6 L 1436.8 47.6 L 1447.5 60 L 1396.8 101.1 L 1417.9 167.6 L 1387.4 190.3 L 1328.6 190.1 L 1267.2 163.7 L 1235.9 154.9 L 1175.2 167.5 L 1183.5 125.4 L 1157.2 134.4 L 1112 109.1 L 1105.8 68.1 L 1196 48.2 L 1285.8 37.9 L 1363.2 49.7 L 1436.8 47.6 L 1436.8 47.6 Z" />
<path class="neighbor" d="M 448.2 455.4 L 464.9 491.7 L 445 510.7 L 470.9 536.1 L 488.5 574.3 L 483 598.9 L 512.2 644.4 L 480.4 651.8 L 461.6 643.6 L 443.7 657.2 L 392.5 671 L 366 688.8 L 314.2 704.3 L 326.7 725.5 L 334.2 755.6 L 370.6 772.7 L 410.9 803.4 L 385.7 836.3 L 360.1 845.3 L 370.2 891.8 L 363.6 903.9 L 341.3 889.3 L 307.1 887.1 L 256.1 899.9 L 193.2 896.9 L 183.1 915.7 L 147 895.9 L 125.5 899.8 L 49.1 878 L 34.4 893.5 L -26.2 893 L -17.2 842.2 L 18.9 793.4 L -83.9 780.2 L -117.6 761.6 L -113.5 730.3 L -127.8 714.2 L -119.7 666 L -131.7 591.3 L -88.8 591.2 L -70.7 564.4 L -53 499.1 L -66.3 475 L -52.4 459.9 L 7.2 456 L 20.5 471.7 L 68.9 436.6 L 52.6 409.8 L 49.3 369.4 L 103.2 378.8 L 148.8 367.9 L 150.1 395.5 L 222.2 412.1 L 221.4 437.4 L 293.9 424 L 334 404.5 L 414.5 432.7 L 448.2 455.4 Z" />
<path class="neighbor" d="M 622.6 972.7 L 645.3 981.4 L 698.6 1012 L 757.5 1025.7 L 784.1 1015.1 L 801.5 1042.7 L 824.1 1063 L 796.7 1089.9 L 764.4 1074.1 L 715.1 1075.1 L 653.8 1063.2 L 620.5 1064.8 L 605 1079.6 L 579.4 1063.2 L 564.5 1092.8 L 599.4 1126.2 L 614.9 1148.3 L 647.7 1174.9 L 674.8 1190.7 L 701.8 1220.5 L 764.9 1247.5 L 757 1259.6 L 757 1259.6 L 690 1233.2 L 648.6 1207.6 L 583.4 1186.4 L 523.4 1133.9 L 537.8 1128.6 L 505.3 1098.6 L 504 1074.5 L 458.1 1063.2 L 436.3 1094 L 415.2 1070.1 L 416.8 1045.4 L 419.4 1044.2 L 469.1 1046.7 L 482.1 1034.6 L 506.4 1046.3 L 534.4 1047.6 L 534.1 1027.7 L 558.9 1020.4 L 565.8 991.6 L 622.6 972.7 Z" />
<path class="neighbor" d="M 125.5 899.8 L 128.2 912.5 L 117.3 929.9 L 149.6 942.9 L 186 944.9 L 180.3 974.1 L 148.9 986.1 L 96.1 977.2 L 80.7 1006 L 46.7 1008.2 L 34.4 996.9 L -5.6 1021.1 L -40 1024.5 L -70.7 1009.2 L -95.2 977.9 L -129.2 989.1 L -128.2 956.8 L -76 916.8 L -78.3 898.6 L -45.8 905.2 L -26.2 893 L 34.4 893.5 L 49.1 878 L 125.5 899.8 Z" />
<path class="neighbor" d="M 186 944.9 L 229.2 955 L 237.5 941.4 L 308 929 L 323.9 953.8 L 425.9 972.3 L 418.2 1007.4 L 435.2 1037.8 L 378.5 1027.4 L 320.5 1052.7 L 324.4 1088.1 L 315.7 1108.4 L 339.1 1144.7 L 405.9 1180.6 L 441.8 1239.6 L 521.2 1297.1 L 577.1 1296.6 L 594.4 1312.4 L 574.4 1326.6 L 638.3 1352.4 L 690.7 1373.9 L 751.8 1411.1 L 759.2 1424.5 L 745.9 1450 L 706.3 1416.7 L 644.3 1405 L 614.3 1451.1 L 665.9 1477.5 L 657.4 1514.7 L 627.6 1519 L 589.5 1580.1 L 559.8 1585.6 L 560.1 1563.8 L 574.6 1525.6 L 590.1 1510.3 L 562.3 1469 L 540.5 1433 L 510.9 1424.2 L 489.8 1393.4 L 444 1380.4 L 413.2 1351.7 L 360.4 1347.1 L 304.7 1314.9 L 239.4 1268.5 L 190.9 1227.4 L 168.7 1156.9 L 133.2 1148.6 L 75.2 1125.1 L 42.3 1134.7 L 1.1 1167.8 L -28.5 1173.1 L -20.3 1142.1 L -59 1133.1 L -77.4 1077.9 L -52.6 1056.2 L -73.6 1029.4 L -70.7 1009.2 L -40 1024.5 L -5.6 1021.1 L 34.4 996.9 L 46.7 1008.2 L 80.7 1006 L 96.1 977.2 L 148.9 986.1 L 180.3 974.1 L 186 944.9 Z M 494 1568.9 L 548.1 1562.6 L 522.4 1618.8 L 533.1 1640.9 L 518.1 1677.5 L 463.6 1650.7 L 427.3 1643 L 327.8 1606.7 L 337.8 1570.1 L 421.2 1576.6 L 494 1568.9 Z M 62.4 1372.3 L 98.1 1350.2 L 140.9 1400.8 L 130.8 1495.2 L 98.4 1490.7 L 69.3 1514.5 L 42.3 1495.6 L 39.5 1409.5 L 23.2 1368.7 L 62.4 1372.3 Z" />
<path class="neighbor" d="M 148.8 367.9 L 103.2 378.8 L 49.3 369.4 L 20.4 329.8 L 18.2 256.9 L 30.1 237.6 L 50.5 216.2 L 113.4 211.8 L 138.4 192.1 L 195.8 172 L 193.4 208.7 L 172.2 231.9 L 180.8 251.9 L 219.5 262.7 L 202 289.6 L 180.8 281.9 L 129.5 333.2 L 148.8 367.9 Z M 323.5 287.5 L 346.3 323.2 L 303.5 381 L 228.8 340.7 L 218.9 311.1 L 323.5 287.5 Z" />
<path class="neighbor" d="M 425.9 972.3 L 484.8 977.8 L 520.8 961.6 L 583.2 959.8 L 596.7 947.8 L 608.7 948.6 L 622.6 972.7 L 565.8 991.6 L 558.9 1020.4 L 534.1 1027.7 L 534.4 1047.6 L 506.4 1046.3 L 482.1 1034.6 L 469.1 1046.7 L 419.4 1044.2 L 435.2 1037.8 L 418.2 1007.4 L 425.9 972.3 Z" />
<path class="neighbor" d="M 1050 788.5 L 1030.3 807.1 L 1016.3 835.8 L 1001.1 843.1 L 924.7 821.5 L 901.4 825.8 L 884.6 842.6 L 851.2 851.5 L 843.4 846.9 L 808.7 858 L 780.4 860.1 L 774.6 874.4 L 714.8 883.2 L 688.5 875.4 L 652.2 857.1 L 645.1 832.4 L 650.8 823.4 L 660.9 807.7 L 692.5 808.9 L 716.9 801.5 L 718.8 794.9 L 732.4 791.5 L 737.1 775.3 L 753.5 772.2 L 764.5 759.3 L 785.8 759.2 L 789.8 763.6 L 819.1 753.9 L 855.1 779.2 L 897.2 763.9 L 930.9 771.2 L 982.3 761.1 L 1050 788.5 Z" />
<path class="neighbor" d="M 512.2 644.4 L 546 667.4 L 599.3 673.6 L 594.9 693.2 L 633.6 707.9 L 644.3 689.5 L 693.2 697.5 L 700 719.8 L 753 724.1 L 785.8 759.2 L 764.5 759.3 L 753.5 772.2 L 737.1 775.3 L 732.4 791.5 L 718.8 794.9 L 716.9 801.5 L 692.5 808.9 L 660.9 807.7 L 650.8 823.4 L 617.9 809.9 L 584.4 813.6 L 529.1 791.8 L 504 797.2 L 463.9 826.4 L 410.9 803.4 L 370.6 772.7 L 334.2 755.6 L 326.7 725.5 L 314.2 704.3 L 366 688.8 L 392.5 671 L 443.7 657.2 L 461.6 643.6 L 480.4 651.8 L 512.2 644.4 Z" />
<path class="neighbor" d="M 784.1 1015.1 L 784.1 1015.1 L 838.8 996.3 L 883.3 999.5 L 921.9 1027.5 L 929.9 1050.2 L 973.4 1067 L 979 1096.4 L 1020.6 1117.1 L 1043 1101.1 L 1060.6 1110 L 1044 1122 L 1057.1 1134.5 L 1039.5 1150.6 L 1045.9 1176.7 L 1080.5 1207.5 L 1053.4 1229.8 L 1041.4 1252.5 L 1049.1 1261 L 1037.4 1271 L 1004.3 1272.2 L 980 1276.4 L 977.7 1271 L 986.2 1262.5 L 994.2 1245.2 L 984.1 1245.6 L 970.2 1232.3 L 958.5 1229 L 949.1 1217.6 L 935.8 1213.2 L 925.7 1203.1 L 912.9 1207.1 L 903 1230.8 L 886 1235.9 L 891.8 1229.8 L 864.6 1215 L 841.2 1207.3 L 830.8 1197.4 L 811.9 1185.2 L 828.7 1182 L 839 1148.5 L 804.7 1121.1 L 822.5 1089.7 L 796.7 1089.9 L 796.7 1089.9 L 824.1 1063 L 801.5 1042.7 L 784.1 1015.1 Z" />
<path class="lake" d="M 850.8 407.1 L 847.4 403.7 L 858.9 396 L 863.4 391.9 L 864.6 389.4 L 866.7 387.4 L 870 388 L 873.6 390 L 882.4 389.3 L 882.4 389.3 L 882.4 389.3 L 882.4 389.3 L 882.4 389.3 L 882.4 389.3 L 896.5 389.4 L 874.9 396.5 L 862.5 401.2 L 851.1 406.8 L 850.8 407.1 Z" />
<path class="lake" d="M 847.4 403.7 L 850.8 407.1 L 848.9 408.7 L 843.2 411.4 L 838.1 413.2 L 830.6 416.6 L 821 418.9 L 814.2 415.9 L 816.1 413.9 L 832.1 410.9 L 840.2 407.6 L 847.4 403.7 Z" />
<path class="lake" d="M 695.4 954 L 687.6 957 L 673.4 957.1 L 672.8 955.7 L 672.9 954.4 L 675.6 954.1 L 681 953 L 687.8 951.5 L 701.1 947.8 L 712.4 943.6 L 716.5 941.3 L 721.7 938.2 L 727.7 934.6 L 730.5 933.4 L 734.3 934.5 L 736.6 936.5 L 735.1 939.9 L 716.5 946.8 L 701.6 952.2 L 695.4 954 L 695.4 954 L 695.4 954 L 695.4 954 Z" />
<path class="lake" d="M 135.2 899.7 L 134.3 900.5 L 132 901.2 L 122.6 900.8 L 115.4 900.6 L 100.9 894.6 L 96.1 889.4 L 91.2 882.2 L 92.5 881.5 L 99.6 885 L 109.7 889 L 119.8 892.7 L 129 896.9 L 135.2 899.7 L 135.2 899.7 L 135.2 899.7 L 135.2 899.7 Z" />
<path class="lake" d="M 92.2 889.4 L 92.2 889.4 L 92.2 889.4 L 74.6 890.5 L 79.4 888.3 L 81.7 887.2 L 81.4 885.2 L 83 883.7 L 89.8 886.2 L 92.2 889.4 Z" />
<path class="country" d="M 1116.1 444.3 L 1119.2 475.8 L 1138.9 503 L 1138.5 531.4 L 1095.8 546 L 1117.8 579 L 1119.1 610.7 L 1155 673 L 1147.4 693 L 1112 701.3 L 1047.2 760.6 L 1065.6 792.7 L 1050 788.5 L 982.3 761.1 L 930.9 771.2 L 897.2 763.9 L 855.1 779.2 L 819.1 753.9 L 789.8 763.6 L 785.8 759.2 L 753 724.1 L 700 719.8 L 693.2 697.5 L 644.3 689.5 L 633.6 707.9 L 594.9 693.2 L 599.3 673.6 L 546 667.4 L 512.2 644.4 L 483 598.9 L 488.5 574.3 L 470.9 536.1 L 445 510.7 L 464.9 491.7 L 448.2 455.4 L 496.9 434.4 L 608.2 401.5 L 698.1 377.3 L 769.2 389.4 L 774.6 406.8 L 843.4 407.7 L 931.2 415.8 L 1062.4 414.7 L 1098.9 422.3 L 1116.1 444.3 Z" />

<path class="river" d="M 92.2 889.4 L 74.6 890.5 M 96.1 889.4 L 122.6 900.8" />
<path class="river" d="M 782.8 728.7 L 791.8 728.2" />
<path class="river" d="M 668.4 861.6 L 687.9 874 L 698.9 879.5 L 708 882.3 L 735.3 882.8 L 778.7 881 L 781.6 879.5 L 796.3 878.8 L 801.4 879.8 L 803.7 881.7 L 805.1 885.1 L 805.1 886.7 L 801.5 897.9 L 800.6 903 L 798.4 907.8 L 793.3 911.3 L 789.7 918.7 L 788 926.5 L 791.2 931.3 L 791.7 934.9 L 792 937.3 L 791.7 945.5 L 792.3 951.3 L 795.1 955.8 L 793.8 959.7 L 788.7 963.1 L 787.3 966.8 L 789.5 970.9 L 790.5 978.4 L 790.3 989.3 L 786.2 997.8 L 778.3 1004.1 L 776.8 1007.6 L 779.1 1013.2 L 784.8 1020.3 L 788.7 1025.2 L 792.5 1033.1 L 790.4 1037.1 L 793 1040.1 L 800.2 1042.3 L 800.9 1043.2 L 798.6 1044.1 L 796.8 1046.7 L 796.6 1051.4 L 802.9 1055.9 L 815.7 1060.1 L 830.1 1062.6 L 846.1 1063.3 L 855.3 1062.7 L 857.8 1060.7 L 861 1061.4 L 864.7 1064.7 L 870.8 1066.6 L 879.2 1067.1 L 885.7 1069.2 L 887.7 1070.9 L 890.1 1072.9 L 891.8 1077.2 L 890.8 1082.1 L 892.8 1086.3 L 897.6 1089.6 L 903.3 1091.1 L 909.7 1090.8 L 912.9 1092.1 L 912.8 1095.1 L 915.1 1098.4 L 919.7 1101.8 L 932.7 1100.7 L 964.6 1092.3 L 976.2 1094.9 L 981.5 1097.3 L 984.3 1100.6 L 991.7 1102.7 L 1003.8 1103.7 L 1012.1 1107 L 1016.9 1112.6 L 1024.6 1111.2 L 1035.2 1103 L 1045.7 1100.9 L 1056 1104.8 L 1061.6 1108 L 1062.6 1110.6 L 1060.2 1111.6 L 1054.5 1111.1 L 1049.7 1112.7 L 1046.1 1116.3 L 1045.5 1120.2 L 1048.1 1124.3 L 1051.7 1127.1 L 1056.4 1128.7 L 1059 1130.8 L 1059.3 1133.5 L 1065.5 1137.3 L 1077.6 1142.1 L 1083.6 1145.7 L 1083.3 1147.9 L 1080.5 1150 L 1075.2 1152.1 L 1072.2 1154.9 L 1071.3 1158.4 L 1072.1 1160.9 L 1075.8 1163 L 1097.6 1160.2 L 1119.7 1161.7 L 1149.4 1166.4 L 1169 1168.1 L 1183.6 1165.9 L 1235.6 1173.6 L 1259.6 1174.7 L 1273.1 1171.8 L 1282.6 1167.9 L 1290.7 1160.5 L 1310.9 1150.7 L 1330.4 1145.2 L 1356 1140.8 L 1373 1139.3 L 1382.6 1141 L 1385.8 1141.4 L 1390.9 1141.7 L 1396.2 1141.4 L 1409.2 1138.4 L 1428.2 1132.5 L 1439.7 1126.8 L 1443.8 1121.3 L 1444.1 1117.3 L 1440.4 1114.6 L 1439.1 1111.4 L 1439.9 1107.7 L 1437.6 1103.9 L 1431.5 1100 L 1429.3 1098.2 L 1427.4 1096.4 L 1426 1094.5 L 1426.1 1092 L 1428.3 1089.6 L 1430.6 1082.2 L 1432.9 1070 L 1435.6 1060.7 L 1438.9 1054.4 L 1443.8 1050.4 L 1453.3 1047.8 L 1460.8 1055.1 L 1470.3 1059.1 L 1492.4 1063.2" />
<path class="river" d="M 1728.9 230.7 L 1727.8 232.9 L 1730.3 234 L 1736 234.8 L 1740.6 236.9 L 1746.1 241.9 L 1742.9 252 L 1740 256.1 L 1736.5 257.6 L 1733 261.3 L 1729.6 267.3 L 1728.6 272.9 L 1729.9 278.3 L 1728.2 281.6 L 1723.5 282.8 L 1721.6 285.2 L 1722.4 288.6 L 1714.5 290.5 L 1697.8 290.7 L 1686.3 292.6 L 1679.9 296.2 L 1679.1 303.3 L 1684.1 314.1 L 1681.7 320 L 1671.9 321.2 L 1664.3 323.9 L 1656.1 330.4 L 1626.6 335.6 L 1609.9 340.4 L 1596.1 346.4 L 1592.7 350 L 1591.3 352.8 L 1587 353.7 L 1575.4 352.2 L 1567.6 352.1 L 1563.4 353.4 L 1561.2 355.2 L 1560.9 357.5 L 1558.4 358.5 L 1553.7 358 L 1549 359.1 L 1544.5 361.8 L 1541.7 361.7 L 1540.7 358.8 L 1538.4 357.3 L 1534.8 357.3 L 1532 355.7 L 1530 352.5 L 1523.9 348.4 L 1513.5 343.3 L 1509.5 339.6 L 1509 337.6 L 1503.6 334.3 L 1489.7 329.4 L 1474.1 326.4 L 1456.7 325.2 L 1444.3 322.5 L 1437.1 318.1 L 1433 314 L 1432 310 L 1429.6 308.5 L 1427.8 308.3 L 1421.3 309.1 L 1409.9 309.8 L 1399.6 309.4 L 1391.7 307.4 L 1367.9 302.6 L 1353.2 302 L 1339.8 304 L 1330.4 302.6 L 1325 297.9 L 1321.5 292.6 L 1319.8 286.8 L 1316.5 282.7 L 1311.7 280.4 L 1308.6 276.6 L 1307.3 271 L 1300.1 265.6 L 1286.9 260.3 L 1279.7 256 L 1278.5 252.8 L 1274.8 252 L 1268.6 253.5 L 1262.3 253.4 L 1255.8 251.4 L 1249.7 251.2 L 1243.9 252.8 L 1236.6 253 L 1227.9 251.8 L 1216.4 247.7 L 1202 240.9 L 1188.9 236.4 L 1177.2 234.2 L 1168.6 231.7 L 1163.1 228.7 L 1159.4 225.1 L 1156.7 219.4" />
<path class="river" d="M 1614.9 1001.4 L 1615.9 1002.2 M 1070.6 775.6 L 1087.4 761.8 L 1109.2 755.1 L 1124.9 754.4 L 1141.5 757.3 L 1154.2 760.3 L 1162.8 763.5 L 1169 768.1 L 1172.9 773.9 L 1178.6 777.1 L 1186.1 777.7 L 1195.2 781.7 L 1206 788.9 L 1213.6 792.6 L 1217.9 792.8 L 1223.2 794.8 L 1232.9 800.5 L 1235.2 803.3 L 1237.4 803.1 L 1239.2 802.9 L 1240.6 804.3 L 1242.1 805.9 L 1245.7 805.9 L 1248.4 806.6 L 1252.5 805.7 L 1261.3 808.3 L 1271.8 816.8 L 1276.3 819 L 1279.8 818.9 L 1283.2 819.7 L 1287.9 822.6 L 1292.5 823 L 1295.9 822.2 L 1298.1 821.9 L 1300.6 825.1 L 1302.1 825.8 L 1304.8 825.1 L 1307.5 826.9 L 1313.5 828.2 L 1323.9 827.8 L 1331 829.1 L 1335.1 832.1 L 1337.7 832.7 L 1338.8 830.8 L 1341.1 830 L 1343.2 829.1 L 1345 827.5 L 1346.9 826.7 L 1349.6 825.9 L 1351.4 825.7 L 1352.8 824.7 L 1355 824.4 L 1358.5 826.1 L 1366.6 826 L 1386.2 823.1 L 1397.7 824.3 L 1401 829.6 L 1407.7 832.8 L 1417.8 833.9 L 1425.3 836.3 L 1430.3 839.9 L 1435.5 842.2 L 1440.9 843 L 1443.8 844.9 L 1444.4 847.6 L 1449.5 849 L 1458.9 848.9 L 1462.9 850.8 L 1461.5 854.4 L 1462.4 855.7 L 1465.8 854.4 L 1468.3 855.5 L 1469.7 858.2 L 1471.2 859.5 L 1473.5 859.1 L 1476.6 858.5 L 1479.1 861.1 L 1478.9 864 L 1481.2 865.3 L 1484.7 864.7 L 1492.7 866.9 L 1504.7 873.2 L 1510.2 880.5 L 1509 888.8 L 1510.7 895.7 L 1515.1 901.4 L 1516.8 905.2 L 1515.8 907.3 L 1516.8 909.3 L 1518 911 L 1517.8 913 L 1516.8 915.1 L 1520.4 920.5 L 1519.8 924.4 L 1518.9 926.3 L 1519.2 927.6 L 1521.7 927.6 L 1524.8 927.1 L 1528.3 926.9 L 1531.8 929 L 1535.1 932.5 L 1535.1 935.2 L 1532 936.9 L 1530.9 938.4 L 1531.6 939.6 L 1539.7 940.5 L 1543.1 943.6 L 1545 949.5 L 1547.8 951.5 L 1551.4 949.6 L 1554.7 950.6 L 1557.7 954.7 L 1558.6 957.6 L 1557.5 959.4 L 1558.9 961.2 L 1562.8 962.9 L 1563.9 964.3 L 1564.4 965.7 L 1566.9 967.2 L 1573.5 969.1 L 1590.1 978.4 L 1596.4 978.2 L 1598.9 980 L 1599.9 985.8" />
<path class="river" d="M 27.5 862.6 L 46.7 870.9 L 61.4 870.5 L 71.4 867.6 L 81.6 862.2 L 92.5 859.8 L 104.2 860.4 L 113.1 857.7 L 119.4 851.5 L 125.1 848.6 L 130.2 848.8 L 139 845.3 L 151.5 838.3 L 163.5 833.7 L 175 831.5 L 181.9 829.1 L 184 826.6 L 191.8 822.7 L 205.2 817.5 L 227.5 813.5 L 274.5 809.3 L 280.4 803.8 L 286.4 801.3 L 294.5 800 L 298.8 797.7 L 299.4 792.7 L 314.3 793.3 L 322.8 795.2 L 333.2 800.1 M 668.4 861.6 L 665.4 857.6 L 661.5 855.5 L 655.7 854 L 644.9 853.7 L 629.3 854.5 L 617 850.8 L 608 842.6 L 597.3 838.9 L 584.7 839.6 L 572.4 838.9 L 560.4 836.6 L 551.9 835.7 L 546.8 836.2 L 541.8 839.5 L 536.6 845.5 L 529.9 849.6 L 521.5 851.8 L 513.6 851.8 L 506.1 849.7 L 498.8 849.7 L 491.5 851.9 L 481.3 850.4 L 468.2 845.2 L 457 842.5 L 447.8 842.5 L 442.3 840.8 L 440.6 837.5 L 430.5 833 L 403.1 824.5 L 390.9 823 L 382.6 820.6 L 374.1 816.7 L 368.7 812.6 L 366.3 808.4 L 361.9 806.4 L 355.3 806.4 L 347.3 804.6 L 333.2 799.5" />
<path class="river" d="M 427 930.8 L 465.9 926.8 L 475.8 922.4 L 483.9 921.3 L 493.3 922 L 501.1 919.8 L 507.2 914.5 L 515.4 910.8 L 521.4 908.7 L 525.9 908.6 L 532.6 909.2 L 535.7 912.5 L 536.1 914.7 L 534.1 915.9 L 533.5 919.3 L 534.5 924.9 L 536.8 928.6 L 540.5 930.5 L 544.9 937.5 L 550.9 949.3 L 552.5 953.9 L 555.9 956.1 L 561 957 L 585.3 961.3 L 597.4 967.9 L 605.2 970.5 L 612.8 971.2 L 623 974 L 635.7 978.9 L 644.5 984.4 L 649.4 990.5 L 656 995.2 L 664.3 998.6 L 670.9 1003.1 L 675.8 1008.9 L 682.6 1012.1 L 691.4 1012.8 L 696.9 1014.7 L 699.3 1018 L 704 1020.9 L 711.2 1023.5 L 722.4 1025 L 745.1 1025.3 L 764.2 1035.2 L 775.7 1039 L 793 1040.1" />
<path class="river" d="M 552.6 673.9 L 554.9 679.5 L 557.5 682.2 L 561.4 683.9 L 563.4 686.1 L 563.5 688.8 L 566.8 691.9 L 572.6 695.2 L 574 696.8 L 574.4 700 L 571.3 703.9 L 569.4 709.3 L 569.3 715.7 L 559.3 719.6 L 539.5 721.1 L 527.8 720.8 L 522.3 718 L 517.3 712.5 L 508.8 710.6 L 495.2 710.4 L 484.7 707.5 L 473.4 698.9 L 467.4 692.1 L 463.4 690.5 L 459.5 691.8 L 456.8 690.9 L 455.5 687.8 L 452.4 686.2 L 447.4 686.3 L 444.1 685.1 L 442.5 682.9 L 442.5 681.3 L 444.2 680.4 L 444.5 679.2 L 444.6 677.6 L 445.7 676.2 L 451.1 674.4 L 454.2 669.9 L 454.8 662.6 L 449.4 657.9 L 438 655.5 L 430.7 652.6 L 427.4 649.1 L 421.4 646.4 L 412.8 644.5 L 405.6 641.9 L 400 638.5 L 396.7 635.2 L 395.9 632.2 L 393 629.7 L 388 627.8 L 384.5 624.7 L 381.5 618.2 M 382 618.2 L 363.7 607.6 L 357.1 601.3 L 356.2 595.7 L 349.9 591.9 L 338.4 589.9 L 324.3 589.2 L 307.5 589.7 L 296.7 587.2 L 291.7 581.7 L 285.9 578.5 L 279.2 577.4 L 275 575.6 L 273.4 572.9 L 273.4 569.6 L 275.1 565.7 L 279.7 561.2 L 291.1 553.7 L 295.5 549.5 L 297.3 540.6 L 298 525.7 L 291.4 515.2 L 277.4 508.9 L 265.3 505.5 L 255.3 504.9 L 246.9 502.7 L 240.2 498.9 L 235.7 497.5 L 233.3 498.6 L 225.3 495.1 L 211.8 487.1 L 203.1 483 L 197.3 482.9 L 183.9 479.6 L 176.2 479 L 169.7 479.9 L 160.3 478 M 160.3 478 L 141.5 470.8 L 139 469.8 L 147.3 470 L 153.5 471 L 157.8 472.6 L 160.3 478" />
<path class="river" d="M 790.6 989.6 L 789.8 1012.2 L 789.5 1013.5 L 788.7 1018.2 L 784.8 1020.3" />
<path class="river" d="M 697.7 741.9 L 714 748 L 721.1 749.2 L 726.1 746.7 L 735.1 742.6 L 741 738 L 746.9 731.5 L 747.5 725.3 L 743 719.4 L 741.4 713.5 L 742.9 707.7 L 738.2 700.4 L 727.2 691.8 L 722 685.4 L 722.4 681 L 720.6 676.5 L 716.4 671.9 L 708 667.7 L 685.7 660.4 L 679.3 657.2 L 675 653.8 L 672.8 650.4 L 667.4 647.2 L 654.7 642.7 L 644.3 635.7 L 635 634 L 623.2 635.2 L 616.2 634.5 L 613.9 632.1 L 613.7 629.5 L 615.6 626.8 L 616.1 621.9 L 615.3 615.1 L 611.4 609.6 L 604.5 605.5 L 598.2 603.7 L 592.7 604.3 L 583.8 602.7 L 571.4 599 L 565.8 594.1 L 567.1 588.2 L 565.1 583.5 L 559.7 579.9 L 541.2 577.4 L 493.9 575.2 L 489.9 572.8 L 489.1 570 L 490 565.9 L 488.2 562.9 L 483.6 560.9 L 480.6 558.3 L 479.2 555 L 480.3 549.9 L 483.9 543 L 476.3 534.6 L 457.8 524.9 L 448.9 518.1 L 449.6 514.2 L 453.5 510.6 L 460.6 507.5 L 466 501.8 L 471.5 489.7 L 481.1 477.6 L 483.8 471.9 L 483.2 467.7 L 481.3 463.8" />
<path class="river" d="M 65.3 960.4 L 86.3 954.5 L 112.7 949.1 M 112.2 949.1 L 120 943.9 L 121.2 939.9 L 118.5 935.3 L 117.3 930.3 L 117.6 925 L 120.7 918 L 126.5 909.3 L 127.7 904 L 122.6 900.8 M 92.2 889.4 L 96.1 889.4" />
<path class="river" d="M 800.6 903 L 802.8 906 L 803.3 907.5 L 803 909.2 L 800 912 L 794.4 917.6 L 792.6 923 L 794.3 926.9 L 794.6 930.1 L 791.7 934.9" />
<path class="river" d="M 880.3 990 L 873.8 996.8 L 872.3 998.7 L 872.2 1000.2 L 873.2 1003.1 L 872.8 1005.1 L 872 1006.5 L 873.3 1008.5 L 875 1010.8 L 876.4 1014.1 L 876.3 1016.4 L 874.6 1017.6 L 875.1 1020.4 L 877.6 1024.4 L 877.3 1027 L 875.4 1028.3 L 873.6 1030.8 L 872.6 1034.8 L 875.1 1039.7 L 881 1045.5 L 883.5 1049.2 L 882.5 1050.9 L 884.1 1055 L 888.2 1061.7 L 889.6 1066.2 L 887.7 1070.9" />
<path class="river" d="M 963.6 864.1 L 951.9 865.5 L 946.3 869.9 L 943 877.7 L 929.7 888.1 L 906.5 900.9 L 896.1 910 L 898.5 915.4 L 898 918 L 894.5 917.9 L 889.4 920 L 882.8 924.6 L 880.1 928.8 L 881.1 932.6 L 883.1 934.6 L 881.3 936.6 L 878.6 938.7 L 877.8 941.7 L 876.5 943.6 L 872.3 946.3 L 873.3 950.8 L 879.4 957 L 881.3 962 L 878.8 966 L 879.2 972.9 L 882.4 982.9 L 883.1 988.4 L 880.3 990 M 1171.1 843 L 1177 845 L 1176.6 849.3 L 1169.6 860.1 L 1165 869.2 L 1153 870.5 L 1132.1 867.2 L 1115.6 862.4 L 1103.4 856.3 L 1092 854.9 L 1081.2 858.4 L 1073.4 859.4 L 1068.3 858 L 1060.3 858.3 L 1049.1 860.4 L 1040.1 859.2 L 1033.4 854.6 L 1029.9 848.5 L 1029.7 841 L 1028.3 836.9 L 1025.8 836.4 L 1019.7 839.3 L 1010 845.7 L 1000.9 850.1 L 992.4 852.7 L 984.3 853.8 L 976.7 853.5 L 972.1 855.6 L 970.5 860.1 L 968.1 862.8 L 963.1 864.1" />
<path class="river" d="M 787.7 748.7 L 781.2 736.3 L 779.9 731.3 L 782.7 728.7 M 791.8 728.2 L 801.1 726.7 L 806.4 724.3 L 810.5 720.4 L 821.1 720.1 L 838.1 723.4 L 857 722.9 L 888.3 716.4 L 904.8 713.5 L 913.6 709.9 L 920.2 704.7 L 930.6 701.4 L 944.8 700 L 959.5 695.8 L 974.9 688.7 L 986.7 681.5 L 994.8 674.2 L 997.6 663 L 995.3 647.9 L 994.8 638.6 L 996.3 634.9 L 999.9 631.5 L 1005.6 628.1 L 1007.4 624.4 L 1005.4 620.4 L 1002.9 618.3 L 999.8 617.9 L 998.1 616.3 L 997.7 613.3 L 991.1 609.9 L 978.3 605.8 L 971.1 601.8 L 969.5 597.6 L 965.4 593.5 L 958.6 589.4 L 956.1 586.5 L 957.8 584.7 L 957.4 581.1 L 954.7 575.9 L 947.9 568.6 L 937 559.2 L 927.6 553.3 L 919.7 551 L 905 550.8 L 883.4 552.8 L 865 550.7 L 841.9 541.5 L 810.7 534.8 L 793.4 526.5 L 779.6 514.5 L 763.3 506.6 L 744.5 503 L 739.2 497 L 747.4 488.5 L 758 482.1 L 771 477.7 L 777.7 472.3 L 778.1 466 L 780.4 461.3 L 784.5 458.3 L 787.1 453.9 L 788 448.2 L 787.2 441.9 L 784.8 435 L 785.8 428.9 L 790.3 423.5 L 792.7 418.7 L 794.6 413.2" />
<g class="city"><circle cx="396.86645927638745" cy="543.3292257066845" r="5" /><text x="408.86645927638745" y="547.3292257066845">Berlin</text></g>
<g class="city"><circle cx="608.3296003752712" cy="851.5498994773221" r="5" /><text x="620.3296003752712" y="855.5498994773221">Vienna</text></g>
<g class="city"><circle cx="1407.0860100457385" cy="445.0422155067594" r="5" /><text x="1419.0860100457385" y="449.0422155067594">Minsk</text></g>
<g class="city"><circle cx="154.2760328121289" cy="469.99995680764255" r="5" /><text x="166.2760328121289" y="473.99995680764255">Hamburg</text></g>
<g class="city"><circle cx="939.2899663652073" cy="564.2175840103903" r="5" /><text x="951.2899663652073" y="568.2175840103903">Warsaw</text></g>
<g class="city"><circle cx="802.0768758666723" cy="901.4728704284527" r="5" /><text x="814.0768758666723" y="905.4728704284527">Budapest</text></g>
<g class="city"><circle cx="266.6009166824453" cy="856.5473385723318" r="5" /><text x="278.6009166824453" y="860.5473385723318">Munich</text></g>
<g class="city"><circle cx="469.8483400825576" cy="717.1157710865335" r="5" /><text x="481.8483400825576" y="721.1157710865335">Prague</text></g>
<text class="map-title" x="80" y="105">Poland Physical Study Map</text>
<text class="map-subtitle" x="80" y="145">Landmark: Wawel Royal Castle | Study terrain and water systems</text>
  <text class="footer" x="80" y="1036">Made with Natural Earth. Free vector and raster map data @ naturalearthdata.com.</text>
</svg>
