<?xml version="1.0" encoding="UTF-8"?>
<svg xmlns="http://www.w3.org/2000/svg" width="1600" height="1100" viewBox="0 0 1600 1100" role="img" aria-labelledby="title desc">
  <title id="title">Portugal Political Study Map</title>
  <desc id="desc">Made with Natural Earth. Free vector and raster map data @ naturalearthdata.com.</desc>
  <defs>
    <linearGradient id="terrain" x1="0" x2="1" y1="0" y2="1">
      <stop offset="0%" stop-color="#6c8c53" />
      <stop offset="42%" stop-color="#d5c487" />
      <stop offset="72%" stop-color="#b88b5f" />
      <stop offset="100%" stop-color="#f1f5ee" />
    </linearGradient>
    <filter id="softShadow" x="-10%" y="-10%" width="120%" height="120%">
      <feDropShadow dx="0" dy="10" stdDeviation="12" flood-color="#0f172a" flood-opacity="0.16" />
    </filter>
    <style>
      .neighbor { fill: #ffffff; stroke: #94a3b8; stroke-width: 1.2; opacity: 0.72; }
      .country { fill: #f7f1df; stroke: #1f2937; stroke-width: 4; filter: url(#softShadow); }
      .admin1 { fill: none; stroke: #64748b; stroke-width: 1.1; stroke-dasharray: 6 7; opacity: 0.75; }
      .river { fill: none; stroke: #1d9bd1; stroke-width: 3; stroke-linecap: round; opacity: 0.88; }
      .lake { fill: #8ed1ea; stroke: #0ea5e9; stroke-width: 1.5; opacity: 0.8; }
      .city circle { fill: #ef4444; stroke: #ffffff; stroke-width: 2; }
      .city text, .terrain-label { fill: #172033; font: 700 24px system-ui, sans-serif; paint-order: stroke; stroke: #ffffff; stroke-width: 5; stroke-linejoin: round; }
      .map-title { fill: #0f172a; font: 800 46px system-ui, sans-serif; }
      .map-subtitle { fill: #475569; font: 600 24px system-ui, sans-serif; }
      .footer { fill: #64748b; font: 500 18px system-ui, sans-serif; }
    </style>
  </defs>
  <rect width="100%" height="100%" fill="#eaf3f8" />
  <rect x="40" y="40" width="1520" height="1020" rx="32" fill="#ffffff" opacity="0.54" />
  <path class="neighbor" d="M 16579.3 -2080.9 L 16687.1 -2116.1 L 16687.1 -2058.3 L 16594.4 -2054 L 16579.3 -2080.9 Z M 5622.9 6.9 L 5584.4 57 L 5502.4 70.9 L 5418.4 158.2 L 5495.2 238.4 L 5486.9 295.3 L 5579.2 394.9 L 5579.2 394.9 L 5528.7 428.9 L 5514.2 450.4 L 5476.8 444.7 L 5418.8 393.3 L 5395 390.5 L 5341.9 370.9 L 5316 336.2 L 5237.2 318.5 L 5185.9 331.8 L 5171.1 316.1 L 5056 275.6 L 4931.6 261.9 L 4860.1 247.4 L 4849.8 257.4 L 4742 186 L 4645.6 154.1 L 4572.6 104.5 L 4634.1 90.9 L 4704.3 20.2 L 4657 -13.2 L 4781.6 -47.7 L 4779.3 -66.2 L 4703.5 -52.6 L 4706.1 -90.1 L 4749.7 -113.7 L 4831.5 -119.9 L 4844.8 -148.1 L 4826.1 -194.7 L 4860.4 -239 L 4859.5 -263.8 L 4734.9 -291.3 L 4685.5 -290.4 L 4633.3 -329.9 L 4568.4 -316.6 L 4461.1 -346.3 L 4462.9 -362.9 L 4432.9 -399.6 L 4365.5 -403.7 L 4358.5 -429.9 L 4379.6 -447 L 4325.6 -494.9 L 4237.9 -486.7 L 4212.3 -490.9 L 4190.9 -471.7 L 4159.3 -475.1 L 4159.3 -475.1 L 4138.5 -529.3 L 4118.7 -557.3 L 4135 -565.2 L 4203.2 -562.3 L 4236.1 -580.8 L 4211.7 -603.3 L 4154.7 -618.2 L 4159.8 -633.4 L 4125.4 -648.9 L 4072.4 -704.2 L 4090.5 -727 L 4082.2 -766.7 L 3999.6 -786.8 L 3955.3 -776.8 L 3943.2 -797.7 L 3854.3 -818.9 L 3827.1 -868.8 L 3819.9 -909.8 L 3779.2 -929.3 L 3815.4 -956.1 L 3790.3 -1034.9 L 3850.5 -1083.6 L 3837.7 -1098.4 L 3837.7 -1098.4 L 3933.8 -1145.1 L 3845.2 -1185.3 L 3845.2 -1185.3 L 4026.2 -1293.2 L 4104.7 -1342 L 4136.5 -1385.1 L 4011.4 -1443 L 4046 -1498.1 L 3969.9 -1561 L 4026.8 -1633.5 L 3928.5 -1729.7 L 4006.5 -1793.4 L 3877 -1849.8 L 3889.4 -1908.9 L 3957.6 -1916.7 L 4101.4 -1950.6 L 4101.4 -1950.6 L 4188.6 -1980 L 4327.5 -1928.9 L 4559 -1908.8 L 4878.3 -1813.2 L 4943.2 -1773 L 4948.8 -1716.8 L 4855 -1672.4 L 4716.9 -1649.8 L 4339.6 -1714.1 L 4277.5 -1703.3 L 4415.3 -1641.4 L 4420.7 -1602.2 L 4426.3 -1515.9 L 4535.1 -1490.1 L 4601.1 -1468.1 L 4612 -1509.1 L 4561.1 -1545.5 L 4614.9 -1577.5 L 4819.3 -1524.9 L 4890.4 -1545.5 L 4833.6 -1607.4 L 5030.5 -1690.1 L 5108.5 -1685.3 L 5187.5 -1655.7 L 5236.7 -1713.8 L 5166.2 -1764.2 L 5207.6 -1814.8 L 5145.5 -1867.2 L 5381.9 -1840.1 L 5430.2 -1792.7 L 5323.2 -1782.3 L 5323.7 -1735.3 L 5390.3 -1706.3 L 5520.9 -1724.7 L 5541.5 -1778.6 L 5718.1 -1818.8 L 6013.1 -1891.4 L 6076.8 -1887.2 L 5993.5 -1835.9 L 6098.4 -1827.1 L 6158.9 -1856 L 6317.3 -1858.3 L 6442.9 -1893.4 L 6539.2 -1842.5 L 6635.2 -1898.4 L 6546.6 -1947.4 L 6590.6 -1975.3 L 6840.3 -1949.7 L 6957.3 -1923.3 L 7263.6 -1826.7 L 7320.1 -1871 L 7234.2 -1915.7 L 7231.7 -1933.6 L 7129.9 -1941.9 L 7157.7 -1982 L 7112.5 -2047.9 L 7110 -2075 L 7266 -2151.5 L 7321.4 -2228.3 L 7384.3 -2244.9 L 7608.1 -2222.6 L 7625.7 -2175.6 L 7545.6 -2107.1 L 7598.1 -2080.1 L 7625.3 -2021 L 7606.1 -1905.2 L 7699.4 -1853.4 L 7663.1 -1797 L 7497.5 -1676.9 L 7594.2 -1664.5 L 7627.8 -1694.9 L 7720.8 -1716.6 L 7743.2 -1758.4 L 7816.4 -1798.7 L 7767.1 -1846.7 L 7806.6 -1902.5 L 7714.1 -1909.5 L 7693.8 -1956.5 L 7761.2 -2041.4 L 7651.5 -2110.3 L 7802.8 -2167.3 L 7783.2 -2227.4 L 7825.3 -2229.3 L 7869.8 -2182.4 L 7836.4 -2100.9 L 7926.9 -2085.4 L 7888.3 -2146.4 L 8029.8 -2179.6 L 8205.2 -2184.1 L 8361.4 -2135.9 L 8286.2 -2206.3 L 8277.8 -2296.3 L 8424.8 -2313.4 L 8628.1 -2309.7 L 8811.3 -2320.7 L 8742.6 -2364.9 L 8840.4 -2420.4 L 8937.5 -2422.8 L 9101.8 -2464.7 L 9325 -2476 L 9353.2 -2499.1 L 9575.2 -2507 L 9644.3 -2488 L 9834 -2532.9 L 9989.3 -2531.5 L 10012.6 -2568 L 10093.4 -2604 L 10292.9 -2638.6 L 10437.9 -2611.3 L 10322.8 -2590.4 L 10514.2 -2577.5 L 10537.1 -2535.7 L 10614.3 -2556.3 L 10861.4 -2555.1 L 11051.9 -2513.9 L 11119.8 -2482.3 L 11098.8 -2438.3 L 11005.3 -2413.3 L 10783.1 -2366.4 L 10719.6 -2341.3 L 10824.4 -2329.5 L 10949.5 -2308.1 L 11025.6 -2324.1 L 11068.7 -2269.9 L 11105.8 -2291.8 L 11241 -2305.2 L 11512.2 -2291.2 L 11532.8 -2251.7 L 11886.1 -2239.1 L 11891 -2303.7 L 12070.3 -2288.9 L 12205.3 -2289.4 L 12341.8 -2244.8 L 12380.7 -2190.7 L 12330.7 -2155.3 L 12436.8 -2088.8 L 12569.8 -2054.5 L 12651.3 -2143.2 L 12786.9 -2105.2 L 12931 -2127.9 L 13094.6 -2101.9 L 13156.8 -2125.6 L 13295.1 -2113.7 L 13234.1 -2192.2 L 13345.7 -2228.8 L 14109.1 -2173.9 L 14181 -2123.8 L 14402.3 -2059.2 L 14743.6 -2075.2 L 14911.9 -2061.2 L 14982.2 -2026.3 L 14971.9 -1964.5 L 15076.1 -1940.4 L 15189.2 -1957.7 L 15339.1 -1959.9 L 15498.7 -1943.4 L 15658.9 -1952.7 L 15806.1 -1877.6 L 15910.9 -1904.6 L 15842.5 -1958.6 L 15880.1 -1996.2 L 16149.8 -1972.6 L 16325.6 -1977.6 L 16568.7 -1937.3 L 16687.1 -1900.4 L 16687.1 -1563.6 L 16686.5 -1563.2 L 16577.8 -1526.1 L 16468.3 -1532.2 L 16544.5 -1487.3 L 16594.8 -1417.6 L 16633.8 -1394.8 L 16643.7 -1359.9 L 16621.8 -1337.5 L 16464.3 -1355.9 L 16228 -1292.3 L 16152.9 -1282.4 L 16023.5 -1223 L 15900.9 -1171.2 L 15869.8 -1132.7 L 15748.9 -1191.2 L 15528.7 -1124.9 L 15490.2 -1156.3 L 15408.8 -1120.1 L 15295.7 -1131.6 L 15268.5 -1076 L 15167.1 -994.3 L 15170.1 -960.1 L 15266.4 -941.1 L 15255 -818.1 L 15176.6 -815 L 15140.4 -744.3 L 15175.6 -707.9 L 15027.7 -664.7 L 14998.4 -568.2 L 14872.4 -547.6 L 14847.1 -461.7 L 14725.2 -382.9 L 14694 -441.2 L 14657.8 -564.5 L 14610.6 -752.3 L 14651.2 -869.5 L 14722.6 -920 L 14727 -959.5 L 14858.3 -978.4 L 15009.3 -1084.8 L 15154.8 -1171.7 L 15306.8 -1239.2 L 15374.7 -1358.3 L 15272 -1351.2 L 15221.2 -1281.6 L 15006.8 -1188.7 L 14937.6 -1292.7 L 14719.4 -1264 L 14507.9 -1122.3 L 14577.6 -1070.5 L 14389 -1048.4 L 14258.3 -1039.7 L 14264.4 -1100.8 L 14133 -1113.6 L 14028.3 -1072.1 L 13769.9 -1086.6 L 13491.9 -1061.6 L 13218 -896.6 L 12894.1 -697.3 L 13027.3 -686.6 L 13068.9 -633.7 L 13151 -614.9 L 13205 -657.1 L 13297.8 -651.6 L 13419.8 -558.6 L 13422.7 -486.7 L 13356.6 -402.3 L 13349.5 -301.3 L 13311.3 -166.2 L 13183.9 -43.9 L 13155.6 14.6 L 13040.9 113 L 12927 210.6 L 12872.4 260.5 L 12759.8 310.1 L 12706.5 311.2 L 12653.4 270.1 L 12539.9 332 L 12526.8 360.1 L 12526.8 360.1 L 12526.8 360.1 L 12526.8 360.1 L 12514.9 345.3 L 12514.9 345.3 L 12514.4 302.4 L 12557.6 300.1 L 12569.8 200.2 L 12547.5 127.8 L 12620 98 L 12722.6 113 L 12779.5 30.7 L 12808.4 -61.9 L 12841.3 -92.8 L 12885.7 -168.9 L 12746 -143.9 L 12672.7 -110.6 L 12544.3 -110.7 L 12510.1 -190.1 L 12409.9 -250.2 L 12262.8 -277.2 L 12231.6 -360 L 12202.1 -411.9 L 12170.4 -448.3 L 12118.2 -533.6 L 12044 -564.7 L 11917.5 -589.8 L 11805.4 -587.6 L 11700.4 -572.3 L 11630.6 -530.3 L 11676.9 -510.2 L 11678 -463.5 L 11631 -436.4 L 11554.7 -346.8 L 11555.4 -309.6 L 11436.3 -256.2 L 11334.9 -288.1 L 11234 -281 L 11189.8 -309.3 L 11139.1 -318.5 L 11015.3 -258.9 L 10904 -244.9 L 10826.3 -224 L 10719.8 -237.7 L 10641.5 -236.8 L 10590.2 -280.1 L 10507.4 -320.7 L 10422.7 -331.8 L 10315.7 -320.8 L 10235.9 -305.1 L 10115.8 -340.6 L 10099.7 -404 L 10000.3 -425.7 L 9923.6 -435.6 L 9828.9 -470.5 L 9741.3 -382.9 L 9775.6 -333.2 L 9693.5 -274.3 L 9571.3 -295.6 L 9486.9 -298.6 L 9430.4 -338.1 L 9342.2 -339.4 L 9268.7 -365.3 L 9140.2 -325.5 L 8978.9 -252.7 L 8889.8 -238.1 L 8856.7 -231.1 L 8811.9 -282.8 L 8703 -271.5 L 8667 -307.4 L 8607.9 -323.8 L 8567.2 -372.7 L 8520.6 -387.9 L 8399.1 -366.1 L 8282.7 -414.8 L 8237.6 -370.6 L 8048.7 -585.2 L 7940.9 -650.6 L 7971.8 -677.1 L 7760 -597.3 L 7678.9 -592.5 L 7685.9 -638.6 L 7577.4 -667.4 L 7489.1 -646.9 L 7462.5 -734.5 L 7310.6 -752.7 L 7234.6 -717.6 L 7023.1 -686.4 L 6981.8 -665.5 L 6665.5 -636.1 L 6626.8 -607.3 L 6687.8 -549.4 L 6606.7 -527.4 L 6622.5 -504.4 L 6541.4 -463.2 L 6678.3 -405.1 L 6657.2 -365 L 6538.4 -368.7 L 6513.9 -343.6 L 6405.8 -387.4 L 6271.8 -385.7 L 6182.1 -350 L 6082 -384.2 L 5895.7 -442.8 L 5763.7 -440.6 L 5589.2 -348.6 L 5578.7 -286.9 L 5491.7 -335.9 L 5424.3 -243.1 L 5449 -225.8 L 5400.2 -161.8 L 5471.9 -104.4 L 5534.7 -106.8 L 5588.5 -50.3 L 5580 -6.8 L 5622.9 6.9 Z M 9399.2 -2919.8 L 9582 -2938.9 L 9746.2 -2896.4 L 9940.9 -2814.6 L 9920 -2738.6 L 9735.6 -2728.1 L 9500.2 -2752.5 L 9359.9 -2784.8 L 9295 -2845.4 L 9179.7 -2862.1 L 9399.2 -2919.8 Z M 10165 -2772.5 L 10379.2 -2724.5 L 10354.1 -2690.1 L 9877.6 -2657.5 L 10032 -2768.5 L 10101.4 -2778 L 10165 -2772.5 Z M 13207.3 -2506.7 L 13430.5 -2503 L 13736 -2458.2 L 13669.5 -2395.4 L 13358 -2397.7 L 13217.8 -2377.8 L 13050.3 -2432.7 L 13095.8 -2490.8 L 13207.3 -2506.7 Z M 14001.1 -2439.8 L 14213.2 -2417.7 L 14115.5 -2384.3 L 13980.4 -2391.9 L 13823.3 -2425.2 L 13843.5 -2452.6 L 14001.1 -2439.8 Z M 13294.5 -2272.8 L 13374.7 -2306.2 L 13480.4 -2314 L 13600.5 -2281.7 L 13610.7 -2259.5 L 13482.5 -2258.9 L 13309.3 -2268.3 L 13294.5 -2272.8 Z M 5263.3 -2883.1 L 5428.3 -2898.5 L 5556.7 -2899.5 L 5574 -2876.7 L 5622.6 -2897 L 5702.2 -2910.9 L 5827.6 -2892.4 L 5794.9 -2879.5 L 5681.4 -2868.3 L 5605.4 -2861.9 L 5593.6 -2848.1 L 5494.8 -2834.1 L 5403.3 -2854.1 L 5451.4 -2880.5 L 5263.3 -2883.1 Z M 3394 -663.3 L 3238.5 -662 L 3134.4 -671.6 L 3153.7 -708.8 L 3270.3 -736.2 L 3358.9 -721.4 L 3396.2 -708 L 3387.2 -684.8 L 3394 -663.3 Z M 5995.4 -2304.9 L 6197.8 -2379.1 L 6174.9 -2417.5 L 6364 -2462.1 L 6643 -2516.4 L 6924.3 -2532.2 L 7069.1 -2563.6 L 7233.6 -2574.6 L 7292.3 -2541.2 L 7235.6 -2514.9 L 6936.1 -2473 L 6678 -2432.7 L 6415.4 -2352.2 L 6289.4 -2269.7 L 6156.9 -2188.4 L 6174.1 -2118.2 L 6335.8 -2048.9 L 6285.9 -2041.5 L 6009.7 -2052.4 L 5987.3 -2090 L 5834.3 -2112.6 L 5821.9 -2158.3 L 5908.3 -2176.4 L 5905.5 -2222.5 L 6073.1 -2294.6 L 5995.4 -2304.9 Z M 13552.4 -610.6 L 13581.7 -529.2 L 13579.5 -446 L 13614.4 -360.7 L 13699.5 -211 L 13574.4 -238.9 L 13522.4 -116.7 L 13604.7 -30.1 L 13602.4 29 L 13538.3 -22 L 13482.9 43.4 L 13467.3 -27.5 L 13476.7 -109.9 L 13467.1 -201.1 L 13486.6 -265 L 13490.3 -378 L 13440.8 -461.1 L 13448.3 -576.6 L 13526.4 -615.5 L 13492.9 -654.6 L 13530.5 -666.5 L 13552.4 -610.6 Z M -13313.1 -1751.8 L -13320.4 -1699.3 L -13263.4 -1678.2 L -13283 -1739.7 L -13053.5 -1727.1 L -12888.1 -1648 L -12971.9 -1611.1 L -13110.4 -1602.4 L -13112.5 -1519.8 L -13146.4 -1502.2 L -13225.5 -1504.7 L -13289.9 -1534.2 L -13402.3 -1558.8 L -13421.2 -1595.5 L -13507 -1609.3 L -13603.2 -1598.4 L -13649.1 -1627.9 L -13630.7 -1659.4 L -13732 -1639.3 L -13693.9 -1599.5 L -13741.8 -1563.6 L -13741.8 -1900.4 L -13534.7 -1835.8 L -13313.1 -1751.8 Z M -13631.4 -2063.5 L -13741.8 -2058.3 L -13741.8 -2116.1 L -13731 -2119.6 L -13659.3 -2119.5 L -13537.1 -2095.3 L -13544.3 -2083.7 L -13631.4 -2063.5 Z M 4298.8 43 L 4321.1 22 L 4381.2 40.2 L 4408.3 43.5 L 4419.3 60.2 L 4432.1 62.8 L 4432.8 70.1 L 4474.1 90.5 L 4560.3 85.4 L 4543.8 115.6 L 4451.3 130.2 L 4336.5 179.1 L 4289.5 161.9 L 4308.2 122.2 L 4215.8 97.5 L 4230.7 81.2 L 4311.7 53.2 L 4298.8 43 Z" />
<path class="neighbor" d="M -2893.7 3577.4 L -2943.7 3654.8 L -2969.7 3717 L -3002.1 3749.1 L -3042.5 3755.2 L -3054.1 3731.4 L -3073 3727.9 L -3099.1 3750.8 L -3136.1 3733.3 L -3114.5 3697.8 L -3107.1 3659.1 L -3092.3 3622.8 L -3125.5 3572.7 L -3132.2 3514.8 L -3088.2 3442.2 L -3059.4 3451.5 L -2997.2 3471.5 L -2907.7 3542.8 L -2893.7 3577.4 Z M 1995.5 -252.2 L 2035.4 -230 L 2157.2 -214.5 L 2114.5 -156.6 L 2103.8 -96.4 L 2080.6 -81.9 L 2042 -89.7 L 2044.8 -68.2 L 1982.9 -20.7 L 1981.7 17.5 L 2022.1 4.3 L 2051.1 41.4 L 2047.6 65.2 L 2072.5 97 L 2043.2 122.7 L 2064.9 188.1 L 2110.8 198.8 L 2101.1 235.5 L 2024.5 283.3 L 1857.8 260.4 L 1734.7 287.8 L 1725 338.7 L 1627 349.7 L 1531.9 311.4 L 1501.2 329.7 L 1345.6 291.3 L 1311.9 258.4 L 1355.6 207.7 L 1371.7 39.3 L 1284.5 -49.4 L 1222.2 -92.1 L 1093 -124.6 L 1084.5 -186.3 L 1194.1 -204.7 L 1336 -182.9 L 1309.2 -278.6 L 1389 -242.3 L 1585.8 -308.2 L 1611.2 -377.5 L 1685.1 -394.6 L 1697.3 -364.8 L 1736.6 -363.5 L 1775.9 -329.5 L 1834.9 -289.7 L 1878.3 -296.3 L 1952.2 -257.7 L 1971.1 -250.4 L 1995.5 -252.2 Z M 2211.9 325.6 L 2266.3 293.3 L 2280.7 365.8 L 2252.8 431.1 L 2214.4 413.9 L 2194.8 357 L 2211.9 325.6 Z" />
<path class="neighbor" d="M 738.6 1613.1 L 740.2 1596.8 L 740.2 1591.1 L 739.5 1490.9 L 876 1428.6 L 960.4 1415.7 L 1029.5 1393 L 1061.9 1350.6 L 1160.7 1317.2 L 1164.3 1254.6 L 1213.2 1247.2 L 1251.5 1216 L 1362.1 1201.7 L 1377.6 1168.9 L 1355.3 1150.9 L 1326.1 1061.7 L 1321.1 1010.3 L 1289.2 956.1 L 1370.5 910 L 1461.9 895.3 L 1515.2 860.4 L 1596.6 834.7 L 1739.9 819.6 L 1879.7 812.7 L 1922.3 825.3 L 2001.9 792 L 2092.2 791.3 L 2126.6 811 L 2184.4 805.9 L 2167.2 849.2 L 2180.6 929.8 L 2160.7 999.5 L 2108.6 1046.7 L 2116.1 1110.3 L 2185.2 1160.7 L 2185.9 1181.2 L 2238.1 1215.3 L 2274.1 1367 L 2301.5 1441.6 L 2306 1480.9 L 2291.2 1549.9 L 2297.3 1588.4 L 2286.5 1634.7 L 2293.9 1687.8 L 2260.4 1723.1 L 2310.3 1784.7 L 2313.5 1821 L 2343.6 1868.1 L 2383.1 1852.6 L 2449.8 1891.9 L 2486.9 1944.8 L 2197.3 2105.9 L 1952.5 2272 L 1833.3 2309.6 L 1739.6 2317.9 L 1738.6 2264.1 L 1699.5 2250.4 L 1646.8 2226.2 L 1626.7 2186.6 L 1341.6 2002.2 L 1056.5 1817.8 L 738.6 1613.1 Z" />
<path class="neighbor" d="M 842.6 793.1 L 835.6 765.1 L 866.9 733.4 L 878.5 710.4 L 849.3 685.3 L 872.7 629.7 L 838.8 579.1 L 875.3 572.1 L 878.7 532.2 L 892.5 519.8 L 893.5 453.8 L 932.6 431 L 909 388.6 L 859.7 385.6 L 845.2 396.3 L 795.3 396.4 L 774.1 355 L 739.6 367.3 L 709 388.8 L 713.2 328.6 L 678.7 291.9 L 798.3 230.9 L 901.7 246.2 L 1015.2 245.6 L 1105.1 260.1 L 1175.3 255.6 L 1311.9 258.4 L 1345.6 291.3 L 1501.2 329.7 L 1531.9 311.4 L 1627 349.7 L 1725 338.7 L 1729.5 387.8 L 1649.4 444.1 L 1541.1 462 L 1533.6 490.4 L 1481.7 537.3 L 1449.1 606.1 L 1482 654.4 L 1433.1 692.1 L 1414.9 747 L 1351.1 763.9 L 1291.2 828.9 L 1183.9 830.2 L 1103.4 828.6 L 1050.4 858.4 L 1018.1 890.3 L 976.8 883.3 L 945.5 854.8 L 921.5 806.2 L 842.6 793.1 Z" />
<path class="neighbor" d="M 1289.2 956.1 L 1321.1 1010.3 L 1326.1 1061.7 L 1355.3 1150.9 L 1377.6 1168.9 L 1362.1 1201.7 L 1251.5 1216 L 1213.2 1247.2 L 1164.3 1254.6 L 1160.7 1317.2 L 1061.9 1350.6 L 1029.5 1393 L 960.4 1415.7 L 876 1428.6 L 739.5 1490.9 L 740.2 1591.1 L 727.3 1591.1 L 729.2 1636.4 L 677 1639.1 L 649.8 1658.3 L 611.4 1658.3 L 580.8 1647.4 L 509.7 1656.4 L 482.2 1722.3 L 455.7 1728.5 L 416 1835.1 L 298.5 1926.3 L 270.6 2043 L 236 2081 L 225.8 2111.4 L 35.5 2118.2 L 34 2118 L 38 2078.9 L 70.4 2055.8 L 98.1 2011.8 L 92.6 1983.2 L 121.7 1923.5 L 168.8 1869.8 L 197.2 1856.2 L 219.6 1806.9 L 221.6 1761.8 L 252.1 1709.6 L 308.4 1678.8 L 362 1592.5 L 363.5 1591.3 L 406 1558.8 L 484.6 1549.5 L 551.2 1491.7 L 593.6 1469.2 L 664.2 1398.6 L 643 1293.5 L 675.2 1220.7 L 686.5 1176.2 L 740.9 1119.1 L 825.7 1080.5 L 888.4 1045.6 L 944.8 958 L 971.4 906.1 L 1033.6 906.5 L 1084.6 942.4 L 1165 936.6 L 1252.5 955.2 L 1289.2 956.1 Z" />

<path class="country" d="M 709 388.8 L 739.6 367.3 L 774.1 355 L 795.3 396.4 L 845.2 396.3 L 859.7 385.6 L 909 388.6 L 932.6 431 L 893.5 453.8 L 892.5 519.8 L 878.7 532.2 L 875.3 572.1 L 838.8 579.1 L 872.7 629.7 L 849.3 685.3 L 878.5 710.4 L 866.9 733.4 L 835.6 765.1 L 842.6 793.1 L 808.6 815 L 764.1 803.1 L 720.5 812.4 L 733.4 746.3 L 725.4 694.3 L 687.6 686.5 L 667.4 654.5 L 674.1 599.1 L 707.8 568.5 L 713.8 534.3 L 731.5 483.5 L 729.6 447.7 L 712.7 417.3 L 709 388.8 Z" />


<g class="city"><circle cx="699.5016813053545" cy="655.5527176509498" r="5" /><text x="711.5016813053545" y="659.5527176509498">Lisbon</text></g>
<g class="city"><circle cx="967.1747363198708" cy="767.0959979420086" r="5" /><text x="979.1747363198708" y="771.0959979420086">Seville</text></g>
<g class="city"><circle cx="734.732988497299" cy="360.1095145345629" r="5" /><text x="746.732988497299" y="364.1095145345629">Vigo</text></g>
<g class="city"><circle cx="1020.7627668957407" cy="875.0063246481197" r="5" /><text x="1032.7627668957407" y="879.0063246481197">Gibraltar</text></g>
<text class="map-title" x="80" y="105">Portugal Political Study Map</text>
<text class="map-subtitle" x="80" y="145">Capital: Lisbon | Continent: Europe</text>
  <text class="footer" x="80" y="1036">Made with Natural Earth. Free vector and raster map data @ naturalearthdata.com.</text>
</svg>
