<?xml version="1.0" encoding="UTF-8"?>
<svg xmlns="http://www.w3.org/2000/svg" width="1600" height="1100" viewBox="0 0 1600 1100" role="img" aria-labelledby="title desc">
  <title id="title">Paraguay Physical Study Map</title>
  <desc id="desc">Made with Natural Earth. Free vector and raster map data @ naturalearthdata.com.</desc>
  <defs>
    <linearGradient id="terrain" x1="0" x2="1" y1="0" y2="1">
      <stop offset="0%" stop-color="#6c8c53" />
      <stop offset="42%" stop-color="#d5c487" />
      <stop offset="72%" stop-color="#b88b5f" />
      <stop offset="100%" stop-color="#f1f5ee" />
    </linearGradient>
    <filter id="softShadow" x="-10%" y="-10%" width="120%" height="120%">
      <feDropShadow dx="0" dy="10" stdDeviation="12" flood-color="#0f172a" flood-opacity="0.16" />
    </filter>
    <style>
      .neighbor { fill: #ffffff; stroke: #94a3b8; stroke-width: 1.2; opacity: 0.72; }
      .country { fill: url(#terrain); stroke: #1f2937; stroke-width: 4; filter: url(#softShadow); }
      .admin1 { fill: none; stroke: #64748b; stroke-width: 1.1; stroke-dasharray: 6 7; opacity: 0.75; }
      .river { fill: none; stroke: #1d9bd1; stroke-width: 3; stroke-linecap: round; opacity: 0.88; }
      .lake { fill: #8ed1ea; stroke: #0ea5e9; stroke-width: 1.5; opacity: 0.8; }
      .city circle { fill: #ef4444; stroke: #ffffff; stroke-width: 2; }
      .city text, .terrain-label { fill: #172033; font: 700 24px system-ui, sans-serif; paint-order: stroke; stroke: #ffffff; stroke-width: 5; stroke-linejoin: round; }
      .map-title { fill: #0f172a; font: 800 46px system-ui, sans-serif; }
      .map-subtitle { fill: #475569; font: 600 24px system-ui, sans-serif; }
      .footer { fill: #64748b; font: 500 18px system-ui, sans-serif; }
    </style>
  </defs>
  <rect width="100%" height="100%" fill="#d8edf0" />
  <rect x="40" y="40" width="1520" height="1020" rx="32" fill="#ffffff" opacity="0.54" />
  <path class="neighbor" d="M 14169.3 171.4 L 14169.3 198.7 L 14133.6 212.5 L 14097.8 224.3 L 14090.6 203.4 L 14118.6 191.9 L 14136.4 188.9 L 14169.3 171.4 Z M 14064.2 252 L 14078.1 242.7 L 14097.4 258.9 L 14088.1 288.2 L 14053.4 295.9 L 14022.5 288.9 L 14017.1 264.3 L 14038.7 245 L 14064.2 252 Z M -6000.1 168.8 L -6007.1 195.7 L -6011.7 198.7 L -6011.7 171.4 L -6000.1 168.8 Z" />
<path class="neighbor" d="M 231.3 2221.4 L 252.8 2247.4 L 280.8 2289.4 L 353.7 2323.1 L 432.2 2337.1 L 407 2365.1 L 353.7 2367.9 L 325.1 2348.1 L 291.4 2346.6 L 231.3 2346.6 L 231.3 2221.4 Z M 848.4 964.6 L 834.4 1009.4 L 819.4 1067 L 820 1122.9 L 807.8 1135.4 L 803.5 1171.6 L 799.6 1200.8 L 870.8 1248.9 L 863.2 1287.5 L 898.2 1311.9 L 895.3 1339.3 L 841.5 1411.2 L 758.4 1441.3 L 645.9 1452.9 L 584.3 1447.3 L 596.1 1480.7 L 584.7 1522.7 L 595 1551 L 561.4 1570.7 L 503.9 1578.4 L 450 1558 L 428.4 1572.7 L 436.2 1628.4 L 474.1 1645.3 L 504.7 1627.6 L 521.4 1656.7 L 469.8 1674.1 L 424.8 1709 L 416.6 1765.3 L 403.3 1795.4 L 350.4 1795.5 L 306.4 1824.2 L 290.3 1866.3 L 345.5 1907.3 L 399.1 1918.7 L 379.8 1968.9 L 313.6 2000.6 L 277.1 2066.3 L 226 2088.4 L 203 2114.7 L 221.1 2172.9 L 258.4 2205.3 L 234.8 2202.5 L 182.8 2193.7 L 47.4 2186.2 L 24.1 2153.5 L 25.2 2111.5 L -12.1 2115.2 L -31.9 2094.8 L -36.7 2035.4 L 6.3 2010.7 L 24 1975.2 L 17.5 1946.8 L 47.2 1899 L 67.7 1824.7 L 61.7 1791.8 L 86.2 1781.2 L 80.2 1760.1 L 54.2 1748.9 L 72.6 1725.3 L 47.3 1704.1 L 34.3 1639.4 L 56.8 1628 L 47.3 1559.7 L 60.5 1502.3 L 75.5 1452.2 L 109 1431.9 L 92 1377.2 L 91.8 1325.7 L 134.3 1289.1 L 133 1242.2 L 165 1187.5 L 165.1 1136 L 150.5 1125.7 L 124.7 1028.9 L 159.3 971.3 L 154 917 L 174 866 L 210.7 813.5 L 250.3 778.6 L 233.5 756.6 L 245.2 738.6 L 243.4 645.1 L 304.5 617.5 L 323.7 559.3 L 316.9 545.2 L 363.6 494.6 L 437 508.2 L 469.9 548.7 L 491.8 503.6 L 555.7 505.9 L 564.8 517.9 L 667.8 609.4 L 713.7 617.9 L 782.2 659.3 L 839.9 681.2 L 847.9 706 L 792.8 791.2 L 849.3 806.4 L 912.2 815 L 956.6 806 L 1007.4 763.1 L 1016.6 713.6 L 1044.4 702.8 L 1072.5 735.2 L 1071.3 780 L 1024.1 810.9 L 986.5 833.7 L 923.2 888.1 L 848.4 964.6 Z" />
<path class="neighbor" d="M 848.4 964.6 L 884.8 958.6 L 941 1001.9 L 961.9 1000.3 L 1019.6 1036.2 L 1063.5 1067.2 L 1096 1105.3 L 1071.2 1131.9 L 1086.8 1163.7 L 1062.5 1198.9 L 999.2 1230.1 L 957.8 1218.9 L 927.5 1224.9 L 875.6 1200.8 L 837.6 1202.6 L 803.5 1171.6 L 807.8 1135.4 L 820 1122.9 L 819.4 1067 L 834.4 1009.4 L 848.4 964.6 Z" />
<path class="neighbor" d="M 1086.8 1163.7 L 1071.2 1131.9 L 1096 1105.3 L 1063.5 1067.2 L 1019.6 1036.2 L 961.9 1000.3 L 941 1001.9 L 884.8 958.6 L 848.4 964.6 L 923.2 888.1 L 986.5 833.7 L 1024.1 810.9 L 1071.3 780 L 1072.5 735.2 L 1044.4 702.8 L 1016.6 713.6 L 1027.6 681.2 L 1035.2 648.1 L 1035.2 617.3 L 1015 607.1 L 994 616.1 L 973.1 613.7 L 966.6 592.1 L 961.4 540.7 L 950.9 524 L 913 508.8 L 890.1 519.8 L 830.9 509 L 834.7 432.9 L 818.1 401.7 L 835.6 390.2 L 830.2 358.2 L 845.6 333.6 L 855.5 289.5 L 842.3 254.6 L 811.7 238.9 L 805.7 216.8 L 813.9 184.4 L 706.4 182.1 L 684.9 116.8 L 701.2 115.9 L 700.5 91.7 L 689.6 75.3 L 687.1 42.9 L 654.5 26.3 L 619.3 26.9 L 596.1 10.6 L 558.2 -0.5 L 536.1 -21.5 L 473.3 -30.7 L 412.5 -80.9 L 417 -118.5 L 410.1 -140.1 L 416 -182.1 L 342.7 -172.6 L 313.1 -151.5 L 264.1 -128.8 L 251.6 -111.9 L 222.8 -110.6 L 181.1 -115.4 L 149.5 -105.7 L 124 -112.2 L 127.7 -197.3 L 81.7 -164.3 L 32.2 -165.7 L 11 -195.6 L -26.2 -198.9 L -14.3 -223 L -45.5 -257.1 L -68.8 -307.5 L -54 -317.8 L -54.1 -341.5 L -20.2 -357.7 L -25.8 -388 L -11.5 -407.5 L -7.4 -433.6 L 56.7 -471.8 L 102.6 -482.6 L 110.2 -491 L 160.7 -488.4 L 185.9 -642.1 L 187.2 -666.4 L 178.4 -698.5 L 153.6 -718.9 L 153.8 -759.7 L 185.4 -768.9 L 196.6 -763.1 L 198.5 -784.6 L 165.7 -790.4 L 165 -825.4 L 274.2 -824.2 L 292.7 -843.5 L 308.3 -825.7 L 319.2 -792.7 L 329.8 -799.6 L 360.7 -769.9 L 404.3 -773.6 L 415.1 -790.7 L 456.8 -803.8 L 479.9 -813 L 486.4 -836.7 L 526.4 -852.7 L 523.4 -864.5 L 475.9 -869.3 L 468.1 -904.6 L 470.4 -942.2 L 445.3 -956.7 L 455.8 -961.9 L 497.3 -954.7 L 541.9 -940.7 L 558.1 -953.9 L 598.4 -962.6 L 661.1 -983.6 L 681.6 -1005 L 674.2 -1020.8 L 703.3 -1023.3 L 716.4 -1010.4 L 709.1 -985.8 L 728.3 -977.3 L 741.2 -951.2 L 725.6 -931.5 L 716.7 -883.8 L 731.1 -855.4 L 735.1 -829.5 L 769.6 -803.2 L 797.1 -800.4 L 803.3 -811.4 L 821.1 -813.8 L 846.4 -823.6 L 864.6 -838.6 L 895.7 -833.8 L 909.3 -835.8 L 939.8 -831.2 L 944.8 -842.7 L 935.4 -853.8 L 941 -870 L 963.6 -865.1 L 990.1 -870.8 L 1022.2 -858.9 L 1046.7 -847.4 L 1064.1 -862.6 L 1076.6 -860.2 L 1084.2 -844.4 L 1111.1 -848.4 L 1132.6 -869.7 L 1149.8 -911 L 1182.9 -962.3 L 1202 -965 L 1215.9 -934 L 1247.4 -835.9 L 1277.3 -826.7 L 1278.8 -788 L 1236.7 -741.8 L 1254.1 -724.9 L 1353.2 -716.1 L 1355.2 -659.9 L 1397.8 -696.7 L 1468.4 -676.6 L 1561.5 -642.3 L 1588.8 -609.5 L 1579.6 -578.5 L 1644.8 -595.7 L 1753.9 -566.1 L 1837.7 -568.3 L 1920.5 -521.9 L 1992.1 -459.1 L 2035.3 -442.9 L 2083.2 -440.6 L 2103.6 -423 L 2122.6 -351.6 L 2131.9 -317.7 L 2109.6 -225 L 2081 -188.4 L 2002 -110.4 L 1966.3 -47 L 1924.8 1.6 L 1910.8 2.7 L 1895.1 43.9 L 1899.1 148.9 L 1883.5 235.4 L 1877.5 272.3 L 1859.8 294.4 L 1849.9 369.4 L 1793 442.5 L 1783.5 500.4 L 1738.1 524.7 L 1725 558.3 L 1664.1 558.2 L 1575.9 579.7 L 1536.4 604.7 L 1473.6 621.1 L 1407.7 665.7 L 1360.2 721.3 L 1352.1 763.2 L 1361.4 794.1 L 1350.9 850.7 L 1338.2 878.1 L 1299 909 L 1236.8 1007.6 L 1187.5 1052.1 L 1149.4 1078.3 L 1123.8 1131.6 L 1086.8 1163.7 Z" />
<path class="neighbor" d="M 181.1 -115.4 L 222.8 -110.6 L 251.6 -111.9 L 264.1 -128.8 L 313.1 -151.5 L 342.7 -172.6 L 416 -182.1 L 410.1 -140.1 L 417 -118.5 L 412.5 -80.9 L 473.3 -30.7 L 536.1 -21.5 L 558.2 -0.5 L 596.1 10.6 L 619.3 26.9 L 654.5 26.3 L 687.1 42.9 L 689.6 75.3 L 700.5 91.7 L 701.2 115.9 L 684.9 116.8 L 706.4 182.1 L 813.9 184.4 L 805.7 216.8 L 811.7 238.9 L 842.3 254.6 L 855.5 289.5 L 845.6 333.6 L 830.2 358.2 L 835.6 390.2 L 818.1 401.7 L 817.1 384.5 L 764.9 355.8 L 712.9 355 L 615.2 371.3 L 588.3 420.6 L 586.9 450.8 L 564.8 517.9 L 555.7 505.9 L 491.8 503.6 L 469.9 548.7 L 437 508.2 L 363.6 494.6 L 316.9 545.2 L 276.5 552.9 L 254.5 475.6 L 224.4 412.7 L 242 358.5 L 212.6 334.8 L 205.2 294.3 L 177.7 256.2 L 213 195.7 L 188.9 148.6 L 201.8 129.7 L 191.7 108.9 L 213.6 80.9 L 214.7 33.2 L 217.5 -6.2 L 229.5 -25.2 L 181.1 -115.4 Z" />
<path class="lake" d="M 590.3 995.9 L 580.3 999.6 L 571.2 1000.8 L 562.4 1003.8 L 557.8 999.9 L 554.9 997.4 L 551 994.5 L 548.3 991.2 L 551 988.8 L 556.8 987.4 L 562.7 985.1 L 564.6 983.2 L 567.1 981.6 L 579.3 983.7 L 580 982.9 L 582.2 983.2 L 587 985.4 L 590.1 990.1 L 590.3 995.9 L 590.3 995.9 L 590.3 995.9 Z" />
<path class="lake" d="M 1041.4 655.8 L 1038.9 656.8 L 1035.3 658.2 L 1034.2 660 L 1034.4 662 L 1037.2 665.3 L 1039.3 667.7 L 1037.6 667.4 L 1034.1 666.1 L 1031.6 666.1 L 1030.6 667.6 L 1029.6 669.1 L 1030 671.1 L 1032.7 674 L 1033.8 676.5 L 1033 678.6 L 1032.1 679.9 L 1030.5 680.6 L 1030.5 682.2 L 1035.5 684.3 L 1040.4 685.6 L 1036.6 686.8 L 1032.6 688.4 L 1030.2 689.1 L 1027.4 689.5 L 1027.4 690.9 L 1029.1 692.9 L 1027.9 693.9 L 1024.1 693.8 L 1022.1 694.4 L 1020.6 695.6 L 1019 696.8 L 1017.4 696.4 L 1016.1 695.5 L 1016.1 689.1 L 1017.6 687.1 L 1021 685.3 L 1022.5 682.8 L 1022.1 680.8 L 1020.3 679.9 L 1019.2 679.3 L 1019.4 678.4 L 1016.7 677.8 L 1011.2 677.1 L 1009.4 675.7 L 1011.7 674.5 L 1017.4 674.7 L 1022.1 675.1 L 1023 673.1 L 1023.3 670.2 L 1022.1 668.5 L 1014.1 666.8 L 1007.1 665.4 L 1008.5 664.7 L 1012.4 665 L 1017.4 665.7 L 1021.9 665.3 L 1025.1 663.6 L 1025.5 661.1 L 1022.3 658.1 L 1024.2 656 L 1029.2 654.8 L 1030 653 L 1030 650.8 L 1028.1 648.5 L 1028.1 646.5 L 1029.9 644.6 L 1029.2 641.5 L 1030.2 639.4 L 1033 638.7 L 1034.1 636.7 L 1034.1 634.1 L 1032.1 630.9 L 1031 627.9 L 1031.6 625.3 L 1032 622.9 L 1033.5 621.2 L 1036.7 619.8 L 1035.8 624.1 L 1036.5 628.7 L 1037.5 632.1 L 1037.2 642.3 L 1037.1 652.1 L 1039.6 654.6 L 1041.4 655.8 L 1041.4 655.8 L 1041.4 655.8 L 1041.4 655.8 Z" />
<path class="lake" d="M 1196.5 415.7 L 1196.5 415.7 L 1196.5 415.7 L 1196.5 415.7 L 1196.1 414.1 L 1196.7 412.8 L 1197.6 411.7 L 1195.3 407.7 L 1195.9 406.2 L 1198.5 407.4 L 1202.2 407.6 L 1204.6 406.2 L 1209.6 406.2 L 1211.1 405.3 L 1210.2 402.2 L 1211.4 400.1 L 1214 401.9 L 1215.5 401.6 L 1217 397.4 L 1217.1 392.6 L 1217 379.5 L 1218.1 376 L 1220 373.2 L 1221.5 376.5 L 1222.3 386.9 L 1222.7 390.8 L 1230.6 388 L 1238.5 382.9 L 1243.2 381.8 L 1238.4 388.9 L 1231.5 391.6 L 1228.5 393.7 L 1223.4 396.9 L 1220.7 401.4 L 1221 404.8 L 1223.5 406.7 L 1224.7 409.7 L 1220.8 409 L 1217.8 410.3 L 1214.8 410.8 L 1213.5 410.8 L 1211.5 411.5 L 1208.2 412.5 L 1206.1 413.8 L 1209.9 417.5 L 1216.2 420.6 L 1216.1 421.5 L 1208.8 419.8 L 1202.7 416.6 L 1199.5 417.2 L 1197.6 416.6 L 1196.5 415.7 Z" />
<path class="country" d="M 818.1 401.7 L 834.7 432.9 L 830.9 509 L 890.1 519.8 L 913 508.8 L 950.9 524 L 961.4 540.7 L 966.6 592.1 L 973.1 613.7 L 994 616.1 L 1015 607.1 L 1035.2 617.3 L 1035.2 648.1 L 1027.6 681.2 L 1016.6 713.6 L 1007.4 763.1 L 956.6 806 L 912.2 815 L 849.3 806.4 L 792.8 791.2 L 847.9 706 L 839.9 681.2 L 782.2 659.3 L 713.7 617.9 L 667.8 609.4 L 564.8 517.9 L 586.9 450.8 L 588.3 420.6 L 615.2 371.3 L 712.9 355 L 764.9 355.8 L 817.1 384.5 L 818.1 401.7 Z" />

<path class="river" d="M 1590.5 474 L 1577.7 465.7 M 1544.7 453.1 L 1542.1 452.7 L 1540.7 451.7 L 1537.3 449.8 L 1531.3 448.5 L 1523.8 443.3 L 1514.8 434.1 L 1508.7 430.3 L 1505.4 431.9 L 1502.9 431.9 L 1501.2 430.3 L 1495.7 429.4 L 1481.8 429.3 M 1439.9 407.8 L 1458.6 418.7 L 1465.4 423.5 L 1467.2 426.8 M 1220.2 397.5 L 1243.2 381.8 M 1310.4 390.7 L 1255.4 383.9" />
<path class="river" d="M 1248.4 336.9 L 1247.9 333.2 L 1250.2 328.9 L 1255.2 322.8 L 1262 318.4 L 1270.6 315.7 L 1278.1 314.3 L 1287.7 314.2 M 1375.3 298.8 L 1334.6 298 L 1325.9 301.5 M 1419 289.3 L 1400 301 L 1392 304.7 L 1387 304.1" />
<path class="river" d="M 1017.4 696.4 L 1025.1 684.5 L 1027.2 678.9 L 1026.2 675.8 L 1028.5 664.7 L 1034.1 645.7 L 1035.9 633.2 L 1033.9 627.4 L 1033.8 623.3 L 1036.7 619.8 M 1167.3 471.6 L 1166.3 474.2 L 1164.3 475.6 L 1161.1 476.5 L 1159.7 479 L 1160.1 482.8 L 1156.9 488.2 L 1150 495 L 1144.8 501.6 L 1141.2 507.8 L 1132 515.6 L 1109.9 529.5 M 1220 373.2 L 1220.2 397.5 L 1216.2 404.3 L 1210.6 409.1 L 1197.6 416.6" />
<path class="river" d="M 1101.2 271.6 L 1095.9 246.6 L 1096.4 240.6 L 1098.8 235.4 L 1103.3 229 L 1105.8 223.4 L 1106.4 218.6 L 1110.9 213.2 L 1119.5 207.1 L 1125.7 199.9 L 1129.3 191.5 L 1133.2 186 L 1137.5 183.4 L 1139.4 179.8 L 1139 175.2 L 1140.4 172.2 L 1143.5 170.9 L 1146.5 168.1 L 1149.4 164 L 1155.9 160.5 L 1165.9 157.5 L 1172.3 153.4 L 1175.1 148.3 L 1176.2 144.8 L 1175.6 142.8 L 1176.5 140.9 L 1178.8 139 L 1180.8 134.2 L 1182.6 126.2 L 1186.8 119.5 L 1193.4 114 L 1199 112.9 L 1203.8 111.7 L 1206 111.8 L 1209.2 110.2 L 1213.4 102.5 L 1221.1 81.5 L 1223.1 66.8 L 1224.9 61.5 L 1227.2 60.8 L 1228.1 55.2 L 1227.6 44.7 L 1231.1 33.7 L 1238.5 22.4 L 1242.3 13.4 L 1242.5 6.8 L 1244.1 0.3 L 1248.7 -9.3 L 1244.1 -10.7 L 1241.5 -13.8 L 1239.1 -19.2 L 1238.9 -25.3 L 1240.6 -32.1 L 1240.5 -40.4 L 1238.5 -50.3 L 1238.1 -57.2 L 1239.2 -61 L 1238.8 -64.8 L 1235.7 -70.7 L 1238.6 -76.1 L 1238.3 -80.5 L 1235.7 -85.6 L 1236.2 -93.3 L 1239.7 -103.6 L 1241.7 -112.6 L 1242.2 -124.5 L 1242.3 -130.1 L 1245 -136.9 L 1250.4 -147 L 1253.3 -154.3 L 1253.7 -158.8 L 1257 -166.8 L 1266.1 -183.9 L 1271.2 -201.1 L 1277 -212.5 L 1285.4 -223.6 L 1292.3 -230.7 L 1297.6 -233.8 L 1303.8 -241.4 L 1310.9 -253.4 L 1316.1 -264 L 1319.2 -273 L 1321.3 -281.1 L 1322.3 -288.3 L 1319.6 -294.7 L 1313.2 -300.5 L 1312.9 -308.3 L 1318.5 -318.1 L 1320.9 -327.6 L 1320.2 -336.6 L 1327.5 -345 L 1342.8 -352.7 L 1351.4 -359.6 L 1353.1 -365.6 L 1355.5 -369.8 L 1358.4 -372.1 L 1361.6 -373.2 L 1365 -372.9 L 1366.1 -375.7 L 1364.8 -381.3 L 1366.1 -385 L 1370.1 -386.7 L 1371.4 -389.2 L 1370 -392.6 L 1370.8 -394.9 L 1373.7 -396 L 1374.2 -399.2 L 1372.3 -404.4 L 1373.5 -408.5 L 1377.8 -411.4 L 1379.1 -414.3 L 1377.2 -417.3 L 1375 -419.1 L 1372.6 -419.7 L 1370.2 -421.8 L 1368 -425.2 L 1364.4 -426.7 L 1359.3 -426.2 L 1354.5 -426.7 L 1347.5 -429.1 L 1335.5 -432.1" />
<path class="river" d="M 436.7 1445.9 L 457.6 1448.1 L 469.2 1450.1 L 478.3 1452.8 L 491.7 1459.1 L 509.3 1469.1 L 521.5 1474.6 L 528.3 1475.7 L 535.1 1478.3 L 542 1482.2 L 551.7 1484.9 L 564.1 1486.3 L 574.2 1491.1 L 585.9 1503 L 587.5 1504.7 L 588.9 1506.3 M 137.8 1248.9 L 142.2 1265.8 L 145.4 1273.2 L 150.7 1278.3 L 162.3 1280.9 L 168 1286.7 L 171.8 1296.6 L 173.2 1303.3 L 172 1306.9 L 171.9 1311.6 L 172.9 1317.3 L 171.9 1322.2 L 168.9 1326.3 L 166.8 1332.5 L 165.6 1340.6 L 166.1 1345.9 L 168.3 1348.4 L 171.6 1350.8 L 176 1353 L 184.8 1354.6 L 198.1 1355.5 L 206.5 1358.3 L 209.9 1362.9 L 218 1366.3 L 230.9 1368.5 L 238.7 1370.9 L 241.5 1373.6 L 251.5 1376.1 L 268.9 1378.4 L 279 1381.8 L 281.7 1386.3 L 280.8 1390.8 L 276.3 1395.4 L 274.3 1399.1 L 274.8 1402.1 L 276.7 1404 L 280 1404.8 L 284.2 1407.8 L 289.3 1413 L 297.1 1415 L 307.7 1413.9 L 314.5 1416 L 317.5 1421.2 L 323.3 1425.3 L 336.2 1429.8 L 342.3 1432.5 L 345.1 1435.1 L 346.7 1438.5 L 349.8 1440.7 L 354.6 1441.6 L 375.1 1442.4 L 385 1443.6 L 392.5 1445.7 L 398.1 1446.2 L 401.7 1445 L 406.2 1445.3 L 411.7 1447 L 419.9 1447.4 L 436.3 1445.9 M -2352.3 -2563.8 L -2356 -2554.8 L -2358.9 -2551.5 L -2362.1 -2550.6 L -2365.6 -2546.7 L -2369.3 -2539.7 L -2373.1 -2535.1 L -2377.1 -2533 L -2379 -2530.1 L -2378.9 -2526.5 L -2378.4 -2525.6 L -2377.6 -2525.7 L -2376.5 -2525.2 L -2375 -2522.5 L -2373.1 -2521.2 L -2369.9 -2521.3 L -2368.4 -2520.2 L -2366.8 -2518.6 L -2364.2 -2517.6 M -2321 -2649.5 L -2330.3 -2643.3 L -2335.3 -2638.2 L -2340.4 -2629.9 L -2339.6 -2623.2 L -2339.8 -2617.7 L -2341.1 -2613.3 L -2343 -2609.3 L -2345.6 -2605.6 L -2348.4 -2603.4 L -2351.2 -2602.7 L -2352.2 -2597.8 L -2351.3 -2588.8 L -2348.2 -2583.3 L -2342.7 -2581.3 L -2339.4 -2578.3 L -2338.1 -2574.3 L -2338.6 -2570.4 L -2340.8 -2566.5 L -2344.5 -2564.4 L -2352.3 -2563.8 M -2345 -2711.1 L -2346.1 -2691.2 L -2346.1 -2686.2 L -2343.1 -2679.8 L -2334.2 -2668.4 L -2333.1 -2665.6 M -2353.4 -2748.2 L -2352.9 -2746.5 L -2350.4 -2742.8 L -2350.2 -2737 L -2349.8 -2732.3 L -2348.3 -2729.7 L -2348 -2726.7 M -2248.9 -2763.1 L -2267.4 -2754.4 L -2272.4 -2750.1 L -2274 -2747.1 L -2273.9 -2738.2 L -2275.7 -2734.2 L -2279.4 -2734.1 L -2288.3 -2736.3 L -2291.4 -2737.9 M -2170.2 -2799.7 L -2176.8 -2795 L -2181.9 -2789.3 L -2187.9 -2781 L -2191.4 -2774.8 L -2192.6 -2770.6 L -2192.2 -2765.4 L -2190 -2758.9 L -2190.5 -2754.5 L -2193.6 -2751.9 L -2199.5 -2751.5 L -2208 -2753.1 L -2214.1 -2755.9 L -2217.8 -2759.8 L -2220.8 -2761.2 L -2223.3 -2760.1 L -2225.5 -2760.2 L -2227.5 -2761.6 L -2227.7 -2763.6 L -2226.1 -2766 L -2225.9 -2767.9 L -2227.2 -2769.2 L -2229.6 -2769.9 L -2233.2 -2769.9 L -2238.6 -2768.2 L -2249.1 -2763.1 M -1855.6 -2980.9 L -1862.6 -2978.8 L -1870.4 -2976.8 L -1879.3 -2976.8 L -1885.9 -2975.1 L -1890.4 -2972.7 L -1896.7 -2967.3 L -1899.2 -2965.7 L -1901.3 -2965.5 L -1904.1 -2967.2 L -1907.8 -2967.4 L -1912.5 -2966.2 L -1917.7 -2962 L -1923.4 -2954.9 L -1926.8 -2951.7 L -1932.6 -2949.4 L -1949.8 -2948 L -1960.6 -2948.1 L -1966.9 -2946.8 L -1972.4 -2944.3 L -1981.4 -2938.6 L -1989.1 -2933.2 L -1993.1 -2925.6 L -1999.8 -2921.2 L -2006.8 -2920.6 L -2020.4 -2925.9 L -2024.1 -2926.8 L -2028.9 -2926.7 L -2034.4 -2923.5 L -2042.5 -2917.4 L -2046.4 -2912 L -2048.7 -2905 L -2051.9 -2900.7 L -2055.9 -2898.9 L -2059.5 -2896 L -2062.7 -2892.1 L -2064.9 -2890.6 L -2066 -2891 L -2067.1 -2890.2 L -2067.9 -2886.7 L -2069.1 -2884.9 L -2070.8 -2884.7 L -2072.1 -2882.8 L -2073 -2879.1 L -2075.5 -2875.2 L -2081.9 -2868.8 L -2095 -2857.4 L -2101.5 -2853.6 L -2108.2 -2853.8 M -1854.7 -2994.3 L -1853.1 -2983.7 L -1853.3 -2982" />
<path class="river" d="M 1587 512.7 L 1595.2 506.6 L 1600.6 501 L 1606 494 L 1608.8 489 L 1609 486.2 L 1608.4 484.8 L 1607 484.8 L 1605.1 482.2 L 1602.7 477.3 L 1598.7 474.6 L 1590.5 474 M 1577.7 465.7 L 1573.8 461.1 L 1570.8 459.5 L 1567.5 459.2 L 1564.2 457.8 L 1561 455.2 L 1557.8 454.9 L 1554.7 456.9 L 1551.9 457.7 L 1549.3 457.4 L 1547 455.7 L 1544.7 453.1 M 1481.8 429.3 L 1467.2 426.8 M 1439.9 407.8 L 1425.6 398.4 L 1420.1 393.9 L 1418.3 391.9 L 1415 391.5 L 1410.7 392.9 L 1407.3 393.1 L 1405.1 391.3 L 1402 390.6 L 1398.2 390.8 L 1395.8 392.5 L 1395.7 395 L 1393.1 396.4 L 1388.5 396.5 L 1385.1 398.6 L 1381.9 398.4 L 1378 396.5 L 1373.8 397.1 L 1367.8 399.6 L 1347.9 399.9 L 1342.5 400.8 L 1339.9 404.9 L 1338.3 412.6 L 1336.5 415.9 L 1334.6 414.8 L 1333.2 410.8 L 1332.2 403.8 L 1329.7 402.3 L 1325.6 406.4 L 1322.6 408.4 L 1320.7 408.3 L 1318.5 405.6 L 1316 400.2 L 1315.7 395.9 L 1317.4 392.8 L 1316.3 391.1 L 1310.4 390.7 M 1255.4 383.9 L 1251.6 380.6 L 1248.5 380.1 L 1243.1 381.8 M 504.7 337.4 L 512.4 339.8 L 515.5 338.5 L 516.4 334.5 L 519.3 331.8 L 524.1 330.4 L 529.7 327.2 L 536.2 322.1 L 543 314.2 L 550 303.5 L 555.1 290.8 L 559.8 268.4 L 559.1 257.2 L 559.8 249.8 L 561.5 242.4 L 561.8 237.3 L 560.5 234.4 L 557 232.1 L 551.5 230.5 L 547.1 225.4 L 543.8 217 L 532.6 208.6 L 513.5 200.4 L 502.1 192.8 L 498.4 185.7 L 493 180.9 L 485.9 178.4 L 482 175.9 L 481.2 173.5 L 474.1 169.1 L 453.9 159.7 M 360.8 256 L 377.9 272 L 381.2 277 L 383.6 278.5 L 386.4 278.1 L 390.5 280.2 L 399 287 L 413.1 300.5 L 418.9 307.4 L 421 312 L 424.3 314.8 L 428.9 315.9 L 432.2 315.1 L 434 312.3 L 437.5 309.9 L 442.7 307.9 L 448.7 309.5 L 455.5 314.6 L 461.4 316.2 L 466.5 314.4 L 471.9 318.2 L 477.5 327.7 L 482.1 333.2 L 485.6 334.9 L 488.2 338.1 L 489.9 342.9 L 491.9 345 L 494.4 344.6 L 496.3 342.6 L 497.6 339 L 499.9 337.3 L 505 337.4" />
<path class="river" d="M 453.9 159.7 L 450.7 156.4 L 448 149.4 L 444.6 137.8 L 441.2 129.6 L 437.6 124.8 L 435.1 120.4 L 433.8 116.2 L 433.9 112.9 L 435.2 110.5 L 434.1 105.5 L 430.4 97.9 L 430.1 95.7 L 431.3 94.6 L 433.6 90 L 436.2 80.5 L 436.4 73.8 L 433.9 69.9 L 432.8 66.6 L 433.1 64.1 L 431.5 60.3 L 428.2 55.3 L 425.7 52.8 L 423.8 52.6 L 423.2 50.8 L 423.7 47.4 L 422 43.2 L 418 38.4 L 418.1 29.3 L 422.3 16.2 L 424.3 10.9 L 424.7 7.5 L 427.3 5.7 L 428.4 2.4 L 429.4 0.7 L 431.8 -0.7 L 433.4 -4.1 L 434 -9.6 L 432 -17.7 L 427.3 -28.5 L 425.5 -34.8 L 426.6 -36.4 L 426.5 -37.9 L 425.4 -39.2 L 425.6 -40.3 L 427 -41.6 L 426.9 -43.4 L 425.3 -47.4 L 426.3 -49.6 L 428.2 -50.4 L 428.6 -52.1 L 427.9 -55.1 L 428.6 -57.4 L 431.6 -59.1 L 433.3 -61.5" />
<path class="river" d="M 266 1455.5 L 280.5 1459.8 L 289.4 1461.1 L 297.5 1460.8 L 305.3 1461.7 L 312.8 1463.8 L 323.6 1464.2 L 337.7 1462.8 L 349.2 1462.5 L 358.1 1463.5 L 366.4 1465.6 L 374.3 1468.8 L 382.8 1470.8 L 392.1 1471.6 L 399.8 1475.5 L 405.8 1482.6 L 410.7 1490.2 L 414.5 1498.4 L 421.9 1503.5 L 433 1505.3 L 440.7 1508 L 445.1 1511.6 L 450.3 1514.4 L 456.2 1516.5 L 462.9 1517.4 L 470.3 1517.2 L 481.4 1522.3 L 496.4 1532.9 L 505.8 1538.5 L 509.5 1539.3 L 514.9 1543 L 525.4 1552.8 L 537.4 1554.7 L 545.6 1559.3 L 555 1566.1 L 558.4 1571.7 M 135.9 -844.7 L 156.6 -847.6 L 172.5 -850.4 L 181.3 -852.9 L 188.3 -856.2 L 196.6 -856.6 L 206.3 -854.3 L 214.6 -853.3 L 221.4 -853.5 L 227.6 -856.2 L 233 -861.6 L 238.9 -862.7 L 245.2 -859.4 L 251.3 -862.3 L 257 -871.3 L 260.5 -875.4 L 261.6 -874.4 L 263 -875.5 L 264.7 -878.7 L 269.3 -882.4 L 274.7 -885.9 L 279.9 -888.1 L 285.5 -886.3 L 288.2 -885.9 L 289.4 -884.6 L 291 -880.1 L 292.9 -879.4 L 295.6 -877.5 L 300.9 -872.8 L 305.4 -867.9 L 308.7 -865.5 L 311.1 -863.3 L 311.8 -860.1 L 310.8 -856.9 L 313.6 -849.4 L 315.5 -847.1 L 316.5 -844.3 L 315.5 -841.4 L 317.9 -838.1 L 323.6 -823.5 L 323.9 -819.1 L 325.2 -817 L 326.8 -811.1 L 329.4 -805.5 L 328.7 -801.6 L 329.9 -797.9 L 330.7 -786.6 L 329.8 -781.9 L 327.3 -780 L 322.4 -779.1 L 315.2 -779.2 L 310 -772.4 L 305 -751.9 L 307.4 -738.1 L 311.6 -729.8 L 318.6 -722.5 L 323.8 -719.3 L 327.3 -720.1 L 335.7 -717.2 L 349 -710.5 L 358.1 -708.2 L 363 -710.1 L 369.3 -711.1 L 377.1 -711.3 L 382.2 -712.3 L 384.8 -714.3 L 387.9 -714.5 L 391.8 -713 L 396.9 -712.5 L 403.3 -712.9 L 409.9 -711.6 L 420.4 -706.9 L 434.7 -703.7 L 446.3 -704.1 L 466.9 -708.8 L 482.5 -711.7 L 492.7 -712.3 L 502.5 -711.4 L 511.7 -707.9 L 520.2 -701.8 L 529.7 -696.5 L 545.7 -690 L 553.9 -680.3 L 562.2 -674.1 L 579 -665.1 L 606.9 -652.1 L 609.9 -651.4 L 614.5 -651.5 L 619 -650.8 L 624.5 -648.1 L 629.1 -643.6 L 632.8 -637.3 L 634.8 -632 L 634.9 -627.6 L 639.4 -621.3 L 648.2 -613.1 L 651.3 -608.8 L 654.1 -605 L 657 -597 L 664.6 -586.2 L 683.3 -565.5 L 690 -559.6 L 695.1 -557.5 L 700.7 -557.3 L 706.5 -555.8 L 712.4 -553 L 716.6 -552.3 L 721.1 -554" />
<path class="river" d="M 761.2 1165.8 L 766.8 1166.7 L 775.1 1170.2 L 786.1 1176.3 L 794.3 1178.8 L 803.3 1176.2 M 693.5 1130.3 L 699.5 1135.1 L 723.5 1150.5 L 740.6 1158.9 L 751.1 1160.3 L 755.2 1162.2 L 757.9 1164.3 L 761.2 1165.8 M 693.5 1130.3 L 709.1 1134.5 L 718.2 1135.6 L 725.2 1134.6 L 734.1 1138.3 L 744.9 1146.5 L 753 1154.5 L 761.2 1165.8 M 693.4 1130.3 L 693.5 1130.3 M 793.5 801.9 L 781.7 808.8 L 778.2 813 L 779.8 818.5 L 781.2 824.5 L 780.9 830.6 L 779.1 838.7 L 775.3 844.6 L 769.4 848.3 L 766.4 856.5 L 766.5 869.1 L 764.5 881.5 L 760.6 893.5 L 760.5 895.3 L 759.8 898.2 L 758.6 899.6 L 757 901 L 754.3 902.2 L 746.7 905.9 L 741.7 910.4 L 739.7 915.2 L 737.4 924.1 L 734.9 937.3 L 734.7 946.7 L 736.9 952.4 L 736.9 958.6 L 734.9 965.5 L 734.6 971.3 L 736.1 976 L 736.3 981.9 L 735.7 986.3 L 735.6 990 L 734.7 992.6 L 733.5 995.1 L 730 999 L 711.7 1023.6 L 698.4 1039.6 L 690.2 1045.8 L 682.7 1047.7 L 678 1051.5 L 675.9 1057.3 L 675.7 1062.3 L 677.4 1066.4 L 677.3 1072.1 L 674.6 1083.3 L 672.9 1093.6 L 673.6 1100.7 L 676.1 1108.2 L 679.9 1115.9 L 685 1123.6 L 693.5 1130.3 L 693.5 1130.3 M 1017.4 696.4 L 1016.2 728.5 L 1013.7 745.5 L 1009.3 758.1 L 1005.4 764.8 L 1001.8 765.6 L 999.3 767.6 L 997.7 770.8 L 994.8 773.4 L 990.6 775.5 L 988.3 777.9 L 988 780.4 L 983.9 782 L 976.2 782.7 L 971.7 784.8 L 970.3 788.1 L 967.7 790.7 L 963.9 792.7 L 962.1 795.9 L 962.3 800.4 L 960.1 804.3 L 955.5 807.5 L 951.3 807.6 L 947.4 804.5 L 942.2 802.5 L 935.8 801.5 L 930.3 802.3 L 926 804.8 L 922.1 808.8 L 918.8 814.4 L 915 815.3 L 910.9 811.6 L 905.7 810.5 L 899.4 811.9 L 894.4 811.4 L 890.7 809 L 884.9 808.7 L 877.2 810.6 L 861.5 808.4 L 837.9 802 L 818 799.6 L 793.5 801.9 M 1063.6 578.7 L 1056.8 582.8 L 1051.9 592 L 1048.8 606.1 L 1044.7 614.9 L 1036.7 619.8 L 1047.9 616.3 L 1052.2 607 L 1056.4 592.3 L 1059.6 583.8 L 1063.6 578.7 M 1109.9 529.5 L 1101.2 539.8 L 1092.4 546.1 L 1080.8 551.7 L 1072.9 560.1 L 1069 571.1 L 1063.6 578.7 M 1197.6 416.6 L 1189.9 423.1 L 1186.6 429.2 L 1185.1 437.1 L 1181 444.8 L 1174.3 452.2 L 1171.3 458.1 L 1171.8 462.5 L 1170.9 466.4 L 1167.3 471.6 M 1248.4 336.9 L 1246.1 340.7 L 1243.5 342.1 L 1239.9 342.4 L 1235.9 344.8 L 1231.5 349.2 L 1228.6 353.2 L 1227.2 356.9 L 1227.1 359.6 L 1227.4 360.3 L 1226.5 361.5 L 1224.1 361.8 L 1221.8 364.4 L 1220 373.2 M 991.4 73.4 L 971.3 75.5 L 950.7 86.3 L 939.2 91.1 L 929.9 93.6 L 921.8 99.1 L 915.1 107.5 L 911.7 113.6 L 911.6 117.4 L 914.6 121.2 L 920.7 124.9 L 924.1 129.9 L 925.1 136.1 L 928 141.3 L 933 145.7 L 934.5 149.7 L 932.7 153.4 L 932.1 156.5 L 932.7 158.9 L 935.6 161.8 L 940.8 164.9 L 944.2 168.1 L 945.7 171.5 L 944.9 174.9 L 941.6 178.5 L 940.8 181.9 L 942.5 184.9 L 941.5 187.9 L 937.8 190.8 L 932 193 L 924.2 194.7 L 918.1 199.3 L 913.7 206.8 L 909.9 211.6 L 906.7 213.7 L 904.8 216.5 L 904.1 220.1 L 904.4 223.3 L 906.5 227.4 L 895.2 245.3 L 889.8 252.7 L 884.6 257 L 879 264.8 L 872.3 269.2 L 862.7 272.8 L 859.2 282.3 L 861.8 297.7 L 860.7 307.6 L 855.7 311.9 L 852.7 316.9 L 851.7 322.8 L 849.5 326.7 L 846 328.6 L 844.9 331.2 L 846 334.5 L 850.5 336.8 L 858.4 338.2 L 863 339.7 L 864.3 341.6 L 866.4 348.8 L 866.7 352.5 L 866.1 355.5 L 864.1 359 L 860.6 363 L 859.5 365.4 L 860.9 366.4 L 860.3 368.7 L 857.8 372.3 L 854.2 374.8 L 849.5 376.2 L 847.1 377.9 L 847.1 380 L 843.6 384.1 L 836.7 390.2 L 829.5 395.2 L 822.2 399.1 L 819 401.8 L 820.2 403.2 L 820.2 404.5 L 819.1 405.8 L 820.9 408.9 L 825.6 413.7 L 828.1 419.8 L 828.3 427 L 829.3 430.3 L 831.1 429.7 L 832.8 430.2 L 834.4 431.9 L 834.1 433.7 L 831.8 435.4 L 831.8 436.9 L 834.1 437.9 L 834.5 439.5 L 832.9 441.6 L 833.5 443.3 L 836.2 444.6 L 837.4 448.4 L 836.9 454.6 L 835.7 459.1 L 833.7 461.9 L 833.4 464.1 L 834.8 465.7 L 834.2 468.9 L 831.5 473.9 L 831 478.9 L 832.5 484 L 832 492.1 L 828.5 509 L 829.1 516 L 831.3 520.2 L 835.2 523.9 L 837.8 529.5 L 839.3 537 L 837.7 541.6 L 833.1 543.3 L 832.8 546.1 L 837 550 L 839.1 554.3 L 839.2 558.9 L 843.5 564.7 L 852 571.8 L 856.8 579.5 L 857.7 588 L 860.7 594.4 L 865.6 598.8 L 867 603.7 L 865.1 609.1 L 866.7 614.5 L 871.8 619.9 L 873.8 623.5 L 872.8 625.1 L 873.9 628.6 L 877.2 633.9 L 879 638.7 L 879.4 642.9 L 878.7 646.7 L 876.2 651.9 L 876.5 656.7 L 874.8 660.2 L 871.3 664.1 L 870.2 667.4 L 871.6 670 L 871.1 671.2 L 868.7 671.2 L 865.5 673 L 861.7 676.6 L 858.4 678.4 L 855.5 678.3 L 852 680.8 L 847.9 685.9 L 847.4 690.5 L 850.6 694.8 L 851.9 698.7 L 851.4 702.1 L 848.4 705.7 L 842.8 709.5 L 841.2 711.2 L 841 712.8 L 839.6 716.1 L 835 723 L 833.8 726.2 L 833.5 728.6 L 830.6 731.2 L 822.8 736 L 821.2 738.3 L 820.8 740.8 L 819.8 742.3 L 818.7 742.9 L 817.2 745.4 L 816 749.6 L 815.9 754.9 L 816.9 761.4 L 816.7 763.5 L 815 764.6 L 814 766.1 L 813.6 769.2 L 812.2 771.4 L 809.6 772.8 L 808.7 774.4 L 809.3 776.3 L 807.4 778.1 L 803 779.9 L 800.2 782.5 L 799.2 785.9 L 796.7 789 L 792.7 791.7 L 791.4 795.2 L 793.5 801.9" />
<path class="river" d="M 354 356.5 L 357.3 353 L 358 350.8 L 357.4 348.7 L 358.8 346.8 L 362.3 345.1 L 367.4 347.3 L 373.9 353.6 L 380.1 356.3 L 388.6 355 L 391.4 349.8 L 395.7 346.2 L 402.4 342.5 L 409 343.8 L 415.4 350 L 420.9 354.2 L 425.4 356.1 L 430.6 356.9 L 436.5 356.7 L 444 366.3 L 453 385.9 L 458 400.7 L 459 410.7 L 463.1 416.5 L 470.3 418.3 L 475.7 424.7 L 479.4 435.8 L 483.7 442.2 L 488.6 443.9 L 492.5 448 L 495.4 454.5 L 499.9 457.8 L 505.9 457.9 L 516.2 461.5 L 530.7 468.5 L 540.3 474 L 544.8 478.1 L 548.4 483.4 L 552.3 493.1 L 557.5 506.7 L 561.4 512.9 L 565.9 516.2 L 568.1 518.6 L 568.1 520.2 L 572.8 523.6 L 582.3 528.6 L 591.2 538.3 L 599.4 552.7 L 607.2 563.3 L 614.5 570.2 L 621.1 575.1 L 627.2 577.9 L 630.5 580.2 L 630.9 582 L 636.6 585.7 L 647.6 591.2 L 654.5 596.8 L 657.4 602.4 L 668.2 608.1 L 687 614 L 700.6 616.9 L 709.1 616.6 L 721.3 621.3 L 737.2 631 L 746.9 637.8 L 750.4 641.5 L 760.9 647.6 L 786.8 660.2 L 798.3 663.3 L 803.7 666.2 L 806.9 669.9 L 810.1 671 L 813.2 669.5 L 819.8 670.9 L 829.7 674.9 L 837.4 679.8 L 847.4 690.5" />
<path class="river" d="M 386.5 627.8 L 389 639.4 L 387.1 645.8 L 388.4 652 L 392.4 660.4 L 398.6 668 L 407.1 674.7 L 411.2 679.7 L 411.1 683 L 413.6 685.3 L 418.7 686.6 L 423.5 684.9 L 428 680.2 L 432.3 678.8 L 436.5 680.6 L 439.3 683.5 L 440.8 687.3 L 444.6 690.1 L 450.6 691.8 L 457.4 690.6 L 465 686.5 L 470.4 682.5 L 473.7 678.5 L 476.9 677 L 479.9 677.8 L 484.5 684.9 L 490.8 698.1 L 493.8 706.5 L 493.6 710.1 L 496.8 716.7 L 503.4 726.3 L 505.7 733.3 L 504 737.8 L 504.9 745.3 L 508.3 755.8 L 509.2 765.1 L 507.5 773.1 L 507.2 780.7 L 508.4 788 L 510.9 795.8 L 514.8 804.2 L 516.5 811 L 515.8 818.8 L 515 821.4 L 517.4 827.5 L 522.7 837.9 L 529.1 846.1 L 536.6 852 L 540.6 856.9 L 541.2 860.8 L 543.8 863.7 L 548.5 865.7 L 553.7 869.5 L 559.4 875.3 L 564.2 884 L 568.1 895.6 L 574.9 905 L 584.9 912.2 L 593.9 916.5 L 601.9 917.8 L 609 916.7 L 615.2 913.3 L 619.8 913.1 L 622.9 916.3 L 630.7 920 L 643.5 924.4 L 655.6 929.9 L 667.2 936.4 L 673.7 941.1 L 675.2 944.1 L 675.7 950.2 L 675.1 959.3 L 675.8 964.9 L 677.7 967 L 678.4 971.8 L 677.8 979.1 L 678.6 984.7 L 680.7 988.4 L 681.2 991.4 L 680.3 993.5 L 677.2 995.2 L 672.1 996.6 L 669.3 999 L 668.5 1004.4 L 670.1 1012.4 L 668.9 1018.1 L 665.5 1024.2 L 665.5 1027.6 L 668.9 1028.5 L 671.2 1033.5 L 672.3 1042.7 L 671.7 1049.6 L 669.4 1054.2 L 669.8 1058 L 675.7 1062.3" />
<path class="river" d="M 1290.6 869 L 1284.9 866.4 L 1279.3 865.4 L 1272 865.2 L 1268 865.7 L 1267.2 866.9 L 1262.8 866.6 L 1250.9 864 L 1243.5 862 L 1234.6 853.5 L 1221.7 838 L 1213.2 829.5 L 1209.1 828 L 1203.7 824.4 L 1197 818.6 L 1192.5 815.9 L 1190.1 816.1 L 1187.2 814.9 L 1183.7 812.3 L 1180.5 811.6 L 1177.6 813 L 1175 813 L 1170.9 812.8 L 1168.6 810.7 L 1164.7 805.4 L 1160.4 801.8 L 1156 800.1 L 1153 800 L 1150.9 800.7 L 1148.9 799.8 L 1146.7 800.1 L 1144.3 799.7 L 1140.5 797.5 L 1135.1 797.2 L 1128.1 798.8 L 1122.2 798 L 1117.4 794.9 L 1113.3 794.2 L 1110.3 794.3 L 1108 793.4 L 1106 792 L 1103.7 792.2 L 1101.9 792.9 L 1100.2 792.1 L 1097.4 792.6 L 1095 794 L 1092.9 793.4 L 1091.7 791.5 L 1090.6 789.7 L 1088.2 788.8 L 1085.4 788.9 L 1082.1 790 L 1080.2 791.7 L 1079.8 793.9 L 1077.4 795.3 L 1073.2 796 L 1070.7 795.5 L 1070.1 793.8 L 1067.4 793.1 L 1062.8 793.5 L 1060 793 L 1055.3 793.3 L 1049.4 797.9 L 1045.3 799.6 L 1042.9 798.5 L 1040.1 800.5 L 1037.1 805.7 L 1033.3 808 L 1026.5 809.3 L 1024.5 809.9 L 1020.5 809.7 L 1017.1 811 L 1014.3 813.8 L 1011.3 814.8 L 1008.1 814.1 L 1005.2 815.1 L 1002.6 817.8 L 1001 820.8 L 1000.6 824 L 998.1 826.1 L 993.3 827.3 L 991.7 828.9 L 992 831.1 L 989.9 832.8 L 981.9 834.6 L 976.2 837.8 L 972.6 842.4 L 968.9 845.3 L 962.9 847.1 L 954.9 851.8 L 953.8 854.6 L 956.8 857.3 L 957.9 859.6 L 957.1 861.7 L 954.6 862 L 950.4 860.5 L 947.4 860.2 L 945.7 861.1 L 944.8 862.7 L 944.9 865.2 L 943.4 866.8 L 940.4 867.7 L 938.4 869.7 L 937.6 872.9 L 933.8 876.8 L 926.9 881.6 L 921.5 888.1 L 917.5 896.2 L 912.8 901.6 L 907.5 904.1 L 903.9 907.7 L 901.9 912.5 L 896.2 919.8 L 886.9 929.7 L 878.5 936.5 L 870.9 940.2 L 866.6 944.4 L 865.7 949 L 860.8 954.3 L 851.9 960.3 L 847.3 965.2 L 847 969 L 843.5 974 L 836.9 980.2 L 834.6 985.6 L 837.6 992.3 L 838 1000.6 L 836.7 1003.9 L 833.8 1005 L 833.1 1007.1 L 834.7 1010.2 L 834.8 1014.3 L 833.4 1019.4 L 830.3 1025.3 L 825.5 1031.8 L 824.4 1036.2 L 826.9 1038.4 L 828.1 1040.8 L 828 1043.3 L 827 1046.9 L 825 1051.6 L 822 1055.1 L 818 1057.4 L 816.8 1060.3 L 818.4 1063.8 L 818.6 1067.4 L 817.5 1071.2 L 818.2 1074.9 L 820.7 1078.5 L 820.5 1082.6 L 816.1 1091" />
<g class="city"><circle cx="1208.4992125036192" cy="955.1214903886932" r="5" /><text x="1220.4992125036192" y="959.1214903886932">Porto Alegre</text></g>
<g class="city"><circle cx="534.3437371736314" cy="265.8239561712323" r="5" /><text x="546.3437371736314" y="269.8239561712323">Santa Cruz</text></g>
<g class="city"><circle cx="848.3880417053792" cy="688.4301402235895" r="5" /><text x="860.3880417053792" y="692.4301402235895">Asunción</text></g>
<g class="city"><circle cx="480.7353561258004" cy="1030.7969166019152" r="5" /><text x="492.7353561258004" y="1034.7969166019152">Córdoba</text></g>
<g class="city"><circle cx="422.7526386368977" cy="773.8283072654401" r="5" /><text x="434.7526386368977" y="777.8283072654401">Tucumán</text></g>
<g class="city"><circle cx="934.656232603666" cy="143.37532989054537" r="5" /><text x="946.656232603666" y="147.37532989054537">Cuiabá</text></g>
<g class="city"><circle cx="1016.9699072065541" cy="416.9633569232901" r="5" /><text x="1028.9699072065541" y="420.9633569232901">Campo Grande</text></g>
<g class="city"><circle cx="411.6492955185579" cy="659.9911232998512" r="5" /><text x="423.6492955185579" y="663.9911232998512">Salta</text></g>
<text class="map-title" x="80" y="105">Paraguay Physical Study Map</text>
<text class="map-subtitle" x="80" y="145">Landmark: Itaipu Dam | Study terrain and water systems</text>
  <text class="footer" x="80" y="1036">Made with Natural Earth. Free vector and raster map data @ naturalearthdata.com.</text>
</svg>
