<?xml version="1.0" encoding="UTF-8"?>
<svg xmlns="http://www.w3.org/2000/svg" width="1600" height="1100" viewBox="0 0 1600 1100" role="img" aria-labelledby="title desc">
  <title id="title">Romania Political Study Map</title>
  <desc id="desc">Made with Natural Earth. Free vector and raster map data @ naturalearthdata.com.</desc>
  <defs>
    <linearGradient id="terrain" x1="0" x2="1" y1="0" y2="1">
      <stop offset="0%" stop-color="#6c8c53" />
      <stop offset="42%" stop-color="#d5c487" />
      <stop offset="72%" stop-color="#b88b5f" />
      <stop offset="100%" stop-color="#f1f5ee" />
    </linearGradient>
    <filter id="softShadow" x="-10%" y="-10%" width="120%" height="120%">
      <feDropShadow dx="0" dy="10" stdDeviation="12" flood-color="#0f172a" flood-opacity="0.16" />
    </filter>
    <style>
      .neighbor { fill: #ffffff; stroke: #94a3b8; stroke-width: 1.2; opacity: 0.72; }
      .country { fill: #f7f1df; stroke: #1f2937; stroke-width: 4; filter: url(#softShadow); }
      .admin1 { fill: none; stroke: #64748b; stroke-width: 1.1; stroke-dasharray: 6 7; opacity: 0.75; }
      .river { fill: none; stroke: #1d9bd1; stroke-width: 3; stroke-linecap: round; opacity: 0.88; }
      .lake { fill: #8ed1ea; stroke: #0ea5e9; stroke-width: 1.5; opacity: 0.8; }
      .city circle { fill: #ef4444; stroke: #ffffff; stroke-width: 2; }
      .city text, .terrain-label { fill: #172033; font: 700 24px system-ui, sans-serif; paint-order: stroke; stroke: #ffffff; stroke-width: 5; stroke-linejoin: round; }
      .map-title { fill: #0f172a; font: 800 46px system-ui, sans-serif; }
      .map-subtitle { fill: #475569; font: 600 24px system-ui, sans-serif; }
      .footer { fill: #64748b; font: 500 18px system-ui, sans-serif; }
    </style>
  </defs>
  <rect width="100%" height="100%" fill="#eaf3f8" />
  <rect x="40" y="40" width="1520" height="1020" rx="32" fill="#ffffff" opacity="0.54" />
  <path class="neighbor" d="M 12409.1 -1312.9 L 12505.3 -1344.4 L 12505.3 -1292.8 L 12422.6 -1288.9 L 12409.1 -1312.9 Z M 2625 551.4 L 2590.6 596.2 L 2517.4 608.6 L 2442.4 686.6 L 2511 758.2 L 2503.5 809 L 2586 897.9 L 2586 897.9 L 2540.9 928.4 L 2527.9 947.6 L 2494.5 942.4 L 2442.7 896.5 L 2421.4 894 L 2374 876.5 L 2350.9 845.6 L 2280.5 829.8 L 2234.7 841.6 L 2221.5 827.6 L 2118.7 791.4 L 2007.6 779.2 L 1943.8 766.3 L 1934.6 775.2 L 1838.4 711.4 L 1752.2 682.9 L 1687.1 638.6 L 1742 626.5 L 1804.6 563.4 L 1762.4 533.5 L 1873.7 502.7 L 1871.7 486.2 L 1803.9 498.4 L 1806.3 464.9 L 1845.2 443.8 L 1918.2 438.2 L 1930.1 413.1 L 1913.4 371.5 L 1944.1 331.9 L 1943.2 309.8 L 1831.9 285.2 L 1787.8 286 L 1741.3 250.7 L 1683.3 262.6 L 1587.5 236.1 L 1589.1 221.2 L 1562.3 188.5 L 1502.1 184.9 L 1495.8 161.4 L 1514.7 146.1 L 1466.4 103.4 L 1388.2 110.7 L 1365.3 106.9 L 1346.2 124.1 L 1318 121 L 1318 121 L 1299.4 72.7 L 1281.7 47.6 L 1296.2 40.6 L 1357.1 43.2 L 1386.5 26.7 L 1364.8 6.6 L 1313.9 -6.7 L 1318.4 -20.4 L 1287.7 -34.1 L 1240.4 -83.5 L 1256.5 -103.9 L 1249.2 -139.3 L 1175.4 -157.3 L 1135.8 -148.3 L 1125 -167.1 L 1045.6 -186 L 1021.3 -230.5 L 1014.9 -267.1 L 978.5 -284.5 L 1010.8 -308.5 L 988.5 -378.9 L 1042.2 -422.4 L 1030.8 -435.6 L 1030.8 -435.6 L 1116.6 -477.3 L 1037.5 -513.2 L 1037.5 -513.2 L 1199.1 -609.5 L 1269.2 -653.1 L 1297.6 -691.6 L 1185.9 -743.3 L 1216.8 -792.5 L 1148.8 -848.7 L 1199.6 -913.4 L 1111.8 -999.3 L 1181.5 -1056.2 L 1065.9 -1106.5 L 1076.9 -1159.4 L 1137.9 -1166.3 L 1266.3 -1196.6 L 1266.3 -1196.6 L 1344.2 -1222.9 L 1468.2 -1177.2 L 1674.9 -1159.3 L 1960.1 -1073.9 L 2018 -1038 L 2023 -987.8 L 1939.2 -948.1 L 1815.9 -928 L 1479 -985.4 L 1423.6 -975.8 L 1546.6 -920.5 L 1551.4 -885.5 L 1556.4 -808.4 L 1653.5 -785.3 L 1712.5 -765.7 L 1722.3 -802.3 L 1676.8 -834.8 L 1724.8 -863.4 L 1907.3 -816.4 L 1970.9 -834.8 L 1920.1 -890.1 L 2096 -964 L 2165.7 -959.6 L 2236.1 -933.3 L 2280.1 -985.1 L 2217.2 -1030.1 L 2254.1 -1075.3 L 2198.6 -1122.1 L 2409.8 -1097.9 L 2452.9 -1055.6 L 2357.3 -1046.3 L 2357.8 -1004.3 L 2417.2 -978.4 L 2533.9 -994.8 L 2552.3 -1043 L 2710 -1078.9 L 2973.4 -1143.7 L 3030.3 -1140 L 2955.9 -1094.2 L 3049.6 -1086.3 L 3103.6 -1112.1 L 3245.1 -1114.2 L 3357.2 -1145.5 L 3443.2 -1100 L 3529 -1150 L 3449.9 -1193.7 L 3489.1 -1218.6 L 3712.1 -1195.8 L 3816.6 -1172.2 L 4090.1 -1086 L 4140.6 -1125.5 L 4063.9 -1165.4 L 4061.7 -1181.4 L 3970.7 -1188.8 L 3995.6 -1224.6 L 3955.2 -1283.5 L 3952.9 -1307.6 L 4092.2 -1376 L 4141.8 -1444.6 L 4197.9 -1459.4 L 4397.7 -1439.5 L 4413.5 -1397.5 L 4341.9 -1336.3 L 4388.9 -1312.3 L 4413.2 -1259.5 L 4396 -1156.1 L 4479.3 -1109.8 L 4446.9 -1059.4 L 4299 -952.2 L 4385.3 -941.1 L 4415.3 -968.2 L 4498.4 -987.6 L 4518.4 -1025 L 4583.8 -1060.9 L 4539.8 -1103.8 L 4575 -1153.7 L 4492.5 -1159.9 L 4474.3 -1201.9 L 4534.5 -1277.6 L 4436.5 -1339.2 L 4571.6 -1390.1 L 4554.1 -1443.7 L 4591.8 -1445.5 L 4631.4 -1403.6 L 4601.6 -1330.8 L 4682.4 -1317 L 4648 -1371.4 L 4774.3 -1401.1 L 4931 -1405.1 L 5070.5 -1362.1 L 5003.3 -1424.9 L 4995.8 -1505.3 L 5127.1 -1520.6 L 5308.6 -1517.2 L 5472.2 -1527.1 L 5410.8 -1566.6 L 5498.2 -1616.2 L 5584.9 -1618.2 L 5731.7 -1655.7 L 5931 -1665.7 L 5956.2 -1686.4 L 6154.4 -1693.4 L 6216.1 -1676.5 L 6385.5 -1716.6 L 6524.2 -1715.3 L 6545 -1747.9 L 6617.1 -1780 L 6795.3 -1811 L 6924.8 -1786.6 L 6822 -1767.9 L 6993 -1756.4 L 7013.3 -1719.1 L 7082.3 -1737.4 L 7303 -1736.4 L 7473.1 -1699.6 L 7533.7 -1671.3 L 7514.9 -1632.1 L 7431.4 -1609.8 L 7233.1 -1567.9 L 7176.4 -1545.5 L 7270 -1534.9 L 7381.6 -1515.9 L 7449.6 -1530.1 L 7488.1 -1481.7 L 7521.2 -1501.3 L 7641.9 -1513.2 L 7884.1 -1500.8 L 7902.5 -1465.5 L 8218.1 -1454.2 L 8222.4 -1511.9 L 8382.6 -1498.7 L 8503.1 -1499.1 L 8624.9 -1459.3 L 8659.7 -1411 L 8615 -1379.4 L 8709.8 -1320 L 8828.5 -1289.4 L 8901.4 -1368.6 L 9022.5 -1334.6 L 9151.1 -1354.9 L 9297.2 -1331.7 L 9352.8 -1352.8 L 9476.3 -1342.3 L 9421.8 -1412.3 L 9521.4 -1445 L 10203.2 -1396 L 10267.4 -1351.2 L 10465 -1293.5 L 10769.8 -1307.8 L 10920.1 -1295.4 L 10982.9 -1264.2 L 10973.7 -1209 L 11066.7 -1187.5 L 11167.7 -1202.9 L 11301.6 -1204.9 L 11444.1 -1190.1 L 11587.2 -1198.5 L 11718.6 -1131.4 L 11812.2 -1155.5 L 11751.1 -1203.8 L 11784.7 -1237.3 L 12025.6 -1216.2 L 12182.6 -1220.7 L 12399.7 -1184.7 L 12505.3 -1151.7 L 12505.3 -851 L 12504.8 -850.6 L 12407.7 -817.5 L 12309.9 -823 L 12378 -782.8 L 12422.9 -720.6 L 12457.8 -700.3 L 12466.6 -669.1 L 12447.1 -649.1 L 12306.4 -665.5 L 12095.4 -608.7 L 12028.3 -599.9 L 11912.8 -546.9 L 11803.2 -500.5 L 11775.5 -466.2 L 11667.5 -518.4 L 11470.9 -459.2 L 11436.5 -487.2 L 11363.8 -454.9 L 11262.9 -465.2 L 11238.5 -415.6 L 11148 -342.6 L 11150.7 -312 L 11236.6 -295.1 L 11226.5 -185.3 L 11156.5 -182.5 L 11124.1 -119.3 L 11155.5 -86.8 L 11023.5 -48.3 L 10997.3 37.9 L 10884.8 56.3 L 10862.2 133 L 10753.4 203.3 L 10725.5 151.3 L 10693.2 41.2 L 10651 -126.5 L 10687.3 -231.2 L 10751 -276.2 L 10755 -311.5 L 10872.2 -328.4 L 11007.1 -423.4 L 11137 -501 L 11272.7 -561.3 L 11333.4 -667.7 L 11241.7 -661.3 L 11196.3 -599.1 L 11004.9 -516.2 L 10943 -609.1 L 10748.2 -583.4 L 10559.3 -456.9 L 10621.6 -410.6 L 10453.1 -390.9 L 10336.4 -383.1 L 10341.9 -437.7 L 10224.6 -449.2 L 10131.1 -412.1 L 9900.3 -425.1 L 9652 -402.7 L 9407.5 -255.4 L 9118.2 -77.3 L 9237.1 -67.8 L 9274.2 -20.6 L 9347.6 -3.8 L 9395.9 -41.5 L 9478.7 -36.6 L 9587.6 46.5 L 9590.2 110.7 L 9531.2 186.1 L 9524.8 276.2 L 9490.8 396.9 L 9377 506.1 L 9351.7 558.3 L 9249.3 646.2 L 9147.6 733.4 L 9098.8 778 L 8998.2 822.3 L 8950.6 823.2 L 8903.2 786.5 L 8801.9 841.8 L 8790.2 866.9 L 8790.2 866.9 L 8790.2 866.9 L 8790.2 866.9 L 8779.6 853.7 L 8779.6 853.7 L 8779.1 815.3 L 8817.7 813.3 L 8828.5 724.1 L 8808.7 659.5 L 8873.4 632.8 L 8965.1 646.2 L 9015.8 572.8 L 9041.7 490.1 L 9071 462.4 L 9110.7 394.5 L 8985.9 416.8 L 8920.5 446.5 L 8805.8 446.5 L 8775.2 375.5 L 8685.8 321.9 L 8554.5 297.7 L 8526.5 223.8 L 8500.2 177.5 L 8472 145 L 8425.3 68.9 L 8359 41.1 L 8246 18.6 L 8146 20.6 L 8052.2 34.2 L 7989.8 71.8 L 8031.3 89.7 L 8032.2 131.4 L 7990.2 155.6 L 7922.1 235.7 L 7922.8 268.9 L 7816.4 316.6 L 7725.8 288.1 L 7635.7 294.4 L 7596.2 269.1 L 7550.9 260.9 L 7440.4 314.1 L 7341 326.6 L 7271.6 345.3 L 7176.6 333 L 7106.6 333.8 L 7060.8 295.2 L 6986.8 259 L 6911.2 249 L 6815.7 258.9 L 6744.4 272.9 L 6637.1 241.1 L 6622.7 184.6 L 6534 165.2 L 6465.5 156.3 L 6380.9 125.1 L 6302.7 203.3 L 6333.4 247.8 L 6260 300.3 L 6150.9 281.4 L 6075.6 278.6 L 6025.1 243.4 L 5946.4 242.3 L 5880.7 219.1 L 5765.9 254.6 L 5621.9 319.6 L 5542.3 332.7 L 5512.8 338.9 L 5472.7 292.7 L 5375.5 302.8 L 5343.4 270.8 L 5290.6 256.1 L 5254.3 212.5 L 5212.6 199 L 5104.1 218.3 L 5000.1 174.9 L 4959.9 214.4 L 4791.2 22.7 L 4695 -35.6 L 4722.6 -59.3 L 4533.4 11.9 L 4461 16.2 L 4467.3 -25 L 4370.3 -50.7 L 4291.5 -32.3 L 4267.7 -110.6 L 4132.1 -126.8 L 4064.2 -95.5 L 3875.4 -67.7 L 3838.5 -49 L 3556.1 -22.7 L 3521.4 3 L 3575.9 54.7 L 3503.5 74.3 L 3517.6 94.9 L 3445.2 131.7 L 3567.5 183.6 L 3548.6 219.3 L 3442.5 216.1 L 3420.6 238.5 L 3324.1 199.4 L 3204.4 200.9 L 3124.3 232.7 L 3035 202.2 L 2868.6 149.9 L 2750.7 151.9 L 2594.9 234 L 2585.5 289.1 L 2507.8 245.3 L 2447.6 328.3 L 2469.7 343.7 L 2426.1 400.9 L 2490.2 452.1 L 2546.2 450 L 2594.3 500.4 L 2586.6 539.2 L 2625 551.4 Z M 5997.2 -2062.1 L 6160.5 -2079.2 L 6307.1 -2041.2 L 6480.9 -1968.2 L 6462.3 -1900.3 L 6297.6 -1890.9 L 6087.4 -1912.7 L 5962.1 -1941.5 L 5904.2 -1995.6 L 5801.2 -2010.5 L 5997.2 -2062.1 Z M 6681.1 -1930.5 L 6872.4 -1887.7 L 6850 -1857 L 6424.4 -1827.8 L 6562.3 -1927 L 6624.3 -1935.4 L 6681.1 -1930.5 Z M 9397.9 -1693.2 L 9597.2 -1689.9 L 9870 -1649.8 L 9810.7 -1593.8 L 9532.4 -1595.9 L 9407.2 -1578 L 9257.7 -1627.1 L 9298.3 -1679 L 9397.9 -1693.2 Z M 10106.7 -1633.5 L 10296.1 -1613.7 L 10208.9 -1583.9 L 10088.2 -1590.6 L 9948 -1620.4 L 9966 -1644.9 L 10106.7 -1633.5 Z M 9475.8 -1484.3 L 9547.4 -1514.2 L 9641.7 -1521.1 L 9749 -1492.3 L 9758.1 -1472.4 L 9643.7 -1471.9 L 9489 -1480.3 L 9475.8 -1484.3 Z M 2303.9 -2029.3 L 2451.2 -2043 L 2565.9 -2044 L 2581.3 -2023.6 L 2624.7 -2041.7 L 2695.8 -2054.1 L 2807.8 -2037.6 L 2778.6 -2026.1 L 2677.2 -2016.1 L 2609.4 -2010.4 L 2598.8 -1998 L 2510.6 -1985.5 L 2428.8 -2003.4 L 2471.8 -2027 L 2303.9 -2029.3 Z M 634.5 -47 L 495.7 -45.9 L 402.8 -54.4 L 420 -87.6 L 524.1 -112.1 L 603.2 -98.9 L 636.5 -86.9 L 628.5 -66.3 L 634.5 -47 Z M 2957.6 -1513 L 3138.3 -1579.3 L 3117.9 -1613.5 L 3286.7 -1653.4 L 3535.9 -1701.9 L 3787.2 -1716 L 3916.4 -1744 L 4063.3 -1753.8 L 4115.8 -1724 L 4065.1 -1700.5 L 3797.6 -1663.1 L 3567.1 -1627.1 L 3332.7 -1555.2 L 3220.2 -1481.5 L 3101.9 -1408.9 L 3117.2 -1346.2 L 3261.6 -1284.3 L 3217 -1277.7 L 2970.4 -1287.5 L 2950.3 -1321 L 2813.7 -1341.3 L 2802.7 -1382 L 2879.9 -1398.2 L 2877.3 -1439.4 L 3027 -1503.8 L 2957.6 -1513 Z M 9706.1 0 L 9732.2 72.8 L 9730.3 147.1 L 9761.4 223.2 L 9837.4 356.9 L 9725.7 332 L 9679.2 441.1 L 9752.8 518.4 L 9750.7 571.2 L 9693.5 525.7 L 9644 584.1 L 9630 520.7 L 9638.4 447.2 L 9629.8 365.8 L 9647.3 308.7 L 9650.6 207.8 L 9606.4 133.6 L 9613.1 30.4 L 9682.9 -4.3 L 9652.9 -39.3 L 9686.5 -49.9 L 9706.1 0 Z M -14285 -1019.1 L -14291.5 -972.1 L -14240.6 -953.4 L -14258.1 -1008.2 L -14053.2 -997 L -13905.4 -926.3 L -13980.3 -893.4 L -14104 -885.6 L -14105.8 -811.9 L -14136.1 -796.2 L -14206.8 -798.4 L -14264.3 -824.7 L -14364.6 -846.7 L -14381.5 -879.5 L -14458.2 -891.8 L -14544 -882 L -14585 -908.4 L -14568.6 -936.5 L -14659 -918.6 L -14625 -883.1 L -14667.8 -851 L -14667.8 -1151.7 L -14482.9 -1094.1 L -14285 -1019.1 Z M -14569.2 -1297.4 L -14667.8 -1292.8 L -14667.8 -1344.4 L -14658.1 -1347.5 L -14594.2 -1347.4 L -14485 -1325.8 L -14491.4 -1315.5 L -14569.2 -1297.4 Z M 1442.5 583.7 L 1462.4 565 L 1516.1 581.2 L 1540.4 584.2 L 1550.2 599.1 L 1561.5 601.4 L 1562.2 607.9 L 1599.1 626.1 L 1676.1 621.6 L 1661.3 648.5 L 1578.7 661.6 L 1476.2 705.3 L 1434.3 689.9 L 1450.9 654.4 L 1368.4 632.3 L 1381.8 617.9 L 1454 592.8 L 1442.5 583.7 Z" />
<path class="neighbor" d="M 1318 121 L 1346.2 124.1 L 1365.3 106.9 L 1388.2 110.7 L 1466.4 103.4 L 1514.7 146.1 L 1495.8 161.4 L 1502.1 184.9 L 1562.3 188.5 L 1589.1 221.2 L 1587.5 236.1 L 1683.3 262.6 L 1741.3 250.7 L 1787.8 286 L 1831.9 285.2 L 1943.2 309.8 L 1944.1 331.9 L 1913.4 371.5 L 1930.1 413.1 L 1918.2 438.2 L 1845.2 443.8 L 1806.3 464.9 L 1803.9 498.4 L 1743.6 504.4 L 1693.4 528.8 L 1622.8 532.8 L 1557.8 561 L 1561.5 601.4 L 1550.2 599.1 L 1540.4 584.2 L 1516.1 581.2 L 1462.4 565 L 1442.5 583.7 L 1432.2 575.5 L 1314.8 556.4 L 1309.6 528.3 L 1239.7 537.6 L 1211.7 579.1 L 1153.2 634.9 L 1119 622 L 1083.5 634.1 L 1049.9 620.2 L 1068.9 612 L 1082 586.1 L 1102.7 562 L 1097.4 548.5 L 1113.2 542.5 L 1120.6 553 L 1165.1 555.2 L 1185.1 549.6 L 1171 541.9 L 1176.3 530.7 L 1150 511.5 L 1139 479.9 L 1111.5 467.6 L 1117 442 L 1082.9 421.7 L 1051.8 418.9 L 996.2 395.4 L 946 402.8 L 928 414 L 896.2 413.9 L 877.2 431.6 L 821.5 438.8 L 795.7 450.4 L 760.7 432 L 712.3 431.7 L 665.6 423.3 L 633 439.5 L 627.7 419.3 L 585.8 398.7 L 600.5 368.3 L 621.5 348.7 L 637.9 353.1 L 618.5 319.1 L 687 256.4 L 724.5 247.6 L 732.6 226.4 L 694.6 160.5 L 730.7 157.6 L 772.1 137.1 L 830.5 135.4 L 906.8 141.4 L 991 159.5 L 1050.5 161 L 1078.8 171.9 L 1107.2 158.7 L 1127 176.4 L 1195.1 172.8 L 1225.1 180.1 L 1229.9 142.1 L 1253.2 125.5 L 1318 121 Z" />
<path class="neighbor" d="M 691.4 -15.7 L 694.6 17.7 L 715.6 46.4 L 715.1 76.5 L 669.9 91.9 L 693.2 126.9 L 694.6 160.5 L 732.6 226.4 L 724.5 247.6 L 687 256.4 L 618.5 319.1 L 637.9 353.1 L 621.5 348.7 L 549.7 319.7 L 495.4 330.3 L 459.8 322.6 L 415.2 338.7 L 377.1 312 L 346.1 322.2 L 341.8 317.7 L 307.1 280.5 L 251 276 L 243.8 252.3 L 192 243.9 L 180.8 263.4 L 139.8 247.8 L 144.5 227 L 88 220.4 L 52.3 196.1 L 21.3 147.9 L 27.2 121.9 L 8.5 81.5 L -18.9 54.6 L 2.2 34.5 L -15.5 -3.9 L 36.1 -26.1 L 153.9 -61 L 248.9 -86.5 L 324.3 -73.8 L 330 -55.4 L 402.8 -54.4 L 495.7 -45.9 L 634.5 -47 L 673.2 -38.9 L 691.4 -15.7 Z" />
<path class="neighbor" d="M 200.4 421.3 L 194.7 452.1 L 152.2 452.3 L 166.8 468.6 L 141.7 517.2 L 127.3 530 L 61.3 531.9 L 23.2 549 L -39.1 543.1 L -147.1 523.6 L -163.9 497.4 L -238.5 510.5 L -247.3 524.9 L -293 514.1 L -331.5 512.1 L -365.7 498.3 L -354.1 479.9 L -357.1 466.5 L -334.3 462.3 L -296.1 483.3 L -285.3 463.3 L -218.8 466.6 L -164.8 453 L -128.6 455.3 L -105.1 470.8 L -98 458 L -108.7 408.8 L -81.6 399.2 L -55 364.4 L 1.1 388.7 L 43.5 357.8 L 70.1 352.2 L 128.7 375.2 L 164.1 371.3 L 198.9 385.6 L 192.9 395.1 L 200.4 421.3 Z" />
<path class="neighbor" d="M 585.8 398.7 L 627.7 419.3 L 633 439.5 L 586.9 455.3 L 551.2 506.5 L 505.5 557.7 L 445 572 L 397.9 568.6 L 340.1 588.5 L 340.1 588.5 L 311.8 599.7 L 249.5 585.2 L 193.1 552.8 L 169.1 543.6 L 154.4 518.1 L 141.7 517.2 L 166.8 468.6 L 152.2 452.3 L 194.7 452.1 L 200.4 421.3 L 238.8 440.6 L 266.6 448.9 L 330 439.6 L 336.1 424.4 L 366.1 422.2 L 402.8 410.5 L 411 415.3 L 446.4 405.9 L 464.1 388.1 L 488.9 383.5 L 569.7 406.5 L 585.8 398.7 Z" />
<path class="neighbor" d="M 928 414 L 946 402.8 L 996.2 395.4 L 1051.8 418.9 L 1082.9 421.7 L 1117 442 L 1111.5 467.6 L 1139 479.9 L 1150 511.5 L 1176.3 530.7 L 1171 541.9 L 1185.1 549.6 L 1165.1 555.2 L 1120.6 553 L 1113.2 542.5 L 1097.4 548.5 L 1102.7 562 L 1082 586.1 L 1068.9 612 L 1049.9 620.2 L 1036.3 585.8 L 1044.3 553.5 L 1041.9 520.4 L 998.3 475.5 L 974.4 443.7 L 951 421.3 L 928 414 Z" />
<path class="neighbor" d="M 628.9 714.8 L 650.7 745.8 L 679.9 740.3 L 737.9 752.1 L 848.8 756.1 L 886.2 736.8 L 975 719.3 L 1030 746.7 L 1074.4 754.6 L 1035.2 785.9 L 1007.6 839.9 L 1032 882.9 L 967 872.8 L 890.1 896.6 L 889.3 934.2 L 820.7 941.3 L 767.5 914.9 L 707.1 935.7 L 651.2 933.5 L 645.9 883.6 L 608.1 859.3 L 620.5 848.7 L 612.3 839.7 L 625 815.7 L 653.8 792.1 L 617.1 759.5 L 610.3 731.9 L 628.9 714.8 Z" />
<path class="neighbor" d="M 903.2 1389.2 L 893.7 1411.5 L 785 1417.9 L 785.8 1405.5 L 693.7 1390.7 L 707.7 1358.7 L 748.9 1384.1 L 807.7 1379.8 L 863.8 1385.1 L 862 1398.3 L 903.2 1389.2 Z M 651.2 933.5 L 707.1 935.7 L 767.5 914.9 L 820.7 941.3 L 889.3 934.2 L 890.1 896.6 L 926.9 916.6 L 903.5 963.8 L 885.6 972.3 L 839.6 970.1 L 800.2 963 L 708.8 982.6 L 761.1 1025 L 722.8 1037.3 L 680.7 1037.4 L 640.8 998.5 L 626.6 1015.1 L 643.5 1060.2 L 681.2 1095.6 L 652.8 1112.1 L 694.8 1146.9 L 732.2 1168.8 L 733.3 1211.5 L 663.5 1191.5 L 685.8 1230 L 637.8 1237.9 L 666.5 1304.5 L 616.3 1305.4 L 554.4 1272.6 L 526.1 1212.2 L 512.9 1162 L 483.5 1127.3 L 444.8 1084.3 L 439.7 1062.8 L 474.8 1026.2 L 479.3 1001.6 L 503.9 990.7 L 505.4 970.9 L 554.7 964.2 L 583.5 947.7 L 624.4 949.1 L 636.8 936 L 651.2 933.5 Z" />
<path class="neighbor" d="M 2298.2 1248 L 2262.1 1260.8 L 2235.6 1241.6 L 2147.8 1231.8 L 2115.3 1243.6 L 2029.5 1255.3 L 1988.8 1254 L 1902 1282.3 L 1839.9 1282.6 L 1799.7 1268.4 L 1716.6 1289.4 L 1691.9 1274.7 L 1687.8 1316.8 L 1667.6 1333.3 L 1647.4 1349.9 L 1619.6 1315.6 L 1648.2 1287.3 L 1602.2 1293.7 L 1539 1276.3 L 1487.1 1319.8 L 1372.6 1328.3 L 1311.5 1287.8 L 1230.1 1285.2 L 1212.7 1316.5 L 1160.5 1325.5 L 1087.5 1285.3 L 1005.1 1286.7 L 960.4 1211.6 L 905.3 1169.7 L 942 1111 L 894.2 1075 L 977.9 1002.8 L 1094.1 999.7 L 1125.8 942.4 L 1269.7 952.4 L 1360.4 903.4 L 1448.4 882.1 L 1573.3 880.5 L 1705 933.7 L 1813.3 962.9 L 1901.2 951.2 L 1966.2 958 L 2055.3 918.6 L 2135.7 915 L 2208.4 952 L 2221.3 978.6 L 2214 1015.3 L 2270.1 1034.1 L 2299.9 1056.1 L 2248.2 1077.6 L 2271.7 1164.2 L 2257 1187.6 L 2298.2 1248 L 2298.2 1248 Z M 890.1 896.6 L 967 872.8 L 1032 882.9 L 1040.9 912 L 1106.8 936.3 L 1093.1 954.8 L 1003.5 959 L 971.3 982.3 L 908.3 1023 L 884.5 987.8 L 885.6 972.3 L 903.5 963.8 L 926.9 916.6 L 890.1 896.6 Z" />
<path class="neighbor" d="M 505.4 970.9 L 503.9 990.7 L 479.3 1001.6 L 474.8 1026.2 L 439.7 1062.8 L 426.9 1057.5 L 425.4 1040.9 L 383.6 1015.5 L 377 979.6 L 383.4 928.1 L 393.7 904.6 L 381 892.7 L 381 892.7 L 375.9 868.7 L 408.6 831.6 L 413.4 845.8 L 433.7 839.1 L 449.8 859.3 L 467.9 867.1 L 472.9 894.4 L 472.9 894.4 L 463.3 920.1 L 474.1 952.5 L 505.4 970.9 Z" />
<path class="neighbor" d="M 169.1 543.6 L 193.1 552.8 L 249.5 585.2 L 311.8 599.7 L 340.1 588.5 L 358.4 617.7 L 382.4 639.2 L 353.3 667.6 L 319.2 650.9 L 267 651.9 L 202.1 639.4 L 166.8 641.1 L 150.5 656.7 L 123.4 639.4 L 107.6 670.7 L 144.5 706 L 160.9 729.4 L 195.6 757.6 L 224.4 774.3 L 252.9 805.9 L 319.7 834.4 L 311.4 847.3 L 311.4 847.3 L 240.4 819.3 L 196.7 792.2 L 127.6 769.7 L 64.1 714.2 L 79.4 708.5 L 45 676.8 L 43.5 651.3 L -5 639.4 L -28.1 672 L -50.4 646.7 L -48.7 620.5 L -46 619.3 L 6.6 621.9 L 20.4 609.1 L 46.1 621.5 L 75.7 622.9 L 75.4 601.8 L 101.7 594.1 L 109 563.6 L 169.1 543.6 Z" />
<path class="neighbor" d="M -293 514.1 L -247.3 524.9 L -238.5 510.5 L -163.9 497.4 L -147.1 523.6 L -39.1 543.1 L -47.3 580.3 L -29.2 612.4 L -89.3 601.5 L -150.7 628.2 L -146.5 665.7 L -155.7 687.2 L -131 725.6 L -60.2 763.7 L -22.3 826.1 L 61.7 886.9 L 120.9 886.4 L 139.3 903.1 L 118.1 918.1 L 185.7 945.4 L 241.1 968.3 L 305.9 1007.6 L 313.7 1021.7 L 299.6 1048.7 L 257.7 1013.5 L 192.1 1001.1 L 160.3 1049.9 L 214.9 1077.9 L 205.9 1117.3 L 174.4 1121.8 L 134.1 1186.5 L 102.6 1192.3 L 102.9 1169.2 L 118.3 1128.7 L 134.7 1112.6 L 105.2 1068.9 L 82.2 1030.8 L 50.9 1021.4 L 28.6 988.8 L -19.9 975.1 L -52.6 944.8 L -108.4 939.9 L -167.4 905.8 L -236.5 856.7 L -287.8 813.2 L -311.3 738.6 L -348.9 729.8 L -410.3 704.9 L -445 715.1 L -488.7 750.1 L -520 755.6 L -511.4 722.9 L -552.3 713.3 L -571.7 654.9 L -545.6 631.9 L -567.8 603.6 L -564.7 582.2 L -532.2 598.4 L -495.8 594.8 L -453.5 569.2 L -440.4 581.2 L -404.5 578.8 L -388.1 548.4 L -332.3 557.8 L -299 545.1 L -293 514.1 Z M 33 1174.6 L 90.3 1168 L 63.1 1227.4 L 74.4 1250.8 L 58.5 1289.6 L 0.8 1261.2 L -37.6 1253 L -142.9 1214.6 L -132.4 1175.9 L -44 1182.8 L 33 1174.6 Z M -423.8 966.5 L -386.1 943.1 L -340.8 996.7 L -351.4 1096.6 L -385.7 1091.8 L -416.5 1117 L -445.1 1097 L -448.1 1005.9 L -465.3 962.8 L -423.8 966.5 Z" />
<path class="neighbor" d="M -39.1 543.1 L 23.2 549 L 61.3 531.9 L 127.3 530 L 141.7 517.2 L 154.4 518.1 L 169.1 543.6 L 109 563.6 L 101.7 594.1 L 75.4 601.8 L 75.7 622.9 L 46.1 621.5 L 20.4 609.1 L 6.6 621.9 L -46 619.3 L -29.2 612.4 L -47.3 580.3 L -39.1 543.1 Z" />
<path class="neighbor" d="M 621.5 348.7 L 600.5 368.3 L 585.8 398.7 L 569.7 406.5 L 488.9 383.5 L 464.1 388.1 L 446.4 405.9 L 411 415.3 L 402.8 410.5 L 366.1 422.2 L 336.1 424.4 L 330 439.6 L 266.6 448.9 L 238.8 440.6 L 200.4 421.3 L 192.9 395.1 L 198.9 385.6 L 209.6 369 L 243.1 370.2 L 268.8 362.4 L 270.9 355.4 L 285.3 351.8 L 290.3 334.6 L 307.6 331.4 L 319.3 317.8 L 341.8 317.7 L 346.1 322.2 L 377.1 312 L 415.2 338.7 L 459.8 322.6 L 495.4 330.3 L 549.7 319.7 L 621.5 348.7 Z" />
<path class="neighbor" d="M 52.3 196.1 L 88 220.4 L 144.5 227 L 139.8 247.8 L 180.8 263.4 L 192 243.9 L 243.8 252.3 L 251 276 L 307.1 280.5 L 341.8 317.7 L 319.3 317.8 L 307.6 331.4 L 290.3 334.6 L 285.3 351.8 L 270.9 355.4 L 268.8 362.4 L 243.1 370.2 L 209.6 369 L 198.9 385.6 L 164.1 371.3 L 128.7 375.2 L 70.1 352.2 L 43.5 357.8 L 1.1 388.7 L -55 364.4 L -97.6 332 L -136.1 313.8 L -144.1 282 L -157.3 259.6 L -102.5 243.1 L -74.5 224.3 L -20.3 209.7 L -1.3 195.3 L 18.6 204 L 52.3 196.1 Z" />
<path class="neighbor" d="M 319.7 834.4 L 252.9 805.9 L 224.4 774.3 L 195.6 757.6 L 160.9 729.4 L 144.5 706 L 107.6 670.7 L 123.4 639.4 L 150.5 656.7 L 166.8 641.1 L 202.1 639.4 L 267 651.9 L 319.2 650.9 L 353.3 667.6 L 353.3 667.6 L 380.7 667.4 L 361.8 700.6 L 398.2 729.6 L 387.2 765.1 L 369.4 768.5 L 355.3 775.4 L 330.7 792.9 L 319.7 834.4 Z" />
<path class="neighbor" d="M 608.1 859.3 L 645.9 883.6 L 651.2 933.5 L 636.8 936 L 624.4 949.1 L 583.5 947.7 L 554.7 964.2 L 505.4 970.9 L 474.1 952.5 L 463.3 920.1 L 472.9 894.4 L 472.9 894.4 L 482.5 895 L 485.9 879.6 L 530.5 867.9 L 547.4 865 L 573.1 860.6 L 608.1 859.3 Z" />
<path class="neighbor" d="M 340.1 588.5 L 340.1 588.5 L 397.9 568.6 L 445 572 L 485.9 601.6 L 494.4 625.6 L 540.4 643.4 L 546.3 674.5 L 590.3 696.4 L 614 679.5 L 632.6 688.9 L 615.1 701.7 L 628.9 714.8 L 610.3 731.9 L 617.1 759.5 L 653.8 792.1 L 625 815.7 L 612.3 839.7 L 620.5 848.7 L 608.1 859.3 L 573.1 860.6 L 547.4 865 L 544.9 859.3 L 553.9 850.3 L 562.4 832 L 551.6 832.4 L 537 818.4 L 524.6 814.8 L 514.7 802.8 L 500.6 798.1 L 489.9 787.5 L 476.3 791.7 L 465.9 816.7 L 447.8 822.2 L 454 815.7 L 425.3 800 L 400.5 791.9 L 389.4 781.4 L 369.4 768.5 L 387.2 765.1 L 398.2 729.6 L 361.8 700.6 L 380.7 667.4 L 353.3 667.6 L 353.3 667.6 L 382.4 639.2 L 358.4 617.7 L 340.1 588.5 Z" />
<path class="neighbor" d="M 433.7 839.1 L 413.4 845.8 L 408.6 831.6 L 375.9 868.7 L 381 892.7 L 365.2 886.9 L 344 862.3 L 311.4 847.3 L 319.7 834.4 L 330.7 792.9 L 355.3 775.4 L 369.4 768.5 L 389.4 781.4 L 400.5 791.9 L 425.3 800 L 454 815.7 L 447.8 822.2 L 433.7 839.1 Z" />
<path class="neighbor" d="M 472.9 894.4 L 467.9 867.1 L 449.8 859.3 L 433.7 839.1 L 447.8 822.2 L 465.9 816.7 L 476.3 791.7 L 489.9 787.5 L 500.6 798.1 L 514.7 802.8 L 524.6 814.8 L 537 818.4 L 551.6 832.4 L 562.4 832 L 553.9 850.3 L 544.9 859.3 L 547.4 865 L 530.5 867.9 L 485.9 879.6 L 482.5 895 L 472.9 894.4 Z" />

<path class="country" d="M 1049.9 620.2 L 1083.5 634.1 L 1119 622 L 1153.2 634.9 L 1155 654.4 L 1118.4 670.6 L 1095.5 663.6 L 1074.4 754.6 L 1030 746.7 L 975 719.3 L 886.2 736.8 L 848.8 756.1 L 737.9 752.1 L 679.9 740.3 L 650.7 745.8 L 628.9 714.8 L 615.1 701.7 L 632.6 688.9 L 614 679.5 L 590.3 696.4 L 546.3 674.5 L 540.4 643.4 L 494.4 625.6 L 485.9 601.6 L 445 572 L 505.5 557.7 L 551.2 506.5 L 586.9 455.3 L 633 439.5 L 665.6 423.3 L 712.3 431.7 L 760.7 432 L 795.7 450.4 L 821.5 438.8 L 877.2 431.6 L 896.2 413.9 L 928 414 L 951 421.3 L 974.4 443.7 L 998.3 475.5 L 1041.9 520.4 L 1044.3 553.5 L 1036.3 585.8 L 1049.9 620.2 Z" />


<g class="city"><circle cx="1222.0375462280751" cy="246.79642881708295" r="5" /><text x="1234.0375462280751" y="250.79642881708295">Kyiv</text></g>
<g class="city"><circle cx="153.98339962010763" cy="415.37188597363627" r="5" /><text x="165.98339962010763" y="419.37188597363627">Vienna</text></g>
<g class="city"><circle cx="888.6624138308256" cy="699.6815539841109" r="5" /><text x="900.6624138308256" y="703.6815539841109">Bucharest</text></g>
<g class="city"><circle cx="359.0410484363172" cy="468.209207268578" r="5" /><text x="371.0410484363172" y="472.209207268578">Budapest</text></g>
<g class="city"><circle cx="678.5769056459832" cy="831.7748949619247" r="5" /><text x="690.5769056459832" y="835.7748949619247">Sofia</text></g>
<g class="city"><circle cx="463.5572099106232" cy="670.6007946120656" r="5" /><text x="475.5572099106232" y="674.6007946120656">Belgrade</text></g>
<g class="city"><circle cx="1236.6335176095386" cy="544.4441787256287" r="5" /><text x="1248.6335176095386" y="548.4441787256287">Odessa</text></g>
<g class="city"><circle cx="732.5674243923069" cy="292.11011421963696" r="5" /><text x="744.5674243923069" y="296.11011421963696">Lviv</text></g>
<text class="map-title" x="80" y="105">Romania Political Study Map</text>
<text class="map-subtitle" x="80" y="145">Capital: Bucharest | Continent: Europe</text>
  <text class="footer" x="80" y="1036">Made with Natural Earth. Free vector and raster map data @ naturalearthdata.com.</text>
</svg>
