<?xml version="1.0" encoding="UTF-8"?>
<svg xmlns="http://www.w3.org/2000/svg" width="1600" height="1100" viewBox="0 0 1600 1100" role="img" aria-labelledby="title desc">
  <title id="title">Rwanda Physical Study Map</title>
  <desc id="desc">Made with Natural Earth. Free vector and raster map data @ naturalearthdata.com.</desc>
  <defs>
    <linearGradient id="terrain" x1="0" x2="1" y1="0" y2="1">
      <stop offset="0%" stop-color="#6c8c53" />
      <stop offset="42%" stop-color="#d5c487" />
      <stop offset="72%" stop-color="#b88b5f" />
      <stop offset="100%" stop-color="#f1f5ee" />
    </linearGradient>
    <filter id="softShadow" x="-10%" y="-10%" width="120%" height="120%">
      <feDropShadow dx="0" dy="10" stdDeviation="12" flood-color="#0f172a" flood-opacity="0.16" />
    </filter>
    <style>
      .neighbor { fill: #ffffff; stroke: #94a3b8; stroke-width: 1.2; opacity: 0.72; }
      .country { fill: url(#terrain); stroke: #1f2937; stroke-width: 4; filter: url(#softShadow); }
      .admin1 { fill: none; stroke: #64748b; stroke-width: 1.1; stroke-dasharray: 6 7; opacity: 0.75; }
      .river { fill: none; stroke: #1d9bd1; stroke-width: 3; stroke-linecap: round; opacity: 0.88; }
      .lake { fill: #8ed1ea; stroke: #0ea5e9; stroke-width: 1.5; opacity: 0.8; }
      .city circle { fill: #ef4444; stroke: #ffffff; stroke-width: 2; }
      .city text, .terrain-label { fill: #172033; font: 700 24px system-ui, sans-serif; paint-order: stroke; stroke: #ffffff; stroke-width: 5; stroke-linejoin: round; }
      .map-title { fill: #0f172a; font: 800 46px system-ui, sans-serif; }
      .map-subtitle { fill: #475569; font: 600 24px system-ui, sans-serif; }
      .footer { fill: #64748b; font: 500 18px system-ui, sans-serif; }
    </style>
  </defs>
  <rect width="100%" height="100%" fill="#d8edf0" />
  <rect x="40" y="40" width="1520" height="1020" rx="32" fill="#ffffff" opacity="0.54" />
  <path class="neighbor" d="M 1632.8 360 L 1668.2 382.9 L 2426.3 808.9 L 2440.6 930.2 L 2740.7 1139.2 L 2644.2 1396.8 L 2656.6 1515.3 L 2790.4 1591.5 L 2796.7 1645.9 L 2739.1 1772.1 L 2751.1 1835.7 L 2737.4 1935.6 L 2810.5 2066.6 L 2897 2272.8 L 2973.7 2318.5 L 2973.7 2318.5 L 2807.4 2439.8 L 2578.7 2521 L 2453.3 2517.5 L 2378.8 2580.3 L 2233.2 2585.6 L 2178.7 2612.1 L 1927.4 2553.1 L 1770.1 2570.1 L 1711.5 2285.7 L 1640.6 2188.2 L 1598.6 2130.4 L 1393.6 2091.4 L 1274.9 2028.6 L 1142 1993.4 L 1058.7 1958.4 L 971.3 1905.1 L 971.3 1905.1 L 858.4 1641.7 L 737.2 1524.6 L 695.3 1403.3 L 716.2 1294.6 L 678.6 1102.2 L 765.1 1092.3 L 840.9 1016.5 L 922.3 907.5 L 973.9 863.7 L 972 795.8 L 926.9 748.4 L 914.8 666 L 914.8 666 L 975.2 639.6 L 987.3 516.6 L 904.2 398.6 L 977.6 373.5 L 1206.8 376.1 L 1632.8 360 Z" />
<path class="neighbor" d="M 678.6 1102.2 L 716.2 1294.6 L 695.3 1403.3 L 737.2 1524.6 L 858.4 1641.7 L 971.3 1905.1 L 971.3 1905.1 L 889 1883.9 L 608.1 1919.2 L 552.1 1944.2 L 492.5 2077.6 L 539.3 2169.8 L 502.2 2417.4 L 476.3 2627.3 L 532.8 2664.5 L 678.9 2745.8 L 736.3 2707.8 L 753.8 2933.3 L 593.8 2931.6 L 507.9 2816.5 L 430.9 2727.4 L 270.6 2698.2 L 223.7 2588.6 L 95.9 2654.6 L -71.5 2625.5 L -141.4 2530.5 L -274.2 2511.2 L -372.2 2516.3 L -384.2 2451.3 L -456.3 2446 L -551.5 2433.7 L -681 2465 L -771.9 2459.9 L -823.6 2479.1 L -812.5 2230.2 L -882.2 2152.6 L -897.6 2024.1 L -866.7 1898 L -909.1 1817.3 L -913 1685.8 L -1166.7 1687.6 L -1148.5 1612.3 L -1255.1 1613.1 L -1266.4 1649.3 L -1396.1 1657.5 L -1448.5 1779.3 L -1479.9 1831.6 L -1595.4 1802.1 L -1664.4 1831.5 L -1802.7 1848.4 L -1882.7 1739.1 L -1930.8 1671.4 L -1990.8 1546.1 L -2042.4 1390.3 L -2659.4 1387.5 L -2732.7 1412.6 L -2793.3 1408.7 L -2879.6 1436.8 L -2908.9 1371.9 L -2855.7 1349.9 L -2849.2 1258.7 L -2815 1205 L -2738.9 1161 L -2683.9 1182.3 L -2612.4 1102.3 L -2498.5 1104.3 L -2485.1 1163.5 L -2407 1200.6 L -2284 1069.5 L -2162.2 967.4 L -2109.3 900.5 L -2116.3 728.5 L -2025.5 525.3 L -1929.7 417.6 L -1792.1 316.9 L -1768 250.2 L -1762.8 173.5 L -1728.7 100.9 L -1739.7 -17.6 L -1713.6 -202.9 L -1672.8 -333.3 L -1610.1 -445.1 L -1597.7 -571.4 L -1578.9 -717.2 L -1497.5 -823.4 L -1385.6 -890.7 L -1213.5 -819.7 L -1080.3 -742.5 L -927.4 -721.9 L -771.4 -681.1 L -708.9 -807.4 L -680.2 -823.5 L -584.9 -802.5 L -352.1 -906.9 L -269.6 -862.6 L -201.9 -868.9 L -170.5 -919.8 L -92.8 -937.7 L 64.5 -915.7 L 198.6 -910.9 L 267.6 -933 L 394.2 -760.4 L 488.1 -735.1 L 544.1 -770.2 L 640.8 -756.4 L 757.2 -800.7 L 806.9 -711.4 L 991 -572.4 L 991 -572.4 L 978.3 -327.9 L 1062.1 -299.6 L 994.9 -225.4 L 914.6 -169.8 L 834.6 -60.8 L 790.6 36.4 L 778.9 204.3 L 730.4 284.1 L 728.7 441.8 L 668.6 500.1 L 660.8 624.5 L 632.1 640.6 L 612.7 755 L 665.3 850.1 L 678.6 1102.2 Z" />
<path class="neighbor" d="M 914.8 666 L 926.9 748.4 L 972 795.8 L 973.9 863.7 L 922.3 907.5 L 840.9 1016.5 L 765.1 1092.3 L 678.6 1102.2 L 665.3 850.1 L 612.7 755 L 739.7 771.4 L 803.7 652.4 L 914.8 666 Z" />
<path class="neighbor" d="M 1632.8 360 L 1206.8 376.1 L 977.6 373.5 L 904.2 398.6 L 779.3 463.1 L 728.7 441.8 L 730.4 284.1 L 778.9 204.3 L 790.6 36.4 L 834.6 -60.8 L 914.6 -169.8 L 994.9 -225.4 L 1062.1 -299.6 L 978.3 -327.9 L 991 -572.4 L 991 -572.4 L 1077.1 -629.4 L 1210 -582.7 L 1378.3 -631.6 L 1525.4 -631.1 L 1654 -727.3 L 1753.2 -582.1 L 1777.6 -477.2 L 1869.6 -237.2 L 1793.5 -84.8 L 1690.6 53.6 L 1630.7 138.4 L 1632.8 360 Z" />
<path class="lake" d="M 1803 180.5 L 1803 180.5 L 1803 180.5 L 1823 219 L 1819.9 223.3 L 1800 229.3 L 1773.5 230.3 L 1752.9 235.2 L 1748.8 238.5 L 1752.3 258.4 L 1748.4 264.9 L 1741.8 266.3 L 1731.5 257.3 L 1721.7 257.4 L 1710.6 254.4 L 1698.4 253.6 L 1689.5 259.6 L 1669.6 282.5 L 1665.5 296.2 L 1667.3 312.9 L 1675.1 328.2 L 1687 345.2 L 1683.1 357.8 L 1678.3 365.1 L 1667.6 369.9 L 1666.2 377.5 L 1638.7 409.7 L 1632.6 422.1 L 1633.5 428.6 L 1642.9 437.5 L 1640.9 441.4 L 1620.3 441.9 L 1617.1 446.4 L 1617.2 452 L 1614.4 455.2 L 1615.7 459.2 L 1635.3 473.9 L 1636.4 477.8 L 1629.8 477.6 L 1609.2 471.9 L 1596.6 470.8 L 1587.2 472.5 L 1583.5 476.2 L 1578.9 489.8 L 1583.4 496.7 L 1585.1 503.9 L 1569.7 514.9 L 1567.8 529.6 L 1558.1 537.6 L 1546.1 542.3 L 1527.9 540.1 L 1520.4 544 L 1513.1 551.2 L 1506.2 563.2 L 1538.1 561.8 L 1543.7 564.4 L 1546.5 569.6 L 1552.7 575.3 L 1553.5 578.8 L 1530.1 579 L 1522.1 586.3 L 1506.7 584.4 L 1492.5 594.5 L 1491.2 599.6 L 1501.6 605.4 L 1552 613.4 L 1566.1 614.5 L 1601.3 602.8 L 1610 605.3 L 1613.2 612.4 L 1613 619.7 L 1604.3 629.3 L 1568.1 654.3 L 1550.6 669.4 L 1534.3 675.6 L 1536.4 684.6 L 1535.3 688.6 L 1530.8 690.6 L 1487.8 681.7 L 1457.9 665.3 L 1443.6 663.5 L 1432.4 667.4 L 1424.6 673.5 L 1421.4 680.7 L 1419.7 718.4 L 1432.9 750.6 L 1436.1 757 L 1421.3 759.7 L 1397.9 782.6 L 1393.7 785.4 L 1396.5 769.9 L 1394.6 760.8 L 1412 746.2 L 1415 737.9 L 1405 714.8 L 1407.1 693.2 L 1404.3 687.2 L 1391.9 686.9 L 1381.7 684.4 L 1378.1 682.2 L 1375.2 674.8 L 1369.4 671.3 L 1349.4 685.7 L 1346.7 682.8 L 1346.7 676.2 L 1343.8 674.3 L 1326.8 672.4 L 1316.7 667.8 L 1309.4 661.9 L 1301.6 643.1 L 1294 638.6 L 1285 638.7 L 1278.8 644.2 L 1271.1 656 L 1258.7 658.3 L 1254.9 661.9 L 1264.2 681.2 L 1266.2 689.3 L 1262 691.8 L 1241.2 687.4 L 1231.9 693.8 L 1228.2 706.7 L 1230.4 721 L 1235.5 737.7 L 1228.6 736.7 L 1217.6 720.4 L 1213.5 721.8 L 1210.7 726 L 1203.1 727 L 1196.9 746.4 L 1193.3 744.8 L 1189.6 736.3 L 1189.1 724.4 L 1196.1 709.3 L 1186.7 704.4 L 1181 698 L 1179.5 690.3 L 1190 676.8 L 1189.1 671.4 L 1186 662.9 L 1180.2 654.1 L 1172.4 648.1 L 1166.8 637.4 L 1166.9 596.2 L 1164.5 582.9 L 1164.6 565.3 L 1185.3 473.2 L 1195.2 457.9 L 1198.4 445.5 L 1206.6 389.6 L 1205.7 379.5 L 1203.2 373.9 L 1199 373.1 L 1193.9 375 L 1189.4 372.5 L 1186.2 357 L 1183.7 346.9 L 1178.8 336.4 L 1176.8 326.5 L 1196.8 280.2 L 1207 261.9 L 1233.6 228.5 L 1234.9 214.6 L 1229.7 205.6 L 1222.3 199 L 1220.9 194.4 L 1224.4 188.9 L 1241.6 180.2 L 1246.4 173.2 L 1268.1 169.6 L 1278.5 159.5 L 1288.7 162.4 L 1294.7 157 L 1308.2 158.3 L 1315.1 147.5 L 1321.3 142.6 L 1326.3 141.9 L 1328.7 149.6 L 1336.4 150.3 L 1346.2 146.7 L 1352.8 140.6 L 1357.7 120.9 L 1363.4 112.2 L 1370.1 108.5 L 1377.1 121.7 L 1383.6 123.8 L 1376.2 132.7 L 1375.1 136.8 L 1379.4 138.7 L 1388.4 138.7 L 1397.8 136.5 L 1413.1 125.9 L 1418.5 126 L 1422 137.8 L 1426.1 141.4 L 1435.1 138.8 L 1448.3 130.7 L 1458.5 120.9 L 1459.9 111.4 L 1472.6 108.6 L 1485.9 80.2 L 1483.1 71.8 L 1495.1 67 L 1500.9 64.6 L 1509 66.9 L 1520 62.6 L 1520.8 66.7 L 1513.3 84.2 L 1517.8 88.3 L 1540.3 91.5 L 1545.1 95.5 L 1545.3 100 L 1536.2 104.7 L 1537.5 110.2 L 1544.9 115.7 L 1555.3 118.1 L 1565.2 114.9 L 1577.7 98.5 L 1586.1 95.2 L 1592.9 96.9 L 1596.2 113.2 L 1599.6 117.9 L 1623.9 122.6 L 1641.4 115.8 L 1647.7 116.7 L 1647.5 142.8 L 1649.2 156.2 L 1653.6 166.4 L 1659 174.4 L 1665.4 178.2 L 1677.1 177.9 L 1679.2 180.4 L 1675.5 189.2 L 1677.5 195.5 L 1700.1 215.5 L 1712.5 234.6 L 1717.8 235.8 L 1722.8 231.9 L 1726.9 226.9 L 1730.3 212.2 L 1740.7 202.3 L 1765.5 191.4 L 1803 180.5 Z M 1246.1 648.2 L 1246.1 648.2 L 1246.1 648.2 L 1247.4 635 L 1244.1 630.2 L 1229.5 635 L 1213.9 638.9 L 1208.8 634.8 L 1201.4 624.6 L 1196.8 619.6 L 1191.1 628.5 L 1189.4 646.6 L 1201.9 659.2 L 1203.1 674.5 L 1213.9 672.1 L 1217.5 657.4 L 1227.7 656 L 1242.6 652.9 L 1246.1 648.2 Z M 1297.1 243.2 L 1297.1 243.2 L 1297.1 243.2 L 1301.5 231.9 L 1291 222 L 1275.3 230.8 L 1272.3 226.3 L 1272.9 210.5 L 1265.6 209.9 L 1252.8 209.7 L 1248.3 214.5 L 1251.7 222 L 1256.6 228.7 L 1262 231.7 L 1278.3 237.2 L 1277.7 244.4 L 1269.6 253.7 L 1265 263.2 L 1262.5 271.2 L 1291.6 260.1 L 1297.1 243.2 Z M 1480.4 612.8 L 1480.4 612.8 L 1480.4 612.8 L 1482.1 603.8 L 1473.3 594 L 1469 581.9 L 1464.2 572.3 L 1449.6 574 L 1437.9 573.9 L 1433.1 558.9 L 1419.7 559.5 L 1408.3 566.4 L 1411.9 575.1 L 1412.8 592.2 L 1422.7 597.3 L 1441.5 601.5 L 1456.2 607.7 L 1470 612.5 L 1480.4 612.8 Z M 1521.7 116.2 L 1521.7 116.2 L 1521.7 116.2 L 1525.1 104.4 L 1510.3 99 L 1490.7 103.5 L 1490.1 112.5 L 1489.5 121.6 L 1481.6 124.6 L 1482.4 130 L 1499.1 131.3 L 1501 136.1 L 1514.8 144.6 L 1511.9 131.7 L 1510.2 122.8 L 1521.7 116.2 Z" />
<path class="lake" d="M 648.9 505 L 648.9 505 L 648.9 505 L 648.9 505 L 659.7 524.3 L 667.9 550.3 L 682.3 582.8 L 678.2 591.7 L 666.7 599.3 L 661.1 606.7 L 657.7 613.4 L 638.7 637.5 L 630.9 642.9 L 623.6 651.6 L 617.4 653.8 L 606.4 654.8 L 588.8 670 L 576.2 673.2 L 577.6 657.2 L 590.1 639.7 L 587.3 629.7 L 581.5 627.1 L 580.8 618.6 L 582.2 611.5 L 590 596.7 L 588.6 581.2 L 604.9 545.6 L 614.4 505.8 L 622.4 497 L 648.9 505 Z" />
<path class="lake" d="M 695.1 293 L 684.1 295.1 L 677.5 282.1 L 675.9 272.1 L 682.7 255.9 L 694.8 232.2 L 711.3 199 L 732.4 189.4 L 742.1 186.4 L 771.2 186.7 L 793 197.4 L 789 224.6 L 741.9 267.4 L 714.2 289.2 L 702.1 288.2 L 695.1 293 L 695.1 293 L 695.1 293 Z" />
<path class="lake" d="M 985.2 1955 L 983.6 1952.4 L 965.3 1945.6 L 959.1 1941.5 L 957.1 1939.2 L 953.4 1940 L 946.3 1947.7 L 932.6 1955.3 L 928.3 1955.1 L 933.7 1950.3 L 935.6 1946.4 L 935.3 1941.5 L 930.1 1939.4 L 920 1940.1 L 913.7 1938.2 L 910.2 1928 L 912.9 1914 L 916.6 1908.3 L 922.8 1903.4 L 931.4 1899.4 L 936.5 1888.9 L 938 1871.9 L 935.1 1858.1 L 927.9 1847.5 L 921 1841 L 914.5 1838.4 L 909 1833.3 L 899.4 1819.1 L 893.5 1813.7 L 878.2 1807.4 L 874.6 1802.3 L 872 1785.5 L 862.9 1765 L 859.3 1747.6 L 861.3 1741.5 L 860 1724.1 L 847.4 1687.5 L 835.4 1669.7 L 819.3 1655.3 L 801.6 1644.8 L 782.3 1638.2 L 764.7 1624 L 736.3 1587.8 L 719.7 1573.6 L 714.4 1566.4 L 707.9 1548.2 L 708.7 1528.3 L 707.1 1523.5 L 702.4 1524 L 698.8 1522.3 L 696.2 1518.6 L 672.6 1455.8 L 668 1452.6 L 663.9 1443.4 L 659.7 1438.7 L 652.5 1434.4 L 647.9 1423.8 L 645.9 1407.1 L 647.2 1398.1 L 652.3 1393.4 L 676.4 1373.7 L 678.6 1367 L 678.8 1362.8 L 677.2 1345.2 L 679 1339.5 L 685 1338.6 L 685.3 1335.7 L 654.8 1284.4 L 640.3 1256.1 L 631.9 1232.7 L 628.8 1218.1 L 631 1212.2 L 631.4 1147 L 633.5 1120.2 L 638.3 1108.3 L 642.9 1103.1 L 649.9 1104.5 L 649.7 1089 L 660.7 1018.8 L 658.8 1011.3 L 655.1 1012.6 L 653.1 1022.3 L 637.9 1067.7 L 635.3 1069.5 L 620.7 1064 L 619.6 1057.6 L 626.1 1048.9 L 628.3 1040.7 L 626 1032.9 L 625.5 1016.9 L 629.1 975.8 L 632 966.8 L 632 959.3 L 629.1 953.3 L 630.6 945.4 L 636.3 935.7 L 638.3 917.6 L 636.5 891.1 L 637.3 873.9 L 640.5 865.9 L 644.2 861 L 648.5 859.4 L 669.9 862.9 L 676.9 870.1 L 676.7 885.3 L 677.6 927.1 L 679.9 954.6 L 683.7 967.6 L 698.3 992.9 L 698 997.9 L 716.9 1040.1 L 728.6 1060.3 L 739.1 1074.2 L 744 1085.5 L 741.6 1100 L 734.5 1162.6 L 735.9 1181.8 L 733 1185.1 L 734.6 1187.4 L 740.8 1188.7 L 750.6 1194 L 764.2 1203.5 L 773.1 1215.3 L 777.5 1229.7 L 778.2 1238.6 L 775.3 1242.1 L 774.9 1260.5 L 772.3 1261.9 L 769.3 1280.9 L 764.8 1291.6 L 766.1 1304.4 L 777.4 1317.1 L 788.4 1338.6 L 800.6 1368.1 L 806.4 1386.8 L 805.7 1394.7 L 799.1 1403 L 786.6 1411.6 L 778.4 1415.2 L 774.5 1413.7 L 769.7 1416 L 763.9 1422.2 L 759.9 1435.8 L 757.5 1456.9 L 758.5 1466.9 L 763.9 1476 L 779.1 1493.2 L 804.8 1516.1 L 806.1 1520 L 809.3 1520.5 L 821.4 1513.9 L 836.2 1511.5 L 845.3 1513.1 L 851.4 1516.8 L 854.7 1522.5 L 879.2 1544.6 L 891.1 1560.2 L 899.8 1578.6 L 911.7 1594.8 L 927 1608.8 L 934.4 1623.4 L 933.9 1638.6 L 930.2 1646.7 L 925.5 1647.4 L 923.8 1649.1 L 925.7 1659.6 L 937.2 1682.7 L 941.9 1703.5 L 939.7 1722 L 942.9 1738.3 L 951.6 1752.5 L 968.2 1771.6 L 989.2 1815.4 L 1006 1841.9 L 1007.4 1849.7 L 1010.1 1854.6 L 1016.8 1859.3 L 1017.8 1863.1 L 1014.9 1867.8 L 1015.2 1873.8 L 1018.2 1883.8 L 1028.7 1897.4 L 1047 1914.5 L 1055.6 1928.3 L 1054.5 1938.7 L 1057.4 1949.3 L 1064.1 1960 L 1067.2 1970.4 L 1065.2 1986.7 L 1063 1989.2 L 1060.3 1988.5 L 1057.2 1984.5 L 1053.5 1985.6 L 1049.4 1991.7 L 1043.3 1996.3 L 1035.1 1999.5 L 1030.3 1998.5 L 1019.7 1989.9 L 985.2 1955 L 985.2 1955 L 985.2 1955 Z" />
<path class="country" d="M 904.2 398.6 L 987.3 516.6 L 975.2 639.6 L 914.8 666 L 914.8 666 L 803.7 652.4 L 739.7 771.4 L 612.7 755 L 632.1 640.6 L 660.8 624.5 L 668.6 500.1 L 728.7 441.8 L 779.3 463.1 L 904.2 398.6 Z" />

<path class="river" d="M 702.1 288.2 L 732.4 189.4 M 1102.4 -297.3 L 1058.9 -240.5 L 1013.7 -190.5 L 916.6 -97.7" />
<path class="river" d="M 1483 71.8 L 1498 82.2 L 1492.3 99.8 L 1471 128.1 L 1447.6 172.2 L 1422.4 231.9 L 1390.4 275.4 L 1351.8 302.6 L 1295.9 326.4 L 1186.2 357 M 1348.7 -156.9 L 1363.2 -142.8 L 1378 -136.9 L 1397.8 -135.9 L 1409.5 -132.4 L 1421.5 -112.9 M 1285.2 -187 L 1334.2 -163.1" />
<path class="river" d="M 731.6 785.3 L 780.4 798.4 L 795.9 807.6 L 794.6 817.2 L 797.5 822 L 804.8 822.1 L 811.6 827.1 L 821 842 L 814.6 854.4 L 814.6 860.7 L 818.8 864.9 L 838.6 854.5 L 873.9 829.5 L 898.3 806.9 L 911.8 786.8 L 914.8 772 L 907.3 762.4 L 905.3 751.8 L 908.9 740.3 L 927.5 721.5 L 961.1 695.4 L 978.5 676.2 L 979.6 664 L 983.4 655.3 L 989.9 650.3 L 995.4 635 L 999.9 609.5 L 997.4 588.7 L 987.9 572.7 L 985.3 548.3 L 989.6 515.5 L 986.5 488.1 L 976 466.3 L 965.2 453.4 L 948.8 447.3 L 922.9 414 L 914.9 397.8 L 916.4 387.8 L 925.3 383.5 L 941.8 385 L 957.3 381.2 L 971.8 372 L 985.8 369.4 L 999.4 373.2 L 1013.5 383.5 L 1028.2 400.3 L 1051.7 412.2 L 1084.3 419.4 L 1111.3 420.3 L 1132.7 415 L 1145.6 403.4 L 1149.9 385.4 L 1160.6 371.6 L 1186.2 357" />
<path class="river" d="M 782.8 412.3 L 771 400 L 753.2 401.6 L 725.4 413 L 707 416.5 L 698.1 412 L 690.5 403.5 L 684.3 390.8 L 686.4 360.4 L 702.1 288.2 M 732.4 189.4 L 741 137.7 L 735.8 112.5 L 719.8 96.6 L 719.2 80.5 L 733.8 64.4 L 745.7 44.5 L 754.9 21 L 781.8 -0.3 L 826.5 -19.2 L 854.9 -42.2 L 866.8 -69.3 L 883.8 -86.5 L 916.5 -97.7" />
<g class="city"><circle cx="828.8661500000001" cy="569.3987863636364" r="5" /><text x="840.8661500000001" y="573.3987863636364">Kigali</text></g>
<g class="city"><circle cx="682.7994227272728" cy="867.2368681818182" r="5" /><text x="694.7994227272728" y="871.2368681818182">Bujumbura</text></g>
<g class="city"><circle cx="666.0731954545455" cy="134.14511363636367" r="5" /><text x="678.0731954545455" y="138.14511363636367">Butembo</text></g>
<g class="city"><circle cx="653.8990863636366" cy="512.3493772727272" r="5" /><text x="665.8990863636366" y="516.3493772727272">Goma</text></g>
<g class="city"><circle cx="952.5264863636369" cy="286.7020227272727" r="5" /><text x="964.5264863636369" y="290.7020227272727">Mbarara</text></g>
<g class="city"><circle cx="1178.341740909091" cy="230.24559545454548" r="5" /><text x="1190.341740909091" y="234.24559545454548">Masaka</text></g>
<text class="map-title" x="80" y="105">Rwanda Physical Study Map</text>
<text class="map-subtitle" x="80" y="145">Landmark: Volcanoes National Park | Study terrain and water systems</text>
  <text class="footer" x="80" y="1036">Made with Natural Earth. Free vector and raster map data @ naturalearthdata.com.</text>
</svg>
