<?xml version="1.0" encoding="UTF-8"?>
<svg xmlns="http://www.w3.org/2000/svg" width="1600" height="1100" viewBox="0 0 1600 1100" role="img" aria-labelledby="title desc">
  <title id="title">Saudi Arabia Physical Study Map</title>
  <desc id="desc">Made with Natural Earth. Free vector and raster map data @ naturalearthdata.com.</desc>
  <defs>
    <linearGradient id="terrain" x1="0" x2="1" y1="0" y2="1">
      <stop offset="0%" stop-color="#6c8c53" />
      <stop offset="42%" stop-color="#d5c487" />
      <stop offset="72%" stop-color="#b88b5f" />
      <stop offset="100%" stop-color="#f1f5ee" />
    </linearGradient>
    <filter id="softShadow" x="-10%" y="-10%" width="120%" height="120%">
      <feDropShadow dx="0" dy="10" stdDeviation="12" flood-color="#0f172a" flood-opacity="0.16" />
    </filter>
    <style>
      .neighbor { fill: #ffffff; stroke: #94a3b8; stroke-width: 1.2; opacity: 0.72; }
      .country { fill: url(#terrain); stroke: #1f2937; stroke-width: 4; filter: url(#softShadow); }
      .admin1 { fill: none; stroke: #64748b; stroke-width: 1.1; stroke-dasharray: 6 7; opacity: 0.75; }
      .river { fill: none; stroke: #1d9bd1; stroke-width: 3; stroke-linecap: round; opacity: 0.88; }
      .lake { fill: #8ed1ea; stroke: #0ea5e9; stroke-width: 1.5; opacity: 0.8; }
      .city circle { fill: #ef4444; stroke: #ffffff; stroke-width: 2; }
      .city text, .terrain-label { fill: #172033; font: 700 24px system-ui, sans-serif; paint-order: stroke; stroke: #ffffff; stroke-width: 5; stroke-linejoin: round; }
      .map-title { fill: #0f172a; font: 800 46px system-ui, sans-serif; }
      .map-subtitle { fill: #475569; font: 600 24px system-ui, sans-serif; }
      .footer { fill: #64748b; font: 500 18px system-ui, sans-serif; }
    </style>
  </defs>
  <rect width="100%" height="100%" fill="#d8edf0" />
  <rect x="40" y="40" width="1520" height="1020" rx="32" fill="#ffffff" opacity="0.54" />
  <path class="neighbor" d="M 1114.7 88.9 L 1113.6 -18.4 L 1188.5 -35.6 L 1193.9 -33 L 1239 -12.2 L 1262.8 -1.2 L 1290.6 25 L 1324.7 20.8 L 1374.6 18.5 L 1409.4 39.8 L 1407.2 68.9 L 1421.4 69.1 L 1427.3 93 L 1464.3 93.9 L 1472.3 107.7 L 1483.1 107.5 L 1495.8 86.7 L 1534.2 66.4 L 1550.9 61 L 1559.5 63.9 L 1535.1 82.7 L 1556.6 93.7 L 1577.3 86.4 L 1611.8 101.8 L 1574.5 122.7 L 1552.4 119.9 L 1540.4 120.6 L 1536.2 112.5 L 1542.3 99 L 1503.4 105.8 L 1494.1 124.5 L 1480.3 140.5 L 1456 139.2 L 1448.5 152 L 1469.8 158.9 L 1476.1 180.6 L 1459.8 210 L 1437.8 203.9 L 1421.6 203.7 L 1422.4 185.9 L 1383.7 173.4 L 1353.3 159.2 L 1334.3 145.5 L 1301.1 125.4 L 1286.8 95.4 L 1277 90.1 L 1245.6 91.5 L 1234.4 85.5 L 1231.3 62.3 L 1192.1 46.9 L 1167.6 63.8 L 1142.8 73.8 L 1147.5 88.5 L 1114.7 88.9 Z" />
<path class="neighbor" d="M 696.3 1339.5 L 679.1 1315.5 L 678.7 1209.6 L 704.2 1176.6 L 712.1 1167.4 L 730.8 1166.8 L 756.7 1146.3 L 794.6 1145.1 L 876.8 1057.8 L 897.1 1033.5 L 910.2 1015.6 L 910.2 1000.4 L 910.2 971.1 L 910.3 959.1 L 910.5 958.6 L 910.5 958.6 L 919.8 958.1 L 933.2 953.7 L 948.6 950.8 L 962.4 940.8 L 973.4 940.8 L 974.1 948.8 L 971.4 965.7 L 971.5 981 L 965.4 991.5 L 957.2 1023 L 943.2 1055.5 L 925.2 1092.6 L 900.2 1135.2 L 875.4 1167.8 L 841.2 1207.5 L 812.1 1231 L 768.5 1259.9 L 741.4 1282.1 L 709.6 1317.3 L 702.9 1332.6 L 696.3 1339.5 Z" />
<path class="neighbor" d="M 201.3 1051.2 L 179.1 1038.5 L 169 1030.1 L 167.2 1021 L 171.9 1008.9 L 171.8 997.1 L 155 978.9 L 151.7 966.4 L 152.1 959.4 L 141.4 950.8 L 141.1 933.9 L 135 922.7 L 124.7 924.4 L 127.7 913.7 L 135.2 901.6 L 131.9 889.5 L 141.5 880.6 L 135.4 873.8 L 143.1 855.8 L 156.4 834.4 L 181.5 836.4 L 180 721 L 180.4 708.8 L 213.9 708.7 L 213.9 650.6 L 330.8 650.6 L 443.7 650.6 L 559 650.6 L 568.4 679.1 L 562 684.4 L 566.3 714.3 L 576.9 749.1 L 588 756.2 L 604 767 L 589.2 783.6 L 567.8 788.4 L 558.6 797.3 L 555.8 816.6 L 543.2 859.4 L 546.3 871 L 541.7 896 L 529.9 924.7 L 512.3 939.1 L 499.9 961.3 L 496.9 973.2 L 483.2 981.3 L 474.5 1011.8 L 474.9 1037.9 L 474.6 1015.2 L 470.6 1014.7 L 471.1 1000.2 L 467.6 990.2 L 452.6 978.7 L 449.1 957.7 L 452.6 936.3 L 439.1 934.3 L 437.1 940.8 L 419.6 942.3 L 426.6 950.7 L 429.1 968.2 L 413.1 984.2 L 398.7 1005.2 L 383.7 1008.2 L 359.2 991.2 L 348.2 997.2 L 345.2 1005.7 L 330.2 1011.2 L 329.2 1017.2 L 300.3 1017.2 L 296.3 1011.2 L 275.3 1010.2 L 264.8 1015.2 L 256.8 1012.7 L 241.8 995.7 L 236.9 987.7 L 215.9 991.7 L 207.9 1005.2 L 200.4 1031.1 L 190.4 1036.6 L 181.5 1039.8 L 201.3 1051.2 Z" />
<path class="neighbor" d="M 282.9 1138.3 L 273.3 1141.4 L 254.7 1140.7 L 232.8 1137.7 L 222 1140.2 L 217.6 1147.2 L 208.2 1148.1 L 196.7 1141.9 L 164.3 1156.5 L 151.1 1153.5 L 147.1 1155.8 L 138.4 1173.3 L 116.7 1167.7 L 95.4 1164.8 L 76.9 1154.1 L 52.9 1144.2 L 37.3 1153.6 L 26 1168.3 L 23.4 1188.6 L 4.7 1187 L -15 1182.1 L -32.3 1197.5 L -47.6 1224.6 L -50.6 1216.2 L -51.9 1202.9 L -65.2 1193.5 L -76 1178.5 L -78.5 1168.1 L -92.2 1152.9 L -89.9 1144.2 L -92.8 1132 L -90.5 1109.4 L -83.5 1104.1 L -68.9 1074.7 L -44.9 1072.5 L -39.5 1065 L -34.7 1065.6 L -27.4 1072.1 L 9.2 1061 L 21.6 1049.7 L 36.7 1039.5 L 33.8 1029.2 L 42.1 1026.6 L 70.1 1028.4 L 97.5 1014.9 L 118.6 983.2 L 133.3 971.4 L 151.7 966.4 L 155 978.9 L 171.8 997.1 L 171.9 1008.9 L 167.2 1021 L 169 1030.1 L 179.1 1038.5 L 201.3 1051.2 L 217.2 1062.9 L 217.5 1072.4 L 237 1087.5 L 249.2 1100.1 L 256.5 1117.6 L 278.2 1129.1 L 282.9 1138.3 Z" />
<path class="neighbor" d="M 525.7 339.1 L 520.6 348.2 L 510.1 344.2 L 504 363.6 L 511.3 366.8 L 503.9 370.8 L 502.6 378.5 L 516.3 374.5 L 517 385.9 L 502.5 432.4 L 499.6 424.8 L 483.4 382.4 L 483.4 382.4 L 483.4 382.4 L 491.8 372.8 L 489.9 371.2 L 497.6 357.6 L 503.5 335.6 L 507.6 328.3 L 508.4 327.9 L 518.2 328 L 520.8 322.9 L 528.6 322.5 L 529.1 334.4 L 525.1 338.9 L 525.7 339.1 Z" />
<path class="neighbor" d="M 528.6 322.5 L 520.8 322.9 L 518.2 328 L 508.4 327.9 L 518.8 304.3 L 533.2 283.8 L 533.8 282.7 L 546.9 284.2 L 551.6 295.6 L 535.8 306.6 L 528.6 322.5 Z" />
<path class="neighbor" d="M 516.3 374.5 L 502.6 378.5 L 503.9 370.8 L 511.3 366.8 L 504 363.6 L 510.1 344.2 L 520.6 348.2 L 520.6 366 L 516.3 374.5 Z" />
<path class="neighbor" d="M 520.6 348.2 L 525.7 339.1 L 558.1 350.6 L 615.1 319.6 L 626.8 355 L 621.3 359.4 L 563 374 L 592 403.1 L 582.4 408 L 577.6 417.8 L 555.4 421.8 L 548.4 432.3 L 535.8 441.2 L 503.5 436.6 L 502.5 432.4 L 517 385.9 L 516.3 374.5 L 520.6 366 L 520.6 348.2 Z" />
<path class="neighbor" d="M 987 585.3 L 992.2 583.8 L 993.3 591.8 L 1016.1 587.2 L 1040.1 588 L 1057.7 588.9 L 1077.6 569.2 L 1099.3 550.5 L 1117.7 532.6 L 1123.2 542.5 L 1127.2 565.5 L 1112.3 565.6 L 1109.9 584.6 L 1115.1 588.6 L 1101.9 594.3 L 1101.8 606.2 L 1093.4 618.3 L 1092.6 630 L 1086.7 636.1 L 999.3 621.5 L 988.2 592 L 987 585.3 Z" />
<path class="neighbor" d="M 964.7 570.4 L 962.7 549.3 L 970.6 534 L 978.5 530.9 L 987.3 540 L 987.8 557 L 981.5 574.2 L 973.5 576.2 L 964.7 570.4 Z" />
<path class="neighbor" d="M 882.2 418.6 L 888.2 431.4 L 885.7 438 L 895 460 L 874.5 460.7 L 867.2 446.9 L 841.3 444.1 L 862.6 416.1 L 882.2 418.6 Z" />
<path class="neighbor" d="M 626.8 355 L 615.1 319.6 L 679.5 289.3 L 690.5 254.1 L 687.7 232.9 L 703.6 225.7 L 718.6 207.5 L 731 203 L 764.9 206.8 L 775.1 214.2 L 789 209.3 L 807.9 244 L 827 252.7 L 829.2 269.7 L 814.5 279.7 L 807.8 302.4 L 827.9 330.1 L 863.6 346 L 878.5 368.1 L 873.8 389.2 L 883.1 389.2 L 883.3 404.7 L 899.4 420 L 882.2 418.6 L 862.6 416.1 L 841.3 444.1 L 787.2 441.7 L 705.2 383.2 L 661.8 362.9 L 626.8 355 Z" />
<path class="neighbor" d="M 1092.6 630 L 1093.4 618.3 L 1101.8 606.2 L 1101.9 594.3 L 1115.1 588.6 L 1109.9 584.6 L 1112.3 565.6 L 1127.2 565.5 L 1140.2 585.4 L 1156.5 595.9 L 1177.8 599.7 L 1195 605 L 1208.2 621.7 L 1216 631.4 L 1226.4 635.1 L 1226.4 641.5 L 1215.8 658.9 L 1211.1 667 L 1198.9 676.4 L 1188 696.3 L 1174.8 694.8 L 1168.8 701.7 L 1164.1 716.4 L 1167.7 735.9 L 1164.9 739.5 L 1151.5 739.4 L 1133.4 750.2 L 1130.5 764.4 L 1123.9 770.5 L 1105.8 770.3 L 1094.4 777.6 L 1094.5 789.4 L 1080.5 797.5 L 1064.4 794.7 L 1045 804.5 L 1031.5 806.2 L 1022 785.9 L 999.3 737.9 L 1086.5 708.8 L 1105.9 650.6 L 1092.6 630 Z M 1123.2 542.5 L 1117.7 532.6 L 1126.2 522.7 L 1129.8 525.2 L 1127 537.2 L 1123.2 542.5 Z" />
<path class="neighbor" d="M 1750.9 258 L 1722.8 282.5 L 1690.4 286.8 L 1646.2 279.7 L 1632 292.3 L 1642.3 317.8 L 1652.4 337.4 L 1675.9 351.8 L 1651.1 368.6 L 1651.5 389.4 L 1623.3 418.5 L 1605 448.1 L 1574.6 478.6 L 1540.8 476.4 L 1508.8 506.8 L 1527.8 519.9 L 1531.1 542.3 L 1547.5 557.1 L 1553.2 582 L 1489.2 582 L 1469.9 601.4 L 1448.5 594 L 1439.9 573.1 L 1417.4 550.9 L 1363.8 556.4 L 1316.5 557 L 1275.6 561 L 1286.5 527.2 L 1328.5 512.2 L 1326.1 498.8 L 1312.2 494.1 L 1311.3 468.5 L 1283.5 455.7 L 1271.8 438.1 L 1257.4 422.8 L 1306.2 437.7 L 1335.3 433.3 L 1352.7 437 L 1358.6 430.7 L 1378.8 433.2 L 1416.6 421.1 L 1417.6 396.4 L 1433.8 379.9 L 1455.5 380 L 1458.7 371.8 L 1480.9 368 L 1491.7 370.7 L 1503 362.6 L 1501.4 345.1 L 1513.8 327.5 L 1532.3 320.2 L 1520.9 300.9 L 1548.5 301.8 L 1556.5 291.4 L 1555.3 280.2 L 1569.8 268 L 1566.5 253.5 L 1559.6 241.2 L 1576.6 228.5 L 1607.8 222.4 L 1641.2 219 L 1656 213.6 L 1672.9 210.4 L 1694.4 223.9 L 1703 246.3 L 1750.9 258 Z" />
<path class="neighbor" d="M 1421.6 203.7 L 1437.8 203.9 L 1459.8 210 L 1468.7 213.6 L 1489.7 204.2 L 1499.5 209.8 L 1508.9 196.5 L 1526.3 197.1 L 1530.8 192.8 L 1533.8 181.1 L 1546.4 171 L 1562.1 177.6 L 1558.9 186.5 L 1567.7 187.9 L 1565 212.3 L 1576.6 221.9 L 1586.7 215.7 L 1599.6 212.9 L 1617.7 199.8 L 1637.8 202 L 1667.8 202 L 1672.9 210.4 L 1656 213.6 L 1641.2 219 L 1607.8 222.4 L 1576.6 228.5 L 1559.6 241.2 L 1566.5 253.5 L 1569.8 268 L 1555.3 280.2 L 1556.5 291.4 L 1548.5 301.8 L 1520.9 300.9 L 1532.3 320.2 L 1513.8 327.5 L 1501.4 345.1 L 1503 362.6 L 1491.7 370.7 L 1480.9 368 L 1458.7 371.8 L 1455.5 380 L 1433.8 379.9 L 1417.6 396.4 L 1416.6 421.1 L 1378.8 433.2 L 1358.6 430.7 L 1352.7 437 L 1335.3 433.3 L 1306.2 437.7 L 1257.4 422.8 L 1283.8 396.5 L 1281.4 377.7 L 1259.4 372.8 L 1257.1 354.4 L 1247.6 331.1 L 1260 315.2 L 1247.4 310.9 L 1255.4 289.7 L 1267.2 253.5 L 1296.9 264.5 L 1318.8 260.7 L 1324.9 247.5 L 1347.9 243.1 L 1364.3 234.2 L 1370.1 211 L 1394.6 205.4 L 1399.1 195 L 1412.9 202.8 L 1421.6 203.7 Z" />
<path class="neighbor" d="M 1013.9 75.1 L 1026.7 65.4 L 1059.8 59.4 L 1079.4 67.5 L 1099.8 90.3 L 1114.7 88.9 L 1147.5 88.5 L 1142.8 73.8 L 1167.6 63.8 L 1192.1 46.9 L 1231.3 62.3 L 1234.4 85.5 L 1245.6 91.5 L 1277 90.1 L 1286.8 95.4 L 1301.1 125.4 L 1334.3 145.5 L 1353.3 159.2 L 1383.7 173.4 L 1422.4 185.9 L 1421.6 203.7 L 1412.9 202.8 L 1399.1 195 L 1394.6 205.4 L 1370.1 211 L 1364.3 234.2 L 1347.9 243.1 L 1324.9 247.5 L 1318.8 260.7 L 1296.9 264.5 L 1267.2 253.5 L 1264.7 229 L 1243 228 L 1209.7 202.2 L 1186.5 199 L 1154.3 184.3 L 1133.7 181.6 L 1120.9 187 L 1101.4 186.2 L 1080.7 202.8 L 1055.2 208.4 L 1049.8 187.9 L 1054 157.4 L 1031.3 147.6 L 1038.8 127.7 L 1019.5 126 L 1025.9 101.5 L 1053.3 108.6 L 1078.9 99.3 L 1057.7 81.8 L 1049.4 65.2 L 1025.9 72.6 L 1023 93.9 L 1013.9 75.1 Z" />
<path class="neighbor" d="M 899.4 420 L 883.3 404.7 L 883.1 389.2 L 873.8 389.2 L 878.5 368.1 L 863.6 346 L 827.9 330.1 L 807.8 302.4 L 814.5 279.7 L 829.2 269.7 L 827 252.7 L 807.9 244 L 789 209.3 L 789 209.3 L 773.1 186 L 778.8 177 L 769.7 143.6 L 789.7 135.3 L 794.3 146.3 L 809 159.7 L 828.9 163.6 L 839.5 162.7 L 873.8 141.3 L 884.7 139.1 L 893.3 147.7 L 883.2 162 L 901.4 177.3 L 908.6 175.8 L 917.8 197.3 L 945.4 203.3 L 965.6 217.9 L 1007 222.9 L 1052.4 215.3 L 1055.2 208.4 L 1080.7 202.8 L 1101.4 186.2 L 1120.9 187 L 1133.7 181.6 L 1154.3 184.3 L 1186.5 199 L 1209.7 202.2 L 1243 228 L 1264.7 229 L 1267.2 253.5 L 1255.4 289.7 L 1247.4 310.9 L 1260 315.2 L 1247.6 331.1 L 1257.1 354.4 L 1259.4 372.8 L 1281.4 377.7 L 1283.8 396.5 L 1257.4 422.8 L 1271.8 438.1 L 1283.5 455.7 L 1311.3 468.5 L 1312.2 494.1 L 1326.1 498.8 L 1328.5 512.2 L 1286.5 527.2 L 1275.6 561 L 1220.8 552.3 L 1189.1 545.6 L 1156.3 541.8 L 1143.9 506.1 L 1130 501 L 1107.6 506.2 L 1078.3 520.2 L 1042.7 510.6 L 1013.3 488.2 L 985.3 479.9 L 965.9 452.3 L 944.4 413.6 L 928.8 418.3 L 910.3 408.6 L 899.4 420 Z" />
<path class="neighbor" d="M 525.7 339.1 L 525.1 338.9 L 529.1 334.4 L 528.6 322.5 L 535.8 306.6 L 551.6 295.6 L 546.9 284.2 L 533.8 282.7 L 531.1 260.5 L 538.2 248.5 L 546 242.1 L 553.8 235.8 L 555.4 219.5 L 564.9 225.2 L 596.9 217.1 L 612.4 222.6 L 636.3 222.5 L 669.8 211.6 L 685.5 212.1 L 718.6 207.5 L 703.6 225.7 L 687.7 232.9 L 690.5 254.1 L 679.5 289.3 L 615.1 319.6 L 558.1 350.6 L 525.7 339.1 Z" />
<path class="neighbor" d="M 839.5 162.7 L 828.9 163.6 L 817 146.8 L 817.2 142.3 L 804.3 142.3 L 795.7 134.5 L 789.7 135.3 L 778.2 126.8 L 756.6 119.6 L 759.4 105.4 L 754.4 95.2 L 794.9 90.7 L 800.9 98.3 L 812 103.3 L 806.1 110.6 L 821.6 120.6 L 813.4 129.9 L 825.7 137.8 L 838.8 142.6 L 839.5 162.7 Z" />
<path class="neighbor" d="M 251.4 263.7 L 247.7 272.3 L 205.9 274.7 L 206.1 269.9 L 170.7 264.3 L 176 251.9 L 191.9 261.7 L 214.6 260.1 L 236.2 262.1 L 235.5 267.2 L 251.4 263.7 Z M 154.3 88 L 175.8 88.9 L 199.1 80.9 L 219.6 91.1 L 246 88.3 L 246.4 73.8 L 260.5 81.5 L 251.5 99.7 L 244.6 103 L 226.9 102.2 L 211.7 99.4 L 176.5 107 L 196.6 123.3 L 181.9 128.1 L 165.7 128.1 L 150.3 113.1 L 144.8 119.5 L 151.3 136.9 L 165.9 150.5 L 154.9 156.9 L 171.1 170.3 L 185.5 178.7 L 185.9 195.2 L 159 187.5 L 167.6 202.3 L 149.1 205.4 L 160.2 231 L 140.8 231.4 L 117 218.7 L 106.1 195.5 L 101 176.1 L 89.6 162.7 L 74.7 146.2 L 72.8 137.9 L 86.3 123.8 L 88 114.3 L 97.5 110.1 L 98.1 102.5 L 117.1 99.9 L 128.2 93.5 L 144 94.1 L 148.7 89 L 154.3 88 Z" />
<path class="neighbor" d="M 789 209.3 L 775.1 214.2 L 764.9 206.8 L 731 203 L 718.6 207.5 L 685.5 212.1 L 669.8 211.6 L 636.3 222.5 L 612.4 222.6 L 596.9 217.1 L 564.9 225.2 L 555.4 219.5 L 553.8 235.8 L 546 242.1 L 538.2 248.5 L 527.5 235.3 L 538.5 224.4 L 520.8 226.9 L 496.4 220.2 L 476.4 236.9 L 432.3 240.2 L 408.7 224.6 L 377.4 223.6 L 370.7 235.7 L 350.6 239.1 L 322.4 223.6 L 290.7 224.2 L 273.5 195.2 L 252.2 179.1 L 266.4 156.5 L 247.9 142.6 L 280.2 114.7 L 325 113.6 L 337.2 91.5 L 392.6 95.3 L 427.6 76.5 L 461.5 68.2 L 509.6 67.6 L 560.4 88.1 L 602.1 99.4 L 636 94.9 L 661.1 97.5 L 695.4 82.3 L 726.4 80.9 L 754.4 95.2 L 759.4 105.4 L 756.6 119.6 L 778.2 126.8 L 789.7 135.3 L 769.7 143.6 L 778.8 177 L 773.1 186 L 789 209.3 L 789 209.3 Z M 246.4 73.8 L 276 64.7 L 301 68.6 L 304.5 79.8 L 329.9 89.2 L 324.6 96.3 L 290 97.9 L 277.6 106.9 L 253.4 122.5 L 244.2 109 L 244.6 103 L 251.5 99.7 L 260.5 81.5 L 246.4 73.8 Z" />
<path class="neighbor" d="M 836.5 72.8 L 844.7 73.8 L 864.7 91.5 L 877.6 93.5 L 882.6 86.1 L 899.9 74.3 L 915.2 89.7 L 930 110.3 L 943.6 111.7 L 952.5 119.5 L 928.6 121.8 L 923.5 144.4 L 918.5 154.6 L 907.8 161.4 L 908.6 175.8 L 901.4 177.3 L 883.2 162 L 893.3 147.7 L 884.7 139.1 L 873.8 141.3 L 839.5 162.7 L 838.8 142.6 L 825.7 137.8 L 813.4 129.9 L 821.6 120.6 L 806.1 110.6 L 812 103.3 L 800.9 98.3 L 794.9 90.7 L 802 85.9 L 823.7 94.3 L 839.3 96 L 843.3 92.6 L 829 76.8 L 836.5 72.8 Z M 828.9 163.6 L 809 159.7 L 794.3 146.3 L 789.7 135.3 L 795.7 134.5 L 804.3 142.3 L 817.2 142.3 L 817 146.8 L 828.9 163.6 Z" />
<path class="neighbor" d="M 546.3 871 L 543.2 859.4 L 555.8 816.6 L 558.6 797.3 L 567.8 788.4 L 589.2 783.6 L 604 767 L 620.8 800.7 L 628.9 827.4 L 644.8 841.5 L 684.5 869 L 700.7 885.6 L 716.4 902.4 L 725.5 912.4 L 739.8 921.1 L 731.1 928.2 L 718.6 925.7 L 708.7 916.3 L 696.7 899.2 L 683.8 889.9 L 676.3 879.8 L 651 868.2 L 631 867.8 L 624 861.8 L 606.9 868.6 L 589.3 855.4 L 580.2 877.1 L 546.3 871 Z" />
<path class="neighbor" d="M 999.3 737.9 L 1022 785.9 L 1031.5 806.2 L 1010.5 814 L 1004.9 826.9 L 1004.2 836.8 L 975.2 849.1 L 928.7 862.7 L 902.7 883.2 L 889.9 884.8 L 881.1 883.1 L 864.1 895.2 L 845.6 900.8 L 821.2 902.3 L 813.8 903.9 L 807.5 911.6 L 799.9 913.7 L 795.3 921.1 L 780.9 920.5 L 771.7 924.4 L 751.5 923 L 744 906 L 744.8 890.1 L 740 881.5 L 734.3 860 L 726 848 L 731.8 846.6 L 728.8 833.3 L 732.3 827.7 L 731.1 815 L 743.8 805.7 L 740.8 793.5 L 748.5 779.2 L 760.5 786.7 L 768.4 784.1 L 802 783.4 L 807.3 786.3 L 835.4 789.2 L 846.6 787.8 L 853.8 797.5 L 867.4 792.6 L 888.3 762.1 L 915.4 749 L 999.3 737.9 Z" />
<path class="neighbor" d="M 438.8 268.3 L 440.8 268.2 L 445 261.2 L 466 261.6 L 492.4 252.9 L 472.8 265.3 L 474.9 270.7 L 471.8 269.7 L 466.2 271.9 L 461.9 271.3 L 460.4 272.4 L 459.8 269.5 L 457.7 267.7 L 452.1 267.4 L 444.2 269.9 L 438.8 268.3 Z" />
<path class="neighbor" d="M 438.8 268.3 L 444.2 269.9 L 452.1 267.4 L 457.7 267.7 L 459.8 269.5 L 460.4 272.4 L 461.9 271.3 L 466.2 271.9 L 471.8 269.7 L 474.9 270.7 L 475.8 273.1 L 446 284.9 L 431.7 281.1 L 425 269.4 L 438.8 268.3 Z" />
<path class="neighbor" d="M 559 650.6 L 443.7 650.6 L 330.8 650.6 L 213.9 650.6 L 213.9 543.5 L 213.9 440 L 205.1 416.6 L 212.6 398.6 L 208.1 386.2 L 218.7 372.2 L 257.4 371.7 L 285.3 379.4 L 314.2 388 L 327.7 392.6 L 350.1 383.3 L 362.1 375 L 387.7 372.6 L 408.4 376.3 L 416.3 390.7 L 423.1 381.2 L 446.4 388.1 L 469.1 389.7 L 483.4 382.4 L 483.4 382.4 L 499.6 424.8 L 502.5 432.4 L 494.3 444.1 L 488.1 466 L 480.2 481.2 L 473.4 486.3 L 463.7 476.9 L 450.6 463.9 L 429.8 422.2 L 426.8 424.8 L 438.9 455.5 L 456.7 484.8 L 478.7 530.1 L 489.4 545.9 L 498.8 562.3 L 524.9 594.5 L 519.1 599.6 L 520.1 618.5 L 553.9 644.6 L 559 650.6 Z" />
<path class="neighbor" d="M 213.9 650.6 L 213.9 708.7 L 180.4 708.8 L 180 721 L 64 665.3 L -52 609.6 L -81.4 625.5 L -101.9 636.3 L -118.3 620.3 L -164.3 607.8 L -177.1 589.6 L -200.1 576 L -213.7 581.4 L -224 565.1 L -225.1 552.7 L -242.3 531.5 L -230.7 519.3 L -233.3 501 L -229.6 485.1 L -231.7 471.8 L -226.6 448.1 L -228.1 434.6 L -237.6 408.9 L -223.4 402.2 L -220.8 389.9 L -223.9 377.8 L -204 366.6 L -195 357.3 L -180.8 349 L -179.2 326.6 L -145 336.6 L -132.8 334.1 L -108.5 339 L -69.9 352 L -56.3 377.8 L -30.2 383.5 L 10.8 395.7 L 41.8 410.1 L 56 402.6 L 70 389.2 L 63.2 366.9 L 72.3 352.8 L 93.3 339.1 L 113.3 335.2 L 152.6 341.1 L 162.6 354.1 L 173.4 354.2 L 182.7 359.2 L 211.6 362.6 L 218.7 372.2 L 208.1 386.2 L 212.6 398.6 L 205.1 416.6 L 213.9 440 L 213.9 543.5 L 213.9 650.6 Z" />
<path class="neighbor" d="M 876.8 1057.8 L 794.6 1145.1 L 756.7 1146.3 L 730.8 1166.8 L 712.1 1167.4 L 704.2 1176.6 L 684.3 1176.6 L 672.6 1166.7 L 646 1178.9 L 637.4 1191 L 618 1188.7 L 611.5 1185.4 L 604.7 1186.2 L 595.5 1185.9 L 558.7 1161.2 L 538.5 1161.2 L 528.5 1151.6 L 528.5 1135.3 L 513.4 1130.4 L 496.2 1098.7 L 482.9 1092 L 477.8 1080.4 L 463.1 1066.2 L 445.2 1064.1 L 455.1 1047.5 L 470.6 1046.8 L 474.9 1037.9 L 474.5 1011.8 L 483.2 981.3 L 496.9 973.2 L 499.9 961.3 L 512.3 939.1 L 529.9 924.7 L 541.7 896 L 546.3 871 L 580.2 877.1 L 589.3 855.4 L 606.9 868.6 L 624 861.8 L 631 867.8 L 651 868.2 L 676.3 879.8 L 683.8 889.9 L 696.7 899.2 L 708.7 916.3 L 718.6 925.7 L 708.4 938.6 L 698.5 952.2 L 700.8 960.2 L 701.3 969.1 L 717.5 969.6 L 724.5 967.5 L 731 972.7 L 724.6 983 L 735.4 999 L 746.1 1013 L 757.2 1023.4 L 852.3 1057.9 L 876.8 1057.8 Z" />
<path class="neighbor" d="M 718.6 925.7 L 731.1 928.2 L 739.8 921.1 L 746.7 930.1 L 745.8 942.2 L 729.2 949.2 L 741.7 957.1 L 731 972.7 L 724.5 967.5 L 717.5 969.6 L 701.3 969.1 L 700.8 960.2 L 698.5 952.2 L 708.4 938.6 L 718.6 925.7 Z" />
<path class="neighbor" d="M 910.5 958.6 L 910.5 958.6 L 910.3 959.1 L 910.2 971.1 L 910.2 1000.4 L 910.2 1015.6 L 897.1 1033.5 L 876.8 1057.8 L 852.3 1057.9 L 757.2 1023.4 L 746.1 1013 L 735.4 999 L 724.6 983 L 731 972.7 L 741.7 957.1 L 751.2 962.5 L 756.9 974.5 L 770 986.7 L 784.4 986.8 L 811.9 979.4 L 843.5 975.9 L 869.1 966.9 L 883.5 965 L 893.9 959.6 L 910.5 958.6 L 910.5 958.6 Z" />
<path class="neighbor" d="M 383.6 1188.5 L 358 1169.1 L 351 1156.7 L 334.8 1162.9 L 321.4 1161 L 313.6 1165.8 L 300.5 1162.3 L 282.9 1138.3 L 278.2 1129.1 L 256.5 1117.6 L 249.2 1100.1 L 237 1087.5 L 217.5 1072.4 L 217.2 1062.9 L 201.3 1051.2 L 181.5 1039.8 L 190.4 1036.6 L 200.4 1031.1 L 207.9 1005.2 L 215.9 991.7 L 236.9 987.7 L 241.8 995.7 L 256.8 1012.7 L 264.8 1015.2 L 275.3 1010.2 L 296.3 1011.2 L 300.3 1017.2 L 329.2 1017.2 L 330.2 1011.2 L 345.2 1005.7 L 348.2 997.2 L 359.2 991.2 L 383.7 1008.2 L 398.7 1005.2 L 413.1 984.2 L 429.1 968.2 L 426.6 950.7 L 419.6 942.3 L 437.1 940.8 L 439.1 934.3 L 452.6 936.3 L 449.1 957.7 L 452.6 978.7 L 467.6 990.2 L 471.1 1000.2 L 470.6 1014.7 L 474.6 1015.2 L 474.9 1037.9 L 470.6 1046.8 L 455.1 1047.5 L 445.2 1064.1 L 463.1 1066.2 L 477.8 1080.4 L 482.9 1092 L 496.2 1098.7 L 513.4 1130.4 L 493.7 1149.6 L 475.8 1166.9 L 457.9 1180.3 L 437.5 1180.2 L 414 1187 L 395.5 1180.5 L 383.6 1188.5 Z" />
<path class="lake" d="M 571.2 947.5 L 570.3 946.7 L 569.1 946.7 L 567.9 946.8 L 567.2 946.3 L 566.2 945.7 L 565.7 946.1 L 565.2 946.4 L 564.6 946.3 L 564.1 945.8 L 563.6 945 L 563 944.2 L 563.1 942.3 L 563.2 940.6 L 563.4 939 L 563.7 936.7 L 564.3 935.4 L 565 934.4 L 565.7 933.8 L 566.6 933.6 L 567.7 933.9 L 568.6 934.8 L 569.3 934.8 L 570.8 935 L 572.6 933.6 L 573.9 933.1 L 575 933 L 576.3 932.7 L 577.4 933.2 L 578.3 933.9 L 579.1 935 L 579.4 936.7 L 580.1 938.1 L 579.9 939 L 579.9 940.1 L 579.7 941 L 579.2 941.9 L 578.9 943.2 L 577.9 944.1 L 577.5 945.1 L 577.4 946.3 L 575.7 948.7 L 574.2 952.2 L 573.4 952.1 L 572.9 952.2 L 572.4 952.1 L 572.2 951.7 L 571.7 951.1 L 572.3 949.9 L 571.9 949 L 571.3 948.1 L 571.2 947.5 L 571.2 947.5 L 571.2 947.5 Z" />
<path class="lake" d="M 745.1 309.4 L 743.2 307.6 L 740.6 304 L 739.6 298.2 L 739.4 294 L 739.9 292.3 L 740.8 291.9 L 744.4 297.4 L 748 300.3 L 751.1 302.9 L 751.8 304.8 L 751.3 307.1 L 751.4 309.4 L 749.7 310 L 747.1 309.7 L 745.1 309.4 L 745.1 309.4 L 745.1 309.4 L 745.1 309.4 Z" />
<path class="lake" d="M 763 339.7 L 762.6 341.9 L 760.5 344.1 L 759 344.2 L 756.9 343.6 L 755.8 342.8 L 754.3 342.4 L 751.5 341 L 750.2 338.9 L 749.8 336.1 L 750.1 334.4 L 750.6 334.1 L 751.3 332.9 L 751.1 330.3 L 752.2 328.9 L 753.5 328.3 L 754.4 329.4 L 758.4 336.2 L 761.3 338.4 L 763 339.7 L 763 339.7 L 763 339.7 L 763 339.7 Z" />
<path class="lake" d="M 521.8 367.7 L 521.2 372.1 L 520.6 378.3 L 519.9 379.3 L 517.1 379.3 L 516.5 378.6 L 516.5 374.4 L 517 370.8 L 518.2 368.1 L 519.9 366.8 L 521 366.5 L 521.8 367.7 L 521.8 367.7 L 521.8 367.7 L 521.8 367.7 Z" />
<path class="lake" d="M 815 192.7 L 815 192.7 L 815 192.7 L 815 192.7 L 817.4 193.8 L 817.4 195 L 817.6 197.4 L 820.6 201.8 L 819.8 204.3 L 816.1 205.4 L 814.9 205.9 L 813.5 208.1 L 811.2 210.3 L 808.7 209.9 L 806.3 207.6 L 804.2 201.5 L 803.1 196.3 L 803 194.3 L 802.5 192 L 798.2 188.5 L 798 185.5 L 800.2 183.8 L 801.1 182 L 800.6 181 L 798.3 181.1 L 796.1 180.9 L 796.4 179.5 L 798.7 177.5 L 806 177.5 L 809 180.1 L 809.8 183 L 808.7 187.1 L 808.3 190.8 L 809.7 192.3 L 811.5 192.3 L 815 192.7 Z" />
<path class="lake" d="M 459.9 160.3 L 461.8 161.5 L 464 161.9 L 466.2 164.4 L 464.5 168.3 L 462.1 169.9 L 458.9 168.9 L 456 167.4 L 453.4 165.8 L 451.2 162.7 L 452.9 159.7 L 455.1 157 L 455.6 154.4 L 455.5 152.4 L 456.8 152.6 L 458.9 154.4 L 459.8 156.3 L 459.4 157.9 L 459.9 160.3 L 459.9 160.3 L 459.9 160.3 Z" />
<path class="lake" d="M 737.1 175.1 L 735.2 173.8 L 734.9 172.7 L 734 171.3 L 733.3 171.1 L 731.1 171.8 L 728.3 171.9 L 725.4 171.1 L 724 170.9 L 718.7 170.6 L 719 169.2 L 721 167.4 L 721.7 166.4 L 721.7 165 L 723.7 163.5 L 729.4 162.4 L 733 162 L 735.6 162 L 739.8 161.6 L 742.2 160.5 L 742.1 159.9 L 741.2 159.5 L 740 159.5 L 739.7 158.5 L 741.9 157.6 L 745.8 157.1 L 750.2 156.4 L 753.8 156.7 L 755.2 157.6 L 752.9 159 L 748.6 160.8 L 746 161.5 L 743.6 164.3 L 742.9 167.6 L 745.8 169.2 L 746.7 170.9 L 744.3 173.3 L 741.8 175.4 L 740 175.7 L 737.1 175.1 L 737.1 175.1 L 737.1 175.1 Z" />
<path class="lake" d="M 871.5 397.8 L 870.5 398.6 L 868.1 398.6 L 865.7 398.1 L 861 397.2 L 856.8 396.3 L 855 396.3 L 852.5 396.5 L 850.3 396.7 L 849.5 396.9 L 848.7 396.8 L 848.2 396.4 L 848.1 395.6 L 848.1 395 L 847.8 394.5 L 847 394.1 L 846.6 393.9 L 845.6 393.5 L 845.4 392.6 L 846.5 391.6 L 848 391.3 L 848.5 391.3 L 849.8 391.2 L 850.8 391.7 L 851.7 391.9 L 853.3 392.9 L 855.7 393.8 L 856.8 393.8 L 858.1 394.2 L 859.5 394.6 L 862.3 395.4 L 864.2 395.1 L 866.3 394.2 L 867.6 394.2 L 868.4 394.3 L 868.5 394.7 L 869.3 395.5 L 871 397.1 L 871.5 397.8 L 871.5 397.8 L 871.5 397.8 L 871.5 397.8 Z" />
<path class="lake" d="M 721.4 950.9 L 721.2 952 L 720.5 952.3 L 720 951.8 L 719.9 951 L 720 950.4 L 720.3 949.9 L 721.1 950.3 L 721.4 950.9 L 721.4 950.9 L 721.4 950.9 Z" />
<path class="lake" d="M 520 383.6 L 519.8 384.3 L 519.5 385.1 L 519.2 385.7 L 518.1 386 L 516.9 385.7 L 516.1 384.8 L 515.7 383.6 L 515.9 382.5 L 516.4 382.1 L 517.7 382 L 519.1 382.8 L 520 383.6 L 520 383.6 L 520 383.6 L 520 383.6 Z" />
<path class="lake" d="M 523.1 336.9 L 522.7 337.9 L 521.5 338.7 L 520.8 337.9 L 520.3 336.3 L 520.4 334.8 L 521.2 333.7 L 522.2 333.5 L 522.9 334.1 L 523.2 335.4 L 523.1 336.9 L 523.1 336.9 L 523.1 336.9 L 523.1 336.9 Z" />
<path class="lake" d="M 424.3 631 L 422.4 630.8 L 421.2 630.6 L 420.3 630.7 L 419.1 631.2 L 418.1 632.1 L 417.1 633.1 L 416.4 633.9 L 416.1 635 L 415.6 636.6 L 414.5 637.7 L 413.3 638.5 L 412.6 639.5 L 412.4 640.4 L 411.4 640.2 L 410.1 640 L 409.2 640.4 L 408.6 640.9 L 408.1 641.1 L 407.7 641.2 L 407.2 641.5 L 407 641.9 L 407.2 642.6 L 406.6 643.5 L 404.5 644.5 L 402.5 645.9 L 401.2 647.6 L 400.4 648.9 L 399.8 651 L 398.7 654.1 L 397.7 656 L 397 656.8 L 395.9 657.5 L 394.3 659.1 L 392.9 660.8 L 392 661.9 L 391 662 L 391.6 660.1 L 393.3 657.9 L 395.3 655 L 397.2 652.6 L 398.2 650.3 L 399.2 647.6 L 401.5 644.5 L 405.6 640.7 L 408.3 638.1 L 408.9 637.4 L 409.9 636.9 L 411.2 636.5 L 410.3 635 L 408.1 633 L 408 632.4 L 409.6 633 L 411.5 634 L 412.4 634.1 L 412.9 633.6 L 413.5 632.7 L 414.1 632 L 414.9 631.4 L 416.5 630.3 L 418.2 629.2 L 419.3 628.7 L 420.1 628.4 L 421.3 627.9 L 422.3 627.7 L 423 627.9 L 424 628.2 L 426 629.6 L 427.3 630.5 L 429.5 630.4 L 432 628.5 L 432.8 627.5 L 433.3 626.5 L 433.8 624.4 L 434.4 623.6 L 435.3 622.4 L 436 621.4 L 436.9 619.2 L 437.8 617.1 L 439 614.8 L 440.4 613.6 L 441.3 613.4 L 441.7 613 L 442 612.2 L 442.4 611.5 L 442.2 610.4 L 442.3 608.7 L 441.9 607.4 L 440.4 606.9 L 439.1 606.5 L 438 607.1 L 436.7 607.8 L 435.6 607.6 L 434.9 607.1 L 436.4 606 L 438 604.9 L 437.8 604.4 L 437.1 604.2 L 436.7 604.6 L 436.3 605 L 435.6 604.4 L 436.5 603.1 L 439 603.3 L 440.7 604.5 L 441.8 603.5 L 442.3 601.8 L 442 600.9 L 442.2 600.2 L 442.8 599.4 L 442.9 598.5 L 442.6 597.4 L 441.6 596.1 L 441.4 595 L 443.1 592.8 L 444.6 594.1 L 445 598.5 L 446.2 601.3 L 446 602.4 L 445.1 602.8 L 444.3 603 L 443.9 603.7 L 444 604.5 L 444.4 605 L 444.9 605.1 L 445.2 605.3 L 446.2 606.1 L 446.7 606.7 L 445.1 606.7 L 444.3 607.4 L 444.9 609 L 446 610 L 446.3 610.7 L 446.4 611.7 L 446.8 612.8 L 446.8 613.9 L 446.8 614.6 L 446.4 614.8 L 445.3 614.5 L 444.3 614.2 L 444.5 615.5 L 444 616.8 L 442.6 616.9 L 442.3 617.4 L 442.4 618.1 L 442.8 618.9 L 443.9 620 L 444.9 621.4 L 446.3 622.8 L 445.8 623.4 L 442.5 622.1 L 440.3 620.4 L 439.1 620.5 L 439 621.3 L 438.5 622.3 L 438 623 L 437.6 623.3 L 436.7 623.8 L 435.9 624.2 L 435.5 624.5 L 435.3 625.3 L 435.1 626.6 L 434.5 627.8 L 432.5 629.5 L 430 631.6 L 428.2 633 L 427.1 633.7 L 427 634.6 L 426.1 635.1 L 424.9 635 L 424.7 634.7 L 425.3 634.2 L 426.2 633.4 L 426.1 632.8 L 425.6 632.5 L 424.9 631.9 L 424.4 631.4 L 424.3 631 L 424.3 631 L 424.3 631 L 424.3 631 Z" />
<path class="lake" d="M 754.8 321.7 L 754.8 321.7 L 754.8 321.7 L 754.8 321.7 L 753.9 324.2 L 751.5 325.1 L 750.1 324.8 L 749.2 323.1 L 746.3 321.6 L 746.4 320.4 L 748.6 317.9 L 749.9 319.3 L 751.4 320.8 L 753.6 320.5 L 754.8 321.7 Z" />
<path class="country" d="M 503.5 436.6 L 535.8 441.2 L 548.4 432.3 L 555.4 421.8 L 577.6 417.8 L 582.4 408 L 592 403.1 L 563 374 L 621.3 359.4 L 626.8 355 L 661.8 362.9 L 705.2 383.2 L 787.2 441.7 L 841.3 444.1 L 867.2 446.9 L 874.5 460.7 L 895 460 L 906.4 485.1 L 920.7 491.7 L 925.7 501.9 L 945.5 514.2 L 947.3 526.2 L 944.4 535.9 L 948.1 545.6 L 956.4 553.8 L 960.3 563.3 L 964.7 570.4 L 973.5 576.2 L 981.5 574.2 L 987 585.3 L 988.2 592 L 999.3 621.5 L 1086.7 636.1 L 1092.6 630 L 1105.9 650.6 L 1086.5 708.8 L 999.3 737.9 L 915.4 749 L 888.3 762.1 L 867.4 792.6 L 853.8 797.5 L 846.6 787.8 L 835.4 789.2 L 807.3 786.3 L 802 783.4 L 768.4 784.1 L 760.5 786.7 L 748.5 779.2 L 740.8 793.5 L 743.8 805.7 L 731.1 815 L 727.3 802.6 L 718.5 793.8 L 716.3 782.2 L 701.2 771.8 L 685.7 747.4 L 677.5 723.7 L 657.4 703.7 L 644.4 698.9 L 625.2 671.2 L 621.8 651 L 623 633.7 L 606.4 601.5 L 592.7 590.1 L 577 584.1 L 567.4 567.4 L 569 560.9 L 560.9 545.8 L 552.4 539.3 L 541.1 517.6 L 523.4 494.2 L 508.5 474.2 L 494.1 474.3 L 498.6 458.4 L 499.9 448.2 L 503.5 436.6 Z" />

<path class="river" d="M 566.2 945.7 L 567.3 944.6 L 568.7 944.2 L 570.6 944.3 L 572.3 946.3 L 574.2 952.2" />
<path class="river" d="M 608.3 247.3 L 602.7 246.1 L 599.2 244.7 L 596.1 242.7 L 594.3 241.2 L 593.9 240 L 594.7 238.5 L 596.6 236.6 L 597.5 235.1 L 597.4 233.4" />
<path class="river" d="M 531.6 856.1 L 530.9 858.2 L 530.8 865.3" />
<path class="river" d="M 486.7 947.8 L 487.6 952 L 490.5 955.5 L 498.3 961.9" />
<path class="river" d="M 614.4 161.5 L 615.7 159.7 L 613.5 153.8" />
<path class="river" d="M 517.1 379.3 L 518.3 372.4 L 519.3 369.2 L 521 366.5 M 522.2 333.5 L 521.5 338.7" />
<path class="river" d="M 443.1 592.8 L 443.9 598 L 443.8 601.2 L 442.8 604.3 L 443 607.5 L 443.7 609.4 L 444.1 611.8 L 442.4 615.5 L 437.3 621.2 L 434.6 625.1 L 434.2 627.1 L 432.4 629.1 L 429.7 631 L 427 631.6 L 424.2 629.7 L 421.5 629.2 L 418.7 630.2 L 416.3 632.3 L 414.4 635.3 L 409.8 639.1 L 404.2 643.3 L 400 647.9 L 398.9 651.2 L 396.5 655.1 L 391 661.9" />
<path class="river" d="M 433.8 412.6 L 427.9 405.5" />
<path class="river" d="M 568.1 969.5 L 563.6 965 L 562.4 962.2 L 563.4 958.5 L 564.4 953.7 L 565.7 951.5 L 567.8 950.2 L 568.2 948.6 L 566.2 945.7" />
<path class="river" d="M 574.2 952.1 L 574.4 954 L 576 955 L 579.2 955.9 L 582.7 958.3 L 586.6 962.2 L 592.6 965.2 L 600.8 967.2 L 605.5 969.5 L 606.6 972 L 607 977.2 L 606.7 985 L 605.9 990.5 L 604.8 993.9 L 603 995.7 L 600.4 996.1 L 595.2 998.3 L 587.3 1002.2 L 582.1 1003 L 579.6 1000.7 L 577.2 999.1 L 574.8 998.2 L 573.2 998.1 L 572.5 998.7 L 571.9 998.5 L 571.5 997.4 L 570.6 996.6 L 569.1 996 L 568.4 994.9 L 568.6 993.1 L 567.6 991.9 L 564.3 990.9 L 553.5 989.2 L 549.6 987.9 L 548.8 986.5 L 547.9 986 L 546.9 986.4 L 545.3 988.7 L 543.2 992.9 L 539.9 995.1 L 535.4 995.5 L 532.6 996.4 L 531.3 998 L 529.5 998.6 L 527.1 998.4 L 525.9 998.8 L 525.8 999.4 L 525.7 999.7 L 525.3 999.8 L 523 999.2 L 515.5 995.6 L 515 995.1" />
<path class="river" d="M 608.3 247.3 L 618.7 245.9 L 627.7 246.8 L 638.9 249.6 L 645.4 252.5 L 647 255.6 L 650.3 258.7 L 655.4 261.9 L 657.9 263.8 L 657.7 264.4 L 658.8 265.1 L 661.2 265.9 L 662.5 267.5 L 662.9 270.1 L 664 272 L 665.8 273.1 L 667.2 274.8 L 668.2 277.1 L 670.9 279.6 L 675.1 282.2 L 677.2 284.6 L 677.2 286.8 L 677.7 288.2 L 679.1 289 M 592.8 219 L 593.7 221.8 L 595 223.1 L 597.1 224 L 598.7 225.3 L 599.9 227.1 L 599.8 229.3 L 597.4 233.4" />
<path class="river" d="M 1470.9 213.6 L 1466.7 215.7 L 1463.5 215 L 1459.9 212.4 L 1457.9 210.2 L 1457.5 208.4 L 1456 207.6 L 1453.3 207.8 L 1451.5 207.4 L 1450.7 206.5 L 1448.5 206.7 L 1444.9 208.1 L 1441.3 207.4 L 1437.6 204.5 L 1430.6 203.4 L 1420.3 204.2 L 1409.7 202.2 L 1398.9 197.3 L 1391.4 194.4 L 1387.2 193.5 L 1383.9 191 L 1381.3 187 L 1374.8 182.6 L 1364.3 177.9 L 1356.3 172.6 L 1350.6 166.5 L 1347 161.9 L 1345.6 158.8 L 1340.3 154.6 L 1331.3 149.3 L 1325 146.4 L 1321.6 146.1 L 1319.7 144.4 L 1319.2 141.5 L 1316.3 138.4 L 1310.8 135 L 1306.8 131.5 L 1303 125.9 L 1301.1 117.3 L 1298.8 113.4 L 1295.7 111.2 L 1292.9 107.1 L 1290.7 101 L 1288.8 97 L 1287.4 95.2 L 1284.4 93.1 L 1279.8 90.9 L 1275.5 89.8 L 1271.5 90 L 1268.7 89.1 L 1267.3 87.4 L 1262 83.7 L 1252.7 78.1 L 1247.3 73.9 L 1246 71.1 L 1244.2 69.4 L 1242 68.8 L 1240.5 67.6 L 1239.7 65.9 L 1237.9 64 L 1235 62 L 1230.5 60.3 L 1224.6 58.9 L 1220 56.7 L 1216.7 53.8 L 1214.2 52.1 L 1212.3 51.6 L 1211.6 50.4 L 1212.2 48.5 L 1211.6 47.1 L 1209.8 46.3 L 1209 45.3 L 1209.4 44 L 1208.8 42.5 L 1207.4 40.7 L 1207 39 L 1207.3 37.2 L 1207 35.3 L 1205.9 33 L 1205.6 31.3 L 1205.7 31.1 M 1205.8 31.2 L 1205.7 31.1 M 1205.7 31.1 L 1206.2 30.2 L 1205.8 28.7 L 1204.4 26.7 L 1204 25.2 L 1204.3 24.2 L 1206 23.4 L 1208.8 22.8 L 1210.3 21.3 L 1210.5 18.9 L 1209 16.3 L 1206 13.5 L 1205.3 11.4 L 1206.8 10.1 L 1210.3 8.7 L 1218.6 6.3 M 1205.7 31.1 L 1203 27.4 L 1202.7 24.4 L 1203.9 21 L 1203.5 18.4 L 1201.5 16.7 L 1198 15.3 L 1192.9 14.3 L 1190.4 12.1 L 1190.5 8.6 L 1188.7 4.7 L 1183 -1.8" />
<path class="river" d="M 521.7 825.1 L 515 816 L 512.7 812.2 L 512.6 810.5 L 510.3 806.7 L 505.8 800.9 L 503.4 797.1 L 503.2 795.5 L 498 792 L 487.9 786.8 L 482.3 782.9 L 481.1 780.3 L 479.2 778.4 L 474.3 775.7 M 521.8 825 L 522.6 833.4 L 525.5 840.6 L 530.9 849.3 L 532.4 852.9 L 532.6 854.2 L 531.6 856.1" />
<path class="river" d="M 374.9 1064.6 L 377.4 1056.9 L 378.1 1051.7 L 377.9 1046.2 L 378.8 1042.8 L 380.6 1041.5 L 382.1 1039.2 L 383.4 1035.8 L 383.7 1032.5 L 383.1 1029.2 L 385.2 1024.7 L 392.4 1016.4" />
<path class="river" d="M 392.7 1091.9 L 386.1 1087.4 L 381.7 1082.5 L 377.2 1075.6 L 375.2 1071.8 L 375.6 1071.1 L 375.3 1070 L 374.2 1068.5 L 374.1 1066.8 L 374.9 1064.7 L 374.1 1061.3 L 371.7 1056.8 L 369.9 1054.2 L 368.9 1053.7 L 368.7 1051.2 L 369.4 1046.7 L 369.2 1043.7 L 367.9 1042.3 L 367.6 1040.7 L 368.1 1038.8 L 367.7 1037.4 L 366.5 1036.3 L 365.7 1034 L 365.1 1030.7 L 366.1 1027.5 L 368.5 1024.5 L 369.5 1021.9 L 369 1019.7 L 370.1 1017.3 L 372.7 1014.5 L 377.3 1013.3 L 383.9 1013.6 L 388.4 1014.4 L 392 1016.2" />
<path class="river" d="M 393.1 413.5 L 390.7 408.4 L 391.5 405.7 L 394.5 403.1 L 395.7 399.7 L 395 395.6 L 394.9 392.6 L 395.5 390.8 L 397.4 388.2 L 400.6 385 L 403.2 383.4 L 405.2 383.2 L 407.9 380.7 L 412.8 373.5" />
<path class="river" d="M 639.8 173.1 L 650.7 175 L 650.9 176.3 L 652.2 177.3 L 654.6 178.7 L 655.4 179.9 L 654.6 181.2 L 655.2 182.1 L 657 182.5 L 657.8 184.5 L 657.5 188 L 662.6 190 L 678.4 190.9 L 683.8 192.2 L 689.7 192.6 L 697.9 192.5 L 702.6 193.6 L 703.7 195.9 L 704.1 198.1 L 703.7 200.2 L 705 201.4 L 707.8 201.6 L 711.1 202.7 L 714.9 204.9 L 717.5 207.6 L 719.3 212.4" />
<path class="river" d="M 392 1016.2 L 398.5 1018.1 L 401.6 1018.5 L 403.5 1017.8 L 405.3 1015.8 L 407 1012.4 L 410.1 1009.6 L 414.5 1007.5 L 418.5 1004.5 L 422.1 1000.6 L 424.3 997.6 L 425.2 995.4 L 425.3 992.5 L 424.6 988.9 L 423.3 987 L 421.5 986.7 L 420.6 986 L 420.6 984.8 L 424.5 980.6 L 432.4 973.2 L 436.3 967.6 L 436.2 963.6 L 437.1 958.5 L 438.9 952.4 L 439.7 947.4 L 439.3 941.6 L 438.7 936 L 439.1 931.8 L 440.3 927.3 L 440.5 922.5 L 439.7 917.6 L 439.8 914.2 L 440.6 912.3 L 439.4 909 L 436 904.3 L 434.5 900 L 435 896.1 L 434.6 893.8 L 433.1 893.1 L 432 891.9 L 431.5 890.2 L 430.2 888.4 L 428.3 886.6 L 426.1 882.4 L 423.4 875.6 L 422.5 869.8 L 423.2 864.8 L 425.1 860.5 L 428.2 857.1 L 430.3 850.4 L 431.7 835.8" />
<path class="river" d="M 515 995.1 L 514.7 994.2 L 513.3 987.7 L 511.8 984.6 L 509 983 L 510 971.3 L 509.4 966.5 L 507.6 964.7 L 504.6 963.3 L 498.3 961.9 M 486.7 947.8 L 485.1 940.1 L 484.9 935.8 L 485.6 932.5 L 484.4 929.8 L 481.4 927.6 L 480.2 925.9 L 480.8 924.8 L 480.8 923 L 480.1 920.3 L 479.1 918.1 L 477.6 916.4 L 476.8 916.1 L 475.7 915.2 L 475.1 913.6 L 474.5 908.2 L 473.6 904.9 L 472.5 903.7 L 470.6 902.9 L 468.2 902.7 L 466.7 901.3 L 466.1 898.8 L 465.2 897 L 463.8 895.7 L 463.5 894.4 L 464.2 892.9 L 464.1 891.8 L 463.4 891 L 463.5 890.4 L 463.9 889.9 L 464 889.3 L 463.5 888.6 L 463.3 888 L 463.5 887.5 L 463.9 887.2 L 464.1 886.6 L 463.8 885.1 L 464.3 883 L 465.7 880.1 L 463 873.3 L 456.4 862.5 L 452.7 855.5 L 452.1 852.4 L 450.5 849.6 L 447.9 847.1 L 445.1 845.4 L 442 844.3 L 438.9 841.9 L 435.8 838.1 L 433.6 836.1 L 431.7 835.8" />
<path class="river" d="M 809.1 379.9 L 811.4 382.1 L 815.6 383.4 L 822.5 384.5 L 828.3 386.3 L 835.3 389.8 L 838.8 391.6 L 841.6 391.6 L 844.9 390.5 L 850.5 390 L 858.5 390.1 L 863.5 389.7 L 865.4 388.8 L 866.7 388.6 L 867.5 389.7 M 679.1 289 L 682.8 290.2 L 684.4 290.1 L 685.3 289 L 687.3 288.6 L 690.3 289 L 691.8 288.8 L 692.3 288.7 L 693 288.4 L 693.9 288.8 L 696.5 288.5 L 700.2 287 L 703.4 286.7 L 706.1 287.4 L 708.1 288.5 L 710 290.8 L 711.9 292.7 L 713.3 293.1 L 714.8 292.6 L 715.6 292.9 L 716 293.1 L 716.7 293 L 717.2 291.8 L 718 291.4 L 719 291.9 L 719 292.7 L 718 293.8 L 718 294.8 L 719.1 295.6 L 719.5 296.7 L 719.3 298.2 L 720.5 299.8 L 721.4 300.3 L 723.2 301.5 L 724.4 303.1 L 724.1 304.8 L 724.8 305.3 L 726.3 304.7 L 728 304.7 L 729.6 305.4 L 730.1 306.8 L 729.4 308.7 L 730.7 311.1 L 733.9 313.8 L 736.5 315.4 L 738.4 316 L 739.8 315.9 L 740.5 315.3 L 742 315.6 L 744.1 316.9 L 745.8 317.4 L 747.2 317 L 750.7 317.7 L 753.1 318.4 L 756.4 319.4 L 760 321.5 L 761.7 324 L 762.8 324.8 L 763.8 324.8 L 765 324.9 L 767.4 325.9 L 770.1 329.1 L 773.9 335.6 L 774.2 336.6 L 774.2 338.5 L 773.4 341.5 L 774 345.2 L 775.9 349.5 L 776.9 352.8 L 776.9 355.1 L 777.8 357.6 L 779.6 360.2 L 780.4 363.2 L 780.4 366.6 L 782.5 369.9 L 789 374.8 L 796.9 376 L 800.3 377.1 L 801.7 378.5 L 804.2 379.4 L 809.2 379.9" />
<path class="river" d="M 614.4 161.5 L 608.2 162.8 L 605.1 164.4 L 603.2 166.7 L 602.4 168.2 L 602.7 169.1 L 605.2 170.4 L 609.8 172.1 L 612.9 172.8 L 614.7 172.5 L 616.7 173.1 L 618.8 174.7 L 621 175.4 L 623.3 175.2 L 624.5 176.2 L 624.5 178.4 L 625.5 179.6 L 627.5 179.8 L 628.3 180.7 L 628.1 182.2 L 626.1 184.2 L 622.3 186.6 L 620.5 188.4 L 620.5 189.5 L 619.8 190.4 L 619.6 191 L 618.9 192.6 L 616.5 193.5 L 616.1 194.2 L 616.4 194.9 L 615.7 195.5 L 612.4 195.9 L 609.7 197 L 607.5 198.8 L 604.8 199.8 L 601.6 200.2 L 599.3 200.8 L 598.1 201.8 L 596 202 L 593.1 201.5 L 591 201.9 L 589.7 203.1 L 587.8 205.7 L 587.6 207.9 L 588 210.9 L 589 212.4 L 590.6 212.7 L 591.7 214.3 L 592.8 219 M 692.5 121.7 L 688.8 126.5 L 678.8 128.6 L 672.6 129.1 L 666.8 128.6 L 661.7 128.6 L 657.5 129.3 L 655.1 130 L 654.6 130.8 L 655.1 132.1 L 656.9 133.9 L 657.2 135.9 L 656.1 137.8 L 655 139.1 L 653.8 139.5 L 648.4 138.7 L 639 136.7 L 633.2 136.2 L 631.1 137.2 L 626.8 138.1 L 620.4 138.8 L 613.5 140.4 L 606.2 143.1 L 604.4 146.1 L 608.2 149.4 L 610.7 151.1 L 612.1 151.2 L 612.9 151.9 L 613.5 153.8" />
<path class="river" d="M 819.2 345.1 L 821.9 347.2 L 822.7 348.7 L 822.5 350.5 L 823.1 352 L 824.4 353.3 L 824.7 355.8 L 823.9 359.5 L 824.3 362 L 826.1 363.1 L 827.3 366.3 L 828.1 371.5 L 829.2 375.5 L 830.7 378.1 L 832.8 380.6 L 835.5 382.9 L 836.5 385.5 L 835.4 389.8" />
<path class="river" d="M 1278.7 382.8 L 1283 388.4 L 1284.8 394.5 L 1285.6 403.2 L 1291.1 408.8 L 1301.3 411.6 L 1310.1 412.3 L 1317.4 410.9 L 1324.9 407.9 L 1332.6 403.2 L 1338.6 401.3 L 1342.9 402.1 L 1345.7 402.2 L 1346.9 401.7 L 1348.4 399.9 L 1350.3 396.9 L 1351.9 392.5 L 1353.2 386.6 L 1355.2 381.8 L 1357.9 378.1 L 1359.1 374.6 L 1359 372 L 1359.7 369.6 L 1361.6 367.6 L 1367 364.1 L 1371.7 359.7 L 1375.5 354.4 L 1379.3 351.3 L 1383.1 350.3 L 1387.1 345.5 L 1391.3 336.9 L 1395.5 331.6 L 1401.9 328.7 L 1404.7 327.1 L 1407 324.7 L 1409.8 321.1 L 1412.2 319.2 L 1414 318.9 L 1415.5 317.8 L 1416.9 315.8 L 1419.7 313.6 L 1423.9 311.2 L 1427.7 309.8 L 1431 309.3 L 1434.4 307.6 L 1438.1 304.5 L 1440.6 302.9 L 1441.9 302.9 L 1442.4 301.8 L 1442.1 299.8 L 1442.3 298.3 L 1443.4 296.9 L 1450.1 292.6 L 1457 290 L 1470.9 286.6 L 1473.6 287.2 L 1475.7 286.7 L 1478.9 284.9" />
<path class="river" d="M 395.3 414.4 L 396.6 414.1 L 397.8 412.6 L 399.4 409.8 L 402.4 406.8 L 407 403.8 L 413.6 401.8 L 426.3 400.6" />
<path class="river" d="M 517.1 379.3 L 516.4 382.1 M 521.5 338.7 L 520.8 348.2 L 521.4 352.8 L 520.3 356.7 L 520.2 360.1 L 521 366.5 M 529.9 313.2 L 525 318.1 L 522.8 323.5 L 522.1 327.4 L 522.2 333.5" />
<path class="river" d="M 431.7 835.8 L 433.1 823.9 L 435.8 817.7 L 440.3 813 L 444.5 810.3 L 448.3 809.8 L 451.4 808.7 L 453.6 806.8 L 457 805.2 L 461.7 803.6 L 465 801.1 L 467.1 797.7 L 467.9 795.2 L 467.3 793.7 L 467.4 791.6 L 468.1 788.9 L 470.1 785 L 473.5 780 L 474.3 775.7 L 474.8 773 L 474 763.8 L 472.8 758.9 L 471.2 758.1 L 469.4 756.4 L 467.5 753.7 L 466.4 750.8 L 466.2 747.7 L 465.3 745.9 L 463.8 745.4 L 463.1 742.3 L 463.3 736.6 L 462.3 732.8 L 460 731 L 458.6 728.9 L 457.6 725.5 L 450.6 723.2 L 447.1 723 L 444.8 724.1 L 441.9 726.7 L 438.3 730.9 L 435.5 733.2 L 433.4 733.4 L 431.1 735.4 L 428.7 739.2 L 426.4 741.1 L 424.2 741 L 421.9 741.8 L 419.7 743.3 L 418.6 745.3 L 418.8 747.7 L 417.6 749.3 L 415.2 750.1 L 411.7 753.8 L 407.1 760.5 L 402.2 764.7 L 397 766.5 L 392.6 766.9 L 389.1 765.9 L 385.8 764.4 L 382.8 762.5 L 380.9 759.5 L 380.1 755.4 L 378.9 752.4 L 377.2 750.6 L 375.6 747.7 L 374.2 743.9 L 373.4 738.2 L 373.5 730.8 L 372.6 724.1 L 370.8 718.3 L 369.5 715 L 369.4 713.9 L 370.1 712.9 L 373.8 711.3 L 376 709.7 L 376.6 708.3 L 376.7 705.9 L 376.5 702.5 L 375.9 700.3 L 375 699.2 L 373.5 698.6 L 371.6 698.3 L 370 696.6 L 368.6 693.4 L 368.5 690.8 L 369.6 688.9 L 369.9 687.4 L 370.1 686.2 L 370.9 685.3 L 374.2 684.3 L 376.1 682.6 L 376.6 680.1 L 377.7 678.4 L 379.3 677.5 L 379.9 676.2 L 379.6 674.5 L 381.5 672.4 L 385.6 669.9 L 387.5 668.1 L 387.4 667 L 388.2 665.3 L 391 661.9 M 443.1 592.8 L 444 582.8 L 444 579.2 L 443.4 578.5 L 443.4 576.7 L 444.2 573.8 L 444.3 570 L 443.5 565.2 L 442.8 562.2 L 442.1 560.9 L 439.8 559 L 435.8 556.4 L 433.2 553.1 L 432.1 549.3 L 431.8 546.9 L 432.7 545.5 L 438 541.4 L 439.7 537.7 L 439.7 533.2 L 438.8 530.5 L 437.2 529.5 L 433.6 530.1 L 428 532.3 L 424.1 532 L 422 529.2 L 420.2 528.7 L 418.7 528.7 L 417.9 528.4 L 417.4 527 L 416.5 525.6 L 413.7 523.3 L 412.3 521.3 L 412 519.4 L 411.1 518.5 L 409.6 518.4 L 408.9 517.8 L 409.1 516.6 L 408.6 515.8 L 407.5 515.5 L 404.5 512.1 L 399.1 504.8 L 398.3 503.5 L 397.2 502.3 L 396.5 501.6 L 395.5 501 L 387.5 494.8 L 384.6 490.6 L 385.2 487.1 L 385 482.8 L 384.8 478.9 L 384.4 476.5 L 383.7 474.9 L 382.8 473.6 L 381.8 472.6 L 381 471.2 L 380.8 469.4 L 381.5 467.1 L 382.9 464.4 L 383.6 461.7 L 383.6 459.1 L 384.3 456.2 L 385.4 453 L 388.2 448.6 L 392.6 443 L 394.8 438.8 L 394.7 435.9 L 395.3 432.7 L 396.6 429.2 L 396.7 424.2 L 395.8 417.9 L 395.8 415.5 L 395.3 414.4" />
<path class="river" d="M 563.9 1024.3 L 563.8 1027.2 L 564.9 1028.8 L 567 1030.1 L 568.3 1031.4 L 568.9 1033.5 L 567.5 1036.3 L 567.3 1037.7 L 567.8 1038.7 L 574.9 1047.2 L 578 1050.2 L 579.6 1051.2 L 580.4 1054.6 L 580.1 1061.4 L 578.3 1068.1 L 574.9 1074.5 L 573.9 1078.6 L 575.3 1080.2 L 576.7 1081.1 L 578.1 1081.1 L 578.2 1081.6 L 577 1082.6 L 576.1 1084.8 L 575.4 1088.2 L 574.5 1090.1 L 573.1 1090.5 L 571.7 1092.1 L 570.1 1095 L 567.7 1096.8 L 564.5 1097.8 L 562.4 1097.6 L 561.6 1096.2 L 559.4 1095.5 L 555.8 1095.4 L 550.7 1097.6 L 544.2 1102 L 539.9 1104 L 538 1103.4 L 536.3 1103.8 L 534.9 1105.3 L 534 1107.1 L 533.3 1110.3 L 532.5 1111 L 532.7 1112.6 L 533.5 1115.2 L 533.2 1120.7 L 531.7 1129 L 531.3 1133.7 L 531.9 1134.8 L 533.4 1135.1 L 535.7 1134.5 L 537.1 1133.2 L 537.6 1131.1 L 538.4 1130.5 L 539.5 1131.4 L 539.7 1133 L 538.9 1135.1 L 538.8 1136.8 L 539.4 1138.1 L 538.7 1139.1 L 536.6 1139.7 L 535.8 1140.3 L 536.2 1141 L 535.9 1141.8 L 535.1 1142.7 L 535.2 1143.9 L 536.4 1145.4 L 536 1147.6 L 534.1 1150.6 L 533.7 1153.7 L 535.2 1158.5" />
<path class="river" d="M 395.3 414.4 L 394.6 413.8 L 393.1 413.5 L 389.9 412.3 L 387.6 410.7 L 386.5 409 L 385.4 408.1 L 384.2 407.6 L 384.3 406.7 L 384 404.2 L 382.2 398.5 L 381.7 395.2 L 382.1 394.3 L 381.8 393.3 L 381.5 392.7 L 381.5 390.4 L 381 388.5 L 380.1 386.9 L 378.4 385.3 L 375.8 383.8 L 374.5 382.1 L 374.4 380.2 L 373.5 378.4 L 370.8 375.5" />
<path class="river" d="M 586.7 886.9 L 583.3 885.9 L 581.2 884.2 L 578.5 879.9 L 573.2 872.5 L 570.4 870.1 L 568.3 870.3 L 566.8 871.5 L 565.8 873.6 L 564.8 874.9 L 563.6 875.4 L 561.2 875.1 L 557.5 874.1 L 553.6 874.4 L 549.6 875.8 L 546.3 876 L 543.6 875.1 L 540.3 875.2 L 536.3 876.3 L 533.2 875.8 L 530.8 873.8 L 529.9 870.9 L 530.8 865.3" />
<path class="river" d="M 867.5 389.7 L 870.8 393.7 L 872.6 395.3 L 874.2 395.9 L 875.2 397.4 L 875.6 399.7 L 876.7 401.5 L 878.4 403 L 881.1 404 L 884.8 404.5 L 887.2 405.7 L 888.2 407.5 L 889.5 408.5 L 891 408.7 L 892.6 409.6 L 894.1 411.2 L 894.6 412.4 L 894.2 413.2 L 894.5 414.7 L 895.6 416.8 L 896.8 417.8 L 898.8 419" />
<path class="river" d="M 433.8 412.6 L 433.9 418.6 M 428 405.5 L 426.3 400.6 L 427.2 397.8 L 427.3 392.9 L 426.9 381.3" />
<path class="river" d="M 719.3 212.4 L 721 214.5 L 721.9 215.2 L 722.6 215.4 L 723.2 216 L 723.3 217.8 L 724.6 219.1 L 729.1 220.5 L 730.4 221.4 L 730.9 222 L 730.5 222.4 L 733.3 222.7 L 734.4 223.2 L 734.6 224.1 L 734.2 224.5 L 733.1 224.6 L 732 225.6 L 730.8 227.6 L 732.9 229.4 L 738.4 231 L 742.4 233.6 L 745 237.3 L 746.7 241.1 L 747.5 244.9 L 747.5 247.5 L 746.4 248.8 L 746.1 250.1 L 746.5 251.5 L 746.2 252.6 L 745.1 253.3 L 744.7 255.4 L 745.1 258.7 L 747.6 263.2 L 752.2 268.8 L 754 272.2 L 753.1 273.7 L 754.5 277.3 L 758.1 283.2 L 760.3 288.3 L 761.2 292.8 L 762.3 295.9 L 763.8 297.6 L 765.4 298.7 L 768.2 299.3 L 773.3 300 L 776.1 301 L 778.3 302.3 L 779 304.1 L 778.3 306.6 L 778.2 308.2 L 778.7 309.1 L 778.2 310.3 L 776.7 311.9 L 775.8 313.6 L 775.6 315.2 L 776 317.5 L 777.1 320.5 L 778.1 322.1 L 779.1 322.1 L 780.5 323.8 L 782.4 326.9 L 786.2 329.9 L 791.9 332.8 L 795.1 333.9 L 796.4 333.8 L 796.9 334.1 L 796.9 334.8 L 796.9 335.5 L 798 336.3 L 799.7 336.8 L 802.2 337.1 L 803.2 337.8 L 803.2 338.9 L 804.3 340.4 L 806.8 342.1 L 810.8 343.5 L 819.2 345.1 L 825.6 341.7 L 828.7 341.3 L 830.6 342.6 L 834.7 343.9 L 841.1 345.3 L 844.9 346.8 L 846 348.4 L 846.1 350.3 L 845.3 352.5 L 845.1 354.1 L 845.5 355.3 L 846.7 356.4 L 848.8 357.4 L 850.6 359.3 L 852.1 362.1 L 854.1 363.5 L 856.5 363.6 L 857.9 364.8 L 858.1 367 L 860.3 370.5 L 864.4 375.4 L 866.5 380.5 L 866.7 388.8" />
<g class="city"><circle cx="395.60924480548374" cy="416.3533257640903" r="5" /><text x="407.60924480548374" y="420.3533257640903">Cairo</text></g>
<g class="city"><circle cx="982.477246422875" cy="252.81112112108434" r="5" /><text x="994.477246422875" y="256.81112112108434">Tehran</text></g>
<g class="city"><circle cx="777.9623303892376" cy="320.68614108868337" r="5" /><text x="789.9623303892376" y="324.68614108868337">Baghdad</text></g>
<g class="city"><circle cx="432.9666502204057" cy="837.0461783691236" r="5" /><text x="444.9666502204057" y="841.0461783691236">Khartoum</text></g>
<g class="city"><circle cx="845.6997266446757" cy="573.944519354121" r="5" /><text x="857.6997266446757" y="577.944519354121">Riyadh</text></g>
<g class="city"><circle cx="357.79335549130803" cy="382.8983714660195" r="5" /><text x="369.79335549130803" y="386.8983714660195">Alexandria</text></g>
<g class="city"><circle cx="442.5724711597044" cy="129.02555903269683" r="5" /><text x="454.5724711597044" y="133.02555903269683">Ankara</text></g>
<g class="city"><circle cx="498.00652281226263" cy="357.30018646543954" r="5" /><text x="510.00652281226263" y="361.30018646543954">Tel Aviv</text></g>
<text class="map-title" x="80" y="105">Saudi Arabia Physical Study Map</text>
<text class="map-subtitle" x="80" y="145">Landmark: Kingdom Centre | Study terrain and water systems</text>
  <text class="footer" x="80" y="1036">Made with Natural Earth. Free vector and raster map data @ naturalearthdata.com.</text>
</svg>
