<?xml version="1.0" encoding="UTF-8"?>
<svg xmlns="http://www.w3.org/2000/svg" width="1600" height="1100" viewBox="0 0 1600 1100" role="img" aria-labelledby="title desc">
  <title id="title">Saudi Arabia Political Study Map</title>
  <desc id="desc">Made with Natural Earth. Free vector and raster map data @ naturalearthdata.com.</desc>
  <defs>
    <linearGradient id="terrain" x1="0" x2="1" y1="0" y2="1">
      <stop offset="0%" stop-color="#6c8c53" />
      <stop offset="42%" stop-color="#d5c487" />
      <stop offset="72%" stop-color="#b88b5f" />
      <stop offset="100%" stop-color="#f1f5ee" />
    </linearGradient>
    <filter id="softShadow" x="-10%" y="-10%" width="120%" height="120%">
      <feDropShadow dx="0" dy="10" stdDeviation="12" flood-color="#0f172a" flood-opacity="0.16" />
    </filter>
    <style>
      .neighbor { fill: #ffffff; stroke: #94a3b8; stroke-width: 1.2; opacity: 0.72; }
      .country { fill: #f7f1df; stroke: #1f2937; stroke-width: 4; filter: url(#softShadow); }
      .admin1 { fill: none; stroke: #64748b; stroke-width: 1.1; stroke-dasharray: 6 7; opacity: 0.75; }
      .river { fill: none; stroke: #1d9bd1; stroke-width: 3; stroke-linecap: round; opacity: 0.88; }
      .lake { fill: #8ed1ea; stroke: #0ea5e9; stroke-width: 1.5; opacity: 0.8; }
      .city circle { fill: #ef4444; stroke: #ffffff; stroke-width: 2; }
      .city text, .terrain-label { fill: #172033; font: 700 24px system-ui, sans-serif; paint-order: stroke; stroke: #ffffff; stroke-width: 5; stroke-linejoin: round; }
      .map-title { fill: #0f172a; font: 800 46px system-ui, sans-serif; }
      .map-subtitle { fill: #475569; font: 600 24px system-ui, sans-serif; }
      .footer { fill: #64748b; font: 500 18px system-ui, sans-serif; }
    </style>
  </defs>
  <rect width="100%" height="100%" fill="#eaf3f8" />
  <rect x="40" y="40" width="1520" height="1020" rx="32" fill="#ffffff" opacity="0.54" />
  <path class="neighbor" d="M 1114.7 88.9 L 1113.6 -18.4 L 1188.5 -35.6 L 1193.9 -33 L 1239 -12.2 L 1262.8 -1.2 L 1290.6 25 L 1324.7 20.8 L 1374.6 18.5 L 1409.4 39.8 L 1407.2 68.9 L 1421.4 69.1 L 1427.3 93 L 1464.3 93.9 L 1472.3 107.7 L 1483.1 107.5 L 1495.8 86.7 L 1534.2 66.4 L 1550.9 61 L 1559.5 63.9 L 1535.1 82.7 L 1556.6 93.7 L 1577.3 86.4 L 1611.8 101.8 L 1574.5 122.7 L 1552.4 119.9 L 1540.4 120.6 L 1536.2 112.5 L 1542.3 99 L 1503.4 105.8 L 1494.1 124.5 L 1480.3 140.5 L 1456 139.2 L 1448.5 152 L 1469.8 158.9 L 1476.1 180.6 L 1459.8 210 L 1437.8 203.9 L 1421.6 203.7 L 1422.4 185.9 L 1383.7 173.4 L 1353.3 159.2 L 1334.3 145.5 L 1301.1 125.4 L 1286.8 95.4 L 1277 90.1 L 1245.6 91.5 L 1234.4 85.5 L 1231.3 62.3 L 1192.1 46.9 L 1167.6 63.8 L 1142.8 73.8 L 1147.5 88.5 L 1114.7 88.9 Z" />
<path class="neighbor" d="M 696.3 1339.5 L 679.1 1315.5 L 678.7 1209.6 L 704.2 1176.6 L 712.1 1167.4 L 730.8 1166.8 L 756.7 1146.3 L 794.6 1145.1 L 876.8 1057.8 L 897.1 1033.5 L 910.2 1015.6 L 910.2 1000.4 L 910.2 971.1 L 910.3 959.1 L 910.5 958.6 L 910.5 958.6 L 919.8 958.1 L 933.2 953.7 L 948.6 950.8 L 962.4 940.8 L 973.4 940.8 L 974.1 948.8 L 971.4 965.7 L 971.5 981 L 965.4 991.5 L 957.2 1023 L 943.2 1055.5 L 925.2 1092.6 L 900.2 1135.2 L 875.4 1167.8 L 841.2 1207.5 L 812.1 1231 L 768.5 1259.9 L 741.4 1282.1 L 709.6 1317.3 L 702.9 1332.6 L 696.3 1339.5 Z" />
<path class="neighbor" d="M 201.3 1051.2 L 179.1 1038.5 L 169 1030.1 L 167.2 1021 L 171.9 1008.9 L 171.8 997.1 L 155 978.9 L 151.7 966.4 L 152.1 959.4 L 141.4 950.8 L 141.1 933.9 L 135 922.7 L 124.7 924.4 L 127.7 913.7 L 135.2 901.6 L 131.9 889.5 L 141.5 880.6 L 135.4 873.8 L 143.1 855.8 L 156.4 834.4 L 181.5 836.4 L 180 721 L 180.4 708.8 L 213.9 708.7 L 213.9 650.6 L 330.8 650.6 L 443.7 650.6 L 559 650.6 L 568.4 679.1 L 562 684.4 L 566.3 714.3 L 576.9 749.1 L 588 756.2 L 604 767 L 589.2 783.6 L 567.8 788.4 L 558.6 797.3 L 555.8 816.6 L 543.2 859.4 L 546.3 871 L 541.7 896 L 529.9 924.7 L 512.3 939.1 L 499.9 961.3 L 496.9 973.2 L 483.2 981.3 L 474.5 1011.8 L 474.9 1037.9 L 474.6 1015.2 L 470.6 1014.7 L 471.1 1000.2 L 467.6 990.2 L 452.6 978.7 L 449.1 957.7 L 452.6 936.3 L 439.1 934.3 L 437.1 940.8 L 419.6 942.3 L 426.6 950.7 L 429.1 968.2 L 413.1 984.2 L 398.7 1005.2 L 383.7 1008.2 L 359.2 991.2 L 348.2 997.2 L 345.2 1005.7 L 330.2 1011.2 L 329.2 1017.2 L 300.3 1017.2 L 296.3 1011.2 L 275.3 1010.2 L 264.8 1015.2 L 256.8 1012.7 L 241.8 995.7 L 236.9 987.7 L 215.9 991.7 L 207.9 1005.2 L 200.4 1031.1 L 190.4 1036.6 L 181.5 1039.8 L 201.3 1051.2 Z" />
<path class="neighbor" d="M 282.9 1138.3 L 273.3 1141.4 L 254.7 1140.7 L 232.8 1137.7 L 222 1140.2 L 217.6 1147.2 L 208.2 1148.1 L 196.7 1141.9 L 164.3 1156.5 L 151.1 1153.5 L 147.1 1155.8 L 138.4 1173.3 L 116.7 1167.7 L 95.4 1164.8 L 76.9 1154.1 L 52.9 1144.2 L 37.3 1153.6 L 26 1168.3 L 23.4 1188.6 L 4.7 1187 L -15 1182.1 L -32.3 1197.5 L -47.6 1224.6 L -50.6 1216.2 L -51.9 1202.9 L -65.2 1193.5 L -76 1178.5 L -78.5 1168.1 L -92.2 1152.9 L -89.9 1144.2 L -92.8 1132 L -90.5 1109.4 L -83.5 1104.1 L -68.9 1074.7 L -44.9 1072.5 L -39.5 1065 L -34.7 1065.6 L -27.4 1072.1 L 9.2 1061 L 21.6 1049.7 L 36.7 1039.5 L 33.8 1029.2 L 42.1 1026.6 L 70.1 1028.4 L 97.5 1014.9 L 118.6 983.2 L 133.3 971.4 L 151.7 966.4 L 155 978.9 L 171.8 997.1 L 171.9 1008.9 L 167.2 1021 L 169 1030.1 L 179.1 1038.5 L 201.3 1051.2 L 217.2 1062.9 L 217.5 1072.4 L 237 1087.5 L 249.2 1100.1 L 256.5 1117.6 L 278.2 1129.1 L 282.9 1138.3 Z" />
<path class="neighbor" d="M 525.7 339.1 L 520.6 348.2 L 510.1 344.2 L 504 363.6 L 511.3 366.8 L 503.9 370.8 L 502.6 378.5 L 516.3 374.5 L 517 385.9 L 502.5 432.4 L 499.6 424.8 L 483.4 382.4 L 483.4 382.4 L 483.4 382.4 L 491.8 372.8 L 489.9 371.2 L 497.6 357.6 L 503.5 335.6 L 507.6 328.3 L 508.4 327.9 L 518.2 328 L 520.8 322.9 L 528.6 322.5 L 529.1 334.4 L 525.1 338.9 L 525.7 339.1 Z" />
<path class="neighbor" d="M 528.6 322.5 L 520.8 322.9 L 518.2 328 L 508.4 327.9 L 518.8 304.3 L 533.2 283.8 L 533.8 282.7 L 546.9 284.2 L 551.6 295.6 L 535.8 306.6 L 528.6 322.5 Z" />
<path class="neighbor" d="M 516.3 374.5 L 502.6 378.5 L 503.9 370.8 L 511.3 366.8 L 504 363.6 L 510.1 344.2 L 520.6 348.2 L 520.6 366 L 516.3 374.5 Z" />
<path class="neighbor" d="M 520.6 348.2 L 525.7 339.1 L 558.1 350.6 L 615.1 319.6 L 626.8 355 L 621.3 359.4 L 563 374 L 592 403.1 L 582.4 408 L 577.6 417.8 L 555.4 421.8 L 548.4 432.3 L 535.8 441.2 L 503.5 436.6 L 502.5 432.4 L 517 385.9 L 516.3 374.5 L 520.6 366 L 520.6 348.2 Z" />
<path class="neighbor" d="M 987 585.3 L 992.2 583.8 L 993.3 591.8 L 1016.1 587.2 L 1040.1 588 L 1057.7 588.9 L 1077.6 569.2 L 1099.3 550.5 L 1117.7 532.6 L 1123.2 542.5 L 1127.2 565.5 L 1112.3 565.6 L 1109.9 584.6 L 1115.1 588.6 L 1101.9 594.3 L 1101.8 606.2 L 1093.4 618.3 L 1092.6 630 L 1086.7 636.1 L 999.3 621.5 L 988.2 592 L 987 585.3 Z" />
<path class="neighbor" d="M 964.7 570.4 L 962.7 549.3 L 970.6 534 L 978.5 530.9 L 987.3 540 L 987.8 557 L 981.5 574.2 L 973.5 576.2 L 964.7 570.4 Z" />
<path class="neighbor" d="M 882.2 418.6 L 888.2 431.4 L 885.7 438 L 895 460 L 874.5 460.7 L 867.2 446.9 L 841.3 444.1 L 862.6 416.1 L 882.2 418.6 Z" />
<path class="neighbor" d="M 626.8 355 L 615.1 319.6 L 679.5 289.3 L 690.5 254.1 L 687.7 232.9 L 703.6 225.7 L 718.6 207.5 L 731 203 L 764.9 206.8 L 775.1 214.2 L 789 209.3 L 807.9 244 L 827 252.7 L 829.2 269.7 L 814.5 279.7 L 807.8 302.4 L 827.9 330.1 L 863.6 346 L 878.5 368.1 L 873.8 389.2 L 883.1 389.2 L 883.3 404.7 L 899.4 420 L 882.2 418.6 L 862.6 416.1 L 841.3 444.1 L 787.2 441.7 L 705.2 383.2 L 661.8 362.9 L 626.8 355 Z" />
<path class="neighbor" d="M 1092.6 630 L 1093.4 618.3 L 1101.8 606.2 L 1101.9 594.3 L 1115.1 588.6 L 1109.9 584.6 L 1112.3 565.6 L 1127.2 565.5 L 1140.2 585.4 L 1156.5 595.9 L 1177.8 599.7 L 1195 605 L 1208.2 621.7 L 1216 631.4 L 1226.4 635.1 L 1226.4 641.5 L 1215.8 658.9 L 1211.1 667 L 1198.9 676.4 L 1188 696.3 L 1174.8 694.8 L 1168.8 701.7 L 1164.1 716.4 L 1167.7 735.9 L 1164.9 739.5 L 1151.5 739.4 L 1133.4 750.2 L 1130.5 764.4 L 1123.9 770.5 L 1105.8 770.3 L 1094.4 777.6 L 1094.5 789.4 L 1080.5 797.5 L 1064.4 794.7 L 1045 804.5 L 1031.5 806.2 L 1022 785.9 L 999.3 737.9 L 1086.5 708.8 L 1105.9 650.6 L 1092.6 630 Z M 1123.2 542.5 L 1117.7 532.6 L 1126.2 522.7 L 1129.8 525.2 L 1127 537.2 L 1123.2 542.5 Z" />
<path class="neighbor" d="M 1750.9 258 L 1722.8 282.5 L 1690.4 286.8 L 1646.2 279.7 L 1632 292.3 L 1642.3 317.8 L 1652.4 337.4 L 1675.9 351.8 L 1651.1 368.6 L 1651.5 389.4 L 1623.3 418.5 L 1605 448.1 L 1574.6 478.6 L 1540.8 476.4 L 1508.8 506.8 L 1527.8 519.9 L 1531.1 542.3 L 1547.5 557.1 L 1553.2 582 L 1489.2 582 L 1469.9 601.4 L 1448.5 594 L 1439.9 573.1 L 1417.4 550.9 L 1363.8 556.4 L 1316.5 557 L 1275.6 561 L 1286.5 527.2 L 1328.5 512.2 L 1326.1 498.8 L 1312.2 494.1 L 1311.3 468.5 L 1283.5 455.7 L 1271.8 438.1 L 1257.4 422.8 L 1306.2 437.7 L 1335.3 433.3 L 1352.7 437 L 1358.6 430.7 L 1378.8 433.2 L 1416.6 421.1 L 1417.6 396.4 L 1433.8 379.9 L 1455.5 380 L 1458.7 371.8 L 1480.9 368 L 1491.7 370.7 L 1503 362.6 L 1501.4 345.1 L 1513.8 327.5 L 1532.3 320.2 L 1520.9 300.9 L 1548.5 301.8 L 1556.5 291.4 L 1555.3 280.2 L 1569.8 268 L 1566.5 253.5 L 1559.6 241.2 L 1576.6 228.5 L 1607.8 222.4 L 1641.2 219 L 1656 213.6 L 1672.9 210.4 L 1694.4 223.9 L 1703 246.3 L 1750.9 258 Z" />
<path class="neighbor" d="M 1421.6 203.7 L 1437.8 203.9 L 1459.8 210 L 1468.7 213.6 L 1489.7 204.2 L 1499.5 209.8 L 1508.9 196.5 L 1526.3 197.1 L 1530.8 192.8 L 1533.8 181.1 L 1546.4 171 L 1562.1 177.6 L 1558.9 186.5 L 1567.7 187.9 L 1565 212.3 L 1576.6 221.9 L 1586.7 215.7 L 1599.6 212.9 L 1617.7 199.8 L 1637.8 202 L 1667.8 202 L 1672.9 210.4 L 1656 213.6 L 1641.2 219 L 1607.8 222.4 L 1576.6 228.5 L 1559.6 241.2 L 1566.5 253.5 L 1569.8 268 L 1555.3 280.2 L 1556.5 291.4 L 1548.5 301.8 L 1520.9 300.9 L 1532.3 320.2 L 1513.8 327.5 L 1501.4 345.1 L 1503 362.6 L 1491.7 370.7 L 1480.9 368 L 1458.7 371.8 L 1455.5 380 L 1433.8 379.9 L 1417.6 396.4 L 1416.6 421.1 L 1378.8 433.2 L 1358.6 430.7 L 1352.7 437 L 1335.3 433.3 L 1306.2 437.7 L 1257.4 422.8 L 1283.8 396.5 L 1281.4 377.7 L 1259.4 372.8 L 1257.1 354.4 L 1247.6 331.1 L 1260 315.2 L 1247.4 310.9 L 1255.4 289.7 L 1267.2 253.5 L 1296.9 264.5 L 1318.8 260.7 L 1324.9 247.5 L 1347.9 243.1 L 1364.3 234.2 L 1370.1 211 L 1394.6 205.4 L 1399.1 195 L 1412.9 202.8 L 1421.6 203.7 Z" />
<path class="neighbor" d="M 1013.9 75.1 L 1026.7 65.4 L 1059.8 59.4 L 1079.4 67.5 L 1099.8 90.3 L 1114.7 88.9 L 1147.5 88.5 L 1142.8 73.8 L 1167.6 63.8 L 1192.1 46.9 L 1231.3 62.3 L 1234.4 85.5 L 1245.6 91.5 L 1277 90.1 L 1286.8 95.4 L 1301.1 125.4 L 1334.3 145.5 L 1353.3 159.2 L 1383.7 173.4 L 1422.4 185.9 L 1421.6 203.7 L 1412.9 202.8 L 1399.1 195 L 1394.6 205.4 L 1370.1 211 L 1364.3 234.2 L 1347.9 243.1 L 1324.9 247.5 L 1318.8 260.7 L 1296.9 264.5 L 1267.2 253.5 L 1264.7 229 L 1243 228 L 1209.7 202.2 L 1186.5 199 L 1154.3 184.3 L 1133.7 181.6 L 1120.9 187 L 1101.4 186.2 L 1080.7 202.8 L 1055.2 208.4 L 1049.8 187.9 L 1054 157.4 L 1031.3 147.6 L 1038.8 127.7 L 1019.5 126 L 1025.9 101.5 L 1053.3 108.6 L 1078.9 99.3 L 1057.7 81.8 L 1049.4 65.2 L 1025.9 72.6 L 1023 93.9 L 1013.9 75.1 Z" />
<path class="neighbor" d="M 899.4 420 L 883.3 404.7 L 883.1 389.2 L 873.8 389.2 L 878.5 368.1 L 863.6 346 L 827.9 330.1 L 807.8 302.4 L 814.5 279.7 L 829.2 269.7 L 827 252.7 L 807.9 244 L 789 209.3 L 789 209.3 L 773.1 186 L 778.8 177 L 769.7 143.6 L 789.7 135.3 L 794.3 146.3 L 809 159.7 L 828.9 163.6 L 839.5 162.7 L 873.8 141.3 L 884.7 139.1 L 893.3 147.7 L 883.2 162 L 901.4 177.3 L 908.6 175.8 L 917.8 197.3 L 945.4 203.3 L 965.6 217.9 L 1007 222.9 L 1052.4 215.3 L 1055.2 208.4 L 1080.7 202.8 L 1101.4 186.2 L 1120.9 187 L 1133.7 181.6 L 1154.3 184.3 L 1186.5 199 L 1209.7 202.2 L 1243 228 L 1264.7 229 L 1267.2 253.5 L 1255.4 289.7 L 1247.4 310.9 L 1260 315.2 L 1247.6 331.1 L 1257.1 354.4 L 1259.4 372.8 L 1281.4 377.7 L 1283.8 396.5 L 1257.4 422.8 L 1271.8 438.1 L 1283.5 455.7 L 1311.3 468.5 L 1312.2 494.1 L 1326.1 498.8 L 1328.5 512.2 L 1286.5 527.2 L 1275.6 561 L 1220.8 552.3 L 1189.1 545.6 L 1156.3 541.8 L 1143.9 506.1 L 1130 501 L 1107.6 506.2 L 1078.3 520.2 L 1042.7 510.6 L 1013.3 488.2 L 985.3 479.9 L 965.9 452.3 L 944.4 413.6 L 928.8 418.3 L 910.3 408.6 L 899.4 420 Z" />
<path class="neighbor" d="M 525.7 339.1 L 525.1 338.9 L 529.1 334.4 L 528.6 322.5 L 535.8 306.6 L 551.6 295.6 L 546.9 284.2 L 533.8 282.7 L 531.1 260.5 L 538.2 248.5 L 546 242.1 L 553.8 235.8 L 555.4 219.5 L 564.9 225.2 L 596.9 217.1 L 612.4 222.6 L 636.3 222.5 L 669.8 211.6 L 685.5 212.1 L 718.6 207.5 L 703.6 225.7 L 687.7 232.9 L 690.5 254.1 L 679.5 289.3 L 615.1 319.6 L 558.1 350.6 L 525.7 339.1 Z" />
<path class="neighbor" d="M 839.5 162.7 L 828.9 163.6 L 817 146.8 L 817.2 142.3 L 804.3 142.3 L 795.7 134.5 L 789.7 135.3 L 778.2 126.8 L 756.6 119.6 L 759.4 105.4 L 754.4 95.2 L 794.9 90.7 L 800.9 98.3 L 812 103.3 L 806.1 110.6 L 821.6 120.6 L 813.4 129.9 L 825.7 137.8 L 838.8 142.6 L 839.5 162.7 Z" />
<path class="neighbor" d="M 251.4 263.7 L 247.7 272.3 L 205.9 274.7 L 206.1 269.9 L 170.7 264.3 L 176 251.9 L 191.9 261.7 L 214.6 260.1 L 236.2 262.1 L 235.5 267.2 L 251.4 263.7 Z M 154.3 88 L 175.8 88.9 L 199.1 80.9 L 219.6 91.1 L 246 88.3 L 246.4 73.8 L 260.5 81.5 L 251.5 99.7 L 244.6 103 L 226.9 102.2 L 211.7 99.4 L 176.5 107 L 196.6 123.3 L 181.9 128.1 L 165.7 128.1 L 150.3 113.1 L 144.8 119.5 L 151.3 136.9 L 165.9 150.5 L 154.9 156.9 L 171.1 170.3 L 185.5 178.7 L 185.9 195.2 L 159 187.5 L 167.6 202.3 L 149.1 205.4 L 160.2 231 L 140.8 231.4 L 117 218.7 L 106.1 195.5 L 101 176.1 L 89.6 162.7 L 74.7 146.2 L 72.8 137.9 L 86.3 123.8 L 88 114.3 L 97.5 110.1 L 98.1 102.5 L 117.1 99.9 L 128.2 93.5 L 144 94.1 L 148.7 89 L 154.3 88 Z" />
<path class="neighbor" d="M 789 209.3 L 775.1 214.2 L 764.9 206.8 L 731 203 L 718.6 207.5 L 685.5 212.1 L 669.8 211.6 L 636.3 222.5 L 612.4 222.6 L 596.9 217.1 L 564.9 225.2 L 555.4 219.5 L 553.8 235.8 L 546 242.1 L 538.2 248.5 L 527.5 235.3 L 538.5 224.4 L 520.8 226.9 L 496.4 220.2 L 476.4 236.9 L 432.3 240.2 L 408.7 224.6 L 377.4 223.6 L 370.7 235.7 L 350.6 239.1 L 322.4 223.6 L 290.7 224.2 L 273.5 195.2 L 252.2 179.1 L 266.4 156.5 L 247.9 142.6 L 280.2 114.7 L 325 113.6 L 337.2 91.5 L 392.6 95.3 L 427.6 76.5 L 461.5 68.2 L 509.6 67.6 L 560.4 88.1 L 602.1 99.4 L 636 94.9 L 661.1 97.5 L 695.4 82.3 L 726.4 80.9 L 754.4 95.2 L 759.4 105.4 L 756.6 119.6 L 778.2 126.8 L 789.7 135.3 L 769.7 143.6 L 778.8 177 L 773.1 186 L 789 209.3 L 789 209.3 Z M 246.4 73.8 L 276 64.7 L 301 68.6 L 304.5 79.8 L 329.9 89.2 L 324.6 96.3 L 290 97.9 L 277.6 106.9 L 253.4 122.5 L 244.2 109 L 244.6 103 L 251.5 99.7 L 260.5 81.5 L 246.4 73.8 Z" />
<path class="neighbor" d="M 836.5 72.8 L 844.7 73.8 L 864.7 91.5 L 877.6 93.5 L 882.6 86.1 L 899.9 74.3 L 915.2 89.7 L 930 110.3 L 943.6 111.7 L 952.5 119.5 L 928.6 121.8 L 923.5 144.4 L 918.5 154.6 L 907.8 161.4 L 908.6 175.8 L 901.4 177.3 L 883.2 162 L 893.3 147.7 L 884.7 139.1 L 873.8 141.3 L 839.5 162.7 L 838.8 142.6 L 825.7 137.8 L 813.4 129.9 L 821.6 120.6 L 806.1 110.6 L 812 103.3 L 800.9 98.3 L 794.9 90.7 L 802 85.9 L 823.7 94.3 L 839.3 96 L 843.3 92.6 L 829 76.8 L 836.5 72.8 Z M 828.9 163.6 L 809 159.7 L 794.3 146.3 L 789.7 135.3 L 795.7 134.5 L 804.3 142.3 L 817.2 142.3 L 817 146.8 L 828.9 163.6 Z" />
<path class="neighbor" d="M 546.3 871 L 543.2 859.4 L 555.8 816.6 L 558.6 797.3 L 567.8 788.4 L 589.2 783.6 L 604 767 L 620.8 800.7 L 628.9 827.4 L 644.8 841.5 L 684.5 869 L 700.7 885.6 L 716.4 902.4 L 725.5 912.4 L 739.8 921.1 L 731.1 928.2 L 718.6 925.7 L 708.7 916.3 L 696.7 899.2 L 683.8 889.9 L 676.3 879.8 L 651 868.2 L 631 867.8 L 624 861.8 L 606.9 868.6 L 589.3 855.4 L 580.2 877.1 L 546.3 871 Z" />
<path class="neighbor" d="M 999.3 737.9 L 1022 785.9 L 1031.5 806.2 L 1010.5 814 L 1004.9 826.9 L 1004.2 836.8 L 975.2 849.1 L 928.7 862.7 L 902.7 883.2 L 889.9 884.8 L 881.1 883.1 L 864.1 895.2 L 845.6 900.8 L 821.2 902.3 L 813.8 903.9 L 807.5 911.6 L 799.9 913.7 L 795.3 921.1 L 780.9 920.5 L 771.7 924.4 L 751.5 923 L 744 906 L 744.8 890.1 L 740 881.5 L 734.3 860 L 726 848 L 731.8 846.6 L 728.8 833.3 L 732.3 827.7 L 731.1 815 L 743.8 805.7 L 740.8 793.5 L 748.5 779.2 L 760.5 786.7 L 768.4 784.1 L 802 783.4 L 807.3 786.3 L 835.4 789.2 L 846.6 787.8 L 853.8 797.5 L 867.4 792.6 L 888.3 762.1 L 915.4 749 L 999.3 737.9 Z" />
<path class="neighbor" d="M 438.8 268.3 L 440.8 268.2 L 445 261.2 L 466 261.6 L 492.4 252.9 L 472.8 265.3 L 474.9 270.7 L 471.8 269.7 L 466.2 271.9 L 461.9 271.3 L 460.4 272.4 L 459.8 269.5 L 457.7 267.7 L 452.1 267.4 L 444.2 269.9 L 438.8 268.3 Z" />
<path class="neighbor" d="M 438.8 268.3 L 444.2 269.9 L 452.1 267.4 L 457.7 267.7 L 459.8 269.5 L 460.4 272.4 L 461.9 271.3 L 466.2 271.9 L 471.8 269.7 L 474.9 270.7 L 475.8 273.1 L 446 284.9 L 431.7 281.1 L 425 269.4 L 438.8 268.3 Z" />
<path class="neighbor" d="M 559 650.6 L 443.7 650.6 L 330.8 650.6 L 213.9 650.6 L 213.9 543.5 L 213.9 440 L 205.1 416.6 L 212.6 398.6 L 208.1 386.2 L 218.7 372.2 L 257.4 371.7 L 285.3 379.4 L 314.2 388 L 327.7 392.6 L 350.1 383.3 L 362.1 375 L 387.7 372.6 L 408.4 376.3 L 416.3 390.7 L 423.1 381.2 L 446.4 388.1 L 469.1 389.7 L 483.4 382.4 L 483.4 382.4 L 499.6 424.8 L 502.5 432.4 L 494.3 444.1 L 488.1 466 L 480.2 481.2 L 473.4 486.3 L 463.7 476.9 L 450.6 463.9 L 429.8 422.2 L 426.8 424.8 L 438.9 455.5 L 456.7 484.8 L 478.7 530.1 L 489.4 545.9 L 498.8 562.3 L 524.9 594.5 L 519.1 599.6 L 520.1 618.5 L 553.9 644.6 L 559 650.6 Z" />
<path class="neighbor" d="M 213.9 650.6 L 213.9 708.7 L 180.4 708.8 L 180 721 L 64 665.3 L -52 609.6 L -81.4 625.5 L -101.9 636.3 L -118.3 620.3 L -164.3 607.8 L -177.1 589.6 L -200.1 576 L -213.7 581.4 L -224 565.1 L -225.1 552.7 L -242.3 531.5 L -230.7 519.3 L -233.3 501 L -229.6 485.1 L -231.7 471.8 L -226.6 448.1 L -228.1 434.6 L -237.6 408.9 L -223.4 402.2 L -220.8 389.9 L -223.9 377.8 L -204 366.6 L -195 357.3 L -180.8 349 L -179.2 326.6 L -145 336.6 L -132.8 334.1 L -108.5 339 L -69.9 352 L -56.3 377.8 L -30.2 383.5 L 10.8 395.7 L 41.8 410.1 L 56 402.6 L 70 389.2 L 63.2 366.9 L 72.3 352.8 L 93.3 339.1 L 113.3 335.2 L 152.6 341.1 L 162.6 354.1 L 173.4 354.2 L 182.7 359.2 L 211.6 362.6 L 218.7 372.2 L 208.1 386.2 L 212.6 398.6 L 205.1 416.6 L 213.9 440 L 213.9 543.5 L 213.9 650.6 Z" />
<path class="neighbor" d="M 876.8 1057.8 L 794.6 1145.1 L 756.7 1146.3 L 730.8 1166.8 L 712.1 1167.4 L 704.2 1176.6 L 684.3 1176.6 L 672.6 1166.7 L 646 1178.9 L 637.4 1191 L 618 1188.7 L 611.5 1185.4 L 604.7 1186.2 L 595.5 1185.9 L 558.7 1161.2 L 538.5 1161.2 L 528.5 1151.6 L 528.5 1135.3 L 513.4 1130.4 L 496.2 1098.7 L 482.9 1092 L 477.8 1080.4 L 463.1 1066.2 L 445.2 1064.1 L 455.1 1047.5 L 470.6 1046.8 L 474.9 1037.9 L 474.5 1011.8 L 483.2 981.3 L 496.9 973.2 L 499.9 961.3 L 512.3 939.1 L 529.9 924.7 L 541.7 896 L 546.3 871 L 580.2 877.1 L 589.3 855.4 L 606.9 868.6 L 624 861.8 L 631 867.8 L 651 868.2 L 676.3 879.8 L 683.8 889.9 L 696.7 899.2 L 708.7 916.3 L 718.6 925.7 L 708.4 938.6 L 698.5 952.2 L 700.8 960.2 L 701.3 969.1 L 717.5 969.6 L 724.5 967.5 L 731 972.7 L 724.6 983 L 735.4 999 L 746.1 1013 L 757.2 1023.4 L 852.3 1057.9 L 876.8 1057.8 Z" />
<path class="neighbor" d="M 718.6 925.7 L 731.1 928.2 L 739.8 921.1 L 746.7 930.1 L 745.8 942.2 L 729.2 949.2 L 741.7 957.1 L 731 972.7 L 724.5 967.5 L 717.5 969.6 L 701.3 969.1 L 700.8 960.2 L 698.5 952.2 L 708.4 938.6 L 718.6 925.7 Z" />
<path class="neighbor" d="M 910.5 958.6 L 910.5 958.6 L 910.3 959.1 L 910.2 971.1 L 910.2 1000.4 L 910.2 1015.6 L 897.1 1033.5 L 876.8 1057.8 L 852.3 1057.9 L 757.2 1023.4 L 746.1 1013 L 735.4 999 L 724.6 983 L 731 972.7 L 741.7 957.1 L 751.2 962.5 L 756.9 974.5 L 770 986.7 L 784.4 986.8 L 811.9 979.4 L 843.5 975.9 L 869.1 966.9 L 883.5 965 L 893.9 959.6 L 910.5 958.6 L 910.5 958.6 Z" />
<path class="neighbor" d="M 383.6 1188.5 L 358 1169.1 L 351 1156.7 L 334.8 1162.9 L 321.4 1161 L 313.6 1165.8 L 300.5 1162.3 L 282.9 1138.3 L 278.2 1129.1 L 256.5 1117.6 L 249.2 1100.1 L 237 1087.5 L 217.5 1072.4 L 217.2 1062.9 L 201.3 1051.2 L 181.5 1039.8 L 190.4 1036.6 L 200.4 1031.1 L 207.9 1005.2 L 215.9 991.7 L 236.9 987.7 L 241.8 995.7 L 256.8 1012.7 L 264.8 1015.2 L 275.3 1010.2 L 296.3 1011.2 L 300.3 1017.2 L 329.2 1017.2 L 330.2 1011.2 L 345.2 1005.7 L 348.2 997.2 L 359.2 991.2 L 383.7 1008.2 L 398.7 1005.2 L 413.1 984.2 L 429.1 968.2 L 426.6 950.7 L 419.6 942.3 L 437.1 940.8 L 439.1 934.3 L 452.6 936.3 L 449.1 957.7 L 452.6 978.7 L 467.6 990.2 L 471.1 1000.2 L 470.6 1014.7 L 474.6 1015.2 L 474.9 1037.9 L 470.6 1046.8 L 455.1 1047.5 L 445.2 1064.1 L 463.1 1066.2 L 477.8 1080.4 L 482.9 1092 L 496.2 1098.7 L 513.4 1130.4 L 493.7 1149.6 L 475.8 1166.9 L 457.9 1180.3 L 437.5 1180.2 L 414 1187 L 395.5 1180.5 L 383.6 1188.5 Z" />

<path class="country" d="M 503.5 436.6 L 535.8 441.2 L 548.4 432.3 L 555.4 421.8 L 577.6 417.8 L 582.4 408 L 592 403.1 L 563 374 L 621.3 359.4 L 626.8 355 L 661.8 362.9 L 705.2 383.2 L 787.2 441.7 L 841.3 444.1 L 867.2 446.9 L 874.5 460.7 L 895 460 L 906.4 485.1 L 920.7 491.7 L 925.7 501.9 L 945.5 514.2 L 947.3 526.2 L 944.4 535.9 L 948.1 545.6 L 956.4 553.8 L 960.3 563.3 L 964.7 570.4 L 973.5 576.2 L 981.5 574.2 L 987 585.3 L 988.2 592 L 999.3 621.5 L 1086.7 636.1 L 1092.6 630 L 1105.9 650.6 L 1086.5 708.8 L 999.3 737.9 L 915.4 749 L 888.3 762.1 L 867.4 792.6 L 853.8 797.5 L 846.6 787.8 L 835.4 789.2 L 807.3 786.3 L 802 783.4 L 768.4 784.1 L 760.5 786.7 L 748.5 779.2 L 740.8 793.5 L 743.8 805.7 L 731.1 815 L 727.3 802.6 L 718.5 793.8 L 716.3 782.2 L 701.2 771.8 L 685.7 747.4 L 677.5 723.7 L 657.4 703.7 L 644.4 698.9 L 625.2 671.2 L 621.8 651 L 623 633.7 L 606.4 601.5 L 592.7 590.1 L 577 584.1 L 567.4 567.4 L 569 560.9 L 560.9 545.8 L 552.4 539.3 L 541.1 517.6 L 523.4 494.2 L 508.5 474.2 L 494.1 474.3 L 498.6 458.4 L 499.9 448.2 L 503.5 436.6 Z" />


<g class="city"><circle cx="395.60924480548374" cy="416.3533257640903" r="5" /><text x="407.60924480548374" y="420.3533257640903">Cairo</text></g>
<g class="city"><circle cx="982.477246422875" cy="252.81112112108434" r="5" /><text x="994.477246422875" y="256.81112112108434">Tehran</text></g>
<g class="city"><circle cx="777.9623303892376" cy="320.68614108868337" r="5" /><text x="789.9623303892376" y="324.68614108868337">Baghdad</text></g>
<g class="city"><circle cx="432.9666502204057" cy="837.0461783691236" r="5" /><text x="444.9666502204057" y="841.0461783691236">Khartoum</text></g>
<g class="city"><circle cx="845.6997266446757" cy="573.944519354121" r="5" /><text x="857.6997266446757" y="577.944519354121">Riyadh</text></g>
<g class="city"><circle cx="357.79335549130803" cy="382.8983714660195" r="5" /><text x="369.79335549130803" y="386.8983714660195">Alexandria</text></g>
<g class="city"><circle cx="442.5724711597044" cy="129.02555903269683" r="5" /><text x="454.5724711597044" y="133.02555903269683">Ankara</text></g>
<g class="city"><circle cx="498.00652281226263" cy="357.30018646543954" r="5" /><text x="510.00652281226263" y="361.30018646543954">Tel Aviv</text></g>
<text class="map-title" x="80" y="105">Saudi Arabia Political Study Map</text>
<text class="map-subtitle" x="80" y="145">Capital: Riyadh | Continent: Asia</text>
  <text class="footer" x="80" y="1036">Made with Natural Earth. Free vector and raster map data @ naturalearthdata.com.</text>
</svg>
