<?xml version="1.0" encoding="UTF-8"?>
<svg xmlns="http://www.w3.org/2000/svg" width="1600" height="1100" viewBox="0 0 1600 1100" role="img" aria-labelledby="title desc">
  <title id="title">Solomon Islands Political Study Map</title>
  <desc id="desc">Made with Natural Earth. Free vector and raster map data @ naturalearthdata.com.</desc>
  <defs>
    <linearGradient id="terrain" x1="0" x2="1" y1="0" y2="1">
      <stop offset="0%" stop-color="#6c8c53" />
      <stop offset="42%" stop-color="#d5c487" />
      <stop offset="72%" stop-color="#b88b5f" />
      <stop offset="100%" stop-color="#f1f5ee" />
    </linearGradient>
    <filter id="softShadow" x="-10%" y="-10%" width="120%" height="120%">
      <feDropShadow dx="0" dy="10" stdDeviation="12" flood-color="#0f172a" flood-opacity="0.16" />
    </filter>
    <style>
      .neighbor { fill: #ffffff; stroke: #94a3b8; stroke-width: 1.2; opacity: 0.72; }
      .country { fill: #f7f1df; stroke: #1f2937; stroke-width: 4; filter: url(#softShadow); }
      .admin1 { fill: none; stroke: #64748b; stroke-width: 1.1; stroke-dasharray: 6 7; opacity: 0.75; }
      .river { fill: none; stroke: #1d9bd1; stroke-width: 3; stroke-linecap: round; opacity: 0.88; }
      .lake { fill: #8ed1ea; stroke: #0ea5e9; stroke-width: 1.5; opacity: 0.8; }
      .city circle { fill: #ef4444; stroke: #ffffff; stroke-width: 2; }
      .city text, .terrain-label { fill: #172033; font: 700 24px system-ui, sans-serif; paint-order: stroke; stroke: #ffffff; stroke-width: 5; stroke-linejoin: round; }
      .map-title { fill: #0f172a; font: 800 46px system-ui, sans-serif; }
      .map-subtitle { fill: #475569; font: 600 24px system-ui, sans-serif; }
      .footer { fill: #64748b; font: 500 18px system-ui, sans-serif; }
    </style>
  </defs>
  <rect width="100%" height="100%" fill="#eaf3f8" />
  <rect x="40" y="40" width="1520" height="1020" rx="32" fill="#ffffff" opacity="0.54" />
  <path class="neighbor" d="M -1207.2 -80.2 L -1018.4 -5.2 L -817.2 57.1 L -742.2 112.8 L -681.7 167.5 L -665.1 231.6 L -483.8 298.9 L -457.3 356.6 L -557.5 368.3 L -533.4 440.8 L -436.3 512.2 L -365.6 627.6 L -303.3 624 L -307.6 672.2 L -223.6 690.7 L -256.3 711.2 L -140.6 757 L -152.7 788.5 L -224.7 796.1 L -251.5 767.9 L -345 755.6 L -455 739.3 L -539.6 669.8 L -601.3 610 L -657.9 514.8 L -799.8 467.2 L -892 498.2 L -958.4 534.1 L -944.6 614.4 L -1030 651.8 L -1091 633.6 L -1203.6 629.1 L -1205.4 274.4 L -1207.2 -80.2 Z M 59.5 35.1 L 100.8 70 L 113.9 126.5 L 79.8 155.5 L 59.3 91.3 L 34 49.3 L -15.3 13.6 L -77.2 -32.8 L -155.8 -64.8 L -125.5 -91.1 L -66.8 -60.6 L -29.8 -36.7 L 15.9 -10.6 L 59.5 35.1 Z M -86.2 272.4 L -145.7 298.9 L -201.6 324.4 L -259.4 324.2 L -348.6 292.6 L -410.8 262.3 L -401.8 228.6 L -304.2 244.5 L -244.6 236 L -228.2 183.8 L -212.6 181.1 L -202.1 238.9 L -140 230.6 L -109.3 193.3 L -48.5 154.5 L -60.5 90.4 L 4.7 88.3 L 26.7 106.2 L 24.5 166.6 L -12.1 233 L -69.1 241.9 L -86.2 272.4 Z M 290.2 218 L 323.1 242.6 L 375.9 311.6 L 427.3 348.5 L 412 379 L 381.6 389.9 L 334.5 348.1 L 286.8 279 L 263.4 196.1 L 278.5 185.6 L 290.2 218 Z" />
<path class="neighbor" d="M -479.3 4077.7 L -414 4085 L -406.3 4214.2 L -443.6 4251.7 L -454.8 4339.3 L -492.9 4309.5 L -568.4 4385.3 L -590.9 4379.5 L -657.9 4376.1 L -725 4282.9 L -739.8 4211.1 L -802.6 4116.3 L -799.8 4066.4 L -728.6 4076 L -623.5 4113.6 L -564.3 4098.7 L -479.3 4077.7 Z M -2823.4 3142.7 L -2938.8 3198.5 L -3033.1 3223.6 L -3054.1 3280.7 L -3094.3 3324.9 L -3186.6 3327.5 L -3255 3337.2 L -3351.2 3317.4 L -3429.4 3329.2 L -3504.1 3334.2 L -3568.8 3392.3 L -3600.6 3387.3 L -3655.2 3418.1 L -3707.5 3452.7 L -3786.9 3448.4 L -3859.8 3448.4 L -3975.2 3378.9 L -4033.7 3358.2 L -4031.4 3295.9 L -3977.3 3281 L -3958.9 3256.3 L -3962.7 3217.2 L -3949.4 3141.5 L -3961.6 3077 L -4019.1 2967 L -4037 2904.9 L -4032.3 2842.9 L -4075.6 2772.1 L -4078.4 2740.1 L -4126.6 2696.7 L -4140.2 2611.5 L -4202.3 2525.4 L -4217.4 2478.9 L -4169.6 2526 L -4206.3 2425 L -4152.3 2456.6 L -4120.1 2498.7 L -4122 2443 L -4175.8 2357.3 L -4186.3 2323 L -4211.5 2290.5 L -4199.7 2227.5 L -4177.4 2200.7 L -4162.5 2146.3 L -4174.2 2082.7 L -4129.2 2004.4 L -4121 2087.3 L -4075 2012.4 L -3986.6 1976 L -3933.6 1929.6 L -3850.4 1889.7 L -3800.9 1881.2 L -3771 1894.6 L -3685.2 1854 L -3619.2 1842 L -3602.7 1818.1 L -3573.9 1808.2 L -3513.7 1810.7 L -3399.4 1778.9 L -3340.2 1730.6 L -3312.4 1672.4 L -3248.6 1617.2 L -3243.7 1573.7 L -3240.9 1514.6 L -3164.7 1422.1 L -3118.9 1516.1 L -3072.6 1494.3 L -3111.3 1442.9 L -3077.2 1390.1 L -3029.1 1413.7 L -3015.9 1330.9 L -2956.5 1277.4 L -2930.2 1234.4 L -2875.5 1215.9 L -2873.8 1185.5 L -2826 1198.2 L -2824.1 1170.8 L -2776.2 1155.2 L -2723.6 1140.6 L -2643.2 1190.5 L -2582.8 1255 L -2514.7 1255.7 L -2445.5 1265.9 L -2468.6 1206.1 L -2416.4 1118.9 L -2367.4 1090.4 L -2384.3 1063.2 L -2337.1 1001.1 L -2271.2 962.7 L -2215.5 975.6 L -2124.1 955.1 L -2126 899.5 L -2205.7 863.7 L -2147.8 847.9 L -2075.7 874.9 L -2017.9 919.5 L -1926.2 947.3 L -1895.2 936.3 L -1827.7 969.8 L -1764.1 938.6 L -1723.2 948.1 L -1697.8 927.2 L -1647.8 981 L -1676.8 1039.3 L -1718.1 1083.2 L -1755.5 1086.9 L -1742.9 1130.4 L -1774.9 1184.7 L -1813.5 1238.2 L -1805.8 1268.9 L -1719.2 1329.1 L -1635.4 1363.9 L -1579.4 1401.4 L -1500.7 1465.9 L -1470 1465.8 L -1413.1 1493.7 L -1396.5 1527.3 L -1292.6 1564.2 L -1220.8 1527 L -1199.5 1468.6 L -1177.4 1420.3 L -1163.9 1360.7 L -1130.8 1274.1 L -1145.9 1221.5 L -1138.1 1189.8 L -1150.7 1127.5 L -1136.4 1045.5 L -1115.5 1023.4 L -1132.5 987.1 L -1106.2 929.4 L -1085.5 869.6 L -1082.8 838.5 L -1042.4 797.8 L -1011.7 851 L -1004.1 919.3 L -977 932.4 L -972.3 978.2 L -932.8 1033.5 L -924.6 1095.1 L -928.5 1134.6 L -889.3 1220 L -819.4 1179 L -783.4 1225.1 L -731.2 1267.6 L -742.4 1315.8 L -719.1 1409.1 L -702.6 1463.4 L -675.2 1476.7 L -645.7 1569.7 L -656.2 1626.1 L -621 1699.9 L -503 1756.8 L -426.2 1808.5 L -353.2 1855.9 L -367.4 1882.2 L -305.2 1950.5 L -262.8 2068.2 L -219.4 2044.3 L -175.3 2091.5 L -148.7 2074.7 L -129.9 2190.1 L -52.7 2256.9 L -2.2 2298.4 L 82.9 2386.5 L 113.5 2474 L 116.3 2536 L 108.7 2603.4 L 160.6 2695.9 L 154.4 2792.2 L 135.5 2842.6 L 106.2 2939.7 L 108.4 3002.1 L 86.8 3080.1 L 38.8 3179 L -41.8 3232.5 L -81.6 3316.8 L -117.9 3370.6 L -150.1 3464.5 L -192.1 3518.8 L -219.7 3600.2 L -233.7 3675.2 L -228.1 3709.6 L -290.5 3747.4 L -412.3 3751.4 L -512.8 3796 L -562.8 3838.1 L -628.5 3884.8 L -718.7 3836.7 L -785.3 3817.6 L -768.4 3760.8 L -827.9 3781.4 L -923.2 3860.2 L -1017.3 3830.7 L -1079 3813.5 L -1141.2 3805.7 L -1246.6 3774.2 L -1316.9 3707.2 L -1337.1 3624.5 L -1362.4 3569.5 L -1415.9 3525.4 L -1520.6 3512.3 L -1484.8 3459.5 L -1511.1 3378.7 L -1564.3 3454 L -1661.1 3474 L -1604.2 3413.8 L -1587.7 3351 L -1545.7 3297.7 L -1554.4 3217.1 L -1642.9 3309.9 L -1710.9 3347.1 L -1752.6 3433.7 L -1837.5 3388.9 L -1834.2 3331.2 L -1902.3 3252.3 L -1959.7 3211.5 L -1939.2 3186.4 L -2078.8 3120.4 L -2155.3 3117.3 L -2260 3064.3 L -2454.8 3074.6 L -2595.7 3113.6 L -2719.6 3149.9 L -2823.4 3142.7 Z" />

<path class="country" d="M 1091 777.6 L 1121.4 815 L 1045.4 814.3 L 1004 747.4 L 1069.1 773.7 L 1091 777.6 Z M 1043.2 681.5 L 1026.8 701.6 L 946.2 607.3 L 923.5 542.2 L 960.5 542.2 L 999.7 629.3 L 1043.2 681.5 Z M 953.1 711.2 L 910.7 713.7 L 844 702.7 L 821.2 685.9 L 828.1 642.7 L 899.9 659.8 L 935.3 682.6 L 953.1 711.2 Z M 821.2 509.6 L 846.8 544.1 L 851.4 566 L 766.1 519.9 L 706.5 480.7 L 665.7 444.5 L 681.9 433.4 L 732 459.5 L 821.2 509.6 Z M 549.2 401 L 592.5 436.5 L 570.9 442.6 L 523.3 417.8 L 478.6 373.1 L 484.2 355 L 549.2 401 Z" />


<g class="city"><circle cx="854.9301743612383" cy="663.9124205204175" r="5" /><text x="866.9301743612383" y="667.9124205204175">Honiara</text></g>
<text class="map-title" x="80" y="105">Solomon Islands Political Study Map</text>
<text class="map-subtitle" x="80" y="145">Capital: Honiara | Continent: Oceania</text>
  <text class="footer" x="80" y="1036">Made with Natural Earth. Free vector and raster map data @ naturalearthdata.com.</text>
</svg>
