<?xml version="1.0" encoding="UTF-8"?>
<svg xmlns="http://www.w3.org/2000/svg" width="1600" height="1100" viewBox="0 0 1600 1100" role="img" aria-labelledby="title desc">
  <title id="title">Sudan Physical Study Map</title>
  <desc id="desc">Made with Natural Earth. Free vector and raster map data @ naturalearthdata.com.</desc>
  <defs>
    <linearGradient id="terrain" x1="0" x2="1" y1="0" y2="1">
      <stop offset="0%" stop-color="#6c8c53" />
      <stop offset="42%" stop-color="#d5c487" />
      <stop offset="72%" stop-color="#b88b5f" />
      <stop offset="100%" stop-color="#f1f5ee" />
    </linearGradient>
    <filter id="softShadow" x="-10%" y="-10%" width="120%" height="120%">
      <feDropShadow dx="0" dy="10" stdDeviation="12" flood-color="#0f172a" flood-opacity="0.16" />
    </filter>
    <style>
      .neighbor { fill: #ffffff; stroke: #94a3b8; stroke-width: 1.2; opacity: 0.72; }
      .country { fill: url(#terrain); stroke: #1f2937; stroke-width: 4; filter: url(#softShadow); }
      .admin1 { fill: none; stroke: #64748b; stroke-width: 1.1; stroke-dasharray: 6 7; opacity: 0.75; }
      .river { fill: none; stroke: #1d9bd1; stroke-width: 3; stroke-linecap: round; opacity: 0.88; }
      .lake { fill: #8ed1ea; stroke: #0ea5e9; stroke-width: 1.5; opacity: 0.8; }
      .city circle { fill: #ef4444; stroke: #ffffff; stroke-width: 2; }
      .city text, .terrain-label { fill: #172033; font: 700 24px system-ui, sans-serif; paint-order: stroke; stroke: #ffffff; stroke-width: 5; stroke-linejoin: round; }
      .map-title { fill: #0f172a; font: 800 46px system-ui, sans-serif; }
      .map-subtitle { fill: #475569; font: 600 24px system-ui, sans-serif; }
      .footer { fill: #64748b; font: 500 18px system-ui, sans-serif; }
    </style>
  </defs>
  <rect width="100%" height="100%" fill="#d8edf0" />
  <rect x="40" y="40" width="1520" height="1020" rx="32" fill="#ffffff" opacity="0.54" />
  <path class="neighbor" d="M 772.2 1240.2 L 778.2 1270.9 L 774.8 1288.3 L 781.5 1307.7 L 800.9 1326.4 L 818.9 1368.5 L 818.9 1368.5 L 805.8 1365.1 L 760.9 1370.7 L 751.9 1374.7 L 742.4 1396 L 749.9 1410.8 L 744 1450.3 L 739.8 1483.8 L 748.9 1489.8 L 772.2 1502.8 L 781.4 1496.7 L 784.2 1532.7 L 758.6 1532.5 L 744.9 1514.1 L 732.6 1499.8 L 707 1495.2 L 699.5 1477.7 L 679.1 1488.2 L 652.3 1483.6 L 641.2 1468.4 L 619.9 1465.3 L 604.3 1466.1 L 602.4 1455.7 L 590.8 1454.9 L 575.6 1452.9 L 554.9 1457.9 L 540.4 1457.1 L 532.2 1460.2 L 533.9 1420.4 L 522.8 1408 L 520.4 1387.5 L 525.3 1367.3 L 518.5 1354.5 L 517.9 1333.4 L 477.4 1333.7 L 480.3 1321.7 L 463.2 1321.8 L 461.4 1327.6 L 440.7 1328.9 L 432.3 1348.4 L 427.3 1356.7 L 408.9 1352 L 397.8 1356.7 L 375.8 1359.4 L 363 1341.9 L 355.3 1331.1 L 345.7 1311.1 L 337.5 1286.2 L 238.9 1285.8 L 227.2 1289.8 L 217.5 1289.2 L 203.7 1293.7 L 199 1283.3 L 207.5 1279.8 L 208.6 1265.2 L 214 1256.6 L 226.2 1249.6 L 235 1253 L 246.4 1240.2 L 264.6 1240.5 L 266.7 1250 L 279.2 1255.9 L 298.9 1235 L 318.3 1218.7 L 326.8 1208 L 325.6 1180.5 L 340.1 1148 L 355.5 1130.8 L 377.4 1114.7 L 381.3 1104.1 L 382.1 1091.8 L 387.6 1080.2 L 385.8 1061.3 L 390 1031.7 L 396.5 1010.9 L 406.5 993 L 408.5 972.8 L 411.5 949.5 L 424.5 932.6 L 442.4 921.8 L 469.9 933.2 L 491.2 945.5 L 515.6 948.8 L 540.5 955.3 L 550.5 935.1 L 555.1 932.6 L 570.3 935.9 L 607.5 919.2 L 620.7 926.3 L 631.5 925.3 L 636.5 917.2 L 648.9 914.3 L 674 917.8 L 695.5 918.6 L 706.5 915.1 L 726.7 942.6 L 741.7 946.7 L 750.7 941.1 L 766.1 943.3 L 784.7 936.2 L 792.7 950.5 L 822.1 972.7 L 822.1 972.7 L 820 1011.7 L 833.4 1016.2 L 822.7 1028.1 L 809.9 1037 L 797.1 1054.4 L 790.1 1069.9 L 788.2 1096.7 L 780.4 1109.5 L 780.2 1134.7 L 770.6 1144 L 769.3 1163.9 L 764.7 1166.5 L 761.6 1184.7 L 770 1199.9 L 772.2 1240.2 Z" />
<path class="neighbor" d="M 1181.2 1146.1 L 1161.4 1118.6 L 1161 996.9 L 1190.2 959 L 1199.3 948.5 L 1220.8 947.8 L 1250.5 924.3 L 1294 922.8 L 1388.4 822.6 L 1411.7 794.7 L 1426.8 774.2 L 1426.8 756.7 L 1426.8 723 L 1426.9 709.3 L 1427.2 708.7 L 1427.2 708.7 L 1437.8 708.1 L 1453.2 703.1 L 1470.9 699.7 L 1486.7 688.3 L 1499.4 688.2 L 1500.2 697.5 L 1497.1 716.9 L 1497.2 734.4 L 1490.2 746.5 L 1480.7 782.6 L 1464.7 819.9 L 1444 862.6 L 1415.3 911.5 L 1386.8 948.9 L 1347.5 994.5 L 1314.1 1021.6 L 1264.1 1054.7 L 1233 1080.1 L 1196.4 1120.6 L 1188.7 1138.2 L 1181.2 1146.1 Z" />
<path class="neighbor" d="M 1101.6 1246.1 L 1053.7 1212.7 L 1051.4 1193.3 L 930.2 1125.3 L 924.6 1121.6 L 924.3 1086.2 L 933.8 1072.7 L 950.3 1050.6 L 962.4 1026.2 L 947.7 987.9 L 943.8 971.1 L 928 947.9 L 948.5 928 L 971.2 906 L 988.5 911.6 L 988.5 930.3 L 999.9 941.3 L 1023.2 941.3 L 1065.5 969.7 L 1076 970 L 1083.9 969.1 L 1091.3 972.9 L 1113.5 975.6 L 1123.4 961.7 L 1153.9 947.7 L 1167.4 959 L 1190.2 959 L 1161 996.9 L 1161.4 1118.6 L 1181.2 1146.1 L 1157.8 1159.5 L 1149.6 1173.4 L 1137 1175.8 L 1132.3 1199.4 L 1121.6 1212.9 L 1115 1235.1 L 1101.6 1246.1 Z" />
<path class="neighbor" d="M 588.4 435.8 L 590 568.4 L 561.2 566.1 L 545.9 590.7 L 537.1 611.3 L 544.1 619.1 L 533.1 629.4 L 536.9 643.2 L 528.2 657.1 L 524.9 669.4 L 536.6 667.5 L 543.6 680.3 L 544 699.8 L 556.2 709.6 L 555.8 717.7 L 534.7 723.4 L 517.7 736.9 L 493.6 773.4 L 462.2 788.8 L 429.9 786.8 L 420.5 789.8 L 423.8 801.6 L 406.4 813.3 L 392.2 826.3 L 350.1 839.1 L 341.8 831.5 L 336.3 830.9 L 330.1 839.5 L 302.5 842 L 307.7 832.9 L 297.2 809.9 L 292.5 796.1 L 277.9 790.4 L 258.2 770.9 L 265.5 755.1 L 280.7 758.5 L 290.1 756.1 L 308.8 756.4 L 290.6 726.1 L 291.8 703.9 L 289.6 681.7 L 276.3 660.3 L 279.6 644.6 L 258.2 643.8 L 258.3 622.3 L 244.4 610 L 258.8 566 L 301.4 534.5 L 303.2 491 L 316.1 423.2 L 323.3 408.9 L 309.4 397.4 L 308.9 386.8 L 296.4 378.1 L 288.2 326.2 L 321.9 307.9 L 455.1 371.9 L 588.4 435.8 Z" />
<path class="neighbor" d="M 288.2 326.2 L 296.4 378.1 L 308.9 386.8 L 309.4 397.4 L 323.3 408.9 L 316.1 423.2 L 303.2 491 L 301.4 534.5 L 258.8 566 L 244.4 610 L 258.3 622.3 L 258.2 643.8 L 279.6 644.6 L 276.3 660.3 L 266.9 662.2 L 265.8 672.9 L 259.6 673.6 L 237 637.1 L 229.1 635.7 L 203 654.4 L 177.2 644.6 L 159.2 642.7 L 149.5 647.4 L 130 646.4 L 110.3 660.6 L 93.2 661.4 L 52.8 644.2 L 37 652.4 L 19.9 651.8 L 7.4 639.2 L -26.1 626.7 L -62 630.7 L -70.7 637.9 L -75.4 657.1 L -85 670.6 L -87.3 700.4 L -112.8 681.2 L -124.7 681.3 L -135.9 691 L -135.2 668.2 L -173.7 660.6 L -174.7 644.4 L -193.6 622.6 L -198 607.4 L -195.4 591.2 L -174 589.9 L -161.6 578 L -116.1 575.1 L -86.4 569.9 L -83.5 549.3 L -65.3 527 L -65.4 450 L -18.3 435.1 L 78.5 369.5 L 192.9 305.8 L 245.8 320.2 L 264.5 338.6 L 288.2 326.2 Z" />
<path class="neighbor" d="M -118 880.8 L -116.1 827 L -116.9 805.7 L -110.6 784.7 L -100.3 774.4 L -84.1 753.7 L -87.7 744.8 L -81.1 731.3 L -88.6 711.5 L -87.3 700.4 L -85 670.6 L -75.4 657.1 L -70.7 637.9 L -62 630.7 L -26.1 626.7 L 7.4 639.2 L 19.9 651.8 L 37 652.4 L 52.8 644.2 L 93.2 661.4 L 110.3 660.6 L 130 646.4 L 149.5 647.4 L 159.2 642.7 L 177.2 644.6 L 203 654.4 L 229.1 635.7 L 237 637.1 L 259.6 673.6 L 265.8 672.9 L 279 686.2 L 275.4 692.2 L 273.6 703.3 L 245.5 729.2 L 236.6 750.5 L 231.9 767.9 L 224.9 775.3 L 218.1 798.7 L 200.2 812.4 L 195.1 829.3 L 187.6 842.8 L 184.4 856.7 L 161.5 867.9 L 142.7 854.2 L 130.1 854.8 L 110.2 874.3 L 100.5 874.6 L 84.6 906.8 L 76 930.5 L 41.4 942.5 L 28.7 940.7 L 15.8 948.2 L -10.9 947.5 L -28.8 926.6 L -39.8 902.4 L -63.4 880.4 L -88.5 880.8 L -118 880.8 Z" />
<path class="neighbor" d="M 276.3 660.3 L 289.6 681.7 L 291.8 703.9 L 290.6 726.1 L 308.8 756.4 L 290.1 756.1 L 280.7 758.5 L 265.5 755.1 L 258.2 770.9 L 277.9 790.4 L 292.5 796.1 L 297.2 809.9 L 307.7 832.9 L 302.5 842 L 285.7 875.8 L 277.7 881.9 L 275.1 907.8 L 278.4 921.8 L 275.7 931.8 L 291.5 949.2 L 294.4 961.2 L 306.7 978.5 L 322 989.2 L 323.5 1004.5 L 327 1014.1 L 324.6 1032.2 L 298 1024.3 L 271 1015.5 L 228.9 1014.2 L 224.7 1012.3 L 204.9 1016.6 L 184.6 1012.2 L 168.8 1014.4 L 114.4 1013.6 L 119.3 987.2 L 106.2 965.1 L 91 959.5 L 84.2 944.5 L 75.6 939.7 L 76 930.5 L 84.6 906.8 L 100.5 874.6 L 110.2 874.3 L 130.1 854.8 L 142.7 854.2 L 161.5 867.9 L 184.4 856.7 L 187.6 842.8 L 195.1 829.3 L 200.2 812.4 L 218.1 798.7 L 224.9 775.3 L 231.9 767.9 L 236.6 750.5 L 245.5 729.2 L 273.6 703.3 L 275.4 692.2 L 279 686.2 L 265.8 672.9 L 266.9 662.2 L 276.3 660.3 Z" />
<path class="neighbor" d="M 706.5 915.1 L 695.5 918.6 L 674 917.8 L 648.9 914.3 L 636.5 917.2 L 631.5 925.3 L 620.7 926.3 L 607.5 919.2 L 570.3 935.9 L 555.1 932.6 L 550.5 935.1 L 540.5 955.3 L 515.6 948.8 L 491.2 945.5 L 469.9 933.2 L 442.4 921.8 L 424.5 932.6 L 411.5 949.5 L 408.5 972.8 L 387 971 L 364.4 965.4 L 344.5 983.1 L 327 1014.1 L 323.5 1004.5 L 322 989.2 L 306.7 978.5 L 294.4 961.2 L 291.5 949.2 L 275.7 931.8 L 278.4 921.8 L 275.1 907.8 L 277.7 881.9 L 285.7 875.8 L 302.5 842 L 330.1 839.5 L 336.3 830.9 L 341.8 831.5 L 350.1 839.1 L 392.2 826.3 L 406.4 813.3 L 423.8 801.6 L 420.5 789.8 L 429.9 786.8 L 462.2 788.8 L 493.6 773.4 L 517.7 736.9 L 534.7 723.4 L 555.8 717.7 L 559.6 732 L 578.9 752.9 L 579 766.5 L 573.6 780.4 L 575.7 790.8 L 587.3 800.4 L 612.7 815 L 631 828.5 L 631.3 839.4 L 653.8 856.8 L 667.7 871.2 L 676.2 891.2 L 701.1 904.5 L 706.5 915.1 Z" />
<path class="neighbor" d="M 408.5 972.8 L 406.5 993 L 396.5 1010.9 L 390 1031.7 L 385.8 1061.3 L 387.6 1080.2 L 382.1 1091.8 L 381.3 1104.1 L 377.4 1114.7 L 355.5 1130.8 L 340.1 1148 L 325.6 1180.5 L 326.8 1208 L 318.3 1218.7 L 298.9 1235 L 279.2 1255.9 L 266.7 1250 L 264.6 1240.5 L 246.4 1240.2 L 235 1253 L 226.2 1249.6 L 213.7 1238.1 L 203.6 1243.8 L 190.1 1258.2 L 162.7 1222.8 L 188.1 1204.4 L 175.5 1182.3 L 187 1173.9 L 209.5 1169.8 L 212.2 1155 L 230 1171 L 259.5 1172.4 L 269.7 1156.6 L 274 1134.4 L 270.3 1108.3 L 254.5 1088.6 L 269 1049.9 L 260.6 1043.3 L 235.8 1046 L 226.4 1028.7 L 228.9 1014.2 L 271 1015.5 L 298 1024.3 L 324.6 1032.2 L 327 1014.1 L 344.5 983.1 L 364.4 965.4 L 387 971 L 408.5 972.8 Z" />
<path class="neighbor" d="M 168.8 1014.4 L 184.6 1012.2 L 204.9 1016.6 L 224.7 1012.3 L 228.9 1014.2 L 226.4 1028.7 L 235.8 1046 L 260.6 1043.3 L 269 1049.9 L 254.5 1088.6 L 270.3 1108.3 L 274 1134.4 L 269.7 1156.6 L 259.5 1172.4 L 230 1171 L 212.2 1155 L 209.5 1169.8 L 187 1173.9 L 175.5 1182.3 L 188.1 1204.4 L 162.7 1222.8 L 128.3 1189.1 L 106.3 1161.5 L 86 1127 L 87 1115.9 L 94.3 1105.2 L 102.5 1080.9 L 109.2 1056.1 L 120.5 1054.2 L 169.1 1054.6 L 168.8 1014.4 Z" />
<path class="neighbor" d="M 1394.6 88.6 L 1401.6 103.3 L 1398.6 110.9 L 1409.4 136.1 L 1385.8 137 L 1377.4 121.1 L 1347.7 117.9 L 1372.2 85.8 L 1394.6 88.6 Z" />
<path class="neighbor" d="M 1414.5 90.2 L 1396 72.7 L 1395.6 54.9 L 1385 54.9 L 1390.4 30.7 L 1373.3 5.3 L 1332.3 -13 L 1309.2 -44.8 L 1316.9 -70.8 L 1333.7 -82.4 L 1331.2 -101.9 L 1309.3 -111.9 L 1287.7 -151.8 L 1287.7 -151.8 L 1269.4 -178.5 L 1275.9 -188.9 L 1265.5 -227.2 L 1288.4 -236.7 L 1293.7 -224.1 L 1310.6 -208.7 L 1333.5 -204.2 L 1345.6 -205.2 L 1385 -229.8 L 1397.5 -232.3 L 1407.4 -222.5 L 1395.8 -206 L 1416.7 -188.5 L 1425 -190.2 L 1435.5 -165.5 L 1467.2 -158.6 L 1490.4 -141.8 L 1537.9 -136.1 L 1590.1 -144.9 L 1593.3 -152.7 L 1622.6 -159.2 L 1646.4 -178.3 L 1668.7 -177.3 L 1683.4 -183.5 L 1707.2 -180.4 L 1744.1 -163.5 L 1770.8 -159.9 L 1808.9 -130.3 L 1833.8 -129.1 L 1836.8 -101 L 1823.2 -59.3 L 1814 -35 L 1828.5 -30.1 L 1814.2 -11.8 L 1825.2 14.8 L 1827.8 36.1 L 1853.1 41.7 L 1855.8 63.2 L 1825.5 93.5 L 1842.1 111 L 1855.5 131.2 L 1887.4 145.9 L 1888.4 175.3 L 1904.4 180.7 L 1907.1 196.1 L 1858.9 213.4 L 1846.3 252.2 L 1783.5 242.1 L 1747.1 234.4 L 1709.4 230.1 L 1695.1 189.1 L 1679.1 183.2 L 1653.5 189.2 L 1619.8 205.3 L 1579 194.2 L 1545.2 168.6 L 1513.1 159.1 L 1490.8 127.4 L 1466.1 82.8 L 1448.2 88.2 L 1426.9 77.2 L 1414.5 90.2 Z" />
<path class="neighbor" d="M 1009 608.1 L 1005.4 594.8 L 1019.8 545.7 L 1023.1 523.5 L 1033.6 513.2 L 1058.2 507.7 L 1075.1 488.7 L 1094.5 527.3 L 1103.7 558 L 1122 574.3 L 1167.6 605.8 L 1186.2 624.9 L 1204.3 644.1 L 1214.7 655.6 L 1231.2 665.7 L 1221.1 673.8 L 1206.8 670.9 L 1195.4 660.1 L 1181.6 640.5 L 1166.8 629.8 L 1158.2 618.3 L 1129.1 604.9 L 1106.2 604.5 L 1098.2 597.5 L 1078.6 605.3 L 1058.3 590.2 L 1047.9 615.1 L 1009 608.1 Z" />
<path class="neighbor" d="M 1529.1 455.2 L 1555.2 510.3 L 1566.1 533.7 L 1542 542.6 L 1535.5 557.5 L 1534.7 568.9 L 1501.5 583 L 1448.1 598.6 L 1418.2 622.1 L 1403.5 624 L 1393.4 622 L 1373.9 635.9 L 1352.6 642.3 L 1324.6 644 L 1316.1 645.9 L 1308.8 654.7 L 1300.1 657.2 L 1294.9 665.7 L 1278.4 664.9 L 1267.7 669.5 L 1244.6 667.8 L 1235.9 648.3 L 1236.9 630 L 1231.4 620.1 L 1224.9 595.4 L 1215.3 581.7 L 1221.9 580.1 L 1218.5 564.8 L 1222.6 558.4 L 1221.1 543.8 L 1235.8 533.1 L 1232.3 519.1 L 1241.2 502.6 L 1254.9 511.3 L 1264 508.3 L 1302.5 507.5 L 1308.6 510.9 L 1340.9 514.2 L 1353.7 512.6 L 1362.1 523.7 L 1377.7 518.1 L 1401.6 483 L 1432.8 468 L 1529.1 455.2 Z" />
<path class="neighbor" d="M 959.8 109.3 L 996.9 114.6 L 1011.4 104.3 L 1019.4 92.3 L 1044.9 87.6 L 1050.4 76.5 L 1061.4 70.8 L 1028.1 37.4 L 1095 20.6 L 1101.4 15.6 L 1141.6 24.6 L 1191.4 48 L 1285.6 115.2 L 1347.7 117.9 L 1377.4 121.1 L 1385.8 137 L 1409.4 136.1 L 1422.5 164.9 L 1438.9 172.6 L 1444.6 184.3 L 1467.4 198.3 L 1469.4 212.1 L 1466.1 223.3 L 1470.3 234.5 L 1479.9 243.8 L 1484.4 254.8 L 1489.3 263 L 1499.4 269.6 L 1508.7 267.2 L 1515 280 L 1516.3 287.7 L 1529.1 321.6 L 1629.5 338.4 L 1636.3 331.3 L 1651.6 355 L 1629.3 421.8 L 1529.1 455.2 L 1432.8 468 L 1401.6 483 L 1377.7 518.1 L 1362.1 523.7 L 1353.7 512.6 L 1340.9 514.2 L 1308.6 510.9 L 1302.5 507.5 L 1264 508.3 L 1254.9 511.3 L 1241.2 502.6 L 1232.3 519.1 L 1235.8 533.1 L 1221.1 543.8 L 1216.8 529.5 L 1206.7 519.5 L 1204.1 506.2 L 1186.8 494.2 L 1169 466.2 L 1159.6 439 L 1136.5 416 L 1121.6 410.5 L 1099.5 378.7 L 1095.6 355.4 L 1097.1 335.6 L 1077.9 298.6 L 1062.2 285.6 L 1044.2 278.7 L 1033.2 259.5 L 1035 252 L 1025.8 234.6 L 1016 227.2 L 1003 202.3 L 982.6 175.4 L 965.6 152.5 L 948.9 152.6 L 954.1 134.3 L 955.6 122.6 L 959.8 109.3 Z" />
<path class="neighbor" d="M 1023.6 355 L 891.1 355 L 761.5 355 L 627.2 355 L 627.2 232 L 627.2 113.2 L 617.2 86.3 L 625.8 65.7 L 620.6 51.4 L 632.7 35.4 L 677.1 34.8 L 709.3 43.6 L 742.4 53.5 L 757.9 58.7 L 783.6 48.1 L 797.4 38.6 L 826.8 35.8 L 850.6 40 L 859.7 56.6 L 867.4 45.7 L 894.2 53.6 L 920.3 55.5 L 936.7 47 L 936.7 47 L 955.3 95.7 L 958.6 104.4 L 949.3 117.9 L 942.1 143.1 L 933 160.5 L 925.2 166.3 L 914.1 155.5 L 899 140.6 L 875.2 92.7 L 871.7 95.8 L 885.6 131 L 906.1 164.6 L 931.3 216.6 L 943.7 234.8 L 954.4 253.7 L 984.4 290.6 L 977.7 296.5 L 978.8 318.2 L 1017.7 348.2 L 1023.6 355 Z" />
<path class="neighbor" d="M 627.2 355 L 627.2 421.7 L 588.8 421.8 L 588.4 435.8 L 455.1 371.9 L 321.9 307.9 L 288.2 326.2 L 264.5 338.6 L 245.8 320.2 L 192.9 305.8 L 178.3 284.9 L 151.9 269.4 L 136.3 275.5 L 124.4 256.9 L 123.1 242.6 L 103.4 218.2 L 116.6 204.3 L 113.7 183.3 L 118 165 L 115.6 149.8 L 121.4 122.5 L 119.6 107 L 108.8 77.5 L 125.1 69.8 L 128 55.6 L 124.5 41.8 L 147.4 28.9 L 157.7 18.2 L 174 8.6 L 175.9 -17 L 215.1 -5.5 L 229.1 -8.4 L 257 -2.8 L 301.4 12.1 L 317 41.8 L 347 48.3 L 394.1 62.3 L 429.6 78.9 L 445.9 70.2 L 461.9 54.8 L 454.2 29.3 L 464.6 13 L 488.7 -2.6 L 511.7 -7.2 L 556.9 -0.4 L 568.3 14.6 L 580.7 14.7 L 591.4 20.4 L 624.6 24.3 L 632.7 35.4 L 620.6 51.4 L 625.8 65.7 L 617.2 86.3 L 627.2 113.2 L 627.2 232 L 627.2 355 Z" />
<path class="neighbor" d="M 1388.4 822.6 L 1294 922.8 L 1250.5 924.3 L 1220.8 947.8 L 1199.3 948.5 L 1190.2 959 L 1167.4 959 L 1153.9 947.7 L 1123.4 961.7 L 1113.5 975.6 L 1091.3 972.9 L 1083.9 969.1 L 1076 970 L 1065.5 969.7 L 1023.2 941.3 L 999.9 941.3 L 988.5 930.3 L 988.5 911.6 L 971.2 906 L 951.4 869.6 L 936.2 861.9 L 930.3 848.5 L 913.4 832.2 L 892.9 829.8 L 904.3 810.8 L 922 810 L 927 799.8 L 926.5 769.8 L 936.4 734.8 L 952.2 725.4 L 955.6 711.8 L 969.9 686.3 L 990.1 669.7 L 1003.7 636.8 L 1009 608.1 L 1047.9 615.1 L 1058.3 590.2 L 1078.6 605.3 L 1098.2 597.5 L 1106.2 604.5 L 1129.1 604.9 L 1158.2 618.3 L 1166.8 629.8 L 1181.6 640.5 L 1195.4 660.1 L 1206.8 670.9 L 1195.1 685.7 L 1183.8 701.4 L 1186.4 710.6 L 1186.9 720.7 L 1205.5 721.3 L 1213.6 718.9 L 1221 724.9 L 1213.7 736.7 L 1226.1 755.1 L 1238.4 771.2 L 1251.1 783.1 L 1360.3 822.8 L 1388.4 822.6 Z" />
<path class="neighbor" d="M 1206.8 670.9 L 1221.1 673.8 L 1231.2 665.7 L 1239.1 676 L 1238 689.9 L 1219 697.9 L 1233.3 707 L 1221 724.9 L 1213.6 718.9 L 1205.5 721.3 L 1186.9 720.7 L 1186.4 710.6 L 1183.8 701.4 L 1195.1 685.7 L 1206.8 670.9 Z" />
<path class="neighbor" d="M 1427.2 708.7 L 1427.2 708.7 L 1426.9 709.3 L 1426.8 723 L 1426.8 756.7 L 1426.8 774.2 L 1411.7 794.7 L 1388.4 822.6 L 1360.3 822.8 L 1251.1 783.1 L 1238.4 771.2 L 1226.1 755.1 L 1213.7 736.7 L 1221 724.9 L 1233.3 707 L 1244.2 713.2 L 1250.7 727 L 1265.8 741 L 1282.4 741.1 L 1313.9 732.5 L 1350.2 728.6 L 1379.6 718.2 L 1396.2 716 L 1408.1 709.9 L 1427.2 708.7 L 1427.2 708.7 Z" />
<path class="neighbor" d="M 924.6 1121.6 L 856.5 1124.2 L 819.9 1123.8 L 808.2 1127.8 L 788.2 1138.1 L 780.2 1134.7 L 780.4 1109.5 L 788.2 1096.7 L 790.1 1069.9 L 797.1 1054.4 L 809.9 1037 L 822.7 1028.1 L 833.4 1016.2 L 820 1011.7 L 822.1 972.7 L 822.1 972.7 L 835.8 963.6 L 857.1 971 L 883.9 963.2 L 907.4 963.3 L 928 947.9 L 943.8 971.1 L 947.7 987.9 L 962.4 1026.2 L 950.3 1050.6 L 933.8 1072.7 L 924.3 1086.2 L 924.6 1121.6 Z" />
<path class="neighbor" d="M 822.1 972.7 L 792.7 950.5 L 784.7 936.2 L 766.1 943.3 L 750.7 941.1 L 741.7 946.7 L 726.7 942.6 L 706.5 915.1 L 701.1 904.5 L 676.2 891.2 L 667.7 871.2 L 653.8 856.8 L 631.3 839.4 L 631 828.5 L 612.7 815 L 590 802 L 600.3 798.3 L 611.7 792 L 620.3 762.2 L 629.5 746.7 L 653.6 742.1 L 659.3 751.3 L 676.5 770.8 L 685.7 773.7 L 697.8 767.9 L 721.8 769.1 L 726.4 775.9 L 759.7 775.9 L 760.8 769.1 L 778 762.8 L 781.5 753 L 794.1 746.1 L 822.2 765.6 L 839.4 762.2 L 856 738.1 L 874.4 719.8 L 871.5 699.7 L 863.5 689.9 L 883.6 688.2 L 885.8 680.8 L 901.3 683 L 897.3 707.7 L 901.3 731.8 L 918.5 745 L 922.5 756.5 L 922 773.1 L 926.6 773.7 L 927 799.8 L 922 810 L 904.3 810.8 L 892.9 829.8 L 913.4 832.2 L 930.3 848.5 L 936.2 861.9 L 951.4 869.6 L 971.2 906 L 948.5 928 L 928 947.9 L 907.4 963.3 L 883.9 963.2 L 857.1 971 L 835.8 963.6 L 822.1 972.7 Z" />
<path class="lake" d="M 843.4 1010.2 L 840.8 1013.7 L 840.4 1014.4 L 840.6 1016.4 L 841 1026.6 L 840.6 1027.9 L 839.9 1028.5 L 839.1 1028.6 L 838.4 1029.7 L 837.8 1031.7 L 836.6 1033.5 L 833.1 1036.3 L 831.9 1036.8 L 828.9 1037.7 L 828.1 1038.2 L 826.6 1038.9 L 824 1041.5 L 820.4 1046.2 L 818.5 1049 L 818.2 1050.1 L 814 1055.1 L 813.2 1055.5 L 812.2 1055.8 L 811.2 1055.1 L 810.9 1054.8 L 811 1052.5 L 810.6 1050.7 L 810.6 1049.7 L 811 1049.4 L 810.7 1048.8 L 810.2 1048.5 L 809.9 1047.9 L 809.2 1047.8 L 808 1048 L 807.6 1047.9 L 807.1 1046.6 L 808.9 1043.7 L 810.2 1040.9 L 811.9 1038.7 L 813.9 1037.1 L 816.7 1033.9 L 818.1 1033 L 823.2 1027.8 L 825.5 1025.9 L 827 1025.3 L 833.6 1020.6 L 836.3 1018 L 837.7 1015.5 L 839.1 1013.4 L 842 1010.1 L 843.5 1009.7 L 843.4 1010.2 L 843.4 1010.2 L 843.4 1010.2 Z" />
<path class="lake" d="M 284.5 653 L 284.6 653.6 L 283.7 654.1 L 282.9 654.8 L 282.6 655.9 L 281.8 656.2 L 280.4 655.9 L 279.5 656 L 277 656.3 L 275.6 657.2 L 273.3 659 L 271.3 659.8 L 269.6 659.5 L 268.9 658.9 L 268.4 656.1 L 268.4 655.5 L 269.2 655.2 L 269.4 654.7 L 270 653.5 L 270.1 652.9 L 270.2 652.7 L 270.8 651.7 L 270.8 651.1 L 271.2 650.2 L 272.1 649.5 L 273.6 648.7 L 276.3 647.7 L 278.3 647.7 L 279.5 648.5 L 281.6 648.7 L 282.1 649.1 L 283.3 651.1 L 284.5 653 L 284.5 653 L 284.5 653 Z" />
<path class="lake" d="M 1037.6 695.9 L 1036.5 695.1 L 1035.1 695 L 1033.7 695.2 L 1032.9 694.6 L 1031.8 693.9 L 1031.2 694.4 L 1030.6 694.7 L 1030 694.6 L 1029.4 694 L 1028.8 693.1 L 1028.1 692.2 L 1028.2 690 L 1028.3 688.1 L 1028.6 686.1 L 1029 683.5 L 1029.6 682 L 1030.4 680.9 L 1031.2 680.2 L 1032.2 680 L 1033.5 680.4 L 1034.5 681.3 L 1035.4 681.4 L 1037 681.6 L 1039.1 679.9 L 1040.6 679.4 L 1041.8 679.3 L 1043.4 678.9 L 1044.6 679.5 L 1045.7 680.4 L 1046.6 681.6 L 1046.9 683.5 L 1047.8 685.1 L 1047.6 686.2 L 1047.5 687.4 L 1047.3 688.4 L 1046.7 689.5 L 1046.4 691 L 1045.2 692 L 1044.8 693.2 L 1044.6 694.6 L 1042.7 697.3 L 1041 701.3 L 1040.1 701.2 L 1039.5 701.3 L 1039 701.2 L 1038.7 700.8 L 1038.1 700.1 L 1038.8 698.8 L 1038.3 697.7 L 1037.7 696.7 L 1037.6 695.9 L 1037.6 695.9 L 1037.6 695.9 Z" />
<path class="lake" d="M 1017.5 1005.1 L 1015.8 1008.9 L 1013.7 1009.5 L 1012.5 1008.1 L 1008.8 998.5 L 1005.7 993.9 L 1002.7 990.8 L 1001.3 990.6 L 999.8 988.4 L 998.4 984.1 L 995.9 980.8 L 993.5 977.4 L 992.5 973.6 L 991.8 972.3 L 990.4 969.7 L 989.5 963.8 L 989.9 960.4 L 990.9 955 L 991.9 947.2 L 992.1 943.4 L 993 937.8 L 994.5 937.4 L 996.1 938.3 L 997.1 937.7 L 997.9 935.5 L 999.1 934.5 L 999.8 934.4 L 1000.4 935.2 L 1001.2 941.9 L 1001.8 951.3 L 1001.7 954.5 L 1002.2 960.3 L 1002 973.9 L 1005 982.8 L 1008.9 989.3 L 1012.6 992.2 L 1016.4 994.4 L 1017.9 998.8 L 1017.5 1005.1 L 1017.5 1005.1 L 1017.5 1005.1 L 1017.5 1005.1 Z" />
<path class="lake" d="M 1063.3 870.2 L 1064.8 870.2 L 1066 870.2 L 1066.2 870.8 L 1065.8 872.1 L 1065.3 873.7 L 1065 874.5 L 1064.4 875.3 L 1063.4 876.8 L 1061.9 879.2 L 1059.6 882.7 L 1057.3 885.8 L 1056.2 887 L 1054.8 887.8 L 1052.7 889 L 1051.4 889 L 1051.3 888 L 1051.7 886.5 L 1052.9 884.9 L 1054.4 883.7 L 1055.6 883.2 L 1056.9 882.1 L 1057.7 880.7 L 1057.3 877.4 L 1056.9 874.3 L 1057.1 873.1 L 1059.3 871.2 L 1062 869.8 L 1063.3 870.2 L 1063.3 870.2 L 1063.3 870.2 L 1063.3 870.2 Z" />
<path class="lake" d="M 1210 699.8 L 1209.8 701.1 L 1209 701.4 L 1208.4 700.9 L 1208.3 700 L 1208.4 699.3 L 1208.8 698.7 L 1209.6 699.2 L 1210 699.8 L 1210 699.8 L 1210 699.8 Z" />
<path class="lake" d="M 910.7 1035 L 909.2 1035.1 L 905.6 1035.7 L 902 1036.9 L 899.8 1038.4 L 898.6 1039.7 L 899.1 1040.4 L 901.3 1040.6 L 903 1040.8 L 902.8 1041.3 L 901.4 1042.1 L 901 1043.1 L 902.5 1043.6 L 903.8 1043 L 904.5 1042.5 L 905 1042.5 L 905.2 1043.2 L 905.3 1044.6 L 904.6 1046.3 L 903.5 1048 L 903.1 1049 L 902.1 1048 L 900 1046.8 L 898.5 1046 L 895.1 1043.7 L 891 1042.1 L 890 1042.1 L 889.9 1042.5 L 890 1043 L 890.8 1043.8 L 890.8 1046.1 L 889.7 1045.4 L 888.5 1043.5 L 887.3 1043.1 L 886.5 1043.3 L 886.1 1044.5 L 885.8 1045.1 L 883.1 1043.9 L 880.4 1042.8 L 879.5 1041.9 L 878.9 1039.9 L 879.2 1039.1 L 881.4 1039.3 L 885.6 1038.3 L 887.8 1037.1 L 887.8 1037.4 L 887.7 1037.9 L 888.1 1038.1 L 889.8 1037.9 L 892.3 1037.7 L 893.8 1038 L 894.4 1038.2 L 895.2 1037.8 L 896.6 1036.4 L 897.8 1035.3 L 898.2 1035.6 L 898.7 1035.9 L 899.9 1035.2 L 901.3 1034.4 L 902.3 1034.1 L 903.4 1034.3 L 904.8 1034.6 L 906.4 1033.9 L 908.2 1032.1 L 909.3 1032.2 L 909.7 1033.6 L 910.2 1034.1 L 910.5 1034.7 L 910.7 1035 L 910.7 1035 L 910.7 1035 L 910.7 1035 Z" />
<path class="lake" d="M 868.8 332.5 L 866.6 332.3 L 865.3 332 L 864.2 332.2 L 862.9 332.8 L 861.7 333.8 L 860.6 335 L 859.7 335.9 L 859.4 337.1 L 858.9 338.9 L 857.6 340.3 L 856.2 341.1 L 855.4 342.3 L 855.2 343.3 L 854 343 L 852.5 342.9 L 851.4 343.3 L 850.8 343.8 L 850.3 344.1 L 849.8 344.2 L 849.2 344.6 L 849 345.1 L 849.2 345.9 L 848.5 346.9 L 846.1 348 L 843.9 349.7 L 842.3 351.6 L 841.4 353.1 L 840.7 355.5 L 839.5 359 L 838.3 361.3 L 837.4 362.2 L 836.2 362.9 L 834.4 364.7 L 832.8 366.7 L 831.7 368 L 830.6 368.1 L 831.3 366 L 833.3 363.4 L 835.5 360.1 L 837.7 357.3 L 838.8 354.7 L 840 351.6 L 842.6 348 L 847.4 343.7 L 850.5 340.6 L 851.1 339.9 L 852.3 339.3 L 853.8 338.8 L 852.7 337.1 L 850.3 334.8 L 850.2 334.1 L 852 334.9 L 854.1 336 L 855.1 336.1 L 855.7 335.5 L 856.5 334.5 L 857.2 333.6 L 858 332.9 L 859.8 331.7 L 861.8 330.5 L 863.1 329.9 L 864 329.5 L 865.4 328.9 L 866.6 328.7 L 867.4 329 L 868.4 329.3 L 870.8 330.9 L 872.3 331.9 L 874.8 331.8 L 877.7 329.7 L 878.6 328.5 L 879.1 327.3 L 879.8 325 L 880.5 324 L 881.5 322.7 L 882.2 321.5 L 883.3 319 L 884.4 316.5 L 885.7 313.9 L 887.3 312.5 L 888.4 312.3 L 888.8 311.8 L 889.2 311 L 889.6 310.2 L 889.4 308.8 L 889.5 307 L 889.1 305.5 L 887.3 304.8 L 885.8 304.4 L 884.6 305.1 L 883.1 305.8 L 881.8 305.7 L 881 305 L 882.7 303.8 L 884.6 302.5 L 884.3 302 L 883.6 301.8 L 883.1 302.2 L 882.6 302.6 L 881.9 302 L 882.9 300.5 L 885.7 300.7 L 887.7 302.1 L 888.9 300.9 L 889.5 299 L 889.2 298 L 889.4 297.1 L 890.1 296.2 L 890.2 295.2 L 889.9 293.9 L 888.7 292.4 L 888.5 291.2 L 890.4 288.6 L 892.2 290.2 L 892.6 295.2 L 893.9 298.4 L 893.8 299.7 L 892.8 300.1 L 891.8 300.4 L 891.4 301.2 L 891.4 302.1 L 891.9 302.6 L 892.5 302.8 L 892.8 303.1 L 894 303.9 L 894.6 304.6 L 892.8 304.6 L 891.8 305.4 L 892.6 307.2 L 893.7 308.4 L 894.1 309.2 L 894.3 310.3 L 894.6 311.6 L 894.7 312.9 L 894.7 313.7 L 894.2 313.9 L 893 313.6 L 891.8 313.3 L 892.1 314.8 L 891.4 316.2 L 889.9 316.4 L 889.5 316.8 L 889.6 317.7 L 890 318.7 L 891.3 319.9 L 892.5 321.5 L 894.1 323.1 L 893.5 323.8 L 889.7 322.3 L 887.2 320.3 L 885.9 320.5 L 885.7 321.3 L 885.1 322.5 L 884.6 323.4 L 884.1 323.7 L 883.1 324.2 L 882.1 324.7 L 881.7 325.1 L 881.4 326 L 881.3 327.5 L 880.6 328.8 L 878.3 330.8 L 875.4 333.3 L 873.3 334.8 L 872.1 335.6 L 872 336.6 L 870.9 337.3 L 869.5 337.1 L 869.3 336.7 L 870 336.2 L 871 335.2 L 870.9 334.6 L 870.3 334.2 L 869.6 333.6 L 869 333 L 868.8 332.5 L 868.8 332.5 L 868.8 332.5 L 868.8 332.5 Z" />
<path class="country" d="M 612.7 815 L 587.3 800.4 L 575.7 790.8 L 573.6 780.4 L 579 766.5 L 578.9 752.9 L 559.6 732 L 555.8 717.7 L 556.2 709.6 L 544 699.8 L 543.6 680.3 L 536.6 667.5 L 524.9 669.4 L 528.2 657.1 L 536.9 643.2 L 533.1 629.4 L 544.1 619.1 L 537.1 611.3 L 545.9 590.7 L 561.2 566.1 L 590 568.4 L 588.4 435.8 L 588.8 421.8 L 627.2 421.7 L 627.2 355 L 761.5 355 L 891.1 355 L 1023.6 355 L 1034.3 387.8 L 1027 393.8 L 1031.9 428.2 L 1044.1 468.1 L 1056.9 476.3 L 1075.1 488.7 L 1058.2 507.7 L 1033.6 513.2 L 1023.1 523.5 L 1019.8 545.7 L 1005.4 594.8 L 1009 608.1 L 1003.7 636.8 L 990.1 669.7 L 969.9 686.3 L 955.6 711.8 L 952.2 725.4 L 936.4 734.8 L 926.5 769.8 L 927 799.8 L 926.6 773.7 L 922 773.1 L 922.5 756.5 L 918.5 745 L 901.3 731.8 L 897.3 707.7 L 901.3 683 L 885.8 680.8 L 883.6 688.2 L 863.5 689.9 L 871.5 699.7 L 874.4 719.8 L 856 738.1 L 839.4 762.2 L 822.2 765.6 L 794.1 746.1 L 781.5 753 L 778 762.8 L 760.8 769.1 L 759.7 775.9 L 726.4 775.9 L 721.8 769.1 L 697.8 767.9 L 685.7 773.7 L 676.5 770.8 L 659.3 751.3 L 653.6 742.1 L 629.5 746.7 L 620.3 762.2 L 611.7 792 L 600.3 798.3 L 590 802 L 612.7 815 Z" />

<path class="river" d="M 1031.8 693.9 L 1033.1 692.6 L 1034.6 692.2 L 1036.9 692.3 L 1038.7 694.6 L 1041 701.3" />
<path class="river" d="M 839.9 1016.6 L 839.5 1014.6 L 840.4 1012.9 L 843.5 1009.7" />
<path class="river" d="M 992.1 591 L 991.3 593.4 L 991.1 601.5" />
<path class="river" d="M 940.5 696.3 L 941.5 701.1 L 944.8 705.2 L 953.8 712.5" />
<path class="river" d="M 890.4 288.6 L 891.4 294.6 L 891.2 298.3 L 890.1 301.8 L 890.3 305.5 L 891.2 307.7 L 891.6 310.5 L 889.6 314.7 L 883.7 321.3 L 880.6 325.7 L 880.3 328.1 L 878.2 330.3 L 875 332.6 L 871.9 333.2 L 868.8 331 L 865.6 330.5 L 862.4 331.6 L 859.7 334 L 857.5 337.4 L 852.2 341.8 L 845.8 346.6 L 841 351.9 L 839.7 355.7 L 837 360.2 L 830.6 368.1" />
<path class="river" d="M 775.9 1110.2 L 780.8 1094.4 M 839.9 1016.6 L 832.9 1025.7 L 825.7 1033.7 L 810.2 1048.5" />
<path class="river" d="M 900.7 1075.6 L 903.1 1077.2 L 902.2 1080.1 L 898.7 1084.6 L 895 1091.6 L 891 1101.2 L 885.9 1108.1 L 879.7 1112.5 L 870.8 1116.3 L 853.3 1121.1 M 879.2 1039.1 L 881.5 1041.3 L 883.9 1042.2 L 887.1 1042.4 L 888.9 1043 L 890.8 1046.1 M 869.1 1034.2 L 876.9 1038.1" />
<path class="river" d="M 1034 721.2 L 1028.8 716 L 1027.4 712.9 L 1028.5 708.5 L 1029.7 703.1 L 1031.3 700.5 L 1033.6 699.1 L 1034 697.2 L 1031.8 693.9" />
<path class="river" d="M 1041 701.3 L 1041.2 703.4 L 1043.1 704.6 L 1046.7 705.6 L 1050.8 708.4 L 1055.2 712.8 L 1062.1 716.2 L 1071.5 718.6 L 1076.9 721.2 L 1078.1 724.1 L 1078.6 730.1 L 1078.2 739 L 1077.4 745.4 L 1076.1 749.2 L 1074 751.3 L 1071.1 751.7 L 1065.1 754.2 L 1056.1 758.8 L 1050.1 759.7 L 1047.2 757 L 1044.4 755.2 L 1041.7 754.2 L 1039.9 754.1 L 1039 754.8 L 1038.3 754.5 L 1037.9 753.3 L 1036.8 752.4 L 1035.1 751.7 L 1034.3 750.4 L 1034.5 748.4 L 1033.3 746.9 L 1029.6 745.7 L 1017.3 743.8 L 1012.7 742.4 L 1011.8 740.7 L 1010.8 740.2 L 1009.6 740.7 L 1007.8 743.3 L 1005.3 748.1 L 1001.5 750.7 L 996.5 751.1 L 993.2 752.1 L 991.7 753.9 L 989.6 754.7 L 986.9 754.4 L 985.5 754.9 L 985.4 755.6 L 985.3 755.9 L 984.8 756 L 982.2 755.3 L 973.6 751.2 L 973 750.7" />
<path class="river" d="M 861.5 969.2 L 858.9 972 L 857.2 972.7 L 855.6 972.1 L 853.8 972.2 L 851.8 973 L 848.4 977.5 L 843.8 985.8 L 841.1 991.3 L 840.4 994.2 L 840.6 996.2 L 841.7 997.4 L 842.1 999.1 L 841.9 1001.3 L 842.6 1003.4 L 844.4 1005.4 L 844.8 1007.2 L 843.5 1009.7" />
<path class="river" d="M 980.7 555.4 L 973 545 L 970.3 540.5 L 970.2 538.6 L 967.6 534.3 L 962.4 527.6 L 959.7 523.3 L 959.4 521.4 L 953.5 517.4 L 941.9 511.4 L 935.4 506.9 L 934.1 503.9 L 931.9 501.8 L 926.2 498.7 M 980.8 555.3 L 981.7 564.9 L 985.1 573.1 L 991.3 583.2 L 993 587.3 L 993.2 588.9 L 992.1 591" />
<path class="river" d="M 812.1 830.4 L 814.9 821.6 L 815.8 815.6 L 815.6 809.3 L 816.6 805.4 L 818.6 803.9 L 820.4 801.2 L 821.9 797.3 L 822.3 793.5 L 821.6 789.7 L 824 784.6 L 832.3 775" />
<path class="river" d="M 861.5 969.2 L 851.4 958.1 L 847.2 952.9 L 845.8 949.8 L 844.9 945.4 L 844.6 939.7 L 845.2 936 L 846.7 934.3 L 848.8 929 L 851.6 920 L 853.3 912.9 L 853.9 907.7 L 854 903.2 L 853.5 899.4 L 852.4 896.1 L 850.1 891.8 L 843 877.6 L 838.6 870 L 832.6 861.7" />
<path class="river" d="M 832.6 861.7 L 825 856.6 L 819.9 851 L 814.8 843 L 812.5 838.7 L 812.9 837.9 L 812.5 836.6 L 811.3 834.9 L 811.2 832.9 L 812.1 830.5 L 811.2 826.7 L 808.4 821.4 L 806.4 818.5 L 805.2 817.9 L 805 815.1 L 805.8 809.9 L 805.5 806.5 L 804.1 804.8 L 803.7 802.9 L 804.2 800.8 L 803.9 799.1 L 802.5 797.9 L 801.5 795.3 L 800.9 791.5 L 802 787.8 L 804.8 784.3 L 805.9 781.3 L 805.3 778.9 L 806.6 776.1 L 809.6 772.9 L 814.9 771.5 L 822.5 771.9 L 827.6 772.8 L 831.8 774.8" />
<path class="river" d="M 451.2 838.1 L 447.7 837.3 L 446.5 836 L 446.5 833.8 L 444.3 831.8 L 439.7 830.1 L 437.8 826.5 L 438.4 821 L 436.3 814.4 L 428.9 802.7 L 430.4 800.7 L 428.9 798.8 L 423 794.7" />
<path class="river" d="M 243.8 830.1 L 248.8 827.5 L 250.3 825.3 L 249.9 822.4 L 250.9 820.3 L 254.7 818 L 258.4 814.6 L 259.7 812.2 L 259.7 809.7 L 259 807.5 L 257.4 805.7 L 257.3 802.7 L 258.6 798.4 L 257.2 794.8 L 253.1 792 L 249.1 787.4 L 245.2 781.1 L 242.2 778.8 L 240.1 780.4 L 237 781.7 L 232.9 782.6 L 229.2 781.8 L 223.9 778.1 L 220.4 776.7 L 216.9 777.5 L 212.3 780 L 208.2 779 L 204.4 774.5 L 199.4 772.4 L 190.4 772.9" />
<path class="river" d="M 423 794.7 L 421.5 795.4 L 418.7 794.5 L 414.2 792.1 L 409.2 787.9 L 401.1 778.6 L 386.4 765.1 L 380.8 758.8 L 379.4 755 L 377.3 751.5 L 372.4 746 L 370.5 744.2 L 368.2 742.9 L 365.6 742.2 L 363.4 740.6 L 361.7 738.3 L 360.1 737 L 358.7 736.7 L 355.8 737.5 L 351.3 739.5 L 347 739.8 L 342.7 738.4 L 337.9 735.9 L 332.6 732.2 L 327.1 730 L 321.5 729.4 L 316.9 728 L 313.3 725.9 L 310.5 723.9 L 308.7 721.8 L 307.6 718.9 L 307.3 715.3 L 306 710.9 L 303.9 705.9 L 303.2 701.1 L 303.9 696.6 L 302.6 692.5 L 299.3 688.8 L 295.7 686.2 M 295.7 686.2 L 291.5 687.6 L 287.9 686.6 L 282.8 684.2 L 279.2 681.7 L 277.1 679.1 L 273.6 677.5 L 268.9 677.1 L 266.3 676.2 L 265.6 673.3 M 295.7 686.2 L 291.7 684.7 L 289.2 680 L 288 672.3 L 285.2 667.1 L 280.6 664.7 L 277.9 661.6 L 277 656.3" />
<path class="river" d="M 675.3 1366.2 L 682.4 1364.6 L 685.4 1363.6 L 686.5 1362.6 L 687.1 1361.3 L 687.1 1359.4 L 688.6 1357.5 L 691.6 1355.4 L 693.1 1353.8 L 693.1 1352.6 L 691.6 1350.6 L 688.6 1347.8 L 689.5 1341.4 L 694.3 1331.4 L 695.6 1323.4 L 693.5 1317.5 L 692.7 1312.5 L 693.3 1308.2 L 693 1304.4 L 691.7 1301 L 690.9 1296.1 L 690.5 1289.7 L 690.7 1284.2 L 691.7 1277.3 M 603.5 1063.8 L 599.7 1059 L 593.9 1055.8 L 584.9 1052.4 L 575.8 1045.1 L 566.5 1033.8 L 559.3 1027.3 L 551.5 1024.7 L 545.6 1019.7 L 540.2 1017.7 L 533.5 1017.1 L 525.9 1017.1 L 517.6 1017.8 L 510.2 1019.3 L 503.7 1021.7 L 491.7 1023.3 L 474.1 1024 L 456.9 1027.6 L 431.5 1037.3 L 417.2 1049 L 410.9 1054.7 L 407.9 1058.4 L 404.8 1066.8 L 400 1086.6 L 399.5 1087.8 L 397 1094 L 390 1102.9 L 385.1 1108.2 L 378.1 1115.8 L 369.3 1123.3 L 363.5 1125.4 L 359.1 1128 L 355.9 1130.8 L 354.9 1132.4 L 352.6 1135.9 L 347.3 1146.6 L 344.6 1151.4 L 341 1155.4 L 335.7 1160.3 L 333.7 1162.6 L 332.9 1166 L 333.3 1172.2 L 333.8 1191.1 L 332.9 1196.6 L 331.5 1205.6 L 326.2 1215.7 L 322.3 1221.3 L 318.4 1223 L 313.2 1224.5 L 310.7 1226.4 L 309.2 1229.2 L 306.3 1231.7 L 302.1 1233.8 L 296.7 1238.9 L 290.2 1247.1 L 285.8 1251.8 L 283.4 1253 L 280.9 1253.1 L 278.4 1252.1 L 276.2 1252 L 273.7 1253 L 267.6 1254 L 264.2 1255.1 L 261.5 1256.6 L 259.9 1258.6 L 259.2 1261.2 L 257.7 1263.7 L 255.2 1266.2 L 254.1 1267 L 253.4 1267 L 252.3 1266.2 L 251.5 1266.2 L 250.9 1267 L 249.5 1267.3 L 247.2 1266.9 L 245.5 1267.5 L 244.5 1268.9 L 244.7 1270.7 L 246.2 1273 L 246.1 1274 L 245.2 1274.7 L 244.8 1276.1 L 245.2 1278.8 L 243.4 1281.7 L 239.7 1285 L 236.4 1286.4 L 232.5 1285.5 L 228.6 1285.8" />
<path class="river" d="M 831.8 774.8 L 839.2 777 L 842.7 777.4 L 844.9 776.7 L 847 774.4 L 849 770.5 L 852.5 767.3 L 857.6 764.8 L 862.2 761.4 L 866.3 756.9 L 868.8 753.4 L 869.9 750.9 L 870 747.6 L 869.2 743.5 L 867.7 741.3 L 865.7 741 L 864.6 740.1 L 864.6 738.8 L 869 733.9 L 878.1 725.5 L 882.6 719 L 882.5 714.4 L 883.5 708.6 L 885.6 701.6 L 886.5 695.9 L 886 689.2 L 885.4 682.7 L 885.8 677.9 L 887.2 672.7 L 887.4 667.3 L 886.6 661.6 L 886.6 657.7 L 887.6 655.5 L 886.1 651.7 L 882.2 646.4 L 880.6 641.5 L 881.2 637 L 880.6 634.3 L 878.9 633.5 L 877.7 632.1 L 877.1 630.1 L 875.7 628.1 L 873.5 626 L 870.9 621.2 L 867.8 613.4 L 866.7 606.7 L 867.6 601 L 869.8 596.1 L 873.4 592.1 L 875.7 584.5 L 877.4 567.6" />
<path class="river" d="M 973 750.7 L 972.7 749.6 L 971 742.1 L 969.3 738.6 L 966.2 736.7 L 967.3 723.3 L 966.6 717.8 L 964.5 715.7 L 961 714.1 L 953.8 712.5 M 940.5 696.3 L 938.6 687.4 L 938.4 682.6 L 939.2 678.7 L 937.9 675.6 L 934.5 673.1 L 933.1 671.2 L 933.7 669.9 L 933.7 667.8 L 932.9 664.7 L 931.7 662.2 L 930 660.2 L 929.1 659.9 L 927.8 658.9 L 927.2 657 L 926.5 650.8 L 925.5 647 L 924.1 645.6 L 922.1 644.8 L 919.3 644.5 L 917.5 642.9 L 916.9 640.1 L 915.8 637.9 L 914.2 636.5 L 913.9 635 L 914.7 633.3 L 914.5 632 L 913.7 631.1 L 913.8 630.4 L 914.3 629.9 L 914.4 629.1 L 913.8 628.3 L 913.6 627.6 L 913.8 627 L 914.3 626.7 L 914.6 626 L 914.2 624.3 L 914.8 621.9 L 916.4 618.6 L 913.3 610.7 L 905.7 598.3 L 901.5 590.3 L 900.7 586.7 L 898.9 583.5 L 896 580.7 L 892.7 578.7 L 889.1 577.5 L 885.6 574.7 L 882 570.3 L 879.5 568 L 877.4 567.6" />
<path class="river" d="M 1087.3 869.3 L 1085.6 871.4 L 1086.8 874.3 L 1092.2 881 L 1094.5 885.3 L 1098.5 887.6 L 1106.8 890.1 L 1107.8 890.5 L 1108.4 891.1 L 1110.8 896.3 L 1113.5 898.7 L 1116.7 899.2 L 1118.3 900.9 L 1118.2 903.8 L 1119.4 905.3 L 1121.9 905.5 L 1124.2 906.6 L 1126.4 908.6 L 1129.3 910 L 1132.8 910.7 L 1137.4 910.5 L 1143.1 909.5 L 1149.2 906.6 L 1155.8 901.9 L 1160.1 899.4 L 1162.2 899.2 L 1164.1 899.7 L 1165.8 900.8 L 1168.2 905.3 L 1171.3 913.1 L 1174.8 919.9 L 1178.9 925.5 L 1181 929.5 L 1181.3 932 L 1184.5 936.3 L 1193.9 945.5" />
<path class="river" d="M 1193.9 945.5 L 1196 946.6 L 1196.9 947.8 L 1197.3 949.4 L 1199.1 950.5 L 1202.4 951.1 L 1206.5 953.7 L 1211.4 958.2 L 1213.2 963.1 L 1211.7 968.5 L 1211.7 972.2 L 1213 974.5 L 1212.9 976.4 L 1211.4 978 L 1210.9 980.3 L 1211.3 983.4 L 1212.3 985.3 L 1213.8 986.1 L 1214.3 987.3 L 1213.8 989 L 1211.8 991.6 L 1208.2 995.1 L 1206.6 998 L 1207.1 1000.5 L 1206.6 1002.6 L 1205.2 1004.4 L 1204.9 1006.3 L 1205.8 1008.2 L 1205.6 1010.1 L 1204.2 1012 L 1202.7 1012.4 L 1201 1011.5 L 1199.9 1011.5 L 1199.3 1012.7 L 1199.9 1013.7 L 1201.7 1014.7 L 1201.9 1015.7 L 1200.3 1016.8 L 1201 1018.6 L 1203.9 1021 L 1205 1023.3 L 1204.2 1025.4 L 1205.3 1028.6 L 1208 1032.7 L 1209.3 1035.9 L 1209 1038 L 1209.2 1039.4 L 1209.2 1041.1 L 1210.5 1044 L 1213.8 1049.2 L 1215.3 1054.1 L 1214.9 1058.8 L 1216 1062.9 L 1218.4 1066.3 L 1219.7 1070.5 L 1220.1 1077.8 L 1219.4 1085.4 L 1217.9 1089.4 L 1215.4 1092.3 L 1214.6 1094.8 L 1216.2 1098.3" />
<path class="river" d="M 280.3 894 L 280.3 906.3 L 276.2 913.3 L 275.2 916.8 L 275.9 919.2 L 274.3 921.9 L 270.4 924.9 L 268.2 929.7 L 267.9 936.3 L 269.7 941.9 L 273.7 946.5 L 276.4 948.6 L 277.7 948.6 L 278.8 949.2 L 278.9 949.9 L 280.5 950.5 L 282.5 949.4 L 284.9 948.7 L 287.4 948.6 L 288.9 949.5 L 289.6 951.4 L 291.7 952.3 L 295.3 952.4 L 298.1 953.2 L 301 955.6 L 305.4 954.4 L 308.2 954.7 L 310.9 956.1 L 312.5 958.6 L 312.9 962.1 L 314.9 964.4 L 318.4 965.5 L 322.6 968 L 327.6 971.8 L 330.2 976.3 L 330.2 981.5 L 331.8 986.2 L 335 990.6 L 335.3 992.2 L 334.7 993.6 L 332.4 995.6 L 330.5 999.2 L 329.7 1003.1 L 330.1 1007.3 L 331.1 1010.9 L 332.7 1014.1 L 332.4 1016.2 L 330.4 1017.5 L 329.2 1019.5 L 328.9 1022.4 L 329.5 1025.8 L 331.1 1029.9 L 331.1 1032.6 L 329.8 1034.6" />
<path class="river" d="M 806.6 1012 L 808.9 1000.9 L 806.3 995.5 L 803.5 993.8 L 799.5 993.8 L 794.5 992.2 L 788.4 988.9 L 783.5 987 L 779.9 986.5 L 777.8 984.7 L 777.3 981.4 L 775.5 979.6 L 772.4 979.6 L 769 976.9 L 765.3 971.8 L 761.9 969.7 L 758.7 970.7 L 754.6 970.8 L 747 969.8" />
<path class="river" d="M 491.4 844.6 L 487.9 847.4 L 485.8 848.2 L 484 848.1 L 482.7 849 L 481.8 850.9 L 480.1 852.6 L 476.4 854.5 L 473 855.2 L 470.3 854.9 L 467.3 854 L 463.7 852.1 L 459.6 849.3 L 455.9 845.4 L 451.2 838.1" />
<path class="river" d="M 282 866.1 L 283.3 867.4 L 282.7 869.9 L 279.6 876.3 L 275.5 879.4 L 274.1 882 L 274.2 885.3 L 273.7 888.1 L 272.6 890.2 L 270.2 891.9 L 266.5 893.1 L 264.1 895.7 L 263.1 899.5 L 262 901.5 L 260.7 901.6 L 259.4 902.6 L 258.1 904.5 L 256.7 905.4 L 255.3 905.2 L 254.7 906.2 L 255 908.3 L 253.1 910.4 L 249 912.5 L 246.2 912.9 L 244 910.9 L 241.9 910.1 L 240.5 910.8 L 239 912.6 L 238.5 915.1 L 239.1 918.2 L 238.3 921 L 236.3 923.6 L 234.1 924.9 L 230.5 925.1" />
<path class="river" d="M 877.4 567.6 L 878.9 554.1 L 882 546.9 L 887.2 541.5 L 892 538.5 L 896.4 537.9 L 899.9 536.5 L 902.5 534.4 L 906.4 532.5 L 911.7 530.8 L 915.6 527.9 L 918 523.9 L 918.9 521.1 L 918.2 519.4 L 918.3 517 L 919.1 513.8 L 921.5 509.4 L 925.3 503.7 L 926.2 498.7 L 926.8 495.6 L 925.9 485 L 924.5 479.3 L 922.6 478.4 L 920.6 476.5 L 918.4 473.4 L 917.2 470.1 L 917 466.5 L 916 464.4 L 914.1 463.9 L 913.4 460.3 L 913.6 453.8 L 912.4 449.4 L 909.9 447.3 L 908.2 444.9 L 907.1 441.1 L 899 438.4 L 895 438.2 L 892.4 439.4 L 889 442.4 L 885 447.3 L 881.7 449.8 L 879.2 450.1 L 876.6 452.4 L 873.9 456.8 L 871.2 458.9 L 868.7 458.8 L 866.1 459.7 L 863.5 461.5 L 862.3 463.8 L 862.5 466.5 L 861.2 468.4 L 858.4 469.2 L 854.3 473.5 L 849.1 481.2 L 843.4 486 L 837.5 488.1 L 832.5 488.6 L 828.4 487.4 L 824.6 485.7 L 821.2 483.5 L 819.1 480 L 818.1 475.3 L 816.7 471.9 L 814.8 469.8 L 813 466.6 L 811.3 462.1 L 810.4 455.6 L 810.5 447.1 L 809.5 439.5 L 807.4 432.8 L 805.9 428.9 L 805.8 427.8 L 806.6 426.6 L 810.9 424.7 L 813.4 422.9 L 814.1 421.3 L 814.2 418.5 L 814 414.7 L 813.3 412.1 L 812.2 410.8 L 810.6 410.1 L 808.3 409.8 L 806.4 407.9 L 804.9 404.2 L 804.8 401.2 L 806 399 L 806.3 397.3 L 806.6 395.9 L 807.5 394.9 L 811.3 393.7 L 813.5 391.7 L 814.1 388.9 L 815.3 386.9 L 817.1 385.9 L 817.9 384.4 L 817.5 382.5 L 819.7 380.1 L 824.4 377.1 L 826.6 375.1 L 826.4 373.9 L 827.4 371.9 L 830.6 368.1 M 890.4 288.6 L 891.5 277.2 L 891.5 273 L 890.7 272.2 L 890.8 270.2 L 891.7 266.8 L 891.8 262.5 L 890.9 257 L 890.1 253.5 L 889.3 252 L 886.6 249.8 L 882 246.8 L 879.1 243.1 L 877.8 238.6 L 877.5 235.9 L 878.5 234.3 L 884.5 229.6 L 886.5 225.4 L 886.5 220.2 L 885.5 217.1 L 883.6 215.9 L 879.5 216.6 L 873.1 219.1 L 868.7 218.8 L 866.2 215.7 L 864.2 215.1 L 862.4 215 L 861.5 214.7 L 860.9 213.1 L 859.9 211.4 L 856.7 208.9 L 855 206.5 L 854.7 204.4 L 853.7 203.3 L 852 203.2 L 851.2 202.5 L 851.4 201.2 L 850.8 200.3 L 849.5 199.9 L 846.1 195.9 L 839.9 187.6 L 839 186.1 L 837.7 184.7 L 836.9 183.9 L 835.8 183.2 L 826.6 176.1 L 823.2 171.3 L 823.9 167.3 L 823.7 162.3 L 823.5 157.9 L 823 155.1 L 822.2 153.3 L 821.2 151.7 L 820.1 150.6 L 819.1 149 L 818.9 146.9 L 819.7 144.3 L 821.3 141.2 L 822.1 138.1 L 822.2 135.1 L 822.9 131.8 L 824.2 128.1 L 827.4 123.1 L 832.5 116.6 L 834.9 111.8 L 834.8 108.5 L 835.5 104.8 L 837 100.8 L 837.2 95 L 836.1 87.8 L 836.1 85.1 L 835.5 83.7" />
<path class="river" d="M 1029.1 784.2 L 1029.1 787.5 L 1030.3 789.3 L 1032.7 790.8 L 1034.2 792.4 L 1034.8 794.7 L 1033.3 797.9 L 1033 799.5 L 1033.6 800.7 L 1041.7 810.5 L 1045.3 813.9 L 1047.2 815 L 1048.1 818.9 L 1047.7 826.8 L 1045.6 834.4 L 1041.7 841.8 L 1040.6 846.5 L 1042.3 848.4 L 1043.9 849.3 L 1045.4 849.3 L 1045.5 849.9 L 1044.2 851.1 L 1043.1 853.7 L 1042.4 857.5 L 1041.3 859.6 L 1039.7 860.2 L 1038.1 862.1 L 1036.3 865.3 L 1033.6 867.4 L 1029.8 868.6 L 1027.5 868.3 L 1026.5 866.7 L 1023.9 865.9 L 1019.8 865.8 L 1014 868.3 L 1006.5 873.4 L 1001.6 875.6 L 999.4 874.9 L 997.5 875.5 L 995.8 877.2 L 994.8 879.3 L 994.1 882.9 L 993.1 883.7 L 993.3 885.5 L 994.3 888.5 L 993.9 894.8 L 992.2 904.4 L 991.7 909.8 L 992.4 911.1 L 994.1 911.4 L 996.8 910.7 L 998.4 909.2 L 998.9 906.8 L 999.8 906.1 L 1001.2 907.2 L 1001.4 908.9 L 1000.5 911.4 L 1000.4 913.3 L 1001 914.8 L 1000.2 915.9 L 997.8 916.6 L 996.8 917.4 L 997.3 918.2 L 997 919.1 L 996.1 920.1 L 996.2 921.4 L 997.5 923.2 L 997.1 925.8 L 994.9 929.1 L 994.4 932.7 L 996.1 938.3" />
<path class="river" d="M 303.9 874 L 306.5 878 L 309.7 878.6 L 317 876.3 L 319.5 874.1 L 321.4 873.2 L 323.5 873.1 L 325.2 874.9 L 326.6 878.5 L 329.1 880.5 L 332.6 880.6 L 335.8 879.4 L 338.5 876.7 L 340 874.5 L 340.4 872.9 L 342.4 870.7 L 346.1 868.2 L 348.7 867.1 L 350.2 867.4 L 352.4 869.1 L 355.2 872.3 L 357.7 873.7 L 360 873.2 L 362.7 873.6 L 365.8 874.7 L 369.3 874.5 L 373.3 872.8 L 377 872.1 L 380.2 872.3 L 383.6 870.8 L 387.4 867.8 L 390 863.7 L 391.6 858.5 L 393.4 855.3 L 395.4 854 L 397.6 851.4 L 399.9 847.6 L 401.7 845.6 L 402.9 845.6 L 402.6 844 L 400.7 840.8 L 398.2 839.7 L 395.1 840.7 L 392.8 840.4 L 391.5 838.8 L 389.3 837.8 L 386.1 837.3 L 385 835.6 L 385.9 832.7 L 385.6 828.5 L 383.9 822.8 L 383.3 818.4 L 383.6 815.2 L 385.7 810.3 L 389.4 803.9 L 391.5 797.8 L 392 791.9 L 393.1 788.9 L 394.7 788.7 L 396.6 787.4 L 398.8 785 L 400.3 782.6 L 401.2 778.7" />
<path class="river" d="M 329.8 1034.6 L 329.6 1035.9 L 331.6 1040.2 L 333.6 1042.3 L 335.9 1042.5 L 338.5 1044.3 L 341.2 1047.5 L 343.3 1049.1 L 345.1 1050.3 L 346.6 1054.5 L 348.7 1066 L 350.9 1072.4 L 353.2 1073.8 L 355.3 1074 L 356.8 1074.6 L 357.4 1075.5 L 358.8 1076.2 L 359.7 1076.3 L 361.1 1076.7 L 362.4 1077.8 L 363.2 1079.3 L 363.4 1081.3 L 364.3 1082.5 L 366 1082.8 L 366.3 1084.2 L 365.3 1086.7 L 365.2 1089.9 L 365.9 1093.7 L 365.8 1097 L 364.9 1099.8 L 364.8 1101.4 L 365.6 1101.9 L 365.7 1103 L 365.3 1104.6 L 365.6 1105.6 L 366.9 1106.1 L 367.6 1108.4 L 367.9 1112.7 L 367.6 1114.7 L 366 1115.7 L 365.5 1118 L 363.4 1120.6 L 359.6 1123.6 L 357 1126.7 L 354.9 1132.4" />
<path class="river" d="M 1055.3 626.4 L 1051.4 625.2 L 1049.1 623.2 L 1045.9 618.3 L 1039.8 609.8 L 1036.6 607.1 L 1034.2 607.3 L 1032.5 608.7 L 1031.4 611.1 L 1030.2 612.6 L 1028.9 613.1 L 1026.1 612.9 L 1021.8 611.7 L 1017.3 612 L 1012.7 613.6 L 1008.9 613.9 L 1005.8 612.8 L 1002 612.9 L 997.5 614.1 L 993.8 613.6 L 991.1 611.3 L 990.1 608 L 991.1 601.5" />
<path class="river" d="M 413.3 967 L 414.1 979.5 L 409.8 992.2 L 400.4 1009.2 L 395.8 1022.6 L 395.8 1032.5 L 395.3 1038.6 L 393.8 1042.4 L 390.1 1052.5 L 389.5 1061.3 L 390.9 1071.9 L 389.6 1082.1 L 385.8 1091.6 L 384.1 1099.2 L 385.1 1108.2" />
<path class="river" d="M 747 969.8 L 741.7 968 L 739 968 L 737.1 968.9 L 735.4 968.4 L 733.9 966.5 L 732.1 965.3 L 730.1 964.9 L 726.7 965.6 L 721.9 967.3 L 717.2 968.2 L 712.7 968.2 L 708.4 966.4 L 704.3 962.8 L 701.6 961.2 L 700.2 961.6 L 699.7 963.3 L 700 966.3 L 699.1 969.1 L 697 971.5 L 695.3 972.4 L 694.2 971.8 L 692.4 971.8 L 690 972.5 L 688.4 970.2 L 687.9 964.9 L 686.8 960.8 L 685.3 957.9 L 683.9 956.2 L 682.5 955.9 L 679.3 957.8 L 671.8 964.1 L 668.4 967 L 665.8 967.3 L 662.9 966.2 L 660.2 965.8 L 657.8 966.1 L 655.9 967.7 L 654.4 970.7 L 652.6 971.5 L 650.4 970.4 L 647.9 970.4 L 644.9 971.7 L 641.5 972.2 L 637.6 971.9 L 634.7 972.8 L 632.8 974.6 L 630.6 975.8 L 628.2 976.3 L 626.5 975.7 L 625.5 974.2 L 621.8 973.6 L 615.5 973.7 L 609.2 971.9 L 603 967.9 L 596.5 966 L 589.7 966 L 584.9 964.8 L 582.1 962.3 L 578.6 961.5 L 574.3 962.2 L 570.4 961.8 L 567 960.3 L 562 960.1 L 555.4 961.2 L 549.3 959.3 L 541.1 951.8 L 523.9 947.8 L 516.5 946.9 L 511.5 948.1 L 505.3 945.9 L 502.5 945.5 L 501.2 946.2 L 497.8 945.2 L 492.1 942.5 L 486.7 941.3 L 481.8 941.7 L 478.8 940.8 L 476.4 938.2 L 473.3 933.4 L 467.7 928.6 L 460.2 924.7 L 455.6 921.8 L 453.7 919.9 L 449.7 918.8 L 443.5 918.6 L 437.6 920.5 L 429.1 926.5 L 421.1 938.8 L 416.7 943.5 L 413.2 944.7 L 412.3 947.7 L 414.1 952.4 L 414.5 957.8 L 413.3 967" />
<path class="river" d="M 890.8 1046.1 L 894.8 1062.9 L 897.3 1070.2 L 900.7 1075.6 M 876.9 1038.1 L 879.2 1039.1 M 839.8 1016.6 L 840.5 1016.4 L 852.7 1012.3 L 859.3 1011.9 L 863.9 1014.2 L 867.3 1015.2 L 869.3 1014.9 L 870.9 1016.4 L 872.1 1019.7 L 872.7 1022.9 L 872.5 1026 L 870.4 1028.8 L 866.5 1031.3 L 864.5 1033.1 L 864.5 1034.3 L 865.6 1034.7 L 869.1 1034.2" />
<g class="city"><circle cx="878.7927523809053" cy="569.1187433246492" r="5" /><text x="890.7927523809053" y="573.1187433246492">Khartoum</text></g>
<g class="city"><circle cx="1084.7559127232294" cy="788.0741164718536" r="5" /><text x="1096.7559127232294" y="792.0741164718536">Addis Ababa</text></g>
<g class="city"><circle cx="1102.0990280021251" cy="371.0728285303728" r="5" /><text x="1114.0990280021251" y="375.0728285303728">Jeddah</text></g>
<g class="city"><circle cx="877.048696910538" cy="568.2282932916373" r="5" /><text x="889.048696910538" y="572.2282932916373">Omdurman</text></g>
<g class="city"><circle cx="1268.6979300857497" cy="576.9133962470768" r="5" /><text x="1280.6979300857497" y="580.9133962470768">Sanaa</text></g>
<g class="city"><circle cx="1122.169545267193" cy="373.9745659152125" r="5" /><text x="1134.169545267193" y="377.9745659152125">Makkah</text></g>
<g class="city"><circle cx="1307.4493588322898" cy="1020.7872883603379" r="5" /><text x="1319.4493588322898" y="1024.787288360338">Mogadishu</text></g>
<g class="city"><circle cx="1114.1513528759235" cy="271.4254003322389" r="5" /><text x="1126.1513528759235" y="275.4254003322389">Medina</text></g>
<text class="map-title" x="80" y="105">Sudan Physical Study Map</text>
<text class="map-subtitle" x="80" y="145">Landmark: Meroe Pyramids | Study terrain and water systems</text>
  <text class="footer" x="80" y="1036">Made with Natural Earth. Free vector and raster map data @ naturalearthdata.com.</text>
</svg>
