<?xml version="1.0" encoding="UTF-8"?>
<svg xmlns="http://www.w3.org/2000/svg" width="1600" height="1100" viewBox="0 0 1600 1100" role="img" aria-labelledby="title desc">
  <title id="title">Sweden Political Study Map</title>
  <desc id="desc">Made with Natural Earth. Free vector and raster map data @ naturalearthdata.com.</desc>
  <defs>
    <linearGradient id="terrain" x1="0" x2="1" y1="0" y2="1">
      <stop offset="0%" stop-color="#6c8c53" />
      <stop offset="42%" stop-color="#d5c487" />
      <stop offset="72%" stop-color="#b88b5f" />
      <stop offset="100%" stop-color="#f1f5ee" />
    </linearGradient>
    <filter id="softShadow" x="-10%" y="-10%" width="120%" height="120%">
      <feDropShadow dx="0" dy="10" stdDeviation="12" flood-color="#0f172a" flood-opacity="0.16" />
    </filter>
    <style>
      .neighbor { fill: #ffffff; stroke: #94a3b8; stroke-width: 1.2; opacity: 0.72; }
      .country { fill: #f7f1df; stroke: #1f2937; stroke-width: 4; filter: url(#softShadow); }
      .admin1 { fill: none; stroke: #64748b; stroke-width: 1.1; stroke-dasharray: 6 7; opacity: 0.75; }
      .river { fill: none; stroke: #1d9bd1; stroke-width: 3; stroke-linecap: round; opacity: 0.88; }
      .lake { fill: #8ed1ea; stroke: #0ea5e9; stroke-width: 1.5; opacity: 0.8; }
      .city circle { fill: #ef4444; stroke: #ffffff; stroke-width: 2; }
      .city text, .terrain-label { fill: #172033; font: 700 24px system-ui, sans-serif; paint-order: stroke; stroke: #ffffff; stroke-width: 5; stroke-linejoin: round; }
      .map-title { fill: #0f172a; font: 800 46px system-ui, sans-serif; }
      .map-subtitle { fill: #475569; font: 600 24px system-ui, sans-serif; }
      .footer { fill: #64748b; font: 500 18px system-ui, sans-serif; }
    </style>
  </defs>
  <rect width="100%" height="100%" fill="#eaf3f8" />
  <rect x="40" y="40" width="1520" height="1020" rx="32" fill="#ffffff" opacity="0.54" />
  <path class="neighbor" d="M 6197 288.3 L 6239.7 274.4 L 6239.7 297.2 L 6203 298.9 L 6197 288.3 Z M 1858.8 1115 L 1843.5 1134.8 L 1811.1 1140.3 L 1777.8 1174.9 L 1808.2 1206.6 L 1804.9 1229.2 L 1841.5 1268.6 L 1841.5 1268.6 L 1821.5 1282.1 L 1815.8 1290.6 L 1801 1288.3 L 1778 1268 L 1768.5 1266.9 L 1747.5 1259.1 L 1737.3 1245.4 L 1706.1 1238.4 L 1685.8 1243.6 L 1679.9 1237.4 L 1634.3 1221.3 L 1585.1 1215.9 L 1556.8 1210.2 L 1552.7 1214.2 L 1510 1185.9 L 1471.8 1173.3 L 1442.9 1153.6 L 1467.3 1148.2 L 1495 1120.3 L 1476.3 1107 L 1525.7 1093.4 L 1524.8 1086 L 1494.7 1091.4 L 1495.8 1076.6 L 1513 1067.2 L 1545.4 1064.8 L 1550.7 1053.6 L 1543.3 1035.1 L 1556.9 1017.6 L 1556.5 1007.8 L 1507.2 996.9 L 1487.6 997.3 L 1467 981.6 L 1441.3 986.9 L 1398.8 975.1 L 1399.5 968.5 L 1387.6 954 L 1360.9 952.4 L 1358.1 942 L 1366.5 935.2 L 1345.1 916.3 L 1310.4 919.5 L 1300.2 917.8 L 1291.8 925.5 L 1279.3 924.1 L 1279.3 924.1 L 1271 902.7 L 1263.2 891.6 L 1269.6 888.4 L 1296.6 889.6 L 1309.7 882.3 L 1300 873.4 L 1277.4 867.5 L 1279.5 861.4 L 1265.8 855.3 L 1244.9 833.4 L 1252 824.4 L 1248.8 808.7 L 1216 800.7 L 1198.5 804.7 L 1193.7 796.4 L 1158.5 788 L 1147.7 768.2 L 1144.9 752 L 1128.7 744.3 L 1143.1 733.7 L 1133.2 702.5 L 1157 683.2 L 1151.9 677.3 L 1151.9 677.3 L 1190 658.8 L 1154.9 642.9 L 1154.9 642.9 L 1226.6 600.2 L 1257.7 580.9 L 1270.2 563.8 L 1220.7 540.9 L 1234.4 519.1 L 1204.3 494.1 L 1226.8 465.5 L 1187.9 427.4 L 1218.8 402.1 L 1167.5 379.8 L 1172.4 356.4 L 1199.4 353.3 L 1256.4 339.9 L 1256.4 339.9 L 1290.9 328.2 L 1345.9 348.5 L 1437.5 356.4 L 1564 394.3 L 1589.7 410.2 L 1591.9 432.5 L 1554.7 450.1 L 1500.1 459 L 1350.7 433.5 L 1326.1 437.8 L 1380.6 462.3 L 1382.8 477.8 L 1385 512 L 1428.1 522.2 L 1454.2 530.9 L 1458.5 514.7 L 1438.4 500.3 L 1459.7 487.6 L 1540.6 508.5 L 1568.8 500.3 L 1546.2 475.8 L 1624.2 443 L 1655.1 445 L 1686.4 456.6 L 1705.9 433.6 L 1678 413.7 L 1694.3 393.7 L 1669.7 372.9 L 1763.4 383.7 L 1782.5 402.4 L 1740.1 406.5 L 1740.3 425.2 L 1766.7 436.6 L 1818.4 429.4 L 1826.6 408 L 1896.5 392.1 L 2013.3 363.3 L 2038.5 365 L 2005.5 385.3 L 2047 388.8 L 2071 377.3 L 2133.8 376.4 L 2183.5 362.5 L 2221.6 382.7 L 2259.6 360.5 L 2224.5 341.2 L 2242 330.1 L 2340.8 340.2 L 2387.1 350.7 L 2508.4 388.9 L 2530.8 371.4 L 2496.8 353.7 L 2495.8 346.6 L 2455.5 343.3 L 2466.5 327.5 L 2448.6 301.4 L 2447.6 290.7 L 2509.4 260.3 L 2531.3 229.9 L 2556.2 223.3 L 2644.8 232.2 L 2651.8 250.8 L 2620.1 277.9 L 2640.9 288.6 L 2651.7 312 L 2644.1 357.9 L 2681 378.4 L 2666.6 400.7 L 2601.1 448.2 L 2639.3 453.2 L 2652.6 441.1 L 2689.5 432.5 L 2698.3 416 L 2727.3 400 L 2707.8 381 L 2723.4 358.9 L 2686.8 356.2 L 2678.8 337.6 L 2705.5 303.9 L 2662 276.7 L 2721.9 254.1 L 2714.2 230.3 L 2730.9 229.5 L 2748.4 248.1 L 2735.2 280.4 L 2771.1 286.5 L 2755.8 262.4 L 2811.8 249.2 L 2881.3 247.4 L 2943.1 266.5 L 2913.3 238.6 L 2910 203 L 2968.2 196.2 L 3048.7 197.7 L 3121.2 193.3 L 3094 175.8 L 3132.8 153.9 L 3171.2 152.9 L 3236.3 136.3 L 3324.7 131.9 L 3335.8 122.7 L 3423.7 119.6 L 3451.1 127.1 L 3526.2 109.3 L 3587.7 109.9 L 3596.9 95.4 L 3628.9 81.2 L 3707.9 67.5 L 3765.3 78.3 L 3719.7 86.5 L 3795.5 91.7 L 3804.6 108.2 L 3835.2 100.1 L 3933 100.5 L 4008.4 116.8 L 4035.3 129.4 L 4027 146.8 L 3990 156.7 L 3902 175.3 L 3876.9 185.2 L 3918.4 189.9 L 3967.9 198.3 L 3998 192 L 4015.1 213.5 L 4029.8 204.8 L 4083.3 199.5 L 4190.7 205 L 4198.8 220.7 L 4338.7 225.6 L 4340.7 200.1 L 4411.7 205.9 L 4465.1 205.8 L 4519.2 223.4 L 4534.6 244.8 L 4514.8 258.8 L 4556.8 285.2 L 4609.4 298.7 L 4641.7 263.6 L 4695.4 278.7 L 4752.4 269.7 L 4817.2 280 L 4841.9 270.6 L 4896.6 275.3 L 4872.5 244.2 L 4916.6 229.7 L 5218.9 251.5 L 5247.4 271.3 L 5335 296.9 L 5470.2 290.6 L 5536.8 296.1 L 5564.7 309.9 L 5560.6 334.4 L 5601.8 343.9 L 5646.6 337.1 L 5706 336.2 L 5769.1 342.8 L 5832.6 339.1 L 5890.9 368.8 L 5932.4 358.1 L 5905.3 336.7 L 5920.2 321.8 L 6027 331.2 L 6096.6 329.2 L 6192.8 345.2 L 6239.7 359.8 L 6239.7 493.1 L 6239.5 493.3 L 6196.4 508 L 6153.1 505.5 L 6183.2 523.4 L 6203.2 550.9 L 6218.6 559.9 L 6222.5 573.8 L 6213.9 582.7 L 6151.5 575.4 L 6057.9 600.6 L 6028.2 604.5 L 5977 628 L 5928.4 648.5 L 5916.1 663.7 L 5868.2 640.6 L 5781 666.8 L 5765.8 654.4 L 5733.6 668.7 L 5688.8 664.2 L 5678 686.2 L 5637.9 718.6 L 5639 732.1 L 5677.2 739.6 L 5672.7 788.3 L 5641.6 789.5 L 5627.3 817.5 L 5641.2 832 L 5582.7 849.1 L 5571.1 887.3 L 5521.2 895.4 L 5511.1 929.4 L 5462.9 960.6 L 5450.5 937.6 L 5436.2 888.7 L 5417.5 814.4 L 5433.6 767.9 L 5461.8 748 L 5463.6 732.3 L 5515.6 724.8 L 5575.4 682.7 L 5633 648.3 L 5693.2 621.6 L 5720.1 574.4 L 5679.4 577.2 L 5659.3 604.8 L 5574.4 641.6 L 5547 600.4 L 5460.6 611.8 L 5376.8 667.9 L 5404.5 688.4 L 5329.8 697.1 L 5278 700.6 L 5280.4 676.4 L 5228.4 671.3 L 5187 687.7 L 5084.6 682 L 4974.5 691.9 L 4866.1 757.2 L 4737.9 836.2 L 4790.6 840.4 L 4807 861.3 L 4839.6 868.8 L 4861 852.1 L 4897.7 854.2 L 4946 891 L 4947.1 919.5 L 4921 953 L 4918.1 992.9 L 4903.1 1046.4 L 4852.6 1094.9 L 4841.4 1118 L 4796 1157 L 4750.9 1195.6 L 4729.3 1215.4 L 4684.7 1235 L 4663.6 1235.5 L 4642.5 1219.2 L 4597.6 1243.7 L 4592.4 1254.8 L 4592.4 1254.8 L 4592.4 1254.8 L 4592.4 1254.8 L 4587.7 1249 L 4587.7 1249 L 4587.5 1232 L 4604.6 1231.1 L 4609.4 1191.5 L 4600.6 1162.9 L 4629.3 1151 L 4670 1157 L 4692.5 1124.4 L 4703.9 1087.7 L 4716.9 1075.5 L 4734.5 1045.4 L 4679.2 1055.2 L 4650.2 1068.4 L 4599.3 1068.4 L 4585.8 1037 L 4546.1 1013.2 L 4487.9 1002.5 L 4475.5 969.7 L 4463.9 949.1 L 4451.3 934.7 L 4430.6 901 L 4401.2 888.7 L 4351.1 878.7 L 4306.8 879.6 L 4265.2 885.6 L 4237.5 902.3 L 4255.9 910.2 L 4256.3 928.7 L 4237.7 939.4 L 4207.5 974.9 L 4207.8 989.7 L 4160.6 1010.8 L 4120.5 998.2 L 4080.5 1001 L 4063 989.8 L 4042.9 986.1 L 3993.9 1009.7 L 3949.9 1015.3 L 3919.1 1023.6 L 3876.9 1018.1 L 3845.9 1018.5 L 3825.6 1001.4 L 3792.8 985.3 L 3759.3 980.9 L 3716.9 985.2 L 3685.3 991.4 L 3637.8 977.4 L 3631.4 952.3 L 3592 943.7 L 3561.6 939.8 L 3524.2 925.9 L 3489.5 960.6 L 3503.1 980.3 L 3470.6 1003.6 L 3422.2 995.2 L 3388.8 994 L 3366.4 978.4 L 3331.5 977.9 L 3302.4 967.6 L 3251.5 983.3 L 3187.6 1012.2 L 3152.3 1018 L 3139.2 1020.7 L 3121.5 1000.2 L 3078.4 1004.7 L 3064.1 990.5 L 3040.7 984 L 3024.6 964.7 L 3006.1 958.7 L 2958 967.3 L 2911.9 948 L 2894.1 965.5 L 2819.3 880.5 L 2776.6 854.7 L 2788.9 844.2 L 2705 875.7 L 2672.9 877.6 L 2675.6 859.4 L 2632.7 848 L 2597.7 856.1 L 2587.2 821.4 L 2527 814.2 L 2496.9 828.1 L 2413.2 840.5 L 2396.9 848.7 L 2271.6 860.4 L 2256.3 871.8 L 2280.4 894.7 L 2248.3 903.4 L 2254.6 912.5 L 2222.5 928.8 L 2276.7 951.9 L 2268.3 967.7 L 2221.3 966.3 L 2211.6 976.2 L 2168.8 958.8 L 2115.7 959.5 L 2080.2 973.6 L 2040.6 960.1 L 1966.8 936.9 L 1914.5 937.8 L 1845.4 974.2 L 1841.3 998.6 L 1806.9 979.2 L 1780.1 1016 L 1789.9 1022.8 L 1770.6 1048.2 L 1799 1070.9 L 1823.8 1070 L 1845.2 1092.3 L 1841.8 1109.5 L 1858.8 1115 Z M 3354 -43.9 L 3426.4 -51.4 L 3491.4 -34.6 L 3568.5 -2.2 L 3560.2 27.9 L 3487.2 32 L 3394 22.4 L 3338.5 9.6 L 3312.8 -14.4 L 3267.1 -21 L 3354 -43.9 Z M 3657.2 14.5 L 3742.1 33.5 L 3732.1 47.1 L 3543.5 60 L 3604.6 16 L 3632.1 12.3 L 3657.2 14.5 Z M 4861.9 119.7 L 4950.2 121.2 L 5071.2 138.9 L 5044.9 163.8 L 4921.5 162.8 L 4866 170.8 L 4799.7 149 L 4817.7 126 L 4861.9 119.7 Z M 5176.2 146.2 L 5260.1 154.9 L 5221.5 168.2 L 5168 165.2 L 5105.8 152 L 5113.8 141.1 L 5176.2 146.2 Z M 4896.4 212.3 L 4928.1 199.1 L 4970 196 L 5017.5 208.8 L 5021.6 217.6 L 4970.8 217.8 L 4902.3 214.1 L 4896.4 212.3 Z M 1716.4 -29.3 L 1781.7 -35.4 L 1832.6 -35.8 L 1839.4 -26.8 L 1858.7 -34.8 L 1890.2 -40.3 L 1939.8 -33 L 1926.9 -27.9 L 1882 -23.5 L 1851.9 -21 L 1847.2 -15.5 L 1808.1 -9.9 L 1771.8 -17.9 L 1790.9 -28.3 L 1716.4 -29.3 Z M 976.2 849.6 L 914.7 850.1 L 873.5 846.3 L 881.1 831.6 L 927.3 820.7 L 962.3 826.6 L 977.1 831.9 L 973.6 841.1 L 976.2 849.6 Z M 2006.3 199.6 L 2086.4 170.2 L 2077.4 155 L 2152.2 137.4 L 2262.7 115.9 L 2374.1 109.6 L 2431.4 97.2 L 2496.5 92.8 L 2519.8 106 L 2497.3 116.5 L 2378.7 133.1 L 2276.5 149 L 2172.6 180.9 L 2122.7 213.5 L 2070.2 245.7 L 2077.1 273.5 L 2141.1 301 L 2121.3 303.9 L 2011.9 299.6 L 2003.1 284.7 L 1942.5 275.7 L 1937.6 257.7 L 1971.8 250.5 L 1970.7 232.2 L 2037 203.7 L 2006.3 199.6 Z M 4998.5 870.5 L 5010.1 902.7 L 5009.3 935.7 L 5023.1 969.4 L 5056.7 1028.7 L 5007.2 1017.7 L 4986.6 1066 L 5019.2 1100.3 L 5018.3 1123.7 L 4992.9 1103.5 L 4971 1129.4 L 4964.8 1101.3 L 4968.5 1068.7 L 4964.7 1032.6 L 4972.5 1007.3 L 4973.9 962.6 L 4954.3 929.7 L 4957.3 883.9 L 4988.2 868.5 L 4974.9 853 L 4989.8 848.3 L 4998.5 870.5 Z M -5639 418.6 L -5641.9 439.4 L -5619.3 447.7 L -5627.1 423.4 L -5536.2 428.4 L -5470.7 459.7 L -5503.9 474.3 L -5558.8 477.8 L -5559.6 510.5 L -5573 517.4 L -5604.3 516.4 L -5629.8 504.8 L -5674.3 495 L -5681.8 480.5 L -5715.8 475 L -5753.9 479.4 L -5772 467.6 L -5764.8 455.2 L -5804.9 463.2 L -5789.8 478.9 L -5808.8 493.1 L -5808.8 359.8 L -5726.8 385.3 L -5639 418.6 Z M -5765 295.2 L -5808.8 297.2 L -5808.8 274.4 L -5804.5 273 L -5776.1 273 L -5727.7 282.6 L -5730.6 287.2 L -5765 295.2 Z M 1334.5 1129.3 L 1343.3 1121 L 1367.1 1128.1 L 1377.9 1129.5 L 1382.2 1136.1 L 1387.3 1137.1 L 1387.5 1140 L 1403.9 1148.1 L 1438.1 1146.1 L 1431.5 1158 L 1394.9 1163.8 L 1349.4 1183.2 L 1330.8 1176.3 L 1338.2 1160.6 L 1301.6 1150.8 L 1307.6 1144.4 L 1339.6 1133.3 L 1334.5 1129.3 Z" />
<path class="neighbor" d="M 722.3 1.3 L 735 -10.1 L 784.1 -11.3 L 826.3 0.4 L 936.5 25.3 L 852.3 38.5 L 833.7 63.1 L 804.3 69.5 L 788.4 97.2 L 748.1 98.5 L 676.1 78.1 L 706.4 66.2 L 656.3 56.5 L 591.1 28.3 L 565 2 L 656.3 -9.9 L 674.6 1.8 L 722.3 1.3 Z M 1256.4 339.9 L 1199.4 353.3 L 1172.4 356.4 L 1186.6 332.9 L 1143.6 319.6 L 1091.6 330.9 L 1075.2 355.5 L 1043.3 370.3 L 1007.4 362.2 L 963.7 363.9 L 926.5 346.2 L 906.4 355 L 885.7 356.4 L 880.8 378.4 L 817.7 373 L 808.8 391.7 L 776.7 391.6 L 754.6 415.4 L 721.1 452.5 L 669.2 499.6 L 681.3 511 L 669.7 524.3 L 636.5 523.7 L 614.8 555.1 L 616.8 599.5 L 638.2 616.5 L 627.1 655.8 L 599.3 678.8 L 584.5 698 L 562.1 677.5 L 496 716.2 L 451.4 724.1 L 405.1 707 L 393.1 671 L 382.5 593.8 L 413.4 572.3 L 501.7 544.2 L 567.8 509.6 L 629.1 463 L 709.5 398.4 L 765.5 373.2 L 857.5 331.2 L 931 316.5 L 986 318.3 L 1037 290.6 L 1098 292.1 L 1158.1 285.4 L 1262.8 309.9 L 1219.7 318.9 L 1256.4 339.9 Z M 1132.7 -11.5 L 1083.1 6.5 L 986.1 10.5 L 887.3 4.9 L 881.4 -4.3 L 833.4 -4.9 L 796.7 -20.3 L 900.1 -29.6 L 948.7 -21.6 L 982.5 -31.6 L 1067.1 -23.2 L 1132.7 -11.5 Z M 1042.9 62.2 L 968.2 75.9 L 909.1 68.2 L 932.2 59.5 L 912 48.8 L 981.4 42.1 L 994.6 54.7 L 1042.9 62.2 Z" />
<path class="neighbor" d="M -1513.4 2528.7 L -1533.2 2559.4 L -1543.5 2584 L -1556.3 2596.7 L -1572.3 2599.1 L -1576.9 2589.7 L -1584.4 2588.3 L -1594.7 2597.4 L -1609.4 2590.5 L -1600.8 2576.4 L -1597.9 2561.1 L -1592 2546.7 L -1605.2 2526.9 L -1607.8 2504 L -1590.4 2475.2 L -1579 2478.9 L -1554.4 2486.8 L -1518.9 2515 L -1513.4 2528.7 Z M 422.5 1012.4 L 438.3 1021.2 L 486.5 1027.3 L 469.6 1050.2 L 465.4 1074.1 L 456.2 1079.8 L 440.9 1076.7 L 442 1085.2 L 417.5 1104 L 417 1119.2 L 433 1113.9 L 444.5 1128.6 L 443.1 1138.1 L 453 1150.6 L 441.4 1160.8 L 450 1186.7 L 468.1 1191 L 464.3 1205.5 L 434 1224.4 L 368 1215.3 L 319.2 1226.2 L 315.4 1246.4 L 276.6 1250.7 L 239 1235.6 L 226.8 1242.8 L 165.2 1227.6 L 151.8 1214.6 L 169.1 1194.5 L 175.5 1127.8 L 141 1092.7 L 116.3 1075.8 L 65.1 1062.9 L 61.8 1038.5 L 105.2 1031.2 L 161.4 1039.8 L 150.8 1001.9 L 182.4 1016.3 L 260.3 990.2 L 270.3 962.8 L 299.6 956 L 304.4 967.8 L 320 968.3 L 335.6 981.8 L 358.9 997.5 L 376.1 994.9 L 405.4 1010.2 L 412.9 1013.1 L 422.5 1012.4 Z M 508.2 1241.2 L 529.7 1228.4 L 535.4 1257.1 L 524.4 1282.9 L 509.2 1276.1 L 501.4 1253.6 L 508.2 1241.2 Z" />
<path class="neighbor" d="M 1158.5 788 L 1193.7 796.4 L 1198.5 804.7 L 1216 800.7 L 1248.8 808.7 L 1252 824.4 L 1244.9 833.4 L 1265.8 855.3 L 1279.5 861.4 L 1277.4 867.5 L 1300 873.4 L 1309.7 882.3 L 1296.6 889.6 L 1269.6 888.4 L 1263.2 891.6 L 1271 902.7 L 1279.3 924.1 L 1279.3 924.1 L 1250.6 926.1 L 1240.2 933.4 L 1238.1 950.3 L 1224.8 947.1 L 1194.6 948.7 L 1185.8 940.8 L 1173.2 946.7 L 1160.7 941.8 L 1134.3 941.2 L 1096.9 933.1 L 1063.1 930.5 L 1037.2 931.2 L 1018.9 940.3 L 1002.9 941.6 L 1002.2 926.7 L 991.9 911.2 L 1012 904.4 L 1012.2 891 L 1002.9 878.3 L 1001.4 863.5 L 1033.8 863.7 L 1070.1 851.1 L 1077.9 832.2 L 1105.3 821.5 L 1102.2 806.5 L 1122.5 800.9 L 1158.5 788 Z" />
<path class="neighbor" d="M 1279.3 924.1 L 1291.8 925.5 L 1300.2 917.8 L 1310.4 919.5 L 1345.1 916.3 L 1366.5 935.2 L 1358.1 942 L 1360.9 952.4 L 1387.6 954 L 1399.5 968.5 L 1398.8 975.1 L 1441.3 986.9 L 1467 981.6 L 1487.6 997.3 L 1507.2 996.9 L 1556.5 1007.8 L 1556.9 1017.6 L 1543.3 1035.1 L 1550.7 1053.6 L 1545.4 1064.8 L 1513 1067.2 L 1495.8 1076.6 L 1494.7 1091.4 L 1468 1094.1 L 1445.7 1104.9 L 1414.4 1106.7 L 1385.6 1119.2 L 1387.3 1137.1 L 1382.2 1136.1 L 1377.9 1129.5 L 1367.1 1128.1 L 1343.3 1121 L 1334.5 1129.3 L 1329.9 1125.6 L 1277.9 1117.2 L 1275.6 1104.7 L 1244.6 1108.8 L 1232.1 1127.2 L 1206.2 1152 L 1191.1 1146.2 L 1175.3 1151.6 L 1160.4 1145.4 L 1168.8 1141.8 L 1174.7 1130.3 L 1183.8 1119.7 L 1181.5 1113.7 L 1188.5 1111 L 1191.8 1115.6 L 1211.5 1116.6 L 1220.3 1114.1 L 1214.1 1110.7 L 1216.5 1105.7 L 1204.8 1097.2 L 1199.9 1083.2 L 1187.7 1077.8 L 1190.1 1066.4 L 1175 1057.4 L 1161.3 1056.2 L 1136.6 1045.7 L 1114.3 1049.1 L 1106.4 1054 L 1092.2 1054 L 1083.8 1061.8 L 1059.1 1065 L 1047.7 1070.2 L 1032.2 1062 L 1010.7 1061.9 L 990 1058.2 L 975.5 1065.3 L 973.2 1056.4 L 954.6 1047.2 L 961.2 1033.8 L 970.4 1025 L 977.7 1027 L 969.1 1012 L 999.5 984.1 L 1016.1 980.2 L 1019.7 970.8 L 1002.9 941.6 L 1018.9 940.3 L 1037.2 931.2 L 1063.1 930.5 L 1096.9 933.1 L 1134.3 941.2 L 1160.7 941.8 L 1173.2 946.7 L 1185.8 940.8 L 1194.6 948.7 L 1224.8 947.1 L 1238.1 950.3 L 1240.2 933.4 L 1250.6 926.1 L 1279.3 924.1 Z" />
<path class="neighbor" d="M 1001.4 863.5 L 1002.9 878.3 L 1012.2 891 L 1012 904.4 L 991.9 911.2 L 1002.2 926.7 L 1002.9 941.6 L 1019.7 970.8 L 1016.1 980.2 L 999.5 984.1 L 969.1 1012 L 977.7 1027 L 970.4 1025 L 938.6 1012.2 L 914.5 1016.9 L 898.7 1013.5 L 879 1020.6 L 862.1 1008.8 L 848.3 1013.3 L 846.4 1011.3 L 831 994.8 L 806.2 992.8 L 803 982.3 L 780 978.6 L 775 987.2 L 756.9 980.3 L 758.9 971.1 L 733.9 968.2 L 718.1 957.4 L 704.3 936 L 706.9 924.5 L 698.7 906.6 L 686.5 894.7 L 695.8 885.7 L 688 868.7 L 710.9 858.9 L 763.1 843.4 L 805.3 832.1 L 838.7 837.7 L 841.2 845.9 L 873.5 846.3 L 914.7 850.1 L 976.2 849.6 L 993.4 853.2 L 1001.4 863.5 Z" />
<path class="neighbor" d="M 783.7 1057.2 L 781.2 1070.9 L 762.4 1071 L 768.8 1078.2 L 757.7 1099.8 L 751.3 1105.4 L 722.1 1106.3 L 705.2 1113.9 L 677.5 1111.3 L 629.7 1102.6 L 622.2 1091 L 589.1 1096.8 L 585.2 1103.2 L 565 1098.4 L 547.9 1097.5 L 532.7 1091.4 L 537.9 1083.2 L 536.6 1077.3 L 546.7 1075.4 L 563.6 1084.7 L 568.4 1075.9 L 597.9 1077.3 L 621.8 1071.3 L 637.9 1072.3 L 648.3 1079.2 L 651.4 1073.5 L 646.7 1051.7 L 658.7 1047.5 L 670.5 1032 L 695.4 1042.8 L 714.2 1029.1 L 726 1026.6 L 751.9 1036.8 L 767.7 1035.1 L 783.1 1041.4 L 780.4 1045.7 L 783.7 1057.2 Z" />
<path class="neighbor" d="M 954.6 1047.2 L 973.2 1056.4 L 975.5 1065.3 L 955.1 1072.3 L 939.3 1095 L 919 1117.7 L 892.2 1124.1 L 871.3 1122.6 L 845.7 1131.4 L 845.7 1131.4 L 833.2 1136.4 L 805.5 1129.9 L 780.5 1115.6 L 769.9 1111.5 L 763.4 1100.2 L 757.7 1099.8 L 768.8 1078.2 L 762.4 1071 L 781.2 1070.9 L 783.7 1057.2 L 800.8 1065.8 L 813.1 1069.5 L 841.2 1065.4 L 843.9 1058.6 L 857.2 1057.7 L 873.5 1052.5 L 877.1 1054.6 L 892.8 1050.4 L 900.7 1042.5 L 911.6 1040.5 L 947.5 1050.7 L 954.6 1047.2 Z" />
<path class="neighbor" d="M 1102.2 806.5 L 1105.3 821.5 L 1077.9 832.2 L 1070.1 851.1 L 1033.8 863.7 L 1001.4 863.5 L 993.4 853.2 L 976.2 849.6 L 973.6 841.1 L 977.1 831.9 L 962.3 826.6 L 927.3 820.7 L 920.2 792.6 L 958.5 782.3 L 1014.6 784.5 L 1047.5 781.2 L 1052.2 788.1 L 1070 790.3 L 1102.2 806.5 Z" />
<path class="neighbor" d="M 1128.7 744.3 L 1144.9 752 L 1147.7 768.2 L 1158.5 788 L 1122.5 800.9 L 1102.2 806.5 L 1070 790.3 L 1052.2 788.1 L 1047.5 781.2 L 1014.6 784.5 L 958.5 782.3 L 920.2 792.6 L 921.3 767.4 L 937.8 746.4 L 969.3 735 L 995.9 760 L 1022.7 759.3 L 1029.2 733.6 L 1057.7 727.7 L 1072.3 731.8 L 1101.1 744.2 L 1128.7 744.3 Z" />
<path class="neighbor" d="M 1151.9 677.3 L 1151.9 677.3 L 1157 683.2 L 1133.2 702.5 L 1143.1 733.7 L 1128.7 744.3 L 1101.1 744.2 L 1072.3 731.8 L 1057.7 727.7 L 1029.2 733.6 L 1033.1 713.9 L 1020.7 718.1 L 999.5 706.2 L 996.6 687 L 1038.9 677.6 L 1081.1 672.8 L 1117.4 678.3 L 1151.9 677.3 L 1151.9 677.3 Z" />
<path class="neighbor" d="M 688 868.7 L 695.8 885.7 L 686.5 894.7 L 698.7 906.6 L 706.9 924.5 L 704.3 936 L 718.1 957.4 L 703.1 960.9 L 694.3 957.1 L 685.9 963.4 L 661.9 969.9 L 649.4 978.2 L 625.1 985.5 L 631 995.5 L 634.5 1009.6 L 651.6 1017.6 L 670.5 1032 L 658.7 1047.5 L 646.7 1051.7 L 651.4 1073.5 L 648.3 1079.2 L 637.9 1072.3 L 621.8 1071.3 L 597.9 1077.3 L 568.4 1075.9 L 563.6 1084.7 L 546.7 1075.4 L 536.6 1077.3 L 500.7 1067 L 493.8 1074.3 L 465.4 1074.1 L 469.6 1050.2 L 486.5 1027.3 L 438.3 1021.2 L 422.5 1012.4 L 424.4 997.7 L 417.7 990.2 L 421.5 967.5 L 415.9 932.5 L 436 932.5 L 444.5 919.9 L 452.8 889.2 L 446.6 877.9 L 453.1 870.8 L 481.1 869 L 487.3 876.4 L 510 859.9 L 502.4 847.3 L 500.8 828.4 L 526.1 832.8 L 547.5 827.7 L 548.1 840.6 L 581.9 848.4 L 581.6 860.3 L 615.6 854 L 634.4 844.8 L 672.2 858 L 688 868.7 Z" />
<path class="neighbor" d="M 417.7 990.2 L 424.4 997.7 L 422.5 1012.4 L 412.9 1013.1 L 405.4 1010.2 L 409 991.4 L 417.7 990.2 Z" />
<path class="neighbor" d="M 421.5 967.5 L 417.7 990.2 L 409 991.4 L 405.4 1010.2 L 376.1 994.9 L 358.9 997.5 L 335.6 981.8 L 320 968.3 L 304.4 967.8 L 299.6 956 L 326.4 949.4 L 326.4 949.4 L 326.4 949.4 L 350.9 952 L 381.9 945.1 L 403.1 959.7 L 421.5 967.5 Z" />
<path class="neighbor" d="M 446.6 877.9 L 452.8 889.2 L 444.5 919.9 L 436 932.5 L 415.9 932.5 L 421.5 967.5 L 403.1 959.7 L 381.9 945.1 L 350.9 952 L 326.4 949.4 L 326.4 949.4 L 343.7 940.2 L 373 891 L 418.8 877 L 446.6 877.9 Z" />
<path class="neighbor" d="M 547.5 827.7 L 526.1 832.8 L 500.8 828.4 L 487.2 809.8 L 486.2 775.6 L 491.8 766.5 L 501.4 756.5 L 530.9 754.4 L 542.6 745.2 L 569.6 735.7 L 568.4 753 L 558.5 763.9 L 562.5 773.2 L 580.7 778.3 L 572.5 790.9 L 562.5 787.3 L 538.4 811.4 L 547.5 827.7 Z M 629.5 789.9 L 640.2 806.7 L 620.1 833.8 L 585.1 814.9 L 580.4 801 L 629.5 789.9 Z" />
<path class="neighbor" d="M 1172.4 356.4 L 1167.5 379.8 L 1218.8 402.1 L 1187.9 427.4 L 1226.8 465.5 L 1204.3 494.1 L 1234.4 519.1 L 1220.7 540.9 L 1270.2 563.8 L 1257.7 580.9 L 1226.6 600.2 L 1154.9 642.9 L 1154.9 642.9 L 1154.9 642.9 L 1094.2 645.6 L 1035.3 657.8 L 980.9 664.9 L 961.5 646.7 L 929.1 635.7 L 936.5 602.7 L 920.3 572.5 L 936.2 553 L 966.6 532 L 1043.1 495.7 L 1065.5 488.7 L 1062 474.5 L 1015.5 458.7 L 1004.2 445.7 L 1003.3 394.2 L 951 371.4 L 906.4 355 L 926.5 346.2 L 963.7 363.9 L 1007.4 362.2 L 1043.3 370.3 L 1075.2 355.5 L 1091.6 330.9 L 1143.6 319.6 L 1186.6 332.9 L 1172.4 356.4 Z" />
<path class="neighbor" d="M 970.4 1025 L 961.2 1033.8 L 954.6 1047.2 L 947.5 1050.7 L 911.6 1040.5 L 900.7 1042.5 L 892.8 1050.4 L 877.1 1054.6 L 873.5 1052.5 L 857.2 1057.7 L 843.9 1058.6 L 841.2 1065.4 L 813.1 1069.5 L 800.8 1065.8 L 783.7 1057.2 L 780.4 1045.7 L 783.1 1041.4 L 787.8 1034 L 802.7 1034.6 L 814.1 1031.1 L 815 1028 L 821.4 1026.4 L 823.6 1018.8 L 831.3 1017.4 L 836.5 1011.3 L 846.4 1011.3 L 848.3 1013.3 L 862.1 1008.8 L 879 1020.6 L 898.7 1013.5 L 914.5 1016.9 L 938.6 1012.2 L 970.4 1025 Z" />
<path class="neighbor" d="M 718.1 957.4 L 733.9 968.2 L 758.9 971.1 L 756.9 980.3 L 775 987.2 L 780 978.6 L 803 982.3 L 806.2 992.8 L 831 994.8 L 846.4 1011.3 L 836.5 1011.3 L 831.3 1017.4 L 823.6 1018.8 L 821.4 1026.4 L 815 1028 L 814.1 1031.1 L 802.7 1034.6 L 787.8 1034 L 783.1 1041.4 L 767.7 1035.1 L 751.9 1036.8 L 726 1026.6 L 714.2 1029.1 L 695.4 1042.8 L 670.5 1032 L 651.6 1017.6 L 634.5 1009.6 L 631 995.5 L 625.1 985.5 L 649.4 978.2 L 661.9 969.9 L 685.9 963.4 L 694.3 957.1 L 703.1 960.9 L 718.1 957.4 Z" />

<path class="country" d="M 584.5 698 L 599.3 678.8 L 627.1 655.8 L 638.2 616.5 L 616.8 599.5 L 614.8 555.1 L 636.5 523.7 L 669.7 524.3 L 681.3 511 L 669.2 499.6 L 721.1 452.5 L 754.6 415.4 L 776.7 391.6 L 808.8 391.7 L 817.7 373 L 880.8 378.4 L 885.7 356.4 L 906.4 355 L 951 371.4 L 1003.3 394.2 L 1004.2 445.7 L 1015.5 458.7 L 957.9 468.2 L 925.4 491.6 L 930.7 512.1 L 877.4 539 L 812.8 567.8 L 788.4 614.9 L 812.2 638.5 L 844.3 657 L 813.5 694.8 L 778.7 702.6 L 765.9 758.8 L 746.9 790.1 L 706.3 786.9 L 687.4 813.5 L 648.6 815 L 638 783.4 L 610 745.4 L 584.5 698 Z" />


<g class="city"><circle cx="1230.0191130858798" cy="661.742984653509" r="5" /><text x="1242.0191130858798" y="665.742984653509">St.  Petersburg</text></g>
<g class="city"><circle cx="663.9271490944384" cy="909.9810200581908" r="5" /><text x="675.9271490944384" y="913.9810200581908">Berlin</text></g>
<g class="city"><circle cx="505.8050712611797" cy="991.1001010585319" r="5" /><text x="517.8050712611797" y="995.1001010585319">Frankfurt</text></g>
<g class="city"><circle cx="1138.0026803429153" cy="863.8569210542976" r="5" /><text x="1150.0026803429153" y="867.8569210542976">Minsk</text></g>
<g class="city"><circle cx="550.0843856929056" cy="875.5690824918461" r="5" /><text x="562.0843856929056" y="879.5690824918461">Hamburg</text></g>
<g class="city"><circle cx="918.4754916690374" cy="919.7835026494217" r="5" /><text x="930.4754916690374" y="923.7835026494217">Warsaw</text></g>
<g class="city"><circle cx="820.1117362496007" cy="682.3870949200809" r="5" /><text x="832.1117362496007" y="686.3870949200809">Stockholm</text></g>
<g class="city"><circle cx="698.1760644795629" cy="991.5355185452231" r="5" /><text x="710.1760644795629" y="995.5355185452231">Prague</text></g>
<text class="map-title" x="80" y="105">Sweden Political Study Map</text>
<text class="map-subtitle" x="80" y="145">Capital: Stockholm | Continent: Europe</text>
  <text class="footer" x="80" y="1036">Made with Natural Earth. Free vector and raster map data @ naturalearthdata.com.</text>
</svg>
