<?xml version="1.0" encoding="UTF-8"?>
<svg xmlns="http://www.w3.org/2000/svg" width="1600" height="1100" viewBox="0 0 1600 1100" role="img" aria-labelledby="title desc">
  <title id="title">Slovenia Political Study Map</title>
  <desc id="desc">Made with Natural Earth. Free vector and raster map data @ naturalearthdata.com.</desc>
  <defs>
    <linearGradient id="terrain" x1="0" x2="1" y1="0" y2="1">
      <stop offset="0%" stop-color="#6c8c53" />
      <stop offset="42%" stop-color="#d5c487" />
      <stop offset="72%" stop-color="#b88b5f" />
      <stop offset="100%" stop-color="#f1f5ee" />
    </linearGradient>
    <filter id="softShadow" x="-10%" y="-10%" width="120%" height="120%">
      <feDropShadow dx="0" dy="10" stdDeviation="12" flood-color="#0f172a" flood-opacity="0.16" />
    </filter>
    <style>
      .neighbor { fill: #ffffff; stroke: #94a3b8; stroke-width: 1.2; opacity: 0.72; }
      .country { fill: #f7f1df; stroke: #1f2937; stroke-width: 4; filter: url(#softShadow); }
      .admin1 { fill: none; stroke: #64748b; stroke-width: 1.1; stroke-dasharray: 6 7; opacity: 0.75; }
      .river { fill: none; stroke: #1d9bd1; stroke-width: 3; stroke-linecap: round; opacity: 0.88; }
      .lake { fill: #8ed1ea; stroke: #0ea5e9; stroke-width: 1.5; opacity: 0.8; }
      .city circle { fill: #ef4444; stroke: #ffffff; stroke-width: 2; }
      .city text, .terrain-label { fill: #172033; font: 700 24px system-ui, sans-serif; paint-order: stroke; stroke: #ffffff; stroke-width: 5; stroke-linejoin: round; }
      .map-title { fill: #0f172a; font: 800 46px system-ui, sans-serif; }
      .map-subtitle { fill: #475569; font: 600 24px system-ui, sans-serif; }
      .footer { fill: #64748b; font: 500 18px system-ui, sans-serif; }
    </style>
  </defs>
  <rect width="100%" height="100%" fill="#eaf3f8" />
  <rect x="40" y="40" width="1520" height="1020" rx="32" fill="#ffffff" opacity="0.54" />
  <path class="neighbor" d="M 35006 -4631.1 L 35272.5 -4718.2 L 35272.5 -4575.3 L 35043.2 -4564.7 L 35006 -4631.1 Z M 7902.8 533.4 L 7807.5 657.4 L 7604.7 691.8 L 7396.9 907.7 L 7587 1106.1 L 7566.4 1246.9 L 7794.7 1493.2 L 7794.7 1493.2 L 7669.9 1577.5 L 7634 1630.7 L 7541.5 1616.4 L 7397.8 1489.4 L 7339 1482.4 L 7207.6 1433.9 L 7143.6 1348.1 L 6948.6 1304.3 L 6821.8 1337.2 L 6785.1 1298.3 L 6500.4 1198.1 L 6192.6 1164.2 L 6015.9 1128.5 L 5990.4 1153.2 L 5723.8 976.5 L 5485.2 897.6 L 5304.7 774.8 L 5456.8 741.4 L 5630.3 566.5 L 5513.4 483.8 L 5821.6 398.4 L 5816 352.7 L 5628.3 386.4 L 5634.9 293.5 L 5742.7 235.1 L 5945.1 219.8 L 5978 150.1 L 5931.8 34.8 L 6016.7 -74.7 L 6014.2 -136.1 L 5706 -204.1 L 5583.8 -201.9 L 5454.8 -299.8 L 5294.3 -266.7 L 5028.8 -340.2 L 5033.3 -381.3 L 4959 -472 L 4792.2 -482.1 L 4774.9 -547 L 4827.1 -589.4 L 4693.5 -707.8 L 4476.7 -687.6 L 4413.2 -698.1 L 4360.4 -650.5 L 4282.3 -659 L 4282.3 -659 L 4230.9 -792.8 L 4181.8 -862.3 L 4222 -881.8 L 4390.7 -874.5 L 4472.1 -920.3 L 4411.9 -976 L 4270.9 -1012.8 L 4283.4 -1050.6 L 4198.4 -1088.7 L 4067.3 -1225.6 L 4112.1 -1282 L 4091.6 -1380.2 L 3887.2 -1430 L 3777.5 -1405.1 L 3747.8 -1457 L 3527.6 -1509.4 L 3460.4 -1632.8 L 3442.6 -1734.2 L 3341.9 -1782.4 L 3431.5 -1848.7 L 3369.5 -2043.7 L 3518.2 -2164.2 L 3486.7 -2200.7 L 3486.7 -2200.7 L 3724.4 -2316.3 L 3505.3 -2415.7 L 3505.3 -2415.7 L 3953 -2682.6 L 4147.2 -2803.4 L 4225.9 -2910 L 3916.4 -3053.3 L 4001.9 -3189.5 L 3813.6 -3345.1 L 3954.4 -3524.4 L 3711.2 -3762.4 L 3904.2 -3920.1 L 3583.9 -4059.4 L 3614.5 -4205.8 L 3783.3 -4225 L 4139.1 -4308.9 L 4139.1 -4308.9 L 4354.8 -4381.7 L 4698.3 -4255.3 L 5270.9 -4205.5 L 6060.9 -3969 L 6221.4 -3869.6 L 6235.2 -3730.5 L 6003.1 -3620.6 L 5661.7 -3564.9 L 4728.2 -3723.8 L 4574.7 -3697.2 L 4915.6 -3544.1 L 4928.9 -3447.1 L 4942.6 -3233.4 L 5211.8 -3169.7 L 5375.2 -3115.4 L 5402.2 -3216.8 L 5276.2 -3306.6 L 5409.3 -3385.8 L 5914.8 -3255.7 L 6090.9 -3306.6 L 5950.1 -3459.8 L 6437.4 -3664.5 L 6630.4 -3652.5 L 6825.6 -3579.4 L 6947.4 -3723.1 L 6773.1 -3847.7 L 6875.4 -3972.8 L 6721.7 -4102.5 L 7306.6 -4035.4 L 7426.1 -3918.3 L 7161.3 -3892.5 L 7162.8 -3776.2 L 7327.3 -3704.6 L 7650.4 -3749.9 L 7701.5 -3883.3 L 8138.3 -3982.9 L 8868 -4162.4 L 9025.7 -4152.1 L 8819.5 -4025.2 L 9078.9 -4003.4 L 9228.7 -4074.9 L 9620.6 -4080.6 L 9931.1 -4167.3 L 10169.4 -4041.4 L 10407 -4179.8 L 10187.9 -4301 L 10296.6 -4370 L 10914.3 -4306.7 L 11203.7 -4241.3 L 11961.4 -4002.5 L 12101.2 -4111.9 L 11888.7 -4222.4 L 11882.6 -4266.8 L 11630.6 -4287.3 L 11699.6 -4386.4 L 11587.7 -4549.5 L 11581.4 -4616.5 L 11967.3 -4805.8 L 12104.5 -4995.8 L 12260 -5037 L 12813.5 -4981.8 L 12857.1 -4865.5 L 12658.9 -4695.9 L 12789 -4629.3 L 12856.3 -4483.1 L 12808.8 -4196.6 L 13039.4 -4068.4 L 12949.7 -3928.9 L 12540.1 -3631.9 L 12779.1 -3601.1 L 12862.3 -3676.3 L 13092.4 -3730 L 13147.9 -3833.5 L 13328.8 -3933.1 L 13207 -4051.9 L 13304.6 -4190 L 13075.9 -4207.2 L 13025.6 -4323.5 L 13192.5 -4533.4 L 12920.9 -4703.9 L 13295.1 -4844.8 L 13246.7 -4993.5 L 13351 -4998.3 L 13460.9 -4882.4 L 13378.4 -4680.6 L 13602.1 -4642.4 L 13506.8 -4793.2 L 13856.7 -4875.4 L 14290.7 -4886.4 L 14677.1 -4767.2 L 14491.1 -4941.4 L 14470.3 -5164.1 L 14833.9 -5206.3 L 15336.8 -5197.1 L 15789.9 -5224.5 L 15620 -5333.8 L 15861.9 -5471.1 L 16102.2 -5476.9 L 16508.7 -5580.6 L 17060.8 -5608.5 L 17130.6 -5665.7 L 17679.6 -5685.1 L 17850.7 -5638.2 L 18320 -5749.3 L 18704.1 -5745.8 L 18761.7 -5836.1 L 18961.5 -5925.1 L 19455.1 -6010.9 L 19813.7 -5943.1 L 19529 -5891.6 L 20002.6 -5859.6 L 20059.1 -5756.2 L 20250.1 -5807.1 L 20861.4 -5804.3 L 21332.7 -5702.3 L 21500.6 -5624 L 21448.5 -5515.3 L 21217.3 -5453.4 L 20667.8 -5337.4 L 20510.7 -5275.3 L 20770 -5246.1 L 21079.3 -5193.3 L 21267.5 -5232.9 L 21374.2 -5098.7 L 21466 -5153 L 21800.3 -5186 L 22471.2 -5151.5 L 22522.1 -5053.7 L 23396.3 -5022.6 L 23408.2 -5182.3 L 23852 -5145.7 L 24185.8 -5146.8 L 24523.4 -5036.7 L 24619.7 -4902.9 L 24496 -4815.3 L 24758.6 -4650.8 L 25087.4 -4565.9 L 25289.2 -4785.3 L 25624.6 -4691.2 L 25980.9 -4747.4 L 26385.6 -4683.1 L 26539.6 -4741.7 L 26881.7 -4712.4 L 26730.7 -4906.5 L 27006.8 -4997.1 L 28895.2 -4861.3 L 29073.2 -4737.2 L 29620.6 -4577.4 L 30464.9 -4617 L 30881.1 -4582.5 L 31055.2 -4496.1 L 31029.8 -4343.2 L 31287.4 -4283.7 L 31567.2 -4326.5 L 31938 -4332 L 32332.8 -4290.9 L 32729.1 -4314.1 L 33093.3 -4128.2 L 33352.4 -4195.1 L 33183.3 -4328.7 L 33276.4 -4421.6 L 33943.5 -4363.2 L 34378.4 -4375.7 L 34979.8 -4275.9 L 35272.5 -4184.6 L 35272.5 -3351.6 L 35271 -3350.5 L 35002.2 -3258.6 L 34731.2 -3274 L 34919.8 -3162.7 L 35044.2 -2990.4 L 35140.9 -2934.1 L 35165.1 -2847.6 L 35111.1 -2792.2 L 34721.4 -2837.7 L 34137 -2680.3 L 33951.1 -2656 L 33631.1 -2509.1 L 33327.7 -2380.7 L 33250.8 -2285.7 L 32951.7 -2430.3 L 32406.9 -2266.2 L 32311.8 -2343.9 L 32110.4 -2254.3 L 31830.7 -2283 L 31763.4 -2145.4 L 31512.5 -1943.1 L 31520 -1858.6 L 31758.1 -1811.7 L 31730.1 -1507.3 L 31536 -1499.6 L 31446.5 -1324.7 L 31533.4 -1234.7 L 31167.8 -1127.9 L 31095.2 -889.1 L 30783.5 -838.1 L 30720.9 -625.7 L 30419.5 -430.9 L 30342.1 -575 L 30252.6 -880 L 30135.9 -1344.6 L 30236.4 -1634.6 L 30412.9 -1759.4 L 30423.8 -1857.1 L 30748.7 -1903.9 L 31122.2 -2167.1 L 31482.1 -2382.1 L 31858 -2549 L 32026.1 -2843.7 L 31772 -2826.1 L 31646.4 -2653.8 L 31116.1 -2424.2 L 30944.8 -2681.3 L 30405 -2610.3 L 29881.7 -2259.9 L 30054.4 -2131.6 L 29587.7 -2077 L 29264.4 -2055.5 L 29279.6 -2206.7 L 28954.6 -2238.4 L 28695.5 -2135.7 L 28056.2 -2171.7 L 27368.4 -2109.7 L 26691.1 -1701.6 L 25889.8 -1208.4 L 26219.2 -1182.1 L 26322 -1051.1 L 26525.1 -1004.6 L 26658.9 -1109.1 L 26888.3 -1095.5 L 27190.2 -865.5 L 27197.3 -687.6 L 27033.8 -478.7 L 27016.2 -229 L 26921.8 105.3 L 26606.7 407.8 L 26536.6 552.5 L 26252.8 795.9 L 25971.2 1037.3 L 25836.1 1160.9 L 25557.5 1283.5 L 25425.6 1286.3 L 25294.3 1184.6 L 25013.6 1337.6 L 24981.1 1407.2 L 24981.1 1407.2 L 24981.1 1407.2 L 24981.1 1407.2 L 24951.8 1370.6 L 24951.8 1370.6 L 24950.5 1264.4 L 25057.3 1258.8 L 25087.4 1011.7 L 25032.3 832.6 L 25211.8 758.8 L 25465.5 795.8 L 25606.2 592.4 L 25677.8 363.3 L 25759 286.8 L 25868.9 98.7 L 25523.4 160.3 L 25342.1 242.8 L 25024.4 242.6 L 24939.7 46.1 L 24692.1 -102.5 L 24328.2 -169.4 L 24250.8 -374.2 L 24178 -502.6 L 24099.6 -592.6 L 23970.4 -803.5 L 23786.8 -880.5 L 23473.8 -942.7 L 23196.6 -937.1 L 22936.8 -899.3 L 22764.1 -795.3 L 22878.8 -745.6 L 22881.4 -630.2 L 22765.1 -563.2 L 22576.4 -341.4 L 22578.3 -249.4 L 22283.6 -117.3 L 22032.6 -196.2 L 21783.2 -178.8 L 21673.7 -248.8 L 21548.3 -271.4 L 21242 -124.1 L 20966.8 -89.4 L 20774.6 -37.6 L 20511.2 -71.7 L 20317.3 -69.5 L 20190.4 -176.4 L 19985.6 -276.9 L 19776.1 -304.4 L 19511.6 -277.1 L 19314 -238.3 L 19016.9 -326.3 L 18977.1 -482.9 L 18731.2 -536.7 L 18541.4 -561.2 L 18307.2 -647.6 L 18090.6 -430.9 L 18175.5 -307.8 L 17972.3 -162.2 L 17670 -214.8 L 17461.3 -222.3 L 17321.5 -320 L 17103.4 -323.1 L 16921.6 -387.2 L 16603.6 -288.9 L 16204.6 -108.8 L 15984.1 -72.6 L 15902.3 -55.4 L 15791.4 -183.3 L 15522.1 -155.3 L 15433 -244 L 15286.8 -284.6 L 15186.2 -405.4 L 15070.8 -443.1 L 14770.3 -389.3 L 14482.3 -509.8 L 14370.9 -400.3 L 13903.6 -931.3 L 13636.9 -1092.9 L 13713.4 -1158.4 L 13189.3 -961.1 L 12988.8 -949.2 L 13006.1 -1063.3 L 12737.6 -1134.6 L 12519.3 -1083.7 L 12453.4 -1300.5 L 12077.7 -1345.5 L 11889.7 -1258.8 L 11366.5 -1181.6 L 11264.4 -1129.9 L 10482 -1057.2 L 10386.1 -985.8 L 10537.1 -842.6 L 10336.3 -788.2 L 10375.5 -731.3 L 10174.8 -629.4 L 10513.6 -485.6 L 10461.2 -386.6 L 10167.6 -395.6 L 10106.8 -333.6 L 9839.4 -441.9 L 9507.9 -437.7 L 9286.1 -349.5 L 9038.5 -434.1 L 8577.6 -578.9 L 8251 -573.4 L 7819.4 -346 L 7793.3 -193.3 L 7578.3 -314.6 L 7411.5 -84.9 L 7472.6 -42.2 L 7351.9 116.3 L 7529.3 258.1 L 7684.5 252.2 L 7817.8 392 L 7796.6 499.5 L 7902.8 533.4 Z M 17244.2 -6706.5 L 17696.5 -6753.7 L 18102.8 -6648.4 L 18584.3 -6446.3 L 18532.6 -6258.3 L 18076.4 -6232.2 L 17494.1 -6292.5 L 17147 -6372.3 L 16986.6 -6522.3 L 16701.3 -6563.6 L 17244.2 -6706.5 Z M 19138.6 -6342 L 19668.6 -6223.2 L 19606.5 -6138.2 L 18427.8 -6057.5 L 18809.7 -6332.1 L 18981.5 -6355.6 L 19138.6 -6342 Z M 26664.5 -5684.5 L 27216.6 -5675.3 L 27972.4 -5564.4 L 27808 -5409.1 L 27037.2 -5414.9 L 26690.5 -5365.5 L 26276.2 -5501.5 L 26388.6 -5645.2 L 26664.5 -5684.5 Z M 28628.1 -5519.1 L 29152.8 -5464.4 L 28911.1 -5381.7 L 28576.9 -5400.4 L 28188.3 -5482.9 L 28238.4 -5550.7 L 28628.1 -5519.1 Z M 26880.3 -5105.9 L 27078.6 -5188.6 L 27340 -5207.9 L 27637.1 -5128 L 27662.4 -5073 L 27345.4 -5071.6 L 26916.9 -5094.9 L 26880.3 -5105.9 Z M 7013.2 -6615.6 L 7421.4 -6653.6 L 7739.1 -6656.2 L 7781.8 -6599.8 L 7901.9 -6649.9 L 8099 -6684.4 L 8409.1 -6638.5 L 8328.3 -6606.7 L 8047.6 -6579.1 L 7859.5 -6563.2 L 7830.4 -6528.9 L 7586 -6494.4 L 7359.5 -6543.9 L 7478.6 -6609.2 L 7013.2 -6615.6 Z M 2389 -1124.4 L 2004.5 -1121.2 L 1747 -1145 L 1794.7 -1237 L 2083.2 -1304.8 L 2302.2 -1268.2 L 2394.6 -1235 L 2372.3 -1177.7 L 2389 -1124.4 Z M 8824.2 -5185.4 L 9324.8 -5368.9 L 9268.3 -5463.8 L 9736 -5574.2 L 10426.2 -5708.5 L 11122.2 -5747.7 L 11480.3 -5825.2 L 11887.2 -5852.4 L 12032.5 -5769.8 L 11892.1 -5704.7 L 11151.2 -5601 L 10512.7 -5501.3 L 9863.2 -5302.3 L 9551.6 -5098.2 L 9223.8 -4897.1 L 9266.4 -4723.5 L 9666.3 -4552 L 9542.8 -4533.6 L 8859.6 -4560.8 L 8804.1 -4653.6 L 8425.6 -4709.7 L 8395.1 -4822.6 L 8608.9 -4867.5 L 8601.7 -4981.5 L 9016.5 -5159.8 L 8824.2 -5185.4 Z M 27518.3 -994.1 L 27590.7 -792.6 L 27585.3 -586.8 L 27671.6 -375.8 L 27882 -5.5 L 27572.5 -74.5 L 27443.9 227.6 L 27647.7 441.9 L 27641.8 588 L 27483.4 462 L 27346.3 623.8 L 27307.6 448.3 L 27330.9 244.6 L 27307.1 19 L 27355.5 -139 L 27364.7 -418.6 L 27242.2 -624.2 L 27260.7 -909.9 L 27454 -1006.1 L 27370.9 -1103 L 27464 -1132.4 L 27518.3 -994.1 Z M -38939.8 -3817.1 L -38957.7 -3687.1 L -38816.7 -3635.1 L -38865.2 -3787.1 L -38297.7 -3755.9 L -37888.3 -3560.2 L -38095.6 -3469.1 L -38438.4 -3447.4 L -38443.5 -3243.1 L -38527.2 -3199.6 L -38723.1 -3205.9 L -38882.4 -3278.8 L -39160.4 -3339.7 L -39207.2 -3430.4 L -39419.5 -3464.6 L -39657.3 -3437.5 L -39770.9 -3510.7 L -39725.5 -3588.4 L -39975.9 -3538.7 L -39881.6 -3440.4 L -40000.2 -3351.6 L -40000.2 -4184.6 L -39487.9 -4025 L -38939.8 -3817.1 Z M -39727.1 -4588 L -40000.2 -4575.3 L -40000.2 -4718.2 L -39973.4 -4727 L -39796.2 -4726.6 L -39493.8 -4666.8 L -39511.7 -4638.2 L -39727.1 -4588 Z M 4627.3 622.7 L 4682.4 570.9 L 4831.1 615.8 L 4898.3 624 L 4925.4 665.3 L 4957 671.7 L 4958.7 689.8 L 5061 740.2 L 5274.2 727.7 L 5233.4 802.3 L 5004.5 838.5 L 4720.7 959.5 L 4604.4 916.9 L 4650.5 818.7 L 4422 757.5 L 4459 717.4 L 4659.1 647.9 L 4627.3 622.7 Z" />
<path class="neighbor" d="M 1186.4 172.9 L 1170.6 258.3 L 1052.8 258.7 L 1093.3 304 L 1023.9 438.6 L 984 473.9 L 801.2 479.1 L 695.7 526.6 L 523 510.4 L 224 456.4 L 177.2 383.6 L -29.4 420 L -53.7 459.8 L -180.4 430 L -287.1 424.3 L -381.7 386.3 L -349.7 335.1 L -357.8 298 L -294.7 286.5 L -188.9 344.5 L -159.1 289.3 L 25.3 298.2 L 174.8 260.8 L 275 267.2 L 340.2 310 L 359.7 274.5 L 330.1 138.2 L 405.2 111.7 L 478.9 15.3 L 634.3 82.6 L 751.9 -3 L 825.5 -18.6 L 987.8 45.2 L 1086 34.4 L 1182.4 73.8 L 1165.6 100.4 L 1186.4 172.9 Z" />
<path class="neighbor" d="M 2254 110.4 L 2370.1 167.3 L 2384.7 223.3 L 2257 267.2 L 2158.1 409 L 2031.6 550.8 L 1864 590.2 L 1733.5 580.9 L 1573.3 635.9 L 1573.3 635.9 L 1495.1 667.1 L 1322.4 626.9 L 1166.1 537.3 L 1099.7 511.5 L 1059.1 440.9 L 1023.9 438.6 L 1093.3 304 L 1052.8 258.7 L 1170.6 258.3 L 1186.4 172.9 L 1292.8 226.4 L 1369.9 249.2 L 1545.4 223.6 L 1562.3 181.6 L 1645.3 175.4 L 1747.2 142.9 L 1769.8 156.3 L 1868 130.2 L 1917 81 L 1985.5 68.2 L 2209.4 131.8 L 2254 110.4 Z" />
<path class="neighbor" d="M 588.4 -1005.1 L 637.3 -898.7 L 579 -842.9 L 654.9 -768.3 L 706.7 -656.5 L 690.4 -584.4 L 776.1 -450.9 L 682.8 -429.1 L 627.6 -453.1 L 575.2 -413.3 L 425 -372.8 L 347.4 -320.7 L 195.4 -275.2 L 232.1 -213.1 L 254.2 -124.9 L 360.9 -74.6 L 478.9 15.3 L 405.2 111.7 L 330.1 138.2 L 359.7 274.5 L 340.2 310 L 275 267.2 L 174.8 260.8 L 25.3 298.2 L -159.1 289.3 L -188.9 344.5 L -294.7 286.5 L -357.8 298 L -581.8 234 L -624.8 279.5 L -802.6 278 L -776.1 129 L -670.4 -14.1 L -971.7 -52.6 L -1070.3 -107.4 L -1058.5 -199.1 L -1100.3 -246.3 L -1076.5 -387.6 L -1111.7 -606.7 L -986.1 -606.8 L -933.1 -685.5 L -881 -876.9 L -920 -947.6 L -879.2 -991.9 L -704.5 -1003.2 L -665.7 -957.1 L -523.7 -1060.2 L -571.5 -1138.6 L -581.1 -1257.2 L -423.1 -1229.6 L -289.3 -1261.4 L -285.6 -1180.6 L -74.3 -1131.9 L -76.5 -1057.7 L 136.1 -1097 L 253.6 -1154.2 L 489.7 -1071.7 L 588.4 -1005.1 Z" />
<path class="neighbor" d="M 1099.7 511.5 L 1166.1 537.3 L 1322.4 626.9 L 1495.1 667.1 L 1573.3 635.9 L 1624.1 716.9 L 1690.5 776.5 L 1610 855.2 L 1515.5 808.9 L 1370.9 811.8 L 1191.1 777.1 L 1093.5 781.7 L 1048.1 825.1 L 973.1 777.1 L 929.3 863.9 L 1031.7 961.6 L 1077 1026.4 L 1173.2 1104.5 L 1252.9 1150.8 L 1331.8 1238.2 L 1516.9 1317.3 L 1493.9 1352.9 L 1493.9 1352.9 L 1297.3 1275.5 L 1176.1 1200.2 L 984.8 1138.1 L 809 984.2 L 851.2 968.6 L 755.9 880.6 L 751.9 810 L 617.5 777.1 L 553.4 867.3 L 491.7 797.3 L 496.4 724.7 L 503.8 721.3 L 649.6 728.5 L 687.9 693.2 L 759 727.3 L 841 731.4 L 840.2 672.9 L 912.9 651.5 L 933.2 567.1 L 1099.7 511.5 Z" />
<path class="neighbor" d="M -180.4 430 L -53.7 459.8 L -29.4 420 L 177.2 383.6 L 224 456.4 L 523 510.4 L 500.3 613.3 L 550.4 702.4 L 383.9 671.9 L 213.9 746.1 L 225.5 849.9 L 199.9 909.5 L 268.4 1015.9 L 464.5 1121.2 L 569.7 1294.1 L 802.3 1462.6 L 966.2 1461.3 L 1017.1 1507.5 L 958.5 1549.2 L 1145.7 1624.8 L 1299.2 1688 L 1478.5 1797 L 1500.2 1836.1 L 1461.1 1911 L 1345.1 1813.3 L 1163.4 1778.9 L 1075.4 1914.2 L 1226.6 1991.7 L 1201.7 2100.8 L 1114.4 2113.2 L 1002.7 2292.5 L 915.5 2308.6 L 916.4 2244.7 L 959 2132.6 L 1004.5 2087.9 L 922.8 1966.7 L 859 1861.3 L 772.2 1835.2 L 710.5 1745 L 576.1 1707 L 485.6 1622.9 L 330.9 1609.4 L 167.5 1515 L -23.7 1378.9 L -165.9 1258.5 L -231.1 1051.8 L -335.1 1027.5 L -505.3 958.4 L -601.5 986.7 L -722.3 1083.7 L -809.2 1099.1 L -785.3 1008.3 L -898.6 981.8 L -952.5 820 L -880 756.3 L -941.5 677.8 L -932.9 618.7 L -843 663.5 L -742.1 653.6 L -624.9 582.6 L -588.7 615.8 L -489.1 609.1 L -443.8 524.8 L -289.1 551 L -197 515.7 L -180.4 430 Z M 722.6 2259.5 L 881.3 2241.3 L 806 2405.8 L 837.3 2470.6 L 793.4 2578.1 L 633.5 2499.4 L 527.2 2476.8 L 235.4 2370.5 L 264.6 2263.2 L 509.3 2282.3 L 722.6 2259.5 Z M -542.7 1683.2 L -438.1 1618.4 L -312.7 1766.9 L -342 2043.4 L -437.1 2030.2 L -522.4 2100 L -601.6 2044.6 L -609.9 1792.3 L -657.7 1672.8 L -542.7 1683.2 Z" />
<path class="neighbor" d="M 2352.9 -28.3 L 2294.9 26.1 L 2254 110.4 L 2209.4 131.8 L 1985.5 68.2 L 1917 81 L 1868 130.2 L 1769.8 156.3 L 1747.2 142.9 L 1645.3 175.4 L 1562.3 181.6 L 1545.4 223.6 L 1369.9 249.2 L 1292.8 226.4 L 1186.4 172.9 L 1165.6 100.4 L 1182.4 73.8 L 1212 27.9 L 1304.7 31.4 L 1376.1 9.8 L 1381.7 -9.7 L 1421.7 -19.6 L 1435.4 -67.2 L 1483.4 -76.3 L 1515.8 -113.9 L 1578.2 -114.2 L 1590 -101.5 L 1675.9 -129.9 L 1781.4 -55.8 L 1904.9 -100.6 L 2003.6 -79.2 L 2154.1 -108.7 L 2352.9 -28.3 Z" />
<path class="neighbor" d="M 1516.9 1317.3 L 1331.8 1238.2 L 1252.9 1150.8 L 1173.2 1104.5 L 1077 1026.4 L 1031.7 961.6 L 929.3 863.9 L 973.1 777.1 L 1048.1 825.1 L 1093.5 781.7 L 1191.1 777.1 L 1370.9 811.8 L 1515.5 808.9 L 1610 855.2 L 1610 855.2 L 1685.8 854.6 L 1633.5 946.6 L 1734.3 1027 L 1703.8 1125.3 L 1654.6 1134.6 L 1615.5 1153.7 L 1547.5 1202.3 L 1516.9 1317.3 Z" />

<path class="country" d="M 523 510.4 L 695.7 526.6 L 801.2 479.1 L 984 473.9 L 1023.9 438.6 L 1059.1 440.9 L 1099.7 511.5 L 933.2 567.1 L 912.9 651.5 L 840.2 672.9 L 841 731.4 L 759 727.3 L 687.9 693.2 L 649.6 728.5 L 503.8 721.3 L 550.4 702.4 L 500.3 613.3 L 523 510.4 Z" />


<g class="city"><circle cx="1057.858018181818" cy="156.44518181818358" r="5" /><text x="1069.858018181818" y="160.44518181818358">Vienna</text></g>
<g class="city"><circle cx="981.6029818181818" cy="658.6719272727277" r="5" /><text x="993.6029818181818" y="662.6719272727277">Zagreb</text></g>
<g class="city"><circle cx="1215.1545999999994" cy="167.30599090909146" r="5" /><text x="1227.1545999999994" y="171.30599090909146">Bratislava</text></g>
<g class="city"><circle cx="671.097545454546" cy="605.2949909090921" r="5" /><text x="683.097545454546" y="609.2949909090921">Ljubljana</text></g>
<g class="city"><circle cx="215.28563636363725" cy="734.2265090909092" r="5" /><text x="227.28563636363725" y="738.2265090909092">Venice</text></g>
<g class="city"><circle cx="1228.3258636363635" cy="871.8614363636362" r="5" /><text x="1240.3258636363635" y="875.8614363636362">Banja Luka</text></g>
<g class="city"><circle cx="521.6094636363644" cy="689.9579909090907" r="5" /><text x="533.6094636363644" y="693.9579909090907">Trieste</text></g>
<text class="map-title" x="80" y="105">Slovenia Political Study Map</text>
<text class="map-subtitle" x="80" y="145">Capital: Ljubljana | Continent: Europe</text>
  <text class="footer" x="80" y="1036">Made with Natural Earth. Free vector and raster map data @ naturalearthdata.com.</text>
</svg>
