<?xml version="1.0" encoding="UTF-8"?>
<svg xmlns="http://www.w3.org/2000/svg" width="1600" height="1100" viewBox="0 0 1600 1100" role="img" aria-labelledby="title desc">
  <title id="title">Slovakia Political Study Map</title>
  <desc id="desc">Made with Natural Earth. Free vector and raster map data @ naturalearthdata.com.</desc>
  <defs>
    <linearGradient id="terrain" x1="0" x2="1" y1="0" y2="1">
      <stop offset="0%" stop-color="#6c8c53" />
      <stop offset="42%" stop-color="#d5c487" />
      <stop offset="72%" stop-color="#b88b5f" />
      <stop offset="100%" stop-color="#f1f5ee" />
    </linearGradient>
    <filter id="softShadow" x="-10%" y="-10%" width="120%" height="120%">
      <feDropShadow dx="0" dy="10" stdDeviation="12" flood-color="#0f172a" flood-opacity="0.16" />
    </filter>
    <style>
      .neighbor { fill: #ffffff; stroke: #94a3b8; stroke-width: 1.2; opacity: 0.72; }
      .country { fill: #f7f1df; stroke: #1f2937; stroke-width: 4; filter: url(#softShadow); }
      .admin1 { fill: none; stroke: #64748b; stroke-width: 1.1; stroke-dasharray: 6 7; opacity: 0.75; }
      .river { fill: none; stroke: #1d9bd1; stroke-width: 3; stroke-linecap: round; opacity: 0.88; }
      .lake { fill: #8ed1ea; stroke: #0ea5e9; stroke-width: 1.5; opacity: 0.8; }
      .city circle { fill: #ef4444; stroke: #ffffff; stroke-width: 2; }
      .city text, .terrain-label { fill: #172033; font: 700 24px system-ui, sans-serif; paint-order: stroke; stroke: #ffffff; stroke-width: 5; stroke-linejoin: round; }
      .map-title { fill: #0f172a; font: 800 46px system-ui, sans-serif; }
      .map-subtitle { fill: #475569; font: 600 24px system-ui, sans-serif; }
      .footer { fill: #64748b; font: 500 18px system-ui, sans-serif; }
    </style>
  </defs>
  <rect width="100%" height="100%" fill="#eaf3f8" />
  <rect x="40" y="40" width="1520" height="1020" rx="32" fill="#ffffff" opacity="0.54" />
  <path class="neighbor" d="M 20682.2 -2220.1 L 20841.6 -2272.3 L 20841.6 -2186.8 L 20704.5 -2180.4 L 20682.2 -2220.1 Z M 4474 868.3 L 4417 942.5 L 4295.7 963.1 L 4171.5 1092.1 L 4285.1 1210.8 L 4272.8 1295 L 4409.3 1442.3 L 4409.3 1442.3 L 4334.7 1492.7 L 4313.2 1524.5 L 4257.9 1516 L 4172 1440 L 4136.8 1435.8 L 4058.2 1406.8 L 4019.9 1355.5 L 3903.3 1329.4 L 3827.5 1349 L 3805.6 1325.8 L 3635.3 1265.8 L 3451.3 1245.6 L 3345.6 1224.2 L 3330.3 1239 L 3170.9 1133.3 L 3028.2 1086.1 L 2920.2 1012.7 L 3011.2 992.7 L 3115 888.1 L 3045.1 838.6 L 3229.4 787.6 L 3226.1 760.3 L 3113.8 780.4 L 3117.8 724.9 L 3182.2 690 L 3303.2 680.8 L 3322.9 639.1 L 3295.3 570.1 L 3346 504.7 L 3344.6 468 L 3160.3 427.3 L 3087.2 428.6 L 3010 370.1 L 2914.1 389.9 L 2755.3 345.9 L 2758 321.3 L 2713.5 267.1 L 2613.8 261 L 2603.5 222.2 L 2634.7 196.9 L 2554.8 126.1 L 2425.1 138.2 L 2387.1 131.9 L 2355.6 160.3 L 2308.9 155.3 L 2308.9 155.3 L 2278.1 75.2 L 2248.7 33.7 L 2272.8 22 L 2373.7 26.4 L 2422.3 -1 L 2386.3 -34.3 L 2302 -56.3 L 2309.5 -78.9 L 2258.7 -101.7 L 2180.3 -183.6 L 2207.1 -217.3 L 2194.8 -276 L 2072.6 -305.8 L 2007 -290.9 L 1989.2 -322 L 1857.5 -353.3 L 1817.4 -427.1 L 1806.7 -487.8 L 1746.4 -516.5 L 1800 -556.2 L 1762.9 -672.9 L 1851.9 -744.9 L 1833.1 -766.7 L 1833.1 -766.7 L 1975.2 -835.8 L 1844.2 -895.3 L 1844.2 -895.3 L 2111.9 -1054.9 L 2228.1 -1127.1 L 2275.1 -1190.9 L 2090 -1276.6 L 2141.1 -1358.1 L 2028.6 -1451.1 L 2112.8 -1558.3 L 1967.3 -1700.7 L 2082.7 -1794.9 L 1891.2 -1878.3 L 1909.5 -1965.8 L 2010.5 -1977.3 L 2223.2 -2027.5 L 2223.2 -2027.5 L 2352.2 -2071 L 2557.6 -1995.4 L 2900 -1965.6 L 3372.5 -1824.2 L 3468.5 -1764.8 L 3476.7 -1681.6 L 3337.9 -1615.9 L 3133.7 -1582.5 L 2575.5 -1677.6 L 2483.7 -1661.7 L 2687.6 -1570.1 L 2695.6 -1512.1 L 2703.7 -1384.3 L 2864.7 -1346.2 L 2962.4 -1313.7 L 2978.6 -1374.4 L 2903.2 -1428.1 L 2982.8 -1475.4 L 3285.1 -1397.6 L 3390.4 -1428.1 L 3306.3 -1519.7 L 3597.7 -1642.1 L 3713.1 -1634.9 L 3829.8 -1591.2 L 3902.7 -1677.2 L 3798.4 -1751.7 L 3859.6 -1826.5 L 3767.7 -1904 L 4117.4 -1863.9 L 4188.9 -1793.9 L 4030.6 -1778.5 L 4031.4 -1708.9 L 4129.8 -1666.1 L 4323 -1693.2 L 4353.6 -1772.9 L 4614.8 -1832.5 L 5051.2 -1939.9 L 5145.5 -1933.7 L 5022.2 -1857.8 L 5177.3 -1844.8 L 5266.9 -1887.5 L 5501.3 -1891 L 5687 -1942.8 L 5829.4 -1867.5 L 5971.5 -1950.3 L 5840.5 -2022.7 L 5905.5 -2064 L 6274.9 -2026.1 L 6448 -1987.1 L 6901.1 -1844.2 L 6984.7 -1909.6 L 6857.6 -1975.8 L 6854 -2002.3 L 6703.3 -2014.5 L 6744.5 -2073.8 L 6677.6 -2171.4 L 6673.9 -2211.4 L 6904.6 -2324.6 L 6986.7 -2438.3 L 7079.7 -2462.9 L 7410.7 -2429.9 L 7436.8 -2360.3 L 7318.2 -2258.9 L 7396 -2219.1 L 7436.3 -2131.6 L 7407.9 -1960.3 L 7545.8 -1883.7 L 7492.1 -1800.2 L 7247.2 -1622.6 L 7390.1 -1604.2 L 7439.9 -1649.2 L 7577.4 -1681.3 L 7610.6 -1743.2 L 7718.9 -1802.7 L 7646 -1873.8 L 7704.3 -1956.3 L 7567.6 -1966.6 L 7537.5 -2036.2 L 7637.3 -2161.7 L 7474.9 -2263.7 L 7698.7 -2348 L 7669.8 -2436.9 L 7732.1 -2439.7 L 7797.8 -2370.4 L 7748.5 -2249.7 L 7882.3 -2226.9 L 7825.3 -2317.1 L 8034.5 -2366.2 L 8294.1 -2372.8 L 8525.1 -2301.6 L 8413.9 -2405.7 L 8401.5 -2538.9 L 8618.9 -2564.1 L 8919.7 -2558.6 L 9190.6 -2575 L 9089 -2640.4 L 9233.7 -2722.5 L 9377.4 -2725.9 L 9620.5 -2788 L 9950.7 -2804.6 L 9992.4 -2838.9 L 10320.7 -2850.5 L 10423 -2822.4 L 10703.7 -2888.9 L 10933.4 -2886.8 L 10967.8 -2940.8 L 11087.3 -2994 L 11382.5 -3045.3 L 11597 -3004.8 L 11426.7 -2974 L 11709.9 -2954.8 L 11743.7 -2893 L 11857.9 -2923.4 L 12223.5 -2921.8 L 12505.4 -2860.8 L 12605.7 -2813.9 L 12574.6 -2748.9 L 12436.3 -2711.9 L 12107.7 -2642.5 L 12013.8 -2605.4 L 12168.8 -2587.9 L 12353.8 -2556.4 L 12466.3 -2580 L 12530.1 -2499.8 L 12585 -2532.2 L 12785 -2552 L 13186.2 -2531.4 L 13216.7 -2472.9 L 13739.4 -2454.3 L 13746.5 -2549.8 L 14011.9 -2527.9 L 14211.5 -2528.6 L 14413.4 -2462.7 L 14471 -2382.7 L 14397 -2330.3 L 14554.1 -2231.9 L 14750.7 -2181.1 L 14871.4 -2312.4 L 15072 -2256.1 L 15285.1 -2289.7 L 15527.1 -2251.2 L 15619.2 -2286.3 L 15823.7 -2268.8 L 15733.5 -2384.9 L 15898.5 -2439 L 17027.9 -2357.8 L 17134.3 -2283.6 L 17461.6 -2188.1 L 17966.6 -2211.7 L 18215.5 -2191.1 L 18319.6 -2139.4 L 18304.4 -2048 L 18458.4 -2012.4 L 18625.8 -2038 L 18847.5 -2041.3 L 19083.6 -2016.7 L 19320.6 -2030.6 L 19538.4 -1919.4 L 19693.4 -1959.4 L 19592.2 -2039.3 L 19647.9 -2094.9 L 20046.9 -2059.9 L 20307 -2067.4 L 20666.6 -2007.7 L 20841.6 -1953.2 L 20841.6 -1455 L 20840.7 -1454.3 L 20680 -1399.4 L 20517.9 -1408.5 L 20630.7 -1342 L 20705.1 -1239 L 20762.9 -1205.3 L 20777.4 -1153.6 L 20745.1 -1120.4 L 20512.1 -1147.7 L 20162.6 -1053.6 L 20051.4 -1039 L 19860.1 -951.1 L 19678.6 -874.4 L 19632.6 -817.6 L 19453.7 -904.1 L 19127.9 -805.9 L 19071.1 -852.3 L 18950.6 -798.8 L 18783.4 -815.9 L 18743.1 -733.7 L 18593.1 -612.7 L 18597.5 -562.1 L 18739.9 -534.1 L 18723.2 -352.1 L 18607.1 -347.5 L 18553.6 -242.9 L 18605.6 -189 L 18386.9 -125.1 L 18343.5 17.6 L 18157.1 48.1 L 18119.6 175.2 L 17939.4 291.6 L 17893.2 205.5 L 17839.6 23.1 L 17769.8 -254.8 L 17830 -428.2 L 17935.5 -502.8 L 17942 -561.3 L 18136.3 -589.2 L 18359.7 -746.7 L 18574.9 -875.2 L 18799.7 -975 L 18900.2 -1151.3 L 18748.2 -1140.7 L 18673.2 -1037.7 L 18356 -900.4 L 18253.6 -1054.2 L 17930.8 -1011.7 L 17617.8 -802.1 L 17721.1 -725.4 L 17442 -692.8 L 17248.7 -679.9 L 17257.7 -770.3 L 17063.4 -789.3 L 16908.5 -727.9 L 16526.1 -749.4 L 16114.8 -712.3 L 15709.8 -468.2 L 15230.6 -173.3 L 15427.6 -157.6 L 15489.1 -79.3 L 15610.5 -51.5 L 15690.5 -113.9 L 15827.7 -105.8 L 16008.2 31.7 L 16012.5 138.1 L 15914.7 263.1 L 15904.2 412.4 L 15847.7 612.3 L 15659.3 793.2 L 15617.4 879.7 L 15447.7 1025.3 L 15279.2 1169.7 L 15198.5 1243.6 L 15031.8 1316.9 L 14953 1318.6 L 14874.4 1257.8 L 14706.6 1349.3 L 14687.1 1390.9 L 14687.1 1390.9 L 14687.1 1390.9 L 14687.1 1390.9 L 14669.6 1369 L 14669.6 1369 L 14668.9 1305.5 L 14732.7 1302.1 L 14750.7 1154.4 L 14717.8 1047.3 L 14825.1 1003.1 L 14976.9 1025.3 L 15061 903.6 L 15103.8 766.6 L 15152.4 720.9 L 15218.1 608.4 L 15011.4 645.2 L 14903 694.5 L 14713 694.4 L 14662.4 576.9 L 14514.3 488 L 14296.7 448 L 14250.4 325.6 L 14206.9 248.8 L 14160 195 L 14082.7 68.9 L 13972.9 22.8 L 13785.8 -14.4 L 13620 -11 L 13464.6 11.5 L 13361.3 73.7 L 13429.9 103.4 L 13431.5 172.5 L 13362 212.6 L 13249.1 345.2 L 13250.2 400.2 L 13074 479.2 L 12923.9 432 L 12774.7 442.4 L 12709.2 400.5 L 12634.3 387 L 12451.1 475.1 L 12286.5 495.9 L 12171.6 526.8 L 12014.1 506.5 L 11898.1 507.8 L 11822.2 443.9 L 11699.8 383.8 L 11574.4 367.3 L 11416.3 383.6 L 11298.1 406.8 L 11120.5 354.2 L 11096.6 260.5 L 10949.6 228.4 L 10836.1 213.8 L 10696 162.1 L 10566.5 291.7 L 10617.3 365.3 L 10495.7 452.3 L 10315 420.9 L 10190.2 416.4 L 10106.6 358 L 9976.1 356.1 L 9867.4 317.8 L 9677.2 376.6 L 9438.6 484.3 L 9306.8 505.9 L 9257.9 516.2 L 9191.5 439.7 L 9030.4 456.5 L 8977.2 403.4 L 8889.8 379.1 L 8829.6 306.9 L 8760.6 284.4 L 8580.9 316.5 L 8408.6 244.5 L 8342 309.9 L 8062.6 -7.6 L 7903.1 -104.2 L 7948.8 -143.4 L 7635.4 -25.4 L 7515.5 -18.3 L 7525.9 -86.5 L 7365.3 -129.2 L 7234.7 -98.8 L 7195.4 -228.4 L 6970.6 -255.3 L 6858.2 -203.4 L 6545.3 -157.3 L 6484.3 -126.4 L 6016.4 -82.9 L 5959.1 -40.2 L 6049.3 45.5 L 5929.3 78 L 5952.7 112 L 5832.7 172.9 L 6035.3 258.9 L 6004 318.2 L 5828.4 312.8 L 5792 349.9 L 5632.1 285.1 L 5433.9 287.6 L 5301.2 340.3 L 5153.1 289.7 L 4877.5 203.2 L 4682.2 206.4 L 4424.1 342.4 L 4408.5 433.7 L 4279.9 361.2 L 4180.2 498.6 L 4216.7 524.1 L 4144.5 618.9 L 4250.6 703.7 L 4343.4 700.2 L 4423.1 783.7 L 4410.4 848.1 L 4474 868.3 Z M 10060.3 -3461.3 L 10330.8 -3489.5 L 10573.8 -3426.5 L 10861.7 -3305.7 L 10830.8 -3193.2 L 10558 -3177.6 L 10209.7 -3213.7 L 10002.2 -3261.4 L 9906.3 -3351.1 L 9735.7 -3375.8 L 10060.3 -3461.3 Z M 11193.2 -3243.3 L 11510.2 -3172.3 L 11473 -3121.4 L 10768.1 -3073.2 L 10996.5 -3237.4 L 11099.3 -3251.4 L 11193.2 -3243.3 Z M 15693.8 -2850.1 L 16024 -2844.6 L 16476 -2778.3 L 16377.7 -2685.4 L 15916.8 -2688.9 L 15709.4 -2659.4 L 15461.7 -2740.7 L 15528.9 -2826.6 L 15693.8 -2850.1 Z M 16868.1 -2751.2 L 17181.9 -2718.5 L 17037.4 -2669 L 16837.5 -2680.2 L 16605.2 -2729.6 L 16635.1 -2770.1 L 16868.1 -2751.2 Z M 15822.9 -2504.1 L 15941.5 -2553.5 L 16097.8 -2565.1 L 16275.5 -2517.3 L 16290.6 -2484.4 L 16101 -2483.6 L 15844.8 -2497.5 L 15822.9 -2504.1 Z M 3942 -3406.9 L 4186.1 -3429.7 L 4376.1 -3431.2 L 4401.6 -3397.5 L 4473.5 -3427.4 L 4591.3 -3448 L 4776.8 -3420.6 L 4728.4 -3401.6 L 4560.5 -3385.1 L 4448.1 -3375.6 L 4430.7 -3355.1 L 4284.5 -3334.4 L 4149.1 -3364.1 L 4220.3 -3403.1 L 3942 -3406.9 Z M 1176.6 -123 L 946.7 -121.2 L 792.7 -135.4 L 821.2 -190.4 L 993.7 -231 L 1124.7 -209 L 1180 -189.2 L 1166.6 -155 L 1176.6 -123 Z M 5025 -2551.6 L 5324.4 -2661.4 L 5290.6 -2718.1 L 5570.2 -2784.1 L 5983.1 -2864.5 L 6399.2 -2887.9 L 6613.4 -2934.2 L 6856.7 -2950.5 L 6943.6 -2901.1 L 6859.7 -2862.2 L 6416.6 -2800.2 L 6034.8 -2740.6 L 5646.3 -2621.5 L 5460 -2499.5 L 5264 -2379.2 L 5289.4 -2275.4 L 5528.6 -2172.8 L 5454.8 -2161.9 L 5046.2 -2178.1 L 5013 -2233.6 L 4786.6 -2267.1 L 4768.4 -2334.7 L 4896.2 -2361.5 L 4892 -2429.7 L 5140 -2536.3 L 5025 -2551.6 Z M 16204.4 -45.2 L 16247.7 75.4 L 16244.5 198.4 L 16296.2 324.6 L 16422 546.1 L 16236.9 504.8 L 16159.9 685.5 L 16281.8 813.6 L 16278.3 901 L 16183.6 825.6 L 16101.6 922.4 L 16078.4 817.5 L 16092.4 695.6 L 16078.1 560.7 L 16107.1 466.2 L 16112.6 299 L 16039.3 176.1 L 16050.4 5.2 L 16166 -52.3 L 16116.3 -110.3 L 16172 -127.8 L 16204.4 -45.2 Z M -23538.8 -1733.4 L -23549.6 -1655.6 L -23465.2 -1624.5 L -23494.3 -1715.4 L -23154.8 -1696.8 L -22910 -1579.7 L -23034 -1525.2 L -23239 -1512.3 L -23242.1 -1390.1 L -23292.1 -1364.1 L -23409.2 -1367.8 L -23504.5 -1411.4 L -23670.8 -1447.9 L -23698.7 -1502.1 L -23825.7 -1522.6 L -23967.9 -1506.4 L -24035.9 -1550.1 L -24008.7 -1596.6 L -24158.5 -1566.9 L -24102.1 -1508.1 L -24173 -1455 L -24173 -1953.2 L -23866.6 -1857.7 L -23538.8 -1733.4 Z M -24009.7 -2194.4 L -24173 -2186.8 L -24173 -2272.3 L -24157 -2277.5 L -24051 -2277.2 L -23870.1 -2241.5 L -23880.8 -2224.4 L -24009.7 -2194.4 Z M 2515.2 921.7 L 2548.1 890.8 L 2637 917.6 L 2677.2 922.5 L 2693.5 947.2 L 2712.3 951 L 2713.3 961.8 L 2774.5 992 L 2902 984.5 L 2877.6 1029.1 L 2740.7 1050.8 L 2571 1123.1 L 2501.5 1097.7 L 2529 1038.9 L 2392.4 1002.3 L 2414.5 978.4 L 2534.2 936.8 L 2515.2 921.7 Z" />
<path class="neighbor" d="M 2308.9 155.3 L 2355.6 160.3 L 2387.1 131.9 L 2425.1 138.2 L 2554.8 126.1 L 2634.7 196.9 L 2603.5 222.2 L 2613.8 261 L 2713.5 267.1 L 2758 321.3 L 2755.3 345.9 L 2914.1 389.9 L 3010 370.1 L 3087.2 428.6 L 3160.3 427.3 L 3344.6 468 L 3346 504.7 L 3295.3 570.1 L 3322.9 639.1 L 3303.2 680.8 L 3182.2 690 L 3117.8 724.9 L 3113.8 780.4 L 3014 790.4 L 2930.8 830.9 L 2813.7 837.5 L 2706 884.1 L 2712.3 951 L 2693.5 947.2 L 2677.2 922.5 L 2637 917.6 L 2548.1 890.8 L 2515.2 921.7 L 2498 908.2 L 2303.6 876.6 L 2295 829.9 L 2179.2 845.3 L 2132.8 914.2 L 2035.9 1006.6 L 1979.2 985.1 L 1920.5 1005.3 L 1864.7 982.2 L 1896.1 968.6 L 1918 925.7 L 1952.2 885.9 L 1943.4 863.5 L 1969.5 853.5 L 1981.8 870.8 L 2055.5 874.5 L 2088.6 865.2 L 2065.3 852.5 L 2074.1 833.9 L 2030.5 802.1 L 2012.4 749.8 L 1966.9 729.4 L 1975.8 687 L 1919.3 653.4 L 1867.9 648.7 L 1775.8 609.7 L 1692.6 622.1 L 1662.8 640.6 L 1610.1 640.5 L 1578.6 669.8 L 1486.3 681.8 L 1443.6 701 L 1385.6 670.4 L 1305.4 670 L 1228 656.1 L 1174.1 682.9 L 1165.3 649.4 L 1095.9 615.4 L 1120.3 564.9 L 1155 532.4 L 1182.3 539.7 L 1150 483.5 L 1263.6 379.5 L 1325.6 364.9 L 1339 329.9 L 1276.2 220.7 L 1335.9 215.8 L 1404.5 181.9 L 1501.3 179.2 L 1627.6 189 L 1767.2 219 L 1865.7 221.5 L 1912.7 239.5 L 1959.6 217.8 L 1992.4 247 L 2105.2 241 L 2154.9 253.1 L 2163 190.1 L 2201.5 162.7 L 2308.9 155.3 Z" />
<path class="neighbor" d="M 1270.8 -71.2 L 1276.2 -15.8 L 1310.9 31.7 L 1310.2 81.6 L 1235.2 107.1 L 1273.8 165 L 1276.2 220.7 L 1339 329.9 L 1325.6 364.9 L 1263.6 379.5 L 1150 483.5 L 1182.3 539.7 L 1155 532.4 L 1036.2 484.3 L 946.2 502 L 887.1 489.2 L 813.2 516 L 750.2 471.6 L 698.8 488.6 L 691.7 481.1 L 634.2 419.5 L 541.2 411.9 L 529.4 372.8 L 443.6 358.8 L 424.9 391.1 L 357 365.2 L 364.8 330.8 L 271.3 319.9 L 212.1 279.7 L 160.8 199.9 L 170.5 156.7 L 139.6 89.9 L 94.2 45.3 L 129.1 11.9 L 99.9 -51.7 L 185.3 -88.4 L 380.4 -146.3 L 537.9 -188.6 L 662.7 -167.4 L 672.1 -136.9 L 792.7 -135.4 L 946.7 -121.2 L 1176.6 -123 L 1240.8 -109.7 L 1270.8 -71.2 Z" />
<path class="neighbor" d="M 457.5 652.7 L 448 703.8 L 377.6 704.1 L 401.8 731.2 L 360.3 811.7 L 336.4 832.8 L 227.1 835.9 L 164 864.2 L 60.7 854.5 L -118.1 822.3 L -146.1 778.8 L -269.6 800.5 L -284.2 824.3 L -359.9 806.5 L -423.7 803.1 L -480.3 780.3 L -461.2 749.7 L -466 727.5 L -428.3 720.6 L -365 755.4 L -347.2 722.4 L -236.9 727.7 L -147.5 705.3 L -87.6 709.1 L -48.6 734.7 L -36.9 713.5 L -54.6 632 L -9.7 616.1 L 34.4 558.5 L 127.3 598.7 L 197.6 547.6 L 241.6 538.2 L 338.7 576.4 L 397.4 569.9 L 455 593.5 L 445 609.4 L 457.5 652.7 Z" />
<path class="neighbor" d="M 1095.9 615.4 L 1165.3 649.4 L 1174.1 682.9 L 1097.7 709.1 L 1038.5 793.9 L 962.9 878.7 L 862.7 902.3 L 784.6 896.8 L 688.8 929.6 L 688.8 929.6 L 642.1 948.3 L 538.8 924.3 L 445.3 870.6 L 405.6 855.2 L 381.3 813 L 360.3 811.7 L 401.8 731.2 L 377.6 704.1 L 448 703.8 L 457.5 652.7 L 521.1 684.7 L 567.2 698.4 L 672.1 683 L 682.2 657.9 L 731.9 654.2 L 792.8 634.8 L 806.3 642.8 L 865 627.2 L 894.3 597.8 L 935.3 590.1 L 1069.2 628.1 L 1095.9 615.4 Z" />
<path class="neighbor" d="M 1864.7 982.2 L 1920.5 1005.3 L 1979.2 985.1 L 2035.9 1006.6 L 2038.8 1038.8 L 1978.2 1065.8 L 1940.2 1054 L 1905.2 1204.9 L 1831.7 1191.8 L 1740.7 1146.3 L 1593.5 1175.4 L 1531.5 1207.3 L 1347.9 1200.7 L 1251.8 1181.2 L 1203.4 1190.3 L 1167.4 1138.9 L 1144.5 1117.1 L 1173.5 1096 L 1142.6 1080.5 L 1103.4 1108.5 L 1030.4 1072.2 L 1020.6 1020.6 L 944.5 991.2 L 930.4 951.4 L 862.7 902.3 L 962.9 878.7 L 1038.5 793.9 L 1097.7 709.1 L 1174.1 682.9 L 1228 656.1 L 1305.4 670 L 1385.6 670.4 L 1443.6 701 L 1486.3 681.8 L 1578.6 669.8 L 1610.1 640.5 L 1662.8 640.6 L 1700.9 652.7 L 1739.7 689.8 L 1779.3 742.5 L 1851.5 816.9 L 1855.5 871.8 L 1842.3 925.2 L 1864.7 982.2 Z" />
<path class="neighbor" d="M 99.9 -51.7 L 129.1 11.9 L 94.2 45.3 L 139.6 89.9 L 170.5 156.7 L 160.8 199.9 L 212.1 279.7 L 156.2 292.7 L 123.3 278.4 L 91.9 302.2 L 2.1 326.4 L -44.3 357.5 L -135.2 384.8 L -113.3 421.9 L -100 474.7 L -36.2 504.7 L 34.4 558.5 L -9.7 616.1 L -54.6 632 L -36.9 713.5 L -48.6 734.7 L -87.6 709.1 L -147.5 705.3 L -236.9 727.7 L -347.2 722.4 L -365 755.4 L -428.3 720.6 L -466 727.5 L -600 689.3 L -625.7 716.5 L -732 715.6 L -716.2 626.5 L -652.9 540.9 L -833.1 517.9 L -892.1 485.1 L -885.1 430.3 L -910.1 402.1 L -895.9 317.6 L -916.9 186.5 L -841.7 186.5 L -810 139.4 L -778.9 24.9 L -802.3 -17.3 L -777.8 -43.8 L -673.3 -50.6 L -650.1 -23 L -565.2 -84.7 L -593.8 -131.6 L -599.6 -202.5 L -505.1 -186 L -425 -205 L -422.8 -156.7 L -296.5 -127.6 L -297.8 -83.2 L -170.7 -106.7 L -100.4 -140.9 L 40.8 -91.5 L 99.9 -51.7 Z" />
<path class="neighbor" d="M 405.6 855.2 L 445.3 870.6 L 538.8 924.3 L 642.1 948.3 L 688.8 929.6 L 719.2 978.1 L 758.9 1013.7 L 710.8 1060.8 L 654.2 1033.1 L 567.8 1034.8 L 460.3 1014 L 401.9 1016.8 L 374.7 1042.8 L 329.9 1014 L 303.7 1065.9 L 364.9 1124.4 L 392 1163.2 L 449.5 1209.9 L 497.2 1237.5 L 544.4 1289.8 L 655.1 1337.1 L 641.3 1358.4 L 641.3 1358.4 L 523.8 1312.1 L 451.3 1267.1 L 336.9 1229.9 L 231.7 1137.9 L 257 1128.6 L 200 1076 L 197.6 1033.8 L 117.2 1014 L 78.9 1068 L 42 1026.2 L 44.8 982.7 L 49.3 980.7 L 136.4 985 L 159.3 963.9 L 201.8 984.3 L 250.9 986.7 L 250.4 951.8 L 293.9 939 L 306 888.5 L 405.6 855.2 Z" />
<path class="neighbor" d="M -359.9 806.5 L -284.2 824.3 L -269.6 800.5 L -146.1 778.8 L -118.1 822.3 L 60.7 854.5 L 47.1 916.1 L 77.1 969.4 L -22.4 951.2 L -124.1 995.5 L -117.2 1057.6 L -132.5 1093.2 L -91.5 1156.9 L 25.7 1219.9 L 88.6 1323.2 L 227.8 1424 L 325.7 1423.2 L 356.2 1450.9 L 321.1 1475.8 L 433.1 1521 L 524.9 1558.8 L 632.1 1624 L 645.1 1647.4 L 621.7 1692.1 L 552.3 1633.8 L 443.7 1613.2 L 391.1 1694.1 L 481.5 1740.4 L 466.6 1805.7 L 414.4 1813.1 L 347.6 1920.3 L 295.5 1930 L 295.9 1891.7 L 321.5 1824.7 L 348.6 1798 L 299.8 1725.5 L 261.6 1662.4 L 209.7 1646.9 L 172.8 1592.9 L 92.5 1570.2 L 38.4 1519.9 L -54.1 1511.8 L -151.9 1455.3 L -266.2 1374 L -351.3 1301.9 L -390.3 1178.3 L -452.5 1163.8 L -554.2 1122.5 L -611.8 1139.4 L -684 1197.4 L -736 1206.6 L -721.7 1152.3 L -789.5 1136.5 L -821.7 1039.7 L -778.3 1001.6 L -815.1 954.7 L -810 919.3 L -756.2 946.1 L -695.9 940.2 L -625.8 897.8 L -604.1 917.6 L -544.5 913.6 L -517.5 863.2 L -424.9 878.9 L -369.8 857.8 L -359.9 806.5 Z M 180.1 1900.6 L 275 1889.7 L 230 1988.1 L 248.7 2026.8 L 222.4 2091.1 L 126.8 2044 L 63.2 2030.5 L -111.3 1967 L -93.8 1902.8 L 52.5 1914.2 L 180.1 1900.6 Z M -576.6 1555.9 L -514.1 1517.2 L -439 1606 L -456.6 1771.3 L -513.5 1763.4 L -564.5 1805.2 L -611.8 1772 L -616.8 1621.2 L -645.4 1549.7 L -576.6 1555.9 Z" />
<path class="neighbor" d="M 60.7 854.5 L 164 864.2 L 227.1 835.9 L 336.4 832.8 L 360.3 811.7 L 381.3 813 L 405.6 855.2 L 306 888.5 L 293.9 939 L 250.4 951.8 L 250.9 986.7 L 201.8 984.3 L 159.3 963.9 L 136.4 985 L 49.3 980.7 L 77.1 969.4 L 47.1 916.1 L 60.7 854.5 Z" />
<path class="neighbor" d="M 212.1 279.7 L 271.3 319.9 L 364.8 330.8 L 357 365.2 L 424.9 391.1 L 443.6 358.8 L 529.4 372.8 L 541.2 411.9 L 634.2 419.5 L 691.7 481.1 L 654.4 481.2 L 635.1 503.7 L 606.4 509.2 L 598.2 537.6 L 574.2 543.6 L 570.9 555.2 L 528.2 568.1 L 472.8 566 L 455 593.5 L 397.4 569.9 L 338.7 576.4 L 241.6 538.2 L 197.6 547.6 L 127.3 598.7 L 34.4 558.5 L -36.2 504.7 L -100 474.7 L -113.3 421.9 L -135.2 384.8 L -44.3 357.5 L 2.1 326.4 L 91.9 302.2 L 123.3 278.4 L 156.2 292.7 L 212.1 279.7 Z" />

<path class="country" d="M 1155 532.4 L 1120.3 564.9 L 1095.9 615.4 L 1069.2 628.1 L 935.3 590.1 L 894.3 597.8 L 865 627.2 L 806.3 642.8 L 792.8 634.8 L 731.9 654.2 L 682.2 657.9 L 672.1 683 L 567.2 698.4 L 521.1 684.7 L 457.5 652.7 L 445 609.4 L 455 593.5 L 472.8 566 L 528.2 568.1 L 570.9 555.2 L 574.2 543.6 L 598.2 537.6 L 606.4 509.2 L 635.1 503.7 L 654.4 481.2 L 691.7 481.1 L 698.8 488.6 L 750.2 471.6 L 813.2 516 L 887.1 489.2 L 946.2 502 L 1036.2 484.3 L 1155 532.4 Z" />


<g class="city"><circle cx="380.56782088548175" cy="642.8988694391054" r="5" /><text x="392.56782088548175" y="646.8988694391054">Vienna</text></g>
<g class="city"><circle cx="720.26341214708" cy="730.4284261348976" r="5" /><text x="732.26341214708" y="734.4284261348976">Budapest</text></g>
<g class="city"><circle cx="137.7697042437207" cy="407.1965576846707" r="5" /><text x="149.7697042437207" y="411.1965576846707">Prague</text></g>
<g class="city"><circle cx="1339.0419062177766" cy="438.70516743554924" r="5" /><text x="1351.0419062177766" y="442.70516743554924">Lviv</text></g>
<g class="city"><circle cx="829.8853949918592" cy="410.3278247952021" r="5" /><text x="841.8853949918592" y="414.3278247952021">Kraków</text></g>
<g class="city"><circle cx="474.634375954866" cy="649.3938541656576" r="5" /><text x="486.634375954866" y="653.3938541656576">Bratislava</text></g>
<text class="map-title" x="80" y="105">Slovakia Political Study Map</text>
<text class="map-subtitle" x="80" y="145">Capital: Bratislava | Continent: Europe</text>
  <text class="footer" x="80" y="1036">Made with Natural Earth. Free vector and raster map data @ naturalearthdata.com.</text>
</svg>
