<?xml version="1.0" encoding="UTF-8"?>
<svg xmlns="http://www.w3.org/2000/svg" width="1600" height="1100" viewBox="0 0 1600 1100" role="img" aria-labelledby="title desc">
  <title id="title">Senegal Physical Study Map</title>
  <desc id="desc">Made with Natural Earth. Free vector and raster map data @ naturalearthdata.com.</desc>
  <defs>
    <linearGradient id="terrain" x1="0" x2="1" y1="0" y2="1">
      <stop offset="0%" stop-color="#6c8c53" />
      <stop offset="42%" stop-color="#d5c487" />
      <stop offset="72%" stop-color="#b88b5f" />
      <stop offset="100%" stop-color="#f1f5ee" />
    </linearGradient>
    <filter id="softShadow" x="-10%" y="-10%" width="120%" height="120%">
      <feDropShadow dx="0" dy="10" stdDeviation="12" flood-color="#0f172a" flood-opacity="0.16" />
    </filter>
    <style>
      .neighbor { fill: #ffffff; stroke: #94a3b8; stroke-width: 1.2; opacity: 0.72; }
      .country { fill: url(#terrain); stroke: #1f2937; stroke-width: 4; filter: url(#softShadow); }
      .admin1 { fill: none; stroke: #64748b; stroke-width: 1.1; stroke-dasharray: 6 7; opacity: 0.75; }
      .river { fill: none; stroke: #1d9bd1; stroke-width: 3; stroke-linecap: round; opacity: 0.88; }
      .lake { fill: #8ed1ea; stroke: #0ea5e9; stroke-width: 1.5; opacity: 0.8; }
      .city circle { fill: #ef4444; stroke: #ffffff; stroke-width: 2; }
      .city text, .terrain-label { fill: #172033; font: 700 24px system-ui, sans-serif; paint-order: stroke; stroke: #ffffff; stroke-width: 5; stroke-linejoin: round; }
      .map-title { fill: #0f172a; font: 800 46px system-ui, sans-serif; }
      .map-subtitle { fill: #475569; font: 600 24px system-ui, sans-serif; }
      .footer { fill: #64748b; font: 500 18px system-ui, sans-serif; }
    </style>
  </defs>
  <rect width="100%" height="100%" fill="#d8edf0" />
  <rect x="40" y="40" width="1520" height="1020" rx="32" fill="#ffffff" opacity="0.54" />
  <path class="neighbor" d="M -3201.5 1696.6 L -3265.3 1795.2 L -3298.4 1874.6 L -3339.7 1915.6 L -3391.4 1923.3 L -3406.1 1892.9 L -3430.2 1888.4 L -3463.6 1917.7 L -3510.7 1895.4 L -3483.2 1850.1 L -3473.7 1800.8 L -3454.8 1754.4 L -3497.2 1690.5 L -3505.7 1616.7 L -3449.6 1524 L -3412.9 1535.9 L -3333.5 1561.4 L -3219.4 1652.4 L -3201.5 1696.6 Z M 3035.5 -3188.7 L 3086.4 -3160.5 L 3241.8 -3140.6 L 3187.3 -3066.8 L 3173.6 -2990 L 3144 -2971.6 L 3094.8 -2981.5 L 3098.3 -2954.1 L 3019.5 -2893.5 L 3017.9 -2844.7 L 3069.3 -2861.6 L 3106.4 -2814.3 L 3101.9 -2783.8 L 3133.7 -2743.3 L 3096.3 -2710.5 L 3124.1 -2627.1 L 3182.5 -2613.4 L 3170.2 -2566.6 L 3072.5 -2505.7 L 2859.8 -2534.9 L 2702.8 -2499.9 L 2690.4 -2434.9 L 2565.4 -2421 L 2444.1 -2469.7 L 2404.9 -2446.4 L 2206.4 -2495.4 L 2163.5 -2537.4 L 2219.2 -2602 L 2239.8 -2816.8 L 2128.5 -2930 L 2049 -2984.6 L 1884.2 -3026 L 1873.3 -3104.7 L 2013.1 -3128.1 L 2194.2 -3100.4 L 2160 -3222.4 L 2261.8 -3176.2 L 2512.8 -3260.3 L 2545.2 -3348.6 L 2639.5 -3370.4 L 2655.1 -3332.5 L 2705.2 -3330.7 L 2755.4 -3287.4 L 2830.6 -3236.6 L 2885.9 -3245 L 2980.3 -3195.8 L 3004.4 -3186.4 L 3035.5 -3188.7 Z M 3311.5 -2451.7 L 3380.9 -2492.8 L 3399.3 -2400.4 L 3363.7 -2317.1 L 3314.7 -2339 L 3289.8 -2411.6 L 3311.5 -2451.7 Z" />
<path class="neighbor" d="M 1127 803 L 1131.9 769.5 L 1122.7 727.8 L 1082.4 697.5 L 1061.1 635.7 L 1056.2 568.6 L 1092.4 549 L 1110.6 485.5 L 1144.8 483 L 1220.1 513 L 1280.9 491.7 L 1322.5 498.9 L 1338.7 474.9 L 1771.4 473.2 L 1795.4 397.7 L 1776.7 384.5 L 1724.6 -80.9 L 1672.6 -546.2 L 1837.6 -548.2 L 2201.3 -312.9 L 2565.1 -77.7 L 2590.7 -27.1 L 2657.8 3.7 L 2707.8 21.2 L 2709 89.8 L 2828.6 79.3 L 2828.9 327.6 L 2770 399.6 L 2760.8 466.1 L 2665 483.2 L 2517.9 492.4 L 2478 530.8 L 2408.9 535 L 2339.8 535.5 L 2312.9 514.8 L 2253.5 530.2 L 2152.7 574.9 L 2132.1 608.6 L 2048.5 656.9 L 2033.8 684.6 L 1988.6 706.6 L 1936.5 692 L 1906.9 718.4 L 1891.1 792.3 L 1805.5 881.7 L 1808 918.2 L 1778.6 963.9 L 1785.7 1026.5 L 1741.3 1042.5 L 1716.1 1056.1 L 1699.4 1010 L 1668.3 1022.1 L 1649.7 1020 L 1629.8 1051.5 L 1546.5 1050.6 L 1516.7 1034.4 L 1502.6 1044.2 L 1469.7 1013.1 L 1475.4 981 L 1462 968.4 L 1439 979 L 1443.2 943.9 L 1465.3 916.2 L 1421.1 871 L 1408.3 841.3 L 1384.3 817.6 L 1362.7 814.8 L 1336.8 829.9 L 1302 844.3 L 1272.4 867.6 L 1226.3 859 L 1196.3 831.6 L 1178.5 828 L 1150.3 842.4 L 1133.2 842.5 L 1127 803 Z" />
<path class="neighbor" d="M 528.6 -119.6 L 552.1 -155.6 L 974.4 -154.9 L 953.9 -310.6 L 980.3 -366 L 1081.3 -375.7 L 1077.9 -651.6 L 1431.8 -645.9 L 1432.1 -809.2 L 1837.6 -548.2 L 1672.6 -546.2 L 1724.6 -80.9 L 1776.7 384.5 L 1795.4 397.7 L 1771.4 473.2 L 1338.7 474.9 L 1322.5 498.9 L 1280.9 491.7 L 1220.1 513 L 1144.8 483 L 1110.6 485.5 L 1092.4 549 L 1056.2 568.6 L 985 494.6 L 919.8 415.3 L 848.2 386.7 L 796.7 355 L 736.5 356.2 L 683.9 379.7 L 630.3 370.4 L 593.3 404.9 L 584 346.8 L 614.1 293.7 L 627.5 192.2 L 615.6 85.6 L 602.6 32 L 613.3 -21.8 L 585.4 -73 L 528.6 -119.6 Z" />
<path class="neighbor" d="M 1502.6 1044.2 L 1516.7 1034.4 L 1546.5 1050.6 L 1629.8 1051.5 L 1649.7 1020 L 1668.3 1022.1 L 1699.4 1010 L 1716.1 1056.1 L 1741.3 1042.5 L 1785.7 1026.5 L 1834.2 1050 L 1853.1 1085.7 L 1901.6 1108.4 L 1939.3 1081.3 L 1989.8 1077.2 L 2063.6 1105 L 2092.2 1258.4 L 2046.8 1349 L 2018.6 1470.8 L 2065.4 1563.6 L 2060.5 1606.2 L 2011.5 1607.3 L 1936.2 1586.2 L 1867.1 1587.4 L 1739.4 1606.3 L 1664.5 1637.4 L 1557.7 1676.9 L 1536.9 1674.1 L 1545.2 1585.3 L 1555.5 1571.8 L 1552.2 1529.3 L 1506.6 1484.2 L 1472.3 1476.9 L 1440.9 1447.3 L 1464.3 1399.4 L 1453.5 1347.3 L 1458.5 1316 L 1475.6 1315.8 L 1482 1268.8 L 1473.6 1248 L 1483.9 1233 L 1524 1220 L 1497.3 1133.7 L 1472.5 1089.2 L 1481.1 1052.5 L 1502.6 1044.2 Z" />
<path class="neighbor" d="M 891.2 787.6 L 943.3 788.7 L 1020.8 815 L 1044.5 812.6 L 1052.6 800.6 L 1111.4 809.1 L 1127 803 L 1133.2 842.5 L 1150.3 842.4 L 1178.5 828 L 1196.3 831.6 L 1226.3 859 L 1272.4 867.6 L 1302 844.3 L 1336.8 829.9 L 1362.7 814.8 L 1384.3 817.6 L 1408.3 841.3 L 1421.1 871 L 1465.3 916.2 L 1443.2 943.9 L 1439 979 L 1462 968.4 L 1475.4 981 L 1469.7 1013.1 L 1502.6 1044.2 L 1481.1 1052.5 L 1472.5 1089.2 L 1497.3 1133.7 L 1524 1220 L 1483.9 1233 L 1473.6 1248 L 1482 1268.8 L 1475.6 1315.8 L 1458.5 1316 L 1428 1313.2 L 1406 1356.6 L 1375.5 1356.1 L 1354.6 1333.1 L 1361.7 1289.8 L 1316.6 1223.8 L 1288.4 1235.9 L 1265.4 1238.3 L 1235.7 1244.5 L 1236.9 1205 L 1219.6 1176.7 L 1223.1 1145.4 L 1199.7 1100.1 L 1169.7 1061.5 L 1083.5 1061.4 L 1058.4 1081.7 L 1028.6 1084.2 L 1010.2 1107.4 L 997.8 1137.3 L 940.2 1184.7 L 892.9 1120.9 L 850.9 1078.7 L 823.3 1064.8 L 796.4 1043.3 L 784.2 995.7 L 768.4 971.9 L 737 954.3 L 785 901.7 L 817.7 903.7 L 845.8 885.6 L 869.6 885.4 L 886.6 871.2 L 877.4 835.4 L 889.2 824.2 L 891.2 787.6 Z" />
<path class="neighbor" d="M 570.2 809.3 L 627.3 791.7 L 663.1 795.2 L 692 783.1 L 891.2 787.6 L 889.2 824.2 L 877.4 835.4 L 886.6 871.2 L 869.6 885.4 L 845.8 885.6 L 817.7 903.7 L 785 901.7 L 737 954.3 L 679.5 909.2 L 634.1 902.1 L 609.3 871.7 L 610 855.3 L 577.1 832.4 L 570.2 809.3 Z" />
<path class="neighbor" d="M 566.3 678.8 L 683.8 675.7 L 708.1 650.2 L 742.3 648.5 L 784.8 675 L 818.3 675.5 L 853.9 657.4 L 875.6 688.5 L 829 712.7 L 782.1 710.8 L 735.9 688 L 695.9 712.9 L 676.6 713.8 L 650.7 728.9 L 552.5 726.7 L 566.3 678.8 Z" />

<path class="country" d="M 566.3 678.8 L 521.9 594.9 L 468.1 556.5 L 515.5 536 L 567.7 460.3 L 593.3 404.9 L 630.3 370.4 L 683.9 379.7 L 736.5 356.2 L 796.7 355 L 848.2 386.7 L 919.8 415.3 L 985 494.6 L 1056.2 568.6 L 1061.1 635.7 L 1082.4 697.5 L 1122.7 727.8 L 1131.9 769.5 L 1127 803 L 1111.4 809.1 L 1052.6 800.6 L 1044.5 812.6 L 1020.8 815 L 943.3 788.7 L 891.2 787.6 L 692 783.1 L 663.1 795.2 L 627.3 791.7 L 570.2 809.3 L 552.5 726.7 L 650.7 728.9 L 676.6 713.8 L 695.9 712.9 L 735.9 688 L 782.1 710.8 L 829 712.7 L 875.6 688.5 L 853.9 657.4 L 818.3 675.5 L 784.8 675 L 742.3 648.5 L 708.1 650.2 L 683.8 675.7 L 566.3 678.8 Z" />

<path class="river" d="M 1065.1 1002.8 L 1073.9 1009.5 L 1082.1 1010.2 L 1092.4 1007.2 L 1098.8 999.7 L 1101.3 987.7 L 1103.9 981 L 1107.9 979.2 L 1115.4 978.9 L 1117.4 973.3 L 1116.5 962.4 L 1119.8 950.8 L 1127.6 938.4 L 1134.6 931.6 L 1140.9 930.3 L 1149.7 924.5 L 1161 914.2 L 1168.6 904.9 L 1172.5 896.7 L 1176 894 L 1179.3 896.6 L 1186.1 896.8 L 1196.5 894.4 L 1210 879.5 L 1226.7 851.9 L 1240 835.9 L 1250 831.4 L 1253.5 825.9 L 1250.3 819.3 L 1253 808.2 L 1261.5 792.6 L 1264.5 782.2 L 1262.2 777.1 L 1263 772.7 L 1267 769 L 1266.2 764.9 L 1260.7 760.4 L 1258.6 755.6 L 1259.8 750.4 L 1258.7 747.6 L 1255.4 747.2 L 1252.3 740.7 L 1249.4 728.1 L 1243.9 720.1 L 1235.8 717 L 1224.6 715.4 L 1210.2 715.5 L 1203.5 710.9 L 1204.4 701.7 L 1206.9 696.9 L 1210.7 695.8 L 1211 694 L 1209 688.8 L 1200.4 674 L 1196.7 663.7 L 1196.1 662 L 1194 659.1" />
<path class="river" d="M 3044.1 1606.5 L 3039.5 1614.3 L 3029.6 1622.4 L 3023.8 1636.9 L 3021.4 1668.1 L 3023.7 1682.1 M 3044.1 1606.5 L 3044.6 1666.8 M 3064.5 1566.5 L 3055.7 1568.3 L 3048 1571.5 L 3041.3 1576.1 L 3038 1580.2 L 3038.1 1583.9 L 3033.8 1587.9 L 3025.1 1592.2 L 3014.6 1591.5 L 3002.1 1586 L 2987.1 1584.9 L 2958.9 1589 M 3064.5 1566.5 L 3057.9 1573.1 L 3053 1578 L 3051 1581.8 L 3051.4 1584.5 L 3054 1586.1 L 3053.6 1589.1 L 3050 1593.3 L 3046.9 1595.4 L 3044.1 1595.3 L 3043.2 1599 L 3044.1 1606.5 M 3075.5 1547.1 L 3080.8 1564 L 3078.8 1573.1 L 3071.8 1580.2 L 3066.6 1588.7 L 3063.2 1598.6 L 3065.1 1605.3 L 3072.2 1608.8 L 3077.2 1615.5 L 3080 1625.5 L 3084.7 1634.8 L 3091.8 1647.9 L 3092.5 1659.4 L 3092 1664.7 L 3092 1667.6 L 3092.5 1676.5 M 1211.3 1164.6 L 1218.5 1157.7 L 1223.2 1148.9 L 1227.7 1136 L 1227.3 1125.5 L 1219.5 1113.3 L 1221 1093.4 L 1216.4 1075.6 L 1206.3 1053.4 L 1202.3 1039.7 L 1204.4 1034.8 L 1209.7 1031.8 L 1218.2 1030.7 L 1221.9 1027.8 L 1220.8 1023 L 1224.1 1020.6 L 1231.9 1020.6 L 1238.4 1017.8 L 1243.5 1012.2 L 1251.1 1010 L 1261.1 1011.1 L 1266.7 1013.5 L 1268.8 1015 L 1271.5 1015.6 L 1273.9 1014.4 L 1284.5 1005.1 L 1293.5 1000.9 L 1300.9 1001.6 L 1304.7 999.1 L 1306.6 997.2 L 1311.6 995 L 1327.1 993.3 L 1340.3 982.3 L 1351.4 961.9 L 1361 951.6 L 1369.2 951.4 L 1376.6 948.2 L 1383.4 942 L 1385.5 932.8 L 1382.9 920.6 L 1388.5 913.5 L 1402.2 911.4 L 1414 904.2 L 1424 891.8 L 1435.7 881.1 L 1449 872.3 L 1459.2 861.1 L 1466.3 847.5 L 1475.5 835.3 L 1487 824.6 L 1495.3 810.4 L 1500.3 792.6 L 1509.7 783.3 L 1523.5 782.2 L 1541.8 770.3 L 1564.9 747.5 L 1583.6 731.8 L 1605.3 718.9 L 1619.2 708 L 1636.6 704 L 1662.1 703.3 L 1681.9 698.9 L 1696 690.8 L 1705.8 681.3 L 1711.4 670.5 L 1719.2 666.4 L 1732 665.5 L 1744.7 662.6 L 1765.2 647.3 L 1782.4 639.3 L 1796.5 638.5 L 1806.3 634.3 L 1811.7 626.7 L 1829.8 618.5 L 1860.4 609.7 L 1878 606.4 L 1884.7 605.6 L 1892.5 601.4 L 1915.5 575.8 L 1924.6 551.9 L 1932.6 539.8 L 1942.8 531.3 L 1945.7 519.5 L 1939.4 497 L 1942.1 496 L 1946.5 494.3 L 1953.1 489.2 L 1956.6 484.7 L 1956.8 480.8 L 1953 478.2 L 1945 476.9 L 1945.5 473 L 1959.2 462.3 L 1960.2 460.5 L 1952.2 458.1 L 1953.4 456.2 L 1957.5 454.7 L 1964.3 453.6 L 1968 448.4 L 1968.6 439.1 L 1971.5 433.3 L 1976.6 430.9 L 1980.6 426.1 L 1983.5 418.9 L 1990.7 414.5 M 2867.2 1081.1 L 2869.2 1092.9 L 2867.8 1102.1 L 2863.7 1112.7 L 2863 1123.3 L 2865.8 1134 L 2870.3 1140.6 L 2876.7 1143.3 L 2880.6 1148 L 2882.1 1154.8 L 2889.2 1157 L 2901.9 1154.4 L 2913.7 1158.2 L 2924.7 1168.3 L 2939 1175.5 L 2956.8 1179.8 L 2972.7 1186.9 L 2994.1 1202.1 L 3017.6 1200.8 L 3032.5 1202.1 L 3046.8 1205.5 L 3056.9 1214.3 L 3062.7 1228.5 L 3071.6 1241.4 L 3083.6 1253.2 L 3092.6 1266.5 L 3098.5 1281.5 L 3099.1 1304.4 L 3092 1350.9 L 3087.1 1392.8 L 3086.5 1417.6 L 3089.9 1450.3 L 3095.3 1475.9 L 3091.7 1500.2 L 3075.4 1547.2 L 3068.8 1555.5 L 3067.2 1560.1 L 3068.3 1563.7 L 3064.5 1566.5 M 1904.4 472.7 L 1900.7 460.4 L 1903 453.7 L 1910 448.4 L 1914.8 441.9 L 1917.2 434 L 1922.3 431.1 L 1930.1 433.2 L 1941.4 427.6 L 1956.1 414.5 L 1970.7 407.3 L 1985.1 406.2 L 1994.6 402.1 M 1990.7 414.5 L 1994.6 402.1 M 1994.6 402.1 L 1999.3 395.1 L 2004.1 391.3 L 2009.1 390.8 L 2011.5 388.1 L 2011.5 383.2 L 2016.7 377.9 L 2021.1 375.5 M 2021.1 375.5 L 2024.6 387.2 L 2024.8 392.2 L 2022.8 395.2 L 2019.8 397.2 L 2015.8 398.1 L 2012.4 401.9 L 2009.5 408.6 L 2002.3 412.8 L 1990.7 414.5 M 2021.1 375.5 L 2027 372.3 L 2033.5 364.4 L 2036.4 354.1 L 2042 349.4 L 2050.6 350.2 L 2072.7 345.1 L 2108.5 334.1 L 2131.5 329.2 L 2141.9 330.4 L 2148.2 329.5 L 2150.3 326.3 L 2164 320.8 L 2189.1 313 L 2212.3 307.9 L 2233.7 305.6 L 2247.9 306.5 L 2255.1 310.7 L 2264.5 312.2 L 2276.1 310.8 L 2285.4 312.5 L 2292.4 317.1 L 2303.7 318.4 L 2319.2 316.5 L 2331.2 325.4 L 2339.5 345 L 2346.6 357.3 L 2352.5 362 L 2358.8 373.6 L 2368.8 401.2 L 2383.9 421.3 L 2396.4 433.3 L 2411.3 443.8 L 2419.3 454.1 L 2420.3 464.3 L 2427.5 472.3 L 2440.9 478.1 L 2448.1 483.2 L 2449.2 487.3 L 2446.9 496.9 L 2441.2 511.8 L 2439.4 522.4 L 2441.3 528.7 L 2446.3 533 L 2454.6 535.3 L 2460.7 542.4 L 2464.6 554.2 L 2472.5 567.2 L 2484.5 581.5 L 2498.8 594.1 L 2515.3 605 L 2526.3 619.4 L 2531.5 637.3 L 2539 651.7 L 2548.6 662.5 L 2563.8 672.8 L 2584.5 682.8 L 2597.6 691.7 L 2602.9 699.6 L 2609.5 706 L 2617.5 710.8 L 2622.4 724 L 2624.1 745.6 L 2628.9 762.6 L 2636.9 775 L 2640.3 783.2 L 2638.9 787.2 L 2639.7 791.3 L 2642.3 793.8 L 2645.6 793.6 L 2648.5 791.3 L 2650.4 791.3 L 2651.7 793.6 L 2654.5 794.5 L 2658.7 793.6 L 2661.6 794.8 L 2663.5 800.3 L 2666.9 804.2 L 2672 805.6 L 2675.1 807.7 L 2708.1 838.1 L 2720.8 851.7 L 2724.2 858.7 L 2730.8 863.7 L 2740.5 866.8 L 2749.3 873.7 L 2756.1 883.6 L 2766.9 891.8 L 2783.7 897.2 L 2802.2 906.4 L 2814.1 916.5 L 2825.7 930.5 L 2839.4 940.3 L 2855.1 946.2 L 2866.6 953.8 L 2873.9 963.2 L 2875.8 976.2 L 2870.5 1001" />
<path class="river" d="M 1194 659.1 L 1191.7 657.9 L 1187.6 656.6 L 1181.2 650.7 L 1175.7 638.1 L 1168.4 630.3 L 1159.4 627.2 L 1155.9 623.8 L 1157.9 620.3 L 1157.7 614.5 L 1155.2 606.3 L 1150.1 598.2 L 1142.4 590.1 L 1131 582.4 L 1115.8 575.1 L 1102.6 570.7 L 1091.5 569.2 L 1081.5 565.4 L 1068 556.5 L 1042 547.1 L 1030.5 539.3 L 1025 530.1 L 1016 523.1 L 1003.4 518.5 L 995.3 513.2 L 991.5 507.2 L 986.9 503.2 L 982 501.2 L 981.6 499 L 982.7 496.1 L 981.5 490.6 L 974.2 478.5 L 967.4 472.9 L 961.5 473.8 L 958.2 472.3 L 956.2 469.6 L 955.4 465.7 L 951.4 462.3 L 944.5 460.8 L 938.9 451.8 L 934.7 435.3 L 929.3 422.4 L 922.6 413.1 L 917.8 409.7 L 914.2 409 L 913 407.6 L 912.1 404.9 L 906.8 404 L 899.5 406.8 L 892.9 405.8 L 889.7 401.3 L 885.2 400.9 L 879.4 404.6 L 873.1 403.5 L 866.2 397.6 L 862.4 391.8 L 861.6 386 L 849.7 374.3 L 826.6 356.9 L 801.4 348.8 L 774.1 349.9 L 758.8 349 L 755.5 346.3 L 752.1 346.5 L 748.7 349.7 L 745.1 350.4 L 741.3 348.6 L 739 350 L 738 354.4 L 728.4 356.7 L 710.1 356.8 L 695.4 359.5 L 684.2 364.9 L 668.3 367.2 L 647.7 366.4 L 635.3 364.5 L 631.1 361.3 L 625.1 360.5 L 617.5 362.2 L 610.7 370.8 L 604.7 386.4 L 599.7 395.3 L 595.7 397.5 L 591.5 409 L 589.1 428.4 L 585.6 436.9" />
<g class="city"><circle cx="484.2233110979532" cy="557.7633097009173" r="5" /><text x="496.2233110979532" y="561.7633097009173">Dakar</text></g>
<g class="city"><circle cx="645.932270929409" cy="194.53889831966532" r="5" /><text x="657.932270929409" y="198.53889831966532">Nouakchott</text></g>
<g class="city"><circle cx="686.5800129108658" cy="865.3613682892448" r="5" /><text x="698.5800129108658" y="869.3613682892448">Bissau</text></g>
<g class="city"><circle cx="632.4897343615145" cy="618.9866400198399" r="5" /><text x="644.4897343615145" y="622.9866400198399">Kaolack</text></g>
<g class="city"><circle cx="1364.6210398356939" cy="1024.4059735960136" r="5" /><text x="1376.6210398356939" y="1028.4059735960136">Kankan</text></g>
<g class="city"><circle cx="1134.9540032825666" cy="586.638400121514" r="5" /><text x="1146.9540032825666" y="590.638400121514">Kayes</text></g>
<g class="city"><circle cx="579.4731766683683" cy="694.0434801768519" r="5" /><text x="591.4731766683683" y="698.0434801768519">Banjul</text></g>
<g class="city"><circle cx="912.8369775822553" cy="403.33318097199043" r="5" /><text x="924.8369775822553" y="407.33318097199043">Kaédi</text></g>
<text class="map-title" x="80" y="105">Senegal Physical Study Map</text>
<text class="map-subtitle" x="80" y="145">Landmark: African Renaissance Monument | Study terrain and water systems</text>
  <text class="footer" x="80" y="1036">Made with Natural Earth. Free vector and raster map data @ naturalearthdata.com.</text>
</svg>
