<?xml version="1.0" encoding="UTF-8"?>
<svg xmlns="http://www.w3.org/2000/svg" width="1600" height="1100" viewBox="0 0 1600 1100" role="img" aria-labelledby="title desc">
  <title id="title">Somalia Political Study Map</title>
  <desc id="desc">Made with Natural Earth. Free vector and raster map data @ naturalearthdata.com.</desc>
  <defs>
    <linearGradient id="terrain" x1="0" x2="1" y1="0" y2="1">
      <stop offset="0%" stop-color="#6c8c53" />
      <stop offset="42%" stop-color="#d5c487" />
      <stop offset="72%" stop-color="#b88b5f" />
      <stop offset="100%" stop-color="#f1f5ee" />
    </linearGradient>
    <filter id="softShadow" x="-10%" y="-10%" width="120%" height="120%">
      <feDropShadow dx="0" dy="10" stdDeviation="12" flood-color="#0f172a" flood-opacity="0.16" />
    </filter>
    <style>
      .neighbor { fill: #ffffff; stroke: #94a3b8; stroke-width: 1.2; opacity: 0.72; }
      .country { fill: #f7f1df; stroke: #1f2937; stroke-width: 4; filter: url(#softShadow); }
      .admin1 { fill: none; stroke: #64748b; stroke-width: 1.1; stroke-dasharray: 6 7; opacity: 0.75; }
      .river { fill: none; stroke: #1d9bd1; stroke-width: 3; stroke-linecap: round; opacity: 0.88; }
      .lake { fill: #8ed1ea; stroke: #0ea5e9; stroke-width: 1.5; opacity: 0.8; }
      .city circle { fill: #ef4444; stroke: #ffffff; stroke-width: 2; }
      .city text, .terrain-label { fill: #172033; font: 700 24px system-ui, sans-serif; paint-order: stroke; stroke: #ffffff; stroke-width: 5; stroke-linejoin: round; }
      .map-title { fill: #0f172a; font: 800 46px system-ui, sans-serif; }
      .map-subtitle { fill: #475569; font: 600 24px system-ui, sans-serif; }
      .footer { fill: #64748b; font: 500 18px system-ui, sans-serif; }
    </style>
  </defs>
  <rect width="100%" height="100%" fill="#eaf3f8" />
  <rect x="40" y="40" width="1520" height="1020" rx="32" fill="#ffffff" opacity="0.54" />
  <path class="neighbor" d="M 392.2 790.4 L 397.8 794.1 L 519.5 862.4 L 521.8 881.9 L 570 915.5 L 554.5 956.8 L 556.5 975.8 L 577.9 988 L 578.9 996.8 L 569.7 1017 L 571.6 1027.2 L 569.4 1043.3 L 581.1 1064.3 L 595 1097.4 L 607.4 1104.7 L 607.4 1104.7 L 580.7 1124.2 L 544 1137.2 L 523.8 1136.7 L 511.9 1146.7 L 488.5 1147.6 L 479.7 1151.8 L 439.4 1142.4 L 414.2 1145.1 L 404.8 1099.5 L 393.4 1083.8 L 386.6 1074.5 L 353.8 1068.3 L 334.7 1058.2 L 313.4 1052.5 L 300 1046.9 L 286 1038.4 L 286 1038.4 L 267.9 996.1 L 248.4 977.3 L 241.7 957.8 L 245 940.4 L 239 909.5 L 252.9 907.9 L 265.1 895.8 L 278.1 878.3 L 286.4 871.2 L 286.1 860.3 L 278.9 852.7 L 276.9 839.5 L 276.9 839.5 L 286.6 835.3 L 288.5 815.5 L 275.2 796.6 L 287 792.6 L 323.8 793 L 392.2 790.4 Z" />
<path class="neighbor" d="M 570 915.5 L 521.8 881.9 L 519.5 862.4 L 397.8 794.1 L 392.2 790.4 L 391.8 754.8 L 401.4 741.2 L 417.9 719 L 430.1 694.6 L 415.4 656 L 411.5 639.2 L 395.6 615.9 L 416.2 595.9 L 438.9 573.7 L 456.4 579.4 L 456.4 598.2 L 467.8 609.3 L 491.2 609.3 L 533.7 637.8 L 544.3 638.1 L 552.1 637.2 L 559.6 641 L 581.9 643.7 L 591.9 629.7 L 622.5 615.7 L 636.1 627 L 659 627 L 629.6 665.1 L 630.1 787.3 L 649.9 815 L 626.4 828.4 L 618.1 842.4 L 605.6 844.9 L 600.8 868.5 L 590 882 L 583.5 904.4 L 570 915.5 Z" />
<path class="neighbor" d="M 78.9 482.4 L 53.3 467.7 L 41.7 458 L 39.5 447.6 L 45 433.6 L 44.9 419.9 L 25.5 399 L 21.7 384.6 L 22.1 376.5 L 9.8 366.6 L 9.4 347.1 L 2.4 334.1 L -9.4 336.1 L -6 323.8 L 2.6 309.8 L -1.2 295.9 L 9.9 285.6 L 2.9 277.7 L 11.8 257 L 27.1 232.3 L 56 234.7 L 54.4 101.4 L 54.8 87.4 L 93.4 87.3 L 93.4 20.3 L 228.3 20.3 L 358.5 20.3 L 491.6 20.3 L 502.4 53.2 L 495 59.3 L 499.9 93.8 L 512.2 133.9 L 525 142.1 L 543.4 154.5 L 526.4 173.7 L 501.7 179.2 L 491.1 189.5 L 487.8 211.8 L 473.3 261.1 L 476.9 274.5 L 471.6 303.4 L 457.9 336.4 L 437.7 353 L 423.3 378.7 L 419.9 392.4 L 404 401.8 L 394.1 436.9 L 394.5 467.1 L 394.2 440.9 L 389.5 440.3 L 390.1 423.5 L 386.1 412 L 368.8 398.8 L 364.7 374.6 L 368.8 349.8 L 353.2 347.5 L 350.9 355 L 330.7 356.7 L 338.8 366.5 L 341.7 386.7 L 323.3 405.1 L 306.6 429.3 L 289.3 432.8 L 261 413.2 L 248.4 420.1 L 244.9 429.9 L 227.6 436.2 L 226.5 443.1 L 193.1 443.1 L 188.5 436.2 L 164.3 435.1 L 152.2 440.8 L 142.9 438 L 125.7 418.4 L 119.9 409.1 L 95.7 413.8 L 86.5 429.3 L 77.8 459.3 L 66.3 465.6 L 56 469.3 L 78.9 482.4 Z" />
<path class="neighbor" d="M 1107.1 -3.5 L 1108 -17 L 1117.7 -30.9 L 1117.8 -44.6 L 1133 -51.2 L 1127.1 -55.9 L 1129.8 -77.8 L 1147 -77.9 L 1162 -55 L 1180.7 -42.8 L 1205.4 -38.4 L 1225.2 -32.3 L 1240.4 -13 L 1249.4 -1.9 L 1261.4 2.3 L 1261.4 9.8 L 1249.2 29.8 L 1243.8 39.3 L 1229.7 50 L 1217.1 73 L 1201.9 71.2 L 1194.9 79.2 L 1189.5 96.2 L 1193.7 118.7 L 1190.5 122.8 L 1175.1 122.7 L 1154.1 135.2 L 1150.8 151.6 L 1143.2 158.6 L 1122.3 158.4 L 1109.1 166.8 L 1109.3 180.4 L 1093.1 189.7 L 1074.6 186.5 L 1052.1 197.9 L 1036.6 199.8 L 1025.7 176.3 L 999.4 120.9 L 1100.1 87.4 L 1122.5 20.3 L 1107.1 -3.5 Z M 1142.4 -104.4 L 1136 -115.8 L 1145.8 -127.3 L 1149.9 -124.3 L 1146.8 -110.5 L 1142.4 -104.4 Z" />
<path class="neighbor" d="M 476.9 274.5 L 473.3 261.1 L 487.8 211.8 L 491.1 189.5 L 501.7 179.2 L 526.4 173.7 L 543.4 154.5 L 562.9 193.4 L 572.1 224.2 L 590.5 240.5 L 636.3 272.2 L 654.9 291.4 L 673.1 310.7 L 683.6 322.3 L 700.1 332.3 L 690 340.5 L 675.6 337.6 L 664.2 326.8 L 650.4 307.1 L 635.5 296.3 L 626.8 284.7 L 597.6 271.3 L 574.6 270.9 L 566.5 263.9 L 546.8 271.8 L 526.5 256.5 L 516 281.6 L 476.9 274.5 Z" />
<path class="neighbor" d="M 999.4 120.9 L 1025.7 176.3 L 1036.6 199.8 L 1012.3 208.8 L 1005.8 223.7 L 1005.1 235.1 L 971.6 249.3 L 918 264.9 L 888 288.6 L 873.2 290.5 L 863.1 288.5 L 843.5 302.4 L 822.1 308.9 L 794 310.6 L 785.5 312.5 L 778.2 321.4 L 769.4 323.8 L 764.2 332.4 L 747.6 331.6 L 736.8 336.2 L 713.6 334.5 L 704.9 314.9 L 705.8 296.5 L 700.4 286.6 L 693.8 261.8 L 684.1 248 L 690.9 246.4 L 687.4 231 L 691.5 224.6 L 690 209.9 L 704.7 199.2 L 701.3 185.1 L 710.2 168.6 L 724 177.3 L 733.1 174.3 L 771.8 173.5 L 777.9 176.9 L 810.4 180.2 L 823.2 178.5 L 831.6 189.7 L 847.3 184.1 L 871.3 148.9 L 902.7 133.8 L 999.4 120.9 Z" />
<path class="neighbor" d="M 427.5 -226.6 L 464.8 -221.3 L 479.3 -231.6 L 487.3 -243.7 L 513 -248.3 L 518.5 -259.6 L 529.6 -265.3 L 496.1 -298.8 L 563.3 -315.7 L 569.7 -320.7 L 610.2 -311.6 L 660.2 -288.1 L 754.8 -220.7 L 817.2 -218 L 847.1 -214.7 L 855.4 -198.7 L 879.1 -199.6 L 892.3 -170.7 L 908.8 -163 L 914.5 -151.2 L 937.4 -137.1 L 939.4 -123.3 L 936.1 -112.1 L 940.4 -100.8 L 950 -91.4 L 954.5 -80.4 L 959.5 -72.2 L 969.6 -65.5 L 978.9 -67.9 L 985.3 -55.1 L 986.6 -47.3 L 999.4 -13.3 L 1100.3 3.6 L 1107.1 -3.5 L 1122.5 20.3 L 1100.1 87.4 L 999.4 120.9 L 902.7 133.8 L 871.3 148.9 L 847.3 184.1 L 831.6 189.7 L 823.2 178.5 L 810.4 180.2 L 777.9 176.9 L 771.8 173.5 L 733.1 174.3 L 724 177.3 L 710.2 168.6 L 701.3 185.1 L 704.7 199.2 L 690 209.9 L 685.6 195.6 L 675.5 185.5 L 672.9 172.1 L 655.6 160.1 L 637.7 131.9 L 628.2 104.6 L 605 81.5 L 590.1 76 L 567.8 44 L 564 20.7 L 565.4 0.8 L 546.1 -36.4 L 530.4 -49.5 L 512.3 -56.4 L 501.3 -75.7 L 503.1 -83.3 L 493.8 -100.7 L 484 -108.1 L 470.9 -133.1 L 450.4 -160.2 L 433.3 -183.2 L 416.6 -183.1 L 421.8 -201.5 L 423.3 -213.2 L 427.5 -226.6 Z" />
<path class="neighbor" d="M 858.1 490 L 763.3 590.7 L 719.6 592.2 L 689.7 615.8 L 668.2 616.4 L 659 627 L 636.1 627 L 622.5 615.7 L 591.9 629.7 L 581.9 643.7 L 559.6 641 L 552.1 637.2 L 544.3 638.1 L 533.7 637.8 L 491.2 609.3 L 467.8 609.3 L 456.4 598.2 L 456.4 579.4 L 438.9 573.7 L 419.1 537.2 L 403.8 529.5 L 397.9 516 L 380.9 499.7 L 360.3 497.3 L 371.7 478.2 L 389.5 477.3 L 394.5 467.1 L 394.1 436.9 L 404 401.8 L 419.9 392.4 L 423.3 378.7 L 437.7 353 L 457.9 336.4 L 471.6 303.4 L 476.9 274.5 L 516 281.6 L 526.5 256.5 L 546.8 271.8 L 566.5 263.9 L 574.6 270.9 L 597.6 271.3 L 626.8 284.7 L 635.5 296.3 L 650.4 307.1 L 664.2 326.8 L 675.6 337.6 L 663.8 352.5 L 652.5 368.2 L 655.1 377.5 L 655.6 387.7 L 674.4 388.2 L 682.5 385.9 L 689.9 391.8 L 682.6 403.7 L 695 422.2 L 707.4 438.4 L 720.2 450.3 L 829.9 490.2 L 858.1 490 Z" />
<path class="neighbor" d="M 675.6 337.6 L 690 340.5 L 700.1 332.3 L 708.1 342.7 L 707 356.7 L 687.9 364.7 L 702.3 373.9 L 689.9 391.8 L 682.5 385.9 L 674.4 388.2 L 655.6 387.7 L 655.1 377.5 L 652.5 368.2 L 663.8 352.5 L 675.6 337.6 Z" />
<path class="neighbor" d="M 897 375.6 L 897 375.6 L 896.8 376.2 L 896.7 390 L 896.7 423.8 L 896.7 441.3 L 881.5 461.9 L 858.1 490 L 829.9 490.2 L 720.2 450.3 L 707.4 438.4 L 695 422.2 L 682.6 403.7 L 689.9 391.8 L 702.3 373.9 L 713.2 380.1 L 719.8 393.9 L 734.9 408 L 751.6 408.1 L 783.2 399.5 L 819.7 395.5 L 849.3 385.1 L 865.9 382.9 L 877.9 376.8 L 897 375.6 L 897 375.6 Z" />

<path class="country" d="M 649.9 815 L 630.1 787.3 L 629.6 665.1 L 659 627 L 668.2 616.4 L 689.7 615.8 L 719.6 592.2 L 763.3 590.7 L 858.1 490 L 881.5 461.9 L 896.7 441.3 L 896.7 423.8 L 896.7 390 L 896.8 376.2 L 897 375.6 L 897 375.6 L 907.7 374.9 L 923.2 370 L 941 366.6 L 956.9 355.1 L 969.6 355 L 970.4 364.3 L 967.3 383.8 L 967.4 401.4 L 960.3 413.6 L 950.8 449.8 L 934.7 487.3 L 913.9 530.2 L 885.1 579.3 L 856.5 616.9 L 817 662.7 L 783.4 689.9 L 733.2 723.2 L 702 748.7 L 665.2 789.4 L 657.5 807.1 L 649.9 815 Z" />


<g class="city"><circle cx="553.0382531520166" cy="455.31570431335535" r="5" /><text x="565.0382531520166" y="459.31570431335535">Addis Ababa</text></g>
<g class="city"><circle cx="489.83814868663217" cy="801.5150260178627" r="5" /><text x="501.83814868663217" y="805.5150260178627">Nairobi</text></g>
<g class="city"><circle cx="572.1101176038031" cy="986.6395316857664" r="5" /><text x="584.1101176038031" y="990.6395316857664">Dar es Salaam</text></g>
<g class="city"><circle cx="737.824601743959" cy="243.1857134832568" r="5" /><text x="749.824601743959" y="247.1857134832568">Sanaa</text></g>
<g class="city"><circle cx="776.7539074212002" cy="689.0970769389016" r="5" /><text x="788.7539074212002" y="693.0970769389016">Mogadishu</text></g>
<g class="city"><circle cx="764.8329392780361" cy="329.66144096575044" r="5" /><text x="776.8329392780361" y="333.66144096575044">Aden</text></g>
<g class="city"><circle cx="702.3663977461154" cy="369.41709555591706" r="5" /><text x="714.3663977461154" y="373.41709555591706">Djibouti</text></g>
<g class="city"><circle cx="586.2570767638198" cy="894.021775050719" r="5" /><text x="598.2570767638198" y="898.021775050719">Mombasa</text></g>
<text class="map-title" x="80" y="105">Somalia Political Study Map</text>
<text class="map-subtitle" x="80" y="145">Capital: Mogadishu | Continent: Africa</text>
  <text class="footer" x="80" y="1036">Made with Natural Earth. Free vector and raster map data @ naturalearthdata.com.</text>
</svg>
