<?xml version="1.0" encoding="UTF-8"?>
<svg xmlns="http://www.w3.org/2000/svg" width="1600" height="1100" viewBox="0 0 1600 1100" role="img" aria-labelledby="title desc">
  <title id="title">Suriname Physical Study Map</title>
  <desc id="desc">Made with Natural Earth. Free vector and raster map data @ naturalearthdata.com.</desc>
  <defs>
    <linearGradient id="terrain" x1="0" x2="1" y1="0" y2="1">
      <stop offset="0%" stop-color="#6c8c53" />
      <stop offset="42%" stop-color="#d5c487" />
      <stop offset="72%" stop-color="#b88b5f" />
      <stop offset="100%" stop-color="#f1f5ee" />
    </linearGradient>
    <filter id="softShadow" x="-10%" y="-10%" width="120%" height="120%">
      <feDropShadow dx="0" dy="10" stdDeviation="12" flood-color="#0f172a" flood-opacity="0.16" />
    </filter>
    <style>
      .neighbor { fill: #ffffff; stroke: #94a3b8; stroke-width: 1.2; opacity: 0.72; }
      .country { fill: url(#terrain); stroke: #1f2937; stroke-width: 4; filter: url(#softShadow); }
      .admin1 { fill: none; stroke: #64748b; stroke-width: 1.1; stroke-dasharray: 6 7; opacity: 0.75; }
      .river { fill: none; stroke: #1d9bd1; stroke-width: 3; stroke-linecap: round; opacity: 0.88; }
      .lake { fill: #8ed1ea; stroke: #0ea5e9; stroke-width: 1.5; opacity: 0.8; }
      .city circle { fill: #ef4444; stroke: #ffffff; stroke-width: 2; }
      .city text, .terrain-label { fill: #172033; font: 700 24px system-ui, sans-serif; paint-order: stroke; stroke: #ffffff; stroke-width: 5; stroke-linejoin: round; }
      .map-title { fill: #0f172a; font: 800 46px system-ui, sans-serif; }
      .map-subtitle { fill: #475569; font: 600 24px system-ui, sans-serif; }
      .footer { fill: #64748b; font: 500 18px system-ui, sans-serif; }
    </style>
  </defs>
  <rect width="100%" height="100%" fill="#d8edf0" />
  <rect x="40" y="40" width="1520" height="1020" rx="32" fill="#ffffff" opacity="0.54" />
  <path class="neighbor" d="M 1087.3 4705.5 L 1057 4643.5 L 1105.2 4591.7 L 1042 4517.3 L 956.2 4456.9 L 843.7 4386.8 L 803.1 4390 L 693.4 4305.5 L 622.5 4317.1 L 768.3 4168.1 L 891.7 4061.9 L 965.2 4017.4 L 1057.2 3957.1 L 1059.4 3869.8 L 1004.6 3806.7 L 950.4 3827.7 L 971.9 3764.6 L 986.7 3699.9 L 986.8 3639.8 L 947.4 3620 L 906.4 3637.7 L 865.7 3632.8 L 852.9 3590.7 L 842.7 3490.6 L 822.2 3457.9 L 748.4 3428.3 L 703.8 3449.7 L 588.4 3428.7 L 595.6 3280.3 L 563.3 3219.5 L 597.5 3196.9 L 587 3134.6 L 616.9 3086.7 L 636.3 3000.6 L 610.5 2932.6 L 550.8 2902 L 539.1 2858.8 L 555.1 2795.7 L 345.5 2791.2 L 303.5 2663.9 L 335.4 2662 L 334 2614.9 L 312.6 2583 L 307.8 2519.8 L 244.3 2487.4 L 175.6 2488.4 L 130.3 2456.7 L 56.4 2435 L 13.4 2394.2 L -109 2376.1 L -227.8 2278.2 L -219 2204.9 L -232.4 2162.9 L -220.8 2080.9 L -363.8 2099.5 L -421.4 2140.5 L -517 2184.8 L -541.4 2217.9 L -597.7 2220.3 L -679 2211 L -740.7 2229.8 L -790.4 2217.3 L -783.1 2051.2 L -872.8 2115.7 L -969.3 2112.8 L -1010.6 2054.5 L -1083.2 2048.2 L -1060.1 2001.2 L -1120.8 1934.7 L -1166.3 1836.3 L -1137.5 1816.3 L -1137.6 1770.1 L -1071.5 1738.5 L -1082.4 1679.4 L -1054.5 1641.4 L -1046.6 1590.4 L -921.6 1516 L -832 1494.9 L -817.3 1478.5 L -718.8 1483.6 L -669.6 1183.9 L -667 1136.4 L -684.2 1073.8 L -732.7 1034 L -732.1 954.5 L -670.5 936.5 L -648.7 947.8 L -645 906 L -709 894.7 L -710.4 826.2 L -497.4 828.7 L -461.2 791 L -430.9 825.7 L -409.5 890.2 L -388.9 876.7 L -328.7 934.5 L -243.7 927.4 L -222.6 894 L -141.3 868.5 L -96.2 850.5 L -83.5 804.2 L -5.4 773.1 L -11.4 750.1 L -104 740.7 L -119.1 671.9 L -114.7 598.6 L -163.7 570.2 L -143.2 560.2 L -62.2 574.2 L 24.7 601.5 L 56.2 575.7 L 134.9 558.7 L 257.1 517.8 L 297.1 476 L 282.7 445.2 L 339.5 440.4 L 364.9 465.6 L 350.7 513.6 L 388.3 530.1 L 413.4 580.9 L 383 619.4 L 365.6 712.5 L 393.6 767.8 L 401.5 818.4 L 468.8 869.7 L 522.5 875.1 L 534.5 853.7 L 569.1 848.9 L 618.6 829.8 L 654.1 800.7 L 714.6 810 L 741.2 806.1 L 800.6 815 L 810.5 792.7 L 792.1 770.9 L 803.1 739.3 L 847.2 749 L 898.8 737.8 L 961.4 761 L 1009.2 783.5 L 1043 753.9 L 1067.5 758.5 L 1082.4 789.2 L 1134.7 781.4 L 1176.6 739.9 L 1210.2 659.4 L 1274.9 559.3 L 1312.1 554.2 L 1339.1 614.6 L 1400.5 805.8 L 1458.9 823.9 L 1461.9 899.3 L 1379.7 989.3 L 1413.7 1022.3 L 1606.9 1039.5 L 1610.9 1149 L 1693.9 1077.3 L 1831.5 1116.6 L 2013 1183.4 L 2066.4 1247.4 L 2048.5 1307.9 L 2175.6 1274.3 L 2388.4 1332.1 L 2551.7 1327.8 L 2713.3 1418.3 L 2852.9 1540.8 L 2937.1 1572.3 L 3030.6 1576.7 L 3070.2 1611.2 L 3107.3 1750.4 L 3125.5 1816.5 L 3082 1997.3 L 3026.3 2068.6 L 2872.2 2220.7 L 2802.6 2344.3 L 2721.7 2439.1 L 2694.3 2441.2 L 2663.8 2521.7 L 2671.5 2726.5 L 2641.1 2895 L 2629.5 2967.1 L 2594.9 3010.2 L 2575.5 3156.4 L 2464.7 3299.1 L 2446.1 3412 L 2357.6 3459.4 L 2332 3524.9 L 2213.2 3524.7 L 2041.2 3566.7 L 1964.2 3615.3 L 1841.8 3647.3 L 1713.1 3734.3 L 1620.6 3842.7 L 1604.7 3924.4 L 1622.9 3984.7 L 1602.4 4095.2 L 1577.6 4148.5 L 1501.2 4208.7 L 1379.9 4401.1 L 1283.8 4487.8 L 1209.5 4539 L 1159.6 4642.9 L 1087.3 4705.5 Z" />
<path class="neighbor" d="M 282.7 445.2 L 297.1 476 L 257.1 517.8 L 134.9 558.7 L 56.2 575.7 L 24.7 601.5 L -62.2 574.2 L -143.2 560.2 L -163.7 570.2 L -114.7 598.6 L -119.1 671.9 L -104 740.7 L -11.4 750.1 L -5.4 773.1 L -83.5 804.2 L -96.2 850.5 L -141.3 868.5 L -222.6 894 L -243.7 927.4 L -328.7 934.5 L -388.9 876.7 L -422.2 767.7 L -451.3 729.4 L -491 705.3 L -435.6 650.9 L -439.3 626.4 L -470.4 594 L -492.4 521.3 L -483.8 442.9 L -459.4 406.2 L -439.8 347.3 L -478.4 328.5 L -540.7 341 L -619.5 335.2 L -663.7 346.8 L -740.6 252.8 L -804.1 238.8 L -944.7 249.4 L -970.7 211.2 L -997.6 202.1 L -1001.5 179.3 L -988.5 138.8 L -997.1 94.8 L -1021.3 70.8 L -1035.3 20.5 L -1091.7 13.2 L -1061.4 -50.8 L -1048 -128.8 L -1016.3 -169.4 L -973.9 -200.7 L -946.2 -255.4 L -876 -273.7 L -879.1 -247.9 L -943.3 -235.1 L -907.6 -185.5 L -908.9 -128.3 L -957.2 -64.8 L -915.8 21.9 L -868.7 14.8 L -844.1 -64.2 L -878 -102.7 L -883.5 -185.5 L -747.4 -229.9 L -762.5 -281.4 L -724.2 -315.9 L -685 -239.1 L -608.3 -237.3 L -537.3 -176.4 L -533 -140.2 L -434.8 -139.2 L -318 -150.4 L -255.4 -101.5 L -171.8 -88 L -110.5 -122.1 L -109.2 -149.7 L 26.2 -156.3 L 157.2 -157.8 L 64.4 -125.5 L 101.7 -73.9 L 189.2 -65.7 L 272 -11.9 L 289.5 75.7 L 346.4 73.2 L 389.3 99 L 302.7 163.2 L 293.1 203.1 L 330.5 243.6 L 303.4 264.1 L 236.1 281.7 L 238.3 332.2 L 208.7 362.2 L 282.7 445.2 Z" />
<path class="neighbor" d="M 741.2 806.1 L 714.6 810 L 654.1 800.7 L 618.6 829.8 L 569.1 848.9 L 534.5 853.7 L 522.5 875.1 L 468.8 869.7 L 401.5 818.4 L 393.6 767.8 L 365.6 712.5 L 383 619.4 L 413.4 580.9 L 388.3 530.1 L 350.7 513.6 L 364.9 465.6 L 339.5 440.4 L 282.7 445.2 L 208.7 362.2 L 238.3 332.2 L 236.1 281.7 L 303.4 264.1 L 330.5 243.6 L 293.1 203.1 L 302.7 163.2 L 389.3 99 L 461.1 139.2 L 528.7 210.4 L 531.8 266.7 L 573 269.3 L 631.5 322.6 L 674.7 360.7 L 657.2 459 L 590.9 487.6 L 596.8 513.4 L 576.6 569.8 L 625.1 649.2 L 660.1 649.3 L 674.4 711 L 741.2 806.1 Z" />
<path class="neighbor" d="M 1274.9 559.3 L 1210.2 659.4 L 1176.6 739.9 L 1134.7 781.4 L 1082.4 789.2 L 1067.5 758.5 L 1043 753.9 L 1009.2 783.5 L 961.4 761 L 989.3 715 L 998.9 665 L 1018 618 L 975.1 553.2 L 966.5 478.4 L 1023.4 384.4 L 1060.5 396.4 L 1141 422.3 L 1256.8 514.6 L 1274.9 559.3 Z M 7598.7 -4393.9 L 7650.3 -4365.3 L 7807.8 -4345.2 L 7752.6 -4270.3 L 7738.7 -4192.4 L 7708.7 -4173.7 L 7658.8 -4183.8 L 7662.4 -4156 L 7582.4 -4094.6 L 7580.8 -4045.1 L 7633 -4062.2 L 7670.5 -4014.3 L 7666 -3983.4 L 7698.2 -3942.3 L 7660.3 -3909 L 7688.5 -3824.5 L 7747.7 -3810.6 L 7735.2 -3763.1 L 7636.2 -3701.4 L 7420.6 -3731 L 7261.3 -3695.5 L 7248.8 -3629.7 L 7122.1 -3615.5 L 6999.1 -3664.9 L 6959.3 -3641.3 L 6758.1 -3691 L 6714.5 -3733.5 L 6771 -3799.1 L 6791.9 -4016.9 L 6679 -4131.6 L 6598.4 -4186.9 L 6431.3 -4229 L 6420.3 -4308.7 L 6562.1 -4332.5 L 6745.6 -4304.4 L 6711 -4428.1 L 6814.2 -4381.2 L 7068.7 -4466.5 L 7101.6 -4556 L 7197.2 -4578.1 L 7213 -4539.7 L 7263.8 -4537.9 L 7314.6 -4494 L 7390.9 -4442.4 L 7447 -4451 L 7542.7 -4401.1 L 7567.1 -4391.6 L 7598.7 -4393.9 Z M 7878.5 -3646.6 L 7948.9 -3688.4 L 7967.5 -3594.6 L 7931.4 -3510.2 L 7881.8 -3532.4 L 7856.5 -3606 L 7878.5 -3646.6 Z" />
<path class="lake" d="M 921.1 490.9 L 917.7 494.8 L 915.9 497.1 L 916.3 500 L 917.8 502.9 L 921.3 503.7 L 924.3 504.8 L 924.3 508 L 923.3 510.7 L 920.4 511.5 L 916.9 512.9 L 914.8 511.2 L 911.3 509.8 L 908.1 510.9 L 904.3 514.1 L 902.5 518.1 L 899.9 522.9 L 896.1 525.9 L 893.2 525 L 888.7 523.5 L 885.4 522.6 L 884.3 520.2 L 881.1 519 L 876.8 519.1 L 872.9 518.7 L 873.5 513.7 L 876.4 509.9 L 878.9 508.5 L 879.6 503.9 L 878.4 500 L 883.8 491.2 L 890.6 480.3 L 893 471 L 895.6 467.2 L 899.3 467.2 L 907.3 470.3 L 913 476.1 L 916.3 477.6 L 922 477.2 L 926.9 476.7 L 930.6 477.2 L 931.7 480.1 L 929.8 485.1 L 927.1 490.2 L 924.6 490.4 L 921.1 490.9 L 921.1 490.9 L 921.1 490.9 L 921.1 490.9 Z" />
<path class="country" d="M 961.4 761 L 898.8 737.8 L 847.2 749 L 803.1 739.3 L 792.1 770.9 L 810.5 792.7 L 800.6 815 L 741.2 806.1 L 674.4 711 L 660.1 649.3 L 625.1 649.2 L 576.6 569.8 L 596.8 513.4 L 590.9 487.6 L 657.2 459 L 674.7 360.7 L 805.7 382.6 L 817.4 362.9 L 905.8 355 L 1023.4 384.4 L 966.5 478.4 L 975.1 553.2 L 1018 618 L 998.9 665 L 989.3 715 L 961.4 761 Z" />

<path class="river" d="M -513.3 5274.6 L -485.1 5283 L -467.8 5285.5 L -452 5284.9 L -436.8 5286.7 L -422.1 5290.8 L -401 5291.5 L -373.5 5288.8 L -351.1 5288.3 L -333.9 5290.1 L -317.6 5294.2 L -302.3 5300.6 L -285.5 5304.5 L -267.4 5306 L -252.5 5313.6 L -240.8 5327.3 L -231.2 5342.2 L -223.8 5358.3 L -209.3 5368.1 L -187.8 5371.7 L -172.7 5376.9 L -164.1 5384 L -154 5389.5 L -142.4 5393.5 L -129.4 5395.3 L -115 5394.8 L -93.2 5404.9 L -64 5425.5 L -45.8 5436.5 L -38.4 5438 L -27.9 5445.1 L -7.5 5464.3 L 15.8 5467.9 L 31.8 5477 L 50.2 5490.3 L 57 5501.2 M -767.2 788.7 L -726.8 783 L -695.8 777.7 L -678.6 772.7 L -665 766.4 L -648.7 765.5 L -629.8 770 L -613.7 772 L -600.4 771.6 L -588.4 766.2 L -577.6 755.7 L -566.1 753.7 L -553.8 760 L -542.1 754.4 L -530.9 736.7 L -524.1 728.9 L -521.9 730.8 L -519.2 728.6 L -515.9 722.4 L -506.9 715.2 L -496.3 708.3 L -486.2 704 L -475.4 707.6 L -470.1 708.3 L -467.7 711 L -464.5 719.6 L -460.9 721.1 L -455.6 724.7 L -445.2 733.9 L -436.6 743.5 L -430.1 748.1 L -425.5 752.4 L -424 758.7 L -426 765 L -420.5 779.5 L -416.8 784 L -414.9 789.5 L -416.8 795.1 L -412.2 801.6 L -401.1 830 L -400.4 838.7 L -397.9 842.7 L -394.9 854.3 L -389.8 865.2 L -391 872.7 L -388.9 880 L -387.2 902 L -389 911.2 L -393.8 914.9 L -403.3 916.7 L -417.4 916.5 L -427.7 929.7 L -437.4 969.6 L -432.7 996.7 L -424.4 1012.8 L -410.8 1027.1 L -400.7 1033.3 L -393.9 1031.7 L -377.5 1037.3 L -351.6 1050.4 L -333.8 1055 L -324.2 1051.2 L -311.9 1049.2 L -296.8 1048.9 L -286.7 1046.9 L -281.8 1043 L -275.6 1042.6 L -268.1 1045.6 L -258.2 1046.6 L -245.7 1045.7 L -232.7 1048.3 L -212.3 1057.5 L -184.4 1063.7 L -161.7 1062.8 L -121.5 1053.8 L -91.1 1048.1 L -71.4 1047 L -52.2 1048.7 L -34.3 1055.5 L -17.7 1067.5 L 1 1077.7 L 32.1 1090.5 L 48.2 1109.3 L 64.4 1121.4 L 97 1139 L 151.5 1164.3 L 157.2 1165.6 L 166.2 1165.5 L 175.1 1166.9 L 185.8 1172.2 L 194.7 1180.9 L 202 1193.2 L 205.8 1203.6 L 206 1212 L 214.7 1224.3 L 232 1240.5 L 238 1248.7 L 243.5 1256.2 L 249.1 1271.7 L 264.1 1292.9 L 300.4 1333.2 L 313.6 1344.8 L 323.4 1348.8 L 334.4 1349.3 L 345.6 1352.1 L 357.1 1357.5 L 365.5 1359 L 374.1 1355.6" />
<g class="city"><circle cx="563.2384999229964" cy="270.0888529963704" r="5" /><text x="575.2384999229964" y="274.0888529963704">Georgetown</text></g>
<g class="city"><circle cx="891.2143551800249" cy="375.8003519325872" r="5" /><text x="903.2143551800249" y="379.8003519325872">Paramaribo</text></g>
<g class="city"><circle cx="1201.3714889923617" cy="474.41597918445194" r="5" /><text x="1213.3714889923617" y="478.41597918445194">Cayenne</text></g>
<g class="city"><circle cx="993.296033580947" cy="592.8134833340623" r="5" /><text x="1005.296033580947" y="596.8134833340623">Cottica</text></g>
<g class="city"><circle cx="1015.2435364947049" cy="412.68738366355933" r="5" /><text x="1027.243536494705" y="416.68738366355933">Saint-Laurent-du-Maroni</text></g>
<text class="map-title" x="80" y="105">Suriname Physical Study Map</text>
<text class="map-subtitle" x="80" y="145">Landmark: Saint Peter and Paul Cathedral | Study terrain and water systems</text>
  <text class="footer" x="80" y="1036">Made with Natural Earth. Free vector and raster map data @ naturalearthdata.com.</text>
</svg>
