<?xml version="1.0" encoding="UTF-8"?>
<svg xmlns="http://www.w3.org/2000/svg" width="1600" height="1100" viewBox="0 0 1600 1100" role="img" aria-labelledby="title desc">
  <title id="title">South Sudan Physical Study Map</title>
  <desc id="desc">Made with Natural Earth. Free vector and raster map data @ naturalearthdata.com.</desc>
  <defs>
    <linearGradient id="terrain" x1="0" x2="1" y1="0" y2="1">
      <stop offset="0%" stop-color="#6c8c53" />
      <stop offset="42%" stop-color="#d5c487" />
      <stop offset="72%" stop-color="#b88b5f" />
      <stop offset="100%" stop-color="#f1f5ee" />
    </linearGradient>
    <filter id="softShadow" x="-10%" y="-10%" width="120%" height="120%">
      <feDropShadow dx="0" dy="10" stdDeviation="12" flood-color="#0f172a" flood-opacity="0.16" />
    </filter>
    <style>
      .neighbor { fill: #ffffff; stroke: #94a3b8; stroke-width: 1.2; opacity: 0.72; }
      .country { fill: url(#terrain); stroke: #1f2937; stroke-width: 4; filter: url(#softShadow); }
      .admin1 { fill: none; stroke: #64748b; stroke-width: 1.1; stroke-dasharray: 6 7; opacity: 0.75; }
      .river { fill: none; stroke: #1d9bd1; stroke-width: 3; stroke-linecap: round; opacity: 0.88; }
      .lake { fill: #8ed1ea; stroke: #0ea5e9; stroke-width: 1.5; opacity: 0.8; }
      .city circle { fill: #ef4444; stroke: #ffffff; stroke-width: 2; }
      .city text, .terrain-label { fill: #172033; font: 700 24px system-ui, sans-serif; paint-order: stroke; stroke: #ffffff; stroke-width: 5; stroke-linejoin: round; }
      .map-title { fill: #0f172a; font: 800 46px system-ui, sans-serif; }
      .map-subtitle { fill: #475569; font: 600 24px system-ui, sans-serif; }
      .footer { fill: #64748b; font: 500 18px system-ui, sans-serif; }
    </style>
  </defs>
  <rect width="100%" height="100%" fill="#d8edf0" />
  <rect x="40" y="40" width="1520" height="1020" rx="32" fill="#ffffff" opacity="0.54" />
  <path class="neighbor" d="M 786.7 1236.6 L 796.2 1285 L 790.9 1312.4 L 801.4 1342.9 L 832 1372.4 L 860.4 1438.7 L 860.4 1438.7 L 839.7 1433.4 L 769 1442.3 L 754.9 1448.5 L 739.9 1482.1 L 751.6 1505.4 L 742.3 1567.7 L 735.8 1620.5 L 750 1629.9 L 786.8 1650.4 L 801.2 1640.8 L 805.6 1697.6 L 765.4 1697.1 L 743.7 1668.2 L 724.3 1645.7 L 684 1638.4 L 672.2 1610.8 L 640 1627.4 L 597.9 1620.1 L 580.3 1596.2 L 546.8 1591.3 L 522.2 1592.6 L 519.2 1576.2 L 501 1574.9 L 477 1571.8 L 444.4 1579.7 L 421.5 1578.4 L 408.5 1583.2 L 411.3 1520.6 L 393.8 1501 L 389.9 1468.7 L 397.7 1436.9 L 387 1416.6 L 386 1383.5 L 322.2 1384 L 326.7 1365 L 299.9 1365.2 L 297.1 1374.3 L 264.4 1376.4 L 251.2 1407 L 243.3 1420.2 L 214.2 1412.8 L 196.9 1420.2 L 162 1424.4 L 141.9 1396.9 L 129.8 1379.9 L 114.7 1348.3 L 101.7 1309.1 L -53.6 1308.4 L -72.1 1314.7 L -87.3 1313.7 L -109.1 1320.8 L -116.4 1304.5 L -103.1 1298.9 L -101.4 1276 L -92.8 1262.5 L -73.6 1251.4 L -59.8 1256.7 L -41.8 1236.6 L -13.1 1237.1 L -9.8 1252 L 9.9 1261.3 L 40.9 1228.4 L 71.5 1202.6 L 84.8 1185.8 L 83.1 1142.5 L 105.9 1091.4 L 130.1 1064.2 L 164.7 1038.9 L 170.8 1022.1 L 172.1 1002.8 L 180.7 984.5 L 177.9 954.7 L 184.5 908 L 194.8 875.2 L 210.5 847 L 213.6 815.3 L 218.4 778.5 L 238.9 751.8 L 267 734.9 L 310.4 752.8 L 343.9 772.2 L 382.4 777.4 L 421.7 787.6 L 437.4 755.8 L 444.6 751.8 L 468.6 757.1 L 527.2 730.8 L 548 741.9 L 565 740.4 L 572.9 727.6 L 592.5 723 L 632.1 728.6 L 665.9 729.8 L 683.2 724.2 L 715.1 767.7 L 738.8 774 L 752.8 765.2 L 777.2 768.7 L 806.5 757.5 L 819 780 L 865.3 815 L 865.3 815 L 862.2 876.5 L 883.3 883.7 L 866.3 902.4 L 846.1 916.3 L 826 943.8 L 814.9 968.3 L 811.9 1010.5 L 799.8 1030.6 L 799.3 1070.3 L 784.2 1085 L 782.2 1116.3 L 775 1120.4 L 770.1 1149.2 L 783.4 1173.1 L 786.7 1236.6 Z" />
<path class="neighbor" d="M 1431.3 1088.3 L 1400.1 1044.9 L 1399.5 853.1 L 1445.5 793.4 L 1459.9 776.8 L 1493.6 775.9 L 1540.5 738.8 L 1609.1 736.4 L 1757.9 578.5 L 1794.6 534.5 L 1818.3 502.2 L 1818.3 474.7 L 1818.3 421.6 L 1818.5 399.9 L 1818.9 399.1 L 1818.9 399.1 L 1835.7 398 L 1859.9 390.2 L 1887.8 384.9 L 1912.8 366.9 L 1932.7 366.8 L 1933.9 381.3 L 1929 411.9 L 1929.2 439.6 L 1918.1 458.6 L 1903.3 515.5 L 1878 574.3 L 1845.4 641.5 L 1800.2 718.7 L 1755.3 777.6 L 1693.4 849.4 L 1640.7 892 L 1562 944.3 L 1512.9 984.3 L 1455.3 1048.1 L 1443.2 1075.9 L 1431.3 1088.3 Z" />
<path class="neighbor" d="M 1305.8 1245.9 L 1230.3 1193.3 L 1226.7 1162.7 L 1035.8 1055.5 L 1026.9 1049.7 L 1026.4 993.9 L 1041.5 972.6 L 1067.4 937.8 L 1086.5 899.4 L 1063.4 839 L 1057.2 812.6 L 1032.3 776 L 1064.7 744.6 L 1100.3 709.9 L 1127.7 718.7 L 1127.7 748.3 L 1145.7 765.6 L 1182.3 765.6 L 1248.9 810.3 L 1265.6 810.8 L 1277.9 809.4 L 1289.5 815.4 L 1324.6 819.6 L 1340.2 797.6 L 1388.3 775.6 L 1409.5 793.4 L 1445.5 793.4 L 1399.5 853.1 L 1400.1 1044.9 L 1431.3 1088.3 L 1394.4 1109.3 L 1381.4 1131.3 L 1361.7 1135.2 L 1354.2 1172.3 L 1337.3 1193.5 L 1327 1228.5 L 1305.8 1245.9 Z" />
<path class="neighbor" d="M 535.5 566.5 L 495.4 543.5 L 477.1 528.4 L 473.8 512 L 482.3 490.1 L 482.2 468.6 L 451.8 435.7 L 445.8 413.2 L 446.5 400.4 L 427.1 384.9 L 426.5 354.4 L 415.5 334 L 397 337.1 L 402.3 317.8 L 416 295.8 L 410 274 L 427.3 257.9 L 416.3 245.6 L 430.2 213.1 L 454.3 174.3 L 499.7 178 L 497.1 -31 L 497.7 -53.1 L 558.3 -53.2 L 558.3 -158.3 L 769.9 -158.3 L 974.1 -158.3 L 1182.9 -158.3 L 1199.9 -106.7 L 1188.3 -97.1 L 1196 -42.9 L 1215.3 19.9 L 1235.3 32.9 L 1264.1 52.3 L 1237.5 82.4 L 1198.7 91 L 1182.2 107.1 L 1177 142.1 L 1154.3 219.5 L 1159.9 240.6 L 1151.5 285.8 L 1130.1 337.6 L 1098.4 363.7 L 1075.8 403.9 L 1070.5 425.4 L 1045.6 440.2 L 1030 495.3 L 1030.7 542.6 L 1030.1 501.5 L 1022.8 500.5 L 1023.7 474.3 L 1017.4 456.2 L 990.3 435.4 L 983.9 397.5 L 990.3 358.6 L 965.9 355 L 962.2 366.7 L 930.6 369.5 L 943.3 384.8 L 947.8 416.4 L 918.9 445.4 L 892.7 483.3 L 865.6 488.7 L 821.3 458 L 801.4 468.9 L 796 484.2 L 768.9 494.2 L 767.1 505 L 714.6 505 L 707.4 494.2 L 669.5 492.4 L 650.5 501.4 L 636 496.9 L 608.9 466.2 L 599.9 451.7 L 561.9 458.9 L 547.5 483.3 L 533.9 530.3 L 515.8 540.3 L 499.7 546 L 535.5 566.5 Z" />
<path class="neighbor" d="M 497.1 -31 L 499.7 178 L 454.3 174.3 L 430.2 213.1 L 416.3 245.6 L 427.3 257.9 L 410 274 L 416 295.8 L 402.3 317.8 L 397 337.1 L 415.5 334 L 426.5 354.4 L 427.1 384.9 L 446.5 400.4 L 445.8 413.2 L 412.5 422.2 L 385.8 443.5 L 347.7 500.9 L 298.2 525.3 L 247.4 522 L 232.5 526.9 L 237.7 545.4 L 210.3 563.8 L 187.9 584.4 L 121.7 604.5 L 108.5 592.6 L 99.8 591.5 L 90.1 605.1 L 46.6 609 L 54.8 594.8 L 38.2 558.5 L 30.8 536.7 L 7.9 527.8 L -23.2 497 L -11.7 472.2 L 12.2 477.5 L 27.1 473.7 L 56.5 474.3 L 27.8 426.4 L 29.8 391.4 L 26.3 356.5 L 5.3 322.8 L 10.6 298 L -23.2 296.8 L -23 263 L -45 243.5 L -22.2 174.1 L 44.9 124.5 L 47.7 56 L 68 -50.8 L 79.4 -73.5 L 57.5 -91.5 L 56.7 -108.2 L 37 -121.9 L 24 -203.8 L 77.2 -232.5 L 287.1 -131.8 L 497.1 -31 Z" />
<path class="neighbor" d="M 683.2 724.2 L 665.9 729.8 L 632.1 728.6 L 592.5 723 L 572.9 727.6 L 565 740.4 L 548 741.9 L 527.2 730.8 L 468.6 757.1 L 444.6 751.8 L 437.4 755.8 L 421.7 787.6 L 382.4 777.4 L 343.9 772.2 L 310.4 752.8 L 267 734.9 L 238.9 751.8 L 218.4 778.5 L 213.6 815.3 L 179.8 812.3 L 144.2 803.5 L 112.8 831.4 L 85.2 880.4 L 79.6 865.1 L 77.3 841.1 L 53.2 824.2 L 33.8 797 L 29.3 778.1 L 4.4 750.6 L 8.7 734.9 L 3.4 712.7 L 7.5 671.9 L 20.1 662.4 L 46.6 609 L 90.1 605.1 L 99.8 591.5 L 108.5 592.6 L 121.7 604.5 L 187.9 584.4 L 210.3 563.8 L 237.7 545.4 L 232.5 526.9 L 247.4 522 L 298.2 525.3 L 347.7 500.9 L 385.8 443.5 L 412.5 422.2 L 445.8 413.2 L 451.8 435.7 L 482.2 468.6 L 482.3 490.1 L 473.8 512 L 477.1 528.4 L 495.4 543.5 L 535.5 566.5 L 564.3 587.8 L 564.8 604.9 L 600.2 632.3 L 622.1 655.1 L 635.4 686.7 L 674.8 707.5 L 683.2 724.2 Z" />
<path class="neighbor" d="M 213.6 815.3 L 210.5 847 L 194.8 875.2 L 184.5 908 L 177.9 954.7 L 180.7 984.5 L 172.1 1002.8 L 170.8 1022.1 L 164.7 1038.9 L 130.1 1064.2 L 105.9 1091.4 L 83.1 1142.5 L 84.8 1185.8 L 71.5 1202.6 L 40.9 1228.4 L 9.9 1261.3 L -9.8 1252 L -13.1 1237.1 L -41.8 1236.6 L -59.8 1256.7 L -73.6 1251.4 L -93.4 1233.3 L -109.3 1242.2 L -130.5 1264.9 L -173.7 1209.2 L -133.7 1180.1 L -153.5 1145.3 L -135.5 1132.1 L -100 1125.6 L -95.8 1102.3 L -67.6 1127.6 L -21.2 1129.8 L -5 1104.9 L 1.6 1069.9 L -4.1 1028.8 L -29 997.7 L -6.2 936.7 L -19.4 926.3 L -58.5 930.5 L -73.2 903.3 L -69.4 880.4 L -3 882.4 L 39.6 896.3 L 81.4 908.8 L 85.2 880.4 L 112.8 831.4 L 144.2 803.5 L 179.8 812.3 L 213.6 815.3 Z" />
<path class="neighbor" d="M 1159.9 240.6 L 1154.3 219.5 L 1177 142.1 L 1182.2 107.1 L 1198.7 91 L 1237.5 82.4 L 1264.1 52.3 L 1294.7 113.3 L 1309.2 161.6 L 1338.1 187.2 L 1409.9 236.9 L 1439.2 266.9 L 1467.7 297.3 L 1484.1 315.4 L 1510 331.2 L 1494.2 344.1 L 1471.6 339.5 L 1453.6 322.5 L 1432 291.6 L 1408.6 274.7 L 1395 256.5 L 1349.2 235.4 L 1313.1 234.8 L 1300.4 223.8 L 1269.6 236.2 L 1237.6 212.3 L 1221.2 251.6 L 1159.9 240.6 Z" />
<path class="neighbor" d="M 1082.3 -545.6 L 1140.9 -537.2 L 1163.7 -553.4 L 1176.3 -572.3 L 1216.4 -579.6 L 1225.1 -597.3 L 1242.5 -606.2 L 1190 -658.8 L 1295.5 -685.3 L 1305.5 -693.2 L 1368.9 -678.9 L 1447.3 -642.1 L 1595.7 -536.2 L 1693.6 -532 L 1740.5 -526.9 L 1753.6 -501.9 L 1790.8 -503.2 L 1811.5 -457.8 L 1837.4 -445.8 L 1846.4 -427.3 L 1882.2 -405.2 L 1885.4 -383.5 L 1880.2 -365.9 L 1886.8 -348.3 L 1902 -333.5 L 1909 -316.2 L 1916.9 -303.3 L 1932.8 -292.9 L 1947.4 -296.6 L 1957.4 -276.5 L 1959.4 -264.4 L 1979.5 -211 L 2137.8 -184.5 L 2148.4 -195.6 L 2172.5 -158.3 L 2137.4 -53.1 L 1979.5 -0.4 L 1827.7 19.8 L 1778.6 43.5 L 1740.9 98.7 L 1716.3 107.5 L 1703.1 89.9 L 1683 92.6 L 1632.1 87.3 L 1622.4 82.1 L 1561.7 83.3 L 1547.4 88 L 1525.8 74.3 L 1511.8 100.2 L 1517.2 122.4 L 1494.1 139.2 L 1487.3 116.7 L 1471.4 100.9 L 1467.4 79.9 L 1440.2 61 L 1412.1 16.9 L 1397.3 -26 L 1360.9 -62.2 L 1337.4 -70.9 L 1302.5 -121.1 L 1296.4 -157.6 L 1298.7 -188.8 L 1268.5 -247.2 L 1243.8 -267.8 L 1215.4 -278.6 L 1198.1 -308.8 L 1200.9 -320.7 L 1186.3 -348 L 1170.9 -359.7 L 1150.4 -398.9 L 1118.3 -441.3 L 1091.5 -477.5 L 1065.3 -477.2 L 1073.5 -506.1 L 1075.8 -524.6 L 1082.3 -545.6 Z" />
<path class="neighbor" d="M 1757.9 578.5 L 1609.1 736.4 L 1540.5 738.8 L 1493.6 775.9 L 1459.9 776.8 L 1445.5 793.4 L 1409.5 793.4 L 1388.3 775.6 L 1340.2 797.6 L 1324.6 819.6 L 1289.5 815.4 L 1277.9 809.4 L 1265.6 810.8 L 1248.9 810.3 L 1182.3 765.6 L 1145.7 765.6 L 1127.7 748.3 L 1127.7 718.7 L 1100.3 709.9 L 1069.2 652.6 L 1045.2 640.4 L 1036 619.4 L 1009.3 593.7 L 977 589.9 L 994.9 559.9 L 1022.8 558.7 L 1030.7 542.6 L 1030 495.3 L 1045.6 440.2 L 1070.5 425.4 L 1075.8 403.9 L 1098.4 363.7 L 1130.1 337.6 L 1151.5 285.8 L 1159.9 240.6 L 1221.2 251.6 L 1237.6 212.3 L 1269.6 236.2 L 1300.4 223.8 L 1313.1 234.8 L 1349.2 235.4 L 1395 256.5 L 1408.6 274.7 L 1432 291.6 L 1453.6 322.5 L 1471.6 339.5 L 1453.1 362.8 L 1435.3 387.5 L 1439.4 402 L 1440.2 418 L 1469.6 418.9 L 1482.3 415.2 L 1494 424.5 L 1482.5 443.2 L 1502 472.2 L 1521.4 497.5 L 1541.5 516.3 L 1713.6 578.8 L 1757.9 578.5 Z" />
<path class="neighbor" d="M 1026.9 1049.7 L 919.7 1053.8 L 862 1053.1 L 843.5 1059.4 L 812.1 1075.7 L 799.3 1070.3 L 799.8 1030.6 L 811.9 1010.5 L 814.9 968.3 L 826 943.8 L 846.1 916.3 L 866.3 902.4 L 883.3 883.7 L 862.2 876.5 L 865.3 815 L 865.3 815 L 887 800.6 L 920.5 812.4 L 962.9 800.1 L 999.9 800.2 L 1032.3 776 L 1057.2 812.6 L 1063.4 839 L 1086.5 899.4 L 1067.4 937.8 L 1041.5 972.6 L 1026.4 993.9 L 1026.9 1049.7 Z" />
<path class="lake" d="M 898.9 874.2 L 894.9 879.7 L 894.3 880.7 L 894.5 883.9 L 895.1 899.9 L 894.5 902 L 893.5 903 L 892.2 903.2 L 891 904.8 L 890.1 908 L 888.2 910.9 L 882.8 915.2 L 880.9 916.1 L 876.2 917.4 L 874.8 918.3 L 872.5 919.3 L 868.4 923.5 L 862.8 930.8 L 859.7 935.3 L 859.3 937 L 852.7 944.9 L 851.4 945.6 L 849.8 945.9 L 848.2 944.9 L 847.8 944.5 L 848 940.7 L 847.4 938 L 847.3 936.4 L 847.9 935.9 L 847.5 935 L 846.6 934.5 L 846.1 933.5 L 845.1 933.4 L 843.2 933.7 L 842.5 933.6 L 841.8 931.4 L 844.7 927 L 846.7 922.5 L 849.3 919.1 L 852.5 916.6 L 856.9 911.5 L 859 910.1 L 867.1 901.9 L 870.7 898.9 L 873.1 898 L 883.5 890.6 L 887.7 886.4 L 890 882.5 L 892.2 879.1 L 896.8 874 L 899.1 873.3 L 898.9 874.2 L 898.9 874.2 L 898.9 874.2 Z" />
<path class="lake" d="M 1069.8 1004.5 L 1069.8 1004.5 L 1069.8 1004.5 L 1074.8 1014.2 L 1074 1015.3 L 1069 1016.8 L 1062.4 1017.1 L 1057.2 1018.3 L 1056.1 1019.1 L 1057 1024.2 L 1056 1025.8 L 1054.4 1026.2 L 1051.8 1023.9 L 1049.3 1023.9 L 1046.5 1023.1 L 1043.4 1023 L 1041.2 1024.5 L 1036.2 1030.2 L 1035.2 1033.7 L 1035.6 1037.9 L 1037.6 1041.7 L 1040.6 1046 L 1039.6 1049.2 L 1038.4 1051 L 1035.7 1052.2 L 1035.3 1054.1 L 1028.4 1062.2 L 1026.9 1065.4 L 1027.1 1067 L 1029.5 1069.2 L 1029 1070.2 L 1023.8 1070.4 L 1023 1071.5 L 1023 1072.9 L 1022.3 1073.7 L 1022.6 1074.7 L 1027.5 1078.4 L 1027.8 1079.4 L 1026.2 1079.3 L 1021 1077.9 L 1017.8 1077.6 L 1015.5 1078 L 1014.5 1079 L 1013.4 1082.4 L 1014.5 1084.2 L 1014.9 1086 L 1011 1088.7 L 1010.6 1092.4 L 1008.1 1094.4 L 1005.1 1095.6 L 1000.5 1095.1 L 998.6 1096 L 996.8 1097.9 L 995 1100.9 L 1003.1 1100.5 L 1004.5 1101.2 L 1005.2 1102.5 L 1006.8 1103.9 L 1007 1104.8 L 1001.1 1104.9 L 999.1 1106.7 L 995.2 1106.2 L 991.6 1108.8 L 991.3 1110 L 993.9 1111.5 L 1006.6 1113.5 L 1010.1 1113.8 L 1019 1110.9 L 1021.2 1111.5 L 1022 1113.3 L 1022 1115.1 L 1019.8 1117.5 L 1010.6 1123.8 L 1006.2 1127.6 L 1002.1 1129.2 L 1002.6 1131.4 L 1002.4 1132.5 L 1001.2 1133 L 990.4 1130.7 L 982.9 1126.6 L 979.3 1126.1 L 976.5 1127.1 L 974.5 1128.7 L 973.7 1130.5 L 973.3 1140 L 976.6 1148.1 L 977.4 1149.7 L 973.7 1150.4 L 967.8 1156.1 L 966.7 1156.8 L 967.4 1152.9 L 967 1150.6 L 971.3 1147 L 972.1 1144.9 L 969.6 1139 L 970.1 1133.6 L 969.4 1132.1 L 966.3 1132 L 963.7 1131.4 L 962.8 1130.8 L 962.1 1129 L 960.6 1128.1 L 955.6 1131.7 L 954.9 1131 L 954.9 1129.3 L 954.2 1128.9 L 949.9 1128.4 L 947.3 1127.2 L 945.5 1125.7 L 943.5 1121 L 941.6 1119.9 L 939.4 1119.9 L 937.8 1121.3 L 935.9 1124.3 L 932.8 1124.8 L 931.8 1125.7 L 934.1 1130.6 L 934.6 1132.6 L 933.6 1133.3 L 928.3 1132.2 L 926 1133.8 L 925.1 1137 L 925.6 1140.6 L 926.9 1144.8 L 925.2 1144.6 L 922.4 1140.5 L 921.4 1140.8 L 920.7 1141.9 L 918.7 1142.1 L 917.2 1147 L 916.3 1146.6 L 915.4 1144.5 L 915.2 1141.5 L 917 1137.7 L 914.6 1136.4 L 913.2 1134.8 L 912.8 1132.9 L 915.5 1129.5 L 915.2 1128.1 L 914.4 1126 L 913 1123.8 L 911 1122.3 L 909.6 1119.6 L 909.6 1109.2 L 909 1105.8 L 909.1 1101.4 L 914.3 1078.2 L 916.8 1074.4 L 917.6 1071.3 L 919.6 1057.2 L 919.4 1054.7 L 918.8 1053.2 L 917.7 1053 L 916.4 1053.5 L 915.3 1052.9 L 914.5 1049 L 913.9 1046.4 L 912.6 1043.8 L 912.1 1041.3 L 917.2 1029.6 L 919.7 1025 L 926.4 1016.6 L 926.8 1013.1 L 925.4 1010.9 L 923.6 1009.2 L 923.2 1008.1 L 924.1 1006.7 L 928.4 1004.5 L 929.6 1002.7 L 935.1 1001.8 L 937.7 999.3 L 940.3 1000 L 941.8 998.6 L 945.2 999 L 946.9 996.2 L 948.5 995 L 949.8 994.8 L 950.4 996.8 L 952.3 996.9 L 954.8 996 L 956.4 994.5 L 957.7 989.5 L 959.1 987.3 L 960.8 986.4 L 962.6 989.7 L 964.2 990.3 L 962.3 992.5 L 962 993.5 L 963.1 994 L 965.4 994 L 967.8 993.5 L 971.6 990.8 L 973 990.8 L 973.9 993.8 L 974.9 994.7 L 977.2 994 L 980.5 992 L 983 989.5 L 983.4 987.1 L 986.6 986.4 L 990 979.3 L 989.2 977.2 L 992.3 976 L 993.7 975.4 L 995.8 976 L 998.5 974.9 L 998.7 975.9 L 996.8 980.3 L 998 981.3 L 1003.6 982.1 L 1004.9 983.1 L 1004.9 984.3 L 1002.6 985.5 L 1002.9 986.9 L 1004.8 988.2 L 1007.4 988.8 L 1009.9 988 L 1013 983.9 L 1015.2 983.1 L 1016.9 983.5 L 1017.7 987.6 L 1018.6 988.8 L 1024.7 990 L 1029.1 988.3 L 1030.7 988.5 L 1030.6 995 L 1031.1 998.4 L 1032.2 1001 L 1033.5 1003 L 1035.1 1004 L 1038.1 1003.9 L 1038.6 1004.5 L 1037.7 1006.7 L 1038.2 1008.3 L 1043.9 1013.4 L 1047 1018.2 L 1048.3 1018.5 L 1049.6 1017.5 L 1050.6 1016.2 L 1051.5 1012.5 L 1054.1 1010 L 1060.3 1007.3 L 1069.8 1004.5 Z M 929.6 1122.3 L 929.6 1122.3 L 929.6 1122.3 L 929.9 1119 L 929.1 1117.8 L 925.4 1119 L 921.5 1120 L 920.2 1118.9 L 918.3 1116.3 L 917.2 1115.1 L 915.7 1117.3 L 915.3 1121.9 L 918.4 1125.1 L 918.7 1128.9 L 921.5 1128.3 L 922.4 1124.6 L 924.9 1124.2 L 928.7 1123.5 L 929.6 1122.3 Z M 942.4 1020.3 L 942.4 1020.3 L 942.4 1020.3 L 943.5 1017.5 L 940.9 1015 L 936.9 1017.2 L 936.2 1016.1 L 936.3 1012.1 L 934.5 1012 L 931.3 1011.9 L 930.1 1013.1 L 931 1015 L 932.2 1016.7 L 933.6 1017.4 L 937.7 1018.8 L 937.5 1020.6 L 935.5 1023 L 934.3 1025.4 L 933.7 1027.4 L 941 1024.6 L 942.4 1020.3 Z M 988.6 1113.4 L 988.6 1113.4 L 988.6 1113.4 L 989 1111.1 L 986.8 1108.6 L 985.7 1105.6 L 984.5 1103.2 L 980.8 1103.6 L 977.9 1103.6 L 976.7 1099.8 L 973.3 1100 L 970.4 1101.7 L 971.3 1103.9 L 971.5 1108.2 L 974 1109.5 L 978.8 1110.5 L 982.5 1112.1 L 985.9 1113.3 L 988.6 1113.4 Z M 999 988.3 L 999 988.3 L 999 988.3 L 999.8 985.4 L 996.1 984 L 991.1 985.1 L 991 987.4 L 990.8 989.7 L 988.9 990.5 L 989.1 991.8 L 993.3 992.2 L 993.7 993.4 L 997.2 995.5 L 996.5 992.3 L 996.1 990 L 999 988.3 Z" />
<path class="lake" d="M 1205 378.9 L 1203.2 377.5 L 1201 377.4 L 1198.8 377.7 L 1197.6 376.8 L 1195.9 375.7 L 1195 376.5 L 1194 377 L 1193 376.8 L 1192 375.9 L 1191.2 374.4 L 1190 373 L 1190.2 369.5 L 1190.3 366.5 L 1190.8 363.5 L 1191.4 359.4 L 1192.5 357 L 1193.7 355.3 L 1195 354.1 L 1196.6 353.8 L 1198.6 354.4 L 1200.2 355.9 L 1201.5 356 L 1204.1 356.3 L 1207.4 353.7 L 1209.8 352.9 L 1211.7 352.8 L 1214.1 352.1 L 1216 353 L 1217.8 354.4 L 1219.1 356.3 L 1219.7 359.4 L 1221.1 361.9 L 1220.7 363.6 L 1220.6 365.5 L 1220.3 367.1 L 1219.4 368.8 L 1218.9 371.1 L 1216.9 372.8 L 1216.3 374.6 L 1216 376.7 L 1213.1 381 L 1210.3 387.4 L 1208.9 387.3 L 1207.9 387.4 L 1207.1 387.2 L 1206.8 386.6 L 1205.7 385.5 L 1206.9 383.4 L 1206.2 381.7 L 1205.1 380.1 L 1205 378.9 L 1205 378.9 L 1205 378.9 Z" />
<path class="lake" d="M 1173.3 866.1 L 1170.6 872.1 L 1167.3 873.1 L 1165.4 870.9 L 1159.6 855.8 L 1154.7 848.4 L 1150 843.6 L 1147.8 843.2 L 1145.4 839.8 L 1143.2 833 L 1139.3 827.9 L 1135.5 822.4 L 1134 816.4 L 1132.8 814.5 L 1130.6 810.3 L 1129.2 801 L 1129.8 795.7 L 1131.4 787.1 L 1133 774.9 L 1133.4 768.9 L 1134.7 760.1 L 1137 759.4 L 1139.6 760.8 L 1141.2 759.9 L 1142.4 756.4 L 1144.3 754.8 L 1145.4 754.7 L 1146.4 755.9 L 1147.7 766.5 L 1148.6 781.4 L 1148.5 786.3 L 1149.2 795.5 L 1148.9 816.9 L 1153.6 830.9 L 1159.8 841.2 L 1165.6 845.8 L 1171.6 849.3 L 1174 856.2 L 1173.3 866.1 L 1173.3 866.1 L 1173.3 866.1 L 1173.3 866.1 Z" />
<path class="lake" d="M 790.9 1032.9 L 788.1 1033.4 L 786.4 1030.1 L 786 1027.6 L 787.7 1023.5 L 790.8 1017.6 L 794.9 1009.2 L 800.2 1006.8 L 802.7 1006 L 810 1006.1 L 815.5 1008.8 L 814.5 1015.7 L 802.6 1026.4 L 795.7 1031.9 L 792.6 1031.7 L 790.9 1032.9 L 790.9 1032.9 L 790.9 1032.9 Z" />
<path class="lake" d="M 1245.5 653.5 L 1247.9 653.6 L 1249.8 653.5 L 1250.1 654.4 L 1249.4 656.6 L 1248.7 659 L 1248.2 660.3 L 1247.2 661.6 L 1245.6 663.9 L 1243.3 667.7 L 1239.6 673.3 L 1236 678.2 L 1234.3 680 L 1232.1 681.3 L 1228.8 683.2 L 1226.8 683.1 L 1226.5 681.6 L 1227.2 679.2 L 1229.1 676.7 L 1231.5 674.8 L 1233.4 674 L 1235.5 672.3 L 1236.6 670 L 1236 664.9 L 1235.4 659.9 L 1235.7 658.1 L 1239.2 655.1 L 1243.5 652.9 L 1245.5 653.5 L 1245.5 653.5 L 1245.5 653.5 L 1245.5 653.5 Z" />
<path class="lake" d="M 1005 913.2 L 1002.7 913.4 L 996.9 914.3 L 991.3 916.3 L 987.8 918.6 L 986 920.6 L 986.7 921.7 L 990.2 922 L 993 922.3 L 992.6 923.2 L 990.3 924.5 L 989.7 926.1 L 992.2 926.8 L 994.2 925.9 L 995.3 925 L 996.1 925 L 996.3 926.1 L 996.5 928.4 L 995.4 931 L 993.6 933.8 L 993.1 935.4 L 991.5 933.7 L 988.2 931.9 L 985.9 930.6 L 980.4 927 L 974 924.4 L 972.4 924.3 L 972.2 925 L 972.4 925.8 L 973.7 927 L 973.7 930.7 L 972 929.6 L 970.1 926.7 L 968.1 925.9 L 966.9 926.3 L 966.3 928.3 L 965.8 929.2 L 961.5 927.3 L 957.3 925.4 L 955.9 924.1 L 955 920.9 L 955.4 919.6 L 958.9 920 L 965.4 918.4 L 968.9 916.5 L 969 917 L 968.7 917.8 L 969.4 918.2 L 972.1 917.8 L 976.1 917.4 L 978.4 917.9 L 979.3 918.3 L 980.5 917.6 L 982.9 915.4 L 984.7 913.7 L 985.3 914.2 L 986.1 914.7 L 987.9 913.5 L 990.2 912.3 L 991.8 911.8 L 993.5 912.1 L 995.7 912.6 L 998.2 911.4 L 1001.2 908.6 L 1002.8 908.8 L 1003.4 911.1 L 1004.2 911.8 L 1004.8 912.7 L 1005 913.2 L 1005 913.2 L 1005 913.2 L 1005 913.2 Z" />
<path class="country" d="M 865.3 815 L 819 780 L 806.5 757.5 L 777.2 768.7 L 752.8 765.2 L 738.8 774 L 715.1 767.7 L 683.2 724.2 L 674.8 707.5 L 635.4 686.7 L 622.1 655.1 L 600.2 632.3 L 564.8 604.9 L 564.3 587.8 L 535.5 566.5 L 499.7 546 L 515.8 540.3 L 533.9 530.3 L 547.5 483.3 L 561.9 458.9 L 599.9 451.7 L 608.9 466.2 L 636 496.9 L 650.5 501.4 L 669.5 492.4 L 707.4 494.2 L 714.6 505 L 767.1 505 L 768.9 494.2 L 796 484.2 L 801.4 468.9 L 821.3 458 L 865.6 488.7 L 892.7 483.3 L 918.9 445.4 L 947.8 416.4 L 943.3 384.8 L 930.6 369.5 L 962.2 366.7 L 965.9 355 L 990.3 358.6 L 983.9 397.5 L 990.3 435.4 L 1017.4 456.2 L 1023.7 474.3 L 1022.8 500.5 L 1030.1 501.5 L 1030.7 542.6 L 1022.8 558.7 L 994.9 559.9 L 977 589.9 L 1009.3 593.7 L 1036 619.4 L 1045.2 640.4 L 1069.2 652.6 L 1100.3 709.9 L 1064.7 744.6 L 1032.3 776 L 999.9 800.2 L 962.9 800.1 L 920.5 812.4 L 887 800.6 L 865.3 815 Z" />

<path class="river" d="M 1195.9 375.7 L 1197.8 373.6 L 1200.3 373 L 1203.8 373.2 L 1206.8 376.8 L 1210.3 387.4" />
<path class="river" d="M 893.4 884.3 L 892.8 881.1 L 894.2 878.3 L 899.1 873.4" />
<path class="river" d="M 1133.3 213.5 L 1132 217.3 L 1131.8 230.2" />
<path class="river" d="M 1052 379.5 L 1053.5 387.1 L 1058.8 393.5 L 1072.9 405.1" />
<path class="river" d="M 792.6 1031.7 L 800.2 1006.8 M 893.4 884.3 L 882.4 898.5 L 871.1 911.1 L 846.6 934.5" />
<path class="river" d="M 989.2 977.2 L 993 979.8 L 991.6 984.2 L 986.2 991.4 L 980.3 1002.4 L 973.9 1017.5 L 965.9 1028.4 L 956.2 1035.3 L 942.1 1041.3 L 914.5 1049 M 955.4 919.6 L 959.1 923.2 L 962.8 924.6 L 967.8 924.9 L 970.7 925.8 L 973.7 930.7 M 939.4 912 L 951.8 918" />
<path class="river" d="M 1199.3 418.8 L 1191.1 410.6 L 1188.9 405.6 L 1190.7 398.8 L 1192.5 390.2 L 1195 386.1 L 1198.7 383.9 L 1199.4 381 L 1195.9 375.7" />
<path class="river" d="M 1210.3 387.3 L 1210.6 390.6 L 1213.6 392.6 L 1219.4 394.2 L 1225.7 398.5 L 1232.7 405.6 L 1243.6 410.9 L 1258.4 414.6 L 1266.9 418.8 L 1268.9 423.4 L 1269.6 432.7 L 1269 446.8 L 1267.7 456.8 L 1265.6 462.8 L 1262.3 466.2 L 1257.8 466.9 L 1248.4 470.8 L 1234.1 478 L 1224.7 479.4 L 1220.1 475.1 L 1215.7 472.2 L 1211.4 470.8 L 1208.6 470.6 L 1207.2 471.6 L 1206.1 471.2 L 1205.5 469.3 L 1203.8 467.8 L 1201.1 466.8 L 1199.9 464.7 L 1200.1 461.5 L 1198.3 459.3 L 1192.3 457.4 L 1172.9 454.4 L 1165.7 452.1 L 1164.3 449.5 L 1162.7 448.6 L 1161 449.4 L 1158.1 453.6 L 1154.1 461.1 L 1148.2 465.2 L 1140.2 465.8 L 1135 467.5 L 1132.7 470.3 L 1129.4 471.5 L 1125.1 471 L 1122.8 471.8 L 1122.7 472.9 L 1122.6 473.4 L 1121.8 473.5 L 1117.7 472.5 L 1104.1 465.9 L 1103.2 465.2" />
<path class="river" d="M 927.6 809.5 L 923.3 814 L 920.7 815 L 918.2 814.1 L 915.4 814.3 L 912.2 815.6 L 906.9 822.7 L 899.6 835.6 L 895.4 844.4 L 894.2 848.9 L 894.5 852.1 L 896.2 853.9 L 896.9 856.6 L 896.6 860.2 L 897.8 863.5 L 900.5 866.5 L 901.2 869.4 L 899.1 873.3" />
<path class="river" d="M 1115.4 157.5 L 1103.2 141 L 1099 134.1 L 1098.8 131 L 1094.6 124.2 L 1086.6 113.6 L 1082.3 106.8 L 1081.8 103.8 L 1072.4 97.6 L 1054.1 88.1 L 1044 81 L 1041.9 76.4 L 1038.5 73 L 1029.5 68.1 M 1115.5 157.3 L 1116.9 172.5 L 1122.3 185.4 L 1132 201.2 L 1134.7 207.8 L 1135.1 210.2 L 1133.3 213.5" />
<path class="river" d="M 849.7 590.9 L 854.1 577 L 855.5 567.4 L 855.2 557.6 L 856.7 551.5 L 859.9 549.1 L 862.7 544.9 L 865.1 538.7 L 865.7 532.7 L 864.6 526.7 L 868.4 518.7 L 881.4 503.6" />
<path class="river" d="M 927.6 809.5 L 911.5 792.1 L 905 783.8 L 902.7 778.9 L 901.3 772 L 900.8 763.1 L 901.7 757.3 L 904.1 754.6 L 907.5 746.2 L 912 732 L 914.6 720.7 L 915.6 712.6 L 915.6 705.5 L 914.8 699.6 L 913.2 694.3 L 909.5 687.6 L 898.3 665.1 L 891.4 653.3 L 881.9 640.2" />
<path class="river" d="M 881.9 640.2 L 870 632.2 L 862 623.2 L 853.9 610.7 L 850.2 603.8 L 850.9 602.6 L 850.3 600.6 L 848.4 598 L 848.2 594.8 L 849.6 591 L 848.2 584.9 L 843.8 576.6 L 840.7 572.1 L 838.8 571.2 L 838.5 566.6 L 839.7 558.5 L 839.3 553.1 L 837 550.5 L 836.4 547.5 L 837.3 544.2 L 836.6 541.6 L 834.5 539.6 L 832.9 535.6 L 832 529.5 L 833.7 523.7 L 838.1 518.2 L 839.9 513.5 L 839 509.6 L 840.9 505.2 L 845.6 500.2 L 854 498 L 866 498.6 L 874.1 500 L 880.7 503.2" />
<path class="river" d="M 281 602.9 L 275.4 601.7 L 273.6 599.6 L 273.6 596.2 L 270 593.1 L 262.9 590.3 L 259.8 584.6 L 260.8 576 L 257.4 565.6 L 245.8 547.1 L 248.1 544.1 L 245.8 540.9 L 236.4 534.6" />
<path class="river" d="M 334.7 1014.5 L 327.3 1015.2 L 321.6 1014.4 L 315.1 1012.5 L 310.7 1012 L 308.5 1013.1 L 306.7 1011.7 L 305.4 1007.8 L 303.3 1006.6 L 300.4 1007.9 L 296.5 1007.4 L 291.7 1005.2 L 287.9 1005.2 L 285 1007.5 L 280 1007.6 L 272.8 1005.6 L 264.1 1005.7 L 253.7 1007.9 L 247.6 1010.2 L 245.8 1012.7 L 243.6 1013.3 L 239.9 1011.3" />
<path class="river" d="M 236.4 534.6 L 234.1 535.7 L 229.8 534.2 L 222.7 530.5 L 214.8 523.8 L 202 509.2 L 178.8 488 L 170 477.9 L 167.8 472 L 164.5 466.5 L 156.7 457.7 L 153.8 454.9 L 150.2 452.9 L 146.1 451.8 L 142.6 449.3 L 139.8 445.7 L 137.4 443.6 L 135.2 443.2 L 130.6 444.5 L 123.6 447.6 L 116.7 448 L 109.9 445.8 L 102.4 441.9 L 94 436.1 L 85.4 432.7 L 76.6 431.6 L 69.3 429.4 L 63.6 426.2 L 59.3 423 L 56.4 419.7 L 54.7 415.2 L 54.1 409.4 L 52.2 402.6 L 48.8 394.6 L 47.7 387.1 L 48.8 380 L 46.8 373.6 L 41.5 367.7 L 35.8 363.6 M 35.8 363.6 L 29.2 365.8 L 23.6 364.2 L 15.6 360.5 L 9.9 356.5 L 6.5 352.4 L 1.1 349.9 L -6.4 349.3 L -10.4 347.9 L -11.5 343.3 M 35.8 363.6 L 29.6 361.2 L 25.6 353.9 L 23.8 341.6 L 19.3 333.5 L 12 329.6 L 7.9 324.9 L 6.4 316.5" />
<path class="river" d="M 634.1 1435.1 L 645.3 1432.6 L 650 1431 L 651.8 1429.5 L 652.7 1427.4 L 652.7 1424.5 L 655 1421.4 L 659.7 1418.2 L 662.1 1415.6 L 662.1 1413.7 L 659.8 1410.5 L 655 1406.1 L 656.4 1396 L 664 1380.3 L 666.1 1367.7 L 662.7 1358.5 L 661.5 1350.5 L 662.5 1343.8 L 662 1337.8 L 659.9 1332.3 L 658.6 1324.6 L 658 1314.6 L 658.3 1306 L 659.9 1295 M 521 958.6 L 515 951.1 L 505.9 945.9 L 491.6 940.6 L 477.2 929.1 L 462.7 911.3 L 451.3 901.1 L 439 897.1 L 429.7 889.1 L 421.2 886 L 410.6 885 L 398.7 885.1 L 385.6 886.1 L 374 888.5 L 363.7 892.3 L 344.7 894.7 L 317.1 895.9 L 289.9 901.6 L 249.9 916.9 L 227.4 935.3 L 217.5 944.3 L 212.7 950 L 207.8 963.3 L 200.3 994.5 L 199.5 996.4 L 195.5 1006.2 L 184.5 1020.3 L 176.8 1028.6 L 165.7 1040.5 L 151.8 1052.3 L 142.8 1055.8 L 135.8 1059.7 L 130.8 1064.2 L 129.2 1066.7 L 125.6 1072.2 L 117.3 1089.1 L 113 1096.6 L 107.3 1102.9 L 98.9 1110.7 L 95.8 1114.4 L 94.6 1119.7 L 95.1 1129.5 L 96 1159.2 L 94.5 1167.9 L 92.2 1182.1 L 84 1198 L 77.8 1206.8 L 71.6 1209.5 L 63.5 1211.9 L 59.6 1214.9 L 57.2 1219.3 L 52.6 1223.2 L 45.9 1226.5 L 37.5 1234.5 L 27.2 1247.4 L 20.3 1254.8 L 16.5 1256.7 L 12.6 1256.9 L 8.6 1255.3 L 5.2 1255.1 L 1.2 1256.8 L -8.5 1258.3 L -13.8 1260 L -17.9 1262.4 L -20.5 1265.6 L -21.5 1269.7 L -24 1273.7 L -28 1277.6 L -29.6 1278.8 L -30.8 1278.9 L -32.5 1277.6 L -33.8 1277.6 L -34.7 1278.9 L -37 1279.2 L -40.6 1278.7 L -43.2 1279.5 L -44.8 1281.8 L -44.5 1284.7 L -42.1 1288.3 L -42.3 1289.9 L -43.7 1290.9 L -44.3 1293.2 L -43.7 1297.4 L -46.4 1302 L -52.4 1307.2 L -57.5 1309.3 L -63.7 1308 L -69.8 1308.4" />
<path class="river" d="M 880.7 503.2 L 892.3 506.7 L 897.9 507.3 L 901.4 506.2 L 904.7 502.6 L 907.8 496.4 L 913.3 491.4 L 921.4 487.5 L 928.6 482.1 L 935 475 L 939.1 469.5 L 940.8 465.6 L 940.9 460.4 L 939.6 453.9 L 937.3 450.4 L 934.1 449.9 L 932.4 448.5 L 932.3 446.5 L 939.4 438.8 L 953.6 425.5 L 960.7 415.3 L 960.5 408 L 962.1 398.9 L 965.5 387.9 L 966.9 378.8 L 966.2 368.3 L 965.1 358.1 L 965.8 350.5 L 968 342.3 L 968.4 333.7 L 967 324.8 L 967.1 318.6 L 968.6 315.2 L 966.3 309.3 L 960.2 300.8 L 957.5 293.1 L 958.5 286 L 957.6 281.8 L 954.9 280.6 L 953 278.4 L 952.1 275.2 L 949.8 272 L 946.4 268.8 L 942.3 261.1 L 937.5 248.9 L 935.8 238.3 L 937.1 229.3 L 940.5 221.6 L 946.2 215.3 L 949.9 203.3 L 952.5 176.7" />
<path class="river" d="M 1103.2 465.2 L 1102.7 463.5 L 1100.1 451.7 L 1097.4 446.1 L 1092.4 443.2 L 1094.2 422 L 1093.1 413.3 L 1089.8 410.1 L 1084.3 407.6 L 1072.9 405.1 M 1052 379.5 L 1049.1 365.5 L 1048.7 357.9 L 1049.9 351.8 L 1047.9 346.9 L 1042.5 342.9 L 1040.3 339.9 L 1041.3 338 L 1041.2 334.5 L 1040.1 329.7 L 1038.2 325.7 L 1035.4 322.6 L 1034.1 322.2 L 1032 320.6 L 1031 317.6 L 1029.9 307.8 L 1028.3 301.8 L 1026.2 299.6 L 1022.9 298.3 L 1018.5 297.8 L 1015.8 295.4 L 1014.8 290.9 L 1013 287.5 L 1010.6 285.3 L 1010 282.8 L 1011.3 280.2 L 1011.1 278.1 L 1009.8 276.8 L 1009.9 275.6 L 1010.8 274.8 L 1010.9 273.7 L 1009.9 272.3 L 1009.6 271.2 L 1010 270.4 L 1010.7 269.8 L 1011.1 268.7 L 1010.5 266.1 L 1011.4 262.2 L 1014 257 L 1009.2 244.7 L 997.1 225.1 L 990.5 212.5 L 989.3 206.8 L 986.4 201.7 L 981.8 197.3 L 976.7 194.2 L 971 192.3 L 965.4 187.9 L 959.8 181 L 955.9 177.4 L 952.5 176.7" />
<path class="river" d="M 1283.3 652.1 L 1280.7 655.4 L 1282.6 660 L 1291 670.6 L 1294.7 677.3 L 1301 681 L 1314 684.9 L 1315.6 685.5 L 1316.6 686.4 L 1320.4 694.7 L 1324.6 698.4 L 1329.6 699.2 L 1332.1 701.9 L 1332 706.4 L 1333.9 708.8 L 1337.8 709.1 L 1341.5 710.8 L 1345 714.1 L 1349.5 716.2 L 1355 717.3 L 1362.2 717.1 L 1371.2 715.5 L 1380.9 710.9 L 1391.2 703.4 L 1398 699.6 L 1401.3 699.3 L 1404.3 700 L 1407 701.8 L 1410.8 708.9 L 1415.6 721.2 L 1421.2 731.8 L 1427.6 740.6 L 1431 747 L 1431.4 750.9 L 1436.5 757.6 L 1451.3 772.1" />
<path class="river" d="M 841 876.9 L 844.5 859.6 L 840.5 851 L 836.1 848.2 L 829.8 848.4 L 821.9 845.8 L 812.3 840.5 L 804.6 837.6 L 798.9 836.9 L 795.6 833.9 L 794.8 828.7 L 792 826 L 787.1 825.9 L 781.7 821.7 L 775.9 813.6 L 770.5 810.4 L 765.5 811.9 L 759 812.1 L 747 810.4" />
<path class="river" d="M 344.3 613.2 L 338.7 617.6 L 335.5 618.9 L 332.6 618.7 L 330.5 620.1 L 329.1 623.2 L 326.5 625.7 L 320.7 628.8 L 315.3 629.9 L 311 629.5 L 306.3 628 L 300.6 625.1 L 294.1 620.5 L 288.4 614.4 L 281 602.9" />
<path class="river" d="M 659.9 1295 L 663.7 1282.8 L 664.3 1278 L 662.9 1276.4 L 661.4 1269.4 L 659.7 1256.9 L 657.2 1248.8 L 653.7 1245.1 L 645.2 1239.2 L 631.7 1231.2 L 621.4 1223.5 L 614.3 1216.1 L 611.5 1208.1 L 613 1199.5 L 611.6 1191.8 L 607.2 1185 L 605.9 1176.7 L 607.5 1167.1 L 608.2 1158.8 L 608 1151.8 L 607 1147.3 L 604.4 1144.2 M 604.4 1144.6 L 599.7 1129 L 599.6 1110.9 L 602.3 1085.1 L 601.3 1067.4 L 594.1 1053 L 586.4 1042.7 L 582.7 1035.6 L 580.5 1028.4 L 581.6 1020 L 585.9 1010.5 L 587.4 1001.6 L 586.1 993.4 L 584 987.3 L 579.8 981.5 L 571.7 975.5 L 565.4 973 L 554.8 971.4 L 547.2 969.4 L 542 966.7 L 536.4 962.6 L 530.4 960.1 L 521 958.6" />
<path class="river" d="M 952.5 176.7 L 954.9 155.4 L 959.8 144 L 968 135.5 L 975.6 130.8 L 982.6 129.8 L 988 127.7 L 992 124.4 L 998.2 121.4 L 1006.7 118.6 L 1012.8 114.1 L 1016.5 107.8 L 1017.9 103.3 L 1016.8 100.7 L 1017 96.9 L 1018.3 91.9 L 1022 84.9 L 1028.1 75.9 L 1029.5 68.1 L 1030.4 63.2 L 1028.9 46.6 L 1026.8 37.6 L 1023.9 36.2 L 1020.7 33.1 L 1017.2 28.3 L 1015.3 23 L 1014.9 17.4 L 1013.3 14.1 L 1010.4 13.2 L 1009.2 7.6 L 1009.6 -2.7 L 1007.7 -9.5 L 1003.7 -12.9 L 1001.1 -16.6 L 999.4 -22.7 L 986.6 -26.9 L 980.3 -27.3 L 976.1 -25.4 L 970.9 -20.6 L 964.5 -12.9 L 959.4 -8.9 L 955.4 -8.4 L 951.3 -4.8 L 947 2 L 942.9 5.4 L 938.8 5.3 L 934.8 6.7 L 930.7 9.5 L 928.8 13.1 L 929 17.4 L 927 20.3 L 922.6 21.7 L 916.2 28.4 L 907.9 40.5 L 899 48.2 L 889.7 51.4 L 881.8 52.1 L 875.3 50.3 L 869.4 47.6 L 864 44.1 L 860.6 38.7 L 859.2 31.3 L 856.9 26 L 853.9 22.6 L 851 17.5 L 848.3 10.4 L 847 0.2 L 847.1 -13.2 L 845.6 -25.2 L 842.3 -35.8 L 839.9 -41.8 L 839.8 -43.7 L 840.9 -45.5 L 847.8 -48.5 L 851.7 -51.3 L 852.7 -53.9 L 853 -58.2 L 852.6 -64.3 L 851.5 -68.4 L 849.8 -70.3 L 847.2 -71.5 L 843.7 -71.9 L 840.7 -75 L 838.4 -80.8 L 838.1 -85.5 L 840 -89 L 840.5 -91.7 L 840.9 -93.8 L 842.4 -95.4 L 848.3 -97.3 L 851.8 -100.4 L 852.8 -104.9 L 854.7 -108 L 857.6 -109.7 L 858.8 -112 L 858.2 -115 L 861.6 -118.8 L 869 -123.4 L 872.5 -126.7 L 872.2 -128.6 L 873.8 -131.6 L 878.9 -137.8 M 973 -263 L 974.8 -280.9 L 974.8 -287.5 L 973.5 -288.8 L 973.7 -292 L 975.1 -297.2 L 975.2 -304.2 L 973.8 -312.7 L 972.6 -318.2 L 971.3 -320.6 L 967.1 -324.1 L 959.8 -328.8 L 955.2 -334.7 L 953.2 -341.7 L 952.7 -346 L 954.3 -348.5 L 963.8 -356 L 966.9 -362.5 L 966.9 -370.7 L 965.4 -375.7 L 962.4 -377.5 L 955.9 -376.4 L 945.8 -372.4 L 938.8 -372.9 L 934.8 -377.9 L 931.7 -378.9 L 928.9 -378.9 L 927.5 -379.4 L 926.6 -381.9 L 924.9 -384.5 L 920 -388.6 L 917.3 -392.3 L 916.8 -395.7 L 915.3 -397.4 L 912.5 -397.5 L 911.3 -398.6 L 911.6 -400.7 L 910.7 -402.1 L 908.6 -402.8 L 903.2 -409 L 893.5 -422 L 892 -424.5 L 890.1 -426.7 L 888.7 -428 L 887 -429.1 L 872.5 -440.2 L 867.2 -447.9 L 868.2 -454.1 L 868 -461.9 L 867.6 -469 L 866.9 -473.4 L 865.5 -476.1 L 863.9 -478.7 L 862.2 -480.5 L 860.6 -482.9 L 860.4 -486.3 L 861.6 -490.4 L 864.1 -495.3 L 865.4 -500.1 L 865.5 -504.8 L 866.6 -510 L 868.8 -515.8 L 873.8 -523.8 L 881.7 -534 L 885.6 -541.6 L 885.4 -546.8 L 886.5 -552.5 L 888.9 -558.8 L 889.2 -568 L 887.5 -579.4 L 887.5 -583.7 L 886.6 -585.8" />
<path class="river" d="M 1191.6 518 L 1191.5 523.2 L 1193.5 526.1 L 1197.3 528.5 L 1199.6 530.9 L 1200.6 534.5 L 1198.2 539.6 L 1197.8 542.2 L 1198.7 544 L 1211.5 559.4 L 1217.2 564.9 L 1220.2 566.6 L 1221.5 572.7 L 1221 585.1 L 1217.7 597.1 L 1211.5 608.8 L 1209.8 616.2 L 1212.4 619.1 L 1214.9 620.6 L 1217.3 620.6 L 1217.5 621.6 L 1215.3 623.5 L 1213.7 627.5 L 1212.6 633.5 L 1210.8 636.9 L 1208.3 637.7 L 1205.7 640.7 L 1202.9 645.8 L 1198.6 649.2 L 1192.7 650.9 L 1189 650.6 L 1187.5 648.1 L 1183.5 646.7 L 1177 646.5 L 1167.8 650.5 L 1156 658.5 L 1148.3 662.1 L 1144.8 661 L 1141.8 661.8 L 1139.2 664.6 L 1137.5 667.8 L 1136.4 673.5 L 1134.9 674.8 L 1135.2 677.6 L 1136.7 682.4 L 1136.1 692.3 L 1133.4 707.4 L 1132.6 715.9 L 1133.7 717.9 L 1136.4 718.4 L 1140.7 717.3 L 1143.3 714.9 L 1144 711.2 L 1145.4 710.2 L 1147.6 711.8 L 1147.9 714.5 L 1146.5 718.4 L 1146.3 721.5 L 1147.4 723.9 L 1146.1 725.6 L 1142.3 726.7 L 1140.7 727.8 L 1141.5 729.1 L 1141.1 730.5 L 1139.5 732.1 L 1139.8 734.3 L 1141.8 737 L 1141.2 741.1 L 1137.8 746.4 L 1137 752 L 1139.6 760.8" />
<path class="river" d="M 48.9 659.6 L 52.8 665.9 L 58 666.8 L 69.4 663.2 L 73.4 659.6 L 76.4 658.3 L 79.7 658.1 L 82.4 660.9 L 84.6 666.6 L 88.5 669.7 L 94.1 670 L 99.1 668 L 103.4 663.7 L 105.8 660.3 L 106.3 657.7 L 109.5 654.4 L 115.3 650.4 L 119.4 648.6 L 121.8 649.1 L 125.3 651.8 L 129.6 656.9 L 133.6 659 L 137.2 658.3 L 141.5 658.9 L 146.3 660.7 L 151.9 660.3 L 158.3 657.7 L 163.9 656.5 L 169 656.8 L 174.5 654.5 L 180.3 649.7 L 184.5 643.2 L 187 635.1 L 189.9 630 L 193.1 628 L 196.5 623.9 L 200.1 617.9 L 202.9 614.8 L 204.8 614.7 L 204.3 612.2 L 201.4 607.2 L 197.4 605.5 L 192.5 607 L 189 606.5 L 186.9 604 L 183.3 602.4 L 178.3 601.7 L 176.6 599.1 L 178.1 594.5 L 177.6 587.8 L 175 578.9 L 173.9 571.9 L 174.5 566.8 L 177.7 559.2 L 183.6 549.1 L 186.9 539.4 L 187.7 530.2 L 189.3 525.4 L 191.9 525 L 194.9 523 L 198.4 519.3 L 200.7 515.4 L 202.2 509.3" />
<path class="river" d="M 239.9 1011.3 L 232.1 1006.1 L 224.6 1003.4 L 214.8 1001.4 L 208.7 999.1 L 206.5 996.5 L 204.1 995.4 L 199.5 996.4" />
<path class="river" d="M 812.9 1062.9 L 810 1059.8 L 805.5 1060.2 L 798.5 1063.1 L 793.9 1064 L 791.6 1062.8 L 789.7 1060.7 L 788.1 1057.5 L 788.7 1049.8 L 792.6 1031.7 M 800.2 1006.8 L 802.4 993.8 L 801.1 987.4 L 797.1 983.4 L 796.9 979.4 L 800.6 975.3 L 803.6 970.3 L 805.9 964.4 L 812.7 959 L 823.9 954.3 L 831.1 948.5 L 834.1 941.7 L 838.4 937.3 L 846.6 934.5" />
<path class="river" d="M 1232.9 269.3 L 1226.7 267.5 L 1223 264.3 L 1218.1 256.6 L 1208.5 243.2 L 1203.5 238.9 L 1199.7 239.3 L 1196.9 241.4 L 1195.2 245.2 L 1193.3 247.6 L 1191.2 248.5 L 1186.8 248 L 1180 246.2 L 1173 246.6 L 1165.8 249.2 L 1159.8 249.6 L 1154.9 248 L 1148.9 248.1 L 1141.8 250 L 1136 249.2 L 1131.8 245.6 L 1130.2 240.4 L 1131.8 230.2" />
<path class="river" d="M 536.9 1166.9 L 538.1 1157.3 L 536.3 1152.5 L 531.9 1149.1 L 528.8 1145.5 L 526.1 1139.5 L 525 1130.1 L 519.9 1121.3 L 510.2 1109.8 L 504.1 1096 L 501.4 1079.7 L 497.6 1073.5 L 493.5 1071.4 L 490.2 1069.8 L 488.2 1066.7 L 478.7 1063.5 L 461.7 1060.1 L 450.9 1055.7 L 446.2 1050.5 L 440.9 1047.4 L 435.2 1046.3 L 429.7 1044.5 L 424.4 1042 L 421.3 1039.4 L 420.1 1036.9 L 414.7 1034 L 400.4 1029.1 L 389 1025.3 L 383.7 1022.8 L 380.6 1020.2 L 378 1019.2 L 375.9 1020 L 372.7 1019 L 368.4 1016.4 L 363.6 1015.3 L 358.4 1015.5 L 354.4 1014.7 L 351.5 1012.8 L 349.3 1013.5 L 348.2 1012.8 L 346.5 1010.5 L 344.3 1009.8 L 341.2 1010.1 L 338.3 1011.4 L 337 1013.9 L 334.7 1014.5" />
<path class="river" d="M 221.2 806.1 L 222.5 825.8 L 215.6 845.8 L 200.9 872.6 L 193.6 893.7 L 193.6 909.2 L 192.8 918.9 L 190.4 924.9 L 184.7 940.9 L 183.8 954.6 L 185.9 971.4 L 183.9 987.4 L 177.8 1002.5 L 175.3 1014.3 L 176.8 1028.6" />
<path class="river" d="M 747 810.4 L 738.8 807.7 L 734.5 807.6 L 731.4 809.1 L 728.7 808.3 L 726.4 805.2 L 723.6 803.4 L 720.4 802.8 L 715 803.9 L 707.5 806.6 L 700.2 807.9 L 693 808 L 686.2 805.2 L 679.8 799.5 L 675.5 797 L 673.3 797.6 L 672.5 800.3 L 673 805 L 671.6 809.3 L 668.2 813.2 L 665.6 814.6 L 663.9 813.6 L 661.1 813.6 L 657.2 814.7 L 654.8 811.1 L 653.9 802.8 L 652.2 796.3 L 649.8 791.7 L 647.6 789.1 L 645.4 788.5 L 640.4 791.6 L 628.6 801.5 L 623.2 806 L 619.1 806.6 L 614.5 804.8 L 610.3 804.1 L 606.5 804.7 L 603.5 807.2 L 601.2 811.8 L 598.4 813.2 L 594.9 811.4 L 590.8 811.5 L 586.2 813.4 L 580.8 814.2 L 574.7 813.9 L 570.1 815.2 L 567.1 818.1 L 563.7 819.9 L 559.9 820.7 L 557.2 819.8 L 555.6 817.5 L 549.8 816.4 L 539.8 816.7 L 529.9 813.7 L 520.2 807.5 L 509.9 804.5 L 499.1 804.5 L 491.6 802.6 L 487.2 798.7 L 481.7 797.3 L 474.8 798.4 L 468.8 797.8 L 463.5 795.5 L 455.6 795.2 L 445.1 797 L 435.5 793.9 L 422.6 782.1 L 395.5 775.8 L 383.9 774.4 L 376 776.3 L 366.1 772.8 L 361.8 772.2 L 359.8 773.3 L 354.3 771.7 L 345.4 767.4 L 336.8 765.6 L 329.1 766.2 L 324.4 764.8 L 320.7 760.7 L 315.8 753 L 307 745.5 L 295.2 739.4 L 287.8 734.9 L 284.9 731.8 L 278.5 730.1 L 268.8 729.8 L 259.4 732.8 L 246 742.2 L 233.6 761.6 L 226.6 769 L 221.1 770.9 L 219.7 775.6 L 222.4 783 L 223.1 791.6 L 221.2 806.1" />
<path class="river" d="M 973.7 930.7 L 980 957.1 L 983.8 968.7 L 989.2 977.2 M 951.8 918 L 955.4 919.6 M 893.3 884.3 L 894.5 883.9 L 913.6 877.4 L 924 876.9 L 931.3 880.5 L 936.6 882 L 939.7 881.6 L 942.3 883.9 L 944.2 889.2 L 945.1 894.2 L 944.8 899 L 941.6 903.4 L 935.3 907.4 L 932.2 910.3 L 932.2 912.1 L 934 912.7 L 939.4 912" />
<g class="city"><circle cx="954.7437404706989" cy="179.08099202227854" r="5" /><text x="966.7437404706989" y="183.08099202227854">Khartoum</text></g>
<g class="city"><circle cx="1279.3041235697751" cy="524.1147333580811" r="5" /><text x="1291.3041235697751" y="528.1147333580811">Addis Ababa</text></g>
<g class="city"><circle cx="951.9954270797621" cy="177.67780514475845" r="5" /><text x="963.9954270797621" y="181.67780514475845">Omdurman</text></g>
<g class="city"><circle cx="957.3306639465486" cy="982.9469462523384" r="5" /><text x="969.3306639465486" y="986.9469462523384">Kampala</text></g>
<g class="city"><circle cx="219.1749873781819" cy="769.8638834737258" r="5" /><text x="231.1749873781819" y="773.8638834737258">Bangui</text></g>
<g class="city"><circle cx="1291.688141303945" cy="192.59252834130314" r="5" /><text x="1303.688141303945" y="196.59252834130314">Asmara</text></g>
<g class="city"><circle cx="569.8381100183137" cy="972.3454817094635" r="5" /><text x="581.8381100183137" y="976.3454817094635">Kisangani</text></g>
<g class="city"><circle cx="1040.9533271936905" cy="942.320219763822" r="5" /><text x="1052.9533271936905" y="946.320219763822">Mbale</text></g>
<text class="map-title" x="80" y="105">South Sudan Physical Study Map</text>
<text class="map-subtitle" x="80" y="145">Landmark: Bandilo National Park | Study terrain and water systems</text>
  <text class="footer" x="80" y="1036">Made with Natural Earth. Free vector and raster map data @ naturalearthdata.com.</text>
</svg>
