<?xml version="1.0" encoding="UTF-8"?>
<svg xmlns="http://www.w3.org/2000/svg" width="1600" height="1100" viewBox="0 0 1600 1100" role="img" aria-labelledby="title desc">
  <title id="title">South Sudan Political Study Map</title>
  <desc id="desc">Made with Natural Earth. Free vector and raster map data @ naturalearthdata.com.</desc>
  <defs>
    <linearGradient id="terrain" x1="0" x2="1" y1="0" y2="1">
      <stop offset="0%" stop-color="#6c8c53" />
      <stop offset="42%" stop-color="#d5c487" />
      <stop offset="72%" stop-color="#b88b5f" />
      <stop offset="100%" stop-color="#f1f5ee" />
    </linearGradient>
    <filter id="softShadow" x="-10%" y="-10%" width="120%" height="120%">
      <feDropShadow dx="0" dy="10" stdDeviation="12" flood-color="#0f172a" flood-opacity="0.16" />
    </filter>
    <style>
      .neighbor { fill: #ffffff; stroke: #94a3b8; stroke-width: 1.2; opacity: 0.72; }
      .country { fill: #f7f1df; stroke: #1f2937; stroke-width: 4; filter: url(#softShadow); }
      .admin1 { fill: none; stroke: #64748b; stroke-width: 1.1; stroke-dasharray: 6 7; opacity: 0.75; }
      .river { fill: none; stroke: #1d9bd1; stroke-width: 3; stroke-linecap: round; opacity: 0.88; }
      .lake { fill: #8ed1ea; stroke: #0ea5e9; stroke-width: 1.5; opacity: 0.8; }
      .city circle { fill: #ef4444; stroke: #ffffff; stroke-width: 2; }
      .city text, .terrain-label { fill: #172033; font: 700 24px system-ui, sans-serif; paint-order: stroke; stroke: #ffffff; stroke-width: 5; stroke-linejoin: round; }
      .map-title { fill: #0f172a; font: 800 46px system-ui, sans-serif; }
      .map-subtitle { fill: #475569; font: 600 24px system-ui, sans-serif; }
      .footer { fill: #64748b; font: 500 18px system-ui, sans-serif; }
    </style>
  </defs>
  <rect width="100%" height="100%" fill="#eaf3f8" />
  <rect x="40" y="40" width="1520" height="1020" rx="32" fill="#ffffff" opacity="0.54" />
  <path class="neighbor" d="M 786.7 1236.6 L 796.2 1285 L 790.9 1312.4 L 801.4 1342.9 L 832 1372.4 L 860.4 1438.7 L 860.4 1438.7 L 839.7 1433.4 L 769 1442.3 L 754.9 1448.5 L 739.9 1482.1 L 751.6 1505.4 L 742.3 1567.7 L 735.8 1620.5 L 750 1629.9 L 786.8 1650.4 L 801.2 1640.8 L 805.6 1697.6 L 765.4 1697.1 L 743.7 1668.2 L 724.3 1645.7 L 684 1638.4 L 672.2 1610.8 L 640 1627.4 L 597.9 1620.1 L 580.3 1596.2 L 546.8 1591.3 L 522.2 1592.6 L 519.2 1576.2 L 501 1574.9 L 477 1571.8 L 444.4 1579.7 L 421.5 1578.4 L 408.5 1583.2 L 411.3 1520.6 L 393.8 1501 L 389.9 1468.7 L 397.7 1436.9 L 387 1416.6 L 386 1383.5 L 322.2 1384 L 326.7 1365 L 299.9 1365.2 L 297.1 1374.3 L 264.4 1376.4 L 251.2 1407 L 243.3 1420.2 L 214.2 1412.8 L 196.9 1420.2 L 162 1424.4 L 141.9 1396.9 L 129.8 1379.9 L 114.7 1348.3 L 101.7 1309.1 L -53.6 1308.4 L -72.1 1314.7 L -87.3 1313.7 L -109.1 1320.8 L -116.4 1304.5 L -103.1 1298.9 L -101.4 1276 L -92.8 1262.5 L -73.6 1251.4 L -59.8 1256.7 L -41.8 1236.6 L -13.1 1237.1 L -9.8 1252 L 9.9 1261.3 L 40.9 1228.4 L 71.5 1202.6 L 84.8 1185.8 L 83.1 1142.5 L 105.9 1091.4 L 130.1 1064.2 L 164.7 1038.9 L 170.8 1022.1 L 172.1 1002.8 L 180.7 984.5 L 177.9 954.7 L 184.5 908 L 194.8 875.2 L 210.5 847 L 213.6 815.3 L 218.4 778.5 L 238.9 751.8 L 267 734.9 L 310.4 752.8 L 343.9 772.2 L 382.4 777.4 L 421.7 787.6 L 437.4 755.8 L 444.6 751.8 L 468.6 757.1 L 527.2 730.8 L 548 741.9 L 565 740.4 L 572.9 727.6 L 592.5 723 L 632.1 728.6 L 665.9 729.8 L 683.2 724.2 L 715.1 767.7 L 738.8 774 L 752.8 765.2 L 777.2 768.7 L 806.5 757.5 L 819 780 L 865.3 815 L 865.3 815 L 862.2 876.5 L 883.3 883.7 L 866.3 902.4 L 846.1 916.3 L 826 943.8 L 814.9 968.3 L 811.9 1010.5 L 799.8 1030.6 L 799.3 1070.3 L 784.2 1085 L 782.2 1116.3 L 775 1120.4 L 770.1 1149.2 L 783.4 1173.1 L 786.7 1236.6 Z" />
<path class="neighbor" d="M 1431.3 1088.3 L 1400.1 1044.9 L 1399.5 853.1 L 1445.5 793.4 L 1459.9 776.8 L 1493.6 775.9 L 1540.5 738.8 L 1609.1 736.4 L 1757.9 578.5 L 1794.6 534.5 L 1818.3 502.2 L 1818.3 474.7 L 1818.3 421.6 L 1818.5 399.9 L 1818.9 399.1 L 1818.9 399.1 L 1835.7 398 L 1859.9 390.2 L 1887.8 384.9 L 1912.8 366.9 L 1932.7 366.8 L 1933.9 381.3 L 1929 411.9 L 1929.2 439.6 L 1918.1 458.6 L 1903.3 515.5 L 1878 574.3 L 1845.4 641.5 L 1800.2 718.7 L 1755.3 777.6 L 1693.4 849.4 L 1640.7 892 L 1562 944.3 L 1512.9 984.3 L 1455.3 1048.1 L 1443.2 1075.9 L 1431.3 1088.3 Z" />
<path class="neighbor" d="M 1305.8 1245.9 L 1230.3 1193.3 L 1226.7 1162.7 L 1035.8 1055.5 L 1026.9 1049.7 L 1026.4 993.9 L 1041.5 972.6 L 1067.4 937.8 L 1086.5 899.4 L 1063.4 839 L 1057.2 812.6 L 1032.3 776 L 1064.7 744.6 L 1100.3 709.9 L 1127.7 718.7 L 1127.7 748.3 L 1145.7 765.6 L 1182.3 765.6 L 1248.9 810.3 L 1265.6 810.8 L 1277.9 809.4 L 1289.5 815.4 L 1324.6 819.6 L 1340.2 797.6 L 1388.3 775.6 L 1409.5 793.4 L 1445.5 793.4 L 1399.5 853.1 L 1400.1 1044.9 L 1431.3 1088.3 L 1394.4 1109.3 L 1381.4 1131.3 L 1361.7 1135.2 L 1354.2 1172.3 L 1337.3 1193.5 L 1327 1228.5 L 1305.8 1245.9 Z" />
<path class="neighbor" d="M 535.5 566.5 L 495.4 543.5 L 477.1 528.4 L 473.8 512 L 482.3 490.1 L 482.2 468.6 L 451.8 435.7 L 445.8 413.2 L 446.5 400.4 L 427.1 384.9 L 426.5 354.4 L 415.5 334 L 397 337.1 L 402.3 317.8 L 416 295.8 L 410 274 L 427.3 257.9 L 416.3 245.6 L 430.2 213.1 L 454.3 174.3 L 499.7 178 L 497.1 -31 L 497.7 -53.1 L 558.3 -53.2 L 558.3 -158.3 L 769.9 -158.3 L 974.1 -158.3 L 1182.9 -158.3 L 1199.9 -106.7 L 1188.3 -97.1 L 1196 -42.9 L 1215.3 19.9 L 1235.3 32.9 L 1264.1 52.3 L 1237.5 82.4 L 1198.7 91 L 1182.2 107.1 L 1177 142.1 L 1154.3 219.5 L 1159.9 240.6 L 1151.5 285.8 L 1130.1 337.6 L 1098.4 363.7 L 1075.8 403.9 L 1070.5 425.4 L 1045.6 440.2 L 1030 495.3 L 1030.7 542.6 L 1030.1 501.5 L 1022.8 500.5 L 1023.7 474.3 L 1017.4 456.2 L 990.3 435.4 L 983.9 397.5 L 990.3 358.6 L 965.9 355 L 962.2 366.7 L 930.6 369.5 L 943.3 384.8 L 947.8 416.4 L 918.9 445.4 L 892.7 483.3 L 865.6 488.7 L 821.3 458 L 801.4 468.9 L 796 484.2 L 768.9 494.2 L 767.1 505 L 714.6 505 L 707.4 494.2 L 669.5 492.4 L 650.5 501.4 L 636 496.9 L 608.9 466.2 L 599.9 451.7 L 561.9 458.9 L 547.5 483.3 L 533.9 530.3 L 515.8 540.3 L 499.7 546 L 535.5 566.5 Z" />
<path class="neighbor" d="M 497.1 -31 L 499.7 178 L 454.3 174.3 L 430.2 213.1 L 416.3 245.6 L 427.3 257.9 L 410 274 L 416 295.8 L 402.3 317.8 L 397 337.1 L 415.5 334 L 426.5 354.4 L 427.1 384.9 L 446.5 400.4 L 445.8 413.2 L 412.5 422.2 L 385.8 443.5 L 347.7 500.9 L 298.2 525.3 L 247.4 522 L 232.5 526.9 L 237.7 545.4 L 210.3 563.8 L 187.9 584.4 L 121.7 604.5 L 108.5 592.6 L 99.8 591.5 L 90.1 605.1 L 46.6 609 L 54.8 594.8 L 38.2 558.5 L 30.8 536.7 L 7.9 527.8 L -23.2 497 L -11.7 472.2 L 12.2 477.5 L 27.1 473.7 L 56.5 474.3 L 27.8 426.4 L 29.8 391.4 L 26.3 356.5 L 5.3 322.8 L 10.6 298 L -23.2 296.8 L -23 263 L -45 243.5 L -22.2 174.1 L 44.9 124.5 L 47.7 56 L 68 -50.8 L 79.4 -73.5 L 57.5 -91.5 L 56.7 -108.2 L 37 -121.9 L 24 -203.8 L 77.2 -232.5 L 287.1 -131.8 L 497.1 -31 Z" />
<path class="neighbor" d="M 683.2 724.2 L 665.9 729.8 L 632.1 728.6 L 592.5 723 L 572.9 727.6 L 565 740.4 L 548 741.9 L 527.2 730.8 L 468.6 757.1 L 444.6 751.8 L 437.4 755.8 L 421.7 787.6 L 382.4 777.4 L 343.9 772.2 L 310.4 752.8 L 267 734.9 L 238.9 751.8 L 218.4 778.5 L 213.6 815.3 L 179.8 812.3 L 144.2 803.5 L 112.8 831.4 L 85.2 880.4 L 79.6 865.1 L 77.3 841.1 L 53.2 824.2 L 33.8 797 L 29.3 778.1 L 4.4 750.6 L 8.7 734.9 L 3.4 712.7 L 7.5 671.9 L 20.1 662.4 L 46.6 609 L 90.1 605.1 L 99.8 591.5 L 108.5 592.6 L 121.7 604.5 L 187.9 584.4 L 210.3 563.8 L 237.7 545.4 L 232.5 526.9 L 247.4 522 L 298.2 525.3 L 347.7 500.9 L 385.8 443.5 L 412.5 422.2 L 445.8 413.2 L 451.8 435.7 L 482.2 468.6 L 482.3 490.1 L 473.8 512 L 477.1 528.4 L 495.4 543.5 L 535.5 566.5 L 564.3 587.8 L 564.8 604.9 L 600.2 632.3 L 622.1 655.1 L 635.4 686.7 L 674.8 707.5 L 683.2 724.2 Z" />
<path class="neighbor" d="M 213.6 815.3 L 210.5 847 L 194.8 875.2 L 184.5 908 L 177.9 954.7 L 180.7 984.5 L 172.1 1002.8 L 170.8 1022.1 L 164.7 1038.9 L 130.1 1064.2 L 105.9 1091.4 L 83.1 1142.5 L 84.8 1185.8 L 71.5 1202.6 L 40.9 1228.4 L 9.9 1261.3 L -9.8 1252 L -13.1 1237.1 L -41.8 1236.6 L -59.8 1256.7 L -73.6 1251.4 L -93.4 1233.3 L -109.3 1242.2 L -130.5 1264.9 L -173.7 1209.2 L -133.7 1180.1 L -153.5 1145.3 L -135.5 1132.1 L -100 1125.6 L -95.8 1102.3 L -67.6 1127.6 L -21.2 1129.8 L -5 1104.9 L 1.6 1069.9 L -4.1 1028.8 L -29 997.7 L -6.2 936.7 L -19.4 926.3 L -58.5 930.5 L -73.2 903.3 L -69.4 880.4 L -3 882.4 L 39.6 896.3 L 81.4 908.8 L 85.2 880.4 L 112.8 831.4 L 144.2 803.5 L 179.8 812.3 L 213.6 815.3 Z" />
<path class="neighbor" d="M 1159.9 240.6 L 1154.3 219.5 L 1177 142.1 L 1182.2 107.1 L 1198.7 91 L 1237.5 82.4 L 1264.1 52.3 L 1294.7 113.3 L 1309.2 161.6 L 1338.1 187.2 L 1409.9 236.9 L 1439.2 266.9 L 1467.7 297.3 L 1484.1 315.4 L 1510 331.2 L 1494.2 344.1 L 1471.6 339.5 L 1453.6 322.5 L 1432 291.6 L 1408.6 274.7 L 1395 256.5 L 1349.2 235.4 L 1313.1 234.8 L 1300.4 223.8 L 1269.6 236.2 L 1237.6 212.3 L 1221.2 251.6 L 1159.9 240.6 Z" />
<path class="neighbor" d="M 1082.3 -545.6 L 1140.9 -537.2 L 1163.7 -553.4 L 1176.3 -572.3 L 1216.4 -579.6 L 1225.1 -597.3 L 1242.5 -606.2 L 1190 -658.8 L 1295.5 -685.3 L 1305.5 -693.2 L 1368.9 -678.9 L 1447.3 -642.1 L 1595.7 -536.2 L 1693.6 -532 L 1740.5 -526.9 L 1753.6 -501.9 L 1790.8 -503.2 L 1811.5 -457.8 L 1837.4 -445.8 L 1846.4 -427.3 L 1882.2 -405.2 L 1885.4 -383.5 L 1880.2 -365.9 L 1886.8 -348.3 L 1902 -333.5 L 1909 -316.2 L 1916.9 -303.3 L 1932.8 -292.9 L 1947.4 -296.6 L 1957.4 -276.5 L 1959.4 -264.4 L 1979.5 -211 L 2137.8 -184.5 L 2148.4 -195.6 L 2172.5 -158.3 L 2137.4 -53.1 L 1979.5 -0.4 L 1827.7 19.8 L 1778.6 43.5 L 1740.9 98.7 L 1716.3 107.5 L 1703.1 89.9 L 1683 92.6 L 1632.1 87.3 L 1622.4 82.1 L 1561.7 83.3 L 1547.4 88 L 1525.8 74.3 L 1511.8 100.2 L 1517.2 122.4 L 1494.1 139.2 L 1487.3 116.7 L 1471.4 100.9 L 1467.4 79.9 L 1440.2 61 L 1412.1 16.9 L 1397.3 -26 L 1360.9 -62.2 L 1337.4 -70.9 L 1302.5 -121.1 L 1296.4 -157.6 L 1298.7 -188.8 L 1268.5 -247.2 L 1243.8 -267.8 L 1215.4 -278.6 L 1198.1 -308.8 L 1200.9 -320.7 L 1186.3 -348 L 1170.9 -359.7 L 1150.4 -398.9 L 1118.3 -441.3 L 1091.5 -477.5 L 1065.3 -477.2 L 1073.5 -506.1 L 1075.8 -524.6 L 1082.3 -545.6 Z" />
<path class="neighbor" d="M 1757.9 578.5 L 1609.1 736.4 L 1540.5 738.8 L 1493.6 775.9 L 1459.9 776.8 L 1445.5 793.4 L 1409.5 793.4 L 1388.3 775.6 L 1340.2 797.6 L 1324.6 819.6 L 1289.5 815.4 L 1277.9 809.4 L 1265.6 810.8 L 1248.9 810.3 L 1182.3 765.6 L 1145.7 765.6 L 1127.7 748.3 L 1127.7 718.7 L 1100.3 709.9 L 1069.2 652.6 L 1045.2 640.4 L 1036 619.4 L 1009.3 593.7 L 977 589.9 L 994.9 559.9 L 1022.8 558.7 L 1030.7 542.6 L 1030 495.3 L 1045.6 440.2 L 1070.5 425.4 L 1075.8 403.9 L 1098.4 363.7 L 1130.1 337.6 L 1151.5 285.8 L 1159.9 240.6 L 1221.2 251.6 L 1237.6 212.3 L 1269.6 236.2 L 1300.4 223.8 L 1313.1 234.8 L 1349.2 235.4 L 1395 256.5 L 1408.6 274.7 L 1432 291.6 L 1453.6 322.5 L 1471.6 339.5 L 1453.1 362.8 L 1435.3 387.5 L 1439.4 402 L 1440.2 418 L 1469.6 418.9 L 1482.3 415.2 L 1494 424.5 L 1482.5 443.2 L 1502 472.2 L 1521.4 497.5 L 1541.5 516.3 L 1713.6 578.8 L 1757.9 578.5 Z" />
<path class="neighbor" d="M 1026.9 1049.7 L 919.7 1053.8 L 862 1053.1 L 843.5 1059.4 L 812.1 1075.7 L 799.3 1070.3 L 799.8 1030.6 L 811.9 1010.5 L 814.9 968.3 L 826 943.8 L 846.1 916.3 L 866.3 902.4 L 883.3 883.7 L 862.2 876.5 L 865.3 815 L 865.3 815 L 887 800.6 L 920.5 812.4 L 962.9 800.1 L 999.9 800.2 L 1032.3 776 L 1057.2 812.6 L 1063.4 839 L 1086.5 899.4 L 1067.4 937.8 L 1041.5 972.6 L 1026.4 993.9 L 1026.9 1049.7 Z" />

<path class="country" d="M 865.3 815 L 819 780 L 806.5 757.5 L 777.2 768.7 L 752.8 765.2 L 738.8 774 L 715.1 767.7 L 683.2 724.2 L 674.8 707.5 L 635.4 686.7 L 622.1 655.1 L 600.2 632.3 L 564.8 604.9 L 564.3 587.8 L 535.5 566.5 L 499.7 546 L 515.8 540.3 L 533.9 530.3 L 547.5 483.3 L 561.9 458.9 L 599.9 451.7 L 608.9 466.2 L 636 496.9 L 650.5 501.4 L 669.5 492.4 L 707.4 494.2 L 714.6 505 L 767.1 505 L 768.9 494.2 L 796 484.2 L 801.4 468.9 L 821.3 458 L 865.6 488.7 L 892.7 483.3 L 918.9 445.4 L 947.8 416.4 L 943.3 384.8 L 930.6 369.5 L 962.2 366.7 L 965.9 355 L 990.3 358.6 L 983.9 397.5 L 990.3 435.4 L 1017.4 456.2 L 1023.7 474.3 L 1022.8 500.5 L 1030.1 501.5 L 1030.7 542.6 L 1022.8 558.7 L 994.9 559.9 L 977 589.9 L 1009.3 593.7 L 1036 619.4 L 1045.2 640.4 L 1069.2 652.6 L 1100.3 709.9 L 1064.7 744.6 L 1032.3 776 L 999.9 800.2 L 962.9 800.1 L 920.5 812.4 L 887 800.6 L 865.3 815 Z" />


<g class="city"><circle cx="954.7437404706989" cy="179.08099202227854" r="5" /><text x="966.7437404706989" y="183.08099202227854">Khartoum</text></g>
<g class="city"><circle cx="1279.3041235697751" cy="524.1147333580811" r="5" /><text x="1291.3041235697751" y="528.1147333580811">Addis Ababa</text></g>
<g class="city"><circle cx="951.9954270797621" cy="177.67780514475845" r="5" /><text x="963.9954270797621" y="181.67780514475845">Omdurman</text></g>
<g class="city"><circle cx="957.3306639465486" cy="982.9469462523384" r="5" /><text x="969.3306639465486" y="986.9469462523384">Kampala</text></g>
<g class="city"><circle cx="219.1749873781819" cy="769.8638834737258" r="5" /><text x="231.1749873781819" y="773.8638834737258">Bangui</text></g>
<g class="city"><circle cx="1291.688141303945" cy="192.59252834130314" r="5" /><text x="1303.688141303945" y="196.59252834130314">Asmara</text></g>
<g class="city"><circle cx="569.8381100183137" cy="972.3454817094635" r="5" /><text x="581.8381100183137" y="976.3454817094635">Kisangani</text></g>
<g class="city"><circle cx="1040.9533271936905" cy="942.320219763822" r="5" /><text x="1052.9533271936905" y="946.320219763822">Mbale</text></g>
<text class="map-title" x="80" y="105">South Sudan Political Study Map</text>
<text class="map-subtitle" x="80" y="145">Capital: Juba | Continent: Africa</text>
  <text class="footer" x="80" y="1036">Made with Natural Earth. Free vector and raster map data @ naturalearthdata.com.</text>
</svg>
