<?xml version="1.0" encoding="UTF-8"?>
<svg xmlns="http://www.w3.org/2000/svg" width="1600" height="1100" viewBox="0 0 1600 1100" role="img" aria-labelledby="title desc">
  <title id="title">El Salvador Physical Study Map</title>
  <desc id="desc">Made with Natural Earth. Free vector and raster map data @ naturalearthdata.com.</desc>
  <defs>
    <linearGradient id="terrain" x1="0" x2="1" y1="0" y2="1">
      <stop offset="0%" stop-color="#6c8c53" />
      <stop offset="42%" stop-color="#d5c487" />
      <stop offset="72%" stop-color="#b88b5f" />
      <stop offset="100%" stop-color="#f1f5ee" />
    </linearGradient>
    <filter id="softShadow" x="-10%" y="-10%" width="120%" height="120%">
      <feDropShadow dx="0" dy="10" stdDeviation="12" flood-color="#0f172a" flood-opacity="0.16" />
    </filter>
    <style>
      .neighbor { fill: #ffffff; stroke: #94a3b8; stroke-width: 1.2; opacity: 0.72; }
      .country { fill: url(#terrain); stroke: #1f2937; stroke-width: 4; filter: url(#softShadow); }
      .admin1 { fill: none; stroke: #64748b; stroke-width: 1.1; stroke-dasharray: 6 7; opacity: 0.75; }
      .river { fill: none; stroke: #1d9bd1; stroke-width: 3; stroke-linecap: round; opacity: 0.88; }
      .lake { fill: #8ed1ea; stroke: #0ea5e9; stroke-width: 1.5; opacity: 0.8; }
      .city circle { fill: #ef4444; stroke: #ffffff; stroke-width: 2; }
      .city text, .terrain-label { fill: #172033; font: 700 24px system-ui, sans-serif; paint-order: stroke; stroke: #ffffff; stroke-width: 5; stroke-linejoin: round; }
      .map-title { fill: #0f172a; font: 800 46px system-ui, sans-serif; }
      .map-subtitle { fill: #475569; font: 600 24px system-ui, sans-serif; }
      .footer { fill: #64748b; font: 500 18px system-ui, sans-serif; }
    </style>
  </defs>
  <rect width="100%" height="100%" fill="#d8edf0" />
  <rect x="40" y="40" width="1520" height="1020" rx="32" fill="#ffffff" opacity="0.54" />
  <path class="neighbor" d="M -5100.2 -3335.2 L -4862.6 -3351.3 L -4597 -3374 L -4616.6 -3333.1 L -4300.9 -3231.4 L -3823.9 -3084.2 L -3408.1 -3085.7 L -3242.2 -3085.7 L -3241.8 -3172 L -2879.6 -3171.9 L -2803.3 -3097.8 L -2696.4 -3031.7 L -2572.2 -2939.7 L -2502.8 -2830.5 L -2450.8 -2715.6 L -2342.7 -2652.4 L -2169.2 -2589.7 L -2037.5 -2754.9 L -1866.5 -2758.9 L -1719.1 -2675.6 L -1614.2 -2532.5 L -1541.9 -2409.9 L -1418.6 -2290.7 L -1372.6 -2144.4 L -1314 -2046.1 L -1150.9 -1981.3 L -1002.5 -1935.3 L -920.9 -1941.5 L -1002.1 -1758 L -1038.6 -1607.5 L -1053.9 -1327.3 L -1074 -1225.2 L -1037.8 -1111.2 L -973 -1009.2 L -931.2 -847 L -792.4 -691.4 L -743.6 -572.1 L -661.8 -469.1 L -439.8 -413.6 L -353.4 -326.2 L -170 -384.6 L -10.6 -405.7 L 146 -443.3 L 277.6 -479.2 L 410.6 -564.5 L 460.4 -686.4 L 477.6 -862.1 L 513.7 -923.2 L 655.4 -978 L 876.5 -1026.5 L 1061.6 -1019.2 L 1188.4 -1036.9 L 1238.6 -992.6 L 1231.5 -891.9 L 1119.1 -767.6 L 1069.4 -640.3 L 1107.9 -603.9 L 1076.6 -513.5 L 1024.2 -350.3 L 971.2 -404 L 927.4 -400.5 L 887.7 -397.8 L 812.8 -271.6 L 774.8 -296.3 L 749.5 -286.7 L 751.2 -255.9 L 557.8 -258.2 L 362.6 -257.8 L 362.4 -140.1 L 268 -139.6 L 345.8 -69.9 L 423.2 -21.6 L 446.4 23.8 L 480.2 36.4 L 474.9 107.6 L 206.5 108.3 L 105.9 278.7 L 135.6 317.8 L 111.3 366.8 L 106.2 427.7 L -130.4 202.6 L -238.3 134.7 L -409 80.2 L -525.8 95.4 L -693.7 174 L -799.1 194.6 L -946.8 139.5 L -1103.5 99.8 L -1298.9 3.8 L -1455.6 -25.5 L -1692.4 -122.7 L -1867.3 -222.6 L -1920.1 -278.4 L -2037.1 -290.9 L -2250.9 -357.1 L -2338 -452.5 L -2562.7 -571.2 L -2667.5 -703 L -2717.3 -804.9 L -2647.5 -825.3 L -2669.1 -885 L -2621 -939.2 L -2620 -1011.5 L -2690.5 -1105.4 L -2709.4 -1188.6 L -2779.5 -1294.1 L -2963.7 -1502 L -3174 -1665.3 L -3275.7 -1795.7 L -3455.1 -1881 L -3493.6 -1932.1 L -3461.7 -2061.3 L -3568.3 -2110.1 L -3691.7 -2211.7 L -3743.9 -2357.6 L -3856.3 -2374.6 L -3977.7 -2484.7 L -4075.7 -2586.5 L -4084.8 -2651.8 L -4197.3 -2809.5 L -4271.3 -2969.6 L -4268.2 -3049.9 L -4419.4 -3132.9 L -4489.2 -3123.7 L -4608.5 -3181.3 L -4642 -3096.4 L -4607.4 -2996.1 L -4587.1 -2839.1 L -4515.4 -2752.9 L -4360.2 -2608.9 L -4325.8 -2559.6 L -4294 -2544.7 L -4266.4 -2472.9 L -4229.2 -2475.8 L -4187.2 -2340.9 L -4123.8 -2287.7 L -4079.2 -2213.7 L -3947.8 -2107.3 L -3878.4 -1912.8 L -3816.4 -1821.2 L -3758.3 -1723.2 L -3746.8 -1613 L -3646 -1606.1 L -3562.1 -1511.1 L -3486.3 -1417.7 L -3491.4 -1380.2 L -3579.3 -1303.4 L -3616.4 -1304.5 L -3671.5 -1431.6 L -3808.4 -1550.7 L -3959.1 -1651.8 L -4066.1 -1704.9 L -4059.2 -1857.9 L -4090.9 -1971.2 L -4190.5 -2036 L -4334.3 -2129.3 L -4361.9 -2102.4 L -4414.6 -2156.9 L -4543.6 -2207.5 L -4666.8 -2328.9 L -4651.6 -2344.7 L -4565.4 -2332.8 L -4487.9 -2410.9 L -4480.1 -2505.3 L -4641 -2654.4 L -4763.7 -2712.3 L -4840.8 -2842.9 L -4918.4 -2980 L -5015.2 -3147.1 L -5100.2 -3335.2 Z" />
<path class="neighbor" d="M 1898.5 1180.5 L 1848.5 1224.8 L 1786.8 1210.8 L 1752.1 1167.8 L 1685.8 1150.4 L 1637.7 1177.6 L 1500 1122.2 L 1468.5 1149.2 L 1396.1 1083.3 L 1298.4 998.9 L 1252.4 928.5 L 1164.2 862.7 L 1059.5 768.3 L 1082.7 736 L 1117.2 767.4 L 1133.1 752.7 L 1198.1 744.1 L 1224.2 696.3 L 1254.9 694.5 L 1250.5 591.6 L 1299.5 586.7 L 1343.1 588.2 L 1388.2 532.4 L 1449.9 574.7 L 1471.4 548.7 L 1509.9 523.9 L 1582.9 466.3 L 1586.3 423.2 L 1606.4 425.1 L 1633.2 375.1 L 1655.1 369 L 1690.7 401 L 1732.6 410.4 L 1778.8 383.8 L 1831.6 383.7 L 1904.2 356.4 L 1933.2 327.9 L 2004.8 332.2 L 1986.9 352.2 L 1976.2 398.9 L 1997.5 475.4 L 1949.4 546.6 L 1926.9 630.8 L 1920.2 722.9 L 1931.4 776.8 L 1936.7 870.9 L 1904.7 891.5 L 1885.2 980.9 L 1899.5 1036.1 L 1856.8 1089.6 L 1866.5 1146.1 L 1898.5 1180.5 Z" />
<path class="neighbor" d="M 2004.8 332.2 L 1933.2 327.9 L 1904.2 356.4 L 1831.6 383.7 L 1778.8 383.8 L 1732.6 410.4 L 1690.7 401 L 1655.1 369 L 1633.2 375.1 L 1606.4 425.1 L 1586.3 423.2 L 1582.9 466.3 L 1509.9 523.9 L 1471.4 548.7 L 1449.9 574.7 L 1388.2 532.4 L 1343.1 588.2 L 1299.5 586.7 L 1250.5 591.6 L 1254.9 694.5 L 1224.2 696.3 L 1198.1 744.1 L 1133.1 752.7 L 1096.9 687.3 L 1033.4 669.1 L 1048 585.3 L 1019.5 562.7 L 976.5 547.8 L 884.8 572.7 L 877 544.5 L 813.9 511 L 768.8 469.3 L 707.2 451.7 L 750.7 398.6 L 734 357.6 L 748.7 317.4 L 847.9 258.9 L 943.1 179.1 L 964.8 187.3 L 1010.7 150.5 L 1070.5 147.5 L 1089.9 164.6 L 1122.4 154.2 L 1219.5 173.1 L 1316.2 167.6 L 1383.4 144.5 L 1407.9 121.1 L 1474.6 131.9 L 1524.6 146.1 L 1579.3 141.2 L 1620.9 123 L 1716.4 152 L 1749.5 156.7 L 1813.4 195.7 L 1873.8 242.6 L 1949.8 274.6 L 2004.8 332.2 Z" />
<path class="neighbor" d="M 106.2 427.7 L 111.3 366.8 L 135.6 317.8 L 105.9 278.7 L 206.5 108.3 L 474.9 107.6 L 480.2 36.4 L 446.4 23.8 L 423.2 -21.6 L 345.8 -69.9 L 268 -139.6 L 362.4 -140.1 L 362.6 -257.8 L 557.8 -258.2 L 751.2 -255.9 L 749.6 -90.2 L 733.2 145.8 L 795.6 145.8 L 863.8 183.6 L 881.8 152.4 L 943.1 179.1 L 847.9 258.9 L 748.7 317.4 L 734 357.6 L 750.7 398.6 L 707.2 451.7 L 658.3 464.6 L 669.4 489.2 L 630.1 512.3 L 558.5 565.1 L 552 595.7 L 444.7 559.2 L 314.3 555.5 L 218.7 514 L 106.2 427.7 Z" />
<path class="neighbor" d="M 751.2 -255.9 L 749.5 -286.7 L 774.8 -296.3 L 812.8 -271.6 L 887.7 -397.8 L 927.4 -400.5 L 928.2 -369.9 L 967.8 -368.9 L 964.4 -312 L 930.5 -221.6 L 948.8 -189.2 L 926.9 -114.4 L 940.1 -94.4 L 915.9 11.2 L 874.8 66.7 L 837 73.3 L 795.6 145.8 L 733.2 145.8 L 749.6 -90.2 L 751.2 -255.9 Z" />
<path class="lake" d="M 806.7 182.4 L 796.9 189.6 L 787.3 198.2 L 781.6 211.5 L 776.4 229 L 764.6 238.5 L 742.9 244 L 731.3 245.5 L 723 248.7 L 718.1 251.5 L 712.9 245.2 L 704.7 235.2 L 699.9 229.3 L 703.4 225.6 L 714.7 222.2 L 729.5 216.6 L 742.8 211.1 L 759.1 205.4 L 787.2 187.5 L 810 171.5 L 814 171.3 L 812 176.3 L 806.7 182.4 L 806.7 182.4 L 806.7 182.4 L 806.7 182.4 Z" />
<path class="lake" d="M 1386.7 893.3 L 1387 901.8 L 1386.5 915.1 L 1371.8 919.9 L 1353.8 922.6 L 1342.6 921.4 L 1344.2 915.4 L 1346.3 908 L 1344.8 903.1 L 1340.9 900.1 L 1327.5 901.3 L 1310.2 901.3 L 1297.8 895.1 L 1288.8 886.8 L 1285.3 879.1 L 1285.2 873.8 L 1294.2 872.8 L 1310.5 869 L 1324.8 861.6 L 1337.5 858.2 L 1346.8 859.5 L 1359.1 878.5 L 1374.6 892.6 L 1383.5 889.8 L 1386.7 893.3 L 1386.7 893.3 L 1386.7 893.3 L 1386.7 893.3 Z" />
<path class="country" d="M 707.2 451.7 L 768.8 469.3 L 813.9 511 L 877 544.5 L 884.8 572.7 L 976.5 547.8 L 1019.5 562.7 L 1048 585.3 L 1033.4 669.1 L 1010.2 718.3 L 889.1 715.2 L 813.9 695.2 L 727.4 653.6 L 611.2 640.6 L 552 595.7 L 558.5 565.1 L 630.1 512.3 L 669.4 489.2 L 658.3 464.6 L 707.2 451.7 Z" />

<path class="river" d="M 304.7 327.6 L 307.7 298.4 L 299.6 281.8 L 301 274.8 L 309.3 271.8 L 353.1 266.9 L 387.7 271.2 L 430.5 282 L 455.9 284.2 L 469 271.5 L 471.1 265.3 L 460.3 258.8 L 436.8 252.2 L 430.6 242 L 441.6 228.2 L 444.1 214.6 L 438.2 201.2 L 428.6 193.2 L 415.4 190.6 L 406.8 185.6 L 402.9 178.1 L 406.9 160.4 L 419 132.5 L 438.8 118.2 L 466.2 117.4 L 478.6 107.4 L 475.8 88.2 L 477.9 67.5 L 484.8 48.7 L 484.8 40.4" />
<path class="river" d="M 1231.9 661.6 L 1274.7 642.2 L 1305.4 621.8 L 1322.4 616.5 L 1335.9 619.5 L 1349.5 629.9 L 1363.1 647.6 L 1377.5 653.1 L 1392.6 646.4 L 1407.5 643.9 L 1422 645.7 L 1438.4 628 L 1456.6 590.8 L 1465.3 566.3 L 1464.6 554.6 L 1474.9 544 L 1496.2 534.5 L 1517.7 517.6 L 1539.3 493.6 L 1558 479.4 L 1573.9 475.2 L 1579.9 468.6 L 1576.1 459.7 L 1577.4 447 L 1583.7 430.6 L 1592.9 421.1 L 1605 418.5 L 1609.8 413.3 L 1607.3 405.6 L 1609.6 397 L 1620.6 383 L 1646.6 371.1 L 1661.5 375.1 L 1673.9 391.2 L 1691.5 402.2 L 1714.1 407.9 L 1731.7 405.8 L 1744.2 395.7 L 1755.5 392.7 L 1765.5 396.7 L 1770.8 394.4 L 1771.3 386 L 1776.5 384 L 1786.3 388.6 L 1795 389.7 L 1802.6 387.5 L 1805.6 383.4 L 1807.1 379.2 L 1812.8 376 L 1832.3 379.1 L 1854.3 374.3 L 1878.6 361.3 L 1894.8 355.6 L 1902.8 357.1 L 1912.3 350.6 L 1923.4 336.1 L 1948.8 329.6 L 2002.7 332.7" />
<path class="river" d="M 5805.5 11581.1 L 5883.7 11589 L 5926.7 11596.6 L 5960.7 11606.6 L 6010.7 11630.2 L 6076.5 11667.5 L 6122 11688.2 L 6147.2 11692.2 L 6172.6 11701.7 L 6198.4 11716.5 L 6234.5 11726.5 L 6280.9 11731.8 L 6318.5 11749.4 L 6362 11794 L 6368.1 11800.3 L 6373.4 11806.3 M 4690.7 10846.1 L 4707.2 10909.3 L 4719.2 10936.8 L 4738.7 10955.9 L 4782 10965.7 L 4803.5 10987.4 L 4817.7 11024.2 L 4822.6 11049.2 L 4818.3 11062.6 L 4817.9 11079.9 L 4821.5 11101.2 L 4817.8 11119.6 L 4806.6 11135 L 4798.8 11157.9 L 4794.5 11188.3 L 4796.3 11208.1 L 4804.5 11217.4 L 4816.7 11226.2 L 4833.1 11234.5 L 4866.1 11240.3 L 4915.7 11243.8 L 4946.9 11254.2 L 4959.6 11271.5 L 4990 11284.2 L 5038 11292.2 L 5067.1 11301.3 L 5077.4 11311.4 L 5115 11320.7 L 5179.8 11329.1 L 5217.3 11341.7 L 5227.4 11358.7 L 5224.2 11375.6 L 5207.5 11392.5 L 5200 11406.5 L 5201.6 11417.7 L 5208.7 11424.8 L 5221.2 11427.6 L 5236.9 11438.7 L 5255.8 11458.1 L 5284.9 11465.8 L 5324.4 11461.7 L 5349.7 11469.4 L 5360.9 11488.9 L 5382.5 11504.2 L 5430.7 11521.1 L 5453.6 11531 L 5464 11540.7 L 5469.8 11553.4 L 5481.5 11561.5 L 5499.3 11564.9 L 5575.9 11567.9 L 5612.6 11572.3 L 5640.9 11580.2 L 5661.7 11581.9 L 5674.9 11577.5 L 5691.7 11578.6 L 5712.2 11585.1 L 5742.8 11586.6 L 5803.9 11581.1 M -4596.9 -3374.7 L -4611 -3341.4 L -4621.7 -3328.7 L -4633.8 -3325.7 L -4646.7 -3311 L -4660.4 -3284.8 L -4674.7 -3267.8 L -4689.6 -3260 L -4696.8 -3249.2 L -4696.2 -3235.5 L -4694.4 -3232.4 L -4691.4 -3232.7 L -4687.3 -3230.8 L -4681.6 -3220.8 L -4674.7 -3215.9 L -4662.6 -3216.2 L -4657.3 -3212 L -4651.3 -3206 L -4641.4 -3202.5 M -4480.4 -3694.4 L -4515 -3671.1 L -4533.6 -3652.1 L -4552.6 -3621.4 L -4549.7 -3596.4 L -4550.6 -3575.8 L -4555.2 -3559.4 L -4562.4 -3544.3 L -4572.2 -3530.6 L -4582.3 -3522.4 L -4592.9 -3519.7 L -4596.6 -3501.5 L -4593.5 -3467.9 L -4581.7 -3447.4 L -4561.3 -3440 L -4548.8 -3428.9 L -4544.3 -3414 L -4546 -3399.3 L -4554.2 -3384.8 L -4567.9 -3376.9 L -4596.9 -3374.7 M -4569.8 -3924.3 L -4573.8 -3850 L -4573.9 -3831.2 L -4562.8 -3807.6 L -4529.4 -3764.7 L -4525.4 -3754.5 M -4601.2 -4062.5 L -4599.3 -4056.2 L -4589.9 -4042.3 L -4589.1 -4020.7 L -4587.8 -4003.1 L -4582.1 -3993.4 L -4581.1 -3982.4 M -4211.3 -4118.3 L -4280.2 -4085.6 L -4298.9 -4069.6 L -4305 -4058.5 L -4304.7 -4025.2 L -4311.4 -4010.3 L -4325.3 -4009.9 L -4358.2 -4018.1 L -4370 -4024.3 M -3917.9 -4254.5 L -3942.5 -4237.3 L -3961.7 -4216 L -3983.8 -4184.9 L -3997.1 -4161.7 L -4001.6 -4146.2 L -3999.7 -4126.5 L -3991.6 -4102.6 L -3993.4 -4085.9 L -4005.2 -4076.5 L -4027 -4074.9 L -4058.8 -4080.9 L -4081.6 -4091.3 L -4095.4 -4105.9 L -4106.8 -4111.1 L -4115.8 -4106.9 L -4124 -4107.5 L -4131.6 -4112.7 L -4132.4 -4119.9 L -4126.4 -4129.1 L -4125.7 -4136.1 L -4130.3 -4140.9 L -4139.4 -4143.4 L -4153 -4143.6 L -4172.9 -4137.3 L -4212.3 -4118.3 M -2744.5 -4930.4 L -2770.4 -4922.6 L -2799.8 -4915.4 L -2833 -4915 L -2857.3 -4909 L -2874.3 -4899.9 L -2897.8 -4879.8 L -2906.9 -4873.8 L -2914.8 -4873 L -2925.3 -4879.3 L -2939.3 -4880.2 L -2956.8 -4875.6 L -2976.2 -4860 L -2997.5 -4833.5 L -3010.2 -4821.5 L -3031.8 -4812.9 L -3095.6 -4807.9 L -3136 -4808 L -3159.6 -4803.3 L -3180 -4793.9 L -3213.8 -4772.7 L -3242.3 -4752.7 L -3257.3 -4724.2 L -3282.3 -4707.7 L -3308.3 -4705.7 L -3359.1 -4725.4 L -3372.9 -4728.8 L -3390.7 -4728.4 L -3411.3 -4716.4 L -3441.6 -4693.8 L -3456.1 -4673.3 L -3464.8 -4647.6 L -3476.6 -4631.3 L -3491.5 -4624.6 L -3505 -4614 L -3517 -4599.3 L -3525.3 -4593.6 L -3529.1 -4595.2 L -3533.4 -4592 L -3536.3 -4579.3 L -3540.9 -4572.5 L -3547.1 -4571.6 L -3551.9 -4564.4 L -3555.2 -4550.9 L -3564.8 -4536.2 L -3588.4 -4512.3 L -3637.2 -4469.8 L -3661.8 -4455.8 L -3686.7 -4456.5 M -2741.2 -4980.5 L -2735.1 -4941 L -2736 -4934.7" />
<g class="city"><circle cx="736.0083545454531" cy="602.4162272727272" r="5" /><text x="748.0083545454531" y="606.4162272727272">San Salvador</text></g>
<g class="city"><circle cx="461.401945454545" cy="410.09419999999955" r="5" /><text x="473.401945454545" y="414.09419999999955">Guatemala City</text></g>
<g class="city"><circle cx="1153.3749272727252" cy="518.6311999999996" r="5" /><text x="1165.3749272727252" y="522.6311999999996">Tegucigalpa</text></g>
<text class="map-title" x="80" y="105">El Salvador Physical Study Map</text>
<text class="map-subtitle" x="80" y="145">Landmark: Santa Ana Volcano | Study terrain and water systems</text>
  <text class="footer" x="80" y="1036">Made with Natural Earth. Free vector and raster map data @ naturalearthdata.com.</text>
</svg>
