<?xml version="1.0" encoding="UTF-8"?>
<svg xmlns="http://www.w3.org/2000/svg" width="1600" height="1100" viewBox="0 0 1600 1100" role="img" aria-labelledby="title desc">
  <title id="title">Syria Physical Study Map</title>
  <desc id="desc">Made with Natural Earth. Free vector and raster map data @ naturalearthdata.com.</desc>
  <defs>
    <linearGradient id="terrain" x1="0" x2="1" y1="0" y2="1">
      <stop offset="0%" stop-color="#6c8c53" />
      <stop offset="42%" stop-color="#d5c487" />
      <stop offset="72%" stop-color="#b88b5f" />
      <stop offset="100%" stop-color="#f1f5ee" />
    </linearGradient>
    <filter id="softShadow" x="-10%" y="-10%" width="120%" height="120%">
      <feDropShadow dx="0" dy="10" stdDeviation="12" flood-color="#0f172a" flood-opacity="0.16" />
    </filter>
    <style>
      .neighbor { fill: #ffffff; stroke: #94a3b8; stroke-width: 1.2; opacity: 0.72; }
      .country { fill: url(#terrain); stroke: #1f2937; stroke-width: 4; filter: url(#softShadow); }
      .admin1 { fill: none; stroke: #64748b; stroke-width: 1.1; stroke-dasharray: 6 7; opacity: 0.75; }
      .river { fill: none; stroke: #1d9bd1; stroke-width: 3; stroke-linecap: round; opacity: 0.88; }
      .lake { fill: #8ed1ea; stroke: #0ea5e9; stroke-width: 1.5; opacity: 0.8; }
      .city circle { fill: #ef4444; stroke: #ffffff; stroke-width: 2; }
      .city text, .terrain-label { fill: #172033; font: 700 24px system-ui, sans-serif; paint-order: stroke; stroke: #ffffff; stroke-width: 5; stroke-linejoin: round; }
      .map-title { fill: #0f172a; font: 800 46px system-ui, sans-serif; }
      .map-subtitle { fill: #475569; font: 600 24px system-ui, sans-serif; }
      .footer { fill: #64748b; font: 500 18px system-ui, sans-serif; }
    </style>
  </defs>
  <rect width="100%" height="100%" fill="#d8edf0" />
  <rect x="40" y="40" width="1520" height="1020" rx="32" fill="#ffffff" opacity="0.54" />
  <path class="neighbor" d="M 490.8 777.9 L 474.5 807.4 L 440.6 794.5 L 421.1 856.8 L 444.6 867.3 L 420.7 880.1 L 416.6 904.8 L 460.6 892.1 L 462.8 928.5 L 416.2 1078 L 406.9 1053.7 L 354.7 917.3 L 354.7 917.3 L 354.7 917.3 L 381.9 886.5 L 375.5 881.2 L 400.3 837.5 L 419.3 766.9 L 432.6 743.2 L 435.2 742.2 L 466.5 742.4 L 475.1 726 L 500.2 724.8 L 501.7 763.1 L 489 777.3 L 490.8 777.9 Z" />
<path class="neighbor" d="M 500.2 724.8 L 475.1 726 L 466.5 742.4 L 435.2 742.2 L 468.5 666 L 515.1 600.1 L 516.8 596.8 L 558.9 601.6 L 574.2 638.3 L 523.2 673.5 L 500.2 724.8 Z" />
<path class="neighbor" d="M 460.6 892.1 L 416.6 904.8 L 420.7 880.1 L 444.6 867.3 L 421.1 856.8 L 440.6 794.5 L 474.5 807.4 L 474.4 864.6 L 460.6 892.1 Z" />
<path class="neighbor" d="M 474.5 807.4 L 490.8 777.9 L 595 815 L 778.2 715.3 L 815.9 829.2 L 798.1 843.3 L 610.7 890.3 L 704 983.8 L 673 999.7 L 657.6 1031 L 586.3 1044 L 563.9 1077.7 L 523.4 1106.5 L 419.3 1091.6 L 416.2 1078 L 462.8 928.5 L 460.6 892.1 L 474.4 864.6 L 474.5 807.4 Z" />
<path class="neighbor" d="M 815.9 829.2 L 778.2 715.3 L 985.3 617.9 L 1020.7 504.8 L 1011.9 436.5 L 1063.1 413.4 L 1111 355 L 1151.2 340.5 L 1260 352.5 L 1292.9 376.4 L 1337.7 360.6 L 1398.3 472.2 L 1459.7 500.2 L 1466.7 554.9 L 1419.6 587.2 L 1398 660.2 L 1462.8 749.1 L 1577.4 800.4 L 1625.5 871.5 L 1610.2 939.2 L 1640.1 939.2 L 1641 989.1 L 1692.8 1038.2 L 1637.2 1033.6 L 1574.4 1025.9 L 1505.7 1115.7 L 1331.8 1108.2 L 1068 920.1 L 928.6 854.6 L 815.9 829.2 Z" />
<path class="neighbor" d="M 1692.8 1038.2 L 1641 989.1 L 1640.1 939.2 L 1610.2 939.2 L 1625.5 871.5 L 1577.4 800.4 L 1462.8 749.1 L 1398 660.2 L 1419.6 587.2 L 1466.7 554.9 L 1459.7 500.2 L 1398.3 472.2 L 1337.7 360.6 L 1337.7 360.6 L 1286.5 285.6 L 1304.8 256.6 L 1275.6 149.3 L 1339.7 122.7 L 1354.5 158 L 1401.8 201.2 L 1466 213.6 L 1499.8 210.9 L 1610.2 141.8 L 1645.3 134.9 L 1672.9 162.4 L 1640.6 208.7 L 1699 257.7 L 1722.3 253 L 1751.9 322 L 1840.6 341.5 L 1905.5 388.4 L 2038.5 404.5 L 2184.7 379.8 L 2193.6 357.9 L 2275.8 339.8 L 2342.4 286.3 L 2404.9 289 L 2446 271.6 L 2512.5 280.2 L 2616 327.6 L 2690.7 337.9 L 2797.6 420.7 L 2867.3 424.1 L 2875.6 502.8 L 2837.4 619.4 L 2811.7 687.4 L 2852.4 701.2 L 2812.4 752.5 L 2843.1 827.2 L 2850.4 886.6 L 2921.3 902.3 L 2928.9 962.5 L 2844.1 1047.4 L 2890.4 1096.6 L 2928 1153.1 L 3017.5 1194.2 L 3020.1 1276.6 L 3064.8 1291.7 L 3072.6 1334.8 L 2937.6 1383.2 L 2902.4 1491.8 L 2726.4 1463.6 L 2624.4 1442.1 L 2518.8 1429.9 L 2478.9 1315.2 L 2434.1 1298.6 L 2362.2 1315.4 L 2267.9 1360.6 L 2153.5 1329.6 L 2059.1 1257.7 L 1969 1231.1 L 1906.5 1142.3 L 1837.5 1017.6 L 1787.2 1032.7 L 1727.7 1001.7 L 1692.8 1038.2 Z" />
<path class="neighbor" d="M 1499.8 210.9 L 1466 213.6 L 1427.8 159.5 L 1428.2 145.1 L 1386.9 145.3 L 1359.2 120.2 L 1339.7 122.7 L 1302.8 95.4 L 1233.3 72.1 L 1242.3 26.6 L 1226.4 -6.3 L 1356.4 -20.9 L 1375.8 3.7 L 1411.4 19.8 L 1392.6 43.3 L 1442.4 75.4 L 1416 105.2 L 1455.8 130.6 L 1497.8 146 L 1499.8 210.9 Z" />
<path class="neighbor" d="M 1337.7 360.6 L 1292.9 376.4 L 1260 352.5 L 1151.2 340.5 L 1111 355 L 1004.6 369.5 L 954.2 368 L 846.5 403.1 L 769.6 403.4 L 719.8 385.7 L 616.8 411.8 L 586.2 393.6 L 581.1 445.8 L 556 466.3 L 531 486.8 L 496.6 444.3 L 532 409.2 L 475 417.2 L 396.7 395.6 L 332.4 449.5 L 190.4 460 L 114.7 409.8 L 13.8 406.6 L -7.8 445.5 L -72.4 456.6 L -162.9 406.7 L -265 408.4 L -320.4 315.4 L -388.8 263.5 L -343.3 190.7 L -402.6 146 L -298.8 56.5 L -154.7 52.8 L -115.4 -18.3 L 62.9 -5.9 L 175.3 -66.6 L 284.3 -93 L 439.1 -95 L 602.4 -29.1 L 736.6 7.1 L 845.6 -7.3 L 926.1 1 L 1036.6 -47.8 L 1136.3 -52.3 L 1226.4 -6.3 L 1242.3 26.6 L 1233.3 72.1 L 1302.8 95.4 L 1339.7 122.7 L 1275.6 149.3 L 1304.8 256.6 L 1286.5 285.6 L 1337.7 360.6 L 1337.7 360.6 Z M -407.6 -75.1 L -312.3 -104.5 L -231.8 -92 L -220.6 -56 L -139 -25.8 L -156 -2.9 L -267.1 2.3 L -307 31.2 L -385.1 81.6 L -414.5 38 L -413.2 18.7 L -391 8.3 L -362 -50.3 L -407.6 -75.1 Z" />
<path class="neighbor" d="M 1490.4 -78.2 L 1516.7 -75.1 L 1581 -18.3 L 1622.4 -11.9 L 1638.4 -35.7 L 1694.3 -73.4 L 1743.5 -24.1 L 1791.1 42.2 L 1834.7 46.6 L 1863.5 71.8 L 1786.4 79.4 L 1770.2 152 L 1754.1 184.8 L 1719.8 206.7 L 1722.3 253 L 1699 257.7 L 1640.6 208.7 L 1672.9 162.4 L 1645.3 134.9 L 1610.2 141.8 L 1499.8 210.9 L 1497.8 146 L 1455.8 130.6 L 1416 105.2 L 1442.4 75.4 L 1392.6 43.3 L 1411.4 19.8 L 1375.8 3.7 L 1356.4 -20.9 L 1379.3 -36.2 L 1449 -9.3 L 1499.5 -3.7 L 1512.2 -14.7 L 1466.1 -65.3 L 1490.4 -78.2 Z M 1466 213.6 L 1401.8 201.2 L 1354.5 158 L 1339.7 122.7 L 1359.2 120.2 L 1386.9 145.3 L 1428.2 145.1 L 1427.8 159.5 L 1466 213.6 Z" />
<path class="neighbor" d="M 419.3 1091.6 L 523.4 1106.5 L 563.9 1077.7 L 586.3 1044 L 657.6 1031 L 673 999.7 L 704 983.8 L 610.7 890.3 L 798.1 843.3 L 815.9 829.2 L 928.6 854.6 L 1068 920.1 L 1331.8 1108.2 L 1505.7 1115.7 L 1589.1 1124.7 L 1612.4 1169.3 L 1678.6 1166.9 L 1715.2 1247.5 L 1761.2 1268.9 L 1777.2 1301.8 L 1841 1341.1 L 1846.7 1379.7 L 1837.3 1410.8 L 1849.2 1442.3 L 1876.1 1468.5 L 1888.5 1499.2 L 1902.5 1522.1 L 1930.8 1540.7 L 1956.7 1534 L 1974.5 1569.7 L 1978.1 1591.4 L 2013.9 1686.2 L 2295.1 1733.3 L 2314 1713.6 L 2356.9 1779.8 L 2294.5 1966.9 L 2013.8 2060.5 L 1744.1 2096.3 L 1656.8 2138.4 L 1589.7 2236.7 L 1546.1 2252.3 L 1522.7 2221.1 L 1486.8 2225.8 L 1396.4 2216.4 L 1379.2 2207.1 L 1271.3 2209.2 L 1245.9 2217.7 L 1207.5 2193.3 L 1182.7 2239.3 L 1192.3 2278.8 L 1151.2 2308.6 L 1139.1 2268.7 L 1110.9 2240.5 L 1103.6 2203.2 L 1055.3 2169.7 L 1005.5 2091.2 L 979.1 2015 L 914.4 1950.6 L 872.6 1935.2 L 810.7 1846.1 L 799.9 1781 L 803.8 1725.6 L 750.2 1621.9 L 706.3 1585.3 L 655.8 1566 L 625 1512.4 L 630.1 1491.2 L 604.1 1442.7 L 576.8 1421.9 L 540.3 1352.3 L 483.3 1276.8 L 435.6 1212.6 L 389 1213 L 403.6 1161.7 L 407.7 1128.9 L 419.3 1091.6 Z" />
<path class="neighbor" d="M 211.2 550.5 L 217.8 550 L 231.4 527.4 L 298.7 528.7 L 383.8 500.8 L 320.6 540.6 L 327.4 558.1 L 317.4 554.9 L 299.5 561.9 L 285.5 560 L 280.8 563.6 L 279 554.1 L 272.2 548.4 L 254.2 547.4 L 228.8 555.4 L 211.2 550.5 Z" />
<path class="neighbor" d="M 211.2 550.5 L 228.8 555.4 L 254.2 547.4 L 272.2 548.4 L 279 554.1 L 280.8 563.6 L 285.5 560 L 299.5 561.9 L 317.4 554.9 L 327.4 558.1 L 330.3 565.7 L 234.4 603.7 L 188.6 591.5 L 166.8 554 L 211.2 550.5 Z" />
<path class="neighbor" d="M 598 1779.8 L 227 1779.8 L -136 1779.8 L -512.1 1779.8 L -512.1 1435.3 L -512.1 1102.6 L -540.2 1027.3 L -516.1 969.5 L -530.6 929.5 L -496.7 884.6 L -372.2 883 L -282.2 907.8 L -189.3 935.4 L -146 950 L -74 920.3 L -35.5 893.5 L 47.1 885.8 L 113.6 897.6 L 139.1 944 L 160.8 913.5 L 235.7 935.6 L 308.7 940.9 L 354.7 917.3 L 354.7 917.3 L 406.9 1053.7 L 416.2 1078 L 389.9 1115.6 L 369.8 1186.3 L 344.3 1235 L 322.5 1251.4 L 291.3 1221.2 L 249.1 1179.4 L 182.4 1045.3 L 172.7 1053.8 L 211.5 1152.5 L 268.9 1246.6 L 339.7 1392.3 L 374.2 1443.2 L 404.3 1496 L 488.2 1599.6 L 469.6 1615.9 L 472.6 1676.7 L 581.6 1760.7 L 598 1779.8 Z" />
<path class="lake" d="M 1196.3 682.6 L 1190.2 676.6 L 1181.8 665.1 L 1178.7 646.6 L 1178 633 L 1179.7 627.7 L 1182.7 626.4 L 1194.2 643.9 L 1205.8 653.2 L 1215.6 661.8 L 1218 667.6 L 1216.4 675.2 L 1216.6 682.5 L 1211.1 684.6 L 1202.9 683.6 L 1196.3 682.6 L 1196.3 682.6 L 1196.3 682.6 L 1196.3 682.6 Z" />
<path class="lake" d="M 1254 779.9 L 1252.6 787.1 L 1246 794.2 L 1241 794.6 L 1234.4 792.5 L 1230.7 790 L 1225.9 788.6 L 1217 784.2 L 1212.8 777.4 L 1211.4 768.5 L 1212.3 763 L 1214.1 762 L 1216.3 758.3 L 1215.7 749.7 L 1219.4 745.1 L 1223.3 743.3 L 1226.4 747 L 1239.2 768.6 L 1248.6 775.8 L 1254 779.9 L 1254 779.9 L 1254 779.9 L 1254 779.9 Z" />
<path class="lake" d="M 478.2 870.1 L 476.5 884.1 L 474.4 904.2 L 472.2 907.2 L 463 907.4 L 461.1 905.3 L 461 891.8 L 462.8 880 L 466.7 871.4 L 472.3 867.1 L 475.7 866.2 L 478.2 870.1 L 478.2 870.1 L 478.2 870.1 L 478.2 870.1 Z" />
<path class="lake" d="M 1421.3 307.1 L 1421.3 307.1 L 1421.3 307.1 L 1421.3 307.1 L 1428.8 310.9 L 1429 314.5 L 1429.6 322.5 L 1439.2 336.6 L 1436.7 344.6 L 1424.7 348.2 L 1421 349.5 L 1416.3 356.7 L 1409.1 363.9 L 1400.9 362.5 L 1393.1 355.3 L 1386.3 335.5 L 1383 318.9 L 1382.7 312.4 L 1380.9 305.1 L 1367.1 293.7 L 1366.5 284.1 L 1373.5 278.8 L 1376.6 272.9 L 1375 269.5 L 1367.6 269.9 L 1360.4 269.4 L 1361.4 264.9 L 1368.8 258.2 L 1392.4 258.2 L 1401.9 266.7 L 1404.6 276.1 L 1400.8 289.3 L 1399.8 301.1 L 1404.2 306 L 1410.1 305.9 L 1421.3 307.1 Z" />
<path class="lake" d="M 279.1 203.1 L 285.4 207 L 292.2 208.2 L 299.3 216.3 L 294 228.9 L 286.2 234 L 275.8 230.7 L 266.8 225.8 L 258.4 220.6 L 251.1 210.7 L 256.8 201 L 263.7 192.5 L 265.3 184 L 264.9 177.5 L 269.1 178.1 L 276 184.2 L 278.8 190.2 L 277.5 195.2 L 279.1 203.1 L 279.1 203.1 L 279.1 203.1 Z" />
<path class="lake" d="M 1170.8 250.6 L 1164.6 246.5 L 1163.6 243.1 L 1160.8 238.3 L 1158.4 237.7 L 1151.4 240 L 1142.2 240.2 L 1133.1 237.9 L 1128.7 237.1 L 1111.3 236.2 L 1112.4 231.6 L 1118.9 225.8 L 1121.2 222.8 L 1121.2 218.2 L 1127.5 213.2 L 1145.9 209.8 L 1157.4 208.7 L 1165.8 208.7 L 1179.3 207.2 L 1187.1 203.8 L 1186.7 201.7 L 1183.7 200.5 L 1180.1 200.5 L 1178.9 197.2 L 1186.1 194.3 L 1198.5 192.8 L 1212.6 190.5 L 1224.3 191.5 L 1229 194.4 L 1221.5 199 L 1207.7 204.7 L 1199.2 206.9 L 1191.5 216 L 1189.3 226.5 L 1198.7 231.7 L 1201.6 237.2 L 1193.8 244.9 L 1185.7 251.5 L 1180.1 252.4 L 1170.8 250.6 L 1170.8 250.6 L 1170.8 250.6 Z" />
<path class="lake" d="M 472.3 921.3 L 471.8 923.4 L 471 926.1 L 470 928 L 466.4 928.8 L 462.4 928.1 L 460 925.2 L 458.7 921.2 L 459.1 917.7 L 460.9 916.3 L 465.1 916.2 L 469.6 918.6 L 472.3 921.3 L 472.3 921.3 L 472.3 921.3 L 472.3 921.3 Z" />
<path class="lake" d="M 482.5 771.2 L 481 774.2 L 477.4 776.9 L 475 774.1 L 473.4 769.1 L 473.9 764.2 L 476.3 760.9 L 479.5 760.1 L 481.7 762.1 L 482.9 766.3 L 482.5 771.2 L 482.5 771.2 L 482.5 771.2 L 482.5 771.2 Z" />
<path class="lake" d="M 1227.6 722.1 L 1227.6 722.1 L 1227.6 722.1 L 1227.6 722.1 L 1224.8 730.3 L 1217 732.9 L 1212.5 732.1 L 1209.5 726.7 L 1200.3 721.8 L 1200.7 718.1 L 1207.6 710 L 1211.9 714.3 L 1216.5 719.1 L 1223.7 718.1 L 1227.6 722.1 Z" />
<path class="country" d="M 490.8 777.9 L 489 777.3 L 501.7 763.1 L 500.2 724.8 L 523.2 673.5 L 574.2 638.3 L 558.9 601.6 L 516.8 596.8 L 508.1 525.3 L 531 486.8 L 556 466.3 L 581.1 445.8 L 586.2 393.6 L 616.8 411.8 L 719.8 385.7 L 769.6 403.4 L 846.5 403.1 L 954.2 368 L 1004.6 369.5 L 1111 355 L 1063.1 413.4 L 1011.9 436.5 L 1020.7 504.8 L 985.3 617.9 L 778.2 715.3 L 595 815 L 490.8 777.9 Z" />

<path class="river" d="M 756.6 482.9 L 738.3 479.1 L 727.1 474.6 L 717.1 468.2 L 711.4 463.1 L 710.2 459.4 L 712.7 454.5 L 718.8 448.3 L 721.7 443.5 L 721.3 438" />
<path class="river" d="M 775.9 206.9 L 780.1 201.1 L 773.3 182.1" />
<path class="river" d="M 463 907.4 L 467 885.2 L 470.2 874.9 L 475.7 866.2 M 479.5 760.1 L 477.4 776.9" />
<path class="river" d="M 195.2 1014.5 L 176.4 991.7" />
<path class="river" d="M 756.5 482.8 L 789.8 478.2 L 818.9 481.2 L 855 490.3 L 875.6 499.7 L 880.8 509.4 L 891.6 519.4 L 908 529.7 L 915.8 535.8 L 915.2 537.7 L 918.7 539.9 L 926.4 542.5 L 930.9 548 L 932.2 556.2 L 935.6 562.1 L 941.3 565.7 L 945.8 571.3 L 949.2 578.8 L 957.7 586.8 L 971.2 595.1 L 978 602.8 L 978.2 609.8 L 979.7 614.3 L 984.1 617.1 M 706.5 391.9 L 709.4 400.7 L 713.7 405.1 L 720.4 408 L 725.7 412.2 L 729.6 417.8 L 729 425 L 721.3 438" />
<path class="river" d="M 857.8 244.1 L 892.9 250.4 L 893.5 254.4 L 897.5 257.8 L 905.2 262.1 L 907.9 266.2 L 905.5 270.3 L 907.2 273 L 913.2 274.4 L 915.7 280.8 L 914.8 292 L 931.2 298.7 L 981.8 301.6 L 999.3 305.7 L 1018.3 306.9 L 1044.6 306.7 L 1059.6 310.2 L 1063.4 317.4 L 1064.6 324.5 L 1063.4 331.5 L 1067.3 335.3 L 1076.4 335.8 L 1087.1 339.5 L 1099.4 346.4 L 1107.6 355 L 1113.5 370.7" />
<path class="river" d="M 1402.3 909.3 L 1409.6 916.4 L 1423.1 920.6 L 1445.2 924.2 L 1463.9 929.8 L 1486.5 941.1 L 1497.7 946.9 L 1506.7 947 L 1517.3 943.3 L 1535.4 941.7 L 1561.1 942.2 L 1577.1 941 L 1583.4 937.8 L 1587.4 937.4 L 1589.9 940.8 M 984.1 617.1 L 995.9 620.9 L 1001.3 620.4 L 1004.2 616.9 L 1010.6 615.7 L 1020.3 616.9 L 1025 616.4 L 1026.7 616 L 1028.8 615.1 L 1031.7 616.4 L 1040 615.2 L 1051.8 610.7 L 1062.1 609.5 L 1070.9 611.9 L 1077.3 615.4 L 1083.5 622.6 L 1089.7 628.9 L 1094.2 630.2 L 1098.9 628.5 L 1101.5 629.4 L 1102.9 630.1 L 1105.1 629.8 L 1106.7 625.9 L 1109.2 624.8 L 1112.5 626.3 L 1112.6 628.9 L 1109.3 632.5 L 1109.3 635.5 L 1112.8 638 L 1114.2 641.7 L 1113.4 646.5 L 1117.3 651.7 L 1120.1 653.4 L 1126 657.1 L 1129.9 662.4 L 1129 667.7 L 1131 669.3 L 1136 667.3 L 1141.3 667.5 L 1146.6 669.8 L 1148.2 674 L 1146 680.4 L 1150.1 687.9 L 1160.4 696.7 L 1168.6 702 L 1174.9 703.7 L 1179.2 703.5 L 1181.7 701.5 L 1186.4 702.5 L 1193.2 706.6 L 1198.8 708.2 L 1203.1 707.1 L 1214.4 709.3 L 1222 711.6 L 1232.6 714.8 L 1244.4 721.6 L 1249.7 729.6 L 1253.5 732.1 L 1256.6 732.1 L 1260.5 732.5 L 1268.1 735.8 L 1276.8 745.8 L 1289.1 766.8 L 1290 770.1 L 1290.1 776.3 L 1287.5 785.9 L 1289.3 797.8 L 1295.5 811.7 L 1298.6 822.2 L 1298.8 829.6 L 1301.7 837.5 L 1307.3 846 L 1310 855.7 L 1309.9 866.5 L 1316.7 877.2 L 1337.4 893 L 1362.9 896.6 L 1373.8 900.2 L 1378.6 904.9 L 1386.4 907.8 L 1402.7 909.3" />
<path class="river" d="M 775.9 206.9 L 756 211.1 L 746.2 216.2 L 739.9 223.5 L 737.3 228.6 L 738.5 231.4 L 746.4 235.5 L 761.2 240.9 L 771.4 243.1 L 777.1 242.2 L 783.3 244.3 L 790.2 249.5 L 797.3 251.7 L 804.7 251.1 L 808.4 254.3 L 808.4 261.4 L 811.6 265.2 L 818.1 265.8 L 820.9 268.6 L 820 273.4 L 813.6 279.8 L 801.6 287.8 L 795.6 293.5 L 795.6 297.1 L 793.5 299.8 L 792.9 301.9 L 790.5 306.8 L 782.8 309.8 L 781.6 311.9 L 782.5 314.2 L 780.1 316.2 L 769.7 317.5 L 761 321 L 753.9 326.8 L 745.2 330.2 L 734.7 331.4 L 727.5 333.4 L 723.5 336.4 L 716.9 337.1 L 707.7 335.6 L 700.9 336.8 L 696.6 340.6 L 690.5 349.2 L 689.8 356.2 L 691.2 365.7 L 694.4 370.8 L 699.5 371.5 L 703.2 376.8 L 706.5 391.9 M 1027.4 79 L 1015.5 94.3 L 983.3 101.1 L 963.2 102.6 L 944.4 101 L 928.3 101.2 L 914.7 103.4 L 907 105.7 L 905.2 108.1 L 907.1 112.3 L 912.7 118.3 L 913.7 124.4 L 910.2 130.8 L 906.5 134.7 L 902.6 136.2 L 885.5 133.7 L 855 127.1 L 836.4 125.5 L 829.7 128.8 L 816 131.5 L 795.4 133.8 L 773.3 139.2 L 749.7 147.8 L 743.9 157.4 L 756 168 L 764.2 173.5 L 768.5 173.7 L 771.3 175.9 L 773.3 182.1" />
<path class="river" d="M 463 907.4 L 460.9 916.3 M 477.4 776.9 L 475 807.3 L 476.9 822 L 473.5 834.6 L 473.2 845.7 L 475.7 866.2 M 504.2 694.9 L 488.5 710.4 L 481.3 727.9 L 479.1 740.3 L 479.5 760.1" />
<path class="river" d="M 188.6 2375.3 L 192.9 2337.4 L 201.6 2317.1 L 216.2 2302 L 229.6 2293.6 L 242 2291.9 L 251.7 2288.2 L 258.8 2282.4 L 269.9 2277 L 284.8 2272.1 L 295.7 2264 L 302.4 2252.8 L 304.8 2244.9 L 302.9 2240.2 L 303.2 2233.4 L 305.6 2224.6 L 312.1 2212.1 L 322.9 2196.2 L 325.4 2182.2 L 327 2173.5 L 324.4 2144 L 320.6 2128 L 315.4 2125.5 L 309.7 2120 L 303.5 2111.4 L 300.1 2102.2 L 299.5 2092.1 L 296.7 2086.3 L 291.6 2084.7 L 289.3 2074.8 L 290 2056.4 L 286.7 2044.3 L 279.6 2038.3 L 275 2031.7 L 271.8 2020.9 L 249.3 2013.5 L 238 2012.7 L 230.6 2016.1 L 221.2 2024.7 L 209.9 2038.2 L 200.7 2045.4 L 193.8 2046.3 L 186.5 2052.7 L 178.8 2064.8 L 171.4 2070.8 L 164.3 2070.7 L 157.1 2073.1 L 149.8 2078.1 L 146.4 2084.5 L 146.9 2092.2 L 143.2 2097.3 L 135.4 2099.8 L 124 2111.7 L 109.3 2133.2 L 93.6 2146.8 L 76.9 2152.6 L 62.9 2153.9 L 51.4 2150.6 L 40.8 2145.9 L 31.3 2139.7 L 25.3 2130 L 22.7 2116.9 L 18.7 2107.3 L 13.3 2101.5 L 8.2 2092.3 L 3.4 2079.8 L 1.1 2061.6 L 1.3 2037.7 L -1.5 2016.4 L -7.3 1997.6 L -11.6 1986.9 L -11.8 1983.6 L -9.7 1980.3 L 2.4 1975 L 9.4 1970 L 11.3 1965.4 L 11.8 1957.7 L 11 1946.9 L 9.1 1939.7 L 6.1 1936.2 L 1.5 1934.1 L -4.9 1933.4 L -10.1 1927.9 L -14.3 1917.6 L -14.7 1909.3 L -11.4 1903 L -10.4 1898.2 L -9.8 1894.5 L -7.2 1891.6 L 3.4 1888.3 L 9.6 1882.7 L 11.3 1874.8 L 14.7 1869.3 L 19.9 1866.2 L 22 1862.1 L 21 1856.8 L 27 1850.1 L 40.1 1841.8 L 46.4 1836 L 45.9 1832.6 L 48.7 1827.3 L 57.7 1816.4 M 225 1593.9 L 228.2 1562 L 228.1 1550.2 L 226 1548 L 226.2 1542.2 L 228.8 1532.9 L 228.9 1520.7 L 226.5 1505.4 L 224.2 1495.7 L 222.1 1491.4 L 214.5 1485.2 L 201.6 1476.8 L 193.3 1466.4 L 189.7 1454 L 188.9 1446.3 L 191.7 1441.9 L 208.6 1428.6 L 214.2 1416.9 L 214.2 1402.4 L 211.5 1393.5 L 206.2 1390.3 L 194.5 1392.2 L 176.6 1399.3 L 164.2 1398.4 L 157.2 1389.6 L 151.6 1387.9 L 146.6 1387.8 L 144.2 1386.9 L 142.5 1382.5 L 139.5 1377.8 L 130.7 1370.6 L 125.9 1363.9 L 125.2 1358 L 122.4 1354.9 L 117.5 1354.8 L 115.3 1352.8 L 115.8 1349 L 114.2 1346.5 L 110.5 1345.4 L 100.9 1334.3 L 83.7 1311.1 L 81.1 1306.7 L 77.6 1302.8 L 75.3 1300.6 L 72.1 1298.6 L 46.3 1278.8 L 36.9 1265.2 L 38.8 1254.2 L 38.4 1240.2 L 37.7 1227.7 L 36.4 1219.9 L 34 1215 L 31.2 1210.5 L 28.1 1207.3 L 25.3 1203 L 24.9 1197 L 27 1189.6 L 31.5 1180.9 L 33.8 1172.4 L 33.9 1164 L 35.9 1154.7 L 39.7 1144.4 L 48.7 1130.3 L 62.8 1112.2 L 69.7 1098.6 L 69.4 1089.4 L 71.3 1079.2 L 75.5 1068 L 76.1 1051.7 L 73.1 1031.5 L 73 1023.9 L 71.4 1020.1" />
<path class="river" d="M 195.2 1014.4 L 195.7 1033.8 M 176.4 991.8 L 171.2 975.9 L 174 967 L 174.3 951.1 L 173 913.9" />
<path class="river" d="M 1113.5 370.7 L 1118.9 377.5 L 1121.9 379.6 L 1124.1 380.3 L 1126 382.1 L 1126.3 388.1 L 1130.6 392.2 L 1145 396.6 L 1149.3 399.4 L 1150.8 401.5 L 1149.5 402.8 L 1158.5 403.9 L 1162.1 405.4 L 1162.6 408.2 L 1161.2 409.6 L 1157.8 409.8 L 1154.2 413.1 L 1150.5 419.6 L 1157.3 425.3 L 1174.7 430.3 L 1187.6 438.8 L 1196 450.8 L 1201.6 462.9 L 1204.3 475.1 L 1204 483.4 L 1200.7 487.6 L 1199.7 492 L 1201 496.4 L 1199.9 499.8 L 1196.2 502.1 L 1195.1 508.8 L 1196.4 519.7 L 1204.4 534 L 1219.1 551.8 L 1225 563 L 1222.1 567.6 L 1226.5 579.3 L 1238.1 598.2 L 1245.3 614.8 L 1248.1 629.1 L 1251.8 639 L 1256.4 644.5 L 1261.7 648 L 1270.6 650.1 L 1287.2 652.5 L 1296.2 655.4 L 1303.1 659.6 L 1305.4 665.7 L 1303 673.5 L 1302.7 678.8 L 1304.4 681.5 L 1302.8 685.5 L 1298 690.7 L 1295.2 695.9 L 1294.4 701.1 L 1295.7 708.5 L 1299.2 718.3 L 1302.5 723.3 L 1305.7 723.5 L 1310.3 728.7 L 1316.3 738.8 L 1328.5 748.5 L 1346.9 757.7 L 1357.2 761.3 L 1361.5 760.9 L 1362.8 762 L 1362.8 764.2 L 1363.1 766.4 L 1366.4 769.1 L 1372 770.8 L 1380 771.5 L 1383.3 774 L 1383.2 777.5 L 1386.9 782.2 L 1394.9 787.8 L 1407.8 792.3 L 1434.7 797.3 L 1455.3 786.4 L 1465.3 785.1 L 1471.4 789.3 L 1484.7 793.6 L 1505.2 798 L 1517.3 802.9 L 1520.9 808.1 L 1521.3 814.2 L 1518.6 821.1 L 1517.9 826.4 L 1519.2 830.3 L 1523.2 833.8 L 1529.9 836.9 L 1535.6 843 L 1540.4 852 L 1546.8 856.6 L 1554.7 856.9 L 1559 860.6 L 1559.7 867.7 L 1566.7 879.1 L 1580 894.9 L 1586.7 911.1 L 1587.4 937.9" />
<g class="city"><circle cx="1302.0800783414877" cy="718.8584484033244" r="5" /><text x="1314.0800783414877" y="722.8584484033244">Baghdad</text></g>
<g class="city"><circle cx="401.72767994695846" cy="836.6111174949434" r="5" /><text x="413.72767994695846" y="840.6111174949434">Tel Aviv</text></g>
<g class="city"><circle cx="626.2585472453875" cy="448.36299137572456" r="5" /><text x="638.2585472453875" y="452.36299137572456">Aleppo</text></g>
<g class="city"><circle cx="544.8641338557459" cy="703.7601076687" r="5" /><text x="556.8641338557459" y="707.7601076687">Damascus</text></g>
<g class="city"><circle cx="470.92935944851814" cy="668.963458943427" r="5" /><text x="482.92935944851814" y="672.963458943427">Beirut</text></g>
<g class="city"><circle cx="1185.243585689053" cy="437.6013563327562" r="5" /><text x="1197.243585689053" y="441.6013563327562">Mosul</text></g>
<g class="city"><circle cx="453.18175041972285" cy="376.7923320117103" r="5" /><text x="465.18175041972285" y="380.7923320117103">Adana</text></g>
<g class="city"><circle cx="510.558176994408" cy="848.7699847567644" r="5" /><text x="522.558176994408" y="852.7699847567644">Amman</text></g>
<text class="map-title" x="80" y="105">Syria Physical Study Map</text>
<text class="map-subtitle" x="80" y="145">Landmark: Umayyad Mosque | Study terrain and water systems</text>
  <text class="footer" x="80" y="1036">Made with Natural Earth. Free vector and raster map data @ naturalearthdata.com.</text>
</svg>
