<?xml version="1.0" encoding="UTF-8"?>
<svg xmlns="http://www.w3.org/2000/svg" width="1600" height="1100" viewBox="0 0 1600 1100" role="img" aria-labelledby="title desc">
  <title id="title">Eswatini Physical Study Map</title>
  <desc id="desc">Made with Natural Earth. Free vector and raster map data @ naturalearthdata.com.</desc>
  <defs>
    <linearGradient id="terrain" x1="0" x2="1" y1="0" y2="1">
      <stop offset="0%" stop-color="#6c8c53" />
      <stop offset="42%" stop-color="#d5c487" />
      <stop offset="72%" stop-color="#b88b5f" />
      <stop offset="100%" stop-color="#f1f5ee" />
    </linearGradient>
    <filter id="softShadow" x="-10%" y="-10%" width="120%" height="120%">
      <feDropShadow dx="0" dy="10" stdDeviation="12" flood-color="#0f172a" flood-opacity="0.16" />
    </filter>
    <style>
      .neighbor { fill: #ffffff; stroke: #94a3b8; stroke-width: 1.2; opacity: 0.72; }
      .country { fill: url(#terrain); stroke: #1f2937; stroke-width: 4; filter: url(#softShadow); }
      .admin1 { fill: none; stroke: #64748b; stroke-width: 1.1; stroke-dasharray: 6 7; opacity: 0.75; }
      .river { fill: none; stroke: #1d9bd1; stroke-width: 3; stroke-linecap: round; opacity: 0.88; }
      .lake { fill: #8ed1ea; stroke: #0ea5e9; stroke-width: 1.5; opacity: 0.8; }
      .city circle { fill: #ef4444; stroke: #ffffff; stroke-width: 2; }
      .city text, .terrain-label { fill: #172033; font: 700 24px system-ui, sans-serif; paint-order: stroke; stroke: #ffffff; stroke-width: 5; stroke-linejoin: round; }
      .map-title { fill: #0f172a; font: 800 46px system-ui, sans-serif; }
      .map-subtitle { fill: #475569; font: 600 24px system-ui, sans-serif; }
      .footer { fill: #64748b; font: 500 18px system-ui, sans-serif; }
    </style>
  </defs>
  <rect width="100%" height="100%" fill="#d8edf0" />
  <rect x="40" y="40" width="1520" height="1020" rx="32" fill="#ffffff" opacity="0.54" />
  <path class="neighbor" d="M -2342.5 1024.9 L -2242.3 921.5 L -2159.7 978.7 L -2124.5 1068.1 L -2030.7 1083.3 L -1899.2 1122.9 L -1786.9 1107.6 L -1600.2 1000.7 L -1600 228.4 L -1543.6 259.8 L -1419.6 458.5 L -1438.9 585.9 L -1392.2 659.3 L -1242.5 638 L -1137.9 544.7 L -1038.9 481.8 L -987.7 381.6 L -885.7 333.2 L -797.6 358.6 L -697.7 417.1 L -527.5 427.5 L -393.8 378.8 L -372.6 313.6 L -335.9 213.5 L -222.1 196.8 L -159.3 118.2 L -89.6 -21.1 L 98.1 -177.2 L 394 -331.2 L 479 -328.9 L 580.2 -293.5 L 650.7 -318.6 L 761.8 -297.7 L 861.9 -3.4 L 916.3 145.2 L 879.1 378.3 L 896.9 453.3 L 791.4 415 L 731 429.9 L 711.2 490.8 L 654.2 569.3 L 656.1 641.6 L 780.9 755 L 903.3 732.4 L 945.8 639.5 L 1104.4 641.3 L 1052.2 793.5 L 1027.5 967.2 L 973.4 1061.6 L 830.7 1167.2 L 789.8 1197.4 L 701.2 1303.6 L 642.9 1411.1 L 524.3 1560.9 L 288 1776.6 L 140.4 1902 L -17.4 1997.2 L -236 2078.3 L -342.6 2089.2 L -369.6 2147.2 L -496.6 2116.3 L -600.1 2156.1 L -826.7 2115.8 L -953.4 2141.3 L -1040 2130.4 L -1255.6 2212.9 L -1434.2 2246 L -1563.3 2325.1 L -1658.4 2330.1 L -1746.9 2255.5 L -1817.6 2251.7 L -1907.6 2158.4 L -1917.5 2187.4 L -1945.3 2131.2 L -1944.1 2008.6 L -2012.1 1868.5 L -1944.6 1830.4 L -1950 1669.9 L -2087 1474.2 L -2192 1297.1 L -2192.3 1296.5 L -2342.5 1024.9 Z M 299 1104.1 L 207.8 1039.7 L 110 1082.3 L -3.2 1164.1 L -114.7 1296.5 L 42.1 1457.3 L 116.9 1436.6 L 155.4 1369.8 L 271.9 1337.1 L 307.4 1268.9 L 371.6 1167.2 L 299 1104.1 Z" />
<path class="neighbor" d="M 299 1104.1 L 371.6 1167.2 L 307.4 1268.9 L 271.9 1337.1 L 155.4 1369.8 L 116.9 1436.6 L 42.1 1457.3 L -114.7 1296.5 L -3.2 1164.1 L 110 1082.3 L 207.8 1039.7 L 299 1104.1 Z" />
<path class="neighbor" d="M 394 -331.2 L 98.1 -177.2 L -89.6 -21.1 L -159.3 118.2 L -222.1 196.8 L -335.9 213.5 L -372.6 313.6 L -393.8 378.8 L -527.5 427.5 L -697.7 417.1 L -797.6 358.6 L -885.7 333.2 L -987.7 381.6 L -1038.9 481.8 L -1137.9 544.7 L -1242.5 638 L -1392.2 659.3 L -1438.9 585.9 L -1419.6 458.5 L -1543.6 259.8 L -1600 228.4 L -1600.1 -381.8 L -1394 -389.1 L -1387.8 -1133.9 L -1232.2 -1140.8 L -909.8 -1214 L -829.9 -1127.8 L -696.4 -1209.8 L -633 -1210.2 L -515.1 -1257.3 L -477.5 -1241.7 L -397 -1074.6 L -355 -1037.3 L -289.2 -916.3 L -52.6 -686.6 L 36.9 -664.1 L 37.5 -590.3 L 99 -457.7 L 260.7 -425.7 L 394 -331.2 Z" />
<path class="neighbor" d="M 1466.1 -2541.5 L 1623.5 -2558.4 L 1874.7 -2499.5 L 1929.3 -2526 L 2074.9 -2531.3 L 2149.4 -2594.1 L 2274.8 -2590.6 L 2503.4 -2671.8 L 2669.8 -2793.1 L 2669.8 -2793.1 L 2669.8 -2793.1 L 2703.6 -2699.3 L 2695 -2491 L 2720.9 -2307.5 L 2729 -1980.8 L 2765.7 -1878.4 L 2703.4 -1729 L 2622.3 -1583.7 L 2489.1 -1454.1 L 2298 -1374.6 L 2062.3 -1273.1 L 1826 -1048.7 L 1745.6 -1010.5 L 1599.6 -862 L 1513.5 -813.6 L 1495.8 -664.5 L 1595 -506.2 L 1636.2 -383.6 L 1638.8 -321 L 1675.8 -331.5 L 1669.8 -126.4 L 1635.9 -29.2 L 1685.2 6.6 L 1654.1 93.5 L 1566.7 167.9 L 1394.2 238.6 L 1142.7 351.8 L 1051 429.1 L 1068.9 517.2 L 1122.4 531.2 L 1104.4 641.3 L 945.8 639.5 L 927.9 547.1 L 896.9 453.3 L 879.1 378.3 L 916.3 145.2 L 861.9 -3.4 L 761.8 -297.7 L 982.1 -535 L 1037.2 -685.8 L 1068.8 -704.8 L 1092.4 -827.9 L 1058.8 -889.9 L 1067.8 -1046.1 L 1108.6 -1191 L 1108.1 -1455.7 L 999.5 -1522.8 L 899.9 -1538 L 854.9 -1589.8 L 758 -1633.9 L 583.6 -1629.7 L 570 -1707.7 L 550.2 -1856.5 L 1184.7 -2028.9 L 1305.1 -1928.5 L 1362.6 -1947.7 L 1445.1 -1894.8 L 1457.3 -1811 L 1413.3 -1713.8 L 1428.8 -1566.4 L 1565.2 -1437.3 L 1629 -1582.4 L 1719.5 -1626.4 L 1701.7 -1895.2 L 1614.2 -2046.5 L 1538.7 -2113.9 L 1466.1 -2110.8 L 1407.6 -2382.6 L 1466.1 -2541.5 Z" />

<path class="country" d="M 945.8 639.5 L 903.3 732.4 L 780.9 755 L 656.1 641.6 L 654.2 569.3 L 711.2 490.8 L 731 429.9 L 791.4 415 L 896.9 453.3 L 927.9 547.1 L 945.8 639.5 Z" />

<path class="river" d="M -122.6 13 L -96.7 -20.3 L -84 -31.5 L -75.8 -31.7 L -64.2 -38.7 L -49.1 -52.5 L -31.1 -61 L -10.3 -64.2 L 3.2 -73.3 L 9.3 -88.4 L 20 -95.7 L 35.3 -95.3 L 44 -100 L 46.1 -110 L 55.3 -118.6 L 71.6 -125.7 L 80.1 -134.2 L 80.9 -143.9 L 100.4 -167.6 L 138.4 -205.2 L 174.3 -226.2 L 208 -230.5 L 239.9 -238.3 L 270.1 -249.7 L 292.3 -267.6 L 306.4 -292.1 L 330.7 -305.7 L 382.5 -310 L 442.2 -319.7 L 492.3 -311.8 L 552.5 -289.4 L 608.9 -281.5 L 661.5 -288 L 704.2 -289.5 L 737.1 -285.9 L 763 -278.2 L 782 -266.2 L 803.9 -258.8 L 828.7 -255.9 L 853.6 -244.6 L 878.4 -224.7 L 905.2 -195.6 L 934 -157.1 L 955.7 -133.7 L 970.2 -125.2 L 979.2 -113.4 L 982.6 -98.3 L 994.1 -78 L 1013.7 -52.5 L 1032.8 -8.2 L 1051.6 54.8 L 1071.6 97.3 L 1103.3 130 L 1113.1 152.3 L 1120.2 159.8 L 1128 160 L 1142.1 169.2 L 1162.5 187.5 L 1178.1 196.2 L 1188.9 195.3 L 1195.2 198.3 L 1197.1 205.2 L 1208.8 214.1 L 1230.1 224.9 L 1241.4 229.3 L 1246.5 229.1 L 1250 226.1 L 1252.2 223.7 L 1255.4 222.4 L 1258.7 225 L 1264.8 239.9 L 1271.9 266.3 L 1268.3 285.5 L 1253.8 297.4 L 1247.6 306.8 L 1250.8 316.5" />
<path class="river" d="M -402.6 835 L -456.3 853.6 L -486.1 874 L -509.8 902.3 L -534.8 918.9 L -561.1 923.6 L -580 935.3 L -591.4 954 L -596.7 974.5 L -595.8 996.9 L -600.5 1008 L -610 1009.4 L -615.3 1015.2 L -616.2 1021.8 L -620.3 1025.8 L -625.9 1022.2 L -633.9 1020.1 L -643.9 1024 L -653.2 1020.4 L -657.9 1010.7 L -666.7 1001.1 L -679.7 994.6 L -696.7 1003.2 L -717.9 1027 L -733.5 1055.5 L -743.6 1088.7 L -766.4 1111.1 L -819.6 1128.7 M 120.4 667.3 L 94.5 635.9 L 75.5 631.3 L 54.7 642.9 L 35 646.6 L 16.5 642.4 L 1.8 647.5 L -8.9 661.7 L -23.2 668.2 L -41.3 667 L -57 671.6 L -70.2 681.8 L -89.8 681.9 L -115.8 671.9 L -126.4 672.3 L -131 681.1 L -138.3 684.4 L -151.3 681.6 L -177.8 693.1 L -217.8 719.2 L -229.7 732.2 L -229.7 740.5 L -226 744.3 L -224 753.4 L -227.7 763.8 L -226.3 771 L -233.4 778.3 L -254 780.3 L -276 791.4 L -304.7 821.4 M 540.9 566.3 L 556.5 586.2 L 552 603.2 L 522.9 634.3 L 479.1 655.7 L 449.4 662.9 L 419.1 663 L 402.6 667.4 L 399.9 676.2 L 390.3 679.3 L 373.8 676.5 L 359.9 681.1 L 348.5 693.1 L 336.2 700.4 L 325.2 704 L 316.6 704.4 L 301.9 696.6 L 289.7 696.3 L 274.2 701 L 257.5 699 L 239.7 690.3 L 233.6 690.1 L 231.7 693.8 L 225.6 699.2 L 212.7 704.7 L 205.5 704.2 L 204 698.2 L 198.1 693.1" />
<g class="city"><circle cx="1053.644" cy="476.33482727272667" r="5" /><text x="1065.644" y="480.33482727272667">Maputo</text></g>
<g class="city"><circle cx="749.6504909090905" cy="552.3015272727267" r="5" /><text x="761.6504909090905" y="556.3015272727267">Mbabane</text></g>
<g class="city"><circle cx="763.5889090909088" cy="583.6685090909086" r="5" /><text x="775.5889090909088" y="587.6685090909086">Lobamba</text></g>
<text class="map-title" x="80" y="105">Eswatini Physical Study Map</text>
<text class="map-subtitle" x="80" y="145">Landmark: Hlane Royal National Park | Study terrain and water systems</text>
  <text class="footer" x="80" y="1036">Made with Natural Earth. Free vector and raster map data @ naturalearthdata.com.</text>
</svg>
