<?xml version="1.0" encoding="UTF-8"?>
<svg xmlns="http://www.w3.org/2000/svg" width="1600" height="1100" viewBox="0 0 1600 1100" role="img" aria-labelledby="title desc">
  <title id="title">Chad Physical Study Map</title>
  <desc id="desc">Made with Natural Earth. Free vector and raster map data @ naturalearthdata.com.</desc>
  <defs>
    <linearGradient id="terrain" x1="0" x2="1" y1="0" y2="1">
      <stop offset="0%" stop-color="#6c8c53" />
      <stop offset="42%" stop-color="#d5c487" />
      <stop offset="72%" stop-color="#b88b5f" />
      <stop offset="100%" stop-color="#f1f5ee" />
    </linearGradient>
    <filter id="softShadow" x="-10%" y="-10%" width="120%" height="120%">
      <feDropShadow dx="0" dy="10" stdDeviation="12" flood-color="#0f172a" flood-opacity="0.16" />
    </filter>
    <style>
      .neighbor { fill: #ffffff; stroke: #94a3b8; stroke-width: 1.2; opacity: 0.72; }
      .country { fill: url(#terrain); stroke: #1f2937; stroke-width: 4; filter: url(#softShadow); }
      .admin1 { fill: none; stroke: #64748b; stroke-width: 1.1; stroke-dasharray: 6 7; opacity: 0.75; }
      .river { fill: none; stroke: #1d9bd1; stroke-width: 3; stroke-linecap: round; opacity: 0.88; }
      .lake { fill: #8ed1ea; stroke: #0ea5e9; stroke-width: 1.5; opacity: 0.8; }
      .city circle { fill: #ef4444; stroke: #ffffff; stroke-width: 2; }
      .city text, .terrain-label { fill: #172033; font: 700 24px system-ui, sans-serif; paint-order: stroke; stroke: #ffffff; stroke-width: 5; stroke-linejoin: round; }
      .map-title { fill: #0f172a; font: 800 46px system-ui, sans-serif; }
      .map-subtitle { fill: #475569; font: 600 24px system-ui, sans-serif; }
      .footer { fill: #64748b; font: 500 18px system-ui, sans-serif; }
    </style>
  </defs>
  <rect width="100%" height="100%" fill="#d8edf0" />
  <rect x="40" y="40" width="1520" height="1020" rx="32" fill="#ffffff" opacity="0.54" />
  <path class="neighbor" d="M 1105.7 1158 L 1110.9 1184.5 L 1108 1199.4 L 1113.8 1216.1 L 1130.5 1232.2 L 1146 1268.5 L 1146 1268.5 L 1134.7 1265.6 L 1096 1270.4 L 1088.3 1273.9 L 1080.1 1292.2 L 1086.6 1304.9 L 1081.5 1339 L 1077.9 1367.9 L 1085.7 1373 L 1105.8 1384.2 L 1113.7 1379 L 1116.1 1410 L 1094.1 1409.7 L 1082.3 1393.9 L 1071.6 1381.6 L 1049.6 1377.6 L 1043.1 1362.5 L 1025.6 1371.6 L 1002.5 1367.6 L 992.9 1354.6 L 974.6 1351.9 L 961.1 1352.6 L 959.5 1343.7 L 949.6 1342.9 L 936.5 1341.2 L 918.6 1345.5 L 906.1 1344.8 L 899 1347.5 L 900.6 1313.2 L 891 1302.6 L 888.9 1284.9 L 893.1 1267.5 L 887.3 1256.4 L 886.7 1238.3 L 851.8 1238.6 L 854.3 1228.2 L 839.6 1228.3 L 838.1 1233.3 L 820.3 1234.4 L 813 1251.2 L 808.7 1258.4 L 792.8 1254.3 L 783.3 1258.4 L 764.3 1260.7 L 753.3 1245.6 L 746.7 1236.3 L 738.4 1219.1 L 731.3 1197.6 L 646.4 1197.3 L 636.3 1200.7 L 628 1200.2 L 616.1 1204.1 L 612.1 1195.1 L 619.4 1192.1 L 620.3 1179.5 L 625 1172.2 L 635.5 1166.1 L 643 1169 L 652.9 1158 L 668.6 1158.3 L 670.4 1166.4 L 681.1 1171.5 L 698.1 1153.5 L 714.8 1139.5 L 722.1 1130.3 L 721.1 1106.6 L 733.6 1078.6 L 746.8 1063.8 L 765.8 1049.9 L 769.1 1040.8 L 769.8 1030.2 L 774.5 1020.2 L 773 1003.9 L 776.6 978.4 L 782.2 960.5 L 790.8 945.1 L 792.5 927.7 L 795.1 907.6 L 806.3 893 L 821.7 883.8 L 845.4 893.6 L 863.7 904.2 L 884.7 907 L 906.2 912.6 L 914.8 895.2 L 918.8 893 L 931.9 895.9 L 963.9 881.6 L 975.3 887.6 L 984.6 886.8 L 988.9 879.8 L 999.6 877.3 L 1021.2 880.3 L 1039.7 881 L 1049.2 878 L 1066.6 901.7 L 1079.5 905.2 L 1087.2 900.4 L 1100.5 902.3 L 1116.6 896.2 L 1123.4 908.5 L 1148.7 927.6 L 1148.7 927.6 L 1147 961.2 L 1158.5 965.1 L 1149.3 975.3 L 1138.2 983 L 1127.2 998 L 1121.2 1011.4 L 1119.5 1034.5 L 1112.9 1045.4 L 1112.6 1067.1 L 1104.4 1075.2 L 1103.3 1092.3 L 1099.3 1094.5 L 1096.7 1110.2 L 1103.9 1123.3 L 1105.7 1158 Z" />
<path class="neighbor" d="M 968.4 791.8 L 946.5 779.2 L 936.5 770.9 L 934.7 762 L 939.4 750 L 939.3 738.3 L 922.7 720.3 L 919.4 708 L 919.8 701 L 909.2 692.5 L 908.9 675.8 L 902.8 664.7 L 892.7 666.4 L 895.6 655.8 L 903.1 643.8 L 899.8 631.9 L 909.3 623.1 L 903.3 616.3 L 910.9 598.6 L 924 577.4 L 948.8 579.4 L 947.4 465.2 L 947.8 453.1 L 980.9 453 L 980.9 395.6 L 1096.5 395.6 L 1208.2 395.6 L 1322.3 395.6 L 1331.6 423.8 L 1325.3 429 L 1329.4 458.6 L 1340 493 L 1351 500.1 L 1366.7 510.7 L 1352.1 527.1 L 1331 531.8 L 1321.9 540.7 L 1319.1 559.8 L 1306.7 602.1 L 1309.7 613.6 L 1305.1 638.3 L 1293.4 666.6 L 1276.1 680.9 L 1263.7 702.9 L 1260.9 714.6 L 1247.2 722.7 L 1238.7 752.8 L 1239.1 778.7 L 1238.8 756.2 L 1234.8 755.7 L 1235.3 741.3 L 1231.8 731.5 L 1217 720.1 L 1213.5 699.4 L 1217 678.1 L 1203.7 676.1 L 1201.7 682.6 L 1184.4 684 L 1191.3 692.4 L 1193.8 709.7 L 1178 725.5 L 1163.7 746.3 L 1148.8 749.2 L 1124.6 732.5 L 1113.8 738.4 L 1110.8 746.8 L 1096 752.2 L 1095 758.1 L 1066.3 758.1 L 1062.4 752.2 L 1041.7 751.2 L 1031.3 756.2 L 1023.4 753.7 L 1008.6 736.9 L 1003.6 729 L 982.9 732.9 L 975 746.3 L 967.6 772 L 957.7 777.4 L 948.8 780.5 L 968.4 791.8 Z" />
<path class="neighbor" d="M -1224.7 909 L -1241.7 935.3 L -1250.6 956.5 L -1261.6 967.4 L -1275.4 969.5 L -1279.3 961.4 L -1285.7 960.2 L -1294.6 968 L -1307.2 962 L -1299.9 949.9 L -1297.3 936.8 L -1292.3 924.4 L -1303.6 907.3 L -1305.9 887.7 L -1290.9 862.9 L -1281.1 866.1 L -1260 872.9 L -1229.5 897.2 L -1224.7 909 Z M 439.6 -394.6 L 453.1 -387.1 L 494.6 -381.8 L 480.1 -362.1 L 476.4 -341.6 L 468.5 -336.7 L 455.4 -339.3 L 456.3 -332 L 435.3 -315.8 L 434.9 -302.8 L 448.6 -307.3 L 458.5 -294.7 L 457.3 -286.6 L 465.8 -275.8 L 455.8 -267 L 463.2 -244.8 L 478.8 -241.1 L 475.5 -228.6 L 449.4 -212.4 L 392.7 -220.1 L 350.8 -210.8 L 347.5 -193.5 L 314.1 -189.8 L 281.8 -202.8 L 271.3 -196.6 L 218.3 -209.6 L 206.9 -220.8 L 221.7 -238.1 L 227.2 -295.4 L 197.5 -325.6 L 176.3 -340.1 L 132.3 -351.2 L 129.4 -372.2 L 166.7 -378.5 L 215.1 -371.1 L 205.9 -403.6 L 233.1 -391.3 L 300.1 -413.7 L 308.7 -437.3 L 333.9 -443.1 L 338.1 -433 L 351.4 -432.5 L 364.8 -421 L 384.9 -407.4 L 399.7 -409.6 L 424.8 -396.5 L 431.3 -394 L 439.6 -394.6 Z M 513.2 -198 L 531.7 -208.9 L 536.6 -184.3 L 527.1 -162 L 514.1 -167.9 L 507.4 -187.3 L 513.2 -198 Z" />
<path class="neighbor" d="M 688.9 370.7 L 695.9 415.5 L 706.7 422.9 L 707.2 432.1 L 719.1 442 L 712.9 454.3 L 701.8 512.7 L 700.3 550.1 L 663.6 577.3 L 651.2 615.2 L 663.1 625.8 L 663.1 644.3 L 681.5 645 L 678.6 658.6 L 670.5 660.2 L 669.6 669.4 L 664.2 670 L 644.8 638.5 L 638 637.4 L 615.5 653.4 L 593.2 645 L 577.8 643.4 L 569.5 647.4 L 552.6 646.5 L 535.6 658.8 L 520.9 659.5 L 486.1 644.6 L 472.5 651.7 L 457.8 651.2 L 447 640.3 L 418.2 629.6 L 387.3 633 L 379.8 639.2 L 375.7 655.8 L 367.5 667.4 L 365.5 693.1 L 343.5 676.5 L 333.2 676.6 L 323.6 685 L 324.2 665.3 L 291 658.8 L 290.1 644.8 L 273.9 626.1 L 270.1 613 L 272.4 599 L 290.8 597.9 L 301.4 587.7 L 340.7 585.2 L 366.3 580.6 L 368.7 562.9 L 384.4 543.7 L 384.4 477.4 L 424.9 464.6 L 508.2 408.1 L 606.8 353.2 L 652.3 365.6 L 668.5 381.4 L 688.9 370.7 Z" />
<path class="neighbor" d="M 339 848.5 L 340.7 802.1 L 339.9 783.8 L 345.4 765.6 L 354.2 756.8 L 368.2 739 L 365.2 731.3 L 370.8 719.7 L 364.4 702.6 L 365.5 693.1 L 367.5 667.4 L 375.7 655.8 L 379.8 639.2 L 387.3 633 L 418.2 629.6 L 447 640.3 L 457.8 651.2 L 472.5 651.7 L 486.1 644.6 L 520.9 659.5 L 535.6 658.8 L 552.6 646.5 L 569.5 647.4 L 577.8 643.4 L 593.2 645 L 615.5 653.4 L 638 637.4 L 644.8 638.5 L 664.2 670 L 669.6 669.4 L 681 680.8 L 677.9 686 L 676.3 695.6 L 652.1 717.8 L 644.5 736.2 L 640.4 751.2 L 634.3 757.6 L 628.5 777.7 L 613.1 789.6 L 608.7 804.1 L 602.2 815.7 L 599.5 827.7 L 579.8 837.4 L 563.6 825.5 L 552.7 826 L 535.6 842.9 L 527.2 843.1 L 513.5 870.9 L 506.1 891.2 L 476.3 901.6 L 465.4 900.1 L 454.3 906.5 L 431.3 905.9 L 415.9 887.9 L 406.4 867.1 L 386 848.1 L 364.4 848.5 L 339 848.5 Z" />
<path class="neighbor" d="M 678.6 658.6 L 690.1 677 L 692 696.1 L 691 715.2 L 706.6 741.3 L 690.5 741.1 L 682.4 743.1 L 669.3 740.2 L 663.1 753.8 L 680 770.6 L 692.6 775.5 L 696.6 787.4 L 705.7 807.2 L 701.2 815 L 686.7 844.2 L 679.8 849.4 L 677.6 871.7 L 680.5 883.8 L 678.1 892.4 L 691.7 907.4 L 694.2 917.7 L 704.8 932.6 L 718 941.8 L 719.3 955 L 722.3 963.3 L 720.2 978.8 L 697.4 972 L 674.1 964.4 L 637.8 963.3 L 634.2 961.7 L 617.2 965.5 L 599.7 961.6 L 586 963.5 L 539.2 962.8 L 543.4 940.1 L 532.2 921.1 L 519 916.2 L 513.2 903.3 L 505.8 899.2 L 506.1 891.2 L 513.5 870.9 L 527.2 843.1 L 535.6 842.9 L 552.7 826 L 563.6 825.5 L 579.8 837.4 L 599.5 827.7 L 602.2 815.7 L 608.7 804.1 L 613.1 789.6 L 628.5 777.7 L 634.3 757.6 L 640.4 751.2 L 644.5 736.2 L 652.1 717.8 L 676.3 695.6 L 677.9 686 L 681 680.8 L 669.6 669.4 L 670.5 660.2 L 678.6 658.6 Z" />
<path class="neighbor" d="M 1049.2 878 L 1039.7 881 L 1021.2 880.3 L 999.6 877.3 L 988.9 879.8 L 984.6 886.8 L 975.3 887.6 L 963.9 881.6 L 931.9 895.9 L 918.8 893 L 914.8 895.2 L 906.2 912.6 L 884.7 907 L 863.7 904.2 L 845.4 893.6 L 821.7 883.8 L 806.3 893 L 795.1 907.6 L 792.5 927.7 L 774 926.1 L 754.5 921.3 L 737.4 936.5 L 722.3 963.3 L 719.3 955 L 718 941.8 L 704.8 932.6 L 694.2 917.7 L 691.7 907.4 L 678.1 892.4 L 680.5 883.8 L 677.6 871.7 L 679.8 849.4 L 686.7 844.2 L 701.2 815 L 725 812.8 L 730.3 805.4 L 735 806 L 742.2 812.5 L 778.5 801.5 L 790.7 790.3 L 805.7 780.2 L 802.8 770.1 L 810.9 767.4 L 838.7 769.2 L 865.8 755.9 L 886.6 724.5 L 901.2 712.9 L 919.4 708 L 922.7 720.3 L 939.3 738.3 L 939.4 750 L 934.7 762 L 936.5 770.9 L 946.5 779.2 L 968.4 791.8 L 984.2 803.4 L 984.4 812.8 L 1003.8 827.7 L 1015.8 840.2 L 1023 857.4 L 1044.6 868.8 L 1049.2 878 Z" />
<path class="neighbor" d="M 792.5 927.7 L 790.8 945.1 L 782.2 960.5 L 776.6 978.4 L 773 1003.9 L 774.5 1020.2 L 769.8 1030.2 L 769.1 1040.8 L 765.8 1049.9 L 746.8 1063.8 L 733.6 1078.6 L 721.1 1106.6 L 722.1 1130.3 L 714.8 1139.5 L 698.1 1153.5 L 681.1 1171.5 L 670.4 1166.4 L 668.6 1158.3 L 652.9 1158 L 643 1169 L 635.5 1166.1 L 624.7 1156.2 L 616 1161.1 L 604.4 1173.5 L 580.8 1143 L 602.7 1127.1 L 591.8 1108.1 L 601.7 1100.9 L 621.1 1097.4 L 623.4 1084.6 L 638.8 1098.4 L 664.2 1099.6 L 673 1086 L 676.6 1066.9 L 673.5 1044.4 L 659.9 1027.4 L 672.3 994.1 L 665.1 988.4 L 643.7 990.7 L 635.7 975.9 L 637.8 963.3 L 674.1 964.4 L 697.4 972 L 720.2 978.8 L 722.3 963.3 L 737.4 936.5 L 754.5 921.3 L 774 926.1 L 792.5 927.7 Z" />
<path class="neighbor" d="M 586 963.5 L 599.7 961.6 L 617.2 965.5 L 634.2 961.7 L 637.8 963.3 L 635.7 975.9 L 643.7 990.7 L 665.1 988.4 L 672.3 994.1 L 659.9 1027.4 L 673.5 1044.4 L 676.6 1066.9 L 673 1086 L 664.2 1099.6 L 638.8 1098.4 L 623.4 1084.6 L 621.1 1097.4 L 601.7 1100.9 L 591.8 1108.1 L 602.7 1127.1 L 580.8 1143 L 551.2 1114 L 532.2 1090.2 L 514.7 1060.5 L 515.6 1051 L 521.9 1041.8 L 528.9 1020.8 L 534.7 999.5 L 544.4 997.8 L 586.3 998.1 L 586 963.5 Z" />
<path class="neighbor" d="M 539.2 962.8 L 586 963.5 L 586.3 998.1 L 544.4 997.8 L 534.7 999.5 L 529.3 995.1 L 539.2 962.8 Z" />
<path class="neighbor" d="M 534.4 156.5 L 522.1 104.9 L 504.4 93.3 L 504.1 86.3 L 480.6 69.2 L 478.1 47.5 L 495.8 31.4 L 502.6 7.7 L 498 -19.7 L 503.9 -34.5 L 535.2 -46.1 L 555.3 -42.6 L 554.5 -28.1 L 578.9 -38.7 L 580.9 -33.1 L 566.6 -19 L 566.4 -5.7 L 576.3 1.4 L 572.5 26.3 L 553.6 40.8 L 559.1 56.5 L 573.9 57 L 581.2 70.6 L 592.1 75.1 L 590.5 97.2 L 576.5 105.5 L 567.6 114.7 L 547.9 125.8 L 550.9 137.7 L 548.4 149.9 L 534.4 156.5 Z" />
<path class="neighbor" d="M 11.7 240.3 L 12.3 234.7 L 12.2 232.8 L 12 198.7 L 58.5 177.5 L 87.2 173.1 L 110.7 165.4 L 121.8 151 L 155.4 139.6 L 156.6 118.3 L 173.3 115.8 L 186.3 105.1 L 223.9 100.3 L 229.2 89.1 L 221.6 83 L 211.7 52.6 L 210 35.1 L 199.1 16.7 L 226.8 1 L 257.9 -4 L 276.1 -15.9 L 303.8 -24.7 L 352.5 -29.8 L 400.1 -32.1 L 414.6 -27.9 L 441.7 -39.2 L 472.5 -39.4 L 484.2 -32.7 L 503.9 -34.5 L 498 -19.7 L 502.6 7.7 L 495.8 31.4 L 478.1 47.5 L 480.6 69.2 L 504.1 86.3 L 504.4 93.3 L 522.1 104.9 L 534.4 156.5 L 543.7 181.9 L 545.3 195.3 L 540.2 218.8 L 542.3 231.9 L 538.6 247.6 L 541.1 265.7 L 529.7 277.8 L 546.7 298.7 L 547.8 311.1 L 558 327.1 L 571.5 321.8 L 594.2 335.2 L 606.8 353.2 L 508.2 408.1 L 424.9 464.6 L 384.4 477.4 L 352.4 480.2 L 352.1 461.9 L 338.8 457.2 L 320.9 449 L 314 435.5 L 217 372.8 L 119.9 310 L 11.7 240.3 Z" />
<path class="neighbor" d="M 1322.3 395.6 L 1208.2 395.6 L 1096.5 395.6 L 980.9 395.6 L 980.9 289.6 L 980.9 187.3 L 972.2 164.1 L 979.7 146.3 L 975.2 134 L 985.6 120.2 L 1023.9 119.8 L 1051.6 127.4 L 1080.1 135.9 L 1093.5 140.4 L 1115.6 131.2 L 1127.5 123 L 1152.8 120.6 L 1173.3 124.3 L 1181.1 138.5 L 1187.8 129.1 L 1210.9 135.9 L 1233.3 137.5 L 1247.5 130.3 L 1247.5 130.3 L 1263.5 172.3 L 1266.4 179.7 L 1258.3 191.3 L 1252.1 213 L 1244.3 228 L 1237.6 233 L 1228 223.8 L 1215 210.9 L 1194.5 169.7 L 1191.5 172.3 L 1203.4 202.6 L 1221.1 231.6 L 1242.8 276.4 L 1253.5 292 L 1262.7 308.3 L 1288.5 340.1 L 1282.8 345.1 L 1283.7 363.8 L 1317.2 389.7 L 1322.3 395.6 Z" />
<path class="neighbor" d="M 980.9 395.6 L 980.9 453 L 947.8 453.1 L 947.4 465.2 L 832.7 410.1 L 717.9 355 L 688.9 370.7 L 668.5 381.4 L 652.3 365.6 L 606.8 353.2 L 594.2 335.2 L 571.5 321.8 L 558 327.1 L 547.8 311.1 L 546.7 298.7 L 529.7 277.8 L 541.1 265.7 L 538.6 247.6 L 542.3 231.9 L 540.2 218.8 L 545.3 195.3 L 543.7 181.9 L 534.4 156.5 L 548.4 149.9 L 550.9 137.7 L 547.9 125.8 L 567.6 114.7 L 576.5 105.5 L 590.5 97.2 L 592.1 75.1 L 625.9 85 L 638 82.6 L 662 87.4 L 700.2 100.2 L 713.7 125.8 L 739.5 131.4 L 780.1 143.4 L 810.7 157.7 L 824.8 150.3 L 838.5 137 L 831.8 115 L 840.9 101 L 861.6 87.5 L 881.4 83.6 L 920.3 89.5 L 930.1 102.3 L 940.9 102.5 L 950 107.4 L 978.6 110.7 L 985.6 120.2 L 975.2 134 L 979.7 146.3 L 972.2 164.1 L 980.9 187.3 L 980.9 289.6 L 980.9 395.6 Z" />
<path class="neighbor" d="M 1148.7 927.6 L 1123.4 908.5 L 1116.6 896.2 L 1100.5 902.3 L 1087.2 900.4 L 1079.5 905.2 L 1066.6 901.7 L 1049.2 878 L 1044.6 868.8 L 1023 857.4 L 1015.8 840.2 L 1003.8 827.7 L 984.4 812.8 L 984.2 803.4 L 968.4 791.8 L 948.8 780.5 L 957.7 777.4 L 967.6 772 L 975 746.3 L 982.9 732.9 L 1003.6 729 L 1008.6 736.9 L 1023.4 753.7 L 1031.3 756.2 L 1041.7 751.2 L 1062.4 752.2 L 1066.3 758.1 L 1095 758.1 L 1096 752.2 L 1110.8 746.8 L 1113.8 738.4 L 1124.6 732.5 L 1148.8 749.2 L 1163.7 746.3 L 1178 725.5 L 1193.8 709.7 L 1191.3 692.4 L 1184.4 684 L 1201.7 682.6 L 1203.7 676.1 L 1217 678.1 L 1213.5 699.4 L 1217 720.1 L 1231.8 731.5 L 1235.3 741.3 L 1234.8 755.7 L 1238.8 756.2 L 1239.1 778.7 L 1234.8 787.5 L 1219.5 788.2 L 1209.7 804.6 L 1227.4 806.6 L 1242 820.6 L 1247 832.1 L 1260.2 838.8 L 1277.2 870.1 L 1257.7 889.1 L 1240 906.3 L 1222.3 919.5 L 1202 919.4 L 1178.9 926.2 L 1160.6 919.7 L 1148.7 927.6 Z" />
<path class="lake" d="M 685.7 652.3 L 685.8 652.7 L 685 653.2 L 684.4 653.8 L 684.1 654.7 L 683.4 655 L 682.2 654.8 L 681.4 654.8 L 679.2 655.1 L 678 655.9 L 676.1 657.4 L 674.4 658.1 L 672.9 657.8 L 672.3 657.3 L 671.8 654.9 L 671.8 654.4 L 672.5 654.1 L 672.7 653.7 L 673.2 652.6 L 673.3 652.1 L 673.4 652 L 673.9 651.2 L 673.9 650.6 L 674.2 649.8 L 675 649.2 L 676.3 648.5 L 678.7 647.6 L 680.3 647.6 L 681.4 648.4 L 683.2 648.5 L 683.6 648.9 L 684.7 650.6 L 685.7 652.3 L 685.7 652.3 L 685.7 652.3 Z" />
<path class="country" d="M 947.4 465.2 L 948.8 579.4 L 924 577.4 L 910.9 598.6 L 903.3 616.3 L 909.3 623.1 L 899.8 631.9 L 903.1 643.8 L 895.6 655.8 L 892.7 666.4 L 902.8 664.7 L 908.9 675.8 L 909.2 692.5 L 919.8 701 L 919.4 708 L 901.2 712.9 L 886.6 724.5 L 865.8 755.9 L 838.7 769.2 L 810.9 767.4 L 802.8 770.1 L 805.7 780.2 L 790.7 790.3 L 778.5 801.5 L 742.2 812.5 L 735 806 L 730.3 805.4 L 725 812.8 L 701.2 815 L 705.7 807.2 L 696.6 787.4 L 692.6 775.5 L 680 770.6 L 663.1 753.8 L 669.3 740.2 L 682.4 743.1 L 690.5 741.1 L 706.6 741.3 L 691 715.2 L 692 696.1 L 690.1 677 L 678.6 658.6 L 681.5 645 L 663.1 644.3 L 663.1 625.8 L 651.2 615.2 L 663.6 577.3 L 700.3 550.1 L 701.8 512.7 L 712.9 454.3 L 719.1 442 L 707.2 432.1 L 706.7 422.9 L 695.9 415.5 L 688.9 370.7 L 717.9 355 L 832.7 410.1 L 947.4 465.2 Z" />

<path class="river" d="M 829.3 811.7 L 826.3 811 L 825.3 809.9 L 825.3 808 L 823.3 806.3 L 819.4 804.8 L 817.8 801.6 L 818.3 797 L 816.4 791.2 L 810.1 781.1 L 811.4 779.5 L 810.1 777.8 L 805 774.3" />
<path class="river" d="M 604.7 755.5 L 600.6 755.3 L 594.6 757.8 L 585.2 763 L 579.2 767.8 L 576.4 772.5 L 574 775.5 L 572 776.9 L 567.6 778 L 560.8 778.7 L 555.6 781.4 L 551.8 786.1 L 548.6 789 L 544.9 790.5 L 535.8 794.9 L 531.9 797.3 L 530.2 799.1 L 524.6 801.5 L 515 804.5 L 504.3 804.1 L 486.8 798.7 L 475.1 797.8 L 467.5 799.3 L 456.5 804.3" />
<path class="river" d="M 858.7 1036.6 L 854.6 1037 L 851.5 1036.6 L 847.9 1035.5 L 845.6 1035.3 L 844.3 1035.8 L 843.4 1035.1 L 842.7 1033 L 841.5 1032.3 L 839.9 1033 L 837.8 1032.8 L 835.2 1031.6 L 833.1 1031.6 L 831.5 1032.8 L 828.8 1032.9 L 824.8 1031.8 L 820.1 1031.8 L 814.4 1033 L 811.1 1034.3 L 810.1 1035.7 L 808.9 1036 L 806.8 1034.8" />
<path class="river" d="M 650.7 804.8 L 655 802.6 L 656.2 800.6 L 655.9 798.2 L 656.8 796.3 L 660.1 794.4 L 663.2 791.5 L 664.3 789.4 L 664.4 787.2 L 663.7 785.3 L 662.4 783.8 L 662.3 781.2 L 663.4 777.5 L 662.2 774.4 L 658.7 772 L 655.2 768 L 651.9 762.6 L 649.3 760.6 L 647.5 762 L 644.8 763.1 L 641.3 763.9 L 638 763.2 L 633.5 760 L 630.5 758.8 L 627.5 759.5 L 623.5 761.6 L 619.9 760.8 L 616.7 756.8 L 612.4 755 L 604.7 755.5" />
<path class="river" d="M 805 774.3 L 803.7 774.9 L 801.3 774.1 L 797.4 772.1 L 793.2 768.4 L 786.1 760.4 L 773.5 748.8 L 768.6 743.3 L 767.4 740.1 L 765.7 737.1 L 761.4 732.3 L 759.8 730.8 L 757.8 729.7 L 755.6 729 L 753.7 727.7 L 752.2 725.7 L 750.8 724.6 L 749.6 724.3 L 747.1 725.1 L 743.3 726.7 L 739.5 727 L 735.8 725.8 L 731.7 723.6 L 727.1 720.5 L 722.4 718.6 L 717.6 718 L 713.6 716.8 L 710.5 715.1 L 708.1 713.3 L 706.5 711.5 L 705.6 709 L 705.3 705.9 L 704.3 702.1 L 702.4 697.8 L 701.8 693.7 L 702.4 689.8 L 701.3 686.3 L 698.4 683.1 L 695.3 680.8 M 695.3 680.8 L 691.7 682.1 L 688.6 681.2 L 684.3 679.1 L 681.2 677 L 679.3 674.7 L 676.3 673.4 L 672.2 673 L 670.1 672.2 L 669.4 669.7 M 695.3 680.8 L 691.9 679.5 L 689.7 675.5 L 688.8 668.8 L 686.3 664.4 L 682.3 662.3 L 680.1 659.7 L 679.2 655.1" />
<path class="river" d="M 1022.3 1266.5 L 1028.5 1265.1 L 1031 1264.3 L 1032 1263.5 L 1032.5 1262.3 L 1032.5 1260.7 L 1033.8 1259 L 1036.3 1257.3 L 1037.6 1255.8 L 1037.6 1254.8 L 1036.4 1253.1 L 1033.8 1250.7 L 1034.5 1245.2 L 1038.7 1236.5 L 1039.8 1229.7 L 1038 1224.6 L 1037.3 1220.3 L 1037.8 1216.6 L 1037.6 1213.3 L 1036.4 1210.4 L 1035.7 1206.1 L 1035.4 1200.7 L 1035.5 1195.9 L 1036.4 1190 M 960.5 1006.1 L 957.2 1002 L 952.2 999.2 L 944.5 996.2 L 936.6 989.9 L 928.6 980.2 L 922.4 974.6 L 915.7 972.4 L 910.6 968.1 L 906 966.4 L 900.1 965.9 L 893.7 965.9 L 886.5 966.5 L 880.1 967.8 L 874.5 969.8 L 864.2 971.2 L 849 971.8 L 834.2 974.9 L 812.3 983.3 L 800 993.3 L 794.6 998.3 L 792 1001.4 L 789.3 1008.6 L 785.2 1025.7 L 784.8 1026.7 L 782.6 1032.1 L 776.6 1039.8 L 772.4 1044.3 L 766.3 1050.8 L 758.7 1057.3 L 753.8 1059.2 L 750 1061.3 L 747.2 1063.8 L 746.4 1065.2 L 744.4 1068.1 L 739.8 1077.4 L 737.5 1081.5 L 734.4 1085 L 729.8 1089.2 L 728.1 1091.2 L 727.4 1094.1 L 727.7 1099.5 L 728.2 1115.7 L 727.4 1120.5 L 726.1 1128.2 L 721.6 1136.9 L 718.3 1141.7 L 714.9 1143.2 L 710.4 1144.5 L 708.3 1146.2 L 707 1148.6 L 704.5 1150.7 L 700.8 1152.5 L 696.2 1156.9 L 690.6 1163.9 L 686.8 1168 L 684.7 1169 L 682.6 1169.1 L 680.4 1168.3 L 678.6 1168.1 L 676.4 1169 L 671.1 1169.9 L 668.2 1170.8 L 665.9 1172.1 L 664.5 1173.9 L 664 1176.1 L 662.6 1178.3 L 660.4 1180.4 L 659.5 1181.1 L 658.9 1181.1 L 658 1180.4 L 657.2 1180.4 L 656.7 1181.1 L 655.5 1181.3 L 653.5 1181 L 652.1 1181.5 L 651.2 1182.7 L 651.4 1184.3 L 652.7 1186.3 L 652.6 1187.2 L 651.9 1187.7 L 651.5 1189 L 651.8 1191.2 L 650.3 1193.8 L 647.1 1196.6 L 644.3 1197.8 L 640.9 1197 L 637.6 1197.3" />
<path class="river" d="M 682.1 859.8 L 682.1 870.4 L 678.6 876.4 L 677.7 879.4 L 678.3 881.5 L 676.9 883.8 L 673.6 886.4 L 671.7 890.5 L 671.4 896.3 L 672.9 901.1 L 676.4 905.1 L 678.7 906.8 L 679.9 906.9 L 680.8 907.4 L 680.9 908 L 682.3 908.5 L 684 907.5 L 686.1 906.9 L 688.2 906.8 L 689.5 907.6 L 690.1 909.2 L 691.9 910.1 L 695 910.1 L 697.4 910.8 L 699.9 912.9 L 703.7 911.9 L 706.1 912.1 L 708.4 913.3 L 709.8 915.4 L 710.2 918.5 L 711.9 920.5 L 714.9 921.4 L 718.5 923.5 L 722.8 926.8 L 725 930.7 L 725.1 935.1 L 726.5 939.3 L 729.2 943.1 L 729.5 944.4 L 729 945.6 L 726.9 947.3 L 725.3 950.4 L 724.7 953.8 L 725 957.4 L 725.8 960.5 L 727.2 963.2 L 727 965.1 L 725.3 966.2 L 724.2 967.9 L 723.9 970.4 L 724.5 973.4 L 725.8 976.9 L 725.8 979.2 L 724.7 981" />
<path class="river" d="M 1135.4 961.4 L 1137.3 951.9 L 1135.2 947.3 L 1132.7 945.7 L 1129.3 945.8 L 1125 944.4 L 1119.7 941.5 L 1115.5 939.9 L 1112.4 939.5 L 1110.6 937.9 L 1110.2 935.1 L 1108.6 933.6 L 1105.9 933.5 L 1103 931.3 L 1099.9 926.8 L 1096.9 925 L 1094.2 925.9 L 1090.6 926 L 1084 925.1" />
<path class="river" d="M 863.9 817.3 L 860.9 819.7 L 859.1 820.4 L 857.5 820.3 L 856.4 821 L 855.6 822.7 L 854.2 824.1 L 851 825.8 L 848 826.4 L 845.7 826.2 L 843.1 825.4 L 840.1 823.8 L 836.5 821.3 L 833.4 818 L 829.3 811.7" />
<path class="river" d="M 683.5 835.8 L 684.7 836.9 L 684.2 839.1 L 681.5 844.6 L 677.9 847.2 L 676.8 849.5 L 676.8 852.4 L 676.4 854.7 L 675.5 856.6 L 673.4 858 L 670.2 859.1 L 668.1 861.3 L 667.3 864.6 L 666.3 866.3 L 665.2 866.3 L 664.1 867.2 L 663 868.9 L 661.8 869.7 L 660.5 869.5 L 660 870.3 L 660.3 872.2 L 658.7 874 L 655.1 875.7 L 652.7 876.1 L 650.8 874.4 L 649 873.7 L 647.8 874.3 L 646.5 875.8 L 646.1 878 L 646.6 880.6 L 645.9 883.1 L 644.2 885.3 L 642.3 886.5 L 639.2 886.6" />
<path class="river" d="M 1036.4 1190 L 1038.5 1183.3 L 1038.8 1180.6 L 1038.1 1179.8 L 1037.2 1175.9 L 1036.3 1169.1 L 1034.9 1164.7 L 1033 1162.7 L 1028.4 1159.5 L 1021 1155.1 L 1015.4 1150.8 L 1011.5 1146.8 L 1010 1142.4 L 1010.8 1137.8 L 1010 1133.5 L 1007.6 1129.8 L 1006.9 1125.3 L 1007.8 1120 L 1008.2 1115.5 L 1008.1 1111.7 L 1007.5 1109.2 L 1006.1 1107.5 M 1006.1 1107.7 L 1003.5 1099.2 L 1003.5 1089.3 L 1005 1075.2 L 1004.4 1065.6 L 1000.5 1057.7 L 996.2 1052 L 994.2 1048.2 L 993 1044.2 L 993.6 1039.6 L 996 1034.4 L 996.8 1029.6 L 996.1 1025.1 L 995 1021.8 L 992.7 1018.6 L 988.2 1015.3 L 984.8 1013.9 L 979 1013 L 974.9 1011.9 L 972 1010.5 L 968.9 1008.3 L 965.7 1006.9 L 960.5 1006.1" />
<path class="river" d="M 702.4 842.6 L 704.6 846.1 L 707.4 846.6 L 713.7 844.6 L 715.9 842.7 L 717.5 841.9 L 719.3 841.8 L 720.8 843.3 L 721.9 846.5 L 724.1 848.2 L 727.2 848.3 L 729.9 847.2 L 732.2 844.9 L 733.5 843 L 733.8 841.6 L 735.6 839.8 L 738.7 837.6 L 741 836.6 L 742.3 836.9 L 744.2 838.4 L 746.6 841.1 L 748.8 842.3 L 750.7 841.9 L 753.1 842.2 L 755.7 843.2 L 758.8 843 L 762.2 841.6 L 765.3 841 L 768.1 841.1 L 771.1 839.8 L 774.3 837.2 L 776.6 833.7 L 778 829.3 L 779.5 826.5 L 781.3 825.3 L 783.1 823.1 L 785.1 819.8 L 786.6 818.1 L 787.7 818.1 L 787.4 816.7 L 785.8 814 L 783.6 813.1 L 780.9 813.9 L 779 813.6 L 777.9 812.3 L 775.9 811.4 L 773.2 811 L 772.2 809.5 L 773.1 807.1 L 772.8 803.4 L 771.4 798.5 L 770.8 794.7 L 771.1 791.9 L 772.9 787.8 L 776.1 782.2 L 777.9 777 L 778.3 771.9 L 779.2 769.3 L 780.6 769.1 L 782.3 768 L 784.2 766 L 785.4 763.8 L 786.2 760.5" />
<path class="river" d="M 806.8 1034.8 L 802.6 1032 L 798.5 1030.5 L 793.1 1029.4 L 789.8 1028.2 L 788.6 1026.8 L 787.3 1026.2 L 784.8 1026.7" />
<path class="river" d="M 639.2 886.6 L 635.4 885.1 L 632.7 884.9 L 627.3 885.8 L 625 886.5 L 622.6 888.2 L 620.2 890.9 L 617.9 892.4 L 614.9 892.6 L 610.6 896.9 L 608.5 897.8 L 607.2 896.7 L 604.2 897.9 L 599.4 901.3 L 595.2 902 L 591.5 900 L 586.6 901.6 L 580.3 906.9 L 574 910.4 L 567.6 911.9 L 563.7 912.1 L 562.5 910.9 L 560.6 912.2 L 558 915.8 L 556.1 917.5 L 554.7 917.3 L 552.6 918.8 L 550 922 L 547.5 923.7 L 544.1 924.2 L 542.6 924.3" />
<path class="river" d="M 724.7 981 L 724.5 982 L 726.2 985.7 L 728 987.5 L 730 987.7 L 732.2 989.2 L 734.5 992.1 L 736.4 993.4 L 737.9 994.5 L 739.2 998.1 L 741 1007.9 L 742.9 1013.5 L 744.8 1014.7 L 746.7 1014.9 L 748 1015.4 L 748.5 1016.2 L 749.7 1016.7 L 750.4 1016.8 L 751.7 1017.2 L 752.8 1018.1 L 753.5 1019.4 L 753.6 1021.2 L 754.5 1022.2 L 755.9 1022.5 L 756.2 1023.7 L 755.3 1025.8 L 755.2 1028.5 L 755.8 1031.9 L 755.7 1034.7 L 755 1037.1 L 754.9 1038.5 L 755.5 1038.9 L 755.7 1039.8 L 755.3 1041.2 L 755.6 1042.1 L 756.6 1042.5 L 757.3 1044.5 L 757.5 1048.2 L 757.2 1049.9 L 755.9 1050.8 L 755.5 1052.8 L 753.7 1055 L 750.4 1057.6 L 748.2 1060.3 L 746.4 1065.2" />
<path class="river" d="M 969.2 1119.9 L 969.9 1114.7 L 968.9 1112 L 966.5 1110.2 L 964.8 1108.2 L 963.3 1105 L 962.7 1099.8 L 959.9 1095 L 954.6 1088.7 L 951.3 1081.2 L 949.8 1072.2 L 947.7 1068.9 L 945.5 1067.7 L 943.7 1066.8 L 942.6 1065.2 L 937.4 1063.4 L 928.1 1061.5 L 922.2 1059.2 L 919.6 1056.3 L 916.7 1054.6 L 913.6 1054 L 910.6 1053 L 907.7 1051.6 L 906 1050.2 L 905.3 1048.8 L 902.4 1047.3 L 894.6 1044.6 L 888.4 1042.5 L 885.4 1041.1 L 883.7 1039.7 L 882.3 1039.2 L 881.2 1039.6 L 879.4 1039.1 L 877.1 1037.7 L 874.5 1037 L 871.7 1037.2 L 869.4 1036.7 L 867.9 1035.7 L 866.6 1036.1 L 866 1035.7 L 865.1 1034.4 L 863.9 1034 L 862.2 1034.2 L 860.6 1034.9 L 859.9 1036.3 L 858.7 1036.6" />
<path class="river" d="M 796.6 922.7 L 797.4 933.5 L 793.6 944.4 L 785.6 959.1 L 781.5 970.6 L 781.6 979.1 L 781.1 984.4 L 779.8 987.6 L 776.7 996.4 L 776.2 1003.9 L 777.3 1013.1 L 776.2 1021.8 L 772.9 1030.1 L 771.5 1036.5 L 772.4 1044.3" />
<path class="river" d="M 1084 925.1 L 1079.5 923.6 L 1077.2 923.5 L 1075.5 924.3 L 1074.1 923.9 L 1072.8 922.2 L 1071.3 921.2 L 1069.5 920.9 L 1066.6 921.5 L 1062.4 923 L 1058.4 923.7 L 1054.5 923.7 L 1050.8 922.2 L 1047.3 919.1 L 1045 917.7 L 1043.7 918.1 L 1043.3 919.5 L 1043.6 922.1 L 1042.8 924.5 L 1041 926.6 L 1039.6 927.4 L 1038.6 926.8 L 1037.1 926.8 L 1034.9 927.4 L 1033.6 925.4 L 1033.1 920.9 L 1032.2 917.4 L 1030.9 914.8 L 1029.7 913.4 L 1028.5 913.1 L 1025.8 914.8 L 1019.3 920.2 L 1016.4 922.7 L 1014.2 923 L 1011.6 922 L 1009.3 921.6 L 1007.2 921.9 L 1005.6 923.3 L 1004.4 925.9 L 1002.8 926.6 L 1000.9 925.6 L 998.7 925.7 L 996.1 926.7 L 993.2 927.1 L 989.9 927 L 987.4 927.7 L 985.7 929.3 L 983.8 930.3 L 981.8 930.7 L 980.3 930.2 L 979.4 928.9 L 976.2 928.4 L 970.8 928.5 L 965.4 926.9 L 960 923.5 L 954.4 921.8 L 948.5 921.8 L 944.4 920.8 L 942.1 918.7 L 939 917.9 L 935.3 918.5 L 932 918.2 L 929.1 916.9 L 924.7 916.8 L 919 917.7 L 913.8 916.1 L 906.7 909.6 L 891.9 906.2 L 885.5 905.4 L 881.3 906.4 L 875.9 904.5 L 873.5 904.2 L 872.4 904.8 L 869.4 903.9 L 864.5 901.6 L 859.8 900.6 L 855.6 900.9 L 853.1 900.1 L 851 897.9 L 848.3 893.7 L 843.5 889.6 L 837.1 886.3 L 833.1 883.8 L 831.4 882.1 L 828 881.2 L 822.7 881 L 817.5 882.6 L 810.2 887.8 L 803.4 898.4 L 799.6 902.4 L 796.6 903.5 L 795.8 906 L 797.3 910.1 L 797.7 914.8 L 796.6 922.7" />
<g class="city"><circle cx="506.65416963377373" cy="683.2245375300346" r="5" /><text x="518.6541696337738" y="687.2245375300346">Kano</text></g>
<g class="city"><circle cx="540.8914349977592" cy="911.6613432308833" r="5" /><text x="552.8914349977592" y="915.6613432308833">Douala</text></g>
<g class="city"><circle cx="592.872561851087" cy="917.2347284287796" r="5" /><text x="604.872561851087" y="921.2347284287796">Yaoundé</text></g>
<g class="city"><circle cx="694.5093804367644" cy="679.9698835893255" r="5" /><text x="706.5093804367644" y="683.9698835893255">N'Djamena</text></g>
<g class="city"><circle cx="640.1552872050211" cy="687.5408187933358" r="5" /><text x="652.1552872050211" y="691.5408187933358">Maiduguri</text></g>
<g class="city"><circle cx="795.5301628523508" cy="902.9063848391852" r="5" /><text x="807.5301628523508" y="906.9063848391852">Bangui</text></g>
<g class="city"><circle cx="987.2005914511664" cy="1013.5816518162762" r="5" /><text x="999.2005914511664" y="1017.5816518162762">Kisangani</text></g>
<g class="city"><circle cx="533.6961463416312" cy="1017.4548450865176" r="5" /><text x="545.6961463416312" y="1021.4548450865176">Libreville</text></g>
<text class="map-title" x="80" y="105">Chad Physical Study Map</text>
<text class="map-subtitle" x="80" y="145">Landmark: Ennedi Massif Rocks | Study terrain and water systems</text>
  <text class="footer" x="80" y="1036">Made with Natural Earth. Free vector and raster map data @ naturalearthdata.com.</text>
</svg>
