<?xml version="1.0" encoding="UTF-8"?>
<svg xmlns="http://www.w3.org/2000/svg" width="1600" height="1100" viewBox="0 0 1600 1100" role="img" aria-labelledby="title desc">
  <title id="title">Chad Political Study Map</title>
  <desc id="desc">Made with Natural Earth. Free vector and raster map data @ naturalearthdata.com.</desc>
  <defs>
    <linearGradient id="terrain" x1="0" x2="1" y1="0" y2="1">
      <stop offset="0%" stop-color="#6c8c53" />
      <stop offset="42%" stop-color="#d5c487" />
      <stop offset="72%" stop-color="#b88b5f" />
      <stop offset="100%" stop-color="#f1f5ee" />
    </linearGradient>
    <filter id="softShadow" x="-10%" y="-10%" width="120%" height="120%">
      <feDropShadow dx="0" dy="10" stdDeviation="12" flood-color="#0f172a" flood-opacity="0.16" />
    </filter>
    <style>
      .neighbor { fill: #ffffff; stroke: #94a3b8; stroke-width: 1.2; opacity: 0.72; }
      .country { fill: #f7f1df; stroke: #1f2937; stroke-width: 4; filter: url(#softShadow); }
      .admin1 { fill: none; stroke: #64748b; stroke-width: 1.1; stroke-dasharray: 6 7; opacity: 0.75; }
      .river { fill: none; stroke: #1d9bd1; stroke-width: 3; stroke-linecap: round; opacity: 0.88; }
      .lake { fill: #8ed1ea; stroke: #0ea5e9; stroke-width: 1.5; opacity: 0.8; }
      .city circle { fill: #ef4444; stroke: #ffffff; stroke-width: 2; }
      .city text, .terrain-label { fill: #172033; font: 700 24px system-ui, sans-serif; paint-order: stroke; stroke: #ffffff; stroke-width: 5; stroke-linejoin: round; }
      .map-title { fill: #0f172a; font: 800 46px system-ui, sans-serif; }
      .map-subtitle { fill: #475569; font: 600 24px system-ui, sans-serif; }
      .footer { fill: #64748b; font: 500 18px system-ui, sans-serif; }
    </style>
  </defs>
  <rect width="100%" height="100%" fill="#eaf3f8" />
  <rect x="40" y="40" width="1520" height="1020" rx="32" fill="#ffffff" opacity="0.54" />
  <path class="neighbor" d="M 1105.7 1158 L 1110.9 1184.5 L 1108 1199.4 L 1113.8 1216.1 L 1130.5 1232.2 L 1146 1268.5 L 1146 1268.5 L 1134.7 1265.6 L 1096 1270.4 L 1088.3 1273.9 L 1080.1 1292.2 L 1086.6 1304.9 L 1081.5 1339 L 1077.9 1367.9 L 1085.7 1373 L 1105.8 1384.2 L 1113.7 1379 L 1116.1 1410 L 1094.1 1409.7 L 1082.3 1393.9 L 1071.6 1381.6 L 1049.6 1377.6 L 1043.1 1362.5 L 1025.6 1371.6 L 1002.5 1367.6 L 992.9 1354.6 L 974.6 1351.9 L 961.1 1352.6 L 959.5 1343.7 L 949.6 1342.9 L 936.5 1341.2 L 918.6 1345.5 L 906.1 1344.8 L 899 1347.5 L 900.6 1313.2 L 891 1302.6 L 888.9 1284.9 L 893.1 1267.5 L 887.3 1256.4 L 886.7 1238.3 L 851.8 1238.6 L 854.3 1228.2 L 839.6 1228.3 L 838.1 1233.3 L 820.3 1234.4 L 813 1251.2 L 808.7 1258.4 L 792.8 1254.3 L 783.3 1258.4 L 764.3 1260.7 L 753.3 1245.6 L 746.7 1236.3 L 738.4 1219.1 L 731.3 1197.6 L 646.4 1197.3 L 636.3 1200.7 L 628 1200.2 L 616.1 1204.1 L 612.1 1195.1 L 619.4 1192.1 L 620.3 1179.5 L 625 1172.2 L 635.5 1166.1 L 643 1169 L 652.9 1158 L 668.6 1158.3 L 670.4 1166.4 L 681.1 1171.5 L 698.1 1153.5 L 714.8 1139.5 L 722.1 1130.3 L 721.1 1106.6 L 733.6 1078.6 L 746.8 1063.8 L 765.8 1049.9 L 769.1 1040.8 L 769.8 1030.2 L 774.5 1020.2 L 773 1003.9 L 776.6 978.4 L 782.2 960.5 L 790.8 945.1 L 792.5 927.7 L 795.1 907.6 L 806.3 893 L 821.7 883.8 L 845.4 893.6 L 863.7 904.2 L 884.7 907 L 906.2 912.6 L 914.8 895.2 L 918.8 893 L 931.9 895.9 L 963.9 881.6 L 975.3 887.6 L 984.6 886.8 L 988.9 879.8 L 999.6 877.3 L 1021.2 880.3 L 1039.7 881 L 1049.2 878 L 1066.6 901.7 L 1079.5 905.2 L 1087.2 900.4 L 1100.5 902.3 L 1116.6 896.2 L 1123.4 908.5 L 1148.7 927.6 L 1148.7 927.6 L 1147 961.2 L 1158.5 965.1 L 1149.3 975.3 L 1138.2 983 L 1127.2 998 L 1121.2 1011.4 L 1119.5 1034.5 L 1112.9 1045.4 L 1112.6 1067.1 L 1104.4 1075.2 L 1103.3 1092.3 L 1099.3 1094.5 L 1096.7 1110.2 L 1103.9 1123.3 L 1105.7 1158 Z" />
<path class="neighbor" d="M 968.4 791.8 L 946.5 779.2 L 936.5 770.9 L 934.7 762 L 939.4 750 L 939.3 738.3 L 922.7 720.3 L 919.4 708 L 919.8 701 L 909.2 692.5 L 908.9 675.8 L 902.8 664.7 L 892.7 666.4 L 895.6 655.8 L 903.1 643.8 L 899.8 631.9 L 909.3 623.1 L 903.3 616.3 L 910.9 598.6 L 924 577.4 L 948.8 579.4 L 947.4 465.2 L 947.8 453.1 L 980.9 453 L 980.9 395.6 L 1096.5 395.6 L 1208.2 395.6 L 1322.3 395.6 L 1331.6 423.8 L 1325.3 429 L 1329.4 458.6 L 1340 493 L 1351 500.1 L 1366.7 510.7 L 1352.1 527.1 L 1331 531.8 L 1321.9 540.7 L 1319.1 559.8 L 1306.7 602.1 L 1309.7 613.6 L 1305.1 638.3 L 1293.4 666.6 L 1276.1 680.9 L 1263.7 702.9 L 1260.9 714.6 L 1247.2 722.7 L 1238.7 752.8 L 1239.1 778.7 L 1238.8 756.2 L 1234.8 755.7 L 1235.3 741.3 L 1231.8 731.5 L 1217 720.1 L 1213.5 699.4 L 1217 678.1 L 1203.7 676.1 L 1201.7 682.6 L 1184.4 684 L 1191.3 692.4 L 1193.8 709.7 L 1178 725.5 L 1163.7 746.3 L 1148.8 749.2 L 1124.6 732.5 L 1113.8 738.4 L 1110.8 746.8 L 1096 752.2 L 1095 758.1 L 1066.3 758.1 L 1062.4 752.2 L 1041.7 751.2 L 1031.3 756.2 L 1023.4 753.7 L 1008.6 736.9 L 1003.6 729 L 982.9 732.9 L 975 746.3 L 967.6 772 L 957.7 777.4 L 948.8 780.5 L 968.4 791.8 Z" />
<path class="neighbor" d="M -1224.7 909 L -1241.7 935.3 L -1250.6 956.5 L -1261.6 967.4 L -1275.4 969.5 L -1279.3 961.4 L -1285.7 960.2 L -1294.6 968 L -1307.2 962 L -1299.9 949.9 L -1297.3 936.8 L -1292.3 924.4 L -1303.6 907.3 L -1305.9 887.7 L -1290.9 862.9 L -1281.1 866.1 L -1260 872.9 L -1229.5 897.2 L -1224.7 909 Z M 439.6 -394.6 L 453.1 -387.1 L 494.6 -381.8 L 480.1 -362.1 L 476.4 -341.6 L 468.5 -336.7 L 455.4 -339.3 L 456.3 -332 L 435.3 -315.8 L 434.9 -302.8 L 448.6 -307.3 L 458.5 -294.7 L 457.3 -286.6 L 465.8 -275.8 L 455.8 -267 L 463.2 -244.8 L 478.8 -241.1 L 475.5 -228.6 L 449.4 -212.4 L 392.7 -220.1 L 350.8 -210.8 L 347.5 -193.5 L 314.1 -189.8 L 281.8 -202.8 L 271.3 -196.6 L 218.3 -209.6 L 206.9 -220.8 L 221.7 -238.1 L 227.2 -295.4 L 197.5 -325.6 L 176.3 -340.1 L 132.3 -351.2 L 129.4 -372.2 L 166.7 -378.5 L 215.1 -371.1 L 205.9 -403.6 L 233.1 -391.3 L 300.1 -413.7 L 308.7 -437.3 L 333.9 -443.1 L 338.1 -433 L 351.4 -432.5 L 364.8 -421 L 384.9 -407.4 L 399.7 -409.6 L 424.8 -396.5 L 431.3 -394 L 439.6 -394.6 Z M 513.2 -198 L 531.7 -208.9 L 536.6 -184.3 L 527.1 -162 L 514.1 -167.9 L 507.4 -187.3 L 513.2 -198 Z" />
<path class="neighbor" d="M 688.9 370.7 L 695.9 415.5 L 706.7 422.9 L 707.2 432.1 L 719.1 442 L 712.9 454.3 L 701.8 512.7 L 700.3 550.1 L 663.6 577.3 L 651.2 615.2 L 663.1 625.8 L 663.1 644.3 L 681.5 645 L 678.6 658.6 L 670.5 660.2 L 669.6 669.4 L 664.2 670 L 644.8 638.5 L 638 637.4 L 615.5 653.4 L 593.2 645 L 577.8 643.4 L 569.5 647.4 L 552.6 646.5 L 535.6 658.8 L 520.9 659.5 L 486.1 644.6 L 472.5 651.7 L 457.8 651.2 L 447 640.3 L 418.2 629.6 L 387.3 633 L 379.8 639.2 L 375.7 655.8 L 367.5 667.4 L 365.5 693.1 L 343.5 676.5 L 333.2 676.6 L 323.6 685 L 324.2 665.3 L 291 658.8 L 290.1 644.8 L 273.9 626.1 L 270.1 613 L 272.4 599 L 290.8 597.9 L 301.4 587.7 L 340.7 585.2 L 366.3 580.6 L 368.7 562.9 L 384.4 543.7 L 384.4 477.4 L 424.9 464.6 L 508.2 408.1 L 606.8 353.2 L 652.3 365.6 L 668.5 381.4 L 688.9 370.7 Z" />
<path class="neighbor" d="M 339 848.5 L 340.7 802.1 L 339.9 783.8 L 345.4 765.6 L 354.2 756.8 L 368.2 739 L 365.2 731.3 L 370.8 719.7 L 364.4 702.6 L 365.5 693.1 L 367.5 667.4 L 375.7 655.8 L 379.8 639.2 L 387.3 633 L 418.2 629.6 L 447 640.3 L 457.8 651.2 L 472.5 651.7 L 486.1 644.6 L 520.9 659.5 L 535.6 658.8 L 552.6 646.5 L 569.5 647.4 L 577.8 643.4 L 593.2 645 L 615.5 653.4 L 638 637.4 L 644.8 638.5 L 664.2 670 L 669.6 669.4 L 681 680.8 L 677.9 686 L 676.3 695.6 L 652.1 717.8 L 644.5 736.2 L 640.4 751.2 L 634.3 757.6 L 628.5 777.7 L 613.1 789.6 L 608.7 804.1 L 602.2 815.7 L 599.5 827.7 L 579.8 837.4 L 563.6 825.5 L 552.7 826 L 535.6 842.9 L 527.2 843.1 L 513.5 870.9 L 506.1 891.2 L 476.3 901.6 L 465.4 900.1 L 454.3 906.5 L 431.3 905.9 L 415.9 887.9 L 406.4 867.1 L 386 848.1 L 364.4 848.5 L 339 848.5 Z" />
<path class="neighbor" d="M 678.6 658.6 L 690.1 677 L 692 696.1 L 691 715.2 L 706.6 741.3 L 690.5 741.1 L 682.4 743.1 L 669.3 740.2 L 663.1 753.8 L 680 770.6 L 692.6 775.5 L 696.6 787.4 L 705.7 807.2 L 701.2 815 L 686.7 844.2 L 679.8 849.4 L 677.6 871.7 L 680.5 883.8 L 678.1 892.4 L 691.7 907.4 L 694.2 917.7 L 704.8 932.6 L 718 941.8 L 719.3 955 L 722.3 963.3 L 720.2 978.8 L 697.4 972 L 674.1 964.4 L 637.8 963.3 L 634.2 961.7 L 617.2 965.5 L 599.7 961.6 L 586 963.5 L 539.2 962.8 L 543.4 940.1 L 532.2 921.1 L 519 916.2 L 513.2 903.3 L 505.8 899.2 L 506.1 891.2 L 513.5 870.9 L 527.2 843.1 L 535.6 842.9 L 552.7 826 L 563.6 825.5 L 579.8 837.4 L 599.5 827.7 L 602.2 815.7 L 608.7 804.1 L 613.1 789.6 L 628.5 777.7 L 634.3 757.6 L 640.4 751.2 L 644.5 736.2 L 652.1 717.8 L 676.3 695.6 L 677.9 686 L 681 680.8 L 669.6 669.4 L 670.5 660.2 L 678.6 658.6 Z" />
<path class="neighbor" d="M 1049.2 878 L 1039.7 881 L 1021.2 880.3 L 999.6 877.3 L 988.9 879.8 L 984.6 886.8 L 975.3 887.6 L 963.9 881.6 L 931.9 895.9 L 918.8 893 L 914.8 895.2 L 906.2 912.6 L 884.7 907 L 863.7 904.2 L 845.4 893.6 L 821.7 883.8 L 806.3 893 L 795.1 907.6 L 792.5 927.7 L 774 926.1 L 754.5 921.3 L 737.4 936.5 L 722.3 963.3 L 719.3 955 L 718 941.8 L 704.8 932.6 L 694.2 917.7 L 691.7 907.4 L 678.1 892.4 L 680.5 883.8 L 677.6 871.7 L 679.8 849.4 L 686.7 844.2 L 701.2 815 L 725 812.8 L 730.3 805.4 L 735 806 L 742.2 812.5 L 778.5 801.5 L 790.7 790.3 L 805.7 780.2 L 802.8 770.1 L 810.9 767.4 L 838.7 769.2 L 865.8 755.9 L 886.6 724.5 L 901.2 712.9 L 919.4 708 L 922.7 720.3 L 939.3 738.3 L 939.4 750 L 934.7 762 L 936.5 770.9 L 946.5 779.2 L 968.4 791.8 L 984.2 803.4 L 984.4 812.8 L 1003.8 827.7 L 1015.8 840.2 L 1023 857.4 L 1044.6 868.8 L 1049.2 878 Z" />
<path class="neighbor" d="M 792.5 927.7 L 790.8 945.1 L 782.2 960.5 L 776.6 978.4 L 773 1003.9 L 774.5 1020.2 L 769.8 1030.2 L 769.1 1040.8 L 765.8 1049.9 L 746.8 1063.8 L 733.6 1078.6 L 721.1 1106.6 L 722.1 1130.3 L 714.8 1139.5 L 698.1 1153.5 L 681.1 1171.5 L 670.4 1166.4 L 668.6 1158.3 L 652.9 1158 L 643 1169 L 635.5 1166.1 L 624.7 1156.2 L 616 1161.1 L 604.4 1173.5 L 580.8 1143 L 602.7 1127.1 L 591.8 1108.1 L 601.7 1100.9 L 621.1 1097.4 L 623.4 1084.6 L 638.8 1098.4 L 664.2 1099.6 L 673 1086 L 676.6 1066.9 L 673.5 1044.4 L 659.9 1027.4 L 672.3 994.1 L 665.1 988.4 L 643.7 990.7 L 635.7 975.9 L 637.8 963.3 L 674.1 964.4 L 697.4 972 L 720.2 978.8 L 722.3 963.3 L 737.4 936.5 L 754.5 921.3 L 774 926.1 L 792.5 927.7 Z" />
<path class="neighbor" d="M 586 963.5 L 599.7 961.6 L 617.2 965.5 L 634.2 961.7 L 637.8 963.3 L 635.7 975.9 L 643.7 990.7 L 665.1 988.4 L 672.3 994.1 L 659.9 1027.4 L 673.5 1044.4 L 676.6 1066.9 L 673 1086 L 664.2 1099.6 L 638.8 1098.4 L 623.4 1084.6 L 621.1 1097.4 L 601.7 1100.9 L 591.8 1108.1 L 602.7 1127.1 L 580.8 1143 L 551.2 1114 L 532.2 1090.2 L 514.7 1060.5 L 515.6 1051 L 521.9 1041.8 L 528.9 1020.8 L 534.7 999.5 L 544.4 997.8 L 586.3 998.1 L 586 963.5 Z" />
<path class="neighbor" d="M 539.2 962.8 L 586 963.5 L 586.3 998.1 L 544.4 997.8 L 534.7 999.5 L 529.3 995.1 L 539.2 962.8 Z" />
<path class="neighbor" d="M 534.4 156.5 L 522.1 104.9 L 504.4 93.3 L 504.1 86.3 L 480.6 69.2 L 478.1 47.5 L 495.8 31.4 L 502.6 7.7 L 498 -19.7 L 503.9 -34.5 L 535.2 -46.1 L 555.3 -42.6 L 554.5 -28.1 L 578.9 -38.7 L 580.9 -33.1 L 566.6 -19 L 566.4 -5.7 L 576.3 1.4 L 572.5 26.3 L 553.6 40.8 L 559.1 56.5 L 573.9 57 L 581.2 70.6 L 592.1 75.1 L 590.5 97.2 L 576.5 105.5 L 567.6 114.7 L 547.9 125.8 L 550.9 137.7 L 548.4 149.9 L 534.4 156.5 Z" />
<path class="neighbor" d="M 11.7 240.3 L 12.3 234.7 L 12.2 232.8 L 12 198.7 L 58.5 177.5 L 87.2 173.1 L 110.7 165.4 L 121.8 151 L 155.4 139.6 L 156.6 118.3 L 173.3 115.8 L 186.3 105.1 L 223.9 100.3 L 229.2 89.1 L 221.6 83 L 211.7 52.6 L 210 35.1 L 199.1 16.7 L 226.8 1 L 257.9 -4 L 276.1 -15.9 L 303.8 -24.7 L 352.5 -29.8 L 400.1 -32.1 L 414.6 -27.9 L 441.7 -39.2 L 472.5 -39.4 L 484.2 -32.7 L 503.9 -34.5 L 498 -19.7 L 502.6 7.7 L 495.8 31.4 L 478.1 47.5 L 480.6 69.2 L 504.1 86.3 L 504.4 93.3 L 522.1 104.9 L 534.4 156.5 L 543.7 181.9 L 545.3 195.3 L 540.2 218.8 L 542.3 231.9 L 538.6 247.6 L 541.1 265.7 L 529.7 277.8 L 546.7 298.7 L 547.8 311.1 L 558 327.1 L 571.5 321.8 L 594.2 335.2 L 606.8 353.2 L 508.2 408.1 L 424.9 464.6 L 384.4 477.4 L 352.4 480.2 L 352.1 461.9 L 338.8 457.2 L 320.9 449 L 314 435.5 L 217 372.8 L 119.9 310 L 11.7 240.3 Z" />
<path class="neighbor" d="M 1322.3 395.6 L 1208.2 395.6 L 1096.5 395.6 L 980.9 395.6 L 980.9 289.6 L 980.9 187.3 L 972.2 164.1 L 979.7 146.3 L 975.2 134 L 985.6 120.2 L 1023.9 119.8 L 1051.6 127.4 L 1080.1 135.9 L 1093.5 140.4 L 1115.6 131.2 L 1127.5 123 L 1152.8 120.6 L 1173.3 124.3 L 1181.1 138.5 L 1187.8 129.1 L 1210.9 135.9 L 1233.3 137.5 L 1247.5 130.3 L 1247.5 130.3 L 1263.5 172.3 L 1266.4 179.7 L 1258.3 191.3 L 1252.1 213 L 1244.3 228 L 1237.6 233 L 1228 223.8 L 1215 210.9 L 1194.5 169.7 L 1191.5 172.3 L 1203.4 202.6 L 1221.1 231.6 L 1242.8 276.4 L 1253.5 292 L 1262.7 308.3 L 1288.5 340.1 L 1282.8 345.1 L 1283.7 363.8 L 1317.2 389.7 L 1322.3 395.6 Z" />
<path class="neighbor" d="M 980.9 395.6 L 980.9 453 L 947.8 453.1 L 947.4 465.2 L 832.7 410.1 L 717.9 355 L 688.9 370.7 L 668.5 381.4 L 652.3 365.6 L 606.8 353.2 L 594.2 335.2 L 571.5 321.8 L 558 327.1 L 547.8 311.1 L 546.7 298.7 L 529.7 277.8 L 541.1 265.7 L 538.6 247.6 L 542.3 231.9 L 540.2 218.8 L 545.3 195.3 L 543.7 181.9 L 534.4 156.5 L 548.4 149.9 L 550.9 137.7 L 547.9 125.8 L 567.6 114.7 L 576.5 105.5 L 590.5 97.2 L 592.1 75.1 L 625.9 85 L 638 82.6 L 662 87.4 L 700.2 100.2 L 713.7 125.8 L 739.5 131.4 L 780.1 143.4 L 810.7 157.7 L 824.8 150.3 L 838.5 137 L 831.8 115 L 840.9 101 L 861.6 87.5 L 881.4 83.6 L 920.3 89.5 L 930.1 102.3 L 940.9 102.5 L 950 107.4 L 978.6 110.7 L 985.6 120.2 L 975.2 134 L 979.7 146.3 L 972.2 164.1 L 980.9 187.3 L 980.9 289.6 L 980.9 395.6 Z" />
<path class="neighbor" d="M 1148.7 927.6 L 1123.4 908.5 L 1116.6 896.2 L 1100.5 902.3 L 1087.2 900.4 L 1079.5 905.2 L 1066.6 901.7 L 1049.2 878 L 1044.6 868.8 L 1023 857.4 L 1015.8 840.2 L 1003.8 827.7 L 984.4 812.8 L 984.2 803.4 L 968.4 791.8 L 948.8 780.5 L 957.7 777.4 L 967.6 772 L 975 746.3 L 982.9 732.9 L 1003.6 729 L 1008.6 736.9 L 1023.4 753.7 L 1031.3 756.2 L 1041.7 751.2 L 1062.4 752.2 L 1066.3 758.1 L 1095 758.1 L 1096 752.2 L 1110.8 746.8 L 1113.8 738.4 L 1124.6 732.5 L 1148.8 749.2 L 1163.7 746.3 L 1178 725.5 L 1193.8 709.7 L 1191.3 692.4 L 1184.4 684 L 1201.7 682.6 L 1203.7 676.1 L 1217 678.1 L 1213.5 699.4 L 1217 720.1 L 1231.8 731.5 L 1235.3 741.3 L 1234.8 755.7 L 1238.8 756.2 L 1239.1 778.7 L 1234.8 787.5 L 1219.5 788.2 L 1209.7 804.6 L 1227.4 806.6 L 1242 820.6 L 1247 832.1 L 1260.2 838.8 L 1277.2 870.1 L 1257.7 889.1 L 1240 906.3 L 1222.3 919.5 L 1202 919.4 L 1178.9 926.2 L 1160.6 919.7 L 1148.7 927.6 Z" />

<path class="country" d="M 947.4 465.2 L 948.8 579.4 L 924 577.4 L 910.9 598.6 L 903.3 616.3 L 909.3 623.1 L 899.8 631.9 L 903.1 643.8 L 895.6 655.8 L 892.7 666.4 L 902.8 664.7 L 908.9 675.8 L 909.2 692.5 L 919.8 701 L 919.4 708 L 901.2 712.9 L 886.6 724.5 L 865.8 755.9 L 838.7 769.2 L 810.9 767.4 L 802.8 770.1 L 805.7 780.2 L 790.7 790.3 L 778.5 801.5 L 742.2 812.5 L 735 806 L 730.3 805.4 L 725 812.8 L 701.2 815 L 705.7 807.2 L 696.6 787.4 L 692.6 775.5 L 680 770.6 L 663.1 753.8 L 669.3 740.2 L 682.4 743.1 L 690.5 741.1 L 706.6 741.3 L 691 715.2 L 692 696.1 L 690.1 677 L 678.6 658.6 L 681.5 645 L 663.1 644.3 L 663.1 625.8 L 651.2 615.2 L 663.6 577.3 L 700.3 550.1 L 701.8 512.7 L 712.9 454.3 L 719.1 442 L 707.2 432.1 L 706.7 422.9 L 695.9 415.5 L 688.9 370.7 L 717.9 355 L 832.7 410.1 L 947.4 465.2 Z" />


<g class="city"><circle cx="506.65416963377373" cy="683.2245375300346" r="5" /><text x="518.6541696337738" y="687.2245375300346">Kano</text></g>
<g class="city"><circle cx="540.8914349977592" cy="911.6613432308833" r="5" /><text x="552.8914349977592" y="915.6613432308833">Douala</text></g>
<g class="city"><circle cx="592.872561851087" cy="917.2347284287796" r="5" /><text x="604.872561851087" y="921.2347284287796">Yaoundé</text></g>
<g class="city"><circle cx="694.5093804367644" cy="679.9698835893255" r="5" /><text x="706.5093804367644" y="683.9698835893255">N'Djamena</text></g>
<g class="city"><circle cx="640.1552872050211" cy="687.5408187933358" r="5" /><text x="652.1552872050211" y="691.5408187933358">Maiduguri</text></g>
<g class="city"><circle cx="795.5301628523508" cy="902.9063848391852" r="5" /><text x="807.5301628523508" y="906.9063848391852">Bangui</text></g>
<g class="city"><circle cx="987.2005914511664" cy="1013.5816518162762" r="5" /><text x="999.2005914511664" y="1017.5816518162762">Kisangani</text></g>
<g class="city"><circle cx="533.6961463416312" cy="1017.4548450865176" r="5" /><text x="545.6961463416312" y="1021.4548450865176">Libreville</text></g>
<text class="map-title" x="80" y="105">Chad Political Study Map</text>
<text class="map-subtitle" x="80" y="145">Capital: N'Djamena | Continent: Africa</text>
  <text class="footer" x="80" y="1036">Made with Natural Earth. Free vector and raster map data @ naturalearthdata.com.</text>
</svg>
