<?xml version="1.0" encoding="UTF-8"?>
<svg xmlns="http://www.w3.org/2000/svg" width="1600" height="1100" viewBox="0 0 1600 1100" role="img" aria-labelledby="title desc">
  <title id="title">Togo Political Study Map</title>
  <desc id="desc">Made with Natural Earth. Free vector and raster map data @ naturalearthdata.com.</desc>
  <defs>
    <linearGradient id="terrain" x1="0" x2="1" y1="0" y2="1">
      <stop offset="0%" stop-color="#6c8c53" />
      <stop offset="42%" stop-color="#d5c487" />
      <stop offset="72%" stop-color="#b88b5f" />
      <stop offset="100%" stop-color="#f1f5ee" />
    </linearGradient>
    <filter id="softShadow" x="-10%" y="-10%" width="120%" height="120%">
      <feDropShadow dx="0" dy="10" stdDeviation="12" flood-color="#0f172a" flood-opacity="0.16" />
    </filter>
    <style>
      .neighbor { fill: #ffffff; stroke: #94a3b8; stroke-width: 1.2; opacity: 0.72; }
      .country { fill: #f7f1df; stroke: #1f2937; stroke-width: 4; filter: url(#softShadow); }
      .admin1 { fill: none; stroke: #64748b; stroke-width: 1.1; stroke-dasharray: 6 7; opacity: 0.75; }
      .river { fill: none; stroke: #1d9bd1; stroke-width: 3; stroke-linecap: round; opacity: 0.88; }
      .lake { fill: #8ed1ea; stroke: #0ea5e9; stroke-width: 1.5; opacity: 0.8; }
      .city circle { fill: #ef4444; stroke: #ffffff; stroke-width: 2; }
      .city text, .terrain-label { fill: #172033; font: 700 24px system-ui, sans-serif; paint-order: stroke; stroke: #ffffff; stroke-width: 5; stroke-linejoin: round; }
      .map-title { fill: #0f172a; font: 800 46px system-ui, sans-serif; }
      .map-subtitle { fill: #475569; font: 600 24px system-ui, sans-serif; }
      .footer { fill: #64748b; font: 500 18px system-ui, sans-serif; }
    </style>
  </defs>
  <rect width="100%" height="100%" fill="#eaf3f8" />
  <rect x="40" y="40" width="1520" height="1020" rx="32" fill="#ffffff" opacity="0.54" />
  <path class="neighbor" d="M -3950.7 975.2 L -4004.1 1057.9 L -4031.9 1124.5 L -4066.5 1158.8 L -4109.8 1165.2 L -4122.1 1139.8 L -4142.3 1136 L -4170.3 1160.5 L -4209.8 1141.9 L -4186.7 1103.9 L -4178.8 1062.5 L -4163 1023.7 L -4198.5 970.1 L -4205.6 908.3 L -4158.6 830.6 L -4127.9 840.5 L -4061.3 861.9 L -3965.6 938.2 L -3950.7 975.2 Z M 1277.1 -3119.5 L 1319.7 -3095.9 L 1449.9 -3079.2 L 1404.2 -3017.3 L 1392.8 -2952.9 L 1368 -2937.5 L 1326.8 -2945.8 L 1329.7 -2922.9 L 1263.6 -2872.1 L 1262.3 -2831.1 L 1305.4 -2845.3 L 1336.5 -2805.7 L 1332.7 -2780.1 L 1359.3 -2746.2 L 1328 -2718.7 L 1351.3 -2648.7 L 1400.3 -2637.3 L 1389.9 -2598.1 L 1308.1 -2547 L 1129.8 -2571.5 L 998.2 -2542.1 L 987.8 -2487.7 L 883.1 -2476 L 781.4 -2516.9 L 748.5 -2497.3 L 582.1 -2538.4 L 546.1 -2573.6 L 592.9 -2627.8 L 610.1 -2807.8 L 516.8 -2902.7 L 450.2 -2948.4 L 312 -2983.2 L 302.9 -3049.1 L 420.1 -3068.7 L 571.9 -3045.5 L 543.2 -3147.8 L 628.5 -3109 L 839 -3179.5 L 866.1 -3253.5 L 945.1 -3271.8 L 958.2 -3240 L 1000.2 -3238.5 L 1042.2 -3202.2 L 1105.3 -3159.6 L 1151.7 -3166.7 L 1230.8 -3125.5 L 1251 -3117.6 L 1277.1 -3119.5 Z M 1508.4 -2501.7 L 1566.6 -2536.2 L 1582 -2458.8 L 1552.1 -2388.9 L 1511.1 -2407.3 L 1490.2 -2468.2 L 1508.4 -2501.7 Z" />
<path class="neighbor" d="M -322.6 226.3 L -318.5 198.1 L -326.2 163.2 L -360 137.8 L -377.8 86 L -382 29.8 L -351.6 13.3 L -336.4 -39.9 L -307.7 -42 L -244.6 -16.8 L -193.6 -34.7 L -158.7 -28.7 L -145.1 -48.8 L 217.5 -50.2 L 237.6 -113.4 L 221.9 -124.6 L 178.3 -514.6 L 134.7 -904.7 L 273 -906.3 L 577.9 -709.1 L 882.7 -511.9 L 904.2 -469.6 L 960.5 -443.7 L 1002.3 -429 L 1003.4 -371.5 L 1103.6 -380.4 L 1103.9 -172.2 L 1054.5 -111.8 L 1046.8 -56.2 L 966.5 -41.8 L 843.2 -34.1 L 809.8 -1.9 L 751.8 1.6 L 693.9 2 L 671.3 -15.3 L 621.6 -2.4 L 537.1 35 L 519.9 63.3 L 449.8 103.8 L 437.5 127 L 399.6 145.4 L 355.9 133.2 L 331.1 155.3 L 317.9 217.3 L 246.1 292.2 L 248.2 322.8 L 223.6 361.1 L 229.5 413.6 L 192.3 427 L 171.1 438.4 L 157.2 399.7 L 131.1 409.9 L 115.5 408.1 L 98.8 434.5 L 29 433.8 L 4 420.2 L -7.8 428.4 L -35.4 402.3 L -30.6 375.4 L -41.9 364.9 L -61.1 373.8 L -57.6 344.4 L -39.1 321.1 L -76.1 283.3 L -86.9 258.3 L -106.9 238.5 L -125 236.1 L -146.7 248.8 L -175.9 260.8 L -200.7 280.4 L -239.4 273.2 L -264.5 250.2 L -279.5 247.2 L -303.1 259.3 L -317.4 259.4 L -322.6 226.3 Z" />
<path class="neighbor" d="M 961.2 785.2 L 886.5 795.7 L 864.3 733.4 L 868.4 525.8 L 850.2 507.2 L 846.8 462.8 L 815.4 431.2 L 787.8 404.5 L 799.3 356.9 L 830.3 346.7 L 848.8 307.2 L 892.9 298.7 L 912.7 271.7 L 943 245.3 L 975.4 245 L 1044.3 297 L 1040.8 327.1 L 1061.1 380.7 L 1043.3 417 L 1052.8 441.4 L 1009 497.3 L 981.2 525 L 964.1 582 L 966.4 639.5 L 961.2 785.2 Z" />
<path class="neighbor" d="M 2060.2 -715.4 L 2082.4 -575 L 2116.2 -551.5 L 2117.6 -522.7 L 2155.2 -491.7 L 2135.6 -452.8 L 2100.8 -269.4 L 2096 -151.9 L 1980.7 -66.7 L 1941.7 52.4 L 1979.3 85.9 L 1979.1 144 L 2037.1 146.1 L 2028 188.6 L 2002.5 193.8 L 1999.6 222.6 L 1982.8 224.6 L 1921.7 125.7 L 1900.4 122.1 L 1829.8 172.6 L 1759.8 146.2 L 1711.2 140.9 L 1685.1 153.6 L 1632.1 150.9 L 1578.8 189.4 L 1532.7 191.6 L 1423.3 144.9 L 1380.5 167.1 L 1334.4 165.5 L 1300.5 131.4 L 1209.9 97.7 L 1112.8 108.4 L 1089.2 127.9 L 1076.5 179.9 L 1050.6 216.3 L 1044.3 297 L 975.4 245 L 943 245.3 L 912.7 271.7 L 914.7 209.8 L 810.5 189.3 L 807.7 145.6 L 756.8 86.6 L 744.7 45.4 L 751.8 1.6 L 809.8 -1.9 L 843.2 -34.1 L 966.5 -41.8 L 1046.8 -56.2 L 1054.5 -111.8 L 1103.9 -172.2 L 1103.6 -380.4 L 1231.1 -420.7 L 1492.7 -598.2 L 1802.4 -770.5 L 1945.4 -731.5 L 1996.2 -681.8 L 2060.2 -715.4 Z" />
<path class="neighbor" d="M 961.2 785.2 L 966.4 639.5 L 964.1 582 L 981.2 525 L 1009 497.3 L 1052.8 441.4 L 1043.3 417 L 1061.1 380.7 L 1040.8 327.1 L 1044.3 297 L 1050.6 216.3 L 1076.5 179.9 L 1089.2 127.9 L 1112.8 108.4 L 1209.9 97.7 L 1300.5 131.4 L 1334.4 165.5 L 1380.5 167.1 L 1423.3 144.9 L 1532.7 191.6 L 1578.8 189.4 L 1632.1 150.9 L 1685.1 153.6 L 1711.2 140.9 L 1759.8 146.2 L 1829.8 172.6 L 1900.4 122.1 L 1921.7 125.7 L 1982.8 224.6 L 1999.6 222.6 L 2035.4 258.6 L 2025.5 274.9 L 2020.8 305 L 1944.6 374.9 L 1920.7 432.6 L 1908 479.5 L 1888.8 499.7 L 1870.6 562.9 L 1822.3 600.2 L 1808.3 645.9 L 1788 682.3 L 1779.5 719.9 L 1717.4 750.3 L 1666.7 713.2 L 1632.4 714.7 L 1578.6 767.6 L 1552.4 768.4 L 1509.4 855.6 L 1486.2 919.6 L 1392.4 952.1 L 1358.1 947.3 L 1323.3 967.6 L 1251 965.6 L 1202.6 909.1 L 1172.9 843.7 L 1108.9 784.1 L 1041 785.2 L 961.2 785.2 Z" />
<path class="neighbor" d="M 720.1 355 L 713.5 383.2 L 751.2 429.8 L 751 495.4 L 759.6 566.6 L 782.3 599.6 L 762.3 681 L 769.5 725.9 L 793.6 783.3 L 813.8 815 L 672.1 867.9 L 621.8 898.9 L 540.4 925.1 L 459.8 899.4 L 463.9 863.8 L 424.7 785.9 L 448.3 683.9 L 486.4 608 L 462.4 479.4 L 450.1 411.3 L 452.2 360.1 L 609.2 355.8 L 649.1 362.4 L 678.3 347.8 L 720.1 355 Z" />
<path class="neighbor" d="M 229.5 413.6 L 223.6 361.1 L 248.2 322.8 L 246.1 292.2 L 317.9 217.3 L 331.1 155.3 L 355.9 133.2 L 399.6 145.4 L 437.5 127 L 449.8 103.8 L 519.9 63.3 L 537.1 35 L 621.6 -2.4 L 671.3 -15.3 L 693.9 2 L 751.8 1.6 L 744.7 45.4 L 756.8 86.6 L 807.7 145.6 L 810.5 189.3 L 914.7 209.8 L 912.7 271.7 L 892.9 298.7 L 848.8 307.2 L 830.3 346.7 L 799.3 356.9 L 720.1 355 L 678.3 347.8 L 649.1 362.4 L 609.2 355.8 L 452.2 360.1 L 450.1 411.3 L 462.4 479.4 L 400.6 456.1 L 358.2 459.5 L 326.6 482.2 L 286 463.2 L 270.2 433.3 L 229.5 413.6 Z" />

<path class="country" d="M 799.3 356.9 L 787.8 404.5 L 815.4 431.2 L 846.8 462.8 L 850.2 507.2 L 868.4 525.8 L 864.3 733.4 L 886.5 795.7 L 813.8 815 L 793.6 783.3 L 769.5 725.9 L 762.3 681 L 782.3 599.6 L 759.6 566.6 L 751 495.4 L 751.2 429.8 L 713.5 383.2 L 720.1 355 L 799.3 356.9 Z" />


<g class="city"><circle cx="698.2013401193946" cy="849.0588406916123" r="5" /><text x="710.2013401193946" y="853.0588406916123">Accra</text></g>
<g class="city"><circle cx="828.295199559122" cy="796.4687559247874" r="5" /><text x="840.295199559122" y="800.4687559247874">Lomé</text></g>
<g class="city"><circle cx="909.0822451371308" cy="129.0626286262156" r="5" /><text x="921.0822451371308" y="133.0626286262156">Niamey</text></g>
<g class="city"><circle cx="935.2592112333479" cy="775.7638778784029" r="5" /><text x="947.2592112333479" y="779.7638778784029">Cotonou</text></g>
<g class="city"><circle cx="954.4434221474328" cy="764.8888394440302" r="5" /><text x="966.4434221474328" y="768.8888394440302">Porto-Novo</text></g>
<g class="city"><circle cx="954.7516044201739" cy="506.7117161721035" r="5" /><text x="966.7516044201739" y="510.7117161721035">Parakou</text></g>
<g class="city"><circle cx="819.1864703149113" cy="670.2893536050705" r="5" /><text x="831.1864703149113" y="674.2893536050705">Atakpamé</text></g>
<text class="map-title" x="80" y="105">Togo Political Study Map</text>
<text class="map-subtitle" x="80" y="145">Capital: Lomé | Continent: Africa</text>
  <text class="footer" x="80" y="1036">Made with Natural Earth. Free vector and raster map data @ naturalearthdata.com.</text>
</svg>
