<?xml version="1.0" encoding="UTF-8"?>
<svg xmlns="http://www.w3.org/2000/svg" width="1600" height="1100" viewBox="0 0 1600 1100" role="img" aria-labelledby="title desc">
  <title id="title">Thailand Political Study Map</title>
  <desc id="desc">Made with Natural Earth. Free vector and raster map data @ naturalearthdata.com.</desc>
  <defs>
    <linearGradient id="terrain" x1="0" x2="1" y1="0" y2="1">
      <stop offset="0%" stop-color="#6c8c53" />
      <stop offset="42%" stop-color="#d5c487" />
      <stop offset="72%" stop-color="#b88b5f" />
      <stop offset="100%" stop-color="#f1f5ee" />
    </linearGradient>
    <filter id="softShadow" x="-10%" y="-10%" width="120%" height="120%">
      <feDropShadow dx="0" dy="10" stdDeviation="12" flood-color="#0f172a" flood-opacity="0.16" />
    </filter>
    <style>
      .neighbor { fill: #ffffff; stroke: #94a3b8; stroke-width: 1.2; opacity: 0.72; }
      .country { fill: #f7f1df; stroke: #1f2937; stroke-width: 4; filter: url(#softShadow); }
      .admin1 { fill: none; stroke: #64748b; stroke-width: 1.1; stroke-dasharray: 6 7; opacity: 0.75; }
      .river { fill: none; stroke: #1d9bd1; stroke-width: 3; stroke-linecap: round; opacity: 0.88; }
      .lake { fill: #8ed1ea; stroke: #0ea5e9; stroke-width: 1.5; opacity: 0.8; }
      .city circle { fill: #ef4444; stroke: #ffffff; stroke-width: 2; }
      .city text, .terrain-label { fill: #172033; font: 700 24px system-ui, sans-serif; paint-order: stroke; stroke: #ffffff; stroke-width: 5; stroke-linejoin: round; }
      .map-title { fill: #0f172a; font: 800 46px system-ui, sans-serif; }
      .map-subtitle { fill: #475569; font: 600 24px system-ui, sans-serif; }
      .footer { fill: #64748b; font: 500 18px system-ui, sans-serif; }
    </style>
  </defs>
  <rect width="100%" height="100%" fill="#eaf3f8" />
  <rect x="40" y="40" width="1520" height="1020" rx="32" fill="#ffffff" opacity="0.54" />
  <path class="neighbor" d="M 2034.4 1074 L 2034.9 1175.8 L 2035.4 1277.6 L 2007.6 1252 L 1975.9 1245.7 L 1968.2 1254.6 L 1928.6 1255.5 L 1941.9 1230.1 L 1961.6 1221.4 L 1953.4 1187.5 L 1938.4 1161.2 L 1877.9 1134.8 L 1852.1 1132.2 L 1805.2 1103.3 L 1796 1118.5 L 1784 1121.3 L 1776.9 1109.8 L 1776.8 1096.2 L 1752.9 1080.9 L 1786.6 1069.6 L 1808.9 1070.2 L 1806.2 1062 L 1760.5 1061.9 L 1748.1 1043.3 L 1720.2 1037.5 L 1707 1022.1 L 1749.1 1014.5 L 1765.1 1004.3 L 1815.3 1017.1 L 1820.2 1028.8 L 1828.9 1079.3 L 1861.3 1098 L 1887.4 1064.8 L 1923.2 1046 L 1951 1046 L 1977.7 1056.9 L 2000.9 1068 L 2034.4 1074 Z M 1533.6 1270.6 L 1536.8 1276.7 L 1537.4 1286.2 L 1517 1309.5 L 1490.2 1316.4 L 1486.5 1312.6 L 1489.3 1302 L 1502.7 1283 L 1533.6 1270.6 Z M 1822.3 1208.2 L 1819.2 1184.6 L 1824.8 1173.4 L 1831.3 1162.9 L 1838.4 1172 L 1838.4 1186.9 L 1822.3 1208.2 Z M 1312.3 863.5 L 1294.5 891.7 L 1317.5 921.3 L 1312.1 935.7 L 1347.1 964.6 L 1310.1 968.3 L 1299.7 989.6 L 1301 1017.9 L 1271 1039.2 L 1270.1 1070.4 L 1258.1 1118.1 L 1253.5 1107 L 1218 1121.1 L 1205.6 1102 L 1183.4 1100.2 L 1167.8 1090.2 L 1130.7 1101.4 L 1119.3 1086.3 L 1098.8 1088 L 1073 1084.4 L 1068.3 1042.5 L 1052.7 1033.9 L 1037.7 1007.1 L 1033.3 979.8 L 1037 950.9 L 1055.5 930.1 L 1060.8 951 L 1082.1 968.6 L 1102.3 962.3 L 1122.2 964.5 L 1140.4 948.7 L 1155.4 946 L 1184.9 954.7 L 1210.4 948.1 L 1226.4 904.6 L 1238.5 893.8 L 1249.3 858.3 L 1285.2 858.3 L 1312.3 863.5 Z M 1671.1 1080.3 L 1705.5 1089.4 L 1716.9 1113.3 L 1690.5 1100.4 L 1664.4 1097.8 L 1646.8 1099.9 L 1625.2 1098.8 L 1632.6 1081.6 L 1671.1 1080.3 Z M 1593.2 1111.2 L 1571.6 1105.5 L 1565.5 1092 L 1597.1 1090.5 L 1604.9 1100.8 L 1593.2 1111.2 Z M 1626.2 924.9 L 1628.4 941.9 L 1646.9 944.6 L 1649.8 957.4 L 1648.2 984.7 L 1632.1 981.6 L 1627.3 1000.7 L 1640.2 1017.1 L 1631.4 1020.9 L 1618.8 1001.1 L 1609.6 961.2 L 1615.8 936.2 L 1626.2 924.9 Z M 1469.9 965.4 L 1505.8 964.1 L 1536.7 941.4 L 1542.1 948.4 L 1517 979.4 L 1493.5 985.4 L 1463.5 979.3 L 1411.4 980.9 L 1384.1 985.4 L 1379.7 1009 L 1407.7 1036.8 L 1424.5 1022.6 L 1482.8 1012 L 1480.2 1026.4 L 1466.6 1021.9 L 1453 1040.2 L 1425.5 1052.3 L 1455.1 1092.3 L 1449.4 1103 L 1477.5 1139.1 L 1477.2 1159.6 L 1460.5 1168.8 L 1448.3 1157.8 L 1463.4 1132.2 L 1432.7 1144.3 L 1424.9 1135.7 L 1429 1123.6 L 1406.5 1105.3 L 1408.8 1074.9 L 1388 1084.4 L 1390.6 1120.8 L 1391.9 1165.5 L 1372.1 1170 L 1358.6 1160.8 L 1367.6 1132.1 L 1362.8 1101.9 L 1349.6 1101.7 L 1339.9 1080.3 L 1352.8 1059.8 L 1357.3 1035 L 1373 988 L 1379.5 975.1 L 1406.1 951.9 L 1430.5 961.1 L 1469.9 965.4 Z M 1387.6 1313.2 L 1346.2 1291.3 L 1375.3 1285.2 L 1391.7 1294.7 L 1402.6 1304.2 L 1400.8 1312.6 L 1387.6 1313.2 Z M 1420.3 1259.4 L 1441.1 1257.1 L 1469.1 1245.6 L 1464.5 1263 L 1417.6 1271.8 L 1376.1 1268 L 1375.9 1256.6 L 1400.8 1250.1 L 1420.3 1259.4 Z M 1324.1 1254 L 1343.4 1251.4 L 1351.1 1264.7 L 1315 1271 L 1293.4 1275.2 L 1276.6 1274.9 L 1287.3 1256.9 L 1304.5 1256.7 L 1312.8 1245.7 L 1324.1 1254 Z M 1018.8 1193.4 L 1023.1 1204.5 L 1082.9 1207.6 L 1089.8 1194.7 L 1147.7 1209.7 L 1159.1 1230 L 1206 1235.7 L 1244.3 1254.3 L 1208.6 1266.2 L 1174.3 1253.6 L 1146 1254.4 L 1113.6 1252.1 L 1084.4 1246.5 L 1048.2 1234.6 L 1025.3 1231.5 L 1012.3 1235.4 L 955.3 1222.5 L 949.9 1209.1 L 921.3 1206.8 L 942.7 1176.9 L 980.6 1178.8 L 1005.8 1191 L 1018.8 1193.4 Z M 890.2 1026.7 L 895.5 1048.5 L 906.4 1065.9 L 929.3 1068.6 L 944.5 1088.4 L 936.7 1127.3 L 935.4 1175.6 L 900.8 1176.2 L 874.5 1150.1 L 834.4 1124.6 L 821 1105.7 L 797.4 1080.2 L 781.9 1056.8 L 758.1 1013.1 L 730.7 987.1 L 721.5 960.2 L 710 935.8 L 681.8 916.1 L 665.5 889.4 L 642 871.9 L 609.4 837.5 L 606.7 821.6 L 626.8 822.9 L 675.1 828.9 L 702.8 859.4 L 726.9 880.6 L 744.1 893.6 L 773.7 927.2 L 805.5 927.7 L 831.7 949.1 L 849.8 975.2 L 873.6 989.5 L 861.1 1015 L 879 1025.9 L 890.2 1026.7 Z" />
<path class="neighbor" d="M 834.4 612.1 L 827 574.4 L 847 548.4 L 887.4 542.5 L 916.7 546.9 L 942.5 559.2 L 956.6 537.6 L 984.3 549.1 L 991.5 570 L 987.7 607.4 L 935.2 631.4 L 948.9 650.4 L 916.1 652.6 L 889.1 665.2 L 862.9 660.7 L 850.2 644.4 L 834.4 612.1 Z" />
<path class="neighbor" d="M 984.3 549.1 L 956.6 537.6 L 942.5 559.2 L 916.7 546.9 L 926.9 532.9 L 928.3 506.4 L 903 479.2 L 901 448.4 L 877.3 423 L 853.7 420.9 L 847.4 431.7 L 829.1 432.6 L 819.7 427.1 L 786.8 445.8 L 786.1 417.8 L 793.7 384.8 L 772.6 383.4 L 770.8 364.6 L 757.3 355 L 764 343.5 L 790.6 323.2 L 793.4 330.5 L 810 331.4 L 805.3 295.6 L 821.5 291.1 L 839.7 315.7 L 853.8 344.1 L 892.2 344.4 L 904.3 371.6 L 884.4 379.8 L 875.4 391 L 912.8 409.7 L 938.8 446.6 L 958.5 474.1 L 982.1 495.9 L 990 517.9 L 984.3 549.1 Z" />
<path class="neighbor" d="M 757.3 355 L 739.4 362.2 L 721.2 375.8 L 699.1 377.2 L 684.9 410.9 L 671.7 416.6 L 686.8 444 L 706.6 466.8 L 719.4 487.4 L 708 514.6 L 697.2 520.4 L 704.7 536 L 725.5 560.9 L 729.1 578.3 L 728.6 592.8 L 740.8 621.3 L 723.6 650.4 L 708.5 682.5 L 705.5 659.3 L 715.1 635.4 L 704.6 616.9 L 707.1 582.9 L 694.5 566.7 L 684.3 529.3 L 678.6 489.9 L 665.1 464 L 644.5 479.7 L 609 501.9 L 591.5 499.1 L 572.2 491.8 L 582.9 453.1 L 576.4 423.9 L 551.9 387.8 L 555.8 376.6 L 537.5 372.6 L 515.3 347.1 L 513.3 322 L 524.2 326.7 L 524.8 304.3 L 540.2 296.9 L 536.9 283.6 L 544 273 L 545.2 240.7 L 569.6 247.8 L 583.5 222 L 585.1 206.8 L 602.4 180.6 L 601.4 162.7 L 641.8 141.1 L 664.2 146.8 L 661.6 127.6 L 672.6 121.8 L 670.2 110 L 688.5 107.7 L 698.9 126.1 L 712.5 133.5 L 713.5 157.4 L 712.2 183.2 L 682.6 209.3 L 678.9 246.3 L 711.8 241.1 L 719.3 269.9 L 739.1 275.9 L 730 301.9 L 753.2 313.6 L 766.7 319.4 L 789.6 310.3 L 790.6 323.2 L 764 343.5 L 757.3 355 Z" />
<path class="neighbor" d="M 889.1 665.2 L 916.1 652.6 L 948.9 650.4 L 935.2 631.4 L 987.7 607.4 L 991.5 570 L 984.3 549.1 L 990 517.9 L 982.1 495.9 L 958.5 474.1 L 938.8 446.6 L 912.8 409.7 L 875.4 391 L 884.4 379.8 L 904.3 371.6 L 892.2 344.4 L 853.8 344.1 L 839.7 315.7 L 821.5 291.1 L 838.2 283.4 L 863.2 283.6 L 893.5 280 L 920.2 263.3 L 935.2 275.1 L 963.8 280.8 L 958.8 298.8 L 973.7 311.5 L 1005.2 319.6 L 963.4 346.3 L 937.4 375.8 L 930.6 397.5 L 954.4 430.4 L 983.7 471.2 L 1012 490.5 L 1031 515.6 L 1045.3 573.4 L 1041.1 628.3 L 1015 648.9 L 979.2 669 L 953.8 695.1 L 914.8 724.2 L 903.5 704.1 L 912.3 683 L 889.1 665.2 Z" />
<path class="neighbor" d="M 670.2 110 L 672.6 121.8 L 661.6 127.6 L 664.2 146.8 L 641.8 141.1 L 601.4 162.7 L 602.4 180.6 L 585.1 206.8 L 583.5 222 L 569.6 247.8 L 545.2 240.7 L 544 273 L 536.9 283.6 L 540.2 296.9 L 524.8 304.3 L 508.4 254.7 L 499.7 254.8 L 494.6 274.8 L 477.5 258.6 L 487.2 240.8 L 501.2 239 L 515.6 212.6 L 497.5 207.3 L 468.6 207.7 L 438.9 203.4 L 436.1 181.7 L 421.2 180.2 L 396.4 166.7 L 385.4 187.9 L 408 204.4 L 388.4 216.1 L 381.5 227.4 L 400.7 235.8 L 395.4 254.6 L 406.2 278.1 L 411.1 303.8 L 406.6 315.2 L 385.4 314.9 L 346.9 321.3 L 348.7 344.8 L 332 363.3 L 287 384.3 L 252.1 421.1 L 228.6 440.8 L 197.5 461.2 L 197.4 475.6 L 181.8 483.3 L 153.7 494.5 L 139.1 496.1 L 129.8 520 L 136.3 560.6 L 137.9 586.5 L 124.7 616.2 L 124.5 669.3 L 108.4 670.8 L 94.1 694.6 L 103.7 704.9 L 75.2 713.7 L 64.7 735 L 52.1 744 L 22.5 714.8 L 8.1 671.1 L -3.9 639.5 L -14.8 624.8 L -31.4 594.8 L -39.2 555.7 L -44.6 536.2 L -73 493.3 L -85.9 432.8 L -95.3 392.8 L -95.2 354.9 L -101.2 325.7 L -146.7 344.4 L -168.7 340.6 L -209.5 302.8 L -194.5 291.5 L -203.7 279.2 L -240.3 252.7 L -219.5 231.9 L -150.8 232 L -157 205.2 L -174.6 189.3 L -178.1 165.3 L -198.6 151.2 L -164.1 118.5 L -127.9 120.9 L -95.2 88.1 L -75.6 56.4 L -45.3 25.1 L -45.8 2.8 L -19.1 -15.3 L -44.3 -30.7 L -55.2 -51.8 L -66.3 -79.2 L -50.9 -92.6 L -3.6 -85 L 31.3 -89.7 L 61.4 -115.9 L 95 -79.3 L 91.8 -53.8 L 104.3 -37.8 L 103.2 -21.9 L 80.8 -26.1 L 89.6 8.3 L 120.3 28.1 L 163.7 50 L 143.9 64.1 L 131.7 93.3 L 162 105.2 L 191.4 120.5 L 232.2 138 L 275 142.1 L 293 158 L 317.1 160.9 L 354.7 168.2 L 380.7 167.7 L 384.3 155.3 L 380.2 135.5 L 382.6 122 L 401.7 115.4 L 404.3 140 L 405 146.3 L 433.4 158.2 L 453 153.3 L 479.4 155.4 L 504.8 154.4 L 507 135.3 L 494.3 125.3 L 519.5 121.4 L 548 98.2 L 584 78.3 L 610.2 85.9 L 632.4 72.8 L 647.1 92.2 L 636.5 105.3 L 670.2 110 Z" />
<path class="neighbor" d="M 1049.7 424.3 L 1024 414.7 L 1023.1 387.8 L 1038.5 373.6 L 1072.7 364.9 L 1090.6 365.6 L 1097.6 377.6 L 1083.9 391.3 L 1076.7 409.3 L 1049.7 424.3 Z M 137.1 -330.1 L 134.6 -347.9 L 156 -356 L 127.9 -410.3 L 189.8 -422.8 L 205.8 -429.7 L 228.3 -485.6 L 290.3 -475.4 L 307.7 -489.5 L 309.1 -520.8 L 335.1 -523.7 L 358.9 -544.5 L 371.1 -547.1 L 379.3 -525.3 L 405.5 -508.7 L 450.1 -497 L 471.7 -471.8 L 459.6 -435.3 L 470.9 -421.8 L 508 -416.4 L 550.1 -412.1 L 587.8 -392.6 L 607.1 -389.2 L 621.3 -360.4 L 639.7 -341.8 L 674.1 -342.5 L 738.6 -335.5 L 780.1 -339.9 L 811 -335.2 L 857.2 -316.3 L 895 -316.3 L 908.8 -306.6 L 945.2 -323.3 L 995.6 -334.2 L 1042.4 -335.4 L 1078.9 -346.4 L 1101.3 -363.1 L 1123.2 -373.6 L 1118.1 -383.9 L 1108.2 -395.9 L 1124.6 -416 L 1142.1 -413.2 L 1174.3 -406.9 L 1205.4 -423.5 L 1253 -435.6 L 1275.9 -456.2 L 1297.9 -465.1 L 1343.3 -469.2 L 1367.9 -465.7 L 1371.3 -476.8 L 1343 -498.7 L 1317.9 -508.6 L 1293.9 -497.1 L 1263.1 -502 L 1245.4 -498 L 1237.4 -510.8 L 1259.5 -542 L 1274.7 -565.6 L 1312.2 -553.8 L 1356.2 -573.5 L 1355.9 -587.2 L 1384.1 -620.4 L 1401.5 -630.4 L 1401.1 -647.6 L 1384 -655.1 L 1409.8 -670.6 L 1448.6 -676.2 L 1490 -677.1 L 1536.7 -667.8 L 1564.2 -656.3 L 1583.5 -624.8 L 1595.2 -611.3 L 1606.1 -592.1 L 1617.6 -561.5 L 1672 -551.6 L 1709 -529.4 L 1721.6 -500 L 1769.1 -500 L 1796.2 -512.3 L 1847.8 -521.5 L 1831.4 -493.4 L 1819.2 -482 L 1808.5 -447.7 L 1787.5 -417.4 L 1749.6 -422.9 L 1722.8 -411.9 L 1731 -385.1 L 1726.5 -348.2 L 1710.6 -347.4 L 1710.8 -331.5 L 1690.6 -349.9 L 1678.2 -332.4 L 1629.9 -319 L 1634.8 -302.5 L 1607.8 -303.6 L 1593 -313.4 L 1571.5 -291.3 L 1537.1 -274.5 L 1511.7 -254.4 L 1468 -245.4 L 1445 -230.8 L 1411.4 -222.2 L 1428 -236.7 L 1421.4 -248.9 L 1446.2 -269.9 L 1429.7 -286.2 L 1402.4 -275.2 L 1367.2 -253.5 L 1347.9 -233.3 L 1317.3 -231.8 L 1301.3 -217.2 L 1317.8 -196.1 L 1343.4 -191 L 1344.4 -177 L 1369.1 -167.8 L 1404.1 -190.2 L 1431.9 -178 L 1452.1 -177.2 L 1457.1 -160.8 L 1412.9 -152.1 L 1398.3 -135.2 L 1367.9 -119.5 L 1351.9 -97.7 L 1385.5 -80.5 L 1397.8 -49.8 L 1416.8 -21.2 L 1438 2.8 L 1437.5 26 L 1417.9 34.6 L 1425.4 51.2 L 1443.8 60.9 L 1439 86.4 L 1431 111.1 L 1413.6 113.9 L 1390.8 147.7 L 1365.5 188.7 L 1336.5 226 L 1293.5 254.8 L 1250.1 281.1 L 1214.9 284.7 L 1195.8 298.6 L 1185 288.5 L 1167.3 304 L 1123.6 319.6 L 1090.6 324.4 L 1079.9 357.4 L 1062.6 359.2 L 1054.4 336.6 L 1061.8 324.5 L 1019.9 314.5 L 1005.2 319.6 L 973.7 311.5 L 958.8 298.8 L 963.8 280.8 L 935.2 275.1 L 920.2 263.3 L 893.5 280 L 863.2 283.6 L 838.2 283.4 L 821.5 291.1 L 805.3 295.6 L 810 331.4 L 793.4 330.5 L 790.6 323.2 L 789.6 310.3 L 766.7 319.4 L 753.2 313.6 L 730 301.9 L 739.1 275.9 L 719.3 269.9 L 711.8 241.1 L 678.9 246.3 L 682.6 209.3 L 712.2 183.2 L 713.5 157.4 L 712.5 133.5 L 698.9 126.1 L 688.5 107.7 L 670.2 110 L 636.5 105.3 L 647.1 92.2 L 632.4 72.8 L 610.2 85.9 L 584 78.3 L 548 98.2 L 519.5 121.4 L 494.3 125.3 L 480.7 116.9 L 464.1 116.1 L 441.8 108.9 L 425 116.8 L 404.3 140 L 401.7 115.4 L 382.6 122 L 346.2 119 L 310.9 111.8 L 285.5 98.1 L 261.2 91.9 L 250.8 76.9 L 233.2 72.4 L 201.7 52.1 L 176.6 42.5 L 163.7 50 L 120.3 28.1 L 89.6 8.3 L 80.8 -26.1 L 103.2 -21.9 L 104.3 -37.8 L 91.8 -53.8 L 95 -79.3 L 61.4 -115.9 L 10 -128.6 L 0.8 -152.6 L -22.3 -167.1 L -27.8 -176.1 L -32.5 -193.9 L -31.4 -206 L -50.4 -213.1 L -60.7 -210 L -68.6 -238.9 L -59.7 -246.1 L -64 -253.4 L -34.2 -268.1 L -12.6 -274.2 L 20.5 -270 L 32.3 -290 L 72.3 -293.7 L 83.5 -306.1 L 132.7 -323 L 137.1 -330.1 Z" />
<path class="neighbor" d="M 756.4 790.9 L 761.8 785.3 L 787.3 799 L 789.7 815 L 810.4 811.3 L 820.6 798.4 L 827.8 801.4 L 846.2 820.2 L 859.3 841.1 L 861.1 862.2 L 857.8 876.4 L 860.8 887.1 L 863.1 905.6 L 874.1 914.2 L 886.4 941.8 L 885.8 952.4 L 863.6 954.5 L 834.1 931.3 L 797.1 906.5 L 793.5 890.6 L 775.4 869.7 L 771.1 843.9 L 759.8 826.8 L 763.3 804.1 L 756.4 790.9 Z M 1312.3 863.5 L 1285.2 858.3 L 1249.3 858.3 L 1238.5 893.8 L 1226.4 904.6 L 1210.4 948.1 L 1184.9 954.7 L 1155.4 946 L 1140.4 948.7 L 1122.2 964.5 L 1102.3 962.3 L 1082.1 968.6 L 1060.8 951 L 1055.5 930.1 L 1078.4 940.8 L 1102.6 935 L 1108.9 908.5 L 1122.2 902.6 L 1159.6 895.9 L 1182 871.2 L 1197.4 851.4 L 1211.6 867.6 L 1218.2 857 L 1233.1 857.9 L 1234.9 838 L 1236.3 822.6 L 1260.4 800.9 L 1276.1 776.5 L 1288.8 776.4 L 1304.8 792.2 L 1306.2 805.8 L 1326.8 814.5 L 1352.9 823.9 L 1350.6 836.1 L 1329.7 837.6 L 1335.3 852.9 L 1312.3 863.5 Z" />

<path class="country" d="M 916.7 546.9 L 887.4 542.5 L 847 548.4 L 827 574.4 L 834.4 612.1 L 806.4 597.8 L 779.7 598.4 L 784.3 573.8 L 756.7 574 L 754.3 608.4 L 737.4 654 L 727.3 681.6 L 729.4 704.2 L 749.8 705.2 L 762.4 733.7 L 768 760.7 L 785.5 778.6 L 804.4 782.2 L 820.6 798.4 L 810.4 811.3 L 789.7 815 L 787.3 799 L 761.8 785.3 L 756.4 790.9 L 744 778.9 L 738.7 763.4 L 722.1 745.8 L 707 730.9 L 701.8 749.3 L 695.9 732 L 699.3 712.5 L 708.5 682.5 L 723.6 650.4 L 740.8 621.3 L 728.6 592.8 L 729.1 578.3 L 725.5 560.9 L 704.7 536 L 697.2 520.4 L 708 514.6 L 719.4 487.4 L 706.6 466.8 L 686.8 444 L 671.7 416.6 L 684.9 410.9 L 699.1 377.2 L 721.2 375.8 L 739.4 362.2 L 757.3 355 L 770.8 364.6 L 772.6 383.4 L 793.7 384.8 L 786.1 417.8 L 786.8 445.8 L 819.7 427.1 L 829.1 432.6 L 847.4 431.7 L 853.7 420.9 L 877.3 423 L 901 448.4 L 903 479.2 L 928.3 506.4 L 926.9 532.9 L 916.7 546.9 Z" />


<g class="city"><circle cx="769.7705131699621" cy="563.2180680687411" r="5" /><text x="781.7705131699621" y="567.2180680687411">Bangkok</text></g>
<g class="city"><circle cx="963.0695409204081" cy="656.6089196145226" r="5" /><text x="975.0695409204081" y="660.6089196145226">Ho Chi Minh City</text></g>
<g class="city"><circle cx="874.0739461864105" cy="952.3273329799558" r="5" /><text x="886.0739461864105" y="956.3273329799558">Singapore</text></g>
<g class="city"><circle cx="936.3651150248811" cy="335.71400293865486" r="5" /><text x="948.3651150248811" y="339.71400293865486">Hanoi</text></g>
<g class="city"><circle cx="633.8937305121271" cy="468.4673451186456" r="5" /><text x="645.8937305121271" y="472.4673451186456">Yangon</text></g>
<g class="city"><circle cx="963.541458622863" cy="162.4552346774848" r="5" /><text x="975.541458622863" y="166.4552346774848">Guiyang</text></g>
<g class="city"><circle cx="837.9512199328747" cy="210.53192870577374" r="5" /><text x="849.9512199328747" y="214.53192870577374">Kunming</text></g>
<g class="city"><circle cx="763.9814623549196" cy="823.6765324416598" r="5" /><text x="775.9814623549196" y="827.6765324416598">George Town</text></g>
<text class="map-title" x="80" y="105">Thailand Political Study Map</text>
<text class="map-subtitle" x="80" y="145">Capital: Bangkok | Continent: Asia</text>
  <text class="footer" x="80" y="1036">Made with Natural Earth. Free vector and raster map data @ naturalearthdata.com.</text>
</svg>
