<?xml version="1.0" encoding="UTF-8"?>
<svg xmlns="http://www.w3.org/2000/svg" width="1600" height="1100" viewBox="0 0 1600 1100" role="img" aria-labelledby="title desc">
  <title id="title">Tajikistan Political Study Map</title>
  <desc id="desc">Made with Natural Earth. Free vector and raster map data @ naturalearthdata.com.</desc>
  <defs>
    <linearGradient id="terrain" x1="0" x2="1" y1="0" y2="1">
      <stop offset="0%" stop-color="#6c8c53" />
      <stop offset="42%" stop-color="#d5c487" />
      <stop offset="72%" stop-color="#b88b5f" />
      <stop offset="100%" stop-color="#f1f5ee" />
    </linearGradient>
    <filter id="softShadow" x="-10%" y="-10%" width="120%" height="120%">
      <feDropShadow dx="0" dy="10" stdDeviation="12" flood-color="#0f172a" flood-opacity="0.16" />
    </filter>
    <style>
      .neighbor { fill: #ffffff; stroke: #94a3b8; stroke-width: 1.2; opacity: 0.72; }
      .country { fill: #f7f1df; stroke: #1f2937; stroke-width: 4; filter: url(#softShadow); }
      .admin1 { fill: none; stroke: #64748b; stroke-width: 1.1; stroke-dasharray: 6 7; opacity: 0.75; }
      .river { fill: none; stroke: #1d9bd1; stroke-width: 3; stroke-linecap: round; opacity: 0.88; }
      .lake { fill: #8ed1ea; stroke: #0ea5e9; stroke-width: 1.5; opacity: 0.8; }
      .city circle { fill: #ef4444; stroke: #ffffff; stroke-width: 2; }
      .city text, .terrain-label { fill: #172033; font: 700 24px system-ui, sans-serif; paint-order: stroke; stroke: #ffffff; stroke-width: 5; stroke-linejoin: round; }
      .map-title { fill: #0f172a; font: 800 46px system-ui, sans-serif; }
      .map-subtitle { fill: #475569; font: 600 24px system-ui, sans-serif; }
      .footer { fill: #64748b; font: 500 18px system-ui, sans-serif; }
    </style>
  </defs>
  <rect width="100%" height="100%" fill="#eaf3f8" />
  <rect x="40" y="40" width="1520" height="1020" rx="32" fill="#ffffff" opacity="0.54" />
  <path class="neighbor" d="M 2321.1 -391.4 L 2249.4 -328.7 L 2171.2 -319.9 L 2166.7 -225.4 L 2114.3 -182.8 L 1927.4 -213.8 L 1859.5 -45.2 L 1811.2 -24.2 L 1624.7 13.4 L 1709.4 177 L 1644.8 201.6 L 1652.3 255.3 L 1594.3 241.4 L 1547 207.6 L 1407.3 197.7 L 1251.1 195.2 L 1216.9 205.5 L 1082.7 165.9 L 1029.3 185.4 L 1014.6 241 L 859.7 208.6 L 797.7 221.9 L 776.6 263.1 L 722.6 280.6 L 598.3 346.2 L 557.1 413.6 L 522 414.2 L 496.2 369.6 L 376.4 366.5 L 357.3 289.4 L 311.4 288.7 L 318.4 194.2 L 205.6 125.4 L 44.1 132.8 L -66.4 146.5 L -156.3 61.6 L -233.4 26 L -379.4 -41.5 L -397 -49.6 L -639.5 6 L -635.8 353.3 L -684.1 357.9 L -750 284.1 L -813.7 257.7 L -920.6 277.3 L -962.2 308.6 L -967.5 285.7 L -944.3 246.4 L -962.3 213.6 L -1071.5 181.5 L -1114 96.9 L -1166 73.1 L -1169.1 42.4 L -1077.5 51.3 L -1073.9 -17.5 L -993.8 -32.8 L -911.5 -18.8 L -894.5 -110.7 L -911.3 -168.9 L -1005.6 -164.3 L -1085.6 -187.3 L -1194.7 -145.9 L -1282.6 -126.2 L -1330.4 -141.4 L -1320.9 -189.9 L -1380.9 -252.8 L -1450.8 -250.2 L -1530.8 -314.1 L -1476.4 -385.4 L -1503.9 -404.7 L -1428.7 -508.1 L -1331.9 -453.5 L -1320.1 -522.3 L -1125.7 -624.8 L -978.6 -627.2 L -771 -562 L -659.4 -523.9 L -559.5 -563.6 L -410.2 -565.5 L -289.7 -516.7 L -262.3 -544.6 L -130 -540.6 L -106.4 -585.2 L -259.1 -650 L -168.7 -695.9 L -186.3 -721.5 L -95.9 -746 L -163.9 -810.5 L -120.7 -842.7 L 231.8 -875.5 L 277.8 -898.7 L 513.5 -933.5 L 598.2 -972.6 L 767.4 -952.3 L 797.1 -854.6 L 895.4 -877.6 L 1016.4 -845.4 L 1008.6 -794 L 1098.9 -799.4 L 1335 -888.3 L 1300.5 -858.8 L 1420.7 -786 L 1631.2 -546.8 L 1681.4 -596.1 L 1811.1 -541.8 L 1946.5 -566 L 1998.5 -549.1 L 2043.8 -494.7 L 2109.7 -476.4 L 2149.8 -436.4 L 2271.1 -449 L 2321.1 -391.4 Z" />
<path class="neighbor" d="M -635.8 353.3 L -639.5 6 L -397 -49.6 L -379.4 -41.5 L -233.4 26 L -156.3 61.6 L -66.4 146.5 L 44.1 132.8 L 205.6 125.4 L 318.4 194.2 L 311.4 288.7 L 357.3 289.4 L 376.4 366.5 L 496.2 369.6 L 522 414.2 L 557.1 413.6 L 598.3 346.2 L 722.6 280.6 L 776.6 263.1 L 804.5 272.4 L 725.5 333.4 L 795 368.9 L 862.1 345.4 L 973.7 395 L 853.1 462.9 L 781.5 453.6 L 742.6 456 L 729.1 429.8 L 748.7 386.2 L 622.8 408 L 592.8 468.5 L 548.1 520.5 L 469.4 516.1 L 445 557.6 L 514.1 580.1 L 534.5 650.2 L 481.5 745.5 L 410.5 725.6 L 358 725 L 360.6 667.4 L 235.3 627.1 L 136.8 580.9 L 75.4 536.6 L -32.4 471.5 L -78.7 374.4 L -110.3 357.3 L -212.1 361.7 L -248.1 342.4 L -258.2 267.2 L -385.1 217.4 L -464.5 272.2 L -545 304.6 L -529.5 352.1 L -635.8 353.3 Z" />
<path class="neighbor" d="M 10927 -2452.7 L 11047.1 -2491.9 L 11047.1 -2427.5 L 10943.8 -2422.7 L 10927 -2452.7 Z M -1282.6 -126.2 L -1325.5 -70.3 L -1416.8 -54.8 L -1510.4 42.5 L -1424.8 131.8 L -1434.1 195.3 L -1331.3 306.2 L -1331.3 306.2 L -1387.5 344.2 L -1403.7 368.1 L -1445.3 361.7 L -1510.1 304.5 L -1536.5 301.3 L -1595.8 279.5 L -1624.6 240.9 L -1712.4 221.2 L -1769.6 235.9 L -1786.1 218.4 L -1914.3 173.3 L -2053 158 L -2132.6 141.9 L -2144.1 153.1 L -2264.2 73.5 L -2371.6 37.9 L -2453 -17.4 L -2384.4 -32.5 L -2306.3 -111.2 L -2359 -148.5 L -2220.1 -187 L -2222.6 -207.5 L -2307.2 -192.4 L -2304.2 -234.2 L -2255.6 -260.5 L -2164.5 -267.4 L -2149.7 -298.8 L -2170.5 -350.8 L -2132.2 -400.1 L -2133.3 -427.7 L -2272.2 -458.4 L -2327.2 -457.4 L -2385.4 -501.5 L -2457.6 -486.6 L -2577.3 -519.7 L -2575.2 -538.2 L -2608.7 -579.1 L -2683.8 -583.6 L -2691.6 -612.9 L -2668.1 -631.9 L -2728.3 -685.3 L -2826 -676.2 L -2854.6 -680.9 L -2878.4 -659.5 L -2913.5 -663.3 L -2913.5 -663.3 L -2936.7 -723.6 L -2958.8 -754.9 L -2940.7 -763.7 L -2864.7 -760.4 L -2828 -781 L -2855.2 -806.1 L -2918.7 -822.7 L -2913 -839.7 L -2951.4 -856.9 L -3010.4 -918.5 L -2990.2 -944 L -2999.4 -988.2 L -3091.5 -1010.6 L -3141 -999.4 L -3154.3 -1022.8 L -3253.5 -1046.4 L -3283.8 -1102 L -3291.8 -1147.7 L -3337.2 -1169.4 L -3296.8 -1199.3 L -3324.8 -1287.1 L -3257.7 -1341.4 L -3271.9 -1357.8 L -3271.9 -1357.8 L -3164.9 -1409.9 L -3263.6 -1454.7 L -3263.6 -1454.7 L -3061.9 -1574.9 L -2974.4 -1629.3 L -2939 -1677.4 L -3078.4 -1741.9 L -3039.9 -1803.3 L -3124.7 -1873.4 L -3061.3 -1954.1 L -3170.8 -2061.3 L -3083.9 -2132.4 L -3228.1 -2195.1 L -3214.4 -2261.1 L -3138.3 -2269.8 L -2978.1 -2307.5 L -2978.1 -2307.5 L -2880.9 -2340.3 L -2726.1 -2283.4 L -2468.2 -2260.9 L -2112.3 -2154.4 L -2040 -2109.6 L -2033.8 -2047 L -2138.4 -1997.5 L -2292.2 -1972.3 L -2712.7 -2043.9 L -2781.8 -2032 L -2628.3 -1963 L -2622.2 -1919.3 L -2616.1 -1823 L -2494.8 -1794.3 L -2421.2 -1769.9 L -2409 -1815.5 L -2465.8 -1856 L -2405.8 -1891.7 L -2178.1 -1833.1 L -2098.8 -1856 L -2162.2 -1925 L -1942.7 -2017.3 L -1855.8 -2011.8 L -1767.8 -1978.9 L -1712.9 -2043.6 L -1791.5 -2099.8 L -1745.4 -2156.1 L -1814.6 -2214.5 L -1551.1 -2184.3 L -1497.3 -2131.6 L -1616.6 -2119.9 L -1615.9 -2067.5 L -1541.8 -2035.3 L -1396.3 -2055.7 L -1373.2 -2115.8 L -1176.5 -2160.7 L -847.8 -2241.5 L -776.7 -2236.9 L -869.6 -2179.7 L -752.7 -2169.9 L -685.3 -2202.1 L -508.7 -2204.7 L -368.8 -2243.7 L -261.5 -2187 L -154.5 -2249.4 L -253.2 -2303.9 L -204.2 -2335 L 74.1 -2306.5 L 204.4 -2277.1 L 545.8 -2169.5 L 608.7 -2218.8 L 513 -2268.6 L 510.3 -2288.5 L 396.8 -2297.8 L 427.8 -2342.4 L 377.4 -2415.9 L 374.6 -2446.1 L 548.4 -2531.4 L 610.2 -2617 L 680.3 -2635.5 L 929.6 -2610.7 L 949.3 -2558.3 L 860 -2481.9 L 918.6 -2451.8 L 948.9 -2386 L 927.5 -2256.9 L 1031.4 -2199.2 L 991 -2136.3 L 806.5 -2002.5 L 914.2 -1988.7 L 951.6 -2022.6 L 1055.2 -2046.8 L 1080.3 -2093.4 L 1161.8 -2138.2 L 1106.9 -2191.8 L 1150.8 -2254 L 1047.8 -2261.7 L 1025.2 -2314.1 L 1100.3 -2408.7 L 978 -2485.5 L 1146.6 -2549 L 1124.8 -2615.9 L 1171.8 -2618.1 L 1221.3 -2565.9 L 1184.1 -2475 L 1284.9 -2457.8 L 1242 -2525.7 L 1399.6 -2562.7 L 1595.1 -2567.7 L 1769.1 -2514 L 1685.4 -2592.4 L 1676 -2692.8 L 1839.8 -2711.8 L 2066.3 -2707.6 L 2270.5 -2720 L 2193.9 -2769.2 L 2302.9 -2831.1 L 2411.1 -2833.7 L 2594.3 -2880.4 L 2843 -2893 L 2874.4 -2918.8 L 3121.7 -2927.5 L 3198.8 -2906.4 L 3410.2 -2956.4 L 3583.2 -2954.8 L 3609.2 -2995.5 L 3699.2 -3035.6 L 3921.6 -3074.2 L 4083.1 -3043.7 L 3954.9 -3020.5 L 4168.2 -3006.1 L 4193.6 -2959.5 L 4279.7 -2982.4 L 4555.1 -2981.2 L 4767.4 -2935.2 L 4843 -2900 L 4819.6 -2851 L 4715.4 -2823.1 L 4467.9 -2770.8 L 4397.1 -2742.9 L 4513.9 -2729.7 L 4653.2 -2705.9 L 4738 -2723.8 L 4786.1 -2663.3 L 4827.4 -2687.8 L 4978.1 -2702.7 L 5280.3 -2687.1 L 5303.2 -2643 L 5697 -2629 L 5702.4 -2701 L 5902.3 -2684.5 L 6052.7 -2685 L 6204.8 -2635.4 L 6248.1 -2575.1 L 6192.4 -2535.7 L 6310.7 -2461.5 L 6458.8 -2423.3 L 6549.7 -2522.1 L 6700.8 -2479.8 L 6861.3 -2505.1 L 7043.7 -2476.1 L 7113 -2502.5 L 7267.1 -2489.3 L 7199.1 -2576.7 L 7323.5 -2617.6 L 8174.2 -2556.4 L 8254.4 -2500.5 L 8500.9 -2428.5 L 8881.3 -2446.3 L 9068.8 -2430.8 L 9147.2 -2391.9 L 9135.8 -2323 L 9251.8 -2296.2 L 9377.9 -2315.4 L 9544.9 -2317.9 L 9722.8 -2299.4 L 9901.3 -2309.9 L 10065.4 -2226.1 L 10182.1 -2256.3 L 10105.9 -2316.5 L 10147.9 -2358.3 L 10448.4 -2332 L 10644.3 -2337.6 L 10915.2 -2292.6 L 11047.1 -2251.5 L 11047.1 -1876.3 L 11046.4 -1875.8 L 10925.3 -1834.4 L 10803.2 -1841.3 L 10888.2 -1791.2 L 10944.2 -1713.6 L 10987.8 -1688.2 L 10998.7 -1649.2 L 10974.4 -1624.3 L 10798.8 -1644.8 L 10535.5 -1573.9 L 10451.8 -1562.9 L 10307.7 -1496.7 L 10170.9 -1438.9 L 10136.3 -1396.1 L 10001.6 -1461.3 L 9756.2 -1387.3 L 9713.3 -1422.3 L 9622.6 -1382 L 9496.6 -1394.9 L 9466.2 -1332.9 L 9353.2 -1241.8 L 9356.6 -1203.7 L 9463.9 -1182.6 L 9451.3 -1045.5 L 9363.8 -1042 L 9323.5 -963.2 L 9362.7 -922.6 L 9198 -874.5 L 9165.3 -767 L 9024.8 -744 L 8996.6 -648.3 L 8860.8 -560.6 L 8826 -625.4 L 8785.7 -762.9 L 8733.1 -972.2 L 8778.4 -1102.8 L 8857.9 -1159 L 8862.8 -1203 L 9009.2 -1224.1 L 9177.4 -1342.7 L 9339.5 -1439.5 L 9508.9 -1514.7 L 9584.6 -1647.5 L 9470.1 -1639.5 L 9413.6 -1562 L 9174.7 -1458.5 L 9097.5 -1574.3 L 8854.3 -1542.4 L 8618.6 -1384.5 L 8696.4 -1326.7 L 8486.2 -1302.1 L 8340.5 -1292.4 L 8347.3 -1360.5 L 8200.9 -1374.8 L 8084.2 -1328.5 L 7796.2 -1344.7 L 7486.4 -1316.8 L 7181.3 -1133 L 6820.3 -910.8 L 6968.7 -898.9 L 7015 -840 L 7106.5 -819 L 7166.8 -866.1 L 7270.1 -860 L 7406.1 -756.3 L 7409.3 -676.2 L 7335.6 -582.1 L 7327.7 -469.6 L 7285.2 -319 L 7143.2 -182.7 L 7111.7 -117.6 L 6983.8 -7.9 L 6857 100.9 L 6796.1 156.5 L 6670.6 211.8 L 6611.2 213 L 6552 167.2 L 6425.6 236.2 L 6410.9 267.5 L 6410.9 267.5 L 6410.9 267.5 L 6410.9 267.5 L 6397.7 251 L 6397.7 251 L 6397.2 203.2 L 6445.3 200.6 L 6458.8 89.3 L 6434 8.7 L 6514.9 -24.6 L 6629.2 -7.9 L 6692.5 -99.6 L 6724.8 -202.8 L 6761.4 -237.2 L 6810.9 -322 L 6655.2 -294.2 L 6573.6 -257.1 L 6430.4 -257.2 L 6392.3 -345.7 L 6280.7 -412.6 L 6116.8 -442.7 L 6082 -535 L 6049.1 -592.8 L 6013.8 -633.4 L 5955.6 -728.4 L 5872.9 -763.1 L 5731.9 -791.1 L 5607.1 -788.6 L 5490 -771.6 L 5412.2 -724.7 L 5463.9 -702.3 L 5465.1 -650.3 L 5412.7 -620.1 L 5327.7 -520.2 L 5328.5 -478.8 L 5195.8 -419.3 L 5082.7 -454.8 L 4970.3 -447 L 4921 -478.5 L 4864.5 -488.7 L 4726.6 -422.3 L 4602.5 -406.7 L 4516 -383.4 L 4397.3 -398.7 L 4310 -397.7 L 4252.8 -445.9 L 4160.6 -491.2 L 4066.2 -503.6 L 3947 -491.3 L 3858 -473.8 L 3724.2 -513.4 L 3706.2 -584 L 3595.5 -608.2 L 3510 -619.2 L 3404.4 -658.2 L 3306.9 -560.5 L 3345.1 -505.1 L 3253.6 -439.5 L 3117.4 -463.2 L 3023.4 -466.6 L 2960.4 -510.6 L 2862.2 -512 L 2780.3 -540.9 L 2637 -496.6 L 2457.3 -415.4 L 2358 -399.1 L 2321.1 -391.4 L 2271.1 -449 L 2149.8 -436.4 L 2109.7 -476.4 L 2043.8 -494.7 L 1998.5 -549.1 L 1946.5 -566 L 1811.1 -541.8 L 1681.4 -596.1 L 1631.2 -546.8 L 1420.7 -786 L 1300.5 -858.8 L 1335 -888.3 L 1098.9 -799.4 L 1008.6 -794 L 1016.4 -845.4 L 895.4 -877.6 L 797.1 -854.6 L 767.4 -952.3 L 598.2 -972.6 L 513.5 -933.5 L 277.8 -898.7 L 231.8 -875.5 L -120.7 -842.7 L -163.9 -810.5 L -95.9 -746 L -186.3 -721.5 L -168.7 -695.9 L -259.1 -650 L -106.4 -585.2 L -130 -540.6 L -262.3 -544.6 L -289.7 -516.7 L -410.2 -565.5 L -559.5 -563.6 L -659.4 -523.9 L -771 -562 L -978.6 -627.2 L -1125.7 -624.8 L -1320.1 -522.3 L -1331.9 -453.5 L -1428.7 -508.1 L -1503.9 -404.7 L -1476.4 -385.4 L -1530.8 -314.1 L -1450.8 -250.2 L -1380.9 -252.8 L -1320.9 -189.9 L -1330.4 -141.4 L -1282.6 -126.2 Z M 2925.6 -3387.6 L 3129.4 -3408.9 L 3312.4 -3361.4 L 3529.3 -3270.4 L 3506 -3185.7 L 3300.5 -3173.9 L 3038.1 -3201.1 L 2881.8 -3237.1 L 2809.5 -3304.6 L 2681 -3323.2 L 2925.6 -3387.6 Z M 3779 -3223.4 L 4017.7 -3169.9 L 3989.8 -3131.6 L 3458.8 -3095.3 L 3630.8 -3218.9 L 3708.2 -3229.5 L 3779 -3223.4 Z M 7169.3 -2927.2 L 7418 -2923.1 L 7758.5 -2873.1 L 7684.4 -2803.2 L 7337.2 -2805.8 L 7181 -2783.5 L 6994.4 -2844.8 L 7045 -2909.5 L 7169.3 -2927.2 Z M 8053.8 -2852.7 L 8290.2 -2828 L 8181.4 -2790.8 L 8030.8 -2799.2 L 7855.8 -2836.4 L 7878.3 -2866.9 L 8053.8 -2852.7 Z M 7266.5 -2666.6 L 7355.8 -2703.8 L 7473.6 -2712.5 L 7607.4 -2676.5 L 7618.8 -2651.7 L 7476 -2651.1 L 7283 -2661.6 L 7266.5 -2666.6 Z M -1683.3 -3346.6 L -1499.4 -3363.8 L -1356.3 -3364.9 L -1337.1 -3339.6 L -1283 -3362.1 L -1194.2 -3377.6 L -1054.5 -3357 L -1090.9 -3342.6 L -1217.4 -3330.2 L -1302.1 -3323.1 L -1315.2 -3307.6 L -1425.3 -3292 L -1527.3 -3314.4 L -1473.7 -3343.8 L -1683.3 -3346.6 Z M -3766.4 -872.9 L -3939.6 -871.5 L -4055.7 -882.2 L -4034.2 -923.7 L -3904.2 -954.2 L -3805.6 -937.7 L -3763.9 -922.8 L -3774 -897 L -3766.4 -872.9 Z M -867.5 -2702.4 L -642 -2785 L -667.4 -2827.8 L -456.8 -2877.5 L -145.8 -2938 L 167.7 -2955.7 L 329 -2990.6 L 512.3 -3002.8 L 577.8 -2965.6 L 514.5 -2936.3 L 180.8 -2889.6 L -106.8 -2844.7 L -399.4 -2755 L -539.8 -2663.1 L -687.5 -2572.5 L -668.3 -2494.3 L -488.1 -2417 L -543.8 -2408.8 L -851.5 -2421 L -876.5 -2462.8 L -1047 -2488.1 L -1060.8 -2538.9 L -964.5 -2559.2 L -967.7 -2610.5 L -780.9 -2690.8 L -867.5 -2702.4 Z M 7553.9 -814.3 L 7586.5 -723.5 L 7584.1 -630.8 L 7623 -535.7 L 7717.8 -368.9 L 7578.3 -400 L 7520.4 -263.9 L 7612.2 -167.4 L 7609.5 -101.5 L 7538.2 -158.3 L 7476.4 -85.4 L 7459 -164.5 L 7469.5 -256.2 L 7458.8 -357.9 L 7480.5 -429.1 L 7484.7 -555 L 7429.5 -647.6 L 7437.9 -776.3 L 7524.9 -819.7 L 7487.5 -863.3 L 7529.4 -876.6 L 7553.9 -814.3 Z M -22384.4 -2086 L -22392.5 -2027.4 L -22329 -2004 L -22350.8 -2072.4 L -22095.1 -2058.4 L -21910.7 -1970.2 L -22004.1 -1929.2 L -22158.5 -1919.4 L -22160.9 -1827.4 L -22198.6 -1807.8 L -22286.8 -1810.6 L -22358.6 -1843.5 L -22483.8 -1870.9 L -22504.9 -1911.8 L -22600.5 -1927.2 L -22707.6 -1915 L -22758.8 -1947.9 L -22738.4 -1983 L -22851.2 -1960.6 L -22808.7 -1916.3 L -22862.1 -1876.3 L -22862.1 -2251.5 L -22631.3 -2179.6 L -22384.4 -2086 Z M -22739.1 -2433.3 L -22862.1 -2427.5 L -22862.1 -2491.9 L -22850 -2495.9 L -22770.2 -2495.7 L -22634 -2468.7 L -22642 -2455.9 L -22739.1 -2433.3 Z M -2758.1 -85.9 L -2733.3 -109.2 L -2666.3 -89 L -2636 -85.3 L -2623.8 -66.7 L -2609.6 -63.8 L -2608.8 -55.7 L -2562.8 -33 L -2466.7 -38.6 L -2485.1 -5 L -2588.2 11.3 L -2716.1 65.8 L -2768.4 46.6 L -2747.7 2.4 L -2850.6 -25.2 L -2834 -43.3 L -2743.8 -74.6 L -2758.1 -85.9 Z" />
<path class="neighbor" d="M 3259.9 1582.3 L 3267 1618 L 3234 1635.3 L 3241.7 1693.2 L 3174.4 1676.2 L 3052.5 1741.3 L 3055.3 1795.2 L 3003.4 1874.2 L 2998.6 1920.1 L 2956.6 1997.7 L 2883 1976.3 L 2879.3 2073.8 L 2858 2105.8 L 2868 2145.8 L 2821.5 2168.2 L 2771.9 2018.8 L 2745.9 2019.1 L 2730.5 2079.3 L 2678.9 2030.4 L 2708 1976.8 L 2750.2 1971.4 L 2793.6 1891.7 L 2739.3 1875.6 L 2651.9 1877 L 2562.3 1864.1 L 2554 1798.6 L 2509 1793.9 L 2434.4 1753.2 L 2401.1 1817.1 L 2469.1 1867 L 2410.2 1902.1 L 2389.3 1936.4 L 2447.3 1961.7 L 2431.3 2018.4 L 2463.9 2089.3 L 2478.6 2166.8 L 2465.1 2201.2 L 2401 2200 L 2284.9 2219.6 L 2290.3 2290.4 L 2240 2346.2 L 2104.5 2409.6 L 1999.1 2520.4 L 1928.2 2579.8 L 1834.4 2641.5 L 1834.2 2684.8 L 1787.3 2708 L 1702.4 2741.7 L 1658.4 2746.7 L 1630.2 2818.6 L 1649.8 2941.1 L 1654.8 3019.2 L 1614.9 3108.7 L 1614.5 3268.7 L 1565.7 3273.3 L 1522.9 3345.1 L 1551.5 3376.2 L 1465.6 3402.9 L 1433.9 3466.9 L 1396.1 3494 L 1306.9 3406 L 1263.3 3274.1 L 1227.2 3179.1 L 1194.2 3134.6 L 1144.2 3044.1 L 1120.8 2926.3 L 1104.5 2867.5 L 1018.8 2738.1 L 979.8 2555.6 L 951.6 2435 L 952 2320.9 L 933.7 2232.7 L 796.6 2289.1 L 730.2 2277.8 L 607.2 2163.7 L 652.5 2129.6 L 624.7 2092.6 L 514.2 2012.7 L 576.9 1949.8 L 784.2 1950.1 L 765.5 1869.2 L 712.6 1821.5 L 701.8 1749 L 640.2 1706.7 L 744 1607.9 L 853.4 1615.1 L 951.9 1516.3 L 1010.9 1420.7 L 1102.4 1326.2 L 1100.9 1259.1 L 1181.2 1204.6 L 1105.2 1158.1 L 1072.5 1094.4 L 1039.1 1011.8 L 1085.3 971.2 L 1228.2 994.2 L 1333.2 980.2 L 1424.1 901 L 1525.4 1011.4 L 1515.9 1088.3 L 1553.3 1136.5 L 1550.2 1184.6 L 1482.6 1171.9 L 1509.1 1275.7 L 1601.6 1335.4 L 1732.5 1401.2 L 1672.7 1444 L 1636.2 1532.1 L 1727.4 1567.7 L 1816.2 1613.9 L 1939.1 1666.8 L 2068.2 1679 L 2122.5 1726.9 L 2195.3 1735.9 L 2308.6 1757.8 L 2387.1 1756.2 L 2397.8 1719 L 2385.4 1659.1 L 2392.7 1618.5 L 2450.2 1598.7 L 2458.1 1672.9 L 2460.1 1691.8 L 2545.7 1727.5 L 2604.9 1712.8 L 2684.4 1719.1 L 2761.3 1716.3 L 2767.9 1658.5 L 2729.6 1628.4 L 2805.5 1616.6 L 2891.3 1546.6 L 2999.8 1486.6 L 3078.9 1509.7 L 3146 1470.1 L 3190.2 1528.6 L 3158.4 1568.2 L 3259.9 1582.3 Z" />
<path class="neighbor" d="M 1424.1 901 L 1333.2 980.2 L 1228.2 994.2 L 1085.3 971.2 L 1039.1 1011.8 L 1072.5 1094.4 L 1105.2 1158.1 L 1181.2 1204.6 L 1100.9 1259.1 L 1102.4 1326.2 L 1010.9 1420.7 L 951.9 1516.3 L 853.4 1615.1 L 744 1607.9 L 640.2 1706.7 L 701.8 1749 L 712.6 1821.5 L 765.5 1869.2 L 784.2 1950.1 L 576.9 1949.8 L 514.2 2012.7 L 445.1 1988.9 L 417 1921.2 L 344.3 1849.4 L 170.7 1867.2 L 17.7 1868.9 L -115 1882.1 L -79.5 1772.7 L 56.4 1724 L 48.6 1680.7 L 3.5 1665.4 L 0.9 1582.5 L -89.1 1541 L -127 1484.2 L -173.7 1434.6 L -15.8 1482.7 L 78.4 1468.6 L 134.7 1480.6 L 153.8 1460 L 219.4 1468.2 L 341.8 1429.1 L 345.1 1348.9 L 397.6 1295.6 L 467.7 1295.8 L 478 1269.4 L 550 1257.1 L 584.8 1265.9 L 621.7 1239.4 L 616.5 1182.9 L 656.5 1126 L 716.4 1102.2 L 679.4 1039.9 L 769 1042.8 L 794.9 1008.9 L 790.9 972.7 L 837.9 933.1 L 827.1 886.3 L 804.8 846.4 L 859.8 805.3 L 961 785.6 L 1069.1 774.6 L 1116.9 757.2 L 1171.8 746.6 L 1241.4 790.6 L 1269.2 862.9 L 1424.1 901 Z" />
<path class="neighbor" d="M 358 725 L 410.5 725.6 L 481.5 745.5 L 510.3 757 L 578.5 726.7 L 610.2 744.9 L 640.6 701.8 L 696.9 703.8 L 711.4 689.9 L 721.4 652 L 761.9 619.2 L 812.9 640.6 L 802.7 669.4 L 831.2 673.9 L 822.4 753 L 859.7 783.8 L 892.5 764.1 L 934.3 754.7 L 993 712.5 L 1057.9 719.5 L 1155 719.6 L 1171.8 746.6 L 1116.9 757.2 L 1069.1 774.6 L 961 785.6 L 859.8 805.3 L 804.8 846.4 L 827.1 886.3 L 837.9 933.1 L 790.9 972.7 L 794.9 1008.9 L 769 1042.8 L 679.4 1039.9 L 716.4 1102.2 L 656.5 1126 L 616.5 1182.9 L 621.7 1239.4 L 584.8 1265.9 L 550 1257.1 L 478 1269.4 L 467.7 1295.8 L 397.6 1295.6 L 345.1 1348.9 L 341.8 1429.1 L 219.4 1468.2 L 153.8 1460 L 134.7 1480.6 L 78.4 1468.6 L -15.8 1482.7 L -173.7 1434.6 L -88.2 1349.2 L -95.9 1288.6 L -167.3 1272.7 L -174.6 1212.9 L -205.5 1137.7 L -165.2 1086.1 L -206.2 1072.2 L -180.3 1003.7 L -141.9 886.3 L -45.9 922.1 L 25.1 909.5 L 44.8 866.8 L 119.2 852.6 L 172.2 824 L 191 748.6 L 270.4 730.4 L 285.2 696.9 L 329.6 722.1 L 358 725 Z" />
<path class="neighbor" d="M 776.6 263.1 L 797.7 221.9 L 859.7 208.6 L 1014.6 241 L 1029.3 185.4 L 1082.7 165.9 L 1216.9 205.5 L 1251.1 195.2 L 1407.3 197.7 L 1547 207.6 L 1594.3 241.4 L 1652.3 255.3 L 1639.1 276.5 L 1490.7 327.6 L 1457.1 365 L 1336.3 376.1 L 1300.7 436.3 L 1200.9 423.7 L 1135.9 442.1 L 1045.9 486.6 L 1058.9 508.6 L 1032.1 530.2 L 854 544.5 L 737.6 513.9 L 635.5 521.2 L 644.4 466.9 L 747 482.7 L 781.5 453.6 L 853.1 462.9 L 973.7 395 L 862.1 345.4 L 795 368.9 L 725.5 333.4 L 804.5 272.4 L 776.6 263.1 Z" />
<path class="neighbor" d="M -962.2 308.6 L -920.6 277.3 L -813.7 257.7 L -750 284.1 L -684.1 357.9 L -635.8 353.3 L -529.5 352.1 L -545 304.6 L -464.5 272.2 L -385.1 217.4 L -258.2 267.2 L -248.1 342.4 L -212.1 361.7 L -110.3 357.3 L -78.7 374.4 L -32.4 471.5 L 75.4 536.6 L 136.8 580.9 L 235.3 627.1 L 360.6 667.4 L 358 725 L 329.6 722.1 L 285.2 696.9 L 270.4 730.4 L 191 748.6 L 172.2 824 L 119.2 852.6 L 44.8 866.8 L 25.1 909.5 L -45.9 922.1 L -141.9 886.3 L -150.2 807.1 L -220.4 803.7 L -328.1 720.3 L -403.3 710 L -507.5 662.2 L -574.4 653.6 L -615.8 671.1 L -678.8 668.4 L -745.8 722.2 L -828.5 740.4 L -846.1 673.8 L -832.4 575.3 L -905.8 543.4 L -881.6 478.9 L -944.2 473.4 L -923.3 394 L -834.5 417.2 L -751.7 387 L -820.4 330.5 L -847.4 276.6 L -923.2 300.6 L -932.8 369.7 L -962.2 308.6 Z" />
<path class="neighbor" d="M 4404.2 2530.2 L 4326.9 2501 L 4324.2 2420 L 4370.6 2377.3 L 4473.5 2350.9 L 4527.7 2353.1 L 4548.7 2389.1 L 4507.4 2430.5 L 4485.6 2484.9 L 4404.2 2530.2 Z M 1652.3 255.3 L 1644.8 201.6 L 1709.4 177 L 1624.7 13.4 L 1811.2 -24.2 L 1859.5 -45.2 L 1927.4 -213.8 L 2114.3 -182.8 L 2166.7 -225.4 L 2171.2 -319.9 L 2249.4 -328.7 L 2321.1 -391.4 L 2358 -399.1 L 2382.7 -333.4 L 2461.8 -283.4 L 2596.2 -248.1 L 2661.2 -172.2 L 2624.9 -62.1 L 2658.8 -21.3 L 2770.8 -5.2 L 2897.6 8 L 3011.4 66.6 L 3069.6 77.1 L 3112.5 163.9 L 3167.8 219.9 L 3271.7 217.7 L 3466.1 238.8 L 3591.4 225.7 L 3684.3 239.7 L 3823.7 296.9 L 3937.7 296.9 L 3979.4 326.1 L 4089 275.6 L 4241.2 242.9 L 4382.4 239.3 L 4492.4 206.2 L 4560 155.7 L 4625.9 124 L 4610.7 92.9 L 4580.6 56.7 L 4630.1 -4 L 4683.1 4.5 L 4779.9 23.6 L 4873.7 -26.4 L 5017.4 -62.9 L 5086.4 -125.1 L 5152.7 -151.9 L 5289.5 -164.4 L 5363.8 -153.8 L 5374.1 -187.3 L 5288.8 -253.1 L 5213.2 -283.2 L 5140.8 -248.5 L 5047.9 -263.1 L 4994.5 -251.2 L 4970.3 -289.7 L 5036.8 -383.8 L 5082.7 -454.8 L 5195.8 -419.3 L 5328.5 -478.8 L 5327.7 -520.2 L 5412.7 -620.1 L 5465.1 -650.3 L 5463.9 -702.3 L 5412.2 -724.7 L 5490 -771.6 L 5607.1 -788.6 L 5731.9 -791.1 L 5872.9 -763.1 L 5955.6 -728.4 L 6013.8 -633.4 L 6049.1 -592.8 L 6082 -535 L 6116.8 -442.7 L 6280.7 -412.6 L 6392.3 -345.7 L 6430.4 -257.2 L 6573.6 -257.1 L 6655.2 -294.2 L 6810.9 -322 L 6761.4 -237.2 L 6724.8 -202.8 L 6692.5 -99.6 L 6629.2 -7.9 L 6514.9 -24.6 L 6434 8.7 L 6458.8 89.3 L 6445.3 200.6 L 6397.2 203.2 L 6397.7 251 L 6336.9 195.4 L 6299.5 248.2 L 6154 288.8 L 6168.7 338.4 L 6087.3 335 L 6042.5 305.5 L 5977.8 372.3 L 5874 422.9 L 5797.3 483.3 L 5665.6 510.7 L 5596.3 554.7 L 5494.9 580.5 L 5544.9 536.8 L 5525.2 500.1 L 5599.8 436.8 L 5550 387.5 L 5467.9 420.7 L 5361.6 486.2 L 5303.5 547 L 5211.2 551.6 L 5163.1 595.5 L 5212.8 659.2 L 5289.9 674.7 L 5293 716.9 L 5367.5 744.4 L 5473.1 677.2 L 5556.7 713.9 L 5617.6 716.4 L 5632.9 765.7 L 5499.5 792 L 5455.5 842.9 L 5363.9 890.1 L 5315.6 956.1 L 5417 1007.8 L 5454 1100.5 L 5511.3 1186.8 L 5575.3 1259.1 L 5573.7 1329.1 L 5514.6 1354.8 L 5537.2 1405.1 L 5592.6 1434.3 L 5578.1 1511 L 5554.2 1585.7 L 5501.6 1594.1 L 5432.8 1696.1 L 5356.5 1819.7 L 5269 1932.1 L 5139.5 2019 L 5008.5 2098.3 L 4902.3 2109.1 L 4844.7 2151 L 4812.2 2120.4 L 4758.9 2167.2 L 4627.3 2214.4 L 4527.6 2228.8 L 4495.4 2328.3 L 4443.2 2333.8 L 4418.5 2265.5 L 4440.8 2229 L 4314.5 2198.9 L 4270 2214.2 L 4175.1 2189.8 L 4130.3 2151.5 L 4145.2 2097.2 L 4059.1 2080 L 4013.7 2044.7 L 3933.4 2094.9 L 3841.8 2105.8 L 3766.7 2105.3 L 3716.1 2128.3 L 3667.3 2142.1 L 3681.5 2249.8 L 3631.3 2247.3 L 3622.8 2225.1 L 3620 2186.2 L 3550.9 2213.6 L 3510.1 2196.3 L 3440.2 2160.9 L 3467.6 2082.7 L 3408 2064.4 L 3385.5 1977.7 L 3286.1 1993.3 L 3297.4 1881.6 L 3386.6 1803 L 3390.4 1725.3 L 3387.6 1653.2 L 3346.5 1630.7 L 3315 1575.3 L 3259.9 1582.3 L 3158.4 1568.2 L 3190.2 1528.6 L 3146 1470.1 L 3078.9 1509.7 L 2999.8 1486.6 L 2891.3 1546.6 L 2805.5 1616.6 L 2729.6 1628.4 L 2688.3 1603.1 L 2638.6 1600.8 L 2571.3 1579 L 2520.4 1602.9 L 2458.1 1672.9 L 2450.2 1598.7 L 2392.7 1618.5 L 2282.9 1609.3 L 2176.4 1587.7 L 2099.9 1546.4 L 2026.7 1527.8 L 1995.1 1482.6 L 1942.2 1469 L 1847.1 1407.7 L 1771.6 1378.7 L 1732.5 1401.2 L 1601.6 1335.4 L 1509.1 1275.7 L 1482.6 1171.9 L 1550.2 1184.6 L 1553.3 1136.5 L 1515.9 1088.3 L 1525.4 1011.4 L 1424.1 901 L 1269.2 862.9 L 1241.4 790.6 L 1171.8 746.6 L 1155 719.6 L 1140.9 665.9 L 1144.2 629.3 L 1086.9 607.9 L 1056 617.3 L 1032.1 530.2 L 1058.9 508.6 L 1045.9 486.6 L 1135.9 442.1 L 1200.9 423.7 L 1300.7 436.3 L 1336.3 376.1 L 1457.1 365 L 1490.7 327.6 L 1639.1 276.5 L 1652.3 255.3 Z" />

<path class="country" d="M 481.5 745.5 L 534.5 650.2 L 514.1 580.1 L 445 557.6 L 469.4 516.1 L 548.1 520.5 L 592.8 468.5 L 622.8 408 L 748.7 386.2 L 729.1 429.8 L 742.6 456 L 781.5 453.6 L 747 482.7 L 644.4 466.9 L 635.5 521.2 L 737.6 513.9 L 854 544.5 L 1032.1 530.2 L 1056 617.3 L 1086.9 607.9 L 1144.2 629.3 L 1140.9 665.9 L 1155 719.6 L 1057.9 719.5 L 993 712.5 L 934.3 754.7 L 892.5 764.1 L 859.7 783.8 L 822.4 753 L 831.2 673.9 L 802.7 669.4 L 812.9 640.6 L 761.9 619.2 L 721.4 652 L 711.4 689.9 L 696.9 703.8 L 640.6 701.8 L 610.2 744.9 L 578.5 726.7 L 510.3 757 L 481.5 745.5 Z" />


<g class="city"><circle cx="617.0516897410929" cy="353.79252278720685" r="5" /><text x="629.0516897410929" y="357.79252278720685">Tashkent</text></g>
<g class="city"><circle cx="570.4318432132943" cy="612.236323629418" r="5" /><text x="582.4318432132943" y="616.236323629418">Dushanbe</text></g>
<g class="city"><circle cx="1368.8163069719988" cy="624.8479950733522" r="5" /><text x="1380.8163069719988" y="628.8479950733522">Shache</text></g>
<g class="city"><circle cx="1117.6298239986247" cy="205.79807694093546" r="5" /><text x="1129.6298239986247" y="209.79807694093546">Bishkek</text></g>
<g class="city"><circle cx="398.1656779142714" cy="507.68452841963307" r="5" /><text x="410.1656779142714" y="511.68452841963307">Samarkand</text></g>
<g class="city"><circle cx="906.3293897329479" cy="402.19090575981096" r="5" /><text x="918.3293897329479" y="406.19090575981096">Andijan</text></g>
<g class="city"><circle cx="1248.2430839735086" cy="525.9279493622923" r="5" /><text x="1260.2430839735086" y="529.9279493622923">Kashgar</text></g>
<g class="city"><circle cx="647.7767027488981" cy="258.0759525812766" r="5" /><text x="659.7767027488981" y="262.0759525812766">Shymkent</text></g>
<text class="map-title" x="80" y="105">Tajikistan Political Study Map</text>
<text class="map-subtitle" x="80" y="145">Capital: Dushanbe | Continent: Asia</text>
  <text class="footer" x="80" y="1036">Made with Natural Earth. Free vector and raster map data @ naturalearthdata.com.</text>
</svg>
