<?xml version="1.0" encoding="UTF-8"?>
<svg xmlns="http://www.w3.org/2000/svg" width="1600" height="1100" viewBox="0 0 1600 1100" role="img" aria-labelledby="title desc">
  <title id="title">East Timor Physical Study Map</title>
  <desc id="desc">Made with Natural Earth. Free vector and raster map data @ naturalearthdata.com.</desc>
  <defs>
    <linearGradient id="terrain" x1="0" x2="1" y1="0" y2="1">
      <stop offset="0%" stop-color="#6c8c53" />
      <stop offset="42%" stop-color="#d5c487" />
      <stop offset="72%" stop-color="#b88b5f" />
      <stop offset="100%" stop-color="#f1f5ee" />
    </linearGradient>
    <filter id="softShadow" x="-10%" y="-10%" width="120%" height="120%">
      <feDropShadow dx="0" dy="10" stdDeviation="12" flood-color="#0f172a" flood-opacity="0.16" />
    </filter>
    <style>
      .neighbor { fill: #ffffff; stroke: #94a3b8; stroke-width: 1.2; opacity: 0.72; }
      .country { fill: url(#terrain); stroke: #1f2937; stroke-width: 4; filter: url(#softShadow); }
      .admin1 { fill: none; stroke: #64748b; stroke-width: 1.1; stroke-dasharray: 6 7; opacity: 0.75; }
      .river { fill: none; stroke: #1d9bd1; stroke-width: 3; stroke-linecap: round; opacity: 0.88; }
      .lake { fill: #8ed1ea; stroke: #0ea5e9; stroke-width: 1.5; opacity: 0.8; }
      .city circle { fill: #ef4444; stroke: #ffffff; stroke-width: 2; }
      .city text, .terrain-label { fill: #172033; font: 700 24px system-ui, sans-serif; paint-order: stroke; stroke: #ffffff; stroke-width: 5; stroke-linejoin: round; }
      .map-title { fill: #0f172a; font: 800 46px system-ui, sans-serif; }
      .map-subtitle { fill: #475569; font: 600 24px system-ui, sans-serif; }
      .footer { fill: #64748b; font: 500 18px system-ui, sans-serif; }
    </style>
  </defs>
  <rect width="100%" height="100%" fill="#d8edf0" />
  <rect x="40" y="40" width="1520" height="1020" rx="32" fill="#ffffff" opacity="0.54" />
  <path class="neighbor" d="M 3904.6 -718.3 L 3908.1 -36.9 L 3911.6 644.5 L 3725.4 472.9 L 3513.1 430.9 L 3461.6 490.4 L 3196.6 496.9 L 3285.4 326.7 L 3417 268.6 L 3362.5 41.3 L 3262.2 -134.3 L 2856.8 -311.3 L 2684.4 -328.8 L 2370.4 -522 L 2308.7 -420.4 L 2228.4 -402 L 2181 -478.6 L 2180.3 -569.5 L 2020.6 -672.2 L 2245.8 -747.5 L 2394.9 -743.4 L 2377.4 -798.9 L 2071.3 -799.3 L 1988.5 -923.8 L 1801.7 -962.4 L 1713.2 -1065.9 L 1995 -1116.5 L 2102.2 -1184.7 L 2437.9 -1098.8 L 2470.9 -1021.1 L 2529.2 -682.9 L 2745.7 -557.8 L 2920.4 -779.6 L 3160.3 -905.8 L 3346.2 -905.9 L 3525 -833 L 3680.1 -758.2 L 3904.6 -718.3 Z M 552.5 597.4 L 573.7 638.7 L 577.6 702.1 L 441.1 858.2 L 262.2 904.2 L 237.1 879.1 L 255.9 808 L 345.8 680.5 L 552.5 597.4 Z M 2484.8 179.8 L 2464.5 22.4 L 2501.6 -52.8 L 2545.3 -123.4 L 2592.9 -62.3 L 2592.4 37.4 L 2484.8 179.8 Z M -929.2 -2127.1 L -1048.2 -1938.2 L -894.5 -1740.3 L -930.6 -1644.1 L -696.2 -1450.6 L -943.9 -1425.9 L -1013.6 -1283.4 L -1004.6 -1093.9 L -1205.7 -950.9 L -1211.1 -742.7 L -1291.8 -422.9 L -1322.6 -497.3 L -1560.1 -403.2 L -1642.9 -531 L -1792 -542.9 L -1896.3 -609.8 L -2144.9 -534.7 L -2221.2 -635.8 L -2358.1 -624.3 L -2530.5 -648.5 L -2562.5 -928.9 L -2666.8 -987 L -2767.2 -1165.9 L -2796.3 -1348.8 L -2771.9 -1542.5 L -2647.7 -1681.5 L -2612.8 -1541.7 L -2469.8 -1423.6 L -2334.9 -1466.1 L -2201.4 -1451.1 L -2079.6 -1556.8 L -1979.3 -1575.1 L -1781.5 -1516.5 L -1611 -1561.1 L -1503.8 -1851.9 L -1423.3 -1924.6 L -1350.9 -2162.4 L -1110.5 -2162.3 L -929.2 -2127.1 Z M 1473 -676 L 1703.1 -615.1 L 1779.1 -455.2 L 1602.5 -541.4 L 1427.9 -558.9 L 1309.8 -545 L 1165.2 -552.4 L 1214.7 -667.4 L 1473 -676 Z M 951.1 -469.3 L 806.6 -507.7 L 765.9 -597.6 L 977.4 -607.6 L 1029.4 -538.7 L 951.1 -469.3 Z M 1172.2 -1716.6 L 1187.2 -1602.5 L 1310.7 -1584.1 L 1330.2 -1498.7 L 1319.3 -1316 L 1211.5 -1336.5 L 1179.7 -1209.2 L 1265.8 -1098.9 L 1207.2 -1073.8 L 1122.9 -1206.2 L 1060.8 -1473.5 L 1102.8 -1640.6 L 1172.2 -1716.6 Z M 125.7 -1444.9 L 366.2 -1453.7 L 572.9 -1605.5 L 609.4 -1558.8 L 441.4 -1351.4 L 284.2 -1311.2 L 83 -1352.1 L -265.4 -1341.7 L -448.1 -1311.6 L -477.8 -1153.3 L -290.7 -967.4 L -177.8 -1062.1 L 212.1 -1133.2 L 194.9 -1036.9 L 103.8 -1067.3 L 13 -944.8 L -171 -863.7 L 26.8 -595.8 L -11.4 -524 L 176.6 -282.6 L 174.8 -145.3 L 63.2 -83.8 L -18.8 -157.3 L 82.2 -328.5 L -122.9 -247.6 L -175 -305.5 L -147.8 -386.2 L -298.6 -508.8 L -283.1 -712.5 L -422.5 -649 L -404.8 -405.2 L -396.3 -106 L -528.9 -75.7 L -618.8 -137.1 L -558.8 -329.5 L -591.2 -531.3 L -679.1 -532.8 L -744 -676.1 L -657.6 -813 L -627.9 -979 L -522.8 -1294.2 L -478.9 -1380.4 L -301.2 -1535.7 L -137.9 -1474 L 125.7 -1444.9 Z M -424.7 883 L -702.2 736.5 L -507.2 695.4 L -397.4 759.1 L -324.2 822.6 L -336.8 879 L -424.7 883 Z M -205.9 523 L -66.7 507.1 L 120.7 430.5 L 90.1 546.6 L -224.1 606 L -502.2 580.2 L -502.9 503.8 L -336.9 460.3 L -205.9 523 Z M -850.1 486.5 L -720.9 469.5 L -669 558.4 L -910.8 600.3 L -1055.6 628.4 L -1168 626.8 L -1096.2 506.4 L -981.5 504.7 L -925.5 430.8 L -850.1 486.5 Z M -2893.7 80.8 L -2865.1 155.2 L -2464.6 176 L -2418.5 89.9 L -2030.6 190.4 L -1954.5 325.9 L -1640.8 364 L -1384.3 488.3 L -1622.9 568 L -1852.9 483.7 L -2042.1 489.4 L -2259.1 473.9 L -2454.7 436.4 L -2697 356.5 L -2850.4 335.8 L -2937.4 362 L -3318.7 275.9 L -3355 186 L -3546.3 170.6 L -3402.9 -29.2 L -3149.2 -16.8 L -2980.4 64.9 L -2893.7 80.8 Z M -3754.5 -1035.1 L -3719 -889.3 L -3646.2 -772.6 L -3492.7 -754.1 L -3391 -621.8 L -3443.5 -361.7 L -3451.8 -38.3 L -3683.3 -33.9 L -3859.4 -208.7 L -4127.9 -379.5 L -4217.4 -506.3 L -4375.7 -676.5 L -4479.5 -833.3 L -4638.5 -1126 L -4822.2 -1300.2 L -4883.6 -1480 L -4960.7 -1643.2 L -5149.2 -1774.9 L -5258.5 -1953.8 L -5415.9 -2070.9 L -5634 -2301.3 L -5652.4 -2407.7 L -5517.8 -2399.3 L -5194.1 -2358.9 L -5009.2 -2154.4 L -4847.5 -2012.7 L -4732.2 -1925.7 L -4534.1 -1700.9 L -4321.5 -1697.6 L -4145.8 -1554.4 L -4024.9 -1379.3 L -3865.6 -1283.8 L -3949.4 -1113.1 L -3829.6 -1040.5 L -3754.5 -1035.1 Z" />
<path class="neighbor" d="M 5303.2 7270.7 L 5428.6 7284.7 L 5443.4 7532.9 L 5371.8 7605 L 5350.2 7773.2 L 5277.1 7715.9 L 5132 7861.6 L 5088.7 7850.4 L 4960.1 7843.9 L 4831.2 7664.9 L 4802.6 7526.9 L 4681.9 7344.8 L 4687.3 7248.9 L 4824.1 7267.4 L 5026.1 7339.6 L 5139.9 7310.9 L 5303.2 7270.7 Z M 799.2 5474.1 L 577.6 5581.3 L 396.3 5629.6 L 356 5739.2 L 278.8 5824.2 L 101.4 5829.3 L -29.9 5847.8 L -214.7 5809.7 L -365.1 5832.5 L -508.6 5842.1 L -633 5953.6 L -693.9 5944.2 L -798.8 6003.3 L -899.4 6069.8 L -1051.9 6061.6 L -1192.1 6061.5 L -1413.8 5927.9 L -1526.2 5888.2 L -1521.7 5768.4 L -1417.9 5739.9 L -1382.4 5692.3 L -1389.8 5617.2 L -1364.2 5471.8 L -1387.7 5347.9 L -1498.2 5136.6 L -1532.5 5017.2 L -1523.5 4898.1 L -1606.7 4762 L -1612 4700.6 L -1704.6 4617.3 L -1730.7 4453.5 L -1850.2 4288 L -1879.2 4198.8 L -1787.3 4289.2 L -1857.8 4095.2 L -1754.1 4155.8 L -1692.2 4236.8 L -1695.7 4129.7 L -1799.2 3965.1 L -1819.3 3899.2 L -1867.7 3836.7 L -1845.1 3715.7 L -1802.2 3664.3 L -1773.7 3559.7 L -1796 3437.5 L -1709.6 3287 L -1693.8 3446.2 L -1605.5 3302.4 L -1435.6 3232.5 L -1333.8 3143.3 L -1174 3066.6 L -1078.9 3050.3 L -1021.3 3076 L -856.6 2998.1 L -729.8 2974.9 L -698 2929.1 L -642.7 2910 L -527.1 2915 L -307.4 2853.7 L -193.7 2760.9 L -140.3 2649.2 L -17.7 2543 L -8.3 2459.6 L -2.8 2345.9 L 143.5 2168.2 L 231.6 2348.7 L 320.6 2307 L 246.1 2208.2 L 311.7 2106.8 L 404 2152.1 L 429.4 1993 L 543.6 1890.1 L 594 1807.6 L 699.2 1772 L 702.5 1713.5 L 794.3 1737.9 L 798 1685.4 L 890 1655.4 L 991 1627.3 L 1145.5 1723.2 L 1261.5 1847.1 L 1392.4 1848.5 L 1525.4 1868.1 L 1481.1 1753.3 L 1581.2 1585.6 L 1675.5 1531 L 1642.9 1478.7 L 1733.7 1359.3 L 1860.3 1285.5 L 1967.3 1310.4 L 2143 1271 L 2139.2 1164.1 L 1986 1095.3 L 2097.4 1064.9 L 2235.9 1116.7 L 2347 1202.5 L 2523.1 1256 L 2582.8 1234.8 L 2712.4 1299.1 L 2834.5 1239.2 L 2913.1 1257.5 L 2962 1217.3 L 3058 1320.7 L 3002.3 1432.6 L 2922.9 1517.1 L 2851.1 1524.1 L 2875.3 1607.7 L 2813.9 1712.2 L 2739.6 1814.9 L 2754.6 1873.9 L 2920.8 1989.5 L 3081.8 2056.5 L 3189.5 2128.5 L 3340.6 2252.4 L 3399.6 2252.2 L 3509 2305.7 L 3540.8 2370.3 L 3740.4 2441.2 L 3878.5 2369.8 L 3919.4 2257.5 L 3961.8 2164.8 L 3987.8 2050.2 L 4051.3 1883.8 L 4022.3 1782.7 L 4037.4 1721.9 L 4013.2 1602.2 L 4040.6 1444.7 L 4080.7 1402.2 L 4048.2 1332.4 L 4098.7 1221.5 L 4138.4 1106.6 L 4143.7 1047 L 4221.3 968.7 L 4280.3 1070.9 L 4294.8 1202.1 L 4346.9 1227.4 L 4355.9 1315.2 L 4431.9 1421.6 L 4447.6 1540 L 4440.2 1615.9 L 4515.5 1780 L 4649.7 1701.1 L 4718.9 1789.6 L 4819.2 1871.3 L 4797.8 1963.9 L 4842.3 2143.2 L 4874.1 2247.6 L 4926.7 2273.1 L 4983.5 2451.8 L 4963.3 2560.2 L 5031 2702 L 5257.6 2811.3 L 5405.3 2910.7 L 5545.6 3001.7 L 5518.2 3052.3 L 5637.8 3183.4 L 5719.1 3409.7 L 5802.5 3363.7 L 5887.3 3454.3 L 5938.4 3422.2 L 5974.4 3643.8 L 6122.8 3772.2 L 6219.9 3852 L 6383.3 4021.3 L 6442.1 4189.3 L 6447.5 4308.5 L 6433 4437.9 L 6532.7 4615.6 L 6520.7 4800.7 L 6484.5 4897.5 L 6428.1 5084 L 6432.3 5203.9 L 6390.9 5353.8 L 6298.6 5544 L 6143.7 5646.7 L 6067.3 5808.7 L 5997.6 5912 L 5935.7 6092.5 L 5855 6196.7 L 5802.1 6353.2 L 5775.1 6497.2 L 5785.8 6563.3 L 5665.9 6636 L 5431.8 6643.6 L 5238.9 6729.3 L 5142.8 6810.3 L 5016.4 6900.1 L 4843.3 6807.7 L 4715.2 6770.8 L 4747.6 6661.8 L 4633.3 6701.3 L 4450.2 6852.8 L 4269.5 6796 L 4150.9 6763 L 4031.3 6748 L 3828.9 6687.5 L 3693.8 6558.7 L 3655 6399.9 L 3606.4 6294.2 L 3503.7 6209.4 L 3302.5 6184.3 L 3371.2 6082.8 L 3320.6 5927.6 L 3218.5 6072.3 L 3032.5 6110.7 L 3141.8 5995 L 3173.5 5874.4 L 3254.3 5772 L 3237.6 5617.1 L 3067.5 5795.4 L 2936.9 5867 L 2856.8 6033.3 L 2693.5 5947.2 L 2700 5836.3 L 2569.1 5684.6 L 2458.8 5606.3 L 2498.2 5558 L 2229.9 5431.3 L 2082.9 5425.3 L 1881.8 5323.5 L 1507.5 5343.3 L 1236.7 5418.2 L 998.8 5488 L 799.2 5474.1 Z" />

<path class="country" d="M 552.5 597.4 L 577.1 548.1 L 757.1 501.1 L 903 494 L 968.3 467.9 L 1047.5 493.8 L 970.6 550.5 L 752.7 642 L 577.6 702.1 L 573.7 638.7 L 552.5 597.4 Z" />


<g class="city"><circle cx="680.2224818181821" cy="527.7360636363633" r="5" /><text x="692.2224818181821" y="531.7360636363633">Dili</text></g>
<text class="map-title" x="80" y="105">East Timor Physical Study Map</text>
<text class="map-subtitle" x="80" y="145">Landmark: Cristo Rei of Dili | Study terrain and water systems</text>
  <text class="footer" x="80" y="1036">Made with Natural Earth. Free vector and raster map data @ naturalearthdata.com.</text>
</svg>
