<?xml version="1.0" encoding="UTF-8"?>
<svg xmlns="http://www.w3.org/2000/svg" width="1600" height="1100" viewBox="0 0 1600 1100" role="img" aria-labelledby="title desc">
  <title id="title">Turkey Physical Study Map</title>
  <desc id="desc">Made with Natural Earth. Free vector and raster map data @ naturalearthdata.com.</desc>
  <defs>
    <linearGradient id="terrain" x1="0" x2="1" y1="0" y2="1">
      <stop offset="0%" stop-color="#6c8c53" />
      <stop offset="42%" stop-color="#d5c487" />
      <stop offset="72%" stop-color="#b88b5f" />
      <stop offset="100%" stop-color="#f1f5ee" />
    </linearGradient>
    <filter id="softShadow" x="-10%" y="-10%" width="120%" height="120%">
      <feDropShadow dx="0" dy="10" stdDeviation="12" flood-color="#0f172a" flood-opacity="0.16" />
    </filter>
    <style>
      .neighbor { fill: #ffffff; stroke: #94a3b8; stroke-width: 1.2; opacity: 0.72; }
      .country { fill: url(#terrain); stroke: #1f2937; stroke-width: 4; filter: url(#softShadow); }
      .admin1 { fill: none; stroke: #64748b; stroke-width: 1.1; stroke-dasharray: 6 7; opacity: 0.75; }
      .river { fill: none; stroke: #1d9bd1; stroke-width: 3; stroke-linecap: round; opacity: 0.88; }
      .lake { fill: #8ed1ea; stroke: #0ea5e9; stroke-width: 1.5; opacity: 0.8; }
      .city circle { fill: #ef4444; stroke: #ffffff; stroke-width: 2; }
      .city text, .terrain-label { fill: #172033; font: 700 24px system-ui, sans-serif; paint-order: stroke; stroke: #ffffff; stroke-width: 5; stroke-linejoin: round; }
      .map-title { fill: #0f172a; font: 800 46px system-ui, sans-serif; }
      .map-subtitle { fill: #475569; font: 600 24px system-ui, sans-serif; }
      .footer { fill: #64748b; font: 500 18px system-ui, sans-serif; }
    </style>
  </defs>
  <rect width="100%" height="100%" fill="#d8edf0" />
  <rect x="40" y="40" width="1520" height="1020" rx="32" fill="#ffffff" opacity="0.54" />
  <path class="neighbor" d="M 2766.8 197.5 L 2738 222.7 L 2706.5 226.3 L 2704.7 264.2 L 2683.6 281.3 L 2608.5 268.9 L 2581.2 336.7 L 2561.8 345.1 L 2486.8 360.2 L 2520.9 426 L 2494.9 435.9 L 2497.9 457.5 L 2474.6 451.9 L 2455.6 438.3 L 2399.4 434.3 L 2336.6 433.3 L 2322.9 437.5 L 2269 421.5 L 2247.5 429.4 L 2241.6 451.7 L 2179.3 438.7 L 2154.4 444 L 2145.9 460.6 L 2124.2 467.6 L 2074.2 494 L 2057.7 521.1 L 2043.5 521.4 L 2033.2 503.4 L 1985 502.2 L 1977.3 471.2 L 1958.9 470.9 L 1961.7 432.9 L 1916.4 405.3 L 1851.4 408.2 L 1807 413.7 L 1770.9 379.6 L 1739.9 365.3 L 1681.2 338.2 L 1674.1 334.9 L 1576.6 357.3 L 1578.1 496.9 L 1558.7 498.7 L 1532.2 469 L 1506.6 458.4 L 1463.6 466.3 L 1446.9 478.9 L 1444.8 469.7 L 1454.1 453.9 L 1446.8 440.7 L 1403 427.8 L 1385.9 393.8 L 1365 384.2 L 1363.7 371.9 L 1400.5 375.5 L 1402 347.8 L 1434.2 341.6 L 1467.3 347.3 L 1474.1 310.4 L 1467.3 286.9 L 1429.4 288.8 L 1397.3 279.5 L 1353.4 296.2 L 1318.1 304.1 L 1298.9 298 L 1302.7 278.5 L 1278.6 253.2 L 1250.5 254.3 L 1218.3 228.6 L 1240.2 199.9 L 1229.1 192.2 L 1259.3 150.6 L 1298.3 172.5 L 1303 144.9 L 1381.2 103.7 L 1440.3 102.7 L 1523.8 128.9 L 1568.6 144.2 L 1608.8 128.3 L 1668.8 127.5 L 1717.2 147.1 L 1728.2 135.9 L 1781.4 137.5 L 1790.9 119.6 L 1729.6 93.5 L 1765.9 75.1 L 1758.8 64.8 L 1795.2 54.9 L 1767.8 29 L 1785.2 16.1 L 1926.9 2.9 L 1945.4 -6.4 L 2040.1 -20.4 L 2074.2 -36.1 L 2142.2 -28 L 2154.1 11.3 L 2193.7 2.1 L 2242.3 15 L 2239.1 35.6 L 2275.5 33.5 L 2370.4 -2.3 L 2356.5 9.6 L 2404.8 38.9 L 2489.4 135 L 2509.6 115.2 L 2561.8 137 L 2616.2 127.3 L 2637.1 134.1 L 2655.3 156 L 2681.8 163.3 L 2697.9 179.4 L 2746.7 174.3 L 2766.8 197.5 Z" />
<path class="neighbor" d="M 6226.4 -631.1 L 6274.6 -646.9 L 6274.6 -621 L 6233.1 -619.1 L 6226.4 -631.1 Z M 1318.1 304.1 L 1300.8 326.6 L 1264.1 332.8 L 1226.5 371.9 L 1260.9 407.8 L 1257.2 433.3 L 1298.5 477.9 L 1298.5 477.9 L 1275.9 493.2 L 1269.4 502.8 L 1252.7 500.2 L 1226.6 477.2 L 1216 476 L 1192.2 467.2 L 1180.6 451.7 L 1145.3 443.7 L 1122.3 449.7 L 1115.7 442.7 L 1064.1 424.5 L 1008.4 418.4 L 976.4 411.9 L 971.8 416.4 L 923.5 384.4 L 880.3 370.1 L 847.6 347.8 L 875.1 341.8 L 906.6 310.1 L 885.4 295.1 L 941.2 279.7 L 940.2 271.4 L 906.2 277.5 L 907.4 260.7 L 926.9 250.1 L 963.6 247.3 L 969.5 234.7 L 961.2 213.8 L 976.5 194 L 976.1 182.9 L 920.3 170.6 L 898.1 171 L 874.8 153.2 L 845.7 159.2 L 797.6 145.9 L 798.5 138.5 L 785 122.1 L 754.8 120.2 L 751.7 108.5 L 761.1 100.8 L 736.9 79.4 L 697.7 83 L 686.2 81.1 L 676.6 89.7 L 662.4 88.2 L 662.4 88.2 L 653.1 64 L 644.2 51.4 L 651.5 47.8 L 682.1 49.2 L 696.8 40.9 L 685.9 30.8 L 660.4 24.1 L 662.7 17.3 L 647.2 10.4 L 623.5 -14.4 L 631.6 -24.6 L 627.9 -42.4 L 590.9 -51.4 L 571 -46.9 L 565.6 -56.3 L 525.8 -65.8 L 513.6 -88.2 L 510.4 -106.5 L 492.1 -115.2 L 508.4 -127.3 L 497.1 -162.6 L 524.1 -184.4 L 518.4 -191 L 518.4 -191 L 561.4 -211.9 L 521.7 -229.9 L 521.7 -229.9 L 602.8 -278.3 L 638 -300.1 L 652.2 -319.5 L 596.2 -345.4 L 611.7 -370.1 L 577.6 -398.3 L 603.1 -430.7 L 559 -473.8 L 594 -502.4 L 536 -527.6 L 541.5 -554.1 L 572.1 -557.6 L 636.5 -572.8 L 636.5 -572.8 L 675.6 -586 L 737.8 -563.1 L 841.5 -554.1 L 984.5 -511.2 L 1013.6 -493.2 L 1016.1 -468 L 974.1 -448.1 L 912.2 -438 L 743.2 -466.8 L 715.4 -462 L 777.1 -434.3 L 779.5 -416.7 L 782 -378 L 830.8 -366.5 L 860.4 -356.6 L 865.3 -375 L 842.4 -391.3 L 866.5 -405.6 L 958.1 -382.1 L 990 -391.3 L 964.5 -419 L 1052.7 -456.1 L 1087.7 -453.9 L 1123 -440.7 L 1145.1 -466.7 L 1113.5 -489.3 L 1132.1 -511.9 L 1104.2 -535.4 L 1210.1 -523.3 L 1231.8 -502.1 L 1183.8 -497.4 L 1184.1 -476.3 L 1213.9 -463.3 L 1272.4 -471.6 L 1281.7 -495.7 L 1360.7 -513.7 L 1492.9 -546.3 L 1521.5 -544.4 L 1484.1 -521.4 L 1531.1 -517.5 L 1558.2 -530.4 L 1629.2 -531.5 L 1685.4 -547.1 L 1728.6 -524.3 L 1771.6 -549.4 L 1731.9 -571.4 L 1751.6 -583.8 L 1863.5 -572.4 L 1915.9 -560.6 L 2053.1 -517.3 L 2078.4 -537.1 L 2039.9 -557.1 L 2038.8 -565.2 L 1993.2 -568.9 L 2005.7 -586.8 L 1985.4 -616.4 L 1984.3 -628.5 L 2054.2 -662.8 L 2079 -697.2 L 2107.2 -704.6 L 2207.4 -694.7 L 2215.3 -673.6 L 2179.4 -642.9 L 2203 -630.8 L 2215.2 -604.3 L 2206.5 -552.5 L 2248.3 -529.2 L 2232.1 -504 L 2157.9 -450.2 L 2201.2 -444.6 L 2216.2 -458.2 L 2257.9 -468 L 2268 -486.7 L 2300.7 -504.7 L 2278.7 -526.3 L 2296.3 -551.3 L 2254.9 -554.4 L 2245.8 -575.4 L 2276 -613.4 L 2226.9 -644.3 L 2294.6 -669.8 L 2285.9 -696.8 L 2304.7 -697.6 L 2324.6 -676.6 L 2309.7 -640.1 L 2350.2 -633.2 L 2333 -660.5 L 2396.3 -675.4 L 2474.9 -677.4 L 2544.9 -655.8 L 2511.2 -687.3 L 2507.4 -727.7 L 2573.3 -735.3 L 2664.4 -733.6 L 2746.4 -738.6 L 2715.6 -758.4 L 2759.5 -783.3 L 2803 -784.3 L 2876.6 -803.1 L 2976.6 -808.1 L 2989.2 -818.5 L 3088.6 -822 L 3119.6 -813.5 L 3204.6 -833.6 L 3274.2 -833 L 3284.6 -849.4 L 3320.8 -865.5 L 3410.2 -881 L 3475.1 -868.7 L 3423.6 -859.4 L 3509.3 -853.6 L 3519.5 -834.9 L 3554.1 -844.1 L 3664.8 -843.6 L 3750.2 -825.1 L 3780.6 -810.9 L 3771.2 -791.3 L 3729.3 -780.1 L 3629.8 -759 L 3601.3 -747.8 L 3648.3 -742.5 L 3704.3 -733 L 3738.4 -740.1 L 3757.7 -715.8 L 3774.3 -725.6 L 3834.9 -731.6 L 3956.4 -725.4 L 3965.6 -707.7 L 4123.9 -702 L 4126.1 -731 L 4206.4 -724.3 L 4266.9 -724.5 L 4328 -704.6 L 4345.4 -680.4 L 4323 -664.5 L 4370.6 -634.7 L 4430.2 -619.3 L 4466.7 -659.1 L 4527.4 -642 L 4592 -652.2 L 4665.3 -640.6 L 4693.1 -651.2 L 4755.1 -645.9 L 4727.7 -681 L 4777.7 -697.4 L 5119.7 -672.8 L 5152 -650.4 L 5251.1 -621.4 L 5404 -628.6 L 5479.4 -622.3 L 5510.9 -606.7 L 5506.3 -579 L 5552.9 -568.2 L 5603.6 -576 L 5670.8 -577 L 5742.3 -569.5 L 5814 -573.7 L 5880 -540.1 L 5926.9 -552.2 L 5896.3 -576.4 L 5913.1 -593.2 L 6034 -582.6 L 6112.7 -584.9 L 6221.6 -566.8 L 6274.6 -550.3 L 6274.6 -399.4 L 6274.4 -399.2 L 6225.7 -382.6 L 6176.6 -385.4 L 6210.7 -365.2 L 6233.3 -334 L 6250.8 -323.8 L 6255.2 -308.1 L 6245.4 -298.1 L 6174.8 -306.4 L 6069 -277.9 L 6035.3 -273.4 L 5977.4 -246.8 L 5922.4 -223.6 L 5908.5 -206.4 L 5854.3 -232.6 L 5755.7 -202.9 L 5738.5 -216.9 L 5702 -200.7 L 5651.3 -205.9 L 5639.1 -181 L 5593.7 -144.4 L 5595.1 -129.1 L 5638.2 -120.6 L 5633.1 -65.4 L 5598 -64 L 5581.7 -32.4 L 5597.5 -16.1 L 5531.3 3.3 L 5518.1 46.5 L 5461.7 55.7 L 5450.3 94.2 L 5395.8 129.5 L 5381.8 103.4 L 5365.5 48.2 L 5344.4 -36 L 5362.6 -88.5 L 5394.6 -111.1 L 5396.5 -128.8 L 5455.4 -137.3 L 5523 -184.9 L 5588.2 -223.9 L 5656.3 -254.1 L 5686.7 -307.5 L 5640.7 -304.3 L 5618 -273.1 L 5521.9 -231.5 L 5490.9 -278 L 5393.1 -265.2 L 5298.4 -201.7 L 5329.6 -178.5 L 5245.1 -168.6 L 5186.6 -164.7 L 5189.3 -192.1 L 5130.5 -197.8 L 5083.6 -179.2 L 4967.8 -185.7 L 4843.2 -174.5 L 4720.6 -100.6 L 4575.5 -11.3 L 4635.1 -6.5 L 4653.7 17.2 L 4690.5 25.6 L 4714.7 6.7 L 4756.3 9.1 L 4811 50.8 L 4812.2 83 L 4782.6 120.8 L 4779.4 166.1 L 4762.4 226.6 L 4705.3 281.4 L 4692.6 307.6 L 4641.2 351.7 L 4590.2 395.4 L 4565.7 417.8 L 4515.3 440 L 4491.4 440.5 L 4467.6 422.1 L 4416.8 449.8 L 4410.9 462.4 L 4410.9 462.4 L 4410.9 462.4 L 4410.9 462.4 L 4405.6 455.7 L 4405.6 455.7 L 4405.4 436.5 L 4424.7 435.5 L 4430.1 390.8 L 4420.2 358.3 L 4452.7 344.9 L 4498.6 351.7 L 4524.1 314.8 L 4537.1 273.3 L 4551.8 259.5 L 4571.7 225.4 L 4509.1 236.6 L 4476.3 251.5 L 4418.7 251.5 L 4403.4 215.9 L 4358.6 189 L 4292.7 176.9 L 4278.6 139.8 L 4265.5 116.5 L 4251.3 100.2 L 4227.9 62 L 4194.6 48.1 L 4137.9 36.8 L 4087.7 37.8 L 4040.7 44.7 L 4009.4 63.5 L 4030.2 72.5 L 4030.7 93.4 L 4009.6 105.5 L 3975.4 145.7 L 3975.8 162.4 L 3922.4 186.3 L 3876.9 172 L 3831.8 175.2 L 3811.9 162.5 L 3789.2 158.4 L 3733.8 185.1 L 3683.9 191.3 L 3649.1 200.7 L 3601.4 194.6 L 3566.3 194.9 L 3543.3 175.6 L 3506.2 157.4 L 3468.3 152.4 L 3420.4 157.4 L 3384.6 164.4 L 3330.8 148.4 L 3323.6 120.1 L 3279.1 110.3 L 3244.7 105.9 L 3202.3 90.3 L 3163.1 129.5 L 3178.4 151.8 L 3141.6 178.2 L 3086.9 168.6 L 3049.1 167.3 L 3023.8 149.6 L 2984.3 149 L 2951.4 137.4 L 2893.8 155.2 L 2821.5 187.8 L 2781.6 194.4 L 2766.8 197.5 L 2746.7 174.3 L 2697.9 179.4 L 2681.8 163.3 L 2655.3 156 L 2637.1 134.1 L 2616.2 127.3 L 2561.8 137 L 2509.6 115.2 L 2489.4 135 L 2404.8 38.9 L 2356.5 9.6 L 2370.4 -2.3 L 2275.5 33.5 L 2239.1 35.6 L 2242.3 15 L 2193.7 2.1 L 2154.1 11.3 L 2142.2 -28 L 2074.2 -36.1 L 2040.1 -20.4 L 1945.4 -6.4 L 1926.9 2.9 L 1785.2 16.1 L 1767.8 29 L 1795.2 54.9 L 1758.8 64.8 L 1765.9 75.1 L 1729.6 93.5 L 1790.9 119.6 L 1781.4 137.5 L 1728.2 135.9 L 1717.2 147.1 L 1668.8 127.5 L 1608.8 128.3 L 1568.6 144.2 L 1523.8 128.9 L 1440.3 102.7 L 1381.2 103.7 L 1303 144.9 L 1298.3 172.5 L 1259.3 150.6 L 1229.1 192.2 L 1240.2 199.9 L 1218.3 228.6 L 1250.5 254.3 L 1278.6 253.2 L 1302.7 278.5 L 1298.9 298 L 1318.1 304.1 Z M 3009.8 -1007 L 3091.7 -1015.5 L 3165.3 -996.5 L 3252.5 -959.9 L 3243.1 -925.8 L 3160.5 -921.1 L 3055 -932 L 2992.2 -946.5 L 2963.1 -973.6 L 2911.5 -981.1 L 3009.8 -1007 Z M 3352.9 -941 L 3448.8 -919.5 L 3437.6 -904.1 L 3224.1 -889.5 L 3293.3 -939.2 L 3324.4 -943.4 L 3352.9 -941 Z M 4715.7 -821.9 L 4815.7 -820.2 L 4952.6 -800.2 L 4922.8 -772 L 4783.3 -773.1 L 4720.5 -764.1 L 4645.4 -788.8 L 4665.8 -814.8 L 4715.7 -821.9 Z M 5071.3 -791.9 L 5166.4 -782 L 5122.6 -767.1 L 5062.1 -770.5 L 4991.7 -785.4 L 5000.8 -797.7 L 5071.3 -791.9 Z M 4754.8 -717.1 L 4790.7 -732.1 L 4838.1 -735.6 L 4891.9 -721.1 L 4896.5 -711.2 L 4839.1 -710.9 L 4761.5 -715.1 L 4754.8 -717.1 Z M 1157 -990.5 L 1230.9 -997.4 L 1288.5 -997.9 L 1296.2 -987.7 L 1317.9 -996.7 L 1353.6 -1003 L 1409.8 -994.7 L 1395.1 -988.9 L 1344.3 -983.9 L 1310.3 -981 L 1305 -974.8 L 1260.7 -968.6 L 1219.7 -977.5 L 1241.3 -989.4 L 1157 -990.5 Z M 319.6 3.9 L 250 4.5 L 203.3 0.2 L 211.9 -16.5 L 264.2 -28.8 L 303.9 -22.1 L 320.6 -16.1 L 316.5 -5.7 L 319.6 3.9 Z M 1485 -731.5 L 1575.6 -764.7 L 1565.4 -781.9 L 1650.1 -801.9 L 1775.1 -826.3 L 1901.1 -833.3 L 1966 -847.4 L 2039.7 -852.3 L 2066 -837.3 L 2040.5 -825.6 L 1906.4 -806.8 L 1790.7 -788.7 L 1673.1 -752.7 L 1616.7 -715.7 L 1557.3 -679.3 L 1565 -647.9 L 1637.5 -616.8 L 1615.1 -613.5 L 1491.4 -618.4 L 1481.3 -635.2 L 1412.8 -645.4 L 1407.3 -665.8 L 1446 -673.9 L 1444.7 -694.6 L 1519.8 -726.9 L 1485 -731.5 Z M 4870.4 27.5 L 4883.5 64 L 4882.5 101.3 L 4898.1 139.5 L 4936.2 206.5 L 4880.2 194 L 4856.9 248.8 L 4893.8 287.6 L 4892.7 314 L 4864.1 291.2 L 4839.2 320.5 L 4832.2 288.7 L 4836.4 251.8 L 4832.1 211 L 4840.9 182.4 L 4842.6 131.7 L 4820.4 94.5 L 4823.7 42.8 L 4858.7 25.3 L 4843.7 7.8 L 4860.5 2.5 L 4870.4 27.5 Z M -7164.9 -483.7 L -7168.1 -460.2 L -7142.6 -450.8 L -7151.4 -478.3 L -7048.6 -472.6 L -6974.5 -437.2 L -7012 -420.7 L -7074.1 -416.8 L -7075 -379.8 L -7090.2 -371.9 L -7125.6 -373 L -7154.5 -386.2 L -7204.8 -397.3 L -7213.3 -413.7 L -7251.7 -419.9 L -7294.8 -415 L -7315.4 -428.2 L -7307.2 -442.3 L -7352.5 -433.3 L -7335.4 -415.5 L -7356.9 -399.4 L -7356.9 -550.3 L -7264.1 -521.4 L -7164.9 -483.7 Z M -7307.4 -623.3 L -7356.9 -621 L -7356.9 -646.9 L -7352.1 -648.5 L -7320 -648.4 L -7265.2 -637.6 L -7268.4 -632.4 L -7307.4 -623.3 Z M 724.9 320.3 L 734.9 310.9 L 761.8 319 L 774 320.5 L 778.9 328 L 784.6 329.2 L 784.9 332.4 L 803.5 341.6 L 842.1 339.3 L 834.7 352.8 L 793.2 359.4 L 741.8 381.3 L 720.8 373.6 L 729.1 355.8 L 687.7 344.7 L 694.4 337.4 L 730.7 324.9 L 724.9 320.3 Z" />
<path class="neighbor" d="M 811.4 822.5 L 804.8 834.4 L 791.1 829.2 L 783.2 854.4 L 792.7 858.7 L 783 863.9 L 781.4 873.8 L 799.2 868.7 L 800.1 883.4 L 781.2 944 L 777.5 934.1 L 756.3 878.9 L 756.3 878.9 L 756.3 878.9 L 767.3 866.4 L 764.8 864.3 L 774.8 846.6 L 782.5 818 L 787.9 808.4 L 788.9 808.1 L 801.6 808.1 L 805.1 801.5 L 815.2 801 L 815.8 816.5 L 810.7 822.2 L 811.4 822.5 Z" />
<path class="neighbor" d="M 815.2 801 L 805.1 801.5 L 801.6 808.1 L 788.9 808.1 L 802.4 777.2 L 821.2 750.5 L 822 749.2 L 839 751.1 L 845.2 766 L 824.5 780.3 L 815.2 801 Z" />
<path class="neighbor" d="M 804.8 834.4 L 811.4 822.5 L 853.6 837.5 L 927.7 797.2 L 943 843.3 L 935.8 849 L 860 868 L 897.7 905.8 L 885.2 912.3 L 878.9 924.9 L 850.1 930.2 L 841 943.8 L 824.6 955.5 L 782.5 949.5 L 781.2 944 L 800.1 883.4 L 799.2 868.7 L 804.8 857.6 L 804.8 834.4 Z" />
<path class="neighbor" d="M 943 843.3 L 927.7 797.2 L 1011.6 757.7 L 1025.9 712 L 1022.3 684.3 L 1043 675 L 1062.4 651.3 L 1078.7 645.4 L 1122.7 650.3 L 1136 660 L 1154.2 653.6 L 1178.7 698.7 L 1203.6 710.1 L 1206.4 732.2 L 1187.4 745.3 L 1178.6 774.8 L 1204.8 810.8 L 1251.2 831.6 L 1270.7 860.4 L 1264.5 887.8 L 1276.6 887.8 L 1276.9 908 L 1297.9 927.9 L 1275.4 926 L 1250 922.9 L 1222.2 959.2 L 1151.8 956.2 L 1045 880 L 988.6 853.5 L 943 843.3 Z" />
<path class="neighbor" d="M 1446.9 478.9 L 1463.6 466.3 L 1506.6 458.4 L 1532.2 469 L 1558.7 498.7 L 1578.1 496.9 L 1620.8 496.4 L 1614.6 477.3 L 1647 464.2 L 1678.9 442.2 L 1729.9 462.3 L 1733.9 492.5 L 1748.4 500.2 L 1789.4 498.5 L 1802.1 505.4 L 1820.7 544.4 L 1864 570.5 L 1888.7 588.4 L 1928.3 606.9 L 1978.7 623.1 L 1977.6 646.3 L 1966.2 645.1 L 1948.3 635 L 1942.4 648.5 L 1910.5 655.8 L 1902.9 686.1 L 1881.6 697.6 L 1851.7 703.3 L 1843.8 720.5 L 1815.2 725.5 L 1776.6 711.1 L 1773.3 679.3 L 1745.1 677.9 L 1701.8 644.4 L 1671.6 640.3 L 1629.7 621.1 L 1602.8 617.6 L 1586.1 624.6 L 1560.8 623.5 L 1533.9 645.2 L 1500.6 652.5 L 1493.6 625.7 L 1499.1 586.1 L 1469.5 573.3 L 1479.3 547.4 L 1454.1 545.2 L 1462.5 513.2 L 1498.2 522.5 L 1531.5 510.4 L 1503.9 487.7 L 1493.1 466 L 1462.6 475.7 L 1458.7 503.4 L 1446.9 478.9 Z" />
<path class="neighbor" d="M 1297.9 927.9 L 1276.9 908 L 1276.6 887.8 L 1264.5 887.8 L 1270.7 860.4 L 1251.2 831.6 L 1204.8 810.8 L 1178.6 774.8 L 1187.4 745.3 L 1206.4 732.2 L 1203.6 710.1 L 1178.7 698.7 L 1154.2 653.6 L 1154.2 653.6 L 1133.5 623.2 L 1140.9 611.5 L 1129.1 568.1 L 1155 557.3 L 1161 571.6 L 1180.1 589.1 L 1206.1 594.1 L 1219.8 593 L 1264.5 565.1 L 1278.7 562.3 L 1289.9 573.4 L 1276.8 592.1 L 1300.4 611.9 L 1309.8 610 L 1321.8 638 L 1357.7 645.8 L 1384 664.8 L 1437.9 671.4 L 1497 661.4 L 1500.6 652.5 L 1533.9 645.2 L 1560.8 623.5 L 1586.1 624.6 L 1602.8 617.6 L 1629.7 621.1 L 1671.6 640.3 L 1701.8 644.4 L 1745.1 677.9 L 1773.3 679.3 L 1776.6 711.1 L 1761.2 758.3 L 1750.8 785.9 L 1767.3 791.5 L 1751.1 812.2 L 1763.5 842.4 L 1766.4 866.5 L 1795.1 872.9 L 1798.2 897.2 L 1763.9 931.6 L 1782.6 951.5 L 1797.9 974.3 L 1834.1 991 L 1835.1 1024.3 L 1853.2 1030.5 L 1856.4 1047.9 L 1801.7 1067.5 L 1787.5 1111.5 L 1716.2 1100 L 1675 1091.3 L 1632.2 1086.4 L 1616.1 1040 L 1598 1033.3 L 1568.9 1040 L 1530.7 1058.3 L 1484.4 1045.8 L 1446.2 1016.7 L 1409.7 1005.9 L 1384.4 970 L 1356.5 919.5 L 1336.1 925.6 L 1312 913.1 L 1297.9 927.9 Z" />
<path class="neighbor" d="M 811.4 822.5 L 810.7 822.2 L 815.8 816.5 L 815.2 801 L 824.5 780.3 L 845.2 766 L 839 751.1 L 822 749.2 L 818.4 720.2 L 827.7 704.7 L 837.8 696.4 L 848 688.1 L 850 666.9 L 862.4 674.3 L 904.1 663.8 L 924.2 670.9 L 955.4 670.8 L 999 656.6 L 1019.4 657.2 L 1062.4 651.3 L 1043 675 L 1022.3 684.3 L 1025.9 712 L 1011.6 757.7 L 927.7 797.2 L 853.6 837.5 L 811.4 822.5 Z" />
<path class="neighbor" d="M 1219.8 593 L 1206.1 594.1 L 1190.6 572.2 L 1190.8 566.4 L 1174.1 566.4 L 1162.9 556.3 L 1155 557.3 L 1140.1 546.2 L 1111.9 536.8 L 1115.6 518.4 L 1109.1 505.1 L 1161.8 499.2 L 1169.6 509.1 L 1184 515.7 L 1176.4 525.2 L 1196.6 538.2 L 1185.9 550.2 L 1202 560.5 L 1219 566.7 L 1219.8 593 Z" />
<path class="neighbor" d="M 662.4 88.2 L 676.6 89.7 L 686.2 81.1 L 697.7 83 L 736.9 79.4 L 761.1 100.8 L 751.7 108.5 L 754.8 120.2 L 785 122.1 L 798.5 138.5 L 797.6 145.9 L 845.7 159.2 L 874.8 153.2 L 898.1 171 L 920.3 170.6 L 976.1 182.9 L 976.5 194 L 961.2 213.8 L 969.5 234.7 L 963.6 247.3 L 926.9 250.1 L 907.4 260.7 L 906.2 277.5 L 876 280.5 L 850.8 292.8 L 815.3 294.8 L 782.7 308.9 L 784.6 329.2 L 778.9 328 L 774 320.5 L 761.8 319 L 734.9 310.9 L 724.9 320.3 L 719.7 316.2 L 660.9 306.6 L 658.3 292.5 L 623.2 297.2 L 609.1 318 L 579.8 346 L 562.6 339.5 L 544.8 345.6 L 527.9 338.6 L 537.5 334.5 L 544.1 321.5 L 554.4 309.4 L 551.8 302.7 L 559.7 299.6 L 563.4 304.9 L 585.7 306 L 595.8 303.2 L 588.7 299.4 L 591.4 293.7 L 578.1 284.1 L 572.7 268.3 L 558.9 262.1 L 561.6 249.2 L 544.5 239 L 528.9 237.6 L 501 225.8 L 475.8 229.6 L 466.8 235.2 L 450.8 235.1 L 441.3 244 L 413.4 247.6 L 400.4 253.5 L 382.9 244.2 L 358.6 244.1 L 335.1 239.9 L 318.8 248 L 316.2 237.8 L 295.1 227.5 L 302.5 212.3 L 313 202.4 L 321.3 204.6 L 311.5 187.6 L 345.9 156.1 L 364.7 151.7 L 368.8 141.1 L 349.7 108 L 367.8 106.5 L 388.6 96.3 L 417.9 95.4 L 456.2 98.4 L 498.4 107.5 L 528.2 108.2 L 542.5 113.7 L 556.7 107.1 L 566.6 116 L 600.8 114.2 L 615.8 117.8 L 618.3 98.8 L 629.9 90.4 L 662.4 88.2 Z" />
<path class="neighbor" d="M 527.9 338.6 L 544.8 345.6 L 562.6 339.5 L 579.8 346 L 580.7 355.8 L 562.3 363.9 L 550.8 360.4 L 540.2 406.1 L 518 402.1 L 490.4 388.3 L 445.8 397.1 L 427 406.8 L 371.4 404.8 L 342.3 398.9 L 327.7 401.6 L 316.8 386.1 L 309.8 379.5 L 318.6 373.1 L 309.3 368.4 L 297.4 376.9 L 275.3 365.9 L 272.3 350.2 L 249.3 341.3 L 245 329.3 L 224.5 314.4 L 254.9 307.3 L 277.8 281.6 L 295.7 255.9 L 318.8 248 L 335.1 239.9 L 358.6 244.1 L 382.9 244.2 L 400.4 253.5 L 413.4 247.6 L 441.3 244 L 450.8 235.1 L 466.8 235.2 L 478.4 238.8 L 490.1 250.1 L 502.1 266 L 523.9 288.6 L 525.1 305.2 L 521.2 321.3 L 527.9 338.6 Z" />
<path class="neighbor" d="M 316.8 386.1 L 327.7 401.6 L 342.3 398.9 L 371.4 404.8 L 427 406.8 L 445.8 397.1 L 490.4 388.3 L 518 402.1 L 540.2 406.1 L 520.6 421.7 L 506.7 448.8 L 519 470.4 L 486.4 465.3 L 447.8 477.3 L 447.4 496.1 L 413 499.7 L 386.3 486.5 L 356 496.9 L 328 495.8 L 325.3 470.7 L 306.3 458.6 L 312.5 453.2 L 308.4 448.7 L 314.8 436.7 L 329.2 424.8 L 310.8 408.5 L 307.4 394.7 L 316.8 386.1 Z" />
<path class="neighbor" d="M 454.3 724.4 L 449.6 735.6 L 395.1 738.8 L 395.5 732.5 L 349.3 725.2 L 356.3 709.1 L 377 721.8 L 406.4 719.7 L 434.6 722.4 L 433.7 728.9 L 454.3 724.4 Z M 328 495.8 L 356 496.9 L 386.3 486.5 L 413 499.7 L 447.4 496.1 L 447.8 477.3 L 466.2 487.3 L 454.5 511 L 445.5 515.2 L 422.4 514.2 L 402.7 510.6 L 356.8 520.4 L 383.1 541.7 L 363.8 547.9 L 342.8 547.9 L 322.7 528.4 L 315.6 536.7 L 324.1 559.3 L 343 577.1 L 328.7 585.4 L 349.8 602.9 L 368.6 613.8 L 369.1 635.2 L 334.1 625.2 L 345.3 644.5 L 321.2 648.5 L 335.6 681.9 L 310.5 682.4 L 279.4 665.9 L 265.2 635.6 L 258.6 610.4 L 243.8 593 L 224.4 571.4 L 221.8 560.6 L 239.5 542.3 L 241.7 530 L 254 524.5 L 254.8 514.5 L 279.6 511.2 L 294 502.9 L 314.5 503.6 L 320.7 497 L 328 495.8 Z" />
<path class="neighbor" d="M 254.8 514.5 L 254 524.5 L 241.7 530 L 239.5 542.3 L 221.8 560.6 L 215.4 558 L 214.7 549.7 L 193.7 536.9 L 190.4 518.9 L 193.6 493.1 L 198.7 481.3 L 192.4 475.3 L 192.4 475.3 L 189.8 463.3 L 206.2 444.6 L 208.7 451.8 L 218.8 448.4 L 226.9 458.6 L 236 462.5 L 238.5 476.2 L 238.5 476.2 L 233.7 489.1 L 239.1 505.3 L 254.8 514.5 Z" />
<path class="neighbor" d="M 86.1 300.2 L 98.1 304.8 L 126.4 321.1 L 157.7 328.3 L 171.9 322.7 L 181.1 337.4 L 193.1 348.2 L 178.5 362.4 L 161.4 354 L 135.2 354.5 L 102.7 348.3 L 85 349.1 L 76.8 357 L 63.2 348.3 L 55.2 364 L 73.8 381.7 L 82 393.4 L 99.4 407.6 L 113.8 415.9 L 128.1 431.8 L 161.6 446.1 L 157.5 452.5 L 157.5 452.5 L 121.9 438.5 L 99.9 424.9 L 65.3 413.6 L 33.4 385.8 L 41.1 382.9 L 23.8 367 L 23.1 354.2 L -1.2 348.3 L -12.8 364.6 L -24 351.9 L -23.2 338.8 L -21.8 338.2 L 4.6 339.5 L 11.5 333.1 L 24.4 339.2 L 39.2 340 L 39.1 329.4 L 52.3 325.5 L 55.9 310.2 L 86.1 300.2 Z" />
<path class="neighbor" d="M -145.7 285.4 L -122.8 290.8 L -118.4 283.6 L -81 277 L -72.5 290.2 L -18.4 300 L -22.5 318.6 L -13.4 334.7 L -43.5 329.2 L -74.3 342.7 L -72.2 361.4 L -76.9 372.2 L -64.4 391.5 L -28.9 410.6 L -9.9 441.9 L 32.2 472.4 L 61.9 472.2 L 71.1 480.5 L 60.5 488.1 L 94.4 501.8 L 122.2 513.2 L 154.7 533 L 158.6 540 L 151.5 553.6 L 130.5 535.9 L 97.6 529.7 L 81.7 554.2 L 109.1 568.2 L 104.6 588 L 88.8 590.2 L 68.5 622.7 L 52.7 625.6 L 52.9 614 L 60.6 593.7 L 68.8 585.6 L 54.1 563.7 L 42.5 544.6 L 26.8 539.9 L 15.6 523.5 L -8.7 516.7 L -25.1 501.4 L -53.1 499 L -82.7 481.9 L -117.4 457.2 L -143.1 435.4 L -154.9 398 L -173.8 393.6 L -204.6 381.1 L -222 386.2 L -243.9 403.8 L -259.6 406.6 L -255.3 390.1 L -275.8 385.3 L -285.6 356 L -272.4 344.5 L -283.6 330.3 L -282 319.6 L -265.7 327.7 L -247.5 325.9 L -226.2 313 L -219.7 319 L -201.6 317.8 L -193.4 302.6 L -165.4 307.3 L -148.7 300.9 L -145.7 285.4 Z M 17.8 616.7 L 46.5 613.4 L 32.9 643.2 L 38.6 654.9 L 30.6 674.4 L 1.7 660.2 L -17.6 656.1 L -70.4 636.8 L -65.1 617.4 L -20.8 620.8 L 17.8 616.7 Z M -211.3 512.4 L -192.4 500.6 L -169.7 527.5 L -175 577.6 L -192.2 575.2 L -207.7 587.8 L -222 577.8 L -223.5 532.1 L -232.2 510.5 L -211.3 512.4 Z" />
<path class="neighbor" d="M 1216 476 L 1226.6 477.2 L 1252.7 500.2 L 1269.4 502.8 L 1275.9 493.2 L 1298.5 477.9 L 1318.4 497.9 L 1337.7 524.7 L 1355.3 526.5 L 1367 536.7 L 1335.8 539.8 L 1329.2 569.2 L 1322.7 582.4 L 1308.8 591.3 L 1309.8 610 L 1300.4 611.9 L 1276.8 592.1 L 1289.9 573.4 L 1278.7 562.3 L 1264.5 565.1 L 1219.8 593 L 1219 566.7 L 1202 560.5 L 1185.9 550.2 L 1196.6 538.2 L 1176.4 525.2 L 1184 515.7 L 1169.6 509.1 L 1161.8 499.2 L 1171 493 L 1199.2 503.9 L 1219.7 506.1 L 1224.8 501.7 L 1206.2 481.2 L 1216 476 Z M 1206.1 594.1 L 1180.1 589.1 L 1161 571.6 L 1155 557.3 L 1162.9 556.3 L 1174.1 566.4 L 1190.8 566.4 L 1190.6 572.2 L 1206.1 594.1 Z" />
<path class="neighbor" d="M 971.8 416.4 L 976.4 411.9 L 1008.4 418.4 L 1064.1 424.5 L 1115.7 442.7 L 1122.3 449.7 L 1145.3 443.7 L 1180.6 451.7 L 1192.2 467.2 L 1216 476 L 1206.2 481.2 L 1224.8 501.7 L 1219.7 506.1 L 1199.2 503.9 L 1171 493 L 1161.8 499.2 L 1109.1 505.1 L 1072.7 486.5 L 1032.3 488.3 L 1038 472.1 L 1028.5 446.3 L 1006.6 432.3 L 985.6 428 L 971.8 416.4 Z" />
<path class="neighbor" d="M 698.3 730.5 L 700.9 730.3 L 706.4 721.1 L 733.7 721.6 L 768.1 710.3 L 742.5 726.5 L 745.3 733.5 L 741.2 732.2 L 734 735.1 L 728.3 734.3 L 726.4 735.7 L 725.7 731.9 L 723 729.6 L 715.6 729.2 L 705.4 732.4 L 698.3 730.5 Z" />
<path class="neighbor" d="M 698.3 730.5 L 705.4 732.4 L 715.6 729.2 L 723 729.6 L 725.7 731.9 L 726.4 735.7 L 728.3 734.3 L 734 735.1 L 741.2 732.2 L 745.3 733.5 L 746.5 736.6 L 707.7 752 L 689.1 747.1 L 680.3 731.9 L 698.3 730.5 Z" />
<path class="neighbor" d="M 405.5 1228 L 405.5 1303.6 L 361.9 1303.7 L 361.5 1319.6 L 210.5 1247.1 L 59.4 1174.6 L 21.2 1195.3 L -5.6 1209.4 L -26.9 1188.6 L -86.8 1172.3 L -103.4 1148.6 L -133.3 1131 L -151 1137.9 L -164.4 1116.8 L -165.9 1100.6 L -188.3 1073 L -173.2 1057.2 L -176.5 1033.3 L -171.7 1012.6 L -174.5 995.4 L -167.8 964.5 L -169.8 946.9 L -182.1 913.4 L -163.6 904.7 L -160.3 888.7 L -164.4 873 L -138.4 858.4 L -126.7 846.3 L -108.3 835.4 L -106.1 806.3 L -61.6 819.3 L -45.7 816.1 L -14.1 822.4 L 36.1 839.3 L 53.9 873 L 87.9 880.3 L 141.2 896.2 L 181.6 915 L 200 905.2 L 218.2 887.8 L 209.4 858.8 L 221.2 840.3 L 248.5 822.6 L 274.6 817.4 L 325.8 825.2 L 338.7 842.1 L 352.8 842.3 L 364.9 848.7 L 402.5 853.2 L 411.7 865.7 L 398 883.8 L 403.9 900 L 394.1 923.4 L 405.5 953.9 L 405.5 1088.6 L 405.5 1228 Z" />
<path class="neighbor" d="M 161.6 446.1 L 128.1 431.8 L 113.8 415.9 L 99.4 407.6 L 82 393.4 L 73.8 381.7 L 55.2 364 L 63.2 348.3 L 76.8 357 L 85 349.1 L 102.7 348.3 L 135.2 354.5 L 161.4 354 L 178.5 362.4 L 178.5 362.4 L 192.2 362.3 L 182.8 379 L 201 393.5 L 195.5 411.3 L 186.6 413 L 179.5 416.5 L 167.2 425.3 L 161.6 446.1 Z" />
<path class="neighbor" d="M 306.3 458.6 L 325.3 470.7 L 328 495.8 L 320.7 497 L 314.5 503.6 L 294 502.9 L 279.6 511.2 L 254.8 514.5 L 239.1 505.3 L 233.7 489.1 L 238.5 476.2 L 238.5 476.2 L 243.3 476.5 L 245 468.7 L 267.4 462.9 L 275.9 461.4 L 288.8 459.2 L 306.3 458.6 Z" />
<path class="neighbor" d="M 171.9 322.7 L 171.9 322.7 L 200.9 312.7 L 224.5 314.4 L 245 329.3 L 249.3 341.3 L 272.3 350.2 L 275.3 365.9 L 297.4 376.9 L 309.3 368.4 L 318.6 373.1 L 309.8 379.5 L 316.8 386.1 L 307.4 394.7 L 310.8 408.5 L 329.2 424.8 L 314.8 436.7 L 308.4 448.7 L 312.5 453.2 L 306.3 458.6 L 288.8 459.2 L 275.9 461.4 L 274.6 458.6 L 279.1 454.1 L 283.4 444.9 L 278 445.1 L 270.6 438 L 264.4 436.3 L 259.5 430.2 L 252.4 427.9 L 247 422.5 L 240.2 424.6 L 235 437.2 L 225.9 439.9 L 229 436.7 L 214.6 428.8 L 202.2 424.7 L 196.6 419.5 L 186.6 413 L 195.5 411.3 L 201 393.5 L 182.8 379 L 192.2 362.3 L 178.5 362.4 L 178.5 362.4 L 193.1 348.2 L 181.1 337.4 L 171.9 322.7 Z" />
<path class="neighbor" d="M 218.8 448.4 L 208.7 451.8 L 206.2 444.6 L 189.8 463.3 L 192.4 475.3 L 184.5 472.4 L 173.8 460 L 157.5 452.5 L 161.6 446.1 L 167.2 425.3 L 179.5 416.5 L 186.6 413 L 196.6 419.5 L 202.2 424.7 L 214.6 428.8 L 229 436.7 L 225.9 439.9 L 218.8 448.4 Z" />
<path class="neighbor" d="M 238.5 476.2 L 236 462.5 L 226.9 458.6 L 218.8 448.4 L 225.9 439.9 L 235 437.2 L 240.2 424.6 L 247 422.5 L 252.4 427.9 L 259.5 430.2 L 264.4 436.3 L 270.6 438 L 278 445.1 L 283.4 444.9 L 279.1 454.1 L 274.6 458.6 L 275.9 461.4 L 267.4 462.9 L 245 468.7 L 243.3 476.5 L 238.5 476.2 Z" />
<path class="lake" d="M 1097 783.9 L 1094.5 781.5 L 1091.1 776.8 L 1089.9 769.3 L 1089.6 763.9 L 1090.2 761.7 L 1091.5 761.2 L 1096.1 768.3 L 1100.8 772 L 1104.8 775.5 L 1105.7 777.9 L 1105.1 780.9 L 1105.2 783.9 L 1103 784.7 L 1099.6 784.3 L 1097 783.9 L 1097 783.9 L 1097 783.9 L 1097 783.9 Z" />
<path class="lake" d="M 1120.3 823.3 L 1119.7 826.2 L 1117.1 829.1 L 1115.1 829.3 L 1112.4 828.4 L 1110.9 827.4 L 1108.9 826.8 L 1105.3 825 L 1103.6 822.3 L 1103.1 818.7 L 1103.4 816.5 L 1104.2 816.1 L 1105.1 814.5 L 1104.8 811.1 L 1106.3 809.2 L 1107.9 808.5 L 1109.1 810 L 1114.3 818.7 L 1118.1 821.6 L 1120.3 823.3 L 1120.3 823.3 L 1120.3 823.3 L 1120.3 823.3 Z" />
<path class="lake" d="M 1188 631.9 L 1188 631.9 L 1188 631.9 L 1188 631.9 L 1191.1 633.5 L 1191.2 634.9 L 1191.4 638.2 L 1195.3 643.9 L 1194.3 647.1 L 1189.4 648.6 L 1187.9 649.1 L 1186 652 L 1183.1 654.9 L 1179.8 654.4 L 1176.6 651.4 L 1173.9 643.4 L 1172.5 636.7 L 1172.4 634.1 L 1171.7 631.1 L 1166.1 626.5 L 1165.8 622.6 L 1168.7 620.5 L 1169.9 618.1 L 1169.3 616.7 L 1166.3 616.9 L 1163.4 616.7 L 1163.8 614.9 L 1166.8 612.2 L 1176.3 612.2 L 1180.2 615.6 L 1181.3 619.4 L 1179.7 624.7 L 1179.3 629.5 L 1181.1 631.5 L 1183.5 631.5 L 1188 631.9 Z" />
<path class="lake" d="M 725.7 589.8 L 728.3 591.4 L 731 591.9 L 733.9 595.2 L 731.8 600.3 L 728.6 602.4 L 724.4 601 L 720.7 599 L 717.3 596.9 L 714.4 592.9 L 716.7 589 L 719.5 585.5 L 720.1 582.1 L 720 579.5 L 721.7 579.7 L 724.5 582.2 L 725.6 584.6 L 725.1 586.6 L 725.7 589.8 L 725.7 589.8 L 725.7 589.8 Z" />
<path class="lake" d="M 1086.6 609.1 L 1084.1 607.4 L 1083.7 606 L 1082.6 604.1 L 1081.6 603.8 L 1078.8 604.8 L 1075.1 604.9 L 1071.4 603.9 L 1069.6 603.6 L 1062.6 603.2 L 1063 601.4 L 1065.6 599 L 1066.6 597.8 L 1066.5 596 L 1069.1 593.9 L 1076.6 592.6 L 1081.2 592.1 L 1084.6 592.1 L 1090.1 591.5 L 1093.2 590.1 L 1093.1 589.3 L 1091.9 588.8 L 1090.4 588.8 L 1089.9 587.5 L 1092.8 586.3 L 1097.9 585.7 L 1103.6 584.8 L 1108.3 585.1 L 1110.2 586.3 L 1107.2 588.2 L 1101.6 590.5 L 1098.1 591.4 L 1095 595.1 L 1094.1 599.3 L 1097.9 601.4 L 1099.1 603.7 L 1096 606.7 L 1092.7 609.4 L 1090.4 609.8 L 1086.6 609.1 L 1086.6 609.1 L 1086.6 609.1 Z" />
<path class="lake" d="M 1162.4 526.9 L 1161.8 525.9 L 1162.4 524.4 L 1162.3 523.3 L 1163.4 523.2 L 1166.4 524.1 L 1172 527.1 L 1174.6 527.9 L 1176.9 528.3 L 1179.3 530 L 1183.1 532.6 L 1185.6 534.4 L 1186.9 535.9 L 1187.6 537.2 L 1187.8 538.3 L 1187.5 539.1 L 1185.8 539.9 L 1183.4 540.5 L 1181 540.5 L 1177.5 540.7 L 1174.6 540.8 L 1173.2 540.2 L 1172.2 539 L 1171.1 535.2 L 1169.7 531.8 L 1168.6 531.2 L 1167.5 530.2 L 1166.4 529 L 1164.3 527.9 L 1162.4 526.9 L 1162.4 526.9 L 1162.4 526.9 L 1162.4 526.9 Z" />
<path class="lake" d="M 808.1 819.8 L 807.5 821 L 806 822.1 L 805 821 L 804.4 818.9 L 804.6 817 L 805.5 815.6 L 806.8 815.3 L 807.7 816.1 L 808.2 817.8 L 808.1 819.8 L 808.1 819.8 L 808.1 819.8 L 808.1 819.8 Z" />
<path class="lake" d="M 799.3 347.4 L 794.6 345.7 L 787.5 343.6 L 786.5 342.8 L 785.8 341.9 L 785.7 340.9 L 787.2 338.2 L 786.1 335.7 L 785.1 334.2 L 784.2 333.2 L 779.7 331.1 L 777.9 329.7 L 775.1 329 L 774.4 327.3 L 772.1 326.7 L 771.9 326.1 L 770.7 325.4 L 765 327.4 L 765 326.7 L 769.7 322.5 L 769.7 321.7 L 769.3 321.4 L 767.8 321 L 766.2 322.8 L 765.1 323.1 L 763.7 322.4 L 761.9 323.4 L 761.1 323.5 L 760.7 323 L 761 321.1 L 760.7 320 L 760 319.2 L 756.6 318.2 L 754.9 318.4 L 753.5 318.1 L 753.2 318.6 L 753.4 320.1 L 753.3 320.9 L 752.5 321.3 L 751.6 320.7 L 751.3 318.9 L 750.9 318.3 L 749 317 L 746.2 316.5 L 745.4 317.3 L 744.8 317.7 L 743.4 317.8 L 741.9 317 L 739.9 313.8 L 739.3 313.9 L 737.6 314.2 L 735.2 312.4 L 734.8 311.7 L 735.1 311.1 L 736 310.6 L 737.9 310.4 L 740.5 310.5 L 743.3 311.2 L 747.4 313.3 L 749.2 313.9 L 750.3 313.8 L 750.2 312.3 L 750.5 311.9 L 751.2 312 L 751.9 312 L 752.5 311.6 L 752.3 309.8 L 752.3 309.1 L 752.9 309.2 L 755.2 311.1 L 756.5 312 L 757.6 312.4 L 758.1 312.4 L 758.7 312.1 L 766.9 313.1 L 767.3 314 L 767 314.9 L 764.9 315 L 764 315.4 L 762.5 318.4 L 763.1 319.3 L 764.4 319.9 L 766.1 319.7 L 768.6 318.5 L 770.5 313.4 L 771.5 312.7 L 773.4 313 L 774.8 314.3 L 774.9 315 L 773.5 315.8 L 773.3 317.2 L 774.3 317.9 L 776.2 318.3 L 777.2 320.8 L 778.1 325.2 L 780.7 327.1 L 785.4 332.9 L 791 339.2 L 795.5 343.3 L 800.3 345.9 L 800.8 346.7 L 799.3 347.4 L 799.3 347.4 L 799.3 347.4 Z" />
<path class="lake" d="M 1109.6 799.9 L 1109.6 799.9 L 1109.6 799.9 L 1109.6 799.9 L 1108.5 803.2 L 1105.4 804.3 L 1103.5 803.9 L 1102.3 801.8 L 1098.6 799.8 L 1098.8 798.3 L 1101.5 795 L 1103.3 796.7 L 1105.1 798.7 L 1108 798.3 L 1109.6 799.9 Z" />
<path class="lake" d="M 189.4 460.7 L 189.4 460.7 L 189.4 460.7 L 189.4 460.7 L 192.1 459.7 L 193.1 462.1 L 195.4 464.8 L 196.5 466.6 L 196 467.7 L 193.2 467.4 L 186.5 464.7 L 182 460.2 L 184.9 460.2 L 189.4 460.7 Z" />
<path class="country" d="M 1154.2 653.6 L 1136 660 L 1122.7 650.3 L 1078.7 645.4 L 1062.4 651.3 L 1019.4 657.2 L 999 656.6 L 955.4 670.8 L 924.2 670.9 L 904.1 663.8 L 862.4 674.3 L 850 666.9 L 848 688.1 L 837.8 696.4 L 827.7 704.7 L 813.8 687.5 L 828.1 673.3 L 805 676.5 L 773.3 667.8 L 747.3 689.6 L 689.8 693.8 L 659.2 673.5 L 618.4 672.2 L 609.6 687.9 L 583.5 692.4 L 546.8 672.3 L 505.5 672.9 L 483.1 635.3 L 455.4 614.3 L 473.8 584.8 L 449.8 566.7 L 491.8 530.5 L 550.1 529 L 566 500.2 L 638.2 505.3 L 683.7 480.7 L 727.9 470 L 790.5 469.2 L 856.6 495.9 L 910.9 510.5 L 955 504.7 L 987.6 508.1 L 1032.3 488.3 L 1072.7 486.5 L 1109.1 505.1 L 1115.6 518.4 L 1111.9 536.8 L 1140.1 546.2 L 1155 557.3 L 1129.1 568.1 L 1140.9 611.5 L 1133.5 623.2 L 1154.2 653.6 L 1154.2 653.6 Z M 447.8 477.3 L 486.4 465.3 L 519 470.4 L 523.5 485 L 556.5 497.2 L 549.6 506.5 L 504.7 508.6 L 488.5 520.3 L 456.9 540.7 L 445 523 L 445.5 515.2 L 454.5 511 L 466.2 487.3 L 447.8 477.3 Z" />

<path class="river" d="M 919 703.1 L 911.6 701.6 L 907.1 699.7 L 903 697.1 L 900.7 695.1 L 900.2 693.6 L 901.2 691.6 L 903.7 689.1 L 904.9 687.1 L 904.7 684.9" />
<path class="river" d="M 926.8 591.4 L 928.5 589 L 925.7 581.3" />
<path class="river" d="M 800.2 874.9 L 801.8 865.9 L 803.1 861.8 L 805.3 858.2 M 806.8 815.3 L 806 822.1" />
<path class="river" d="M 918.9 703.1 L 932.4 701.2 L 944.2 702.4 L 958.8 706.1 L 967.2 709.9 L 969.3 713.8 L 973.6 717.9 L 980.3 722 L 983.4 724.5 L 983.2 725.3 L 984.6 726.2 L 987.7 727.2 L 989.5 729.4 L 990.1 732.8 L 991.5 735.2 L 993.7 736.6 L 995.6 738.9 L 997 741.9 L 1000.4 745.1 L 1005.8 748.5 L 1008.6 751.6 L 1008.7 754.5 L 1009.3 756.3 L 1011.1 757.4 M 898.7 666.3 L 899.9 669.8 L 901.6 671.6 L 904.3 672.8 L 906.5 674.5 L 908.1 676.8 L 907.8 679.7 L 904.7 684.9" />
<path class="river" d="M 491.3 389.8 L 510.3 381.2 L 516.4 376.6 L 516.6 372.5 L 516.1 369.6 L 514.4 366.8" />
<path class="river" d="M 583.7 347.3 L 581.6 345.2 L 578.5 343.1 L 572.2 341.2 L 565.4 341.9 L 558 345 L 553 346.1 L 550.3 345.3 L 548.7 345.4 L 548.1 346.3 L 548.2 347 L 549.1 347.6 L 548.9 348 L 547.9 348.2 L 548.7 348.9 L 552.5 350.3" />
<path class="river" d="M 552.5 350.3 L 559.8 353.3 L 562.5 353.9 L 563.6 353.7 L 564.7 354.1 L 567.4 356.8 L 570.1 358.2 L 572.9 358.2 L 575.7 359 L 579.9 360.3" />
<path class="river" d="M 552.5 350.3 L 582.7 351.4" />
<path class="river" d="M 110.4 241.2 L 120.8 247.8 L 126.6 250.7 L 131.4 252.2 L 145.9 252.5 L 169 251.5 L 170.5 250.7 L 178.3 250.4 L 181 250.8 L 182.2 251.9 L 183 253.7 L 183 254.5 L 181.1 260.5 L 180.6 263.2 L 179.4 265.7 L 176.7 267.6 L 174.8 271.5 L 173.9 275.7 L 175.6 278.2 L 175.9 280.1 L 176 281.4 L 175.9 285.7 L 176.2 288.8 L 177.7 291.2 L 177 293.3 L 174.3 295.1 L 173.5 297.1 L 174.7 299.3 L 175.2 303.2 L 175.1 309 L 173 313.5 L 168.7 316.9 L 168 318.7 L 169.2 321.7 L 172.2 325.5 L 174.3 328.1 L 176.3 332.3 L 175.2 334.4 L 176.5 336 L 180.4 337.1 L 180.7 337.6 L 179.6 338.1 L 178.6 339.5 L 178.5 342 L 181.8 344.3 L 188.6 346.6 L 196.3 347.9 L 204.8 348.3 L 209.7 348 L 211 346.9 L 212.6 347.3 L 214.6 349 L 217.9 350.1 L 222.3 350.3 L 225.8 351.4 L 226.9 352.3 L 228.1 353.4 L 229 355.7 L 228.5 358.3 L 229.5 360.5 L 232.1 362.3 L 235.1 363.1 L 238.5 362.9 L 240.2 363.6 L 240.2 365.2 L 241.4 366.9 L 243.8 368.7 L 250.7 368.2 L 267.7 363.7 L 273.8 365.1 L 276.6 366.4 L 278.1 368.1 L 282.1 369.2 L 288.5 369.8 L 292.9 371.5 L 295.4 374.5 L 299.5 373.7 L 305.2 369.4 L 310.7 368.2 L 316.2 370.3 L 319.2 372 L 319.7 373.4 L 318.4 373.9 L 315.4 373.7 L 312.9 374.5 L 310.9 376.4 L 310.6 378.5 L 312 380.7 L 313.9 382.2 L 316.4 383 L 317.8 384.1 L 317.9 385.6 L 321.2 387.6 L 327.7 390.2 L 330.8 392 L 330.7 393.2 L 329.2 394.3 L 326.4 395.5 L 324.8 396.9 L 324.3 398.8 L 324.8 400.1 L 326.7 401.2 L 338.3 399.7 L 350 400.5 L 365.8 403.1 L 376.2 403.9 L 383.9 402.8 L 411.5 406.9 L 424.3 407.4 L 431.5 405.9 L 436.5 403.8 L 440.8 399.9 L 451.5 394.7 L 461.9 391.8 L 475.5 389.4 L 484.5 388.6 L 489.6 389.5 L 491.3 389.8 L 494 389.9 L 496.8 389.8 L 503.7 388.2 L 513.8 385 L 519.9 382 L 522.1 379.1 L 522.2 376.9 L 520.3 375.5 L 519.6 373.8 L 520 371.9 L 518.8 369.8 L 515.6 367.8 L 514.4 366.8 L 513.4 365.9 L 512.7 364.8 L 512.7 363.5 L 513.9 362.2 L 515.1 358.3 L 516.3 351.9 L 517.8 346.9 L 519.5 343.6 L 522.1 341.4 L 527.1 340.1 L 531.1 344 L 536.2 346 L 547.9 348.2" />
<path class="river" d="M 960 606.4 L 974.2 609 L 974.4 610.6 L 976 612 L 979.2 613.7 L 980.2 615.4 L 979.2 617 L 980 618.1 L 982.4 618.7 L 983.4 621.3 L 983 625.8 L 989.7 628.5 L 1010.1 629.7 L 1017.2 631.4 L 1024.9 631.9 L 1035.6 631.8 L 1041.6 633.2 L 1043.2 636.1 L 1043.7 639 L 1043.2 641.8 L 1044.7 643.3 L 1048.4 643.6 L 1052.8 645.1 L 1057.7 647.8 L 1061.1 651.3 L 1063.5 657.7" />
<path class="river" d="M 1180.3 875.7 L 1183.3 878.6 L 1188.7 880.3 L 1197.7 881.7 L 1205.3 884 L 1214.4 888.5 L 1219 890.9 L 1222.6 890.9 L 1226.9 889.4 L 1234.2 888.8 L 1244.6 889 L 1251.1 888.5 L 1253.7 887.2 L 1255.3 887.1 L 1256.3 888.4 M 1011.1 757.4 L 1015.8 758.9 L 1018 758.7 L 1019.2 757.3 L 1021.8 756.9 L 1025.7 757.3 L 1027.6 757.1 L 1028.3 757 L 1029.2 756.6 L 1030.3 757.1 L 1033.7 756.7 L 1038.5 754.8 L 1042.7 754.4 L 1046.2 755.3 L 1048.8 756.7 L 1051.3 759.6 L 1053.8 762.2 L 1055.6 762.7 L 1057.5 762 L 1058.6 762.4 L 1059.2 762.7 L 1060 762.6 L 1060.7 761 L 1061.7 760.5 L 1063.1 761.2 L 1063.1 762.2 L 1061.7 763.6 L 1061.8 764.9 L 1063.2 765.9 L 1063.7 767.4 L 1063.4 769.3 L 1065 771.4 L 1066.1 772.1 L 1068.5 773.6 L 1070.1 775.8 L 1069.7 777.9 L 1070.5 778.5 L 1072.6 777.7 L 1074.7 777.8 L 1076.9 778.7 L 1077.5 780.5 L 1076.6 783 L 1078.3 786.1 L 1082.4 789.6 L 1085.8 791.8 L 1088.3 792.5 L 1090.1 792.4 L 1091.1 791.6 L 1092.9 792 L 1095.7 793.7 L 1098 794.3 L 1099.7 793.8 L 1104.3 794.7 L 1107.4 795.7 L 1111.7 797 L 1116.4 799.7 L 1118.6 802.9 L 1120.1 804 L 1121.4 804 L 1123 804.1 L 1126 805.4 L 1129.6 809.5 L 1134.5 818 L 1134.9 819.3 L 1134.9 821.8 L 1133.9 825.7 L 1134.6 830.6 L 1137.1 836.2 L 1138.4 840.4 L 1138.4 843.4 L 1139.6 846.6 L 1141.9 850.1 L 1143 854 L 1142.9 858.4 L 1145.7 862.7 L 1154.1 869.1 L 1164.4 870.5 L 1168.8 872 L 1170.7 873.9 L 1173.9 875.1 L 1180.5 875.7" />
<path class="river" d="M 926.8 591.4 L 918.7 593.1 L 914.8 595.1 L 912.2 598.1 L 911.2 600.2 L 911.7 601.3 L 914.9 602.9 L 920.8 605.1 L 925 606 L 927.3 605.7 L 929.8 606.5 L 932.6 608.6 L 935.5 609.5 L 938.5 609.3 L 940 610.6 L 940 613.4 L 941.3 615 L 943.9 615.2 L 945 616.3 L 944.7 618.3 L 942.1 620.9 L 937.2 624.1 L 934.8 626.4 L 934.8 627.9 L 933.9 629 L 933.7 629.8 L 932.7 631.8 L 929.6 633 L 929.1 633.9 L 929.5 634.8 L 928.5 635.6 L 924.3 636.1 L 920.8 637.6 L 917.9 639.9 L 914.4 641.3 L 910.2 641.8 L 907.2 642.6 L 905.6 643.8 L 902.9 644.1 L 899.2 643.5 L 896.5 644 L 894.7 645.5 L 892.2 649 L 892 651.8 L 892.5 655.6 L 893.8 657.7 L 895.9 658 L 897.4 660.2 L 898.7 666.3 M 1028.6 539.6 L 1023.8 545.8 L 1010.8 548.6 L 1002.6 549.2 L 995 548.5 L 988.5 548.6 L 983 549.5 L 979.9 550.4 L 979.1 551.4 L 979.9 553.1 L 982.2 555.5 L 982.6 558 L 981.1 560.6 L 979.7 562.2 L 978.1 562.8 L 971.2 561.8 L 958.8 559.1 L 951.3 558.4 L 948.6 559.8 L 943 560.9 L 934.7 561.8 L 925.8 564 L 916.2 567.4 L 913.9 571.3 L 918.8 575.6 L 922.1 577.9 L 923.8 578 L 924.9 578.8 L 925.7 581.3" />
<path class="river" d="M 800.2 874.9 L 799.3 878.5 M 806 822.1 L 805 834.4 L 805.8 840.4 L 804.4 845.5 L 804.3 849.9 L 805.3 858.2 M 816.9 788.9 L 810.5 795.2 L 807.6 802.3 L 806.7 807.3 L 806.8 815.3" />
<path class="river" d="M 1063.5 657.7 L 1065.6 660.4 L 1066.9 661.3 L 1067.7 661.6 L 1068.5 662.3 L 1068.6 664.7 L 1070.4 666.4 L 1076.2 668.2 L 1077.9 669.3 L 1078.5 670.1 L 1078 670.7 L 1081.7 671.1 L 1083.1 671.7 L 1083.3 672.8 L 1082.8 673.4 L 1081.4 673.5 L 1079.9 674.8 L 1078.4 677.5 L 1081.2 679.8 L 1088.2 681.8 L 1093.5 685.3 L 1096.8 690.1 L 1099.1 695 L 1100.2 699.9 L 1100.1 703.3 L 1098.7 705 L 1098.3 706.8 L 1098.9 708.6 L 1098.4 709.9 L 1096.9 710.9 L 1096.5 713.6 L 1097 718 L 1100.2 723.8 L 1106.2 731 L 1108.6 735.5 L 1107.4 737.4 L 1109.2 742.1 L 1113.9 749.8 L 1116.8 756.5 L 1117.9 762.3 L 1119.4 766.3 L 1121.3 768.5 L 1123.4 769.9 L 1127 770.8 L 1133.7 771.7 L 1137.4 772.9 L 1140.2 774.6 L 1141.1 777.1 L 1140.2 780.2 L 1140 782.4 L 1140.7 783.5 L 1140.1 785.1 L 1138.1 787.2 L 1137 789.3 L 1136.7 791.4 L 1137.2 794.4 L 1138.6 798.4 L 1140 800.4 L 1141.2 800.5 L 1143.1 802.6 L 1145.5 806.7 L 1150.5 810.6 L 1157.9 814.3 L 1162.1 815.8 L 1163.8 815.6 L 1164.4 816.1 L 1164.4 816.9 L 1164.5 817.8 L 1165.8 818.9 L 1168.1 819.6 L 1171.3 819.9 L 1172.7 820.9 L 1172.6 822.3 L 1174.1 824.2 L 1177.3 826.5 L 1182.6 828.3 L 1193.4 830.3 L 1201.8 825.9 L 1205.8 825.4 L 1208.3 827.1 L 1213.7 828.9 L 1222 830.6 L 1226.9 832.6 L 1228.3 834.7 L 1228.5 837.2 L 1227.4 840 L 1227.1 842.1 L 1227.7 843.7 L 1229.3 845.1 L 1232 846.4 L 1234.3 848.8 L 1236.3 852.5 L 1238.8 854.4 L 1242 854.5 L 1243.8 856 L 1244.1 858.8 L 1246.9 863.5 L 1252.3 869.8 L 1255 876.4 L 1255.2 887.3" />
<path class="river" d="M 222.9 309.4 L 219.5 313 L 218.7 314 L 218.6 314.8 L 219.2 316.4 L 219 317.4 L 218.5 318.1 L 219.2 319.2 L 220.1 320.4 L 220.9 322.2 L 220.8 323.4 L 219.9 324 L 220.1 325.5 L 221.5 327.6 L 221.3 329 L 220.3 329.7 L 219.4 331 L 218.8 333.2 L 220.1 335.8 L 223.3 338.8 L 224.6 340.8 L 224.1 341.7 L 224.9 343.9 L 227.1 347.4 L 227.8 349.8 L 226.9 352.3" />
<g class="city"><circle cx="555.9806156472852" cy="507.90261041237056" r="5" /><text x="567.9806156472852" y="511.90261041237056">Istanbul</text></g>
<g class="city"><circle cx="1405.987162624164" cy="710.244313540461" r="5" /><text x="1417.987162624164" y="714.244313540461">Tehran</text></g>
<g class="city"><circle cx="1139.775581781506" cy="798.5954065352119" r="5" /><text x="1151.775581781506" y="802.5954065352119">Baghdad</text></g>
<g class="city"><circle cx="703.2075976184061" cy="549.1159674611622" r="5" /><text x="715.2075976184061" y="553.1159674611622">Ankara</text></g>
<g class="city"><circle cx="357.4561589607691" cy="622.7229266693257" r="5" /><text x="369.4561589607691" y="626.7229266693257">Athens</text></g>
<g class="city"><circle cx="866.2418216787167" cy="689.114373382155" r="5" /><text x="878.2418216787167" y="693.114373382155">Aleppo</text></g>
<g class="city"><circle cx="486.89792518537604" cy="605.5765755503052" r="5" /><text x="498.89792518537604" y="609.5765755503052">İzmir</text></g>
<g class="city"><circle cx="833.2980356029465" cy="792.484464929435" r="5" /><text x="845.2980356029465" y="796.484464929435">Damascus</text></g>
<text class="map-title" x="80" y="105">Turkey Physical Study Map</text>
<text class="map-subtitle" x="80" y="145">Landmark: Hagia Sophia | Study terrain and water systems</text>
  <text class="footer" x="80" y="1036">Made with Natural Earth. Free vector and raster map data @ naturalearthdata.com.</text>
</svg>
