<?xml version="1.0" encoding="UTF-8"?>
<svg xmlns="http://www.w3.org/2000/svg" width="1600" height="1100" viewBox="0 0 1600 1100" role="img" aria-labelledby="title desc">
  <title id="title">Taiwan Physical Study Map</title>
  <desc id="desc">Made with Natural Earth. Free vector and raster map data @ naturalearthdata.com.</desc>
  <defs>
    <linearGradient id="terrain" x1="0" x2="1" y1="0" y2="1">
      <stop offset="0%" stop-color="#6c8c53" />
      <stop offset="42%" stop-color="#d5c487" />
      <stop offset="72%" stop-color="#b88b5f" />
      <stop offset="100%" stop-color="#f1f5ee" />
    </linearGradient>
    <filter id="softShadow" x="-10%" y="-10%" width="120%" height="120%">
      <feDropShadow dx="0" dy="10" stdDeviation="12" flood-color="#0f172a" flood-opacity="0.16" />
    </filter>
    <style>
      .neighbor { fill: #ffffff; stroke: #94a3b8; stroke-width: 1.2; opacity: 0.72; }
      .country { fill: url(#terrain); stroke: #1f2937; stroke-width: 4; filter: url(#softShadow); }
      .admin1 { fill: none; stroke: #64748b; stroke-width: 1.1; stroke-dasharray: 6 7; opacity: 0.75; }
      .river { fill: none; stroke: #1d9bd1; stroke-width: 3; stroke-linecap: round; opacity: 0.88; }
      .lake { fill: #8ed1ea; stroke: #0ea5e9; stroke-width: 1.5; opacity: 0.8; }
      .city circle { fill: #ef4444; stroke: #ffffff; stroke-width: 2; }
      .city text, .terrain-label { fill: #172033; font: 700 24px system-ui, sans-serif; paint-order: stroke; stroke: #ffffff; stroke-width: 5; stroke-linejoin: round; }
      .map-title { fill: #0f172a; font: 800 46px system-ui, sans-serif; }
      .map-subtitle { fill: #475569; font: 600 24px system-ui, sans-serif; }
      .footer { fill: #64748b; font: 500 18px system-ui, sans-serif; }
    </style>
  </defs>
  <rect width="100%" height="100%" fill="#d8edf0" />
  <rect x="40" y="40" width="1520" height="1020" rx="32" fill="#ffffff" opacity="0.54" />
  <path class="neighbor" d="M -798.4 1337 L -911.9 1294.1 L -915.9 1175.1 L -847.7 1112.4 L -696.6 1073.6 L -617 1076.9 L -586.1 1129.7 L -646.9 1190.6 L -678.9 1270.5 L -798.4 1337 Z M -4840.4 -2004.5 L -4851.4 -2083.4 L -4756.5 -2119.4 L -4881 -2359.7 L -4607 -2415 L -4536.2 -2445.8 L -4436.3 -2693.5 L -4161.9 -2648 L -4084.9 -2710.5 L -4078.3 -2849.2 L -3963.4 -2862.2 L -3858.1 -2954.3 L -3804 -2965.7 L -3767.6 -2869.1 L -3651.3 -2795.7 L -3454 -2743.8 L -3358.5 -2632.4 L -3411.8 -2470.7 L -3362 -2410.7 L -3197.6 -2387.1 L -3011.3 -2367.7 L -2844.1 -2281.5 L -2758.6 -2266.2 L -2695.6 -2138.6 L -2614.4 -2056.5 L -2461.9 -2059.7 L -2176.3 -2028.7 L -1992.3 -2047.9 L -1855.7 -2027.3 L -1651.1 -1943.3 L -1483.7 -1943.4 L -1422.4 -1900.4 L -1261.3 -1974.7 L -1037.8 -2022.7 L -830.5 -2027.9 L -668.8 -2076.6 L -569.5 -2150.7 L -472.7 -2197.2 L -495.1 -2242.9 L -539.3 -2296.1 L -466.7 -2385.3 L -388.8 -2372.7 L -246.6 -2344.7 L -108.7 -2418.1 L 102.2 -2471.7 L 203.6 -2563.2 L 301 -2602.6 L 501.9 -2620.9 L 611.1 -2605.3 L 626.2 -2654.5 L 500.9 -2751.2 L 389.8 -2795.4 L 283.5 -2744.4 L 147 -2765.9 L 68.7 -2748.4 L 33.1 -2804.9 L 130.8 -2943.2 L 198.2 -3047.5 L 364.3 -2995.2 L 559.2 -3082.7 L 558 -3143.5 L 682.9 -3290.3 L 759.8 -3334.6 L 758.1 -3411 L 682.2 -3443.9 L 796.5 -3512.7 L 968.4 -3537.7 L 1151.8 -3541.4 L 1358.9 -3500.2 L 1480.4 -3449.3 L 1565.9 -3309.7 L 1617.7 -3250.2 L 1665.9 -3165.2 L 1717.1 -3029.7 L 1957.9 -2985.5 L 2121.7 -2887.1 L 2177.8 -2757.1 L 2388 -2757 L 2507.9 -2811.6 L 2736.6 -2852.3 L 2663.9 -2727.9 L 2610.1 -2677.2 L 2562.7 -2525.7 L 2469.7 -2391.1 L 2301.8 -2415.6 L 2183 -2366.7 L 2219.5 -2248.2 L 2199.5 -2084.7 L 2128.9 -2081 L 2129.7 -2010.7 L 2040.4 -2092.4 L 1985.4 -2014.9 L 1771.7 -1955.3 L 1793.3 -1882.3 L 1673.7 -1887.3 L 1608 -1930.7 L 1513 -1832.6 L 1360.5 -1758.2 L 1247.8 -1669.5 L 1054.4 -1629.3 L 952.6 -1564.6 L 803.6 -1526.8 L 877.1 -1591 L 848.2 -1644.8 L 957.7 -1737.8 L 884.6 -1810.3 L 764 -1761.5 L 607.8 -1665.3 L 522.6 -1575.9 L 386.9 -1569.3 L 316.3 -1504.7 L 389.2 -1411.2 L 502.5 -1388.5 L 507.1 -1326.4 L 616.6 -1286 L 771.6 -1384.8 L 894.4 -1330.9 L 983.9 -1327.2 L 1006.3 -1254.7 L 810.4 -1216.1 L 745.8 -1141.4 L 611.3 -1072 L 540.2 -975.2 L 689.2 -899.1 L 743.5 -763 L 827.7 -636.3 L 921.7 -530 L 919.4 -427.2 L 832.6 -389.4 L 865.7 -315.6 L 947.1 -272.7 L 925.9 -160 L 890.7 -50.4 L 813.4 -37.9 L 712.4 111.8 L 600.3 293.4 L 471.9 458.5 L 281.6 586.2 L 89.2 702.6 L -66.8 718.5 L -151.3 780 L -199.2 735.1 L -277.4 803.8 L -470.8 873.1 L -617.2 894.3 L -664.4 1040.4 L -741.1 1048.6 L -777.3 948.1 L -744.6 894.6 L -930.2 850.3 L -995.6 872.9 L -1134.9 837 L -1200.7 780.7 L -1178.9 701 L -1305.3 675.8 L -1372 623.9 L -1490 697.6 L -1624.5 713.6 L -1734.8 712.9 L -1809.1 746.6 L -1880.8 766.9 L -1859.9 925.2 L -1933.6 921.4 L -1946.1 888.9 L -1950.2 831.7 L -2051.7 872 L -2111.6 846.5 L -2214.4 794.6 L -2174.1 679.6 L -2261.7 652.8 L -2294.7 525.5 L -2440.7 548.4 L -2424.1 384.3 L -2293.1 268.8 L -2287.5 154.7 L -2291.6 48.8 L -2352 15.8 L -2398.2 -65.7 L -2479.1 -55.4 L -2628.3 -76 L -2581.6 -134.1 L -2646.5 -220.2 L -2745.1 -161.9 L -2861.1 -195.9 L -3020.6 -107.8 L -3146.5 -4.9 L -3258.1 12.4 L -3318.7 -24.8 L -3391.8 -28.2 L -3490.6 -60.2 L -3565.4 -25.1 L -3656.9 77.8 L -3668.5 -31.2 L -3752.9 -2.1 L -3914.2 -15.6 L -4070.7 -47.3 L -4183 -108.1 L -4290.5 -135.4 L -4336.9 -201.8 L -4414.7 -221.7 L -4554.3 -311.8 L -4665.2 -354.4 L -4722.6 -321.3 L -4914.9 -418 L -5050.8 -505.6 L -5089.6 -658.1 L -4990.3 -639.5 L -4985.8 -710.2 L -5040.8 -781 L -5026.8 -893.8 L -5175.5 -1056 L -5403.1 -1111.9 L -5444 -1218.2 L -5546.2 -1282.7 L -5570.9 -1322.4 L -5591.6 -1401.3 L -5586.8 -1455.1 L -5670.8 -1486.6 L -5716.3 -1472.7 L -5751.4 -1600.7 L -5712 -1632.3 L -5731 -1664.7 L -5599 -1730.1 L -5503.4 -1757.1 L -5356.9 -1738.6 L -5304.6 -1826.9 L -5127.1 -1843.4 L -5077.8 -1898.3 L -4859.8 -1973.2 L -4840.4 -2004.5 Z" />

<path class="country" d="M 903.6 479.7 L 820.3 701.5 L 761 815 L 688.1 698.2 L 672.4 595.6 L 753.8 459.7 L 864.5 355 L 927.6 396.2 L 903.6 479.7 Z" />


<g class="city"><circle cx="874.6562260142289" cy="390.9193933750551" r="5" /><text x="886.6562260142289" y="394.9193933750551">Taipei</text></g>
<g class="city"><circle cx="694.5610588988268" cy="723.3101265365933" r="5" /><text x="706.5610588988268" y="727.3101265365933">Kaohsiung</text></g>
<g class="city"><circle cx="751.9855195122366" cy="513.1873614990942" r="5" /><text x="763.9855195122366" y="517.1873614990942">Taichung</text></g>
<g class="city"><circle cx="560.5682988419466" cy="246.18966413304742" r="5" /><text x="572.5682988419466" y="250.18966413304742">Fuzhou</text></g>
<text class="map-title" x="80" y="105">Taiwan Physical Study Map</text>
<text class="map-subtitle" x="80" y="145">Landmark: Taipei 101 | Study terrain and water systems</text>
  <text class="footer" x="80" y="1036">Made with Natural Earth. Free vector and raster map data @ naturalearthdata.com.</text>
</svg>
