<?xml version="1.0" encoding="UTF-8"?>
<svg xmlns="http://www.w3.org/2000/svg" width="1600" height="1100" viewBox="0 0 1600 1100" role="img" aria-labelledby="title desc">
  <title id="title">Tanzania Political Study Map</title>
  <desc id="desc">Made with Natural Earth. Free vector and raster map data @ naturalearthdata.com.</desc>
  <defs>
    <linearGradient id="terrain" x1="0" x2="1" y1="0" y2="1">
      <stop offset="0%" stop-color="#6c8c53" />
      <stop offset="42%" stop-color="#d5c487" />
      <stop offset="72%" stop-color="#b88b5f" />
      <stop offset="100%" stop-color="#f1f5ee" />
    </linearGradient>
    <filter id="softShadow" x="-10%" y="-10%" width="120%" height="120%">
      <feDropShadow dx="0" dy="10" stdDeviation="12" flood-color="#0f172a" flood-opacity="0.16" />
    </filter>
    <style>
      .neighbor { fill: #ffffff; stroke: #94a3b8; stroke-width: 1.2; opacity: 0.72; }
      .country { fill: #f7f1df; stroke: #1f2937; stroke-width: 4; filter: url(#softShadow); }
      .admin1 { fill: none; stroke: #64748b; stroke-width: 1.1; stroke-dasharray: 6 7; opacity: 0.75; }
      .river { fill: none; stroke: #1d9bd1; stroke-width: 3; stroke-linecap: round; opacity: 0.88; }
      .lake { fill: #8ed1ea; stroke: #0ea5e9; stroke-width: 1.5; opacity: 0.8; }
      .city circle { fill: #ef4444; stroke: #ffffff; stroke-width: 2; }
      .city text, .terrain-label { fill: #172033; font: 700 24px system-ui, sans-serif; paint-order: stroke; stroke: #ffffff; stroke-width: 5; stroke-linejoin: round; }
      .map-title { fill: #0f172a; font: 800 46px system-ui, sans-serif; }
      .map-subtitle { fill: #475569; font: 600 24px system-ui, sans-serif; }
      .footer { fill: #64748b; font: 500 18px system-ui, sans-serif; }
    </style>
  </defs>
  <rect width="100%" height="100%" fill="#eaf3f8" />
  <rect x="40" y="40" width="1520" height="1020" rx="32" fill="#ffffff" opacity="0.54" />
  <path class="neighbor" d="M 6999.9 1000.6 L 6999.9 1021.5 L 6972.8 1032 L 6945.5 1041 L 6940 1025 L 6961.3 1016.3 L 6974.9 1013.9 L 6999.9 1000.6 Z M 6919.9 1062 L 6930.5 1055 L 6945.2 1067.3 L 6938.1 1089.6 L 6911.6 1095.5 L 6888.1 1090.2 L 6884 1071.4 L 6900.5 1056.7 L 6919.9 1062 Z M -8366 998.6 L -8371.3 1019.2 L -8374.8 1021.5 L -8374.8 1000.6 L -8366 998.6 Z" />
<path class="neighbor" d="M 565.6 506.6 L 573.3 545.9 L 569 568.1 L 577.6 592.9 L 602.3 616.8 L 625.4 670.6 L 625.4 670.6 L 608.6 666.3 L 551.2 673.5 L 539.8 678.6 L 527.6 705.8 L 537.2 724.7 L 529.6 775.2 L 524.3 818.1 L 535.8 825.7 L 565.7 842.3 L 577.4 834.6 L 581 880.6 L 548.3 880.3 L 530.7 856.8 L 515 838.6 L 482.3 832.6 L 472.7 810.2 L 446.6 823.7 L 412.4 817.7 L 398.1 798.3 L 371 794.4 L 351 795.4 L 348.5 782.2 L 333.8 781.1 L 314.4 778.6 L 287.9 785 L 269.3 783.9 L 258.8 787.8 L 261.1 737 L 246.8 721.2 L 243.7 694.9 L 250 669.2 L 241.3 652.7 L 240.5 625.8 L 188.7 626.2 L 192.4 610.8 L 170.6 610.9 L 168.3 618.3 L 141.8 620 L 131.1 644.9 L 124.7 655.6 L 101.1 649.6 L 87 655.6 L 58.8 659 L 42.4 636.7 L 32.6 622.9 L 20.4 597.3 L 9.8 565.4 L -116.2 564.9 L -131.2 570 L -143.5 569.2 L -161.2 574.9 L -167.2 561.7 L -156.3 557.2 L -155 538.6 L -148 527.6 L -132.4 518.6 L -121.2 523 L -106.6 506.6 L -83.3 507 L -80.6 519.1 L -64.6 526.7 L -39.5 499.9 L -14.6 479.1 L -3.8 465.4 L -5.3 430.3 L 13.3 388.8 L 32.8 366.8 L 61 346.2 L 65.9 332.6 L 66.9 316.9 L 73.9 302.1 L 71.7 277.9 L 77 240 L 85.3 213.4 L 98.1 190.6 L 100.7 164.8 L 104.5 135 L 121.1 113.3 L 144 99.5 L 179.1 114.1 L 206.3 129.8 L 237.6 134 L 269.4 142.4 L 282.2 116.6 L 288.1 113.3 L 307.5 117.6 L 355.1 96.2 L 371.9 105.3 L 385.8 104 L 392.2 93.6 L 408 90 L 440.2 94.4 L 467.6 95.4 L 481.7 90.9 L 507.5 126.2 L 526.7 131.3 L 538.1 124.2 L 557.9 127 L 581.7 117.9 L 591.8 136.2 L 629.4 164.6 L 629.4 164.6 L 626.8 214.5 L 643.9 220.3 L 630.2 235.4 L 613.8 246.8 L 597.5 269.1 L 588.5 288.9 L 586.1 323.2 L 576.2 339.5 L 575.8 371.7 L 563.6 383.6 L 562 409 L 556.1 412.3 L 552.2 435.7 L 562.9 455.1 L 565.6 506.6 Z" />
<path class="neighbor" d="M 1088.6 386.3 L 1063.3 351.1 L 1062.8 195.5 L 1100.1 147.1 L 1111.8 133.6 L 1139.2 132.8 L 1177.2 102.7 L 1232.9 100.8 L 1353.5 -27.4 L 1383.3 -63 L 1402.6 -89.2 L 1402.6 -111.5 L 1402.6 -154.6 L 1402.8 -172.2 L 1403 -172.9 L 1403 -172.9 L 1416.7 -173.7 L 1436.4 -180.1 L 1459 -184.4 L 1479.2 -199 L 1495.4 -199.1 L 1496.4 -187.3 L 1492.4 -162.5 L 1492.6 -140 L 1483.6 -124.6 L 1471.5 -78.4 L 1451 -30.7 L 1424.6 23.8 L 1387.9 86.4 L 1351.5 134.2 L 1301.2 192.5 L 1258.5 227.1 L 1194.6 269.5 L 1154.8 301.9 L 1108.1 353.7 L 1098.2 376.2 L 1088.6 386.3 Z" />
<path class="neighbor" d="M 986.8 514.2 L 925.5 471.5 L 922.6 446.7 L 767.7 359.7 L 760.5 355 L 760.1 309.7 L 772.3 292.4 L 793.3 264.2 L 808.9 233 L 790.1 184 L 785.1 162.6 L 764.8 132.9 L 791.1 107.4 L 820.1 79.3 L 842.2 86.4 L 842.2 110.4 L 856.8 124.5 L 886.6 124.5 L 940.6 160.7 L 954.1 161.2 L 964.1 160 L 973.6 164.9 L 1002.1 168.3 L 1014.7 150.5 L 1053.7 132.6 L 1070.9 147.1 L 1100.1 147.1 L 1062.8 195.5 L 1063.3 351.1 L 1088.6 386.3 L 1058.7 403.4 L 1048.1 421.2 L 1032.1 424.3 L 1026 454.4 L 1012.3 471.6 L 1004 500.1 L 986.8 514.2 Z" />
<path class="neighbor" d="M 644.7 1264.7 L 622 1260.5 L 607.6 1265.6 L 586.9 1258.4 L 569.5 1257.9 L 542.3 1238.6 L 509.3 1232 L 496.7 1205 L 496.6 1189.9 L 478.3 1185.3 L 430 1138.4 L 416.6 1113.7 L 408 1106.1 L 391.5 1071.9 L 439.3 1076.6 L 453.2 1081.5 L 467.6 1080.5 L 491.2 1052.9 L 528.4 1017.8 L 543.7 1014.4 L 548.8 999.6 L 573.2 982.6 L 605.5 976.7 L 608.3 992.7 L 643.9 991.8 L 663.7 1000.8 L 672.9 1011.4 L 693.2 1014.5 L 715.4 1028.2 L 715.5 1082.3 L 707.2 1111.9 L 705.3 1143.8 L 712.2 1156.4 L 707.4 1181.6 L 700.9 1185.5 L 689.7 1216.3 L 644.7 1264.7 Z" />
<path class="neighbor" d="M 162.3 1372.2 L 162.2 1529.9 L 124.1 1551.8 L 101.2 1554.9 L 74.3 1546.8 L 55.1 1543.7 L 47.9 1525.4 L 31.1 1513.7 L 10.6 1534.9 L -21.1 1502.6 L -37.8 1471.4 L -47.3 1429.8 L -57.8 1398.9 L -72.1 1333.1 L -73.1 1282 L -78.5 1258.7 L -95.1 1241.1 L -117.2 1205.9 L -139.6 1154.6 L -148.9 1127.8 L -183.7 1086.1 L -186.3 1053.3 L -165.7 1045.2 L -140.2 1038 L -112.5 1039.2 L -87 1058.5 L -80.6 1055.5 L 92.6 1053.7 L 122.1 1074.2 L 225.5 1080.2 L 304 1062.8 L 339 1053.1 L 366.7 1055.5 L 383.5 1065.2 L 383.9 1068.7 L 359.8 1078.3 L 346.8 1078.4 L 319.6 1095.2 L 303.3 1077.6 L 237.4 1092.5 L 205.6 1093.9 L 204.4 1246.1 L 162.3 1247.6 L 162.3 1372.2 Z" />
<path class="neighbor" d="M 481.7 90.9 L 467.6 95.4 L 440.2 94.4 L 408 90 L 392.2 93.6 L 385.8 104 L 371.9 105.3 L 355.1 96.2 L 307.5 117.6 L 288.1 113.3 L 282.2 116.6 L 269.4 142.4 L 237.6 134 L 206.3 129.8 L 179.1 114.1 L 144 99.5 L 121.1 113.3 L 104.5 135 L 100.7 164.8 L 73.2 162.4 L 44.3 155.2 L 18.8 177.8 L -3.6 217.6 L -8.1 205.2 L -10 185.7 L -29.5 172 L -45.3 149.9 L -48.9 134.6 L -69.1 112.3 L -65.7 99.6 L -69.9 81.6 L -66.6 48.5 L -56.4 40.7 L -34.9 -2.5 L 0.4 -5.8 L 8.3 -16.7 L 15.4 -15.9 L 26 -6.2 L 79.8 -22.6 L 97.9 -39.2 L 120.2 -54.2 L 116 -69.2 L 128 -73.1 L 169.3 -70.5 L 209.5 -90.3 L 240.3 -136.9 L 262 -154.2 L 289 -161.4 L 293.9 -143.2 L 318.5 -116.5 L 318.6 -99 L 311.7 -81.3 L 314.4 -68 L 329.3 -55.7 L 361.8 -37 L 385.2 -19.8 L 385.6 -5.9 L 414.3 16.4 L 432.1 34.8 L 442.9 60.5 L 474.8 77.4 L 481.7 90.9 Z" />
<path class="neighbor" d="M 625.4 670.6 L 643.2 681.5 L 660.3 688.6 L 687.4 695.8 L 711.6 708.6 L 731.8 727.7 L 742.7 763.9 L 735.4 775.5 L 726.8 810.1 L 735 845.5 L 721.6 860.4 L 708.6 900.1 L 731.1 911.1 L 601.5 946.3 L 605.5 976.7 L 573.2 982.6 L 548.8 999.6 L 543.7 1014.4 L 528.4 1017.8 L 491.2 1052.9 L 467.6 1080.5 L 453.2 1081.5 L 439.3 1076.6 L 391.5 1071.9 L 383.9 1068.7 L 383.5 1065.2 L 366.7 1055.5 L 339 1053.1 L 304 1062.8 L 276.2 1036.1 L 247.3 1001.2 L 249.3 865.3 L 338.2 865.8 L 334.6 851.1 L 341 835.1 L 333.5 815.1 L 338.3 794.3 L 333.8 781.1 L 348.5 782.2 L 351 795.4 L 371 794.4 L 398.1 798.3 L 412.4 817.7 L 446.6 823.7 L 472.7 810.2 L 482.3 832.6 L 515 838.6 L 530.7 856.8 L 548.3 880.3 L 581 880.6 L 577.4 834.6 L 565.7 842.3 L 535.8 825.7 L 524.3 818.1 L 529.6 775.2 L 537.2 724.7 L 527.6 705.8 L 539.8 678.6 L 551.2 673.5 L 608.6 666.3 L 625.4 670.6 Z" />
<path class="neighbor" d="M 711.6 708.6 L 753.5 716.6 L 762.1 728.4 L 776.6 748.3 L 788.5 806.4 L 776.6 838.9 L 788.5 894.4 L 803.4 893.8 L 818.8 907.5 L 836.7 938.4 L 840.3 993.3 L 821.8 1002.3 L 808.8 1032 L 780.9 1005.6 L 777.7 975.5 L 786.7 955.6 L 784.3 938.5 L 767.4 927.7 L 755.6 931.6 L 731.1 911.1 L 708.6 900.1 L 721.6 860.4 L 735 845.5 L 726.8 810.1 L 735.4 775.5 L 742.7 763.9 L 731.8 727.7 L 711.6 708.6 Z" />
<path class="neighbor" d="M 788.5 806.4 L 820.7 803 L 872 815 L 883.1 809.6 L 912.9 808.5 L 928.1 795.7 L 953.7 796.4 L 1000.4 779.8 L 1034.4 755 L 1034.4 755 L 1034.4 755 L 1041.3 774.2 L 1039.5 816.7 L 1044.8 854.2 L 1046.5 921 L 1054 941.9 L 1041.3 972.4 L 1024.7 1002.1 L 997.5 1028.5 L 958.4 1044.8 L 910.3 1065.5 L 862.1 1111.3 L 845.6 1119.1 L 815.8 1149.5 L 798.2 1159.4 L 794.6 1189.8 L 814.9 1222.1 L 823.3 1247.2 L 823.8 1260 L 831.4 1257.8 L 830.1 1299.7 L 823.2 1319.6 L 833.3 1326.9 L 826.9 1344.6 L 809.1 1359.8 L 773.8 1374.3 L 722.5 1397.4 L 703.8 1413.2 L 707.4 1431.2 L 718.3 1434 L 714.7 1456.5 L 682.3 1456.2 L 678.6 1437.3 L 672.3 1418.1 L 668.6 1402.8 L 676.2 1355.2 L 665.1 1324.8 L 644.7 1264.7 L 689.7 1216.3 L 700.9 1185.5 L 707.4 1181.6 L 712.2 1156.4 L 705.3 1143.8 L 707.2 1111.9 L 715.5 1082.3 L 715.4 1028.2 L 693.2 1014.5 L 672.9 1011.4 L 663.7 1000.8 L 643.9 991.8 L 608.3 992.7 L 605.5 976.7 L 601.5 946.3 L 731.1 911.1 L 755.6 931.6 L 767.4 927.7 L 784.3 938.5 L 786.7 955.6 L 777.7 975.5 L 780.9 1005.6 L 808.8 1032 L 821.8 1002.3 L 840.3 993.3 L 836.7 938.4 L 818.8 907.5 L 803.4 893.8 L 788.5 894.4 L 776.6 838.9 L 788.5 806.4 Z" />
<path class="neighbor" d="M -132.4 518.6 L -148 527.6 L -155 538.6 L -156.3 557.2 L -167.2 561.7 L -178.6 529.6 L -161.3 511.1 L -148.4 504 L -132.4 518.6 Z M -161.2 574.9 L -143.5 569.2 L -131.2 570 L -116.2 564.9 L 9.8 565.4 L 20.4 597.3 L 32.6 622.9 L 42.4 636.7 L 58.8 659 L 87 655.6 L 101.1 649.6 L 124.7 655.6 L 131.1 644.9 L 141.8 620 L 168.3 618.3 L 170.6 610.9 L 192.4 610.8 L 188.7 626.2 L 240.5 625.8 L 241.3 652.7 L 250 669.2 L 243.7 694.9 L 246.8 721.2 L 261.1 737 L 258.8 787.8 L 269.3 783.9 L 287.9 785 L 314.4 778.6 L 333.8 781.1 L 338.3 794.3 L 333.5 815.1 L 341 835.1 L 334.6 851.1 L 338.2 865.8 L 249.3 865.3 L 247.3 1001.2 L 276.2 1036.1 L 304 1062.8 L 225.5 1080.2 L 122.1 1074.2 L 92.6 1053.7 L -80.6 1055.5 L -87 1058.5 L -112.5 1039.2 L -140.2 1038 L -165.7 1045.2 L -186.3 1053.3 L -190.3 1026.5 L -184.4 988.9 L -169.7 949.8 L -167.4 931.5 L -153.6 893 L -143.4 875.5 L -118.9 847.6 L -105.2 828.6 L -100.7 796.9 L -102.9 772.7 L -115.7 757.5 L -127.1 731.5 L -137.6 705.9 L -135.3 697 L -122.1 680.1 L -135.1 638.9 L -143.8 610.3 L -165.2 583.2 L -161.2 574.9 Z" />
<path class="neighbor" d="M 613.9 417.5 L 616.3 434.3 L 625.5 444 L 625.9 457.9 L 615.4 466.8 L 598.8 489.1 L 583.3 504.6 L 565.6 506.6 L 562.9 455.1 L 552.2 435.7 L 578.1 439 L 591.2 414.7 L 613.9 417.5 Z" />
<path class="neighbor" d="M 1428.5 847 L 1439.8 865.2 L 1450.4 893.4 L 1457.2 944.7 L 1468.3 964.7 L 1464.1 985.2 L 1456.5 997.8 L 1442 972.7 L 1434 985.4 L 1442.1 1017 L 1438.3 1035.1 L 1426.5 1045 L 1423.8 1081.2 L 1407 1130.9 L 1386 1189.8 L 1359.6 1270.7 L 1343.2 1330.1 L 1323.9 1379.6 L 1289.2 1389.7 L 1251.9 1407.8 L 1227.3 1396.9 L 1193.4 1381.6 L 1181.6 1359.1 L 1178.8 1321.2 L 1163.8 1287.2 L 1159.8 1256.4 L 1167.5 1225.7 L 1187.2 1218.3 L 1187.3 1204 L 1207.7 1171.7 L 1211.5 1144.5 L 1201.6 1124.2 L 1193.5 1097.3 L 1190.1 1058 L 1205 1034.1 L 1210.8 1007 L 1232.1 1005.4 L 1255.9 996.7 L 1271.7 988.9 L 1290.5 988.4 L 1314.8 964 L 1349.9 937.7 L 1362.8 916.2 L 1356.9 898 L 1375.1 903.1 L 1398.6 873.4 L 1399.4 847.8 L 1413.6 828.7 L 1428.5 847 Z" />
<path class="neighbor" d="M 1353.5 -27.4 L 1232.9 100.8 L 1177.2 102.7 L 1139.2 132.8 L 1111.8 133.6 L 1100.1 147.1 L 1070.9 147.1 L 1053.7 132.6 L 1014.7 150.5 L 1002.1 168.3 L 973.6 164.9 L 964.1 160 L 954.1 161.2 L 940.6 160.7 L 886.6 124.5 L 856.8 124.5 L 842.2 110.4 L 842.2 86.4 L 820.1 79.3 L 794.8 32.8 L 775.3 22.9 L 767.8 5.8 L 746.2 -15 L 720 -18 L 734.5 -42.4 L 757.2 -43.4 L 763.6 -56.5 L 763 -94.9 L 775.6 -139.6 L 795.9 -151.5 L 800.1 -169 L 818.5 -201.6 L 844.2 -222.8 L 861.6 -264.8 L 868.4 -301.5 L 918.1 -292.6 L 931.4 -324.5 L 957.4 -305.1 L 982.4 -315.1 L 992.7 -306.2 L 1022 -305.7 L 1059.2 -288.5 L 1070.2 -273.8 L 1089.1 -260.1 L 1106.7 -235 L 1121.3 -221.2 L 1106.3 -202.3 L 1091.8 -182.3 L 1095.2 -170.5 L 1095.8 -157.5 L 1119.7 -156.8 L 1130 -159.8 L 1139.5 -152.2 L 1130.1 -137.1 L 1145.9 -113.6 L 1161.7 -93 L 1178 -77.8 L 1317.6 -27.1 L 1353.5 -27.4 Z" />
<path class="neighbor" d="M 760.5 355 L 673.5 358.3 L 626.7 357.8 L 611.7 362.9 L 586.2 376.1 L 575.8 371.7 L 576.2 339.5 L 586.1 323.2 L 588.5 288.9 L 597.5 269.1 L 613.8 246.8 L 630.2 235.4 L 643.9 220.3 L 626.8 214.5 L 629.4 164.6 L 629.4 164.6 L 647 152.9 L 674.1 162.5 L 708.5 152.5 L 738.6 152.6 L 764.8 132.9 L 785.1 162.6 L 790.1 184 L 808.9 233 L 793.3 264.2 L 772.3 292.4 L 760.1 309.7 L 760.5 355 Z" />
<path class="neighbor" d="M 611.7 362.9 L 628.7 387 L 626.2 412.1 L 613.9 417.5 L 613.9 417.5 L 591.2 414.7 L 578.1 439 L 552.2 435.7 L 556.1 412.3 L 562 409 L 563.6 383.6 L 575.8 371.7 L 586.2 376.1 L 611.7 362.9 Z" />
<path class="neighbor" d="M 629.4 164.6 L 591.8 136.2 L 581.7 117.9 L 557.9 127 L 538.1 124.2 L 526.7 131.3 L 507.5 126.2 L 481.7 90.9 L 474.8 77.4 L 442.9 60.5 L 432.1 34.8 L 414.3 16.4 L 385.6 -5.9 L 385.2 -19.8 L 361.8 -37 L 332.7 -53.7 L 345.8 -58.4 L 360.5 -66.4 L 371.5 -104.5 L 383.2 -124.3 L 414 -130.2 L 421.4 -118.5 L 443.4 -93.5 L 455.1 -89.9 L 470.5 -97.2 L 501.3 -95.7 L 507.1 -86.9 L 549.7 -86.9 L 551.1 -95.7 L 573.1 -103.8 L 577.5 -116.3 L 593.7 -125.1 L 629.6 -100.1 L 651.6 -104.5 L 672.8 -135.3 L 696.3 -158.8 L 692.6 -184.5 L 682.4 -196.9 L 708 -199.1 L 711 -208.7 L 730.8 -205.7 L 725.6 -174.2 L 730.8 -143.4 L 752.8 -126.5 L 757.9 -111.9 L 757.2 -90.6 L 763.1 -89.8 L 763.6 -56.5 L 757.2 -43.4 L 734.5 -42.4 L 720 -18 L 746.2 -15 L 767.8 5.8 L 775.3 22.9 L 794.8 32.8 L 820.1 79.3 L 791.1 107.4 L 764.8 132.9 L 738.6 152.6 L 708.5 152.5 L 674.1 162.5 L 647 152.9 L 629.4 164.6 Z" />

<path class="country" d="M 760.5 355 L 767.7 359.7 L 922.6 446.7 L 925.5 471.5 L 986.8 514.2 L 967.1 566.8 L 969.6 591 L 997 606.5 L 998.2 617.7 L 986.5 643.4 L 988.9 656.4 L 986.1 676.8 L 1001 703.6 L 1018.7 745.7 L 1034.4 755 L 1034.4 755 L 1000.4 779.8 L 953.7 796.4 L 928.1 795.7 L 912.9 808.5 L 883.1 809.6 L 872 815 L 820.7 803 L 788.5 806.4 L 776.6 748.3 L 762.1 728.4 L 753.5 716.6 L 711.6 708.6 L 687.4 695.8 L 660.3 688.6 L 643.2 681.5 L 625.4 670.6 L 625.4 670.6 L 602.3 616.8 L 577.6 592.9 L 569 568.1 L 573.3 545.9 L 565.6 506.6 L 583.3 504.6 L 598.8 489.1 L 615.4 466.8 L 625.9 457.9 L 625.5 444 L 616.3 434.3 L 613.9 417.5 L 613.9 417.5 L 626.2 412.1 L 628.7 387 L 611.7 362.9 L 626.7 357.8 L 673.5 358.3 L 760.5 355 Z" />


<g class="city"><circle cx="884.8349345247369" cy="369.15331329546234" r="5" /><text x="896.8349345247369" y="373.15331329546234">Nairobi</text></g>
<g class="city"><circle cx="989.540309302681" cy="604.756411187215" r="5" /><text x="1001.540309302681" y="608.756411187215">Dar es Salaam</text></g>
<g class="city"><circle cx="704.0398004333513" cy="300.82103248575015" r="5" /><text x="716.0398004333513" y="304.82103248575015">Kampala</text></g>
<g class="city"><circle cx="486.0902810878682" cy="813.1695985994907" r="5" /><text x="498.0902810878682" y="817.1695985994907">Lubumbashi</text></g>
<g class="city"><circle cx="520.3976552459962" cy="972.7513119098818" r="5" /><text x="532.3976552459962" y="976.7513119098818">Lusaka</text></g>
<g class="city"><circle cx="1249.9850876497476" cy="226.08194105285912" r="5" /><text x="1261.9850876497476" y="230.08194105285912">Mogadishu</text></g>
<g class="city"><circle cx="1007.54477279509" cy="486.88422401094505" r="5" /><text x="1019.54477279509" y="490.88422401094505">Mombasa</text></g>
<g class="city"><circle cx="596.2976223612093" cy="397.7777265081277" r="5" /><text x="608.2976223612093" y="401.7777265081277">Kigali</text></g>
<text class="map-title" x="80" y="105">Tanzania Political Study Map</text>
<text class="map-subtitle" x="80" y="145">Capital: Dodoma | Continent: Africa</text>
  <text class="footer" x="80" y="1036">Made with Natural Earth. Free vector and raster map data @ naturalearthdata.com.</text>
</svg>
