<?xml version="1.0" encoding="UTF-8"?>
<svg xmlns="http://www.w3.org/2000/svg" width="1600" height="1100" viewBox="0 0 1600 1100" role="img" aria-labelledby="title desc">
  <title id="title">Ukraine Physical Study Map</title>
  <desc id="desc">Made with Natural Earth. Free vector and raster map data @ naturalearthdata.com.</desc>
  <defs>
    <linearGradient id="terrain" x1="0" x2="1" y1="0" y2="1">
      <stop offset="0%" stop-color="#6c8c53" />
      <stop offset="42%" stop-color="#d5c487" />
      <stop offset="72%" stop-color="#b88b5f" />
      <stop offset="100%" stop-color="#f1f5ee" />
    </linearGradient>
    <filter id="softShadow" x="-10%" y="-10%" width="120%" height="120%">
      <feDropShadow dx="0" dy="10" stdDeviation="12" flood-color="#0f172a" flood-opacity="0.16" />
    </filter>
    <style>
      .neighbor { fill: #ffffff; stroke: #94a3b8; stroke-width: 1.2; opacity: 0.72; }
      .country { fill: url(#terrain); stroke: #1f2937; stroke-width: 4; filter: url(#softShadow); }
      .admin1 { fill: none; stroke: #64748b; stroke-width: 1.1; stroke-dasharray: 6 7; opacity: 0.75; }
      .river { fill: none; stroke: #1d9bd1; stroke-width: 3; stroke-linecap: round; opacity: 0.88; }
      .lake { fill: #8ed1ea; stroke: #0ea5e9; stroke-width: 1.5; opacity: 0.8; }
      .city circle { fill: #ef4444; stroke: #ffffff; stroke-width: 2; }
      .city text, .terrain-label { fill: #172033; font: 700 24px system-ui, sans-serif; paint-order: stroke; stroke: #ffffff; stroke-width: 5; stroke-linejoin: round; }
      .map-title { fill: #0f172a; font: 800 46px system-ui, sans-serif; }
      .map-subtitle { fill: #475569; font: 600 24px system-ui, sans-serif; }
      .footer { fill: #64748b; font: 500 18px system-ui, sans-serif; }
    </style>
  </defs>
  <rect width="100%" height="100%" fill="#d8edf0" />
  <rect x="40" y="40" width="1520" height="1020" rx="32" fill="#ffffff" opacity="0.54" />
  <path class="neighbor" d="M 3020.4 569.2 L 2990.4 595.5 L 2957.6 599.1 L 2955.7 638.7 L 2933.8 656.5 L 2855.5 643.6 L 2827 714.2 L 2806.8 723 L 2728.7 738.7 L 2764.2 807.3 L 2737.1 817.6 L 2740.3 840 L 2716 834.3 L 2696.2 820.1 L 2637.6 816 L 2572.2 814.9 L 2557.9 819.2 L 2501.7 802.6 L 2479.3 810.8 L 2473.2 834.1 L 2408.2 820.5 L 2382.3 826.1 L 2373.4 843.4 L 2350.8 850.6 L 2298.8 878.1 L 2281.5 906.4 L 2266.8 906.6 L 2256 887.9 L 2205.8 886.7 L 2197.8 854.3 L 2178.6 854.1 L 2181.5 814.5 L 2134.3 785.7 L 2066.6 788.8 L 2020.3 794.5 L 1982.7 758.9 L 1950.4 744 L 1889.2 715.8 L 1881.9 712.3 L 1780.3 735.7 L 1781.8 881.1 L 1761.6 883.1 L 1734 852.1 L 1707.3 841.1 L 1662.5 849.3 L 1645.1 862.4 L 1642.9 852.8 L 1652.6 836.3 L 1645.1 822.6 L 1599.3 809.2 L 1581.5 773.7 L 1559.7 763.7 L 1558.4 750.9 L 1596.8 754.6 L 1598.3 725.8 L 1631.9 719.4 L 1666.3 725.3 L 1673.4 686.8 L 1666.4 662.4 L 1626.9 664.3 L 1593.4 654.7 L 1547.7 672 L 1510.9 680.3 L 1490.9 673.9 L 1494.9 653.6 L 1469.7 627.2 L 1440.4 628.3 L 1406.9 601.6 L 1429.7 571.7 L 1418.2 563.6 L 1449.7 520.3 L 1490.3 543.2 L 1495.2 514.3 L 1576.6 471.4 L 1638.2 470.4 L 1725.2 497.7 L 1771.9 513.7 L 1813.8 497 L 1876.3 496.2 L 1926.8 516.7 L 1938.3 505 L 1993.7 506.7 L 2003.6 488 L 1939.6 460.9 L 1977.5 441.6 L 1970.1 430.9 L 2008 420.6 L 1979.5 393.6 L 1997.6 380.1 L 2145.2 366.4 L 2164.5 356.7 L 2263.2 342.1 L 2298.7 325.7 L 2369.6 334.2 L 2382 375.1 L 2423.2 365.5 L 2473.9 379 L 2470.6 400.5 L 2508.5 398.3 L 2607.4 361 L 2592.9 373.4 L 2643.2 403.9 L 2731.4 504.1 L 2752.4 483.4 L 2806.8 506.2 L 2863.5 496 L 2885.3 503.1 L 2904.3 525.9 L 2931.8 533.6 L 2948.6 550.3 L 2999.5 545.1 L 3020.4 569.2 Z" />
<path class="neighbor" d="M 6625.2 -294.2 L 6675.5 -310.7 L 6675.5 -283.7 L 6632.2 -281.7 L 6625.2 -294.2 Z M 1510.9 680.3 L 1492.9 703.7 L 1454.7 710.2 L 1415.5 750.9 L 1451.3 788.4 L 1447.4 814.9 L 1490.5 861.4 L 1490.5 861.4 L 1467 877.3 L 1460.2 887.3 L 1442.7 884.6 L 1415.6 860.7 L 1404.5 859.4 L 1379.7 850.2 L 1367.6 834 L 1330.8 825.8 L 1306.9 832 L 1300 824.6 L 1246.3 805.7 L 1188.2 799.3 L 1154.8 792.6 L 1150 797.2 L 1099.7 763.9 L 1054.7 749 L 1020.6 725.8 L 1049.4 719.5 L 1082.1 686.5 L 1060 670.9 L 1118.2 654.8 L 1117.1 646.2 L 1081.7 652.5 L 1083 635 L 1103.3 624 L 1141.5 621.1 L 1147.7 608 L 1139 586.2 L 1155 565.5 L 1154.5 554 L 1096.4 541.1 L 1073.3 541.5 L 1049 523.1 L 1018.7 529.3 L 968.6 515.4 L 969.4 507.7 L 955.4 490.6 L 924 488.7 L 920.7 476.4 L 930.5 468.4 L 905.3 446.1 L 864.4 449.9 L 852.4 447.9 L 842.5 456.9 L 827.7 455.3 L 827.7 455.3 L 818 430 L 808.8 416.9 L 816.4 413.2 L 848.2 414.6 L 863.5 406 L 852.2 395.5 L 825.6 388.5 L 827.9 381.4 L 811.9 374.2 L 787.2 348.4 L 795.6 337.7 L 791.7 319.2 L 753.2 309.8 L 732.5 314.5 L 726.9 304.7 L 685.3 294.8 L 672.6 271.5 L 669.3 252.4 L 650.3 243.3 L 667.2 230.8 L 655.5 194 L 683.5 171.2 L 677.6 164.4 L 677.6 164.4 L 722.5 142.6 L 681.1 123.8 L 681.1 123.8 L 765.6 73.4 L 802.2 50.6 L 817.1 30.5 L 758.7 3.5 L 774.8 -22.2 L 739.3 -51.6 L 765.8 -85.4 L 720 -130.3 L 756.4 -160.1 L 695.9 -186.4 L 701.7 -214 L 733.6 -217.6 L 800.7 -233.5 L 800.7 -233.5 L 841.4 -247.2 L 906.2 -223.3 L 1014.3 -213.9 L 1163.3 -169.3 L 1193.6 -150.6 L 1196.2 -124.3 L 1152.4 -103.6 L 1088 -93 L 911.9 -123 L 882.9 -118 L 947.2 -89.1 L 949.7 -70.8 L 952.3 -30.5 L 1003.1 -18.5 L 1033.9 -8.2 L 1039 -27.4 L 1015.3 -44.3 L 1040.4 -59.3 L 1135.8 -34.7 L 1169 -44.3 L 1142.4 -73.2 L 1234.4 -111.9 L 1270.8 -109.6 L 1307.6 -95.8 L 1330.6 -122.9 L 1297.7 -146.4 L 1317 -170 L 1288 -194.5 L 1398.4 -181.8 L 1420.9 -159.7 L 1371 -154.9 L 1371.3 -132.9 L 1402.3 -119.4 L 1463.3 -128 L 1472.9 -153.1 L 1555.3 -171.9 L 1693 -205.8 L 1722.8 -203.9 L 1683.9 -179.9 L 1732.8 -175.8 L 1761.1 -189.3 L 1835.1 -190.4 L 1893.6 -206.7 L 1938.6 -183 L 1983.4 -209.1 L 1942.1 -231.9 L 1962.6 -245 L 2079.2 -233 L 2133.8 -220.7 L 2276.8 -175.6 L 2303.1 -196.3 L 2263 -217.1 L 2261.9 -225.5 L 2214.3 -229.4 L 2227.3 -248.1 L 2206.2 -278.9 L 2205.1 -291.5 L 2277.9 -327.2 L 2303.8 -363.1 L 2333.1 -370.8 L 2437.6 -360.4 L 2445.8 -338.5 L 2408.4 -306.5 L 2432.9 -293.9 L 2445.6 -266.3 L 2436.7 -212.3 L 2480.2 -188.1 L 2463.2 -161.7 L 2386 -105.7 L 2431.1 -99.9 L 2446.8 -114.1 L 2490.2 -124.2 L 2500.6 -143.7 L 2534.8 -162.5 L 2511.8 -185 L 2530.2 -211 L 2487.1 -214.3 L 2477.6 -236.2 L 2509.1 -275.8 L 2457.8 -308 L 2528.4 -334.6 L 2519.3 -362.6 L 2539 -363.5 L 2559.7 -341.7 L 2544.1 -303.6 L 2586.4 -296.4 L 2568.4 -324.8 L 2634.4 -340.3 L 2716.3 -342.4 L 2789.2 -319.9 L 2754.1 -352.8 L 2750.2 -394.8 L 2818.8 -402.8 L 2913.7 -401 L 2999.2 -406.2 L 2967.1 -426.8 L 3012.8 -452.8 L 3058.1 -453.8 L 3134.8 -473.4 L 3239 -478.7 L 3252.2 -489.5 L 3355.8 -493.1 L 3388.1 -484.3 L 3476.6 -505.2 L 3549.1 -504.6 L 3560 -521.6 L 3597.7 -538.4 L 3690.8 -554.6 L 3758.5 -541.8 L 3704.7 -532.1 L 3794.1 -526.1 L 3804.8 -506.6 L 3840.8 -516.2 L 3956.2 -515.6 L 4045.1 -496.4 L 4076.8 -481.6 L 4067 -461.1 L 4023.3 -449.4 L 3919.6 -427.5 L 3890 -415.8 L 3938.9 -410.3 L 3997.3 -400.3 L 4032.8 -407.8 L 4052.9 -382.5 L 4070.3 -392.7 L 4133.3 -399 L 4259.9 -392.4 L 4269.5 -374 L 4434.5 -368.1 L 4436.7 -398.3 L 4520.5 -391.3 L 4583.5 -391.6 L 4647.2 -370.8 L 4665.3 -345.5 L 4642 -329 L 4691.6 -298 L 4753.6 -281.9 L 4791.7 -323.3 L 4855 -305.6 L 4922.2 -316.2 L 4998.6 -304.1 L 5027.6 -315.1 L 5092.2 -309.6 L 5063.7 -346.2 L 5115.8 -363.3 L 5472.1 -337.7 L 5505.7 -314.3 L 5609 -284.1 L 5768.3 -291.6 L 5846.9 -285.1 L 5879.7 -268.8 L 5874.9 -239.9 L 5923.5 -228.7 L 5976.3 -236.8 L 6046.3 -237.8 L 6120.8 -230.1 L 6195.6 -234.4 L 6264.3 -199.4 L 6313.2 -212 L 6281.3 -237.2 L 6298.9 -254.7 L 6424.7 -243.7 L 6506.8 -246 L 6620.3 -227.2 L 6675.5 -210 L 6675.5 -52.8 L 6675.2 -52.6 L 6624.5 -35.3 L 6573.4 -38.2 L 6609 -17.2 L 6632.4 15.4 L 6650.7 26 L 6655.2 42.3 L 6645.1 52.8 L 6571.5 44.2 L 6461.2 73.9 L 6426.2 78.5 L 6365.8 106.2 L 6308.5 130.4 L 6294 148.3 L 6237.6 121 L 6134.8 152 L 6116.8 137.4 L 6078.8 154.3 L 6026.1 148.8 L 6013.3 174.8 L 5966 213 L 5967.4 228.9 L 6012.4 237.8 L 6007.1 295.2 L 5970.4 296.7 L 5953.5 329.7 L 5970 346.7 L 5901 366.8 L 5887.3 411.9 L 5828.5 421.5 L 5816.6 461.6 L 5759.8 498.3 L 5745.2 471.1 L 5728.3 413.6 L 5706.2 325.9 L 5725.2 271.2 L 5758.5 247.6 L 5760.6 229.2 L 5821.9 220.4 L 5892.4 170.7 L 5960.3 130.1 L 6031.2 98.6 L 6062.9 43 L 6015 46.4 L 5991.3 78.9 L 5891.2 122.2 L 5858.9 73.7 L 5757 87.1 L 5658.3 153.2 L 5690.9 177.4 L 5602.8 187.7 L 5541.8 191.8 L 5544.7 163.2 L 5483.3 157.2 L 5434.4 176.6 L 5313.8 169.8 L 5184 181.5 L 5056.2 258.6 L 4905 351.6 L 4967.2 356.6 L 4986.6 381.3 L 5024.9 390.1 L 5050.1 370.4 L 5093.4 372.9 L 5150.4 416.3 L 5151.7 449.9 L 5120.9 489.3 L 5117.6 536.4 L 5099.8 599.5 L 5040.3 656.6 L 5027.1 683.9 L 4973.5 729.8 L 4920.4 775.4 L 4894.9 798.7 L 4842.3 821.8 L 4817.4 822.3 L 4792.6 803.2 L 4739.7 832 L 4733.5 845.2 L 4733.5 845.2 L 4733.5 845.2 L 4733.5 845.2 L 4728 838.3 L 4728 838.3 L 4727.8 818.2 L 4747.9 817.2 L 4753.6 770.5 L 4743.2 736.8 L 4777.1 722.8 L 4825 729.8 L 4851.5 691.4 L 4865 648.2 L 4880.3 633.8 L 4901.1 598.3 L 4835.9 609.9 L 4801.7 625.5 L 4741.7 625.4 L 4725.7 588.3 L 4679 560.3 L 4610.3 547.7 L 4595.7 509 L 4582 484.8 L 4567.2 467.8 L 4542.8 428 L 4508.2 413.5 L 4449.1 401.7 L 4396.8 402.8 L 4347.8 409.9 L 4315.2 429.6 L 4336.8 438.9 L 4337.3 460.7 L 4315.4 473.4 L 4279.8 515.2 L 4280.1 532.6 L 4224.5 557.5 L 4177.2 542.6 L 4130.1 545.9 L 4109.4 532.7 L 4085.8 528.4 L 4028 556.2 L 3976.1 562.8 L 3939.8 572.5 L 3890.1 566.1 L 3853.5 566.5 L 3829.6 546.4 L 3790.9 527.4 L 3751.4 522.2 L 3701.5 527.4 L 3664.2 534.7 L 3608.1 518.1 L 3600.6 488.5 L 3554.2 478.4 L 3518.4 473.7 L 3474.2 457.4 L 3433.3 498.3 L 3449.3 521.5 L 3411 549 L 3354 539.1 L 3314.6 537.7 L 3288.2 519.3 L 3247 518.7 L 3212.7 506.6 L 3152.7 525.1 L 3077.4 559.1 L 3035.8 565.9 L 3020.4 569.2 L 2999.5 545.1 L 2948.6 550.3 L 2931.8 533.6 L 2904.3 525.9 L 2885.3 503.1 L 2863.5 496 L 2806.8 506.2 L 2752.4 483.4 L 2731.4 504.1 L 2643.2 403.9 L 2592.9 373.4 L 2607.4 361 L 2508.5 398.3 L 2470.6 400.5 L 2473.9 379 L 2423.2 365.5 L 2382 375.1 L 2369.6 334.2 L 2298.7 325.7 L 2263.2 342.1 L 2164.5 356.7 L 2145.2 366.4 L 1997.6 380.1 L 1979.5 393.6 L 2008 420.6 L 1970.1 430.9 L 1977.5 441.6 L 1939.6 460.9 L 2003.6 488 L 1993.7 506.7 L 1938.3 505 L 1926.8 516.7 L 1876.3 496.2 L 1813.8 497 L 1771.9 513.7 L 1725.2 497.7 L 1638.2 470.4 L 1576.6 471.4 L 1495.2 514.3 L 1490.3 543.2 L 1449.7 520.3 L 1418.2 563.6 L 1429.7 571.7 L 1406.9 601.6 L 1440.4 628.3 L 1469.7 627.2 L 1494.9 653.6 L 1490.9 673.9 L 1510.9 680.3 Z M 3273.6 -685.9 L 3359 -694.8 L 3435.6 -674.9 L 3526.5 -636.8 L 3516.7 -601.3 L 3430.7 -596.4 L 3320.8 -607.7 L 3255.3 -622.8 L 3225 -651.1 L 3171.2 -658.9 L 3273.6 -685.9 Z M 3631.1 -617.1 L 3731.1 -594.7 L 3719.4 -578.6 L 3496.9 -563.4 L 3569 -615.2 L 3601.4 -619.6 L 3631.1 -617.1 Z M 5051.2 -493 L 5155.4 -491.3 L 5298 -470.4 L 5267 -441.1 L 5121.5 -442.2 L 5056.1 -432.8 L 4977.9 -458.5 L 4999.1 -485.6 L 5051.2 -493 Z M 5421.7 -461.8 L 5520.7 -451.5 L 5475.1 -435.9 L 5412.1 -439.4 L 5338.7 -455 L 5348.2 -467.8 L 5421.7 -461.8 Z M 5091.9 -383.8 L 5129.3 -399.4 L 5178.7 -403.1 L 5234.7 -388 L 5239.5 -377.6 L 5179.7 -377.4 L 5098.8 -381.8 L 5091.9 -383.8 Z M 1343 -668.7 L 1420.1 -675.9 L 1480 -676.4 L 1488.1 -665.7 L 1510.7 -675.2 L 1547.9 -681.7 L 1606.4 -673 L 1591.2 -667 L 1538.2 -661.8 L 1502.7 -658.8 L 1497.2 -652.4 L 1451.1 -645.8 L 1408.4 -655.2 L 1430.9 -667.5 L 1343 -668.7 Z M 470.5 367.5 L 397.9 368.1 L 349.3 363.6 L 358.3 346.2 L 412.8 333.4 L 454.1 340.3 L 471.5 346.6 L 467.3 357.4 L 470.5 367.5 Z M 1684.8 -398.8 L 1779.2 -433.5 L 1768.6 -451.4 L 1856.8 -472.2 L 1987.1 -497.6 L 2118.4 -504.9 L 2186 -519.6 L 2262.7 -524.7 L 2290.2 -509.1 L 2263.7 -496.8 L 2123.9 -477.3 L 2003.4 -458.5 L 1880.8 -420.9 L 1822 -382.4 L 1760.2 -344.4 L 1768.2 -311.7 L 1843.7 -279.3 L 1820.4 -275.9 L 1691.5 -281 L 1681 -298.5 L 1609.6 -309.1 L 1603.8 -330.4 L 1644.1 -338.8 L 1642.8 -360.4 L 1721.1 -394 L 1684.8 -398.8 Z M 5212.3 392 L 5226 430.1 L 5225 468.9 L 5241.2 508.7 L 5280.9 578.6 L 5222.5 565.6 L 5198.3 622.6 L 5236.7 663 L 5235.6 690.6 L 5205.7 666.8 L 5179.9 697.3 L 5172.6 664.2 L 5177 625.8 L 5172.5 583.2 L 5181.6 553.4 L 5183.3 500.6 L 5160.2 461.9 L 5163.7 407.9 L 5200.2 389.8 L 5184.5 371.5 L 5202.1 366 L 5212.3 392 Z M -7328.2 -140.6 L -7331.6 -116.1 L -7305 -106.3 L -7314.1 -135 L -7207 -129.1 L -7129.8 -92.2 L -7168.9 -75 L -7233.6 -70.9 L -7234.5 -32.3 L -7250.3 -24.1 L -7287.3 -25.3 L -7317.4 -39.1 L -7369.8 -50.6 L -7378.6 -67.7 L -7418.7 -74.1 L -7463.6 -69 L -7485 -82.8 L -7476.4 -97.5 L -7523.7 -88.1 L -7505.9 -69.6 L -7528.3 -52.8 L -7528.3 -210 L -7431.6 -179.9 L -7328.2 -140.6 Z M -7476.8 -286.1 L -7528.3 -283.7 L -7528.3 -310.7 L -7523.2 -312.3 L -7489.8 -312.3 L -7432.7 -301 L -7436.1 -295.6 L -7476.8 -286.1 Z M 892.8 697.1 L 903.2 687.4 L 931.3 695.8 L 944 697.4 L 949.1 705.2 L 955 706.4 L 955.4 709.8 L 974.7 719.3 L 1014.9 716.9 L 1007.2 731 L 964 737.9 L 910.4 760.7 L 888.5 752.7 L 897.2 734.1 L 854.1 722.6 L 861.1 715 L 898.8 701.9 L 892.8 697.1 Z" />
<path class="neighbor" d="M 8.7 188.8 L 26.1 166.1 L 58.9 139 L 72 92.6 L 46.8 72.6 L 44.3 20.2 L 70 -16.8 L 109.1 -16.1 L 122.8 -31.7 L 108.5 -45.2 L 169.7 -100.7 L 209.2 -144.5 L 235.2 -172.5 L 273.1 -172.4 L 283.6 -194.4 L 357.9 -188 L 363.7 -214 L 388.2 -215.6 L 440.8 -196.3 L 502.4 -169.5 L 503.4 -108.7 L 516.7 -93.3 L 448.8 -82.2 L 410.6 -54.6 L 416.8 -30.5 L 354 1.2 L 277.8 35.2 L 249.1 90.7 L 277.1 118.5 L 314.9 140.4 L 278.6 184.9 L 237.6 194.2 L 222.6 260.4 L 200.1 297.4 L 152.3 293.6 L 130 324.8 L 84.3 326.7 L 71.7 289.4 L 38.7 244.6 L 8.7 188.8 Z" />
<path class="neighbor" d="M 685.3 294.8 L 726.9 304.7 L 732.5 314.5 L 753.2 309.8 L 791.7 319.2 L 795.6 337.7 L 787.2 348.4 L 811.9 374.2 L 827.9 381.4 L 825.6 388.5 L 852.2 395.5 L 863.5 406 L 848.2 414.6 L 816.4 413.2 L 808.8 416.9 L 818 430 L 827.7 455.3 L 827.7 455.3 L 793.9 457.6 L 781.7 466.3 L 779.2 486.2 L 763.5 482.3 L 727.9 484.2 L 717.5 475 L 702.7 481.9 L 687.9 476.2 L 656.8 475.4 L 612.8 465.9 L 572.9 462.8 L 542.4 463.7 L 520.7 474.4 L 501.9 475.9 L 501.1 458.4 L 488.9 440.1 L 512.6 432 L 512.8 416.3 L 501.9 401.3 L 500.2 383.8 L 538.3 384.1 L 581.1 369.3 L 590.3 347 L 622.7 334.3 L 618.9 316.7 L 642.9 310 L 685.3 294.8 Z" />
<path class="neighbor" d="M 500.2 383.8 L 501.9 401.3 L 512.8 416.3 L 512.6 432 L 488.9 440.1 L 501.1 458.4 L 501.9 475.9 L 521.7 510.4 L 517.5 521.5 L 497.9 526 L 462.1 558.9 L 472.3 576.6 L 463.6 574.3 L 426.1 559.1 L 397.7 564.7 L 379.1 560.6 L 355.8 569.1 L 335.9 555.1 L 319.7 560.5 L 317.5 558.1 L 299.3 538.7 L 270 536.3 L 266.2 523.9 L 239.2 519.5 L 233.3 529.7 L 211.8 521.5 L 214.3 510.7 L 184.8 507.3 L 166.1 494.6 L 149.9 469.4 L 153 455.8 L 143.2 434.7 L 128.9 420.6 L 139.9 410.1 L 130.7 390 L 157.7 378.4 L 219.2 360.1 L 268.9 346.8 L 308.3 353.5 L 311.3 363.1 L 349.3 363.6 L 397.9 368.1 L 470.5 367.5 L 490.7 371.7 L 500.2 383.8 Z" />
<path class="neighbor" d="M 243.5 612.3 L 240.5 628.4 L 218.3 628.5 L 226 637 L 212.9 662.4 L 205.4 669.1 L 170.8 670 L 150.9 679 L 118.3 675.9 L 61.9 665.7 L 53.1 652 L 14.1 658.9 L 9.5 666.4 L -14.4 660.8 L -34.5 659.7 L -52.4 652.5 L -46.3 642.9 L -47.8 635.9 L -35.9 633.7 L -16 644.6 L -10.4 634.2 L 24.4 635.9 L 52.6 628.8 L 71.6 630 L 83.9 638.1 L 87.5 631.4 L 82 605.7 L 96.1 600.7 L 110 582.5 L 139.4 595.2 L 161.5 579.1 L 175.4 576.1 L 206.1 588.2 L 224.6 586.1 L 242.8 593.6 L 239.6 598.6 L 243.5 612.3 Z" />
<path class="neighbor" d="M 445 600.5 L 466.9 611.2 L 469.7 621.8 L 445.6 630 L 426.9 656.8 L 403 683.6 L 371.4 691 L 346.8 689.3 L 316.5 699.6 L 316.5 699.6 L 301.8 705.5 L 269.2 697.9 L 239.7 681 L 227.2 676.2 L 219.5 662.8 L 212.9 662.4 L 226 637 L 218.3 628.5 L 240.5 628.4 L 243.5 612.3 L 263.6 622.4 L 278.2 626.7 L 311.3 621.8 L 314.5 613.9 L 330.1 612.7 L 349.4 606.6 L 353.6 609.1 L 372.1 604.2 L 381.4 594.9 L 394.3 592.5 L 436.6 604.5 L 445 600.5 Z" />
<path class="neighbor" d="M 623.9 608.4 L 633.3 602.6 L 659.5 598.7 L 688.6 611 L 704.8 612.5 L 722.6 623.1 L 719.8 636.4 L 734.2 642.9 L 739.9 659.4 L 753.7 669.4 L 750.9 675.3 L 758.2 679.3 L 747.8 682.2 L 724.5 681.1 L 720.7 675.6 L 712.4 678.8 L 715.2 685.8 L 704.4 698.4 L 697.5 711.9 L 687.6 716.2 L 680.5 698.2 L 684.7 681.4 L 683.4 664.1 L 660.6 640.6 L 648.1 624 L 635.9 612.3 L 623.9 608.4 Z" />
<path class="neighbor" d="M 687.6 716.2 L 705.2 723.5 L 723.7 717.1 L 741.6 723.9 L 742.5 734.1 L 723.4 742.6 L 711.4 738.9 L 700.4 786.5 L 677.2 782.3 L 648.5 768 L 602 777.2 L 582.4 787.2 L 524.5 785.2 L 494.2 779 L 478.9 781.9 L 467.6 765.7 L 460.3 758.8 L 469.5 752.1 L 459.7 747.2 L 447.3 756.1 L 424.3 744.6 L 421.2 728.3 L 397.2 719.1 L 392.8 706.5 L 371.4 691 L 403 683.6 L 426.9 656.8 L 445.6 630 L 469.7 621.8 L 486.7 613.3 L 511.1 617.7 L 536.4 617.8 L 554.7 627.5 L 568.2 621.4 L 597.3 617.6 L 607.2 608.4 L 623.9 608.4 L 635.9 612.3 L 648.1 624 L 660.6 640.6 L 683.4 664.1 L 684.7 681.4 L 680.5 698.2 L 687.6 716.2 Z" />
<path class="neighbor" d="M 618.9 316.7 L 622.7 334.3 L 590.3 347 L 581.1 369.3 L 538.3 384.1 L 500.2 383.8 L 490.7 371.7 L 470.5 367.5 L 467.3 357.4 L 471.5 346.6 L 454.1 340.3 L 412.8 333.4 L 404.4 300.3 L 449.6 288.2 L 515.7 290.7 L 554.5 286.8 L 560 295 L 581 297.5 L 618.9 316.7 Z" />
<path class="neighbor" d="M 650.3 243.3 L 669.3 252.4 L 672.6 271.5 L 685.3 294.8 L 642.9 310 L 618.9 316.7 L 581 297.5 L 560 295 L 554.5 286.8 L 515.7 290.7 L 449.6 288.2 L 404.4 300.3 L 405.7 270.6 L 425.1 245.8 L 462.3 232.3 L 493.6 261.8 L 525.3 261 L 532.9 230.7 L 566.5 223.8 L 583.8 228.6 L 617.7 243.2 L 650.3 243.3 Z" />
<path class="neighbor" d="M 130.7 390 L 139.9 410.1 L 128.9 420.6 L 143.2 434.7 L 153 455.8 L 149.9 469.4 L 166.1 494.6 L 148.5 498.7 L 138.1 494.1 L 128.2 501.6 L 99.9 509.3 L 85.2 519.1 L 56.5 527.7 L 63.5 539.4 L 67.6 556.1 L 87.8 565.6 L 110 582.5 L 96.1 600.7 L 82 605.7 L 87.5 631.4 L 83.9 638.1 L 71.6 630 L 52.6 628.8 L 24.4 635.9 L -10.4 634.2 L -16 644.6 L -35.9 633.7 L -47.8 635.9 L -90.1 623.8 L -98.2 632.4 L -131.8 632.1 L -126.8 604 L -106.8 577 L -163.7 569.7 L -182.3 559.4 L -180.1 542.1 L -188 533.2 L -183.5 506.5 L -190.1 465.2 L -166.4 465.1 L -156.4 450.3 L -146.6 414.2 L -153.9 400.8 L -146.2 392.5 L -113.3 390.3 L -105.9 399 L -79.2 379.6 L -88.2 364.8 L -90 342.4 L -60.2 347.6 L -34.9 341.6 L -34.2 356.9 L 5.6 366 L 5.2 380.1 L 45.3 372.6 L 67.5 361.8 L 112.1 377.4 L 130.7 390 Z" />
<path class="neighbor" d="M 467.6 765.7 L 478.9 781.9 L 494.2 779 L 524.5 785.2 L 582.4 787.2 L 602 777.2 L 648.5 768 L 677.2 782.3 L 700.4 786.5 L 679.9 802.8 L 665.5 831.1 L 678.2 853.6 L 644.3 848.3 L 604.1 860.7 L 603.6 880.3 L 567.8 884.1 L 540 870.3 L 508.4 881.1 L 479.2 880 L 476.4 853.9 L 456.6 841.2 L 463.1 835.7 L 458.8 831 L 465.5 818.4 L 480.5 806.1 L 461.4 789 L 457.8 774.6 L 467.6 765.7 Z" />
<path class="neighbor" d="M 610.9 1118.2 L 606 1129.8 L 549.1 1133.2 L 549.5 1126.7 L 501.4 1119 L 508.7 1102.2 L 530.3 1115.5 L 561 1113.3 L 590.3 1116.1 L 589.4 1122.9 L 610.9 1118.2 Z M 479.2 880 L 508.4 881.1 L 540 870.3 L 567.8 884.1 L 603.6 880.3 L 604.1 860.7 L 623.3 871.1 L 611.1 895.8 L 601.7 900.2 L 577.7 899.1 L 557.1 895.4 L 509.3 905.7 L 536.6 927.8 L 516.6 934.3 L 494.6 934.3 L 473.7 914 L 466.3 922.6 L 475.1 946.2 L 494.9 964.7 L 480 973.4 L 502 991.6 L 521.5 1003 L 522.1 1025.3 L 485.6 1014.8 L 497.3 1035 L 472.2 1039.1 L 487.2 1073.9 L 461 1074.4 L 428.6 1057.2 L 413.8 1025.7 L 406.9 999.4 L 391.5 981.3 L 371.3 958.8 L 368.6 947.6 L 387 928.4 L 389.3 915.6 L 402.2 909.9 L 403 899.5 L 428.8 896 L 443.8 887.4 L 465.2 888.2 L 471.7 881.3 L 479.2 880 Z" />
<path class="neighbor" d="M 1340.1 1044.4 L 1321.2 1051.1 L 1307.4 1041 L 1261.5 1035.9 L 1244.5 1042.1 L 1199.6 1048.2 L 1178.4 1047.5 L 1133 1062.3 L 1100.5 1062.5 L 1079.5 1055 L 1036.1 1066 L 1023.2 1058.3 L 1021 1080.3 L 1010.5 1089 L 999.9 1097.6 L 985.4 1079.7 L 1000.3 1064.9 L 976.3 1068.3 L 943.3 1059.2 L 916.1 1081.9 L 856.3 1086.3 L 824.3 1065.2 L 781.8 1063.8 L 772.7 1080.2 L 745.4 1084.9 L 707.3 1063.9 L 664.2 1064.6 L 640.8 1025.4 L 612 1003.5 L 631.2 972.8 L 606.2 953.9 L 649.9 916.2 L 710.7 914.6 L 727.3 884.6 L 802.5 889.9 L 849.9 864.3 L 895.9 853.1 L 961.2 852.3 L 1030 880.1 L 1086.6 895.3 L 1132.6 889.3 L 1166.5 892.8 L 1213.1 872.2 L 1255.2 870.3 L 1293.2 889.7 L 1299.9 903.6 L 1296.1 922.8 L 1325.4 932.6 L 1341 944.1 L 1313.9 955.3 L 1326.3 1000.6 L 1318.5 1012.8 L 1340.1 1044.4 L 1340.1 1044.4 Z M 604.1 860.7 L 644.3 848.3 L 678.2 853.6 L 682.9 868.7 L 717.4 881.5 L 710.2 891.1 L 663.3 893.3 L 646.5 905.5 L 613.6 926.8 L 601.2 908.4 L 601.7 900.2 L 611.1 895.8 L 623.3 871.1 L 604.1 860.7 Z" />
<path class="neighbor" d="M 403 899.5 L 402.2 909.9 L 389.3 915.6 L 387 928.4 L 368.6 947.6 L 361.9 944.8 L 361.1 936.1 L 339.3 922.9 L 335.8 904.1 L 339.2 877.1 L 344.6 864.9 L 337.9 858.7 L 337.9 858.7 L 335.3 846.1 L 352.4 826.7 L 354.9 834.1 L 365.5 830.6 L 373.9 841.2 L 383.3 845.3 L 386 859.6 L 386 859.6 L 381 873 L 386.6 889.9 L 403 899.5 Z" />
<path class="neighbor" d="M 227.2 676.2 L 239.7 681 L 269.2 697.9 L 301.8 705.5 L 316.5 699.6 L 326.1 714.9 L 338.7 726.2 L 323.5 741 L 305.6 732.3 L 278.3 732.8 L 244.4 726.3 L 226 727.1 L 217.4 735.3 L 203.3 726.3 L 195 742.6 L 214.3 761.1 L 222.9 773.3 L 241 788.1 L 256.1 796.8 L 271 813.3 L 305.9 828.2 L 301.6 834.9 L 301.6 834.9 L 264.5 820.3 L 241.6 806.1 L 205.5 794.4 L 172.3 765.3 L 180.3 762.4 L 162.3 745.8 L 161.6 732.5 L 136.2 726.3 L 124.1 743.3 L 112.4 730.1 L 113.3 716.4 L 114.7 715.7 L 142.2 717.1 L 149.5 710.4 L 162.9 716.9 L 178.4 717.6 L 178.2 706.6 L 191.9 702.6 L 195.8 686.6 L 227.2 676.2 Z" />
<path class="neighbor" d="M -14.4 660.8 L 9.5 666.4 L 14.1 658.9 L 53.1 652 L 61.9 665.7 L 118.3 675.9 L 114.1 695.4 L 123.5 712.2 L 92.1 706.4 L 60 720.4 L 62.2 740 L 57.4 751.3 L 70.3 771.3 L 107.3 791.2 L 127.2 823.8 L 171.1 855.6 L 202 855.4 L 211.6 864.1 L 200.5 872 L 235.9 886.2 L 264.8 898.2 L 298.7 918.7 L 302.8 926.1 L 295.4 940.2 L 273.5 921.8 L 239.2 915.3 L 222.6 940.8 L 251.1 955.5 L 246.4 976.1 L 229.9 978.4 L 208.9 1012.2 L 192.4 1015.3 L 192.6 1003.2 L 200.6 982 L 209.2 973.6 L 193.8 950.8 L 181.8 930.9 L 165.4 925.9 L 153.7 908.9 L 128.4 901.7 L 111.3 885.9 L 82.1 883.3 L 51.3 865.5 L 15.2 839.8 L -11.6 817.1 L -23.9 778.1 L -43.6 773.5 L -75.7 760.5 L -93.8 765.8 L -116.6 784.1 L -133 787 L -128.5 769.9 L -149.9 764.9 L -160.1 734.4 L -146.4 722.3 L -158 707.5 L -156.4 696.4 L -139.4 704.8 L -120.4 703 L -98.3 689.6 L -91.4 695.8 L -72.6 694.6 L -64.1 678.7 L -34.9 683.6 L -17.5 677 L -14.4 660.8 Z M 156 1006 L 186 1002.6 L 171.8 1033.6 L 177.7 1045.8 L 169.4 1066.1 L 139.2 1051.3 L 119.1 1047 L 64.1 1026.9 L 69.6 1006.7 L 115.8 1010.3 L 156 1006 Z M -82.7 897.3 L -63 885 L -39.3 913 L -44.9 965.2 L -62.8 962.7 L -78.9 975.9 L -93.8 965.4 L -95.4 917.8 L -104.4 895.3 L -82.7 897.3 Z" />
<path class="neighbor" d="M 1404.5 859.4 L 1415.6 860.7 L 1442.7 884.6 L 1460.2 887.3 L 1467 877.3 L 1490.5 861.4 L 1511.3 882.2 L 1531.3 910.2 L 1549.7 912 L 1561.9 922.6 L 1529.4 925.8 L 1522.5 956.5 L 1515.7 970.3 L 1501.2 979.5 L 1502.3 999 L 1492.5 1001 L 1467.9 980.3 L 1481.5 960.8 L 1469.8 949.2 L 1455 952.2 L 1408.5 981.3 L 1407.6 953.9 L 1389.9 947.4 L 1373.2 936.7 L 1384.3 924.1 L 1363.3 910.6 L 1371.2 900.7 L 1356.2 893.9 L 1348 883.5 L 1357.7 877.1 L 1387.1 888.4 L 1408.3 890.8 L 1413.7 886.1 L 1394.3 864.8 L 1404.5 859.4 Z M 1394.2 982.4 L 1367.1 977.2 L 1347.2 959 L 1341 944.1 L 1349.2 943 L 1360.9 953.6 L 1378.3 953.5 L 1378.1 959.6 L 1394.2 982.4 Z" />
<path class="neighbor" d="M 1150 797.2 L 1154.8 792.6 L 1188.2 799.3 L 1246.3 805.7 L 1300 824.6 L 1306.9 832 L 1330.8 825.8 L 1367.6 834 L 1379.7 850.2 L 1404.5 859.4 L 1394.3 864.8 L 1413.7 886.1 L 1408.3 890.8 L 1387.1 888.4 L 1357.7 877.1 L 1348 883.5 L 1293.2 889.7 L 1255.2 870.3 L 1213.1 872.2 L 1219 855.3 L 1209.2 828.4 L 1186.4 813.9 L 1164.5 809.3 L 1150 797.2 Z" />
<path class="neighbor" d="M 118.3 675.9 L 150.9 679 L 170.8 670 L 205.4 669.1 L 212.9 662.4 L 219.5 662.8 L 227.2 676.2 L 195.8 686.6 L 191.9 702.6 L 178.2 706.6 L 178.4 717.6 L 162.9 716.9 L 149.5 710.4 L 142.2 717.1 L 114.7 715.7 L 123.5 712.2 L 114.1 695.4 L 118.3 675.9 Z" />
<path class="neighbor" d="M 463.6 574.3 L 452.7 584.6 L 445 600.5 L 436.6 604.5 L 394.3 592.5 L 381.4 594.9 L 372.1 604.2 L 353.6 609.1 L 349.4 606.6 L 330.1 612.7 L 314.5 613.9 L 311.3 621.8 L 278.2 626.7 L 263.6 622.4 L 243.5 612.3 L 239.6 598.6 L 242.8 593.6 L 248.4 584.9 L 265.9 585.6 L 279.3 581.5 L 280.4 577.8 L 287.9 575.9 L 290.5 567 L 299.6 565.2 L 305.7 558.1 L 317.5 558.1 L 319.7 560.5 L 335.9 555.1 L 355.8 569.1 L 379.1 560.6 L 397.7 564.7 L 426.1 559.1 L 463.6 574.3 Z" />
<path class="neighbor" d="M 166.1 494.6 L 184.8 507.3 L 214.3 510.7 L 211.8 521.5 L 233.3 529.7 L 239.2 519.5 L 266.2 523.9 L 270 536.3 L 299.3 538.7 L 317.5 558.1 L 305.7 558.1 L 299.6 565.2 L 290.5 567 L 287.9 575.9 L 280.4 577.8 L 279.3 581.5 L 265.9 585.6 L 248.4 584.9 L 242.8 593.6 L 224.6 586.1 L 206.1 588.2 L 175.4 576.1 L 161.5 579.1 L 139.4 595.2 L 110 582.5 L 87.8 565.6 L 67.6 556.1 L 63.5 539.4 L 56.5 527.7 L 85.2 519.1 L 99.9 509.3 L 128.2 501.6 L 138.1 494.1 L 148.5 498.7 L 166.1 494.6 Z" />
<path class="neighbor" d="M 305.9 828.2 L 271 813.3 L 256.1 796.8 L 241 788.1 L 222.9 773.3 L 214.3 761.1 L 195 742.6 L 203.3 726.3 L 217.4 735.3 L 226 727.1 L 244.4 726.3 L 278.3 732.8 L 305.6 732.3 L 323.5 741 L 323.5 741 L 337.8 740.9 L 327.9 758.3 L 346.9 773.4 L 341.2 792 L 331.9 793.7 L 324.5 797.3 L 311.7 806.5 L 305.9 828.2 Z" />
<path class="neighbor" d="M 456.6 841.2 L 476.4 853.9 L 479.2 880 L 471.7 881.3 L 465.2 888.2 L 443.8 887.4 L 428.8 896 L 403 899.5 L 386.6 889.9 L 381 873 L 386 859.6 L 386 859.6 L 391 859.9 L 392.8 851.8 L 416.1 845.7 L 424.9 844.2 L 438.4 841.9 L 456.6 841.2 Z" />
<path class="neighbor" d="M 316.5 699.6 L 316.5 699.6 L 346.8 689.3 L 371.4 691 L 392.8 706.5 L 397.2 719.1 L 421.2 728.3 L 424.3 744.6 L 447.3 756.1 L 459.7 747.2 L 469.5 752.1 L 460.3 758.8 L 467.6 765.7 L 457.8 774.6 L 461.4 789 L 480.5 806.1 L 465.5 818.4 L 458.8 831 L 463.1 835.7 L 456.6 841.2 L 438.4 841.9 L 424.9 844.2 L 423.6 841.2 L 428.3 836.5 L 432.7 826.9 L 427.1 827.1 L 419.5 819.8 L 413 818 L 407.8 811.7 L 400.5 809.2 L 394.8 803.7 L 387.8 805.8 L 382.3 818.9 L 372.9 821.8 L 376.1 818.4 L 361.1 810.2 L 348.1 806 L 342.3 800.5 L 331.9 793.7 L 341.2 792 L 346.9 773.4 L 327.9 758.3 L 337.8 740.9 L 323.5 741 L 323.5 741 L 338.7 726.2 L 326.1 714.9 L 316.5 699.6 Z" />
<path class="neighbor" d="M 365.5 830.6 L 354.9 834.1 L 352.4 826.7 L 335.3 846.1 L 337.9 858.7 L 329.7 855.6 L 318.6 842.7 L 301.6 834.9 L 305.9 828.2 L 311.7 806.5 L 324.5 797.3 L 331.9 793.7 L 342.3 800.5 L 348.1 806 L 361.1 810.2 L 376.1 818.4 L 372.9 821.8 L 365.5 830.6 Z" />
<path class="neighbor" d="M 386 859.6 L 383.3 845.3 L 373.9 841.2 L 365.5 830.6 L 372.9 821.8 L 382.3 818.9 L 387.8 805.8 L 394.8 803.7 L 400.5 809.2 L 407.8 811.7 L 413 818 L 419.5 819.8 L 427.1 827.1 L 432.7 826.9 L 428.3 836.5 L 423.6 841.2 L 424.9 844.2 L 416.1 845.7 L 392.8 851.8 L 391 859.9 L 386 859.6 Z" />
<path class="lake" d="M 353.4 363.3 L 351.6 361.4 L 357.9 357.2 L 360.4 354.9 L 361.1 353.5 L 362.2 352.4 L 364 352.7 L 366 353.8 L 370.9 353.4 L 370.9 353.4 L 370.9 353.4 L 370.9 353.4 L 370.9 353.4 L 370.9 353.4 L 378.7 353.5 L 366.7 357.4 L 359.9 360 L 353.6 363.1 L 353.4 363.3 Z" />
<path class="lake" d="M 351.6 361.4 L 353.4 363.3 L 352.4 364.1 L 349.2 365.6 L 346.4 366.6 L 342.2 368.5 L 336.9 369.8 L 333.2 368.1 L 334.2 367 L 343.1 365.4 L 347.6 363.6 L 351.6 361.4 Z" />
<path class="lake" d="M 882.2 576.9 L 882 577.9 L 878.6 577.5 L 878.2 576.8 L 877.3 575.2 L 874.9 574.4 L 870.2 574.2 L 866.5 573.1 L 864.5 572.1 L 860.7 569.8 L 852.3 565.8 L 847.8 564 L 842.9 561.7 L 832.2 557.4 L 831.8 555.8 L 834.4 555.2 L 840.7 556.3 L 843.4 557.1 L 850 559.2 L 854.4 560.9 L 861.1 562.6 L 863.1 561.8 L 862.2 559.3 L 862.4 556.5 L 864.3 555.6 L 865.9 558.5 L 870.1 561.6 L 876.2 566.6 L 879.7 569.8 L 883.3 573 L 883.3 574 L 882.2 576.9 L 882.2 576.9 L 882.2 576.9 Z" />
<path class="lake" d="M 267.5 665.8 L 263.1 667.5 L 255.3 667.6 L 255 666.8 L 255 666 L 256.5 665.9 L 259.5 665.3 L 263.2 664.5 L 270.6 662.4 L 276.8 660.1 L 279.1 658.8 L 282 657.1 L 285.3 655.1 L 286.9 654.4 L 288.9 655 L 290.3 656.2 L 289.4 658 L 279.1 661.8 L 270.9 664.8 L 267.5 665.8 L 267.5 665.8 L 267.5 665.8 L 267.5 665.8 Z" />
<path class="lake" d="M 970.3 725.4 L 965.4 723.6 L 958.1 721.4 L 957 720.5 L 956.2 719.6 L 956.1 718.6 L 957.7 715.8 L 956.6 713.2 L 955.5 711.7 L 954.5 710.6 L 949.9 708.4 L 948 706.9 L 945.2 706.2 L 944.4 704.5 L 942 703.8 L 941.8 703.2 L 940.5 702.4 L 934.6 704.5 L 934.6 703.8 L 939.5 699.4 L 939.5 698.6 L 939.1 698.3 L 937.5 697.9 L 935.8 699.7 L 934.7 700 L 933.2 699.3 L 931.3 700.4 L 930.5 700.5 L 930.1 699.9 L 930.4 698 L 930.1 696.9 L 929.4 696 L 925.8 695 L 924 695.2 L 922.6 694.9 L 922.3 695.4 L 922.5 697 L 922.4 697.8 L 921.6 698.2 L 920.6 697.5 L 920.3 695.7 L 919.9 695 L 917.9 693.7 L 915 693.2 L 914.2 694 L 913.5 694.5 L 912.1 694.5 L 910.5 693.7 L 908.4 690.4 L 907.8 690.4 L 906 690.8 L 903.5 688.9 L 903.1 688.1 L 903.4 687.6 L 904.4 687 L 906.3 686.8 L 909.1 686.9 L 912 687.6 L 916.2 689.8 L 918.1 690.5 L 919.3 690.3 L 919.2 688.8 L 919.5 688.4 L 920.2 688.5 L 920.9 688.5 L 921.5 688 L 921.3 686.2 L 921.3 685.5 L 922 685.5 L 924.4 687.6 L 925.7 688.5 L 926.8 688.9 L 927.4 688.9 L 928 688.5 L 936.6 689.7 L 937 690.6 L 936.7 691.5 L 934.5 691.6 L 933.6 692 L 932 695.2 L 932.6 696.1 L 934 696.7 L 935.7 696.5 L 938.3 695.2 L 940.3 690 L 941.4 689.2 L 943.3 689.5 L 944.8 690.9 L 944.9 691.6 L 943.4 692.5 L 943.2 693.9 L 944.3 694.7 L 946.2 695.1 L 947.3 697.6 L 948.2 702.2 L 950.9 704.2 L 955.8 710.3 L 961.7 716.9 L 966.4 721.1 L 971.4 723.9 L 971.9 724.6 L 970.3 725.4 L 970.3 725.4 L 970.3 725.4 Z" />
<path class="lake" d="M 966.4 637.2 L 965.2 638.8 L 962.9 638.8 L 956.5 639.7 L 953 640.5 L 947 638.3 L 938.5 636.1 L 931.6 637.4 L 922.6 640 L 922.1 641.2 L 922.3 642.9 L 921.9 643.8 L 918.9 644.1 L 911.3 650.3 L 904 658.9 L 903.2 660.6 L 902.7 662.1 L 897.7 663.6 L 896.9 663.2 L 898.3 661.2 L 900.5 655.2 L 901.5 654.6 L 901.9 654.9 L 903.4 654.2 L 905.7 651.9 L 906.3 650.2 L 908.6 648.2 L 912.5 645.4 L 913.6 643.5 L 913.7 642.4 L 913 638.8 L 912.6 635.2 L 914.5 634.7 L 917.7 634.5 L 920.9 635.2 L 923.4 635.4 L 924.6 633.9 L 925.6 633.3 L 927.5 634.2 L 930.1 634.6 L 932.3 634.1 L 934.3 633.2 L 943.9 633.8 L 954.4 633.4 L 958 629.9 L 957.9 624.1 L 958.7 623.4 L 959.7 623.4 L 964.1 631 L 966.4 637.2 L 966.4 637.2 L 966.4 637.2 Z" />
<path class="lake" d="M 1482.7 373.8 L 1482.4 371.3 L 1483.2 367.1 L 1483.4 362.5 L 1483.9 356.8 L 1489.2 354.7 L 1496.9 353.8 L 1499.3 351.5 L 1500.3 348.7 L 1501.5 346 L 1501.4 340.5 L 1506 338 L 1513.2 334.5 L 1513.7 329.4 L 1511 327 L 1508.8 323.5 L 1509.2 321.9 L 1511.6 322.2 L 1514.4 325.9 L 1516.1 327.6 L 1518.9 328.2 L 1521 327.6 L 1519.9 326 L 1520 323.1 L 1519.9 320.5 L 1521.4 319.5 L 1521.4 320.3 L 1521.6 322.6 L 1524.9 325 L 1529.9 325.5 L 1538 325.8 L 1546.4 324.6 L 1549.9 322.7 L 1555.2 323.6 L 1561.3 324 L 1565.4 322.8 L 1573 323.2 L 1579.3 322 L 1590.8 321.2 L 1595.9 320.2 L 1598.9 321.3 L 1599.8 321.4 L 1602.1 321.4 L 1604.3 320.8 L 1604.2 317.7 L 1601.5 313.9 L 1602.1 310.4 L 1603.5 308.9 L 1604.8 308.1 L 1604.4 309.6 L 1604 313.3 L 1606.4 316 L 1610.9 315.5 L 1615.9 312.5 L 1620.3 313.2 L 1622.8 313.4 L 1620.8 314.5 L 1617.4 314 L 1615.3 314.3 L 1614.5 315.6 L 1614 317.5 L 1610.1 318.6 L 1607.5 318.9 L 1606.5 321.1 L 1602 323.5 L 1593.9 321.7 L 1592.7 322.7 L 1593.6 323.5 L 1594.4 325.2 L 1593.1 326.8 L 1590.9 325.4 L 1588.6 324.6 L 1581 323.1 L 1576.5 324 L 1575.3 324.9 L 1542.1 329.4 L 1538.9 331.3 L 1534.2 333.4 L 1527.6 335.7 L 1525.1 336.4 L 1524.7 338 L 1524.5 338.9 L 1522.5 340.3 L 1519.5 340.4 L 1515.8 340 L 1512.3 341 L 1507.2 342.1 L 1504.5 344.8 L 1505.7 347.7 L 1508.1 348.5 L 1510.8 348.8 L 1510.1 349.8 L 1506.4 351.7 L 1506 354.1 L 1505.8 355.1 L 1504.6 356.1 L 1502.8 357.4 L 1503.3 358.7 L 1502.8 359.6 L 1501.5 360.6 L 1501.5 362.2 L 1498.5 362.7 L 1492.4 363.2 L 1488.3 364.8 L 1487.2 367.2 L 1489.1 370.9 L 1493.5 373.7 L 1497.3 374.5 L 1498.9 375.2 L 1499.4 376.5 L 1500.9 378.6 L 1507.7 379.8 L 1517.8 377.6 L 1522.5 375.7 L 1529.1 373.3 L 1535.6 371.5 L 1536.2 372.9 L 1533.2 374.1 L 1528.1 375.4 L 1524.3 378.9 L 1519.1 381.5 L 1515.5 383 L 1515.6 385.2 L 1517.5 387.6 L 1519.5 388.6 L 1520.7 389.5 L 1521.6 391 L 1521.5 392.4 L 1520.5 392.3 L 1519.2 391.3 L 1517.9 391.1 L 1514.4 388 L 1511.9 387.3 L 1510.5 388.5 L 1509.7 391.7 L 1509.4 395.9 L 1510.3 398.8 L 1516.6 400 L 1529 400.2 L 1541.7 400.7 L 1542.6 401.8 L 1540.5 403 L 1526.4 402.6 L 1519.4 404 L 1517.1 406 L 1516 408.6 L 1510.6 409.2 L 1499 408.8 L 1497.4 407.1 L 1503.9 407.7 L 1512.3 407.7 L 1515 406.5 L 1515 405.3 L 1511.1 403.9 L 1506.6 402.5 L 1507.3 401.7 L 1505.2 398.7 L 1501.6 394.3 L 1502 390.1 L 1503.1 387.2 L 1502.3 385.7 L 1499.5 382.8 L 1493.5 378.9 L 1489.8 376.5 L 1485.9 375.5 L 1482.7 373.8 L 1482.7 373.8 L 1482.7 373.8 Z" />
<path class="lake" d="M 334.8 843.4 L 334.8 843.4 L 334.8 843.4 L 334.8 843.4 L 337.6 842.4 L 338.7 844.9 L 341 847.7 L 342.2 849.6 L 341.7 850.7 L 338.8 850.4 L 331.8 847.6 L 327.2 842.9 L 330.2 842.9 L 334.8 843.4 Z" />
<path class="country" d="M 827.7 455.3 L 842.5 456.9 L 852.4 447.9 L 864.4 449.9 L 905.3 446.1 L 930.5 468.4 L 920.7 476.4 L 924 488.7 L 955.4 490.6 L 969.4 507.7 L 968.6 515.4 L 1018.7 529.3 L 1049 523.1 L 1073.3 541.5 L 1096.4 541.1 L 1154.5 554 L 1155 565.5 L 1139 586.2 L 1147.7 608 L 1141.5 621.1 L 1103.3 624 L 1083 635 L 1081.7 652.5 L 1050.2 655.7 L 1024 668.5 L 987 670.5 L 953.1 685.3 L 955 706.4 L 949.1 705.2 L 944 697.4 L 931.3 695.8 L 903.2 687.4 L 892.8 697.1 L 887.4 692.9 L 826.1 682.9 L 823.4 668.2 L 786.8 673 L 772.2 694.8 L 741.6 723.9 L 723.7 717.1 L 705.2 723.5 L 687.6 716.2 L 697.5 711.9 L 704.4 698.4 L 715.2 685.8 L 712.4 678.8 L 720.7 675.6 L 724.5 681.1 L 747.8 682.2 L 758.2 679.3 L 750.9 675.3 L 753.7 669.4 L 739.9 659.4 L 734.2 642.9 L 719.8 636.4 L 722.6 623.1 L 704.8 612.5 L 688.6 611 L 659.5 598.7 L 633.3 602.6 L 623.9 608.4 L 607.2 608.4 L 597.3 617.6 L 568.2 621.4 L 554.7 627.5 L 536.4 617.8 L 511.1 617.7 L 486.7 613.3 L 469.7 621.8 L 466.9 611.2 L 445 600.5 L 452.7 584.6 L 463.6 574.3 L 472.3 576.6 L 462.1 558.9 L 497.9 526 L 517.5 521.5 L 521.7 510.4 L 501.9 475.9 L 520.7 474.4 L 542.4 463.7 L 572.9 462.8 L 612.8 465.9 L 656.8 475.4 L 687.9 476.2 L 702.7 481.9 L 717.5 475 L 727.9 484.2 L 763.5 482.3 L 779.2 486.2 L 781.7 466.3 L 793.9 457.6 L 827.7 455.3 Z" />

<path class="river" d="M 776.1 692 L 769.5 686.8 L 767.5 684.7 L 767.9 683.4" />
<path class="river" d="M 896.9 663.2 L 899.6 661.8 L 901.7 658.3 L 904.8 654.6 L 909.5 650.7 L 914.1 644.5 L 915 640.4 L 921.2 637.3 L 932.8 635.2 L 943.2 634.8 L 952.4 636 L 958 635.8 L 960 634 L 960.4 630.6 L 958.7 623.4 M 883.3 574 L 871.1 568.8 L 860 565.7 L 831.7 555.8 M 814.1 538.2 L 815.6 540.9 L 815.9 543.3 L 815.2 547.9 M 777.3 490.2 L 776.1 502.5 L 776.2 508.7 L 777.6 514.7" />
<path class="river" d="M 1235.1 632.8 L 1242.7 630.5 L 1249.8 627.8 L 1256.9 625.2 L 1263.6 623.5 L 1265.5 621.7 L 1267.3 618.7 L 1271.8 609.8 L 1275.4 605.5 L 1279.5 601.8 L 1288.3 595.8 L 1291 592.9 L 1290.8 591.4 L 1289.1 589.6 L 1288.5 588 L 1288.9 586.8 L 1290.8 584.7 L 1294.1 581.9 L 1297.4 580.5 L 1300.7 580.4 L 1303.5 579.7 L 1305.5 578.9 L 1306.6 577.3 L 1307.2 574.8 L 1309 572.3 L 1307.9 570.3 L 1305.9 569.6 L 1301.1 569.7 L 1299.7 569.5 L 1298.1 567.8 L 1297.8 564.7 L 1296.2 561.8 L 1293.9 558.5 L 1291.8 557.7" />
<path class="river" d="M 315.8 541.2 L 320.8 540.9" />
<path class="river" d="M 1375.3 529.4 L 1381.9 524.1 L 1382.1 520.2 L 1378 515.8 L 1375.9 512.7 L 1375.7 510.7 L 1378.4 508.9 L 1384 507.3 L 1387.8 505.7 L 1389.7 504 L 1390.3 501.7 L 1389.4 498.8 L 1387.3 496.2 L 1383.8 493.9 L 1382.1 491.3 L 1382.1 488.5 L 1383.4 486.1 L 1386 484 L 1387.4 482.1 L 1387.7 480.4 L 1389.8 478.8 L 1393.7 477.2 L 1397.2 474.5 L 1400.1 470.8 L 1403 469.3 L 1407.4 468.3 L 1410.9 469.1 L 1415.4 469.4 L 1419.1 469.2 M 1509.2 321.9 L 1518.2 331.7 L 1516.7 336.5 L 1507.8 339.5 L 1503 344.5 L 1502.1 351.4 L 1498.3 356.1 L 1491.6 358.5 L 1487.5 361.1 L 1486 363.8 L 1485.3 366.8 L 1485.5 370.3 L 1490.5 375.1 L 1500.3 381.3 L 1505.5 387.2 L 1506.1 393 L 1507.2 397 L 1508.8 399.2 L 1511 400.8 L 1515.2 401.7 L 1529.3 401.4 L 1542.6 401.8 M 1287.2 274.9 L 1283.7 272.5 L 1281.5 269.4 L 1279.3 264.5 L 1277.1 261.1 L 1274.9 259.1 L 1273.7 257.3 L 1273.4 255.9 L 1274.3 253.6 L 1277.2 249 L 1265.2 245.9 L 1259.3 245 L 1253.4 245.6 M 1039.4 271.8 L 1028.8 270.6 L 1023 271.9 L 1018.6 275.3 L 1014.5 276.1 L 1008.8 273.6 M 1063.5 250.6 L 1070.7 249.7 L 1076 247 L 1084.8 239.5 M 1204.8 242.6 L 1199.4 241.6 L 1195.2 238.8 L 1190.3 233.9 L 1186.9 231.1 L 1184.9 230.5 L 1179.7 230.9 L 1171.3 232.3 L 1163.4 234.6 L 1152.1 239.7 M 1090.1 221.9 L 1085.8 219.3 L 1085.5 216.7 L 1089 211.2 L 1100.7 218.1" />
<path class="river" d="M 649.4 769.5 L 669.2 760.6 L 675.6 755.8 L 675.8 751.6 L 675.3 748.5 L 673.5 745.6" />
<path class="river" d="M 745.7 725.2 L 743.5 723.1 L 740.2 720.9 L 733.7 718.9 L 726.6 719.6 L 718.9 722.8 L 713.6 724 L 710.9 723.2 L 709.2 723.3 L 708.6 724.2 L 708.7 725 L 709.6 725.5 L 709.5 726 L 708.4 726.3 L 709.2 726.9 L 713.2 728.4" />
<path class="river" d="M 713.2 728.4 L 720.8 731.5 L 723.6 732.2 L 724.7 732 L 725.9 732.3 L 728.7 735.2 L 731.6 736.7 L 734.4 736.7 L 737.3 737.5 L 741.7 738.8" />
<path class="river" d="M 713.2 728.4 L 744.6 729.5" />
<path class="river" d="M 252.5 614.7 L 263.3 621.6 L 269.4 624.6 L 274.4 626.2 L 289.5 626.5 L 313.5 625.5 L 315.2 624.6 L 323.3 624.3 L 326.1 624.8 L 327.3 625.8 L 328.1 627.7 L 328.1 628.6 L 326.2 634.8 L 325.6 637.6 L 324.4 640.3 L 321.6 642.2 L 319.6 646.3 L 318.7 650.6 L 320.4 653.3 L 320.7 655.3 L 320.9 656.6 L 320.8 661.1 L 321.1 664.3 L 322.6 666.8 L 321.9 669 L 319.1 670.9 L 318.3 672.9 L 319.5 675.2 L 320.1 679.3 L 320 685.3 L 317.7 690.1 L 313.3 693.6 L 312.5 695.5 L 313.8 698.6 L 316.9 702.5 L 319.1 705.2 L 321.2 709.6 L 320 711.8 L 321.4 713.5 L 325.4 714.7 L 325.8 715.2 L 324.6 715.7 L 323.6 717.1 L 323.4 719.7 L 326.9 722.2 L 334 724.5 L 342 725.9 L 350.8 726.3 L 355.9 726 L 357.3 724.9 L 359 725.3 L 361.1 727.1 L 364.5 728.1 L 369.1 728.4 L 372.7 729.6 L 373.9 730.5 L 375.1 731.6 L 376.1 734 L 375.6 736.7 L 376.6 739 L 379.3 740.9 L 382.5 741.7 L 386 741.5 L 387.8 742.3 L 387.7 743.9 L 389 745.7 L 391.6 747.6 L 398.7 747 L 416.4 742.3 L 422.8 743.8 L 425.7 745.1 L 427.3 746.9 L 431.4 748.1 L 438 748.7 L 442.7 750.5 L 445.3 753.6 L 449.6 752.8 L 455.5 748.3 L 461.3 747.1 L 467 749.3 L 470.1 751.1 L 470.6 752.5 L 469.3 753 L 466.1 752.8 L 463.5 753.6 L 461.4 755.6 L 461.1 757.8 L 462.6 760 L 464.6 761.6 L 467.2 762.5 L 468.6 763.6 L 468.8 765.1 L 472.2 767.2 L 478.9 769.9 L 482.2 771.9 L 482 773.1 L 480.5 774.3 L 477.6 775.4 L 475.9 777 L 475.4 778.9 L 475.9 780.3 L 477.9 781.5 L 489.9 779.9 L 502.2 780.7 L 518.6 783.4 L 529.5 784.3 L 537.5 783.1 L 566.3 787.3 L 579.6 787.9 L 587.1 786.3 L 592.3 784.1 L 596.8 780.1 L 608 774.7 L 618.7 771.6 L 632.9 769.2 L 642.3 768.3 L 647.6 769.3 L 649.4 769.5 L 652.2 769.7 L 655.2 769.5 L 662.3 767.9 L 672.8 764.6 L 679.2 761.4 L 681.5 758.4 L 681.6 756.2 L 679.6 754.7 L 678.9 752.9 L 679.3 750.9 L 678 748.8 L 674.7 746.6 L 673.5 745.6 L 672.4 744.6 L 671.7 743.6 L 671.7 742.2 L 672.9 740.8 L 674.2 736.8 L 675.4 730 L 677 724.9 L 678.8 721.4 L 681.5 719.1 L 686.7 717.7 L 690.9 721.8 L 696.2 724 L 708.4 726.3" />
<path class="river" d="M 839.2 265.7 L 838.6 266.9 L 840 267.5 L 843.1 268 L 845.7 269.1 L 848.7 271.9 L 846.9 277.4 L 845.4 279.7 L 843.4 280.5 L 841.5 282.6 L 839.6 285.9 L 839 289 L 839.8 292 L 838.8 293.8 L 836.2 294.5 L 835.2 295.8 L 835.6 297.7 L 831.3 298.8 L 822 298.9 L 815.6 299.9 L 812.1 301.9 L 811.7 305.9 L 814.4 311.8 L 813.1 315.1 L 807.7 315.7 L 803.5 317.2 L 798.9 320.8 L 782.6 323.7 L 773.4 326.4 L 765.7 329.7 L 763.9 331.7 L 763.1 333.3 L 760.7 333.7 L 754.3 332.9 L 750 332.9 L 747.7 333.6 L 746.4 334.6 L 746.3 335.9 L 744.9 336.4 L 742.3 336.1 L 739.7 336.7 L 737.2 338.2 L 735.7 338.1 L 735.1 336.5 L 733.8 335.7 L 731.8 335.7 L 730.3 334.8 L 729.2 333.1 L 725.8 330.8 L 720.1 328 L 717.8 325.9 L 717.5 324.8 L 714.6 323 L 706.9 320.3 L 698.2 318.6 L 688.6 318 L 681.8 316.5 L 677.8 314.1 L 675.5 311.7 L 675 309.5 L 673.7 308.7 L 672.6 308.6 L 669 309 L 662.7 309.5 L 657 309.2 L 652.7 308.1 L 639.5 305.5 L 631.4 305.1 L 623.9 306.2 L 618.7 305.5 L 615.8 302.9 L 613.8 299.9 L 612.9 296.7 L 611.1 294.4 L 608.4 293.2 L 606.7 291 L 606 288 L 602 285 L 594.7 282 L 590.7 279.7 L 590 277.9 L 588 277.4 L 584.6 278.3 L 581.1 278.2 L 577.5 277.1 L 574.1 277 L 570.9 277.9 L 566.9 278 L 562.1 277.3 L 555.7 275.1 L 547.7 271.3 L 540.5 268.8 L 534 267.6 L 529.2 266.2 L 526.2 264.6 L 524.1 262.6 L 522.7 259.4" />
<path class="river" d="M 904.6 306.5 L 907.9 308.3 L 908.2 309.3 L 906.7 310 L 907.3 310.8 L 910 311.6 L 910.8 312.8 L 909 315 L 905.9 318.5 L 903.3 319.4 L 900.2 319 L 898.7 321.3 L 898.9 326.2 L 898.1 329.6 L 896.3 331.4 L 894.3 335.2 L 891 344.2" />
<path class="river" d="M 776.1 692 L 776.7 692.5 M 475 567.1 L 484.3 559.5 L 496.4 555.8 L 505 555.4 L 514.3 557 L 521.3 558.7 L 526 560.5 L 529.5 563 L 531.6 566.2 L 534.8 568 L 538.9 568.3 L 544 570.5 L 549.9 574.5 L 554.1 576.6 L 556.5 576.6 L 559.5 577.7 L 564.8 580.9 L 566.1 582.5 L 567.3 582.3 L 568.3 582.2 L 569.1 583 L 569.9 583.9 L 571.9 583.9 L 573.4 584.3 L 575.7 583.8 L 580.5 585.2 L 586.4 589.9 L 588.8 591.1 L 590.8 591.1 L 592.6 591.5 L 595.3 593.2 L 597.8 593.4 L 599.7 592.9 L 600.9 592.8 L 602.3 594.5 L 603.1 594.9 L 604.6 594.5 L 606.1 595.5 L 609.4 596.2 L 615.1 596 L 619.1 596.7 L 621.3 598.4 L 622.8 598.7 L 623.4 597.7 L 624.6 597.2 L 625.8 596.7 L 626.8 595.9 L 627.9 595.4 L 629.4 595 L 630.4 594.8 L 631.2 594.3 L 632.4 594.1 L 634.3 595.1 L 638.8 595 L 649.6 593.4 L 656 594.1 L 657.8 597 L 661.5 598.8 L 667.1 599.4 L 671.3 600.7 L 674 602.7 L 676.9 604 L 679.9 604.4 L 681.5 605.5 L 681.8 607 L 684.6 607.7 L 689.8 607.7 L 692 608.7 L 691.3 610.8 L 691.8 611.4 L 693.6 610.7 L 695 611.3 L 695.8 612.8 L 696.6 613.6 L 697.9 613.3 L 699.6 613 L 701 614.4 L 700.9 616 L 702.2 616.8 L 704.1 616.4 L 708.6 617.7 L 715.2 621.2 L 718.2 625.2 L 717.6 629.7 L 718.5 633.6 L 720.9 636.7 L 721.9 638.8 L 721.3 640 L 721.9 641.1 L 722.5 642 L 722.4 643.1 L 721.9 644.3 L 723.9 647.3 L 723.5 649.4 L 723 650.5 L 723.2 651.2 L 724.6 651.2 L 726.3 650.9 L 728.3 650.8 L 730.2 652 L 732 654 L 732 655.4 L 730.3 656.4 L 729.7 657.2 L 730.1 657.9 L 734.5 658.4 L 736.4 660.1 L 737.5 663.3 L 739 664.4 L 741 663.4 L 742.9 664 L 744.5 666.2 L 745 667.8 L 744.4 668.8 L 745.2 669.8 L 747.3 670.7 L 747.9 671.6 L 748.2 672.3 L 749.6 673.1 L 753.2 674.2 L 762.4 679.3 L 765.9 679.2 L 767.3 680.2 L 767.9 683.4" />
<path class="river" d="M 859 671.7 L 861.6 670.4 L 873 667.7 L 878.3 666.1 L 885 665.4 L 889.7 665 L 893.4 664.1 L 896.9 663.2 M 958.7 623.4 L 959.7 618.2 L 959.2 615.6 L 957.6 613.9 L 958 612.8 L 960.4 612.4 L 961.8 611.2 L 962.2 609.3 L 961.2 606.1 L 959 601.6 L 952.9 598.3 L 947.4 597.7 L 943 596.2 L 931.3 591.9 L 924 588.1 L 917.6 585.3 L 903.9 579.9 L 895.7 577.4 L 890 575.1 L 883.3 574 M 831.8 555.8 L 824 552.6 L 815 547.8 M 814.1 538.2 L 806.4 539 L 799.5 537.3 L 791 533.3 L 785.1 529.5 L 781.9 525.9 L 779.6 521.8 L 777.6 514.7 M 891 344.2 L 879.9 341.5 L 874.8 340.9 L 871.8 341.5 L 868.6 342.6 L 865.3 344.2 L 863.3 346 L 862.6 348 L 860.3 350.3 L 856.4 353 L 851.2 353 L 844.9 350.2 L 836.4 349.7 L 820.3 352.5 L 795.7 354.5 L 785.6 356.2 L 781.8 358.1 L 779 358.9 L 777.3 358.6 L 775.5 359.2 L 773.6 360.9 L 771.5 363.6 L 769.2 367.5 L 769.8 373.1 L 773.2 380.4 L 773.3 384.4 L 770 385.2 L 768.1 388.2 L 767.6 393.6 L 768.5 399.2 L 771.9 408.1 L 768.3 410 L 767.5 411.7 L 768.5 414 L 767.2 415.1 L 763.7 415 L 760.8 415.9 L 758.7 417.8 L 758.6 421.7 L 760.5 427.4 L 762.9 431.3 L 766 433.3 L 767.4 435.4 L 767.2 437.4 L 768.3 439.3 L 770.7 441.1 L 771.7 442.3 L 771.1 443.2 L 772.9 444.3 L 777.1 445.8 L 778.8 447.2 L 778 448.6 L 780.3 451.5 L 785.8 456.2 L 788.7 459.5 L 789 461.5 L 787.8 463.5 L 784.8 465.4 L 781.9 468.5 L 779 472.8 L 778.9 477.3 L 781.4 481.9 L 781.4 485.7 L 777.3 490.2" />
<path class="river" d="M 1235.1 632.8 L 1231.3 634.5 L 1224.9 634.3 L 1221 633.3 L 1214.7 633 L 1207.3 633 L 1202.9 634.3 L 1198.5 635 L 1194.1 634.9 L 1191.6 634.2 L 1191 632.9 L 1190.1 632.5 L 1188.3 633.5 L 1175 637.2 L 1168.1 640.7 L 1163 645.4 L 1156.2 647.8 L 1147.8 648.1 L 1139.6 649.2 L 1127.3 652.2 L 1123.9 652.4 M 1291.8 557.7 L 1285.1 558.5 L 1282.6 559.7 L 1282.1 561.6 L 1280.1 563.2 L 1276.7 564.7 L 1273.9 564.9 L 1271.8 563.8 L 1270.8 562.7 L 1270.8 561.4 L 1268.5 560.2 L 1263.7 559.1 L 1262.2 557.3 L 1261.1 555.1 L 1259.6 554.7 L 1256.3 555.3 L 1248.3 554.8 L 1242.4 554 L 1231 553.6 L 1224.1 554.1 L 1219.4 553.4 L 1209.7 553.5 L 1206.2 554.5 L 1203.6 554.5 L 1201.9 553.6 L 1201.6 552.8 L 1202.6 552.1 L 1202.3 550.7 L 1200.5 548.7 L 1196.8 547.3 L 1191.1 546.5 L 1188.2 545 L 1187.9 543 L 1186.9 541.3 L 1185.3 539.9 L 1182.5 539.6 L 1178.5 540.4 L 1177.2 540.1 L 1176.3 539.1 L 1175.3 537.2 L 1171.6 533.5 L 1168.8 532.7 L 1167 534.9 L 1164.5 535.6 L 1159.6 534.4 L 1153.4 534.1 L 1151.9 533 L 1153 530.9 L 1152.9 528.8 L 1151.4 526.8 L 1151.9 524.6 L 1154.3 522.1 L 1153.2 519.5 L 1148.7 516.6 L 1148.1 513.9 L 1147.1 512.6 L 1143.7 510.9 L 1142.2 509.3 L 1142.7 507.7 L 1143.7 506.8 L 1144.5 505.3 L 1143.5 503.7 L 1142.9 502 L 1143 500.6 L 1141.7 500.3 L 1139.1 500.6 L 1132.6 500.3 L 1122.9 499.3 L 1118 497.8 L 1118 496 L 1119.5 494.4 L 1122.5 493.1 L 1122.7 491.9 L 1120.2 490.7 L 1119.3 489.4 L 1118.7 487.2 L 1117.5 484.4 L 1114.4 481.8 L 1114.4 479.9 L 1114.7 478.8 L 1113.8 477.5 L 1113.1 476.4 L 1112.8 475.2 L 1113.9 474.1 L 1114.2 472.8 L 1113.7 471.5 L 1114.7 468.9 L 1117.2 464.9 L 1117.9 461.9 L 1117.6 458.8 M 1117.6 458.6 L 1118.3 457.3 L 1118.8 456 L 1118.4 454.4 L 1116.2 452.2 L 1112 449.5 L 1110.7 447.9 L 1110.7 446.4 L 1108.6 442 L 1109.6 436.6 L 1109.7 433.1 L 1108.8 431.6 L 1111 428 L 1116 422.3 L 1118.5 415.2 L 1118.3 406.7 L 1116.8 402.2 L 1114.6 399.4 L 1113.2 397.7 L 1112.3 397.1 L 1107.3 395.5 L 1098.2 392.8 L 1093.9 390.1 L 1094.3 387.5 L 1093.8 385.9 L 1091.8 384.8 L 1085 377.9" />
<path class="river" d="M -102.1 615.3 L -91.4 619.9 L -83.3 619.6 L -77.8 618.1 L -72.1 615 L -66.1 613.7 L -59.6 614.1 L -54.7 612.5 L -51.2 609.1 L -48.1 607.5 L -45.2 607.6 L -40.4 605.7 L -33.5 601.8 L -26.8 599.3 L -20.4 598.1 L -16.6 596.8 L -15.5 595.3 L -11.2 593.2 L -3.8 590.3 L 8.6 588.1 L 34.6 585.8 L 37.8 582.8 L 41.2 581.4 L 45.7 580.6 L 48 579.3 L 48.4 576.6 L 56.6 577 L 61.3 578 L 67.1 580.7 M 252.5 614.7 L 250.9 612.5 L 248.7 611.3 L 245.5 610.5 L 239.5 610.3 L 230.9 610.8 L 224.1 608.7 L 219.1 604.2 L 213.2 602.1 L 206.2 602.6 L 199.4 602.2 L 192.8 600.9 L 188 600.4 L 185.3 600.7 L 182.4 602.5 L 179.6 605.8 L 175.9 608.1 L 171.2 609.3 L 166.8 609.3 L 162.7 608.2 L 158.7 608.2 L 154.6 609.3 L 149 608.5 L 141.8 605.6 L 135.6 604.2 L 130.5 604.1 L 127.4 603.2 L 126.5 601.4 L 120.9 598.9 L 105.7 594.2 L 99 593.4 L 94.4 592 L 89.7 589.9 L 86.7 587.6 L 85.4 585.3 L 82.9 584.2 L 79.3 584.2 L 74.9 583.2 L 67.1 580.4" />
<path class="river" d="M 119 653 L 140.5 650.8 L 146 648.3 L 150.4 647.7 L 155.6 648.1 L 159.9 646.9 L 163.3 644 L 167.9 641.9 L 171.2 640.8 L 173.7 640.7 L 177.4 641 L 179.1 642.9 L 179.3 644.1 L 178.2 644.7 L 177.9 646.6 L 178.4 649.7 L 179.7 651.8 L 181.7 652.8 L 184.2 656.7 L 187.5 663.2 L 188.4 665.8 L 190.3 667 L 193.1 667.5 L 206.6 669.9 L 213.2 673.5 L 217.6 674.9 L 221.8 675.3 L 227.4 676.9 L 234.4 679.6 L 239.3 682.6 L 242 686 L 245.6 688.6 L 250.2 690.5 L 253.9 693 L 256.6 696.2 L 260.4 698 L 265.2 698.3 L 268.3 699.4 L 269.6 701.2 L 272.2 702.8 L 276.2 704.3 L 282.4 705.1 L 295 705.3 L 305.5 710.8 L 311.9 712.9 L 321.4 713.5" />
<path class="river" d="M 188.4 510.9 L 189.7 514 L 191.2 515.5 L 193.3 516.4 L 194.4 517.6 L 194.5 519.1 L 196.3 520.8 L 199.5 522.7 L 200.3 523.5 L 200.5 525.3 L 198.8 527.5 L 197.8 530.5 L 197.7 534 L 192.2 536.2 L 181.2 537 L 174.7 536.8 L 171.7 535.2 L 168.9 532.2 L 164.2 531.2 L 156.7 531.1 L 150.9 529.5 L 144.6 524.7 L 141.3 520.9 L 139.1 520 L 136.9 520.8 L 135.5 520.3 L 134.7 518.6 L 133 517.7 L 130.3 517.7 L 128.4 517.1 L 127.5 515.8 L 127.5 515 L 128.5 514.5 L 128.6 513.8 L 128.7 512.9 L 129.3 512.1 L 132.3 511.1 L 134 508.6 L 134.3 504.6 L 131.4 502 L 125.1 500.7 L 121 499.1 L 119.2 497.1 L 115.9 495.7 L 111.1 494.6 L 107.1 493.2 L 104 491.3 L 102.2 489.5 L 101.7 487.8 L 100.1 486.4 L 97.4 485.4 L 95.5 483.7 L 93.8 480.1 M 94.1 480.1 L 83.9 474.2 L 80.3 470.7 L 79.8 467.6 L 76.3 465.5 L 70 464.4 L 62.1 464 L 52.9 464.3 L 46.9 462.9 L 44.1 459.9 L 40.9 458.1 L 37.2 457.5 L 34.9 456.5 L 34 455 L 34 453.2 L 34.9 451 L 37.5 448.5 L 43.8 444.4 L 46.2 442 L 47.2 437.1 L 47.6 428.9 L 43.9 423.1 L 36.2 419.6 L 29.5 417.7 L 24 417.4 L 19.3 416.2 L 15.6 414.1 L 13.1 413.3 L 11.8 413.9 L 7.4 412 L -0.1 407.5 L -4.9 405.3 L -8.1 405.2 L -15.5 403.4 L -19.8 403.1 L -23.4 403.6 L -28.6 402.5 M -28.6 402.5 L -39 398.5 L -40.4 398 L -35.8 398.1 L -32.3 398.6 L -30 399.5 L -28.6 402.5" />
<path class="river" d="M 320.1 685.5 L 319.7 698 L 319.5 698.7 L 319.1 701.3 L 316.9 702.5" />
<path class="river" d="M 268.7 548.5 L 277.8 551.9 L 281.7 552.5 L 284.4 551.2 L 289.4 548.9 L 292.7 546.3 L 295.9 542.7 L 296.3 539.3 L 293.8 536 L 292.9 532.8 L 293.7 529.5 L 291.1 525.5 L 285.1 520.8 L 282.2 517.2 L 282.4 514.8 L 281.4 512.3 L 279.1 509.7 L 274.4 507.4 L 262.1 503.4 L 258.6 501.6 L 256.2 499.8 L 254.9 497.9 L 252 496.1 L 244.9 493.6 L 239.2 489.7 L 234 488.8 L 227.5 489.4 L 223.6 489.1 L 222.3 487.8 L 222.2 486.3 L 223.3 484.8 L 223.6 482.1 L 223.1 478.3 L 221 475.3 L 217.1 473 L 213.7 472 L 210.6 472.4 L 205.7 471.5 L 198.8 469.4 L 195.8 466.8 L 196.5 463.5 L 195.3 460.8 L 192.4 458.9 L 182.2 457.5 L 156 456.3 L 153.8 455 L 153.3 453.4 L 153.8 451.1 L 152.8 449.4 L 150.3 448.3 L 148.6 446.9 L 147.9 445.1 L 148.5 442.3 L 150.4 438.5 L 146.3 433.8 L 136 428.4 L 131.1 424.7 L 131.5 422.5 L 133.6 420.5 L 137.6 418.8 L 140.5 415.7 L 143.6 409 L 148.9 402.3 L 150.4 399.1 L 150.1 396.8 L 149 394.6" />
<path class="river" d="M 325.6 637.6 L 326.9 639.3 L 327.1 640.1 L 327 641 L 325.3 642.6 L 322.2 645.7 L 321.2 648.7 L 322.2 650.9 L 322.3 652.6 L 320.7 655.3" />
<path class="river" d="M 369.8 685.7 L 366.1 689.5 L 365.3 690.6 L 365.3 691.4 L 365.8 693 L 365.6 694.1 L 365.1 694.9 L 365.9 696 L 366.8 697.2 L 367.6 699.1 L 367.5 700.4 L 366.6 701 L 366.9 702.6 L 368.2 704.8 L 368.1 706.2 L 367 706.9 L 366.1 708.3 L 365.5 710.6 L 366.8 713.3 L 370.1 716.4 L 371.5 718.5 L 371 719.4 L 371.8 721.7 L 374.1 725.4 L 374.9 727.9 L 373.9 730.5" />
<path class="river" d="M 415.8 616.1 L 409.3 616.9 L 406.3 619.3 L 404.4 623.6 L 397.1 629.4 L 384.2 636.5 L 378.5 641.5 L 379.8 644.5 L 379.5 645.9 L 377.6 645.8 L 374.8 647.1 L 371.1 649.6 L 369.6 651.9 L 370.2 654 L 371.3 655.1 L 370.3 656.2 L 368.8 657.4 L 368.4 659 L 367.6 660.1 L 365.3 661.6 L 365.9 664 L 369.2 667.5 L 370.3 670.3 L 368.9 672.5 L 369.1 676.3 L 370.9 681.8 L 371.3 684.9 L 369.8 685.7 M 530.6 604.4 L 533.9 605.5 L 533.7 607.9 L 529.8 613.9 L 527.2 618.9 L 520.6 619.7 L 509.1 617.8 L 499.9 615.2 L 493.2 611.8 L 486.8 611 L 480.9 613 L 476.5 613.5 L 473.8 612.7 L 469.3 612.9 L 463.1 614 L 458.2 613.4 L 454.5 610.9 L 452.5 607.5 L 452.4 603.3 L 451.6 601.1 L 450.3 600.8 L 446.9 602.4 L 441.5 605.9 L 436.5 608.4 L 431.8 609.8 L 427.3 610.4 L 423.1 610.2 L 420.5 611.4 L 419.7 613.9 L 418.3 615.4 L 415.5 616.1" />
<path class="river" d="M 318.5 552.3 L 314.9 545.4 L 314.2 542.6 L 315.8 541.2 M 320.8 540.9 L 325.9 540.1 L 328.8 538.7 L 331.1 536.6 L 337 536.4 L 346.4 538.2 L 356.9 538 L 374.2 534.4 L 383.3 532.8 L 388.2 530.8 L 391.8 527.9 L 397.6 526.1 L 405.4 525.3 L 413.6 523 L 422.1 519.1 L 428.6 515.1 L 433.1 511 L 434.7 504.8 L 433.3 496.5 L 433.1 491.3 L 433.9 489.3 L 435.9 487.4 L 439.1 485.5 L 440.1 483.5 L 439 481.3 L 437.6 480.1 L 435.9 479.9 L 434.9 479 L 434.7 477.4 L 431 475.4 L 424 473.2 L 420 471 L 419.1 468.7 L 416.8 466.4 L 413.1 464.1 L 411.7 462.5 L 412.6 461.5 L 412.4 459.6 L 410.9 456.6 L 407.1 452.6 L 401.1 447.4 L 395.9 444.2 L 391.5 442.9 L 383.4 442.8 L 371.5 443.9 L 361.3 442.7 L 348.5 437.6 L 331.2 433.9 L 321.6 429.3 L 314 422.7 L 305 418.3 L 294.6 416.3 L 291.7 413 L 296.2 408.3 L 302.1 404.8 L 309.3 402.3 L 313 399.4 L 313.2 395.8 L 314.5 393.3 L 316.8 391.6 L 318.2 389.2 L 318.7 386 L 318.2 382.5 L 316.9 378.7 L 317.5 375.3 L 319.9 372.3 L 321.3 369.7 L 322.3 366.6" />
<path class="river" d="M 1461.2 667 L 1471.9 669.1 L 1476.1 672.2 L 1477.3 677 L 1479.8 680.2 L 1483.7 682 L 1487.2 685.3 L 1494.4 692.6 M 1375.3 529.4 L 1368.4 533.4 L 1365.4 536 L 1364 538.6 L 1363.3 541.5 L 1363.3 544.9 L 1361.1 548.6 L 1356.9 552.7 L 1353.3 557.4 L 1351 561.6 L 1349.5 563.8 L 1348.9 565.3 L 1348.7 566.1 L 1348.6 567.4 L 1348.1 570 L 1342.8 577.2 L 1332.8 588.4 L 1331.1 590.9 L 1330.4 593.5 L 1333.1 595.6 L 1343.7 598.8 L 1350.8 600 L 1354.2 599.3 L 1358.1 599.5 L 1362.4 600.6 L 1365.3 600.4 L 1366.8 598.9 L 1371.1 599.3 L 1378 601.4 L 1380.6 602 L 1381.9 602.6 L 1383.2 603.2 L 1384.9 604.4 L 1391.6 608.5 L 1394.7 612.8 L 1394.3 617.4 L 1396.2 620.4 L 1400.2 621.8 L 1402.4 623.3 L 1402.7 624.9 L 1404.7 626.1 L 1408.2 626.8 L 1412.9 630 L 1418.7 635.9 L 1423.1 639 L 1425.9 639.6 L 1428.3 640.7 L 1430.2 642.4 L 1431.2 644.1 L 1431.4 646.6 L 1431.4 648.1 L 1436.4 650.9 L 1446.3 655.4 L 1451.1 658.9 L 1450.7 661.2 L 1452.1 662.3 L 1455.2 662.3 L 1459.6 665.5 L 1465.2 672 L 1467.5 676.1 L 1466.7 677.7 L 1466.7 679.5 L 1467.4 681.4 L 1464.2 686.2 L 1457 693.8 L 1453.3 698.8 L 1453.1 701.3 L 1452.1 702.6 L 1450.8 703.4 L 1450.1 704.3 L 1450.2 705.5 L 1451.2 706.4 L 1452.9 708.1 L 1453.6 709.6 M 1542.6 401.8 L 1548 401.9 L 1550.6 403.9 L 1552.2 407.8 L 1551.4 410.6 L 1548.3 412.2 L 1544.7 412.5 L 1540.7 411.4 L 1535.2 411.8 L 1528.3 413.7 L 1523.8 413.8 L 1521.6 412.2 L 1517.5 411.2 L 1511.6 410.8 L 1503.7 411.6 L 1493.8 413.7 L 1488.1 415.7 L 1486.8 417.6 L 1487.3 420 L 1489.6 423.1 L 1487.4 427.1 L 1480.6 432.2 L 1474.5 439.3 L 1468.8 448.6 L 1463.5 454.4 L 1458.6 456.7 L 1453.4 457.6 L 1448 457.1 L 1438.8 460.1 L 1432.5 462.5 L 1426.8 466 L 1421.8 468.3 L 1419.1 469.2 M 1287.2 274.9 L 1296.1 281.9 L 1303.2 285.6 L 1311.5 288.2 L 1316.2 290.7 L 1317.4 293.1 L 1319.8 294.4 L 1323.4 294.7 L 1327.4 295.9 L 1332 298.1 L 1340.3 298.2 L 1352.3 296.3 L 1360.2 296.1 L 1363.8 297.5 L 1366.6 297.4 L 1368.4 295.8 L 1371.2 295.2 L 1374.9 295.5 L 1378.2 294.9 L 1380.9 293.6 L 1383.5 293.6 L 1386 295.2 L 1389.5 294.7 L 1394 292.3 L 1400.1 290.2 L 1408 288.2 L 1415.4 289.3 L 1422.3 293.4 L 1434.5 295.5 L 1460.7 295.7 L 1463 296.7 L 1464.6 298.6 L 1466.3 301.8 L 1470.1 304.4 L 1475.8 306.5 L 1485.6 308.4 L 1499.4 310 L 1507 313.6 L 1509.2 321.9 M 1039.3 271.8 L 1048.9 267.5 L 1052.3 264.6 L 1052.6 261.7 L 1055.5 257.8 L 1063.5 250.6 M 859.8 252.2 L 863 258.9 L 862.8 261.7 L 863.5 263.1 L 864.9 264.2 L 869.7 264.7 L 877.9 264.7 L 886.8 266 L 896.5 268.8 L 902.3 271.3 L 904.1 273.6 L 907.8 276.2 L 913.4 279.2 L 914.3 281.4 L 910.6 282.8 L 908.9 283.9 L 909.4 284.8 L 917 287.4 L 931.8 291.8 L 941.5 293.3 L 946 291.7 L 949.1 290.1 L 950.7 288.2 L 950.9 286.9 L 949.8 286.3 L 950.2 285.1 L 952.2 283.4 L 952.8 281.7 L 952 280 L 954.6 278.7 L 963.3 277.3 L 967.7 273.7 L 971.2 272.2 L 975.2 271.5 L 978.5 270.3 L 981.1 268.5 L 985 267.5 L 990.4 267.3 L 996.6 268.1 L 1003.7 270 L 1007.6 271.6 L 1008.8 273.6 M 1204.8 242.6 L 1219.5 244.4 L 1226.4 244.2 L 1230.3 242.7 L 1237.6 242.9 L 1253.4 245.6 M 1152.1 239.7 L 1146 235.6 L 1143.8 233.4 L 1143.5 231.7 L 1139.8 229.2 L 1132.8 226.1 L 1122.1 223 L 1100.7 218.1 M 1084.8 239.5 L 1090.5 232 L 1091.8 227.6 L 1090.1 221.9" />
<g class="city"><circle cx="1057.6561322167304" cy="311.1854640417347" r="5" /><text x="1069.6561322167304" y="315.1854640417347">Moscow</text></g>
<g class="city"><circle cx="102.29360821655526" cy="438.6387894625792" r="5" /><text x="114.29360821655526" y="442.6387894625792">Berlin</text></g>
<g class="city"><circle cx="777.5691772702925" cy="521.0386391779001" r="5" /><text x="789.5691772702925" y="525.0386391779001">Kyiv</text></g>
<g class="city"><circle cx="219.28125618742027" cy="609.1555589243591" r="5" /><text x="231.28125618742027" y="613.1555589243591">Vienna</text></g>
<g class="city"><circle cx="603.3089956138812" cy="757.768486463126" r="5" /><text x="615.3089956138812" y="761.768486463126">Bucharest</text></g>
<g class="city"><circle cx="661.176865906489" cy="384.2635158823914" r="5" /><text x="673.176865906489" y="388.2635158823914">Minsk</text></g>
<g class="city"><circle cx="402.3782942222142" cy="450.1948454978034" r="5" /><text x="414.3782942222142" y="454.1948454978034">Warsaw</text></g>
<g class="city"><circle cx="326.46796467343114" cy="636.7744192181231" r="5" /><text x="338.46796467343114" y="640.7744192181231">Budapest</text></g>
<text class="map-title" x="80" y="105">Ukraine Physical Study Map</text>
<text class="map-subtitle" x="80" y="145">Landmark: Saint Sophia Cathedral | Study terrain and water systems</text>
  <text class="footer" x="80" y="1036">Made with Natural Earth. Free vector and raster map data @ naturalearthdata.com.</text>
</svg>
