<?xml version="1.0" encoding="UTF-8"?>
<svg xmlns="http://www.w3.org/2000/svg" width="1600" height="1100" viewBox="0 0 1600 1100" role="img" aria-labelledby="title desc">
  <title id="title">Uganda Physical Study Map</title>
  <desc id="desc">Made with Natural Earth. Free vector and raster map data @ naturalearthdata.com.</desc>
  <defs>
    <linearGradient id="terrain" x1="0" x2="1" y1="0" y2="1">
      <stop offset="0%" stop-color="#6c8c53" />
      <stop offset="42%" stop-color="#d5c487" />
      <stop offset="72%" stop-color="#b88b5f" />
      <stop offset="100%" stop-color="#f1f5ee" />
    </linearGradient>
    <filter id="softShadow" x="-10%" y="-10%" width="120%" height="120%">
      <feDropShadow dx="0" dy="10" stdDeviation="12" flood-color="#0f172a" flood-opacity="0.16" />
    </filter>
    <style>
      .neighbor { fill: #ffffff; stroke: #94a3b8; stroke-width: 1.2; opacity: 0.72; }
      .country { fill: url(#terrain); stroke: #1f2937; stroke-width: 4; filter: url(#softShadow); }
      .admin1 { fill: none; stroke: #64748b; stroke-width: 1.1; stroke-dasharray: 6 7; opacity: 0.75; }
      .river { fill: none; stroke: #1d9bd1; stroke-width: 3; stroke-linecap: round; opacity: 0.88; }
      .lake { fill: #8ed1ea; stroke: #0ea5e9; stroke-width: 1.5; opacity: 0.8; }
      .city circle { fill: #ef4444; stroke: #ffffff; stroke-width: 2; }
      .city text, .terrain-label { fill: #172033; font: 700 24px system-ui, sans-serif; paint-order: stroke; stroke: #ffffff; stroke-width: 5; stroke-linejoin: round; }
      .map-title { fill: #0f172a; font: 800 46px system-ui, sans-serif; }
      .map-subtitle { fill: #475569; font: 600 24px system-ui, sans-serif; }
      .footer { fill: #64748b; font: 500 18px system-ui, sans-serif; }
    </style>
  </defs>
  <rect width="100%" height="100%" fill="#d8edf0" />
  <rect x="40" y="40" width="1520" height="1020" rx="32" fill="#ffffff" opacity="0.54" />
  <path class="neighbor" d="M 929 775.1 L 942.6 784 L 1235.6 948.6 L 1241.1 995.5 L 1357.1 1076.3 L 1319.8 1175.8 L 1324.5 1221.6 L 1376.3 1251 L 1378.7 1272 L 1356.5 1320.8 L 1361.1 1345.4 L 1355.8 1384 L 1384 1434.6 L 1417.4 1514.3 L 1447.1 1532 L 1447.1 1532 L 1382.8 1578.8 L 1294.5 1610.2 L 1246 1608.9 L 1217.2 1633.1 L 1161 1635.2 L 1139.9 1645.4 L 1042.8 1622.6 L 982 1629.2 L 959.4 1519.3 L 932 1481.6 L 915.7 1459.3 L 836.5 1444.2 L 790.6 1419.9 L 739.3 1406.3 L 707.1 1392.8 L 673.3 1372.2 L 673.3 1372.2 L 629.7 1270.4 L 582.8 1225.2 L 566.7 1178.3 L 574.8 1136.3 L 560.2 1062 L 593.6 1058.1 L 622.9 1028.9 L 654.4 986.7 L 674.3 969.8 L 673.6 943.5 L 656.2 925.2 L 651.5 893.4 L 651.5 893.4 L 674.8 883.2 L 679.5 835.7 L 647.4 790.1 L 675.7 780.4 L 764.3 781.4 L 929 775.1 Z" />
<path class="neighbor" d="M 560.2 1062 L 574.8 1136.3 L 566.7 1178.3 L 582.8 1225.2 L 629.7 1270.4 L 673.3 1372.2 L 673.3 1372.2 L 641.5 1364 L 533 1377.7 L 511.3 1387.3 L 488.3 1438.9 L 506.4 1474.5 L 492 1570.2 L 482 1651.3 L 503.9 1665.7 L 560.3 1697.1 L 582.5 1682.4 L 589.3 1769.5 L 527.4 1768.9 L 494.2 1724.4 L 464.5 1690 L 402.6 1678.7 L 384.4 1636.3 L 335 1661.9 L 270.3 1650.6 L 243.3 1613.9 L 192 1606.4 L 154.2 1608.4 L 149.5 1583.3 L 121.7 1581.2 L 84.9 1576.5 L 34.8 1588.6 L -0.3 1586.6 L -20.3 1594 L -16 1497.9 L -42.9 1467.9 L -48.9 1418.2 L -37 1369.5 L -53.3 1338.3 L -54.8 1287.5 L -152.8 1288.2 L -145.8 1259.1 L -187 1259.4 L -191.4 1273.4 L -241.5 1276.5 L -261.8 1323.6 L -273.9 1343.8 L -318.5 1332.4 L -345.2 1343.8 L -398.6 1350.3 L -429.6 1308.1 L -448.1 1281.9 L -471.3 1233.5 L -491.2 1173.3 L -729.7 1172.2 L -758 1181.9 L -781.4 1180.4 L -814.8 1191.3 L -826.1 1166.2 L -805.5 1157.7 L -803 1122.4 L -789.8 1101.7 L -760.4 1084.7 L -739.2 1092.9 L -711.5 1062 L -667.5 1062.8 L -662.3 1085.7 L -632.2 1100 L -584.6 1049.3 L -537.5 1009.9 L -517.1 984 L -519.8 917.5 L -484.7 839 L -447.7 797.4 L -394.5 758.5 L -385.2 732.7 L -383.2 703.1 L -370.1 675 L -374.3 629.2 L -364.2 557.6 L -348.4 507.2 L -324.2 464 L -319.4 415.2 L -312.2 358.9 L -280.7 317.9 L -237.4 291.8 L -171 319.3 L -119.5 349.1 L -60.4 357.1 L -0.1 372.8 L 24 324 L 35.1 317.8 L 72 325.9 L 161.9 285.6 L 193.8 302.7 L 220 300.3 L 232.1 280.6 L 262.1 273.7 L 322.9 282.2 L 374.7 284.1 L 401.4 275.5 L 450.3 342.2 L 486.6 352 L 508.2 338.4 L 545.6 343.7 L 590.6 326.6 L 609.8 361.2 L 680.9 414.8 L 680.9 414.8 L 676 509.3 L 708.4 520.3 L 682.4 549 L 651.4 570.4 L 620.5 612.5 L 603.5 650.1 L 599 715 L 580.2 745.8 L 579.6 806.8 L 556.3 829.3 L 553.3 877.4 L 542.2 883.6 L 534.8 927.8 L 555.1 964.5 L 560.2 1062 Z" />
<path class="neighbor" d="M 1357.1 1076.3 L 1241.1 995.5 L 1235.6 948.6 L 942.6 784 L 929 775.1 L 928.1 689.5 L 951.3 656.8 L 991 603.3 L 1020.4 544.4 L 984.9 451.6 L 975.4 411.1 L 937.1 355 L 986.8 306.7 L 1041.6 253.5 L 1083.6 267.1 L 1083.6 312.4 L 1111.2 339 L 1167.4 339 L 1269.7 407.6 L 1295.2 408.4 L 1314.2 406.2 L 1332 415.5 L 1385.9 421.9 L 1409.8 388.2 L 1483.6 354.4 L 1516.2 381.7 L 1571.4 381.7 L 1500.8 473.4 L 1501.8 767.7 L 1549.6 834.4 L 1493 866.6 L 1473.1 900.4 L 1442.8 906.3 L 1431.3 963.2 L 1405.4 995.8 L 1389.6 1049.6 L 1357.1 1076.3 Z" />
<path class="neighbor" d="M 401.4 275.5 L 374.7 284.1 L 322.9 282.2 L 262.1 273.7 L 232.1 280.6 L 220 300.3 L 193.8 302.7 L 161.9 285.6 L 72 325.9 L 35.1 317.8 L 24 324 L -0.1 372.8 L -60.4 357.1 L -119.5 349.1 L -171 319.3 L -237.4 291.8 L -280.7 317.9 L -312.2 358.9 L -319.4 415.2 L -371.4 410.7 L -426.1 397.2 L -474.2 440 L -516.6 515.2 L -525.1 491.8 L -528.7 454.9 L -565.7 428.9 L -595.5 387.2 L -602.4 358.2 L -640.6 316 L -634.1 291.9 L -642.1 257.9 L -635.9 195.3 L -616.5 180.6 L -575.9 98.7 L -509 92.6 L -494.2 71.8 L -480.8 73.4 L -460.6 91.7 L -358.9 60.8 L -324.6 29.3 L -282.4 1 L -290.4 -27.4 L -267.6 -34.8 L -189.6 -29.8 L -113.6 -67.3 L -55.2 -155.4 L -14.2 -188.1 L 37 -201.9 L 46.1 -167.3 L 92.7 -116.8 L 93 -83.8 L 79.9 -50.2 L 85 -25.1 L 113.1 -1.8 L 174.6 33.5 L 218.8 66.1 L 219.6 92.4 L 273.9 134.5 L 307.6 169.4 L 328 217.9 L 388.4 249.9 L 401.4 275.5 Z" />
<path class="neighbor" d="M 651.5 893.4 L 656.2 925.2 L 673.6 943.5 L 674.3 969.8 L 654.4 986.7 L 622.9 1028.9 L 593.6 1058.1 L 560.2 1062 L 555.1 964.5 L 534.8 927.8 L 583.8 934.1 L 608.6 888.1 L 651.5 893.4 Z" />
<path class="neighbor" d="M 2050.9 51.8 L 1822.6 294.3 L 1717.3 297.8 L 1645.3 354.8 L 1593.5 356.3 L 1571.4 381.7 L 1516.2 381.7 L 1483.6 354.4 L 1409.8 388.2 L 1385.9 421.9 L 1332 415.5 L 1314.2 406.2 L 1295.2 408.4 L 1269.7 407.6 L 1167.4 339 L 1111.2 339 L 1083.6 312.4 L 1083.6 267.1 L 1041.6 253.5 L 993.9 165.6 L 957 146.8 L 942.8 114.5 L 901.9 75.2 L 852.2 69.4 L 879.8 23.3 L 922.6 21.4 L 934.7 -3.3 L 933.6 -76 L 957.5 -160.5 L 995.8 -183.1 L 1003.9 -216.2 L 1038.6 -277.9 L 1087.3 -317.9 L 1120.2 -397.5 L 1133 -466.9 L 1227.1 -450 L 1252.3 -510.3 L 1301.4 -473.6 L 1348.8 -492.6 L 1368.2 -475.7 L 1423.6 -474.8 L 1494 -442.4 L 1514.9 -414.5 L 1550.7 -388.5 L 1583.9 -341.2 L 1611.5 -315 L 1583.1 -279.3 L 1555.8 -241.4 L 1562.1 -219.1 L 1563.4 -194.5 L 1608.5 -193.2 L 1628 -198.9 L 1645.9 -184.5 L 1628.3 -155.9 L 1658.1 -111.4 L 1687.9 -72.5 L 1718.8 -43.6 L 1982.9 52.3 L 2050.9 51.8 Z" />
<path class="neighbor" d="M 647.4 790.1 L 679.5 835.7 L 674.8 883.2 L 651.5 893.4 L 651.5 893.4 L 608.6 888.1 L 583.8 934.1 L 534.8 927.8 L 542.2 883.6 L 553.3 877.4 L 556.3 829.3 L 579.6 806.8 L 599.1 815 L 647.4 790.1 Z" />
<path class="neighbor" d="M 680.9 414.8 L 609.8 361.2 L 590.6 326.6 L 545.6 343.7 L 508.2 338.4 L 486.6 352 L 450.3 342.2 L 401.4 275.5 L 388.4 249.9 L 328 217.9 L 307.6 169.4 L 273.9 134.5 L 219.6 92.4 L 218.8 66.1 L 174.6 33.5 L 119.6 1.9 L 144.4 -6.9 L 172.2 -22.1 L 193 -94.3 L 215.2 -131.7 L 273.4 -142.8 L 287.3 -120.6 L 328.9 -73.5 L 351.1 -66.5 L 380.2 -80.4 L 438.5 -77.6 L 449.6 -61 L 530 -61 L 532.8 -77.6 L 574.4 -92.9 L 582.8 -116.5 L 613.3 -133.1 L 681.2 -85.9 L 722.8 -94.3 L 763.1 -152.5 L 807.5 -196.9 L 800.5 -245.5 L 781.1 -269 L 829.7 -273.2 L 835.2 -291.2 L 872.7 -285.7 L 862.9 -226 L 872.7 -167.8 L 914.3 -135.9 L 924 -108.1 L 922.6 -67.9 L 933.8 -66.3 L 934.7 -3.3 L 922.6 21.4 L 879.8 23.3 L 852.2 69.4 L 901.9 75.2 L 942.8 114.5 L 957 146.8 L 993.9 165.6 L 1041.6 253.5 L 986.8 306.7 L 937.1 355 L 887.4 392.2 L 830.6 392 L 765.6 410.9 L 714.2 392.8 L 680.9 414.8 Z" />
<path class="lake" d="M 732.4 505.6 L 726.3 514.1 L 725.4 515.7 L 725.6 520.6 L 726.6 545.2 L 725.6 548.3 L 724.1 550 L 722.1 550.2 L 720.4 552.7 L 718.9 557.6 L 716 562 L 707.7 568.7 L 704.8 570.1 L 697.6 572 L 695.5 573.4 L 691.8 575 L 685.7 581.4 L 677 592.6 L 672.3 599.5 L 671.6 602.1 L 661.5 614.3 L 659.5 615.3 L 657.1 615.8 L 654.5 614.3 L 654 613.6 L 654.3 607.8 L 653.3 603.6 L 653.3 601.2 L 654.1 600.5 L 653.5 599 L 652.1 598.3 L 651.4 596.8 L 649.9 596.6 L 647 597 L 645.8 596.9 L 644.8 593.6 L 649.2 586.7 L 652.3 579.9 L 656.3 574.6 L 661.3 570.8 L 668 563 L 671.3 560.8 L 683.7 548.2 L 689.1 543.6 L 692.9 542.3 L 708.8 530.9 L 715.3 524.4 L 718.8 518.5 L 722.2 513.3 L 729.2 505.4 L 732.7 504.4 L 732.4 505.6 L 732.4 505.6 L 732.4 505.6 Z" />
<path class="lake" d="M 994.7 705.8 L 994.7 705.8 L 994.7 705.8 L 1002.4 720.7 L 1001.2 722.3 L 993.6 724.6 L 983.3 725 L 975.3 726.9 L 973.8 728.2 L 975.1 735.9 L 973.6 738.4 L 971.1 739 L 967.1 735.5 L 963.3 735.5 L 959 734.3 L 954.3 734.1 L 950.9 736.4 L 943.1 745.2 L 941.6 750.5 L 942.2 756.9 L 945.3 762.9 L 949.9 769.4 L 948.4 774.3 L 946.5 777.1 L 942.4 779 L 941.8 781.9 L 931.2 794.4 L 928.9 799.1 L 929.2 801.7 L 932.8 805.1 L 932 806.6 L 924.1 806.8 L 922.9 808.5 L 922.9 810.7 L 921.8 812 L 922.3 813.5 L 929.9 819.2 L 930.3 820.7 L 927.8 820.6 L 919.8 818.4 L 914.9 818 L 911.3 818.6 L 909.9 820.1 L 908.1 825.3 L 909.8 828 L 910.5 830.8 L 904.5 835 L 903.8 840.7 L 900.1 843.8 L 895.4 845.6 L 888.4 844.8 L 885.5 846.2 L 882.7 849 L 880 853.7 L 892.3 853.1 L 894.5 854.1 L 895.6 856.2 L 898 858.3 L 898.3 859.7 L 889.2 859.8 L 886.2 862.6 L 880.2 861.9 L 874.7 865.8 L 874.2 867.7 L 878.2 870 L 897.7 873.1 L 903.2 873.5 L 916.8 869 L 920.1 869.9 L 921.3 872.7 L 921.3 875.5 L 917.9 879.2 L 903.9 888.9 L 897.2 894.7 L 890.9 897.1 L 891.7 900.6 L 891.3 902.2 L 889.5 902.9 L 872.9 899.5 L 861.4 893.1 L 855.8 892.4 L 851.5 894 L 848.5 896.3 L 847.2 899.1 L 846.6 913.6 L 851.7 926.1 L 852.9 928.5 L 847.2 929.6 L 838.1 938.5 L 836.6 939.6 L 837.6 933.5 L 836.9 930 L 843.6 924.4 L 844.8 921.2 L 840.9 912.2 L 841.7 903.9 L 840.6 901.6 L 835.8 901.5 L 831.9 900.5 L 830.5 899.6 L 829.4 896.8 L 827.1 895.4 L 819.4 901 L 818.4 899.9 L 818.4 897.3 L 817.3 896.6 L 810.7 895.9 L 806.8 894.1 L 804 891.8 L 801 884.5 L 798 882.8 L 794.5 882.8 L 792.2 885 L 789.2 889.6 L 784.4 890.4 L 782.9 891.8 L 786.5 899.3 L 787.3 902.4 L 785.7 903.4 L 777.6 901.7 L 774 904.1 L 772.6 909.1 L 773.4 914.7 L 775.4 921.1 L 772.8 920.7 L 768.5 914.4 L 766.9 915 L 765.8 916.6 L 762.9 917 L 760.5 924.5 L 759.1 923.9 L 757.7 920.6 L 757.5 916 L 760.2 910.1 L 756.5 908.2 L 754.4 905.8 L 753.8 902.8 L 757.8 897.6 L 757.5 895.5 L 756.3 892.2 L 754 888.8 L 751 886.5 L 748.9 882.3 L 748.9 866.4 L 748 861.3 L 748 854.5 L 756 818.9 L 759.8 813 L 761.1 808.2 L 764.2 786.6 L 763.9 782.7 L 762.9 780.5 L 761.3 780.2 L 759.3 780.9 L 757.6 780 L 756.4 774 L 755.4 770.1 L 753.5 766 L 752.7 762.2 L 760.4 744.3 L 764.4 737.2 L 774.7 724.3 L 775.2 719 L 773.2 715.5 L 770.3 713 L 769.8 711.2 L 771.1 709 L 777.8 705.7 L 779.6 703 L 788 701.6 L 792 697.7 L 796 698.8 L 798.3 696.7 L 803.5 697.2 L 806.2 693 L 808.5 691.2 L 810.5 690.9 L 811.4 693.9 L 814.4 694.1 L 818.2 692.7 L 820.7 690.4 L 822.6 682.8 L 824.8 679.4 L 827.4 678 L 830.1 683.1 L 832.6 683.9 L 829.8 687.3 L 829.3 688.9 L 831 689.7 L 834.5 689.6 L 838.1 688.8 L 844 684.7 L 846.1 684.7 L 847.5 689.3 L 849.1 690.7 L 852.5 689.7 L 857.7 686.5 L 861.6 682.8 L 862.1 679.1 L 867 678 L 872.2 667 L 871.1 663.8 L 875.7 661.9 L 878 661 L 881.1 661.9 L 885.3 660.2 L 885.6 661.8 L 882.8 668.6 L 884.5 670.2 L 893.2 671.4 L 895.1 672.9 L 895.1 674.7 L 891.6 676.5 L 892.1 678.6 L 895 680.8 L 899 681.7 L 902.8 680.4 L 907.6 674.1 L 910.9 672.8 L 913.5 673.5 L 914.8 679.8 L 916.1 681.6 L 925.5 683.4 L 932.3 680.8 L 934.7 681.1 L 934.6 691.2 L 935.3 696.4 L 937 700.3 L 939.1 703.4 L 941.5 704.9 L 946 704.8 L 946.8 705.7 L 945.4 709.2 L 946.2 711.6 L 955 719.3 L 959.7 726.7 L 961.8 727.2 L 963.7 725.6 L 965.3 723.7 L 966.6 718 L 970.6 714.2 L 980.2 710 L 994.7 705.8 Z M 779.5 886.5 L 779.5 886.5 L 779.5 886.5 L 780 881.4 L 778.7 879.6 L 773.1 881.4 L 767 882.9 L 765.1 881.3 L 762.2 877.4 L 760.5 875.5 L 758.2 878.9 L 757.6 885.9 L 762.4 890.8 L 762.9 896.7 L 767 895.8 L 768.5 890.1 L 772.4 889.5 L 778.2 888.3 L 779.5 886.5 Z M 799.2 730 L 799.2 730 L 799.2 730 L 800.9 725.7 L 796.9 721.8 L 790.8 725.2 L 789.6 723.5 L 789.9 717.4 L 787.1 717.2 L 782.1 717.1 L 780.4 718.9 L 781.7 721.8 L 783.6 724.4 L 785.6 725.6 L 792 727.7 L 791.7 730.5 L 788.6 734.1 L 786.8 737.7 L 785.8 740.8 L 797.1 736.6 L 799.2 730 Z M 870.1 872.8 L 870.1 872.8 L 870.1 872.8 L 870.7 869.4 L 867.3 865.6 L 865.6 860.9 L 863.8 857.2 L 858.1 857.8 L 853.6 857.8 L 851.8 852 L 846.6 852.3 L 842.2 854.9 L 843.6 858.3 L 843.9 864.9 L 847.7 866.8 L 855 868.5 L 860.7 870.9 L 866 872.7 L 870.1 872.8 Z M 886 680.9 L 886 680.9 L 886 680.9 L 887.3 676.4 L 881.6 674.3 L 874 676 L 873.8 679.5 L 873.5 683 L 870.5 684.2 L 870.8 686.3 L 877.3 686.8 L 878 688.6 L 883.4 691.9 L 882.2 686.9 L 881.5 683.5 L 886 680.9 Z" />
<path class="lake" d="M 1153.6 493.3 L 1149.5 502.5 L 1144.5 504 L 1141.6 500.6 L 1132.6 477.4 L 1125.1 466.2 L 1117.9 458.8 L 1114.5 458.1 L 1110.7 452.9 L 1107.4 442.5 L 1101.4 434.6 L 1095.6 426.3 L 1093.3 417 L 1091.4 414.1 L 1088 407.7 L 1086 393.3 L 1086.8 385.2 L 1089.3 372.1 L 1091.8 353.3 L 1092.3 344.1 L 1094.3 330.5 L 1097.9 329.5 L 1102 331.6 L 1104.3 330.3 L 1106.2 324.8 L 1109 322.4 L 1110.9 322.4 L 1112.4 324.1 L 1114.2 340.4 L 1115.7 363.2 L 1115.5 370.9 L 1116.6 384.9 L 1116.2 417.8 L 1123.4 439.3 L 1132.8 455.1 L 1141.8 462.2 L 1151 467.4 L 1154.6 478.1 L 1153.6 493.3 L 1153.6 493.3 L 1153.6 493.3 L 1153.6 493.3 Z" />
<path class="lake" d="M 548.7 831.2 L 548.7 831.2 L 548.7 831.2 L 548.7 831.2 L 552.9 838.6 L 556.1 848.7 L 561.6 861.3 L 560.1 864.7 L 555.6 867.6 L 553.4 870.5 L 552.1 873.1 L 544.8 882.4 L 541.8 884.5 L 538.9 887.8 L 536.6 888.7 L 532.3 889.1 L 525.5 894.9 L 520.6 896.2 L 521.2 890 L 526 883.2 L 524.9 879.4 L 522.7 878.4 L 522.4 875.1 L 523 872.3 L 526 866.6 L 525.4 860.6 L 531.7 846.9 L 535.4 831.5 L 538.5 828.1 L 548.7 831.2 Z" />
<path class="lake" d="M 566.6 749.3 L 562.3 750.1 L 559.8 745 L 559.2 741.2 L 561.8 734.9 L 566.5 725.8 L 572.8 712.9 L 581 709.2 L 584.8 708.1 L 596 708.2 L 604.4 712.3 L 602.9 722.8 L 584.7 739.4 L 574 747.8 L 569.3 747.4 L 566.6 749.3 L 566.6 749.3 L 566.6 749.3 Z" />
<path class="lake" d="M 1077.7 992.2 L 1079.1 985.4 L 1081.5 979.6 L 1084 975.7 L 1086.1 974.4 L 1087.8 975 L 1088.8 977.3 L 1087.7 987.3 L 1085.2 997.4 L 1082.7 1000.3 L 1080.1 1002 L 1078.4 1001.4 L 1077.5 997.9 L 1077.7 992.2 L 1077.7 992.2 L 1077.7 992.2 L 1077.7 992.2 Z" />
<path class="lake" d="M 1264.4 166.9 L 1268.2 167.1 L 1271 167 L 1271.5 168.4 L 1270.4 171.7 L 1269.3 175.4 L 1268.5 177.3 L 1267 179.4 L 1264.6 182.9 L 1261.1 188.8 L 1255.4 197.3 L 1249.8 204.8 L 1247.2 207.7 L 1243.9 209.6 L 1238.8 212.5 L 1235.7 212.4 L 1235.3 210.1 L 1236.4 206.4 L 1239.3 202.6 L 1243 199.7 L 1245.9 198.4 L 1249 195.8 L 1250.8 192.3 L 1249.8 184.5 L 1248.9 176.8 L 1249.3 173.9 L 1254.7 169.3 L 1261.3 166 L 1264.4 166.9 L 1264.4 166.9 L 1264.4 166.9 L 1264.4 166.9 Z" />
<path class="lake" d="M 895.3 565.6 L 891.7 565.8 L 882.9 567.2 L 874.3 570.3 L 869 573.8 L 866.1 576.9 L 867.2 578.6 L 872.6 579 L 876.8 579.6 L 876.2 580.9 L 872.8 582.9 L 871.8 585.3 L 875.6 586.4 L 878.7 585.1 L 880.4 583.7 L 881.6 583.7 L 881.9 585.4 L 882.3 588.9 L 880.6 592.9 L 877.8 597.2 L 877 599.6 L 874.5 597 L 869.4 594.3 L 865.9 592.3 L 857.5 586.7 L 847.8 582.8 L 845.3 582.7 L 844.9 583.8 L 845.3 584.9 L 847.2 586.8 L 847.3 592.4 L 844.6 590.8 L 841.7 586.2 L 838.6 585.1 L 836.9 585.7 L 835.9 588.7 L 835.1 590.2 L 828.5 587.2 L 822 584.4 L 819.9 582.3 L 818.5 577.4 L 819.1 575.4 L 824.5 576.1 L 834.6 573.5 L 839.9 570.7 L 840 571.4 L 839.6 572.6 L 840.7 573.2 L 844.8 572.7 L 850.9 572.1 L 854.5 572.9 L 855.8 573.4 L 857.7 572.4 L 861.3 569 L 864.1 566.4 L 865.1 567.1 L 866.3 567.8 L 869.1 566 L 872.6 564.2 L 875.1 563.5 L 877.7 563.9 L 881 564.6 L 884.8 562.9 L 889.4 558.5 L 891.9 558.8 L 892.8 562.3 L 894 563.4 L 894.9 564.8 L 895.3 565.6 L 895.3 565.6 L 895.3 565.6 L 895.3 565.6 Z" />
<path class="lake" d="M 678.7 1391.5 L 678.1 1390.5 L 671 1387.9 L 668.6 1386.3 L 667.8 1385.4 L 666.4 1385.7 L 663.7 1388.7 L 658.4 1391.6 L 656.7 1391.5 L 658.8 1389.7 L 659.5 1388.2 L 659.4 1386.3 L 657.4 1385.5 L 653.5 1385.7 L 651.1 1385 L 649.7 1381.1 L 650.8 1375.7 L 652.2 1373.4 L 654.6 1371.6 L 657.9 1370 L 659.9 1366 L 660.4 1359.4 L 659.3 1354.1 L 656.5 1350 L 653.9 1347.4 L 651.4 1346.5 L 649.3 1344.5 L 645.5 1339 L 643.2 1336.9 L 637.3 1334.5 L 635.9 1332.5 L 635 1326 L 631.4 1318.1 L 630 1311.4 L 630.8 1309 L 630.3 1302.3 L 625.4 1288.1 L 620.8 1281.3 L 614.6 1275.7 L 607.7 1271.6 L 600.3 1269.1 L 593.5 1263.6 L 582.5 1249.6 L 576.1 1244.1 L 574 1241.3 L 571.5 1234.3 L 571.8 1226.6 L 571.2 1224.8 L 569.4 1224.9 L 568 1224.3 L 567 1222.9 L 557.9 1198.6 L 556.1 1197.4 L 554.5 1193.8 L 552.9 1192 L 550.1 1190.3 L 548.3 1186.2 L 547.6 1179.8 L 548.1 1176.3 L 550.1 1174.5 L 559.4 1166.9 L 560.2 1164.3 L 560.3 1162.7 L 559.6 1155.9 L 560.3 1153.7 L 562.7 1153.3 L 562.8 1152.2 L 551 1132.4 L 545.4 1121.4 L 542.2 1112.4 L 541 1106.7 L 541.8 1104.5 L 542 1079.3 L 542.8 1068.9 L 544.6 1064.3 L 546.4 1062.3 L 549.1 1062.9 L 549 1056.9 L 553.3 1029.7 L 552.5 1026.8 L 551.1 1027.3 L 550.4 1031.1 L 544.5 1048.6 L 543.5 1049.3 L 537.8 1047.2 L 537.4 1044.7 L 539.9 1041.4 L 540.8 1038.2 L 539.9 1035.2 L 539.7 1029 L 541.1 1013.1 L 542.2 1009.6 L 542.2 1006.7 L 541.1 1004.4 L 541.6 1001.4 L 543.9 997.6 L 544.6 990.6 L 543.9 980.4 L 544.2 973.7 L 545.5 970.6 L 546.9 968.8 L 548.6 968.1 L 556.9 969.5 L 559.6 972.3 L 559.5 978.1 L 559.8 994.3 L 560.7 1004.9 L 562.2 1010 L 567.8 1019.7 L 567.7 1021.6 L 575 1038 L 579.5 1045.8 L 583.6 1051.1 L 585.5 1055.5 L 584.6 1061.1 L 581.8 1085.3 L 582.3 1092.7 L 581.2 1094 L 581.9 1094.9 L 584.2 1095.4 L 588 1097.4 L 593.3 1101.1 L 596.7 1105.7 L 598.4 1111.2 L 598.7 1114.7 L 597.6 1116 L 597.4 1123.1 L 596.4 1123.7 L 595.2 1131 L 593.5 1135.1 L 594 1140.1 L 598.4 1145 L 602.7 1153.3 L 607.4 1164.7 L 609.6 1171.9 L 609.3 1175 L 606.8 1178.2 L 601.9 1181.5 L 598.8 1182.9 L 597.3 1182.3 L 595.4 1183.2 L 593.2 1185.6 L 591.6 1190.9 L 590.7 1199 L 591.1 1202.9 L 593.2 1206.4 L 599 1213.1 L 609 1221.9 L 609.5 1223.4 L 610.7 1223.6 L 615.4 1221.1 L 621.1 1220.1 L 624.6 1220.7 L 627 1222.2 L 628.3 1224.4 L 637.7 1232.9 L 642.3 1238.9 L 645.7 1246 L 650.3 1252.3 L 656.2 1257.7 L 659.1 1263.4 L 658.9 1269.3 L 657.5 1272.4 L 655.6 1272.6 L 654.9 1273.3 L 655.7 1277.3 L 660.1 1286.3 L 661.9 1294.3 L 661.1 1301.4 L 662.4 1307.8 L 665.7 1313.3 L 672.1 1320.6 L 680.2 1337.5 L 686.7 1347.8 L 687.3 1350.8 L 688.3 1352.7 L 690.9 1354.5 L 691.3 1356 L 690.2 1357.8 L 690.3 1360.1 L 691.4 1364 L 695.5 1369.3 L 702.6 1375.9 L 705.9 1381.2 L 705.5 1385.2 L 706.6 1389.3 L 709.2 1393.4 L 710.4 1397.4 L 709.6 1403.7 L 708.8 1404.7 L 707.7 1404.4 L 706.5 1402.9 L 705.1 1403.3 L 703.5 1405.7 L 701.1 1407.5 L 698 1408.7 L 696.1 1408.3 L 692 1405 L 678.7 1391.5 L 678.7 1391.5 L 678.7 1391.5 Z" />
<path class="country" d="M 929 775.1 L 764.3 781.4 L 675.7 780.4 L 647.4 790.1 L 599.1 815 L 579.6 806.8 L 580.2 745.8 L 599 715 L 603.5 650.1 L 620.5 612.5 L 651.4 570.4 L 682.4 549 L 708.4 520.3 L 676 509.3 L 680.9 414.8 L 680.9 414.8 L 714.2 392.8 L 765.6 410.9 L 830.6 392 L 887.4 392.2 L 937.1 355 L 975.4 411.1 L 984.9 451.6 L 1020.4 544.4 L 991 603.3 L 951.3 656.8 L 928.1 689.5 L 929 775.1 Z" />

<path class="river" d="M 724 521.2 L 723.1 516.2 L 725.3 512.1 L 732.7 504.4" />
<path class="river" d="M 569.3 747.4 L 581 709.2 M 724 521.2 L 707.2 543.1 L 689.7 562.4 L 652.2 598.3" />
<path class="river" d="M 871.1 663.8 L 876.9 667.8 L 874.7 674.6 L 866.4 685.6 L 857.4 702.6 L 847.6 725.7 L 835.3 742.5 L 820.4 753 L 798.8 762.2 L 756.4 774 M 819.1 575.4 L 824.8 580.9 L 830.5 583.1 L 838.1 583.5 L 842.6 584.9 L 847.3 592.4 M 794.6 563.8 L 813.5 573" />
<path class="river" d="M 776.4 406.4 L 769.9 413.3 L 765.9 414.9 L 762.1 413.5 L 757.7 413.7 L 752.8 415.7 L 744.7 426.6 L 733.5 446.5 L 727 460 L 725.2 467 L 725.7 471.8 L 728.3 474.6 L 729.4 478.7 L 728.8 484.2 L 730.7 489.3 L 734.9 494 L 736 498.3 L 732.7 504.4" />
<path class="river" d="M 776.4 406.4 L 751.8 379.7 L 741.8 367 L 738.3 359.5 L 736.1 348.8 L 735.3 335.1 L 736.8 326.2 L 740.4 322.2 L 745.7 309.2 L 752.5 287.4 L 756.6 270.2 L 758 257.6 L 758.1 246.8 L 756.9 237.6 L 754.4 229.6 L 748.7 219.3 L 731.5 184.8 L 720.9 166.6 L 706.3 146.6" />
<path class="river" d="M 706.3 146.6 L 688 134.2 L 675.7 120.5 L 663.4 101.3 L 657.7 90.7 L 658.8 88.8 L 657.9 85.8 L 654.9 81.7 L 654.6 76.8 L 656.8 71 L 654.6 61.7 L 647.9 49 L 643.1 41.9 L 640.1 40.6 L 639.6 33.6 L 641.6 21.1 L 640.9 12.8 L 637.5 8.9 L 636.5 4.3 L 637.8 -0.8 L 636.9 -4.9 L 633.6 -7.9 L 631.2 -14.1 L 629.7 -23.4 L 632.4 -32.3 L 639.1 -40.7 L 641.8 -47.9 L 640.5 -53.9 L 643.4 -60.7 L 650.7 -68.3 L 663.5 -71.7 L 681.9 -70.8 L 694.4 -68.7 L 704.4 -63.7" />
<path class="river" d="M 326 1366.7 L 343.2 1362.8 L 350.3 1360.4 L 353.1 1358.1 L 354.5 1354.8 L 354.5 1350.4 L 358.1 1345.6 L 365.3 1340.7 L 368.9 1336.7 L 369 1333.8 L 365.4 1328.9 L 358.1 1322.2 L 360.3 1306.7 L 371.9 1282.5 L 375.1 1263.3 L 369.9 1249 L 368 1236.8 L 369.5 1226.5 L 368.7 1217.3 L 365.6 1209 L 363.6 1197.1 L 362.7 1181.7 L 363.1 1168.4 L 365.5 1151.7 M 152.4 635.2 L 143.1 623.7 L 129.1 615.8 L 107.3 607.7 L 85.2 590 L 62.8 562.7 L 45.4 547 L 26.5 540.8 L 12.2 528.6 L -0.8 523.8 L -17.2 522.4 L -35.4 522.4 L -55.4 524 L -73.3 527.7 L -89.1 533.4 L -118.2 537.2 L -160.7 539 L -202.4 547.7 L -263.7 571.2 L -298.3 599.5 L -313.5 613.4 L -320.8 622.1 L -328.3 642.5 L -339.9 690.3 L -341.1 693.3 L -347.3 708.4 L -364.1 730 L -376 742.7 L -393 761 L -414.3 779.1 L -428.1 784.4 L -438.9 790.5 L -446.5 797.4 L -449 801.2 L -454.6 809.6 L -467.3 835.7 L -473.9 847.1 L -482.6 856.8 L -495.5 868.7 L -500.2 874.3 L -502.2 882.5 L -501.3 897.5 L -500.1 943.2 L -502.2 956.5 L -505.8 978.3 L -518.4 1002.7 L -527.9 1016.3 L -537.5 1020.4 L -549.9 1024.1 L -555.9 1028.7 L -559.6 1035.5 L -566.5 1041.4 L -576.8 1046.4 L -589.8 1058.8 L -605.5 1078.6 L -616.3 1089.9 L -622 1092.8 L -628 1093.1 L -634.2 1090.7 L -639.3 1090.4 L -645.5 1092.9 L -660.3 1095.3 L -668.5 1097.9 L -674.9 1101.6 L -678.9 1106.6 L -680.4 1112.8 L -684.2 1118.9 L -690.3 1124.9 L -692.8 1126.7 L -694.7 1126.8 L -697.3 1124.9 L -699.3 1124.9 L -700.7 1126.8 L -704.1 1127.4 L -709.7 1126.6 L -713.7 1127.9 L -716.2 1131.3 L -715.6 1135.8 L -712 1141.3 L -712.3 1143.8 L -714.4 1145.3 L -715.3 1148.9 L -714.5 1155.3 L -718.6 1162.4 L -727.8 1170.4 L -735.6 1173.6 L -745.1 1171.6 L -754.5 1172.3" />
<path class="river" d="M 580.7 939.5 L 599.5 944.6 L 605.5 948.1 L 605 951.8 L 606.2 953.7 L 609 953.7 L 611.6 955.7 L 615.2 961.4 L 612.8 966.2 L 612.8 968.6 L 614.4 970.3 L 622 966.3 L 635.7 956.6 L 645.1 947.9 L 650.3 940.1 L 651.5 934.3 L 648.6 930.6 L 647.8 926.6 L 649.2 922.1 L 656.4 914.9 L 669.4 904.8 L 676.1 897.4 L 676.5 892.6 L 678 889.3 L 680.5 887.3 L 682.6 881.4 L 684.4 871.6 L 683.4 863.5 L 679.7 857.4 L 678.7 847.9 L 680.4 835.2 L 679.2 824.7 L 675.1 816.2 L 671 811.2 L 664.6 808.9 L 654.6 796 L 651.5 789.8 L 652.1 785.9 L 655.5 784.2 L 661.9 784.8 L 667.9 783.3 L 673.5 779.8 L 678.9 778.8 L 684.2 780.3 L 689.6 784.2 L 695.3 790.7 L 704.4 795.3 L 717 798.1 L 727.4 798.5 L 735.7 796.4 L 740.7 791.9 L 742.3 785 L 746.5 779.6 L 756.4 774" />
<path class="river" d="M 643.5 509.9 L 649 483.2 L 642.9 470.1 L 636 465.9 L 626.4 466 L 614.2 462.1 L 599.4 454 L 587.6 449.5 L 578.9 448.4 L 573.9 443.9 L 572.7 435.9 L 568.3 431.7 L 560.8 431.5 L 552.5 425.2 L 543.7 412.7 L 535.4 407.7 L 527.7 410.1 L 517.7 410.4 L 499.3 407.8" />
<path class="river" d="M 365.5 1151.7 L 371.4 1132.9 L 372.3 1125.5 L 370.2 1123.1 L 367.8 1112.3 L 365.3 1093.1 L 361.4 1080.7 L 356.1 1075 L 343 1066 L 322.2 1053.7 L 306.4 1041.8 L 295.6 1030.5 L 291.3 1018.2 L 293.6 1005.1 L 291.4 993.3 L 284.7 982.7 L 282.6 970.1 L 285.1 955.3 L 286.2 942.6 L 285.9 931.9 L 284.4 924.9 L 280.3 920.2 M 280.3 920.8 L 273.2 896.9 L 273 869.1 L 277.2 829.5 L 275.6 802.3 L 264.6 780.2 L 252.7 764.3 L 247.1 753.5 L 243.8 742.4 L 245.4 729.6 L 252 714.9 L 254.3 701.3 L 252.3 688.6 L 249.1 679.4 L 242.6 670.5 L 230.2 661.3 L 220.6 657.4 L 204.2 654.9 L 192.6 651.8 L 184.5 647.6 L 176 641.4 L 166.9 637.6 L 152.4 635.2" />
<path class="river" d="M 1181.7 -41 L 1181.6 -33 L 1184.5 -28.6 L 1190.5 -25 L 1194 -21.3 L 1195.6 -15.7 L 1191.8 -7.9 L 1191.2 -3.9 L 1192.5 -1.2 L 1212.3 22.6 L 1221 30.9 L 1225.5 33.6 L 1227.6 42.9 L 1226.8 61.9 L 1221.7 80.4 L 1212.3 98.4 L 1209.6 109.7 L 1213.6 114.2 L 1217.5 116.5 L 1221.2 116.5 L 1221.4 118 L 1218.1 120.9 L 1215.6 127 L 1213.9 136.2 L 1211.1 141.5 L 1207.4 142.7 L 1203.4 147.3 L 1199.1 155.1 L 1192.5 160.3 L 1183.5 163 L 1177.8 162.5 L 1175.4 158.6 L 1169.2 156.5 L 1159.2 156.3 L 1145.1 162.3 L 1127 174.7 L 1115.3 180.1 L 1109.9 178.5 L 1105.2 179.8 L 1101.2 183.9 L 1098.6 188.9 L 1096.9 197.6 L 1094.7 199.7 L 1095.1 204 L 1097.5 211.3 L 1096.6 226.5 L 1092.4 249.7 L 1091.2 262.8 L 1092.9 265.9 L 1097 266.6 L 1103.6 264.9 L 1107.5 261.2 L 1108.6 255.5 L 1110.9 253.9 L 1114.2 256.4 L 1114.7 260.6 L 1112.5 266.6 L 1112.2 271.4 L 1113.9 275 L 1111.8 277.6 L 1106 279.3 L 1103.6 281.1 L 1104.8 283 L 1104.1 285.2 L 1101.8 287.6 L 1102.2 290.9 L 1105.3 295.2 L 1104.3 301.4 L 1099.1 309.5 L 1097.8 318.1 L 1102 331.6" />
<path class="river" d="M 600.5 795.4 L 595.9 790.6 L 589 791.2 L 578.3 795.6 L 571.2 797 L 567.7 795.3 L 564.8 792 L 562.4 787.1 L 563.2 775.3 L 569.3 747.4 M 581 709.2 L 584.3 689.3 L 582.3 679.5 L 576.1 673.4 L 575.9 667.2 L 581.5 660.9 L 586.1 653.2 L 589.7 644.1 L 600.1 635.9 L 617.4 628.6 L 628.3 619.7 L 632.9 609.3 L 639.5 602.6 L 652.2 598.3" />
<path class="river" d="M 499.3 407.8 L 486.7 403.7 L 480.1 403.4 L 475.4 405.8 L 471.2 404.6 L 467.6 399.9 L 463.4 397.1 L 458.4 396.2 L 450.2 397.8 L 438.6 401.9 L 427.4 404 L 416.4 404 L 406 399.7 L 396.2 391.1 L 389.5 387.2 L 386.1 388.1 L 384.8 392.3 L 385.7 399.6 L 383.5 406.2 L 378.3 412.1 L 374.4 414.3 L 371.7 412.7 L 367.4 412.8 L 361.4 414.4 L 357.7 408.8 L 356.3 396.1 L 353.8 386.2 L 350.1 379.1 L 346.6 375.1 L 343.4 374.2 L 335.7 378.9 L 317.5 394.2 L 309.3 401.1 L 303 402 L 295.9 399.2 L 289.4 398.2 L 283.6 399 L 278.9 402.9 L 275.5 410 L 271.1 412.1 L 265.8 409.4 L 259.6 409.5 L 252.4 412.4 L 244.1 413.6 L 234.8 413.1 L 227.8 415.1 L 223.1 419.6 L 217.8 422.4 L 212 423.5 L 207.9 422.3 L 205.4 418.7 L 196.5 417 L 181.2 417.5 L 166 412.9 L 151.1 403.4 L 135.3 398.7 L 118.8 398.7 L 107.2 395.8 L 100.5 389.9 L 92 387.7 L 81.5 389.4 L 72.2 388.5 L 64.1 384.9 L 51.9 384.5 L 35.8 387.2 L 21.2 382.5 L 1.3 364.3 L -40.3 354.7 L -58.1 352.5 L -70.2 355.4 L -85.3 350 L -92 349.1 L -95.1 350.8 L -103.5 348.3 L -117.2 341.8 L -130.4 339 L -142.1 340 L -149.3 337.8 L -155.1 331.4 L -162.6 319.7 L -176.2 308.2 L -194.2 298.9 L -205.6 291.9 L -210.1 287.2 L -219.8 284.6 L -234.8 284.1 L -249.1 288.7 L -269.7 303.2 L -288.8 332.9 L -299.5 344.3 L -308 347.2 L -310.2 354.4 L -306 365.8 L -304.8 378.9 L -307.8 401.2" />
<path class="river" d="M 847.3 592.4 L 856.8 633 L 862.8 650.8 L 871.1 663.8 M 813.5 573 L 819.1 575.4 M 723.9 521.2 L 725.6 520.6 L 755 510.6 L 771 509.9 L 782.2 515.3 L 790.2 517.7 L 795.1 517 L 799 520.7 L 802 528.7 L 803.3 536.4 L 802.9 543.8 L 797.9 550.5 L 788.4 556.7 L 783.6 561.1 L 783.6 563.9 L 786.3 564.9 L 794.6 563.8" />
<g class="city"><circle cx="1164.1554189053732" cy="801.9170996241661" r="5" /><text x="1176.1554189053732" y="805.9170996241661">Nairobi</text></g>
<g class="city"><circle cx="822.1103852363003" cy="672.6397415375903" r="5" /><text x="834.1103852363003" y="676.6397415375903">Kampala</text></g>
<g class="city"><circle cx="618.2737216475706" cy="856.0714242429618" r="5" /><text x="630.2737216475706" y="860.0714242429618">Kigali</text></g>
<g class="city"><circle cx="850.2800583221377" cy="901.9946903388548" r="5" /><text x="862.2800583221377" y="905.9946903388548">Mwanza</text></g>
<g class="city"><circle cx="950.4676959752213" cy="610.2794057900933" r="5" /><text x="962.4676959752213" y="614.2794057900933">Mbale</text></g>
<g class="city"><circle cx="1039.3442535990703" cy="656.3669343131209" r="5" /><text x="1051.3442535990703" y="660.3669343131209">Eldoret</text></g>
<g class="city"><circle cx="1152.4629720999078" cy="969.8651296185085" r="5" /><text x="1164.4629720999078" y="973.8651296185085">Arusha</text></g>
<g class="city"><circle cx="561.8298228046162" cy="971.1636350127441" r="5" /><text x="573.8298228046162" y="975.1636350127441">Bujumbura</text></g>
<text class="map-title" x="80" y="105">Uganda Physical Study Map</text>
<text class="map-subtitle" x="80" y="145">Landmark: Murchison Falls | Study terrain and water systems</text>
  <text class="footer" x="80" y="1036">Made with Natural Earth. Free vector and raster map data @ naturalearthdata.com.</text>
</svg>
