<?xml version="1.0" encoding="UTF-8"?>
<svg xmlns="http://www.w3.org/2000/svg" width="1600" height="1100" viewBox="0 0 1600 1100" role="img" aria-labelledby="title desc">
  <title id="title">Uganda Political Study Map</title>
  <desc id="desc">Made with Natural Earth. Free vector and raster map data @ naturalearthdata.com.</desc>
  <defs>
    <linearGradient id="terrain" x1="0" x2="1" y1="0" y2="1">
      <stop offset="0%" stop-color="#6c8c53" />
      <stop offset="42%" stop-color="#d5c487" />
      <stop offset="72%" stop-color="#b88b5f" />
      <stop offset="100%" stop-color="#f1f5ee" />
    </linearGradient>
    <filter id="softShadow" x="-10%" y="-10%" width="120%" height="120%">
      <feDropShadow dx="0" dy="10" stdDeviation="12" flood-color="#0f172a" flood-opacity="0.16" />
    </filter>
    <style>
      .neighbor { fill: #ffffff; stroke: #94a3b8; stroke-width: 1.2; opacity: 0.72; }
      .country { fill: #f7f1df; stroke: #1f2937; stroke-width: 4; filter: url(#softShadow); }
      .admin1 { fill: none; stroke: #64748b; stroke-width: 1.1; stroke-dasharray: 6 7; opacity: 0.75; }
      .river { fill: none; stroke: #1d9bd1; stroke-width: 3; stroke-linecap: round; opacity: 0.88; }
      .lake { fill: #8ed1ea; stroke: #0ea5e9; stroke-width: 1.5; opacity: 0.8; }
      .city circle { fill: #ef4444; stroke: #ffffff; stroke-width: 2; }
      .city text, .terrain-label { fill: #172033; font: 700 24px system-ui, sans-serif; paint-order: stroke; stroke: #ffffff; stroke-width: 5; stroke-linejoin: round; }
      .map-title { fill: #0f172a; font: 800 46px system-ui, sans-serif; }
      .map-subtitle { fill: #475569; font: 600 24px system-ui, sans-serif; }
      .footer { fill: #64748b; font: 500 18px system-ui, sans-serif; }
    </style>
  </defs>
  <rect width="100%" height="100%" fill="#eaf3f8" />
  <rect x="40" y="40" width="1520" height="1020" rx="32" fill="#ffffff" opacity="0.54" />
  <path class="neighbor" d="M 929 775.1 L 942.6 784 L 1235.6 948.6 L 1241.1 995.5 L 1357.1 1076.3 L 1319.8 1175.8 L 1324.5 1221.6 L 1376.3 1251 L 1378.7 1272 L 1356.5 1320.8 L 1361.1 1345.4 L 1355.8 1384 L 1384 1434.6 L 1417.4 1514.3 L 1447.1 1532 L 1447.1 1532 L 1382.8 1578.8 L 1294.5 1610.2 L 1246 1608.9 L 1217.2 1633.1 L 1161 1635.2 L 1139.9 1645.4 L 1042.8 1622.6 L 982 1629.2 L 959.4 1519.3 L 932 1481.6 L 915.7 1459.3 L 836.5 1444.2 L 790.6 1419.9 L 739.3 1406.3 L 707.1 1392.8 L 673.3 1372.2 L 673.3 1372.2 L 629.7 1270.4 L 582.8 1225.2 L 566.7 1178.3 L 574.8 1136.3 L 560.2 1062 L 593.6 1058.1 L 622.9 1028.9 L 654.4 986.7 L 674.3 969.8 L 673.6 943.5 L 656.2 925.2 L 651.5 893.4 L 651.5 893.4 L 674.8 883.2 L 679.5 835.7 L 647.4 790.1 L 675.7 780.4 L 764.3 781.4 L 929 775.1 Z" />
<path class="neighbor" d="M 560.2 1062 L 574.8 1136.3 L 566.7 1178.3 L 582.8 1225.2 L 629.7 1270.4 L 673.3 1372.2 L 673.3 1372.2 L 641.5 1364 L 533 1377.7 L 511.3 1387.3 L 488.3 1438.9 L 506.4 1474.5 L 492 1570.2 L 482 1651.3 L 503.9 1665.7 L 560.3 1697.1 L 582.5 1682.4 L 589.3 1769.5 L 527.4 1768.9 L 494.2 1724.4 L 464.5 1690 L 402.6 1678.7 L 384.4 1636.3 L 335 1661.9 L 270.3 1650.6 L 243.3 1613.9 L 192 1606.4 L 154.2 1608.4 L 149.5 1583.3 L 121.7 1581.2 L 84.9 1576.5 L 34.8 1588.6 L -0.3 1586.6 L -20.3 1594 L -16 1497.9 L -42.9 1467.9 L -48.9 1418.2 L -37 1369.5 L -53.3 1338.3 L -54.8 1287.5 L -152.8 1288.2 L -145.8 1259.1 L -187 1259.4 L -191.4 1273.4 L -241.5 1276.5 L -261.8 1323.6 L -273.9 1343.8 L -318.5 1332.4 L -345.2 1343.8 L -398.6 1350.3 L -429.6 1308.1 L -448.1 1281.9 L -471.3 1233.5 L -491.2 1173.3 L -729.7 1172.2 L -758 1181.9 L -781.4 1180.4 L -814.8 1191.3 L -826.1 1166.2 L -805.5 1157.7 L -803 1122.4 L -789.8 1101.7 L -760.4 1084.7 L -739.2 1092.9 L -711.5 1062 L -667.5 1062.8 L -662.3 1085.7 L -632.2 1100 L -584.6 1049.3 L -537.5 1009.9 L -517.1 984 L -519.8 917.5 L -484.7 839 L -447.7 797.4 L -394.5 758.5 L -385.2 732.7 L -383.2 703.1 L -370.1 675 L -374.3 629.2 L -364.2 557.6 L -348.4 507.2 L -324.2 464 L -319.4 415.2 L -312.2 358.9 L -280.7 317.9 L -237.4 291.8 L -171 319.3 L -119.5 349.1 L -60.4 357.1 L -0.1 372.8 L 24 324 L 35.1 317.8 L 72 325.9 L 161.9 285.6 L 193.8 302.7 L 220 300.3 L 232.1 280.6 L 262.1 273.7 L 322.9 282.2 L 374.7 284.1 L 401.4 275.5 L 450.3 342.2 L 486.6 352 L 508.2 338.4 L 545.6 343.7 L 590.6 326.6 L 609.8 361.2 L 680.9 414.8 L 680.9 414.8 L 676 509.3 L 708.4 520.3 L 682.4 549 L 651.4 570.4 L 620.5 612.5 L 603.5 650.1 L 599 715 L 580.2 745.8 L 579.6 806.8 L 556.3 829.3 L 553.3 877.4 L 542.2 883.6 L 534.8 927.8 L 555.1 964.5 L 560.2 1062 Z" />
<path class="neighbor" d="M 1357.1 1076.3 L 1241.1 995.5 L 1235.6 948.6 L 942.6 784 L 929 775.1 L 928.1 689.5 L 951.3 656.8 L 991 603.3 L 1020.4 544.4 L 984.9 451.6 L 975.4 411.1 L 937.1 355 L 986.8 306.7 L 1041.6 253.5 L 1083.6 267.1 L 1083.6 312.4 L 1111.2 339 L 1167.4 339 L 1269.7 407.6 L 1295.2 408.4 L 1314.2 406.2 L 1332 415.5 L 1385.9 421.9 L 1409.8 388.2 L 1483.6 354.4 L 1516.2 381.7 L 1571.4 381.7 L 1500.8 473.4 L 1501.8 767.7 L 1549.6 834.4 L 1493 866.6 L 1473.1 900.4 L 1442.8 906.3 L 1431.3 963.2 L 1405.4 995.8 L 1389.6 1049.6 L 1357.1 1076.3 Z" />
<path class="neighbor" d="M 401.4 275.5 L 374.7 284.1 L 322.9 282.2 L 262.1 273.7 L 232.1 280.6 L 220 300.3 L 193.8 302.7 L 161.9 285.6 L 72 325.9 L 35.1 317.8 L 24 324 L -0.1 372.8 L -60.4 357.1 L -119.5 349.1 L -171 319.3 L -237.4 291.8 L -280.7 317.9 L -312.2 358.9 L -319.4 415.2 L -371.4 410.7 L -426.1 397.2 L -474.2 440 L -516.6 515.2 L -525.1 491.8 L -528.7 454.9 L -565.7 428.9 L -595.5 387.2 L -602.4 358.2 L -640.6 316 L -634.1 291.9 L -642.1 257.9 L -635.9 195.3 L -616.5 180.6 L -575.9 98.7 L -509 92.6 L -494.2 71.8 L -480.8 73.4 L -460.6 91.7 L -358.9 60.8 L -324.6 29.3 L -282.4 1 L -290.4 -27.4 L -267.6 -34.8 L -189.6 -29.8 L -113.6 -67.3 L -55.2 -155.4 L -14.2 -188.1 L 37 -201.9 L 46.1 -167.3 L 92.7 -116.8 L 93 -83.8 L 79.9 -50.2 L 85 -25.1 L 113.1 -1.8 L 174.6 33.5 L 218.8 66.1 L 219.6 92.4 L 273.9 134.5 L 307.6 169.4 L 328 217.9 L 388.4 249.9 L 401.4 275.5 Z" />
<path class="neighbor" d="M 651.5 893.4 L 656.2 925.2 L 673.6 943.5 L 674.3 969.8 L 654.4 986.7 L 622.9 1028.9 L 593.6 1058.1 L 560.2 1062 L 555.1 964.5 L 534.8 927.8 L 583.8 934.1 L 608.6 888.1 L 651.5 893.4 Z" />
<path class="neighbor" d="M 2050.9 51.8 L 1822.6 294.3 L 1717.3 297.8 L 1645.3 354.8 L 1593.5 356.3 L 1571.4 381.7 L 1516.2 381.7 L 1483.6 354.4 L 1409.8 388.2 L 1385.9 421.9 L 1332 415.5 L 1314.2 406.2 L 1295.2 408.4 L 1269.7 407.6 L 1167.4 339 L 1111.2 339 L 1083.6 312.4 L 1083.6 267.1 L 1041.6 253.5 L 993.9 165.6 L 957 146.8 L 942.8 114.5 L 901.9 75.2 L 852.2 69.4 L 879.8 23.3 L 922.6 21.4 L 934.7 -3.3 L 933.6 -76 L 957.5 -160.5 L 995.8 -183.1 L 1003.9 -216.2 L 1038.6 -277.9 L 1087.3 -317.9 L 1120.2 -397.5 L 1133 -466.9 L 1227.1 -450 L 1252.3 -510.3 L 1301.4 -473.6 L 1348.8 -492.6 L 1368.2 -475.7 L 1423.6 -474.8 L 1494 -442.4 L 1514.9 -414.5 L 1550.7 -388.5 L 1583.9 -341.2 L 1611.5 -315 L 1583.1 -279.3 L 1555.8 -241.4 L 1562.1 -219.1 L 1563.4 -194.5 L 1608.5 -193.2 L 1628 -198.9 L 1645.9 -184.5 L 1628.3 -155.9 L 1658.1 -111.4 L 1687.9 -72.5 L 1718.8 -43.6 L 1982.9 52.3 L 2050.9 51.8 Z" />
<path class="neighbor" d="M 647.4 790.1 L 679.5 835.7 L 674.8 883.2 L 651.5 893.4 L 651.5 893.4 L 608.6 888.1 L 583.8 934.1 L 534.8 927.8 L 542.2 883.6 L 553.3 877.4 L 556.3 829.3 L 579.6 806.8 L 599.1 815 L 647.4 790.1 Z" />
<path class="neighbor" d="M 680.9 414.8 L 609.8 361.2 L 590.6 326.6 L 545.6 343.7 L 508.2 338.4 L 486.6 352 L 450.3 342.2 L 401.4 275.5 L 388.4 249.9 L 328 217.9 L 307.6 169.4 L 273.9 134.5 L 219.6 92.4 L 218.8 66.1 L 174.6 33.5 L 119.6 1.9 L 144.4 -6.9 L 172.2 -22.1 L 193 -94.3 L 215.2 -131.7 L 273.4 -142.8 L 287.3 -120.6 L 328.9 -73.5 L 351.1 -66.5 L 380.2 -80.4 L 438.5 -77.6 L 449.6 -61 L 530 -61 L 532.8 -77.6 L 574.4 -92.9 L 582.8 -116.5 L 613.3 -133.1 L 681.2 -85.9 L 722.8 -94.3 L 763.1 -152.5 L 807.5 -196.9 L 800.5 -245.5 L 781.1 -269 L 829.7 -273.2 L 835.2 -291.2 L 872.7 -285.7 L 862.9 -226 L 872.7 -167.8 L 914.3 -135.9 L 924 -108.1 L 922.6 -67.9 L 933.8 -66.3 L 934.7 -3.3 L 922.6 21.4 L 879.8 23.3 L 852.2 69.4 L 901.9 75.2 L 942.8 114.5 L 957 146.8 L 993.9 165.6 L 1041.6 253.5 L 986.8 306.7 L 937.1 355 L 887.4 392.2 L 830.6 392 L 765.6 410.9 L 714.2 392.8 L 680.9 414.8 Z" />

<path class="country" d="M 929 775.1 L 764.3 781.4 L 675.7 780.4 L 647.4 790.1 L 599.1 815 L 579.6 806.8 L 580.2 745.8 L 599 715 L 603.5 650.1 L 620.5 612.5 L 651.4 570.4 L 682.4 549 L 708.4 520.3 L 676 509.3 L 680.9 414.8 L 680.9 414.8 L 714.2 392.8 L 765.6 410.9 L 830.6 392 L 887.4 392.2 L 937.1 355 L 975.4 411.1 L 984.9 451.6 L 1020.4 544.4 L 991 603.3 L 951.3 656.8 L 928.1 689.5 L 929 775.1 Z" />


<g class="city"><circle cx="1164.1554189053732" cy="801.9170996241661" r="5" /><text x="1176.1554189053732" y="805.9170996241661">Nairobi</text></g>
<g class="city"><circle cx="822.1103852363003" cy="672.6397415375903" r="5" /><text x="834.1103852363003" y="676.6397415375903">Kampala</text></g>
<g class="city"><circle cx="618.2737216475706" cy="856.0714242429618" r="5" /><text x="630.2737216475706" y="860.0714242429618">Kigali</text></g>
<g class="city"><circle cx="850.2800583221377" cy="901.9946903388548" r="5" /><text x="862.2800583221377" y="905.9946903388548">Mwanza</text></g>
<g class="city"><circle cx="950.4676959752213" cy="610.2794057900933" r="5" /><text x="962.4676959752213" y="614.2794057900933">Mbale</text></g>
<g class="city"><circle cx="1039.3442535990703" cy="656.3669343131209" r="5" /><text x="1051.3442535990703" y="660.3669343131209">Eldoret</text></g>
<g class="city"><circle cx="1152.4629720999078" cy="969.8651296185085" r="5" /><text x="1164.4629720999078" y="973.8651296185085">Arusha</text></g>
<g class="city"><circle cx="561.8298228046162" cy="971.1636350127441" r="5" /><text x="573.8298228046162" y="975.1636350127441">Bujumbura</text></g>
<text class="map-title" x="80" y="105">Uganda Political Study Map</text>
<text class="map-subtitle" x="80" y="145">Capital: Kampala | Continent: Africa</text>
  <text class="footer" x="80" y="1036">Made with Natural Earth. Free vector and raster map data @ naturalearthdata.com.</text>
</svg>
