<?xml version="1.0" encoding="UTF-8"?>
<svg xmlns="http://www.w3.org/2000/svg" width="1600" height="1100" viewBox="0 0 1600 1100" role="img" aria-labelledby="title desc">
  <title id="title">Uruguay Physical Study Map</title>
  <desc id="desc">Made with Natural Earth. Free vector and raster map data @ naturalearthdata.com.</desc>
  <defs>
    <linearGradient id="terrain" x1="0" x2="1" y1="0" y2="1">
      <stop offset="0%" stop-color="#6c8c53" />
      <stop offset="42%" stop-color="#d5c487" />
      <stop offset="72%" stop-color="#b88b5f" />
      <stop offset="100%" stop-color="#f1f5ee" />
    </linearGradient>
    <filter id="softShadow" x="-10%" y="-10%" width="120%" height="120%">
      <feDropShadow dx="0" dy="10" stdDeviation="12" flood-color="#0f172a" flood-opacity="0.16" />
    </filter>
    <style>
      .neighbor { fill: #ffffff; stroke: #94a3b8; stroke-width: 1.2; opacity: 0.72; }
      .country { fill: url(#terrain); stroke: #1f2937; stroke-width: 4; filter: url(#softShadow); }
      .admin1 { fill: none; stroke: #64748b; stroke-width: 1.1; stroke-dasharray: 6 7; opacity: 0.75; }
      .river { fill: none; stroke: #1d9bd1; stroke-width: 3; stroke-linecap: round; opacity: 0.88; }
      .lake { fill: #8ed1ea; stroke: #0ea5e9; stroke-width: 1.5; opacity: 0.8; }
      .city circle { fill: #ef4444; stroke: #ffffff; stroke-width: 2; }
      .city text, .terrain-label { fill: #172033; font: 700 24px system-ui, sans-serif; paint-order: stroke; stroke: #ffffff; stroke-width: 5; stroke-linejoin: round; }
      .map-title { fill: #0f172a; font: 800 46px system-ui, sans-serif; }
      .map-subtitle { fill: #475569; font: 600 24px system-ui, sans-serif; }
      .footer { fill: #64748b; font: 500 18px system-ui, sans-serif; }
    </style>
  </defs>
  <rect width="100%" height="100%" fill="#d8edf0" />
  <rect x="40" y="40" width="1520" height="1020" rx="32" fill="#ffffff" opacity="0.54" />
  <path class="neighbor" d="M -417.3 2494.7 L -380.8 2538.7 L -333.3 2609.9 L -209.8 2666.9 L -76.9 2690.7 L -119.6 2738.2 L -209.8 2742.9 L -258.3 2709.4 L -315.5 2706.8 L -417.2 2706.8 L -417.3 2494.7 Z M 628.4 365.1 L 604.7 441.1 L 579.2 538.8 L 580.2 633.4 L 559.6 654.5 L 552.2 715.9 L 545.7 765.5 L 666.3 846.9 L 653.3 912.3 L 712.7 953.7 L 707.9 1000.1 L 616.6 1121.9 L 475.8 1172.9 L 285.3 1192.6 L 180.9 1183.1 L 200.9 1239.7 L 181.5 1310.8 L 199 1358.7 L 142 1392.1 L 44.7 1405.2 L -46.7 1370.7 L -83.3 1395.5 L -70.1 1489.9 L -5.9 1518.5 L 46.1 1488.5 L 74.4 1537.9 L -13.1 1567.4 L -89.4 1626.4 L -103.3 1722 L -125.8 1772.8 L -215.5 1773.1 L -290 1821.8 L -317.2 1893 L -223.8 1962.5 L -133 1981.7 L -165.7 2066.9 L -277.9 2120.5 L -339.6 2231.9 L -426.3 2269.3 L -465.2 2313.8 L -434.5 2412.5 L -371.3 2467.5 L -411.3 2462.7 L -499.4 2447.8 L -728.9 2435.1 L -768.3 2379.7 L -766.4 2308.6 L -829.7 2314.7 L -863.1 2280.2 L -871.4 2179.5 L -798.6 2137.7 L -768.4 2077.5 L -779.5 2029.4 L -729.1 1948.4 L -694.4 1822.6 L -704.6 1766.8 L -663.2 1748.8 L -673.3 1713.1 L -717.4 1694 L -686.1 1654.2 L -729 1618.2 L -751.1 1508.6 L -712.9 1489.3 L -729 1373.5 L -706.7 1276.2 L -681.3 1191.5 L -624.4 1157 L -653.3 1064.3 L -653.6 977 L -581.7 915 L -583.9 835.6 L -529.7 742.9 L -529.4 655.5 L -554.1 638.2 L -597.8 474.2 L -539.3 376.5 L -548.3 284.5 L -514.4 198.2 L -452.2 109.1 L -385.1 50.1 L -413.6 12.8 L -393.7 -17.8 L -396.7 -176.1 L -293.3 -222.9 L -260.7 -321.6 L -272.2 -345.4 L -193.1 -431.2 L -68.8 -408.1 L -12.9 -339.5 L 24.1 -415.9 L 132.4 -412 L 147.8 -391.6 L 322.4 -236.6 L 400.1 -222.2 L 516.1 -152 L 613.9 -114.9 L 627.6 -73 L 534.1 71.4 L 629.8 97.2 L 736.5 111.7 L 811.6 96.5 L 897.8 23.7 L 913.3 -60.1 L 960.4 -78.3 L 1008 -23.5 L 1006.1 52.4 L 926.1 104.7 L 862.3 143.4 L 755.1 235.6 L 628.4 365.1 Z" />
<path class="neighbor" d="M 1032.2 702.5 L 1005.9 648.7 L 1047.8 603.7 L 992.9 539 L 918.3 486.5 L 820.6 425.7 L 785.3 428.5 L 690 355 L 628.4 365.1 L 755.1 235.6 L 862.3 143.4 L 926.1 104.7 L 1006.1 52.4 L 1008 -23.5 L 960.4 -78.3 L 913.3 -60.1 L 932 -114.9 L 944.8 -171.1 L 944.9 -223.3 L 910.7 -240.6 L 875.1 -225.2 L 839.7 -229.4 L 828.6 -266 L 819.7 -353 L 801.9 -381.4 L 737.8 -407.1 L 699 -388.5 L 598.7 -406.7 L 605.1 -535.7 L 577 -588.5 L 606.7 -608.1 L 597.5 -662.2 L 623.6 -703.9 L 640.4 -778.7 L 618 -837.7 L 566.1 -864.4 L 555.9 -901.9 L 569.9 -956.7 L 387.8 -960.7 L 351.2 -1071.2 L 379 -1072.8 L 377.7 -1113.8 L 359.2 -1141.5 L 355 -1196.4 L 299.8 -1224.6 L 240.1 -1223.7 L 200.8 -1251.3 L 136.6 -1270.1 L 99.2 -1305.6 L -7.2 -1321.2 L -110.3 -1406.3 L -102.7 -1470 L -114.4 -1506.5 L -104.3 -1577.7 L -228.5 -1561.6 L -278.6 -1525.9 L -361.6 -1487.4 L -382.8 -1458.7 L -431.7 -1456.6 L -502.3 -1464.7 L -555.9 -1448.3 L -599.1 -1459.2 L -592.8 -1603.5 L -670.7 -1547.5 L -754.5 -1550 L -790.5 -1600.7 L -853.5 -1606.2 L -833.4 -1646.9 L -886.2 -1704.7 L -925.7 -1790.3 L -900.7 -1807.6 L -900.8 -1847.8 L -843.4 -1875.2 L -852.8 -1926.5 L -828.6 -1959.6 L -821.7 -2003.9 L -713.1 -2068.6 L -635.2 -2086.8 L -622.5 -2101.1 L -536.9 -2096.7 L -494.2 -2357.1 L -492 -2398.3 L -506.8 -2452.7 L -549 -2487.3 L -548.5 -2556.3 L -495 -2572 L -476 -2562.2 L -472.8 -2598.5 L -528.5 -2608.4 L -529.6 -2667.8 L -344.6 -2665.7 L -313.2 -2698.4 L -286.8 -2668.3 L -268.2 -2612.3 L -250.3 -2624 L -198 -2573.7 L -124.2 -2579.9 L -105.8 -2608.9 L -35.2 -2631.1 L 3.9 -2646.7 L 15 -2686.9 L 82.8 -2714 L 77.7 -2733.9 L -2.8 -2742.1 L -16 -2801.9 L -12.1 -2865.6 L -54.6 -2890.2 L -36.8 -2899 L 33.5 -2886.8 L 109 -2863.1 L 136.4 -2885.5 L 204.7 -2900.2 L 311 -2935.8 L 345.7 -2972.1 L 333.1 -2998.9 L 382.5 -3003.1 L 404.6 -2981.2 L 392.3 -2939.5 L 424.9 -2925.1 L 446.7 -2880.9 L 420.3 -2847.5 L 405.2 -2766.6 L 429.5 -2718.6 L 436.4 -2674.6 L 494.9 -2630.1 L 541.5 -2625.4 L 552 -2644 L 582 -2648.1 L 625 -2664.7 L 655.9 -2690 L 708.4 -2681.9 L 731.5 -2685.3 L 783.2 -2677.6 L 791.7 -2697 L 775.8 -2715.9 L 785.3 -2743.4 L 823.6 -2734.9 L 868.5 -2744.6 L 922.9 -2724.5 L 964.3 -2704.9 L 993.7 -2730.7 L 1015 -2726.7 L 1027.9 -2700 L 1073.4 -2706.7 L 1109.8 -2742.8 L 1139 -2812.8 L 1195.2 -2899.7 L 1227.5 -2904.2 L 1251 -2851.6 L 1304.3 -2685.5 L 1355.1 -2669.9 L 1357.7 -2604.3 L 1286.2 -2526.1 L 1315.8 -2497.5 L 1483.7 -2482.5 L 1487.1 -2387.3 L 1559.2 -2449.7 L 1678.8 -2415.5 L 1836.5 -2357.5 L 1882.9 -2301.9 L 1867.3 -2249.3 L 1977.7 -2278.6 L 2162.6 -2228.3 L 2304.5 -2232 L 2444.9 -2153.4 L 2566.2 -2047 L 2639.4 -2019.6 L 2720.6 -2015.8 L 2755 -1985.8 L 2787.3 -1864.9 L 2803 -1807.4 L 2765.2 -1650.4 L 2716.9 -1588.4 L 2583 -1456.2 L 2522.5 -1348.9 L 2452.2 -1266.5 L 2428.4 -1264.7 L 2401.9 -1194.8 L 2408.6 -1016.8 L 2382.2 -870.4 L 2372.1 -807.8 L 2342 -770.3 L 2325.2 -643.3 L 2228.9 -519.3 L 2212.7 -421.2 L 2135.9 -380.1 L 2113.6 -323.1 L 2010.4 -323.4 L 1861 -286.9 L 1794.1 -244.6 L 1687.7 -216.9 L 1576 -141.2 L 1495.6 -47 L 1481.7 23.9 L 1497.5 76.3 L 1479.8 172.3 L 1458.2 218.6 L 1391.8 270.9 L 1286.5 438.1 L 1202.9 513.4 L 1138.4 557.9 L 1095 648.2 L 1032.2 702.5 Z" />
<path class="lake" d="M 1105.8 590.1 L 1104.1 595.2 L 1100.1 600.8 L 1096.8 606.4 L 1093.2 611.6 L 1089.3 617.7 L 1085.9 620.7 L 1082.2 621.7 L 1077.7 621 L 1073.5 616.3 L 1070 612.6 L 1066.2 610.4 L 1061.3 611.3 L 1055.3 614.9 L 1051.2 625.4 L 1046.1 634.8 L 1040 637.3 L 1036.8 637.6 L 1034.3 638.6 L 1031.9 640.9 L 1028.9 644.6 L 1026.2 651.9 L 1024.7 662.8 L 1026.1 674.4 L 1024.6 680 L 1021.1 681.5 L 1019.4 682.5 L 1017.6 682 L 1016 680.8 L 1014.8 678.4 L 1013.8 675.4 L 1013.2 670.7 L 1012.8 664.4 L 1012 657.9 L 1010.3 652.5 L 1008.8 647.7 L 1008.4 642.4 L 1010.8 637 L 1015.8 631.9 L 1022.8 625.6 L 1029.1 625.2 L 1034 622.5 L 1037 618.4 L 1038 613.8 L 1038 609.9 L 1039.1 606.8 L 1042.5 604.2 L 1047.1 601.7 L 1050.8 599 L 1054.5 596.2 L 1059 593.4 L 1064.9 591.4 L 1068.5 585.3 L 1071.6 579 L 1079.4 575.6 L 1085.7 571.7 L 1086.3 567.6 L 1087.4 564.1 L 1088.6 559.6 L 1091.9 555.2 L 1094.3 553.4 L 1096.1 553.9 L 1097.1 557.1 L 1097.1 567.6 L 1100.6 572 L 1103.3 577.6 L 1106.3 582 L 1106.5 585.8 L 1105.8 590.1 L 1105.8 590.1 L 1105.8 590.1 L 1105.8 590.1 Z" />
<path class="country" d="M 628.4 365.1 L 690 355 L 785.3 428.5 L 820.6 425.7 L 918.3 486.5 L 992.9 539 L 1047.8 603.7 L 1005.9 648.7 L 1032.2 702.5 L 991.1 762.2 L 883.8 815 L 813.7 796 L 762.3 806.2 L 674.5 765.4 L 610.1 768.4 L 552.2 715.9 L 559.6 654.5 L 580.2 633.4 L 579.2 538.8 L 604.7 441.1 L 628.4 365.1 Z" />

<path class="river" d="M -358.4 1197 L -333.9 1204.3 L -318.9 1206.5 L -305.1 1205.9 L -291.9 1207.5 L -279.2 1211.1 L -260.8 1211.7 L -236.9 1209.3 L -217.5 1208.9 L -202.5 1210.5 L -188.3 1214 L -175 1219.5 L -160.5 1222.9 L -144.8 1224.2 L -131.8 1230.9 L -121.6 1242.8 L -113.3 1255.8 L -106.9 1269.7 L -94.3 1278.3 L -75.6 1281.3 L -62.5 1285.9 L -55 1292 L -46.3 1296.8 L -36.2 1300.3 L -24.9 1301.9 L -12.4 1301.4 L 6.5 1310.2 L 31.9 1328.1 L 47.8 1337.7 L 54.2 1339 L 63.3 1345.2 L 81.1 1361.8 L 101.3 1365 L 115.2 1372.9 L 131.2 1384.4 L 137 1393.9 M -578.9 -2700.4 L -543.9 -2705.3 L -516.9 -2710 L -502 -2714.3 L -490.2 -2719.8 L -476 -2720.6 L -459.6 -2716.7 L -445.6 -2714.9 L -434 -2715.3 L -423.6 -2720 L -414.3 -2729.1 L -404.3 -2730.8 L -393.6 -2725.3 L -383.4 -2730.2 L -373.7 -2745.6 L -367.8 -2752.4 L -365.9 -2750.8 L -363.5 -2752.6 L -360.7 -2758 L -352.8 -2764.2 L -343.7 -2770.3 L -334.9 -2774 L -325.4 -2770.9 L -320.8 -2770.3 L -318.7 -2768 L -316 -2760.4 L -312.9 -2759.2 L -308.3 -2756 L -299.3 -2748.1 L -291.7 -2739.7 L -286.1 -2735.7 L -282.1 -2731.9 L -280.8 -2726.5 L -282.5 -2721 L -277.8 -2708.4 L -274.6 -2704.5 L -272.9 -2699.7 L -274.6 -2694.9 L -270.6 -2689.2 L -260.9 -2664.5 L -260.3 -2657 L -258.1 -2653.5 L -255.5 -2643.4 L -251.1 -2633.9 L -252.1 -2627.4 L -250.3 -2621 L -248.8 -2602 L -250.4 -2594 L -254.6 -2590.7 L -262.8 -2589.2 L -275 -2589.4 L -284 -2577.9 L -292.4 -2543.2 L -288.4 -2519.7 L -281.1 -2505.7 L -269.4 -2493.3 L -260.5 -2487.9 L -254.7 -2489.3 L -240.4 -2484.4 L -217.9 -2473.1 L -202.5 -2469.1 L -194.1 -2472.4 L -183.4 -2474.1 L -170.3 -2474.3 L -161.6 -2476.1 L -157.2 -2479.4 L -151.8 -2479.8 L -145.4 -2477.2 L -136.7 -2476.4 L -125.9 -2477.2 L -114.6 -2474.9 L -96.9 -2466.9 L -72.6 -2461.5 L -52.9 -2462.3 L -18 -2470.1 L 8.4 -2475.1 L 25.6 -2476 L 42.2 -2474.5 L 57.8 -2468.6 L 72.2 -2458.2 L 88.4 -2449.3 L 115.5 -2438.2 L 129.4 -2421.9 L 143.5 -2411.4 L 171.8 -2396.1 L 219.2 -2374.1 L 224.2 -2373 L 232 -2373 L 239.7 -2371.8 L 249 -2367.2 L 256.7 -2359.6 L 263.1 -2349 L 266.3 -2340 L 266.5 -2332.6 L 274.1 -2321.9 L 289.1 -2307.9 L 294.3 -2300.7 L 299.1 -2294.2 L 304 -2280.8 L 317 -2262.4 L 348.6 -2227.3 L 360 -2217.3 L 368.6 -2213.8 L 378.1 -2213.4 L 387.8 -2210.9 L 397.8 -2206.2 L 405.1 -2204.9 L 412.6 -2207.8" />
<path class="river" d="M 480.5 706.1 L 490 707.6 L 504.1 713.5 L 522.8 723.9 L 536.7 728.1 L 552 723.7 M 365.8 646 L 376 654.2 L 416.6 680.2 L 445.8 694.5 L 463.4 696.9 L 470.5 700 L 474.9 703.5 L 480.5 706.1 M 365.8 646 L 392.3 653.2 L 407.8 655 L 419.6 653.3 L 434.7 659.5 L 453 673.5 L 466.6 686.9 L 480.5 706.1 M 365.7 646 L 365.8 646 M 535.3 89.5 L 515.3 101.2 L 509.4 108.3 L 512 117.6 L 514.5 127.8 L 513.9 138.1 L 510.9 151.9 L 504.5 161.9 L 494.5 168.1 L 489.5 182 L 489.5 203.5 L 486.2 224.4 L 479.6 244.7 L 479.3 247.8 L 478.3 252.7 L 476.2 255.1 L 473.5 257.5 L 468.9 259.5 L 456 265.8 L 447.5 273.4 L 444.1 281.4 L 440.3 296.6 L 436 318.9 L 435.7 334.9 L 439.4 344.5 L 439.5 355.1 L 436 366.7 L 435.5 376.5 L 438.1 384.5 L 438.5 394.6 L 437.3 401.9 L 437.2 408.2 L 435.6 412.7 L 433.7 416.8 L 427.7 423.4 L 396.8 465.2 L 374.2 492.2 L 360.3 502.8 L 347.6 506 L 339.6 512.5 L 336.1 522.3 L 335.8 530.7 L 338.6 537.6 L 338.4 547.4 L 333.8 566.3 L 330.9 583.7 L 332.1 595.8 L 336.5 608.6 L 342.9 621.5 L 351.5 634.6 L 365.8 646 L 365.8 646 M 914.7 -89.2 L 912.7 -34.8 L 908.3 -6 L 901 15.3 L 894.3 26.6 L 888.3 28 L 884 31.4 L 881.3 36.8 L 876.4 41.3 L 869.3 44.9 L 865.4 48.8 L 864.8 53.1 L 858 55.8 L 844.9 57.1 L 837.2 60.5 L 834.9 66.1 L 830.5 70.6 L 824.1 73.9 L 821 79.3 L 821.3 87 L 817.6 93.6 L 809.8 99 L 802.7 99.2 L 796.1 94 L 787.4 90.6 L 776.3 88.9 L 767.2 90.2 L 759.8 94.5 L 753.2 101.3 L 747.6 110.7 L 741.2 112.2 L 734.3 106 L 725.4 104.1 L 714.8 106.5 L 706.3 105.7 L 699.9 101.5 L 690.2 101 L 677.1 104.3 L 650.6 100.5 L 610.6 89.7 L 576.8 85.6 L 535.3 89.5 M 993 -288.6 L 981.5 -281.6 L 973.1 -266.1 L 968 -242.1 L 960.9 -227.4 L 947.4 -219.1 L 966.4 -224.9 L 973.7 -240.7 L 980.7 -265.5 L 986.2 -280.1 L 993 -288.6 M 1071.4 -372.1 L 1056.7 -354.5 L 1041.8 -343.9 L 1022 -334.3 L 1008.8 -320.2 L 1002.1 -301.5 L 993 -288.6 M 1220 -563.3 L 1206.9 -552.3 L 1201.3 -541.9 L 1198.9 -528.6 L 1191.9 -515.6 L 1180.6 -502.9 L 1175.4 -492.9 L 1176.3 -485.6 L 1174.7 -479 L 1168.7 -470.1 M 1306.1 -698.3 L 1302.2 -692 L 1297.8 -689.6 L 1291.7 -689 L 1284.9 -685 L 1277.4 -677.6 L 1272.5 -670.7 L 1270.1 -664.4 L 1269.9 -660 L 1270.6 -658.7 L 1269 -656.6 L 1264.9 -656.1 L 1261.1 -651.7 L 1257.9 -636.8 M 870.6 -1144.8 L 836.7 -1141.2 L 801.7 -1123 L 782.2 -1114.8 L 766.4 -1110.5 L 752.7 -1101.2 L 741.3 -1087 L 735.6 -1076.7 L 735.5 -1070.3 L 740.6 -1063.9 L 750.8 -1057.5 L 756.7 -1049.1 L 758.2 -1038.6 L 763.2 -1029.7 L 771.6 -1022.4 L 774.3 -1015.6 L 771.2 -1009.3 L 770.2 -1004.1 L 771.2 -999.9 L 776.1 -995.1 L 784.9 -989.8 L 790.6 -984.3 L 793.2 -978.7 L 791.8 -972.8 L 786.2 -966.7 L 784.9 -961 L 787.8 -955.8 L 786.1 -950.8 L 779.8 -946 L 770 -942.1 L 756.8 -939.3 L 746.4 -931.5 L 739 -918.8 L 732.5 -910.6 L 727.1 -907.1 L 723.8 -902.3 L 722.6 -896.3 L 723.2 -890.9 L 726.7 -883.8 L 707.7 -853.5 L 698.4 -841 L 689.6 -833.7 L 680.2 -820.5 L 668.9 -813 L 652.6 -807 L 646.7 -790.9 L 651.1 -764.8 L 649.1 -748 L 640.7 -740.8 L 635.6 -732.2 L 633.9 -722.2 L 630.2 -715.6 L 624.4 -712.3 L 622.4 -707.9 L 624.3 -702.4 L 631.9 -698.5 L 645.3 -696.2 L 653.1 -693.5 L 655.3 -690.4 L 658.9 -678.1 L 659.3 -672 L 658.4 -666.9 L 655 -660.9 L 649 -654.2 L 647.2 -650 L 649.5 -648.4 L 648.5 -644.5 L 644.3 -638.3 L 638.1 -634.1 L 630.2 -631.8 L 626.2 -628.8 L 626.1 -625.3 L 620.2 -618.4 L 608.5 -608.1 L 596.4 -599.6 L 583.9 -592.9 L 578.6 -588.4 L 580.5 -586.1 L 580.6 -583.8 L 578.8 -581.5 L 581.8 -576.3 L 589.8 -568.2 L 593.9 -558 L 594.3 -545.6 L 596 -540 L 599 -541.1 L 601.9 -540.2 L 604.6 -537.3 L 604.1 -534.4 L 600.3 -531.4 L 600.3 -529 L 604.1 -527.2 L 604.7 -524.5 L 602.1 -521 L 603.1 -518.1 L 607.7 -515.8 L 609.6 -509.5 L 608.9 -499 L 606.8 -491.4 L 603.5 -486.6 L 603 -482.8 L 605.3 -480.2 L 604.2 -474.7 L 599.8 -466.2 L 598.8 -457.7 L 601.3 -449.2 L 600.6 -435.3 L 594.6 -406.7 L 595.7 -394.8 L 599.3 -387.8 L 605.9 -381.5 L 610.5 -372 L 612.9 -359.4 L 610.2 -351.6 L 602.4 -348.7 L 602 -343.9 L 609 -337.2 L 612.6 -330 L 612.7 -322.2 L 620 -312.3 L 634.5 -300.3 L 642.6 -287.2 L 644.2 -272.9 L 649.1 -262.1 L 657.4 -254.6 L 659.9 -246.3 L 656.7 -237.2 L 659.4 -228 L 668 -218.8 L 671.4 -212.8 L 669.7 -210 L 671.6 -204.1 L 677.1 -195.1 L 680.2 -187 L 680.9 -179.9 L 679.8 -173.4 L 675.4 -164.6 L 675.9 -156.6 L 673.1 -150.6 L 667.1 -144 L 665.3 -138.4 L 667.6 -134 L 666.8 -131.9 L 662.7 -132 L 657.4 -128.9 L 650.9 -122.7 L 645.2 -119.7 L 640.4 -119.9 L 634.5 -115.7 L 627.4 -107.1 L 626.6 -99.1 L 632 -91.9 L 634.3 -85.3 L 633.5 -79.6 L 628.3 -73.5 L 618.9 -67 L 616.1 -64.1 L 615.9 -61.4 L 613.4 -55.9 L 605.6 -44.2 L 603.6 -38.7 L 603.2 -34.7 L 598.2 -30.3 L 585 -22.2 L 582.2 -18.2 L 581.6 -14 L 579.9 -11.5 L 578.1 -10.4 L 575.5 -6.2 L 573.5 0.9 L 573.3 9.9 L 574.9 20.9 L 574.6 24.5 L 571.7 26.4 L 570 28.9 L 569.5 34.1 L 567 37.9 L 562.6 40.2 L 561 43 L 562.1 46.1 L 558.9 49.2 L 551.3 52.2 L 546.7 56.6 L 545 62.4 L 540.8 67.6 L 534 72.2 L 531.8 78.3 L 535.3 89.5" />
<path class="river" d="M -154.3 -205.5 L -150 -185.7 L -153.3 -175 L -151 -164.4 L -144.3 -150.2 L -133.7 -137.4 L -119.4 -126 L -112.4 -117.5 L -112.6 -111.9 L -108.4 -108 L -99.7 -105.8 L -91.6 -108.7 L -84.1 -116.7 L -76.7 -119.1 L -69.6 -116 L -64.8 -111.2 L -62.3 -104.6 L -55.9 -99.8 L -45.7 -97 L -34.2 -99 L -21.3 -105.9 L -12.1 -112.8 L -6.5 -119.5 L -1.2 -122.1 L 3.9 -120.7 L 11.8 -108.7 L 22.3 -86.3 L 27.5 -72.1 L 27.3 -66 L 32.7 -54.8 L 43.7 -38.6 L 47.8 -26.6 L 44.8 -19 L 46.3 -6.3 L 52.1 11.5 L 53.6 27.2 L 50.7 40.7 L 50.3 53.6 L 52.3 65.9 L 56.5 79.2 L 63.1 93.4 L 66 105 L 64.8 118.2 L 63.5 122.6 L 67.6 132.9 L 76.5 150.6 L 87.3 164.4 L 100 174.5 L 106.8 182.7 L 107.9 189.2 L 112.3 194.2 L 120.2 197.6 L 129 204.1 L 138.7 213.9 L 146.8 228.6 L 153.3 248.4 L 165 264.3 L 181.9 276.5 L 197.1 283.6 L 210.7 285.8 L 222.7 284 L 233.2 278.2 L 241.1 278 L 246.2 283.3 L 259.5 289.7 L 281.1 297.1 L 301.7 306.3 L 321.3 317.4 L 332.3 325.4 L 335 330.5 L 335.8 340.8 L 334.7 356.2 L 335.9 365.7 L 339.2 369.3 L 340.3 377.3 L 339.3 389.9 L 340.6 399.3 L 344.1 405.6 L 345.1 410.6 L 343.5 414.2 L 338.3 417.1 L 329.6 419.4 L 324.8 423.5 L 323.5 432.6 L 326.2 446.2 L 324.2 455.9 L 318.4 466.1 L 318.4 472 L 324.2 473.5 L 328.1 482 L 330 497.5 L 329 509.2 L 325 517 L 325.8 523.4 L 335.8 530.7" />
<path class="river" d="M 1377.7 203.2 L 1367.9 198.8 L 1358.5 197.2 L 1346.1 196.8 L 1339.3 197.6 L 1337.9 199.6 L 1330.5 199.1 L 1310.2 194.7 L 1297.8 191.3 L 1282.7 177 L 1260.9 150.8 L 1246.5 136.4 L 1239.6 133.8 L 1230.4 127.7 L 1219.1 117.9 L 1211.3 113.2 L 1207.3 113.7 L 1202.3 111.6 L 1196.4 107.1 L 1191 106 L 1186.1 108.3 L 1181.7 108.3 L 1174.7 108 L 1170.9 104.5 L 1164.2 95.4 L 1157 89.4 L 1149.4 86.5 L 1144.4 86.3 L 1141 87.4 L 1137.5 86 L 1133.8 86.5 L 1129.6 85.9 L 1123.3 82.1 L 1114.2 81.5 L 1102.2 84.3 L 1092.2 83 L 1084.2 77.6 L 1077.2 76.4 L 1072.2 76.6 L 1068.2 75.1 L 1064.8 72.7 L 1061 73.1 L 1057.8 74.3 L 1055 73 L 1050.2 73.8 L 1046.1 76.1 L 1042.7 75.1 L 1040.6 71.9 L 1038.7 68.9 L 1034.7 67.3 L 1029.9 67.5 L 1024.3 69.4 L 1021.2 72.3 L 1020.4 76 L 1016.4 78.4 L 1009.2 79.6 L 1005 78.7 L 1003.9 75.7 L 999.5 74.6 L 991.7 75.3 L 986.8 74.5 L 978.9 74.9 L 968.9 82.8 L 961.9 85.7 L 957.9 83.7 L 953.2 87.1 L 948 95.9 L 941.7 99.9 L 930.1 102 L 926.7 103.1 L 920 102.8 L 914.3 105 L 909.5 109.6 L 904.3 111.4 L 898.9 110.2 L 894 111.9 L 889.5 116.6 L 887 121.6 L 886.3 126.9 L 881.9 130.6 L 873.9 132.6 L 871.2 135.3 L 871.7 139 L 868.1 142 L 854.6 145 L 844.8 150.4 L 838.8 158.2 L 832.5 163.1 L 822.4 166.1 L 808.8 174 L 806.9 178.9 L 812 183.4 L 813.9 187.4 L 812.4 190.9 L 808.2 191.3 L 801.2 188.8 L 796.1 188.3 L 793.1 189.8 L 791.7 192.6 L 791.9 196.7 L 789.4 199.5 L 784.2 201 L 780.9 204.4 L 779.5 209.8 L 773 216.5 L 761.3 224.6 L 752.1 235.6 L 745.4 249.3 L 737.5 258.4 L 728.5 262.7 L 722.4 268.9 L 719 276.9 L 709.4 289.3 L 693.6 306.1 L 679.3 317.6 L 666.4 323.9 L 659.2 331 L 657.6 338.8 L 649.3 347.8 L 634.2 357.9 L 626.4 366.1 L 625.9 372.6 L 620.1 381.1 L 608.8 391.6 L 604.9 400.7 L 610 412.2 L 610.8 426.1 L 608.5 431.7 L 603.6 433.6 L 602.4 437.2 L 605.1 442.5 L 605.3 449.5 L 602.9 458.1 L 597.7 468 L 589.6 479.1 L 587.7 486.6 L 591.9 490.3 L 593.9 494.3 L 593.8 498.5 L 592.1 504.6 L 588.8 512.6 L 583.7 518.6 L 576.9 522.5 L 574.8 527.4 L 577.5 533.3 L 577.9 539.4 L 576 545.9 L 577.1 552.1 L 581.4 558.2 L 581.1 565.1 L 573.7 579.3" />
<g class="city"><circle cx="551.6966397210302" cy="782.522199745156" r="5" /><text x="563.6966397210302" y="786.522199745156">Buenos Aires</text></g>
<g class="city"><circle cx="1238.4779910472125" cy="349.1474193164063" r="5" /><text x="1250.4779910472125" y="353.1474193164063">Porto Alegre</text></g>
<g class="city"><circle cx="764.999493078718" cy="810.5100485013196" r="5" /><text x="776.999493078718" y="814.5100485013196">Montevideo</text></g>
<g class="city"><circle cx="339.3388693404719" cy="624.7046455670409" r="5" /><text x="351.3388693404719" y="628.7046455670409">Rosario</text></g>
<g class="city"><circle cx="337.2731744071447" cy="498.8222525434338" r="5" /><text x="349.2731744071447" y="502.8222525434338">Santa Fe</text></g>
<g class="city"><circle cx="1241.5096652647003" cy="266.6944860799007" r="5" /><text x="1253.5096652647003" y="270.6944860799007">Caxias do Sul</text></g>
<g class="city"><circle cx="1131.330941958855" cy="510.8036250962998" r="5" /><text x="1143.330941958855" y="514.8036250962998">Pelotas</text></g>
<g class="city"><circle cx="734.2983538376625" cy="668.4759499405426" r="5" /><text x="746.2983538376625" y="672.4759499405426">Durazno</text></g>
<text class="map-title" x="80" y="105">Uruguay Physical Study Map</text>
<text class="map-subtitle" x="80" y="145">Landmark: Casapueblo | Study terrain and water systems</text>
  <text class="footer" x="80" y="1036">Made with Natural Earth. Free vector and raster map data @ naturalearthdata.com.</text>
</svg>
