<?xml version="1.0" encoding="UTF-8"?>
<svg xmlns="http://www.w3.org/2000/svg" width="1600" height="1100" viewBox="0 0 1600 1100" role="img" aria-labelledby="title desc">
  <title id="title">Vatican City Physical Study Map</title>
  <desc id="desc">Generated from local app country data. Run npm run maps:build with network access for Natural Earth/Commons upgrades.</desc>
  <defs>
    <linearGradient id="terrain" x1="0" x2="1" y1="0" y2="1">
      <stop offset="0%" stop-color="#6c8c53" />
      <stop offset="42%" stop-color="#d5c487" />
      <stop offset="72%" stop-color="#b88b5f" />
      <stop offset="100%" stop-color="#f1f5ee" />
    </linearGradient>
    <filter id="softShadow" x="-10%" y="-10%" width="120%" height="120%">
      <feDropShadow dx="0" dy="10" stdDeviation="12" flood-color="#0f172a" flood-opacity="0.16" />
    </filter>
    <style>
      .neighbor { fill: #ffffff; stroke: #94a3b8; stroke-width: 1.2; opacity: 0.72; }
      .country { fill: url(#terrain); stroke: #1f2937; stroke-width: 4; filter: url(#softShadow); }
      .admin1 { fill: none; stroke: #64748b; stroke-width: 1.1; stroke-dasharray: 6 7; opacity: 0.75; }
      .river { fill: none; stroke: #1d9bd1; stroke-width: 3; stroke-linecap: round; opacity: 0.88; }
      .lake { fill: #8ed1ea; stroke: #0ea5e9; stroke-width: 1.5; opacity: 0.8; }
      .city circle { fill: #ef4444; stroke: #ffffff; stroke-width: 2; }
      .city text, .terrain-label { fill: #172033; font: 700 24px system-ui, sans-serif; paint-order: stroke; stroke: #ffffff; stroke-width: 5; stroke-linejoin: round; }
      .map-title { fill: #0f172a; font: 800 46px system-ui, sans-serif; }
      .map-subtitle { fill: #475569; font: 600 24px system-ui, sans-serif; }
      .footer { fill: #64748b; font: 500 18px system-ui, sans-serif; }
    </style>
  </defs>
  <rect width="100%" height="100%" fill="#d8edf0" />
  <rect x="40" y="40" width="1520" height="1020" rx="32" fill="#ffffff" opacity="0.54" />
  <path class="country" d="M 1297.5 565 L 1242.8 647.7 L 1178.3 717.3 L 1094.8 778.3 L 982.1 811 L 862 829.9 L 732.9 865.7 L 585.3 882.2 L 466.1 823.4 L 419 719 L 403.2 634.2 L 369.5 565 L 352.3 480.9 L 397.6 397.2 L 487.1 330.9 L 596.6 272.5 L 729.9 243.9 L 864.9 279.7 L 970.8 343.7 L 1073.8 376 L 1199.7 399 L 1293.6 467.4 Z" />
<path class="river" d="M 460 354 C 610 474, 670 259, 820 389 S 1040 564, 1160 464" /><text class="terrain-label" x="660" y="355">Highlands</text><text class="terrain-label" x="880" y="720">Lowlands</text>
<text class="map-title" x="80" y="105">Vatican City Physical Study Map</text>
<text class="map-subtitle" x="80" y="145">Landmark: St. Peter's Basilica | Study terrain and water systems</text>
  <text class="footer" x="80" y="1036">Generated from local app country data. Run npm run maps:build with network access for Natural Earth/Commons upgrades.</text>
</svg>
