<?xml version="1.0" encoding="UTF-8"?>
<svg xmlns="http://www.w3.org/2000/svg" width="1600" height="1100" viewBox="0 0 1600 1100" role="img" aria-labelledby="title desc">
  <title id="title">Venezuela Political Study Map</title>
  <desc id="desc">Made with Natural Earth. Free vector and raster map data @ naturalearthdata.com.</desc>
  <defs>
    <linearGradient id="terrain" x1="0" x2="1" y1="0" y2="1">
      <stop offset="0%" stop-color="#6c8c53" />
      <stop offset="42%" stop-color="#d5c487" />
      <stop offset="72%" stop-color="#b88b5f" />
      <stop offset="100%" stop-color="#f1f5ee" />
    </linearGradient>
    <filter id="softShadow" x="-10%" y="-10%" width="120%" height="120%">
      <feDropShadow dx="0" dy="10" stdDeviation="12" flood-color="#0f172a" flood-opacity="0.16" />
    </filter>
    <style>
      .neighbor { fill: #ffffff; stroke: #94a3b8; stroke-width: 1.2; opacity: 0.72; }
      .country { fill: #f7f1df; stroke: #1f2937; stroke-width: 4; filter: url(#softShadow); }
      .admin1 { fill: none; stroke: #64748b; stroke-width: 1.1; stroke-dasharray: 6 7; opacity: 0.75; }
      .river { fill: none; stroke: #1d9bd1; stroke-width: 3; stroke-linecap: round; opacity: 0.88; }
      .lake { fill: #8ed1ea; stroke: #0ea5e9; stroke-width: 1.5; opacity: 0.8; }
      .city circle { fill: #ef4444; stroke: #ffffff; stroke-width: 2; }
      .city text, .terrain-label { fill: #172033; font: 700 24px system-ui, sans-serif; paint-order: stroke; stroke: #ffffff; stroke-width: 5; stroke-linejoin: round; }
      .map-title { fill: #0f172a; font: 800 46px system-ui, sans-serif; }
      .map-subtitle { fill: #475569; font: 600 24px system-ui, sans-serif; }
      .footer { fill: #64748b; font: 500 18px system-ui, sans-serif; }
    </style>
  </defs>
  <rect width="100%" height="100%" fill="#eaf3f8" />
  <rect x="40" y="40" width="1520" height="1020" rx="32" fill="#ffffff" opacity="0.54" />
  <path class="neighbor" d="M 591.8 118.4 L 592.6 107.5 L 582.3 95.4 L 592.1 88.6 L 595.2 73.2 L 591.6 51.3 L 596.7 44.4 L 628.1 44.6 L 651.9 55 L 662.5 53.9 L 669.8 68.2 L 691.8 67.4 L 690.5 79.4 L 708.4 80.8 L 728.2 95.6 L 713.2 112 L 694.1 103.2 L 675.6 104.9 L 662.4 103 L 655.2 110.3 L 639.7 112.8 L 633.6 103.1 L 620.3 108.8 L 604.2 136.4 L 593.8 130 L 591.8 118.4 Z" />
<path class="neighbor" d="M 1329.2 2202.2 L 1318 2179.4 L 1335.8 2160.4 L 1312.5 2133 L 1281 2110.8 L 1239.6 2085 L 1224.6 2086.2 L 1184.3 2055.1 L 1158.2 2059.4 L 1211.9 2004.5 L 1257.2 1965.5 L 1284.3 1949.1 L 1318.1 1926.9 L 1318.9 1894.8 L 1298.8 1871.6 L 1278.8 1879.3 L 1286.7 1856.1 L 1292.2 1832.3 L 1292.2 1810.2 L 1277.7 1802.9 L 1262.6 1809.4 L 1247.7 1807.6 L 1243 1792.1 L 1239.2 1755.3 L 1231.7 1743.3 L 1204.5 1732.4 L 1188.1 1740.3 L 1145.6 1732.5 L 1148.3 1677.9 L 1136.4 1655.6 L 1149 1647.3 L 1145.1 1624.4 L 1156.1 1606.7 L 1163.3 1575.1 L 1153.8 1550 L 1131.8 1538.8 L 1127.5 1522.9 L 1133.4 1499.7 L 1056.3 1498 L 1040.8 1451.2 L 1052.6 1450.5 L 1052.1 1433.2 L 1044.2 1421.4 L 1042.4 1398.2 L 1019.1 1386.2 L 993.8 1386.6 L 977.1 1375 L 950 1367 L 934.1 1352 L 889.1 1345.3 L 845.4 1309.3 L 848.7 1282.3 L 843.7 1266.9 L 848 1236.7 L 795.4 1243.5 L 774.2 1258.6 L 739 1274.9 L 730 1287.1 L 709.3 1288 L 679.4 1284.6 L 656.7 1291.5 L 638.4 1286.9 L 641.1 1225.8 L 608.1 1249.5 L 572.6 1248.5 L 557.4 1227 L 530.7 1224.7 L 539.2 1207.4 L 516.9 1182.9 L 500.2 1146.7 L 510.8 1139.4 L 510.7 1122.4 L 535 1110.8 L 531 1089 L 541.3 1075 L 544.2 1056.3 L 590.2 1028.9 L 623.2 1021.2 L 628.5 1015.1 L 664.8 1017 L 682.9 906.7 L 683.8 889.3 L 677.5 866.3 L 659.7 851.6 L 659.9 822.4 L 682.5 815.7 L 690.6 819.9 L 691.9 804.5 L 668.4 800.3 L 667.9 775.2 L 746.2 776.1 L 759.5 762.2 L 770.7 775 L 778.5 798.7 L 786.1 793.7 L 808.3 815 L 839.5 812.4 L 847.3 800.1 L 877.2 790.7 L 893.8 784.1 L 898.5 767.1 L 927.2 755.6 L 925 747.2 L 891 743.7 L 885.4 718.4 L 887 691.4 L 869 681 L 876.5 677.3 L 906.3 682.4 L 938.3 692.5 L 949.9 683 L 978.8 676.7 L 1023.8 661.7 L 1038.5 646.3 L 1033.2 635 L 1054.1 633.2 L 1063.5 642.5 L 1058.2 660.1 L 1072 666.2 L 1081.3 684.9 L 1070.1 699.1 L 1063.7 733.3 L 1074 753.7 L 1076.9 772.3 L 1101.7 791.1 L 1121.4 793.1 L 1125.8 785.3 L 1138.6 783.5 L 1156.8 776.5 L 1169.8 765.8 L 1192.1 769.2 L 1201.9 767.7 L 1223.7 771 L 1227.4 762.8 L 1220.6 754.8 L 1224.6 743.2 L 1240.9 746.7 L 1259.8 742.6 L 1282.9 751.2 L 1300.4 759.5 L 1312.9 748.6 L 1321.9 750.2 L 1327.4 761.6 L 1346.6 758.7 L 1362 743.4 L 1374.4 713.8 L 1398.2 677 L 1411.9 675.1 L 1421.8 697.3 L 1444.4 767.7 L 1465.9 774.3 L 1467 802.1 L 1436.7 835.2 L 1449.2 847.3 L 1520.3 853.6 L 1521.8 893.9 L 1552.3 867.5 L 1602.9 882 L 1669.7 906.5 L 1689.4 930.1 L 1682.8 952.4 L 1729.5 940 L 1807.8 961.2 L 1867.9 959.7 L 1927.3 993 L 1978.7 1038 L 2009.7 1049.6 L 2044.1 1051.2 L 2058.7 1063.9 L 2072.3 1115.1 L 2079 1139.5 L 2063 1205.9 L 2042.5 1232.2 L 1985.8 1288.2 L 1960.2 1333.6 L 1930.4 1368.5 L 1920.4 1369.3 L 1909.1 1398.9 L 1912 1474.2 L 1900.8 1536.2 L 1896.5 1562.7 L 1883.8 1578.6 L 1876.6 1632.4 L 1835.9 1684.9 L 1829 1726.4 L 1796.5 1743.8 L 1787.1 1767.9 L 1743.4 1767.8 L 1680.1 1783.3 L 1651.8 1801.2 L 1606.7 1812.9 L 1559.4 1845 L 1525.4 1884.8 L 1519.5 1914.9 L 1526.2 1937.1 L 1518.7 1977.7 L 1509.6 1997.3 L 1481.5 2019.5 L 1436.8 2090.2 L 1401.5 2122.1 L 1374.1 2141 L 1355.8 2179.2 L 1329.2 2202.2 Z" />
<path class="neighbor" d="M 664.8 1017 L 628.5 1015.1 L 623.2 1021.2 L 590.2 1028.9 L 544.2 1056.3 L 541.3 1075 L 531 1089 L 535 1110.8 L 510.7 1122.4 L 510.8 1139.4 L 500.2 1146.7 L 516.9 1182.9 L 539.2 1207.4 L 530.7 1224.7 L 557.4 1227 L 572.6 1248.5 L 608.1 1249.5 L 641.1 1225.8 L 638.4 1286.9 L 656.7 1291.5 L 679.4 1284.6 L 714.2 1349.3 L 705.6 1362.9 L 703.6 1391.2 L 702.8 1425.4 L 687.1 1445.5 L 694.3 1460.4 L 685.1 1473.9 L 702.4 1507.7 L 677 1551.2 L 666.2 1571.8 L 645.5 1582 L 605.2 1559 L 601.7 1542.4 L 522 1502.1 L 449.9 1458.1 L 418.8 1433.3 L 402.2 1400.1 L 408.8 1388.5 L 374.7 1335.7 L 335.1 1261.5 L 297.1 1181.4 L 280.6 1163.1 L 268 1133.5 L 236.7 1107.2 L 208.1 1090.9 L 221.1 1073 L 201.6 1034.6 L 214.1 1006.5 L 246.2 981.1 L 250.9 997.8 L 239.5 1007.4 L 240.6 1022.1 L 257.2 1018.9 L 273.4 1023.3 L 290.3 1043.6 L 313 1027 L 320.6 999.9 L 345.3 964.9 L 393.7 949 L 437.5 906.9 L 450 880.8 L 444.4 850.2 L 455.1 846.4 L 481.9 865.5 L 494.7 884.5 L 513.3 894.8 L 537 937 L 567 942 L 589.1 931.4 L 603.7 938.4 L 627.8 934.9 L 658.6 953.7 L 632.7 994.7 L 644.7 995.6 L 664.8 1017 Z" />
<path class="neighbor" d="M 786.1 793.7 L 778.5 798.7 L 770.7 775 L 759.5 762.2 L 746.2 776.1 L 667.9 775.2 L 668.4 800.3 L 691.9 804.5 L 690.6 819.9 L 682.5 815.7 L 659.9 822.4 L 659.7 851.6 L 677.5 866.3 L 683.8 889.3 L 682.9 906.7 L 664.8 1017 L 644.7 995.6 L 632.7 994.7 L 658.6 953.7 L 627.8 934.9 L 603.7 938.4 L 589.1 931.4 L 567 942 L 537 937 L 513.3 894.8 L 494.7 884.5 L 481.9 865.5 L 455.1 846.4 L 444.4 850.2 L 427.2 840.7 L 407.5 827.4 L 396 833.8 L 361.9 828.2 L 352.1 810.9 L 344.6 811.6 L 304.4 788.6 L 298.9 776.1 L 313.9 773.1 L 312.1 752.9 L 321.6 738.4 L 341.5 735.7 L 358.5 710.4 L 373.9 689.3 L 359 679.7 L 366.6 656.4 L 357.5 619.6 L 366.2 609.1 L 359.8 575 L 343.5 553.6 L 348.7 534.1 L 361.7 537 L 369.2 525 L 359.9 501.3 L 364.8 495.4 L 385.6 496.7 L 415.7 468.6 L 432.3 464.4 L 432.7 451.1 L 440.1 417.1 L 463.2 398.4 L 488.5 397.6 L 491.7 389.3 L 523.2 392.6 L 554.8 372.3 L 570.5 363.3 L 590 343.9 L 604.2 346.4 L 614.8 357 L 607 370.5 L 581.1 377.3 L 570.9 397.4 L 555.4 408.9 L 543.7 423.9 L 538.7 452.5 L 527.6 476.1 L 548.4 478.8 L 553.5 497.2 L 562.4 506.1 L 565.6 522.3 L 560.8 537.2 L 562.2 545.6 L 572.1 548.9 L 581.7 563 L 633.4 559.1 L 656.8 564.2 L 685.1 598.8 L 701.3 594.5 L 730.3 596.7 L 753.2 592.1 L 767.4 599 L 760.2 620.7 L 751.2 634.2 L 748.1 663 L 756.2 689.7 L 767.6 701.7 L 769 710.7 L 748.6 730.7 L 763.2 739.6 L 773.9 753.6 L 786.1 793.7 Z" />
<path class="neighbor" d="M 364.8 495.4 L 359.9 501.3 L 369.2 525 L 361.7 537 L 348.7 534.1 L 343.5 553.6 L 330.1 542 L 321.5 520.3 L 331.4 509.6 L 321.3 506.8 L 313.8 493.5 L 293.7 482.3 L 276.1 484.9 L 268 498.9 L 251.7 509 L 242.9 510.4 L 239 518.8 L 258.2 540.6 L 247.2 545.7 L 241.4 551.7 L 222.7 553.7 L 215.7 529.7 L 210.5 536.6 L 197.2 534.2 L 189.1 518 L 172.6 515.3 L 162.2 510.6 L 144.9 510.7 L 143.7 519.4 L 139.1 513.3 L 141.2 505.4 L 144.5 497.2 L 143 489.9 L 149 485.2 L 140.6 479.2 L 140.4 463 L 155.9 459.4 L 170.4 473.8 L 169.6 482.4 L 185.6 484.2 L 189.4 480.9 L 200.5 490.8 L 220.2 487.9 L 237.3 477.7 L 261.8 469.6 L 275.5 457.6 L 297.7 459.9 L 296.2 463.9 L 318.6 465.3 L 336.5 472.2 L 349.7 484.3 L 364.8 495.4 Z" />
<path class="neighbor" d="M 1201.9 767.7 L 1192.1 769.2 L 1169.8 765.8 L 1156.8 776.5 L 1138.6 783.5 L 1125.8 785.3 L 1121.4 793.1 L 1101.7 791.1 L 1076.9 772.3 L 1074 753.7 L 1063.7 733.3 L 1070.1 699.1 L 1081.3 684.9 L 1072 666.2 L 1058.2 660.1 L 1063.5 642.5 L 1054.1 633.2 L 1033.2 635 L 1006 604.5 L 1016.9 593.4 L 1016.1 574.8 L 1040.8 568.4 L 1050.8 560.8 L 1037 545.9 L 1040.5 531.3 L 1072.4 507.6 L 1098.8 522.4 L 1123.7 548.6 L 1124.8 569.3 L 1140 570.3 L 1161.5 589.9 L 1177.4 603.9 L 1171 640.1 L 1146.6 650.6 L 1148.7 660.1 L 1141.3 680.8 L 1159.1 710 L 1172 710.1 L 1177.3 732.8 L 1201.9 767.7 Z" />
<path class="neighbor" d="M 1282.9 751.2 L 1259.8 742.6 L 1240.9 746.7 L 1224.6 743.2 L 1220.6 754.8 L 1227.4 762.8 L 1223.7 771 L 1201.9 767.7 L 1177.3 732.8 L 1172 710.1 L 1159.1 710 L 1141.3 680.8 L 1148.7 660.1 L 1146.6 650.6 L 1171 640.1 L 1177.4 603.9 L 1225.6 612 L 1229.9 604.7 L 1262.4 601.8 L 1305.7 612.6 L 1284.7 647.2 L 1287.9 674.7 L 1303.7 698.5 L 1296.7 715.9 L 1293.1 734.2 L 1282.9 751.2 Z" />
<path class="neighbor" d="M 1398.2 677 L 1374.4 713.8 L 1362 743.4 L 1346.6 758.7 L 1327.4 761.6 L 1321.9 750.2 L 1312.9 748.6 L 1300.4 759.5 L 1282.9 751.2 L 1293.1 734.2 L 1296.7 715.9 L 1303.7 698.5 L 1287.9 674.7 L 1284.7 647.2 L 1305.7 612.6 L 1319.3 617 L 1348.9 626.6 L 1391.5 660.5 L 1398.2 677 Z M 3724.5 -1145.2 L 3743.5 -1134.6 L 3801.5 -1127.2 L 3781.1 -1099.7 L 3776 -1071 L 3765 -1064.2 L 3746.7 -1067.9 L 3747.9 -1057.6 L 3718.5 -1035.1 L 3717.9 -1016.8 L 3737.1 -1023.1 L 3751 -1005.5 L 3749.3 -994.1 L 3761.1 -979 L 3747.2 -966.8 L 3757.5 -935.7 L 3779.3 -930.6 L 3774.7 -913.1 L 3738.3 -890.4 L 3659 -901.3 L 3600.4 -888.2 L 3595.8 -864 L 3549.2 -858.8 L 3503.9 -877 L 3489.3 -868.3 L 3415.3 -886.6 L 3399.3 -902.2 L 3420.1 -926.3 L 3427.7 -1006.5 L 3386.2 -1048.7 L 3356.5 -1069 L 3295.1 -1084.5 L 3291 -1113.8 L 3343.2 -1122.6 L 3410.7 -1112.2 L 3398 -1157.7 L 3435.9 -1140.5 L 3529.6 -1171.8 L 3541.6 -1204.8 L 3576.8 -1212.9 L 3582.6 -1198.8 L 3601.3 -1198.1 L 3620 -1182 L 3648.1 -1163 L 3668.7 -1166.1 L 3703.9 -1147.8 L 3712.9 -1144.3 L 3724.5 -1145.2 Z M 3827.5 -870.3 L 3853.4 -885.6 L 3860.2 -851.1 L 3846.9 -820.1 L 3828.7 -828.2 L 3819.3 -855.3 L 3827.5 -870.3 Z" />
<path class="neighbor" d="M 444.4 850.2 L 450 880.8 L 437.5 906.9 L 393.7 949 L 345.3 964.9 L 320.6 999.9 L 313 1027 L 290.3 1043.6 L 273.4 1023.3 L 257.2 1018.9 L 240.6 1022.1 L 239.5 1007.4 L 250.9 997.8 L 246.2 981.1 L 267.6 951 L 258.9 933.4 L 243.5 952.1 L 219.4 934.5 L 227.6 923.2 L 220.8 886.7 L 234.9 880.6 L 242.3 855.5 L 257.5 829.6 L 254.7 813.2 L 276.7 804.6 L 304.4 788.6 L 344.6 811.6 L 352.1 810.9 L 361.9 828.2 L 396 833.8 L 407.5 827.4 L 427.2 840.7 L 444.4 850.2 Z" />
<path class="neighbor" d="M 356.1 100.5 L 383.1 104.1 L 404.5 113.8 L 411.2 124.8 L 382.9 125.5 L 370.7 132.2 L 348.2 125.8 L 325.2 111.1 L 330 101.9 L 346.9 99.1 L 356.1 100.5 Z" />
<path class="neighbor" d="M 995.1 411.4 L 1018.2 406.2 L 1026.7 407.6 L 1025.1 437.5 L 991.5 442 L 984.3 438.3 L 995.9 427.3 L 995.1 411.4 Z" />

<path class="country" d="M 1033.2 635 L 1038.5 646.3 L 1023.8 661.7 L 978.8 676.7 L 949.9 683 L 938.3 692.5 L 906.3 682.4 L 876.5 677.3 L 869 681 L 887 691.4 L 885.4 718.4 L 891 743.7 L 925 747.2 L 927.2 755.6 L 898.5 767.1 L 893.8 784.1 L 877.2 790.7 L 847.3 800.1 L 839.5 812.4 L 808.3 815 L 786.1 793.7 L 773.9 753.6 L 763.2 739.6 L 748.6 730.7 L 769 710.7 L 767.6 701.7 L 756.2 689.7 L 748.1 663 L 751.2 634.2 L 760.2 620.7 L 767.4 599 L 753.2 592.1 L 730.3 596.7 L 701.3 594.5 L 685.1 598.8 L 656.8 564.2 L 633.4 559.1 L 581.7 563 L 572.1 548.9 L 562.2 545.6 L 560.8 537.2 L 565.6 522.3 L 562.4 506.1 L 553.5 497.2 L 548.4 478.8 L 527.6 476.1 L 538.7 452.5 L 543.7 423.9 L 555.4 408.9 L 570.9 397.4 L 581.1 377.3 L 607 370.5 L 605.8 380 L 582.2 384.7 L 595.3 403 L 594.8 424 L 577.1 447.4 L 592.3 479.3 L 609.7 476.7 L 618.7 447.6 L 606.2 433.4 L 604.2 403 L 654.3 386.6 L 648.7 367.7 L 662.8 355 L 677.2 383.3 L 705.4 383.9 L 731.6 406.3 L 733.1 419.7 L 769.2 420 L 812.2 415.9 L 835.2 433.9 L 866 438.9 L 888.6 426.3 L 889 416.2 L 938.8 413.7 L 987 413.2 L 952.9 425.1 L 966.6 444 L 998.8 447.1 L 1029.3 466.8 L 1035.7 499.1 L 1056.6 498.2 L 1072.4 507.6 L 1040.5 531.3 L 1037 545.9 L 1050.8 560.8 L 1040.8 568.4 L 1016.1 574.8 L 1016.9 593.4 L 1006 604.5 L 1033.2 635 Z" />


<g class="city"><circle cx="496.21149332632785" cy="659.2013979019667" r="5" /><text x="508.21149332632785" y="663.2013979019667">Bogota</text></g>
<g class="city"><circle cx="436.2206681235257" cy="591.6933905002293" r="5" /><text x="448.2206681235257" y="595.6933905002293">Medellín</text></g>
<g class="city"><circle cx="784.4212337015995" cy="421.7351509526918" r="5" /><text x="796.4212337015995" y="425.7351509526918">Caracas</text></g>
<g class="city"><circle cx="261.47507815058043" cy="933.3411050411112" r="5" /><text x="273.47507815058043" y="937.3411050411112">Guayaquil</text></g>
<g class="city"><circle cx="399.02140654869334" cy="707.3199865709087" r="5" /><text x="411.02140654869334" y="711.3199865709087">Cali</text></g>
<g class="city"><circle cx="593.6728057839523" cy="412.5262267269519" r="5" /><text x="605.6728057839523" y="416.5262267269519">Maracaibo</text></g>
<g class="city"><circle cx="467.3908289622492" cy="403.275798215662" r="5" /><text x="479.3908289622492" y="407.275798215662">Barranquilla</text></g>
<g class="city"><circle cx="741.6708543691109" cy="432.6347313373006" r="5" /><text x="753.6708543691109" y="436.6347313373006">Valencia</text></g>
<text class="map-title" x="80" y="105">Venezuela Political Study Map</text>
<text class="map-subtitle" x="80" y="145">Capital: Caracas | Continent: South America</text>
  <text class="footer" x="80" y="1036">Made with Natural Earth. Free vector and raster map data @ naturalearthdata.com.</text>
</svg>
