<?xml version="1.0" encoding="UTF-8"?>
<svg xmlns="http://www.w3.org/2000/svg" width="1600" height="1100" viewBox="0 0 1600 1100" role="img" aria-labelledby="title desc">
  <title id="title">Venezuela Physical Study Map</title>
  <desc id="desc">Made with Natural Earth. Free vector and raster map data @ naturalearthdata.com.</desc>
  <defs>
    <linearGradient id="terrain" x1="0" x2="1" y1="0" y2="1">
      <stop offset="0%" stop-color="#6c8c53" />
      <stop offset="42%" stop-color="#d5c487" />
      <stop offset="72%" stop-color="#b88b5f" />
      <stop offset="100%" stop-color="#f1f5ee" />
    </linearGradient>
    <filter id="softShadow" x="-10%" y="-10%" width="120%" height="120%">
      <feDropShadow dx="0" dy="10" stdDeviation="12" flood-color="#0f172a" flood-opacity="0.16" />
    </filter>
    <style>
      .neighbor { fill: #ffffff; stroke: #94a3b8; stroke-width: 1.2; opacity: 0.72; }
      .country { fill: url(#terrain); stroke: #1f2937; stroke-width: 4; filter: url(#softShadow); }
      .admin1 { fill: none; stroke: #64748b; stroke-width: 1.1; stroke-dasharray: 6 7; opacity: 0.75; }
      .river { fill: none; stroke: #1d9bd1; stroke-width: 3; stroke-linecap: round; opacity: 0.88; }
      .lake { fill: #8ed1ea; stroke: #0ea5e9; stroke-width: 1.5; opacity: 0.8; }
      .city circle { fill: #ef4444; stroke: #ffffff; stroke-width: 2; }
      .city text, .terrain-label { fill: #172033; font: 700 24px system-ui, sans-serif; paint-order: stroke; stroke: #ffffff; stroke-width: 5; stroke-linejoin: round; }
      .map-title { fill: #0f172a; font: 800 46px system-ui, sans-serif; }
      .map-subtitle { fill: #475569; font: 600 24px system-ui, sans-serif; }
      .footer { fill: #64748b; font: 500 18px system-ui, sans-serif; }
    </style>
  </defs>
  <rect width="100%" height="100%" fill="#d8edf0" />
  <rect x="40" y="40" width="1520" height="1020" rx="32" fill="#ffffff" opacity="0.54" />
  <path class="neighbor" d="M 591.8 118.4 L 592.6 107.5 L 582.3 95.4 L 592.1 88.6 L 595.2 73.2 L 591.6 51.3 L 596.7 44.4 L 628.1 44.6 L 651.9 55 L 662.5 53.9 L 669.8 68.2 L 691.8 67.4 L 690.5 79.4 L 708.4 80.8 L 728.2 95.6 L 713.2 112 L 694.1 103.2 L 675.6 104.9 L 662.4 103 L 655.2 110.3 L 639.7 112.8 L 633.6 103.1 L 620.3 108.8 L 604.2 136.4 L 593.8 130 L 591.8 118.4 Z" />
<path class="neighbor" d="M 1329.2 2202.2 L 1318 2179.4 L 1335.8 2160.4 L 1312.5 2133 L 1281 2110.8 L 1239.6 2085 L 1224.6 2086.2 L 1184.3 2055.1 L 1158.2 2059.4 L 1211.9 2004.5 L 1257.2 1965.5 L 1284.3 1949.1 L 1318.1 1926.9 L 1318.9 1894.8 L 1298.8 1871.6 L 1278.8 1879.3 L 1286.7 1856.1 L 1292.2 1832.3 L 1292.2 1810.2 L 1277.7 1802.9 L 1262.6 1809.4 L 1247.7 1807.6 L 1243 1792.1 L 1239.2 1755.3 L 1231.7 1743.3 L 1204.5 1732.4 L 1188.1 1740.3 L 1145.6 1732.5 L 1148.3 1677.9 L 1136.4 1655.6 L 1149 1647.3 L 1145.1 1624.4 L 1156.1 1606.7 L 1163.3 1575.1 L 1153.8 1550 L 1131.8 1538.8 L 1127.5 1522.9 L 1133.4 1499.7 L 1056.3 1498 L 1040.8 1451.2 L 1052.6 1450.5 L 1052.1 1433.2 L 1044.2 1421.4 L 1042.4 1398.2 L 1019.1 1386.2 L 993.8 1386.6 L 977.1 1375 L 950 1367 L 934.1 1352 L 889.1 1345.3 L 845.4 1309.3 L 848.7 1282.3 L 843.7 1266.9 L 848 1236.7 L 795.4 1243.5 L 774.2 1258.6 L 739 1274.9 L 730 1287.1 L 709.3 1288 L 679.4 1284.6 L 656.7 1291.5 L 638.4 1286.9 L 641.1 1225.8 L 608.1 1249.5 L 572.6 1248.5 L 557.4 1227 L 530.7 1224.7 L 539.2 1207.4 L 516.9 1182.9 L 500.2 1146.7 L 510.8 1139.4 L 510.7 1122.4 L 535 1110.8 L 531 1089 L 541.3 1075 L 544.2 1056.3 L 590.2 1028.9 L 623.2 1021.2 L 628.5 1015.1 L 664.8 1017 L 682.9 906.7 L 683.8 889.3 L 677.5 866.3 L 659.7 851.6 L 659.9 822.4 L 682.5 815.7 L 690.6 819.9 L 691.9 804.5 L 668.4 800.3 L 667.9 775.2 L 746.2 776.1 L 759.5 762.2 L 770.7 775 L 778.5 798.7 L 786.1 793.7 L 808.3 815 L 839.5 812.4 L 847.3 800.1 L 877.2 790.7 L 893.8 784.1 L 898.5 767.1 L 927.2 755.6 L 925 747.2 L 891 743.7 L 885.4 718.4 L 887 691.4 L 869 681 L 876.5 677.3 L 906.3 682.4 L 938.3 692.5 L 949.9 683 L 978.8 676.7 L 1023.8 661.7 L 1038.5 646.3 L 1033.2 635 L 1054.1 633.2 L 1063.5 642.5 L 1058.2 660.1 L 1072 666.2 L 1081.3 684.9 L 1070.1 699.1 L 1063.7 733.3 L 1074 753.7 L 1076.9 772.3 L 1101.7 791.1 L 1121.4 793.1 L 1125.8 785.3 L 1138.6 783.5 L 1156.8 776.5 L 1169.8 765.8 L 1192.1 769.2 L 1201.9 767.7 L 1223.7 771 L 1227.4 762.8 L 1220.6 754.8 L 1224.6 743.2 L 1240.9 746.7 L 1259.8 742.6 L 1282.9 751.2 L 1300.4 759.5 L 1312.9 748.6 L 1321.9 750.2 L 1327.4 761.6 L 1346.6 758.7 L 1362 743.4 L 1374.4 713.8 L 1398.2 677 L 1411.9 675.1 L 1421.8 697.3 L 1444.4 767.7 L 1465.9 774.3 L 1467 802.1 L 1436.7 835.2 L 1449.2 847.3 L 1520.3 853.6 L 1521.8 893.9 L 1552.3 867.5 L 1602.9 882 L 1669.7 906.5 L 1689.4 930.1 L 1682.8 952.4 L 1729.5 940 L 1807.8 961.2 L 1867.9 959.7 L 1927.3 993 L 1978.7 1038 L 2009.7 1049.6 L 2044.1 1051.2 L 2058.7 1063.9 L 2072.3 1115.1 L 2079 1139.5 L 2063 1205.9 L 2042.5 1232.2 L 1985.8 1288.2 L 1960.2 1333.6 L 1930.4 1368.5 L 1920.4 1369.3 L 1909.1 1398.9 L 1912 1474.2 L 1900.8 1536.2 L 1896.5 1562.7 L 1883.8 1578.6 L 1876.6 1632.4 L 1835.9 1684.9 L 1829 1726.4 L 1796.5 1743.8 L 1787.1 1767.9 L 1743.4 1767.8 L 1680.1 1783.3 L 1651.8 1801.2 L 1606.7 1812.9 L 1559.4 1845 L 1525.4 1884.8 L 1519.5 1914.9 L 1526.2 1937.1 L 1518.7 1977.7 L 1509.6 1997.3 L 1481.5 2019.5 L 1436.8 2090.2 L 1401.5 2122.1 L 1374.1 2141 L 1355.8 2179.2 L 1329.2 2202.2 Z" />
<path class="neighbor" d="M 664.8 1017 L 628.5 1015.1 L 623.2 1021.2 L 590.2 1028.9 L 544.2 1056.3 L 541.3 1075 L 531 1089 L 535 1110.8 L 510.7 1122.4 L 510.8 1139.4 L 500.2 1146.7 L 516.9 1182.9 L 539.2 1207.4 L 530.7 1224.7 L 557.4 1227 L 572.6 1248.5 L 608.1 1249.5 L 641.1 1225.8 L 638.4 1286.9 L 656.7 1291.5 L 679.4 1284.6 L 714.2 1349.3 L 705.6 1362.9 L 703.6 1391.2 L 702.8 1425.4 L 687.1 1445.5 L 694.3 1460.4 L 685.1 1473.9 L 702.4 1507.7 L 677 1551.2 L 666.2 1571.8 L 645.5 1582 L 605.2 1559 L 601.7 1542.4 L 522 1502.1 L 449.9 1458.1 L 418.8 1433.3 L 402.2 1400.1 L 408.8 1388.5 L 374.7 1335.7 L 335.1 1261.5 L 297.1 1181.4 L 280.6 1163.1 L 268 1133.5 L 236.7 1107.2 L 208.1 1090.9 L 221.1 1073 L 201.6 1034.6 L 214.1 1006.5 L 246.2 981.1 L 250.9 997.8 L 239.5 1007.4 L 240.6 1022.1 L 257.2 1018.9 L 273.4 1023.3 L 290.3 1043.6 L 313 1027 L 320.6 999.9 L 345.3 964.9 L 393.7 949 L 437.5 906.9 L 450 880.8 L 444.4 850.2 L 455.1 846.4 L 481.9 865.5 L 494.7 884.5 L 513.3 894.8 L 537 937 L 567 942 L 589.1 931.4 L 603.7 938.4 L 627.8 934.9 L 658.6 953.7 L 632.7 994.7 L 644.7 995.6 L 664.8 1017 Z" />
<path class="neighbor" d="M 786.1 793.7 L 778.5 798.7 L 770.7 775 L 759.5 762.2 L 746.2 776.1 L 667.9 775.2 L 668.4 800.3 L 691.9 804.5 L 690.6 819.9 L 682.5 815.7 L 659.9 822.4 L 659.7 851.6 L 677.5 866.3 L 683.8 889.3 L 682.9 906.7 L 664.8 1017 L 644.7 995.6 L 632.7 994.7 L 658.6 953.7 L 627.8 934.9 L 603.7 938.4 L 589.1 931.4 L 567 942 L 537 937 L 513.3 894.8 L 494.7 884.5 L 481.9 865.5 L 455.1 846.4 L 444.4 850.2 L 427.2 840.7 L 407.5 827.4 L 396 833.8 L 361.9 828.2 L 352.1 810.9 L 344.6 811.6 L 304.4 788.6 L 298.9 776.1 L 313.9 773.1 L 312.1 752.9 L 321.6 738.4 L 341.5 735.7 L 358.5 710.4 L 373.9 689.3 L 359 679.7 L 366.6 656.4 L 357.5 619.6 L 366.2 609.1 L 359.8 575 L 343.5 553.6 L 348.7 534.1 L 361.7 537 L 369.2 525 L 359.9 501.3 L 364.8 495.4 L 385.6 496.7 L 415.7 468.6 L 432.3 464.4 L 432.7 451.1 L 440.1 417.1 L 463.2 398.4 L 488.5 397.6 L 491.7 389.3 L 523.2 392.6 L 554.8 372.3 L 570.5 363.3 L 590 343.9 L 604.2 346.4 L 614.8 357 L 607 370.5 L 581.1 377.3 L 570.9 397.4 L 555.4 408.9 L 543.7 423.9 L 538.7 452.5 L 527.6 476.1 L 548.4 478.8 L 553.5 497.2 L 562.4 506.1 L 565.6 522.3 L 560.8 537.2 L 562.2 545.6 L 572.1 548.9 L 581.7 563 L 633.4 559.1 L 656.8 564.2 L 685.1 598.8 L 701.3 594.5 L 730.3 596.7 L 753.2 592.1 L 767.4 599 L 760.2 620.7 L 751.2 634.2 L 748.1 663 L 756.2 689.7 L 767.6 701.7 L 769 710.7 L 748.6 730.7 L 763.2 739.6 L 773.9 753.6 L 786.1 793.7 Z" />
<path class="neighbor" d="M 364.8 495.4 L 359.9 501.3 L 369.2 525 L 361.7 537 L 348.7 534.1 L 343.5 553.6 L 330.1 542 L 321.5 520.3 L 331.4 509.6 L 321.3 506.8 L 313.8 493.5 L 293.7 482.3 L 276.1 484.9 L 268 498.9 L 251.7 509 L 242.9 510.4 L 239 518.8 L 258.2 540.6 L 247.2 545.7 L 241.4 551.7 L 222.7 553.7 L 215.7 529.7 L 210.5 536.6 L 197.2 534.2 L 189.1 518 L 172.6 515.3 L 162.2 510.6 L 144.9 510.7 L 143.7 519.4 L 139.1 513.3 L 141.2 505.4 L 144.5 497.2 L 143 489.9 L 149 485.2 L 140.6 479.2 L 140.4 463 L 155.9 459.4 L 170.4 473.8 L 169.6 482.4 L 185.6 484.2 L 189.4 480.9 L 200.5 490.8 L 220.2 487.9 L 237.3 477.7 L 261.8 469.6 L 275.5 457.6 L 297.7 459.9 L 296.2 463.9 L 318.6 465.3 L 336.5 472.2 L 349.7 484.3 L 364.8 495.4 Z" />
<path class="neighbor" d="M 1201.9 767.7 L 1192.1 769.2 L 1169.8 765.8 L 1156.8 776.5 L 1138.6 783.5 L 1125.8 785.3 L 1121.4 793.1 L 1101.7 791.1 L 1076.9 772.3 L 1074 753.7 L 1063.7 733.3 L 1070.1 699.1 L 1081.3 684.9 L 1072 666.2 L 1058.2 660.1 L 1063.5 642.5 L 1054.1 633.2 L 1033.2 635 L 1006 604.5 L 1016.9 593.4 L 1016.1 574.8 L 1040.8 568.4 L 1050.8 560.8 L 1037 545.9 L 1040.5 531.3 L 1072.4 507.6 L 1098.8 522.4 L 1123.7 548.6 L 1124.8 569.3 L 1140 570.3 L 1161.5 589.9 L 1177.4 603.9 L 1171 640.1 L 1146.6 650.6 L 1148.7 660.1 L 1141.3 680.8 L 1159.1 710 L 1172 710.1 L 1177.3 732.8 L 1201.9 767.7 Z" />
<path class="neighbor" d="M 1282.9 751.2 L 1259.8 742.6 L 1240.9 746.7 L 1224.6 743.2 L 1220.6 754.8 L 1227.4 762.8 L 1223.7 771 L 1201.9 767.7 L 1177.3 732.8 L 1172 710.1 L 1159.1 710 L 1141.3 680.8 L 1148.7 660.1 L 1146.6 650.6 L 1171 640.1 L 1177.4 603.9 L 1225.6 612 L 1229.9 604.7 L 1262.4 601.8 L 1305.7 612.6 L 1284.7 647.2 L 1287.9 674.7 L 1303.7 698.5 L 1296.7 715.9 L 1293.1 734.2 L 1282.9 751.2 Z" />
<path class="neighbor" d="M 1398.2 677 L 1374.4 713.8 L 1362 743.4 L 1346.6 758.7 L 1327.4 761.6 L 1321.9 750.2 L 1312.9 748.6 L 1300.4 759.5 L 1282.9 751.2 L 1293.1 734.2 L 1296.7 715.9 L 1303.7 698.5 L 1287.9 674.7 L 1284.7 647.2 L 1305.7 612.6 L 1319.3 617 L 1348.9 626.6 L 1391.5 660.5 L 1398.2 677 Z M 3724.5 -1145.2 L 3743.5 -1134.6 L 3801.5 -1127.2 L 3781.1 -1099.7 L 3776 -1071 L 3765 -1064.2 L 3746.7 -1067.9 L 3747.9 -1057.6 L 3718.5 -1035.1 L 3717.9 -1016.8 L 3737.1 -1023.1 L 3751 -1005.5 L 3749.3 -994.1 L 3761.1 -979 L 3747.2 -966.8 L 3757.5 -935.7 L 3779.3 -930.6 L 3774.7 -913.1 L 3738.3 -890.4 L 3659 -901.3 L 3600.4 -888.2 L 3595.8 -864 L 3549.2 -858.8 L 3503.9 -877 L 3489.3 -868.3 L 3415.3 -886.6 L 3399.3 -902.2 L 3420.1 -926.3 L 3427.7 -1006.5 L 3386.2 -1048.7 L 3356.5 -1069 L 3295.1 -1084.5 L 3291 -1113.8 L 3343.2 -1122.6 L 3410.7 -1112.2 L 3398 -1157.7 L 3435.9 -1140.5 L 3529.6 -1171.8 L 3541.6 -1204.8 L 3576.8 -1212.9 L 3582.6 -1198.8 L 3601.3 -1198.1 L 3620 -1182 L 3648.1 -1163 L 3668.7 -1166.1 L 3703.9 -1147.8 L 3712.9 -1144.3 L 3724.5 -1145.2 Z M 3827.5 -870.3 L 3853.4 -885.6 L 3860.2 -851.1 L 3846.9 -820.1 L 3828.7 -828.2 L 3819.3 -855.3 L 3827.5 -870.3 Z" />
<path class="neighbor" d="M 444.4 850.2 L 450 880.8 L 437.5 906.9 L 393.7 949 L 345.3 964.9 L 320.6 999.9 L 313 1027 L 290.3 1043.6 L 273.4 1023.3 L 257.2 1018.9 L 240.6 1022.1 L 239.5 1007.4 L 250.9 997.8 L 246.2 981.1 L 267.6 951 L 258.9 933.4 L 243.5 952.1 L 219.4 934.5 L 227.6 923.2 L 220.8 886.7 L 234.9 880.6 L 242.3 855.5 L 257.5 829.6 L 254.7 813.2 L 276.7 804.6 L 304.4 788.6 L 344.6 811.6 L 352.1 810.9 L 361.9 828.2 L 396 833.8 L 407.5 827.4 L 427.2 840.7 L 444.4 850.2 Z" />
<path class="neighbor" d="M 356.1 100.5 L 383.1 104.1 L 404.5 113.8 L 411.2 124.8 L 382.9 125.5 L 370.7 132.2 L 348.2 125.8 L 325.2 111.1 L 330 101.9 L 346.9 99.1 L 356.1 100.5 Z" />
<path class="neighbor" d="M 995.1 411.4 L 1018.2 406.2 L 1026.7 407.6 L 1025.1 437.5 L 991.5 442 L 984.3 438.3 L 995.9 427.3 L 995.1 411.4 Z" />
<path class="lake" d="M 1268.1 651.8 L 1266.8 653.2 L 1266.1 654.1 L 1266.3 655.2 L 1266.8 656.2 L 1268.1 656.5 L 1269.2 656.9 L 1269.2 658.1 L 1268.8 659.1 L 1267.8 659.4 L 1266.5 659.9 L 1265.7 659.3 L 1264.4 658.8 L 1263.3 659.2 L 1261.9 660.3 L 1261.2 661.8 L 1260.3 663.6 L 1258.8 664.7 L 1257.8 664.3 L 1256.1 663.8 L 1254.9 663.5 L 1254.5 662.6 L 1253.3 662.2 L 1251.8 662.2 L 1250.3 662 L 1250.5 660.2 L 1251.6 658.8 L 1252.5 658.3 L 1252.8 656.6 L 1252.3 655.1 L 1254.3 651.9 L 1256.8 647.9 L 1257.7 644.5 L 1258.7 643.1 L 1260 643.1 L 1263 644.2 L 1265.1 646.4 L 1266.3 646.9 L 1268.4 646.8 L 1270.2 646.6 L 1271.5 646.8 L 1272 647.8 L 1271.2 649.7 L 1270.3 651.5 L 1269.3 651.6 L 1268.1 651.8 L 1268.1 651.8 L 1268.1 651.8 L 1268.1 651.8 Z" />
<path class="lake" d="M 271.6 476.4 L 270.9 477.2 L 270.8 478 L 266.4 479.2 L 265.2 480.3 L 264.5 480.4 L 264.2 480 L 265 479 L 265.9 478 L 264.9 477.4 L 263.4 476.6 L 262.3 476 L 261.9 477.3 L 261.3 479 L 260.5 479.5 L 260.2 480.5 L 259.9 481.3 L 259.4 481.2 L 258.6 480.6 L 257.9 479.8 L 257.5 479.9 L 257.6 480.7 L 257.1 481.1 L 256 481.3 L 255.3 481.5 L 255.6 480.5 L 257.8 478.3 L 260.2 474.4 L 261.4 471.4 L 264.1 470.4 L 265.5 469.3 L 266 469.5 L 266.2 470.7 L 266.4 472 L 265.5 472.6 L 264.6 473.2 L 264.8 473.9 L 265.7 474.7 L 266.1 475.2 L 267.4 476.2 L 268.8 477 L 269.7 477.1 L 271 476.8 L 271.6 476.4 L 271.6 476.4 L 271.6 476.4 L 271.6 476.4 Z" />
<path class="country" d="M 1033.2 635 L 1038.5 646.3 L 1023.8 661.7 L 978.8 676.7 L 949.9 683 L 938.3 692.5 L 906.3 682.4 L 876.5 677.3 L 869 681 L 887 691.4 L 885.4 718.4 L 891 743.7 L 925 747.2 L 927.2 755.6 L 898.5 767.1 L 893.8 784.1 L 877.2 790.7 L 847.3 800.1 L 839.5 812.4 L 808.3 815 L 786.1 793.7 L 773.9 753.6 L 763.2 739.6 L 748.6 730.7 L 769 710.7 L 767.6 701.7 L 756.2 689.7 L 748.1 663 L 751.2 634.2 L 760.2 620.7 L 767.4 599 L 753.2 592.1 L 730.3 596.7 L 701.3 594.5 L 685.1 598.8 L 656.8 564.2 L 633.4 559.1 L 581.7 563 L 572.1 548.9 L 562.2 545.6 L 560.8 537.2 L 565.6 522.3 L 562.4 506.1 L 553.5 497.2 L 548.4 478.8 L 527.6 476.1 L 538.7 452.5 L 543.7 423.9 L 555.4 408.9 L 570.9 397.4 L 581.1 377.3 L 607 370.5 L 605.8 380 L 582.2 384.7 L 595.3 403 L 594.8 424 L 577.1 447.4 L 592.3 479.3 L 609.7 476.7 L 618.7 447.6 L 606.2 433.4 L 604.2 403 L 654.3 386.6 L 648.7 367.7 L 662.8 355 L 677.2 383.3 L 705.4 383.9 L 731.6 406.3 L 733.1 419.7 L 769.2 420 L 812.2 415.9 L 835.2 433.9 L 866 438.9 L 888.6 426.3 L 889 416.2 L 938.8 413.7 L 987 413.2 L 952.9 425.1 L 966.6 444 L 998.8 447.1 L 1029.3 466.8 L 1035.7 499.1 L 1056.6 498.2 L 1072.4 507.6 L 1040.5 531.3 L 1037 545.9 L 1050.8 560.8 L 1040.8 568.4 L 1016.1 574.8 L 1016.9 593.4 L 1006 604.5 L 1033.2 635 Z" />

<path class="river" d="M 270.8 478 L 268.1 477.7 L 265.8 476 L 261.4 471.4" />
<path class="river" d="M 1357.7 906.5 L 1349.3 908.9 L 1344.2 911.2 L 1338.4 915.1 L 1329.8 918.1 L 1318.5 920.2 L 1310.3 922.9 L 1305.2 926.1 L 1302.2 930.2 L 1301.4 935.3 L 1296.5 938.9 L 1285.2 942.3 L 1282.9 942.3 L 1281.3 942.3 L 1278.3 941.4 L 1276.8 939 L 1276.9 934.8 L 1276.1 932 L 1274.5 930.7 L 1272.1 929.4 L 1268.9 928.1 L 1265.5 928.8 L 1261.9 931.3 L 1257.7 931.8 L 1253 930.4 L 1248.7 927.9 L 1245.3 924 L 1243.1 922.5 L 1241.5 921.5 L 1239.4 921.3 L 1236.9 921.6 L 1234.2 923.1 L 1230 924.2 L 1224.3 924.8 L 1218.3 927.8 L 1212.1 933.1 L 1207.4 938.1 L 1204.3 942.8 L 1201.5 945.8 L 1199.1 946.9 L 1196.4 947.7 L 1193.2 948 L 1189.5 947.4 L 1185.3 945.8 L 1181.3 945.6 L 1177.6 946.7 L 1173.5 945.7 L 1169.1 942.6 L 1165.6 940.8 L 1163 940.5 L 1159 943.9 L 1153.6 951.2 L 1147.8 956.1 L 1141.7 958.7 L 1137.7 963.1 L 1135.7 969.5 L 1133.7 972.8 L 1132.3 973.4 L 1130.4 973.3 L 1127.8 972.9 L 1124.9 972.1 L 1121 973 L 1117.3 977 L 1115.4 978.6 L 1110.7 978.7 L 1107.3 977.8 L 1103.6 975.7 L 1099.2 974.4 L 1094.2 973.9 L 1087.6 972.2 L 1079.4 969.2 L 1073.3 967.9 L 1069.2 968.5 L 1066.8 969.9 L 1066.5 971.7 L 1065.7 973.1 L 1064.4 974.3 L 1058.5 977.1 L 1054.5 977.9 L 1051.5 976.9 L 1046.2 976.8 L 1038.6 977.6 L 1032.6 980.8 L 1028.2 986.4 L 1021 989.3 L 1011.2 989.5 L 1003.7 992 L 998.4 996.8 L 993.6 1000.3 L 989.3 1002.4 L 986.6 1002.9 L 981.8 1000.8 L 971.1 995.4 L 967.5 993.7 L 966.4 993.6 L 965.2 994.2 L 964.2 997 L 960.4 999 L 953.9 1000.1 L 947.5 1002.5 L 941.3 1006.3 L 938.1 1008.2 L 935.9 1007.9 L 934.9 1006.4 L 933.3 1004 L 930.7 1001.9 L 924 999.8 L 919 999.1 L 915.7 999.9 L 912 999.7 L 907.7 998.7 L 900.4 995.5 L 890.1 990.2 L 883.4 985.8 L 878.7 980.8 L 870 973.7 L 865.4 970 L 858.8 963.6 L 854.4 958.1 L 850 954.6 L 845.7 953 L 843.2 951.3 L 842.3 949.3 L 839.1 948.5 L 831 948.8 L 825.4 944.4 L 822.3 943.3 L 819.9 944.1 L 817.5 943.8 L 815.2 942.3 L 812.9 943.1 L 810.6 946 L 807.9 946.2 L 805.1 943.7 L 802.4 942.2 L 800 941.8 L 798.4 943.8 L 797.4 948.2 L 795.6 951.1 L 793 952.4 L 789.2 953.3 L 784.2 953.8 L 778.1 952.5 L 770.8 949.5 L 765.7 949.6 L 762.9 953 L 758.1 955.9 L 751.6 958.3 L 747.1 961.9 L 743.7 969.1 L 743.9 973.8 L 743.1 976.2 L 741.4 977.9 L 737.1 978.2 L 730.3 977.1 L 717 978.7 L 697.3 982.9 L 686.6 987 L 684.7 991.1 L 684 995.5 L 684.5 1000.1 L 683.6 1003.9 L 681.5 1007 L 681.4 1009.5 L 683.3 1011.5 L 682.3 1014 L 678.4 1017 L 673.2 1018.5 L 666.7 1018.3 L 662.6 1016.5 L 661.9 1014.5 L 659.8 1011.5 L 656.7 1008.7 L 653.8 1007 L 652.5 1004.8 L 650.8 1000.3 L 648.5 998.7 L 646.9 997.5 L 645.3 997.7 L 643.6 999 L 641 999.8 L 639.2 999.6 L 638.1 999.8 L 624.3 1003.4 L 618 1004.4 L 614.7 1003.5 L 612.5 1001.1 L 608.9 999.7 L 603.9 999.5 L 599.3 998 L 595.2 995.4 L 592.6 990.9 L 591.4 984.6 L 590.1 980.7 L 588.5 979.2 L 583.5 980.2 L 575 983.6 L 568.3 985 L 560.9 984.1 L 550 983.2 L 544.3 983.6 L 540 985 L 536.1 987.4 L 532.6 990.6 L 531.4 996.3 L 532.3 1004.3 L 532.1 1009 L 531 1010.2 L 529.1 1010.5 L 526.4 1009.7 L 525.2 1010.3 L 525.2 1012.4 L 524.4 1014.3 L 522.5 1016.1 L 521.2 1018.5 L 520.2 1022.9" />
<path class="river" d="M 910.7 729.7 L 913.7 723.4 L 913.9 720.5 L 912.2 718.7 L 911.4 716.9 L 911.6 714.3 L 910.7 704.8 L 912.1 699.5 L 915.6 695.1 L 920.3 694.6 L 926.3 698 L 930.4 698.8 L 932.7 696.9 L 934.4 697.9 L 935.6 701.8 L 937.6 705 L 940.4 707.7 L 947.5 711.2 L 958.7 715.7 L 966.8 717.8 L 972 717.5 L 975.6 716.4 L 977.8 714.3 L 980.4 713.4 L 983.2 713.5 L 986.2 712.7 L 989.3 710.8 L 993.5 710.1 L 998.9 710.6 L 1002.4 710.4 L 1004.5 709.2 L 1008.3 709 L 1010.4 708.1 L 1012.3 706.4 L 1018.6 705.3 L 1029.5 704.8 L 1035.9 705.2 L 1037.9 706.6 L 1039.8 710.7 L 1041.6 717.6 L 1039.5 725.6 L 1033.7 734.7 L 1030.5 742 L 1030 747.5 L 1027.6 752.3 L 1023.5 756.4 L 1021.2 759.2 L 1020.9 760.5 L 1021.5 762.5 L 1023.2 765 L 1021.4 769.2 L 1016.3 774.9 L 1012.2 785 L 1009 799.4 L 1004 811.4 L 997 821 L 992.1 834.1 L 989.3 850.6 L 988.4 861 L 989.8 867.3 L 987.6 876 L 987.1 882.6 L 987.8 890 L 987.8 895.2 L 987 900" />
<path class="river" d="M 397.8 790.7 L 397.7 798.3 L 398.8 801.6 L 402.3 803.8 L 408.6 804.7 L 413.4 804.4 L 418.6 803.1 L 422.4 804.1 L 424.9 807.2 L 431.7 810.2 L 442.8 813.1 L 449.3 816.9 L 451 821.8 L 453.8 824.4 L 457.7 825 L 459.9 827.2 L 460.6 831.2 L 463.7 834.5 L 469.4 836.9 L 472.4 840.1 L 472.7 844.3 L 474 846.9 L 476.1 848.2 L 478.5 848.5 L 481.1 847.8 L 483.4 847.9 L 485.4 848.7 L 487.3 850.1 L 489.1 852.2 L 493 854.7 L 499 857.6 L 504.3 859.2 L 508.9 859.5 L 512 860.5 L 514.5 862.8 L 519.1 864.9 L 522.2 865.4 L 525.5 865 L 528.3 865.7 L 530.5 867.5 L 533.7 867.7 L 537.9 866.1 L 541.1 866.1 L 543.4 867.6 L 545.8 867.9 L 548.6 867.1 L 551.8 867.9 L 555.5 870.4 L 558.8 870.4 L 561.7 867.8 L 564.1 867.3 L 566 868.7 L 568.6 868.6 L 571.7 866.8 L 574.5 868 L 577 872.2 L 580.5 874.9 L 584.8 876.2 L 588 878.2 L 590.1 880.9 L 593.1 882.2 L 596.8 882.2 L 598.4 883.5 L 597.9 886.1 L 598.2 887.8 L 599.3 888.6 L 601.1 888.8 L 605.1 888.1 L 611.2 886.8 L 615.1 888.2 L 618.9 891.8 L 622.5 894 L 626 894.9 L 629.2 896.6 L 632.1 899.1 L 635.4 900.8 L 639.2 901.9 L 642.8 902 L 646.2 901.2 L 650.2 902.1 L 654.8 904.6 L 657.8 905.7 L 659.2 905.3 L 661.5 901.9 L 664.8 895.4 L 668.5 893 L 672.6 894.6 L 676.6 894.6 L 679.7 893.5 L 682.2 893.6" />
<path class="river" d="M 862.8 2404.7 L 877.8 2406.2 L 886.1 2407.7 L 892.7 2409.6 L 902.3 2414.2 L 914.9 2421.3 L 923.7 2425.3 L 928.5 2426.1 L 933.4 2427.9 L 938.4 2430.7 L 945.3 2432.7 L 954.2 2433.7 L 961.5 2437.1 L 969.8 2445.7 L 971 2446.9 L 972 2448 M 648.4 2263.3 L 651.5 2275.5 L 653.8 2280.8 L 657.6 2284.4 L 665.9 2286.3 L 670.1 2290.5 L 672.8 2297.6 L 673.7 2302.4 L 672.9 2305 L 672.8 2308.3 L 673.5 2312.4 L 672.8 2315.9 L 670.7 2318.9 L 669.2 2323.3 L 668.3 2329.2 L 668.7 2333 L 670.3 2334.8 L 672.6 2336.4 L 675.8 2338 L 682.1 2339.2 L 691.7 2339.8 L 697.7 2341.8 L 700.1 2345.2 L 705.9 2347.6 L 715.2 2349.1 L 720.8 2350.9 L 722.8 2352.8 L 730 2354.6 L 742.5 2356.2 L 749.7 2358.7 L 751.6 2361.9 L 751 2365.2 L 747.8 2368.4 L 746.3 2371.1 L 746.6 2373.3 L 748 2374.6 L 750.4 2375.2 L 753.4 2377.3 L 757.1 2381.1 L 762.7 2382.5 L 770.3 2381.7 L 775.1 2383.2 L 777.3 2387 L 781.4 2389.9 L 790.7 2393.2 L 795.1 2395.1 L 797.1 2396.9 L 798.2 2399.4 L 800.5 2400.9 L 803.9 2401.6 L 818.6 2402.2 L 825.7 2403 L 831.1 2404.5 L 835.1 2404.9 L 837.7 2404 L 840.9 2404.2 L 844.8 2405.5 L 850.7 2405.8 L 862.5 2404.7 M -1138 -472 L -1140.7 -465.5 L -1142.8 -463.1 L -1145.1 -462.5 L -1147.6 -459.7 L -1150.3 -454.7 L -1153 -451.4 L -1155.9 -449.9 L -1157.3 -447.8 L -1157.1 -445.2 L -1156.8 -444.6 L -1156.2 -444.6 L -1155.4 -444.3 L -1154.3 -442.3 L -1153 -441.4 L -1150.7 -441.5 L -1149.7 -440.6 L -1148.5 -439.5 L -1146.6 -438.8 M -1115.6 -533.4 L -1122.3 -529 L -1125.9 -525.3 L -1129.5 -519.4 L -1129 -514.6 L -1129.1 -510.6 L -1130 -507.5 L -1131.4 -504.6 L -1133.3 -501.9 L -1135.2 -500.4 L -1137.3 -499.8 L -1138 -496.3 L -1137.4 -489.9 L -1135.1 -485.9 L -1131.2 -484.5 L -1128.8 -482.4 L -1127.9 -479.5 L -1128.3 -476.7 L -1129.8 -473.9 L -1132.5 -472.4 L -1138 -472 M -1132.8 -577.7 L -1133.6 -563.4 L -1133.6 -559.7 L -1131.5 -555.2 L -1125.1 -547 L -1124.3 -545 M -1138.9 -604.2 L -1138.5 -603 L -1136.7 -600.4 L -1136.5 -596.2 L -1136.3 -592.8 L -1135.2 -591 L -1135 -588.8 M -1063.9 -615 L -1077.1 -608.7 L -1080.7 -605.6 L -1081.9 -603.5 L -1081.8 -597.1 L -1083.1 -594.2 L -1085.8 -594.1 L -1092.1 -595.7 L -1094.4 -596.9 M -1007.4 -641.2 L -1012.2 -637.9 L -1015.9 -633.8 L -1020.1 -627.8 L -1022.7 -623.3 L -1023.5 -620.3 L -1023.2 -616.6 L -1021.6 -612 L -1022 -608.8 L -1024.2 -606.9 L -1028.4 -606.6 L -1034.5 -607.8 L -1038.9 -609.8 L -1041.6 -612.6 L -1043.8 -613.6 L -1045.5 -612.8 L -1047.1 -612.9 L -1048.5 -613.9 L -1048.7 -615.3 L -1047.6 -617.1 L -1047.4 -618.4 L -1048.3 -619.3 L -1050 -619.8 L -1052.7 -619.8 L -1056.5 -618.6 L -1064.1 -615 M -781.7 -771.2 L -786.7 -769.7 L -792.4 -768.3 L -798.8 -768.2 L -803.4 -767.1 L -806.7 -765.3 L -811.2 -761.4 L -813 -760.3 L -814.5 -760.1 L -816.5 -761.4 L -819.2 -761.5 L -822.6 -760.6 L -826.3 -757.6 L -830.4 -752.5 L -832.8 -750.2 L -837 -748.6 L -849.3 -747.6 L -857 -747.6 L -861.6 -746.7 L -865.5 -744.9 L -872 -740.8 L -877.5 -737 L -880.4 -731.5 L -885.2 -728.3 L -890.2 -728 L -900 -731.7 L -902.6 -732.4 L -906 -732.3 L -910 -730 L -915.8 -725.7 L -918.6 -721.7 L -920.3 -716.8 L -922.6 -713.6 L -925.4 -712.4 L -928 -710.3 L -930.3 -707.5 L -931.9 -706.4 L -932.7 -706.7 L -933.5 -706.1 L -934 -703.6 L -934.9 -702.3 L -936.1 -702.2 L -937 -700.8 L -937.7 -698.2 L -939.5 -695.4 L -944.1 -690.8 L -953.4 -682.6 L -958.2 -679.9 L -963 -680 M -781.1 -780.8 L -779.9 -773.2 L -780.1 -772" />
<path class="river" d="M 682.2 893.6 L 682.6 896.4 L 682.8 902.4 L 687.1 908.7 L 695.6 914.7 L 704.2 917.2 L 712.8 916.4 L 722.5 914.4 L 733.3 911.4 L 742.4 910.1 L 750 910.5 L 755.8 911.9 L 760 914.2 L 766.6 916.5 L 775.6 918.7 L 789 917.4 L 806.8 912.7 L 822.2 913.1 L 835.1 918.7 L 843.7 920.7 L 847.8 919.3 L 850.8 920.7 L 853.8 927.1 L 852.5 930.1 L 854.3 935.3 L 859 943.6 L 861.2 948.9 L 861.2 951.4 L 862.4 953.1 L 865.1 954 L 866.1 955.8 L 865.5 958.4 L 866.6 961.8 L 869.5 966.1 L 870.7 969.2 L 870 973.7" />
<path class="river" d="M 845.7 1262.1 L 849 1256.5 L 849.6 1252.2 L 848.5 1247.4 L 848.4 1243.7 L 849.2 1241.2 L 848 1237.9 L 845 1233.8 L 844.6 1230.6 L 847.1 1228.5 L 852.2 1228.1 L 860.1 1229.4 L 865.1 1229.5 L 867.1 1228.4 L 868.3 1226.1 L 868.6 1222.8 L 869.6 1221.1 L 871.3 1220.9 L 873.6 1219 L 876.6 1215.4 L 880.3 1213.5 L 884.8 1213.4 L 888.1 1211.7 L 890.3 1208.3 L 893.1 1206.2 L 896.7 1205.1 L 898.6 1203.6 L 898.8 1201.4 L 900.4 1199.4 L 903.4 1197.4 L 905.1 1195.2 L 905.3 1192.9 L 907.9 1190.8 L 912.7 1188.9 L 916.5 1188.2 L 919.1 1188.8 L 920 1188.2 L 919.4 1186.3 L 920.1 1184.6 L 922.1 1183.3 L 924.4 1180.3 L 928.2 1173.4 L 932.2 1174.5 L 936.8 1173 L 946.6 1167.2 L 947.4 1163.7 L 946.1 1157.9 L 942.8 1148.9 L 942.9 1139.8 L 946.1 1130.6 L 949.1 1125.8 L 951.8 1125.4 L 954.6 1123 L 957.5 1118.5 L 961 1116.1 L 965 1115.7 L 967.5 1114.5 L 968.4 1112.6 L 968.4 1110.9 L 967.5 1109.5 L 968.2 1107.1 L 970.7 1103.7 L 972.2 1100.2 L 972.8 1096.6 L 974.8 1094.7 L 977.2 1094.4 L 978.6 1094.2 L 979.9 1094.3 L 986.1 1094.9 L 988.5 1093.9 L 989.2 1091.4 L 991.1 1088.9 L 994.1 1086.5 L 995.6 1084.4 L 995.6 1082.5 L 996.4 1081.5 L 998 1081.3 L 998.4 1080.7 L 997.5 1079.6 L 1000.4 1078.9 L 1007 1078.5 L 1010.9 1076.6 L 1012.1 1073.3 L 1017.8 1069.9 L 1027.9 1066.5 L 1033.1 1063.2 L 1033.5 1060.1 L 1036.7 1057 L 1041.4 1054.5 L 1044.2 1053.2 L 1045.6 1052.3 L 1047.1 1051.1 L 1048.1 1049.4 L 1052.2 1044.3 L 1055.8 1041.7 L 1058.5 1041.9 L 1061.2 1041.1 L 1064 1039.2 L 1065.5 1036.8 L 1065.5 1033.7 L 1066.2 1032 L 1067.4 1028.9 L 1071.3 1022.4 L 1074.8 1019.7 L 1076.8 1019.7 L 1078.7 1019.9 L 1079.8 1019.7 L 1080.9 1019.4 L 1082 1018.8 L 1083.2 1017.8 L 1085.7 1015 L 1088.4 1011.3 L 1089.7 1006.8 L 1092.7 1003.1 L 1097.4 1000 L 1099.6 996.9 L 1099.3 993.7 L 1103 988.8 L 1115.4 978.6" />
<path class="river" d="M 398.8 766 L 407.9 767.9 L 412 767.8 L 415.3 765.8 L 427.6 759 L 431.7 755.7 L 431.6 753.8 L 432.8 751.7 L 435.4 749.6 L 436.4 747.6 L 436 745.8 L 438.6 740.8 L 444.3 732.6 L 447.7 724.2 L 448.7 715.8 L 453 704.9 L 460.6 691.6 L 465.1 681.7 L 466.7 675.5 L 466.5 672.2 L 464.7 672.1 L 465 666.3 L 468.7 649.2 L 469.3 635.5 L 470.6 628.3 L 472.8 623 L 473.7 618.3 L 473.2 614.1 L 473.9 609.7 L 475.7 605.1 L 476.5 600.6 L 476.4 596.3 L 478.3 592.2 L 482.2 588.3 L 484.2 584.1 L 484.1 579.8 L 486.9 576 L 492.5 572.7 L 497.5 568.7 L 501.9 564.1 L 503.7 559.5 L 502.7 554.8 L 503.4 547.1 L 505.8 536.6 L 506.5 528.6 L 505.3 523.3 L 505.6 519.5 L 508.1 516.4 M 507.8 516.4 L 509.1 509.2 L 508.3 500.9 L 506 489.1 L 502 482.5 L 496.3 481 L 490.7 478 L 485.1 473.6 L 481.3 471.7 L 479.2 472.2 L 477.2 471 L 475.1 468.2 L 473 466.5 L 469.8 465.4 L 468 464.4 L 467.7 462.3 L 468 458.6 L 467.2 454.4 L 465.3 449.6 L 465.1 445.6 L 466.5 442.5 L 465.8 439.5 L 463 436.7 L 463.8 430.9 L 468.2 422 L 470.4 414.5 L 470.4 408.2 L 469 402.9 L 465.7 397.3" />
<path class="river" d="M 394.4 1242.8 L 390.6 1231.8 L 388.4 1225.1 L 388.4 1220.8 L 389.7 1216.5 L 385.6 1210.8 L 376.1 1203.6 L 370 1196.8 L 367.3 1190.5 L 365.1 1186.8 L 363.2 1185.8 L 361.4 1182.9 L 359.6 1178.1 L 357.5 1174.5 L 355.2 1172.2 L 354 1168.1 L 354 1162.3 L 350.1 1150.9 L 342.4 1134.1 L 338.4 1123.1 L 338 1117.8 L 336.3 1112.4 L 333.2 1106.7 L 330 1102.8 L 326.5 1100.6 L 323.7 1097.5 L 320.7 1091.5 L 315.9 1089 L 312.9 1086.1 L 310 1082 L 310.5 1075.9 L 314.5 1067.8 L 317.5 1063.1 L 319.5 1062 L 320.4 1059.5 L 320.3 1055.6 L 321.3 1053.2 L 323.4 1052.1 L 324 1049.8 L 323.2 1046.3 L 323.4 1043.8 L 324.7 1042.2 L 325.3 1040 L 325.2 1037.3 L 326.5 1035.6 L 329.1 1034.9 L 330.4 1033.5 L 330.6 1031.3 L 332.2 1030.4 L 335.1 1031 L 340.5 1029 L 348.3 1024.6 L 353.9 1022.4 L 357.4 1022.5 L 360 1023.1 L 361.7 1024.3 L 362.6 1026.1 L 362.5 1028.5 L 363.4 1029.8 L 365.2 1030 L 365.6 1030.8 L 365.1 1031.2 L 365.4 1032.5 L 366.6 1034.3 L 367.6 1034.4 L 368.4 1032.8 L 372.2 1033.5 L 378.9 1036.5 L 385.7 1038.1 L 392.7 1038.1 L 396.4 1038.8 L 397 1040.1 L 398.7 1041.3 L 401.4 1042.2 L 405.1 1042.6 L 409.5 1042.3 L 412.3 1043 L 413.7 1045.2 L 425.6 1046.8 L 430.3 1047 L 431.9 1046.2 L 433.1 1046.5 L 434.1 1047.7 L 436.9 1045.5 L 441.5 1039.8 L 449 1036.4 L 459.3 1035.2 L 465.6 1032.8 L 467.6 1029.1 L 470.6 1026.3 L 474.5 1024.2 L 477.6 1024.5 L 479.8 1027.1 L 483 1029.4 L 487.1 1031.3 L 489.7 1030.7 L 490.9 1027.4 L 492.5 1025.2 L 494.6 1024.2 L 497.5 1024.1 L 501.2 1024.8 L 504.1 1026.4 L 506.5 1028.8 L 510.8 1028.3 L 520.2 1022.9" />
<path class="river" d="M 504.8 656.3 L 503.3 658.8 L 503 661.5 L 503.3 665.3 L 504.2 668.6 L 506.4 672.9 L 510 675.5 L 511 677.6 L 510.4 679.9 L 516.9 682.4 L 530.5 684.9 L 538.5 685 L 540.8 682.7 L 542.8 679.2 L 544.5 674.6 L 546.5 671.9 L 550 670.7 L 560.8 669.9 L 565.1 669 L 566.4 667.5 L 568.8 666.4 L 572.3 665.6 L 575.4 665.7 L 578.2 666.7 L 581.6 665.4 L 585.7 661.8 L 593.7 657.6 L 605.7 652.9 L 613.3 649.3 L 616.7 647 L 619.2 644 L 621 640.2 L 624.5 636.3 L 629.9 632.4 L 632.9 629.5 L 633.5 627.7 L 639.6 624.4 L 651.1 619.5 L 659.3 613.2 L 664.2 605.3 L 669.9 601.1 L 676.2 600.6 L 680.3 599.7 L 683.4 597.9 L 686.4 596.9 L 688.2 597.3 L 689.9 598.8 L 692.9 598.2 L 697.1 595.4 L 703.3 594.9 L 711.3 596.5 L 722 596.5 L 735.2 594.9 L 743.4 593.1 L 746.6 591.2 L 751.9 591.4 L 764.2 594.7" />
<path class="river" d="M 740.4 2411.6 L 750.7 2414.7 L 757.1 2415.6 L 762.9 2415.4 L 768.5 2416 L 773.9 2417.5 L 781.7 2417.8 L 791.8 2416.8 L 800 2416.6 L 806.4 2417.3 L 812.4 2418.8 L 818 2421.1 L 824.2 2422.6 L 830.8 2423.1 L 836.3 2425.9 L 840.6 2431 L 844.1 2436.5 L 846.9 2442.4 L 852.2 2446 L 860.1 2447.3 L 865.7 2449.2 L 868.8 2451.8 L 872.5 2453.8 L 876.8 2455.3 L 881.6 2456 L 886.9 2455.8 L 894.9 2459.5 L 905.6 2467.1 L 912.4 2471.1 L 915.1 2471.7 L 918.9 2474.3 L 926.4 2481.4 L 935 2482.7 L 940.9 2486 L 947.7 2490.9 L 950.2 2494.9 M 647 761.4 L 661.8 759.3 L 673.2 757.3 L 679.6 755.5 L 684.6 753.1 L 690.6 752.8 L 697.5 754.5 L 703.5 755.2 L 708.3 755.1 L 712.8 753.1 L 716.7 749.2 L 720.9 748.5 L 725.5 750.8 L 729.8 748.7 L 733.9 742.2 L 736.4 739.3 L 737.2 740 L 738.2 739.3 L 739.4 737 L 742.7 734.3 L 746.6 731.8 L 750.3 730.2 L 754.3 731.5 L 756.3 731.8 L 757.2 732.8 L 758.3 736 L 759.6 736.5 L 761.6 737.8 L 765.4 741.2 L 768.6 744.7 L 771 746.4 L 772.7 748 L 773.2 750.3 L 772.5 752.6 L 774.5 758 L 775.9 759.6 L 776.6 761.7 L 775.9 763.7 L 777.6 766.1 L 781.6 776.6 L 781.9 779.8 L 782.8 781.2 L 783.9 785.5 L 785.8 789.5 L 785.4 792.3 L 786.2 795 L 786.8 803 L 786.1 806.4 L 784.3 807.8 L 780.8 808.5 L 775.7 808.4 L 771.9 813.2 L 768.3 827.9 L 770 837.9 L 773.1 843.8 L 778.1 849 L 781.8 851.4 L 784.3 850.7 L 790.3 852.8 L 799.9 857.6 L 806.4 859.3 L 809.9 857.9 L 814.5 857.2 L 820 857.1 L 823.7 856.3 L 825.6 854.9 L 827.8 854.8 L 830.6 855.9 L 834.2 856.2 L 838.8 855.9 L 843.6 856.8 L 851.1 860.2 L 861.4 862.5 L 869.7 862.2 L 884.5 858.9 L 895.7 856.8 L 903 856.4 L 910 857 L 916.6 859.5 L 922.7 863.9 L 929.6 867.7 L 941 872.4 L 946.9 879.3 L 952.9 883.7 L 964.9 890.2 L 984.9 899.5 L 987 900 L 990.4 900 L 993.6 900.5 L 997.5 902.4 L 1000.8 905.7 L 1003.5 910.2 L 1004.9 914 L 1005 917.1 L 1008.2 921.6 L 1014.5 927.5 L 1016.8 930.6 L 1018.8 933.4 L 1020.9 939 L 1026.3 946.8 L 1039.7 961.7 L 1044.6 965.9 L 1048.2 967.4 L 1052.2 967.6 L 1056.3 968.6 L 1060.6 970.6 L 1063.6 971.2 L 1066.8 969.9" />
<path class="river" d="M 924.5 748.7 L 916.3 751.1 L 912.6 753.3 L 910.7 756 L 907.9 757.4 L 902.2 757.6 L 890.6 753 L 885.4 751.9 L 882.7 752.8 L 874.5 750.6 L 860.7 745.3 L 853.7 740.1 L 853.5 734.8 L 851.7 730.8 L 848.4 728.1 L 845.8 724.9 L 843.8 721.1 L 841.9 718.8 L 840 717.8 L 836.9 717.4 L 830.5 717.8 L 823.7 717 L 820.9 718.2 L 819.9 721.4 L 816.2 722.5 L 809.7 721.7 L 804.8 719.8 L 801.3 717 L 799 714 L 798 710.7 L 795.4 706.6 L 789.2 699.1 L 783.3 695.1 L 781.1 691.7 L 780.5 687.4 L 776.5 685.4 L 769 685.4 L 761.9 684 L 751.7 679.8 L 749.7 675.3 L 749 671.8 L 749.2 668 L 748.4 665 L 746.8 662.9 L 746.8 656.5 L 748.4 645.8 L 748.8 637.7 L 748 632.2 L 749.5 627.9 L 753.2 625.1 L 755.3 620.6 L 755.8 614.5 L 758 609.5 L 762.1 605.6 L 763.5 601.8 L 762.2 598 L 764.2 594.7 L 765.1 593.2 L 772.1 587.3 L 776.4 580.4 L 778.7 568.6 L 778.3 561.3 L 782.8 556.5 L 792 551.9 L 798.7 546.7 L 802.8 540.8 L 809.4 537.3 L 818.5 536.2 L 824.9 533.9 L 830.7 528.8 L 835.8 526.7 L 840.8 526.4 L 847.2 527.1 L 852.7 528.1 L 857.4 529.5 L 861.4 531.6 L 864.5 534 L 865.5 535.2 L 866.1 535.7 L 866.7 535.8 L 867.5 535.7 L 868.1 535.6 L 870.2 535.1 L 872 534.1 L 878.1 532.1 L 881.3 529.5 L 880.2 526.8 L 879.9 524.7 L 880.5 523.3 L 882.5 522.4 L 885.9 522.2 L 888.5 521.3 L 890.3 519.8 L 892.9 520.1 L 895.6 522.2 L 897.2 523.2 L 898.2 523.4 L 899.8 523.5 L 902.1 523.4 L 904.9 521.9 L 907.9 518.7 L 912.8 516.9 L 919.6 516.6 L 926 514.7 L 932 511.4 L 938 510.2 L 943.9 511 L 950.4 509 L 957.5 504.2 L 965 500.1 L 972.8 496.9 L 976.1 496.6 M 976.1 496.6 L 978.5 496.3 L 982.2 498.3 L 987.1 499 L 996.3 498.1 L 997.6 498.4 L 1006.6 491.3 L 1018.5 484.5 M 979.7 480.7 L 979.1 483.2 L 979.6 485.1 L 981.2 486.4 L 980.7 489.1 L 976.7 495.3 L 976.1 496.6 M 992.9 456.8 L 992.6 457.9 L 988.3 470.6 L 985.3 476.1 L 980.5 480 L 979.7 480.7 M 970.2 450.5 L 969.8 452.1 L 969.2 453.2 L 965.6 459.6 L 966.6 465.2 L 971.1 472.3 L 975 476.8 L 978.3 478.6 L 979.7 480.7" />
<path class="river" d="M 270.8 478 L 275.8 483.5 L 276.4 485.2 M 261.4 471.4 L 261.3 470 L 261.8 467.6" />
<path class="river" d="M 562.9 1280.3 L 566 1282.8 L 571.2 1282.6 L 583.6 1279.4 L 588.1 1275.2 L 592.6 1272.9 L 598.6 1271.3 L 605 1268.2 L 611.7 1263.6 L 614.8 1260.6 L 614.4 1259.3 L 615.2 1258.1 L 617.3 1256.9 L 618.8 1253.5 L 619.8 1248 L 623.1 1242.8 L 628.9 1237.8 L 632 1234.1 L 632.5 1231.6 L 634 1230 L 636.5 1229.2 L 638.4 1226.8 L 639.6 1222.7 L 642.2 1219.4 L 646.3 1216.8 L 648.5 1214.6 L 648.8 1212.8 L 651.5 1211 L 656.5 1209.4 L 660.7 1209.2 L 664.3 1210.3 L 666.7 1210.1 L 667.9 1208.7 L 670 1208 L 674.3 1207.9 L 675.9 1208.5 L 676.9 1207.9 L 677.8 1206.6 L 679 1206.1 L 680.9 1206.2 L 683.9 1204.6 L 687.7 1201 L 693.2 1198 L 700.2 1195.5 L 703.8 1195.3 L 705.2 1195.9 L 706.1 1196.9 L 707.9 1197.3 L 709.9 1196.9 L 712.4 1197.9 L 715.5 1201.4 L 717.1 1204.2 L 717.3 1206.3 L 718.3 1207.2 L 720.1 1206.8 L 721.3 1207.2 L 722 1208.5 L 724.6 1208.7 L 729.2 1207.9 L 732.2 1207.9 L 733.6 1208.8 L 736.7 1207.9 L 744 1203.9 L 760.3 1197.1 L 766 1193.3 L 766.4 1190.1 L 765.9 1189 L 765.1 1188.4 L 764.9 1187.4 L 765.3 1185.5 L 765.1 1184.3 L 764.6 1183.7 L 764.7 1183 L 766.9 1181.2 L 767.2 1179.7 L 766.5 1178.6 L 766.8 1177.7 L 767.4 1176.1 L 770.5 1171.9 L 771.8 1168.7 L 771.2 1166.4 L 773.1 1163.4 L 777.6 1159.6 L 779.2 1157.7 L 779.4 1156.8 L 780.2 1156.2 L 781.2 1156.2 L 782.1 1155.5 L 782.5 1153.9 L 784.3 1152.7 L 787.5 1151.9 L 789.6 1152.1 L 790.8 1153.2 L 792.5 1152.7 L 794.7 1150.6 L 797.1 1150 L 799.4 1150.8 L 800.8 1150.5 L 801.3 1148.9 L 803.1 1147.4 L 806.3 1146.1 L 807.9 1146.7 L 808.1 1148.2 L 809.4 1148.9 L 811.7 1148.5 L 813.5 1149.3 L 814.7 1151.3 L 816.5 1152.1 L 818.6 1152.1 L 819.6 1153.2 L 820.6 1153.6 L 823.1 1152.8 L 825 1153 L 826 1153.9 L 827.2 1153.9 L 828 1153.1 L 829.9 1153.2 L 831.8 1153.7 L 834.5 1153.4 L 835.5 1152.3 L 836.7 1151.6 L 838.4 1151.7 L 839.8 1151.1 L 840.6 1149.8 L 842 1149.5 L 843.5 1149.6 L 844.4 1149.1 L 844.3 1148.2 L 845.1 1147.7 L 846.1 1147.9 L 846.6 1147.2 L 846.3 1146.3 L 846.9 1145.5 L 849.4 1143.8 L 852.4 1142.2 L 853.8 1142.1 L 854.9 1142.8 L 855.5 1141.7 L 855.7 1138.8 L 856.7 1138.1 L 857.7 1138 L 860.2 1138.7 L 862 1138.2 L 862.6 1136.4 L 863.3 1136 L 864.3 1135.7 L 866.8 1136.7 L 870 1135.8 L 874.1 1132.8 L 875.9 1130.9 L 875.4 1130.1 L 875.8 1129.5 L 877.1 1129.2 L 877.2 1128.7 L 877.3 1128.2 L 878.3 1127.6 L 878.3 1126.5 L 876.2 1122.8 L 876.3 1120.5 L 878.5 1119.5 L 879.1 1118.6 L 878.1 1117.7 L 877.9 1116.4 L 878.3 1114.6 L 879.6 1113.7 L 881.9 1113.6 L 883.2 1112.7 L 883.6 1111.1 L 885.1 1109.6 L 887.9 1108.2 L 889.8 1104.5 L 891.3 1095.3 L 889.6 1086.4 L 887.5 1082.8 L 884.4 1081.4 L 883.6 1080.1 L 885 1078.7 L 885.8 1076.9 L 886.1 1074.5 L 887 1073.2 L 888.7 1072.9 L 889.3 1071.9 L 888.8 1070.3 L 890.1 1069.3 L 893.1 1069 L 894.5 1069.5 L 894.5 1070.6 L 895.3 1071.2 L 896.8 1071.5 L 898 1070.9 L 898.8 1069.5 L 901 1068.9 L 904.8 1069 L 907.6 1070.3 L 909.4 1073 L 912.1 1074 L 915.6 1073.5 L 916.7 1074.2 L 916.5 1075.7 L 916.9 1076.9 L 918.3 1077.8 L 920.3 1077.4 L 922.7 1075.6 L 924.9 1075.1 L 926.6 1075.9 L 929.8 1074.7 L 934.4 1071.6 L 935.7 1071.8 L 936.2 1072.7 L 937.1 1074 L 939.1 1074.5 L 940 1073.7 L 939.5 1070.2 L 940.1 1068.3 L 941.9 1067.7 L 942.2 1066.6 L 942.8 1064.2 L 943.8 1063.7 L 944.6 1062.8 L 946 1062.8 L 947.8 1062.5 L 948.9 1061 L 948.9 1056.3 L 948.5 1053.6 L 947.6 1052.8 L 948.3 1051.4 L 950.7 1049.5 L 951.5 1047.7 L 951 1046 L 952.1 1043.9 L 954.1 1043 L 955.8 1043.3 L 957.5 1042.7 L 958.1 1041.7 L 958.6 1040.2 L 960.1 1039.5 L 961.7 1039.7 L 963.2 1038.7 L 963.7 1037.5 L 963.1 1036.2 L 964 1034.9 L 966.4 1033.7 L 969.6 1033.3 L 973.6 1033.8 L 977.6 1031.7 L 979.1 1030.4 L 980.9 1028.7 L 981.6 1026.6 L 980.6 1024.6 L 981.3 1022.9 L 982.6 1022.3 L 985.4 1021.7 L 987.3 1020.3 L 988.1 1018 L 990.7 1016.3 L 995.1 1015 L 999.8 1010.9 L 1004.7 1003.9 L 1006.2 998.3 L 1003.7 992" />
<path class="river" d="M 683.9 2102.2 L 684.8 2102 L 693.3 2101.7 L 697.6 2102.7 L 699.6 2105.1 L 700.6 2107.5 L 700.6 2110.2 L 703 2111.7 L 707.6 2112.1 L 713.1 2111.6 L 719.3 2110 L 722.8 2109.8 L 724.2 2111.5 L 726.2 2113.9 L 726.6 2117.2 L 726.1 2122 L 726.9 2126.4 L 729.1 2130.3 L 729.7 2132.9 L 730.1 2134 L 731.9 2134.5 L 737.4 2134.1 L 742 2135.6 L 745.8 2139 L 751.3 2141.1 L 758.4 2141.9 L 763.1 2143.5 L 766.6 2146.8 M 66.5 397 L 77.8 400 L 83.5 402.6 L 87.2 405.7 L 89.2 408.1 L 89.6 409.7 L 90.7 410.6 L 93.6 410.8 L 100.7 412.4 L 105.1 412.1 L 109 410.4 L 111.2 408.3 L 111.9 405.2 M 12.8 353.2 L 22.2 357.6" />
<path class="river" d="M 1116.6 1285.5 L 1119.4 1273 L 1122.5 1267.3 L 1126.9 1264.1 L 1130.4 1257.4 L 1133.2 1247.3 L 1133.9 1238.3 L 1132.8 1230.6 L 1129 1225.2 L 1122.5 1222.2 L 1118.6 1218.3 L 1117.2 1213.4 L 1117.4 1208.9 L 1119 1204.6 L 1122.4 1200.4 L 1127.6 1196.2 L 1128.7 1193.7 L 1125.9 1192.7 L 1126 1186.9 L 1128.9 1176.2 L 1129.9 1167.9 L 1128.9 1162.1 L 1129.8 1157 L 1132.7 1152.7 L 1134.1 1148.8 L 1134.1 1145.1 L 1135 1142.3 L 1137.6 1139.3 L 1137.2 1136.2 L 1133.9 1131.3 L 1127.6 1123.6 L 1124.8 1117.4 L 1125.5 1112.6 L 1128.1 1108.4 L 1132.3 1104.6 L 1137.3 1102.1 L 1143 1100.6 L 1148.3 1098.2 L 1153 1094.9 L 1155.9 1090.6 L 1157.1 1085.3 L 1163.5 1078.2 L 1175.3 1069.3 L 1181.6 1062.7 L 1182.6 1058.5 L 1184.6 1055.1 L 1187.6 1052.8 L 1190.5 1047.6 L 1193.4 1039.7 L 1196 1034.9 L 1198.2 1033.5 L 1201 1033.2 L 1204.4 1034 L 1207.6 1032.9 L 1210.4 1029.9 L 1212.2 1026.5 L 1212.8 1022.5 L 1217.3 1018.4 L 1223.2 1015.5 L 1225.8 1014.2 L 1232.2 1010.1 L 1236.5 1006.2 L 1241 1000.7 L 1247.9 990 L 1254.4 976 L 1257.9 964.1 L 1260.7 949.5 L 1264.1 941.6 L 1268.2 940.3 L 1271.9 940.1 L 1278.3 941.4" />
<path class="river" d="M 593.4 1460.9 L 593.8 1456.1 L 594.7 1454.3 L 596 1454 L 596.3 1452 L 595.5 1448.5 L 596.3 1444.8 L 600.1 1439 L 601.9 1435.1 L 601.9 1430 L 600.6 1422.6 L 599.4 1417.8 L 598.2 1415.5 L 596.2 1413.7 L 593.3 1412.4 L 590.6 1408.8 L 588.1 1402.8 L 583.5 1399.5 L 576.8 1398.8 L 570.8 1396.6 L 565.4 1392.9 L 558 1389 L 548.5 1384.9 L 541.8 1383.5 L 537.9 1384.8 L 534.7 1385 L 531 1383.9 L 520.6 1374 L 517.3 1369.4 L 517.4 1366.9 L 516.4 1362.8 L 514.1 1357.3 L 511.1 1352.7 L 507.2 1348.9 L 503 1342.5 L 498.4 1333.5 L 497.4 1327 L 500.1 1323.1 L 498.4 1315.4 L 492.3 1303.9 L 489.3 1296.8 L 489.3 1294.1 L 491.4 1292.7 L 495.6 1292.8 L 500.3 1294.1 L 505.6 1296.7 L 509.2 1297.8 L 510.9 1297.5 L 511 1294.4 L 509.2 1288.5 L 508.7 1283 L 509.6 1278 L 507.5 1273.8 L 502.6 1270.6 L 499.5 1266.8 L 498.4 1262.5 L 498.3 1258.8 L 499.1 1255.7 L 498.9 1254.5 L 498.1 1253.9 L 497.6 1253.3 L 498 1251.4 L 498.9 1250.3 L 499.5 1249.3 L 499.2 1248.7 L 498.5 1248.4 L 497.3 1246.9 L 496.8 1244.7 L 497.4 1243.6 L 499.1 1243.6 L 500.3 1242.6 L 501.1 1240.6 L 499.6 1239.6 L 495.7 1239.4 L 493.6 1237 L 493.2 1232.1 L 492.4 1228.6 L 491.1 1226.2 L 489.7 1225.7 L 488.9 1225.7 L 488.3 1225.2 L 487.9 1224.3 L 487 1222.8 L 484.4 1220.9 L 483.4 1217.9 L 483.9 1213.8 L 483.1 1211.7 L 481.7 1210.7 L 481.2 1209.7 L 481.4 1208.6 L 481.2 1207.7 L 480.5 1207.3 L 478 1200 L 479.2 1195.3 L 483.4 1190.8 L 486.3 1188.8 L 488.1 1189.3 L 489 1188.1 L 488.8 1185.2 L 487.7 1184.3 L 485.5 1185.4 L 483.6 1185.4 L 481.9 1184.2 L 480.6 1183.8 L 479.7 1183.8 L 479.3 1182.7 L 479.2 1178.8 L 478.2 1176.3 L 476.3 1175.4 L 475.6 1174.2 L 476.2 1172.7 L 475.8 1172 L 474.4 1172.2 L 474 1171.1 L 474.5 1168.9 L 474.1 1167.1 L 472.9 1165.6 L 471.3 1164.9 L 470.5 1164.9 L 469.8 1164.3 L 470.4 1163.6 L 470 1162.5 L 466.8 1161.2 L 465.1 1161.2 L 464.7 1162.8 L 463.5 1162.7 L 461.4 1161 L 460.8 1159.4 L 461.6 1158.1 L 461 1155.9 L 458.9 1152.8 L 458.9 1151.9 L 459.8 1151.7 L 460.3 1150.7 L 458.8 1148.1 L 458.8 1145.6 L 460.1 1143.3 L 458.7 1140.3 L 454.5 1136.9 L 451.6 1135.3 L 449.9 1135.7 L 449.2 1135.2 L 449.5 1133.8 L 448.6 1133 L 448.1 1132 L 448.8 1130.8 L 453.3 1127.7 L 454 1126.2 L 453.7 1125.2 L 452.7 1124.1 L 453.4 1121.7 L 455.8 1118.7 L 456 1115.5 L 454.2 1112.2 L 454.3 1110 L 455.2 1109 L 454.4 1107 L 452.9 1105.4 L 452.3 1103.7 L 453.3 1102.3 L 453.3 1099.3 L 451.9 1094.9 L 452.2 1091.7 L 454.2 1089.7 L 455.4 1089.7 L 456.2 1089.9 L 456.9 1089.5 L 457.3 1088.5 L 458.7 1088 L 461 1088.5 L 463.9 1087.5 L 467.5 1084.7 L 469.3 1084.8 L 470.6 1084.9 L 471.6 1084.5 L 471.7 1083.1 L 473.6 1079.9 L 477.3 1075.7 L 480.2 1074.5 L 482.2 1076.2 L 483.6 1076.4 L 484.3 1075.1 L 485.2 1074.9 L 486.2 1075.4 L 487.3 1074.9 L 488.2 1072.1 L 489.8 1070.4 L 491.9 1069.5 L 492.5 1068.5 L 492.1 1067.6 L 492.3 1066.7 L 493 1065.8 L 492.9 1064.7 L 492.6 1064.1 L 492.7 1063.5 L 493.2 1062.7 L 493.4 1061.8 L 493.1 1061.1 L 493.7 1060.2 L 495.4 1059.1 L 496.1 1057.5 L 495.7 1053.9 L 496.2 1050.2 L 497.7 1046.5 L 498.6 1046.1 L 499.6 1046.1 L 501.1 1047.8 L 503.7 1047.5 L 507 1045 L 508.7 1042.7 L 509.1 1041 L 510.1 1040.5 L 511.2 1040.7 L 511.5 1039.7 L 510.8 1038.3 L 511.6 1036 L 514.3 1033.6 L 516 1033.2 L 517.2 1033 L 517.5 1032.2 L 517.3 1030.9 L 517.9 1029.4 L 520.1 1027.2 L 520.2 1025.9 L 519.5 1025.5 L 519.2 1024.7 L 520.2 1022.9" />
<path class="river" d="M 1326.3 1304.4 L 1331.9 1298.5 L 1333.2 1293.5 L 1332.1 1287.5 L 1333.5 1283.2 L 1337.5 1280.6 L 1340.1 1274.7 L 1341.3 1265.6 L 1342.9 1260.1 L 1344.9 1258.2 L 1345.3 1256.4 L 1344.2 1254.6 L 1343.8 1252.5 L 1344.1 1250.1 L 1346.4 1246.5 L 1350.7 1241.6 L 1354.1 1238.6 L 1356.7 1237.3 L 1358.9 1234.9 L 1360.7 1231.3 L 1365.1 1230.1 L 1372.2 1231 L 1376.2 1229.6 L 1377.1 1225.8 L 1379.1 1222.2 L 1382.1 1218.6 L 1383 1215.6 L 1381.7 1213.2 L 1381.1 1209.5 L 1381 1204.7 L 1379.1 1201.2 L 1375.5 1199 L 1372.7 1195.9 L 1370.7 1191.7 L 1367.8 1189.2 L 1364.1 1188.3 L 1361.4 1186.9 L 1359.8 1184.9 L 1358.8 1182 L 1358.5 1178.1 L 1356.7 1172.6 L 1353.6 1165.6 L 1354.6 1154.8 L 1359.6 1140.4 L 1363.8 1130.9 L 1367.3 1126.6 L 1371.9 1123.8 L 1377.8 1122.6 L 1381.9 1120.1 L 1384 1116.3 L 1384 1112.7 L 1381.9 1109.3 L 1379.1 1107.5 L 1375.7 1107.1 L 1372.3 1104.9 L 1368.9 1100.7 L 1366.9 1097.1 L 1366.3 1092.3 L 1363.8 1089 L 1363 1085.8 L 1362.9 1081.5 L 1361.1 1075.6 L 1357.6 1067.9 L 1354.2 1063.1 L 1351.1 1061.1 L 1349 1057.2 L 1347.9 1051.5 L 1350 1042.5 L 1353.3 1035 L 1355.3 1030.3 L 1357.1 1022.8 L 1355.5 1019.9 L 1355.7 1017.1 L 1357.7 1014.4 L 1358.9 1009.6 L 1359.8 999.4 M 1359.9 999.2 L 1370.6 988.7 L 1375.1 982.4 L 1377 976.8 L 1380 975.9 L 1384.1 979.5 L 1386.4 982.5 L 1386.9 984.8 L 1388.2 986.6 L 1390.5 987.9 L 1393 987.3 L 1395.7 985 L 1396.8 982.7 L 1396.1 980.4 L 1396.8 977.4 L 1398.9 973.5 L 1398.2 970.8 L 1395 969.1 L 1391 965.6 L 1386.3 960.2 L 1384.3 955.4 L 1384.9 950.9 L 1382.8 944.2 L 1380.7 940.1 L 1378.3 935.3 L 1375.5 926.2 L 1374.3 914.4 L 1375.1 911.8 L 1376.5 910.1" />
<g class="city"><circle cx="496.21149332632785" cy="659.2013979019667" r="5" /><text x="508.21149332632785" y="663.2013979019667">Bogota</text></g>
<g class="city"><circle cx="436.2206681235257" cy="591.6933905002293" r="5" /><text x="448.2206681235257" y="595.6933905002293">Medellín</text></g>
<g class="city"><circle cx="784.4212337015995" cy="421.7351509526918" r="5" /><text x="796.4212337015995" y="425.7351509526918">Caracas</text></g>
<g class="city"><circle cx="261.47507815058043" cy="933.3411050411112" r="5" /><text x="273.47507815058043" y="937.3411050411112">Guayaquil</text></g>
<g class="city"><circle cx="399.02140654869334" cy="707.3199865709087" r="5" /><text x="411.02140654869334" y="711.3199865709087">Cali</text></g>
<g class="city"><circle cx="593.6728057839523" cy="412.5262267269519" r="5" /><text x="605.6728057839523" y="416.5262267269519">Maracaibo</text></g>
<g class="city"><circle cx="467.3908289622492" cy="403.275798215662" r="5" /><text x="479.3908289622492" y="407.275798215662">Barranquilla</text></g>
<g class="city"><circle cx="741.6708543691109" cy="432.6347313373006" r="5" /><text x="753.6708543691109" y="436.6347313373006">Valencia</text></g>
<text class="map-title" x="80" y="105">Venezuela Physical Study Map</text>
<text class="map-subtitle" x="80" y="145">Landmark: Angel Falls | Study terrain and water systems</text>
  <text class="footer" x="80" y="1036">Made with Natural Earth. Free vector and raster map data @ naturalearthdata.com.</text>
</svg>
