<?xml version="1.0" encoding="UTF-8"?>
<svg xmlns="http://www.w3.org/2000/svg" width="1600" height="1100" viewBox="0 0 1600 1100" role="img" aria-labelledby="title desc">
  <title id="title">Vietnam Physical Study Map</title>
  <desc id="desc">Made with Natural Earth. Free vector and raster map data @ naturalearthdata.com.</desc>
  <defs>
    <linearGradient id="terrain" x1="0" x2="1" y1="0" y2="1">
      <stop offset="0%" stop-color="#6c8c53" />
      <stop offset="42%" stop-color="#d5c487" />
      <stop offset="72%" stop-color="#b88b5f" />
      <stop offset="100%" stop-color="#f1f5ee" />
    </linearGradient>
    <filter id="softShadow" x="-10%" y="-10%" width="120%" height="120%">
      <feDropShadow dx="0" dy="10" stdDeviation="12" flood-color="#0f172a" flood-opacity="0.16" />
    </filter>
    <style>
      .neighbor { fill: #ffffff; stroke: #94a3b8; stroke-width: 1.2; opacity: 0.72; }
      .country { fill: url(#terrain); stroke: #1f2937; stroke-width: 4; filter: url(#softShadow); }
      .admin1 { fill: none; stroke: #64748b; stroke-width: 1.1; stroke-dasharray: 6 7; opacity: 0.75; }
      .river { fill: none; stroke: #1d9bd1; stroke-width: 3; stroke-linecap: round; opacity: 0.88; }
      .lake { fill: #8ed1ea; stroke: #0ea5e9; stroke-width: 1.5; opacity: 0.8; }
      .city circle { fill: #ef4444; stroke: #ffffff; stroke-width: 2; }
      .city text, .terrain-label { fill: #172033; font: 700 24px system-ui, sans-serif; paint-order: stroke; stroke: #ffffff; stroke-width: 5; stroke-linejoin: round; }
      .map-title { fill: #0f172a; font: 800 46px system-ui, sans-serif; }
      .map-subtitle { fill: #475569; font: 600 24px system-ui, sans-serif; }
      .footer { fill: #64748b; font: 500 18px system-ui, sans-serif; }
    </style>
  </defs>
  <rect width="100%" height="100%" fill="#d8edf0" />
  <rect x="40" y="40" width="1520" height="1020" rx="32" fill="#ffffff" opacity="0.54" />
  <path class="neighbor" d="M 1899.1 1164.2 L 1899.6 1265.8 L 1900.1 1367.5 L 1872.4 1341.9 L 1840.7 1335.6 L 1833 1344.5 L 1793.5 1345.4 L 1806.7 1320.1 L 1826.4 1311.4 L 1818.2 1277.5 L 1803.3 1251.3 L 1742.8 1224.9 L 1717.1 1222.3 L 1670.3 1193.5 L 1661.1 1208.7 L 1649.1 1211.4 L 1642 1200 L 1641.9 1186.4 L 1618.1 1171.1 L 1651.7 1159.9 L 1673.9 1160.5 L 1671.3 1152.2 L 1625.7 1152.1 L 1613.3 1133.6 L 1585.5 1127.8 L 1572.3 1112.4 L 1614.3 1104.8 L 1630.3 1094.7 L 1680.3 1107.5 L 1685.3 1119.1 L 1694 1169.5 L 1726.2 1188.2 L 1752.3 1155.1 L 1788.1 1136.3 L 1815.8 1136.2 L 1842.5 1147.1 L 1865.6 1158.3 L 1899.1 1164.2 Z M 1399.2 1360.4 L 1402.3 1366.6 L 1402.9 1376 L 1382.6 1399.3 L 1355.9 1406.2 L 1352.1 1402.5 L 1354.9 1391.9 L 1368.4 1372.8 L 1399.2 1360.4 Z M 1687.3 1298.2 L 1684.3 1274.7 L 1689.8 1263.5 L 1696.4 1252.9 L 1703.5 1262.1 L 1703.4 1276.9 L 1687.3 1298.2 Z M 1178.2 954.1 L 1160.5 982.3 L 1183.4 1011.8 L 1178 1026.2 L 1213 1055 L 1176 1058.7 L 1165.6 1080 L 1167 1108.2 L 1137 1129.5 L 1136.2 1160.6 L 1124.1 1208.3 L 1119.5 1197.2 L 1084.1 1211.2 L 1071.8 1192.2 L 1049.5 1190.4 L 1034 1180.4 L 996.9 1191.6 L 985.5 1176.5 L 965.1 1178.2 L 939.4 1174.6 L 934.6 1132.8 L 919.1 1124.2 L 904.1 1097.5 L 899.8 1070.2 L 903.4 1041.3 L 921.9 1020.6 L 927.1 1041.4 L 948.5 1059 L 968.6 1052.7 L 988.5 1055 L 1006.7 1039.2 L 1021.6 1036.5 L 1051.1 1045.2 L 1076.5 1038.5 L 1092.5 995.2 L 1104.5 984.3 L 1115.3 948.9 L 1151.2 948.9 L 1178.2 954.1 Z M 1536.5 1170.5 L 1570.8 1179.6 L 1582.1 1203.5 L 1555.8 1190.6 L 1529.7 1188 L 1512.1 1190.1 L 1490.5 1189 L 1497.9 1171.8 L 1536.5 1170.5 Z M 1458.6 1201.4 L 1437.1 1195.6 L 1431 1182.2 L 1462.5 1180.7 L 1470.3 1191 L 1458.6 1201.4 Z M 1491.6 1015.3 L 1493.8 1032.4 L 1512.2 1035.1 L 1515.2 1047.8 L 1513.5 1075.1 L 1497.4 1072 L 1492.7 1091 L 1505.5 1107.5 L 1496.8 1111.2 L 1484.2 1091.5 L 1475 1051.6 L 1481.2 1026.7 L 1491.6 1015.3 Z M 1335.5 1055.9 L 1371.4 1054.6 L 1402.2 1031.9 L 1407.7 1038.9 L 1382.6 1069.8 L 1359.2 1075.8 L 1329.2 1069.7 L 1277.2 1071.3 L 1250 1075.8 L 1245.5 1099.4 L 1273.4 1127.1 L 1290.3 1113 L 1348.4 1102.4 L 1345.9 1116.7 L 1332.3 1112.2 L 1318.7 1130.5 L 1291.3 1142.5 L 1320.8 1182.5 L 1315.1 1193.2 L 1343.1 1229.2 L 1342.9 1249.7 L 1326.2 1258.8 L 1314 1247.9 L 1329 1222.4 L 1298.4 1234.4 L 1290.7 1225.8 L 1294.7 1213.8 L 1272.3 1195.5 L 1274.6 1165.1 L 1253.8 1174.6 L 1256.4 1210.9 L 1257.7 1255.5 L 1237.9 1260.1 L 1224.5 1250.9 L 1233.4 1222.2 L 1228.6 1192.1 L 1215.5 1191.9 L 1205.8 1170.5 L 1218.7 1150.1 L 1223.2 1125.3 L 1238.8 1078.3 L 1245.4 1065.5 L 1271.9 1042.3 L 1296.2 1051.5 L 1335.5 1055.9 Z M 1253.4 1403 L 1212.1 1381.2 L 1241.1 1375.1 L 1257.5 1384.6 L 1268.4 1394 L 1266.6 1402.4 L 1253.4 1403 Z M 1286.1 1349.3 L 1306.8 1347 L 1334.8 1335.5 L 1330.2 1352.9 L 1283.4 1361.7 L 1241.9 1357.9 L 1241.8 1346.5 L 1266.5 1340 L 1286.1 1349.3 Z M 1190 1343.9 L 1209.3 1341.4 L 1217 1354.6 L 1181 1360.9 L 1159.4 1365.1 L 1142.6 1364.8 L 1153.3 1346.9 L 1170.4 1346.6 L 1178.8 1335.6 L 1190 1343.9 Z M 885.3 1283.4 L 889.5 1294.5 L 949.2 1297.6 L 956.1 1284.7 L 1014 1299.7 L 1025.3 1320 L 1072.1 1325.6 L 1110.3 1344.2 L 1074.8 1356 L 1040.5 1343.5 L 1012.2 1344.3 L 979.9 1342 L 950.7 1336.4 L 914.6 1324.5 L 891.7 1321.4 L 878.7 1325.3 L 821.9 1312.5 L 816.5 1299.1 L 787.9 1296.8 L 809.3 1267 L 847.2 1268.8 L 872.3 1281 L 885.3 1283.4 Z M 756.9 1117 L 762.2 1138.7 L 773 1156.1 L 795.9 1158.9 L 811.1 1178.6 L 803.3 1217.4 L 802 1265.6 L 767.5 1266.3 L 741.2 1240.2 L 701.2 1214.7 L 687.8 1195.8 L 664.2 1170.5 L 648.8 1147.1 L 625 1103.4 L 597.7 1077.4 L 588.5 1050.6 L 577 1026.3 L 548.9 1006.7 L 532.6 980 L 509.1 962.5 L 476.6 928.2 L 473.8 912.3 L 493.9 913.5 L 542.2 919.6 L 569.8 950.1 L 593.9 971.2 L 611.1 984.2 L 640.6 1017.7 L 672.3 1018.2 L 698.5 1039.5 L 716.6 1065.6 L 740.3 1079.9 L 727.8 1105.4 L 745.7 1116.2 L 756.9 1117 Z" />
<path class="neighbor" d="M 701.2 703.2 L 693.8 665.5 L 713.8 639.6 L 754.1 633.6 L 783.3 638.1 L 809.1 650.3 L 823.2 628.8 L 850.8 640.3 L 858.1 661.1 L 854.2 698.5 L 801.8 722.5 L 815.5 741.3 L 782.8 743.6 L 755.8 756.2 L 729.7 751.6 L 717 735.4 L 701.2 703.2 Z" />
<path class="neighbor" d="M 783.3 638.1 L 754.1 633.6 L 713.8 639.6 L 693.8 665.5 L 701.2 703.2 L 673.2 688.8 L 646.6 689.4 L 651.1 664.9 L 623.7 665.1 L 621.2 699.4 L 604.4 744.9 L 594.2 772.5 L 596.4 795.1 L 616.7 796 L 629.3 824.5 L 634.9 851.5 L 652.3 869.3 L 671.2 873 L 687.4 889.2 L 677.2 902 L 656.6 905.7 L 654.2 889.7 L 628.7 876 L 623.3 881.6 L 611 869.6 L 605.6 854.2 L 589.1 836.6 L 574 821.8 L 568.8 840.1 L 562.9 822.8 L 566.3 803.3 L 575.5 773.4 L 590.6 741.4 L 607.7 712.3 L 595.6 683.9 L 596 669.4 L 592.5 652 L 571.7 627.2 L 564.2 611.6 L 575 605.8 L 586.4 578.7 L 573.7 558.1 L 553.9 535.4 L 538.8 508 L 551.9 502.3 L 566.2 468.6 L 588.2 467.2 L 606.4 453.7 L 624.2 446.5 L 637.7 456.1 L 639.5 474.9 L 660.6 476.3 L 652.9 509.1 L 653.7 537.1 L 686.5 518.5 L 695.9 524 L 714.1 523.1 L 720.4 512.2 L 744 514.4 L 767.7 539.7 L 769.6 570.5 L 794.9 597.6 L 793.5 624 L 783.3 638.1 Z" />
<path class="neighbor" d="M 850.8 640.3 L 823.2 628.8 L 809.1 650.3 L 783.3 638.1 L 793.5 624 L 794.9 597.6 L 769.6 570.5 L 767.7 539.7 L 744 514.4 L 720.4 512.2 L 714.1 523.1 L 695.9 524 L 686.5 518.5 L 653.7 537.1 L 652.9 509.1 L 660.6 476.3 L 639.5 474.9 L 637.7 456.1 L 624.2 446.5 L 630.9 435 L 657.4 414.7 L 660.2 422.1 L 676.8 422.9 L 672.1 387.2 L 688.3 382.7 L 706.5 407.3 L 720.5 435.6 L 758.9 435.9 L 771 463.1 L 751.1 471.2 L 742.1 482.4 L 779.5 501.1 L 805.4 537.9 L 825 565.4 L 848.6 587.1 L 856.5 609.1 L 850.8 640.3 Z" />
<path class="neighbor" d="M 624.2 446.5 L 606.4 453.7 L 588.2 467.2 L 566.2 468.6 L 551.9 502.3 L 538.8 508 L 553.9 535.4 L 573.7 558.1 L 586.4 578.7 L 575 605.8 L 564.2 611.6 L 571.7 627.2 L 592.5 652 L 596 669.4 L 595.6 683.9 L 607.7 712.3 L 590.6 741.4 L 575.5 773.4 L 572.5 750.3 L 582.1 726.4 L 571.6 707.9 L 574.1 674 L 561.5 657.8 L 551.3 620.5 L 545.7 581.1 L 532.2 555.3 L 511.7 570.9 L 476.2 593.2 L 458.7 590.4 L 439.4 583.1 L 450.2 544.4 L 443.7 515.2 L 419.2 479.3 L 423 468 L 404.8 464 L 382.7 438.6 L 380.6 413.5 L 391.5 418.2 L 392.1 395.9 L 407.5 388.5 L 404.2 375.2 L 411.3 364.6 L 412.5 332.3 L 436.9 339.5 L 450.8 313.7 L 452.3 298.5 L 469.5 272.4 L 468.6 254.5 L 509 233 L 531.3 238.6 L 528.7 219.5 L 539.6 213.7 L 537.3 201.9 L 555.5 199.6 L 565.9 218 L 579.5 225.4 L 580.5 249.2 L 579.2 275 L 549.7 301 L 545.9 338 L 578.8 332.8 L 586.3 361.5 L 606 367.6 L 596.9 393.5 L 620.1 405.2 L 633.6 410.9 L 656.5 401.8 L 657.4 414.7 L 630.9 435 L 624.2 446.5 Z" />
<path class="neighbor" d="M 916.1 515.7 L 890.5 506.1 L 889.6 479.2 L 905 465.1 L 939 456.4 L 957 457.1 L 963.9 469 L 950.2 482.7 L 943 500.7 L 916.1 515.7 Z M 5.1 -237.4 L 2.6 -255.2 L 24 -263.3 L -4.1 -317.4 L 57.7 -329.9 L 73.7 -336.8 L 96.2 -392.7 L 158 -382.4 L 175.4 -396.5 L 176.8 -427.8 L 202.7 -430.7 L 226.5 -451.4 L 238.7 -454 L 246.9 -432.3 L 273.1 -415.7 L 317.6 -404 L 339.1 -378.9 L 327.1 -342.5 L 338.3 -328.9 L 375.3 -323.6 L 417.3 -319.3 L 455 -299.8 L 474.3 -296.4 L 488.5 -267.6 L 506.8 -249.1 L 541.2 -249.8 L 605.5 -242.8 L 647 -247.2 L 677.8 -242.5 L 723.9 -223.6 L 761.6 -223.6 L 775.4 -213.9 L 811.7 -230.7 L 862.1 -241.5 L 908.8 -242.7 L 945.3 -253.6 L 967.7 -270.3 L 989.5 -280.8 L 984.4 -291.1 L 974.5 -303.1 L 990.8 -323.2 L 1008.4 -320.4 L 1040.4 -314.1 L 1071.5 -330.6 L 1119.1 -342.7 L 1141.9 -363.3 L 1163.9 -372.2 L 1209.1 -376.3 L 1233.7 -372.8 L 1237.2 -383.9 L 1208.9 -405.7 L 1183.9 -415.6 L 1159.9 -404.1 L 1129.2 -409 L 1111.5 -405 L 1103.5 -417.8 L 1125.5 -448.9 L 1140.7 -472.4 L 1178.1 -460.7 L 1222.1 -480.4 L 1221.8 -494.1 L 1249.9 -527.2 L 1267.3 -537.2 L 1266.9 -554.4 L 1249.8 -561.8 L 1275.5 -577.3 L 1314.3 -582.9 L 1355.6 -583.8 L 1402.3 -574.5 L 1429.7 -563 L 1448.9 -531.6 L 1460.6 -518.1 L 1471.5 -499 L 1483 -468.4 L 1537.3 -458.5 L 1574.2 -436.3 L 1586.8 -407 L 1634.2 -407 L 1661.3 -419.3 L 1712.8 -428.5 L 1696.4 -400.4 L 1684.3 -389 L 1673.6 -354.8 L 1652.6 -324.5 L 1614.8 -330 L 1588 -319 L 1596.2 -292.3 L 1591.8 -255.5 L 1575.8 -254.6 L 1576 -238.8 L 1555.9 -257.2 L 1543.5 -239.7 L 1495.3 -226.3 L 1500.2 -209.8 L 1473.2 -211 L 1458.4 -220.8 L 1437 -198.6 L 1402.6 -181.9 L 1377.3 -161.9 L 1333.7 -152.8 L 1310.7 -138.2 L 1277.1 -129.7 L 1293.7 -144.2 L 1287.2 -156.3 L 1311.9 -177.3 L 1295.4 -193.6 L 1268.2 -182.6 L 1233 -160.9 L 1213.8 -140.8 L 1183.2 -139.3 L 1167.3 -124.7 L 1183.7 -103.7 L 1209.3 -98.5 L 1210.3 -84.5 L 1235 -75.4 L 1269.9 -97.7 L 1297.6 -85.6 L 1317.8 -84.7 L 1322.8 -68.4 L 1278.7 -59.7 L 1264.1 -42.9 L 1233.8 -27.2 L 1217.8 -5.4 L 1251.3 11.7 L 1263.6 42.4 L 1282.6 71 L 1303.7 94.9 L 1303.2 118.1 L 1283.7 126.6 L 1291.1 143.3 L 1309.5 152.9 L 1304.7 178.3 L 1296.8 203 L 1279.3 205.8 L 1256.6 239.6 L 1231.3 280.5 L 1202.4 317.7 L 1159.5 346.5 L 1116.1 372.7 L 1081 376.3 L 1061.9 390.2 L 1051.1 380.1 L 1033.5 395.6 L 989.9 411.2 L 956.9 416 L 946.3 448.9 L 929 450.7 L 920.8 428.1 L 928.2 416 L 886.4 406 L 871.6 411.1 L 840.2 403 L 825.4 390.4 L 830.3 372.4 L 801.8 366.7 L 786.8 355 L 760.2 371.6 L 729.9 375.2 L 705 375.1 L 688.3 382.7 L 672.1 387.2 L 676.8 422.9 L 660.2 422.1 L 657.4 414.7 L 656.5 401.8 L 633.6 410.9 L 620.1 405.2 L 596.9 393.5 L 606 367.6 L 586.3 361.5 L 578.8 332.8 L 545.9 338 L 549.7 301 L 579.2 275 L 580.5 249.2 L 579.5 225.4 L 565.9 218 L 555.5 199.6 L 537.3 201.9 L 503.6 197.3 L 514.2 184.2 L 499.6 164.8 L 477.3 177.9 L 451.2 170.2 L 415.2 190.1 L 386.9 213.3 L 361.7 217.2 L 348.1 208.8 L 331.6 208 L 309.3 200.8 L 292.5 208.7 L 271.8 231.9 L 269.2 207.4 L 250.2 213.9 L 213.8 210.9 L 178.6 203.7 L 153.3 190 L 129 183.9 L 118.6 168.9 L 101 164.4 L 69.6 144.1 L 44.6 134.5 L 31.6 142 L -11.7 120.2 L -42.3 100.4 L -51.1 66.1 L -28.7 70.3 L -27.7 54.3 L -40.1 38.4 L -36.9 12.9 L -70.4 -23.6 L -121.7 -36.2 L -131 -60.2 L -154 -74.7 L -159.5 -83.7 L -164.2 -101.4 L -163.1 -113.6 L -182.1 -120.7 L -192.3 -117.5 L -200.2 -146.4 L -191.4 -153.5 L -195.6 -160.8 L -165.9 -175.5 L -144.3 -181.6 L -111.3 -177.5 L -99.5 -197.4 L -59.5 -201.1 L -48.4 -213.4 L 0.7 -230.3 L 5.1 -237.4 Z" />
<path class="neighbor" d="M 623.3 881.6 L 628.7 876 L 654.2 889.7 L 656.6 905.7 L 677.2 902 L 687.4 889.2 L 694.6 892.1 L 713 910.9 L 726 931.8 L 727.8 952.8 L 724.5 966.9 L 727.6 977.7 L 729.8 996.1 L 740.8 1004.7 L 753.1 1032.3 L 752.5 1042.8 L 730.4 1044.9 L 700.9 1021.8 L 664 997.1 L 660.3 981.2 L 642.3 960.3 L 638 934.5 L 626.8 917.5 L 630.2 894.8 L 623.3 881.6 Z M 1178.2 954.1 L 1151.2 948.9 L 1115.3 948.9 L 1104.5 984.3 L 1092.5 995.2 L 1076.5 1038.5 L 1051.1 1045.2 L 1021.6 1036.5 L 1006.7 1039.2 L 988.5 1055 L 968.6 1052.7 L 948.5 1059 L 927.1 1041.4 L 921.9 1020.6 L 944.8 1031.3 L 968.9 1025.4 L 975.2 999 L 988.5 993.2 L 1025.8 986.4 L 1048.2 961.7 L 1063.5 942 L 1077.7 958.2 L 1084.3 947.6 L 1099.2 948.6 L 1101 928.6 L 1102.4 913.3 L 1126.4 891.6 L 1142.1 867.2 L 1154.7 867.1 L 1170.8 882.9 L 1172.2 896.5 L 1192.7 905.1 L 1218.7 914.5 L 1216.5 926.7 L 1195.6 928.3 L 1201.2 943.5 L 1178.2 954.1 Z" />
<path class="lake" d="M 763.1 695.7 L 761.9 694.7 L 759.8 693.2 L 757.9 693.1 L 753.4 691.4 L 749.7 688 L 748.6 684.4 L 745.6 683.9 L 742.1 681.9 L 739.3 679.5 L 737.7 676.6 L 736.7 674 L 736 671.3 L 737 670 L 740.4 670.5 L 744.7 672.2 L 748.4 676.7 L 751.5 682.6 L 752.7 685.2 L 753.7 685.9 L 756.9 685.7 L 759.1 686.4 L 759.9 689 L 759.9 691.2 L 760 691.6 L 760.9 692.1 L 762.6 692.9 L 762.7 693.8 L 763 694.5 L 763.8 695.5 L 763.1 695.7 L 763.1 695.7 L 763.1 695.7 L 763.1 695.7 Z" />
<path class="lake" d="M 710.4 505.5 L 708.7 505.5 L 705.4 506.4 L 704 507.4 L 703.1 507.9 L 702.1 507 L 700.8 504.4 L 700 502.7 L 699.4 501 L 698.8 498.6 L 699.4 498.2 L 700.5 499 L 701.1 500.2 L 702.4 500.7 L 702.9 500.9 L 703.5 501.2 L 704.9 501.4 L 706.3 501.6 L 706.5 503.2 L 707.7 504.2 L 709.5 504.7 L 710.6 504.9 L 710.9 505 L 710.4 505.5 L 710.4 505.5 L 710.4 505.5 Z" />
<path class="lake" d="M 593.9 1007.9 L 593.9 1008.4 L 592.3 1009.2 L 589.4 1009.9 L 586.6 1010.1 L 584.6 1009.8 L 583.8 1008.9 L 581.8 1006.2 L 579.7 1003.5 L 580.4 1002.8 L 582.7 1004.7 L 585.8 1006 L 587.2 1005.7 L 587.8 1005.1 L 586.9 1003.4 L 584 999.9 L 582 998 L 580.8 998.2 L 579.8 999.3 L 578.9 1000.7 L 578.2 1000.5 L 576.4 998 L 574.7 995.1 L 574.8 994 L 576.1 993.5 L 578.2 993.6 L 580.3 994.2 L 582.9 995.9 L 585.4 998 L 586.9 1000.1 L 588.8 1002.9 L 590.7 1005.7 L 592.6 1007.2 L 593.9 1007.9 L 593.9 1007.9 L 593.9 1007.9 L 593.9 1007.9 Z" />
<path class="country" d="M 755.8 756.2 L 782.8 743.6 L 815.5 741.3 L 801.8 722.5 L 854.2 698.5 L 858.1 661.1 L 850.8 640.3 L 856.5 609.1 L 848.6 587.1 L 825 565.4 L 805.4 537.9 L 779.5 501.1 L 742.1 482.4 L 751.1 471.2 L 771 463.1 L 758.9 435.9 L 720.5 435.6 L 706.5 407.3 L 688.3 382.7 L 705 375.1 L 729.9 375.2 L 760.2 371.6 L 786.8 355 L 801.8 366.7 L 830.3 372.4 L 825.4 390.4 L 840.2 403 L 871.6 411.1 L 830 437.8 L 804 467.3 L 797.2 488.9 L 821 521.8 L 850.2 562.5 L 878.5 581.8 L 897.4 606.8 L 911.7 664.5 L 907.5 719.4 L 881.5 739.9 L 845.8 760 L 820.3 786 L 781.5 815 L 770.1 795 L 778.9 773.9 L 755.8 756.2 Z" />

<path class="river" d="M 1023 177.9 L 1019.8 181.2 L 1016.4 182.8 L 1011.8 183.9 L 1005.8 183.2 L 994.6 179.4 M 1025.8 174.3 L 1028.2 166.8" />
<path class="river" d="M 740.7 189.2 L 743.5 190.5 L 748.3 190.7 L 755.8 190.2 L 760.7 188.9 L 762.9 186.7 L 764.7 185.8 L 765.6 185.3 L 768.8 184.6 L 771.3 184.6 L 773.2 185.4 L 774.6 185.3 L 776.1 185.4 L 776.9 185.8 L 777.9 186.8 L 779.4 187.5 L 780.5 187.2 L 781.3 186.1 L 783 185.5 L 785.8 185.6 L 787.5 185 L 788.2 183.6 L 789.7 182.7 L 792.2 182.3 L 793.6 181.5 L 794.5 181.3 L 795.8 181.8 L 797.5 182.1 L 799.6 181.4 L 801 181.8 L 801.6 183.2 L 802.4 183.9 L 803.4 184 L 804 183.5 L 804.3 182.5 L 803.8 181.5 L 802.6 180.7 L 802.5 179.5 L 803.5 178.1 L 806 177.1 L 810.1 176.4 L 812.3 175 L 812.6 172.8 L 815.6 170.3 L 821.2 167.6 L 823.9 165.6 L 823.4 164.5 L 824 162.8 L 825.5 160.5 L 827 159.8 L 828.3 160.6 L 830.2 160.9 L 832.7 160.5 L 835.6 158.6 L 838.8 155.1 L 841.5 154.3 L 843.6 156.4 L 846.3 157.1 L 849.6 156.5 L 851.9 154.8 L 853.2 152.2 L 855.4 151.1 L 858.7 151.7 L 865.1 146.4 L 879.7 129.6 L 882.3 126.1 L 883.1 124.2 L 883.1 122.5 L 883.9 121.1 L 885.5 119.9 L 893.7 118.5 L 915.6 116.2 L 918.3 115.4 L 919.9 115.6 L 921.4 116.3 L 924.4 116 L 928.8 114.8 L 931.9 114.6 L 933.8 115.4 L 936.9 115.5 L 941.3 115.1 L 947.2 115.9 L 958.2 119 L 962.7 121.1 L 965 121.7 L 966.7 121.3 L 968.6 121.9 L 970.7 123.4 L 973.2 126.7 L 976.1 131.9 L 978.1 134.7 L 979.4 135 L 979.8 135.7 L 979.4 136.8 L 979.6 137.8 L 980.4 138.8 L 981.4 138.8 L 982.7 138 L 986.6 135.6 L 989.1 134.4 L 990.4 134.6 L 992 135.6 L 993.8 137.6 L 996.6 138.6 L 1000.4 138.5 L 1002.5 139.1 L 1003 140.2 L 1002.7 141.8 L 1001.5 143.8 L 1002.6 145.6 L 1006.1 147.1 L 1007.4 150 L 1006.7 154.2 L 1007.6 155.9 L 1010.1 155.1 L 1011.7 154.2 L 1012.6 154.4 L 1013.3 155 L 1013.6 155.4 L 1014.4 155.4 L 1014.5 155 L 1015.3 154.3 L 1016.8 154 L 1017.8 154.4 L 1017.6 154.8 L 1018 155.4 L 1019.2 155.7 L 1020.3 155.9 L 1022.4 155.2 L 1024.2 155.8 L 1024.6 157.4 L 1024.1 158 L 1023.4 160.2 L 1023.6 162.4 L 1024.4 163.1 L 1025.6 163.1 L 1026.5 163.5 L 1026.9 163.9 L 1027.6 164.3 L 1029 164.7 L 1030 164.5" />
<path class="river" d="M 622.8 54 L 625.8 57.4 L 628.1 59.2 L 632.2 61 L 636.5 65.8 L 639.8 68.3 L 643.6 70.2 L 645.6 72 L 645.6 73.8 L 646.9 75.2 L 649.3 76.1 L 650.9 78.7 L 651.8 85.1 L 658.5 90.4 L 665 91.6 L 673.5 90.3 L 679.2 90.8 L 682.3 93.2 L 684.2 96.4 L 685 100.4 L 684.7 103 L 683.3 104.4 L 683.1 105.6 L 684 106.7 L 683.3 108.5 L 680.8 111 L 679.5 113.3 L 679.1 117 L 679.3 118.9 L 680.7 121.3 L 683.4 124.4 L 684.8 127.3 L 685 130 L 686.2 133.8 L 688.3 138.6 L 689.1 142.3 L 688.6 144.7 L 688.8 146.7 L 689.6 148.4 L 689.6 152.7 L 688.7 159.7 L 689.4 165.2 L 691.9 169 L 695.4 170.2 L 702.2 168 L 706.7 169.1 L 708.5 170.2 L 709.1 171.5 L 710.3 171.5 L 712 170.1 L 713.5 169.9 L 714.8 170.8 L 716.1 170.8 L 717.2 169.9 L 718.9 169.9 L 721.2 170.8 L 722.8 170.7 L 723.8 169.8 L 725.4 169.2 L 727.5 169 L 729.9 169.8 L 732.7 171.5 L 734.3 171.5 L 734.6 169.9 L 734.1 168.9 L 732.7 168.5 L 731.9 167.7 L 731.6 166.4 L 732.7 164.7 L 734.2 163.4 L 735.3 162.5 L 736.6 162.1" />
<path class="river" d="M 978.5 67.6 L 982.4 70.8 L 983.6 72.6 L 983.5 74.3 L 985 77.1 L 987.9 81 L 992.3 83.3 L 998 84.2 L 1000.7 86.4 L 1000.4 89.9 L 1001.8 92.5 L 1004.8 94.1 L 1007 96 L 1008.3 98.3 L 1008.5 101.1 L 1007.8 104.4 L 1008.3 106.9 L 1011 109.3 L 1012.1 109.7 L 1012.6 110.8 L 1012.9 112.8 L 1012.5 113.5 L 1011.6 114.1 L 1011.1 115.3 L 1012.1 118.4 L 1013.5 120.4 L 1014.6 121.3 L 1014.5 122.3 L 1014.2 123.2 L 1013.7 125.5 L 1014.4 126.8 L 1016.3 127.2 L 1017 128.2 L 1016.9 129 L 1017.1 129.8 L 1018.3 129.9 L 1019.7 130.1 L 1021.3 131.5 L 1022.4 131.6 L 1025.1 131.2 L 1028.2 132.9 L 1032.5 134.3 L 1037.9 135 L 1041.9 133.9 L 1044.7 130.9 L 1046.9 129.1 L 1049.9 128.2 L 1051 128.3 L 1052.1 128.1 L 1052.8 127.6 L 1054.1 127.9 L 1054.8 127.6 L 1055.2 127.1 L 1056 127.2 L 1057.5 128.5 L 1060.2 129.4 L 1066.2 129.9 M 820.1 52.1 L 828.8 49.7 L 833.6 50 L 836.7 51 L 839.7 52.8 L 844.8 52.2 L 852 49 L 857.5 47.9 L 861.3 48.8 L 864 48.6 L 865.7 47.3 L 867.1 46.9 L 868.2 47.4 L 868.7 48.7 L 868.7 50.7 L 871.2 52.2 L 876.2 53.4 L 878.4 55.3 L 877.8 57.9 L 879 60.1 L 882.2 61.9 L 882.9 62.5 L 882.9 63.2 L 883.3 64.6 L 886 68.2 L 890.4 69.6 L 892.5 68.9 L 893.7 66.7 L 894.5 66.2 L 894.9 66.1 L 895.6 66.4 L 896.1 66.6 L 896.7 66.4 L 898.8 65.5 L 903.2 62.4 L 906.7 61.2 L 909.3 61.7 L 911.4 61.1 L 913 59.2 L 916.4 57.7 L 923.6 56.2 L 924.3 56.1 L 925.2 56.2 L 936.8 59.6 L 941.9 60.2 L 943.9 59.1 L 947.2 59 L 952 60 L 954.7 59.9 L 955.4 59 L 957.6 58.9 L 961.5 59.8 L 962.6 60.8 L 962.6 61.3 L 963.6 62.2" />
<path class="river" d="M 823.9 450.5 L 819.8 448.7 L 818 448.4 L 816.7 448.9 L 816.1 448.7 L 816.3 447.8 L 815.9 447.1 L 815 446.8 L 813.8 445 L 812.3 441.7 L 811.1 440.1 L 810.1 440.2 L 808.4 438.8 L 806.2 435.8 L 804.9 432.7 L 804.5 429.5 L 802.6 426.8 L 799.1 424.5 L 796 423.3 L 793.3 423.1 L 791.4 422 L 789.8 419.2 L 786.7 419.8 L 785.1 418.9 L 784 416.8 L 783.2 416.2 L 782.7 417.2 L 780.2 414.9 L 775.8 409.5 L 766.9 401.1 L 747 383.9 L 729.1 369 L 719.2 362.2 L 711.2 358.5 L 702.1 355 L 686.7 349.9 L 679.6 344.2 L 675 339.3 L 670.5 333.3 L 667.6 328.3 L 666.2 324.3 L 664.6 321.3 L 662.7 319 L 660.9 318 L 659.2 318 L 655.5 314.4 L 649.6 307 L 645.9 303.5 L 644.3 303.8 L 640.6 303 L 634.9 300.9 L 631.6 298.9 L 630.1 296.3 L 626.3 289.8" />
<path class="river" d="M 837.1 296.6 L 837.7 296.7 L 838.1 297.4 L 838.3 299.4 L 839.5 301.7 L 840.8 302.7 L 843.8 303.3 L 847.5 307.5 L 848.7 310 L 848.6 312.1 L 850.2 316 L 853.5 321.8 L 855.8 324.9 L 857.2 325.2 L 857.9 326 L 857.9 327.4 L 856.9 328.9 L 855 330.5 L 854.3 332.1 L 854.9 333.8 L 856 335.2 L 857.6 336.2 L 858.9 336.5 L 859.9 336 L 861.7 337.8 L 864.5 341.8 L 867 343.5 L 869.3 342.8 L 871.3 341.6 L 873 339.9 L 874.2 339.3 L 874.8 339.7 L 877 338.3 L 880.8 334.9 L 884.2 333.7 L 887.3 334.6 L 889.8 336.1 L 891.6 338.2 L 893.7 339.5 L 896 339.9 L 897 340.9 L 896.7 342.3 L 897.3 343.8 L 898.7 345.3 L 901.2 345.3 L 904.7 343.8 L 907.2 343.4 L 908.7 344.3 L 910 344.5 L 911.3 344.1 L 912.8 342.7 L 914.4 340.3 L 915.9 339.6 L 917.7 341.1" />
<path class="river" d="M 601.9 206.3 L 602.9 215 L 604.8 221.2 L 608.1 228 L 612.1 233.6 L 616.7 238.1 L 619.2 241.4 L 619.6 243.7 L 620.5 244.2 L 621.9 243.1 L 622.6 240.9 L 622.6 237.5 L 624 234.4 L 626.8 231.5 L 627.8 228.8 L 627 226.5 L 627.4 224 L 629 221.3 L 629.9 218.8 L 629.9 216.5 L 630.9 215.3 L 632.8 215.2 L 633.9 217.8 L 634.4 223 L 635.3 226.2 L 636.8 227.1 L 637.6 229 L 637.8 231.9 L 636.9 233.8 L 635.1 235 L 634.6 236 L 635.6 236.9 L 635.8 239.7 L 635.1 244.3 L 634.3 247 L 633.4 247.6 L 633.4 250.9 L 634.5 256.9 L 634.6 260.7 L 633.9 262.3 L 634 263.7 L 634.9 265.1 L 638.8 266.1 L 645.5 266.9 L 650.6 265.9 L 654 263.1 L 658 261.3 L 662.7 260.5 L 665.7 258.6 L 667.2 255.6 L 670.2 253.9 L 674.7 253.8 L 678 255.1 L 680.2 258.1 L 681.1 261.1 L 680.6 264.3 L 679.8 266.4 L 678.7 267.5 L 678.2 269.4 L 678.4 271.9 L 680.2 273 L 683.8 272.6 L 686.9 270.7 L 689.5 267.1 L 693.3 264.1 L 698.2 261.8 L 701.1 260.9 L 702.1 261.4 L 702.4 262.3 L 702.1 263.7 L 702.8 264.6 L 704.4 265.1 L 706.4 264.2 L 709.1 262.1 L 711.2 261.1 L 712.9 261 L 713.9 260.1 L 714 258.2 L 714.5 256.9 L 715.5 256.1 L 714.7 252.7 L 712.3 246.6 L 711 240.9 L 710.7 235.4 L 711.1 231.5 L 712.2 229.3 L 713.2 228.4 L 714.1 228.9 L 715.6 228.8 L 718.7 227.7 L 720.4 224.6 L 721.6 223.4 L 722.8 223.1 L 723.3 222.5 L 723.1 221.7 L 724.3 220.4 L 726.9 218.5 L 729.1 215.9 L 730.8 212.5 L 730.8 210.3 L 728.9 209.3 L 728 208 L 728.2 206.6 L 729.3 205 L 732.5 202.3 L 733.7 201.9 L 734.8 202.1 L 736.1 202.9 L 737.9 202.5 L 740.4 200.8 L 740.9 198.3 L 739.6 195.1 L 739.4 192.4 L 740.7 189.2 M 575.1 95 L 583.2 102.9 L 584.9 106.5 L 583.1 108.4 L 581.3 108.7 L 579.4 107.3 L 578.1 107.8 L 577.4 110.1 L 578.6 112.6 L 581.7 115.4 L 583.2 117.7 L 582.9 119.4 L 584.2 121.4 L 586.9 123.8 L 587.8 125.5 L 586.9 126.5 L 587.7 132.8 L 590 144.5 L 590.6 152.4 L 589.6 156.5 L 589.9 161.7 L 592.4 171.1 L 594 190.1 L 596.3 198.8 L 601.9 206.1" />
<path class="river" d="M 525.2 86.4 L 528.8 95 L 530.8 98.5 L 532.5 100.1 L 533.5 102.1 L 533.8 104.7 L 533.4 106.4 L 532.5 107.3 L 532.3 109.3 L 532.9 112.3 L 534.6 115 L 537.4 117.2 L 538.8 119.9 L 538.9 123.2 L 542.5 128.4 L 553.5 139 L 557.1 142.6 L 559.4 146.3 L 561.6 151.1 L 563.3 153.6 L 564.3 153.7 L 565.8 155.1 L 567.8 157.7 L 569.6 161.2 L 571.1 165.6 L 573.4 169.3 L 576.4 172.4 L 577.6 175 L 576.8 177.1 L 576.8 178.6 L 577.7 180 L 579.1 186 L 580.9 190.4 L 583.5 195.2 L 585.2 200.6 L 586 206.7 L 587.5 211.3 L 589.8 214.5 L 590.6 217.3 L 589.8 219.6 L 589.6 221.8 L 590.3 225.2 L 592.2 229.5 L 592.7 231.6 L 592.4 233 L 592.9 234.5 L 594.2 236.3 L 594.9 239 L 595.1 242.9 L 594.6 247.4 L 593.3 252.7 L 593 255.9 L 593.6 256.9 L 593.8 260.6 L 593.6 267 L 593.8 271.8 L 594.3 275 L 596.1 278.9 L 599.1 283.5 L 600.1 287.4 L 599.1 290.4 L 600.1 293.8 L 603.1 297.4 L 605.8 299.6 L 608.1 300.2 L 611.3 303.1 L 615.3 308.2 L 618.7 311 L 621.6 311.6 L 623.3 312.4 L 623.9 313.4 L 625 313.3 L 626.4 312.1 L 628.4 311.5 L 631 311.4 L 633.7 313.5 L 636.5 317.8 L 637.7 322.7 L 637.1 328.2 L 635.7 331.4 L 633.6 332.4 L 632.7 334 L 633.1 336.3 L 631.7 339.3 L 628.5 343.2 L 626.4 346.7 L 624.9 351.2 L 622.7 357.3 L 623.9 361.3 L 627.9 365.3 L 630.4 369.5 L 631.4 374 L 633.6 377.3 L 636.7 379.6 L 638.3 381.5 L 638.2 383.1 L 638.9 384.8 L 640.4 386.5 L 640.8 387.6 L 640 388.2 L 640.3 388.8 L 641.7 389.4 L 642.6 390.8 L 642.9 392.8 L 644.6 395.7 L 647.7 399.6 L 651.3 402 L 655.4 403 L 657 403.7 L 656 404.2 L 655.8 406.4 L 656.4 410.2 L 654.3 413.7 L 649.5 416.9 L 646.2 418.5 L 644.2 418.6 L 642.5 420.5 L 641.2 424.3 L 639.8 426.5 L 638.3 427.2 L 637.3 428.6 L 636.9 430.8 L 637.7 432 L 639.9 432.1 L 640 432.7 L 638.2 433.8 L 636 434.2 L 633.3 433.9 L 630.8 434.7 L 628.4 436.8 L 626.4 441.2 L 624.7 447.9 L 624.2 451.5 L 625 451.9 L 626 451 L 627.4 448.9 L 628.9 447.8 L 630.5 447.5 L 632.3 448.9 L 634.1 452 L 635.9 453.8 L 637.9 454.2 L 639 457.2 L 639.2 462.9 L 641 465 L 644.2 463.6 L 647.3 463.3 L 650.5 464.2 L 652.9 464.3 L 654.6 463.4 L 656.6 463.5 L 658.8 464.6 L 662.2 465.1 L 666.9 465 L 673.6 463 L 682.3 458.8 L 687.3 456.8 L 688.4 456.9 L 689.4 457.7 L 690.2 459.2 L 687.4 462.5 L 680.8 467.8 L 677.5 471.9 L 677.4 474.7 L 678.1 476.6 L 679.4 477.6 L 679.4 479.1 L 678.1 481 L 677.3 485.1 L 677 491.2 L 677.2 495.2 L 678 497.1 L 677.6 500.1 L 675.8 504.2 L 672.3 508.7 L 667 513.7 L 664.5 518.2 L 664.8 522.1 L 666.1 524.9 L 669.4 527.5" />
<path class="river" d="M 775 721.7 L 775 724.3 L 775.8 725.5 L 777.3 726 L 777.8 726.8 L 777.2 727.8 L 777.9 733.6 L 779.8 743.9 L 786.2 754.7 L 802.4 771.3 M 775 721.7 L 782.2 726.2 L 784.8 729 L 785.3 731.6 L 784.8 734.5 L 783.3 737.8 L 782.7 740.8 L 783.1 743.6 L 784.3 745.6 L 786.3 746.9 L 787.7 748.8 L 788.3 751.4 L 791.8 754.8 L 798.2 759.2 L 803.9 762 L 805.6 762.5 L 812 764.4 M 669.4 527.5 L 673.2 525.3 L 675 523.4 L 676 520.8 L 677.3 519.9 L 679.1 520.4 L 681.3 519.3 L 684.1 516.6 L 686.1 515.3 L 687.6 515.5 L 690.2 517.2 L 694 520.5 L 697.3 522.4 L 700.2 523 L 701.6 524.2 L 701.6 526 L 702.2 527.1 L 703.6 527.6 L 704.2 527.4 L 704 526.5 L 705.4 525.2 L 708.2 523.6 L 711 522.6 L 713.9 522.3 L 715.8 521 L 717 517.6 M 717 517.6 L 717 517.6 M 717 517.6 L 717 517.5 M 717 517.6 L 718.8 515 L 720.4 513.8 L 722.4 513.2 L 722.9 512.4 L 721.9 511.3 L 722 510.2 L 723.1 509.2 L 725.6 508.7 L 729.4 508.8 L 733.8 510 L 738.9 512 L 742.2 512.7 L 743.8 511.9 L 746.9 515.1 L 751.5 522.2 L 755.4 527.6 L 758.7 531.3 L 762.2 534.1 L 765.8 536 L 768.4 538.7 L 770.8 543.7 L 769 550.7 L 768.5 556.7 L 768.7 564.1 L 770.9 569.7 L 775 573.6 L 777.3 576.8 L 778 579.3 L 781.2 581.3 L 786.8 583.1 L 789.2 584.6 L 788.2 586.1 L 788.2 587.7 L 789 589.6 L 790.9 591.1 L 794.1 592.3 L 795.9 593.6 L 796.5 595 L 796.4 597.2 L 795.7 600.2 L 794.4 602.5 L 792.5 604.2 L 792.7 605.1 L 795.1 605.3 L 797.3 606.9 L 800.9 611.7 L 803.6 614.4 L 804.8 617.2 L 805.4 620.9 L 805 624.4 L 803.8 627.7 L 803.3 631.2 L 803.8 634.8 L 803.5 638.3 L 802.5 641.7 L 803.2 644.4 L 805.6 646.5 L 807.1 648.2 L 807.6 649.7 L 807.6 651.2 L 807.2 652.8 L 807.4 654.4 L 808.4 656 L 807.9 658.8 L 805.8 662.7 L 805.2 665.2 L 806.1 666.9 L 808.4 671.7 L 808.5 675.9 L 807.1 681.1 L 807 687.7 L 808.3 695.6 L 807.2 700 L 804 700.7 L 800.3 700.7 L 796.3 700.1 L 793.5 702.6 L 791.7 708.2 L 788.7 711 L 784.4 710.9 L 781.8 711.5 L 780.8 712.7 L 779.3 713.5 L 777.3 713.8 L 776.5 714.5 L 776.9 715.7 L 776.6 716.9 L 775.4 718.2 L 774.9 719.5 L 775 721.7" />
<path class="river" d="M 736.6 162.1 L 738.1 162.8 L 740.1 166.9 L 741.2 169 L 740.9 169.8 L 743 171.9 L 749.9 176.9 L 753.2 179 L 754.4 180.5 L 754.8 182.1 L 757.2 183.6 L 764.7 185.8" />
<path class="river" d="M 742.9 276.2 L 740.8 278.6 L 740.2 281 L 740.5 285.7 L 741.7 293 L 741.2 296.8 L 739.4 299.6 L 736.4 302.1 L 729.4 305.5 L 728.1 305.6 L 727.1 305 L 726.4 303.6 L 724.3 303.2 L 721 303.8 L 719.3 305.4 L 719.3 307.9 L 718.3 310.7 L 716.2 313.7 L 715.8 315.8 L 717.2 317 L 717.4 318.6 L 716.5 320.5 L 716.7 324.8 L 718.7 334.7 L 719.4 338.8 L 720.3 340.5 L 721.4 341 L 722.3 340.7 L 723.1 339.8 L 725.9 339.1 L 730.6 338.5 L 733.2 337.4 L 733.7 335.7 L 733.5 334.2 L 732.5 332.8 L 732.6 331.4 L 733.6 330 L 735.2 329 L 737.4 328.4 L 739.9 326.4 L 742.6 322.8 L 744.9 321 L 746.9 321 L 750 320.1 L 756.3 317.3 L 762.1 311.7 L 766.6 314.3 L 770.3 313.8 L 774.7 311.2 L 778.3 308.3 L 781 305 L 783 303.9 L 784.2 305 L 786.1 305.6 L 788.7 305.6 L 790.6 306.6 L 791.8 308.4 L 794.7 310.2 L 799.3 311.9 L 802.5 312.6 L 804.2 312.2 L 805.9 312.8 L 807.5 314.1 L 809.7 313.3 L 812.5 310.4 L 813.6 307.9 L 812.9 305.9 L 814.9 304.3 L 819.6 303.1 L 823.6 301.4 L 826.9 299.3 L 830.9 297.7 L 835 296.9 L 837.1 296.6" />
<path class="river" d="M 514.5 133.7 L 516.9 133.9 L 517.9 135.1 L 518.3 137.3 L 522.5 140.1 L 530.7 143.3 L 536.1 146.7 L 538.8 150.3 L 540.3 153.4 L 540.7 156.2 L 541.9 159.1 L 544.1 162.2 L 547.7 165 L 552.6 167.4 L 556.7 171.8 L 559.9 178.2 L 563.3 182.9 L 569 187.8 L 569.7 192.1 L 570.4 193.8 L 571.4 194.4 L 572.3 197.5 L 573 203.2 L 575 207.3 L 578.1 210 L 579.5 212.8 L 579.3 215.8 L 580.4 218.7 L 583.7 223.1 L 585.3 230.6 L 586 239.4 L 586.2 252 L 585.8 261.1 L 585 266.9 L 584.9 274.6 L 585.8 284.1 L 585.8 292 L 584.9 298.2 L 585.4 303.9 L 587.2 309 L 588.8 312.3 L 590.4 313.7 L 590.6 316.3 L 589.4 320 L 589.9 322.9 L 592.2 324.9 L 591.2 327.1 L 587 329.3 L 582.1 331.2 L 576.4 332.6 L 573 334 L 571.7 335.3 L 571.4 336.9 L 571.9 338.8 L 573.7 341.6 L 576.9 345.2 L 578.2 348.4 L 577.5 351.3 L 578.1 353 L 579.8 353.6 L 580.7 354.9 L 580.8 356.8 L 578.6 358.2 L 574.3 359.1 L 573 360.6 L 574.9 362.6 L 575.4 363.9 L 574.3 364.4 L 574 365.2 L 574.3 366.3 L 575.5 367.4 L 577.8 368.5 L 577.9 370 L 575.6 371.9 L 575.5 375.1 L 577.4 379.8 L 577.8 383.7 L 576.6 386.7 L 576.6 389.3 L 577.7 391.7 L 579.3 393.6 L 581.4 395.1 L 580.6 397.3 L 577.1 400.1 L 576.1 403.7 L 577.7 408 L 577.9 410.7 L 576.6 411.8 L 576.8 413.3 L 578.4 415.2 L 579.5 417.8 L 579.9 421.1 L 580.9 423.8 L 582.4 425.9 L 580.8 427.7 L 574.1 429.9" />
<path class="river" d="M 917.7 341.1 L 918.2 343.2 L 919.2 344.1 L 920.9 344.5 L 921.5 345.3 L 921.2 346.4 L 921.9 348.1 L 923.6 350.3 L 926.1 351.8 L 929.3 352.6 L 931.3 352.5 L 932 351.8 L 933.1 351.9 L 935.2 353.4" />
<path class="river" d="M 574.1 429.9 L 573.9 433.7 L 575 437.3 L 577.4 442 L 578.8 446.6 L 579.4 451 L 575.5 454.9 L 562.6 459.8 L 556.5 460.8 L 554 461.7 L 553.3 463.1 L 552.3 463.9 L 551.1 464.2 L 548.8 468.3 L 543.6 480.4 L 541.3 495.3 L 540.8 496 L 539.7 496.1 L 538.1 495.6 L 537.4 497.6 L 537.7 502.1 L 538.9 506.5 L 541.1 510.7 L 543.4 512.7 L 545.8 512.4 L 546.8 512.8 L 546.5 513.8 L 547.4 516.5 L 549.5 520.7 L 550.1 523.9 L 548.9 527.1 L 550.6 535.2 L 550.4 539.2 L 548.9 541.7 L 547.6 545.2 L 546.6 549.7 L 546.1 554.7 L 546 560.2 L 546.5 563.9 L 547.9 567" />
<path class="river" d="M 1027.1 372.4 L 1028.9 374.4 L 1031.1 379.2 L 1032.6 382.1 L 1034.2 385.8 L 1038.9 391.6 M 1027.1 372.4 L 1035.3 375.4 L 1038.3 376.9 L 1039.8 378.5 L 1041.3 378.7 L 1043.2 378.8 M 1025.4 364.7 L 1039.9 364.3 M 1019.9 361.4 L 1020.3 363.4 L 1022.6 368.5 L 1024.8 371.5 L 1027.1 372.4 M 1019.9 361.4 L 1023.2 362.5 L 1025.2 364.4 L 1026.7 367.4 L 1028.8 368.9 L 1032.6 368.7 L 1036.5 369.4 M 973 351 L 977.1 352 L 979.2 354.3 L 980.5 358.2 L 985.7 360.9 L 999.1 363.2 L 1003.2 361.5 L 1005.8 361.9 L 1008.1 363.6 L 1010.3 363.6 L 1012.4 361.7 L 1014.8 360.8 L 1017.8 360.9 L 1019.9 361.4" />
<path class="river" d="M 935.2 353.3 L 938.7 349 L 942.8 348.7 L 951.8 352 L 955.7 351.4 L 957.8 352 L 959.5 353.6 L 963.5 353.5 L 973 351" />
<path class="river" d="M 854.6 261.9 L 854.5 265 L 855.1 266.5 L 856.3 267.3 L 857.9 267.2 L 861 265.6 L 863.2 261.3 L 863.8 259 L 863.6 257.3 L 864.7 255.9 L 866.9 254.8 L 868.8 253.2 L 870.2 251 L 872.3 249 L 875 247.1 L 877.9 246.3 L 880.9 246.4 L 882.4 247 L 882.4 247.9 L 884.2 249.8 L 887.8 252.6 L 890.2 253.2 L 891.4 251.5 L 892.5 250.7 L 893.4 250.8 L 893.8 251.3 L 893.8 252.2 L 894.9 253.3 L 897.2 254.5 L 900 254.6 L 903.5 253.5 L 907.3 251.3 L 913.4 246.3 L 914.9 244.6 L 915.1 242.7 L 914.5 240.1 L 915 238.8 L 916.6 238.8 L 918.6 237.9 L 920.8 236.1 L 922.1 235.7 L 922.3 236.8 L 922.8 237.3 L 923.7 237.2 L 924.3 236.5 L 924.8 235.3 L 926.9 235.4 L 930.7 236.7 L 934 235.3 L 939.2 228.1 L 940.7 225.5 L 941.3 223.6 L 941.1 222.2 L 941.8 220.9 L 943.4 219.6 L 943.9 218.5 L 943.2 217.6 L 943.3 216.6 L 944 215.4 L 943.2 214.3 L 941 213.3 L 940.2 212.3 L 941 211.5 L 940.3 210.7 L 938.1 209.9 L 936.7 208.9 L 936 207.7 L 936.4 206.1 L 938 204 L 938.5 202.5 L 937.9 201.5 L 938.1 201.1 L 939.2 201.2 L 940.9 200.1 L 943.4 197.8 L 945.5 194.9 L 947.3 191.3 L 952.2 188.6 L 960.1 186.6 L 964.9 185 L 966.5 183.7 L 968.3 183.9 L 970.1 185.7 L 972.3 186.3 L 976.2 185.4 L 979.9 179.3 L 981.1 178.7 L 982.1 179.2 L 983.1 179 L 984 178.5 L 984.8 178.5 L 985.6 179.1 L 986.8 179.3 L 988.4 178.6 L 990.6 178.5 L 994.6 179.4 M 1023 177.9 L 1025.8 174.3 M 1028.1 166.8 L 1030 164.5" />
<path class="river" d="M 822.2 762 L 819.7 761 L 812 761.8 M 812 761.8 L 805.6 762.5 M 812 761.8 L 813.4 763.4 L 814.6 763.7 L 816.8 763.2 L 818 763.6 L 818.9 764.8 L 820.4 767.7 L 822.3 769.8 L 823.9 770.9 L 825.8 772 L 828.2 772.9" />
<g class="city"><circle cx="636.6661232486889" cy="654.3467718226774" r="5" /><text x="648.6661232486889" y="658.3467718226774">Bangkok</text></g>
<g class="city"><circle cx="826.1982268124513" cy="161.21089466505674" r="5" /><text x="838.1982268124513" y="165.21089466505674">Chongqing</text></g>
<g class="city"><circle cx="829.6266094859905" cy="747.5740597925626" r="5" /><text x="841.6266094859905" y="751.5740597925626">Ho Chi Minh City</text></g>
<g class="city"><circle cx="740.7868805297727" cy="1042.7745556066736" r="5" /><text x="752.7868805297727" y="1046.7745556066736">Singapore</text></g>
<g class="city"><circle cx="802.968953389854" cy="427.24115448279497" r="5" /><text x="814.968953389854" y="431.24115448279497">Hanoi</text></g>
<g class="city"><circle cx="747.4659420973121" cy="126.754540291099" r="5" /><text x="759.4659420973121" y="130.754540291099">Chengdu</text></g>
<g class="city"><circle cx="830.0977006776504" cy="254.28582947354047" r="5" /><text x="842.0977006776504" y="258.2858294735405">Guiyang</text></g>
<g class="city"><circle cx="704.7274191697395" cy="302.27832257783746" r="5" /><text x="716.7274191697395" y="306.27832257783746">Kunming</text></g>
<text class="map-title" x="80" y="105">Vietnam Physical Study Map</text>
<text class="map-subtitle" x="80" y="145">Landmark: Ha Long Bay | Study terrain and water systems</text>
  <text class="footer" x="80" y="1036">Made with Natural Earth. Free vector and raster map data @ naturalearthdata.com.</text>
</svg>
