<?xml version="1.0" encoding="UTF-8"?>
<svg xmlns="http://www.w3.org/2000/svg" width="1600" height="1100" viewBox="0 0 1600 1100" role="img" aria-labelledby="title desc">
  <title id="title">Vietnam Political Study Map</title>
  <desc id="desc">Made with Natural Earth. Free vector and raster map data @ naturalearthdata.com.</desc>
  <defs>
    <linearGradient id="terrain" x1="0" x2="1" y1="0" y2="1">
      <stop offset="0%" stop-color="#6c8c53" />
      <stop offset="42%" stop-color="#d5c487" />
      <stop offset="72%" stop-color="#b88b5f" />
      <stop offset="100%" stop-color="#f1f5ee" />
    </linearGradient>
    <filter id="softShadow" x="-10%" y="-10%" width="120%" height="120%">
      <feDropShadow dx="0" dy="10" stdDeviation="12" flood-color="#0f172a" flood-opacity="0.16" />
    </filter>
    <style>
      .neighbor { fill: #ffffff; stroke: #94a3b8; stroke-width: 1.2; opacity: 0.72; }
      .country { fill: #f7f1df; stroke: #1f2937; stroke-width: 4; filter: url(#softShadow); }
      .admin1 { fill: none; stroke: #64748b; stroke-width: 1.1; stroke-dasharray: 6 7; opacity: 0.75; }
      .river { fill: none; stroke: #1d9bd1; stroke-width: 3; stroke-linecap: round; opacity: 0.88; }
      .lake { fill: #8ed1ea; stroke: #0ea5e9; stroke-width: 1.5; opacity: 0.8; }
      .city circle { fill: #ef4444; stroke: #ffffff; stroke-width: 2; }
      .city text, .terrain-label { fill: #172033; font: 700 24px system-ui, sans-serif; paint-order: stroke; stroke: #ffffff; stroke-width: 5; stroke-linejoin: round; }
      .map-title { fill: #0f172a; font: 800 46px system-ui, sans-serif; }
      .map-subtitle { fill: #475569; font: 600 24px system-ui, sans-serif; }
      .footer { fill: #64748b; font: 500 18px system-ui, sans-serif; }
    </style>
  </defs>
  <rect width="100%" height="100%" fill="#eaf3f8" />
  <rect x="40" y="40" width="1520" height="1020" rx="32" fill="#ffffff" opacity="0.54" />
  <path class="neighbor" d="M 1899.1 1164.2 L 1899.6 1265.8 L 1900.1 1367.5 L 1872.4 1341.9 L 1840.7 1335.6 L 1833 1344.5 L 1793.5 1345.4 L 1806.7 1320.1 L 1826.4 1311.4 L 1818.2 1277.5 L 1803.3 1251.3 L 1742.8 1224.9 L 1717.1 1222.3 L 1670.3 1193.5 L 1661.1 1208.7 L 1649.1 1211.4 L 1642 1200 L 1641.9 1186.4 L 1618.1 1171.1 L 1651.7 1159.9 L 1673.9 1160.5 L 1671.3 1152.2 L 1625.7 1152.1 L 1613.3 1133.6 L 1585.5 1127.8 L 1572.3 1112.4 L 1614.3 1104.8 L 1630.3 1094.7 L 1680.3 1107.5 L 1685.3 1119.1 L 1694 1169.5 L 1726.2 1188.2 L 1752.3 1155.1 L 1788.1 1136.3 L 1815.8 1136.2 L 1842.5 1147.1 L 1865.6 1158.3 L 1899.1 1164.2 Z M 1399.2 1360.4 L 1402.3 1366.6 L 1402.9 1376 L 1382.6 1399.3 L 1355.9 1406.2 L 1352.1 1402.5 L 1354.9 1391.9 L 1368.4 1372.8 L 1399.2 1360.4 Z M 1687.3 1298.2 L 1684.3 1274.7 L 1689.8 1263.5 L 1696.4 1252.9 L 1703.5 1262.1 L 1703.4 1276.9 L 1687.3 1298.2 Z M 1178.2 954.1 L 1160.5 982.3 L 1183.4 1011.8 L 1178 1026.2 L 1213 1055 L 1176 1058.7 L 1165.6 1080 L 1167 1108.2 L 1137 1129.5 L 1136.2 1160.6 L 1124.1 1208.3 L 1119.5 1197.2 L 1084.1 1211.2 L 1071.8 1192.2 L 1049.5 1190.4 L 1034 1180.4 L 996.9 1191.6 L 985.5 1176.5 L 965.1 1178.2 L 939.4 1174.6 L 934.6 1132.8 L 919.1 1124.2 L 904.1 1097.5 L 899.8 1070.2 L 903.4 1041.3 L 921.9 1020.6 L 927.1 1041.4 L 948.5 1059 L 968.6 1052.7 L 988.5 1055 L 1006.7 1039.2 L 1021.6 1036.5 L 1051.1 1045.2 L 1076.5 1038.5 L 1092.5 995.2 L 1104.5 984.3 L 1115.3 948.9 L 1151.2 948.9 L 1178.2 954.1 Z M 1536.5 1170.5 L 1570.8 1179.6 L 1582.1 1203.5 L 1555.8 1190.6 L 1529.7 1188 L 1512.1 1190.1 L 1490.5 1189 L 1497.9 1171.8 L 1536.5 1170.5 Z M 1458.6 1201.4 L 1437.1 1195.6 L 1431 1182.2 L 1462.5 1180.7 L 1470.3 1191 L 1458.6 1201.4 Z M 1491.6 1015.3 L 1493.8 1032.4 L 1512.2 1035.1 L 1515.2 1047.8 L 1513.5 1075.1 L 1497.4 1072 L 1492.7 1091 L 1505.5 1107.5 L 1496.8 1111.2 L 1484.2 1091.5 L 1475 1051.6 L 1481.2 1026.7 L 1491.6 1015.3 Z M 1335.5 1055.9 L 1371.4 1054.6 L 1402.2 1031.9 L 1407.7 1038.9 L 1382.6 1069.8 L 1359.2 1075.8 L 1329.2 1069.7 L 1277.2 1071.3 L 1250 1075.8 L 1245.5 1099.4 L 1273.4 1127.1 L 1290.3 1113 L 1348.4 1102.4 L 1345.9 1116.7 L 1332.3 1112.2 L 1318.7 1130.5 L 1291.3 1142.5 L 1320.8 1182.5 L 1315.1 1193.2 L 1343.1 1229.2 L 1342.9 1249.7 L 1326.2 1258.8 L 1314 1247.9 L 1329 1222.4 L 1298.4 1234.4 L 1290.7 1225.8 L 1294.7 1213.8 L 1272.3 1195.5 L 1274.6 1165.1 L 1253.8 1174.6 L 1256.4 1210.9 L 1257.7 1255.5 L 1237.9 1260.1 L 1224.5 1250.9 L 1233.4 1222.2 L 1228.6 1192.1 L 1215.5 1191.9 L 1205.8 1170.5 L 1218.7 1150.1 L 1223.2 1125.3 L 1238.8 1078.3 L 1245.4 1065.5 L 1271.9 1042.3 L 1296.2 1051.5 L 1335.5 1055.9 Z M 1253.4 1403 L 1212.1 1381.2 L 1241.1 1375.1 L 1257.5 1384.6 L 1268.4 1394 L 1266.6 1402.4 L 1253.4 1403 Z M 1286.1 1349.3 L 1306.8 1347 L 1334.8 1335.5 L 1330.2 1352.9 L 1283.4 1361.7 L 1241.9 1357.9 L 1241.8 1346.5 L 1266.5 1340 L 1286.1 1349.3 Z M 1190 1343.9 L 1209.3 1341.4 L 1217 1354.6 L 1181 1360.9 L 1159.4 1365.1 L 1142.6 1364.8 L 1153.3 1346.9 L 1170.4 1346.6 L 1178.8 1335.6 L 1190 1343.9 Z M 885.3 1283.4 L 889.5 1294.5 L 949.2 1297.6 L 956.1 1284.7 L 1014 1299.7 L 1025.3 1320 L 1072.1 1325.6 L 1110.3 1344.2 L 1074.8 1356 L 1040.5 1343.5 L 1012.2 1344.3 L 979.9 1342 L 950.7 1336.4 L 914.6 1324.5 L 891.7 1321.4 L 878.7 1325.3 L 821.9 1312.5 L 816.5 1299.1 L 787.9 1296.8 L 809.3 1267 L 847.2 1268.8 L 872.3 1281 L 885.3 1283.4 Z M 756.9 1117 L 762.2 1138.7 L 773 1156.1 L 795.9 1158.9 L 811.1 1178.6 L 803.3 1217.4 L 802 1265.6 L 767.5 1266.3 L 741.2 1240.2 L 701.2 1214.7 L 687.8 1195.8 L 664.2 1170.5 L 648.8 1147.1 L 625 1103.4 L 597.7 1077.4 L 588.5 1050.6 L 577 1026.3 L 548.9 1006.7 L 532.6 980 L 509.1 962.5 L 476.6 928.2 L 473.8 912.3 L 493.9 913.5 L 542.2 919.6 L 569.8 950.1 L 593.9 971.2 L 611.1 984.2 L 640.6 1017.7 L 672.3 1018.2 L 698.5 1039.5 L 716.6 1065.6 L 740.3 1079.9 L 727.8 1105.4 L 745.7 1116.2 L 756.9 1117 Z" />
<path class="neighbor" d="M 701.2 703.2 L 693.8 665.5 L 713.8 639.6 L 754.1 633.6 L 783.3 638.1 L 809.1 650.3 L 823.2 628.8 L 850.8 640.3 L 858.1 661.1 L 854.2 698.5 L 801.8 722.5 L 815.5 741.3 L 782.8 743.6 L 755.8 756.2 L 729.7 751.6 L 717 735.4 L 701.2 703.2 Z" />
<path class="neighbor" d="M 783.3 638.1 L 754.1 633.6 L 713.8 639.6 L 693.8 665.5 L 701.2 703.2 L 673.2 688.8 L 646.6 689.4 L 651.1 664.9 L 623.7 665.1 L 621.2 699.4 L 604.4 744.9 L 594.2 772.5 L 596.4 795.1 L 616.7 796 L 629.3 824.5 L 634.9 851.5 L 652.3 869.3 L 671.2 873 L 687.4 889.2 L 677.2 902 L 656.6 905.7 L 654.2 889.7 L 628.7 876 L 623.3 881.6 L 611 869.6 L 605.6 854.2 L 589.1 836.6 L 574 821.8 L 568.8 840.1 L 562.9 822.8 L 566.3 803.3 L 575.5 773.4 L 590.6 741.4 L 607.7 712.3 L 595.6 683.9 L 596 669.4 L 592.5 652 L 571.7 627.2 L 564.2 611.6 L 575 605.8 L 586.4 578.7 L 573.7 558.1 L 553.9 535.4 L 538.8 508 L 551.9 502.3 L 566.2 468.6 L 588.2 467.2 L 606.4 453.7 L 624.2 446.5 L 637.7 456.1 L 639.5 474.9 L 660.6 476.3 L 652.9 509.1 L 653.7 537.1 L 686.5 518.5 L 695.9 524 L 714.1 523.1 L 720.4 512.2 L 744 514.4 L 767.7 539.7 L 769.6 570.5 L 794.9 597.6 L 793.5 624 L 783.3 638.1 Z" />
<path class="neighbor" d="M 850.8 640.3 L 823.2 628.8 L 809.1 650.3 L 783.3 638.1 L 793.5 624 L 794.9 597.6 L 769.6 570.5 L 767.7 539.7 L 744 514.4 L 720.4 512.2 L 714.1 523.1 L 695.9 524 L 686.5 518.5 L 653.7 537.1 L 652.9 509.1 L 660.6 476.3 L 639.5 474.9 L 637.7 456.1 L 624.2 446.5 L 630.9 435 L 657.4 414.7 L 660.2 422.1 L 676.8 422.9 L 672.1 387.2 L 688.3 382.7 L 706.5 407.3 L 720.5 435.6 L 758.9 435.9 L 771 463.1 L 751.1 471.2 L 742.1 482.4 L 779.5 501.1 L 805.4 537.9 L 825 565.4 L 848.6 587.1 L 856.5 609.1 L 850.8 640.3 Z" />
<path class="neighbor" d="M 624.2 446.5 L 606.4 453.7 L 588.2 467.2 L 566.2 468.6 L 551.9 502.3 L 538.8 508 L 553.9 535.4 L 573.7 558.1 L 586.4 578.7 L 575 605.8 L 564.2 611.6 L 571.7 627.2 L 592.5 652 L 596 669.4 L 595.6 683.9 L 607.7 712.3 L 590.6 741.4 L 575.5 773.4 L 572.5 750.3 L 582.1 726.4 L 571.6 707.9 L 574.1 674 L 561.5 657.8 L 551.3 620.5 L 545.7 581.1 L 532.2 555.3 L 511.7 570.9 L 476.2 593.2 L 458.7 590.4 L 439.4 583.1 L 450.2 544.4 L 443.7 515.2 L 419.2 479.3 L 423 468 L 404.8 464 L 382.7 438.6 L 380.6 413.5 L 391.5 418.2 L 392.1 395.9 L 407.5 388.5 L 404.2 375.2 L 411.3 364.6 L 412.5 332.3 L 436.9 339.5 L 450.8 313.7 L 452.3 298.5 L 469.5 272.4 L 468.6 254.5 L 509 233 L 531.3 238.6 L 528.7 219.5 L 539.6 213.7 L 537.3 201.9 L 555.5 199.6 L 565.9 218 L 579.5 225.4 L 580.5 249.2 L 579.2 275 L 549.7 301 L 545.9 338 L 578.8 332.8 L 586.3 361.5 L 606 367.6 L 596.9 393.5 L 620.1 405.2 L 633.6 410.9 L 656.5 401.8 L 657.4 414.7 L 630.9 435 L 624.2 446.5 Z" />
<path class="neighbor" d="M 916.1 515.7 L 890.5 506.1 L 889.6 479.2 L 905 465.1 L 939 456.4 L 957 457.1 L 963.9 469 L 950.2 482.7 L 943 500.7 L 916.1 515.7 Z M 5.1 -237.4 L 2.6 -255.2 L 24 -263.3 L -4.1 -317.4 L 57.7 -329.9 L 73.7 -336.8 L 96.2 -392.7 L 158 -382.4 L 175.4 -396.5 L 176.8 -427.8 L 202.7 -430.7 L 226.5 -451.4 L 238.7 -454 L 246.9 -432.3 L 273.1 -415.7 L 317.6 -404 L 339.1 -378.9 L 327.1 -342.5 L 338.3 -328.9 L 375.3 -323.6 L 417.3 -319.3 L 455 -299.8 L 474.3 -296.4 L 488.5 -267.6 L 506.8 -249.1 L 541.2 -249.8 L 605.5 -242.8 L 647 -247.2 L 677.8 -242.5 L 723.9 -223.6 L 761.6 -223.6 L 775.4 -213.9 L 811.7 -230.7 L 862.1 -241.5 L 908.8 -242.7 L 945.3 -253.6 L 967.7 -270.3 L 989.5 -280.8 L 984.4 -291.1 L 974.5 -303.1 L 990.8 -323.2 L 1008.4 -320.4 L 1040.4 -314.1 L 1071.5 -330.6 L 1119.1 -342.7 L 1141.9 -363.3 L 1163.9 -372.2 L 1209.1 -376.3 L 1233.7 -372.8 L 1237.2 -383.9 L 1208.9 -405.7 L 1183.9 -415.6 L 1159.9 -404.1 L 1129.2 -409 L 1111.5 -405 L 1103.5 -417.8 L 1125.5 -448.9 L 1140.7 -472.4 L 1178.1 -460.7 L 1222.1 -480.4 L 1221.8 -494.1 L 1249.9 -527.2 L 1267.3 -537.2 L 1266.9 -554.4 L 1249.8 -561.8 L 1275.5 -577.3 L 1314.3 -582.9 L 1355.6 -583.8 L 1402.3 -574.5 L 1429.7 -563 L 1448.9 -531.6 L 1460.6 -518.1 L 1471.5 -499 L 1483 -468.4 L 1537.3 -458.5 L 1574.2 -436.3 L 1586.8 -407 L 1634.2 -407 L 1661.3 -419.3 L 1712.8 -428.5 L 1696.4 -400.4 L 1684.3 -389 L 1673.6 -354.8 L 1652.6 -324.5 L 1614.8 -330 L 1588 -319 L 1596.2 -292.3 L 1591.8 -255.5 L 1575.8 -254.6 L 1576 -238.8 L 1555.9 -257.2 L 1543.5 -239.7 L 1495.3 -226.3 L 1500.2 -209.8 L 1473.2 -211 L 1458.4 -220.8 L 1437 -198.6 L 1402.6 -181.9 L 1377.3 -161.9 L 1333.7 -152.8 L 1310.7 -138.2 L 1277.1 -129.7 L 1293.7 -144.2 L 1287.2 -156.3 L 1311.9 -177.3 L 1295.4 -193.6 L 1268.2 -182.6 L 1233 -160.9 L 1213.8 -140.8 L 1183.2 -139.3 L 1167.3 -124.7 L 1183.7 -103.7 L 1209.3 -98.5 L 1210.3 -84.5 L 1235 -75.4 L 1269.9 -97.7 L 1297.6 -85.6 L 1317.8 -84.7 L 1322.8 -68.4 L 1278.7 -59.7 L 1264.1 -42.9 L 1233.8 -27.2 L 1217.8 -5.4 L 1251.3 11.7 L 1263.6 42.4 L 1282.6 71 L 1303.7 94.9 L 1303.2 118.1 L 1283.7 126.6 L 1291.1 143.3 L 1309.5 152.9 L 1304.7 178.3 L 1296.8 203 L 1279.3 205.8 L 1256.6 239.6 L 1231.3 280.5 L 1202.4 317.7 L 1159.5 346.5 L 1116.1 372.7 L 1081 376.3 L 1061.9 390.2 L 1051.1 380.1 L 1033.5 395.6 L 989.9 411.2 L 956.9 416 L 946.3 448.9 L 929 450.7 L 920.8 428.1 L 928.2 416 L 886.4 406 L 871.6 411.1 L 840.2 403 L 825.4 390.4 L 830.3 372.4 L 801.8 366.7 L 786.8 355 L 760.2 371.6 L 729.9 375.2 L 705 375.1 L 688.3 382.7 L 672.1 387.2 L 676.8 422.9 L 660.2 422.1 L 657.4 414.7 L 656.5 401.8 L 633.6 410.9 L 620.1 405.2 L 596.9 393.5 L 606 367.6 L 586.3 361.5 L 578.8 332.8 L 545.9 338 L 549.7 301 L 579.2 275 L 580.5 249.2 L 579.5 225.4 L 565.9 218 L 555.5 199.6 L 537.3 201.9 L 503.6 197.3 L 514.2 184.2 L 499.6 164.8 L 477.3 177.9 L 451.2 170.2 L 415.2 190.1 L 386.9 213.3 L 361.7 217.2 L 348.1 208.8 L 331.6 208 L 309.3 200.8 L 292.5 208.7 L 271.8 231.9 L 269.2 207.4 L 250.2 213.9 L 213.8 210.9 L 178.6 203.7 L 153.3 190 L 129 183.9 L 118.6 168.9 L 101 164.4 L 69.6 144.1 L 44.6 134.5 L 31.6 142 L -11.7 120.2 L -42.3 100.4 L -51.1 66.1 L -28.7 70.3 L -27.7 54.3 L -40.1 38.4 L -36.9 12.9 L -70.4 -23.6 L -121.7 -36.2 L -131 -60.2 L -154 -74.7 L -159.5 -83.7 L -164.2 -101.4 L -163.1 -113.6 L -182.1 -120.7 L -192.3 -117.5 L -200.2 -146.4 L -191.4 -153.5 L -195.6 -160.8 L -165.9 -175.5 L -144.3 -181.6 L -111.3 -177.5 L -99.5 -197.4 L -59.5 -201.1 L -48.4 -213.4 L 0.7 -230.3 L 5.1 -237.4 Z" />
<path class="neighbor" d="M 623.3 881.6 L 628.7 876 L 654.2 889.7 L 656.6 905.7 L 677.2 902 L 687.4 889.2 L 694.6 892.1 L 713 910.9 L 726 931.8 L 727.8 952.8 L 724.5 966.9 L 727.6 977.7 L 729.8 996.1 L 740.8 1004.7 L 753.1 1032.3 L 752.5 1042.8 L 730.4 1044.9 L 700.9 1021.8 L 664 997.1 L 660.3 981.2 L 642.3 960.3 L 638 934.5 L 626.8 917.5 L 630.2 894.8 L 623.3 881.6 Z M 1178.2 954.1 L 1151.2 948.9 L 1115.3 948.9 L 1104.5 984.3 L 1092.5 995.2 L 1076.5 1038.5 L 1051.1 1045.2 L 1021.6 1036.5 L 1006.7 1039.2 L 988.5 1055 L 968.6 1052.7 L 948.5 1059 L 927.1 1041.4 L 921.9 1020.6 L 944.8 1031.3 L 968.9 1025.4 L 975.2 999 L 988.5 993.2 L 1025.8 986.4 L 1048.2 961.7 L 1063.5 942 L 1077.7 958.2 L 1084.3 947.6 L 1099.2 948.6 L 1101 928.6 L 1102.4 913.3 L 1126.4 891.6 L 1142.1 867.2 L 1154.7 867.1 L 1170.8 882.9 L 1172.2 896.5 L 1192.7 905.1 L 1218.7 914.5 L 1216.5 926.7 L 1195.6 928.3 L 1201.2 943.5 L 1178.2 954.1 Z" />

<path class="country" d="M 755.8 756.2 L 782.8 743.6 L 815.5 741.3 L 801.8 722.5 L 854.2 698.5 L 858.1 661.1 L 850.8 640.3 L 856.5 609.1 L 848.6 587.1 L 825 565.4 L 805.4 537.9 L 779.5 501.1 L 742.1 482.4 L 751.1 471.2 L 771 463.1 L 758.9 435.9 L 720.5 435.6 L 706.5 407.3 L 688.3 382.7 L 705 375.1 L 729.9 375.2 L 760.2 371.6 L 786.8 355 L 801.8 366.7 L 830.3 372.4 L 825.4 390.4 L 840.2 403 L 871.6 411.1 L 830 437.8 L 804 467.3 L 797.2 488.9 L 821 521.8 L 850.2 562.5 L 878.5 581.8 L 897.4 606.8 L 911.7 664.5 L 907.5 719.4 L 881.5 739.9 L 845.8 760 L 820.3 786 L 781.5 815 L 770.1 795 L 778.9 773.9 L 755.8 756.2 Z" />


<g class="city"><circle cx="636.6661232486889" cy="654.3467718226774" r="5" /><text x="648.6661232486889" y="658.3467718226774">Bangkok</text></g>
<g class="city"><circle cx="826.1982268124513" cy="161.21089466505674" r="5" /><text x="838.1982268124513" y="165.21089466505674">Chongqing</text></g>
<g class="city"><circle cx="829.6266094859905" cy="747.5740597925626" r="5" /><text x="841.6266094859905" y="751.5740597925626">Ho Chi Minh City</text></g>
<g class="city"><circle cx="740.7868805297727" cy="1042.7745556066736" r="5" /><text x="752.7868805297727" y="1046.7745556066736">Singapore</text></g>
<g class="city"><circle cx="802.968953389854" cy="427.24115448279497" r="5" /><text x="814.968953389854" y="431.24115448279497">Hanoi</text></g>
<g class="city"><circle cx="747.4659420973121" cy="126.754540291099" r="5" /><text x="759.4659420973121" y="130.754540291099">Chengdu</text></g>
<g class="city"><circle cx="830.0977006776504" cy="254.28582947354047" r="5" /><text x="842.0977006776504" y="258.2858294735405">Guiyang</text></g>
<g class="city"><circle cx="704.7274191697395" cy="302.27832257783746" r="5" /><text x="716.7274191697395" y="306.27832257783746">Kunming</text></g>
<text class="map-title" x="80" y="105">Vietnam Political Study Map</text>
<text class="map-subtitle" x="80" y="145">Capital: Hanoi | Continent: Asia</text>
  <text class="footer" x="80" y="1036">Made with Natural Earth. Free vector and raster map data @ naturalearthdata.com.</text>
</svg>
