<?xml version="1.0" encoding="UTF-8"?>
<svg xmlns="http://www.w3.org/2000/svg" width="1600" height="1100" viewBox="0 0 1600 1100" role="img" aria-labelledby="title desc">
  <title id="title">Samoa Political Study Map</title>
  <desc id="desc">Made with Natural Earth. Free vector and raster map data @ naturalearthdata.com.</desc>
  <defs>
    <linearGradient id="terrain" x1="0" x2="1" y1="0" y2="1">
      <stop offset="0%" stop-color="#6c8c53" />
      <stop offset="42%" stop-color="#d5c487" />
      <stop offset="72%" stop-color="#b88b5f" />
      <stop offset="100%" stop-color="#f1f5ee" />
    </linearGradient>
    <filter id="softShadow" x="-10%" y="-10%" width="120%" height="120%">
      <feDropShadow dx="0" dy="10" stdDeviation="12" flood-color="#0f172a" flood-opacity="0.16" />
    </filter>
    <style>
      .neighbor { fill: #ffffff; stroke: #94a3b8; stroke-width: 1.2; opacity: 0.72; }
      .country { fill: #f7f1df; stroke: #1f2937; stroke-width: 4; filter: url(#softShadow); }
      .admin1 { fill: none; stroke: #64748b; stroke-width: 1.1; stroke-dasharray: 6 7; opacity: 0.75; }
      .river { fill: none; stroke: #1d9bd1; stroke-width: 3; stroke-linecap: round; opacity: 0.88; }
      .lake { fill: #8ed1ea; stroke: #0ea5e9; stroke-width: 1.5; opacity: 0.8; }
      .city circle { fill: #ef4444; stroke: #ffffff; stroke-width: 2; }
      .city text, .terrain-label { fill: #172033; font: 700 24px system-ui, sans-serif; paint-order: stroke; stroke: #ffffff; stroke-width: 5; stroke-linejoin: round; }
      .map-title { fill: #0f172a; font: 800 46px system-ui, sans-serif; }
      .map-subtitle { fill: #475569; font: 600 24px system-ui, sans-serif; }
      .footer { fill: #64748b; font: 500 18px system-ui, sans-serif; }
    </style>
  </defs>
  <rect width="100%" height="100%" fill="#eaf3f8" />
  <rect x="40" y="40" width="1520" height="1020" rx="32" fill="#ffffff" opacity="0.54" />
  <path class="neighbor" d="M -1880.8 1978.9 L -1921.6 2042.2 L -1942.9 2093.1 L -1969.4 2119.3 L -2002.4 2124.3 L -2011.9 2104.8 L -2027.3 2101.9 L -2048.7 2120.7 L -2078.9 2106.4 L -2061.3 2077.3 L -2055.2 2045.7 L -2043.1 2016 L -2070.2 1975.1 L -2075.7 1927.8 L -2039.7 1868.4 L -2016.3 1876 L -1965.4 1892.3 L -1892.2 1950.6 L -1880.8 1978.9 Z M 2116.5 -1152 L 2149.1 -1133.9 L 2248.7 -1121.1 L 2213.7 -1073.8 L 2204.9 -1024.6 L 2186 -1012.8 L 2154.5 -1019.2 L 2156.7 -1001.6 L 2106.2 -962.8 L 2105.2 -931.5 L 2138.1 -942.3 L 2161.9 -912 L 2159 -892.5 L 2179.4 -866.5 L 2155.4 -845.5 L 2173.2 -792 L 2210.7 -783.2 L 2202.8 -753.2 L 2140.2 -714.2 L 2003.9 -732.9 L 1903.2 -710.5 L 1895.3 -668.9 L 1815.2 -659.9 L 1737.4 -691.2 L 1712.3 -676.2 L 1585.1 -707.6 L 1557.6 -734.5 L 1593.3 -776 L 1606.5 -913.6 L 1535.2 -986.2 L 1484.2 -1021.1 L 1378.6 -1047.7 L 1371.6 -1098.1 L 1461.2 -1113.1 L 1577.3 -1095.3 L 1555.4 -1173.6 L 1620.6 -1143.9 L 1781.5 -1197.8 L 1802.2 -1254.4 L 1862.7 -1268.4 L 1872.7 -1244.1 L 1904.8 -1242.9 L 1936.9 -1215.2 L 1985.1 -1182.6 L 2020.6 -1188 L 2081.1 -1156.5 L 2096.5 -1150.5 L 2116.5 -1152 Z M 2293.3 -679.6 L 2337.9 -706 L 2349.6 -646.7 L 2326.8 -593.3 L 2295.4 -607.4 L 2279.4 -653.9 L 2293.3 -679.6 Z" />
<path class="neighbor" d="M 893.3 1406.3 L 896.5 1384.8 L 890.6 1358.1 L 864.7 1338.6 L 851.1 1299.1 L 847.9 1256.1 L 871.2 1243.5 L 882.8 1202.8 L 904.7 1201.2 L 953 1220.4 L 991.9 1206.8 L 1018.6 1211.4 L 1029 1196 L 1306.3 1194.9 L 1321.7 1146.6 L 1309.7 1138 L 1276.3 839.8 L 1243 541.6 L 1348.7 540.3 L 1581.9 691.1 L 1815 841.9 L 1831.4 874.3 L 1874.4 894 L 1906.4 905.3 L 1907.2 949.2 L 1983.9 942.5 L 1984.1 1101.6 L 1946.3 1147.8 L 1940.4 1190.3 L 1879 1201.3 L 1784.7 1207.2 L 1759.2 1231.8 L 1714.9 1234.5 L 1670.6 1234.8 L 1653.3 1221.6 L 1615.3 1231.4 L 1550.7 1260.1 L 1537.5 1281.7 L 1483.9 1312.7 L 1474.5 1330.4 L 1445.5 1344.5 L 1412.1 1335.2 L 1393.2 1352 L 1383 1399.4 L 1328.2 1456.7 L 1329.8 1480.1 L 1310.9 1509.4 L 1315.5 1549.5 L 1287 1559.7 L 1270.9 1568.5 L 1260.2 1538.9 L 1240.2 1546.7 L 1228.3 1545.4 L 1215.6 1565.5 L 1162.2 1564.9 L 1143.1 1554.6 L 1134.1 1560.8 L 1113 1540.9 L 1116.6 1520.4 L 1108 1512.3 L 1093.3 1519.1 L 1096 1496.6 L 1110.1 1478.8 L 1081.8 1449.9 L 1073.6 1430.8 L 1058.2 1415.6 L 1044.4 1413.8 L 1027.8 1423.5 L 1005.5 1432.7 L 986.5 1447.7 L 956.9 1442.2 L 937.8 1424.6 L 926.3 1422.3 L 908.3 1431.5 L 897.3 1431.6 L 893.3 1406.3 Z" />
<path class="neighbor" d="M 509.8 815 L 524.9 791.9 L 795.5 792.4 L 782.4 692.6 L 799.3 657.1 L 864.1 650.9 L 861.8 474.1 L 1088.6 477.7 L 1088.8 373 L 1348.7 540.3 L 1243 541.6 L 1276.3 839.8 L 1309.7 1138 L 1321.7 1146.6 L 1306.3 1194.9 L 1029 1196 L 1018.6 1211.4 L 991.9 1206.8 L 953 1220.4 L 904.7 1201.2 L 882.8 1202.8 L 871.2 1243.5 L 847.9 1256.1 L 802.3 1208.6 L 760.5 1157.8 L 714.6 1139.5 L 681.6 1119.2 L 643 1119.9 L 609.3 1135 L 575 1129 L 551.3 1151.2 L 545.3 1113.9 L 564.6 1079.9 L 573.2 1014.8 L 565.6 946.5 L 557.2 912.2 L 564.1 877.7 L 546.2 844.8 L 509.8 815 Z" />
<path class="neighbor" d="M 1088.8 373 L 1090.2 359.6 L 1090.1 355 L 1089.6 273.1 L 1201.1 222.1 L 1270.2 211.6 L 1326.7 193 L 1353.1 158.4 L 1433.9 131.1 L 1436.9 79.9 L 1476.9 73.9 L 1508.2 48.3 L 1598.6 36.7 L 1611.3 9.8 L 1593 -4.9 L 1569.2 -77.8 L 1565.1 -119.8 L 1539 -164.1 L 1605.4 -201.9 L 1680.2 -213.9 L 1723.8 -242.4 L 1790.3 -263.4 L 1907.5 -275.7 L 2021.8 -281.3 L 2056.6 -271.1 L 2121.7 -298.3 L 2195.5 -298.9 L 2223.6 -282.8 L 2270.9 -287 L 2256.8 -251.5 L 2267.8 -185.6 L 2251.5 -128.6 L 2208.9 -90.1 L 2215 -38 L 2271.5 3.1 L 2272.1 19.9 L 2314.7 47.7 L 2344.2 171.8 L 2366.6 232.8 L 2370.3 264.9 L 2358.2 321.3 L 2363.2 352.8 L 2354.4 390.6 L 2360.4 434.1 L 2333 462.9 L 2373.8 513.3 L 2376.4 542.9 L 2401 581.5 L 2433.3 568.8 L 2487.9 600.9 L 2518.2 644.2 L 2281.4 775.9 L 2081.3 911.6 L 1983.9 942.5 L 1907.2 949.2 L 1906.4 905.3 L 1874.4 894 L 1831.4 874.3 L 1815 841.9 L 1581.9 691.1 L 1348.7 540.3 L 1088.8 373 Z" />
<path class="neighbor" d="M 1539 -164.1 L 1565.1 -119.8 L 1569.2 -77.8 L 1593 -4.9 L 1611.3 9.8 L 1598.6 36.7 L 1508.2 48.3 L 1476.9 73.9 L 1436.9 79.9 L 1433.9 131.1 L 1353.1 158.4 L 1326.7 193 L 1270.2 211.6 L 1201.1 222.1 L 1089.6 273.1 L 1090.1 355 L 1079.6 355 L 1081.2 392 L 1038.5 394.2 L 1016.2 410 L 984.8 410 L 959.8 401 L 901.7 408.4 L 879.2 462.3 L 857.6 467.3 L 825.1 554.5 L 729 629 L 706.2 724.4 L 677.9 755.5 L 669.6 780.4 L 514 785.9 L 512.8 785.8 L 516.1 753.8 L 542.6 734.9 L 565.2 698.9 L 560.8 675.5 L 584.5 626.8 L 623 582.9 L 646.2 571.7 L 664.5 531.4 L 666.2 494.6 L 691.1 451.9 L 737.1 426.7 L 781 356.1 L 782.2 355.2 L 817 328.6 L 881.2 321 L 935.7 273.8 L 970.3 255.3 L 1028 197.6 L 1010.7 111.7 L 1037 52.2 L 1046.3 15.8 L 1090.7 -30.9 L 1160 -62.4 L 1211.3 -91 L 1257.5 -162.5 L 1279.2 -205 L 1330.1 -204.7 L 1371.7 -175.3 L 1437.4 -180.1 L 1509 -164.8 L 1539 -164.1 Z" />

<path class="country" d="M 1090.1 355 L 1090.2 359.6 L 1088.8 373 L 1088.6 477.7 L 861.8 474.1 L 864.1 650.9 L 799.3 657.1 L 782.4 692.6 L 795.5 792.4 L 524.9 791.9 L 509.8 815 L 512.8 785.8 L 514 785.9 L 669.6 780.4 L 677.9 755.5 L 706.2 724.4 L 729 629 L 825.1 554.5 L 857.6 467.3 L 879.2 462.3 L 901.7 408.4 L 959.8 401 L 984.8 410 L 1016.2 410 L 1038.5 394.2 L 1081.2 392 L 1079.6 355 L 1090.1 355 Z" />


<g class="city"><circle cx="585.014169238271" cy="1016.3211853246833" r="5" /><text x="597.014169238271" y="1020.3211853246833">Nouakchott</text></g>
<g class="city"><circle cx="622.6991843073581" cy="324.349107377047" r="5" /><text x="634.6991843073581" y="328.349107377047">Las Palmas</text></g>
<g class="city"><circle cx="776.7996825441654" cy="389.9970931429115" r="5" /><text x="788.7996825441654" y="393.9970931429115">Laayoune</text></g>
<g class="city"><circle cx="510.33503668648905" cy="821.8930820406708" r="5" /><text x="522.335036686489" y="825.8930820406708">Nouadhibou</text></g>
<g class="city"><circle cx="787.1663942082787" cy="848.384768429399" r="5" /><text x="799.1663942082787" y="852.384768429399">Atar</text></g>
<g class="city"><circle cx="1021.9435246490967" cy="461.23009929583424" r="5" /><text x="1033.9435246490966" y="465.23009929583424">Bir Lehlou</text></g>
<text class="map-title" x="80" y="105">Samoa Political Study Map</text>
<text class="map-subtitle" x="80" y="145">Capital: Apia | Continent: Oceania</text>
  <text class="footer" x="80" y="1036">Made with Natural Earth. Free vector and raster map data @ naturalearthdata.com.</text>
</svg>
