<?xml version="1.0" encoding="UTF-8"?>
<svg xmlns="http://www.w3.org/2000/svg" width="1600" height="1100" viewBox="0 0 1600 1100" role="img" aria-labelledby="title desc">
  <title id="title">South Africa Political Study Map</title>
  <desc id="desc">Made with Natural Earth. Free vector and raster map data @ naturalearthdata.com.</desc>
  <defs>
    <linearGradient id="terrain" x1="0" x2="1" y1="0" y2="1">
      <stop offset="0%" stop-color="#6c8c53" />
      <stop offset="42%" stop-color="#d5c487" />
      <stop offset="72%" stop-color="#b88b5f" />
      <stop offset="100%" stop-color="#f1f5ee" />
    </linearGradient>
    <filter id="softShadow" x="-10%" y="-10%" width="120%" height="120%">
      <feDropShadow dx="0" dy="10" stdDeviation="12" flood-color="#0f172a" flood-opacity="0.16" />
    </filter>
    <style>
      .neighbor { fill: #ffffff; stroke: #94a3b8; stroke-width: 1.2; opacity: 0.72; }
      .country { fill: #f7f1df; stroke: #1f2937; stroke-width: 4; filter: url(#softShadow); }
      .admin1 { fill: none; stroke: #64748b; stroke-width: 1.1; stroke-dasharray: 6 7; opacity: 0.75; }
      .river { fill: none; stroke: #1d9bd1; stroke-width: 3; stroke-linecap: round; opacity: 0.88; }
      .lake { fill: #8ed1ea; stroke: #0ea5e9; stroke-width: 1.5; opacity: 0.8; }
      .city circle { fill: #ef4444; stroke: #ffffff; stroke-width: 2; }
      .city text, .terrain-label { fill: #172033; font: 700 24px system-ui, sans-serif; paint-order: stroke; stroke: #ffffff; stroke-width: 5; stroke-linejoin: round; }
      .map-title { fill: #0f172a; font: 800 46px system-ui, sans-serif; }
      .map-subtitle { fill: #475569; font: 600 24px system-ui, sans-serif; }
      .footer { fill: #64748b; font: 500 18px system-ui, sans-serif; }
    </style>
  </defs>
  <rect width="100%" height="100%" fill="#eaf3f8" />
  <rect x="40" y="40" width="1520" height="1020" rx="32" fill="#ffffff" opacity="0.54" />
  <path class="neighbor" d="M 6416.8 137.3 L 6416.8 154.9 L 6393.8 163.8 L 6370.7 171.4 L 6366.1 158 L 6384.1 150.5 L 6395.6 148.6 L 6416.8 137.3 Z M 6349 189.2 L 6358 183.3 L 6370.5 193.7 L 6364.5 212.6 L 6342.1 217.5 L 6322.2 213.1 L 6318.7 197.2 L 6332.6 184.8 L 6349 189.2 Z M -6586.6 135.6 L -6591.1 153 L -6594 154.9 L -6594 137.3 L -6586.6 135.6 Z" />
<path class="neighbor" d="M 958.7 603.1 L 971.2 614 L 960.1 631.6 L 954 643.4 L 933.8 649 L 927.2 660.6 L 914.3 664.1 L 887.2 636.3 L 906.4 613.5 L 926 599.3 L 942.9 591.9 L 958.7 603.1 Z" />
<path class="neighbor" d="M 1038.7 360.8 L 1019.5 357.2 L 1007.3 361.5 L 989.8 355.4 L 975.1 355 L 952 338.7 L 924.1 333.1 L 913.5 310.2 L 913.4 297.5 L 897.9 293.6 L 857 253.9 L 845.6 233 L 838.4 226.5 L 824.5 197.6 L 864.9 201.6 L 876.6 205.7 L 888.8 204.9 L 908.8 181.5 L 940.2 151.8 L 953.2 148.9 L 957.6 136.4 L 978.2 122 L 1005.5 117.1 L 1007.9 130.5 L 1038 129.8 L 1054.8 137.5 L 1062.5 146.4 L 1079.8 149 L 1098.5 160.6 L 1098.6 206.4 L 1091.6 231.4 L 1090 258.4 L 1095.8 269.1 L 1091.7 290.4 L 1086.3 293.7 L 1076.7 319.8 L 1038.7 360.8 Z" />
<path class="neighbor" d="M 975.1 355 L 924 381.6 L 891.5 408.6 L 879.5 432.7 L 868.6 446.3 L 848.9 449.2 L 842.6 466.4 L 838.9 477.7 L 815.8 486.1 L 786.4 484.3 L 769.1 474.2 L 753.9 469.8 L 736.3 478.2 L 727.4 495.5 L 710.3 506.4 L 692.2 522.5 L 666.4 526.2 L 658.3 513.5 L 661.6 491.5 L 640.2 457.2 L 630.4 451.7 L 630.4 346.2 L 666 345 L 667.1 216.3 L 694 215.1 L 749.7 202.4 L 763.6 217.3 L 786.6 203.1 L 797.6 203.1 L 818 194.9 L 824.5 197.6 L 838.4 226.5 L 845.6 233 L 857 253.9 L 897.9 293.6 L 913.4 297.5 L 913.5 310.2 L 924.1 333.1 L 952 338.7 L 975.1 355 Z" />
<path class="neighbor" d="M 630.4 451.7 L 630.4 585.2 L 598.1 603.7 L 578.7 606.3 L 556 599.5 L 539.8 596.9 L 533.7 581.4 L 519.4 571.5 L 502.1 589.4 L 475.2 562.1 L 461.1 535.7 L 453.1 500.5 L 444.2 474.3 L 432.1 418.7 L 431.3 375.4 L 426.7 355.7 L 412.6 340.8 L 394 311 L 375 267.6 L 367.1 244.9 L 337.7 209.6 L 335.5 181.9 L 352.9 175 L 374.5 168.9 L 397.9 170 L 419.5 186.3 L 424.9 183.8 L 571.4 182.2 L 596.5 199.5 L 684 204.6 L 750.4 189.9 L 780 181.7 L 803.4 183.8 L 817.7 191.9 L 818 194.9 L 797.6 203.1 L 786.6 203.1 L 763.6 217.3 L 749.7 202.4 L 694 215.1 L 667.1 216.3 L 666 345 L 630.4 346.2 L 630.4 451.7 Z" />
<path class="neighbor" d="M 1022.4 -142 L 1037.5 -132.8 L 1051.9 -126.7 L 1074.8 -120.7 L 1095.3 -109.8 L 1112.4 -93.7 L 1121.6 -63 L 1115.4 -53.2 L 1108.2 -23.9 L 1115.1 6 L 1103.7 18.6 L 1092.8 52.2 L 1111.8 61.6 L 1002.1 91.3 L 1005.5 117.1 L 978.2 122 L 957.6 136.4 L 953.2 148.9 L 940.2 151.8 L 908.8 181.5 L 888.8 204.9 L 876.6 205.7 L 864.9 201.6 L 824.5 197.6 L 818 194.9 L 817.7 191.9 L 803.4 183.8 L 780 181.7 L 750.4 189.9 L 726.8 167.3 L 702.4 137.8 L 704.1 22.8 L 779.3 23.2 L 776.3 10.7 L 781.7 -2.8 L 775.3 -19.7 L 779.4 -37.3 L 775.6 -48.5 L 788.1 -47.6 L 790.1 -36.4 L 807.1 -37.2 L 830 -33.9 L 842.1 -17.5 L 871 -12.4 L 893.1 -23.9 L 901.2 -4.9 L 928.9 0.1 L 942.3 15.5 L 957.1 35.4 L 984.8 35.7 L 981.7 -3.2 L 971.8 3.3 L 946.5 -10.7 L 936.8 -17.2 L 941.3 -53.4 L 947.7 -96.2 L 939.6 -112.2 L 949.9 -135.2 L 959.6 -139.6 L 1008.1 -145.7 L 1022.4 -142 Z" />
<path class="neighbor" d="M 1095.3 -109.8 L 1130.8 -103.1 L 1138 -93.1 L 1150.3 -76.2 L 1160.4 -27.1 L 1150.3 0.4 L 1160.4 47.4 L 1173 46.9 L 1186 58.5 L 1201.1 84.7 L 1204.2 131.1 L 1188.6 138.7 L 1177.5 163.8 L 1154 141.5 L 1151.3 116 L 1158.9 99.2 L 1156.8 84.7 L 1142.5 75.6 L 1132.6 78.9 L 1111.8 61.6 L 1092.8 52.2 L 1103.7 18.6 L 1115.1 6 L 1108.2 -23.9 L 1115.4 -53.2 L 1121.6 -63 L 1112.4 -93.7 L 1095.3 -109.8 Z" />
<path class="neighbor" d="M 1160.4 -27.1 L 1187.6 -30 L 1231 -19.8 L 1240.5 -24.4 L 1265.6 -25.3 L 1278.5 -36.1 L 1300.2 -35.5 L 1339.7 -49.6 L 1368.5 -70.5 L 1368.5 -70.5 L 1368.5 -70.5 L 1374.3 -54.3 L 1372.8 -18.3 L 1377.3 13.4 L 1378.7 69.9 L 1385.1 87.6 L 1374.3 113.4 L 1360.3 138.5 L 1337.2 160.9 L 1304.2 174.6 L 1263.5 192.2 L 1222.6 231 L 1208.7 237.6 L 1183.5 263.3 L 1168.6 271.6 L 1165.5 297.4 L 1182.7 324.8 L 1189.8 345.9 L 1190.3 356.8 L 1196.6 355 L 1195.6 390.4 L 1189.8 407.2 L 1198.3 413.4 L 1192.9 428.4 L 1177.8 441.3 L 1148 453.5 L 1104.5 473 L 1088.7 486.4 L 1091.8 501.6 L 1101 504.1 L 1097.9 523.1 L 1070.5 522.8 L 1067.4 506.8 L 1062 490.6 L 1058.9 477.6 L 1065.4 437.3 L 1056 411.7 L 1038.7 360.8 L 1076.7 319.8 L 1086.3 293.7 L 1091.7 290.4 L 1095.8 269.1 L 1090 258.4 L 1091.6 231.4 L 1098.6 206.4 L 1098.5 160.6 L 1079.8 149 L 1062.5 146.4 L 1054.8 137.5 L 1038 129.8 L 1007.9 130.5 L 1005.5 117.1 L 1002.1 91.3 L 1111.8 61.6 L 1132.6 78.9 L 1142.5 75.6 L 1156.8 84.7 L 1158.9 99.2 L 1151.3 116 L 1154 141.5 L 1177.5 163.8 L 1188.6 138.7 L 1204.2 131.1 L 1201.1 84.7 L 1186 58.5 L 1173 46.9 L 1160.4 47.4 L 1150.3 0.4 L 1160.4 -27.1 Z" />
<path class="neighbor" d="M 1070.5 522.8 L 1063.1 538.8 L 1042 542.7 L 1020.4 523.1 L 1020.1 510.7 L 1029.9 497.1 L 1033.3 486.6 L 1043.8 484 L 1062 490.6 L 1067.4 506.8 L 1070.5 522.8 Z" />
<path class="neighbor" d="M 381 -270.6 L 367.9 -263 L 362 -253.7 L 360.9 -238 L 351.7 -234.2 L 342 -261.3 L 356.6 -276.9 L 367.5 -283 L 381 -270.6 Z M 356.7 -222.9 L 371.6 -227.8 L 382.1 -227.1 L 394.8 -231.5 L 501.4 -231 L 510.4 -204.1 L 520.7 -182.4 L 529 -170.7 L 542.9 -151.8 L 566.8 -154.7 L 578.7 -159.8 L 598.7 -154.7 L 604.1 -163.7 L 613.1 -184.8 L 635.6 -186.2 L 637.5 -192.5 L 656 -192.6 L 652.8 -179.6 L 696.7 -179.9 L 697.3 -157.2 L 704.6 -143.2 L 699.3 -121.4 L 702 -99.2 L 714 -85.8 L 712.1 -42.8 L 721 -46.1 L 736.7 -45.2 L 759.1 -50.6 L 775.6 -48.5 L 779.4 -37.3 L 775.3 -19.7 L 781.7 -2.8 L 776.3 10.7 L 779.3 23.2 L 704.1 22.8 L 702.4 137.8 L 726.8 167.3 L 750.4 189.9 L 684 204.6 L 596.5 199.5 L 571.4 182.2 L 424.9 183.8 L 419.5 186.3 L 397.9 170 L 374.5 168.9 L 352.9 175 L 335.5 181.9 L 332.1 159.2 L 337.1 127.4 L 349.5 94.3 L 351.4 78.8 L 363.1 46.2 L 371.8 31.4 L 392.5 7.8 L 404.1 -8.3 L 407.9 -35.1 L 406 -55.6 L 395.2 -68.5 L 385.6 -90.4 L 376.7 -112.1 L 378.6 -119.6 L 389.8 -133.9 L 378.8 -168.9 L 371.4 -193.1 L 353.3 -215.9 L 356.7 -222.9 Z" />

<path class="country" d="M 502.1 589.4 L 519.4 571.5 L 533.7 581.4 L 539.8 596.9 L 556 599.5 L 578.7 606.3 L 598.1 603.7 L 630.4 585.2 L 630.4 451.7 L 640.2 457.2 L 661.6 491.5 L 658.3 513.5 L 666.4 526.2 L 692.2 522.5 L 710.3 506.4 L 727.4 495.5 L 736.3 478.2 L 753.9 469.8 L 769.1 474.2 L 786.4 484.3 L 815.8 486.1 L 838.9 477.7 L 842.6 466.4 L 848.9 449.2 L 868.6 446.3 L 879.5 432.7 L 891.5 408.6 L 924 381.6 L 975.1 355 L 989.8 355.4 L 1007.3 361.5 L 1019.5 357.2 L 1038.7 360.8 L 1056 411.7 L 1065.4 437.3 L 1058.9 477.6 L 1062 490.6 L 1043.8 484 L 1033.3 486.6 L 1029.9 497.1 L 1020.1 510.7 L 1020.4 523.1 L 1042 542.7 L 1063.1 538.8 L 1070.5 522.8 L 1097.9 523.1 L 1088.9 549.4 L 1084.6 579.4 L 1075.2 595.7 L 1050.6 614 L 1043.5 619.2 L 1028.2 637.6 L 1018.1 656.1 L 997.6 682 L 956.8 719.3 L 931.3 741 L 904 757.5 L 866.2 771.5 L 847.8 773.4 L 843.1 783.4 L 821.2 778.1 L 803.3 784.9 L 764.1 778 L 742.2 782.4 L 727.2 780.5 L 690 794.7 L 659.1 800.5 L 636.8 814.1 L 620.3 815 L 605 802.1 L 592.8 801.5 L 577.3 785.3 L 575.6 790.3 L 570.8 780.6 L 571 759.4 L 559.2 735.2 L 570.9 728.6 L 569.9 700.9 L 546.3 667.1 L 528.1 636.4 L 528.1 636.3 L 502.1 589.4 Z M 958.7 603.1 L 942.9 591.9 L 926 599.3 L 906.4 613.5 L 887.2 636.3 L 914.3 664.1 L 927.2 660.6 L 933.8 649 L 954 643.4 L 960.1 631.6 L 971.2 614 L 958.7 603.1 Z" />
<path class="admin1" d="M 728.7 500.2 L 732 501 L 731.9 511.1 L 735.9 512.4 L 737.2 510.7 L 739.6 501.9 L 742.1 502.1 L 744.7 499.9 L 746.2 495.8 L 756.1 496.8 L 755.3 499.1 L 750.9 498.4 L 750.7 500.6 L 753.6 501.5 L 750.7 506 L 752.9 508.7 L 752.4 513.6 L 759.2 515.4 L 763.6 518.5 L 760.5 522.9 L 773.2 528.3 L 776.1 527.6 L 778.3 529.2 L 779.6 533 L 777.4 536 L 774.9 541.7 L 781.8 545.4 L 780.1 549.6 L 780.3 553.6 L 782.9 555.1 L 782.8 559.2 L 793.5 557.1 L 794.9 560.7 L 791.9 564.9 L 794.9 567.7 L 794.6 569.9 L 797.5 572.1 L 800.9 568.6 L 801.2 565.1 L 803.8 562.3 L 803 556.7 L 807.5 554.5 L 808.2 557.2 L 813.9 557.2 L 815.9 558 L 809.2 565.1 L 812.5 572 L 815.4 571 L 815.3 572.7 L 811.9 580 L 809.3 587.3 L 810.4 592 L 802.4 607.2 L 791.1 628.1 L 793.6 632.3 L 802.5 637.1 L 803 639 L 807.1 640.4 L 811.5 648.1 L 816 651.1 L 816.5 652.8 L 821.6 657.3 L 831.8 663 L 832.4 668.1 L 833.8 669.8 L 833.2 674.6 L 831 680.4 L 827.6 685.2 L 822.7 684.3 L 813.8 687.2 L 806.4 691 L 799 691.5 L 797.3 697 L 796.8 702.4 L 790.9 703 L 784.3 704.4 L 784.1 705.5 L 777.4 703.2 L 773.8 705.9 L 771.9 703.3 L 767.9 701.1 L 757.1 701.6 L 753.2 704.1 L 749.2 709.1 L 745.1 712.3 L 743.6 709 L 740.6 707.9 L 733.8 707.1 L 728.4 705 L 723.7 700.6 L 717 697.6 L 711.7 707.8 L 709.7 709.2 L 710.1 715.2 L 705.4 720.2 L 701.2 721.9 L 696.2 720.8 L 690.3 721.8 L 685.6 725.7 L 681.4 726.7 L 677.3 729.7 L 674.6 735.1 L 665.5 737.6 L 664 739 L 662.5 744.2 L 659.7 746.3 L 653.9 745.7 L 649.4 747 L 641.8 740.7 L 638.7 734.7 L 637.2 728 L 641.9 723.4 L 639.2 720 L 631.5 726 L 627 726.6 L 623.5 728.9 L 620.1 729.6 L 617.3 736.2 L 615.2 734.2 L 615.7 729.9 L 613.4 724.3 L 615.9 721.5 L 615.1 715.9 L 609.6 713.9 L 605.7 710 L 599.1 709.3 L 600.7 704 L 600.5 697.8 L 598.7 694.9 L 597.9 687.4 L 595.8 684.1 L 594.6 677.3 L 595.5 674.9 L 595.8 667 L 592.4 666 L 588.5 661.7 L 582.2 657.8 L 578.7 659.9 L 576.8 658.9 L 574.1 664.5 L 570.9 669.1 L 567.6 670.5 L 562.8 668.8 L 558 674.6 L 553.6 682.4 L 550.3 677.7 L 538.3 656.9 L 532.6 644.4 L 524 619.3 L 516.4 605 L 507 591.7 L 505.8 590.9 L 507.2 589.3 L 512.3 586.2 L 514.6 585.4 L 515.8 585.7 L 516.9 584.9 L 518.1 582.8 L 518.4 580.9 L 518.9 578.1 L 520 576.5 L 521.3 573.2 L 523.4 571.1 L 527.8 569.7 L 531.2 571.5 L 532.6 573.3 L 533.2 575.7 L 534.7 576.9 L 537.1 576.8 L 538.7 578.3 L 539.7 581.3 L 539.5 583.5 L 538.2 584.9 L 538.3 586.7 L 540.1 588.9 L 540.8 591 L 542 593.8 L 548.1 595.4 L 551.1 596.3 L 556.2 596.6 L 561.1 597.9 L 565.6 600.1 L 573.2 600.6 L 583.6 599.5 L 592.2 600 L 599 602.1 L 603.9 602.5 L 606.9 601.1 L 608.3 599.2 L 607.9 596.7 L 609.4 595 L 612.8 594.4 L 615.5 592.5 L 617.6 589.3 L 622.3 586.8 L 629.8 584.8 L 633.5 584.9 L 633.5 579.8 L 633.5 563.7 L 633.5 547.6 L 633.5 531.5 L 633.5 515.5 L 633.5 499.4 L 633.5 483.3 L 633.5 467.2 L 633.5 452.1 L 635.2 453.1 L 646.7 461.2 L 649.8 465.4 L 651.3 468.1 L 656.2 477.9 L 659.9 486.6 L 662.9 493.2 L 663.1 496.2 L 663.5 499.2 L 663.9 500.6 L 663.7 502.2 L 661.6 505.8 L 659.4 508.6 L 656.9 512.3 L 656.6 517.3 L 657.4 523.1 L 659 526 L 660.9 526.9 L 665.7 525.5 L 668.7 525.9 L 672.9 527 L 686.8 526.4 L 688.5 526.7 L 693.7 527.1 L 695.4 526.7 L 697 525.4 L 698.8 521.9 L 700.5 520.8 L 703.4 520.2 L 706.9 519.2 L 709.8 517.2 L 714.3 510.3 L 723.5 504.2 L 726.3 502.7 L 728.1 501.1 L 728.7 500.2 Z" />
<path class="admin1" d="M 765.6 785 L 763.8 784.9 L 755.3 787.9 L 752.3 788.3 L 739.9 787.7 L 733.1 785.8 L 726.5 785.8 L 721.5 787.3 L 715.4 787.9 L 698.9 798.9 L 690.3 798.9 L 683 800.1 L 679.3 800.1 L 672.5 798.6 L 670 798.7 L 666.1 799.4 L 662.2 801.3 L 653.4 802.1 L 649.9 803.8 L 634.9 813.8 L 631.5 813.4 L 628.8 812.7 L 621 812.6 L 612.2 807.3 L 608.8 807.6 L 609.7 806 L 610 803.2 L 608.2 801.2 L 606.9 800.3 L 603.4 800.5 L 601.6 798 L 596.3 797.8 L 594.5 798.4 L 592 798.6 L 591.7 796.1 L 591.9 794.6 L 591.8 792.2 L 591.1 789.3 L 589.1 788.4 L 587.5 788 L 583.8 788.2 L 581.2 788.5 L 580 789.3 L 578.6 791.5 L 578.6 797.9 L 576.7 796.1 L 574.6 792.2 L 574 788.1 L 574.7 783.2 L 578.7 781.3 L 578.4 778 L 577.6 775.2 L 573.1 767.8 L 571.4 764.5 L 567.6 762.2 L 564.6 756.7 L 561.6 754.8 L 560.4 750.9 L 557.5 747.9 L 556.5 743 L 558.1 740.2 L 560.7 738.7 L 563.2 741.1 L 566.4 740.2 L 571 736.7 L 573.7 731.4 L 573.8 722.9 L 573.1 717.5 L 569.5 703.8 L 567.8 700.6 L 559.7 690.8 L 553.6 682.4 L 558 674.6 L 562.8 668.8 L 567.6 670.5 L 570.9 669.1 L 574.1 664.5 L 576.8 658.9 L 578.7 659.9 L 582.2 657.8 L 588.5 661.7 L 592.4 666 L 595.8 667 L 595.5 674.9 L 594.6 677.3 L 595.8 684.1 L 597.9 687.4 L 598.7 694.9 L 600.5 697.8 L 600.7 704 L 599.1 709.3 L 605.7 710 L 609.6 713.9 L 615.1 715.9 L 615.9 721.5 L 613.4 724.3 L 615.7 729.9 L 615.2 734.2 L 617.3 736.2 L 620.1 729.6 L 623.5 728.9 L 627 726.6 L 631.5 726 L 639.2 720 L 641.9 723.4 L 637.2 728 L 638.7 734.7 L 641.8 740.7 L 649.4 747 L 653.9 745.7 L 659.7 746.3 L 662.5 744.2 L 664 739 L 665.5 737.6 L 674.6 735.1 L 677.3 729.7 L 681.4 726.7 L 685.6 725.7 L 690.3 721.8 L 696.2 720.8 L 701.2 721.9 L 705.4 720.2 L 710.1 715.2 L 709.7 709.2 L 711.7 707.8 L 717 697.6 L 723.7 700.6 L 728.4 705 L 733.8 707.1 L 740.6 707.9 L 743.6 709 L 745.1 712.3 L 749.2 709.1 L 753.2 704.1 L 757.1 701.6 L 767.9 701.1 L 771.9 703.3 L 773.8 705.9 L 777.4 703.2 L 784.1 705.5 L 783.5 708 L 785.3 711.4 L 783.2 713.2 L 782 717.6 L 779.8 719.4 L 774.6 721.4 L 770 720.2 L 767 721.8 L 764.4 724.8 L 754.4 725.9 L 751.4 728.5 L 751.2 731.4 L 752.7 737.2 L 756 740.9 L 754.4 742.3 L 749.7 742.3 L 742.7 745.2 L 739.6 749.8 L 739.6 752.7 L 733.4 761.1 L 733.6 763.8 L 743.7 763.3 L 752.1 763.7 L 758.4 764.9 L 763 767.2 L 765 772.5 L 758.4 775 L 755.9 777.5 L 762.3 778 L 767.4 780.8 L 765.6 785 Z M 1269.9 1251.9 L 1272.1 1249.8 L 1273.4 1248.9 L 1277.1 1249.4 L 1280.1 1251.1 L 1280.7 1251.7 L 1279.6 1253.2 L 1278 1253.9 L 1270.7 1253.3 L 1269.9 1251.9 Z" />
<path class="admin1" d="M 728.7 500.2 L 729.6 498.8 L 732.8 491.1 L 735.3 484.7 L 736.1 481.6 L 738.2 476.7 L 740.9 473.5 L 743.4 471.8 L 744.7 471.4 L 748 470.6 L 752.2 469.8 L 756.7 470.7 L 761.5 472.6 L 766.9 475.8 L 772.4 479.8 L 774.9 481.8 L 777.7 482.8 L 782.5 483.1 L 785.7 483 L 790.7 487 L 793.2 487.2 L 798.9 488.4 L 805.8 489.7 L 810.2 489.5 L 814.9 487.4 L 818.2 487.3 L 822.6 487.5 L 827.4 486.9 L 830.9 485.9 L 833.6 484.1 L 836 482 L 838.7 476 L 840.3 471.1 L 842.7 465.4 L 845.7 457.8 L 846.8 452.5 L 847.9 451 L 852.2 449.4 L 855.8 448.2 L 865.4 446.2 L 865.9 450.8 L 867.5 453.3 L 873.7 453.9 L 878.8 455.3 L 885.2 452.5 L 888 450.1 L 889.2 454.7 L 893.8 459.8 L 897.6 460.4 L 900.4 462.3 L 904.8 462.1 L 906.9 463.5 L 908.4 460 L 911.3 459.1 L 919.9 460.2 L 922.1 459.6 L 926.9 460.5 L 931.4 462.9 L 927.8 464.1 L 927.9 467.4 L 931.7 468.3 L 933.9 471.6 L 931.8 472.9 L 927.1 473.6 L 923.5 473.2 L 921.5 475 L 924.5 477.2 L 922 481.5 L 921.3 489.3 L 918.8 491 L 913.5 491.9 L 910.3 489.2 L 903.8 492.1 L 903.3 496.5 L 901.4 500.7 L 897.7 501.5 L 898.9 506.6 L 894.1 510.1 L 895.5 514.5 L 896 519.4 L 899.3 518.5 L 907.7 519.8 L 908.2 522.9 L 906 524.5 L 904.5 527.9 L 901.9 528.6 L 898.3 527.4 L 893.6 529.7 L 888.8 529.8 L 884.1 528.4 L 874.4 532.4 L 868.7 537.4 L 865.9 538.8 L 868.6 541.6 L 867.3 545.2 L 860.1 547.8 L 859.3 550.1 L 851 555.5 L 846.5 554.8 L 843.8 553.4 L 838.1 556.7 L 835.9 556.1 L 830.1 558.1 L 823.6 562.1 L 823 564.1 L 819.6 566 L 816.8 570.7 L 815.4 571 L 812.5 572 L 809.2 565.1 L 815.9 558 L 813.9 557.2 L 808.2 557.2 L 807.5 554.5 L 803 556.7 L 803.8 562.3 L 801.2 565.1 L 800.9 568.6 L 797.5 572.1 L 794.6 569.9 L 794.9 567.7 L 791.9 564.9 L 794.9 560.7 L 793.5 557.1 L 782.8 559.2 L 782.9 555.1 L 780.3 553.6 L 780.1 549.6 L 781.8 545.4 L 774.9 541.7 L 777.4 536 L 779.6 533 L 778.3 529.2 L 776.1 527.6 L 773.2 528.3 L 760.5 522.9 L 763.6 518.5 L 759.2 515.4 L 752.4 513.6 L 752.9 508.7 L 750.7 506 L 753.6 501.5 L 750.7 500.6 L 750.9 498.4 L 755.3 499.1 L 756.1 496.8 L 746.2 495.8 L 744.7 499.9 L 742.1 502.1 L 739.6 501.9 L 737.2 510.7 L 735.9 512.4 L 731.9 511.1 L 732 501 L 728.7 500.2 Z" />
<path class="admin1" d="M 954.3 596.6 L 952.8 596 L 949.4 593.4 L 947.9 591.9 L 946.9 590.2 L 945.9 589.6 L 944.4 590 L 940.4 590.8 L 931.7 593.9 L 926.4 596.7 L 921.9 600.1 L 917.2 601.4 L 913.8 602.5 L 911.1 606.4 L 908.5 610 L 906.2 613.2 L 904.9 614.7 L 903.7 615.6 L 902.5 617.7 L 900.1 621.1 L 897.8 623.5 L 894.7 624.7 L 890.6 626.3 L 889.2 627.3 L 889.1 628.7 L 890.5 631.9 L 891.9 635.1 L 894.2 638.7 L 895.9 641.4 L 898.5 644.6 L 900 646.6 L 899.8 649.8 L 900.3 650.9 L 901 652 L 898 658.5 L 892 659 L 887.6 660.1 L 884.4 664.5 L 879.3 664.1 L 876.4 665.2 L 870.4 664.4 L 867 661.1 L 862.3 661.8 L 858.4 659.8 L 853.2 659.4 L 841.1 665.4 L 837.8 664.6 L 837 662.7 L 831.8 663 L 821.6 657.3 L 816.5 652.8 L 816 651.1 L 811.5 648.1 L 807.1 640.4 L 803 639 L 802.5 637.1 L 793.6 632.3 L 791.1 628.1 L 802.4 607.2 L 810.4 592 L 809.3 587.3 L 811.9 580 L 815.3 572.7 L 815.4 571 L 816.8 570.7 L 819.6 566 L 823 564.1 L 823.6 562.1 L 830.1 558.1 L 835.9 556.1 L 838.1 556.7 L 843.8 553.4 L 846.5 554.8 L 851 555.5 L 859.3 550.1 L 860.1 547.8 L 867.3 545.2 L 868.6 541.6 L 865.9 538.8 L 868.7 537.4 L 874.4 532.4 L 884.1 528.4 L 888.8 529.8 L 893.6 529.7 L 898.3 527.4 L 901.9 528.6 L 904.5 527.9 L 906 524.5 L 908.2 522.9 L 910.4 523.9 L 919.1 522.4 L 922.2 520.5 L 924.9 525.8 L 932.6 528.6 L 937.3 530 L 938.7 531.8 L 946.5 532.8 L 946.9 530.8 L 953.1 533.8 L 958 532.2 L 961.5 533.5 L 964 538 L 965.9 537.4 L 975.5 541.6 L 977 544.8 L 981.7 550.5 L 987.3 548.8 L 985.4 551.1 L 987.2 554.3 L 984.1 556.5 L 985.6 561.7 L 982 570.3 L 983.9 572.9 L 980.8 577.6 L 977.1 578.2 L 974.2 581.4 L 968 584.4 L 966.3 587.9 L 958.5 589.3 L 954.3 596.6 Z" />
<path class="admin1" d="M 932.6 528.6 L 924.9 525.8 L 922.2 520.5 L 919.1 522.4 L 910.4 523.9 L 908.2 522.9 L 907.7 519.8 L 899.3 518.5 L 896 519.4 L 895.5 514.5 L 894.1 510.1 L 898.9 506.6 L 897.7 501.5 L 901.4 500.7 L 903.3 496.5 L 903.8 492.1 L 910.3 489.2 L 913.5 491.9 L 918.8 491 L 921.3 489.3 L 922 481.5 L 924.5 477.2 L 921.5 475 L 923.5 473.2 L 927.1 473.6 L 931.8 472.9 L 933.9 471.6 L 939 471.8 L 942.4 469.9 L 947.3 469.1 L 945.2 465.8 L 950.5 464.3 L 951.6 468.4 L 946.1 472.2 L 946 479.2 L 947.5 484.1 L 950.9 485.6 L 954.4 483 L 952.4 479.7 L 956.6 480.1 L 958.6 484.5 L 957.3 491.6 L 955.2 492.5 L 954.8 496.4 L 951.4 496.7 L 946.3 495.3 L 944.3 498.4 L 941.4 499.2 L 942.6 504.3 L 949.3 508.5 L 952.5 507.4 L 954.5 510.7 L 952.1 511.7 L 951 514.9 L 946.6 514.6 L 942.5 516.7 L 941.6 518.4 L 937.8 520.1 L 938.1 523.7 L 934.3 526.2 L 932.6 528.6 Z" />
<path class="admin1" d="M 1061.7 422.7 L 1062.8 425.4 L 1064.6 432.5 L 1066.1 435.9 L 1066.7 437.6 L 1067.4 440.6 L 1067.3 447.1 L 1067.3 454.5 L 1067.4 462.8 L 1067.4 469.6 L 1067.1 473.1 L 1067.3 483 L 1065 488.1 L 1065.3 492.1 L 1066 494.7 L 1065.1 495.1 L 1063.2 495.6 L 1054.9 491.5 L 1046.8 487.1 L 1045.6 487 L 1043.9 487.4 L 1039.2 490.6 L 1034.9 495.6 L 1033 499.8 L 1029.8 504.2 L 1024.6 511.2 L 1024.1 512.7 L 1024.1 518.4 L 1024.3 523.9 L 1024.8 524.6 L 1027.5 524.9 L 1029.5 529.4 L 1034 536.5 L 1041.7 541 L 1037.2 544.1 L 1031 545.2 L 1028.2 543.7 L 1025.7 544.5 L 1019.5 542.4 L 1016.4 543.6 L 1011.7 543.6 L 1010.9 542.4 L 1005.8 543.3 L 1000.4 546.1 L 993.1 545.6 L 987.3 548.8 L 981.7 550.5 L 977 544.8 L 975.5 541.6 L 965.9 537.4 L 964 538 L 961.5 533.5 L 958 532.2 L 953.1 533.8 L 946.9 530.8 L 946.5 532.8 L 938.7 531.8 L 937.3 530 L 932.6 528.6 L 934.3 526.2 L 938.1 523.7 L 937.8 520.1 L 941.6 518.4 L 942.5 516.7 L 946.6 514.6 L 951 514.9 L 952.1 511.7 L 954.5 510.7 L 952.5 507.4 L 949.3 508.5 L 942.6 504.3 L 941.4 499.2 L 944.3 498.4 L 946.3 495.3 L 951.4 496.7 L 954.8 496.4 L 955.2 492.5 L 957.3 491.6 L 958.6 484.5 L 956.6 480.1 L 952.4 479.7 L 954.4 483 L 950.9 485.6 L 947.5 484.1 L 946 479.2 L 946.1 472.2 L 951.6 468.4 L 950.5 464.3 L 945.2 465.8 L 937.5 468.2 L 936.1 466.9 L 939.9 464.4 L 946.1 462 L 945.4 460.2 L 949.8 458.1 L 955.8 458.5 L 958.3 462.7 L 961 465.3 L 960.9 469.9 L 963.1 471.6 L 965.5 471.1 L 967.1 474.9 L 969.1 473.7 L 972.2 474.7 L 978.5 475 L 983.7 473.5 L 987.3 474.4 L 991.5 472.6 L 995.8 472.1 L 995.9 465.5 L 996.9 462.7 L 1000.1 464.6 L 1002.3 460.9 L 1002.2 454.9 L 1008.3 455.7 L 1010.8 454.7 L 1013.4 458.2 L 1019.4 453.6 L 1021.6 449.4 L 1019.9 446.3 L 1022.2 445 L 1023.3 440.8 L 1030.9 445 L 1039.7 444.1 L 1041.1 442.3 L 1037.6 437.7 L 1038.8 435.2 L 1033.9 435.6 L 1033.6 430.9 L 1035.8 427.5 L 1039.1 425.3 L 1040.7 427.6 L 1046.7 425.9 L 1047.9 424.8 L 1057.5 425.8 L 1059.9 422.7 L 1061.7 422.7 Z" />
<path class="admin1" d="M 1061.7 422.7 L 1059.9 422.7 L 1057.5 425.8 L 1047.9 424.8 L 1046.7 425.9 L 1040.7 427.6 L 1039.1 425.3 L 1035.8 427.5 L 1033.6 430.9 L 1033.9 435.6 L 1038.8 435.2 L 1037.6 437.7 L 1041.1 442.3 L 1039.7 444.1 L 1030.9 445 L 1023.3 440.8 L 1022.2 445 L 1019.9 446.3 L 1021.6 449.4 L 1019.4 453.6 L 1013.4 458.2 L 1010.8 454.7 L 1008.3 455.7 L 1002.2 454.9 L 1002.3 460.9 L 1000.1 464.6 L 996.9 462.7 L 995.9 465.5 L 995.8 472.1 L 991.5 472.6 L 987.3 474.4 L 983.7 473.5 L 978.5 475 L 972.2 474.7 L 969.1 473.7 L 967.1 474.9 L 965.5 471.1 L 963.1 471.6 L 960.9 469.9 L 961 465.3 L 958.3 462.7 L 955.8 458.5 L 949.8 458.1 L 945.4 460.2 L 946.1 462 L 939.9 464.4 L 936.1 466.9 L 937.5 468.2 L 945.2 465.8 L 947.3 469.1 L 942.4 469.9 L 939 471.8 L 933.9 471.6 L 931.7 468.3 L 927.9 467.4 L 927.8 464.1 L 931.4 462.9 L 926.9 460.5 L 922.1 459.6 L 919.9 460.2 L 911.3 459.1 L 908.4 460 L 906.9 463.5 L 904.8 462.1 L 900.4 462.3 L 897.6 460.4 L 893.8 459.8 L 889.2 454.7 L 888 450.1 L 885.2 452.5 L 878.8 455.3 L 873.7 453.9 L 867.5 453.3 L 865.9 450.8 L 865.4 446.2 L 867.4 445 L 869.2 442.5 L 873.4 438.3 L 878.6 434.7 L 881.2 432.7 L 886.1 415.4 L 886.7 413.3 L 890.3 408.7 L 892.5 406.8 L 893.9 406.8 L 895.9 405.6 L 898.5 403.2 L 901.6 401.7 L 905.2 401.2 L 907.5 399.6 L 908.6 397 L 910.5 395.7 L 913.1 395.8 L 914.6 395 L 915 393.2 L 916.6 391.7 L 919.4 390.5 L 920.8 389.1 L 921 387.4 L 924.3 383.3 L 930.9 376.8 L 937.1 373.1 L 943 372.4 L 948.5 371.1 L 953.7 369.1 L 957.5 366 L 960 361.8 L 964.2 359.4 L 972.7 358.7 L 973.1 358.7 L 983.4 357 L 992.1 358.4 L 1002.5 362.2 L 1012.2 363.6 L 1021.3 362.5 L 1028.7 362.2 L 1034.4 362.8 L 1038.9 364.2 L 1042.2 366.2 L 1042.3 368.1 L 1042.6 369 L 1044.3 374 L 1046.9 381.5 L 1048.6 388.4 L 1051 397.9 L 1050.9 403.2 L 1051.5 405.3 L 1053.6 407.8 L 1056.2 412.2 L 1057.1 414.7 L 1057.9 416.6 L 1060.7 420.1 L 1061.7 422.7 Z" />
<path class="admin1" d="M 1041.7 541 L 1048.7 543.1 L 1058.6 543.6 L 1066.4 543.5 L 1065.9 538.7 L 1066.7 531 L 1067.7 525.8 L 1068.8 525.6 L 1070.8 526.1 L 1072 526.6 L 1075.1 526.4 L 1080.7 527.4 L 1085.2 527.3 L 1089.2 527.2 L 1096 527 L 1099.9 527 L 1098.6 535.3 L 1093.4 548.4 L 1091.6 554.4 L 1087.2 575.8 L 1081.5 586.6 L 1078.2 591 L 1068.9 598.9 L 1066.3 600.5 L 1064 601.5 L 1059.9 602.4 L 1043.9 618.4 L 1037.9 626 L 1032.6 637.2 L 1027.3 643.4 L 1019.6 656.5 L 1012.7 666.7 L 1006 675.9 L 1002.6 679.7 L 1000.2 674.6 L 997.9 671.9 L 994.7 670.9 L 988.2 666.4 L 981.2 665.7 L 976.7 663.2 L 971 664.5 L 967.4 663.2 L 965.4 660.9 L 966.7 656.6 L 970.2 654.4 L 970.2 652.3 L 965.8 651.2 L 963.1 647.1 L 963.6 643.7 L 960 640 L 960.5 639.7 L 963 637.9 L 963.9 633.6 L 964.6 630 L 966.5 628.2 L 968.5 627.1 L 970.1 625.2 L 972.1 620.7 L 973.4 616.2 L 973.6 614.4 L 972.9 612.6 L 971.6 610.6 L 970.4 607.9 L 968.9 607.5 L 965.9 606 L 961.6 603 L 957.8 600.4 L 954.3 596.6 L 958.5 589.3 L 966.3 587.9 L 968 584.4 L 974.2 581.4 L 977.1 578.2 L 980.8 577.6 L 983.9 572.9 L 982 570.3 L 985.6 561.7 L 984.1 556.5 L 987.2 554.3 L 985.4 551.1 L 987.3 548.8 L 993.1 545.6 L 1000.4 546.1 L 1005.8 543.3 L 1010.9 542.4 L 1011.7 543.6 L 1016.4 543.6 L 1019.5 542.4 L 1025.7 544.5 L 1028.2 543.7 L 1031 545.2 L 1037.2 544.1 L 1041.7 541 Z" />
<path class="admin1" d="M 960 640 L 963.6 643.7 L 963.1 647.1 L 965.8 651.2 L 970.2 652.3 L 970.2 654.4 L 966.7 656.6 L 965.4 660.9 L 967.4 663.2 L 971 664.5 L 976.7 663.2 L 981.2 665.7 L 988.2 666.4 L 994.7 670.9 L 997.9 671.9 L 1000.2 674.6 L 1002.6 679.7 L 994.6 688.6 L 989.5 692.3 L 986 694 L 976.9 701.4 L 964.1 713.2 L 954.3 723.7 L 939.6 735.7 L 931.1 740.9 L 918.3 751.2 L 914.7 752.7 L 900.3 762.3 L 890 768.1 L 873.2 774.8 L 866.6 776.7 L 850.7 775 L 844 775.9 L 838.5 780 L 838 785.8 L 835.7 786.7 L 832.2 786.4 L 821 784 L 815 784.4 L 811.5 787.6 L 808.7 791.5 L 800.3 791.7 L 785.4 787.6 L 767.8 785.1 L 765.6 785 L 767.4 780.8 L 762.3 778 L 755.9 777.5 L 758.4 775 L 765 772.5 L 763 767.2 L 758.4 764.9 L 752.1 763.7 L 743.7 763.3 L 733.6 763.8 L 733.4 761.1 L 739.6 752.7 L 739.6 749.8 L 742.7 745.2 L 749.7 742.3 L 754.4 742.3 L 756 740.9 L 752.7 737.2 L 751.2 731.4 L 751.4 728.5 L 754.4 725.9 L 764.4 724.8 L 767 721.8 L 770 720.2 L 774.6 721.4 L 779.8 719.4 L 782 717.6 L 783.2 713.2 L 785.3 711.4 L 783.5 708 L 784.1 705.5 L 784.3 704.4 L 790.9 703 L 796.8 702.4 L 797.3 697 L 799 691.5 L 806.4 691 L 813.8 687.2 L 822.7 684.3 L 827.6 685.2 L 831 680.4 L 833.2 674.6 L 833.8 669.8 L 832.4 668.1 L 831.8 663 L 837 662.7 L 837.8 664.6 L 841.1 665.4 L 853.2 659.4 L 858.4 659.8 L 862.3 661.8 L 867 661.1 L 870.4 664.4 L 876.4 665.2 L 879.3 664.1 L 884.4 664.5 L 887.6 660.1 L 892 659 L 898 658.5 L 901 652 L 901.2 652.2 L 902 652.6 L 902.8 653.1 L 905 654 L 905.5 654.6 L 907 655.7 L 908.5 657.7 L 911.3 660.4 L 914.4 662.5 L 919.8 663.4 L 924 664 L 925.4 663.6 L 926.8 662 L 928 659.8 L 928.4 657.1 L 929.7 655.6 L 934.7 648.7 L 937.5 646.2 L 939.2 646 L 941.4 645.5 L 944.2 645.3 L 946.3 645.5 L 946.7 645.4 L 950 644.5 L 955.9 642.2 L 958.6 640.8 L 960 640 Z" />

<g class="city"><circle cx="924.3443909982304" cy="502.33997634950697" r="5" /><text x="936.3443909982304" y="506.33997634950697">Johannesburg</text></g>
<g class="city"><circle cx="577.5686920645611" cy="782.4331201028169" r="5" /><text x="589.5686920645611" y="786.4331201028169">Cape Town</text></g>
<g class="city"><circle cx="1032.1492815795405" cy="635.7936688143711" r="5" /><text x="1044.1492815795405" y="639.7936688143711">Durban</text></g>
<g class="city"><circle cx="1033.2992948614349" cy="200.47937975085037" r="5" /><text x="1045.2992948614349" y="204.47937975085037">Harare</text></g>
<g class="city"><circle cx="1089.1176940839905" cy="494.5780372384879" r="5" /><text x="1101.1176940839905" y="498.5780372384879">Maputo</text></g>
<g class="city"><circle cx="931.5516348279634" cy="485.6021149050041" r="5" /><text x="943.5516348279634" y="489.6021149050041">Pretoria</text></g>
<g class="city"><circle cx="836.5219389318842" cy="784.2410118187255" r="5" /><text x="848.5219389318842" y="788.2410118187255">Port Elizabeth</text></g>
<g class="city"><circle cx="944.2920978109977" cy="285.56135233491466" r="5" /><text x="956.2920978109977" y="289.56135233491466">Bulawayo</text></g>
<text class="map-title" x="80" y="105">South Africa Political Study Map</text>
<text class="map-subtitle" x="80" y="145">Capital: Pretoria | Continent: Africa</text>
  <text class="footer" x="80" y="1036">Made with Natural Earth. Free vector and raster map data @ naturalearthdata.com.</text>
</svg>
