<?xml version="1.0" encoding="UTF-8"?>
<svg xmlns="http://www.w3.org/2000/svg" width="1600" height="1100" viewBox="0 0 1600 1100" role="img" aria-labelledby="title desc">
  <title id="title">Zambia Political Study Map</title>
  <desc id="desc">Made with Natural Earth. Free vector and raster map data @ naturalearthdata.com.</desc>
  <defs>
    <linearGradient id="terrain" x1="0" x2="1" y1="0" y2="1">
      <stop offset="0%" stop-color="#6c8c53" />
      <stop offset="42%" stop-color="#d5c487" />
      <stop offset="72%" stop-color="#b88b5f" />
      <stop offset="100%" stop-color="#f1f5ee" />
    </linearGradient>
    <filter id="softShadow" x="-10%" y="-10%" width="120%" height="120%">
      <feDropShadow dx="0" dy="10" stdDeviation="12" flood-color="#0f172a" flood-opacity="0.16" />
    </filter>
    <style>
      .neighbor { fill: #ffffff; stroke: #94a3b8; stroke-width: 1.2; opacity: 0.72; }
      .country { fill: #f7f1df; stroke: #1f2937; stroke-width: 4; filter: url(#softShadow); }
      .admin1 { fill: none; stroke: #64748b; stroke-width: 1.1; stroke-dasharray: 6 7; opacity: 0.75; }
      .river { fill: none; stroke: #1d9bd1; stroke-width: 3; stroke-linecap: round; opacity: 0.88; }
      .lake { fill: #8ed1ea; stroke: #0ea5e9; stroke-width: 1.5; opacity: 0.8; }
      .city circle { fill: #ef4444; stroke: #ffffff; stroke-width: 2; }
      .city text, .terrain-label { fill: #172033; font: 700 24px system-ui, sans-serif; paint-order: stroke; stroke: #ffffff; stroke-width: 5; stroke-linejoin: round; }
      .map-title { fill: #0f172a; font: 800 46px system-ui, sans-serif; }
      .map-subtitle { fill: #475569; font: 600 24px system-ui, sans-serif; }
      .footer { fill: #64748b; font: 500 18px system-ui, sans-serif; }
    </style>
  </defs>
  <rect width="100%" height="100%" fill="#eaf3f8" />
  <rect x="40" y="40" width="1520" height="1020" rx="32" fill="#ffffff" opacity="0.54" />
  <path class="neighbor" d="M 8006 725.4 L 8006 748.5 L 7976 760.1 L 7945.7 770.1 L 7939.7 752.5 L 7963.3 742.7 L 7978.3 740.1 L 8006 725.4 Z M 7917.4 793.4 L 7929.1 785.6 L 7945.4 799.3 L 7937.6 824 L 7908.2 830.5 L 7882.2 824.6 L 7877.6 803.8 L 7895.8 787.6 L 7917.4 793.4 Z M -9016 723.2 L -9021.9 746 L -9025.8 748.5 L -9025.8 725.4 L -9016 723.2 Z" />
<path class="neighbor" d="M 1094.1 10.2 L 1102.1 15.4 L 1273.7 111.8 L 1276.9 139.2 L 1344.8 186.5 L 1323 244.8 L 1325.8 271.6 L 1356.1 288.8 L 1357.5 301.1 L 1344.4 329.7 L 1347.2 344.1 L 1344.1 366.7 L 1360.6 396.4 L 1380.2 443 L 1397.5 453.4 L 1397.5 453.4 L 1359.9 480.8 L 1308.2 499.2 L 1279.8 498.4 L 1262.9 512.6 L 1230 513.8 L 1217.6 519.8 L 1160.8 506.4 L 1125.2 510.3 L 1111.9 445.9 L 1095.9 423.9 L 1086.4 410.8 L 1040 401.9 L 1013.1 387.7 L 983.1 379.8 L 964.2 371.9 L 944.5 359.8 L 944.5 359.8 L 918.9 300.2 L 891.5 273.7 L 882 246.3 L 886.7 221.7 L 878.2 178.1 L 897.8 175.9 L 914.9 158.7 L 933.4 134.1 L 945 124.2 L 944.6 108.8 L 934.4 98.1 L 931.7 79.4 L 931.7 79.4 L 945.3 73.5 L 948.1 45.6 L 929.3 18.9 L 945.9 13.2 L 997.7 13.8 L 1094.1 10.2 Z" />
<path class="neighbor" d="M 878.2 178.1 L 886.7 221.7 L 882 246.3 L 891.5 273.7 L 918.9 300.2 L 944.5 359.8 L 944.5 359.8 L 925.8 355 L 862.3 363 L 849.6 368.6 L 836.1 398.8 L 846.7 419.7 L 838.3 475.7 L 832.4 523.2 L 845.2 531.6 L 878.3 550 L 891.3 541.4 L 895.2 592.5 L 859 592.1 L 839.6 566 L 822.2 545.9 L 785.9 539.3 L 775.3 514.5 L 746.4 529.4 L 708.5 522.8 L 692.7 501.3 L 662.6 497 L 640.5 498.1 L 637.7 483.4 L 621.4 482.2 L 599.9 479.4 L 570.6 486.5 L 550 485.3 L 538.3 489.7 L 540.8 433.4 L 525.1 415.8 L 521.6 386.7 L 528.5 358.2 L 519 339.9 L 518.1 310.2 L 460.7 310.6 L 464.8 293.5 L 440.7 293.7 L 438.1 301.9 L 408.8 303.8 L 396.9 331.3 L 389.8 343.2 L 363.7 336.5 L 348.1 343.1 L 316.8 347 L 298.7 322.2 L 287.8 306.9 L 274.2 278.6 L 262.5 243.3 L 122.9 242.7 L 106.3 248.4 L 92.6 247.5 L 73.1 253.8 L 66.5 239.2 L 78.5 234.2 L 80 213.5 L 87.7 201.4 L 104.9 191.4 L 117.4 196.3 L 133.6 178.1 L 159.3 178.6 L 162.4 192 L 180 200.4 L 207.9 170.7 L 235.4 147.6 L 247.4 132.5 L 245.8 93.6 L 266.4 47.6 L 288 23.2 L 319.2 0.4 L 324.6 -14.7 L 325.8 -32 L 333.5 -48.4 L 331 -75.2 L 336.9 -117.2 L 346.2 -146.7 L 360.3 -172 L 363.1 -200.6 L 367.4 -233.5 L 385.8 -257.6 L 411.2 -272.8 L 450.1 -256.7 L 480.2 -239.3 L 514.8 -234.6 L 550.1 -225.4 L 564.3 -253.9 L 570.8 -257.6 L 592.3 -252.8 L 645 -276.5 L 663.7 -266.4 L 679 -267.9 L 686.1 -279.4 L 703.7 -283.4 L 739.3 -278.4 L 769.6 -277.4 L 785.2 -282.4 L 813.9 -243.3 L 835.1 -237.6 L 847.8 -245.5 L 869.7 -242.4 L 896 -252.4 L 907.2 -232.2 L 948.9 -200.8 L 948.9 -200.8 L 946 -145.5 L 965 -139.1 L 949.8 -122.3 L 931.6 -109.7 L 913.5 -85 L 903.6 -63 L 900.9 -25 L 889.9 -7 L 889.5 28.7 L 875.9 41.9 L 874.2 70 L 867.7 73.7 L 863.3 99.6 L 875.2 121.1 L 878.2 178.1 Z" />
<path class="neighbor" d="M 1344.8 186.5 L 1276.9 139.2 L 1273.7 111.8 L 1102.1 15.4 L 1094.1 10.2 L 1093.6 -40 L 1107.2 -59.1 L 1130.5 -90.4 L 1147.7 -124.9 L 1126.9 -179.2 L 1121.4 -203 L 1098.9 -235.8 L 1128 -264.1 L 1160.1 -295.2 L 1184.7 -287.3 L 1184.7 -260.8 L 1200.8 -245.2 L 1233.8 -245.2 L 1293.6 -205 L 1308.6 -204.5 L 1319.7 -205.8 L 1330.2 -200.4 L 1361.7 -196.7 L 1375.7 -216.4 L 1418.9 -236.2 L 1438 -220.2 L 1470.3 -220.2 L 1429 -166.5 L 1429.5 5.8 L 1457.5 44.9 L 1424.4 63.8 L 1412.7 83.5 L 1395 87 L 1388.3 120.3 L 1373.1 139.4 L 1363.9 170.9 L 1344.8 186.5 Z" />
<path class="neighbor" d="M 263.4 1317.2 L 286.1 1293.8 L 304.8 1306.8 L 312.7 1327 L 334 1330.5 L 363.7 1339.4 L 389.1 1335.9 L 431.4 1311.8 L 431.4 1137 L 444.2 1144.1 L 472.2 1189.1 L 467.9 1217.9 L 478.4 1234.5 L 512.3 1229.7 L 536 1208.6 L 558.4 1194.3 L 570 1171.7 L 593 1160.7 L 613 1166.5 L 635.6 1179.7 L 674.1 1182.1 L 704.3 1171 L 709.1 1156.3 L 717.4 1133.6 L 743.2 1129.9 L 757.4 1112.1 L 773.2 1080.6 L 815.6 1045.2 L 882.6 1010.4 L 901.8 1010.9 L 924.7 1018.9 L 940.7 1013.2 L 965.8 1018 L 988.5 1084.6 L 1000.8 1118.2 L 992.3 1170.9 L 996.4 1187.9 L 972.5 1179.2 L 958.8 1182.6 L 954.4 1196.4 L 941.5 1214.2 L 941.9 1230.5 L 970.1 1256.2 L 997.8 1251 L 1007.5 1230 L 1043.3 1230.4 L 1031.5 1264.9 L 1025.9 1304.2 L 1013.7 1325.5 L 981.4 1349.4 L 972.2 1356.3 L 952.1 1380.3 L 938.9 1404.6 L 912.1 1438.5 L 858.6 1487.3 L 825.2 1515.7 L 789.5 1537.2 L 740 1555.6 L 715.9 1558.1 L 709.8 1571.2 L 681.1 1564.2 L 657.6 1573.2 L 606.4 1564.1 L 577.7 1569.9 L 558.1 1567.4 L 509.3 1586.1 L 468.9 1593.5 L 439.7 1611.4 L 418.2 1612.6 L 398.2 1595.7 L 382.2 1594.8 L 361.8 1573.7 L 359.6 1580.3 L 353.3 1567.5 L 353.5 1539.8 L 338.2 1508.1 L 353.4 1499.5 L 352.2 1463.2 L 321.2 1418.9 L 297.4 1378.8 L 297.4 1378.7 L 263.4 1317.2 Z M 861.1 1335.2 L 840.4 1320.6 L 818.3 1330.2 L 792.7 1348.7 L 767.5 1378.7 L 803 1415.1 L 819.9 1410.4 L 828.6 1395.3 L 855 1387.9 L 863 1372.4 L 877.5 1349.4 L 861.1 1335.2 Z" />
<path class="neighbor" d="M 965.8 1018 L 940.7 1013.2 L 924.7 1018.9 L 901.8 1010.9 L 882.6 1010.4 L 852.4 989 L 815.8 981.8 L 801.9 951.8 L 801.8 935.1 L 781.5 930 L 728 878 L 713.1 850.6 L 703.6 842.2 L 685.4 804.4 L 738.3 809.6 L 753.6 815 L 769.6 813.9 L 795.8 783.3 L 837 744.4 L 853.9 740.7 L 859.6 724.2 L 886.6 705.4 L 922.4 698.9 L 925.5 716.6 L 964.9 715.6 L 986.9 725.6 L 997.1 737.3 L 1019.6 740.8 L 1044.2 756 L 1044.3 815.8 L 1035 848.6 L 1033 884 L 1040.6 898 L 1035.3 925.9 L 1028.1 930.2 L 1015.7 964.3 L 965.8 1018 Z" />
<path class="neighbor" d="M 882.6 1010.4 L 815.6 1045.2 L 773.2 1080.6 L 757.4 1112.1 L 743.2 1129.9 L 717.4 1133.6 L 709.1 1156.3 L 704.3 1171 L 674.1 1182.1 L 635.6 1179.7 L 613 1166.5 L 593 1160.7 L 570 1171.7 L 558.4 1194.3 L 536 1208.6 L 512.3 1229.7 L 478.4 1234.5 L 467.9 1217.9 L 472.2 1189.1 L 444.2 1144.1 L 431.4 1137 L 431.4 998.9 L 478 997.3 L 479.4 828.8 L 514.6 827.2 L 587.6 810.6 L 605.7 830.1 L 635.9 811.6 L 650.2 811.5 L 676.9 800.8 L 685.4 804.4 L 703.6 842.2 L 713.1 850.6 L 728 878 L 781.5 930 L 801.8 935.1 L 801.9 951.8 L 815.8 981.8 L 852.4 989 L 882.6 1010.4 Z" />
<path class="neighbor" d="M 431.4 1137 L 431.4 1311.8 L 389.1 1335.9 L 363.7 1339.4 L 334 1330.5 L 312.7 1327 L 304.8 1306.8 L 286.1 1293.8 L 263.4 1317.2 L 228.3 1281.5 L 209.7 1246.9 L 199.3 1200.9 L 187.6 1166.6 L 171.8 1093.7 L 170.7 1037.1 L 164.7 1011.3 L 146.3 991.8 L 121.8 952.7 L 97 896 L 86.6 866.3 L 48.1 820.1 L 45.3 783.8 L 68 774.8 L 96.4 766.7 L 127 768.2 L 155.2 789.6 L 162.4 786.2 L 354.2 784.2 L 387 806.9 L 501.5 813.6 L 588.4 794.3 L 627.2 783.5 L 657.9 786.2 L 676.5 796.9 L 676.9 800.8 L 650.2 811.5 L 635.9 811.6 L 605.7 830.1 L 587.6 810.6 L 514.6 827.2 L 479.4 828.8 L 478 997.3 L 431.4 998.9 L 431.4 1137 Z" />
<path class="neighbor" d="M 363.1 -200.6 L 360.3 -172 L 346.2 -146.7 L 336.9 -117.2 L 331 -75.2 L 333.5 -48.4 L 325.8 -32 L 324.6 -14.7 L 319.2 0.4 L 288 23.2 L 266.4 47.6 L 245.8 93.6 L 247.4 132.5 L 235.4 147.6 L 207.9 170.7 L 180 200.4 L 162.4 192 L 159.3 178.6 L 133.6 178.1 L 117.4 196.3 L 104.9 191.4 L 87.2 175.2 L 72.9 183.2 L 53.8 203.6 L 15 153.5 L 51 127.4 L 33.2 96.1 L 49.4 84.2 L 81.3 78.4 L 85.1 57.4 L 110.3 80.1 L 152.1 82.1 L 166.6 59.8 L 172.6 28.3 L 167.4 -8.6 L 145.1 -36.6 L 165.5 -91.4 L 153.7 -100.8 L 118.5 -96.9 L 105.3 -121.4 L 108.7 -142 L 168.5 -140.2 L 206.7 -127.7 L 244.3 -116.5 L 247.7 -142 L 272.5 -186.1 L 300.7 -211.1 L 332.7 -203.2 L 363.1 -200.6 Z" />
<path class="neighbor" d="M 1040 401.9 L 1086.4 410.8 L 1095.9 423.9 L 1111.9 445.9 L 1125.2 510.3 L 1111.9 546.2 L 1125.2 607.7 L 1141.6 607 L 1158.7 622.3 L 1178.5 656.5 L 1182.5 717.3 L 1162 727.3 L 1147.6 760.1 L 1116.7 730.9 L 1113.2 697.5 L 1123.2 675.6 L 1120.4 656.6 L 1101.8 644.6 L 1088.7 649 L 1061.5 626.3 L 1036.6 614 L 1051 570.1 L 1065.9 553.6 L 1056.8 514.4 L 1066.3 476 L 1074.4 463.2 L 1062.3 423.1 L 1040 401.9 Z" />
<path class="neighbor" d="M 1125.2 510.3 L 1160.8 506.4 L 1217.6 519.8 L 1230 513.8 L 1262.9 512.6 L 1279.8 498.4 L 1308.2 499.2 L 1359.9 480.8 L 1397.5 453.4 L 1397.5 453.4 L 1397.5 453.4 L 1405.2 474.6 L 1403.2 521.7 L 1409.1 563.2 L 1410.9 637.1 L 1419.2 660.3 L 1405.1 694.1 L 1386.8 727 L 1356.6 756.3 L 1313.4 774.3 L 1260.1 797.3 L 1206.6 848 L 1188.4 856.7 L 1155.4 890.3 L 1135.9 901.2 L 1131.9 935 L 1154.3 970.8 L 1163.7 998.5 L 1164.2 1012.7 L 1172.6 1010.3 L 1171.3 1056.7 L 1163.6 1078.7 L 1174.7 1086.8 L 1167.7 1106.5 L 1147.9 1123.3 L 1108.9 1139.3 L 1052 1164.9 L 1031.2 1182.4 L 1035.3 1202.3 L 1047.4 1205.5 L 1043.3 1230.4 L 1007.5 1230 L 1003.4 1209.1 L 996.4 1187.9 L 992.3 1170.9 L 1000.8 1118.2 L 988.5 1084.6 L 965.8 1018 L 1015.7 964.3 L 1028.1 930.2 L 1035.3 925.9 L 1040.6 898 L 1033 884 L 1035 848.6 L 1044.3 815.8 L 1044.2 756 L 1019.6 740.8 L 997.1 737.3 L 986.9 725.6 L 964.9 715.6 L 925.5 716.6 L 922.4 698.9 L 917.9 665.3 L 1061.5 626.3 L 1088.7 649 L 1101.8 644.6 L 1120.4 656.6 L 1123.2 675.6 L 1113.2 697.5 L 1116.7 730.9 L 1147.6 760.1 L 1162 727.3 L 1182.5 717.3 L 1178.5 656.5 L 1158.7 622.3 L 1141.6 607 L 1125.2 607.7 L 1111.9 546.2 L 1125.2 510.3 Z" />
<path class="neighbor" d="M 104.9 191.4 L 87.7 201.4 L 80 213.5 L 78.5 234.2 L 66.5 239.2 L 53.8 203.6 L 72.9 183.2 L 87.2 175.2 L 104.9 191.4 Z M 73.1 253.8 L 92.6 247.5 L 106.3 248.4 L 122.9 242.7 L 262.5 243.3 L 274.2 278.6 L 287.8 306.9 L 298.7 322.2 L 316.8 347 L 348.1 343.1 L 363.7 336.5 L 389.8 343.2 L 396.9 331.3 L 408.8 303.8 L 438.1 301.9 L 440.7 293.7 L 464.8 293.5 L 460.7 310.6 L 518.1 310.2 L 519 339.9 L 528.5 358.2 L 521.6 386.7 L 525.1 415.8 L 540.8 433.4 L 538.3 489.7 L 550 485.3 L 570.6 486.5 L 599.9 479.4 L 621.4 482.2 L 626.4 496.9 L 621 519.8 L 629.4 542 L 622.3 559.7 L 626.3 576.1 L 527.8 575.5 L 525.6 726 L 557.6 764.7 L 588.4 794.3 L 501.5 813.6 L 387 806.9 L 354.2 784.2 L 162.4 786.2 L 155.2 789.6 L 127 768.2 L 96.4 766.7 L 68 774.8 L 45.3 783.8 L 40.8 754.1 L 47.4 712.5 L 63.7 669.1 L 66.2 648.8 L 81.5 606.2 L 92.8 586.8 L 120 555.9 L 135.1 534.8 L 140.1 499.8 L 137.6 472.9 L 123.5 456 L 110.9 427.3 L 99.3 398.9 L 101.8 389.1 L 116.3 370.3 L 102 324.6 L 92.3 293 L 68.6 263 L 73.1 253.8 Z" />
<path class="neighbor" d="M 931.7 79.4 L 934.4 98.1 L 944.6 108.8 L 945 124.2 L 933.4 134.1 L 914.9 158.7 L 897.8 175.9 L 878.2 178.1 L 875.2 121.1 L 863.3 99.6 L 892 103.3 L 906.5 76.4 L 931.7 79.4 Z" />

<path class="country" d="M 944.5 359.8 L 964.2 371.9 L 983.1 379.8 L 1013.1 387.7 L 1040 401.9 L 1062.3 423.1 L 1074.4 463.2 L 1066.3 476 L 1056.8 514.4 L 1065.9 553.6 L 1051 570.1 L 1036.6 614 L 1061.5 626.3 L 917.9 665.3 L 922.4 698.9 L 886.6 705.4 L 859.6 724.2 L 853.9 740.7 L 837 744.4 L 795.8 783.3 L 769.6 813.9 L 753.6 815 L 738.3 809.6 L 685.4 804.4 L 676.9 800.8 L 676.5 796.9 L 657.9 786.2 L 627.2 783.5 L 588.4 794.3 L 557.6 764.7 L 525.6 726 L 527.8 575.5 L 626.3 576.1 L 622.3 559.7 L 629.4 542 L 621 519.8 L 626.4 496.9 L 621.4 482.2 L 637.7 483.4 L 640.5 498.1 L 662.6 497 L 692.7 501.3 L 708.5 522.8 L 746.4 529.4 L 775.3 514.5 L 785.9 539.3 L 822.2 545.9 L 839.6 566 L 859 592.1 L 895.2 592.5 L 891.3 541.4 L 878.3 550 L 845.2 531.6 L 832.4 523.2 L 838.3 475.7 L 846.7 419.7 L 836.1 398.8 L 849.6 368.6 L 862.3 363 L 925.8 355 L 944.5 359.8 Z" />


<g class="city"><circle cx="1347.8396965454594" cy="286.8636935290979" r="5" /><text x="1359.8396965454594" y="290.8636935290979">Dar es Salaam</text></g>
<g class="city"><circle cx="958.7744272018883" cy="808.1217430226066" r="5" /><text x="970.7744272018883" y="812.1217430226066">Harare</text></g>
<g class="city"><circle cx="790.1265775526249" cy="517.7401703923451" r="5" /><text x="802.1265775526249" y="521.7401703923451">Lubumbashi</text></g>
<g class="city"><circle cx="828.1316854558462" cy="694.5219959493866" r="5" /><text x="840.1316854558462" y="698.5219959493866">Lusaka</text></g>
<g class="city"><circle cx="606.5602647009576" cy="256.11244175134925" r="5" /><text x="618.5602647009576" y="260.11244175134925">Mbuji-Mayi</text></g>
<g class="city"><circle cx="549.7885409934328" cy="243.81238576023873" r="5" /><text x="561.7885409934328" y="247.81238576023873">Kananga</text></g>
<g class="city"><circle cx="842.2595879120088" cy="919.4982686363799" r="5" /><text x="854.2595879120088" y="923.4982686363799">Bulawayo</text></g>
<g class="city"><circle cx="1088.431026027844" cy="626.80140804684" r="5" /><text x="1100.431026027844" y="630.80140804684">Lilongwe</text></g>
<text class="map-title" x="80" y="105">Zambia Political Study Map</text>
<text class="map-subtitle" x="80" y="145">Capital: Lusaka | Continent: Africa</text>
  <text class="footer" x="80" y="1036">Made with Natural Earth. Free vector and raster map data @ naturalearthdata.com.</text>
</svg>
