<?xml version="1.0" encoding="UTF-8"?>
<svg xmlns="http://www.w3.org/2000/svg" width="1600" height="1100" viewBox="0 0 1600 1100" role="img" aria-labelledby="title desc">
  <title id="title">Zimbabwe Political Study Map</title>
  <desc id="desc">Made with Natural Earth. Free vector and raster map data @ naturalearthdata.com.</desc>
  <defs>
    <linearGradient id="terrain" x1="0" x2="1" y1="0" y2="1">
      <stop offset="0%" stop-color="#6c8c53" />
      <stop offset="42%" stop-color="#d5c487" />
      <stop offset="72%" stop-color="#b88b5f" />
      <stop offset="100%" stop-color="#f1f5ee" />
    </linearGradient>
    <filter id="softShadow" x="-10%" y="-10%" width="120%" height="120%">
      <feDropShadow dx="0" dy="10" stdDeviation="12" flood-color="#0f172a" flood-opacity="0.16" />
    </filter>
    <style>
      .neighbor { fill: #ffffff; stroke: #94a3b8; stroke-width: 1.2; opacity: 0.72; }
      .country { fill: #f7f1df; stroke: #1f2937; stroke-width: 4; filter: url(#softShadow); }
      .admin1 { fill: none; stroke: #64748b; stroke-width: 1.1; stroke-dasharray: 6 7; opacity: 0.75; }
      .river { fill: none; stroke: #1d9bd1; stroke-width: 3; stroke-linecap: round; opacity: 0.88; }
      .lake { fill: #8ed1ea; stroke: #0ea5e9; stroke-width: 1.5; opacity: 0.8; }
      .city circle { fill: #ef4444; stroke: #ffffff; stroke-width: 2; }
      .city text, .terrain-label { fill: #172033; font: 700 24px system-ui, sans-serif; paint-order: stroke; stroke: #ffffff; stroke-width: 5; stroke-linejoin: round; }
      .map-title { fill: #0f172a; font: 800 46px system-ui, sans-serif; }
      .map-subtitle { fill: #475569; font: 600 24px system-ui, sans-serif; }
      .footer { fill: #64748b; font: 500 18px system-ui, sans-serif; }
    </style>
  </defs>
  <rect width="100%" height="100%" fill="#eaf3f8" />
  <rect x="40" y="40" width="1520" height="1020" rx="32" fill="#ffffff" opacity="0.54" />
  <path class="neighbor" d="M 11065.5 393 L 11065.5 426.2 L 11022.2 443 L 10978.8 457.3 L 10970 431.9 L 11004 418 L 11025.6 414.3 L 11065.5 393 Z M 10938 490.8 L 10954.8 479.6 L 10978.3 499.2 L 10967 534.7 L 10924.9 544.1 L 10887.4 535.7 L 10880.8 505.8 L 10907.1 482.4 L 10938 490.8 Z M -13403.7 389.9 L -13412.1 422.6 L -13417.7 426.2 L -13417.7 393 L -13403.7 389.9 Z" />
<path class="neighbor" d="M 819.2 -393.6 L 831.5 -331.1 L 824.7 -295.7 L 838.3 -256.2 L 877.7 -218.2 L 914.5 -132.5 L 914.5 -132.5 L 887.7 -139.4 L 796.3 -127.9 L 778.1 -119.8 L 758.7 -76.4 L 773.9 -46.4 L 761.8 34.1 L 753.4 102.4 L 771.8 114.5 L 819.3 141 L 838 128.6 L 843.7 201.9 L 791.7 201.4 L 763.7 164 L 738.7 135 L 686.5 125.5 L 671.3 89.8 L 629.7 111.3 L 575.2 101.8 L 552.5 70.9 L 509.3 64.7 L 477.5 66.3 L 473.6 45.2 L 450.1 43.5 L 419.1 39.4 L 377 49.6 L 347.5 48 L 330.6 54.2 L 334.3 -26.7 L 311.6 -52 L 306.6 -93.8 L 316.6 -134.8 L 302.8 -161 L 301.6 -203.8 L 219 -203.2 L 225 -227.7 L 190.3 -227.5 L 186.6 -215.7 L 144.4 -213 L 127.4 -173.4 L 117.2 -156.4 L 79.6 -166 L 57.2 -156.4 L 12.2 -150.9 L -13.9 -186.5 L -29.5 -208.5 L -49 -249.3 L -65.8 -299.9 L -266.5 -300.8 L -290.3 -292.7 L -310 -293.9 L -338.1 -284.8 L -347.6 -305.9 L -330.3 -313.1 L -328.2 -342.7 L -317.1 -360.2 L -292.3 -374.5 L -274.5 -367.6 L -251.2 -393.6 L -214.2 -392.9 L -209.8 -373.7 L -184.4 -361.6 L -144.4 -404.3 L -104.8 -437.5 L -87.6 -459.2 L -89.8 -515.2 L -60.3 -581.3 L -29.1 -616.3 L 15.6 -649.1 L 23.4 -670.8 L 25.1 -695.7 L 36.2 -719.3 L 32.7 -757.9 L 41.1 -818.1 L 54.4 -860.6 L 74.8 -896.9 L 78.8 -938 L 85 -985.4 L 111.4 -1020 L 147.8 -1041.9 L 203.8 -1018.7 L 247.1 -993.7 L 296.9 -987 L 347.6 -973.7 L 367.9 -1014.8 L 377.3 -1020 L 408.3 -1013.2 L 484 -1047.1 L 510.8 -1032.7 L 532.8 -1034.8 L 543 -1051.3 L 568.3 -1057.1 L 619.5 -1050 L 663.1 -1048.4 L 685.6 -1055.6 L 726.7 -999.5 L 757.3 -991.2 L 775.5 -1002.7 L 806.9 -998.2 L 844.8 -1012.6 L 861 -983.5 L 920.8 -938.3 L 920.8 -938.3 L 916.7 -858.8 L 944 -849.6 L 922.1 -825.4 L 896 -807.4 L 870 -771.9 L 855.7 -740.3 L 851.9 -685.7 L 836.1 -659.7 L 835.5 -608.4 L 816 -589.5 L 813.5 -549 L 804.1 -543.8 L 797.8 -506.6 L 814.9 -475.7 L 819.2 -393.6 Z" />
<path class="neighbor" d="M -64.5 1243.8 L -32 1210.2 L -5.1 1228.8 L 6.4 1257.9 L 36.9 1262.8 L 79.6 1275.7 L 116.2 1270.7 L 176.9 1235.9 L 177 984.8 L 195.3 995 L 235.6 1059.6 L 229.4 1101 L 244.5 1124.9 L 293.3 1118 L 327.3 1087.6 L 359.5 1067.2 L 376.1 1034.6 L 409.3 1018.8 L 438 1027.1 L 470.4 1046.1 L 525.8 1049.5 L 569.3 1033.7 L 576.2 1012.4 L 588.1 979.9 L 625.1 974.5 L 645.6 948.9 L 668.2 903.6 L 729.3 852.8 L 825.5 802.7 L 853.2 803.5 L 886.1 815 L 909 806.8 L 945.2 813.6 L 977.7 909.4 L 995.4 957.7 L 983.3 1033.5 L 989.1 1057.9 L 954.8 1045.5 L 935.1 1050.3 L 928.7 1070.1 L 910.1 1095.6 L 910.8 1119.2 L 951.4 1156 L 991.2 1148.7 L 1005 1118.5 L 1056.6 1119 L 1039.6 1168.5 L 1031.6 1225.1 L 1014 1255.8 L 967.6 1290.1 L 954.3 1299.9 L 925.5 1334.5 L 906.5 1369.4 L 867.9 1418.1 L 791.1 1488.3 L 743.1 1529.1 L 691.7 1560.1 L 620.6 1586.4 L 586 1590 L 577.2 1608.9 L 535.8 1598.8 L 502.2 1611.8 L 428.5 1598.7 L 387.3 1607 L 359.1 1603.4 L 289 1630.2 L 230.9 1641 L 188.9 1666.7 L 158 1668.3 L 129.2 1644.1 L 106.2 1642.9 L 76.9 1612.5 L 73.7 1621.9 L 64.7 1603.6 L 65 1563.8 L 42.9 1518.2 L 64.9 1505.8 L 63.1 1453.6 L 18.6 1390 L -15.6 1332.3 L -15.7 1332.2 L -64.5 1243.8 Z M 794.6 1269.6 L 765 1248.6 L 733.2 1262.5 L 696.3 1289.1 L 660.1 1332.2 L 711.1 1384.5 L 735.4 1377.7 L 747.9 1356 L 785.8 1345.4 L 797.4 1323.2 L 818.2 1290.1 L 794.6 1269.6 Z" />
<path class="neighbor" d="M 825.5 802.7 L 729.3 852.8 L 668.2 903.6 L 645.6 948.9 L 625.1 974.5 L 588.1 979.9 L 576.2 1012.4 L 569.3 1033.7 L 525.8 1049.5 L 470.4 1046.1 L 438 1027.1 L 409.3 1018.8 L 376.1 1034.6 L 359.5 1067.2 L 327.3 1087.6 L 293.3 1118 L 244.5 1124.9 L 229.4 1101 L 235.6 1059.6 L 195.3 995 L 177 984.8 L 176.9 786.3 L 244 783.9 L 246 541.6 L 296.6 539.4 L 401.5 515.6 L 427.4 543.6 L 470.9 517 L 491.5 516.8 L 529.8 501.5 L 542.1 506.6 L 568.2 560.9 L 581.9 573.1 L 603.3 612.4 L 680.3 687.1 L 709.4 694.5 L 709.6 718.4 L 729.6 761.6 L 782.2 772 L 825.5 802.7 Z" />
<path class="neighbor" d="M 177 984.8 L 176.9 1235.9 L 116.2 1270.7 L 79.6 1275.7 L 36.9 1262.8 L 6.4 1257.9 L -5.1 1228.8 L -32 1210.2 L -64.5 1243.8 L -115.1 1192.4 L -141.7 1142.8 L -156.7 1076.5 L -173.5 1027.3 L -196.3 922.5 L -197.8 841.2 L -206.5 804.1 L -232.9 776.1 L -268 719.9 L -303.8 638.3 L -318.6 595.6 L -374 529.2 L -378.1 477 L -345.4 464.1 L -304.7 452.5 L -260.6 454.5 L -220 485.3 L -209.8 480.5 L 65.9 477.6 L 113.1 510.1 L 277.7 519.8 L 402.7 492.1 L 458.4 476.6 L 502.5 480.5 L 529.3 495.8 L 529.8 501.5 L 491.5 516.8 L 470.9 517 L 427.4 543.6 L 401.5 515.6 L 296.6 539.4 L 246 541.6 L 244 783.9 L 176.9 786.3 L 177 984.8 Z" />
<path class="neighbor" d="M 914.5 -132.5 L 942.9 -115.2 L 970 -103.8 L 1013.2 -92.3 L 1051.8 -71.9 L 1083.9 -41.6 L 1101.2 16.2 L 1089.6 34.6 L 1075.9 89.7 L 1089 146.1 L 1067.6 169.7 L 1046.9 232.9 L 1082.7 250.5 L 876.3 306.6 L 882.8 355 L 831.3 364.3 L 792.5 391.4 L 784.3 415 L 759.9 420.3 L 700.8 476.3 L 663.1 520.3 L 640.2 521.9 L 618.1 514 L 542.1 506.6 L 529.8 501.5 L 529.3 495.8 L 502.5 480.5 L 458.4 476.6 L 402.7 492.1 L 358.3 449.6 L 312.4 393.9 L 315.6 177.5 L 457.2 178.4 L 451.4 154.9 L 461.5 129.4 L 449.6 97.6 L 457.3 64.6 L 450.1 43.5 L 473.6 45.2 L 477.5 66.3 L 509.3 64.7 L 552.5 70.9 L 575.2 101.8 L 629.7 111.3 L 671.3 89.8 L 686.5 125.5 L 738.7 135 L 763.7 164 L 791.7 201.4 L 843.7 201.9 L 838 128.6 L 819.3 141 L 771.8 114.5 L 753.4 102.4 L 761.8 34.1 L 773.9 -46.4 L 758.7 -76.4 L 778.1 -119.8 L 796.3 -127.9 L 887.7 -139.4 L 914.5 -132.5 Z" />
<path class="neighbor" d="M 1051.8 -71.9 L 1118.5 -59.2 L 1132.1 -40.4 L 1155.2 -8.7 L 1174.2 83.8 L 1155.2 135.5 L 1174.2 223.9 L 1197.9 222.9 L 1222.4 244.8 L 1250.9 294 L 1256.7 381.5 L 1227.2 395.8 L 1206.5 443 L 1162.1 401 L 1157.1 353 L 1171.4 321.4 L 1167.4 294.1 L 1140.6 276.9 L 1121.9 283.2 L 1082.7 250.5 L 1046.9 232.9 L 1067.6 169.7 L 1089 146.1 L 1075.9 89.7 L 1089.6 34.6 L 1101.2 16.2 L 1083.9 -41.6 L 1051.8 -71.9 Z" />
<path class="neighbor" d="M 1174.2 83.8 L 1225.4 78.3 L 1307.1 97.5 L 1324.9 88.9 L 1372.2 87.1 L 1396.5 66.7 L 1437.3 67.8 L 1511.6 41.4 L 1565.7 2 L 1565.7 2 L 1565.7 2 L 1576.8 32.5 L 1574 100.2 L 1582.4 159.9 L 1585 266.2 L 1597 299.5 L 1576.7 348.1 L 1550.3 395.3 L 1507 437.5 L 1444.8 463.4 L 1368.2 496.4 L 1291.3 569.4 L 1265.1 581.8 L 1217.7 630.1 L 1189.6 645.8 L 1183.9 694.3 L 1216.2 745.8 L 1229.6 785.7 L 1230.4 806 L 1242.4 802.6 L 1240.5 869.4 L 1229.5 900.9 L 1245.5 912.6 L 1235.4 940.9 L 1206.9 965.1 L 1150.8 988.1 L 1069.1 1024.9 L 1039.2 1050 L 1045.1 1078.7 L 1062.4 1083.2 L 1056.6 1119 L 1005 1118.5 L 999.2 1088.4 L 989.1 1057.9 L 983.3 1033.5 L 995.4 957.7 L 977.7 909.4 L 945.2 813.6 L 1016.8 736.4 L 1034.7 687.4 L 1045 681.2 L 1052.7 641.2 L 1041.8 621 L 1044.7 570.2 L 1057.9 523.1 L 1057.8 437 L 1022.5 415.1 L 990.1 410.2 L 975.4 393.4 L 943.9 379 L 887.2 380.4 L 882.8 355 L 876.3 306.6 L 1082.7 250.5 L 1121.9 283.2 L 1140.6 276.9 L 1167.4 294.1 L 1171.4 321.4 L 1157.1 353 L 1162.1 401 L 1206.5 443 L 1227.2 395.8 L 1256.7 381.5 L 1250.9 294 L 1222.4 244.8 L 1197.9 222.9 L 1174.2 223.9 L 1155.2 135.5 L 1174.2 83.8 Z" />
<path class="neighbor" d="M -292.3 -374.5 L -317.1 -360.2 L -328.2 -342.7 L -330.3 -313.1 L -347.6 -305.9 L -365.8 -357 L -338.4 -386.4 L -317.8 -397.8 L -292.3 -374.5 Z M -338.1 -284.8 L -310 -293.9 L -290.3 -292.7 L -266.5 -300.8 L -65.8 -299.9 L -49 -249.3 L -29.5 -208.5 L -13.9 -186.5 L 12.2 -150.9 L 57.2 -156.4 L 79.6 -166 L 117.2 -156.4 L 127.4 -173.4 L 144.4 -213 L 186.6 -215.7 L 190.3 -227.5 L 225 -227.7 L 219 -203.2 L 301.6 -203.8 L 302.8 -161 L 316.6 -134.8 L 306.6 -93.8 L 311.6 -52 L 334.3 -26.7 L 330.6 54.2 L 347.5 48 L 377 49.6 L 419.1 39.4 L 450.1 43.5 L 457.3 64.6 L 449.6 97.6 L 461.5 129.4 L 451.4 154.9 L 457.2 178.4 L 315.6 177.5 L 312.4 393.9 L 358.3 449.6 L 402.7 492.1 L 277.7 519.8 L 113.1 510.1 L 65.9 477.6 L -209.8 480.5 L -220 485.3 L -260.6 454.5 L -304.7 452.5 L -345.4 464.1 L -378.1 477 L -384.5 434.3 L -375.1 374.5 L -351.6 312.2 L -348.1 283 L -326 221.7 L -309.8 193.8 L -270.7 149.3 L -248.9 119.1 L -241.8 68.7 L -245.3 30.1 L -265.7 5.8 L -283.8 -35.4 L -300.5 -76.2 L -296.8 -90.4 L -275.9 -117.3 L -296.6 -183 L -310.5 -228.6 L -344.6 -271.6 L -338.1 -284.8 Z" />

<path class="country" d="M 945.2 813.6 L 909 806.8 L 886.1 815 L 853.2 803.5 L 825.5 802.7 L 782.2 772 L 729.6 761.6 L 709.6 718.4 L 709.4 694.5 L 680.3 687.1 L 603.3 612.4 L 581.9 573.1 L 568.2 560.9 L 542.1 506.6 L 618.1 514 L 640.2 521.9 L 663.1 520.3 L 700.8 476.3 L 759.9 420.3 L 784.3 415 L 792.5 391.4 L 831.3 364.3 L 882.8 355 L 887.2 380.4 L 943.9 379 L 975.4 393.4 L 990.1 410.2 L 1022.5 415.1 L 1057.8 437 L 1057.9 523.1 L 1044.7 570.2 L 1041.8 621 L 1052.7 641.2 L 1045 681.2 L 1034.7 687.4 L 1016.8 736.4 L 945.2 813.6 Z" />


<g class="city"><circle cx="935.0465794132758" cy="511.9683160046276" r="5" /><text x="947.0465794132758" y="515.9683160046276">Harare</text></g>
<g class="city"><circle cx="747.2481487915493" cy="348.6691236097919" r="5" /><text x="759.2481487915493" y="352.6691236097919">Lusaka</text></g>
<g class="city"><circle cx="767.5569533510995" cy="672.0716362413282" r="5" /><text x="779.5569533510995" y="676.0716362413282">Bulawayo</text></g>
<g class="city"><circle cx="1121.4274334418765" cy="251.32104319671203" r="5" /><text x="1133.4274334418765" y="255.32104319671203">Lilongwe</text></g>
<g class="city"><circle cx="1203.4899794125367" cy="374.1934593222031" r="5" /><text x="1215.4899794125367" y="378.1934593222031">Blantyre</text></g>
<g class="city"><circle cx="1195.33292922274" cy="648.2717330800251" r="5" /><text x="1207.33292922274" y="652.2717330800251">Beira</text></g>
<g class="city"><circle cx="743.07526140904" cy="171.52883686375694" r="5" /><text x="755.07526140904" y="175.52883686375694">Kitwe</text></g>
<g class="city"><circle cx="938.9393383181856" cy="524.492622887198" r="5" /><text x="950.9393383181856" y="528.492622887198">Chitungwiza</text></g>
<text class="map-title" x="80" y="105">Zimbabwe Political Study Map</text>
<text class="map-subtitle" x="80" y="145">Capital: Harare | Continent: Africa</text>
  <text class="footer" x="80" y="1036">Made with Natural Earth. Free vector and raster map data @ naturalearthdata.com.</text>
</svg>
